<?xml version="1.0" encoding="utf-8"?>
<!-- Generator: Adobe Illustrator 28.0.0, SVG Export Plug-In . SVG Version: 6.00 Build 0)  -->
<svg version="1.1" id="レイヤー_1" xmlns="http://www.w3.org/2000/svg" xmlns:xlink="http://www.w3.org/1999/xlink" x="0px"
	 y="0px" viewBox="0 0 270 234.9" style="enable-background:new 0 0 270 234.9;" xml:space="preserve">
<style type="text/css">
	.st0{fill:#E5EBD8;}
	.st1{fill:#D33D30;}
	.st2{fill:#E4F4AE;}
	.st3{fill:#FFFADA;}
	.st4{fill:#7AC6E0;}
	.st5{fill:none;stroke:#000000;stroke-miterlimit:10;}
	.st6{fill:#EA4E38;}
	.st7{fill:#F2CA68;}
	.st8{fill:#333333;}
	.st9{fill:#F8DAB8;}
	.st10{fill:#FED1AA;}
	.st11{fill:none;stroke:#000000;stroke-linecap:round;stroke-linejoin:round;}
</style>
<g id="_レイヤー_3">
	<g>
		<g>
			<polygon class="st0" points="269.7,189.2 269.7,194.4 261.3,189.2 			"/>
			<rect x="241.5" y="194.4" class="st0" width="14" height="39.9"/>
			<polygon class="st0" points="252.5,189.2 255.5,194.4 241.5,194.4 238.5,189.2 			"/>
			<rect x="217.7" y="194.4" class="st0" width="10.8" height="39.9"/>
			<polygon class="st0" points="225.5,189.2 228.5,194.4 217.7,194.4 214.7,189.2 			"/>
			<rect x="194" y="194.4" class="st0" width="10.8" height="39.9"/>
			<polygon class="st0" points="201.8,189.2 204.8,194.4 194,194.4 191,189.2 			"/>
			<rect x="170.2" y="194.4" class="st0" width="10.8" height="39.9"/>
			<polygon class="st0" points="178,189.2 181,194.4 170.2,194.4 167.2,189.2 			"/>
			<rect x="146.4" y="194.4" class="st0" width="10.8" height="39.9"/>
			<polygon class="st0" points="154.2,189.2 157.2,194.4 146.4,194.4 143.5,189.2 			"/>
			<rect x="122.7" y="194.4" class="st0" width="10.8" height="39.9"/>
			<polygon class="st0" points="130.5,189.2 133.5,194.4 122.7,194.4 119.7,189.2 			"/>
			<rect x="98.9" y="194.4" class="st0" width="10.8" height="39.9"/>
			<polygon class="st0" points="106.7,189.2 109.7,194.4 98.9,194.4 95.9,189.2 			"/>
			<rect x="75.2" y="194.4" class="st0" width="10.8" height="39.9"/>
			<polygon class="st0" points="83,189.2 86,194.4 75.2,194.4 72.2,189.2 			"/>
			<rect x="51.4" y="194.4" class="st0" width="10.8" height="39.9"/>
			<polygon class="st0" points="59.2,189.2 62.2,194.4 51.4,194.4 48.4,189.2 			"/>
			<rect x="27.6" y="194.4" class="st0" width="10.8" height="39.9"/>
			<polygon class="st0" points="35.4,189.2 38.4,194.4 27.6,194.4 24.6,189.2 			"/>
			<rect y="194.4" class="st0" width="14.7" height="39.9"/>
			<polygon class="st0" points="11.7,189.2 14.7,194.4 0,194.4 0,189.2 			"/>
			<rect x="255.5" y="194.4" class="st1" width="14.3" height="39.9"/>
			<polygon class="st2" points="269.7,120.1 269.7,189.2 261.3,189.2 252.5,189.2 238.5,189.2 225.5,189.2 214.7,189.2 201.8,189.2 
				191,189.2 178,189.2 167.2,189.2 154.2,189.2 143.5,189.2 130.5,189.2 119.7,189.2 106.7,189.2 95.9,189.2 83,189.2 72.2,189.2 
				59.2,189.2 48.4,189.2 35.4,189.2 24.6,189.2 11.7,189.2 0,189.2 0,120.4 			"/>
			<polygon class="st3" points="269.7,119.4 269.7,120.1 0,120.4 37,120.1 254,119.4 			"/>
			<polygon class="st3" points="269.7,113.3 269.7,119.4 254,119.4 37,120.1 0,120.4 0,119.3 0,113.3 			"/>
			<polygon class="st1" points="269.7,194.4 255.5,194.4 252.5,189.2 261.3,189.2 			"/>
			<rect x="228.5" y="194.4" class="st4" width="13" height="39.9"/>
			<polygon class="st4" points="238.5,189.2 241.5,194.4 228.5,194.4 225.5,189.2 			"/>
			<rect x="204.8" y="194.4" class="st1" width="13" height="39.9"/>
			<polygon class="st1" points="214.7,189.2 217.7,194.4 204.8,194.4 201.8,189.2 			"/>
			<rect x="181" y="194.4" class="st4" width="13" height="39.9"/>
			<polygon class="st4" points="191,189.2 194,194.4 181,194.4 178,189.2 			"/>
			<rect x="157.2" y="194.4" class="st1" width="13" height="39.9"/>
			<polygon class="st1" points="167.2,189.2 170.2,194.4 157.2,194.4 154.2,189.2 			"/>
			<rect x="133.5" y="194.4" class="st4" width="13" height="39.9"/>
			<polygon class="st4" points="143.5,189.2 146.4,194.4 133.5,194.4 130.5,189.2 			"/>
			<rect x="109.7" y="194.4" class="st1" width="13" height="39.9"/>
			<polygon class="st1" points="119.7,189.2 122.7,194.4 109.7,194.4 106.7,189.2 			"/>
			<rect x="86" y="194.4" class="st4" width="13" height="39.9"/>
			<polygon class="st4" points="95.9,189.2 98.9,194.4 86,194.4 83,189.2 			"/>
			<rect x="62.2" y="194.4" class="st1" width="13" height="39.9"/>
			<polygon class="st1" points="72.2,189.2 75.2,194.4 62.2,194.4 59.2,189.2 			"/>
			<rect x="38.4" y="194.4" class="st4" width="13" height="39.9"/>
			<polygon class="st4" points="48.4,189.2 51.4,194.4 38.4,194.4 35.4,189.2 			"/>
			<rect x="14.7" y="194.4" class="st1" width="13" height="39.9"/>
			<polygon class="st1" points="24.6,189.2 27.6,194.4 14.7,194.4 11.7,189.2 			"/>
		</g>
		<g>
			<polyline class="st5" points="0,189.2 11.7,189.2 24.6,189.2 35.4,189.2 48.4,189.2 59.2,189.2 72.2,189.2 83,189.2 95.9,189.2 
				106.7,189.2 119.7,189.2 130.5,189.2 143.5,189.2 154.2,189.2 167.2,189.2 178,189.2 191,189.2 201.8,189.2 214.7,189.2 
				225.5,189.2 238.5,189.2 252.5,189.2 261.3,189.2 269.7,194.4 			"/>
			<polyline class="st5" points="269.7,234.4 255.5,234.4 241.5,234.4 228.5,234.4 217.7,234.4 204.8,234.4 194,234.4 181,234.4 
				170.2,234.4 157.2,234.4 146.4,234.4 133.5,234.4 122.7,234.4 109.7,234.4 98.9,234.4 86,234.4 75.2,234.4 62.2,234.4 
				51.4,234.4 38.4,234.4 27.6,234.4 14.7,234.4 0,234.4 			"/>
			<polyline class="st5" points="252.5,189.2 255.5,194.4 255.5,234.4 			"/>
			<polyline class="st5" points="238.5,189.2 241.5,194.4 241.5,234.4 			"/>
			<polyline class="st5" points="225.5,189.2 228.5,194.4 228.5,234.4 			"/>
			<polyline class="st5" points="214.7,189.2 217.7,194.4 217.7,234.4 			"/>
			<polyline class="st5" points="201.8,189.2 204.8,194.4 204.8,234.4 			"/>
			<polyline class="st5" points="191,189.2 194,194.4 194,234.4 			"/>
			<polyline class="st5" points="178,189.2 181,194.4 181,234.4 			"/>
			<polyline class="st5" points="167.2,189.2 170.2,194.4 170.2,234.4 			"/>
			<polyline class="st5" points="154.2,189.2 157.2,194.4 157.2,234.4 			"/>
			<polyline class="st5" points="143.5,189.2 146.4,194.4 146.4,234.4 			"/>
			<polyline class="st5" points="130.5,189.2 133.5,194.4 133.5,234.4 			"/>
			<polyline class="st5" points="119.7,189.2 122.7,194.4 122.7,234.4 			"/>
			<polyline class="st5" points="106.7,189.2 109.7,194.4 109.7,234.4 			"/>
			<polyline class="st5" points="95.9,189.2 98.9,194.4 98.9,234.4 			"/>
			<polyline class="st5" points="83,189.2 86,194.4 86,234.4 			"/>
			<polyline class="st5" points="72.2,189.2 75.2,194.4 75.2,234.4 			"/>
			<polyline class="st5" points="59.2,189.2 62.2,194.4 62.2,234.4 			"/>
			<polyline class="st5" points="48.4,189.2 51.4,194.4 51.4,234.4 			"/>
			<polyline class="st5" points="35.4,189.2 38.4,194.4 38.4,234.4 			"/>
			<polyline class="st5" points="24.6,189.2 27.6,194.4 27.6,234.4 			"/>
			<polyline class="st5" points="11.7,189.2 14.7,194.4 14.7,234.4 			"/>
			<polyline class="st5" points="269.7,194.4 255.5,194.4 241.5,194.4 228.5,194.4 217.7,194.4 204.8,194.4 194,194.4 181,194.4 
				170.2,194.4 157.2,194.4 146.4,194.4 133.5,194.4 122.7,194.4 109.7,194.4 98.9,194.4 86,194.4 75.2,194.4 62.2,194.4 
				51.4,194.4 38.4,194.4 27.6,194.4 14.7,194.4 0,194.4 			"/>
			<line class="st5" x1="261.3" y1="189.2" x2="269.7" y2="189.2"/>
			<line class="st5" x1="0" y1="113.3" x2="269.7" y2="113.3"/>
			<line class="st5" x1="0" y1="119.9" x2="269.7" y2="119.9"/>
		</g>
	</g>
</g>
<g id="_レイヤー_1">
	<path class="st6" d="M224.5,103c0,0-1.8-9.7-1.9-12.3c0.8-0.6,1.7-1.1,2.5-1.7c-4.4-1.5-20.2-3.5-20.2-3.5c-0.1-0.4-0.3-0.7-0.4-1
		c-0.8-1.6-5.2-5.3-10.2-9.3c6.3-2.3,18.3-5.7,23.4-4.4c5.1,1.3,10,7.9,10,9.7v0.3c6.9-0.2,14.3,0,17.5,1.6
		c4.9,2.5,6.3,15.7,1.2,21.1s-2.3,5.8-3.9,9.5c-0.1,0.2-0.2,0.5-0.4,0.7c-1.3,1.9-4.3,4.4-7,6.3c-2.4,1.7-4.5,3-4.5,3
		c-1.5-2.1-2.8-4.1-3.9-5.7c-4.3-6.4-9.5-5-17-3.4c0,0-1.9-4.9-2.6-10.5c1.7-0.3,8.4-1.3,17.5-0.6L224.5,103z"/>
	<path class="st7" d="M198.9,145.7c-5.1,0.3-9.3,0.5-11.9,0.6c-7.2,0.3-8.1-0.8-10-3.2c-0.6-0.7-1.2-1.6-2.1-2.5
		c-3.9-4.2-4.9-5-6.7-4.6c-1.7,0.3-5.7,5.5-13.5,11.7c0,0-2-3.3-4.7-7.1l0,0c-0.9-1.2-1.8-2.5-2.8-3.7c-2.2-2.7-4.6-5.3-6.7-6.8
		c-6.3-4.4-10.8-11.9,0-17.8c0.4-0.2,0.8-0.4,1.3-0.6l0,0c0.3,0,0.5-0.2,0.5-0.2l0,0c1-0.4,2.2-0.8,3.5-1.1l0,0
		c2.2-0.6,4.8-1.2,7.7-1.7l0.3,1.7c7.6,2.3,24.6,10.4,52.5,4.4c1.2-0.2,2.3-0.4,3.4-0.7c7.6-1.6,12.7-2.9,17,3.4
		c1.1,1.6,2.4,3.5,3.9,5.7c5.2,7.6,11.8,16.9,11.8,16.9l0,0C230.9,143.5,212.1,145,198.9,145.7L198.9,145.7z"/>
	<path class="st6" d="M242.4,140c-7.7,4.8-12.5,9.5-19.2,11.1s-8.9,0-8.9,0c-5.8-0.9-10.3-2.7-13.2-4.2c-0.9-0.4-1.6-0.9-2.2-1.2
		C212.1,144.9,230.9,143.4,242.4,140L242.4,140z"/>
	<path class="st6" d="M225.1,89c-0.8,0.6-1.7,1.1-2.5,1.7c-7,4.8-14,9.7-15.6,12.2c-0.1-1-0.2-2.1-0.2-3.1c-0.1-6.3-0.6-11-1.9-14.3
		C204.9,85.5,220.8,87.4,225.1,89z"/>
	<path class="st6" d="M222.6,90.7c0.1,2.6,1.9,12.3,1.9,12.3c-9-0.7-15.7,0.3-17.5,0.6c0-0.2,0-0.4,0-0.6c1.7-2.6,8.7-7.5,15.6-12.2
		V90.7z"/>
	<path class="st6" d="M214.3,151.1c0,0,1,3.4,0.4,3.5c-0.7,0.1-15.7,7.9-19.9,7.6c3.1-5.1,6.2-12.5,6.3-15.3
		C204,148.4,208.5,150.2,214.3,151.1z"/>
	<path class="st7" d="M153.5,108.5c-2.8,0.5-5.5,1.1-7.7,1.7l0,0c-1.3,0.4-2.5,0.7-3.5,1.1l0,0c-0.2,0-0.4,0.1-0.5,0.2l0,0
		c-0.9,0.3-2.6,0.6-2.8-1.3c-0.2-2.6,7.9-28.4,11.9-35.4c4.1-7,3.8-13.8,3.3-15.8c1-0.9,1.6-1.6,1.6-2.1c2.9,0.9,7.1,2.4,11.7,2.1
		s8,0,13.1,5c2.6,2.5,8.4,6.9,13.6,11.1c5,4,9.5,7.7,10.2,9.3c0.1,0.3,0.3,0.6,0.4,1c1.2,3.3,1.8,8,1.9,14.3c0,1,0,2.1,0.2,3.1
		c-0.2,0.3-0.3,0.5-0.4,0.7c0,0,0.2,0,0.4,0c0.7,5.6,2.6,10.5,2.6,10.5c-1.1,0.2-2.2,0.5-3.4,0.7c-27.9,6-45-2.2-52.5-4.4l-0.3-1.7
		L153.5,108.5z"/>
	<path class="st7" d="M198.9,145.7c0.6,0.3,1.4,0.7,2.2,1.2c0,2.8-3.3,10.2-6.3,15.3c-4.5,6.3-7.9,8.6-7.9,8.6l-19.4-2h-1.8v-0.2
		c-7.3-0.8-27.8-10.7-33.7-14.7c7.9-4.2,14.8-8.9,17.8-13.3c2.8,3.8,4.7,7.1,4.7,7.1c3.1-0.3,19.9-1.2,22.3-4.6
		c1.9,2.5,2.8,3.6,10,3.2c2.6-0.1,6.8-0.3,11.9-0.6H198.9z"/>
	<path class="st6" d="M174.9,140.5c0.9,1,1.5,1.8,2.1,2.5c-2.5,3.4-19.3,4.3-22.3,4.6c7.9-6.3,11.8-11.4,13.5-11.7
		C170,135.6,171,136.4,174.9,140.5L174.9,140.5z"/>
	<path class="st6" d="M165.9,168.5v0.2l-17.6-0.4h-5.6c-7.8-1.7-18.5-7.5-21.5-9.2c3.7-1.6,7.4-3.4,10.9-5.3
		c5.9,4,26.5,13.9,33.7,14.7H165.9z"/>
	<path class="st8" d="M154,36.3c0.8,3.9,1.7,14.3,1.5,15.4s-2.3,1.1-2.4,0c0-1.1-0.6-8.7-1.8-14.6c-0.9-4.4-4.4-14.4-6.9-20.5
		c-0.8-2-1.5-3.6-1.9-4.4C141,9.5,140.2,8,138.8,8l0.4-0.9c3.3,1.1,5.1,4.9,5.6,5.9C145.5,14.2,153.2,32.4,154,36.3L154,36.3z"/>
	<path class="st7" d="M124.1,64.2c0-0.2-0.1-0.5-0.2-0.8c0-0.3-0.1-0.6-0.2-1l0,0c0.2,0,0.4,0,0.7,0.1c1.8,0.3,3.4,0.3,4.8,0.1h0.2
		l0,0c0,1.6,0.9,8,7.7,3.5c3.5-2.3,13.6-8.7,13.6-10s0-0.8-0.3-1.4h0.1c3.9-0.3,4.9,1,5.1,2.3c0,0.5-0.6,1.3-1.6,2.1
		c-3.9,3.3-13.7,8.6-19.2,10.8c-6.3,2.5-9.6-0.6-10.9-5.8L124.1,64.2z"/>
	<path class="st7" d="M122.2,130.3c-7.5,2.5-17.3-0.7-21.9-2c4.8-8.4,7.8-12.4,8.1-17.1c0.4-5.2-5.1-10.6-8.4-10.9
		c-0.4,0-0.9,0-1.5,0v-1.8c4.6-5.8,11.7-26.6,25.7-34.2c1.3,5.2,4.6,8.3,10.9,5.8c5.5-2.2,15.3-7.5,19.2-10.8
		c0.5,1.9,0.8,8.8-3.3,15.8s-12.2,32.8-11.9,35.4c0.2,1.9,1.8,1.6,2.8,1.3c-0.5,0.2-0.9,0.4-1.3,0.6c-10.8,5.8-6.3,13.4,0,17.8
		c2.2,1.5,4.5,4.1,6.7,6.8l-0.8,0.6c-4.6,1.8-12.5-1-19.8-4.7c-1.5-0.8-3-1.6-4.4-2.4L122.2,130.3z"/>
	<path class="st9" d="M129.5,62.7h-0.2c-1.5,0.1-4.9-0.2-5.4-0.2l0,0c-3.4-2.8-5.9-7.3-7.5-12.3l2.3-0.4c0,0-0.1-4.5-0.1-7.8h-1.4
		c-0.4,0-1,0-1.9,0.3h-0.6c-0.4-3.1-0.5-6.2-0.2-8.9c0-0.4,0-0.7,0.1-1.1c0-0.3,0-0.6,0.1-0.9l0,0c0.3,0.3,1,0.6,1.8,0.7
		c1.1,0,2.1-0.2,2.1-0.8c0-0.5-0.8-1-1.9-1.1c-0.7,0-1.4,0-1.8,0.3c0.4-2,1-3.7,1.8-4.6c2.5,0.6,10.6-1.2,16-2.4
		c0.7,6.7,3.3,12,5.3,15.3c0-2.1,0.8-3.7,1.6-4.3l0,0c0.5-0.3,1-0.2,1.5,0.3c0.3,0.9,0.7,2.5,0.8,3.8l0,0c0.1,1.4,0,2.6-0.7,2.4
		c-1.2-0.2-1,1.2-1,1.2c1.2,2,2.8,2.6,2.8,2.6h1.1c0,0,1.6,2.4,3.3,4.8c1.8,2.7,2.8,4.1,3.2,5.1c0.2,0.5,0.3,0.9,0.3,1.4
		c0,1.3-10.2,7.8-13.6,10c-6.8,4.5-7.7-2-7.7-3.4l0,0L129.5,62.7z M124.9,31c0.9-0.2,1.6-0.7,1.5-1.2s-0.9-0.8-1.9-0.6
		c-0.9,0.2-1.6,0.7-1.5,1.2C123,30.9,123.9,31.2,124.9,31z M124.5,55.2c0.7-0.2,1.2-0.5,1.2-0.8c0-0.2-0.5-0.3-1.1-0.3
		c0.5-0.2,0.8-0.5,0.8-0.7c0-0.3-0.7-0.4-1.4-0.2s-1.2,0.5-1.2,0.8s0.5,0.3,1.1,0.3c-0.5,0.2-0.8,0.5-0.8,0.7
		C123.1,55.3,123.8,55.4,124.5,55.2z"/>
	<path class="st7" d="M93.9,139c8.8,0,26.8-1.6,32.7-6.3c7.3,3.7,15.1,6.6,19.8,4.7l0.8-0.6c1,1.2,1.9,2.5,2.8,3.7l0,0
		c-3,4.4-9.9,9.1-17.8,13.3c-3.5,1.9-7.3,3.7-10.9,5.3c-8.7,3.9-16.9,6.8-21,8h-2l-5.2-0.3l-2.3-4.1c0,0-0.6-3.8-1.3-8.6
		c-0.7-5.2-1.4-11.6-1-15c1.9-0.2,3.8-0.8,5.6-2.1v2.1L93.9,139z"/>
	<path class="st8" d="M147.4,44.4l-3.3,0.3l3-0.3c0,0-0.3-3.9-0.5-5.1c-0.1-0.7-1-1-1.6-1.1c0.7,0,1.7,0.3,1.8,1.1
		c0.2,1.2,0.5,5.1,0.5,5.1H147.4z"/>
	<path class="st8" d="M147.1,44.4l-3,0.3H143c0,0-1.5-0.6-2.8-2.5c0,0-0.2-1.4,1-1.2c0.7,0.1,0.8-1.1,0.7-2.4l2.4-0.2
		c0,0,0.3,0,0.7,0c0.6,0,1.4,0.3,1.6,1.1c0.2,1.2,0.5,5.1,0.5,5.1L147.1,44.4z"/>
	<path class="st8" d="M116.6,25.7c-0.7-0.2-1-0.5-0.7-1c2.5-3.2,6.3-7.1,8.8-8.6l-0.5-0.4l-3.6-0.4v-1.4h5.7c0,0,1.1,0-0.3-2
		c-1.4-1.9-2.6-4-4.1-6.3s-1.5-1.4-1.5-2.3s1.9-2.9,3.3-2.8c1.4,0.1,6.8,6,6.8,6c1.6,0.4,1.2,0.6,6.1,0.2c0.9,0,1.7,0,2.5,0.3
		l-0.4,0.9c-0.2,0-0.5,0-0.8,0.1c-1.8,0.7-2.7,2.3-2.6,3.6c0,1.4,0.3,1.9,0.3,1.9l7.1,0.5l1.2,2.5l-5.5,0.4
		c3.9,6.8,5.5,12.2,5.7,16.7l0.2,4.5l-2.4,0.2l0,0c-0.1-1.4,0-3-0.8-3.8c-0.3-0.8-0.9-0.8-1.5-0.3l0,0c-0.9,0.5-1.6,2-1.6,4.3
		c-2-3.4-4.6-8.7-5.3-15.3C127.3,24.3,119.2,26.1,116.6,25.7L116.6,25.7z"/>
	<path class="st6" d="M142.7,168.1l-42.5-1.1c4.1-1.1,12.3-4.1,21-8c3,1.6,13.7,7.5,21.5,9V168.1z"/>
	<path class="st7" d="M141.7,111.6c0.2,0,0.4-0.1,0.5-0.2C142.2,111.4,141.9,111.5,141.7,111.6z"/>
	<path class="st8" d="M141.1,34.6c0.9,0.8,0.7,2.5,0.8,3.8C141.8,37,141.4,35.4,141.1,34.6z"/>
	<path class="st8" d="M139.6,34.3c0.6-0.5,1.2-0.5,1.5,0.3C140.6,34.1,140.1,34,139.6,34.3z"/>
	<path class="st8" d="M139.6,34.3c-0.8,0.7-1.6,2.2-1.6,4.3C138,36.2,138.7,34.7,139.6,34.3z"/>
	<path class="st10" d="M123.8,62.5c0.5,0,3.9,0.4,5.4,0.2c-1.4,0.2-3,0.2-4.8-0.1c-0.2,0-0.5,0-0.7-0.1L123.8,62.5z"/>
	<path d="M126.4,29.7c0,0.5-0.6,1.1-1.5,1.2c-0.9,0.2-1.8,0-1.9-0.6c-0.1-0.5,0.6-1.1,1.5-1.2C125.4,28.9,126.3,29.1,126.4,29.7z"/>
	<path class="st10" d="M125.7,54.4c0,0.3-0.5,0.6-1.2,0.8s-1.4,0-1.4-0.2s0.3-0.5,0.8-0.7c0.1,0,0.2,0,0.3,0c0.1,0,0.3,0,0.4-0.1
		l0,0C125.2,54.2,125.6,54.2,125.7,54.4L125.7,54.4z"/>
	<path class="st10" d="M125.4,53.4c0,0.2-0.3,0.5-0.8,0.7l0,0c-0.1,0-0.2,0-0.3,0c-0.1,0-0.3,0-0.4,0.1c-0.6,0-1,0-1.1-0.3
		s0.5-0.6,1.2-0.8S125.4,53.1,125.4,53.4L125.4,53.4z"/>
	<path class="st10" d="M124.3,54.2c0.1,0,0.2,0,0.3,0C124.5,54.2,124.3,54.2,124.3,54.2c-0.2,0.1-0.3,0.1-0.4,0.1
		C124,54.3,124.2,54.3,124.3,54.2z"/>
	<path class="st7" d="M98.5,98.4v1.8c0.5,0,1,0,1.5,0c3.4,0.3,8.9,5.7,8.4,10.9c-0.4,4.7-3.4,8.7-8.1,17.1c-0.6,1-1.1,2-1.8,3.1
		c-1.4,2.6-3,4.3-4.6,5.5c-1.8,1.3-3.7,1.9-5.6,2.1c-1.6-0.3-5.8-4.6-9.9-8.6c-2.4-2.4-4.8-4.8-6.4-6.1c-0.6-0.5-1.1-0.7-1.6-0.8
		c-2.4-0.3-2.7,4.5-3.5,10.1c-0.2,1.2-0.4,2.4-0.6,3.6c-2.2-0.2-4.5-0.5-6.9-0.7c-5.4-0.6-11.1-1.2-16.3-1.9
		c-0.9-0.1-1.8-0.2-2.7-0.3l0,0c-2.7-1.1-12.3-10.4-15.5-12.7c-3.2-2.3-6.2-3-6.4-0.9l0,0c0-0.2,0-0.3,0-0.5c0.3-1.7,2.2-4,4.8-6.4
		c4.9-4.4,12.6-9.2,18.6-11.9c3.4-1.6,6.3-2.5,7.9-2.3c5.8,0.7,9.9,2,14,0.6C67,99,81.2,85.2,90.5,76.3c2.6-2.5,4.8-4.6,6.2-5.9
		c6.7-6.1,9-7.6,10.6-7.6s16.5,0.3,16.5,0.3h0.2c0,0.2,0.1,0.5,0.2,0.7c-13.9,7.6-21.1,28.4-25.6,34.2L98.5,98.4z"/>
	<path class="st7" d="M122.2,130.3c1.4,0.8,2.9,1.6,4.4,2.4c-5.9,4.7-23.9,6.3-32.7,6.3v-2.1c1.6-1.2,3.2-2.9,4.6-5.5
		c0.6-1.1,1.2-2.2,1.8-3.1C105,129.5,114.8,132.8,122.2,130.3L122.2,130.3z"/>
	<path d="M116.6,30.1c1.1,0,2,0.6,1.9,1.1c0,0.5-1,0.8-2.1,0.8c-0.8,0-1.4-0.3-1.8-0.7c0-0.3,0.1-0.6,0.2-0.9
		C115.2,30.2,115.8,30,116.6,30.1z"/>
	<path class="st10" d="M118.6,49.7l-2.3,0.4l0,0c-0.8-2.5-1.3-5.2-1.6-7.9h0.6c0.9-0.3,1.5-0.4,1.9-0.4h1.4c0,3.4,0.1,7.8,0.1,7.8
		L118.6,49.7z"/>
	<path class="st10" d="M123.7,62.4c-3.3-2.1-5.9-6.8-7.5-12.3C117.8,55.1,120.3,59.5,123.7,62.4z"/>
	<path d="M114.9,30.4c0,0.3-0.1,0.6-0.2,0.9c-0.1-0.1-0.2-0.3-0.2-0.4C114.5,30.7,114.6,30.6,114.9,30.4L114.9,30.4z"/>
	<path class="st10" d="M114.7,31.3c0,0.3-0.1,0.6-0.1,0.9C114.6,31.9,114.6,31.6,114.7,31.3z"/>
	<path class="st6" d="M89.3,154c0.6,4.7,1.3,8.6,1.3,8.6s-7-1-9.6-5.2c4.4-1.6,7.8-3.1,8.3-3.3L89.3,154z"/>
	<path class="st6" d="M88.3,139c-0.3,3.5,0.4,9.8,1,15c-0.5,0.2-3.9,1.7-8.3,3.3l-7-0.4c5.7-6.1,8.9-7.8,11.3-17.9
		C86.2,139,87.2,139,88.3,139L88.3,139z"/>
	<path class="st6" d="M85.4,139c-2.3-0.1-4.4-0.6-6.1-0.6c-1.4,0-5.1-0.4-10-0.8c-1,0-2-0.2-3-0.3c0.2-1.2,0.4-2.4,0.6-3.6l11.5-3.3
		c4,4,8.2,8.3,9.9,8.6C87.3,139.1,86.3,139.1,85.4,139L85.4,139z"/>
	<path class="st7" d="M85.4,139c-2.5,10.1-5.7,11.7-11.3,17.9l-3.6,1.6v-3.1l-0.3-5l-0.8-12.9l0,0c4.9,0.5,8.6,0.8,10,0.8
		C81.1,138.3,83.2,138.8,85.4,139L85.4,139z"/>
	<path class="st6" d="M76,74.5c10.2-0.8,14.4,2.1,14.4,2.1c-9.3,8.9-23.5,22.7-26.7,23.8c0,0-0.8-6.5-0.6-9.7
		c-1.1,0.5-3.1-0.4-5.5-1.8c3.7-3.3,8.2-13.7,18.4-14.5V74.5z"/>
	<path class="st6" d="M70.4,123.5c0.4,0,1,0.3,1.6,0.8c1.7,1.3,4,3.6,6.4,6.1l-11.5,3.3c0.8-5.6,1.1-10.5,3.5-10.1V123.5z"/>
	<path class="st6" d="M70.1,150.5l0.3,5c0,0-22.1-11.4-27.3-20.7c5.2,0.6,10.9,1.3,16.3,1.9c0,0,6.8,13,10.5,13.9L70.1,150.5
		L70.1,150.5z"/>
	<path class="st6" d="M66.3,137.3c1,0.1,2,0.2,3,0.3l0,0l0.8,12.9h-0.2c-3.6-1-10.5-13.9-10.5-13.9
		C61.8,136.9,64.1,137.1,66.3,137.3z"/>
	<path class="st6" d="M63.1,90.7c-0.2,3.2,0.6,9.7,0.6,9.7c-4.1,1.5-8.1,0.1-14-0.6c-1.6-0.2-4.5,0.7-7.9,2.3
		c0.6-7.4-1.6-14.8,0-18.4s0.7-3.3,4.9-1.5c2.6,1.1,7.1,4.6,10.9,6.8c2.3,1.4,4.4,2.2,5.5,1.8V90.7z"/>
	<path class="st6" d="M40.4,134.4c-4.4-0.5-8.3-1.1-10.8-1.5c-10.3-1.7-10.7-6.7-11.2-12.1l0,0c0.1-2.1,3.2-1.4,6.4,0.9
		S37.6,133.3,40.4,134.4L40.4,134.4z"/>
	<line class="st11" x1="139.2" y1="7.1" x2="138.8" y2="8"/>
	<path class="st11" d="M114.7,31.2L114.7,31.2c0,0.3-0.1,0.6-0.1,0.9c0,0.4-0.1,0.7-0.1,1.1c-0.6,5.3,0,11.4,1.8,16.9l0,0
		c1.6,5,4.1,9.4,7.5,12.3l0,0c0.5,0,3.9,0.4,5.4,0.2h0.2c3.9-0.5,6.9-3.5,6.9-3.5"/>
	<path class="st11" d="M116.6,25.7c-0.7,1-1.3,2.6-1.8,4.6"/>
	<path class="st11" d="M129.5,62.8c0,1.4,0.9,7.8,7.7,3.4c3.5-2.3,13.6-8.7,13.6-10s0-0.8-0.3-1.4c-0.4-1-1.4-2.4-3.2-5.1
		c-1.6-2.5-3.3-4.9-3.3-4.9"/>
	<path class="st11" d="M118.5,38.7c0,0.7,0,1.9,0,3.2c0,3.4,0.1,7.8,0.1,7.8s2.3,0,3.4-0.5"/>
	<path class="st11" d="M115.2,42.2c0.9-0.2,1.5-0.3,1.9-0.3"/>
	<path class="st11" d="M124.7,39.8c1.2-0.4,2.8-0.5,4.5-0.6"/>
	<path class="st11" d="M40.4,134.4c-4.4-0.5-8.3-1.1-10.8-1.5c-10.3-1.7-10.7-6.7-11.2-12.1c0-0.2,0-0.3,0-0.5
		c0.3-1.7,2.2-4,4.8-6.4c4.9-4.4,12.6-9.2,18.6-11.9c3.4-1.6,6.3-2.5,7.9-2.3c5.8,0.7,9.9,2,14,0.6c3.2-1.1,17.4-14.9,26.7-23.8
		c2.6-2.5,4.8-4.6,6.2-5.9c6.7-6.1,9-7.6,10.6-7.6s16.5,0.3,16.5,0.3"/>
	<path class="st11" d="M94.3,100.3c1.7-0.1,3-0.1,4.2,0c0.6,0,1.1,0,1.5,0c3.4,0.3,8.9,5.7,8.4,10.9c-0.4,4.7-3.4,8.7-8.1,17.1
		c-0.6,1-1.1,2-1.8,3.1c-1.4,2.6-3,4.3-4.6,5.5c-1.8,1.3-3.7,1.9-5.6,2.1c-1,0.1-2,0.1-2.9,0c-2.3-0.1-4.4-0.6-6.1-0.6
		c-1.4,0-5.1-0.4-10-0.8c-1,0-2-0.2-3-0.3c-2.2-0.2-4.5-0.5-6.9-0.7c-5.4-0.6-11.1-1.2-16.3-1.9c-0.9-0.1-1.8-0.2-2.7-0.3"/>
	<path class="st11" d="M46.2,107.6c5.5,1,21.2-2.9,32.5-5.1c6.7-1.3,11.8-1.9,15.5-2.2"/>
	<path class="st11" d="M82.3,92.4c2.6,0.9,6.1,7.8,11.9,7.9l0,0"/>
	<path class="st11" d="M86.6,84.6c1.9,1.9,11.1,11.2,11.9,13.8c4.5-5.8,11.7-26.6,25.6-34.2l0,0"/>
	<line class="st11" x1="100.7" y1="73.1" x2="100.7" y2="94.3"/>
	<path class="st11" d="M150.7,54.7c3.9-0.2,4.9,1.1,5.1,2.3c0,0.5-0.6,1.3-1.6,2.1c-3.9,3.3-13.7,8.6-19.2,10.8
		c-6.3,2.5-9.6-0.6-10.9-5.8c0-0.2-0.1-0.5-0.2-0.8c0-0.3-0.1-0.6-0.2-1"/>
	<path class="st11" d="M126.4,72.6c-1.3,5.5-2.5,4.4-4.4,11.1s-7.3,22.7-7.9,41.6c2.2,1.4,5,3.2,8.1,5c1.4,0.8,2.9,1.6,4.4,2.4
		c7.3,3.7,15.1,6.6,19.8,4.7"/>
	<path class="st11" d="M149.9,140.5c2.8,3.8,4.7,7.1,4.7,7.1c7.9-6.3,11.8-11.4,13.5-11.7c1.8-0.3,2.8,0.5,6.7,4.6
		c0.9,1,1.5,1.8,2.1,2.5c1.9,2.5,2.8,3.6,10,3.2c2.6-0.1,6.8-0.3,11.9-0.6c13.2-0.8,32-2.3,43.5-5.7"/>
	<path class="st11" d="M141.7,111.6c-0.5,0.2-0.9,0.4-1.3,0.6c-10.8,5.8-6.3,13.4,0,17.8c2.2,1.5,4.5,4.1,6.7,6.8
		c1,1.2,1.9,2.5,2.8,3.7"/>
	<path class="st11" d="M142.3,111.4c-0.2,0-0.4,0.1-0.5,0.2"/>
	<path class="st11" d="M145.8,110.2c-1.3,0.4-2.5,0.7-3.5,1.1"/>
	<path class="st11" d="M199.6,103.6c0,0-27.9,1.6-46.1,4.9c-2.8,0.5-5.5,1.1-7.7,1.7"/>
	<path class="st11" d="M154.2,59.2c0.5,1.9,0.8,8.8-3.3,15.8s-12.2,32.8-11.9,35.4c0.2,1.9,1.8,1.6,2.8,1.3l0,0
		c0.3,0,0.5-0.2,0.5-0.2l0,0"/>
	<path class="st11" d="M154.5,79.2l13-11.4l2.9,8.2c0,0-15.4,8.7-18.8,15.4c-3.3,6.7-5.9,11.8-5.8,18.8l0,0"/>
	<path class="st11" d="M150.9,106.3c5.8-4.2,26.3-17.6,26.5-20.1"/>
	<path class="st11" d="M148.3,168.2h-5.6c0-0.1-42.5-1.2-42.5-1.2h-2l-5.2-0.3l-2.3-4.1c0,0-7-1-9.6-5.2l-7-0.4l-3.6,1.6v-3.1
		c0,0-22.1-11.4-27.3-20.7"/>
	<path class="st11" d="M153.8,110.2c7.6,2.3,24.6,10.4,52.5,4.4c1.2-0.2,2.3-0.4,3.4-0.7c7.6-1.6,12.7-2.9,17,3.4
		c1.1,1.6,2.4,3.5,3.9,5.7c5.2,7.6,11.8,16.9,11.8,16.9l0,0c-7.7,4.8-12.5,9.5-19.2,11.1s-8.9,0-8.9,0s1,3.4,0.4,3.5
		c-0.7,0.1-15.7,7.9-19.9,7.6c-4.5,6.3-7.9,8.6-7.9,8.6l-19.4-2h-1.8l-17.6-0.5"/>
	<polyline class="st11" points="69.3,137.6 70.1,150.5 70.4,155.4 	"/>
	<path class="st11" d="M74,156.9c5.7-6.1,8.9-7.8,11.3-17.9l0,0"/>
	<path class="st11" d="M81,157.3c4.4-1.6,7.8-3.1,8.3-3.3l0,0"/>
	<path class="st11" d="M93.7,139h0.2c8.8,0,26.8-1.6,32.7-6.3"/>
	<path class="st11" d="M100.2,128.3c4.7,1.2,14.5,4.5,21.9,2"/>
	<path class="st11" d="M100.2,167c4.1-1.1,12.3-4.1,21-8c3.7-1.6,7.4-3.4,10.9-5.3c7.9-4.2,14.8-8.9,17.8-13.3l0,0"/>
	<path class="st11" d="M121.2,159c3,1.6,13.7,7.5,21.5,9c2.1,0.4,4.1,0.5,5.6,0.1l0,0"/>
	<path class="st11" d="M132.1,153.7c5.9,4,26.5,13.9,33.7,14.7"/>
	<path class="st11" d="M146.7,124.3c3.5,2.3,20.5,9.3,24.6,8.4"/>
	<path class="st11" d="M198.9,145.7L198.9,145.7c0.6,0.3,1.4,0.7,2.2,1.2c2.9,1.5,7.4,3.3,13.2,4.2"/>
	<path class="st11" d="M194.8,162.1c3.1-5.1,6.2-12.5,6.3-15.3"/>
	<path class="st11" d="M155.8,57.1c2.9,0.9,7.1,2.4,11.7,2.1s8,0,13.1,5c2.6,2.5,8.4,6.9,13.6,11.1c5,4,9.5,7.7,10.2,9.3
		c0.1,0.3,0.3,0.6,0.4,1c1.2,3.3,1.8,8,1.9,14.3c0,1,0,2.1,0.2,3.1c0,0.2,0,0.4,0,0.6c0.7,5.6,2.6,10.5,2.6,10.5"/>
	<path class="st5" d="M41.8,102.1c0.6-7.4-1.6-14.8,0-18.4s0.7-3.3,4.9-1.5c2.6,1.1,7.1,4.6,10.9,6.8c2.3,1.4,4.4,2.2,5.5,1.8
		c-0.2,3.2,0.6,9.7,0.6,9.7"/>
	<path class="st5" d="M57.6,89c3.7-3.3,8.2-13.7,18.4-14.5s14.4,2.1,14.4,2.1"/>
	<path class="st5" d="M194.3,75.2c6.3-2.3,18.3-5.7,23.4-4.4c5.1,1.3,10,7.9,10,9.7"/>
	<path class="st5" d="M217.6,81.3c2.7,0,6.3-0.3,10.2-0.3c6.9-0.2,14.3,0,17.5,1.6c4.9,2.5,6.3,15.7,1.2,21.1s-2.3,5.8-3.9,9.5
		c-0.1,0.2-0.2,0.5-0.4,0.7c-1.3,1.9-4.3,4.4-7,6.3c-2.4,1.7-4.5,3-4.5,3"/>
	<path class="st5" d="M206.6,103.6c0,0,0.2,0,0.4,0c1.7-0.3,8.4-1.3,17.5-0.6c4.3,0.3,9.1,1,14.1,2.4"/>
	<path class="st5" d="M204.9,85.5c0,0,15.9,1.9,20.2,3.5c-0.8,0.6-1.7,1.1-2.5,1.7c-7,4.8-14,9.7-15.6,12.2
		c-0.2,0.3-0.3,0.5-0.4,0.7"/>
	<path class="st5" d="M222.6,90.7c0.1,2.6,1.9,12.3,1.9,12.3"/>
	<path class="st11" d="M139.6,34.3c0.5-0.3,1-0.2,1.5,0.3c0.9,0.8,0.7,2.5,0.8,3.8l0,0c0.1,1.4,0,2.6-0.7,2.4c-1.2-0.2-1,1.2-1,1.2
		c1.2,2,2.8,2.6,2.8,2.6h1.1l0,0l3.3-0.3c0,0-0.3-3.9-0.5-5.1c-0.1-0.7-1.1-1-1.8-1.1"/>
	<path class="st11" d="M144.3,38.3l-0.2-4.5c-0.2-4.5-1.8-9.9-5.7-16.7l5.5-0.4l-1.2-2.5l-7.1-0.5c0,0-0.3-0.5-0.3-1.9
		s0.8-3,2.6-3.6c0.3-0.1,0.5-0.1,0.8-0.1c1.3,0,2.2,1.5,3.7,4.2c0.4,0.8,1.1,2.4,1.9,4.4c2.4,6.1,5.9,16.1,6.9,20.5
		c1.2,5.8,1.8,13.5,1.8,14.6s2.2,1.1,2.4,0s-0.7-11.4-1.5-15.4c-0.8-3.9-8.6-22.1-9.2-23.4c-0.5-1-2.3-4.7-5.6-5.9
		c-0.7-0.3-1.6-0.4-2.5-0.3c-4.9,0.4-4.5,0.2-6.1-0.2c0,0-5.5-5.9-6.8-6c-1.4-0.1-3.3,1.8-3.3,2.8s0,0,1.5,2.3s2.7,4.4,4.1,6.3
		s0.3,2,0.3,2h-5.6v1.4l3.5,0.4l0.5,0.4c-2.5,1.5-6.2,5.4-8.8,8.6c-0.3,0.6,0,0.9,0.7,1c2.5,0.6,10.6-1.2,16-2.4
		c0.7,6.7,3.3,12,5.3,15.3c0-2.4,0.7-3.9,1.6-4.3"/>
	<path class="st11" d="M66.3,137.3L66.3,137.3c0.2-1.2,0.4-2.5,0.6-3.6c0.8-5.6,1.1-10.5,3.5-10.1c0.4,0,1,0.3,1.6,0.8
		c1.7,1.3,4,3.6,6.4,6.1c4,4,8.2,8.3,9.9,8.6c-0.3,3.5,0.4,9.8,1,15c0.6,4.7,1.3,8.6,1.3,8.6"/>
	<path class="st11" d="M70.4,123.5L70.4,123.5c5.4-1.3,22.1-10.1,27.8-14.3"/>
	<path class="st11" d="M154.7,147.6c3.1-0.3,19.9-1.2,22.3-4.6"/>
	<path class="st5" d="M18.5,120.8c0.1-2.1,3.2-1.4,6.4,0.9s12.8,11.6,15.5,12.7l0,0"/>
	<polyline class="st5" points="66.9,133.6 78.4,130.4 78.4,130.4 	"/>
	<path class="st11" d="M59.4,136.6c0,0,6.8,13,10.5,13.9"/>
	<path class="st11" d="M122.8,47.6c0,0,1.2,0.6,1.3,1.5"/>
	<path class="st11" d="M124.6,54.1c-0.1,0-0.3,0-0.4,0.1c-0.1,0-0.2,0-0.3,0c-0.6,0-1,0-1.1-0.3s0.5-0.6,1.2-0.8s1.4,0,1.4,0.2
		S125.1,53.8,124.6,54.1"/>
	<path class="st11" d="M124.6,54.1c0.6,0,1,0,1.1,0.3c0,0.3-0.5,0.6-1.2,0.8s-1.4,0-1.4-0.2s0.3-0.5,0.8-0.7c0.1,0,0.3,0,0.4-0.1
		C124.4,54.2,124.5,54.2,124.6,54.1L124.6,54.1L124.6,54.1z"/>
</g>
</svg>
