<?xml version="1.0" encoding="UTF-8"?>
<svg xmlns="http://www.w3.org/2000/svg" viewBox="0 0 269.8 229.62">
  <defs>
    <style>
      .cls-1 {
        stroke-miterlimit: 10;
      }

      .cls-1, .cls-2, .cls-3, .cls-4, .cls-5 {
        stroke: #000;
      }

      .cls-1, .cls-3 {
        fill: none;
      }

      .cls-6 {
        fill: #c0ce93;
      }

      .cls-6, .cls-7, .cls-8, .cls-9, .cls-10, .cls-11, .cls-12, .cls-13, .cls-14, .cls-15 {
        stroke-width: 0px;
      }

      .cls-7, .cls-4 {
        fill: #f2ca68;
      }

      .cls-9 {
        fill: #b43429;
      }

      .cls-10 {
        fill: #f2edcf;
      }

      .cls-2 {
        fill: #c1272d;
        stroke-width: .5px;
      }

      .cls-2, .cls-3, .cls-4, .cls-5 {
        stroke-linecap: round;
        stroke-linejoin: round;
      }

      .cls-11 {
        fill: #abafa1;
      }

      .cls-12 {
        fill: #333;
      }

      .cls-13 {
        fill: #4b7a8a;
      }

      .cls-5 {
        fill: #ea4e38;
      }

      .cls-14 {
        fill: #fcecca;
      }

      .cls-15 {
        fill: #fed1aa;
      }
    </style>
  </defs>
  <g id="_レイヤー_3" data-name="レイヤー 3">
    <g>
      <g>
        <polygon class="cls-11" points="269.54 183.95 269.54 189.19 261.13 183.95 269.54 183.95"/>
        <rect class="cls-11" x="241.32" y="189.19" width="13.94" height="39.93"/>
        <polygon class="cls-11" points="252.27 183.95 255.26 189.19 241.32 189.19 238.33 183.95 252.27 183.95"/>
        <rect class="cls-11" x="217.57" y="189.19" width="10.78" height="39.93"/>
        <polygon class="cls-11" points="225.37 183.95 228.35 189.19 217.57 189.19 214.58 183.95 225.37 183.95"/>
        <rect class="cls-11" x="193.83" y="189.19" width="10.78" height="39.93"/>
        <polygon class="cls-11" points="201.62 183.95 204.61 189.19 193.83 189.19 190.84 183.95 201.62 183.95"/>
        <rect class="cls-11" x="170.08" y="189.19" width="10.78" height="39.93"/>
        <polygon class="cls-11" points="177.88 183.95 180.86 189.19 170.08 189.19 167.09 183.95 177.88 183.95"/>
        <rect class="cls-11" x="146.34" y="189.19" width="10.79" height="39.93"/>
        <polygon class="cls-11" points="154.13 183.95 157.13 189.19 146.34 189.19 143.35 183.95 154.13 183.95"/>
        <rect class="cls-11" x="122.59" y="189.19" width="10.79" height="39.93"/>
        <polygon class="cls-11" points="130.39 183.95 133.38 189.19 122.59 189.19 119.61 183.95 130.39 183.95"/>
        <rect class="cls-11" x="98.85" y="189.19" width="10.79" height="39.93"/>
        <polygon class="cls-11" points="106.64 183.95 109.63 189.19 98.85 189.19 95.86 183.95 106.64 183.95"/>
        <rect class="cls-11" x="75.1" y="189.19" width="10.79" height="39.93"/>
        <polygon class="cls-11" points="82.9 183.95 85.89 189.19 75.1 189.19 72.12 183.95 82.9 183.95"/>
        <rect class="cls-11" x="51.35" y="189.19" width="10.79" height="39.93"/>
        <polygon class="cls-11" points="59.16 183.95 62.14 189.19 51.35 189.19 48.37 183.95 59.16 183.95"/>
        <rect class="cls-11" x="27.61" y="189.19" width="10.79" height="39.93"/>
        <polygon class="cls-11" points="35.41 183.95 38.4 189.19 27.61 189.19 24.62 183.95 35.41 183.95"/>
        <rect class="cls-11" y="189.19" width="14.65" height="39.93"/>
        <polygon class="cls-11" points="11.67 183.95 14.65 189.19 0 189.19 0 183.95 11.67 183.95"/>
        <rect class="cls-9" x="255.26" y="189.19" width="14.27" height="39.93"/>
        <polygon class="cls-6" points="269.54 119.65 269.54 183.95 261.13 183.95 252.27 183.95 238.33 183.95 225.37 183.95 214.58 183.95 201.62 183.95 190.84 183.95 177.88 183.95 167.09 183.95 154.13 183.95 143.35 183.95 130.39 183.95 119.61 183.95 106.64 183.95 95.86 183.95 82.9 183.95 72.12 183.95 59.16 183.95 48.37 183.95 35.41 183.95 24.62 183.95 11.67 183.95 0 183.95 0 119.94 269.54 119.65"/>
        <polygon class="cls-10" points="269.54 118.91 269.54 119.65 0 119.94 36.94 119.65 253.77 118.91 269.54 118.91"/>
        <polygon class="cls-10" points="269.54 112.83 269.54 118.91 253.77 118.91 36.94 119.65 0 119.94 0 118.86 0 112.83 269.54 112.83"/>
        <polygon class="cls-9" points="269.54 189.19 255.26 189.19 252.27 183.95 261.13 183.95 269.54 189.19"/>
        <rect class="cls-13" x="228.35" y="189.19" width="12.97" height="39.93"/>
        <polygon class="cls-13" points="238.33 183.95 241.32 189.19 228.35 189.19 225.37 183.95 238.33 183.95"/>
        <rect class="cls-9" x="204.61" y="189.19" width="12.97" height="39.93"/>
        <polygon class="cls-9" points="214.58 183.95 217.57 189.19 204.61 189.19 201.62 183.95 214.58 183.95"/>
        <rect class="cls-13" x="180.86" y="189.19" width="12.97" height="39.93"/>
        <polygon class="cls-13" points="190.84 183.95 193.83 189.19 180.86 189.19 177.88 183.95 190.84 183.95"/>
        <rect class="cls-9" x="157.13" y="189.19" width="12.96" height="39.93"/>
        <polygon class="cls-9" points="167.09 183.95 170.08 189.19 157.13 189.19 154.13 183.95 167.09 183.95"/>
        <rect class="cls-13" x="133.38" y="189.19" width="12.96" height="39.93"/>
        <polygon class="cls-13" points="143.35 183.95 146.34 189.19 133.38 189.19 130.39 183.95 143.35 183.95"/>
        <rect class="cls-9" x="109.63" y="189.19" width="12.96" height="39.93"/>
        <polygon class="cls-9" points="119.61 183.95 122.59 189.19 109.63 189.19 106.64 183.95 119.61 183.95"/>
        <rect class="cls-13" x="85.89" y="189.19" width="12.96" height="39.93"/>
        <polygon class="cls-13" points="95.86 183.95 98.85 189.19 85.89 189.19 82.9 183.95 95.86 183.95"/>
        <rect class="cls-9" x="62.14" y="189.19" width="12.96" height="39.93"/>
        <polygon class="cls-9" points="72.12 183.95 75.1 189.19 62.14 189.19 59.16 183.95 72.12 183.95"/>
        <rect class="cls-13" x="38.4" y="189.19" width="12.96" height="39.93"/>
        <polygon class="cls-13" points="48.37 183.95 51.35 189.19 38.4 189.19 35.41 183.95 48.37 183.95"/>
        <rect class="cls-9" x="14.65" y="189.19" width="12.96" height="39.93"/>
        <polygon class="cls-9" points="24.62 183.95 27.61 189.19 14.65 189.19 11.67 183.95 24.62 183.95"/>
      </g>
      <g>
        <polyline class="cls-1" points="0 183.95 11.67 183.95 24.62 183.95 35.41 183.95 48.37 183.95 59.16 183.95 72.12 183.95 82.9 183.95 95.86 183.95 106.64 183.95 119.61 183.95 130.39 183.95 143.35 183.95 154.13 183.95 167.09 183.95 177.88 183.95 190.84 183.95 201.62 183.95 214.58 183.95 225.37 183.95 238.33 183.95 252.27 183.95 261.13 183.95 269.54 189.19"/>
        <polyline class="cls-1" points="269.54 229.12 255.26 229.12 241.32 229.12 228.35 229.12 217.57 229.12 204.61 229.12 193.83 229.12 180.86 229.12 170.08 229.12 157.13 229.12 146.34 229.12 133.38 229.12 122.59 229.12 109.63 229.12 98.85 229.12 85.89 229.12 75.1 229.12 62.14 229.12 51.35 229.12 38.4 229.12 27.61 229.12 14.65 229.12 0 229.12"/>
        <polyline class="cls-1" points="252.27 183.95 255.26 189.19 255.26 229.12"/>
        <polyline class="cls-1" points="238.33 183.95 241.32 189.19 241.32 229.12"/>
        <polyline class="cls-1" points="225.37 183.95 228.35 189.19 228.35 229.12"/>
        <polyline class="cls-1" points="214.58 183.95 217.57 189.19 217.57 229.12"/>
        <polyline class="cls-1" points="201.62 183.95 204.61 189.19 204.61 229.12"/>
        <polyline class="cls-1" points="190.84 183.95 193.83 189.19 193.83 229.12"/>
        <polyline class="cls-1" points="177.88 183.95 180.86 189.19 180.86 229.12"/>
        <polyline class="cls-1" points="167.09 183.95 170.08 189.19 170.08 229.12"/>
        <polyline class="cls-1" points="154.13 183.95 157.13 189.19 157.13 229.12"/>
        <polyline class="cls-1" points="143.35 183.95 146.34 189.19 146.34 229.12"/>
        <polyline class="cls-1" points="130.39 183.95 133.38 189.19 133.38 229.12"/>
        <polyline class="cls-1" points="119.61 183.95 122.59 189.19 122.59 229.12"/>
        <polyline class="cls-1" points="106.64 183.95 109.63 189.19 109.63 229.12"/>
        <polyline class="cls-1" points="95.86 183.95 98.85 189.19 98.85 229.12"/>
        <polyline class="cls-1" points="82.9 183.95 85.89 189.19 85.89 229.12"/>
        <polyline class="cls-1" points="72.12 183.95 75.1 189.19 75.1 229.12"/>
        <polyline class="cls-1" points="59.16 183.95 62.14 189.19 62.14 229.12"/>
        <polyline class="cls-1" points="48.37 183.95 51.35 189.19 51.35 229.12"/>
        <polyline class="cls-1" points="35.41 183.95 38.4 189.19 38.4 229.12"/>
        <polyline class="cls-1" points="24.62 183.95 27.61 189.19 27.61 229.12"/>
        <polyline class="cls-1" points="11.67 183.95 14.65 189.19 14.65 229.12"/>
        <polyline class="cls-1" points="269.54 189.19 255.26 189.19 241.32 189.19 228.35 189.19 217.57 189.19 204.61 189.19 193.83 189.19 180.86 189.19 170.08 189.19 157.13 189.19 146.34 189.19 133.38 189.19 122.59 189.19 109.63 189.19 98.85 189.19 85.89 189.19 75.1 189.19 62.14 189.19 51.35 189.19 38.4 189.19 27.61 189.19 14.65 189.19 0 189.19"/>
        <line class="cls-1" x1="261.13" y1="183.95" x2="269.54" y2="183.95"/>
        <line class="cls-1" y1="112.83" x2="269.54" y2="112.83"/>
      </g>
    </g>
  </g>
  <g id="_レイヤー_1" data-name="レイヤー 1">
    <path class="cls-5" d="m222.87,103.05s-1.75-9.66-1.9-12.28c.83-.56,1.66-1.13,2.48-1.69-4.37-1.54-20.24-3.48-20.24-3.48-.13-.35-.27-.68-.41-.99-.75-1.61-5.23-5.33-10.23-9.29,6.26-2.33,18.35-5.67,23.45-4.36,5.09,1.3,10.05,7.86,10.05,9.75v.31c6.88-.15,14.31,0,17.49,1.58,4.95,2.48,6.27,15.74,1.16,21.13-5.1,5.39-2.33,5.83-3.94,9.48-.1.23-.23.46-.39.71-1.28,1.93-4.34,4.38-6.98,6.29-2.41,1.75-4.47,3.02-4.47,3.02-1.46-2.11-2.82-4.07-3.89-5.66-4.34-6.39-9.47-5.04-17.04-3.44,0,0-1.89-4.87-2.63-10.48,1.73-.3,8.43-1.28,17.49-.6Z"/>
    <path class="cls-4" d="m197.24,145.83c-5.11.29-9.35.47-11.96.59-7.18.33-8.14-.8-10-3.25-.56-.74-1.19-1.58-2.1-2.55-3.93-4.19-4.95-4.98-6.7-4.65-1.75.33-5.68,5.5-13.55,11.76,0,0-1.98-3.27-4.74-7.1h0c-.87-1.22-1.81-2.47-2.8-3.7-2.18-2.73-4.56-5.32-6.74-6.83-6.27-4.37-10.78-11.94,0-17.77.39-.21.82-.41,1.3-.62,0,0,.03,0,.03,0,.26-.09.45-.17.53-.21.03,0,.04-.02.04-.02,1.01-.39,2.19-.76,3.5-1.12h0c2.22-.62,4.84-1.18,7.69-1.7l.31,1.7c7.58,2.27,24.63,10.43,52.6,4.45,1.17-.21,2.29-.45,3.36-.68,7.58-1.6,12.7-2.94,17.04,3.44,1.08,1.58,2.43,3.55,3.89,5.66,5.24,7.57,11.84,16.93,11.84,16.93h0c-11.47,3.36-30.38,4.9-43.54,5.68Z"/>
    <path class="cls-5" d="m240.78,140.16c-7.71,4.8-12.52,9.47-19.23,11.07-6.69,1.61-8.89,0-8.89,0-5.82-.87-10.26-2.72-13.2-4.2-.88-.45-1.63-.86-2.23-1.19,13.17-.77,32.07-2.31,43.54-5.68Z"/>
    <path class="cls-5" d="m223.46,89.07c-.82.56-1.65,1.13-2.48,1.69-7,4.79-13.98,9.68-15.66,12.26-.12-1.03-.2-2.07-.21-3.12-.1-6.33-.64-11.04-1.88-14.31,0,0,15.87,1.93,20.24,3.48Z"/>
    <path class="cls-5" d="m220.97,90.77c.15,2.62,1.9,12.28,1.9,12.28-9.06-.68-15.76.3-17.49.6-.03-.21-.06-.41-.08-.62,1.69-2.58,8.66-7.46,15.66-12.26Z"/>
    <path class="cls-5" d="m212.67,151.22s1.02,3.36.44,3.5c-.73.15-15.73,7.87-19.96,7.58,3.06-5.1,6.25-12.49,6.33-15.28,2.94,1.48,7.38,3.33,13.2,4.2Z"/>
    <path class="cls-4" d="m197.24,145.83c.61.33,1.35.74,2.23,1.19-.08,2.79-3.26,10.18-6.33,15.28-4.51,6.27-7.87,8.59-7.87,8.59l-19.38-2.04-1.75-.04v-.2c-7.28-.82-27.82-10.69-33.76-14.72,7.9-4.2,14.84-8.88,17.8-13.27,2.76,3.83,4.74,7.1,4.74,7.1,3.06-.29,19.88-1.18,22.35-4.56,1.86,2.46,2.82,3.59,10,3.25,2.61-.12,6.85-.3,11.96-.59Z"/>
    <path class="cls-5" d="m173.18,140.62c.91.97,1.54,1.81,2.1,2.55-2.47,3.38-19.29,4.27-22.35,4.56,7.88-6.27,11.8-11.44,13.55-11.76,1.75-.33,2.77.45,6.7,4.65Z"/>
    <path class="cls-5" d="m164.15,168.62v.2s-17.62-.45-17.62-.45h0l-5.57-.14c-7.84-1.56-18.56-7.4-21.53-9.03,3.66-1.63,7.4-3.42,10.96-5.31,5.94,4.03,26.48,13.9,33.77,14.72Z"/>
    <path class="cls-4" d="m92.1,139.12c8.83,0,26.86-1.6,32.75-6.31,7.28,3.71,15.13,6.56,19.78,4.72l.76-.6c.98,1.23,1.93,2.48,2.8,3.69h0c-2.96,4.4-9.9,9.07-17.8,13.28-3.55,1.88-7.29,3.68-10.96,5.31-8.69,3.87-16.91,6.82-20.98,7.96l-2.05-.05-5.25-.29-2.33-4.08s-.65-3.83-1.28-8.56c-.69-5.25-1.35-11.6-1.04-15.06,1.87-.2,3.77-.78,5.58-2.08l.02,2.08Z"/>
    <path class="cls-5" d="m140.96,168.23l-42.51-1.07c4.07-1.14,12.29-4.09,20.98-7.96,2.97,1.63,13.69,7.47,21.53,9.03Z"/>
    <path class="cls-4" d="m139.99,111.7c.17-.07.35-.15.53-.21-.08.04-.27.13-.53.21Z"/>
    <path class="cls-4" d="m120.39,130.41c1.44.81,2.94,1.63,4.45,2.41-5.89,4.71-23.92,6.3-32.75,6.31l-.02-2.08c1.63-1.16,3.2-2.91,4.61-5.49.61-1.11,1.2-2.16,1.75-3.13,4.66,1.24,14.47,4.48,21.95,1.99Z"/>
    <path class="cls-5" d="m87.54,154.18c.63,4.73,1.28,8.56,1.28,8.56,0,0-6.99-1.02-9.61-5.25,4.4-1.6,7.8-3.08,8.33-3.31Z"/>
    <path class="cls-5" d="m86.5,139.12c-.31,3.46.35,9.81,1.04,15.06-.53.23-3.93,1.71-8.33,3.31l-6.99-.44c5.68-6.12,8.88-7.79,11.36-17.87.95.06,1.93.05,2.92-.06Z"/>
    <path class="cls-5" d="m83.58,139.18c-2.29-.13-4.41-.57-6.12-.62-1.4-.04-5.11-.37-9.97-.85-.96-.09-1.96-.19-3-.3.24-1.22.44-2.45.62-3.64l11.52-3.28c4.02,4.04,8.23,8.35,9.87,8.63-.98.11-1.97.12-2.92.06Z"/>
    <path class="cls-4" d="m83.58,139.18c-2.48,10.08-5.68,11.75-11.36,17.87l-3.65,1.6v-3.06l-.3-4.96-.79-12.92h0c4.86.47,8.58.8,9.97.84,1.71.05,3.83.5,6.12.62Z"/>
    <path class="cls-5" d="m74.18,74.55c10.17-.76,14.39,2.15,14.39,2.15-9.26,8.89-23.51,22.68-26.7,23.82,0,0-.8-6.52-.58-9.69-1.09.46-3.13-.41-5.48-1.76,3.73-3.26,8.21-13.76,18.37-14.52Z"/>
    <path class="cls-5" d="m68.6,123.62c.45.07.97.33,1.58.8,1.69,1.32,4.05,3.65,6.45,6.08l-11.52,3.28c.82-5.62,1.14-10.49,3.49-10.15Z"/>
    <path class="cls-5" d="m68.27,150.63l.3,4.96s-22.12-11.37-27.31-20.77c5.16.62,10.91,1.28,16.3,1.86,0,0,6.83,12.98,10.47,13.96l.24-.02Z"/>
    <path class="cls-5" d="m64.49,137.41c1.04.11,2.04.21,3,.3h0s.79,12.93.79,12.93l-.24.02c-3.64-.98-10.47-13.96-10.47-13.96,2.41.26,4.74.51,6.92.72Z"/>
    <path class="cls-5" d="m61.29,90.83c-.21,3.17.58,9.69.58,9.69-4.07,1.46-8.16.15-13.99-.58-1.57-.2-4.46.7-7.88,2.26.63-7.43-1.62-14.79,0-18.43,1.62-3.65.74-3.32,4.9-1.46,2.57,1.15,7.13,4.59,10.91,6.76,2.35,1.35,4.39,2.23,5.48,1.76Z"/>
    <path class="cls-3" d="m92.47,100.4c1.65-.1,3.03-.13,4.17-.09.56,0,1.06.03,1.51.08,3.36.29,8.89,5.68,8.46,10.93-.39,4.69-3.36,8.69-8.16,17.11-.56.98-1.15,2.02-1.75,3.13-1.41,2.58-2.98,4.32-4.61,5.49-1.81,1.3-3.71,1.88-5.58,2.08-.98.11-1.97.12-2.92.06-2.29-.13-4.41-.57-6.12-.62-1.4-.04-5.11-.37-9.97-.85-.96-.09-1.96-.19-3-.3-2.18-.21-4.52-.46-6.92-.72-5.39-.58-11.14-1.23-16.3-1.86-.92-.11-1.83-.22-2.71-.33"/>
    <path class="cls-3" d="m44.39,107.66c5.53,1.02,21.27-2.91,32.48-5.1,6.7-1.3,11.8-1.93,15.53-2.17"/>
    <path class="cls-3" d="m80.52,92.51c2.61.87,6.14,7.83,11.88,7.88h.07"/>
    <line class="cls-3" x1="98.88" y1="73.13" x2="98.88" y2="94.4"/>
    <path class="cls-3" d="m148.19,140.63c2.76,3.83,4.74,7.1,4.74,7.1,7.88-6.27,11.8-11.44,13.55-11.76,1.75-.33,2.77.45,6.7,4.65.91.97,1.54,1.81,2.1,2.55,1.86,2.46,2.82,3.59,10,3.25,2.61-.12,6.85-.3,11.96-.59,13.17-.77,32.07-2.31,43.54-5.68"/>
    <path class="cls-3" d="m139.95,111.71c-.48.21-.92.41-1.3.62-10.78,5.83-6.27,13.4,0,17.77,2.17,1.52,4.55,4.1,6.74,6.83.98,1.23,1.93,2.48,2.8,3.69"/>
    <path class="cls-3" d="m140.52,111.49c-.18.07-.36.15-.53.21"/>
    <path class="cls-3" d="m144.06,110.35c-1.31.36-2.49.73-3.5,1.12"/>
    <path class="cls-3" d="m197.89,103.73s-27.97,1.6-46.14,4.92c-2.85.52-5.47,1.09-7.69,1.69"/>
    <path class="cls-3" d="m149.15,106.35c5.83-4.23,26.37-17.63,26.52-20.11"/>
    <path class="cls-3" d="m146.53,168.37l-5.57-.14-42.51-1.07-2.05-.05-5.25-.29-2.33-4.08s-6.99-1.02-9.61-5.25l-6.99-.44-3.65,1.6v-3.06s-22.12-11.37-27.31-20.77"/>
    <path class="cls-3" d="m152.06,110.35c7.58,2.27,24.63,10.43,52.6,4.45,1.17-.21,2.29-.45,3.36-.68,7.58-1.6,12.7-2.94,17.04,3.44,1.08,1.58,2.43,3.55,3.89,5.66,5.24,7.57,11.84,16.93,11.84,16.93h0c-7.71,4.8-12.52,9.47-19.23,11.07-6.69,1.61-8.89,0-8.89,0,0,0,1.02,3.36.44,3.5-.73.15-15.73,7.87-19.96,7.58-4.51,6.27-7.87,8.59-7.87,8.59l-19.38-2.04-1.75-.04-17.61-.45"/>
    <polyline class="cls-3" points="67.49 137.72 68.27 150.63 68.57 155.6"/>
    <path class="cls-3" d="m72.22,157.05c5.68-6.12,8.88-7.79,11.36-17.87h0"/>
    <path class="cls-3" d="m79.21,157.49c4.4-1.6,7.8-3.08,8.33-3.31.05-.03.08-.03.08-.03"/>
    <path class="cls-3" d="m91.89,139.12h.21c8.83,0,26.86-1.6,32.75-6.31"/>
    <path class="cls-3" d="m98.45,128.42c4.66,1.24,14.47,4.48,21.95,1.99"/>
    <path class="cls-3" d="m98.45,167.16c4.07-1.14,12.29-4.09,20.98-7.96,3.66-1.63,7.4-3.42,10.96-5.31,7.9-4.2,14.84-8.88,17.8-13.27h0"/>
    <path class="cls-3" d="m119.43,159.2c2.97,1.63,13.69,7.47,21.53,9.03,2.15.43,4.07.53,5.57.14h0"/>
    <path class="cls-3" d="m130.38,153.9c5.94,4.03,26.48,13.9,33.77,14.72"/>
    <path class="cls-3" d="m144.96,124.41c3.46,2.34,20.5,9.36,24.58,8.4"/>
    <path class="cls-3" d="m197.23,145.82s0,0,0,0c.61.33,1.35.74,2.23,1.19,2.94,1.48,7.38,3.33,13.2,4.2"/>
    <path class="cls-3" d="m193.15,162.3c3.06-5.1,6.25-12.49,6.33-15.28"/>
    <path class="cls-3" d="m40,102.2c.63-7.43-1.62-14.79,0-18.43,1.62-3.65.74-3.32,4.9-1.46,2.57,1.15,7.13,4.59,10.91,6.76,2.35,1.35,4.39,2.23,5.48,1.76-.21,3.17.58,9.69.58,9.69"/>
    <path class="cls-3" d="m55.81,89.07c3.73-3.26,8.21-13.76,18.37-14.52,10.17-.76,14.39,2.15,14.39,2.15"/>
    <path class="cls-3" d="m192.57,75.32c6.26-2.33,18.35-5.67,23.45-4.36,5.09,1.3,10.05,7.86,10.05,9.75"/>
    <path class="cls-3" d="m215.88,81.36c2.66-.08,6.34-.26,10.19-.34,6.88-.15,14.31,0,17.49,1.58,4.95,2.48,6.27,15.74,1.16,21.13-5.1,5.39-2.33,5.83-3.94,9.48-.1.23-.23.46-.39.71-1.28,1.93-4.34,4.38-6.98,6.29-2.41,1.75-4.47,3.02-4.47,3.02"/>
    <path class="cls-3" d="m204.95,103.73s.15-.03.44-.08c1.73-.3,8.43-1.28,17.49-.6,4.27.33,9.07,1.03,14.13,2.35"/>
    <path class="cls-3" d="m203.21,85.6s15.87,1.93,20.24,3.48c-.82.56-1.65,1.13-2.48,1.69-7,4.79-13.98,9.68-15.66,12.26-.18.26-.3.5-.36.7"/>
    <path class="cls-3" d="m220.97,90.77c.15,2.62,1.9,12.28,1.9,12.28"/>
    <path class="cls-3" d="m64.49,137.42h0c.24-1.22.44-2.46.62-3.65.82-5.62,1.14-10.49,3.49-10.15.45.07.97.33,1.58.8,1.69,1.32,4.05,3.65,6.45,6.08,4.02,4.04,8.23,8.35,9.87,8.63-.31,3.46.35,9.81,1.04,15.06.63,4.73,1.28,8.56,1.28,8.56"/>
    <path class="cls-3" d="m68.57,123.63s.02,0,.03,0c5.42-1.27,22.13-10.13,27.8-14.35"/>
    <path class="cls-3" d="m152.93,147.73c3.06-.29,19.88-1.18,22.35-4.56"/>
    <polyline class="cls-3" points="65.11 133.77 76.63 130.49 76.64 130.49"/>
    <path class="cls-3" d="m57.57,136.69s6.83,12.98,10.47,13.96"/>
    <path class="cls-5" d="m38.55,134.5c-4.43-.55-8.26-1.07-10.77-1.48-10.34-1.7-10.76-6.7-11.18-12.07h.07c.14-2.11,3.2-1.44,6.37.86s12.78,11.62,15.51,12.69Z"/>
    <g>
      <g>
        <path class="cls-7" d="m144.06,110.35h0c-1.31.36-2.49.73-3.5,1.13,0,0-.02,0-.04.01s-.04.03-.08.04c-.02,0-.05.03-.09.04-.08.02-.15.05-.22.09-.05.02-.09.04-.14.05-.01,0-.02.01-.03.01-.93.3-2.59.59-2.76-1.29-.24-2.6,7.87-28.41,11.95-35.41,4.08-6.99,3.78-13.83,3.32-15.76,1.03-.89,1.64-1.64,1.64-2.15,2.9.94,7.06,2.38,11.75,2.15,4.71-.22,7.98.02,13.12,4.98,2.63,2.53,8.39,6.93,13.6,11.08,4.99,3.95,9.47,7.68,10.22,9.28.14.32.29.65.41,1,1.25,3.27,1.78,7.98,1.88,14.31.02,1.05.1,2.09.22,3.12-.18.26-.3.49-.36.69,0,0,.15-.02.44-.07.73,5.6,2.62,10.48,2.62,10.48-1.06.23-2.18.46-3.36.67-27.96,5.98-45.01-2.18-52.59-4.44l-.31-1.71c-2.85.52-5.47,1.09-7.69,1.7Z"/>
        <path class="cls-12" d="m153.75,50.3c.03.71.03,1.22-.01,1.42-.03.13-.08.25-.16.35.07-.09.12-.22.15-.35.04-.2.04-.71.02-1.42Z"/>
        <path class="cls-12" d="m153.75,50.3c.02.71.02,1.22-.02,1.42-.03.13-.08.26-.15.35-.05.05-.08.09-.14.14s-.13.1-.2.14c-.45.24-1.08.24-1.49,0-.07-.04-.13-.09-.19-.14-.13-.13-.21-.3-.23-.49-.07-1.1-.58-8.74-1.82-14.57-.58-2.74-2.17-7.67-3.87-12.49-.17-.47-.34-.95-.51-1.43-.09-.24-.18-.48-.26-.72-.19-.53-.39-1.05-.58-1.57-.57-1.54-1.13-3.01-1.64-4.29-.05-.13-.11-.25-.16-.37l-.15-.36c-.68-1.68-1.26-2.99-1.64-3.68-1.49-2.72-2.35-4.23-3.67-4.23l.26-.66.11-.26h0c.62.21,1.19.51,1.7.87.35.24.66.51.97.79.59.56,1.09,1.17,1.51,1.77.21.3.39.59.56.86.26.41.46.78.62,1.08.11.21.19.38.26.5.08.14.23.46.45.95.13.29.28.63.46,1.03.16.39.35.82.55,1.28.1.25.21.49.32.74.1.25.21.51.33.78.22.53.46,1.1.72,1.68.11.3.24.59.37.9.13.3.25.62.39.93.19.47.38.94.59,1.42.27.65.53,1.3.8,1.95.26.65.52,1.31.78,1.95h0c.13.33.26.65.39.97.5,1.28.99,2.53,1.42,3.67.16.43.31.84.45,1.23h0c.15.41.28.77.41,1.13.41,1.19.7,2.16.83,2.78.04.21.09.46.13.71h0c.05.26.09.53.14.82.03.27.08.56.12.85.01.05.01.08.02.13.08.57.16,1.19.23,1.83.01.08.02.15.03.23.09.78.18,1.58.27,2.38.03.33.06.65.09.96.02.19.03.38.05.56.07.75.13,1.48.19,2.18.01.18.03.36.04.54.02.32.05.63.07.93,0,.09.01.18.02.27.02.36.04.7.05,1.01.01.19.02.38.02.55Z"/>
        <path class="cls-12" d="m153.73,49.75c.01.2.02.38.02.55,0-.17-.01-.36-.02-.55Z"/>
        <path class="cls-12" d="m153.59,47.54c.03.32.05.63.07.93-.02-.3-.05-.61-.07-.93Z"/>
        <path class="cls-12" d="m153.36,44.82c.08.75.14,1.49.19,2.18-.06-.7-.12-1.43-.19-2.18Z"/>
        <path class="cls-7" d="m154.11,57.11c0,.51-.61,1.26-1.64,2.15-3.86,3.34-13.67,8.63-19.2,10.82-.19.08-.38.15-.57.2l-1.13-2.43c1,0,1.97-.41,2.69-.88h.01s.03-.01.03-.02c.03-.02.07-.04.1-.06.34-.17.71-.39,1.09-.64,3.42-2.24,13.19-8.45,13.63-9.95.02-.04.03-.08.02-.1v-.02c0-.43-.08-.84-.3-1.35l.14-.06c3.88-.21,4.87,1.1,5.13,2.34Z"/>
        <path class="cls-12" d="m151.75,52.35c.41.24,1.04.24,1.49,0-.44.25-1.08.25-1.49,0Z"/>
        <path class="cls-7" d="m152.47,59.26c.46,1.93.76,8.77-3.32,15.76-4.08,7-12.19,32.81-11.95,35.41.17,1.88,1.83,1.59,2.76,1.29-.49.2-.92.4-1.31.61-10.77,5.83-6.26,13.4,0,17.77,2.18,1.52,4.56,4.1,6.74,6.83l-.76.6c-4.65,1.84-12.5-1.01-19.78-4.72-1.52-.78-3.02-1.59-4.45-2.4-3.11-1.77-5.94-3.54-8.12-4.96.58-18.95,5.98-34.98,7.91-41.67,1.93-6.7,3.16-5.54,4.45-11.09l1.5-2.5c1.65.93,3.8,1.07,6.56.09.19-.05.38-.12.57-.2,5.53-2.19,15.34-7.48,19.2-10.82Z"/>
        <path class="cls-14" d="m127.71,62.73h0s-.09.01-.19.02c-.03.01-.07.01-.11.01-.03.01-.08.01-.12.01-.06.01-.12.01-.19.01-1.16.04-3.01-.08-4.15-.17-.44-.04-.77-.08-.91-.1h-.37c-1.06-.57-1.97-1.36-2.76-2.27.01-.01,0-.01,0-.01-.39-.46-.75-.94-1.09-1.43.01-.01,0-.01,0-.01-.44-.67-.83-1.36-1.18-2.05t0-.01c-1.63-3.3-2.19-6.56-2.19-6.56-.01-.03-.02-.07-.03-.1l2.16-.66c-.27-1.04-.02-4.05.1-7.47h-1.4c-.44,0-1.02.09-1.9.31l-.63.07c-.11-.84-.18-1.67-.24-2.51-.08-1.19-.1-2.37-.07-3.52.03-1.02.11-2.03.22-3,0-.03.01-.06.01-.1v-.04c.02-.09.04-.21.05-.36.04-.25.1-.58.15-.9.03-.21.07-.41.1-.6.32.31.97.57,1.73.65,1.11.09,2.06-.24,2.1-.76.04-.5-.82-.99-1.93-1.09-.73-.06-1.38.05-1.75.3h0c.11-.52.23-1,.36-1.45.13-.46.27-.88.42-1.27.07-.2.15-.39.23-.56.15-.36.32-.69.49-.98.09-.14.18-.27.27-.4,2.55.58,10.61-1.21,16.05-2.35.73,6.66,3.31,11.97,5.31,15.34,0-.15.01-.3.03-.45,0-.08,0-.15.01-.22,0-.03,0-.07.01-.1.08-.74.25-1.39.47-1.95.13-.33.29-.63.45-.88.2-.31.41-.56.63-.74h.01c.42-.24.89-.19,1.33.14.06.04.12.1.18.15h.01c.09.27.19.6.3.97.02.08.04.18.07.27.16.64.31,1.36.41,2.07.01.08.02.15.03.23,0,.05,0,.11.02.16,0,.04.01.09.01.13,0,.02.01.05.01.07.06.55.07,1.07.02,1.48,0,.1-.02.19-.04.27,0,.02-.01.03-.01.05,0,.07-.03.14-.06.19,0,.01,0,.02-.01.03-.11.3-.3.46-.58.42-.4-.06-.65.05-.8.24-.31.36-.24,1-.24,1,.16.25.32.47.48.67.16.21.32.4.48.56.96,1.02,1.82,1.39,1.82,1.39l1.09-.08h.02l.27-.03,2.74-.24c.16.46,1.5,4.58,2.54,7.81.01,0,0,.01,0,.01.1.32.2.63.3.93.14.45.28.87.39,1.25.12.38.22.71.3.97.11.34.18.58.21.69v.02s0,.06-.02.1c-.57,1.26-12.59,9.19-14.72,10.59-.03.02-.07.04-.1.06,0,.01-.02.02-.03.02h-.01c-1.51.79-2.68.96-3.58.76-.01,0-.02-.01-.03-.01h-.02c-.06-.03-.12-.05-.18-.07-.02-.01-.04-.02-.06-.02-.05-.02-.09-.04-.14-.06-.11-.05-.22-.11-.33-.18-.08-.05-.15-.11-.23-.16-.15-.12-.29-.25-.43-.39h0c-.14-.16-.27-.33-.4-.52h0c-.13-.2-.24-.41-.36-.64h0c-.34-.73-.6-1.65-.77-2.82-.01-.04-.01-.09-.02-.13Zm-3.04-32.88s0-.06,0-.09h0s-.01-.04-.02-.06c-.02-.08-.07-.15-.13-.21-.07-.08-.16-.15-.27-.2-.14-.06-.29-.11-.47-.14-.29-.05-.63-.05-.99.02-.11.02-.22.05-.32.08-.41.12-.74.31-.96.53-.2.19-.29.41-.25.62.02.1.07.2.15.27.03.05.08.09.12.11.05.04.1.07.15.1.17.09.37.15.61.17.17.01.35.01.55-.01.09,0,.19-.02.29-.04.05,0,.1-.02.15-.04.06-.01.12-.03.18-.05.1-.03.2-.06.29-.1.18-.07.35-.17.48-.27.01,0,.01,0,.01,0,.07-.05.13-.1.18-.15h0c.06-.06.1-.11.13-.16,0-.01.02-.02.02-.03.03-.05.05-.08.06-.12,0-.01,0-.02,0-.03.01-.02.01-.03.02-.05.01-.04.02-.09.02-.14Z"/>
        <path class="cls-12" d="m145.66,44.49l-.25.02s-.01-.04-.01-.04c0,0-.16-2.18-.34-3.78-.01-.02-.01-.05-.01-.07-.05-.5-.11-.94-.16-1.22-.03-.17-.11-.31-.22-.44-.05-.06-.11-.12-.18-.17-.26-.2-.61-.32-.94-.39.67.1,1.46.36,1.59,1.02.22,1.17.52,5.07.52,5.07Z"/>
        <path class="cls-12" d="m145.4,44.47s.01.02.01.04l-2.75.25,2.73-.29h.01Z"/>
        <path class="cls-12" d="m145.39,44.47l-2.73.29-.27.03h-.02l-1.09.08s-.86-.37-1.82-1.39c-.15-.16-.32-.35-.48-.56-.16-.2-.32-.42-.47-.67,0,0-.07-.63.23-1,.15-.19.4-.3.8-.24.28.04.47-.12.58-.42.01-.01.01-.02.01-.03.03-.05.05-.12.06-.19.01,0,.01-.03.01-.05.02-.08.04-.17.04-.27.05-.42.04-.93-.01-1.49,0-.02-.01-.04-.01-.06,0-.05-.01-.09-.01-.14l2.37-.18v.13h.01s.3,0,.71.05h.01c.08,0,.16.03.24.04.33.07.68.19.94.39.06.05.12.11.18.17.1.12.18.27.21.45.06.28.11.71.17,1.21,0,.02,0,.05.01.07.17,1.59.33,3.78.33,3.78Z"/>
        <path class="cls-12" d="m143.93,14.94c.17.39.36.82.55,1.28-.2-.46-.39-.89-.55-1.28Z"/>
        <path class="cls-12" d="m143.31,38.36c.08,0,.16.02.24.04-.08-.01-.16-.03-.24-.04Z"/>
        <path class="cls-12" d="m143.03,12.96c.07.14.23.46.44.95-.22-.49-.37-.81-.45-.95-.07-.12-.15-.29-.26-.5.11.21.2.38.27.5Z"/>
        <path class="cls-12" d="m142.65,16.65c.51,1.28,1.07,2.75,1.64,4.29-.58-1.54-1.14-3-1.65-4.29-.05-.13-.1-.25-.15-.37.05.12.11.24.16.37Z"/>
        <path class="cls-12" d="m142.56,37.75c.01.21.02.35.02.43l-2.37.18c-.08-.91-.06-1.91-.29-2.71-.06-.23-.15-.44-.27-.63h0c-.07-.13-.17-.25-.27-.35-.2-.52-.55-.71-.95-.61-.06.01-.13.03-.19.06-.13.06-.26.14-.39.25h-.01c-.1.06-.2.13-.3.22h-.01l-.07.07s-.01.01-.01.01l-.07.07c-.16.17-.31.39-.44.64,0,0,0,0,0,.01-.15.29-.28.62-.38,1.01-.07.21-.12.45-.16.69-.02.09-.03.19-.05.29-.06.41-.1.86-.1,1.34-2-3.37-4.58-8.68-5.31-15.34-5.44,1.14-13.5,2.93-16.05,2.35h0c-.26-.05-.45-.14-.58-.25-.05-.03-.08-.05-.1-.09-.04-.05-.07-.09-.09-.15-.02-.05-.03-.11-.03-.17,0-.11.04-.22.1-.37h.01c.64-.82,1.36-1.68,2.13-2.53.36-.41.73-.82,1.1-1.22.38-.41.77-.81,1.17-1.21l.58-.58c1.36-1.32,2.69-2.43,3.79-3.07l-.47-.43-3.56-.37.07-1.3v-.07h5.64s.05,0,.12-.03c.09-.04.2-.12.24-.29.03-.1.04-.23-.01-.4-.03-.15-.1-.32-.21-.53s-.26-.45-.47-.73c-.17-.23-.34-.47-.51-.72-.51-.73-1-1.49-1.5-2.28-.33-.53-.67-1.08-1.02-1.63-.35-.56-.7-1.11-1.08-1.7h0c-1.5-2.34-1.5-1.39-1.5-2.34s1.9-2.91,3.28-2.76c1.38.14,6.85,6.04,6.85,6.04.06.02.12.03.18.05.11.03.21.06.3.09.05,0,.1.02.14.04.09.03.18.05.26.07s.16.04.25.06c.08.02.16.04.24.05.01,0,.01,0,.01,0l.27.03c.72.07,1.82.03,4.47-.17.89-.06,1.72.07,2.46.32l-.11.26-.27.66c-.13,0-.27.01-.41.04-.05.01-.11.02-.16.04-.06.01-.13.03-.19.06-.66.23-1.2.59-1.61,1.03-.11.11-.21.23-.29.35-.11.14-.2.28-.28.42-.11.19-.2.39-.26.6-.15.42-.21.84-.19,1.25.07,1.39.34,1.89.34,1.89l7.09.51.87,1.91.29.64-5.17.34-.35.02h-.01c.24.42.47.84.7,1.25.01,0,0,0,0,0,.44.82.86,1.63,1.24,2.41,1.32,2.75,2.26,5.25,2.86,7.55.43,1.63.7,3.17.82,4.61.02.29.04.58.05.86.03.56.06,1.06.08,1.49.01.21.02.41.03.6h0c.03.65.05,1.13.07,1.48h0c.01.15.01.28.02.38Z"/>
        <path class="cls-12" d="m142.54,37.38c.01.14.02.27.02.37-.01-.1-.01-.23-.02-.37Z"/>
        <path class="cls-12" d="m142.47,35.9c.04.65.06,1.12.07,1.47-.02-.35-.04-.83-.07-1.47Z"/>
        <path class="cls-12" d="m142.44,35.29c.01.22.02.42.03.6-.01-.19-.02-.39-.03-.6Z"/>
        <path class="cls-12" d="m142.37,33.8c.03.56.05,1.06.07,1.49-.02-.43-.05-.93-.08-1.49,0-.28-.03-.57-.05-.86.03.29.05.58.06.86Z"/>
        <polygon class="cls-12" points="141.93 16.11 142.23 16.75 142.22 16.75 141.93 16.11"/>
        <polygon class="cls-12" points="142.22 16.75 142.22 16.76 137.05 17.09 142.22 16.75"/>
        <path class="cls-12" d="m138.63,20.78c1.33,2.75,2.26,5.25,2.86,7.55-.6-2.3-1.54-4.8-2.86-7.55Z"/>
        <path class="cls-12" d="m140.23,38.56c.05.56.06,1.07.01,1.49.05-.41.04-.93-.02-1.48,0-.02-.01-.05-.01-.07,0-.04-.01-.09-.01-.13.01.04.02.09.02.13,0,.02.01.04.01.06Z"/>
        <path class="cls-12" d="m140.21,38.36s.01.09.01.14c0-.04-.01-.09-.02-.13v-.04c-.08-.9-.06-1.89-.28-2.68.23.8.21,1.8.29,2.71Z"/>
        <path class="cls-12" d="m140.2,38.33s-.01-.08-.02-.12c-.01-.08-.02-.15-.03-.23-.1-.7-.25-1.43-.41-2.07-.03-.09-.05-.19-.07-.27-.09-.36-.19-.68-.28-.94.1.09.18.2.26.31h0c.11.2.2.41.27.64.22.79.2,1.78.28,2.68Z"/>
        <path class="cls-12" d="m140.19,40.37s.01-.03.01-.05c0,.02,0,.04-.01.05Z"/>
        <path class="cls-12" d="m140.12,40.59s.01-.02.01-.03c0,.01,0,.02-.01.03Z"/>
        <path class="cls-12" d="m139.65,35.02c.12.19.21.4.27.63-.07-.23-.16-.44-.27-.63Z"/>
        <path class="cls-12" d="m139.38,34.67c.1.1.2.22.27.34-.08-.11-.16-.22-.26-.31,0,0-.01-.02-.01-.03Z"/>
        <path class="cls-12" d="m139.38,34.67s.01.02.01.03l-.02-.02h-.01v-.03l.02.02Z"/>
        <path class="cls-12" d="m139.38,34.67l-.02-.02c-.2-.5-.54-.68-.93-.59.4-.1.75.09.95.61Z"/>
        <path class="cls-12" d="m139.36,34.65c-.06-.05-.12-.1-.18-.13-.44-.33-.91-.38-1.33-.15.13-.11.26-.19.39-.25.06-.03.13-.05.19-.06.39-.09.73.09.93.59Z"/>
        <path class="cls-12" d="m138.98,42.92c.16.21.33.4.48.56-.16-.16-.32-.35-.48-.56Z"/>
        <path class="cls-12" d="m138.51,42.25c.15.25.31.47.47.67-.16-.2-.32-.42-.48-.67,0,0-.07-.64.24-1-.3.37-.23,1-.23,1Z"/>
        <path class="cls-12" d="m137.85,34.37c.13-.11.26-.19.39-.25-.13.06-.26.14-.39.25Z"/>
        <path class="cls-12" d="m137.39,18.37c.45.82.86,1.63,1.24,2.41-.38-.78-.8-1.59-1.24-2.41Z"/>
        <path class="cls-12" d="m137.84,34.38c-.22.18-.43.43-.63.74-.17.25-.32.55-.45.88-.22.56-.39,1.21-.47,1.95.01-.2.03-.39.05-.57.02-.1.03-.2.05-.29.04-.25.09-.48.16-.69.1-.39.23-.72.38-1.01,0,0,0-.01,0-.01.13-.25.28-.47.44-.64l.07-.07h.01s.05-.06.07-.08h.01c.09-.09.2-.15.3-.21Z"/>
        <path class="cls-12" d="m137.54,34.59c.1-.09.2-.16.3-.21-.1.06-.21.12-.3.21Z"/>
        <path class="cls-12" d="m137.46,34.66h-.01s0,0,.01,0Z"/>
        <path class="cls-12" d="m137.45,34.67l-.07.07.07-.07Z"/>
        <path class="cls-12" d="m137.4,7.08h0c-.74-.24-1.57-.37-2.46-.31.9-.06,1.72.06,2.46.31Z"/>
        <path class="cls-12" d="m136.7,17.11c.24.42.47.84.69,1.25-.23-.41-.46-.83-.7-1.25h.01Z"/>
        <polygon class="cls-12" points="137.02 8.01 137.29 7.35 137.03 8.01 137.02 8.01"/>
        <path class="cls-12" d="m136.94,35.38s0,.01,0,.01c0-.01,0-.01,0-.01Z"/>
        <path class="cls-12" d="m137.21,35.12c-.16.25-.32.55-.45.88.13-.33.28-.63.45-.88Z"/>
        <path class="cls-12" d="m136.61,8.05s-.11.02-.16.04c.05-.02.11-.03.16-.04Z"/>
        <path class="cls-12" d="m136.55,36.4c-.07.21-.12.44-.16.69.04-.24.09-.48.16-.69Z"/>
        <path class="cls-12" d="m136.34,37.38c-.02.18-.04.37-.05.57-.01.03-.01.06-.01.1-.01.07-.01.14-.01.22-.02.15-.03.3-.03.45,0-.48.04-.93.1-1.34Z"/>
        <path class="cls-12" d="m136.29,37.95s-.01.07-.01.1c0-.04,0-.07.01-.1Z"/>
        <path class="cls-12" d="m134.65,9.18c-.1.11-.2.23-.29.35.08-.12.18-.24.29-.35Z"/>
        <path class="cls-12" d="m134.08,9.95c-.11.2-.2.4-.26.6.06-.21.15-.41.26-.6Z"/>
        <path class="cls-7" d="m130.68,67.73c.9.2,2.07.03,3.58-.76-.72.47-1.69.88-2.69.88-.29,0-.6-.04-.89-.12Z"/>
        <path class="cls-7" d="m122.32,64.24c-.03-.12-.06-.25-.09-.37-.03-.13-.05-.25-.08-.38-.02-.09-.04-.18-.06-.28,0-.07-.03-.14-.04-.21-.03-.16-.05-.33-.08-.49.02.01.03.01.05.01s.04.01.07.01h.04c.78.22,1.73.3,2.62.32h.45c.82.03,1.58-.01,2.28-.09,0,0,.02,0,.03-.01.1,0,.17-.02.19-.02,0,.05,0,.09.02.14,0,.03.01.07.02.1.02,1.06.48,3.98,2.65,4.66.02,0,.04.01.06.02.06.03.12.05.18.07h.02s.02.01.03.01c.29.08.6.12.89.12l1.13,2.43c-2.76.98-4.91.84-6.56-.09-1.92-1.07-3.14-3.22-3.82-5.95Z"/>
        <path class="cls-7" d="m130.63,67.71h.01-.01c-.06-.01-.12-.03-.18-.06l.18.06Z"/>
        <path class="cls-12" d="m130.2,6.91l.27.03-.27-.03Z"/>
        <path class="cls-15" d="m129.92,67.39c.11.07.22.13.33.18-.11-.05-.22-.11-.33-.18Z"/>
        <path class="cls-12" d="m129.95,6.86c.08,0,.16.03.24.05-.08,0-.16-.03-.24-.05Z"/>
        <path class="cls-12" d="m129.44,6.73c.09.02.18.05.26.07-.08-.02-.17-.04-.26-.07Z"/>
        <path class="cls-15" d="m129.26,66.84c.14.14.28.27.43.39-.15-.11-.3-.24-.43-.39Z"/>
        <path class="cls-12" d="m129,6.6l.3.09c-.09-.03-.19-.06-.3-.09Z"/>
        <path class="cls-15" d="m128.86,66.32c.13.19.26.36.4.51-.15-.15-.28-.32-.4-.51Z"/>
        <path class="cls-15" d="m128.5,65.68c.12.23.23.44.36.63-.13-.19-.25-.4-.36-.63Z"/>
        <path class="cls-15" d="m127.73,62.86c.17,1.17.43,2.09.77,2.81-.34-.69-.6-1.57-.76-2.7-.01-.04-.01-.08-.01-.11Z"/>
        <path class="cls-7" d="m127.74,62.97s-.02-.07-.02-.1c-.01-.05-.01-.09-.02-.14h0s.01.09.02.13c0,.03,0,.07.01.11Z"/>
        <path class="cls-15" d="m127.4,62.76h.08c-.7.08-1.46.12-2.28.09.75,0,1.43-.03,1.89-.07.07,0,.13,0,.19-.01.04,0,.09,0,.12-.01Z"/>
        <path class="cls-15" d="m122.94,62.61c1.14.09,2.99.21,4.15.17-.46.04-1.14.07-1.89.07h-.45c-.64-.03-1.32-.09-2.04-.21-.2-.03-.39-.06-.58-.11.17.02.46.05.81.08Z"/>
        <path class="cls-7" d="m126.14,70.19l-1.5,2.5c-1.29,5.55-2.52,4.39-4.45,11.09-1.93,6.69-7.33,22.72-7.91,41.67,2.18,1.42,5.01,3.19,8.12,4.96-7.49,2.49-17.3-.74-21.96-1.99,4.81-8.42,7.77-12.42,8.17-17.11.44-5.25-5.1-10.64-8.46-10.93-.45-.04-.94-.07-1.51-.08l.06-1.81c4.51-5.83,11.69-26.66,25.62-34.25.68,2.73,1.9,4.88,3.82,5.95Z"/>
        <path class="cls-12" d="m124.98,13.2c.05.17.04.3.01.4.03-.11.03-.24-.01-.4Z"/>
        <path class="cls-12" d="m124.77,12.67c.11.21.18.38.21.53-.04-.15-.1-.32-.21-.53Z"/>
        <path class="cls-12" d="m124.64,13.91s.05,0,.11-.02c-.07.03-.12.03-.12.03h-5.64s5.65-.01,5.65-.01Z"/>
        <path class="cls-8" d="m124.66,29.76s0,.06,0,.09c0,.05,0,.09-.02.14.01-.08.02-.16,0-.24h.01Z"/>
        <path class="cls-8" d="m124.65,29.99c.01-.05.02-.09.02-.14,0,.05,0,.1-.02.14Z"/>
        <path class="cls-8" d="m124.64,29.7s.02.03.02.05h-.01s0-.04-.01-.05Z"/>
        <path class="cls-8" d="m124.65,29.75c.02.08.01.16,0,.24-.01.02-.01.03-.02.05,0,.01,0,.02,0,.03-.01.04-.03.08-.06.12,0,0-.01.02-.02.03-.03.05-.07.1-.13.15-.05.06-.11.11-.18.16,0,0,0,0-.01,0-.13.1-.29.19-.48.27-.09.04-.19.07-.29.1-.06.02-.12.04-.18.05-.02.01-.03.02-.05.01-.03.01-.06.01-.09.02-.1.02-.2.03-.3.05-.34.03-.66,0-.92-.08-.01.01-.02,0-.02,0-.01-.01-.02-.01-.02-.01h-.01c-.06-.02-.11-.04-.15-.07,0,0-.02,0-.03-.01-.06-.03-.11-.06-.16-.09-.04-.02-.09-.06-.12-.11-.08-.08-.12-.17-.14-.27-.04-.21.05-.43.24-.62.22-.22.55-.41.96-.53.1-.02.21-.05.32-.07.36-.07.7-.07.99-.03.18.03.33.08.47.14.11.05.2.12.27.2.06.06.1.13.13.21.01.01.01.03.01.05Z"/>
        <path class="cls-8" d="m124.56,30.19s.05-.08.06-.12c-.01.04-.03.07-.06.12Z"/>
        <path class="cls-8" d="m124.41,30.37h0c-.05.06-.11.11-.18.16.07-.05.13-.1.18-.16Z"/>
        <path class="cls-8" d="m123.74,30.81c.19-.08.35-.17.48-.27-.13.1-.3.2-.48.27Z"/>
        <path class="cls-8" d="m123.77,29.15c-.29-.04-.63-.04-.99.03-.11.02-.22.05-.32.07.1-.03.21-.06.32-.08.36-.07.7-.07.99-.02Z"/>
        <path class="cls-8" d="m123.27,30.96c-.05.02-.1.03-.15.04.03,0,.07,0,.1-.03.02.01.03,0,.05-.01Z"/>
        <path class="cls-7" d="m122.71,62.64c.72.12,1.4.18,2.04.21-.89-.02-1.84-.1-2.62-.32.19.05.38.08.58.11Z"/>
        <path class="cls-8" d="m123.22,30.97s-.07.02-.1.03c-.1.02-.2.04-.29.04.1-.02.2-.03.3-.05.03-.01.06-.01.09-.02Z"/>
        <path class="cls-12" d="m122.29,8.94c.5.79.99,1.55,1.5,2.28-.51-.74-1.01-1.49-1.51-2.28-.16-.26-.33-.53-.5-.8.18.27.34.54.51.8Z"/>
        <path class="cls-8" d="m122.83,31.04c-.2.02-.38.02-.55.01-.13-.02-.26-.05-.37-.09.26.08.58.11.92.08Z"/>
        <polygon class="cls-12" points="122.48 15.66 118.91 15.3 118.99 13.99 118.92 15.29 122.48 15.66"/>
        <path class="cls-7" d="m96.7,98.49l-.06,1.81c.57.01,1.06.04,1.51.08,3.36.29,8.9,5.68,8.46,10.93-.4,4.69-3.36,8.69-8.17,17.11-.55.98-1.14,2.03-1.74,3.14-1.42,2.57-2.99,4.32-4.62,5.48-1.82,1.3-3.72,1.88-5.58,2.08-1.64-.28-5.85-4.59-9.88-8.63-2.4-2.43-4.75-4.76-6.45-6.08-.61-.46-1.13-.72-1.57-.79-2.35-.34-2.68,4.53-3.49,10.15-.18,1.19-.38,2.43-.62,3.64-2.19-.22-4.52-.46-6.93-.72-5.39-.58-11.13-1.23-16.3-1.85-.92-.12-1.82-.23-2.71-.34-1.37-.54-4.45-3.14-7.59-5.89-3.15-2.75-6.34-5.66-7.92-6.8-3.17-2.3-6.24-2.98-6.37-.86h-.07c-.01-.16-.03-.31-.04-.46.34-1.75,2.17-4,4.81-6.36,4.91-4.4,12.58-9.19,18.63-11.93,3.42-1.56,6.32-2.45,7.89-2.26,5.82.73,9.91,2.04,13.98.59,3.19-1.14,17.43-14.94,26.7-23.82,2.59-2.48,4.77-4.57,6.24-5.91,6.7-6.12,9.02-7.57,10.63-7.57s16.53.29,16.53.29l.17-.03c.03.13.06.25.09.38.03.12.06.25.09.37-13.93,7.59-21.11,28.42-25.62,34.25Z"/>
        <path class="cls-12" d="m122.29,8.94c-.17-.26-.33-.53-.51-.8,0,0,.01,0,0-.01-.16-.27-.34-.55-.51-.82.35.55.69,1.1,1.02,1.63Z"/>
        <path class="cls-15" d="m122.94,62.61c-.35-.03-.64-.06-.81-.08h-.03s-.05-.01-.07-.02c.14.02.47.06.91.1Z"/>
        <path class="cls-7" d="m122.15,63.49c.03.13.05.25.08.38-.03-.13-.06-.25-.09-.38h.01Z"/>
        <path class="cls-7" d="m122.09,63.21c.02.1.04.19.06.28h-.01c-.02-.09-.03-.18-.05-.28Z"/>
        <path class="cls-7" d="m122.03,62.51s.05.01.07.02h-.01s-.04-.01-.06-.02Z"/>
        <path class="cls-7" d="m122.03,62.51s.04.01.06.02c-.03,0-.05-.01-.07-.01s-.03,0-.05-.01h.06Z"/>
        <path class="cls-8" d="m121.91,30.96c.11.04.24.07.37.09-.24-.02-.44-.08-.61-.17-.05-.03-.1-.06-.15-.1.05.03.1.06.16.09.01.01.02.01.03.01.04.03.09.05.15.07h.01s0,0,.02.01c0,0,.01.01.02,0Z"/>
        <path class="cls-12" d="m121.27,7.31c.17.27.35.55.51.82-.18-.27-.35-.54-.52-.82-.35-.55-.7-1.12-1.07-1.7.38.59.73,1.14,1.08,1.7Z"/>
        <path class="cls-8" d="m121.26,30.4c.02.1.06.19.14.27-.08-.07-.13-.17-.15-.27-.04-.21.05-.43.25-.62-.19.19-.28.41-.24.62Z"/>
        <path class="cls-12" d="m119.16,19.16l-.58.58c.18-.2.38-.39.58-.58Z"/>
        <path class="cls-8" d="m117.81,58.8c.34.49.7.97,1.09,1.43-.4-.46-.76-.94-1.09-1.43Z"/>
        <path class="cls-8" d="m116.63,56.74c.35.69.74,1.38,1.18,2.05-.45-.67-.84-1.36-1.18-2.05Z"/>
        <path class="cls-12" d="m116.31,22.17c.35-.41.72-.82,1.1-1.22-.37.4-.74.81-1.1,1.22Z"/>
        <path class="cls-8" d="m114.86,30.09c1.11.1,1.97.59,1.93,1.09-.04.52-.99.85-2.1.76-.76-.08-1.41-.34-1.73-.65h0c.05-.28.09-.53.12-.7,0-.09.02-.15.03-.2.37-.25,1.02-.36,1.75-.3Z"/>
        <path class="cls-14" d="m115.27,41.95h1.4c-.12,3.41-.37,6.42-.1,7.46l-2.16.66c-.49-1.55-.9-3.14-1.21-4.76-.18-.99-.34-1.98-.46-2.98h0s.63-.08.63-.08c.88-.22,1.46-.3,1.9-.3Z"/>
        <path class="cls-8" d="m114.44,50.17s.56,3.26,2.19,6.56c-1.64-3.3-2.2-6.56-2.2-6.56-.5-1.58-.91-3.21-1.23-4.86.31,1.62.72,3.21,1.21,4.76,0,.03.02.07.03.1Z"/>
        <path class="cls-14" d="m114.88,25.73c-.09.13-.18.26-.27.4.08-.14.17-.27.26-.4h0Z"/>
        <path class="cls-14" d="m114.61,26.13c-.17.29-.34.62-.49.98.15-.36.31-.69.49-.98Z"/>
        <path class="cls-12" d="m114.1,25.24c.02.06.05.1.09.15h-.01c-.04-.05-.06-.09-.08-.15Z"/>
        <path class="cls-12" d="m114.17,24.7c-.06.15-.1.26-.1.37,0-.11.03-.23.1-.37Z"/>
        <path class="cls-14" d="m113.89,27.67c-.15.39-.29.81-.42,1.27.13-.45.27-.88.42-1.27Z"/>
        <path class="cls-8" d="m113.11,30.38h0c-.01.06-.02.12-.03.21-.06.21-.09.45-.14.67-.12-.14-.19-.29-.17-.43.02-.18.14-.33.34-.45Z"/>
        <path class="cls-8" d="m112.94,31.26c.05-.22.08-.46.14-.67-.03.17-.07.42-.12.69h0v-.02Z"/>
        <path class="cls-8" d="m112.96,31.28h0c-.03.2-.07.4-.1.61.03-.21.06-.42.09-.61h0Z"/>
        <path class="cls-8" d="m112.74,42.33c.12,1,.28,1.99.46,2.98-.19-.98-.35-1.98-.47-2.97-.11-.84-.18-1.69-.23-2.53.06.84.13,1.67.24,2.51h0Z"/>
        <path class="cls-8" d="m112.71,32.79c0,.15-.03.27-.05.36,0-.09.03-.22.05-.36Z"/>
        <path class="cls-8" d="m112.64,33.3s.01-.07.02-.11c0,.04-.01.07-.01.1-.11.97-.19,1.98-.22,3,.03-1.02.1-2.02.21-2.99Z"/>
      </g>
      <g>
        <path class="cls-3" d="m208.01,114.13c-1.06.23-2.18.46-3.36.67-27.96,5.98-45.01-2.18-52.59-4.44l-.31-1.71c-2.85.52-5.47,1.09-7.69,1.7h0c-1.31.36-2.49.73-3.5,1.13"/>
        <path class="cls-3" d="m205.31,103.03c-.18.26-.3.49-.36.69,0,0,.15-.02.44-.07"/>
        <path class="cls-3" d="m140.35,111.57c-.08.02-.15.05-.22.09"/>
        <path class="cls-3" d="m149.14,56.18c0-.43-.08-.84-.3-1.35l.14-.06"/>
        <path class="cls-3" d="m134.4,66.89c.34-.17.71-.39,1.09-.64,3.42-2.24,13.19-8.45,13.63-9.95"/>
        <path class="cls-3" d="m139.96,111.72c-.49.2-.92.4-1.31.61-10.77,5.83-6.26,13.4,0,17.77,2.18,1.52,4.56,4.1,6.74,6.83l-.76.6"/>
        <path class="cls-3" d="m120.4,130.41c-7.49,2.49-17.3-.74-21.96-1.99"/>
        <path class="cls-3" d="m145.05,40.62c-.05-.5-.11-.94-.16-1.22-.03-.17-.11-.31-.22-.44-.05-.06-.11-.12-.18-.17"/>
        <path class="cls-3" d="m145.4,44.47s-.16-2.18-.34-3.78"/>
        <line class="cls-3" x1="145.39" y1="44.47" x2="145.4" y2="44.47"/>
        <path class="cls-3" d="m144.49,38.79c.06.05.12.11.18.17"/>
        <path class="cls-3" d="m142.59,38.31h0s.3,0,.71.05h.01"/>
        <path class="cls-3" d="m142.54,37.38c.01.14.01.27.02.37"/>
        <path class="cls-3" d="m142.47,35.9c.03.64.05,1.12.07,1.47"/>
        <path class="cls-3" d="m142.31,32.94c.02.29.04.58.05.86.03.56.06,1.06.08,1.49.01.21.02.41.03.6"/>
        <path class="cls-3" d="m137.39,18.37c.44.82.86,1.63,1.24,2.41,1.32,2.75,2.26,5.25,2.86,7.55"/>
        <path class="cls-3" d="m136.7,17.11h-.01c.24.42.47.84.7,1.25"/>
        <polyline class="cls-3" points="141.93 16.11 142.22 16.75 142.22 16.76 137.05 17.09"/>
        <path class="cls-3" d="m134.08,9.95c-.11.19-.2.39-.26.6"/>
        <path class="cls-3" d="m134.65,9.18c-.11.11-.21.23-.29.35"/>
        <path class="cls-3" d="m136.61,8.05s-.11.02-.16.04"/>
        <line class="cls-3" x1="137.29" y1="7.35" x2="137.02" y2="8.01"/>
        <path class="cls-3" d="m134.94,6.77c.89-.06,1.72.07,2.46.32"/>
        <path class="cls-3" d="m130.2,6.91l.27.03"/>
        <path class="cls-3" d="m129.95,6.86c.08.02.16.04.24.05"/>
        <path class="cls-3" d="m129.44,6.73c.09.03.18.05.26.07"/>
        <path class="cls-3" d="m129,6.6c.11.03.21.06.3.09"/>
        <path class="cls-3" d="m121.78,8.13c-.18-.27-.35-.54-.52-.82-.35-.55-.7-1.12-1.07-1.7"/>
        <path class="cls-3" d="m123.79,11.22c-.51-.74-1.01-1.49-1.51-2.28-.16-.26-.33-.53-.5-.8"/>
        <path class="cls-3" d="m124.98,13.2c-.04-.15-.1-.32-.21-.53"/>
        <path class="cls-3" d="m118.99,13.92h5.64s.05,0,.12-.03"/>
        <path class="cls-3" d="m118.58,19.74l.58-.58"/>
        <path class="cls-3" d="m116.31,22.17c.36-.41.73-.82,1.1-1.22"/>
        <path class="cls-3" d="m114.07,25.07c0-.11.03-.23.1-.37"/>
        <path class="cls-3" d="m114.19,25.39h-.01c-.04-.05-.06-.09-.08-.15"/>
        <path class="cls-3" d="m136.55,36.4c-.07.21-.12.45-.16.69"/>
        <path class="cls-3" d="m136.94,35.38s0,0,0,.01"/>
        <path class="cls-3" d="m139.65,35.01c-.08-.11-.16-.22-.26-.31l-.02-.02"/>
        <path class="cls-3" d="m140.2,38.33c-.08-.9-.06-1.89-.28-2.68-.07-.23-.16-.44-.27-.63"/>
        <line class="cls-3" x1="145.39" y1="44.47" x2="142.66" y2="44.76"/>
        <path class="cls-3" d="m139.67,35.64c-.09-.36-.19-.68-.28-.94,0,0-.01-.02-.01-.03"/>
        <path class="cls-3" d="m140.15,37.98c-.1-.7-.25-1.43-.41-2.07"/>
        <path class="cls-3" d="m140.22,38.5s-.01-.09-.02-.13v-.04s-.01-.08-.02-.12"/>
        <path class="cls-3" d="m138.43,34.06c.4-.1.75.09.95.61"/>
        <path class="cls-3" d="m137.85,34.37c.13-.11.26-.19.39-.25"/>
        <path class="cls-3" d="m137.21,35.12c-.16.25-.32.55-.45.88"/>
        <line class="cls-3" x1="131.57" y1="67.85" x2="132.7" y2="70.28"/>
        <path class="cls-3" d="m127.73,62.86s0,.07.01.11c.02,1.06.48,3.98,2.65,4.66"/>
        <path class="cls-3" d="m127.48,62.76s.02,0,.03-.01"/>
        <path class="cls-3" d="m127.4,62.76h.08c-.7.08-1.46.12-2.28.09"/>
        <path class="cls-3" d="m122.03,62.51c.14.02.47.06.91.1"/>
        <path class="cls-3" d="m124.64,29.7s.02.03.02.05"/>
        <path class="cls-3" d="m124.67,29.85c0,.05,0,.09-.02.14"/>
        <path class="cls-3" d="m124.51,29.49c.06.06.11.13.13.21"/>
        <path class="cls-3" d="m122.46,29.25c.1-.03.21-.06.32-.08.36-.07.7-.07.99-.02"/>
        <path class="cls-3" d="m121.4,30.67c-.08-.08-.12-.17-.14-.27-.04-.21.05-.43.24-.62"/>
        <path class="cls-3" d="m124.22,30.54c-.13.1-.29.19-.48.27"/>
        <path class="cls-3" d="m124.41,30.37c-.05.06-.11.11-.18.16"/>
        <path class="cls-3" d="m124.62,30.07s-.03.08-.06.12"/>
        <path class="cls-3" d="m124.65,29.75c.02.08.01.16,0,.24"/>
        <path class="cls-3" d="m122.03,62.51s.05.01.07.02"/>
        <path class="cls-3" d="m122.13,62.53c.19.05.38.08.58.11.72.12,1.4.18,2.04.21"/>
        <path class="cls-3" d="m123.27,30.96c-.05.02-.1.03-.15.04"/>
        <path class="cls-3" d="m122.83,31.04c.1-.02.2-.03.3-.05.03-.01.06-.01.09-.02"/>
        <path class="cls-3" d="m121.52,30.78c.05.03.1.06.16.09.01.01.02.01.03.01.04.03.09.05.15.07h.01s0,0,.02.01c0,0,.01.01.02,0,.26.08.58.11.92.08"/>
        <path class="cls-3" d="m122.28,31.05c-.13-.02-.26-.05-.37-.09"/>
        <polyline class="cls-3" points="118.99 13.99 118.92 15.29 122.48 15.66"/>
        <line class="cls-3" x1="121.97" y1="63.52" x2="122.14" y2="63.49"/>
        <path class="cls-3" d="m96.7,98.49l-.06,1.81c.57.01,1.06.04,1.51.08,3.36.29,8.9,5.68,8.46,10.93-.4,4.69-3.36,8.69-8.17,17.11-.55.98-1.14,2.03-1.74,3.14-1.42,2.57-2.99,4.32-4.62,5.48-1.82,1.3-3.72,1.88-5.58,2.08-1.64-.28-5.85-4.59-9.88-8.63-2.4-2.43-4.75-4.76-6.45-6.08-.61-.46-1.13-.72-1.57-.79-2.35-.34-2.68,4.53-3.49,10.15-.18,1.19-.38,2.43-.62,3.64-2.19-.22-4.52-.46-6.93-.72-5.39-.58-11.13-1.23-16.3-1.85-.92-.12-1.82-.23-2.71-.34-1.37-.54-4.45-3.14-7.59-5.89-3.15-2.75-6.34-5.66-7.92-6.8-3.17-2.3-6.24-2.98-6.37-.86h-.07"/>
        <line class="cls-3" x1="122.15" y1="63.49" x2="122.14" y2="63.49"/>
        <path class="cls-3" d="m148.24,53.27c-.1-.3-.2-.61-.3-.93"/>
        <path class="cls-3" d="m148.93,55.49c-.08-.26-.18-.59-.3-.97"/>
        <path class="cls-3" d="m130.68,67.73c.9.2,2.07.03,3.58-.76"/>
        <path class="cls-3" d="m130.45,67.65c.06.03.12.05.18.07h.01"/>
        <path class="cls-3" d="m129.92,67.39c.11.07.22.13.33.18"/>
        <path class="cls-3" d="m129.26,66.84c.13.15.28.28.43.39"/>
        <path class="cls-3" d="m128.86,66.32c.12.19.25.36.4.51"/>
        <path class="cls-3" d="m128.5,65.68c.11.23.23.44.36.63"/>
        <path class="cls-3" d="m127.7,62.73c0,.05,0,.09.02.14,0,.03.01.07.02.1.16,1.13.42,2.01.76,2.7"/>
        <path class="cls-3" d="m122.13,62.53c.17.02.46.05.81.08,1.14.09,2.99.21,4.15.17"/>
        <path class="cls-3" d="m118.9,60.24c.79.91,1.7,1.7,2.76,2.28h.3s0-.01.01-.01c.02.01.03.01.05.01s.04.01.07.01"/>
        <path class="cls-3" d="m117.81,58.8c.33.49.69.97,1.09,1.43"/>
        <path class="cls-3" d="m116.63,56.74c.34.69.73,1.38,1.18,2.05"/>
        <path class="cls-3" d="m112.5,39.81c.05.84.12,1.69.23,2.53.12.99.28,1.99.47,2.97.32,1.65.73,3.28,1.23,4.86,0,0,.56,3.26,2.2,6.56"/>
        <path class="cls-3" d="m112.66,33.19s-.02.08-.02.11c-.11.97-.18,1.97-.21,2.99"/>
        <path class="cls-3" d="m112.71,32.79c-.02.14-.04.27-.05.36"/>
        <path class="cls-3" d="m112.95,31.28c-.03.19-.06.4-.09.61"/>
        <path class="cls-3" d="m113.11,30.39c.37-.25,1.02-.36,1.75-.3,1.11.1,1.97.59,1.93,1.09-.04.52-.99.85-2.1.76-.76-.08-1.41-.34-1.73-.65"/>
        <path class="cls-3" d="m113.89,27.67c-.15.39-.29.82-.42,1.27"/>
        <path class="cls-3" d="m114.87,25.73c-.09.13-.18.26-.26.4-.18.29-.34.62-.49.98"/>
        <path class="cls-3" d="m136.27,38.27c-.02.15-.03.3-.03.45-2-3.37-4.58-8.68-5.31-15.34-5.44,1.14-13.5,2.93-16.05,2.35"/>
        <path class="cls-3" d="m137.85,34.37h-.01c-.22.19-.43.44-.63.75-.17.25-.32.55-.45.88-.22.56-.39,1.21-.47,1.95-.01.03-.01.07-.01.1"/>
        <path class="cls-3" d="m140.24,40.05c.05-.41.04-.93-.02-1.48,0-.02-.01-.05-.01-.07,0-.04-.01-.09-.01-.13-.01-.05-.02-.11-.02-.16-.01-.08-.02-.15-.03-.23-.1-.71-.25-1.43-.41-2.07-.03-.09-.05-.19-.07-.27-.11-.37-.21-.7-.3-.96h-.01c-.06-.06-.12-.12-.18-.16"/>
        <path class="cls-3" d="m140.19,40.37s.01-.03.01-.05"/>
        <path class="cls-3" d="m140.12,40.59s.01-.02.01-.03"/>
        <path class="cls-3" d="m139.46,43.48c-.16-.16-.32-.35-.48-.56-.16-.2-.32-.42-.48-.67,0,0-.07-.64.24-1"/>
        <path class="cls-3" d="m147.94,52.33c-1.04-3.23-2.38-7.35-2.54-7.81l-2.74.24"/>
        <path class="cls-3" d="m124.66,29.75h0s0,.07,0,.1c0,.05,0,.1-.02.14-.01.02-.01.03-.02.05,0,.01,0,.02,0,.03-.01.04-.03.07-.06.12,0,0-.01.02-.02.03-.03.05-.07.1-.13.15h0c-.05.06-.11.11-.18.16,0,0,0,0-.01,0-.13.1-.3.2-.48.27-.09.04-.19.07-.29.1-.06.02-.12.04-.18.05-.02.01-.03.02-.05.01-.03.02-.07.02-.1.03-.1.02-.2.04-.29.04-.2.02-.38.02-.55.01-.24-.02-.44-.08-.61-.17-.05-.03-.1-.06-.15-.1-.04-.02-.09-.06-.12-.11-.08-.07-.13-.17-.15-.27-.04-.21.05-.43.25-.62.22-.22.55-.41.96-.53.1-.02.21-.05.32-.07.36-.07.7-.07.99-.03.18.03.33.08.47.14.11.05.2.12.27.2.06.06.1.13.13.21.01.01.01.03.01.05"/>
        <path class="cls-3" d="m112.94,31.26c-.12-.14-.19-.29-.17-.43.02-.18.14-.33.34-.45"/>
        <path class="cls-3" d="m112.96,31.28h0v-.02c.04-.22.07-.46.13-.67"/>
        <path class="cls-3" d="m146.22,20.32c.13.3.26.62.39.93"/>
        <path class="cls-3" d="m143.93,14.94c.17.39.36.82.55,1.28"/>
        <path class="cls-3" d="m142.76,12.46c.11.21.2.38.27.5.07.14.23.46.44.95"/>
        <path class="cls-3" d="m144.29,20.94c-.57-1.54-1.13-3.01-1.64-4.29-.05-.13-.11-.25-.16-.37"/>
        <path class="cls-3" d="m153.24,52.35c-.45.24-1.08.24-1.49,0"/>
        <path class="cls-3" d="m153.73,49.75c.01.2.02.38.02.55.03.71.03,1.22-.01,1.42-.03.13-.08.25-.16.35"/>
        <path class="cls-3" d="m153.59,47.54c.03.32.05.63.07.93"/>
        <path class="cls-3" d="m153.36,44.82c.08.75.14,1.49.19,2.18"/>
        <path class="cls-3" d="m152.95,40.92c.1.77.19,1.58.27,2.38"/>
        <path class="cls-3" d="m122.23,63.87c-.03-.13-.06-.25-.09-.38-.02-.09-.03-.18-.05-.28"/>
        <path class="cls-3" d="m122.29,8.94c-.33-.53-.67-1.08-1.02-1.63"/>
        <path class="cls-3" d="m137.38,34.74l.07-.07s0-.01.01-.01"/>
        <polyline class="cls-3" points="137.4 7.08 137.4 7.09 137.29 7.35 137.03 8.01"/>
        <path class="cls-3" d="m148.98,54.77c3.88-.21,4.87,1.1,5.13,2.34,0,.51-.61,1.26-1.64,2.15-3.86,3.34-13.67,8.63-19.2,10.82-.19.08-.38.15-.57.2-2.76.98-4.91.84-6.56-.09-1.92-1.07-3.14-3.22-3.82-5.95-.03-.12-.06-.25-.09-.37-.03-.13-.05-.25-.08-.38-.02-.09-.04-.18-.06-.28,0-.07-.03-.14-.04-.21-.03-.16-.05-.33-.08-.49h.06s.04.01.06.02h.04c.78.22,1.73.3,2.62.32h.45c.75,0,1.43-.03,1.89-.07.07,0,.13,0,.19-.01.04,0,.09,0,.12-.01.04,0,.08,0,.11-.01.1,0,.17-.02.19-.02h0c3.91-.51,6.89-3.47,6.89-3.47"/>
        <path class="cls-3" d="m121.66,62.51c-1.05-.58-1.96-1.37-2.76-2.27.01-.01,0-.01,0-.01-.39-.46-.75-.94-1.09-1.43.01-.01,0-.01,0-.01-.44-.67-.83-1.36-1.18-2.05t0-.01c-1.63-3.3-2.19-6.56-2.19-6.56-.01-.03-.02-.07-.03-.1-.49-1.55-.9-3.14-1.21-4.76-.18-.99-.34-1.98-.46-2.98h0c-.11-.85-.18-1.68-.24-2.52-.08-1.19-.1-2.37-.07-3.52.03-1.02.11-2.03.22-3,0-.03.01-.06.01-.1v-.04c.02-.09.04-.21.05-.36.04-.25.1-.58.15-.9.03-.21.07-.41.1-.6h0c.05-.28.09-.53.12-.7,0-.09.02-.15.03-.2h0"/>
        <path class="cls-3" d="m114.88,25.73c-.09.13-.18.26-.27.4-.17.29-.34.62-.49.98-.08.17-.16.36-.23.56-.15.39-.29.81-.42,1.27-.13.45-.25.93-.36,1.44"/>
        <path class="cls-3" d="m120.19,49.32c-1.07.55-3.4.47-3.4.47-.09-.04-.17-.17-.22-.38-.27-1.04-.02-4.05.1-7.47-.02-1.36,0-2.56.02-3.23"/>
        <path class="cls-3" d="m113.37,42.25c.88-.22,1.46-.3,1.9-.3"/>
        <path class="cls-3" d="m122.96,39.79c1.17-.37,2.85-.55,4.5-.63"/>
        <path class="cls-3" d="m38.55,134.5c-4.44-.55-8.26-1.07-10.77-1.48-10.34-1.71-10.76-6.71-11.18-12.07-.01-.16-.03-.31-.04-.46.34-1.75,2.17-4,4.81-6.36,4.91-4.4,12.58-9.19,18.63-11.93,3.42-1.56,6.32-2.45,7.89-2.26,5.82.73,9.91,2.04,13.98.59,3.19-1.14,17.43-14.94,26.7-23.82,2.59-2.48,4.77-4.57,6.24-5.91,6.7-6.12,9.02-7.57,10.63-7.57s16.53.29,16.53.29"/>
        <path class="cls-3" d="m84.75,84.65c1.89,1.89,11.07,11.21,11.95,13.84,4.51-5.83,11.69-26.66,25.62-34.25h.01"/>
        <path class="cls-3" d="m124.64,72.69c-1.29,5.55-2.52,4.39-4.45,11.09-1.93,6.69-7.33,22.72-7.91,41.67,2.18,1.42,5.01,3.19,8.12,4.96,1.43.81,2.93,1.62,4.45,2.4,7.28,3.71,15.13,6.56,19.78,4.72"/>
        <path class="cls-3" d="m152.47,59.26c.46,1.93.76,8.77-3.32,15.76-4.08,7-12.19,32.81-11.95,35.41.17,1.88,1.83,1.59,2.76,1.29.01,0,.02-.01.03-.01.05-.01.09-.03.14-.05.08-.03.16-.06.22-.09.04-.01.07-.03.09-.04.04-.01.06-.03.08-.04s.04-.01.04-.01"/>
        <path class="cls-3" d="m152.73,79.25l13.03-11.45,2.92,8.24s-15.45,8.75-18.8,15.45c-3.35,6.71-5.94,11.79-5.82,18.86"/>
        <path class="cls-3" d="m154.11,57.11c2.9.94,7.06,2.38,11.75,2.15,4.71-.22,7.98.02,13.12,4.98,2.63,2.53,8.39,6.93,13.6,11.08,4.99,3.95,9.47,7.68,10.22,9.28.14.32.29.65.41,1,1.25,3.27,1.78,7.98,1.88,14.31.02,1.05.1,2.09.22,3.12.02.21.04.42.08.62.73,5.6,2.62,10.48,2.62,10.48"/>
        <path class="cls-3" d="m137.85,34.37c.42-.23.89-.18,1.33.15.06.03.12.08.18.13l.02.02c.1.1.2.22.27.34h0c.12.2.21.41.27.64.23.8.21,1.8.29,2.71,0,.05.01.09.01.14,0,.02.01.04.01.06.05.56.06,1.07.01,1.49,0,.1-.02.19-.04.27,0,.02,0,.04-.01.05,0,.07-.03.14-.06.19,0,.01,0,.02-.01.03-.11.3-.3.46-.58.42-.4-.06-.65.05-.8.24-.3.37-.23,1-.23,1,.15.25.31.47.47.67.16.21.33.4.48.56.96,1.02,1.82,1.39,1.82,1.39l1.09-.08h.02l.27-.03,2.75-.25.25-.02s-.3-3.9-.52-5.07c-.13-.66-.92-.92-1.59-1.02-.08-.02-.16-.03-.24-.04"/>
        <path class="cls-3" d="m137.54,34.59c.1-.09.2-.16.3-.21"/>
        <path class="cls-3" d="m137.38,34.74l.07-.07"/>
        <path class="cls-3" d="m136.39,37.09c.04-.25.09-.48.16-.69.1-.39.23-.72.38-1.01,0,0,0-.01,0-.01"/>
        <path class="cls-3" d="m136.29,37.95c.01-.2.03-.39.05-.57"/>
        <path class="cls-3" d="m136.27,38.27c0-.08,0-.15.01-.22"/>
        <path class="cls-3" d="m121.27,7.31c-.35-.56-.7-1.11-1.08-1.7h0c-1.5-2.34-1.5-1.39-1.5-2.34s1.9-2.91,3.28-2.76c1.38.14,6.85,6.04,6.85,6.04.06.02.12.03.18.05l.3.09c.05,0,.1.02.14.04.09.02.18.05.26.07s.16.04.25.06c.08,0,.16.03.24.05.01,0,.01,0,.01,0l.27.03c.72.07,1.82.03,4.47-.17.9-.06,1.72.06,2.46.31.62.22,1.19.52,1.7.88.35.24.66.51.97.79.59.56,1.09,1.17,1.51,1.77.21.3.39.59.56.86.26.41.46.78.62,1.08.11.21.19.38.26.5.08.14.23.46.45.95.13.29.28.63.46,1.03.16.39.35.82.55,1.28.1.25.21.49.32.74.1.25.21.51.33.78.22.53.46,1.1.72,1.68.11.3.24.59.37.9.13.3.25.62.39.93.19.47.38.94.59,1.42.27.65.53,1.3.8,1.95.26.65.52,1.31.78,1.95h0c.13.33.26.65.39.97.5,1.28.99,2.53,1.42,3.67.16.43.31.84.45,1.23h0c.15.41.28.77.41,1.13.41,1.19.7,2.16.83,2.78.04.21.09.46.13.71h0c.05.26.09.53.14.82.03.27.08.56.12.85.01.05.01.08.02.13.08.57.16,1.19.23,1.83.01.08.02.15.03.23.09.78.18,1.58.27,2.38.03.33.06.65.09.96.02.19.03.38.05.56.07.75.13,1.48.19,2.18.01.18.03.36.04.54.02.32.05.63.07.93,0,.09.01.18.02.27.02.36.04.7.05,1.01.01.19.02.38.02.55.02.71.02,1.22-.02,1.42-.03.13-.08.26-.15.35-.05.05-.08.09-.14.14s-.13.1-.2.14c-.44.25-1.08.25-1.49,0-.07-.04-.13-.09-.19-.14-.13-.13-.21-.3-.23-.49-.07-1.1-.58-8.74-1.82-14.57-.58-2.74-2.17-7.67-3.87-12.49-.17-.47-.34-.95-.51-1.43-.09-.24-.18-.48-.26-.72-.19-.53-.39-1.05-.58-1.57-.58-1.54-1.14-3-1.65-4.29-.05-.13-.1-.25-.15-.37l-.15-.36c-.68-1.68-1.26-2.99-1.64-3.68-1.49-2.72-2.35-4.23-3.67-4.23h-.01c-.13,0-.27.01-.41.04-.05.01-.11.02-.16.04-.06.01-.13.03-.19.06-.66.23-1.2.59-1.61,1.03-.1.11-.2.23-.29.35-.11.14-.2.28-.28.42-.11.2-.2.4-.26.6-.15.42-.21.84-.19,1.25.07,1.39.34,1.89.34,1.89l7.09.51.87,1.91.3.64h-.01l-5.17.34-.35.02c.24.42.47.84.69,1.25.01,0,0,0,0,0,.45.82.86,1.63,1.24,2.41,1.33,2.75,2.26,5.25,2.86,7.55.43,1.63.7,3.17.82,4.61.03.29.05.58.06.86.03.56.05,1.06.07,1.49.01.22.02.42.03.6h0c.04.66.06,1.13.07,1.48h0c.01.15.02.28.02.38.01.21.02.35.02.43v.13"/>
        <path class="cls-3" d="m118.99,13.92h0s5.65-.01,5.65-.01c0,0,.05,0,.11-.02.09-.04.2-.12.24-.29.03-.1.04-.23-.01-.4-.03-.15-.1-.32-.21-.53s-.26-.45-.47-.73c-.17-.23-.34-.47-.51-.72-.51-.73-1-1.49-1.5-2.28-.17-.26-.33-.53-.51-.8,0,0,.01,0,0-.01"/>
        <path class="cls-3" d="m114.88,25.73h0c-.26-.05-.45-.14-.58-.25-.05-.03-.08-.05-.1-.09-.04-.05-.07-.09-.09-.15-.02-.05-.03-.11-.03-.17,0-.11.04-.22.1-.37h.01c.64-.82,1.36-1.68,2.13-2.53.35-.41.72-.82,1.1-1.22.38-.41.77-.81,1.17-1.21.18-.2.38-.39.58-.58,1.36-1.32,2.69-2.43,3.79-3.07l-.47-.43"/>
        <path class="cls-3" d="m121.01,47.66s1.21.6,1.31,1.52"/>
        <path class="cls-3" d="m145.4,44.47s.01.02.01.04c.16.47,1.5,4.59,2.53,7.82.01,0,0,.01,0,.01.11.32.21.63.3.93.14.45.28.87.39,1.25.12.37.22.7.3.97.11.34.18.58.21.69v.02s0,.06-.02.1c-.57,1.26-12.59,9.19-14.72,10.59-.03.02-.07.04-.1.06,0,.01-.02.02-.03.02h-.01c-.72.47-1.69.88-2.69.88-.29,0-.6-.04-.89-.12-.01,0-.02-.01-.03-.01h-.02c-.06-.03-.12-.05-.18-.07-.02-.01-.04-.02-.06-.02-.05-.02-.09-.04-.14-.06-.11-.05-.22-.11-.33-.18-.08-.05-.15-.11-.23-.16-.15-.12-.29-.25-.43-.39h0c-.14-.16-.27-.33-.4-.52h0c-.13-.2-.24-.41-.36-.64h0c-.34-.73-.6-1.65-.77-2.82-.01-.04-.01-.09-.02-.13"/>
      </g>
    </g>
    <path class="cls-2" d="m122.78,55.35c-.78.18-1.47.08-1.55-.22-.05-.25.3-.55.86-.76-.61.09-1.1-.01-1.17-.27-.06-.3.5-.69,1.28-.88.78-.18,1.46-.1,1.55.21.04.24-.29.54-.83.74.61-.06,1.08.04,1.15.28.06.31-.5.7-1.28.9Z"/>
    <line class="cls-2" x1="122.08" y1="54.37" x2="122.91" y2="54.17"/>
  </g>
</svg>