<?xml version="1.0" encoding="UTF-8"?>
<svg id="_レイヤー_1" data-name="レイヤー 1" xmlns="http://www.w3.org/2000/svg" viewBox="0 0 268.77 190.41">
  <defs>
    <style>
      .cls-1 {
        fill: #79a081;
      }

      .cls-1, .cls-2, .cls-3, .cls-4, .cls-5, .cls-6, .cls-7, .cls-8, .cls-9, .cls-10 {
        stroke-width: 0px;
      }

      .cls-2 {
        fill: #8f4544;
      }

      .cls-11 {
        stroke-miterlimit: 10;
      }

      .cls-11, .cls-12 {
        fill: none;
        stroke: #000;
      }

      .cls-3 {
        fill: #bd957c;
      }

      .cls-4 {
        fill: #f3edd7;
      }

      .cls-12 {
        stroke-linecap: round;
        stroke-linejoin: round;
      }

      .cls-5 {
        fill: #333;
      }

      .cls-6 {
        fill: #f4d3b9;
      }

      .cls-7 {
        fill: #fadeac;
      }

      .cls-8 {
        fill: #d2d296;
      }

      .cls-9 {
        fill: #f5f1d8;
      }

      .cls-10 {
        fill: #ccb2bd;
      }
    </style>
  </defs>
  <g>
    <g>
      <rect class="cls-4" x=".24" y="155.97" width="3.6" height="5"/>
      <path class="cls-4" d="m268.53,183.39v6.53h-30.27l15.26-8.58c1.03,1.61,3.09,2.7,5.48,2.7s4.59-1.17,5.58-2.87l3.94,2.22Z"/>
      <path class="cls-4" d="m268.53,172.89v10.5l-3.94-2.22c.38-.65.59-1.37.59-2.13,0-1.29-.61-2.47-1.61-3.36l4.96-2.79Z"/>
      <path class="cls-4" d="m268.53,160.97v11.92l-4.96,2.79c-1.13-1-2.75-1.63-4.57-1.63s-3.29.58-4.41,1.5l-25.94-14.58h39.88Z"/>
      <polygon class="cls-4" points="268.53 83.16 268.53 88.89 1.13 88.89 .24 88.89 .24 83.16 268.53 83.16"/>
      <rect class="cls-4" x="264.56" y="155.97" width="3.97" height="5"/>
      <path class="cls-4" d="m265.17,179.04c0,.76-.21,1.48-.59,2.13l-5.39-3.03,4.37-2.46c.99.89,1.61,2.06,1.61,3.36Z"/>
      <path class="cls-4" d="m259.2,178.14l5.39,3.03c-.99,1.69-3.12,2.87-5.58,2.87s-4.45-1.1-5.48-2.7l5.68-3.19Z"/>
      <rect class="cls-5" x="253.32" y="155.97" width="11.24" height="5"/>
      <path class="cls-4" d="m263.57,175.68l-4.37,2.46-4.61-2.59c1.12-.92,2.68-1.5,4.41-1.5,1.81,0,3.44.63,4.57,1.63Z"/>
      <path class="cls-4" d="m259.2,178.14l-5.68,3.19c-.44-.68-.69-1.47-.69-2.3,0-1.36.67-2.59,1.76-3.49l4.61,2.59Z"/>
      <path class="cls-4" d="m228.65,160.97l25.94,14.58c-1.09.9-1.76,2.12-1.76,3.49,0,.83.25,1.61.69,2.3l-15.26,8.58h-41.23l-15.55-8.74c.38-.65.59-1.37.59-2.13,0-1.29-.61-2.47-1.61-3.35l26.18-14.72h22.02Zm-5.93,18.07c0-2.75-2.24-4.99-4.99-4.99s-5,2.24-5,4.99,2.24,5,5,5,4.99-2.24,4.99-5Z"/>
      <polygon class="cls-4" points="253.32 160.97 228.65 160.97 222.98 160.97 222.98 155.97 253.32 155.97 253.32 160.97"/>
      <rect class="cls-5" x="211.74" y="155.97" width="11.24" height="5"/>
      <path class="cls-5" d="m217.73,174.05c2.75,0,4.99,2.24,4.99,4.99s-2.24,5-4.99,5-5-2.24-5-5,2.24-4.99,5-4.99Z"/>
      <path class="cls-4" d="m206.63,160.97l-26.18,14.72c-1.13-1.01-2.75-1.64-4.57-1.64s-3.29.58-4.41,1.5l-25.94-14.58h61.1Z"/>
      <polygon class="cls-4" points="181.4 160.97 181.4 155.97 211.74 155.97 211.74 160.97 206.63 160.97 181.4 160.97"/>
      <path class="cls-4" d="m197.02,189.91h-41.88l15.26-8.58c1.03,1.61,3.1,2.7,5.48,2.7s4.59-1.17,5.58-2.87l15.55,8.74Z"/>
      <path class="cls-4" d="m182.06,179.04c0,.76-.21,1.48-.59,2.13l-5.39-3.03,4.37-2.45c.99.88,1.61,2.05,1.61,3.35Z"/>
      <path class="cls-4" d="m176.08,178.14l5.39,3.03c-.99,1.69-3.12,2.87-5.58,2.87s-4.45-1.1-5.48-2.7l5.68-3.19Z"/>
      <rect class="cls-5" x="170.16" y="155.97" width="11.24" height="5"/>
      <path class="cls-4" d="m175.88,174.05c1.81,0,3.44.63,4.57,1.64l-4.37,2.45-4.61-2.59c1.12-.92,2.68-1.5,4.41-1.5Z"/>
      <path class="cls-4" d="m176.08,178.14l-5.68,3.19c-.44-.68-.69-1.47-.69-2.3,0-1.36.67-2.59,1.76-3.49l4.61,2.59Z"/>
      <path class="cls-4" d="m145.53,160.97l25.94,14.58c-1.09.9-1.76,2.12-1.76,3.49,0,.83.25,1.61.69,2.3l-15.26,8.58h-41.23l-15.55-8.74c.38-.65.59-1.37.59-2.13,0-1.29-.61-2.47-1.61-3.35l26.18-14.72h22.02Zm-6.97,18.07c0-2.75-2.24-4.99-4.99-4.99s-5,2.24-5,4.99,2.24,5,5,5,4.99-2.24,4.99-5Z"/>
      <polygon class="cls-4" points="170.16 160.97 145.53 160.97 139.82 160.97 139.82 155.97 170.16 155.97 170.16 160.97"/>
      <rect class="cls-5" x="128.58" y="155.97" width="11.24" height="5"/>
      <path class="cls-5" d="m133.57,174.05c2.75,0,4.99,2.24,4.99,4.99s-2.24,5-4.99,5-5-2.24-5-5,2.24-4.99,5-4.99Z"/>
      <path class="cls-4" d="m123.52,160.97l-26.18,14.72c-1.13-1.01-2.75-1.64-4.57-1.64s-3.29.58-4.41,1.5l-25.94-14.58h61.1Z"/>
      <polygon class="cls-4" points="128.58 160.97 123.52 160.97 98.24 160.97 98.24 155.97 128.58 155.97 128.58 160.97"/>
      <path class="cls-4" d="m113.91,189.91h-41.88l15.26-8.58c1.03,1.61,3.09,2.7,5.48,2.7s4.59-1.17,5.58-2.87l15.55,8.74Z"/>
      <path class="cls-4" d="m98.94,179.04c0,.76-.21,1.48-.59,2.13l-5.39-3.03,4.37-2.45c.99.88,1.61,2.05,1.61,3.35Z"/>
      <path class="cls-4" d="m92.97,178.14l5.39,3.03c-.99,1.69-3.12,2.87-5.58,2.87s-4.45-1.1-5.48-2.7l5.68-3.19Z"/>
      <rect class="cls-5" x="87" y="155.97" width="11.24" height="5"/>
      <path class="cls-4" d="m92.77,174.05c1.81,0,3.44.63,4.57,1.64l-4.37,2.45-4.61-2.59c1.12-.92,2.68-1.5,4.41-1.5Z"/>
      <path class="cls-4" d="m92.97,178.14l-5.68,3.19c-.44-.68-.69-1.47-.69-2.3,0-1.36.67-2.59,1.76-3.49l4.61,2.59Z"/>
      <path class="cls-4" d="m62.42,160.97l25.94,14.58c-1.09.9-1.76,2.12-1.76,3.49,0,.83.25,1.61.69,2.3l-15.26,8.58H30.6l-15.55-8.74c.38-.65.59-1.37.59-2.13,0-1.29-.61-2.47-1.61-3.35l26.18-14.72h22.21Zm-8.48,18.07c0-2.75-2.24-4.99-4.99-4.99s-5,2.24-5,4.99,2.24,5,5,5,4.99-2.24,4.99-5Z"/>
      <polygon class="cls-4" points="87 160.97 62.42 160.97 56.66 160.97 56.66 155.97 87 155.97 87 160.97"/>
      <rect class="cls-5" x="45.42" y="155.97" width="11.24" height="5"/>
      <path class="cls-5" d="m48.95,174.05c2.75,0,4.99,2.24,4.99,4.99s-2.24,5-4.99,5-5-2.24-5-5,2.24-4.99,5-4.99Z"/>
      <polygon class="cls-4" points="45.42 160.97 40.21 160.97 15.08 160.97 15.08 155.97 45.42 155.97 45.42 160.97"/>
      <path class="cls-4" d="m30.6,189.91H.24v-6.48l3.74-2.1c1.03,1.61,3.1,2.7,5.48,2.7s4.59-1.17,5.58-2.87l15.55,8.74Z"/>
      <path class="cls-4" d="m15.64,179.04c0,.76-.21,1.48-.59,2.13l-5.39-3.03,4.37-2.45c.99.88,1.61,2.05,1.61,3.35Z"/>
      <rect class="cls-5" x="3.84" y="155.97" width="11.24" height="5"/>
      <path class="cls-4" d="m9.66,178.14l5.39,3.03c-.99,1.69-3.12,2.87-5.58,2.87s-4.45-1.1-5.48-2.7l5.68-3.19Z"/>
      <path class="cls-4" d="m9.46,174.05c1.81,0,3.44.63,4.57,1.64l-4.37,2.45-4.61-2.59c1.12-.92,2.68-1.5,4.41-1.5Z"/>
      <path class="cls-4" d="m9.66,178.14l-5.68,3.19c-.44-.68-.69-1.47-.69-2.3,0-1.36.67-2.59,1.76-3.49l4.61,2.59Z"/>
      <path class="cls-4" d="m.24,172.85l4.81,2.7c-1.09.9-1.76,2.12-1.76,3.49,0,.83.25,1.61.69,2.3l-3.74,2.1v-10.58Z"/>
      <polygon class="cls-8" points="211.74 155.97 181.4 155.97 170.16 155.97 139.82 155.97 128.58 155.97 98.24 155.97 87 155.97 56.66 155.97 45.42 155.97 15.08 155.97 3.84 155.97 .24 155.97 .24 88.89 1.13 88.89 268.53 88.89 268.53 155.97 264.56 155.97 253.32 155.97 222.98 155.97 211.74 155.97"/>
      <path class="cls-4" d="m.24,160.97h39.97l-26.18,14.72c-1.13-1.01-2.75-1.64-4.57-1.64s-3.29.58-4.41,1.5l-4.81-2.7v-11.88Z"/>
    </g>
    <g>
      <polyline class="cls-11" points="268.53 189.91 238.26 189.91 197.02 189.91 155.14 189.91 113.91 189.91 72.03 189.91 30.6 189.91 .24 189.91"/>
      <line class="cls-11" x1=".24" y1="83.16" x2="268.53" y2="83.16"/>
      <line class="cls-11" x1=".24" y1="88.89" x2="268.53" y2="88.89"/>
      <line class="cls-11" x1="264.56" y1="155.97" x2="268.53" y2="155.97"/>
      <line class="cls-11" x1="222.98" y1="155.97" x2="253.32" y2="155.97"/>
      <line class="cls-11" x1="181.4" y1="155.97" x2="211.74" y2="155.97"/>
      <line class="cls-11" x1="139.82" y1="155.97" x2="170.16" y2="155.97"/>
      <line class="cls-11" x1="98.24" y1="155.97" x2="128.58" y2="155.97"/>
      <line class="cls-11" x1="56.66" y1="155.97" x2="87" y2="155.97"/>
      <line class="cls-11" x1="15.08" y1="155.97" x2="45.42" y2="155.97"/>
      <line class="cls-11" x1=".24" y1="155.97" x2="3.84" y2="155.97"/>
      <line class="cls-11" x1="264.56" y1="160.97" x2="268.53" y2="160.97"/>
      <polyline class="cls-11" points="222.98 160.97 228.65 160.97 253.32 160.97"/>
      <polyline class="cls-11" points="181.4 160.97 206.63 160.97 211.74 160.97"/>
      <polyline class="cls-11" points="139.82 160.97 145.53 160.97 170.16 160.97"/>
      <polyline class="cls-11" points="98.24 160.97 123.52 160.97 128.58 160.97"/>
      <polyline class="cls-11" points="56.66 160.97 62.42 160.97 87 160.97"/>
      <polyline class="cls-11" points="15.08 160.97 40.21 160.97 45.42 160.97"/>
      <line class="cls-11" x1=".24" y1="160.97" x2="3.84" y2="160.97"/>
      <polyline class="cls-11" points="72.03 189.91 87.29 181.33 92.97 178.14 97.34 175.69 123.52 160.97"/>
      <polyline class="cls-11" points="113.91 189.91 98.35 181.17 92.97 178.14 88.36 175.55 62.42 160.97"/>
      <path class="cls-11" d="m138.56,179.04c0,2.76-2.24,5-4.99,5s-5-2.24-5-5,2.24-4.99,5-4.99,4.99,2.24,4.99,4.99Z"/>
      <path class="cls-11" d="m222.72,179.04c0,2.76-2.24,5-4.99,5s-5-2.24-5-5,2.24-4.99,5-4.99,4.99,2.24,4.99,4.99Z"/>
      <path class="cls-11" d="m97.34,175.69c.99.88,1.61,2.05,1.61,3.35,0,.76-.21,1.48-.59,2.13-.99,1.69-3.12,2.87-5.58,2.87s-4.45-1.1-5.48-2.7c-.44-.68-.69-1.47-.69-2.3,0-1.36.67-2.59,1.76-3.49,1.12-.92,2.68-1.5,4.41-1.5,1.81,0,3.44.63,4.57,1.64Z"/>
      <polyline class="cls-11" points=".24 183.43 3.98 181.33 9.66 178.14 14.03 175.69 40.21 160.97"/>
      <polyline class="cls-11" points="30.6 189.91 15.05 181.17 9.66 178.14 5.05 175.55 .24 172.85"/>
      <path class="cls-11" d="m14.03,175.69c.99.88,1.61,2.05,1.61,3.35,0,.76-.21,1.48-.59,2.13-.99,1.69-3.12,2.87-5.58,2.87s-4.45-1.1-5.48-2.7c-.44-.68-.69-1.47-.69-2.3,0-1.36.67-2.59,1.76-3.49,1.12-.92,2.68-1.5,4.41-1.5,1.81,0,3.44.63,4.57,1.64Z"/>
      <polyline class="cls-11" points="155.14 189.91 170.4 181.33 176.08 178.14 180.45 175.69 206.63 160.97"/>
      <polyline class="cls-11" points="197.02 189.91 181.47 181.17 176.08 178.14 171.47 175.55 145.53 160.97"/>
      <path class="cls-11" d="m180.45,175.69c.99.88,1.61,2.05,1.61,3.35,0,.76-.21,1.48-.59,2.13-.99,1.69-3.12,2.87-5.58,2.87s-4.45-1.1-5.48-2.7c-.44-.68-.69-1.47-.69-2.3,0-1.36.67-2.59,1.76-3.49,1.12-.92,2.68-1.5,4.41-1.5,1.81,0,3.44.63,4.57,1.64Z"/>
      <polyline class="cls-11" points="238.26 189.91 253.52 181.33 259.2 178.14 263.57 175.68 268.53 172.89"/>
      <polyline class="cls-11" points="268.53 183.39 264.58 181.17 259.2 178.14 254.59 175.55 228.65 160.97"/>
      <path class="cls-11" d="m263.57,175.68c.99.89,1.61,2.06,1.61,3.36,0,.76-.21,1.48-.59,2.13-.99,1.69-3.12,2.87-5.58,2.87s-4.45-1.1-5.48-2.7c-.44-.68-.69-1.47-.69-2.3,0-1.36.67-2.59,1.76-3.49,1.12-.92,2.68-1.5,4.41-1.5,1.81,0,3.44.63,4.57,1.63Z"/>
      <path class="cls-11" d="m53.94,179.04c0,2.76-2.24,5-4.99,5s-5-2.24-5-5,2.24-4.99,5-4.99,4.99,2.24,4.99,4.99Z"/>
      <rect class="cls-11" x="3.84" y="155.97" width="11.24" height="5"/>
      <rect class="cls-11" x="45.42" y="155.97" width="11.24" height="5"/>
      <rect class="cls-11" x="87" y="155.97" width="11.24" height="5"/>
      <rect class="cls-11" x="128.58" y="155.97" width="11.24" height="5"/>
      <rect class="cls-11" x="170.16" y="155.97" width="11.24" height="5"/>
      <rect class="cls-11" x="211.74" y="155.97" width="11.24" height="5"/>
      <rect class="cls-11" x="253.32" y="155.97" width="11.24" height="5"/>
    </g>
  </g>
  <g>
    <g>
      <path class="cls-1" d="m104.91,61.89c.24-.37.51-1.99.72-3.56.22-1.7.39-3.36.39-3.36l.38-.05c1.22,8.62,3.39,19.72,5.83,22.58-2.18,3.38-4.57,6.1-7.23,7.77l-3.75-22.33c1.92-.33,3.5-.79,3.67-1.05Z"/>
      <path class="cls-2" d="m216.3,134.06s-7.16,6.9-14.21,7.19c-7.05.29-15.13-3.38-26.74-4.7-.03,0-.08,0-.11,0-1.8-.21-3.42-.41-4.88-.61,10.89-2.61,38.83-5.58,45.94-1.86Z"/>
      <path class="cls-7" d="m119.21,10.62c-.06-.14-.27-.21-.57-.21l.58-.29.78-.47c1.2,1.55,2.35,3.03,3.5,4.22,3.55,3.68,27.09,20.79,34.73,26.94.85.69.62,2.05-.42,2.41-1.25.43-2.61,1.13-4.01,1.92-1.04.58-2.11,1.22-3.19,1.81h0c-1.42.8-2.84,1.54-4.2,2.03-4.85,1.77-5.58-2.2-5.44-4.99.09-1.6-.35-3.38-.75-4.62-.22-.69-.97-1.03-1.61-.79l-.02-.03c-2.4-.42-22.62-23.13-24.51-25.27l.17-.41c-.22-.09-.41-.17-.58-.26.35-.07,1.31-.28,2.33-.56,1.61-.43,3.39-1.01,3.21-1.44Z"/>
      <path class="cls-6" d="m92.19,26.35c-.88-1.76-1.62-6.65-1.48-10.54,5.31.29,17.79-.44,18.52-1.03l.29.27s6.73,12.04,11.99,21c-.4,1.15-.91,2.13-1.55,2.98-1.88,2.48-4.89,3.79-9.37,4.64-1.55.28-3.27.53-5.19.74-.53.05-1.06.11-1.61.16-4.34.42-7.03-1.81-8.7-4.92-2.37-4.38-2.74-10.47-2.91-13.3Z"/>
      <path class="cls-6" d="m101.41,52.69c1.1.71,4.61,2.29,4.61,2.29,0,0-.16,1.66-.39,3.36-.21,1.57-.47,3.19-.72,3.56-.17.27-1.74.73-3.67,1.05-.92.16-1.93.29-2.91.35-.29.02-.58.08-.85.16-2.01.65-3.7,2.95-4.74,2.94l-.45-.06c.63-4.3,1.13-8.08,1.26-9.07l.36.09c2.59-1.99,6.39-5.37,7.49-4.66Z"/>
      <path class="cls-9" d="m151.5,130.27c2.75.09,4.75.1,4.75.1,2.11,2.28,4.28,3.55,7.94,4.46,1.68.41,3.69.76,6.17,1.09,1.46.21,3.07.41,4.88.61l-.1.91c-.08-.02-.16,0-.22.03-1.59.77-7.27,7.74-7.27,7.74l-5.96,3.75-5.29-3.52s-10.35-8.55-12.78-15.53c2.68.19,5.55.3,7.88.36Z"/>
      <path class="cls-10" d="m244.55,125.6l-32.17,18.52h-16.75l-13.22,6.17-2.96-1.02s-2.68-11.46-4.31-11.83l.1-.91s.08,0,.11,0c11.61,1.32,19.69,5,26.74,4.7,7.05-.29,14.21-7.19,14.21-7.19,0,0,.19-.6-1.42-4.71-1.17-3-6.01-10.42-9.35-15.21,6.53,1.02,23.53,4.88,28.91,6.48,0,.04,0,.09-.02.13.35.05.69.11,1.04.2.03,0,.04,0,.06.02,4.51,1.05,9.03,4.64,9.03,4.64Z"/>
      <path class="cls-10" d="m231.99,101.14c.87,2.4,3.26,14.97,2.44,19.48-5.38-1.61-22.38-5.46-28.91-6.48-1.25-1.79-2.29-3.21-2.85-3.89-1.97-2.39-7.44-2.09-14.35-2.83l2.24-.85,19.4-7.27,6.35,1.4,5.56-6.39c.72.04,1.32.11,1.75.22,2.87.66,7.49,4.19,8.37,6.61Z"/>
      <path class="cls-10" d="m221.87,94.31l-5.56,6.39-6.35-1.4.22-4.77s7.65-.48,11.7-.22Z"/>
      <path class="cls-10" d="m134.32,127.23c-3.2-4.46-7.74-16.88-8.64-21.91-.07-.36-.11-.68-.14-.96-.17-1.91,1.16-4.42,3.38-7.14,2.05-2.52,4.86-5.22,7.94-7.8,2.04-1.71,4.19-3.37,6.31-4.89,2.25-1.61,4.14-3.35,5.73-5.13h0v-9.12c0-3.77,1.66-22.84,1.7-23.33h0c1.07-.6,2.14-1.24,3.19-1.82l7.6,7.77,1.18,1.22s10.88,31.45,14.1,34.09c3.24,2.64,3.56,3.46,3.56,3.46,0,0,3.28,12.18,10.33,14.9l-2.24.85c6.91.74,12.39.44,14.35,2.83.56.68,1.6,2.11,2.85,3.89,3.34,4.79,8.17,12.21,9.35,15.21,1.61,4.12,1.42,4.71,1.42,4.71-7.1-3.71-35.05-.74-45.94,1.86-2.48-.33-4.49-.67-6.17-1.09h0c0-6.95-4.01-10.73-8.05-12.92v.03c-1.86.03-4.02.66-6.65,1.86-2.81,1.27-6.16,3.19-10.23,5.7h0c-1.54-.19-2.75-.44-3.4-.73-.46-.21-.98-.74-1.54-1.53Z"/>
      <path class="cls-10" d="m210.17,94.53l-.22,4.77-19.4,7.27c-7.05-2.72-10.33-14.9-10.33-14.9,0,0,22.01-9.05,23.77-9.63.61-.2,1.1-.41,1.53-.42.83-.03,1.5.62,2.66,3.22,1.77,3.96,1.99,9.69,1.99,9.69Z"/>
      <path class="cls-10" d="m205.53,81.61c-.43.02-.91.22-1.53.42-1.76.59-23.77,9.63-23.77,9.63,0,0-.32-.82-3.56-3.46-3.23-2.64-14.1-34.09-14.1-34.09l-1.18-1.22c27.19,22.23,40.51,22.61,44.14,28.71Z"/>
      <path class="cls-1" d="m179.44,149.27l-11.8-4.06s5.68-6.97,7.27-7.74c.07-.03.15-.04.22-.03,1.62.36,4.31,11.83,4.31,11.83Z"/>
      <path class="cls-2" d="m164.19,134.83h0c-3.66-.91-5.83-2.18-7.94-4.45,0,0-1.99-.02-4.75-.1l-2.01-6.47c2.62-1.2,4.78-1.83,6.64-1.86v-.03c4.05,2.19,8.06,5.97,8.06,12.91Z"/>
      <path class="cls-1" d="m102.15,111.83l-1.23-1.48,5.52-6.07,7.78,2.68.04-.41h0l3.88-.41.04.43c.44,3.97,8.89,22.5,16.12,20.66.56.79,1.08,1.32,1.54,1.53.65.29,1.86.54,3.4.74,1.29.16,2.79.29,4.36.41,2.43,6.98,12.78,15.53,12.78,15.53l-49.81-.44-8.81-3.75c-1.32-.59-2.93-7.93-3.75-15.53-.66-6.24,4.2-11.09,8.12-13.89Zm3.85-3.42c2.11.69,4.99.57,3.96.45l-3.57-3.96s-.98,3.31-.39,3.51Z"/>
      <path class="cls-2" d="m149.49,123.8l2.01,6.47c-2.33-.06-5.2-.17-7.88-.36-1.57-.11-3.07-.24-4.36-.41h0c4.07-2.52,7.41-4.44,10.23-5.71Z"/>
      <path class="cls-10" d="m143.18,84.54c-2.12,1.52-4.27,3.18-6.31,4.89,0,0-.16-2.54,0-9.15s-1.77-35.11-2.53-38.83c1.57,1.55,1.57,2.8,6.64,2.55-.15,2.79.59,6.76,5.44,4.99,1.36-.49,2.78-1.23,4.2-2.02-.04.49-1.7,19.56-1.7,23.33v9.12h0c-1.59,1.79-3.48,3.52-5.73,5.14Z"/>
      <path class="cls-3" d="m140.22,39.37c.4,1.24.84,3.02.75,4.62-5.07.25-5.07-1-6.64-2.55,1.55-1.04,3-2.03,4-2.71.09-.06.18-.11.28-.15.65-.24,1.4.09,1.61.79Z"/>
      <path class="cls-7" d="m114.07,13.28c1.89,2.13,22.11,24.84,24.51,25.27l.02.03c-.09.03-.19.09-.28.15-.99.68-2.44,1.67-4,2.71-1.74,1.17-3.63,2.38-5.11,3.25-.62.37-1.17.68-1.62.91-.18-.09-.67-.74-1.37-1.81-1.13-1.73-2.82-4.53-4.7-7.73-5.26-8.96-11.99-21-11.99-21l-.29-.27-.52-.48c.84.23,3.28-.43,4.71-1.79.04.03.09.04.15.07-.03.03-.04.04-.05.07,0,0,.05,0,.14-.03.17.09.36.17.58.26l-.17.41Z"/>
      <path class="cls-10" d="m129.14,59.46l.09-14.77c1.48-.87,3.37-2.09,5.11-3.25.76,3.72,2.68,32.22,2.53,38.83s0,9.15,0,9.15c-3.08,2.58-5.9,5.28-7.94,7.8l.03-4.69.02-3.12.16-29.96Z"/>
      <path class="cls-9" d="m134.32,127.23c-7.23,1.84-15.68-16.69-16.12-20.66l-.04-.43,7.53-.81c.9,5.02,5.44,17.44,8.64,21.91Z"/>
      <path class="cls-1" d="m129.22,44.7l-.09,14.77c-.55,1.29-3.73,8.7-7.41,16.85-4.7,10.43-10.19,22.05-11.99,23.6-5.22,1.1-8.6-.79-8.6-.79.44-.79.63-4.26.67-8.78h1.61l1.56-5.07c2.67-1.67,5.06-4.38,7.23-7.77,1.16-1.8,2.26-3.77,3.3-5.88,4.25-8.55,7.62-19.16,10.7-27.84.7,1.07,1.19,1.73,1.37,1.81.45-.22,1-.54,1.62-.91Z"/>
      <path class="cls-9" d="m129.14,59.46l-.16,29.96h-.05s-2.36,1.62-6.4,4.09l-.06-.09c.28-7.29-.73-17.11-.73-17.11,3.68-8.15,6.85-15.55,7.41-16.85Z"/>
      <path class="cls-9" d="m109.74,99.91c1.69-.35,3.57-1.02,5.6-2.17,2.75-1.56,5.17-3,7.18-4.23,4.04-2.47,6.4-4.09,6.4-4.09h.05l-.02,3.12c-2.53,1.69-12.71,8.74-19.33,9.56-6.61.81-15.54-1.98-15.54-1.98.24-1.02.47-2.05.71-3.09l6.34,2.09s3.38,1.89,8.6.79Z"/>
      <path class="cls-9" d="m128.95,92.54l-.03,4.69c-2.23,2.72-3.56,5.23-3.38,7.14.03.28.07.6.14.96l-7.53.81-3.88.41h0l.35-3.02-8.17.75-11.29-1.27.33,1.87-2.45-.51c.36-1.39.72-2.81,1.06-4.26,0,0,8.93,2.79,15.54,1.98,6.61-.82,16.8-7.86,19.33-9.56Z"/>
      <path class="cls-1" d="m122.46,93.42l.06.09c-2.01,1.23-4.43,2.67-7.18,4.23-2.03,1.15-3.91,1.81-5.6,2.17,1.8-1.55,7.29-13.17,11.99-23.6,0,0,1.01,9.81.73,17.11Z"/>
      <path class="cls-1" d="m121.52,36.05c1.88,3.2,3.57,6.01,4.7,7.73-3.08,8.67-6.46,19.29-10.7,27.84l-10.11-27.22c1.92-.22,3.63-.46,5.19-.74l.03.12,5.96,13.57s4.05-13.4,3.38-18.33c.65-.85,1.16-1.83,1.55-2.98Z"/>
      <path class="cls-6" d="m119.97,39.03c.66,4.93-3.38,18.33-3.38,18.33l-5.96-13.57-.03-.12c4.48-.85,7.48-2.16,9.37-4.64Z"/>
      <path class="cls-7" d="m119.99,9.64l-.78.47-.58.29c-.78,0-2.18.42-3.33.97-5.46-5.39-9.31-9.41-9.31-9.41l-.07-1.45c.98-.04,1.93,0,2.87.12,4.65.64,8.1,5.02,11.2,9Z"/>
      <path class="cls-1" d="m105.42,44.41l10.11,27.22c-1.04,2.11-2.14,4.08-3.3,5.88-2.43-2.86-4.61-13.96-5.83-22.58-.72-5.12-1.1-9.36-.98-10.51Z"/>
      <polygon class="cls-9" points="114.61 103.53 114.26 106.55 114.22 106.96 106.44 104.28 114.61 103.53"/>
      <path class="cls-7" d="m108.44,14.04s0,0,0,0c.02.11.11.19.26.24,0,0,.02,0,.02,0l.52.48c-.73.59-13.22,1.32-18.52,1.03,0-.12,0-6.24,1.77-9.44,1.5-2.72,7.66-5.63,13.45-5.85l.07,1.45s3.85,4.01,9.31,9.41c-.79.37-1.48.81-1.73,1.21-.05-.03-.1-.04-.15-.07,0,0-4.22.09-4.91,1.24-.07.11-.09.21-.09.28Z"/>
      <path class="cls-9" d="m109.96,108.86c1.03.12-1.86.24-3.96-.45-.6-.2.39-3.51.39-3.51l3.57,3.96Z"/>
      <polygon class="cls-9" points="106.44 104.28 100.92 110.35 97.25 109.93 106.44 104.28"/>
      <path class="cls-1" d="m106.44,104.28l-9.19,5.65,3.67.41,1.23,1.48c-3.93,2.8-8.79,7.65-8.12,13.89.81,7.6,2.43,14.94,3.75,15.53l-10.8-.66-4.85-2.43c-3.83-1.92-5.04-7.58-5.39-11.13-.09-.95-.12-1.74-.12-2.28l.35-.94c2.51.92,5.63,1.32,9.35.47,2-4.16,4.51-11.5,6.72-19.9l2.45.51.31,1.79,10.65-2.39Z"/>
      <polygon class="cls-9" points="106.44 104.28 95.79 106.67 95.48 104.88 95.15 103.01 106.44 104.28"/>
      <path class="cls-10" d="m62.73,77.12s9.68-13.7,13.01-18.29c5.73-7.93,16.03-18.95,19.36-19.17,1.67,3.11,4.36,5.34,8.7,4.92.55-.05,1.09-.11,1.61-.16-.11,1.16.27,5.39.98,10.51l-.38.05s-3.51-1.58-4.61-2.29c-1.1-.71-4.9,2.68-7.49,4.66l-.36-.09c-.13.99-.63,4.77-1.26,9.07-.49,3.37-1.06,7.05-1.61,9.97,0,0,0,.02,0,.03-.48,2.62-.94,4.61-1.29,5.2-1.31,2.2-12.78,21.6-20.93,27.77-8.15,6.17-18.07,11.89-20.93,13.44s-5.73,1.55-5.73,1.55c0,0-.9-4.1-1.86-9.16-1.23-6.43-2.57-14.4-2.32-17.41l1.54-4.95s7.72-6.4,12.34-9.04,11.24-6.61,11.24-6.61Z"/>
      <path class="cls-1" d="m101.25,62.94l3.75,22.33-1.56,5.07h-1.61c.11-10.76-.57-27.4-.57-27.4Z"/>
      <path class="cls-1" d="m101.82,90.34c-.04,4.51-.23,7.99-.67,8.78l-6.34-2.09c2.66-12.09,4.27-25.08,2.68-33.58.28-.09.56-.15.85-.16.98-.05,1.99-.18,2.91-.35,0,0,.68,16.63.57,27.4Z"/>
      <path class="cls-10" d="m97.48,63.45c1.59,8.5-.03,21.48-2.68,33.58-.23,1.04-.47,2.07-.71,3.09-.35,1.44-.7,2.87-1.06,4.26-2.2,8.41-4.71,15.74-6.72,19.9-3.72.85-6.84.46-9.35-.47-5.23-1.92-7.85-6.15-7.85-6.15,5.22-2.62,20.99-28.43,21.57-41.34,0,0,0-.02,0-.03.54-2.92,1.11-6.6,1.61-9.97l.45.06c1.04,0,2.73-2.3,4.74-2.94Z"/>
      <path class="cls-2" d="m89.39,81.53c.35-.59.8-2.58,1.29-5.2-.58,12.9-16.35,38.72-21.57,41.34-5.29,2.64-17.39,5.29-21.58,5.07,2.87-1.55,12.78-7.27,20.93-13.44,8.16-6.17,19.62-25.57,20.93-27.77Z"/>
      <path class="cls-1" d="m82.13,138.16l-.88-.44-16.97.17c1.8-.29,3.38-1.33,4.83-2.69.05-.04.09-.09.15-.14,2.62-2.49,4.88-5.99,7.48-8.03.35,3.55,1.55,9.21,5.39,11.13Z"/>
      <path class="cls-10" d="m76.96,123.81l-.35.94c0,.54.03,1.33.12,2.28-2.61,2.04-4.86,5.53-7.48,8.03,2.17-2.44-.15-17.39-.15-17.39,0,0,2.62,4.22,7.85,6.15Z"/>
      <path class="cls-10" d="m69.11,117.67s2.31,14.95.15,17.39c-.05.05-.09.09-.15.14-1.46,1.36-3.03,2.4-4.83,2.69l-4.85.05s-13.22-1.55-19.61-1.55-9.25-7.27-10.13-11.02c-.64-2.69-1.85-6.87-2.47-9-.21-.72.26-1.45,1-1.56.63-.09,1.23-.33,1.74-.67,0,0,6.35,1.97,9.98.98.97,5.06,1.86,9.16,1.86,9.16,0,0,2.87,0,5.73-1.55,4.19.22,16.29-2.43,21.58-5.07Z"/>
      <path class="cls-10" d="m39.93,115.12c-3.63.98-9.98-.98-9.98-.98.22-.14.41-.29.6-.47.64-.6,1.09-1.38,1.27-2.28l.93-4.51,4.85-9.16c-.25,3.01,1.1,10.98,2.32,17.41Z"/>
    </g>
    <g>
      <path class="cls-12" d="m90.72,15.81c-.15,3.89.6,8.78,1.48,10.54.17,2.83.54,8.93,2.91,13.3,1.67,3.11,4.36,5.34,8.7,4.92.55-.05,1.09-.11,1.61-.16,1.92-.22,3.63-.46,5.19-.74,4.48-.85,7.48-2.16,9.37-4.64.65-.85,1.16-1.83,1.55-2.98"/>
      <path class="cls-12" d="m150.6,46.95c1.07-.6,2.14-1.23,3.19-1.81,1.4-.79,2.75-1.49,4.01-1.92,1.04-.35,1.28-1.72.42-2.41-7.64-6.15-31.18-23.26-34.73-26.94-1.15-1.19-2.3-2.68-3.5-4.22-3.1-3.99-6.54-8.36-11.2-9-.93-.13-1.89-.16-2.87-.12-5.79.22-11.95,3.13-13.45,5.85-1.76,3.2-1.77,9.32-1.77,9.44,5.31.29,17.79-.44,18.52-1.03"/>
      <path class="cls-12" d="m108.72,14.3l.52.48.29.27s6.73,12.04,11.99,21c1.88,3.2,3.57,6.01,4.7,7.73.7,1.07,1.19,1.73,1.37,1.81.45-.22,1-.54,1.62-.91,1.48-.87,3.37-2.09,5.11-3.25,1.55-1.04,3-2.03,4-2.71.09-.06.18-.11.28-.15.65-.24,1.4.09,1.61.79.4,1.24.84,3.02.75,4.62-.15,2.79.59,6.76,5.44,4.99,1.36-.49,2.78-1.23,4.2-2.02"/>
      <line class="cls-12" x1="108.44" y1="14.05" x2="108.7" y2="14.29"/>
      <line class="cls-12" x1="99.75" y1="6.08" x2="108.44" y2="14.04"/>
      <path class="cls-12" d="m106,1.97s3.85,4.01,9.31,9.41c.22.22.46.45.69.68,9.95,9.8,24.69,23.62,31.44,26.49"/>
      <path class="cls-12" d="m113.93,13.13s.05.05.14.16c1.89,2.13,22.11,24.84,24.51,25.27"/>
      <path class="cls-12" d="m99.83,22.98s.29,9.25,0,9.84,0,1.32,2.06.59"/>
      <path class="cls-12" d="m106,29.44s5.14,6.47,9.25,7.05"/>
      <path class="cls-12" d="m99.74,36.49s.79.88,0,2.05"/>
      <path class="cls-12" d="m102.33,37.52c1.98,0,4.19-1.23,5.43-2.47"/>
      <path class="cls-12" d="m104.09,24.96s3.96-.66,5.58-1.99"/>
      <path class="cls-12" d="m93.81,28.35s2.8-.38,3.53-1.7"/>
      <path class="cls-12" d="m104.09,20.26s3.38-1.55,4.41-1.55"/>
      <line class="cls-12" x1="95.57" y1="22.1" x2="92.48" y2="22.1"/>
      <path class="cls-12" d="m110.63,43.79l5.96,13.57s4.05-13.4,3.38-18.33h0"/>
      <path class="cls-12" d="m235.52,120.97c4.51,1.05,9.03,4.64,9.03,4.64l-32.17,18.52h-16.75l-13.22,6.17-2.96-1.02-11.8-4.06-5.96,3.75-5.29-3.52-49.81-.44-8.81-3.75-10.8-.66-4.85-2.43-.88-.44-16.97.17-4.85.05s-13.22-1.55-19.61-1.55-9.25-7.27-10.13-11.02c-.64-2.69-1.85-6.87-2.47-9-.21-.72.26-1.45,1-1.56.63-.09,1.23-.33,1.74-.67.22-.14.41-.29.6-.47.64-.6,1.09-1.38,1.27-2.28l.93-4.51,4.85-9.16,1.54-4.95s7.72-6.4,12.34-9.04,11.24-6.61,11.24-6.61c0,0,9.68-13.7,13.01-18.29,5.73-7.93,16.03-18.95,19.36-19.17"/>
      <path class="cls-12" d="m153.79,45.14l7.6,7.77,1.18,1.22s10.88,31.45,14.1,34.09c3.24,2.64,3.56,3.46,3.56,3.46,0,0,22.01-9.05,23.77-9.63.61-.2,1.1-.41,1.53-.42.83-.03,1.5.62,2.66,3.22,1.77,3.96,1.99,9.69,1.99,9.69,0,0,7.65-.48,11.7-.22.72.04,1.32.11,1.75.22,2.87.66,7.49,4.19,8.37,6.61.87,2.4,3.26,14.97,2.44,19.48,0,.04,0,.09-.02.13.35.05.69.11,1.04.2"/>
      <path class="cls-12" d="m90.68,76.33c-.48,2.62-.94,4.61-1.29,5.2-1.31,2.2-12.78,21.6-20.93,27.77-8.15,6.17-18.07,11.89-20.93,13.44s-5.73,1.55-5.73,1.55c0,0-.9-4.1-1.86-9.16-1.23-6.43-2.57-14.4-2.32-17.41"/>
      <path class="cls-12" d="m89.03,54.85c4.33.47,3.76.85,4.56,2.16,0,0,0,.09-.03.25-.13.99-.63,4.77-1.26,9.07-.49,3.37-1.06,7.05-1.61,9.97"/>
      <path class="cls-12" d="m70.89,97.83s-13.22,7.05-18.29,7.49"/>
      <path class="cls-12" d="m62.73,77.12s-3.31,10.13-9.25,13.22"/>
      <path class="cls-12" d="m90.7,75.85c0,.15,0,.3,0,.46,0,0,0,.02,0,.03-.58,12.9-16.35,38.72-21.57,41.34-5.29,2.64-17.39,5.29-21.58,5.07"/>
      <path class="cls-12" d="m93.92,57.35c2.59-1.99,6.39-5.37,7.49-4.66,1.1.71,4.61,2.29,4.61,2.29,0,0-.16,1.66-.39,3.36-.21,1.57-.47,3.19-.72,3.56-.17.27-1.74.73-3.67,1.05-.92.16-1.93.29-2.91.35-.29.02-.58.08-.85.16-2.01.65-3.7,2.95-4.74,2.94"/>
      <path class="cls-12" d="m101.17,54.85c.25,1.14,1.42,1.72,4.7,1.42"/>
      <line class="cls-12" x1="102.99" y1="58.27" x2="105.63" y2="58.33"/>
      <line class="cls-12" x1="102.96" y1="60" x2="105.36" y2="60.06"/>
      <polyline class="cls-12" points="129.22 44.63 129.22 44.7 129.14 59.46 128.97 89.42 128.95 92.54 128.93 97.23"/>
      <path class="cls-12" d="m156.25,64.41c-.77,4.26-2.74,9.83-7.34,15-1.59,1.78-3.48,3.51-5.73,5.13-2.12,1.52-4.27,3.18-6.31,4.89-3.08,2.58-5.9,5.28-7.94,7.8-2.23,2.72-3.56,5.23-3.38,7.14.03.28.07.6.14.96.9,5.02,5.44,17.44,8.64,21.91.56.79,1.08,1.32,1.54,1.53.65.29,1.86.54,3.4.74,1.29.16,2.79.29,4.36.41,2.68.19,5.55.3,7.88.36,2.75.09,4.75.1,4.75.1,2.11,2.28,4.28,3.55,7.94,4.46,1.68.41,3.69.76,6.17,1.09,1.46.21,3.07.41,4.88.61.03,0,.08,0,.11,0,11.61,1.32,19.69,5,26.74,4.7,7.05-.29,14.21-7.19,14.21-7.19,0,0,.19-.6-1.42-4.71-1.17-3-6.01-10.42-9.35-15.21-1.25-1.79-2.29-3.21-2.85-3.89-1.97-2.39-7.44-2.09-14.35-2.83-.3-.03-.61-.07-.92-.1-7.35-.88-20.72-1.76-27.62-3.82-6.91-2.05-13.22-4.99-15.57-5.65"/>
      <path class="cls-12" d="m132.03,101.73c3.36,1.91,13.65,16.01,16.43,17.19,1.23.52,4.45,1.25,7.67,3,4.04,2.19,8.05,5.97,8.05,12.91"/>
      <path class="cls-12" d="m156.13,121.94c-1.86.03-4.01.66-6.64,1.86-2.81,1.27-6.16,3.19-10.23,5.7"/>
      <polyline class="cls-12" points="149.49 123.8 151.5 130.27 151.5 130.28"/>
      <path class="cls-12" d="m170.34,135.93s0,0,.02,0c10.89-2.61,38.83-5.58,45.94-1.86"/>
      <path class="cls-12" d="m205.53,114.14c6.53,1.02,23.53,4.88,28.91,6.48.41.12.77.23,1.03.33.03,0,.04,0,.06.02"/>
      <polyline class="cls-12" points="188.31 107.41 188.32 107.41 190.56 106.57 209.95 99.3 216.31 100.7 221.87 94.31"/>
      <path class="cls-12" d="m180.23,91.67s3.28,12.18,10.33,14.9"/>
      <path class="cls-12" d="m134.33,41.44c.76,3.72,2.68,32.22,2.53,38.83s0,9.15,0,9.15"/>
      <path class="cls-12" d="m143.91,52.9c.59,3.27-.73,31.64-.73,31.64"/>
      <path class="cls-12" d="m150.6,46.95h0c-.04.5-1.7,19.57-1.7,23.34v9.12"/>
      <line class="cls-12" x1="105.42" y1="44.41" x2="115.52" y2="71.63"/>
      <path class="cls-12" d="m129.22,59.27s-.03.07-.09.2c-.55,1.29-3.73,8.7-7.41,16.85-4.7,10.43-10.19,22.05-11.99,23.6-.03.03-.04.03-.06.05"/>
      <path class="cls-12" d="m105.42,44.41c-.11,1.16.27,5.39.98,10.51,1.22,8.62,3.39,19.72,5.83,22.58"/>
      <path class="cls-12" d="m97.48,63.45c1.59,8.5-.03,21.48-2.68,33.58-.23,1.04-.47,2.07-.71,3.09-.35,1.44-.7,2.87-1.06,4.26-2.2,8.41-4.71,15.74-6.72,19.9-3.72.85-6.84.46-9.35-.47-5.23-1.92-7.85-6.15-7.85-6.15,0,0,2.31,14.95.15,17.39"/>
      <path class="cls-12" d="m101.25,62.94l3.75,22.33c2.67-1.67,5.06-4.38,7.23-7.77,1.16-1.8,2.26-3.77,3.3-5.88,4.25-8.55,7.62-19.16,10.7-27.84,0-.03.03-.06.03-.09"/>
      <path class="cls-12" d="m94.09,100.12s8.93,2.79,15.54,1.98c6.61-.82,16.8-7.86,19.33-9.56"/>
      <polyline class="cls-12" points="125.68 105.32 118.16 106.14 114.27 106.55"/>
      <line class="cls-12" x1="93.03" y1="104.38" x2="95.48" y2="104.88"/>
      <polygon class="cls-12" points="106.44 104.28 95.79 106.67 95.48 104.88 95.15 103.01 106.44 104.28"/>
      <polygon class="cls-12" points="106.44 104.28 114.61 103.53 114.26 106.55 114.22 106.96 106.44 104.28"/>
      <polyline class="cls-12" points="106.44 104.28 97.25 109.93 100.92 110.35 106.44 104.28"/>
      <path class="cls-12" d="m106.39,104.9l3.57,3.96c1.03.12-1.86.24-3.96-.45-.6-.2.39-3.51.39-3.51Z"/>
      <path class="cls-12" d="m104.51,110.31c-.7.41-1.5.91-2.36,1.53-3.93,2.8-8.79,7.65-8.12,13.89.81,7.6,2.43,14.94,3.75,15.53"/>
      <path class="cls-12" d="m76.62,124.75c0,.54.03,1.33.12,2.28.35,3.55,1.55,9.21,5.39,11.13"/>
      <path class="cls-12" d="m76.74,127.03c-2.61,2.04-4.86,5.53-7.48,8.03-.05.05-.09.09-.15.14-1.46,1.36-3.03,2.4-4.83,2.69"/>
      <path class="cls-12" d="m29.96,114.14s6.35,1.97,9.98.98"/>
      <path class="cls-12" d="m156.39,145.44s-10.35-8.55-12.78-15.53"/>
      <path class="cls-12" d="m167.64,145.21s5.68-6.97,7.27-7.74c.07-.03.15-.04.22-.03,1.62.36,4.31,11.83,4.31,11.83"/>
      <path class="cls-12" d="m113.43,12.52c-1.43,1.36-3.88,2.02-4.71,1.79,0,0,0,0-.02,0-.15-.05-.24-.13-.26-.24,0,0,0,0,0,0,0-.08.02-.17.09-.28.69-1.15,4.91-1.24,4.91-1.24Z"/>
      <path class="cls-12" d="m113.53,12.65s.03-.04.05-.07c.25-.4.93-.84,1.73-1.21,1.15-.54,2.56-.97,3.33-.97.3,0,.51.07.57.21.18.43-1.6,1.01-3.21,1.44-1.02.28-1.98.49-2.33.56-.09.03-.14.03-.14.03Z"/>
      <path class="cls-12" d="m113.53,12.65s-.98,2.81-1.04,3.86"/>
      <path class="cls-12" d="m113.43,12.52s.09.04.15.07c.03,0,.05.03.09.03.17.09.36.17.58.26,1.51.66,3.79,1.61,4.25,2.25"/>
      <line class="cls-12" x1="119.22" y1="10.12" x2="119.99" y2="9.64"/>
      <path class="cls-12" d="m134.33,41.44c1.57,1.55,1.57,2.8,6.64,2.55"/>
      <path class="cls-12" d="m161.38,52.9c27.19,22.23,40.51,22.61,44.14,28.71"/>
      <path class="cls-12" d="m101.25,62.94s.68,16.63.57,27.4c-.04,4.51-.23,7.99-.67,8.78"/>
      <polyline class="cls-12" points="101.81 90.34 101.82 90.34 103.43 90.34 104.99 85.27"/>
      <path class="cls-12" d="m118.2,106.57c.44,3.97,8.89,22.5,16.12,20.66h0"/>
      <path class="cls-12" d="m121.73,76.31s1.01,9.81.73,17.11"/>
      <path class="cls-12" d="m94.8,97.03l6.34,2.09s3.38,1.89,8.6.79c1.69-.35,3.57-1.02,5.6-2.17,2.75-1.56,5.17-3,7.18-4.23,4.04-2.47,6.4-4.09,6.4-4.09"/>
      <line class="cls-12" x1="209.95" y1="99.3" x2="210.17" y2="94.53"/>
    </g>
  </g>
</svg>