<?xml version="1.0" encoding="UTF-8"?>
<svg id="_レイヤー_1" data-name="レイヤー 1" xmlns="http://www.w3.org/2000/svg" viewBox="0 0 252.86 174.52">
  <defs>
    <style>
      .cls-1 {
        fill: #79a081;
      }

      .cls-1, .cls-2, .cls-3, .cls-4, .cls-5, .cls-6, .cls-7 {
        stroke-width: 0px;
      }

      .cls-2 {
        fill: #8f4544;
      }

      .cls-3 {
        fill: #bd957c;
      }

      .cls-8 {
        fill: none;
        stroke: #000;
        stroke-linecap: round;
        stroke-linejoin: round;
      }

      .cls-4 {
        fill: #f4d3b9;
      }

      .cls-5 {
        fill: #fadeac;
      }

      .cls-6 {
        fill: #f5f1d8;
      }

      .cls-7 {
        fill: #ccb2bd;
      }
    </style>
  </defs>
  <g>
    <path class="cls-7" d="m226.08,109.18l-6.45,7.4-7.36-1.62.26-5.53s8.86-.56,13.55-.25Z"/>
    <path class="cls-7" d="m212.53,109.43l-.26,5.53-22.47,8.42c-8.17-3.15-11.96-17.27-11.96-17.27,0,0,25.5-10.47,27.54-11.15.71-.23,1.26-.47,1.77-.49.96-.03,1.75.73,3.08,3.72,2.04,4.6,2.3,11.24,2.3,11.24Z"/>
    <path class="cls-7" d="m207.15,94.47c-.51.02-1.06.26-1.77.49-2.04.68-27.54,11.15-27.54,11.15,0,0-.38-.94-4.12-4-3.75-3.07-16.34-39.49-16.34-39.49l-1.37-1.4c31.5,25.74,46.92,26.17,51.14,33.25Z"/>
    <path class="cls-7" d="m189.8,123.38l22.47-8.42,7.36,1.62,6.45-7.4c.83.05,1.52.13,2.02.25,3.32.76,8.68,4.85,9.7,7.66,1.01,2.78,3.78,17.33,2.83,22.57-6.22-1.86-25.92-6.33-33.48-7.51-1.45-2.07-2.65-3.72-3.3-4.51-2.29-2.77-8.63-2.42-16.64-3.28h0s2.59-.98,2.59-.98Z"/>
    <path class="cls-7" d="m149.94,141.16l-.02.03c-2.15.04-4.65.77-7.69,2.15-3.27,1.47-7.14,3.69-11.85,6.6h0c-1.78-.22-3.2-.51-3.95-.85-.52-.24-1.12-.86-1.77-1.77-3.7-5.16-8.97-19.56-10.02-25.38-.08-.42-.13-.79-.16-1.11-.2-2.22,1.35-5.12,3.92-8.27,2.38-2.92,5.64-6.05,9.2-9.04,2.36-1.99,4.85-3.91,7.31-5.67,2.61-1.87,4.8-3.88,6.64-5.94h0v-10.57c0-4.42,1.96-27.03,1.96-27.03,1.24-.7,2.48-1.43,3.69-2.11l8.8,9.01h.01s1.37,1.41,1.37,1.41c0,0,12.59,36.42,16.34,39.49,3.74,3.06,4.12,4,4.12,4,0,0,3.79,14.12,11.96,17.27l-2.59.97h0c8.01.87,14.35.52,16.64,3.29.65.79,1.85,2.44,3.3,4.51,3.86,5.54,9.46,14.15,10.82,17.62,1.88,4.76,1.65,5.46,1.65,5.46-8.23-4.3-40.62-.87-53.24,2.16h0c-2.86-.38-5.18-.78-7.13-1.27,0-8.03-4.64-12.41-9.31-14.96Z"/>
    <path class="cls-1" d="m176.92,172.84l-13.67-4.69s6.58-8.08,8.43-8.98c.08-.04.17-.05.26-.03,1.88.42,4.98,13.7,4.98,13.7Z"/>
    <path class="cls-2" d="m203.17,163.55c-8.17.35-17.54-3.91-30.98-5.44-.04-.01-.09-.01-.13-.01-2.11-.24-3.99-.47-5.68-.7h0c12.62-3.04,45.01-6.47,53.24-2.17,0,0-8.28,7.98-16.45,8.32Z"/>
    <path class="cls-7" d="m241.79,140.03c5.26,1.2,10.57,5.4,10.57,5.4l-37.28,21.44h-19.4l-15.32,7.15-3.44-1.18s-3.1-13.28-4.98-13.7l.12-1.04s.09,0,.13.01c13.44,1.53,22.81,5.79,30.98,5.44,8.17-.34,16.45-8.32,16.45-8.32,0,0,.23-.7-1.65-5.46-1.36-3.47-6.96-12.08-10.82-17.62,7.56,1.18,27.26,5.65,33.48,7.51,0,.05-.01.1-.02.15.39.05.78.13,1.18.22Z"/>
    <path class="cls-6" d="m144.55,150.84c3.2.1,5.51.12,5.51.12,2.44,2.64,4.95,4.1,9.19,5.16,1.95.49,4.27.89,7.13,1.28,1.69.23,3.57.46,5.68.7l-.12,1.04c-.09-.02-.18-.01-.26.03-1.85.9-8.43,8.98-8.43,8.98l-6.89,4.34-6.13-4.08s-12-9.9-14.81-17.99c3.1.22,6.43.35,9.13.42Z"/>
    <path class="cls-2" d="m159.25,156.12c-4.24-1.06-6.75-2.52-9.19-5.16,0,0-2.31-.02-5.51-.12l-2.32-7.5c3.04-1.38,5.54-2.11,7.69-2.15l.02-.03c4.67,2.55,9.31,6.93,9.31,14.96Z"/>
    <path class="cls-2" d="m142.23,143.34l2.32,7.5c-2.7-.07-6.03-.2-9.13-.42-1.82-.13-3.56-.28-5.04-.47h0c4.71-2.92,8.58-5.14,11.85-6.61Z"/>
    <path class="cls-7" d="m134.91,97.85c-2.46,1.76-4.95,3.68-7.31,5.67,0,0-.18-2.94-.01-10.6s-2.04-40.68-2.93-44.99c1.82,1.78,1.82,3.24,7.7,2.94-.17,3.24.68,7.83,6.29,5.79,1.57-.57,3.22-1.43,4.86-2.35,0,0-1.96,22.61-1.96,27.03v10.56h0c-1.84,2.07-4.03,4.08-6.64,5.95Z"/>
    <path class="cls-3" d="m129.62,44.62c.75-.27,1.61.11,1.86.91.46,1.43.97,3.5.88,5.34-5.88.3-5.88-1.16-7.7-2.94,1.8-1.2,3.48-2.35,4.63-3.14.11-.07.22-.13.33-.17Z"/>
    <path class="cls-7" d="m118.64,68.81l.1-17.1c1.72-1.03,3.9-2.44,5.92-3.78.89,4.31,3.1,37.33,2.93,44.99s.01,10.6.01,10.6c-3.56,2.99-6.82,6.12-9.2,9.04l.03-5.43.02-3.61.19-34.71Z"/>
    <path class="cls-6" d="m124.66,147.32c-8.38,2.15-18.18-19.34-18.69-23.94l-.05-.5,8.72-.94c1.05,5.82,6.32,20.22,10.02,25.38Z"/>
    <path class="cls-1" d="m99.05,89.7c1.35-2.07,2.62-4.37,3.83-6.8,4.91-9.9,8.83-22.2,12.4-32.26.81,1.25,1.38,2.01,1.59,2.11.51-.26,1.15-.62,1.87-1.04l-.1,17.1c-.64,1.5-4.32,10.08-8.58,19.52h0c-5.44,12.08-11.8,25.54-13.89,27.34-6.05,1.27-9.96-.92-9.96-.92.51-.91.73-4.94.78-10.17h1.88l1.8-5.88c3.09-1.93,5.86-5.08,8.38-9Z"/>
    <path class="cls-6" d="m118.64,68.81l-.19,34.71h-.05s-2.74,1.88-7.42,4.74l-.07-.11c.32-8.29-.8-19.37-.85-19.81h0c4.26-9.45,7.94-18.03,8.58-19.53Z"/>
    <path class="cls-1" d="m110.91,108.15l.07.11c-2.32,1.43-5.13,3.1-8.32,4.9-2.35,1.33-4.53,2.1-6.49,2.51,2.09-1.8,8.45-15.26,13.89-27.33.05.44,1.17,11.52.85,19.81Z"/>
    <path class="cls-1" d="m109.82,41.68c2.18,3.71,4.14,6.95,5.46,8.96-3.57,10.06-7.49,22.36-12.4,32.26l-11.71-31.54c2.22-.25,4.22-.53,6.01-.87l.03.16,6.89,15.71s4.7-15.53,3.93-21.23c.74-.98,1.33-2.12,1.79-3.45Z"/>
    <path class="cls-4" d="m108.03,45.13c.77,5.7-3.93,21.23-3.93,21.23l-6.89-15.71-.03-.16c5.19-.97,8.66-2.48,10.85-5.36Z"/>
    <path class="cls-5" d="m129.6,44.58c-2.84-.49-26.98-27.67-28.49-29.37l.18-.4c-.21-.1-.41-.19-.58-.27.39-.07,1.52-.33,2.73-.65,1.86-.5,3.92-1.18,3.7-1.68-.07-.16-.3-.23-.65-.23l.67-.34.89-.55h.01c1.39,1.79,2.71,3.51,4.04,4.89,4.11,4.26,31.39,24.08,40.24,31.21.99.8.71,2.38-.49,2.79-1.45.49-3.02,1.31-4.65,2.22-1.21.68-2.45,1.41-3.69,2.11-1.64.92-3.29,1.78-4.86,2.35-5.61,2.04-6.46-2.55-6.29-5.79.09-1.84-.42-3.91-.88-5.34-.25-.8-1.11-1.18-1.86-.91l-.02-.04Z"/>
    <path class="cls-1" d="m91.17,51.36l11.71,31.54c-1.21,2.43-2.48,4.73-3.83,6.8-2.81-3.32-5.33-16.11-6.73-26.09-.84-5.96-1.28-10.91-1.15-12.25Z"/>
    <polygon class="cls-6" points="101.82 119.86 101.42 123.36 101.37 123.83 92.35 120.73 101.82 119.86"/>
    <path class="cls-4" d="m79.22,45.86c-2.74-5.06-3.17-12.13-3.37-15.41-1.03-2.04-1.89-7.7-1.72-12.21,6.15.34,20.61-.51,21.46-1.19l.34.31s7.8,13.94,13.89,24.32c-.46,1.33-1.05,2.47-1.79,3.45-2.19,2.88-5.66,4.39-10.85,5.36-1.79.34-3.79.62-6.01.87-.61.06-1.24.13-1.88.19-5.02.5-8.13-2.09-10.07-5.69Z"/>
    <path class="cls-5" d="m101.11,15.21c1.51,1.7,25.65,28.88,28.49,29.37l.02.04c-.11.04-.22.1-.33.17-1.15.79-2.83,1.94-4.63,3.14-2.02,1.34-4.2,2.75-5.92,3.78-.72.42-1.36.78-1.87,1.04-.21-.1-.78-.86-1.59-2.11-1.32-2.01-3.28-5.25-5.46-8.96-6.09-10.38-13.89-24.32-13.89-24.32l-.34-.31-.62-.57c.94.29,3.81-.47,5.48-2.06.05.03.11.05.17.08-.02.02-.03.05-.04.07,0,0,0,.01,0,.01h0s.06-.02.13-.04c.17.08.37.17.58.27l-.18.4Z"/>
    <path class="cls-5" d="m95.59,17.05c-.85.68-15.31,1.53-21.46,1.19,0-.14.01-7.24,2.06-10.94,1.74-3.15,8.87-6.52,15.58-6.78l.08,1.67s4.46,4.65,10.78,10.9c-.92.44-1.71.95-2.01,1.41-.06-.03-.12-.05-.17-.08,0,0-4.89.11-5.69,1.44-.08.13-.11.24-.1.33,0,.01.01.01.01.01.02.13.13.22.3.28l.62.57Z"/>
    <path class="cls-5" d="m91.77.52c1.13-.05,2.24,0,3.31.14,5.4.74,9.39,5.81,12.98,10.43h-.01l-.89.55-.67.34c-.89,0-2.52.49-3.86,1.11-6.32-6.25-10.78-10.9-10.78-10.9l-.08-1.67Z"/>
    <path class="cls-1" d="m91.41,67.49c.12-.86.22-1.71.29-2.39.08-.7.13-1.23.15-1.42l.47-.07c1.4,9.98,3.92,22.77,6.73,26.09-2.52,3.92-5.29,7.07-8.38,9l-4.34-25.86c2.24-.37,4.06-.91,4.26-1.22.28-.43.58-2.31.82-4.13Z"/>
    <polygon class="cls-6" points="92.35 120.73 85.96 127.76 81.71 127.28 92.35 120.73"/>
    <polygon class="cls-6" points="92.35 120.73 80.02 123.49 79.65 121.43 79.27 119.25 92.35 120.73"/>
    <path class="cls-6" d="m91.84,125.51c-.69-.22.46-4.06.46-4.06l4.14,4.58c1.19.14-2.16.29-4.6-.52Z"/>
    <path class="cls-6" d="m86.21,114.75s3.91,2.19,9.96.92c1.96-.41,4.14-1.18,6.49-2.51,3.19-1.8,6-3.47,8.32-4.9,4.68-2.86,7.42-4.74,7.42-4.74h.05l-.02,3.61c-2.92,1.96-14.73,10.12-22.39,11.06-7.66.95-18-2.28-18-2.28.28-1.18.56-2.38.82-3.58l7.35,2.42Z"/>
    <path class="cls-1" d="m86.33,72.84l4.34,25.86-1.8,5.88h-1.88c.14-12.47-.66-31.74-.66-31.74Z"/>
    <path class="cls-4" d="m82.96,73.23c-.34.02-.67.09-.99.2-2.33.76-4.28,3.41-5.49,3.4l-.51-.08c.73-4.97,1.3-9.35,1.45-10.49l.42.1c3.01-2.3,7.41-6.22,8.68-5.4,1.28.82,5.34,2.64,5.34,2.64,0,0,0,.03-.01.08-.02.19-.07.72-.15,1.42-.07.68-.17,1.53-.29,2.39-.24,1.82-.54,3.7-.82,4.13-.2.31-2.02.85-4.26,1.22-1.07.18-2.24.33-3.37.39Z"/>
    <path class="cls-1" d="m85.96,127.76l6.39-7.03,9.02,3.1.05-.47,4.5-.48.05.5c.51,4.6,10.31,26.09,18.69,23.94.65.91,1.25,1.53,1.77,1.77.75.34,2.17.63,3.95.86,1.48.19,3.22.34,5.04.47,2.81,8.09,14.81,17.99,14.81,17.99l-57.7-.51-10.22-4.35c-1.53-.68-3.4-9.19-4.34-17.98-.76-7.23,4.86-12.85,9.41-16.1l-1.42-1.71Zm6.34-6.31s-1.15,3.84-.46,4.06c2.44.81,5.79.66,4.6.52l-4.14-4.58Z"/>
    <path class="cls-1" d="m86.99,104.58c-.05,5.23-.27,9.26-.78,10.17l-7.35-2.42c3.09-14.01,4.96-29.06,3.11-38.9.32-.11.65-.18.99-.2,1.13-.06,2.3-.21,3.37-.39,0,0,.8,19.27.66,31.74Z"/>
    <path class="cls-1" d="m57.94,147.1c-.11-1.11-.14-2.03-.14-2.65l.4-1.09c2.92,1.07,6.53,1.53,10.84.54,2.31-4.82,5.23-13.32,7.77-23.06l2.84.59.37,2.06,12.33-2.76-10.64,6.55,4.25.48,1.42,1.71c-4.55,3.25-10.17,8.87-9.41,16.1.94,8.79,2.81,17.3,4.34,17.98l-12.51-.76-5.61-2.81c-4.43-2.22-5.85-8.77-6.25-12.88Z"/>
    <path class="cls-6" d="m76.81,120.84c.43-1.61.84-3.26,1.23-4.93,0,0,10.34,3.23,18,2.28,7.66-.94,19.47-9.1,22.39-11.06l-.03,5.43c-2.57,3.15-4.12,6.05-3.92,8.27.03.32.08.69.16,1.11l-8.72.94-4.5.48.4-3.5-9.47.87-13.08-1.48.38,2.18-2.84-.59Z"/>
    <path class="cls-7" d="m77.42,66.26c-.15,1.14-.72,5.52-1.45,10.49-.58,3.94-1.25,8.26-1.88,11.66-.56,3-1.09,5.28-1.49,5.95-1.52,2.56-14.8,25.02-24.24,32.17-9.45,7.15-20.94,13.79-24.26,15.58s-6.64,1.79-6.64,1.79c0,0-1.04-4.75-2.15-10.61-1.43-7.45-2.99-16.69-2.7-20.18l1.79-5.73s8.94-7.4,14.3-10.46c5.36-3.07,13.02-7.66,13.02-7.66,0,0,11.22-15.87,15.06-21.19,6.64-9.2,18.58-21.96,22.44-22.21,1.94,3.6,5.05,6.19,10.07,5.69.64-.06,1.27-.13,1.88-.19-.13,1.34.31,6.29,1.15,12.25l-.47.07s.01-.08.01-.08c0,0-4.06-1.82-5.34-2.64-1.27-.82-5.67,3.1-8.68,5.4l-.42-.1Z"/>
    <path class="cls-7" d="m76.48,76.83c1.21.01,3.16-2.64,5.49-3.4,1.85,9.84-.02,24.89-3.11,38.9-.26,1.2-.54,2.4-.82,3.58-.39,1.67-.8,3.32-1.23,4.93-2.54,9.74-5.46,18.24-7.77,23.06-4.31.99-7.92.53-10.84-.54-6.06-2.23-9.09-7.12-9.09-7.12,6.04-3.03,24.27-32.87,24.98-47.83.63-3.4,1.3-7.72,1.88-11.66l.51.08Z"/>
    <path class="cls-2" d="m72.6,94.36c.4-.67.93-2.95,1.49-5.95-.71,14.96-18.94,44.8-24.98,47.83-6.13,3.06-20.16,6.12-25.01,5.87,3.32-1.79,14.81-8.43,24.26-15.58,9.44-7.15,22.72-29.61,24.24-32.17Z"/>
    <path class="cls-1" d="m49.31,156.35c3.02-2.88,5.63-6.91,8.63-9.25.4,4.11,1.82,10.66,6.25,12.88l-1.02-.51-19.67.2c2.18-.37,4.07-1.65,5.81-3.32Z"/>
    <path class="cls-7" d="m58.2,143.36l-.4,1.09c0,.62.03,1.54.14,2.65-3,2.34-5.61,6.37-8.63,9.25,2.46-2.94-.2-20.11-.2-20.11,0,0,3.03,4.89,9.09,7.12Z"/>
    <path class="cls-7" d="m49.11,136.24s2.66,17.17.2,20.11c-1.74,1.67-3.63,2.95-5.81,3.32l-5.61.06s-15.32-1.79-22.72-1.79-10.73-8.43-11.75-12.77c-.73-3.12-2.13-7.97-2.86-10.44-.24-.83.31-1.67,1.16-1.8.74-.11,1.43-.39,2.03-.78,0,0,7.36,2.28,11.56,1.14,1.11,5.86,2.15,10.61,2.15,10.61,0,0,3.32,0,6.64-1.79,4.85.25,18.88-2.81,25.01-5.87Z"/>
    <path class="cls-7" d="m15.31,133.29c-4.2,1.14-11.56-1.14-11.56-1.14.25-.16.48-.35.7-.55.73-.69,1.26-1.61,1.47-2.65l1.08-5.22,5.61-10.62c-.29,3.49,1.27,12.73,2.7,20.18Z"/>
  </g>
  <g>
    <path class="cls-8" d="m74.13,18.24c-.17,4.51.69,10.17,1.72,12.21.2,3.28.63,10.35,3.37,15.41,1.94,3.6,5.05,6.19,10.07,5.69.64-.06,1.27-.13,1.88-.19,2.22-.25,4.22-.53,6.01-.87,5.19-.97,8.66-2.48,10.85-5.36.74-.98,1.33-2.12,1.79-3.45"/>
    <path class="cls-8" d="m94.67,16.2l.3.28.62.57.34.31s7.8,13.94,13.89,24.32c2.18,3.71,4.14,6.95,5.46,8.96.81,1.25,1.38,2.01,1.59,2.11.51-.26,1.15-.62,1.87-1.04,1.72-1.03,3.9-2.44,5.92-3.78,1.8-1.2,3.48-2.35,4.63-3.14.11-.07.22-.13.33-.17.75-.27,1.61.11,1.86.91.46,1.43.97,3.5.88,5.34-.17,3.24.68,7.83,6.29,5.79,1.57-.57,3.22-1.43,4.86-2.35,1.24-.7,2.48-1.43,3.69-2.11,1.63-.91,3.2-1.73,4.65-2.22,1.2-.41,1.48-1.99.49-2.79-8.85-7.13-36.13-26.95-40.24-31.21-1.33-1.38-2.65-3.1-4.04-4.89-3.59-4.62-7.58-9.69-12.98-10.43-1.07-.15-2.18-.19-3.31-.14-6.71.26-13.84,3.63-15.58,6.78-2.05,3.7-2.06,10.8-2.06,10.94,6.15.34,20.61-.51,21.46-1.19"/>
    <line class="cls-8" x1="84.6" y1="6.96" x2="94.66" y2="16.19"/>
    <path class="cls-8" d="m91.85,2.19s4.46,4.65,10.78,10.9c.27.26.54.53.81.8,11.53,11.35,28.59,27.36,36.41,30.69"/>
    <path class="cls-8" d="m101.04,15.13s.03.03.07.08c1.51,1.7,25.65,28.88,28.49,29.37"/>
    <path class="cls-8" d="m84.7,26.53s.34,10.73,0,11.41,0,1.53,2.38.68"/>
    <path class="cls-8" d="m91.85,34.02s5.95,7.49,10.72,8.17"/>
    <path class="cls-8" d="m84.59,42.19s.9,1.02,0,2.39"/>
    <path class="cls-8" d="m87.59,43.38c2.21-.34,5.71-1.97,7.15-3.4"/>
    <path class="cls-8" d="m89.63,28.83s4.6-.76,6.47-2.3"/>
    <path class="cls-8" d="m77.72,32.75s3.23-.43,4.08-1.96"/>
    <path class="cls-8" d="m89.63,23.38s3.92-1.78,5.11-1.78"/>
    <line class="cls-8" x1="79.76" y1="25.51" x2="76.19" y2="25.51"/>
    <path class="cls-8" d="m97.21,50.65l6.89,15.71s4.7-15.53,3.93-21.23"/>
    <path class="cls-8" d="m156.01,61.22l1.37,1.4s12.59,36.42,16.34,39.49c3.74,3.06,4.12,4,4.12,4,0,0,25.5-10.47,27.54-11.15.71-.23,1.26-.47,1.77-.49.96-.03,1.75.73,3.08,3.72,2.04,4.6,2.3,11.24,2.3,11.24,0,0,8.86-.56,13.55-.25.83.05,1.52.13,2.02.25,3.32.76,8.68,4.85,9.7,7.66,1.01,2.78,3.78,17.33,2.83,22.57,0,.05-.01.1-.02.15.39.05.78.13,1.18.22,5.26,1.2,10.57,5.4,10.57,5.4l-37.28,21.44h-19.4l-15.32,7.15-3.44-1.18-13.67-4.69-6.89,4.34-6.13-4.08-57.7-.51-10.22-4.35-12.51-.76-5.61-2.81-1.02-.51-19.67.2-5.61.06s-15.32-1.79-22.72-1.79-10.73-8.43-11.75-12.77c-.73-3.12-2.13-7.97-2.86-10.44-.24-.83.31-1.67,1.16-1.8.74-.11,1.43-.39,2.03-.78.25-.16.48-.35.7-.55.73-.69,1.26-1.61,1.47-2.65l1.08-5.22,5.61-10.62,1.79-5.73s8.94-7.4,14.3-10.46c5.36-3.07,13.02-7.66,13.02-7.66,0,0,11.22-15.87,15.06-21.19,6.64-9.2,18.58-21.96,22.44-22.21"/>
    <line class="cls-8" x1="147.2" y1="52.2" x2="156" y2="61.21"/>
    <path class="cls-8" d="m72.18,63.47c5.02.55,4.37.98,5.28,2.5,0,0-.01.1-.04.29-.15,1.14-.72,5.52-1.45,10.49-.58,3.94-1.25,8.26-1.88,11.66-.56,3-1.09,5.28-1.49,5.95-1.52,2.56-14.8,25.02-24.24,32.17-9.45,7.15-20.94,13.79-24.26,15.58s-6.64,1.79-6.64,1.79c0,0-1.04-4.75-2.15-10.61-1.43-7.45-2.99-16.69-2.7-20.18"/>
    <path class="cls-8" d="m51.17,113.26s-15.32,8.17-21.2,8.68"/>
    <path class="cls-8" d="m41.72,89.26s-3.83,11.74-10.72,15.32"/>
    <path class="cls-8" d="m74.11,87.79c0,.2-.01.41-.02.62-.71,14.96-18.94,44.8-24.98,47.83-6.13,3.06-20.16,6.12-25.01,5.87"/>
    <path class="cls-8" d="m77.84,66.36c3.01-2.3,7.41-6.22,8.68-5.4,1.28.82,5.34,2.64,5.34,2.64,0,0,0,.03-.01.08-.02.19-.07.72-.15,1.42-.07.68-.17,1.53-.29,2.39-.24,1.82-.54,3.7-.82,4.13-.2.31-2.02.85-4.26,1.22-1.07.18-2.24.33-3.37.39-.34.02-.67.09-.99.2-2.33.76-4.28,3.41-5.49,3.4"/>
    <path class="cls-8" d="m86.24,63.47c.29,1.32,1.65,1.98,5.46,1.63"/>
    <polyline class="cls-8" points="88.36 67.43 91.41 67.49 91.42 67.49"/>
    <line class="cls-8" x1="88.31" y1="69.43" x2="91.1" y2="69.5"/>
    <polyline class="cls-8" points="118.74 51.62 118.74 51.71 118.64 68.81 118.45 103.52 118.43 107.13 118.4 112.56"/>
    <path class="cls-8" d="m141.55,91.91c-1.84,2.06-4.03,4.07-6.64,5.94-2.46,1.76-4.95,3.68-7.31,5.67-3.56,2.99-6.82,6.12-9.2,9.04-2.57,3.15-4.12,6.05-3.92,8.27.03.32.08.69.16,1.11,1.05,5.82,6.32,20.22,10.02,25.38.65.91,1.25,1.53,1.77,1.77.75.34,2.17.63,3.95.86,1.48.19,3.22.34,5.04.47,3.1.22,6.43.35,9.13.42,3.2.1,5.51.12,5.51.12,2.44,2.64,4.95,4.1,9.19,5.16,1.95.49,4.27.89,7.13,1.28,1.69.23,3.57.46,5.68.7.04,0,.09,0,.13.01,13.44,1.53,22.81,5.79,30.98,5.44,8.17-.34,16.45-8.32,16.45-8.32,0,0,.23-.7-1.65-5.46-1.36-3.47-6.96-12.08-10.82-17.62-1.45-2.07-2.65-3.72-3.3-4.51-2.29-2.77-8.63-2.42-16.64-3.28-.35-.04-.71-.08-1.07-.12-8.51-1.03-24-2.05-32-4.43-8-2.38-15.32-5.79-18.04-6.55"/>
    <path class="cls-8" d="m150.06,74.53c-.89,4.94-3.19,11.38-8.51,17.37"/>
    <path class="cls-8" d="m122,117.77c3.89,2.21,15.8,18.55,19.04,19.91,1.43.6,5.18,1.46,8.9,3.48,4.67,2.55,9.31,6.93,9.31,14.96"/>
    <path class="cls-8" d="m149.92,141.19c-2.15.04-4.65.77-7.69,2.15-3.27,1.47-7.14,3.69-11.85,6.6"/>
    <polyline class="cls-8" points="142.23 143.33 142.23 143.34 144.55 150.84 144.55 150.85"/>
    <path class="cls-8" d="m166.38,157.39c12.62-3.03,45.01-6.46,53.24-2.16"/>
    <path class="cls-8" d="m207.15,132.15c7.56,1.18,27.26,5.65,33.48,7.51.47.13.86.26,1.16.37.03.01.07.02.1.03"/>
    <polyline class="cls-8" points="187.21 124.35 189.8 123.38 212.27 114.96 219.63 116.58 226.08 109.18"/>
    <path class="cls-8" d="m177.84,106.11s3.79,14.12,11.96,17.27"/>
    <path class="cls-8" d="m124.66,47.93c.89,4.31,3.1,37.33,2.93,44.99s.01,10.6.01,10.6"/>
    <path class="cls-8" d="m135.76,61.21c.68,3.79-.85,36.64-.85,36.64"/>
    <path class="cls-8" d="m143.51,54.31s-1.96,22.61-1.96,27.03v10.56h0"/>
    <line class="cls-8" x1="91.17" y1="51.36" x2="102.88" y2="82.9"/>
    <path class="cls-8" d="m110.06,88.34c-5.44,12.07-11.8,25.53-13.89,27.33-.03.03-.05.04-.07.06"/>
    <path class="cls-8" d="m118.74,68.58s-.03.08-.1.23c-.64,1.5-4.32,10.08-8.58,19.52"/>
    <path class="cls-8" d="m91.17,51.36c-.13,1.34.31,6.29,1.15,12.25,1.4,9.98,3.92,22.77,6.73,26.09h.01"/>
    <path class="cls-8" d="m81.97,73.43c1.85,9.84-.02,24.89-3.11,38.9-.26,1.2-.54,2.4-.82,3.58-.39,1.67-.8,3.32-1.23,4.93-2.54,9.74-5.46,18.24-7.77,23.06-4.31.99-7.92.53-10.84-.54-6.06-2.23-9.09-7.12-9.09-7.12,0,0,2.66,17.17.2,20.11-.06.08-.13.14-.2.2"/>
    <path class="cls-8" d="m86.33,72.84l4.34,25.86c3.09-1.93,5.86-5.08,8.38-9,1.35-2.07,2.62-4.37,3.83-6.8,4.91-9.9,8.83-22.2,12.4-32.26.01-.04.03-.07.04-.11"/>
    <path class="cls-8" d="m78.04,115.91s10.34,3.23,18,2.28c7.66-.94,19.47-9.1,22.39-11.06"/>
    <polyline class="cls-8" points="114.64 121.94 105.92 122.88 101.42 123.36"/>
    <line class="cls-8" x1="76.81" y1="120.84" x2="79.65" y2="121.43"/>
    <polygon class="cls-8" points="92.35 120.73 80.02 123.49 79.65 121.43 79.27 119.25 92.35 120.73"/>
    <polygon class="cls-8" points="92.35 120.73 101.82 119.86 101.42 123.36 101.37 123.83 92.35 120.73"/>
    <polyline class="cls-8" points="92.35 120.73 81.71 127.28 85.96 127.76 92.35 120.73"/>
    <path class="cls-8" d="m92.3,121.45l4.14,4.58c1.19.14-2.16.29-4.6-.52-.69-.22.46-4.06.46-4.06Z"/>
    <path class="cls-8" d="m90.11,127.7c-.81.47-1.74,1.07-2.73,1.77-4.55,3.25-10.17,8.87-9.41,16.1.94,8.79,2.81,17.3,4.34,17.98"/>
    <path class="cls-8" d="m57.8,144.45c0,.62.03,1.54.14,2.65.4,4.11,1.82,10.66,6.25,12.88"/>
    <path class="cls-8" d="m57.95,147.09h0c-3,2.35-5.61,6.38-8.63,9.26-1.74,1.67-3.63,2.95-5.81,3.32"/>
    <path class="cls-8" d="m3.75,132.15s7.36,2.28,11.56,1.14"/>
    <path class="cls-8" d="m150.23,168.41s-12-9.9-14.81-17.99"/>
    <path class="cls-8" d="m163.25,168.15s6.58-8.08,8.43-8.98c.08-.04.17-.05.26-.03,1.88.42,4.98,13.7,4.98,13.7"/>
    <path class="cls-8" d="m100.45,14.42c-1.67,1.59-4.54,2.35-5.48,2.06-.17-.06-.28-.15-.3-.28,0,0-.01,0-.01-.01,0-.09.02-.2.1-.33.8-1.33,5.69-1.44,5.69-1.44Z"/>
    <path class="cls-8" d="m100.57,14.58s0-.01,0-.01c.01-.02.02-.05.04-.07.3-.46,1.09-.97,2.01-1.41,1.34-.62,2.97-1.11,3.86-1.11.35,0,.58.07.65.23.22.5-1.84,1.18-3.7,1.68-1.21.32-2.34.58-2.73.65-.07.02-.11.03-.13.03h0Z"/>
    <path class="cls-8" d="m100.57,14.58s-1.15,3.25-1.21,4.46"/>
    <path class="cls-8" d="m100.45,14.42c.05.03.11.05.17.08.03.01.06.03.09.04.17.08.37.17.58.27,1.75.76,4.49,1.88,5.02,2.64"/>
    <line class="cls-8" x1="107.16" y1="11.64" x2="108.05" y2="11.09"/>
    <path class="cls-8" d="m124.66,47.93c1.82,1.78,1.82,3.24,7.7,2.94"/>
    <path class="cls-8" d="m156,61.21h.01c31.5,25.75,46.92,26.18,51.14,33.26"/>
    <path class="cls-8" d="m86.33,72.84s.8,19.27.66,31.74c-.05,5.23-.27,9.26-.78,10.17"/>
    <polyline class="cls-8" points="86.98 104.58 86.99 104.58 88.87 104.58 90.67 98.7"/>
    <path class="cls-8" d="m105.97,123.38c.51,4.6,10.31,26.09,18.69,23.94"/>
    <path class="cls-8" d="m110.06,88.33h0c.05.45,1.17,11.53.85,19.82"/>
    <path class="cls-8" d="m78.86,112.33l7.35,2.42s3.91,2.19,9.96.92c1.96-.41,4.14-1.18,6.49-2.51,3.19-1.8,6-3.47,8.32-4.9,4.68-2.86,7.42-4.74,7.42-4.74"/>
    <line class="cls-8" x1="212.27" y1="114.96" x2="212.53" y2="109.43"/>
  </g>
</svg>