<?xml version="1.0" encoding="UTF-8"?>
<svg id="_レイヤー_1" data-name="レイヤー 1" xmlns="http://www.w3.org/2000/svg" viewBox="0 0 269.51 190.93">
  <defs>
    <style>
      .cls-1 {
        fill: #79a081;
      }

      .cls-1, .cls-2, .cls-3, .cls-4, .cls-5, .cls-6, .cls-7, .cls-8, .cls-9, .cls-10 {
        stroke-width: 0px;
      }

      .cls-2 {
        fill: #8f4544;
      }

      .cls-11 {
        stroke-miterlimit: 10;
      }

      .cls-11, .cls-12 {
        fill: none;
        stroke: #000;
      }

      .cls-3 {
        fill: #bd957c;
      }

      .cls-4 {
        fill: #f3edd7;
      }

      .cls-12 {
        stroke-linecap: round;
        stroke-linejoin: round;
      }

      .cls-5 {
        fill: #333;
      }

      .cls-6 {
        fill: #f4d3b9;
      }

      .cls-7 {
        fill: #fadeac;
      }

      .cls-8 {
        fill: #d2d296;
      }

      .cls-9 {
        fill: #f5f1d8;
      }

      .cls-10 {
        fill: #ccb2bd;
      }
    </style>
  </defs>
  <g>
    <g>
      <rect class="cls-4" x=".24" y="156.4" width="3.61" height="5.01"/>
      <path class="cls-4" d="m269.27,183.89v6.54h-30.35l15.3-8.6c1.03,1.61,3.1,2.71,5.5,2.71s4.6-1.18,5.6-2.87l3.96,2.22Z"/>
      <path class="cls-4" d="m269.27,173.36v10.53l-3.96-2.22c.38-.65.59-1.38.59-2.14,0-1.3-.61-2.48-1.61-3.37l4.98-2.8Z"/>
      <path class="cls-4" d="m269.27,161.41v11.95l-4.98,2.8c-1.13-1-2.76-1.64-4.58-1.64s-3.3.58-4.42,1.51l-26.01-14.62h39.99Z"/>
      <polygon class="cls-4" points="269.27 83.39 269.27 89.14 1.13 89.14 .24 89.14 .24 83.39 269.27 83.39"/>
      <rect class="cls-4" x="265.28" y="156.4" width="3.98" height="5.01"/>
      <path class="cls-4" d="m265.9,179.53c0,.76-.21,1.49-.59,2.14l-5.4-3.04,4.38-2.47c1,.89,1.61,2.07,1.61,3.37Z"/>
      <path class="cls-4" d="m259.91,178.63l5.4,3.04c-1,1.7-3.12,2.87-5.6,2.87s-4.47-1.1-5.5-2.71l5.7-3.2Z"/>
      <rect class="cls-5" x="254.01" y="156.4" width="11.27" height="5.01"/>
      <path class="cls-4" d="m264.29,176.16l-4.38,2.47-4.62-2.6c1.13-.93,2.69-1.51,4.42-1.51,1.82,0,3.44.63,4.58,1.64Z"/>
      <path class="cls-4" d="m259.91,178.63l-5.7,3.2c-.44-.68-.69-1.47-.69-2.3,0-1.37.68-2.6,1.77-3.5l4.62,2.6Z"/>
      <path class="cls-4" d="m229.28,161.41l26.01,14.62c-1.09.9-1.77,2.13-1.77,3.5,0,.83.25,1.62.69,2.3l-15.3,8.6h-41.35l-15.6-8.77c.38-.65.59-1.38.59-2.14,0-1.3-.61-2.48-1.61-3.36l26.25-14.76h22.08Zm-5.95,18.12c0-2.76-2.24-5-5-5s-5.01,2.24-5.01,5,2.24,5.01,5.01,5.01,5-2.24,5-5.01Z"/>
      <polygon class="cls-4" points="254.01 161.41 229.28 161.41 223.59 161.41 223.59 156.4 254.01 156.4 254.01 161.41"/>
      <rect class="cls-5" x="212.32" y="156.4" width="11.27" height="5.01"/>
      <path class="cls-5" d="m218.33,174.52c2.76,0,5,2.24,5,5s-2.24,5.01-5,5.01-5.01-2.24-5.01-5.01,2.24-5,5.01-5Z"/>
      <path class="cls-4" d="m207.2,161.41l-26.25,14.76c-1.13-1.01-2.76-1.64-4.58-1.64s-3.3.58-4.42,1.51l-26.01-14.62h61.26Z"/>
      <polygon class="cls-4" points="181.9 161.41 181.9 156.4 212.32 156.4 212.32 161.41 207.2 161.41 181.9 161.41"/>
      <path class="cls-4" d="m197.56,190.43h-42l15.3-8.6c1.03,1.61,3.11,2.71,5.5,2.71s4.6-1.18,5.6-2.87l15.6,8.77Z"/>
      <path class="cls-4" d="m182.56,179.53c0,.76-.21,1.49-.59,2.14l-5.4-3.04,4.38-2.46c1,.88,1.61,2.06,1.61,3.36Z"/>
      <path class="cls-4" d="m176.57,178.63l5.4,3.04c-1,1.7-3.12,2.87-5.6,2.87s-4.47-1.1-5.5-2.71l5.7-3.2Z"/>
      <rect class="cls-5" x="170.63" y="156.4" width="11.27" height="5.01"/>
      <path class="cls-4" d="m176.37,174.52c1.82,0,3.44.63,4.58,1.64l-4.38,2.46-4.62-2.6c1.13-.93,2.69-1.51,4.42-1.51Z"/>
      <path class="cls-4" d="m176.57,178.63l-5.7,3.2c-.44-.68-.69-1.47-.69-2.3,0-1.37.68-2.6,1.77-3.5l4.62,2.6Z"/>
      <path class="cls-4" d="m145.93,161.41l26.01,14.62c-1.09.9-1.77,2.13-1.77,3.5,0,.83.25,1.62.69,2.3l-15.3,8.6h-41.35l-15.6-8.77c.38-.65.59-1.38.59-2.14,0-1.3-.61-2.48-1.61-3.36l26.25-14.76h22.08Zm-6.99,18.12c0-2.76-2.24-5-5-5s-5.01,2.24-5.01,5,2.24,5.01,5.01,5.01,5-2.24,5-5.01Z"/>
      <polygon class="cls-4" points="170.63 161.41 145.93 161.41 140.2 161.41 140.2 156.4 170.63 156.4 170.63 161.41"/>
      <rect class="cls-5" x="128.93" y="156.4" width="11.27" height="5.01"/>
      <path class="cls-5" d="m133.94,174.52c2.76,0,5,2.24,5,5s-2.24,5.01-5,5.01-5.01-2.24-5.01-5.01,2.24-5,5.01-5Z"/>
      <path class="cls-4" d="m123.85,161.41l-26.25,14.76c-1.13-1.01-2.76-1.64-4.58-1.64s-3.3.58-4.42,1.51l-26.01-14.62h61.26Z"/>
      <polygon class="cls-4" points="128.93 161.41 123.85 161.41 98.51 161.41 98.51 156.4 128.93 156.4 128.93 161.41"/>
      <path class="cls-4" d="m114.22,190.43h-42l15.3-8.6c1.03,1.61,3.1,2.71,5.5,2.71s4.6-1.18,5.6-2.87l15.6,8.77Z"/>
      <path class="cls-4" d="m99.21,179.53c0,.76-.21,1.49-.59,2.14l-5.4-3.04,4.38-2.46c1,.88,1.61,2.06,1.61,3.36Z"/>
      <path class="cls-4" d="m93.22,178.63l5.4,3.04c-1,1.7-3.12,2.87-5.6,2.87s-4.47-1.1-5.5-2.71l5.7-3.2Z"/>
      <rect class="cls-5" x="87.24" y="156.4" width="11.27" height="5.01"/>
      <path class="cls-4" d="m93.02,174.52c1.82,0,3.44.63,4.58,1.64l-4.38,2.46-4.62-2.6c1.13-.93,2.69-1.51,4.42-1.51Z"/>
      <path class="cls-4" d="m93.22,178.63l-5.7,3.2c-.44-.68-.69-1.47-.69-2.3,0-1.37.68-2.6,1.77-3.5l4.62,2.6Z"/>
      <path class="cls-4" d="m62.59,161.41l26.01,14.62c-1.09.9-1.77,2.13-1.77,3.5,0,.83.25,1.62.69,2.3l-15.3,8.6H30.69l-15.6-8.77c.38-.65.59-1.38.59-2.14,0-1.3-.61-2.48-1.61-3.36l26.25-14.76h22.27Zm-8.5,18.12c0-2.76-2.24-5-5-5s-5.01,2.24-5.01,5,2.24,5.01,5.01,5.01,5-2.24,5-5.01Z"/>
      <polygon class="cls-4" points="87.24 161.41 62.59 161.41 56.82 161.41 56.82 156.4 87.24 156.4 87.24 161.41"/>
      <rect class="cls-5" x="45.55" y="156.4" width="11.27" height="5.01"/>
      <path class="cls-5" d="m49.09,174.52c2.76,0,5,2.24,5,5s-2.24,5.01-5,5.01-5.01-2.24-5.01-5.01,2.24-5,5.01-5Z"/>
      <polygon class="cls-4" points="45.55 161.41 40.32 161.41 15.12 161.41 15.12 156.4 45.55 156.4 45.55 161.41"/>
      <path class="cls-4" d="m30.69,190.43H.24v-6.5l3.75-2.1c1.03,1.61,3.11,2.71,5.5,2.71s4.6-1.18,5.6-2.87l15.6,8.77Z"/>
      <path class="cls-4" d="m15.68,179.53c0,.76-.21,1.49-.59,2.14l-5.4-3.04,4.38-2.46c1,.88,1.61,2.06,1.61,3.36Z"/>
      <rect class="cls-5" x="3.85" y="156.4" width="11.27" height="5.01"/>
      <path class="cls-4" d="m9.69,178.63l5.4,3.04c-1,1.7-3.12,2.87-5.6,2.87s-4.47-1.1-5.5-2.71l5.7-3.2Z"/>
      <path class="cls-4" d="m9.49,174.52c1.82,0,3.44.63,4.58,1.64l-4.38,2.46-4.62-2.6c1.13-.93,2.69-1.51,4.42-1.51Z"/>
      <path class="cls-4" d="m9.69,178.63l-5.7,3.2c-.44-.68-.69-1.47-.69-2.3,0-1.37.68-2.6,1.77-3.5l4.62,2.6Z"/>
      <path class="cls-4" d="m.24,173.32l4.82,2.71c-1.09.9-1.77,2.13-1.77,3.5,0,.83.25,1.62.69,2.3l-3.75,2.1v-10.61Z"/>
      <polygon class="cls-8" points="212.32 156.4 181.9 156.4 170.63 156.4 140.2 156.4 128.93 156.4 98.51 156.4 87.24 156.4 56.82 156.4 45.55 156.4 15.12 156.4 3.85 156.4 .24 156.4 .24 89.14 1.13 89.14 269.27 89.14 269.27 156.4 265.28 156.4 254.01 156.4 223.59 156.4 212.32 156.4"/>
      <path class="cls-4" d="m.24,161.41h40.07l-26.25,14.76c-1.13-1.01-2.76-1.64-4.58-1.64s-3.3.58-4.42,1.51l-4.82-2.71v-11.91Z"/>
    </g>
    <g>
      <polyline class="cls-11" points="269.27 190.43 238.91 190.43 197.56 190.43 155.57 190.43 114.22 190.43 72.22 190.43 30.69 190.43 .24 190.43"/>
      <line class="cls-11" x1=".24" y1="83.39" x2="269.27" y2="83.39"/>
      <line class="cls-11" x1=".24" y1="89.14" x2="269.27" y2="89.14"/>
      <line class="cls-11" x1="265.28" y1="156.4" x2="269.27" y2="156.4"/>
      <line class="cls-11" x1="223.59" y1="156.4" x2="254.01" y2="156.4"/>
      <line class="cls-11" x1="181.9" y1="156.4" x2="212.32" y2="156.4"/>
      <line class="cls-11" x1="140.2" y1="156.4" x2="170.63" y2="156.4"/>
      <line class="cls-11" x1="98.51" y1="156.4" x2="128.93" y2="156.4"/>
      <line class="cls-11" x1="56.82" y1="156.4" x2="87.24" y2="156.4"/>
      <line class="cls-11" x1="15.12" y1="156.4" x2="45.55" y2="156.4"/>
      <line class="cls-11" x1=".24" y1="156.4" x2="3.85" y2="156.4"/>
      <line class="cls-11" x1="265.28" y1="161.41" x2="269.27" y2="161.41"/>
      <polyline class="cls-11" points="223.59 161.41 229.28 161.41 254.01 161.41"/>
      <polyline class="cls-11" points="181.9 161.41 207.2 161.41 212.32 161.41"/>
      <polyline class="cls-11" points="140.2 161.41 145.93 161.41 170.63 161.41"/>
      <polyline class="cls-11" points="98.51 161.41 123.85 161.41 128.93 161.41"/>
      <polyline class="cls-11" points="56.82 161.41 62.59 161.41 87.24 161.41"/>
      <polyline class="cls-11" points="15.12 161.41 40.32 161.41 45.55 161.41"/>
      <line class="cls-11" x1=".24" y1="161.41" x2="3.85" y2="161.41"/>
      <polyline class="cls-11" points="72.22 190.43 87.53 181.83 93.22 178.63 97.6 176.17 123.85 161.41"/>
      <polyline class="cls-11" points="114.22 190.43 98.62 181.66 93.22 178.63 88.6 176.03 62.59 161.41"/>
      <path class="cls-11" d="m138.94,179.53c0,2.77-2.24,5.01-5,5.01s-5.01-2.24-5.01-5.01,2.24-5,5.01-5,5,2.24,5,5Z"/>
      <path class="cls-11" d="m223.33,179.53c0,2.77-2.24,5.01-5,5.01s-5.01-2.24-5.01-5.01,2.24-5,5.01-5,5,2.24,5,5Z"/>
      <path class="cls-11" d="m97.6,176.17c1,.88,1.61,2.06,1.61,3.36,0,.76-.21,1.49-.59,2.14-1,1.7-3.12,2.87-5.6,2.87s-4.47-1.1-5.5-2.71c-.44-.68-.69-1.47-.69-2.3,0-1.37.68-2.6,1.77-3.5,1.13-.93,2.69-1.51,4.42-1.51,1.82,0,3.44.63,4.58,1.64Z"/>
      <polyline class="cls-11" points=".24 183.93 3.99 181.83 9.69 178.63 14.07 176.17 40.32 161.41"/>
      <polyline class="cls-11" points="30.69 190.43 15.09 181.66 9.69 178.63 5.07 176.03 .24 173.32"/>
      <path class="cls-11" d="m14.07,176.17c1,.88,1.61,2.06,1.61,3.36,0,.76-.21,1.49-.59,2.14-1,1.7-3.12,2.87-5.6,2.87s-4.47-1.1-5.5-2.71c-.44-.68-.69-1.47-.69-2.3,0-1.37.68-2.6,1.77-3.5,1.13-.93,2.69-1.51,4.42-1.51,1.82,0,3.44.63,4.58,1.64Z"/>
      <polyline class="cls-11" points="155.57 190.43 170.87 181.83 176.57 178.63 180.95 176.17 207.2 161.41"/>
      <polyline class="cls-11" points="197.56 190.43 181.97 181.66 176.57 178.63 171.94 176.03 145.93 161.41"/>
      <path class="cls-11" d="m180.95,176.17c1,.88,1.61,2.06,1.61,3.36,0,.76-.21,1.49-.59,2.14-1,1.7-3.12,2.87-5.6,2.87s-4.47-1.1-5.5-2.71c-.44-.68-.69-1.47-.69-2.3,0-1.37.68-2.6,1.77-3.5,1.13-.93,2.69-1.51,4.42-1.51,1.82,0,3.44.63,4.58,1.64Z"/>
      <polyline class="cls-11" points="238.91 190.43 254.21 181.83 259.91 178.63 264.29 176.16 269.27 173.36"/>
      <polyline class="cls-11" points="269.27 183.89 265.31 181.66 259.91 178.63 255.29 176.03 229.28 161.41"/>
      <path class="cls-11" d="m264.29,176.16c1,.89,1.61,2.07,1.61,3.37,0,.76-.21,1.49-.59,2.14-1,1.7-3.12,2.87-5.6,2.87s-4.47-1.1-5.5-2.71c-.44-.68-.69-1.47-.69-2.3,0-1.37.68-2.6,1.77-3.5,1.13-.93,2.69-1.51,4.42-1.51,1.82,0,3.44.63,4.58,1.64Z"/>
      <path class="cls-11" d="m54.09,179.53c0,2.77-2.24,5.01-5,5.01s-5.01-2.24-5.01-5.01,2.24-5,5.01-5,5,2.24,5,5Z"/>
      <rect class="cls-11" x="3.85" y="156.4" width="11.27" height="5.01"/>
      <rect class="cls-11" x="45.55" y="156.4" width="11.27" height="5.01"/>
      <rect class="cls-11" x="87.24" y="156.4" width="11.27" height="5.01"/>
      <rect class="cls-11" x="128.93" y="156.4" width="11.27" height="5.01"/>
      <rect class="cls-11" x="170.63" y="156.4" width="11.27" height="5.01"/>
      <rect class="cls-11" x="212.32" y="156.4" width="11.27" height="5.01"/>
      <rect class="cls-11" x="254.01" y="156.4" width="11.27" height="5.01"/>
    </g>
  </g>
  <g>
    <g>
      <path class="cls-10" d="m263.43,125.94l-32.26,18.57h-16.8l-13.26,6.19-2.97-1.02s-2.69-11.49-4.32-11.86l.1-.91s.08,0,.11,0c11.64,1.32,19.74,5.01,26.81,4.72,7.07-.29,14.25-7.21,14.25-7.21,0,0,.19-.6-1.43-4.73-1.18-3-6.02-10.45-9.37-15.25,6.54,1.02,23.59,4.89,28.99,6.5,0,.04,0,.09-.02.13.35.05.69.11,1.05.2.03,0,.04,0,.06.02,4.52,1.06,9.05,4.65,9.05,4.65Z"/>
      <path class="cls-10" d="m250.83,101.41c.87,2.41,3.27,15.01,2.45,19.54-5.39-1.61-22.44-5.48-28.99-6.5-1.26-1.79-2.29-3.22-2.86-3.9-1.97-2.4-7.46-2.09-14.39-2.84l2.24-.85,19.45-7.29,6.37,1.4,5.57-6.41c.72.04,1.32.11,1.76.22,2.87.67,7.51,4.2,8.4,6.63Z"/>
      <path class="cls-10" d="m240.68,94.57l-5.57,6.41-6.37-1.4.22-4.79s7.67-.48,11.73-.22Z"/>
      <path class="cls-10" d="m207.04,107.71c6.93.74,12.42.44,14.39,2.84.56.68,1.6,2.11,2.86,3.9,3.35,4.8,8.2,12.25,9.37,15.25,1.62,4.13,1.43,4.73,1.43,4.73-7.12-3.72-35.14-.74-46.06,1.87-2.48-.33-4.5-.68-6.19-1.09h0c0-6.97-4.02-10.76-8.08-12.96v.03c-1.87.03-4.03.66-6.66,1.86-2.82,1.27-6.18,3.19-10.26,5.71h0c-1.54-.19-2.76-.44-3.41-.74-.46-.21-.98-.74-1.54-1.53-3.21-4.47-7.76-16.93-8.66-21.97-.07-.36-.11-.68-.14-.96-.17-1.91,1.16-4.43,3.39-7.16,2.05-2.53,4.87-5.24,7.96-7.82,2.04-1.71,4.2-3.38,6.33-4.9,2.26-1.62,4.15-3.36,5.75-5.14h0v-9.15c0-3.78,1.66-22.9,1.71-23.4h0c1.07-.61,2.15-1.25,3.19-1.83l7.62,7.79,1.19,1.22s10.91,31.53,14.14,34.18c3.25,2.65,3.57,3.47,3.57,3.47,0,0,3.29,12.21,10.36,14.94l-2.24.85Z"/>
      <path class="cls-2" d="m235.1,134.43s-7.18,6.92-14.25,7.21c-7.07.29-15.17-3.39-26.81-4.72-.03,0-.08,0-.11,0-1.81-.22-3.43-.41-4.89-.61,10.92-2.61,38.94-5.59,46.06-1.87Z"/>
      <path class="cls-10" d="m228.95,94.78l-.22,4.79-19.45,7.29c-7.07-2.73-10.36-14.94-10.36-14.94,0,0,22.07-9.07,23.84-9.66.61-.2,1.1-.41,1.53-.42.83-.03,1.51.62,2.67,3.23,1.77,3.97,1.99,9.72,1.99,9.72Z"/>
      <path class="cls-10" d="m224.29,81.84c-.43.02-.92.23-1.53.42-1.77.59-23.84,9.66-23.84,9.66,0,0-.32-.82-3.57-3.47-3.24-2.65-14.14-34.18-14.14-34.18l-1.19-1.22c27.26,22.29,40.62,22.67,44.26,28.79Z"/>
      <path class="cls-1" d="m198.14,149.68l-11.83-4.07s5.7-6.99,7.29-7.76c.07-.03.15-.04.23-.03,1.63.36,4.32,11.86,4.32,11.86Z"/>
      <path class="cls-9" d="m189.03,136.3c1.46.21,3.08.4,4.89.61l-.1.91c-.08-.02-.16,0-.23.03-1.59.77-7.29,7.76-7.29,7.76l-5.97,3.76-5.31-3.53s-10.38-8.57-12.81-15.57c2.68.19,5.57.3,7.9.36,2.76.09,4.76.1,4.76.1,2.12,2.29,4.29,3.56,7.96,4.47,1.69.42,3.7.76,6.19,1.09Z"/>
      <path class="cls-2" d="m182.84,135.2h0c-3.67-.91-5.84-2.18-7.96-4.47,0,0-2-.02-4.76-.1l-2.02-6.49c2.63-1.2,4.8-1.83,6.66-1.86v-.03c4.06,2.2,8.08,5.99,8.08,12.95Z"/>
      <path class="cls-7" d="m132.76,12.91c-.22-.09-.41-.17-.58-.26.35-.07,1.32-.29,2.34-.56,1.62-.43,3.4-1.01,3.22-1.45-.06-.14-.27-.21-.57-.21l.58-.29.78-.48c1.2,1.55,2.35,3.05,3.51,4.23,3.56,3.69,27.16,20.85,34.82,27.01.86.69.62,2.06-.42,2.41-1.26.43-2.61,1.13-4.02,1.93-1.05.58-2.12,1.22-3.19,1.82h0c-1.42.8-2.85,1.54-4.21,2.03-4.86,1.77-5.6-2.21-5.45-5,.09-1.6-.35-3.38-.75-4.63-.22-.69-.97-1.03-1.62-.79l-.02-.03c-2.41-.42-22.69-23.2-24.58-25.33l.17-.41Z"/>
      <path class="cls-1" d="m120.64,112.14l-1.24-1.49,5.54-6.08,7.8,2.68.04-.41h0l3.89-.42.04.43c.44,3.98,8.92,22.56,16.17,20.72.56.79,1.08,1.32,1.54,1.53.65.29,1.87.55,3.41.74,1.29.16,2.8.29,4.37.41,2.43,7,12.81,15.57,12.81,15.57l-49.94-.44-8.84-3.76c-1.32-.59-2.94-7.95-3.76-15.57-.67-6.26,4.21-11.12,8.14-13.93Zm3.86-3.43c2.11.69,5,.57,3.97.45l-3.58-3.97s-.99,3.32-.39,3.52Z"/>
      <path class="cls-2" d="m168.1,124.14l2.02,6.49c-2.34-.06-5.22-.17-7.9-.36-1.58-.11-3.08-.24-4.37-.41h0c4.08-2.53,7.44-4.45,10.26-5.72Z"/>
      <path class="cls-10" d="m161.78,84.77c-2.13,1.52-4.28,3.19-6.33,4.9,0,0-.16-2.54,0-9.17s-1.77-35.21-2.54-38.94c1.58,1.55,1.58,2.8,6.66,2.55-.15,2.8.59,6.78,5.45,5,1.36-.49,2.79-1.23,4.21-2.03-.04.49-1.71,19.61-1.71,23.4v9.14h0c-1.59,1.79-3.49,3.53-5.75,5.15Z"/>
      <path class="cls-3" d="m158.81,39.48c.4,1.25.84,3.03.75,4.63-5.08.25-5.08-1-6.66-2.55,1.56-1.04,3.01-2.03,4.01-2.72.09-.06.18-.11.28-.15.65-.24,1.4.1,1.62.79Z"/>
      <path class="cls-7" d="m132.04,12.69s.05,0,.14-.03c.17.09.36.17.58.26l-.17.41c1.9,2.14,22.18,24.91,24.58,25.33l.02.03c-.1.03-.19.09-.28.15-1,.68-2.45,1.68-4.01,2.72-1.75,1.17-3.64,2.39-5.12,3.26-.62.37-1.18.68-1.63.91-.18-.09-.68-.74-1.38-1.82-1.13-1.73-2.83-4.54-4.72-7.76-5.27-8.98-12.02-21.06-12.02-21.06l-.29-.27-.52-.48c.84.23,3.29-.43,4.73-1.79.04.03.1.04.15.07-.03.03-.04.04-.05.07Z"/>
      <path class="cls-10" d="m147.69,59.63l.09-14.81c1.49-.87,3.38-2.09,5.12-3.26.76,3.73,2.68,32.31,2.54,38.94s0,9.17,0,9.17c-3.09,2.59-5.91,5.3-7.96,7.82l.03-4.7.02-3.12.16-30.04Z"/>
      <path class="cls-9" d="m152.9,127.58c-7.25,1.84-15.73-16.74-16.17-20.72l-.04-.43,7.55-.81c.9,5.04,5.45,17.49,8.66,21.97Z"/>
      <path class="cls-1" d="m147.78,44.82l-.09,14.81c-.55,1.3-3.74,8.72-7.43,16.9-4.71,10.46-10.21,22.11-12.02,23.66-5.24,1.1-8.62-.8-8.62-.8.44-.79.63-4.28.68-8.8h1.62l1.57-5.08c2.67-1.67,5.07-4.4,7.25-7.79,1.16-1.8,2.27-3.78,3.31-5.89,4.26-8.57,7.64-19.22,10.73-27.91.7,1.07,1.19,1.73,1.38,1.82.45-.23,1-.54,1.63-.91Z"/>
      <path class="cls-9" d="m147.69,59.63l-.16,30.04h-.05s-2.36,1.63-6.41,4.1l-.06-.1c.28-7.31-.74-17.16-.74-17.16,3.69-8.17,6.87-15.6,7.43-16.9Z"/>
      <path class="cls-9" d="m128.24,100.19c1.7-.35,3.58-1.02,5.62-2.17,2.76-1.57,5.18-3,7.2-4.24,4.05-2.48,6.41-4.1,6.41-4.1h.05l-.02,3.12c-2.54,1.7-12.75,8.76-19.38,9.58-6.63.81-15.58-1.98-15.58-1.98.24-1.02.48-2.06.71-3.1l6.36,2.09s3.38,1.9,8.62.8Z"/>
      <path class="cls-9" d="m147.51,92.79l-.03,4.7c-2.23,2.73-3.57,5.25-3.39,7.16.03.28.07.6.14.96l-7.55.81-3.89.42h0l.35-3.03-8.19.75-11.32-1.27.33,1.88-2.46-.51c.36-1.39.72-2.82,1.06-4.27,0,0,8.95,2.8,15.58,1.98,6.63-.82,16.84-7.89,19.38-9.58Z"/>
      <path class="cls-1" d="m141,93.68l.06.1c-2.02,1.24-4.44,2.67-7.2,4.24-2.03,1.15-3.92,1.82-5.62,2.17,1.81-1.56,7.31-13.21,12.02-23.66,0,0,1.01,9.84.74,17.16Z"/>
      <path class="cls-1" d="m140.06,36.15c1.89,3.21,3.58,6.02,4.72,7.76-3.09,8.7-6.47,19.34-10.73,27.91l-10.14-27.29c1.92-.22,3.64-.46,5.2-.74l.03.12,5.97,13.61s4.06-13.43,3.39-18.38c.65-.85,1.16-1.83,1.56-2.99Z"/>
      <path class="cls-6" d="m138.5,39.14c.67,4.94-3.39,18.38-3.39,18.38l-5.97-13.61-.03-.12c4.49-.85,7.5-2.16,9.39-4.65Z"/>
      <path class="cls-6" d="m138.5,39.14c-1.89,2.48-4.9,3.8-9.39,4.65-1.56.29-3.28.53-5.2.74-.53.05-1.06.11-1.62.16-4.35.42-7.05-1.82-8.72-4.93-2.37-4.38-2.74-10.49-2.92-13.34-.88-1.77-1.63-6.66-1.48-10.57,5.32.29,17.84-.44,18.57-1.03l.29.27s6.75,12.07,12.02,21.06c-.4,1.15-.91,2.14-1.56,2.99Z"/>
      <path class="cls-7" d="m138.53,9.67l-.78.48-.58.29c-.78,0-2.19.42-3.34.97-5.47-5.41-9.33-9.43-9.33-9.43l-.07-1.45c.98-.04,1.94,0,2.87.12,4.67.64,8.12,5.03,11.23,9.03Z"/>
      <path class="cls-1" d="m123.91,44.53l10.14,27.29c-1.04,2.11-2.15,4.09-3.31,5.89-2.44-2.86-4.62-14-5.84-22.64-.72-5.13-1.1-9.38-.99-10.54Z"/>
      <polygon class="cls-9" points="133.13 103.81 132.78 106.84 132.74 107.25 124.94 104.57 133.13 103.81"/>
      <path class="cls-7" d="m126.94,14.08s0,0,0,0c.02.11.11.19.26.24,0,0,.02,0,.02,0l.52.48c-.74.59-13.25,1.32-18.57,1.03,0-.12,0-6.26,1.77-9.47,1.51-2.73,7.68-5.64,13.49-5.87l.07,1.45s3.86,4.02,9.33,9.43c-.8.37-1.48.81-1.73,1.21-.05-.03-.1-.04-.15-.07,0,0-4.23.1-4.92,1.25-.07.11-.1.21-.09.29Z"/>
      <path class="cls-9" d="m128.47,109.16c1.03.12-1.86.24-3.97-.45-.6-.2.39-3.52.39-3.52l3.58,3.97Z"/>
      <path class="cls-1" d="m124.89,55.07c1.22,8.65,3.4,19.78,5.84,22.64-2.18,3.39-4.58,6.12-7.25,7.79l-3.76-22.39c1.93-.33,3.51-.79,3.68-1.06.25-.36.52-1.99.72-3.57.23-1.71.39-3.37.39-3.37l.38-.05Z"/>
      <polygon class="cls-9" points="124.94 104.57 119.4 110.65 115.72 110.23 124.94 104.57"/>
      <path class="cls-1" d="m124.94,104.57l-9.22,5.67,3.68.42,1.24,1.49c-3.94,2.8-8.81,7.67-8.14,13.93.81,7.62,2.43,14.98,3.76,15.57l-10.83-.67-4.86-2.43c-3.84-1.92-5.05-7.6-5.4-11.16-.1-.95-.12-1.75-.12-2.29l.35-.94c2.52.93,5.64,1.32,9.37.47,2.01-4.17,4.53-11.53,6.73-19.96l2.46.51.31,1.79,10.68-2.4Z"/>
      <polygon class="cls-9" points="124.94 104.57 114.26 106.96 113.95 105.17 113.62 103.29 124.94 104.57"/>
      <path class="cls-10" d="m112.02,57.42c-.13,1-.63,4.79-1.26,9.1-.49,3.38-1.06,7.07-1.61,10,0,0,0,.02,0,.03-.48,2.62-.94,4.62-1.29,5.21-1.32,2.21-12.81,21.66-20.99,27.84-8.17,6.19-18.12,11.93-20.99,13.48s-5.75,1.55-5.75,1.55c0,0-.9-4.11-1.87-9.18-1.23-6.45-2.58-14.44-2.33-17.46l1.54-4.96s7.74-6.41,12.38-9.06,11.27-6.63,11.27-6.63c0,0,9.71-13.74,13.04-18.34,5.75-7.95,16.07-19,19.41-19.22,1.68,3.12,4.37,5.36,8.72,4.93.55-.05,1.09-.11,1.62-.16-.11,1.16.27,5.41.99,10.54l-.38.05s-3.52-1.58-4.62-2.29c-1.11-.71-4.92,2.68-7.51,4.67l-.36-.09Z"/>
      <path class="cls-6" d="m124.12,58.49c-.2,1.58-.47,3.2-.72,3.57-.17.27-1.75.73-3.68,1.06-.93.16-1.94.29-2.92.35-.29.02-.58.08-.86.16-2.02.65-3.71,2.96-4.75,2.95l-.45-.06c.63-4.31,1.13-8.1,1.26-9.1l.36.09c2.6-1.99,6.41-5.38,7.51-4.67,1.1.71,4.62,2.29,4.62,2.29,0,0-.16,1.66-.39,3.37Z"/>
      <path class="cls-1" d="m119.73,63.11l3.76,22.39-1.57,5.08h-1.62c.11-10.79-.57-27.47-.57-27.47Z"/>
      <path class="cls-1" d="m120.3,90.59c-.04,4.53-.23,8.01-.68,8.8l-6.36-2.09c2.67-12.13,4.28-25.14,2.69-33.67.28-.09.56-.15.86-.16.98-.05,1.99-.18,2.92-.35,0,0,.68,16.68.57,27.47Z"/>
      <path class="cls-10" d="m115.95,63.62c1.59,8.53-.03,21.54-2.69,33.67-.23,1.04-.47,2.08-.71,3.1-.35,1.45-.7,2.87-1.06,4.27-2.21,8.43-4.73,15.79-6.73,19.96-3.73.86-6.86.46-9.37-.47-5.25-1.93-7.88-6.16-7.88-6.16,5.24-2.62,21.05-28.51,21.63-41.45,0,0,0-.02,0-.03.55-2.93,1.12-6.62,1.61-10l.45.06c1.04,0,2.74-2.3,4.75-2.95Z"/>
      <path class="cls-2" d="m107.84,81.75c.35-.59.8-2.59,1.29-5.21-.58,12.94-16.39,38.83-21.63,41.45-5.31,2.65-17.44,5.31-21.64,5.08,2.87-1.55,12.82-7.29,20.99-13.48,8.18-6.19,19.67-25.64,20.99-27.84Z"/>
      <path class="cls-1" d="m100.56,138.54l-.88-.44-17.02.17c1.81-.29,3.38-1.33,4.85-2.7.05-.04.1-.09.15-.14,2.63-2.5,4.89-6.01,7.5-8.05.35,3.56,1.56,9.24,5.4,11.16Z"/>
      <path class="cls-10" d="m95.38,124.15l-.35.94c0,.54.03,1.33.12,2.29-2.61,2.04-4.87,5.55-7.5,8.05,2.17-2.45-.15-17.44-.15-17.44,0,0,2.63,4.23,7.88,6.16Z"/>
      <path class="cls-10" d="m87.5,117.99s2.32,14.99.15,17.44c-.05.05-.1.1-.15.14-1.46,1.37-3.04,2.41-4.85,2.7l-4.86.05s-13.26-1.55-19.67-1.55-9.28-7.29-10.16-11.05c-.64-2.7-1.85-6.89-2.48-9.03-.21-.72.26-1.45,1-1.57.63-.1,1.23-.33,1.75-.68,0,0,6.37,1.97,10.01.99.97,5.07,1.87,9.18,1.87,9.18,0,0,2.87,0,5.75-1.55,4.2.23,16.33-2.43,21.64-5.08Z"/>
      <path class="cls-10" d="m58.25,115.44c-3.64.99-10.01-.99-10.01-.99.22-.14.42-.29.61-.48.64-.6,1.09-1.38,1.27-2.29l.93-4.53,4.86-9.18c-.25,3.02,1.1,11.01,2.33,17.46Z"/>
    </g>
    <g>
      <path class="cls-12" d="m109.17,15.86c-.15,3.9.6,8.8,1.48,10.57.17,2.85.55,8.96,2.92,13.34,1.68,3.12,4.37,5.36,8.72,4.93.55-.05,1.09-.11,1.62-.16,1.92-.22,3.64-.46,5.2-.74,4.49-.85,7.5-2.16,9.39-4.65.65-.85,1.16-1.83,1.56-2.99"/>
      <path class="cls-12" d="m169.22,47.08c1.07-.6,2.15-1.24,3.19-1.82,1.4-.8,2.76-1.5,4.02-1.93,1.05-.35,1.28-1.72.42-2.41-7.66-6.16-31.26-23.33-34.82-27.01-1.15-1.19-2.3-2.68-3.51-4.23-3.11-4-6.56-8.39-11.23-9.03-.93-.13-1.9-.16-2.87-.12-5.81.23-11.98,3.14-13.49,5.87-1.77,3.21-1.77,9.35-1.77,9.47,5.32.29,17.84-.44,18.57-1.03"/>
      <path class="cls-12" d="m127.22,14.34l.52.48.29.27s6.75,12.07,12.02,21.06c1.89,3.21,3.58,6.02,4.72,7.76.7,1.07,1.19,1.73,1.38,1.82.45-.23,1-.54,1.63-.91,1.49-.87,3.38-2.09,5.12-3.26,1.56-1.04,3.01-2.03,4.01-2.72.09-.06.18-.11.28-.15.65-.24,1.4.1,1.62.79.4,1.25.84,3.03.75,4.63-.15,2.8.59,6.78,5.45,5,1.36-.49,2.79-1.23,4.21-2.03"/>
      <line class="cls-12" x1="126.95" y1="14.09" x2="127.21" y2="14.33"/>
      <line class="cls-12" x1="118.23" y1="6.09" x2="126.94" y2="14.08"/>
      <path class="cls-12" d="m124.5,1.97s3.86,4.02,9.33,9.43c.23.23.46.45.69.68,9.98,9.82,24.75,23.68,31.52,26.56"/>
      <path class="cls-12" d="m132.45,13.16s.05.05.14.16c1.9,2.14,22.18,24.91,24.58,25.33"/>
      <path class="cls-12" d="m118.31,23.04s.29,9.28,0,9.87,0,1.32,2.07.59"/>
      <path class="cls-12" d="m124.5,29.52s5.16,6.48,9.28,7.07"/>
      <path class="cls-12" d="m118.21,36.59s.79.88,0,2.06"/>
      <path class="cls-12" d="m120.82,37.62c1.91-.29,4.93-1.71,6.19-2.95"/>
      <path class="cls-12" d="m122.58,25.03s3.97-.67,5.6-1.99"/>
      <path class="cls-12" d="m112.27,28.42s2.8-.38,3.54-1.71"/>
      <path class="cls-12" d="m122.58,20.31s3.38-1.55,4.42-1.55"/>
      <line class="cls-12" x1="114.04" y1="22.16" x2="110.94" y2="22.16"/>
      <path class="cls-12" d="m129.14,43.91l5.97,13.61s4.06-13.43,3.39-18.38h0"/>
      <path class="cls-12" d="m254.37,121.3c4.52,1.06,9.05,4.65,9.05,4.65l-32.26,18.57h-16.8l-13.26,6.19-2.97-1.02-11.83-4.07-5.97,3.76-5.31-3.53-49.94-.44-8.84-3.76-10.83-.67-4.86-2.43-.88-.44-17.02.17-4.86.05s-13.26-1.55-19.67-1.55-9.28-7.29-10.16-11.05c-.64-2.7-1.85-6.89-2.48-9.03-.21-.72.26-1.45,1-1.57.63-.1,1.23-.33,1.75-.68.22-.14.42-.29.61-.48.64-.6,1.09-1.38,1.27-2.29l.93-4.53,4.86-9.18,1.54-4.96s7.74-6.41,12.38-9.06,11.27-6.63,11.27-6.63c0,0,9.71-13.74,13.04-18.34,5.75-7.95,16.07-19,19.41-19.22"/>
      <path class="cls-12" d="m172.41,45.26l7.62,7.79,1.19,1.22s10.91,31.53,14.14,34.18c3.25,2.65,3.57,3.47,3.57,3.47,0,0,22.07-9.07,23.84-9.66.61-.2,1.1-.41,1.53-.42.83-.03,1.51.62,2.67,3.23,1.77,3.97,1.99,9.72,1.99,9.72,0,0,7.67-.48,11.73-.22.72.04,1.32.11,1.76.22,2.87.67,7.51,4.2,8.4,6.63.87,2.41,3.27,15.01,2.45,19.54,0,.04,0,.09-.02.13.35.05.69.11,1.05.2"/>
      <path class="cls-12" d="m109.13,76.54c-.48,2.62-.94,4.62-1.29,5.21-1.32,2.21-12.81,21.66-20.99,27.84-8.17,6.19-18.12,11.93-20.99,13.48s-5.75,1.55-5.75,1.55c0,0-.9-4.11-1.87-9.18-1.23-6.45-2.58-14.44-2.33-17.46"/>
      <path class="cls-12" d="m107.48,55c4.35.48,3.77.85,4.57,2.16,0,0,0,.09-.03.25-.13,1-.63,4.79-1.26,9.1-.49,3.38-1.06,7.07-1.61,10"/>
      <path class="cls-12" d="m89.29,98.1s-13.26,7.07-18.34,7.51"/>
      <path class="cls-12" d="m81.11,77.33s-3.32,10.16-9.28,13.26"/>
      <path class="cls-12" d="m109.15,76.05c0,.15,0,.3,0,.46,0,0,0,.02,0,.03-.58,12.94-16.39,38.83-21.63,41.45-5.31,2.65-17.44,5.31-21.64,5.08"/>
      <path class="cls-12" d="m112.38,57.51c2.6-1.99,6.41-5.38,7.51-4.67,1.1.71,4.62,2.29,4.62,2.29,0,0-.16,1.66-.39,3.37-.2,1.58-.47,3.2-.72,3.57-.17.27-1.75.73-3.68,1.06-.93.16-1.94.29-2.92.35-.29.02-.58.08-.86.16-2.02.65-3.71,2.96-4.75,2.95"/>
      <path class="cls-12" d="m119.65,55c.25,1.14,1.43,1.72,4.72,1.42"/>
      <line class="cls-12" x1="121.48" y1="58.43" x2="124.12" y2="58.49"/>
      <line class="cls-12" x1="121.44" y1="60.16" x2="123.86" y2="60.22"/>
      <polyline class="cls-12" points="147.78 44.75 147.78 44.82 147.69 59.63 147.53 89.67 147.51 92.79 147.49 97.49"/>
      <path class="cls-12" d="m174.88,64.59c-.77,4.27-2.75,9.86-7.36,15.04-1.59,1.78-3.49,3.52-5.75,5.14-2.13,1.52-4.28,3.19-6.33,4.9-3.09,2.59-5.91,5.3-7.96,7.82-2.23,2.73-3.57,5.25-3.39,7.16.03.28.07.6.14.96.9,5.04,5.45,17.49,8.66,21.97.56.79,1.08,1.32,1.54,1.53.65.29,1.87.55,3.41.74,1.29.16,2.8.29,4.37.41,2.68.19,5.57.3,7.9.36,2.76.09,4.76.1,4.76.1,2.12,2.29,4.29,3.56,7.96,4.47,1.69.42,3.7.76,6.19,1.09,1.46.21,3.08.4,4.89.61.03,0,.08,0,.11,0,11.64,1.32,19.74,5.01,26.81,4.72,7.07-.29,14.25-7.21,14.25-7.21,0,0,.19-.6-1.43-4.73-1.18-3-6.02-10.45-9.37-15.25-1.26-1.79-2.29-3.22-2.86-3.9-1.97-2.4-7.46-2.09-14.39-2.84-.3-.03-.61-.07-.93-.1-7.37-.88-20.77-1.77-27.7-3.83-6.92-2.06-13.26-5-15.61-5.67"/>
      <path class="cls-12" d="m150.59,102c3.37,1.91,13.68,16.06,16.48,17.24,1.24.52,4.47,1.26,7.69,3,4.05,2.2,8.08,5.99,8.08,12.95"/>
      <path class="cls-12" d="m174.76,122.27c-1.86.03-4.02.66-6.66,1.86-2.82,1.27-6.18,3.19-10.26,5.71"/>
      <polyline class="cls-12" points="168.1 124.14 170.12 130.63 170.12 130.64"/>
      <path class="cls-12" d="m189.01,136.3s0,0,.02,0c10.92-2.61,38.94-5.59,46.06-1.87"/>
      <path class="cls-12" d="m224.29,114.45c6.54,1.02,23.59,4.89,28.99,6.5.42.12.77.23,1.03.33.03,0,.04,0,.06.02"/>
      <polyline class="cls-12" points="207.04 107.71 207.04 107.71 209.29 106.86 228.73 99.57 235.1 100.97 240.68 94.57"/>
      <path class="cls-12" d="m198.93,91.92s3.29,12.21,10.36,14.94"/>
      <path class="cls-12" d="m152.9,41.55c.76,3.73,2.68,32.31,2.54,38.94s0,9.17,0,9.17"/>
      <path class="cls-12" d="m162.51,53.05c.59,3.28-.74,31.72-.74,31.72"/>
      <path class="cls-12" d="m169.22,47.08h0c-.04.5-1.71,19.62-1.71,23.4v9.14"/>
      <line class="cls-12" x1="123.91" y1="44.53" x2="134.04" y2="71.82"/>
      <path class="cls-12" d="m147.78,59.43s-.03.07-.09.2c-.55,1.3-3.74,8.72-7.43,16.9-4.71,10.46-10.21,22.11-12.02,23.66-.03.03-.04.03-.06.05"/>
      <path class="cls-12" d="m123.91,44.53c-.11,1.16.27,5.41.99,10.54,1.22,8.65,3.4,19.78,5.84,22.64"/>
      <path class="cls-12" d="m115.95,63.62c1.59,8.53-.03,21.54-2.69,33.67-.23,1.04-.47,2.08-.71,3.1-.35,1.45-.7,2.87-1.06,4.27-2.21,8.43-4.73,15.79-6.73,19.96-3.73.86-6.86.46-9.37-.47-5.25-1.93-7.88-6.16-7.88-6.16,0,0,2.32,14.99.15,17.44"/>
      <path class="cls-12" d="m119.73,63.11l3.76,22.39c2.67-1.67,5.07-4.4,7.25-7.79,1.16-1.8,2.27-3.78,3.31-5.89,4.26-8.57,7.64-19.22,10.73-27.91,0-.03.03-.06.03-.1"/>
      <path class="cls-12" d="m112.55,100.39s8.95,2.8,15.58,1.98c6.63-.82,16.84-7.89,19.38-9.58"/>
      <polyline class="cls-12" points="144.23 105.61 136.68 106.43 132.79 106.84"/>
      <line class="cls-12" x1="111.49" y1="104.66" x2="113.95" y2="105.17"/>
      <polygon class="cls-12" points="124.94 104.57 114.26 106.96 113.95 105.17 113.62 103.29 124.94 104.57"/>
      <polygon class="cls-12" points="124.94 104.57 133.13 103.81 132.78 106.84 132.74 107.25 124.94 104.57"/>
      <polyline class="cls-12" points="124.94 104.57 115.72 110.23 119.4 110.65 124.94 104.57"/>
      <path class="cls-12" d="m124.89,105.19l3.58,3.97c1.03.12-1.86.24-3.97-.45-.6-.2.39-3.52.39-3.52Z"/>
      <path class="cls-12" d="m123,110.61c-.7.41-1.51.92-2.36,1.53-3.94,2.8-8.81,7.67-8.14,13.93.81,7.62,2.43,14.98,3.76,15.57"/>
      <path class="cls-12" d="m95.03,125.1c0,.54.03,1.33.12,2.29.35,3.56,1.56,9.24,5.4,11.16"/>
      <path class="cls-12" d="m95.15,127.38c-2.61,2.04-4.87,5.55-7.5,8.05-.05.05-.1.1-.15.14-1.46,1.37-3.04,2.41-4.85,2.7"/>
      <path class="cls-12" d="m48.24,114.45s6.37,1.97,10.01.99"/>
      <path class="cls-12" d="m175.03,145.83s-10.38-8.57-12.81-15.57"/>
      <path class="cls-12" d="m186.31,145.61s5.7-6.99,7.29-7.76c.07-.03.15-.04.23-.03,1.63.36,4.32,11.86,4.32,11.86"/>
      <path class="cls-12" d="m131.95,12.55c-1.44,1.36-3.89,2.03-4.73,1.79,0,0,0,0-.02,0-.15-.05-.24-.13-.26-.24,0,0,0,0,0,0,0-.08.02-.17.09-.29.69-1.15,4.92-1.25,4.92-1.25Z"/>
      <path class="cls-12" d="m132.04,12.69s.03-.04.05-.07c.25-.4.93-.84,1.73-1.21,1.15-.55,2.56-.97,3.34-.97.3,0,.51.07.57.21.18.43-1.6,1.01-3.22,1.45-1.02.28-1.98.49-2.34.56-.09.03-.14.03-.14.03Z"/>
      <path class="cls-12" d="m132.04,12.69s-.99,2.81-1.05,3.87"/>
      <path class="cls-12" d="m131.95,12.55s.1.04.15.07c.03,0,.05.03.09.03.17.09.36.17.58.26,1.51.67,3.8,1.62,4.26,2.26"/>
      <line class="cls-12" x1="137.75" y1="10.14" x2="138.53" y2="9.67"/>
      <path class="cls-12" d="m152.9,41.55c1.58,1.55,1.58,2.8,6.66,2.55"/>
      <path class="cls-12" d="m180.03,53.05c27.26,22.29,40.62,22.67,44.26,28.79"/>
      <path class="cls-12" d="m119.73,63.11s.68,16.68.57,27.47c-.04,4.53-.23,8.01-.68,8.8"/>
      <polyline class="cls-12" points="120.29 90.59 120.3 90.59 121.92 90.59 123.48 85.51"/>
      <path class="cls-12" d="m136.73,106.86c.44,3.98,8.92,22.56,16.17,20.72h0"/>
      <path class="cls-12" d="m140.27,76.52s1.01,9.84.74,17.16"/>
      <path class="cls-12" d="m113.26,97.29l6.36,2.09s3.38,1.9,8.62.8c1.7-.35,3.58-1.02,5.62-2.17,2.76-1.57,5.18-3,7.2-4.24,4.05-2.48,6.41-4.1,6.41-4.1"/>
      <line class="cls-12" x1="228.73" y1="99.57" x2="228.95" y2="94.78"/>
    </g>
  </g>
</svg>