<?xml version="1.0" encoding="utf-8"?>
<!-- Generator: Adobe Illustrator 28.0.0, SVG Export Plug-In . SVG Version: 6.00 Build 0)  -->
<svg version="1.1" xmlns="http://www.w3.org/2000/svg" xmlns:xlink="http://www.w3.org/1999/xlink" x="0px" y="0px"
	 viewBox="0 0 270 211.2" style="enable-background:new 0 0 270 211.2;" xml:space="preserve">
<style type="text/css">
	.st0{fill:#E5EBD8;}
	.st1{fill:#D33D30;}
	.st2{fill:#E4F4AE;}
	.st3{fill:#FFFADA;}
	.st4{fill:#7AC6E0;}
	.st5{fill:none;stroke:#000000;stroke-miterlimit:10;}
	.st6{fill:#FC8368;}
	.st7{fill:#FF493D;}
	.st8{fill:#7AD6ED;}
	.st9{fill:#F4D5BD;}
	.st10{fill:#333333;}
	.st11{fill:none;stroke:#000000;stroke-linecap:round;stroke-linejoin:round;stroke-miterlimit:10;}
</style>
<g id="レイヤー_1">
</g>
<g id="レイヤー_3">
	<g>
		<polygon class="st0" points="270,165.5 270,170.7 261.6,165.5 		"/>
		<rect x="241.7" y="170.7" class="st0" width="14" height="39.9"/>
		<polygon class="st0" points="252.7,165.5 255.7,170.7 241.7,170.7 238.7,165.5 		"/>
		<rect x="218" y="170.7" class="st0" width="10.8" height="39.9"/>
		<polygon class="st0" points="225.8,165.5 228.8,170.7 218,170.7 215,165.5 		"/>
		<rect x="194.2" y="170.7" class="st0" width="10.8" height="39.9"/>
		<polygon class="st0" points="202,165.5 205,170.7 194.2,170.7 191.2,165.5 		"/>
		<rect x="170.5" y="170.7" class="st0" width="10.8" height="39.9"/>
		<polygon class="st0" points="178.3,165.5 181.2,170.7 170.5,170.7 167.5,165.5 		"/>
		<rect x="146.7" y="170.7" class="st0" width="10.8" height="39.9"/>
		<polygon class="st0" points="154.5,165.5 157.5,170.7 146.7,170.7 143.7,165.5 		"/>
		<rect x="122.9" y="170.7" class="st0" width="10.8" height="39.9"/>
		<polygon class="st0" points="130.7,165.5 133.7,170.7 122.9,170.7 119.9,165.5 		"/>
		<rect x="99.2" y="170.7" class="st0" width="10.8" height="39.9"/>
		<polygon class="st0" points="107,165.5 110,170.7 99.2,170.7 96.2,165.5 		"/>
		<rect x="75.4" y="170.7" class="st0" width="10.8" height="39.9"/>
		<polygon class="st0" points="83.2,165.5 86.2,170.7 75.4,170.7 72.4,165.5 		"/>
		<rect x="51.6" y="170.7" class="st0" width="10.8" height="39.9"/>
		<polygon class="st0" points="59.4,165.5 62.4,170.7 51.6,170.7 48.7,165.5 		"/>
		<rect x="27.9" y="170.7" class="st0" width="10.8" height="39.9"/>
		<polygon class="st0" points="35.7,165.5 38.7,170.7 27.9,170.7 24.9,165.5 		"/>
		<rect x="0.2" y="170.7" class="st0" width="14.7" height="39.9"/>
		<polygon class="st0" points="11.9,165.5 14.9,170.7 0.2,170.7 0.2,165.5 		"/>
		<rect x="255.7" y="170.7" class="st1" width="14.3" height="39.9"/>
		<polygon class="st2" points="270,118.9 270,165.5 261.6,165.5 252.7,165.5 238.7,165.5 225.8,165.5 215,165.5 202,165.5 
			191.2,165.5 178.3,165.5 167.5,165.5 154.5,165.5 143.7,165.5 130.7,165.5 119.9,165.5 107,165.5 96.2,165.5 83.2,165.5 
			72.4,165.5 59.4,165.5 48.7,165.5 35.7,165.5 24.9,165.5 11.9,165.5 0.2,165.5 0.2,119.2 		"/>
		<polygon class="st3" points="270,118.1 270,118.9 0.2,119.2 37.2,118.9 254.2,118.1 		"/>
		<polygon class="st3" points="270,112.1 270,118.1 254.2,118.1 37.2,118.9 0.2,119.2 0.2,118.1 0.2,112.1 		"/>
		<polygon class="st1" points="270,170.7 255.7,170.7 252.7,165.5 261.6,165.5 		"/>
		<rect x="228.8" y="170.7" class="st4" width="13" height="39.9"/>
		<polygon class="st4" points="238.7,165.5 241.7,170.7 228.8,170.7 225.8,165.5 		"/>
		<rect x="205" y="170.7" class="st1" width="13" height="39.9"/>
		<polygon class="st1" points="215,165.5 218,170.7 205,170.7 202,165.5 		"/>
		<rect x="181.2" y="170.7" class="st4" width="13" height="39.9"/>
		<polygon class="st4" points="191.2,165.5 194.2,170.7 181.2,170.7 178.3,165.5 		"/>
		<rect x="157.5" y="170.7" class="st1" width="13" height="39.9"/>
		<polygon class="st1" points="167.5,165.5 170.5,170.7 157.5,170.7 154.5,165.5 		"/>
		<rect x="133.7" y="170.7" class="st4" width="13" height="39.9"/>
		<polygon class="st4" points="143.7,165.5 146.7,170.7 133.7,170.7 130.7,165.5 		"/>
		<rect x="110" y="170.7" class="st1" width="13" height="39.9"/>
		<polygon class="st1" points="119.9,165.5 122.9,170.7 110,170.7 107,165.5 		"/>
		<rect x="86.2" y="170.7" class="st4" width="13" height="39.9"/>
		<polygon class="st4" points="96.2,165.5 99.2,170.7 86.2,170.7 83.2,165.5 		"/>
		<rect x="62.4" y="170.7" class="st1" width="13" height="39.9"/>
		<polygon class="st1" points="72.4,165.5 75.4,170.7 62.4,170.7 59.4,165.5 		"/>
		<rect x="38.7" y="170.7" class="st4" width="13" height="39.9"/>
		<polygon class="st4" points="48.7,165.5 51.6,170.7 38.7,170.7 35.7,165.5 		"/>
		<rect x="14.9" y="170.7" class="st1" width="13" height="39.9"/>
		<polygon class="st1" points="24.9,165.5 27.9,170.7 14.9,170.7 11.9,165.5 		"/>
	</g>
	<g>
		<polyline class="st5" points="0.2,165.5 11.9,165.5 24.9,165.5 35.7,165.5 48.7,165.5 59.4,165.5 72.4,165.5 83.2,165.5 
			96.2,165.5 107,165.5 119.9,165.5 130.7,165.5 143.7,165.5 154.5,165.5 167.5,165.5 178.3,165.5 191.2,165.5 202,165.5 215,165.5 
			225.8,165.5 238.7,165.5 252.7,165.5 261.6,165.5 270,170.7 		"/>
		<polyline class="st5" points="270,210.7 255.7,210.7 241.7,210.7 228.8,210.7 218,210.7 205,210.7 194.2,210.7 181.2,210.7 
			170.5,210.7 157.5,210.7 146.7,210.7 133.7,210.7 122.9,210.7 110,210.7 99.2,210.7 86.2,210.7 75.4,210.7 62.4,210.7 51.6,210.7 
			38.7,210.7 27.9,210.7 14.9,210.7 0.2,210.7 		"/>
		<polyline class="st5" points="252.7,165.5 255.7,170.7 255.7,210.7 		"/>
		<polyline class="st5" points="238.7,165.5 241.7,170.7 241.7,210.7 		"/>
		<polyline class="st5" points="225.8,165.5 228.8,170.7 228.8,210.7 		"/>
		<polyline class="st5" points="215,165.5 218,170.7 218,210.7 		"/>
		<polyline class="st5" points="202,165.5 205,170.7 205,210.7 		"/>
		<polyline class="st5" points="191.2,165.5 194.2,170.7 194.2,210.7 		"/>
		<polyline class="st5" points="178.3,165.5 181.2,170.7 181.2,210.7 		"/>
		<polyline class="st5" points="167.5,165.5 170.5,170.7 170.5,210.7 		"/>
		<polyline class="st5" points="154.5,165.5 157.5,170.7 157.5,210.7 		"/>
		<polyline class="st5" points="143.7,165.5 146.7,170.7 146.7,210.7 		"/>
		<polyline class="st5" points="130.7,165.5 133.7,170.7 133.7,210.7 		"/>
		<polyline class="st5" points="119.9,165.5 122.9,170.7 122.9,210.7 		"/>
		<polyline class="st5" points="107,165.5 110,170.7 110,210.7 		"/>
		<polyline class="st5" points="96.2,165.5 99.2,170.7 99.2,210.7 		"/>
		<polyline class="st5" points="83.2,165.5 86.2,170.7 86.2,210.7 		"/>
		<polyline class="st5" points="72.4,165.5 75.4,170.7 75.4,210.7 		"/>
		<polyline class="st5" points="59.4,165.5 62.4,170.7 62.4,210.7 		"/>
		<polyline class="st5" points="48.7,165.5 51.6,170.7 51.6,210.7 		"/>
		<polyline class="st5" points="35.7,165.5 38.7,170.7 38.7,210.7 		"/>
		<polyline class="st5" points="24.9,165.5 27.9,170.7 27.9,210.7 		"/>
		<polyline class="st5" points="11.9,165.5 14.9,170.7 14.9,210.7 		"/>
		<polyline class="st5" points="270,170.7 255.7,170.7 241.7,170.7 228.8,170.7 218,170.7 205,170.7 194.2,170.7 181.2,170.7 
			170.5,170.7 157.5,170.7 146.7,170.7 133.7,170.7 122.9,170.7 110,170.7 99.2,170.7 86.2,170.7 75.4,170.7 62.4,170.7 51.6,170.7 
			38.7,170.7 27.9,170.7 14.9,170.7 0.2,170.7 		"/>
		<line class="st5" x1="261.6" y1="165.5" x2="270" y2="165.5"/>
		<line class="st5" x1="0.2" y1="112.1" x2="270" y2="112.1"/>
		<path class="st5" d="M0.2,210.7"/>
		<path class="st5" d="M0.2,170.7"/>
		<path class="st5" d="M0.2,165.5"/>
		<line class="st5" x1="0.2" y1="118.7" x2="270" y2="118.7"/>
	</g>
</g>
<g id="レイヤー_2">
	<g id="XMLID_00000106129797926054216150000009652951284119759511_">
		<g>
			<path class="st6" d="M242,76.7c0,0,3.6,28.5-31.4,67.7c-1.4-5.2-2.7-8.9-2.7-8.9s20.1-20,19.9-29.8c-0.4-2.5-3.3-5.4-6.2-7.7
				c2.6-7.8,0-23.9,0-23.9c0.6,0.8,2.6,1.2,6.2,1.2C238.2,75.3,241.8,76.6,242,76.7L242,76.7z"/>
			<path class="st7" d="M242,76.7c-0.2-0.1-3.8-1.4-14.2-1.4c-3.7,0-5.6-0.4-6.2-1.2c-1.2-1.5,2.2-4.3,7.4-8.1c0,0,0.1-0.1,0.1-0.1
				C229.1,65.8,239.4,73.4,242,76.7z"/>
			<path class="st6" d="M228.9,65.9C228.9,65.9,228.9,65.9,228.9,65.9c-5.1,3.9-8.5,6.7-7.3,8.2c0,0,2.6,16,0,23.9
				c-3.1-2.4-6.2-4.2-6.2-4.2c-0.2-1-0.5-2-0.9-3l0.2-0.1c2.1-8.7-7.1-23.8-8.3-25.7C207.8,66.2,219.8,67.9,228.9,65.9z"/>
			<path class="st8" d="M184.7,66.4c5.2,2.1,10.7,4.2,14.7,5.9l0.8,0.3l1.3,0.5l1.1,0.4c0.7,0.3,1.3,0.5,1.8,0.7
				c0.8,0.3,1.4,0.8,1.8,1.5c1.2,2.2,4.1,7.1,5.5,9.6c1.2,1.6,2.1,3.4,2.8,5.3l-2.4,0.8l-8,8.9c0,0,3.9,4.6,9.9,6.2l1.4-13
				c0,0,3.1,1.7,6.2,4.2c2.9,2.3,5.8,5.1,6.2,7.7c0.2,9.8-19.9,29.8-19.9,29.8c-13.2,4.9-36-11.1-36-11.1s-0.3-13.9-4.1-29.2
				c3.1-5.9,12.9-7.3,12.9-7.3l-5-10.4l-7.1,11.2l-2.8,0.4c-4.6-11.2-13.8-23.9-17.6-29c-1.1-1.5-1.8-2.3-1.8-2.3
				c1.4-1.4,2.6-3.2,3.6-5.1c0.4,0,20,0,25.8,10.3C178.4,63.9,181.5,65.2,184.7,66.4z"/>
			<path class="st7" d="M228.9,65.9c-9.1,2-21.1,0.3-22.5-0.9c-0.1-0.1-0.1-0.2-0.1-0.2c0-1.1,5.5-6.4,5.5-6.4
				S226.8,62.3,228.9,65.9z"/>
			<path class="st8" d="M215.4,93.8l-1.4,13c-6.1-1.6-9.9-6.2-9.9-6.2l8-8.9l2.4-0.8l0,0C214.9,91.8,215.2,92.8,215.4,93.8z"/>
			<path class="st6" d="M206.4,65c1.2,1.9,10.4,17,8.3,25.7l-0.2,0.1l0,0c-0.7-1.9-1.6-3.7-2.8-5.3c-1.5-2.5-4.3-7.4-5.5-9.6
				c-0.4-0.7-1-1.2-1.8-1.5c-0.5-0.2-1.1-0.4-1.8-0.7l-7.3-7.7l-0.5-0.5l-7.2-7.6l21.8,0.6l2.3,0.1c0,0-5.5,5.2-5.5,6.4
				C206.2,64.9,206.3,64.9,206.4,65z"/>
			<path class="st8" d="M210.6,144.4c1.2,4.5,2.6,10,3.4,15.3c-8.5,0.7-19.7-0.8-30.5-3.5c-6.7-1.7-13.2-3.7-19-6h0
				c-4.4-1.7-8.4-3.5-11.5-5.3l-0.2-2.3c4.7-1.9,16.2-17.6,16.2-17.6l2.9-0.7c0,0,22.8,16,36,11.1
				C207.9,135.4,209.2,139.1,210.6,144.4z"/>
			<path class="st7" d="M209.4,58.4l-21.8-0.6l14.4-7.2C202,50.5,208.3,54.7,209.4,58.4z"/>
			<path class="st6" d="M195.3,65.9l7.3,7.7l-1.1-0.4c-0.4-0.2-0.9-0.3-1.3-0.5l-0.8-0.3c-4-1.6-9.5-3.8-14.7-5.9l10.1-1.1
				L195.3,65.9z"/>
			<path class="st8" d="M201.6,73.1l-1.3-0.5C200.7,72.8,201.2,73,201.6,73.1z"/>
			<path class="st8" d="M175.7,77.4l5,10.4c0,0-9.8,1.4-12.9,7.3c-0.5-1.9-1.2-3.9-2-6l2.8-0.4L175.7,77.4z"/>
			<path class="st8" d="M155.9,124.2c0-0.3,0.4-4.4,1.2-20.4c0.8-16.8-15.4-37.9-15.4-37.9l-1.4-0.3c1.4-1.3,2.6-3.2,3.4-5.8
				c0.9-0.6,1.8-1.3,2.7-2.2c0,0,0.7,0.9,1.8,2.3c3.9,5.1,13,17.8,17.6,29c0.9,2.1,1.5,4.1,2,6c3.8,15.3,4.1,29.2,4.1,29.2L169,125
				c0,0-11.6,15.7-16.2,17.6l0.2,2.3c-8,7.5-26.6,14.1-39.8,18.1c-8.2,2.5-14.3,3.9-14.3,3.9c-1.8,0-3.6-2.3-5.1-5.5
				c-1.1-2.3-2.1-5-2.9-7.6c-1.3-4.1-2.1-7.9-2.2-9.4c-0.2-3-1.7-4-2.7-4l0.1-1.8l2.5,0.2l13.7,1.1c0.8,1.7,1.3,2.7,1.3,2.7
				c7.8-3.3,16.9-6.6,21.5-12.8c0,0,15.7,2.2,22.5-0.9C150.6,127.5,153.6,125.7,155.9,124.2z"/>
			<path class="st6" d="M183.5,156.2c-13.1,12.5-32.9,2.3-32.9,2.3v0c4.9-1.9,9.7-4.6,13.9-8.2h0
				C170.2,152.4,176.8,154.5,183.5,156.2z"/>
			<path class="st8" d="M104.3,78.5l2.3-0.2V65.9l-12.8,5.4C93.8,71.3,99.2,74.6,104.3,78.5z M70.9,88.6l3.2-6.8l0.5-1.1
				c5.3-11.7,27.7-23,27.7-23l4.2-1.3c0,0,4.5-1.3,7.9-2.5c0,0,6.6,11.6,10.8,13.3c3.8,1.5,10.4,2.7,15-1.6l1.4,0.3
				c0,0,16.2,21.2,15.4,37.9c-0.7,16-1.1,20.1-1.2,20.4c-2.3,1.5-5.3,3.2-8.3,4.6c-6.8,3.1-22.5,0.9-22.5,0.9
				c-4.5,6.2-13.7,9.5-21.5,12.8c0,0-0.5-1-1.3-2.7c-0.8-1.6-2-3.9-3.4-6.4c-1.8-3.2-4.1-6.8-6.7-10.2c1.1,5.4-2.3,14.7-9.1,15.1
				c-4,0.2-10.5-3-15.2-5.6c-3.3-1.9-5.8-3.6-5.8-3.6l0,0c-0.6-0.6-19-19.2-21.6-23.6c-2.6-4.5-14.2-9.9-14.2-9.9
				c2.5-1.4,29.4-11.8,36.2-10.9c0.6,0.1,1.4,0.3,2.3,0.7C66.6,86.1,68.6,87.3,70.9,88.6z"/>
			<path class="st6" d="M153,144.9c3.1,1.8,7.1,3.6,11.5,5.3c-4.2,3.7-8.9,6.3-13.9,8.2c-17.4,6.8-36.7,4.5-37.4,4.5
				C126.3,159,145,152.4,153,144.9z"/>
			<path class="st9" d="M135.5,60.8c-2.6,1.7-4.2,2.7-8.6,1.7c-4.4-0.9-9.4-10-9.4-10c2.2-1.4,4.8-5.2,4.8-5.2l7.3-4.7
				c-0.7,0.1-1.3,0.1-1.6,0.1c-1.1,0-1.9-2.2-2-3.4c-0.1-1.2-0.1-4.2,1.2-4.4c2.4-0.4,3.4,2.7,3.5,3.2c0.1,0.3,1,0.8,1.9,1.3
				c0.3-0.4,0.6-0.8,0.8-1.3c1.6-2.9,4.6-8.7,4.6-14.6c5.7,0.7,11.4,0.3,11.4,0.3l3.5,3.7c0,0,0.7,17.6-1.6,22.4
				c-0.4,0.9-0.9,1.8-1.4,2.6c-1.1,1.9-2.2,3.7-3.6,5.1c-0.8,0.9-1.7,1.6-2.7,2.2c-0.8,0.4-1.6,0.8-2.4,0.9
				C139.4,61.2,137.3,61.1,135.5,60.8L135.5,60.8z M152.1,30c0-0.6-0.8-1-1.8-1s-1.8,0.4-1.8,1c0,0.6,0.8,1,1.8,1
				S152.1,30.6,152.1,30z M144.2,54.1l1.5-1.5c-1,0.2-3,0-3,0l-1,1.5C141.8,54,143.3,54.3,144.2,54.1z M142.8,30c0-0.5-0.9-1-2-1
				s-2,0.4-2,1s0.9,1,2,1S142.8,30.5,142.8,30z"/>
			<path class="st10" d="M152.9,27.6l-3.5-3.7c0,0-5.7,0.4-11.4-0.3c0,5.9-3,11.7-4.6,14.6c-0.2,0.4-0.5,0.9-0.8,1.3
				c-0.9-0.4-1.8-1-1.9-1.3c-0.1-0.5-1.1-3.7-3.5-3.2c-1.2,0.2-1.2,3.2-1.2,4.4c0.1,1.2,0.9,3.4,2,3.4c0.3,0,1,0,1.6-0.1l-7.3,4.7
				c0,0,2.9-5.7,2.9-5.9c0-0.2-2-4.1-1.8-6.4c0.1-2.3,2.4-6.5,3.2-8.2c0.8-1.7,4.6-7.7,4.6-7.7l-4.9-1.2v-2.3l6.6,0.3l0.3-2.2
				c0,0-3.2-5.2-5.1-5c-4.5,0.8-10.2,9.3-15.8,19.8c-0.5,1-1,2-1.4,3.1l-2.6-1.1c0.8-1.9,1.7-3.8,2.8-5.8
				c8.9-16.7,16.2-23.7,23.4-17.3c0,0,2.6-4.5,5.2-6.3c2.6-1.8,5.5,0.2,5.4,2.1c-0.1,1.9-0.4,5.2-2.8,10l7.2-0.3v1.7l-3,0.2
				l-0.5,0.8C145.6,15.6,150.8,20.6,152.9,27.6z"/>
			<ellipse class="st10" cx="150.3" cy="30" rx="1.8" ry="1"/>
			<path class="st6" d="M145.7,52.6l-1.5,1.5c-0.8,0.2-2.3,0-2.5,0l1-1.5C142.7,52.6,144.7,52.8,145.7,52.6z"/>
			<path class="st10" d="M140.8,29c1.1,0,2,0.4,2,1s-0.9,1-2,1s-2-0.4-2-1S139.8,29,140.8,29z"/>
			<path class="st8" d="M141.3,60.8c0.9-0.2,1.7-0.5,2.4-0.9c-0.8,2.6-2,4.4-3.4,5.8c-4.5,4.3-11.2,3.2-15,1.6
				c-4.3-1.7-10.8-13.3-10.8-13.3c1.3-0.5,2.4-0.9,3-1.3c0,0,5,9,9.4,10c4.4,0.9,6,0,8.6-1.7h0C137.3,61.1,139.4,61.2,141.3,60.8z"
				/>
			<path class="st10" d="M108.1,30.6l2.6,1.1c-4.2,10.5-4.2,24.7-4.2,24.7l-4.2,1.3C102.3,57.7,102,45.1,108.1,30.6z"/>
			<path class="st8" d="M106.5,65.9v12.4l-2.3,0.2c-5-3.9-10.5-7.2-10.5-7.2L106.5,65.9z"/>
			<path class="st6" d="M102.3,139.9l-13.7-1.1v0l10.2-5.3C100.3,136,101.5,138.2,102.3,139.9z"/>
			<path class="st6" d="M98.9,133.4l-10.2,5.3v0l-2.5-0.2l-3.1-0.2c6.8-0.4,10.2-9.7,9.1-15.1C94.8,126.6,97,130.3,98.9,133.4z"/>
			<path class="st6" d="M93.8,161.4L93.8,161.4c-6.3,0.5-8.1-5.2-8.1-5.2v0c2-0.4,3.8-1.1,5.2-2.4C91.7,156.4,92.7,159.1,93.8,161.4
				z"/>
			<path class="st6" d="M88.7,144.4c0.1,1.5,0.9,5.3,2.2,9.4c-1.3,1.2-3.2,2-5.2,2.4c-6.2,1.3-14.2-0.7-14.2-0.7
				c7.5-7.9,13.4-14.5,14-15c0.1-0.1,0.3-0.2,0.5-0.2C86.9,140.4,88.5,141.3,88.7,144.4z"/>
			<path class="st8" d="M86.2,138.6l-0.1,1.8c-0.2,0-0.4,0.1-0.5,0.2c-0.6,0.5-6.5,7.1-14,15c-0.2,0.2-0.4,0.4-0.6,0.6
				c-0.7-0.9-1.3-5.3-1.8-10.1c-0.7-6.3-1.2-13.3-1.2-13.3c4.7,2.7,11.2,5.9,15.2,5.6L86.2,138.6z"/>
			<path class="st6" d="M74.1,81.8l-3.2,6.8c-2.2-1.4-4.3-2.5-6-3.2c0,0,0.6-6.4,1.9-14C66.8,71.4,72.2,81.9,74.1,81.8z"/>
			<path class="st7" d="M74.6,49.3c-0.6,0.5-1.2,1.3-1.7,2.1c-3.6,3.8-7.9,3.9-12.4,3.7c-1.2-0.1-3.5-0.3-6.2-0.5v-0.1
				c-5-0.8-3.4-5.3-3.4-5.3s2.4-4.2,6.5-4.8C64.9,43.6,72.7,47,74.6,49.3z"/>
			<path class="st6" d="M69.1,146L69.1,146c-5-1-9.2-5.3-12.3-9.9c-4.3-6.4-6.7-13.4-6.7-13.4c3.6,2.3,7.7,4.6,12.1,6.5l0,0
				c0,0,2.4,1.6,5.8,3.6C67.9,132.7,68.3,139.6,69.1,146z"/>
			<path class="st6" d="M72.9,51.5c-2.8,4.5-4.8,12.8-6.1,20c-1.3,7.6-1.9,14-1.9,14c-0.9-0.4-1.7-0.6-2.3-0.7
				c-6.7-0.8-33.6,9.5-36.2,10.9c0,0-4.4-12.1-7.2-26.7c0,0,22.3,0.1,24,0c1.7-0.1,0.7-2.1-2.2-4.3c-2.1-1.6-4.6-4.3-4.1-6.6
				c0.1-0.3,0.2-0.6,0.3-0.9c0.3-0.6,0.9-1.1,1.8-1.6c3-1.6,10-1.4,15.3-1c2.7,0.2,5,0.4,6.2,0.5C65,55.4,69.3,55.3,72.9,51.5z"/>
			<path class="st6" d="M56.7,136l-1,0.1c-26.5-3.2-29.1-37-29.2-37.8c1.9,4.9,9.8,15.4,23.5,24.3C50,122.6,52.4,129.6,56.7,136z"/>
			<path class="st7" d="M54.3,54.6L54.3,54.6c-5.3-0.3-12.3-0.5-15.3,1c-0.9,0.5-1.5,1-1.8,1.6c0,0,0.4-6.3,5.5-7.4
				c2.6-0.2,5.3-0.2,8.2-0.5C50.9,49.3,49.3,53.8,54.3,54.6z"/>
			<path class="st6" d="M40.5,105.5c2.5,4.4,21,23,21.6,23.6c-4.4-2-8.5-4.2-12.1-6.5c-13.8-8.9-21.6-19.4-23.5-24.3c0,0,0,0,0,0
				c-0.6-1.4-0.6-2.4-0.1-2.7C26.4,95.7,38,101.1,40.5,105.5z"/>
			<path class="st7" d="M41,64.7c2.9,2.2,3.9,4.2,2.2,4.3c-1.7,0.1-24,0-24,0s0.9-4.7,9.7-6.1C28.9,62.9,34.5,61.3,41,64.7z"/>
			<path class="st7" d="M42.7,49.9c-5.1,1.1-5.5,7.4-5.5,7.4c-0.2,0.3-0.2,0.6-0.3,0.9c0,0-5.1-0.3-7.9,4.8
				C31.1,51.9,36.3,50.3,42.7,49.9z"/>
			<path class="st7" d="M28.9,62.9c2.8-5.2,7.9-4.8,7.9-4.8c-0.4,2.3,2.1,5,4.1,6.6C34.5,61.3,28.9,62.9,28.9,62.9z"/>
		</g>
		<g>
			<path class="st11" d="M152.9,27.6c-2-7-7.2-12-7.2-12l0.5-0.8l3-0.2V13l-7.2,0.3c2.4-4.8,2.6-8.1,2.8-10c0.1-1.9-2.8-4-5.4-2.1
				c-2.6,1.8-5.2,6.3-5.2,6.3c-7.1-6.4-14.4,0.6-23.4,17.3c-1,1.9-2,3.9-2.8,5.8c-6.1,14.5-5.8,27.1-5.8,27.1l4.2-1.3
				c0,0,0-14.3,4.2-24.7c0.4-1.1,0.9-2.1,1.4-3.1c5.6-10.5,11.4-19,15.8-19.8c1.9-0.2,5.1,5,5.1,5l-0.3,2.2l-6.6-0.3V18l4.9,1.2
				c0,0-3.8,5.9-4.6,7.7c-0.8,1.7-3.1,5.9-3.2,8.2c-0.1,2.3,1.8,6.2,1.8,6.4c0,0.2-2.9,5.9-2.9,5.9l7.3-4.7
				c-0.7,0.1-1.3,0.1-1.6,0.1c-1.1,0-1.9-2.2-2-3.4c-0.1-1.2-0.1-4.2,1.2-4.4c2.4-0.4,3.4,2.7,3.5,3.2c0.1,0.3,1,0.8,1.9,1.3
				c0.3-0.4,0.6-0.8,0.8-1.3c1.6-2.9,4.6-8.7,4.6-14.6c5.7,0.7,11.4,0.3,11.4,0.3L152.9,27.6z"/>
			<path class="st11" d="M135.5,60.8c-2.5-0.5-4.8-1.5-6-2.9"/>
			<path class="st11" d="M152.9,27.6c0,0,0.7,17.6-1.6,22.4c-0.4,0.9-0.9,1.8-1.4,2.6c-1.1,1.9-2.2,3.7-3.6,5.1
				c-0.8,0.9-1.7,1.6-2.7,2.2c-0.8,0.4-1.6,0.8-2.4,0.9c-1.9,0.4-3.9,0.4-5.8,0.1"/>
			<path class="st11" d="M146.8,38.6l1.4,10.3c0,0-3.7,0.6-4,0.3"/>
			<line class="st11" x1="143.3" y1="47.3" x2="142.7" y2="49.3"/>
			<line class="st11" x1="138.5" y1="40" x2="143.3" y2="40.6"/>
			<line class="st11" x1="149.1" y1="40.6" x2="151.6" y2="40.6"/>
			<path class="st11" d="M142.8,30c0,0.5-0.9,1-2,1s-2-0.4-2-1s0.9-1,2-1S142.8,29.5,142.8,30z"/>
			<ellipse class="st11" cx="150.3" cy="30" rx="1.8" ry="1"/>
			<path class="st11" d="M142.7,52.6c0,0,2,0.2,3,0l-1.5,1.5c-0.8,0.2-2.3,0-2.5,0L142.7,52.6z"/>
			<path class="st11" d="M122.3,47.4c0,0-2.7,3.8-4.8,5.2c-0.6,0.4-1.7,0.9-3,1.3c-3.3,1.2-7.9,2.5-7.9,2.5"/>
			<path class="st11" d="M102.3,57.7c0,0-22.4,11.4-27.7,23l-0.5,1.1l-3.2,6.8"/>
			<path class="st11" d="M62.1,129.1c0,0,2.4,1.6,5.8,3.6c4.7,2.7,11.2,5.9,15.2,5.6c6.8-0.4,10.2-9.7,9.1-15.1
				c2.6,3.3,4.9,7,6.7,10.2c1.5,2.5,2.6,4.8,3.4,6.4c0.8,1.7,1.3,2.7,1.3,2.7c7.8-3.3,16.9-6.6,21.5-12.8c0.7-0.9,1.3-2,1.7-3
				c3.5-8.2,2.6-16.9-2-19.8c-1.6-1-5.6-1.9-10.4-3.1c-3-0.7-6.2-1.6-9.4-2.6c-6.6-2.1-12.8-5.1-14.6-9.6"/>
			<line class="st11" x1="92.2" y1="123.3" x2="117.9" y2="115.1"/>
			<polyline class="st11" points="83.1,138.3 86.2,138.6 88.7,138.8 102.3,139.9 			"/>
			<line class="st11" x1="88.7" y1="138.8" x2="98.9" y2="133.4"/>
			<path class="st11" d="M88,78.3c0,0,16.9,13,17.1,22.9"/>
			<path class="st11" d="M106.5,78.3V65.9l-12.8,5.4c0,0,5.5,3.2,10.5,7.2c3.7,2.9,7.1,6.1,8.1,8.8c2.2,6.3,2.1,16.5,2.1,16.5"/>
			<path class="st11" d="M113.2,61.1c0,0,9.9,23.2,9.1,33.9"/>
			<path class="st11" d="M114.4,53.9c0,0,6.6,11.6,10.8,13.3c3.8,1.5,10.4,2.7,15-1.6c1.4-1.3,2.6-3.2,3.4-5.8v0"/>
			<path class="st11" d="M117.5,52.6c0,0,5,9,9.4,10c4.4,0.9,6,0,8.6-1.7h0"/>
			<path class="st11" d="M141.7,65.9c0,0,16.2,21.2,15.4,37.9c-0.7,16-1.1,20.1-1.2,20.4c0,0,0,0,0,0"/>
			<path class="st11" d="M125.1,129.8c0,0,15.7,2.2,22.5-0.9c3.1-1.4,6-3.1,8.3-4.6c2.9-1.8,4.8-3.3,4.8-3.3"/>
			<path class="st11" d="M159.1,127.5l9.9-2.5l2.9-0.7c0,0-0.3-13.9-4.1-29.2c-0.5-1.9-1.2-3.9-2-6c-4.6-11.2-13.8-23.9-17.6-29
				c-1.1-1.5-1.8-2.3-1.8-2.3"/>
			<path class="st11" d="M169,125c0,0-11.6,15.7-16.2,17.6"/>
			<path class="st11" d="M207.9,135.4c0,0,20.1-20,19.9-29.8c-0.4-2.5-3.3-5.4-6.2-7.7c-3.1-2.4-6.2-4.2-6.2-4.2c-0.2-1-0.5-2-0.9-3
				l0,0c-0.7-1.9-1.6-3.7-2.8-5.3c-4.8-6.7-13.9-11.2-29.6-13.2"/>
			<path class="st11" d="M148.2,60c0,0,11.2-3.1,19.2,2.1c7.9,5.2,30.4,30.5,30.4,30.5s-6.2,17.2-5.7,23.9"/>
			<path class="st11" d="M203.3,102.7c0,0,0.1,24.4-1.3,25.8"/>
			<path class="st11" d="M214,106.8c2,0.5,4.2,0.8,6.5,0.4"/>
			<path class="st11" d="M212.1,91.6l-8,8.9c0,0,3.9,4.6,9.9,6.2"/>
			<path class="st11" d="M168.6,88.6l7.1-11.2l5,10.4c0,0-9.8,1.4-12.9,7.3"/>
			<path class="st11" d="M167.3,62.1c0,0-0.1,15.3-1.9,18.6"/>
			<polyline class="st11" points="215.4,93.8 214,106.8 214,106.8 			"/>
			<path class="st11" d="M202.7,73.6c0.7,0.3,1.3,0.5,1.8,0.7c0.8,0.3,1.4,0.8,1.8,1.5c1.2,2.2,4.1,7.1,5.5,9.6"/>
			<path class="st11" d="M200.2,72.6c0.5,0.2,0.9,0.4,1.3,0.5"/>
			<path class="st11" d="M149.9,52.6C149.9,52.6,149.9,52.6,149.9,52.6c0.4,0,20,0,25.8,10.3c2.6,1,5.8,2.2,9,3.5
				c5.2,2.1,10.7,4.2,14.7,5.9"/>
			<path class="st11" d="M164.5,150.2c5.7,2.2,12.3,4.3,19,6c10.8,2.7,22,4.2,30.5,3.5c-0.8-5.3-2.2-10.9-3.4-15.3
				c-1.4-5.2-2.7-8.9-2.7-8.9c-13.2,4.9-36-11.1-36-11.1"/>
			<path class="st11" d="M67.9,132.7c0,0,0.5,6.9,1.2,13.3c0.5,4.8,1.2,9.2,1.8,10.1c0.2-0.2,0.4-0.4,0.6-0.6
				c7.5-7.9,13.4-14.5,14-15c0.1-0.1,0.3-0.2,0.5-0.2c0.9,0,2.5,1,2.7,4c0.1,1.5,0.9,5.3,2.2,9.4c0.8,2.6,1.8,5.3,2.9,7.6
				c1.5,3.2,3.3,5.5,5.1,5.5c0,0,6.1-1.4,14.3-3.9c13.2-3.9,31.8-10.5,39.8-18.1c3.1,1.8,7.1,3.6,11.5,5.3"/>
			<path class="st11" d="M71.5,155.5c0,0,8,1.9,14.2,0.7c2-0.4,3.8-1.1,5.2-2.4"/>
			<path class="st11" d="M85.7,156.2c0,0,1.8,5.7,8.1,5.2"/>
			<path class="st11" d="M113.2,162.9C113.2,162.9,113.2,162.9,113.2,162.9c0.8,0.1,20.1,2.3,37.4-4.5c4.9-1.9,9.7-4.6,13.9-8.2h0"
				/>
			<path class="st11" d="M150.6,158.5c0,0,19.7,10.2,32.9-2.3"/>
			<path class="st11" d="M26.5,98.3c-0.6-1.4-0.6-2.4-0.1-2.7c2.5-1.4,29.4-11.8,36.2-10.9c0.6,0.1,1.4,0.3,2.3,0.7
				c1.7,0.7,3.8,1.8,6,3.2c9.2,5.6,21.3,15.2,21.3,15.2"/>
			<path class="st11" d="M62.1,129.1L62.1,129.1c-4.4-2-8.5-4.2-12.1-6.5c-13.8-8.9-21.6-19.4-23.5-24.3"/>
			<path class="st11" d="M64.9,85.5c0,0,0.6-6.4,1.9-14c1.3-7.2,3.3-15.5,6.1-20c0.5-0.8,1.1-1.6,1.7-2.1c-2-2.4-9.7-5.7-17.3-4.8
				c-4.1,0.5-6.5,4.8-6.5,4.8c-2.9,0.3-5.6,0.3-8.2,0.5c-6.4,0.5-11.6,2-13.8,13c-8.9,1.4-9.7,6.1-9.7,6.1
				c2.7,14.6,7.2,26.7,7.2,26.7s11.6,5.4,14.2,9.9c2.5,4.4,21,23,21.6,23.6"/>
			<path class="st11" d="M19.2,69c0,0,22.3,0.1,24,0c1.7-0.1,0.7-2.1-2.2-4.3c-2.1-1.6-4.6-4.3-4.1-6.6c0.1-0.3,0.2-0.6,0.3-0.9
				c0.3-0.6,0.9-1.1,1.8-1.6c3-1.6,10-1.4,15.3-1c2.7,0.2,5,0.4,6.2,0.5c4.5,0.2,8.8,0.2,12.4-3.7c0.6-0.6,1.1-1.3,1.7-2.1"/>
			<path class="st11" d="M50.9,49.3c0,0-1.6,4.5,3.4,5.3"/>
			<path class="st11" d="M26.5,98.3C26.5,98.3,26.5,98.3,26.5,98.3c0.1,0.8,2.7,34.6,29.2,37.8"/>
			<path class="st11" d="M50,122.6c0,0,2.4,7,6.7,13.4c3.2,4.7,7.3,9,12.3,9.9"/>
			<path class="st11" d="M185.2,66.6l14.2,5.7l0.8,0.3l1.3,0.5l1.1,0.4l-7.3-7.7l-0.5-0.5l-7.2-7.6l14.4-7.2c0,0,6.3,4.1,7.4,7.9"/>
			<polyline class="st11" points="194.8,65.4 184.7,66.4 184.7,66.4 			"/>
			<path class="st11" d="M242,76.7c0,0,3.6,28.5-31.4,67.7"/>
			<path class="st11" d="M187.6,57.7l21.8,0.6l2.3,0.1c0,0-5.5,5.2-5.5,6.4c0,0.1,0,0.1,0.1,0.2c1.4,1.2,13.4,2.8,22.5,0.9
				c0.1,0,0.1,0,0.2,0c-0.1,0-0.1,0.1-0.1,0.1c-5.1,3.8-8.6,6.6-7.4,8.1c0.6,0.8,2.6,1.2,6.2,1.2c10.4,0,13.9,1.3,14.2,1.4"/>
			<path class="st11" d="M221.6,74.1c0,0,2.6,16,0,23.9"/>
			<path class="st11" d="M206.2,64.8c0,0,0,0.1,0.1,0.2c1.2,1.9,10.4,17,8.3,25.7"/>
			<path class="st11" d="M211.7,58.4c0,0,15.1,3.9,17.2,7.4c0,0,0,0.1,0.1,0.1"/>
			<path class="st11" d="M229.1,65.8c0,0,10.3,7.6,12.9,10.8l0,0"/>
			<path class="st11" d="M66.8,71.4c0,0,5.3,10.4,7.3,10.3"/>
			<path class="st11" d="M37.2,57.2c0,0,0.4-6.3,5.5-7.4"/>
			<path class="st11" d="M36.9,58.1c0,0-5.1-0.3-7.9,4.8c0,0,5.6-1.6,12.1,1.8"/>
		</g>
	</g>
	<path class="st11" d="M44,68.9c-1.3,5.7-0.9,13-0.8,20"/>
</g>
</svg>
