<?xml version="1.0" encoding="utf-8"?>
<!-- Generator: Adobe Illustrator 27.9.0, SVG Export Plug-In . SVG Version: 6.00 Build 0)  -->
<svg version="1.1" id="レイヤー_1" xmlns="http://www.w3.org/2000/svg" xmlns:xlink="http://www.w3.org/1999/xlink" x="0px"
	 y="0px" viewBox="0 0 270 211.2" style="enable-background:new 0 0 270 211.2;" xml:space="preserve">
<style type="text/css">
	.st0{fill:#F8FFEA;}
	.st1{fill:#FF4A3A;}
	.st2{fill:#EEFFB6;}
	.st3{fill:#FFFADA;}
	.st4{fill:#8BE1FF;}
	.st5{fill:none;stroke:#000000;stroke-miterlimit:10;}
	.st6{fill:#333333;}
	.st7{fill:#FC8368;}
	.st8{fill:#FF493D;}
	.st9{fill:#7AD6ED;}
	.st10{fill:#F4D5BD;}
	.st11{fill:none;stroke:#000000;stroke-linecap:round;stroke-linejoin:round;}
</style>
<g id="_レイヤー_3">
	<g>
		<polygon class="st0" points="269.7,165.6 269.7,170.8 261.3,165.6 		"/>
		<rect x="241.5" y="170.8" class="st0" width="13.9" height="39.9"/>
		<polygon class="st0" points="252.5,165.6 255.4,170.8 241.5,170.8 238.5,165.6 		"/>
		<rect x="217.7" y="170.8" class="st0" width="10.8" height="39.9"/>
		<polygon class="st0" points="225.5,165.6 228.5,170.8 217.7,170.8 214.7,165.6 		"/>
		<rect x="194" y="170.8" class="st0" width="10.8" height="39.9"/>
		<polygon class="st0" points="201.8,165.6 204.8,170.8 194,170.8 191,165.6 		"/>
		<rect x="170.2" y="170.8" class="st0" width="10.8" height="39.9"/>
		<polygon class="st0" points="178,165.6 181,170.8 170.2,170.8 167.2,165.6 		"/>
		<rect x="146.4" y="170.8" class="st0" width="10.8" height="39.9"/>
		<polygon class="st0" points="154.2,165.6 157.2,170.8 146.4,170.8 143.5,165.6 		"/>
		<rect x="122.7" y="170.8" class="st0" width="10.8" height="39.9"/>
		<polygon class="st0" points="130.5,165.6 133.5,170.8 122.7,170.8 119.7,165.6 		"/>
		<rect x="98.9" y="170.8" class="st0" width="10.8" height="39.9"/>
		<polygon class="st0" points="106.7,165.6 109.7,170.8 98.9,170.8 95.9,165.6 		"/>
		<rect x="75.2" y="170.8" class="st0" width="10.8" height="39.9"/>
		<polygon class="st0" points="83,165.6 85.9,170.8 75.2,170.8 72.2,165.6 		"/>
		<rect x="51.4" y="170.8" class="st0" width="10.8" height="39.9"/>
		<polygon class="st0" points="59.2,165.6 62.2,170.8 51.4,170.8 48.4,165.6 		"/>
		<rect x="27.6" y="170.8" class="st0" width="10.8" height="39.9"/>
		<polygon class="st0" points="35.4,165.6 38.4,170.8 27.6,170.8 24.6,165.6 		"/>
		<rect y="170.8" class="st0" width="14.7" height="39.9"/>
		<polygon class="st0" points="11.7,165.6 14.7,170.8 0,170.8 0,165.6 		"/>
		<rect x="255.4" y="170.8" class="st1" width="14.3" height="39.9"/>
		<polygon class="st2" points="269.7,118.9 269.7,165.6 261.3,165.6 252.5,165.6 238.5,165.6 225.5,165.6 214.7,165.6 201.8,165.6 
			191,165.6 178,165.6 167.2,165.6 154.2,165.6 143.5,165.6 130.5,165.6 119.7,165.6 106.7,165.6 95.9,165.6 83,165.6 72.2,165.6 
			59.2,165.6 48.4,165.6 35.4,165.6 24.6,165.6 11.7,165.6 0,165.6 0,119.2 		"/>
		<polygon class="st3" points="269.7,118.2 269.7,118.9 0,119.2 37,118.9 253.9,118.2 		"/>
		<polygon class="st3" points="269.7,112.1 269.7,118.2 253.9,118.2 37,118.9 0,119.2 0,118.2 0,112.1 		"/>
		<polygon class="st1" points="269.7,170.8 255.4,170.8 252.5,165.6 261.3,165.6 		"/>
		<rect x="228.5" y="170.8" class="st4" width="13" height="39.9"/>
		<polygon class="st4" points="238.5,165.6 241.5,170.8 228.5,170.8 225.5,165.6 		"/>
		<rect x="204.8" y="170.8" class="st1" width="13" height="39.9"/>
		<polygon class="st1" points="214.7,165.6 217.7,170.8 204.8,170.8 201.8,165.6 		"/>
		<rect x="181" y="170.8" class="st4" width="13" height="39.9"/>
		<polygon class="st4" points="191,165.6 194,170.8 181,170.8 178,165.6 		"/>
		<rect x="157.2" y="170.8" class="st1" width="13" height="39.9"/>
		<polygon class="st1" points="167.2,165.6 170.2,170.8 157.2,170.8 154.2,165.6 		"/>
		<rect x="133.5" y="170.8" class="st4" width="13" height="39.9"/>
		<polygon class="st4" points="143.5,165.6 146.4,170.8 133.5,170.8 130.5,165.6 		"/>
		<rect x="109.7" y="170.8" class="st1" width="13" height="39.9"/>
		<polygon class="st1" points="119.7,165.6 122.7,170.8 109.7,170.8 106.7,165.6 		"/>
		<rect x="85.9" y="170.8" class="st4" width="13" height="39.9"/>
		<polygon class="st4" points="95.9,165.6 98.9,170.8 85.9,170.8 83,165.6 		"/>
		<rect x="62.2" y="170.8" class="st1" width="13" height="39.9"/>
		<polygon class="st1" points="72.2,165.6 75.2,170.8 62.2,170.8 59.2,165.6 		"/>
		<rect x="38.4" y="170.8" class="st4" width="13" height="39.9"/>
		<polygon class="st4" points="48.4,165.6 51.4,170.8 38.4,170.8 35.4,165.6 		"/>
		<rect x="14.7" y="170.8" class="st1" width="13" height="39.9"/>
		<polygon class="st1" points="24.6,165.6 27.6,170.8 14.7,170.8 11.7,165.6 		"/>
	</g>
	<g>
		<polyline class="st5" points="0,165.6 11.7,165.6 24.6,165.6 35.4,165.6 48.4,165.6 59.2,165.6 72.2,165.6 83,165.6 95.9,165.6 
			106.7,165.6 119.7,165.6 130.5,165.6 143.5,165.6 154.2,165.6 167.2,165.6 178,165.6 191,165.6 201.8,165.6 214.7,165.6 
			225.5,165.6 238.5,165.6 252.5,165.6 261.3,165.6 269.7,170.8 		"/>
		<polyline class="st5" points="269.7,210.7 255.4,210.7 241.5,210.7 228.5,210.7 217.7,210.7 204.8,210.7 194,210.7 181,210.7 
			170.2,210.7 157.2,210.7 146.4,210.7 133.5,210.7 122.7,210.7 109.7,210.7 98.9,210.7 85.9,210.7 75.2,210.7 62.2,210.7 
			51.4,210.7 38.4,210.7 27.6,210.7 14.7,210.7 0,210.7 		"/>
		<polyline class="st5" points="252.5,165.6 255.4,170.8 255.4,210.7 		"/>
		<polyline class="st5" points="238.5,165.6 241.5,170.8 241.5,210.7 		"/>
		<polyline class="st5" points="225.5,165.6 228.5,170.8 228.5,210.7 		"/>
		<polyline class="st5" points="214.7,165.6 217.7,170.8 217.7,210.7 		"/>
		<polyline class="st5" points="201.8,165.6 204.8,170.8 204.8,210.7 		"/>
		<polyline class="st5" points="191,165.6 194,170.8 194,210.7 		"/>
		<polyline class="st5" points="178,165.6 181,170.8 181,210.7 		"/>
		<polyline class="st5" points="167.2,165.6 170.2,170.8 170.2,210.7 		"/>
		<polyline class="st5" points="154.2,165.6 157.2,170.8 157.2,210.7 		"/>
		<polyline class="st5" points="143.5,165.6 146.4,170.8 146.4,210.7 		"/>
		<polyline class="st5" points="130.5,165.6 133.5,170.8 133.5,210.7 		"/>
		<polyline class="st5" points="119.7,165.6 122.7,170.8 122.7,210.7 		"/>
		<polyline class="st5" points="106.7,165.6 109.7,170.8 109.7,210.7 		"/>
		<polyline class="st5" points="95.9,165.6 98.9,170.8 98.9,210.7 		"/>
		<polyline class="st5" points="83,165.6 85.9,170.8 85.9,210.7 		"/>
		<polyline class="st5" points="72.2,165.6 75.2,170.8 75.2,210.7 		"/>
		<polyline class="st5" points="59.2,165.6 62.2,170.8 62.2,210.7 		"/>
		<polyline class="st5" points="48.4,165.6 51.4,170.8 51.4,210.7 		"/>
		<polyline class="st5" points="35.4,165.6 38.4,170.8 38.4,210.7 		"/>
		<polyline class="st5" points="24.6,165.6 27.6,170.8 27.6,210.7 		"/>
		<polyline class="st5" points="11.7,165.6 14.7,170.8 14.7,210.7 		"/>
		<polyline class="st5" points="269.7,170.8 255.4,170.8 241.5,170.8 228.5,170.8 217.7,170.8 204.8,170.8 194,170.8 181,170.8 
			170.2,170.8 157.2,170.8 146.4,170.8 133.5,170.8 122.7,170.8 109.7,170.8 98.9,170.8 85.9,170.8 75.2,170.8 62.2,170.8 
			51.4,170.8 38.4,170.8 27.6,170.8 14.7,170.8 0,170.8 		"/>
		<line class="st5" x1="261.3" y1="165.6" x2="269.7" y2="165.6"/>
		<line class="st5" x1="0" y1="112.1" x2="269.7" y2="112.1"/>
		<line class="st5" x1="0" y1="118.8" x2="269.7" y2="118.8"/>
	</g>
</g>
<g id="_レイヤー_2">
	<g>
		<g>
			<path class="st6" d="M150.1,29.1c1,0,1.8,0.5,1.8,1s-0.8,1-1.8,1s-1.8-0.5-1.8-1S149.1,29.1,150.1,29.1z"/>
			<path class="st6" d="M140.6,29.1c1.1,0,2,0.4,2,1s-0.9,1-2,1s-2-0.4-2-1S139.5,29.1,140.6,29.1z"/>
			<path class="st7" d="M241.7,76.8c0,0,3.6,28.5-31.4,67.7c-1.4-5.2-2.7-8.9-2.7-8.9s20.1-20,19.9-29.8c-0.4-2.6-3.3-5.4-6.2-7.7
				c2.6-7.8,0-23.9,0-23.9c0.6,0.8,2.6,1.2,6.2,1.2C238,75.3,241.5,76.7,241.7,76.8L241.7,76.8L241.7,76.8z"/>
			<path class="st8" d="M241.7,76.7c-0.2-0.1-3.8-1.4-14.2-1.4c-3.7,0-5.6-0.4-6.2-1.2c-1.2-1.5,2.2-4.3,7.4-8.1
				c0.1,0,0.1-0.1,0.1-0.1C228.8,65.9,239.2,73.5,241.7,76.7z"/>
			<path class="st7" d="M228.6,65.9C228.6,65.9,228.7,66,228.6,65.9c-5.1,3.9-8.5,6.7-7.3,8.2c0,0,2.6,16,0,23.9
				c-3.1-2.4-6.2-4.2-6.2-4.2c-0.2-1-0.5-2-0.9-3l0,0l0.2-0.1c2.1-8.7-7.1-23.8-8.3-25.7C207.5,66.2,219.5,67.9,228.6,65.9
				L228.6,65.9z"/>
			<path class="st9" d="M213.8,106.8l1.4-13c0,0,3.1,1.7,6.2,4.2c2.9,2.3,5.8,5.1,6.2,7.7c0.2,9.8-19.9,29.8-19.9,29.8
				c-13.2,4.9-36-11.2-36-11.2s-0.2-13.9-4.1-29.2c3.1-5.9,12.9-7.3,12.9-7.3l-5-10.4l-7.1,11.2l-2.8,0.4
				c-4.6-11.2-13.7-23.9-17.6-29c-1.1-1.5-1.8-2.4-1.8-2.4c1.4-1.4,2.6-3.2,3.6-5.1c0.4,0,20,0,25.8,10.3c2.6,1,5.8,2.3,9,3.5
				c0.2,0.1,0.4,0.1,0.5,0.2l9.7,3.9l3.7,1.5l4.1,1.6c0.7,0.3,1.3,0.5,1.8,0.7c0.8,0.3,1.4,0.8,1.8,1.5c1.2,2.2,4,7.1,5.5,9.6
				c0,0,0,0,0,0c1.2,1.6,2.1,3.4,2.8,5.3l0,0l-2.4,0.8l-8,8.9C203.8,100.6,207.7,105.2,213.8,106.8L213.8,106.8z"/>
			<path class="st8" d="M228.6,65.9c-9.1,2-21.1,0.3-22.5-0.9c-0.1-0.1-0.1-0.2-0.1-0.2c0-1.2,5.5-6.4,5.5-6.4
				S226.6,62.4,228.6,65.9L228.6,65.9z"/>
			<path class="st9" d="M215.1,93.8l-1.4,13c-6.1-1.6-9.9-6.2-9.9-6.2l8-8.9l2.4-0.8C214.6,91.8,214.9,92.8,215.1,93.8L215.1,93.8z"
				/>
			<path class="st7" d="M206.1,65.1c1.2,1.9,10.4,17,8.3,25.7l-0.2,0.1c-0.7-1.9-1.6-3.7-2.8-5.3c0,0,0,0,0,0
				c-1.5-2.5-4.3-7.4-5.5-9.6c-0.4-0.7-1-1.2-1.8-1.5c-0.5-0.2-1.1-0.4-1.8-0.7l-7.3-7.7l-0.5-0.5l-7.2-7.6l21.8,0.6l2.3,0.1
				c0,0-5.5,5.2-5.5,6.4C206,64.9,206,65,206.1,65.1z"/>
			<path class="st9" d="M210.4,144.4c1.2,4.5,2.6,10,3.4,15.3c-8.6,0.7-19.7-0.8-30.6-3.5c-6.7-1.7-13.2-3.7-19-6
				c-4.4-1.7-8.4-3.6-11.5-5.3l-0.2-2.3c4.7-1.9,16.2-17.6,16.2-17.6l2.9-0.7c0,0,22.8,16,36,11.2
				C207.6,135.5,208.9,139.2,210.4,144.4L210.4,144.4z"/>
			<path class="st8" d="M209.2,58.4l-21.8-0.6l14.4-7.2C201.8,50.6,208.1,54.7,209.2,58.4z"/>
			<path class="st7" d="M195.1,65.9l7.3,7.7l-4.1-1.6c-1.1-0.4-2.4-0.9-3.7-1.5l-9.7-3.9c-0.2-0.1-0.4-0.1-0.5-0.2l10.1-1.1
				C194.6,65.4,195.1,65.9,195.1,65.9z"/>
			<path class="st9" d="M198.4,72l-3.7-1.5C196,71.1,197.2,71.6,198.4,72z"/>
			<path class="st9" d="M175.5,77.5l5,10.4c0,0-9.8,1.4-12.9,7.3c-0.5-1.9-1.2-3.9-2-6l2.8-0.4L175.5,77.5L175.5,77.5z"/>
			<path class="st9" d="M147.9,60.1c3.9,5.1,13,17.8,17.6,29c0.8,2.1,1.5,4.1,2,6c3.8,15.3,4.1,29.2,4.1,29.2l-2.9,0.7
				c0,0-11.5,15.7-16.2,17.6l0.2,2.3c-8,7.5-26.7,14.1-39.8,18.1h0c-8.2,2.5-14.3,3.9-14.3,3.9c-1.8,0-3.6-2.3-5.1-5.4
				c-1.1-2.3-2.1-5-2.9-7.6c-1.3-4.1-2.1-7.9-2.2-9.4c-0.2-3-1.7-4-2.7-4l0.1-1.8l2.5,0.2l13.7,1.1c0.8,1.7,1.3,2.7,1.3,2.7
				c7.8-3.3,16.9-6.6,21.5-12.8h0c0.5,0.1,15.8,2.1,22.4-0.9c3.1-1.4,6-3.1,8.4-4.6c0-0.3,0.4-4.2,1.2-20.4
				c0.8-16.8-15.4-37.9-15.4-37.9l-1.4-0.3c1.4-1.3,2.6-3.2,3.4-5.8c1-0.6,1.9-1.3,2.7-2.2C146.1,57.7,146.8,58.6,147.9,60.1
				L147.9,60.1z"/>
			<path class="st7" d="M183.2,156.2c-13.1,12.5-32.9,2.3-32.9,2.3l0,0c4.9-1.9,9.7-4.6,13.9-8.3C170,152.5,176.5,154.6,183.2,156.2
				z"/>
			<path class="st9" d="M104,78.6l2.3-0.2V65.9l-12.8,5.4C93.5,71.4,99,74.6,104,78.6z M124.9,129.8L124.9,129.8
				c-4.6,6.2-13.8,9.5-21.5,12.8c0,0-0.4-1-1.3-2.7c-0.8-1.6-2-3.9-3.4-6.4c-1.8-3.2-4.1-6.8-6.7-10.2c1.1,5.4-2.3,14.7-9.1,15.1
				c-4,0.2-10.5-3-15.2-5.6l0,0c-3.3-1.9-5.8-3.6-5.8-3.6l0,0c-0.6-0.6-19-19.2-21.6-23.6c-2.5-4.5-14.2-9.9-14.2-9.9
				c2.6-1.4,29.4-11.7,36.2-10.9c0.6,0.1,1.4,0.3,2.3,0.7c1.7,0.7,3.8,1.8,6,3.2l3.2-6.8l0.5-1.1c5.3-11.7,27.7-23,27.7-23l4.2-1.3
				c0,0,4.5-1.3,7.9-2.5c0,0,6.6,11.6,10.8,13.3c3.7,1.5,10.4,2.7,15-1.6l1.4,0.3c0,0,16.2,21.2,15.4,37.9
				c-0.7,16.2-1.2,20.2-1.2,20.4c-2.3,1.5-5.3,3.2-8.4,4.6C140.6,131.9,125.3,129.9,124.9,129.8L124.9,129.8z"/>
			<path class="st7" d="M152.7,144.9c3.1,1.8,7.1,3.6,11.5,5.3c-4.1,3.6-8.9,6.3-13.9,8.2c-17.4,6.8-36.9,4.5-37.4,4.5
				C126.1,159,144.7,152.5,152.7,144.9z"/>
			<path class="st10" d="M149.7,52.6c-1.1,1.9-2.2,3.6-3.6,5.1c-0.8,0.9-1.7,1.6-2.7,2.2c-0.8,0.4-1.6,0.8-2.4,0.9
				c-1.9,0.4-3.9,0.4-5.8,0l0,0c-2.6,1.7-4.2,2.7-8.6,1.7c-4.4-0.9-9.4-10-9.4-10c2.2-1.4,4.8-5.2,4.8-5.2l7.3-4.7
				c-0.7,0.1-1.3,0.1-1.7,0.1c-1.1,0-1.9-2.2-2-3.4c-0.1-1.2-0.1-4.2,1.2-4.4c2.4-0.4,3.4,2.7,3.5,3.2c0.1,0.3,1,0.8,1.9,1.3
				c0.3-0.4,0.6-0.8,0.8-1.3c1.6-2.9,4.6-8.7,4.6-14.6c5.7,0.7,11.4,0.3,11.4,0.3l3.5,3.7c0,0,0.7,17.6-1.6,22.4
				C150.7,50.9,150.2,51.8,149.7,52.6L149.7,52.6z M151.9,30.1c0-0.6-0.8-1-1.8-1s-1.8,0.5-1.8,1s0.8,1,1.8,1S151.9,30.7,151.9,30.1
				z M143.9,54.1l1.5-1.5c-1,0.2-3,0-3,0l-1,1.5C141.6,54.1,143.1,54.4,143.9,54.1L143.9,54.1z M142.6,30.1c0-0.5-0.9-1-2-1
				s-2,0.4-2,1s0.9,1,2,1S142.6,30.6,142.6,30.1z"/>
			<path class="st6" d="M152.6,27.6l-3.5-3.7c0,0-5.7,0.4-11.4-0.3c0,5.9-3,11.7-4.6,14.6c-0.2,0.5-0.5,0.9-0.8,1.3
				c-0.9-0.4-1.8-1-1.9-1.3c-0.1-0.5-1.1-3.7-3.5-3.2c-1.2,0.2-1.2,3.2-1.2,4.4c0.1,1.2,0.9,3.4,2,3.4c0.3,0,1,0,1.7-0.1l-7.3,4.7
				c0,0,2.9-5.7,2.9-5.9c0-0.2-2-4.1-1.8-6.4s2.4-6.5,3.2-8.2c0.8-1.7,4.6-7.7,4.6-7.7L126,18v-2.3l6.5,0.3l0.3-2.2
				c0,0-3.2-5.2-5.1-5c-4.5,0.8-10.2,9.3-15.8,19.8c-0.5,1-1,2-1.4,3.1l-2.6-1.1c0.8-1.9,1.7-3.8,2.8-5.8
				C119.6,8.2,126.8,1.2,134,7.5c0,0,2.6-4.5,5.1-6.3c2.6-1.8,5.5,0.2,5.4,2.1c-0.1,1.9-0.4,5.2-2.8,10l7.1-0.3v1.7l-3,0.2l-0.5,0.8
				C145.4,15.7,150.6,20.7,152.6,27.6L152.6,27.6z"/>
			<path class="st7" d="M145.4,52.6l-1.5,1.5c-0.8,0.2-2.3,0-2.5,0l1-1.5C142.5,52.6,144.4,52.8,145.4,52.6L145.4,52.6z"/>
			<path class="st9" d="M141,60.8c0.9-0.2,1.6-0.5,2.4-0.9c-0.8,2.6-2,4.4-3.4,5.8c-4.5,4.3-11.2,3.2-15,1.6
				c-4.3-1.7-10.8-13.3-10.8-13.3c1.3-0.5,2.4-0.9,3-1.3c0,0,5,9,9.4,10c4.4,0.9,6,0,8.6-1.7l0,0C137.1,61.2,139.1,61.2,141,60.8
				L141,60.8z"/>
			<path class="st6" d="M107.9,30.7l2.6,1.1c-4.2,10.5-4.2,24.7-4.2,24.7l-4.2,1.3C102.1,57.7,101.8,45.1,107.9,30.7z"/>
			<path class="st9" d="M106.3,65.9v12.4l-2.3,0.2c-5-3.9-10.5-7.2-10.5-7.2L106.3,65.9z"/>
			<path class="st7" d="M102.1,139.9l-13.7-1.1l0,0l10.2-5.4C100.1,136,101.3,138.3,102.1,139.9L102.1,139.9z"/>
			<path class="st7" d="M98.6,133.5l-10.2,5.3l0,0l-2.5-0.2l-3.1-0.2c6.8-0.4,10.2-9.7,9.1-15.1C94.5,126.7,96.8,130.3,98.6,133.5z"
				/>
			<path class="st7" d="M93.5,161.4c-6.2,0.5-8.1-5.2-8.1-5.2l0,0c2-0.4,3.8-1.1,5.2-2.4C91.4,156.5,92.4,159.2,93.5,161.4
				L93.5,161.4z"/>
			<path class="st7" d="M88.4,144.4c0.1,1.5,0.9,5.3,2.2,9.4c-1.3,1.2-3.2,2-5.2,2.4c-6.1,1.2-13.9-0.6-14.2-0.7
				c7.5-7.9,13.4-14.5,14-15c0.1-0.1,0.3-0.2,0.5-0.2C86.7,140.4,88.2,141.4,88.4,144.4z"/>
			<path class="st9" d="M85.9,138.7l-0.1,1.8c-0.2,0-0.4,0.1-0.5,0.2c-0.6,0.5-6.5,7.1-14,15h0l-0.6,0.6c-0.7-0.9-1.3-5.3-1.8-10.1
				c-0.7-6.2-1.2-13-1.2-13.3c4.7,2.7,11.2,5.9,15.2,5.6L85.9,138.7z"/>
			<path class="st7" d="M73.9,81.9l-3.2,6.8c-2.3-1.4-4.3-2.5-6-3.2c0,0,0.6-6.4,1.9-14C66.6,71.5,71.9,81.9,73.9,81.9z"/>
			<path class="st8" d="M74.4,49.4c-0.6,0.5-1.2,1.3-1.7,2.1c-3.7,3.8-7.9,3.9-12.4,3.7c-1.2-0.1-3.5-0.3-6.2-0.5v0
				c-5-0.8-3.4-5.3-3.4-5.3s2.4-4.2,6.5-4.8C64.6,43.7,72.4,47,74.4,49.4z"/>
			<path class="st7" d="M67.6,132.8c0,0.3,0.5,7.1,1.2,13.3c-5-1-9.2-5.3-12.3-9.9c-4.3-6.4-6.7-13.4-6.7-13.4
				c3.6,2.3,7.7,4.6,12.1,6.5l0,0C61.9,129.2,64.3,130.8,67.6,132.8L67.6,132.8L67.6,132.8z"/>
			<path class="st7" d="M36.9,57.3L36.9,57.3c0.3-0.6,0.9-1.1,1.8-1.6c3-1.6,10-1.4,15.3-1c2.7,0.2,5,0.4,6.2,0.5
				c4.5,0.2,8.8,0.2,12.4-3.7c-2.8,4.5-4.8,12.8-6.1,20c-1.3,7.6-1.9,14-1.9,14c-0.9-0.4-1.7-0.6-2.3-0.7
				c-6.7-0.8-33.6,9.4-36.2,10.9c0,0-4.4-12.1-7.1-26.6c0,0,22.3,0.1,24,0c1.7-0.1,0.7-2.1-2.2-4.3c-2.1-1.6-4.6-4.3-4.2-6.6
				C36.7,57.8,36.8,57.6,36.9,57.3z"/>
			<path class="st7" d="M56.5,136.1l-1,0.1C29.1,133,26.3,99.6,26.2,98.4c1.9,4.9,9.8,15.4,23.5,24.3
				C49.8,122.7,52.2,129.7,56.5,136.1z"/>
			<path class="st8" d="M54,54.7L54,54.7c-5.3-0.3-12.3-0.5-15.3,1c-0.9,0.5-1.4,1-1.8,1.5c0-0.5,0.6-6.3,5.5-7.3
				c2.6-0.2,5.3-0.2,8.2-0.5C50.6,49.4,49.1,53.9,54,54.7z"/>
			<path class="st7" d="M26.2,98.4c-0.6-1.5-0.6-2.4-0.1-2.7c0,0,11.6,5.4,14.2,9.9c2.5,4.4,21,23,21.6,23.6
				c-4.4-2-8.5-4.2-12.1-6.5C36,113.8,28.2,103.3,26.2,98.4z"/>
			<path class="st8" d="M40.8,64.8c2.9,2.2,3.9,4.2,2.2,4.3c-1.7,0.1-24,0-24,0s0.9-4.7,9.7-6.1C28.7,63,34.3,61.3,40.8,64.8z"/>
			<path class="st8" d="M42.5,49.9c-4.9,1.1-5.5,6.9-5.5,7.3l0,0c-0.2,0.3-0.3,0.6-0.3,0.9c0,0-5.1-0.3-7.9,4.8
				C30.9,52,36,50.4,42.5,49.9z"/>
			<path class="st8" d="M28.7,63c2.8-5.2,7.9-4.8,7.9-4.8c-0.4,2.3,2.1,5,4.2,6.6C34.3,61.3,28.7,63,28.7,63z"/>
		</g>
		<g>
			<path class="st11" d="M152.6,27.6c-2-7-7.2-12-7.2-12l0.5-0.8l3-0.2V13l-7.1,0.3c2.4-4.8,2.6-8.1,2.8-10c0.1-1.9-2.8-4-5.4-2.1
				C136.6,3,134,7.5,134,7.5c-7.2-6.4-14.4,0.6-23.4,17.3c-1,1.9-1.9,3.9-2.8,5.8c-6.1,14.5-5.8,27.1-5.8,27.1l4.2-1.3
				c0,0,0-14.3,4.2-24.7c0.4-1.1,0.9-2.1,1.4-3.1c5.6-10.5,11.4-19,15.8-19.8c1.9-0.2,5.1,5,5.1,5l-0.3,2.2l-6.6-0.3V18l4.9,1.2
				c0,0-3.8,5.9-4.6,7.7c-0.9,1.7-3.1,5.9-3.2,8.2s1.8,6.2,1.8,6.4c0,0.2-2.9,5.9-2.9,5.9l7.4-4.7c-0.7,0.1-1.3,0.1-1.7,0.1
				c-1.1,0-1.9-2.2-2-3.4c-0.1-1.2-0.1-4.2,1.2-4.4c2.4-0.4,3.4,2.7,3.5,3.2c0.1,0.3,1,0.8,1.9,1.3c0.3-0.4,0.6-0.8,0.8-1.3
				c1.6-2.9,4.6-8.7,4.6-14.6c5.7,0.7,11.4,0.3,11.4,0.3L152.6,27.6L152.6,27.6z"/>
			<path class="st11" d="M135.2,60.9c-2.5-0.5-4.8-1.5-6-2.9"/>
			<path class="st11" d="M152.6,27.6c0,0,0.7,17.6-1.6,22.4c-0.4,0.9-0.9,1.8-1.4,2.6c-1.1,1.9-2.2,3.6-3.6,5.1
				c-0.8,0.9-1.7,1.6-2.7,2.2c-0.8,0.4-1.6,0.8-2.4,0.9c-1.9,0.4-3.9,0.4-5.8,0"/>
			<path class="st11" d="M146.6,38.7l1.4,10.3c0,0-3.7,0.6-4,0.3"/>
			<line class="st11" x1="143.1" y1="47.4" x2="142.5" y2="49.4"/>
			<line class="st11" x1="138.3" y1="40.1" x2="143.1" y2="40.7"/>
			<line class="st11" x1="148.9" y1="40.7" x2="151.3" y2="40.7"/>
			<path class="st11" d="M142.6,30.1c0,0.5-0.9,1-2,1s-2-0.4-2-1s0.9-1,2-1S142.6,29.5,142.6,30.1z"/>
			<path class="st11" d="M151.9,30.1c0,0.6-0.8,1-1.8,1s-1.8-0.5-1.8-1s0.8-1,1.8-1S151.9,29.5,151.9,30.1z"/>
			<path class="st11" d="M142.5,52.6c0,0,2,0.2,3,0l-1.5,1.5c-0.8,0.2-2.3,0-2.5,0L142.5,52.6L142.5,52.6z"/>
			<path class="st11" d="M122,47.5c0,0-2.7,3.8-4.8,5.2c-0.6,0.4-1.7,0.9-3,1.3c-3.3,1.2-7.9,2.5-7.9,2.5"/>
			<path class="st11" d="M102.1,57.7c0,0-22.4,11.4-27.7,23.1l-0.5,1.1l-3.2,6.8"/>
			<path class="st11" d="M104.8,101.3c-6.6-2.1-12.8-5.1-14.6-9.6"/>
			<path class="st11" d="M124.9,129.8c0.7-0.9,1.3-1.9,1.7-3c3.5-8.2,2.5-16.9-2-19.8c-1.6-1-5.6-1.9-10.4-3.1
				c-3-0.7-6.2-1.6-9.4-2.6"/>
			<path class="st11" d="M67.6,132.8c4.7,2.7,11.2,5.9,15.2,5.6c6.8-0.4,10.2-9.7,9.1-15.1c2.6,3.3,4.9,7,6.7,10.2
				c1.5,2.5,2.6,4.8,3.4,6.4c0.8,1.7,1.3,2.7,1.3,2.7c7.8-3.3,17-6.6,21.5-12.8"/>
			<path class="st11" d="M61.9,129.2c0,0,2.4,1.6,5.8,3.5"/>
			<line class="st11" x1="91.9" y1="123.3" x2="117.7" y2="115.1"/>
			<polyline class="st11" points="82.8,138.4 85.9,138.7 88.4,138.9 102.1,139.9 			"/>
			<line class="st11" x1="88.4" y1="138.9" x2="98.6" y2="133.5"/>
			<path class="st11" d="M87.7,78.4c0,0,16.9,13,17.1,22.9l0,0"/>
			<path class="st11" d="M106.3,78.4V65.9l-12.8,5.4c0,0,5.5,3.2,10.5,7.2c3.7,2.9,7.1,6.1,8.1,8.8c2.2,6.2,2.1,16.1,2.1,16.5l0,0"
				/>
			<path class="st11" d="M112.9,61.1c0,0,9.9,23.2,9.1,33.9"/>
			<path class="st11" d="M114.2,54c0,0,6.6,11.6,10.8,13.3c3.7,1.5,10.4,2.7,15-1.6c1.4-1.3,2.6-3.2,3.4-5.8"/>
			<path class="st11" d="M117.2,52.6c0,0,5,9,9.4,10c4.4,0.9,6,0,8.6-1.7l0,0"/>
			<path class="st11" d="M141.4,65.9c0,0,16.2,21.2,15.4,37.9c-0.7,16.2-1.2,20.2-1.2,20.4l0,0"/>
			<path class="st11" d="M124.8,129.8L124.8,129.8c0.5,0.1,15.8,2.1,22.5-0.9c3.1-1.4,6-3.1,8.4-4.6c2.9-1.8,4.8-3.3,4.8-3.3"/>
			<path class="st11" d="M158.9,127.6l9.9-2.5l2.9-0.7c0,0-0.2-13.9-4.1-29.2c-0.5-1.9-1.2-3.9-2-6c-4.6-11.2-13.7-23.9-17.6-29
				c-1.1-1.5-1.8-2.4-1.8-2.4"/>
			<path class="st11" d="M168.7,125.1c0,0-11.5,15.7-16.2,17.6"/>
			<path class="st11" d="M211.5,85.5c-4.8-6.7-13.9-11.2-29.6-13.2"/>
			<path class="st11" d="M207.6,135.5c0,0,20.1-20,19.9-29.8c-0.4-2.6-3.3-5.4-6.2-7.7c-3.1-2.4-6.2-4.2-6.2-4.2c-0.2-1-0.5-2-0.9-3
				l0,0c-0.7-1.9-1.6-3.7-2.8-5.3"/>
			<path class="st11" d="M147.9,60.1L147.9,60.1c0.4-0.1,11.4-3,19.1,2.1c7.9,5.2,30.4,30.4,30.4,30.4s-6.2,17.2-5.7,23.9"/>
			<path class="st11" d="M203.1,102.8c0,0,0.1,24.4-1.3,25.8"/>
			<path class="st11" d="M213.8,106.8c1.9,0.5,4.1,0.8,6.5,0.4"/>
			<path class="st11" d="M211.9,91.7l-8,8.9c0,0,3.9,4.6,9.9,6.2"/>
			<path class="st11" d="M168.3,88.7l7.1-11.2l5,10.4c0,0-9.8,1.4-12.9,7.3"/>
			<path class="st11" d="M167.1,62.2c0,0-0.1,15.3-1.9,18.6"/>
			<polyline class="st11" points="215.1,93.8 213.8,106.8 213.8,106.8 			"/>
			<path class="st11" d="M202.4,73.7c0.7,0.3,1.3,0.5,1.8,0.7c0.8,0.3,1.4,0.8,1.8,1.5c1.2,2.2,4,7.1,5.5,9.6c0,0,0,0,0,0"/>
			<path class="st11" d="M194.7,70.6c1.3,0.5,2.5,1,3.7,1.5"/>
			<path class="st11" d="M149.7,52.6L149.7,52.6c0.4,0,20,0,25.8,10.3c2.6,1,5.8,2.2,9,3.5c0.2,0.1,0.4,0.1,0.5,0.2"/>
			<path class="st11" d="M112.9,163c13.2-3.9,31.8-10.5,39.8-18.1c3.1,1.8,7.1,3.6,11.5,5.3c5.7,2.2,12.3,4.3,19,6
				c10.8,2.7,22,4.2,30.6,3.5c-0.8-5.3-2.2-10.9-3.4-15.3c-1.4-5.2-2.7-8.9-2.7-8.9c-13.2,4.9-36-11.2-36-11.2"/>
			<path class="st11" d="M71.2,155.6c7.5-7.9,13.4-14.5,14-15c0.1-0.1,0.3-0.2,0.5-0.2c0.9,0,2.5,1,2.7,4c0.1,1.5,0.9,5.3,2.2,9.4
				c0.8,2.6,1.8,5.3,2.9,7.6c1.6,3.1,3.3,5.4,5.1,5.4c0,0,6.1-1.4,14.3-3.9"/>
			<path class="st11" d="M67.6,132.8L67.6,132.8c0,0.3,0.5,7.1,1.2,13.3c0.5,4.8,1.2,9.2,1.8,10.1l0.6-0.6"/>
			<path class="st11" d="M71.2,155.6L71.2,155.6c0.3,0.1,8.1,1.9,14.2,0.7c2-0.4,3.8-1.1,5.2-2.4"/>
			<path class="st11" d="M85.4,156.2c0,0,1.8,5.7,8.1,5.2"/>
			<path class="st11" d="M112.9,163L112.9,163c0.6,0.1,20,2.4,37.4-4.5c4.9-1.9,9.7-4.6,13.9-8.2"/>
			<path class="st11" d="M150.4,158.5c0,0,19.7,10.2,32.9-2.3"/>
			<path class="st11" d="M61.9,129.2L61.9,129.2c-4.4-2-8.5-4.2-12.1-6.5c-13.8-8.8-21.6-19.3-23.5-24.3c-0.6-1.5-0.6-2.4-0.1-2.7
				c2.6-1.4,29.5-11.7,36.2-10.9c0.6,0.1,1.4,0.3,2.3,0.7c1.7,0.7,3.8,1.8,6,3.2c9.2,5.6,21.3,15.2,21.3,15.2"/>
			<path class="st11" d="M64.6,85.5c0,0,0.6-6.4,1.9-14c1.3-7.2,3.3-15.5,6.1-20c0.5-0.8,1.1-1.6,1.7-2.1c-2-2.4-9.8-5.7-17.3-4.8
				c-4.1,0.5-6.5,4.8-6.5,4.8c-2.8,0.3-5.6,0.3-8.2,0.5c-6.4,0.5-11.6,2-13.8,13c-8.9,1.4-9.7,6.1-9.7,6.1
				c2.7,14.6,7.1,26.6,7.1,26.6s11.6,5.4,14.2,9.9c2.5,4.4,21,23,21.6,23.6"/>
			<path class="st11" d="M36.9,57.3c0.3-0.6,0.9-1.1,1.8-1.5c3-1.6,10-1.4,15.3-1c2.7,0.2,5,0.4,6.2,0.5c4.5,0.2,8.8,0.2,12.4-3.7
				c0.6-0.6,1.1-1.3,1.7-2.1"/>
			<path class="st11" d="M19,69.1c0,0,22.3,0.1,24,0c1.7-0.1,0.7-2.1-2.2-4.3c-2.1-1.6-4.6-4.3-4.2-6.6c0-0.3,0.2-0.6,0.3-0.9"/>
			<path class="st11" d="M50.6,49.4c0,0-1.6,4.5,3.4,5.3"/>
			<path class="st11" d="M26.2,98.4L26.2,98.4c0.1,1.2,2.8,34.6,29.2,37.8"/>
			<path class="st11" d="M49.8,122.7c0,0,2.4,7,6.7,13.4c3.2,4.6,7.3,9,12.3,9.9"/>
			<path class="st11" d="M185,66.7l9.7,3.9l3.7,1.5l4.1,1.6l-7.3-7.7l-0.5-0.5l-7.2-7.6l14.4-7.2c0,0,6.3,4.1,7.4,7.8"/>
			<line class="st11" x1="194.6" y1="65.4" x2="184.5" y2="66.5"/>
			<path class="st11" d="M241.7,76.8c0,0,3.6,28.5-31.4,67.7h0"/>
			<path class="st11" d="M187.4,57.8l21.8,0.6l2.3,0.1c0,0-5.5,5.2-5.5,6.4c0,0.1,0,0.1,0.1,0.2c1.4,1.2,13.4,2.8,22.5,0.9
				c0.1,0,0.1,0,0.2,0c-0.1,0-0.1,0.1-0.1,0.1c-5.1,3.8-8.6,6.6-7.4,8.1c0.6,0.8,2.6,1.2,6.2,1.2c10.4,0,13.9,1.3,14.2,1.4"/>
			<path class="st11" d="M221.3,74.1c0,0,2.6,16,0,23.9"/>
			<path class="st11" d="M206,64.9c0,0,0,0.1,0.1,0.2c1.2,1.9,10.4,17,8.3,25.7"/>
			<path class="st11" d="M211.5,58.5c0,0,15.1,3.9,17.2,7.4c0,0,0,0.1,0.1,0.1"/>
			<path class="st11" d="M228.9,65.9c0,0,10.3,7.6,12.9,10.8h0"/>
			<path class="st11" d="M66.6,71.5c0,0,5.3,10.4,7.3,10.3"/>
			<path class="st11" d="M36.9,57.3L36.9,57.3L36.9,57.3c0-0.5,0.6-6.3,5.5-7.4"/>
			<path class="st11" d="M36.6,58.2c0,0-5.1-0.3-7.9,4.8c0,0,5.6-1.6,12.1,1.8"/>
		</g>
	</g>
</g>
</svg>
