<?xml version="1.0" encoding="UTF-8"?>
<svg id="_レイヤー_1" data-name="レイヤー 1" xmlns="http://www.w3.org/2000/svg" viewBox="0 0 269.34 194.01">
  <defs>
    <style>
      .cls-1 {
        fill: #606060;
      }

      .cls-1, .cls-2, .cls-3, .cls-4, .cls-5, .cls-6, .cls-7, .cls-8, .cls-9, .cls-10 {
        stroke-width: 0px;
      }

      .cls-2 {
        fill: #f9ceac;
      }

      .cls-11 {
        stroke-miterlimit: 10;
      }

      .cls-11, .cls-12 {
        stroke: #000;
      }

      .cls-11, .cls-12, .cls-13 {
        fill: none;
      }

      .cls-3 {
        fill: #f3edd7;
      }

      .cls-4 {
        fill: #c0504e;
      }

      .cls-5 {
        fill: #b1a668;
      }

      .cls-12, .cls-13 {
        stroke-linecap: round;
        stroke-linejoin: round;
      }

      .cls-6 {
        fill: #333;
      }

      .cls-7 {
        fill: #635475;
      }

      .cls-8 {
        fill: #5a5b56;
      }

      .cls-13 {
        stroke: #eee;
        stroke-width: .5px;
      }

      .cls-9 {
        fill: #d2d296;
      }

      .cls-10 {
        fill: #444;
      }
    </style>
  </defs>
  <g>
    <g>
      <rect class="cls-3" x=".24" y="159.5" width="3.61" height="5.01"/>
      <path class="cls-3" d="m269.09,186.98v6.54h-30.34l15.29-8.6c1.03,1.61,3.1,2.71,5.49,2.71s4.6-1.18,5.6-2.87l3.95,2.22Z"/>
      <path class="cls-3" d="m269.09,176.46v10.52l-3.95-2.22c.38-.65.59-1.38.59-2.14,0-1.3-.61-2.47-1.61-3.36l4.97-2.79Z"/>
      <path class="cls-3" d="m269.09,164.51v11.95l-4.97,2.79c-1.13-1-2.76-1.63-4.58-1.63s-3.3.58-4.42,1.51l-25.99-14.61h39.96Z"/>
      <polygon class="cls-3" points="269.09 93.89 269.09 99.63 1.13 99.63 .24 99.63 .24 93.89 269.09 93.89"/>
      <rect class="cls-3" x="265.11" y="159.5" width="3.98" height="5.01"/>
      <path class="cls-3" d="m265.73,182.62c0,.76-.21,1.49-.59,2.14l-5.4-3.04,4.38-2.47c.99.89,1.61,2.07,1.61,3.36Z"/>
      <path class="cls-3" d="m259.74,181.72l5.4,3.04c-.99,1.7-3.12,2.87-5.6,2.87s-4.46-1.1-5.49-2.71l5.69-3.2Z"/>
      <rect class="cls-6" x="253.85" y="159.5" width="11.26" height="5.01"/>
      <path class="cls-3" d="m264.12,179.25l-4.38,2.47-4.62-2.59c1.12-.93,2.69-1.51,4.42-1.51,1.82,0,3.44.63,4.58,1.63Z"/>
      <path class="cls-3" d="m259.74,181.72l-5.69,3.2c-.44-.68-.69-1.47-.69-2.3,0-1.37.67-2.59,1.76-3.49l4.62,2.59Z"/>
      <path class="cls-3" d="m229.13,164.51l25.99,14.61c-1.09.9-1.76,2.13-1.76,3.49,0,.83.25,1.62.69,2.3l-15.29,8.6h-41.32l-15.59-8.76c.38-.65.59-1.38.59-2.14,0-1.3-.61-2.47-1.61-3.36l26.24-14.75h22.07Zm-5.94,18.1c0-2.76-2.24-5-5-5s-5.01,2.24-5.01,5,2.24,5.01,5.01,5.01,5-2.24,5-5.01Z"/>
      <polygon class="cls-3" points="253.85 164.51 229.13 164.51 223.45 164.51 223.45 159.5 253.85 159.5 253.85 164.51"/>
      <rect class="cls-6" x="212.19" y="159.5" width="11.26" height="5.01"/>
      <path class="cls-6" d="m218.19,177.62c2.76,0,5,2.24,5,5s-2.24,5.01-5,5.01-5.01-2.24-5.01-5.01,2.24-5,5.01-5Z"/>
      <path class="cls-3" d="m207.06,164.51l-26.24,14.75c-1.13-1.01-2.76-1.64-4.58-1.64s-3.3.58-4.42,1.51l-25.99-14.61h61.22Z"/>
      <polygon class="cls-3" points="181.78 164.51 181.78 159.5 212.19 159.5 212.19 164.51 207.06 164.51 181.78 164.51"/>
      <path class="cls-3" d="m197.44,193.51h-41.97l15.29-8.6c1.03,1.61,3.11,2.71,5.49,2.71s4.6-1.18,5.6-2.87l15.59,8.76Z"/>
      <path class="cls-3" d="m182.44,182.62c0,.76-.21,1.49-.59,2.14l-5.4-3.04,4.38-2.46c.99.88,1.61,2.06,1.61,3.36Z"/>
      <path class="cls-3" d="m176.45,181.72l5.4,3.04c-.99,1.7-3.12,2.87-5.6,2.87s-4.46-1.1-5.49-2.71l5.69-3.2Z"/>
      <rect class="cls-6" x="170.52" y="159.5" width="11.26" height="5.01"/>
      <path class="cls-3" d="m176.25,177.62c1.82,0,3.44.63,4.58,1.64l-4.38,2.46-4.62-2.59c1.12-.93,2.69-1.51,4.42-1.51Z"/>
      <path class="cls-3" d="m176.45,181.72l-5.69,3.2c-.44-.68-.69-1.47-.69-2.3,0-1.37.67-2.59,1.76-3.49l4.62,2.59Z"/>
      <path class="cls-3" d="m145.84,164.51l25.99,14.61c-1.09.9-1.76,2.13-1.76,3.49,0,.83.25,1.62.69,2.3l-15.29,8.6h-41.32l-15.59-8.76c.38-.65.59-1.38.59-2.14,0-1.3-.61-2.47-1.61-3.36l26.24-14.75h22.07Zm-6.99,18.1c0-2.76-2.24-5-5-5s-5.01,2.24-5.01,5,2.24,5.01,5.01,5.01,5-2.24,5-5.01Z"/>
      <polygon class="cls-3" points="170.52 164.51 145.84 164.51 140.11 164.51 140.11 159.5 170.52 159.5 170.52 164.51"/>
      <rect class="cls-6" x="128.85" y="159.5" width="11.26" height="5.01"/>
      <path class="cls-6" d="m133.85,177.62c2.76,0,5,2.24,5,5s-2.24,5.01-5,5.01-5.01-2.24-5.01-5.01,2.24-5,5.01-5Z"/>
      <path class="cls-3" d="m123.77,164.51l-26.24,14.75c-1.13-1.01-2.76-1.64-4.58-1.64s-3.3.58-4.42,1.51l-25.99-14.61h61.22Z"/>
      <polygon class="cls-3" points="128.85 164.51 123.77 164.51 98.45 164.51 98.45 159.5 128.85 159.5 128.85 164.51"/>
      <path class="cls-3" d="m114.15,193.51h-41.97l15.29-8.6c1.03,1.61,3.1,2.71,5.49,2.71s4.6-1.18,5.6-2.87l15.59,8.76Z"/>
      <path class="cls-3" d="m99.15,182.62c0,.76-.21,1.49-.59,2.14l-5.4-3.04,4.38-2.46c.99.88,1.61,2.06,1.61,3.36Z"/>
      <path class="cls-3" d="m93.16,181.72l5.4,3.04c-.99,1.7-3.12,2.87-5.6,2.87s-4.46-1.1-5.49-2.71l5.69-3.2Z"/>
      <rect class="cls-6" x="87.19" y="159.5" width="11.26" height="5.01"/>
      <path class="cls-3" d="m92.96,177.62c1.82,0,3.44.63,4.58,1.64l-4.38,2.46-4.62-2.59c1.12-.93,2.69-1.51,4.42-1.51Z"/>
      <path class="cls-3" d="m93.16,181.72l-5.69,3.2c-.44-.68-.69-1.47-.69-2.3,0-1.37.67-2.59,1.76-3.49l4.62,2.59Z"/>
      <path class="cls-3" d="m62.55,164.51l25.99,14.61c-1.09.9-1.76,2.13-1.76,3.49,0,.83.25,1.62.69,2.3l-15.29,8.6H30.67l-15.59-8.76c.38-.65.59-1.38.59-2.14,0-1.3-.61-2.47-1.61-3.36l26.24-14.75h22.26Zm-8.49,18.1c0-2.76-2.24-5-5-5s-5.01,2.24-5.01,5,2.24,5.01,5.01,5.01,5-2.24,5-5.01Z"/>
      <polygon class="cls-3" points="87.19 164.51 62.55 164.51 56.78 164.51 56.78 159.5 87.19 159.5 87.19 164.51"/>
      <rect class="cls-6" x="45.52" y="159.5" width="11.26" height="5.01"/>
      <path class="cls-6" d="m49.06,177.62c2.76,0,5,2.24,5,5s-2.24,5.01-5,5.01-5.01-2.24-5.01-5.01,2.24-5,5.01-5Z"/>
      <polygon class="cls-3" points="45.52 164.51 40.29 164.51 15.11 164.51 15.11 159.5 45.52 159.5 45.52 164.51"/>
      <path class="cls-3" d="m30.67,193.51H.24v-6.5l3.75-2.1c1.03,1.61,3.11,2.71,5.49,2.71s4.6-1.18,5.6-2.87l15.59,8.76Z"/>
      <path class="cls-3" d="m15.67,182.62c0,.76-.21,1.49-.59,2.14l-5.4-3.04,4.38-2.46c.99.88,1.61,2.06,1.61,3.36Z"/>
      <rect class="cls-6" x="3.85" y="159.5" width="11.26" height="5.01"/>
      <path class="cls-3" d="m9.68,181.72l5.4,3.04c-.99,1.7-3.12,2.87-5.6,2.87s-4.46-1.1-5.49-2.71l5.69-3.2Z"/>
      <path class="cls-3" d="m9.48,177.62c1.82,0,3.44.63,4.58,1.64l-4.38,2.46-4.62-2.59c1.12-.93,2.69-1.51,4.42-1.51Z"/>
      <path class="cls-3" d="m9.68,181.72l-5.69,3.2c-.44-.68-.69-1.47-.69-2.3,0-1.37.67-2.59,1.76-3.49l4.62,2.59Z"/>
      <path class="cls-3" d="m.24,176.41l4.82,2.71c-1.09.9-1.76,2.13-1.76,3.49,0,.83.25,1.62.69,2.3l-3.75,2.1v-10.6Z"/>
      <polygon class="cls-9" points="212.19 159.5 181.78 159.5 170.52 159.5 140.11 159.5 128.85 159.5 98.45 159.5 87.19 159.5 56.78 159.5 45.52 159.5 15.11 159.5 3.85 159.5 .24 159.5 .24 99.63 1.13 99.63 269.09 99.63 269.09 159.5 265.11 159.5 253.85 159.5 223.45 159.5 212.19 159.5"/>
      <path class="cls-3" d="m.24,164.51h40.05l-26.24,14.75c-1.13-1.01-2.76-1.64-4.58-1.64s-3.3.58-4.42,1.51l-4.82-2.71v-11.9Z"/>
    </g>
    <g>
      <polyline class="cls-11" points="269.09 193.51 238.76 193.51 197.44 193.51 155.47 193.51 114.15 193.51 72.18 193.51 30.67 193.51 .24 193.51"/>
      <line class="cls-11" x1=".24" y1="93.89" x2="269.09" y2="93.89"/>
      <line class="cls-11" x1=".24" y1="99.63" x2="269.09" y2="99.63"/>
      <line class="cls-11" x1="265.11" y1="159.5" x2="269.09" y2="159.5"/>
      <line class="cls-11" x1="223.45" y1="159.5" x2="253.85" y2="159.5"/>
      <line class="cls-11" x1="181.78" y1="159.5" x2="212.19" y2="159.5"/>
      <line class="cls-11" x1="140.11" y1="159.5" x2="170.52" y2="159.5"/>
      <line class="cls-11" x1="98.45" y1="159.5" x2="128.85" y2="159.5"/>
      <line class="cls-11" x1="56.78" y1="159.5" x2="87.19" y2="159.5"/>
      <line class="cls-11" x1="15.11" y1="159.5" x2="45.52" y2="159.5"/>
      <line class="cls-11" x1=".24" y1="159.5" x2="3.85" y2="159.5"/>
      <line class="cls-11" x1="265.11" y1="164.51" x2="269.09" y2="164.51"/>
      <polyline class="cls-11" points="223.45 164.51 229.13 164.51 253.85 164.51"/>
      <polyline class="cls-11" points="181.78 164.51 207.06 164.51 212.19 164.51"/>
      <polyline class="cls-11" points="140.11 164.51 145.84 164.51 170.52 164.51"/>
      <polyline class="cls-11" points="98.45 164.51 123.77 164.51 128.85 164.51"/>
      <polyline class="cls-11" points="56.78 164.51 62.55 164.51 87.19 164.51"/>
      <polyline class="cls-11" points="15.11 164.51 40.29 164.51 45.52 164.51"/>
      <line class="cls-11" x1=".24" y1="164.51" x2="3.85" y2="164.51"/>
      <polyline class="cls-11" points="72.18 193.51 87.47 184.92 93.16 181.72 97.54 179.26 123.77 164.51"/>
      <polyline class="cls-11" points="114.15 193.51 98.56 184.75 93.16 181.72 88.54 179.12 62.55 164.51"/>
      <path class="cls-11" d="m138.85,182.62c0,2.77-2.24,5.01-5,5.01s-5.01-2.24-5.01-5.01,2.24-5,5.01-5,5,2.24,5,5Z"/>
      <path class="cls-11" d="m223.19,182.62c0,2.77-2.24,5.01-5,5.01s-5.01-2.24-5.01-5.01,2.24-5,5.01-5,5,2.24,5,5Z"/>
      <path class="cls-11" d="m97.54,179.26c.99.88,1.61,2.06,1.61,3.36,0,.76-.21,1.49-.59,2.14-.99,1.7-3.12,2.87-5.6,2.87s-4.46-1.1-5.49-2.71c-.44-.68-.69-1.47-.69-2.3,0-1.37.67-2.59,1.76-3.49,1.12-.93,2.69-1.51,4.42-1.51,1.82,0,3.44.63,4.58,1.64Z"/>
      <polyline class="cls-11" points=".24 187.02 3.99 184.92 9.68 181.72 14.06 179.26 40.29 164.51"/>
      <polyline class="cls-11" points="30.67 193.51 15.08 184.75 9.68 181.72 5.06 179.12 .24 176.41"/>
      <path class="cls-11" d="m14.06,179.26c.99.88,1.61,2.06,1.61,3.36,0,.76-.21,1.49-.59,2.14-.99,1.7-3.12,2.87-5.6,2.87s-4.46-1.1-5.49-2.71c-.44-.68-.69-1.47-.69-2.3,0-1.37.67-2.59,1.76-3.49,1.12-.93,2.69-1.51,4.42-1.51,1.82,0,3.44.63,4.58,1.64Z"/>
      <polyline class="cls-11" points="155.47 193.51 170.76 184.92 176.45 181.72 180.83 179.26 207.06 164.51"/>
      <polyline class="cls-11" points="197.44 193.51 181.85 184.75 176.45 181.72 171.83 179.12 145.84 164.51"/>
      <path class="cls-11" d="m180.83,179.26c.99.88,1.61,2.06,1.61,3.36,0,.76-.21,1.49-.59,2.14-.99,1.7-3.12,2.87-5.6,2.87s-4.46-1.1-5.49-2.71c-.44-.68-.69-1.47-.69-2.3,0-1.37.67-2.59,1.76-3.49,1.12-.93,2.69-1.51,4.42-1.51,1.82,0,3.44.63,4.58,1.64Z"/>
      <polyline class="cls-11" points="238.76 193.51 254.05 184.92 259.74 181.72 264.12 179.25 269.09 176.46"/>
      <polyline class="cls-11" points="269.09 186.98 265.14 184.75 259.74 181.72 255.12 179.12 229.13 164.51"/>
      <path class="cls-11" d="m264.12,179.25c.99.89,1.61,2.07,1.61,3.36,0,.76-.21,1.49-.59,2.14-.99,1.7-3.12,2.87-5.6,2.87s-4.46-1.1-5.49-2.71c-.44-.68-.69-1.47-.69-2.3,0-1.37.67-2.59,1.76-3.49,1.12-.93,2.69-1.51,4.42-1.51,1.82,0,3.44.63,4.58,1.63Z"/>
      <path class="cls-11" d="m54.06,182.62c0,2.77-2.24,5.01-5,5.01s-5.01-2.24-5.01-5.01,2.24-5,5.01-5,5,2.24,5,5Z"/>
      <rect class="cls-11" x="3.85" y="159.5" width="11.26" height="5.01"/>
      <rect class="cls-11" x="45.52" y="159.5" width="11.26" height="5.01"/>
      <rect class="cls-11" x="87.19" y="159.5" width="11.26" height="5.01"/>
      <rect class="cls-11" x="128.85" y="159.5" width="11.26" height="5.01"/>
      <rect class="cls-11" x="170.52" y="159.5" width="11.26" height="5.01"/>
      <rect class="cls-11" x="212.19" y="159.5" width="11.26" height="5.01"/>
      <rect class="cls-11" x="253.85" y="159.5" width="11.26" height="5.01"/>
    </g>
  </g>
  <g>
    <g>
      <path class="cls-8" d="m148.8,45.53c.03-.14.36-.22.92-.25.79.09,4.47.44,4.93.45h.04c.18.03.37.06.57.1h0s-.1.31-4.62,6.33c-3.59,4.78-11.63,8.98-19.45,10.22l-.48-.17,1.88-5.19.19.07c3.15.28,9.57-2.19,14.7-9.52.45-.63.89-1.31,1.31-2.02Z"/>
      <path class="cls-4" d="m199.57,133.58l.21-2.21c10.25,1,21.76-.67,25.1,2.39-2.38,1.13-5.53,2.24-9.39,2.68-7.3.86-13.55-2.66-15.92-2.86Z"/>
      <path class="cls-7" d="m159.48,149.18c3.43-5.69,9.6-14.72,27.94-15.39h.11c1.31-.04,2.68-.04,4.11,0,0,0,4.64,3.1,5.3,4.86s-1.99,5.96-7.73,7.07c-5.73,1.11-20.53,2.66-23.85,2.87-1.57.1-3.72.3-5.88.59Z"/>
      <path class="cls-5" d="m187.51,58.37l-7.04,3.72-.05.03c-.37-.54-.74-1.08-1.12-1.6l.34-.24,6.49-4.13,1.38,2.21Z"/>
      <path class="cls-5" d="m178.05,58.79l6.86-4.58,1.21,1.95-6.49,4.13-.34.24c-.42-.6-.83-1.18-1.25-1.73h0Z"/>
      <path class="cls-5" d="m184.87,51.76l-7.43,5.67-.27.21c-.38-.49-.76-.97-1.14-1.43l.3-.25,7.14-6.07,1.39,1.88Z"/>
      <path class="cls-5" d="m183.48,49.89l-7.14,6.07-.3.25c-.44-.54-.88-1.06-1.31-1.54l.34-.3,6.91-6.51,1.51,2.03Z"/>
      <path class="cls-4" d="m187.42,133.79c-8.75,0-30-6.38-30-6.38,7.35-2.52,13.29-6.74,15.03-7.87,1.74-1.12,3.21.23,6.16,3.24,2.94,3,8.54,9.19,19.73,8.45.48.06.95.11,1.44.16l-.21,2.21c-.07,0-.14,0-.2,0-2.21,0-7.73.22-7.73.22-1.43-.04-2.79-.04-4.11,0h-.11Z"/>
      <path class="cls-5" d="m172.1,51.91l5.47-5.84,2.09,1.95-6.12,5.38c-.21-.2-.41-.4-.6-.58-.29-.28-.61-.54-.93-.8l.1-.11Z"/>
      <path class="cls-5" d="m168.99,42.36l1.73,1.03-3.62,5.84c-.54-.23-1.1-.47-1.67-.68l3.56-6.18Z"/>
      <path class="cls-5" d="m172.01,52.02c-.59-.46-1.25-.9-1.95-1.31l.17-.29,4.28-4.69,1.24-1.36,1.83,1.7-5.47,5.84-.1.11Z"/>
      <path class="cls-5" d="m170.23,50.42l-.17.29c-.6-.35-1.24-.68-1.9-1l4.31-5.74,2.05,1.77-4.28,4.69Z"/>
      <path class="cls-5" d="m167.13,41.26l1.86,1.1-3.56,6.18c-.64-.24-1.29-.47-1.95-.68l3.64-6.6Z"/>
      <path class="cls-5" d="m164.7,41.56l-3.05,5.73c-.62-.18-1.25-.35-1.86-.5l.02-.08,3.07-6.03,1.83.87Z"/>
      <path class="cls-5" d="m159.79,46.79c-.63-.16-1.25-.3-1.85-.44l.07-.3,2.98-6.26,1.89.9-3.07,6.03-.02.08Z"/>
      <path class="cls-6" d="m141.21,35.74s9.91,7.51,13.11,9.93c.26.03.37.05.37.06h-.04c-2.15-.35-3.92-.5-4.93-.45-.1,0-.15,0-.15,0l-8.59-7.76h0v-.03l.23-1.75Z"/>
      <path class="cls-6" d="m136.92.69c2.1.03,5.02.44,5.48,3.91-.15,1.7-1.7,2.53-2.51.44-.74-2.06-1.84-3.17-2.87-3.46-.03,0-.07-.02-.1-.02v-.87Z"/>
      <path class="cls-5" d="m135.53,118.99s-4.18,10.55-6.49,12.23c-1.58-.15-2.83-.3-3.93-2.72-.79-1.72,1.57-6.39,3.23-9.35l7.19-.16Z"/>
      <path class="cls-5" d="m129.04,131.22s-2.82.29-7.26.31h0c-4.26-.73,1.02-12.21,2.35-14.82,3.2-.02,5.62-.03,5.62-.03-.18.31-.74,1.25-1.42,2.47-1.66,2.96-4.01,7.63-3.23,9.35,1.1,2.42,2.34,2.58,3.93,2.72Z"/>
      <path class="cls-5" d="m125.89,142.19c12.31,4.2,16.5,10.3,23.02,9.23-2.5.61-4.84,1.15-4.84,1.15,0,0-12.27,1.1-13.82,0-1.54-1.11-2.21-3.1-2.21-3.1-2.89.77-3.77,2.96-7.32,3.47-1.95-3.04,4.33-11.19,5.16-10.75Z"/>
      <path class="cls-5" d="m123.84,81.26c-.99-.61-2.15-1.29-2.87-2.02-.42-.42-1.06-.64-1.88-.77l.03-.26s-2.92-11.72-6.11-21.87c-.16-.52-.33-1.04-.49-1.55,1.76-1.74,3.4-3.08,4.92-4.1,9.15-6.13,14-.37,16.42,2.78l-1.27,3.53-1.88,5.19-6.88,19.06Z"/>
      <path class="cls-10" d="m125.39,136.01c.67.05,1.3-.29,1.61-.88l2.04-3.9c2.31-1.68,6.49-12.23,6.49-12.23l-7.19.16c.67-1.22,1.24-2.15,1.42-2.47,0,0-2.42.02-5.62.03-4.9.02-11.67.03-14.43-.03,0,0-.72,5.41-2.8,9.61-.25.86-.21,1.66.16,2.34l-.06.03c-.33,1-.51,2.92-.61,4.26-.06.85.58,1.57,1.42,1.64l17.57,1.43Zm-23.19,15.02c-2.43-1.55-5.97-5.74-5.97-5.74l-16.48-17.86h0c.5-1.48.92-3.03,1.26-4.65,1.33-1.33,2.64-2.68,3.93-4.03,0,0,15.04,3.35,18.36-4.38,2.91-6.79,7.19-17.51,7.73-24.94.77.31,7.07,1.36,8.28,1.08,1.01-.22.92-1.51.54-1.89.84.34,1.76.62,2.23.51.69-.16.73-.93.88-1.27.22-.5-.76-1.05-1.7-1.53,1.29.54,2.92.53,3.35.21.34-.26.66-1.12.61-1.5-.1-.73-.99-1-1.43-1.24l.03-.11c1.43.26,2.4.1,1.95-.86-.22-.48-1.01-1-1.93-1.57l6.88-19.06.48.17c7.81-1.24,15.86-5.43,19.45-10.22,4.52-6.02,4.62-6.31,4.62-6.32.84.14,1.74.31,2.67.52.61.14,1.22.28,1.85.44.61.16,1.24.32,1.86.5.61.18,1.24.37,1.84.57.66.22,1.31.44,1.95.68.57.22,1.12.45,1.67.68.35.16.7.31,1.05.48.67.32,1.31.66,1.9,1,.71.42,1.37.86,1.95,1.31.33.26.65.52.93.8.19.18.39.38.6.58.38.39.78.81,1.19,1.27.42.48.86.99,1.31,1.54.38.46.76.93,1.14,1.43.29.37.59.76.87,1.16.42.55.84,1.13,1.25,1.73.37.52.74,1.06,1.12,1.6,5.23,7.7,10.5,17.54,12.11,23.74,2.43,9.35,4.49,12.96,4.49,12.96,7.66-1.7,19.14-2.35,24.44-1.25,5.3,1.11,9.94,7.07,10.38,12.81.44,5.74-.67,19.44-2.21,20.53-.78.55-2.38,1.71-4.74,2.85h0c-3.34-3.05-14.85-1.38-25.1-2.39-.48-.04-.96-.1-1.44-.16-11.19.74-16.79-5.45-19.73-8.45-2.95-3-4.42-4.36-6.16-3.24-1.74,1.13-7.68,5.35-15.03,7.87,0,0,21.24,6.38,30,6.38-18.34.67-24.51,9.7-27.94,15.39-2.42.31-4.85.71-6.49,1.18-1.13.33-2.64.71-4.09,1.06-6.52,1.07-10.71-5.03-23.02-9.23-.83-.44-7.11,7.71-5.16,10.75-.52.08-1.09.12-1.74.11-4.64-.04-14.35-.48-16.78-2.03Z"/>
      <path class="cls-2" d="m120.97,79.25c.73.73,1.88,1.4,2.87,2.02.92.57,1.7,1.1,1.93,1.57.45.95-.53,1.12-1.95.86l-.03.11c.43.23,1.33.51,1.43,1.24.05.37-.27,1.24-.61,1.5-.42.32-2.06.33-3.35-.21.93.48,1.92,1.03,1.7,1.53-.16.35-.19,1.11-.88,1.27-.48.11-1.39-.17-2.23-.51-.07-.09-.16-.12-.26-.1l.26.1c.38.37.48,1.66-.54,1.89-1.21.28-7.51-.77-8.28-1.08.08-1.04.08-2.01,0-2.89l.84-8.23h.04c2.48.16,5.27-.12,7.18.17.81.13,1.46.35,1.88.77Z"/>
      <path class="cls-10" d="m113.02,56.35c3.18,10.15,6.11,21.87,6.11,21.87l-.03.26c-1.91-.29-4.7,0-7.18-.16h-.04s.04-.45.04-.45c0,0-2.4.08-5.59.1h0c-2.21,0-7.89-14.99-7.89-14.99,4.42-3.33,9.63-6.35,14.59-6.63Z"/>
      <path class="cls-6" d="m134.7,12.95c-.62,0,.48,2.32,1.7,3.49,1.18-.4,2.58-3.49,2.58-3.49h-4.27Zm10.86,12.55v1.11s-4.5,1.11-5.3,2.43c-.74-.88-3.54-2.58-4.73,1.62-.94-4.86-3.59-7.95-4.91-9.79s-6.41,0-8.76.15-5.08-.51-6.04.67c-.85,1.05-3.09,3.19-3.27,3.09,0-.05.02-.1.03-.15.22-2.65,2.72-8.03,5.81-8.1.88-1.47,3.49-3.39,3.49-3.39h-2.42l-.04-1.13h3.02s.37-1.22,2.14-1.81c-2.06-3.46-3.38-4.27-3.98-6.11-.74-2.28.37-4.71,3.24-3.02,2.5,1.39,6.18,4.41,6.18,4.41,2.06-2.79,4.74-4.76,6.14-4.78.23,0,.48,0,.75,0v.87c-1.14,0-4.39,4.39-4.46,5.32-.08.96.15,5.01.15,5.01h10.3v1.1l-1.47.08c-1.25,1.99-4.58,5.67-6.33,6.99.98,2.14,2.28,4.35,4.57,4.57,2.28.22,5.89.88,5.89.88Z"/>
      <path class="cls-2" d="m147.33,47.44l.16.11c-5.13,7.34-11.55,9.8-14.7,9.52l-.19-.07,1.27-3.53c-2.41-3.15-7.27-8.91-16.42-2.78l-.13-.2-2.65-3.17c-3.3-3.95-3.74-16.37-2.14-22.57h0c.18.1,2.42-2.04,3.27-3.09.96-1.18,3.68-.52,6.04-.67s7.44-1.99,8.76-.15,3.97,4.93,4.91,9.79c1.19-4.2,4-2.5,4.73-1.62,1.17,3.2,1.13,6.31.55,7.96h0c.06.16.1.31.16.48v.02h0c.75,2.75.95,8.33,6.35,9.94Z"/>
      <path class="cls-5" d="m121.79,131.53h0c-2.45.02-5.38-.06-8.6-.3-3.46-.27-5.41-1.22-6.12-2.59-.37-.68-.42-1.48-.16-2.34,2.08-4.2,2.8-9.61,2.8-9.61,2.76.06,9.52.05,14.43.03-1.33,2.6-6.61,14.09-2.35,14.81Z"/>
      <path class="cls-5" d="m121.79,131.53c4.44-.02,7.26-.31,7.26-.31l-2.04,3.9c-.31.59-.94.93-1.61.88l-17.57-1.43c-.84-.07-1.48-.8-1.42-1.64.1-1.35.28-3.26.61-4.26l.06-.03c.7,1.37,2.66,2.32,6.12,2.59,3.22.24,6.15.32,8.6.31Z"/>
      <path class="cls-10" d="m98.43,62.97s5.68,14.99,7.89,14.99h0c3.19-.03,5.59-.1,5.59-.1l-.04.44-.84,8.23c-3.43,5.37-13.59,19.06-26.09,32.2-1.29,1.35-2.59,2.7-3.93,4.03-10.73,10.73-22.78,20.45-33.59,24.06-1.99-5.97-2.87-15.24-2.43-17.67-.8-.8-1.72-1.75-2.65-2.86.51-6.12,14.94-20.54,20.24-22.6-.29-2.66-2.58-5.45-2.58-5.45,1.55-4.64,5.3-7.95,7.51-9.94,2.21-1.99,17.63-13.82,21.87-17.58,1.97-1.75,5.21-4.86,9.04-7.75Z"/>
      <path class="cls-4" d="m111.03,86.54c.08.88.08,1.85,0,2.89-.54,7.43-4.83,18.15-7.73,24.94-3.31,7.72-18.36,4.38-18.36,4.38,12.5-13.14,22.66-26.83,26.09-32.2Z"/>
      <path class="cls-4" d="m79.76,127.42c-.44,1.32-.95,2.59-1.51,3.81-2.04,4.39-4.88,8.04-8.5,10.97-7.96,2.87-16.56,4.41-22.31,4.64,10.81-3.61,22.85-13.32,33.59-24.06-.35,1.62-.76,3.17-1.26,4.64h0Z"/>
      <path class="cls-1" d="m78.24,131.22c.56-1.21,1.07-2.48,1.51-3.81l16.48,17.86s-2.06.14-4.86.27h0s-13.13-14.32-13.13-14.32Z"/>
      <path class="cls-7" d="m78.24,131.22l13.13,14.32h0c-5.04.22-12.52.37-14.79-.48-3.53-1.33-6.84-2.87-6.84-2.87,3.62-2.93,6.46-6.57,8.5-10.97Z"/>
      <path class="cls-7" d="m53.1,96.77c4.13.11,6.92,1.47,6.92,1.47,0,0,2.28,2.79,2.58,5.45-5.3,2.06-19.73,16.49-20.24,22.6-4.26-5.09-8.52-13.47,0-24.52,4.12-4.71,7.8-5.09,10.74-5Z"/>
    </g>
    <g>
      <path class="cls-12" d="m112.54,24.77s0-.06.04-.15c.22-2.65,2.72-8.03,5.81-8.1.88-1.47,3.49-3.39,3.49-3.39h-2.42l-.04-1.13h3.02s.37-1.22,2.14-1.81c-2.06-3.46-3.38-4.27-3.98-6.11-.74-2.28.37-4.71,3.24-3.02,2.5,1.39,6.18,4.41,6.18,4.41,2.06-2.79,4.74-4.76,6.14-4.78.23,0,.48,0,.75,0,2.1.03,5.02.44,5.48,3.91-.15,1.7-1.7,2.53-2.51.44-.74-2.06-1.84-3.17-2.87-3.46-.03,0-.07-.02-.1-.02-1.13,0-4.39,4.39-4.45,5.32-.08.96.15,5.01.15,5.01h10.3v1.1l-1.47.08c-1.25,1.99-4.58,5.67-6.33,6.99.98,2.14,2.28,4.35,4.57,4.57,2.28.22,5.89.88,5.89.88v1.11s-4.5,1.11-5.3,2.43c-.74-.88-3.54-2.58-4.73,1.62-.94-4.86-3.59-7.95-4.91-9.79s-6.41,0-8.76.15-5.08-.51-6.04.67c-.85,1.05-3.09,3.19-3.27,3.09"/>
      <path class="cls-12" d="m134.7,12.95h4.27s-1.4,3.1-2.58,3.49c-1.21-1.18-2.32-3.49-1.7-3.49Z"/>
      <path class="cls-12" d="m112.58,24.62c-.02.05-.03.1-.03.15h0c-1.6,6.19-1.16,18.61,2.14,22.57l2.65,3.17"/>
      <path class="cls-12" d="m140.82,37.01c-.15.43-.34.76-.55.96-1.04.97-3.49.79-3.94,0"/>
      <path class="cls-12" d="m140.26,29.04c1.17,3.2,1.13,6.31.55,7.96"/>
      <path class="cls-12" d="m140.98,37.51c.75,2.74.95,8.32,6.35,9.93"/>
      <path class="cls-12" d="m140.82,37h0c.06.16.1.31.16.48"/>
      <path class="cls-12" d="m123.84,81.26l6.88-19.06,1.88-5.19,1.27-3.53c-2.41-3.15-7.27-8.91-16.42-2.78-1.52,1.02-3.16,2.36-4.92,4.1.16.51.33,1.03.49,1.55,3.18,10.15,6.11,21.87,6.11,21.87"/>
      <path class="cls-12" d="m224.88,133.77c-2.38,1.13-5.53,2.24-9.39,2.68-7.3.86-13.55-2.66-15.92-2.86-.07,0-.14,0-.2,0-2.21,0-7.73.22-7.73.22,0,0,4.64,3.1,5.3,4.86s-1.99,5.96-7.73,7.07c-5.73,1.11-20.53,2.66-23.85,2.87-1.57.1-3.72.3-5.88.59-2.42.31-4.85.71-6.49,1.18-1.13.33-2.64.71-4.09,1.06-2.5.61-4.84,1.15-4.84,1.15,0,0-12.27,1.1-13.82,0-1.54-1.11-2.21-3.1-2.21-3.1-2.89.77-3.77,2.96-7.32,3.47-.52.08-1.09.12-1.74.11-4.64-.04-14.35-.48-16.78-2.03s-5.97-5.74-5.97-5.74c0,0-2.06.14-4.86.27-5.04.22-12.52.36-14.79-.48-3.53-1.33-6.84-2.87-6.84-2.87-7.96,2.87-16.56,4.41-22.31,4.64-1.99-5.97-2.87-15.24-2.43-17.67-.8-.8-1.72-1.75-2.65-2.86-4.26-5.09-8.52-13.47,0-24.52,4.12-4.71,7.8-5.09,10.74-5,4.13.11,6.92,1.47,6.92,1.47,1.55-4.64,5.3-7.95,7.51-9.94,2.21-1.99,17.63-13.82,21.87-17.58,1.97-1.75,5.21-4.86,9.04-7.75,4.42-3.33,9.63-6.35,14.59-6.63"/>
      <path class="cls-12" d="m155.26,45.83c.84.14,1.74.31,2.67.52.61.14,1.22.28,1.85.44.61.16,1.24.32,1.86.5.61.18,1.24.37,1.84.57.66.22,1.31.44,1.95.68.57.22,1.12.45,1.67.68.35.16.7.31,1.05.48.67.32,1.31.66,1.9,1,.71.42,1.37.86,1.95,1.31.33.26.65.52.93.8.19.18.39.38.6.58.38.39.78.81,1.19,1.27.42.48.86.99,1.31,1.54.38.46.76.93,1.14,1.43.29.37.59.76.87,1.16.42.55.84,1.13,1.25,1.73.37.52.74,1.06,1.12,1.6,5.23,7.7,10.5,17.54,12.11,23.74,2.43,9.35,4.49,12.96,4.49,12.96,7.66-1.7,19.14-2.35,24.44-1.25,5.3,1.11,9.94,7.07,10.38,12.81.44,5.74-.67,19.44-2.21,20.53-.78.55-2.38,1.71-4.74,2.85"/>
      <path class="cls-12" d="m154.69,45.73c.18.03.37.06.57.1"/>
      <path class="cls-12" d="m132.79,57.08c3.15.28,9.57-2.19,14.7-9.52.45-.63.89-1.31,1.31-2.02.03-.14.36-.22.92-.25,1.01-.05,2.78.1,4.93.45"/>
      <path class="cls-12" d="m111.03,86.54c-3.43,5.37-13.59,19.06-26.09,32.2-1.29,1.35-2.59,2.7-3.93,4.03-10.73,10.73-22.78,20.45-33.59,24.06"/>
      <path class="cls-13" d="m106.32,77.97c-5.8.04-14.21-.08-15.49-1.15"/>
      <path class="cls-12" d="m84.95,118.74s15.04,3.35,18.36-4.38c2.91-6.79,7.19-17.51,7.73-24.94.08-1.04.08-2.01,0-2.89l.84-8.23"/>
      <path class="cls-12" d="m79.76,127.42c-.44,1.32-.95,2.59-1.51,3.81-2.04,4.39-4.88,8.04-8.5,10.97"/>
      <path class="cls-12" d="m81.02,122.77c-.35,1.62-.76,3.17-1.26,4.64"/>
      <line class="cls-12" x1="78.24" y1="131.22" x2="91.37" y2="145.54"/>
      <polyline class="cls-12" points="96.23 145.28 79.76 127.42 79.76 127.41"/>
      <path class="cls-12" d="m111.92,78.31c2.48.16,5.27-.13,7.18.16.81.13,1.46.35,1.88.77.73.73,1.88,1.4,2.87,2.02.92.57,1.7,1.1,1.93,1.57.45.95-.53,1.12-1.95.86-1.12-.21-2.53-.68-3.73-1.25"/>
      <path class="cls-12" d="m123.79,83.8c.43.23,1.33.51,1.43,1.24.05.37-.27,1.24-.61,1.5-.42.32-2.06.33-3.35-.21"/>
      <path class="cls-12" d="m119.85,88.62c.84.34,1.76.62,2.23.51.69-.16.73-.93.88-1.27.22-.5-.76-1.05-1.7-1.53-.07-.03-.13-.07-.2-.1-.13-.07-.25-.14-.37-.2"/>
      <path class="cls-12" d="m119.85,88.62c-.07-.09-.16-.12-.26-.1l.26.1Z"/>
      <path class="cls-12" d="m111.03,89.43c.77.31,7.07,1.36,8.28,1.08,1.01-.22.92-1.51.54-1.89"/>
      <path class="cls-13" d="m122.08,89.13c-.22,2.7-1.19,15.88,0,19.41"/>
      <path class="cls-12" d="m131.2,62.37c7.81-1.24,15.86-5.43,19.45-10.22,4.52-6.02,4.62-6.31,4.62-6.32h0"/>
      <path class="cls-13" d="m157.12,51.31c-2.8,8.94-8.69,32.98-8.69,37.83s-.59,17.06,0,21.18"/>
      <path class="cls-13" d="m152.34,106.63c.1,4.98.3,8.68.3,8.68"/>
      <path class="cls-13" d="m166.69,52.89c-5.74,12.52-13.22,26.65-14.05,36.81-.42,5.18-.41,11.74-.3,16.92"/>
      <path class="cls-13" d="m98.43,62.97s5.68,14.99,7.89,14.99h0"/>
      <path class="cls-13" d="m86.3,79.54c-.48.66-2.41,5.57-5.29,11.74-4.13,8.89-10.21,20.38-16.65,25.4"/>
      <path class="cls-12" d="m42.35,126.29c.51-6.12,14.94-20.54,20.24-22.6-.29-2.66-2.58-5.45-2.58-5.45"/>
      <path class="cls-13" d="m67.53,88.3s9.23,2.93,13.49,2.98h0"/>
      <path class="cls-13" d="m157.42,99.63c.59-10.49,7.65-23.8,19.72-29.16"/>
      <line class="cls-13" x1="165.83" y1="72.57" x2="172.46" y2="64.45"/>
      <path class="cls-13" d="m152.34,106.63h0c1.65-2.32,3.28-4.94,5.09-7,2.53-2.87,5.43-4.65,9.26-2.98.78.34,1.59.82,2.46,1.46,8.15,6.09,26.69,22.7,46.8,21.35"/>
      <path class="cls-13" d="m166.69,96.65c3.75-5.48,8.39-14.09,18.55-14.76"/>
      <path class="cls-13" d="m180.61,101.11c6.4,1.32,21.42,4.2,37.98,0"/>
      <path class="cls-13" d="m102.2,151.02c4.85-2.65,11.04-4.64,13.58-8.83"/>
      <path class="cls-12" d="m120.73,152.95s0,0,0,0c-1.95-3.04,4.33-11.19,5.16-10.75,12.31,4.2,16.5,10.3,23.02,9.23"/>
      <path class="cls-12" d="m187.53,133.79c1.31-.04,2.68-.04,4.11,0"/>
      <path class="cls-12" d="m159.48,149.18c3.43-5.69,9.6-14.72,27.94-15.39"/>
      <path class="cls-12" d="m224.89,133.77h0c-3.34-3.05-14.85-1.38-25.1-2.39-.48-.04-.96-.1-1.44-.16-11.19.74-16.79-5.45-19.73-8.45-2.95-3-4.42-4.36-6.16-3.24-1.74,1.13-7.68,5.35-15.03,7.87,0,0,21.24,6.38,30,6.38h.31"/>
      <path class="cls-13" d="m119.57,109.42c4.42,2.8,15.96,7.51,29.33,5.89"/>
      <path class="cls-13" d="m138.77,134.46s9.37-2.92,14.67-8.17"/>
      <path class="cls-12" d="m107.01,128.67c-.33,1-.51,2.92-.61,4.26-.06.85.58,1.57,1.42,1.64l17.57,1.43c.67.05,1.3-.29,1.61-.88l2.04-3.9s-2.82.29-7.26.31c-2.45,0-5.38-.07-8.6-.31-3.46-.27-5.41-1.22-6.12-2.59-.37-.68-.42-1.48-.16-2.34,2.08-4.2,2.8-9.61,2.8-9.61,2.76.06,9.52.05,14.43.03,3.2-.02,5.62-.03,5.62-.03-.18.31-.74,1.25-1.42,2.47-1.66,2.96-4.01,7.63-3.23,9.35,1.1,2.42,2.34,2.58,3.93,2.72,2.31-1.68,6.49-12.23,6.49-12.23l-7.19.16"/>
      <path class="cls-12" d="m124.14,116.71h0c-1.33,2.61-6.61,14.1-2.35,14.82"/>
      <path class="cls-13" d="m135.53,118.99c7.53.45,12.6.29,15.92-2.28"/>
      <path class="cls-13" d="m154.32,120.99c-3.09.88-4.65,2.65-10.83,4.41"/>
      <path class="cls-12" d="m119.57,30.66c-.8,3.09-3.24,8.83-3.79,8.83,2.98-.44,4.38-.86,4.38-.86"/>
      <path class="cls-12" d="m123.2,33.16h4.61"/>
      <line class="cls-12" x1="114.09" y1="33.83" x2="117.01" y2="33.83"/>
      <path class="cls-12" d="m122.44,44.51s-1.38-.15-2.25.12"/>
      <path class="cls-12" d="m124.73,24.62c.15-.74,3.93-.51,4.32,0"/>
      <path class="cls-12" d="m114.64,26.09s2.35-.8,4.05,0"/>
      <path class="cls-12" d="m140.97,37.5h0s8.59,7.77,8.59,7.77c0,0,.05,0,.15,0,.79.09,4.47.44,4.93.45h.04s-.11-.03-.37-.06c-3.2-2.42-13.11-9.93-13.11-9.93l-.23,1.75v.02"/>
      <path class="cls-12" d="m135.77,41.26c0,2.07-2.08,5.22-4.58,7.28"/>
      <polyline class="cls-12" points="159.8 46.71 162.87 40.68 163.49 39.49"/>
      <polyline class="cls-12" points="161.64 47.29 164.7 41.56 162.87 40.68 160.99 39.78 158 46.05"/>
      <polyline class="cls-12" points="170.23 40.21 168.99 42.36 165.43 48.55"/>
      <polyline class="cls-12" points="163.49 47.86 167.13 41.26 168.99 42.36 170.72 43.39 167.1 49.23"/>
      <polyline class="cls-12" points="172.1 51.91 177.57 46.07 179.15 44.38"/>
      <polyline class="cls-12" points="170.23 50.42 174.51 45.74 175.74 44.38 177.57 46.07 179.66 48.02 173.54 53.4"/>
      <polyline class="cls-12" points="184.61 48.92 183.48 49.89 176.33 55.96"/>
      <polyline class="cls-12" points="175.06 54.37 181.97 47.85 183.48 49.89 184.87 51.76 177.44 57.43"/>
      <polyline class="cls-12" points="179.64 60.28 186.12 56.16 187.28 55.42"/>
      <polyline class="cls-12" points="178.05 58.79 184.91 54.21 186.12 56.16 187.51 58.37 180.47 62.09"/>
      <polyline class="cls-12" points="168.15 49.71 172.46 43.96 174.51 45.74"/>
    </g>
  </g>
  <path class="cls-13" d="m111.87,70.65l.04-.44s-2.4.08-5.59.1"/>
</svg>