<svg xmlns="http://www.w3.org/2000/svg" viewBox="0 0 270.07 202.21"><defs><style>.cls-10,.cls-3,.cls-4,.cls-5,.cls-6,.cls-7{stroke-width:0}.cls-12{stroke-miterlimit:10}.cls-12,.cls-13{stroke:#000}.cls-12,.cls-13,.cls-14{fill:none}.cls-3{fill:#f3edd7}.cls-4{fill:#c0504e}.cls-5{fill:#b1a668}.cls-13,.cls-14{stroke-linecap:round;stroke-linejoin:round}.cls-6{fill:#333}.cls-7{fill:#635475}.cls-14{stroke:#eee;stroke-width:.5px}.cls-10{fill:#444}</style></defs><g id="_レイヤー_3" data-name="レイヤー 3"><path class="cls-3" d="M.24 167.6h3.62v5.02H.24zM269.82 195.15v6.56H239.4l15.33-8.62c1.03 1.61 3.11 2.71 5.51 2.71s4.61-1.18 5.61-2.88l3.96 2.23ZM269.82 184.6v10.55l-3.96-2.23c.38-.65.59-1.38.59-2.14 0-1.3-.62-2.48-1.61-3.37l4.99-2.8Z"/><path class="cls-3" d="M269.82 172.63v11.98l-4.99 2.8c-1.14-1.01-2.77-1.64-4.59-1.64s-3.3.58-4.43 1.51l-26.06-14.65h40.07ZM269.82 101.81v5.76H.24v-5.76h269.58zM265.83 167.6h3.99v5.02h-3.99zM266.45 190.78c0 .76-.21 1.49-.59 2.14l-5.41-3.04 4.39-2.47c1 .89 1.61 2.07 1.61 3.37Z"/><path class="cls-3" d="m260.45 189.88 5.41 3.04c-1 1.7-3.13 2.88-5.61 2.88s-4.48-1.1-5.51-2.71l5.71-3.21Z"/><path class="cls-6" d="M254.54 167.6h11.29v5.02h-11.29z"/><path class="cls-3" d="m264.84 187.4-4.39 2.47-4.63-2.6c1.13-.93 2.7-1.51 4.43-1.51 1.82 0 3.45.63 4.59 1.64ZM260.45 189.88l-5.71 3.21c-.44-.69-.69-1.47-.69-2.31 0-1.37.68-2.6 1.77-3.5l4.63 2.6Z"/><path class="cls-3" d="m229.75 172.63 26.06 14.65c-1.09.9-1.77 2.13-1.77 3.5 0 .83.25 1.62.69 2.31l-15.33 8.62h-41.43l-15.63-8.79c.38-.65.59-1.38.59-2.14 0-1.3-.62-2.48-1.61-3.37l26.31-14.79h22.13Zm-5.96 18.15c0-2.77-2.25-5.01-5.01-5.01s-5.02 2.25-5.02 5.01 2.25 5.02 5.02 5.02 5.01-2.25 5.01-5.02Z"/><path class="cls-3" d="M254.54 172.63h-30.49v-5.03h30.49v5.03z"/><path class="cls-6" d="M212.76 167.6h11.29v5.02h-11.29zM218.78 185.77c2.77 0 5.01 2.25 5.01 5.01s-2.25 5.02-5.01 5.02-5.02-2.25-5.02-5.02 2.25-5.01 5.02-5.01Z"/><path class="cls-3" d="m207.63 172.63-26.31 14.79c-1.14-1.01-2.77-1.65-4.59-1.65s-3.3.58-4.43 1.51l-26.06-14.65h61.39Z"/><path class="cls-3" d="M182.27 172.63v-5.03h30.49v5.03h-30.49zM197.97 201.71h-42.08l15.33-8.62c1.03 1.61 3.11 2.71 5.51 2.71s4.61-1.18 5.61-2.88l15.63 8.79ZM182.93 190.78c0 .76-.21 1.49-.59 2.14l-5.41-3.04 4.39-2.46c1 .88 1.61 2.06 1.61 3.37Z"/><path class="cls-3" d="m176.93 189.88 5.41 3.04c-1 1.7-3.13 2.88-5.61 2.88s-4.48-1.1-5.51-2.71l5.71-3.21Z"/><path class="cls-6" d="M170.98 167.6h11.29v5.02h-11.29z"/><path class="cls-3" d="M176.73 185.77c1.82 0 3.45.63 4.59 1.65l-4.39 2.46-4.63-2.6c1.13-.93 2.7-1.51 4.43-1.51Z"/><path class="cls-3" d="m176.93 189.88-5.71 3.21c-.44-.69-.69-1.47-.69-2.31 0-1.37.68-2.6 1.77-3.5l4.63 2.6Z"/><path class="cls-3" d="m146.24 172.63 26.06 14.65c-1.09.9-1.77 2.13-1.77 3.5 0 .83.25 1.62.69 2.31l-15.33 8.62h-41.43l-15.63-8.79c.38-.65.59-1.38.59-2.14 0-1.3-.62-2.48-1.61-3.37l26.31-14.79h22.13Zm-7.01 18.15c0-2.77-2.25-5.01-5.01-5.01s-5.02 2.25-5.02 5.01 2.25 5.02 5.02 5.02 5.01-2.25 5.01-5.02Z"/><path class="cls-3" d="M170.98 172.63h-30.49v-5.03h30.49v5.03z"/><path class="cls-6" d="M129.2 167.6h11.29v5.02H129.2zM134.21 185.77c2.77 0 5.01 2.25 5.01 5.01s-2.25 5.02-5.01 5.02-5.02-2.25-5.02-5.02 2.25-5.01 5.02-5.01Z"/><path class="cls-3" d="M124.11 172.63 97.8 187.42c-1.14-1.01-2.77-1.65-4.59-1.65s-3.3.58-4.43 1.51l-26.06-14.65h61.39Z"/><path class="cls-3" d="M129.2 172.63H98.71v-5.03h30.49v5.03zM114.46 201.71H72.38l15.33-8.62c1.03 1.61 3.11 2.71 5.51 2.71s4.61-1.18 5.61-2.88l15.63 8.79ZM99.42 190.78c0 .76-.21 1.49-.59 2.14l-5.41-3.04 4.39-2.46c1 .88 1.61 2.06 1.61 3.37Z"/><path class="cls-3" d="m93.41 189.88 5.41 3.04c-1 1.7-3.13 2.88-5.61 2.88s-4.48-1.1-5.51-2.71l5.71-3.21Z"/><path class="cls-6" d="M87.42 167.6h11.29v5.02H87.42z"/><path class="cls-3" d="M93.21 185.77c1.82 0 3.45.63 4.59 1.65l-4.39 2.46-4.63-2.6c1.13-.93 2.7-1.51 4.43-1.51Z"/><path class="cls-3" d="m93.41 189.88-5.71 3.21c-.44-.69-.69-1.47-.69-2.31 0-1.37.68-2.6 1.77-3.5l4.63 2.6Z"/><path class="cls-3" d="m62.72 172.63 26.06 14.65c-1.09.9-1.77 2.13-1.77 3.5 0 .83.25 1.62.69 2.31l-15.33 8.62H30.75l-15.63-8.79c.38-.65.59-1.38.59-2.14 0-1.3-.62-2.48-1.61-3.37l26.31-14.79h22.32Zm-8.52 18.15c0-2.77-2.25-5.01-5.01-5.01s-5.02 2.25-5.02 5.01 2.25 5.02 5.02 5.02 5.01-2.25 5.01-5.02Z"/><path class="cls-3" d="M87.42 172.63H56.93v-5.03h30.49v5.03z"/><path class="cls-6" d="M45.64 167.6h11.29v5.02H45.64zM49.19 185.77c2.77 0 5.01 2.25 5.01 5.01s-2.25 5.02-5.01 5.02-5.02-2.25-5.02-5.02 2.25-5.01 5.02-5.01Z"/><path class="cls-3" d="M45.64 172.63H15.15v-5.03h30.49v5.03zM30.75 201.71H.24v-6.51L4 193.09c1.03 1.61 3.11 2.71 5.51 2.71s4.61-1.18 5.61-2.88l15.63 8.79ZM15.71 190.78c0 .76-.21 1.49-.59 2.14l-5.41-3.04 4.39-2.46c1 .88 1.61 2.06 1.61 3.37Z"/><path class="cls-6" d="M3.86 167.6h11.29v5.02H3.86z"/><path class="cls-3" d="m9.71 189.88 5.41 3.04c-1 1.7-3.13 2.88-5.61 2.88s-4.48-1.1-5.51-2.71l5.71-3.21Z"/><path class="cls-3" d="M9.51 185.77c1.82 0 3.45.63 4.59 1.65l-4.39 2.46-4.63-2.6c1.13-.93 2.7-1.51 4.43-1.51Z"/><path class="cls-3" d="M9.71 189.88 4 193.09c-.44-.69-.69-1.47-.69-2.31 0-1.37.68-2.6 1.77-3.5l4.63 2.6Z"/><path class="cls-3" d="m.24 184.56 4.83 2.71c-1.09.9-1.77 2.13-1.77 3.5 0 .83.25 1.62.69 2.31l-3.76 2.11v-10.63Z"/><path style="fill:#d2d296;stroke-width:0" d="M212.76 167.6H.24v-60.03h269.58v60.03H212.76z"/><path class="cls-3" d="M.24 172.63H40.4l-26.31 14.79c-1.14-1.01-2.77-1.65-4.59-1.65s-3.3.58-4.43 1.51l-4.83-2.71v-11.93Z"/><path class="cls-12" d="M269.82 201.71H.24M.24 101.81h269.58M.24 107.57h269.58M265.83 167.6h3.99M224.05 167.6h30.49M182.27 167.6h30.49M140.49 167.6h30.49M98.71 167.6h30.49M56.93 167.6h30.49M15.15 167.6h30.49M.24 167.6h3.62M265.83 172.63h3.99M224.05 172.63h30.49M182.27 172.63h30.49M140.49 172.63h30.49M98.71 172.63h30.49M56.93 172.63h30.49M15.15 172.63H45.64M.24 172.63h3.62M72.37 201.71l15.34-8.62 5.7-3.21 4.39-2.47 26.31-14.78"/><path class="cls-12" d="m114.46 201.71-15.63-8.79-5.42-3.04-4.63-2.61-26.06-14.64M139.23 190.78c0 2.78-2.25 5.02-5.01 5.02s-5.02-2.25-5.02-5.02 2.25-5.01 5.02-5.01 5.01 2.25 5.01 5.01ZM223.79 190.78c0 2.78-2.25 5.02-5.01 5.02s-5.02-2.25-5.02-5.02 2.25-5.01 5.02-5.01 5.01 2.25 5.01 5.01Z"/><path class="cls-12" d="M97.8 187.41c1 .88 1.61 2.06 1.61 3.37 0 .76-.21 1.49-.59 2.14-1 1.7-3.13 2.88-5.61 2.88s-4.48-1.1-5.51-2.71c-.44-.69-.69-1.47-.69-2.31 0-1.37.68-2.6 1.77-3.5 1.13-.93 2.7-1.51 4.43-1.51 1.82 0 3.45.63 4.59 1.65ZM.24 195.19l3.76-2.1 5.71-3.21 4.39-2.47 26.3-14.78"/><path class="cls-12" d="m30.75 201.71-15.63-8.79-5.41-3.04-4.63-2.61-4.84-2.71"/><path class="cls-12" d="M14.1 187.41c1 .88 1.61 2.06 1.61 3.37 0 .76-.21 1.49-.59 2.14-1 1.7-3.13 2.88-5.61 2.88s-4.48-1.1-5.51-2.71c-.44-.69-.69-1.47-.69-2.31 0-1.37.68-2.6 1.77-3.5 1.13-.93 2.7-1.51 4.43-1.51 1.82 0 3.45.63 4.59 1.65ZM155.89 201.71l15.33-8.62 5.71-3.21 4.39-2.47 26.31-14.78"/><path class="cls-12" d="m197.97 201.71-15.63-8.79-5.41-3.04-4.63-2.61-26.06-14.64"/><path class="cls-12" d="M181.32 187.41c1 .88 1.61 2.06 1.61 3.37 0 .76-.21 1.49-.59 2.14-1 1.7-3.13 2.88-5.61 2.88s-4.48-1.1-5.51-2.71c-.44-.69-.69-1.47-.69-2.31 0-1.37.68-2.6 1.77-3.5 1.13-.93 2.7-1.51 4.43-1.51 1.82 0 3.45.63 4.59 1.65ZM239.4 201.71l15.34-8.62 5.71-3.21 4.39-2.48 4.98-2.8"/><path class="cls-12" d="m269.82 195.15-3.96-2.23-5.41-3.04-4.64-2.61-26.06-14.64"/><path class="cls-12" d="M264.84 187.4c1 .89 1.61 2.07 1.61 3.37 0 .76-.21 1.49-.59 2.14-1 1.7-3.13 2.88-5.61 2.88s-4.48-1.1-5.51-2.71c-.44-.69-.69-1.47-.69-2.31 0-1.37.68-2.6 1.77-3.5 1.13-.93 2.7-1.51 4.43-1.51 1.82 0 3.45.63 4.59 1.64ZM54.2 190.78c0 2.78-2.25 5.02-5.01 5.02s-5.02-2.25-5.02-5.02 2.25-5.01 5.02-5.01 5.01 2.25 5.01 5.01ZM3.86 167.6h11.29v5.02H3.86zM45.64 167.6h11.29v5.02H45.64zM87.42 167.6h11.29v5.02H87.42zM129.2 167.6h11.29v5.02H129.2zM170.98 167.6h11.29v5.02h-11.29zM212.76 167.6h11.29v5.02h-11.29zM254.54 167.6h11.29v5.02h-11.29z"/></g><g id="_レイヤー_2" data-name="レイヤー 2"><path d="M149.2 45.65c.03-.14.36-.23.92-.25.79.09 4.48.44 4.94.45h.04c.18.03.37.06.57.1s-.1.31-4.63 6.35c-3.6 4.8-11.67 9-19.5 10.24l-.48-.17 1.88-5.2.19.07c3.16.28 9.59-2.19 14.74-9.55.45-.63.89-1.31 1.32-2.03Z" style="fill:#5a5b56;stroke-width:0"/><path class="cls-4" d="m200.12 133.94.21-2.21c10.28 1.01 21.82-.67 25.17 2.39a29.51 29.51 0 0 1-9.41 2.69c-7.32.86-13.59-2.67-15.97-2.87Z"/><path class="cls-7" d="M159.91 149.58c3.43-5.71 9.63-14.76 28.02-15.43h.11c1.32-.04 2.69-.04 4.12 0 0 0 4.65 3.11 5.32 4.87s-1.99 5.98-7.75 7.09c-5.75 1.11-20.59 2.66-23.91 2.88-1.57.1-3.73.3-5.9.59Z"/><path class="cls-5" d="m188.02 58.53-7.06 3.73-.05.03c-.37-.55-.75-1.08-1.12-1.6l.34-.24 6.51-4.14 1.39 2.22Z"/><path class="cls-5" d="m178.54 58.95 6.88-4.59 1.21 1.95-6.51 4.14-.34.24c-.42-.6-.83-1.18-1.26-1.73ZM185.37 51.9l-7.45 5.68-.27.21c-.38-.49-.76-.97-1.14-1.43l.3-.25 7.16-6.09 1.4 1.88Z"/><path class="cls-5" d="m183.97 50.02-7.16 6.09-.3.25c-.44-.55-.88-1.07-1.31-1.54l.34-.3 6.93-6.53 1.51 2.04Z"/><path class="cls-4" d="M187.93 134.15c-8.78 0-30.08-6.4-30.08-6.4 7.37-2.52 13.33-6.76 15.07-7.89 1.74-1.13 3.22.23 6.18 3.24 2.95 3.01 8.56 9.21 19.78 8.47.48.06.95.11 1.44.16l-.21 2.21h-.2c-2.22 0-7.75.22-7.75.22-1.43-.04-2.8-.04-4.12 0h-.11Z"/><path class="cls-5" d="m172.57 52.05 5.48-5.85 2.1 1.95-6.14 5.39c-.21-.2-.41-.4-.6-.58-.29-.28-.61-.54-.94-.8l.1-.11ZM169.45 42.48l1.73 1.03-3.63 5.85c-.55-.23-1.1-.47-1.67-.69l3.56-6.2Z"/><path class="cls-5" d="M172.47 52.16c-.59-.46-1.25-.9-1.96-1.32l.17-.29 4.29-4.7 1.24-1.36 1.83 1.7-5.48 5.85-.1.11Z"/><path class="cls-5" d="m170.69 50.56-.17.29c-.6-.35-1.24-.69-1.91-1.01l4.32-5.76 2.06 1.78-4.29 4.7ZM167.58 41.37l1.86 1.1-3.56 6.2c-.64-.24-1.29-.47-1.95-.69l3.65-6.62ZM165.14 41.67l-3.06 5.75c-.62-.18-1.25-.35-1.86-.5l.02-.08 3.08-6.05 1.83.88Z"/><path class="cls-5" d="M160.22 46.92c-.63-.16-1.25-.3-1.86-.44l.07-.3 2.99-6.28 1.89.9-3.08 6.05-.02.08Z"/><path class="cls-6" d="M141.59 35.83s9.94 7.53 13.15 9.96c.26.03.37.05.37.06h-.04c-2.16-.36-3.93-.5-4.94-.45h-.15l-8.61-7.78v-.03l.23-1.75ZM137.29.69c2.11.03 5.03.44 5.49 3.92-.15 1.7-1.71 2.53-2.52.44-.74-2.06-1.85-3.17-2.88-3.47-.03 0-.07-.02-.1-.02V.68Z"/><path class="cls-5" d="M135.9 119.31s-4.19 10.58-6.51 12.26c-1.59-.15-2.84-.3-3.94-2.73-.79-1.73 1.57-6.41 3.24-9.38l7.21-.16Z"/><path class="cls-5" d="M129.39 131.58s-2.83.29-7.28.31c-4.27-.73 1.02-12.25 2.36-14.86 3.21-.02 5.64-.03 5.64-.03-.18.31-.75 1.25-1.42 2.47-1.67 2.97-4.02 7.65-3.24 9.38 1.1 2.43 2.35 2.58 3.94 2.73ZM126.23 142.57c12.34 4.21 16.54 10.33 23.08 9.25-2.51.62-4.85 1.15-4.85 1.15s-12.31 1.1-13.86 0c-1.54-1.11-2.21-3.11-2.21-3.11-2.9.77-3.78 2.97-7.34 3.48-1.95-3.05 4.35-11.22 5.18-10.78ZM124.18 81.48c-1-.62-2.15-1.29-2.88-2.02-.42-.42-1.07-.64-1.88-.77l.03-.26s-2.93-11.75-6.12-21.93c-.16-.52-.33-1.04-.49-1.55 1.77-1.74 3.41-3.09 4.94-4.11 9.18-6.15 14.04-.37 16.46 2.78l-1.27 3.54-1.88 5.2-6.9 19.12Z"/><path class="cls-10" d="M125.73 136.37c.67.05 1.3-.29 1.61-.88l2.05-3.91c2.32-1.68 6.51-12.26 6.51-12.26l-7.21.16c.68-1.22 1.24-2.16 1.42-2.47 0 0-2.43.02-5.64.03-4.92.02-11.7.03-14.47-.03 0 0-.72 5.42-2.81 9.64-.25.87-.21 1.67.16 2.35l-.06.03c-.33 1.01-.51 2.92-.61 4.28-.06.85.58 1.58 1.42 1.65l17.62 1.43Zm-23.25 15.06c-2.44-1.55-5.98-5.76-5.98-5.76l-16.52-17.91c.5-1.48.92-3.04 1.27-4.66 1.34-1.34 2.65-2.69 3.94-4.04 0 0 15.08 3.36 18.4-4.39 2.91-6.81 7.21-17.55 7.75-25.01.77.31 7.09 1.36 8.3 1.08 1.01-.23.92-1.52.54-1.89.84.34 1.76.62 2.24.51.69-.16.73-.93.88-1.27.23-.5-.76-1.05-1.7-1.54 1.29.54 2.93.53 3.36.21.34-.26.66-1.13.61-1.5-.1-.73-1-1.01-1.43-1.24l.03-.11c1.43.26 2.41.1 1.96-.86-.23-.48-1.01-1.01-1.93-1.58l6.9-19.12.48.17c7.83-1.24 15.9-5.45 19.5-10.24 4.53-6.04 4.63-6.33 4.63-6.34.84.14 1.74.31 2.68.52.61.14 1.22.28 1.86.44.62.16 1.24.32 1.86.5.62.18 1.24.37 1.85.57.66.22 1.31.44 1.95.69.57.22 1.13.45 1.67.69.36.16.7.31 1.05.48.67.32 1.31.66 1.91 1.01.71.42 1.37.86 1.96 1.32.33.26.65.52.94.8.19.18.39.38.6.58.38.39.78.82 1.19 1.27a59.612 59.612 0 0 1 2.45 2.97c.29.37.59.76.88 1.16a110.857 110.857 0 0 1 2.38 3.33c5.25 7.72 10.53 17.59 12.14 23.81 2.44 9.38 4.5 12.99 4.5 12.99 7.68-1.7 19.19-2.36 24.51-1.26 5.32 1.11 9.97 7.09 10.41 12.85.44 5.76-.67 19.49-2.21 20.59-.78.56-2.39 1.72-4.75 2.85-3.35-3.06-14.89-1.39-25.17-2.39-.49-.04-.96-.1-1.44-.16-11.22.74-16.84-5.46-19.78-8.47-2.96-3.01-4.43-4.37-6.18-3.24-1.74 1.14-7.7 5.37-15.07 7.89 0 0 21.3 6.4 30.08 6.4-18.39.67-24.58 9.72-28.02 15.43-2.43.31-4.87.71-6.51 1.18-1.14.33-2.65.71-4.1 1.07-6.54 1.08-10.74-5.05-23.08-9.25-.83-.44-7.13 7.73-5.18 10.78-.52.08-1.09.12-1.74.11-4.65-.04-14.39-.49-16.83-2.04Z"/><path d="M121.3 79.46c.73.73 1.88 1.41 2.88 2.02.92.57 1.71 1.1 1.93 1.58.45.95-.53 1.12-1.96.86l-.03.11c.43.23 1.34.51 1.43 1.24.05.37-.27 1.24-.61 1.5-.42.32-2.06.33-3.36-.21.94.49 1.93 1.03 1.7 1.54-.16.35-.19 1.11-.88 1.27-.48.11-1.4-.17-2.24-.51a.25.25 0 0 0-.26-.1l.26.1c.38.37.48 1.67-.54 1.89-1.21.28-7.53-.77-8.3-1.08.08-1.04.08-2.01 0-2.9l.84-8.26h.04c2.49.16 5.28-.12 7.2.17.82.13 1.47.36 1.88.77Z" style="fill:#f9ceac;stroke-width:0"/><path class="cls-10" d="M113.33 56.5c3.19 10.17 6.12 21.93 6.12 21.93l-.03.26c-1.92-.29-4.71 0-7.2-.16h-.04l.04-.45s-2.4.08-5.6.1c-2.21 0-7.91-15.03-7.91-15.03 4.43-3.34 9.65-6.37 14.63-6.64Z"/><path class="cls-6" d="M135.06 12.99c-.62 0 .49 2.32 1.7 3.5 1.18-.4 2.58-3.5 2.58-3.5h-4.28Zm10.89 12.59v1.11s-4.51 1.11-5.32 2.44c-.74-.88-3.55-2.58-4.74 1.62-.95-4.87-3.6-7.97-4.93-9.82s-6.43 0-8.79.15-5.09-.51-6.05.67c-.85 1.05-3.1 3.2-3.28 3.1 0-.05.02-.1.03-.15.22-2.65 2.73-8.05 5.83-8.12.88-1.47 3.5-3.4 3.5-3.4h-2.43l-.04-1.14h3.03s.37-1.22 2.14-1.81c-2.06-3.47-3.39-4.28-3.99-6.12-.74-2.29.37-4.73 3.25-3.03 2.51 1.4 6.2 4.42 6.2 4.42 2.06-2.8 4.75-4.77 6.16-4.8h.75v.88c-1.14 0-4.41 4.4-4.48 5.33-.08.96.15 5.02.15 5.02h10.33v1.1l-1.47.08c-1.26 1.99-4.6 5.68-6.35 7.01.98 2.14 2.29 4.36 4.58 4.58 2.29.23 5.91.88 5.91.88Z"/><path d="m147.73 47.57.16.11c-5.14 7.36-11.58 9.83-14.74 9.55l-.19-.07 1.27-3.54c-2.42-3.16-7.29-8.93-16.46-2.78l-.13-.2-2.65-3.17c-3.3-3.96-3.75-16.42-2.14-22.63.18.1 2.43-2.05 3.28-3.1.96-1.18 3.69-.52 6.05-.67s7.46-1.99 8.79-.15 3.98 4.94 4.93 9.82c1.2-4.21 4.01-2.51 4.74-1.62 1.17 3.21 1.14 6.33.56 7.98.06.16.1.31.16.49v.02c.75 2.76.95 8.35 6.37 9.97Z" style="fill:#fcecca;stroke-width:0"/><path class="cls-5" d="M122.12 131.88c-2.45.02-5.39-.06-8.62-.3-3.47-.27-5.43-1.22-6.13-2.59-.37-.69-.42-1.48-.16-2.35 2.09-4.22 2.81-9.64 2.81-9.64 2.77.06 9.55.05 14.47.03-1.34 2.61-6.63 14.13-2.36 14.85Z"/><path class="cls-5" d="M122.12 131.89c4.45-.02 7.28-.31 7.28-.31l-2.05 3.91c-.31.59-.95.94-1.61.88l-17.62-1.43a1.55 1.55 0 0 1-1.42-1.65c.1-1.35.28-3.27.61-4.28l.06-.03c.7 1.37 2.66 2.32 6.13 2.59 3.23.24 6.17.32 8.62.31Z"/><path class="cls-10" d="M98.7 63.14s5.7 15.03 7.91 15.03c3.2-.03 5.6-.1 5.6-.1l-.04.44-.84 8.26c-3.43 5.39-13.63 19.12-26.16 32.29-1.29 1.35-2.6 2.71-3.94 4.04-10.76 10.76-22.84 20.5-33.68 24.12-1.99-5.98-2.88-15.28-2.44-17.72-.8-.8-1.73-1.75-2.65-2.87.51-6.13 14.98-20.6 20.3-22.66-.29-2.66-2.58-5.46-2.58-5.46 1.55-4.65 5.32-7.97 7.53-9.97 2.22-1.99 17.68-13.86 21.93-17.62 1.98-1.75 5.22-4.87 9.06-7.77Z"/><path class="cls-4" d="M111.33 86.77c.08.88.08 1.86 0 2.9-.55 7.45-4.84 18.2-7.75 25.01-3.32 7.75-18.4 4.39-18.4 4.39 12.53-13.17 22.72-26.9 26.16-32.29ZM79.97 127.76c-.44 1.33-.95 2.6-1.52 3.82-2.05 4.41-4.89 8.06-8.53 11-7.98 2.88-16.61 4.42-22.37 4.65 10.84-3.62 22.92-13.36 33.68-24.12-.35 1.62-.76 3.17-1.27 4.65Z"/><path d="M78.45 131.58c.56-1.21 1.08-2.49 1.52-3.82l16.52 17.91s-2.06.14-4.87.27-13.17-14.36-13.17-14.36Z" style="stroke-width:0;fill:#606060"/><path class="cls-7" d="m78.45 131.58 13.17 14.35c-5.06.23-12.55.37-14.83-.48-3.54-1.34-6.86-2.88-6.86-2.88 3.63-2.94 6.48-6.59 8.53-11ZM53.24 97.03c4.15.11 6.94 1.47 6.94 1.47s2.29 2.8 2.58 5.46c-5.32 2.06-19.78 16.53-20.3 22.66-4.27-5.1-8.54-13.5 0-24.59 4.13-4.72 7.82-5.1 10.77-5.01Z"/><path class="cls-13" d="M112.84 24.83s0-.06.04-.15c.22-2.65 2.73-8.05 5.83-8.12.88-1.47 3.5-3.4 3.5-3.4h-2.43l-.04-1.14h3.03s.37-1.22 2.14-1.81c-2.06-3.47-3.39-4.28-3.99-6.12-.74-2.29.37-4.73 3.25-3.03 2.51 1.4 6.2 4.42 6.2 4.42 2.06-2.8 4.75-4.77 6.16-4.8h.75c2.11.03 5.03.44 5.49 3.92-.15 1.7-1.71 2.53-2.52.44-.74-2.06-1.85-3.17-2.88-3.47-.03 0-.07-.02-.1-.02-1.14 0-4.4 4.4-4.47 5.33-.08.96.15 5.02.15 5.02h10.33V13l-1.47.08c-1.26 1.99-4.6 5.68-6.35 7.01.98 2.14 2.29 4.36 4.58 4.58 2.29.23 5.91.88 5.91.88v1.11s-4.51 1.11-5.32 2.44c-.74-.88-3.55-2.58-4.74 1.62-.95-4.87-3.6-7.97-4.93-9.82s-6.43 0-8.79.15-5.09-.51-6.05.67c-.85 1.05-3.1 3.2-3.28 3.1"/><path class="cls-13" d="M135.06 12.99h4.28s-1.41 3.11-2.58 3.5c-1.21-1.18-2.32-3.5-1.7-3.5ZM112.89 24.69c-.02.05-.03.1-.03.15h0c-1.6 6.21-1.16 18.67 2.14 22.63l2.65 3.17M141.2 37.11c-.15.43-.34.76-.56.96-1.04.97-3.5.79-3.96 0M140.64 29.12c1.17 3.21 1.14 6.33.56 7.98M141.36 37.61c.75 2.75.95 8.34 6.37 9.96M141.2 37.1h0c.06.16.1.31.16.49M124.18 81.48l6.9-19.12 1.88-5.2 1.27-3.54c-2.42-3.16-7.29-8.93-16.46-2.78-1.53 1.02-3.17 2.37-4.94 4.11.16.51.33 1.03.49 1.55 3.19 10.17 6.12 21.93 6.12 21.93"/><path class="cls-13" d="M225.49 134.13a29.51 29.51 0 0 1-9.41 2.69c-7.32.86-13.59-2.67-15.97-2.87h-.2c-2.22 0-7.75.22-7.75.22s4.65 3.11 5.32 4.87-1.99 5.98-7.75 7.09c-5.75 1.11-20.59 2.66-23.91 2.88-1.57.1-3.73.3-5.9.59-2.43.31-4.87.71-6.51 1.18-1.14.33-2.65.71-4.1 1.07-2.51.62-4.85 1.15-4.85 1.15s-12.31 1.1-13.86 0c-1.54-1.11-2.21-3.11-2.21-3.11-2.9.77-3.78 2.97-7.34 3.48-.52.08-1.09.12-1.74.11-4.65-.04-14.39-.49-16.83-2.04s-5.98-5.76-5.98-5.76-2.06.14-4.87.27c-5.06.22-12.55.36-14.83-.49-3.54-1.34-6.86-2.88-6.86-2.88-7.98 2.88-16.61 4.42-22.37 4.65-1.99-5.98-2.88-15.28-2.44-17.72-.8-.8-1.73-1.75-2.65-2.87-4.27-5.1-8.54-13.5 0-24.59 4.13-4.72 7.82-5.1 10.77-5.01 4.15.11 6.94 1.47 6.94 1.47 1.55-4.65 5.32-7.97 7.53-9.97 2.22-1.99 17.68-13.86 21.93-17.62 1.98-1.75 5.22-4.87 9.06-7.77 4.43-3.34 9.65-6.37 14.63-6.64M155.68 45.95c.84.14 1.74.31 2.68.52.61.14 1.22.28 1.86.44.62.16 1.24.32 1.86.5.62.18 1.24.37 1.85.57.66.22 1.31.44 1.95.69.57.22 1.13.45 1.67.69.36.16.7.31 1.05.48.67.32 1.31.66 1.91 1.01.71.42 1.37.86 1.96 1.32.33.26.65.52.94.8.19.18.39.38.6.58.38.39.78.82 1.19 1.27a59.612 59.612 0 0 1 2.45 2.97c.29.37.59.76.88 1.16a110.857 110.857 0 0 1 2.38 3.33c5.25 7.72 10.53 17.59 12.14 23.81 2.44 9.38 4.5 12.99 4.5 12.99 7.68-1.7 19.19-2.36 24.51-1.26 5.32 1.11 9.97 7.09 10.41 12.85.44 5.76-.67 19.49-2.21 20.59-.78.56-2.39 1.72-4.75 2.85M155.11 45.85c.18.03.37.06.57.1M133.15 57.23c3.16.28 9.59-2.19 14.74-9.55.45-.63.89-1.31 1.32-2.03.03-.14.36-.23.92-.25 1.01-.05 2.78.1 4.94.45"/><path class="cls-13" d="M111.33 86.77c-3.43 5.39-13.63 19.12-26.16 32.29-1.29 1.35-2.6 2.71-3.94 4.04-10.76 10.76-22.84 20.5-33.68 24.12"/><path class="cls-14" d="M106.61 78.18c-5.82.04-14.25-.08-15.53-1.15"/><path class="cls-13" d="M85.18 119.06s15.08 3.36 18.4-4.39c2.91-6.81 7.21-17.55 7.75-25.01.08-1.04.08-2.01 0-2.9l.84-8.26M79.97 127.76c-.44 1.33-.95 2.6-1.52 3.82-2.05 4.41-4.89 8.06-8.53 11M81.24 123.1c-.35 1.62-.76 3.17-1.27 4.65M78.45 131.58l13.17 14.35"/><path class="cls-13" d="m96.49 145.67-16.52-17.91v-.01M112.22 78.52c2.49.16 5.28-.13 7.2.16.82.13 1.47.36 1.88.77.73.73 1.88 1.41 2.88 2.02.92.57 1.71 1.1 1.93 1.58.45.95-.53 1.12-1.96.86-1.13-.21-2.53-.69-3.74-1.25M124.13 84.03c.43.23 1.34.51 1.43 1.24.05.37-.27 1.24-.61 1.5-.42.32-2.06.33-3.36-.21"/><path class="cls-13" d="M120.17 88.86c.84.34 1.76.62 2.24.51.69-.16.73-.93.88-1.27.23-.5-.76-1.05-1.7-1.54-.07-.03-.13-.07-.2-.1-.13-.07-.25-.14-.37-.2M120.17 88.86a.25.25 0 0 0-.26-.1l.26.1ZM111.33 89.67c.77.31 7.09 1.36 8.3 1.08 1.01-.23.92-1.52.54-1.89"/><path class="cls-14" d="M122.41 89.37c-.23 2.71-1.19 15.92 0 19.46"/><path class="cls-13" d="M131.55 62.54c7.83-1.24 15.9-5.45 19.5-10.24 4.53-6.04 4.63-6.33 4.63-6.34h0"/><path class="cls-14" d="M157.55 51.44c-2.81 8.97-8.72 33.07-8.72 37.93s-.59 17.1 0 21.24M152.75 106.92c.1 5 .3 8.71.3 8.71M167.14 53.03c-5.76 12.55-13.25 26.72-14.09 36.91-.42 5.2-.41 11.77-.3 16.97M98.7 63.14s5.7 15.03 7.91 15.03h0M86.53 79.75c-.49.66-2.42 5.59-5.3 11.77-4.15 8.92-10.23 20.43-16.7 25.47"/><path class="cls-13" d="M42.47 126.63c.51-6.13 14.98-20.6 20.3-22.66-.29-2.66-2.58-5.46-2.58-5.46"/><path class="cls-14" d="M67.71 88.54s9.25 2.94 13.52 2.98h0M157.85 99.9c.59-10.52 7.67-23.87 19.78-29.24M166.28 72.76l6.64-8.14M152.75 106.92h0c1.66-2.32 3.29-4.95 5.1-7.02 2.54-2.88 5.45-4.67 9.29-2.99.78.34 1.6.82 2.46 1.47 8.17 6.11 26.77 22.76 46.92 21.41"/><path class="cls-14" d="M167.14 96.91c3.76-5.49 8.41-14.13 18.6-14.8M181.09 101.38c6.42 1.33 21.48 4.21 38.08 0M102.48 151.43c4.87-2.65 11.07-4.65 13.62-8.86"/><path class="cls-13" d="M121.06 153.36s0 0 0 0c-1.95-3.05 4.35-11.22 5.18-10.78 12.34 4.21 16.54 10.33 23.08 9.25M188.04 134.15c1.32-.04 2.69-.04 4.12 0M159.91 149.58c3.43-5.71 9.63-14.76 28.02-15.43"/><path class="cls-13" d="M225.5 134.13h0c-3.35-3.06-14.89-1.39-25.17-2.39-.49-.04-.96-.1-1.44-.16-11.22.74-16.84-5.46-19.78-8.47-2.96-3.01-4.43-4.37-6.18-3.24-1.74 1.14-7.7 5.37-15.07 7.89 0 0 21.3 6.4 30.08 6.4h.31"/><path class="cls-14" d="M119.9 109.72c4.43 2.81 16 7.53 29.41 5.91M139.14 134.82s9.39-2.93 14.71-8.19"/><path class="cls-13" d="M107.3 129.02c-.33 1.01-.51 2.92-.61 4.28-.06.85.58 1.58 1.42 1.65l17.62 1.43c.67.05 1.3-.29 1.61-.88l2.05-3.91s-2.83.29-7.28.31c-2.45 0-5.39-.07-8.62-.31-3.47-.27-5.43-1.22-6.13-2.59-.37-.69-.42-1.48-.16-2.35 2.09-4.22 2.81-9.64 2.81-9.64 2.77.06 9.55.05 14.47.03 3.21-.02 5.64-.03 5.64-.03-.18.31-.75 1.25-1.42 2.47-1.67 2.97-4.02 7.65-3.24 9.38 1.1 2.43 2.35 2.58 3.94 2.73 2.32-1.68 6.51-12.26 6.51-12.26l-7.21.16"/><path class="cls-13" d="M124.47 117.02h0c-1.34 2.62-6.63 14.14-2.36 14.86"/><path class="cls-14" d="M135.9 119.31c7.55.45 12.64.29 15.96-2.29M154.74 121.32c-3.1.88-4.67 2.65-10.86 4.42"/><path class="cls-13" d="M119.9 30.74c-.81 3.1-3.24 8.86-3.8 8.86 2.99-.44 4.39-.87 4.39-.87M123.54 33.25h4.62M114.4 33.92h2.93M122.77 44.63s-1.38-.15-2.26.12M125.06 24.69c.15-.74 3.94-.51 4.33 0M114.95 26.16s2.36-.81 4.06 0M141.35 37.6h0l8.61 7.79h.15c.79.09 4.48.44 4.94.45h.04s-.11-.03-.37-.06c-3.21-2.43-13.15-9.96-13.15-9.96l-.23 1.75v.02M136.14 41.37c0 2.07-2.08 5.24-4.59 7.3M160.24 46.84l3.07-6.05.62-1.19"/><path class="cls-13" d="m162.08 47.42 3.06-5.75-1.83-.88-1.89-.9-2.99 6.28M170.69 40.32l-1.24 2.16-3.57 6.2"/><path class="cls-13" d="m163.93 47.99 3.65-6.62 1.87 1.11 1.73 1.03-3.62 5.85M172.57 52.05l5.48-5.85 1.59-1.7"/><path class="cls-13" d="m170.69 50.56 4.29-4.7 1.24-1.36 1.83 1.7 2.1 1.95-6.14 5.39M185.11 49.05l-1.14.97-7.16 6.09"/><path class="cls-13" d="m175.53 54.51 6.93-6.53 1.51 2.04 1.4 1.88-7.45 5.68M180.12 60.45l6.51-4.14 1.16-.74"/><path class="cls-13" d="m178.54 58.95 6.87-4.59 1.22 1.95 1.39 2.22-7.06 3.73M168.6 49.84l4.32-5.76 2.06 1.78"/><path class="cls-14" d="m112.18 78.51.04-.44s-2.4.08-5.6.1"/></g></svg>