<?xml version="1.0" encoding="UTF-8"?>
<svg id="_レイヤー_1" data-name="レイヤー 1" xmlns="http://www.w3.org/2000/svg" viewBox="0 0 260.66 185.21">
  <defs>
    <style>
      .cls-1 {
        fill: #eb6a6f;
      }

      .cls-1, .cls-2, .cls-3, .cls-4, .cls-5, .cls-6 {
        stroke-width: 0px;
      }

      .cls-2 {
        fill: #977993;
      }

      .cls-3 {
        fill: #e7dcaf;
      }

      .cls-4 {
        fill: #9f423b;
      }

      .cls-5 {
        fill: #f5d6b7;
      }

      .cls-7 {
        fill: none;
        stroke: #000;
        stroke-linecap: round;
        stroke-linejoin: round;
      }

      .cls-6 {
        fill: #fdffea;
      }
    </style>
  </defs>
  <g>
    <path class="cls-1" d="m119.27,32.92c-5.31-22.1-15.6-29.02-15.6-29.02-.97,1.82-1.74,4.71-2.47,9.14h-.01c-.47-.2-.95-.39-1.42-.55h0s.54-6.27,3.05-12c6.69,4.54,10.98,10.46,13.5,17.14h.01c1.8,4.77,2.71,9.94,2.93,15.28Z"/>
    <path class="cls-4" d="m119.27,32.92c.2,4.25-.04,8.6-.58,12.96l-2.59-.32c.59-4.44.54-9.18-.76-13.74-2.58-9.09-11.45-17.54-13.79-18.61-.13-.05-.24-.12-.37-.16h.01c.74-4.44,1.5-7.33,2.47-9.15,0,0,10.29,6.92,15.6,29.02Z"/>
    <path class="cls-1" d="m143.4,70.82v6.1c0,.55-.41,1-.95,1.06-.04.01-.09.01-.14.01h-4.49c-.6,0-1.08-.48-1.08-1.07v-6.1c0-.6.48-1.08,1.08-1.08h4.49c.6,0,1.08.48,1.08,1.08Z"/>
    <path class="cls-1" d="m101.74,97.17l-3.61,4.01-1.22,1.36-1.25-14.15c1.97,2.87,6.08,8.78,6.08,8.78Z"/>
    <path class="cls-3" d="m142.32,77.99s.09,0,.14-.01h0c-.65,3.78-3.86,15.5-4.86,19.24-1.74.06-3.3.2-4.74.39,1.83-3.84,4.39-16.63,5.52-19.61h3.94Z"/>
    <path class="cls-3" d="m145.67,40.76l-3.35,28.97h-3.32v-30.8c2.16.49,4.42,1.1,6.68,1.83Z"/>
    <path class="cls-3" d="m113.52,136.76c.91-.6,1.81-1.24,2.67-1.9h0s8.56.39,8.56.39c-1.09,1.84-2.2,3.71-3.67,5.25-.7.73-1.67,1.43-2.86,2.09,0,0-7.2-.89-14.41-.96h0c3.41-1.1,6.67-2.82,9.71-4.87Z"/>
    <path class="cls-3" d="m116.19,143.61c-5.65,2.58-14.36,4.65-22.44,5.89-2.24.34-4.44.62-6.5.83-3.81.39-7.57-.55-10.96-2.04-2.18-.95-4.21-2.12-5.98-3.32-4.47-2.99-7.4-6.1-7.4-6.1,1.52-1.09,3.35-2.67,5.36-4.57,6.37,2.96,13.71,5.43,20.37,6.66,3.42.63,6.66.94,9.5.82l.57-.03c1.64-.11,3.38-.14,5.11-.12,7.2.06,14.41.96,14.41.96-.62.36-1.29.69-2.03,1.03Z"/>
    <path class="cls-1" d="m68.27,107.19c5.43-.52,8.82,2.3,11.86,3.75,0,0-8.28,7.88-9.82,11.88-.14-5.2-.62-11.39-2.04-15.64Z"/>
    <path class="cls-1" d="m82.51,119.34c-2.02,2.27-4.12,4.59-6.22,6.81-2.07,2.22-4.14,4.36-6.08,6.28h-.01s.24-4.27.11-9.6c1.55-4.01,9.82-11.88,9.82-11.88,1.78.86,3.44,1.26,5.32.27,3.98-2.09,6.01-2.8,6.71-3.02-2.58,3.05-5.99,7.03-9.65,11.14Z"/>
    <path class="cls-5" d="m95.86,62.82c-1.15.13-2.24.17-3.28.15-2.28-.03-4.31-.4-6.14-1.01-2.47-.82-4.61-2.09-6.53-3.64-4.4-3.51-7.34-16.47-7.34-23.45s1.43-15.22,5.37-18.44c3.69-3.02,12.8-7.11,21.83-3.93.47.16.95.35,1.42.56.13.04.24.11.37.16,2.33,1.07,11.21,9.53,13.79,18.61,1.29,4.55,1.35,9.3.76,13.74-1.25,9.33-5.33,17.31-6.67,19.38-1.97,3.04-7.34,10.74-7.34,10.74l-6.24-12.86Z"/>
    <path class="cls-6" d="m116.11,45.56l2.59.32c-2.77,22.04-13.46,44-16.95,51.29,0,0-4.11-5.91-6.08-8.78-.37-.54-.74-1.58-1.07-2.94l7.51-9.76s5.37-7.7,7.34-10.74c1.34-2.07,5.42-10.05,6.67-19.38Z"/>
    <path class="cls-6" d="m95.86,62.82l6.24,12.86-7.51,9.76c-1.5-5.88-2.59-17.84-2.01-22.24v-.23c1.04.02,2.13-.02,3.28-.15Z"/>
    <path class="cls-4" d="m220.44,79.62c2.15.36,3.75,3.94,6.97,9.14-4.29,2.2-5.96,2.76-7.16,2.83-1.04.06-1.74-.23-3.48-.11l3.67-11.86Z"/>
    <path class="cls-4" d="m234.03,89.14c2.06,1.37,2.3,4.36,5.55,8.03-1.44,1.83-5.11,2.01-7.38,1.92-1.11-.03-1.88-.14-1.88-.14,0,0,.67-3.45,3.71-9.82Z"/>
    <path class="cls-4" d="m252.11,107.19l.62.05c-4.16,2.06-8.1,1.38-8.1,1.38l2.65-10.56c4.11.18,3.75,2.32,4.83,9.13Z"/>
    <path class="cls-1" d="m191.06,97.22c-.12-1.15-.43-2.24-1.06-3.28-.67-1.11-1.42-2.26-2.13-3.35-1.96-2.93-3.78-5.42-3.78-5.42l.74-6.7,6.78,1.68c4.34,14.54,8.4,17.42,6.85,34.58-2.21-3.12-5.18-6.52-7.94-11.14.36-2.28.75-4.41.55-6.37Z"/>
    <path class="cls-1" d="m202.17,79.08c3.59,12.14,10.21,21.75,4.95,38.22-2.48,1.13-4.48,2.48-5.53,3.72-.48-2.17-1.64-4.16-3.13-6.29,1.56-17.16-2.5-20.03-6.85-34.58,0,0,8.95-.54,10.56-1.07Z"/>
    <path class="cls-1" d="m220.25,91.6s1.57,20.74-1.16,23.14v.02c-4.14-.15-8.53.99-11.97,2.55,5.26-16.47-1.37-26.08-4.95-38.22,1.44-.54,4.84,0,6.63,3.23,0,0,6.27-.89,11.64-2.69l-3.67,11.86c1.75-.13,2.44.17,3.48.11h0Z"/>
    <path class="cls-1" d="m234.03,89.13h0c-3.04,6.38-3.71,9.83-3.71,9.83,0,0,.77.11,1.88.14v.02s-1.6,16.34-3.02,17.92c-2.26-.74-4.43-1.28-6.38-1.79-1.2-.3-2.44-.46-3.71-.49v-.02c2.72-2.4,1.16-23.14,1.16-23.14h0c1.2-.08,2.87-.64,7.16-2.84,0,0,2.87-.37,4.48-.37.91.12,1.6.37,2.15.74Z"/>
    <path class="cls-1" d="m232.2,99.1c2.27.08,5.94-.09,7.38-1.92,0,0,3.58.72,7.7.89l-2.65,10.56-3.66,14.61c-3.81-3.1-7.93-4.93-11.79-6.19,1.42-1.58,3.02-17.92,3.02-17.92v-.02Z"/>
    <path class="cls-1" d="m258.74,107.73s1.66.67,1.39,4.56c-.27,3.89-6.71,15.7-11.15,20.81-2.29-4.29-5.05-7.47-8-9.86h0s3.66-14.62,3.66-14.62c0,0,3.93.68,8.1-1.38l6.01.48Z"/>
    <path class="cls-2" d="m248.98,133.11s.81,9.13.81,10.34-4.3,2.94-4.3,2.94c0,0-6.79-9.66-14.31-13.97-6.09-3.48-20.18-5.66-28.83-4.3,0,0,.45-1.74-.76-7.1,1.05-1.24,3.05-2.6,5.53-3.72,3.44-1.56,7.82-2.69,11.97-2.55,1.27.03,2.51.19,3.71.49,1.96.5,4.12,1.05,6.38,1.79,3.86,1.26,7.98,3.09,11.79,6.19h0c2.96,2.41,5.71,5.58,8,9.88Z"/>
    <path class="cls-2" d="m34.61,113.61c-.47.02-13.83,13.02-19.88,18.81-.8.77-1.46,1.4-1.96,1.87-4.3,4.04-6.09,3.14-6.98-1.87-.89-5.01,5.63-19.69,24.75-21.48v-.04c1.48.22,3.01.5,4.59.83l-.52,1.87Z"/>
    <path class="cls-2" d="m48.03,173.37c1.96-.29,3.54-.52,4.84-.73h0s4.89,7.7,9.51,8.71c-4.1-.47-7.73-.98-10.62-1.52-17.05-3.22-23.49-8.86-32.49-15.44,1.08-.4,2.12-.82,3.12-1.25,4.8.44,13.9,3.46,17.27-2.28.65,7.74.76,8.22,2.03,9.71.97,1.13,3.74,3.8,6.3,2.5l.04.3Z"/>
    <path class="cls-2" d="m88.15,179.39c3.68.66,12,3.77,18.16,1.67h.02l-.02.24c2.26.62,5.09,1.34,8.3,1.5l-.02,1.83c-13.99-.28-35.75-1.45-51.28-3.19h-.03c-.25-.03-.5-.05-.75-.08-.04,0-.09-.01-.15-.02-4.62-1.01-9.51-8.7-9.51-8.7h0c5.16-.82,5.73-1.28,7.16-4.24,1.98,11.06,4.94,11.33,8.25,8.03h.01c6.89,1.81,14.21,3.66,16.8,3.63.96.14,1.98-.06,3.06-.68Z"/>
    <path class="cls-2" d="m124.52,184.66c-2.41.07-5.84.06-9.94-.02l.02-1.83c3.21.17,6.79-.21,10.59-1.75,2.25,1.27,9.65,1.99,12.09-3.86l.21.08c.11.11.35.12.69.05h.01c3.98.28,23.75,1.38,32.11-3.93,4.31,1.23,8.03,1.83,11.34,1.96l-.06,1.81c-3.05-.08-6.25-.14-8.95-.12-5.91.04-9.31,2.45-16.46,6.58h-.01c-11.81.45-24.9.81-31.65,1.02Z"/>
    <path class="cls-2" d="m181.59,177.17c3.63.12,7.05.28,9.17.45-3.89,1.88-8.39,3.89-11.05,4.48-2.59.58-12.5,1.1-23.53,1.54,7.15-4.13,10.55-6.54,16.46-6.58,2.7-.02,5.9.03,8.95.12Z"/>
    <path class="cls-4" d="m39,153.11c.28,3.18.49,5.71.66,7.74-3.37,5.74-12.47,2.72-17.27,2.28,8.94-3.84,14.82-8.52,16.26-9.73.23-.19.35-.29.35-.29Z"/>
    <path class="cls-4" d="m60.03,168.4h0c-1.43,2.97-2,3.43-7.16,4.24-1.29.21-2.88.43-4.84.73l-.04-.3c1.69-.85,3.29-3.47,4.18-9.49,2.21-.64,4.55-1.3,6.91-2.08.28,2.67.6,4.95.96,6.91Z"/>
    <path class="cls-4" d="m79.02,169.48c.15,5.24,2.62,10.11,6.07,10.59-2.59.03-9.91-1.82-16.8-3.63,4.83-.79,8.58-2.16,10.73-6.96Z"/>
    <path class="cls-4" d="m106.31,181.06c-6.16,2.09-14.48-1.01-18.16-1.67,1.83-1.05,3.79-3.32,5.74-7.23,1.29-2.86,3.2-4.15,4.83-4.13,1.41.02,2.61,1.03,3.03,2.87.67,2.94,1.15,10.04,4.56,10.16Z"/>
    <path class="cls-4" d="m106.33,181.06c1.16.03,2.66-.75,4.64-2.78,3-3.07,5.7-6.49,7.9-9.75,1.86.59,4.01,11.22,6.33,12.53-3.8,1.54-7.38,1.91-10.59,1.75s-6.04-.88-8.3-1.5l.02-.24Z"/>
    <path class="cls-4" d="m168.94,170.9l1.38,2.5c-8.36,5.31-28.13,4.22-32.11,3.93,2.69-.52,11.94-5.69,18.8-11.16l11.93,4.72Z"/>
    <path class="cls-4" d="m164.37,158.4c2.68,1.24,5.33,7.66,4.56,12.5l-11.93-4.72c3.39-2.69,6.19-5.46,7.36-7.78Z"/>
    <path class="cls-4" d="m198.1,173.91s-3.33,1.79-7.33,3.71h-.01c-2.12-.17-5.54-.34-9.17-.45l.06-1.81c13.04.53,19.48-6.3,28.75-11.01,11.64-5.91,27.75-13.13,35.08-10.32-.25,1.4-.66,2.87-1.34,4.31-17.32,13.28-28.06,14.63-46.05,15.56Z"/>
    <path class="cls-1" d="m201.59,121.02c-3.09,2.41-12.4-3.23-12.4-3.23.49-2.93.81-6.12.81-8.99,0-1.81.25-3.54.52-5.21,2.76,4.62,5.73,8.01,7.94,11.14,1.49,2.12,2.65,4.12,3.13,6.29Z"/>
    <path class="cls-3" d="m190,93.94c.63,1.04.95,2.13,1.06,3.28-2.32,2.69-22.22,7.67-29.92,8.84l-3.43-1.69-3.58-5.42c3.53.3,7.04.39,9.91,0,6.63-.89,20.96-5.98,23.81-8.36h.01c.72,1.08,1.46,2.23,2.13,3.34Z"/>
    <path class="cls-3" d="m191.06,97.22c.2,1.97-.19,4.09-.55,6.37-.26,1.66-.52,3.4-.52,5.21,0,2.87-.32,6.06-.81,8.99-.48,2.92-1.16,5.59-1.87,7.48l-7.52-15.93-3.94,2.86-4.83-1.25-9.89-4.88c7.7-1.18,27.6-6.15,29.92-8.84Z"/>
    <path class="cls-3" d="m179.8,109.34l7.52,15.93c-2.51.54-9.32-2.32-13.07-4.48l1.61-8.59,3.94-2.86Z"/>
    <path class="cls-3" d="m166.39,117.56c1.77-1.78,3.53-4.02,4.64-6.62l4.83,1.25-1.61,8.59c-.72,2.33-8.77,8.95-8.77,8.95l-4.83-7.65c.14-.08,2.93-1.74,5.74-4.53Z"/>
    <path class="cls-3" d="m161.14,106.07l9.89,4.88c-1.1,2.6-2.87,4.84-4.64,6.62l-8.68-13.19,3.43,1.69Z"/>
    <path class="cls-3" d="m157.71,104.37l8.68,13.19c-2.81,2.8-5.61,4.45-5.74,4.53h-.01l-5.23-8.29-6.77-15.48c1.79.25,3.65.47,5.5.63l3.58,5.42Z"/>
    <path class="cls-3" d="m144.11,97.63c1.4.23,2.93.47,4.53.69l6.77,15.48s-6.34,4.39-15.34,10.51l2.86-18.94.81-5.37.25-1.67.12-.69Z"/>
    <path class="cls-3" d="m142.93,105.37l-2.86,18.94c-1.45,1-2.98,2.03-4.55,3.1-6.05,0-8.39,3.85-10.76,7.82l-8.56-.38h0c11.21-8.56,18.88-20.82,18.88-20.82,3.13-3.37,5.2-6.08,5.4-6.35h-.01c1.08-.84,1.94-1.62,2.47-2.31Z"/>
    <path class="cls-3" d="m76.29,126.16s12.06,4.22,17.59,3.44c-2.59,5.94-4.83,10.94-5.25,11.36-6.66-1.23-14-3.7-20.37-6.66.63-.59,1.28-1.21,1.95-1.86,1.94-1.91,4.01-4.06,6.08-6.28Z"/>
    <path class="cls-3" d="m103.82,141.63c-1.74-.02-3.47.01-5.11.12l-.57.03s2.66-5.34,5.68-11.84c2,.11,5.78-.54,9.98-1.85l-.27,8.68c-3.04,2.05-6.3,3.77-9.71,4.86h0Z"/>
    <path class="cls-3" d="m127.68,121.09c2.78-2.28,5.32-4.81,7.39-7.05,0,0-7.67,12.26-18.88,20.81-.86.66-1.76,1.3-2.67,1.9l.27-8.68c4.76-1.48,10.06-3.85,13.88-6.99Z"/>
    <path class="cls-3" d="m107.46,121.83c10.18-1.91,26.25-9,32.99-14.16h.01c-.2.28-2.26,3-5.4,6.36-2.07,2.24-4.62,4.76-7.39,7.05-3.82,3.14-9.12,5.51-13.88,6.99-4.2,1.31-7.98,1.96-9.98,1.85,1.21-2.6,2.47-5.38,3.65-8.1Z"/>
    <path class="cls-3" d="m143.74,100l-.81,5.37c-.54.69-1.39,1.47-2.47,2.3-6.74,5.15-22.81,12.24-32.99,14.16,2.38-5.49,4.39-10.64,4.77-13.21l-.02-.27c10.17-.67,22.33-2.77,31.52-8.35Z"/>
    <path class="cls-3" d="m102.83,108.62h0c2.78.02,5.97-.05,9.39-.27l.02.27c-.39,2.57-2.4,7.72-4.77,13.21-1.18,2.71-2.44,5.5-3.65,8.1-3.02,6.5-5.68,11.84-5.68,11.84-2.84.12-6.08-.19-9.5-.82.42-.42,2.66-5.42,5.25-11.36.96-2.2,1.96-4.52,2.93-6.78,3.14-7.37,6.01-14.19,6.01-14.19Z"/>
    <path class="cls-3" d="m92.16,108.2c2.9-3.41,4.75-5.67,4.75-5.67l1.22-1.36c5.26,1.24,12.02,1.94,17.83.96,1.36-.22,2.65-.54,3.87-.96,3.65-1.26,6.73-2.44,10.64-3.19.76-.15,1.55-.28,2.38-.39,1.44-.19,3.01-.33,4.74-.39,1.21-.05,2.5-.06,3.89-.04.8.15,1.68.3,2.62.46l-.12.69-.25,1.67c-9.19,5.58-21.35,7.68-31.52,8.35-3.42.22-6.62.29-9.39.26-6.22-.03-10.37-.48-10.37-.48,0,0-.09.02-.29.07Z"/>
    <path class="cls-3" d="m102.83,108.61h0s-2.86,6.83-6.01,14.2h-.01c-5.48.36-14.05-3.35-14.3-3.47,3.66-4.11,7.08-8.09,9.65-11.14.2-.05.29-.07.29-.07,0,0,4.15.45,10.37.48Z"/>
    <path class="cls-3" d="m82.51,119.34c.25.12,8.82,3.83,14.3,3.47h.01c-.98,2.26-1.98,4.59-2.93,6.78-5.53.78-17.59-3.44-17.59-3.44,2.09-2.23,4.2-4.54,6.22-6.81Z"/>
    <path class="cls-1" d="m76.29,148.29h0c-2.5,7.31-9.84,10.78-17.22,13.2-2.36.78-4.7,1.44-6.91,2.08-.88,6.02-2.48,8.63-4.18,9.49-2.56,1.29-5.33-1.38-6.3-2.5-1.27-1.48-1.38-1.97-2.03-9.71-.17-2.03-.38-4.56-.66-7.74,0,0-.12.11-.35.29l-.32-1.88c18.76-3.13,31.97-6.54,31.97-6.54h0c1.78,1.19,3.81,2.37,5.98,3.31Z"/>
    <path class="cls-1" d="m19.27,164.38c-3.49.27-15.3-2.42-17.05-4.84-.49-.67-.85-1.95-1.11-3.52,13.28-.91,26.22-2.65,37.23-4.5l.32,1.88c-1.44,1.21-7.32,5.89-16.26,9.73-1,.43-2.04.85-3.12,1.25Z"/>
    <path class="cls-1" d="m68.28,176.45c-3.3,3.29-6.27,3.03-8.25-8.03h0c-.36-1.97-.67-4.25-.96-6.92,7.37-2.42,14.71-5.89,17.22-13.19h0c3.39,1.48,7.15,2.42,10.96,2.03,2.06-.21,4.26-.49,6.5-.83l.14.91s-7.16,10.75-17.59,15.31c-2.66,3.43-5.44,8.14-8,10.72h-.01Z"/>
    <path class="cls-1" d="m88.15,179.39c-1.08.62-2.1.82-3.06.68-3.45-.48-5.92-5.35-6.07-10.59-2.15,4.81-5.9,6.17-10.73,6.96,2.57-2.58,5.34-7.29,8-10.72,10.43-4.56,17.59-15.31,17.59-15.31l-.14-.91c8.09-1.24,16.8-3.31,22.44-5.89-.01,8.61-16.94,23.95-17.48,24.42-1.63-.02-3.53,1.27-4.83,4.13-1.96,3.9-3.91,6.17-5.74,7.23Z"/>
    <path class="cls-1" d="m124.75,135.24h.34s-4.01,10.79-2.93,15.18c.32,1.3,1.3,3.4,2.69,5.92-.35,2.53-2.58,7.19-5.98,12.2-2.2,3.26-4.9,6.68-7.9,9.75-1.98,2.03-3.48,2.81-4.64,2.78h-.02c-3.42-.12-3.89-7.21-4.56-10.16-.42-1.84-1.62-2.85-3.03-2.87.54-.47,17.47-15.81,17.48-24.42.74-.34,1.41-.67,2.03-1.03,1.19-.66,2.16-1.37,2.86-2.09,1.47-1.54,2.58-3.41,3.67-5.25Z"/>
    <path class="cls-1" d="m137.5,176.65c-.06.19-.14.38-.21.56-2.44,5.85-9.84,5.13-12.09,3.86-2.32-1.3-4.47-11.94-6.33-12.53,3.41-5.01,5.64-9.66,5.98-12.2,3.24,5.94,8.67,14.27,12.65,20.31Z"/>
    <path class="cls-1" d="m164.37,158.4c-1.17,2.32-3.98,5.09-7.36,7.78-6.87,5.47-16.11,10.64-18.8,11.16h-.01c-.45-.03-.69-.05-.69-.05l-.21-.08c.07-.18.15-.37.21-.56-3.99-6.04-9.41-14.37-12.65-20.31-1.39-2.52-2.38-4.62-2.69-5.92-1.07-4.39,2.93-15.17,2.93-15.17h-.34c2.37-3.99,4.71-7.84,10.76-7.84,6.33.89,10.93,2.47,16.51,6.88,1.9,1.5,6.49,3.75,12.35,5.97h0c7.01-1.4,26.34-6.7,32.97-10.58,1.25-.74,2.98-1.25,5.01-1.57,8.64-1.36,22.74.82,28.83,4.3,7.52,4.3,14.31,13.97,14.31,13.97,0,0,.76,3.48,0,7.65-7.33-2.81-23.44,4.41-35.08,10.32-9.28,4.71-15.71,11.54-28.75,11.01-3.3-.13-7.03-.73-11.34-1.96l-1.38-2.5c.77-4.85-1.88-11.26-4.56-12.5Z"/>
    <path class="cls-1" d="m201.59,121.02c1.21,5.36.76,7.1.76,7.1-2.03.32-3.75.83-5.01,1.57-6.63,3.88-25.96,9.18-32.97,10.57h0c-5.86-2.21-10.44-4.46-12.35-5.96-5.58-4.41-10.18-5.98-16.51-6.88,1.58-1.07,3.1-2.1,4.55-3.1,9-6.12,15.34-10.51,15.34-10.51l5.23,8.29h.01l4.83,7.65s8.06-6.62,8.77-8.95c3.75,2.16,10.56,5.02,13.07,4.48.72-1.88,1.39-4.55,1.87-7.48,0,0,9.31,5.64,12.4,3.23Z"/>
    <path class="cls-1" d="m187.87,90.59h-.01c-2.85,2.39-17.18,7.48-23.81,8.37-2.87.39-6.37.3-9.91,0-1.85-.16-3.71-.38-5.5-.63-1.6-.22-3.13-.46-4.53-.69-.94-.16-1.82-.32-2.62-.46-1.39-.02-2.68-.01-3.89.04,1-3.73,4.21-15.46,4.86-19.22h0c.54-.07.95-.53.95-1.07v-6.1c0-.6-.48-1.08-1.08-1.08l3.35-28.97c6.42,2.06,12.74,5.07,16.05,9.23,5.76,7.26,12.35,20.85,13.6,26.59,1.25,5.73,8.77,8.59,8.77,8.59,0,0,1.82,2.48,3.78,5.42Z"/>
    <path class="cls-1" d="m130.33,97.17l-5.24-21.49-.29-.07c3.59-14.19,6.86-30.2,7.66-37.97,1.92.3,4.16.73,6.54,1.28v30.8h-1.17c-.6,0-1.08.48-1.08,1.08v6.1c0,.59.48,1.07,1.08,1.07h.55c-1.14,2.99-3.69,15.78-5.52,19.61-.83.11-1.62.24-2.38.39l-.15-.82Z"/>
    <path class="cls-1" d="m130.33,97.17l.15.82c-3.91.75-6.99,1.92-10.64,3.19-1.22.42-2.51.74-3.87.96,2.12-2.39,5.61-13.71,8.83-26.52l.29.07,5.24,21.49Z"/>
    <path class="cls-1" d="m119.27,32.92c-.22-5.34-1.14-10.51-2.93-15.28,5.09,2.29,9.66,10.75,16.11,20-.8,7.76-4.07,23.78-7.66,37.97-3.23,12.81-6.71,24.14-8.83,26.52-5.81.98-12.57.28-17.83-.96l3.61-4.01c3.49-7.29,14.19-29.25,16.95-51.29.54-4.35.78-8.71.58-12.96Z"/>
    <path class="cls-1" d="m39,112.56s9.4-18.52,13.17-24.43c3.75-5.91,23.29-20.31,34.27-26.17,1.83.61,3.86.98,6.14,1.01v.23c-.58,4.41.5,16.36,2.01,22.24.34,1.37.7,2.41,1.07,2.94l1.25,14.15s-1.85,2.26-4.75,5.67c-.7.22-2.73.93-6.71,3.02-1.88.99-3.54.59-5.32-.27-3.04-1.45-6.44-4.27-11.86-3.75,1.42,4.25,1.9,10.44,2.04,15.64.14,5.33-.11,9.59-.11,9.59h.01c-.66.66-1.31,1.28-1.95,1.87-2.01,1.9-3.84,3.48-5.36,4.57,0,0,2.93,3.11,7.4,6.1h0s-13.21,3.42-31.97,6.55c-11.01,1.85-23.95,3.59-37.23,4.5-.67-4.06-.69-10.18-.5-13.66.47-8.47,4.3-24.68,9.54-27.79,7.27-4.32,13.39-4.7,20.4-3.67v.04c-19.12,1.79-25.64,16.47-24.75,21.48.89,5.02,2.68,5.91,6.98,1.87.49-.47,1.16-1.1,1.96-1.87,6.05-5.79,19.4-18.79,19.88-18.81l.52-1.87c1.25.25,2.53.53,3.87.82Z"/>
  </g>
  <g>
    <path class="cls-7" d="m105.15,59.75c-3.25,1.84-6.38,2.77-9.29,3.07-1.15.13-2.24.17-3.28.15-2.28-.03-4.31-.4-6.14-1.01-2.47-.82-4.61-2.09-6.53-3.64-4.4-3.51-7.34-16.47-7.34-23.45s1.43-15.22,5.37-18.44c3.69-3.02,12.8-7.11,21.83-3.93.47.16.95.35,1.42.56.13.04.24.11.37.16,2.33,1.07,11.21,9.53,13.79,18.61,1.29,4.55,1.35,9.3.76,13.74-1.25,9.33-5.33,17.31-6.67,19.38-1.97,3.04-7.34,10.74-7.34,10.74l-6.24-12.86"/>
    <path class="cls-7" d="m116.33,17.64c-2.52-6.68-6.81-12.6-13.5-17.14-2.51,5.73-3.05,11.99-3.05,11.99"/>
    <path class="cls-7" d="m92.58,63.2c-.58,4.41.5,16.36,2.01,22.24.34,1.37.7,2.41,1.07,2.94,1.97,2.87,6.08,8.78,6.08,8.78,3.49-7.29,14.19-29.25,16.95-51.29.54-4.35.78-8.71.58-12.96-.22-5.34-1.14-10.51-2.93-15.28"/>
    <line class="cls-7" x1="102.1" y1="75.68" x2="94.59" y2="85.44"/>
    <path class="cls-7" d="m234.03,89.13c-.55-.37-1.23-.62-2.15-.74-1.61,0-4.48.37-4.48.37-3.22-5.2-4.83-8.78-6.97-9.14-5.37,1.8-11.64,2.69-11.64,2.69-1.79-3.23-5.18-3.77-6.63-3.23-1.61.54-10.56,1.07-10.56,1.07l-6.78-1.68-.74,6.7s-7.52-2.86-8.77-8.59c-1.25-5.73-7.84-19.33-13.6-26.59-3.31-4.16-9.63-7.17-16.05-9.23-2.26-.73-4.52-1.34-6.68-1.83-2.38-.56-4.62-.98-6.54-1.28-6.45-9.25-11.02-17.71-16.11-20h-.01"/>
    <path class="cls-7" d="m190.77,177.62c4-1.92,7.33-3.71,7.33-3.71,17.99-.94,28.73-2.28,46.05-15.56.67-1.44,1.08-2.91,1.34-4.31.76-4.16,0-7.65,0-7.65,0,0,4.3-1.75,4.3-2.94s-.81-10.34-.81-10.34c4.44-5.11,10.87-16.92,11.15-20.81.27-3.89-1.39-4.56-1.39-4.56l-6.01-.48-.62-.05c-1.07-6.8-.72-8.95-4.83-9.13-4.12-.18-7.7-.89-7.7-.89-3.25-3.67-3.49-6.67-5.55-8.03"/>
    <path class="cls-7" d="m156.18,183.64c11.02-.43,20.94-.96,23.53-1.54,2.66-.59,7.16-2.6,11.05-4.48"/>
    <path class="cls-7" d="m63.3,181.45c15.53,1.74,37.29,2.9,51.28,3.19,4.1.08,7.53.09,9.94.02,6.74-.21,19.83-.57,31.65-1.02"/>
    <path class="cls-7" d="m62.53,181.37c.24.03.49.05.75.08"/>
    <path class="cls-7" d="m86.44,61.96c-10.98,5.86-30.52,20.26-34.27,26.17-3.77,5.91-13.17,24.43-13.17,24.43-1.34-.29-2.62-.57-3.87-.82-1.58-.33-3.1-.61-4.59-.83-7.01-1.03-13.14-.65-20.4,3.67-5.24,3.1-9.07,19.32-9.54,27.79-.19,3.48-.17,9.6.5,13.66.26,1.58.62,2.85,1.11,3.52,1.75,2.42,13.56,5.11,17.05,4.84,8.99,6.58,15.44,12.22,32.49,15.44,2.89.55,6.52,1.05,10.62,1.52"/>
    <path class="cls-7" d="m132.45,37.65c-.8,7.76-4.07,23.78-7.66,37.97-3.23,12.81-6.71,24.14-8.83,26.52"/>
    <line class="cls-7" x1="138.99" y1="38.93" x2="138.99" y2="69.24"/>
    <line class="cls-7" x1="145.67" y1="40.76" x2="142.32" y2="69.73"/>
    <path class="cls-7" d="m142.45,77.98s-.09.01-.14.01h-4.49c-.6,0-1.08-.48-1.08-1.07v-6.1c0-.6.48-1.08,1.08-1.08h4.49c.6,0,1.08.48,1.08,1.08v6.1c0,.55-.41,1-.95,1.06Z"/>
    <path class="cls-7" d="m138.37,77.99c-1.14,2.99-3.69,15.78-5.52,19.61-.07.15-.14.27-.2.39"/>
    <path class="cls-7" d="m137.5,97.57c.03-.11.06-.23.09-.36,1-3.73,4.21-15.46,4.86-19.22"/>
    <path class="cls-7" d="m150.17,75.68c.54-.72,4.83-16.56,4.83-16.56l5.64,16.56s-4.03-3.13-10.46,19.69"/>
    <line class="cls-7" x1="125.09" y1="75.68" x2="130.33" y2="97.17"/>
    <path class="cls-7" d="m80.89,71.74s-11,32.76-12.62,35.45c5.43-.52,8.82,2.3,11.86,3.75,1.78.86,3.44,1.26,5.32.27,3.98-2.09,6.01-2.8,6.71-3.02.2-.05.29-.07.29-.07"/>
    <polyline class="cls-7" points="95.66 88.39 96.92 102.53 98.14 101.18 101.74 97.17"/>
    <path class="cls-7" d="m160.65,122.1l4.83,7.65s8.06-6.62,8.77-8.95c3.75,2.16,10.56,5.02,13.07,4.48.72-1.88,1.39-4.55,1.87-7.48.49-2.93.81-6.12.81-8.99,0-1.81.25-3.54.52-5.21.36-2.28.75-4.41.55-6.37-.12-1.15-.43-2.24-1.06-3.28-.67-1.11-1.42-2.26-2.13-3.35-1.96-2.93-3.78-5.42-3.78-5.42"/>
    <path class="cls-7" d="m96.92,102.53s-1.85,2.26-4.75,5.67c-2.58,3.05-5.99,7.03-9.65,11.14-2.02,2.27-4.12,4.59-6.22,6.81-2.07,2.22-4.14,4.36-6.08,6.28-.66.65-1.31,1.27-1.95,1.86-2.01,1.9-3.84,3.48-5.36,4.57,0,0,2.93,3.11,7.4,6.1,1.78,1.2,3.81,2.38,5.98,3.32,3.39,1.49,7.15,2.43,10.96,2.04,2.06-.21,4.26-.49,6.5-.83,8.09-1.24,16.8-3.31,22.44-5.89.74-.34,1.41-.67,2.03-1.03,1.19-.66,2.16-1.37,2.86-2.09,1.47-1.54,2.58-3.41,3.67-5.25,2.37-3.98,4.71-7.82,10.76-7.82,1.58-1.07,3.1-2.1,4.55-3.1,9-6.12,15.34-10.51,15.34-10.51l5.23,8.29"/>
    <path class="cls-7" d="m98.14,101.18c5.26,1.24,12.02,1.94,17.83.96,1.36-.22,2.65-.54,3.87-.96,3.65-1.26,6.73-2.44,10.64-3.19.76-.15,1.55-.28,2.38-.39,1.44-.19,3.01-.33,4.74-.39,1.21-.05,2.5-.06,3.89-.04.8.15,1.68.3,2.62.46,1.4.23,2.93.47,4.53.69,1.79.25,3.65.47,5.5.63,3.53.3,7.04.39,9.91,0,6.63-.89,20.96-5.98,23.81-8.36"/>
    <line class="cls-7" x1="148.64" y1="98.33" x2="155.41" y2="113.81"/>
    <polyline class="cls-7" points="154.14 98.96 157.71 104.37 166.39 117.56 166.55 117.79"/>
    <path class="cls-7" d="m160.64,122.1h.01c.14-.08,2.93-1.74,5.74-4.53,1.77-1.78,3.53-4.02,4.64-6.62l4.83,1.25-1.61,8.59"/>
    <polyline class="cls-7" points="175.86 112.2 179.8 109.34 187.32 125.27"/>
    <polyline class="cls-7" points="157.71 104.37 161.14 106.07 171.03 110.95"/>
    <path class="cls-7" d="m161.14,106.07c7.7-1.18,27.6-6.15,29.92-8.84.02-.02.04-.03.05-.05"/>
    <path class="cls-7" d="m92.46,108.13s4.15.45,10.37.48c2.78.03,5.97-.04,9.39-.26,10.17-.67,22.33-2.77,31.52-8.35.08-.04.17-.09.25-.15"/>
    <polyline class="cls-7" points="143.99 98.33 143.74 100 142.93 105.37 140.07 124.31"/>
    <path class="cls-7" d="m102.83,108.62s-2.86,6.81-6.01,14.19c-.98,2.26-1.98,4.59-2.93,6.78-2.59,5.94-4.83,10.94-5.25,11.36"/>
    <path class="cls-7" d="m68.27,134.3c6.37,2.96,13.71,5.43,20.37,6.66,3.42.63,6.66.94,9.5.82l.57-.03c1.64-.11,3.38-.14,5.11-.12,7.2.06,14.41.96,14.41.96"/>
    <path class="cls-7" d="m98.14,141.77s2.66-5.34,5.68-11.84c1.21-2.6,2.47-5.38,3.65-8.1,2.38-5.49,4.39-10.64,4.77-13.21"/>
    <path class="cls-7" d="m107.46,121.83c10.18-1.91,26.25-9,32.99-14.16,1.08-.83,1.94-1.61,2.47-2.3"/>
    <path class="cls-7" d="m76.29,126.16s12.06,4.22,17.59,3.44"/>
    <path class="cls-7" d="m82.5,119.34h.01c.25.12,8.82,3.83,14.3,3.47"/>
    <path class="cls-7" d="m103.82,129.93c2,.11,5.78-.54,9.98-1.85,4.76-1.48,10.06-3.85,13.88-6.99,2.78-2.28,5.32-4.81,7.39-7.05,3.13-3.37,5.2-6.08,5.4-6.35l.02-.02"/>
    <path class="cls-7" d="m135.07,114.04s-7.67,12.26-18.88,20.81c-.86.66-1.76,1.3-2.67,1.9-3.04,2.05-6.3,3.77-9.71,4.86"/>
    <polyline class="cls-7" points="113.8 128.08 113.52 136.76 113.52 136.78"/>
    <path class="cls-7" d="m68.27,107.19c1.42,4.25,1.9,10.44,2.04,15.64.14,5.33-.11,9.59-.11,9.59"/>
    <path class="cls-7" d="m70.31,122.83c1.55-4.01,9.82-11.88,9.82-11.88"/>
    <path class="cls-7" d="m39,112.56s-10.29,12.36-14.05,17.54"/>
    <path class="cls-7" d="m34.61,113.61c-.47.02-13.83,13.02-19.88,18.81-.8.77-1.46,1.4-1.96,1.87-4.3,4.04-6.09,3.14-6.98-1.87-.89-5.01,5.63-19.69,24.75-21.48"/>
    <path class="cls-7" d="m14.74,132.42c1.8-4.29,9.33-13.28,13.98-15.53"/>
    <path class="cls-7" d="m70.31,144.98s-13.21,3.41-31.97,6.54c-11.01,1.85-23.95,3.59-37.23,4.5"/>
    <path class="cls-7" d="m19.27,164.38c1.08-.4,2.12-.82,3.12-1.25,8.94-3.84,14.82-8.52,16.26-9.73.23-.19.35-.29.35-.29.28,3.18.49,5.71.66,7.74.65,7.74.76,8.22,2.03,9.71.97,1.13,3.74,3.8,6.3,2.5,1.69-.85,3.29-3.47,4.18-9.49,2.21-.64,4.55-1.3,6.91-2.08,7.37-2.42,14.71-5.89,17.22-13.19"/>
    <path class="cls-7" d="m60.03,168.4c-.36-1.96-.67-4.24-.96-6.91"/>
    <path class="cls-7" d="m68.28,176.45c-3.3,3.29-6.27,3.03-8.25-8.03"/>
    <path class="cls-7" d="m93.89,150.42s-7.16,10.75-17.59,15.31c-2.66,3.43-5.44,8.14-8,10.72"/>
    <path class="cls-7" d="m47.78,173.41c.08-.01.17-.02.25-.04,1.96-.29,3.54-.52,4.84-.73,5.16-.81,5.73-1.27,7.16-4.23h0"/>
    <path class="cls-7" d="m68.29,176.45c6.89,1.81,14.21,3.66,16.8,3.63"/>
    <line class="cls-7" x1="68.27" y1="176.45" x2="68.28" y2="176.45"/>
    <line class="cls-7" x1="68.28" y1="176.45" x2="68.29" y2="176.45"/>
    <path class="cls-7" d="m124.88,156.02l-.03.32c-.35,2.53-2.58,7.19-5.98,12.2-2.2,3.26-4.9,6.68-7.9,9.75-1.98,2.03-3.48,2.81-4.64,2.78h-.02c-3.42-.12-3.89-7.21-4.56-10.16-.42-1.84-1.62-2.85-3.03-2.87-1.63-.02-3.53,1.27-4.83,4.13-1.96,3.9-3.91,6.17-5.74,7.23-1.08.62-2.1.82-3.06.68-3.45-.48-5.92-5.35-6.07-10.59-2.15,4.81-5.9,6.17-10.73,6.96"/>
    <path class="cls-7" d="m98.7,168.04h.01c.54-.48,17.47-15.82,17.48-24.43h0"/>
    <path class="cls-7" d="m118.86,168.54c1.86.59,4.01,11.22,6.33,12.53,2.25,1.27,9.65,1.99,12.09-3.86.07-.18.15-.37.21-.56-3.99-6.04-9.41-14.37-12.65-20.31-1.39-2.52-2.38-4.62-2.69-5.92-1.07-4.39,2.93-15.17,2.93-15.17h-.34s-8.56-.39-8.56-.39"/>
    <path class="cls-7" d="m135.51,127.42c6.33.89,10.93,2.47,16.51,6.88,1.9,1.5,6.49,3.75,12.35,5.97,11.27,4.27,27.26,8.43,37.98,7.01"/>
    <path class="cls-7" d="m164.37,140.26c7.01-1.39,26.34-6.69,32.97-10.57,1.25-.74,2.98-1.25,5.01-1.57,8.64-1.36,22.74.82,28.83,4.3,7.52,4.3,14.31,13.97,14.31,13.97"/>
    <path class="cls-7" d="m138.21,177.34c2.69-.52,11.94-5.69,18.8-11.16,3.39-2.69,6.19-5.46,7.36-7.78-10.06,1.99-35.23-16.78-35.23-16.78"/>
    <path class="cls-7" d="m138.19,177.34c-.45-.03-.69-.05-.69-.05.11.11.35.12.69.05"/>
    <line class="cls-7" x1="138.19" y1="177.34" x2="138.21" y2="177.34"/>
    <path class="cls-7" d="m245.49,154.04c-7.33-2.81-23.44,4.41-35.08,10.32-9.28,4.71-15.71,11.54-28.75,11.01-3.3-.13-7.03-.73-11.34-1.96-8.36,5.31-28.13,4.22-32.11,3.93"/>
    <path class="cls-7" d="m164.37,158.4c2.68,1.24,5.33,7.66,4.56,12.5l1.38,2.5"/>
    <line class="cls-7" x1="157.01" y1="166.18" x2="168.94" y2="170.9"/>
    <path class="cls-7" d="m88.13,179.39h.01c3.68.66,12,3.77,18.16,1.67"/>
    <path class="cls-7" d="m106.31,181.31c2.26.62,5.09,1.34,8.3,1.5s6.79-.21,10.59-1.75"/>
    <path class="cls-7" d="m22.39,163.13c4.8.44,13.9,3.46,17.27-2.28"/>
    <path class="cls-7" d="m190.52,103.6c2.76,4.62,5.73,8.01,7.94,11.14,1.49,2.12,2.65,4.12,3.13,6.29,1.21,5.36.76,7.1.76,7.1"/>
    <path class="cls-7" d="m240.98,123.24c2.96,2.4,5.71,5.57,8,9.86"/>
    <path class="cls-7" d="m189.19,117.79s9.31,5.64,12.4,3.23c1.05-1.24,3.05-2.6,5.53-3.72,3.44-1.56,7.82-2.69,11.97-2.55,1.27.03,2.51.19,3.71.49,1.96.5,4.12,1.05,6.38,1.79,3.86,1.26,7.98,3.09,11.79,6.19"/>
    <path class="cls-7" d="m191.61,80.15c4.34,14.54,8.4,17.42,6.85,34.58"/>
    <path class="cls-7" d="m202.17,79.08c3.59,12.14,10.21,21.75,4.95,38.22"/>
    <path class="cls-7" d="m220.44,79.62l-3.67,11.86c1.75-.13,2.44.17,3.48.11,1.2-.07,2.87-.63,7.16-2.83"/>
    <path class="cls-7" d="m220.25,91.6s1.57,20.74-1.16,23.14"/>
    <path class="cls-7" d="m234.03,89.13h0c-3.04,6.38-3.71,9.83-3.71,9.83,0,0,.77.11,1.88.14,2.27.08,5.94-.09,7.38-1.92"/>
    <path class="cls-7" d="m232.2,99.12s-1.6,16.34-3.02,17.92"/>
    <polyline class="cls-7" points="240.98 123.24 240.98 123.23 244.64 108.62 247.29 98.06"/>
    <path class="cls-7" d="m244.64,108.62s3.93.68,8.1-1.38"/>
    <path class="cls-7" d="m52.87,172.65s4.89,7.69,9.51,8.7c.05.01.11.02.15.02.25.05.5.07.75.08h.03"/>
    <path class="cls-7" d="m156.17,183.64h.01c7.15-4.13,10.55-6.54,16.46-6.58,2.7-.02,5.9.03,8.95.12,3.63.12,7.05.28,9.17.45h.01"/>
    <path class="cls-7" d="m83.04,32.45s6.65-2.86,9.41-2.78"/>
    <line class="cls-7" x1="78.84" y1="33.26" x2="73.38" y2="31.06"/>
    <path class="cls-7" d="m80.36,36.75s-.35,13.16,0,13.51,1.06,1.7,2.68,0"/>
    <path class="cls-7" d="m87.75,45.25c.84.81,1.11,1.52.94,2.33"/>
    <path class="cls-7" d="m84.2,54.08l6.09-1.58s0,1.87-.99,3.49"/>
    <path class="cls-7" d="m86.44,38.93s5.02-1.64,6.53-2.18"/>
    <line class="cls-7" x1="78.03" y1="39.53" x2="73.38" y2="38.54"/>
    <path class="cls-7" d="m106.4,33.88c1.52-2.59,5.26-4.66,6.63-3.22,3.58,3.81,1.5,16.75-3.74,13.26"/>
    <path class="cls-7" d="m110.61,34.63s2.04,4.48.63,6.13"/>
    <path class="cls-7" d="m109.56,38.54s-.87,1.18-.47,2.22"/>
    <path class="cls-7" d="m119.27,32.92c-5.31-22.1-15.6-29.02-15.6-29.02-.97,1.82-1.74,4.71-2.47,9.14"/>
    <path class="cls-7" d="m92.43,48.84c1.49,2.1,3.49,3.98,5.71,4.65"/>
    <path class="cls-7" d="m79.28,51.11s.67,1.35-1.75,3.14"/>
  </g>
</svg>