<svg id="_レイヤー_1" data-name="レイヤー 1" xmlns="http://www.w3.org/2000/svg" viewBox="0 0 269.58 202.24"><defs><style>.cls-1{fill:#eb6a6f}.cls-1,.cls-2,.cls-3,.cls-4,.cls-5,.cls-6,.cls-7,.cls-8{stroke-width:0}.cls-2{fill:#977993}.cls-10{stroke-miterlimit:10}.cls-10,.cls-11{fill:none;stroke:#000}.cls-3{fill:#e7dcaf}.cls-4{fill:#9f423b}.cls-5{fill:#f3edd7}.cls-6{fill:#f5d6b7}.cls-11{stroke-linecap:round;stroke-linejoin:round}.cls-7{fill:#333}.cls-8{fill:#fdffea}</style></defs><path class="cls-5" d="M.24 167.7h3.61v5.01H.24zM269.33 195.2v6.55h-30.36l15.31-8.61c1.03 1.61 3.1 2.71 5.5 2.71s4.61-1.18 5.6-2.87l3.96 2.22Z"/><path class="cls-5" d="M269.33 184.67v10.53l-3.96-2.22c.38-.65.59-1.38.59-2.14 0-1.3-.61-2.48-1.61-3.37l4.98-2.8Z"/><path class="cls-5" d="M269.33 172.71v11.96l-4.98 2.8c-1.13-1-2.76-1.64-4.58-1.64s-3.3.58-4.42 1.51l-26.02-14.62h40ZM269.33 87.94v5.75H.24v-5.75h269.09zM265.35 167.7h3.98v5.01h-3.98z"/><path class="cls-5" d="M265.96 190.83c0 .76-.21 1.49-.59 2.14l-5.4-3.04 4.38-2.47c1 .89 1.61 2.07 1.61 3.37Z"/><path class="cls-5" d="m259.97 189.93 5.4 3.04c-1 1.7-3.13 2.87-5.6 2.87s-4.47-1.1-5.5-2.71l5.7-3.2Z"/><path class="cls-7" d="M254.08 167.7h11.27v5.01h-11.27z"/><path class="cls-5" d="m264.35 187.47-4.38 2.47-4.62-2.6c1.13-.93 2.69-1.51 4.42-1.51 1.82 0 3.45.63 4.58 1.64Z"/><path class="cls-5" d="m259.97 189.93-5.7 3.2c-.44-.68-.69-1.47-.69-2.3 0-1.37.68-2.6 1.77-3.5l4.62 2.6Z"/><path class="cls-5" d="m229.33 172.71 26.02 14.62c-1.09.9-1.77 2.13-1.77 3.5 0 .83.25 1.62.69 2.3l-15.31 8.61H197.6l-15.6-8.77c.38-.65.59-1.38.59-2.14 0-1.3-.61-2.48-1.61-3.36l26.26-14.76h22.09Zm-5.95 18.12c0-2.76-2.24-5-5-5s-5.01 2.24-5.01 5 2.24 5.01 5.01 5.01 5-2.24 5-5.01ZM254.08 172.71h-30.43v-5.01h30.43v5.01z"/><path class="cls-7" d="M212.37 167.7h11.27v5.01h-11.27zM218.38 185.83c2.76 0 5 2.24 5 5s-2.24 5.01-5 5.01-5.01-2.24-5.01-5.01 2.24-5 5.01-5Z"/><path class="cls-5" d="m207.25 172.71-26.26 14.76c-1.13-1.01-2.76-1.64-4.58-1.64s-3.3.58-4.42 1.51l-26.02-14.62h61.28ZM181.94 172.71v-5.01h30.43v5.01h-30.43zM197.61 201.74H155.6l15.31-8.61c1.03 1.61 3.11 2.71 5.5 2.71s4.61-1.18 5.6-2.87l15.6 8.77ZM182.6 190.83c0 .76-.21 1.49-.59 2.14l-5.4-3.04 4.38-2.46c1 .88 1.61 2.06 1.61 3.36Z"/><path class="cls-5" d="m176.61 189.93 5.4 3.04c-1 1.7-3.13 2.87-5.6 2.87s-4.47-1.1-5.5-2.71l5.7-3.2Z"/><path class="cls-7" d="M170.67 167.7h11.27v5.01h-11.27z"/><path class="cls-5" d="M176.41 185.83c1.82 0 3.45.63 4.58 1.64l-4.38 2.46-4.62-2.6c1.13-.93 2.69-1.51 4.42-1.51Z"/><path class="cls-5" d="m176.61 189.93-5.7 3.2c-.44-.68-.69-1.47-.69-2.3 0-1.37.68-2.6 1.77-3.5l4.62 2.6Z"/><path class="cls-5" d="m145.97 172.71 26.02 14.62c-1.09.9-1.77 2.13-1.77 3.5 0 .83.25 1.62.69 2.3l-15.31 8.61h-41.36l-15.6-8.77c.38-.65.59-1.38.59-2.14 0-1.3-.61-2.48-1.61-3.36l26.26-14.76h22.09Zm-7 18.12c0-2.76-2.24-5-5-5s-5.01 2.24-5.01 5 2.24 5.01 5.01 5.01 5-2.24 5-5.01ZM170.67 172.71h-30.43v-5.01h30.43v5.01z"/><path class="cls-7" d="M128.97 167.7h11.27v5.01h-11.27zM133.97 185.83c2.76 0 5 2.24 5 5s-2.24 5.01-5 5.01-5.01-2.24-5.01-5.01 2.24-5 5.01-5Z"/><path class="cls-5" d="m123.88 172.71-26.26 14.76c-1.13-1.01-2.76-1.64-4.58-1.64s-3.3.58-4.42 1.51L62.6 172.72h61.28ZM128.97 172.71H98.53v-5.01h30.44v5.01zM114.25 201.74H72.24l15.31-8.61c1.03 1.61 3.1 2.71 5.5 2.71s4.61-1.18 5.6-2.87l15.6 8.77ZM99.24 190.83c0 .76-.21 1.49-.59 2.14l-5.4-3.04 4.38-2.46c1 .88 1.61 2.06 1.61 3.36Z"/><path class="cls-5" d="m93.24 189.93 5.4 3.04c-1 1.7-3.13 2.87-5.6 2.87s-4.47-1.1-5.5-2.71l5.7-3.2Z"/><path class="cls-7" d="M87.26 167.7h11.27v5.01H87.26z"/><path class="cls-5" d="M93.05 185.83c1.82 0 3.45.63 4.58 1.64l-4.38 2.46-4.62-2.6c1.13-.93 2.69-1.51 4.42-1.51ZM93.24 189.93l-5.7 3.2c-.44-.68-.69-1.47-.69-2.3 0-1.37.68-2.6 1.77-3.5l4.62 2.6Z"/><path class="cls-5" d="m62.61 172.71 26.02 14.62c-1.09.9-1.77 2.13-1.77 3.5 0 .83.25 1.62.69 2.3l-15.31 8.61H30.69l-15.6-8.77c.38-.65.59-1.38.59-2.14 0-1.3-.61-2.48-1.61-3.36l26.26-14.76h22.28Zm-8.5 18.12c0-2.76-2.24-5-5-5s-5.01 2.24-5.01 5 2.24 5.01 5.01 5.01 5-2.24 5-5.01ZM87.26 172.71H56.83v-5.01h30.43v5.01z"/><path class="cls-7" d="M45.56 167.7h11.27v5.01H45.56zM49.1 185.83c2.76 0 5 2.24 5 5s-2.24 5.01-5 5.01-5.01-2.24-5.01-5.01 2.24-5 5.01-5Z"/><path class="cls-5" d="M45.56 172.71H15.13v-5.01h30.43v5.01zM30.69 201.74H.24v-6.5l3.75-2.1c1.03 1.61 3.11 2.71 5.5 2.71s4.61-1.18 5.6-2.87l15.6 8.77ZM15.68 190.83c0 .76-.21 1.49-.59 2.14l-5.4-3.04 4.38-2.46c1 .88 1.61 2.06 1.61 3.36Z"/><path class="cls-7" d="M3.86 167.7h11.27v5.01H3.86z"/><path class="cls-5" d="m9.69 189.93 5.4 3.04c-1 1.7-3.13 2.87-5.6 2.87s-4.47-1.1-5.5-2.71l5.7-3.2ZM9.49 185.83c1.82 0 3.45.63 4.58 1.64l-4.38 2.46-4.62-2.6c1.13-.93 2.69-1.51 4.42-1.51Z"/><path class="cls-5" d="m9.69 189.93-5.7 3.2c-.44-.68-.69-1.47-.69-2.3 0-1.37.68-2.6 1.77-3.5l4.62 2.6Z"/><path class="cls-5" d="m.24 184.63 4.82 2.71c-1.09.9-1.77 2.13-1.77 3.5 0 .83.25 1.62.69 2.3l-3.75 2.1v-10.61Z"/><path style="fill:#d2d296;stroke-width:0" d="M212.37 167.7H.24V93.69h269.09v74.01h-56.96z"/><path class="cls-5" d="M.24 172.71h40.08l-26.26 14.76c-1.13-1.01-2.76-1.64-4.58-1.64s-3.3.58-4.42 1.51l-4.82-2.71v-11.91Z"/><path class="cls-10" d="M269.33 201.74H.24M.24 87.94h269.09M.24 93.69h269.09M265.35 167.7h3.98M223.65 167.7h30.43M181.94 167.7h30.43M140.24 167.7h30.43M98.53 167.7h30.44M56.83 167.7h30.43M15.13 167.7h30.43M.24 167.7h3.62M265.35 172.71h3.98M223.65 172.71h30.43M181.94 172.71h30.43M140.24 172.71h30.43M98.53 172.71h30.44M56.83 172.71h30.43M15.13 172.71h30.43M.24 172.71h3.62M72.24 201.74l15.31-8.6 5.69-3.21 4.39-2.45 26.25-14.77"/><path class="cls-10" d="m114.25 201.74-15.6-8.77-5.41-3.04-4.62-2.59-26.01-14.63M138.97 190.83a5.004 5.004 0 1 1-10.01 0c0-2.77 2.24-5 5.01-5s5 2.24 5 5ZM223.39 190.83a5.004 5.004 0 1 1-10.01 0c0-2.77 2.24-5 5.01-5s5 2.24 5 5Z"/><path class="cls-10" d="M97.63 187.48c1 .88 1.61 2.06 1.61 3.36 0 .76-.21 1.49-.59 2.14-1 1.7-3.13 2.87-5.6 2.87s-4.47-1.1-5.5-2.71c-.44-.68-.69-1.47-.69-2.3 0-1.37.68-2.6 1.77-3.5 1.13-.93 2.69-1.51 4.42-1.51 1.82 0 3.45.63 4.58 1.64ZM.24 195.24l3.75-2.1 5.7-3.21 4.38-2.45 26.26-14.77"/><path class="cls-10" d="m30.69 201.74-15.6-8.77-5.4-3.04-4.62-2.59-4.83-2.71"/><path class="cls-10" d="M14.07 187.48c1 .88 1.61 2.06 1.61 3.36 0 .76-.21 1.49-.59 2.14-1 1.7-3.13 2.87-5.6 2.87s-4.47-1.1-5.5-2.71c-.44-.68-.69-1.47-.69-2.3 0-1.37.68-2.6 1.77-3.5 1.13-.93 2.69-1.51 4.42-1.51 1.82 0 3.45.63 4.58 1.64ZM155.61 201.74l15.3-8.6 5.7-3.21 4.38-2.45 26.26-14.77"/><path class="cls-10" d="m197.61 201.74-15.6-8.77-5.4-3.04-4.62-2.59-26.02-14.63"/><path class="cls-10" d="M180.99 187.48c1 .88 1.61 2.06 1.61 3.36 0 .76-.21 1.49-.59 2.14-1 1.7-3.13 2.87-5.6 2.87s-4.47-1.1-5.5-2.71c-.44-.68-.69-1.47-.69-2.3 0-1.37.68-2.6 1.77-3.5 1.13-.93 2.69-1.51 4.42-1.51 1.82 0 3.45.63 4.58 1.64ZM238.97 201.74l15.31-8.6 5.69-3.21 4.38-2.46 4.98-2.8"/><path class="cls-10" d="m269.33 195.2-3.96-2.23-5.4-3.04-4.62-2.59-26.02-14.63"/><path class="cls-10" d="M264.35 187.47c1 .89 1.61 2.07 1.61 3.37 0 .76-.21 1.49-.59 2.14-1 1.7-3.13 2.87-5.6 2.87s-4.47-1.1-5.5-2.71c-.44-.68-.69-1.47-.69-2.3 0-1.37.68-2.6 1.77-3.5 1.13-.93 2.69-1.51 4.42-1.51 1.82 0 3.45.63 4.58 1.64ZM54.1 190.83a5.004 5.004 0 1 1-10.01 0c0-2.77 2.24-5 5.01-5s5 2.24 5 5ZM3.86 167.7h11.27v5.01H3.86zM45.56 167.7h11.27v5.01H45.56zM87.26 167.7h11.27v5.01H87.26zM128.97 167.7h11.27v5.01h-11.27zM170.67 167.7h11.27v5.01h-11.27zM212.37 167.7h11.27v5.01h-11.27zM254.08 167.7h11.27v5.01h-11.27z"/><path class="cls-1" d="M237.08 88.77s1.37.55 1.14 3.76-5.52 12.93-9.18 17.13c-1.89-3.53-4.16-6.15-6.59-8.12s3.01-12.03 3.01-12.03 3.24.56 6.67-1.13l4.94.4Z"/><path class="cls-4" d="m231.62 88.33.51.04c-3.43 1.7-6.67 1.13-6.67 1.13l2.18-8.69c3.39.15 3.09 1.91 3.97 7.51Z"/><path class="cls-2" d="M229.04 109.66s.67 7.51.67 8.51-3.54 2.42-3.54 2.42-5.59-7.96-11.78-11.5c-5.01-2.87-16.61-4.66-23.73-3.54 0 0 .37-1.43-.62-5.84.87-1.02 2.51-2.14 4.55-3.06 2.83-1.28 6.44-2.22 9.85-2.1 1.05.03 2.07.16 3.06.41 1.61.42 3.39.87 5.26 1.47 3.18 1.04 6.57 2.55 9.71 5.1 2.43 1.98 4.7 4.6 6.59 8.13Z"/><path class="cls-1" d="m227.65 80.82-2.18 8.69-3.01 12.03c-3.13-2.55-6.53-4.06-9.71-5.1 1.17-1.3 2.48-14.75 2.48-14.75v-.02c1.87.07 4.89-.08 6.08-1.58 0 0 2.94.59 6.34.74ZM126.86 128.79c-1.14-2.08-1.96-3.8-2.22-4.87-.88-3.61 2.42-12.48 2.42-12.48h-.28c1.95-3.28 3.88-6.45 8.86-6.45 5.21.74 9 2.03 13.59 5.66 1.57 1.24 5.34 3.09 10.16 4.92 5.77-1.15 21.69-5.51 27.14-8.71 1.03-.61 2.45-1.03 4.12-1.29 7.12-1.12 18.72.68 23.73 3.54 6.19 3.54 11.78 11.5 11.78 11.5s.62 2.87 0 6.29c-6.03-2.31-19.3 3.63-28.88 8.49-7.64 3.88-12.93 9.5-23.67 9.06-2.72-.1-5.78-.6-9.33-1.61l-1.13-2.06c.63-3.99-1.55-9.27-3.76-10.29-.96 1.91-3.27 4.19-6.06 6.41-5.65 4.5-13.26 8.76-15.48 9.19-.37-.03-.57-.04-.57-.04l-.17-.07c.06-.15.12-.3.17-.46-3.28-4.97-7.75-11.83-10.42-16.72Z"/><path class="cls-4" d="M226.17 126.89a14.76 14.76 0 0 1-1.1 3.55c-14.26 10.93-23.1 12.04-37.91 12.81 0 0-2.74 1.47-6.03 3.06-1.75-.14-4.56-.28-7.55-.37l.05-1.49c10.74.43 16.03-5.19 23.67-9.06 9.58-4.87 22.85-10.8 28.88-8.49ZM216.74 73.47c1.7 1.13 1.9 3.59 4.57 6.61-1.19 1.51-4.21 1.65-6.08 1.58-.92-.03-1.55-.11-1.55-.11s.55-2.84 3.06-8.09Z"/><path class="cls-1" d="M216.74 73.46c-2.5 5.26-3.06 8.09-3.06 8.09s.63.09 1.55.11v.02s-1.32 13.45-2.48 14.75c-1.86-.61-3.64-1.06-5.26-1.47-.99-.25-2.01-.38-3.06-.41v-.02c2.24-1.97.95-19.05.95-19.05.99-.07 2.36-.53 5.9-2.34 0 0 2.36-.3 3.69-.3.75.1 1.32.3 1.77.61Z"/><path class="cls-4" d="M205.55 65.63c1.77.29 3.09 3.25 5.74 7.52-3.53 1.81-4.91 2.27-5.9 2.33-.86.05-1.43-.19-2.87-.09l3.02-9.77Z"/><path class="cls-1" d="m205.55 65.63-3.02 9.77c1.44-.1 2.01.14 2.87.09s1.29 17.08-.95 19.06v.02c-3.41-.12-7.02.81-9.85 2.1 4.33-13.56-1.13-21.47-4.08-31.46 1.19-.44 3.98 0 5.45 2.66 0 0 5.16-.74 9.58-2.22Z"/><path class="cls-1" d="M190.51 65.19c2.95 9.99 8.41 17.9 4.08 31.46-2.04.93-3.69 2.04-4.55 3.06-.4-1.78-1.35-3.43-2.58-5.18 1.28-14.13-2.06-16.49-5.64-28.47 0 0 7.37-.44 8.69-.88ZM190.03 99.72c1 4.42.62 5.84.62 5.84-1.67.26-3.09.68-4.12 1.29-5.45 3.19-21.37 7.56-27.14 8.7-4.82-1.82-8.6-3.67-10.16-4.91-4.6-3.63-8.38-4.93-13.59-5.66 1.3-.88 2.55-1.73 3.75-2.55 7.41-5.04 12.63-8.65 12.63-8.65l4.3 6.82 3.97 6.29s6.63-5.45 7.22-7.37c3.09 1.77 8.69 4.13 10.76 3.69.59-1.55 1.14-3.75 1.54-6.16 0 0 7.66 4.64 10.21 2.66Z"/><path class="cls-1" d="M190.03 99.72c-2.55 1.98-10.21-2.66-10.21-2.66.41-2.42.67-5.04.67-7.4 0-1.49.21-2.92.42-4.29 2.27 3.8 4.72 6.6 6.54 9.17 1.23 1.75 2.18 3.39 2.58 5.18Z"/><path class="cls-1" d="M181.36 80.12c-.1-.94-.35-1.84-.87-2.7-.55-.92-1.17-1.86-1.76-2.76-1.61-2.42-3.11-4.46-3.11-4.46l.61-5.51 5.58 1.39c3.58 11.97 6.92 14.34 5.64 28.47-1.82-2.57-4.27-5.37-6.54-9.17.29-1.88.61-3.63.45-5.25Z"/><path class="cls-3" d="M181.36 80.12c.16 1.62-.16 3.37-.45 5.25-.22 1.37-.42 2.8-.42 4.29 0 2.36-.26 4.99-.67 7.4-.4 2.41-.95 4.61-1.54 6.16l-6.19-13.12-3.25 2.35-3.97-1.03-8.14-4.02c6.34-.97 22.72-5.06 24.63-7.28Z"/><path class="cls-3" d="M180.49 77.42c.52.86.78 1.76.87 2.7-1.91 2.22-18.29 6.31-24.63 7.28l-2.82-1.39-2.94-4.46c2.91.25 5.79.32 8.16 0 5.45-.74 17.25-4.93 19.6-6.88.59.89 1.2 1.84 1.76 2.75Z"/><path class="cls-1" d="M178.73 74.66c-2.35 1.97-14.15 6.16-19.6 6.89-2.36.32-5.25.25-8.16 0-1.52-.13-3.06-.31-4.53-.52a133.302 133.302 0 0 1-5.89-.95c-1.14-.02-2.21 0-3.2.03.82-3.07 3.46-12.73 4-15.83.44-.06.78-.43.78-.88v-5.02c0-.49-.4-.89-.89-.89L144 33.64c5.28 1.7 10.48 4.17 13.21 7.6 4.74 5.97 10.16 17.17 11.19 21.89s7.22 7.07 7.22 7.07 1.5 2.04 3.11 4.46Z"/><path class="cls-3" d="m172.09 90.1 6.19 13.12c-2.07.44-7.67-1.91-10.76-3.69l1.32-7.07 3.25-2.35Z"/><path class="cls-2" d="M173.56 145.94c2.99.1 5.8.23 7.55.37-3.2 1.55-6.91 3.2-9.1 3.69-2.13.48-10.29.91-19.37 1.26 5.89-3.4 8.68-5.39 13.55-5.42 2.22-.02 4.86.03 7.37.1Z"/><path class="cls-2" d="m173.62 144.45-.05 1.49c-2.51-.07-5.14-.11-7.37-.1-4.87.03-7.66 2.02-13.55 5.42-9.72.37-20.5.67-26.05.84-1.98.06-4.8.05-8.18-.02l.02-1.51c2.64.14 5.59-.17 8.72-1.44 1.85 1.05 7.95 1.64 9.96-3.18l.17.07c.09.09.29.1.57.04 3.27.23 19.55 1.13 26.43-3.24 3.55 1.01 6.61 1.51 9.33 1.61Z"/><path class="cls-3" d="M161.05 96.87c1.45-1.46 2.91-3.31 3.82-5.45l3.97 1.03-1.32 7.07c-.59 1.92-7.22 7.37-7.22 7.37l-3.97-6.29c.11-.07 2.42-1.43 4.73-3.73Z"/><path class="cls-3" d="m156.73 87.4 8.14 4.02c-.91 2.14-2.36 3.98-3.82 5.45l-7.14-10.86 2.82 1.39Z"/><path class="cls-4" d="m163.15 140.78 1.13 2.06c-6.88 4.37-23.16 3.47-26.43 3.24 2.22-.42 9.83-4.68 15.48-9.19l9.82 3.89ZM159.39 130.48c2.21 1.02 4.39 6.3 3.76 10.29l-9.82-3.89c2.79-2.22 5.1-4.49 6.06-6.41Z"/><path class="cls-3" d="m153.91 86.01 7.14 10.86c-2.31 2.3-4.61 3.66-4.73 3.73l-4.3-6.82-5.58-12.74c1.47.21 3 .39 4.53.52l2.94 4.46Z"/><path class="cls-3" d="m142.41 82.41.21-1.38.1-.57c1.15.19 2.42.39 3.73.57l5.58 12.74s-5.22 3.61-12.63 8.65l2.35-15.59.67-4.42ZM144 33.64l-2.76 23.85h-2.74V32.13c1.77.41 3.64.91 5.5 1.51ZM133.44 80.44c1.19-.16 2.48-.27 3.9-.32 1-.04 2.06-.05 3.2-.03.66.12 1.39.25 2.16.38l-.1.57-.21 1.38c-7.57 4.6-17.57 6.32-25.95 6.87-2.81.18-5.45.24-7.73.22-5.12-.03-8.54-.4-8.54-.4l-.24.06c2.39-2.81 3.91-4.67 3.91-4.67l1-1.12c4.33 1.02 9.9 1.59 14.67.79 1.12-.18 2.18-.44 3.19-.79 3-1.04 5.54-2.01 8.76-2.62.62-.12 1.27-.23 1.96-.32Z"/><path class="cls-3" d="m142.41 82.41-.67 4.42c-.44.57-1.14 1.21-2.03 1.9-5.55 4.24-18.78 10.08-27.16 11.65 1.96-4.52 3.61-8.76 3.93-10.87l-.02-.23c8.37-.55 18.38-2.28 25.95-6.87Z"/><path class="cls-1" d="M142.13 58.38v5.02c0 .45-.34.82-.78.87h-3.81a.89.89 0 0 1-.89-.88v-5.02c0-.49.4-.89.89-.89h3.7c.49 0 .89.4.89.89Z"/><path class="cls-3" d="M139.71 88.74c.89-.69 1.59-1.33 2.03-1.9l-2.35 15.59c-1.19.82-2.45 1.67-3.75 2.55-4.98 0-6.91 3.17-8.86 6.44l-7.05-.31c8.94-6.83 15.14-16.51 15.52-17.12 0-.02.02-.03.02-.03 2.58-2.77 4.28-5 4.44-5.23ZM141.35 64.28c-.54 3.11-3.18 12.76-4 15.83-1.43.05-2.72.16-3.9.32 1.51-3.16 3.61-13.69 4.55-16.15h3.36Z"/><path class="cls-3" d="M139.7 88.73c-.16.23-1.86 2.47-4.44 5.24l-.02.03c-1.71 1.84-3.79 3.9-6.07 5.77-3.14 2.59-7.51 4.54-11.43 5.76-3.45 1.08-6.57 1.61-8.22 1.52 1-2.14 2.03-4.43 3-6.67 8.38-1.58 21.61-7.41 27.16-11.65Z"/><path class="cls-1" d="M138.5 57.09v.41h-.96c-.49 0-.89.4-.89.89v5.02c0 .48.4.88.89.88h.45c-.94 2.46-3.04 12.99-4.55 16.15-.68.09-1.33.2-1.96.32l-.12-.68-4.31-17.69-.24-.06c2.95-11.68 5.64-24.86 6.3-31.25 1.58.25 3.43.6 5.39 1.06v24.95ZM137.27 145.51c-.05.16-.11.31-.17.46-2.01 4.81-8.1 4.22-9.96 3.18-1.91-1.07-3.68-9.83-5.21-10.31 2.81-4.12 4.64-7.96 4.93-10.04 2.67 4.89 7.13 11.75 10.42 16.72Z"/><path class="cls-1" d="M133.12 31.08c-.66 6.39-3.35 19.57-6.3 31.25-2.66 10.54-5.52 19.87-7.27 21.83-4.78.81-10.35.23-14.67-.79l2.97-3.3c2.87-6 11.68-24.08 13.96-42.22.44-3.58.64-7.17.48-10.67-.18-4.4-.94-8.65-2.42-12.58 4.19 1.89 7.96 8.85 13.26 16.47Z"/><path class="cls-1" d="m131.37 80.08.12.68c-3.22.61-5.76 1.58-8.76 2.62-1 .35-2.07.61-3.19.79 1.75-1.97 4.61-11.29 7.27-21.83l.24.06 4.31 17.69Z"/><path class="cls-3" d="M135.25 93.99c-.38.61-6.58 10.29-15.52 17.11-.71.55-1.45 1.07-2.2 1.57l.23-7.14c3.92-1.22 8.29-3.17 11.43-5.76 2.28-1.87 4.36-3.94 6.07-5.77Z"/><path class="cls-1" d="M126.78 111.42h.28s-3.3 8.88-2.42 12.49c.26 1.07 1.07 2.8 2.22 4.87-.29 2.09-2.12 5.92-4.93 10.04-1.81 2.68-4.03 5.5-6.5 8.03-1.63 1.67-2.87 2.31-3.82 2.29h-.02c-2.81-.1-3.2-5.94-3.76-8.36-.35-1.52-1.33-2.35-2.49-2.36.44-.39 14.38-13.01 14.39-20.1.61-.28 1.16-.55 1.67-.85.98-.55 1.77-1.13 2.35-1.72 1.21-1.26 2.12-2.81 3.02-4.32Z"/><path class="cls-3" d="M117.53 112.67c.75-.49 1.49-1.02 2.2-1.57s7.05.32 7.05.32c-.9 1.52-1.81 3.06-3.02 4.32-.58.6-1.38 1.18-2.35 1.72 0 0-5.93-.74-11.86-.79 2.81-.91 5.49-2.32 7.99-4.01Z"/><path class="cls-4" d="M121.93 138.83c1.53.48 3.3 9.24 5.21 10.31-3.13 1.26-6.08 1.58-8.72 1.44s-4.97-.73-6.83-1.24l.02-.2c.95.03 2.19-.61 3.82-2.29 2.47-2.53 4.69-5.34 6.5-8.03ZM122.27 27.19c.16 3.5-.03 7.08-.48 10.67l-2.13-.26c.48-3.65.44-7.56-.62-11.31-2.12-7.48-9.43-14.44-11.35-15.32-.1-.04-.2-.1-.3-.13.61-3.65 1.24-6.03 2.03-7.53 0 0 8.47 5.7 12.84 23.89Z"/><path class="cls-8" d="m119.66 37.6 2.13.26c-2.28 18.15-11.08 36.22-13.96 42.22 0 0-3.39-4.87-5-7.23-.3-.44-.61-1.3-.88-2.42l6.18-8.03s4.42-6.34 6.04-8.84c1.1-1.71 4.46-8.28 5.49-15.96Z"/><path class="cls-1" d="M119.85 14.61c1.48 3.93 2.23 8.18 2.42 12.58C117.9 9 109.43 3.3 109.43 3.3c-.8 1.5-1.43 3.88-2.03 7.52-.39-.16-.78-.32-1.17-.45s.44-5.16 2.51-9.88c5.51 3.74 9.04 8.61 11.12 14.11Z"/><path class="cls-3" d="M119.73 118.31c-4.65 2.12-11.82 3.83-18.48 4.85-1.84.28-3.65.51-5.35.68-3.13.32-6.23-.45-9.02-1.68-1.79-.78-3.46-1.75-4.93-2.74-3.68-2.46-6.09-5.02-6.09-5.02 1.26-.9 2.76-2.2 4.42-3.77 5.25 2.43 11.29 4.47 16.77 5.48 2.81.52 5.48.77 7.82.68l.47-.03c1.35-.09 2.78-.11 4.21-.1 5.93.05 11.86.79 11.86.79-.51.29-1.06.57-1.67.85Z"/><path class="cls-6" d="m90.18 32.58-1.87.05-3.83-.81-.48.06a29.29 29.29 0 0 1-.18-3.08c0-5.75 1.18-12.53 4.42-15.18 3.04-2.48 10.54-5.85 17.97-3.24.39.13.78.29 1.17.46.1.03.2.09.3.13 1.92.88 9.23 7.84 11.35 15.32 1.06 3.75 1.11 7.65.62 11.31-1.03 7.68-4.39 14.25-5.49 15.96-1.62 2.5-6.04 8.84-6.04 8.84l-5.13-10.59c-.94.1-1.84.14-2.7.12-1.88-.03-3.55-.33-5.06-.83-2.03-.68-3.79-1.72-5.38-3-.85-.68-1.63-1.78-2.33-3.16l.37-.19c1.99-1.48 1.44-2.59 1.44-2.59l.89-.69c-.2-.21-.12-5.71-.05-8.89Z"/><path class="cls-2" d="m118.42 150.58-.02 1.51c-11.51-.23-29.43-1.19-42.21-2.62h-.03c-.21-.03-.42-.04-.61-.07-.03 0-.08 0-.12-.02-3.8-.83-7.83-7.16-7.83-7.16 4.25-.68 4.72-1.06 5.9-3.49 1.63 9.1 4.06 9.32 6.78 6.61h.02c5.67 1.49 11.7 3.01 13.83 2.99.79.11 1.62-.05 2.51-.56 3.03.55 9.88 3.1 14.95 1.38h.02l-.02.2c1.86.51 4.19 1.1 6.83 1.24Z"/><path class="cls-3" d="m117.76 105.53-.23 7.14c-2.5 1.69-5.19 3.1-7.99 4-1.43 0-2.86.02-4.21.1l-.47.03s2.19-4.4 4.68-9.75c1.64.09 4.76-.44 8.22-1.52Z"/><path class="cls-3" d="m116.46 89.28.02.23c-.32 2.11-1.97 6.35-3.93 10.87-.97 2.23-2.01 4.53-3 6.67-2.48 5.35-4.68 9.75-4.68 9.75-2.34.1-5-.16-7.82-.68.35-.35 2.19-4.46 4.32-9.35.79-1.81 1.61-3.72 2.42-5.58 2.59-6.07 4.94-11.68 4.94-11.68 2.29.02 4.92-.04 7.73-.23Z"/><path class="cls-1" d="M119.73 118.31c0 7.09-13.95 19.71-14.39 20.1-1.34-.02-2.91 1.05-3.97 3.4-1.61 3.21-3.22 5.08-4.73 5.95-.89.51-1.72.68-2.51.56-2.84-.4-4.87-4.41-5-8.72-1.77 3.96-4.86 5.08-8.83 5.73 2.11-2.12 4.4-6 6.59-8.82 8.59-3.76 14.48-12.61 14.48-12.61l-.11-.75c6.66-1.02 13.83-2.73 18.48-4.85Z"/><path class="cls-4" d="M105.34 138.42c1.16.02 2.15.85 2.49 2.36.55 2.42.94 8.27 3.76 8.36-5.07 1.72-11.92-.83-14.95-1.38 1.51-.87 3.12-2.74 4.73-5.95 1.06-2.35 2.63-3.42 3.97-3.4Z"/><path class="cls-3" d="M108.73 89.5s-2.35 5.62-4.94 11.69c-4.51.29-11.57-2.76-11.77-2.86 3.01-3.39 5.83-6.66 7.95-9.17l.24-.06s3.42.37 8.54.4Z"/><path class="cls-8" d="m103 51.8 5.13 10.59-6.18 8.03c-1.24-4.84-2.13-14.68-1.65-18.31v-.19c.86.02 1.76-.02 2.7-.12Z"/><path class="cls-1" d="m107.84 80.08-2.97 3.3-1 1.12-1.03-11.64c1.62 2.36 5 7.23 5 7.23ZM56.18 92.75s7.74-15.25 10.84-20.11c3.09-4.87 19.18-16.72 28.22-21.54 1.51.5 3.18.81 5.06.83v.19c-.48 3.63.42 13.47 1.65 18.31.28 1.13.58 1.98.88 2.42l1.03 11.64s-1.52 1.86-3.91 4.67c-.58.18-2.25.76-5.52 2.48-1.55.81-2.92.48-4.38-.23-2.5-1.19-5.3-3.51-9.77-3.09 1.17 3.5 1.57 8.6 1.68 12.87.11 4.39-.09 7.9-.09 7.9-.55.55-1.08 1.06-1.6 1.54-1.65 1.57-3.16 2.87-4.42 3.77 0 0 2.42 2.56 6.09 5.02s-10.87 2.81-26.32 5.39c-9.06 1.52-19.71 2.95-30.65 3.71-.55-3.34-.57-8.38-.42-11.25.39-6.97 3.54-20.32 7.85-22.87 5.98-3.56 11.02-3.87 16.8-3.02v.03c-15.74 1.47-21.11 13.56-20.37 17.68.74 4.13 2.21 4.87 5.75 1.54.41-.39.95-.91 1.61-1.54 3.38-3.24 9.51-9.19 13.25-12.71 1.77-1.66 3-2.77 3.12-2.78l.42-1.54c1.03.21 2.09.43 3.19.68Z"/><path class="cls-3" d="M103.78 101.19c-.81 1.86-1.63 3.77-2.42 5.58-4.55.64-14.48-2.83-14.48-2.83 1.72-1.84 3.45-3.74 5.12-5.61.21.1 7.26 3.15 11.77 2.86Z"/><path class="cls-1" d="m101.26 123.16.11.75s-5.9 8.85-14.48 12.61c-2.19 2.82-4.48 6.7-6.59 8.82h-.02c-2.72 2.71-5.15 2.48-6.78-6.61-.29-1.62-.55-3.5-.79-5.7 6.07-1.99 12.11-4.85 14.17-10.86 2.79 1.22 5.89 1.99 9.02 1.67 1.7-.17 3.51-.41 5.35-.68Z"/><path class="cls-3" d="M86.88 103.94s9.93 3.47 14.48 2.83c-2.13 4.89-3.97 9-4.32 9.35-5.48-1.01-11.52-3.05-16.77-5.48.52-.48 1.06-1 1.6-1.53 1.59-1.58 3.3-3.34 5-5.17Z"/><path class="cls-1" d="M92 98.33c-1.66 1.87-3.39 3.77-5.12 5.61-1.71 1.83-3.41 3.59-5 5.17s.2-3.51.09-7.9c1.27-3.3 8.09-9.78 8.09-9.78 1.46.71 2.83 1.04 4.38.23 3.27-1.72 4.94-2.3 5.52-2.48-2.12 2.51-4.93 5.78-7.95 9.17Z"/><path class="cls-4" d="M94.12 148.33c-2.13.03-8.16-1.5-13.83-2.99 3.97-.65 7.06-1.77 8.83-5.73.12 4.31 2.16 8.32 5 8.72Z"/><path class="cls-6" d="m90.23 41.47-.89.69s.55 1.11-1.44 2.59l-.37.19c-1.82-3.53-3.08-8.83-3.53-13.06l.48-.06 3.83.81 1.87-.05c-.07 3.19-.15 8.68.05 8.89Z"/><path class="cls-1" d="M86.88 122.17c-2.06 6.02-8.1 8.87-14.17 10.87-1.94.64-3.87 1.19-5.69 1.71-.73 4.95-2.04 7.11-3.44 7.81-2.1 1.06-4.39-1.13-5.19-2.06-1.05-1.22-1.13-1.62-1.67-7.99-.14-1.67-.31-3.76-.55-6.37 0 0-.1.09-.29.24l-.26-1.55c15.45-2.58 26.32-5.39 26.32-5.39 1.46.98 3.13 1.95 4.93 2.73ZM90.04 91.42s-6.81 6.48-8.09 9.78c-.11-4.28-.51-9.38-1.68-12.87 4.47-.42 7.26 1.9 9.77 3.09Z"/><path class="cls-4" d="M73.5 138.72c-1.18 2.44-1.64 2.82-5.9 3.49-1.06.17-2.37.35-3.98.6l-.03-.25c1.39-.7 2.71-2.86 3.44-7.81 1.82-.53 3.75-1.07 5.69-1.71.23 2.2.49 4.08.79 5.69Z"/><path class="cls-2" d="M63.62 142.8c1.61-.24 2.92-.42 3.98-.6s4.03 6.34 7.83 7.17c-3.38-.39-6.36-.81-8.74-1.26-14.03-2.65-19.34-7.29-26.74-12.71.89-.33 1.75-.68 2.57-1.03 3.95.36 11.45 2.85 14.22-1.88.54 6.37.62 6.77 1.67 7.99.8.93 3.08 3.13 5.19 2.06l.03.25Z"/><path class="cls-4" d="M56.18 126.13c.23 2.61.41 4.7.55 6.37-2.77 4.73-10.27 2.24-14.22 1.88 7.36-3.16 12.2-7.01 13.38-8.01.19-.16.29-.24.29-.24Z"/><path class="cls-1" d="m55.64 124.82.26 1.55c-1.19 1-6.03 4.85-13.38 8.01-.82.35-1.68.7-2.57 1.03-2.87.23-12.6-1.99-14.03-3.98-.41-.55-.7-1.6-.92-2.9 10.93-.75 21.58-2.18 30.65-3.71Z"/><path class="cls-2" d="m53 92.07-.42 1.54c-.12 0-1.35 1.12-3.12 2.78-7.03-.1-11.77 9.18-13.25 12.71-.66.63-1.2 1.15-1.61 1.54-3.54 3.32-5.01 2.59-5.75-1.54-.74-4.12 4.63-16.21 20.37-17.68v-.03c1.22.18 2.48.42 3.77.68Z"/><path class="cls-4" d="M36.21 109.1c1.48-3.53 6.22-12.81 13.25-12.71-3.73 3.51-9.87 9.47-13.25 12.71Z"/><path class="cls-11" d="M110.64 49.28c-2.68 1.52-5.26 2.28-7.64 2.53-.94.1-1.84.14-2.7.12-1.88-.03-3.55-.33-5.06-.83-2.03-.68-3.79-1.72-5.38-3-.85-.68-1.63-1.78-2.33-3.16-1.82-3.53-3.08-8.83-3.53-13.06a29.29 29.29 0 0 1-.18-3.08c0-5.75 1.18-12.53 4.42-15.18 3.04-2.48 10.54-5.85 17.97-3.24.39.13.78.29 1.17.46.1.03.2.09.3.13 1.92.88 9.23 7.84 11.35 15.32 1.06 3.75 1.11 7.65.62 11.31-1.03 7.68-4.39 14.25-5.49 15.96-1.62 2.5-6.04 8.84-6.04 8.84l-5.13-10.59M119.84 14.61c-2.08-5.5-5.61-10.37-11.12-14.11-2.07 4.72-2.51 9.87-2.51 9.87"/><path class="cls-11" d="M100.3 52.12c-.48 3.63.42 13.47 1.65 18.31.28 1.13.58 1.98.88 2.42 1.62 2.36 5 7.23 5 7.23 2.87-6 11.68-24.08 13.96-42.22.44-3.58.64-7.17.48-10.67-.18-4.4-.94-8.65-2.42-12.58M108.13 62.39l-6.18 8.04M216.74 73.46c-.45-.3-1.01-.51-1.77-.61-1.32 0-3.69.3-3.69.3-2.65-4.28-3.97-7.23-5.74-7.52-4.42 1.48-9.58 2.22-9.58 2.22-1.47-2.66-4.27-3.1-5.45-2.66-1.32.44-8.69.88-8.69.88l-5.58-1.39-.61 5.51s-6.19-2.35-7.22-7.07-6.45-15.91-11.19-21.89c-2.73-3.43-7.93-5.9-13.21-7.6-1.86-.6-3.72-1.1-5.5-1.51-1.96-.46-3.8-.81-5.39-1.06-5.31-7.62-9.07-14.58-13.26-16.47h0M181.12 146.31c3.29-1.58 6.03-3.06 6.03-3.06 14.81-.77 23.65-1.88 37.91-12.81.55-1.19.89-2.4 1.1-3.55.62-3.43 0-6.29 0-6.29s3.54-1.44 3.54-2.42-.67-8.51-.67-8.51c3.65-4.21 8.95-13.93 9.18-17.13s-1.14-3.76-1.14-3.76l-4.94-.4-.51-.04c-.88-5.6-.59-7.37-3.97-7.51-3.39-.15-6.34-.74-6.34-.74-2.68-3.02-2.87-5.49-4.57-6.61M152.65 151.26c9.07-.35 17.24-.79 19.37-1.26 2.19-.48 5.9-2.14 9.1-3.69M76.19 149.46c12.79 1.43 30.7 2.39 42.21 2.62 3.38.07 6.2.08 8.18.02 5.55-.17 16.33-.47 26.05-.84M75.55 149.39c.2.03.41.04.61.07M95.24 51.09c-9.04 4.82-25.12 16.67-28.22 21.54-3.1 4.87-10.84 20.11-10.84 20.11-1.1-.24-2.16-.47-3.19-.68-1.3-.27-2.55-.5-3.77-.68-5.77-.85-10.81-.54-16.8 3.02-4.31 2.55-7.46 15.9-7.85 22.87-.16 2.87-.14 7.9.42 11.25.22 1.3.51 2.35.92 2.9 1.44 1.99 11.16 4.21 14.03 3.98 7.4 5.42 12.71 10.06 26.74 12.71 2.38.45 5.37.87 8.74 1.26M133.12 31.08c-.66 6.39-3.35 19.57-6.3 31.25-2.66 10.54-5.52 19.87-7.27 21.83M138.5 32.13v24.96M144 33.64l-2.76 23.85M141.35 64.28h-3.81a.89.89 0 0 1-.89-.88v-5.02c0-.49.4-.89.89-.89h3.7c.49 0 .89.4.89.89v5.02c0 .45-.34.82-.78.87ZM137.99 64.29c-.94 2.46-3.04 12.99-4.55 16.15-.06.12-.11.23-.16.32M137.27 80.41c.03-.09.05-.19.08-.29.82-3.07 3.46-12.73 4-15.83"/><path class="cls-11" d="M147.7 62.39c.44-.59 3.97-13.64 3.97-13.64l4.64 13.64s-3.32-2.58-8.61 16.21M127.06 62.39l4.31 17.69M90.67 59.15s-9.06 26.97-10.39 29.18c4.47-.42 7.26 1.9 9.77 3.09 1.46.71 2.83 1.04 4.38.23 3.27-1.72 4.94-2.3 5.52-2.48l.24-.06M102.83 72.85l1.03 11.65 1.01-1.12 2.97-3.3M156.33 100.6l3.97 6.29s6.63-5.45 7.22-7.37c3.09 1.77 8.69 4.13 10.76 3.69.59-1.55 1.14-3.75 1.54-6.16.41-2.42.67-5.04.67-7.4 0-1.49.21-2.92.42-4.29.29-1.88.61-3.63.45-5.25-.1-.94-.35-1.84-.87-2.7-.55-.92-1.17-1.86-1.76-2.76-1.61-2.42-3.11-4.46-3.11-4.46"/><path class="cls-11" d="M103.86 84.5s-1.52 1.86-3.91 4.67c-2.12 2.51-4.93 5.78-7.95 9.17-1.66 1.87-3.39 3.77-5.12 5.61-1.71 1.83-3.41 3.59-5 5.17-.55.54-1.08 1.05-1.6 1.53-1.65 1.57-3.16 2.87-4.42 3.77 0 0 2.42 2.56 6.09 5.02 1.46.99 3.13 1.96 4.93 2.74 2.79 1.23 5.89 2 9.02 1.68 1.7-.17 3.51-.41 5.35-.68 6.66-1.02 13.83-2.73 18.48-4.85.61-.28 1.16-.55 1.67-.85.98-.55 1.77-1.13 2.35-1.72 1.21-1.26 2.12-2.81 3.02-4.32 1.95-3.27 3.88-6.44 8.86-6.44 1.3-.88 2.55-1.73 3.75-2.55 7.41-5.04 12.63-8.65 12.63-8.65l4.3 6.82M104.87 83.38c4.33 1.02 9.9 1.59 14.67.79 1.12-.18 2.18-.44 3.19-.79 3-1.04 5.54-2.01 8.76-2.62.62-.12 1.27-.23 1.96-.32 1.19-.16 2.48-.27 3.9-.32 1-.04 2.06-.05 3.2-.03.66.12 1.39.25 2.16.38 1.15.19 2.42.39 3.73.57 1.47.21 3 .39 4.53.52 2.91.25 5.79.32 8.16 0 5.45-.74 17.25-4.93 19.6-6.88M146.44 81.03l5.58 12.75"/><path class="cls-11" d="m150.97 81.55 2.94 4.46 7.14 10.86.13.19"/><path class="cls-11" d="M156.32 100.6h0c.11-.07 2.42-1.43 4.73-3.73 1.45-1.46 2.91-3.31 3.82-5.45l3.97 1.03-1.32 7.07M168.85 92.45l3.24-2.35 6.19 13.11"/><path class="cls-11" d="m153.91 86.01 2.82 1.39 8.14 4.02M156.73 87.4c6.34-.97 22.72-5.06 24.63-7.28l.04-.04M100.19 89.1s3.42.37 8.54.4c2.29.03 4.92-.03 7.73-.22 8.37-.55 18.38-2.28 25.95-6.87.07-.03.14-.08.21-.12"/><path class="cls-11" d="m142.61 81.03-.2 1.38-.67 4.42-2.36 15.6M108.73 89.51s-2.35 5.61-4.94 11.68c-.81 1.86-1.63 3.77-2.42 5.58-2.13 4.89-3.97 9-4.32 9.35"/><path class="cls-11" d="M80.28 110.64c5.25 2.43 11.29 4.47 16.77 5.48 2.81.52 5.48.77 7.82.68l.47-.03c1.35-.09 2.78-.11 4.21-.1 5.93.05 11.86.79 11.86.79"/><path class="cls-11" d="M104.87 116.8s2.19-4.4 4.68-9.75c1-2.14 2.03-4.43 3-6.67 1.96-4.52 3.61-8.76 3.93-10.87"/><path class="cls-11" d="M112.55 100.38c8.38-1.58 21.61-7.41 27.16-11.65.89-.68 1.59-1.32 2.03-1.9M86.88 103.94s9.93 3.47 14.48 2.83M91.99 98.33h0c.21.1 7.26 3.15 11.77 2.86M135.27 93.97c2.58-2.77 4.28-5 4.44-5.23l.02-.02M109.54 107.05c1.64.09 4.76-.44 8.22-1.52 3.92-1.22 8.29-3.17 11.43-5.76 2.28-1.87 4.36-3.94 6.07-5.77"/><path class="cls-11" d="m135.27 93.97-.02.03c-.38.61-6.58 10.29-15.52 17.11-.71.55-1.45 1.07-2.2 1.57-2.5 1.69-5.19 3.1-7.99 4"/><path class="cls-11" d="m117.76 105.53-.23 7.14v.01M80.28 88.33c1.17 3.5 1.57 8.6 1.68 12.87.11 4.39-.09 7.9-.09 7.9"/><path class="cls-11" d="M81.96 101.21c1.27-3.3 8.09-9.78 8.09-9.78M56.18 92.75s-8.47 10.17-11.57 14.44M49.22 91.42c-15.74 1.47-21.11 13.56-20.37 17.68.74 4.13 2.21 4.87 5.75 1.54.41-.39.95-.91 1.61-1.54 3.38-3.24 9.51-9.19 13.25-12.71 1.77-1.66 3-2.77 3.12-2.78l.42-1.54"/><path class="cls-11" d="M36.21 109.1c1.48-3.53 6.22-12.81 13.25-12.71M81.96 119.44s-10.87 2.81-26.32 5.39c-9.06 1.52-19.71 2.95-30.65 3.71M39.94 135.41c.89-.33 1.75-.68 2.57-1.03 7.36-3.16 12.2-7.01 13.38-8.01.19-.16.29-.24.29-.24.23 2.61.41 4.7.55 6.37.54 6.37.62 6.77 1.67 7.99.8.93 3.08 3.13 5.19 2.06 1.39-.7 2.71-2.86 3.44-7.81 1.82-.53 3.75-1.07 5.69-1.71 6.07-1.99 12.11-4.85 14.17-10.86"/><path class="cls-11" d="M73.5 138.72c-.29-1.61-.55-3.49-.79-5.69M80.28 145.34c-2.72 2.71-5.15 2.48-6.78-6.61M101.37 123.91s-5.9 8.85-14.48 12.61c-2.19 2.82-4.48 6.7-6.59 8.82M63.41 142.84c.07 0 .14-.02.21-.03 1.61-.24 2.92-.42 3.98-.6 4.25-.67 4.72-1.05 5.9-3.48h0M80.3 145.34c5.67 1.49 11.7 3.01 13.83 2.99M80.28 145.34h.01M80.29 145.34h.01"/><path class="cls-11" d="M96.63 147.77c-.89.51-1.72.68-2.51.56-2.84-.4-4.87-4.41-5-8.72-1.77 3.96-4.86 5.08-8.83 5.73M126.88 128.53l-.03.26c-.29 2.09-2.12 5.92-4.93 10.04-1.81 2.68-4.03 5.5-6.5 8.03-1.63 1.67-2.87 2.31-3.82 2.29h-.02c-2.81-.1-3.2-5.94-3.76-8.36-.35-1.52-1.33-2.35-2.49-2.36-1.34-.02-2.91 1.05-3.97 3.4-1.61 3.21-3.22 5.08-4.73 5.95"/><path class="cls-11" d="M105.33 138.42h0c.44-.4 14.38-13.02 14.39-20.11h0M121.93 138.83c1.53.48 3.3 9.24 5.21 10.31 1.85 1.05 7.95 1.64 9.96-3.18.06-.15.12-.3.17-.46-3.28-4.97-7.75-11.83-10.42-16.72-1.14-2.08-1.96-3.8-2.22-4.87-.88-3.61 2.42-12.48 2.42-12.48h-.28l-7.05-.32M135.64 104.98c5.21.74 9 2.03 13.59 5.66 1.57 1.24 5.34 3.09 10.16 4.92 9.28 3.51 22.44 6.94 31.26 5.77"/><path class="cls-11" d="M159.39 115.55c5.77-1.14 21.69-5.51 27.14-8.7 1.03-.61 2.45-1.03 4.12-1.29 7.12-1.12 18.72.68 23.73 3.54 6.19 3.54 11.78 11.5 11.78 11.5M137.85 146.08c2.22-.42 9.83-4.68 15.48-9.19 2.79-2.22 5.1-4.49 6.06-6.41-8.29 1.64-29-13.82-29-13.82M137.84 146.08c-.37-.03-.57-.04-.57-.04.09.09.29.1.57.04M137.84 146.08h.01"/><path class="cls-11" d="M226.17 126.89c-6.03-2.31-19.3 3.63-28.88 8.49-7.64 3.88-12.93 9.5-23.67 9.06-2.72-.1-5.78-.6-9.33-1.61-6.88 4.37-23.16 3.47-26.43 3.24"/><path class="cls-11" d="M159.39 130.48c2.21 1.02 4.39 6.3 3.76 10.29l1.13 2.06M153.33 136.89l9.82 3.89M96.63 147.77h0c3.03.55 9.88 3.1 14.95 1.38M111.59 149.34c1.86.51 4.19 1.1 6.83 1.24s5.59-.17 8.72-1.44M42.51 134.38c3.95.36 11.45 2.85 14.22-1.88M180.91 85.37c2.27 3.8 4.72 6.6 6.54 9.17 1.23 1.75 2.18 3.39 2.58 5.18 1 4.42.62 5.84.62 5.84M222.45 101.54c2.43 1.97 4.7 4.59 6.59 8.12"/><path class="cls-11" d="M179.82 97.06s7.66 4.64 10.21 2.66c.87-1.02 2.51-2.14 4.55-3.06 2.83-1.28 6.44-2.22 9.85-2.1 1.05.03 2.07.16 3.06.41 1.61.42 3.39.87 5.26 1.47 3.18 1.04 6.57 2.55 9.71 5.1M181.81 66.07c3.58 11.97 6.92 14.34 5.64 28.47"/><path class="cls-11" d="M190.51 65.19c2.95 9.99 8.41 17.9 4.08 31.46M205.55 65.63l-3.02 9.77c1.44-.1 2.01.14 2.87.09.99-.06 2.36-.52 5.9-2.33"/><path class="cls-11" d="M205.39 75.49s1.29 17.07-.95 19.05M216.74 73.46h0c-2.5 5.26-3.06 8.09-3.06 8.09s.63.09 1.55.11c1.87.07 4.89-.08 6.08-1.58M215.23 81.68s-1.32 13.45-2.48 14.75M222.45 101.54v-.01l3.02-12.02 2.18-8.69M225.47 89.51s3.24.56 6.67-1.13M67.6 142.22s4.03 6.33 7.83 7.16c.04 0 .09.02.12.02.21.04.42.06.61.07h.03M152.64 151.26h0c5.89-3.4 8.68-5.39 13.55-5.42 2.22-.02 4.86.03 7.37.1 2.99.1 5.8.23 7.55.37h0M92.44 26.8s5.47-2.35 7.75-2.29M88.98 27.47l-4.49-1.81M90.23 30.34s-.03.92-.05 2.23c-.07 3.19-.15 8.68.05 8.89.29.29.87 1.4 2.21 0M96.31 37.34c.69.67.92 1.26.77 1.92M93.39 44.61l5.01-1.3s0 1.54-.81 2.87M95.24 32.13s4.13-1.35 5.38-1.79M88.31 32.63l-3.82-.82M111.67 27.98c1.26-2.13 4.33-3.84 5.45-2.65 2.94 3.13 1.24 13.79-3.08 10.92"/><path class="cls-11" d="M115.13 28.59s1.68 3.69.52 5.05M114.27 31.81s-.72.97-.39 1.83M122.27 27.19C117.9 9 109.43 3.3 109.43 3.3c-.8 1.5-1.43 3.88-2.03 7.52M100.17 40.29c1.23 1.73 2.87 3.27 4.7 3.83M89.34 42.16s.55 1.11-1.44 2.59"/></svg>