<?xml version="1.0" encoding="UTF-8"?>
<svg id="_レイヤー_1" data-name="レイヤー 1" xmlns="http://www.w3.org/2000/svg" viewBox="0 0 264.37 192.02">
  <defs>
    <style>
      .cls-1 {
        stroke: #000;
        stroke-linecap: round;
        stroke-linejoin: round;
      }

      .cls-1, .cls-2 {
        fill: none;
      }

      .cls-3 {
        fill: #333;
      }

      .cls-3, .cls-4, .cls-5, .cls-6, .cls-7 {
        stroke-width: 0px;
      }

      .cls-2 {
        stroke: #333;
        stroke-miterlimit: 10;
      }

      .cls-4 {
        fill: #e47763;
      }

      .cls-5 {
        fill: #fcecca;
      }

      .cls-6 {
        fill: #fbebd2;
      }

      .cls-7 {
        fill: #f0ca4f;
      }
    </style>
  </defs>
  <g>
    <path class="cls-6" d="m198.6,170.38l.11.06c-3.19,5.53-8.94,13.31-9.18,13.64h0c-3.96,3.15-7.27,7.45-7.27,7.45-4.04-1.08-8.61-2.26-13.3-3.75-5.9-1.87-12-4.22-17.46-7.43h4s24.31,6.21,25.79,5.96c5.2-7.93,13.59-15.74,17.33-15.93Z"/>
    <path class="cls-4" d="m227.68,103.58c1.17,0,2.38-.1,3.55-.23,1.55-.17,3.07-.45,4.44-.74,3.39-.74,5.87-1.6,5.87-1.6l2.82,1.46s1.32,13.72,19.5,9.09c-2.65,11.57-13.65,28.73-20.21,34.11-5.12-6.44-10.84-13.51-13.17-15.91-.94-.97-2.13-1.68-3.43-2.2-5.07-2.04-11.77-1.13-11.77-1.13l-.66-12.22c-.66-12.23-6.48-10.62-6.48-10.62,0,0-2.32-2.32-6.78-5.84.89-.5,1.95-.85,2.92-1.27,2.67-1.14,4.63-2.76.26-9.26l-5.95-8.86h29.27s4.13,4.28,5.76,7.53c0,0-3.94,1.25-9.2,3.7-3.15,1.45-6.77,3.33-10.29,5.62-9.42,6.12,6.94,8.43,13.55,8.39Z"/>
    <path class="cls-6" d="m61.99,149.04c1.84,2.24,4.1,4.4,4.1,4.4-4.85.15-9.93-.02-14.38-.41-2.49-.22-4.92-.28-7.26-.25-8.19.11-15.38,1.41-21.15,1.41-7.44,0-15.2.99-22.8,5.29,0,0,.48-2.27,1.44-5.49,6.59-2.85,21.1-5.29,27.48-4.94,6.38.35,24.59,0,24.59,0h7.99Z"/>
    <path class="cls-7" d="m86.27,98.82c.81.37,1.68.77,2.62,1.21,1.37.63,2.9,1.37,4.63,2.26,2.65,1.37,4.55,2.92,5.88,4.63,4,5.11,2.91,11.61,1.55,18.67-.9,4.67-3.76,10.02-7.08,14.62-2.18,3.01-4.56,5.69-6.74,7.65-5.47,2.06-22.46-5.25-26.67-7.23-.75-.35-1.28-.47-1.65-.4,0,0-.02,0-.03,0-.12.02-.22.07-.3.14-1.08.82.67,4.54,1.98,6.61.42.65.95,1.35,1.52,2.05h-7.99s-18.21.35-24.59,0c-6.38-.35-20.89,2.09-27.48,4.94,1.31-4.38,3.52-10.5,6.66-15.16,5.45-8.1,15.53-17.02,19.49-18.17.62-.18,1.33-.34,2.11-.48.99-.18,2.11-.34,3.35-.49,1.44-.18,3.03-.35,4.79-.56,0,0,16.15-18.68,30.29-30.95,4.37-3.8,10.01-7.56,15.72-10.94.94-.56,1.89-1.12,2.83-1.65,0,0-1.38,11.33-.89,23.24Z"/>
    <path class="cls-4" d="m47.76,156.76c-1.55-1.99-2.77-3.51-3.31-3.99,2.34-.03,4.77.03,7.26.25,4.45.39,9.52.55,14.38.41.42-.02.83-.03,1.25-.05l.03.59s-.88,9.78-3.76,15.53c-.53,1.07-1.14,1.99-1.82,2.69-.54-.08-1.3-.56-2.18-1.34-3.28-2.86-8.42-9.66-11.85-14.09Z"/>
    <path class="cls-7" d="m197.61,165.91c.93-.07,2.01-.18,3.2-.33,0,.9-.86,2.72-2.11,4.86l-.11-.06c-3.74.18-12.12,8-17.33,15.93-1.49.25-25.79-5.96-25.79-5.96h-4c-4.24-2.48-8.11-5.47-11.2-9.17l-.02-.07c5.31-1.41,10.44-3.14,15.22-5.2l.35-.22c.69,1.06,1.25,1.85,1.63,2.29,2.28,2.64,5.74,3.53,8.5,2.41.52,0,11.11-.32,18.18-7.13.06-.05.12-.11.17-.17,1.97,1.84,4.85,3.12,10.88,2.95.75-.02,1.55-.06,2.41-.13Z"/>
    <path class="cls-7" d="m145.1,147.38c3.21,5.79,6.61,11.7,9.12,15.76-38.39,9.06-60.42,9.05-90.6,6.37,2.87-5.75,3.76-15.53,3.76-15.53l-.03-.59c1.73-.07,3.42-.18,5.03-.34l.04.39c3.92,2.56,12.03,5.04,25.57,4.05,13.55-.99,31.23-3.17,37.84-8.45,5.63,0,7.27-.15,7.27-.15l2.01-1.51Z"/>
    <path class="cls-4" d="m60.47,140.63c4.21,1.98,21.2,9.29,26.67,7.23-1.21,1.09-2.36,1.95-3.38,2.51-2.4,1.34-6.55,2.2-11.4,2.67-1.61.16-3.3.27-5.03.34-.42.02-.83.03-1.25.05,0,0-2.25-2.15-4.1-4.4-.57-.7-1.11-1.4-1.52-2.05-1.31-2.07-3.06-5.8-1.98-6.61.1-.04.19-.09.3-.14,0,0,.02,0,.03,0,.37-.07.9.05,1.65.4Z"/>
    <path class="cls-7" d="m165.97,170.38c-2.77,1.13-6.22.23-8.5-2.41-.38-.44-.94-1.23-1.63-2.29-.49-.73-1.02-1.58-1.61-2.54-2.51-4.07-5.91-9.98-9.12-15.76-4.18-7.56-8.06-14.9-9.15-17.63,4.61-3.43,10.66-3.81,15.58-3.29,3.34.35,6.17,1.11,7.68,1.61,3.72,1.24,22.31,2.98,30.97,2.98,4.33,0,12-.68,19.34-1.4,7.35-.71,14.37-1.46,17.35-1.58l.2-.52c1.3.52,2.48,1.23,3.43,2.2,2.33,2.4,8.06,9.47,13.17,15.91,1.27,1.6,2.49,3.15,3.63,4.59-14.62.86-40.58,10.38-52.13,14.74l.04,1.04c-6.03.17-8.91-1.11-10.88-2.95-1.14-1.07-1.97-2.33-2.92-3.61-2.42-3.25-2.44-4.33-3.16-3.8-.13.09-.26.22-.45.41-.63.62-2.2,2.64-3.95,4.99-1.72,2.31-3.6,4.94-4.93,6.9-.78,1.16-1.81,1.95-2.94,2.41Z"/>
    <path class="cls-4" d="m235.67,102.6c-1.75-1.16-.08-7.61,0-7.9.9,2.3,2.34,4.48,4.41,5.55.56.29,1.05.54,1.47.76,0,0-2.48.86-5.87,1.6h0Z"/>
    <path class="cls-4" d="m212.78,163.68l.19,1.09c-.61,2.11-4.51,7.57-9.43,12.84-1.07.26-.98.36-.98.36-5.37,2.27-12.82,6-13.05,6.11.24-.33,5.99-8.11,9.18-13.64,1.24-2.15,2.1-3.96,2.11-4.86,3.27-.4,7.44-1.06,11.97-1.89Z"/>
    <path class="cls-4" d="m235.67,102.6h0c-1.37.3-2.88.57-4.44.75.75-4.9-4.05-9.8-6.81-13.76h0c5.26-2.46,9.2-3.71,9.2-3.71.42.82.67,1.56.67,2.16,0,.35.02.76.06,1.2.15,1.53.55,3.53,1.32,5.45h0c-.08.3-1.75,6.76,0,7.91Z"/>
    <path class="cls-4" d="m151.48,180.35c5.47,3.2,11.56,5.55,17.46,7.43l-.04.14c-15.08.96-44.49-3.16-47.8-3.49-4.79-.33-7.38-8.12-7.38-8.12l-.05-.5c8.84-.86,17.95-2.37,26.58-4.68l.02.07c3.1,3.7,6.96,6.7,11.2,9.17Z"/>
    <path class="cls-6" d="m222.68,161.72c-3.36.71-6.72,1.38-9.9,1.96-4.53.83-8.7,1.49-11.97,1.89-1.19.15-2.27.26-3.2.33-.85.07-1.66.11-2.41.13l-.04-1.04c11.55-4.37,37.51-13.88,52.13-14.74.9,1.16,1.75,2.23,2.49,3.18-3.2,2.47-15.1,5.71-27.1,8.29Z"/>
    <path class="cls-6" d="m87.27,176.66c-13.29-.45-23.19-2.29-25.47-4.47.68-.7,1.28-1.62,1.82-2.69,30.19,2.68,52.21,2.69,90.6-6.37.59.96,1.13,1.82,1.61,2.54l-.35.22c-4.78,2.07-9.91,3.8-15.22,5.2-8.63,2.31-17.73,3.81-26.58,4.68-9.41.93-18.51,1.15-26.41.87Z"/>
    <path class="cls-6" d="m54,80.46v.04c-7.55,3.01-10.21,9.31-10.34,9.61-.61-1.3-1.26-2.75-1.94-4.31-.92-2.1-1.64-3.15-2.36-3.25h0c4.47-2.55,11.89-1.92,14.64-2.09Z"/>
    <path class="cls-6" d="m229.99,69.75c5.79,4.8,8.07,8.59,4.37,19.49h0c-.04-.45-.06-.85-.06-1.2,0-.6-.25-1.35-.67-2.16-1.63-3.25-5.76-7.53-5.76-7.53-.71-2.86,0-5.73,2.13-8.59Z"/>
    <path class="cls-4" d="m231.23,103.35c-1.17.14-2.38.22-3.55.23-6.61.04-22.97-2.27-13.55-8.39,3.52-2.29,7.14-4.17,10.29-5.62h0c2.77,3.97,7.56,8.87,6.81,13.77Z"/>
    <path class="cls-3" d="m111.42,19.58c1.86-4.15,3.29-10.97,3.29-12.09s-3.29-2.84-3.29-2.84l3.72-4.15,11.1,8.92s1.8-2.97,2.66-3.41c.87-.44,3.99-1.61,6.12.31,2.13,1.92,11.55,15.84,12.54,23.61s1.49,24.78,1.49,24.78h-2.82s-.17-18.17-2.15-25.61c-1.98-7.44-5.51-11.01-5.51-11.01l-.7.02-.06-2.2c.36,0,.52-.46.24-.69l-6.28-5.04c-.3-.24-.75-.14-.9.22l-1.77,4.66c-.18.43.13.9.58.9l2.05-.02.02,2.33c.21.28.07,1.66.31,1.98,5.41,7,11.15,28.63,9.76,36.51-1.84-1.26-7.3-5.1-8.8-7.02,1.98-2.48,2.41-3.92,2.51-6.73.09-2.15-5.33-.2-6.77,4.09-1.27-1.16-3.02-8.43-5-18.83,0,0-10.42,2.48-15.37,1.65,3.3-6.12,12.55-11.41,12.55-11.41h-3.81v-1.49h4.21v-1.8l-4.99-4.16c-1.49,7.33-4.99,20.5-20.04,17.2.06-.64.24-1.57.24-1.57,0,0,4.06,1.36,7.22-.06,3.15-1.43,6.25-3.94,7.65-7.07Z"/>
    <path class="cls-4" d="m222.68,161.72c1.42,2.91,0,6.19,0,6.19-2.58-.66-5.18-.83-9.71-3.15l-.19-1.09c3.18-.58,6.54-1.25,9.9-1.96Z"/>
    <polygon class="cls-3" points="137.81 15.91 137.86 18.12 131.75 18.28 131.73 15.95 137.81 15.91"/>
    <path class="cls-4" d="m181.4,159.47c.95,1.28,1.79,2.54,2.92,3.61-.06.06-.12.12-.17.17l-.17-.17c-1.49.31-10.14-2-10.14-2,1.75-2.35,3.32-4.37,3.95-4.99.18-.18.32-.32.45-.41.73-.53.75.54,3.16,3.8Z"/>
    <path class="cls-5" d="m105.42,37.6c.93-3.09,2.08-5.74,2.97-7.67,4.95.83,15.37-1.65,15.37-1.65,1.98,10.41,3.73,17.68,5,18.83,1.44-4.29,6.85-6.23,6.77-4.09-.11,2.81-.53,4.25-2.51,6.73,1.5,1.92,6.96,5.76,8.8,7.02.39.26.61.42.61.42,0,0,1.65.72,3.81,1.63v.03s-4.47,5.28-10.42,10.08c-12.22,10.41-22.97-.66-25.69-4.92-7.98-8.24-7.04-18.66-4.7-26.4Zm11.82,23.15c.22-.21.08-.58-.23-.58h-2.79c-.36,0-.52.44-.26.67l1.28,1.16c.17.16.44.16.61,0l1.39-1.24Z"/>
    <path class="cls-6" d="m208.14,69.75h21.85c-2.13,2.86-2.83,5.73-2.13,8.59h-29.27c1.16-6.61,6.53-8.59,9.54-8.59Z"/>
    <path class="cls-4" d="m47.07,96.98c.92-.65,1.85-1.24,2.78-1.79,1.89-4.93,3.36-10.74,4.25-14.74.65-2.91,1-4.87,1-4.87,3.39-2.53,24.22-8.67,29.23,1.65-5.71,3.38-11.35,7.14-15.72,10.94-14.13,12.27-30.29,30.95-30.29,30.95-1.76.21-3.35.38-4.79.56-1.88-7.65,5.47-17.06,13.53-22.7Z"/>
    <path class="cls-4" d="m54.01,80.5s.06-.03.09-.04c-.89,4-2.36,9.8-4.25,14.74-.92.54-1.85,1.14-2.78,1.79-.45-.83-1.75-3.32-3.41-6.86h0c.13-.31,2.79-6.61,10.35-9.62Z"/>
    <path class="cls-4" d="m43.67,90.11c1.66,3.54,2.96,6.03,3.41,6.86-8.06,5.65-15.41,15.06-13.53,22.7-1.24.15-2.36.3-3.35.49,0,0-2.84-13,2.36-24.98,3.61-8.31,5.19-12.9,6.81-12.65.72.11,1.44,1.16,2.36,3.25.68,1.56,1.33,3.01,1.94,4.31h0Z"/>
    <path class="cls-4" d="m59.62,170.86c-7.02,1.27-16.78-4.57-19.53-8.58,4.17-2.03,6.84-4.63,7.68-5.51,3.44,4.44,8.57,11.23,11.85,14.09Z"/>
    <path class="cls-4" d="m44.45,152.77c.54.48,1.76,2,3.31,3.99-.83.88-3.5,3.48-7.68,5.51-2.64,1.29-5.88,2.34-9.64,2.6-11.03.75-25.4-2.11-29.95-5.41,7.6-4.3,15.37-5.29,22.8-5.29,5.78,0,12.96-1.3,21.15-1.41Z"/>
    <path class="cls-4" d="m113.73,176.29s2.59,7.79,7.38,8.12c-20.3,0-23.3-1.61-33.84-7.76,7.9.27,17.01.06,26.41-.87l.05.5Z"/>
    <path class="cls-4" d="m183.98,163.07l.17.17c-7.07,6.81-17.66,7.12-18.18,7.13,1.14-.46,2.16-1.25,2.94-2.41,1.33-1.96,3.21-4.59,4.93-6.9,0,0,8.66,2.31,10.14,2Z"/>
    <path class="cls-4" d="m222.68,167.92c.17.05.36.1.53.15-3.96,5.28-6.45,7.45-11.94,8.23-4.5.64-6.68,1.07-7.73,1.32,4.91-5.27,8.81-10.74,9.43-12.84,4.52,2.31,7.12,2.48,9.71,3.15Z"/>
    <path class="cls-4" d="m249.78,153.43c2.02,2.57,3.34,4.27,3.34,4.27-12.88,5.73-17.35,9.7-22.97,10.36-5.61.66-6.94,0-6.94,0-.17-.05-.36-.1-.53-.15,0,0,1.42-3.28,0-6.19,12-2.58,23.9-5.82,27.1-8.29Z"/>
    <path class="cls-7" d="m227.06,127.54l-.2.52c-2.98.13-10,.87-17.35,1.58,1.72-3.53-1.37-26.07-1.37-26.07,0,0,5.82-1.61,6.48,10.62l.66,12.22s6.71-.91,11.77,1.13Z"/>
    <path class="cls-7" d="m204.29,96.46c-.97.42-2.03.78-2.92,1.27-.56-.45-1.16-.91-1.78-1.39-9.02-3.69-17.83-13.61-23.6-20.76,4.6.12,15.93-2.2,16.87,1.93.95,4.14-.06,12.44,11.43,18.95Z"/>
    <path class="cls-7" d="m87.14,147.86c2.17-1.96,4.55-4.64,6.74-7.65,5.91,3.22,11.86,8.35,28.55,8.68,5.94.12,10.28.16,13.39.15-6.61,5.27-24.29,7.45-37.84,8.45-13.54.99-21.65-1.49-25.57-4.05l-.04-.39c4.84-.47,9-1.33,11.4-2.67,1.02-.56,2.16-1.43,3.38-2.51Z"/>
    <path class="cls-7" d="m99.4,106.93c-1.33-1.71-3.23-3.26-5.88-4.63-1.73-.89-3.26-1.63-4.63-2.26,3.31-7.98,15.7-26.49,21.23-28.47l.2-.17c1.61,1.93,4.03,4.47,6.33,5.62,3.96,1.98,11.76,2.81,18.36-.66,2.21-1.17,4.53-2.86,6.63-4.6.79,3.45-.2,9.06-2.35,11.71-2.15,2.64-9.26,15.2-9.76,21.14-.5,5.95-3.33,20.99,6.18,24.13l.22,1.01c1.1,2.73,4.97,10.07,9.15,17.63l-2.01,1.51s-1.64.14-7.27.15c-3.11,0-7.45-.03-13.39-.15-16.69-.33-22.64-5.46-28.55-8.68,3.32-4.6,6.17-9.95,7.08-14.62,1.36-7.06,2.45-13.56-1.55-18.67Z"/>
    <path class="cls-7" d="m141.64,71.76c-2.1,1.74-4.42,3.43-6.63,4.6-6.59,3.47-14.4,2.64-18.36.66-2.3-1.15-4.72-3.69-6.33-5.62l-.2.17c-5.53,1.98-17.92,20.49-21.23,28.47-.94-.45-1.82-.84-2.62-1.21-.49-11.91.89-23.24.89-23.24,11.76-6.72,22.96-11.58,22.96-11.58,2.73,4.26,13.47,15.33,25.69,4.92,5.95-4.8,10.41-10.08,10.41-10.08v-.03c2.1.88,4.66,1.94,6.61,2.67,3.97,1.49,14.21,3.63,17.03,6.45.96.95,3.14,3.93,6.13,7.65,5.77,7.15,14.58,17.07,23.6,20.76.62.48,1.21.94,1.78,1.39,4.46,3.52,6.78,5.84,6.78,5.84,0,0,3.09,22.54,1.37,26.07-7.34.72-15.01,1.4-19.34,1.4-8.67,0-27.26-1.74-30.97-2.98-1.5-.5-4.34-1.26-7.68-1.61-4.92-.51-10.97-.14-15.58,3.29l-.22-1.01c-9.51-3.15-6.68-18.18-6.18-24.13.5-5.94,7.6-18.5,9.76-21.14,2.15-2.65,3.14-8.26,2.35-11.71Z"/>
  </g>
  <g>
    <path class="cls-1" d="m38.33,119.12s16.15-18.68,30.29-30.95c4.37-3.8,10.01-7.56,15.72-10.94.94-.56,1.89-1.12,2.83-1.65,11.76-6.72,22.96-11.58,22.96-11.58,2.73,4.26,13.47,15.33,25.69,4.92,5.95-4.8,10.41-10.08,10.41-10.08"/>
    <path class="cls-1" d="m74.55,89.24c3.75,5.76,6.46,7.16,11.72,9.58.81.37,1.68.77,2.62,1.21,1.37.63,2.9,1.37,4.63,2.26,2.65,1.37,4.55,2.92,5.88,4.63,4,5.11,2.91,11.61,1.55,18.67-.9,4.67-3.76,10.02-7.08,14.62-2.18,3.01-4.56,5.69-6.74,7.65-1.21,1.09-2.36,1.95-3.38,2.51-2.4,1.34-6.55,2.2-11.4,2.67-1.61.16-3.3.27-5.03.34-.42.02-.83.03-1.25.05-4.85.15-9.93-.02-14.38-.41-2.49-.22-4.92-.28-7.26-.25-8.19.11-15.38,1.41-21.15,1.41-7.44,0-15.2.99-22.8,5.29,0,0,.48-2.27,1.44-5.49,1.31-4.38,3.52-10.5,6.66-15.16,5.45-8.1,15.53-17.02,19.49-18.17.62-.18,1.33-.34,2.11-.48.99-.18,2.11-.34,3.35-.49,1.44-.18,3.03-.35,4.79-.56,3.09-.36,6.67-.84,10.75-1.62,12.89-2.48,27.26-2.48,27.26-2.48"/>
    <path class="cls-1" d="m55.92,100.23c1.91,1.41,6.71,7.03,16.12,5.38,9.42-1.66,15.86,1.16,16.85,1.32"/>
    <path class="cls-1" d="m58.79,140.24c-.11.05-.2.1-.3.14"/>
    <path class="cls-1" d="m94.68,119.12c-2.6,1.82-29.12,18.11-35.86,21.11"/>
    <path class="cls-1" d="m66.09,153.43s-2.25-2.15-4.1-4.4c-.57-.7-1.11-1.4-1.52-2.05-1.31-2.07-3.06-5.8-1.98-6.61.08-.07.18-.12.3-.14,0,0,.02,0,.03,0,.37-.07.9.05,1.65.4,4.21,1.98,21.2,9.29,26.67,7.23t.02,0"/>
    <path class="cls-1" d="m93.88,140.21c5.91,3.22,11.86,8.35,28.55,8.68,5.94.12,10.28.16,13.39.15,5.63,0,7.27-.15,7.27-.15"/>
    <path class="cls-1" d="m72.41,153.43c3.92,2.56,12.03,5.04,25.57,4.05,13.55-.99,31.23-3.17,37.84-8.45"/>
    <path class="cls-1" d="m99.4,106.93c.89-5.79,9.65-18.18,15.26-23.46"/>
    <path class="cls-1" d="m88.89,100.04c3.31-7.98,15.7-26.49,21.23-28.47"/>
    <path class="cls-1" d="m87.16,75.58s-1.38,11.33-.89,23.24"/>
    <path class="cls-1" d="m108.39,68.92s.76,1.08,1.93,2.48c1.61,1.93,4.03,4.47,6.33,5.62,3.96,1.98,11.76,2.81,18.36-.66,2.21-1.17,4.53-2.86,6.63-4.6,4.13-3.41,7.4-6.97,7.4-6.97"/>
    <path class="cls-1" d="m168.91,187.91c-15.08.96-44.49-3.16-47.8-3.49-20.3,0-23.3-1.61-33.84-7.76,0,0-.02,0-.03,0"/>
    <path class="cls-1" d="m113.73,176.29s2.59,7.79,7.38,8.12"/>
    <path class="cls-1" d="m141.64,71.76c.79,3.45-.2,9.06-2.35,11.71-2.15,2.64-9.26,15.2-9.76,21.14-.5,5.95-3.33,20.99,6.18,24.13"/>
    <path class="cls-1" d="m149.04,85.8s9.91-12.51,9.91-14.04c1.65,4.6,4.47,11.71,4.47,11.71-8.76,6.12-19.17,16.03-23.13,22.47-3.97,6.44-5.79,14.54-2.98,22.13"/>
    <path class="cls-1" d="m226.86,128.07c-2.98.13-10,.87-17.35,1.58-7.34.72-15.01,1.4-19.34,1.4-8.67,0-27.26-1.74-30.97-2.98-1.5-.5-4.34-1.26-7.68-1.61-4.92-.51-10.97-.14-15.58,3.29,1.1,2.73,4.97,10.07,9.15,17.63,3.21,5.79,6.61,11.7,9.12,15.76.59.96,1.13,1.82,1.61,2.54.69,1.06,1.25,1.85,1.63,2.29,2.28,2.64,5.74,3.53,8.5,2.41,1.14-.46,2.16-1.25,2.94-2.41,1.33-1.96,3.21-4.59,4.93-6.9,1.75-2.35,3.32-4.37,3.95-4.99.18-.18.32-.32.45-.41.73-.53.75.54,3.16,3.8.95,1.28,1.79,2.54,2.92,3.61,1.97,1.84,4.85,3.12,10.88,2.95.75-.02,1.55-.06,2.41-.13.93-.07,2.01-.18,3.2-.33,3.27-.4,7.44-1.06,11.97-1.89,3.18-.58,6.54-1.25,9.9-1.96,12-2.58,23.9-5.82,27.1-8.29"/>
    <path class="cls-1" d="m165.95,170.38h.02c.52,0,11.11-.32,18.18-7.13.06-.05.12-.11.17-.17h0"/>
    <path class="cls-1" d="m147.46,137.08s21.56,18.36,30.77,18.6"/>
    <path class="cls-1" d="m151.52,126.47h0c.74-5.58.49-3.35,7.92-9.67s7.8-7.31,7.8-10.42"/>
    <path class="cls-1" d="m145.56,126.27c-.61-6.75,6.2-17.16,11.65-22.24,5.46-5.09,22.69-15.62,22.69-15.62"/>
    <path class="cls-1" d="m.5,159.47c4.54,3.3,18.92,6.15,29.95,5.41,3.76-.26,7-1.31,9.64-2.6,4.17-2.03,6.84-4.63,7.68-5.51.18-.19.28-.31.28-.31"/>
    <path class="cls-1" d="m44.45,152.77c.54.48,1.76,2,3.31,3.99,3.44,4.44,8.57,11.23,11.85,14.09.88.78,1.64,1.26,2.18,1.34,2.28,2.17,12.18,4.02,25.47,4.47,7.9.27,17.01.06,26.41-.87,8.84-.86,17.95-2.37,26.58-4.68,5.31-1.41,10.44-3.14,15.22-5.2"/>
    <path class="cls-1" d="m67.37,153.98s-.88,9.78-3.76,15.53c-.53,1.07-1.14,1.99-1.82,2.69"/>
    <path class="cls-1" d="m40.09,162.28c2.75,4.01,12.51,9.85,19.53,8.58"/>
    <path class="cls-1" d="m43.67,90.11c1.66,3.54,2.96,6.03,3.41,6.86.11.2.17.31.17.31"/>
    <path class="cls-1" d="m30.19,120.17s-2.84-13,2.36-24.98c3.61-8.31,5.19-12.9,6.81-12.65.72.11,1.44,1.16,2.36,3.25.68,1.56,1.33,3.01,1.94,4.31"/>
    <path class="cls-1" d="m33.54,119.68c-1.88-7.65,5.47-17.06,13.53-22.7.92-.65,1.85-1.24,2.78-1.79,1.89-4.93,3.36-10.74,4.25-14.74.65-2.91,1-4.87,1-4.87,3.39-2.53,24.22-8.67,29.23,1.65"/>
    <path class="cls-1" d="m54.1,80.46s-.06.02-.09.04c-7.56,3.01-10.22,9.31-10.35,9.61h0"/>
    <path class="cls-1" d="m39.37,82.53c4.47-2.54,11.89-1.91,14.64-2.08"/>
    <path class="cls-1" d="m208.14,103.58s3.09,22.54,1.37,26.07h0"/>
    <path class="cls-1" d="m235.67,94.7c.9,2.3,2.34,4.48,4.41,5.55.56.29,1.05.54,1.47.76l2.82,1.46s1.32,13.72,19.5,9.09c-2.65,11.57-13.65,28.73-20.21,34.11"/>
    <path class="cls-1" d="m201.37,97.73c.89-.5,1.95-.85,2.92-1.27,2.67-1.14,4.63-2.76.26-9.26l-5.95-8.86h29.27s4.13,4.28,5.76,7.53c.42.82.67,1.56.67,2.16,0,.35.02.76.06,1.2.15,1.53.55,3.53,1.32,5.45"/>
    <path class="cls-1" d="m241.54,101.01s-2.48.86-5.87,1.6c-1.37.29-2.88.56-4.44.74-1.17.14-2.38.22-3.55.23-6.61.04-22.97-2.27-13.55-8.39,3.52-2.29,7.14-4.17,10.29-5.62,5.26-2.45,9.2-3.7,9.2-3.7"/>
    <path class="cls-1" d="m224.42,89.58c2.77,3.96,7.56,8.86,6.81,13.76"/>
    <path class="cls-1" d="m227.68,103.58s-2.31,11.55-4.3,15.54"/>
    <path class="cls-1" d="m198.6,78.34c1.16-6.61,6.53-8.59,9.54-8.59h21.85c5.79,4.8,8.07,8.59,4.37,19.49"/>
    <path class="cls-1" d="m227.87,78.34c-.71-2.86,0-5.73,2.13-8.59"/>
    <path class="cls-1" d="m175.99,75.58c4.6.12,15.93-2.2,16.87,1.93.95,4.14-.06,12.44,11.43,18.95"/>
    <path class="cls-1" d="m189.51,184.09c-3.96,3.14-7.27,7.44-7.27,7.44-4.04-1.08-8.61-2.26-13.3-3.75-5.9-1.87-12-4.22-17.46-7.43-4.24-2.48-8.11-5.47-11.2-9.17"/>
    <path class="cls-1" d="m110.12,64c-7.98-8.24-7.04-18.66-4.7-26.4.93-3.09,2.08-5.74,2.97-7.67,4.95.83,15.37-1.65,15.37-1.65,1.98,10.41,3.73,17.68,5,18.83,1.44-4.29,6.85-6.23,6.77-4.09-.11,2.81-.53,4.25-2.51,6.73,1.5,1.92,6.96,5.76,8.8,7.02.39.26.61.42.61.42,0,0,1.65.72,3.81,1.63,2.09.88,4.65,1.94,6.6,2.67,3.97,1.49,14.21,3.63,17.03,6.45.96.95,3.14,3.93,6.13,7.65,5.77,7.15,14.58,17.07,23.6,20.76.62.48,1.21.94,1.78,1.39,4.46,3.52,6.78,5.84,6.78,5.84,0,0,5.82-1.61,6.48,10.62l.66,12.22s6.71-.91,11.77,1.13c1.3.52,2.48,1.23,3.43,2.2,2.33,2.4,8.06,9.47,13.17,15.91,1.27,1.6,2.49,3.15,3.63,4.59.9,1.16,1.75,2.23,2.49,3.18,2.02,2.57,3.34,4.27,3.34,4.27-12.88,5.73-17.35,9.7-22.97,10.36-5.61.66-6.94,0-6.94,0-3.96,5.28-6.45,7.45-11.94,8.23-4.5.64-6.68,1.07-7.73,1.32-1.07.26-.98.36-.98.36-5.37,2.27-12.82,6-13.05,6.11"/>
    <path class="cls-1" d="m108.39,29.93c3.3-6.12,12.55-11.41,12.55-11.41h-3.81v-1.49h4.21v-1.8l-4.99-4.16c-1.49,7.33-4.99,20.5-20.04,17.2.06-.64.24-1.57.24-1.57,0,0,4.06,1.36,7.22-.06,3.15-1.43,6.25-3.94,7.65-7.07,1.86-4.15,3.29-10.97,3.29-12.09s-3.29-2.84-3.29-2.84l3.72-4.15,11.1,8.92s1.8-2.97,2.66-3.41c.87-.44,3.99-1.61,6.12.31,2.13,1.92,11.55,15.84,12.54,23.61s1.49,24.78,1.49,24.78h-2.82s-.17-18.17-2.15-25.61c-1.98-7.44-5.51-11.01-5.51-11.01l-.7.02-6.12.17c.21.28.07,1.66.31,1.98,5.41,7,11.15,28.63,9.76,36.51"/>
    <path class="cls-1" d="m137.81,15.91c.36,0,.52-.46.24-.69l-6.28-5.04c-.3-.24-.75-.14-.9.22l-1.77,4.66c-.18.43.13.9.58.9l2.05-.02,6.08-.04Z"/>
    <line class="cls-1" x1="115.95" y1="35.32" x2="120.35" y2="35.32"/>
    <polyline class="cls-1" points="108.39 36.25 105.42 37.6 105.41 37.61"/>
    <path class="cls-1" d="m115.95,46.41s3.66-1.12,6.73-.99"/>
    <path class="cls-1" d="m104.42,49.02s3.59-1.61,3.97-1.61"/>
    <path class="cls-1" d="m110.12,42.57s-.74,12.89,0,13.01c.75.13,2.36.87,3.1.62"/>
    <path class="cls-1" d="m114.23,60.17h2.79c.31,0,.46.37.23.58l-1.39,1.24c-.17.16-.44.16-.61,0l-1.28-1.16c-.26-.23-.1-.67.26-.67Z"/>
    <path class="cls-1" d="m189.51,184.09h0c.24-.34,5.99-8.12,9.18-13.65,1.24-2.15,2.1-3.96,2.11-4.86"/>
    <path class="cls-1" d="m203.41,177.76s.09-.1.14-.15c4.91-5.27,8.81-10.74,9.43-12.84,4.52,2.31,7.12,2.48,9.71,3.15.17.05.36.1.53.15"/>
    <path class="cls-1" d="m222.68,167.92s1.42-3.28,0-6.19h0"/>
    <path class="cls-1" d="m173.84,161.07s8.66,2.31,10.14,2"/>
    <path class="cls-1" d="m117.35,68.71c1.22.5,4.3,2.85,10.24-1.56"/>
    <path class="cls-2" d="m235.67,94.69h0c-.08.3-1.75,6.76,0,7.91"/>
    <path class="cls-1" d="m1.94,153.98c6.59-2.85,21.1-5.29,27.48-4.94,6.38.35,24.59,0,24.59,0h7.99"/>
    <path class="cls-1" d="m154.51,163.07c-.1.02-.19.05-.29.07-38.39,9.06-60.42,9.05-90.6,6.37"/>
    <path class="cls-1" d="m151.48,180.35h4s24.31,6.21,25.79,5.96c5.2-7.93,13.59-15.74,17.33-15.93"/>
    <path class="cls-1" d="m195.16,164.99c11.55-4.37,37.51-13.88,52.13-14.74"/>
  </g>
</svg>