<svg xmlns="http://www.w3.org/2000/svg" viewBox="0 0 270 224.7" style="enable-background:new 0 0 270 224.7" xml:space="preserve"><style>.st0{fill:#f7fde9}.st1{fill:#e94335}.st3{fill:#fffada}.st4{fill:#89dffc}.st5{fill:none;stroke:#000;stroke-miterlimit:10}.st6{fill:#e47763}.st7{fill:#fbebd2}.st8{fill:#f0ca4f}.st9{fill:#333}.st11{fill:none;stroke:#000;stroke-linecap:round;stroke-linejoin:round;stroke-miterlimit:10}</style><g id="レイヤー_3"><path class="st0" d="M269.7 179.2v5.2l-8.4-5.2zM241.5 184.4h14v40h-14zM252.5 179.2l2.9 5.2h-13.9l-3-5.2zM217.7 184.4h10.8v40h-10.8zM225.5 179.2l3 5.2h-10.8l-3-5.2zM194 184.4h10.8v40H194zM201.8 179.2l3 5.2H194l-3-5.2zM170.2 184.4H181v40h-10.8zM178 179.2l3 5.2h-10.8l-3-5.2zM146.4 184.4h10.8v40h-10.8zM154.2 179.2l3 5.2h-10.8l-2.9-5.2zM122.7 184.4h10.8v40h-10.8zM130.5 179.2l3 5.2h-10.8l-3-5.2zM98.9 184.4h10.8v40H98.9zM106.7 179.2l3 5.2H98.9l-3-5.2zM75.2 184.4H86v40H75.2zM83 179.2l3 5.2H75.2l-3-5.2zM51.4 184.4h10.8v40H51.4zM59.2 179.2l3 5.2H51.4l-3-5.2zM27.6 184.4h10.8v40H27.6zM35.4 179.2l3 5.2H27.6l-3-5.2zM0 184.4h14.7v40H0zM11.7 179.2l3 5.2H0v-5.2z"/><path class="st1" d="M255.4 184.4h14.3v40h-14.3z"/><path style="fill:#edfeb5" d="M269.7 110v69.2H0v-68.9z"/><path class="st3" d="M269.7 109.3v.7L0 110.3l37-.3 217-.7z"/><path class="st3" d="M269.7 103.2v6.1H254L37 110l-37 .3v-7.1z"/><path class="st1" d="M269.7 184.4h-14.3l-2.9-5.2h8.8z"/><path class="st4" d="M228.5 184.4h13v40h-13zM238.5 179.2l3 5.2h-13l-3-5.2z"/><path class="st1" d="M204.8 184.4h13v40h-13zM214.7 179.2l3 5.2h-12.9l-3-5.2z"/><path class="st4" d="M181 184.4h13v40h-13zM191 179.2l3 5.2h-13l-3-5.2z"/><path class="st1" d="M157.2 184.4h13v40h-13zM167.2 179.2l3 5.2h-13l-3-5.2z"/><path class="st4" d="M133.5 184.4h13v40h-13zM143.5 179.2l2.9 5.2h-12.9l-3-5.2z"/><path class="st1" d="M109.7 184.4h13v40h-13zM119.7 179.2l3 5.2h-13l-3-5.2z"/><path class="st4" d="M86 184.4h13v40H86zM95.9 179.2l3 5.2H86l-3-5.2z"/><path class="st1" d="M62.2 184.4h13v40h-13zM72.2 179.2l3 5.2h-13l-3-5.2z"/><path class="st4" d="M38.4 184.4h13v40h-13zM48.4 179.2l3 5.2h-13l-3-5.2z"/><path class="st1" d="M14.7 184.4h13v40h-13zM24.6 179.2l3 5.2H14.7l-3-5.2z"/><path class="st5" d="M0 179.2h261.3l8.4 5.2M269.7 224.4H0"/><path class="st5" d="m252.5 179.2 2.9 5.2v40M238.5 179.2l3 5.2v40M225.5 179.2l3 5.2v40M214.7 179.2l3 5.2v40M201.8 179.2l3 5.2v40M191 179.2l3 5.2v40M178 179.2l3 5.2v40M167.2 179.2l3 5.2v40M154.2 179.2l3 5.2v40M143.5 179.2l2.9 5.2v40M130.5 179.2l3 5.2v40M119.7 179.2l3 5.2v40M106.7 179.2l3 5.2v40M95.9 179.2l3 5.2v40M83 179.2l3 5.2v40M72.2 179.2l3 5.2v40M59.2 179.2l3 5.2v40M48.4 179.2l3 5.2v40M35.4 179.2l3 5.2v40M24.6 179.2l3 5.2v40M11.7 179.2l3 5.2v40M269.7 184.4H0M261.3 179.2h8.4M0 103.2h269.7M0 109.9h269.7"/></g><g id="レイヤー_2"><g id="XMLID_00000112591148287887261080000018365442889224436395_"><path class="st6" d="M217.3 96.2c1.1 0 2.2-.1 3.3-.2 1.4-.2 2.8-.4 4.1-.7 3.1-.7 5.4-1.5 5.4-1.5l2.6 1.3s1.2 12.7 18 8.4c-2.4 10.7-12.6 26.5-18.7 31.5-4.7-5.9-10-12.5-12.2-14.7-.9-.9-2-1.6-3.2-2-4.7-1.9-10.9-1-10.9-1l-.6-11.3c-.6-11.3-6-9.8-6-9.8s-2.1-2.1-6.3-5.4c.8-.5 1.8-.8 2.7-1.2 2.5-1 4.3-2.5.2-8.6l-5.5-8.2h27s3.8 4 5.3 7c0 0-3.6 1.2-8.5 3.4-2.9 1.3-6.3 3.1-9.5 5.2-8.4 5.7 6.7 7.8 12.8 7.8z"/><path class="st7" d="M250.7 103.5c-16.8 4.3-18-8.4-18-8.4s12.7 3 18 8.4z"/><path class="st6" d="M237.7 142.2c1.9 2.4 3.1 3.9 3.1 3.9-11.9 5.3-16 9-21.2 9.6-5.2.6-6.4 0-6.4 0-.2 0-.3-.1-.5-.1 0 0 1.3-3 0-5.7 11.1-2.4 22-5.4 25-7.7z"/><path class="st7" d="M212.7 149.9c-3.1.7-6.2 1.3-9.1 1.8-4.2.8-8 1.4-11.1 1.7-1.1.1-2.1.2-3 .3-.8.1-1.5.1-2.2.1v-1c10.7-4 34.6-12.8 48.2-13.6.8 1.1 1.6 2.1 2.3 2.9-3.1 2.4-14 5.4-25.1 7.8z"/><path class="st8" d="M160.3 157.9c-2.6 1-5.7.2-7.9-2.2-.3-.4-.9-1.1-1.5-2.1-.4-.7-.9-1.5-1.5-2.3-2.3-3.8-5.5-9.2-8.4-14.6-3.9-7-7.4-13.8-8.5-16.3 4.3-3.2 9.8-3.5 14.4-3 3.1.3 5.7 1 7.1 1.5 3.4 1.1 20.6 2.8 28.6 2.8 4 0 11.1-.6 17.9-1.3 6.8-.7 13.3-1.3 16-1.5l.2-.5c1.2.5 2.3 1.1 3.2 2 2.2 2.2 7.4 8.8 12.2 14.7 1.2 1.5 2.3 2.9 3.4 4.2-13.5.8-37.5 9.6-48.2 13.6v1c-5.6.2-8.2-1-10.1-2.7-1-1-1.8-2.2-2.7-3.3-2.2-3-2.3-4-2.9-3.5l-.4.4c-.6.6-2 2.4-3.6 4.6-1.6 2.1-3.3 4.6-4.6 6.4-.7.9-1.7 1.7-2.7 2.1z"/><path class="st6" d="M228.7 93.1c.5.3 1 .5 1.4.7 0 0-2.3.8-5.4 1.5-1.6-1.1-.1-7 0-7.3.8 2.1 2.1 4.1 4 5.1z"/><path class="st6" d="M224.7 95.3c-1.3.3-2.7.5-4.1.7.7-4.5-3.7-9.1-6.3-12.7 4.9-2.3 8.5-3.4 8.5-3.4.4.8.6 1.4.6 2 0 .3 0 .7.1 1.1.1 1.4.5 3.3 1.2 5-.1.2-1.6 6.2 0 7.3z"/><path class="st7" d="M219.4 64.9c5.3 4.4 7.5 7.9 4 18 0-.4-.1-.8-.1-1.1 0-.6-.2-1.2-.6-2-1.5-3-5.3-7-5.3-7-.6-2.6.1-5.2 2-7.9z"/><path class="st6" d="M214.3 83.3c2.6 3.7 7 8.2 6.3 12.7-1.1.1-2.2.2-3.3.2-6.1 0-21.2-2.1-12.5-7.7 3.2-2.2 6.6-3.9 9.5-5.2z"/><path class="st7" d="M199.2 64.9h20.2c-2 2.6-2.6 5.3-2 7.9h-27c1.1-6 6.1-7.9 8.8-7.9z"/><path class="st8" d="m216.7 118.3-.2.5c-2.8.1-9.2.8-16 1.5 1.6-3.3-1.3-24.1-1.3-24.1s5.4-1.5 6 9.8l.6 11.3s6.2-.9 10.9 1z"/><path class="st6" d="M212.7 155.6c.2 0 .3.1.5.1-3.7 4.9-6 6.9-11 7.6-4.2.6-6.2 1-7.1 1.2 4.5-4.9 8.1-9.9 8.7-11.9 4.1 2.2 6.5 2.4 8.9 3z"/><path class="st6" d="M212.7 149.9c1.3 2.7 0 5.7 0 5.7-2.4-.6-4.8-.8-9-2.9l-.2-1c3-.5 6.1-1.1 9.2-1.8z"/><path class="st6" d="m203.5 151.7.2 1c-.6 1.9-4.2 7-8.7 11.9-1 .2-.9.3-.9.3-5 2.1-11.8 5.5-12.1 5.6.2-.3 5.5-7.5 8.5-12.6 1.1-2 1.9-3.7 1.9-4.5 3.1-.3 6.9-.9 11.1-1.7z"/><path class="st8" d="M146.9 117.3c-4.5-.5-10.1-.1-14.4 3l-.2-.9c-8.8-2.9-6.2-16.8-5.7-22.3s7-17.1 9-19.5c2-2.4 2.9-7.6 2.2-10.8-1.9 1.6-4.1 3.2-6.1 4.3-6.1 3.2-13.3 2.4-17 .6-2.1-1.1-4.4-3.4-5.8-5.2l-.2.2c-5.1 1.8-16.6 18.9-19.6 26.3-.9-.4-1.7-.8-2.4-1.1-.4-11 .8-21.5.8-21.5 10.9-6.2 21.2-10.7 21.2-10.7 2.5 3.9 12.4 14.2 23.7 4.5 5.5-4.4 9.6-9.3 9.6-9.3 1.9.8 4.3 1.8 6.1 2.5 3.7 1.4 13.1 3.4 15.7 6 .9.9 2.9 3.6 5.7 7.1 5.3 6.6 13.5 15.8 21.8 19.2.6.4 1.1.9 1.6 1.3 4.1 3.3 6.3 5.4 6.3 5.4s2.9 20.8 1.3 24.1c-6.8.7-13.9 1.3-17.9 1.3-8 0-25.2-1.6-28.6-2.8-1.4-.7-4-1.4-7.1-1.7z"/><path class="st8" d="M195.7 89.6c-.9.4-1.9.7-2.7 1.2-.5-.4-1.1-.8-1.6-1.3-8.3-3.4-16.5-12.6-21.8-19.2 4.3.1 14.7-2 15.6 1.8.8 3.8-.1 11.5 10.5 17.5zM192.5 153.5c0 .8-.8 2.5-1.9 4.5l-.1-.1c-3.5.2-11.2 7.4-16 14.7-1.4.2-23.8-5.5-23.8-5.5H147c-3.9-2.3-7.5-5.1-10.3-8.5v-.1c4.9-1.3 9.6-2.9 14.1-4.8l.3-.2c.6 1 1.2 1.7 1.5 2.1 2.1 2.4 5.3 3.3 7.9 2.2.5 0 10.3-.3 16.8-6.6.1 0 .1-.1.2-.2 1.8 1.7 4.5 2.9 10.1 2.7.7 0 1.4-.1 2.2-.1.6.1 1.6 0 2.7-.1z"/><path class="st7" d="M190.4 157.9c-2.9 5.2-8.2 12.3-8.4 12.7-3.7 2.9-6.7 6.9-6.7 6.9-3.7-1-8-2.1-12.3-3.5-5.5-1.7-11.1-3.9-16.1-6.9h3.7s22.5 5.7 23.8 5.5c4.8-7.3 12.6-14.5 16-14.7z"/><path class="st6" d="m177.2 151.2-.2.2-.2-.2c-1.4.3-9.4-1.8-9.4-1.8 1.6-2.2 3.1-4 3.6-4.6l.4-.4c.7-.5.7.5 2.9 3.5 1.1 1.1 1.9 2.3 2.9 3.3z"/><path class="st6" d="m176.9 151.1.2.2c-6.5 6.3-16.3 6.6-16.8 6.6 1-.4 2-1.2 2.7-2.2 1.2-1.8 3-4.2 4.6-6.4-.1 0 7.9 2.1 9.3 1.8zM163 174v.1c-13.9.9-41.1-2.9-44.2-3.2-4.4-.3-6.8-7.5-6.8-7.5v-.5c8.2-.8 16.6-2.2 24.6-4.3v.1c2.9 3.4 6.4 6.2 10.3 8.5 5 2.9 10.7 5 16.1 6.8z"/><path class="st7" d="M87.6 163.7c-12.3-.4-21.4-2.1-23.5-4.1.6-.6 1.2-1.5 1.7-2.5 27.9 2.5 48.2 2.5 83.7-5.9.5.9 1 1.7 1.5 2.3l-.3.2c-4.4 1.9-9.2 3.5-14.1 4.8-8 2.1-16.4 3.5-24.6 4.3-8.7 1-17.1 1.1-24.4.9z"/><path class="st8" d="M141 136.6c3 5.3 6.1 10.8 8.4 14.6-35.5 8.4-55.8 8.4-83.7 5.9 2.7-5.3 3.5-14.3 3.5-14.3v-.5c1.6-.1 3.2-.2 4.6-.3v.4c3.6 2.4 11.1 4.7 23.6 3.7 12.5-.9 28.8-2.9 35-7.8 5.2 0 6.7-.1 6.7-.1l1.9-1.6z"/><path class="st9" d="M144.6 51H142s-.2-16.8-2-23.7c-1.8-6.9-5.1-10.2-5.1-10.2h-.6l-.1-2c.3 0 .5-.4.2-.6l-5.8-4.7c-.3-.2-.7-.1-.8.2l-1.6 4.3c-.2.4.1.8.5.8h1.9v2.2c.2.3.1 1.5.3 1.8 5 6.5 10.3 26.4 9 33.7-1.7-1.2-6.7-4.7-8.1-6.5 1.8-2.3 2.2-3.6 2.3-6.2.1-2-4.9-.2-6.3 3.8-1.2-1.1-2.8-7.8-4.6-17.4 0 0-9.6 2.3-14.2 1.5 3-5.6 11.6-10.5 11.6-10.5h-3.5v-1.4h3.9v-1.7l-4.6-3.8c-1.4 6.8-4.6 18.9-18.5 15.9.1-.6.2-1.5.2-1.5s3.7 1.3 6.7-.1c2.9-1.3 5.8-3.6 7.1-6.5 1.7-3.8 3-10.1 3-11.2s-3-2.6-3-2.6l3.4-3.8L123.5 9s1.7-2.7 2.5-3.1c.8-.4 3.7-1.5 5.6.3 2 1.8 10.7 14.6 11.6 21.8 1 7.3 1.4 23 1.4 23z"/><path d="M104.3 35.2c.9-2.9 1.9-5.3 2.7-7.1 4.6.8 14.2-1.5 14.2-1.5 1.8 9.6 3.4 16.3 4.6 17.4 1.3-4 6.3-5.8 6.3-3.8-.1 2.6-.5 3.9-2.3 6.2 1.4 1.8 6.4 5.3 8.1 6.5.4.2.6.4.6.4s1.5.7 3.5 1.5c0 0-4.1 4.9-9.6 9.3-11.3 9.6-21.2-.6-23.7-4.5-7.4-7.6-6.5-17.2-4.4-24.4zm11 21.4c.2-.2.1-.5-.2-.5h-2.6c-.3 0-.5.4-.2.6l1.2 1.1c.2.1.4.1.6 0l1.2-1.2z" style="fill:#fcecca"/><path class="st8" d="M98.8 99.3c-1.2-1.6-3-3-5.4-4.3-1.6-.8-3-1.5-4.3-2.1 3.1-7.4 14.5-24.5 19.6-26.3l.2-.2c1.5 1.8 3.7 4.1 5.8 5.2 3.7 1.8 10.9 2.6 17-.6 2-1.1 4.2-2.6 6.1-4.3.7 3.2-.2 8.4-2.2 10.8-2 2.4-8.6 14-9 19.5-.5 5.5-3.1 19.4 5.7 22.3l.2.9c1 2.5 4.6 9.3 8.5 16.3l-1.9 1.4s-1.5.1-6.7.1c-2.9 0-6.9 0-12.4-.1-15.4-.3-20.9-5-26.4-8 3.1-4.3 5.7-9.2 6.5-13.5 1.4-6.4 2.4-12.4-1.3-17.1z"/><path class="st9" d="M134.3 15.2v2l-5.6.2-.1-2.2z"/><path class="st8" d="M120.1 138c5.5.1 9.5.1 12.4.1-6.1 4.9-22.4 6.9-35 7.8-12.5.9-20-1.4-23.6-3.7v-.4c4.5-.4 8.3-1.2 10.5-2.5.9-.5 2-1.3 3.1-2.3 2-1.8 4.2-4.3 6.2-7.1 5.4 3.1 10.9 7.8 26.4 8.1z"/><path class="st6" d="M112 163.4s2.4 7.2 6.8 7.5c-18.8 0-21.5-1.5-31.3-7.2 7.3.3 15.7.1 24.4-.8l.1.5z"/><path class="st8" d="M42.4 110.5s14.9-17.3 28-28.6c4-3.5 9.2-7 14.5-10.1.9-.5 1.7-1 2.6-1.5 0 0-1.3 10.5-.8 21.5.7.3 1.6.7 2.4 1.1 1.3.6 2.7 1.3 4.3 2.1 2.4 1.3 4.2 2.7 5.4 4.3 3.7 4.7 2.7 10.7 1.4 17.2-.8 4.3-3.5 9.3-6.5 13.5-2 2.8-4.2 5.2-6.2 7.1-5.1 1.9-20.8-4.9-24.6-6.7-.7-.3-1.2-.4-1.5-.4-.1 0-.2.1-.3.1-1 .8.6 4.2 1.8 6.1.4.6.9 1.2 1.4 1.9h-7.4s-16.8.3-22.7 0-19.3 1.9-25.4 4.6c1.2-4 3.3-9.7 6.2-14 5-7.5 14.3-15.7 18-16.8.6-.2 1.2-.3 1.9-.4.9-.2 1.9-.3 3.1-.4 1.3-.2 2.7-.4 4.4-.6z"/><path class="st6" d="M62.8 130.4c3.9 1.8 19.6 8.6 24.6 6.7-1.1 1-2.2 1.8-3.1 2.3-2.2 1.2-6.1 2-10.5 2.5-1.5.1-3 .3-4.6.3H68s-2.1-2-3.8-4.1c-.5-.6-1-1.3-1.4-1.9-1.2-1.9-2.8-5.4-1.8-6.1.1 0 .2-.1.3-.1.3 0 .8.1 1.5.4zM50.4 90.1c.9-.6 1.7-1.1 2.6-1.6 1.7-4.6 3.1-9.9 3.9-13.6.6-2.7.9-4.5.9-4.5 3.1-2.3 22.4-8 27 1.5C79.6 75 74.4 78.4 70.3 82c-13.1 11.3-28 28.6-28 28.6-1.6.2-3.1.3-4.4.5-1.7-7.1 5.1-15.8 12.5-21z"/><path class="st6" d="M51.1 145.3c-1.4-1.8-2.6-3.2-3.1-3.7 2.2 0 4.4 0 6.7.2 4.1.4 8.8.5 13.3.4h1.2v.5s-.8 9-3.5 14.3c-.5 1-1 1.8-1.7 2.5-.5-.1-1.2-.5-2-1.2-3-2.6-7.7-8.9-10.9-13z"/><path class="st7" d="M64.2 138.2c1.7 2.1 3.8 4.1 3.8 4.1-4.5.1-9.2 0-13.3-.4-2.3-.2-4.5-.3-6.7-.2-7.6.1-14.2 1.3-19.5 1.3-6.9 0-14 .9-21.1 4.9 0 0 .4-2.1 1.3-5.1 6.1-2.6 19.5-4.9 25.4-4.6s22.7 0 22.7 0h7.4z"/><path class="st6" d="M62 158.3c-6.5 1.2-15.5-4.2-18-7.9 3.9-1.9 6.3-4.3 7.1-5.1 3.2 4.1 7.9 10.4 10.9 13zM56.9 74.9c0-.1 0-.1 0 0-.7 3.7-2.1 9-3.8 13.6-.9.5-1.7 1-2.6 1.6-.4-.8-1.6-3.1-3.1-6.3 0-.3 2.5-6.2 9.5-8.9z"/><path class="st7" d="M56.8 74.8c-7 2.8-9.4 8.6-9.6 8.9-.6-1.2-1.2-2.5-1.8-4-.9-1.9-1.5-2.9-2.2-3 4.3-2.3 11.1-1.7 13.6-1.9z"/><path class="st6" d="M48 141.6c.5.4 1.6 1.8 3.1 3.7-.8.8-3.2 3.2-7.1 5.1-2.4 1.2-5.4 2.2-8.9 2.4-10.2.7-23.5-1.9-27.7-5 7-4 14.2-4.9 21.1-4.9 5.3 0 12-1.2 19.5-1.3zM47.3 83.7c1.5 3.3 2.7 5.6 3.1 6.3-7.4 5.2-14.2 13.9-12.5 21-1.1.1-2.2.3-3.1.4 0 0-2.6-12 2.2-23.1 3.3-7.7 4.8-11.9 6.3-11.7.7.1 1.3 1.1 2.2 3 .6 1.6 1.2 2.9 1.8 4.1z"/><path class="st11" d="M42.4 110.5s14.9-17.3 28-28.6c4-3.5 9.2-7 14.5-10.1.9-.5 1.7-1 2.6-1.5 10.9-6.2 21.2-10.7 21.2-10.7 2.5 3.9 12.4 14.2 23.7 4.5 5.5-4.4 9.6-9.3 9.6-9.3"/><path class="st11" d="M87.5 137.1c-1.1 1-2.2 1.8-3.1 2.3-2.2 1.2-6.1 2-10.5 2.5-1.5.1-3 .3-4.6.3h-1.2c-4.5.1-9.2 0-13.3-.4-2.3-.2-4.5-.3-6.7-.2-7.6.1-14.2 1.3-19.5 1.3-6.9 0-14 .9-21.1 4.9 0 0 .4-2.1 1.3-5.1 1.2-4 3.3-9.7 6.2-14 5-7.5 14.3-15.7 18-16.8.6-.2 1.2-.3 1.9-.4.9-.2 1.9-.3 3.1-.4 1.3-.2 2.8-.3 4.4-.5 2.9-.3 6.2-.8 9.9-1.5 11.9-2.3 25.2-2.3 25.2-2.3"/><path class="st11" d="M75.8 82.9c3.5 5.3 6 6.6 10.8 8.9.7.3 1.6.7 2.4 1.1 1.3.6 2.7 1.3 4.3 2.1 2.4 1.3 4.2 2.7 5.4 4.3 3.7 4.7 2.7 10.7 1.4 17.2-.8 4.3-3.5 9.3-6.5 13.5-2 2.8-4.2 5.2-6.2 7.1"/><path class="st11" d="M58.6 93.1c1.8 1.3 6.2 6.5 14.9 5s14.7 1.1 15.6 1.2M61.3 130.1c-.1 0-.2.1-.3.1M94.4 110.5c-2.4 1.7-26.9 16.7-33.1 19.5"/><path class="st11" d="M68 142.2s-2.1-2-3.8-4.1c-.5-.6-1-1.3-1.4-1.9-1.2-1.9-2.8-5.4-1.8-6.1.1-.1.2-.1.3-.1 0 0 0 0 0 0 .3-.1.8 0 1.5.4 3.9 1.8 19.6 8.6 24.6 6.7 0 0 0 0 0 0M93.7 130c5.5 3 11 7.7 26.4 8 5.5.1 9.5.1 12.4.1 5.2 0 6.7-.1 6.7-.1"/><path class="st11" d="M73.8 142.2c3.6 2.4 11.1 4.7 23.6 3.7 12.5-.9 28.8-2.9 35-7.8M98.8 99.3c.8-5.3 8.9-16.8 14.1-21.7M89.1 92.9c3.1-7.4 14.5-24.5 19.6-26.3M87.5 70.3s-1.3 10.5-.8 21.5M107.1 64.2s.7 1 1.8 2.3c1.5 1.8 3.7 4.1 5.8 5.2 3.7 1.8 10.9 2.6 17-.6 2-1.1 4.2-2.6 6.1-4.3 3.8-3.1 6.8-6.4 6.8-6.4M163 174.1c-13.9.9-41.1-2.9-44.2-3.2-18.8 0-21.5-1.5-31.3-7.2 0 0 0 0 0 0"/><path class="st11" d="M112 163.4s2.4 7.2 6.8 7.5M137.8 66.8c.7 3.2-.2 8.4-2.2 10.8-2 2.4-8.6 14-9 19.5-.5 5.5-3.1 19.4 5.7 22.3"/><path class="st11" d="M144.6 79.8s9.2-11.6 9.2-13c1.5 4.3 4.1 10.8 4.1 10.8-8.1 5.6-17.7 14.8-21.4 20.8-3.7 5.9-5.3 13.4-2.8 20.4M216.5 118.8c-2.8.1-9.2.8-16 1.5-6.8.7-13.9 1.3-17.9 1.3-8 0-25.2-1.6-28.6-2.8-1.4-.5-4-1.2-7.1-1.5-4.5-.5-10.1-.1-14.4 3 1 2.5 4.6 9.3 8.5 16.3 3 5.3 6.1 10.8 8.4 14.6.5.9 1 1.7 1.5 2.3.6 1 1.2 1.7 1.5 2.1 2.1 2.4 5.3 3.3 7.9 2.2 1-.4 2-1.2 2.7-2.2 1.2-1.8 3-4.2 4.6-6.4 1.6-2.2 3.1-4 3.6-4.6l.4-.4c.7-.5.7.5 2.9 3.5.9 1.2 1.6 2.3 2.7 3.3 1.8 1.7 4.5 2.9 10.1 2.7.7 0 1.4-.1 2.2-.1.9-.1 1.9-.2 3-.3 3-.4 6.9-1 11.1-1.7 2.9-.5 6-1.2 9.1-1.8 11.1-2.4 22.1-5.4 25-7.7"/><path class="st11" d="M160.3 157.9s0 0 0 0c.5 0 10.3-.3 16.8-6.6.1 0 .1-.1.2-.2h0M143.2 127.1s19.9 17 28.4 17.2M146.9 117.3h0c.7-5.2.4-3.1 7.3-8.9 6.9-5.8 7.2-6.8 7.2-9.6M141.4 117.1c-.6-6.2 5.7-15.9 10.8-20.5 5-4.7 21-14.4 21-14.4M7.4 147.8c4.2 3 17.5 5.7 27.7 5 3.5-.2 6.5-1.2 8.9-2.4 3.9-1.9 6.3-4.3 7.1-5.1l.3-.3"/><path class="st11" d="M48 141.6c.5.4 1.6 1.8 3.1 3.7 3.2 4.1 7.9 10.4 10.9 13 .8.7 1.5 1.2 2 1.2 2.1 2 11.3 3.7 23.5 4.1 7.3.3 15.7.1 24.4-.8 8.2-.8 16.6-2.2 24.6-4.3 4.9-1.3 9.6-2.9 14.1-4.8"/><path class="st11" d="M69.2 142.7s-.8 9-3.5 14.3c-.5 1-1 1.8-1.7 2.5M44 150.4c2.5 3.7 11.6 9.1 18 7.9M47.3 83.7c1.5 3.3 2.7 5.6 3.1 6.3.1.2.2.3.2.3"/><path class="st11" d="M34.9 111.5s-2.6-12 2.2-23.1c3.3-7.7 4.8-11.9 6.3-11.7.7.1 1.3 1.1 2.2 3 .6 1.4 1.2 2.8 1.8 4"/><path class="st11" d="M37.9 111.1c-1.7-7.1 5.1-15.8 12.5-21 .9-.6 1.7-1.1 2.6-1.6 1.7-4.6 3.1-9.9 3.9-13.6.6-2.7.9-4.5.9-4.5 3.1-2.3 22.4-8 27 1.5"/><path class="st11" d="M56.9 74.8s0 0 0 0c-7.1 2.8-9.5 8.6-9.6 8.9 0 0 0 0 0 0M43.3 76.7c4.1-2.3 11-1.8 13.5-1.9M199.2 96.2s2.9 20.8 1.3 24.1v0M224.7 88c.8 2.1 2.2 4.1 4.1 5.1.5.3 1 .5 1.4.7l2.6 1.3s1.2 12.7 18 8.4c-2.4 10.7-12.6 26.5-18.7 31.5M193 90.8c.8-.5 1.8-.8 2.7-1.2 2.5-1 4.3-2.5.2-8.6l-5.5-8.2h27s3.8 4 5.3 7c.4.8.6 1.4.6 2 0 .3 0 .7.1 1.1.1 1.4.5 3.3 1.2 5"/><path class="st11" d="M230.1 93.8s-2.3.8-5.4 1.5c-1.3.3-2.7.5-4.1.7-1.1.1-2.2.2-3.3.2-6.1 0-21.2-2.1-12.5-7.7 3.3-2.1 6.6-3.9 9.5-5.2 4.9-2.3 8.5-3.4 8.5-3.4"/><path class="st11" d="M214.3 83.3c2.6 3.7 7 8.2 6.3 12.7M217.3 96.2s-2.1 10.7-4 14.4M190.4 72.9c1.1-6.1 6-7.9 8.8-7.9h20.2c5.3 4.4 7.5 7.9 4 18"/><path class="st11" d="M217.5 72.9c-.7-2.6 0-5.3 2-7.9M169.5 70.3c4.3.1 14.7-2 15.6 1.8.9 3.8-.1 11.5 10.6 17.5M182 170.6c-3.7 2.9-6.7 6.9-6.7 6.9-3.7-1-8-2.1-12.3-3.5-5.5-1.7-11.1-3.9-16.1-6.9-3.9-2.3-7.5-5.1-10.3-8.5"/><path class="st11" d="M108.7 59.6c-7.4-7.6-6.5-17.2-4.3-24.4.9-2.9 1.9-5.3 2.7-7.1 4.6.8 14.2-1.5 14.2-1.5 1.8 9.6 3.4 16.3 4.6 17.4 1.3-4 6.3-5.8 6.3-3.8-.1 2.6-.5 3.9-2.3 6.2 1.4 1.8 6.4 5.3 8.1 6.5.4.2.6.4.6.4s1.5.7 3.5 1.5c1.9.8 4.3 1.8 6.1 2.5 3.7 1.4 13.1 3.4 15.7 6 .9.9 2.9 3.6 5.7 7.1 5.3 6.6 13.5 15.8 21.8 19.2.6.4 1.1.9 1.6 1.3 4.1 3.3 6.3 5.4 6.3 5.4s5.4-1.5 6 9.8l.6 11.3s6.2-.8 10.9 1c1.2.5 2.3 1.1 3.2 2 2.2 2.2 7.4 8.8 12.2 14.7 1.2 1.5 2.3 2.9 3.4 4.2.8 1.1 1.6 2.1 2.3 2.9 1.9 2.4 3.1 3.9 3.1 3.9-11.9 5.3-16 9-21.2 9.6-5.2.6-6.4 0-6.4 0-3.7 4.9-6 6.9-11 7.6-4.2.6-6.2 1-7.1 1.2-1 .2-.9.3-.9.3-5 2.1-11.8 5.5-12.1 5.6"/><path class="st11" d="M107.1 28.2c3-5.6 11.6-10.5 11.6-10.5h-3.5v-1.4h3.9v-1.7l-4.6-3.8c-1.4 6.8-4.6 18.9-18.5 15.9.1-.6.2-1.5.2-1.5s3.7 1.3 6.7-.1c2.9-1.3 5.8-3.6 7.1-6.5 1.7-3.8 3-10.1 3-11.2s-3-2.6-3-2.6l3.4-3.8 10.2 8.2s1.7-2.7 2.5-3.1c.8-.4 3.7-1.5 5.6.3 2 1.8 10.7 14.6 11.6 21.8.9 7.2 1.4 22.9 1.4 22.9H142s-.2-16.8-2-23.7c-1.8-6.9-5.1-10.2-5.1-10.2h-.6l-5.6.2c.2.3.1 1.5.3 1.8 5 6.5 10.3 26.4 9 33.7"/><path class="st11" d="M134.3 15.2c.3 0 .5-.4.2-.6l-5.8-4.7c-.3-.2-.7-.1-.8.2l-1.6 4.3c-.2.4.1.8.5.8h7.5zM114.1 33.1h4M107.1 34l-2.8 1.2h0M114.1 43.4s3.4-1 6.2-.9M103.4 45.8s3.3-1.5 3.7-1.5M108.7 39.8s-.7 11.9 0 12c.7.1 2.2.8 2.9.6M115.3 56.6l-1.3 1.1c-.2.1-.4.1-.6 0l-1.2-1.1c-.2-.2-.1-.6.2-.6h2.6c.3.1.5.4.3.6zM182 170.6s0 0 0 0c.2-.3 5.5-7.5 8.5-12.6 1.1-2 1.9-3.7 1.9-4.5M194.9 164.7l.1-.1c4.5-4.9 8.1-9.9 8.7-11.9 4.2 2.1 6.6 2.3 9 2.9.2 0 .3.1.5.1"/><path class="st11" d="M212.7 155.6s1.3-3 0-5.7v0M167.5 149.3s8 2.1 9.4 1.8M115.4 64c1.1.5 4 2.6 9.5-1.4"/><path class="st5" d="M224.7 88c-.1.3-1.6 6.2 0 7.3"/><path class="st11" d="M8.7 142.7c6.1-2.6 19.5-4.9 25.4-4.6s22.7 0 22.7 0h7.4M149.7 151.1c-.1 0-.2 0-.3.1-35.5 8.4-55.8 8.4-83.7 5.9M146.9 167.1h3.7s22.5 5.7 23.8 5.5c4.8-7.3 12.6-14.5 16-14.7M187.2 152.9c10.7-4 34.6-12.8 48.2-13.6"/><path class="st5" d="M232.7 95.2s12.7 3 18 8.4"/></g></g></svg>