<?xml version="1.0" encoding="utf-8"?>
<!-- Generator: Adobe Illustrator 27.9.0, SVG Export Plug-In . SVG Version: 6.00 Build 0)  -->
<svg version="1.1" xmlns="http://www.w3.org/2000/svg" xmlns:xlink="http://www.w3.org/1999/xlink" x="0px" y="0px"
	 viewBox="0 0 270 224.7" style="enable-background:new 0 0 270 224.7;" xml:space="preserve">
<style type="text/css">
	.st0{fill:#F7FDE9;}
	.st1{fill:#E94335;}
	.st2{fill:#EDFEB5;}
	.st3{fill:#FFFADA;}
	.st4{fill:#89DFFC;}
	.st5{fill:none;stroke:#000000;stroke-miterlimit:10;}
	.st6{fill:#E47763;}
	.st7{fill:#FBEBD2;}
	.st8{fill:#F0CA4F;}
	.st9{fill:#333333;}
	.st10{fill:#FCECCA;}
	.st11{fill:none;stroke:#000000;stroke-linecap:round;stroke-linejoin:round;stroke-miterlimit:10;}
</style>
<g id="_レイヤー_1">
</g>
<g id="レイヤー_3">
	<g>
		<g>
			<polygon class="st0" points="269.7,179.2 269.7,184.4 261.3,179.2 			"/>
			<rect x="241.5" y="184.4" class="st0" width="14" height="40"/>
			<polygon class="st0" points="252.5,179.2 255.4,184.4 241.5,184.4 238.5,179.2 			"/>
			<rect x="217.7" y="184.4" class="st0" width="10.8" height="40"/>
			<polygon class="st0" points="225.5,179.2 228.5,184.4 217.7,184.4 214.7,179.2 			"/>
			<rect x="194" y="184.4" class="st0" width="10.8" height="40"/>
			<polygon class="st0" points="201.8,179.2 204.8,184.4 194,184.4 191,179.2 			"/>
			<rect x="170.2" y="184.4" class="st0" width="10.8" height="40"/>
			<polygon class="st0" points="178,179.2 181,184.4 170.2,184.4 167.2,179.2 			"/>
			<rect x="146.4" y="184.4" class="st0" width="10.8" height="40"/>
			<polygon class="st0" points="154.2,179.2 157.2,184.4 146.4,184.4 143.5,179.2 			"/>
			<rect x="122.7" y="184.4" class="st0" width="10.8" height="40"/>
			<polygon class="st0" points="130.5,179.2 133.5,184.4 122.7,184.4 119.7,179.2 			"/>
			<rect x="98.9" y="184.4" class="st0" width="10.8" height="40"/>
			<polygon class="st0" points="106.7,179.2 109.7,184.4 98.9,184.4 95.9,179.2 			"/>
			<rect x="75.2" y="184.4" class="st0" width="10.8" height="40"/>
			<polygon class="st0" points="83,179.2 86,184.4 75.2,184.4 72.2,179.2 			"/>
			<rect x="51.4" y="184.4" class="st0" width="10.8" height="40"/>
			<polygon class="st0" points="59.2,179.2 62.2,184.4 51.4,184.4 48.4,179.2 			"/>
			<rect x="27.6" y="184.4" class="st0" width="10.8" height="40"/>
			<polygon class="st0" points="35.4,179.2 38.4,184.4 27.6,184.4 24.6,179.2 			"/>
			<rect y="184.4" class="st0" width="14.7" height="40"/>
			<polygon class="st0" points="11.7,179.2 14.7,184.4 0,184.4 0,179.2 			"/>
			<rect x="255.4" y="184.4" class="st1" width="14.3" height="40"/>
			<polygon class="st2" points="269.7,110 269.7,179.2 261.3,179.2 252.5,179.2 238.5,179.2 225.5,179.2 214.7,179.2 201.8,179.2 
				191,179.2 178,179.2 167.2,179.2 154.2,179.2 143.5,179.2 130.5,179.2 119.7,179.2 106.7,179.2 95.9,179.2 83,179.2 72.2,179.2 
				59.2,179.2 48.4,179.2 35.4,179.2 24.6,179.2 11.7,179.2 0,179.2 0,110.3 			"/>
			<polygon class="st3" points="269.7,109.3 269.7,110 0,110.3 37,110 254,109.3 			"/>
			<polygon class="st3" points="269.7,103.2 269.7,109.3 254,109.3 37,110 0,110.3 0,109.2 0,103.2 			"/>
			<polygon class="st1" points="269.7,184.4 255.4,184.4 252.5,179.2 261.3,179.2 			"/>
			<rect x="228.5" y="184.4" class="st4" width="13" height="40"/>
			<polygon class="st4" points="238.5,179.2 241.5,184.4 228.5,184.4 225.5,179.2 			"/>
			<rect x="204.8" y="184.4" class="st1" width="13" height="40"/>
			<polygon class="st1" points="214.7,179.2 217.7,184.4 204.8,184.4 201.8,179.2 			"/>
			<rect x="181" y="184.4" class="st4" width="13" height="40"/>
			<polygon class="st4" points="191,179.2 194,184.4 181,184.4 178,179.2 			"/>
			<rect x="157.2" y="184.4" class="st1" width="13" height="40"/>
			<polygon class="st1" points="167.2,179.2 170.2,184.4 157.2,184.4 154.2,179.2 			"/>
			<rect x="133.5" y="184.4" class="st4" width="13" height="40"/>
			<polygon class="st4" points="143.5,179.2 146.4,184.4 133.5,184.4 130.5,179.2 			"/>
			<rect x="109.7" y="184.4" class="st1" width="13" height="40"/>
			<polygon class="st1" points="119.7,179.2 122.7,184.4 109.7,184.4 106.7,179.2 			"/>
			<rect x="86" y="184.4" class="st4" width="13" height="40"/>
			<polygon class="st4" points="95.9,179.2 98.9,184.4 86,184.4 83,179.2 			"/>
			<rect x="62.2" y="184.4" class="st1" width="13" height="40"/>
			<polygon class="st1" points="72.2,179.2 75.2,184.4 62.2,184.4 59.2,179.2 			"/>
			<rect x="38.4" y="184.4" class="st4" width="13" height="40"/>
			<polygon class="st4" points="48.4,179.2 51.4,184.4 38.4,184.4 35.4,179.2 			"/>
			<rect x="14.7" y="184.4" class="st1" width="13" height="40"/>
			<polygon class="st1" points="24.6,179.2 27.6,184.4 14.7,184.4 11.7,179.2 			"/>
		</g>
		<g>
			<polyline class="st5" points="0,179.2 11.7,179.2 24.6,179.2 35.4,179.2 48.4,179.2 59.2,179.2 72.2,179.2 83,179.2 95.9,179.2 
				106.7,179.2 119.7,179.2 130.5,179.2 143.5,179.2 154.2,179.2 167.2,179.2 178,179.2 191,179.2 201.8,179.2 214.7,179.2 
				225.5,179.2 238.5,179.2 252.5,179.2 261.3,179.2 269.7,184.4 			"/>
			<polyline class="st5" points="269.7,224.4 255.4,224.4 241.5,224.4 228.5,224.4 217.7,224.4 204.8,224.4 194,224.4 181,224.4 
				170.2,224.4 157.2,224.4 146.4,224.4 133.5,224.4 122.7,224.4 109.7,224.4 98.9,224.4 86,224.4 75.2,224.4 62.2,224.4 
				51.4,224.4 38.4,224.4 27.6,224.4 14.7,224.4 0,224.4 			"/>
			<polyline class="st5" points="252.5,179.2 255.4,184.4 255.4,224.4 			"/>
			<polyline class="st5" points="238.5,179.2 241.5,184.4 241.5,224.4 			"/>
			<polyline class="st5" points="225.5,179.2 228.5,184.4 228.5,224.4 			"/>
			<polyline class="st5" points="214.7,179.2 217.7,184.4 217.7,224.4 			"/>
			<polyline class="st5" points="201.8,179.2 204.8,184.4 204.8,224.4 			"/>
			<polyline class="st5" points="191,179.2 194,184.4 194,224.4 			"/>
			<polyline class="st5" points="178,179.2 181,184.4 181,224.4 			"/>
			<polyline class="st5" points="167.2,179.2 170.2,184.4 170.2,224.4 			"/>
			<polyline class="st5" points="154.2,179.2 157.2,184.4 157.2,224.4 			"/>
			<polyline class="st5" points="143.5,179.2 146.4,184.4 146.4,224.4 			"/>
			<polyline class="st5" points="130.5,179.2 133.5,184.4 133.5,224.4 			"/>
			<polyline class="st5" points="119.7,179.2 122.7,184.4 122.7,224.4 			"/>
			<polyline class="st5" points="106.7,179.2 109.7,184.4 109.7,224.4 			"/>
			<polyline class="st5" points="95.9,179.2 98.9,184.4 98.9,224.4 			"/>
			<polyline class="st5" points="83,179.2 86,184.4 86,224.4 			"/>
			<polyline class="st5" points="72.2,179.2 75.2,184.4 75.2,224.4 			"/>
			<polyline class="st5" points="59.2,179.2 62.2,184.4 62.2,224.4 			"/>
			<polyline class="st5" points="48.4,179.2 51.4,184.4 51.4,224.4 			"/>
			<polyline class="st5" points="35.4,179.2 38.4,184.4 38.4,224.4 			"/>
			<polyline class="st5" points="24.6,179.2 27.6,184.4 27.6,224.4 			"/>
			<polyline class="st5" points="11.7,179.2 14.7,184.4 14.7,224.4 			"/>
			<polyline class="st5" points="269.7,184.4 255.4,184.4 241.5,184.4 228.5,184.4 217.7,184.4 204.8,184.4 194,184.4 181,184.4 
				170.2,184.4 157.2,184.4 146.4,184.4 133.5,184.4 122.7,184.4 109.7,184.4 98.9,184.4 86,184.4 75.2,184.4 62.2,184.4 
				51.4,184.4 38.4,184.4 27.6,184.4 14.7,184.4 0,184.4 			"/>
			<line class="st5" x1="261.3" y1="179.2" x2="269.7" y2="179.2"/>
			<line class="st5" x1="0" y1="103.2" x2="269.7" y2="103.2"/>
			<line class="st5" x1="0" y1="109.9" x2="269.7" y2="109.9"/>
		</g>
	</g>
</g>
<g id="レイヤー_2">
	<g id="XMLID_00000112591148287887261080000018365442889224436395_">
		<g>
			<path class="st6" d="M217.3,96.2c1.1,0,2.2-0.1,3.3-0.2c1.4-0.2,2.8-0.4,4.1-0.7c3.1-0.7,5.4-1.5,5.4-1.5
				c2.6,1.3,2.6,1.3,2.6,1.3s1.2,12.7,18,8.4c-2.4,10.7-12.6,26.5-18.7,31.5c-4.7-5.9-10-12.5-12.2-14.7c-0.9-0.9-2-1.6-3.2-2
				c-4.7-1.9-10.9-1-10.9-1s0,0-0.6-11.3c-0.6-11.3-6-9.8-6-9.8s-2.1-2.1-6.3-5.4c0.8-0.5,1.8-0.8,2.7-1.2c2.5-1,4.3-2.5,0.2-8.6
				c-5.5-8.2-5.5-8.2-5.5-8.2h27c0,0,3.8,4,5.3,7c0,0-3.6,1.2-8.5,3.4c-2.9,1.3-6.3,3.1-9.5,5.2C196.1,94.1,211.2,96.2,217.3,96.2z"
				/>
			<path class="st7" d="M250.7,103.5c-16.8,4.3-18-8.4-18-8.4S245.4,98.1,250.7,103.5z"/>
			<path class="st6" d="M237.7,142.2c1.9,2.4,3.1,3.9,3.1,3.9c-11.9,5.3-16,9-21.2,9.6c-5.2,0.6-6.4,0-6.4,0c-0.2,0-0.3-0.1-0.5-0.1
				c0,0,1.3-3,0-5.7C223.8,147.5,234.7,144.5,237.7,142.2z"/>
			<path class="st7" d="M212.7,149.9c-3.1,0.7-6.2,1.3-9.1,1.8c-4.2,0.8-8,1.4-11.1,1.7c-1.1,0.1-2.1,0.2-3,0.3
				c-0.8,0.1-1.5,0.1-2.2,0.1l0-1c10.7-4,34.6-12.8,48.2-13.6c0.8,1.1,1.6,2.1,2.3,2.9C234.7,144.5,223.8,147.5,212.7,149.9z"/>
			<path class="st8" d="M160.3,157.9c-2.6,1-5.7,0.2-7.9-2.2c-0.3-0.4-0.9-1.1-1.5-2.1c-0.4-0.7-0.9-1.5-1.5-2.3
				c-2.3-3.8-5.5-9.2-8.4-14.6c-3.9-7-7.4-13.8-8.5-16.3c4.3-3.2,9.8-3.5,14.4-3c3.1,0.3,5.7,1,7.1,1.5c3.4,1.1,20.6,2.8,28.6,2.8
				c4,0,11.1-0.6,17.9-1.3c6.8-0.7,13.3-1.3,16-1.5l0.2-0.5c1.2,0.5,2.3,1.1,3.2,2c2.2,2.2,7.4,8.8,12.2,14.7
				c1.2,1.5,2.3,2.9,3.4,4.2c-13.5,0.8-37.5,9.6-48.2,13.6l0,1c-5.6,0.2-8.2-1-10.1-2.7c-1-1-1.8-2.2-2.7-3.3c-2.2-3-2.3-4-2.9-3.5
				c-0.1,0.1-0.2,0.2-0.4,0.4c-0.6,0.6-2,2.4-3.6,4.6c-1.6,2.1-3.3,4.6-4.6,6.4C162.3,156.7,161.3,157.5,160.3,157.9z"/>
			<path class="st6" d="M228.7,93.1c0.5,0.3,1,0.5,1.4,0.7c0,0-2.3,0.8-5.4,1.5v0c-1.6-1.1-0.1-7,0-7.3
				C225.5,90.1,226.8,92.1,228.7,93.1z"/>
			<path class="st6" d="M224.7,95.3L224.7,95.3c-1.3,0.3-2.7,0.5-4.1,0.7c0.7-4.5-3.7-9.1-6.3-12.7v0c4.9-2.3,8.5-3.4,8.5-3.4
				c0.4,0.8,0.6,1.4,0.6,2c0,0.3,0,0.7,0.1,1.1c0.1,1.4,0.5,3.3,1.2,5v0C224.6,88.2,223.1,94.2,224.7,95.3z"/>
			<path class="st7" d="M219.4,64.9c5.3,4.4,7.5,7.9,4,18h0c0-0.4-0.1-0.8-0.1-1.1c0-0.6-0.2-1.2-0.6-2c-1.5-3-5.3-7-5.3-7
				C216.8,70.2,217.5,67.6,219.4,64.9z"/>
			<path class="st6" d="M214.3,83.3c2.6,3.7,7,8.2,6.3,12.7c-1.1,0.1-2.2,0.2-3.3,0.2c-6.1,0-21.2-2.1-12.5-7.7
				C208,86.3,211.4,84.6,214.3,83.3L214.3,83.3z"/>
			<path class="st7" d="M199.2,64.9c2.8,0,20.2,0,20.2,0c-2,2.6-2.6,5.3-2,7.9h-27C191.5,66.8,196.5,64.9,199.2,64.9z"/>
			<path class="st8" d="M216.7,118.3l-0.2,0.5c-2.8,0.1-9.2,0.8-16,1.5c1.6-3.3-1.3-24.1-1.3-24.1s5.4-1.5,6,9.8
				c0.6,11.3,0.6,11.3,0.6,11.3S212,116.4,216.7,118.3z"/>
			<path class="st6" d="M212.7,155.6c0.2,0,0.3,0.1,0.5,0.1c-3.7,4.9-6,6.9-11,7.6c-4.2,0.6-6.2,1-7.1,1.2c4.5-4.9,8.1-9.9,8.7-11.9
				C207.9,154.8,210.3,155,212.7,155.6z"/>
			<path class="st6" d="M212.7,149.9c1.3,2.7,0,5.7,0,5.7c-2.4-0.6-4.8-0.8-9-2.9l-0.2-1C206.5,151.2,209.6,150.6,212.7,149.9z"/>
			<path class="st6" d="M203.5,151.7l0.2,1c-0.6,1.9-4.2,7-8.7,11.9c-1,0.2-0.9,0.3-0.9,0.3c-5,2.1-11.8,5.5-12.1,5.6
				c0.2-0.3,5.5-7.5,8.5-12.6c1.1-2,1.9-3.7,1.9-4.5C195.5,153.1,199.3,152.5,203.5,151.7z"/>
			<path class="st8" d="M146.9,117.3c-4.5-0.5-10.1-0.1-14.4,3l-0.2-0.9c-8.8-2.9-6.2-16.8-5.7-22.3c0.5-5.5,7-17.1,9-19.5
				c2-2.4,2.9-7.6,2.2-10.8c-1.9,1.6-4.1,3.2-6.1,4.3c-6.1,3.2-13.3,2.4-17,0.6c-2.1-1.1-4.4-3.4-5.8-5.2l-0.2,0.2
				c-5.1,1.8-16.6,18.9-19.6,26.3c-0.9-0.4-1.7-0.8-2.4-1.1c-0.4-11,0.8-21.5,0.8-21.5c10.9-6.2,21.2-10.7,21.2-10.7
				c2.5,3.9,12.4,14.2,23.7,4.5c5.5-4.4,9.6-9.3,9.6-9.3l0,0c1.9,0.8,4.3,1.8,6.1,2.5c3.7,1.4,13.1,3.4,15.7,6
				c0.9,0.9,2.9,3.6,5.7,7.1c5.3,6.6,13.5,15.8,21.8,19.2c0.6,0.4,1.1,0.9,1.6,1.3c4.1,3.3,6.3,5.4,6.3,5.4s2.9,20.8,1.3,24.1
				c-6.8,0.7-13.9,1.3-17.9,1.3c-8,0-25.2-1.6-28.6-2.8C152.6,118.3,150,117.6,146.9,117.3z"/>
			<path class="st8" d="M195.7,89.6c-0.9,0.4-1.9,0.7-2.7,1.2c-0.5-0.4-1.1-0.8-1.6-1.3c-8.3-3.4-16.5-12.6-21.8-19.2
				c4.3,0.1,14.7-2,15.6,1.8C186,75.9,185.1,83.6,195.7,89.6z"/>
			<path class="st8" d="M192.5,153.5c0,0.8-0.8,2.5-1.9,4.5l-0.1-0.1c-3.5,0.2-11.2,7.4-16,14.7c-1.4,0.2-23.8-5.5-23.8-5.5h-3.7
				c-3.9-2.3-7.5-5.1-10.3-8.5l0-0.1c4.9-1.3,9.6-2.9,14.1-4.8l0.3-0.2c0.6,1,1.2,1.7,1.5,2.1c2.1,2.4,5.3,3.3,7.9,2.2
				c0.5,0,10.3-0.3,16.8-6.6c0.1,0,0.1-0.1,0.2-0.2c1.8,1.7,4.5,2.9,10.1,2.7c0.7,0,1.4-0.1,2.2-0.1
				C190.4,153.7,191.4,153.6,192.5,153.5z"/>
			<path class="st7" d="M190.4,157.9L190.4,157.9c-2.9,5.2-8.2,12.3-8.4,12.7c0,0,0,0,0,0c-3.7,2.9-6.7,6.9-6.7,6.9
				c-3.7-1-8-2.1-12.3-3.5c-5.5-1.7-11.1-3.9-16.1-6.9h3.7c0,0,22.5,5.7,23.8,5.5C179.2,165.3,187,158.1,190.4,157.9z"/>
			<path class="st6" d="M177.2,151.2c-0.1,0.1-0.1,0.1-0.2,0.2l-0.2-0.2c-1.4,0.3-9.4-1.8-9.4-1.8c1.6-2.2,3.1-4,3.6-4.6
				c0.2-0.2,0.3-0.3,0.4-0.4c0.7-0.5,0.7,0.5,2.9,3.5C175.4,149,176.2,150.2,177.2,151.2z"/>
			<path class="st6" d="M176.9,151.1l0.2,0.2c-6.5,6.3-16.3,6.6-16.8,6.6c1-0.4,2-1.2,2.7-2.2c1.2-1.8,3-4.2,4.6-6.4
				C167.5,149.3,175.5,151.4,176.9,151.1z"/>
			<path class="st6" d="M163,174l0,0.1c-13.9,0.9-41.1-2.9-44.2-3.2c-4.4-0.3-6.8-7.5-6.8-7.5l0-0.5c8.2-0.8,16.6-2.2,24.6-4.3
				l0,0.1c2.9,3.4,6.4,6.2,10.3,8.5C151.9,170.1,157.6,172.2,163,174z"/>
			<path class="st7" d="M87.6,163.7c-12.3-0.4-21.4-2.1-23.5-4.1c0.6-0.6,1.2-1.5,1.7-2.5c27.9,2.5,48.2,2.5,83.7-5.9
				c0.5,0.9,1,1.7,1.5,2.3l-0.3,0.2c-4.4,1.9-9.2,3.5-14.1,4.8c-8,2.1-16.4,3.5-24.6,4.3C103.3,163.8,94.9,163.9,87.6,163.7z"/>
			<path class="st8" d="M141,136.6c3,5.3,6.1,10.8,8.4,14.6c-35.5,8.4-55.8,8.4-83.7,5.9c2.7-5.3,3.5-14.3,3.5-14.3l0-0.5
				c1.6-0.1,3.2-0.2,4.6-0.3l0,0.4c3.6,2.4,11.1,4.7,23.6,3.7c12.5-0.9,28.8-2.9,35-7.8c5.2,0,6.7-0.1,6.7-0.1L141,136.6z"/>
			<path class="st9" d="M144.6,51H142c0,0-0.2-16.8-2-23.7c-1.8-6.9-5.1-10.2-5.1-10.2l-0.6,0l-0.1-2c0.3,0,0.5-0.4,0.2-0.6
				l-5.8-4.7c-0.3-0.2-0.7-0.1-0.8,0.2l-1.6,4.3c-0.2,0.4,0.1,0.8,0.5,0.8l1.9,0l0,2.2c0.2,0.3,0.1,1.5,0.3,1.8
				c5,6.5,10.3,26.4,9,33.7c-1.7-1.2-6.7-4.7-8.1-6.5c1.8-2.3,2.2-3.6,2.3-6.2c0.1-2-4.9-0.2-6.3,3.8c-1.2-1.1-2.8-7.8-4.6-17.4
				c0,0-9.6,2.3-14.2,1.5c3-5.6,11.6-10.5,11.6-10.5h-3.5v-1.4h3.9v-1.7l-4.6-3.8c-1.4,6.8-4.6,18.9-18.5,15.9
				c0.1-0.6,0.2-1.5,0.2-1.5s3.7,1.3,6.7-0.1c2.9-1.3,5.8-3.6,7.1-6.5c1.7-3.8,3-10.1,3-11.2s-3-2.6-3-2.6l3.4-3.8l10.2,8.2
				c0,0,1.7-2.7,2.5-3.1c0.8-0.4,3.7-1.5,5.6,0.3c2,1.8,10.7,14.6,11.6,21.8C144.2,35.3,144.6,51,144.6,51z"/>
			<path class="st10" d="M104.3,35.2c0.9-2.9,1.9-5.3,2.7-7.1c4.6,0.8,14.2-1.5,14.2-1.5c1.8,9.6,3.4,16.3,4.6,17.4
				c1.3-4,6.3-5.8,6.3-3.8c-0.1,2.6-0.5,3.9-2.3,6.2c1.4,1.8,6.4,5.3,8.1,6.5c0.4,0.2,0.6,0.4,0.6,0.4s1.5,0.7,3.5,1.5l0,0
				c0,0-4.1,4.9-9.6,9.3c-11.3,9.6-21.2-0.6-23.7-4.5C101.3,52,102.2,42.4,104.3,35.2z M115.3,56.6c0.2-0.2,0.1-0.5-0.2-0.5h-2.6
				c-0.3,0-0.5,0.4-0.2,0.6l1.2,1.1c0.2,0.1,0.4,0.1,0.6,0L115.3,56.6z"/>
			<path class="st8" d="M98.8,99.3c-1.2-1.6-3-3-5.4-4.3c-1.6-0.8-3-1.5-4.3-2.1c3.1-7.4,14.5-24.5,19.6-26.3l0.2-0.2
				c1.5,1.8,3.7,4.1,5.8,5.2c3.7,1.8,10.9,2.6,17-0.6c2-1.1,4.2-2.6,6.1-4.3c0.7,3.2-0.2,8.4-2.2,10.8c-2,2.4-8.6,14-9,19.5
				c-0.5,5.5-3.1,19.4,5.7,22.3l0.2,0.9c1,2.5,4.6,9.3,8.5,16.3l-1.9,1.4c0,0-1.5,0.1-6.7,0.1c-2.9,0-6.9,0-12.4-0.1
				c-15.4-0.3-20.9-5-26.4-8c3.1-4.3,5.7-9.2,6.5-13.5C101.5,110,102.5,104,98.8,99.3z"/>
			<polygon class="st9" points="134.3,15.2 134.3,17.2 128.7,17.4 128.6,15.2 			"/>
			<path class="st8" d="M120.1,138c5.5,0.1,9.5,0.1,12.4,0.1c-6.1,4.9-22.4,6.9-35,7.8c-12.5,0.9-20-1.4-23.6-3.7l0-0.4
				c4.5-0.4,8.3-1.2,10.5-2.5c0.9-0.5,2-1.3,3.1-2.3c0,0,0,0,0,0c2-1.8,4.2-4.3,6.2-7.1C99.1,133,104.6,137.7,120.1,138z"/>
			<path class="st6" d="M112,163.4c0,0,2.4,7.2,6.8,7.5c-18.8,0-21.5-1.5-31.3-7.2c7.3,0.3,15.7,0.1,24.4-0.8L112,163.4z"/>
			<path class="st8" d="M42.4,110.5c0,0,14.9-17.3,28-28.6c4-3.5,9.2-7,14.5-10.1c0.9-0.5,1.7-1,2.6-1.5c0,0-1.3,10.5-0.8,21.5
				c0.7,0.3,1.6,0.7,2.4,1.1c1.3,0.6,2.7,1.3,4.3,2.1c2.4,1.3,4.2,2.7,5.4,4.3c3.7,4.7,2.7,10.7,1.4,17.2c-0.8,4.3-3.5,9.3-6.5,13.5
				c-2,2.8-4.2,5.2-6.2,7.1c0,0,0,0,0,0c-5.1,1.9-20.8-4.9-24.6-6.7c-0.7-0.3-1.2-0.4-1.5-0.4c0,0,0,0,0,0c-0.1,0-0.2,0.1-0.3,0.1
				c-1,0.8,0.6,4.2,1.8,6.1c0.4,0.6,0.9,1.2,1.4,1.9h-7.4c0,0-16.8,0.3-22.7,0s-19.3,1.9-25.4,4.6c1.2-4,3.3-9.7,6.2-14
				c5-7.5,14.3-15.7,18-16.8c0.6-0.2,1.2-0.3,1.9-0.4c0.9-0.2,1.9-0.3,3.1-0.4C39.3,110.9,40.7,110.7,42.4,110.5z"/>
			<path class="st6" d="M62.8,130.4c3.9,1.8,19.6,8.6,24.6,6.7c-1.1,1-2.2,1.8-3.1,2.3c-2.2,1.2-6.1,2-10.5,2.5
				c-1.5,0.1-3,0.3-4.6,0.3c-0.4,0-0.8,0-1.2,0c0,0-2.1-2-3.8-4.1c-0.5-0.6-1-1.3-1.4-1.9c-1.2-1.9-2.8-5.4-1.8-6.1
				c0.1,0,0.2-0.1,0.3-0.1c0,0,0,0,0,0C61.6,130,62.1,130.1,62.8,130.4z"/>
			<path class="st6" d="M50.4,90.1c0.9-0.6,1.7-1.1,2.6-1.6c1.7-4.6,3.1-9.9,3.9-13.6c0.6-2.7,0.9-4.5,0.9-4.5
				c3.1-2.3,22.4-8,27,1.5C79.6,75,74.4,78.4,70.3,82c-13.1,11.3-28,28.6-28,28.6c-1.6,0.2-3.1,0.3-4.4,0.5
				C36.2,104,43,95.3,50.4,90.1z"/>
			<path class="st6" d="M51.1,145.3c-1.4-1.8-2.6-3.2-3.1-3.7c2.2,0,4.4,0,6.7,0.2c4.1,0.4,8.8,0.5,13.3,0.4c0.4,0,0.8,0,1.2,0
				l0,0.5c0,0-0.8,9-3.5,14.3c-0.5,1-1,1.8-1.7,2.5c-0.5-0.1-1.2-0.5-2-1.2C59,155.7,54.3,149.4,51.1,145.3z"/>
			<path class="st7" d="M64.2,138.2c1.7,2.1,3.8,4.1,3.8,4.1c-4.5,0.1-9.2,0-13.3-0.4c-2.3-0.2-4.5-0.3-6.7-0.2
				c-7.6,0.1-14.2,1.3-19.5,1.3c-6.9,0-14,0.9-21.1,4.9c0,0,0.4-2.1,1.3-5.1c6.1-2.6,19.5-4.9,25.4-4.6s22.7,0,22.7,0H64.2z"/>
			<path class="st6" d="M62,158.3c-6.5,1.2-15.5-4.2-18-7.9c3.9-1.9,6.3-4.3,7.1-5.1C54.3,149.4,59,155.7,62,158.3z"/>
			<path class="st6" d="M56.9,74.9C56.9,74.8,56.9,74.8,56.9,74.9c-0.7,3.7-2.1,9-3.8,13.6c-0.9,0.5-1.7,1-2.6,1.6
				c-0.4-0.8-1.6-3.1-3.1-6.3c0,0,0,0,0,0C47.4,83.5,49.9,77.6,56.9,74.9z"/>
			<path class="st7" d="M56.8,74.8L56.8,74.8c-7,2.8-9.4,8.6-9.6,8.9c-0.6-1.2-1.2-2.5-1.8-4c-0.9-1.9-1.5-2.9-2.2-3v0
				C47.5,74.4,54.3,75,56.8,74.8z"/>
			<path class="st6" d="M48,141.6c0.5,0.4,1.6,1.8,3.1,3.7c-0.8,0.8-3.2,3.2-7.1,5.1c-2.4,1.2-5.4,2.2-8.9,2.4
				c-10.2,0.7-23.5-1.9-27.7-5c7-4,14.2-4.9,21.1-4.9C33.8,142.9,40.5,141.7,48,141.6z"/>
			<path class="st6" d="M47.3,83.7c1.5,3.3,2.7,5.6,3.1,6.3c-7.4,5.2-14.2,13.9-12.5,21c-1.1,0.1-2.2,0.3-3.1,0.4
				c0,0-2.6-12,2.2-23.1c3.3-7.7,4.8-11.9,6.3-11.7c0.7,0.1,1.3,1.1,2.2,3C46.1,81.2,46.7,82.5,47.3,83.7
				C47.3,83.7,47.3,83.7,47.3,83.7z"/>
		</g>
		<g>
			<path class="st11" d="M42.4,110.5c0,0,14.9-17.3,28-28.6c4-3.5,9.2-7,14.5-10.1c0.9-0.5,1.7-1,2.6-1.5
				c10.9-6.2,21.2-10.7,21.2-10.7c2.5,3.9,12.4,14.2,23.7,4.5c5.5-4.4,9.6-9.3,9.6-9.3"/>
			<path class="st11" d="M87.5,137.1c-1.1,1-2.2,1.8-3.1,2.3c-2.2,1.2-6.1,2-10.5,2.5c-1.5,0.1-3,0.3-4.6,0.3c-0.4,0-0.8,0-1.2,0
				c-4.5,0.1-9.2,0-13.3-0.4c-2.3-0.2-4.5-0.3-6.7-0.2c-7.6,0.1-14.2,1.3-19.5,1.3c-6.9,0-14,0.9-21.1,4.9c0,0,0.4-2.1,1.3-5.1
				c1.2-4,3.3-9.7,6.2-14c5-7.5,14.3-15.7,18-16.8c0.6-0.2,1.2-0.3,1.9-0.4c0.9-0.2,1.9-0.3,3.1-0.4c1.3-0.2,2.8-0.3,4.4-0.5
				c2.9-0.3,6.2-0.8,9.9-1.5c11.9-2.3,25.2-2.3,25.2-2.3"/>
			<path class="st11" d="M75.8,82.9c3.5,5.3,6,6.6,10.8,8.9c0.7,0.3,1.6,0.7,2.4,1.1c1.3,0.6,2.7,1.3,4.3,2.1
				c2.4,1.3,4.2,2.7,5.4,4.3c3.7,4.7,2.7,10.7,1.4,17.2c-0.8,4.3-3.5,9.3-6.5,13.5c-2,2.8-4.2,5.2-6.2,7.1"/>
			<path class="st11" d="M58.6,93.1c1.8,1.3,6.2,6.5,14.9,5c8.7-1.5,14.7,1.1,15.6,1.2"/>
			<path class="st11" d="M61.3,130.1c-0.1,0-0.2,0.1-0.3,0.1"/>
			<path class="st11" d="M94.4,110.5c-2.4,1.7-26.9,16.7-33.1,19.5"/>
			<path class="st11" d="M68,142.2c0,0-2.1-2-3.8-4.1c-0.5-0.6-1-1.3-1.4-1.9c-1.2-1.9-2.8-5.4-1.8-6.1c0.1-0.1,0.2-0.1,0.3-0.1
				c0,0,0,0,0,0c0.3-0.1,0.8,0,1.5,0.4c3.9,1.8,19.6,8.6,24.6,6.7c0,0,0,0,0,0"/>
			<path class="st11" d="M93.7,130c5.5,3,11,7.7,26.4,8c5.5,0.1,9.5,0.1,12.4,0.1c5.2,0,6.7-0.1,6.7-0.1"/>
			<path class="st11" d="M73.8,142.2c3.6,2.4,11.1,4.7,23.6,3.7c12.5-0.9,28.8-2.9,35-7.8"/>
			<path class="st11" d="M98.8,99.3c0.8-5.3,8.9-16.8,14.1-21.7"/>
			<path class="st11" d="M89.1,92.9c3.1-7.4,14.5-24.5,19.6-26.3"/>
			<path class="st11" d="M87.5,70.3c0,0-1.3,10.5-0.8,21.5"/>
			<path class="st11" d="M107.1,64.2c0,0,0.7,1,1.8,2.3c1.5,1.8,3.7,4.1,5.8,5.2c3.7,1.8,10.9,2.6,17-0.6c2-1.1,4.2-2.6,6.1-4.3
				c3.8-3.1,6.8-6.4,6.8-6.4"/>
			<path class="st11" d="M163,174.1c-13.9,0.9-41.1-2.9-44.2-3.2c-18.8,0-21.5-1.5-31.3-7.2c0,0,0,0,0,0"/>
			<path class="st11" d="M112,163.4c0,0,2.4,7.2,6.8,7.5"/>
			<path class="st11" d="M137.8,66.8c0.7,3.2-0.2,8.4-2.2,10.8c-2,2.4-8.6,14-9,19.5c-0.5,5.5-3.1,19.4,5.7,22.3"/>
			<path class="st11" d="M144.6,79.8c0,0,9.2-11.6,9.2-13c1.5,4.3,4.1,10.8,4.1,10.8c-8.1,5.6-17.7,14.8-21.4,20.8
				c-3.7,5.9-5.3,13.4-2.8,20.4"/>
			<path class="st11" d="M216.5,118.8c-2.8,0.1-9.2,0.8-16,1.5c-6.8,0.7-13.9,1.3-17.9,1.3c-8,0-25.2-1.6-28.6-2.8
				c-1.4-0.5-4-1.2-7.1-1.5c-4.5-0.5-10.1-0.1-14.4,3c1,2.5,4.6,9.3,8.5,16.3c3,5.3,6.1,10.8,8.4,14.6c0.5,0.9,1,1.7,1.5,2.3
				c0.6,1,1.2,1.7,1.5,2.1c2.1,2.4,5.3,3.3,7.9,2.2c1-0.4,2-1.2,2.7-2.2c1.2-1.8,3-4.2,4.6-6.4c1.6-2.2,3.1-4,3.6-4.6
				c0.2-0.2,0.3-0.3,0.4-0.4c0.7-0.5,0.7,0.5,2.9,3.5c0.9,1.2,1.6,2.3,2.7,3.3c1.8,1.7,4.5,2.9,10.1,2.7c0.7,0,1.4-0.1,2.2-0.1
				c0.9-0.1,1.9-0.2,3-0.3c3-0.4,6.9-1,11.1-1.7c2.9-0.5,6-1.2,9.1-1.8c11.1-2.4,22.1-5.4,25-7.7"/>
			<path class="st11" d="M160.3,157.9C160.3,157.9,160.3,157.9,160.3,157.9c0.5,0,10.3-0.3,16.8-6.6c0.1,0,0.1-0.1,0.2-0.2l0,0"/>
			<path class="st11" d="M143.2,127.1c0,0,19.9,17,28.4,17.2"/>
			<path class="st11" d="M146.9,117.3L146.9,117.3c0.7-5.2,0.4-3.1,7.3-8.9c6.9-5.8,7.2-6.8,7.2-9.6"/>
			<path class="st11" d="M141.4,117.1c-0.6-6.2,5.7-15.9,10.8-20.5c5-4.7,21-14.4,21-14.4"/>
			<path class="st11" d="M7.4,147.8c4.2,3,17.5,5.7,27.7,5c3.5-0.2,6.5-1.2,8.9-2.4c3.9-1.9,6.3-4.3,7.1-5.1
				c0.2-0.2,0.3-0.3,0.3-0.3"/>
			<path class="st11" d="M48,141.6c0.5,0.4,1.6,1.8,3.1,3.7c3.2,4.1,7.9,10.4,10.9,13c0.8,0.7,1.5,1.2,2,1.2
				c2.1,2,11.3,3.7,23.5,4.1c7.3,0.3,15.7,0.1,24.4-0.8c8.2-0.8,16.6-2.2,24.6-4.3c4.9-1.3,9.6-2.9,14.1-4.8"/>
			<path class="st11" d="M69.2,142.7c0,0-0.8,9-3.5,14.3c-0.5,1-1,1.8-1.7,2.5"/>
			<path class="st11" d="M44,150.4c2.5,3.7,11.6,9.1,18,7.9"/>
			<path class="st11" d="M47.3,83.7c1.5,3.3,2.7,5.6,3.1,6.3c0.1,0.2,0.2,0.3,0.2,0.3"/>
			<path class="st11" d="M34.9,111.5c0,0-2.6-12,2.2-23.1c3.3-7.7,4.8-11.9,6.3-11.7c0.7,0.1,1.3,1.1,2.2,3c0.6,1.4,1.2,2.8,1.8,4"
				/>
			<path class="st11" d="M37.9,111.1c-1.7-7.1,5.1-15.8,12.5-21c0.9-0.6,1.7-1.1,2.6-1.6c1.7-4.6,3.1-9.9,3.9-13.6
				c0.6-2.7,0.9-4.5,0.9-4.5c3.1-2.3,22.4-8,27,1.5"/>
			<path class="st11" d="M56.9,74.8C56.9,74.8,56.9,74.8,56.9,74.8c-7.1,2.8-9.5,8.6-9.6,8.9c0,0,0,0,0,0"/>
			<path class="st11" d="M43.3,76.7c4.1-2.3,11-1.8,13.5-1.9"/>
			<path class="st11" d="M199.2,96.2c0,0,2.9,20.8,1.3,24.1v0"/>
			<path class="st11" d="M224.7,88c0.8,2.1,2.2,4.1,4.1,5.1c0.5,0.3,1,0.5,1.4,0.7c2.6,1.3,2.6,1.3,2.6,1.3s1.2,12.7,18,8.4
				c-2.4,10.7-12.6,26.5-18.7,31.5"/>
			<path class="st11" d="M193,90.8c0.8-0.5,1.8-0.8,2.7-1.2c2.5-1,4.3-2.5,0.2-8.6c-5.5-8.2-5.5-8.2-5.5-8.2h27c0,0,3.8,4,5.3,7
				c0.4,0.8,0.6,1.4,0.6,2c0,0.3,0,0.7,0.1,1.1c0.1,1.4,0.5,3.3,1.2,5"/>
			<path class="st11" d="M230.1,93.8c0,0-2.3,0.8-5.4,1.5c-1.3,0.3-2.7,0.5-4.1,0.7c-1.1,0.1-2.2,0.2-3.3,0.2
				c-6.1,0-21.2-2.1-12.5-7.7c3.3-2.1,6.6-3.9,9.5-5.2c4.9-2.3,8.5-3.4,8.5-3.4"/>
			<path class="st11" d="M214.3,83.3c2.6,3.7,7,8.2,6.3,12.7"/>
			<path class="st11" d="M217.3,96.2c0,0-2.1,10.7-4,14.4"/>
			<path class="st11" d="M190.4,72.9c1.1-6.1,6-7.9,8.8-7.9c2.8,0,20.2,0,20.2,0c5.3,4.4,7.5,7.9,4,18"/>
			<path class="st11" d="M217.5,72.9c-0.7-2.6,0-5.3,2-7.9"/>
			<path class="st11" d="M169.5,70.3c4.3,0.1,14.7-2,15.6,1.8c0.9,3.8-0.1,11.5,10.6,17.5"/>
			<path class="st11" d="M182,170.6c-3.7,2.9-6.7,6.9-6.7,6.9c-3.7-1-8-2.1-12.3-3.5c-5.5-1.7-11.1-3.9-16.1-6.9
				c-3.9-2.3-7.5-5.1-10.3-8.5"/>
			<path class="st11" d="M108.7,59.6c-7.4-7.6-6.5-17.2-4.3-24.4c0.9-2.9,1.9-5.3,2.7-7.1c4.6,0.8,14.2-1.5,14.2-1.5
				c1.8,9.6,3.4,16.3,4.6,17.4c1.3-4,6.3-5.8,6.3-3.8c-0.1,2.6-0.5,3.9-2.3,6.2c1.4,1.8,6.4,5.3,8.1,6.5c0.4,0.2,0.6,0.4,0.6,0.4
				s1.5,0.7,3.5,1.5c1.9,0.8,4.3,1.8,6.1,2.5c3.7,1.4,13.1,3.4,15.7,6c0.9,0.9,2.9,3.6,5.7,7.1c5.3,6.6,13.5,15.8,21.8,19.2
				c0.6,0.4,1.1,0.9,1.6,1.3c4.1,3.3,6.3,5.4,6.3,5.4s5.4-1.5,6,9.8c0.6,11.3,0.6,11.3,0.6,11.3s6.2-0.8,10.9,1
				c1.2,0.5,2.3,1.1,3.2,2c2.2,2.2,7.4,8.8,12.2,14.7c1.2,1.5,2.3,2.9,3.4,4.2c0.8,1.1,1.6,2.1,2.3,2.9c1.9,2.4,3.1,3.9,3.1,3.9
				c-11.9,5.3-16,9-21.2,9.6c-5.2,0.6-6.4,0-6.4,0c-3.7,4.9-6,6.9-11,7.6c-4.2,0.6-6.2,1-7.1,1.2c-1,0.2-0.9,0.3-0.9,0.3
				c-5,2.1-11.8,5.5-12.1,5.6"/>
			<path class="st11" d="M107.1,28.2c3-5.6,11.6-10.5,11.6-10.5h-3.5v-1.4h3.9v-1.7l-4.6-3.8c-1.4,6.8-4.6,18.9-18.5,15.9
				c0.1-0.6,0.2-1.5,0.2-1.5s3.7,1.3,6.7-0.1c2.9-1.3,5.8-3.6,7.1-6.5c1.7-3.8,3-10.1,3-11.2s-3-2.6-3-2.6l3.4-3.8l10.2,8.2
				c0,0,1.7-2.7,2.5-3.1c0.8-0.4,3.7-1.5,5.6,0.3c2,1.8,10.7,14.6,11.6,21.8c0.9,7.2,1.4,22.9,1.4,22.9H142c0,0-0.2-16.8-2-23.7
				c-1.8-6.9-5.1-10.2-5.1-10.2l-0.6,0l-5.6,0.2c0.2,0.3,0.1,1.5,0.3,1.8c5,6.5,10.3,26.4,9,33.7"/>
			<path class="st11" d="M134.3,15.2c0.3,0,0.5-0.4,0.2-0.6l-5.8-4.7c-0.3-0.2-0.7-0.1-0.8,0.2l-1.6,4.3c-0.2,0.4,0.1,0.8,0.5,0.8
				l1.9,0L134.3,15.2z"/>
			<line class="st11" x1="114.1" y1="33.1" x2="118.1" y2="33.1"/>
			<polyline class="st11" points="107.1,34 104.3,35.2 104.3,35.2 			"/>
			<path class="st11" d="M114.1,43.4c0,0,3.4-1,6.2-0.9"/>
			<path class="st11" d="M103.4,45.8c0,0,3.3-1.5,3.7-1.5"/>
			<path class="st11" d="M108.7,39.8c0,0-0.7,11.9,0,12c0.7,0.1,2.2,0.8,2.9,0.6"/>
			<path class="st11" d="M115.3,56.6l-1.3,1.1c-0.2,0.1-0.4,0.1-0.6,0l-1.2-1.1c-0.2-0.2-0.1-0.6,0.2-0.6h2.6
				C115.3,56.1,115.5,56.4,115.3,56.6z"/>
			<path class="st11" d="M182,170.6C182,170.6,182,170.6,182,170.6c0.2-0.3,5.5-7.5,8.5-12.6c1.1-2,1.9-3.7,1.9-4.5"/>
			<path class="st11" d="M194.9,164.7c0,0,0.1-0.1,0.1-0.1c4.5-4.9,8.1-9.9,8.7-11.9c4.2,2.1,6.6,2.3,9,2.9c0.2,0,0.3,0.1,0.5,0.1"
				/>
			<path class="st11" d="M212.7,155.6c0,0,1.3-3,0-5.7v0"/>
			<path class="st11" d="M167.5,149.3c0,0,8,2.1,9.4,1.8"/>
			<path class="st11" d="M115.4,64c1.1,0.5,4,2.6,9.5-1.4"/>
			<path class="st5" d="M224.7,88L224.7,88c-0.1,0.3-1.6,6.2,0,7.3"/>
			<path class="st11" d="M8.7,142.7c6.1-2.6,19.5-4.9,25.4-4.6s22.7,0,22.7,0h7.4"/>
			<path class="st11" d="M149.7,151.1c-0.1,0-0.2,0-0.3,0.1c-35.5,8.4-55.8,8.4-83.7,5.9"/>
			<path class="st11" d="M146.9,167.1h3.7c0,0,22.5,5.7,23.8,5.5c4.8-7.3,12.6-14.5,16-14.7"/>
			<path class="st11" d="M187.2,152.9c10.7-4,34.6-12.8,48.2-13.6"/>
			<path class="st5" d="M232.7,95.2c0,0,12.7,3,18,8.4"/>
		</g>
	</g>
</g>
</svg>
