<?xml version="1.0" encoding="utf-8"?>
<!-- Generator: Adobe Illustrator 27.8.1, SVG Export Plug-In . SVG Version: 6.00 Build 0)  -->
<svg version="1.1" id="レイヤー_1" xmlns="http://www.w3.org/2000/svg" xmlns:xlink="http://www.w3.org/1999/xlink" x="0px"
	 y="0px" viewBox="0 0 270 200" style="enable-background:new 0 0 270 200;" xml:space="preserve">
<style type="text/css">
	.st0{fill:#FDFFF3;}
	.st1{fill:#DF5956;}
	.st2{fill:#906B9E;}
	.st3{fill:#333333;}
	.st4{fill:#AAAAAA;}
	.st5{fill:#F3D2B1;}
	.st6{fill:none;stroke:#000000;stroke-linecap:round;stroke-linejoin:round;stroke-miterlimit:10;}
</style>
<g id="XMLID_00000013901338628284786250000006060385196696474520_">
	<g>
		<path class="st0" d="M244.75,164.2c4.18,5.37,7.55,10.91,7.3,13.38c-12.15-0.02-17.25-4.02-17.25-4.02
			C238.94,170.57,242.18,167.37,244.75,164.2z"/>
		<path class="st1" d="M252.05,177.58c-0.26,2.47-11.55,8.18-17.25,8.78c-5.71,0.59-22.14,0.25-29.18-0.85v-0.02
			c12.92-2.61,22.29-6.97,29.18-11.93C234.8,173.56,239.9,177.56,252.05,177.58z"/>
		<path class="st2" d="M244.75,164.2c-2.57,3.17-5.81,6.37-9.95,9.36c-6.89,4.96-16.26,9.32-29.18,11.93
			c-5.49,1.12-11.62,1.92-18.47,2.32c-3.26,0.19-6.69,0.29-10.3,0.28c-2.29,0-4.66-0.04-7.1-0.13c-1.82-0.06-3.32-4.09-4.98-8.43
			c-0.89-2.34-1.82-4.77-2.87-6.72c1.88-1.36,3.9-2.74,5.88-4.03c1.79-1.18,3.55-2.29,5.16-3.28c0.4-0.19,0.79-0.43,1.17-0.71
			c0.01-0.01,0.02-0.02,0.03-0.03c3.54-2.16,6.08-3.6,6.08-3.6c9.97-8.9,21.06-18.35,26.99-22.56c1.05-0.74,1.94-1.32,2.63-1.7
			c4.59-2.55,18.63-8.68,25.27-7.91c6.64,0.76,22.98,8.42,17.87,20.93C251.38,153.85,248.98,158.98,244.75,164.2z"/>
		<path class="st0" d="M154.86,133.59c-4.26,1.62-13.11,12.67-13.11,12.67c-4.77-1.02-7.49-14.3-7.83-27.91
			c-0.34-13.62,9.02-30.3,10.89-34.9c1.81-4.42-1.48-8.43-1.73-8.72c0.52-0.44,1.03-0.87,1.5-1.28c1.06-0.69,1.85-1.41,2.28-2.1
			c1.81-1.76,3.05-3.19,3.74-4.03c3.58,2.26,16.85,4.73,20.17,8.56c3.32,3.83,17.87,34.98,21.96,42.38
			c3.22,5.85,10.44,15.21,13.32,18.88C192.74,134.82,154.86,133.59,154.86,133.59z"/>
		<path class="st1" d="M180.39,149.5c0.62,4.34-2.24,12.22-6.25,15.26c-0.01,0.01-0.02,0.02-0.03,0.03
			c-0.38,0.22-0.77,0.46-1.17,0.71c-1.61,0.99-3.37,2.1-5.16,3.28C169.8,162.48,173.58,153.75,180.39,149.5z"/>
		<path class="st0" d="M164.83,188.48l0.07,9.44c0,0-6.89,0.77-12.26,0c-5.36-0.76-33.95-3.83-38.04-6.64
			c-1.52-1.04-3.14-2.72-5.01-4.53c-3.17-3.07-7.05-6.52-12.34-7.95l-0.07-0.12c10.13-6.12,20.44-12.67,25.85-16.95l0.01,0.02
			c10.54,5.79,17.66,6.13,24.82,3.75c4.32,7.23,8.1,12.1,8.1,12.1c1.58-1.5,3.66-3.14,5.94-4.79c1.05,1.95,1.98,4.38,2.87,6.72
			L164.83,188.48z"/>
		<path class="st3" d="M127.88,49.41c0.8,2.56,1.53,4.13,2.68,4.77c-2.17,2.67-6.45,9.07-15.88,8.82c0-0.01,0-0.02,0-0.03
			c3.06-1.71,6.32-3.87,8.39-5.71c0.01,0,0.01,0,0.01,0c1.19-1.06,1.98-2.01,2.12-2.7c0.38-1.91,0.64-5.62,0.64-5.62
			s-0.02-0.04-0.05-0.11l1.9-0.11C127.74,48.94,127.81,49.17,127.88,49.41z"/>
		<path class="st1" d="M128.98,131.28c0,0-4.42,4.09-19.67,14.47c-1.05,1.61-2.72,3.6-4.85,5.8c-8.4,8.75-23.76,20.87-34.37,26.05
			c-3.09,1.51-6.21,2.83-9.3,3.96c-0.01,0-0.01,0-0.01,0c-2.32,0.86-4.61,1.61-6.86,2.25c-7.67,2.21-14.8,3.25-20.25,3.18
			c2.04-5.23,12.08-9.24,27.11-14.34c15.04-5.11,32.12-19.92,39.44-25.88c3.08-2.51,5.57-5.68,7.42-8.51
			c2.54-3.9,3.87-7.15,3.87-7.15l0.09-1.33C121.81,130.49,128.98,131.28,128.98,131.28z"/>
		<path class="st4" d="M123.07,57.26c-2.07,1.84-5.33,4-8.39,5.71c-0.13-2.75,0.32-5.1,1.87-5.65
			C118.48,56.92,120.78,56.99,123.07,57.26z"/>
		<path class="st5" d="M116.73,72.18c-0.9-1.98-1.89-5.86-2.05-9.18c9.43,0.25,13.71-6.15,15.88-8.82
			c-1.15-0.64-1.88-2.21-2.68-4.77c-0.07-0.24-0.14-0.47-0.19-0.69c-0.76-3.1,0.46-4.61,1.81-4.84c1.23-0.22,3.36,1.74,4.63,5.32
			h1.51c0,0,3.6-15.19,4.62-19.28c1.02,1.02,11.06,4,14.5,4.13c2.39,0.09,4.13,0.04,4.82-0.69l0.01,0.01
			c1.31,5.06-3.67,27.11-6.01,30.59c-0.55,0.83-1.33,1.69-2.34,2.53c0,0-0.21,0.3-0.64,0.83c-0.69,0.84-1.93,2.27-3.74,4.03
			c-0.68,0.66-1.44,1.37-2.28,2.1C137.95,77.79,120.84,81.16,116.73,72.18z"/>
		<path class="st0" d="M111.51,63.38c-0.02-3.45,1.76-5.17,4.34-5.89c0.23-0.07,0.46-0.13,0.7-0.17c-1.55,0.55-2,2.9-1.87,5.65
			c-0.02,0.01-0.04,0.02-0.06,0.03c0.02,0,0.04,0,0.06,0c0.16,3.32,1.15,7.2,2.05,9.18c4.11,8.98,21.22,5.61,27.85,1.27
			c-0.47,0.41-0.98,0.84-1.5,1.28c-1.01,0.82-2.12,1.68-3.33,2.55c-7.79,5.62-16.21,4.13-21.57,1.15
			C113.48,75.83,111.53,66.34,111.51,63.38z"/>
		<path class="st1" d="M111.6,129.78l-0.09,1.33c0,0-1.33,3.25-3.87,7.15c-3.41-0.18-12.02-9.34-12.02-9.34
			C101.34,129.13,106.81,129.45,111.6,129.78z"/>
		<path class="st0" d="M68.65,129.81c2.66-2.85,5.14-5.98,7.06-9.25c0.89-1.52,1.99-3.4,3.23-5.54c1.72-2.95,3.72-6.38,5.85-10.04
			c9.24-15.87,20.85-35.85,21.83-37.54l-0.17-0.35c1.51-0.7,3.21-1.59,3.68-2.19c0.36-1.38,1.24-3.7,2.45-6.59
			c0,0,2.65-0.72,3.26-0.84l0.01,0.02c-2.58,0.72-4.36,2.44-4.34,5.89c0.02,2.96,1.97,12.45,6.67,15.05
			c5.36,2.98,13.78,4.47,21.57-1.15c1.21-0.87,2.32-1.73,3.33-2.55c0.25,0.29,3.54,4.3,1.73,8.72c-1.87,4.6-11.23,21.28-10.89,34.9
			c0.34,13.61,3.06,26.89,7.83,27.91c0,0,8.85-11.05,13.11-12.67c0,0,37.88,1.23,51.19,3.55c0.59,0.75,1,1.26,1.16,1.46
			c-5.93,4.21-17.02,13.66-26.99,22.56c0,0-2.54,1.44-6.08,3.6c4.01-3.04,6.87-10.92,6.25-15.26c-6.81,4.25-10.59,12.98-12.61,19.28
			c-1.98,1.29-4,2.67-5.88,4.03c-2.28,1.65-4.36,3.29-5.94,4.79c0,0-3.78-4.87-8.1-12.1c-2.42-4.05-5.02-8.85-7.22-13.94
			c-6.63,3.16-18.89,3.98-36.17,0l-0.01-0.01c2.13-2.2,3.8-4.19,4.85-5.8c15.25-10.38,19.67-14.47,19.67-14.47s-7.17-0.79-17.38-1.5
			c-4.79-0.33-10.26-0.65-15.98-0.86c0,0,8.61,9.16,12.02,9.34c-1.85,2.83-4.34,6-7.42,8.51c-7.32,5.96-24.4,20.77-39.44,25.88
			c-15.03,5.1-25.07,9.11-27.11,14.34c-9.2-0.12-8-12.47-8.69-17.41c-0.06-0.39-0.09-0.85-0.09-1.34
			c-0.04-5.72,3.21-17.74,7.75-23.85c2.12-2.86,6.55-5.52,11.79-7.94c6.95-3.22,15.34-6,21.75-8.23L68.65,129.81z"/>
		<path class="st3" d="M139.4,13.68c-1.05-0.51-3.99,1.37-4.53,2.36c0.22,1.05,4.27,0.8,4.53,0.73
			C139.66,16.71,139.78,14.51,139.4,13.68z M130.81,21.75c-3.76,5.29-13.52,25.24-18.23,36.56c-1.21,2.89-2.09,5.21-2.45,6.59
			c-0.47,0.6-2.17,1.49-3.68,2.19c-1.27,0.6-2.41,1.07-2.55,1.12c0.22-0.24,2.93-3.11,5.41-9.41c0.11-0.26,0.21-0.52,0.31-0.79
			c2.68-7.15,11.11-25.28,13.79-31.02c2.68-5.75,10.34-15.58,16.09-16.73c5.74-1.15,7.27,0,7.27,0c2.43-4.21,3.32-4.59,4.47-6.64
			c1.15-2.04,6.77-2.93,6.13,0c-0.64,2.94-6.13,14.43-6.13,14.43c3.45,3.57,7.74,9.96,8.64,13.91c0.13,0.63,0.02,1.08-0.3,1.4
			c-0.69,0.73-2.43,0.78-4.82,0.69c-3.44-0.13-13.48-3.11-14.5-4.13c-1.02,4.09-4.62,19.28-4.62,19.28h-1.51
			c-1.27-3.58-3.4-5.54-4.63-5.32c-1.35,0.23-2.57,1.74-1.81,4.84l-1.9,0.11c-0.36-0.77-2.41-5.5,0.05-8.31
			c2.68-3.07,4.34-4.85,4.34-4.85c0.38-5.62,0.63-9.83,2.17-10.98c0.25-2.04,0-2.94,0-2.94H130.81z"/>
		<path class="st0" d="M97.25,178.8c5.29,1.43,9.17,4.88,12.34,7.95c-7.84,7.2-28.25,7.26-36.36,5.89
			c4.92-2.74,14.35-8.15,23.95-13.96L97.25,178.8z"/>
		<path class="st0" d="M75.81,85.42l-1.25-2.3c3.53-3.99,6.64-7.34,8.98-10.05c7.49-8.68,18.55-12.76,25.77-14.27
			c-2.48,6.3-5.19,9.17-5.41,9.41c0.14-0.05,1.28-0.52,2.55-1.12l0.17,0.35c-0.98,1.69-12.59,21.67-21.83,37.54l-9.76-19.14
			L75.81,85.42z"/>
		<path class="st0" d="M78.94,115.02c-1.24,2.14-2.34,4.02-3.23,5.54c-1.92,3.27-4.4,6.4-7.06,9.25l-2.47-1.59
			c-6.41,2.23-14.8,5.01-21.75,8.23c-2.52-4.54,4.21-17.42,4.21-17.42c3.3-6.03,6.84-11.55,10.39-16.56
			C59.03,102.47,65.84,113.22,78.94,115.02z"/>
		<path class="st0" d="M75.03,85.84l9.76,19.14c-2.13,3.66-4.13,7.09-5.85,10.04c-13.1-1.8-19.91-12.55-19.91-12.55
			c5.4-7.62,10.84-14.05,15.53-19.35l1.25,2.3L75.03,85.84z"/>
		<path class="st0" d="M73.23,192.64c-0.87,0.49-1.6,0.89-2.17,1.19c0.22-0.17,0.28-0.5,0.14-1.01c-1-3.74-10-10.93-10.41-11.26
			c3.09-1.13,6.21-2.45,9.3-3.96c10.61-5.18,25.97-17.3,34.37-26.05l0.01,0.01c17.28,3.98,29.54,3.16,36.17,0
			c2.2,5.09,4.8,9.89,7.22,13.94c-7.16,2.38-14.28,2.04-24.82-3.75l-0.01-0.02c-5.41,4.28-15.72,10.83-25.85,16.95
			C87.58,184.49,78.15,189.9,73.23,192.64z"/>
		<path class="st0" d="M71.2,192.82c0.14,0.51,0.08,0.84-0.14,1.01c-1.96,1.55-17.14-10.02-17.14-10.02
			c2.25-0.64,4.54-1.39,6.86-2.25c0,0,0,0,0.01,0C61.2,181.89,70.2,189.08,71.2,192.82z"/>
		<path class="st2" d="M48.64,119.03c0,0-6.73,12.88-4.21,17.42c-5.24,2.42-9.67,5.08-11.79,7.94c-4.54,6.11-7.79,18.13-7.75,23.85
			c-1.64-0.9-10.16-5.86-12.16-12.62c-2.21-7.49,3.74-26.21,9.53-30.29C28.05,121.24,38.94,119.37,48.64,119.03z"/>
	</g>
	<g>
		<path class="st6" d="M123.07,57.26c-2.29-0.27-4.59-0.34-6.52,0.06c-0.24,0.04-0.47,0.1-0.7,0.17c-2.58,0.72-4.36,2.44-4.34,5.89
			c0.02,2.96,1.97,12.45,6.67,15.05c5.36,2.98,13.78,4.47,21.57-1.15c1.21-0.87,2.32-1.73,3.33-2.55c0.52-0.44,1.03-0.87,1.5-1.28
			c0.84-0.73,1.6-1.44,2.28-2.1c1.81-1.76,3.05-3.19,3.74-4.03c0.43-0.53,0.64-0.83,0.64-0.83"/>
		<path class="st6" d="M116.73,57.26c-0.06,0.02-0.12,0.04-0.18,0.06c-1.55,0.55-2,2.9-1.87,5.65c0,0.01,0,0.02,0,0.03
			c0.16,3.32,1.15,7.2,2.05,9.18c4.11,8.98,21.22,5.61,27.85,1.27c1.06-0.69,1.85-1.41,2.28-2.1"/>
		<path class="st6" d="M103.88,68.22c0,0,0.01,0,0.02-0.01c0.22-0.24,2.93-3.11,5.41-9.41c0.11-0.26,0.21-0.52,0.31-0.79
			c2.68-7.15,11.11-25.28,13.79-31.02c2.68-5.75,10.34-15.58,16.09-16.73c5.74-1.15,7.27,0,7.27,0c2.43-4.21,3.32-4.59,4.47-6.64
			c1.15-2.04,6.77-2.93,6.13,0c-0.64,2.94-6.13,14.43-6.13,14.43c3.45,3.57,7.74,9.96,8.64,13.91c0.13,0.63,0.02,1.08-0.3,1.4
			c-0.69,0.73-2.43,0.78-4.82,0.69c-3.44-0.13-13.48-3.11-14.5-4.13c-1.02,4.09-4.62,19.28-4.62,19.28h-1.51
			c-1.27-3.58-3.4-5.54-4.63-5.32c-1.35,0.23-2.57,1.74-1.81,4.84c0.05,0.22,0.12,0.45,0.19,0.69c0.8,2.56,1.53,4.13,2.68,4.77
			c-2.17,2.67-6.45,9.07-15.88,8.82c-0.02,0-0.04,0-0.06,0c0.02-0.01,0.04-0.02,0.06-0.03c3.06-1.71,6.32-3.87,8.39-5.71
			c0.01,0,0.01,0,0.01,0c1.19-1.06,1.98-2.01,2.12-2.7c0.38-1.91,0.64-5.62,0.64-5.62s-0.02-0.04-0.05-0.11
			c-0.36-0.77-2.41-5.5,0.05-8.31c2.68-3.07,4.34-4.85,4.34-4.85c0.38-5.62,0.63-9.83,2.17-10.98c0.25-2.04,0-2.94,0-2.94h-1.54
			c-3.76,5.29-13.52,25.24-18.23,36.56c-1.21,2.89-2.09,5.21-2.45,6.59c-0.47,0.6-2.17,1.49-3.68,2.19
			c-1.27,0.6-2.41,1.07-2.55,1.12"/>
		<path class="st6" d="M159.59,33.37c1.31,5.06-3.67,27.11-6.01,30.59c-0.55,0.83-1.33,1.69-2.34,2.53
			c-3.24,2.69-8.88,5.15-17.32,5.47"/>
		<path class="st6" d="M150.6,67.32c3.58,2.26,16.85,4.73,20.17,8.56c3.32,3.83,17.87,34.98,21.96,42.38
			c3.22,5.85,10.44,15.21,13.32,18.88c0.59,0.75,1,1.26,1.16,1.46c0.05,0.06,0.07,0.09,0.07,0.09"/>
		<path class="st6" d="M244.75,164.2c4.18,5.37,7.55,10.91,7.3,13.38c-0.26,2.47-11.55,8.18-17.25,8.78
			c-5.71,0.59-22.14,0.25-29.18-0.85"/>
		<path class="st6" d="M234.8,173.56c0,0,5.1,4,17.25,4.02"/>
		<path class="st6" d="M109.31,58.8c-7.22,1.51-18.28,5.59-25.77,14.27c-2.34,2.71-5.45,6.06-8.98,10.05
			c-4.69,5.3-10.13,11.73-15.53,19.35c-3.55,5.01-7.09,10.53-10.39,16.56c-9.7,0.34-20.59,2.21-26.38,6.3
			c-5.79,4.08-11.74,22.8-9.53,30.29c2,6.76,10.52,11.72,12.16,12.62c0.17,0.1,0.27,0.15,0.27,0.15"/>
		<path class="st6" d="M60.78,181.56c-2.32,0.86-4.61,1.61-6.86,2.25c-7.67,2.21-14.8,3.25-20.25,3.18c-9.2-0.12-8-12.47-8.69-17.41
			c-0.06-0.39-0.09-0.85-0.09-1.34c-0.04-5.72,3.21-17.74,7.75-23.85c2.12-2.86,6.55-5.52,11.79-7.94c6.95-3.22,15.34-6,21.75-8.23"
			/>
		<path class="st6" d="M116.39,91.11c0,0-7.15,31.53-20.77,37.81c5.72,0.21,11.19,0.53,15.98,0.86c10.21,0.71,17.38,1.5,17.38,1.5
			s-4.42,4.09-19.67,14.47c-1.05,1.61-2.72,3.6-4.85,5.8c-8.4,8.75-23.76,20.87-34.37,26.05c-3.09,1.51-6.21,2.83-9.3,3.96"/>
		<path class="st6" d="M95.62,128.92c0,0,8.61,9.16,12.02,9.34"/>
		<path class="st6" d="M111.51,131.11c0,0-1.33,3.25-3.87,7.15c-1.85,2.83-4.34,6-7.42,8.51c-7.32,5.96-24.4,20.77-39.44,25.88
			c-15.03,5.1-25.07,9.11-27.11,14.34"/>
		<path class="st6" d="M60.78,181.56c0,0,0,0,0.01,0c0.41,0.33,9.41,7.52,10.41,11.26c0.14,0.51,0.08,0.84-0.14,1.01
			c-1.96,1.55-17.14-10.02-17.14-10.02"/>
		<path class="st6" d="M71.06,193.83c0.57-0.3,1.3-0.7,2.17-1.19c4.92-2.74,14.35-8.15,23.95-13.96
			c10.13-6.12,20.44-12.67,25.85-16.95c1.98-1.56,3.3-2.81,3.73-3.64"/>
		<path class="st6" d="M73.23,192.64c8.11,1.37,28.52,1.31,36.36-5.89"/>
		<path class="st6" d="M97.25,178.8c5.29,1.43,9.17,4.88,12.34,7.95c1.87,1.81,3.49,3.49,5.01,4.53c4.09,2.81,32.68,5.88,38.04,6.64
			c5.37,0.77,12.26,0,12.26,0l-0.07-9.44l-0.06-8.95"/>
		<path class="st6" d="M174.11,164.79c-0.38,0.22-0.77,0.46-1.17,0.71c-1.61,0.99-3.37,2.1-5.16,3.28c-1.98,1.29-4,2.67-5.88,4.03
			c-2.28,1.65-4.36,3.29-5.94,4.79c0,0-3.78-4.87-8.1-12.1c-2.42-4.05-5.02-8.85-7.22-13.94c-6.63,3.16-18.89,3.98-36.17,0"/>
		<path class="st6" d="M161.9,172.81c1.05,1.95,1.98,4.38,2.87,6.72c1.66,4.34,3.16,8.37,4.98,8.43c2.44,0.09,4.81,0.13,7.1,0.13
			c3.61,0.01,7.04-0.09,10.3-0.28c6.85-0.4,12.98-1.2,18.47-2.32c12.92-2.61,22.29-6.97,29.18-11.93c4.14-2.99,7.38-6.19,9.95-9.36
			c4.23-5.22,6.63-10.35,8.23-14.28c5.11-12.51-11.23-20.17-17.87-20.93c-6.64-0.77-20.68,5.36-25.27,7.91
			c-0.69,0.38-1.58,0.96-2.63,1.7c-5.93,4.21-17.02,13.66-26.99,22.56c0,0-2.54,1.44-6.08,3.6"/>
		<line class="st6" x1="164.9" y1="188.48" x2="169.75" y2="187.96"/>
		<path class="st6" d="M150.6,148.31c0,0,23.66,1.53,29.79,1.19c0.62,4.34-2.24,12.22-6.25,15.26c-0.01,0.01-0.02,0.02-0.03,0.03
			c-0.38,0.28-0.77,0.52-1.17,0.71"/>
		<path class="st6" d="M180.39,149.5c-6.81,4.25-10.59,12.98-12.61,19.28"/>
		<path class="st6" d="M154.86,133.59c0,0,37.88,1.23,51.19,3.55"/>
		<path class="st6" d="M143.07,74.72c0,0,0,0.01,0.01,0.01c0.25,0.29,3.54,4.3,1.73,8.72c-1.87,4.6-11.23,21.28-10.89,34.9
			c0.34,13.61,3.06,26.89,7.83,27.91c0,0,8.85-11.05,13.11-12.67c3.91-10.31,14.98-30.22,21.95-32.77"/>
		<path class="st6" d="M146.18,99.48l8.68-11.94c0,0,4.51,6.7,4.08,6.98c-12.08,7.66-23.3,26.72-17.53,45.96"/>
		<path class="st6" d="M156.05,108.82c0,0-12.26,19.22-8.51,26.54"/>
		<path class="st6" d="M94.43,89.24c0,0,18.38-9.19,24.17-5.28c5.79,3.92,9.87,10.9,10.38,24.17c0.52,13.28,2.1,20.79,2.1,20.79"/>
		<path class="st6" d="M51.2,144.39c0,0,9.48-6.03,17.45-14.58c2.66-2.85,5.14-5.98,7.06-9.25c0.89-1.52,1.99-3.4,3.23-5.54
			c1.72-2.95,3.72-6.38,5.85-10.04c9.24-15.87,20.85-35.85,21.83-37.54c0.05-0.08,0.07-0.12,0.07-0.12"/>
		<path class="st6" d="M59.03,102.47c0,0,6.81,10.75,19.91,12.55"/>
		<path class="st6" d="M84.79,104.98l-9.76-19.14l0.78-0.42l8.24-4.49c0,0-1.02,13.59,1.19,16.99"/>
		<path class="st6" d="M123.04,161.75c10.54,5.79,17.66,6.13,24.82,3.75"/>
		<path class="st6" d="M112.58,58.31c0,0,2.65-0.72,3.26-0.84"/>
		<line class="st6" x1="140.9" y1="47.2" x2="147.96" y2="48.22"/>
		<line class="st6" x1="154.43" y1="49.16" x2="157.58" y2="49.16"/>
		<path class="st6" d="M151.24,43.88c0,0,0.47,11.76,0.55,14.01c0.09,2.24-1.19,1.73-2.38,1.65c-1.19-0.09-1.87-1.65-1.87-1.65"/>
		<line class="st6" x1="146.09" y1="62.52" x2="148.73" y2="63.37"/>
		<line class="st6" x1="139.85" y1="36.73" x2="147.41" y2="38.09"/>
		<line class="st6" x1="156.01" y1="39.03" x2="158.97" y2="39.03"/>
		<path class="st6" d="M117.16,67.32c0.76,1.41,1.53,4.05,3.57,4.13"/>
		<path class="st6" d="M134.87,16.04c0.54-0.99,3.48-2.87,4.53-2.36c0.38,0.83,0.26,3.03,0,3.09
			C139.14,16.84,135.09,17.09,134.87,16.04z"/>
		<path class="st6" d="M48.64,119.03c0,0-6.73,12.88-4.21,17.42"/>
		<path class="st6" d="M202.18,158.51c0,0-15.28,27.27-25.33,29.58c-0.01,0-0.03,0.01-0.04,0.01"/>
		<path class="st6" d="M187.15,187.81c0,0,17.75-12.61,20.13-18.4"/>
		<path class="st6" d="M197.07,180.36c3.74-0.57,15.15-3.97,18.55-7.54"/>
	</g>
</g>
</svg>
