<?xml version="1.0" encoding="UTF-8"?>
<svg id="_レイヤー_1" data-name="レイヤー 1" xmlns="http://www.w3.org/2000/svg" viewBox="0 0 263.63 188.42">
  <defs>
    <style>
      .cls-1 {
        fill: #b190bf;
      }

      .cls-1, .cls-2, .cls-3, .cls-4, .cls-5 {
        stroke-width: 0px;
      }

      .cls-6 {
        fill: none;
        stroke: #000;
        stroke-linecap: round;
        stroke-linejoin: round;
      }

      .cls-2 {
        fill: #f8ddc0;
      }

      .cls-3 {
        fill: #333;
      }

      .cls-4 {
        fill: #dacebe;
      }

      .cls-5 {
        fill: #e75f51;
      }
    </style>
  </defs>
  <g>
    <path class="cls-1" d="m216.51,111.54c2.03,1.18,4.76,1.4,7.53,2.04,4.57,1.06,14.43,3.25,19.74,5.67.68.3,1.28.62,1.79.93.6.37,1.34,1.07,2.2,2.02,5.54,6.13,15.36,22.53,15.36,25.05-3-1.49-17.75,2.14-30,4.52-6.95,1.34-13.08,2.3-15.83,1.69-3.72-.83-6.3-1.3-9.72-1.67-.27-.23-.55-.43-.84-.62,0,0,4.76-11.26,5.99-16.37.42-1.74-.29-2.59-1.47-2.87-2.29-.54-6.35,1-7.51,2.16-1.77,1.76-15.85,11.97-25.71,15.85,0,0-4.22-3.53-5.28-7.4-2.06,1.16-5.54,1.77-9.36,2.06l-.02-.3c2.47-3.52.58-29.93-.12-40.85s-18.58-31.58-18.58-31.58c-.78.81-1.68,1.68-2.71,2.55-4.39,3.72-12.52-.2-16.04-3.37-3.52-3.17-13.86-20.58-13.86-20.58l5.41-4.47h.01c.34.62,11.23,20.14,15.17,21.01,4,.88,8.79-.91,9.31-3.1l-.02-.4c5.34-.22,8.85-1.61,11.39-3.74l8.48,3.24s10.73-1.31,13.62,0c2.78,1.26,20.4,12.66,25.29,17.59h.01c.23.23.42.43.59.63.5.59,1.07,1.31,1.67,2.15,3.98,5.56,9.64,15.95,10.21,22.15.31,3.29,1.54,5.01,3.3,6.02Z"/>
    <path class="cls-5" d="m233.14,151.77c12.25-2.38,27-6.01,30-4.52-4.49,5.29-19.28,14.93-31.43,15.06l1.44-10.54Z"/>
    <path class="cls-4" d="m247.77,93.33l7.57,2.73s-5.11,25.25-7.57,26.14c-.86-.95-1.6-1.64-2.2-2.02-.51-.31-1.11-.63-1.79-.93,3.75-3.05,3.99-25.92,3.99-25.92Z"/>
    <path class="cls-5" d="m247.77,93.33s-.24,22.87-3.99,25.92c-5.31-2.42-15.16-4.61-19.74-5.67-1.26-3.22-4.59-9.43-8.48-15.47,0,0,5.47-2.9,11.78-4.33.76-.18,1.52-.32,2.3-.44,7.22-1.14,18.13,0,18.13,0Z"/>
    <path class="cls-5" d="m229.34,160.08c-2.65-2.69-4.49-4.82-12.03-6.63,2.74.61,8.87-.34,15.83-1.69l-1.44,10.54c-.92-.79-1.67-1.52-2.36-2.22Z"/>
    <path class="cls-4" d="m229.34,160.08c.69.7,1.44,1.44,2.36,2.22-5.68,4.49-14.65,12.14-14.65,12.14-.1-.96-.28-2.16-.54-3.53l12.83-10.84Z"/>
    <path class="cls-5" d="m229.34,160.08l-12.83,10.84c-1.12-6.01-3.82-15.02-8.93-19.14,3.42.36,6,.84,9.72,1.67,7.54,1.81,9.38,3.94,12.03,6.63Z"/>
    <path class="cls-5" d="m221.9,86.69s5.09,5.94,5.44,7.09c-6.31,1.44-11.78,4.33-11.78,4.33l-1.46-2.2.21-.14,7.59-9.07Z"/>
    <path class="cls-4" d="m224,84.17l-1.61,1.93-8.94-11.41c1.15-.57,2.02-1.02,2.37-1.26,5.19,3.52,8.18,10.74,8.18,10.74Z"/>
    <path class="cls-5" d="m213.45,74.7l8.94,11.41-.49.58-7.59,9.07-.21.14c-3.75-5.52-7.84-10.55-11.1-12.53-.6-.84-1.17-1.56-1.67-2.15-.17-.2-.36-.4-.59-.63.34-.16,8.46-3.8,12.7-5.9Z"/>
    <path class="cls-1" d="m217.05,174.45l1.19,11.22s-10.7-3.17-13.87-3.25c-3.17-.08-20.86-3.62-33.8-4.4-4.22-2.36-17.7-7.41-23.48-7.54,16.76-9.99,30.96-20.55,30.96-20.55,16.84.96,24.2,1.27,29.54,1.85,5.11,4.12,7.81,13.13,8.93,19.14.26,1.37.43,2.57.54,3.53Z"/>
    <path class="cls-5" d="m224.04,113.58c-2.77-.64-5.5-.86-7.53-2.04-1.76-1.01-2.99-2.73-3.3-6.02-.57-6.2-6.23-16.58-10.21-22.15,3.26,1.98,7.34,7,11.1,12.53l1.46,2.2c3.89,6.04,7.22,12.26,8.48,15.47Z"/>
    <path class="cls-4" d="m218.24,185.67s0,1.45-6.48,2.11c-6.46.66-33.28-1.58-37.5-1.84-6.43.24-14.73-4.02-20.89-7.9h0c-5.06-3.2-8.69-6.13-8.69-6.13.81-.48,1.61-.95,2.4-1.42,5.78.13,19.26,5.18,23.48,7.54,12.94.78,30.64,4.31,33.8,4.4,3.18.08,13.87,3.25,13.87,3.25Z"/>
    <path class="cls-5" d="m211.27,131.93c1.18.28,1.89,1.13,1.47,2.87-1.23,5.11-5.99,16.37-5.99,16.37.29.19.57.39.84.62-5.34-.58-12.7-.89-29.54-1.85,9.87-3.88,23.95-14.09,25.71-15.85,1.16-1.16,5.22-2.7,7.51-2.16Z"/>
    <path class="cls-1" d="m163.41,144.6c3.82-.29,7.3-.9,9.36-2.06,1.06,3.87,5.28,7.4,5.28,7.4,0,0-14.2,10.56-30.96,20.55,0,0-4.6-1.19-9.88,0-5.29,1.19-31.34,10.43-36.1,11.84-4.75,1.41-13.27-13.23-13.27-13.23-.39-1.78-.84-3.7-1.34-5.79-.1.27-.25.57-.43.87l-2.38-.87-12.67,7.18s-8.81-13.68-11.98-13.46c-3.17.24-29.4,2.59-38.91,1.53-9.51-1.06-7.27-14.26-7.27-14.26,1.77-6.04,3.55-11.16,4.42-12.37l3.56-3.12,16.37-10.74,1.94-.97,1.93-.96c3.71-5.94,9.31-14.15,14.94-22.04,2.77-3.89,5.54-7.71,8.11-11.13,3.8-5.06,7.12-9.28,9.26-11.64.4-.44.79-.89,1.13-1.3,2-2.37,3.32-4.25,6.09-5.31,3.26-1.23,21.04-9.33,21.04-9.33l6.56-2.42.44-.12s0-.01.01-.04l1.09-.4,2.34-1.92s10.34,17.42,13.86,20.58c3.53,3.18,11.66,7.1,16.04,3.37,1.03-.88,1.93-1.75,2.71-2.55,0,0,17.87,20.67,18.58,31.58s2.6,37.33.12,40.85l.02.3Zm-82.01-.3l3.34,10.21-16.37,6.52c13.21.88,36.53-.04,43.71-3.63-16.42-5-30.68-13.09-30.68-13.09Zm27.77-53.9c-.86-1.16-15.07-20.38-14.05-23.16-9.68,5.22-11.44,6.46-11.44,6.46,0,0,15.23,9.41,23.01,17.09l2.47-.39Z"/>
    <path class="cls-5" d="m153.38,178.04c6.16,3.88,14.46,8.14,20.89,7.9-12.02.92-24.96,1.45-32.1-.93,4.88-2.33,11.34-4.23,11.2-6.97Z"/>
    <path class="cls-2" d="m155.12,42.34v10.36l2.74,1.08c-1.19,2.29-2.55,4.34-4.51,5.98-2.53,2.13-6.05,3.53-11.39,3.74l.02.4c-.52,2.19-5.31,3.98-9.31,3.1-3.94-.87-14.83-20.39-15.17-21l4.45,3.18c-.31.64.41,1.28,1.01.89,2.87-1.91,7.93-5.21,10.75-6.49-1.21.43-1.76-.34-1.87-3.43-.04-1.27,2.07-6.95,4.23-4.41.97,1.16.97,2.3,1.58,4.14,1.58-1.41,3.96-10.91,5.99-16.81,0,0,2.38,2.46,4.66,2.91,2.29.43,8.63.35,11.44-2.47-.02-.23-.05-.44-.08-.66,1.67,5.5,2.67,13.12,1.91,19.7l-2.09-.22h-4.36Z"/>
    <path class="cls-2" d="m159.48,42.34l2.09.22c-.3,2.65-.89,5.13-1.83,7.24-.61,1.38-1.22,2.71-1.88,3.98l-2.74-1.08v-10.36h4.36Z"/>
    <path class="cls-3" d="m159.66,22.86c.03.22.06.43.08.66-2.81,2.82-9.15,2.91-11.44,2.47-2.29-.44-4.66-2.91-4.66-2.91-2.03,5.9-4.41,15.4-5.99,16.81-.61-1.84-.61-2.98-1.58-4.14-2.16-2.54-4.27,3.13-4.23,4.41.11,3.09.66,3.87,1.87,3.43-2.81,1.27-7.88,4.57-10.75,6.49-.6.39-1.32-.25-1.01-.89,1.23-2.5,3.22-6.43,4.7-8.59-.18-4.05,1.93-10.4,4.76-12.33.18-2.64,3.34-10.03,3.69-10.74s.35-1.61.35-1.61h-4.29v-2.97h5.35v-2.11c-2.04-4.02-2.31-7.4-2.31-7.4-5.21,4.35-13.53,17.76-17.37,24.89-3.71,6.93-7.93,23.52-8.17,24.46l-.46.17-2.6.72s-.06-6.8,1.25-12.87c1.32-6.07,15.74-34.56,24.02-39.4,1.58-.61,7.22-2.02,8.18.62.97,2.73.97,3.17.97,3.17h2.73l2.29-4.31h8.27s-4.49,8.1-4.05,11.18c2.73.34,9.31,3.97,10.38,10.73,0,.01.01.03.01.05Z"/>
    <path class="cls-5" d="m153.38,178.04c.13,2.74-6.32,4.64-11.2,6.97-6.37,1.34-23.49,2.43-35.24,2.78,10.15-1.14,24.56-8.18,37.75-15.89,0,0,3.63,2.94,8.69,6.12h0Z"/>
    <path class="cls-4" d="m147.09,170.49c-.79.47-1.59.94-2.4,1.42-13.2,7.71-27.61,14.75-37.75,15.89-3.33.1-6.23.14-8.33.11-1.43-.02-2.96-.2-4.53-.49-3.02-.81-3.48-5.94-6.24-18.32,0,0,8.52,14.64,13.27,13.23,4.76-1.42,30.81-10.65,36.1-11.84,5.28-1.19,9.88,0,9.88,0Z"/>
    <path class="cls-1" d="m109.17,90.4l-2.47.39c-7.79-7.67-23.01-17.09-23.01-17.09,0,0,1.76-1.24,11.44-6.46-1.02,2.78,13.19,22,14.05,23.16Z"/>
    <path class="cls-5" d="m81.4,144.3s14.26,8.1,30.68,13.09c-7.18,3.59-30.5,4.51-43.71,3.63l16.37-6.52-3.34-10.21Z"/>
    <path class="cls-5" d="m87.84,169.1c2.76,12.38,3.22,17.51,6.24,18.32-8.97-1.61-19.5-6.81-20.96-7.03,0,0-1.09-1.41-2.65-3.55l.54-.32c4.88-2.61,12.79-8.53,15.05-12.34.19-.3.33-.6.43-.87.51,2.09.95,4.01,1.34,5.79Z"/>
    <path class="cls-4" d="m83.68,163.31l2.38.87c-2.25,3.81-10.17,9.73-15.05,12.34l-.54.32c-2.62-3.56-6.56-9.12-8.98-13.53-6.68,2.65-53.34,2.55-53.34,2.55.14-4.32,2.4-13.72,4.7-21.57,0,0-2.23,13.21,7.27,14.26,9.52,1.06,35.75-1.29,38.91-1.53,3.17-.23,11.98,13.46,11.98,13.46l12.67-7.18Z"/>
    <path class="cls-4" d="m74.18,69.74l.33.28c-.34.41-.72.86-1.13,1.3-2.14,2.36-5.46,6.58-9.26,11.64l-1.07-.48-5.69-8.06-2.38-3.37-11.52,5.31c-.06-2.62-5.61-7.02-9.69-9.12,0,0,30.63-1.2,40.4,2.5Z"/>
    <path class="cls-5" d="m73.12,180.39c-.65.11-1.34.22-2.07.3l-.04-.3s-16.73-13.55-17.79-14.25c5.81-.7,8.27-2.82,8.27-2.82,2.42,4.41,6.36,9.97,8.98,13.53,1.56,2.14,2.65,3.55,2.65,3.55Z"/>
    <path class="cls-5" d="m71.01,180.39l.04.3c-10.14,1.25-27.45-.05-32.14-5.84,0,0,11.49-3.79,14.31-8.71,1.07.7,17.79,14.25,17.79,14.25Z"/>
    <path class="cls-5" d="m63.06,82.49l1.07.48c-2.57,3.42-5.34,7.24-8.11,11.13l-.11-.08,1.47-19.58,5.69,8.06Z"/>
    <path class="cls-5" d="m61.5,163.31s-2.46,2.12-8.27,2.82c-2.81,4.92-14.31,8.71-14.31,8.71-11.48-.53-25.08,1.85-30.76-8.98,0,0,46.66.09,53.34-2.55Z"/>
    <path class="cls-5" d="m54.99,71.06l2.38,3.37-1.47,19.58.11.08c-5.63,7.89-11.22,16.1-14.94,22.04l-1.93.96v-23.32l2.68-3.5-11.48-7.86,13.13-6.05,11.52-5.31Z"/>
    <path class="cls-4" d="m43.47,76.36l-13.13,6.05c2.11-12.94,3.43-15.17,3.43-15.17,4.09,2.1,9.63,6.51,9.69,9.12Z"/>
    <path class="cls-5" d="m41.82,90.28l-2.68,3.5-8.8,4.36c-.59-.78-.91-2.07-1.03-3.58-.43-4.89,1.03-12.14,1.03-12.14l11.48,7.86Z"/>
    <path class="cls-5" d="m14.95,129.06c-6.2-7.48-14.45-16.15-14.45-16.15l29.84-14.78,8.8-4.36v23.32l-1.94.97-16.37,10.74-3.56,3.12c-.71-.92-1.49-1.87-2.32-2.85h0Z"/>
    <path class="cls-5" d="m30.34,98.14L.5,112.92s3.78-4.29,8.67-9.66l20.13-8.7h.01c.12,1.51.44,2.8,1.03,3.58Z"/>
    <path class="cls-4" d="m29.31,94.56h-.01l-20.13,8.7c7.96-8.75,18.88-20.35,21.17-20.84,0,0-1.47,7.25-1.03,12.14Z"/>
  </g>
  <g>
    <path class="cls-6" d="m159.66,22.86c.03.22.06.43.08.66-2.81,2.82-9.15,2.91-11.44,2.47-2.29-.44-4.66-2.91-4.66-2.91-2.03,5.9-4.41,15.4-5.99,16.81-.61-1.84-.61-2.98-1.58-4.14-2.16-2.54-4.27,3.13-4.23,4.41.11,3.09.66,3.87,1.87,3.43-2.81,1.27-7.88,4.57-10.75,6.49-.6.39-1.32-.25-1.01-.89,1.23-2.5,3.22-6.43,4.7-8.59-.18-4.05,1.93-10.4,4.76-12.33.18-2.64,3.34-10.03,3.69-10.74s.35-1.61.35-1.61h-4.29v-2.97h5.35v-2.11c-2.04-4.02-2.31-7.4-2.31-7.4-5.21,4.35-13.53,17.76-17.37,24.89-3.71,6.93-7.93,23.52-8.17,24.46-.01.03-.01.04-.01.04l-.44.12-2.6.72s-.06-6.8,1.25-12.87c1.32-6.07,15.74-34.56,24.02-39.4,1.58-.61,7.22-2.02,8.18.62.97,2.73.97,3.17.97,3.17h2.73l2.29-4.31h8.27s-4.49,8.1-4.05,11.18c2.73.34,9.31,3.97,10.38,10.73"/>
    <polyline class="cls-6" points="155.12 38.31 155.12 42.34 155.12 52.71 152.75 53.69"/>
    <path class="cls-6" d="m144.69,41.74h3.83"/>
    <line class="cls-6" x1="156.57" y1="42.34" x2="159.48" y2="42.34"/>
    <path class="cls-6" d="m146.6,31.24s2.24-.26,3.43,0"/>
    <path class="cls-6" d="m157.24,31.65s2.31-.21,2.91,0"/>
    <path class="cls-6" d="m148.85,57.33s2.11.53,2.91.46"/>
    <path class="cls-6" d="m117.49,46.01h.01c.34.62,11.23,20.14,15.17,21.01,4,.88,8.79-.91,9.31-3.1"/>
    <line class="cls-6" x1="121.94" y1="49.19" x2="117.5" y2="46.02"/>
    <path class="cls-6" d="m129.11,56.25c2.8,3.61,6.68,7.24,10.95,7.29.66.01,1.29,0,1.89-.03,5.34-.22,8.85-1.61,11.39-3.74,1.95-1.63,3.32-3.69,4.51-5.98.66-1.27,1.27-2.61,1.88-3.98.94-2.11,1.53-4.59,1.83-7.24.76-6.59-.25-14.2-1.91-19.7,0-.02-.01-.04-.01-.05"/>
    <path class="cls-6" d="m14.95,129.06c-6.2-7.48-14.45-16.15-14.45-16.15,0,0,3.78-4.29,8.67-9.66,7.96-8.75,18.88-20.35,21.17-20.84,2.11-12.94,3.43-15.17,3.43-15.17,0,0,30.63-1.2,40.4,2.5"/>
    <path class="cls-6" d="m200.75,80.59c.23.23.42.43.59.63.5.59,1.07,1.31,1.67,2.15,3.98,5.56,9.64,15.95,10.21,22.15.31,3.29,1.54,5.01,3.3,6.02,2.03,1.18,4.76,1.4,7.53,2.04,4.57,1.06,14.43,3.25,19.74,5.67.68.3,1.28.62,1.79.93.6.37,1.34,1.07,2.2,2.02,5.54,6.13,15.36,22.53,15.36,25.05-4.49,5.29-19.28,14.93-31.43,15.06-5.68,4.49-14.65,12.14-14.65,12.14l1.19,11.22s0,1.45-6.48,2.11c-6.46.66-33.28-1.58-37.5-1.84-12.02.92-24.96,1.45-32.1-.93-6.37,1.34-23.49,2.43-35.24,2.78-3.33.1-6.23.14-8.33.11-1.43-.02-2.96-.2-4.53-.49-8.97-1.61-19.5-6.81-20.96-7.03-.65.11-1.34.22-2.07.3-10.14,1.25-27.45-.05-32.14-5.84-11.48-.53-25.08,1.85-30.76-8.98.14-4.32,2.4-13.72,4.7-21.57,1.77-6.04,3.55-11.16,4.42-12.37-.71-.92-1.49-1.87-2.32-2.85"/>
    <path class="cls-6" d="m153.35,59.76l8.48,3.24s10.73-1.31,13.62,0c2.78,1.26,20.4,12.66,25.29,17.59"/>
    <path class="cls-6" d="m117.49,46.01l-5.41,4.47-2.34,1.92-1.09.4-.46.17-6.56,2.42s-17.78,8.1-21.04,9.33c-2.77,1.06-4.1,2.94-6.09,5.31-.34.41-.72.86-1.13,1.3-2.14,2.36-5.46,6.58-9.26,11.64-2.57,3.42-5.34,7.24-8.11,11.13-5.63,7.89-11.22,16.1-14.94,22.04l-1.93.96-1.94.97-16.37,10.74-3.56,3.12"/>
    <polyline class="cls-6" points=".5 112.92 30.34 98.14 39.14 93.77 41.82 90.28 30.34 82.41 43.47 76.36 54.99 71.06 57.37 74.43 63.06 82.49"/>
    <line class="cls-6" x1="57.37" y1="74.43" x2="55.9" y2="94.01"/>
    <line class="cls-6" x1="39.14" y1="93.77" x2="39.14" y2="117.1"/>
    <polyline class="cls-6" points="14.14 112.92 14.95 129.06 14.95 129.07"/>
    <path class="cls-6" d="m33.78,67.24c4.09,2.1,9.63,6.51,9.69,9.12"/>
    <path class="cls-6" d="m112.08,50.47s10.34,17.42,13.86,20.58c3.53,3.18,11.66,7.1,16.04,3.37,1.03-.88,1.93-1.75,2.71-2.55,2.49-2.62,3.63-4.63,3.63-4.63"/>
    <path class="cls-6" d="m144.69,71.87s17.87,20.67,18.58,31.58,2.6,37.33.12,40.85"/>
    <path class="cls-6" d="m154.61,65.07c6.54,2.47,22.03,16.91,24.15,28.7,2.11,11.79,3.17,43.13,3.17,43.13,0,0-6.69,5.29-9.15,5.64,1.06,3.87,5.28,7.4,5.28,7.4,0,0-14.2,10.56-30.96,20.55-.79.47-1.59.94-2.4,1.42-13.2,7.71-27.61,14.75-37.75,15.89-.46.06-.9.09-1.33.12"/>
    <path class="cls-6" d="m263.13,147.25c-3-1.49-17.75,2.14-30,4.52-6.95,1.34-13.08,2.3-15.83,1.69-3.72-.83-6.3-1.3-9.72-1.67-5.34-.58-12.7-.89-29.54-1.85,9.87-3.88,23.95-14.09,25.71-15.85,1.16-1.16,5.22-2.7,7.51-2.16,1.18.28,1.89,1.13,1.47,2.87-1.23,5.11-5.99,16.37-5.99,16.37.29.19.57.39.84.62,5.11,4.12,7.81,13.13,8.93,19.14.26,1.37.43,2.57.54,3.53"/>
    <path class="cls-6" d="m217.31,153.45c7.54,1.81,9.38,3.94,12.03,6.63.69.7,1.44,1.44,2.36,2.22l1.44-10.54"/>
    <path class="cls-6" d="m185.79,117.37s26.47,13.82,25.48,14.56"/>
    <path class="cls-6" d="m186.32,108.44s11.24,7.97,30.19,10.8c3.17.49,6.55.82,10.13.94"/>
    <polyline class="cls-6" points="216.51 111.54 216.51 119.24 216.51 119.25"/>
    <path class="cls-6" d="m180.87,102.05c0-1.23,9.86-12.25,13.55-13.07-4.22-4.18-8.63-7.17-8.63-7.17l-2.29,6.15"/>
    <path class="cls-6" d="m125.58,115.39l7.78-9.12.34,13.91-18.15,13.03c5.64-13.38,10.91-34.86,7.04-46.66-3.88-11.79-11.98-26.79-11.98-26.79"/>
    <path class="cls-6" d="m109.21,90.45s-.01-.02-.04-.05c-.86-1.16-15.07-20.38-14.05-23.16-9.68,5.22-11.44,6.46-11.44,6.46,0,0,15.23,9.41,23.01,17.09,1.8,1.78,3.2,3.45,3.92,4.91,3.88,7.75,5.81,14.79,5.81,14.79"/>
    <path class="cls-6" d="m73.3,85.32s27.11,9.68,29.92,15.85c1.08,2.35,2.1,3.88,2.35,5.23.41,2.21-1.21,3.94-7.97,7.9-10.92,6.4-47.86,14.15-54.13,14.15,0,0,23.14,5.32,30.18,3.36"/>
    <path class="cls-6" d="m64.85,108.44s27.01-2.03,40.72-2.04c3.62,0,6.31.13,7.34.49"/>
    <path class="cls-6" d="m8.15,165.87s46.66.09,53.34-2.55c2.42,4.41,6.36,9.97,8.98,13.53,1.56,2.14,2.65,3.55,2.65,3.55"/>
    <path class="cls-6" d="m71.01,180.39s-16.73-13.55-17.79-14.25c5.81-.7,8.27-2.82,8.27-2.82"/>
    <path class="cls-6" d="m38.92,174.84s11.49-3.79,14.31-8.71"/>
    <path class="cls-6" d="m71.01,176.52c4.88-2.61,12.79-8.53,15.05-12.34.19-.3.33-.6.43-.87.51,2.09.95,4.01,1.34,5.79,2.76,12.38,3.22,17.51,6.24,18.32.17.05.35.08.54.1"/>
    <path class="cls-6" d="m12.85,144.3s-2.23,13.21,7.27,14.26c9.52,1.06,35.75-1.29,38.91-1.53,3.17-.23,11.98,13.46,11.98,13.46l12.67-7.18,2.38.87"/>
    <path class="cls-6" d="m87.84,169.1s8.52,14.64,13.27,13.23c4.76-1.42,30.81-10.65,36.1-11.84,5.28-1.19,9.88,0,9.88,0,5.78.13,19.26,5.18,23.48,7.54,12.94.78,30.64,4.31,33.8,4.4,3.18.08,13.87,3.25,13.87,3.25"/>
    <path class="cls-6" d="m153.38,178.04c6.16,3.88,14.46,8.14,20.89,7.9"/>
    <path class="cls-6" d="m144.69,171.91s3.63,2.94,8.69,6.12"/>
    <path class="cls-6" d="m142.18,185.01c4.88-2.33,11.34-4.23,11.2-6.97h0"/>
    <path class="cls-6" d="m115.2,140.96l-3.12,16.44c-16.42-5-30.68-13.09-30.68-13.09,7.22-1.76,24.23-24.12,24.23-24.12"/>
    <path class="cls-6" d="m81.4,144.3l3.34,10.21-16.37,6.52c13.21.88,36.53-.04,43.71-3.63,0,0,24.07-7.81,28.3-12.39"/>
    <path class="cls-6" d="m144.69,144.3s10.21.94,18.72.3c3.82-.29,7.3-.9,9.36-2.06"/>
    <path class="cls-6" d="m200.74,80.59h.01c.34-.16,8.46-3.8,12.7-5.9,1.15-.57,2.02-1.02,2.37-1.26,5.19,3.52,8.18,10.74,8.18,10.74l-1.61,1.93-.49.58-7.59,9.07"/>
    <path class="cls-6" d="m221.9,86.69s5.09,5.94,5.44,7.09"/>
    <path class="cls-6" d="m215.56,98.11s5.47-2.9,11.78-4.33c.76-.18,1.52-.32,2.3-.44,7.22-1.14,18.13,0,18.13,0,0,0-.24,22.87-3.99,25.92"/>
    <path class="cls-6" d="m247.77,93.33l7.57,2.73s-5.11,25.25-7.57,26.14"/>
    <line class="cls-6" x1="213.45" y1="74.7" x2="222.39" y2="86.11"/>
    <path class="cls-6" d="m202.98,83.37s.01.01.02.01c3.26,1.98,7.34,7,11.1,12.53l1.46,2.2c3.89,6.04,7.22,12.26,8.48,15.47"/>
    <path class="cls-6" d="m30.34,82.41s-1.47,7.25-1.03,12.14c.12,1.51.44,2.8,1.03,3.58"/>
    <polyline class="cls-6" points="216.51 170.92 229.34 160.08 229.35 160.08"/>
    <line class="cls-6" x1="9.17" y1="103.26" x2="29.3" y2="94.56"/>
  </g>
</svg>