<?xml version="1.0" encoding="utf-8"?>
<!-- Generator: Adobe Illustrator 27.9.0, SVG Export Plug-In . SVG Version: 6.00 Build 0)  -->
<svg version="1.1" xmlns="http://www.w3.org/2000/svg" xmlns:xlink="http://www.w3.org/1999/xlink" x="0px" y="0px"
	 viewBox="0 0 268.9 217.5" style="enable-background:new 0 0 268.9 217.5;" xml:space="preserve">
<style type="text/css">
	.st0{fill:none;stroke:#000000;stroke-miterlimit:10;}
	.st1{fill:#F7FDE9;}
	.st2{fill:#E94335;}
	.st3{fill:#EDFEB5;}
	.st4{fill:#FFFADA;}
	.st5{fill:#89DFFC;}
	.st6{fill:#B190BF;}
	.st7{fill:#E75F51;}
	.st8{fill:#DACEBE;}
	.st9{fill:#F8DDC0;}
	.st10{fill:#333333;}
	.st11{fill:none;stroke:#000000;stroke-linecap:round;stroke-linejoin:round;stroke-miterlimit:10;}
</style>
<g id="_レイヤー_1">
</g>
<g id="レイヤー_1">
	<path class="st0" d="M249.9,172.1"/>
</g>
<g id="レイヤー_3">
	<g>
		<g>
			<polygon class="st1" points="268.7,172 268.7,177.2 260.4,172 			"/>
			<rect x="240.6" y="177.2" class="st1" width="13.9" height="39.8"/>
			<polygon class="st1" points="251.5,172 254.5,177.2 240.6,177.2 237.6,172 			"/>
			<rect x="217" y="177.2" class="st1" width="10.7" height="39.8"/>
			<polygon class="st1" points="224.7,172 227.7,177.2 217,177.2 214,172 			"/>
			<rect x="193.3" y="177.2" class="st1" width="10.7" height="39.8"/>
			<polygon class="st1" points="201.1,172 204,177.2 193.3,177.2 190.3,172 			"/>
			<rect x="169.6" y="177.2" class="st1" width="10.7" height="39.8"/>
			<polygon class="st1" points="177.4,172 180.4,177.2 169.6,177.2 166.7,172 			"/>
			<rect x="146" y="177.2" class="st1" width="10.7" height="39.8"/>
			<polygon class="st1" points="153.8,172 156.7,177.2 146,177.2 143,172 			"/>
			<rect x="122.3" y="177.2" class="st1" width="10.7" height="39.8"/>
			<polygon class="st1" points="130.1,172 133.1,177.2 122.3,177.2 119.4,172 			"/>
			<rect x="98.7" y="177.2" class="st1" width="10.7" height="39.8"/>
			<polygon class="st1" points="106.4,172 109.4,177.2 98.7,177.2 95.7,172 			"/>
			<rect x="75" y="177.2" class="st1" width="10.7" height="39.8"/>
			<polygon class="st1" points="82.8,172 85.8,177.2 75,177.2 72,172 			"/>
			<rect x="51.3" y="177.2" class="st1" width="10.7" height="39.8"/>
			<polygon class="st1" points="59.1,172 62.1,177.2 51.3,177.2 48.4,172 			"/>
			<rect x="27.7" y="177.2" class="st1" width="10.7" height="39.8"/>
			<polygon class="st1" points="35.5,172 38.4,177.2 27.7,177.2 24.7,172 			"/>
			<rect x="0.2" y="177.2" class="st1" width="14.6" height="39.8"/>
			<polygon class="st1" points="11.8,172 14.8,177.2 0.2,177.2 0.2,172 			"/>
			<rect x="254.5" y="177.2" class="st2" width="14.2" height="39.8"/>
			<polygon class="st3" points="268.7,103.2 268.7,172 260.4,172 251.5,172 237.6,172 224.7,172 214,172 201.1,172 190.3,172 
				177.4,172 166.7,172 153.8,172 143,172 130.1,172 119.4,172 106.4,172 95.7,172 82.8,172 72,172 59.1,172 48.4,172 35.5,172 
				24.7,172 11.8,172 0.2,172 0.2,103.5 			"/>
			<polygon class="st4" points="268.7,102.5 268.7,103.2 0.2,103.5 37,103.2 253,102.5 			"/>
			<polygon class="st4" points="268.7,96.4 268.7,102.5 253,102.5 37,103.2 0.2,103.5 0.2,102.4 0.2,96.4 			"/>
			<polygon class="st2" points="268.7,177.2 254.5,177.2 251.5,172 260.4,172 			"/>
			<rect x="227.7" y="177.2" class="st5" width="12.9" height="39.8"/>
			<polygon class="st5" points="237.6,172 240.6,177.2 227.7,177.2 224.7,172 			"/>
			<rect x="204" y="177.2" class="st2" width="12.9" height="39.8"/>
			<polygon class="st2" points="214,172 217,177.2 204,177.2 201.1,172 			"/>
			<rect x="180.4" y="177.2" class="st5" width="12.9" height="39.8"/>
			<polygon class="st5" points="190.3,172 193.3,177.2 180.4,177.2 177.4,172 			"/>
			<rect x="156.7" y="177.2" class="st2" width="12.9" height="39.8"/>
			<polygon class="st2" points="166.7,172 169.6,177.2 156.7,177.2 153.8,172 			"/>
			<rect x="133.1" y="177.2" class="st5" width="12.9" height="39.8"/>
			<polygon class="st5" points="143,172 146,177.2 133.1,177.2 130.1,172 			"/>
			<rect x="109.4" y="177.2" class="st2" width="12.9" height="39.8"/>
			<polygon class="st2" points="119.4,172 122.3,177.2 109.4,177.2 106.4,172 			"/>
			<rect x="85.8" y="177.2" class="st5" width="12.9" height="39.8"/>
			<polygon class="st5" points="95.7,172 98.7,177.2 85.8,177.2 82.8,172 			"/>
			<rect x="62.1" y="177.2" class="st2" width="12.9" height="39.8"/>
			<polygon class="st2" points="72,172 75,177.2 62.1,177.2 59.1,172 			"/>
			<rect x="38.4" y="177.2" class="st5" width="12.9" height="39.8"/>
			<polygon class="st5" points="48.4,172 51.3,177.2 38.4,177.2 35.5,172 			"/>
			<rect x="14.8" y="177.2" class="st2" width="12.9" height="39.8"/>
			<polygon class="st2" points="24.7,172 27.7,177.2 14.8,177.2 11.8,172 			"/>
		</g>
		<g>
			<polyline class="st0" points="0.2,172 11.8,172 24.7,172 35.5,172 48.4,172 59.1,172 72,172 82.8,172 95.7,172 106.4,172 
				119.4,172 130.1,172 143,172 153.8,172 166.7,172 177.4,172 190.3,172 201.1,172 214,172 224.7,172 237.6,172 251.5,172 
				260.4,172 268.7,177.2 			"/>
			<polyline class="st0" points="268.7,217 254.5,217 240.6,217 227.7,217 217,217 204,217 193.3,217 180.4,217 169.6,217 
				156.7,217 146,217 133.1,217 122.3,217 109.4,217 98.7,217 85.8,217 75,217 62.1,217 51.3,217 38.4,217 27.7,217 14.8,217 
				0.2,217 			"/>
			<polyline class="st0" points="251.5,172 254.5,177.2 254.5,217 			"/>
			<polyline class="st0" points="237.6,172 240.6,177.2 240.6,217 			"/>
			<polyline class="st0" points="224.7,172 227.7,177.2 227.7,217 			"/>
			<polyline class="st0" points="214,172 217,177.2 217,217 			"/>
			<polyline class="st0" points="201.1,172 204,177.2 204,217 			"/>
			<polyline class="st0" points="190.3,172 193.3,177.2 193.3,217 			"/>
			<polyline class="st0" points="177.4,172 180.4,177.2 180.4,217 			"/>
			<polyline class="st0" points="166.7,172 169.6,177.2 169.6,217 			"/>
			<polyline class="st0" points="153.8,172 156.7,177.2 156.7,217 			"/>
			<polyline class="st0" points="143,172 146,177.2 146,217 			"/>
			<polyline class="st0" points="130.1,172 133.1,177.2 133.1,217 			"/>
			<polyline class="st0" points="119.4,172 122.3,177.2 122.3,217 			"/>
			<polyline class="st0" points="106.4,172 109.4,177.2 109.4,217 			"/>
			<polyline class="st0" points="95.7,172 98.7,177.2 98.7,217 			"/>
			<polyline class="st0" points="82.8,172 85.8,177.2 85.8,217 			"/>
			<polyline class="st0" points="72,172 75,177.2 75,217 			"/>
			<polyline class="st0" points="59.1,172 62.1,177.2 62.1,217 			"/>
			<polyline class="st0" points="48.4,172 51.3,177.2 51.3,217 			"/>
			<polyline class="st0" points="35.5,172 38.4,177.2 38.4,217 			"/>
			<polyline class="st0" points="24.7,172 27.7,177.2 27.7,217 			"/>
			<polyline class="st0" points="11.8,172 14.8,177.2 14.8,217 			"/>
			<polyline class="st0" points="268.7,177.2 254.5,177.2 240.6,177.2 227.7,177.2 217,177.2 204,177.2 193.3,177.2 180.4,177.2 
				169.6,177.2 156.7,177.2 146,177.2 133.1,177.2 122.3,177.2 109.4,177.2 98.7,177.2 85.8,177.2 75,177.2 62.1,177.2 51.3,177.2 
				38.4,177.2 27.7,177.2 14.8,177.2 0.2,177.2 			"/>
			<line class="st0" x1="260.4" y1="172" x2="268.7" y2="172"/>
			<line class="st0" x1="0.2" y1="96.4" x2="268.7" y2="96.4"/>
			<path class="st0" d="M0.2,217"/>
			<path class="st0" d="M0.2,177.2"/>
			<path class="st0" d="M0.2,172"/>
			<line class="st0" x1="0.2" y1="103" x2="268.7" y2="103"/>
		</g>
	</g>
</g>
<g id="レイヤー_2">
	<g id="XMLID_00000032638036483618532750000008864066463961200825_">
		<g>
			<path class="st6" d="M167.6,125c-1.8,1-4.8,1.5-8.1,1.8l0-0.3c2.1-3.1,0.5-25.9-0.1-35.3c-0.6-9.4-16.1-27.3-16.1-27.3
				c-0.7,0.7-1.4,1.5-2.3,2.2c-3.8,3.2-10.8-0.2-13.9-2.9c-3-2.7-12-17.8-12-17.8l4.7-3.9l0,0c0.3,0.5,9.7,17.4,13.1,18.1
				c3.5,0.8,7.6-0.8,8.1-2.7l0-0.4c4.6-0.2,7.6-1.4,9.8-3.2l7.3,2.8c0,0,9.3-1.1,11.8,0c2.4,1.1,17.6,10.9,21.9,15.2
				c0.2,0.2,0.4,0.4,0.5,0.6c0.4,0.5,0.9,1.1,1.4,1.8c3.5,4.8,8.4,13.8,8.8,19.2c0.3,2.9,1.3,4.3,2.9,5.2c1.8,1,4.1,1.2,6.5,1.8
				c4,0.9,12.5,2.8,17.1,4.9c0.6,0.3,1.1,0.5,1.5,0.8c0.5,0.3,1.2,0.9,1.9,1.7c4.8,5.3,13.3,19.5,13.3,21.7
				c-2.6-1.3-15.4,1.8-25.9,3.9c-6,1.2-11.3,2-13.7,1.5c-3.2-0.7-5.4-1.1-8.4-1.4c-0.2-0.2-0.5-0.4-0.7-0.5c0,0,4.1-9.8,5.2-14.2
				c0.4-1.5-0.3-2.2-1.3-2.5c-2-0.5-5.5,0.9-6.5,1.9c-1.5,1.5-13.7,10.4-22.2,13.7C172.2,131.4,168.5,128.3,167.6,125z"/>
			<path class="st7" d="M219.8,132.9c10.6-2.1,23.3-5.2,25.9-3.9c-3.9,4.6-16.7,12.9-27.2,13L219.8,132.9z"/>
			<path class="st8" d="M232.5,82.4l6.5,2.4c0,0-4.4,21.8-6.5,22.6c-0.7-0.8-1.4-1.4-1.9-1.7c-0.4-0.3-1-0.5-1.5-0.8
				C232.3,102.2,232.5,82.4,232.5,82.4z"/>
			<path class="st7" d="M232.5,82.4c0,0-0.2,19.8-3.5,22.4c-4.6-2.1-13.1-4-17.1-4.9c-1.1-2.8-4-8.2-7.3-13.4c0,0,4.7-2.5,10.2-3.7
				c0.7-0.1,1.3-0.3,2-0.4C223,81.4,232.5,82.4,232.5,82.4z"/>
			<path class="st7" d="M219.8,132.9l-1.2,9.1c-0.8-0.7-1.4-1.3-2-1.9c-2.3-2.3-3.9-4.2-10.4-5.7
				C208.5,134.9,213.8,134.1,219.8,132.9z"/>
			<path class="st8" d="M216.6,140.1c0.6,0.6,1.2,1.2,2,1.9c-4.9,3.9-12.7,10.5-12.7,10.5c-0.1-0.8-0.2-1.9-0.5-3.1L216.6,140.1z"/>
			<path class="st7" d="M216.6,140.1l-11.1,9.4c-1-5.2-3.3-13-7.7-16.5c3,0.3,5.2,0.7,8.4,1.4C212.7,136,214.3,137.8,216.6,140.1z"
				/>
			<path class="st7" d="M210.1,76.7c0,0,4.4,5.1,4.7,6.1c-5.5,1.2-10.2,3.7-10.2,3.7c-0.4-0.6-0.8-1.3-1.3-1.9l0.2-0.1L210.1,76.7z"
				/>
			<path class="st8" d="M211.9,74.5l-1.4,1.7l-7.7-9.9c1-0.5,1.7-0.9,2-1.1C209.3,68.3,211.9,74.5,211.9,74.5z"/>
			<path class="st7" d="M202.8,66.3l7.7,9.9l-0.4,0.5l-6.6,7.9l-0.2,0.1c-3.2-4.8-6.8-9.1-9.6-10.8c-0.5-0.7-1-1.3-1.4-1.8
				c-0.1-0.2-0.3-0.4-0.5-0.6C191.8,71.4,199.1,68.1,202.8,66.3z"/>
			<path class="st6" d="M205.9,152.6l1,9.7c0,0-9.2-2.7-12-2.8c-2.7-0.1-18-3.1-29.2-3.8c-3.7-2-15.3-6.4-20.3-6.5
				c14.5-8.6,26.8-17.8,26.8-17.8c14.6,0.8,20.9,1.1,25.5,1.6c4.4,3.6,6.8,11.4,7.7,16.5C205.7,150.7,205.8,151.7,205.9,152.6z"/>
			<path class="st7" d="M205.5,98.2c-1.5-0.9-2.6-2.4-2.9-5.2c-0.5-5.4-5.4-14.4-8.8-19.2c2.8,1.7,6.4,6.1,9.6,10.8
				c0.4,0.6,0.8,1.3,1.3,1.9c3.4,5.2,6.2,10.6,7.3,13.4C209.6,99.4,207.2,99.2,205.5,98.2z"/>
			<path class="st8" d="M206.9,162.3c0,0,0,1.3-5.6,1.8c-5.6,0.6-28.8-1.4-32.4-1.6c-5.6,0.2-12.7-3.5-18.1-6.8
				c-4.4-2.8-7.5-5.3-7.5-5.3c0.7-0.4,1.4-0.8,2.1-1.2c5,0.1,16.7,4.5,20.3,6.5c11.2,0.7,26.5,3.7,29.2,3.8
				C197.7,159.5,206.9,162.3,206.9,162.3z"/>
			<path class="st7" d="M200.9,115.8c1,0.2,1.6,1,1.3,2.5c-1.1,4.4-5.2,14.2-5.2,14.2c0.3,0.2,0.5,0.3,0.7,0.5
				c-4.6-0.5-11-0.8-25.5-1.6c8.5-3.3,20.7-12.2,22.2-13.7C195.4,116.7,198.9,115.3,200.9,115.8z"/>
			<path class="st6" d="M88.6,126.5l2.9,8.8L77.3,141c11.4,0.8,31.6,0,37.8-3.1C100.9,133.5,88.6,126.5,88.6,126.5z M112.6,79.9
				c-0.7-1-13-17.6-12.1-20c-8.4,4.5-9.9,5.6-9.9,5.6s13.2,8.1,19.9,14.8L112.6,79.9z M159.5,126.8c3.3-0.3,6.3-0.8,8.1-1.8
				c0.9,3.3,4.6,6.4,4.6,6.4s-12.3,9.1-26.8,17.8c0,0-4-1-8.5,0c-4.6,1-27.1,9-31.2,10.2s-11.5-11.4-11.5-11.4
				c-0.3-1.5-0.7-3.2-1.2-5c-0.1,0.2-0.2,0.5-0.4,0.8l-2.1-0.8l-11,6.2c0,0-7.6-11.8-10.3-11.6c-2.7,0.2-25.4,2.2-33.7,1.3
				c-8.2-0.9-6.3-12.3-6.3-12.3c1.5-5.2,3.1-9.7,3.8-10.7l3.1-2.7l14.2-9.3l1.7-0.8l1.7-0.8c3.2-5.1,8.1-12.2,12.9-19.1
				c2.4-3.4,4.8-6.7,7-9.6c3.3-4.4,6.2-8,8-10.1c0.3-0.4,0.7-0.8,1-1.1c1.7-2,2.9-3.7,5.3-4.6c2.8-1.1,18.2-8.1,18.2-8.1l5.8-2.1
				l0.3-0.1c0,0,0,0,0,0l0.9-0.3l2-1.7c0,0,9,15.1,12,17.8c3,2.7,10.1,6.1,13.9,2.9c0.9-0.8,1.7-1.5,2.3-2.2
				c0,0,15.4,17.9,16.1,27.3c0.6,9.4,2.2,32.3,0.1,35.3L159.5,126.8z"/>
			<path class="st7" d="M150.9,155.7c5.3,3.4,12.5,7,18.1,6.8c-10.4,0.8-21.6,1.3-27.7-0.8C145.4,159.7,151,158,150.9,155.7z"/>
			<path class="st9" d="M152.4,38.3v9l2.1,1.5c-1,1.8-2.1,3.4-3.6,4.6c-2.2,1.8-5.2,3.1-9.8,3.2l0,0.4c-0.4,1.9-4.6,3.4-8.1,2.7
				c-3.4-0.8-12.8-17.6-13.1-18.1l3.8,2.7c-0.3,0.6,0.4,1.1,0.9,0.8c2.5-1.7,6.9-4.5,9.3-5.6c-1,0.4-1.5-0.3-1.6-3
				c0-1.1,1.8-6,3.7-3.8c0.8,1,0.8,2,1.4,3.6c1.4-1.2,3.4-9.4,5.2-14.5c0,0,2,2.1,4,2.5c2,0.4,7.5,0.3,9.9-2.1c0-0.2,0-0.4-0.1-0.6
				c1.4,4.8,2.3,11.3,1.7,17l-1.8-0.2h-2.5H152.4z"/>
			<path class="st9" d="M156.1,38.3l1.8,0.2c-0.3,2.3-0.8,4.4-1.6,6.3c-0.6,1.4-1.2,2.7-1.9,4l-2.1-1.5v-9h1.3H156.1z"/>
			<path class="st10" d="M156.3,21.5c0,0.2,0.1,0.4,0.1,0.6c-2.4,2.4-7.9,2.5-9.9,2.1c-2-0.4-4-2.5-4-2.5
				c-1.8,5.1-3.8,13.3-5.2,14.5c-0.5-1.6-0.5-2.6-1.4-3.6c-1.9-2.2-3.7,2.7-3.7,3.8c0.1,2.7,0.6,3.3,1.6,3c-2.4,1.1-6.8,4-9.3,5.6
				c-0.5,0.3-1.1-0.2-0.9-0.8c1.1-2.2,2.8-5.6,4.1-7.4c-0.2-3.5,1.7-9,4.1-10.7c0.2-2.3,2.9-8.7,3.2-9.3c0.3-0.6,0.3-1.4,0.3-1.4
				h-3.7v-2.6h4.6v-1.8c-1.8-3.5-2-6.4-2-6.4c-4.5,3.8-11.7,15.4-15,21.5c-3.2,6-6.9,20.4-7.1,21.2l-0.3,0.1l-2.3,0.7
				c0,0-0.1-5.9,1.1-11.1c1.1-5.3,13.6-29.9,20.8-34.1c1.4-0.5,6.2-1.8,7.1,0.5c0.8,2.4,0.8,2.7,0.8,2.7h2.4l2-3.7h7.2
				c0,0-3.9,7-3.5,9.7C149.7,12.4,155.3,15.6,156.3,21.5C156.3,21.4,156.3,21.5,156.3,21.5z"/>
			<path class="st7" d="M150.9,155.7c0.1,2.4-5.5,4-9.7,6c-5.5,1.2-20.4,2.1-30.5,2.4c8.8-1,21.3-7.1,32.7-13.7
				C143.3,150.4,146.5,152.9,150.9,155.7z"/>
			<path class="st8" d="M145.4,149.1c-0.7,0.4-1.4,0.8-2.1,1.2c-11.4,6.7-23.9,12.8-32.7,13.7c-2.9,0.1-5.3,0.1-7.1,0.1
				c-1.1,0-2.3-0.1-3.5-0.3c0,0,0,0,0,0c-0.1,0-0.2,0-0.3-0.1c-2.7-0.6-3.1-5-5.5-15.9c0,0,7.4,12.7,11.5,11.4s26.6-9.2,31.2-10.2
				C141.4,148.1,145.4,149.1,145.4,149.1z"/>
			<path class="st6" d="M112.6,79.9l-2.1,0.4c-6.7-6.7-19.9-14.8-19.9-14.8s1.5-1.1,9.9-5.6C99.6,62.3,111.9,78.9,112.6,79.9z"/>
			<path class="st7" d="M88.6,126.5c0,0,12.3,7,26.5,11.3c-6.2,3.1-26.4,3.9-37.8,3.1l14.2-5.6L88.6,126.5z"/>
			<path class="st7" d="M94.2,147.9c2.4,10.8,2.8,15.3,5.5,15.9c-7.8-1.4-16.9-5.9-18.2-6.1c0,0-0.9-1.2-2.3-3.1l0.5-0.3
				c4.2-2.3,11.1-7.4,13-10.7c0.2-0.3,0.3-0.5,0.4-0.8C93.4,144.7,93.8,146.4,94.2,147.9z"/>
			<path class="st8" d="M90.6,142.9l2.1,0.8c-2,3.3-8.8,8.4-13,10.7l-0.5,0.3c-2.3-3.1-5.7-7.9-7.8-11.7c-5.8,2.3-46.1,2.2-46.1,2.2
				c0.1-3.7,2.1-11.9,4.1-18.7c0,0-1.9,11.4,6.3,12.3c8.2,0.9,30.9-1.1,33.7-1.3c2.7-0.2,10.3,11.6,10.3,11.6L90.6,142.9z"/>
			<path class="st8" d="M82.4,62l0.3,0.3c-0.3,0.4-0.6,0.7-1,1.1c-1.9,2-4.7,5.7-8,10.1L72.7,73l-4.9-7l-2.1-2.9l-10,4.6
				c-0.1-2.3-4.8-6.1-8.4-7.9C47.4,59.9,73.9,58.8,82.4,62z"/>
			<path class="st7" d="M81.4,157.7c-0.6,0.1-1.2,0.2-1.8,0.3l0-0.3c0,0-14.5-11.7-15.4-12.3c5-0.6,7.2-2.4,7.2-2.4
				c2.1,3.8,5.5,8.6,7.8,11.7C80.5,156.5,81.4,157.7,81.4,157.7z"/>
			<path class="st7" d="M79.6,157.7l0,0.3c-8.8,1.1-23.7-0.1-27.8-5.1c0,0,9.9-3.3,12.4-7.5C65.1,146,79.6,157.7,79.6,157.7z"/>
			<path class="st7" d="M72.7,73l0.9,0.4c-2.2,3-4.6,6.3-7,9.6L66.6,83l1.3-16.9L72.7,73z"/>
			<path class="st7" d="M71.4,142.9c0,0-2.1,1.8-7.2,2.4c-2.4,4.3-12.4,7.5-12.4,7.5c-9.9-0.5-21.7,1.6-26.6-7.8
				C25.3,145.1,65.6,145.2,71.4,142.9z"/>
			<path class="st7" d="M67.8,66.1L66.6,83l0.1,0.1c-4.9,6.8-9.7,13.9-12.9,19.1l-1.7,0.8V82.8l2.3-3L44.4,73l11.4-5.2l10-4.6
				L67.8,66.1z"/>
			<path class="st8" d="M55.8,67.7L44.4,73c1.8-11.2,3-13.1,3-13.1C51,61.7,55.7,65.5,55.8,67.7z"/>
			<path class="st7" d="M54.4,79.8l-2.3,3l-7.6,3.8c-0.5-0.7-0.8-1.8-0.9-3.1C43.2,79.2,44.4,73,44.4,73L54.4,79.8z"/>
			<path class="st7" d="M31.1,113.3c-5.4-6.5-12.5-14-12.5-14l25.8-12.8l7.6-3.8V103l-1.7,0.8l-14.2,9.3l-3.1,2.7
				C32.5,115,31.8,114.2,31.1,113.3z"/>
			<path class="st7" d="M44.4,86.6L18.6,99.4c0,0,3.3-3.7,7.5-8.4l17.4-7.5h0C43.7,84.8,43.9,85.9,44.4,86.6z"/>
			<path class="st8" d="M43.6,83.5L43.6,83.5L26.1,91c6.9-7.6,16.3-17.6,18.3-18C44.4,73,43.2,79.2,43.6,83.5z"/>
		</g>
		<g>
			<path class="st11" d="M156.3,21.5c0,0.2,0.1,0.4,0.1,0.6c-2.4,2.4-7.9,2.5-9.9,2.1c-2-0.4-4-2.5-4-2.5
				c-1.8,5.1-3.8,13.3-5.2,14.5c-0.5-1.6-0.5-2.6-1.4-3.6c-1.9-2.2-3.7,2.7-3.7,3.8c0.1,2.7,0.6,3.3,1.6,3c-2.4,1.1-6.8,4-9.3,5.6
				c-0.5,0.3-1.1-0.2-0.9-0.8c1.1-2.2,2.8-5.6,4.1-7.4c-0.2-3.5,1.7-9,4.1-10.7c0.2-2.3,2.9-8.7,3.2-9.3c0.3-0.6,0.3-1.4,0.3-1.4
				h-3.7v-2.6h4.6v-1.8c-1.8-3.5-2-6.4-2-6.4c-4.5,3.8-11.7,15.4-15,21.5c-3.2,6-6.9,20.4-7.1,21.2c0,0,0,0,0,0l-0.3,0.1l-2.3,0.7
				c0,0-0.1-5.9,1.1-11.1c1.1-5.3,13.6-29.9,20.8-34.1c1.4-0.5,6.2-1.8,7.1,0.5c0.8,2.4,0.8,2.7,0.8,2.7h2.4l2-3.7h7.2
				c0,0-3.9,7-3.5,9.7C149.7,12.4,155.3,15.6,156.3,21.5"/>
			<polyline class="st11" points="152.4,34.8 152.4,38.3 152.4,47.3 150.3,48.1 			"/>
			<path class="st11" d="M143.3,37.8c0,0,1.7,0,3.3,0"/>
			<line class="st11" x1="153.6" y1="38.3" x2="156.1" y2="38.3"/>
			<path class="st11" d="M145,28.7c0,0,1.9-0.2,3,0"/>
			<path class="st11" d="M154.2,29.1c0,0,2-0.2,2.5,0"/>
			<path class="st11" d="M146.9,51.3c0,0,1.8,0.5,2.5,0.4"/>
			<path class="st11" d="M119.8,41.5L119.8,41.5c0.3,0.5,9.7,17.4,13.1,18.2c3.5,0.8,7.6-0.8,8.1-2.7"/>
			<line class="st11" x1="123.7" y1="44.2" x2="119.8" y2="41.5"/>
			<path class="st11" d="M129.9,50.3c2.4,3.1,5.8,6.3,9.5,6.3c0.6,0,1.1,0,1.6,0c4.6-0.2,7.6-1.4,9.8-3.2c1.5-1.3,2.7-2.9,3.6-4.6
				c0.7-1.3,1.3-2.6,1.9-4c0.8-1.8,1.3-4,1.6-6.3c0.7-5.7-0.2-12.3-1.7-17c0,0,0,0,0,0"/>
			<path class="st11" d="M100,163.9c-0.1,0-0.2,0-0.3-0.1c-7.8-1.4-16.9-5.9-18.2-6.1c-0.6,0.1-1.2,0.2-1.8,0.3
				c-8.8,1.1-23.7-0.1-27.8-5.1c-9.9-0.5-21.7,1.6-26.6-7.8c0.1-3.7,2.1-11.9,4.1-18.7c1.5-5.2,3.1-9.7,3.8-10.7
				c-0.6-0.8-1.3-1.6-2-2.5c-5.4-6.5-12.5-14-12.5-14s3.3-3.7,7.5-8.4c6.9-7.6,16.3-17.6,18.3-18c1.8-11.2,3-13.1,3-13.1
				s26.5-1,34.9,2.2"/>
			<path class="st11" d="M150.8,53.4l7.3,2.8c0,0,9.3-1.1,11.8,0c2.4,1.1,17.6,10.9,21.9,15.2c0.2,0.2,0.4,0.4,0.5,0.6
				c0.4,0.5,0.9,1.1,1.4,1.8c3.5,4.8,8.4,13.8,8.8,19.2c0.3,2.9,1.3,4.3,2.9,5.2c1.8,1,4.1,1.2,6.5,1.8c4,0.9,12.5,2.8,17.1,4.9
				c0.6,0.3,1.1,0.5,1.5,0.8c0.5,0.3,1.2,0.9,1.9,1.7c4.8,5.3,13.3,19.5,13.3,21.7c-3.9,4.6-16.7,12.9-27.2,13
				c-4.9,3.9-12.7,10.5-12.7,10.5l1,9.7c0,0,0,1.3-5.6,1.8c-5.6,0.6-28.8-1.4-32.4-1.6c-10.4,0.8-21.6,1.3-27.7-0.8
				c-5.5,1.2-20.4,2.1-30.5,2.4c-2.9,0.1-5.3,0.1-7.1,0.1c-1.1,0-2.3-0.1-3.5-0.3"/>
			<path class="st11" d="M119.8,41.5l-4.7,3.9l-2,1.7l-0.9,0.3l-0.3,0.1l-5.8,2.1c0,0-15.4,7-18.2,8.1c-2.4,0.9-3.5,2.5-5.3,4.6
				c-0.3,0.4-0.6,0.7-1,1.1c-1.9,2-4.7,5.7-8,10.1c-2.2,3-4.6,6.3-7,9.6c-4.9,6.8-9.7,13.9-12.9,19.1l-1.7,0.8l-1.7,0.8l-14.2,9.3
				l-3.1,2.7"/>
			<polyline class="st11" points="18.6,99.4 44.4,86.6 52.1,82.8 54.4,79.8 44.4,73 55.8,67.7 65.8,63.2 67.8,66.1 72.7,73 			"/>
			<line class="st11" x1="67.8" y1="66.1" x2="66.6" y2="83"/>
			<line class="st11" x1="52.1" y1="82.8" x2="52.1" y2="103"/>
			<line class="st11" x1="30.4" y1="99.4" x2="31.1" y2="113.3"/>
			<path class="st11" d="M47.4,59.9c3.5,1.8,8.3,5.6,8.4,7.9"/>
			<path class="st11" d="M115.1,45.4c0,0,9,15.1,12,17.8c3,2.7,10.1,6.1,13.9,2.9c0.9-0.8,1.7-1.5,2.3-2.2c2.2-2.3,3.1-4,3.1-4"/>
			<path class="st11" d="M143.3,63.9c0,0,15.4,17.9,16.1,27.3c0.6,9.4,2.2,32.3,0.1,35.3"/>
			<path class="st11" d="M151.9,58c5.7,2.1,19.1,14.6,20.9,24.8c1.8,10.2,2.7,37.3,2.7,37.3s-5.8,4.6-7.9,4.9
				c0.9,3.3,4.6,6.4,4.6,6.4s-12.3,9.1-26.8,17.8c-0.7,0.4-1.4,0.8-2.1,1.2c-11.4,6.7-23.9,12.8-32.7,13.7c-0.4,0-0.7,0.1-1.1,0.1"
				/>
			<path class="st11" d="M245.8,129c-2.6-1.3-15.4,1.8-25.9,3.9c-6,1.2-11.3,2-13.7,1.5c-3.2-0.7-5.4-1.1-8.4-1.4
				c-4.6-0.5-11-0.8-25.5-1.6c8.5-3.3,20.7-12.2,22.2-13.7c1-1,4.5-2.3,6.5-1.9c1,0.2,1.6,1,1.3,2.5c-1.1,4.4-5.2,14.2-5.2,14.2
				c0.3,0.2,0.5,0.3,0.7,0.5c4.4,3.6,6.8,11.4,7.7,16.5c0.2,1.2,0.4,2.2,0.5,3.1"/>
			<path class="st11" d="M206.1,134.4c6.5,1.6,8.1,3.4,10.4,5.7c0.6,0.6,1.2,1.2,2,1.9l1.2-9.1"/>
			<path class="st11" d="M178.9,103.2c0,0,22.9,12,22,12.6"/>
			<path class="st11" d="M179.3,95.5c0,0,9.7,6.9,26.1,9.3c2.7,0.4,5.7,0.7,8.8,0.8"/>
			<polyline class="st11" points="205.5,98.2 205.5,98.2 205.5,104.8 205.5,104.8 			"/>
			<path class="st11" d="M174.6,90c0-1.1,8.5-10.6,11.7-11.3c-3.6-3.6-7.5-6.2-7.5-6.2l-2,5.3"/>
			<path class="st11" d="M126.8,101.5l6.7-7.9l0.3,12l-15.7,11.3c4.9-11.6,9.4-30.1,6.1-40.3c-3.4-10.2-10.4-23.2-10.4-23.2"/>
			<path class="st11" d="M112.7,79.9C112.7,79.9,112.6,79.9,112.7,79.9c-0.8-1-13.1-17.7-12.2-20.1c-8.4,4.5-9.9,5.6-9.9,5.6
				s13.2,8.1,19.9,14.8c1.6,1.5,2.8,3,3.4,4.2c3.4,6.7,5,12.8,5,12.8"/>
			<path class="st11" d="M81.6,75.5c0,0,23.4,8.4,25.9,13.7c0.9,2,1.8,3.4,2,4.5c0.4,1.9-1.1,3.4-6.9,6.8
				c-9.4,5.5-41.4,12.2-46.8,12.2c0,0,20,4.6,26.1,2.9"/>
			<path class="st11" d="M74.3,95.5c0,0,23.4-1.7,35.2-1.8c3.1,0,5.5,0.1,6.3,0.4"/>
			<path class="st11" d="M25.3,145.1c0,0,40.3,0.1,46.1-2.2c2.1,3.8,5.5,8.6,7.8,11.7c1.4,1.8,2.3,3.1,2.3,3.1"/>
			<path class="st11" d="M79.6,157.7c0,0-14.5-11.7-15.4-12.3c5-0.6,7.2-2.4,7.2-2.4"/>
			<path class="st11" d="M51.9,152.9c0,0,9.9-3.3,12.4-7.5"/>
			<path class="st11" d="M79.6,154.4c4.2-2.3,11.1-7.4,13-10.7c0.2-0.3,0.3-0.5,0.4-0.8c0.4,1.8,0.8,3.5,1.2,5
				c2.4,10.8,2.8,15.3,5.5,15.9c0.1,0,0.2,0,0.3,0.1c0,0,0,0,0,0"/>
			<path class="st11" d="M29.3,126.5c0,0-1.9,11.4,6.3,12.3c8.2,0.9,30.9-1.1,33.7-1.3c2.7-0.2,10.3,11.6,10.3,11.6l11-6.2l2.1,0.8"
				/>
			<path class="st11" d="M94.2,147.9c0,0,7.4,12.7,11.5,11.4s26.6-9.2,31.2-10.2c4.6-1,8.5,0,8.5,0c5,0.1,16.7,4.5,20.3,6.5
				c11.2,0.7,26.5,3.7,29.2,3.8c2.7,0.1,12,2.8,12,2.8"/>
			<path class="st11" d="M143.3,150.4c0,0,3.1,2.5,7.5,5.3c5.3,3.4,12.5,7,18.1,6.8"/>
			<path class="st11" d="M141.2,161.7c4.2-2,9.8-3.7,9.7-6"/>
			<path class="st11" d="M117.8,123.6l-2.7,14.2c-14.2-4.3-26.5-11.3-26.5-11.3c6.2-1.5,21-20.9,21-20.9"/>
			<path class="st11" d="M88.6,126.5l2.9,8.8L77.3,141c11.4,0.8,31.6,0,37.8-3.1c0,0,20.8-6.8,24.5-10.7"/>
			<path class="st11" d="M143.3,126.5c0,0,8.8,0.8,16.2,0.3c3.3-0.3,6.3-0.8,8.1-1.8"/>
			<path class="st11" d="M191.8,71.4c0,0,7.3-3.3,11-5.1c1-0.5,1.7-0.9,2-1.1c4.5,3,7.1,9.3,7.1,9.3l-1.4,1.7l-0.4,0.5l-6.6,7.9"/>
			<path class="st11" d="M210.1,76.7c0,0,4.4,5.1,4.7,6.1"/>
			<path class="st11" d="M204.6,86.5c0,0,4.7-2.5,10.2-3.7c0.7-0.1,1.3-0.3,2-0.4c6.2-1,15.7,0,15.7,0s-0.2,19.8-3.5,22.4"/>
			<path class="st11" d="M232.5,82.4l6.5,2.4c0,0-4.4,21.8-6.5,22.6"/>
			<line class="st11" x1="202.8" y1="66.3" x2="210.5" y2="76.2"/>
			<path class="st11" d="M193.8,73.8c2.8,1.7,6.4,6.1,9.6,10.8c0.4,0.6,0.8,1.3,1.3,1.9c3.4,5.2,6.2,10.6,7.3,13.4"/>
			<path class="st11" d="M44.4,73c0,0-1.3,6.3-0.9,10.5c0.1,1.3,0.4,2.4,0.9,3.1"/>
			<line class="st11" x1="205.5" y1="149.5" x2="216.6" y2="140.1"/>
			<line class="st11" x1="26.1" y1="91" x2="43.5" y2="83.5"/>
		</g>
	</g>
</g>
</svg>
