<?xml version="1.0" encoding="UTF-8"?>
<svg id="_レイヤー_1" data-name="レイヤー 1" xmlns="http://www.w3.org/2000/svg" viewBox="0 0 271.4 194.4">
  <defs>
    <style>
      .cls-1 {
        stroke: #000;
      }

      .cls-1, .cls-2 {
        fill: none;
        stroke-linecap: round;
        stroke-linejoin: round;
      }

      .cls-3 {
        fill: #333;
      }

      .cls-3, .cls-4, .cls-5, .cls-6, .cls-7, .cls-8 {
        stroke-width: 0px;
      }

      .cls-2 {
        stroke: #eee;
      }

      .cls-4 {
        fill: #c1bcb6;
      }

      .cls-5 {
        fill: #fdf0ce;
      }

      .cls-6 {
        fill: #444;
      }

      .cls-7 {
        fill: #a98ea1;
      }

      .cls-8 {
        fill: #d46353;
      }
    </style>
  </defs>
  <g>
    <path class="cls-4" d="m251.48,167.45c-4.69,4.71-8.59,8.98-10.01,10.82-3.36,4.37-12.33,8.72-12.33,8.72-14.35-6.86-24.67-16.11-30.98-17.34-2.46-3.57-2.94-7.78-2.94-8.66,0-.15-.12-.58-.32-1.21h0c.15-.41,3.52-9.54,4.81-14.41,1.33-4.99,13.58-17.83,13.58-17.83v3.99s6.74,8.59,19.82,10.84,36.9,6.98,37.77,8.48c-4.99,2.82-12.95,10.13-19.41,16.61Z"/>
    <path class="cls-6" d="m209.81,122.31c2.12,3.47,3.49,5.21,3.49,5.21,0,0-12.26,12.84-13.58,17.83-1.3,4.87-4.67,14-4.81,14.4-1.05-3.26-4.5-12.12-7.26-18.28,12.37-4.03,22.17-19.17,22.17-19.17Z"/>
    <path class="cls-4" d="m209.81,122.31s-9.79,15.14-22.17,19.17c-.38-.87-.76-1.67-1.1-2.41-.48-1-.92-1.87-1.29-2.53-2.36-4.2-11.15-14.72-16.45-22.47-1.43-2.07-2.6-3.95-3.33-5.45-.84-1.72-2.18-4.53-3.74-7.91,0,0,9.56.89,13.8,2.13,4.24,1.25,32.17,16.01,34.29,19.47Z"/>
    <path class="cls-6" d="m147.39,138.37c.31,0,6.79.23,14.33.46,10.21.31,22.36.62,23.78.41l1.04-.18c.34.74.72,1.54,1.1,2.41,2.75,6.16,6.2,15.02,7.26,18.28h0c.21.64.32,1.07.32,1.22,0,.88.48,5.09,2.94,8.66.79,1.15,1.79,2.25,3.05,3.13,5.16,3.66-1,7.98-3.32,8.31-.48.07-1.12.08-1.92.11,4.72-.55,2-2.19,1.25-4.92-.74-2.74-30.92-5.24-47.87-11.47s-47.87-23.18-62.45-24.43c0,0,21.93-16.79,23.06-18.06s4.99-5.51,7.73-3.02c.68.62,2.23,1.89,4.3,3.5,6.15,4.76,16.93,12.44,23.75,14.96.55.21,1.1.41,1.65.62h0Z"/>
    <path class="cls-8" d="m93.82,147.27c-3.05-2.9-5.4-5.32-6.92-6.9,14.58,1.25,45.5,18.2,62.45,24.43s47.13,8.73,47.87,11.47c.75,2.73,3.47,4.37-1.25,4.92-3.11.12-8.56.49-15.7,5.38-10.97,2.82-22.94-4.57-22.94-4.57,0,0-2.24-1-9.94-3.78-.34.46-.88,1.05-1.67,1.75-21.87-6.47-41.17-22.54-51.89-32.7Z"/>
    <path class="cls-6" d="m186.54,139.07l-1.04.18c-1.42.21-13.57-.1-23.78-.41v-.46c.85-6.74,8.32-19.19,7.08-24.31,5.3,7.75,14.09,18.27,16.45,22.47.37.66.81,1.53,1.29,2.53Z"/>
    <path class="cls-7" d="m157.32,182.01s11.97,7.39,22.94,4.57c-8.97,6.15-15.96,7.15-26.09,7.31-10.14.17-24.93-4.82-24.93-4.82-.56.02-1.14-.06-1.76-.22,2.44-.78,4.6-1.55,6.5-2.32l.19.47c5.57-.18,16.43,1.87,23.15-4.98Z"/>
    <path class="cls-6" d="m51.34,165.05v-7.98c3.52-11.72,5.76-11.75,5.51-24.95s-3.53-34.65-5.51-48.11c-1.97-13.47-5.21-20.95-5.21-20.95,0,0-4.74,42.89-4.24,56.6s-1.57,48.62-.04,52.11c3.78-4.74,9.49-6.73,9.49-6.73Zm70.64-42.27c-2.07-1.6-3.61-2.87-4.3-3.5-2.74-2.49-6.61,1.75-7.73,3.02s-23.06,18.06-23.06,18.06c1.52,1.58,3.88,4,6.92,6.9,10.72,10.17,30.02,26.23,51.89,32.7-1.95,1.72-5.5,4.05-11.73,6.54-1.9.77-4.06,1.54-6.5,2.32-9.53-2.45-25.62-25.04-25.62-25.04,0,0-8.36-4.49-11.6-1.25-1.79,1.79-10.83,7.71-18.58,12.68-6.09,3.9-11.39,7.19-11.75,7.41h0s0,0-.02,0c-1.45-.3-2.77-.65-3.96-1.05-6.47-2.16-8.14-3.32-8.14-3.32-2.42-.02-4.57-.03-6.51-.04l-23.32-30.14,3.41-22.02c1.83-7.48,5.65-18.78,5.65-18.78-6.48-19.29-9.32-32.48-3.33-39.93,5.99-7.44,14.13-10.77,14.13-10.77l.55.1,10.75,1.89.11.16,9.37,13.81c6.98-2.66,18.7-10.15,18.7-10.15.95,1.08,1.96,2.03,3.07,2.83,2.71,1.65,7.18,2.81,13.97,1.68,0,0,6.14,3.66,9.22.45,3.08-3.2,6.42-12.01,4.44-16.63,0,0,5.95,2.95,7.52,2.74h5.49c0-.08,0-.17-.02-.25,1.3.02,2.62.09,3.76.25,3.16.46,21.45,8.67,23.27,15.21,1.39,4.97,8.73,21.33,13.71,32.03,1.56,3.38,2.9,6.19,3.74,7.91.73,1.5,1.9,3.38,3.33,5.45,1.24,5.12-6.23,17.57-7.07,24.31v.46c-7.55-.22-14.02-.45-14.34-.46h0c-.55-.21-1.1-.42-1.65-.62-6.82-2.52-17.6-10.21-23.75-14.96Z"/>
    <path class="cls-4" d="m147.38,178.23c7.71,2.78,9.94,3.78,9.94,3.78-6.73,6.85-17.59,4.8-23.15,4.98l-.19-.47c6.23-2.49,9.78-4.82,11.73-6.54.79-.69,1.33-1.29,1.67-1.75Z"/>
    <path class="cls-7" d="m127.48,188.84c.62.17,1.2.24,1.76.22-9.98,1.66-29.59,5.32-45.38-4.81-.3,0-.61.02-.91.02h-.02c-3.16,0-11.26-9.04-11.26-9.04,7.75-4.96,16.8-10.89,18.58-12.68,3.24-3.24,11.6,1.25,11.6,1.25,0,0,16.09,22.59,25.62,25.04Z"/>
    <path class="cls-3" d="m120.99,53.22c-2.28-.03-4.46.13-5.47.25-.88-10.07-1.15-16.62-2.89-21.81l2.71-.98c2.55,7.34,5.4,18.36,5.64,22.53Z"/>
    <path class="cls-3" d="m115.34,30.69l-2.71.98c-.39-1.17-.86-2.28-1.43-3.33-3.08-5.74-17.04-20.28-18.78-21.78-1.75-1.49-3-1.08-3.41.41-.42,1.5-1.08,5.32-.5,6.65l.58,1.33h5.99v1.84h-5.16v1.74c4.16,4.24,8.64,11.31,10.31,14.55.47.91,1.29,2.71,2.22,4.81l-2.51.24c-.15-.48-.3-.86-.46-1.11-.81-1.31-2.93-.75-4.42,3.93l-8.79-15.27s-2.56,2-4.86,3.99-8.11,3.17-10.54,2.93c-.91-.1-1.37-.51-1.54-1.05-.3-.92.21-2.23.8-3.12.93-1.44,5.73-5.42,7.91-7.61v-1.49h-3.91v-1.58h3.45v-2.16c-3.12-2.12-8.1-8.31-9.11-9.31-1.03-1-.82-2.45-.69-3.61s1.79-2.71,4.16-1.95c2.36.74,12.04,9.18,12.04,9.18.34-4.15.42-6.65,1.91-7.81,1.5-1.16,4.82-1.37,7.07.71,2.25,2.07,18.15,17.46,20.99,24.21.44,1.05.92,2.3,1.4,3.7Z"/>
    <path class="cls-5" d="m94.34,66.91c-6.8,1.13-11.26-.03-13.97-1.68-1.1-.8-2.12-1.75-3.07-2.83-5.05-5.81-7.73-15.19-8.54-22.3-.43-3.69-.36-6.77.15-8.44l.43-.12c.18.55.63.96,1.54,1.05,2.43.24,8.23-.94,10.54-2.93s4.86-3.99,4.86-3.99l8.79,15.27c1.49-4.68,3.61-5.23,4.42-3.93.16.25.31.63.46,1.11.62,1.98,1.05,5.46.6,6.61-.56,1.44-2.12,1.44-2.12,1.44.71.5,1.27.24,3.06,4.14.41.89,6.52.41,6.52.41,1.97,4.62-1.37,13.43-4.44,16.63-3.08,3.21-9.22-.45-9.22-.45Z"/>
    <path class="cls-3" d="m108,50.73s-6.11.48-6.52-.41c-1.79-3.9-2.34-3.64-3.06-4.14,0,0,1.56,0,2.12-1.44.46-1.15.02-4.63-.6-6.61l2.51-.24c2.39,5.39,5.55,12.84,5.55,12.84Z"/>
    <path class="cls-7" d="m82.93,184.27c-8.6.21-16.84-.3-23.01-1.63.36-.22,5.65-3.52,11.75-7.41,0,0,8.1,9.04,11.26,9.04Z"/>
    <path class="cls-5" d="m63.33,43c2.25.37,0,1.2,0,1.2l-1.66.42-1.58.24s.61.44.56,1.02c-.04.59-.49.85-.96.96.71.55,1.5,1.25-.37,1.54.54.33,1.33.58,1.08,1.04-.25.46-1.25.5-1.25.5-.04.33-.96,2.29-1.62,3.24s-3.49,1.44-4.92,1.25c-1.54,1.37-3.12,4.09-3.28,4.26l-.11.07-.11-.16-10.75-1.89c5.9-4.21,14.37-8.95,15.74-10.69,1.38-1.75,6.98-3.37,9.23-2.99Z"/>
    <path class="cls-8" d="m56.85,132.12c.25,13.2-1.99,13.23-5.51,24.95v7.98s-5.71,1.99-9.49,6.73c-1.53-3.49.54-38.4.04-52.11s4.24-56.6,4.24-56.6c0,0,3.24,7.48,5.21,20.95,1.98,13.46,5.25,34.9,5.51,48.11Z"/>
    <path class="cls-7" d="m17.95,148.09l23.32,30.14c-13.13-.07-16.58-.25-26.73-5.62C2.91,166.46-.11,159.34.6,148.18c1.11-17.86,20.76-22.11,20.76-22.11l-3.41,22.02Z"/>
  </g>
  <g>
    <path class="cls-1" d="m68.9,31.66c-.51,1.67-.58,4.75-.15,8.44.81,7.12,3.5,16.49,8.54,22.3.95,1.08,1.96,2.03,3.07,2.83,2.71,1.65,7.18,2.81,13.97,1.68.32-.05.65-.11.99-.18,3.73-.72,4.16-3.5,4.16-3.5"/>
    <path class="cls-1" d="m108,50.73s-6.11.48-6.52-.41c-1.79-3.9-2.34-3.64-3.06-4.14,0,0,1.56,0,2.12-1.44.46-1.15.02-4.63-.6-6.61-.15-.48-.3-.86-.46-1.11-.81-1.31-2.93-.75-4.42,3.93l-8.79-15.27s-2.56,2-4.86,3.99-8.11,3.17-10.54,2.93c-.91-.1-1.37-.51-1.54-1.05-.3-.92.21-2.23.8-3.12.93-1.44,5.73-5.42,7.91-7.61v-1.49h-3.91v-1.58h3.45v-2.16c-3.12-2.12-8.1-8.31-9.11-9.31-1.03-1-.82-2.45-.69-3.61s1.79-2.71,4.16-1.95c2.36.74,12.04,9.18,12.04,9.18.34-4.15.42-6.65,1.91-7.81,1.5-1.16,4.82-1.37,7.07.71,2.25,2.07,18.15,17.46,20.99,24.21.44,1.05.92,2.3,1.4,3.7,2.55,7.34,5.4,18.36,5.64,22.53,0,.09.02.18.02.25h-5.49c-.88-10.07-1.15-16.62-2.89-21.81-.39-1.17-.86-2.28-1.43-3.33-3.08-5.74-17.04-20.28-18.78-21.78-1.75-1.49-3-1.08-3.41.41-.42,1.5-1.08,5.32-.5,6.65l.58,1.33h5.99v1.84h-5.16v1.74c4.16,4.24,8.64,11.31,10.31,14.55.47.91,1.29,2.71,2.22,4.81,2.39,5.39,5.55,12.84,5.55,12.84Z"/>
    <path class="cls-1" d="m59.91,182.64s0,0-.02,0c-1.45-.3-2.77-.65-3.96-1.05-6.47-2.16-8.14-3.32-8.14-3.32-2.42-.02-4.57-.03-6.51-.04-13.13-.07-16.58-.25-26.73-5.62C2.91,166.46-.11,159.34.6,148.18c1.11-17.86,20.76-22.11,20.76-22.11,1.83-7.48,5.65-18.78,5.65-18.78-6.48-19.29-9.32-32.48-3.33-39.93,5.99-7.44,14.13-10.77,14.13-10.77l.55.1,10.75,1.89.11.16,9.37,13.81c6.98-2.66,18.7-10.15,18.7-10.15"/>
    <path class="cls-1" d="m82.93,184.27c-8.6.21-16.84-.3-23.01-1.63"/>
    <path class="cls-1" d="m194.9,159.77c.21.63.32,1.06.32,1.21,0,.88.48,5.09,2.94,8.66.79,1.15,1.79,2.25,3.05,3.13,5.16,3.66-1,7.98-3.32,8.31-.48.07-1.12.08-1.92.11-3.11.12-8.56.49-15.7,5.38-8.97,6.15-15.96,7.15-26.09,7.31-10.14.17-24.93-4.82-24.93-4.82-9.98,1.66-29.59,5.32-45.38-4.81-.3,0-.61.02-.91.02"/>
    <path class="cls-1" d="m94.34,66.91s6.14,3.66,9.22.45c3.08-3.2,6.42-12.01,4.44-16.63,0,0,5.95,2.95,7.52,2.74,1.01-.13,3.19-.28,5.47-.25,1.3.02,2.62.09,3.76.25,3.16.46,21.45,8.67,23.27,15.21,1.39,4.97,8.73,21.33,13.71,32.03,1.56,3.38,2.9,6.19,3.74,7.91.73,1.5,1.9,3.38,3.33,5.45,5.3,7.75,14.09,18.27,16.45,22.47.37.66.81,1.53,1.29,2.53.34.74.72,1.54,1.1,2.41,2.75,6.16,6.2,15.02,7.26,18.28"/>
    <path class="cls-1" d="m38.36,56.68c5.9-4.21,14.37-8.95,15.74-10.69,1.38-1.75,6.98-3.37,9.23-2.99,2.25.37,0,1.2,0,1.2l-1.66.42-1.58.24s.61.44.56,1.02c-.04.59-.49.85-.96.96.71.55,1.5,1.25-.37,1.54.54.33,1.33.58,1.08,1.04-.25.46-1.25.5-1.25.5-.04.33-.96,2.29-1.62,3.24s-3.49,1.44-4.92,1.25c-1.54,1.37-3.12,4.09-3.28,4.26"/>
    <path class="cls-1" d="m68.74,40.09h0c1.02-.02,5.49.15,5.93,0"/>
    <path class="cls-1" d="m80.72,38.64s5.05-2.12,5.73-2.69"/>
    <line class="cls-1" x1="81.35" y1="44.61" x2="86.89" y2="42"/>
    <line class="cls-1" x1="71.44" y1="49.05" x2="74.05" y2="49.05"/>
    <path class="cls-1" d="m75.48,45.86s1.5,9.91,2.31,10.54,3.05-.06,3.3-.75"/>
    <path class="cls-1" d="m82.53,52.92c.43.19,1.05,1.12,1.05,1.31"/>
    <path class="cls-1" d="m81.85,60.83s1.2-.81,1.74-1.05c.54-.25,1.81-.25,1.81-.25"/>
    <path class="cls-1" d="m161.73,100.71s9.56.89,13.8,2.13c4.24,1.25,32.17,16.01,34.29,19.47,2.12,3.47,3.49,5.21,3.49,5.21v3.99s6.74,8.59,19.82,10.84,36.9,6.98,37.77,8.48c-4.99,2.82-12.95,10.13-19.41,16.61-4.69,4.71-8.59,8.98-10.01,10.82-3.36,4.37-12.33,8.72-12.33,8.72-14.35-6.86-24.67-16.11-30.98-17.34"/>
    <path class="cls-1" d="m210.44,152.08s6.1,8.11,21.93,11.46c15.84,3.37,19.11,3.9,19.11,3.9"/>
    <path class="cls-1" d="m209.81,122.31s-9.79,15.14-22.17,19.17"/>
    <path class="cls-1" d="m213.3,127.52s-12.26,12.84-13.58,17.83c-1.3,4.87-4.67,14-4.81,14.4h0"/>
    <path class="cls-2" d="m84.65,67.36s-.75,4.19,2.25,8.06c2.99,3.87,6.73,5.23,10.84,4.99,4.11-.25,21.32-12.97,24.93-18.95"/>
    <path class="cls-2" d="m123.29,69.43c-1,1.62-6.48,18.08-9.73,27.43-3.23,9.35-7.23,25.06-6.86,27.55"/>
    <path class="cls-2" d="m114.99,118.42c.05-15.21,18.15-28.05,28.5-30.92-2.62-2.49-5.98-11.72-5.98-11.72l-10.1,11.22"/>
    <path class="cls-2" d="m147.39,138.37c.31,0,6.79.23,14.33.46,10.21.31,22.36.62,23.78.41"/>
    <path class="cls-2" d="m121.98,122.79s27.12-15.09,28.61-18.83"/>
    <path class="cls-2" d="m92.75,83.02s-8.6,24.43-10.91,37.89c-2.31,13.47-3.55,27.18-3.55,27.18"/>
    <path class="cls-2" d="m83.61,80.42s-10.7,19.42-14.87,32.95c-1.35,4.35-2.43,8.8-3.29,12.84-1.82,8.54-2.62,15.26-2.62,15.26,10.25,6.51,19.36,9.31,30.99,5.79.18-.05.34-.1.52-.16"/>
    <path class="cls-2" d="m64.33,80.42s2.1,29.9,4.41,32.95"/>
    <path class="cls-2" d="m46.12,63.07s-4.74,42.89-4.24,56.6-1.57,48.62-.04,52.11c3.78-4.74,9.49-6.73,9.49-6.73v-7.98c3.52-11.72,5.76-11.75,5.51-24.95s-3.53-34.65-5.51-48.11c-1.97-13.47-5.21-20.95-5.21-20.95Z"/>
    <path class="cls-2" d="m55.35,82.02s4.31,20.79,4.55,32.6c.04,2.11-.05,3.94-.31,5.3"/>
    <path class="cls-2" d="m27.18,118.42s-.75,9.23,3.24,16.71"/>
    <polyline class="cls-1" points="21.36 126.07 17.95 148.09 41.27 178.23"/>
    <path class="cls-1" d="m21.19,164.8s11.16,8.89,14.71,9.97"/>
    <path class="cls-1" d="m51.34,165.05l8.55,17.59h0s0,0,0,0h0c.36-.22,5.65-3.52,11.75-7.41,7.75-4.96,16.8-10.89,18.58-12.68,3.24-3.24,11.6,1.25,11.6,1.25,0,0,16.09,22.59,25.62,25.04.62.17,1.2.24,1.76.22"/>
    <path class="cls-1" d="m127.45,188.85s.02,0,.03,0c2.44-.78,4.6-1.55,6.5-2.32,6.23-2.49,9.78-4.82,11.73-6.54.79-.69,1.33-1.29,1.67-1.75,7.71,2.78,9.94,3.78,9.94,3.78-6.73,6.85-17.59,4.8-23.15,4.98"/>
    <path class="cls-1" d="m157.32,182.01s11.97,7.39,22.94,4.57"/>
    <path class="cls-2" d="m145.71,179.98c-21.87-6.47-41.17-22.54-51.89-32.7-3.05-2.9-5.4-5.32-6.92-6.9,0,0,21.93-16.79,23.06-18.06s4.99-5.51,7.73-3.02c.68.62,2.23,1.89,4.3,3.5,6.15,4.76,16.93,12.44,23.75,14.96.55.21,1.1.41,1.65.62h0c8.57,3.29,17.04,7.35,17.04,7.35"/>
    <path class="cls-2" d="m86.89,140.37c14.58,1.25,45.5,18.2,62.45,24.43s47.13,8.73,47.87,11.47c.75,2.73,3.47,4.37-1.25,4.92"/>
    <path class="cls-2" d="m161.73,138.37c.84-6.74,8.31-19.19,7.07-24.31"/>
    <path class="cls-2" d="m57.63,143.42s5.52,8.6,10.75,10.6c5.23,1.99,15.21.68,19.57-2.25"/>
    <path class="cls-2" d="m59.9,114.61s3.59,11.38,5.55,11.6h0"/>
    <path class="cls-1" d="m71.67,175.23s8.1,9.04,11.26,9.04h.02"/>
  </g>
</svg>