<?xml version="1.0" encoding="UTF-8"?>
<svg id="_レイヤー_1" data-name="レイヤー 1" xmlns="http://www.w3.org/2000/svg" viewBox="0 0 269.83 212.63">
  <defs>
    <style>
      .cls-1 {
        stroke-miterlimit: 10;
      }

      .cls-1, .cls-2 {
        stroke: #000;
      }

      .cls-1, .cls-2, .cls-3 {
        fill: none;
      }

      .cls-4 {
        fill: #f3edd7;
      }

      .cls-4, .cls-5, .cls-6, .cls-7, .cls-8, .cls-9, .cls-10, .cls-11 {
        stroke-width: 0px;
      }

      .cls-2, .cls-3 {
        stroke-linecap: round;
        stroke-linejoin: round;
      }

      .cls-5 {
        fill: #333;
      }

      .cls-6 {
        fill: #c1bcb6;
      }

      .cls-7 {
        fill: #fdf0ce;
      }

      .cls-3 {
        stroke: #eee;
        stroke-width: .5px;
      }

      .cls-8 {
        fill: #d2d296;
      }

      .cls-9 {
        fill: #444;
      }

      .cls-10 {
        fill: #a98ea1;
      }

      .cls-11 {
        fill: #d46353;
      }
    </style>
  </defs>
  <g>
    <g>
      <rect class="cls-4" x=".24" y="178.06" width="3.61" height="5.02"/>
      <path class="cls-4" d="m269.58,205.58v6.55h-30.39l15.32-8.61c1.03,1.61,3.1,2.71,5.5,2.71s4.61-1.18,5.61-2.88l3.96,2.23Z"/>
      <path class="cls-4" d="m269.58,195.04v10.54l-3.96-2.23c.38-.65.59-1.38.59-2.14,0-1.3-.62-2.48-1.61-3.37l4.98-2.8Z"/>
      <path class="cls-4" d="m269.58,183.08v11.97l-4.98,2.8c-1.14-1.01-2.76-1.64-4.58-1.64s-3.3.58-4.43,1.51l-26.04-14.64h40.04Z"/>
      <polygon class="cls-4" points="269.58 104.96 269.58 110.72 1.13 110.72 .24 110.72 .24 104.96 269.58 104.96"/>
      <rect class="cls-4" x="265.6" y="178.06" width="3.99" height="5.02"/>
      <path class="cls-4" d="m266.21,201.21c0,.76-.21,1.49-.59,2.14l-5.41-3.04,4.38-2.47c1,.89,1.61,2.07,1.61,3.37Z"/>
      <path class="cls-4" d="m260.21,200.31l5.41,3.04c-1,1.7-3.13,2.88-5.61,2.88s-4.47-1.1-5.5-2.71l5.7-3.21Z"/>
      <rect class="cls-5" x="254.31" y="178.06" width="11.28" height="5.02"/>
      <path class="cls-4" d="m264.6,197.84l-4.38,2.47-4.63-2.6c1.13-.93,2.7-1.51,4.43-1.51,1.82,0,3.45.63,4.58,1.64Z"/>
      <path class="cls-4" d="m260.21,200.31l-5.7,3.21c-.44-.68-.69-1.47-.69-2.31,0-1.37.68-2.6,1.77-3.5l4.63,2.6Z"/>
      <path class="cls-4" d="m229.55,183.08l26.04,14.64c-1.09.9-1.77,2.13-1.77,3.5,0,.83.25,1.62.69,2.31l-15.32,8.61h-41.4l-15.62-8.78c.38-.65.59-1.38.59-2.14,0-1.3-.62-2.48-1.61-3.36l26.28-14.77h22.11Zm-5.95,18.14c0-2.76-2.24-5.01-5.01-5.01s-5.02,2.24-5.02,5.01,2.24,5.02,5.02,5.02,5.01-2.24,5.01-5.02Z"/>
      <polygon class="cls-4" points="254.31 183.08 229.55 183.08 223.85 183.08 223.85 178.06 254.31 178.06 254.31 183.08"/>
      <rect class="cls-5" x="212.57" y="178.06" width="11.28" height="5.02"/>
      <path class="cls-5" d="m218.59,196.21c2.76,0,5.01,2.24,5.01,5.01s-2.24,5.02-5.01,5.02-5.02-2.24-5.02-5.02,2.24-5.01,5.02-5.01Z"/>
      <path class="cls-4" d="m207.44,183.08l-26.28,14.77c-1.14-1.01-2.76-1.65-4.58-1.65s-3.3.58-4.43,1.51l-26.04-14.64h61.34Z"/>
      <polygon class="cls-4" points="182.11 183.08 182.11 178.06 212.57 178.06 212.57 183.08 207.44 183.08 182.11 183.08"/>
      <path class="cls-4" d="m197.8,212.13h-42.05l15.32-8.61c1.03,1.61,3.11,2.71,5.5,2.71s4.61-1.18,5.61-2.88l15.62,8.78Z"/>
      <path class="cls-4" d="m182.77,201.21c0,.76-.21,1.49-.59,2.14l-5.41-3.04,4.38-2.46c1,.88,1.61,2.06,1.61,3.36Z"/>
      <path class="cls-4" d="m176.77,200.31l5.41,3.04c-1,1.7-3.13,2.88-5.61,2.88s-4.47-1.1-5.5-2.71l5.7-3.21Z"/>
      <rect class="cls-5" x="170.83" y="178.06" width="11.28" height="5.02"/>
      <path class="cls-4" d="m176.57,196.21c1.82,0,3.45.63,4.58,1.65l-4.38,2.46-4.63-2.6c1.13-.93,2.7-1.51,4.43-1.51Z"/>
      <path class="cls-4" d="m176.77,200.31l-5.7,3.21c-.44-.68-.69-1.47-.69-2.31,0-1.37.68-2.6,1.77-3.5l4.63,2.6Z"/>
      <path class="cls-4" d="m146.11,183.08l26.04,14.64c-1.09.9-1.77,2.13-1.77,3.5,0,.83.25,1.62.69,2.31l-15.32,8.61h-41.4l-15.62-8.78c.38-.65.59-1.38.59-2.14,0-1.3-.62-2.48-1.61-3.36l26.28-14.77h22.11Zm-7,18.14c0-2.76-2.24-5.01-5.01-5.01s-5.02,2.24-5.02,5.01,2.24,5.02,5.02,5.02,5.01-2.24,5.01-5.02Z"/>
      <polygon class="cls-4" points="170.83 183.08 146.11 183.08 140.37 183.08 140.37 178.06 170.83 178.06 170.83 183.08"/>
      <rect class="cls-5" x="129.09" y="178.06" width="11.28" height="5.02"/>
      <path class="cls-5" d="m134.09,196.21c2.76,0,5.01,2.24,5.01,5.01s-2.24,5.02-5.01,5.02-5.02-2.24-5.02-5.02,2.24-5.01,5.02-5.01Z"/>
      <path class="cls-4" d="m124,183.08l-26.28,14.77c-1.14-1.01-2.76-1.65-4.58-1.65s-3.3.58-4.43,1.51l-26.04-14.64h61.34Z"/>
      <polygon class="cls-4" points="129.09 183.08 124 183.08 98.63 183.08 98.63 178.06 129.09 178.06 129.09 183.08"/>
      <path class="cls-4" d="m114.35,212.13h-42.05l15.32-8.61c1.03,1.61,3.1,2.71,5.5,2.71s4.61-1.18,5.61-2.88l15.62,8.78Z"/>
      <path class="cls-4" d="m99.33,201.21c0,.76-.21,1.49-.59,2.14l-5.41-3.04,4.38-2.46c1,.88,1.61,2.06,1.61,3.36Z"/>
      <path class="cls-4" d="m93.33,200.31l5.41,3.04c-1,1.7-3.13,2.88-5.61,2.88s-4.47-1.1-5.5-2.71l5.7-3.21Z"/>
      <rect class="cls-5" x="87.34" y="178.06" width="11.28" height="5.02"/>
      <path class="cls-4" d="m93.13,196.21c1.82,0,3.45.63,4.58,1.65l-4.38,2.46-4.63-2.6c1.13-.93,2.7-1.51,4.43-1.51Z"/>
      <path class="cls-4" d="m93.33,200.31l-5.7,3.21c-.44-.68-.69-1.47-.69-2.31,0-1.37.68-2.6,1.77-3.5l4.63,2.6Z"/>
      <path class="cls-4" d="m62.66,183.08l26.04,14.64c-1.09.9-1.77,2.13-1.77,3.5,0,.83.25,1.62.69,2.31l-15.32,8.61H30.72l-15.62-8.78c.38-.65.59-1.38.59-2.14,0-1.3-.62-2.48-1.61-3.36l26.28-14.77h22.3Zm-8.51,18.14c0-2.76-2.24-5.01-5.01-5.01s-5.02,2.24-5.02,5.01,2.24,5.02,5.02,5.02,5.01-2.24,5.01-5.02Z"/>
      <polygon class="cls-4" points="87.34 183.08 62.66 183.08 56.88 183.08 56.88 178.06 87.34 178.06 87.34 183.08"/>
      <rect class="cls-5" x="45.6" y="178.06" width="11.28" height="5.02"/>
      <path class="cls-5" d="m49.15,196.21c2.76,0,5.01,2.24,5.01,5.01s-2.24,5.02-5.01,5.02-5.02-2.24-5.02-5.02,2.24-5.01,5.02-5.01Z"/>
      <polygon class="cls-4" points="45.6 183.08 40.37 183.08 15.14 183.08 15.14 178.06 45.6 178.06 45.6 183.08"/>
      <path class="cls-4" d="m30.72,212.13H.24v-6.51l3.75-2.11c1.03,1.61,3.11,2.71,5.5,2.71s4.61-1.18,5.61-2.88l15.62,8.78Z"/>
      <path class="cls-4" d="m15.7,201.21c0,.76-.21,1.49-.59,2.14l-5.41-3.04,4.38-2.46c1,.88,1.61,2.06,1.61,3.36Z"/>
      <rect class="cls-5" x="3.86" y="178.06" width="11.28" height="5.02"/>
      <path class="cls-4" d="m9.7,200.31l5.41,3.04c-1,1.7-3.13,2.88-5.61,2.88s-4.47-1.1-5.5-2.71l5.7-3.21Z"/>
      <path class="cls-4" d="m9.5,196.21c1.82,0,3.45.63,4.58,1.65l-4.38,2.46-4.63-2.6c1.13-.93,2.7-1.51,4.43-1.51Z"/>
      <path class="cls-4" d="m9.7,200.31l-5.7,3.21c-.44-.68-.69-1.47-.69-2.31,0-1.37.68-2.6,1.77-3.5l4.63,2.6Z"/>
      <path class="cls-4" d="m.24,195l4.83,2.71c-1.09.9-1.77,2.13-1.77,3.5,0,.83.25,1.62.69,2.31l-3.75,2.11v-10.62Z"/>
      <polygon class="cls-8" points="212.57 178.06 182.11 178.06 170.83 178.06 140.37 178.06 129.09 178.06 98.63 178.06 87.34 178.06 56.88 178.06 45.6 178.06 15.14 178.06 3.86 178.06 .24 178.06 .24 110.72 1.13 110.72 269.58 110.72 269.58 178.06 265.6 178.06 254.31 178.06 223.85 178.06 212.57 178.06"/>
      <path class="cls-4" d="m.24,183.08h40.12l-26.28,14.77c-1.14-1.01-2.76-1.65-4.58-1.65s-3.3.58-4.43,1.51l-4.83-2.71v-11.92Z"/>
    </g>
    <g>
      <polyline class="cls-1" points="269.58 212.13 239.19 212.13 197.8 212.13 155.75 212.13 114.35 212.13 72.31 212.13 30.72 212.13 .24 212.13"/>
      <line class="cls-1" x1=".24" y1="104.96" x2="269.58" y2="104.96"/>
      <line class="cls-1" x1=".24" y1="110.72" x2="269.58" y2="110.72"/>
      <line class="cls-1" x1="265.6" y1="178.06" x2="269.58" y2="178.06"/>
      <line class="cls-1" x1="223.85" y1="178.06" x2="254.31" y2="178.06"/>
      <line class="cls-1" x1="182.11" y1="178.06" x2="212.57" y2="178.06"/>
      <line class="cls-1" x1="140.37" y1="178.06" x2="170.83" y2="178.06"/>
      <line class="cls-1" x1="98.63" y1="178.06" x2="129.09" y2="178.06"/>
      <line class="cls-1" x1="56.88" y1="178.06" x2="87.34" y2="178.06"/>
      <line class="cls-1" x1="15.14" y1="178.06" x2="45.6" y2="178.06"/>
      <line class="cls-1" x1=".24" y1="178.06" x2="3.86" y2="178.06"/>
      <line class="cls-1" x1="265.6" y1="183.08" x2="269.58" y2="183.08"/>
      <polyline class="cls-1" points="223.85 183.08 229.55 183.08 254.31 183.08"/>
      <polyline class="cls-1" points="182.11 183.08 207.44 183.08 212.57 183.08"/>
      <polyline class="cls-1" points="140.37 183.08 146.11 183.08 170.83 183.08"/>
      <polyline class="cls-1" points="98.63 183.08 124 183.08 129.09 183.08"/>
      <polyline class="cls-1" points="56.88 183.08 62.66 183.08 87.34 183.08"/>
      <polyline class="cls-1" points="15.14 183.08 40.37 183.08 45.6 183.08"/>
      <line class="cls-1" x1=".24" y1="183.08" x2="3.86" y2="183.08"/>
      <polyline class="cls-1" points="72.31 212.13 87.63 203.52 93.33 200.31 97.72 197.85 124 183.08"/>
      <polyline class="cls-1" points="114.35 212.13 98.74 203.35 93.33 200.31 88.7 197.71 62.66 183.08"/>
      <path class="cls-1" d="m139.1,201.21c0,2.77-2.24,5.02-5.01,5.02s-5.02-2.24-5.02-5.02,2.24-5.01,5.02-5.01,5.01,2.24,5.01,5.01Z"/>
      <path class="cls-1" d="m223.59,201.21c0,2.77-2.24,5.02-5.01,5.02s-5.02-2.24-5.02-5.02,2.24-5.01,5.02-5.01,5.01,2.24,5.01,5.01Z"/>
      <path class="cls-1" d="m97.72,197.85c1,.88,1.61,2.06,1.61,3.36,0,.76-.21,1.49-.59,2.14-1,1.7-3.13,2.88-5.61,2.88s-4.47-1.1-5.5-2.71c-.44-.68-.69-1.47-.69-2.31,0-1.37.68-2.6,1.77-3.5,1.13-.93,2.7-1.51,4.43-1.51,1.82,0,3.45.63,4.58,1.65Z"/>
      <polyline class="cls-1" points=".24 205.62 4 203.52 9.7 200.31 14.08 197.85 40.37 183.08"/>
      <polyline class="cls-1" points="30.72 212.13 15.11 203.35 9.7 200.31 5.07 197.71 .24 195"/>
      <path class="cls-1" d="m14.08,197.85c1,.88,1.61,2.06,1.61,3.36,0,.76-.21,1.49-.59,2.14-1,1.7-3.13,2.88-5.61,2.88s-4.47-1.1-5.5-2.71c-.44-.68-.69-1.47-.69-2.31,0-1.37.68-2.6,1.77-3.5,1.13-.93,2.7-1.51,4.43-1.51,1.82,0,3.45.63,4.58,1.65Z"/>
      <polyline class="cls-1" points="155.75 212.13 171.07 203.52 176.77 200.31 181.16 197.85 207.44 183.08"/>
      <polyline class="cls-1" points="197.8 212.13 182.18 203.35 176.77 200.31 172.15 197.71 146.11 183.08"/>
      <path class="cls-1" d="m181.16,197.85c1,.88,1.61,2.06,1.61,3.36,0,.76-.21,1.49-.59,2.14-1,1.7-3.13,2.88-5.61,2.88s-4.47-1.1-5.5-2.71c-.44-.68-.69-1.47-.69-2.31,0-1.37.68-2.6,1.77-3.5,1.13-.93,2.7-1.51,4.43-1.51,1.82,0,3.45.63,4.58,1.65Z"/>
      <polyline class="cls-1" points="239.19 212.13 254.51 203.52 260.21 200.31 264.6 197.84 269.58 195.04"/>
      <polyline class="cls-1" points="269.58 205.58 265.62 203.35 260.21 200.31 255.59 197.71 229.55 183.08"/>
      <path class="cls-1" d="m264.6,197.84c1,.89,1.61,2.07,1.61,3.37,0,.76-.21,1.49-.59,2.14-1,1.7-3.13,2.88-5.61,2.88s-4.47-1.1-5.5-2.71c-.44-.68-.69-1.47-.69-2.31,0-1.37.68-2.6,1.77-3.5,1.13-.93,2.7-1.51,4.43-1.51,1.82,0,3.45.63,4.58,1.64Z"/>
      <path class="cls-1" d="m54.15,201.21c0,2.77-2.24,5.02-5.01,5.02s-5.02-2.24-5.02-5.02,2.24-5.01,5.02-5.01,5.01,2.24,5.01,5.01Z"/>
      <rect class="cls-1" x="3.86" y="178.06" width="11.28" height="5.02"/>
      <rect class="cls-1" x="45.6" y="178.06" width="11.28" height="5.02"/>
      <rect class="cls-1" x="87.34" y="178.06" width="11.28" height="5.02"/>
      <rect class="cls-1" x="129.09" y="178.06" width="11.28" height="5.02"/>
      <rect class="cls-1" x="170.83" y="178.06" width="11.28" height="5.02"/>
      <rect class="cls-1" x="212.57" y="178.06" width="11.28" height="5.02"/>
      <rect class="cls-1" x="254.31" y="178.06" width="11.28" height="5.02"/>
    </g>
  </g>
  <g>
    <g>
      <path class="cls-11" d="m153.26,158.21c-.3.41-.77.94-1.47,1.55h0c-19.42-5.75-36.54-20.01-46.05-29.03-2.7-2.57-4.79-4.71-6.14-6.12,12.94,1.1,40.37,16.15,55.42,21.68s41.82,7.74,42.48,10.17c.67,2.44,3.08,3.89-1.12,4.38h0c-2.76.1-7.6.43-13.93,4.77-9.73,2.5-20.36-4.06-20.36-4.06,0,0-1.99-.89-8.82-3.35Z"/>
      <path class="cls-10" d="m135.58,167.63c2.18-.69,4.09-1.39,5.79-2.06l.16.42c4.94-.16,14.58,1.65,20.55-4.42,0,0,10.62,6.56,20.36,4.06-7.96,5.45-14.16,6.34-23.15,6.49s-22.12-4.28-22.12-4.28c-.49.02-1.02-.05-1.58-.2Z"/>
      <path class="cls-9" d="m68.03,139.43c3.12-10.4,5.1-10.42,4.89-22.13-.23-11.72-3.14-30.75-4.89-42.69-1.75-11.95-4.63-18.59-4.63-18.59,0,0-4.2,38.05-3.76,50.23.44,12.17-1.4,43.14-.03,46.24,3.35-4.2,8.42-5.98,8.42-5.98v-7.08Zm62.69-30.42c-1.83-1.42-3.2-2.55-3.81-3.1-2.44-2.21-5.87,1.55-6.86,2.68s-20.46,16.02-20.46,16.02c1.35,1.4,3.44,3.54,6.14,6.12,9.51,9.02,26.63,23.28,46.05,29.02h0c-1.73,1.53-4.88,3.6-10.42,5.81-1.7.68-3.61,1.37-5.79,2.06h0c-8.46-2.22-22.71-22.22-22.71-22.22,0,0-7.42-3.99-10.29-1.11-1.59,1.59-9.61,6.85-16.49,11.24-5.41,3.46-10.1,6.39-10.42,6.59h-.02c-1.28-.27-2.46-.58-3.53-.94-5.75-1.92-7.23-2.95-7.23-2.95-2.15-.02-4.06-.03-5.78-.04l-20.69-26.73,3.02-19.54c1.62-6.64,5.02-16.66,5.02-16.66-5.75-17.11-8.27-28.82-2.95-35.43,5.31-6.61,12.54-9.56,12.54-9.56l.49.09,9.54,1.68.1.14,8.32,12.25c6.2-2.36,16.59-9,16.59-9,.84.96,1.74,1.8,2.72,2.51,2.41,1.46,6.37,2.5,12.4,1.48,0,0,5.45,3.25,8.18.41,2.73-2.85,5.69-10.66,3.94-14.76,0,0,5.28,2.62,6.67,2.44h4.87c0-.07,0-.15-.02-.23,1.15.02,2.32.08,3.34.23,2.81.41,19.03,7.7,20.65,13.49,1.23,4.4,7.75,18.92,12.17,28.41,1.4,3.01,2.58,5.5,3.32,7.03.65,1.33,1.69,3,2.95,4.84v.02c1.08,4.55-5.54,15.58-6.27,21.54l-.02.42c-6.85-.21-12.71-.42-12.71-.42h0c-.49-.18-.98-.36-1.46-.55-6.05-2.24-15.62-9.06-21.07-13.28Z"/>
      <path class="cls-6" d="m151.79,159.76c.7-.62,1.17-1.14,1.47-1.55,6.83,2.46,8.82,3.35,8.82,3.35-5.97,6.07-15.61,4.26-20.55,4.42l-.16-.42c5.54-2.21,8.68-4.29,10.42-5.81Z"/>
      <path class="cls-5" d="m123.59,24c2.46,5.88,6,18.87,6.25,23.28-2.02-.03-3.96.11-4.85.23-.95-10.95-1.1-17.22-3.83-22.31-2.73-5.09-15.12-17.99-16.67-19.32-1.54-1.33-2.65-.96-3.02.36-.37,1.33-.96,4.72-.45,5.9l.52,1.18h5.31v1.62h-4.58v1.55c3.69,3.76,7.67,10.03,9.14,12.91,1.48,2.87,6.9,15.67,6.9,15.67,0,0-5.42.42-5.79-.37-1.59-3.45-2.08-3.23-2.71-3.67,0,0,1.39,0,1.88-1.27.5-1.27-.22-5.69-.94-6.85s-2.6-.67-3.93,3.48l-7.8-13.55s-2.27,1.77-4.32,3.54c-2.05,1.77-7.19,2.82-9.35,2.6-.81-.09-1.22-.45-1.37-.94-.27-.81.19-1.98.7-2.77.83-1.27,5.1-4.81,7.03-6.75v-1.33h-3.47v-1.4h3.06v-1.92c-2.76-1.88-7.18-7.37-8.09-8.26-.91-.88-.73-2.18-.62-3.21.11-1.04,1.59-2.4,3.69-1.73,2.1.66,10.68,8.15,10.68,8.15.3-3.68.37-5.9,1.7-6.93,1.33-1.03,4.28-1.21,6.27.62,1.99,1.85,16.11,15.5,18.62,21.49Z"/>
      <path class="cls-7" d="m70.49,40.87c1.21-1.55,6.2-2.99,8.19-2.65,1.99.33,0,1.07,0,1.07l-1.47.36-1.4.23s.54.39.49.9c-.03.52-.43.75-.85.85.63.48,1.33,1.11-.33,1.37.48.29,1.18.51.96.92-.23.41-1.11.44-1.11.44-.03.29-.85,2.03-1.44,2.88s-3.09,1.27-4.37,1.11c-1.37,1.21-2.76,3.63-2.91,3.78l-.1.06-.1-.14-9.54-1.68c5.23-3.73,12.76-7.94,13.97-9.49Z"/>
      <path class="cls-7" d="m83.49,35.63c-.38-3.28-.32-6.01.13-7.49l.38-.1c.15.49.55.85,1.37.94,2.16.22,7.31-.83,9.35-2.6,2.05-1.78,4.32-3.54,4.32-3.54l7.8,13.55c1.33-4.15,3.21-4.64,3.93-3.48s1.44,5.58.94,6.85c-.49,1.27-1.88,1.27-1.88,1.27.63.43,1.13.22,2.71,3.67.36.8,5.79.37,5.79.37,1.75,4.1-1.21,11.91-3.94,14.76-2.73,2.84-8.18-.41-8.18-.41-6.03,1.01-9.99-.02-12.4-1.48-.98-.71-1.88-1.55-2.72-2.51-4.48-5.16-6.86-13.48-7.58-19.79Z"/>
      <path class="cls-6" d="m208.66,108.59s-8.68,13.42-19.66,17.01h0c-.34-.76-.67-1.49-.98-2.14-.42-.89-.81-1.66-1.14-2.24-2.1-3.72-9.88-13.04-14.6-19.92v-.02c-1.27-1.84-2.31-3.5-2.95-4.84-.74-1.53-1.92-4.02-3.32-7.03,0,0,8.48.8,12.24,1.9,3.76,1.11,28.54,14.2,30.43,17.28Z"/>
      <path class="cls-6" d="m245.64,148.64c-4.16,4.18-7.63,7.97-8.88,9.6-2.98,3.86-10.95,7.74-10.95,7.74-12.72-6.08-21.88-14.3-27.48-15.39-2.18-3.18-2.61-6.91-2.61-7.7,0-.13-.1-.51-.29-1.07h0c.14-.36,3.12-8.46,4.27-12.79,1.18-4.42,12.05-15.81,12.05-15.81v3.54s5.98,7.63,17.59,9.63c11.61,1.99,32.75,6.2,33.52,7.52-4.43,2.5-11.49,8.98-17.23,14.74Z"/>
      <path class="cls-10" d="m135.58,167.63h0c.55.15,1.08.22,1.58.2-8.86,1.47-26.26,4.72-40.27-4.28-.29,0-.6.02-.89.02-2.86-.13-9.92-8.02-9.92-8.02,6.88-4.39,14.9-9.65,16.49-11.24,2.88-2.88,10.29,1.11,10.29,1.11,0,0,14.26,20,22.71,22.22Z"/>
      <path class="cls-10" d="m38.41,131.47l20.69,26.73c-11.66-.05-14.72-.22-23.72-4.97-10.32-5.46-13-11.78-12.37-21.68.99-15.86,18.42-19.62,18.42-19.62l-3.02,19.54Z"/>
      <path class="cls-10" d="m96,163.57c-7.62.19-14.89-.27-20.35-1.44.32-.2,5.02-3.13,10.42-6.59,0,0,7.06,7.89,9.92,8.02Z"/>
      <path class="cls-11" d="m72.92,117.3c.22,11.72-1.77,11.73-4.89,22.13v7.08s-5.07,1.78-8.42,5.98c-1.36-3.1.48-34.07.03-46.24-.44-12.18,3.76-50.23,3.76-50.23,0,0,2.88,6.64,4.63,18.59,1.75,11.94,4.66,30.97,4.89,42.69Z"/>
      <path class="cls-9" d="m208.66,108.59c1.88,3.08,3.09,4.63,3.09,4.63,0,0-10.88,11.4-12.05,15.81-1.15,4.33-4.13,12.43-4.27,12.78-.94-2.89-3.99-10.74-6.43-16.21,10.98-3.59,19.66-17.01,19.66-17.01Z"/>
      <path class="cls-9" d="m186.87,121.22c.33.59.72,1.35,1.14,2.24l-.93.16c-1.26.19-12.05-.1-21.11-.36l.02-.42c.74-5.96,7.36-16.99,6.27-21.54,4.72,6.88,12.5,16.2,14.6,19.92Z"/>
      <path class="cls-9" d="m153.26,122.85h0s5.86.2,12.71.41c9.06.27,19.85.55,21.11.36l.93-.16c.31.65.64,1.38.98,2.14h0c2.44,5.48,5.49,13.33,6.43,16.21h0c.18.57.29.95.29,1.08,0,.79.42,4.51,2.61,7.7.7,1.02,1.59,1.99,2.7,2.78,4.58,3.24-.88,7.08-2.95,7.37-.42.06-1,.07-1.71.1h0c4.19-.49,1.79-1.95,1.12-4.38-.66-2.44-27.44-4.64-42.48-10.17s-42.48-20.58-55.42-21.68c0,0,19.46-14.9,20.46-16.02s4.43-4.89,6.86-2.68c.62.55,1.98,1.68,3.81,3.1,5.46,4.22,15.03,11.04,21.07,13.28.49.18.98.36,1.46.55Z"/>
    </g>
    <g>
      <path class="cls-2" d="m83.62,28.15c-.45,1.48-.51,4.21-.13,7.49.72,6.32,3.1,14.64,7.58,19.79.84.96,1.74,1.8,2.72,2.51,2.41,1.46,6.37,2.5,12.4,1.48.29-.04.58-.1.88-.16,3.31-.63,3.69-3.09,3.69-3.09"/>
      <path class="cls-2" d="m118.31,45.07s-5.42.42-5.79-.37c-1.59-3.45-2.08-3.23-2.71-3.67,0,0,1.39,0,1.88-1.27.5-1.27-.22-5.69-.94-6.85s-2.6-.67-3.93,3.48l-7.8-13.55s-2.27,1.77-4.32,3.54c-2.05,1.77-7.19,2.82-9.35,2.6-.81-.09-1.22-.45-1.37-.94-.27-.81.19-1.98.7-2.77.83-1.27,5.1-4.81,7.03-6.75v-1.33h-3.47v-1.4h3.06v-1.92c-2.76-1.88-7.18-7.37-8.09-8.26-.91-.88-.73-2.18-.62-3.21.11-1.04,1.59-2.4,3.69-1.73,2.1.66,10.68,8.15,10.68,8.15.3-3.68.37-5.9,1.7-6.93,1.33-1.03,4.28-1.21,6.27.62,1.99,1.85,16.11,15.5,18.62,21.49,2.46,5.88,6,18.87,6.25,23.28,0,.08.02.16.02.23h-4.87c-.95-10.95-1.1-17.22-3.83-22.31-2.73-5.09-15.12-17.99-16.67-19.32-1.54-1.33-2.65-.96-3.02.36-.37,1.33-.96,4.72-.45,5.9l.52,1.18h5.31v1.62h-4.58v1.55c3.69,3.76,7.67,10.03,9.14,12.91,1.48,2.87,6.9,15.67,6.9,15.67Z"/>
      <path class="cls-2" d="m75.64,162.13h0c-1.28-.27-2.46-.58-3.53-.94-5.75-1.92-7.23-2.95-7.23-2.95-2.15-.02-4.06-.03-5.78-.04-11.66-.05-14.72-.22-23.72-4.97-10.32-5.46-13-11.78-12.37-21.68.99-15.86,18.42-19.62,18.42-19.62,1.62-6.64,5.02-16.66,5.02-16.66-5.75-17.11-8.27-28.82-2.95-35.43,5.31-6.61,12.54-9.56,12.54-9.56l.49.09,9.54,1.68.1.14,8.32,12.25c6.2-2.36,16.59-9,16.59-9"/>
      <path class="cls-2" d="m195.43,141.82c.18.56.29.94.29,1.07,0,.79.42,4.51,2.61,7.7.7,1.02,1.59,1.99,2.7,2.78,4.58,3.24-.88,7.08-2.95,7.37-.42.06-1,.07-1.71.1-2.76.1-7.6.42-13.93,4.77-7.96,5.45-14.16,6.34-23.15,6.49s-22.12-4.28-22.12-4.28c-8.86,1.47-26.26,4.72-40.27-4.28-.29,0-.6.02-.89.02-7.62.19-14.89-.27-20.35-1.44"/>
      <path class="cls-2" d="m189,125.6c2.44,5.48,5.49,13.33,6.43,16.21"/>
      <path class="cls-2" d="m172.27,101.29c4.72,6.88,12.5,16.2,14.6,19.92.33.59.72,1.35,1.14,2.24.31.65.64,1.38.98,2.14"/>
      <path class="cls-2" d="m106.19,59.42s5.45,3.25,8.18.41c2.73-2.85,5.69-10.66,3.94-14.76,0,0,5.28,2.62,6.67,2.44.89-.11,2.83-.25,4.85-.23,1.15.02,2.32.08,3.34.23,2.81.41,19.03,7.7,20.65,13.49,1.23,4.4,7.75,18.92,12.17,28.41,1.4,3.01,2.58,5.5,3.32,7.03.65,1.33,1.69,3,2.95,4.84"/>
      <path class="cls-2" d="m56.52,50.36c5.23-3.73,12.76-7.94,13.97-9.49s6.2-2.99,8.19-2.65c1.99.33,0,1.07,0,1.07l-1.47.36-1.4.23s.54.39.49.9c-.03.52-.43.75-.85.85.63.48,1.33,1.11-.33,1.37.48.29,1.18.51.96.92-.23.41-1.11.44-1.11.44-.03.29-.85,2.03-1.44,2.88s-3.09,1.27-4.37,1.11c-1.37,1.21-2.76,3.63-2.91,3.78"/>
      <path class="cls-2" d="m83.48,35.63h0c.9-.02,4.87.13,5.25,0"/>
      <path class="cls-2" d="m94.11,34.34s4.48-1.88,5.09-2.38"/>
      <line class="cls-2" x1="94.66" y1="39.65" x2="99.59" y2="37.32"/>
      <line class="cls-2" x1="85.87" y1="43.58" x2="88.19" y2="43.58"/>
      <path class="cls-2" d="m89.46,40.76s1.33,8.8,2.05,9.35,2.7-.06,2.93-.67"/>
      <path class="cls-2" d="m95.71,47c.38.17.94,1,.94,1.16"/>
      <path class="cls-2" d="m95.1,54.03s1.07-.72,1.55-.94c.48-.23,1.6-.23,1.6-.23"/>
      <path class="cls-2" d="m165.99,89.41s8.48.8,12.24,1.9c3.76,1.11,28.54,14.2,30.43,17.28s3.09,4.63,3.09,4.63v3.54s5.98,7.63,17.59,9.63c11.61,1.99,32.75,6.2,33.52,7.52-4.43,2.5-11.49,8.98-17.23,14.74-4.16,4.18-7.63,7.97-8.88,9.6-2.98,3.86-10.95,7.74-10.95,7.74-12.72-6.08-21.88-14.3-27.48-15.39"/>
      <path class="cls-2" d="m209.22,135.01s5.42,7.19,19.46,10.17c14.06,2.99,16.96,3.46,16.96,3.46"/>
      <path class="cls-2" d="m208.66,108.59s-8.68,13.42-19.66,17.01h0"/>
      <path class="cls-2" d="m211.75,113.22s-10.88,11.4-12.05,15.81c-1.15,4.33-4.13,12.43-4.27,12.78h0"/>
      <path class="cls-3" d="m97.59,59.83s-.67,3.72,1.99,7.15c2.65,3.42,5.97,4.64,9.62,4.42,3.65-.22,18.92-11.5,22.12-16.81"/>
      <path class="cls-3" d="m131.88,61.67c-.88,1.44-5.75,16.04-8.63,24.33-2.87,8.3-6.41,22.24-6.08,24.45"/>
      <path class="cls-3" d="m124.52,105.14c.04-13.5,16.11-24.89,25.29-27.44-2.32-2.21-5.31-10.4-5.31-10.4l-8.96,9.96"/>
      <path class="cls-3" d="m153.26,122.84s5.86.21,12.71.42c9.06.27,19.85.55,21.11.36"/>
      <path class="cls-3" d="m130.72,109.02s24.06-13.39,25.39-16.71"/>
      <path class="cls-3" d="m104.79,73.72s-7.63,21.69-9.69,33.63c-2.05,11.95-3.15,24.12-3.15,24.12"/>
      <path class="cls-3" d="m96.67,71.42s-9.5,17.24-13.2,29.24c-1.19,3.86-2.16,7.81-2.92,11.4-1.61,7.58-2.32,13.54-2.32,13.54,9.1,5.78,17.18,8.26,27.5,5.13.15-.04.3-.09.46-.14"/>
      <path class="cls-3" d="m79.56,71.42s1.86,26.53,3.92,29.24"/>
      <path class="cls-3" d="m63.41,56.02s-4.2,38.05-3.76,50.23c.44,12.17-1.4,43.14-.03,46.24,3.35-4.2,8.42-5.98,8.42-5.98v-7.08c3.12-10.4,5.1-10.42,4.89-22.13-.23-11.72-3.14-30.75-4.89-42.69-1.75-11.95-4.63-18.59-4.63-18.59Z"/>
      <path class="cls-3" d="m71.6,72.84s5.3,25.67,3.76,33.63"/>
      <path class="cls-3" d="m46.6,105.14s-.67,8.19,2.88,14.83"/>
      <polyline class="cls-2" points="41.43 111.93 38.41 131.47 59.1 158.2 59.1 158.21"/>
      <path class="cls-2" d="m41.28,146.29s9.9,7.88,13.05,8.85"/>
      <path class="cls-2" d="m135.58,167.63c.55.15,1.08.22,1.58.2"/>
      <path class="cls-2" d="m68.03,146.51l7.6,15.62h0s0,0,0,0h0c.32-.2,5.02-3.13,10.42-6.59,6.88-4.39,14.9-9.65,16.49-11.24,2.88-2.88,10.29,1.11,10.29,1.11,0,0,14.26,20,22.71,22.22"/>
      <path class="cls-2" d="m135.58,167.63h0c2.18-.69,4.09-1.39,5.79-2.06,5.54-2.21,8.68-4.29,10.42-5.81.7-.62,1.17-1.14,1.47-1.55,6.83,2.46,8.82,3.35,8.82,3.35-5.97,6.07-15.61,4.26-20.55,4.42"/>
      <path class="cls-2" d="m162.08,161.56s10.62,6.56,20.36,4.06"/>
      <path class="cls-3" d="m151.78,159.75c-19.42-5.75-36.54-20-46.05-29.02-2.7-2.57-4.79-4.71-6.14-6.12,0,0,19.46-14.9,20.46-16.02s4.43-4.89,6.86-2.68c.62.55,1.98,1.68,3.81,3.1,5.46,4.22,15.03,11.04,21.07,13.28.49.18.98.36,1.46.55,7.61,2.9,15.13,6.53,15.13,6.53"/>
      <path class="cls-3" d="m99.59,124.61c12.94,1.1,40.37,16.15,55.42,21.68s41.82,7.74,42.48,10.17c.67,2.44,3.08,3.89-1.12,4.38"/>
      <path class="cls-2" d="m172.27,101.29v-.02"/>
      <path class="cls-3" d="m165.99,122.84c.74-5.96,7.36-16.99,6.27-21.54"/>
      <path class="cls-3" d="m73.62,127.33s4.9,7.63,9.54,9.4c4.64,1.77,13.49.61,17.37-1.99"/>
      <path class="cls-3" d="m75.63,101.76s3.2,10.13,4.92,10.29"/>
      <path class="cls-2" d="m86.08,155.54s7.06,7.89,9.92,8.02c.03,0,.06,0,.09,0"/>
    </g>
  </g>
</svg>