<?xml version="1.0" encoding="UTF-8"?>
<svg id="_レイヤー_1" data-name="レイヤー 1" xmlns="http://www.w3.org/2000/svg" viewBox="0 0 271.36 202.4">
  <defs>
    <style>
      .cls-1 {
        fill: #a381a2;
      }

      .cls-1, .cls-2, .cls-3, .cls-4, .cls-5, .cls-6, .cls-7, .cls-8, .cls-9 {
        stroke-width: 0px;
      }

      .cls-2 {
        fill: #c96b69;
      }

      .cls-3 {
        fill: #1a1a1a;
      }

      .cls-10 {
        fill: none;
        stroke: #000;
        stroke-linecap: round;
        stroke-linejoin: round;
      }

      .cls-4 {
        fill: #fbe3c9;
      }

      .cls-5 {
        fill: #9dbdba;
      }

      .cls-6 {
        fill: #333;
      }

      .cls-7 {
        fill: #fff;
      }

      .cls-8 {
        fill: #8caeb7;
      }

      .cls-9 {
        fill: #f1da8a;
      }
    </style>
  </defs>
  <g>
    <g>
      <path class="cls-6" d="m236.4,129.39c-3.52,2.14-6.08,3.67-6.08,3.67h-1.07c-.12-1.13-1.86-2.75-4.27-4.56,0,0,25.03-15.24,27.05-16.91s6.21-3.81,7.76-2.15c1.55,1.67-.84,4.65-3.1,6.92-1.53,1.52-12.98,8.59-20.28,13.03Z"/>
      <path class="cls-6" d="m253.66,96.99c-2.94,6.34-8.12,10.35-16.78,14.79-6.73,2.9-17.11,8.34-19.53,11.45-.21-.14-.43-.29-.64-.43-.55-.37-1.15-.69-1.78-.95,1.64-2.92,18.48-11.26,27.11-16.19,8.7-4.96,9.38-9.22,11.29-13.35,1.92-4.14,4.3-16.71,4.3-21.57,2.15-4.84,10.49-10.57,12.41-9.14,1.91,1.43.07,1.27-1.27,3.26-1.36,1.99-4.7,4.3-5.85,8.83s-6.52,17.4-9.26,23.3Z"/>
      <path class="cls-9" d="m178.14,180.66l-9.27.96s-2.37-3.44-2.37-5.83c0,0,.02,0,.03,0,2.6-.15,5.77-.44,9.24-.83-.71,1.99,1.14,4.4,2.37,5.71Z"/>
      <path class="cls-9" d="m187.49,180.66l-8.35.96s-.43-.36-.99-.96c-1.23-1.31-3.08-3.72-2.37-5.71,1.88-.21,3.85-.46,5.87-.73,0,3.46,5.85,6.44,5.85,6.44Z"/>
      <path class="cls-9" d="m195.78,179.11l-8.29,1.55s-5.85-2.98-5.85-6.44c2.64-.35,5.35-.75,8.04-1.17.44,2.82,3.98,4.99,6.1,6.06Z"/>
      <path class="cls-9" d="m197.38,171.74c1.4,1.87,4.77,2.94,9.96,3.54l-.06.51-9.91,4.04s-.66-.25-1.61-.72c-2.12-1.07-5.66-3.23-6.1-6.06,2.63-.42,5.22-.86,7.71-1.32Z"/>
      <path class="cls-9" d="m219.95,165.53l.14.35s-4.14,9.8-5.73,9.92c-2.62-.1-4.96-.27-7.02-.51-5.2-.6-8.56-1.67-9.96-3.54,5.43-1,10.32-2.08,13.72-3.13,2.99-.92,6-1.95,8.85-3.07Z"/>
      <path class="cls-9" d="m233.12,158.71c.95.52,5.17,2.64,9.08,2.07-3.9,3.34-10.08,6.05-10.08,6.05,0,0-6.39-.09-8.05-3.02,0,0,0,0,0,0,3.7-1.64,6.89-3.39,9.05-5.09Z"/>
      <path class="cls-9" d="m253.58,149.41c-3.93,3.22-9.54,7.45-9.54,7.45-2.04-4.73-4.44-8.86-8-11.01,0,.07-.03.15-.04.23-.11-.77-.25-1.54-.42-2.32-.34-1.59-.78-3.16-1.36-4.6.95-.12,2.05-.04,3.21.19,0,0,13.64,6.72,16.15,10.06Z"/>
      <path class="cls-9" d="m230.32,133.06s2.56-1.53,6.08-3.67c0,0,16.22,3.31,18.13,5.58,1.91,2.27-4.06,9.91-4.06,9.91,0,0-7.32-4.44-13.05-5.52-1.17-.22-2.26-.31-3.21-.19-1.15-2.9-2.78-5.25-4.97-6.1h1.07Z"/>
      <path class="cls-5" d="m66.05,90.75c-1.19,1.7-2.18,3.07-2.87,3.9-2.93,3.52-12.28,12.79-15.15,15.62-1.39-.73-3.19-1.28-5.85-1.65-3.32-.48-6.35-.97-9.19-1.11v-.05s13.37-9.97,33.05-16.7Z"/>
      <path class="cls-6" d="m128.44,51.34c-.72-.48-1.14-2.26-1.25-2.44-.12-.18,0-1.62,0-1.62l.15-.12c.71.71,2.61,2.55,4.84,4.18,0,0-3.03.48-3.74,0Z"/>
      <path class="cls-9" d="m144.62,48.48l-.33,6.4c-.25-.07-.39-.12-.39-.12l-1.25-.12v-6.16h1.97Z"/>
      <path class="cls-9" d="m147,48.48l-.98,6.92c-.77-.22-1.36-.4-1.73-.51l.33-6.4h2.38Z"/>
      <path class="cls-9" d="m150.3,46.52l-1.47,9.7c-1.06-.3-2.03-.58-2.81-.81h0s.98-6.92.98-6.92l.39-2.38,2.91.42Z"/>
      <path class="cls-9" d="m152.65,46.87l-1.83,9.9c-.68-.19-1.35-.37-1.98-.54l1.47-9.7,1.62.24.73.1Z"/>
      <path class="cls-9" d="m152.65,46.87l-.73-.1v-1.7l3.59.45-1.7,12.01c-.99-.23-2.01-.5-2.99-.76l1.83-9.9Z"/>
      <path class="cls-9" d="m158.77,45.91l-3.02,12.06c-.63-.14-1.28-.29-1.94-.45l1.7-12.01,3.26.4Z"/>
      <path class="cls-9" d="m160.59,46.34l4.07.94-4.2,11.36c-.36-.04-.72-.07-1.06-.09-.8-.06-1.82-.22-2.95-.45-.22-.05-.46-.09-.7-.14l3.02-12.06,1.82.43Z"/>
      <path class="cls-9" d="m166.14,59.71c-1.36-.38-2.69-.65-3.93-.84l2.45-10.72,1.81.33,2.33.43.79.14-3.45,10.66Z"/>
      <path class="cls-9" d="m167.34,60.08c-.4-.14-.79-.26-1.2-.37l3.45-10.66-.79-.14.07-.42,1.27-2.38,3.39,1.83-6.2,12.15Z"/>
      <path class="cls-9" d="m176.82,49.7l-.85,1.33-6.38,9.95c-.74-.35-1.5-.64-2.25-.9l6.2-12.15,3.29,1.77Z"/>
      <path class="cls-9" d="m178.58,52.49l-6.27,10.05c-.86-.61-1.78-1.12-2.72-1.56l6.38-9.95,2.61,1.47Z"/>
      <path class="cls-9" d="m181.12,53.92l-6.71,10.37h0c-.64-.66-1.36-1.24-2.09-1.76l6.27-10.05,2.54,1.43Z"/>
      <path class="cls-9" d="m185.72,56.22l.85.98-9.74,9.93c-.36-.45-.72-.89-1.08-1.32l8.9-10.68,1.07,1.08Z"/>
      <path class="cls-9" d="m184.65,55.14l-8.9,10.68c-.2-.24-.39-.48-.59-.71-.24-.28-.49-.55-.75-.81l6.71-10.37.95-1.36,2.57,2.57Z"/>
      <path class="cls-9" d="m186.57,57.2l1.74,2.01-10.38,9.33c-.36-.48-.73-.94-1.09-1.4l9.74-9.93Z"/>
      <path class="cls-9" d="m188.31,59.21l1.88,2.17-1.61,1.34-9.28,7.67c-.45-.64-.91-1.25-1.37-1.85l10.38-9.33Z"/>
      <path class="cls-9" d="m190.24,65.55l-9.71,6.61c-.4-.61-.81-1.2-1.23-1.77l9.28-7.67,1.66,2.83Z"/>
      <path class="cls-9" d="m191.17,67.14l.58.98-10.01,5.87c-.4-.63-.79-1.24-1.21-1.84l9.71-6.61.93,1.6Z"/>
      <path class="cls-9" d="m195.17,68.19l-12.2,7.86c-.41-.71-.82-1.39-1.23-2.06l10.01-5.87-.58-.98,2.68-2.04,1.32,3.08Z"/>
      <path class="cls-9" d="m182.97,76.05l12.2-7.86.78,1.82.52,1.21-12.49,6.64c-.34-.63-.67-1.23-1.01-1.82Z"/>
      <path class="cls-9" d="m199.37,72.65l-14.38,7.15c-.33-.66-.66-1.31-1-1.93l12.49-6.64-.52-1.21,2.44-.87.98,3.5Z"/>
      <path class="cls-9" d="m199.37,72.65l1.08,3.83-.62.22h0s-13.86,5.16-13.86,5.16c-.33-.71-.65-1.4-.99-2.07l14.38-7.15Z"/>
      <path class="cls-9" d="m199.83,76.71l.34,3.41-13.09,4.23h0c-.36-.86-.72-1.69-1.09-2.5l13.86-5.15Z"/>
      <path class="cls-9" d="m200.38,82.26l.07.66-12.44,3.82c-.18-.5-.36-.95-.52-1.38-.14-.35-.28-.68-.41-1.01l13.09-4.23.21,2.14Z"/>
      <path class="cls-9" d="m188.58,88.36c-.19-.57-.38-1.1-.57-1.61l12.44-3.82-.07-.66,1.1-.53.54,2.7-13.45,3.92Z"/>
      <path class="cls-9" d="m202.03,84.43l.57,2.86-13.57,2.42c-.15-.47-.3-.93-.45-1.36l13.45-3.92Z"/>
      <path class="cls-6" d="m124.49,24.75c.95,5.07,3.13,12.49,1.11,13.79-.84.55-1.34,1.37-1.66,2.23,0,0,0,0,0,.02-.64,1.7-.63,3.55-1.26,3.71-.96.24-1.44-5.49-3.42-5.49s-5.09-3.02-5.89-5.89c-.79-2.86-.79-3.9-.79-3.9-6.61,3.1-13.36,4.7-18.85,3.68.11-2.03,2.21-4.78,4.89-7.1,2.68-2.32,8.29-6.2,8.29-6.2h-4.77v-1.97h6.14s-2.98-2.45-6.14-5.19c-3.17-2.75-6.55-6.11-7.52-7.25-1.84-2.18.85-6.26,3.77-4.08,2.91,2.18,12.28,9.19,12.28,9.19,1.2-2.86,1.92-5.91,2.39-7.04.48-1.14,3.28-.84,5.61.65,2.33,1.49,8.47,9.36,8.52,10.74.07,1.37-2.32,2.22-2.32,2.22,2.21,2.91,2.21,5.41-.36,7.86Zm-1.19,4.47c-3.35-4.18-5.91-6.56-7.22-7.39,0,0,.9,5.66,5.07,11.75,2.22-3.58,2.15-4.35,2.15-4.35Zm-.86-16.14c-.73-3.38-4.43-4.81-4.43-4.81v5.74c.42.23,2.96-.07,4.43-.93Z"/>
      <path class="cls-5" d="m110.37,80.06c.79.67,1.94-.69,1.94-.69,0,0,.26-.23-.9-1.76.25.11.46.22.59.34.2.17.41.21.62.18h0s.42,1.32,1.76,2.56c-.59,1.49-6.14,9.48-6.14,9.48-.61-.69-2.02-1.88-3.78-3.39.54-.47,4.7-1.18,5.35-7.03.23.1.43.21.55.32Z"/>
      <path class="cls-5" d="m156.36,58.57c0,.06-7.46,4.7-13.37,13.18-1.43,2.05-3.14,3.77-5.01,5.21-6.02,4.62-13.62,6.22-18.07,5.95-2.66-.16-4.42-1.17-5.52-2.21-1.34-1.24-1.76-2.55-1.76-2.55h0c.67-.08,1.34-.87,1.34-.87,0,0,.27-.26-.98-1.88.26.22.49.48.66.73,1.38,1.95,2.22-.88,2.22-.88-.07-.89-1.93-2.77-2.16-2.99.11.08.59.5,1.92,1.73,1.07.98,2.23.71,2.75.19h0s4.5,2.89,7.43,1.52c2.92-1.37,15.03-8.95,16.22-13.06,1.2-4.12.62-7.74.62-7.74v-.24l1.25.12s.14.05.39.12c.36.11.96.29,1.73.51h0c.78.24,1.76.52,2.81.82.64.17,1.3.36,1.98.54.98.26,2,.52,2.99.76.66.16,1.32.31,1.94.45.24.05.48.09.7.14l-.09.46Z"/>
      <path class="cls-4" d="m118.37,74.16c-.51.52-1.68.79-2.75-.19-1.33-1.23-1.8-1.64-1.92-1.73.22.22,2.09,2.1,2.16,2.99,0,0-.84,2.83-2.22.88-.18-.25-.4-.5-.66-.73,1.25,1.62.98,1.88.98,1.88,0,0-.66.78-1.34.86-.21.04-.42,0-.62-.18-.13-.11-.34-.22-.59-.34,1.16,1.52.9,1.76.9,1.76,0,0-1.15,1.36-1.94.69-.12-.1-.32-.21-.55-.32-.65,5.85-4.81,6.56-5.35,7.03-1.52-1.31-3.31-2.88-5.03-4.56-.36-.36-.69-.63-.99-.8,2.37-4.66,4.99-9.39,7.76-10.81,1.67-.86,3.84-1.69,5.9-1.6.28.05.57.08.86.1,1.06.19,2.07.67,2.94,1.57,2.78,2.87,2.38,2.07,2.7,2.78.1.22,0,.5-.23.71Z"/>
      <path class="cls-4" d="m127.04,46.87s.1.11.29.3l-.15.12s-.12,1.44,0,1.62c.11.18.53,1.96,1.25,2.44.71.48,3.74,0,3.74,0,1.99,1.45,4.24,2.72,6.16,2.87l4.32.43v.24s.58,3.62-.62,7.74c-1.2,4.11-13.31,11.69-16.22,13.06-2.93,1.36-7.43-1.51-7.43-1.51h0c.23-.22.34-.5.23-.72-.32-.71.08.08-2.7-2.78-.88-.9-1.89-1.38-2.94-1.57-.28-.06-.57-.09-.86-.1-2.75-.44-5.05-1.93-6.94-3.89-2.02-2.1-3.57-4.77-4.68-7.33-2.7-6.21-6.21-20.99-6.76-24.87,5.49,1.02,12.24-.58,18.85-3.68,0,0,0,1.04.79,3.9.79,2.87,3.9,5.89,5.89,5.89s2.46,5.73,3.42,5.49c.64-.16.62-2.01,1.26-3.71,0,0,0,0,0-.02.63-1.12,3.23-2.54,4.06.67.63,2.48,1.03,3.97.23,4.73-.38.36-.78.6-1.19.67v.02Z"/>
      <path class="cls-2" d="m162.21,147.14c1.74,4.08,2.56,11.51,2.6,11.85-4.05.15-8.66.42-11.2,2.11-3.68,2.46-14.99,4.21-18.23,4.66,11.43-6.81,19.59-9.2,26.84-18.62Z"/>
      <path class="cls-9" d="m114.83,158.2c2.52-.19,3.99-2.53,4.62-5.07l.39.1h6.93s-7.56,5.17-18.2,12.14l-.07-.12-3.34-2.54,6.66-6.66c.64,1.35,1.77,2.25,3,2.16Z"/>
      <path class="cls-8" d="m130.82,161.89s-1.43,3.62-5.75,6.01c-4.31,2.38-14.53-2.03-14.53-2.03l-2.35-.25c.13-.08.26-.17.38-.25,10.63-6.97,18.2-12.14,18.2-12.14,1.24,3.89,2.72,6.69,4.05,8.66Z"/>
      <path class="cls-8" d="m134.49,165.88s.35-.04.88-.11c-2.85,3.59-12.66,6.55-19.11,7.98-6.35,1.41-20.73.37-21.16.35,2.18-1.39,4.33-2.77,6.4-4.11,2.33-1.5,4.57-2.96,6.69-4.35l2.35.25s10.22,4.41,14.53,2.03c4.32-2.39,5.75-6.01,5.75-6.01,1.95,2.91,3.59,3.98,3.67,3.98Z"/>
      <path class="cls-1" d="m166.53,175.78c-1.72.1-3.18.14-4.32.11-3.5-.09-7.47.04-11.74.43-6.45.59-13.58,1.76-20.82,3.63-1.74.45-3.73.66-5.86.7-12.59.23-30.07-5.68-30.07-5.68.46-.29.92-.58,1.37-.88h0c.43.03,14.81,1.07,21.16-.35,6.45-1.43,16.26-4.39,19.11-7.98,3.24-.45,14.55-2.21,18.23-4.66,2.54-1.69,7.16-1.96,11.2-2.11,2.8-.09,5.33-.12,6.69-.51,3.34-.95,15.99-8.35,25.89-16.94,8.11-7.04,18.38-8.14,26.68-8.38,9.17-2.35,9.93,6.99,11.51,10.62.17.78.31,1.55.42,2.32-.53,3.28-1.68,10.52-3.08,12.51,0,0,.07.04.21.11-2.16,1.7-5.35,3.45-9.05,5.09,0,0,0,0,0,0-1.32.59-2.7,1.17-4.12,1.72-2.85,1.12-5.86,2.16-8.85,3.07-3.4,1.05-8.29,2.13-13.72,3.13-2.49.46-5.08.9-7.71,1.32-2.69.42-5.4.82-8.04,1.17-2.02.27-3.99.51-5.87.73-3.48.39-6.64.68-9.24.83Z"/>
      <path class="cls-1" d="m29.1,152.26c-3.99-3.17-8.84-7.05-11.49-9.53-2.9-2.71-5.51-12.82-3.5-21.3.64-2.71,1.77-5.25,3.5-7.34,4.78-5.74,9.67-6.9,15.39-6.6,2.83.14,5.87.64,9.19,1.11,2.66.37,4.46.93,5.85,1.65,3.85,2.02,4.55,5.42,11.57,10.45,3.87,2.78,6.92,5.68,9.18,8.14,3.3,3.59,4.9,6.24,4.9,6.24v6.92l-5.77,5.77h0c-.12.09-.22.21-.31.32-.04.03-.06.06-.08.08l-.99.98-17.42,7.16,3.44,4.05.62.73s-3.81,3.1-4.53,2.86c-.71-.23-11.21-5.01-15.03-8.11-.5-.41-1.08-.87-1.72-1.37h0s-3.08-2.82-.28-.23c-.77-.61-1.61-1.27-2.5-1.98Z"/>
      <path class="cls-8" d="m17.44,146.44c2.31.65,5.57,2.2,9.06,5.92-4.68.12-14.24.14-15.91-1.77,0,0,5.58-4.51,6.84-4.16Z"/>
      <path class="cls-9" d="m85.15,153.84v.27l-2.35,4.49-1.74,3.3-1.5-.21-9.72-1.32,5.73-6.26v-.32c2.6,0,5.93.03,9.57.05Z"/>
      <path class="cls-9" d="m97.93,154.11c.05,2.91-9.02,16.72-9.02,16.72l1.71-.11-10.51,9.32-3.48-1.74c4.93-4.5,14.34-13.2,14.69-14.32h1.32l4.06-10.05c.41,0,.82,0,1.23,0v.17Z"/>
      <path class="cls-9" d="m87.67,163.98h3.65c-.36,1.12-9.76,9.81-14.69,14.32-1.77,1.62-2.96,2.69-2.96,2.69l-3.05-1.03,17.05-15.98Z"/>
      <polygon class="cls-9" points="87.67 163.98 70.63 179.96 70.62 179.95 66.78 177.7 82.8 163.98 87.67 163.98"/>
      <polygon class="cls-9" points="82.8 163.98 66.78 177.7 64.22 176.32 64.13 176.14 82.8 161.89 82.8 163.98"/>
      <path class="cls-9" d="m82.8,161.89l-18.67,14.24-2.78-.93,8.75-6.49c.32-.1.48-.11.51-.11l-.22-.1,9.18-6.81,1.5.21,1.74-3.3v3.3Z"/>
      <path class="cls-9" d="m96.7,153.93l-4.06,10.05h-9.84v-5.38l2.35-4.49v-.27c3.69.03,7.7.06,11.55.09Z"/>
      <path class="cls-9" d="m107.23,154.03c1.53.02,2.92.04,4.08.05.06.71.23,1.38.51,1.97l-6.66,6.66-.14-.07-3.52,7.34-10.88.74-1.71.11s9.06-13.81,9.02-16.72v-.17c3.37.03,6.58.06,9.3.08Z"/>
      <path class="cls-9" d="m111.55,147.13c1.53,0,2.43,0,2.43,0,0,0,1.59,4.98.33,6.97-.69,0-1.72-.02-2.99-.04-1.17,0-2.55-.03-4.08-.05-2.72-.03-5.92-.06-9.3-.08-.41,0-.82,0-1.23,0-3.85-.04-7.86-.07-11.55-.09-3.64-.02-6.97-.04-9.57-.05-2.46,0-4.25,0-5.01.03-4.06.12-3.34-1.31-3.46-2.14-.08-.56-.48-2.34.39-3.5.03-.03.05-.06.08-.08l.31-.32h0c.46-.37,1.12-.62,2.07-.64.78-.02,3.04-.04,6.17-.04,9.99-.03,28.74.02,35.41.03Z"/>
      <path class="cls-9" d="m111.83,156.04c-.28-.59-.46-1.26-.51-1.97,1.27.02,2.3.03,2.99.04,1.26-1.99-.33-6.97-.33-6.97,0,0-.9,0-2.43,0,.95-2.21,2.5-4.64,4.83-3.83,1.1.37,2.13,1.66,2.78,3.29.44,1.09.7,2.34.68,3.54,0,.94-.13,1.99-.39,3-.63,2.54-2.09,4.89-4.62,5.07-1.23.09-2.36-.81-3-2.16Z"/>
      <path class="cls-9" d="m126.77,153.23h-6.93l-.39-.1c.26-1.01.38-2.06.39-3,.02-1.21-.24-2.45-.68-3.54h5.97c.46,2.5,1.03,4.71,1.64,6.64Z"/>
      <path class="cls-5" d="m52.53,160.37l17.86,8.13-.29.21c-.82.27-2.72,1.22-6.21,4.55-2.03-2.26-15.27-9.31-15.27-9.31.72.24,4.53-2.86,4.53-2.86l-.62-.73Z"/>
      <path class="cls-9" d="m49.09,156.32l17.42-7.16.99-.98c-.87,1.16-.48,2.93-.39,3.5.12.83-.6,2.26,3.46,2.14.76-.02,2.55-.03,5.01-.03v.32l-5.73,6.26,9.72,1.32-9.18,6.81-17.86-8.13-3.44-4.05Z"/>
      <path class="cls-5" d="m26.51,152.36c-3.5-3.73-6.76-5.27-9.06-5.92-1.26-.36-6.84,4.16-6.84,4.16-5.57-.94-10.1-2.35-10.1-2.35l13.61-26.81c-2.02,8.48.6,18.59,3.5,21.3,2.65,2.49,7.5,6.36,11.49,9.53,0,0-1.02.06-2.59.1Z"/>
      <path class="cls-5" d="m112.1,68.99c-2.06-.09-4.22.74-5.9,1.6-2.77,1.42-5.38,6.15-7.76,10.81-3.02-1.81-2.57,5.58-5.61,12.97-3.34,8.11-23.54,34.35-23.54,34.35l-.52.12c-2.25-2.46-5.31-5.35-9.18-8.14-7.02-5.03-7.72-8.43-11.57-10.45,2.87-2.82,12.22-12.09,15.15-15.62.69-.83,1.68-2.2,2.87-3.9,4.79-6.86,12.68-19.12,15.74-22.94,3.82-4.78,9.66-3.34,14.99-3.22,5.16.12,8.19.5,8.38.52,1.9,1.96,4.2,3.45,6.94,3.89Z"/>
      <path class="cls-5" d="m160.13,131.49l.27-1.05c5.63-1.56,26.62-6.67,34.48-8.18,1.14-.22,2-.36,2.5-.41,1.75-.16,9.84-.74,13.01-1,2.93.66,11.2,4.14,18.85,11.82-1.26.02-3.78.44-5.18.48-8.3.24-18.57,1.35-26.68,8.38-9.9,8.6-22.55,15.99-25.89,16.94-1.36.39-3.89.42-6.69.51-.04-.34-.86-7.77-2.6-11.85-7.25,9.43-15.41,11.81-26.84,18.62-.53.07-.85.11-.88.11-.08,0-1.72-1.07-3.67-3.98-1.33-1.97-2.8-4.78-4.05-8.66-.62-1.93-1.19-4.15-1.64-6.65h-.06s-5.92,0-5.92,0c-.64-1.63-1.67-2.92-2.78-3.29-2.33-.8-3.88,1.63-4.83,3.83-6.67,0-25.42-.06-35.41-.03-3.13,0-5.39.02-6.17.04-.94.03-1.61.27-2.07.64l5.77-5.77v-6.92s-1.6-2.65-4.9-6.24l.52-.12s20.2-26.24,23.54-34.35c3.04-7.39,2.59-14.78,5.61-12.97.3.18.63.44.99.8,1.72,1.68,3.5,3.25,5.03,4.56,1.76,1.51,3.17,2.7,3.78,3.39,0,0,5.55-7.99,6.14-9.48,1.1,1.05,2.86,2.06,5.52,2.21,4.46.27,12.06-1.34,18.07-5.95l2.19.83c-2.43,1.97-15.45,13.19-16.23,27.89-.72,13.5,1.73,21.17,2.57,23.35l2.61-.13c3.07-2.08,5.98-4.17,11.45-3.34,1.62.25,3.47.75,5.61,1.59,3.64,1.42,8.74,2.99,13.97,4.35Z"/>
      <path class="cls-5" d="m160.46,58.65c.55.06,1.14.13,1.75.21,1.24.19,2.58.46,3.93.84.4.11.79.23,1.2.37.76.25,1.51.55,2.25.9.93.44,1.86.95,2.72,1.56l2.09,1.75h0c.26.27.5.54.75.82.2.23.39.47.59.71.36.43.72.87,1.08,1.32.36.46.73.93,1.09,1.4.47.6.93,1.21,1.37,1.85.42.57.83,1.16,1.23,1.77.41.6.8,1.21,1.21,1.84.41.66.82,1.35,1.23,2.06.34.59.67,1.2,1.01,1.82.34.62.67,1.26,1,1.93.34.66.66,1.36.99,2.07.37.8.74,1.64,1.09,2.5h0c.13.33.27.66.41,1.01.17.43.35.89.52,1.38.19.5.38,1.04.57,1.61.09.46.18.92.27,1.38,2.6,13.09,8.89,30.08,8.53,32.11-7.86,1.5-31.35,7.03-36.98,8.59l-.27,1.05c-5.23-1.36-10.34-2.93-13.97-4.35-2.14-.84-3.99-1.34-5.61-1.59-5.47-.83-8.38,1.25-11.45,3.34l-2.61.13c-.84-2.19-3.29-9.85-2.57-23.35.78-14.7,13.8-25.91,16.23-27.89l-2.19-.83c1.87-1.44,3.58-3.16,5.01-5.21,5.92-8.48,13.37-13.12,13.37-13.18l.09-.46c1.13.22,2.15.39,2.95.45.34.03.69.06,1.06.09Z"/>
      <path class="cls-7" d="m31.87,154.47h0s-.09-.07-.14-.1c.05.04.09.07.14.1Z"/>
    </g>
    <g>
      <path class="cls-10" d="m123.93,40.79c-.64,1.7-.63,3.55-1.26,3.71-.96.24-1.44-5.49-3.42-5.49s-5.09-3.02-5.89-5.89c-.79-2.86-.79-3.9-.79-3.9-6.61,3.1-13.36,4.7-18.85,3.68.11-2.03,2.21-4.78,4.89-7.1,2.68-2.32,8.29-6.2,8.29-6.2h-4.77v-1.97h6.14s-2.98-2.45-6.14-5.19c-3.17-2.75-6.55-6.11-7.52-7.25-1.84-2.18.85-6.26,3.77-4.08,2.91,2.18,12.28,9.19,12.28,9.19,1.2-2.86,1.92-5.91,2.39-7.04.48-1.14,3.28-.84,5.61.65,2.33,1.49,8.47,9.36,8.52,10.74.07,1.37-2.32,2.22-2.32,2.22,2.21,2.91,2.21,5.41-.36,7.86.95,5.07,3.13,12.49,1.11,13.79-.84.55-1.34,1.37-1.66,2.23"/>
      <path class="cls-10" d="m116.08,21.82s.9,5.66,5.07,11.75c2.22-3.58,2.15-4.35,2.15-4.35-3.35-4.18-5.91-6.56-7.22-7.39Z"/>
      <path class="cls-10" d="m118.02,14v-5.74s3.7,1.43,4.43,4.81c-1.47.85-4.01,1.16-4.43.93Z"/>
      <path class="cls-10" d="m93.72,32.91c.55,3.88,4.06,18.66,6.76,24.87,1.11,2.56,2.66,5.22,4.68,7.33,1.9,1.96,4.2,3.45,6.94,3.89.28.05.57.08.86.1,1.2.1,2.48,0,3.84-.34,1.85-.6,5.97-3.21,7.13-5.73"/>
      <path class="cls-10" d="m113.68,72.22l.03.03c.11.08.59.5,1.92,1.73,1.07.98,2.23.71,2.75.19.23-.21.34-.49.23-.71-.32-.71.08.08-2.7-2.78-.88-.9-1.89-1.38-2.94-1.57-.28-.06-.57-.09-.86-.1-2.06-.09-4.22.74-5.9,1.6-2.77,1.42-5.38,6.15-7.76,10.81,0,.03-.02.06-.04.08"/>
      <path class="cls-10" d="m112.98,75.39c.26.22.49.48.66.73,1.38,1.95,2.22-.88,2.22-.88-.07-.89-1.93-2.77-2.16-2.99"/>
      <path class="cls-10" d="m109.59,73.26s2.05.9,3.37,2.1"/>
      <path class="cls-10" d="m107.44,76.27s2.65.7,3.98,1.34c.25.11.46.22.59.34.2.17.41.21.62.18.67-.07,1.34-.86,1.34-.86,0,0,.27-.26-.98-1.88,0,0,0-.02-.02-.03"/>
      <path class="cls-10" d="m109.82,79.74c.23.1.43.21.55.32.79.67,1.94-.69,1.94-.69,0,0,.26-.23-.9-1.76-.03-.05-.07-.09-.1-.14"/>
      <path class="cls-10" d="m105.8,78.39s2.71.72,4.02,1.35"/>
      <path class="cls-10" d="m109.82,79.73h0c-.65,5.86-4.81,6.57-5.35,7.04"/>
      <path class="cls-10" d="m69.3,128.73s20.2-26.24,23.54-34.35c3.04-7.39,2.59-14.78,5.61-12.97.3.18.63.44.99.8,1.72,1.68,3.5,3.25,5.03,4.56,1.76,1.51,3.17,2.7,3.78,3.39.14.16.24.29.29.39v4.21c-.42,1.99-10.98,21.08-12.73,28.88s-2.15,9.19-2.08,14.63"/>
      <path class="cls-10" d="m108.24,90.16s5.55-7.99,6.14-9.48c.02-.05.03-.08.04-.11"/>
      <path class="cls-10" d="m112.62,78.13s.42,1.31,1.76,2.55c1.1,1.05,2.86,2.06,5.52,2.21,4.46.27,12.06-1.34,18.07-5.95,1.87-1.44,3.58-3.16,5.01-5.21,5.92-8.48,13.37-13.12,13.37-13.18h0"/>
      <path class="cls-10" d="m123.93,40.79s0,0,0-.02c.63-1.12,3.23-2.54,4.06.67.63,2.48,1.03,3.97.23,4.73-.38.36-.78.6-1.19.67-.42.07-.84-.05-1.23-.39"/>
      <path class="cls-10" d="m187.08,84.36c.13.33.27.66.41,1.01.17.43.35.89.52,1.38.19.5.38,1.04.57,1.61.15.43.3.89.45,1.36,1.79,5.54,3.79,13.18,5.38,19.62,1.72,6.95,2.97,12.51,2.97,12.52"/>
      <path class="cls-10" d="m174.41,64.29c.26.26.5.53.75.81.2.23.39.47.59.71.36.43.72.87,1.08,1.32.36.46.73.93,1.09,1.4.47.6.93,1.21,1.37,1.85.42.57.83,1.16,1.23,1.77.41.6.8,1.21,1.21,1.84.41.66.82,1.35,1.23,2.06.34.59.67,1.2,1.01,1.82.34.62.67,1.26,1,1.93.34.66.66,1.36.99,2.07.37.8.74,1.64,1.09,2.5"/>
      <path class="cls-10" d="m146.02,55.41c.78.23,1.76.51,2.81.81.64.17,1.3.36,1.98.54.98.26,2,.52,2.99.76.66.16,1.32.31,1.94.45.24.05.48.09.7.14,1.13.22,2.15.39,2.95.45.34.03.69.06,1.06.09.55.06,1.14.13,1.75.21,1.24.19,2.58.46,3.93.84.4.11.79.23,1.2.37.76.25,1.51.55,2.25.9.93.44,1.86.95,2.72,1.56.74.51,1.45,1.09,2.09,1.75"/>
      <path class="cls-10" d="m127.04,46.87s.1.11.29.3c.71.71,2.61,2.55,4.84,4.18,1.99,1.45,4.24,2.72,6.16,2.87l4.32.43,1.25.12s.14.05.39.12c.36.11.96.29,1.73.51"/>
      <path class="cls-10" d="m127.18,47.29s-.12,1.44,0,1.62c.11.18.53,1.96,1.25,2.44.71.48,3.74,0,3.74,0"/>
      <path class="cls-10" d="m103.1,44.51s1.37,9.22,2.16,10.97,1.58.6,2.46.69"/>
      <path class="cls-10" d="m107.71,52.5c-.13-.13.95-.07,1.65,1.67"/>
      <path class="cls-10" d="m109.7,44.51s1.99-2.07,5.25-1.35"/>
      <line class="cls-10" x1="112.94" y1="43.85" x2="114.12" y2="43.76"/>
      <path class="cls-10" d="m98.41,47.29s1.76-1.02,4.06-.79"/>
      <line class="cls-10" x1="100.54" y1="47.44" x2="101.74" y2="47.44"/>
      <line class="cls-10" x1="96.77" y1="38.3" x2="100.54" y2="37.9"/>
      <line class="cls-10" x1="106.75" y1="36.12" x2="109.7" y2="35.68"/>
      <path class="cls-10" d="m142.65,54.88s.58,3.62-.62,7.74c-1.2,4.11-13.31,11.69-16.22,13.06-2.93,1.36-7.43-1.51-7.43-1.51"/>
      <path class="cls-10" d="m160.41,130.44c5.63-1.56,26.62-6.67,34.48-8.18,1.14-.22,2-.36,2.5-.41,1.75-.16,4.64-.74,7.81-1,3.27-.27,6.84-.21,9.74,1,.63.26,1.22.58,1.78.95.21.14.42.29.64.43,2.62,1.78,5.4,3.61,7.63,5.27,2.41,1.81,4.15,3.43,4.27,4.56-.38,0-.77,0-1.17,0-1.26.02-2.61.04-4.01.07-8.3.24-18.57,1.35-26.68,8.38-9.9,8.6-22.55,15.99-25.89,16.94-1.36.39-3.89.42-6.69.51-4.05.15-8.66.42-11.2,2.11-3.68,2.46-14.99,4.21-18.23,4.66-.53.07-.85.11-.88.11-.08,0-1.72-1.07-3.67-3.98-1.33-1.97-2.8-4.78-4.05-8.66-.62-1.93-1.19-4.15-1.64-6.65-.71-3.87-1.17-8.46-1.2-13.87"/>
      <path class="cls-10" d="m105.17,65.11h0c-.2-.03-3.22-.4-8.38-.52-5.33-.11-11.17-1.55-14.99,3.22-3.06,3.82-10.94,16.08-15.74,22.94-1.19,1.7-2.18,3.07-2.87,3.9-2.93,3.52-12.28,12.79-15.15,15.62"/>
      <line class="cls-10" x1="67.59" y1="148.1" x2="67.9" y2="147.78"/>
      <path class="cls-10" d="m31.87,154.47c.64.5,1.21.96,1.72,1.37,3.81,3.1,14.32,7.88,15.03,8.11.72.24,4.53-2.86,4.53-2.86l-.62-.73-3.44-4.05,17.42-7.16.99-.98"/>
      <path class="cls-10" d="m67.91,147.78l5.77-5.77v-6.92s-1.6-2.65-4.9-6.24c-2.25-2.46-5.31-5.35-9.18-8.14-7.02-5.03-7.72-8.43-11.57-10.45-1.39-.73-3.19-1.28-5.85-1.65-3.32-.48-6.35-.97-9.19-1.11-5.72-.3-10.61.86-15.39,6.6-1.73,2.08-2.85,4.63-3.5,7.34-2.02,8.48.6,18.59,3.5,21.3,2.65,2.49,7.5,6.36,11.49,9.53.89.71,1.73,1.37,2.5,1.98"/>
      <path class="cls-10" d="m136.76,138.28s14.46,10.65,23.05,11.13"/>
      <path class="cls-10" d="m224.07,163.8c3.7-1.64,6.89-3.39,9.05-5.09,1.46-1.15,2.45-2.28,2.8-3.34.59-1.76.65-5.41.07-9.29-.11-.77-.25-1.54-.42-2.32-.34-1.59-.78-3.16-1.36-4.6-1.15-2.9-2.78-5.25-4.97-6.1"/>
      <path class="cls-10" d="m93.72,174.97s17.48,5.92,30.07,5.68c2.13-.04,4.12-.25,5.86-.7,7.24-1.87,14.37-3.04,20.82-3.63,4.27-.39,8.23-.52,11.74-.43,1.14.03,2.6,0,4.32-.11,2.6-.15,5.77-.44,9.24-.83,1.88-.21,3.85-.46,5.87-.73,2.64-.35,5.35-.75,8.04-1.17,2.63-.42,5.22-.86,7.71-1.32,5.43-1,10.32-2.08,13.72-3.13,2.99-.92,6-1.95,8.85-3.07,1.42-.55,2.8-1.13,4.12-1.72"/>
      <path class="cls-10" d="m70.63,168.6h0l-.22-.1-17.86-8.13"/>
      <path class="cls-10" d="m48.62,163.96s13.24,7.05,15.27,9.31c3.5-3.33,5.39-4.28,6.21-4.55.32-.1.48-.11.51-.11"/>
      <path class="cls-10" d="m111.55,147.13c1.53,0,2.43,0,2.43,0,0,0,1.59,4.98.33,6.97-.69,0-1.72-.02-2.99-.04-1.17,0-2.55-.03-4.08-.05-2.72-.03-5.92-.06-9.3-.08-.41,0-.82,0-1.23,0-3.85-.04-7.86-.07-11.55-.09-3.64-.02-6.97-.04-9.57-.05-2.46,0-4.25,0-5.01.03-4.06.12-3.34-1.31-3.46-2.14-.08-.56-.48-2.34.39-3.5.03-.03.05-.06.08-.08.08-.11.19-.22.31-.32h0c.46-.37,1.12-.62,2.07-.64.78-.02,3.04-.04,6.17-.04,9.99-.03,28.74.02,35.41.03Z"/>
      <path class="cls-10" d="m111.55,147.14h0c.95-2.21,2.5-4.64,4.83-3.84,1.1.37,2.13,1.66,2.78,3.29.44,1.09.7,2.34.68,3.54,0,.94-.13,1.99-.39,3-.63,2.54-2.09,4.89-4.62,5.07-1.23.09-2.36-.81-3-2.16-.28-.59-.46-1.26-.51-1.97"/>
      <line class="cls-10" x1="119.16" y1="146.59" x2="125.07" y2="146.59"/>
      <path class="cls-10" d="m50.01,199.87c18.69-5.85,22.55-6.97,38.9-7.83,18-.95,34.19-8.78,34.88-11.39,0,0,0-.03,0-.04"/>
      <path class="cls-10" d="m50.01,199.87c-2.68,1.12-4.9,1.84-6.48,2.03,2.35-.73,4.5-1.4,6.48-2.03Z"/>
      <path class="cls-10" d="m95.09,174.09c-.46.3-.92.59-1.37.88-15.71,9.97-33.29,20.53-43.71,24.9"/>
      <path class="cls-10" d="m119.84,153.23h6.93s-7.56,5.17-18.2,12.14c-.12.08-.25.17-.38.25-2.12,1.39-4.36,2.85-6.69,4.35-2.07,1.35-4.22,2.72-6.4,4.11"/>
      <path class="cls-10" d="m140.56,77.47s-.14.1-.39.31c-2.43,1.97-15.45,13.19-16.23,27.89-.72,13.5,1.73,21.17,2.57,23.35.17.45.27.66.27.66"/>
      <path class="cls-10" d="m133.72,124.92s-6-34.46,28.49-48.16c-2.56-4.17-5.85-7.61-5.85-7.61l-9.6,11.98"/>
      <path class="cls-10" d="m152.49,94.38s-16.22,17.49-11.93,31.18"/>
      <path class="cls-10" d="m144.22,121.85s6.05-12.4,27.36-18.27"/>
      <path class="cls-10" d="m129.11,128.89c3.07-2.08,5.98-4.17,11.45-3.34,1.62.25,3.47.75,5.61,1.59,3.64,1.42,8.74,2.99,13.97,4.35,8.22,2.13,16.76,3.74,20.35,3.45"/>
      <path class="cls-10" d="m95.09,174.09h0c.43.03,14.81,1.07,21.16-.35,6.45-1.43,16.26-4.39,19.11-7.98,11.43-6.81,19.59-9.2,26.84-18.62,1.74,4.08,2.56,11.51,2.6,11.85h0"/>
      <path class="cls-10" d="m110.54,165.88s10.22,4.41,14.53,2.03c4.32-2.39,5.75-6.01,5.75-6.01"/>
      <path class="cls-10" d="m150.47,176.32s17.29-3.15,19.83-7.72"/>
      <path class="cls-10" d="m194.41,109.33l63.22-38.59c2.15-4.84,10.49-10.57,12.41-9.14,1.91,1.43.07,1.27-1.27,3.26-1.36,1.99-4.7,4.3-5.85,8.83s-6.52,17.4-9.26,23.3c-2.94,6.34-8.12,10.35-16.78,14.79-6.73,2.9-17.11,8.34-19.53,11.45"/>
      <path class="cls-10" d="m257.63,70.74c0,4.86-2.38,17.43-4.3,21.57-1.91,4.13-2.59,8.39-11.29,13.35-8.63,4.92-25.47,13.27-27.11,16.19"/>
      <path class="cls-10" d="m224.97,128.5s25.03-15.24,27.05-16.91,6.21-3.81,7.76-2.15c1.55,1.67-.84,4.65-3.1,6.92-1.53,1.52-12.98,8.59-20.28,13.03-3.52,2.14-6.08,3.67-6.08,3.67"/>
      <path class="cls-10" d="m236.4,129.39s16.22,3.31,18.13,5.58c1.91,2.27-4.06,9.91-4.06,9.91,0,0-7.32-4.44-13.05-5.52-1.17-.22-2.26-.31-3.21-.19"/>
      <path class="cls-10" d="m237.43,139.35s13.64,6.72,16.15,10.06c-3.93,3.22-9.54,7.45-9.54,7.45-2.04-4.73-4.44-8.86-8-11.01,0,.07-.03.15-.04.23-.53,3.28-1.68,10.52-3.08,12.51,0,0,.07.04.21.11.95.52,5.17,2.64,9.08,2.07-3.9,3.34-10.08,6.05-10.08,6.05,0,0-6.39-.09-8.05-3.02,0,0,0,0,0,0-.05-.09-.09-.19-.14-.29"/>
      <path class="cls-10" d="m220.09,165.88s-4.14,9.8-5.73,9.92c-2.62-.1-4.96-.27-7.02-.51-5.2-.6-8.56-1.67-9.96-3.54"/>
      <path class="cls-10" d="m207.29,175.79l-9.91,4.04s-.66-.25-1.61-.72c-2.12-1.07-5.66-3.23-6.1-6.06"/>
      <path class="cls-10" d="m195.78,179.11l-8.29,1.55s-5.85-2.98-5.85-6.44"/>
      <path class="cls-10" d="m187.49,180.66l-8.35.96s-.43-.36-.99-.96c-1.23-1.31-3.08-3.72-2.37-5.71"/>
      <path class="cls-10" d="m178.14,180.66l-9.27.96s-2.37-3.44-2.37-5.83c0,0,.02,0,.03,0,11.8-2.75,26.84-15.41,26.84-15.41"/>
      <polyline class="cls-10" points="111.83 156.04 105.17 162.71 108.5 165.25"/>
      <path class="cls-10" d="m106.96,158.6l-1.93,4.05-3.52,7.34-10.88.74-1.71.11s9.06-13.81,9.02-16.72"/>
      <polyline class="cls-10" points="75.58 154.11 69.85 160.37 79.57 161.69 81.06 161.89 82.8 158.6 85.15 154.11"/>
      <polyline class="cls-10" points="82.8 158.6 82.8 161.89 82.8 163.98 87.67 163.98 91.33 163.98 92.64 163.98 96.7 153.93"/>
      <polyline class="cls-10" points="79.57 161.69 70.39 168.5 70.1 168.72 61.36 175.21 64.13 176.14 82.8 161.89"/>
      <path class="cls-10" d="m228.07,133.07h0"/>
      <path class="cls-10" d="m205.18,120.85h.02"/>
      <polyline class="cls-10" points="144.29 54.88 144.62 48.48 144.83 44.51"/>
      <polyline class="cls-10" points="142.65 54.88 142.65 54.64 142.65 48.48 144.62 48.48 147 48.48 146.02 55.4 146.02 55.41"/>
      <polyline class="cls-10" points="150.82 43.16 150.3 46.52 148.84 56.22"/>
      <polyline class="cls-10" points="147 48.48 147.4 46.1 150.3 46.52 151.92 46.76 152.65 46.87 150.82 56.76"/>
      <polyline class="cls-10" points="153.81 57.52 155.51 45.51 155.75 43.76"/>
      <polyline class="cls-10" points="151.92 46.76 151.92 45.06 155.51 45.51 158.77 45.91 155.75 57.97"/>
      <polyline class="cls-10" points="158.54 57.97 160.59 46.34 160.92 44.51"/>
      <polyline class="cls-10" points="158.77 45.91 160.59 46.34 164.66 47.29 160.46 58.65 160.46 58.66"/>
      <polyline class="cls-10" points="164.02 58.56 166.47 48.47 167.3 45.06"/>
      <polyline class="cls-10" points="166.14 59.71 169.59 49.04 168.8 48.9 166.47 48.47 164.66 48.15 162.21 58.86 162.21 58.87"/>
      <polyline class="cls-10" points="167.34 60.08 173.54 47.93 175 45.06"/>
      <polyline class="cls-10" points="168.87 48.48 170.14 46.1 173.54 47.93 176.82 49.7 175.97 51.02 169.59 60.98"/>
      <polyline class="cls-10" points="175.97 51.02 178.58 52.49 181.12 53.92 174.41 64.29 174.4 64.28 172.31 62.54 178.58 52.49 180.33 49.7"/>
      <polyline class="cls-10" points="181.12 53.92 182.08 52.57 184.65 55.14 185.72 56.22 186.64 57.13 186.57 57.2 176.83 67.13 176.82 67.14"/>
      <polyline class="cls-10" points="175.75 65.82 184.65 55.14 185.97 53.54"/>
      <polyline class="cls-10" points="185.72 56.22 186.57 57.2 188.31 59.21 190.19 61.38 188.58 62.71 179.3 70.39"/>
      <polyline class="cls-10" points="177.93 68.54 188.31 59.21 190.19 57.52"/>
      <polyline class="cls-10" points="188.58 62.71 190.24 65.55 191.17 67.14 191.75 68.13 181.74 73.99 181.73 73.99"/>
      <polyline class="cls-10" points="180.53 72.15 190.24 65.55 192.09 64.29"/>
      <polyline class="cls-10" points="191.17 67.14 193.85 65.11 195.17 68.19 195.94 70.01 196.47 71.23 183.98 77.87"/>
      <polyline class="cls-10" points="182.97 76.05 195.17 68.19 196.79 67.14"/>
      <line class="cls-10" x1="199.83" y1="76.71" x2="185.97" y2="81.86"/>
      <polyline class="cls-10" points="195.94 70.01 198.38 69.14 199.37 72.65 200.45 76.48 199.83 76.7"/>
      <polyline class="cls-10" points="184.98 79.8 199.37 72.65 201.49 71.59"/>
      <polyline class="cls-10" points="199.83 76.7 199.83 76.71 200.17 80.12 200.38 82.26 200.45 82.93 188.01 86.75"/>
      <polyline class="cls-10" points="187.07 84.36 187.08 84.36 200.17 80.12 202.6 79.34"/>
      <polyline class="cls-10" points="188.85 89.74 189.03 89.71 202.6 87.29 202.03 84.43 201.49 81.73 200.38 82.26"/>
      <path class="cls-10" d="m204.19,83.8l-2.16.64-13.45,3.92"/>
      <path class="cls-10" d="m29.1,152.26s-1.02.06-2.59.1c-4.68.12-14.24.14-15.91-1.77-5.57-.94-10.1-2.35-10.1-2.35l13.61-26.81"/>
      <path class="cls-10" d="m10.6,150.6s5.58-4.51,6.84-4.16c2.31.65,5.57,2.2,9.06,5.92"/>
      <path class="cls-10" d="m32.99,107.45s13.37-9.97,33.05-16.7"/>
      <polyline class="cls-10" points="76.14 147.09 76.14 147.1 76.14 152.41"/>
      <polyline class="cls-10" points="107.23 148.24 107.23 154.03 107.23 154.11"/>
      <polyline class="cls-10" points="82.8 163.98 66.78 177.7 64.22 176.32 64.13 176.14"/>
      <line class="cls-10" x1="70.62" y1="179.95" x2="66.78" y2="177.7"/>
      <line class="cls-10" x1="87.67" y1="163.98" x2="70.63" y2="179.96"/>
      <path class="cls-10" d="m70,179.74l.62.21h0s3.05,1.04,3.05,1.04c0,0,1.2-1.07,2.96-2.69,4.93-4.5,14.34-13.2,14.69-14.32"/>
      <polyline class="cls-10" points="76.64 178.3 80.11 180.03 90.62 170.72"/>
    </g>
  </g>
  <ellipse class="cls-3" cx="109.1" cy="59.51" rx="1.55" ry=".47" transform="translate(-10.09 24.33) rotate(-12.17)"/>
  <ellipse class="cls-3" cx="109.53" cy="60.36" rx="1.55" ry=".47" transform="translate(-10.26 24.44) rotate(-12.17)"/>
</svg>