<?xml version="1.0" encoding="UTF-8"?>
<svg id="_レイヤー_1" data-name="レイヤー 1" xmlns="http://www.w3.org/2000/svg" viewBox="0 0 261.16 194.81">
  <defs>
    <style>
      .cls-1 {
        fill: #a381a2;
      }

      .cls-1, .cls-2, .cls-3, .cls-4, .cls-5, .cls-6, .cls-7, .cls-8 {
        stroke-width: 0px;
      }

      .cls-2 {
        fill: #ddce8d;
      }

      .cls-3 {
        fill: #c96b69;
      }

      .cls-9 {
        stroke-miterlimit: 10;
      }

      .cls-9, .cls-10 {
        fill: none;
        stroke: #000;
      }

      .cls-4 {
        fill: #a6cfd1;
      }

      .cls-10 {
        stroke-linecap: round;
        stroke-linejoin: round;
      }

      .cls-5 {
        fill: #fbe3c9;
      }

      .cls-6 {
        fill: #333;
      }

      .cls-7 {
        fill: #edecd8;
      }

      .cls-8 {
        fill: #f1da8a;
      }
    </style>
  </defs>
  <g>
    <path class="cls-2" d="m226.71,138.35c-.33-1.53-.76-3.03-1.31-4.41.92-.12,1.97-.04,3.1.18,0,0,13.12,6.47,15.53,9.68-3.79,3.1-9.19,7.16-9.19,7.16-1.96-4.55-4.26-8.52-7.69-10.59-.01.07-.03.14-.04.23-.11-.75-.24-1.51-.4-2.25Z"/>
    <path class="cls-2" d="m228.5,134.12c-1.13-.22-2.18-.3-3.1-.18-.94-2.38-2.24-4.38-3.9-5.42l.4-.6c.72-.44,2.85-1.72,5.6-3.39,0,0,15.62,3.19,17.45,5.37,1.84,2.19-3.9,9.53-3.9,9.53,0,0-7.04-4.27-12.55-5.31Z"/>
    <path class="cls-2" d="m215.64,157.65c3.57-1.59,6.63-3.27,8.7-4.91.93.51,4.98,2.54,8.75,2-3.75,3.21-9.71,5.82-9.71,5.82,0,0-6.14-.09-7.74-2.91Z"/>
    <path class="cls-1" d="m224.14,152.64c1.36-1.92,2.47-8.89,2.97-12.04.56,3.72.49,7.23-.07,8.93-.34,1.03-1.29,2.11-2.7,3.21-.13-.07-.2-.1-.2-.1Z"/>
    <path class="cls-6" d="m227.5,124.53c-2.75,1.67-4.88,2.95-5.6,3.39l-.4.6c-.29-.18-.59-.34-.89-.45-.12-1.09-1.79-2.65-4.11-4.39,0,0,24.09-14.67,26.04-16.28s5.97-3.67,7.46-2.07c1.49,1.61-.8,4.48-2.98,6.67-1.47,1.46-12.5,8.26-19.52,12.53Z"/>
    <path class="cls-1" d="m221.5,128.52c1.66,1.04,2.96,3.04,3.9,5.42.55,1.38.98,2.88,1.31,4.41-1.55-3.49-9.97-9.42-11.08-10.2,1.35-.04,2.64-.05,3.86-.07.38,0,.76,0,1.12-.01.3.11.6.27.89.45Z"/>
    <path class="cls-6" d="m208.56,118.19c-.53-.36-1.11-.66-1.71-.91,1.57-2.81,17.77-10.84,26.09-15.58,8.37-4.77,9.03-8.87,10.86-12.85,1.84-3.98,4.14-16.08,4.14-20.75,2.06-4.66,10.1-10.18,11.93-8.8,1.84,1.38.08,1.22-1.22,3.14-1.3,1.91-4.52,4.14-5.62,8.5-1.12,4.36-6.29,16.74-8.92,22.42-2.83,6.09-7.81,9.95-16.15,14.23-6.47,2.79-16.47,8.02-18.8,11.02-.21-.15-.4-.28-.6-.42Z"/>
    <path class="cls-4" d="m197.48,116.31c3.15-.26,6.58-.2,9.37.97.6.25,1.18.55,1.71.91.2.14.39.27.6.42,2.52,1.7,5.2,3.46,7.34,5.07,2.32,1.74,3.99,3.3,4.11,4.39-.36.01-.74.01-1.12.01-7.36-7.4-19.19-11.13-22.01-11.77Z"/>
    <path class="cls-2" d="m194.42,81.27l.55,2.75-13.06,2.33c-.14-.45-.29-.89-.43-1.3l12.94-3.78Z"/>
    <path class="cls-2" d="m194.42,81.27l-12.94,3.78c-.18-.55-.36-1.06-.54-1.55l11.97-3.68-.06-.64,1.05-.51.52,2.6Z"/>
    <path class="cls-2" d="m199.54,168.69l-.06.49-9.52,3.89s-.64-.24-1.55-.69c-2.04-1.03-5.45-3.12-5.88-5.83,2.53-.4,5.04-.83,7.43-1.27,1.34,1.8,4.59,2.83,9.58,3.41Z"/>
    <path class="cls-2" d="m192.31,73.84l-13.33,4.96h-.01c-.31-.69-.63-1.35-.94-1.99l13.84-6.89,1.04,3.7-.6.22Z"/>
    <path class="cls-2" d="m191.87,69.92l-13.84,6.89c-.33-.64-.64-1.26-.96-1.85l12.01-6.4-.5-1.17,2.33-.83.96,3.36Z"/>
    <path class="cls-2" d="m211.68,159.31l.13.33s-3.98,9.44-5.51,9.54c-2.53-.1-4.78-.26-6.76-.49-4.99-.58-8.24-1.61-9.58-3.41,5.23-.96,9.93-2.01,13.2-3.01,2.88-.88,5.78-1.88,8.52-2.96Z"/>
    <path class="cls-2" d="m189.08,68.56l-12.01,6.4c-.33-.61-.65-1.19-.98-1.76l11.74-7.56.75,1.75.5,1.17Z"/>
    <path class="cls-2" d="m188.41,172.38l-7.98,1.49s-5.62-2.87-5.62-6.2c2.53-.33,5.14-.72,7.72-1.12.43,2.71,3.84,4.8,5.88,5.83Z"/>
    <path class="cls-2" d="m173.74,69.45l9.34-6.35.9,1.53.55.95-9.63,5.64c-.38-.6-.77-1.19-1.16-1.77Z"/>
    <path class="cls-2" d="m181.48,60.37l1.6,2.73-9.34,6.35c-.39-.58-.78-1.15-1.18-1.7l8.92-7.38Z"/>
    <path class="cls-4" d="m181.91,86.35c1.74,5.33,3.66,12.68,5.19,18.88,1.66,6.69,2.86,12.04,2.86,12.05-.48.04-1.3.18-2.4.39.34-1.95-3.3-18.69-5.81-31.29l.16-.03Z"/>
    <path class="cls-4" d="m181.48,85.05c.14.41.29.85.43,1.3l-.16.03c-.1-.45-.18-.89-.27-1.33Z"/>
    <path class="cls-2" d="m180.43,82.17c-.14-.33-.27-.66-.4-.97l12.61-4.08.21,2.06.06.64-11.97,3.68c-.17-.48-.34-.92-.51-1.33Z"/>
    <path class="cls-2" d="m180.03,81.2c-.35-.83-.7-1.63-1.06-2.4h.01l13.33-4.96.33,3.28-12.61,4.08Z"/>
    <path class="cls-2" d="m174.81,167.67c0,3.33,5.62,6.2,5.62,6.2l-8.03.92s-.42-.35-.96-.92c-1.18-1.26-2.97-3.58-2.29-5.5,1.82-.2,3.72-.44,5.66-.7Z"/>
    <path class="cls-2" d="m184.53,65.58l-.55-.95,2.57-1.96,1.28,2.97-11.74,7.56c-.39-.68-.8-1.34-1.19-1.98l9.63-5.64Z"/>
    <path class="cls-2" d="m174.3,51.91l-6.45,9.98h-.01c-.62-.64-1.3-1.2-2.01-1.69l6.03-9.67,2.44,1.38Z"/>
    <path class="cls-2" d="m171.23,65.97l10-8.97,1.81,2.08-1.56,1.29-8.92,7.38c-.44-.61-.88-1.2-1.33-1.78Z"/>
    <path class="cls-2" d="m171.86,50.53l-6.03,9.67c-.83-.59-1.71-1.08-2.62-1.5l6.15-9.58,2.5,1.41Z"/>
    <path class="cls-2" d="m179.56,55.06l1.67,1.94-10,8.97c-.34-.46-.7-.91-1.05-1.34l9.38-9.57Z"/>
    <path class="cls-2" d="m179.56,55.06l-9.38,9.57c-.34-.43-.7-.86-1.05-1.27l8.57-10.28,1.04,1.04.82.94Z"/>
    <path class="cls-2" d="m167.85,61.89l6.45-9.98.93-1.31,2.47,2.48-8.57,10.28c-.19-.24-.37-.46-.56-.69-.24-.27-.47-.53-.72-.78Z"/>
    <path class="cls-2" d="m162.52,174.79s-2.28-3.3-2.29-5.61c0,0,.02,0,.03-.01h.01c2.5-.14,5.54-.42,8.88-.8-.68,1.92,1.11,4.24,2.29,5.5l-8.92.92Z"/>
    <path class="cls-2" d="m160.21,46.67l2.24.41.76.13-3.31,10.26c-.73-.2-1.46-.37-2.16-.52l.12-.58,2.35-9.7Z"/>
    <path class="cls-2" d="m163.21,58.7c-.71-.34-1.43-.62-2.16-.87l5.96-11.7,3.17,1.71-.82,1.28-6.15,9.58Z"/>
    <path class="cls-2" d="m159.9,57.47l3.31-10.26-.76-.13.07-.41,1.23-2.29,3.26,1.75-5.96,11.7c-.39-.13-.77-.25-1.15-.36Z"/>
    <path class="cls-2" d="m158.47,46.35l1.74.32-2.35,9.7-.12.58c-.56-.11-1.1-.2-1.63-.28l2.36-10.32Z"/>
    <path class="cls-4" d="m121.75,124.17c-.81-2.1-3.16-9.47-2.47-22.47.75-14.14,13.28-24.94,15.62-26.83l-2.11-.8c1.8-1.39,3.46-3.04,4.82-5.01,5.69-8.16,12.86-12.63,12.86-12.68l.09-.45c.71.14,1.36.26,1.95.34.32.04.63.07.9.1.33.03.67.05,1.02.09.54.05,1.1.12,1.68.21.53.08,1.07.17,1.63.28.7.15,1.43.32,2.16.52.38.11.76.23,1.15.36.73.25,1.45.53,2.16.87.91.42,1.79.91,2.62,1.5l2.01,1.68h.01c.25.26.48.52.72.79.19.23.37.45.56.69.35.41.71.84,1.05,1.27.35.43.71.88,1.05,1.34.45.58.89,1.17,1.33,1.78.4.55.79,1.12,1.18,1.7s.78,1.17,1.16,1.77c.39.64.8,1.3,1.19,1.98.33.57.65,1.15.98,1.76.32.59.63,1.21.96,1.85.31.64.63,1.3.94,1.99.36.77.71,1.57,1.06,2.4.13.31.26.64.4.97.17.41.34.85.51,1.33.18.49.36,1,.54,1.55.09.44.17.88.27,1.33,2.51,12.6,6.15,29.34,5.81,31.29-7.55,1.44-27.77,6.37-33.19,7.87l-.26,1.01c-5.03-1.31-9.94-2.82-13.44-4.18-2.06-.8-3.84-1.29-5.39-1.53-5.26-.8-8.07,1.2-11.02,3.21l-2.51.12Z"/>
    <path class="cls-2" d="m152.8,44.2l-2.9,11.6c-.6-.13-1.23-.28-1.87-.43l1.63-11.56,3.14.39Z"/>
    <path class="cls-2" d="m158.2,46.25l-3.77,10.21c-.35-.04-.69-.06-1.02-.09-.27-.03-.58-.06-.9-.1l.06-.47,1.99-11.19,3.91.91-.27.73Z"/>
    <path class="cls-2" d="m150.56,55.93c-.21-.04-.44-.08-.66-.13l2.9-11.6,1.76.41-1.99,11.19-.06.47c-.59-.08-1.24-.2-1.95-.34Z"/>
    <path class="cls-2" d="m148.03,55.37c-.96-.22-1.94-.48-2.88-.73l1.76-9.52-.71-.1h0v-1.64l3.46.43-1.63,11.56Z"/>
    <path class="cls-2" d="m146.91,45.12l-1.76,9.52c-.66-.18-1.3-.35-1.92-.52l1.43-9.33,1.54.22h0s.71.11.71.11Z"/>
    <path class="cls-2" d="m144.66,44.79l-1.43,9.33c-1.01-.29-1.94-.56-2.69-.78l.93-6.67.39-2.29,2.8.41Z"/>
    <path class="cls-2" d="m141.47,46.67l-.93,6.67c-.74-.23-1.33-.4-1.68-.51l.33-6.16h2.28Z"/>
    <path class="cls-2" d="m137.29,46.67h1.9l-.33,6.16c-.24-.07-.37-.11-.37-.11l-1.2-.12v-5.93Z"/>
    <path class="cls-3" d="m130.28,159.53c11-6.55,18.84-8.85,25.83-17.92,1.67,3.93,2.47,11.08,2.5,11.4-3.89.15-8.34.41-10.78,2.04-3.55,2.36-14.43,4.05-17.55,4.48Z"/>
    <path class="cls-7" d="m105.53,159.55c1.25.46,3.5,1.23,5.93,1.84.07.01.15.03.22.05,2.71.72,5.9,1.21,8.04.44.12-.04.23-.08.34-.13s.22-.1.31-.16c4.15-2.3,5.54-5.78,5.54-5.78,1.87,2.8,3.44,3.83,3.52,3.83.03,0,.33-.03.85-.11-2.74,3.46-12.19,6.31-18.39,7.68-6.1,1.36-19.94.36-20.36.34,2.1-1.34,4.16-2.67,6.16-3.95,2.24-1.45,4.39-2.86,6.44-4.2l1.4.15Z"/>
    <path class="cls-6" d="m122.4,47.08c-.11-.17,0-1.56,0-1.56l.15-.11c.68.68,2.5,2.45,4.66,4.02,0,0-2.91.45-3.61,0-.68-.46-1.08-2.18-1.2-2.35Z"/>
    <path class="cls-7" d="m104.5,159.16c10.24-6.71,17.51-11.68,17.51-11.68,1.2,3.74,2.62,6.43,3.9,8.33,0,0-1.39,3.48-5.54,5.78-.09.06-.2.11-.31.16s-.22.09-.34.13c-2.01.68-5.14.25-8.04-.44-.07-.02-.15-.04-.22-.05-2.81-.77-5.08-1.75-5.08-1.75l-.85-.09c-.65-.24-1.03-.39-1.03-.39Z"/>
    <path class="cls-6" d="m119.28,39.27c-.63,1.64-.61,3.42-1.23,3.57-.91.24-1.37-5.28-3.29-5.28-1.08,0-2.49-.91-3.66-2.21l2.4-.1c2.76-2.98,5.17-7.12,5.17-7.12l2.02-.12c.87,4.05,1.63,8.17.2,9.1-.81.53-1.29,1.33-1.61,2.15h0Z"/>
    <path class="cls-8" d="m120.43,141.07c.44,2.41.98,4.54,1.58,6.4h-6.67l-.38-.09c.24-.97.37-1.97.38-2.89,0-1.16-.24-2.36-.67-3.41h5.76Z"/>
    <path class="cls-7" d="m112.41,6.44s5.51,2.12,6.61,7.17c-2.19,1.27-5.97,1.72-6.61,1.38V6.44Z"/>
    <path class="cls-7" d="m111.72,21.02c1.26.8,3.74,3.09,6.95,7.11,0,0-2.41,4.14-5.17,7.12-4.02-5.85-1.78-14.23-1.78-14.23Z"/>
    <path class="cls-7" d="m111.68,161.44c2.9.69,6.03,1.12,8.04.44-2.14.77-5.33.28-8.04-.44Z"/>
    <path class="cls-6" d="m114.19,3.8c2.24,1.43,8.15,9.01,8.21,10.33s-2.24,2.14-2.24,2.14c2.12,2.8,2.12,5.21-.34,7.56.24,1.29.56,2.73.87,4.18l-2.02.12c-3.21-4.02-5.69-6.31-6.95-7.11,0,0-2.24,8.38,1.78,14.23l-2.4.1c-.91-1-1.66-2.25-2-3.45-.77-2.75-.77-3.75-.77-3.75-6.35,2.98-12.85,4.52-18.14,3.54.12-1.95,2.13-4.59,4.72-6.83,2.58-2.23,7.97-5.96,7.97-5.96h-4.59v-1.9h5.92s-2.87-2.36-5.92-4.99c-3.04-2.65-6.3-5.88-7.23-6.98-1.78-2.1.81-6.03,3.61-3.93,2.81,2.09,11.83,8.84,11.83,8.84,1.15-2.75,1.83-5.68,2.29-6.77.46-1.1,3.16-.81,5.4.63Zm4.83,9.81c-1.1-5.05-6.61-7.17-6.61-7.17v8.55c.64.34,4.42-.11,6.61-1.38Z"/>
    <path class="cls-8" d="m122.01,147.48s-7.27,4.97-17.51,11.68l-.08-.12-3.2-2.45,6.41-6.41c.61,1.3,1.7,2.17,2.89,2.08,2.42-.18,3.83-2.43,4.44-4.88l.38.09h6.67Z"/>
    <path class="cls-8" d="m107.36,141.6c1.48.01,2.34.01,2.34.01,0,0,1.52,4.79.32,6.71-.68,0-1.66-.02-2.89-.04-.8-.01-1.69-.01-2.67-.03-.4,0-.82,0-1.25-.01v-6.65c1.65.01,3.06.01,4.15.01Z"/>
    <path class="cls-4" d="m113.94,71.4s4.33,2.77,7.14,1.45,14.47-8.61,15.61-12.57c1.15-3.97.6-7.45.6-7.45v-.23l1.2.12s.13.04.37.11c.35.11.94.28,1.68.51.75.22,1.68.49,2.69.78.62.17,1.26.34,1.92.52.94.25,1.92.51,2.88.73.64.15,1.27.3,1.87.43.22.05.45.09.66.13l-.09.45s-7.17,4.52-12.86,12.68c-1.36,1.97-3.02,3.62-4.82,5.01-5.79,4.44-13.1,5.99-17.4,5.72-2.57-.15-4.25-1.13-5.31-2.13-1.28-1.2-1.68-2.45-1.68-2.45h0c.63-.08,1.27-.84,1.27-.84,0,0,.26-.25-.96-1.83.26.23.49.47.67.73,1.33,1.88,2.13-.85,2.13-.85-.07-.85-1.86-2.66-2.08-2.88.11.08.58.48,1.85,1.67,1.04.95,2.15.67,2.65.18h.01Z"/>
    <path class="cls-8" d="m107.36,141.6c.92-2.12,2.41-4.46,4.65-3.68,1.05.35,2.04,1.6,2.66,3.16.43,1.05.68,2.25.67,3.41-.01.92-.14,1.92-.38,2.89-.61,2.45-2.02,4.7-4.44,4.88-1.19.09-2.28-.78-2.89-2.08-.28-.57-.45-1.21-.5-1.9,1.23.02,2.21.03,2.89.04,1.2-1.92-.32-6.71-.32-6.71,0,0-.86,0-2.34-.01Z"/>
    <path class="cls-8" d="m107.13,148.28c.05.69.22,1.33.5,1.9l-6.41,6.41-.14-.07,3.38-8.27c.98.02,1.87.02,2.67.03Z"/>
    <path class="cls-5" d="m109.38,73.27c-.18-.26-.41-.5-.67-.73,1.22,1.58.96,1.83.96,1.83,0,0-.64.76-1.27.83-.2.04-.41-.01-.6-.17-.12-.11-.32-.22-.56-.33,1.1,1.47.86,1.7.86,1.7,0,0-1.11,1.31-1.87.66-.12-.1-.31-.21-.53-.3-.63,5.62-4.63,6.31-5.15,6.76-1.47-1.26-3.18-2.77-4.84-4.39-.35-.35-.68-.6-.96-.77,2.29-4.49,4.81-9.04,7.46-10.41,1.61-.83,3.7-1.63,5.68-1.54.27.05.55.08.83.1,1.02.18,1.99.65,2.83,1.51,2.68,2.76,2.3,2,2.6,2.68.1.22,0,.48-.22.69-.5.49-1.61.77-2.65-.18-1.27-1.19-1.74-1.59-1.85-1.67.22.22,2.01,2.03,2.08,2.88,0,0-.8,2.73-2.13.85Z"/>
    <path class="cls-7" d="m106.38,159.64s2.27.98,5.08,1.75c-2.43-.61-4.68-1.38-5.93-1.84l.85.09Z"/>
    <path class="cls-4" d="m108.4,75.21s.4,1.25,1.68,2.45c-.57,1.43-5.9,9.12-5.9,9.12-.59-.66-1.95-1.81-3.63-3.26.52-.45,4.52-1.14,5.15-6.76.22.09.41.2.53.3.76.65,1.87-.66,1.87-.66,0,0,.24-.23-.86-1.7.24.11.44.22.56.33.19.16.4.21.6.17h0Z"/>
    <path class="cls-7" d="m104.5,159.16s.38.15,1.03.39l-1.4-.15c.13-.08.26-.16.37-.24Z"/>
    <path class="cls-8" d="m103.21,148.24c-2.62-.03-5.7-.06-8.95-.08-.4,0-.79,0-1.2,0-3.7-.04-7.55-.06-11.1-.09-3.26-.02-6.26-.04-8.68-.05v-6.43c7.99-.02,21.8,0,29.93.01v6.65Z"/>
    <path class="cls-1" d="m156.11,169.28c-3.37-.09-7.19.04-11.3.42-6.21.56-13.07,1.69-20.03,3.48-1.67.44-3.59.64-5.64.68-12.11.22-28.95-5.47-28.95-5.47.45-.28.9-.56,1.34-.84.42.02,14.26,1.02,20.36-.34,6.2-1.37,15.65-4.22,18.39-7.68,3.12-.43,14-2.12,17.55-4.48,2.44-1.63,6.89-1.89,10.78-2.04,2.69-.09,5.13-.11,6.44-.49,3.21-.92,15.38-8.03,24.91-16.3,7.8-6.77,17.68-7.84,25.67-8.07,1.11.78,9.53,6.71,11.08,10.2.16.74.29,1.5.4,2.25-.5,3.15-1.61,10.12-2.97,12.04,0,0,.07.03.2.1-2.07,1.64-5.13,3.32-8.7,4.91-1.25.57-2.59,1.13-3.96,1.66-2.74,1.08-5.64,2.08-8.52,2.96-3.27,1-7.97,2.05-13.2,3.01-2.39.44-4.9.87-7.43,1.27-2.58.4-5.19.79-7.72,1.12-1.94.26-3.84.5-5.66.7-3.34.38-6.38.66-8.88.8h-.01c-1.65.1-3.06.14-4.15.11Z"/>
    <path class="cls-5" d="m107.57,59.3c.34,0,.54-1.49.54-1.95s-2.72.5-2.72.5c0,.69,1.84,1.45,2.18,1.45Zm7.19-21.74c1.92,0,2.38,5.52,3.29,5.28.62-.15.6-1.93,1.23-3.57h0c.59-1.08,3.12-2.47,3.9.63.6,2.39,1,3.82.23,4.55-.36.35-.76.59-1.15.65v.02s.1.11.29.29l-.15.11s-.11,1.39,0,1.56c.12.17.52,1.89,1.2,2.35.7.45,3.61,0,3.61,0,1.91,1.39,4.08,2.61,5.93,2.76l4.15.41v.23s.55,3.48-.6,7.45c-1.14,3.96-12.8,11.25-15.61,12.57s-7.14-1.45-7.14-1.45h-.01c.22-.22.32-.48.22-.7-.3-.68.08.08-2.6-2.68-.84-.86-1.81-1.33-2.83-1.51-.27-.05-.55-.09-.83-.1-2.64-.42-4.84-1.84-6.67-3.74h0c-1.94-2.02-3.43-4.58-4.5-7.05-2.61-5.97-5.98-20.2-6.52-23.93,5.29.98,11.79-.56,18.14-3.54,0,0,0,1,.77,3.75.34,1.2,1.09,2.45,2,3.45,1.17,1.3,2.58,2.21,3.66,2.21Z"/>
    <path class="cls-8" d="m88.25,157.82h.91l3.9-9.67c.41,0,.8,0,1.2,0v.16c.04,2.8-8.69,16.09-8.69,16.09l1.78-.12-10.44,9.35-3.33-1.65c4.87-4.43,14.33-13.09,14.67-14.17Z"/>
    <path class="cls-8" d="m94.26,148.16c3.25.02,6.33.05,8.95.08.43.01.85.01,1.25.01l-3.38,8.27-3.39,7.07-10.34.7-1.78.12s8.73-13.29,8.69-16.09v-.16Z"/>
    <polygon class="cls-8" points="84.76 157.82 67.78 173.57 64.07 171.4 80.17 157.82 84.76 157.82"/>
    <path class="cls-8" d="m93.06,148.15l-3.9,9.67h-9.47v-5.18l2.27-4.32v-.26c3.55.03,7.4.05,11.1.09Z"/>
    <polygon class="cls-8" points="79.49 156.19 79.69 156.19 79.69 157.82 80.17 157.82 64.07 171.4 61.62 170.07 61.53 169.89 79.49 156.19"/>
    <path class="cls-8" d="m81.96,148.32l-2.27,4.32-1.66,3.17-1.44-.2-9.35-1.27,5.51-6.02v-.31h.53c2.42.01,5.42.03,8.68.05v.26Z"/>
    <path class="cls-8" d="m88.25,157.82c-.34,1.08-9.8,9.74-14.67,14.17-1.71,1.55-2.86,2.57-2.86,2.57l-2.94-.99,16.98-15.75h3.49Z"/>
    <path class="cls-4" d="m67.95,162.26l4.67-3.47c-1.35,1.08-2.94,2.33-4.57,3.59l-.08-.11h-.02Z"/>
    <path class="cls-8" d="m67.95,162.27h.02l.08.11c1.63-1.26,3.22-2.51,4.57-3.59l.08-.07c2.29-1.8,3.89-3.11,3.89-3.11l1.44.2,1.66-3.17v3.55h-.2l-17.96,13.7-2.67-.89,9.08-6.73h.01Z"/>
    <path class="cls-4" d="m89.36,90.84c-3.22,7.8-22.65,33.06-22.65,33.06l-.52.11c-2.16-2.36-5.1-5.15-8.83-7.83-6.73-4.84-7.42-8.11-11.12-10.05,2.76-2.72,11.76-11.64,14.57-15.03.66-.8,1.62-2.11,2.76-3.75,4.61-6.6,12.2-18.4,15.15-22.08,3.67-4.59,9.3-3.21,14.42-3.1,4.96.12,7.88.48,8.07.5h0c1.83,1.9,4.03,3.32,6.67,3.74-1.98-.09-4.07.71-5.68,1.54-2.65,1.37-5.17,5.92-7.46,10.41-2.91-1.75-2.47,5.36-5.39,12.48Z"/>
    <path class="cls-4" d="m156.11,141.61c-6.99,9.07-14.83,11.37-25.83,17.92-.52.08-.82.11-.85.11-.08,0-1.65-1.03-3.52-3.83-1.28-1.9-2.7-4.59-3.9-8.33h0c-.6-1.87-1.14-4-1.58-6.41h-.06s-5.69.01-5.69.01h0c-.62-1.56-1.61-2.81-2.66-3.16-2.24-.78-3.73,1.56-4.65,3.68-1.09,0-2.5,0-4.15-.01-8.13-.01-21.94-.03-29.93-.01-3,0-5.18.01-5.93.03-.9.03-1.53.25-1.97.6l5.53-5.53v-6.66s-1.53-2.55-4.72-6.01l.52-.11s19.43-25.26,22.65-33.06c2.92-7.12,2.48-14.23,5.39-12.48.28.17.61.42.96.77,1.66,1.62,3.37,3.13,4.84,4.39,1.68,1.45,3.04,2.6,3.63,3.26,0,0,5.33-7.69,5.9-9.12,1.06,1,2.74,1.98,5.31,2.13,4.3.27,11.61-1.28,17.4-5.72l2.11.8c-2.34,1.89-14.87,12.69-15.62,26.83-.69,13,1.66,20.37,2.47,22.47l2.51-.12c2.95-2.01,5.76-4.01,11.02-3.21,1.55.24,3.33.73,5.39,1.53,3.5,1.36,8.41,2.87,13.44,4.18l.26-1.01c5.42-1.5,25.64-6.43,33.19-7.87,1.1-.21,1.92-.35,2.4-.39,1.67-.16,4.45-.7,7.5-.97h.02c2.82.64,14.65,4.37,22.01,11.77-1.22.02-2.51.03-3.86.07-7.99.23-17.87,1.3-25.67,8.07-9.53,8.27-21.7,15.38-24.91,16.3-1.31.38-3.75.4-6.44.49-.03-.32-.83-7.47-2.5-11.4Z"/>
    <path class="cls-8" d="m65.36,142.23h.01s0-.01.01-.02c.44-.35,1.07-.57,1.97-.6.75-.02,2.93-.03,5.93-.03v6.43h-.53c-2.37,0-4.09.01-4.82.03-3.9.12-3.22-1.26-3.34-2.06-.07-.54-.46-2.25.39-3.36.01-.02.03-.04.04-.06l.34-.33Z"/>
    <path class="cls-4" d="m67.93,148.04c.73-.02,2.45-.03,4.82-.03v.31l-5.51,6.02,9.35,1.27s-1.6,1.31-3.89,3.11l-.08.07-4.67,3.47-17.38-7.91h-.01s-3.3-3.9-3.3-3.9l16.77-6.89.95-.94c-.85,1.11-.46,2.82-.39,3.36.12.8-.56,2.18,3.34,2.06Z"/>
    <path class="cls-4" d="m67.95,162.27h-.01c-.27.02-2.03.29-6.44,4.49-1.95-2.18-14.7-8.96-14.7-8.96.69.23,4.37-2.75,4.37-2.75l-.6-.7,17.38,7.91h0Z"/>
    <path class="cls-4" d="m63.57,87.35c-1.14,1.64-2.1,2.95-2.76,3.75-2.81,3.39-11.81,12.31-14.57,15.03h-.01c-1.34-.71-3.08-1.24-5.63-1.6-3.19-.45-6.12-.93-8.84-1.07v-.04s12.87-9.6,31.81-16.07Z"/>
    <path class="cls-1" d="m29.44,147.66c.07.07.17.14.28.23-.09-.06-.18-.14-.28-.23Z"/>
    <path class="cls-1" d="m29.72,147.89c-.11-.09-.21-.16-.28-.23l-.23-.79c.43.72.9,1.33,1.44,1.76-.07-.05-.13-.1-.2-.16-.24-.19-.48-.37-.73-.58Z"/>
    <path class="cls-1" d="m26.14,136.68c.37,1.76,1.21,7.04,3.06,10.17l-3.06-10.17Zm31.22-20.5c3.73,2.68,6.67,5.47,8.83,7.83,3.19,3.46,4.72,6.01,4.72,6.01v6.66l-5.53,5.53s-.01.01-.01.02h-.01c-.14.1-.25.22-.34.33,0,.02-.03.04-.04.06l-.95.94-16.77,6.89,3.3,3.89h.01s.6.71.6.71c0,0-3.68,2.98-4.37,2.75s-10.79-4.82-14.46-7.81c-.24-.2-.5-.4-.78-.62-.13-.11-.27-.21-.4-.33-.16-.12-.31-.24-.47-.37-.01-.01-.03-.02-.04-.04-.54-.43-1.01-1.04-1.44-1.76l.23.79c-.46-.35-.94-.73-1.43-1.12-3.84-3.06-8.5-6.78-11.05-9.17-2.79-2.61-5.31-12.34-3.37-20.5.62-2.61,1.7-5.05,3.37-7.06,4.6-5.52,9.31-6.63,14.8-6.35,2.72.14,5.65.62,8.84,1.07,2.55.36,4.29.89,5.63,1.6h.01c3.7,1.94,4.39,5.21,11.12,10.05Z"/>
    <path class="cls-3" d="m16.8,140.94c2.22.63,5.36,2.11,8.73,5.7-4.5.12-13.71.13-15.31-1.7,0,0,5.36-4.34,6.58-4Z"/>
    <path class="cls-4" d="m16.96,137.37c2.55,2.39,7.21,6.11,11.05,9.17,0,0-.98.05-2.48.1-3.37-3.59-6.51-5.07-8.73-5.7-1.22-.34-6.58,4-6.58,4-5.36-.91-9.72-2.27-9.72-2.27l13.09-25.8c-1.94,8.16.58,17.89,3.37,20.5Z"/>
  </g>
  <g>
    <path class="cls-10" d="m29.44,147.66c.07.07.17.14.28.23"/>
    <path class="cls-10" d="m111.46,161.39c-2.81-.77-5.08-1.75-5.08-1.75l-.85-.09"/>
    <path class="cls-10" d="m119.28,39.27c-.63,1.64-.61,3.42-1.23,3.57-.91.24-1.37-5.28-3.29-5.28-1.08,0-2.49-.91-3.66-2.21-.91-1-1.66-2.25-2-3.45-.77-2.75-.77-3.75-.77-3.75-6.35,2.98-12.85,4.52-18.14,3.54.12-1.95,2.13-4.59,4.72-6.83,2.58-2.23,7.97-5.96,7.97-5.96h-4.59v-1.9h5.92s-2.87-2.36-5.92-4.99c-3.04-2.65-6.3-5.88-7.23-6.98-1.78-2.1.81-6.03,3.61-3.93,2.81,2.09,11.83,8.84,11.83,8.84,1.15-2.75,1.83-5.68,2.29-6.77.46-1.1,3.16-.81,5.4.63,2.24,1.43,8.15,9.01,8.21,10.33s-2.24,2.14-2.24,2.14c2.12,2.8,2.12,5.21-.34,7.56.24,1.29.56,2.73.87,4.18.87,4.05,1.63,8.17.2,9.1-.81.53-1.29,1.33-1.61,2.15"/>
    <path class="cls-10" d="m118.67,28.13c-3.21-4.02-5.69-6.31-6.95-7.11,0,0-2.24,8.38,1.78,14.23,2.76-2.98,5.17-7.12,5.17-7.12Z"/>
    <path class="cls-10" d="m112.41,6.44s5.51,2.12,6.61,7.17c-2.19,1.27-5.97,1.72-6.61,1.38V6.44Z"/>
    <path class="cls-10" d="m101.22,62.67c1.83,1.9,4.03,3.32,6.67,3.74.27.05.55.08.83.1,1.15.1,2.38,0,3.69-.32,1.78-.58,5.75-3.09,6.87-5.51"/>
    <path class="cls-10" d="m90.19,31.69c.54,3.73,3.91,17.96,6.52,23.93,1.07,2.47,2.56,5.03,4.5,7.05"/>
    <path class="cls-10" d="m109.4,69.52s.01,0,.03.02c.11.08.58.48,1.85,1.67,1.04.95,2.15.67,2.65.18.22-.21.32-.47.22-.69-.3-.68.08.08-2.6-2.68-.84-.86-1.81-1.33-2.83-1.51-.27-.05-.55-.09-.83-.1-1.98-.09-4.07.71-5.68,1.54-2.65,1.37-5.17,5.92-7.46,10.41-.01.02-.02.05-.04.08"/>
    <path class="cls-10" d="m105.46,70.51s1.97.86,3.25,2.03c.26.23.49.47.67.73,1.33,1.88,2.13-.85,2.13-.85-.07-.85-1.86-2.66-2.08-2.88"/>
    <path class="cls-10" d="m103.4,73.42s2.56.67,3.84,1.28c.24.11.44.22.56.33.19.16.4.21.6.17.63-.07,1.27-.83,1.27-.83,0,0,.26-.25-.96-1.83"/>
    <path class="cls-10" d="m105.7,76.76c.22.09.41.2.53.3.76.65,1.87-.66,1.87-.66,0,0,.24-.23-.86-1.7-.03-.04-.07-.09-.1-.13"/>
    <path class="cls-10" d="m101.82,75.45s2.61.69,3.88,1.3"/>
    <path class="cls-10" d="m105.7,76.75h0c-.63,5.63-4.63,6.32-5.15,6.77"/>
    <path class="cls-10" d="m66.71,123.9s19.43-25.26,22.65-33.06c2.92-7.12,2.48-14.23,5.39-12.48.28.17.61.42.96.77,1.66,1.62,3.37,3.13,4.84,4.39,1.68,1.45,3.04,2.6,3.63,3.26.12.16.22.28.27.38v4.06c-.4,1.91-10.56,20.28-12.24,27.78-1.69,7.5-2.07,8.84-2.02,14.09"/>
    <path class="cls-10" d="m104.18,86.78s5.33-7.69,5.9-9.12c.02-.04.03-.08.03-.1"/>
    <path class="cls-10" d="m108.4,75.21s.4,1.25,1.68,2.45c1.06,1,2.74,1.98,5.31,2.13,4.3.27,11.61-1.28,17.4-5.72,1.8-1.39,3.46-3.04,4.82-5.01,5.69-8.16,12.86-12.63,12.86-12.68h-.01"/>
    <path class="cls-10" d="m119.28,39.27h0c.59-1.08,3.12-2.47,3.9.63.6,2.39,1,3.82.23,4.55-.36.35-.76.59-1.15.65-.41.06-.81-.04-1.18-.38"/>
    <path class="cls-10" d="m167.85,61.89c.25.25.48.51.72.78.19.23.37.45.56.69.35.41.71.84,1.05,1.27.35.43.71.88,1.05,1.34.45.58.89,1.17,1.33,1.78.4.55.79,1.12,1.18,1.7s.78,1.17,1.16,1.77c.39.64.8,1.3,1.19,1.98.33.57.65,1.15.98,1.76.32.59.63,1.21.96,1.85.31.64.63,1.3.94,1.99.36.77.71,1.57,1.06,2.4.13.31.26.64.4.97.17.41.34.85.51,1.33.18.49.36,1,.54,1.55.14.41.29.85.43,1.3,1.74,5.33,3.66,12.68,5.19,18.88,1.66,6.69,2.86,12.04,2.86,12.05"/>
    <path class="cls-10" d="m122.26,45.12s.1.11.29.29c.68.68,2.5,2.45,4.66,4.02,1.91,1.39,4.08,2.61,5.93,2.76l4.15.41,1.2.12s.13.04.37.11c.35.11.94.28,1.68.51.75.22,1.68.49,2.69.78.62.17,1.26.34,1.92.52.94.25,1.92.51,2.88.73.64.15,1.27.3,1.87.43.22.05.45.09.66.13.71.14,1.36.26,1.95.34.32.04.63.07.9.1.33.03.67.05,1.02.09.54.05,1.1.12,1.68.21.53.08,1.07.17,1.63.28.7.15,1.43.32,2.16.52.38.11.76.23,1.15.36.73.25,1.45.53,2.16.87.91.42,1.79.91,2.62,1.5.71.49,1.39,1.05,2.01,1.68"/>
    <path class="cls-10" d="m122.4,45.52s-.11,1.39,0,1.56c.12.17.52,1.89,1.2,2.35.7.45,3.61,0,3.61,0"/>
    <path class="cls-10" d="m99.23,42.85s1.32,8.88,2.07,10.56c.76,1.68,1.53.58,2.37.67"/>
    <path class="cls-10" d="m103.66,50.54c-.12-.12.92-.06,1.59,1.61"/>
    <path class="cls-10" d="m105.58,42.85s1.92-1.99,5.06-1.29"/>
    <line class="cls-10" x1="108.7" y1="42.21" x2="109.83" y2="42.13"/>
    <path class="cls-10" d="m94.71,45.52s1.69-.98,3.9-.76"/>
    <line class="cls-10" x1="96.77" y1="45.67" x2="97.92" y2="45.67"/>
    <path class="cls-10" d="m107.57,59.3c-.34,0-2.18-.76-2.18-1.45,0,0,2.72-.96,2.72-.5s-.2,1.95-.54,1.95Z"/>
    <line class="cls-10" x1="93.14" y1="36.88" x2="96.77" y2="36.49"/>
    <line class="cls-10" x1="102.75" y1="34.78" x2="105.58" y2="34.35"/>
    <path class="cls-10" d="m137.29,52.83s.55,3.48-.6,7.45c-1.14,3.96-12.8,11.25-15.61,12.57s-7.14-1.45-7.14-1.45"/>
    <path class="cls-10" d="m122.01,147.47c-.6-1.86-1.14-3.99-1.58-6.4-.68-3.72-1.13-8.14-1.15-13.34"/>
    <path class="cls-10" d="m197.48,116.31c3.15-.26,6.58-.2,9.37.97.6.25,1.18.55,1.71.91.2.14.39.27.6.42,2.52,1.7,5.2,3.46,7.34,5.07,2.32,1.74,3.99,3.3,4.11,4.39-.36.01-.74.01-1.12.01-1.22.02-2.51.03-3.86.07-7.99.23-17.87,1.3-25.67,8.07-9.53,8.27-21.7,15.38-24.91,16.3-1.31.38-3.75.4-6.44.49-3.89.15-8.34.41-10.78,2.04-3.55,2.36-14.43,4.05-17.55,4.48-.52.08-.82.11-.85.11-.08,0-1.65-1.03-3.52-3.83-1.28-1.9-2.7-4.59-3.9-8.33"/>
    <path class="cls-10" d="m154.37,125.54c5.42-1.5,25.64-6.43,33.19-7.87,1.1-.21,1.92-.35,2.4-.39,1.67-.16,4.45-.7,7.5-.97"/>
    <path class="cls-10" d="m101.22,62.67h0c-.19-.02-3.11-.38-8.07-.5-5.12-.11-10.75-1.49-14.42,3.1-2.95,3.68-10.54,15.48-15.15,22.08-1.14,1.64-2.1,2.95-2.76,3.75-2.81,3.39-11.81,12.31-14.57,15.03"/>
    <line class="cls-10" x1="65.02" y1="142.56" x2="65.36" y2="142.23"/>
    <polyline class="cls-10" points="50.56 154.34 47.26 150.45 64.03 143.56 64.98 142.62"/>
    <path class="cls-10" d="m30.69,148.67c.16.13.31.25.47.37.13.12.27.22.4.33.28.22.54.42.78.62,3.67,2.99,13.77,7.58,14.46,7.81s4.37-2.75,4.37-2.75l-.6-.7"/>
    <path class="cls-10" d="m65.38,142.21l5.53-5.53v-6.66s-1.53-2.55-4.72-6.01c-2.16-2.36-5.1-5.15-8.83-7.83-6.73-4.84-7.42-8.11-11.12-10.05h-.01c-1.34-.71-3.08-1.24-5.63-1.6-3.19-.45-6.12-.93-8.84-1.07-5.49-.28-10.2.83-14.8,6.35-1.67,2.01-2.75,4.45-3.37,7.06-1.94,8.16.58,17.89,3.37,20.5,2.55,2.39,7.21,6.11,11.05,9.17.49.39.97.77,1.43,1.12.1.09.19.17.28.23.25.21.49.39.73.58.07.06.13.11.2.16"/>
    <path class="cls-10" d="m131.62,133.09s13.91,10.25,22.18,10.71"/>
    <path class="cls-10" d="m160.27,169.17c2.5-.14,5.54-.42,8.88-.8,1.82-.2,3.72-.44,5.66-.7,2.53-.33,5.14-.72,7.72-1.12,2.53-.4,5.04-.83,7.43-1.27,5.23-.96,9.93-2.01,13.2-3.01,2.88-.88,5.78-1.88,8.52-2.96,1.37-.53,2.71-1.09,3.96-1.66,3.57-1.59,6.63-3.27,8.7-4.91,1.41-1.1,2.36-2.18,2.7-3.21.56-1.7.63-5.21.07-8.93-.11-.75-.24-1.51-.4-2.25-.33-1.53-.76-3.03-1.31-4.41-.94-2.38-2.24-4.38-3.9-5.42-.29-.18-.59-.34-.89-.45"/>
    <path class="cls-10" d="m90.19,168.39s16.84,5.69,28.95,5.47c2.05-.04,3.97-.24,5.64-.68,6.96-1.79,13.82-2.92,20.03-3.48,4.11-.38,7.93-.51,11.3-.42,1.09.03,2.5-.01,4.15-.11"/>
    <polyline class="cls-10" points="67.95 162.26 50.57 154.35 50.56 154.34"/>
    <path class="cls-10" d="m67.95,162.27h.01"/>
    <path class="cls-10" d="m46.8,157.8s12.75,6.78,14.7,8.96c4.41-4.2,6.17-4.47,6.44-4.49"/>
    <path class="cls-10" d="m107.36,141.6c1.48.01,2.34.01,2.34.01,0,0,1.52,4.79.32,6.71-.68,0-1.66-.02-2.89-.04-.8-.01-1.69-.01-2.67-.03-.4,0-.82,0-1.25-.01-2.62-.03-5.7-.06-8.95-.08-.4,0-.79,0-1.2,0-3.7-.04-7.55-.06-11.1-.09-3.26-.02-6.26-.04-8.68-.05h-.53c-2.37,0-4.09.01-4.82.03-3.9.12-3.22-1.26-3.34-2.06-.07-.54-.46-2.25.39-3.36.01-.02.03-.04.04-.06.09-.11.2-.23.34-.33h.01s0-.01.01-.02c.44-.35,1.07-.57,1.97-.6.75-.02,2.93-.03,5.93-.03,7.99-.02,21.8,0,29.93.01,1.65.01,3.06.01,4.15.01Z"/>
    <path class="cls-10" d="m107.36,141.61h0c.92-2.13,2.41-4.47,4.65-3.69,1.05.35,2.04,1.6,2.66,3.16.43,1.05.68,2.25.67,3.41-.01.92-.14,1.92-.38,2.89-.61,2.45-2.02,4.7-4.44,4.88-1.19.09-2.28-.78-2.89-2.08-.28-.57-.45-1.21-.5-1.9"/>
    <line class="cls-10" x1="114.68" y1="141.08" x2="120.37" y2="141.08"/>
    <path class="cls-10" d="m48.14,192.36c17.98-5.63,21.7-6.71,37.43-7.54,17.33-.92,32.92-8.45,33.57-10.96,0-.01.01-.03.01-.04"/>
    <path class="cls-10" d="m48.14,192.36c-2.59,1.08-4.72,1.77-6.24,1.95,2.26-.7,4.33-1.35,6.24-1.95Z"/>
    <path class="cls-10" d="m91.53,167.55c-.44.28-.89.56-1.34.84-3.91,2.48-7.94,5.01-11.94,7.45h-.01c-11.46,7-22.67,13.4-30.1,16.52"/>
    <path class="cls-10" d="m115.34,147.47h6.67s-7.27,4.98-17.51,11.69c-.11.08-.24.16-.37.24-2.05,1.34-4.2,2.75-6.44,4.2-2,1.28-4.06,2.61-6.16,3.95"/>
    <path class="cls-10" d="m135.28,74.57s-.14.1-.38.3c-2.34,1.89-14.87,12.69-15.62,26.83-.69,13,1.66,20.37,2.47,22.47.16.44.26.64.26.64"/>
    <path class="cls-10" d="m128.69,120.23s-5.77-33.16,27.42-46.35c-2.46-4.01-5.64-7.32-5.64-7.32l-9.22,11.53"/>
    <path class="cls-10" d="m146.76,90.84s-15.62,16.83-11.48,30"/>
    <path class="cls-10" d="m138.8,117.28s5.81-11.94,26.32-17.58"/>
    <path class="cls-10" d="m124.26,124.05c2.95-2.01,5.76-4.01,11.02-3.21,1.55.24,3.33.73,5.39,1.53,3.5,1.36,8.41,2.87,13.44,4.18,7.91,2.05,16.12,3.6,19.58,3.32"/>
    <path class="cls-10" d="m91.53,167.55c.42.02,14.26,1.02,20.36-.34,6.2-1.37,15.65-4.22,18.39-7.68,11-6.55,18.84-8.85,25.83-17.92,1.67,3.93,2.47,11.08,2.5,11.4h0"/>
    <path class="cls-10" d="m104.5,159.16s.38.15,1.03.39c1.25.46,3.5,1.23,5.93,1.84.07.01.15.03.22.05,2.9.69,6.03,1.12,8.04.44.12-.04.23-.08.34-.13s.22-.1.31-.16c4.15-2.3,5.54-5.78,5.54-5.78"/>
    <path class="cls-10" d="m144.81,169.7s16.64-3.03,19.09-7.43"/>
    <path class="cls-10" d="m187.1,105.23l60.84-37.13c2.06-4.66,10.1-10.18,11.93-8.8,1.84,1.38.08,1.22-1.22,3.14-1.3,1.91-4.52,4.14-5.62,8.5-1.12,4.36-6.29,16.74-8.92,22.42-2.83,6.09-7.81,9.95-16.15,14.23-6.47,2.79-16.47,8.02-18.8,11.02"/>
    <path class="cls-10" d="m247.94,68.1c0,4.67-2.3,16.77-4.14,20.75-1.83,3.98-2.49,8.08-10.86,12.85-8.32,4.74-24.52,12.77-26.09,15.58"/>
    <path class="cls-10" d="m216.5,123.68s24.09-14.67,26.04-16.28,5.97-3.67,7.46-2.07c1.49,1.61-.8,4.48-2.98,6.67-1.47,1.46-12.5,8.26-19.52,12.53-2.75,1.67-4.88,2.95-5.6,3.39-.17.09-.26.15-.26.15"/>
    <path class="cls-10" d="m227.5,124.53s15.62,3.19,17.45,5.37c1.84,2.19-3.9,9.53-3.9,9.53,0,0-7.04-4.27-12.55-5.31-1.13-.22-2.18-.3-3.1-.18"/>
    <path class="cls-10" d="m224.14,152.64s.07.03.2.1c.93.51,4.98,2.54,8.75,2-3.75,3.21-9.71,5.82-9.71,5.82,0,0-6.14-.09-7.74-2.91-.05-.09-.09-.18-.14-.28"/>
    <path class="cls-10" d="m228.5,134.12s13.12,6.47,15.53,9.68c-3.79,3.1-9.19,7.16-9.19,7.16-1.96-4.55-4.26-8.52-7.69-10.59-.01.07-.03.14-.04.23"/>
    <path class="cls-10" d="m211.81,159.64s-3.98,9.44-5.51,9.54c-2.53-.1-4.78-.26-6.76-.49-4.99-.58-8.24-1.61-9.58-3.41"/>
    <path class="cls-10" d="m199.48,169.18l-9.52,3.89s-.64-.24-1.55-.69c-2.04-1.03-5.45-3.12-5.88-5.83"/>
    <path class="cls-10" d="m188.41,172.38l-7.98,1.49s-5.62-2.87-5.62-6.2"/>
    <path class="cls-10" d="m180.43,173.87l-8.03.92s-.42-.35-.96-.92c-1.18-1.26-2.97-3.58-2.29-5.5"/>
    <path class="cls-10" d="m171.44,173.87l-8.92.92s-2.28-3.3-2.29-5.61c0,0,.02,0,.03-.01h.01c11.36-2.65,25.82-14.83,25.82-14.83"/>
    <polyline class="cls-10" points="107.63 150.18 101.22 156.59 104.42 159.04"/>
    <path class="cls-10" d="m104.5,148.15l-.04.1-3.38,8.27-3.39,7.07-10.34.7-1.78.12s8.73-13.29,8.69-16.09"/>
    <polyline class="cls-10" points="72.75 148.32 67.24 154.34 76.59 155.61 78.03 155.81 79.69 152.64 81.96 148.32"/>
    <polyline class="cls-10" points="79.69 152.64 79.69 155.81 79.69 156.19 79.69 157.82 80.17 157.82 84.76 157.82 88.25 157.82 89.16 157.82 93.06 148.15"/>
    <path class="cls-9" d="m29.21,146.87c.43.72.9,1.33,1.44,1.76.01.02.03.03.04.04"/>
    <path class="cls-9" d="m26.14,136.68c.37,1.76,1.21,7.04,3.06,10.17"/>
    <polyline class="cls-10" points="138.86 52.83 139.19 46.67 139.39 42.85"/>
    <polyline class="cls-10" points="137.29 52.83 137.29 52.6 137.29 46.67 139.19 46.67 141.47 46.67 140.54 53.34"/>
    <polyline class="cls-10" points="145.15 41.56 144.66 44.79 143.23 54.12"/>
    <polyline class="cls-10" points="146.2 45.02 146.91 45.12 145.15 54.64"/>
    <polyline class="cls-10" points="141.47 46.67 141.86 44.38 144.66 44.79 146.2 45.01"/>
    <polyline class="cls-10" points="148.03 55.37 149.66 43.81 149.9 42.13"/>
    <polyline class="cls-10" points="146.2 45.02 146.2 45.01 146.2 43.38 149.66 43.81 152.8 44.2 149.9 55.8"/>
    <polyline class="cls-10" points="152.57 55.8 154.56 44.61 154.87 42.85"/>
    <polyline class="cls-10" points="152.8 44.2 154.56 44.61 158.47 45.52 158.2 46.25 154.43 56.46 154.43 56.47"/>
    <polyline class="cls-10" points="157.86 56.37 160.21 46.67 161.01 43.38"/>
    <polyline class="cls-10" points="159.9 57.47 163.21 47.21 162.45 47.08 160.21 46.67 158.47 46.35 156.11 56.67"/>
    <polyline class="cls-10" points="161.05 57.83 167.01 46.13 168.41 43.38"/>
    <polyline class="cls-10" points="162.52 46.67 163.75 44.38 167.01 46.13 170.18 47.84 169.36 49.12 163.21 58.7"/>
    <polyline class="cls-10" points="169.35 49.12 169.36 49.12 171.86 50.53 174.3 51.91 167.85 61.89 167.84 61.88 165.83 60.2 171.86 50.53 173.54 47.84"/>
    <polyline class="cls-10" points="174.3 51.91 175.23 50.6 177.7 53.08 178.74 54.12 179.62 54.99 179.56 55.06 170.18 64.63"/>
    <polyline class="cls-10" points="169.13 63.36 177.7 53.08 178.98 51.54"/>
    <polyline class="cls-10" points="178.74 54.12 179.56 55.06 181.23 57 183.04 59.08 181.48 60.37 172.56 67.75"/>
    <polyline class="cls-10" points="171.23 65.97 181.23 57 183.04 55.37"/>
    <polyline class="cls-10" points="181.48 60.37 183.08 63.1 183.98 64.63 184.53 65.58 174.9 71.22"/>
    <polyline class="cls-10" points="173.74 69.45 183.08 63.1 184.86 61.89"/>
    <polyline class="cls-10" points="183.98 64.63 186.55 62.67 187.83 65.64 188.58 67.39 189.08 68.56 177.07 74.96"/>
    <polyline class="cls-10" points="176.09 73.2 187.83 65.64 189.39 64.63"/>
    <polyline class="cls-10" points="188.58 67.39 190.91 66.56 191.87 69.92 192.91 73.62 192.31 73.84 178.98 78.8"/>
    <polyline class="cls-10" points="178.03 76.81 191.87 69.92 193.9 68.91"/>
    <polyline class="cls-10" points="192.31 73.83 192.31 73.84 192.64 77.12 192.85 79.18 192.91 79.82 180.94 83.5"/>
    <polyline class="cls-10" points="180.03 81.2 192.64 77.12 194.97 76.37"/>
    <polyline class="cls-10" points="181.75 86.38 181.91 86.35 194.97 84.02 194.42 81.27 193.9 78.67 192.85 79.18 192.84 79.18"/>
    <polyline class="cls-10" points="196.51 80.66 194.42 81.27 181.48 85.05"/>
    <path class="cls-10" d="m28.01,146.54s-.98.05-2.48.1c-4.5.12-13.71.13-15.31-1.7-5.36-.91-9.72-2.27-9.72-2.27l13.09-25.8"/>
    <path class="cls-10" d="m10.22,144.94s5.36-4.34,6.58-4c2.22.63,5.36,2.11,8.73,5.7"/>
    <path class="cls-10" d="m31.76,103.42s12.87-9.6,31.81-16.07"/>
    <polyline class="cls-10" points="73.28 141.57 73.28 141.58 73.28 146.68"/>
    <polyline class="cls-10" points="103.21 142.67 103.21 148.24 103.21 148.32"/>
    <polyline class="cls-10" points="76.39 155.99 72.7 158.72 72.62 158.79 67.95 162.26 67.95 162.27 67.94 162.27 58.86 169 61.53 169.89 79.49 156.19"/>
    <polyline class="cls-9" points="80.17 157.82 64.07 171.4 61.62 170.07 61.53 169.89"/>
    <polyline class="cls-9" points="84.76 157.82 67.78 173.57 64.07 171.4"/>
    <path class="cls-9" d="m67.18,173.37l.6.2,2.94.99s1.15-1.02,2.86-2.57c4.87-4.43,14.33-13.09,14.67-14.17"/>
    <polyline class="cls-9" points="73.56 171.98 73.58 171.99 76.91 173.64 87.35 164.29 87.36 164.28"/>
  </g>
</svg>