<?xml version="1.0" encoding="UTF-8"?>
<svg id="_レイヤー_1" data-name="レイヤー 1" xmlns="http://www.w3.org/2000/svg" viewBox="0 0 270.2 207.43">
  <defs>
    <style>
      .cls-1 {
        fill: #c1272d;
      }

      .cls-1, .cls-2, .cls-3, .cls-4, .cls-5, .cls-6, .cls-7, .cls-8, .cls-9 {
        stroke-width: 0px;
      }

      .cls-10 {
        stroke-miterlimit: 10;
      }

      .cls-10, .cls-11 {
        fill: none;
        stroke: #000;
      }

      .cls-2 {
        fill: #854138;
      }

      .cls-3 {
        fill: #816999;
      }

      .cls-4 {
        fill: #a4c7c3;
      }

      .cls-6 {
        fill: #f3edd7;
      }

      .cls-11 {
        stroke-linecap: round;
        stroke-linejoin: round;
      }

      .cls-7 {
        fill: #333;
      }

      .cls-8 {
        fill: #e3c5a9;
      }

      .cls-9 {
        fill: #d2d296;
      }
    </style>
  </defs>
  <g>
    <g>
      <rect class="cls-6" x=".24" y="172.81" width="3.62" height="5.02"/>
      <path class="cls-6" d="m269.95,200.37v6.56h-30.43l15.34-8.63c1.03,1.61,3.11,2.72,5.51,2.72s4.62-1.18,5.61-2.88l3.97,2.23Z"/>
      <path class="cls-6" d="m269.95,189.82v10.55l-3.97-2.23c.38-.65.59-1.38.59-2.14,0-1.3-.62-2.48-1.61-3.38l4.99-2.8Z"/>
      <path class="cls-6" d="m269.95,177.84v11.98l-4.99,2.8c-1.14-1.01-2.77-1.64-4.59-1.64s-3.31.58-4.43,1.51l-26.08-14.66h40.09Z"/>
      <polygon class="cls-6" points="269.95 81.75 269.95 87.51 1.13 87.51 .24 87.51 .24 81.75 269.95 81.75"/>
      <rect class="cls-6" x="265.96" y="172.81" width="3.99" height="5.02"/>
      <path class="cls-6" d="m266.58,196c0,.76-.21,1.49-.59,2.14l-5.41-3.05,4.39-2.47c1,.89,1.61,2.07,1.61,3.38Z"/>
      <path class="cls-6" d="m260.57,195.1l5.41,3.05c-1,1.7-3.13,2.88-5.61,2.88s-4.48-1.1-5.51-2.72l5.71-3.21Z"/>
      <rect class="cls-7" x="254.66" y="172.81" width="11.3" height="5.02"/>
      <path class="cls-6" d="m264.96,192.63l-4.39,2.47-4.63-2.6c1.13-.93,2.7-1.51,4.43-1.51,1.82,0,3.45.63,4.59,1.64Z"/>
      <path class="cls-6" d="m260.57,195.1l-5.71,3.21c-.44-.69-.69-1.48-.69-2.31,0-1.37.68-2.6,1.77-3.51l4.63,2.6Z"/>
      <path class="cls-6" d="m229.86,177.84l26.08,14.66c-1.09.9-1.77,2.13-1.77,3.51,0,.83.25,1.62.69,2.31l-15.34,8.63h-41.45l-15.64-8.79c.38-.65.59-1.38.59-2.14,0-1.3-.62-2.48-1.61-3.37l26.32-14.8h22.14Zm-5.96,18.16c0-2.77-2.25-5.02-5.02-5.02s-5.02,2.25-5.02,5.02,2.25,5.02,5.02,5.02,5.02-2.25,5.02-5.02Z"/>
      <polygon class="cls-6" points="254.66 177.84 229.86 177.84 224.16 177.84 224.16 172.81 254.66 172.81 254.66 177.84"/>
      <rect class="cls-7" x="212.86" y="172.81" width="11.3" height="5.02"/>
      <path class="cls-7" d="m218.88,190.99c2.77,0,5.02,2.25,5.02,5.02s-2.25,5.02-5.02,5.02-5.02-2.25-5.02-5.02,2.25-5.02,5.02-5.02Z"/>
      <path class="cls-6" d="m207.72,177.84l-26.32,14.8c-1.14-1.02-2.77-1.65-4.59-1.65s-3.31.58-4.43,1.51l-26.08-14.66h61.42Z"/>
      <polygon class="cls-6" points="182.36 177.84 182.36 172.81 212.86 172.81 212.86 177.84 207.72 177.84 182.36 177.84"/>
      <path class="cls-6" d="m198.07,206.93h-42.1l15.34-8.63c1.03,1.61,3.12,2.72,5.51,2.72s4.62-1.18,5.61-2.88l15.64,8.79Z"/>
      <path class="cls-6" d="m183.02,196c0,.76-.21,1.49-.59,2.14l-5.41-3.05,4.39-2.46c1,.89,1.61,2.07,1.61,3.37Z"/>
      <path class="cls-6" d="m177.01,195.1l5.41,3.05c-1,1.7-3.13,2.88-5.61,2.88s-4.48-1.1-5.51-2.72l5.71-3.21Z"/>
      <rect class="cls-7" x="171.06" y="172.81" width="11.3" height="5.02"/>
      <path class="cls-6" d="m176.82,190.99c1.82,0,3.45.63,4.59,1.65l-4.39,2.46-4.63-2.6c1.13-.93,2.7-1.51,4.43-1.51Z"/>
      <path class="cls-6" d="m177.01,195.1l-5.71,3.21c-.44-.69-.69-1.48-.69-2.31,0-1.37.68-2.6,1.77-3.51l4.63,2.6Z"/>
      <path class="cls-6" d="m146.31,177.84l26.08,14.66c-1.09.9-1.77,2.13-1.77,3.51,0,.83.25,1.62.69,2.31l-15.34,8.63h-41.45l-15.64-8.79c.38-.65.59-1.38.59-2.14,0-1.3-.62-2.48-1.61-3.37l26.32-14.8h22.14Zm-7.01,18.16c0-2.77-2.25-5.02-5.02-5.02s-5.02,2.25-5.02,5.02,2.25,5.02,5.02,5.02,5.02-2.25,5.02-5.02Z"/>
      <polygon class="cls-6" points="171.06 177.84 146.31 177.84 140.56 177.84 140.56 172.81 171.06 172.81 171.06 177.84"/>
      <rect class="cls-7" x="129.26" y="172.81" width="11.3" height="5.02"/>
      <path class="cls-7" d="m134.28,190.99c2.77,0,5.02,2.25,5.02,5.02s-2.25,5.02-5.02,5.02-5.02-2.25-5.02-5.02,2.25-5.02,5.02-5.02Z"/>
      <path class="cls-6" d="m124.17,177.84l-26.32,14.8c-1.14-1.02-2.77-1.65-4.59-1.65s-3.31.58-4.43,1.51l-26.08-14.66h61.42Z"/>
      <polygon class="cls-6" points="129.26 177.84 124.17 177.84 98.76 177.84 98.76 172.81 129.26 172.81 129.26 177.84"/>
      <path class="cls-6" d="m114.51,206.93h-42.1l15.34-8.63c1.03,1.61,3.11,2.72,5.51,2.72s4.62-1.18,5.61-2.88l15.64,8.79Z"/>
      <path class="cls-6" d="m99.46,196c0,.76-.21,1.49-.59,2.14l-5.41-3.05,4.39-2.46c1,.89,1.61,2.07,1.61,3.37Z"/>
      <path class="cls-6" d="m93.46,195.1l5.41,3.05c-1,1.7-3.13,2.88-5.61,2.88s-4.48-1.1-5.51-2.72l5.71-3.21Z"/>
      <rect class="cls-7" x="87.46" y="172.81" width="11.3" height="5.02"/>
      <path class="cls-6" d="m93.26,190.99c1.82,0,3.45.63,4.59,1.65l-4.39,2.46-4.63-2.6c1.13-.93,2.7-1.51,4.43-1.51Z"/>
      <path class="cls-6" d="m93.46,195.1l-5.71,3.21c-.44-.69-.69-1.48-.69-2.31,0-1.37.68-2.6,1.77-3.51l4.63,2.6Z"/>
      <path class="cls-6" d="m62.75,177.84l26.08,14.66c-1.09.9-1.77,2.13-1.77,3.51,0,.83.25,1.62.69,2.31l-15.34,8.63H30.76l-15.64-8.79c.38-.65.59-1.38.59-2.14,0-1.3-.62-2.48-1.61-3.37l26.32-14.8h22.33Zm-8.52,18.16c0-2.77-2.25-5.02-5.02-5.02s-5.02,2.25-5.02,5.02,2.25,5.02,5.02,5.02,5.02-2.25,5.02-5.02Z"/>
      <polygon class="cls-6" points="87.46 177.84 62.75 177.84 56.96 177.84 56.96 172.81 87.46 172.81 87.46 177.84"/>
      <rect class="cls-7" x="45.66" y="172.81" width="11.3" height="5.02"/>
      <path class="cls-7" d="m49.21,190.99c2.77,0,5.02,2.25,5.02,5.02s-2.25,5.02-5.02,5.02-5.02-2.25-5.02-5.02,2.25-5.02,5.02-5.02Z"/>
      <polygon class="cls-6" points="45.66 177.84 40.42 177.84 15.16 177.84 15.16 172.81 45.66 172.81 45.66 177.84"/>
      <path class="cls-6" d="m30.76,206.93H.24v-6.52l3.76-2.11c1.03,1.61,3.12,2.72,5.51,2.72s4.62-1.18,5.61-2.88l15.64,8.79Z"/>
      <path class="cls-6" d="m15.72,196c0,.76-.21,1.49-.59,2.14l-5.41-3.05,4.39-2.46c1,.89,1.61,2.07,1.61,3.37Z"/>
      <rect class="cls-7" x="3.86" y="172.81" width="11.3" height="5.02"/>
      <path class="cls-6" d="m9.71,195.1l5.41,3.05c-1,1.7-3.13,2.88-5.61,2.88s-4.48-1.1-5.51-2.72l5.71-3.21Z"/>
      <path class="cls-6" d="m9.51,190.99c1.82,0,3.45.63,4.59,1.65l-4.39,2.46-4.63-2.6c1.13-.93,2.7-1.51,4.43-1.51Z"/>
      <path class="cls-6" d="m9.71,195.1l-5.71,3.21c-.44-.69-.69-1.48-.69-2.31,0-1.37.68-2.6,1.77-3.51l4.63,2.6Z"/>
      <path class="cls-6" d="m.24,189.78l4.83,2.72c-1.09.9-1.77,2.13-1.77,3.51,0,.83.25,1.62.69,2.31l-3.76,2.11v-10.64Z"/>
      <polygon class="cls-9" points="212.86 172.81 182.36 172.81 171.06 172.81 140.56 172.81 129.26 172.81 98.76 172.81 87.46 172.81 56.96 172.81 45.66 172.81 15.16 172.81 3.86 172.81 .24 172.81 .24 87.51 1.13 87.51 269.95 87.51 269.95 172.81 265.96 172.81 254.66 172.81 224.16 172.81 212.86 172.81"/>
      <path class="cls-6" d="m.24,177.84h40.18l-26.32,14.8c-1.14-1.02-2.77-1.65-4.59-1.65s-3.31.58-4.43,1.51l-4.83-2.72v-11.94Z"/>
    </g>
    <g>
      <polyline class="cls-10" points="269.95 206.93 239.52 206.93 198.07 206.93 155.96 206.93 114.51 206.93 72.41 206.93 30.76 206.93 .24 206.93"/>
      <line class="cls-10" x1=".24" y1="81.75" x2="269.95" y2="81.75"/>
      <line class="cls-10" x1=".24" y1="87.51" x2="269.95" y2="87.51"/>
      <line class="cls-10" x1="265.96" y1="172.81" x2="269.95" y2="172.81"/>
      <line class="cls-10" x1="224.16" y1="172.81" x2="254.66" y2="172.81"/>
      <line class="cls-10" x1="182.36" y1="172.81" x2="212.86" y2="172.81"/>
      <line class="cls-10" x1="140.56" y1="172.81" x2="171.06" y2="172.81"/>
      <line class="cls-10" x1="98.76" y1="172.81" x2="129.26" y2="172.81"/>
      <line class="cls-10" x1="56.96" y1="172.81" x2="87.46" y2="172.81"/>
      <line class="cls-10" x1="15.16" y1="172.81" x2="45.66" y2="172.81"/>
      <line class="cls-10" x1=".24" y1="172.81" x2="3.86" y2="172.81"/>
      <line class="cls-10" x1="265.96" y1="177.84" x2="269.95" y2="177.84"/>
      <polyline class="cls-10" points="224.16 177.84 229.86 177.84 254.66 177.84"/>
      <polyline class="cls-10" points="182.36 177.84 207.72 177.84 212.86 177.84"/>
      <polyline class="cls-10" points="140.56 177.84 146.31 177.84 171.06 177.84"/>
      <polyline class="cls-10" points="98.76 177.84 124.17 177.84 129.26 177.84"/>
      <polyline class="cls-10" points="56.96 177.84 62.75 177.84 87.46 177.84"/>
      <polyline class="cls-10" points="15.16 177.84 40.42 177.84 45.66 177.84"/>
      <line class="cls-10" x1=".24" y1="177.84" x2="3.86" y2="177.84"/>
      <polyline class="cls-10" points="72.41 206.93 87.75 198.31 93.46 195.1 97.85 192.63 124.17 177.84"/>
      <polyline class="cls-10" points="114.51 206.93 98.87 198.14 93.46 195.1 88.83 192.5 62.75 177.84"/>
      <path class="cls-10" d="m139.29,196c0,2.78-2.25,5.02-5.02,5.02s-5.02-2.25-5.02-5.02,2.25-5.02,5.02-5.02,5.02,2.25,5.02,5.02Z"/>
      <path class="cls-10" d="m223.9,196c0,2.78-2.25,5.02-5.02,5.02s-5.02-2.25-5.02-5.02,2.25-5.02,5.02-5.02,5.02,2.25,5.02,5.02Z"/>
      <path class="cls-10" d="m97.85,192.63c1,.89,1.61,2.07,1.61,3.37,0,.76-.21,1.49-.59,2.14-1,1.7-3.13,2.88-5.61,2.88s-4.48-1.1-5.51-2.72c-.44-.69-.69-1.48-.69-2.31,0-1.37.68-2.6,1.77-3.51,1.13-.93,2.7-1.51,4.43-1.51,1.82,0,3.45.63,4.59,1.65Z"/>
      <polyline class="cls-10" points=".24 200.42 4 198.31 9.71 195.1 14.1 192.63 40.42 177.84"/>
      <polyline class="cls-10" points="30.76 206.93 15.13 198.14 9.71 195.1 5.08 192.5 .24 189.78"/>
      <path class="cls-10" d="m14.1,192.63c1,.89,1.61,2.07,1.61,3.37,0,.76-.21,1.49-.59,2.14-1,1.7-3.13,2.88-5.61,2.88s-4.48-1.1-5.51-2.72c-.44-.69-.69-1.48-.69-2.31,0-1.37.68-2.6,1.77-3.51,1.13-.93,2.7-1.51,4.43-1.51,1.82,0,3.45.63,4.59,1.65Z"/>
      <polyline class="cls-10" points="155.96 206.93 171.31 198.31 177.01 195.1 181.41 192.63 207.72 177.84"/>
      <polyline class="cls-10" points="198.07 206.93 182.43 198.14 177.01 195.1 172.38 192.5 146.31 177.84"/>
      <path class="cls-10" d="m181.41,192.63c1,.89,1.61,2.07,1.61,3.37,0,.76-.21,1.49-.59,2.14-1,1.7-3.13,2.88-5.61,2.88s-4.48-1.1-5.51-2.72c-.44-.69-.69-1.48-.69-2.31,0-1.37.68-2.6,1.77-3.51,1.13-.93,2.7-1.51,4.43-1.51,1.82,0,3.45.63,4.59,1.65Z"/>
      <polyline class="cls-10" points="239.52 206.93 254.86 198.31 260.57 195.1 264.96 192.63 269.95 189.82"/>
      <polyline class="cls-10" points="269.95 200.37 265.99 198.14 260.57 195.1 255.94 192.5 229.86 177.84"/>
      <path class="cls-10" d="m264.96,192.63c1,.89,1.61,2.07,1.61,3.38,0,.76-.21,1.49-.59,2.14-1,1.7-3.13,2.88-5.61,2.88s-4.48-1.1-5.51-2.72c-.44-.69-.69-1.48-.69-2.31,0-1.37.68-2.6,1.77-3.51,1.13-.93,2.7-1.51,4.43-1.51,1.82,0,3.45.63,4.59,1.64Z"/>
      <path class="cls-10" d="m54.23,196c0,2.78-2.25,5.02-5.02,5.02s-5.02-2.25-5.02-5.02,2.25-5.02,5.02-5.02,5.02,2.25,5.02,5.02Z"/>
      <rect class="cls-10" x="3.86" y="172.81" width="11.3" height="5.02"/>
      <rect class="cls-10" x="45.66" y="172.81" width="11.3" height="5.02"/>
      <rect class="cls-10" x="87.46" y="172.81" width="11.3" height="5.02"/>
      <rect class="cls-10" x="129.26" y="172.81" width="11.3" height="5.02"/>
      <rect class="cls-10" x="171.06" y="172.81" width="11.3" height="5.02"/>
      <rect class="cls-10" x="212.86" y="172.81" width="11.3" height="5.02"/>
      <rect class="cls-10" x="254.66" y="172.81" width="11.3" height="5.02"/>
    </g>
  </g>
  <g>
    <g>
      <path class="cls-4" d="m231.44,121.31s6.14,11.99,5.93,15.32c-1.67-1.77-13.99-.89-13.99-.89.54-.5,1.07-1.02,1.58-1.55,3.52-3.66,5.47-8.26,6.48-12.88Z"/>
      <path class="cls-2" d="m237.37,136.63c-.23,3.32-6.43,5.66-13.63,5.93-7.19.28-10.33,0-10.33,0,3.54-1.72,6.92-3.97,9.97-6.81,0,0,12.32-.89,13.99.89Z"/>
      <path class="cls-3" d="m180.01,147.63h-.1c-.27.15-.52.29-.78.43-10.47,5.66-13.06,6.6-21.3,6.06,1.18-3.79,2.49-8.59,3.55-14.01-3.78.12-7.23.08-10.34-.09l.03-.62c5.15.35,13.08-1.78,15.26-3.65.81-.69,3.62-3.18,7.32-6.41,2.85-2.48,6.24-5.41,9.65-8.3,6.72-5.68,13.53-11.2,16.54-12.83.55-.3,1.11-.61,1.68-.94,3.35-1.91,7.05-4.23,10.52-6.04,2.99-1.56,5.8-2.72,8.06-2.92,5.32-.44,11.82,1.18,12.26,8.56.23,3.93.26,9.2-.9,14.45-1.02,4.62-2.96,9.22-6.48,12.88-.51.54-1.04,1.05-1.58,1.55-3.05,2.85-6.43,5.09-9.97,6.81-4.89,2.37-10.07,3.71-15.19,4.19-3.65.56-16.9.86-18.21.89Z"/>
      <path class="cls-4" d="m150.6,103.76c-2-.02-3.87.03-5.62.26-.44-14.47,25.04-37.49,28.73-41.04.76-.74,1.23-1.46,1.48-2.17.21.51,7.98,19.1,9.68,23.47.51,1.32,1.58,3.36,2.83,5.56,0,0,14.15,4.12,24.27,11.25l.06.11c-3.47,1.8-7.17,4.13-10.52,6.04-19.52-1.28-35.33-3.05-45.23-3.34-2-.06-3.89-.14-5.68-.15Z"/>
      <path class="cls-4" d="m176.85,117.86c-.16.24-.3.46-.42.6-.55.67-2.8,10.87-2.8,10.87-3.7,3.23-6.51,5.72-7.32,6.41-2.18,1.87-10.1,4-15.26,3.65-1.14-.08-2.13-.28-2.91-.62-4.29-1.92-13-11.52-16.25-16.55-.15-2.36,1-7.98,1.78-11.3,3.06-4.57,6.79-6.31,11.29-6.9,1.75-.23,3.63-.28,5.62-.26,1.8,0,3.69.09,5.68.15,9.89.3,25.7,2.07,45.23,3.34-.57.33-1.14.64-1.68.94-3.01,1.63-9.82,7.15-16.54,12.83,0,0-1.86-2.39-3.46-4.15-1.28-1.4-2.32.02-2.96.98h0Z"/>
      <path class="cls-2" d="m179.82,116.88c1.61,1.75,3.46,4.15,3.46,4.15-3.41,2.89-6.79,5.82-9.65,8.3,0,0,2.26-10.2,2.8-10.87.11-.14.25-.36.42-.6h0c.64-.96,1.68-2.38,2.96-.98Z"/>
      <path class="cls-4" d="m175.19,60.81c-.25.71-.72,1.43-1.48,2.17-3.69,3.56-29.17,26.57-28.73,41.04-4.49.59-8.23,2.33-11.29,6.9-.78,3.31-1.93,8.94-1.78,11.3-.36,1.11-.84,2.21-1.43,3.31l-.56-.21s-14.85-.23-18.76,0c-.43.03-1.11.17-1.97.43h0c-.91-.1-1.96-.31-3.1-.62-7.55-2.05-18.99-8.25-18.99-8.25l-.99-.85c7.74-9.15,13.73-18.34,14.07-20.09l.02-.33c.63.03,1.21-.02,1.72-.14,3.25-.77,7.09-2.72,9.23-4.74.31-.93.32-7.98.1-15.32h0c.73-1.53,8.71-12.45,9.57-12.45v-.06c4.95.48,9.46-1.28,11.88-2.63,3.42-1.9,5.92-4.99,8.76-9.74,1.03-1.72,2.11-3.66,3.28-5.84,0,0,16.11.15,19.35.89,3.25.75,7.68,4.17,8.86,7.33.95,2.51,3.18,5.15,2.22,7.91Z"/>
      <path class="cls-4" d="m157.82,154.11c-1.72,5.51-3.17,8.88-3.17,8.88-9.22-2.66-19.11-4.93-27.65-9.06-5.63-2.72-10.68-6.25-14.57-11.22,4.49-2.85,8.76-6.11,12.19-9.59,0,0,6.85,5.85,26.4,6.89,3.12.16,6.56.21,10.34.09-1.06,5.42-2.37,10.22-3.55,14.01Z"/>
      <path class="cls-2" d="m151.06,139.39l-.03.62c-19.55-1.04-26.4-6.89-26.4-6.89,2.42-2.45,4.43-5,5.84-7.58.59-1.1,1.08-2.2,1.43-3.31,3.25,5.02,11.97,14.63,16.25,16.55.77.35,1.77.55,2.91.62Z"/>
      <path class="cls-4" d="m139.78,42.8l4.98,1.87c-1.17,2.18-2.25,4.12-3.28,5.84-2.84,4.76-5.34,7.84-8.76,9.74-2.42,1.35-6.92,3.11-11.87,2.63-.71-.06-1.43-.17-2.16-.34-3.87-.89-5.64-3.12-6.38-4.49-.36-.67-.49-1.13-.49-1.13,1.77.08,3.58-.27,5.28-.84,2.33,3.35,12.37,3.58,16.44-1.3,4.06-4.87,5.48-8.01,5.48-8.01.53-2.55.75-3.98.75-3.98Z"/>
      <path class="cls-7" d="m139.78,42.8s-.23,1.43-.75,3.98c-2.32-.22-11.29-6.49-12.71-7.83.61-.65.92-1.73,1.06-2.37.23-1.02-.85-4.63-1.62-5.52-.78-.89-3.25-1.41-3.86,1.2-.49,2.09-2.93,1.22-3.6.11-.66-1.1-4.76-9.09-5.76-10.97s-2.1-1.33-2.1-1.33c0,0-2.66,2-6.87,3.21-4.21,1.22-7.53,0-7.53,0-1.19-.3,6.5-7.64,7.53-8.68.22-.21.38-.53.5-.9h-2.66v-1.82h3c.07-1.01,0-1.93-.06-2.14-.15-.44-2.03-2.55-3.91-4.43s-1.19-2.85-.19-3.73,2.62-1.29,4.21-.85c1.59.45,4.22,2.07,4.76,2.07.44-2.44,2.66-2.44,4.22-2.22,1.54.23,10.52,3.32,14.01,9.53s8.03,17.73,8.36,19.83c.34,2.1,1.22,7.09,1,8.09-.15.69-.83.59-1.4.31-.24-.13-.47-.29-.6-.42,0-1.22-6.09-18.61-8.19-22.49-.72-1.33-1.97-2.95-3.38-4.54-2.69-3.04-5.99-5.95-7.37-6.54-2.1-.89-2.43.56-2.43.56v4.55l2.1,1.99h7.2v2.11h-6.32s6.98,7.53,9.78,11.19c2.79,3.66,4.29,9.31,3.96,12.63,0,0,1.19.77,3.28,1.98,1.62.94,3.79,2.14,6.36,3.45Z"/>
      <path class="cls-8" d="m117.1,56.1c-1.7.57-3.51.92-5.28.84-6.43-.3-11.67-9.74-14.85-15.58-3.18-5.83-3.11-15.8-.96-18.06,0,0,3.32,1.22,7.53,0,4.21-1.21,6.87-3.21,6.87-3.21,0,0,1.1-.56,2.1,1.33s5.1,9.87,5.76,10.97c.67,1.11,3.12,1.98,3.6-.11.61-2.6,3.08-2.08,3.86-1.2.77.89,1.85,4.49,1.62,5.52-.14.64-.45,1.72-1.06,2.37-.05-.04-.1-.1-.13-.13l-1.28.7c.59.07,1.05-.17,1.41-.57,1.42,1.34,10.4,7.61,12.71,7.83,0,0-1.42,3.14-5.48,8.01-4.06,4.88-14.11,4.65-16.44,1.3Zm-2.33-21.01c0-.38-.31-.69-.69-.69s-.69.31-.69.69.31.69.69.69.69-.31.69-.69Zm-2.68,14.99c.11-.15.16-.28.12-.39-.13-.36-1.13-.32-2.22.08-1.09.41-1.87,1.02-1.74,1.38.05.14.24.22.52.23h0s1.28,1.74,2.32,1.11c1.04-.62,1.01-2.41,1.01-2.41Zm-9.47-10.89c0-.38-.31-.69-.69-.69s-.69.31-.69.69.31.69.69.69.69-.31.69-.69Z"/>
      <path class="cls-4" d="m112.44,142.71c-6.83,4.33-14.17,7.68-19.89,9.32-1.13.33-2.2.59-3.18.77-12.56,2.36-14.33-.74-16.1-6.06-1.52.17-2.94.24-4.29.24-4.72-3.79-7.53-8.33-7.09-9.9,2.97-1.7,6.19-3.87,9.64-6.55,1.52-1.18,3.05-2.51,4.59-3.93l.1.11,7.83,9.02s18.3-8.04,25.13-9.99c.86-.25,1.54-.4,1.97-.43,3.91-.23,18.76,0,18.76,0l.56.21c-1.41,2.59-3.42,5.14-5.84,7.58-3.44,3.48-7.71,6.74-12.19,9.59Z"/>
      <path class="cls-4" d="m120.85,62.89v.06c-.87,0-8.85,10.93-9.58,12.45h0c-.22-7.52-.67-15.35-1.28-17.19l2.33-.15c.74,1.36,2.51,3.59,6.38,4.49.73.16,1.45.28,2.16.34Z"/>
      <path class="cls-4" d="m127.01,153.93c-14.65,2.91-34.46-1.9-34.46-1.9,5.72-1.64,13.06-4.99,19.89-9.32,3.89,4.97,8.94,8.5,14.57,11.22Z"/>
      <circle class="cls-5" cx="114.07" cy="35.09" r=".69"/>
      <path class="cls-1" d="m112.21,49.69c.04.11,0,.24-.12.39-.26.32-.87.7-1.62.99-.66.24-1.28.35-1.7.31-.28-.02-.47-.1-.52-.23-.13-.36.65-.97,1.74-1.38,1.09-.4,2.09-.43,2.22-.08Z"/>
      <path class="cls-1" d="m112.09,50.08s.03,1.79-1.01,2.41c-1.03.63-2.32-1.1-2.32-1.1h0c.42.03,1.04-.08,1.7-.32.75-.29,1.36-.67,1.62-.99Z"/>
      <path class="cls-4" d="m42.71,126.33c1.11-4.18,2.56-8.26,3.57-11.31,2.44-7.43,14.07-15.73,24.29-21.7l.06.03c.73-1.37,1.46-2.75,2.14-4.1,2.13-4.17,3.94-8.05,4.79-10.61,2.86-8.62,6.65-11.37,10.33-14.03,3.7-2.66,10.2-5.02,16.76-6.07l5.32-.33c.62,1.84,1.07,9.67,1.28,17.19.22,7.34.21,14.4-.1,15.32-3.7-.86-16.84-1.77-20.9.77,1.74,1.99,6.58,3.97,9.95,4.1l-.02.33c-18.83,16.4-26.18,25.37-38.29,33.08-8.43,5.37-19.49,13.26-19.49,13.26-2.16-3.72-1.28-9.94.3-15.94Z"/>
      <path class="cls-4" d="m109.19,125.74h0c-6.83,1.95-25.13,10-25.13,10l-7.83-9.02-.1-.11c.25-.23.51-.48.77-.73l.15.16s16.08,1.12,29.04-.9c1.14.31,2.19.53,3.1.62Z"/>
      <path class="cls-2" d="m111.16,90.73c-2.14,2.01-5.99,3.97-9.23,4.74-.5.12-1.08.16-1.72.14-3.38-.13-8.21-2.12-9.95-4.1,4.06-2.54,17.21-1.63,20.9-.77Z"/>
      <circle class="cls-5" cx="101.92" cy="39.19" r=".69"/>
      <path class="cls-4" d="m87.1,116.88s11.44,6.2,18.99,8.25c-12.96,2.02-29.04.9-29.04.9l-.15-.16c3.18-3.01,6.32-6.43,9.22-9.85l.99.85Z"/>
      <path class="cls-2" d="m100.19,95.94c-.35,1.75-6.33,10.93-14.07,20.09-2.9,3.42-6.04,6.84-9.22,9.85-.26.25-.52.49-.77.73-1.54,1.42-3.07,2.75-4.59,3.93-3.45,2.68-6.67,4.85-9.64,6.55-3.46,2-6.59,3.38-9.38,4.25-4.1,1.28-7.47,1.48-10.11.94,0,0,11.06-7.89,19.49-13.26,12.11-7.71,19.46-16.68,38.29-33.08Z"/>
      <path class="cls-3" d="m72.64,89.19l.13.07c-.69,1.35-1.41,2.72-2.14,4.1l-.06-.03c-10.21,5.97-21.85,14.27-24.29,21.7-1.01,3.05-2.46,7.12-3.57,11.31-6.91-8.3-3.12-23.75,2.5-29.22s18.17-8.42,27.43-7.92Z"/>
      <path class="cls-4" d="m61.89,137.09c-.44,1.57,2.37,6.11,7.09,9.9-11.44-.02-16.47-5.65-16.47-5.65,2.79-.88,5.92-2.26,9.38-4.25Z"/>
    </g>
    <g>
      <path class="cls-11" d="m96.01,23.3c-2.14,2.26-2.21,12.23.96,18.06,3.18,5.84,8.42,15.29,14.85,15.58,1.77.08,3.58-.27,5.28-.84,4.45-1.49,8.16-4.48,8.53-5.07"/>
      <path class="cls-11" d="m103.4,34.86c.52,3.7,1.41,11.9,3.11,11.6,1.62-.37,1.85-.82,1.85-.82"/>
      <line class="cls-11" x1="110.06" y1="35.38" x2="114.55" y2="34.2"/>
      <line class="cls-11" x1="98.24" y1="39.73" x2="102.15" y2="38.11"/>
      <line class="cls-11" x1="95.89" y1="33.38" x2="100.6" y2="32.2"/>
      <path class="cls-11" d="m107.24,30.5s4.73-1.92,5.83-2.14"/>
      <path class="cls-11" d="m117.1,56.1c2.33,3.35,12.37,3.58,16.44-1.3,4.06-4.87,5.48-8.01,5.48-8.01"/>
      <path class="cls-11" d="m139.78,42.8l4.98,1.87c-1.17,2.18-2.25,4.12-3.28,5.84-2.84,4.76-5.34,7.84-8.76,9.74-2.42,1.35-6.92,3.11-11.87,2.63-.71-.06-1.43-.17-2.16-.34-3.87-.89-5.64-3.12-6.38-4.49-.36-.67-.49-1.13-.49-1.13"/>
      <path class="cls-11" d="m144.76,44.68s16.11.15,19.35.89c3.25.75,7.68,4.17,8.86,7.33.95,2.51,3.18,5.15,2.22,7.91-.25.71-.72,1.43-1.48,2.17-3.69,3.56-29.17,26.57-28.73,41.04"/>
      <path class="cls-11" d="m175.18,60.8h0c.21.52,7.98,19.11,9.68,23.48.51,1.32,1.58,3.36,2.83,5.56,2.92,5.16,6.84,11.25,6.84,11.25"/>
      <path class="cls-11" d="m187.69,89.85s14.15,4.12,24.27,11.25"/>
      <path class="cls-11" d="m177.55,79.02s-20.97,13.81-26.95,24.74"/>
      <path class="cls-11" d="m147.19,65.5s9.09-8.42,11.74-10.63c2.22,5.98,2.44,9.09,2.44,9.09-8.2,6.86-21.42,18.69-20.76,41.14"/>
      <path class="cls-11" d="m141.48,50.52l4.61,2.38s-2.79,5.11-4.61,10.08c-1.81,4.96-8.23,28.52-7.35,38.12"/>
      <path class="cls-11" d="m112.31,58.07l-2.33.15-5.32.33c-6.57,1.05-13.07,3.42-16.76,6.07-3.69,2.66-7.47,5.41-10.33,14.03-.85,2.56-2.66,6.45-4.79,10.61-.69,1.35-1.41,2.72-2.14,4.1-4.5,8.4-9.48,16.61-10.06,16.61"/>
      <path class="cls-11" d="m101.19,66.98s-8.42,23.05-10.93,24.52c4.06-2.54,17.21-1.63,20.9-.77.31-.93.32-7.98.1-15.32-.22-7.52-.67-15.35-1.28-17.19"/>
      <path class="cls-11" d="m70.56,93.33c-10.21,5.97-21.85,14.27-24.29,21.7-1.01,3.05-2.46,7.12-3.57,11.31-1.58,6-2.46,12.22-.3,15.94,2.64.54,6.01.35,10.11-.94,2.79-.88,5.92-2.26,9.38-4.25,2.97-1.7,6.19-3.87,9.64-6.55,1.52-1.18,3.05-2.51,4.59-3.93.25-.23.51-.48.77-.73,3.18-3.01,6.32-6.43,9.22-9.85,7.74-9.15,13.73-18.34,14.07-20.09-18.83,16.4-26.18,25.37-38.29,33.08-8.43,5.37-19.49,13.26-19.49,13.26"/>
      <path class="cls-11" d="m87.1,116.88s11.44,6.2,18.99,8.25c1.14.31,2.19.53,3.1.62"/>
      <path class="cls-11" d="m76.23,126.72l7.83,9.02s18.3-8.04,25.13-9.99c.86-.25,1.54-.4,1.97-.43,3.91-.23,18.76,0,18.76,0"/>
      <path class="cls-11" d="m77.05,126.03s16.08,1.12,29.04-.9"/>
      <path class="cls-11" d="m72.64,89.19c-9.26-.49-21.82,2.46-27.43,7.92s-9.41,20.92-2.5,29.22h0"/>
      <path class="cls-11" d="m68.98,146.99c-4.72-3.79-7.53-8.33-7.09-9.9"/>
      <path class="cls-11" d="m131.9,122.22c3.25,5.02,11.97,14.63,16.25,16.55.77.35,1.77.55,2.91.62,5.15.35,13.08-1.78,15.26-3.65.81-.69,3.62-3.18,7.32-6.41,2.85-2.48,6.24-5.41,9.65-8.3,6.72-5.68,13.53-11.2,16.54-12.83.55-.3,1.11-.61,1.68-.94,3.35-1.91,7.05-4.23,10.52-6.04,2.99-1.56,5.8-2.72,8.06-2.92,5.32-.44,11.82,1.18,12.26,8.56.23,3.93.26,9.2-.9,14.45-1.02,4.62-2.96,9.22-6.48,12.88-.51.54-1.04,1.05-1.58,1.55-3.05,2.85-6.43,5.09-9.97,6.81-4.89,2.37-10.07,3.71-15.19,4.19-3.65.56-16.9.86-18.21.89h-.1c-.27.15-.52.29-.78.43-10.47,5.66-13.06,6.6-21.3,6.06-.03,0-.07,0-.1,0"/>
      <path class="cls-11" d="m124.63,133.12s6.85,5.85,26.4,6.89c3.12.16,6.56.21,10.34.09-1.06,5.42-2.37,10.22-3.55,14.01-1.72,5.51-3.17,8.88-3.17,8.88-9.22-2.66-19.11-4.93-27.65-9.06-5.63-2.72-10.68-6.25-14.57-11.22-.05-.05-.09-.1-.13-.16"/>
      <path class="cls-11" d="m200.59,128.13s-9.05,13.74-20.57,19.5c-.3.15-.59.29-.89.43"/>
      <path class="cls-11" d="m201.47,140.39c2.66-.74,7.09.15,7.09.15,0,0,.6-3.84,0-11.52-2.36,4.14-11.94,11.45-13.29,12.7-1.48,1.37-6.95,3.22-10.07,2.71"/>
      <path class="cls-11" d="m143.65,116.88s22.7,2.25,33.2.98"/>
      <path class="cls-11" d="m173.64,129.33s2.26-10.2,2.8-10.87c.11-.14.25-.36.42-.6h0c.64-.96,1.68-2.38,2.96-.98,1.61,1.75,3.46,4.15,3.46,4.15"/>
      <path class="cls-11" d="m201.51,107.25c-19.52-1.28-35.33-3.05-45.23-3.34-2-.06-3.89-.14-5.68-.15-2-.02-3.87.03-5.62.26-4.49.59-8.23,2.33-11.29,6.9-.78,3.31-1.93,8.94-1.78,11.3-.36,1.11-.84,2.21-1.43,3.31-1.41,2.59-3.42,5.14-5.84,7.58-3.44,3.48-7.71,6.74-12.19,9.59-6.83,4.33-14.17,7.68-19.89,9.32-1.13.33-2.2.59-3.18.77-12.56,2.36-14.33-.74-16.1-6.06-1.52.17-2.94.24-4.29.24-11.44-.02-16.47-5.65-16.47-5.65"/>
      <path class="cls-11" d="m92.55,152.03s19.81,4.81,34.46,1.9"/>
      <path class="cls-11" d="m120.9,62.98s-.03-.03-.06-.03c-.86,0-8.84,10.93-9.57,12.45"/>
      <path class="cls-11" d="m126.18,38.83l-1.28.7c.59.07,1.05-.17,1.41-.57-.05-.04-.1-.1-.13-.13Z"/>
      <path class="cls-11" d="m139.78,42.8c-2.57-1.31-4.74-2.52-6.36-3.45-2.09-1.21-3.28-1.98-3.28-1.98.33-3.32-1.16-8.97-3.96-12.63-2.8-3.65-9.78-11.19-9.78-11.19h6.32v-2.11h-7.2l-2.1-1.99v-4.55s.33-1.44,2.43-.56c1.38.59,4.68,3.51,7.37,6.54,1.41,1.59,2.66,3.21,3.38,4.54,2.1,3.88,8.19,21.27,8.19,22.49.13.13.36.29.6.42.56.28,1.25.38,1.4-.31.23-1-.66-5.99-1-8.09-.33-2.1-4.86-13.62-8.36-19.83S114.96.81,113.41.59c-1.55-.22-3.77-.22-4.22,2.22-.55,0-3.18-1.62-4.76-2.07-1.59-.44-3.21-.03-4.21.85s-1.69,1.85.19,3.73,3.77,3.99,3.91,4.43c.07.22.13,1.14.06,2.14h-3v1.82h2.66c-.12.37-.29.69-.5.9-1.03,1.04-8.72,8.37-7.53,8.68,0,0,3.32,1.22,7.53,0,4.21-1.21,6.87-3.21,6.87-3.21,0,0,1.1-.56,2.1,1.33s5.1,9.87,5.76,10.97c.67,1.11,3.12,1.98,3.6-.11.61-2.6,3.08-2.08,3.86-1.2.77.89,1.85,4.49,1.62,5.52-.14.64-.45,1.72-1.06,2.37,1.42,1.34,10.4,7.61,12.71,7.83.53-2.55.75-3.98.75-3.98Z"/>
      <path class="cls-10" d="m231.44,121.31s6.14,11.99,5.93,15.32c-.23,3.32-6.43,5.66-13.63,5.93-7.19.28-10.33,0-10.33,0"/>
      <path class="cls-10" d="m223.38,135.74s12.32-.89,13.99.89"/>
      <path class="cls-11" d="m108.76,51.38c-.28-.02-.47-.1-.52-.23-.13-.36.65-.97,1.74-1.38,1.09-.4,2.09-.43,2.22-.08.04.11,0,.24-.12.39-.26.32-.87.7-1.62.99-.66.24-1.28.35-1.7.31Z"/>
      <path class="cls-11" d="m108.76,51.39s1.28,1.74,2.32,1.1c1.04-.62,1.01-2.41,1.01-2.41"/>
      <path class="cls-11" d="m90.25,91.5c1.74,1.99,6.58,3.97,9.95,4.1.63.03,1.21-.02,1.72-.14,3.25-.77,7.09-2.72,9.23-4.74"/>
    </g>
  </g>
</svg>