<svg version="1.1" id="レイヤー_1" xmlns="http://www.w3.org/2000/svg" x="0" y="0" viewBox="0 0 270.3 235.9" style="enable-background:new 0 0 270.3 235.9" xml:space="preserve"><style>.st0{fill:#f3edd7}.st1{fill:#333}.st3{fill:none;stroke:#000;stroke-miterlimit:10}.st4{fill:#b8c0bc}.st5{fill:#cacac4}.st6{fill:#816999}.st7{stroke:#000;stroke-linecap:round;stroke-linejoin:round}.st7,.st8{fill:#a23031}.st10,.st11{fill:none;stroke:#000;stroke-linecap:round;stroke-linejoin:round}.st11{stroke-width:.5}</style><g id="_レイヤー_3"><path class="st0" d="M.2 201.2h3.6v5H.2zM270.1 228.8v6.6h-30.4l15.4-8.6c1 1.6 3.1 2.7 5.5 2.7s4.6-1.2 5.6-2.9l3.9 2.2z"/><path class="st0" d="M270.1 218.2v10.6l-4-2.2c.4-.6.6-1.4.6-2.1 0-1.3-.6-2.5-1.6-3.4l5-2.9zM270.1 206.2v12l-5 2.8c-1.1-1-2.8-1.6-4.6-1.6s-3.3.6-4.4 1.5L230 206.2h40.1zM270.1 110.1v5.8H.2v-5.8zM266.1 201.2h4v5h-4z"/><path class="st0" d="M266.7 224.4c0 .8-.2 1.5-.6 2.1l-5.4-3.1 4.4-2.5c1 1 1.6 2.2 1.6 3.5zM260.7 223.5l5.4 3.1c-1 1.7-3.1 2.9-5.6 2.9s-4.5-1.1-5.5-2.7l5.7-3.3z"/><path class="st1" d="M254.8 201.2h11.3v5h-11.3z"/><path class="st0" d="m265.1 221.1-4.4 2.5-4.6-2.6c1.1-.9 2.7-1.5 4.4-1.5 1.8-.1 3.4.5 4.6 1.6z"/><path class="st0" d="m260.7 223.5-5.7 3.2c-.4-.7-.7-1.5-.7-2.3 0-1.4.7-2.6 1.8-3.5l4.6 2.6z"/><path class="st0" d="m230 206.2 26.1 14.7c-1.1.9-1.8 2.1-1.8 3.5 0 .8.2 1.6.7 2.3l-15.4 8.6h-41.5l-15.6-8.8c.4-.6.6-1.4.6-2.1 0-1.3-.6-2.5-1.6-3.4l26.3-14.8H230zm-6 18.2c0-2.8-2.2-5-5-5s-5 2.2-5 5 2.2 5 5 5 5-2.2 5-5z"/><path class="st0" d="M254.8 206.2h-30.6v-5h30.6z"/><path class="st1" d="M212.9 201.2h11.3v5h-11.3zM219 219.4c2.8 0 5 2.2 5 5s-2.2 5-5 5-5-2.2-5-5 2.2-5 5-5z"/><path class="st0" d="M207.8 206.2 181.5 221c-1.1-1-2.8-1.6-4.6-1.6s-3.3.6-4.4 1.5l-26.1-14.7h61.4zM182.4 206.2v-5h30.5v5h-5.1zM198.1 235.4H156l15.4-8.6c1 1.6 3.1 2.7 5.5 2.7s4.6-1.2 5.6-2.9l15.6 8.8z"/><path class="st0" d="M183.1 224.4c0 .8-.2 1.5-.6 2.1l-5.4-3.1 4.4-2.5c1 1 1.6 2.2 1.6 3.5zM177.1 223.5l5.4 3.1c-1 1.7-3.1 2.9-5.6 2.9s-4.5-1.1-5.5-2.7l5.7-3.3z"/><path class="st1" d="M171.1 201.2h11.3v5h-11.3z"/><path class="st0" d="M176.9 219.4c1.8 0 3.5.6 4.6 1.6l-4.4 2.5-4.6-2.6c1.1-.9 2.6-1.5 4.4-1.5z"/><path class="st0" d="m177.1 223.5-5.7 3.2c-.4-.7-.7-1.5-.7-2.3 0-1.4.7-2.6 1.8-3.5l4.6 2.6z"/><path class="st0" d="m146.4 206.2 26.1 14.7c-1.1.9-1.8 2.1-1.8 3.5 0 .8.2 1.6.7 2.3l-15.4 8.6h-41.5l-15.6-8.8c.4-.6.6-1.4.6-2.1 0-1.3-.6-2.5-1.6-3.4l26.3-14.8h22.2zm-7 18.2c0-2.8-2.2-5-5-5s-5 2.2-5 5 2.2 5 5 5 5-2.2 5-5z"/><path class="st0" d="M171.1 206.2h-30.5v-5h30.5z"/><path class="st1" d="M129.3 201.2h11.3v5h-11.3zM134.3 219.4c2.8 0 5 2.2 5 5s-2.2 5-5 5-5-2.2-5-5 2.3-5 5-5z"/><path class="st0" d="M124.2 206.2 97.9 221c-1.1-1-2.8-1.6-4.6-1.6s-3.3.6-4.4 1.5l-26.1-14.7h61.4zM129.3 206.2H98.8v-5h30.5zM114.6 235.4H72.4l15.3-8.6c1 1.6 3.1 2.7 5.5 2.7s4.6-1.2 5.6-2.9l15.8 8.8z"/><path class="st0" d="M99.5 224.4c0 .8-.2 1.5-.6 2.1l-5.4-3.1 4.4-2.5c1 1 1.6 2.2 1.6 3.5zM93.5 223.5l5.4 3.1c-1 1.7-3.1 2.9-5.6 2.9s-4.5-1.1-5.5-2.7c0-.1 5.7-3.3 5.7-3.3z"/><path class="st1" d="M87.5 201.2h11.3v5H87.5z"/><path class="st0" d="M93.3 219.4c1.8 0 3.5.6 4.6 1.6l-4.4 2.5-4.6-2.6c1.1-.9 2.7-1.5 4.4-1.5z"/><path class="st0" d="m93.5 223.5-5.7 3.2c-.4-.7-.7-1.5-.7-2.3 0-1.4.7-2.6 1.8-3.5l4.6 2.6z"/><path class="st0" d="m62.8 206.2 26.1 14.7c-1.1.9-1.8 2.1-1.8 3.5 0 .8.2 1.6.7 2.3l-15.3 8.6H30.8l-15.6-8.8c.4-.6.6-1.4.6-2.1 0-1.3-.6-2.5-1.6-3.4l26.3-14.8h22.3zm-8.5 18.2c0-2.8-2.2-5-5-5s-5 2.2-5 5 2.2 5 5 5 5-2.2 5-5z"/><path class="st0" d="M87.5 206.2H57v-5h30.5z"/><path class="st1" d="M45.7 201.2H57v5H45.7zM49.2 219.4c2.8 0 5 2.2 5 5s-2.2 5-5 5-5-2.2-5-5 2.3-5 5-5z"/><path class="st0" d="M45.7 206.2H15.2v-5h30.5zM30.8 235.4H.2v-6.5l3.8-2.1c1 1.6 3.1 2.7 5.5 2.7s4.6-1.2 5.6-2.9l15.7 8.8zM15.7 224.4c0 .8-.2 1.5-.6 2.1l-5.4-3.1 4.4-2.5c1 1 1.6 2.2 1.6 3.5z"/><path class="st1" d="M3.9 201.2h11.3v5H3.9z"/><path class="st0" d="m9.7 223.5 5.4 3.1c-1 1.7-3.1 2.9-5.6 2.9S5 228.4 4 226.7l5.7-3.2zM9.5 219.4c1.8 0 3.5.6 4.6 1.6l-4.4 2.5-4.6-2.6c1.1-.9 2.7-1.5 4.4-1.5z"/><path class="st0" d="M9.7 223.5 4 226.7c-.4-.7-.7-1.5-.7-2.3 0-1.4.7-2.6 1.8-3.5l4.6 2.6zM.2 218.2l4.8 2.7c-1.1.9-1.8 2.1-1.8 3.5 0 .8.2 1.6.7 2.3l-3.8 2.1.1-10.6z"/><path style="fill:#d2d296" d="M212.9 201.2H.2v-85.3h269.9v85.3H224.2z"/><path class="st0" d="M.2 206.2h40.2L14.1 221c-1.1-1-2.8-1.6-4.6-1.6s-3.3.6-4.4 1.5l-4.8-2.7-.1-12z"/><path class="st3" d="M270.1 235.4H.2M.2 110.1h269.9M.2 115.9h269.9M266.1 201.2h4M224.2 201.2h30.6M182.4 201.2h30.5M140.6 201.2h30.5M98.8 201.2h30.5M57 201.2h30.5M15.2 201.2h30.5M.2 201.2h3.7M266.1 206.2h4M224.2 206.2h30.6M182.4 206.2h30.5M140.6 206.2h30.5M98.8 206.2h30.5M57 206.2h30.5M15.2 206.2h30.5M.2 206.2h3.7M72.4 235.4l15.4-8.7 5.7-3.2 4.4-2.4 26.3-14.9"/><path class="st3" d="m114.6 235.4-15.7-8.8-5.4-3.1-4.6-2.6-26.1-14.7M139.4 224.4c0 2.8-2.2 5-5 5s-5-2.2-5-5 2.2-5 5-5 5 2.2 5 5zM224 224.4c0 2.8-2.2 5-5 5s-5-2.2-5-5 2.2-5 5-5 5 2.2 5 5z"/><path class="st3" d="M97.9 221.1c1 .9 1.6 2.1 1.6 3.4 0 .8-.2 1.5-.6 2.1-1 1.7-3.1 2.9-5.6 2.9s-4.5-1.1-5.5-2.7c-.4-.7-.7-1.5-.7-2.3 0-1.4.7-2.6 1.8-3.5 1.1-.9 2.7-1.5 4.4-1.5 1.8-.1 3.5.5 4.6 1.6zM.2 228.8l3.8-2.1 5.7-3.2 4.4-2.4 26.3-14.9"/><path class="st3" d="m30.8 235.4-15.7-8.8-5.4-3.1-4.6-2.6-4.9-2.7"/><path class="st3" d="M14.1 221.1c1 .9 1.6 2.1 1.6 3.4 0 .8-.2 1.5-.6 2.1-1 1.7-3.1 2.9-5.6 2.9S5 228.3 4 226.7c-.4-.7-.7-1.5-.7-2.3 0-1.4.7-2.6 1.8-3.5 1.1-.9 2.7-1.5 4.4-1.5 1.8 0 3.5.6 4.6 1.7zM156 235.4l15.4-8.7 5.7-3.2 4.4-2.4 26.3-14.9"/><path class="st3" d="m198.1 235.4-15.6-8.8-5.4-3.1-4.7-2.6-26-14.7"/><path class="st3" d="M181.5 221.1c1 .9 1.6 2.1 1.6 3.4 0 .8-.2 1.5-.6 2.1-1 1.7-3.1 2.9-5.6 2.9s-4.5-1.1-5.5-2.7c-.4-.7-.7-1.5-.7-2.3 0-1.4.7-2.6 1.8-3.5 1.1-.9 2.7-1.5 4.4-1.5 1.8-.1 3.5.5 4.6 1.6zM239.6 235.4l15.4-8.7 5.7-3.2 4.4-2.4 5-2.9"/><path class="st3" d="m270.1 228.8-4-2.2-5.4-3.1-4.7-2.6-26-14.7"/><path class="st3" d="M265.1 221.1c1 .9 1.6 2.1 1.6 3.4 0 .8-.2 1.5-.6 2.1-1 1.7-3.1 2.9-5.6 2.9s-4.5-1.1-5.5-2.7c-.4-.7-.7-1.5-.7-2.3 0-1.4.7-2.6 1.8-3.5 1.1-.9 2.7-1.5 4.4-1.5 1.8-.1 3.4.5 4.6 1.6zM54.2 224.4c0 2.8-2.2 5-5 5s-5-2.2-5-5 2.2-5 5-5 5 2.2 5 5zM3.9 201.2h11.3v5H3.9zM45.7 201.2H57v5H45.7zM87.5 201.2h11.3v5H87.5zM129.3 201.2h11.3v5h-11.3zM171.1 201.2h11.3v5h-11.3zM212.9 201.2h11.3v5h-11.3zM254.8 201.2h11.3v5h-11.3z"/></g><g id="_レイヤー_2"><path class="st4" d="M206.1 109.6c-2.2 1.3-4.6 2.9-6.6 4.3-.4-.4-1.4-1.6-2.6-3.1l2-2.9s6.2 1 7.1 1.4l.1.3z"/><path class="st5" d="M183.1 150.4c-.8.4-9.2-2-9.7-3.9-.4-1.9.4-4.9-.7-5.7-1.5.2-11.6 9.6-14.7 14.1s-4.9 7.3-5.3 12.5c0 0-8.1-3.4-14.6-8.6-.7-.6-1.4-1.1-2-1.7-.9-.8-1.6-1.6-2.4-2.5-1-1.2-1.8-2.3-2.4-3.5-1.1-2-1.6-4-1.6-5.9 0-1 .2-2 .5-3 .3-.8.7-1.6 1.3-2.4 2.9-4.2 9.5-7.9 19-11.6 10-3.9 31.1-9.9 44.5-13.1l-.5 2.5c-1 5.4-3.3 17.8-4.1 20.5-.9 3.5-5.7 10.9-7.3 12.3z"/><path class="st5" d="M158 154.9c3.2-4.5 13.2-13.9 14.7-14.1 1.1.8.2 3.9.7 5.7s8.9 4.3 9.7 3.9c-11.3 8.4-24.1 16.3-30.4 17.1.3-5.3 2.1-8 5.3-12.6z"/><path class="st4" d="M145 54.2c2.1.5 3.9 1.2 5.2 2.2l-3 7.3c-2-.7-18.8 32.7-19.3 46.5-.4 13.5 2.4 28.1 2.5 28.9l1.1.7c-.6.8-1 1.6-1.3 2.4-.3 1-.5 2-.5 3h-.7c-11.2-7.8-5.5-45.6-4.8-54.5.6-7.4 6.8-27.6 8.8-34.3.4-1.4.7-2.2.7-2.2v-1.1c.6 0 1.3 0 2 .1 3.3.1 6.5.4 9.3 1z"/><path class="st1" d="M116.5 12.4c1.6-.7 5.1-2.7 7.8.5s6.9 8.2 7 14.3c.2 6 2.9 16.3 7.8 21.1 4.8 4.6 5.7 5.9 5.8 5.9-2.7-.7-6-1-9.2-1.1 0 0-7.1-10.1-8.8-13.6-1.7-3.5-4.5-19-5.1-20.2-.7-1.2-3.9 2.1-3.9 2.1-.2-1.2-.9-4.8-1.4-9z"/><path class="st6" d="m199.7 114.1-.2-.2c2-1.4 4.3-3 6.6-4.3 2.4-1.3 4.6-2.3 6.2-2.4 7.5-.9 16.8-3.5 25.4 3.7 8.6 7.2 8.8 12.6 9.2 19.1.4 6.5-2.9 29.9-16.1 35.8-5.6 11.9-13.6 23.7-49.4 17.4-16.8 10.4-27.3 10.8-38.1 5.6-5.1-3.4-9-6.3-11.1-10.2-1.2-2.2-1.8-4.7-1.7-7.7.2-8.4 5.6-13.6 5.6-13.6.6.6 1.3 1.1 2 1.7 6.5 5.2 14.6 8.6 14.6 8.6 6.3-.8 19-8.7 30.4-17.1 1.6-1.4 6.4-8.8 7.4-12.2.8-2.6 3.1-15.1 4.1-20.5.1-.1 2-1.6 4.5-3.5.2-.1.4-.1.6-.2z"/><path class="st4" d="m131.4 56.5-.4-3.4h2.8v1.1s-.3.8-.7 2.2h-1.7z"/><path class="st4" d="M131.4 151.2c-5.3 1.4-17.7-.9-24.1-2.2-2.4-.5-4-.9-4-.9l-1.2-8.9c-1.2-8.9-.9-28.3-.9-28.3 4.9-5.2 11.7-12.9 13.7-15.1 2.5-2.8 7.3-9.9 7.7-11.7 0 0-1.8-14.5-3.1-18.5 0 0 2.2-.2 4.7-1.6 2.5-1.4 7.2-7.5 7.2-7.5h1.7c-2.1 6.7-8.2 27-8.8 34.3-.8 8.9-6.4 46.7 4.8 54.5h.8c-.2 1.9.4 3.9 1.5 5.9z"/><path class="st4" d="M167.2 72.2c3.1 4.8 16.7 23.4 18.1 25.2 1 1.3 7.7 9 11.6 13.5 1.3 1.5 2.3 2.6 2.6 3.1-.2.1-.3.2-.5.3-1.2.3-2.6.6-4 .9-13.4 3.2-34.6 9.2-44.5 13.1-9.5 3.7-16 7.4-19 11.6l-1.1-.7c-.2-.8-3-15.4-2.5-28.9.5-13.9 17.3-47.2 19.3-46.5l3-7.3c3.8 2.9 13.8 10.9 17 15.7z"/><path class="st7" d="M123.8 46.5c.3.1 7.2 2.8 6.9 3.8-.3 1-3.3 3.2-5 3.8.8-1.4 1.2-2.9.9-3.8-.3-1.2-2.7-3.7-2.8-3.8z"/><path class="st4" d="M119.5 65.6c-.5-1.6-1.5-3.5-2.9-5.3 3.4-.5 6.4-3.1 8.1-4.8.4-.4.8-.9 1.1-1.4 1.7-.6 4.7-2.8 5-3.8l.3 2.8.4 3.4s-4.6 6-7.2 7.5c-2.6 1.4-4.8 1.6-4.8 1.6z"/><path class="st1" d="M110.2 1.4c2.2 1.8 5.4 4.8 6.1 10.2 0 .2.1.5.1.8.6 4.2 1.3 7.8 1.5 9 .1.3.1.4.1.4.7 1.9 1 4.1 1 4.1 1.3 1.2 4.7 9.7 5.1 11.6.4 1.9-.4 8.8-.4 8.8-1.2.5-2.4-.9-3.6-2 2.5.6 2.5-3 2.4-5.8s-2.6-3.9-4.4-3.9-2.6 1.9-1.7 4.7L115 39c-.9-1.2-2.1-8.4-2.2-11.1-1.9.9-16.6 1.3-16.6 1.3-.6-1.6-1.7-5.4 2.8-7 4.5-1.6 10.2-2 11.1-2-3.7-7.4-5.9-14.3-4.7-17.1 1.3-2.6 2.7-3.5 4.8-1.7z"/><path class="st8" d="M117.8 84.5c-.1.9-3.1 5.7-4.7 7.1-1.7 1.5-17.5 18.7-22 22.9-4.4 4.3-11.9 11.4-14.2 12.4-2.3 1-12.4.5-18.7 0 0 0 1.2-1.5 6.4-4s21.3-10.9 25.2-13.7c1.7-1.2 3.7-3 5.7-5 2.6-2.6 5.4-5.6 8.1-8.5 4.8-5.1 2.9-8.5 2.9-8.5 2.7-.8 7.1-2 11.3-2.7z"/><path class="st1" d="M106.3 42.2c-.3 0-.6-.3-.6-.6s.3-.6.6-.6.6.3.6.6-.3.6-.6.6z"/><path class="st8" d="M102.5 52.6c0-.4.3-.7.7-.8 1.1-.3 2.8-.8 2.9-.3 0 .3.1.7.1 1.1h-1.4s-.4-.4-.6 0c-.3.4-1.6 0-1.7 0z"/><path class="st8" d="M102.7 53.2c-.1-.2-.2-.4-.2-.6.1 0 1.4.4 1.6 0 .2-.4.6 0 .6 0h1.4c-.1.6-.3 1.1-1.3 1.2-1.1.2-1.7 0-2.1-.6z"/><path class="st4" d="M103.3 148.1c-1.8 1.2-17.8-4-20-6.1s-3.1-11.8-3.1-11.8c.5-.2.8-.4 1-.6 1-1.1 12.4-11.3 16.9-15.6.9-.8 1.9-1.9 3.1-3.1 0 0-.2 19.4.9 28.3.1 0 1.2 8.9 1.2 8.9zM96.6 56.3c.6.9 1.4 1.4 2.5 1.6-4.3 3.9-8.9 10.5-13.9 17.1-.8 1.2-1.8 2.4-2.9 3.6l-1 .1c-3.7 1-7.2 2.4-10.6 4 .2-.3 5.5-8.6 7.1-11 1.7-2.4 8.1-12 11.2-13.3 3.2-1.3 7.3-2 7.3-2l.3-.1z"/><path class="st1" d="M95.7 42.6c0-.3.3-.6.6-.6s.6.3.6.6-.3.6-.6.6-.6-.3-.6-.6z"/><path class="st8" d="M106.7 87.2s1.9 3.4-2.9 8.5c-2.7 2.9-5.5 5.9-8.1 8.5l-.6-.5s.4-4 .4-5.2-1.6-3.6-2.6-6.3c-.3-.8-.3-1.5-.3-2 3.2 0 10.5-1.8 12.3-2.5.4 0 1-.2 1.8-.5z"/><path d="M95.7 42.6c0 .3.3.6.6.6s.6-.3.6-.6-.3-.6-.6-.6-.6.2-.6.6zm10-1.1c0 .3.3.6.6.6s.6-.3.6-.6-.3-.6-.6-.6-.6.3-.6.6zm-3.2 11.1c0 .2 0 .4.2.6.4.6 1.1.8 2.2.6.9-.2 1.2-.7 1.3-1.2.1-.4 0-.8-.1-1.1-.1-.5-1.8-.1-2.9.3-.4.1-.7.4-.7.8zM113 28c.2 2.7 1.3 10 2.2 11.1l1.4.3c-.9-2.8-.1-4.7 1.7-4.7s4.3 1.1 4.4 3.9.1 6.3-2.4 5.8c1.2 1.1 2.4 2.5 3.6 2 .2.2 2.6 2.7 2.8 3.8.2.9-.1 2.4-.9 3.8-.3.5-.6.9-1.1 1.4-1.7 1.7-4.7 4.3-8.1 4.8-2.2-2.7-5.3-5.2-9.3-5.9-2.6-.5-5.3 1-8.2 3.6-1.1-.2-1.9-.7-2.5-1.6-1.8-2.6-1.6-8.2-2-14.6-.7-5.3 1.8-12.3 1.8-12.3S111.1 29 113 28z" style="fill:#f8ddc0"/><path class="st4" d="M95.7 104.3c-2 2-4 3.8-5.7 5-4 2.8-20 11.2-25.2 13.7s-6.4 4-6.4 4c6.3.5 16.3 1 18.7 0 2.3-1 9.7-8.1 14.2-12.4 4.5-4.3 20.3-21.4 22-22.9 1.7-1.5 4.6-6.2 4.7-7.1-4.2.7-8.6 2-11.1 2.8-.8.2-1.4.5-1.7.6-1.8.7-9.1 2.4-12.3 2.5-.1.5-.1 1.2.3 2 1 2.6 2.6 5 2.6 6.3s-.4 5.2-.4 5.2l.3.3zm11.6-50c4 .7 7.1 3.2 9.3 5.9 1.4 1.8 2.4 3.7 2.9 5.3 1.3 4 3.1 18.5 3.1 18.5-.4 1.8-5.1 9-7.7 11.7-2 2.2-8.8 10-13.7 15.1-1.2 1.2-2.2 2.3-3.1 3.1-4.5 4.3-15.9 14.5-16.9 15.6-.2.2-.5.4-1 .6-2.7 1.1-10.2 2.7-17.9 3.2-9.1.6-24.1.4-24.1.4-.2-3.6-.3-6.9-.3-10 .1-11.6 2.2-19.2 8-24.2 5.5-4.7 14.4-11.8 24.9-16.8 3.4-1.6 6.9-3 10.6-4l1-.1c1.1-1.2 2.1-2.5 2.9-3.6 5-6.6 9.6-13.2 13.9-17.1 2.7-2.6 5.4-4 8.1-3.6zM83.3 142c2.2 2.1 18.2 7.3 20 6.1 0 0 1.6.4 4 .9-.4.1-14.4 3.4-24.2 4.5-.4-2.9.2-11.5.2-11.5z"/><path class="st5" d="M107.3 149c6.4 1.4 18.8 3.7 24.1 2.2.6 1.2 1.4 2.4 2.4 3.5.7.8 1.5 1.7 2.4 2.5 0 0-5.4 5.2-5.6 13.6-.1 3 .5 5.5 1.7 7.7-10.6 2.8-24.9 9.1-43.4 16-.5-.3-1-2.1-1.5-4.9-2-10.7-4-35.3-4-35.3-.1-.1-.2-.4-.2-.9 9.7-1.1 23.7-4.4 24.1-4.4z"/><path class="st4" d="M62.3 133.4c7.7-.5 15.2-2 17.9-3.2 0 0 1 9.6 3.1 11.8 0 0-.6 8.7-.2 11.5H83c-.7-2.1-15.3-16.7-20.7-20.1z"/><path class="st6" d="M62.3 133.4c5.4 3.5 20 18 20.7 20.1h.1c.1.5.1.8.2.9 0 0 2 24.5 4 35.3 0 0-.5 0-5-2.3-1.9-1-4.7-2.5-7.6-4.3-3.6 3.6-25.7 2.3-40.3-5.3-14.9-7.8-18-30.2-14.2-42.6s17.5-11.4 17.5-11.4c0 3.1.1 6.4.3 10 .2 0 15.2.1 24.3-.4z"/><path class="st10" d="M55.5 101.7s17.6-12.7 26.8-23c1.1-1.2 2.1-2.5 2.9-3.6 5-6.6 9.6-13.2 13.9-17.1 2.8-2.6 5.6-4.1 8.2-3.6 4 .7 7.1 3.2 9.3 5.9 1.4 1.8 2.4 3.7 2.9 5.3 1.3 4 3.1 18.5 3.1 18.5-1.5 0-3.2.2-4.9.4-4.2.7-8.6 2-11.1 2.8-.8.2-1.4.5-1.7.6-1.8.7-9.1 2.4-12.3 2.5h-.1"/><path class="st10" d="M107.6 60.3s-.8 8.8-2.8 12c-2 3.3-11.1 16.3-11.1 16.3s-.9.5-1.1 1.7c-.1.5-.1 1.2.3 2 1 2.6 2.6 5 2.6 6.3s-.4 5.2-.4 5.2"/><path class="st10" d="M106.7 87.2s1.9 3.4-2.9 8.5c-2.7 2.9-5.5 5.9-8.1 8.5-2 2-4 3.8-5.7 5-4 2.8-20 11.2-25.2 13.7s-6.4 4-6.4 4c6.3.5 16.3 1 18.7 0 2.3-1 9.7-8.1 14.2-12.4 4.5-4.3 20.3-21.5 21.9-22.9 1.7-1.5 4.6-6.2 4.7-7.1M70.6 82.8c3.4-1.6 6.9-3 10.6-4"/><path class="st10" d="M122.6 84c-.4 1.8-5.1 9-7.7 11.7-2 2.2-8.8 10-13.7 15.1-1.2 1.2-2.2 2.3-3.1 3.1-4.5 4.3-15.9 14.5-16.9 15.6-.2.2-.5.4-1 .6-2.7 1.1-10.2 2.7-17.9 3.2-9.1.6-24.1.4-24.1.4-.2-3.6-.3-6.9-.3-10 .1-11.6 2.2-19.2 8-24.2 5.5-4.7 14.4-11.8 24.9-16.8"/><path class="st10" d="M70.6 82.8h0c.2-.3 5.5-8.6 7.1-11 1.7-2.4 8.1-12 11.2-13.3 3.2-1.3 7.3-2 7.3-2M116.5 60.3h0c3.4-.5 6.4-3.1 8.1-4.8.4-.4.8-.9 1.1-1.4M123.8 46.5c.3.1 7.2 2.8 6.9 3.8-.3 1-3.3 3.2-5 3.8-.1 0-.3.1-.4.1"/><path class="st10" d="m130.7 50.3.3 2.8.4 3.4s-4.6 6-7.2 7.5-4.7 1.6-4.7 1.6M145 54.2c2.1.5 3.9 1.2 5.2 2.2 3.9 3 13.9 10.9 17 15.7 3.1 4.8 16.7 23.4 18.1 25.2 1 1.3 7.7 9 11.6 13.5 1.3 1.5 2.3 2.6 2.6 3.1l.2.2c-.2.1-.4.1-.6.1-1.2.3-2.6.6-4 .9-13.4 3.2-34.6 9.2-44.5 13.1-9.5 3.7-16 7.4-19 11.6-.6.8-1 1.6-1.3 2.4-.3 1-.5 2-.5 3 0 1.9.5 3.9 1.6 5.9.6 1.2 1.4 2.4 2.4 3.5.7.8 1.5 1.7 2.4 2.5.6.6 1.3 1.1 2 1.7 6.5 5.2 14.6 8.6 14.6 8.6.3-5.3 2.1-8 5.3-12.5s13.2-13.9 14.7-14.1c1.1.8.2 3.9.7 5.7s8.9 4.3 9.7 3.9c-11.3 8.4-24.1 16.3-30.4 17.1"/><path class="st10" d="M131 53.1h2.8c.6 0 1.3 0 2 .1 3.3.1 6.5.4 9.2 1.1M194.6 117.7c.3-1.6.5-2.5.5-2.5M183.1 150.4c1.6-1.4 6.4-8.8 7.4-12.2.8-2.6 3.1-15.1 4.1-20.5M196.9 110.9l2-2.9s6.2 1 7.1 1.4"/><path class="st10" d="M194.6 117.7h0c.1-.1 2-1.6 4.5-3.5.2-.1.3-.2.5-.3 2-1.4 4.3-3 6.6-4.3 2.4-1.3 4.6-2.3 6.2-2.4 7.5-.9 16.8-3.5 25.4 3.7 8.6 7.2 8.8 12.6 9.2 19.1s-2.9 29.9-16.1 35.8c-5.6 11.9-13.6 23.7-49.4 17.4-16.8 10.4-27.3 10.8-38.1 5.6-5.1-3.4-9-6.3-11.1-10.2-1.2-2.2-1.8-4.7-1.7-7.7.2-8.4 5.6-13.6 5.6-13.6M37.8 123.8s-13.7-1-17.5 11.4c-3.8 12.4-.7 34.8 14.2 42.6 14.6 7.6 36.7 8.9 40.3 5.3l.2-.2"/><path class="st10" d="M55.5 157.6s5.8 13.9 9.4 18c2.1 2.4 6.1 5.1 9.9 7.4 2.9 1.8 5.7 3.3 7.6 4.3 4.5 2.3 5 2.3 5 2.3M107.3 149c6.4 1.4 18.8 3.7 24.1 2.2"/><path class="st10" d="M101.2 110.9s-.2 19.4.9 28.3l1.2 8.9s1.6.4 4 .9M80.2 130.2s1 9.6 3.1 11.8 18.2 7.3 20 6.1"/><path class="st10" d="M83.3 142s-.6 8.7-.2 11.5c.1.5.1.8.2.9 0 0 2 24.5 4 35.3.5 2.7 1 4.6 1.5 4.9 18.6-6.9 32.8-13.2 43.4-16"/><path class="st10" d="M62.3 133.4c5.4 3.5 20 18 20.7 20.1h.1c9.8-1.1 23.8-4.4 24.2-4.5h0M92.8 165.9s36.8-11.5 40.9-11.2M133.8 54.2s-.3.8-.7 2.2c-2.1 6.7-8.2 27-8.8 34.3-.8 8.9-6.4 46.7 4.8 54.5"/><path class="st10" d="M130.5 139.2s0 0 0 0c-.2-.9-3-15.5-2.5-28.9.5-13.9 17.3-47.2 19.3-46.5 4 6.3 7.6 10.6 7.6 10.6s-10.2 4.5-10.9 10.2"/><path class="st10" d="M153.1 93.8c-3.3 5.6-10.2 19.5-16.8 27.4-6.4 7.6-5.9 17.3-5.8 18M147.2 63.7l3-7.2M181.4 183.1s21.9-15.2 24.5-23.8M96.4 29.4c-.6-1.6-1.7-5.5 2.8-7 4.5-1.6 10.2-2 11.1-2-3.7-7.4-5.9-14.3-4.7-17.1 1.2-2.8 2.6-3.7 4.7-1.9s5.4 4.8 6.1 10.2c0 .2.1.5.1.8.6 4.2 1.3 7.8 1.5 9 .1.3.1.4.1.4.7 1.9 1 4.1 1 4.1 1.3 1.2 4.7 9.7 5.1 11.6.4 1.9-.4 8.8-.4 8.8-1.2.5-2.4-.9-3.6-2 2.5.6 2.5-3 2.4-5.8s-2.6-3.9-4.4-3.9-2.6 1.9-1.7 4.7l-1.4-.3c-.9-1.2-2.1-8.4-2.2-11.1-1.9 1.1-16.5 1.5-16.5 1.5s-2.5 7-1.8 12.3c.4 6.5.2 12 2 14.6.6.9 1.4 1.4 2.5 1.6"/><path class="st10" d="M118 21.5s3.2-3.4 3.9-2.1c.7 1.2 3.5 16.8 5.1 20.2 1.7 3.5 8.7 13.6 8.7 13.6"/><path class="st10" d="M116.5 12.4c1.6-.7 5.1-2.7 7.8.5s6.9 8.2 7 14.3c.2 6 2.9 16.3 7.8 21.1 4.8 4.6 5.7 5.9 5.8 5.9h0M95.4 42s2.9-.6 4 0M105.4 41s3.1-1 5.9-.7M100.7 40.7s-3 6.3-1.8 7.8 4.4.2 4.6 0M104.2 45.4s2.4 1.2 2.5 2.2"/><path class="st11" d="M106.1 52.6c-.1.6-.3 1.1-1.3 1.2-1.1.2-1.7 0-2.2-.6-.1-.2-.2-.4-.2-.6 0-.4.3-.7.7-.8 1.1-.3 2.8-.8 2.9-.3 0 .3.1.7.1 1.1h0z"/><path class="st11" d="M102.5 52.6h0c.1 0 1.4.4 1.6 0 .2-.4.6 0 .6 0h1.5"/><path class="st10" d="M96.9 42.6c0 .3-.3.6-.6.6s-.6-.3-.6-.6.3-.6.6-.6.6.3.6.6zM106.9 41.6c0 .3-.3.6-.6.6s-.6-.3-.6-.6.3-.6.6-.6.6.3.6.6zM95.7 34.1s2.4-.4 3.4-.4M104.7 32.7c.7-.1 4.1-.5 4.1-.5"/><path class="st7" d="M170.1 151.7c2.1-1.8.4 2.3-3.7 4.4-4.2 2.1-11.8 4.3-11.8 4.3l4.2-6.4c0-.1 9.2-.5 11.3-2.3h0z"/></g></svg>