<?xml version="1.0" encoding="utf-8"?>
<!-- Generator: Adobe Illustrator 28.0.0, SVG Export Plug-In . SVG Version: 6.00 Build 0)  -->
<svg version="1.1" id="レイヤー_1" xmlns="http://www.w3.org/2000/svg" xmlns:xlink="http://www.w3.org/1999/xlink" x="0px"
	 y="0px" viewBox="0 0 270.3 235.9" style="enable-background:new 0 0 270.3 235.9;" xml:space="preserve">
<style type="text/css">
	.st0{fill:#F3EDD7;}
	.st1{fill:#333333;}
	.st2{fill:#D2D296;}
	.st3{fill:none;stroke:#000000;stroke-miterlimit:10;}
	.st4{fill:#B8C0BC;}
	.st5{fill:#CACAC4;}
	.st6{fill:#816999;}
	.st7{fill:#A23031;stroke:#000000;stroke-linecap:round;stroke-linejoin:round;}
	.st8{fill:#A23031;}
	.st9{fill:#F8DDC0;}
	.st10{fill:none;stroke:#000000;stroke-linecap:round;stroke-linejoin:round;}
	.st11{fill:none;stroke:#000000;stroke-width:0.5;stroke-linecap:round;stroke-linejoin:round;}
</style>
<g id="_レイヤー_3">
	<g>
		<g>
			<rect x="0.2" y="201.2" class="st0" width="3.6" height="5"/>
			<path class="st0" d="M270.1,228.8v6.6h-30.4l15.4-8.6c1,1.6,3.1,2.7,5.5,2.7s4.6-1.2,5.6-2.9L270.1,228.8L270.1,228.8z"/>
			<path class="st0" d="M270.1,218.2v10.6l-4-2.2c0.4-0.6,0.6-1.4,0.6-2.1c0-1.3-0.6-2.5-1.6-3.4L270.1,218.2L270.1,218.2z"/>
			<path class="st0" d="M270.1,206.2v12l-5,2.8c-1.1-1-2.8-1.6-4.6-1.6s-3.3,0.6-4.4,1.5L230,206.2H270.1z"/>
			<polygon class="st0" points="270.1,110.1 270.1,115.9 1.1,115.9 0.2,115.9 0.2,110.1 			"/>
			<rect x="266.1" y="201.2" class="st0" width="4" height="5"/>
			<path class="st0" d="M266.7,224.4c0,0.8-0.2,1.5-0.6,2.1l-5.4-3.1l4.4-2.5C266.1,221.9,266.7,223.1,266.7,224.4L266.7,224.4z"/>
			<path class="st0" d="M260.7,223.5l5.4,3.1c-1,1.7-3.1,2.9-5.6,2.9s-4.5-1.1-5.5-2.7L260.7,223.5L260.7,223.5z"/>
			<rect x="254.8" y="201.2" class="st1" width="11.3" height="5"/>
			<path class="st0" d="M265.1,221.1l-4.4,2.5l-4.6-2.6c1.1-0.9,2.7-1.5,4.4-1.5C262.3,219.4,263.9,220,265.1,221.1L265.1,221.1z"/>
			<path class="st0" d="M260.7,223.5l-5.7,3.2c-0.4-0.7-0.7-1.5-0.7-2.3c0-1.4,0.7-2.6,1.8-3.5L260.7,223.5L260.7,223.5z"/>
			<path class="st0" d="M230,206.2l26.1,14.7c-1.1,0.9-1.8,2.1-1.8,3.5c0,0.8,0.2,1.6,0.7,2.3l-15.4,8.6h-41.5l-15.6-8.8
				c0.4-0.6,0.6-1.4,0.6-2.1c0-1.3-0.6-2.5-1.6-3.4l26.3-14.8L230,206.2L230,206.2z M224,224.4c0-2.8-2.2-5-5-5s-5,2.2-5,5
				s2.2,5,5,5S224,227.2,224,224.4z"/>
			<polygon class="st0" points="254.8,206.2 230,206.2 224.2,206.2 224.2,201.2 254.8,201.2 			"/>
			<rect x="212.9" y="201.2" class="st1" width="11.3" height="5"/>
			<path class="st1" d="M219,219.4c2.8,0,5,2.2,5,5s-2.2,5-5,5s-5-2.2-5-5S216.2,219.4,219,219.4z"/>
			<path class="st0" d="M207.8,206.2l-26.3,14.8c-1.1-1-2.8-1.6-4.6-1.6s-3.3,0.6-4.4,1.5l-26.1-14.7H207.8z"/>
			<polygon class="st0" points="182.4,206.2 182.4,201.2 212.9,201.2 212.9,206.2 207.8,206.2 			"/>
			<path class="st0" d="M198.1,235.4H156l15.4-8.6c1,1.6,3.1,2.7,5.5,2.7s4.6-1.2,5.6-2.9L198.1,235.4L198.1,235.4z"/>
			<path class="st0" d="M183.1,224.4c0,0.8-0.2,1.5-0.6,2.1l-5.4-3.1l4.4-2.5C182.5,221.9,183.1,223.1,183.1,224.4L183.1,224.4z"/>
			<path class="st0" d="M177.1,223.5l5.4,3.1c-1,1.7-3.1,2.9-5.6,2.9s-4.5-1.1-5.5-2.7L177.1,223.5L177.1,223.5z"/>
			<rect x="171.1" y="201.2" class="st1" width="11.3" height="5"/>
			<path class="st0" d="M176.9,219.4c1.8,0,3.5,0.6,4.6,1.6l-4.4,2.5l-4.6-2.6C173.6,220,175.1,219.4,176.9,219.4L176.9,219.4z"/>
			<path class="st0" d="M177.1,223.5l-5.7,3.2c-0.4-0.7-0.7-1.5-0.7-2.3c0-1.4,0.7-2.6,1.8-3.5L177.1,223.5L177.1,223.5z"/>
			<path class="st0" d="M146.4,206.2l26.1,14.7c-1.1,0.9-1.8,2.1-1.8,3.5c0,0.8,0.2,1.6,0.7,2.3l-15.4,8.6h-41.5l-15.6-8.8
				c0.4-0.6,0.6-1.4,0.6-2.1c0-1.3-0.6-2.5-1.6-3.4l26.3-14.8L146.4,206.2L146.4,206.2z M139.4,224.4c0-2.8-2.2-5-5-5s-5,2.2-5,5
				s2.2,5,5,5S139.4,227.2,139.4,224.4z"/>
			<polygon class="st0" points="171.1,206.2 146.4,206.2 140.6,206.2 140.6,201.2 171.1,201.2 			"/>
			<rect x="129.3" y="201.2" class="st1" width="11.3" height="5"/>
			<path class="st1" d="M134.3,219.4c2.8,0,5,2.2,5,5s-2.2,5-5,5s-5-2.2-5-5S131.6,219.4,134.3,219.4z"/>
			<path class="st0" d="M124.2,206.2l-26.3,14.8c-1.1-1-2.8-1.6-4.6-1.6s-3.3,0.6-4.4,1.5l-26.1-14.7H124.2z"/>
			<polygon class="st0" points="129.3,206.2 124.2,206.2 98.8,206.2 98.8,201.2 129.3,201.2 			"/>
			<path class="st0" d="M114.6,235.4H72.4l15.3-8.6c1,1.6,3.1,2.7,5.5,2.7s4.6-1.2,5.6-2.9L114.6,235.4L114.6,235.4z"/>
			<path class="st0" d="M99.5,224.4c0,0.8-0.2,1.5-0.6,2.1l-5.4-3.1l4.4-2.5C98.9,221.9,99.5,223.1,99.5,224.4L99.5,224.4z"/>
			<path class="st0" d="M93.5,223.5l5.4,3.1c-1,1.7-3.1,2.9-5.6,2.9s-4.5-1.1-5.5-2.7C87.8,226.7,93.5,223.5,93.5,223.5z"/>
			<rect x="87.5" y="201.2" class="st1" width="11.3" height="5"/>
			<path class="st0" d="M93.3,219.4c1.8,0,3.5,0.6,4.6,1.6l-4.4,2.5l-4.6-2.6C90,220,91.6,219.4,93.3,219.4L93.3,219.4z"/>
			<path class="st0" d="M93.5,223.5l-5.7,3.2c-0.4-0.7-0.7-1.5-0.7-2.3c0-1.4,0.7-2.6,1.8-3.5L93.5,223.5L93.5,223.5z"/>
			<path class="st0" d="M62.8,206.2l26.1,14.7c-1.1,0.9-1.8,2.1-1.8,3.5c0,0.8,0.2,1.6,0.7,2.3l-15.3,8.6H30.8l-15.6-8.8
				c0.4-0.6,0.6-1.4,0.6-2.1c0-1.3-0.6-2.5-1.6-3.4l26.3-14.8L62.8,206.2L62.8,206.2z M54.3,224.4c0-2.8-2.2-5-5-5s-5,2.2-5,5
				s2.2,5,5,5S54.3,227.2,54.3,224.4z"/>
			<polygon class="st0" points="87.5,206.2 62.8,206.2 57,206.2 57,201.2 87.5,201.2 			"/>
			<rect x="45.7" y="201.2" class="st1" width="11.3" height="5"/>
			<path class="st1" d="M49.2,219.4c2.8,0,5,2.2,5,5s-2.2,5-5,5s-5-2.2-5-5S46.5,219.4,49.2,219.4z"/>
			<polygon class="st0" points="45.7,206.2 40.4,206.2 15.2,206.2 15.2,201.2 45.7,201.2 			"/>
			<path class="st0" d="M30.8,235.4H0.2v-6.5l3.8-2.1c1,1.6,3.1,2.7,5.5,2.7s4.6-1.2,5.6-2.9L30.8,235.4L30.8,235.4z"/>
			<path class="st0" d="M15.7,224.4c0,0.8-0.2,1.5-0.6,2.1l-5.4-3.1l4.4-2.5C15.1,221.9,15.7,223.1,15.7,224.4L15.7,224.4z"/>
			<rect x="3.9" y="201.2" class="st1" width="11.3" height="5"/>
			<path class="st0" d="M9.7,223.5l5.4,3.1c-1,1.7-3.1,2.9-5.6,2.9S5,228.4,4,226.7L9.7,223.5z"/>
			<path class="st0" d="M9.5,219.4c1.8,0,3.5,0.6,4.6,1.6l-4.4,2.5l-4.6-2.6C6.2,220,7.8,219.4,9.5,219.4L9.5,219.4z"/>
			<path class="st0" d="M9.7,223.5L4,226.7c-0.4-0.7-0.7-1.5-0.7-2.3c0-1.4,0.7-2.6,1.8-3.5L9.7,223.5L9.7,223.5z"/>
			<path class="st0" d="M0.2,218.2l4.8,2.7c-1.1,0.9-1.8,2.1-1.8,3.5c0,0.8,0.2,1.6,0.7,2.3l-3.8,2.1L0.2,218.2L0.2,218.2z"/>
			<polygon class="st2" points="212.9,201.2 182.4,201.2 171.1,201.2 140.6,201.2 129.3,201.2 98.8,201.2 87.5,201.2 57,201.2 
				45.7,201.2 15.2,201.2 3.9,201.2 0.2,201.2 0.2,115.9 1.1,115.9 270.1,115.9 270.1,201.2 266.1,201.2 254.8,201.2 224.2,201.2 
							"/>
			<path class="st0" d="M0.2,206.2h40.2l-26.3,14.8c-1.1-1-2.8-1.6-4.6-1.6s-3.3,0.6-4.4,1.5l-4.8-2.7L0.2,206.2L0.2,206.2z"/>
		</g>
		<g>
			<polyline class="st3" points="270.1,235.4 239.6,235.4 198.1,235.4 156,235.4 114.6,235.4 72.4,235.4 30.8,235.4 0.2,235.4 			
				"/>
			<line class="st3" x1="0.2" y1="110.1" x2="270.1" y2="110.1"/>
			<line class="st3" x1="0.2" y1="115.9" x2="270.1" y2="115.9"/>
			<line class="st3" x1="266.1" y1="201.2" x2="270.1" y2="201.2"/>
			<line class="st3" x1="224.2" y1="201.2" x2="254.8" y2="201.2"/>
			<line class="st3" x1="182.4" y1="201.2" x2="212.9" y2="201.2"/>
			<line class="st3" x1="140.6" y1="201.2" x2="171.1" y2="201.2"/>
			<line class="st3" x1="98.8" y1="201.2" x2="129.3" y2="201.2"/>
			<line class="st3" x1="57" y1="201.2" x2="87.5" y2="201.2"/>
			<line class="st3" x1="15.2" y1="201.2" x2="45.7" y2="201.2"/>
			<line class="st3" x1="0.2" y1="201.2" x2="3.9" y2="201.2"/>
			<line class="st3" x1="266.1" y1="206.2" x2="270.1" y2="206.2"/>
			<polyline class="st3" points="224.2,206.2 230,206.2 254.8,206.2 			"/>
			<polyline class="st3" points="182.4,206.2 207.8,206.2 212.9,206.2 			"/>
			<polyline class="st3" points="140.6,206.2 146.4,206.2 171.1,206.2 			"/>
			<polyline class="st3" points="98.8,206.2 124.2,206.2 129.3,206.2 			"/>
			<polyline class="st3" points="57,206.2 62.8,206.2 87.5,206.2 			"/>
			<polyline class="st3" points="15.2,206.2 40.4,206.2 45.7,206.2 			"/>
			<line class="st3" x1="0.2" y1="206.2" x2="3.9" y2="206.2"/>
			<polyline class="st3" points="72.4,235.4 87.8,226.7 93.5,223.5 97.9,221.1 124.2,206.2 			"/>
			<polyline class="st3" points="114.6,235.4 98.9,226.6 93.5,223.5 88.9,220.9 62.8,206.2 			"/>
			<path class="st3" d="M139.4,224.4c0,2.8-2.2,5-5,5s-5-2.2-5-5s2.2-5,5-5S139.4,221.6,139.4,224.4z"/>
			<path class="st3" d="M224,224.4c0,2.8-2.2,5-5,5s-5-2.2-5-5s2.2-5,5-5S224,221.6,224,224.4z"/>
			<path class="st3" d="M97.9,221.1c1,0.9,1.6,2.1,1.6,3.4c0,0.8-0.2,1.5-0.6,2.1c-1,1.7-3.1,2.9-5.6,2.9s-4.5-1.1-5.5-2.7
				c-0.4-0.7-0.7-1.5-0.7-2.3c0-1.4,0.7-2.6,1.8-3.5c1.1-0.9,2.7-1.5,4.4-1.5C95.1,219.4,96.8,220,97.9,221.1L97.9,221.1z"/>
			<polyline class="st3" points="0.2,228.8 4,226.7 9.7,223.5 14.1,221.1 40.4,206.2 			"/>
			<polyline class="st3" points="30.8,235.4 15.1,226.6 9.7,223.5 5.1,220.9 0.2,218.2 			"/>
			<path class="st3" d="M14.1,221.1c1,0.9,1.6,2.1,1.6,3.4c0,0.8-0.2,1.5-0.6,2.1c-1,1.7-3.1,2.9-5.6,2.9S5,228.3,4,226.7
				c-0.4-0.7-0.7-1.5-0.7-2.3c0-1.4,0.7-2.6,1.8-3.5c1.1-0.9,2.7-1.5,4.4-1.5C11.3,219.4,13,220,14.1,221.1L14.1,221.1z"/>
			<polyline class="st3" points="156,235.4 171.4,226.7 177.1,223.5 181.5,221.1 207.8,206.2 			"/>
			<polyline class="st3" points="198.1,235.4 182.5,226.6 177.1,223.5 172.4,220.9 146.4,206.2 			"/>
			<path class="st3" d="M181.5,221.1c1,0.9,1.6,2.1,1.6,3.4c0,0.8-0.2,1.5-0.6,2.1c-1,1.7-3.1,2.9-5.6,2.9s-4.5-1.1-5.5-2.7
				c-0.4-0.7-0.7-1.5-0.7-2.3c0-1.4,0.7-2.6,1.8-3.5c1.1-0.9,2.7-1.5,4.4-1.5C178.7,219.4,180.4,220,181.5,221.1L181.5,221.1z"/>
			<polyline class="st3" points="239.6,235.4 255,226.7 260.7,223.5 265.1,221.1 270.1,218.2 			"/>
			<polyline class="st3" points="270.1,228.8 266.1,226.6 260.7,223.5 256,220.9 230,206.2 			"/>
			<path class="st3" d="M265.1,221.1c1,0.9,1.6,2.1,1.6,3.4c0,0.8-0.2,1.5-0.6,2.1c-1,1.7-3.1,2.9-5.6,2.9s-4.5-1.1-5.5-2.7
				c-0.4-0.7-0.7-1.5-0.7-2.3c0-1.4,0.7-2.6,1.8-3.5c1.1-0.9,2.7-1.5,4.4-1.5C262.3,219.4,263.9,220,265.1,221.1L265.1,221.1z"/>
			<path class="st3" d="M54.2,224.4c0,2.8-2.2,5-5,5s-5-2.2-5-5s2.2-5,5-5S54.2,221.6,54.2,224.4z"/>
			<rect x="3.9" y="201.2" class="st3" width="11.3" height="5"/>
			<rect x="45.7" y="201.2" class="st3" width="11.3" height="5"/>
			<rect x="87.5" y="201.2" class="st3" width="11.3" height="5"/>
			<rect x="129.3" y="201.2" class="st3" width="11.3" height="5"/>
			<rect x="171.1" y="201.2" class="st3" width="11.3" height="5"/>
			<rect x="212.9" y="201.2" class="st3" width="11.3" height="5"/>
			<rect x="254.8" y="201.2" class="st3" width="11.3" height="5"/>
		</g>
	</g>
</g>
<g id="_レイヤー_2">
	<g>
		<g>
			<g>
				<path class="st4" d="M206.1,109.6c-2.2,1.3-4.6,2.9-6.6,4.3c-0.4-0.4-1.4-1.6-2.6-3.1l2-2.9c0,0,6.2,1,7.1,1.4L206.1,109.6
					L206.1,109.6z"/>
				<path class="st5" d="M183.1,150.4c-0.8,0.4-9.2-2-9.7-3.9c-0.4-1.9,0.4-4.9-0.7-5.7c-1.5,0.2-11.6,9.6-14.7,14.1
					s-4.9,7.3-5.3,12.5c0,0-8.1-3.4-14.6-8.6c-0.7-0.6-1.4-1.1-2-1.7c-0.9-0.8-1.6-1.6-2.4-2.5c-1-1.2-1.8-2.3-2.4-3.5
					c-1.1-2-1.6-4-1.6-5.9c0-1,0.2-2,0.5-3c0.3-0.8,0.7-1.6,1.3-2.4c2.9-4.2,9.5-7.9,19-11.6c10-3.9,31.1-9.9,44.5-13.1
					c0,0-0.2,1-0.5,2.5l0,0c-1,5.4-3.3,17.8-4.1,20.5C189.5,141.6,184.7,149,183.1,150.4L183.1,150.4z"/>
				<path class="st5" d="M158,154.9c3.2-4.5,13.2-13.9,14.7-14.1c1.1,0.8,0.2,3.9,0.7,5.7s8.9,4.3,9.7,3.9
					c-11.3,8.4-24.1,16.3-30.4,17.1C153,162.2,154.8,159.5,158,154.9L158,154.9z"/>
				<path class="st4" d="M145,54.2c2.1,0.5,3.9,1.2,5.2,2.2l-3,7.3c-2-0.7-18.8,32.7-19.3,46.5c-0.4,13.5,2.4,28.1,2.5,28.9
					c0,0,0,0,0,0l1.1,0.7c-0.6,0.8-1,1.6-1.3,2.4c-0.3,1-0.5,2-0.5,3H129c-11.2-7.8-5.5-45.6-4.8-54.5c0.6-7.4,6.8-27.6,8.8-34.3
					c0.4-1.4,0.7-2.2,0.7-2.2l0-1.1c0.6,0,1.3,0,2,0.1C139,53.3,142.2,53.6,145,54.2L145,54.2L145,54.2z"/>
				<path class="st1" d="M116.5,12.4c1.6-0.7,5.1-2.7,7.8,0.5c2.7,3.2,6.9,8.2,7,14.3c0.2,6,2.9,16.3,7.8,21.1
					c4.8,4.6,5.7,5.9,5.8,5.9c-2.7-0.7-6-1-9.2-1.1l0,0c0,0-7.1-10.1-8.8-13.6c-1.7-3.5-4.5-19-5.1-20.2c-0.7-1.2-3.9,2.1-3.9,2.1
					C117.7,20.2,117,16.6,116.5,12.4L116.5,12.4L116.5,12.4z"/>
				<path class="st6" d="M199.7,114.1c0,0-0.1-0.1-0.2-0.2c2-1.4,4.3-3,6.6-4.3c2.4-1.3,4.6-2.3,6.2-2.4c7.5-0.9,16.8-3.5,25.4,3.7
					c8.6,7.2,8.8,12.6,9.2,19.1c0.4,6.5-2.9,29.9-16.1,35.8c-5.6,11.9-13.6,23.7-49.4,17.4c-16.8,10.4-27.3,10.8-38.1,5.6
					c-5.1-3.4-9-6.3-11.1-10.2c-1.2-2.2-1.8-4.7-1.7-7.7c0.2-8.4,5.6-13.6,5.6-13.6c0.6,0.6,1.3,1.1,2,1.7
					c6.5,5.2,14.6,8.6,14.6,8.6c6.3-0.8,19-8.7,30.4-17.1c1.6-1.4,6.4-8.8,7.4-12.2c0.8-2.6,3.1-15.1,4.1-20.5l0,0
					c0.1-0.1,2-1.6,4.5-3.5C199.3,114.2,199.5,114.2,199.7,114.1L199.7,114.1z"/>
				<path class="st4" d="M131.4,56.5l-0.4-3.4c0.9,0,1.9,0,2.8,0l0,1.1c0,0-0.3,0.8-0.7,2.2H131.4z"/>
				<path class="st4" d="M131.4,151.2c-5.3,1.4-17.7-0.9-24.1-2.2l0,0c-2.4-0.5-4-0.9-4-0.9l-1.2-8.9c-1.2-8.9-0.9-28.3-0.9-28.3
					c4.9-5.2,11.7-12.9,13.7-15.1c2.5-2.8,7.3-9.9,7.7-11.7c0,0-1.8-14.5-3.1-18.5c0,0,2.2-0.2,4.7-1.6c2.5-1.4,7.2-7.5,7.2-7.5h1.7
					c-2.1,6.7-8.2,27-8.8,34.3c-0.8,8.9-6.4,46.7,4.8,54.5h0.8C129.7,147.2,130.3,149.2,131.4,151.2L131.4,151.2z"/>
				<path class="st4" d="M167.2,72.2c3.1,4.8,16.7,23.4,18.1,25.2c1,1.3,7.7,9,11.6,13.5c1.3,1.5,2.3,2.6,2.6,3.1
					c-0.2,0.1-0.3,0.2-0.5,0.3c-1.2,0.3-2.6,0.6-4,0.9c-13.4,3.2-34.6,9.2-44.5,13.1c-9.5,3.7-16,7.4-19,11.6l-1.1-0.7c0,0,0,0,0,0
					c-0.2-0.8-3-15.4-2.5-28.9c0.5-13.9,17.3-47.2,19.3-46.5l3-7.3C154,59.4,164,67.4,167.2,72.2L167.2,72.2z"/>
				<path class="st7" d="M123.8,46.5c0.3,0.1,7.2,2.8,6.9,3.8c-0.3,1-3.3,3.2-5,3.8c0.8-1.4,1.2-2.9,0.9-3.8
					C126.3,49.1,123.9,46.6,123.8,46.5z"/>
				<path class="st4" d="M119.5,65.6c-0.5-1.6-1.5-3.5-2.9-5.3c3.4-0.5,6.4-3.1,8.1-4.8c0.4-0.4,0.8-0.9,1.1-1.4
					c1.7-0.6,4.7-2.8,5-3.8l0.3,2.8l0.4,3.4c0,0-4.6,6-7.2,7.5C121.7,65.4,119.5,65.6,119.5,65.6L119.5,65.6z"/>
				<path class="st1" d="M110.2,1.4c2.2,1.8,5.4,4.8,6.1,10.2c0,0.2,0.1,0.5,0.1,0.8c0.6,4.2,1.3,7.8,1.5,9c0.1,0.3,0.1,0.4,0.1,0.4
					c0.7,1.9,1,4.1,1,4.1c1.3,1.2,4.7,9.7,5.1,11.6c0.4,1.9-0.4,8.8-0.4,8.8c-1.2,0.5-2.4-0.9-3.6-2c2.5,0.6,2.5-3,2.4-5.8
					s-2.6-3.9-4.4-3.9s-2.6,1.9-1.7,4.7l-1.4-0.3c-0.9-1.2-2.1-8.4-2.2-11.1c-1.9,0.9-16.6,1.3-16.6,1.3c-0.6-1.6-1.7-5.4,2.8-7
					c4.5-1.6,10.2-2,11.1-2c-3.7-7.4-5.9-14.3-4.7-17.1C106.7,0.5,108.1-0.4,110.2,1.4L110.2,1.4z"/>
				<path class="st8" d="M117.8,84.5c-0.1,0.9-3.1,5.7-4.7,7.1c-1.7,1.5-17.5,18.7-22,22.9c-4.4,4.3-11.9,11.4-14.2,12.4
					c-2.3,1-12.4,0.5-18.7,0c0,0,1.2-1.5,6.4-4s21.3-10.9,25.2-13.7c1.7-1.2,3.7-3,5.7-5c2.6-2.6,5.4-5.6,8.1-8.5
					c4.8-5.1,2.9-8.5,2.9-8.5C109.2,86.4,113.6,85.2,117.8,84.5L117.8,84.5z"/>
				<path class="st1" d="M106.3,42.2c-0.3,0-0.6-0.3-0.6-0.6s0.3-0.6,0.6-0.6s0.6,0.3,0.6,0.6S106.6,42.2,106.3,42.2z"/>
				<path class="st8" d="M102.5,52.6c0-0.4,0.3-0.7,0.7-0.8c1.1-0.3,2.8-0.8,2.9-0.3c0,0.3,0.1,0.7,0.1,1.1h-1.4c0,0-0.4-0.4-0.6,0
					C103.9,53,102.6,52.6,102.5,52.6z"/>
				<path class="st8" d="M102.7,53.2c-0.1-0.2-0.2-0.4-0.2-0.6c0.1,0,1.4,0.4,1.6,0c0.2-0.4,0.6,0,0.6,0h1.4
					c-0.1,0.6-0.3,1.1-1.3,1.2C103.7,54,103.1,53.8,102.7,53.2L102.7,53.2z"/>
				<path class="st4" d="M103.3,148.1c-1.8,1.2-17.8-4-20-6.1s-3.1-11.8-3.1-11.8c0.5-0.2,0.8-0.4,1-0.6c1-1.1,12.4-11.3,16.9-15.6
					c0.9-0.8,1.9-1.9,3.1-3.1c0,0-0.2,19.4,0.9,28.3C102.2,139.2,103.3,148.1,103.3,148.1z"/>
				<path class="st4" d="M96.6,56.3c0.6,0.9,1.4,1.4,2.5,1.6c-4.3,3.9-8.9,10.5-13.9,17.1c-0.8,1.2-1.8,2.4-2.9,3.6l-1,0.1
					c-3.7,1-7.2,2.4-10.6,4c0.2-0.3,5.5-8.6,7.1-11c1.7-2.4,8.1-12,11.2-13.3c3.2-1.3,7.3-2,7.3-2L96.6,56.3L96.6,56.3z"/>
				<path class="st1" d="M95.7,42.6c0-0.3,0.3-0.6,0.6-0.6s0.6,0.3,0.6,0.6s-0.3,0.6-0.6,0.6S95.7,42.9,95.7,42.6z"/>
				<path class="st8" d="M106.7,87.2c0,0,1.9,3.4-2.9,8.5c-2.7,2.9-5.5,5.9-8.1,8.5l-0.6-0.5c0,0,0.4-4,0.4-5.2s-1.6-3.6-2.6-6.3
					c-0.3-0.8-0.3-1.5-0.3-2c3.2,0,10.5-1.8,12.3-2.5C105.3,87.7,105.9,87.5,106.7,87.2L106.7,87.2z"/>
				<path class="st9" d="M95.7,42.6c0,0.3,0.3,0.6,0.6,0.6s0.6-0.3,0.6-0.6S96.6,42,96.3,42S95.7,42.2,95.7,42.6z M105.7,41.5
					c0,0.3,0.3,0.6,0.6,0.6s0.6-0.3,0.6-0.6s-0.3-0.6-0.6-0.6S105.7,41.2,105.7,41.5z M102.5,52.6c0,0.2,0,0.4,0.2,0.6
					c0.4,0.6,1.1,0.8,2.2,0.6c0.9-0.2,1.2-0.7,1.3-1.2c0.1-0.4,0-0.8-0.1-1.1c-0.1-0.5-1.8-0.1-2.9,0.3
					C102.8,51.9,102.5,52.2,102.5,52.6L102.5,52.6z M113,28c0.2,2.7,1.3,10,2.2,11.1l1.4,0.3c-0.9-2.8-0.1-4.7,1.7-4.7
					s4.3,1.1,4.4,3.9s0.1,6.3-2.4,5.8c1.2,1.1,2.4,2.5,3.6,2l0,0c0.2,0.2,2.6,2.7,2.8,3.8c0.2,0.9-0.1,2.4-0.9,3.8
					c-0.3,0.5-0.6,0.9-1.1,1.4c-1.7,1.7-4.7,4.3-8.1,4.8c-2.2-2.7-5.3-5.2-9.3-5.9c-2.6-0.5-5.3,1-8.2,3.6c-1.1-0.2-1.9-0.7-2.5-1.6
					c-1.8-2.6-1.6-8.2-2-14.6c-0.7-5.3,1.8-12.3,1.8-12.3S111.1,29,113,28L113,28z"/>
				<path class="st4" d="M95.7,104.3c-2,2-4,3.8-5.7,5c-4,2.8-20,11.2-25.2,13.7s-6.4,4-6.4,4c6.3,0.5,16.3,1,18.7,0
					c2.3-1,9.7-8.1,14.2-12.4c4.5-4.3,20.3-21.4,22-22.9c1.7-1.5,4.6-6.2,4.7-7.1c-4.2,0.7-8.6,2-11.1,2.8c-0.8,0.2-1.4,0.5-1.7,0.6
					c-1.8,0.7-9.1,2.4-12.3,2.5c-0.1,0.5-0.1,1.2,0.3,2c1,2.6,2.6,5,2.6,6.3s-0.4,5.2-0.4,5.2L95.7,104.3L95.7,104.3z M107.3,54.3
					c4,0.7,7.1,3.2,9.3,5.9c1.4,1.8,2.4,3.7,2.9,5.3c1.3,4,3.1,18.5,3.1,18.5c-0.4,1.8-5.1,9-7.7,11.7c-2,2.2-8.8,10-13.7,15.1
					c-1.2,1.2-2.2,2.3-3.1,3.1c-4.5,4.3-15.9,14.5-16.9,15.6c-0.2,0.2-0.5,0.4-1,0.6c-2.7,1.1-10.2,2.7-17.9,3.2
					c-9.1,0.6-24.1,0.4-24.1,0.4c-0.2-3.6-0.3-6.9-0.3-10c0.1-11.6,2.2-19.2,8-24.2c5.5-4.7,14.4-11.8,24.9-16.8l0,0
					c3.4-1.6,6.9-3,10.6-4l1-0.1c1.1-1.2,2.1-2.5,2.9-3.6c5-6.6,9.6-13.2,13.9-17.1C101.9,55.3,104.6,53.9,107.3,54.3L107.3,54.3z"
					/>
				<path class="st4" d="M83.3,142c2.2,2.1,18.2,7.3,20,6.1c0,0,1.6,0.4,4,0.9c-0.4,0.1-14.4,3.4-24.2,4.5
					C82.7,150.6,83.3,142,83.3,142z"/>
				<path class="st5" d="M107.3,149c6.4,1.4,18.8,3.7,24.1,2.2c0.6,1.2,1.4,2.4,2.4,3.5c0.7,0.8,1.5,1.7,2.4,2.5
					c0,0-5.4,5.2-5.6,13.6c-0.1,3,0.5,5.5,1.7,7.7c-10.6,2.8-24.9,9.1-43.4,16c-0.5-0.3-1-2.1-1.5-4.9c-2-10.7-4-35.3-4-35.3
					c-0.1-0.1-0.2-0.4-0.2-0.9C92.9,152.3,106.9,149,107.3,149L107.3,149L107.3,149z"/>
				<path class="st4" d="M62.3,133.4c7.7-0.5,15.2-2,17.9-3.2c0,0,1,9.6,3.1,11.8c0,0-0.6,8.7-0.2,11.5c0,0-0.1,0-0.1,0
					C82.3,151.4,67.7,136.8,62.3,133.4L62.3,133.4z"/>
				<path class="st6" d="M62.3,133.4c5.4,3.5,20,18,20.7,20.1c0,0,0.1,0,0.1,0c0.1,0.5,0.1,0.8,0.2,0.9c0,0,2,24.5,4,35.3
					c0,0-0.5,0-5-2.3c-1.9-1-4.7-2.5-7.6-4.3c-3.6,3.6-25.7,2.3-40.3-5.3c-14.9-7.8-18-30.2-14.2-42.6s17.5-11.4,17.5-11.4l0,0
					c0,3.1,0.1,6.4,0.3,10C38.2,133.8,53.2,133.9,62.3,133.4L62.3,133.4z"/>
			</g>
			<g>
				<path class="st10" d="M55.5,101.7c0,0,17.6-12.7,26.8-23c1.1-1.2,2.1-2.5,2.9-3.6c5-6.6,9.6-13.2,13.9-17.1
					c2.8-2.6,5.6-4.1,8.2-3.6c4,0.7,7.1,3.2,9.3,5.9c1.4,1.8,2.4,3.7,2.9,5.3c1.3,4,3.1,18.5,3.1,18.5c-1.5,0-3.2,0.2-4.9,0.4
					c-4.2,0.7-8.6,2-11.1,2.8c-0.8,0.2-1.4,0.5-1.7,0.6c-1.8,0.7-9.1,2.4-12.3,2.5h-0.1"/>
				<path class="st10" d="M107.6,60.3c0,0-0.8,8.8-2.8,12c-2,3.3-11.1,16.3-11.1,16.3s-0.9,0.5-1.1,1.7c-0.1,0.5-0.1,1.2,0.3,2
					c1,2.6,2.6,5,2.6,6.3s-0.4,5.2-0.4,5.2"/>
				<path class="st10" d="M106.7,87.2c0,0,1.9,3.4-2.9,8.5c-2.7,2.9-5.5,5.9-8.1,8.5c-2,2-4,3.8-5.7,5c-4,2.8-20,11.2-25.2,13.7
					s-6.4,4-6.4,4c6.3,0.5,16.3,1,18.7,0c2.3-1,9.7-8.1,14.2-12.4c4.5-4.3,20.3-21.5,21.9-22.9c1.7-1.5,4.6-6.2,4.7-7.1"/>
				<path class="st10" d="M70.6,82.8c3.4-1.6,6.9-3,10.6-4"/>
				<path class="st10" d="M122.6,84c-0.4,1.8-5.1,9-7.7,11.7c-2,2.2-8.8,10-13.7,15.1c-1.2,1.2-2.2,2.3-3.1,3.1
					c-4.5,4.3-15.9,14.5-16.9,15.6c-0.2,0.2-0.5,0.4-1,0.6c-2.7,1.1-10.2,2.7-17.9,3.2c-9.1,0.6-24.1,0.4-24.1,0.4
					c-0.2-3.6-0.3-6.9-0.3-10c0.1-11.6,2.2-19.2,8-24.2c5.5-4.7,14.4-11.8,24.9-16.8"/>
				<path class="st10" d="M70.6,82.8L70.6,82.8c0.2-0.3,5.5-8.6,7.1-11c1.7-2.4,8.1-12,11.2-13.3c3.2-1.3,7.3-2,7.3-2"/>
				<path class="st10" d="M116.5,60.3L116.5,60.3c3.4-0.5,6.4-3.1,8.1-4.8c0.4-0.4,0.8-0.9,1.1-1.4"/>
				<path class="st10" d="M123.8,46.5c0.3,0.1,7.2,2.8,6.9,3.8c-0.3,1-3.3,3.2-5,3.8c-0.1,0-0.3,0.1-0.4,0.1"/>
				<path class="st10" d="M130.7,50.3l0.3,2.8l0.4,3.4c0,0-4.6,6-7.2,7.5s-4.7,1.6-4.7,1.6"/>
				<path class="st10" d="M145,54.2c2.1,0.5,3.9,1.2,5.2,2.2c3.9,3,13.9,10.9,17,15.7c3.1,4.8,16.7,23.4,18.1,25.2
					c1,1.3,7.7,9,11.6,13.5c1.3,1.5,2.3,2.6,2.6,3.1c0.1,0.1,0.2,0.2,0.2,0.2c-0.2,0.1-0.4,0.1-0.6,0.1c-1.2,0.3-2.6,0.6-4,0.9
					c-13.4,3.2-34.6,9.2-44.5,13.1c-9.5,3.7-16,7.4-19,11.6c-0.6,0.8-1,1.6-1.3,2.4c-0.3,1-0.5,2-0.5,3c0,1.9,0.5,3.9,1.6,5.9
					c0.6,1.2,1.4,2.4,2.4,3.5c0.7,0.8,1.5,1.7,2.4,2.5c0.6,0.6,1.3,1.1,2,1.7c6.5,5.2,14.6,8.6,14.6,8.6c0.3-5.3,2.1-8,5.3-12.5
					s13.2-13.9,14.7-14.1c1.1,0.8,0.2,3.9,0.7,5.7s8.9,4.3,9.7,3.9c-11.3,8.4-24.1,16.3-30.4,17.1"/>
				<path class="st10" d="M131,53.1c0.9,0,1.9,0,2.8,0c0.6,0,1.3,0,2,0.1c3.3,0.1,6.5,0.4,9.2,1.1"/>
				<path class="st10" d="M194.6,117.7c0.3-1.6,0.5-2.5,0.5-2.5"/>
				<path class="st10" d="M183.1,150.4c1.6-1.4,6.4-8.8,7.4-12.2c0.8-2.6,3.1-15.1,4.1-20.5"/>
				<path class="st10" d="M196.9,110.9l2-2.9c0,0,6.2,1,7.1,1.4"/>
				<path class="st10" d="M194.6,117.7L194.6,117.7c0.1-0.1,2-1.6,4.5-3.5c0.2-0.1,0.3-0.2,0.5-0.3c2-1.4,4.3-3,6.6-4.3
					c2.4-1.3,4.6-2.3,6.2-2.4c7.5-0.9,16.8-3.5,25.4,3.7c8.6,7.2,8.8,12.6,9.2,19.1s-2.9,29.9-16.1,35.8
					c-5.6,11.9-13.6,23.7-49.4,17.4c-16.8,10.4-27.3,10.8-38.1,5.6c-5.1-3.4-9-6.3-11.1-10.2c-1.2-2.2-1.8-4.7-1.7-7.7
					c0.2-8.4,5.6-13.6,5.6-13.6"/>
				<path class="st10" d="M37.8,123.8c0,0-13.7-1-17.5,11.4c-3.8,12.4-0.7,34.8,14.2,42.6c14.6,7.6,36.7,8.9,40.3,5.3
					c0.1-0.1,0.1-0.1,0.2-0.2"/>
				<path class="st10" d="M55.5,157.6c0,0,5.8,13.9,9.4,18c2.1,2.4,6.1,5.1,9.9,7.4c2.9,1.8,5.7,3.3,7.6,4.3c4.5,2.3,5,2.3,5,2.3"/>
				<path class="st10" d="M107.3,149c6.4,1.4,18.8,3.7,24.1,2.2"/>
				<path class="st10" d="M101.2,110.9c0,0-0.2,19.4,0.9,28.3l1.2,8.9c0,0,1.6,0.4,4,0.9"/>
				<path class="st10" d="M80.2,130.2c0,0,1,9.6,3.1,11.8s18.2,7.3,20,6.1"/>
				<path class="st10" d="M83.3,142c0,0-0.6,8.7-0.2,11.5c0.1,0.5,0.1,0.8,0.2,0.9c0,0,2,24.5,4,35.3c0.5,2.7,1,4.6,1.5,4.9
					c18.6-6.9,32.8-13.2,43.4-16"/>
				<path class="st10" d="M62.3,133.4c5.4,3.5,20,18,20.7,20.1c0,0,0.1,0,0.1,0c9.8-1.1,23.8-4.4,24.2-4.5l0,0"/>
				<path class="st10" d="M92.8,165.9c0,0,36.8-11.5,40.9-11.2"/>
				<path class="st10" d="M133.8,54.2c0,0-0.3,0.8-0.7,2.2c-2.1,6.7-8.2,27-8.8,34.3c-0.8,8.9-6.4,46.7,4.8,54.5"/>
				<path class="st10" d="M130.5,139.2C130.5,139.2,130.5,139.2,130.5,139.2c-0.2-0.9-3-15.5-2.5-28.9c0.5-13.9,17.3-47.2,19.3-46.5
					c4,6.3,7.6,10.6,7.6,10.6s-10.2,4.5-10.9,10.2"/>
				<path class="st10" d="M153.1,93.8c-3.3,5.6-10.2,19.5-16.8,27.4c-6.4,7.6-5.9,17.3-5.8,18"/>
				<line class="st10" x1="147.2" y1="63.7" x2="150.2" y2="56.5"/>
				<path class="st10" d="M181.4,183.1c0,0,21.9-15.2,24.5-23.8"/>
				<path class="st10" d="M96.4,29.4c-0.6-1.6-1.7-5.5,2.8-7c4.5-1.6,10.2-2,11.1-2c-3.7-7.4-5.9-14.3-4.7-17.1
					c1.2-2.8,2.6-3.7,4.7-1.9s5.4,4.8,6.1,10.2c0,0.2,0.1,0.5,0.1,0.8c0.6,4.2,1.3,7.8,1.5,9c0.1,0.3,0.1,0.4,0.1,0.4
					c0.7,1.9,1,4.1,1,4.1c1.3,1.2,4.7,9.7,5.1,11.6c0.4,1.9-0.4,8.8-0.4,8.8c-1.2,0.5-2.4-0.9-3.6-2c2.5,0.6,2.5-3,2.4-5.8
					s-2.6-3.9-4.4-3.9s-2.6,1.9-1.7,4.7l-1.4-0.3c-0.9-1.2-2.1-8.4-2.2-11.1C111,29,96.4,29.4,96.4,29.4c0,0-2.5,7-1.8,12.3
					c0.4,6.5,0.2,12,2,14.6c0.6,0.9,1.4,1.4,2.5,1.6"/>
				<path class="st10" d="M118,21.5c0,0,3.2-3.4,3.9-2.1c0.7,1.2,3.5,16.8,5.1,20.2c1.7,3.5,8.7,13.6,8.7,13.6"/>
				<path class="st10" d="M116.5,12.4c1.6-0.7,5.1-2.7,7.8,0.5c2.7,3.2,6.9,8.2,7,14.3c0.2,6,2.9,16.3,7.8,21.1
					c4.8,4.6,5.7,5.9,5.8,5.9l0,0"/>
				<path class="st10" d="M95.4,42c0,0,2.9-0.6,4,0"/>
				<path class="st10" d="M105.4,41c0,0,3.1-1,5.9-0.7"/>
				<path class="st10" d="M100.7,40.7c0,0-3,6.3-1.8,7.8c1.2,1.5,4.4,0.2,4.6,0"/>
				<path class="st10" d="M104.2,45.4c0,0,2.4,1.2,2.5,2.2"/>
				<path class="st11" d="M106.1,52.6c-0.1,0.6-0.3,1.1-1.3,1.2c-1.1,0.2-1.7,0-2.2-0.6c-0.1-0.2-0.2-0.4-0.2-0.6
					c0-0.4,0.3-0.7,0.7-0.8c1.1-0.3,2.8-0.8,2.9-0.3C106,51.8,106.1,52.2,106.1,52.6L106.1,52.6z"/>
				<path class="st11" d="M102.5,52.6L102.5,52.6c0.1,0,1.4,0.4,1.6,0c0.2-0.4,0.6,0,0.6,0h1.5"/>
				<path class="st10" d="M96.9,42.6c0,0.3-0.3,0.6-0.6,0.6s-0.6-0.3-0.6-0.6S96,42,96.3,42S96.9,42.3,96.9,42.6z"/>
				<path class="st10" d="M106.9,41.6c0,0.3-0.3,0.6-0.6,0.6s-0.6-0.3-0.6-0.6s0.3-0.6,0.6-0.6S106.9,41.3,106.9,41.6z"/>
				<path class="st10" d="M95.7,34.1c0,0,2.4-0.4,3.4-0.4"/>
				<path class="st10" d="M104.7,32.7c0.7-0.1,4.1-0.5,4.1-0.5"/>
			</g>
		</g>
		<path class="st7" d="M170.1,151.7c2.1-1.8,0.4,2.3-3.7,4.4c-4.2,2.1-11.8,4.3-11.8,4.3l4.2-6.4C158.8,153.9,168,153.5,170.1,151.7
			L170.1,151.7z"/>
	</g>
</g>
</svg>
