<?xml version="1.0" encoding="UTF-8"?>
<svg xmlns="http://www.w3.org/2000/svg" viewBox="0 0 270.31 235.86">
  <defs>
    <style>
      .cls-1 {
        stroke-miterlimit: 10;
      }

      .cls-1, .cls-2, .cls-3 {
        stroke: #000;
      }

      .cls-1, .cls-3 {
        fill: none;
      }

      .cls-4 {
        fill: #816999;
      }

      .cls-4, .cls-5, .cls-6, .cls-7, .cls-8, .cls-9, .cls-10, .cls-11 {
        stroke-width: 0px;
      }

      .cls-5, .cls-2 {
        fill: #a23031;
      }

      .cls-6 {
        fill: #f3edd7;
      }

      .cls-2, .cls-3 {
        stroke-linecap: round;
        stroke-linejoin: round;
      }

      .cls-7 {
        fill: #cacac4;
      }

      .cls-8 {
        fill: #333;
      }

      .cls-9 {
        fill: #e3c5a9;
      }

      .cls-10 {
        fill: #d2d296;
      }

      .cls-11 {
        fill: #b8c0bc;
      }
    </style>
  </defs>
  <g id="_レイヤー_3" data-name="レイヤー 3">
    <g>
      <g>
        <rect class="cls-6" x=".24" y="201.23" width="3.62" height="5.03"/>
        <path class="cls-6" d="m270.06,228.8v6.56h-30.44l15.35-8.63c1.03,1.61,3.11,2.72,5.51,2.72s4.62-1.18,5.62-2.88l3.97,2.23Z"/>
        <path class="cls-6" d="m270.06,218.24v10.56l-3.97-2.23c.38-.65.59-1.38.59-2.14,0-1.3-.62-2.48-1.61-3.38l4.99-2.8Z"/>
        <path class="cls-6" d="m270.06,206.25v11.99l-4.99,2.8c-1.14-1.01-2.77-1.64-4.59-1.64s-3.31.58-4.44,1.51l-26.09-14.66h40.11Z"/>
        <polygon class="cls-6" points="270.06 110.12 270.06 115.89 1.13 115.89 .24 115.89 .24 110.12 270.06 110.12"/>
        <rect class="cls-6" x="266.07" y="201.23" width="3.99" height="5.03"/>
        <path class="cls-6" d="m266.69,224.42c0,.76-.21,1.49-.59,2.14l-5.42-3.05,4.39-2.47c1,.89,1.61,2.07,1.61,3.38Z"/>
        <path class="cls-6" d="m260.68,223.52l5.42,3.05c-1,1.7-3.13,2.88-5.62,2.88s-4.48-1.1-5.51-2.72l5.71-3.21Z"/>
        <rect class="cls-8" x="254.77" y="201.23" width="11.3" height="5.03"/>
        <path class="cls-6" d="m265.07,221.05l-4.39,2.47-4.64-2.6c1.13-.93,2.7-1.51,4.44-1.51,1.82,0,3.46.63,4.59,1.64Z"/>
        <path class="cls-6" d="m260.68,223.52l-5.71,3.21c-.44-.69-.69-1.48-.69-2.31,0-1.37.68-2.6,1.77-3.51l4.64,2.6Z"/>
        <path class="cls-6" d="m229.96,206.25l26.09,14.66c-1.09.9-1.77,2.14-1.77,3.51,0,.83.25,1.62.69,2.31l-15.35,8.63h-41.47l-15.64-8.79c.38-.65.59-1.38.59-2.14,0-1.3-.62-2.48-1.61-3.37l26.33-14.8h22.15Zm-5.96,18.17c0-2.77-2.25-5.02-5.02-5.02s-5.03,2.25-5.03,5.02,2.25,5.03,5.03,5.03,5.02-2.25,5.02-5.03Z"/>
        <polygon class="cls-6" points="254.77 206.25 229.96 206.25 224.25 206.25 224.25 201.23 254.77 201.23 254.77 206.25"/>
        <rect class="cls-8" x="212.95" y="201.23" width="11.3" height="5.03"/>
        <path class="cls-8" d="m218.98,219.41c2.77,0,5.02,2.25,5.02,5.02s-2.25,5.03-5.02,5.03-5.03-2.25-5.03-5.03,2.25-5.02,5.03-5.02Z"/>
        <path class="cls-6" d="m207.81,206.25l-26.33,14.8c-1.14-1.02-2.77-1.65-4.59-1.65s-3.31.58-4.44,1.51l-26.09-14.66h61.45Z"/>
        <polygon class="cls-6" points="182.44 206.25 182.44 201.23 212.95 201.23 212.95 206.25 207.81 206.25 182.44 206.25"/>
        <path class="cls-6" d="m198.15,235.36h-42.12l15.35-8.63c1.03,1.61,3.12,2.72,5.51,2.72s4.62-1.18,5.62-2.88l15.64,8.79Z"/>
        <path class="cls-6" d="m183.1,224.42c0,.76-.21,1.49-.59,2.14l-5.42-3.05,4.39-2.47c1,.89,1.61,2.07,1.61,3.37Z"/>
        <path class="cls-6" d="m177.09,223.52l5.42,3.05c-1,1.7-3.13,2.88-5.62,2.88s-4.48-1.1-5.51-2.72l5.71-3.21Z"/>
        <rect class="cls-8" x="171.13" y="201.23" width="11.3" height="5.03"/>
        <path class="cls-6" d="m176.89,219.41c1.82,0,3.46.63,4.59,1.65l-4.39,2.47-4.64-2.6c1.13-.93,2.7-1.51,4.44-1.51Z"/>
        <path class="cls-6" d="m177.09,223.52l-5.71,3.21c-.44-.69-.69-1.48-.69-2.31,0-1.37.68-2.6,1.77-3.51l4.64,2.6Z"/>
        <path class="cls-6" d="m146.37,206.25l26.09,14.66c-1.09.9-1.77,2.14-1.77,3.51,0,.83.25,1.62.69,2.31l-15.35,8.63h-41.47l-15.64-8.79c.38-.65.59-1.38.59-2.14,0-1.3-.62-2.48-1.61-3.37l26.33-14.8h22.15Zm-7.01,18.17c0-2.77-2.25-5.02-5.02-5.02s-5.03,2.25-5.03,5.02,2.25,5.03,5.03,5.03,5.02-2.25,5.02-5.03Z"/>
        <polygon class="cls-6" points="171.13 206.25 146.37 206.25 140.62 206.25 140.62 201.23 171.13 201.23 171.13 206.25"/>
        <rect class="cls-8" x="129.32" y="201.23" width="11.3" height="5.03"/>
        <path class="cls-8" d="m134.33,219.41c2.77,0,5.02,2.25,5.02,5.02s-2.25,5.03-5.02,5.03-5.03-2.25-5.03-5.03,2.25-5.02,5.03-5.02Z"/>
        <path class="cls-6" d="m124.22,206.25l-26.33,14.8c-1.14-1.02-2.77-1.65-4.59-1.65s-3.31.58-4.44,1.51l-26.09-14.66h61.45Z"/>
        <polygon class="cls-6" points="129.32 206.25 124.22 206.25 98.8 206.25 98.8 201.23 129.32 201.23 129.32 206.25"/>
        <path class="cls-6" d="m114.56,235.36h-42.12l15.35-8.63c1.03,1.61,3.11,2.72,5.51,2.72s4.62-1.18,5.62-2.88l15.64,8.79Z"/>
        <path class="cls-6" d="m99.51,224.42c0,.76-.21,1.49-.59,2.14l-5.42-3.05,4.39-2.47c1,.89,1.61,2.07,1.61,3.37Z"/>
        <path class="cls-6" d="m93.5,223.52l5.42,3.05c-1,1.7-3.13,2.88-5.62,2.88s-4.48-1.1-5.51-2.72l5.71-3.21Z"/>
        <rect class="cls-8" x="87.5" y="201.23" width="11.3" height="5.03"/>
        <path class="cls-6" d="m93.3,219.41c1.82,0,3.46.63,4.59,1.65l-4.39,2.47-4.64-2.6c1.13-.93,2.7-1.51,4.44-1.51Z"/>
        <path class="cls-6" d="m93.5,223.52l-5.71,3.21c-.44-.69-.69-1.48-.69-2.31,0-1.37.68-2.6,1.77-3.51l4.64,2.6Z"/>
        <path class="cls-6" d="m62.78,206.25l26.09,14.66c-1.09.9-1.77,2.14-1.77,3.51,0,.83.25,1.62.69,2.31l-15.35,8.63H30.78l-15.64-8.79c.38-.65.59-1.38.59-2.14,0-1.3-.62-2.48-1.61-3.37l26.33-14.8h22.34Zm-8.52,18.17c0-2.77-2.25-5.02-5.02-5.02s-5.03,2.25-5.03,5.02,2.25,5.03,5.03,5.03,5.02-2.25,5.02-5.03Z"/>
        <polygon class="cls-6" points="87.5 206.25 62.78 206.25 56.99 206.25 56.99 201.23 87.5 201.23 87.5 206.25"/>
        <rect class="cls-8" x="45.68" y="201.23" width="11.3" height="5.03"/>
        <path class="cls-8" d="m49.23,219.41c2.77,0,5.02,2.25,5.02,5.02s-2.25,5.03-5.02,5.03-5.03-2.25-5.03-5.03,2.25-5.02,5.03-5.02Z"/>
        <polygon class="cls-6" points="45.68 206.25 40.44 206.25 15.17 206.25 15.17 201.23 45.68 201.23 45.68 206.25"/>
        <path class="cls-6" d="m30.78,235.36H.24v-6.52l3.76-2.11c1.03,1.61,3.12,2.72,5.51,2.72s4.62-1.18,5.62-2.88l15.64,8.79Z"/>
        <path class="cls-6" d="m15.72,224.42c0,.76-.21,1.49-.59,2.14l-5.42-3.05,4.39-2.47c1,.89,1.61,2.07,1.61,3.37Z"/>
        <rect class="cls-8" x="3.86" y="201.23" width="11.3" height="5.03"/>
        <path class="cls-6" d="m9.72,223.52l5.42,3.05c-1,1.7-3.13,2.88-5.62,2.88s-4.48-1.1-5.51-2.72l5.71-3.21Z"/>
        <path class="cls-6" d="m9.52,219.41c1.82,0,3.46.63,4.59,1.65l-4.39,2.47-4.64-2.6c1.13-.93,2.7-1.51,4.44-1.51Z"/>
        <path class="cls-6" d="m9.72,223.52l-5.71,3.21c-.44-.69-.69-1.48-.69-2.31,0-1.37.68-2.6,1.77-3.51l4.64,2.6Z"/>
        <path class="cls-6" d="m.24,218.2l4.84,2.72c-1.09.9-1.77,2.14-1.77,3.51,0,.83.25,1.62.69,2.31l-3.76,2.11v-10.64Z"/>
        <polygon class="cls-10" points="212.95 201.23 182.44 201.23 171.13 201.23 140.62 201.23 129.32 201.23 98.8 201.23 87.5 201.23 56.99 201.23 45.68 201.23 15.17 201.23 3.86 201.23 .24 201.23 .24 115.89 1.13 115.89 270.06 115.89 270.06 201.23 266.07 201.23 254.77 201.23 224.25 201.23 212.95 201.23"/>
        <path class="cls-6" d="m.24,206.25h40.19l-26.33,14.8c-1.14-1.02-2.77-1.65-4.59-1.65s-3.31.58-4.44,1.51l-4.84-2.72v-11.95Z"/>
      </g>
      <g>
        <polyline class="cls-1" points="270.06 235.36 239.62 235.36 198.15 235.36 156.03 235.36 114.56 235.36 72.44 235.36 30.78 235.36 .24 235.36"/>
        <line class="cls-1" x1=".24" y1="110.12" x2="270.06" y2="110.12"/>
        <line class="cls-1" x1=".24" y1="115.89" x2="270.06" y2="115.89"/>
        <line class="cls-1" x1="266.07" y1="201.23" x2="270.06" y2="201.23"/>
        <line class="cls-1" x1="224.25" y1="201.23" x2="254.77" y2="201.23"/>
        <line class="cls-1" x1="182.44" y1="201.23" x2="212.95" y2="201.23"/>
        <line class="cls-1" x1="140.62" y1="201.23" x2="171.13" y2="201.23"/>
        <line class="cls-1" x1="98.8" y1="201.23" x2="129.32" y2="201.23"/>
        <line class="cls-1" x1="56.99" y1="201.23" x2="87.5" y2="201.23"/>
        <line class="cls-1" x1="15.17" y1="201.23" x2="45.68" y2="201.23"/>
        <line class="cls-1" x1=".24" y1="201.23" x2="3.86" y2="201.23"/>
        <line class="cls-1" x1="266.07" y1="206.25" x2="270.06" y2="206.25"/>
        <polyline class="cls-1" points="224.25 206.25 229.96 206.25 254.77 206.25"/>
        <polyline class="cls-1" points="182.44 206.25 207.81 206.25 212.95 206.25"/>
        <polyline class="cls-1" points="140.62 206.25 146.37 206.25 171.13 206.25"/>
        <polyline class="cls-1" points="98.8 206.25 124.22 206.25 129.32 206.25"/>
        <polyline class="cls-1" points="56.99 206.25 62.78 206.25 87.5 206.25"/>
        <polyline class="cls-1" points="15.17 206.25 40.44 206.25 45.68 206.25"/>
        <line class="cls-1" x1=".24" y1="206.25" x2="3.86" y2="206.25"/>
        <polyline class="cls-1" points="72.44 235.36 87.79 226.73 93.5 223.52 97.89 221.06 124.22 206.25"/>
        <polyline class="cls-1" points="114.56 235.36 98.92 226.57 93.5 223.52 88.86 220.92 62.78 206.25"/>
        <path class="cls-1" d="m139.35,224.42c0,2.78-2.25,5.03-5.02,5.03s-5.03-2.25-5.03-5.03,2.25-5.02,5.03-5.02,5.02,2.25,5.02,5.02Z"/>
        <path class="cls-1" d="m223.99,224.42c0,2.78-2.25,5.03-5.02,5.03s-5.03-2.25-5.03-5.03,2.25-5.02,5.03-5.02,5.02,2.25,5.02,5.02Z"/>
        <path class="cls-1" d="m97.89,221.06c1,.89,1.61,2.07,1.61,3.37,0,.76-.21,1.49-.59,2.14-1,1.7-3.13,2.88-5.62,2.88s-4.48-1.1-5.51-2.72c-.44-.69-.69-1.48-.69-2.31,0-1.37.68-2.6,1.77-3.51,1.13-.93,2.7-1.51,4.44-1.51,1.82,0,3.46.63,4.59,1.65Z"/>
        <polyline class="cls-1" points=".24 228.84 4 226.73 9.72 223.52 14.11 221.06 40.44 206.25"/>
        <polyline class="cls-1" points="30.78 235.36 15.13 226.57 9.72 223.52 5.08 220.92 .24 218.2"/>
        <path class="cls-1" d="m14.11,221.06c1,.89,1.61,2.07,1.61,3.37,0,.76-.21,1.49-.59,2.14-1,1.7-3.13,2.88-5.62,2.88s-4.48-1.1-5.51-2.72c-.44-.69-.69-1.48-.69-2.31,0-1.37.68-2.6,1.77-3.51,1.13-.93,2.7-1.51,4.44-1.51,1.82,0,3.46.63,4.59,1.65Z"/>
        <polyline class="cls-1" points="156.03 235.36 171.38 226.73 177.09 223.52 181.48 221.06 207.81 206.25"/>
        <polyline class="cls-1" points="198.15 235.36 182.51 226.57 177.09 223.52 172.45 220.92 146.37 206.25"/>
        <path class="cls-1" d="m181.48,221.06c1,.89,1.61,2.07,1.61,3.37,0,.76-.21,1.49-.59,2.14-1,1.7-3.13,2.88-5.62,2.88s-4.48-1.1-5.51-2.72c-.44-.69-.69-1.48-.69-2.31,0-1.37.68-2.6,1.77-3.51,1.13-.93,2.7-1.51,4.44-1.51,1.82,0,3.46.63,4.59,1.65Z"/>
        <polyline class="cls-1" points="239.62 235.36 254.97 226.73 260.68 223.52 265.07 221.05 270.06 218.24"/>
        <polyline class="cls-1" points="270.06 228.8 266.1 226.57 260.68 223.52 256.04 220.92 229.96 206.25"/>
        <path class="cls-1" d="m265.07,221.05c1,.89,1.61,2.07,1.61,3.38,0,.76-.21,1.49-.59,2.14-1,1.7-3.13,2.88-5.62,2.88s-4.48-1.1-5.51-2.72c-.44-.69-.69-1.48-.69-2.31,0-1.37.68-2.6,1.77-3.51,1.13-.93,2.7-1.51,4.44-1.51,1.82,0,3.46.63,4.59,1.64Z"/>
        <path class="cls-1" d="m54.25,224.42c0,2.78-2.25,5.03-5.02,5.03s-5.03-2.25-5.03-5.03,2.25-5.02,5.03-5.02,5.02,2.25,5.02,5.02Z"/>
        <rect class="cls-1" x="3.86" y="201.23" width="11.3" height="5.03"/>
        <rect class="cls-1" x="45.68" y="201.23" width="11.3" height="5.03"/>
        <rect class="cls-1" x="87.5" y="201.23" width="11.3" height="5.03"/>
        <rect class="cls-1" x="129.32" y="201.23" width="11.3" height="5.03"/>
        <rect class="cls-1" x="171.13" y="201.23" width="11.3" height="5.03"/>
        <rect class="cls-1" x="212.95" y="201.23" width="11.3" height="5.03"/>
        <rect class="cls-1" x="254.77" y="201.23" width="11.3" height="5.03"/>
      </g>
    </g>
  </g>
  <g id="_レイヤー_2" data-name="レイヤー 2">
    <g>
      <g>
        <g>
          <path class="cls-11" d="m206.06,109.6c-2.24,1.28-4.58,2.88-6.56,4.32-.37-.44-1.35-1.57-2.63-3.05l2.04-2.91s6.17,1.03,7.05,1.45l.11.18Z"/>
          <path class="cls-7" d="m183.07,150.43c-.77.44-9.24-1.98-9.68-3.85-.44-1.87.44-4.95-.66-5.72-1.54.22-11.55,9.57-14.74,14.08-3.19,4.51-4.95,7.26-5.28,12.54,0,0-8.14-3.41-14.63-8.58-.69-.55-1.35-1.12-1.96-1.69-.87-.81-1.65-1.64-2.36-2.48-.97-1.16-1.78-2.34-2.4-3.52-1.07-2-1.64-4.01-1.62-5.94.01-1.02.19-2.02.53-2.98.29-.81.71-1.6,1.26-2.37,2.94-4.18,9.51-7.89,18.98-11.6,9.97-3.91,31.07-9.91,44.52-13.13,0,0-.18.98-.47,2.53h0c-1,5.42-3.34,17.85-4.11,20.5-.99,3.41-5.72,10.78-7.37,12.21Z"/>
          <path class="cls-7" d="m157.98,154.94c3.19-4.51,13.21-13.86,14.74-14.08,1.1.77.22,3.85.66,5.72.44,1.87,8.91,4.29,9.68,3.85-11.33,8.36-24.09,16.28-30.37,17.05.33-5.28,2.09-8.03,5.28-12.54Z"/>
          <path class="cls-11" d="m144.96,54.25c2.09.5,3.9,1.22,5.21,2.23l-2.97,7.26c-1.98-.66-18.81,32.68-19.27,46.55-.45,13.46,2.37,28.06,2.54,28.89,0,.03,0,.04,0,.04l1.05.7c-.55.78-.97,1.56-1.26,2.37-.34.96-.52,1.96-.53,2.98h-.75c-11.18-7.76-5.54-45.56-4.77-54.47.64-7.38,6.76-27.61,8.85-34.34.43-1.4.69-2.22.69-2.22l.03-1.14c.65.01,1.31.03,1.96.06,3.26.12,6.49.42,9.22,1.07h0Z"/>
          <path class="cls-8" d="m116.54,12.42c1.62-.66,5.13-2.72,7.79.49,2.66,3.22,6.86,8.25,7.03,14.28.17,6.02,2.89,16.34,7.84,21.12,4.8,4.64,5.71,5.86,5.76,5.93-2.73-.65-5.96-.95-9.22-1.07h0s-7.1-10.14-8.75-13.61c-1.65-3.46-4.46-18.98-5.12-20.22-.66-1.23-3.88,2.13-3.88,2.13-.25-1.22-.95-4.87-1.54-9.05h.1Z"/>
          <path class="cls-4" d="m199.68,114.13s-.06-.07-.17-.2c1.98-1.44,4.32-3.04,6.56-4.32,2.36-1.34,4.6-2.34,6.16-2.4,7.48-.95,16.83-3.54,25.41,3.68,8.58,7.21,8.8,12.6,9.24,19.09.44,6.49-2.86,29.93-16.06,35.76-5.62,11.88-13.64,23.66-49.4,17.38-16.83,10.45-27.28,10.78-38.06,5.61-5.13-3.37-9.04-6.33-11.14-10.21-1.2-2.2-1.81-4.69-1.73-7.72.22-8.36,5.63-13.57,5.63-13.57.61.58,1.27,1.14,1.96,1.69,6.49,5.17,14.63,8.58,14.63,8.58,6.28-.77,19.04-8.69,30.37-17.05,1.65-1.43,6.39-8.8,7.37-12.21.77-2.65,3.11-15.09,4.11-20.5h0c.15-.12,1.98-1.63,4.47-3.46.22-.05.43-.1.65-.14Z"/>
          <path class="cls-11" d="m131.36,56.48l-.36-3.39c.92,0,1.85,0,2.78.03l-.03,1.14s-.26.81-.69,2.22h-1.7Z"/>
          <path class="cls-11" d="m131.35,151.21c-5.28,1.44-17.66-.87-24.06-2.24h0c-2.42-.52-3.98-.9-3.98-.9l-1.16-8.91c-1.16-8.91-.91-28.28-.91-28.28,4.91-5.16,11.69-12.9,13.73-15.12,2.53-2.75,7.27-9.9,7.65-11.72,0,0-1.82-14.52-3.13-18.49,0,0,2.2-.16,4.73-1.6,2.53-1.43,7.15-7.48,7.15-7.48h1.7c-2.09,6.72-8.21,26.95-8.85,34.33-.77,8.91-6.41,46.71,4.77,54.46h.75c-.02,1.94.54,3.95,1.62,5.95Z"/>
          <path class="cls-11" d="m167.17,72.15c3.13,4.79,16.66,23.44,18.15,25.25,1.04,1.27,7.68,8.98,11.55,13.47,1.28,1.48,2.26,2.61,2.63,3.05-.16.11-.32.23-.47.34-1.23.27-2.58.58-4.01.92-13.45,3.22-34.55,9.22-44.52,13.13-9.47,3.72-16.04,7.43-18.98,11.6l-1.05-.7s0-.01,0-.04c-.17-.83-2.99-15.43-2.54-28.89.47-13.87,17.3-47.21,19.27-46.55l2.97-7.26c3.85,2.97,13.86,10.89,17,15.67Z"/>
          <path class="cls-2" d="m123.78,46.47c.28.1,7.25,2.77,6.92,3.85-.3,1.01-3.31,3.21-4.99,3.81.85-1.4,1.16-2.91.92-3.81-.3-1.18-2.7-3.69-2.85-3.85Z"/>
          <path class="cls-11" d="m119.48,65.55c-.52-1.57-1.51-3.48-2.93-5.28,3.45-.5,6.45-3.13,8.1-4.78.42-.42.77-.88,1.06-1.36,1.68-.61,4.69-2.8,4.99-3.81l.3,2.77.36,3.39s-4.62,6.05-7.15,7.48c-2.53,1.43-4.73,1.6-4.73,1.6Z"/>
          <path class="cls-8" d="m110.24,1.44c2.15,1.82,5.36,4.78,6.11,10.23.03.25.07.5.1.76.59,4.18,1.3,7.83,1.54,9.05.05.28.08.43.08.43.74,1.9.99,4.12.99,4.12,1.32,1.16,4.71,9.74,5.14,11.63.44,1.9-.44,8.8-.44,8.8-1.16.55-2.39-.88-3.55-1.95,2.48.58,2.48-2.97,2.39-5.78s-2.56-3.88-4.38-3.88-2.55,1.9-1.69,4.71l-1.36-.33c-.9-1.16-2.06-8.42-2.23-11.14-1.89.91-16.58,1.33-16.58,1.33-.58-1.57-1.74-5.45,2.81-7.01,4.54-1.57,10.23-1.98,11.05-1.98-3.71-7.43-5.94-14.27-4.7-17.08,1.23-2.81,2.55-3.72,4.7-1.9Z"/>
          <path class="cls-5" d="m117.75,84.49c-.08.9-3.05,5.65-4.71,7.14-1.65,1.49-17.49,18.65-21.95,22.94-4.45,4.29-11.88,11.39-14.19,12.38-2.31.99-12.38.5-18.65,0,0,0,1.15-1.49,6.43-3.96s21.29-10.89,25.25-13.7c1.73-1.23,3.69-2.99,5.73-5.02,2.64-2.6,5.44-5.64,8.12-8.51,4.79-5.12,2.89-8.51,2.89-8.51,2.49-.8,6.89-2.08,11.06-2.76Z"/>
          <path class="cls-8" d="m106.29,42.17c-.33,0-.6-.27-.6-.59s.27-.6.6-.6.59.27.59.6-.27.59-.59.59Z"/>
          <path class="cls-5" d="m102.47,52.6c.04-.36.29-.7.67-.81,1.13-.34,2.84-.76,2.89-.26.03.3.1.7.05,1.07h-1.45s-.37-.41-.58,0c-.19.39-1.46.04-1.58,0Z"/>
          <path class="cls-5" d="m102.63,53.21c-.14-.19-.18-.4-.16-.61.12.04,1.39.39,1.58,0,.21-.41.58,0,.58,0h1.45c-.06.56-.35,1.09-1.28,1.23-1.09.17-1.73,0-2.17-.63Z"/>
          <path class="cls-11" d="m103.31,148.07c-1.82,1.16-17.83-3.96-19.97-6.11s-3.12-11.75-3.12-11.75c.49-.21.83-.4.98-.57.99-1.1,12.43-11.33,16.94-15.62.87-.83,1.93-1.91,3.1-3.14,0,0-.25,19.37.91,28.28l1.16,8.91Z"/>
          <path class="cls-11" d="m96.57,56.34c.59.87,1.4,1.42,2.51,1.59-4.3,3.94-8.89,10.52-13.92,17.14-.82,1.16-1.82,2.38-2.93,3.63l-1.02.1c-3.65,1-7.18,2.38-10.55,3.98.17-.27,5.52-8.64,7.14-11.01,1.65-2.42,8.09-11.99,11.25-13.31,3.17-1.32,7.35-1.98,7.35-1.98l.19-.14Z"/>
          <path class="cls-8" d="m95.69,42.62c0-.33.27-.6.6-.6s.59.27.59.6-.27.6-.59.6-.6-.27-.6-.6Z"/>
          <path class="cls-5" d="m106.69,87.25s1.9,3.39-2.89,8.51c-2.69,2.88-5.49,5.91-8.12,8.51l-.62-.51s.41-3.96.41-5.2-1.56-3.63-2.56-6.28c-.3-.81-.34-1.46-.26-1.98,3.17-.03,10.5-1.82,12.31-2.48.34-.12.94-.33,1.73-.58Z"/>
          <path class="cls-9" d="m95.69,42.62c0,.33.27.6.6.6s.59-.27.59-.6-.27-.6-.59-.6-.6.27-.6.6Zm10-1.04c0,.33.27.59.6.59s.59-.27.59-.59-.27-.6-.59-.6-.6.27-.6.6Zm-3.23,11.02c-.02.21.03.42.16.61.43.62,1.08.8,2.17.63.93-.15,1.22-.67,1.28-1.23.05-.37-.01-.77-.05-1.07-.05-.5-1.76-.08-2.89.26-.38.12-.63.45-.67.81Zm10.49-24.51c.17,2.73,1.33,9.99,2.23,11.14l1.36.33c-.86-2.81-.12-4.71,1.69-4.71s4.29,1.07,4.38,3.88.08,6.35-2.39,5.78c1.16,1.07,2.39,2.5,3.55,1.95h0c.15.16,2.55,2.68,2.85,3.85.24.9-.06,2.42-.92,3.81-.29.48-.64.94-1.06,1.36-1.65,1.65-4.65,4.29-8.1,4.78-2.15-2.74-5.3-5.24-9.28-5.94-2.63-.46-5.35.99-8.2,3.6-1.11-.17-1.91-.72-2.51-1.59-1.8-2.64-1.64-8.18-2-14.63-.66-5.28,1.82-12.29,1.82-12.29,0,0,14.69-.41,16.58-1.33Z"/>
          <path class="cls-11" d="m95.67,104.27c-2.04,2.03-4,3.79-5.73,5.02-3.96,2.81-19.97,11.22-25.25,13.7s-6.43,3.96-6.43,3.96c6.27.5,16.33.99,18.65,0,2.31-.99,9.73-8.09,14.19-12.38,4.46-4.29,20.3-21.45,21.95-22.94,1.65-1.49,4.62-6.23,4.71-7.14-4.17.68-8.57,1.96-11.06,2.76-.8.25-1.4.46-1.73.58-1.8.65-9.13,2.45-12.31,2.48-.08.52-.05,1.17.26,1.98,1,2.64,2.56,5.04,2.56,6.28s-.41,5.2-.41,5.2l.62.51Zm11.6-49.94c3.98.7,7.13,3.2,9.28,5.94,1.42,1.8,2.4,3.71,2.93,5.28,1.32,3.96,3.13,18.49,3.13,18.49-.38,1.82-5.11,8.96-7.65,11.72-2.04,2.22-8.82,9.96-13.73,15.12-1.17,1.23-2.24,2.31-3.1,3.14-4.51,4.29-15.95,14.52-16.94,15.62-.16.17-.49.36-.98.57-2.72,1.14-10.21,2.71-17.94,3.17-9.13.55-24.13.44-24.13.44-.23-3.63-.35-6.95-.32-10.01.08-11.6,2.2-19.25,7.95-24.21,5.49-4.74,14.37-11.85,24.87-16.81h0c3.37-1.6,6.91-2.98,10.55-3.98l1.02-.1c1.12-1.25,2.11-2.48,2.93-3.63,5.03-6.63,9.62-13.21,13.92-17.14,2.84-2.61,5.57-4.06,8.2-3.6Z"/>
          <path class="cls-11" d="m83.33,141.96c2.15,2.15,18.16,7.27,19.97,6.11,0,0,1.56.39,3.98.9-.38.09-14.41,3.38-24.2,4.53-.36-2.88.25-11.54.25-11.54Z"/>
          <path class="cls-7" d="m107.29,148.97c6.4,1.38,18.78,3.68,24.06,2.24.63,1.18,1.43,2.37,2.4,3.52.7.84,1.49,1.67,2.36,2.48,0,0-5.41,5.21-5.63,13.57-.08,3.03.54,5.52,1.73,7.72-10.62,2.79-24.87,9.08-43.43,16.01-.47-.3-.98-2.14-1.47-4.87-1.98-10.72-3.98-35.27-3.98-35.27-.11-.11-.19-.42-.25-.89,9.79-1.15,23.82-4.44,24.2-4.53h0Z"/>
          <path class="cls-11" d="m62.27,133.38c7.73-.47,15.22-2.04,17.94-3.17,0,0,.98,9.61,3.12,11.75,0,0-.61,8.66-.25,11.54-.04,0-.07,0-.11.01-.7-2.15-15.31-16.67-20.7-20.13Z"/>
          <path class="cls-4" d="m62.27,133.38c5.39,3.46,20,17.99,20.7,20.13.04,0,.07,0,.11-.01.06.47.14.78.25.89,0,0,2,24.54,3.98,35.27,0,0-.5,0-4.96-2.31-1.91-.99-4.72-2.52-7.59-4.27-3.57,3.57-25.66,2.33-40.26-5.3-14.85-7.76-17.99-30.2-14.19-42.58,3.8-12.38,17.52-11.39,17.52-11.39h0c-.03,3.06.1,6.39.32,10.01,0,0,15,.11,24.13-.44Z"/>
        </g>
        <g>
          <path class="cls-3" d="m55.45,101.7s17.63-12.74,26.77-22.99c1.12-1.25,2.11-2.48,2.93-3.63,5.03-6.63,9.62-13.21,13.92-17.14,2.84-2.61,5.57-4.06,8.2-3.6,3.98.7,7.13,3.2,9.28,5.94,1.42,1.8,2.4,3.71,2.93,5.28,1.32,3.96,3.13,18.49,3.13,18.49-1.49,0-3.15.17-4.87.45-4.17.68-8.57,1.96-11.06,2.76-.8.25-1.4.46-1.73.58-1.8.65-9.13,2.45-12.31,2.48h-.07"/>
          <path class="cls-3" d="m107.6,60.27s-.83,8.75-2.81,12.05c-1.98,3.3-11.06,16.34-11.06,16.34,0,0-.88.48-1.09,1.65-.08.52-.05,1.17.26,1.98,1,2.64,2.56,5.04,2.56,6.28s-.41,5.2-.41,5.2"/>
          <path class="cls-3" d="m106.69,87.25s1.9,3.39-2.89,8.51c-2.69,2.88-5.49,5.91-8.12,8.51-2.04,2.03-4,3.79-5.73,5.02-3.96,2.81-19.97,11.22-25.25,13.7s-6.43,3.96-6.43,3.96c6.27.5,16.33.99,18.65,0,2.31-.99,9.73-8.09,14.19-12.38,4.46-4.29,20.3-21.45,21.95-22.94,1.65-1.49,4.62-6.23,4.71-7.14"/>
          <path class="cls-3" d="m70.64,82.78c3.37-1.6,6.91-2.97,10.55-3.98"/>
          <path class="cls-3" d="m122.61,84.04c-.38,1.82-5.11,8.96-7.65,11.72-2.04,2.22-8.82,9.96-13.73,15.12-1.17,1.23-2.24,2.31-3.1,3.14-4.51,4.29-15.95,14.52-16.94,15.62-.16.17-.49.36-.98.57-2.72,1.14-10.21,2.71-17.94,3.17-9.13.55-24.13.44-24.13.44-.23-3.63-.35-6.95-.32-10.01.08-11.6,2.2-19.25,7.95-24.21,5.49-4.74,14.37-11.85,24.87-16.81"/>
          <path class="cls-3" d="m70.63,82.79h0c.17-.28,5.52-8.64,7.14-11.02,1.65-2.42,8.09-11.99,11.25-13.31,3.17-1.32,7.35-1.98,7.35-1.98"/>
          <path class="cls-3" d="m116.54,60.27h0c3.45-.5,6.45-3.13,8.1-4.78.42-.42.77-.88,1.06-1.36"/>
          <path class="cls-3" d="m123.78,46.47c.28.1,7.25,2.77,6.92,3.85-.3,1.01-3.31,3.21-4.99,3.81-.14.05-.27.09-.38.12"/>
          <path class="cls-3" d="m130.7,50.32l.3,2.77.36,3.39s-4.62,6.05-7.15,7.48c-2.53,1.43-4.73,1.6-4.73,1.6"/>
          <path class="cls-3" d="m144.96,54.25c2.09.5,3.9,1.22,5.21,2.23,3.85,2.97,13.86,10.89,17,15.67,3.13,4.79,16.66,23.44,18.15,25.25,1.04,1.27,7.68,8.98,11.55,13.47,1.28,1.48,2.26,2.61,2.63,3.05.12.13.17.2.17.2-.21.05-.43.09-.65.14-1.23.27-2.58.58-4.01.92-13.45,3.22-34.55,9.22-44.52,13.13-9.47,3.72-16.04,7.43-18.98,11.6-.55.78-.97,1.56-1.26,2.37-.34.96-.52,1.96-.53,2.98-.02,1.93.54,3.94,1.62,5.94.63,1.18,1.43,2.37,2.4,3.52.7.84,1.49,1.67,2.36,2.48.61.58,1.27,1.14,1.96,1.69,6.49,5.17,14.63,8.58,14.63,8.58.33-5.28,2.09-8.03,5.28-12.54,3.19-4.51,13.21-13.86,14.74-14.08,1.1.77.22,3.85.66,5.72.44,1.87,8.91,4.29,9.68,3.85-11.33,8.36-24.09,16.28-30.37,17.05"/>
          <path class="cls-3" d="m131,53.08c.92,0,1.85,0,2.78.03.65.01,1.31.03,1.96.06,3.26.12,6.49.42,9.22,1.07"/>
          <path class="cls-3" d="m194.56,117.72c.28-1.55.47-2.53.47-2.53"/>
          <path class="cls-3" d="m183.07,150.43c1.65-1.43,6.39-8.8,7.37-12.21.77-2.65,3.11-15.09,4.11-20.5"/>
          <path class="cls-3" d="m196.87,110.87l2.04-2.91s6.17,1.03,7.05,1.45"/>
          <path class="cls-3" d="m194.55,117.73h0c.15-.12,1.98-1.63,4.47-3.46.16-.12.31-.23.47-.34,1.98-1.44,4.32-3.04,6.56-4.32,2.36-1.34,4.6-2.34,6.16-2.4,7.48-.95,16.83-3.54,25.41,3.68,8.58,7.21,8.8,12.6,9.24,19.09.44,6.49-2.86,29.93-16.06,35.76-5.62,11.88-13.64,23.66-49.4,17.38-16.83,10.45-27.28,10.78-38.06,5.61-5.13-3.37-9.04-6.33-11.14-10.21-1.2-2.2-1.81-4.69-1.73-7.72.22-8.36,5.63-13.57,5.63-13.57"/>
          <path class="cls-3" d="m37.81,123.81s-13.72-.99-17.52,11.39c-3.79,12.38-.66,34.82,14.19,42.58,14.6,7.63,36.69,8.87,40.26,5.3.06-.06.12-.12.17-.19"/>
          <path class="cls-3" d="m55.45,157.64s5.77,13.86,9.4,17.99c2.08,2.36,6.05,5.1,9.9,7.45,2.88,1.75,5.69,3.28,7.59,4.27,4.46,2.31,4.96,2.31,4.96,2.31"/>
          <path class="cls-3" d="m107.29,148.97c6.4,1.38,18.78,3.68,24.06,2.24"/>
          <path class="cls-3" d="m101.24,110.87s-.25,19.37.91,28.28l1.16,8.91s1.56.39,3.98.9"/>
          <path class="cls-3" d="m80.21,130.21s.98,9.61,3.12,11.75,18.16,7.27,19.97,6.11"/>
          <path class="cls-3" d="m83.33,141.96s-.61,8.66-.25,11.54c.06.47.14.78.25.89,0,0,2,24.54,3.98,35.27.5,2.73,1,4.56,1.47,4.87,18.56-6.93,32.81-13.22,43.43-16.01"/>
          <path class="cls-3" d="m62.27,133.38c5.39,3.46,20,17.99,20.7,20.13.04,0,.07,0,.11-.01,9.79-1.15,23.82-4.44,24.2-4.53h0"/>
          <path class="cls-3" d="m92.83,165.89s36.8-11.5,40.92-11.16"/>
          <path class="cls-3" d="m133.75,54.25s-.26.81-.69,2.22c-2.09,6.74-8.21,26.96-8.85,34.34-.77,8.91-6.41,46.71,4.77,54.46"/>
          <path class="cls-3" d="m130.47,139.22s0-.01,0-.04c-.17-.83-2.99-15.43-2.54-28.89.47-13.87,17.3-47.21,19.27-46.55,3.96,6.28,7.59,10.56,7.59,10.56,0,0-10.23,4.54-10.89,10.19"/>
          <path class="cls-3" d="m153.14,93.77c-3.3,5.61-10.23,19.47-16.83,27.39-6.35,7.63-5.88,17.3-5.84,18.01"/>
          <line class="cls-3" x1="147.2" y1="63.74" x2="150.17" y2="56.48"/>
          <path class="cls-3" d="m181.42,183.11s21.89-15.18,24.54-23.76"/>
          <path class="cls-3" d="m96.38,29.41c-.58-1.57-1.74-5.45,2.81-7.01,4.54-1.57,10.23-1.98,11.05-1.98-3.71-7.43-5.94-14.27-4.7-17.08,1.23-2.81,2.55-3.72,4.7-1.9s5.36,4.78,6.11,10.23c.03.25.07.5.1.76.59,4.18,1.3,7.83,1.54,9.05.05.28.08.43.08.43.74,1.9.99,4.12.99,4.12,1.32,1.16,4.71,9.74,5.14,11.63.44,1.9-.44,8.8-.44,8.8-1.16.55-2.39-.88-3.55-1.95,2.48.58,2.48-2.97,2.39-5.78s-2.56-3.88-4.38-3.88-2.55,1.9-1.69,4.71l-1.36-.33c-.9-1.16-2.06-8.42-2.23-11.14-1.89.91-16.58,1.33-16.58,1.33,0,0-2.48,7.01-1.82,12.29.37,6.46.2,12,2,14.63.59.87,1.4,1.42,2.51,1.59"/>
          <path class="cls-3" d="m117.99,21.48s3.22-3.37,3.88-2.13c.66,1.24,3.46,16.75,5.12,20.22,1.65,3.46,8.75,13.6,8.75,13.6"/>
          <path class="cls-3" d="m116.54,12.42c1.62-.66,5.13-2.72,7.79.49,2.66,3.22,6.86,8.25,7.03,14.28.17,6.02,2.89,16.34,7.84,21.12,4.8,4.64,5.71,5.86,5.76,5.93h0"/>
          <path class="cls-3" d="m95.38,41.95s2.95-.62,3.96,0"/>
          <path class="cls-3" d="m105.37,41.05s3.05-1,5.86-.66"/>
          <path class="cls-3" d="m100.66,40.68s-2.97,6.31-1.82,7.8c1.16,1.48,4.38.16,4.62,0"/>
          <path class="cls-3" d="m104.21,45.42s2.39,1.24,2.48,2.15"/>
          <path class="cls-3" d="m106.07,52.6c-.06.56-.35,1.09-1.28,1.23-1.09.17-1.73,0-2.17-.63-.14-.19-.18-.4-.16-.61.04-.36.29-.7.67-.81,1.13-.34,2.84-.76,2.89-.26.03.3.1.7.05,1.07Z"/>
          <path class="cls-3" d="m102.46,52.6h0c.12.04,1.39.39,1.58,0,.21-.41.58,0,.58,0h1.47"/>
          <path class="cls-3" d="m96.89,42.62c0,.33-.27.6-.59.6s-.6-.27-.6-.6.27-.6.6-.6.59.27.59.6Z"/>
          <path class="cls-3" d="m106.89,41.58c0,.33-.27.59-.59.59s-.6-.27-.6-.59.27-.6.6-.6.59.27.59.6Z"/>
          <path class="cls-3" d="m95.69,34.11s2.42-.41,3.41-.41"/>
          <path class="cls-3" d="m104.71,32.7c.66-.06,4.12-.48,4.12-.48"/>
        </g>
      </g>
      <path class="cls-2" d="m170.08,151.67c2.09-1.78.44,2.29-3.74,4.38-4.18,2.09-11.77,4.26-11.77,4.26l4.22-6.42s9.2-.43,11.29-2.21Z"/>
    </g>
  </g>
</svg>