<svg xmlns="http://www.w3.org/2000/svg" xmlns:xlink="http://www.w3.org/1999/xlink" viewBox="0 0 273.8 201.5" style="enable-background:new 0 0 273.8 201.5" xml:space="preserve"><style>.st0{fill:#f3edd7}.st1{fill:#333}.st3{fill:none;stroke:#000;stroke-miterlimit:10}.st5{fill:#e76859}.st6{fill:#80bdc2}.st7{fill:#c1ab3c}.st8{fill:#7bb094}.st9{fill:#ffefd6}.st11{fill:none;stroke:#000;stroke-linecap:round;stroke-linejoin:round;stroke-miterlimit:10}</style><g id="レイヤー_3"><g id="XMLID_00000039096862105843342900000005760561927215356845_"><path class="st0" d="M0 166.4h3.7v5.1H0zM273.8 194.4v6.7h-30.9l15.6-8.8c1 1.6 3.2 2.8 5.6 2.8 2.5 0 4.7-1.2 5.7-2.9l4 2.2zM273.8 183.7v10.7l-4-2.3c.4-.7.6-1.4.6-2.2 0-1.3-.6-2.5-1.6-3.4l5-2.8z"/><path class="st0" d="M273.8 171.5v12.2l-5.1 2.8c-1.2-1-2.8-1.7-4.7-1.7-1.8 0-3.4.6-4.5 1.5L233 171.4H273.8zM273.8 92.1V98H0v-5.9z"/><path class="st0" d="M269.8 166.4h4.1v5.1h-4.1zM270.4 190c0 .8-.2 1.5-.6 2.2l-5.5-3.1 4.5-2.5c1 .8 1.6 2 1.6 3.4z"/><path class="st0" d="m264.3 189 5.5 3.1c-1 1.7-3.2 2.9-5.7 2.9-2.4 0-4.5-1.1-5.6-2.8l5.8-3.2z"/><path class="st1" d="M258.3 166.4h11.5v5.1h-11.5z"/><path class="st0" d="m268.8 186.5-4.5 2.5-4.7-2.6c1.1-.9 2.7-1.5 4.5-1.5 1.9 0 3.5.6 4.7 1.6z"/><path class="st0" d="m264.3 189-5.8 3.3c-.4-.7-.7-1.5-.7-2.3 0-1.4.7-2.6 1.8-3.6l4.7 2.6z"/><path class="st0" d="m233.1 171.5 26.5 14.9c-1.1.9-1.8 2.2-1.8 3.6 0 .8.3 1.6.7 2.3l-15.6 8.8h-42.1l-15.9-8.9c.4-.7.6-1.4.6-2.2 0-1.3-.6-2.5-1.6-3.4l26.7-15h22.5zm-6 18.5c0-2.8-2.3-5.1-5.1-5.1s-5.1 2.3-5.1 5.1 2.3 5.1 5.1 5.1 5.1-2.3 5.1-5.1zM258.3 171.5h-31v-5.1h31z"/><path class="st1" d="M215.9 166.4h11.5v5.1h-11.5zM222 184.9c2.8 0 5.1 2.3 5.1 5.1s-2.3 5.1-5.1 5.1-5.1-2.3-5.1-5.1 2.3-5.1 5.1-5.1z"/><path class="st0" d="m210.7 171.5-26.7 15c-1.2-1-2.8-1.7-4.7-1.7-1.8 0-3.4.6-4.5 1.5l-26.5-14.9H210.7z"/><path class="st0" d="M184.9 171.5v-5.1h31v5.1h-5.2zM200.8 201.1h-42.7l15.6-8.8c1 1.6 3.2 2.8 5.6 2.8 2.5 0 4.7-1.2 5.7-2.9l15.8 8.9zM185.6 190c0 .8-.2 1.5-.6 2.2l-5.5-3.1 4.5-2.5c.9.8 1.6 2 1.6 3.4z"/><path class="st0" d="m179.5 189 5.5 3.1c-1 1.7-3.2 2.9-5.7 2.9-2.4 0-4.5-1.1-5.6-2.8l5.8-3.2z"/><path class="st1" d="M173.4 166.4h11.5v5.1h-11.5z"/><path class="st0" d="M179.3 184.9c1.9 0 3.5.6 4.7 1.7l-4.5 2.5-4.7-2.6c1.1-1 2.7-1.6 4.5-1.6z"/><path class="st0" d="m179.5 189-5.8 3.3c-.4-.7-.7-1.5-.7-2.3 0-1.4.7-2.6 1.8-3.6l4.7 2.6z"/><path class="st0" d="m148.3 171.5 26.5 14.9c-1.1.9-1.8 2.2-1.8 3.6 0 .8.3 1.6.7 2.3l-15.6 8.8H116l-15.9-8.9c.4-.7.6-1.4.6-2.2 0-1.3-.6-2.5-1.6-3.4l26.7-15h22.5zm-7.1 18.5c0-2.8-2.3-5.1-5.1-5.1s-5.1 2.3-5.1 5.1 2.3 5.1 5.1 5.1 5.1-2.3 5.1-5.1zM173.4 171.5H142.5v-5.1h30.9z"/><path class="st1" d="M131 166.4h11.5v5.1H131zM136.1 184.9c2.8 0 5.1 2.3 5.1 5.1s-2.3 5.1-5.1 5.1-5.1-2.3-5.1-5.1 2.3-5.1 5.1-5.1z"/><path class="st0" d="m125.8 171.5-26.7 15c-1.2-1-2.8-1.7-4.7-1.7-1.8 0-3.4.6-4.5 1.5l-26.5-14.9H125.8z"/><path class="st0" d="M131 171.5h-31v-5.1h31zM116 201.1H73.3l15.6-8.8c1 1.6 3.2 2.8 5.6 2.8 2.5 0 4.7-1.2 5.7-2.9l15.8 8.9zM100.7 190c0 .8-.2 1.5-.6 2.2l-5.5-3.1 4.5-2.5c1 .8 1.6 2 1.6 3.4z"/><path class="st0" d="m94.6 189 5.5 3.1c-1 1.7-3.2 2.9-5.7 2.9-2.4 0-4.5-1.1-5.6-2.8l5.8-3.2z"/><path class="st1" d="M88.5 166.4H100v5.1H88.5z"/><path class="st0" d="M94.4 184.9c1.9 0 3.5.6 4.7 1.7l-4.5 2.5-4.7-2.6c1.2-1 2.8-1.6 4.5-1.6z"/><path class="st0" d="m94.6 189-5.8 3.3c-.4-.7-.7-1.5-.7-2.3 0-1.4.7-2.6 1.8-3.6l4.7 2.6z"/><path class="st0" d="M63.5 171.5 90 186.4c-1.1.9-1.8 2.2-1.8 3.6 0 .8.3 1.6.7 2.3l-15.6 8.8H31l-15.9-8.9c.4-.7.6-1.4.6-2.2 0-1.3-.6-2.5-1.6-3.4l26.7-15H63.5zM54.8 190c0-2.8-2.3-5.1-5.1-5.1s-5.1 2.3-5.1 5.1 2.3 5.1 5.1 5.1 5.1-2.3 5.1-5.1zM88.5 171.5H57.6v-5.1h30.9z"/><path class="st1" d="M46.1 166.4h11.5v5.1H46.1zM49.7 184.9c2.8 0 5.1 2.3 5.1 5.1s-2.3 5.1-5.1 5.1-5.1-2.3-5.1-5.1 2.3-5.1 5.1-5.1z"/><path class="st0" d="M46.1 171.5h-31v-5.1h31zM31 201.1H0v-6.6l3.8-2.1c1 1.6 3.2 2.8 5.6 2.8 2.5 0 4.7-1.2 5.7-2.9l15.9 8.8zM15.7 190c0 .8-.2 1.5-.6 2.2L9.6 189l4.5-2.5c1 .9 1.6 2.1 1.6 3.5z"/><path class="st1" d="M3.7 166.4h11.5v5.1H3.7z"/><path class="st0" d="m9.6 189 5.5 3.1c-1 1.7-3.2 2.9-5.7 2.9-2.4 0-4.5-1.1-5.6-2.8l5.8-3.2zM9.4 184.9c1.9 0 3.5.6 4.7 1.7L9.6 189l-4.7-2.6c1.2-.9 2.7-1.5 4.5-1.5z"/><path class="st0" d="m9.6 189-5.8 3.3c-.4-.7-.7-1.5-.7-2.3 0-1.4.7-2.6 1.8-3.6l4.7 2.6z"/><path class="st0" d="m0 183.6 4.9 2.8c-1.1.9-1.8 2.2-1.8 3.6 0 .8.3 1.6.7 2.3L0 194.4v-10.8z"/><path style="fill:#d2d296" d="M215.9 166.4H0V98H273.8v68.4h-46.5z"/><path class="st0" d="M0 171.5h40.8l-26.7 15c-1.2-1-2.8-1.7-4.7-1.7-1.8 0-3.4.6-4.5 1.5L0 183.6v-12.1z"/><path class="st3" d="M273.8 201.1H0M0 92.1h273.8M0 98h273.8M269.8 166.4h4M227.3 166.4h31M184.9 166.4h31M142.5 166.4h30.9M100 166.4h31M57.6 166.4h30.9M15.1 166.4h31M0 166.4h3.7M269.8 171.5h4M227.3 171.5h31M184.9 171.5h31M142.5 171.5H173.4M100 171.5h31M57.6 171.5h30.9M15.1 171.5h31M0 171.5h3.7M73.3 201.1l15.5-8.8 5.8-3.3 4.5-2.5 26.7-15"/><path class="st3" d="m116 201.1-15.9-9-5.5-3.1-4.7-2.6-26.4-14.9M141.2 190c0 2.8-2.3 5.1-5.1 5.1s-5.1-2.3-5.1-5.1 2.3-5.1 5.1-5.1 5.1 2.3 5.1 5.1zM227.1 190c0 2.8-2.3 5.1-5.1 5.1s-5.1-2.3-5.1-5.1 2.3-5.1 5.1-5.1 5.1 2.3 5.1 5.1z"/><path class="st3" d="M99.1 186.5c1 .9 1.6 2.1 1.6 3.4 0 .8-.2 1.5-.6 2.2-1 1.7-3.2 2.9-5.7 2.9-2.4 0-4.5-1.1-5.6-2.8-.4-.7-.7-1.5-.7-2.3 0-1.4.7-2.6 1.8-3.6 1.1-.9 2.7-1.5 4.5-1.5 1.9.1 3.5.7 4.7 1.7zM0 194.4l3.8-2.1 5.8-3.3 4.5-2.5 26.7-15"/><path class="st3" d="m31 201.1-15.9-9-5.5-3.1-4.7-2.6-4.9-2.8"/><path class="st3" d="M14.1 186.5c1 .9 1.6 2.1 1.6 3.4 0 .8-.2 1.5-.6 2.2-1 1.7-3.2 2.9-5.7 2.9-2.4 0-4.5-1.1-5.6-2.8-.4-.7-.7-1.5-.7-2.3 0-1.4.7-2.6 1.8-3.6 1.1-.9 2.7-1.5 4.5-1.5 1.9.1 3.5.7 4.7 1.7zM158.1 201.1l15.6-8.8 5.8-3.3 4.4-2.5 26.8-15"/><path class="st3" d="m200.8 201.1-15.8-9-5.5-3.1-4.7-2.6-26.5-14.9"/><path class="st3" d="M183.9 186.5c1 .9 1.6 2.1 1.6 3.4 0 .8-.2 1.5-.6 2.2-1 1.7-3.2 2.9-5.7 2.9-2.4 0-4.5-1.1-5.6-2.8-.4-.7-.7-1.5-.7-2.3 0-1.4.7-2.6 1.8-3.6 1.1-.9 2.7-1.5 4.5-1.5 1.9.1 3.6.7 4.7 1.7zM242.9 201.1l15.6-8.8 5.8-3.3 4.5-2.5 5-2.8"/><path class="st3" d="m273.8 194.4-4-2.3-5.5-3.1-4.7-2.6-26.5-14.9"/><path class="st3" d="M268.8 186.5c1 .9 1.6 2.1 1.6 3.4 0 .8-.2 1.5-.6 2.2-1 1.7-3.2 2.9-5.7 2.9-2.4 0-4.5-1.1-5.6-2.8-.4-.7-.7-1.5-.7-2.3 0-1.4.7-2.6 1.8-3.6 1.1-.9 2.7-1.5 4.5-1.5 1.9.1 3.5.7 4.7 1.7zM54.8 190c0 2.8-2.3 5.1-5.1 5.1s-5.1-2.3-5.1-5.1 2.3-5.1 5.1-5.1 5.1 2.3 5.1 5.1zM3.7 166.4h11.5v5.1H3.7zM46.1 166.4h11.5v5.1H46.1zM88.5 166.4H100v5.1H88.5zM131 166.4h11.5v5.1H131zM173.4 166.4h11.5v5.1h-11.5zM215.9 166.4h11.5v5.1h-11.5zM258.3 166.4h11.5v5.1h-11.5z"/></g></g><g id="レイヤー_2"><defs><path id="SVGID_1_" d="M0-1h260.4v161.8H0z"/></defs><clipPath id="SVGID_00000173140637492934275620000005379998401592591488_"><use xlink:href="#SVGID_1_" style="overflow:visible"/></clipPath><g id="XMLID_00000041986626277118925480000003491163463285813151_" style="clip-path:url(#SVGID_00000173140637492934275620000005379998401592591488_)"><path class="st5" d="M259.8 98.6c2.4 2.6-2.4 10.7-12 21.2-7.5 8.2-19.5 9.2-28.3 8-2.5-.3-4.7-.8-6.6-1.4 5.7-3.7 11.4-8.6 14.7-11 5.4-4.1 23.5-14.6 32.2-16.8z"/><path class="st6" d="M255.3 94.5c1.8 1.2 3.3 2.6 4.5 4.1-8.7 2.1-26.8 12.7-32.3 16.8-3.3 2.5-9 7.4-14.7 11-1.8 1.2-3.6 2.2-5.4 3-1.9.9-3.8 1.5-5.4 1.6-2.7.2-5.7.2-8.5.2-1.8 0-3.5 0-4.9-.1-2.8-.1-4.7-.2-4.7-.2l-.5-4.3c6.1 1.4 17.9-3.5 27.6-8.7 7.1-3.8 13.1-7.6 15.1-9.1 4.6-3.6 15.4-11.7 29.2-14.3z"/><path class="st7" d="M250.3 91.7c1.8.8 3.5 1.7 5 2.8-13.8 2.6-24.6 10.7-29.2 14.4-1.9 1.5-8 5.4-15.1 9.1l-1.2-2.3c2-1 4-2.1 5.9-3.4 4.5-2.9 9.1-6.6 14.7-10.3 5.5-3.7 11.9-7.4 19.9-10.3z"/><path class="st7" d="M245.5 89.8c1.7.6 3.3 1.2 4.8 1.9-8 2.9-14.5 6.6-20 10.3l-1.4-2.1c7.4-5 13.2-9.3 16.6-10.1z"/><path class="st8" d="M189.9 103.2c.2-.1 6.9-2.9 14.3-6.6 8.1-4.1 17-9.2 18.8-12.8 6.1 1.9 14.9 3.4 22.6 6.1-3.5.8-9.3 5-16.6 10.1-7.3 5.1-16.1 11-25.4 15-15.8 6.8-20.9 5.7-20.9 5.7s-4.5.3-9.4.3c-1.8 0-3.7-.1-5.4-.2-1.1-.1-2.1-.2-3-.4-2.8 3.3-17.8 8.4-17.8 8.4l-.9-1.8c-1.8-4-6.7-14.4-3.7-20.7.9-1.8 2.4-3.3 4.9-4.1 2.8-1 5.6-1.4 8.2-1.6 7.6-.4 14.5 1.7 21.6 2.3 3.5.2 8 .3 12.7.3z"/><path class="st7" d="m229 99.9 1.4 2.1c-5.5 3.7-10.2 7.5-14.7 10.3-1.9 1.2-3.9 2.3-5.9 3.4-8.8 4.5-18.3 7.3-26.4 8.9h-.2l-.5-4s5.1 1.1 20.9-5.7c9.3-4 18.1-9.9 25.4-15z"/><path class="st8" d="M226.7 62.8s-2 18.6-3.8 20.9c-1.8 3.6-10.7 8.8-18.8 12.8-.3-1.1-.6-2.2-.9-3.2h.1s14.1-18.6 23.4-30.5z"/><path class="st7" d="M223 58c1.3 1.4 2.5 2.9 3.8 4.7-9.3 11.9-23.5 30.5-23.5 30.5h-.1c-.8-2.6-1.5-4.9-2.1-7-.1-.2-.1-.5-.2-.7.8-.8 22.1-27.5 22.1-27.5z"/><path class="st7" d="M220.4 55.5c.9.8 1.7 1.6 2.6 2.5l-22.1 27.6c-.4-1.4-.8-2.6-1.2-3.8.9-1.2 20.5-26.2 20.5-26.2l.2-.1z"/><path class="st7" d="m220.4 55.5-.1.2s-19.6 25-20.5 26.2c-.4-1.4-.8-2.6-1.2-3.7l19-24.8c.9.5 1.8 1.3 2.8 2.1z"/><path class="st5" d="m219.4 127.8-.1.4s-8.5 7.1-19.9 10.8l-.1-.3c4.2-1.4 8.1-9.3 8.1-9.3 1.7-.8 3.6-1.8 5.4-3 1.9.6 4.1 1.1 6.6 1.4z"/><path class="st8" d="M197.1 46.4c4.9 1.1 9.1 2 13.1 3.3 2.6.9 5 2 7.3 3.6l-19 24.8c-2.2-6.4-3.9-10-6.4-14-.5-.8-.9-1.5-1.4-2.2-1.4-2.1-2.9-4-4.5-5.8 1.8-2.2 2.3-7.3 2.4-12 3 .9 5.9 1.6 8.5 2.3z"/><path class="st7" d="m209.8 115.7 1.2 2.3c-9.7 5.1-21.5 10.1-27.6 8.7l-.2-2h.2c8.2-1.7 17.7-4.5 26.4-9z"/><path class="st5" d="M187.4 28.3s26 6.8 22.8 21.4c-3.9-1.4-8.2-2.2-13.1-3.3 0-7-8.5-9.1-8.5-9.1v-2c-.1-1.6-.5-4.1-1.2-7zM207.4 129.4s-3.9 7.9-8.1 9.3c-4.2 1.4-5.7-2.5-7-5.1.4-.7.8-1.5 1.2-2.4 2.8 0 5.8 0 8.5-.2 1.7-.1 3.5-.7 5.4-1.6z"/><path class="st8" d="M199.7 81.8c.4 1.2.8 2.5 1.2 3.8.1.2.1.4.2.7.6 2.1 1.3 4.4 2.1 7 .3 1 .6 2.1.9 3.2-7.3 3.7-14.1 6.5-14.3 6.6-4.7.1-9.2 0-12.5-.3-7.1-.6-14-2.7-21.6-2.3v-.1c-2.6-.1-1.3-8.3-1.3-8.3s-.4.2-1.4-3.1c-.7-2.4 1.2-6.3 3.4-9.1.9-1.1 1.8-2 2.7-2.5.7-.5 2.9-1.1 5.7-1.8 2-.5 4.4-1 6.9-1.5.7-1.2 20.2-10.2 18.8-12.4.5.7.9 1.4 1.4 2.2 2.5 4.1 4.2 7.6 6.4 14 .6 1.3 1 2.6 1.4 3.9z"/><path class="st5" d="m199.3 138.7.1.3c-4.3 1.4-9.1 2.3-13.9 2.1 2.2-1 4.5-3.2 6.8-7.5 1.4 2.7 2.8 6.5 7 5.1z"/><path class="st9" d="M188.6 37.3s8.5 2.1 8.5 9.1c-2.6-.6-5.5-1.3-8.5-2.3v-6.8z"/><path class="st5" d="m193.5 131.2-1.2 2.4c-2.3 4.2-4.6 6.5-6.8 7.5-4.1 1.9-7.9-.7-10.8-2.8 4.6-1.9 9.1-4.5 13.9-7.1v-.1c1.4.1 3.1.1 4.9.1z"/><path class="st8" d="M190.7 61.9c1.4 2.2-18 11.2-18.8 12.4-2.5.5-4.9 1-6.9 1.5.3-1.5 1.1-3.2 2-5.1.5-.3 15.7-8.4 17.8-9.1 2.1-.9 4.9-1.1 5.9.3z"/><path class="st6" d="M188.6 131.2c-4.8 2.6-9.2 5.2-13.9 7.1-2.1.9-4.3 1.6-6.6 2.1-2.4.6-5 .9-7.7.8-1.9 0-3.9-.2-6-.6 0 0-.5-.8-1.4-2 9.8-3.8 12.9-1.5 22.7-10.8 0 0 2.6 2.1 8.1 3.1.1.1 2 .2 4.8.3z"/><path class="st1" d="M188.6 37.3c0 1.9.1 4.3 0 6.8-.1 4.8-.6 9.8-2.4 12-1.6-1.8-3.4-3.7-5.6-5.9l-3.6-3.6-1.2-1.2c7.9-1 8.3-5.9 9.2-11.5.7-4-.3-8.9-1.4-12.4l1.6-.5c.8 2.5 1.5 5.1 2.1 7.5.7 2.8 1.1 5.3 1.1 6.9.1.4.1 1.1.2 1.9z"/><path class="st8" d="M186.2 56.1c1.6 1.8 3.1 3.7 4.5 5.8-.9-1.4-3.8-1.1-5.9-.4-2.1.7-17.3 8.9-17.8 9.1 4.4-8.7 13.6-20.4 13.6-20.4 2.2 2.2 4 4.1 5.6 5.9z"/><path class="st1" d="m185.3 20.8-1.6.5c-.7-2.1-1.4-3.8-1.9-4.5-1.4-2-5.1-3.1-9.2-1.8s-4.6 4.8-4.6 11.6c0 6.7-3.8 14-5.2 15.6-.9-1.7-2.1-3.4-3.6-5-1.8-2-3.6-3.2-5.4-4 .9-2 1.9-4.7 3-7.6 1-2.6 2.1-5.5 3.3-8 2.1-4.7 4.5-8.6 7-9.3 5.4-1.5 12-2.5 14.9 3.5 1 2.4 2.2 5.7 3.3 9z"/><path d="m175.8 45.4 1.2 1.2s-8.8 13.1-12 14.1c1.1-6.3.8-12.6-2.3-18.4 1.4-1.6 5.2-8.9 5.2-15.6 0-6.8.5-10.3 4.6-11.6 4.1-1.3 7.8-.2 9.2 1.8.5.7 1.3 2.4 1.9 4.5 1.1 3.6 2.1 8.4 1.4 12.4-.9 5.6-1.2 10.6-9.2 11.6zm7.4-23.7c0-.4-.5-.8-1.1-.8-.6 0-1.1.3-1.1.8s.5.8 1.1.8c.7 0 1.1-.4 1.1-.8zm-8-.4c0-.4-.6-.8-1.4-.8-.8 0-1.4.3-1.4.8s.6.8 1.4.8c.7 0 1.4-.4 1.4-.8z" style="fill:#fcecca"/><path class="st5" d="m183.4 126.7.5 4.3c-5.5-1-8.1-3.1-8.1-3.1 2-1.9 4.2-4.3 6.9-7.2l.5 4 .2 2z"/><path class="st1" d="M182.2 20.9c.6 0 1.1.3 1.1.8s-.5.8-1.1.8c-.6 0-1.1-.3-1.1-.8s.5-.8 1.1-.8z"/><path class="st8" d="M180.6 50.2s-9.3 11.7-13.6 20.4c-.9 1.9-1.7 3.6-2 5.1-2.8.7-5 1.3-5.7 1.8-.9.6-1.8 1.5-2.7 2.5l-1.6-.7c5.3-6.8 8.9-13.1 9.7-17 .1-.6.2-1.2.3-1.7 3.3-.9 12-14.1 12-14.1 1.3 1.4 2.5 2.6 3.6 3.7z"/><path class="st7" d="M182.7 120.6c-2.6 3-4.9 5.4-6.9 7.2-9.8 9.4-12.9 7-22.7 10.8-.4-.6-.9-1.4-1.4-2.2-.4-.6-.8-1.2-1.2-1.9 10-.2 22.8-13.7 22.8-13.7 4.9.1 9.4-.2 9.4-.2z"/><ellipse class="st1" cx="173.8" cy="21.3" rx="1.4" ry=".8"/><path class="st9" d="M168.1 140.5c.7 2.8 4.6 7.8 4.6 7.8s-6.5.9-8.4.6c-1.8-.3-4-7.6-4-7.6 2.9 0 5.4-.3 7.8-.8z"/><path class="st7" d="M168 120.7c1.7.1 3.5.2 5.4.2 0 0-12.7 13.5-22.8 13.7-.7-1.1-1.4-2.3-2-3.4 9.4-1.4 19.4-10.3 19.4-10.3v-.2z"/><path class="st7" d="m147.5 129.3-.3-.6s15-5.1 17.8-8.4c.9.2 1.9.3 3 .4v.2s-10.1 9-19.4 10.3c-.4-.6-.8-1.2-1.1-1.9z"/><path class="st8" d="M162.7 42.3c3.1 5.8 3.3 12 2.3 18.4-.1.6-.2 1.2-.3 1.7-.8 3.8-4.4 10.2-9.7 17-1.5 1.9-3 3.8-4.7 5.7-.3 4-3.3 12.1-7.9 21-.4.8-.9 1.6-1.3 2.5-2.3 4.3-6.2 7.6-10.1 9.9-5.1 3-10.3 4.6-12.5 5-.5.1-1.5.3-2.8.5l.3-.6c2.7-4.1 5-19.8 5.8-27.8.9-8.7 3.7-16.3 7.7-22.5.1-.2.2-.4.4-.6.7-1.1 1.4-2.2 2.1-3.2.7-1.1 1.5-2.1 2.3-3.1 1-1.2 1.9-2.4 2.9-3.4 1.5-1.6 2.9-3 4.3-4.2l-1.9-1.6c-1.1-3.7-11-19.8-11-19.8 4.3-1.8 8.6-3.3 11-3.8 2.2-.4 4.6-1 7-1.2 2.4-.2 5-.1 7.5 1 1.8.8 3.6 2.1 5.4 4 1.1 1.7 2.3 3.4 3.2 5.1z"/><path class="st5" d="M160.1 17.7c-1.2 2.6-2.3 5.4-3.3 8-4.4-2.4-19.4-1.6-33.5 0-8.4.9-17.2 6.3-24.4 12 .9-.8 3.7-3.1 7-5.8 1.4-1.1 2.9-2.3 4.4-3.6 1.8-1.4 3.6-2.9 5.3-4.3 3.3-2.6 6.3-4.9 7.7-5.8 4-2.6 11.6-6.5 13.7-7.6 5 0 7 2.1 10.5 3.8 4.3 2.2 9 3 12.6 3.3z"/><path class="st8" d="m155 79.4 1.6.7c-2.2 2.8-4.1 6.7-3.4 9.1.9 3.3 1.4 3.1 1.4 3.1s-1.3 8.2 1.3 8.3v.1c-2.7.2-5.4.6-8.2 1.6-2.5.8-4 2.3-4.9 4.1l-.3-.2c4.6-9 7.6-17.1 7.9-21 1.5-2 3.1-3.9 4.6-5.8zM156.8 25.7c-1.1 2.9-2.1 5.6-3 7.6-2.5-1.1-5.1-1.3-7.5-1-15.2-1.1-23 1-36 8.1-8.5 4.6-19 12.9-19 12.9L86.6 49c2.9-3 7-7.1 11.9-10.9l.1-.1c.1-.1.2-.1.2-.2 7.3-5.8 16.1-11.1 24.4-12 14.2-1.7 29.2-2.4 33.6-.1z"/><path class="st9" d="M150.6 134.7c.4.7.8 1.3 1.2 1.9 0 0-5 6.7-6.3 12.7-1.1 1.4-8.4 1.4-8.4 1.4l11.6-19.3c.5 1 1.2 2.2 1.9 3.3z"/><path class="st5" d="m147.2 128.8.3.6c-7.2 9.2-30.4 14.2-37.2 13.3 8.7-4.7 18.4-18.5 20.6-24.1 3.9-2.4 7.8-5.6 10.1-9.9.4-.8.9-1.7 1.3-2.5l.3.2c-3 6.2 1.9 16.6 3.7 20.7.3.4.6 1 .9 1.7z"/><path class="st8" d="M141.2 58.6c-1.4 1.2-2.8 2.6-4.3 4.2-.9-6.4-12.2-24-12.2-24 1.2-.5 2.4-1 3.5-1.5 0 0 9.9 16 11 19.8l2 1.5z"/><path class="st7" d="M110.2 40.4c13-7.1 20.8-9.2 36-8.1-2.4.2-4.8.8-7 1.2-2.4.4-6.7 2-11 3.8-1.2.5-2.4 1-3.5 1.5-1.3.6-2.6 1.1-3.7 1.6-3.4 1.5-5.8 2.6-5.8 2.6C107.8 46.4 94 55.8 94 55.8l-2.8-2.6c.1.1 10.5-8.2 19-12.8z"/><path class="st5" d="M106 13.8c-.4-.2-.7-.3-1.1-.5-5-1.9-10.4-2.2-15.2-1.2 2.3-2.6 8.2-5.7 14.1-8.6 7.8-3.8 10.4-.6 16 3.7s5.4 5 13.5 3.8c1.5-.2 2.7-.3 3.8-.3-2.1 1.1-9.7 5-13.7 7.6-1.5.9-4.4 3.2-7.7 5.8-.2-1.1-4.2-7.5-9.7-10.3z"/><path class="st7" d="M137 62.8c-1 1-1.9 2.2-2.9 3.4-.4-7.3-13-25.8-13-25.8 1.1-.5 2.4-1.1 3.7-1.6 0 0 11.2 17.6 12.2 24z"/><path class="st7" d="M134.1 66.2c-.8 1-1.5 2-2.3 3.1-.6-1.8-1.3-3.5-2.1-5.2-5.6-12.1-14.4-21-14.4-21s2.4-1.1 5.8-2.6c0-.1 12.5 18.4 13 25.7z"/><path class="st5" d="M123.3 76.2c-1.3.8-2.5 1.5-3.2 2-.1.1-.2.2-.4.5-.1.1-.2.2-.4.3l-.3-.3s7.2-12.9 10.7-14.6c.8 1.7 1.5 3.4 2.1 5.2-.7 1-1.4 2.1-2.1 3.2 0 0-1.5.9-3.3 1.9-1 .6-2.1 1.2-3.1 1.8z"/><path class="st6" d="M118.4 123.6c2.2-.4 7.4-2 12.5-5-2.2 5.6-11.9 19.4-20.6 24.1-.8.4-1.6.8-2.4 1.1-3.8 1.3-11.5 2.5-21.1 1.2-6.8-.9-14.5-3.1-22.5-7.4-4.2-2.3-8.4-5.1-12.6-8.7-4.4-3.7-8.7-8.1-12.8-13.5 1.1.1 5.5-.7 11.3-2 0 0 17.4 16.2 25.9 18.8 8.8 2.7 28.3 11.5 39.6-8.2 1.2-.2 2.2-.3 2.7-.4z"/><path class="st7" d="M115.9 123.4c-.2.3-.3.5-.5.6-1 .1-2.1.3-3.4.5 2.3-2.6 6.5-19.7 7.3-27.6.8-8.1 4-18.1 7.1-22.6 1.8-1.1 3.3-1.9 3.3-1.9-.1.2-.2.4-.4.6-4 6.2-6.7 13.8-7.7 22.5-.8 8.1-3.1 23.8-5.7 27.9z"/><path class="st7" d="M123.3 76.2c1-.6 2.1-1.3 3.1-1.8-3.1 4.4-6.3 14.4-7.1 22.6-.8 7.8-5 24.9-7.3 27.6-1.2.2-2.4.3-3.7.5 2.1-2.8 7.9-19.6 8.6-26.7.7-7.6 4.1-19.5 6.4-22.2z"/><path class="st5" d="M115.1 47.2c0-1.4 0-2.8.2-4.1 0 0 8.9 8.9 14.4 21-3.5 1.7-10.7 14.6-10.7 14.6l-.8-.3s-.8-15.4-1.8-20c-.7-3.4-1.2-7.4-1.3-11.2z"/><path class="st7" d="M120.1 78.2c.7-.4 1.9-1.2 3.2-2-2.2 2.7-5.7 14.6-6.5 22.1-.7 7.1-6.6 23.9-8.6 26.7-1.4.2-2.9.4-4.4.6 1.1-.5 9.9-19 10.6-25.9.6-6.4 3.8-18.4 5.3-21 .1-.3.3-.4.4-.5z"/><path class="st6" d="M110.9 89.1c1.6-2.9 3.9-5.7 6.6-8.4.6-.6 1.2-1.2 1.8-1.7.1-.1.2-.2.4-.3-1.6 2.6-4.7 14.6-5.3 21-.7 7-9.5 25.4-10.6 25.9-6.1.8-12.6 1.7-16.7 2.5 5.3-2 12-6.3 14.9-10.6 2.3-3.5 4.2-8.8 5.3-13.8.5-2.3.9-4.6 1.1-6.6.2-2.2.9-4.5 2-6.7 0-.4.3-.8.5-1.3z"/><path class="st9" d="m119 78.7.3.3c-.6.6-1.3 1.1-1.8 1.7 0 0-22.7-7.7-30.9-10.3-8.2-2.6-23.4-5-41.1-8.2-10.9-2-20.5-9-24.3-12.5-2-1.8-4.6-4.6-6.7-7l.1-.1 10.9-9.2c1.1 1 2.8 2.6 4.7 4.3 4.4 4 10.3 8.9 14.2 10.7 5.7 2.5 18.3 10.9 31.2 11.5 12.9.7 28.7 6.7 30.5 7.1l12.2 11.3.7.4z"/><path class="st8" d="M118.3 78.3 106 67l-9.2-8.5s14.8-10.6 18.3-11.3c0 3.9.5 7.8 1.3 11.2 1.1 4.5 1.9 19.9 1.9 19.9z"/><path class="st9" d="M115.6 24.2c-1.7 1.4-3.5 2.8-5.3 4.3-7.2-1.3-4.7-12.7-4.3-14.6 5.5 2.7 9.5 9.1 9.6 10.3z"/><path class="st7" d="M115.4 124h.2c-11.3 19.7-30.9 10.9-39.6 8.2-8.5-2.6-25.9-18.8-25.9-18.8 1.5-.3 3-.6 4.7-1 0 0 11.3 12.2 22.4 16.6.3.1.5.2.8.3 0 0 9.1 3.2 12.3 3.8 2.1.4 9.5 1.7 15.5-2 3.3-2.1 6-6.2 6-6.2.1-.1.2-.1.2-.2 1.2-.3 2.4-.5 3.4-.7zM115.3 43c-.1 1.4-.2 2.7-.2 4.1-3.5.7-18.3 11.3-18.3 11.3L95.3 57 94 55.8s13.8-9.4 21.3-12.8z"/><path class="st9" d="M117.5 80.8c-2.7 2.7-4.9 5.5-6.6 8.4-6.9-3-35.3-8.8-48.1-9.5-12.8-.8-23.4-5-40-10.3C6.1 64-2.5 51.3-2.5 51.3L11 38.8s1.5 1.8 3.4 4c2.1 2.3 4.7 5.2 6.7 7 3.9 3.5 13.4 10.6 24.3 12.5 17.7 3.2 32.9 5.6 41.1 8.2 8.3 2.6 31 10.3 31 10.3z"/><path class="st7" d="m111.9 124.5-.2.2s-2.7 4.2-6 6.2c-5.9 3.7-13.3 2.5-15.5 2-3.2-.6-12.3-3.8-12.3-3.8-.3-.1-.5-.2-.8-.3l.1-.2c1.1.4 2.9.6 5.7.3 0 0 .1.1.2.1 18 4.5 21.7-1 24.7-3.9.1-.1.2-.2.3-.4 1.4.2 2.7 0 3.8-.2z"/><path class="st9" d="M110.9 89.1c-.3.4-.5.9-.7 1.3-3.3 1.4-6.4 3.8-9.3 6.5-2.5-3.6-19.2-3.7-37.9-5.3-29 1.2-52.6-10.4-65.5-15.4h-.4l.4-24.9s8.6 12.7 25.3 18c16.6 5.3 27.2 9.6 40 10.3 12.8.7 41.2 6.5 48.1 9.5z"/><path class="st5" d="M110.2 28.4c-1.5 1.2-3 2.4-4.4 3.6-11-2.1-16.7-14.4-17.2-17.5-.1-.6.1-1.1.5-1.8.1-.2.3-.4.5-.6 4.8-1 10.2-.8 15.2 1.2.4.2.8.3 1.1.5-.4 1.9-2.9 13.3 4.3 14.6z"/><path class="st8" d="M110.2 90.4c-1.1 2.2-1.8 4.5-2 6.7-.2 2-.5 4.3-1.1 6.6-5.3 1.4-14.1 5-20.5 10.2 2.8-3.7 6.3-8.5 10.4-13 .7-.8 1.5-1.6 2.2-2.3.6-.6 1.1-1.1 1.7-1.6 2.9-2.8 6.1-5.1 9.3-6.6z"/><path class="st7" d="M108.2 125c-.1.2-.2.3-.3.4-3 2.9-6.7 8.4-24.7 3.9-.1 0-.2-.1-.2-.1.3 0 .7-.1 1-.1.9-.2 2-.5 3.1-.9 4.1-.7 10.6-1.6 16.7-2.5 1.5-.3 3-.5 4.4-.7z"/><path class="st5" d="M107.2 103.8c-1.1 5-2.9 10.2-5.3 13.8-2.8 4.3-9.6 8.6-14.9 10.6-2.5.4-4.1.8-4.1 1-2.8.3-4.6.1-5.7-.3-1.8-.7-1.6-2.2-.5-4.1 1.3-2.3 4.1-5.1 6.7-7.9.9-1 2-2 3.1-2.9 6.5-5.3 15.4-8.8 20.7-10.2z"/><path class="st9" d="M96.9 58.5 106 67c-1.8-.4-17.6-6.4-30.5-7.1-12.9-.7-25.5-9-31.2-11.5-3.9-1.7-9.8-6.7-14.2-10.7l.2-.2C32 35.9 43 31.1 43 31.1c1.4 2.4 3.2 4.5 5.1 6.4 2.8 2.7 5.6 4.8 7.3 6 1 .6 1.6 1 1.6 1 .7.4 1.5.9 2.2 1.3 1.4.8 2.9 1.5 4.5 2.1 6.6 2.8 14 4.7 18.3 6 5.6 1.8 12.8 3 13.3 3l1.6 1.6zM12.5 103.1c-2.1.1-4.1.2-5.9.3-5.6.2-9.2.4-9.9.3l.1-6.4c4.6 3.4 47.1 1.3 63.5 1.4 16.5.1 40.6-1.6 40.6-1.6-.6.5-1.1 1.1-1.7 1.6 0 0-50.7 2.8-80.8 4.2-2.1 0-4.1.1-5.9.2zM88.6 13l.7-.2c-.4.6-.6 1.2-.5 1.8.5 3.1 6.1 15.4 17.2 17.5-3.3 2.7-6.1 5-7 5.8-.1.1-.2.1-.2.2l-.3-.1c-3.1-5.5-13.4-13.2-16.2-15.6-1.8-1.5-3.4-3.2-4.4-2.9l-.7-1.7c.3-.1.6-.2.9-.4 2.4-.9 7.9-4.4 10.5-4.4z"/><path class="st8" d="M99.2 98.6c-.8.8-1.5 1.5-2.2 2.3-.4.2-12.8 5.2-26.4 8-3.7.8-7.5 1.6-11.2 2.4-1.6.3-3.1.7-4.6 1-1.6.4-3.2.7-4.7 1-5.8 1.2-10.3 2.1-11.3 2-1.4-1.8-2.7.3-3.2 2.7-.1.5-.2 1.1-.4 1.8-7.6-3.5-16.7-17.1-16.7-17.1 30-1.3 80.7-4.1 80.7-4.1z"/><path class="st8" d="M97 101c-4 4.5-7.6 9.3-10.4 13-1.1.9-2.2 1.9-3.1 2.9-2.6 2.8-5.4 5.7-6.7 7.9-9.5-4.5-17.4-13.4-17.4-13.4 3.7-.8 7.5-1.6 11.2-2.4 13.5-2.9 26-7.9 26.4-8zM94 55.8l1.2 1.2c-.4-.1-7.7-1.2-13.3-3-4.2-1.3-11.7-3.2-18.3-6l.1-.3s11-10.4 14-11.1c.5 3.5 1.1 6.6 1.5 8 1 3.3 5 6.7 7.2 4.5l4.7 4.3 2.9 2.4z"/><path class="st5" d="M77.3 32.3c-.2-1.4-.3-2.7-.4-4-.2-2.3-.3-4.4-.2-5.9.1-1.9.5-2.8 1.1-2.9 1-.3 2.6 1.4 4.4 2.9 2.9 2.4 13.1 10.1 16.2 15.6-4.8 3.9-9 7.9-11.9 10.9-2.2 2.3-6.2-1.1-7.2-4.5-.4-1.4-1-4.4-1.5-8-.1-1.2-.3-2.7-.5-4.1z"/><path class="st9" d="M63 91.7c18.7 1.6 35.4 1.6 37.9 5.3 0 0-24.1 1.7-40.6 1.6-16.4-.1-58.9 2-63.5-1.4l.3-21h.4C10.4 81.2 34 92.8 63 91.7z"/><path class="st5" d="m86.7 144.9-.1.6c-8.8 6.8-18 9.3-26.4 9.6-8.5.3-16.1-1.8-21.5-4 0 0-6.2-4.3-10.1-7.2 0 0 24.7.7 35.6-6.4 8 4.3 15.7 6.5 22.5 7.4z"/><path class="st7" d="m77.2 17.8.7 1.7c-.6.2-.9 1-1.1 2.9-.1 1.5 0 3.5.2 5.9-10.1 2-21.5 15.2-21.5 15.2-1.7-1.2-4.6-3.2-7.3-6 4.3-9.4 17.5-15.3 29-19.7zM77.3 32.3c.2 1.4.3 2.8.5 4.2-3 .7-14 11.1-14 11.1l-.1.3c-1.6-.7-3.1-1.4-4.5-2.1l.1-.2s11.6-12 18-13.3zM77.3 128.8l-.1.2c-11.1-4.4-22.4-16.6-22.4-16.6 1.5-.3 3.1-.7 4.6-1 0 0 7.9 8.9 17.4 13.4-1.2 1.9-1.3 3.3.5 4z"/><path class="st7" d="M77 28.3c.1 1.3.2 2.6.4 4-6.5 1.3-18 13.3-18 13.3l-.1.2c-.8-.4-1.5-.9-2.2-1.3 0 0-.6-.4-1.6-1-.1 0 11.4-13.2 21.5-15.2z"/><path class="st5" d="M38.7 151.1c5.4 2.2 13 4.2 21.5 4-9.5 3.1-46.2.1-46.2.1.3 0 .5-.1.8-.1.6-.1 1.3-.2 1.9-.3 10.7-1.5 22-3.7 22-3.7z"/><path class="st5" d="M51.6 128.9c4.2 3.6 8.5 6.4 12.6 8.7-10.8 7.1-35.6 6.4-35.6 6.4-.3 1.4-6.9 7.8-12 10.9-.6.1-1.3.2-1.9.3-6.1.1-13.3-18.6-13.3-18.6l16.9-1.1.4-.5c5 3.5 10.9 5.8 12.9.5 6.8 0 20-6.6 20-6.6z"/><path class="st5" d="M34 124.4c.4-1.8.8-3.3 1.1-4.5.2-.7.3-1.3.4-1.8.5-2.4 1.8-4.5 3.2-2.7 4.2 5.4 8.5 9.8 12.8 13.5 0 0-13.1 6.6-20 6.6.2-.5.4-1.1.5-1.8.3-1.7.6-3.3.9-4.7.4-1.8.8-3.3 1.1-4.6zM28.7 143.9c3.9 2.9 10.1 7.2 10.1 7.2s-11.3 2.2-22 3.7c5-3.1 11.5-9.5 11.9-10.9z"/><path class="st7" d="M35.1 119.9c-.3 1.2-.7 2.6-1.1 4.5-10.2-4.7-21.1-20.7-21.5-21.2 1.8-.1 3.8-.2 5.9-.3 0 0 9.1 13.5 16.7 17z"/><path class="st7" d="M34 124.4c-.3 1.3-.7 2.8-1 4.5-13.1-5.9-26.4-25.5-26.4-25.5 1.8-.1 3.8-.2 5.9-.3.3.5 11.3 16.6 21.5 21.3z"/><path class="st6" d="M33 128.9c-.3 1.4-.6 3-.9 4.7-.1.7-.3 1.3-.5 1.8-2 5.2-7.9 2.9-12.9-.5-.6-.4-1.2-.9-1.7-1.3-5.7-4.5-20.3-20.2-20.3-20.2v-9.7c.7.1 4.4-.1 9.9-.3 0 0 13.3 19.6 26.4 25.5z"/><path class="st5" d="M1.5 136.5s7.2 18.6 13.3 18.6c-.3 0-.6.1-.8.1-1.4.2-2.7.4-4 .5-12.2 1.4-8.5-13.3-8.5-19.2z"/><path class="st11" d="M153.8 33.3s0 0 0 0c.9-2 1.9-4.7 3-7.6 1-2.6 2.1-5.5 3.3-8 2.1-4.7 4.5-8.6 7-9.3 5.4-1.5 12-2.5 14.9 3.5 1.1 2.3 2.3 5.5 3.4 8.9.8 2.5 1.5 5.1 2.1 7.5.7 2.8 1.1 5.3 1.1 6.9v2c0 1.9.1 4.3 0 6.8-.1 4.8-.6 9.8-2.4 12l-.2.2"/><path class="st11" d="M162.7 42.3s0 0 0 0c1.4-1.6 5.3-9 5.3-15.7 0-6.8.5-10.3 4.6-11.6 4.1-1.3 7.8-.2 9.2 1.8.5.7 1.3 2.4 1.9 4.5 1.1 3.6 2.1 8.4 1.4 12.4-.9 5.6-1.3 10.6-9.2 11.5-1.1.1-2.3.2-3.6.2"/><path class="st11" d="M171.9 27s1.8-.8 3.3-.8M180.7 26.2s1.5-.5 2.5-.5M180.7 30.4c.6 1.6.5 4 0 4.3-.5.2-1.5 0-1.5 0M178.4 38s2.5.3 3 0M98.8 37.8c7.3-5.8 16.1-11.1 24.4-12 14.1-1.6 29.2-2.4 33.5 0M98.6 37.9c.1-.1.2-.1.2-.2M95.3 57 94 55.8l-2.8-2.6-4.6-4.2c2.9-3 7-7.1 11.9-10.9M146.3 32.2c-2.4.2-4.8.8-7 1.2-2.4.4-6.7 2-11 3.8-1.2.5-2.4 1-3.5 1.5-1.3.6-2.6 1.1-3.7 1.6-3.4 1.5-5.8 2.6-5.8 2.6-.1 1.4-.2 2.7-.2 4.1 0 3.9.5 7.8 1.3 11.2 1 4.6 1.8 20 1.8 20L106 67l-9.2-8.5-1.5-1.5"/><path class="st11" d="M129.2 103.7c7.5-4.7 14.9-11.6 21-18.6 1.7-1.9 3.3-3.8 4.7-5.7 5.3-6.8 8.9-13.1 9.7-17 .1-.6.2-1.2.3-1.7 1.1-6.3.8-12.6-2.3-18.4-.9-1.7-2.1-3.4-3.6-5-1.8-2-3.6-3.2-5.4-4-2.5-1.1-5.1-1.3-7.5-1"/><path class="st11" d="M154.5 43s-1.6 6.4-5.4 9.4c-1.8 1.4-4.6 3.3-7.9 6.2-1.4 1.2-2.8 2.6-4.3 4.2-1 1-1.9 2.2-2.9 3.4-.8 1-1.5 2-2.3 3.1-.7 1-1.4 2.1-2.1 3.2-.1.2-.2.4-.4.6M128.3 37.3s9.9 16 11 19.8"/><path class="st11" d="M121.1 40.4s12.6 18.5 13 25.8M124.8 38.8s11.3 17.6 12.2 24M129.3 73.1c-4 6.2-6.7 13.8-7.7 22.5-.9 8-3.2 23.8-5.8 27.8-.2.3-.3.5-.5.6l-.1.1"/><path class="st11" d="M126.4 74.4c-3.1 4.4-6.3 14.4-7.1 22.6-.8 7.8-5 24.9-7.3 27.6l-.2.2M123.3 76.2c-2.2 2.7-5.7 14.6-6.5 22.1-.7 7.1-6.6 23.9-8.6 26.7-.1.2-.2.3-.3.4M123.3 76.2h0"/><path class="st11" d="M103.8 125.6c1.1-.5 9.9-19 10.6-25.9.6-6.4 3.8-18.4 5.3-21 .1-.2.3-.4.4-.5.7-.4 1.9-1.2 3.2-2 0 0 0 0 0 0 1-.6 2.1-1.3 3.1-1.8 1.8-1.1 3.3-1.9 3.3-1.9"/><path class="st11" d="M76.8 124.8c-1.1 1.9-1.3 3.4.5 4.1 1.1.4 2.9.6 5.7.3.3 0 .7-.1 1-.1.9-.2 2-.5 3.1-.9 5.3-2 12-6.3 14.9-10.6 2.3-3.5 4.2-8.8 5.3-13.8.5-2.3.9-4.6 1.1-6.6.2-2.2.9-4.5 2-6.7.2-.4.4-.9.7-1.3 1.6-2.9 3.9-5.7 6.6-8.4.6-.6 1.2-1.2 1.8-1.7.1-.1.2-.2.4-.3"/><path class="st11" d="M86.6 114c-1.1.9-2.2 1.9-3.1 2.9-2.6 2.8-5.4 5.7-6.7 7.9M107.4 103.7c-.1 0-.2 0-.2.1-5.3 1.4-14.1 5-20.5 10.2M97 101c.7-.8 1.5-1.6 2.2-2.3.6-.6 1.1-1.1 1.7-1.6 2.9-2.7 6.1-5.1 9.3-6.5h0M86.6 114s0 0 0 0c2.8-3.7 6.4-8.6 10.4-13"/><path class="st11" d="M97 101s0 0 0 0c-.4.2-12.9 5.2-26.4 8-3.7.8-7.5 1.6-11.2 2.4-1.6.3-3.1.7-4.6 1-1.6.4-3.2.7-4.7 1-5.8 1.2-10.3 2.1-11.3 2 4.2 5.4 8.5 9.8 12.8 13.5 4.2 3.6 8.5 6.4 12.6 8.7 8 4.3 15.7 6.5 22.5 7.4 9.6 1.3 17.4.1 21.1-1.2.8-.3 1.6-.6 2.4-1.1 8.7-4.7 18.4-18.5 20.6-24.1"/><path class="st11" d="M50.1 113.4s17.4 16.2 25.9 18.8c8.8 2.7 28.3 11.5 39.6-8.2l.3-.6c0-.1.1-.1.1-.2"/><path class="st11" d="M59.4 111.4s7.9 8.9 17.4 13.4h0"/><path class="st11" d="M54.7 112.4S66 124.6 77.1 129c.3.1.5.2.8.3 0 0 9.1 3.2 12.3 3.8 2.1.4 9.5 1.7 15.5-2 3.3-2.1 6-6.2 6-6.2"/><path class="st11" d="M107.8 125.4c-3 2.9-6.7 8.4-24.7 3.9-.1 0-.2-.1-.2-.1 0-.2 1.6-.6 4.1-1 4.1-.7 10.6-1.6 16.7-2.5 0 0 0 0 0 0 1.5-.2 3-.4 4.4-.6 1.3-.2 2.6-.4 3.7-.5 1.3-.2 2.5-.3 3.4-.5h.2c1.4-.2 2.3-.4 2.8-.5 2.2-.4 7.4-2 12.5-5 3.9-2.4 7.8-5.6 10.1-9.9.4-.8.9-1.7 1.3-2.5 4.6-9 7.6-17.1 7.9-21M119 78.7s7.2-12.9 10.7-14.6M146.3 32.2s0 0 0 0c-15.3-1.1-23 1-36.1 8.1-8.5 4.6-19 12.9-19 12.9"/><path class="st11" d="M94 55.8s13.7-9.4 21.2-12.8c0 0 8.9 8.9 14.4 21 .8 1.7 1.5 3.4 2.1 5.2"/><path class="st11" d="M96.9 58.5s14.8-10.6 18.3-11.3h.1M137.6 10.4l-.6.3c-2.1 1.1-9.7 5-13.7 7.6-1.5.9-4.4 3.2-7.7 5.8-1.7 1.4-3.5 2.8-5.3 4.3-1.5 1.2-3 2.4-4.4 3.6-3.3 2.7-6.1 5-7 5.8 0 0 0 0 0 0-.1.1-.2.1-.2.2h-.2c-3.1-5.5-13.4-13.2-16.2-15.6-1.8-1.5-3.4-3.2-4.4-2.9-.6.2-.9 1-1.1 2.9-.1 1.5 0 3.5.2 5.9.1 1.3.2 2.6.4 4s.3 2.8.5 4.2c.5 3.5 1.1 6.6 1.5 8 1 3.3 5 6.7 7.2 4.5"/><path class="st11" d="M160.1 17.7c-3.6-.3-8.3-1.1-12.6-3.2-3.5-1.7-5.5-3.8-10.5-3.8-1.1 0-2.4.1-3.8.3-8.1 1.2-7.9.5-13.5-3.8s-8.2-7.5-16-3.7c-5.8 2.9-11.7 6-14 8.6-.2.2-.3.4-.5.6-.4.6-.6 1.2-.5 1.8.5 3.1 6.1 15.4 17.2 17.5"/><path class="st11" d="M89.7 12.1c4.8-1 10.2-.8 15.2 1.2.4.2.8.3 1.1.5 5.5 2.8 9.5 9.2 9.6 10.3M88.7 13h-.1c-2.6 0-8 3.6-10.4 4.5-.3.1-.6.2-.9.4-11.5 4.4-24.7 10.3-29.1 19.8M63.9 47.6s11-10.4 14-11.1h.1M76.9 28.3c-10.1 2-21.5 15.2-21.5 15.2M59.3 45.6s11.5-12 18-13.3h.1"/><path class="st11" d="M95.3 57s0 0 0 0c-.5-.1-7.7-1.3-13.3-3-4.2-1.3-11.7-3.2-18.3-6-1.6-.7-3.1-1.4-4.5-2.1-.8-.4-1.5-.9-2.2-1.3 0 0-.6-.4-1.6-1-1.7-1.2-4.6-3.2-7.3-6-1.9-1.9-3.8-4-5.1-6.4 0 0-11 4.8-12.7 6.4"/><path class="st11" d="M106 67c-1.8-.4-17.6-6.4-30.5-7.1-12.9-.7-25.5-9-31.2-11.5-3.9-1.7-9.8-6.7-14.2-10.7-2-1.8-3.6-3.3-4.7-4.3l-10.9 9.2"/><path class="st11" d="M-2.5 51.3 11 38.8s1.5 1.8 3.4 4c2.1 2.3 4.7 5.2 6.7 7 3.9 3.5 13.4 10.6 24.3 12.5 17.7 3.2 32.9 5.6 41.1 8.2 8.2 2.6 30.9 10.3 30.9 10.3M-2.5 51.3s8.6 12.7 25.3 18c16.6 5.3 27.2 9.6 40 10.3 12.8.8 41.2 6.5 48.1 9.5h0M-2.5 76.2C10.4 81.2 34 92.8 63 91.7c18.7 1.6 35.4 1.6 37.9 5.3 0 0-24.1 1.7-40.6 1.6-16.4-.1-58.9 2-63.5-1.4 0 0-.1 0-.1-.1"/><path class="st11" d="m-2.5 51.3-.4 24.9-.3 21-.1 6.4c.7.1 4.4-.1 9.9-.3 1.8-.1 3.8-.2 5.9-.3 1.8-.1 3.8-.2 5.9-.3 30.1-1.5 80.8-4.2 80.8-4.2M-3.3 103.7v9.7s14.6 15.7 20.3 20.2c.6.4 1.1.9 1.7 1.3 5 3.5 10.9 5.8 12.9.5.2-.5.4-1.1.5-1.8.3-1.7.6-3.3.9-4.7.3-1.7.7-3.2 1-4.5.4-1.8.8-3.3 1.1-4.5.2-.7.3-1.3.4-1.8.5-2.4 1.8-4.5 3.2-2.7"/><path class="st11" d="M18.4 102.9s9.1 13.5 16.7 17.1M12.5 103.1s0 0 0 0c.3.5 11.3 16.6 21.5 21.2h.1M6.6 103.4S19.9 123 33 128.9M51.6 128.9s-13.1 6.6-20 6.6M60.2 155.1c8.4-.3 17.6-2.8 26.4-9.6M14.8 155.1c.6-.1 1.3-.2 1.9-.3 10.8-1.5 22-3.7 22-3.7 5.4 2.2 13 4.2 21.5 4M18.4 135.4l-16.9 1.1c0 5.9-3.7 20.6 8.4 19.2 1.3-.2 2.6-.3 4-.5.3 0 .5-.1.8-.1"/><path class="st11" d="M13.9 155.2s36.7 2.9 46.2-.1c0 0 0 0 0 0M16.7 154.8c5.1-3.1 11.6-9.5 12-10.9 3.9 2.9 10.1 7.2 10.1 7.2M28.7 143.9s24.7.7 35.6-6.4M1.5 136.5s7.2 18.6 13.3 18.6h0M110.2 142.6c6.8.9 30-4.2 37.2-13.3 0 0 0 0 0 0M189.9 103.2c.2-.1 6.9-2.9 14.3-6.6 8.1-4.1 17-9.2 18.8-12.8 6.1 1.9 14.9 3.4 22.6 6.1 1.7.6 3.3 1.2 4.8 1.9 1.8.8 3.5 1.7 5 2.8 1.8 1.2 3.3 2.6 4.5 4.1-8.7 2.1-26.8 12.7-32.3 16.8-3.3 2.5-9 7.4-14.7 11-1.8 1.2-3.6 2.2-5.4 3-1.9.9-3.8 1.5-5.4 1.6-2.7.2-5.7.2-8.5.2-1.8 0-3.5 0-4.9-.1-2.8-.1-4.7-.2-4.7-.2l-.5-4.3-.2-2-.5-4"/><path class="st11" d="M255.3 94.5c-13.8 2.6-24.6 10.7-29.2 14.4-1.9 1.5-8 5.4-15.1 9.1-9.7 5.1-21.5 10.1-27.6 8.7"/><path class="st11" d="M183.4 124.6c8.2-1.6 17.6-4.4 26.4-8.9 2-1 4-2.1 5.9-3.4 4.5-2.9 9.1-6.6 14.7-10.3 5.5-3.7 11.9-7.4 20-10.3M212.8 126.4c1.8.5 4.1 1 6.6 1.4 8.9 1.2 20.9.2 28.3-8 9.6-10.5 14.5-18.6 12-21.2"/><path class="st11" d="M188.6 131.2c-4.8 2.5-9.2 5.1-13.9 7.1-2.1.9-4.3 1.6-6.6 2.1-2.4.6-5 .9-7.7.8-1.9 0-3.9-.2-6-.6 0 0-.5-.8-1.4-2-.4-.6-.9-1.4-1.4-2.2-.4-.6-.8-1.2-1.2-1.9-.7-1.1-1.4-2.3-2-3.4-.4-.6-.7-1.3-1.1-1.9l-.3-.6-.9-1.8c-1.8-4-6.7-14.4-3.7-20.7.9-1.8 2.4-3.3 4.9-4.1 2.8-1 5.6-1.4 8.2-1.6 7.6-.4 14.5 1.7 21.6 2.3 3.3.3 7.8.4 12.5.3 0 0 0 0 0 0 9-.1 18.4-.9 20.1-2.4"/><path class="st11" d="M153.1 138.7c9.8-3.8 12.9-1.5 22.7-10.8 2-1.9 4.2-4.3 6.9-7.2 0 0 5.1 1.1 20.9-5.7 9.4-4 18.1-9.9 25.4-15 7.3-5.1 13.1-9.3 16.6-10.1h0"/><path class="st11" d="M175.8 127.9s2.6 2.1 8.1 3.1M174.7 138.3c2.8 2.1 6.6 4.6 10.8 2.8 2.2-1 4.5-3.2 6.8-7.5.4-.7.8-1.5 1.2-2.4"/><path class="st11" d="M192.3 133.6c1.3 2.7 2.8 6.5 7 5.1 4.2-1.4 8.1-9.3 8.1-9.3"/><path class="st11" d="M219.4 128.2s-8.5 7.1-19.9 10.8c-4.3 1.4-9.1 2.3-13.9 2.1M175.8 45.4l1.2 1.2 3.6 3.6c2.2 2.2 4 4.1 5.6 5.9 1.6 1.8 3.1 3.7 4.5 5.8.5.7.9 1.4 1.4 2.2 2.5 4.1 4.2 7.6 6.4 14 .4 1.1.8 2.4 1.2 3.7.4 1.2.8 2.5 1.2 3.8.1.2.1.4.2.7.6 2.1 1.3 4.4 2.1 7 .3 1 .6 2.1.9 3.2M188.6 44.1c3 .9 5.9 1.7 8.5 2.3 4.9 1.1 9.1 2 13.1 3.3 2.6.9 5 2 7.3 3.6 1 .7 1.9 1.4 2.9 2.2.9.8 1.7 1.6 2.6 2.5 1.3 1.4 2.5 2.9 3.8 4.7-9.3 11.9-23.5 30.5-23.5 30.5"/><path class="st11" d="M226.7 62.8s-2 18.6-3.8 20.9M223 58l-22.1 27.6M220.3 55.7s-19.6 25-20.5 26.2c0 0 0 0 0 0M217.5 53.3l-19 24.8M177 46.6s-8.8 13.1-12 14.1M167 70.6c-.9 1.9-1.7 3.6-2 5.1M180.6 50.2s-9.2 11.7-13.6 20.4M190 70.9s-9.6 1.6-18.1 3.3c-2.5.5-4.9 1-6.9 1.5-2.8.7-5 1.3-5.7 1.8-.9.6-1.8 1.5-2.7 2.5-2.2 2.8-4.1 6.7-3.4 9.1.9 3.3 1.4 3.1 1.4 3.1s-1.3 8.2 1.3 8.3M164.4 93.7s16.6-5.5 22.6-6c5.9-.5 14.1-1.6 14.2-1.4M167 70.6s0 0 0 0c.5-.3 15.7-8.4 17.8-9.2 2.1-.7 5-1 5.9.4 1.4 2.2-18 11.2-18.8 12.4M187.4 28.3s26 6.8 22.8 21.4v0M188.6 37.3s8.5 2.1 8.5 9.1v.2M106 13.5s0 .1-.1.3c-.5 1.9-3 13.3 4.3 14.6M160.5 141.3s2.1 7.3 4 7.6c1.8.3 8.4-.6 8.4-.6s-4-5-4.6-7.8M151.7 108.2l13.8 9.9M147.2 128.8s15-5.1 17.8-8.4c.9.2 1.9.3 3 .4 1.7.1 3.5.2 5.4.2 4.8 0 9.4-.3 9.4-.3"/><path class="st11" d="M168 120.9s-10.1 9-19.4 10.3L137 150.6s7.3 0 8.4-1.4c1.4-5.9 6.3-12.7 6.3-12.7"/><path class="st11" d="M173.3 120.9s-12.7 13.5-22.8 13.7"/></g></g></svg>