<?xml version="1.0" encoding="UTF-8"?>
<svg id="_レイヤー_1" data-name="レイヤー 1" xmlns="http://www.w3.org/2000/svg" viewBox="0 0 262.28 154.19">
  <defs>
    <style>
      .cls-1 {
        fill: #c1ab3c;
      }

      .cls-1, .cls-2, .cls-3, .cls-4, .cls-5, .cls-6, .cls-7 {
        stroke-width: 0px;
      }

      .cls-2 {
        fill: #e76859;
      }

      .cls-8 {
        fill: none;
        stroke: #000;
        stroke-linecap: round;
        stroke-linejoin: round;
      }

      .cls-3 {
        fill: #7bb094;
      }

      .cls-4 {
        fill: #333;
      }

      .cls-5 {
        fill: #fed7ac;
      }

      .cls-6 {
        fill: #ffefd6;
      }

      .cls-7 {
        fill: #80bdc2;
      }
    </style>
  </defs>
  <g>
    <path class="cls-7" d="m256.73,92.25c1.76,1.19,3.27,2.55,4.44,4.11-8.6,2.13-26.56,12.55-32,16.63-3.25,2.44-8.89,7.31-14.53,10.94-1.8,1.16-3.6,2.19-5.33,2.98-1.91.87-3.72,1.44-5.35,1.55-2.69.19-5.68.24-8.45.23-1.76,0-3.43-.03-4.87-.06-2.76-.07-4.64-.17-4.64-.17l-.51-4.3c6.53,1.51,19.54-4.28,29.53-9.75,6.09-3.33,11.08-6.54,12.79-7.91,4.52-3.63,15.24-11.63,28.91-14.24Z"/>
    <path class="cls-3" d="m164.99,40.55c3.07,5.72,3.28,11.93,2.23,18.21-.09.57-.2,1.14-.31,1.71-.77,3.81-4.37,10.08-9.6,16.83-1.44,1.86-3.01,3.76-4.67,5.66-.31,3.96-3.28,11.95-7.87,20.85-.42.81-.85,1.63-1.29,2.46-2.31,4.29-6.14,7.5-10.03,9.83-5.05,3.02-10.22,4.55-12.39,4.99-.49.1-1.47.26-2.8.45.12-.22.25-.44.37-.67.03-.04.04-.08.07-.12,2.59-4.31,4.82-19.53,5.65-27.38.9-8.6,3.62-16.19,7.58-22.3.12-.2.24-.41.36-.6.68-1.12,1.37-2.18,2.07-3.18.74-1.07,1.49-2.08,2.24-3.02h0c.97-1.23,1.93-2.35,2.88-3.38,1.45-1.57,2.86-2.94,4.2-4.13l-1.91-1.59c-1.11-3.69-10.86-19.57-10.86-19.57,4.24-1.75,8.48-3.33,10.86-3.75,2.2-.39,4.53-.98,6.93-1.21h.03c2.41-.24,4.91-.09,7.42,1.03,1.76.77,3.55,2.04,5.31,3.98,1.45,1.6,2.61,3.24,3.51,4.93Z"/>
    <path class="cls-1" d="m150.94,128.69c-.36-.65-.71-1.29-1.04-1.9-.11-.2-.2-.38-.29-.57,0,0,14.88-5.03,17.62-8.31.87.16,1.89.27,2.99.35l-.02.18s-9.99,8.89-19.26,10.23h0Z"/>
    <path class="cls-6" d="m65.99,77.51c12.69.75,40.86,6.46,47.7,9.44-.25.43-.47.87-.68,1.3-3.25,1.43-6.35,3.75-9.26,6.47-2.48-3.61-19.02-3.64-37.57-5.21-28.73,1.13-52.09-10.42-64.88-15.33h-.38s.38-24.7.38-24.7c0,0,8.56,12.54,25.01,17.79,16.46,5.26,26.99,9.48,39.68,10.24Z"/>
    <path class="cls-1" d="m125.91,74.19c-2.23,2.67-5.64,14.43-6.39,21.88-.71,7.04-6.49,23.68-8.54,26.48-1.4.19-2.87.38-4.38.59,1.06-.54,9.83-18.82,10.51-25.71.62-6.34,3.73-18.23,5.29-20.82.13-.23.27-.39.37-.46.66-.44,1.84-1.17,3.15-1.95Z"/>
    <path class="cls-3" d="m167.23,117.92c-2.74,3.28-17.62,8.31-17.62,8.31-.33-.63-.61-1.22-.86-1.78-1.77-3.98-6.62-14.31-3.64-20.48.86-1.79,2.38-3.23,4.82-4.05,2.82-.96,5.53-1.43,8.16-1.59,7.51-.45,14.38,1.64,21.42,2.23,3.25.27,7.75.37,12.38.31h0c.21-.09,6.86-2.9,14.14-6.57,8.02-4.03,16.8-9.11,18.6-12.72,6.07,1.88,14.76,3.41,22.41,6.07-3.43.79-9.18,5-16.39,10.02-7.22,5.02-15.91,10.85-25.18,14.85-15.62,6.73-20.68,5.66-20.68,5.66,0,0-4.5.29-9.28.27-1.8,0-3.64-.05-5.3-.18-1.1-.08-2.12-.2-2.99-.35Z"/>
    <path class="cls-4" d="m184,10.48c1.07,2.27,2.27,5.47,3.35,8.82l-1.61.51c-.67-2.12-1.42-3.77-1.92-4.5-1.36-1.97-5.05-3.02-9.13-1.74-4.07,1.29-4.52,4.75-4.52,11.48s-3.77,13.89-5.17,15.49c-.9-1.69-2.07-3.33-3.51-4.93-1.76-1.94-3.55-3.21-5.31-3.98.89-1.94,1.89-4.61,3-7.49,1-2.62,2.08-5.41,3.24-7.96,2.1-4.65,4.43-8.52,6.89-9.2,5.32-1.47,11.88-2.49,14.71,3.51Z"/>
    <path class="cls-1" d="m251.81,89.51c-7.97,2.84-14.33,6.52-19.81,10.21l-1.33-2.06c7.21-5.02,12.96-9.23,16.39-10.02,1.64.57,3.24,1.19,4.75,1.87Z"/>
    <path class="cls-2" d="m145.11,103.97c-2.98,6.16,1.86,16.49,3.64,20.48.25.56.53,1.15.86,1.78.09.19.19.37.29.57-7.13,9.06-30.15,14.09-36.88,13.19,8.64-4.7,18.25-18.31,20.43-23.89,3.89-2.33,7.72-5.54,10.03-9.83.44-.82.88-1.65,1.29-2.46l.34.17Z"/>
    <path class="cls-2" d="m189.47,26.7c.59.16,25.75,6.89,22.57,21.18-3.9-1.35-8.15-2.16-12.96-3.3.04-6.94-8.42-9.01-8.42-9.01h-.04c-.02-.76-.03-1.44-.03-2,0-1.58-.43-4.05-1.11-6.87Z"/>
    <path class="cls-2" d="m194.34,131.02c-2.27,4.19-4.56,6.42-6.75,7.4-4.1,1.84-7.87-.65-10.68-2.74,4.6-1.91,8.99-4.49,13.73-7v-.06c1.44.04,3.1.06,4.87.06-.39.83-.78,1.61-1.17,2.33Z"/>
    <path class="cls-2" d="m121.71,76.6s7.16-12.81,10.59-14.49c.76,1.66,1.46,3.38,2.07,5.15-.7,1-1.38,2.07-2.07,3.18,0,0-1.48.85-3.31,1.92h0c-.98.59-2.06,1.21-3.06,1.82h0c-1.31.79-2.49,1.52-3.15,1.96-.11.07-.24.23-.37.46-.12.12-.25.22-.37.34l-.31-.34Z"/>
    <path class="cls-6" d="m113.69,86.94c-6.84-2.98-35.01-8.68-47.7-9.44-12.7-.76-23.23-4.98-39.68-10.24C9.86,62.02,1.3,49.48,1.3,49.48l13.35-12.42s1.47,1.74,3.42,3.92c2.07,2.31,4.68,5.13,6.66,6.92,3.85,3.47,13.3,10.46,24.11,12.41,17.54,3.17,32.6,5.55,40.75,8.15,8.16,2.61,30.6,10.22,30.6,10.22-2.67,2.65-4.9,5.44-6.5,8.27Z"/>
    <path class="cls-4" d="m187.13,32.15c.67-3.97-.27-8.8-1.39-12.33l1.61-.51c.81,2.48,1.54,5.05,2.11,7.4.67,2.82,1.11,5.29,1.11,6.87,0,.56,0,1.23.03,2,.03,1.88.08,4.27,0,6.75-.11,4.74-.62,9.75-2.39,11.92-1.59-1.8-3.37-3.64-5.52-5.84-1.08-1.09-2.24-2.27-3.54-3.59-.37-.39-.76-.8-1.17-1.21,7.87-.98,8.21-5.85,9.14-11.44Z"/>
    <path class="cls-2" d="m261.17,96.35c2.4,2.55-2.41,10.59-11.92,21-7.43,8.14-19.29,9.09-28.09,7.93-2.47-.32-4.69-.82-6.52-1.36,5.65-3.64,11.28-8.5,14.53-10.94,5.44-4.08,23.39-14.5,32-16.63Z"/>
    <path class="cls-1" d="m251.81,89.51c1.77.82,3.43,1.71,4.92,2.73-13.67,2.62-24.39,10.61-28.91,14.24-1.71,1.37-6.7,4.58-12.79,7.91l-1.27-2.23c1.26-.69,2.5-1.43,3.72-2.21,4.44-2.86,9.05-6.54,14.52-10.23,5.48-3.69,11.84-7.37,19.81-10.21Z"/>
    <path class="cls-1" d="m230.67,97.66l1.33,2.06c-5.47,3.69-10.07,7.38-14.52,10.23-1.21.78-2.46,1.52-3.72,2.21-9.26,5.15-19.52,8.21-28.26,9.94l-.24.03-.46-3.96s5.06,1.07,20.68-5.66c9.28-4,17.97-9.83,25.18-14.85Z"/>
    <path class="cls-3" d="m228.42,60.86s-1.97,18.45-3.78,20.72c-1.8,3.61-10.59,8.68-18.6,12.72-.32-1.09-.62-2.14-.91-3.15l.05-.02s14.03-18.45,23.24-30.27Z"/>
    <path class="cls-1" d="m224.71,56.16c1.24,1.36,2.47,2.91,3.72,4.7-9.21,11.81-23.24,30.27-23.24,30.27l-.05.02c-.75-2.57-1.44-4.88-2.08-6.95-.06-.23-.13-.45-.2-.67.73-.99,21.86-27.36,21.86-27.36Z"/>
    <path class="cls-1" d="m222.14,53.64c.86.75,1.71,1.59,2.56,2.52,0,0-21.13,26.36-21.86,27.36-.41-1.35-.8-2.61-1.17-3.78.89-1.17,20.33-25.94,20.33-25.94l.14-.16Z"/>
    <path class="cls-1" d="m222.14,53.64l-.14.16s-19.44,24.77-20.33,25.94c-.43-1.34-.84-2.58-1.23-3.72l18.86-24.57c.96.65,1.91,1.37,2.84,2.19Z"/>
    <path class="cls-2" d="m221.16,125.28l-.04.41s-8.42,7.05-19.74,10.67l-.09-.27c4.19-1.37,8.03-9.18,8.03-9.18,1.73-.79,3.53-1.82,5.33-2.98,1.83.54,4.05,1.04,6.52,1.36Z"/>
    <path class="cls-3" d="m199.07,44.58c4.82,1.14,9.06,1.95,12.96,3.3,2.55.89,4.95,2,7.27,3.57l-18.86,24.57c-2.18-6.36-3.88-9.89-6.37-13.91-.46-.75-.91-1.45-1.37-2.13,0,0,0,0,0-.02,0,0,0-.02-.02-.03-1.43-2.11-2.85-3.89-4.45-5.7,1.76-2.17,2.28-7.18,2.39-11.92h.04c3.01.94,5.8,1.65,8.42,2.26Z"/>
    <path class="cls-1" d="m213.76,112.16l1.27,2.23c-9.99,5.47-23,11.26-29.53,9.75l-.24-2.02.24-.03c8.74-1.73,19-4.79,28.26-9.94Z"/>
    <path class="cls-2" d="m209.31,126.9s-3.83,7.81-8.03,9.18-5.62-2.43-6.94-5.06c.39-.72.78-1.5,1.17-2.33,2.77,0,5.76-.04,8.45-.23,1.62-.12,3.44-.68,5.35-1.55Z"/>
    <path class="cls-3" d="m203.05,84.19c.64,2.08,1.32,4.38,2.08,6.95.29,1.01.59,2.06.91,3.15-7.27,3.67-13.92,6.48-14.14,6.57h0c-4.63.06-9.13-.04-12.38-.31-7.04-.59-13.91-2.68-21.42-2.23v-.07c-2.58-.07-1.26-8.23-1.26-8.23,0,0-.41.15-1.33-3.09-.67-2.33,1.2-6.25,3.41-8.99.86-1.06,1.78-1.96,2.63-2.51.73-.47,2.86-1.08,5.68-1.76,2.03-.48,4.42-.98,6.89-1.48.73-1.15,19.86-10.05,18.59-12.22.46.67.91,1.37,1.37,2.13,2.49,4.03,4.19,7.56,6.37,13.91.39,1.14.8,2.38,1.23,3.72.37,1.17.76,2.43,1.17,3.78.07.22.14.44.2.67Z"/>
    <path class="cls-2" d="m201.29,136.08l.09.27c-4.28,1.37-8.97,2.24-13.78,2.07,2.19-.98,4.48-3.21,6.75-7.4,1.32,2.63,2.75,6.43,6.94,5.06Z"/>
    <path class="cls-6" d="m190.65,35.57s8.46,2.07,8.42,9.01c-2.62-.61-5.42-1.32-8.42-2.26h-.04c.07-2.47.02-4.87,0-6.75h.04Z"/>
    <path class="cls-3" d="m192.7,59.98c1.27,2.17-17.86,11.07-18.59,12.22-2.47.5-4.86,1-6.89,1.48.34-1.45,1.05-3.18,1.99-5.06h0c.59-.31,15.54-8.36,17.61-9.06,2.1-.71,4.91-1,5.84.38,0,0,0,.02.02.03,0,0,0,0,0,.02Z"/>
    <path class="cls-7" d="m190.65,128.62v.06c-4.74,2.51-9.13,5.09-13.73,7-2.12.88-4.28,1.61-6.55,2.13-2.39.56-4.9.86-7.6.83-1.88-.02-3.85-.19-5.93-.56,0,0-.53-.78-1.33-2,9.68-3.78,12.75-1.45,22.49-10.73,0,0,2.58,2.13,8.02,3.1,0,0,1.88.1,4.64.17Z"/>
    <path class="cls-3" d="m188.22,54.24c1.61,1.81,3.02,3.59,4.45,5.7-.93-1.38-3.74-1.09-5.84-.38-2.08.7-17.03,8.75-17.61,9.06,4.31-8.65,13.47-20.22,13.47-20.22h0c2.15,2.2,3.94,4.03,5.52,5.84Z"/>
    <path class="cls-5" d="m177.99,43.59c.41.42.8.82,1.17,1.21,0,0-8.67,13.01-11.94,13.95,1.05-6.28.83-12.49-2.23-18.21,1.4-1.61,5.17-8.85,5.17-15.49s.45-10.19,4.52-11.48c4.08-1.29,7.78-.23,9.13,1.74.51.74,1.25,2.39,1.92,4.5,1.13,3.53,2.06,8.35,1.39,12.33-.93,5.59-1.28,10.46-9.14,11.44Zm7.33-23.45c0-.42-.47-.75-1.06-.75s-1.06.34-1.06.75.47.76,1.06.76,1.06-.35,1.06-.76Zm-8-.37c0-.42-.61-.75-1.36-.75s-1.36.34-1.36.75.6.75,1.36.75,1.36-.34,1.36-.75Z"/>
    <path class="cls-2" d="m185.5,124.15l.51,4.3c-5.44-.98-8.02-3.1-8.02-3.1,1.96-1.87,4.19-4.21,6.81-7.17l.46,3.96.24,2.02Z"/>
    <path class="cls-4" d="m184.27,19.39c.59,0,1.06.34,1.06.75s-.47.76-1.06.76-1.06-.35-1.06-.76.47-.75,1.06-.75Z"/>
    <path class="cls-3" d="m169.21,68.62c-.94,1.88-1.65,3.61-1.99,5.06-2.82.67-4.95,1.29-5.68,1.76-.85.55-1.77,1.45-2.63,2.51l-1.6-.66c5.22-6.75,8.82-13.02,9.6-16.83.12-.57.22-1.14.31-1.71,3.26-.94,11.94-13.95,11.94-13.95,1.29,1.32,2.46,2.5,3.54,3.59h0s-9.16,11.58-13.47,20.23h0Z"/>
    <path class="cls-1" d="m154.09,133.92c-.35-.58-.74-1.2-1.15-1.84h0c9.93-.24,22.57-13.62,22.57-13.62,4.79.02,9.28-.27,9.28-.27-2.62,2.96-4.85,5.3-6.81,7.17-9.74,9.28-12.81,6.95-22.49,10.73-.41-.62-.89-1.36-1.41-2.16Z"/>
    <ellipse class="cls-4" cx="175.97" cy="19.77" rx="1.36" ry=".75"/>
    <path class="cls-6" d="m170.36,137.81c.66,2.8,4.59,7.77,4.59,7.77,0,0-6.46.9-8.27.6s-3.92-7.54-3.92-7.54c2.7.03,5.21-.27,7.6-.83Z"/>
    <path class="cls-1" d="m170.21,118.27c1.66.12,3.5.17,5.3.18,0,0-12.64,13.38-22.57,13.61h0c-.67-1.08-1.36-2.23-2-3.37h0c9.28-1.36,19.26-10.24,19.26-10.24l.02-.18Z"/>
    <path class="cls-2" d="m113,26.81c1.78-1.44,3.59-2.88,5.29-4.22h0c3.31-2.62,6.2-4.83,7.64-5.76,3.99-2.57,11.49-6.46,13.61-7.56,4.99.02,6.93,2.05,10.39,3.75,4.22,2.08,8.9,2.9,12.47,3.16-1.15,2.55-2.23,5.34-3.24,7.96-4.36-2.33-19.27-1.56-33.24,0-8.38.94-17.19,6.32-24.46,12.1.64-.52,3.56-2.94,7.2-5.91h0c1.37-1.12,2.83-2.31,4.32-3.52Z"/>
    <path class="cls-3" d="m157.32,77.29l1.6.66c-2.22,2.74-4.08,6.66-3.41,8.99.92,3.24,1.33,3.09,1.33,3.09,0,0-1.32,8.16,1.25,8.23v.07c-2.62.16-5.33.63-8.15,1.59-2.45.82-3.96,2.26-4.82,4.05l-.34-.17c4.59-8.89,7.56-16.89,7.87-20.85,1.67-1.9,3.24-3.8,4.67-5.66Z"/>
    <path class="cls-3" d="m159.16,24.14c-1.11,2.88-2.11,5.55-3,7.49-2.51-1.12-5.01-1.27-7.42-1.03h-.03c-15.1-1.1-22.8,1.01-35.71,8.06-8.42,4.58-18.79,12.79-18.79,12.79l-4.63-4.29c2.86-2.99,6.97-6.98,11.76-10.81,0,0,.04-.04.12-.11,7.26-5.78,16.08-11.16,24.46-12.1,13.97-1.56,28.87-2.33,33.24,0Z"/>
    <path class="cls-6" d="m152.94,132.07c.41.65.8,1.27,1.15,1.84-.26.35-4.95,6.84-6.28,12.57-1.06,1.36-8.33,1.36-8.33,1.36l11.45-19.15c.65,1.14,1.34,2.29,2,3.38Z"/>
    <path class="cls-3" d="m143.69,56.73c-1.34,1.2-2.76,2.56-4.2,4.13-.93-6.34-12.09-23.81-12.09-23.81,1.14-.5,2.33-.99,3.52-1.48,0,0,9.75,15.88,10.86,19.57l1.91,1.59Z"/>
    <path class="cls-1" d="m113.01,38.67c12.91-7.05,20.61-9.16,35.71-8.06-2.4.23-4.74.82-6.93,1.21-2.39.43-6.62,2-10.86,3.75-1.19.49-2.38.98-3.52,1.48-1.29.56-2.54,1.1-3.67,1.61-3.33,1.48-5.72,2.62-5.72,2.62-7.45,3.38-21.06,12.72-21.06,12.72l-2.73-2.54s10.38-8.2,18.79-12.79Z"/>
    <path class="cls-2" d="m108.79,12.34c-.36-.19-.74-.35-1.12-.5-4.95-1.92-10.27-2.19-15.03-1.17,2.27-2.62,8.11-5.62,13.95-8.49,7.67-3.78,10.29-.6,15.8,3.66s5.36,4.94,13.36,3.73c1.45-.22,2.7-.31,3.8-.31-2.12,1.09-9.62,4.98-13.61,7.56-1.45.93-4.34,3.14-7.64,5.76-.11-1.13-4.03-7.51-9.5-10.24Z"/>
    <path class="cls-1" d="m139.49,60.86c-.95,1.03-1.92,2.15-2.88,3.37-.43-7.27-12.88-25.57-12.88-25.57h0c1.14-.51,2.38-1.06,3.67-1.61,0,0,11.16,17.47,12.09,23.81Z"/>
    <path class="cls-1" d="m136.6,64.23h0c-.75.95-1.5,1.96-2.24,3.03-.6-1.77-1.3-3.49-2.07-5.15-5.51-12.02-14.29-20.84-14.29-20.84,0,0,2.39-1.14,5.72-2.62h0s12.44,18.3,12.88,25.58Z"/>
    <path class="cls-7" d="m121.06,121.08c2.17-.44,7.34-1.98,12.39-4.99-2.18,5.58-11.79,19.19-20.43,23.89h0c-.8.44-1.59.8-2.37,1.06-3.72,1.29-11.38,2.51-20.94,1.21-6.72-.91-14.39-3.08-22.29-7.34-4.15-2.23-8.35-5.05-12.52-8.58-4.33-3.65-8.6-8.05-12.73-13.36,1.07.11,5.45-.74,11.24-1.97,0,0,17.19,16.07,25.61,18.64,8.67,2.66,28.05,11.39,39.24-8.11,1.33-.2,2.31-.35,2.8-.45Z"/>
    <path class="cls-1" d="m132.29,70.45c-.12.2-.24.4-.36.6-3.96,6.11-6.68,13.7-7.58,22.3-.83,7.86-3.06,23.07-5.65,27.38-.03.04-.04.09-.07.12-.18.28-.36.51-.55.69-.98.14-2.13.31-3.41.49,2.33-2.62,6.46-19.56,7.26-27.33.83-8.03,3.96-17.96,7.05-22.34h0c1.83-1.07,3.31-1.92,3.31-1.92Z"/>
    <path class="cls-1" d="m125.92,74.18c1-.6,2.08-1.23,3.06-1.81-3.09,4.38-6.22,14.31-7.05,22.34-.8,7.77-4.93,24.71-7.26,27.33-1.14.15-2.39.32-3.69.51,2.05-2.8,7.83-19.44,8.54-26.48.75-7.45,4.17-19.21,6.39-21.88h0Z"/>
    <path class="cls-2" d="m117.86,45.37c-.02-1.37.04-2.75.15-4.1,0,0,8.78,8.81,14.29,20.84-3.43,1.68-10.59,14.49-10.59,14.49l-.75-.35s-.8-15.28-1.82-19.81c-.74-3.34-1.25-7.22-1.28-11.08Z"/>
    <path class="cls-7" d="m113.69,86.94c1.6-2.83,3.83-5.62,6.5-8.27.59-.59,1.2-1.16,1.83-1.73.12-.12.25-.22.37-.34-1.55,2.59-4.66,14.48-5.29,20.82-.68,6.89-9.45,25.17-10.51,25.71t0,0c-6.02.82-12.5,1.73-16.56,2.45,5.23-2,11.92-6.29,14.73-10.5,2.31-3.48,4.12-8.7,5.21-13.64.51-2.3.87-4.54,1.05-6.52.2-2.22.9-4.46,2-6.69.21-.43.43-.87.68-1.3Z"/>
    <path class="cls-6" d="m121.71,76.6l.31.34c-.63.57-1.24,1.14-1.83,1.73,0,0-22.44-7.62-30.6-10.22-8.15-2.6-23.21-4.97-40.75-8.15-10.81-1.95-20.26-8.94-24.11-12.41-1.98-1.78-4.59-4.6-6.66-6.92l.09-.08,10.76-9.13c1.08.98,2.74,2.53,4.69,4.27,4.37,3.92,10.19,8.83,14.1,10.55,5.66,2.49,18.12,10.76,30.9,11.44,12.78.67,28.4,6.62,30.24,7h0l12.1,11.23.75.35Z"/>
    <path class="cls-3" d="m120.95,76.26l-12.1-11.23h0l-9.1-8.44s14.65-10.56,18.11-11.22c.03,3.86.53,7.73,1.28,11.08,1.02,4.53,1.82,19.81,1.82,19.81Z"/>
    <path class="cls-6" d="m118.28,22.58h0c-1.69,1.35-3.5,2.79-5.29,4.23-7.16-1.34-4.67-12.59-4.21-14.47,5.46,2.73,9.39,9.12,9.5,10.24Z"/>
    <path class="cls-1" d="m118.08,121.55c.06,0,.12,0,.18-.02-11.19,19.5-30.57,10.77-39.24,8.11-8.42-2.57-25.61-18.64-25.61-18.64,1.46-.3,3.02-.64,4.62-.99,0,0,11.23,12.09,22.24,16.44.25.11.51.2.75.29,0,0,9,3.13,12.16,3.73,2.12.4,9.44,1.66,15.31-2.03,3.27-2.05,5.93-6.19,5.93-6.19.08-.05.15-.13.24-.22,1.29-.18,2.44-.35,3.41-.49Z"/>
    <path class="cls-1" d="m118.01,41.27c-.12,1.35-.17,2.72-.15,4.1-3.46.66-18.11,11.22-18.11,11.22l-1.56-1.45-1.24-1.15s13.61-9.34,21.06-12.72Z"/>
    <path class="cls-1" d="m114.67,122.04c-.09.09-.16.17-.24.22,0,0-2.66,4.14-5.93,6.19-5.88,3.69-13.2,2.43-15.31,2.03-3.16-.6-12.16-3.73-12.16-3.73-.25-.09-.51-.19-.75-.29l.06-.15c1.08.43,2.89.57,5.65.32,0,.04.07.09.21.12,17.85,4.5,21.48-1.02,24.45-3.85.1-.06.21-.19.34-.35,1.3-.19,2.55-.35,3.69-.51Z"/>
    <path class="cls-2" d="m113,26.81c-1.49,1.21-2.95,2.4-4.32,3.52h0c-10.91-2.06-16.55-14.26-17.01-17.31-.08-.55.1-1.14.51-1.74.13-.2.28-.4.47-.61,4.76-1.02,10.08-.75,15.03,1.17.38.15.75.31,1.12.5-.46,1.88-2.94,13.13,4.21,14.47Z"/>
    <path class="cls-3" d="m113.01,88.25c-1.1,2.23-1.79,4.47-2,6.69-.18,1.98-.53,4.22-1.05,6.52-5.25,1.4-14.03,4.95-20.38,10.13,2.79-3.64,6.3-8.47,10.3-12.89h0c.72-.8,1.45-1.58,2.19-2.33.55-.55,1.1-1.1,1.67-1.63,2.91-2.72,6.01-5.05,9.26-6.47Z"/>
    <path class="cls-1" d="m110.98,122.55c-.12.17-.24.29-.34.35-2.97,2.83-6.6,8.34-24.45,3.85-.14-.04-.21-.08-.21-.12.33-.03.67-.06,1.01-.11.92-.2,1.95-.51,3.04-.93,4.05-.72,10.54-1.63,16.56-2.45t0,0c1.51-.2,2.98-.4,4.38-.59Z"/>
    <path class="cls-2" d="m109.97,101.45c-1.08,4.94-2.89,10.16-5.21,13.64-2.81,4.21-9.5,8.5-14.73,10.5-2.48.43-4.05.81-4.05,1.04-2.76.25-4.57.12-5.65-.32-1.74-.69-1.6-2.16-.48-4.04h0c1.33-2.23,4.06-5.05,6.68-7.86.92-.99,1.95-1.93,3.05-2.83,6.35-5.18,15.13-8.73,20.38-10.13Z"/>
    <path class="cls-6" d="m99.75,56.59l9.1,8.44c-1.84-.37-17.46-6.32-30.24-7-12.79-.68-25.25-8.95-30.9-11.44-3.91-1.72-9.73-6.63-14.1-10.55l.18-.2c1.69-1.58,12.6-6.34,12.6-6.34,1.37,2.35,3.21,4.5,5.09,6.34,2.73,2.7,5.56,4.76,7.25,5.91.96.66,1.55,1,1.55,1,.7.44,1.44.88,2.2,1.29,1.4.76,2.91,1.46,4.45,2.12,6.54,2.77,13.9,4.66,18.11,5.99,5.73,1.81,13.16,3,13.16,3l1.56,1.45Z"/>
    <path class="cls-6" d="m16.18,100.84c-2.11.09-4.07.18-5.84.26-5.52.23-9.15.35-9.84.29l.1-6.38c4.56,3.37,46.66,1.29,62.91,1.35,16.36.06,40.24-1.63,40.24-1.63-.57.53-1.12,1.08-1.67,1.63,0,0-50.23,2.77-80.09,4.2-2.04.1-3.99.2-5.82.28Z"/>
    <path class="cls-6" d="m91.52,11.5l.65-.22c-.41.6-.59,1.19-.51,1.74.46,3.05,6.1,15.25,17.01,17.31-3.64,2.97-6.56,5.39-7.2,5.91-.08.07-.12.11-.12.11-3.04-5.49-13.23-13.07-16.06-15.45-1.8-1.52-3.37-3.22-4.36-2.91l-.65-1.72c.32-.12.63-.24.94-.35,2.34-.9,7.75-4.42,10.3-4.42Z"/>
    <path class="cls-3" d="m102.08,96.35c-.74.75-1.47,1.53-2.19,2.32h0c-.38.16-12.73,5.13-26.18,7.96-3.64.76-7.43,1.59-11.07,2.38-1.57.35-3.11.68-4.61,1-1.61.35-3.16.69-4.62.99-5.79,1.23-10.17,2.08-11.24,1.97-1.43-1.79-2.72.3-3.17,2.66-.09.5-.24,1.09-.42,1.81-7.57-3.49-16.57-16.89-16.57-16.89,29.86-1.44,80.09-4.2,80.09-4.2Z"/>
    <path class="cls-3" d="m99.88,98.68c-4,4.43-7.5,9.25-10.3,12.89-1.1.9-2.13,1.84-3.05,2.83-2.62,2.8-5.35,5.62-6.68,7.86h0c-9.39-4.46-17.21-13.25-17.21-13.25,3.64-.79,7.42-1.61,11.07-2.38,13.44-2.83,25.8-7.8,26.18-7.95Z"/>
    <path class="cls-3" d="m96.95,53.99l1.24,1.15s-7.43-1.19-13.16-3c-4.2-1.32-11.56-3.22-18.11-5.99l.14-.33s10.07-9.06,13.9-10.93c.51,3.47,1.07,6.5,1.49,7.84,1.02,3.29,4.95,6.65,7.13,4.42l4.63,4.29,2.73,2.54Z"/>
    <path class="cls-2" d="m80.41,30.67c-.15-1.35-.28-2.7-.38-3.96-.19-2.3-.27-4.36-.17-5.8.12-1.9.5-2.73,1.06-2.91.99-.31,2.56,1.39,4.36,2.91,2.83,2.38,13.02,9.96,16.06,15.45-4.79,3.83-8.89,7.82-11.76,10.81-2.18,2.23-6.11-1.13-7.13-4.42-.42-1.34-.98-4.37-1.49-7.84-.2-1.37-.39-2.81-.56-4.24Z"/>
    <path class="cls-6" d="m66.18,89.51c18.55,1.58,35.09,1.61,37.57,5.21,0,0-23.88,1.69-40.24,1.63-16.25-.05-58.35,2.02-62.91-1.35l.32-20.84h.38c12.79,4.92,36.15,16.47,64.88,15.34Z"/>
    <path class="cls-2" d="m89.7,142.25l-.12.56c-8.73,6.77-17.86,9.25-26.14,9.5h-.02c-8.39.26-15.91-1.77-21.27-3.94,0,0-6.12-4.3-9.97-7.13,0,0,24.48.7,35.21-6.33,7.9,4.27,15.57,6.43,22.29,7.34Z"/>
    <path class="cls-1" d="m80.28,16.27l.65,1.72c-.57.18-.94,1.01-1.06,2.91-.1,1.44-.02,3.5.17,5.8-9.96,2-21.31,15.05-21.31,15.05-1.68-1.14-4.51-3.21-7.25-5.91,4.36-9.36,17.36-15.19,28.8-19.57Z"/>
    <path class="cls-1" d="m80.41,30.67c.17,1.43.35,2.87.56,4.24-3.84,1.86-13.9,10.93-13.9,10.93l-.14.33c-1.54-.66-3.05-1.36-4.45-2.12l.1-.19s11.4-11.84,17.84-13.19Z"/>
    <path class="cls-1" d="m80.33,126.31l-.06.15c-11.01-4.35-22.24-16.44-22.24-16.44,1.5-.32,3.04-.66,4.61-1,0,0,7.82,8.79,17.21,13.25-1.12,1.88-1.26,3.35.48,4.04Z"/>
    <path class="cls-1" d="m80.03,26.7c.1,1.27.23,2.62.38,3.96-6.44,1.35-17.84,13.19-17.84,13.19l-.1.19c-.76-.41-1.5-.84-2.2-1.29,0,0-.59-.35-1.55-1,0,0,11.35-13.04,21.31-15.05Z"/>
    <path class="cls-2" d="m42.16,148.37c5.36,2.16,12.88,4.19,21.27,3.94-9.42,3.03-45.82.12-45.82.12h0c.27-.04.54-.07.82-.12h0c.62-.09,1.25-.17,1.89-.27,10.65-1.53,21.84-3.67,21.84-3.67Z"/>
    <path class="cls-2" d="m54.89,126.33c4.17,3.52,8.37,6.34,12.52,8.58-10.74,7.03-35.21,6.33-35.21,6.33-.34,1.36-6.79,7.7-11.87,10.8-.64.1-1.27.18-1.89.27h0c-6.07.07-13.17-18.4-13.17-18.4l16.74-1.08.37-.53c4.93,3.45,10.8,5.71,12.75.53,6.77.07,19.77-6.49,19.77-6.49Z"/>
    <path class="cls-2" d="m37.45,121.86c.43-1.8.82-3.25,1.12-4.42.18-.72.33-1.31.42-1.81.45-2.36,1.75-4.45,3.17-2.66,4.12,5.3,8.4,9.7,12.73,13.36,0,0-13,6.56-19.77,6.49.2-.52.35-1.13.47-1.81.28-1.71.57-3.26.86-4.68.35-1.68.68-3.17,1-4.47Z"/>
    <path class="cls-2" d="m32.19,141.24c3.85,2.83,9.97,7.13,9.97,7.13,0,0-11.19,2.15-21.84,3.67,5.08-3.1,11.54-9.44,11.87-10.8Z"/>
    <path class="cls-1" d="m38.57,117.45c-.29,1.16-.69,2.62-1.12,4.42-10.04-4.62-20.85-20.41-21.27-21.03,1.83-.09,3.78-.19,5.82-.28,0,0,9,13.4,16.57,16.89Z"/>
    <path class="cls-1" d="m37.45,121.86c-.32,1.3-.66,2.78-1,4.47-12.95-5.85-26.11-25.24-26.11-25.24,1.76-.08,3.72-.17,5.84-.26.43.62,11.24,16.41,21.27,21.03Z"/>
    <path class="cls-7" d="m36.45,126.33c-.29,1.42-.58,2.97-.86,4.68-.12.68-.27,1.29-.47,1.81-1.95,5.18-7.82,2.92-12.75-.53-.59-.41-1.16-.84-1.72-1.28C14.99,126.57.5,111.01.5,111.01v-9.62c.69.06,4.33-.06,9.84-.29,0,0,13.16,19.39,26.11,25.24Z"/>
    <path class="cls-2" d="m5.25,133.91s7.1,18.47,13.17,18.4c-.27.04-.55.08-.82.11-1.37.19-2.7.35-3.98.51-12.01,1.37-8.37-13.15-8.37-19.01Z"/>
  </g>
  <g>
    <path class="cls-8" d="m156.16,31.65s0,0,0-.02c.89-1.94,1.89-4.61,3-7.49,1-2.62,2.08-5.41,3.24-7.96,2.1-4.65,4.43-8.52,6.89-9.2,5.32-1.47,11.88-2.49,14.71,3.51,1.07,2.27,2.27,5.47,3.35,8.82.81,2.48,1.54,5.05,2.11,7.4.67,2.82,1.11,5.29,1.11,6.87,0,.56,0,1.23.03,2,.03,1.88.08,4.27,0,6.75-.11,4.74-.62,9.75-2.39,11.92-.04.06-.1.12-.14.17"/>
    <path class="cls-8" d="m164.95,40.6s.03-.04.04-.05c1.4-1.61,5.17-8.85,5.17-15.49s.45-10.19,4.52-11.48c4.08-1.29,7.78-.23,9.13,1.74.51.74,1.25,2.39,1.92,4.5,1.13,3.53,2.06,8.35,1.39,12.33-.93,5.59-1.28,10.46-9.14,11.44-1.06.13-2.25.2-3.61.18"/>
    <path class="cls-8" d="m174.08,25.43s1.74-.82,3.25-.82"/>
    <path class="cls-8" d="m182.83,24.6s1.52-.46,2.49-.46"/>
    <path class="cls-8" d="m182.83,28.82c.6,1.59.53,4,0,4.23-.52.22-1.43,0-1.43,0"/>
    <path class="cls-8" d="m180.54,36.35s2.51.34,2.93,0"/>
    <path class="cls-8" d="m101.47,36.25c7.26-5.78,16.08-11.16,24.46-12.1,13.97-1.56,28.87-2.33,33.24,0"/>
    <path class="cls-8" d="m108.85,65.03l-9.1-8.44-1.56-1.45-1.24-1.15-2.73-2.54-4.63-4.29c2.86-2.99,6.97-6.98,11.76-10.81"/>
    <path class="cls-8" d="m148.72,30.61c-2.4.23-4.74.82-6.93,1.21-2.39.43-6.62,2-10.86,3.75-1.19.49-2.38.98-3.52,1.48-1.29.56-2.54,1.1-3.67,1.61-3.33,1.48-5.72,2.62-5.72,2.62-.12,1.35-.17,2.72-.15,4.1.03,3.86.53,7.73,1.28,11.08,1.02,4.53,1.82,19.81,1.82,19.81l-12.1-11.23"/>
    <path class="cls-8" d="m131.82,101.39c7.4-4.7,14.77-11.53,20.83-18.44,1.67-1.9,3.24-3.8,4.67-5.66,5.22-6.75,8.82-13.02,9.6-16.83.12-.57.22-1.14.31-1.71,1.05-6.28.83-12.49-2.23-18.21-.9-1.69-2.07-3.33-3.51-4.93-1.76-1.94-3.55-3.21-5.31-3.98-2.51-1.12-5.01-1.27-7.42-1.03"/>
    <path class="cls-8" d="m136.6,64.24c-.75.94-1.5,1.95-2.24,3.02-.7,1-1.38,2.07-2.07,3.18-.12.2-.24.4-.36.6"/>
    <path class="cls-8" d="m156.83,41.27s-1.58,6.34-5.32,9.28c-1.75,1.38-4.57,3.28-7.82,6.17-1.34,1.2-2.76,2.56-4.2,4.13-.95,1.03-1.92,2.15-2.88,3.37"/>
    <path class="cls-8" d="m130.92,35.57s9.75,15.88,10.86,19.57"/>
    <path class="cls-8" d="m123.73,38.67s12.44,18.29,12.88,25.57h0"/>
    <path class="cls-8" d="m127.4,37.05s11.16,17.47,12.09,23.81"/>
    <path class="cls-8" d="m118.63,120.86c-.18.28-.36.51-.55.69-.04.04-.08.07-.12.11"/>
    <path class="cls-8" d="m131.93,71.05c-3.96,6.11-6.68,13.7-7.58,22.3-.83,7.86-3.06,23.07-5.65,27.38"/>
    <path class="cls-8" d="m128.98,72.37c-3.09,4.38-6.22,14.31-7.05,22.34-.8,7.77-4.93,24.71-7.26,27.33-.09.09-.16.17-.24.22"/>
    <path class="cls-8" d="m125.91,74.19c-2.23,2.67-5.64,14.43-6.39,21.88-.71,7.04-6.49,23.68-8.54,26.48-.12.17-.24.29-.34.35"/>
    <line class="cls-8" x1="125.93" y1="74.17" x2="125.92" y2="74.18"/>
    <path class="cls-8" d="m106.6,123.13c1.06-.54,9.83-18.82,10.51-25.71.62-6.34,3.73-18.23,5.29-20.82.13-.23.27-.39.37-.46.66-.44,1.84-1.17,3.15-1.95h0c1-.61,2.08-1.24,3.06-1.82h0c1.83-1.07,3.31-1.92,3.31-1.92"/>
    <path class="cls-8" d="m79.85,122.26c-1.12,1.88-1.26,3.35.48,4.04,1.08.43,2.89.57,5.65.32.33-.03.67-.06,1.01-.11.92-.2,1.95-.51,3.04-.93,5.23-2,11.92-6.29,14.73-10.5,2.31-3.48,4.12-8.7,5.21-13.64.51-2.3.87-4.54,1.05-6.52.2-2.22.9-4.46,2-6.69.21-.43.43-.87.68-1.3,1.6-2.83,3.83-5.62,6.5-8.27.59-.59,1.2-1.16,1.83-1.73.12-.12.25-.22.37-.34"/>
    <path class="cls-8" d="m110.2,101.39c-.07.02-.15.04-.23.06-5.25,1.4-14.03,4.95-20.38,10.13-1.1.9-2.13,1.84-3.05,2.83-2.62,2.8-5.35,5.62-6.68,7.86"/>
    <path class="cls-8" d="m99.89,98.68c.72-.79,1.45-1.57,2.19-2.32.55-.55,1.1-1.1,1.67-1.63,2.91-2.72,6.01-5.05,9.26-6.47"/>
    <path class="cls-8" d="m89.59,111.58c2.79-3.64,6.3-8.47,10.3-12.89"/>
    <path class="cls-8" d="m113.02,139.98c8.64-4.7,18.25-18.31,20.43-23.89"/>
    <path class="cls-8" d="m99.89,98.68h0c-.38.16-12.73,5.13-26.18,7.96-3.64.76-7.43,1.59-11.07,2.38-1.57.35-3.11.68-4.61,1-1.61.35-3.16.69-4.62.99-5.79,1.23-10.17,2.08-11.24,1.97,4.12,5.3,8.4,9.7,12.73,13.36,4.17,3.52,8.37,6.34,12.52,8.58,7.9,4.27,15.57,6.43,22.29,7.34,9.56,1.3,17.21.09,20.94-1.21.78-.27,1.57-.62,2.37-1.06"/>
    <path class="cls-8" d="m53.41,111.01s17.19,16.07,25.61,18.64c8.67,2.66,28.05,11.39,39.24-8.11.12-.22.25-.44.37-.67.03-.04.04-.08.07-.12"/>
    <path class="cls-8" d="m62.64,109.02s7.82,8.79,17.21,13.25h0"/>
    <path class="cls-8" d="m58.03,110.02s11.23,12.09,22.24,16.44c.25.11.51.2.75.29,0,0,9,3.13,12.16,3.73,2.12.4,9.44,1.66,15.31-2.03,3.27-2.05,5.93-6.19,5.93-6.19"/>
    <path class="cls-8" d="m110.64,122.9c-2.97,2.83-6.6,8.34-24.45,3.85-.14-.04-.21-.08-.21-.12,0-.23,1.57-.6,4.05-1.04,4.05-.72,10.54-1.63,16.56-2.45t0,0c1.51-.2,2.98-.4,4.38-.59,1.3-.19,2.55-.35,3.69-.51,1.29-.18,2.44-.35,3.41-.49.06,0,.12,0,.18-.02,1.33-.2,2.31-.35,2.8-.45,2.17-.44,7.34-1.98,12.39-4.99,3.89-2.33,7.72-5.54,10.03-9.83.44-.82.88-1.65,1.29-2.46,4.59-8.89,7.56-16.89,7.87-20.85"/>
    <path class="cls-8" d="m121.71,76.6s7.16-12.81,10.59-14.49"/>
    <path class="cls-8" d="m148.74,30.61h-.03c-15.1-1.1-22.8,1.01-35.71,8.06-8.42,4.58-18.79,12.79-18.79,12.79"/>
    <path class="cls-8" d="m96.95,53.99s13.61-9.34,21.06-12.72c0,0,8.78,8.81,14.29,20.84.76,1.66,1.46,3.38,2.07,5.15"/>
    <path class="cls-8" d="m99.75,56.59s14.65-10.56,18.11-11.22c.04,0,.06,0,.1-.02"/>
    <path class="cls-8" d="m108.67,30.33c-3.64,2.97-6.56,5.39-7.2,5.91-.08.07-.12.11-.12.11-3.04-5.49-13.23-13.07-16.06-15.45-1.8-1.52-3.37-3.22-4.36-2.91-.57.18-.94,1.01-1.06,2.91-.1,1.44-.02,3.5.17,5.8.1,1.27.23,2.62.38,3.96.17,1.43.35,2.87.56,4.24.51,3.47,1.07,6.5,1.49,7.84,1.02,3.29,4.95,6.65,7.13,4.42"/>
    <path class="cls-8" d="m118.28,22.59c-1.69,1.34-3.5,2.78-5.29,4.22-1.49,1.21-2.95,2.4-4.32,3.52"/>
    <path class="cls-8" d="m140.12,8.98s-.2.11-.58.29c-2.12,1.09-9.62,4.98-13.61,7.56-1.45.93-4.34,3.14-7.64,5.76"/>
    <path class="cls-8" d="m162.4,16.18c-3.56-.26-8.25-1.08-12.47-3.16-3.47-1.7-5.4-3.73-10.39-3.75-1.1,0-2.35.09-3.8.31-8,1.21-7.84.53-13.36-3.73s-8.13-7.44-15.8-3.66c-5.84,2.86-11.68,5.87-13.95,8.49-.19.21-.34.42-.47.61-.41.6-.59,1.19-.51,1.74.46,3.05,6.1,15.25,17.01,17.31h0"/>
    <path class="cls-8" d="m92.64,10.67c4.76-1.02,10.08-.75,15.03,1.17.38.15.75.31,1.12.5,5.46,2.73,9.39,9.12,9.5,10.24h0"/>
    <path class="cls-8" d="m91.64,11.5h-.12c-2.55,0-7.96,3.52-10.3,4.42-.31.12-.62.24-.94.35-11.44,4.38-24.44,10.22-28.8,19.57"/>
    <path class="cls-8" d="m67.06,45.83s10.07-9.06,13.9-10.93c.33-.17.61-.27.84-.32"/>
    <path class="cls-8" d="m80.03,26.7c-9.96,2-21.31,15.05-21.31,15.05"/>
    <path class="cls-8" d="m62.57,43.85s11.4-11.84,17.84-13.19c.03,0,.04,0,.07-.02"/>
    <path class="cls-8" d="m98.19,55.14s-7.43-1.19-13.16-3c-4.2-1.32-11.56-3.22-18.11-5.99-1.54-.66-3.05-1.36-4.45-2.12-.76-.41-1.5-.84-2.2-1.29,0,0-.59-.35-1.55-1-1.68-1.14-4.51-3.21-7.25-5.91-1.88-1.84-3.72-3.99-5.09-6.34,0,0-10.91,4.76-12.6,6.34"/>
    <path class="cls-8" d="m108.86,65.03h0c-1.84-.37-17.46-6.32-30.24-7-12.79-.68-25.25-8.95-30.9-11.44-3.91-1.72-9.73-6.63-14.1-10.55-1.95-1.75-3.61-3.3-4.69-4.27l-10.76,9.13"/>
    <path class="cls-8" d="m1.3,49.48l13.35-12.42s1.47,1.74,3.42,3.92c2.07,2.31,4.68,5.13,6.66,6.92,3.85,3.47,13.3,10.46,24.11,12.41,17.54,3.17,32.6,5.55,40.75,8.15,8.16,2.61,30.6,10.22,30.6,10.22"/>
    <path class="cls-8" d="m1.3,49.48s8.56,12.54,25.01,17.79c16.46,5.26,26.99,9.48,39.68,10.24,12.69.75,40.86,6.46,47.7,9.44h0"/>
    <path class="cls-8" d="m1.3,74.17c12.79,4.91,36.15,16.46,64.88,15.33,18.55,1.58,35.09,1.61,37.57,5.21,0,0-23.88,1.69-40.24,1.63-16.25-.05-58.35,2.02-62.91-1.35-.04-.02-.07-.04-.1-.07"/>
    <path class="cls-8" d="m1.3,49.48l-.38,24.69-.32,20.84-.1,6.38c.69.06,4.33-.06,9.84-.29,1.76-.08,3.72-.17,5.84-.26,1.83-.09,3.78-.19,5.82-.28,29.86-1.44,80.09-4.2,80.09-4.2"/>
    <path class="cls-8" d="m.5,101.39v9.62s14.49,15.56,20.15,20.01c.56.43,1.14.87,1.72,1.28,4.93,3.45,10.8,5.71,12.75.53.2-.52.35-1.13.47-1.81.28-1.71.57-3.26.86-4.68.35-1.68.68-3.17,1-4.47.43-1.8.82-3.25,1.12-4.42.18-.72.33-1.31.42-1.81.45-2.36,1.75-4.45,3.17-2.66"/>
    <path class="cls-8" d="m22,100.56s9,13.4,16.57,16.89"/>
    <path class="cls-8" d="m16.17,100.82s0,0,0,.02c.43.62,11.24,16.41,21.27,21.03.02,0,.04.02.06.03"/>
    <path class="cls-8" d="m10.34,101.1s13.16,19.39,26.11,25.24"/>
    <path class="cls-8" d="m54.89,126.33s-13,6.56-19.77,6.49"/>
    <path class="cls-8" d="m63.44,152.31c8.28-.25,17.42-2.73,26.14-9.5"/>
    <path class="cls-8" d="m18.43,152.31c.62-.09,1.25-.17,1.89-.27,10.65-1.53,21.84-3.67,21.84-3.67,5.36,2.16,12.88,4.19,21.27,3.94"/>
    <path class="cls-8" d="m22,132.83l-16.74,1.08c0,5.86-3.64,20.39,8.37,19.01,1.29-.15,2.62-.32,3.98-.51.27-.03.54-.06.82-.11"/>
    <path class="cls-8" d="m17.61,152.42s36.4,2.92,45.82-.12h.02"/>
    <path class="cls-8" d="m20.32,152.04c5.08-3.1,11.54-9.44,11.87-10.8,3.85,2.83,9.97,7.13,9.97,7.13"/>
    <path class="cls-8" d="m32.19,141.24s24.48.7,35.21-6.33"/>
    <path class="cls-8" d="m5.25,133.91s7.1,18.47,13.17,18.4h0"/>
    <path class="cls-8" d="m113.01,139.98h0c6.73.9,29.75-4.12,36.88-13.19,0-.02.03-.03.04-.04"/>
    <path class="cls-8" d="m191.9,100.87c.21-.09,6.86-2.9,14.14-6.57,8.02-4.03,16.8-9.11,18.6-12.72,6.07,1.88,14.76,3.41,22.41,6.07,1.64.57,3.24,1.19,4.75,1.87,1.77.82,3.43,1.71,4.92,2.73,1.76,1.19,3.27,2.55,4.44,4.11-8.6,2.13-26.56,12.55-32,16.63-3.25,2.44-8.89,7.31-14.53,10.94-1.8,1.16-3.6,2.19-5.33,2.98-1.91.87-3.72,1.44-5.35,1.55-2.69.19-5.68.24-8.45.23-1.76,0-3.43-.03-4.87-.06-2.76-.07-4.64-.17-4.64-.17l-.51-4.3-.24-2.02-.46-3.96"/>
    <path class="cls-8" d="m256.73,92.25c-13.67,2.62-24.39,10.61-28.91,14.24-1.71,1.37-6.7,4.58-12.79,7.91-9.99,5.47-23,11.26-29.53,9.75"/>
    <path class="cls-8" d="m185.5,122.1c8.74-1.73,19-4.79,28.26-9.94,1.26-.69,2.5-1.43,3.72-2.21,4.44-2.86,9.05-6.54,14.52-10.23,5.48-3.69,11.84-7.37,19.81-10.21"/>
    <path class="cls-8" d="m214.64,123.92c1.83.54,4.05,1.04,6.52,1.36,8.81,1.16,20.66.21,28.09-7.93,9.51-10.41,14.32-18.45,11.92-21"/>
    <path class="cls-8" d="m190.65,128.68c-4.74,2.51-9.13,5.09-13.73,7-2.12.88-4.28,1.61-6.55,2.13-2.39.56-4.9.86-7.6.83-1.88-.02-3.85-.19-5.93-.56,0,0-.53-.78-1.33-2-.41-.62-.89-1.36-1.41-2.16-.35-.58-.74-1.2-1.15-1.84-.67-1.09-1.36-2.24-2-3.38-.36-.65-.71-1.29-1.04-1.9-.11-.2-.2-.38-.29-.57-.33-.63-.61-1.22-.86-1.78-1.77-3.98-6.62-14.31-3.64-20.48.86-1.79,2.38-3.23,4.82-4.05,2.82-.96,5.53-1.43,8.16-1.59,7.51-.45,14.38,1.64,21.42,2.23,3.25.27,7.75.37,12.38.31h0c8.89-.13,18.22-.9,19.91-2.33"/>
    <path class="cls-8" d="m155.5,136.08c9.68-3.78,12.75-1.45,22.49-10.73,1.96-1.87,4.19-4.21,6.81-7.17,0,0,5.06,1.07,20.68-5.66,9.28-4,17.97-9.83,25.18-14.85,7.21-5.02,12.96-9.23,16.39-10.02h.02"/>
    <path class="cls-8" d="m177.99,125.35s2.58,2.13,8.02,3.1"/>
    <path class="cls-8" d="m176.92,135.68c2.8,2.09,6.58,4.58,10.68,2.74,2.19-.98,4.48-3.21,6.75-7.4.39-.72.78-1.5,1.17-2.33"/>
    <path class="cls-8" d="m194.34,131.02c1.32,2.63,2.75,6.43,6.94,5.06s8.03-9.18,8.03-9.18"/>
    <path class="cls-8" d="m221.12,125.69s-8.42,7.05-19.74,10.67c-4.28,1.37-8.97,2.24-13.78,2.07"/>
    <path class="cls-8" d="m192.7,59.98c.46.67.91,1.37,1.37,2.13,2.49,4.03,4.19,7.56,6.37,13.91.39,1.14.8,2.38,1.23,3.72.37,1.17.76,2.43,1.17,3.78.07.22.14.44.2.67.64,2.08,1.32,4.38,2.08,6.95.29,1.01.59,2.06.91,3.15"/>
    <path class="cls-8" d="m177.99,43.59c.41.42.8.82,1.17,1.21,1.29,1.32,2.46,2.5,3.54,3.59,2.15,2.21,3.94,4.04,5.52,5.84,1.61,1.81,3.02,3.59,4.45,5.7"/>
    <path class="cls-8" d="m190.65,42.32c3.01.94,5.8,1.65,8.42,2.26,4.82,1.14,9.06,1.95,12.96,3.3,2.55.89,4.95,2,7.27,3.57.96.65,1.91,1.37,2.84,2.19.86.75,1.71,1.59,2.56,2.52,1.24,1.36,2.47,2.91,3.72,4.7-9.21,11.81-23.24,30.27-23.24,30.27"/>
    <path class="cls-8" d="m228.42,60.86s-1.97,18.45-3.78,20.72"/>
    <path class="cls-8" d="m224.71,56.16s-21.13,26.36-21.86,27.36"/>
    <path class="cls-8" d="m222,53.8s-19.44,24.77-20.33,25.94l-.04.04"/>
    <line class="cls-8" x1="219.31" y1="51.45" x2="200.44" y2="76.03"/>
    <path class="cls-8" d="m179.16,44.8s-8.67,13.01-11.94,13.95"/>
    <path class="cls-8" d="m169.21,68.62c-.94,1.88-1.65,3.61-1.99,5.06"/>
    <path class="cls-8" d="m182.69,48.4s-9.16,11.57-13.47,20.22"/>
    <path class="cls-8" d="m192.01,68.94s-9.46,1.57-17.9,3.26c-2.47.5-4.86,1-6.89,1.48-2.82.67-4.95,1.29-5.68,1.76-.85.55-1.77,1.45-2.63,2.51-2.22,2.74-4.08,6.66-3.41,8.99.92,3.24,1.33,3.09,1.33,3.09,0,0-1.32,8.16,1.25,8.23"/>
    <path class="cls-8" d="m166.68,91.54s16.45-5.47,22.34-5.98,13.95-1.63,14.03-1.37"/>
    <path class="cls-8" d="m169.2,68.63h0s0,0,0,0c.59-.31,15.54-8.36,17.61-9.06,2.1-.71,4.91-1,5.84.38,0,0,0,.02.02.03,0,0,0,0,0,.02,1.27,2.17-17.86,11.07-18.59,12.22"/>
    <path class="cls-8" d="m189.46,26.7h0c.59.16,25.75,6.89,22.57,21.18h0"/>
    <path class="cls-8" d="m190.65,35.57s8.46,2.07,8.42,9.01c0,.07,0,.14,0,.22"/>
    <path class="cls-8" d="m108.86,12.07s-.03.1-.07.27c-.46,1.88-2.94,13.13,4.21,14.47h0"/>
    <path class="cls-8" d="m162.76,138.64s2.11,7.24,3.92,7.54,8.27-.6,8.27-.6c0,0-3.94-4.97-4.59-7.77"/>
    <line class="cls-8" x1="154.1" y1="105.81" x2="167.79" y2="115.64"/>
    <path class="cls-8" d="m149.6,126.23s14.88-5.03,17.62-8.31c.87.16,1.89.27,2.99.35,1.66.12,3.5.17,5.3.18,4.79.02,9.28-.27,9.28-.27"/>
    <path class="cls-8" d="m170.2,118.45s-9.99,8.89-19.26,10.23h0s-11.45,19.15-11.45,19.15c0,0,7.27,0,8.33-1.36,1.33-5.73,6.02-12.21,6.28-12.57,0,0,0,0,0,0"/>
    <path class="cls-8" d="m175.52,118.45s-12.64,13.38-22.57,13.61"/>
  </g>
</svg>