<?xml version="1.0" encoding="UTF-8"?>
<svg xmlns="http://www.w3.org/2000/svg" xmlns:xlink="http://www.w3.org/1999/xlink" viewBox="0 0 273.83 201.54">
  <defs>
    <style>
      .cls-1 {
        fill: #c1ab3c;
      }

      .cls-1, .cls-2, .cls-3, .cls-4, .cls-5, .cls-6, .cls-7, .cls-8, .cls-9, .cls-10 {
        stroke-width: 0px;
      }

      .cls-2 {
        fill: #e76859;
      }

      .cls-11 {
        stroke-miterlimit: 10;
      }

      .cls-11, .cls-4, .cls-12 {
        fill: none;
      }

      .cls-11, .cls-12 {
        stroke: #000;
      }

      .cls-3 {
        fill: #f3edd7;
      }

      .cls-12 {
        stroke-linecap: round;
        stroke-linejoin: round;
      }

      .cls-5 {
        fill: #7bb094;
      }

      .cls-6 {
        fill: #333;
      }

      .cls-13 {
        clip-path: url(#clippath);
      }

      .cls-7 {
        fill: #d2d296;
      }

      .cls-8 {
        fill: #fcecca;
      }

      .cls-9 {
        fill: #ffefd6;
      }

      .cls-10 {
        fill: #80bdc2;
      }
    </style>
    <clipPath id="clippath">
      <rect class="cls-4" x="3.78" width="256.59" height="159.43"/>
    </clipPath>
  </defs>
  <g id="_レイヤー_3" data-name="レイヤー 3">
    <g>
      <g>
        <rect class="cls-3" x="3.78" y="166.91" width="3.62" height="5.03"/>
        <path class="cls-3" d="m273.59,194.48v6.56h-30.44l15.35-8.63c1.03,1.61,3.11,2.72,5.51,2.72s4.62-1.18,5.62-2.88l3.97,2.23Z"/>
        <path class="cls-3" d="m273.59,183.92v10.56l-3.97-2.23c.38-.65.59-1.38.59-2.14,0-1.3-.62-2.48-1.61-3.38l4.99-2.8Z"/>
        <path class="cls-3" d="m273.59,171.93v11.99l-4.99,2.8c-1.14-1.01-2.77-1.64-4.59-1.64s-3.31.58-4.44,1.51l-26.09-14.66h40.11Z"/>
        <polygon class="cls-3" points="273.59 93.68 273.59 99.45 4.66 99.45 3.78 99.45 3.78 93.68 273.59 93.68"/>
        <rect class="cls-3" x="269.6" y="166.91" width="3.99" height="5.03"/>
        <path class="cls-3" d="m270.21,190.1c0,.76-.21,1.49-.59,2.14l-5.42-3.05,4.39-2.47c1,.89,1.61,2.07,1.61,3.38Z"/>
        <path class="cls-3" d="m264.2,189.2l5.42,3.05c-1,1.7-3.13,2.88-5.62,2.88s-4.48-1.1-5.51-2.72l5.71-3.21Z"/>
        <rect class="cls-6" x="258.29" y="166.91" width="11.3" height="5.03"/>
        <path class="cls-3" d="m268.6,186.73l-4.39,2.47-4.64-2.6c1.13-.93,2.7-1.51,4.44-1.51,1.82,0,3.46.63,4.59,1.64Z"/>
        <path class="cls-3" d="m264.2,189.2l-5.71,3.21c-.44-.69-.69-1.48-.69-2.31,0-1.37.68-2.6,1.77-3.51l4.64,2.6Z"/>
        <path class="cls-3" d="m233.48,171.93l26.09,14.66c-1.09.9-1.77,2.14-1.77,3.51,0,.83.25,1.62.69,2.31l-15.35,8.63h-41.47l-15.64-8.79c.38-.65.59-1.38.59-2.14,0-1.3-.62-2.48-1.61-3.37l26.33-14.8h22.15Zm-5.96,18.17c0-2.77-2.25-5.02-5.02-5.02s-5.03,2.25-5.03,5.02,2.25,5.03,5.03,5.03,5.02-2.25,5.02-5.03Z"/>
        <polygon class="cls-3" points="258.29 171.93 233.48 171.93 227.78 171.93 227.78 166.91 258.29 166.91 258.29 171.93"/>
        <rect class="cls-6" x="216.48" y="166.91" width="11.3" height="5.03"/>
        <path class="cls-6" d="m222.5,185.08c2.77,0,5.02,2.25,5.02,5.02s-2.25,5.03-5.02,5.03-5.03-2.25-5.03-5.03,2.25-5.02,5.03-5.02Z"/>
        <path class="cls-3" d="m211.34,171.93l-26.33,14.8c-1.14-1.02-2.77-1.65-4.59-1.65s-3.31.58-4.44,1.51l-26.09-14.66h61.44Z"/>
        <polygon class="cls-3" points="185.96 171.93 185.96 166.91 216.48 166.91 216.48 171.93 211.34 171.93 185.96 171.93"/>
        <path class="cls-3" d="m201.68,201.04h-42.12l15.35-8.63c1.03,1.61,3.12,2.72,5.51,2.72s4.62-1.18,5.62-2.88l15.64,8.79Z"/>
        <path class="cls-3" d="m186.62,190.1c0,.76-.21,1.49-.59,2.14l-5.42-3.05,4.39-2.47c1,.89,1.61,2.07,1.61,3.37Z"/>
        <path class="cls-3" d="m180.62,189.2l5.42,3.05c-1,1.7-3.13,2.88-5.62,2.88s-4.48-1.1-5.51-2.72l5.71-3.21Z"/>
        <rect class="cls-6" x="174.66" y="166.91" width="11.3" height="5.03"/>
        <path class="cls-3" d="m180.42,185.08c1.82,0,3.46.63,4.59,1.65l-4.39,2.47-4.64-2.6c1.13-.93,2.7-1.51,4.44-1.51Z"/>
        <path class="cls-3" d="m180.62,189.2l-5.71,3.21c-.44-.69-.69-1.48-.69-2.31,0-1.37.68-2.6,1.77-3.51l4.64,2.6Z"/>
        <path class="cls-3" d="m149.89,171.93l26.09,14.66c-1.09.9-1.77,2.14-1.77,3.51,0,.83.25,1.62.69,2.31l-15.35,8.63h-41.47l-15.64-8.79c.38-.65.59-1.38.59-2.14,0-1.3-.62-2.48-1.61-3.37l26.33-14.8h22.15Zm-7.01,18.17c0-2.77-2.25-5.02-5.02-5.02s-5.03,2.25-5.03,5.02,2.25,5.03,5.03,5.03,5.02-2.25,5.02-5.03Z"/>
        <polygon class="cls-3" points="174.66 171.93 149.89 171.93 144.15 171.93 144.15 166.91 174.66 166.91 174.66 171.93"/>
        <rect class="cls-6" x="132.84" y="166.91" width="11.3" height="5.03"/>
        <path class="cls-6" d="m137.86,185.08c2.77,0,5.02,2.25,5.02,5.02s-2.25,5.03-5.02,5.03-5.03-2.25-5.03-5.03,2.25-5.02,5.03-5.02Z"/>
        <path class="cls-3" d="m127.75,171.93l-26.33,14.8c-1.14-1.02-2.77-1.65-4.59-1.65s-3.31.58-4.44,1.51l-26.09-14.66h61.44Z"/>
        <polygon class="cls-3" points="132.84 171.93 127.75 171.93 102.33 171.93 102.33 166.91 132.84 166.91 132.84 171.93"/>
        <path class="cls-3" d="m118.09,201.04h-42.12l15.35-8.63c1.03,1.61,3.11,2.72,5.51,2.72s4.62-1.18,5.62-2.88l15.64,8.79Z"/>
        <path class="cls-3" d="m103.03,190.1c0,.76-.21,1.49-.59,2.14l-5.42-3.05,4.39-2.47c1,.89,1.61,2.07,1.61,3.37Z"/>
        <path class="cls-3" d="m97.03,189.2l5.42,3.05c-1,1.7-3.13,2.88-5.62,2.88s-4.48-1.1-5.51-2.72l5.71-3.21Z"/>
        <rect class="cls-6" x="91.03" y="166.91" width="11.3" height="5.03"/>
        <path class="cls-3" d="m96.83,185.08c1.82,0,3.46.63,4.59,1.65l-4.39,2.47-4.64-2.6c1.13-.93,2.7-1.51,4.44-1.51Z"/>
        <path class="cls-3" d="m97.03,189.2l-5.71,3.21c-.44-.69-.69-1.48-.69-2.31,0-1.37.68-2.6,1.77-3.51l4.64,2.6Z"/>
        <path class="cls-3" d="m66.31,171.93l26.09,14.66c-1.09.9-1.77,2.14-1.77,3.51,0,.83.25,1.62.69,2.31l-15.35,8.63h-41.66l-15.64-8.79c.38-.65.59-1.38.59-2.14,0-1.3-.62-2.48-1.61-3.37l26.33-14.8h22.34Zm-8.52,18.17c0-2.77-2.25-5.02-5.02-5.02s-5.03,2.25-5.03,5.02,2.25,5.03,5.03,5.03,5.02-2.25,5.02-5.03Z"/>
        <polygon class="cls-3" points="91.03 171.93 66.31 171.93 60.51 171.93 60.51 166.91 91.03 166.91 91.03 171.93"/>
        <rect class="cls-6" x="49.21" y="166.91" width="11.3" height="5.03"/>
        <path class="cls-6" d="m52.76,185.08c2.77,0,5.02,2.25,5.02,5.02s-2.25,5.03-5.02,5.03-5.03-2.25-5.03-5.03,2.25-5.02,5.03-5.02Z"/>
        <polygon class="cls-3" points="49.21 171.93 43.97 171.93 18.7 171.93 18.7 166.91 49.21 166.91 49.21 171.93"/>
        <path class="cls-3" d="m34.31,201.04H3.78v-6.52l3.76-2.11c1.03,1.61,3.12,2.72,5.51,2.72s4.62-1.18,5.62-2.88l15.64,8.79Z"/>
        <path class="cls-3" d="m19.25,190.1c0,.76-.21,1.49-.59,2.14l-5.42-3.05,4.39-2.47c1,.89,1.61,2.07,1.61,3.37Z"/>
        <rect class="cls-6" x="7.4" y="166.91" width="11.3" height="5.03"/>
        <path class="cls-3" d="m13.25,189.2l5.42,3.05c-1,1.7-3.13,2.88-5.62,2.88s-4.48-1.1-5.51-2.72l5.71-3.21Z"/>
        <path class="cls-3" d="m13.05,185.08c1.82,0,3.46.63,4.59,1.65l-4.39,2.47-4.64-2.6c1.13-.93,2.7-1.51,4.44-1.51Z"/>
        <path class="cls-3" d="m13.25,189.2l-5.71,3.21c-.44-.69-.69-1.48-.69-2.31,0-1.37.68-2.6,1.77-3.51l4.64,2.6Z"/>
        <path class="cls-3" d="m3.78,183.88l4.84,2.72c-1.09.9-1.77,2.14-1.77,3.51,0,.83.25,1.62.69,2.31l-3.76,2.11v-10.64Z"/>
        <polygon class="cls-7" points="216.48 166.91 185.96 166.91 174.66 166.91 144.15 166.91 132.84 166.91 102.33 166.91 91.03 166.91 60.51 166.91 49.21 166.91 18.7 166.91 7.4 166.91 3.78 166.91 3.78 99.45 4.66 99.45 273.59 99.45 273.59 166.91 269.6 166.91 258.29 166.91 227.78 166.91 216.48 166.91"/>
        <path class="cls-3" d="m3.78,171.93h40.19l-26.33,14.8c-1.14-1.02-2.77-1.65-4.59-1.65s-3.31.58-4.44,1.51l-4.84-2.72v-11.94Z"/>
      </g>
      <g>
        <polyline class="cls-11" points="273.59 201.04 243.14 201.04 201.68 201.04 159.56 201.04 118.09 201.04 75.97 201.04 34.31 201.04 3.78 201.04"/>
        <line class="cls-11" x1="3.78" y1="93.68" x2="273.59" y2="93.68"/>
        <line class="cls-11" x1="3.78" y1="99.45" x2="273.59" y2="99.45"/>
        <line class="cls-11" x1="269.6" y1="166.91" x2="273.59" y2="166.91"/>
        <line class="cls-11" x1="227.78" y1="166.91" x2="258.29" y2="166.91"/>
        <line class="cls-11" x1="185.96" y1="166.91" x2="216.48" y2="166.91"/>
        <line class="cls-11" x1="144.15" y1="166.91" x2="174.66" y2="166.91"/>
        <line class="cls-11" x1="102.33" y1="166.91" x2="132.84" y2="166.91"/>
        <line class="cls-11" x1="60.51" y1="166.91" x2="91.03" y2="166.91"/>
        <line class="cls-11" x1="18.7" y1="166.91" x2="49.21" y2="166.91"/>
        <line class="cls-11" x1="3.78" y1="166.91" x2="7.4" y2="166.91"/>
        <line class="cls-11" x1="269.6" y1="171.93" x2="273.59" y2="171.93"/>
        <polyline class="cls-11" points="227.78 171.93 233.48 171.93 258.29 171.93"/>
        <polyline class="cls-11" points="185.96 171.93 211.34 171.93 216.48 171.93"/>
        <polyline class="cls-11" points="144.15 171.93 149.89 171.93 174.66 171.93"/>
        <polyline class="cls-11" points="102.33 171.93 127.75 171.93 132.84 171.93"/>
        <polyline class="cls-11" points="60.51 171.93 66.31 171.93 91.03 171.93"/>
        <polyline class="cls-11" points="18.7 171.93 43.97 171.93 49.21 171.93"/>
        <line class="cls-11" x1="3.78" y1="171.93" x2="7.4" y2="171.93"/>
        <polyline class="cls-11" points="75.97 201.04 91.31 192.41 97.03 189.2 101.42 186.73 127.75 171.93"/>
        <polyline class="cls-11" points="118.09 201.04 102.44 192.25 97.03 189.2 92.39 186.59 66.31 171.93"/>
        <path class="cls-11" d="m142.88,190.1c0,2.78-2.25,5.03-5.02,5.03s-5.03-2.25-5.03-5.03,2.25-5.02,5.03-5.02,5.02,2.25,5.02,5.02Z"/>
        <path class="cls-11" d="m227.52,190.1c0,2.78-2.25,5.03-5.02,5.03s-5.03-2.25-5.03-5.03,2.25-5.02,5.03-5.02,5.02,2.25,5.02,5.02Z"/>
        <path class="cls-11" d="m101.42,186.73c1,.89,1.61,2.07,1.61,3.37,0,.76-.21,1.49-.59,2.14-1,1.7-3.13,2.88-5.62,2.88s-4.48-1.1-5.51-2.72c-.44-.69-.69-1.48-.69-2.31,0-1.37.68-2.6,1.77-3.51,1.13-.93,2.7-1.51,4.44-1.51,1.82,0,3.46.63,4.59,1.65Z"/>
        <polyline class="cls-11" points="3.78 194.52 7.54 192.41 13.25 189.2 17.64 186.73 43.97 171.93"/>
        <polyline class="cls-11" points="34.31 201.04 18.66 192.25 13.25 189.2 8.61 186.59 3.78 183.88"/>
        <path class="cls-11" d="m17.64,186.73c1,.89,1.61,2.07,1.61,3.37,0,.76-.21,1.49-.59,2.14-1,1.7-3.13,2.88-5.62,2.88s-4.48-1.1-5.51-2.72c-.44-.69-.69-1.48-.69-2.31,0-1.37.68-2.6,1.77-3.51,1.13-.93,2.7-1.51,4.44-1.51,1.82,0,3.46.63,4.59,1.65Z"/>
        <polyline class="cls-11" points="159.56 201.04 174.9 192.41 180.62 189.2 185.01 186.73 211.34 171.93"/>
        <polyline class="cls-11" points="201.68 201.04 186.03 192.25 180.62 189.2 175.98 186.59 149.89 171.93"/>
        <path class="cls-11" d="m185.01,186.73c1,.89,1.61,2.07,1.61,3.37,0,.76-.21,1.49-.59,2.14-1,1.7-3.13,2.88-5.62,2.88s-4.48-1.1-5.51-2.72c-.44-.69-.69-1.48-.69-2.31,0-1.37.68-2.6,1.77-3.51,1.13-.93,2.7-1.51,4.44-1.51,1.82,0,3.46.63,4.59,1.65Z"/>
        <polyline class="cls-11" points="243.14 201.04 258.49 192.41 264.2 189.2 268.6 186.73 273.59 183.92"/>
        <polyline class="cls-11" points="273.59 194.48 269.62 192.25 264.2 189.2 259.57 186.59 233.48 171.93"/>
        <path class="cls-11" d="m268.6,186.73c1,.89,1.61,2.07,1.61,3.38,0,.76-.21,1.49-.59,2.14-1,1.7-3.13,2.88-5.62,2.88s-4.48-1.1-5.51-2.72c-.44-.69-.69-1.48-.69-2.31,0-1.37.68-2.6,1.77-3.51,1.13-.93,2.7-1.51,4.44-1.51,1.82,0,3.46.63,4.59,1.64Z"/>
        <path class="cls-11" d="m57.78,190.1c0,2.78-2.25,5.03-5.02,5.03s-5.03-2.25-5.03-5.03,2.25-5.02,5.03-5.02,5.02,2.25,5.02,5.02Z"/>
        <rect class="cls-11" x="7.4" y="166.91" width="11.3" height="5.03"/>
        <rect class="cls-11" x="49.21" y="166.91" width="11.3" height="5.03"/>
        <rect class="cls-11" x="91.03" y="166.91" width="11.3" height="5.03"/>
        <rect class="cls-11" x="132.84" y="166.91" width="11.3" height="5.03"/>
        <rect class="cls-11" x="174.66" y="166.91" width="11.3" height="5.03"/>
        <rect class="cls-11" x="216.48" y="166.91" width="11.3" height="5.03"/>
        <rect class="cls-11" x="258.29" y="166.91" width="11.3" height="5.03"/>
      </g>
    </g>
  </g>
  <g id="_レイヤー_2" data-name="レイヤー 2">
    <g class="cls-13">
      <g>
        <g>
          <path class="cls-2" d="m259.76,98.12c2.38,2.53-2.4,10.53-11.86,20.88-7.39,8.1-19.18,9.04-27.94,7.89-2.45-.33-4.67-.81-6.48-1.35,5.62-3.62,11.23-8.47,14.46-10.89,5.41-4.06,23.27-14.41,31.83-16.54Z"/>
          <path class="cls-10" d="m255.34,94.03c1.75,1.18,3.25,2.53,4.42,4.08-8.55,2.13-26.42,12.48-31.83,16.54-3.23,2.43-8.84,7.28-14.46,10.89-1.79,1.16-3.58,2.18-5.29,2.95-1.9.86-3.7,1.43-5.32,1.54-2.67.19-5.65.24-8.41.23-1.76,0-3.42-.04-4.85-.06-2.74-.07-4.61-.17-4.61-.17l-.5-4.28c6.04,1.39,17.65-3.48,27.24-8.55,7.01-3.7,12.95-7.5,14.84-9.01,4.51-3.61,15.16-11.56,28.76-14.16Z"/>
          <path class="cls-1" d="m250.44,91.32c1.77.8,3.42,1.7,4.9,2.72-13.6,2.6-24.25,10.56-28.76,14.16-1.9,1.52-7.83,5.32-14.84,9.01l-1.21-2.25c1.97-1.01,3.9-2.12,5.77-3.32,4.43-2.84,9-6.51,14.45-10.18,5.45-3.67,11.77-7.33,19.69-10.15Z"/>
          <path class="cls-1" d="m245.74,89.46c1.62.56,3.21,1.17,4.7,1.85-7.92,2.82-14.24,6.48-19.69,10.15l-1.33-2.05c7.19-5,12.91-9.19,16.33-9.96Z"/>
          <path class="cls-5" d="m190.85,102.61s6.72-2.83,14.08-6.54c7.97-4.01,16.7-9.06,18.5-12.65,6.04,1.88,14.68,3.4,22.3,6.04-3.41.77-9.14,4.96-16.33,9.96-7.18,4.99-15.81,10.8-25.05,14.78-15.52,6.69-20.57,5.62-20.57,5.62,0,0-4.47.29-9.23.27-1.79,0-3.62-.05-5.27-.18-1.08-.09-2.1-.19-2.96-.35-2.73,3.26-17.52,8.27-17.52,8.27h0c-.32-.63-.61-1.23-.86-1.78-1.76-3.95-6.57-14.23-3.62-20.36.86-1.78,2.36-3.21,4.8-4.03,2.8-.95,5.49-1.42,8.11-1.58,7.47-.45,14.31,1.63,21.31,2.21,3.24.27,7.72.37,12.31.31Z"/>
          <path class="cls-1" d="m229.41,99.42l1.33,2.05c-5.44,3.67-10.02,7.34-14.45,10.18-1.87,1.2-3.8,2.3-5.77,3.32-8.64,4.45-17.98,7.17-26.04,8.77l-.24.03-.46-3.93s5.04,1.07,20.57-5.62c9.23-3.99,17.87-9.79,25.05-14.78Z"/>
          <path class="cls-5" d="m227.18,62.82s-1.96,18.35-3.75,20.6c-1.8,3.59-10.53,8.63-18.5,12.65-.32-1.08-.62-2.13-.91-3.13l.05-.02s13.95-18.35,23.11-30.1Z"/>
          <path class="cls-1" d="m201.95,86.02c-.06-.22-.13-.44-.2-.66.73-.99,21.74-27.21,21.74-27.21,1.23,1.35,2.47,2.89,3.7,4.67-9.15,11.75-23.11,30.1-23.11,30.1l-.05.02c-.76-2.56-1.44-4.85-2.07-6.92Z"/>
          <path class="cls-1" d="m220.95,55.65c.86.74,1.7,1.57,2.54,2.5,0,0-21.01,26.22-21.74,27.21-.41-1.34-.79-2.59-1.16-3.76.88-1.16,20.22-25.79,20.22-25.79l.14-.16Z"/>
          <path class="cls-1" d="m220.95,55.65l-.14.16s-19.34,24.62-20.22,25.79c-.43-1.33-.84-2.57-1.23-3.7l18.77-24.44c.95.64,1.89,1.37,2.82,2.19Z"/>
          <path class="cls-2" d="m219.96,126.89l-.04.4s-8.38,7.01-19.63,10.61l-.09-.27c4.17-1.36,7.99-9.13,7.99-9.13,1.71-.78,3.5-1.8,5.29-2.95,1.82.54,4.03,1.02,6.48,1.35Z"/>
          <path class="cls-5" d="m210.88,49.91c2.53.88,4.92,1.98,7.24,3.55l-18.77,24.44c-2.16-6.32-3.85-9.83-6.32-13.84-.47-.75-.93-1.46-1.38-2.13-1.42-2.11-2.83-3.9-4.44-5.71,1.76-2.16,2.26-7.14,2.36-11.84h.04c2.99.93,5.77,1.64,8.38,2.25,4.8,1.12,9.01,1.93,12.89,3.27Z"/>
          <path class="cls-1" d="m210.53,114.96l1.21,2.25c-9.6,5.07-21.2,9.95-27.24,8.55l-.24-2.01.24-.03c8.05-1.6,17.39-4.31,26.04-8.77Z"/>
          <path class="cls-2" d="m188.44,28.85s25.66,6.69,22.45,21.06c-3.88-1.34-8.1-2.15-12.89-3.27.04-6.91-8.38-8.97-8.38-8.97h-.04c-.02-.76-.03-1.43-.03-1.98,0-1.56-.42-4.03-1.1-6.84Z"/>
          <path class="cls-2" d="m208.18,128.5s-3.82,7.77-7.99,9.13c-4.16,1.36-5.58-2.41-6.9-5.04.39-.71.78-1.48,1.16-2.32,2.75,0,5.73-.04,8.41-.23,1.61-.11,3.42-.68,5.32-1.54Z"/>
          <path class="cls-5" d="m200.58,81.6c.37,1.16.76,2.42,1.16,3.76.07.22.14.44.2.66.64,2.07,1.31,4.37,2.07,6.92.29,1.01.59,2.05.91,3.13-7.36,3.7-14.08,6.54-14.08,6.54-4.59.06-9.08-.04-12.31-.31-7-.58-13.84-2.66-21.31-2.21v-.06c-2.56-.08-1.24-8.19-1.24-8.19,0,0-.41.15-1.33-3.07-.66-2.32,1.19-6.22,3.4-8.94.86-1.06,1.78-1.95,2.63-2.5.72-.47,2.84-1.08,5.64-1.75,2.01-.48,4.38-.98,6.84-1.47.72-1.15,19.86-10.04,18.48-12.17.46.67.92,1.38,1.38,2.13,2.48,4,4.16,7.51,6.32,13.84.39,1.13.79,2.36,1.23,3.7Z"/>
          <path class="cls-2" d="m200.19,137.63l.09.27c-4.25,1.36-8.91,2.23-13.69,2.05,2.18-.99,4.45-3.2,6.7-7.36,1.31,2.63,2.73,6.39,6.9,5.04Z"/>
          <path class="cls-9" d="m189.61,37.67s8.42,2.05,8.38,8.97c-2.61-.61-5.39-1.31-8.38-2.25h-.04c.07-2.46.02-4.85,0-6.72h.04Z"/>
          <path class="cls-2" d="m186.59,139.96c-4.07,1.83-7.84-.64-10.64-2.72,4.58-1.91,8.94-4.47,13.65-6.97v-.06c1.43.03,3.09.06,4.85.06-.39.84-.78,1.61-1.16,2.32-2.26,4.16-4.52,6.38-6.7,7.36Z"/>
          <path class="cls-5" d="m191.65,61.93c1.38,2.13-17.75,11.02-18.48,12.17-2.46.49-4.83,1-6.84,1.47.34-1.44,1.04-3.17,1.97-5.03h0c.47-.26,15.45-8.32,17.52-9.02,2.11-.71,4.92-1,5.82.41Z"/>
          <path class="cls-10" d="m189.61,130.21v.06c-4.71,2.5-9.08,5.06-13.65,6.97-2.11.87-4.26,1.6-6.52,2.11-2.38.56-4.88.86-7.56.83-1.87-.02-3.82-.19-5.89-.56,0,0-.53-.78-1.33-1.99,9.64-3.76,12.69-1.45,22.37-10.67,0,0,2.57,2.12,7.97,3.09,0,0,1.87.1,4.61.17Z"/>
          <path class="cls-6" d="m189.57,37.67c.03,1.87.08,4.26,0,6.72-.11,4.7-.61,9.68-2.36,11.84-1.59-1.79-3.36-3.61-5.5-5.79-1.08-1.09-2.24-2.27-3.52-3.58-.38-.39-.77-.78-1.16-1.2h0c7.83-.98,8.18-5.83,9.1-11.39.65-3.94-.27-8.74-1.38-12.26l1.61-.51c.79,2.47,1.53,5.03,2.09,7.36.68,2.8,1.1,5.27,1.1,6.84,0,.56,0,1.23.03,1.98Z"/>
          <path class="cls-5" d="m187.21,56.22c1.61,1.81,3.02,3.6,4.44,5.71-.9-1.4-3.71-1.12-5.82-.41-2.07.71-17.06,8.77-17.52,9.01,4.29-8.6,13.41-20.11,13.41-20.11,2.14,2.19,3.92,4,5.5,5.79Z"/>
          <path class="cls-6" d="m186.35,21.49l-1.61.51c-.67-2.11-1.41-3.75-1.92-4.48-1.35-1.95-5.03-3.01-9.08-1.73-4.06,1.28-4.51,4.73-4.51,11.41s-3.76,13.84-5.13,15.42c-.91-1.68-2.05-3.32-3.5-4.91-1.76-1.93-3.53-3.18-5.28-3.96.88-1.92,1.88-4.59,2.98-7.44,1-2.61,2.07-5.38,3.22-7.92,2.09-4.63,4.4-8.48,6.85-9.16,5.29-1.46,11.83-2.47,14.64,3.49,1.06,2.27,2.26,5.44,3.33,8.78Z"/>
          <path class="cls-8" d="m177.02,45.64h0c.4.42.78.82,1.16,1.21,0,0-8.63,12.94-11.86,13.87,1.04-6.24.83-12.41-2.22-18.1,1.38-1.58,5.13-8.8,5.13-15.42s.45-10.13,4.51-11.41c4.05-1.28,7.73-.22,9.08,1.73.51.73,1.25,2.37,1.92,4.48,1.11,3.52,2.04,8.32,1.38,12.26-.93,5.56-1.27,10.41-9.1,11.38Zm7.3-23.31c0-.41-.48-.76-1.05-.76s-1.06.34-1.06.76.48.75,1.06.75,1.05-.34,1.05-.75Zm-7.96-.38c0-.41-.61-.75-1.36-.75s-1.35.34-1.35.75.61.75,1.35.75,1.36-.34,1.36-.75Z"/>
          <path class="cls-2" d="m184.49,125.77l.5,4.28c-5.41-.97-7.97-3.09-7.97-3.09,1.95-1.86,4.17-4.19,6.77-7.14l.46,3.93.24,2.01Z"/>
          <path class="cls-6" d="m183.28,21.57c.57,0,1.05.34,1.05.76s-.48.75-1.05.75-1.06-.34-1.06-.75.48-.76,1.06-.76Z"/>
          <path class="cls-5" d="m178.19,46.85c1.28,1.31,2.44,2.49,3.52,3.58,0,0-9.12,11.51-13.41,20.11h0c-.93,1.87-1.63,3.6-1.97,5.04-2.8.67-4.92,1.28-5.64,1.75-.85.55-1.76,1.44-2.63,2.5l-1.58-.65c5.19-6.71,8.77-12.95,9.53-16.74.11-.56.22-1.14.32-1.7,3.24-.93,11.86-13.87,11.86-13.87Z"/>
          <path class="cls-1" d="m183.8,119.82c-2.6,2.95-4.82,5.27-6.77,7.14-9.68,9.23-12.73,6.91-22.37,10.67-.41-.62-.88-1.35-1.39-2.16-.36-.57-.75-1.19-1.15-1.83,9.89-.22,22.45-13.53,22.45-13.53h0c4.76,0,9.23-.28,9.23-.28Z"/>
          <path class="cls-6" d="m175.01,21.2c.75,0,1.36.34,1.36.75s-.61.75-1.36.75-1.35-.34-1.35-.75.61-.75,1.35-.75Z"/>
          <path class="cls-1" d="m174.56,120.09h0s-12.56,13.32-22.45,13.54c-.67-1.08-1.35-2.22-1.99-3.35h0c9.22-1.35,19.15-10.18,19.15-10.18l.02-.19c1.65.12,3.48.17,5.27.18Z"/>
          <path class="cls-9" d="m169.44,139.36c.65,2.78,4.58,7.72,4.58,7.72,0,0-6.43.9-8.23.6-1.81-.3-3.91-7.49-3.91-7.49h0c2.68.02,5.18-.28,7.56-.84h0Z"/>
          <path class="cls-1" d="m149.08,128.39c-.1-.19-.19-.38-.29-.56h0s14.8-5.01,17.52-8.27c.86.16,1.88.26,2.96.35l-.02.19s-9.93,8.83-19.15,10.17h0c-.36-.64-.71-1.26-1.04-1.88Z"/>
          <path class="cls-5" d="m142.92,58.71l-1.91-1.58c-1.09-3.67-10.8-19.46-10.8-19.46,4.22-1.74,8.43-3.3,10.8-3.72,2.2-.39,4.52-.99,6.91-1.22h.02c2.41-.24,4.89-.09,7.38,1.02,1.76.78,3.53,2.03,5.28,3.96,1.45,1.59,2.59,3.23,3.5,4.91,3.05,5.69,3.26,11.85,2.22,18.1-.1.56-.2,1.14-.32,1.7-.77,3.79-4.35,10.03-9.53,16.74-1.44,1.85-3,3.74-4.65,5.63-.32,3.93-3.26,11.9-7.83,20.73-.41.8-.85,1.62-1.29,2.44-2.31,4.27-6.1,7.47-9.98,9.78-5.02,3.01-10.15,4.52-12.31,4.97-.49.1-1.46.26-2.8.44.12-.21.25-.43.36-.65l.02-.02c2.6-4.12,4.85-19.47,5.68-27.36.9-8.55,3.61-16.1,7.54-22.18.12-.2.24-.41.36-.6.67-1.11,1.36-2.16,2.05-3.16.74-1.07,1.48-2.07,2.23-3.02.96-1.22,1.91-2.33,2.88-3.35,1.43-1.56,2.84-2.93,4.18-4.12Z"/>
          <path class="cls-2" d="m161.52,18.39c-1.15,2.54-2.22,5.31-3.22,7.92-4.33-2.33-19.16-1.56-33.05,0-8.25.92-16.92,6.17-24.1,11.85.93-.78,3.63-3.01,6.93-5.71,1.36-1.11,2.83-2.3,4.31-3.5,1.76-1.43,3.56-2.87,5.25-4.2,3.29-2.6,6.16-4.81,7.6-5.73,3.96-2.56,11.42-6.43,13.54-7.51,4.96.02,6.9,2.04,10.33,3.73,4.21,2.06,8.85,2.88,12.4,3.15Z"/>
          <path class="cls-5" d="m156.47,79.16l1.58.65c-2.2,2.73-4.06,6.62-3.4,8.94.92,3.22,1.33,3.07,1.33,3.07,0,0-1.31,8.11,1.23,8.19v.06c-2.61.16-5.3.63-8.11,1.58-2.43.82-3.94,2.25-4.8,4.03l-.33-.17c4.57-8.84,7.51-16.8,7.83-20.73,1.65-1.89,3.21-3.77,4.65-5.63Z"/>
          <path class="cls-5" d="m158.3,26.31c-1.1,2.86-2.1,5.52-2.98,7.44-2.5-1.11-4.97-1.26-7.38-1.02h-.02c-15.02-1.09-22.68,1.01-35.52,8.02-8.37,4.57-18.7,12.72-18.7,12.72l-4.59-4.27c2.84-2.97,6.93-6.95,11.69-10.75,0,0,.04-.04.12-.11.07-.05.15-.11.22-.18,0,0,0,0,0,0,7.18-5.68,15.85-10.94,24.1-11.85,13.89-1.56,28.72-2.33,33.05,0Z"/>
          <path class="cls-9" d="m152.12,133.63c.4.64.78,1.26,1.15,1.83,0,0-4.89,6.66-6.24,12.51-1.05,1.36-8.29,1.36-8.29,1.36l11.39-19.05c.64,1.13,1.32,2.27,1.99,3.35Z"/>
          <path class="cls-2" d="m148.79,127.84c.1.18.19.37.29.56-7.09,9.01-29.98,14.02-36.67,13.11,8.59-4.67,18.15-18.21,20.31-23.76,3.88-2.31,7.67-5.51,9.98-9.78.44-.82.87-1.64,1.29-2.44l.33.17c-2.95,6.14,1.86,16.41,3.62,20.36.25.56.54,1.16.86,1.78Z"/>
          <path class="cls-5" d="m142.92,58.71c-1.34,1.19-2.75,2.56-4.18,4.12h0c-.93-6.31-12.01-23.69-12.01-23.69,1.14-.49,2.32-.99,3.49-1.47,0,0,9.71,15.8,10.8,19.46l1.91,1.58Z"/>
          <path class="cls-1" d="m112.4,40.74c12.84-7.01,20.5-9.11,35.52-8.02-2.39.23-4.71.83-6.91,1.22-2.37.42-6.59,1.98-10.8,3.72-1.17.49-2.35.99-3.49,1.47-1.29.56-2.53,1.1-3.66,1.61-3.31,1.47-5.69,2.6-5.69,2.6-7.41,3.35-20.94,12.64-20.94,12.64l-2.73-2.52s10.33-8.15,18.7-12.72Z"/>
          <path class="cls-2" d="m108.2,14.56c-.36-.19-.73-.34-1.11-.49-4.91-1.91-10.2-2.17-14.94-1.16,2.27-2.6,8.07-5.59,13.86-8.44,7.64-3.75,10.24-.6,15.73,3.64s5.32,4.91,13.27,3.71c1.45-.22,2.69-.31,3.78-.31-2.12,1.08-9.58,4.96-13.54,7.51-1.44.93-4.31,3.13-7.6,5.73-.1-1.1-4-7.47-9.45-10.2Z"/>
          <path class="cls-1" d="m138.73,62.82h0c-.96,1.03-1.91,2.14-2.88,3.36-.41-7.22-12.81-25.44-12.81-25.44,1.13-.5,2.37-1.05,3.66-1.61,0,0,11.09,17.37,12.01,23.68Z"/>
          <path class="cls-1" d="m135.86,66.18c-.75.94-1.49,1.95-2.23,3.02-.6-1.76-1.3-3.48-2.05-5.13-5.48-11.96-14.21-20.72-14.21-20.72,0,0,2.38-1.13,5.69-2.6,0,0,12.39,18.21,12.81,25.44Z"/>
          <path class="cls-2" d="m131.58,64.06c.76,1.65,1.46,3.37,2.05,5.13-.7,1-1.38,2.05-2.05,3.16,0,0-1.46.84-3.28,1.91-.97.57-2.05,1.2-3.04,1.8-1.31.78-2.49,1.51-3.16,1.96-.11.07-.23.23-.36.46l-.02.02c-.11.11-.24.21-.35.32l-.31-.34s7.11-12.74,10.52-14.41Z"/>
          <path class="cls-10" d="m120.41,122.72c2.16-.45,7.29-1.97,12.31-4.97-2.16,5.55-11.72,19.09-20.31,23.76h0c-.79.44-1.59.8-2.35,1.07-3.7,1.28-11.32,2.49-20.81,1.19-6.69-.91-14.32-3.06-22.18-7.29-4.13-2.23-8.32-5.04-12.46-8.54-4.3-3.63-8.55-8.02-12.66-13.28,1.08.11,5.42-.73,11.18-1.96,0,0,17.1,15.98,25.47,18.55,8.63,2.64,27.91,11.32,39.03-8.08,1.33-.19,2.31-.34,2.8-.44Z"/>
          <path class="cls-1" d="m117.99,122.49l-.02.02c-.18.28-.36.51-.55.68-.97.14-2.11.3-3.38.48,2.31-2.6,6.42-19.46,7.22-27.18.82-7.99,3.94-17.87,7.02-22.23,1.82-1.07,3.28-1.91,3.28-1.91-.12.19-.24.4-.36.6-3.93,6.08-6.64,13.63-7.54,22.18-.83,7.88-3.08,23.24-5.68,27.36Z"/>
          <path class="cls-1" d="m125.25,76.06c1-.6,2.07-1.23,3.04-1.8-3.08,4.36-6.2,14.23-7.02,22.23-.8,7.73-4.91,24.58-7.22,27.18-1.14.16-2.37.33-3.67.5,2.03-2.79,7.78-19.33,8.48-26.34.75-7.43,4.17-19.15,6.39-21.78Z"/>
          <path class="cls-2" d="m117.22,47.43c-.02-1.38.04-2.74.15-4.08,0,0,8.73,8.76,14.21,20.72-3.41,1.67-10.52,14.41-10.52,14.41l-.76-.34s-.78-15.2-1.8-19.7c-.75-3.31-1.25-7.17-1.28-11Z"/>
          <path class="cls-1" d="m122.1,78.02c.67-.45,1.85-1.17,3.16-1.96-2.21,2.63-5.64,14.35-6.39,21.78-.71,7-6.46,23.55-8.48,26.34-1.39.19-2.87.39-4.37.58,1.05-.54,9.77-18.72,10.45-25.57.63-6.29,3.7-18.07,5.25-20.69l.02-.02c.13-.23.26-.39.36-.46Z"/>
          <path class="cls-10" d="m109.38,103.19c.5-2.28.86-4.51,1.03-6.47.2-2.2.89-4.45,1.98-6.66h0c.2-.43.43-.86.68-1.3,1.59-2.82,3.8-5.59,6.46-8.23.58-.58,1.19-1.16,1.82-1.72.11-.11.24-.21.35-.32-1.55,2.62-4.62,14.4-5.25,20.69-.68,6.85-9.4,25.03-10.45,25.57,0,0,0,0,0,0-5.99.82-12.44,1.72-16.47,2.43,5.21-1.98,11.87-6.25,14.67-10.44,2.3-3.46,4.09-8.64,5.18-13.56Z"/>
          <path class="cls-9" d="m121.05,78.48l.31.34c-.63.56-1.23,1.14-1.82,1.72,0,0-22.33-7.58-30.44-10.17-8.11-2.58-23.08-4.95-40.53-8.11-10.74-1.94-20.15-8.89-23.98-12.34-1.97-1.77-4.57-4.58-6.61-6.88l.09-.08,10.69-9.08c1.08.98,2.73,2.51,4.67,4.26,4.35,3.9,10.12,8.78,14.02,10.5,5.63,2.47,18.01,10.69,30.74,11.37,12.72.68,28.29,6.61,30.07,6.97l12.03,11.16.76.34Z"/>
          <path class="cls-5" d="m120.3,78.13l-12.03-11.16-9.06-8.41s14.54-10.49,18.01-11.14c.03,3.83.53,7.69,1.28,11,1.01,4.51,1.8,19.7,1.8,19.7Z"/>
          <path class="cls-1" d="m117.43,123.19l.19-.03c-11.11,19.4-30.4,10.72-39.03,8.08-8.37-2.57-25.47-18.55-25.47-18.55,1.46-.3,3-.64,4.6-.99,0,0,11.16,12.01,22.11,16.35.26.11.5.2.76.29,0,0,8.94,3.12,12.08,3.71,2.11.41,9.38,1.65,15.24-2.02,3.25-2.04,5.9-6.16,5.9-6.16.08-.05.15-.13.24-.22,1.27-.18,2.41-.34,3.38-.48Z"/>
          <path class="cls-1" d="m117.37,43.35c-.11,1.34-.17,2.71-.15,4.08-3.47.65-18.01,11.14-18.01,11.14l-1.54-1.44s0,0-.02,0l-1.22-1.14s13.53-9.29,20.94-12.64Z"/>
          <path class="cls-9" d="m108.2,14.56c5.45,2.73,9.36,9.09,9.45,10.2-1.68,1.33-3.48,2.77-5.25,4.2-7.14-1.31-4.67-12.52-4.21-14.39Z"/>
          <path class="cls-9" d="m119.55,80.53c-2.66,2.64-4.88,5.41-6.46,8.23-6.78-2.95-34.82-8.63-47.45-9.38s-23.1-4.96-39.46-10.18C9.8,63.97,1.29,51.5,1.29,51.5l13.28-12.36s1.46,1.73,3.4,3.9c2.05,2.3,4.65,5.11,6.61,6.88,3.83,3.45,13.24,10.4,23.98,12.34,17.45,3.16,32.43,5.52,40.53,8.11,8.11,2.59,30.44,10.17,30.44,10.17Z"/>
          <path class="cls-1" d="m114.05,123.67c-.09.09-.16.17-.24.22,0,0-2.65,4.12-5.9,6.16-5.86,3.67-13.13,2.43-15.24,2.02-3.14-.59-12.08-3.71-12.08-3.71-.26-.09-.5-.19-.76-.29l.06-.15c1.08.43,2.88.56,5.63.32,0,.04.07.09.21.12,17.75,4.47,21.35-1.01,24.32-3.83.1-.06.2-.19.34-.35,1.3-.18,2.53-.34,3.67-.5Z"/>
          <path class="cls-9" d="m113.08,88.76c-.25.43-.48.86-.68,1.3h0c-3.22,1.42-6.31,3.73-9.2,6.44-2.47-3.59-18.93-3.61-37.37-5.19-28.58,1.13-51.82-10.36-64.53-15.25h-.38s.38-24.56.38-24.56c0,0,8.51,12.47,24.88,17.7,16.36,5.22,26.83,9.43,39.46,10.18s40.67,6.44,47.45,9.38Z"/>
          <path class="cls-2" d="m112.4,28.95c-1.48,1.2-2.95,2.39-4.31,3.5-10.85-2.04-16.47-14.18-16.92-17.22-.08-.55.1-1.12.5-1.72.13-.2.29-.41.47-.62,4.74-1.01,10.03-.75,14.94,1.16.38.15.75.31,1.11.49-.46,1.87-2.93,13.08,4.21,14.39Z"/>
          <path class="cls-5" d="m112.39,90.06c-1.09,2.21-1.78,4.45-1.98,6.66-.18,1.97-.53,4.19-1.03,6.47-5.21,1.38-13.93,4.91-20.25,10.05,2.77-3.62,6.24-8.41,10.21-12.81h0c.71-.79,1.44-1.57,2.18-2.32.55-.56,1.1-1.09,1.67-1.62,2.88-2.71,5.98-5.02,9.2-6.44Z"/>
          <path class="cls-1" d="m110.38,124.17c-.13.17-.24.29-.34.35-2.96,2.81-6.56,8.3-24.32,3.83-.14-.04-.21-.08-.21-.12.32-.03.65-.06,1-.11.91-.19,1.93-.51,3.02-.93,4.03-.71,10.49-1.61,16.47-2.43,0,0,0,0,0,0,1.5-.19,2.97-.4,4.37-.58Z"/>
          <path class="cls-2" d="m109.38,103.19c-1.08,4.92-2.88,10.11-5.18,13.56-2.8,4.19-9.45,8.47-14.67,10.44-2.46.44-4.01.8-4.01,1.03-2.74.25-4.55.11-5.63-.32-1.73-.69-1.59-2.15-.48-4.02h0c1.32-2.22,4.04-5.03,6.64-7.81.92-.99,1.94-1.93,3.04-2.81,0,0,0,0,.02-.02,6.32-5.14,15.04-8.67,20.25-10.05Z"/>
          <path class="cls-9" d="m99.21,58.57l9.06,8.41c-1.78-.35-17.36-6.29-30.07-6.97-12.73-.68-25.11-8.9-30.74-11.37-3.9-1.71-9.68-6.6-14.02-10.5l.17-.19c1.69-1.57,12.54-6.31,12.54-6.31,1.37,2.34,3.18,4.47,5.05,6.31h0c2.72,2.68,5.53,4.74,7.21,5.87.95.65,1.54,1,1.54,1,.69.44,1.42.86,2.17,1.27,1.4.76,2.9,1.46,4.45,2.12,6.51,2.75,13.82,4.64,18,5.95,5.53,1.75,12.64,2.91,13.08,2.97,0,0,.02,0,.02,0l1.54,1.44Z"/>
          <path class="cls-9" d="m21.89,102.31c-2.03.1-3.97.19-5.79.27-2.11.1-4.05.19-5.8.26-5.49.24-9.1.35-9.79.29l.1-6.34c4.53,3.34,46.42,1.28,62.57,1.33,16.28.06,40.03-1.62,40.03-1.62-.56.53-1.12,1.07-1.67,1.62,0,0-49.94,2.75-79.64,4.19Z"/>
          <path class="cls-9" d="m91.03,13.73l.64-.21c-.41.6-.58,1.17-.5,1.72.45,3.03,6.07,15.18,16.92,17.22-3.3,2.7-6,4.92-6.93,5.71,0,0,0,0,0,0-.09.07-.16.13-.22.18-.08.07-.12.11-.12.11-3.03-5.46-13.16-13-15.97-15.36-1.79-1.51-3.36-3.2-4.35-2.89l-.64-1.71c.32-.11.63-.24.93-.35,2.33-.89,7.71-4.39,10.26-4.39Z"/>
          <path class="cls-5" d="m101.53,98.12c-.74.75-1.46,1.53-2.18,2.31h0c-.38.16-12.66,5.11-26.04,7.92-3.62.76-7.39,1.58-11.01,2.36-1.56.34-3.1.68-4.58,1-1.61.35-3.15.69-4.6.99-5.76,1.23-10.11,2.06-11.18,1.96-1.42-1.78-2.7.3-3.15,2.65-.1.49-.24,1.08-.42,1.8-7.42-3.41-16.2-16.39-16.47-16.79,29.7-1.44,79.64-4.19,79.64-4.19Z"/>
          <path class="cls-5" d="m99.34,100.44c-3.97,4.39-7.44,9.18-10.21,12.81,0,0-.02,0-.02.02-1.1.88-2.13,1.83-3.04,2.81-2.6,2.79-5.32,5.59-6.64,7.81h0c-9.34-4.43-17.12-13.18-17.12-13.18,3.62-.78,7.38-1.61,11.01-2.36,13.38-2.81,25.66-7.76,26.04-7.91Z"/>
          <path class="cls-5" d="m96.43,55.99l1.22,1.14c-.44-.06-7.55-1.23-13.08-2.97-4.18-1.31-11.49-3.2-18-5.95l.14-.33s10.84-10.21,13.82-10.93c.5,3.47,1.08,6.52,1.49,7.87,1.01,3.26,4.91,6.61,7.09,4.38l4.59,4.27,2.73,2.52Z"/>
          <path class="cls-2" d="m80.53,36.94c-.19-1.34-.38-2.75-.54-4.15-.16-1.34-.29-2.68-.39-3.94-.19-2.28-.27-4.34-.18-5.77.12-1.89.49-2.72,1.06-2.89.99-.31,2.56,1.38,4.35,2.89,2.81,2.36,12.95,9.9,15.97,15.36-4.76,3.8-8.85,7.78-11.69,10.75-2.18,2.22-6.08-1.12-7.09-4.38-.41-1.35-.99-4.39-1.49-7.87Z"/>
          <path class="cls-9" d="m65.83,91.31c18.44,1.58,34.9,1.6,37.37,5.19,0,0-23.75,1.68-40.03,1.62-16.15-.05-58.03,2.01-62.57-1.33l.32-20.73h.38c12.72,4.89,35.95,16.39,64.53,15.26Z"/>
          <path class="cls-2" d="m89.23,143.77l-.12.56c-8.69,6.73-17.77,9.2-26.01,9.45h-.02c-8.34.26-15.82-1.76-21.15-3.92,0,0-6.08-4.28-9.9-7.09,0,0,24.33.71,35.02-6.29,7.86,4.23,15.49,6.39,22.18,7.29Z"/>
          <path class="cls-1" d="m79.84,18.48l.64,1.71c-.56.18-.93,1.01-1.06,2.89-.1,1.43-.02,3.48.18,5.77h0c-9.9,1.99-21.18,14.97-21.18,14.97-1.68-1.14-4.5-3.19-7.21-5.87h0c4.35-9.31,17.27-15.12,28.65-19.47Z"/>
          <path class="cls-1" d="m79.99,32.79c.16,1.4.34,2.81.54,4.15-2.98.71-13.82,10.93-13.82,10.93l-.14.33c-1.54-.66-3.04-1.36-4.45-2.12l.11-.18s11.36-11.8,17.76-13.11Z"/>
          <path class="cls-1" d="m79.89,127.91l-.06.15c-10.95-4.34-22.11-16.35-22.11-16.35,1.48-.32,3.02-.65,4.58-1,0,0,7.78,8.75,17.12,13.18-1.11,1.87-1.25,3.33.48,4.02Z"/>
          <path class="cls-1" d="m79.6,28.85c.1,1.26.23,2.6.39,3.94-6.4,1.31-17.76,13.11-17.76,13.11l-.11.18c-.75-.41-1.48-.83-2.17-1.27,0,0-.59-.34-1.54-1,0,0,11.28-12.97,21.18-14.97h0Z"/>
          <path class="cls-2" d="m41.93,149.85c5.33,2.15,12.81,4.17,21.15,3.92-9.24,2.97-44.59.19-45.55.11.26-.04.53-.07.8-.11.62-.09,1.24-.18,1.88-.27,10.59-1.52,21.72-3.65,21.72-3.65Z"/>
          <path class="cls-2" d="m54.59,127.94c4.15,3.5,8.33,6.31,12.46,8.54-10.69,6.99-35.02,6.29-35.02,6.29-.34,1.35-6.76,7.66-11.82,10.74-.64.1-1.26.19-1.88.27h0c-6.03.08-13.11-18.31-13.11-18.31l16.65-1.08.37-.53c4.91,3.43,10.74,5.68,12.69.53,6.74.06,19.65-6.46,19.65-6.46Z"/>
          <path class="cls-2" d="m37.25,123.49c.43-1.79.82-3.24,1.11-4.39.19-.71.33-1.31.42-1.8.45-2.35,1.73-4.43,3.15-2.65,4.1,5.27,8.35,9.65,12.66,13.28,0,0-12.91,6.52-19.65,6.46.19-.52.35-1.12.47-1.8.28-1.7.57-3.25.86-4.66.34-1.68.67-3.15.99-4.45Z"/>
          <path class="cls-2" d="m32.03,142.76c3.83,2.81,9.9,7.09,9.9,7.09,0,0-11.13,2.13-21.72,3.65,5.06-3.09,11.47-9.39,11.82-10.74Z"/>
          <path class="cls-1" d="m38.36,119.1c-.29,1.16-.68,2.6-1.11,4.39-10.03-4.61-20.82-20.42-21.16-20.91,1.83-.09,3.77-.18,5.79-.27.27.41,9.06,13.38,16.47,16.79Z"/>
          <path class="cls-1" d="m37.25,123.49c-.32,1.3-.64,2.77-.99,4.45-12.88-5.82-25.97-25.1-25.97-25.1,1.76-.07,3.7-.16,5.8-.26.34.49,11.13,16.3,21.16,20.91Z"/>
          <path class="cls-10" d="m34.94,134.39c-1.95,5.15-7.78,2.9-12.69-.53-.58-.41-1.16-.84-1.71-1.27-5.63-4.42-20.04-19.9-20.04-19.9v-9.57c.69.06,4.3-.05,9.79-.29,0,0,13.1,19.28,25.97,25.1-.28,1.41-.57,2.95-.86,4.66-.11.68-.27,1.28-.47,1.8Z"/>
          <path class="cls-2" d="m18.33,153.77h0c-.27.04-.54.08-.8.11h-.02c-1.36.19-2.68.35-3.96.49-11.94,1.37-8.33-13.08-8.33-18.91,0,0,7.07,18.39,13.11,18.3Z"/>
        </g>
        <g>
          <path class="cls-12" d="m155.31,33.77s0,0,0-.02c.88-1.92,1.88-4.59,2.98-7.44,1-2.61,2.07-5.38,3.22-7.92,2.09-4.63,4.4-8.48,6.85-9.16,5.29-1.46,11.83-2.47,14.64,3.49,1.06,2.27,2.26,5.44,3.33,8.78.79,2.47,1.53,5.03,2.09,7.36.68,2.8,1.1,5.27,1.1,6.84,0,.56,0,1.23.03,1.98.03,1.87.08,4.26,0,6.72-.11,4.7-.61,9.68-2.36,11.84-.05.06-.1.12-.15.18"/>
          <path class="cls-12" d="m164.06,42.67l.04-.04c1.38-1.58,5.13-8.8,5.13-15.42s.45-10.13,4.51-11.41c4.05-1.28,7.73-.22,9.08,1.73.51.73,1.25,2.37,1.92,4.48,1.11,3.52,2.04,8.32,1.38,12.26-.93,5.56-1.27,10.41-9.1,11.38-1.05.13-2.24.19-3.58.18"/>
          <path class="cls-12" d="m173.14,27.58s1.72-.82,3.23-.82"/>
          <path class="cls-12" d="m181.85,26.76s1.5-.45,2.48-.45"/>
          <path class="cls-12" d="m181.85,30.96c.6,1.58.52,3.98,0,4.21-.53.22-1.43,0-1.43,0"/>
          <path class="cls-12" d="m179.56,38.44s2.5.34,2.91,0"/>
          <path class="cls-12" d="m101.16,38.16c7.18-5.68,15.85-10.94,24.1-11.85,13.89-1.56,28.72-2.33,33.05,0"/>
          <path class="cls-12" d="m100.93,38.34c.07-.05.15-.11.22-.18"/>
          <path class="cls-12" d="m97.65,57.12l-1.22-1.14-2.73-2.52-4.59-4.27c2.84-2.97,6.93-6.95,11.69-10.75"/>
          <path class="cls-12" d="m147.92,32.73c-2.39.23-4.71.83-6.91,1.22-2.37.42-6.59,1.98-10.8,3.72-1.17.49-2.35.99-3.49,1.47-1.29.56-2.53,1.1-3.66,1.61-3.31,1.47-5.69,2.6-5.69,2.6-.11,1.34-.17,2.71-.15,4.08.03,3.83.53,7.69,1.28,11,1.01,4.51,1.8,19.7,1.8,19.7l-12.03-11.16-9.06-8.41-1.54-1.44"/>
          <path class="cls-12" d="m131.11,103.13c7.35-4.67,14.68-11.47,20.72-18.34,1.65-1.89,3.21-3.77,4.65-5.63,5.19-6.71,8.77-12.95,9.53-16.74.11-.56.22-1.14.32-1.7,1.04-6.24.83-12.41-2.22-18.1-.91-1.68-2.05-3.32-3.5-4.91-1.76-1.93-3.53-3.18-5.28-3.96-2.5-1.11-4.97-1.26-7.38-1.02"/>
          <path class="cls-12" d="m155.99,43.35s-1.58,6.3-5.29,9.23c-1.75,1.38-4.55,3.26-7.78,6.14-1.34,1.19-2.75,2.56-4.18,4.12-.96,1.02-1.91,2.13-2.88,3.35-.75.94-1.49,1.95-2.23,3.02-.7,1-1.38,2.05-2.05,3.16-.12.19-.24.4-.36.6"/>
          <path class="cls-12" d="m130.21,37.67s9.71,15.8,10.8,19.46"/>
          <path class="cls-12" d="m123.06,40.74s12.39,18.21,12.81,25.44"/>
          <path class="cls-12" d="m126.72,39.14s11.09,17.37,12.01,23.68"/>
          <path class="cls-12" d="m117.98,122.51c-.18.28-.36.51-.55.68-.04.04-.07.07-.11.1"/>
          <path class="cls-12" d="m131.21,72.95c-3.93,6.08-6.64,13.63-7.54,22.18-.83,7.88-3.08,23.24-5.68,27.36"/>
          <path class="cls-12" d="m128.3,74.26c-3.08,4.36-6.2,14.23-7.02,22.23-.8,7.73-4.91,24.58-7.22,27.18-.09.09-.16.17-.24.22"/>
          <path class="cls-12" d="m125.25,76.06c-2.21,2.63-5.64,14.35-6.39,21.78-.71,7-6.46,23.55-8.48,26.34-.13.17-.24.29-.34.35"/>
          <path class="cls-12" d="m121.73,78.48c.13-.23.26-.39.36-.46.67-.45,1.85-1.17,3.16-1.96,1-.6,2.07-1.23,3.04-1.8,1.82-1.07,3.28-1.91,3.28-1.91"/>
          <path class="cls-12" d="m106.02,124.75c1.05-.54,9.77-18.72,10.45-25.57.63-6.29,3.7-18.07,5.25-20.69"/>
          <path class="cls-12" d="m112.4,90.06c.2-.43.43-.86.68-1.3,1.59-2.82,3.8-5.59,6.46-8.23.58-.58,1.19-1.16,1.82-1.72.11-.11.24-.21.35-.32l.02-.02"/>
          <path class="cls-12" d="m79.42,123.89c-1.11,1.87-1.25,3.33.48,4.02,1.08.43,2.88.56,5.63.32.32-.03.65-.06,1-.11.91-.19,1.93-.51,3.02-.93,5.21-1.98,11.87-6.25,14.67-10.44,2.3-3.46,4.09-8.64,5.18-13.56.5-2.28.86-4.51,1.03-6.47.2-2.2.89-4.45,1.98-6.66"/>
          <path class="cls-12" d="m89.11,113.26c-1.1.88-2.13,1.83-3.04,2.81-2.6,2.79-5.32,5.59-6.64,7.81"/>
          <path class="cls-12" d="m109.6,103.13c-.07.02-.14.04-.22.06-5.21,1.38-13.93,4.91-20.25,10.05"/>
          <path class="cls-12" d="m99.35,100.43c.71-.78,1.44-1.56,2.18-2.31.55-.56,1.1-1.09,1.67-1.62,2.88-2.71,5.98-5.02,9.2-6.44h0"/>
          <path class="cls-12" d="m89.11,113.26s0,0,.02-.02c2.77-3.62,6.24-8.41,10.21-12.81"/>
          <path class="cls-12" d="m112.41,141.51c8.59-4.67,18.15-18.21,20.31-23.76"/>
          <path class="cls-12" d="m99.35,100.43h0c-.38.16-12.66,5.11-26.04,7.92-3.62.76-7.39,1.58-11.01,2.36-1.56.34-3.1.68-4.58,1-1.61.35-3.15.69-4.6.99-5.76,1.23-10.11,2.06-11.18,1.96,4.1,5.27,8.35,9.65,12.66,13.28,4.15,3.5,8.33,6.31,12.46,8.54,7.86,4.23,15.49,6.39,22.18,7.29,9.5,1.3,17.11.09,20.81-1.19.77-.26,1.56-.63,2.35-1.07"/>
          <path class="cls-12" d="m53.12,112.7s17.1,15.98,25.47,18.55c8.63,2.64,27.91,11.32,39.03-8.08.12-.21.25-.43.36-.65l.02-.02s.04-.08.06-.11"/>
          <path class="cls-12" d="m62.3,110.71s7.78,8.75,17.12,13.18h0"/>
          <path class="cls-12" d="m57.72,111.71s11.16,12.01,22.11,16.35c.26.11.5.2.76.29,0,0,8.94,3.12,12.08,3.71,2.11.41,9.38,1.65,15.24-2.02,3.25-2.04,5.9-6.16,5.9-6.16"/>
          <path class="cls-12" d="m110.05,124.52c-2.96,2.81-6.56,8.3-24.32,3.83-.14-.04-.21-.08-.21-.12,0-.23,1.55-.59,4.01-1.03,4.03-.71,10.49-1.61,16.47-2.43,0,0,0,0,0,0,1.5-.19,2.97-.4,4.37-.58,1.3-.18,2.53-.34,3.67-.5,1.27-.18,2.41-.34,3.38-.48l.19-.03c1.33-.19,2.31-.34,2.8-.44,2.16-.45,7.29-1.97,12.31-4.97,3.88-2.31,7.67-5.51,9.98-9.78.44-.82.87-1.64,1.29-2.44,4.57-8.84,7.51-16.8,7.83-20.73"/>
          <path class="cls-12" d="m121.05,78.48s7.11-12.74,10.52-14.41"/>
          <path class="cls-12" d="m147.94,32.73h-.02c-15.02-1.09-22.68,1.01-35.52,8.02-8.37,4.57-18.7,12.72-18.7,12.72"/>
          <path class="cls-12" d="m96.43,55.99s13.53-9.29,20.94-12.64c0,0,8.73,8.76,14.21,20.72.76,1.65,1.46,3.37,2.05,5.13"/>
          <path class="cls-12" d="m99.21,58.57s14.54-10.49,18.01-11.14c.04-.02.07-.02.11-.03"/>
          <path class="cls-12" d="m139.36,11.22s-.2.11-.57.29c-2.12,1.08-9.58,4.96-13.54,7.51-1.44.93-4.31,3.13-7.6,5.73-1.68,1.33-3.48,2.77-5.25,4.2-1.48,1.2-2.95,2.39-4.31,3.5-3.3,2.7-6,4.92-6.93,5.71,0,0,0,0,0,0-.09.07-.16.13-.22.18-.08.07-.12.11-.12.11-3.03-5.46-13.16-13-15.97-15.36-1.79-1.51-3.36-3.2-4.35-2.89-.56.18-.93,1.01-1.06,2.89-.1,1.43-.02,3.48.18,5.77.1,1.26.23,2.6.39,3.94.16,1.4.34,2.81.54,4.15.5,3.47,1.08,6.52,1.49,7.87,1.01,3.26,4.91,6.61,7.09,4.38"/>
          <path class="cls-12" d="m161.52,18.39c-3.55-.26-8.19-1.08-12.4-3.15-3.43-1.69-5.37-3.71-10.33-3.73-1.09,0-2.34.09-3.78.31-7.96,1.2-7.79.53-13.27-3.71s-8.09-7.39-15.73-3.64c-5.79,2.85-11.6,5.84-13.86,8.44-.18.21-.34.41-.47.62-.41.6-.58,1.17-.5,1.72.45,3.03,6.07,15.18,16.92,17.22"/>
          <path class="cls-12" d="m92.14,12.9c4.74-1.01,10.03-.75,14.94,1.16.38.15.75.31,1.11.49,5.45,2.73,9.36,9.09,9.45,10.2"/>
          <path class="cls-12" d="m91.16,13.73h-.12c-2.55,0-7.93,3.5-10.26,4.39-.31.11-.62.24-.93.35-11.38,4.36-24.3,10.16-28.65,19.46"/>
          <path class="cls-12" d="m66.71,47.87s10.84-10.21,13.82-10.93c.03,0,.05,0,.08-.02"/>
          <path class="cls-12" d="m79.59,28.85c-9.9,1.99-21.18,14.97-21.18,14.97"/>
          <path class="cls-12" d="m62.23,45.9s11.36-11.8,17.76-13.11c.02,0,.04-.02.05-.02"/>
          <path class="cls-12" d="m97.67,57.13s0,0-.02,0c-.44-.06-7.55-1.23-13.08-2.97-4.18-1.31-11.49-3.2-18-5.95-1.54-.66-3.04-1.36-4.45-2.12-.75-.41-1.48-.83-2.17-1.27,0,0-.59-.34-1.54-1-1.68-1.14-4.5-3.19-7.21-5.87h0c-1.87-1.84-3.69-3.98-5.05-6.31,0,0-10.85,4.74-12.54,6.31"/>
          <path class="cls-12" d="m108.27,66.97c-1.78-.35-17.36-6.29-30.07-6.97-12.73-.68-25.11-8.9-30.74-11.37-3.9-1.71-9.68-6.6-14.02-10.5-1.94-1.75-3.6-3.28-4.67-4.26l-10.69,9.08"/>
          <path class="cls-12" d="m1.29,51.5l13.28-12.36s1.46,1.73,3.4,3.9c2.05,2.3,4.65,5.11,6.61,6.88,3.83,3.45,13.24,10.4,23.98,12.34,17.45,3.16,32.43,5.52,40.53,8.11,8.11,2.59,30.44,10.17,30.44,10.17"/>
          <path class="cls-12" d="m1.29,51.5s8.51,12.47,24.88,17.7c16.36,5.22,26.83,9.43,39.46,10.18s40.67,6.44,47.45,9.38"/>
          <path class="cls-12" d="m1.29,76.06c12.72,4.89,35.95,16.38,64.53,15.25,18.44,1.58,34.9,1.6,37.37,5.19,0,0-23.75,1.68-40.03,1.62-16.15-.05-58.03,2.01-62.57-1.33-.04-.02-.07-.04-.1-.07"/>
          <path class="cls-12" d="m1.29,51.5l-.38,24.55-.32,20.73-.1,6.34c.69.06,4.3-.05,9.79-.29,1.76-.07,3.7-.16,5.8-.26,1.83-.09,3.77-.18,5.79-.27,29.7-1.44,79.64-4.19,79.64-4.19"/>
          <path class="cls-12" d="m.5,103.13v9.57s14.41,15.48,20.04,19.9c.56.43,1.13.86,1.71,1.27,4.91,3.43,10.74,5.68,12.69.53.19-.52.35-1.12.47-1.8.28-1.7.57-3.25.86-4.66.34-1.68.67-3.15.99-4.45.43-1.79.82-3.24,1.11-4.39.19-.71.33-1.31.42-1.8.45-2.35,1.73-4.43,3.15-2.65"/>
          <path class="cls-12" d="m21.88,102.3h0c.27.41,9.06,13.39,16.47,16.8"/>
          <path class="cls-12" d="m16.08,102.57h0c.34.5,11.13,16.31,21.16,20.92.02,0,.04.02.06.03"/>
          <path class="cls-12" d="m10.29,102.83s13.1,19.28,25.97,25.1"/>
          <path class="cls-12" d="m54.59,127.94s-12.91,6.52-19.65,6.46h0"/>
          <path class="cls-12" d="m63.1,153.77c8.24-.25,17.32-2.72,26.01-9.45"/>
          <path class="cls-12" d="m17.53,153.88c.26-.04.53-.07.8-.11.62-.09,1.24-.18,1.88-.27,10.59-1.52,21.72-3.65,21.72-3.65,5.33,2.15,12.81,4.17,21.15,3.92"/>
          <path class="cls-12" d="m21.88,134.39l-16.65,1.08c0,5.83-3.62,20.28,8.33,18.91,1.28-.14,2.6-.31,3.96-.49"/>
          <path class="cls-12" d="m17.51,153.88h.02c.96.08,36.31,2.86,45.55-.11h.02"/>
          <path class="cls-12" d="m20.21,153.5c5.06-3.09,11.47-9.39,11.82-10.74,3.83,2.81,9.9,7.09,9.9,7.09"/>
          <path class="cls-12" d="m32.03,142.76s24.33.71,35.02-6.29"/>
          <path class="cls-12" d="m5.23,135.47s7.07,18.39,13.11,18.3"/>
          <path class="cls-12" d="m112.4,141.51h0c6.69.91,29.58-4.1,36.67-13.11,0-.02.03-.03.04-.04"/>
          <path class="cls-12" d="m190.85,102.61s6.72-2.83,14.08-6.54c7.97-4.01,16.7-9.06,18.5-12.65,6.04,1.88,14.68,3.4,22.3,6.04,1.62.56,3.21,1.17,4.7,1.85,1.77.8,3.42,1.7,4.9,2.72,1.75,1.18,3.25,2.53,4.42,4.08-8.55,2.13-26.42,12.48-31.83,16.54-3.23,2.43-8.84,7.28-14.46,10.89-1.79,1.16-3.58,2.18-5.29,2.95-1.9.86-3.7,1.43-5.32,1.54-2.67.19-5.65.24-8.41.23-1.76,0-3.42-.04-4.85-.06-2.74-.07-4.61-.17-4.61-.17l-.5-4.28-.24-2.01-.46-3.93"/>
          <path class="cls-12" d="m255.34,94.03c-13.6,2.6-24.25,10.56-28.76,14.16-1.9,1.52-7.83,5.32-14.84,9.01-9.6,5.07-21.2,9.95-27.24,8.55"/>
          <path class="cls-12" d="m184.49,123.73c8.05-1.6,17.39-4.31,26.04-8.77,1.97-1.01,3.9-2.12,5.77-3.32,4.43-2.84,9-6.51,14.45-10.18,5.45-3.67,11.77-7.33,19.69-10.15"/>
          <path class="cls-12" d="m213.48,125.55c1.82.54,4.03,1.02,6.48,1.35,8.76,1.15,20.55.2,27.94-7.89,9.46-10.35,14.24-18.35,11.86-20.88"/>
          <path class="cls-12" d="m189.61,130.27c-4.71,2.5-9.08,5.06-13.65,6.97-2.11.87-4.26,1.6-6.52,2.11-2.38.56-4.88.86-7.56.83-1.87-.02-3.82-.19-5.89-.56,0,0-.53-.78-1.33-1.99-.41-.62-.88-1.35-1.39-2.16-.36-.57-.75-1.19-1.15-1.83-.67-1.08-1.35-2.22-1.99-3.35-.36-.64-.71-1.27-1.04-1.89-.1-.19-.19-.38-.29-.56-.32-.63-.61-1.23-.86-1.78-1.76-3.95-6.57-14.23-3.62-20.36.86-1.78,2.36-3.21,4.8-4.03,2.8-.95,5.49-1.42,8.11-1.58,7.47-.45,14.31,1.63,21.31,2.21,3.24.27,7.72.37,12.31.31,8.85-.13,18.14-.89,19.82-2.31"/>
          <path class="cls-12" d="m154.66,137.63c9.64-3.76,12.69-1.45,22.37-10.67,1.95-1.86,4.17-4.19,6.77-7.14,0,0,5.04,1.07,20.57-5.62,9.23-3.99,17.87-9.79,25.05-14.78,7.19-5,12.91-9.19,16.33-9.96"/>
          <path class="cls-12" d="m177.02,126.96s2.57,2.12,7.97,3.09"/>
          <path class="cls-12" d="m175.96,137.24c2.8,2.08,6.56,4.55,10.64,2.72,2.18-.99,4.45-3.2,6.7-7.36.39-.71.78-1.48,1.16-2.32"/>
          <path class="cls-12" d="m193.3,132.59c1.31,2.63,2.73,6.39,6.9,5.04,4.17-1.36,7.99-9.13,7.99-9.13"/>
          <path class="cls-12" d="m219.91,127.29s-8.38,7.01-19.63,10.61c-4.25,1.36-8.91,2.23-13.69,2.05h-.02"/>
          <path class="cls-12" d="m177.02,45.65c.4.41.78.81,1.16,1.2,1.28,1.31,2.44,2.49,3.52,3.58,2.14,2.19,3.92,4,5.5,5.79,1.61,1.81,3.02,3.6,4.44,5.71.46.67.92,1.38,1.38,2.13,2.48,4,4.16,7.51,6.32,13.84.39,1.13.79,2.36,1.23,3.7.37,1.16.76,2.42,1.16,3.76.07.22.14.44.2.66.64,2.07,1.31,4.37,2.07,6.92.29,1.01.59,2.05.91,3.13"/>
          <path class="cls-12" d="m189.61,44.39c2.99.93,5.77,1.64,8.38,2.25,4.8,1.12,9.01,1.93,12.89,3.27,2.53.88,4.92,1.98,7.24,3.55.95.64,1.89,1.37,2.82,2.19.86.74,1.7,1.57,2.54,2.5,1.23,1.35,2.47,2.89,3.7,4.67-9.15,11.75-23.11,30.1-23.11,30.1"/>
          <path class="cls-12" d="m227.18,62.82s-1.96,18.35-3.75,20.6"/>
          <path class="cls-12" d="m223.49,58.15s-21.01,26.22-21.74,27.21"/>
          <path class="cls-12" d="m220.8,55.81s-19.34,24.62-20.22,25.79c0,.02-.02.03-.03.04"/>
          <line class="cls-12" x1="218.12" y1="53.46" x2="199.36" y2="77.9"/>
          <path class="cls-12" d="m178.19,46.85s-8.63,12.94-11.86,13.87"/>
          <path class="cls-12" d="m168.29,70.55c-.93,1.86-1.63,3.59-1.97,5.03"/>
          <path class="cls-12" d="m181.71,50.43s-9.12,11.51-13.41,20.11"/>
          <path class="cls-12" d="m190.98,70.85s-9.43,1.56-17.81,3.25c-2.46.49-4.83,1-6.84,1.47-2.8.67-4.92,1.28-5.64,1.75-.85.55-1.76,1.44-2.63,2.5-2.2,2.73-4.06,6.62-3.4,8.94.92,3.22,1.33,3.07,1.33,3.07,0,0-1.31,8.11,1.23,8.19"/>
          <path class="cls-12" d="m165.79,93.34s16.36-5.45,22.22-5.95c5.78-.49,13.67-1.6,13.94-1.37,0,0,0,0,0,0"/>
          <path class="cls-12" d="m168.29,70.55h0c.47-.26,15.45-8.32,17.52-9.02,2.11-.71,4.92-1,5.82.41,1.38,2.13-17.75,11.02-18.48,12.17"/>
          <path class="cls-12" d="m188.44,28.85s25.66,6.69,22.45,21.06h0"/>
          <path class="cls-12" d="m189.61,37.67s8.42,2.05,8.38,8.97v.21"/>
          <path class="cls-12" d="m108.27,14.3s-.03.1-.07.26c-.46,1.87-2.93,13.08,4.21,14.39"/>
          <path class="cls-12" d="m161.88,140.19s2.1,7.19,3.91,7.49c1.8.3,8.23-.6,8.23-.6,0,0-3.92-4.94-4.58-7.72"/>
          <line class="cls-12" x1="153.26" y1="107.53" x2="166.89" y2="117.3"/>
          <path class="cls-12" d="m148.8,127.84s14.8-5.01,17.52-8.27c.86.16,1.88.26,2.96.35,1.65.12,3.48.17,5.27.18,4.76.02,9.23-.27,9.23-.27"/>
          <path class="cls-12" d="m169.27,120.1s-9.93,8.83-19.15,10.17h0s-11.39,19.06-11.39,19.06c0,0,7.24,0,8.29-1.36,1.35-5.85,6.24-12.51,6.24-12.51"/>
          <path class="cls-12" d="m174.56,120.1s-12.56,13.31-22.45,13.53"/>
        </g>
      </g>
    </g>
  </g>
</svg>