<svg version="1.1" id="_レイヤー_1" xmlns="http://www.w3.org/2000/svg" x="0" y="0" viewBox="0 0 268.9 264.7" style="enable-background:new 0 0 268.9 264.7" xml:space="preserve"><style>.st0{fill:#faffff}.st2{fill:#346182}.st3{fill:#559ec1}.st4{fill:#ed9faf}.st5{fill:#d53c36}.st6{fill:#3e6d4b}.st7{fill:#d95347}.st8{fill:#d6c34d}.st9{fill:#2e3a6a}.st10{fill:#80596c}.st11{fill:#aeaeb6}.st12{fill:#8ac99e}.st13{fill:#497e54}.st14{fill:#333}.st15{fill:#f7e5d2}.st17{fill:#47414f}.st18{fill:#da5045}.st19{fill:#fefdf8}.st20{fill:#8d969d}.st21{fill:#fff}.st22{stroke:#000;stroke-linecap:round;stroke-linejoin:round;stroke-miterlimit:10}.st22,.st23,.st24{fill:none}.st24{stroke:#000;stroke-linecap:round;stroke-linejoin:round}</style><g id="XMLID_00000065064540916772854620000000834242303057339283_"><path class="st0" d="M264.9 238h3.6v26.7h-3.6zm3.5-11v11h-3.5l-7.4-11z"/><path d="M114.8 204.8h5.9l.2.1 3.8 2.1 2.9-2.7s4.1.4 4.5.4c.3 0 3.3-6.1 6.2-9.8 3.8.6 8.9-2.4 14.5-4.4l5.5 7.4 6.2-.9.6-4.3 4.6.6h.1l3.4.4 4.9.6 1.8-4.3 3.7-3.7.1-.1 3.8-1.9 2.2 1.4 4.1-3.7h11.1s2.8-2.9 4.8-4.1c.1-.1.2-.1.2-.1.4-.2.7-.4 1-.4 1.6-.2 17-.1 21.8-2.9 1.9-1.1 2.6-3.1 2.9-5.1.1-1.6 0-3.3-.3-4.8v-.1c-.3-1.5-.5-2.8-.7-3.8h33.9V227H93.4c.2-.1.4-.1.6-.2h.1c1-.4 2.3-1.1 4.2-2.3 2.4-1.5 5.6-7.6 8.8-15.5 0-.1 0-.1.1-.2h.1l7.3-4h.2z" style="fill:#96d0a8"/><path class="st2" d="M268.4 149.9v11h-3.7l-5.8-11z"/><path class="st3" d="M260.8 238h4v26.7h-4zm-3.3-11 7.4 11h-4.1l-7.4-11zm1.4-77.1 5.8 11h-4.5l-5.9-11z"/><path class="st2" d="M247.1 238h13.8v26.7h-13.8zm6.3-11 7.4 11h-13.7l-7.4-11z"/><path class="st0" d="m254.3 149.9 5.9 11h-12.1l-5.9-11z"/><path class="st4" d="m242.2 149.9 5.9 11h-5.7l-5.8-11z"/><path class="st3" d="M243.1 238h4v26.7h-4zm-3.4-11 7.4 11h-4l-7.4-11z"/><path class="st0" d="M218.2 238h24.9v26.7h-24.9zm17.5-11 7.4 11h-24.9l-7.4-11z"/><path class="st5" d="m236.6 149.9 5.8 11.1h-7.8v-.1c0-.3-.1-.5-.1-.7v-.1c-.4-1.4-1.2-2.9-2.3-4.6-1.3-1.9-2.8-3.9-4.1-5.6h8.5z"/><path class="st6" d="M235.3 164.8c.3 1.5.4 3.2.3 4.8h-.1c-44.9 3.6-54.1-9.3-56-15.8 0-.1-.1-.2-.1-.3-.5-1.8-.3-3-.3-3s-.1-.4.9-5.7c6.4 10.7 4 25.3 55.3 20z"/><path class="st7" d="M235.5 169.7c-.1 2.1-.9 4-2.8 5.1-4.8 2.9-20.2 2.7-21.8 2.9-.3 0-.6.2-1 .4-.1 0-.2.1-.2.1-24 0-28-12.4-31.2-24 0-.2-.1-.3-.1-.5l1.1-.3c0 .1.1.2.1.3 1.8 6.6 11 19.5 55.9 16z"/><path class="st8" d="M234.6 160.9c.1 1 .4 2.3.7 3.8v.1c-51.3 5.3-48.9-9.3-55.3-20v-.1c.2-1.3.5-3 .9-5.1.1 1.1 3 28.5 53.6 20.4.1.2.1.5.1.7v.2z"/><path class="st9" d="M234.5 160c0 .1 0 .1 0 0-50.6 8.2-53.5-19.3-53.6-20.3v-.1c.1-.4.1-.7.2-1.1 4.7 4.4 8.1 8.9 13.4 12.3.8.5 1.5.9 2.4 1.4 6.9 3.6 17 5.3 35.3 3.3 1.1 1.6 1.8 3.2 2.3 4.5z"/><path class="st10" d="M200.9 146.8c-1.4-2.5-3.3-6.2-5.3-10.4v-.1c2.2 1.2 5.2 2.5 8.3 3.6.4.1.9.3 1.3.4 3.6 1.2 7.1 2.1 9.1 2.4 3.8.4 10.5 3.1 13.1 6.3.2.3.4.6.7.9 1.3 1.6 2.8 3.6 4.1 5.6-18.3 2-28.4.3-35.3-3.3-.8-.4-1.6-.9-2.4-1.4l2.2-.9h2.8v-2.1l1.4-1zm19.1 5.9v-2.8h-3.7v2.8h3.7zm-9.5-5.7v-2.1h-2.8v2.1h2.8zm-3.4 5v-2.1h-2.8v2.1h2.8z"/><path class="st11" d="M216.3 149.9h3.7v2.8h-3.7z"/><path class="st12" d="M214.2 238h4v26.7h-4zm-3.4-11 7.4 11h-4l-7.4-11z"/><path class="st7" d="m215.2 127.6-9.8 12-1.5.4c-3.1-1.1-6.1-2.4-8.3-3.6-2.6-5.4-5.6-11.5-8.1-16.5v-.1l9.5-.5v-.1h7.3l-.4 3 5.9 1.3v1.9l2.5 1 2.9 1.2z"/><path class="st13" d="M200.4 238h13.8v26.7h-13.8zm6.4-11 7.4 11h-13.8l-7.4-11z"/><path class="st11" d="M207.7 144.9h2.8v2.1h-2.8z"/><path class="st10" d="M178.5 154.3c3.2 11.6 7.3 24 31.2 24-1.9 1.2-4.8 4.1-4.8 4.1h-10.4v-.1c-14-5.8-24.6-19.1-35.2-33.8l-4.7.3v-.3s-.2-1.4-.6-3.6l.6-.1 4.7-1.2s10 10.8 18.9 9.8c0 .1.1.3.1.4s.1.3.2.5z"/><path class="st11" d="M204.3 149.9h2.8v2.1h-2.8z"/><path class="st10" d="M174 126.8c-2.1.5-14.3 2.1-20.1 2.2h-.1c.3-3.6.6-7.8.8-12.1.6-11.5 5.3-10.1 8.6-11.3v-.4h.1c1.4-.1 3.1-.4 4.9-1.2 5-.2 10.5-.1 15.5 8.6 1 1.8 2.3 4.3 3.8 7.2v.1c2.5 5 5.5 11.1 8.1 16.5v.1c2 4.1 3.9 7.9 5.3 10.4l-1.4 1.1h-2.8v2.1l-2.2.9c-5.3-3.3-8.6-7.8-13.4-12.3l-3.7-6.1-1.8-3-1.6-2.8zm21.6 16.8v-2.1h-2.8v2.1h2.8zm-7.5-14v-2.1h-2.8v2.1h2.8zm-3.7 4.8v-2.1h-2.8v2.1h2.8zm-1.9-13.8v-2.1h-2.8v2.1h2.8zm-4.2-5.9v-2.1h-2.8v2.1h2.8zm-10.1 3.2v-2.1h-2.8v2.1h2.8zm-2.8-5.9v-2.5h-3.8v2.5h3.8zm-4.7 5.9v-2.1h-2.8v2.1h2.8z"/><path class="st12" d="M196.4 238h4v26.7h-4zm-3.4-11 7.4 11h-4l-7.4-11z"/><path class="st11" d="M199.5 147.8v2.1h-2.8v-2.1z"/><path class="st7" d="M181.6 104.8c.4.3.9.6 1.2.8 3.4 1.5 6.2 3.6 9 6.3 2.8 2.8 5.1 7.3 5.1 7.3v.1l-9.5.5c-1.5-2.9-2.8-5.4-3.8-7.2-5-8.7-10.5-8.8-15.5-8.6 2.2-.9 4.5-2.4 6.2-4.4.6-.9 1.1-2 1.5-3.4 0 .1 2.9 6.1 5.8 8.6z"/><path class="st0" d="M171.6 238h24.9v26.7h-24.9zm17.4-11 7.4 11h-24.8l-7.4-11z"/><path class="st11" d="M192.8 141.5h2.8v2.1h-2.8z"/><path class="st9" d="m194.5 182.3-.7.1-4.1 3.7-2.2-1.4c-15-9.4-29.6-30.1-29.6-30.1h-20.3l-.1-.1c1-1.5 1.9-3 2.8-4.7h.1l14.2-1 4.7-.3c10.6 14.7 21.2 28 35.2 33.8z"/><path class="st11" d="M185.3 127.5h2.8v2.1h-2.8z"/><path class="st8" d="M156.6 158.8c0-.1-.1-.1 0 0-2.1-.1-14.6 1-22.1 0 1.1-1.3 2.1-2.6 3.1-4.1l.1.1H158s14.5 20.7 29.6 30.1l-3.8 1.9-.1.1c-9.6-3.3-18.9-17.5-27.1-28.1z"/><path class="st11" d="M181.6 132.4h2.8v2.1h-2.8z"/><path class="st6" d="m183.6 186.6-3.7 3.7-1.8 4.3-4.9-.6-3.4-.4h-.1v-.1c-.6-.1-11.4-24.3-13.8-29.6-.2-.5-.5-1.1-.6-1.3v-.1c.6-1.2 1.2-2.6 1.2-3.6 8.3 10.5 17.6 24.7 27.1 27.7z"/><path class="st11" d="M179.7 118.5h2.8v2.1h-2.8z"/><path class="st6" d="m177.4 132.5 3.7 6.1c-9.4 2.8-16.7 2.9-21.5 2.5-3.9-.4-6.2-1.2-6.6-1.3 0-.1 0-.2-.1-.3 0-.5.1-1.6.3-3.1h.3c7.4-.1 19.6-1.9 23.9-3.9z"/><path class="st7" d="M181.1 138.6c-.1.4-.1.7-.2 1.1v.1c-.4 2-.7 3.7-.9 5.1v.1c-.9 5.3-.9 5.7-.9 5.7s-.1 1.2.3 3l-1.1.3c0-.2-.1-.3-.1-.4-8.9 1-18.9-9.8-18.9-9.8l-4.7 1.2h-.6c-.3-1.5-.6-3.3-1-5.2.5.2 2.7.9 6.6 1.3 4.8.4 12.1.2 21.5-2.5z"/><path class="st11" d="M175.5 112.6h2.8v2.1h-2.8z"/><path class="st8" d="m175.6 129.5 1.8 3c-4.4 2-16.5 3.8-23.9 3.8h-.3c0-.9.1-1.9.2-3h.1c4-.2 17.2-1.9 22.1-3.8z"/><path class="st14" d="M119 97.3c2.8-2.5 14.7-12 14.7-12 1.7-1.4 3.3-2.6 4.7-3.8 1-.9 17.7-14.7 24.1-14.9s12.3 1.6 13 9.7c.4 6.5 1.6 14.8.4 20-.4 1.4-.9 2.5-1.5 3.4-1.7 2.1-4 3.5-6.2 4.4-1.9.8-3.6 1.1-4.9 1.2h-1c-2.5-.1-.4-2.5 1.3-5v-.1c.1-.2.3-.5.5-.7 1.9-2.8 8.1-10.1 8.3-14 .1-3 .1-7.8-1.1-10.5-.4-.9-.9-1.5-1.4-1.9-.6.2-1.1.4-1.6.6-4.4 1.6-8.1 3.6-10.3 3.7-2.9 3.8-6 8.4-9.2 12.6l-3.7 4.8c-.9 1.2-1.9 2.3-2.7 3.3-1.3 1.5-2.5 2.7-3.5 3.6-.6.5-1.2 1-1.8 1.6l-.5.5c-1.3 1.2-3.3 3.2-3.3 3.2-1.6 1.7-3.5 3.5-5.5 5.1-2.6 2.1-5.5 3.9-8.8 4.8h-.1v-15.5l.1-4.1z"/><path class="st9" d="m174 126.8 1.6 2.7c-4.9 1.9-18.1 3.6-22.1 3.8h-.1c.1-1.3.2-2.8.3-4.4h.1c5.9 0 18.1-1.6 20.2-2.1z"/><path class="st15" d="M171.2 75c1.2 2.7 1.3 7.5 1.1 10.5-.1 3.9-6.4 11.2-8.3 14-.1.2-.3.5-.5.7-1.9 1.9-3.9 2.6-7.6 2.7-1.4 0-3.1-.1-5.1-.2-.4 0-.8 0-1.1-.1-.2 0-.4-.1-.6-.1-1.4-.3-2.6-.8-3.7-1.4-1.6-.9-2.6-2-3.1-2.9.9-1 1.8-2.1 2.7-3.3l3.7-4.8c3.1-4.2 6.3-8.8 9.2-12.6 2.2-.1 5.9-2.1 10.3-3.7.6-.1 1.1-.4 1.6-.6.6.3 1.1 1 1.4 1.8zm.2 6c.3-.4 0-1-.6-1.4-.6-.4-1.3-.4-1.5-.1-.3.4 0 1 .6 1.4.6.4 1.3.5 1.5.1zm-.8 7-3.2-.2c1.3.2 2.6.5 3.2.2zm-4.5-10c.1-.6-.4-1.2-1.2-1.4-.8-.2-1.6.1-1.7.7-.1.6.4 1.2 1.2 1.4.8.2 1.5-.1 1.7-.7zm-2.7 8.1-2.3-2c.3.8 1.3 1.4 2.3 2zm-3.2 13.2c.1-.2-.3-.6-.9-.8-.6-.2-1.1-.2-1.2.1-.1.2.3.6.9.8.6.2 1.1.1 1.2-.1z"/><path class="st4" d="M167.6 238h4v26.7h-4zm-3.4-11 7.4 11h-4l-7.5-11z"/><path class="st14" d="M170.8 79.6c.6.4.9 1.1.6 1.4s-1 .3-1.5-.1c-.6-.4-.9-1.1-.6-1.4.3-.4.9-.4 1.5.1z"/><path class="st7" d="M169.7 193.3v.1l-4.6-.6-.6 4.3c-1.8-1.2-9-21.3-10.6-32.3 0 0 .7-1 1.4-2.4.1.2.4.8.6 1.3 2.4 5.3 13.2 29.6 13.8 29.6z"/><path class="st11" d="M165.4 115.9h2.8v2.1h-2.8z"/><path class="st5" d="M153.8 238h13.8v26.7h-13.8zm6.3-11 7.5 11h-13.8l-7.4-11z"/><path class="st14" d="M164.8 76.7c.8.2 1.4.8 1.2 1.4-.1.6-.9.9-1.7.7-.8-.2-1.4-.8-1.2-1.4.1-.6.9-.9 1.7-.7z"/><path class="st11" d="M161.6 109.5h3.8v2.5h-3.8z"/><path class="st7" d="m164.5 197.1-6.2.9-5.5-7.4c-5.6 2-10.7 4.9-14.5 4.4 2.9-5.6 5.3-16.8 7.1-23.4 2.6-2.7 4.7-5 6.1-6.5h.1c1.2-.1 2-.1 2.3-.3 1.6 11.1 8.9 31.2 10.6 32.3z"/><path class="st10" d="M133.2 126.3c-1-1.2-2.2-2.5-3.3-3.8l-.8.6h-2.8v2.1h2.8v4.2h2.8v-2.1l1.3-1zm30.4-26.1c-1.7 2.5-3.8 4.9-1.3 5.1h.9v.4c-3.3 1.1-7.9-.2-8.6 11.3-.2 4.3-.5 8.5-.8 12.1-.1 1.6-.2 3.1-.3 4.4-.1 1.1-.2 2.1-.2 3-.2 1.5-.2 2.6-.3 3.1-.8-4.1-1.8-8.6-2.7-11-1.8-5.1-5.7-.9-9.6 2.2-.9.7-2.2 2.1-3.6 3.8-.7.8-1.4 1.8-2.2 2.7-2.8 1.5-10.5 3.1-15.9 3.1h-.1V139c.1-6.8.1-14.2.1-21.9v-.1c3.3-.9 6.2-2.6 8.8-4.8 2-1.6 3.8-3.4 5.5-5.1l11.1 14.1 11.5-18.2v-.1c3.8-.1 5.8-.9 7.7-2.7zm-38.9 32.3v-2.1h-2.8v2.1h2.8z"/><path class="st11" d="M157.9 115.9h2.8v2.1h-2.8z"/><path class="st7" d="M159.3 98.5c.6.2 1 .6.9.8s-.6.3-1.2.1c-.6-.2-1-.6-.9-.8.1-.3.6-.3 1.2-.1z"/><path class="st6" d="M155.3 162.5c-.7 1.3-1.4 2.4-1.4 2.4-.3.1-1.1.2-2.3.3h-.1c-2 .1-4.9.1-8 .1h-.1c-3.7 0-7.7-.1-10.7-.2-1.8-.1-3.3-.1-4.2-.1 2-1.7 4-3.7 5.9-6 7.5 1 20-.1 22-.1 0 0 0 .1.1.1.1.8-.5 2.2-1.2 3.5.1-.1.1-.1 0 0z"/><path class="st7" d="m155.9 102.8-11.5 18.3-11.1-14.1s2-2 3.3-3.2l.6.2 6.5 8.6 6-9.9v-.2c.4.1.8.1 1.1.1 2.1.2 3.7.2 5.1.2z"/><path class="st10" d="m144.2 141.1-1-.3v-2.1h-2.1v-4.2h-2.8l-1.3-.2c1.4-1.7 2.7-3.1 3.6-3.8 3.9-3.1 7.8-7.3 9.6-2.2.8 2.4 1.8 6.9 2.7 11v.3h.1c.3 1.9.7 3.7 1 5.2.4 2.2.6 3.6.6 3.6v.3l-14.2 1h-.1c1.5-2.5 2.8-5.4 3.9-8.6zm9.2 7.5v-2.1h-2.8v2.1h2.8zm-2.7-6.4v-2.1h-2.8v2.1h2.8zm-2.4 4.3v-2.1h-2.8v2.1h2.8z"/><path class="st4" d="M149.8 238h4v26.7h-4zm-3.4-11 7.4 11h-4l-7.4-11z"/><path class="st11" d="M150.6 146.5h2.8v2.1h-2.8zm-2.7-6.4h2.8v2.1h-2.8z"/><path class="st0" d="M124.9 238h24.8v26.7h-24.8zm17.5-11 7.4 11h-24.9l-7.4-11z"/><path class="st15" d="M149.7 102.5v.2l-6 9.9-6.5-8.6-.6-.2.5-.5c.6-.6 1.2-1.1 1.8-1.6 1-.9 2.2-2.1 3.5-3.6.4.9 1.5 2 3.1 2.9 1.1.6 2.3 1.1 3.7 1.4.1.1.3.1.5.1z"/><path class="st7" d="M135 180.7c-4.2 3-8.9 5.8-14.3 7.8-.4.1-.7.3-1.1.4-1.2.4-2.4.8-3.7 1.1h-.1c-.3-1.4-.7-2.7-1-3.9 5.4-1.5 14.7-4.5 22-11.8l.1-.1c2.6-2.5 4.8-5.5 6.6-9.2h.1c3.1 0 6 0 8-.1-1.4 1.5-3.5 3.8-6.1 6.5l-2.8 2.8-.1.1c-1.4 1.3-2.8 2.6-4.5 3.9-.9.8-1.9 1.5-2.9 2.2-.1.3-.2.3-.2.3z"/><path class="st11" d="M145.5 144.4h2.8v2.1h-2.8z"/><path class="st10" d="M118.2 164.7c.1-3.1.3-6.7.4-10.7.1-4 .2-8.4.3-13.1v-.7h.1c5.4 0 13.1-1.6 15.9-3.1.8-.9 1.5-1.8 2.2-2.7l1.3.2v2.1h2.8v2.1h-.7v2.1h2.8l1 .3c-1.1 3.1-2.4 6.1-3.8 8.7-.9 1.6-1.9 3.2-2.8 4.7-1 1.5-2 2.9-3.1 4.1-1.9 2.3-3.9 4.3-5.9 6-4 3.5-7.9 5.6-10.7 6.5.1-1 .2-2.2.3-3.6v-.1c-.1-.8-.1-1.8-.1-2.8zm20.3-22.8v-2.1h-2.8v2.1h2.8zM136 153v-2h-2.8v2.1h2.8zm-2.6-4.4v-2.1h-2.8v2.1h2.8zm-3.3 6.7v-2.1h-2.8v2.1h2.8z"/><path class="st6" d="m142.6 174.4 2.8-2.8c-1.8 6.6-4.2 17.8-7.1 23.4-2.9 3.7-5.9 9.8-6.2 9.8-.4 0-4.5-.4-4.5-.4 6-9.5 11.1-19.4 14.9-29.9 0 0 0-.1.1-.1z"/><path class="st11" d="M143.2 138.8v2h-2.8v-2h.7z"/><path d="M151.9 1.5c-6.6 8.3-13.1 12.1-33.6 12.1v.1H.5V7.6h113.8c11-.3 27.1 1.3 37.6-6.1z" style="fill:#414244"/><path class="st11" d="M141.1 134.6v2.1h-2.8v-2.1z"/><path class="st7" d="M132.8 164.9c3 .1 7.1.2 10.7.2-1.8 3.6-4.1 6.7-6.6 9.2l-1.3-3-1.5-3.4-1.3-3z"/><path class="st8" d="M138 178.4c1.6-1.3 3.1-2.6 4.5-3.9-3.8 10.5-8.9 20.5-14.9 29.9l-2.9 2.7-3.8-2.1c8.1-11.1 15.2-18 17.1-26.6z"/><path class="st11" d="M135.8 139.8h2.8v2.1h-2.8z"/><path class="st9" d="M138 178.4c-1.9 8.6-9 15.5-17.1 26.6l-.2-.1h-1c-.4-1.5-.9-3-1.3-4.6v-.1c2.1-2.4 4.3-4.8 6.3-7.1 4.2-4.8 8-9.2 10.3-12.4.1 0 .1-.1.1-.1 1-.7 2-1.4 2.9-2.2z"/><path class="st6" d="M136.9 174.3c-7.4 7.3-16.7 10.3-22.1 11.8v-.2c.6-1.9 1-3.7 1.4-5.4v-.1h.1c7.3-.9 17.9-7.7 19.3-9.2l1.3 3.1z"/><path class="st11" d="M133.2 151h2.8v2.1h-2.8z"/><path class="st8" d="m134.1 167.9 1.5 3.4c-1.4 1.5-12.1 8.3-19.3 9.2h-.1c.3-1.4.6-2.7.8-4.1v-.1h.1c7.4-2.6 12-4.9 17-8.4z"/><path class="st9" d="m132.8 164.9 1.3 2.9c-5 3.5-9.6 5.8-17 8.5h-.1c.1-.6.3-1.2.3-1.7.1-.8.3-1.9.4-3.3v-.1c2.8-.9 6.7-3.1 10.7-6.5 1.1.1 2.6.2 4.4.2z"/><path class="st11" d="M130.6 146.5h2.8v2.1h-2.8z"/><path class="st10" d="m133.2 126.3-1.3 1h-2.8v-4.2l.8-.6c1.1 1.3 2.3 2.6 3.3 3.8z"/><path class="st11" d="M129.1 127.3h2.8v2.1h-2.8z"/><path class="st10" d="M135 180.7c-2.3 3.2-6 7.6-10.3 12.4l-1.8-.4v-2.1h-2.8l-.6-1.7c.4-.1.7-.2 1.1-.4 5.5-1.9 10.2-4.7 14.4-7.8z"/><path class="st11" d="M127.3 153.3h2.8v2.1h-2.8zm-.9-30.1h2.8v2.1h-2.8z"/><path class="st3" d="M120.9 238h4v26.7h-4zm-3.4-11 7.4 11h-4l-7.4-11z"/><path class="st11" d="M121.9 130.4h2.8v2.1h-2.8z"/><path class="st10" d="m122.9 192.7 1.8.4c-2 2.3-4.1 4.6-6.3 7.1-.9-3.4-1.8-6.9-2.6-10.1v-.1h.1c1.3-.3 2.5-.7 3.7-1.1l.6 1.7v2.1h2.7z"/><path class="st11" d="M122.9 190.6v2.1h-2.7v-2.1h.4z"/><path class="st2" d="M107.2 238H121v26.7h-13.8zm6.3-11 7.4 11h-13.7l-7.5-11z"/><path class="st17" d="M118.9 116.8h.1v.1c0 7.7-.1 15-.1 21.9h-.1c-1.1-1-2.8.6-4.4 1.8l-.3-.4-.6-45.6h1.2l.7 20.5.1 2.9c.7-.7 2.7-2.2 3.4-1.2z"/><path class="st17" d="M119 94.5v2.8l-.1.1v17.1l-3.5.6-.7-20.5h4.3z"/><path class="st18" d="m114.2 61.9-.1-9.2-.3-19-.1-9.4v-.1l-.1-7h4.9c.1 3.4.1 9.1.2 16.3V35c.1 7.4.2 16.3.3 25.9v3.3c0 4.2.1 8.6.1 12.9 0 4.1.1 8.3.1 12.6v4.5h-4.3V90l-.1-8.6-.3-17.2v-.1l-.3-2.2z"/><path class="st17" d="M118.9 140.8c-.1 4.8-.2 9.2-.3 13.2-.1 4-.2 7.6-.4 10.7-2.2.9-4.3 1.9-5.3 2.3v-.1l1.2-23.4.1-.1c.5-.4 3.5-2.6 4.3-2.6h.4z"/><path class="st17" d="M118.9 140.1v.6h-.4c-.8.1-3.7 2.2-4.3 2.6l-1.3-1.9c.5-.1 1.1-.5 1.6-.9 1.6-1.1 3.2-2.8 4.4-1.8h.1c-.1.5-.1 1-.1 1.4z"/><path class="st19" d="m118.4 17.2-2.9.1H.5v-3.6h117.8v1c0 .6 0 1.4.1 2.5z"/><path class="st17" d="M117.8 171.3c-.2 1.4-.3 2.6-.4 3.4-.1.5-.2 1.1-.3 1.7v.1c-.3 1.3-.6 2.7-.8 4.1v.1c-.4 1.7-.8 3.5-1.4 5.4-1.1-4.4-1.9-7.5-1.9-7.5h-.6l.4-8.1h.2c2-.9 3.7-1.9 5.2-2.7v.1c-.2 1.2-.3 2.3-.4 3.4z"/><path class="st10" d="M115.8 190.1c.8 3.2 1.7 6.7 2.6 10.1-1.3 1.5-2.5 2.9-3.7 4.3-.8-4-1.5-8.2-2-11.3v-.1c.3-.8.5-1.6.7-2.4v-.1c.9-.2 1.6-.3 2.4-.5z"/><path class="st7" d="M114.7 186.1c.1 0 .1 0 0 0 .4 1.2.7 2.5 1 3.9-.8.2-1.5.3-2.3.5.6-1.4.9-2.9 1.3-4.4z"/><path class="st10" d="m114.7 204.5.1.4h-.3l-7.3 4h-.1c.5-1.4 1.1-2.8 1.6-4.3 0-.1.1-.2.1-.2.8-2.1 1.5-4.2 2.3-6.4 0-.1.1-.2.1-.2.5-1.4.9-2.9 1.4-4.3 0-.1 0-.1.1-.2v.1c.5 2.8 1.2 7 2 11.1z"/><path class="st17" d="M112.7 193.1c0 .1 0 .1-.1.2-.5 1.4-.9 2.9-1.4 4.3l1-19.2h.6s.8 3.1 1.9 7.5v.3c-.4 1.5-.8 2.9-1.2 4.3v.1c-.3.9-.5 1.7-.8 2.5z"/><path class="st18" d="m95.6 85.5 1.9-1.5c1.6.4 4.9 1.9 8.2 3.4 4.3 2.1 8.6 4.3 8.6 4.3h.4v2.8H78.5V71.9h2.2l2.5-1.6 12.4 15.2zm-10.8-8.1c0-1.6-.5-3.1-1.1-3.1s-1.1 1.4-1.1 3.1c0 1.7.5 3.1 1.1 3.1s1.1-1.4 1.1-3.1z"/><path class="st18" d="M114.7 90v1.7h-.4s-4.3-2.2-8.6-4.3l1.6-1.3c3.6 2 7.1 3.7 7.4 3.9z"/><path class="st18" d="m114.6 81.4.1 8.6c-.4-.1-3.8-1.9-7.5-3.8l5.6-4.7h1.8z"/><path class="st18" d="m107.2 86.1-1.6 1.3c-3.3-1.6-6.6-3-8.2-3.4l-1.9 1.5-12.3-15.2 19.9-12.2c4.1 2.1 9.5 5.1 11.1 6.1h.1v.1l.3 17.2h-1.7l-5.7 4.6zm-4.7-7.3c0-1.7-.5-3.1-1.1-3.1-.6 0-1.1 1.4-1.1 3.1 0 1.7.5 3.1 1.1 3.1.6 0 1.1-1.4 1.1-3.1zM95 71.5c0-.6-1.4-1.1-3.1-1.1-1.7 0-3.1.5-3.1 1.1 0 .6 1.4 1.1 3.1 1.1 1.7.1 3.1-.4 3.1-1.1z"/><path class="st17" d="m111.4 144.8.1-2.3c-1.4-1.3-2.8-2.3-4.1-3.1l-.2.3c-.1-.1-.1-.1-.2-.1s-.1-.1-.2-.1c-1.7-.6-6.3 1.5-8.8 2.9-2.9 1.7-4.3 4.1-3.1 5.4.5.5 1.2.8 2.2.8l.4 1.5c-.8.2-1.3.5-1.4.9l-1.9-.1c.1-.9-.9-1.9-2.4-3-1.3-.9-2.9-1.7-4.2-2.3-3.2-1.4-6.6-1.4-7.4-.1-.2.3-.3.6-.3.8h-1.2v-27h1.4c0 .3.5.6 1.8.7 3.6.5 8.3.3 9 .3.4 0 1.1-.6 1.3-1.1l1.3.1v.1c-.4 2.1-.6 3.8-.7 4.3-.2.9.2 2.4 1.1 2.4.9.1 1.4-1.3 1.4-2.4 0-1.1.4-5.1.9-9.1.5-4.1 2-13.8 2.1-16 .1-1.3-.2-2.1-.6-2.1v-2.2h16l.6 45.6.3.4c-.5.4-1.1.8-1.6.9l1.3 1.9c-.1 0-.1.1-.1.1l-1.2 23.4v.1l-.2 3.3v.1l-.4 8.1-1 19.2c0 .1-.1.2-.1.2-.8 2.2-1.5 4.3-2.3 6.4l.7-15.7.8-18.9.1-2.1v-.1l.8-22.4zm-5.9-20.8c.6 0 1.6-.7 0-1.6-1.6-.9-7.7-2.4-7.7-2.4s-.8.7 0 1.1c1.6.9 7.1 2.9 7.7 2.9zm-.5-5.3s1.5-.7-.8-1.4-7.1-1-7.4-.8c-.3.1-.3 1.2.9 1.4.8.1 7.3.8 7.3.8z"/><path class="st18" d="m114.2 62 .1 2.2h-.1c-1.6-.9-7-3.9-11.1-6.1l2.8-1.7c3.6 2.2 7.7 5 8.3 5.6z"/><path class="st18" d="m114.1 52.7.1 9.2c-.7-.5-4.7-3.3-8.3-5.5l6.1-3.7h2.1z"/><path class="st18" d="M103.1 58.1 83.2 70.3l-2.5 1.6h-2.2V17.3h6.3v1.9l10.4 13.4-3 2.4 2.9 3.6 3-2.3 7.4-5.9h.1c2.8.5 5.8 1.6 8 3.5h.3l.3 19H112l-6.1 3.7-2.8 1.5zm-6.6-11.3c0-1.7-.5-3.1-1.1-3.1-.6 0-1.1 1.3-1.1 3.1 0 1.7.5 3.1 1.1 3.1.6-.1 1.1-1.4 1.1-3.1zm-6.8-13.1c0-.6-1.3-1.1-3.1-1.1s-3.1.5-3.1 1.1c0 .6 1.3 1.1 3.1 1.1s3.1-.5 3.1-1.1zm-4.9 28.8c0-1.6-.5-3.1-1.1-3.1-.6 0-1.1 1.4-1.1 3.1 0 1.7.5 3.1 1.1 3.1.7 0 1.1-1.4 1.1-3.1z"/><path class="st18" d="m113.7 24.3.1 9.4h-.3c-2.2-1.9-5.2-3-8-3.5h-.1l7.4-5.8.9-.1z"/><path class="st18" d="m98.3 30.1-3.1 2.4-10.4-13.4v-1.9h28.8l.1 7v.1h-.8l-7.4 5.8c-.9-.2-1.8-.2-2.6-.2-1.7 0-3.1.3-4 1l-.6-.8zm0-5.8c0-1.7-.5-3.1-1.1-3.1-.6 0-1.1 1.4-1.1 3.1 0 1.7.5 3.1 1.1 3.1.6 0 1.1-1.4 1.1-3.1z"/><path class="st17" d="m110.4 169.7-.8 18.9-2.1-.1c0-.2-.1-.5-.4-.9-2.8-2.1-7.8-6.1-9.2-7.2-1.4-1.1-6.9-5.4-7.5-6-.6-.6-1.6-.8-2.1-.1 0 0 0 .1-.1.1l-.7-.2c2.3-6.2 3.4-15.1 3.9-22.5 1.2.1 2.2.1 2.5-.3.1-.1.1-.1.1-.3l1.9.1c-.2 1 1.9 2.3 4.7 2.9 1.3.2 1.8-.2 2.7-.3 1.2-.1 2.6.1 2.8-.5.2-1-1.9-2.3-4.7-2.9-1.4-.3-2.7-.4-3.7-.2-.1 0-.2 0-.3.1l-.4-1.5h.6c1.4-.1 2.9-.6 4.4-1.5.9-.5 1.1-1.6 1.6-2.1 1.4-1.4 4.3-4.3 3.5-5.3l.2-.3c1.3.8 2.7 1.8 4.1 3.1l-.1 2.3-1 22.6v.1l.1 2zm-10.1 3.1c1.1-1.4 1.9-3.9.5-2.5s-4.2 4.8-4.9 5.8c-.6 1.1.4 2.4 1.1 1.3 1.4-2 2.2-3.2 3.3-4.6zm-3.1-3.2c.7-1.6.8-4-.8-1.6s-3 5.9-3.2 6.4c-.2.3.4 2 .9 1.2.9-1.9 2.4-4.5 3.1-6z"/><path class="st17" d="m109.6 188.6-.7 15.7c0 .1-.1.2-.1.2-.5 1.5-1.1 2.9-1.6 4.3 0 .1 0 .1-.1.2-3.2 7.9-6.4 14-8.8 15.5-1.9 1.2-3.2 1.9-4.2 2.3l-.1-.1h-1c-10.4 0-23-9.6-40.4-15.9l.1-.1c.8-.7 7.6-6.7 14.9-13.7h.1c1.8-1.6 3.5-3.4 5.3-5.1.1-.1.2-.2.4-.3 1.8-1.8 3.6-3.6 5.2-5.4 2.9-3 5.3-5.7 6.8-7.9.8-1.1 1.4-2.6 2.1-4.1l.7.2v.1c-.1.6.6 1.3 1.2 1.8.7.4 3.4 2.3 5.9 4.2 2.6 1.9 8.8 6.8 10.3 7.8 1.1.6 1.9.7 1.9.3h2.1zm-12.5 15.9c3.1-1.9 3.1-3.8 2.2-7.8-.6-2.6-2.6-.1-4.3 1.6-1.3 1.4-2.7 1.6-6.8 6.1-1.1 1.1.9 1.6 2.3 2.4 1.6.9 3.8-.6 6.6-2.3zm1.8 8.1c.4-1.8-1-2.3-3.6-3.3-2.6-.9-5.5-1.8-5.6.3.9 2.1 1.5 4.6 4.5 4.7 3 .1 4.3.1 4.7-1.7zm-7.8-27c1.2-1.4 3.1-4.8 3-5.1-.1-.4-.9-.7-1.3.1-.4.4-2.9 5-2.9 5s-.1 1.3 1.2 0zm.2-5.8s-.2-.9-.8-.4c-1.1.9-4.4 4.1-4.6 4.5-.2.4-.1 1.5 1.1.6 1.3-.9 4.3-4.7 4.3-4.7zM84.7 217c2.6-2.1 1.4-4.1 1.4-5.3 0-1.1-.8-1.4-2.6.1-2.2 1.9-4.3 2.3-4.3 3.3s2.9 4 5.5 1.9zm2.3-11.5c0-1.1-2.5-1.6-5.6-2.4-3-.9-8.8-4.4-9.1-1.9 2.4 2.6 4.3 7 9.3 8.1 3.5.6 5.4-2.8 5.4-3.8z"/><path class="st20" d="M107.2 139.8c.8.9-2.1 3.9-3.5 5.3-.6.6-.8 1.6-1.6 2.1-1.5.9-3.1 1.4-4.4 1.5h-.6c-1 0-1.7-.3-2.2-.8-1.1-1.3.3-3.7 3.1-5.4 2.6-1.4 7.1-3.5 8.8-2.9.1 0 .1.1.2.1s.2 0 .2.1zm.3 48.7c0 .4-.8.4-1.9-.3-1.4-1-7.6-5.8-10.3-7.8-2.6-1.9-5.2-3.8-5.9-4.2-.6-.4-1.4-1.1-1.2-1.8v-.1c.1 0 .1-.1.1-.1.4-.6 1.5-.4 2.1.1.6.6 6.1 4.8 7.5 6 1.4 1.1 6.4 5.1 9.2 7.2.2.5.4.8.4 1z"/><path class="st3" d="M103.1 238h4v26.7h-4zm-3.4-11 7.5 11h-4.1l-7.4-11z"/><path class="st20" d="M101.5 150.4c2.8.6 4.9 1.9 4.7 2.9-.1.6-1.6.4-2.8.5-.9.1-1.4.5-2.7.3-2.8-.6-4.9-1.9-4.7-2.9.1-.4.7-.8 1.4-.9.1 0 .2 0 .3-.1 1.1-.2 2.3-.1 3.8.2zm4-28c1.6.9.6 1.6 0 1.6s-6.1-2-7.7-2.9c-.8-.4 0-1.1 0-1.1s6.1 1.5 7.7 2.4z"/><path class="st18" d="m105.5 30.1-7.5 6-2.9-3.6 3.1-2.4.6.8c.8-.6 2.2-1 4-1 .9 0 1.8.1 2.7.2z"/><path class="st20" d="M104.2 117.3c2.3.6.8 1.4.8 1.4s-6.6-.6-7.3-.8c-1.2-.1-1.2-1.2-.9-1.4.3-.2 5.2.1 7.4.8z"/><path class="st0" d="M78.3 238h24.9v26.7H78.3zm17.4-11 7.4 11H78.3l-6.4-9.5c8 .3 16.1.1 19.9-1.2 0 0 .4.2 1.7-.3h2.2z"/><path class="st20" d="M101.4 75.7c.6 0 1.1 1.4 1.1 3.1 0 1.7-.5 3.1-1.1 3.1-.6 0-1.1-1.4-1.1-3.1 0-1.7.4-3.1 1.1-3.1zm-.6 94.6c1.3-1.4.6 1.1-.5 2.5s-1.9 2.6-3.3 4.6c-.8 1.1-1.8-.2-1.1-1.3.7-1 3.6-4.4 4.9-5.8zm-1.5 26.5c.9 4 .9 5.8-2.2 7.8-2.8 1.7-5.1 3.1-6.6 2.4-1.4-.8-3.4-1.3-2.3-2.4 4.1-4.5 5.5-4.8 6.8-6.1 1.8-1.8 3.7-4.3 4.3-1.7z"/><path class="st21" d="M95.3 209.2c2.6 1.1 4.1 1.6 3.6 3.3-.4 1.8-1.7 1.8-4.8 1.6-3-.1-3.6-2.6-4.5-4.7.2-1.9 3-1.1 5.7-.2z"/><path class="st20" d="M97.5 96.7c.4 0 .7.9.6 2.1-.1 2.2-1.6 12-2.1 16-.5 4.1-.9 8.1-.9 9.1 0 1.1-.4 2.5-1.4 2.4-.9-.1-1.4-1.5-1.1-2.4.1-.4.4-2.2.7-4.3v-.1c.2-1.3.4-2.7.6-4 .3-1.5.4-2.8.6-3.5.4-2.3 1.6-10.1 2.1-14.5.3-.5.7-.8.9-.8zm-.3-75.5c.6 0 1.1 1.4 1.1 3.1 0 1.7-.5 3.1-1.1 3.1-.6 0-1.1-1.3-1.1-3.1-.1-1.7.4-3.1 1.1-3.1z"/><path class="st18" d="m95.2 32.5 2.8 3.6-3 2.3-2.8-3.5z"/><path class="st17" d="M97.5 94.5v2.2c-.2 0-.6.3-.9.9-.6 4.4-1.8 12.2-2.1 14.5-.1.7-.3 2-.6 3.5h-1.4v-.2c0-.4-.3-.7-.9-.9-3.1-.5-4.8-.8-7.1-1.4-1.6-.4-3.8-.3-3.8.2h-2.2V94.5h19z"/><path class="st20" d="M96.4 168c1.6-2.4 1.5 0 .8 1.6s-2.1 4.1-3.1 6.1c-.4.8-1.1-.9-.9-1.2.2-.6 1.6-4.1 3.2-6.5zM95.3 43.7c.6 0 1.1 1.3 1.1 3.1 0 1.7-.5 3.1-1.1 3.1-.6 0-1.1-1.4-1.1-3.1 0-1.7.5-3.1 1.1-3.1zM92 70.4c1.7 0 3.1.5 3.1 1.1 0 .6-1.4 1.1-3.1 1.1-1.7 0-3.1-.5-3.1-1.1 0-.6 1.4-1.1 3.1-1.1z"/><path class="st17" d="M67.7 228.3c-4.6-.2-8.8-.6-11.8-1-.7.2-1.5.5-2.2.7-1 .4-2.1.7-3.3 1.1-6.2 2.1-13.6 4.1-22.9 2.7-1.5-.2-3.1-.5-4.8-1-1.7-.4-3.4-1-5.2-1.6-3-1.1-7.2-1.4-10.7-1.5h-4c-1.3.1-2.2.1-2.5.1v-.1c6.6-6.1 12.9-10.8 18.5-15.2 2.6-2 5-3.8 7.2-5.8.9-.7 1.7-1.5 2.5-2.2l.1-.1.1-.1.6.6-.1.1-.1.1c-.2.2-.1.4.9.5 2.5.1 8.1.1 9.8 0 .8-.1 1.2-.6 1.3-1.1l1.4.1c-.2 1.7-.5 3.6-.8 5.2-.3 1.6-.5 2.8-.5 3.2-.2.9.2 2.4 1.1 2.5.9.1 1.4-1.3 1.4-2.4 0-.8.2-2.7.5-5l1.1.1c0 .1.1.4.4.5 1.6.9 3.8 2.1 4.4 2.1.2 0 .4-.1.6-.2l.1-.1 1.7.1-.1.1c17.5 6.3 30 15.9 40.4 15.9h1l.1.1h-.1c-.2.1-.4.2-.6.2-1.3.5-1.7.3-1.7.3-3.8 1.3-11.9 1.5-19.9 1.2-1.1 0-2.5 0-3.9-.1zM40 210c.6-.1 1.5-2.1.4-1.9-2.7.6-6.4 1.1-8.4 1.6-2.1.5-4.4 2.3-.8 2 3.7-.3 8.2-1.5 8.8-1.7z"/><path class="st20" d="M91.6 148.1c1.5 1.1 2.6 2.1 2.4 3 0 .1-.1.2-.1.3-.3.4-1.3.4-2.5.3v-.1c.1-1.2.1-2.3.2-3.5zm2.4 32.4c.1.3-1.8 3.7-3 5.1-1.2 1.4-1.2 0-1.2 0s2.6-4.6 2.9-5c.5-.8 1.3-.5 1.3-.1z"/><path class="st17" d="M92.5 115.6h1.4c-.2 1.3-.4 2.7-.6 4l-1.3-.1v-.1c0-.2-.1-.4-.4-.4-2.8-.1-6.4-.4-8.6-.4-1.4 0-3.1.5-3.1 1h-1.4v-6.2h2.2c0 .1.2.4.9.6 2.4.9 7.8 2.4 9.4 2.6.8 0 1.4-.5 1.5-1z"/><path class="st20" d="M92.5 115.4v.2c-.1.5-.7 1-1.5.9-1.6-.3-7.1-1.8-9.4-2.6-.6-.2-.9-.4-.9-.6 0-.5 2.2-.6 3.8-.2 2.2.6 3.9.9 7.1 1.4.7.2.9.5.9.9zm-.5 4c-.2.6-.9 1.2-1.3 1.2-.6 0-5.3.1-9-.3-1.3-.1-1.8-.4-1.8-.7 0-.5 1.6-1 3.1-1 2.1 0 5.8.3 8.6.4.3-.1.4.2.4.4zm-.4 28.7c-.1 1.1-.1 2.3-.2 3.5v.1c-1.2-.1-2.6-.4-3.6-.6-1.1-.1-4.8-1-5.7-1.9-1.1-1.1-2.4-1.9-2.4-2.8 0-.2.1-.5.3-.8.9-1.3 4.2-1.3 7.4.1 1.4.7 2.9 1.6 4.2 2.4zm-1 31.3c.6-.4.8.4.8.4s-3.1 3.8-4.2 4.7c-1.2.9-1.3-.2-1.1-.6.1-.5 3.3-3.7 4.5-4.5z"/><path class="st17" d="M91.4 151.7c-.5 7.4-1.6 16.3-3.9 22.5-.6 1.6-1.3 3-2.1 4.1-1.5 2.2-3.9 4.9-6.8 7.9l-.1-.1v-39.7h1.2c0 .9 1.3 1.7 2.4 2.8.9.9 4.6 1.7 5.7 1.9 1 .2 2.4.4 3.6.6zm-2.1 2.9c.1-.6.1-3.4-1.9-2.2-2.8 1.6-6.6 3.7-3.6 4 2.9.3 5.4-1.2 5.5-1.8z"/><path class="st20" d="M87.3 152.4c2-1.1 2 1.6 1.9 2.2s-2.6 2.1-5.6 1.8c-2.9-.3 1-2.4 3.7-4zm-.7-119.9c1.7 0 3.1.5 3.1 1.1 0 .6-1.3 1.1-3.1 1.1s-3.1-.5-3.1-1.1c.1-.6 1.4-1.1 3.1-1.1z"/><path class="st21" d="M86.1 211.7c0 1.1 1.2 3.2-1.4 5.3-2.6 2.1-5.6-1-5.6-1.9s2.1-1.4 4.3-3.3c2-1.4 2.7-1.2 2.7-.1z"/><path class="st20" d="M81.4 203c3.1.9 5.6 1.4 5.6 2.4s-1.9 4.4-5.3 3.8c-5.1-1.1-7-5.5-9.3-8.1.3-2.4 6 1.1 9 1.9zm2.3-143.5c.6 0 1.1 1.4 1.1 3.1 0 1.7-.5 3.1-1.1 3.1-.6 0-1.1-1.4-1.1-3.1 0-1.8.5-3.1 1.1-3.1zm-.1 14.8c.6 0 1.1 1.4 1.1 3.1 0 1.7-.5 3.1-1.1 3.1s-1.1-1.4-1.1-3.1c0-1.7.5-3.1 1.1-3.1z"/><path class="st19" d="m78.5 186.1.1.1c-1.6 1.8-3.4 3.5-5.2 5.4-.1.1-.2.2-.4.3l-.6-.6v-174h6.1v168.8z"/><path class="st12" d="M74.3 238h4v26.7h-4zm-2.4-9.5 6.4 9.5h-4l-6.5-9.7c1.3.1 2.7.1 4.1.2z"/><path class="st13" d="M60.5 238h13.8v26.7H60.5zm7.2-9.7 6.5 9.7H60.5l-6.7-10c.8-.3 1.5-.5 2.2-.7 2.9.4 7.2.8 11.7 1z"/><path class="st19" d="m72.4 191.3.6.7c-1.8 1.7-3.5 3.5-5.3 5.1h-.1l-.3-.3V17.3h5.1v174z"/><path class="st17" d="M32.7 200.6c1.4-1.6 2.7-3.2 3.7-5 6.1-10 7.6-12 9.8-18.3v-.1l-1.1-.4v-.1c.4-1.6-.9-4.1-3.1-6.1-2.7-2.4-5.9-3.3-7.2-1.9-.4.4-.5.8-.5 1.2h-1.6V94.5h34.6v102.3l.3.3c-7.3 7-14.1 13-14.9 13.7l-1.7-.1c.3-.3.3-.8-.7-1.3-1.6-.9-4.4-1.6-4.4-1.6s-.4.4-.4.7l-1.1-.1c.1-1.3.3-2.7.5-4.2.5-4.1 2-13.8 2.1-16 .1-2.2-.6-3.1-1.4-1.3-.7 4.3-1.9 12.1-2.3 14.4-.1.7-.3 2-.6 3.6l-1.4-.1v-.2c0-.4-.4-.9-1.1-.8-3.1.4-4.8.6-7.2.6-1.3 0-2.7.4-3.4.9l-.6-.6c1.3-1.4 2.5-2.7 3.7-4.1zM60 115.9c1.7-.9 5.5-2.8 5-3.9-.6-1.6-6.4-1-9.6-.3-3.3.7-5.4 2.6-4.7 4.2.6 1.6 3.8 2.3 7.1 1.6.9-.3 1.5-1.3 2.2-1.6zm1.2 66.7c.4-1.6-2.2-3.5-5.8-4.3-3.6-.8-6.7-.2-7.1 1.3-.3 1.6 2.2 3.5 5.8 4.3 1.6.4 2.3-.4 3.5-.5 1.5-.2 3.4 0 3.6-.8zm-1.9-32.3c1.6.6 2.6.3 1.3-.9-1.3-1.1-6.8-4.6-7.8-4.6-1.1 0-1.9.4-.9 1.6.5.6 5.8 3.2 7.4 3.9zM58 172.5c1.6-1.6 2.6-2.7 2-3.8-.9-1.6-4.2-1.5-7.4.4-3.1 1.9-4.9 4.6-4 6.3.9 1.6 4.3 1.5 7.4-.4.9-.6 1.3-1.9 2-2.5zm-.1-19.5c1.1.4 1.6.6 1-.5-.6-1.1-6.1-4.8-7.1-5.1-.9-.4-1.2.3-1 1 .2.5 6.1 4.3 7.1 4.6zM53 123.3c.5-.6-.3-2.2-1.8-3.7-1.6-1.4-3.3-2.2-3.8-1.6-.5.6.3 2.2 1.9 3.7.6.6 1.1.6 1.8.9.8.3 1.7 1 1.9.7zm-3.2 27.2c0-2.3 3.4-15.4 3.1-16.8-.2-1.5-.6-2.9-1.6-.9-.3 2.2-2.5 12.7-3.6 17.9-.4 1.5-.9 1.6-1 2.8-.1 1.6.1 1.8 1.5 2 1.6.2 1.7-1.1 1.7-1.7-.1-1.3-.1-1.9-.1-3.3zm.4 56.3s1.3.2.1-1.3c-1.3-1.5-3.6-2.7-3.9-2.7-.3 0-.8.8 0 1.4.4.4 3.8 2.6 3.8 2.6zM47 116.6c1.8-.4.7-5.4-.6-8.6-1.3-3.2-3.8-5.6-5.6-5.1-1.7.4-1.1 2.1-1.1 4.1.1 1.2 2.2 4.4 2.9 5.3 1.3 1.4 3.2 4.6 4.4 4.3zm-.2 32.2c.8-.8-.6-1-1.6-.6-1.1.4-4.8 1.4-9.7 3.4-1.7 1.4 1.5.9 3 .4s7.5-2.5 8.3-3.2zm-.8-2.9c.9-.6-.4-1-1.5-.9-1.1.2-4.9.6-10.1 1.8-1.9 1.1 1.4 1.1 2.9.8 1.5-.2 7.8-1.1 8.7-1.7zm-1.1-24.8c.1-.6.4-3.4-1.7-2.4-2.9 1.3-7 3-4 3.6s5.6-.6 5.7-1.2z"/><path class="st18" d="m43.5 71.5 4.1 5.3 3.4-2.6 14.5-11.3h1.7v31.6H32.7V70.3H35c0 .6 1.4 1.1 3.1 1.1 1.7 0 3.1-.5 3.1-1.1 0-.1-.1-.2-.1-.4l.8-.6 1.6 2.2zM62 72.7c0-.6-1.4-1.1-3.1-1.1-1.7 0-3.1.5-3.1 1.1 0 .6 1.3 1.1 3.1 1.1 1.7 0 3.1-.5 3.1-1.1zM47 85.5c.6 0 1.1-1.4 1.1-3.1 0-1.7-.6-3.1-1.2-3.1s-1.1 1.4-1.1 3.1c0 1.7.5 3.1 1.2 3.1z"/><path class="st18" d="m46.9 68.9-3.4 2.6-1.7-2.2-6.9-8.8h-2.1V17.3h34.6v45.6h-1.7L51 74.2l-4.1-5.3zM63 30.4c0-.6-1.4-1.1-3.1-1.1-1.7 0-3.1.5-3.1 1.1 0 .6 1.3 1.1 3.1 1.1 1.6 0 3.1-.5 3.1-1.1zM53.7 24c0-1.6-.5-3.1-1.1-3.1-.6 0-1.1 1.4-1.1 3.1 0 1.7.5 3.1 1.1 3.1.6-.1 1.1-1.4 1.1-3.1zm-.9 14.7c0-1.6-.5-3.1-1.1-3.1-.6 0-1.1 1.3-1.1 3.1 0 1.7.5 3.1 1.1 3.1.6 0 1.1-1.4 1.1-3.1zm-4.7 24.9c.6 0 1.1-1.4 1.1-3.1 0-1.6-.6-3.1-1.2-3.1s-1.1 1.4-1.1 3.1c-.1 1.8.5 3.1 1.2 3.1zm.2-33.6c0-.6-1.4-1.1-3.1-1.1-1.7 0-3.1.5-3.1 1.1 0 .6 1.4 1.1 3.1 1.1 1.7.1 3.1-.4 3.1-1.1z"/><path class="st20" d="M65 112c.5 1.1-3.3 3.1-5 3.9-.7.4-1.3 1.3-2.2 1.5-3.3.7-6.5.1-7.1-1.6-.7-1.6 1.4-3.5 4.7-4.2 3.2-.6 9-1.2 9.6.4zm-5.1-82.8c1.7 0 3.1.5 3.1 1.1 0 .6-1.4 1.1-3.1 1.1-1.7 0-3.1-.5-3.1-1.1 0-.6 1.4-1.1 3.1-1.1z"/><ellipse class="st20" cx="58.9" cy="72.7" rx="3.1" ry="1.1"/><path class="st20" d="M55.4 178.3c3.6.8 6.1 2.7 5.8 4.3-.2.9-2.1.6-3.6.9-1.2.1-1.9.9-3.5.5-3.6-.8-6.1-2.7-5.8-4.3.4-1.6 3.5-2.2 7.1-1.4zm5.2-28.9c1.3 1.1.4 1.5-1.3.9-1.6-.6-6.9-3.3-7.3-3.8-1-1.3-.2-1.6.9-1.6.9-.1 6.4 3.4 7.7 4.5z"/><path class="st12" d="M56.5 238h4v26.7h-4zm-2.7-10 6.7 10h-4l-6-8.9c1.1-.4 2.2-.7 3.3-1.1z"/><path class="st20" d="M60 168.7c.6 1.1-.4 2.3-2 3.8-.6.6-1.1 1.9-2 2.4-3.1 1.9-6.5 2-7.4.4-.9-1.6.9-4.4 4-6.3 3.1-1.8 6.4-2 7.4-.3zm-1.1-16.2c.6 1.1.1.9-1 .5-1-.4-6.8-4.1-7.1-4.6-.2-.7.1-1.4 1-1 1 .4 6.5 4 7.1 5.1z"/><path class="st0" d="M31.7 238h24.8v26.7H31.7zm18.8-8.9 6 8.9H31.7l-4-6.1c9.2 1.3 16.6-.7 22.8-2.8z"/><path class="st20" d="M52.5 20.9c.6 0 1.1 1.4 1.1 3.1 0 1.7-.5 3.1-1.1 3.1-.6 0-1.1-1.4-1.1-3.1 0-1.8.5-3.1 1.1-3.1zm-1.2 98.7c1.5 1.5 2.3 3.1 1.8 3.7-.3.3-1.1-.4-1.9-.8-.6-.3-1.1-.2-1.8-.9-1.6-1.5-2.3-3.1-1.9-3.7.5-.5 2.2.3 3.8 1.7zm1.6 14c.2 1.4-3.1 14.6-3.1 16.8 0 1.4 0 2.1.1 3.3 0 .6-.1 1.9-1.7 1.7-1.3-.2-1.6-.4-1.5-2 .1-1.1.6-1.3 1-2.8 1.1-5.2 3.3-15.7 3.6-17.9 1-2 1.4-.6 1.6.9z"/><ellipse class="st20" cx="51.7" cy="38.7" rx="1.1" ry="3.1"/><path class="st20" d="M50.3 209.4c1 .6 1 1 .7 1.3l-.1.1c-.1.1-.4.2-.6.2-.6 0-2.8-1.1-4.4-2.1-.3-.1-.4-.3-.4-.5 0-.4.4-.7.4-.7s2.8.8 4.4 1.7z"/><path class="st18" d="m46.9 68.9 4.1 5.3-3.4 2.6-4.1-5.3z"/><path class="st20" d="M50.3 205.5c1.3 1.5-.1 1.3-.1 1.3s-3.4-2.2-3.9-2.6c-.8-.6-.3-1.4 0-1.4.4 0 2.7 1.2 4 2.7zm-1.1-145c0 1.7-.5 3.1-1.1 3.1-.6 0-1.2-1.4-1.2-3.1 0-1.7.5-3.1 1.1-3.1.6.1 1.2 1.5 1.2 3.1zm-1.1 21.9c0 1.7-.5 3.1-1.1 3.1-.6 0-1.2-1.4-1.2-3.1 0-1.7.5-3.1 1.1-3.1.6.1 1.2 1.4 1.2 3.1zm-2.9-53.5c1.7 0 3.1.5 3.1 1.1 0 .6-1.4 1.1-3.1 1.1-1.7 0-3.1-.5-3.1-1.1 0-.6 1.4-1.1 3.1-1.1zm1.1 79.1c1.4 3.3 2.4 8.2.6 8.6-1.1.3-3.1-2.9-4.4-4.4-.7-.9-2.9-4.1-2.9-5.3 0-2-.6-3.7 1.1-4.1 1.8-.4 4.3 2 5.6 5.2zm-.8 78.8c.8-1.9 1.6-.9 1.4 1.3-.1 2.1-1.6 11.9-2.1 16-.2 1.5-.4 2.9-.5 4.2-.3 2.3-.5 4.2-.5 5 0 1.1-.4 2.5-1.4 2.4-.9-.1-1.4-1.6-1.1-2.5.1-.3.3-1.6.5-3.2.3-1.6.6-3.5.8-5.2.3-1.6.4-2.9.6-3.6.4-2.2 1.6-10.1 2.3-14.4zm-.4-38.6c1.1-.4 2.4-.1 1.6.6-.8.7-6.8 2.7-8.3 3.2-1.5.4-4.7 1-3-.4 5-2 8.7-3.1 9.7-3.4z"/><path class="st17" d="M46.2 177.3c-2.2 6.3-3.7 8.3-9.8 18.3-1 1.7-2.3 3.4-3.7 5v-30.4h1.6c0 1.1.9 2.1 1.7 3.4.6 1.1 4 3.1 5 3.5 1.7.8 2.9 1.6 3.6.6.1-.2.3-.4.4-.6 0-.1 0-.1.1-.2l1.1.4zm-4 5.9c.2-.7 1.1-3.8-1.2-3.1-3.1 1.1-7.5 2.8-4.7 3.8 2.8 1.2 5.7.1 5.9-.7z"/><path class="st20" d="M44.5 145c1.1-.1 2.4.3 1.5.9-.9.6-7.1 1.5-8.7 1.7-1.5.3-4.8.4-2.9-.8 5.2-1.1 8.9-1.5 10.1-1.8zm-2.4 25.8c2.2 2 3.4 4.5 3.1 6.1v.1c0 .1-.1.1-.1.2-.1.2-.2.4-.4.6-.8.9-1.9.1-3.6-.6-1-.4-4.4-2.4-5-3.5-.9-1.3-1.7-2.3-1.7-3.4 0-.4.1-.8.5-1.2 1.2-1.6 4.5-.7 7.2 1.7zm1.1-52.1c2.1-.9 1.8 1.8 1.7 2.4-.1.6-2.7 1.9-5.7 1.2s1.1-2.4 4-3.6zM41 180.1c2.3-.8 1.4 2.4 1.2 3.1-.2.8-3.1 1.9-5.9.8-2.8-1.1 1.6-2.7 4.7-3.9z"/><path class="st18" d="m41.8 69.3-.8.7c-.4-.5-1.6-.9-2.9-.8-1.7 0-3.1.5-3.1 1.1h-2.3v-9.8h2.1l7 8.8z"/><path class="st20" d="M41.3 204.5v.2c-.1.5-.5 1-1.3 1.1-1.6.1-7.3.1-9.8 0-.9-.1-1.1-.3-.9-.5l.1-.1.1-.1c.6-.4 2.1-.9 3.4-.9 2.3 0 4.1-.2 7.2-.6.8.1 1.2.5 1.2.9zM41 70c.1.1.1.2.1.4 0 .6-1.3 1.1-3.1 1.1-1.7 0-3.1-.5-3.1-1.1 0-.6 1.4-1.1 3.1-1.1 1.4-.2 2.6.2 3 .7zm-.6 138.2c1.1-.2.1 1.7-.4 1.9-.6.1-5.1 1.4-8.8 1.8-3.6.3-1.4-1.5.8-2 2.1-.6 5.7-1.2 8.4-1.7z"/><path class="st19" d="M32.7 170.2v30.4l-.1.1c-1.1 1.3-2.4 2.6-3.7 3.8l-.1.1-.1.1c-.8.7-1.6 1.5-2.5 2.2V17.3h6.4v152.9z"/><path class="st4" d="M27.6 238h4v26.7h-4zm0-6.1 4 6.1h-4l-4.8-7.1c1.7.4 3.3.8 4.8 1z"/><path class="st5" d="M13.9 238h13.8v26.7H13.9zm8.9-7.1 4.8 7.1H13.9L7 227.8c3.5.1 7.7.4 10.7 1.5 1.7.6 3.5 1.2 5.1 1.6z"/><path class="st19" d="M26.3 17.3v189.6c-2.2 1.9-4.6 3.8-7.2 5.8V17.2h7.2z"/><path class="st17" d="M19.1 194.2v18.5c-5.6 4.3-12 9.1-18.5 15.2v.1H.5v-33.4h.1v1.8s2.5-1.4 2.9-2.1c.1-.1.1-.2.1-.3l1 .1c-.1.8-.1 1.4-.2 2.1-.2 1.6-.9 1.9-.8 3.1.1 1.6.4 1.9 1.9 1.9 1.8 0 1.8-1.4 1.6-2.1-.2-1.3-.3-1.9-.5-3.6-.1-.9.1-3.1.4-5.7l.9.1c0 .3.2.6.6 1.1.5.6 6.6 2.9 8.3 3.3 1.1.3 2 .2 2-.2h.3zm-3.4 3.3c1.2.3 1.9.5 1.1-.6-.8-1.1-7.2-4.4-8.3-4.7-1.1-.2-1.3.4-1 1.1.3.5 7 4 8.2 4.2z"/><path class="st17" d="M19.1 146.9v47.3h-.3c0-.2-.2-.5-.8-.9-1.6-1.1-7.9-4.1-9-4.1-.6 0-1.2.2-1.2.7l-.9-.1C7.4 184.7 8.3 178 8 177c-.4-1.5-1.1-3-1.9-.6 0 2.1-1 11.6-1.6 17.7l-1-.1c0-.6-1.9.1-2.9.6H.5v-34.9h.1c.3-.2.6-.4.9-.7.9-.9 1.5-1.8 1.5-2.5l1.9-.2c.3 1 2.3 2.5 3.8 3.7 1.7 1.5 1.9 1.9 2.6 1 .8-1 .2-2.4-1.5-3.8-1.3-1.1-2.8-1.9-3.9-1.9l.7-1.3c1.5.6 4.1.1 6.5-1.4 1.1-.6 1.4-2.1 2.1-2.9 1.1-1.2 2.1-2 2.1-2.9h1.8zM2.3 191.3c.9-.8-.6-1.1-1.8-.8v1.6l1.8-.8z"/><path class="st17" d="m7.5 110.1-5.6 2.7H.5V94.5h18.7v52.4h-1.9c0-.2-.1-.4-.2-.6-.9-1.6-2.9-.9-6.1 1-2.3 1.4-4.5 3-5.3 4.4l-2.5-.1c.5-1.3-.9-3.4-2.6-5.9v-29.8H3l6.1-2.5-1.6-3.3z"/><path class="st18" d="m3.5 65.9-1.6-2.4H.5V38.6h2.3c.2-.3 5.6-5.6 10-9.7l6.3 7.2v58.3H.5V67.7h.7l2.3-1.8zm10.1-29c0-1.2-.3-2.3-.9-2.3-.5 0-.9 1-.9 2.3s.4 2.3.9 2.3.9-1 .9-2.3zM13.3 68c0-.6-1.4-1.1-3.1-1.1-1.7 0-3.1.5-3.1 1.1 0 .6 1.4 1.1 3.1 1.1 1.7.1 3.1-.4 3.1-1.1zM5.4 57.1c0-1.7-.5-3.1-1.1-3.1s-1.1 1.4-1.1 3.1c0 1.7.5 3.1 1.1 3.1s1.1-1.4 1.1-3.1zM4 72.7c0-1.7-.5-3.1-1.1-3.1s-1.1 1.3-1.1 3.1c0 1.7.5 3.1 1.1 3.1S4 74.4 4 72.7z"/><path class="st18" d="M19.1 28.4v7.7l-6.3-7.2c1.1-1 2.1-2 2.9-2.8l1.9 2.3h1.5z"/><path class="st18" d="M19.1 23.8v4.6h-1.5l-1.9-2.3c1.5-1.4 2.5-2.3 2.5-2.3h.9z"/><path class="st18" d="m19.1 23.7-.9.1s-1 .9-2.5 2.3L13 22.7l3.6-3.6v-1.9h2.6v6.5z"/><path class="st20" d="M18 193.3c.6.3.8.6.8.9 0 .4-.9.5-2 .2-1.8-.4-7.8-2.7-8.3-3.3-.4-.5-.6-.9-.6-1.1 0-.5.6-.7 1.2-.7 1-.1 7.4 3 8.9 4zm-1-47c.1.2.2.4.2.6 0 .9-.9 1.6-2.1 2.9-.7.7-1.1 2.2-2.1 2.9-2.4 1.5-5 2-6.5 1.4-.4-.1-.7-.4-.9-.8-.3-.4-.3-.8-.1-1.2 0-.1.1-.2.1-.3.8-1.4 3-3 5.3-4.4 3.2-2.1 5.1-2.7 6.1-1.1zm-.3 50.6c.8 1.1.1.9-1.1.6-1.1-.3-7.9-3.7-8.2-4.2-.3-.7-.1-1.4 1-1.1 1.1.3 7.6 3.6 8.3 4.7z"/><path class="st18" d="M16.5 17.3v1.8L13 22.7l-2.8-3.6v-1.8zM13 22.7l2.8 3.5c-.9.8-1.9 1.8-2.9 2.8L10 25.7l3-3z"/><path class="st4" d="M9.9 238h4v26.7h-4zM7 227.8l6.9 10.2h-4L3 227.9c1.1-.1 2.5-.1 4-.1z"/><ellipse class="st20" cx="12.7" cy="36.9" rx=".9" ry="2.3"/><path class="st18" d="m10.2 19.1 2.8 3.6-3 3-1.5-1.8-4.2-4.8v-1.8h5.9z"/><path class="st18" d="m10 25.7 2.9 3.3c-4.4 4.1-9.8 9.3-10 9.7H.5V25.4h.6c0 .6 1.3 1.1 3.1 1.1 1.7 0 3.1-.5 3.1-1.1 0-.1-.1-.2-.1-.3L8.5 24l1.5 1.7z"/><path class="st20" d="M10.2 66.9c1.7 0 3.1.5 3.1 1.1 0 .6-1.4 1.1-3.1 1.1-1.7 0-3.1-.5-3.1-1.1 0-.6 1.4-1.1 3.1-1.1zm-.6 90.3c1.7 1.4 2.3 2.8 1.5 3.8-.8.9-.9.5-2.6-1-1.4-1.2-3.5-2.7-3.8-3.7v-.2c0-.1.1-.3.1-.4.3-.2.6-.4.9-.4 1.1 0 2.6.9 3.9 1.9z"/><path class="st0" d="M.5 238h9.3v26.7H.5zM3 227.9 9.9 238H.5v-10c.3 0 1.2-.1 2.5-.1z"/><path class="st17" d="m7.5 110.1 1.5 3.3-6.1 2.5H.5v-3.1h1.4z"/><path class="st18" d="M8.5 23.9 7.2 25c-.4-.5-1.6-.9-2.9-.8-1.7 0-3.1.5-3.1 1.1H.5v-8.1h3.7v1.9l4.3 4.8z"/><path class="st20" d="M8 177.1c.3 1-.6 7.7-1.1 12.8-.3 2.6-.5 4.8-.4 5.7.2 1.6.3 2.3.5 3.6.1.6.1 2.1-1.6 2.1-1.4 0-1.8-.3-1.9-1.9-.1-1.3.6-1.5.8-3.1.1-.6.1-1.3.2-2.1.6-6.1 1.6-15.6 1.6-17.7.8-2.4 1.4-.9 1.9.6zM7.2 25c.1.1.1.2.1.3 0 .6-1.4 1.1-3.1 1.1-1.7 0-3.1-.5-3.1-1.1 0-.6 1.3-1.1 3.1-1.1 1.4 0 2.6.3 3 .8z"/><path class="st17" d="m6.5 154-.7 1.3c-.3 0-.6.1-.9.4-.1.1-.1.3-.1.4v.2l-1.9.2v-.2c0-.1-.1-.3-.2-.4-.3-.3-1.2-.2-2.1.4V152c.7.5 1.4.8 1.9.4.3-.2.4-.4.6-.6 0-.1.1-.1.1-.2l2.5.1c-.1.1-.1.2-.1.3-.2.4-.2.9.1 1.2.1.3.4.6.8.8z"/><path class="st20" d="M4.3 54c.6 0 1.1 1.4 1.1 3.1 0 1.7-.5 3.1-1.1 3.1s-1.1-1.4-1.1-3.1c-.1-1.7.4-3.1 1.1-3.1z"/><ellipse class="st20" cx="2.9" cy="72.7" rx="1.1" ry="3.1"/><path class="st18" d="m1.9 63.5 1.6 2.4-2.2 1.8H.5v-4.2z"/><path class="st20" d="M3.5 194c0 .1 0 .2-.1.3-.4.6-2.9 2.1-2.9 2.1v-1.8c1-.4 3-1.2 3-.6zm-3-48.3c1.7 2.5 3.1 4.6 2.6 5.9 0 .1-.1.1-.1.2-.1.3-.3.4-.6.6-.6.4-1.2.1-1.9-.4v-6.3zm2.3 10.5v.2c0 .6-.6 1.6-1.5 2.5-.3.3-.6.5-.9.7h.1v-3.4s.1 0 .1-.1c.9-.6 1.7-.7 2.1-.4.1.3.1.4.1.5zM.5 190.5c1.2-.3 2.6 0 1.8.8l-1.8.9v-1.7z"/><path class="st22" d="M93.5 227h174.9v37.7M.5 238h267.9"/><path class="st23" d="M268.4 264.7H.5v-36.9"/><path class="st22" d="m235.7 227 7.4 11v26.7"/><path class="st22" d="m239.7 227 7.4 11v26.7m6.3-37.7 7.4 11v26.7"/><path class="st22" d="m257.5 227 7.4 11v26.7M189 227l7.4 11v26.7"/><path class="st22" d="m193 227 7.4 11v26.7m6.4-37.7 7.4 11v26.7"/><path class="st22" d="m210.8 227 7.4 11v26.7M142.4 227l7.4 11v26.7"/><path class="st22" d="m146.4 227 7.4 11v26.7m6.3-37.7 7.5 11v26.7"/><path class="st22" d="m164.2 227 7.4 11v26.7M95.7 227l7.4 11v26.7"/><path class="st22" d="m99.7 227 7.5 11v26.7m6.3-37.7 7.4 11v26.7"/><path class="st22" d="m117.5 227 7.4 11v26.7m-74.5-35.8.1.2 6 8.9v26.7"/><path class="st22" d="m53.8 228 6.7 10v26.7m7.2-36.4h0l6.6 9.7v26.7"/><path class="st22" d="m71.9 228.5 6.4 9.5v26.7m-75.4-37 .1.2L9.9 238v26.7"/><path class="st22" d="m6.9 227.7.1.1 6.9 10.2v26.7m8.9-33.8 4.8 7.1v26.7m0-32.8 4.1 6.1v26.7"/><path class="st23" d="M228.1 149.9h40.3v11h-33.9"/><path class="st22" d="m254.3 149.9 5.9 11m-1.3-11 5.8 11m-22.5-11 5.9 11m-11.5-11 5.8 11"/><path class="st24" d="M.5 145.7V7.6h113.8c11-.4 27.1 1.3 37.6-6.1-6.6 8.3-13.1 12.1-33.6 12.1v1.1c0 .6 0 1.5.1 2.5v.1c.1 3.4.1 9.1.2 16.3 0 0 0 0 0 0v1.5s0 0 0 0c.1 7.4.2 16.3.3 25.9v3.3c0 4.2.1 8.6.1 12.9 0 4.1.1 8.3.1 12.6v23.5M.5 156.2V152M119 116.9c0 7.7-.1 15-.1 21.9v2.1c-.1 4.7-.2 9.1-.3 13.1-.1 4-.2 7.6-.4 10.7-.1 1-.1 2-.1 2.9v.1c-.1 1.4-.1 2.6-.3 3.6v.1c-.1 1.4-.3 2.5-.4 3.3-.1.5-.2 1.1-.3 1.7v.1c-.3 1.3-.6 2.7-.8 4.1v.1c-.4 1.7-.8 3.5-1.4 5.4v.3c-.4 1.5-.8 2.9-1.2 4.3v.1c-.2.8-.5 1.6-.7 2.4 0 .1 0 .1-.1.2-.5 1.4-.9 2.9-1.4 4.3 0 .1-.1.2-.1.2-.8 2.2-1.5 4.3-2.3 6.4 0 .1-.1.2-.1.2-.5 1.5-1.1 2.9-1.6 4.3 0 .1 0 .1-.1.2-3.2 7.9-6.4 14-8.8 15.5-1.9 1.2-3.2 1.9-4.2 2.3h-.1c-.2.1-.4.2-.6.2-1.3.5-1.7.3-1.7.3-3.8 1.3-11.9 1.5-19.9 1.2-1.4 0-2.8-.1-4.1-.2-4.6-.2-8.8-.6-11.8-1-.7.2-1.5.5-2.2.7-1 .4-2.1.7-3.3 1.1-6.2 2.1-13.6 4.1-22.9 2.7-1.5-.2-3.1-.5-4.8-1-1.7-.4-3.4-1-5.2-1.6-3-1.1-7.2-1.4-10.7-1.5H3c-1.3.1-2.2.1-2.5.1H.4v-68.2M119 114.3v2.6M.6 13.7h117.7M.6 17.3h117.7"/><path class="st24" d="M47.2 174.5c-.3 1-.7 1.9-1 2.8v.1c-2.2 6.3-3.6 8.3-9.8 18.3-1 1.7-2.3 3.4-3.7 5l-.1.1c-1.1 1.3-2.4 2.6-3.7 3.8l-.1.1-.1.1c-.8.7-1.6 1.5-2.5 2.2-2.2 1.9-4.6 3.8-7.2 5.8-5.6 4.3-12 9.1-18.5 15.2m91.3-89.4s.1 4-.1 9.6c-.1 1.1-.1 2.3-.2 3.5v.1c-.5 7.4-1.6 16.3-3.9 22.5-.6 1.6-1.3 3-2.1 4.1-1.5 2.2-3.9 4.9-6.8 7.9 0 0 0 0 0 0-1.6 1.8-3.4 3.5-5.2 5.4-.1.1-.2.2-.4.3 0 0 0 0 0 0-1.8 1.7-3.5 3.5-5.3 5.1h-.1c-7.3 7-14.1 13-14.9 13.7l-.1.1c17.5 6.3 30 15.9 40.4 15.9h1m-44.8-12.9 6.7 13.3m-36.9-14.5V17.3m7.2 0v189.6m6.4-189.6v183.4M67.3 17.3v179.5m5.1-179.5v174m6.1-5.2V17.3M64 21.7l-11.5 9-9.9 7.9"/><path class="st24" d="m42.6 19.1 9.9 11.6L63 43M34.9 60.5l6.9 8.8h0l1.7 2.2 4.1 5.3 9.9 12.5M37.6 57l9.3 11.9 4.1 5.3 9.1 11.5"/><path class="st24" d="M65.6 62.9 51 74.2l-3.4 2.6-10 7.7M64 55.8 46.9 68.9l-3.4 2.6-7.6 5.9m-3.2 17.1h34.6M1 94.5h17.7m60.2 0h39.6M5.8 155.3c1.1 0 2.6.9 3.9 1.9 1.7 1.4 2.3 2.8 1.5 3.8-.8.9-.9.5-2.6-1-1.4-1.2-3.5-2.7-3.8-3.7v-.2c0-.1.1-.3.1-.4.2-.2.5-.4.9-.4zm11.4-8.4c0-.2-.1-.4-.2-.6-.9-1.6-2.9-.9-6.1 1-2.3 1.4-4.5 3-5.3 4.4-.1.1-.1.2-.1.3-.2.4-.2.9.1 1.2.2.3.6.6.9.8 1.5.6 4.1.1 6.5-1.4 1.1-.6 1.4-2.1 2.1-2.9 1.1-1.2 2.1-1.9 2.1-2.8zm34.1-14.1c-.3 2.2-2.5 12.7-3.6 17.9-.4 1.5-.9 1.6-1 2.8-.1 1.6.1 1.8 1.5 2 1.6.2 1.7-1.1 1.7-1.7-.1-1.2-.1-1.9-.1-3.3 0-2.3 3.4-15.4 3.1-16.8-.2-1.6-.6-3-1.6-.9zm-16.9 14c5.2-1.1 9-1.6 10.1-1.8 1.1-.1 2.4.3 1.5.9-.9.6-7.1 1.5-8.7 1.7-1.5.3-4.8.4-2.9-.8zm1 4.8c4.9-2 8.6-3.1 9.7-3.4 1.1-.4 2.4-.1 1.6.6-.8.7-6.8 2.7-8.3 3.2-1.5.5-4.7 1-3-.4z"/><path class="st24" d="M52 146.4c.4.6 5.7 3.2 7.3 3.8 1.6.6 2.6.3 1.3-.9-1.3-1.1-6.8-4.6-7.8-4.6-1 .1-1.8.4-.8 1.7zm-1.2 2c.2.5 6.1 4.3 7.1 4.6 1.1.4 1.6.6 1-.5-.6-1.1-6.1-4.8-7.1-5.1-.9-.4-1.2.3-1 1z"/><path class="st22" d="M6.9 189.9c.5-5.1 1.4-11.8 1.1-12.8-.4-1.5-1.1-3-1.9-.6 0 2.1-1 11.6-1.6 17.7-.1.8-.1 1.4-.2 2.1-.2 1.6-.9 1.9-.8 3.1.1 1.6.4 1.9 1.9 1.9 1.8 0 1.8-1.4 1.6-2.1-.2-1.3-.3-1.9-.5-3.6-.1-.8.1-3.1.4-5.7zm-6.4.6c1.2-.3 2.6 0 1.8.8l-1.8.9m0 2.4c1-.4 2.9-1.2 2.9-.6v0c0 .1 0 .1-.1.3-.4.6-2.9 2.1-2.9 2.1m7.4-6.4c0 .3.2.6.6 1.1.5.6 6.6 2.9 8.3 3.3 1.1.3 2 .2 2-.2 0-.2-.2-.5-.8-.9-1.6-1.1-7.9-4.1-9-4.1-.4.1-1.1.3-1.1.8z"/><path class="st22" d="M7.5 193.3c.3.5 7.1 3.9 8.2 4.2 1.2.3 1.9.5 1.1-.6-.8-1.1-7.2-4.4-8.3-4.7-1.1-.2-1.3.4-1 1.1z"/><path class="st24" d="M34.4 170.2c0-.4.1-.8.5-1.2 1.3-1.4 4.5-.6 7.2 1.9 2.2 2 3.4 4.5 3.1 6.1v.1c0 .1-.1.1-.1.2-.1.2-.2.4-.4.6-.8.9-1.9.1-3.6-.6-1-.4-4.4-2.4-5-3.5-.9-1.5-1.7-2.6-1.7-3.6zm25.6-1.5c.6 1.1-.4 2.3-2 3.8-.6.6-1.1 1.9-2 2.4-3.1 1.9-6.5 2-7.4.4-.9-1.6.9-4.4 4-6.3 3.1-1.8 6.4-2 7.4-.3zm1.2 13.9c-.2.9-2.1.6-3.6.9-1.2.1-1.9.9-3.5.5-3.6-.8-6.1-2.7-5.8-4.3.4-1.6 3.5-2.1 7.1-1.3 3.6.7 6.1 2.6 5.8 4.2zM41 180.1c-3.1 1.1-7.5 2.8-4.7 3.8 2.9 1.1 5.7 0 5.9-.8.2-.6 1.1-3.7-1.2-3zm53-29c0 .1-.1.2-.1.3-.3.4-1.3.4-2.5.3h0c-1.2-.1-2.6-.4-3.6-.6-1.1-.1-4.8-1-5.7-1.9-1.1-1.1-2.4-1.9-2.4-2.8 0-.2.1-.5.3-.8.9-1.3 4.2-1.3 7.4.1 1.4.6 2.9 1.5 4.2 2.3 1.5 1.2 2.6 2.3 2.4 3.1zm3.1-2.4c-1 0-1.7-.3-2.2-.8-1.1-1.3.3-3.7 3.1-5.4 2.6-1.4 7.1-3.5 8.8-2.9.1 0 .1.1.2.1.1.1.1.1.2.1.8.9-2.1 3.9-3.5 5.3-.6.6-.8 1.6-1.6 2.1-1.5.9-3.1 1.4-4.4 1.5h-.6zm.3 1.5c.1 0 .2 0 .3-.1 1-.1 2.3-.1 3.7.2 2.8.6 4.9 1.9 4.7 2.9-.1.6-1.6.4-2.8.5-.9.1-1.4.5-2.7.3-2.8-.6-4.9-1.9-4.7-2.9.2-.4.8-.7 1.5-.9zm-10.1 2.2c-2.8 1.6-6.6 3.7-3.6 4 3 .3 5.5-1.1 5.6-1.8s0-3.3-2-2.2zM47 116.6c-1.1.3-3.1-2.9-4.4-4.4-.7-.9-2.9-4.1-2.9-5.3 0-2-.6-3.7 1.1-4.1 1.7-.4 4.2 1.9 5.6 5.1 1.3 3.3 2.4 8.3.6 8.7zm18-4.6c.5 1.1-3.3 3.1-5 3.9-.7.4-1.3 1.3-2.2 1.5-3.3.7-6.5.1-7.1-1.6-.7-1.6 1.4-3.5 4.7-4.2 3.2-.6 9-1.2 9.6.4zm-12 11.3c-.3.3-1.1-.4-1.9-.8-.6-.3-1.1-.2-1.8-.9-1.6-1.5-2.3-3.1-1.9-3.7.5-.6 2.2.2 3.8 1.6 1.6 1.6 2.3 3.2 1.8 3.8zm-9.8-4.6c-2.9 1.3-7 3-4 3.6s5.6-.6 5.7-1.2c.1-.7.4-3.4-1.7-2.4zm1.1 89.6h0c.1-1.3.3-2.7.5-4.2.5-4.1 2-13.8 2.1-16 .1-2.2-.6-3.1-1.4-1.3-.7 4.3-1.9 12.1-2.3 14.4-.1.7-.3 2-.6 3.6-.2 1.7-.5 3.6-.8 5.2-.3 1.6-.5 2.8-.5 3.2-.2.9.2 2.4 1.1 2.5.9.1 1.4-1.3 1.4-2.4 0-.8.3-2.7.5-5zm-14.7-3.1-.1.1-.1.1c-.2.2-.1.4.9.5 2.5.1 8.1.1 9.8 0 .8-.1 1.2-.6 1.3-1.1v-.2c0-.4-.4-.9-1.1-.8-3.1.4-4.8.6-7.2.6-1.4-.1-2.9.4-3.5.8zm10.8 3c-2.7.6-6.4 1.1-8.4 1.6-2.1.5-4.4 2.3-.8 2 3.6-.4 8.2-1.6 8.8-1.8.6-.1 1.5-2.1.4-1.8zm5.9-4c.4.4 3.9 2.6 3.9 2.6s1.3.2.1-1.3c-1.3-1.5-3.6-2.7-3.9-2.7-.4 0-.9.8-.1 1.4zm-.8 4.3c0 .1.1.4.4.5 1.6.9 3.8 2.1 4.4 2.1.2 0 .4-.1.6-.2l.1-.1c.3-.3.3-.8-.7-1.3-1.6-.9-4.4-1.6-4.4-1.6s-.4.2-.4.6zm52-111.8c-.2 0-.6.3-.9.9-.6 4.4-1.8 12.2-2.1 14.5-.1.7-.3 2-.6 3.5-.2 1.3-.4 2.7-.6 4v.1c-.4 2.1-.6 3.8-.7 4.3-.2.9.2 2.4 1.1 2.4.9.1 1.4-1.3 1.4-2.4 0-1.1.4-5.1.9-9.1.5-4.1 2-13.8 2.1-16 .1-1.3-.2-2.2-.6-2.2zm-5 18.9v-.2c0-.4-.3-.7-.9-.9-3.1-.5-4.8-.8-7.1-1.4-1.6-.4-3.8-.3-3.8.2 0 .1.2.4.9.6 2.4.9 7.8 2.4 9.4 2.6.8.1 1.4-.4 1.5-.9zm-12.6 3.9c0 .3.5.6 1.8.7 3.6.5 8.3.3 9 .3.4 0 1.1-.6 1.3-1.1v-.1c0-.2-.1-.4-.4-.4-2.8-.1-6.4-.4-8.6-.4-1.4 0-3.1.5-3.1 1zm17.9-1.6c.7.1 7.3.8 7.3.8s1.5-.7-.8-1.4-7.1-1-7.4-.8c-.4.2-.4 1.2.9 1.4zm0 3.2c1.6.9 7.1 2.9 7.7 2.9s1.6-.7 0-1.6c-1.6-.9-7.7-2.4-7.7-2.4s-.8.7 0 1.1zm9.7 67.4c0-.2-.1-.5-.4-.9-2.8-2.1-7.8-6.1-9.2-7.2-1.4-1.1-6.9-5.4-7.5-6-.6-.6-1.6-.8-2.1-.1 0 0 0 .1-.1.1 0 0 0 0 0 0v.1c-.1.6.6 1.3 1.2 1.8.7.4 3.4 2.3 5.9 4.2 2.6 1.9 8.8 6.8 10.3 7.8 1.1.5 1.9.6 1.9.2zM97 177.4c1.4-2.1 2.1-3.2 3.3-4.6s1.9-3.9.5-2.5-4.2 4.8-4.9 5.8c-.6 1.1.4 2.4 1.1 1.3zm-3-1.8c1-1.9 2.4-4.5 3.1-6.1.7-1.6.8-4-.8-1.6s-3 5.9-3.2 6.4c-.1.5.5 2.1.9 1.3zm-1.2 5c-.4.4-2.9 5-2.9 5s0 1.4 1.2 0 3.1-4.8 3-5.1c-.1-.4-.9-.7-1.3.1zm-2.2-1.2c-1.1.9-4.4 4.1-4.6 4.5-.2.4-.1 1.5 1.1.6 1.1-.9 4.2-4.7 4.2-4.7s-.2-.9-.7-.4zm-18.2 21.8c2.4 2.6 4.3 7 9.3 8.1 3.4.6 5.3-2.8 5.3-3.8s-2.5-1.6-5.6-2.4c-3-.9-8.7-4.4-9-1.9zm15.9 3.3c4.1-4.5 5.5-4.8 6.8-6.1 1.7-1.7 3.6-4.2 4.3-1.6.9 4 .9 5.8-2.2 7.8-2.8 1.7-5.1 3.1-6.6 2.4-1.5-.9-3.4-1.4-2.3-2.5zm-4.8 7.3c-2.2 1.9-4.3 2.3-4.3 3.3s2.9 4 5.6 1.9c2.6-2.1 1.4-4.1 1.4-5.3-.1-1.1-.8-1.3-2.7.1zm6.1-2.3c.9 2.1 1.5 4.6 4.5 4.7 3.1.1 4.4.1 4.8-1.6.4-1.8-1-2.3-3.6-3.3-2.7-1-5.5-1.8-5.7.2zm74-109.4h0m4.5 3.9c-1.9.8-3.6 1.1-4.9 1.2h-1c-2.5-.1-.4-2.5 1.3-5 0 0 0 0 0 0"/><path class="st24" d="M163.6 100.2s0 0 0 0c.2-.3.4-.5.5-.7 1.9-2.8 8.1-10.1 8.3-14 .1-3 .1-7.8-1.1-10.5-.4-.9-.9-1.5-1.4-1.9-.6.2-1.1.4-1.6.6-4.4 1.6-8.1 3.6-10.3 3.7-2.9 3.8-6 8.4-9.2 12.6l-3.7 4.8c-.9 1.2-1.9 2.3-2.7 3.3-1.3 1.5-2.5 2.7-3.5 3.6-.6.5-1.2 1-1.8 1.6l-.5.5c-1.3 1.2-3.3 3.2-3.3 3.2-1.6 1.7-3.5 3.5-5.5 5.1-2.6 2.1-5.5 3.9-8.8 4.8h-.1V97.3l.1-.1c2.8-2.5 14.7-12 14.7-12 1.7-1.4 3.3-2.6 4.7-3.8 1-.9 17.7-14.7 24.1-14.9s12.3 1.6 13 9.7c.4 6.5 1.6 14.8.4 20-.4 1.4-.9 2.5-1.5 3.4-1.7 2.1-4 3.5-6.2 4.4"/><path class="st24" d="M142.3 98.1c.4.9 1.5 2 3.1 2.9 1.1.6 2.3 1.1 3.7 1.4 0 0 0 0 0 0 .2.1.4.1.6.1.4.1.8.1 1.1.1 2.1.1 3.7.2 5.1.2 3.7-.1 5.7-.9 7.6-2.7m-7.6 2.8-11.5 18.2-11.1-14.1m48.3-2.2c.4.3.9.6 1.2.8 3.4 1.5 6.2 3.6 9 6.3 2.8 2.8 5.1 7.3 5.1 7.3h7.3l-.4 3 5.9 1.3v1.9l2.5 1 3 1.1-9.8 12m-29.6-43.2s2.9 6 5.8 8.5m-13.5-.8s0 0 0 0h0c5.1-.2 10.6-.1 15.6 8.6 1 1.8 2.3 4.3 3.8 7.2v.1c2.5 5 5.5 11.1 8.1 16.5v.1c2 4.1 3.9 7.9 5.3 10.4.1.2.2.3.3.5.9 1.5 1.5 2.5 1.8 2.7"/><path class="st24" d="M195.6 136.3c2.2 1.2 5.2 2.5 8.3 3.6.4.1.9.3 1.3.4 3.6 1.2 7.1 2.1 9.1 2.4 3.8.4 10.5 3.1 13.1 6.3.2.3.4.6.7.9 1.3 1.6 2.8 3.6 4.1 5.6 1.1 1.6 1.9 3.2 2.3 4.6v.1c.1.2.1.5.1.7v.1c.1 1 .4 2.3.7 3.8v.1c.3 1.5.4 3.2.3 4.8-.2 2.1-.9 4-2.9 5.1-4.8 2.9-20.2 2.7-21.8 2.9-.3 0-.6.2-1 .4-.1 0-.2.1-.2.1-1.9 1.2-4.8 4.1-4.8 4.1h-11.1l-4.1 3.7-2.2-1.4-3.8 1.9-.1.1-3.7 3.7-1.8 4.3-4.9-.6-3.4-.4h-.1l-4.6-.6-.6 4.3h0l-6.2.9-5.5-7.4c-5.6 2-10.7 4.9-14.5 4.4-2.9 3.7-5.9 9.8-6.2 9.8-.4 0-4.5-.4-4.5-.4l-2.9 2.7-3.8-2.1-.2-.1h-6.2l-7.3 4m27.6-72s.1 0 0 0c.8-1 1.5-1.9 2.2-2.7 1.4-1.7 2.7-3.1 3.6-3.8 3.9-3.1 7.8-7.3 9.6-2.2.8 2.4 1.8 6.9 2.7 11 0 .1 0 .2.1.3 0 0 0 0 0 0 .3 1.9.7 3.7 1 5.2 0 0 0 0 0 0 .4 2.2.6 3.6.6 3.6m-31.7 1.4c2.3-.8 7.5-7.4 11.9-12.8"/><path class="st24" d="M117.8 171.3h0c2.9-.9 6.7-3.1 10.7-6.5 0 0 0 0 0 0 2-1.7 4-3.7 5.9-6 0 0 0 0 0 0 1.1-1.3 2.1-2.6 3.1-4.1 1-1.5 1.9-3 2.8-4.7 0 0 0 0 0 0 1.4-2.6 2.7-5.6 3.8-8.7.8-2.3 1.4-4.6 1.9-7.1m-5.5 15.7 14.2-1 4.7-.3c10.6 14.7 21.1 28 35.2 33.8"/><path class="st24" d="M137.6 154.6h20.3s14.5 20.7 29.6 30.1"/><path class="st24" d="M134.5 158.7c7.5 1 20-.1 22-.1 0 0 0 .1.1.1 8.2 10.6 17.5 24.8 27 27.9h.1"/><path class="st24" d="M128.6 164.8c.9 0 2.4.1 4.2.1 0 0 0 0 0 0 3 .1 7.1.2 10.7.2h.1c3.1 0 6 0 8-.1h.1c1.2-.1 2-.1 2.3-.3 1.6 11.1 8.8 31.2 10.6 32.3h.1m-9.4-34.6s0 0 0 0c.1.3.4.8.6 1.3 2.4 5.3 13.2 29.5 13.8 29.6m-34.6-12.7-.1.1c-4.2 3-8.9 5.8-14.3 7.8-.4.1-.7.3-1.1.4-1.2.4-2.4.8-3.7 1.1h-.1c-.8.2-1.5.3-2.3.5"/><path class="st24" d="M142.5 174.4s0 .1 0 0c-1.4 1.3-2.9 2.7-4.5 4 0 0 0 0 0 0-.9.8-1.9 1.5-2.9 2.2m16.5-15.5c-1.4 1.5-3.5 3.8-6.1 6.5 0 0 0 0 0 0l-2.8 2.8-.1.1m-27.8 11.6s0 0 0 0 0 0 0 0c5.4-1.5 14.8-4.5 22.1-11.8l.1-.1c2.6-2.5 4.8-5.5 6.6-9.2"/><path class="st24" d="M132.8 164.9h0l1.3 3 1.5 3.4 1.3 3v.1"/><path class="st24" d="M134.1 167.9c-5 3.5-9.6 5.8-17 8.5m-.9 4.1c7.3-.9 17.9-7.7 19.3-9.2m15.4 0c.6 6.6 1.1 18.1 2 19.3m1.8-45.8 4.7-1.2s10 10.8 18.9 9.8c0 .1.1.3.1.4s.1.3.1.5c3.2 11.6 7.3 24 31.2 24h.2"/><path class="st24" d="M180 144.8c6.4 10.6 4.1 25.2 55.3 20"/><path class="st24" d="M180.9 139.7c.1 1.1 3 28.5 53.6 20.4"/><path class="st24" d="M181.1 138.6c4.7 4.4 8.1 8.9 13.4 12.3.8.5 1.5.9 2.4 1.4 6.9 3.6 17 5.3 35.3 3.3m-44.7-35.8 9.5-.5m6.8 3-6.8 11.1m5.9.2 6.8-8m2.6.9-7.3 9.8"/><path class="st24" d="M163.2 105.6c-3.3 1.1-7.9-.2-8.6 11.3-.2 4.3-.5 8.5-.8 12.1-.1 1.6-.2 3.1-.3 4.4-.1 1.1-.2 2.1-.2 3-.2 1.5-.2 2.6-.3 3.1v.3h.1c.5.2 2.7.9 6.6 1.3 4.8.4 12.1.3 21.5-2.5-.1.4-.1.7-.2 1.1v.1c-.4 2-.7 3.7-.9 5.1v.1c-.9 5.3-.9 5.7-.9 5.7s-.1 1.2.3 3c0 .1.1.2.1.3 1.9 6.4 11.1 19.3 56 15.8"/><path class="st24" d="M153.9 129c5.8-.1 18-1.7 20.1-2.2m-20.5 6.6c4-.3 17.2-1.9 22.1-3.8m-22.1 6.7c7.3 0 19.5-1.9 23.9-3.8"/><path class="st24" d="m169 118.7 5 8.1 1.6 2.7 1.8 3 3.7 6.1M127.9 112c3.1 5.4 7.9 14.1 12 14.9m-11.9-7c.5.7 1.1 1.5 1.6 2.2l.3.3c1.1 1.3 2.2 2.6 3.3 3.8 1.6 1.7 3 3 3.6 3.4m-17.8-5.7c2.6 2.8 6.3 7.4 13.4 7.6m-3.3-4.2h2.8v2.1h-2.8zm-7.2 3.1h2.8v2.1h-2.8zm4.5-7.2h2.8v2.1h-2.8zm21.5 16.9h2.8v2.1h-2.8zm-2.4 4.3h2.8v2.1h-2.8zm5.1 2.1h2.8v2.1h-2.8zm-7.4-5.7h-2.8v-2h2.8zm-4.9-6.2h2.8v2.1h-2.8zm-2.5 5.2h2.8v2.1h-2.8zm-5.2 6.7h2.8v2.1h-2.8zm2.6 4.5h2.8v2.1h-2.8zm-5.9 2.3h2.8v2.1h-2.8zm-4.4 39.4h-2.7v-2.1h2.7zm56.8-74.2h2.8v2.1h-2.8zm-34.2 53s0 .1 0 0c-1.8 6.7-4.2 17.9-7.1 23.5m-10.8 9.4c6-9.5 11.1-19.4 14.9-29.9v-.1m-21.9 31.1c.1-.1.2-.3.4-.5 8.1-11.1 15.2-18 17.1-26.5m-23.7 26.3c.1-.1.1-.2.2-.3l.1-.1c1.2-1.4 2.4-2.8 3.7-4.3 0 0 0 0 0 0 2.1-2.4 4.3-4.8 6.3-7.1 4.2-4.8 8-9.2 10.3-12.4 0 0 0-.1.1-.1m46.5-75.7c1.1 1.8 6.1 7.3 7 9.6m-69.7 25.7c5.4 0 13.1-1.6 15.9-3.1"/><path class="st22" d="M.5 152c.7.5 1.4.8 1.9.4.3-.2.4-.4.6-.6 0-.1.1-.1.1-.2.5-1.3-.9-3.4-2.6-5.9v6.3zm0 7.7h0c.4-.2.6-.4.9-.7.9-.9 1.5-1.8 1.5-2.5v-.2c0-.1-.1-.3-.2-.4-.3-.3-1.2-.2-2.1.4 0 0-.1 0-.1.1v3.3z"/><path class="st24" d="m1.9 112.8 5.6-2.7 6.6-3.1m-11.2 8.9 6.1-2.5 6.1-2.4"/><path class="st24" d="m3.3 100.6 4.2 9.5 1.5 3.3 3.7 8.5M1.9 63.5l1.6 2.4L16 85.3"/><path class="st24" d="m1.3 67.7 2.2-1.8L16 55.8M53.7 24c0 1.7-.5 3.1-1.1 3.1-.6 0-1.1-1.4-1.1-3.1 0-1.7.5-3.1 1.1-3.1.6 0 1.1 1.4 1.1 3.1z"/><ellipse class="st24" cx="51.7" cy="38.7" rx="1.1" ry="3.1"/><path class="st24" d="M96.5 46.8c0 1.7-.5 3.1-1.1 3.1-.6 0-1.1-1.4-1.1-3.1 0-1.7.5-3.1 1.1-3.1.6 0 1.1 1.4 1.1 3.1zm6 32c0 1.7-.5 3.1-1.1 3.1-.6 0-1.1-1.4-1.1-3.1 0-1.7.5-3.1 1.1-3.1.6 0 1.1 1.4 1.1 3.1zM84.8 62.5c0 1.7-.5 3.1-1.1 3.1-.6 0-1.1-1.4-1.1-3.1 0-1.7.5-3.1 1.1-3.1.7.1 1.1 1.5 1.1 3.1zm0 14.9c0 1.7-.5 3.1-1.1 3.1s-1.1-1.4-1.1-3.1c0-1.7.5-3.1 1.1-3.1s1.1 1.4 1.1 3.1zm13.5-53.1c0 1.7-.5 3.1-1.1 3.1-.6 0-1.1-1.3-1.1-3.1 0-1.7.5-3.1 1.1-3.1.6 0 1.1 1.4 1.1 3.1z"/><ellipse class="st24" cx="12.7" cy="36.9" rx=".9" ry="2.3"/><path class="st24" d="M49.2 60.5c0 1.7-.5 3.1-1.1 3.1-.6 0-1.2-1.4-1.2-3.1 0-1.7.5-3.1 1.1-3.1.6.1 1.2 1.5 1.2 3.1zm-1.1 21.9c0 1.7-.5 3.1-1.1 3.1-.6 0-1.2-1.4-1.2-3.1 0-1.7.5-3.1 1.1-3.1.6.1 1.2 1.4 1.2 3.1z"/><ellipse class="st24" cx="2.9" cy="72.7" rx="1.1" ry="3.1"/><path class="st24" d="M5.4 57.1c0 1.7-.5 3.1-1.1 3.1s-1.1-1.4-1.1-3.1c0-1.7.5-3.1 1.1-3.1s1.1 1.4 1.1 3.1zm4.8 12.1c-1.7 0-3.1-.5-3.1-1.1 0-.6 1.4-1.1 3.1-1.1 1.7 0 3.1.5 3.1 1.1 0 .6-1.4 1.1-3.1 1.1zM41 70c.1.1.1.2.1.4 0 .6-1.3 1.1-3.1 1.1-1.7 0-3.1-.5-3.1-1.1 0-.6 1.4-1.1 3.1-1.1 1.4-.2 2.6.2 3 .7z"/><ellipse class="st24" cx="58.9" cy="72.7" rx="3.1" ry="1.1"/><path class="st24" d="M92 72.7c-1.7 0-3.1-.5-3.1-1.1 0-.6 1.4-1.1 3.1-1.1 1.7 0 3.1.5 3.1 1.1-.1.6-1.5 1.1-3.1 1.1zM59.9 31.5c-1.7 0-3.1-.5-3.1-1.1 0-.6 1.3-1.1 3.1-1.1 1.7 0 3.1.5 3.1 1.1 0 .6-1.5 1.1-3.1 1.1zm26.7 3.3c-1.7 0-3.1-.5-3.1-1.1 0-.6 1.3-1.1 3.1-1.1s3.1.5 3.1 1.1c0 .6-1.4 1.1-3.1 1.1zm-41.4-3.6c-1.7 0-3.1-.5-3.1-1.1 0-.6 1.4-1.1 3.1-1.1 1.7 0 3.1.5 3.1 1.1 0 .6-1.4 1.1-3.1 1.1zM7.2 25c.1.1.1.2.1.3 0 .6-1.4 1.1-3.1 1.1-1.7 0-3.1-.5-3.1-1.1 0-.6 1.3-1.1 3.1-1.1 1.4 0 2.6.3 3 .8zm-2.9-5.9 4.2 4.8h0l1.5 1.8 2.8 3.2 6.3 7.2m-8.9-17 2.8 3.6 2.7 3.5 1.9 2.2"/><path class="st24" d="m4 31.6 6-5.9 3-3 3.5-3.6M2.8 38.6c.2-.3 5.6-5.6 10-9.7 1.1-1 2.1-2 2.9-2.8 1.5-1.4 2.5-2.3 2.5-2.3m63.2-2.6 10.8 13.7 2.8 3.5 11.3 14.3M84.8 19.1l10.4 13.4 2.8 3.6 10.7 13.7"/><path class="st24" d="m81.9 43 10.3-8.1 3-2.4 3.1-2.4 11.5-9.2m-4.3 9.3v-.1l7.4-5.8m-31 24.6L95 38.4l3-2.3 7.5-5.9M80.7 71.9l2.5-1.6 19.9-12.2h.1l2.8-1.7 6-3.7"/><path class="st24" d="m81.9 68.7 1.3 1.6 12.4 15.2 2.7 3.4m4.2 1.1 3.1-2.5.1-.1 1.5-1.3 5.7-4.7m.7-64.1.1 6.9v.1l.1 9.4.3 19 .1 9.2v.1l.1 2.2h0l.3 17.2.1 8.6v4.5m-1.2-60.8c-2.2-1.9-5.2-3-8-3.5h-.1c-.9-.2-1.8-.2-2.6-.2-1.7 0-3.1.3-4 1m14.9 5.3c-4.4-3.8-9.2-1.9-11.6 0m16.4-2.6.1-.1 10.5-4.8m-10.6 6.4s0 0 0 0c1.1-.5 11.4-5.2 13.6-5.2m-13.2 31.1 10.7-3.6m-10.6.9c.6-.3 7-2.3 8.7-2.5M119 90.8l10.1-5.1M119 88.1c.6-.3 11.6-4.8 13.3-5"/><path class="st24" d="M114.3 62s0-.1 0 0c-.7-.5-4.8-3.4-8.3-5.6-1.9-1.2-3.8-2.1-4.7-2.4m12.9 10.2c-1.6-.9-7-3.9-11.1-6.1 0 0 0 0 0 0-2.6-1.3-4.6-2.3-5.1-2.3M114.7 90c-.4-.1-3.8-1.9-7.5-3.8-3.6-1.9-7.3-3.8-8.3-4.7m15.4 10.2s-4.3-2.2-8.6-4.3h0c-3.3-1.6-6.6-3-8.2-3.4m16 10.5.7 45.6m.5-45.6.7 20.5.2 2.8v.1l.6 19.2m-2.7-20.5c-2.8-3.8-8.9-9.2-11.9-9.9m11.9 14c-3.7-4.6-7.4-9.4-11.9-11.7m13.8 6 3.5-.7"/><path class="st24" d="M115.4 117.9s0 0 0 0l.1-.1c.6-.5 2.6-2.1 3.3-1 0 0 0 0 0 0m-9.9 87.6v-.2l.7-15.7.8-18.9.1-2.1v-.1l1-22.6.1-2.3c-1.4-1.3-2.8-2.3-4.1-3.1-.1-.1-.2-.1-.3-.2-.1-.1-.1-.1-.2-.1-2.9-1.8-5.1-2.5-5.9-2.5m10.1 61.2v-.2l1-19.2v0l.4-8.1v-.1l.2-3.3v-.1l1.2-23.4.1-.1c.5-.4 3.5-2.6 4.3-2.6"/><path class="st24" d="M111.5 144.8s-.1 0 0 0c-.3-.2-3-1.8-3.8-2.3m2.8 25s0 0 0 0c-.9-.8-9-8.1-10.6-8.1m10.5 10.3c-3.2-1.2-15.3-8.1-16-10.3m18.5 7.5c1.1-.4 3.1-1.4 5.3-2.3 2.1-.9 4.3-1.7 5.7-1.9m-11 7.6c2-.9 3.7-1.9 5.2-2.7h0c2.3-1.3 4.1-2.3 5.3-2.5m-10.5 13.3s.8 3.1 1.9 7.5v.2c.3 1.2.6 2.5 1 3.9v.1c.8 3.2 1.7 6.7 2.6 10.1v.1c.4 1.5.8 3.1 1.3 4.6v.1c1.9 6.6 3.5 12.1 4.2 12.8m-11.9-29s.3 1.7.7 4.3v.1c.5 3 1.2 7.2 2 11.3v.1l.1.3c1.1 6.1 2.4 11.9 3.1 12.8m-2.5-200.4.8 77m-3.3 47.2c.5-.1 1.1-.5 1.6-.9 1.6-1.1 3.2-2.8 4.4-1.8m35.1 26s.7-1 1.4-2.4v-.1c.6-1.2 1.2-2.6 1.2-3.6v-.1m8.1-69.4c0 2-.4 6.4-.4 6.4s-1.1.1-2.4 0m-.8-11.5 2.3 2m4 1.6 3.2.3m-9.5-3.9c.3.8 1.3 1.4 2.3 2m4 1.6c1.3.3 2.6.6 3.2.2"/><path class="st23" d="M268.4 160.9V227"/><path class="st24" d="M161.6 109.5h3.8v2.5h-3.8zm-3.7 6.4h2.8v2.1h-2.8zm17.6-3.3h2.8v2.1h-2.8zm-10.1 3.3h2.8v2.1h-2.8zm19.9 11.6h2.8v2.1h-2.8zm-3.7 4.9h2.8v2.1h-2.8zm11.2 9.1h2.8v2.1h-2.8zm6.7 6.3v2.1h-2.8v-2.1zm8.2-2.9h2.8v2.1h-2.8zm8.6 5h3.7v2.8h-3.7zm-12 0h2.8v2.1h-2.8zM137.2 104l6.5 8.6 6-9.9"/></g></svg>