<?xml version="1.0" encoding="utf-8"?>
<!-- Generator: Adobe Illustrator 27.8.1, SVG Export Plug-In . SVG Version: 6.00 Build 0)  -->
<svg version="1.1" id="_レイヤー_1" xmlns="http://www.w3.org/2000/svg" xmlns:xlink="http://www.w3.org/1999/xlink" x="0px"
	 y="0px" viewBox="0 0 280 200" style="enable-background:new 0 0 280 200;" xml:space="preserve">
<style type="text/css">
	.st0{clip-path:url(#SVGID_00000035524167838755249440000016120039185557403311_);}
	.st1{clip-path:url(#SVGID_00000029725320162431379310000001956712824549113778_);fill:none;}
	.st2{clip-path:url(#SVGID_00000047743610127329334170000002323212899884956065_);}
	.st3{clip-path:url(#SVGID_00000056420050516492664710000012740879295454238635_);}
	.st4{fill:#EBF5F4;}
	.st5{fill:#333333;}
	.st6{fill:#415A47;}
	.st7{fill:#D6C34D;}
	.st8{fill:#D95347;}
	.st9{fill:#2E3A6A;}
	.st10{fill:#824E64;}
	.st11{fill:#AEAEB6;}
	.st12{fill:#3E6D4B;}
	.st13{fill:#62556F;}
	.st14{fill:#D64D43;}
	.st15{fill:#8D969D;}
	.st16{fill:#DDDDDD;}
	
		.st17{clip-path:url(#SVGID_00000035524167838755249440000016120039185557403311_);fill:none;stroke:#000000;stroke-linecap:round;stroke-linejoin:round;}
	
		.st18{clip-path:url(#SVGID_00000035524167838755249440000016120039185557403311_);fill:#8D969D;stroke:#000000;stroke-miterlimit:10;}
	.st19{fill:#F1D6CF;}
	.st20{fill:none;stroke:#000000;stroke-linecap:round;stroke-linejoin:round;}
	.st21{clip-path:url(#SVGID_00000035524167838755249440000016120039185557403311_);fill:#333333;}
</style>
<g>
	<defs>
		<rect id="SVGID_1_" width="275.8" height="199.6"/>
	</defs>
	<clipPath id="SVGID_00000065036034988422338780000000853228824748410799_">
		<use xlink:href="#SVGID_1_"  style="overflow:visible;"/>
	</clipPath>
	<g style="clip-path:url(#SVGID_00000065036034988422338780000000853228824748410799_);">
		<g>
			<defs>
				<rect id="SVGID_00000003079575685333240710000009829355798898999449_" width="275.8" height="199.6"/>
			</defs>
			<clipPath id="SVGID_00000132801531266472738200000014479506360893072783_">
				<use xlink:href="#SVGID_00000003079575685333240710000009829355798898999449_"  style="overflow:visible;"/>
			</clipPath>
			
				<rect style="clip-path:url(#SVGID_00000132801531266472738200000014479506360893072783_);fill:none;" width="275.8" height="199.6"/>
		</g>
	</g>
	<g style="clip-path:url(#SVGID_00000065036034988422338780000000853228824748410799_);">
		<defs>
			<rect id="SVGID_00000067198042124665473420000008400919322291260331_" width="275.8" height="199.6"/>
		</defs>
		<clipPath id="SVGID_00000150091340582524949760000004798841317886794642_">
			<use xlink:href="#SVGID_00000067198042124665473420000008400919322291260331_"  style="overflow:visible;"/>
		</clipPath>
		<g style="clip-path:url(#SVGID_00000150091340582524949760000004798841317886794642_);">
			<g>
				<g>
					<g>
						<defs>
							<rect id="SVGID_00000127760617189786478840000016260763557731206058_" width="275.8" height="199.6"/>
						</defs>
						<clipPath id="SVGID_00000178186734965225959810000007847331634872483995_">
							<use xlink:href="#SVGID_00000127760617189786478840000016260763557731206058_"  style="overflow:visible;"/>
						</clipPath>
						<g style="clip-path:url(#SVGID_00000178186734965225959810000007847331634872483995_);">
							<path class="st4" d="M104.7-63.8H-60.4v-5h165C104.7-68.6,104.7-66.9,104.7-63.8z"/>
							<path class="st5" d="M-43.4-39.4c0.7,0,1.2,1.4,1.2,3.2s-0.6,3.2-1.2,3.2s-1.2-1.4-1.2-3.2S-44-39.4-43.4-39.4z"/>
							<path class="st5" d="M-51.1-52.9c0.1,0.2,0.2,0.3,0.2,0.5c0,0.9-1.9,1.6-4.3,1.6s-4.3-0.7-4.3-1.6s1.9-1.6,4.3-1.6
								C-53.3-54.1-51.7-53.6-51.1-52.9z"/>
							<path class="st5" d="M-55.2-12.2c0.9,0,1.6,1.9,1.6,4.3s-0.7,4.3-1.6,4.3s-1.6-1.9-1.6-4.3S-56.1-12.2-55.2-12.2z"/>
							<path class="st6" d="M268.8,143.1c0.4,2.2,0.6,4.6,0.4,6.9c-63.1,5-76-13.1-78.5-22.1c-0.8-2.8-0.6-4.7-0.6-4.7
								s-0.2-0.5,1.2-8.1C200.2,129.9,196.9,150.4,268.8,143.1L268.8,143.1L268.8,143.1z"/>
							<path class="st7" d="M268.8,143.1L268.8,143.1c-71.9,7.3-68.6-13.2-77.6-28c0.3-1.9,0.8-4.3,1.3-7.2
								c0.1,1.5,4.2,40,75.1,28.6c0.1,0.4,0.2,0.7,0.2,1.1C268,138.9,268.4,140.9,268.8,143.1L268.8,143.1z"/>
							<path class="st8" d="M269.2,150c-0.3,2.9-1.3,5.6-4,7.2c-6.7,4-28.3,3.8-30.6,4.1c-0.4,0-0.9,0.3-1.4,0.6
								c-33.8,0.2-39.5-17.3-44-33.6l1.5-0.4C193.2,136.8,206.1,154.9,269.2,150z"/>
							<path class="st9" d="M264.4,130.1c1.5,2.3,2.6,4.5,3.2,6.4c-70.8,11.4-74.9-27.1-75.1-28.6l0,0c0.1-0.5,0.2-1,0.3-1.5
								c7.6,7.1,12.7,14.3,22.1,19.1C224.6,130.4,238.7,132.9,264.4,130.1L264.4,130.1z"/>
							<path class="st10" d="M220.9,118.4c-1.9-3.5-4.7-9-7.8-15.2c3.1,1.7,7.3,3.5,11.6,5c0.6,0.2,1.2,0.4,1.8,0.6
								c5.1,1.7,10,3,12.8,3.3c5.4,0.6,14.7,4.3,18.4,8.9c2,2.5,4.6,5.8,6.7,9c-25.7,2.8-39.8,0.4-49.5-4.6v-3.2h3.6v-2.9
								L220.9,118.4z M247.4,126.1v-3.9h-5.2v3.9H247.4z M234,118.2v-2.9h-3.9v2.9H234z M229.2,125.1v-2.9h-3.9v2.9H229.2z"/>
							<rect x="242.1" y="122.2" class="st11" width="5.2" height="3.9"/>
							<path class="st8" d="M224.6,83.5l8.3,1.8V88l3.5,1.4l4.2,1.6l-13.8,16.8l-2.2,0.3c-4.3-1.5-8.5-3.3-11.6-5
								c-3.8-7.6-7.9-16.2-11.4-23.2l13.4-0.8h10.2L224.6,83.5L224.6,83.5z"/>
							<rect x="230.1" y="115.2" class="st11" width="3.9" height="2.9"/>
							<path class="st10" d="M189.2,128.3c4.5,16.3,10.2,33.7,44,33.6c-2.7,1.6-7,6-7,6h-14.6c-19.7-8.2-34.5-26.8-49.3-47.4
								l-6.6,0.5v-0.5c0,0-0.4-2.1-0.9-5.1l0.9-0.2l6.6-1.7c0,0,14,15.1,26.5,13.7C189,127.4,189.1,127.9,189.2,128.3L189.2,128.3z"
								/>
							<rect x="225.3" y="122.2" class="st11" width="3.9" height="2.9"/>
							<path class="st10" d="M182.8,89.8c-2.9,0.6-19.9,2.9-28.2,3.1c0.4-5.1,0.8-11,1.1-17c0.8-16.2,7.3-14.2,12-15.8v-0.5
								c1.9-0.1,4.4-0.7,6.9-1.7c7-0.3,14.8-0.2,21.8,12.1c1.4,2.5,3.3,6,5.4,10.1c3.5,7,7.7,15.6,11.4,23.2
								c3,6.2,5.8,11.7,7.8,15.2l-2.4,0.9h-3.9v2.9h0.3v3.2c-9.4-4.8-14.5-12-22.1-19.1l-5.2-8.6l-2.5-4.2L182.8,89.8L182.8,89.8z
								 M213.1,113.3v-2.9h-3.9v2.9H213.1z M202.6,93.8v-2.9h-3.9v2.9H202.6z M197.4,100.5v-2.9h-3.9v2.9H197.4z M194.6,81.1v-2.9
								h-3.9v2.9H194.6z M188.8,72.8v-2.9h-3.9v2.9H188.8z M174.7,77.4v-2.9h-3.9v2.9H174.7z M170.8,69v-3.5h-5.4V69H170.8z
								 M164.2,77.4v-2.9h-3.9v2.9H164.2z"/>
							<polygon class="st11" points="218.5,119.3 218.5,122.2 214.9,122.2 214.6,122.2 214.6,119.3 							"/>
							<path class="st8" d="M193.5,58.9c0.6,0.5,1.2,0.9,1.7,1.1c4.7,2.1,8.7,5.1,12.6,8.9c3.9,3.9,7.2,10.3,7.2,10.3L201.7,80
								c-2.1-4.1-3.9-7.6-5.4-10.1c-7-12.2-14.8-12.4-21.8-12.1c3.1-1.3,6.3-3.3,8.7-6.2c1-1.2,1.7-2.8,2.1-4.7
								C185.4,47,189.4,55.4,193.5,58.9L193.5,58.9L193.5,58.9z"/>
							<rect x="209.2" y="110.4" class="st11" width="3.9" height="2.9"/>
							<path class="st9" d="M211.6,167.9h-1l-5.8,5.2l-3.1-2c-21.1-13.2-41.5-42.2-41.5-42.2h-28.4c1.4-2.1,2.7-4.3,4-6.6l0,0
								l19.9-1.4l6.6-0.5C177.1,141,191.9,159.6,211.6,167.9L211.6,167.9z"/>
							<rect x="198.7" y="90.8" class="st11" width="3.9" height="2.9"/>
							<path class="st7" d="M201.7,171.1l-5.4,2.6c-13.4-4.1-26.4-24.3-38-39.2c-2.8,0-20.4,1.5-30.9,0.1c1.5-1.8,2.9-3.7,4.3-5.8
								h28.4C160.2,128.8,180.6,157.9,201.7,171.1L201.7,171.1z"/>
							<rect x="193.5" y="97.6" class="st11" width="3.9" height="2.9"/>
							<path class="st12" d="M196.3,173.7l-5.3,5.2l-2.5,6l-6.9-0.9l-4.7-0.6v-0.1c-0.8-0.1-16-34.1-19.3-41.5
								c-0.4-0.9-0.9-1.9-0.9-1.9l0,0c0.9-1.7,1.7-3.7,1.7-5.2C170,149.4,182.9,169.5,196.3,173.7L196.3,173.7z"/>
							<rect x="190.8" y="78.2" class="st11" width="3.9" height="2.9"/>
							<path class="st6" d="M187.6,97.8l5.2,8.6c-13.2,3.8-23.4,4.1-30.1,3.5c-6.2-0.6-9.4-1.9-9.4-1.9s0.2-1.8,0.4-4.7h0.3
								C164.4,103.2,181.5,100.6,187.6,97.8L187.6,97.8z"/>
							<path class="st8" d="M191.2,115.1c-1.3,7.5-1.2,8.1-1.2,8.1s-0.2,1.9,0.6,4.7l-1.5,0.4c-0.1-0.4-0.2-0.8-0.3-1.3
								c-12.6,1.4-26.5-13.7-26.5-13.7l-6.6,1.7l-0.9,0.2c-0.4-2.1-0.9-4.7-1.4-7.4c0,0,3.2,1.3,9.4,1.9c6.7,0.6,16.9,0.4,30.1-3.5
								c-0.1,0.5-0.2,1-0.3,1.5l0,0C192,110.8,191.5,113.2,191.2,115.1L191.2,115.1z"/>
							<rect x="184.9" y="69.9" class="st11" width="3.9" height="2.9"/>
							<path class="st7" d="M185.1,93.6l2.5,4.2c-6.1,2.9-23.2,5.4-33.5,5.4h-0.3c0.1-1.2,0.2-2.6,0.3-4.2
								C159.7,98.6,178.2,96.3,185.1,93.6z"/>
							<path class="st5" d="M168.2,52.5c0.2-0.3,0.5-0.7,0.7-1c2.7-3.9,11.4-14.1,11.6-19.6c0.2-4.2,0.1-10.9-1.6-14.7
								c-0.5-1.2-1.2-2.1-2-2.6c-0.8,0.3-1.5,0.6-2.3,0.8c-6.1,2.3-11.3,5.1-14.4,5.2c-4,5.3-8.5,11.8-12.9,17.7l0,0
								c-1.8,2.4-3.5,4.7-5.1,6.8c-1.3,1.7-2.6,3.2-3.8,4.6c-1.8,2.1-3.5,3.8-4.9,5c-2.3,1.9-4.9,4.6-7.7,7.4l0,0
								c-2.3,2.4-4.9,4.9-7.7,7.1c-3.7,3-7.8,5.5-12.4,6.7v-4.7c0-5.6,0-11.2,0-16.9v-5.7c3.8-3.3,7.2-6.2,10.3-8.7
								c3.9-3.2,7.2-5.9,10.1-8.2c0.1-0.1,0.1-0.1,0.2-0.2c2.4-2,4.6-3.7,6.6-5.3c1.4-1.2,2.7-2.3,4-3.4
								c7.1-6.1,20.8-17.2,29.8-17.5c9-0.3,17.3,2.2,18.2,13.6c0.6,9.1,2.3,20.7,0.5,28c-0.5,1.9-1.2,3.5-2.1,4.7
								c-2.4,2.9-5.6,4.9-8.7,6.2c-2.6,1.1-5,1.6-6.9,1.7c-0.5,0-0.9,0-1.3,0C162.7,59.4,165.7,56,168.2,52.5L168.2,52.5L168.2,52.5
								z"/>
							<path class="st9" d="M182.8,89.8l2.3,3.8c-6.9,2.7-25.3,5-31,5.4c0.2-1.8,0.3-3.9,0.5-6.1C162.8,92.7,179.9,90.4,182.8,89.8
								L182.8,89.8z"/>
							<path class="st8" d="M176.9,183.1v0.1l-6.6-0.9l-0.8,6.1c-2.3-1-12.6-29.7-14.9-45.4c0,0,1-1.5,2-3.4l0,0c0,0,0.5,1,0.9,1.9
								C160.9,149.1,176.1,183,176.9,183.1L176.9,183.1z"/>
							<rect x="170.8" y="74.5" class="st11" width="3.9" height="2.9"/>
							<rect x="165.4" y="65.5" class="st11" width="5.4" height="3.5"/>
							<path class="st8" d="M153.2,179.3c-7.8,2.8-15,6.9-20.3,6.1c4.1-8,7.5-23.7,10-32.9c3.7-3.7,6.5-7,8.6-9.1
								c1.7-0.1,2.8-0.2,3.2-0.4c2.2,15.7,12.6,44.4,14.9,45.4l-8.7,1.2L153.2,179.3L153.2,179.3z"/>
							<path class="st10" d="M118.1,69.1c2.8-2.2,5.3-4.7,7.7-7.1l15.6,21.4l16.2-27.1v-0.1c5.2-0.1,8-1.2,10.7-3.8
								c-2.5,3.5-5.5,7-1.9,7.1c0.4,0,0.8,0,1.3,0V60c-4.6,1.6-11.1-0.3-12,15.8c-0.3,6-0.7,11.9-1.1,17c-0.2,2.2-0.3,4.3-0.5,6.1
								c-0.1,1.6-0.3,3-0.3,4.2c-0.3,2.9-0.4,4.7-0.4,4.7c-1.2-5.9-2.6-12.4-3.8-15.8c-2.4-7.1-7.9-1.2-13.5,3.1
								c-1.3,1-3.1,2.9-5.1,5.3c-1,1.2-2,2.5-3.1,3.8l0,0c-3.9,2-14.6,4.3-22.3,4.3h-0.1c0-0.6,0-1.3,0-1.9
								c0.1-9.6,0.2-19.9,0.2-30.7l0,0C110.3,74.6,114.4,72.1,118.1,69.1L118.1,69.1z M120.7,83.4l-0.8,1.4H116v2.9h3.9v2.8v2.9h3.9
								v-2.9l1.9-1.4C124,87.4,122.3,85.3,120.7,83.4L120.7,83.4z M113.7,97.9V95h-3.9v2.9H113.7z"/>
							<rect x="160.3" y="74.5" class="st11" width="3.9" height="2.9"/>
							<path class="st8" d="M131.15,56.52l3.87,5.24l5.08,5.14l7.6-10.6l0.2-0.7c0.8,0.2,1.6,0.3,2.4,0.3c2.9,0.2,5.2,0.3,7.2,0.3
								v0.1l-16.2,27.1L125.7,62l0,0"/>
							<path class="st12" d="M158.4,134.5c0,1.5-0.9,3.5-1.7,5.2c-1,1.9-2,3.4-2,3.4c-0.4,0.2-1.6,0.3-3.2,0.4
								c-2.7,0.1-6.8,0.1-11.3,0.1c-5.2-0.1-10.9-0.2-15.2-0.3c-2.5-0.1-4.6-0.1-5.9-0.2c2.8-2.4,5.6-5.2,8.3-8.5
								C138,136,155.5,134.5,158.4,134.5L158.4,134.5z"/>
							<path class="st10" d="M141.1,110l-1.5-0.5v-2.9h-3.9v-2.9h1v-2.9h-3.9l-1.8-0.3c2-2.4,3.8-4.3,5.1-5.3
								c5.5-4.3,11-10.2,13.5-3.1c1.2,3.4,2.6,9.9,3.8,15.8c0.5,2.7,1,5.3,1.4,7.4c0.6,3.1,0.9,5.1,0.9,5.1v0.5l-19.9,1.4l0,0
								C137.8,118.5,139.6,114.4,141.1,110L141.1,110z M153.9,120.4v-2.9H150v2.9H153.9z M150.1,111.4v-2.9h-3.9v2.9H150.1z
								 M146.7,117.5v-2.9h-3.9v2.9H146.7z"/>
							<rect x="150" y="117.5" class="st11" width="3.9" height="2.9"/>
							<rect x="146.2" y="108.5" class="st11" width="3.9" height="2.9"/>
							<path class="st8" d="M151.4,143.5c-2,2.1-4.9,5.3-8.6,9.1c-1.3,1.3-2.6,2.6-4.1,4l0,0c-2,1.9-4.1,3.8-6.5,5.7
								c-1.3,1.1-2.6,2.1-4,3.1l0,0c-5.9,4.3-12.6,8.3-20.3,11.2c-2.2,0.8-4.4,1.5-6.7,2.1c-0.5-2-1-3.8-1.4-5.6
								c7.5-2.1,20.6-6.3,30.9-16.5c3.6-3.5,6.8-7.8,9.4-12.9C144.6,143.6,148.7,143.6,151.4,143.5L151.4,143.5z"/>
							<rect x="142.8" y="114.5" class="st11" width="3.9" height="2.9"/>
							<path class="st10" d="M104.6,142.9c0.4-8.6,0.7-20.1,0.9-33.3l0,0c0-0.3,0-0.7,0-1h0.1c7.6,0,18.4-2.2,22.3-4.3l0,0
								c1.1-1.4,2.1-2.6,3.1-3.8l1.8,0.3v2.9h2.9v5.8h3.9l1.5,0.5c-1.5,4.4-3.3,8.5-5.3,12.2c-1.2,2.3-2.6,4.5-4,6.6
								c-1.4,2-2.9,4-4.3,5.8c-2.7,3.3-5.6,6.1-8.3,8.5c-5.7,4.9-11.1,7.9-15.1,9.2c0.1-1.5,0.3-3.3,0.4-5.2
								C104.4,145.7,104.5,144.3,104.6,142.9L104.6,142.9z M133.1,111v-2.9h-3.9v2.9H133.1z M129.5,126.6v-2.9h-3.9v2.9H129.5z
								 M125.9,120.4v-2.9H122v2.9H125.9z M121.2,129.8v-2.9h-3.9v2.9H121.2z"/>
							<path class="st12" d="M138.8,156.5c1.5-1.4,2.8-2.7,4.1-4c-2.5,9.2-5.9,25-10,32.9c-4,5.2-8.3,13.8-8.7,13.8
								s-6.3-0.6-6.3-0.6C126.2,185.3,133.4,171.4,138.8,156.5L138.8,156.5L138.8,156.5z"/>
							<rect x="135.7" y="106.6" class="st11" width="3.9" height="2.9"/>
							<path class="st5" d="M151.8-85.9c-9.2,11.6-18.4,17-47.1,17l0,0h-165v-8.5H99.1C114.6-77.8,137.1-75.5,151.8-85.9z"/>
							<polygon class="st11" points="136.7,100.8 136.7,103.7 135.7,103.7 132.8,103.7 132.8,100.8 							"/>
							<path class="st8" d="M125,143.2c4.3,0.1,10,0.3,15.2,0.3c-2.6,5.2-5.8,9.4-9.4,12.9l-1.9-4.3l-2.1-4.9L125,143.2z"/>
							<path class="st7" d="M132.3,162.2c2.3-1.9,4.5-3.8,6.5-5.7c-5.3,14.8-12.5,28.8-20.9,42.1l-4.1,3.8l-5.3-3
								C119.6,184,129.7,174.3,132.3,162.2z"/>
							<rect x="129.2" y="108.1" class="st11" width="3.9" height="2.9"/>
							<path class="st8" d="M125.7,19.4c2-0.1,7.4-0.4,7.1,6.8c-2,1.6-4.2,3.4-6.6,5.3c-0.1,0.1-0.1,0.1-0.2,0.2
								c-6,4.7-14.2,6.5-20.3,6.5l0,0c0-5.9-0.1-11.9-0.1-17.7C112.6,24.2,123.7,19.5,125.7,19.4z"/>
							<path class="st12" d="M128.9,152.2l1.9,4.3c-10.3,10.2-23.5,14.4-30.9,16.5v-0.1c0.7-2.7,1.4-5.3,2-7.8
								C112,163.8,126.8,154.3,128.9,152.2z"/>
							<path class="st9" d="M128.3,165.3c1.4-1,2.7-2.1,4-3.1c-2.6,12.1-12.7,21.8-24,37.2l-0.3-0.2h-1.3c-0.6-2.1-1.2-4.3-1.8-6.5
								c3-3.4,6-6.7,8.8-9.9C119.7,176.1,125.1,169.9,128.3,165.3L128.3,165.3L128.3,165.3z"/>
							<rect x="125.6" y="123.7" class="st11" width="3.9" height="2.9"/>
							<path class="st7" d="M126.8,147.4l2.1,4.9c-2.1,2-16.9,11.5-27.1,12.9c0.5-2,0.9-3.9,1.2-5.8
								C113.3,155.5,119.8,152.3,126.8,147.4z"/>
							<path class="st9" d="M125,143.2l1.8,4.1c-7,4.9-13.4,8.2-23.8,11.9c0.2-0.8,0.3-1.7,0.5-2.5c0.2-1.2,0.4-2.7,0.6-4.6
								c4-1.3,9.4-4.3,15.1-9.2C120.4,143.1,122.5,143.2,125,143.2z"/>
							<rect x="122" y="117.5" class="st11" width="3.9" height="2.9"/>
							<path class="st10" d="M125.7,89.1l-1.9,1.4h-3.9v-2.8v-2.9l0.8-1.4C122.3,85.3,124,87.4,125.7,89.1L125.7,89.1z"/>
							<rect x="119.9" y="90.5" class="st11" width="3.9" height="2.9"/>
							<path class="st10" d="M128.3,165.3c-3.2,4.6-8.6,10.8-14.5,17.5l-2.6-0.7v-2.9H108v-2.8C115.7,173.6,122.4,169.6,128.3,165.3
								z"/>
							<rect x="117.3" y="126.9" class="st11" width="3.9" height="2.9"/>
							<rect x="116" y="84.7" class="st11" width="3.9" height="2.9"/>
							<path class="st8" d="M126.1,31.7c-2.9,2.3-6.2,5-10.1,8.2l-10.3,2.5l0,0c0-1.4,0-2.8,0-4.1l0,0
								C111.8,38.2,120.1,36.4,126.1,31.7L126.1,31.7z"/>
							<path class="st8" d="M105.7,42.4l10.3-2.5c-3,2.5-6.4,5.4-10.3,8.7v5.7c0-3.2,0-6.5,0-9.8V42.4L105.7,42.4z"/>
							<path class="st10" d="M111.2,182.2l2.6,0.7c-2.8,3.2-5.8,6.6-8.8,9.9c-1.3-4.8-2.6-9.7-3.7-14.2c2.3-0.6,4.6-1.3,6.7-2.1v2.8
								h-0.7v2.9L111.2,182.2L111.2,182.2z"/>
							<rect x="109.8" y="94.9" class="st11" width="3.9" height="2.9"/>
							<path class="st9" d="M106.7,199.2h-7l-0.1-0.4c1.7-2,3.5-4,5.3-6.1C105.6,195,106.2,197.2,106.7,199.2z"/>
							<path class="st13" d="M105.7,71.2v1.1h-0.1l-4.9,0.9l-1-28.7h5.9c0,3.3,0,6.5,0,9.8C105.7,58.8,105.7,65.4,105.7,71.2z"/>
							<path class="st13" d="M105.7,72.3c0,1.2,0,2.4,0,3.6c-1.1-1.6-4.1,0.8-4.8,1.4l-0.1-4.1L105.7,72.3L105.7,72.3L105.7,72.3z"
								/>
							<path class="st13" d="M100.9,77.3c0.7-0.6,3.8-3.1,4.8-1.4l0,0c0,10.8-0.1,21.1-0.2,30.7l0,0c-1.7-1.4-4,0.9-6.1,2.5
								l-0.4-0.6l-0.9-64h1.8l1,28.7L100.9,77.3L100.9,77.3z"/>
							<path class="st14" d="M100.7-63.8h4c0.1,4.8,0.2,12.8,0.3,23c0,0.7,0,1.5,0,2.2c0.1,10.4,0.3,22.9,0.4,36.4c0,1.5,0,3,0,4.6
								c0,5.9,0.1,12,0.1,18.1c0,5.8,0.1,11.7,0.1,17.7c0,1.4,0,2.8,0,4.1v2.1h-5.9l-0.1-3.9v-2.4l-0.2-12l-0.3-24V-1l-0.2-13
								l-0.4-26.7L98.2-54L98-63.8H100.7L100.7-63.8z"/>
							<path class="st13" d="M99.3,109.1c2.2-1.6,4.5-3.9,6.1-2.5l0,0c0,0.6,0,1.3,0,1.9c0,0.3,0,0.7,0,1H105
								c-1.3,0.1-6.1,3.8-6.1,3.8l-1.7,32.8l-0.3,4.7l-0.6,11.4l-1.4,27.2c-1.1,3.2-2.2,6.3-3.3,9.3l1-22.2l1.1-26.5l0.1-3l1.5-35
								c-2.1-1.9-4.2-3.4-6.1-4.6c-0.1-0.1-0.2-0.1-0.3-0.2l-0.3,0.6c-2.3-0.9-8.8,2-12.5,4.2c-4,2.4-6,5.8-4.4,7.6
								c0.8,0.9,2.2,1.2,4,1.1l0,0l0.2,1.9c-1.4,0.2-2.3,0.7-2.5,1.4l-2.8-0.1c0.2-1.1-1.3-2.6-3.4-4.1c-1.8-1.3-4-2.5-5.9-3.3
								c-4.5-2-9.1-2.1-10.4-0.1c-0.3,0.4-0.4,0.7-0.4,1.1h-1.7V79.6h2c0,0.4,0.7,0.8,2.5,1c5.1,0.7,11.7,0.5,12.6,0.5
								c0.5,0,1.5-0.9,1.8-1.6v-0.1l1.9,0.3v0.1c-0.5,2.9-0.9,5.4-1,6c-0.3,1.3,0.3,3.3,1.6,3.4c1.3,0.2,1.9-1.8,1.9-3.3
								c0.1-1.5,0.6-7.1,1.3-12.8c0.7-5.7,2.8-19.4,3-22.5c0.1-1.9-0.3-3.2-0.9-3.2v-3.1H98l0.9,64L99.3,109.1L99.3,109.1z
								 M86.7,85.9c0.8,0,2.3-1,0-2.3c-2.2-1.2-10.8-3.4-10.8-3.4s-1,1,0,1.6C78.1,83,85.9,85.9,86.7,85.9z M86.1,78.4
								c0,0,2.1-1-1.1-1.9c-3.2-1-10-1.4-10.4-1.1c-0.5,0.3-0.4,1.8,1.3,1.9C76.9,77.5,86.1,78.4,86.1,78.4L86.1,78.4z"/>
							<path class="st13" d="M105.5,109.5L105.5,109.5c-0.2,13.2-0.5,24.7-0.9,33.4c-3.1,1.3-6,2.7-7.5,3.2l1.7-32.8
								c0,0,4.9-3.7,6.1-3.8L105.5,109.5L105.5,109.5z"/>
							<path class="st13" d="M104.6,142.9c-0.1,1.5-0.1,2.9-0.2,4.2c-2.1,1.1-4.5,2.5-7.3,3.8h-0.2l0.3-4.7
								C98.6,145.6,101.5,144.2,104.6,142.9L104.6,142.9z"/>
							<path class="st13" d="M104,152.2c-0.2,1.9-0.4,3.5-0.6,4.6c-0.1,0.8-0.3,1.6-0.5,2.5c-0.4,1.9-0.8,3.8-1.2,5.8
								c-0.6,2.5-1.2,5.1-2,7.8v0.1c-0.6,2.1-1.1,4.2-1.8,6.3c-0.3,1.2-0.7,2.4-1.1,3.6c-0.7,2.1-1.4,4.3-2.1,6.4l1.4-27.2l0.6-11.4
								h0.2c2.8-1.3,5.2-2.6,7.3-3.8C104.3,149,104.1,150.7,104,152.2z"/>
							<path class="st10" d="M105,192.8c-1.8,2-3.6,4.1-5.3,6.1c-1.1-5.7-2-11.6-2.8-15.9c0.4-1.2,0.7-2.4,1.1-3.6
								c1.1-0.2,2.2-0.5,3.3-0.7C102.4,183,103.7,188,105,192.8L105,192.8z"/>
							<path class="st14" d="M72.9,31.9l2.5-2.1c2.3,0.6,6.9,2.6,11.5,4.8l2.2-1.8c5.1,2.7,10.1,5.2,10.5,5.4v2.4l0.1,3.9H48.9V12.8
								H52l3.5-2.2L72.9,31.9L72.9,31.9z M57.7,20.5c0-2.4-0.7-4.3-1.6-4.3c-0.9,0-1.6,1.9-1.6,4.3s0.7,4.3,1.6,4.3
								S57.7,22.9,57.7,20.5z"/>
							<path class="st14" d="M89.2,32.8L87,34.6c-4.6-2.2-9.3-4.2-11.5-4.8L73,31.9L55.5,10.6l28-17.1c5.8,3,13.3,7.3,15.6,8.5
								l0.4,24.2l0.2,12C99.2,38,94.3,35.5,89.2,32.8z M82.6,22.5c0-2.4-0.7-4.3-1.6-4.3s-1.6,1.9-1.6,4.3s0.7,4.3,1.6,4.3
								S82.6,24.9,82.6,22.5z M72,12.2c0-0.9-1.9-1.6-4.3-1.6s-4.3,0.7-4.3,1.6c0,0.9,1.9,1.6,4.3,1.6C70.1,13.9,72,13.1,72,12.2z"
								/>
							<path class="st10" d="M99.7,198.8c-0.1,0.1-0.2,0.3-0.3,0.4l-10.2,5.6c0.8-2,1.6-4.1,2.4-6.3c1.1-3,2.2-6.1,3.3-9.3
								c0.7-2.1,1.4-4.3,2.1-6.4C97.6,187.2,98.6,193.1,99.7,198.8L99.7,198.8z"/>
							<path class="st14" d="M99-1.1V2c-2.2-1.3-9.8-5.5-15.6-8.5l3.9-2.4C92.6-5.7,98.7-1.3,99-1.1z"/>
							<path class="st14" d="M55.5,10.6L52,12.8h-3.1v-76.6h8.8v2.6l14.6,18.7l-4.2,3.3l4,5.1l4.1-3.3l10.5-8.3l0,0
								c3.9,0.6,8.2,2.2,11.2,4.9h0.4l0.4,26.7l0.2,13c-0.3-0.2-6.4-4.6-11.7-7.8l-3.9,2.4L55.5,10.6z M74.1-22.4
								c0-2.4-0.7-4.3-1.6-4.3s-1.6,1.9-1.6,4.3s0.7,4.3,1.6,4.3S74.1-20.1,74.1-22.4z M64.6-40.8c0-0.9-1.9-1.6-4.3-1.6
								S56-41.7,56-40.8s1.9,1.6,4.3,1.6S64.6-39.9,64.6-40.8z M57.8-0.3c0-2.4-0.7-4.3-1.6-4.3s-1.6,1.9-1.6,4.3S55.3,4,56.2,4
								S57.8,2.1,57.8-0.3z"/>
							<path class="st14" d="M98.2-54l0.2,13.1H98c-3.1-2.6-7.3-4.2-11.2-4.8L97.2-54H98.2L98.2-54z"/>
							<path class="st14" d="M72.3-42.4L57.7-61.2v-2.6H98l0.2,9.9h-1.1l-10.4,8.3l0,0l-10.5,8.3C76.3-37.4,72.3-42.4,72.3-42.4z
								 M76.7-53.9c0-2.4-0.7-4.3-1.6-4.3s-1.6,1.9-1.6,4.3s0.7,4.3,1.6,4.3S76.7-51.6,76.7-53.9z"/>
							<path class="st13" d="M93.8,146.9l-0.1,3l-1.1,26.5l-3.1-0.1c0-0.3-0.2-0.7-0.6-1.2C85,172.1,78,166.6,76,165
								s-9.7-7.6-10.5-8.4c-0.8-0.8-2.3-1.1-2.9-0.2c0,0,0,0.1-0.1,0.1l-1-0.2c3.4-8.7,4.9-21.2,5.5-31.6c1.7,0.2,3.1,0.2,3.5-0.4
								c0.1-0.1,0.1-0.3,0.2-0.4l2.8,0.1c-0.3,1.4,2.6,3.3,6.6,4.1c1.7,0.4,2.5-0.3,3.8-0.4c1.7-0.1,3.7,0.1,3.9-0.7
								c0.3-1.4-2.6-3.3-6.6-4.1c-2-0.4-3.8-0.5-5.2-0.3l-0.2-1.9c1.9-0.2,4.1-0.9,6.2-2.1c1.2-0.7,1.5-2.2,2.3-3
								c1.9-2,6.1-6.1,4.9-7.4c-0.1-0.1-0.2-0.2-0.3-0.2c-0.1,0-0.2-0.1-0.3-0.1l0.3-0.6c0.1,0,0.2,0.1,0.3,0.2
								c1.9,1.2,4,2.7,6.1,4.6L93.8,146.9L93.8,146.9z M79.6,154.4c1.6-2,2.6-5.5,0.7-3.5c-1.9,1.9-5.9,6.7-6.9,8.2s0.4,3.3,1.5,1.8
								C76.9,158,77.9,156.3,79.6,154.4z M75.1,149.8c1-2.2,1.1-5.6-1.1-2.2c-2.2,3.4-4.2,8.3-4.5,9c-0.3,0.6,0.6,2.9,1.2,1.8
								C72.1,155.5,74.1,152,75.1,149.8z"/>
							<path class="st13" d="M92.5,176.4l-1,22.2c-0.8,2.2-1.6,4.3-2.4,6.3c-4.5,11.1-9,19.6-12.3,21.7c-2.7,1.7-4.6,2.7-6,3.3
								c-14.9,1-32.9-13.1-58.1-22.2l0,0c0.6-0.5,10.4-9.1,21.1-19.3c2.5-2.3,5-4.8,7.5-7.2c0.2-0.1,0.3-0.3,0.5-0.4
								c2.6-2.6,5.1-5.1,7.4-7.6c4-4.2,7.3-8.1,9.5-11.1c1.1-1.6,2.1-3.6,2.9-5.8l1,0.2v0.1c-0.2,0.9,0.8,1.9,1.7,2.5
								c1,0.6,4.7,3.2,8.3,5.9c3.7,2.7,12.4,9.5,14.4,10.9c1.5,0.9,2.5,1.1,2.5,0.4L92.5,176.4L92.5,176.4z M75.1,198.8
								c4.4-2.7,4.4-5.3,3.1-10.9c-0.9-3.6-3.6-0.1-6,2.3c-1.8,1.8-3.8,2.2-9.5,8.6c-1.5,1.5,1.2,2.2,3.3,3.3
								C67.9,203.2,71.2,201.2,75.1,198.8z M77.5,210.2c0.6-2.4-1.4-3.2-5.1-4.7c-3.7-1.4-7.8-2.6-8,0.3c1.2,2.9,2.1,6.4,6.3,6.6
								C75.1,212.6,76.9,212.6,77.5,210.2L77.5,210.2z M66.4,172.2c1.7-1.9,4.3-6.7,4.2-7.1c0-0.5-1.1-1-1.7,0.2
								c-0.5,0.6-4.1,7-4.1,7S64.7,174.1,66.4,172.2z M66.9,164.1c0,0-0.4-1.2-1.1-0.6c-1.6,1.2-6.1,5.7-6.4,6.3
								c-0.3,0.6-0.1,2.1,1.6,0.9C62.6,169.5,66.9,164.1,66.9,164.1z M57.5,216.3c3.7-2.9,2-5.8,2-7.4c0-1.6-1-1.9-3.7,0
								c-3.1,2.7-6.1,3.3-6.1,4.6C49.8,214.9,53.8,219.2,57.5,216.3z M60.8,200.1c0-1.5-3.5-2.2-7.8-3.4s-12.3-6.1-12.7-2.6
								c3.3,3.7,6,9.8,13.1,11.4C58,206.3,60.8,201.6,60.8,200.1z"/>
							<path class="st15" d="M89.1,108.1c1.1,1.3-3,5.5-4.9,7.4c-0.8,0.8-1.1,2.3-2.3,3c-2.1,1.2-4.3,2-6.2,2.1l0,0
								c-1.8,0.2-3.2-0.2-4-1.1c-1.6-1.8,0.4-5.2,4.4-7.6c3.7-2.2,10.1-5.1,12.5-4.2c0.1,0,0.2,0.1,0.3,0.1
								C88.9,107.9,89,108,89.1,108.1L89.1,108.1z"/>
							<path class="st15" d="M89.5,176.3c0,0.7-1.1,0.5-2.5-0.4c-2-1.3-10.8-8.1-14.4-10.9c-3.7-2.7-7.3-5.3-8.3-5.9
								c-0.9-0.6-2-1.6-1.7-2.5v-0.1c0,0,0-0.1,0.1-0.1c0.5-0.9,2.1-0.6,2.9,0.2c0.8,0.8,8.5,6.8,10.5,8.4c2,1.6,9,7.1,12.9,10.1
								C89.3,175.6,89.5,176,89.5,176.3z"/>
							<path class="st15" d="M81.1,122.9c3.9,0.8,6.9,2.7,6.6,4.1c-0.2,0.8-2.2,0.6-3.9,0.7c-1.3,0.1-2,0.7-3.8,0.4
								c-3.9-0.8-6.9-2.7-6.6-4.1c0.1-0.7,1.1-1.2,2.5-1.4C77.3,122.4,79.2,122.5,81.1,122.9L81.1,122.9z"/>
							<path class="st15" d="M86.7,83.6c2.3,1.3,0.8,2.3,0,2.3s-8.6-2.8-10.8-4.1c-1-0.6,0-1.6,0-1.6S84.5,82.3,86.7,83.6z"/>
							<path class="st15" d="M85,76.5c3.2,1,1.1,1.9,1.1,1.9s-9.2-0.9-10.2-1.1c-1.6-0.2-1.7-1.6-1.3-1.9
								C75.1,75.1,81.9,75.5,85,76.5L85,76.5z"/>
							<path class="st5" d="M81,18.2c0.9,0,1.6,1.9,1.6,4.3s-0.7,4.3-1.6,4.3s-1.6-1.9-1.6-4.3S80.1,18.2,81,18.2z"/>
							<path class="st15" d="M80.3,150.9c1.9-1.9,0.9,1.6-0.7,3.5s-2.7,3.6-4.6,6.5c-1.1,1.5-2.5-0.4-1.5-1.8
								C74.4,157.6,78.4,152.8,80.3,150.9z"/>
							<path class="st15" d="M78.1,187.9c1.3,5.6,1.3,8.2-3.1,10.9c-3.9,2.4-7.1,4.4-9.2,3.3c-2-1.1-4.8-1.8-3.3-3.3
								c5.7-6.3,7.7-6.7,9.5-8.6C74.5,187.8,77.3,184.3,78.1,187.9L78.1,187.9z"/>
							<path class="st15" d="M72.4,205.5c3.7,1.4,5.7,2.2,5.1,4.7c-0.6,2.4-2.4,2.5-6.7,2.3c-4.3-0.2-5.1-3.7-6.3-6.6
								C64.7,202.9,68.7,204.1,72.4,205.5L72.4,205.5z"/>
							<path class="st15" d="M75.5,47.6c0.6,0,1,1.2,0.9,3.2c-0.2,3.1-2.3,16.8-3,22.5c-0.7,5.7-1.3,11.3-1.3,12.8s-0.6,3.5-1.9,3.3
								c-1.3-0.1-1.9-2.1-1.6-3.4c0.1-0.6,0.6-3.1,1-6v-0.1c0.3-1.8,0.6-3.8,0.9-5.6c0.3-2.1,0.6-3.9,0.8-4.9
								c0.5-3.2,2.2-14.2,3.1-20.3C74.8,48,75.2,47.6,75.5,47.6z"/>
							<path class="st5" d="M75.1-58.2c0.9,0,1.6,1.9,1.6,4.3s-0.7,4.3-1.6,4.3s-1.6-1.9-1.6-4.3S74.2-58.2,75.1-58.2z"/>
							<polygon class="st14" points="72.3,-42.4 76.3,-37.4 72.1,-34.1 68.1,-39.1 							"/>
							<path class="st13" d="M75.5,44.5v3.1c-0.3,0-0.8,0.4-1.2,1.3c-0.8,6.1-2.5,17.1-3,20.3c-0.2,1-0.4,2.8-0.8,4.9
								c-0.3,1.8-0.6,3.8-0.9,5.6l-1.9-0.3c0-0.3-0.1-0.6-0.6-0.6c-3.9-0.2-9-0.6-12-0.6c-2,0-4.2,0.7-4.2,1.4h-2V44.5
								C48.9,44.5,75.5,44.5,75.5,44.5z M68.6,73.8c0-0.5-0.4-1-1.3-1.2c-4.4-0.7-6.8-1.1-9.9-2C55.1,70,52,70.2,52,70.9
								c0,0.2,0.3,0.5,1.2,0.8c3.3,1.2,10.9,3.3,13.2,3.7C67.7,75.5,68.6,74.6,68.6,73.8z"/>
							<path class="st15" d="M74,147.5c2.2-3.4,2.1,0,1.1,2.2s-3,5.8-4.4,8.5c-0.6,1.1-1.5-1.2-1.2-1.8
								C69.8,155.9,71.8,150.9,74,147.5z"/>
							<path class="st5" d="M72.5-26.7c0.9,0,1.6,1.9,1.6,4.3s-0.7,4.3-1.6,4.3s-1.6-1.9-1.6-4.3S71.6-26.7,72.5-26.7z"/>
							<path class="st5" d="M67.8,10.6c2.4,0,4.3,0.7,4.3,1.6c0,0.9-1.9,1.6-4.3,1.6s-4.3-0.7-4.3-1.6
								C63.5,11.3,65.4,10.6,67.8,10.6z"/>
							<path class="st15" d="M67.3,119.7c2.1,1.5,3.6,3,3.4,4.1c0,0.2-0.1,0.3-0.2,0.4c-0.4,0.6-1.8,0.6-3.5,0.4
								C67.1,122.9,67.2,121.3,67.3,119.7L67.3,119.7z"/>
							<path class="st15" d="M70.6,165c0.1,0.4-2.5,5.2-4.2,7.1c-1.7,1.9-1.7,0-1.7,0s3.7-6.4,4.1-7C69.5,164.1,70.6,164.6,70.6,165
								z"/>
							<path class="st13" d="M17.4,230.6c-12.7,4.1-29.4,11.9-53.7,2.8c-8.6-3.1-24.1-1.8-24.1-1.8c9.2-8.6,18.1-15.2,26-21.3
								c3.6-2.8,7-5.4,10.1-8.1c1.2-1,2.4-2.1,3.5-3.1l0.1-0.1l0.8,0.9L-20,200c-0.3,0.3-0.1,0.6,1.2,0.7c3.5,0.2,11.4,0.2,13.7,0
								c1.1-0.1,1.7-0.8,1.8-1.5c0-0.1,0-0.2,0-0.3l2,0.3l0,0c-0.7,4.7-1.7,10.7-1.9,11.7c-0.3,1.3,0.3,3.3,1.6,3.5s1.9-1.8,1.9-3.3
								c0-1,0.3-3.6,0.6-6.9l1.7,0.2c0,0.2,0.1,0.5,0.5,0.7c2.3,1.3,5.3,2.9,6.2,2.9c0.3,0,0.6-0.1,0.8-0.3l2.6,0.1l0,0
								c25.3,9.1,43.2,23.1,58.1,22.2c-2.5,1.1-3.2,0.7-3.2,0.7C58.3,233.7,29.8,232.3,17.4,230.6L17.4,230.6z M-5.1,206.5
								c0.8-0.2,2.1-2.9,0.6-2.6c-3.8,0.8-8.9,1.6-11.8,2.3c-3,0.7-6.2,3.3-1.1,2.8C-12.4,208.5-5.9,206.7-5.1,206.5z"/>
							<path class="st15" d="M67.2,78.8c0.5,0,0.6,0.3,0.6,0.6v0.1c-0.2,0.7-1.2,1.6-1.8,1.6c-0.8,0-7.5,0.2-12.6-0.5
								c-1.8-0.3-2.5-0.6-2.5-1c0-0.7,2.3-1.4,4.2-1.4C58.2,78.2,63.3,78.6,67.2,78.8L67.2,78.8z"/>
							<path class="st15" d="M67.4,72.6c0.9,0.2,1.3,0.7,1.3,1.2c0,0.8-1,1.7-2.3,1.5c-2.2-0.4-9.9-2.5-13.2-3.7
								C52.4,71.3,52,71,52,70.8c0-0.6,3.1-0.9,5.5-0.2C60.6,71.5,63,71.8,67.4,72.6z"/>
							<path class="st15" d="M67.3,119.7c-0.1,1.6-0.2,3.2-0.3,4.9c-1.7-0.2-3.6-0.6-5-0.8c-1.5-0.2-6.8-1.4-8-2.6
								c-1.6-1.5-3.4-2.6-3.4-3.9c0-0.3,0.1-0.7,0.4-1.1c1.2-1.9,5.9-1.9,10.4,0.1C63.3,117.3,65.5,118.5,67.3,119.7z"/>
							<path class="st15" d="M65.8,163.5c0.7-0.5,1.1,0.6,1.1,0.6s-4.4,5.4-5.9,6.6c-1.6,1.2-1.8-0.3-1.6-0.9
								C59.7,169.2,64.2,164.6,65.8,163.5z"/>
							<path class="st13" d="M67,124.7c-0.7,10.4-2.2,22.9-5.5,31.6c-0.9,2.2-1.8,4.2-2.9,5.8c-2.1,3.1-5.5,6.9-9.5,11.1l-0.2-0.1
								v-55.7h1.7c0,1.4,1.8,2.4,3.4,3.9c1.2,1.2,6.5,2.3,8,2.6C63.4,124,65.3,124.5,67,124.7z M64,128.8c0-0.9,0.2-4.7-2.7-3.1
								c-3.9,2.2-9.3,5.2-5.1,5.6C60.4,131.8,63.9,129.8,64,128.8L64,128.8z"/>
							<path class="st15" d="M61.3,125.7c2.8-1.6,2.7,2.2,2.7,3.1s-3.5,2.9-7.8,2.5C52,130.9,57.4,127.9,61.3,125.7L61.3,125.7z"/>
							<path class="st5" d="M60.3-42.5c2.4,0,4.3,0.7,4.3,1.6s-1.9,1.6-4.3,1.6S56-39.9,56-40.8S57.9-42.5,60.3-42.5z"/>
							<path class="st15" d="M59.6,209c0,1.6,1.6,4.5-2,7.4c-3.7,2.9-7.8-1.4-7.8-2.7s3.1-1.9,6.1-4.6C58.5,207,59.6,207.3,59.6,209
								z"/>
							<path class="st15" d="M53,196.7c4.3,1.2,7.8,1.8,7.8,3.4c0,1.5-2.8,6.2-7.4,5.4c-7-1.6-9.8-7.7-13.1-11.4
								C40.7,190.6,48.8,195.5,53,196.7z"/>
							<path class="st5" d="M56.2-4.5c0.9,0,1.6,1.9,1.6,4.3S57.1,4,56.2,4s-1.6-1.9-1.6-4.3S55.3-4.5,56.2-4.5z"/>
							<path class="st5" d="M56.1,16.3c0.9,0,1.6,1.9,1.6,4.3s-0.7,4.3-1.6,4.3s-1.6-1.9-1.6-4.3S55.2,16.3,56.1,16.3z"/>
							<path class="st4" d="M48.9,173l0.2,0.1c-2.3,2.5-4.8,5-7.4,7.6c-0.2,0.1-0.3,0.3-0.5,0.4l-0.9-0.9v-244h8.6V173L48.9,173z"/>
							<path class="st16" d="M40.3,180.3l0.9,0.9c-2.5,2.4-5,4.9-7.5,7.2l-0.5-0.5V-63.8h7C40.3-63.8,40.3,180.3,40.3,180.3z"/>
							<path class="st13" d="M3.7,160.7L2,160.5c0-0.1,0.1-0.2,0.1-0.3c0.5-2.2-1.1-5.7-4.3-8.5c-3.8-3.4-8.3-4.6-10.1-2.6
								c-0.5,0.6-0.7,1.1-0.7,1.7h-2.3V44.5h48.6v143.4l0.5,0.5c-10.6,10.1-20.5,18.8-21.1,19.3l-2.6-0.1c0.6-0.4,0.8-1.1-0.8-2
								c-2.2-1.2-6.2-2.3-6.2-2.3s-0.5,0.5-0.5,0.9L1,204.1c0.2-1.8,0.4-3.8,0.7-5.9c0.7-5.7,2.8-19.4,3-22.4c0.2-3.1-0.9-4.4-2-1.8
								c-1,6-2.7,17-3.2,20.2c-0.2,1-0.4,2.8-0.8,5l-2-0.3c0-0.6-0.5-1.2-1.6-1.1c-4.4,0.5-6.8,0.8-10.1,0.8c-1.9,0-4.2,0.7-4.9,1.3
								l-0.8-0.9c1.9-1.8,3.7-3.6,5.3-5.5c2-2.3,3.8-4.6,5.3-7.1C-1.4,172.3,0.6,169.5,3.7,160.7z M23,74.5c2.4-1.3,7.7-4,7-5.5
								c-1-2.2-9-1.4-13.6-0.4s-7.5,3.7-6.6,5.9c1,2.2,5.5,3.2,10,2.2C21.3,76.3,22,75,23,74.5z M24.6,168c0.5-2.2-3.1-4.9-8.1-6
								s-9.4-0.3-9.9,1.9s3.1,4.9,8.1,6c2.2,0.5,3.2-0.5,4.9-0.7C21.7,168.9,24.3,169.2,24.6,168z M21.9,122.7
								c2.2,0.8,3.6,0.4,1.8-1.2c-1.8-1.6-9.6-6.4-10.9-6.5s-2.5,0.4-1.1,2.3C12.3,118.1,19.7,121.9,21.9,122.7z M20.1,153.9
								c2.2-2.2,3.8-3.8,2.8-5.4c-1.3-2.3-6-2.1-10.4,0.5s-6.9,6.5-5.6,8.8s6,2.1,10.4-0.5C18.6,156.5,19.2,154.8,20.1,153.9z
								 M20.1,126.6c1.5,0.5,2.3,0.9,1.4-0.7s-8.6-6.7-9.9-7.2s-1.7,0.4-1.4,1.3C10.4,120.8,18.6,126.1,20.1,126.6z M13.2,84.9
								c0.7-0.8-0.4-3.1-2.6-5.2s-4.5-3.1-5.3-2.3c-0.7,0.8,0.4,3.1,2.6,5.2c0.9,0.9,1.7,0.8,2.5,1.2C11.6,84.4,12.8,85.3,13.2,84.9
								z M8.6,122.9c0-3.2,4.7-21.6,4.4-23.6s-0.9-4-2.3-1.1c-0.4,3.1-3.5,17.8-5.1,25.1c-0.5,2.1-1.3,2.3-1.4,3.9
								c-0.1,2.2,0.2,2.5,2.1,2.8c2.3,0.3,2.4-1.6,2.4-2.4C8.6,125.7,8.6,124.9,8.6,122.9z M9.1,202c0,0,1.9,0.3,0.1-1.8
								s-5-3.8-5.5-3.8s-1.1,1.1,0,1.9C4.4,198.9,9.1,202,9.1,202z M4.7,75.5c2.4-0.6,1-7.5-0.8-12.1s-5.3-7.8-7.8-7.2
								c-2.4,0.6-1.6,3-1.5,5.8c0,1.7,3.1,6.2,4.1,7.4C0.4,71.4,3.2,75.9,4.7,75.5z M4.4,120.7c1.1-1-0.8-1.3-2.3-0.9
								c-1.5,0.5-6.7,2-13.6,4.8c-2.4,2,2.1,1.2,4.3,0.5C-5.1,124.5,3.4,121.7,4.4,120.7L4.4,120.7z M3.4,116.7
								c1.2-0.9-0.5-1.5-2.1-1.2c-1.6,0.2-7,0.9-14.2,2.5c-2.7,1.6,1.9,1.5,4.1,1.2C-6.6,118.8,2.2,117.5,3.4,116.7L3.4,116.7z
								 M1.7,81.8c0.1-0.9,0.6-4.7-2.3-3.4c-4.1,1.8-9.8,4.2-5.6,5.1C-2.1,84.3,1.6,82.7,1.7,81.8z"/>
							<path class="st14" d="M-0.2,12.3l5.8,7.4l4.8-3.7L30.8,0.2h2.4v44.3h-48.6V-3.1h3.1l9.7,12.3C-2.6,9.2-0.2,12.3-0.2,12.3z
								 M25.7,13.9c0-0.9-1.9-1.6-4.3-1.6s-4.3,0.7-4.3,1.6c0,0.9,1.9,1.6,4.3,1.6S25.7,14.8,25.7,13.9z M6.3,27.6
								c0-2.4-0.7-4.3-1.6-4.3S3,25.2,3,27.6s0.7,4.3,1.6,4.3S6.3,30,6.3,27.6z M-3.5,10.5c0-0.2-0.1-0.3-0.2-0.5
								c-0.5-0.7-2.2-1.2-4.1-1.2c-2.4,0-4.3,0.7-4.3,1.6s1.9,1.6,4.3,1.6S-3.5,11.4-3.5,10.5z"/>
							<path class="st14" d="M4.6,8.6l-4.8,3.7l-2.4-3.1l-9.7-12.3h-3.1v-60.7h48.6v64h-2.4L10.4,16L4.6,8.6z M27.1-45.4
								c0-0.9-1.9-1.6-4.3-1.6s-4.3,0.7-4.3,1.6s1.9,1.6,4.3,1.6S27.1-44.5,27.1-45.4z M14.1-54.4c0-2.4-0.7-4.3-1.6-4.3
								c-0.9,0-1.6,1.9-1.6,4.3s0.7,4.3,1.6,4.3S14.1-52,14.1-54.4z M12.9-33.7c0-2.4-0.7-4.3-1.6-4.3c-0.9,0-1.6,1.9-1.6,4.3
								s0.7,4.3,1.6,4.3C12.2-29.4,12.9-31.3,12.9-33.7z M7.8-3.1c0-2.4-0.7-4.3-1.6-4.3s-1.7,2-1.7,4.3s0.7,4.3,1.6,4.3
								S7.8-0.7,7.8-3.1z M6.5-45.9c0-0.9-1.9-1.6-4.3-1.6s-4.3,0.7-4.3,1.6s1.9,1.6,4.3,1.6S6.5-45,6.5-45.9z"/>
							<path class="st15" d="M30,69c0.7,1.6-4.6,4.3-7,5.5c-1,0.5-1.8,1.8-3.1,2.1c-4.6,1-9.1,0.1-10-2.2c-1-2.2,2-4.9,6.6-5.9
								C21,67.6,29.1,66.8,30,69z"/>
							<path class="st5" d="M22.8-47c2.4,0,4.3,0.7,4.3,1.6s-1.9,1.6-4.3,1.6s-4.3-0.7-4.3-1.6S20.4-47,22.8-47z"/>
							<path class="st5" d="M21.4,12.2c2.4,0,4.3,0.7,4.3,1.6s-1.9,1.6-4.3,1.6s-4.3-0.7-4.3-1.6S19,12.2,21.4,12.2z"/>
							<path class="st15" d="M16.5,162c5,1.1,8.6,3.8,8.1,6c-0.3,1.2-2.9,0.9-5,1.2c-1.7,0.2-2.7,1.2-4.9,0.7c-5-1.1-8.6-3.8-8.1-6
								S11.5,160.8,16.5,162z"/>
							<path class="st15" d="M23.7,121.5c1.8,1.6,0.5,2-1.8,1.2s-9.7-4.6-10.3-5.4c-1.4-1.8-0.3-2.4,1.1-2.3
								C14.1,115.1,21.9,119.9,23.7,121.5z"/>
							<path class="st15" d="M22.9,148.5c0.9,1.6-0.6,3.2-2.8,5.4c-0.9,0.9-1.5,2.6-2.8,3.4c-4.4,2.6-9.1,2.8-10.4,0.5
								s1.2-6.2,5.6-8.8C17,146.4,21.6,146.2,22.9,148.5z"/>
							<path class="st15" d="M21.5,125.9c0.9,1.6,0.1,1.2-1.4,0.7s-9.6-5.8-9.9-6.5c-0.3-0.9,0-1.8,1.4-1.3
								C12.9,119.2,20.6,124.3,21.5,125.9z"/>
							<path class="st5" d="M12.5-58.7c0.9,0,1.6,1.9,1.6,4.3c0,2.4-0.7,4.3-1.6,4.3c-0.9,0-1.6-1.9-1.6-4.3
								C10.8-56.7,11.6-58.7,12.5-58.7z"/>
							<path class="st15" d="M10.6,79.7c2.2,2.1,3.3,4.4,2.6,5.2c-0.4,0.4-1.6-0.5-2.7-1.1c-0.9-0.4-1.6-0.3-2.5-1.2
								c-2.2-2.1-3.3-4.4-2.6-5.2C6.1,76.6,8.5,77.6,10.6,79.7z"/>
							<path class="st15" d="M13,99.3c0.3,2-4.4,20.3-4.4,23.6c0,2,0,2.9,0.1,4.6c0,0.9-0.1,2.7-2.4,2.4c-1.9-0.2-2.3-0.6-2.1-2.8
								c0.1-1.6,1-1.8,1.4-3.9c1.6-7.3,4.7-22,5.1-25.1C12.1,95.3,12.7,97.3,13,99.3z"/>
							<path class="st5" d="M11.3-38c0.9,0,1.6,1.9,1.6,4.3s-0.7,4.3-1.6,4.3c-0.9,0-1.6-1.9-1.6-4.3S10.4-38,11.3-38z"/>
							<polygon class="st14" points="4.6,8.6 10.4,16 5.6,19.7 -0.2,12.3 							"/>
							<path class="st15" d="M9.3,205.6c1.6,0.9,1.4,1.7,0.8,2c-0.3,0.2-0.6,0.3-0.8,0.3c-0.8,0-3.9-1.7-6.2-2.9
								c-0.3-0.2-0.5-0.4-0.5-0.7c0-0.5,0.5-0.9,0.5-0.9S7,204.4,9.3,205.6z"/>
							<path class="st15" d="M9.2,200.2c1.8,2.1-0.1,1.8-0.1,1.8s-4.8-3.1-5.4-3.7c-1.1-0.8-0.5-1.9,0-1.9
								C4.2,196.4,7.5,198.1,9.2,200.2z"/>
							<path class="st5" d="M6.1-7.4c0.9,0,1.6,1.9,1.6,4.3S7,1.2,6.1,1.2S4.5-0.7,4.5-3.1S5.2-7.4,6.1-7.4z"/>
							<path class="st5" d="M4.7,23.3c0.9,0,1.6,1.9,1.6,4.3s-0.7,4.3-1.6,4.3S3,30,3,27.6S3.8,23.3,4.7,23.3z"/>
							<path class="st5" d="M2.2-47.5c2.4,0,4.3,0.7,4.3,1.6s-1.9,1.6-4.3,1.6s-4.3-0.7-4.3-1.6S-0.2-47.5,2.2-47.5z"/>
							<path class="st15" d="M3.9,63.4C5.7,68,7.2,74.9,4.7,75.5c-1.6,0.4-4.3-4.1-6.1-6.1c-1-1.2-4-5.7-4.1-7.4
								c0-2.8-0.9-5.2,1.5-5.8C-1.4,55.6,2,58.8,3.9,63.4z"/>
							<path class="st15" d="M2.6,173.9c1.1-2.5,2.2-1.2,2,1.8c-0.2,3.1-2.3,16.8-3,22.4c-0.3,2-0.5,4.1-0.7,5.9
								c-0.4,3.3-0.6,5.9-0.6,6.9c-0.1,1.5-0.6,3.5-1.9,3.3s-1.9-2.1-1.6-3.5c0.2-0.9,1.2-6.9,1.9-11.7l0,0c0.3-2.1,0.6-4,0.8-5
								C0,191,1.7,180,2.6,173.9z"/>
							<path class="st15" d="M2.1,119.8c1.5-0.5,3.4-0.2,2.3,0.9c-1.1,1-9.5,3.8-11.7,4.5c-2.1,0.7-6.6,1.5-4.3-0.5
								C-4.6,121.8,0.6,120.3,2.1,119.8L2.1,119.8z"/>
							<path class="st13" d="M2,160.5l1.8,0.3c-3.1,8.8-5.1,11.6-13.7,25.6c-1.5,2.5-3.3,4.9-5.3,7.1v-42.8h2.3
								c0,1.4,1.2,2.9,2.3,4.9c0.9,1.6,5.6,4.3,7,4.9c2.5,1.1,4,2.1,5.1,0.9C1.7,161.1,1.8,160.8,2,160.5L2,160.5z M-2,168.9
								c0.3-1.1,1.5-5.5-1.7-4.3c-4.4,1.6-10.5,3.9-6.6,5.4C-6.3,171.5-2.3,170-2,168.9L-2,168.9z"/>
							<path class="st15" d="M1.3,115.4c1.6-0.2,3.4,0.4,2.1,1.2c-1.2,0.8-10,2.1-12.2,2.4s-6.8,0.4-4.1-1.2
								C-5.7,116.3-0.3,115.7,1.3,115.4L1.3,115.4z"/>
							<path class="st15" d="M-2.2,151.6c3.1,2.8,4.8,6.3,4.3,8.5c0,0.1-0.1,0.2-0.1,0.3c-0.1,0.3-0.3,0.6-0.5,0.9
								c-1.1,1.3-2.7,0.2-5.1-0.9c-1.4-0.6-6.2-3.3-7-4.9c-1-2-2.3-3.5-2.3-4.9c0-0.6,0.2-1.1,0.7-1.7C-10.5,147-6,148.2-2.2,151.6
								L-2.2,151.6z"/>
							<path class="st15" d="M-0.6,78.4c3-1.3,2.5,2.5,2.3,3.4c-0.1,0.9-3.8,2.6-8,1.7C-10.4,82.6-4.7,80.2-0.6,78.4z"/>
							<path class="st15" d="M-3.7,164.6c3.2-1.2,2,3.2,1.7,4.3s-4.3,2.6-8.3,1.1C-14.2,168.5-8.1,166.3-3.7,164.6L-3.7,164.6z"/>
							<path class="st15" d="M-3.2,198.8c0,0.1,0,0.2,0,0.3c-0.1,0.7-0.8,1.4-1.8,1.5c-2.2,0.2-10.2,0.2-13.7,0
								c-1.3-0.1-1.5-0.4-1.2-0.7l0.1-0.1c0.7-0.6,3-1.3,4.9-1.3c3.3,0,5.7-0.3,10.1-0.8C-3.7,197.6-3.2,198.2-3.2,198.8L-3.2,198.8
								z"/>
							<path class="st5" d="M-3.7,10.1c0.1,0.2,0.2,0.3,0.2,0.5c0,0.9-1.9,1.6-4.3,1.6s-4.3-0.7-4.3-1.6S-10.2,9-7.8,9
								C-5.9,8.9-4.3,9.4-3.7,10.1z"/>
							<path class="st15" d="M-4.5,203.9c1.5-0.3,0.2,2.4-0.6,2.6c-0.8,0.2-7.3,2-12.3,2.5c-5.1,0.5-1.8-2.1,1.1-2.8
								S-8.3,204.7-4.5,203.9z"/>
							<path class="st16" d="M-15.3,150.6v42.8c-1.6,1.9-3.4,3.7-5.3,5.5l-0.1,0.1c-1.1,1-2.3,2.1-3.5,3.1v-266h9v214.5L-15.3,150.6
								L-15.3,150.6z"/>
							<path class="st16" d="M-24.3-63.8v266c-3.1,2.7-6.5,5.3-10.1,8.1l0,0v-274C-34.4-63.8-24.3-63.8-24.3-63.8z"/>
							<path class="st13" d="M-34.4,210.2L-34.4,210.2c-7.9,6.1-16.8,12.8-26,21.3v-44.2c0,0,3.6-2,4-2.9c0.1-0.1,0.1-0.3,0.1-0.4
								l1.3,0.1l0,0c-0.1,1.1-0.2,2-0.3,2.9c-0.3,2.3-1.2,2.6-1.1,4.4c0.1,2.3,0.6,2.7,2.6,2.7c2.5,0,2.5-2,2.3-2.9
								c-0.3-1.8-0.4-2.7-0.7-5c-0.1-1.2,0.1-4.3,0.5-8l1.3,0.1c0,0.4,0.3,0.9,0.9,1.6c0.7,0.8,9.2,4,11.7,4.6
								c1.6,0.4,2.8,0.3,2.8-0.3h0.4v26L-34.4,210.2L-34.4,210.2z M-39.1,189c1.7,0.4,2.6,0.7,1.5-0.9c-1.1-1.6-10.1-6.2-11.6-6.6
								c-1.5-0.3-1.8,0.6-1.4,1.6C-50.3,183.8-40.8,188.6-39.1,189L-39.1,189z"/>
							<path class="st13" d="M-34.4,118v66.3h-0.4c0-0.3-0.3-0.7-1.1-1.2c-2.2-1.5-11.1-5.8-12.6-5.7c-0.9,0-1.8,0.3-1.8,1l-1.3-0.1
								c0.7-7.2,1.9-16.6,1.5-18c-0.6-2.1-1.5-4.2-2.6-0.9c0,3-1.4,16.2-2.3,24.8l-1.3-0.1c0-0.9-2.7,0.2-4.1,0.8v-3.4l2.5-1.2
								c1.2-1.1-0.7-1.5-2.5-1.1V136c0.4-0.3,0.8-0.6,1.2-1c1.4-1.4,2.2-2.9,2-3.8l2.6-0.1c0,1.4,3.2,3.7,5.3,5.5
								c2.4,2.1,2.6,2.7,3.7,1.4c1.1-1.3,0.3-3.2-2.1-5.3c-1.8-1.5-3.9-2.7-5.4-2.7l1-1.9c2.1,0.9,5.7,0.2,9.1-1.9c1.5-0.9,2-3,3-4
								c1.6-1.7,2.9-2.8,2.9-4L-34.4,118L-34.4,118z"/>
							<path class="st13" d="M-34.4,44.5V118h-2.7c0-0.3-0.1-0.6-0.3-0.9c-1.3-2.2-4-1.3-8.5,1.4c-3.4,2.1-6.8,4.5-7.6,6.6
								c-0.3,0.6-0.3,1.2,0.1,1.7c0.3,0.5,0.8,0.9,1.3,1.1l-1,1.9c-0.5,0-1,0.2-1.3,0.5c-0.1,0.2-0.2,0.3-0.2,0.6l-2.6,0.1
								c0-0.2-0.1-0.4-0.3-0.5c-0.5-0.5-1.7-0.3-3,0.6v-5.9c1,0.7,1.9,1.1,2.7,0.5c0.4-0.3,0.6-0.5,0.8-0.9c1-1.8-1-4.8-3.5-8.5
								V44.5H-34.4L-34.4,44.5z"/>
							<path class="st14" d="M-43.2-47.4l8.8,10.1v81.8h-26v-96.9h0.9c0,0.9,1.9,1.6,4.3,1.6c2.4,0,4.3-0.7,4.3-1.6
								c0-0.2-0.1-0.3-0.2-0.5l1.8-1.6l2.2,2.5C-47.2-52-43.2-47.4-43.2-47.4z M-42.1-36.2c0-1.8-0.6-3.2-1.2-3.2
								c-0.7,0-1.2,1.4-1.2,3.2S-44-33-43.4-33S-42.1-34.4-42.1-36.2z M-42.6,7.4c0-0.9-1.9-1.6-4.3-1.6s-4.3,0.7-4.3,1.6
								s2,1.6,4.3,1.6S-42.6,8.3-42.6,7.4z M-53.6-7.9c0-2.4-0.7-4.3-1.6-4.3s-1.6,1.9-1.6,4.3s0.7,4.3,1.6,4.3S-53.6-5.5-53.6-7.9z
								 M-55.5,13.9c0-2.4-0.7-4.3-1.6-4.3s-1.6,1.9-1.6,4.3s0.7,4.3,1.6,4.3S-55.5,16.3-55.5,13.9z"/>
							<path class="st14" d="M-39.1-51.3c2.1-2,3.5-3.3,3.5-3.3h1.2v17.3l-8.8-10.1C-41.7-48.8-40.2-50.2-39.1-51.3z"/>
							<path class="st14" d="M-43-56.2l-4.2,4.2l-2.2-2.5l-1.8,1.6c-0.5-0.7-2.2-1.2-4.1-1.2c-2.4,0-4.3,0.7-4.3,1.6h-0.9v-11.4h26
								v9.2h-1.2c0,0-1.4,1.3-3.5,3.3C-39.1-51.3-43-56.2-43-56.2z"/>
							<path class="st15" d="M-37.4,117.2c0.2,0.3,0.3,0.6,0.3,0.9c0,1.1-1.3,2.3-2.9,4c-1,1.1-1.5,3.2-3,4
								c-3.5,2.1-7.1,2.8-9.1,1.9c-0.6-0.3-1-0.6-1.3-1.1s-0.3-1.1-0.1-1.7c0.8-2,4.2-4.5,7.6-6.6
								C-41.4,115.9-38.7,114.9-37.4,117.2L-37.4,117.2z"/>
							<path class="st14" d="M-43-56.2l3.9,4.9c-1.2,1.1-2.6,2.5-4.1,3.9l-4-4.6C-47.2-52-43-56.2-43-56.2z"/>
							<path class="st5" d="M-46.9,5.8c2.4,0,4.3,0.7,4.3,1.6S-44.5,9-46.9,9s-4.3-0.7-4.3-1.6S-49.2,5.8-46.9,5.8z"/>
							<path class="st15" d="M-47.7,132.5c2.4,2,3.2,3.9,2.1,5.3c-1.1,1.3-1.3,0.7-3.7-1.4c-2.1-1.8-5.3-4.1-5.3-5.5
								c0-0.2,0.1-0.4,0.2-0.6c0.3-0.4,0.7-0.5,1.3-0.5C-51.6,129.8-49.5,131-47.7,132.5z"/>
							<path class="st5" d="M-57.2,9.6c0.9,0,1.6,1.9,1.6,4.3s-0.7,4.3-1.6,4.3s-1.6-1.9-1.6-4.3S-58.1,9.6-57.2,9.6z"/>
						</g>
					</g>
				</g>
			</g>
		</g>
	</g>
	
		<path style="clip-path:url(#SVGID_00000065036034988422338780000000853228824748410799_);fill:none;stroke:#000000;stroke-linecap:round;stroke-linejoin:round;" d="
		M-60.4,116.3V-77.3H99.1c15.4-0.5,38,1.8,52.7-8.6c-9.2,11.6-18.4,17-47.1,17l0,0c0,0.2,0,2,0.1,5c0.1,4.8,0.2,12.8,0.3,23
		c0,0.7,0,1.5,0,2.2c0.1,10.4,0.3,22.9,0.4,36.4c0,1.5,0,3,0,4.6c0,5.9,0.1,12,0.1,18.1c0,5.8,0.1,11.7,0.1,17.7c0,1.4,0,2.8,0,4.1
		v2.1c0,3.3,0,6.5,0,9.8c0,5.7,0,11.4,0,16.9"/>
	
		<line style="clip-path:url(#SVGID_00000065036034988422338780000000853228824748410799_);fill:none;stroke:#000000;stroke-linecap:round;stroke-linejoin:round;" x1="-60.4" y1="131.1" x2="-60.4" y2="125.2"/>
	
		<path style="clip-path:url(#SVGID_00000065036034988422338780000000853228824748410799_);fill:none;stroke:#000000;stroke-linecap:round;stroke-linejoin:round;" d="
		M105.7,75.9c0,10.8-0.1,21.1-0.2,30.7c0,0.6,0,1.3,0,1.9c0,0.3,0,0.7,0,1l0,0c-0.2,13.2-0.5,24.7-0.9,33.4
		c-0.1,1.5-0.1,2.9-0.2,4.2c-0.1,2-0.2,3.7-0.4,5.2c-0.2,1.9-0.4,3.5-0.6,4.6c-0.1,0.8-0.3,1.6-0.5,2.5c-0.4,1.9-0.8,3.8-1.2,5.8
		c-0.6,2.5-1.2,5.1-2,7.8v0.1c-0.6,2.1-1.1,4.2-1.8,6.3c-0.3,1.2-0.7,2.4-1.1,3.6c-0.7,2.1-1.4,4.3-2.1,6.4
		c-1.1,3.2-2.2,6.3-3.3,9.3c-0.8,2.2-1.6,4.3-2.4,6.3c-4.5,11.1-9,19.6-12.3,21.7c-2.7,1.7-4.6,2.7-6,3.3c-2.5,1.1-3.2,0.7-3.2,0.7
		c-9.3,3.1-37.8,1.7-50.2,0c-12.7,4.1-29.4,11.9-53.7,2.8c-8.6-3.1-24.1-1.8-24.1-1.8v-95.6"/>
	
		<path style="clip-path:url(#SVGID_00000065036034988422338780000000853228824748410799_);fill:none;stroke:#000000;stroke-linecap:round;stroke-linejoin:round;" d="
		M105.7,72.3c0,1.2,0,2.4,0,3.6"/>
	
		<polyline style="clip-path:url(#SVGID_00000065036034988422338780000000853228824748410799_);fill:none;stroke:#000000;stroke-linecap:round;stroke-linejoin:round;" points="
		-60.3,-68.8 104.7,-68.8 104.7,-68.8 	"/>
	
		<polyline style="clip-path:url(#SVGID_00000065036034988422338780000000853228824748410799_);fill:none;stroke:#000000;stroke-linecap:round;stroke-linejoin:round;" points="
		-60.3,-63.8 -55.2,-63.8 -46.9,-63.8 -38,-63.8 -34.4,-63.8 -24.3,-63.8 -15.3,-63.8 33.2,-63.8 40.3,-63.8 48.9,-63.8 57.7,-63.8 
		98.1,-63.8 100.7,-63.8 104.7,-63.8 	"/>
	
		<path style="clip-path:url(#SVGID_00000065036034988422338780000000853228824748410799_);fill:none;stroke:#000000;stroke-linecap:round;stroke-linejoin:round;" d="
		M-60.4,231.5c9.2-8.6,18.1-15.2,26-21.3c3.6-2.8,7-5.4,10.1-8.1c1.2-1,2.4-2.1,3.5-3.1l0.1-0.1c1.9-1.8,3.7-3.6,5.3-5.5
		c2-2.3,3.8-4.6,5.3-7.1c8.6-14,10.6-16.8,13.7-25.6c0.4-1.2,0.9-2.5,1.4-4"/>
	
		<path style="clip-path:url(#SVGID_00000065036034988422338780000000853228824748410799_);fill:none;stroke:#000000;stroke-linecap:round;stroke-linejoin:round;" d="
		M67.5,106.3c0,0,0.1,5.6-0.2,13.4c-0.1,1.6-0.2,3.2-0.3,4.9c-0.7,10.4-2.2,22.9-5.5,31.6c-0.9,2.2-1.8,4.2-2.9,5.8
		c-2.1,3.1-5.5,6.9-9.5,11.1c-2.3,2.5-4.8,5-7.4,7.6c-0.2,0.1-0.3,0.3-0.5,0.4c-2.5,2.4-5,4.9-7.5,7.2
		c-10.6,10.1-20.5,18.8-21.1,19.3l0,0c25.3,9.1,43.2,23.1,58.1,22.2"/>
	
		<line style="clip-path:url(#SVGID_00000065036034988422338780000000853228824748410799_);fill:none;stroke:#000000;stroke-linecap:round;stroke-linejoin:round;" x1="7.9" y1="212" x2="17.4" y2="230.6"/>
	
		<polyline style="clip-path:url(#SVGID_00000065036034988422338780000000853228824748410799_);fill:none;stroke:#000000;stroke-linecap:round;stroke-linejoin:round;" points="
		-34.4,210.2 -34.4,184.3 -34.4,118 -34.4,44.5 -34.4,-37.3 -34.4,-48.1 -34.4,-54.7 -34.4,-63.8 	"/>
	
		<line style="clip-path:url(#SVGID_00000065036034988422338780000000853228824748410799_);fill:none;stroke:#000000;stroke-linecap:round;stroke-linejoin:round;" x1="-24.3" y1="-63.8" x2="-24.3" y2="202.1"/>
	
		<polyline style="clip-path:url(#SVGID_00000065036034988422338780000000853228824748410799_);fill:none;stroke:#000000;stroke-linecap:round;stroke-linejoin:round;" points="
		-15.3,-63.8 -15.3,-3.1 -15.3,10.5 -15.3,44.5 -15.3,150.6 -15.3,193.4 	"/>
	
		<polyline style="clip-path:url(#SVGID_00000065036034988422338780000000853228824748410799_);fill:none;stroke:#000000;stroke-linecap:round;stroke-linejoin:round;" points="
		33.2,-63.8 33.2,0.2 33.2,44.5 33.2,187.9 	"/>
	
		<line style="clip-path:url(#SVGID_00000065036034988422338780000000853228824748410799_);fill:none;stroke:#000000;stroke-linecap:round;stroke-linejoin:round;" x1="40.3" y1="-63.8" x2="40.3" y2="180.3"/>
	
		<polyline style="clip-path:url(#SVGID_00000065036034988422338780000000853228824748410799_);fill:none;stroke:#000000;stroke-linecap:round;stroke-linejoin:round;" points="
		48.9,173 48.9,117.3 48.9,79.6 48.9,70.9 48.9,44.5 48.9,12.8 48.9,-63.8 	"/>
	
		<polyline style="clip-path:url(#SVGID_00000065036034988422338780000000853228824748410799_);fill:none;stroke:#000000;stroke-linecap:round;stroke-linejoin:round;" points="
		28.6,-57.5 12.5,-44.9 -1.4,-33.8 	"/>
	
		<polyline style="clip-path:url(#SVGID_00000065036034988422338780000000853228824748410799_);fill:none;stroke:#000000;stroke-linecap:round;stroke-linejoin:round;" points="
		-1.4,-61.2 12.5,-44.9 27.1,-27.7 	"/>
	
		<polyline style="clip-path:url(#SVGID_00000065036034988422338780000000853228824748410799_);fill:none;stroke:#000000;stroke-linecap:round;stroke-linejoin:round;" points="
		-12.3,-3.1 -2.6,9.2 -0.2,12.3 5.6,19.7 19.4,37.2 	"/>
	
		<polyline style="clip-path:url(#SVGID_00000065036034988422338780000000853228824748410799_);fill:none;stroke:#000000;stroke-linecap:round;stroke-linejoin:round;" points="
		-8.5,-8.1 4.6,8.6 10.4,16 23.1,32.2 	"/>
	
		<polyline style="clip-path:url(#SVGID_00000065036034988422338780000000853228824748410799_);fill:none;stroke:#000000;stroke-linecap:round;stroke-linejoin:round;" points="
		30.8,0.2 10.4,16 5.6,19.7 -8.5,30.5 	"/>
	
		<polyline style="clip-path:url(#SVGID_00000065036034988422338780000000853228824748410799_);fill:none;stroke:#000000;stroke-linecap:round;stroke-linejoin:round;" points="
		28.5,-9.8 4.6,8.6 -0.2,12.3 -10.8,20.5 	"/>
	
		<line style="clip-path:url(#SVGID_00000065036034988422338780000000853228824748410799_);fill:none;stroke:#000000;stroke-linecap:round;stroke-linejoin:round;" x1="-15.3" y1="44.5" x2="33.2" y2="44.5"/>
	
		<line style="clip-path:url(#SVGID_00000065036034988422338780000000853228824748410799_);fill:none;stroke:#000000;stroke-linecap:round;stroke-linejoin:round;" x1="-59.8" y1="44.5" x2="-34.9" y2="44.5"/>
	
		<polyline style="clip-path:url(#SVGID_00000065036034988422338780000000853228824748410799_);fill:none;stroke:#000000;stroke-linecap:round;stroke-linejoin:round;" points="
		49.5,44.5 75.5,44.5 98,44.5 99.7,44.5 101.8,44.5 105,44.5 	"/>
	
		<path style="clip-path:url(#SVGID_00000065036034988422338780000000853228824748410799_);fill:none;stroke:#000000;stroke-linecap:round;stroke-linejoin:round;" d="
		M-53.1,129.8c1.5,0,3.6,1.2,5.4,2.7c2.4,2,3.2,3.9,2.1,5.3c-1.1,1.3-1.3,0.7-3.7-1.4c-2.1-1.8-5.3-4.1-5.3-5.5
		c0-0.2,0.1-0.4,0.2-0.6C-54,130-53.6,129.8-53.1,129.8z"/>
	
		<path style="clip-path:url(#SVGID_00000065036034988422338780000000853228824748410799_);fill:none;stroke:#000000;stroke-linecap:round;stroke-linejoin:round;" d="
		M-37.1,118c0-0.3-0.1-0.6-0.3-0.9c-1.3-2.2-4-1.3-8.5,1.4c-3.4,2.1-6.8,4.5-7.6,6.6c-0.3,0.6-0.3,1.2,0.1,1.7
		c0.3,0.5,0.8,0.9,1.3,1.1c2.1,0.9,5.7,0.2,9.1-1.9c1.5-0.9,2-3,3-4C-38.4,120.3-37.1,119.2-37.1,118L-37.1,118z"/>
	
		<path style="clip-path:url(#SVGID_00000065036034988422338780000000853228824748410799_);fill:none;stroke:#000000;stroke-linecap:round;stroke-linejoin:round;" d="
		M10.7,98.2c-0.4,3.1-3.5,17.8-5.1,25.1c-0.5,2.1-1.3,2.3-1.4,3.9c-0.1,2.2,0.2,2.5,2.1,2.8c2.3,0.3,2.4-1.6,2.4-2.4
		c-0.1-1.7-0.1-2.6-0.1-4.6c0-3.2,4.7-21.6,4.4-23.6C12.7,97.3,12.1,95.3,10.7,98.2L10.7,98.2z"/>
	
		<path style="clip-path:url(#SVGID_00000065036034988422338780000000853228824748410799_);fill:none;stroke:#000000;stroke-linecap:round;stroke-linejoin:round;" d="
		M-13,117.9c7.3-1.6,12.6-2.2,14.2-2.5c1.6-0.2,3.4,0.4,2.1,1.2c-1.2,0.8-10,2.1-12.2,2.4C-11,119.4-15.6,119.5-13,117.9L-13,117.9z
		"/>
	
		<path style="clip-path:url(#SVGID_00000065036034988422338780000000853228824748410799_);fill:none;stroke:#000000;stroke-linecap:round;stroke-linejoin:round;" d="
		M-11.5,124.6c6.9-2.8,12.1-4.3,13.6-4.8s3.4-0.2,2.3,0.9c-1.1,1-9.5,3.8-11.7,4.5C-9.4,125.8-13.9,126.6-11.5,124.6L-11.5,124.6z"
		/>
	
		<path style="clip-path:url(#SVGID_00000065036034988422338780000000853228824748410799_);fill:none;stroke:#000000;stroke-linecap:round;stroke-linejoin:round;" d="
		M11.7,117.3c0.6,0.8,8,4.5,10.3,5.4s3.6,0.4,1.8-1.2c-1.8-1.6-9.6-6.4-10.9-6.5C11.4,115,10.3,115.5,11.7,117.3z"/>
	
		<path style="clip-path:url(#SVGID_00000065036034988422338780000000853228824748410799_);fill:none;stroke:#000000;stroke-linecap:round;stroke-linejoin:round;" d="
		M10.1,120.1c0.3,0.7,8.5,6,9.9,6.5c1.5,0.5,2.3,0.9,1.4-0.7s-8.6-6.7-9.9-7.2S9.8,119.1,10.1,120.1z"/>
	
		<path style="clip-path:url(#SVGID_00000065036034988422338780000000853228824748410799_);fill:#8D969D;stroke:#000000;stroke-miterlimit:10;" d="
		M-51.5,178.3c0.7-7.2,1.9-16.6,1.5-18c-0.6-2.1-1.5-4.2-2.6-0.9c0,3-1.4,16.2-2.3,24.8l0,0c-0.1,1.1-0.2,2-0.3,2.9
		c-0.3,2.3-1.2,2.6-1.1,4.4c0.1,2.3,0.6,2.7,2.6,2.7c2.5,0,2.5-2,2.3-2.9c-0.3-1.8-0.4-2.7-0.7-5C-52.2,185.1-51.9,182-51.5,178.3
		L-51.5,178.3z"/>
	
		<path style="clip-path:url(#SVGID_00000065036034988422338780000000853228824748410799_);fill:#8D969D;stroke:#000000;stroke-miterlimit:10;" d="
		M-60.4,179.1c1.7-0.4,3.7,0,2.5,1.1l-2.5,1.2"/>
	
		<path style="clip-path:url(#SVGID_00000065036034988422338780000000853228824748410799_);fill:#8D969D;stroke:#000000;stroke-miterlimit:10;" d="
		M-60.4,184.9c1.4-0.6,4.1-1.7,4.1-0.8c0,0.1,0,0.2-0.1,0.4c-0.5,0.9-4,2.9-4,2.9"/>
	
		<path style="clip-path:url(#SVGID_00000065036034988422338780000000853228824748410799_);fill:#8D969D;stroke:#000000;stroke-miterlimit:10;" d="
		M-50.2,178.4c0,0.4,0.3,0.9,0.9,1.6c0.7,0.8,9.2,4,11.7,4.6c1.6,0.4,2.8,0.3,2.8-0.3c0-0.3-0.3-0.7-1.1-1.2
		c-2.2-1.5-11.1-5.8-12.6-5.7C-49.3,177.4-50.2,177.7-50.2,178.4z"/>
	
		<path style="clip-path:url(#SVGID_00000065036034988422338780000000853228824748410799_);fill:#8D969D;stroke:#000000;stroke-miterlimit:10;" d="
		M-50.7,183.1c0.4,0.7,9.9,5.5,11.5,5.9c1.7,0.4,2.6,0.7,1.5-0.9c-1.1-1.6-10.1-6.2-11.6-6.6C-50.8,181.2-51.1,182.1-50.7,183.1
		L-50.7,183.1z"/>
	
		<path style="clip-path:url(#SVGID_00000065036034988422338780000000853228824748410799_);fill:none;stroke:#000000;stroke-linecap:round;stroke-linejoin:round;" d="
		M-13,150.6c0-0.6,0.2-1.1,0.7-1.7c1.8-2,6.3-0.8,10.1,2.6c3.1,2.8,4.8,6.3,4.3,8.5c0,0.1-0.1,0.2-0.1,0.3c-0.1,0.3-0.3,0.6-0.5,0.9
		c-1.1,1.3-2.7,0.2-5.1-0.9c-1.4-0.6-6.2-3.3-7-4.9C-11.8,153.6-13,152.1-13,150.6L-13,150.6z"/>
	
		<path style="clip-path:url(#SVGID_00000065036034988422338780000000853228824748410799_);fill:none;stroke:#000000;stroke-linecap:round;stroke-linejoin:round;" d="
		M22.9,148.5c0.9,1.6-0.6,3.2-2.8,5.4c-0.9,0.9-1.5,2.6-2.8,3.4c-4.4,2.6-9.1,2.8-10.4,0.5s1.2-6.2,5.6-8.8
		C17,146.4,21.6,146.2,22.9,148.5z"/>
	
		<path style="clip-path:url(#SVGID_00000065036034988422338780000000853228824748410799_);fill:none;stroke:#000000;stroke-linecap:round;stroke-linejoin:round;" d="
		M24.6,168c-0.3,1.2-2.9,0.9-5,1.2c-1.7,0.2-2.7,1.2-4.9,0.7c-5-1.1-8.6-3.8-8.1-6s4.9-3,9.9-1.9S25.1,165.8,24.6,168z"/>
	
		<path style="clip-path:url(#SVGID_00000065036034988422338780000000853228824748410799_);fill:none;stroke:#000000;stroke-linecap:round;stroke-linejoin:round;" d="
		M-3.7,164.6c-4.4,1.6-10.5,3.9-6.6,5.4c4,1.5,8,0,8.3-1.1C-1.7,167.9-0.5,163.5-3.7,164.6L-3.7,164.6z"/>
	
		<path style="clip-path:url(#SVGID_00000065036034988422338780000000853228824748410799_);fill:none;stroke:#000000;stroke-linecap:round;stroke-linejoin:round;" d="
		M70.7,123.9c0,0.2-0.1,0.3-0.2,0.4c-0.4,0.6-1.8,0.6-3.5,0.4s-3.6-0.6-5-0.8c-1.5-0.2-6.8-1.4-8-2.6c-1.6-1.5-3.4-2.6-3.4-3.9
		c0-0.3,0.1-0.7,0.4-1.1c1.2-1.9,5.9-1.9,10.4,0.1c1.9,0.9,4.1,2.1,5.9,3.3C69.4,121.2,70.9,122.7,70.7,123.9L70.7,123.9z"/>
	
		<path style="clip-path:url(#SVGID_00000065036034988422338780000000853228824748410799_);fill:none;stroke:#000000;stroke-linecap:round;stroke-linejoin:round;" d="
		M88.6,107.7c0.1,0,0.2,0.1,0.3,0.1c0.1,0.1,0.2,0.1,0.3,0.2c1.1,1.3-3,5.5-4.9,7.4c-0.8,0.8-1.1,2.3-2.3,3c-2.1,1.2-4.3,2-6.2,2.1
		l0,0c-1.8,0.2-3.2-0.2-4-1.1c-1.6-1.8,0.4-5.2,4.4-7.6C79.8,109.8,86.2,106.9,88.6,107.7L88.6,107.7z"/>
	
		<path style="clip-path:url(#SVGID_00000065036034988422338780000000853228824748410799_);fill:none;stroke:#000000;stroke-linecap:round;stroke-linejoin:round;" d="
		M75.9,122.6c1.4-0.2,3.2-0.1,5.2,0.3c3.9,0.8,6.9,2.7,6.6,4.1c-0.2,0.8-2.2,0.6-3.9,0.7c-1.3,0.1-2,0.7-3.8,0.4
		c-3.9-0.8-6.9-2.7-6.6-4.1C73.6,123.3,74.6,122.8,75.9,122.6L75.9,122.6z"/>
	
		<path style="clip-path:url(#SVGID_00000065036034988422338780000000853228824748410799_);fill:none;stroke:#000000;stroke-linecap:round;stroke-linejoin:round;" d="
		M61.3,125.7c-3.9,2.2-9.3,5.2-5.1,5.6c4.2,0.4,7.7-1.6,7.8-2.5S64.1,124.1,61.3,125.7L61.3,125.7z"/>
	
		<path style="clip-path:url(#SVGID_00000065036034988422338780000000853228824748410799_);fill:none;stroke:#000000;stroke-linecap:round;stroke-linejoin:round;" d="
		M4.7,75.5c-1.6,0.4-4.3-4.1-6.1-6.1c-1-1.2-4-5.7-4.1-7.4c0-2.8-0.9-5.2,1.5-5.8s5.9,2.7,7.8,7.2C5.7,68,7.2,74.9,4.7,75.5
		L4.7,75.5z"/>
	
		<path style="clip-path:url(#SVGID_00000065036034988422338780000000853228824748410799_);fill:none;stroke:#000000;stroke-linecap:round;stroke-linejoin:round;" d="
		M30,69c0.7,1.6-4.6,4.3-7,5.5c-1,0.5-1.8,1.8-3.1,2.1c-4.6,1-9.1,0.1-10-2.2c-1-2.2,2-4.9,6.6-5.9C21,67.6,29.1,66.8,30,69z"/>
	
		<path style="clip-path:url(#SVGID_00000065036034988422338780000000853228824748410799_);fill:none;stroke:#000000;stroke-linecap:round;stroke-linejoin:round;" d="
		M13.2,84.9c-0.4,0.4-1.6-0.5-2.7-1.1c-0.9-0.4-1.6-0.3-2.5-1.2c-2.2-2.1-3.3-4.4-2.6-5.2s3.1,0.3,5.3,2.3
		C12.8,81.8,13.9,84.1,13.2,84.9z"/>
	
		<path style="clip-path:url(#SVGID_00000065036034988422338780000000853228824748410799_);fill:none;stroke:#000000;stroke-linecap:round;stroke-linejoin:round;" d="
		M-0.6,78.4c-4.1,1.8-9.8,4.2-5.6,5.1s7.8-0.8,8-1.7C1.9,80.9,2.4,77.1-0.6,78.4z"/>
	
		<path style="clip-path:url(#SVGID_00000065036034988422338780000000853228824748410799_);fill:none;stroke:#000000;stroke-linecap:round;stroke-linejoin:round;" d="
		M1,204.1c0.2-1.8,0.4-3.8,0.7-5.9c0.7-5.7,2.8-19.4,3-22.4c0.2-3.1-0.9-4.4-2-1.8c-1,6-2.7,17-3.2,20.2c-0.2,1-0.4,2.8-0.8,5l0,0
		c-0.7,4.7-1.7,10.7-1.9,11.7c-0.3,1.3,0.3,3.3,1.6,3.5s1.9-1.8,1.9-3.3C0.3,210,0.6,207.3,1,204.1z"/>
	
		<path style="clip-path:url(#SVGID_00000065036034988422338780000000853228824748410799_);fill:none;stroke:#000000;stroke-linecap:round;stroke-linejoin:round;" d="
		M-19.9,199.8l-0.1,0.1c-0.3,0.3-0.1,0.6,1.2,0.7c3.5,0.2,11.4,0.2,13.7,0c1.1-0.1,1.7-0.8,1.8-1.5c0-0.1,0-0.2,0-0.3
		c0-0.6-0.5-1.2-1.6-1.1c-4.4,0.5-6.8,0.8-10.1,0.8C-16.9,198.5-19.1,199.2-19.9,199.8L-19.9,199.8z"/>
	
		<path style="clip-path:url(#SVGID_00000065036034988422338780000000853228824748410799_);fill:none;stroke:#000000;stroke-linecap:round;stroke-linejoin:round;" d="
		M-4.5,203.9c-3.8,0.8-8.9,1.6-11.8,2.3c-3,0.7-6.2,3.3-1.1,2.8s11.5-2.3,12.3-2.5C-4.3,206.3-3,203.6-4.5,203.9z"/>
	
		<path style="clip-path:url(#SVGID_00000065036034988422338780000000853228824748410799_);fill:none;stroke:#000000;stroke-linecap:round;stroke-linejoin:round;" d="
		M3.8,198.3c0.6,0.6,5.4,3.7,5.4,3.7s1.9,0.3,0.1-1.8s-5-3.8-5.5-3.8S2.7,197.5,3.8,198.3z"/>
	
		<path style="clip-path:url(#SVGID_00000065036034988422338780000000853228824748410799_);fill:none;stroke:#000000;stroke-linecap:round;stroke-linejoin:round;" d="
		M2.6,204.3c0,0.2,0.1,0.5,0.5,0.7c2.3,1.3,5.3,2.9,6.2,2.9c0.3,0,0.6-0.1,0.8-0.3c0.6-0.4,0.8-1.1-0.8-2c-2.2-1.2-6.2-2.3-6.2-2.3
		S2.6,203.8,2.6,204.3z"/>
	
		<path style="clip-path:url(#SVGID_00000065036034988422338780000000853228824748410799_);fill:none;stroke:#000000;stroke-linecap:round;stroke-linejoin:round;" d="
		M75.5,47.6c-0.3,0-0.8,0.4-1.2,1.3c-0.8,6.1-2.5,17.1-3,20.3c-0.2,1-0.4,2.8-0.8,4.9c-0.3,1.8-0.6,3.8-0.9,5.6v0.1
		c-0.5,2.9-0.9,5.4-1,6c-0.3,1.3,0.3,3.3,1.6,3.4c1.3,0.2,1.9-1.8,1.9-3.3s0.6-7.1,1.3-12.8c0.7-5.7,2.8-19.4,3-22.5
		C76.5,48.8,76.1,47.6,75.5,47.6z"/>
	
		<path style="clip-path:url(#SVGID_00000065036034988422338780000000853228824748410799_);fill:none;stroke:#000000;stroke-linecap:round;stroke-linejoin:round;" d="
		M68.6,73.8c0-0.5-0.4-1-1.3-1.2c-4.4-0.7-6.8-1.1-9.9-2C55.1,70,52,70.2,52,70.9c0,0.2,0.3,0.5,1.2,0.8c3.3,1.2,10.9,3.3,13.2,3.7
		C67.7,75.5,68.6,74.6,68.6,73.8z"/>
	
		<path style="clip-path:url(#SVGID_00000065036034988422338780000000853228824748410799_);fill:none;stroke:#000000;stroke-linecap:round;stroke-linejoin:round;" d="
		M50.9,79.6c0,0.4,0.7,0.8,2.5,1c5.1,0.7,11.7,0.5,12.6,0.5c0.5,0,1.5-0.9,1.8-1.6v-0.1c0-0.3-0.1-0.6-0.6-0.6
		c-3.9-0.2-9-0.6-12-0.6C53.2,78.2,50.9,78.9,50.9,79.6L50.9,79.6z"/>
	
		<path style="clip-path:url(#SVGID_00000065036034988422338780000000853228824748410799_);fill:none;stroke:#000000;stroke-linecap:round;stroke-linejoin:round;" d="
		M75.9,77.3c1,0.2,10.2,1.1,10.2,1.1s2.1-1-1.1-1.9c-3.2-1-10-1.4-10.4-1.1C74.2,75.6,74.2,77.1,75.9,77.3L75.9,77.3z"/>
	
		<path style="clip-path:url(#SVGID_00000065036034988422338780000000853228824748410799_);fill:none;stroke:#000000;stroke-linecap:round;stroke-linejoin:round;" d="
		M75.9,81.8c2.3,1.3,10,4.1,10.8,4.1s2.3-1,0-2.3c-2.2-1.2-10.8-3.4-10.8-3.4S74.8,81.2,75.9,81.8z"/>
	
		<path style="clip-path:url(#SVGID_00000065036034988422338780000000853228824748410799_);fill:none;stroke:#000000;stroke-linecap:round;stroke-linejoin:round;" d="
		M89.5,176.3c0-0.3-0.2-0.7-0.6-1.2C85,172.1,78,166.6,76,165s-9.7-7.6-10.5-8.4c-0.8-0.8-2.3-1.1-2.9-0.2c0,0,0,0.1-0.1,0.1
		s0,0.1,0,0.1c-0.2,0.9,0.8,1.9,1.7,2.5c1,0.6,4.7,3.2,8.3,5.9c3.7,2.7,12.4,9.5,14.4,10.9C88.4,176.8,89.5,176.9,89.5,176.3z"/>
	
		<path style="clip-path:url(#SVGID_00000065036034988422338780000000853228824748410799_);fill:none;stroke:#000000;stroke-linecap:round;stroke-linejoin:round;" d="
		M74.9,160.8c1.9-2.9,3-4.5,4.6-6.5s2.6-5.5,0.7-3.5c-1.9,1.9-5.9,6.7-6.9,8.2C72.4,160.5,73.8,162.3,74.9,160.8z"/>
	
		<path style="clip-path:url(#SVGID_00000065036034988422338780000000853228824748410799_);fill:none;stroke:#000000;stroke-linecap:round;stroke-linejoin:round;" d="
		M70.7,158.3c1.4-2.7,3.4-6.3,4.4-8.5s1.1-5.6-1.1-2.2c-2.2,3.4-4.2,8.3-4.5,9C69.2,157.1,70.1,159.4,70.7,158.3z"/>
	
		<path style="clip-path:url(#SVGID_00000065036034988422338780000000853228824748410799_);fill:none;stroke:#000000;stroke-linecap:round;stroke-linejoin:round;" d="
		M68.9,165.2c-0.5,0.6-4.1,7-4.1,7s0,1.9,1.7,0s4.3-6.7,4.2-7.1C70.6,164.6,69.5,164.1,68.9,165.2z"/>
	
		<path style="clip-path:url(#SVGID_00000065036034988422338780000000853228824748410799_);fill:none;stroke:#000000;stroke-linecap:round;stroke-linejoin:round;" d="
		M65.8,163.5c-1.6,1.2-6.1,5.7-6.4,6.3c-0.3,0.6-0.1,2.1,1.6,0.9c1.6-1.2,5.9-6.6,5.9-6.6S66.6,162.9,65.8,163.5z"/>
	
		<path style="clip-path:url(#SVGID_00000065036034988422338780000000853228824748410799_);fill:none;stroke:#000000;stroke-linecap:round;stroke-linejoin:round;" d="
		M40.3,194.1c3.3,3.7,6,9.8,13.1,11.4c4.7,0.8,7.4-3.9,7.4-5.4s-3.5-2.2-7.8-3.4C48.8,195.5,40.7,190.6,40.3,194.1z"/>
	
		<path style="clip-path:url(#SVGID_00000065036034988422338780000000853228824748410799_);fill:none;stroke:#000000;stroke-linecap:round;stroke-linejoin:round;" d="
		M62.6,198.8c5.7-6.3,7.7-6.7,9.5-8.6c2.4-2.4,5.1-5.9,6-2.3c1.3,5.6,1.3,8.2-3.1,10.9c-3.9,2.4-7.1,4.4-9.2,3.3
		C63.8,201,61.1,200.3,62.6,198.8L62.6,198.8z"/>
	
		<path style="clip-path:url(#SVGID_00000065036034988422338780000000853228824748410799_);fill:none;stroke:#000000;stroke-linecap:round;stroke-linejoin:round;" d="
		M55.9,209c-3.1,2.7-6.1,3.3-6.1,4.6s4.1,5.6,7.8,2.7c3.7-2.9,2-5.8,2-7.4C59.6,207.3,58.5,207,55.9,209z"/>
	
		<path style="clip-path:url(#SVGID_00000065036034988422338780000000853228824748410799_);fill:none;stroke:#000000;stroke-linecap:round;stroke-linejoin:round;" d="
		M64.5,205.8c1.2,2.9,2.1,6.4,6.3,6.6c4.3,0.2,6.1,0.2,6.7-2.3s-1.4-3.2-5.1-4.7C68.7,204.1,64.7,202.9,64.5,205.8L64.5,205.8z"/>
	
		<path style="clip-path:url(#SVGID_00000065036034988422338780000000853228824748410799_);fill:none;stroke:#000000;stroke-linecap:round;stroke-linejoin:round;" d="
		M125.7,62c-2.3,2.4-4.9,4.9-7.7,7.1c-3.7,3-7.8,5.5-12.4,6.7v-4.7c0-5.8,0-12.4,0-16.9v-5.7c3.8-3.3,7.2-6.2,10.3-8.7
		c3.9-3.2,7.2-5.9,10.1-8.2"/>
	
		<path style="clip-path:url(#SVGID_00000065036034988422338780000000853228824748410799_);fill:none;stroke:#000000;stroke-linecap:round;stroke-linejoin:round;" d="
		M126.3,31.6c2.4-2,4.6-3.7,6.6-5.3c1.4-1.2,2.7-2.3,4-3.4c7.1-6.1,20.8-17.2,29.8-17.5c9-0.3,17.3,2.2,18.2,13.6
		c0.6,9.1,2.3,20.7,0.5,28c-0.5,1.9-1.2,3.5-2.1,4.7c-2.4,2.9-5.6,4.9-8.7,6.2c-2.6,1.1-5,1.6-6.9,1.7c-0.5,0-0.9,0-1.3,0
		c-3.5-0.2-0.6-3.6,1.9-7.1"/>
	
		<g id="XMLID_00000088821960567857706790000005674961551463690929_" style="clip-path:url(#SVGID_00000065036034988422338780000000853228824748410799_);">
		<g>
			<path class="st19" d="M147.85,55.59l-0.15,0.71l-7.5,10.6l-9.05-9.84l-0.18-0.19c0.88-0.84,1.72-1.6,2.53-2.27
				c1.4-1.2,3.1-2.9,4.9-5c0.6,1.2,2.1,2.8,4.3,4C144.19,54.49,145.87,55.19,147.85,55.59z"/>
			<path class="st19" d="M147.35,38.24c4.38-5.88,8.86-12.36,12.85-17.64c3.1-0.1,8.3-2.9,14.4-5.2c0.8-0.2,1.5-0.5,2.3-0.8
				c0.8,0.5,1.5,1.4,2,2.6c1.7,3.8,1.8,10.5,1.6,14.7c-0.2,5.5-8.9,15.7-11.6,19.6c-0.19,0.28-0.46,0.64-0.65,0.93l-0.05-0.03
				c-2.7,2.6-5.5,3.7-10.7,3.8c-2,0-4.3-0.1-7.2-0.3c-0.8,0-1.6-0.1-2.4-0.3c-0.02,0-0.03-0.01-0.05-0.01
				c-1.98-0.4-3.66-1.1-5.15-1.99c-2.2-1.2-3.7-2.8-4.3-4c1.2-1.4,2.5-2.9,3.8-4.6c1.6-2.1,3.3-4.4,5.1-6.8L147.35,38.24z"/>
		</g>
		<g>
			<path class="st20" d="M147.3,38.2c-1.8,2.4-3.5,4.7-5.1,6.8c-1.3,1.7-2.6,3.2-3.8,4.6c-1.8,2.1-3.5,3.8-4.9,5
				c-0.81,0.67-1.65,1.43-2.53,2.27c-1.62,1.54-3.35,3.31-5.17,5.13"/>
			<path class="st20" d="M168.2,52.5c0.01-0.02,0.03-0.04,0.05-0.07c0.19-0.29,0.46-0.65,0.65-0.93c2.7-3.9,11.4-14.1,11.6-19.6
				c0.2-4.2,0.1-10.9-1.6-14.7c-0.5-1.2-1.2-2.1-2-2.6c-0.8,0.3-1.5,0.6-2.3,0.8c-6.1,2.3-11.3,5.1-14.4,5.2
				c-3.99,5.28-8.47,11.76-12.85,17.64c-0.02,0.02-0.04,0.04-0.05,0.06"/>
			<path class="st20" d="M138.4,49.6c0.6,1.2,2.1,2.8,4.3,4c1.49,0.89,3.17,1.59,5.15,1.99c0.02,0,0.03,0.01,0.05,0.01
				c0.8,0.2,1.6,0.3,2.4,0.3c2.9,0.2,5.2,0.3,7.2,0.3c5.2-0.1,8-1.2,10.7-3.8"/>
			<polyline class="st20" points="131.15,57.06 140.2,66.9 147.7,56.3 			"/>
		</g>
	</g>
	
		<polyline style="clip-path:url(#SVGID_00000065036034988422338780000000853228824748410799_);fill:none;stroke:#000000;stroke-linecap:round;stroke-linejoin:round;" points="
		125.7,62 125.7,62 141.3,83.5 157.5,56.3 	"/>
	
		<path style="clip-path:url(#SVGID_00000065036034988422338780000000853228824748410799_);fill:none;stroke:#000000;stroke-linecap:round;stroke-linejoin:round;" d="
		M193.5,58.9c0.6,0.5,1.2,0.9,1.7,1.1c4.7,2.1,8.7,5.1,12.6,8.9c3.9,3.9,7.2,10.3,7.2,10.3h10.2l-0.6,4.2l8.3,1.8v2.7l3.5,1.4
		l4.2,1.6l-13.8,16.8"/>
	
		<path style="clip-path:url(#SVGID_00000065036034988422338780000000853228824748410799_);fill:none;stroke:#000000;stroke-linecap:round;stroke-linejoin:round;" d="
		M185.4,47c0,0,4,8.4,8.1,11.9"/>
	
		<path style="clip-path:url(#SVGID_00000065036034988422338780000000853228824748410799_);fill:none;stroke:#000000;stroke-linecap:round;stroke-linejoin:round;" d="
		M174.5,57.9c7-0.3,14.8-0.2,21.8,12.1c1.4,2.5,3.3,6,5.4,10.1c3.5,7,7.7,15.6,11.4,23.2c3,6.2,5.8,11.7,7.8,15.2
		c1.2,2.1,2.1,3.5,2.5,3.8"/>
	
		<path style="clip-path:url(#SVGID_00000065036034988422338780000000853228824748410799_);fill:none;stroke:#000000;stroke-linecap:round;stroke-linejoin:round;" d="
		M213.1,103.2c3.1,1.7,7.3,3.5,11.6,5c0.6,0.2,1.2,0.4,1.8,0.6c5.1,1.7,10,3,12.8,3.3c5.4,0.6,14.7,4.3,18.4,8.9
		c2,2.5,4.6,5.8,6.7,9c1.5,2.3,2.6,4.5,3.2,6.4c0.1,0.4,0.2,0.7,0.2,1.1c0.2,1.4,0.6,3.3,1,5.5s0.6,4.6,0.4,6.9
		c-0.3,2.9-1.3,5.6-4,7.2c-6.7,4-28.3,3.8-30.6,4.1c-0.4,0-0.9,0.3-1.4,0.6c-2.7,1.6-7,6-7,6h-15.6l-5.8,5.2l-3.1-2l-5.4,2.6
		l-5.3,5.2l-2.5,6l-6.9-0.9l-4.7-0.6l-6.6-0.9l-0.8,6.1l-8.7,1.2l-7.7-10.4c-7.8,2.8-15,6.9-20.3,6.1c-4,5.2-8.3,13.8-8.7,13.8
		c-0.5,0-6.3-0.6-6.3-0.6l-4.1,3.8l-5.3-3l-0.3-0.2h-8.7l-10.2,5.6"/>
	
		<path style="clip-path:url(#SVGID_00000065036034988422338780000000853228824748410799_);fill:none;stroke:#000000;stroke-linecap:round;stroke-linejoin:round;" d="
		M127.9,104.3c1.1-1.3,2.1-2.6,3.1-3.8c2-2.4,3.8-4.3,5.1-5.3c5.5-4.3,11-10.2,13.5-3.1c1.2,3.4,2.6,9.9,3.8,15.8
		c0.5,2.7,1,5.3,1.4,7.4c0.6,3.1,0.9,5.1,0.9,5.1"/>
	
		<path style="clip-path:url(#SVGID_00000065036034988422338780000000853228824748410799_);fill:none;stroke:#000000;stroke-linecap:round;stroke-linejoin:round;" d="
		M111.2,122.2c3.3-1.1,10.5-10.4,16.7-18"/>
	
		<path style="clip-path:url(#SVGID_00000065036034988422338780000000853228824748410799_);fill:none;stroke:#000000;stroke-linecap:round;stroke-linejoin:round;" d="
		M104,152.2L104,152.2c4-1.3,9.4-4.3,15.1-9.2c2.8-2.4,5.6-5.2,8.3-8.5c1.5-1.8,2.9-3.7,4.3-5.8c1.4-2.1,2.7-4.3,4-6.6
		c2-3.7,3.8-7.8,5.3-12.2c1.1-3.2,2-6.5,2.7-10"/>
	
		<path style="clip-path:url(#SVGID_00000065036034988422338780000000853228824748410799_);fill:none;stroke:#000000;stroke-linecap:round;stroke-linejoin:round;" d="
		M135.8,122.2l19.9-1.4l6.6-0.5c14.8,20.6,29.6,39.2,49.3,47.4"/>
	
		<path style="clip-path:url(#SVGID_00000065036034988422338780000000853228824748410799_);fill:none;stroke:#000000;stroke-linecap:round;stroke-linejoin:round;" d="
		M131.8,128.8h28.4c0,0,20.4,29,41.5,42.2"/>
	
		<path style="clip-path:url(#SVGID_00000065036034988422338780000000853228824748410799_);fill:none;stroke:#000000;stroke-linecap:round;stroke-linejoin:round;" d="
		M127.4,134.6c10.5,1.4,28.1-0.1,30.9-0.1c11.6,14.9,24.6,35,38,39.2"/>
	
		<path style="clip-path:url(#SVGID_00000065036034988422338780000000853228824748410799_);fill:none;stroke:#000000;stroke-linecap:round;stroke-linejoin:round;" d="
		M119.1,143.1c1.3,0,3.4,0.1,5.9,0.2c4.3,0.1,10,0.3,15.2,0.3c4.4,0,8.5,0,11.3-0.1c1.7-0.1,2.8-0.2,3.2-0.4
		c2.2,15.7,12.6,44.4,14.9,45.4"/>
	
		<path style="clip-path:url(#SVGID_00000065036034988422338780000000853228824748410799_);fill:none;stroke:#000000;stroke-linecap:round;stroke-linejoin:round;" d="
		M156.6,139.7c0,0,0.5,1,0.9,1.9c3.3,7.4,18.5,41.4,19.3,41.5"/>
	
		<path style="clip-path:url(#SVGID_00000065036034988422338780000000853228824748410799_);fill:none;stroke:#000000;stroke-linecap:round;stroke-linejoin:round;" d="
		M128.3,165.3c-5.9,4.3-12.6,8.3-20.3,11.1c-2.2,0.8-4.4,1.5-6.7,2.1c-1.1,0.3-2.2,0.5-3.3,0.7"/>
	
		<path style="clip-path:url(#SVGID_00000065036034988422338780000000853228824748410799_);fill:none;stroke:#000000;stroke-linecap:round;stroke-linejoin:round;" d="
		M138.8,156.5c-2,1.9-4.1,3.8-6.5,5.7c-1.3,1.1-2.6,2.1-4,3.1"/>
	
		<path style="clip-path:url(#SVGID_00000065036034988422338780000000853228824748410799_);fill:none;stroke:#000000;stroke-linecap:round;stroke-linejoin:round;" d="
		M151.4,143.5c-2,2.1-4.9,5.3-8.6,9.1c-1.3,1.3-2.6,2.6-4.1,4"/>
	
		<path style="clip-path:url(#SVGID_00000065036034988422338780000000853228824748410799_);fill:none;stroke:#000000;stroke-linecap:round;stroke-linejoin:round;" d="
		M99.7,173C99.7,173,99.8,173,99.7,173c7.5-2.1,20.7-6.3,31-16.5c3.6-3.5,6.8-7.8,9.4-12.9"/>
	
		<polyline style="clip-path:url(#SVGID_00000065036034988422338780000000853228824748410799_);fill:none;stroke:#000000;stroke-linecap:round;stroke-linejoin:round;" points="
		125,143.2 126.8,147.4 128.9,152.2 130.8,156.5 	"/>
	
		<path style="clip-path:url(#SVGID_00000065036034988422338780000000853228824748410799_);fill:none;stroke:#000000;stroke-linecap:round;stroke-linejoin:round;" d="
		M126.8,147.4c-7,4.9-13.4,8.2-23.8,11.9"/>
	
		<path style="clip-path:url(#SVGID_00000065036034988422338780000000853228824748410799_);fill:none;stroke:#000000;stroke-linecap:round;stroke-linejoin:round;" d="
		M101.8,165.1c10.2-1.3,25.1-10.8,27.1-12.9"/>
	
		<path style="clip-path:url(#SVGID_00000065036034988422338780000000853228824748410799_);fill:none;stroke:#000000;stroke-linecap:round;stroke-linejoin:round;" d="
		M150.4,152.2c0.8,9.2,1.6,25.4,2.8,27.1"/>
	
		<path style="clip-path:url(#SVGID_00000065036034988422338780000000853228824748410799_);fill:none;stroke:#000000;stroke-linecap:round;stroke-linejoin:round;" d="
		M155.7,115.1l6.6-1.7c0,0,14,15.1,26.5,13.7c0.1,0.4,0.2,0.8,0.3,1.3c4.5,16.3,10.2,33.7,44,33.6"/>
	
		<path style="clip-path:url(#SVGID_00000065036034988422338780000000853228824748410799_);fill:none;stroke:#000000;stroke-linecap:round;stroke-linejoin:round;" d="
		M191.2,115.1L191.2,115.1c9,14.9,5.7,35.4,77.6,28"/>
	
		<path style="clip-path:url(#SVGID_00000065036034988422338780000000853228824748410799_);fill:none;stroke:#000000;stroke-linecap:round;stroke-linejoin:round;" d="
		M192.5,107.9c0.1,1.5,4.2,40,75.1,28.6"/>
	
		<path style="clip-path:url(#SVGID_00000065036034988422338780000000853228824748410799_);fill:none;stroke:#000000;stroke-linecap:round;stroke-linejoin:round;" d="
		M192.8,106.3c7.6,7.1,12.7,14.3,22.1,19.1c9.7,5,23.8,7.4,49.5,4.6"/>
	
		<line style="clip-path:url(#SVGID_00000065036034988422338780000000853228824748410799_);fill:none;stroke:#000000;stroke-linecap:round;stroke-linejoin:round;" x1="201.7" y1="80" x2="215" y2="79.3"/>
	
		<line style="clip-path:url(#SVGID_00000065036034988422338780000000853228824748410799_);fill:none;stroke:#000000;stroke-linecap:round;stroke-linejoin:round;" x1="224.6" y1="83.5" x2="215" y2="99"/>
	
		<line style="clip-path:url(#SVGID_00000065036034988422338780000000853228824748410799_);fill:none;stroke:#000000;stroke-linecap:round;stroke-linejoin:round;" x1="223.4" y1="99.4" x2="232.9" y2="88.1"/>
	
		<line style="clip-path:url(#SVGID_00000065036034988422338780000000853228824748410799_);fill:none;stroke:#000000;stroke-linecap:round;stroke-linejoin:round;" x1="236.5" y1="89.4" x2="226.3" y2="103.2"/>
	
		<path style="clip-path:url(#SVGID_00000065036034988422338780000000853228824748410799_);fill:none;stroke:#000000;stroke-linecap:round;stroke-linejoin:round;" d="
		M167.6,60.1c-4.6,1.6-11.1-0.3-12,15.8c-0.3,6-0.7,11.9-1.1,17c-0.2,2.2-0.3,4.3-0.5,6.1c-0.1,1.6-0.3,3-0.3,4.2
		c-0.3,2.9-0.4,4.7-0.4,4.7s3.2,1.3,9.4,1.9c6.7,0.6,16.9,0.4,30.1-3.5c-0.1,0.5-0.2,1-0.3,1.5l0,0c-0.6,2.9-1,5.3-1.3,7.2
		c-1.3,7.5-1.2,8.1-1.2,8.1s-0.2,1.9,0.6,4.7c2.6,9,15.5,27.1,78.5,22.1l0,0"/>
	
		<path style="clip-path:url(#SVGID_00000065036034988422338780000000853228824748410799_);fill:none;stroke:#000000;stroke-linecap:round;stroke-linejoin:round;" d="
		M154.6,92.9c8.2-0.2,25.3-2.4,28.2-3.1"/>
	
		<path style="clip-path:url(#SVGID_00000065036034988422338780000000853228824748410799_);fill:none;stroke:#000000;stroke-linecap:round;stroke-linejoin:round;" d="
		M154.1,99c5.6-0.4,24.1-2.7,31-5.4"/>
	
		<path style="clip-path:url(#SVGID_00000065036034988422338780000000853228824748410799_);fill:none;stroke:#000000;stroke-linecap:round;stroke-linejoin:round;" d="
		M154.1,103.2c10.3,0,27.4-2.6,33.5-5.4"/>
	
		<polyline style="clip-path:url(#SVGID_00000065036034988422338780000000853228824748410799_);fill:none;stroke:#000000;stroke-linecap:round;stroke-linejoin:round;" points="
		175.8,78.4 182.8,89.8 185.1,93.6 187.6,97.8 192.8,106.3 	"/>
	
		<path style="clip-path:url(#SVGID_00000065036034988422338780000000853228824748410799_);fill:none;stroke:#000000;stroke-linecap:round;stroke-linejoin:round;" d="
		M118.1,69.1c4.4,7.6,11.1,19.8,16.8,20.9"/>
	
		<path style="clip-path:url(#SVGID_00000065036034988422338780000000853228824748410799_);fill:none;stroke:#000000;stroke-linecap:round;stroke-linejoin:round;" d="
		M118.3,80.2c0.7,1,1.5,2.1,2.3,3.1c1.6,2,3.4,4,5,5.8c2.2,2.4,4.2,4.2,5.1,4.7"/>
	
		<path style="clip-path:url(#SVGID_00000065036034988422338780000000853228824748410799_);fill:none;stroke:#000000;stroke-linecap:round;stroke-linejoin:round;" d="
		M105.7,85.7c3.6,3.9,8.8,10.4,18.8,10.6"/>
	
		<rect x="165.4" y="65.5" style="clip-path:url(#SVGID_00000065036034988422338780000000853228824748410799_);fill:none;stroke:#000000;stroke-linecap:round;stroke-linejoin:round;" width="5.4" height="3.5"/>
	
		<rect x="160.3" y="74.5" style="clip-path:url(#SVGID_00000065036034988422338780000000853228824748410799_);fill:none;stroke:#000000;stroke-linecap:round;stroke-linejoin:round;" width="3.9" height="2.9"/>
	
		<rect x="119.9" y="90.5" style="clip-path:url(#SVGID_00000065036034988422338780000000853228824748410799_);fill:none;stroke:#000000;stroke-linecap:round;stroke-linejoin:round;" width="3.9" height="2.9"/>
	
		<rect x="109.8" y="94.9" style="clip-path:url(#SVGID_00000065036034988422338780000000853228824748410799_);fill:none;stroke:#000000;stroke-linecap:round;stroke-linejoin:round;" width="3.9" height="2.9"/>
	
		<rect x="116" y="84.7" style="clip-path:url(#SVGID_00000065036034988422338780000000853228824748410799_);fill:none;stroke:#000000;stroke-linecap:round;stroke-linejoin:round;" width="3.9" height="2.9"/>
	
		<rect x="146.2" y="108.5" style="clip-path:url(#SVGID_00000065036034988422338780000000853228824748410799_);fill:none;stroke:#000000;stroke-linecap:round;stroke-linejoin:round;" width="3.9" height="2.9"/>
	
		<rect x="142.8" y="114.5" style="clip-path:url(#SVGID_00000065036034988422338780000000853228824748410799_);fill:none;stroke:#000000;stroke-linecap:round;stroke-linejoin:round;" width="3.9" height="2.9"/>
	
		<rect x="150" y="117.5" style="clip-path:url(#SVGID_00000065036034988422338780000000853228824748410799_);fill:none;stroke:#000000;stroke-linecap:round;stroke-linejoin:round;" width="3.9" height="2.9"/>
	
		<rect x="135.7" y="106.6" style="clip-path:url(#SVGID_00000065036034988422338780000000853228824748410799_);fill:none;stroke:#000000;stroke-linecap:round;stroke-linejoin:round;" width="3.9" height="2.9"/>
	
		<polygon style="clip-path:url(#SVGID_00000065036034988422338780000000853228824748410799_);fill:none;stroke:#000000;stroke-linecap:round;stroke-linejoin:round;" points="
		132.8,100.8 136.7,100.8 136.7,103.7 135.7,103.7 132.8,103.7 	"/>
	
		<rect x="129.2" y="108.1" style="clip-path:url(#SVGID_00000065036034988422338780000000853228824748410799_);fill:none;stroke:#000000;stroke-linecap:round;stroke-linejoin:round;" width="3.9" height="2.9"/>
	
		<rect x="122" y="117.5" style="clip-path:url(#SVGID_00000065036034988422338780000000853228824748410799_);fill:none;stroke:#000000;stroke-linecap:round;stroke-linejoin:round;" width="3.9" height="2.9"/>
	
		<rect x="125.6" y="123.7" style="clip-path:url(#SVGID_00000065036034988422338780000000853228824748410799_);fill:none;stroke:#000000;stroke-linecap:round;stroke-linejoin:round;" width="3.9" height="2.9"/>
	
		<rect x="117.3" y="126.9" style="clip-path:url(#SVGID_00000065036034988422338780000000853228824748410799_);fill:none;stroke:#000000;stroke-linecap:round;stroke-linejoin:round;" width="3.9" height="2.9"/>
	
		<polygon style="clip-path:url(#SVGID_00000065036034988422338780000000853228824748410799_);fill:none;stroke:#000000;stroke-linecap:round;stroke-linejoin:round;" points="
		111.2,182.2 107.3,182.2 107.3,179.3 108,179.3 111.2,179.3 	"/>
	
		<rect x="184.9" y="69.9" style="clip-path:url(#SVGID_00000065036034988422338780000000853228824748410799_);fill:none;stroke:#000000;stroke-linecap:round;stroke-linejoin:round;" width="3.9" height="2.9"/>
	
		<rect x="190.8" y="78.2" style="clip-path:url(#SVGID_00000065036034988422338780000000853228824748410799_);fill:none;stroke:#000000;stroke-linecap:round;stroke-linejoin:round;" width="3.9" height="2.9"/>
	
		<rect x="170.8" y="74.5" style="clip-path:url(#SVGID_00000065036034988422338780000000853228824748410799_);fill:none;stroke:#000000;stroke-linecap:round;stroke-linejoin:round;" width="3.9" height="2.9"/>
	
		<rect x="198.7" y="90.8" style="clip-path:url(#SVGID_00000065036034988422338780000000853228824748410799_);fill:none;stroke:#000000;stroke-linecap:round;stroke-linejoin:round;" width="3.9" height="2.9"/>
	
		<rect x="193.5" y="97.6" style="clip-path:url(#SVGID_00000065036034988422338780000000853228824748410799_);fill:none;stroke:#000000;stroke-linecap:round;stroke-linejoin:round;" width="3.9" height="2.9"/>
	
		<rect x="209.2" y="110.4" style="clip-path:url(#SVGID_00000065036034988422338780000000853228824748410799_);fill:none;stroke:#000000;stroke-linecap:round;stroke-linejoin:round;" width="3.9" height="2.9"/>
	
		<polygon style="clip-path:url(#SVGID_00000065036034988422338780000000853228824748410799_);fill:none;stroke:#000000;stroke-linecap:round;stroke-linejoin:round;" points="
		218.5,119.3 218.5,122.2 214.9,122.2 214.6,122.2 214.6,119.3 	"/>
	
		<rect x="230.1" y="115.2" style="clip-path:url(#SVGID_00000065036034988422338780000000853228824748410799_);fill:none;stroke:#000000;stroke-linecap:round;stroke-linejoin:round;" width="3.9" height="2.9"/>
	
		<rect x="242.1" y="122.2" style="clip-path:url(#SVGID_00000065036034988422338780000000853228824748410799_);fill:none;stroke:#000000;stroke-linecap:round;stroke-linejoin:round;" width="5.2" height="3.9"/>
	
		<rect x="225.3" y="122.2" style="clip-path:url(#SVGID_00000065036034988422338780000000853228824748410799_);fill:none;stroke:#000000;stroke-linecap:round;stroke-linejoin:round;" width="3.9" height="2.9"/>
	
		<path style="clip-path:url(#SVGID_00000065036034988422338780000000853228824748410799_);fill:none;stroke:#000000;stroke-linecap:round;stroke-linejoin:round;" d="
		M142.8,152.5c-2.5,9.2-5.9,25-10,32.9"/>
	
		<path style="clip-path:url(#SVGID_00000065036034988422338780000000853228824748410799_);fill:none;stroke:#000000;stroke-linecap:round;stroke-linejoin:round;" d="
		M117.8,198.6c8.4-13.3,15.6-27.3,20.9-42.1l0,0"/>
	
		<path style="clip-path:url(#SVGID_00000065036034988422338780000000853228824748410799_);fill:none;stroke:#000000;stroke-linecap:round;stroke-linejoin:round;" d="
		M107.9,200.1c0.2-0.2,0.3-0.4,0.5-0.7c11.3-15.5,21.3-25.2,24-37.2"/>
	
		<path style="clip-path:url(#SVGID_00000065036034988422338780000000853228824748410799_);fill:none;stroke:#000000;stroke-linecap:round;stroke-linejoin:round;" d="
		M99.3,199.2c0.1-0.1,0.2-0.3,0.3-0.4c1.7-2,3.5-4,5.3-6.1c3-3.4,6-6.7,8.8-9.9c6-6.8,11.3-13,14.5-17.5l0,0"/>
	
		<path style="clip-path:url(#SVGID_00000065036034988422338780000000853228824748410799_);fill:none;stroke:#000000;stroke-linecap:round;stroke-linejoin:round;" d="
		M193.5,58.9L193.5,58.9c1.6,2.5,8.5,10.3,9.8,13.5"/>
	
		<path style="clip-path:url(#SVGID_00000065036034988422338780000000853228824748410799_);fill:none;stroke:#000000;stroke-linecap:round;stroke-linejoin:round;" d="
		M105.6,20.5L105.6,20.5c7,3.7,18.1-1,20.1-1.1s7.4-0.4,7.1,6.8"/>
	
		<path style="clip-path:url(#SVGID_00000065036034988422338780000000853228824748410799_);fill:none;stroke:#000000;stroke-linecap:round;stroke-linejoin:round;" d="
		M127.8,19.4c-1.3,4.1-3.7,8.2-7.3,10.4"/>
	
		<path style="clip-path:url(#SVGID_00000065036034988422338780000000853228824748410799_);fill:none;stroke:#000000;stroke-linecap:round;stroke-linejoin:round;" d="
		M105.7,38.2c6.1,0,14.3-1.8,20.3-6.5c0.1-0.1,0.1-0.1,0.2-0.2"/>
	
		<path style="clip-path:url(#SVGID_00000065036034988422338780000000853228824748410799_);fill:none;stroke:#000000;stroke-linecap:round;stroke-linejoin:round;" d="
		M105.6,108.5c7.6,0,18.4-2.2,22.3-4.3l0,0"/>
	
		<path style="clip-path:url(#SVGID_00000065036034988422338780000000853228824748410799_);fill:#8D969D;stroke:#000000;stroke-miterlimit:10;" d="
		M-60.4,125.2c1,0.7,1.9,1.1,2.7,0.5c0.4-0.3,0.6-0.5,0.8-0.9c1-1.8-1-4.8-3.5-8.5V125.2z"/>
	
		<path style="clip-path:url(#SVGID_00000065036034988422338780000000853228824748410799_);fill:#8D969D;stroke:#000000;stroke-miterlimit:10;" d="
		M-60.4,135.9c0.4-0.3,0.8-0.6,1.2-1c1.4-1.4,2.2-2.9,2-3.8c0-0.2-0.1-0.4-0.3-0.5c-0.5-0.5-1.7-0.3-3,0.6v4.7H-60.4z"/>
	
		<polyline style="clip-path:url(#SVGID_00000065036034988422338780000000853228824748410799_);fill:none;stroke:#000000;stroke-linecap:round;stroke-linejoin:round;" points="
		-58.5,70.2 -50.6,66.4 -41.4,62 	"/>
	
		<polyline style="clip-path:url(#SVGID_00000065036034988422338780000000853228824748410799_);fill:none;stroke:#000000;stroke-linecap:round;stroke-linejoin:round;" points="
		-57.1,74.5 -48.6,71 -40,67.6 	"/>
	
		<polyline style="clip-path:url(#SVGID_00000065036034988422338780000000853228824748410799_);fill:none;stroke:#000000;stroke-linecap:round;stroke-linejoin:round;" points="
		-56.6,53 -50.6,66.4 -48.6,71 -43.3,83 	"/>
	
		<polyline style="clip-path:url(#SVGID_00000065036034988422338780000000853228824748410799_);fill:none;stroke:#000000;stroke-linecap:round;stroke-linejoin:round;" points="
		-58.5,1 -56.3,4.4 -38.8,31.6 	"/>
	
		<polyline style="clip-path:url(#SVGID_00000065036034988422338780000000853228824748410799_);fill:none;stroke:#000000;stroke-linecap:round;stroke-linejoin:round;" points="
		-59.4,7 -56.3,4.4 -38.8,-9.8 	"/>
	
		<path style="clip-path:url(#SVGID_00000065036034988422338780000000853228824748410799_);fill:none;stroke:#000000;stroke-linecap:round;stroke-linejoin:round;" d="
		M14.1-54.4c0,2.4-0.7,4.3-1.6,4.3c-0.9,0-1.6-1.9-1.6-4.3s0.7-4.3,1.6-4.3S14.1-56.7,14.1-54.4z"/>
	
		<path style="clip-path:url(#SVGID_00000065036034988422338780000000853228824748410799_);fill:none;stroke:#000000;stroke-linecap:round;stroke-linejoin:round;" d="
		M12.9-33.7c0,2.4-0.7,4.3-1.6,4.3c-0.9,0-1.6-1.9-1.6-4.3s0.7-4.3,1.6-4.3S12.9-36,12.9-33.7z"/>
	
		<path style="clip-path:url(#SVGID_00000065036034988422338780000000853228824748410799_);fill:none;stroke:#000000;stroke-linecap:round;stroke-linejoin:round;" d="
		M74.1-22.4c0,2.4-0.7,4.3-1.6,4.3s-1.6-1.9-1.6-4.3s0.7-4.3,1.6-4.3S74.1-24.8,74.1-22.4z"/>
	
		<path style="clip-path:url(#SVGID_00000065036034988422338780000000853228824748410799_);fill:none;stroke:#000000;stroke-linecap:round;stroke-linejoin:round;" d="
		M82.6,22.5c0,2.4-0.7,4.3-1.6,4.3s-1.6-1.9-1.6-4.3s0.7-4.3,1.6-4.3S82.6,20.1,82.6,22.5z"/>
	
		<path style="clip-path:url(#SVGID_00000065036034988422338780000000853228824748410799_);fill:none;stroke:#000000;stroke-linecap:round;stroke-linejoin:round;" d="
		M57.8-0.3c0,2.4-0.7,4.3-1.6,4.3s-1.6-1.9-1.6-4.3s0.7-4.3,1.6-4.3S57.8-2.6,57.8-0.3z"/>
	
		<path style="clip-path:url(#SVGID_00000065036034988422338780000000853228824748410799_);fill:none;stroke:#000000;stroke-linecap:round;stroke-linejoin:round;" d="
		M57.7,20.5c0,2.4-0.7,4.3-1.6,4.3s-1.6-1.9-1.6-4.3s0.7-4.3,1.6-4.3S57.7,18.2,57.7,20.5z"/>
	
		<path style="clip-path:url(#SVGID_00000065036034988422338780000000853228824748410799_);fill:none;stroke:#000000;stroke-linecap:round;stroke-linejoin:round;" d="
		M76.7-53.9c0,2.4-0.7,4.3-1.6,4.3s-1.6-1.9-1.6-4.3s0.7-4.3,1.6-4.3S76.7-56.3,76.7-53.9z"/>
	
		<path style="clip-path:url(#SVGID_00000065036034988422338780000000853228824748410799_);fill:none;stroke:#000000;stroke-linecap:round;stroke-linejoin:round;" d="
		M-42.1-36.2c0,1.8-0.6,3.2-1.2,3.2c-0.7,0-1.2-1.4-1.2-3.2s0.5-3.2,1.2-3.2S-42.1-37.9-42.1-36.2z"/>
	
		<path style="clip-path:url(#SVGID_00000065036034988422338780000000853228824748410799_);fill:none;stroke:#000000;stroke-linecap:round;stroke-linejoin:round;" d="
		M7.8-3.1c0,2.4-0.7,4.3-1.6,4.3S4.5-0.7,4.5-3.1s0.7-4.3,1.6-4.3S7.8-5.4,7.8-3.1z"/>
	
		<path style="clip-path:url(#SVGID_00000065036034988422338780000000853228824748410799_);fill:none;stroke:#000000;stroke-linecap:round;stroke-linejoin:round;" d="
		M6.3,27.6c0,2.4-0.7,4.3-1.6,4.3S3,30,3,27.6s0.7-4.3,1.6-4.3S6.3,25.2,6.3,27.6z"/>
	
		<path style="clip-path:url(#SVGID_00000065036034988422338780000000853228824748410799_);fill:none;stroke:#000000;stroke-linecap:round;stroke-linejoin:round;" d="
		M-55.5,13.9c0,2.4-0.7,4.3-1.6,4.3s-1.6-1.9-1.6-4.3s0.7-4.3,1.6-4.3S-55.5,11.5-55.5,13.9z"/>
	
		<path style="clip-path:url(#SVGID_00000065036034988422338780000000853228824748410799_);fill:none;stroke:#000000;stroke-linecap:round;stroke-linejoin:round;" d="
		M-53.6-7.9c0,2.4-0.7,4.3-1.6,4.3s-1.6-1.9-1.6-4.3s0.7-4.3,1.6-4.3S-53.6-10.3-53.6-7.9z"/>
	
		<path style="clip-path:url(#SVGID_00000065036034988422338780000000853228824748410799_);fill:none;stroke:#000000;stroke-linecap:round;stroke-linejoin:round;" d="
		M-46.9,9c-2.4,0-4.3-0.7-4.3-1.6s1.9-1.6,4.3-1.6s4.3,0.7,4.3,1.6S-44.5,9-46.9,9z"/>
	
		<path style="clip-path:url(#SVGID_00000065036034988422338780000000853228824748410799_);fill:none;stroke:#000000;stroke-linecap:round;stroke-linejoin:round;" d="
		M-3.7,10.1c0.1,0.2,0.2,0.3,0.2,0.5c0,0.9-1.9,1.6-4.3,1.6s-4.3-0.7-4.3-1.6S-10.2,9-7.8,9C-5.9,8.9-4.3,9.4-3.7,10.1z"/>
	
		<path style="clip-path:url(#SVGID_00000065036034988422338780000000853228824748410799_);fill:none;stroke:#000000;stroke-linecap:round;stroke-linejoin:round;" d="
		M21.4,15.5c-2.4,0-4.3-0.7-4.3-1.6c0-0.9,1.9-1.6,4.3-1.6s4.3,0.7,4.3,1.6C25.7,14.8,23.8,15.5,21.4,15.5z"/>
	
		<path style="clip-path:url(#SVGID_00000065036034988422338780000000853228824748410799_);fill:none;stroke:#000000;stroke-linecap:round;stroke-linejoin:round;" d="
		M67.8,13.9c-2.4,0-4.3-0.7-4.3-1.6s1.9-1.6,4.3-1.6s4.3,0.7,4.3,1.6S70.1,13.9,67.8,13.9z"/>
	
		<path style="clip-path:url(#SVGID_00000065036034988422338780000000853228824748410799_);fill:none;stroke:#000000;stroke-linecap:round;stroke-linejoin:round;" d="
		M22.8-43.8c-2.4,0-4.3-0.7-4.3-1.6s1.9-1.6,4.3-1.6s4.3,0.7,4.3,1.6S25.1-43.8,22.8-43.8z"/>
	
		<path style="clip-path:url(#SVGID_00000065036034988422338780000000853228824748410799_);fill:none;stroke:#000000;stroke-linecap:round;stroke-linejoin:round;" d="
		M60.3-39.2c-2.4,0-4.3-0.7-4.3-1.6s1.9-1.6,4.3-1.6s4.3,0.7,4.3,1.6S62.7-39.2,60.3-39.2z"/>
	
		<path style="clip-path:url(#SVGID_00000065036034988422338780000000853228824748410799_);fill:none;stroke:#000000;stroke-linecap:round;stroke-linejoin:round;" d="
		M2.2-44.3c-2.4,0-4.3-0.7-4.3-1.6s1.9-1.6,4.3-1.6s4.3,0.7,4.3,1.6S4.6-44.3,2.2-44.3z"/>
	
		<path style="clip-path:url(#SVGID_00000065036034988422338780000000853228824748410799_);fill:none;stroke:#000000;stroke-linecap:round;stroke-linejoin:round;" d="
		M-51.1-52.9c0.1,0.2,0.2,0.3,0.2,0.5c0,0.9-1.9,1.6-4.3,1.6s-4.3-0.7-4.3-1.6s1.9-1.6,4.3-1.6C-53.3-54.1-51.7-53.6-51.1-52.9z"/>
	
		<polyline style="clip-path:url(#SVGID_00000065036034988422338780000000853228824748410799_);fill:none;stroke:#000000;stroke-linecap:round;stroke-linejoin:round;" points="
		-55.2,-61.2 -49.3,-54.5 -47.2,-52 -43.2,-47.4 -34.4,-37.3 	"/>
	
		<polyline style="clip-path:url(#SVGID_00000065036034988422338780000000853228824748410799_);fill:none;stroke:#000000;stroke-linecap:round;stroke-linejoin:round;" points="
		-46.9,-61.2 -43,-56.2 -39.1,-51.3 -36.5,-48.1 	"/>
	
		<polyline style="clip-path:url(#SVGID_00000065036034988422338780000000853228824748410799_);fill:none;stroke:#000000;stroke-linecap:round;stroke-linejoin:round;" points="
		-55.5,-43.7 -47.2,-52 -43,-56.2 -38,-61.2 	"/>
	
		<path style="clip-path:url(#SVGID_00000065036034988422338780000000853228824748410799_);fill:none;stroke:#000000;stroke-linecap:round;stroke-linejoin:round;" d="
		M-57.2-33.8c0.3-0.5,7.9-7.8,14-13.6c1.5-1.4,2.9-2.8,4.1-3.9c2.1-2,3.5-3.3,3.5-3.3"/>
	
		<polyline style="clip-path:url(#SVGID_00000065036034988422338780000000853228824748410799_);fill:none;stroke:#000000;stroke-linecap:round;stroke-linejoin:round;" points="
		53,-58.2 68.1,-39.1 72.1,-34.1 87.9,-14.1 	"/>
	
		<polyline style="clip-path:url(#SVGID_00000065036034988422338780000000853228824748410799_);fill:none;stroke:#000000;stroke-linecap:round;stroke-linejoin:round;" points="
		57.7,-61.2 72.3,-42.4 76.3,-37.4 91.2,-18.1 	"/>
	
		<polyline style="clip-path:url(#SVGID_00000065036034988422338780000000853228824748410799_);fill:none;stroke:#000000;stroke-linecap:round;stroke-linejoin:round;" points="
		53.6,-27.7 68.1,-39.1 72.3,-42.4 76.6,-45.8 92.8,-58.7 	"/>
	
		<line style="clip-path:url(#SVGID_00000065036034988422338780000000853228824748410799_);fill:none;stroke:#000000;stroke-linecap:round;stroke-linejoin:round;" x1="86.7" y1="-45.7" x2="97.1" y2="-53.9"/>
	
		<polyline style="clip-path:url(#SVGID_00000065036034988422338780000000853228824748410799_);fill:none;stroke:#000000;stroke-linecap:round;stroke-linejoin:round;" points="
		53.6,-19.4 72.1,-34.1 76.3,-37.4 86.7,-45.7 	"/>
	
		<polyline style="clip-path:url(#SVGID_00000065036034988422338780000000853228824748410799_);fill:none;stroke:#000000;stroke-linecap:round;stroke-linejoin:round;" points="
		52,12.8 55.5,10.6 83.5,-6.5 87.4,-8.9 95.9,-14.1 	"/>
	
		<polyline style="clip-path:url(#SVGID_00000065036034988422338780000000853228824748410799_);fill:none;stroke:#000000;stroke-linecap:round;stroke-linejoin:round;" points="
		53.6,8.3 55.5,10.6 72.9,31.9 76.7,36.7 	"/>
	
		<polyline style="clip-path:url(#SVGID_00000065036034988422338780000000853228824748410799_);fill:none;stroke:#000000;stroke-linecap:round;stroke-linejoin:round;" points="
		82.6,38.2 86.9,34.7 89.2,32.8 97.1,26.2 	"/>
	
		<polyline style="clip-path:url(#SVGID_00000065036034988422338780000000853228824748410799_);fill:none;stroke:#000000;stroke-linecap:round;stroke-linejoin:round;" points="
		98.1,-63.8 98.2,-54 98.4,-40.8 98.8,-14.1 99,-1.1 99.1,2.1 99.5,26.2 99.7,38.2 99.7,40.6 99.7,44.5 	"/>
	
		<path style="clip-path:url(#SVGID_00000065036034988422338780000000853228824748410799_);fill:none;stroke:#000000;stroke-linecap:round;stroke-linejoin:round;" d="
		M98-40.8c-3.1-2.6-7.3-4.2-11.2-4.9l0,0c-4-0.7-7.6-0.3-9.3,1"/>
	
		<path style="clip-path:url(#SVGID_00000065036034988422338780000000853228824748410799_);fill:none;stroke:#000000;stroke-linecap:round;stroke-linejoin:round;" d="
		M98.3-37.1c-6.2-5.3-12.9-2.6-16.3,0"/>
	
		<polyline style="clip-path:url(#SVGID_00000065036034988422338780000000853228824748410799_);fill:none;stroke:#000000;stroke-linecap:round;stroke-linejoin:round;" points="
		105,-40.8 105,-40.8 119.8,-47.6 	"/>
	
		<path style="clip-path:url(#SVGID_00000065036034988422338780000000853228824748410799_);fill:none;stroke:#000000;stroke-linecap:round;stroke-linejoin:round;" d="
		M105-38.6L105-38.6c0.5-0.2,15.9-7.3,19.1-7.3"/>
	
		<line style="clip-path:url(#SVGID_00000065036034988422338780000000853228824748410799_);fill:none;stroke:#000000;stroke-linecap:round;stroke-linejoin:round;" x1="105.4" y1="-2.2" x2="120.5" y2="-7.4"/>
	
		<path style="clip-path:url(#SVGID_00000065036034988422338780000000853228824748410799_);fill:none;stroke:#000000;stroke-linecap:round;stroke-linejoin:round;" d="
		M105.75-6.15L105.75-6.15c0.9-0.4,16.3-6.7,18.7-7"/>
	
		<path style="clip-path:url(#SVGID_00000065036034988422338780000000853228824748410799_);fill:none;stroke:#000000;stroke-linecap:round;stroke-linejoin:round;" d="
		M99.1-1.1L99.1-1.1c-0.4-0.3-6.4-4.6-11.7-7.8c-2.7-1.7-5.3-3-6.6-3.3"/>
	
		<path style="clip-path:url(#SVGID_00000065036034988422338780000000853228824748410799_);fill:none;stroke:#000000;stroke-linecap:round;stroke-linejoin:round;" d="
		M99.7,2.4c0,0-0.2-0.1-0.7-0.4c-2.2-1.3-9.8-5.5-15.6-8.5c-3.6-1.9-6.5-3.3-7.1-3.3"/>
	
		<path style="clip-path:url(#SVGID_00000065036034988422338780000000853228824748410799_);fill:none;stroke:#000000;stroke-linecap:round;stroke-linejoin:round;" d="
		M99.7,38.2L99.7,38.2c-0.5-0.2-5.4-2.7-10.5-5.4c-5-2.6-10.2-5.4-11.7-6.6"/>
	
		<path style="clip-path:url(#SVGID_00000065036034988422338780000000853228824748410799_);fill:none;stroke:#000000;stroke-linecap:round;stroke-linejoin:round;" d="
		M99.1,40.6c0,0-6-3.1-12.1-6c-4.6-2.2-9.3-4.2-11.5-4.8"/>
	
		<line style="clip-path:url(#SVGID_00000065036034988422338780000000853228824748410799_);fill:none;stroke:#000000;stroke-linecap:round;stroke-linejoin:round;" x1="105.7" y1="42.4" x2="116" y2="39.9"/>
	
		<line style="clip-path:url(#SVGID_00000065036034988422338780000000853228824748410799_);fill:none;stroke:#000000;stroke-linecap:round;stroke-linejoin:round;" x1="98" y1="44.5" x2="98.9" y2="108.5"/>
	
		<polyline style="clip-path:url(#SVGID_00000065036034988422338780000000853228824748410799_);fill:none;stroke:#000000;stroke-linecap:round;stroke-linejoin:round;" points="
		99.7,44.5 100.7,73.2 100.9,77.3 101.8,104.3 	"/>
	
		<path style="clip-path:url(#SVGID_00000065036034988422338780000000853228824748410799_);fill:none;stroke:#000000;stroke-linecap:round;stroke-linejoin:round;" d="
		M98,75.5c-3.9-5.3-12.5-12.9-16.7-13.9"/>
	
		<path style="clip-path:url(#SVGID_00000065036034988422338780000000853228824748410799_);fill:none;stroke:#000000;stroke-linecap:round;stroke-linejoin:round;" d="
		M98,81.2C92.8,74.7,87.6,68,81.3,64.8"/>
	
		<line style="clip-path:url(#SVGID_00000065036034988422338780000000853228824748410799_);fill:none;stroke:#000000;stroke-linecap:round;stroke-linejoin:round;" x1="100.7" y1="73.2" x2="105.6" y2="72.3"/>
	
		<path style="clip-path:url(#SVGID_00000065036034988422338780000000853228824748410799_);fill:none;stroke:#000000;stroke-linecap:round;stroke-linejoin:round;" d="
		M100.7,77.4c0,0,0,0,0.1-0.1c0.7-0.6,3.8-3.1,4.8-1.4l0,0l0,0"/>
	
		<path style="clip-path:url(#SVGID_00000065036034988422338780000000853228824748410799_);fill:none;stroke:#000000;stroke-linecap:round;stroke-linejoin:round;" d="
		M91.5,198.6l1-22.2l1.1-26.5l0.1-3l1.5-35c-2.1-1.9-4.2-3.4-6.1-4.6c-0.1-0.1-0.2-0.1-0.3-0.2c-4-2.5-7.2-3.5-8.3-3.5"/>
	
		<path style="clip-path:url(#SVGID_00000065036034988422338780000000853228824748410799_);fill:none;stroke:#000000;stroke-linecap:round;stroke-linejoin:round;" d="
		M94.8,189.3l1.4-27.2l0.6-11.4l0.3-4.7l1.7-32.8c0,0,4.9-3.7,6.1-3.8"/>
	
		<path style="clip-path:url(#SVGID_00000065036034988422338780000000853228824748410799_);fill:none;stroke:#000000;stroke-linecap:round;stroke-linejoin:round;" d="
		M95.1,115.1c0,0-4.1-2.5-5.3-3.2"/>
	
		<path style="clip-path:url(#SVGID_00000065036034988422338780000000853228824748410799_);fill:none;stroke:#000000;stroke-linecap:round;stroke-linejoin:round;" d="
		M93.8,146.9c0,0-12.5-11.4-14.9-11.4"/>
	
		<path style="clip-path:url(#SVGID_00000065036034988422338780000000853228824748410799_);fill:none;stroke:#000000;stroke-linecap:round;stroke-linejoin:round;" d="
		M93.6,149.9c-4.5-1.7-21.4-11.3-22.5-14.4"/>
	
		<path style="clip-path:url(#SVGID_00000065036034988422338780000000853228824748410799_);fill:none;stroke:#000000;stroke-linecap:round;stroke-linejoin:round;" d="
		M97.1,146.1L97.1,146.1c1.5-0.5,4.4-1.9,7.5-3.2c2.9-1.3,6-2.4,8-2.6"/>
	
		<path style="clip-path:url(#SVGID_00000065036034988422338780000000853228824748410799_);fill:none;stroke:#000000;stroke-linecap:round;stroke-linejoin:round;" d="
		M97.1,150.8c2.8-1.3,5.2-2.6,7.3-3.8c3.3-1.8,5.8-3.2,7.4-3.5"/>
	
		<path style="clip-path:url(#SVGID_00000065036034988422338780000000853228824748410799_);fill:none;stroke:#000000;stroke-linecap:round;stroke-linejoin:round;" d="
		M97.1,162.2c0,0,1.1,4.4,2.7,10.7v0.1c0.4,1.7,0.9,3.6,1.4,5.6c1.1,4.5,2.4,9.4,3.7,14.2c0.6,2.2,1.2,4.4,1.8,6.5
		c2.6,9.2,4.9,16.9,5.9,18"/>
	
		<path style="clip-path:url(#SVGID_00000065036034988422338780000000853228824748410799_);fill:none;stroke:#000000;stroke-linecap:round;stroke-linejoin:round;" d="
		M95.9,176.7c0,0,0.4,2.5,1,6.2c0.7,4.3,1.7,10.2,2.8,15.9l0.1,0.4c1.6,8.6,3.3,16.7,4.3,18"/>
	
		<line style="clip-path:url(#SVGID_00000065036034988422338780000000853228824748410799_);fill:none;stroke:#000000;stroke-linecap:round;stroke-linejoin:round;" x1="100.7" y1="-63.8" x2="101.8" y2="44.3"/>
	
		<path style="clip-path:url(#SVGID_00000065036034988422338780000000853228824748410799_);fill:none;stroke:#000000;stroke-linecap:round;stroke-linejoin:round;" d="
		M97.1,110.4c0.7-0.2,1.5-0.7,2.2-1.3c2.2-1.6,4.5-3.9,6.1-2.5"/>
	
		<path style="clip-path:url(#SVGID_00000065036034988422338780000000853228824748410799_);fill:none;stroke:#000000;stroke-linecap:round;stroke-linejoin:round;" d="
		M154.7,143.1c0,0,1-1.5,2-3.4c0.9-1.7,1.7-3.7,1.7-5.2"/>
	
		<line style="clip-path:url(#SVGID_00000065036034988422338780000000853228824748410799_);fill:none;stroke:#000000;stroke-linecap:round;stroke-linejoin:round;" x1="162.3" y1="29.9" x2="168.5" y2="31.6"/>
	
		<line style="clip-path:url(#SVGID_00000065036034988422338780000000853228824748410799_);fill:none;stroke:#000000;stroke-linecap:round;stroke-linejoin:round;" x1="172.7" y1="33.2" x2="177" y2="36.7"/>
	
		<path style="clip-path:url(#SVGID_00000065036034988422338780000000853228824748410799_);fill:none;stroke:#000000;stroke-linecap:round;stroke-linejoin:round;" d="
		M169.3,36c0,2.8,0.2,6.4,0,7.6c-0.2,1.1-2.1,1.6-3.9,1.4"/>
	
		<path style="clip-path:url(#SVGID_00000065036034988422338780000000853228824748410799_);fill:none;stroke:#000000;stroke-linecap:round;stroke-linejoin:round;" d="
		M158.4,49.2c0.4,0.4,2.6,1.9,3.6,1.8"/>
	
		<ellipse style="clip-path:url(#SVGID_00000065036034988422338780000000853228824748410799_);fill:#333333;" cx="167.94" cy="20.64" rx="1.83" ry="1.17"/>
	
		<ellipse transform="matrix(0.5743 -0.8186 0.8186 0.5743 55.5591 155.9128)" style="clip-path:url(#SVGID_00000065036034988422338780000000853228824748410799_);fill:#333333;" cx="177.7" cy="24.53" rx="1.17" ry="1.83"/>
</g>
</svg>
