<?xml version="1.0" encoding="UTF-8"?>
<svg id="_レイヤー_1" data-name="レイヤー 1" xmlns="http://www.w3.org/2000/svg" viewBox="0 0 269.36 264.67">
  <defs>
    <style>
      .cls-1 {
        fill: #f1d6cf;
      }

      .cls-1, .cls-2, .cls-3, .cls-4, .cls-5, .cls-6, .cls-7, .cls-8, .cls-9, .cls-10, .cls-11, .cls-12, .cls-13, .cls-14, .cls-15, .cls-16, .cls-17, .cls-18, .cls-19, .cls-20, .cls-21, .cls-22 {
        stroke-width: 0px;
      }

      .cls-2 {
        fill: #da5045;
      }

      .cls-3 {
        fill: #47414f;
      }

      .cls-4 {
        fill: #80596c;
      }

      .cls-23, .cls-24 {
        stroke: #000;
      }

      .cls-23, .cls-24, .cls-25 {
        fill: none;
      }

      .cls-23, .cls-25 {
        stroke-miterlimit: 10;
      }

      .cls-5 {
        fill: #497e54;
      }

      .cls-6 {
        fill: #d6c34d;
      }

      .cls-7 {
        fill: #96d0a8;
      }

      .cls-24 {
        stroke-linecap: round;
        stroke-linejoin: round;
      }

      .cls-8 {
        fill: #fefdf8;
      }

      .cls-9 {
        fill: #3e6d4b;
      }

      .cls-10 {
        fill: #8d969d;
      }

      .cls-11 {
        fill: #333;
      }

      .cls-12 {
        fill: #559ec1;
      }

      .cls-13 {
        fill: #aeaeb6;
      }

      .cls-14 {
        fill: #8b3333;
      }

      .cls-25 {
        stroke: #333;
      }

      .cls-15 {
        fill: #faffff;
      }

      .cls-16 {
        fill: #414244;
      }

      .cls-17 {
        fill: #346182;
      }

      .cls-18 {
        fill: #d95347;
      }

      .cls-19 {
        fill: #ed9faf;
      }

      .cls-20 {
        fill: #2e3a6a;
      }

      .cls-21 {
        fill: #8ac99e;
      }

      .cls-22 {
        fill: #d53c36;
      }
    </style>
  </defs>
  <g>
    <rect class="cls-15" x="265.3" y="237.4" width="3.56" height="26.77"/>
    <polygon class="cls-15" points="268.86 226.38 268.86 237.4 265.3 237.4 257.88 226.38 268.86 226.38"/>
    <path class="cls-7" d="m121.14,204.29l3.78,2.14,2.94-2.72s4.13.43,4.49.43c.29,0,3.36-6.14,6.22-9.86,3.79.58,8.92-2.35,14.5-4.35l5.49,7.43,6.22-.86v-.05s.57-4.3.57-4.3l4.63.62.09.02,3.35.42,4.94.65,1.78-4.29,3.73-3.66.06-.06,3.86-1.85,2.21,1.43,4.14-3.71h11.14s2.86-2.93,4.79-4.15c.08-.05.15-.09.22-.14.35-.22.71-.43,1-.43,1.64-.22,17.06-.07,21.85-2.93,1.93-1.14,2.64-3.07,2.85-5.14.15-1.62,0-3.3-.27-4.86,0-.02-.01-.04-.01-.07-.26-1.49-.55-2.8-.69-3.78h33.84v66.16H93.64c.17-.06.37-.14.58-.23.01-.01.03-.02.05-.03.99-.43,2.33-1.14,4.23-2.33,2.36-1.5,5.57-7.58,8.79-15.5.02-.06.04-.11.07-.17l.06.02,7.29-4h6.21l.22.15Z"/>
    <polygon class="cls-17" points="268.86 149.14 268.86 160.22 265.1 160.22 259.29 149.14 268.86 149.14"/>
    <rect class="cls-12" x="261.27" y="237.4" width="4.03" height="26.77"/>
    <polygon class="cls-12" points="257.88 226.38 265.3 237.4 261.27 237.4 253.85 226.38 257.88 226.38"/>
    <polygon class="cls-12" points="259.29 149.14 265.1 160.22 260.57 160.22 254.75 149.14 259.29 149.14"/>
    <rect class="cls-17" x="247.48" y="237.4" width="13.79" height="26.77"/>
    <polygon class="cls-17" points="253.85 226.38 261.27 237.4 247.48 237.4 240.06 226.38 253.85 226.38"/>
    <polygon class="cls-15" points="254.75 149.14 260.57 160.22 248.47 160.22 242.64 149.14 254.75 149.14"/>
    <polygon class="cls-19" points="242.64 149.14 248.47 160.22 242.78 160.22 236.96 149.14 242.64 149.14"/>
    <rect class="cls-12" x="243.47" y="237.4" width="4.01" height="26.77"/>
    <polygon class="cls-12" points="240.06 226.38 247.48 237.4 243.47 237.4 236.05 226.38 240.06 226.38"/>
    <rect class="cls-15" x="218.59" y="237.4" width="24.88" height="26.77"/>
    <polygon class="cls-15" points="236.05 226.38 243.47 237.4 218.59 237.4 211.16 226.38 236.05 226.38"/>
    <path class="cls-22" d="m236.96,149.14l5.82,11.08h-7.76c-.01-.06-.02-.1-.03-.15,0-.26-.06-.46-.12-.72-.01,0-.01-.04-.01-.07-.43-1.35-1.22-2.92-2.3-4.56-1.26-1.94-2.79-3.93-4.09-5.58h8.49Z"/>
    <path class="cls-9" d="m235.72,164.07c.27,1.56.42,3.24.27,4.86h-.07c-45,3.57-54.2-9.36-56.07-15.78-.03-.12-.07-.24-.09-.35-.46-1.81-.34-3.01-.34-3.01,0,0-.06-.43.84-5.71h.02c6.43,10.64,4.08,25.27,55.43,19.99h.01Z"/>
    <path class="cls-18" d="m235.92,168.93h.07c-.21,2.07-.92,4-2.85,5.14-4.79,2.86-20.21,2.71-21.85,2.93-.29,0-.65.21-1,.43-.07.05-.14.09-.22.14-24.02.03-28.08-12.38-31.29-24-.03-.18-.07-.34-.11-.49l1.09-.28c.02.11.06.23.09.35,1.87,6.42,11.07,19.35,56.07,15.78Z"/>
    <path class="cls-6" d="m235.02,160.22c.14.98.43,2.29.69,3.78,0,.03.01.05.01.07h-.01c-51.35,5.28-49-9.35-55.43-19.99h-.02s.01-.06.02-.08c.21-1.34.49-3.03.91-5.07h.02c.07,1.07,3,28.57,53.65,20.43h.01c.06.25.12.45.12.71.01.05.02.09.03.15Z"/>
    <path class="cls-20" d="m234.86,159.28s0,.06.01.07h-.01c-50.65,8.15-53.58-19.35-53.65-20.42h-.02s.01-.04.02-.07c.07-.36.15-.72.21-1.08,4.76,4.45,8.13,8.94,13.41,12.28.75.48,1.55.94,2.38,1.37,6.93,3.57,17,5.29,35.35,3.29,1.08,1.64,1.87,3.21,2.3,4.56Z"/>
    <path class="cls-4" d="m201.22,146.02c-1.4-2.52-3.29-6.22-5.3-10.37,0-.02-.01-.05-.03-.06l.03-.02c2.22,1.22,5.22,2.5,8.29,3.57.43.15.86.29,1.29.43,3.64,1.21,7.14,2.15,9.14,2.36,3.85.43,10.5,3.07,13.15,6.36.21.27.44.56.67.85h.01c1.3,1.65,2.83,3.64,4.09,5.58-18.35,2-28.42.28-35.35-3.29-.83-.43-1.63-.89-2.38-1.37l2.17-.92h2.78v-2.06l1.44-1.06Zm19.14,5.91v-2.79h-3.72v2.79h3.72Zm-9.51-5.72v-2.07h-2.78v2.07h2.78Zm-3.43,5v-2.07h-2.78v2.07h2.78Z"/>
    <rect class="cls-13" x="216.64" y="149.14" width="3.72" height="2.79"/>
    <rect class="cls-21" x="214.55" y="237.4" width="4.04" height="26.77"/>
    <polygon class="cls-21" points="211.16 226.38 218.59 237.4 214.55 237.4 207.13 226.38 211.16 226.38"/>
    <path class="cls-18" d="m215.57,126.79l-9.86,11.99-1.5.36c-3.07-1.07-6.07-2.35-8.29-3.57l-.03.02c-.33-.68-.66-1.37-1-2.06l2.39-.95,6.86-11.07v-.08l5.92,1.29v1.92l2.51,1,3,1.15Z"/>
    <rect class="cls-5" x="200.77" y="237.4" width="13.78" height="26.77"/>
    <polygon class="cls-5" points="207.13 226.38 214.55 237.4 200.77 237.4 193.34 226.38 207.13 226.38"/>
    <rect class="cls-13" x="208.07" y="144.14" width="2.78" height="2.07"/>
    <path class="cls-4" d="m178.78,153.57c3.21,11.62,7.27,24.03,31.29,24-1.93,1.22-4.79,4.15-4.79,4.15h-10.42v-.08c-14.08-5.86-24.65-19.14-35.22-33.85l-4.72.35v-.28s-.21-1.43-.64-3.65v-.02l.64-.11,4.72-1.22s10,10.78,18.93,9.78c.03.15.07.29.1.44.04.15.08.31.11.49Z"/>
    <rect class="cls-13" x="204.64" y="149.14" width="2.78" height="2.07"/>
    <path class="cls-18" d="m204.57,118.43l-.43,3v.08l-6.86,11.07-2.39.95c-1.35-2.78-2.77-5.69-4.14-8.47-1.03-2.09-2.03-4.12-2.96-5.99-.01-.02-.02-.03-.03-.05l.03-.02,9.49-.49v-.08h7.29Z"/>
    <path class="cls-4" d="m201.22,146.02l-1.44,1.06h-2.78v2.06l-2.17.92c-5.28-3.34-8.65-7.83-13.41-12.28l-1.7-2.78,2.21-1.35h2.78v-2.07l.93-2.79h2.79v-2.08l2.32-1.65c1.37,2.78,2.79,5.69,4.14,8.47.34.69.67,1.38,1,2.06.02,0,.03.04.03.06,2.01,4.15,3.9,7.85,5.3,10.37Zm-5.3-3.24v-2.06h-2.78v2.06h2.78Z"/>
    <rect class="cls-21" x="196.76" y="237.4" width="4.01" height="26.77"/>
    <polygon class="cls-21" points="193.34 226.38 200.77 237.4 196.76 237.4 189.33 226.38 193.34 226.38"/>
    <polygon class="cls-13" points="199.78 147.08 199.78 149.14 197.21 149.14 197 149.14 197 147.08 199.78 147.08"/>
    <path class="cls-18" d="m181.93,103.93c.43.36.85.64,1.21.79,3.35,1.5,6.22,3.64,9,6.36,2.78,2.78,5.14,7.35,5.14,7.35v.08l-9.49.49-.03.02c-1.5-2.9-2.84-5.39-3.83-7.16-4.98-8.74-10.52-8.85-15.5-8.64,2.21-.93,4.5-2.36,6.21-4.43.65-.86,1.14-2,1.5-3.36,0,0,2.86,6,5.79,8.5Z"/>
    <rect class="cls-15" x="171.87" y="237.4" width="24.89" height="26.77"/>
    <polygon class="cls-15" points="189.33 226.38 196.76 237.4 171.87 237.4 164.45 226.38 189.33 226.38"/>
    <rect class="cls-13" x="193.14" y="140.72" width="2.78" height="2.06"/>
    <path class="cls-20" d="m194.86,181.64v.08h-.72l-4.14,3.71-2.21-1.43c-15.08-9.43-29.65-30.14-29.65-30.14h-20.28l-.08-.07c1-1.49,1.93-3.06,2.85-4.7l.08.05,14.21-1,4.72-.35c10.57,14.71,21.14,27.99,35.22,33.85Z"/>
    <path class="cls-4" d="m174.29,126c-2.08.5-14.29,2.07-20.15,2.22h-.07c.29-3.64.57-7.86.78-12.14.65-11.51,5.29-10.15,8.58-11.3v-.35h.07c1.36-.07,3.07-.42,4.92-1.21h.01c4.98-.21,10.52-.1,15.5,8.64.99,1.77,2.33,4.26,3.83,7.16.01.02.02.03.03.05.93,1.87,1.93,3.9,2.96,5.99l-2.32,1.65h-2.79v2.08l-.93,2.79h-2.78v2.07l-2.21,1.35-2.01-3.29-1.78-3-1.64-2.71Zm8.49-6.21v-2.07h-2.78v2.07h2.78Zm-4.21-5.93v-2.07h-2.79v2.07h2.79Zm-10.07,3.29v-2.07h-2.79v2.07h2.79Zm-2.79-6.01v-2.49h-3.85v2.49h3.85Zm-4.71,6.01v-2.07h-2.79v2.07h2.79Z"/>
    <rect class="cls-13" x="185.64" y="126.71" width="2.79" height="2.08"/>
    <path class="cls-6" d="m156.85,158.02l-.06-.09c-2,0-14.58,1.07-22.08.07l-.03-.02s.02-.03.03-.05c1.07-1.29,2.07-2.65,3.07-4.14l.08.07h20.28s14.57,20.71,29.65,30.14l-3.86,1.85-.06.06c-9.53-3.03-18.77-17.29-27.02-27.89Z"/>
    <rect class="cls-13" x="181.93" y="131.58" width="2.78" height="2.07"/>
    <path class="cls-9" d="m183.87,185.91l-3.73,3.66-1.78,4.29-4.94-.65-3.35-.42-.09-.02v-.13c-.56-.07-11.42-24.35-13.77-29.64-.24-.52-.51-1.09-.6-1.29.01-.02.02-.04.03-.07.62-1.18,1.19-2.56,1.21-3.62,8.25,10.6,17.49,24.86,27.02,27.89Z"/>
    <rect class="cls-13" x="180" y="117.72" width="2.78" height="2.07"/>
    <path class="cls-9" d="m179.72,135l1.7,2.78c-9.42,2.79-16.71,2.94-21.5,2.51-3.95-.39-6.19-1.17-6.63-1.34-.01,0-.01-.01-.01-.02-.02-.08-.03-.16-.05-.23v-.02c.03-.47.1-1.57.27-3.11h.29c7.35,0,19.56-1.86,23.92-3.86l2.01,3.29Z"/>
    <path class="cls-18" d="m181.42,137.78c-.06.36-.14.72-.21,1.08-.01.03-.01.04-.02.07-.42,2.04-.7,3.73-.91,5.07-.01.02-.01.05-.02.08-.9,5.28-.84,5.71-.84,5.71,0,0-.12,1.2.34,3.01l-1.09.28c-.03-.15-.07-.29-.1-.44-8.93,1-18.93-9.78-18.93-9.78l-4.72,1.22-.64.11c-.28-1.48-.64-3.32-.99-5.24.44.17,2.68.95,6.63,1.34,4.79.43,12.08.28,21.5-2.51Z"/>
    <rect class="cls-13" x="175.78" y="111.79" width="2.79" height="2.07"/>
    <path class="cls-6" d="m175.93,128.71l1.78,3c-4.36,2-16.57,3.86-23.92,3.86h-.29c0-.86.14-1.86.21-2.99h.08c4-.29,17.2-1.94,22.14-3.87Z"/>
    <path class="cls-11" d="m119.21,115.98s-.05.01-.07.02v-19.5s.05-.04.07-.07c2.87-2.46,14.72-12,14.72-12,1.71-1.43,3.28-2.64,4.71-3.79,1-.85,17.71-14.71,24.14-14.92,6.43-.22,12.36,1.57,13,9.72.43,6.49,1.64,14.78.36,19.99-.36,1.36-.85,2.5-1.5,3.36-1.71,2.07-4,3.5-6.21,4.43h-.01c-1.85.79-3.56,1.14-4.92,1.21h-.93c-2.49-.14-.45-2.54,1.33-5.04l-.04-.03s.01-.03.03-.05c.14-.21.33-.47.46-.66,1.93-2.79,8.15-10.07,8.29-14.01.14-3,.07-7.78-1.14-10.5-.36-.85-.86-1.49-1.43-1.85-.57.21-1.08.43-1.65.57-4.35,1.64-8.07,3.64-10.28,3.71-2.85,3.77-6.05,8.41-9.18,12.6l-3.68,4.83c-.92,1.22-1.86,2.29-2.71,3.29-1.28,1.5-2.5,2.72-3.5,3.57-.58.48-1.18,1.02-1.81,1.62-.14.14-.32.3-.5.47-1.26,1.23-3.26,3.19-3.26,3.19-1.64,1.72-3.51,3.51-5.5,5.07-2.63,2.13-5.53,3.91-8.79,4.77Z"/>
    <path class="cls-20" d="m174.29,126l1.64,2.71c-4.94,1.93-18.14,3.58-22.14,3.87h-.08c.14-1.29.21-2.79.36-4.36h.07c5.86-.15,18.07-1.72,20.15-2.22Z"/>
    <path class="cls-1" d="m171.5,74.14c1.21,2.72,1.28,7.5,1.14,10.5-.14,3.94-6.36,11.22-8.29,14.01-.13.19-.32.45-.46.66l-.03-.02c-1.94,1.85-3.94,2.64-7.65,2.72-1.42,0-3.07-.08-5.14-.22-.38,0-.76-.03-1.13-.1-.2-.03-.39-.07-.58-.12h-.04c-1.42-.29-2.61-.79-3.68-1.43-1.57-.85-2.64-2-3.07-2.85.85-1,1.79-2.07,2.71-3.29l3.68-4.83c3.13-4.19,6.33-8.83,9.18-12.6,2.21-.07,5.93-2.07,10.28-3.71.57-.14,1.08-.36,1.65-.57.57.36,1.07,1,1.43,1.85Zm.21,6c.27-.39,0-1.03-.59-1.44-.59-.42-1.29-.45-1.55-.07-.27.38,0,1.02.59,1.44.6.41,1.29.44,1.55.07Zm-.81,7.01l-3.22-.26c1.26.27,2.59.6,3.22.26Zm-4.56-10c.13-.55-.42-1.16-1.24-1.36-.82-.19-1.59.1-1.73.65-.13.57.43,1.18,1.25,1.37s1.59-.1,1.72-.66Zm-2.71,8.05l-2.28-1.98c.35.77,1.28,1.39,2.28,1.98Zm-3.18,13.27c.08-.24-.32-.6-.89-.8-.58-.2-1.12-.16-1.19.08-.09.24.31.6.88.79.58.21,1.11.17,1.2-.07Z"/>
    <rect class="cls-19" x="167.84" y="237.4" width="4.03" height="26.77"/>
    <polygon class="cls-19" points="164.45 226.38 171.87 237.4 167.84 237.4 160.41 226.38 164.45 226.38"/>
    <path class="cls-11" d="m171.12,78.7c.59.41.86,1.05.59,1.44-.26.37-.95.34-1.55-.07-.59-.42-.86-1.06-.59-1.44.26-.38.96-.35,1.55.07Z"/>
    <path class="cls-18" d="m169.99,192.64v.13s-4.64-.62-4.64-.62l-.56,4.3c-1.78-1.23-9.03-21.32-10.58-32.38,0,0,.69-1.03,1.4-2.36.09.2.36.77.6,1.29,2.35,5.29,13.21,29.57,13.78,29.64Z"/>
    <rect class="cls-13" x="165.71" y="115.08" width="2.79" height="2.07"/>
    <rect class="cls-22" x="154.05" y="237.4" width="13.79" height="26.77"/>
    <polygon class="cls-22" points="160.41 226.38 167.84 237.4 154.05 237.4 146.63 226.38 160.41 226.38"/>
    <path class="cls-11" d="m165.1,75.79c.82.2,1.37.81,1.24,1.36-.13.56-.9.85-1.72.66s-1.38-.8-1.25-1.37c.14-.55.91-.84,1.73-.65Z"/>
    <rect class="cls-13" x="161.86" y="108.65" width="3.85" height="2.49"/>
    <path class="cls-18" d="m164.79,196.45v.05s-6.23.86-6.23.86l-5.49-7.43c-5.58,2-10.71,4.93-14.5,4.35,2.91-5.61,5.33-16.82,7.12-23.4.01,0,.02-.01.03-.02,2.64-2.72,4.71-5,6.13-6.5h.07c1.22-.07,2-.14,2.29-.29,1.55,11.06,8.8,31.15,10.58,32.38Z"/>
    <path class="cls-4" d="m130.15,121.71l-.8.65h-2.78v2.07h2.78v4.15h2.79v-2.08l1.29-1c-1.05-1.18-2.22-2.48-3.28-3.79Zm33.71-22.35l.04.03c-1.78,2.5-3.82,4.9-1.33,5.04h.86v.35c-3.29,1.15-7.93-.21-8.58,11.3-.21,4.28-.49,8.5-.78,12.14-.15,1.57-.22,3.07-.36,4.36-.07,1.13-.21,2.13-.21,2.99-.17,1.54-.24,2.64-.27,3.11-.85-4.15-1.82-8.66-2.66-11.04-1.79-5.07-5.72-.85-9.64,2.22-.93.72-2.22,2.07-3.64,3.79-.71.83-1.41,1.76-2.18,2.66l-.04-.02c-2.78,1.49-10.5,3.07-15.93,3.07h-.07v-1.35c.07-6.87.14-14.22.14-21.93v-.1c3.26-.86,6.16-2.64,8.79-4.77,1.99-1.56,3.86-3.35,5.5-5.07l11.14,14.15,11.57-18.22v-.06c3.71-.08,5.71-.87,7.65-2.72l.03.02s-.03.04-.03.05Zm-38.94,32.35v-2.07h-2.78v2.07h2.78Z"/>
    <rect class="cls-13" x="158.21" y="115.08" width="2.79" height="2.07"/>
    <path class="cls-14" d="m159.56,97.67c.57.2.97.56.89.8-.09.24-.62.28-1.2.07-.57-.19-.97-.55-.88-.79.07-.24.61-.28,1.19-.08Z"/>
    <path class="cls-9" d="m155.61,161.71c-.71,1.33-1.4,2.36-1.4,2.36-.29.15-1.07.22-2.29.29h-.07c-1.99.07-4.89.07-8,.07h-.07c-3.67,0-7.7-.14-10.75-.21h-.04c-1.77-.08-3.28-.15-4.21-.15l-.03-.04s.02-.02.03-.03c1.99-1.71,3.98-3.69,5.9-6.02l.03.02c7.5,1,20.08-.07,22.08-.07l.06.09c-.02,1.06-.59,2.44-1.21,3.62-.01.03-.02.05-.03.07Z"/>
    <path class="cls-18" d="m156.21,102.01v.06l-11.57,18.22-11.14-14.15s2-1.96,3.26-3.19l.63.24,6.5,8.6,6.01-9.89.04-.21c.37.07.75.1,1.13.1,2.07.14,3.72.22,5.14.22Z"/>
    <path class="cls-4" d="m144.42,140.36l-1-.29v-2.06h-2.06v-4.15h-2.79l-1.28-.21c1.42-1.72,2.71-3.07,3.64-3.79,3.92-3.07,7.85-7.29,9.64-2.22.84,2.38,1.81,6.89,2.66,11.04v.02c-.02.15-.02.23-.02.23,0,0,.03.01.08.02.35,1.92.71,3.76.99,5.24v.02c.43,2.22.64,3.65.64,3.65v.28l-14.21,1-.08-.05s.01-.01.01-.01c1.43-2.65,2.72-5.58,3.78-8.72Zm9.22,7.5v-2.07h-2.79v2.07h2.79Zm-2.72-6.43v-2.07h-2.78v2.07h2.78Zm-2.43,4.29v-2.07h-2.77v2.07h2.77Z"/>
    <rect class="cls-19" x="150.04" y="237.4" width="4.01" height="26.77"/>
    <polygon class="cls-19" points="146.63 226.38 154.05 237.4 150.04 237.4 142.62 226.38 146.63 226.38"/>
    <rect class="cls-13" x="150.85" y="145.79" width="2.79" height="2.07"/>
    <rect class="cls-13" x="148.14" y="139.36" width="2.78" height="2.07"/>
    <rect class="cls-15" x="125.16" y="237.4" width="24.88" height="26.77"/>
    <polygon class="cls-15" points="142.62 226.38 150.04 237.4 125.16 237.4 117.73 226.38 142.62 226.38"/>
    <path class="cls-1" d="m149.94,101.69l-.04.21-6.01,9.89-6.5-8.6-.63-.24c.18-.17.36-.33.5-.47.63-.6,1.23-1.14,1.81-1.62,1-.85,2.22-2.07,3.5-3.57.43.85,1.5,2,3.07,2.85,1.07.64,2.26,1.14,3.68,1.43h.04c.19.05.38.09.58.12Z"/>
    <path class="cls-18" d="m135.22,180.03c-4.18,3.03-8.93,5.84-14.36,7.82-.37.14-.73.27-1.1.39-1.21.42-2.44.79-3.69,1.12-.03.01-.05.02-.08.02-.36-1.41-.71-2.76-.99-3.95v-.02c5.36-1.51,14.75-4.51,22.07-11.76.02-.02.04-.04.05-.06,2.55-2.49,4.82-5.54,6.66-9.16h.07c3.11,0,6.01,0,8-.07-1.42,1.5-3.49,3.78-6.13,6.5-.01.01-.02.02-.03.02-.91.9-1.8,1.8-2.84,2.77-.02.02-.04.04-.07.06l-.03.03c-1.39,1.31-2.84,2.62-4.5,3.94-.01.01-.02.03-.04.04-.92.78-1.86,1.49-2.86,2.21-.04.03-.09.07-.13.1Z"/>
    <rect class="cls-13" x="145.72" y="143.65" width="2.77" height="2.07"/>
    <path class="cls-4" d="m135.07,136.29l.04.02c.77-.9,1.47-1.83,2.18-2.66l1.28.21v2.07h2.79v2.08h-.72v2.06h2.78l1,.29c-1.06,3.14-2.35,6.07-3.78,8.72,0,0-.01,0-.01.01-.92,1.64-1.85,3.21-2.85,4.7s-2,2.85-3.07,4.14c-.01.02-.02.03-.03.05-1.92,2.33-3.91,4.31-5.9,6.02-.01.01-.03.02-.03.03-4.06,3.48-7.89,5.62-10.74,6.54.14-1.06.2-2.25.27-3.64v-.07c.08-.91.08-1.88.15-2.93.14-3.11.26-6.71.36-10.72.12-4.01.21-8.43.28-13.14v-.71h.07c5.43,0,13.15-1.58,15.93-3.07Zm3.71,4.85v-2.07h-2.78v2.07h2.78Zm-2.57,11.15v-2.08h-2.78v2.08h2.78Zm-2.57-4.43v-2.07h-2.78v2.07h2.78Zm-3.36,6.71v-2.07h-2.78v2.07h2.78Z"/>
    <path class="cls-9" d="m142.85,173.65c1.04-.97,1.93-1.87,2.84-2.77-1.79,6.58-4.21,17.79-7.12,23.4-2.86,3.72-5.93,9.86-6.22,9.86-.36,0-4.49-.43-4.49-.43,5.98-9.47,11.1-19.44,14.89-29.97l.03-.03s.05-.04.07-.06Z"/>
    <polygon class="cls-13" points="143.42 138.01 143.42 140.07 140.64 140.07 140.64 138.01 141.36 138.01 143.42 138.01"/>
    <path class="cls-16" d="m152.14.5c-6.57,8.29-13.14,12.14-33.64,12.14v.08H.57v-6.07h113.92c11.01-.36,27.15,1.28,37.65-6.15Z"/>
    <polygon class="cls-13" points="141.36 133.86 141.36 135.93 140.64 135.93 138.57 135.93 138.57 133.86 141.36 133.86"/>
    <path class="cls-18" d="m133.03,164.22c3.05.07,7.08.21,10.75.21-1.84,3.62-4.11,6.67-6.66,9.16l-1.34-3.02-1.49-3.43-1.26-2.92Z"/>
    <path class="cls-6" d="m138.25,177.68c1.66-1.32,3.11-2.63,4.5-3.94-3.79,10.53-8.91,20.5-14.89,29.97l-2.94,2.72-3.78-2.14c8.08-11.08,15.21-18,17.15-26.57l-.04-.04Z"/>
    <rect class="cls-13" x="136" y="139.07" width="2.78" height="2.07"/>
    <path class="cls-20" d="m138.29,177.72c-1.94,8.57-9.07,15.49-17.15,26.57l-.22-.15h-1.02c-.42-1.48-.84-3.03-1.26-4.56,0-.02,0-.05-.02-.06l.02-.02c2.15-2.43,4.28-4.79,6.28-7.07,4.25-4.81,8-9.19,10.3-12.4.04-.03.09-.07.13-.1,1-.72,1.94-1.43,2.86-2.21.02-.01.03-.03.04-.04l.04.04Z"/>
    <path class="cls-9" d="m135.78,170.57l1.34,3.02s-.03.04-.05.06c-7.32,7.25-16.71,10.25-22.07,11.76v-.05s-.02-.06-.03-.1c.55-1.86.97-3.67,1.39-5.4.01-.02.01-.06.02-.08h.05c7.28-.92,17.92-7.71,19.35-9.21Z"/>
    <rect class="cls-13" x="133.43" y="150.21" width="2.78" height="2.08"/>
    <path class="cls-6" d="m134.29,167.14l1.49,3.43c-1.43,1.5-12.07,8.29-19.35,9.21h-.05c.27-1.41.55-2.73.83-4.06,0-.03,0-.06.02-.08h.05c7.43-2.63,12-4.99,17.01-8.5Z"/>
    <path class="cls-20" d="m133.03,164.22l1.26,2.92c-5.01,3.51-9.58,5.87-17.01,8.51h-.05c.14-.62.27-1.17.34-1.72.14-.79.28-1.93.43-3.28,0-.03.01-.06.01-.08,2.85-.92,6.68-3.06,10.74-6.54l.03.04c.93,0,2.44.07,4.21.15h.04Z"/>
    <rect class="cls-13" x="130.86" y="145.79" width="2.78" height="2.07"/>
    <path class="cls-4" d="m133.43,125.5l-1.29,1h-2.79v-4.14l.8-.65c1.06,1.31,2.23,2.61,3.28,3.79Z"/>
    <rect class="cls-13" x="129.35" y="126.5" width="2.79" height="2.08"/>
    <path class="cls-4" d="m135.22,180.03c-2.3,3.21-6.05,7.59-10.3,12.4l-1.78-.43v-2.07h-2.78l-.6-1.69c.37-.12.73-.25,1.1-.39,5.43-1.98,10.18-4.79,14.36-7.82Z"/>
    <rect class="cls-13" x="127.5" y="152.5" width="2.78" height="2.07"/>
    <rect class="cls-13" x="126.57" y="122.36" width="2.78" height="2.07"/>
    <rect class="cls-12" x="121.12" y="237.4" width="4.04" height="26.77"/>
    <polygon class="cls-12" points="117.73 226.38 125.16 237.4 121.12 237.4 113.7 226.38 117.73 226.38"/>
    <rect class="cls-13" x="122.14" y="129.64" width="2.78" height="2.07"/>
    <path class="cls-4" d="m123.14,192l1.78.43c-2,2.28-4.13,4.64-6.28,7.07l-.02.02c-.92-3.42-1.84-6.9-2.62-10.09-.01-.02-.01-.04-.01-.05.03,0,.05-.01.08-.02,1.25-.33,2.48-.7,3.69-1.12l.6,1.69v2.07h2.78Z"/>
    <polygon class="cls-13" points="123.14 189.93 123.14 192 120.36 192 120.36 189.93 120.86 189.93 123.14 189.93"/>
    <rect class="cls-17" x="107.33" y="237.4" width="13.79" height="26.77"/>
    <polygon class="cls-17" points="113.7 226.38 121.12 237.4 107.33 237.4 99.91 226.38 113.7 226.38"/>
    <path class="cls-3" d="m115.79,117.02c.61-.52,2.62-2.07,3.31-.99l.04-.03s.05-.02.07-.02v.1c0,7.71-.07,15.06-.14,21.93h-.07c-1.15-1-2.79.64-4.36,1.77l-.28-.42-.64-45.72h1.21l.71,20.51.15,2.87Z"/>
    <path class="cls-3" d="m119.21,93.64v2.79s-.05.04-.07.07v17l-3.5.65-.71-20.51h4.28Z"/>
    <path class="cls-2" d="m115.64,16.29h2.93c.07,3.44.14,9.13.22,16.36v1.61c.06,7.42.21,16.33.28,25.96v3.28c0,4.22.08,8.58.08,12.93s.06,8.36.06,12.64v4.57h-4.28v-4.49l-.14-8.58-.3-17.21v-.07l-.06-2.22v-.04l-.15-9.24-.28-19.07-.15-9.36v-.07l-.06-7h1.85Z"/>
    <path class="cls-3" d="m119.14,113.5v2.5l-.04.03c-.69-1.08-2.7.47-3.31.99l-.15-2.87,3.5-.65Z"/>
    <path class="cls-3" d="m119.07,140v.07c-.07,4.71-.16,9.13-.28,13.14-.1,4.01-.22,7.61-.36,10.72-2.22.93-4.29,1.93-5.36,2.29h-.01v-.08s1.22-23.42,1.22-23.42c0,0,.04-.03.09-.07.54-.4,3.49-2.58,4.27-2.65h.43Z"/>
    <path class="cls-3" d="m119.07,139.36v.64h-.43c-.78.07-3.73,2.25-4.27,2.65l-1.3-1.93c.5-.15,1.07-.5,1.57-.94,1.57-1.13,3.21-2.77,4.36-1.77h.07v1.35Z"/>
    <path class="cls-8" d="m118.57,16.22v.07H.57v-3.57h117.93v.97c.01.6.04,1.46.07,2.53Z"/>
    <path class="cls-3" d="m118.43,163.93c-.07,1.05-.07,2.02-.15,2.93-1.49.85-3.21,1.79-5.21,2.71h-.22v-.07l.21-3.28h.01c1.07-.36,3.14-1.36,5.36-2.29Z"/>
    <path class="cls-3" d="m118.01,170.57s-.01.05-.01.08c-.15,1.35-.29,2.49-.43,3.28-.07.55-.2,1.1-.34,1.71-.01.02-.01.05-.02.08-.28,1.33-.56,2.65-.83,4.06-.01.02-.01.06-.02.08-.42,1.73-.84,3.54-1.39,5.4-1.13-4.44-1.9-7.54-1.9-7.54l-.64-.04v-.03l.42-8.09h.22c2-.91,3.72-1.85,5.21-2.7v.07c-.07,1.39-.13,2.58-.27,3.64Z"/>
    <path class="cls-4" d="m116,189.43c.78,3.19,1.7,6.67,2.62,10.09-1.24,1.47-2.51,2.87-3.71,4.26-.77-4.04-1.48-8.22-1.98-11.28,0-.04,0-.07-.02-.11.28-.79.53-1.59.73-2.39.02-.05.03-.1.05-.15h.03c.75-.12,1.51-.27,2.27-.47,0,.01,0,.03.01.05Z"/>
    <path class="cls-18" d="m114.93,185.43s.04-.01.07-.02v.02c.28,1.19.63,2.54.99,3.95-.76.2-1.52.35-2.27.48h-.03c.48-1.46.82-2.91,1.24-4.36v-.07Z"/>
    <path class="cls-4" d="m114.91,203.78s.01.05.02.08l.07.28h-.29l-7.29,4-.06-.02c.53-1.38,1.09-2.83,1.64-4.33.02-.07.05-.14.07-.21.77-2.07,1.53-4.22,2.29-6.43.02-.08.05-.16.07-.23.47-1.44.95-2.93,1.42-4.35.02-.06.05-.12.06-.18.01.04.01.07.02.11.5,3.06,1.21,7.24,1.98,11.28Z"/>
    <path class="cls-3" d="m112.91,192.39c-.01.06-.04.12-.06.18-.47,1.42-.95,2.91-1.42,4.35l1-19.24.64.04s.77,3.1,1.9,7.54c0,.06-.02.12-.04.17v.07c-.42,1.45-.76,2.9-1.24,4.35-.02.05-.03.1-.05.15-.2.8-.45,1.6-.73,2.39Z"/>
    <path class="cls-2" d="m95.78,84.64l1.86-1.49c1.57.42,4.93,1.85,8.21,3.42h.01c4.36,2.07,8.63,4.29,8.63,4.29h.44v2.78h-36.29v-22.64h2.21l2.51-1.57,12.42,15.21Zm-10.86-8.14c0-1.64-.49-3.06-1.13-3.06s-1.15,1.35-1.15,3.06.51,3.07,1.15,3.07,1.13-1.36,1.13-3.07Z"/>
    <path class="cls-2" d="m114.93,89.15v1.71h-.44s-4.27-2.22-8.63-4.28l1.56-1.29c3.65,1.93,7.15,3.71,7.51,3.86Z"/>
    <path class="cls-2" d="m114.79,80.57l.14,8.58c-.36-.15-3.86-1.93-7.51-3.86l5.65-4.72h1.72Z"/>
    <path class="cls-2" d="m107.42,85.29l-1.56,1.29h-.01c-3.28-1.58-6.64-3.01-8.21-3.43l-1.86,1.49-12.42-15.21,19.96-12.2c4.13,2.15,9.54,5.13,11.11,6.06h.06v.07l.3,17.21h-1.72l-5.65,4.72Zm-5.85-4.29c.64,0,1.14-1.36,1.14-3.07s-.5-3.07-1.14-3.07-1.15,1.35-1.15,3.07.51,3.07,1.15,3.07Zm-6.35-10.35c0-.64-1.36-1.15-3.08-1.15s-3.07.51-3.07,1.15,1.36,1.14,3.07,1.14,3.08-.5,3.08-1.14Z"/>
    <path class="cls-3" d="m91.79,147.36c-1.29-.86-2.87-1.71-4.22-2.36-3.21-1.43-6.57-1.43-7.43-.07-.21.28-.29.57-.29.79h-1.21v-27h1.43c0,.28.5.57,1.78.71,3.65.5,8.37.36,9.01.36.36,0,1.07-.64,1.28-1.15l1.29.15v.07c-.36,2.07-.65,3.86-.72,4.29-.21.92.22,2.35,1.15,2.43.92.13,1.36-1.3,1.36-2.36s.42-5.07.92-9.14c.5-4.08,2-13.86,2.15-16.08.06-1.29-.22-2.14-.65-2.14v-2.22h16.08l.64,45.72.28.42c-.5.44-1.07.79-1.57.94l1.3,1.93c-.05.04-.09.07-.09.07l-1.21,23.42v.08s-.22,3.28-.22,3.28v.06l-.42,8.09v.03l-1,19.24c-.02.07-.05.15-.07.23-.76,2.21-1.52,4.36-2.29,6.43l.71-15.73.79-18.92.07-2.14v-.07l.98-22.65.1-2.29c-1.42-1.27-2.84-2.3-4.14-3.13l-.21.31c-.05-.04-.1-.05-.16-.1-.07,0-.14-.08-.21-.08-1.71-.56-6.29,1.51-8.86,2.94-2.85,1.71-4.28,4.14-3.15,5.42.48.53,1.25.83,2.24.83l.35,1.53c-.76.17-1.31.49-1.44.93l-1.92-.07c.13-.86-.94-1.93-2.43-3Zm13.85-24.14c.57,0,1.65-.72,0-1.65-1.57-.85-7.71-2.42-7.71-2.42,0,0-.79.71,0,1.13,1.64.94,7.14,2.94,7.71,2.94Zm-.43-5.36s1.51-.71-.79-1.36c-2.28-.71-7.13-1-7.43-.78-.28.14-.28,1.21.94,1.36.71.13,7.28.78,7.28.78Z"/>
    <path class="cls-2" d="m114.43,61.07l.06,2.22h-.06c-1.57-.93-6.98-3.91-11.11-6.06h.04s2.78-1.73,2.78-1.73c3.61,2.18,7.66,5.07,8.29,5.53v.04Z"/>
    <path class="cls-2" d="m114.28,51.79l.15,9.24c-.63-.46-4.68-3.35-8.29-5.53l1.91-1.17,4.16-2.54h2.07Z"/>
    <path class="cls-2" d="m98.21,35.14l7.43-5.92h.02s.04,0,.05,0c2.79.5,5.79,1.64,8.01,3.5h.28l.28,19.07h-2.07l-4.16,2.54-1.55-2.54-11.28-14.29,2.99-2.36Z"/>
    <path class="cls-2" d="m113.85,23.36l.15,9.36h-.28c-2.22-1.86-5.22-3-8.01-3.5-.01,0-.04,0-.05,0l7.41-5.85h.78Z"/>
    <path class="cls-2" d="m98.43,29.14l-3.08,2.44-10.43-13.43v-1.86h28.87l.06,7v.07h-.78l-7.41,5.85c-.93-.15-1.81-.24-2.63-.24-1.71,0-3.15.34-3.96.96l-.64-.79Zm.07-5.78c0-1.71-.5-3.07-1.15-3.07s-1.13,1.36-1.13,3.07.49,3.07,1.13,3.07,1.15-1.36,1.15-3.07Z"/>
    <path class="cls-3" d="m111.62,144.07l-.98,22.65v.07l-.07,2.14-.79,18.92-2.14-.06c0-.22-.14-.5-.43-.86-2.79-2.14-7.78-6.07-9.21-7.21-1.43-1.15-6.93-5.43-7.5-6.01-.58-.57-1.64-.78-2.07-.14,0,0,0,.08-.08.08-.02,0-.03,0-.03,0l-.68-.23c2.35-6.2,3.42-15.09,3.92-22.5h.01c1.21.15,2.21.15,2.5-.29.07-.07.15-.14.15-.28l1.92.07c-.21,1,1.93,2.36,4.72,2.93,1.28.21,1.78-.21,2.71-.29,1.21-.07,2.64.08,2.79-.5.21-1-1.94-2.36-4.71-2.93-1.44-.28-2.72-.35-3.72-.21-.12.01-.23.04-.35.07l-.35-1.53c.2,0,.41,0,.63-.04,1.35-.07,2.92-.64,4.43-1.5.85-.5,1.07-1.57,1.64-2.14,1.36-1.36,4.28-4.36,3.49-5.28-.01-.02-.03-.04-.05-.05l.21-.31c1.3.83,2.72,1.86,4.14,3.13l-.1,2.29Zm-11.12,28c1.15-1.42,1.86-3.93.5-2.5-1.35,1.36-4.22,4.79-4.93,5.86-.64,1.07.36,2.35,1.14,1.29,1.36-2.07,2.14-3.22,3.29-4.65Zm-3.15-3.21c.72-1.57.79-4-.78-1.57-1.58,2.42-3,5.93-3.22,6.42-.21.36.43,2.01.87,1.22,1-1.92,2.42-4.5,3.13-6.07Z"/>
    <path class="cls-3" d="m109.78,187.85l-.71,15.73c-.02.07-.05.14-.07.21-.55,1.5-1.11,2.95-1.64,4.33-.03.06-.05.11-.07.17-3.22,7.92-6.43,14-8.79,15.5-1.9,1.19-3.24,1.9-4.23,2.33l-.05-.12c-.33.02-.66.03-1,.03-10.44,0-22.99-9.59-40.51-15.89.03-.02.08-.07.16-.14,1.15-1,7.79-6.86,14.87-13.6.02-.01.03-.02.04-.04,1.77-1.63,3.55-3.4,5.32-5.1.02-.02.03-.03.04-.05.15-.06.22-.21.36-.28,1.85-1.85,3.62-3.61,5.26-5.39,0-.01.02-.03.03-.04,2.85-3,5.28-5.72,6.78-7.93.79-1.14,1.43-2.57,2.07-4.14l.68.23s.03.05.03.05c-.13.65.57,1.36,1.22,1.79.71.43,3.36,2.28,5.93,4.22,2.64,1.92,8.86,6.78,10.28,7.78,1.07.65,1.86.71,1.86.29l2.14.06Zm-12.49,16.01c3.13-1.93,3.13-3.79,2.21-7.79-.64-2.57-2.57-.07-4.28,1.64-1.29,1.36-2.72,1.65-6.79,6.15-1.07,1.07.85,1.57,2.28,2.36,1.51.78,3.79-.65,6.58-2.36Zm1.78,8.07c.43-1.79-1-2.28-3.64-3.36-2.65-.92-5.51-1.79-5.64.29.85,2.07,1.49,4.56,4.49,4.71,3.07.15,4.36.15,4.79-1.64Zm-7.85-27.08c1.21-1.35,3.06-4.77,3-5.07-.08-.35-.87-.71-1.29.08-.36.43-2.93,4.99-2.93,4.99,0,0,0,1.36,1.22,0Zm.28-5.78s-.22-.86-.79-.42c-1.14.85-4.35,4.07-4.57,4.49-.22.43-.07,1.5,1.14.65,1.15-.86,4.22-4.72,4.22-4.72Zm-6.64,37.29c2.64-2.07,1.42-4.15,1.42-5.29s-.78-1.36-2.64.07c-2.21,1.93-4.36,2.36-4.36,3.28s2.93,4.01,5.58,1.94Zm2.28-11.57c0-1.08-2.5-1.57-5.57-2.44-3-.85-8.79-4.35-9.07-1.85,2.35,2.64,4.29,7,9.35,8.15,3.36.57,5.29-2.79,5.29-3.86Z"/>
    <path class="cls-2" d="m83.36,69.43l-2.51,1.57h-2.21V16.29h6.28v1.86l10.43,13.43-3,2.35,2.87,3.57,11.28,14.29,1.55,2.54-1.91,1.17-2.78,1.72h-.04s-19.96,12.21-19.96,12.21Zm13.28-23.57c0-1.71-.5-3.07-1.14-3.07s-1.15,1.36-1.15,3.07.51,3.07,1.15,3.07,1.14-1.36,1.14-3.07Zm-9.85-12c1.71,0,3.07-.5,3.07-1.14s-1.36-1.14-3.07-1.14-3.08.5-3.08,1.14,1.36,1.14,3.08,1.14Zm-1.79,27.79c0-1.65-.5-3.07-1.14-3.07s-1.15,1.35-1.15,3.07.5,3.07,1.15,3.07,1.14-1.36,1.14-3.07Z"/>
    <path class="cls-10" d="m107.42,139.01c.79.92-2.13,3.92-3.49,5.28-.57.57-.79,1.64-1.64,2.14-1.51.86-3.08,1.43-4.43,1.5-.22.03-.43.04-.63.04-.99,0-1.76-.3-2.24-.83-1.13-1.28.3-3.71,3.15-5.42,2.57-1.43,7.15-3.5,8.86-2.94.07,0,.14.08.21.08.06.05.11.06.16.1.02,0,.04.03.05.05Z"/>
    <path class="cls-10" d="m107.64,187.79c0,.42-.79.36-1.86-.29-1.42-1-7.64-5.86-10.28-7.78-2.57-1.94-5.22-3.79-5.93-4.22-.65-.43-1.35-1.14-1.22-1.79,0,0-.03-.03-.03-.05,0,0,.01,0,.03,0,.08,0,.08-.08.08-.08.43-.64,1.49-.43,2.07.14.57.58,6.07,4.86,7.5,6.01,1.43,1.14,6.42,5.07,9.21,7.21.29.36.43.64.43.86Z"/>
    <rect class="cls-12" x="103.32" y="237.4" width="4.01" height="26.77"/>
    <polygon class="cls-12" points="99.91 226.38 107.33 237.4 103.32 237.4 95.9 226.38 99.91 226.38"/>
    <path class="cls-10" d="m101.65,149.64c2.77.57,4.92,1.93,4.71,2.93-.15.58-1.58.43-2.79.5-.93.08-1.43.5-2.71.29-2.79-.57-4.93-1.93-4.72-2.93.13-.44.68-.76,1.44-.93.12-.03.23-.06.35-.07,1-.14,2.28-.07,3.72.21Z"/>
    <path class="cls-10" d="m105.64,121.57c1.65.93.57,1.65,0,1.65s-6.07-2-7.71-2.94c-.79-.42,0-1.13,0-1.13,0,0,6.14,1.57,7.71,2.42Z"/>
    <path class="cls-2" d="m105.66,29.21h-.02s-7.43,5.93-7.43,5.93l-2.86-3.56,3.08-2.44.64.79c.81-.62,2.25-.96,3.96-.96.82,0,1.7.09,2.63.24Z"/>
    <path class="cls-10" d="m104.42,116.5c2.3.65.79,1.36.79,1.36,0,0-6.57-.65-7.28-.78-1.22-.15-1.22-1.22-.94-1.36.3-.22,5.15.07,7.43.78Z"/>
    <rect class="cls-15" x="78.44" y="237.4" width="24.88" height="26.77"/>
    <path class="cls-15" d="m95.9,226.38l7.42,11.02h-24.88l-6.43-9.54h0c7.98.26,16.15.04,19.92-1.22,0,0,.39.22,1.7-.26h2.27Z"/>
    <path class="cls-10" d="m102.71,77.93c0,1.71-.5,3.07-1.14,3.07s-1.15-1.36-1.15-3.07.51-3.07,1.15-3.07,1.14,1.35,1.14,3.07Z"/>
    <path class="cls-10" d="m101,169.57c1.36-1.43.65,1.08-.5,2.5-1.15,1.43-1.93,2.58-3.29,4.65-.78,1.06-1.78-.22-1.14-1.29.71-1.07,3.58-4.5,4.93-5.86Z"/>
    <path class="cls-10" d="m99.5,196.07c.92,4,.92,5.86-2.21,7.79-2.79,1.71-5.07,3.14-6.58,2.36-1.43-.79-3.35-1.29-2.28-2.36,4.07-4.5,5.5-4.79,6.79-6.15,1.71-1.71,3.64-4.21,4.28-1.64Z"/>
    <path class="cls-10" d="m95.43,208.57c2.64,1.08,4.07,1.57,3.64,3.36s-1.72,1.79-4.79,1.64c-3-.15-3.64-2.64-4.49-4.71.13-2.08,2.99-1.21,5.64-.29Z"/>
    <path class="cls-10" d="m97.35,20.29c.65,0,1.15,1.36,1.15,3.07s-.5,3.07-1.15,3.07-1.13-1.36-1.13-3.07.49-3.07,1.13-3.07Z"/>
    <path class="cls-10" d="m97.64,95.86c.43,0,.71.85.65,2.14-.15,2.22-1.65,12-2.15,16.08-.5,4.07-.92,8.07-.92,9.14s-.44,2.49-1.36,2.36c-.93-.08-1.36-1.51-1.15-2.43.07-.43.36-2.22.72-4.29v-.07c.21-1.28.43-2.71.64-4,.28-1.5.43-2.79.57-3.5.35-2.29,1.58-10.15,2.14-14.5.29-.65.65-.93.86-.93Z"/>
    <polygon class="cls-2" points="95.35 31.58 98.21 35.14 95.22 37.5 92.35 33.93 95.35 31.58"/>
    <path class="cls-3" d="m97.64,93.64v2.22c-.21,0-.57.28-.86.93-.56,4.35-1.79,12.21-2.14,14.5-.14.71-.29,2-.57,3.5h-1.38c.01-.08.02-.15.02-.22,0-.36-.28-.71-.92-.85-3.15-.51-4.87-.79-7.08-1.43-1.64-.43-3.86-.29-3.86.21h-2.21v-18.86h19Z"/>
    <path class="cls-10" d="m96.57,167.29c1.57-2.43,1.5,0,.78,1.57-.71,1.57-2.13,4.15-3.13,6.07-.44.79-1.08-.86-.87-1.22.22-.49,1.64-4,3.22-6.42Z"/>
    <path class="cls-10" d="m95.5,42.79c.64,0,1.14,1.36,1.14,3.07s-.5,3.07-1.14,3.07-1.15-1.36-1.15-3.07.51-3.07,1.15-3.07Z"/>
    <path class="cls-10" d="m92.14,69.5c1.72,0,3.08.51,3.08,1.15s-1.44,1.14-3.08,1.14-3.07-.5-3.07-1.14,1.36-1.15,3.07-1.15Z"/>
    <path class="cls-3" d="m3.03,227.21c-1.3.06-2.2.12-2.46.14v-.14c6.58-6.14,12.93-10.85,18.57-15.21,2.57-2,5-3.86,7.21-5.78.87-.72,1.72-1.51,2.51-2.22l.07-.07s.05-.05.07-.08l.62.64s-.09.05-.12.08l-.07.07c-.22.22-.07.43.86.5,2.49.15,8.14.15,9.78,0,.78-.07,1.21-.57,1.29-1.07l1.43.07c-.25,1.68-.56,3.59-.82,5.17-.25,1.58-.48,2.83-.54,3.19-.22.92.21,2.36,1.14,2.5s1.36-1.28,1.36-2.35c0-.79.22-2.72.5-5l1.14.13c0,.15.07.36.36.51,1.64.93,3.78,2.07,4.43,2.07.21,0,.43-.07.56-.22.1-.06.18-.13.24-.21l1.71.07c-.08.07-.13.12-.16.14,17.52,6.3,30.07,15.89,40.51,15.89.34,0,.67-.01,1-.03l.05.12s-.04.02-.05.03c-.21.09-.41.17-.58.23h0c-1.31.48-1.7.26-1.7.26-3.77,1.26-11.94,1.48-19.92,1.21-1.4-.05-2.79-.11-4.16-.17-4.58-.25-8.82-.63-11.78-1.04-.72.23-1.45.48-2.2.74-1.05.36-2.13.73-3.26,1.11-6.22,2.06-13.66,4.08-22.92,2.74-1.55-.21-3.15-.53-4.8-.96-1.67-.42-3.39-.96-5.18-1.63-3.01-1.08-7.21-1.42-10.7-1.46-1.51-.03-2.88,0-3.98.03Zm37.04-17.85c.57-.14,1.5-2.07.43-1.86-2.72.57-6.36,1.15-8.43,1.64-2.14.51-4.42,2.36-.78,2s8.21-1.64,8.78-1.78Z"/>
    <path class="cls-10" d="m91.79,147.36c1.49,1.07,2.56,2.14,2.43,3,0,.14-.08.21-.15.28-.29.44-1.29.44-2.5.29h-.01s.01-.05.01-.08c.07-1.21.14-2.35.22-3.49Z"/>
    <path class="cls-10" d="m94.22,179.78c.06.3-1.79,3.72-3,5.07-1.22,1.36-1.22,0-1.22,0,0,0,2.57-4.56,2.93-4.99.42-.79,1.21-.43,1.29-.08Z"/>
    <path class="cls-3" d="m92.69,114.78h1.38c-.21,1.3-.43,2.73-.64,4.01l-1.29-.15v-.07c0-.21-.07-.42-.43-.42-2.79-.15-6.43-.43-8.56-.43-1.44,0-3.08.49-3.08,1h-1.43v-6.22h2.21c0,.14.22.36.86.58,2.36.85,7.79,2.35,9.43,2.64.82.06,1.42-.43,1.55-.94Z"/>
    <path class="cls-10" d="m92.71,114.57c0,.07-.01.14-.02.21-.13.51-.73,1-1.55.94-1.64-.29-7.07-1.79-9.43-2.64-.64-.22-.86-.44-.86-.58,0-.5,2.22-.64,3.86-.21,2.21.64,3.93.92,7.08,1.43.64.14.92.49.92.85Z"/>
    <path class="cls-10" d="m92.14,118.57v.07c-.21.51-.92,1.15-1.28,1.15-.64,0-5.36.14-9.01-.36-1.28-.14-1.78-.43-1.78-.71,0-.51,1.64-1,3.08-1,2.13,0,5.77.28,8.56.43.36,0,.43.21.43.42Z"/>
    <path class="cls-10" d="m91.79,147.36c-.08,1.14-.15,2.28-.22,3.49,0,.03,0,.06-.01.08-1.22-.14-2.56-.43-3.56-.57-1.08-.15-4.85-1-5.72-1.86-1.13-1.07-2.43-1.86-2.43-2.78,0-.22.08-.51.29-.79.86-1.36,4.22-1.36,7.43.07,1.35.65,2.93,1.5,4.22,2.36Z"/>
    <path class="cls-10" d="m90.71,178.65c.57-.44.79.42.79.42,0,0-3.07,3.86-4.22,4.72-1.21.85-1.36-.22-1.14-.65.22-.42,3.43-3.64,4.57-4.49Z"/>
    <path class="cls-3" d="m91.56,150.93c-.5,7.41-1.57,16.3-3.92,22.5-.64,1.57-1.28,3-2.07,4.14-1.5,2.21-3.93,4.93-6.78,7.93-.01.01-.02.03-.03.04l-.12-.11v-39.71h1.21c0,.92,1.3,1.71,2.43,2.78.87.86,4.64,1.71,5.72,1.86,1,.14,2.34.43,3.56.57Zm-2.13,2.93c.07-.65.07-3.36-1.93-2.22-2.79,1.57-6.65,3.72-3.64,4,3,.29,5.49-1.13,5.57-1.78Z"/>
    <path class="cls-10" d="m89.86,32.72c0,.64-1.36,1.14-3.07,1.14s-3.08-.5-3.08-1.14,1.36-1.14,3.08-1.14,3.07.5,3.07,1.14Z"/>
    <path class="cls-10" d="m87.5,151.64c2-1.14,2,1.57,1.93,2.22-.08.65-2.57,2.07-5.57,1.78-3.01-.28.85-2.43,3.64-4Z"/>
    <path class="cls-10" d="m86.28,211.07c0,1.14,1.22,3.22-1.42,5.29-2.65,2.07-5.58-1-5.58-1.94s2.15-1.35,4.36-3.28c1.86-1.43,2.64-1.21,2.64-.07Z"/>
    <path class="cls-10" d="m81.57,202.35c3.07.87,5.57,1.36,5.57,2.44s-1.93,4.43-5.29,3.86c-5.06-1.15-7-5.51-9.35-8.15.28-2.5,6.07,1,9.07,1.85Z"/>
    <path class="cls-10" d="m83.86,58.58c.64,0,1.14,1.42,1.14,3.07s-.5,3.07-1.14,3.07-1.15-1.36-1.15-3.07.5-3.07,1.15-3.07Z"/>
    <path class="cls-10" d="m83.79,73.44c.64,0,1.13,1.42,1.13,3.06s-.49,3.07-1.13,3.07-1.15-1.36-1.15-3.07.51-3.06,1.15-3.06Z"/>
    <path class="cls-8" d="m78.64,185.43l.12.11c-1.64,1.78-3.41,3.54-5.26,5.39-.14.07-.21.22-.36.28,0,.02-.02.03-.04.05l-.6-.62V16.29h6.14v169.14Z"/>
    <rect class="cls-21" x="74.4" y="237.4" width="4.04" height="26.77"/>
    <path class="cls-21" d="m72.01,227.86l6.43,9.54h-4.04l-6.55-9.72c1.37.06,2.76.12,4.16.17h0Z"/>
    <rect class="cls-5" x="60.62" y="237.4" width="13.78" height="26.77"/>
    <path class="cls-5" d="m67.85,227.68l6.55,9.72h-13.78l-6.75-10.02c.75-.26,1.48-.51,2.2-.74,2.96.41,7.2.79,11.78,1.04Z"/>
    <path class="cls-8" d="m72.5,190.64l.6.62c-1.77,1.7-3.55,3.47-5.32,5.1-.01.02-.02.03-.04.04l-.32-.33V16.29h5.08v174.35Z"/>
    <path class="cls-3" d="m46.31,176.58l-1.1-.39v-.05c.36-1.57-.85-4.07-3.07-6.07-2.71-2.43-5.93-3.28-7.21-1.85-.36.43-.51.78-.51,1.21h-1.64v-75.79h34.64v102.43l.32.33c-7.08,6.74-13.72,12.6-14.87,13.6l-1.71-.07c.2-.29.09-.71-.8-1.22-1.57-.85-4.43-1.64-4.43-1.64,0,0-.36.36-.36.71l-1.14-.13c.14-1.3.29-2.72.5-4.22.5-4.07,2-13.86,2.14-16,.14-2.22-.64-3.14-1.43-1.29-.71,4.29-1.92,12.14-2.28,14.44-.15.71-.29,2-.57,3.56l-1.43-.07v-.21c0-.43-.36-.86-1.15-.79-3.13.36-4.85.57-7.21.57-1.27,0-2.73.44-3.38.85l-.62-.64c1.34-1.26,2.6-2.52,3.72-3.85.02-.02.04-.05.06-.07,1.41-1.62,2.66-3.24,3.72-5,6.14-10,7.57-12,9.78-18.28.01-.03.02-.05.03-.07Zm13.83-61.5c1.72-.87,5.51-2.79,5-3.94-.64-1.57-6.43-1-9.64-.35-3.28.71-5.43,2.64-4.71,4.21.64,1.64,3.85,2.29,7.14,1.57.93-.21,1.5-1.14,2.21-1.49Zm1.15,66.78c.35-1.57-2.22-3.5-5.79-4.29-3.58-.79-6.71-.21-7.07,1.36s2.21,3.5,5.79,4.28c1.57.36,2.28-.35,3.49-.49,1.51-.22,3.36,0,3.58-.86Zm-1.86-32.36c1.64.65,2.57.29,1.28-.86-1.28-1.14-6.85-4.56-7.79-4.64-1.06,0-1.85.36-.85,1.65.43.56,5.72,3.21,7.36,3.85Zm-1.36,22.28c1.57-1.56,2.64-2.71,2-3.85-.93-1.64-4.21-1.5-7.43.36-3.14,1.85-4.93,4.64-4,6.28s4.28,1.5,7.43-.35c.93-.57,1.36-1.79,2-2.44Zm-.07-19.49c1.07.35,1.64.64,1-.5-.65-1.15-6.14-4.79-7.08-5.15-.92-.35-1.21.29-1,1,.22.5,6.08,4.29,7.08,4.65Zm-4.86-29.79c.5-.57-.28-2.22-1.78-3.71-1.57-1.43-3.29-2.22-3.79-1.64-.5.57.29,2.21,1.86,3.71.64.65,1.14.57,1.79.86.78.43,1.64,1.07,1.92.78Zm-3.28,27.22c0-2.29,3.36-15.43,3.14-16.86-.21-1.5-.64-2.93-1.64-.86-.29,2.22-2.5,12.72-3.65,17.93-.35,1.5-.92,1.64-1,2.79-.07,1.56.15,1.79,1.5,2,1.65.21,1.71-1.15,1.71-1.72-.06-1.21-.06-1.85-.06-3.28Zm.42,56.42s1.36.21.08-1.28c-1.29-1.51-3.57-2.72-3.93-2.72s-.79.79,0,1.36c.43.43,3.85,2.64,3.85,2.64Zm-3.21-90.35c1.79-.43.72-5.36-.64-8.65-1.36-3.21-3.86-5.57-5.58-5.13-1.71.42-1.06,2.13-1.06,4.13.06,1.22,2.21,4.43,2.93,5.29,1.28,1.43,3.21,4.65,4.35,4.36Zm-.21,32.29c.78-.79-.58-1-1.65-.65-1.06.36-4.78,1.43-9.71,3.42-1.72,1.44,1.5.87,3,.44,1.57-.5,7.57-2.5,8.36-3.21Zm-.79-2.94c.93-.57-.35-1-1.5-.85-1.14.21-4.93.64-10.15,1.79-1.85,1.13,1.44,1.06,2.94.78,1.57-.22,7.85-1.14,8.71-1.72Zm-1.07-24.86c.07-.64.43-3.35-1.72-2.42-2.92,1.29-6.99,3-3.99,3.65,2.99.64,5.56-.58,5.71-1.23Z"/>
    <path class="cls-2" d="m47.71,75.93l3.43-2.64,14.57-11.28h1.71v31.63h-34.64v-24.21h2.29c0,.65,1.36,1.14,3.07,1.14s3.07-.49,3.07-1.14c0-.14-.07-.21-.14-.35l.8-.63,1.7,2.2,4.14,5.28Zm14.36-4.14c0-.65-1.36-1.14-3.07-1.14s-3.07.49-3.07,1.14,1.35,1.14,3.07,1.14,3.07-.5,3.07-1.14Zm-13.86,9.78c0-1.71-.57-3.07-1.21-3.07s-1.15,1.36-1.15,3.07.58,3.07,1.22,3.07,1.14-1.35,1.14-3.07Z"/>
    <path class="cls-2" d="m47,68.01l-3.43,2.64-1.7-2.2-.02-.02-6.92-8.78h-2.15V16.29h34.64v45.72h-1.71l-14.57,11.28-4.14-5.28Zm16.07-38.58c0-.64-1.36-1.14-3.07-1.14s-3.07.5-3.07,1.14,1.36,1.15,3.07,1.15,3.07-.51,3.07-1.15Zm-9.28-6.43c0-1.64-.51-3.06-1.15-3.06s-1.14,1.35-1.14,3.06.5,3.07,1.14,3.07,1.15-1.36,1.15-3.07Zm-.87,14.79c0-1.65-.49-3.07-1.13-3.07s-1.15,1.36-1.15,3.07.5,3.07,1.15,3.07,1.13-1.36,1.13-3.07Zm-3.64,21.86c0-1.65-.57-3.07-1.21-3.07s-1.14,1.36-1.14,3.07.57,3.06,1.22,3.06,1.13-1.35,1.13-3.06Zm-.92-30.58c0-.64-1.36-1.14-3.08-1.14s-3.07.5-3.07,1.14,1.36,1.15,3.07,1.15,3.08-.5,3.08-1.15Z"/>
    <path class="cls-10" d="m65.14,111.14c.51,1.15-3.28,3.07-5,3.94-.71.35-1.28,1.28-2.21,1.49-3.29.72-6.5.07-7.14-1.57-.72-1.57,1.43-3.5,4.71-4.21,3.21-.65,9-1.22,9.64.35Z"/>
    <path class="cls-10" d="m60,28.29c1.71,0,3.07.5,3.07,1.14s-1.43,1.15-3.07,1.15-3.07-.51-3.07-1.15,1.36-1.14,3.07-1.14Z"/>
    <ellipse class="cls-10" cx="59" cy="71.79" rx="3.07" ry="1.14"/>
    <path class="cls-10" d="m55.5,177.57c3.57.79,6.14,2.72,5.79,4.29-.22.86-2.07.64-3.58.86-1.21.14-1.92.85-3.49.49-3.58-.78-6.15-2.71-5.79-4.28s3.49-2.15,7.07-1.36Z"/>
    <path class="cls-10" d="m60.71,148.64c1.29,1.15.36,1.51-1.28.86-1.64-.64-6.93-3.29-7.36-3.85-1-1.29-.21-1.65.85-1.65.94.08,6.51,3.5,7.79,4.64Z"/>
    <rect class="cls-21" x="56.61" y="237.4" width="4.01" height="26.77"/>
    <path class="cls-21" d="m53.87,227.38l6.75,10.02h-4.01l-6-8.91c1.13-.38,2.21-.75,3.26-1.11Z"/>
    <path class="cls-10" d="m60.07,167.93c.64,1.14-.43,2.29-2,3.85-.64.65-1.07,1.87-2,2.44-3.15,1.85-6.5,1.99-7.43.35s.86-4.43,4-6.28c3.22-1.86,6.5-2,7.43-.36Z"/>
    <path class="cls-10" d="m59,151.79c.64,1.14.07.85-1,.5-1-.36-6.86-4.15-7.08-4.65-.21-.71.08-1.35,1-1,.94.36,6.43,4,7.08,5.15Z"/>
    <rect class="cls-15" x="31.71" y="237.4" width="24.9" height="26.77"/>
    <path class="cls-15" d="m50.61,228.49l6,8.91h-24.9l-4.02-6.16h0c9.26,1.33,16.7-.69,22.92-2.75Z"/>
    <path class="cls-10" d="m52.64,19.94c.64,0,1.15,1.42,1.15,3.06s-.51,3.07-1.15,3.07-1.14-1.36-1.14-3.07.5-3.06,1.14-3.06Z"/>
    <path class="cls-10" d="m51.36,118.79c1.5,1.49,2.28,3.14,1.78,3.71-.28.29-1.14-.35-1.92-.78-.65-.29-1.15-.21-1.79-.86-1.57-1.5-2.36-3.14-1.86-3.71.5-.58,2.22.21,3.79,1.64Z"/>
    <path class="cls-10" d="m53,132.86c.22,1.43-3.14,14.57-3.14,16.86,0,1.43,0,2.07.06,3.28,0,.57-.06,1.93-1.71,1.72-1.35-.21-1.57-.44-1.5-2,.08-1.15.65-1.29,1-2.79,1.15-5.21,3.36-15.71,3.65-17.93,1-2.07,1.43-.64,1.64.86Z"/>
    <path class="cls-10" d="m51.79,34.72c.64,0,1.13,1.42,1.13,3.07s-.49,3.07-1.13,3.07-1.15-1.36-1.15-3.07.5-3.07,1.15-3.07Z"/>
    <path class="cls-10" d="m50.36,208.71c.89.51,1,.93.8,1.22-.06.08-.14.15-.24.21-.13.15-.35.22-.56.22-.65,0-2.79-1.14-4.43-2.07-.29-.15-.36-.36-.36-.51,0-.35.36-.71.36-.71,0,0,2.86.79,4.43,1.64Z"/>
    <polygon class="cls-2" points="47 68.01 51.14 73.29 47.71 75.93 43.57 70.65 47 68.01"/>
    <path class="cls-10" d="m50.36,204.86c1.28,1.49-.08,1.28-.08,1.28,0,0-3.42-2.21-3.85-2.64-.79-.57-.36-1.36,0-1.36s2.64,1.21,3.93,2.72Z"/>
    <path class="cls-10" d="m48.07,56.58c.64,0,1.21,1.42,1.21,3.07s-.49,3.06-1.13,3.06-1.22-1.35-1.22-3.06.5-3.07,1.14-3.07Z"/>
    <path class="cls-10" d="m46.43,107.14c1.36,3.29,2.43,8.22.64,8.65-1.14.29-3.07-2.93-4.35-4.36-.72-.86-2.87-4.07-2.93-5.29,0-2-.65-3.71,1.06-4.13,1.72-.44,4.22,1.92,5.58,5.13Z"/>
    <path class="cls-10" d="m47,78.5c.64,0,1.21,1.36,1.21,3.07s-.5,3.07-1.14,3.07-1.22-1.35-1.22-3.07.51-3.07,1.15-3.07Z"/>
    <path class="cls-10" d="m45.28,27.93c1.72,0,3.08.5,3.08,1.14s-1.36,1.15-3.08,1.15-3.07-.5-3.07-1.15,1.36-1.14,3.07-1.14Z"/>
    <path class="cls-10" d="m45.64,186.14c.79-1.85,1.57-.93,1.43,1.29-.14,2.14-1.64,11.93-2.14,16-.21,1.5-.36,2.92-.5,4.22-.28,2.28-.5,4.21-.5,5,0,1.07-.43,2.49-1.36,2.35s-1.36-1.58-1.14-2.5c.06-.36.29-1.61.54-3.19.26-1.58.57-3.49.82-5.17.28-1.56.42-2.85.57-3.56.36-2.3,1.57-10.15,2.28-14.44Z"/>
    <path class="cls-10" d="m45.21,147.43c1.07-.35,2.43-.14,1.65.65-.79.71-6.79,2.71-8.36,3.21-1.5.43-4.72,1-3-.44,4.93-1.99,8.65-3.06,9.71-3.42Z"/>
    <path class="cls-3" d="m46.31,176.58s-.02.04-.03.07c-2.21,6.28-3.64,8.28-9.78,18.28-1.06,1.76-2.31,3.38-3.72,5v-30.5h1.64c0,1.07.87,2.14,1.72,3.43.58,1.14,4,3.07,5,3.5,1.71.78,2.86,1.57,3.65.64.14-.22.28-.43.36-.64,0-.06.04-.11.06-.17l1.1.39Zm-4.03,5.92c.22-.72,1.08-3.85-1.21-3.07-3.14,1.14-7.5,2.78-4.71,3.86,2.85,1.07,5.71,0,5.92-.79Z"/>
    <path class="cls-10" d="m44.57,144.29c1.15-.15,2.43.28,1.5.85-.86.58-7.14,1.5-8.71,1.72-1.5.28-4.79.35-2.94-.78,5.22-1.15,9.01-1.58,10.15-1.79Z"/>
    <path class="cls-10" d="m42.14,170.07c2.22,2,3.43,4.5,3.07,6.07v.05c-.02.06-.06.11-.06.17-.08.21-.22.42-.36.64-.79.93-1.94.14-3.65-.64-1-.43-4.42-2.36-5-3.5-.85-1.29-1.72-2.36-1.72-3.43,0-.43.15-.78.51-1.21,1.28-1.43,4.5-.58,7.21,1.85Z"/>
    <path class="cls-10" d="m43.28,117.86c2.15-.93,1.79,1.78,1.72,2.42-.15.65-2.72,1.87-5.71,1.23-3-.65,1.07-2.36,3.99-3.65Z"/>
    <path class="cls-10" d="m41.07,179.43c2.29-.78,1.43,2.35,1.21,3.07-.21.79-3.07,1.86-5.92.79-2.79-1.08,1.57-2.72,4.71-3.86Z"/>
    <path class="cls-2" d="m41.87,68.45l-.8.63c-.43-.51-1.57-.86-2.93-.79-1.71,0-3.07.49-3.07,1.14h-2.29v-9.78h2.15l6.92,8.78.02.02Z"/>
    <path class="cls-10" d="m41.36,203.86v.21c-.08.5-.51,1-1.29,1.07-1.64.15-7.29.15-9.78,0-.93-.07-1.08-.28-.86-.5l.07-.07s.08-.05.12-.08c.65-.41,2.11-.85,3.38-.85,2.36,0,4.08-.21,7.21-.57.79-.07,1.15.36,1.15.79Z"/>
    <path class="cls-10" d="m41.07,69.08c.07.14.14.21.14.35,0,.65-1.36,1.14-3.07,1.14s-3.07-.49-3.07-1.14,1.36-1.14,3.07-1.14c1.36-.07,2.5.28,2.93.79Z"/>
    <path class="cls-10" d="m40.5,207.5c1.07-.21.14,1.72-.43,1.86s-5.14,1.42-8.78,1.78-1.36-1.49.78-2c2.07-.49,5.71-1.07,8.43-1.64Z"/>
    <path class="cls-8" d="m32.78,169.43v30.5s-.04.05-.06.07c-1.12,1.33-2.38,2.59-3.72,3.85-.02.03-.05.05-.07.08l-.07.07c-.79.71-1.64,1.5-2.51,2.22V16.29h6.43v153.14Z"/>
    <rect class="cls-19" x="27.69" y="237.4" width="4.02" height="26.77"/>
    <path class="cls-19" d="m27.69,231.24l4.02,6.16h-4.02l-4.8-7.13c1.65.43,3.25.75,4.8.96h0Z"/>
    <rect class="cls-22" x="13.9" y="237.4" width="13.79" height="26.77"/>
    <path class="cls-22" d="m22.89,230.27l4.8,7.13h-13.79l-6.89-10.22c3.49.04,7.69.38,10.7,1.46,1.79.67,3.51,1.21,5.18,1.63Z"/>
    <path class="cls-8" d="m26.35,16.29v189.93c-2.21,1.92-4.64,3.78-7.21,5.78V16.29h7.21Z"/>
    <path class="cls-3" d="m19.14,193.5v18.5c-5.64,4.36-11.99,9.07-18.57,15.21v.14s-.07.01-.07.01v-33.43h.07v1.78s2.51-1.43,2.86-2.07c.04-.07.06-.13.06-.17l1,.1c-.07.72-.13,1.33-.2,1.93-.21,1.65-.86,1.86-.79,3.14.07,1.64.43,1.94,1.86,1.94,1.79,0,1.79-1.44,1.64-2.08-.21-1.28-.28-1.93-.5-3.57-.07-.86.14-3.07.43-5.72l.92.07c0,.29.22.65.65,1.15.5.57,6.57,2.85,8.36,3.28,1.14.29,2,.22,2-.21h.28Zm-3.43,3.36c1.22.29,1.86.5,1.08-.64-.79-1.15-7.22-4.43-8.29-4.72-1.07-.22-1.29.43-1,1.14.29.51,7.07,3.93,8.21,4.22Z"/>
    <path class="cls-3" d="m19.14,146.14v47.36h-.28c0-.22-.22-.5-.79-.86-1.57-1.07-7.92-4.14-9-4.07-.57,0-1.22.22-1.22.71l-.92-.07c.5-5.13,1.35-11.85,1.07-12.85-.43-1.5-1.07-3-1.86-.64,0,2.14-1,11.57-1.64,17.71-.01.05-.01.09-.01.14l-1-.1s.01-.08.01-.11c0-.64-1.93.14-2.93.57h-.07v-35h.07c.29-.21.57-.43.86-.71.89-.9,1.45-1.85,1.45-2.5l1.86-.16c.26,1.01,2.35,2.52,3.76,3.72,1.71,1.51,1.86,1.94,2.65,1,.78-1,.21-2.35-1.51-3.78-.88-.74-1.87-1.37-2.74-1.7l.31-1.38c1.53.27,3.71-.27,5.79-1.57,1.07-.64,1.43-2.13,2.15-2.85,1.13-1.21,2.07-2,2.07-2.86h1.92ZM2.36,190.57c.85-.78-.58-1.07-1.79-.78v1.64l1.79-.86Z"/>
    <path class="cls-3" d="m9,112.57l-1.43-3.28-5.64,2.71H.57v-18.36h18.57v52.5h-1.92c0-.21-.08-.42-.22-.64-.93-1.57-2.85-.93-6.07,1-2.43,1.5-4.86,3.22-5.43,4.71-.21.43-.21.86.07,1.22.22.36.57.64.93.78.22.09.46.16.71.21l-.31,1.38c-.4-.14-.78-.23-1.11-.23-.36,0-.65.15-.94.36-.06.14-.13.28-.13.43,0,.06.01.13.02.2l-1.86.16c0-.08-.01-.15-.03-.21,0-.15-.06-.3-.21-.36-.34-.35-1.16-.23-2.06.37h-.01v-4.23c.72.5,1.36.78,1.93.35.29-.21.43-.35.58-.64.71-1.28-.72-3.43-2.51-6.07v-29.85h2.36l6.07-2.51Z"/>
    <path class="cls-2" d="m3.5,65.01l-1.57-2.43H.57v-24.86h2.28c.23-.36,5.65-5.58,10.01-9.71l6.28,7.21v58.42H.57v-26.78h.72l2.21-1.85Zm10.14-29c0-1.22-.36-2.29-.85-2.29s-.86,1-.86,2.29.35,2.28.86,2.28c.42,0,.85-1,.85-2.28Zm-.36,31.13c0-.64-1.35-1.13-3.07-1.13s-3.06.49-3.06,1.13,1.35,1.15,3.06,1.15,3.07-.5,3.07-1.15Zm-7.85-10.92c0-1.72-.5-3.07-1.14-3.07s-1.15,1.35-1.15,3.07.5,3.07,1.15,3.07,1.14-1.35,1.14-3.07Zm-1.35,15.57c0-1.71-.51-3.07-1.15-3.07s-1.15,1.36-1.15,3.07.51,3.07,1.15,3.07,1.15-1.36,1.15-3.07Z"/>
    <path class="cls-2" d="m19.14,27.5v7.72l-6.28-7.21c1.07-1,2.06-2,2.93-2.79l1.85,2.28h1.5Z"/>
    <path class="cls-2" d="m19.14,22.86v4.64h-1.5l-1.85-2.28c1.49-1.43,2.49-2.36,2.49-2.36h.86Z"/>
    <path class="cls-2" d="m19.14,22.79v.07h-.86s-1,.93-2.49,2.36l-2.79-3.5,3.57-3.57v-1.86h2.57v6.5Z"/>
    <path class="cls-10" d="m18.07,192.64c.57.36.79.64.79.86,0,.43-.86.5-2,.21-1.79-.43-7.86-2.71-8.36-3.28-.43-.5-.65-.86-.65-1.15,0-.49.65-.71,1.22-.71,1.08-.07,7.43,3,9,4.07Z"/>
    <path class="cls-10" d="m17,145.5c.14.22.22.43.22.64,0,.86-.94,1.65-2.07,2.86-.72.72-1.08,2.21-2.15,2.85-2.08,1.3-4.26,1.84-5.79,1.57-.25-.05-.49-.12-.71-.21-.36-.14-.71-.42-.93-.78-.28-.36-.28-.79-.07-1.22.57-1.49,3-3.21,5.43-4.71,3.22-1.93,5.14-2.57,6.07-1Z"/>
    <path class="cls-10" d="m16.79,196.22c.78,1.14.14.93-1.08.64-1.14-.29-7.92-3.71-8.21-4.22-.29-.71-.07-1.36,1-1.14,1.07.29,7.5,3.57,8.29,4.72Z"/>
    <polygon class="cls-2" points="16.57 16.29 16.57 18.15 13 21.72 10.21 18.15 10.21 16.29 16.57 16.29"/>
    <path class="cls-2" d="m13,21.72l2.79,3.5c-.87.79-1.86,1.79-2.93,2.79l-2.86-3.3,3-2.99Z"/>
    <rect class="cls-19" x="9.89" y="237.4" width="4.01" height="26.77"/>
    <path class="cls-19" d="m7.01,227.18l6.89,10.22h-4.01l-6.86-10.19c1.1-.03,2.47-.06,3.98-.03Z"/>
    <path class="cls-10" d="m12.79,33.72c.49,0,.85,1.07.85,2.29,0,1.28-.43,2.28-.85,2.28-.51,0-.86-1-.86-2.28s.35-2.29.86-2.29Z"/>
    <polygon class="cls-2" points="10.21 18.15 13 21.72 10 24.71 8.53 22.96 8.52 22.96 8.5 22.94 4.29 18.15 4.29 16.29 10.21 16.29 10.21 18.15"/>
    <path class="cls-2" d="m10,24.71l2.86,3.3c-4.36,4.13-9.78,9.35-10.01,9.71H.57v-13.29h.64c0,.64,1.36,1.15,3.08,1.15s3.07-.51,3.07-1.15c0-.14-.08-.21-.15-.36l1.31-1.11h.01l1.47,1.75Z"/>
    <path class="cls-10" d="m10.21,66.01c1.72,0,3.07.49,3.07,1.13s-1.35,1.15-3.07,1.15-3.06-.5-3.06-1.15,1.35-1.13,3.06-1.13Z"/>
    <path class="cls-10" d="m9.64,156.5c1.72,1.43,2.29,2.78,1.51,3.78-.79.94-.94.51-2.65-1-1.41-1.2-3.5-2.71-3.76-3.72-.01-.07-.02-.14-.02-.2,0-.15.07-.29.13-.43.29-.21.58-.36.94-.36.33,0,.71.09,1.11.23.87.33,1.86.96,2.74,1.7Z"/>
    <rect class="cls-15" x=".57" y="237.4" width="9.32" height="26.77"/>
    <path class="cls-15" d="m3.03,227.21l6.86,10.19H.57v-10.05c.26-.02,1.16-.08,2.46-.14Z"/>
    <polygon class="cls-3" points="7.57 109.29 9 112.57 2.93 115.08 .57 115.08 .57 112 1.93 112 7.57 109.29"/>
    <path class="cls-2" d="m8.5,22.94l.02.02-1.31,1.11c-.42-.49-1.57-.85-2.92-.78-1.72,0-3.08.5-3.08,1.14h-.64v-8.14h3.72v1.86l4.21,4.79Z"/>
    <path class="cls-10" d="m8,176.36c.28,1-.57,7.72-1.07,12.85-.29,2.65-.5,4.86-.43,5.72.22,1.64.29,2.29.5,3.57.15.64.15,2.08-1.64,2.08-1.43,0-1.79-.3-1.86-1.94-.07-1.28.58-1.49.79-3.14.07-.6.13-1.21.2-1.93,0-.05,0-.09.01-.14.64-6.14,1.64-15.57,1.64-17.71.79-2.36,1.43-.86,1.86.64Z"/>
    <path class="cls-10" d="m7.21,24.07c.07.15.15.22.15.36,0,.64-1.36,1.15-3.07,1.15s-3.08-.51-3.08-1.15,1.36-1.14,3.08-1.14c1.35-.07,2.5.29,2.92.78Z"/>
    <path class="cls-10" d="m4.29,53.15c.64,0,1.14,1.35,1.14,3.07s-.5,3.07-1.14,3.07-1.15-1.35-1.15-3.07.5-3.07,1.15-3.07Z"/>
    <ellipse class="cls-10" cx="2.93" cy="71.79" rx="1.15" ry="3.07"/>
    <polygon class="cls-2" points="1.93 62.58 3.5 65.01 1.29 66.86 .57 66.86 .57 62.58 1.93 62.58"/>
    <path class="cls-10" d="m3.5,193.36s0,.07-.01.11c0,.04-.02.1-.06.17-.35.64-2.86,2.07-2.86,2.07v-1.78c1-.43,2.93-1.21,2.93-.57Z"/>
    <path class="cls-10" d="m.57,144.93c1.79,2.64,3.22,4.79,2.51,6.07-.15.29-.29.43-.58.64-.57.43-1.21.15-1.93-.35v-6.36Z"/>
    <path class="cls-10" d="m2.85,155.51c.02.06.03.13.03.21,0,.65-.56,1.6-1.45,2.5-.29.28-.57.5-.86.71h-.07v-3.36s.05-.03.08-.05c.9-.6,1.72-.72,2.06-.37.15.06.21.21.21.36Z"/>
    <path class="cls-10" d="m.57,189.79c1.21-.29,2.64,0,1.79.78l-1.79.86v-1.64Z"/>
  </g>
  <g>
    <polyline class="cls-23" points="93.64 226.38 95.9 226.38 99.91 226.38 113.7 226.38 117.73 226.38 142.62 226.38 146.63 226.38 160.41 226.38 164.45 226.38 189.33 226.38 193.34 226.38 207.13 226.38 211.16 226.38 236.05 226.38 240.06 226.38 253.85 226.38 257.88 226.38 268.86 226.38 268.86 237.4 268.86 264.17"/>
    <polyline class="cls-23" points=".57 237.4 9.89 237.4 13.9 237.4 27.69 237.4 31.71 237.4 56.61 237.4 60.62 237.4 74.4 237.4 78.44 237.4 103.32 237.4 107.33 237.4 121.12 237.4 125.16 237.4 150.04 237.4 154.05 237.4 167.84 237.4 171.87 237.4 196.76 237.4 200.77 237.4 214.55 237.4 218.59 237.4 243.47 237.4 247.48 237.4 261.27 237.4 265.3 237.4 268.86 237.4"/>
    <polyline class="cls-23" points="268.86 264.17 265.3 264.17 261.27 264.17 247.48 264.17 243.47 264.17 218.59 264.17 214.55 264.17 200.77 264.17 196.76 264.17 171.87 264.17 167.84 264.17 154.05 264.17 150.04 264.17 125.16 264.17 121.12 264.17 107.33 264.17 103.32 264.17 78.44 264.17 74.4 264.17 60.62 264.17 56.61 264.17 31.71 264.17 27.69 264.17 13.9 264.17 9.89 264.17 .57 264.17 .57 237.4 .57 227.35 .57 227.21"/>
    <polyline class="cls-23" points="236.05 226.38 243.47 237.4 243.47 264.17"/>
    <polyline class="cls-23" points="240.06 226.38 247.48 237.4 247.48 264.17"/>
    <polyline class="cls-23" points="253.85 226.38 261.27 237.4 261.27 264.17"/>
    <polyline class="cls-23" points="257.88 226.38 265.3 237.4 265.3 264.17"/>
    <polyline class="cls-23" points="189.33 226.38 196.76 237.4 196.76 264.17"/>
    <polyline class="cls-23" points="193.34 226.38 200.77 237.4 200.77 264.17"/>
    <polyline class="cls-23" points="207.13 226.38 214.55 237.4 214.55 264.17"/>
    <polyline class="cls-23" points="211.16 226.38 218.59 237.4 218.59 264.17"/>
    <polyline class="cls-23" points="142.62 226.38 150.04 237.4 150.04 264.17"/>
    <polyline class="cls-23" points="146.63 226.38 154.05 237.4 154.05 264.17"/>
    <polyline class="cls-23" points="160.41 226.38 167.84 237.4 167.84 264.17"/>
    <polyline class="cls-23" points="164.45 226.38 171.87 237.4 171.87 264.17"/>
    <polyline class="cls-23" points="95.9 226.38 103.32 237.4 103.32 264.17"/>
    <polyline class="cls-23" points="99.91 226.38 107.33 237.4 107.33 264.17"/>
    <polyline class="cls-23" points="113.7 226.38 121.12 237.4 121.12 264.17"/>
    <polyline class="cls-23" points="117.73 226.38 125.16 237.4 125.16 264.17"/>
    <polyline class="cls-23" points="50.48 228.3 50.61 228.49 56.61 237.4 56.61 264.17"/>
    <polyline class="cls-23" points="53.87 227.38 60.62 237.4 60.62 264.17"/>
    <polyline class="cls-23" points="67.85 227.68 74.4 237.4 74.4 264.17"/>
    <polyline class="cls-23" points="72.01 227.86 78.44 237.4 78.44 264.17"/>
    <polyline class="cls-23" points="2.93 227.07 3.03 227.21 9.89 237.4 9.89 264.17"/>
    <polyline class="cls-23" points="6.94 227.07 7.01 227.18 13.9 237.4 13.9 264.17"/>
    <polyline class="cls-23" points="22.89 230.27 27.69 237.4 27.69 264.17"/>
    <polyline class="cls-23" points="27.69 231.24 31.71 237.4 31.71 264.17"/>
    <polyline class="cls-23" points="228.47 149.14 236.96 149.14 242.64 149.14 254.75 149.14 259.29 149.14 268.86 149.14 268.86 160.22 265.1 160.22 260.57 160.22 248.47 160.22 242.78 160.22 235.02 160.22 234.86 160.22"/>
    <line class="cls-23" x1="254.75" y1="149.14" x2="260.57" y2="160.22"/>
    <line class="cls-23" x1="259.29" y1="149.14" x2="265.1" y2="160.22"/>
    <line class="cls-23" x1="242.64" y1="149.14" x2="248.47" y2="160.22"/>
    <line class="cls-23" x1="236.96" y1="149.14" x2="242.78" y2="160.22"/>
    <path class="cls-24" d="m.57,144.93V6.65h113.92c11.01-.36,27.15,1.28,37.65-6.15-6.57,8.29-13.14,12.14-33.64,12.14v1.05c.01.6.04,1.46.07,2.53v.07c.07,3.44.14,9.13.22,16.36v1.61c.06,7.42.21,16.33.28,25.96v3.28c0,4.22.08,8.58.08,12.93s.06,8.36.06,12.64v23.5"/>
    <line class="cls-24" x1=".57" y1="155.51" x2=".57" y2="151.29"/>
    <path class="cls-24" d="m93.63,226.38c-1.31.48-1.7.26-1.7.26-3.77,1.26-11.94,1.48-19.92,1.21-1.4-.05-2.79-.11-4.16-.17-4.58-.25-8.82-.63-11.78-1.04-.72.23-1.45.48-2.2.74-1.05.36-2.13.73-3.26,1.11-6.22,2.06-13.66,4.08-22.92,2.74-1.55-.21-3.15-.53-4.8-.96-1.67-.42-3.39-.96-5.18-1.63-3.01-1.08-7.21-1.42-10.7-1.46-1.51-.03-2.88,0-3.98.03-1.3.06-2.2.12-2.46.14-.04.01-.07.01-.07.01v-68.29"/>
    <line class="cls-23" x1="93.64" y1="226.38" x2="93.63" y2="226.38"/>
    <path class="cls-24" d="m119.21,116.08c0,7.71-.07,15.06-.14,21.93v2.06c-.07,4.71-.16,9.13-.28,13.14-.1,4.01-.22,7.61-.36,10.72-.07,1.05-.07,2.02-.15,2.93v.07c-.07,1.39-.13,2.58-.27,3.64,0,.02-.01.05-.01.08-.15,1.35-.29,2.49-.43,3.28-.07.55-.2,1.1-.34,1.71-.01.02-.01.05-.02.08-.28,1.33-.56,2.65-.83,4.06-.01.02-.01.06-.02.08-.42,1.73-.84,3.54-1.39,5.4,0,.06-.02.12-.04.17v.07c-.42,1.45-.76,2.9-1.24,4.35-.02.05-.03.1-.05.15-.2.8-.45,1.6-.73,2.39-.01.06-.04.12-.06.18-.47,1.42-.95,2.91-1.42,4.35-.02.07-.05.15-.07.23-.76,2.21-1.52,4.36-2.29,6.43-.02.07-.05.14-.07.21-.55,1.5-1.11,2.95-1.64,4.33-.03.06-.05.11-.07.17-3.22,7.92-6.43,14-8.79,15.5-1.9,1.19-3.24,1.9-4.23,2.33-.02.01-.04.02-.05.03-.21.09-.41.17-.58.23"/>
    <path class="cls-24" d="m119.21,113.5v2.58"/>
    <line class="cls-24" x1=".64" y1="12.72" x2="118.5" y2="12.72"/>
    <polyline class="cls-24" points=".64 16.29 4.29 16.29 10.21 16.29 16.57 16.29 19.14 16.29 26.35 16.29 32.78 16.29 67.42 16.29 72.5 16.29 78.64 16.29 84.92 16.29 113.79 16.29 115.64 16.29 118.5 16.29"/>
    <path class="cls-24" d="m47.28,173.78c-.34,1.05-.69,1.95-.97,2.8,0,.02-.02.04-.03.07-2.21,6.28-3.64,8.28-9.78,18.28-1.06,1.76-2.31,3.38-3.72,5-.02.02-.04.05-.06.07-1.12,1.33-2.38,2.59-3.72,3.85-.02.03-.05.05-.07.08l-.07.07c-.79.71-1.64,1.5-2.51,2.22-2.21,1.92-4.64,3.78-7.21,5.78-5.64,4.36-11.99,9.07-18.57,15.21"/>
    <path class="cls-24" d="m91.93,137.78s.07,4-.14,9.58c-.08,1.14-.15,2.28-.22,3.49,0,.03,0,.06-.01.08-.5,7.41-1.57,16.3-3.92,22.5-.64,1.57-1.28,3-2.07,4.14-1.5,2.21-3.93,4.93-6.78,7.93-.01.01-.02.03-.03.04-1.64,1.78-3.41,3.54-5.26,5.39-.14.07-.21.22-.36.28,0,.02-.02.03-.04.05-1.77,1.7-3.55,3.47-5.32,5.1-.01.02-.02.03-.04.04-7.08,6.74-13.72,12.6-14.87,13.6-.08.07-.13.12-.16.14,17.52,6.3,30.07,15.89,40.51,15.89.34,0,.67-.01,1-.03"/>
    <line class="cls-24" x1="49.36" y1="213.29" x2="56.14" y2="226.57"/>
    <polyline class="cls-24" points="19.14 212 19.14 193.5 19.14 146.14 19.14 93.64 19.14 35.22 19.14 27.5 19.14 22.86 19.14 22.79 19.14 16.29"/>
    <line class="cls-24" x1="26.35" y1="16.29" x2="26.35" y2="206.22"/>
    <polyline class="cls-24" points="32.78 16.29 32.78 59.65 32.78 69.36 32.78 69.43 32.78 93.64 32.78 169.43 32.78 199.93 32.78 200"/>
    <polyline class="cls-24" points="67.42 16.29 67.42 62.01 67.42 93.64 67.42 196.07"/>
    <line class="cls-24" x1="72.5" y1="16.29" x2="72.5" y2="190.64"/>
    <polyline class="cls-24" points="78.64 185.43 78.64 145.72 78.64 145.65 78.64 118.72 78.64 112.5 78.64 93.64 78.64 71 78.64 16.29"/>
    <polyline class="cls-24" points="64.14 20.79 52.64 29.79 42.72 37.72"/>
    <polyline class="cls-24" points="42.72 18.15 52.64 29.79 63.07 42.08"/>
    <polyline class="cls-24" points="34.93 59.65 41.85 68.43 41.87 68.45 43.57 70.65 47.71 75.93 57.57 88.43"/>
    <polyline class="cls-24" points="37.64 56.07 47 68.01 51.14 73.29 60.22 84.86"/>
    <polyline class="cls-24" points="65.71 62.01 51.14 73.29 47.71 75.93 37.64 83.64"/>
    <polyline class="cls-24" points="64.07 54.86 47 68.01 43.57 70.65 36 76.5"/>
    <line class="cls-24" x1="32.78" y1="93.64" x2="67.42" y2="93.64"/>
    <line class="cls-24" x1="1" y1="93.64" x2="18.79" y2="93.64"/>
    <polyline class="cls-24" points="79.07 93.64 97.64 93.64 113.72 93.64 114.93 93.64 116.43 93.64 118.71 93.64"/>
    <path class="cls-24" d="m4.74,155.56c-.01-.07-.02-.14-.02-.2,0-.15.07-.29.13-.43.29-.21.58-.36.94-.36.33,0,.71.09,1.11.23.87.33,1.86.96,2.74,1.7,1.72,1.43,2.29,2.78,1.51,3.78-.79.94-.94.51-2.65-1-1.41-1.2-3.5-2.71-3.76-3.72Z"/>
    <path class="cls-24" d="m17.22,146.14c0-.21-.08-.42-.22-.64-.93-1.57-2.85-.93-6.07,1-2.43,1.5-4.86,3.22-5.43,4.71-.21.43-.21.86.07,1.22.22.36.57.64.93.78.22.09.46.16.71.21,1.53.27,3.71-.27,5.79-1.57,1.07-.64,1.43-2.13,2.15-2.85,1.13-1.21,2.07-2,2.07-2.86Z"/>
    <path class="cls-24" d="m49.86,149.72c0-2.29,3.36-15.43,3.14-16.86-.21-1.5-.64-2.93-1.64-.86-.29,2.22-2.5,12.72-3.65,17.93-.35,1.5-.92,1.64-1,2.79-.07,1.56.15,1.79,1.5,2,1.65.21,1.71-1.15,1.71-1.72-.06-1.21-.06-1.85-.06-3.28Z"/>
    <path class="cls-24" d="m46.07,145.14c-.86.58-7.14,1.5-8.71,1.72-1.5.28-4.79.35-2.94-.78,5.22-1.15,9.01-1.58,10.15-1.79,1.15-.15,2.43.28,1.5.85Z"/>
    <path class="cls-24" d="m46.86,148.08c-.79.71-6.79,2.71-8.36,3.21-1.5.43-4.72,1-3-.44,4.93-1.99,8.65-3.06,9.71-3.42,1.07-.35,2.43-.14,1.65.65Z"/>
    <path class="cls-24" d="m59.43,149.5c1.64.65,2.57.29,1.28-.86-1.28-1.14-6.85-4.56-7.79-4.64-1.06,0-1.85.36-.85,1.65.43.56,5.72,3.21,7.36,3.85Z"/>
    <path class="cls-24" d="m58,152.29c1.07.35,1.64.64,1-.5-.65-1.15-6.14-4.79-7.08-5.15-.92-.35-1.21.29-1,1,.22.5,6.08,4.29,7.08,4.65Z"/>
    <path class="cls-23" d="m6.93,189.21c.5-5.13,1.35-11.85,1.07-12.85-.43-1.5-1.07-3-1.86-.64,0,2.14-1,11.57-1.64,17.71-.01.05-.01.09-.01.14-.07.72-.13,1.33-.2,1.93-.21,1.65-.86,1.86-.79,3.14.07,1.64.43,1.94,1.86,1.94,1.79,0,1.79-1.44,1.64-2.08-.21-1.28-.28-1.93-.5-3.57-.07-.86.14-3.07.43-5.72Z"/>
    <path class="cls-23" d="m.57,189.79c1.21-.29,2.64,0,1.79.78l-1.79.86"/>
    <path class="cls-23" d="m.57,193.93c1-.43,2.93-1.21,2.93-.57,0,.03,0,.07-.01.11,0,.04-.02.1-.06.17-.35.64-2.86,2.07-2.86,2.07"/>
    <path class="cls-23" d="m7.85,189.28c0,.29.22.65.65,1.15.5.57,6.57,2.85,8.36,3.28,1.14.29,2,.22,2-.21,0-.22-.22-.5-.79-.86-1.57-1.07-7.92-4.14-9-4.07-.57,0-1.22.22-1.22.71Z"/>
    <path class="cls-23" d="m15.71,196.86c1.22.29,1.86.5,1.08-.64-.79-1.15-7.22-4.43-8.29-4.72-1.07-.22-1.29.43-1,1.14.29.51,7.07,3.93,8.21,4.22Z"/>
    <path class="cls-24" d="m34.42,169.43c0-.43.15-.78.51-1.21,1.28-1.43,4.5-.58,7.21,1.85,2.22,2,3.43,4.5,3.07,6.07v.05c-.02.06-.06.11-.06.17-.08.21-.22.42-.36.64-.79.93-1.94.14-3.65-.64-1-.43-4.42-2.36-5-3.5-.85-1.29-1.72-2.36-1.72-3.43Z"/>
    <path class="cls-24" d="m58.07,171.78c-.64.65-1.07,1.87-2,2.44-3.15,1.85-6.5,1.99-7.43.35s.86-4.43,4-6.28c3.22-1.86,6.5-2,7.43-.36.64,1.14-.43,2.29-2,3.85Z"/>
    <path class="cls-24" d="m61.29,181.86c-.22.86-2.07.64-3.58.86-1.21.14-1.92.85-3.49.49-3.58-.78-6.15-2.71-5.79-4.28s3.49-2.15,7.07-1.36c3.57.79,6.14,2.72,5.79,4.29Z"/>
    <path class="cls-24" d="m42.28,182.5c.22-.72,1.08-3.85-1.21-3.07-3.14,1.14-7.5,2.78-4.71,3.86,2.85,1.07,5.71,0,5.92-.79Z"/>
    <path class="cls-24" d="m94.22,150.36c0,.14-.08.21-.15.28-.29.44-1.29.44-2.5.29h-.01c-1.22-.14-2.56-.43-3.56-.57-1.08-.15-4.85-1-5.72-1.86-1.13-1.07-2.43-1.86-2.43-2.78,0-.22.08-.51.29-.79.86-1.36,4.22-1.36,7.43.07,1.35.65,2.93,1.5,4.22,2.36,1.49,1.07,2.56,2.14,2.43,3Z"/>
    <path class="cls-24" d="m97.23,147.97c-.99,0-1.76-.3-2.24-.83-1.13-1.28.3-3.71,3.15-5.42,2.57-1.43,7.15-3.5,8.86-2.94.07,0,.14.08.21.08.06.05.11.06.16.1.02,0,.04.03.05.05.79.92-2.13,3.92-3.49,5.28-.57.57-.79,1.64-1.64,2.14-1.51.86-3.08,1.43-4.43,1.5-.22.03-.43.04-.63.04Z"/>
    <path class="cls-24" d="m97.58,149.5c.12-.03.23-.06.35-.07,1-.14,2.28-.07,3.72.21,2.77.57,4.92,1.93,4.71,2.93-.15.58-1.58.43-2.79.5-.93.08-1.43.5-2.71.29-2.79-.57-4.93-1.93-4.72-2.93.13-.44.68-.76,1.44-.93Z"/>
    <path class="cls-24" d="m89.43,153.86c.07-.65.07-3.36-1.93-2.22-2.79,1.57-6.65,3.72-3.64,4,3,.29,5.49-1.13,5.57-1.78Z"/>
    <path class="cls-24" d="m47.07,115.79c-1.14.29-3.07-2.93-4.35-4.36-.72-.86-2.87-4.07-2.93-5.29,0-2-.65-3.71,1.06-4.13,1.72-.44,4.22,1.92,5.58,5.13,1.36,3.29,2.43,8.22.64,8.65Z"/>
    <path class="cls-24" d="m60.14,115.08c-.71.35-1.28,1.28-2.21,1.49-3.29.72-6.5.07-7.14-1.57-.72-1.57,1.43-3.5,4.71-4.21,3.21-.65,9-1.22,9.64.35.51,1.15-3.28,3.07-5,3.94Z"/>
    <path class="cls-24" d="m53.14,122.5c-.28.29-1.14-.35-1.92-.78-.65-.29-1.15-.21-1.79-.86-1.57-1.5-2.36-3.14-1.86-3.71.5-.58,2.22.21,3.79,1.64,1.5,1.49,2.28,3.14,1.78,3.71Z"/>
    <path class="cls-24" d="m45,120.28c.07-.64.43-3.35-1.72-2.42-2.92,1.29-6.99,3-3.99,3.65,2.99.64,5.56-.58,5.71-1.23Z"/>
    <path class="cls-24" d="m44.43,207.65c.14-1.3.29-2.72.5-4.22.5-4.07,2-13.86,2.14-16,.14-2.22-.64-3.14-1.43-1.29-.71,4.29-1.92,12.14-2.28,14.44-.15.71-.29,2-.57,3.56-.25,1.68-.56,3.59-.82,5.17-.25,1.58-.48,2.83-.54,3.19-.22.92.21,2.36,1.14,2.5s1.36-1.28,1.36-2.35c0-.79.22-2.72.5-5Z"/>
    <path class="cls-24" d="m29.62,204.49s-.09.05-.12.08l-.07.07c-.22.22-.07.43.86.5,2.49.15,8.14.15,9.78,0,.78-.07,1.21-.57,1.29-1.07v-.21c0-.43-.36-.86-1.15-.79-3.13.36-4.85.57-7.21.57-1.27,0-2.73.44-3.38.85Z"/>
    <path class="cls-24" d="m40.07,209.36c.57-.14,1.5-2.07.43-1.86-2.72.57-6.36,1.15-8.43,1.64-2.14.51-4.42,2.36-.78,2s8.21-1.64,8.78-1.78Z"/>
    <path class="cls-24" d="m50.28,206.14s1.36.21.08-1.28c-1.29-1.51-3.57-2.72-3.93-2.72s-.79.79,0,1.36c.43.43,3.85,2.64,3.85,2.64Z"/>
    <path class="cls-24" d="m45.57,207.78c0,.15.07.36.36.51,1.64.93,3.78,2.07,4.43,2.07.21,0,.43-.07.56-.22.1-.06.18-.13.24-.21.2-.29.09-.71-.8-1.22-1.57-.85-4.43-1.64-4.43-1.64,0,0-.36.36-.36.71Z"/>
    <path class="cls-24" d="m97.64,95.86c-.21,0-.57.28-.86.93-.56,4.35-1.79,12.21-2.14,14.5-.14.71-.29,2-.57,3.5-.21,1.29-.43,2.72-.64,4v.07c-.36,2.07-.65,3.86-.72,4.29-.21.92.22,2.35,1.15,2.43.92.13,1.36-1.3,1.36-2.36s.42-5.07.92-9.14c.5-4.08,2-13.86,2.15-16.08.06-1.29-.22-2.14-.65-2.14Z"/>
    <path class="cls-24" d="m92.69,114.78c.01-.07.02-.14.02-.21,0-.36-.28-.71-.92-.85-3.15-.51-4.87-.79-7.08-1.43-1.64-.43-3.86-.29-3.86.21,0,.14.22.36.86.58,2.36.85,7.79,2.35,9.43,2.64.82.06,1.42-.43,1.55-.94Z"/>
    <path class="cls-24" d="m80.07,118.72c0,.28.5.57,1.78.71,3.65.5,8.37.36,9.01.36.36,0,1.07-.64,1.28-1.15v-.07c0-.21-.07-.42-.43-.42-2.79-.15-6.43-.43-8.56-.43-1.44,0-3.08.49-3.08,1Z"/>
    <path class="cls-24" d="m105.21,117.86s1.51-.71-.79-1.36c-2.28-.71-7.13-1-7.43-.78-.28.14-.28,1.21.94,1.36.71.13,7.28.78,7.28.78Z"/>
    <path class="cls-24" d="m105.64,123.22c.57,0,1.65-.72,0-1.65-1.57-.85-7.71-2.42-7.71-2.42,0,0-.79.71,0,1.13,1.64.94,7.14,2.94,7.71,2.94Z"/>
    <path class="cls-24" d="m107.64,187.79c0-.22-.14-.5-.43-.86-2.79-2.14-7.78-6.07-9.21-7.21-1.43-1.15-6.93-5.43-7.5-6.01-.58-.57-1.64-.78-2.07-.14,0,0,0,.08-.08.08-.02,0-.03,0-.03,0,0,.02.03.05.03.05-.13.65.57,1.36,1.22,1.79.71.43,3.36,2.28,5.93,4.22,2.64,1.92,8.86,6.78,10.28,7.78,1.07.65,1.86.71,1.86.29Z"/>
    <path class="cls-24" d="m100.5,172.07c1.15-1.42,1.86-3.93.5-2.5-1.35,1.36-4.22,4.79-4.93,5.86-.64,1.07.36,2.35,1.14,1.29,1.36-2.07,2.14-3.22,3.29-4.65Z"/>
    <path class="cls-24" d="m97.35,168.86c.72-1.57.79-4-.78-1.57-1.58,2.42-3,5.93-3.22,6.42-.21.36.43,2.01.87,1.22,1-1.92,2.42-4.5,3.13-6.07Z"/>
    <path class="cls-24" d="m91.22,184.85c1.21-1.35,3.06-4.77,3-5.07-.08-.35-.87-.71-1.29.08-.36.43-2.93,4.99-2.93,4.99,0,0,0,1.36,1.22,0Z"/>
    <path class="cls-24" d="m91.5,179.07s-.22-.86-.79-.42c-1.14.85-4.35,4.07-4.57,4.49-.22.43-.07,1.5,1.14.65,1.15-.86,4.22-4.72,4.22-4.72Z"/>
    <path class="cls-24" d="m87.14,204.79c0-1.08-2.5-1.57-5.57-2.44-3-.85-8.79-4.35-9.07-1.85,2.35,2.64,4.29,7,9.35,8.15,3.36.57,5.29-2.79,5.29-3.86Z"/>
    <path class="cls-24" d="m97.29,203.86c-2.79,1.71-5.07,3.14-6.58,2.36-1.43-.79-3.35-1.29-2.28-2.36,4.07-4.5,5.5-4.79,6.79-6.15,1.71-1.71,3.64-4.21,4.28-1.64.92,4,.92,5.86-2.21,7.79Z"/>
    <path class="cls-24" d="m84.86,216.36c2.64-2.07,1.42-4.15,1.42-5.29s-.78-1.36-2.64.07c-2.21,1.93-4.36,2.36-4.36,3.28s2.93,4.01,5.58,1.94Z"/>
    <path class="cls-24" d="m99.07,211.93c.43-1.79-1-2.28-3.64-3.36-2.65-.92-5.51-1.79-5.64.29.85,2.07,1.49,4.56,4.49,4.71,3.07.15,4.36.15,4.79-1.64Z"/>
    <line class="cls-24" x1="163.89" y1="99.31" x2="163.86" y2="99.29"/>
    <path class="cls-24" d="m168.42,103.22c-1.85.79-3.56,1.14-4.92,1.21h-.93c-2.49-.14-.45-2.54,1.33-5.04,0,0,.02-.03.02-.03"/>
    <path class="cls-24" d="m163.86,99.36s.01-.03.03-.05c.14-.21.33-.47.46-.66,1.93-2.79,8.15-10.07,8.29-14.01.14-3,.07-7.78-1.14-10.5-.36-.85-.86-1.49-1.43-1.85-.57.21-1.08.43-1.65.57-4.35,1.64-8.07,3.64-10.28,3.71-2.85,3.77-6.05,8.41-9.18,12.6l-3.68,4.83c-.92,1.22-1.86,2.29-2.71,3.29-1.28,1.5-2.5,2.72-3.5,3.57-.58.48-1.18,1.02-1.81,1.62-.14.14-.32.3-.5.47-1.26,1.23-3.26,3.19-3.26,3.19-1.64,1.72-3.51,3.51-5.5,5.07-2.63,2.13-5.53,3.91-8.79,4.77-.02,0-.05.01-.07.02v-19.5s.05-.04.07-.07c2.87-2.46,14.72-12,14.72-12,1.71-1.43,3.28-2.64,4.71-3.79,1-.85,17.71-14.71,24.14-14.92,6.43-.22,12.36,1.57,13,9.72.43,6.49,1.64,14.78.36,19.99-.36,1.36-.85,2.5-1.5,3.36-1.71,2.07-4,3.5-6.21,4.43"/>
    <path class="cls-24" d="m142.57,97.29c.43.85,1.5,2,3.07,2.85,1.07.64,2.26,1.14,3.68,1.43h.04c.19.05.38.09.58.12.37.07.75.1,1.13.1,2.07.14,3.72.22,5.14.22,3.71-.08,5.71-.87,7.65-2.72"/>
    <polyline class="cls-24" points="156.21 102.07 144.64 120.29 133.5 106.14"/>
    <path class="cls-24" d="m181.93,103.93c.43.36.85.64,1.21.79,3.35,1.5,6.22,3.64,9,6.36,2.78,2.78,5.14,7.35,5.14,7.35h7.29l-.43,3,5.92,1.29v1.92l2.51,1,3,1.15-9.86,11.99"/>
    <path class="cls-24" d="m176.14,95.43s2.86,6,5.79,8.5"/>
    <path class="cls-24" d="m168.35,103.22h.08c4.98-.21,10.52-.1,15.5,8.64.99,1.77,2.33,4.26,3.83,7.16.01.02.02.03.03.05.93,1.87,1.93,3.9,2.96,5.99,1.37,2.78,2.79,5.69,4.14,8.47.34.69.67,1.38,1,2.06.02,0,.03.04.03.06,2.01,4.15,3.9,7.85,5.3,10.37.1.17.19.33.28.48.85,1.5,1.49,2.5,1.78,2.71"/>
    <path class="cls-24" d="m228.47,149.14c1.3,1.65,2.83,3.64,4.09,5.58,1.08,1.64,1.87,3.21,2.3,4.56,0,.03,0,.06.01.07.06.26.12.46.12.72.01.05.02.09.03.15.14.98.43,2.29.69,3.78,0,.03.01.05.01.07.27,1.56.42,3.24.27,4.86-.21,2.07-.92,4-2.85,5.14-4.79,2.86-20.21,2.71-21.85,2.93-.29,0-.65.21-1,.43-.07.05-.14.09-.22.14-1.93,1.22-4.79,4.15-4.79,4.15h-11.14l-4.14,3.71-2.21-1.43-3.86,1.85-.06.06-3.73,3.66-1.78,4.29-4.94-.65-3.35-.42-.09-.02-4.63-.62-.56,4.3v.05s-6.23.86-6.23.86l-5.49-7.43c-5.58,2-10.71,4.93-14.5,4.35-2.86,3.72-5.93,9.86-6.22,9.86-.36,0-4.49-.43-4.49-.43l-2.94,2.72-3.78-2.14-.22-.15h-6.21l-7.29,4"/>
    <line class="cls-23" x1="228.46" y1="149.14" x2="228.47" y2="149.14"/>
    <path class="cls-24" d="m195.92,135.57c2.22,1.22,5.22,2.5,8.29,3.57.43.15.86.29,1.29.43,3.64,1.21,7.14,2.15,9.14,2.36,3.85.43,10.5,3.07,13.15,6.36.21.27.44.56.67.85"/>
    <path class="cls-24" d="m153.23,138.7c.02.07.03.15.05.23,0,.01,0,.02.01.02.35,1.92.71,3.76.99,5.24v.02c.43,2.22.64,3.65.64,3.65"/>
    <path class="cls-24" d="m135.07,136.36s.03-.03.04-.05c.77-.9,1.47-1.83,2.18-2.66,1.42-1.72,2.71-3.07,3.64-3.79,3.92-3.07,7.85-7.29,9.64-2.22.84,2.38,1.81,6.89,2.66,11.04"/>
    <path class="cls-24" d="m123.14,149.14c2.36-.78,7.5-7.42,11.93-12.85"/>
    <path class="cls-24" d="m118,170.57h.01c2.85-.92,6.68-3.06,10.74-6.54,0-.01.02-.02.03-.03,1.99-1.71,3.98-3.69,5.9-6.02.01-.02.02-.03.03-.05,1.07-1.29,2.07-2.65,3.07-4.14s1.93-3.06,2.85-4.7c0-.01.01-.01.01-.01,1.43-2.65,2.72-5.58,3.78-8.72.79-2.29,1.43-4.65,1.94-7.14"/>
    <path class="cls-24" d="m140.71,149.14l14.21-1,4.72-.35c10.57,14.71,21.14,27.99,35.22,33.85"/>
    <path class="cls-24" d="m137.86,153.86h20.28s14.57,20.71,29.65,30.14"/>
    <path class="cls-24" d="m134.71,158c7.5,1,20.08-.07,22.08-.07l.06.09c8.25,10.6,17.49,24.86,27.02,27.89.02.01.04.01.06.02"/>
    <path class="cls-24" d="m128.78,164.07c.93,0,2.44.07,4.21.15h.04c3.05.07,7.08.21,10.75.21h.07c3.11,0,6.01,0,8-.07h.07c1.22-.07,2-.14,2.29-.29,1.55,11.06,8.8,31.15,10.58,32.38.02.02.04.04.07.05"/>
    <path class="cls-24" d="m155.57,161.64s0,.03.04.07c.09.2.36.77.6,1.29,2.35,5.29,13.21,29.57,13.78,29.64"/>
    <path class="cls-24" d="m135.35,179.93s-.09.07-.13.1c-4.18,3.03-8.93,5.84-14.36,7.82-.37.14-.73.27-1.1.39-1.21.42-2.44.79-3.69,1.12-.03.01-.05.02-.08.02-.76.2-1.52.35-2.27.48"/>
    <path class="cls-24" d="m142.78,173.71l-.03.03c-1.39,1.31-2.84,2.62-4.5,3.94-.01.01-.02.03-.04.04-.92.78-1.86,1.49-2.86,2.21"/>
    <path class="cls-24" d="m151.85,164.36c-1.42,1.5-3.49,3.78-6.13,6.5-.01.01-.02.02-.03.02-.91.9-1.8,1.8-2.84,2.77-.02.02-.04.04-.07.06"/>
    <path class="cls-24" d="m114.96,185.43h-.03s.04-.01.07-.02c5.36-1.51,14.75-4.51,22.07-11.76.02-.02.04-.04.05-.06,2.55-2.49,4.82-5.54,6.66-9.16"/>
    <polyline class="cls-24" points="132.99 164.14 133.03 164.22 134.29 167.14 135.78 170.57 137.12 173.59 137.14 173.65"/>
    <path class="cls-24" d="m134.29,167.14c-5.01,3.51-9.58,5.87-17.01,8.51"/>
    <path class="cls-24" d="m116.43,179.78c7.28-.92,17.92-7.71,19.35-9.21"/>
    <path class="cls-24" d="m151.14,170.57c.57,6.57,1.14,18.15,2,19.36"/>
    <path class="cls-24" d="m154.92,144.08l4.72-1.22s10,10.78,18.93,9.78c.03.15.07.29.1.44.04.15.08.31.11.49,3.21,11.62,7.27,24.03,31.29,24h.14"/>
    <path class="cls-24" d="m180.28,144.08c6.43,10.64,4.08,25.27,55.43,19.99"/>
    <path class="cls-24" d="m181.21,138.93c.07,1.07,3,28.57,53.65,20.43"/>
    <path class="cls-24" d="m181.42,137.78c4.76,4.45,8.13,8.94,13.41,12.28.75.48,1.55.94,2.38,1.37,6.93,3.57,17,5.29,35.35,3.29"/>
    <line class="cls-24" x1="187.79" y1="119" x2="197.28" y2="118.51"/>
    <line class="cls-24" x1="204.14" y1="121.51" x2="197.28" y2="132.58"/>
    <line class="cls-24" x1="203.28" y1="132.86" x2="210.06" y2="124.79"/>
    <line class="cls-24" x1="212.64" y1="125.71" x2="205.35" y2="135.57"/>
    <path class="cls-24" d="m163.43,104.78c-3.29,1.15-7.93-.21-8.58,11.3-.21,4.28-.49,8.5-.78,12.14-.15,1.57-.22,3.07-.36,4.36-.07,1.13-.21,2.13-.21,2.99-.17,1.54-.24,2.64-.27,3.11v.02c-.02.15-.02.23-.02.23,0,0,.03.01.08.02.44.17,2.68.95,6.63,1.34,4.79.43,12.08.28,21.5-2.51-.06.36-.14.72-.21,1.08-.01.03-.01.04-.02.07-.42,2.04-.7,3.73-.91,5.07-.01.02-.01.05-.02.08-.9,5.28-.84,5.71-.84,5.71,0,0-.12,1.2.34,3.01.02.11.06.23.09.35,1.87,6.42,11.07,19.35,56.07,15.78"/>
    <path class="cls-24" d="m154.14,128.22c5.86-.15,18.07-1.72,20.15-2.22"/>
    <path class="cls-24" d="m153.79,132.58c4-.29,17.2-1.94,22.14-3.87"/>
    <path class="cls-24" d="m153.79,135.57c7.35,0,19.56-1.86,23.92-3.86"/>
    <polyline class="cls-24" points="169.29 117.86 174.29 126 175.93 128.71 177.71 131.71 179.72 135 181.42 137.78"/>
    <path class="cls-24" d="m128.07,111.21c3.15,5.43,7.93,14.15,12,14.94"/>
    <path class="cls-24" d="m128.22,119.15c.49.71,1.06,1.49,1.64,2.21.09.12.19.23.29.35,1.06,1.31,2.23,2.61,3.28,3.79,1.57,1.72,2.99,3,3.64,3.36"/>
    <path class="cls-24" d="m119.21,123.07c2.58,2.79,6.29,7.43,13.43,7.57"/>
    <rect class="cls-24" x="129.35" y="126.5" width="2.79" height="2.08"/>
    <rect class="cls-24" x="122.14" y="129.64" width="2.78" height="2.07"/>
    <rect class="cls-24" x="126.57" y="122.36" width="2.78" height="2.07"/>
    <rect class="cls-24" x="148.14" y="139.36" width="2.78" height="2.07"/>
    <rect class="cls-24" x="145.72" y="143.65" width="2.77" height="2.07"/>
    <rect class="cls-24" x="150.85" y="145.79" width="2.79" height="2.07"/>
    <polygon class="cls-24" points="143.42 140.07 140.64 140.07 140.64 138.01 141.36 138.01 143.42 138.01 143.42 140.07"/>
    <polygon class="cls-24" points="138.57 133.86 141.36 133.86 141.36 135.93 140.64 135.93 138.57 135.93 138.57 133.86"/>
    <rect class="cls-24" x="136" y="139.07" width="2.78" height="2.07"/>
    <rect class="cls-24" x="130.86" y="145.79" width="2.78" height="2.07"/>
    <rect class="cls-24" x="133.43" y="150.21" width="2.78" height="2.08"/>
    <rect class="cls-24" x="127.5" y="152.5" width="2.78" height="2.07"/>
    <polygon class="cls-24" points="123.14 192 120.36 192 120.36 189.93 120.86 189.93 123.14 189.93 123.14 192"/>
    <rect class="cls-24" x="180" y="117.72" width="2.78" height="2.07"/>
    <path class="cls-24" d="m145.72,170.79s-.02.06-.03.09c-1.79,6.58-4.21,17.79-7.12,23.4"/>
    <path class="cls-24" d="m127.86,203.71c5.98-9.47,11.1-19.44,14.89-29.97l.03-.09"/>
    <path class="cls-24" d="m120.79,204.79c.13-.15.21-.29.35-.5,8.08-11.08,15.21-18,17.15-26.57"/>
    <path class="cls-24" d="m114.64,204.14c.07-.07.15-.21.21-.28.03-.03.05-.05.06-.08,1.2-1.39,2.47-2.79,3.71-4.26l.02-.02c2.15-2.43,4.28-4.79,6.28-7.07,4.25-4.81,8-9.19,10.3-12.4.01-.03.04-.07.07-.1"/>
    <path class="cls-24" d="m181.93,103.93c1.14,1.79,6.07,7.36,6.99,9.64"/>
    <path class="cls-24" d="m119.14,139.36c5.43,0,13.15-1.58,15.93-3.07"/>
    <path class="cls-23" d="m.57,151.29c.72.5,1.36.78,1.93.35.29-.21.43-.35.58-.64.71-1.28-.72-3.43-2.51-6.07v6.36Z"/>
    <path class="cls-23" d="m.5,158.93h.07c.29-.21.57-.43.86-.71.89-.9,1.45-1.85,1.45-2.5,0-.08-.01-.15-.03-.21,0-.15-.06-.3-.21-.36-.34-.35-1.16-.23-2.06.37-.03.02-.05.04-.08.05v3.36Z"/>
    <polyline class="cls-24" points="1.93 112 7.57 109.29 14.15 106.14"/>
    <polyline class="cls-24" points="2.93 115.08 9 112.57 15.15 110.14"/>
    <polyline class="cls-24" points="3.29 99.71 7.57 109.29 9 112.57 12.79 121.15"/>
    <polyline class="cls-24" points="1.93 62.58 3.5 65.01 16 84.43"/>
    <polyline class="cls-24" points="1.29 66.86 3.5 65.01 16 54.86"/>
    <path class="cls-24" d="m53.79,23c0,1.71-.51,3.07-1.15,3.07s-1.14-1.36-1.14-3.07.5-3.06,1.14-3.06,1.15,1.42,1.15,3.06Z"/>
    <path class="cls-24" d="m52.92,37.79c0,1.71-.49,3.07-1.13,3.07s-1.15-1.36-1.15-3.07.5-3.07,1.15-3.07,1.13,1.42,1.13,3.07Z"/>
    <path class="cls-24" d="m96.64,45.86c0,1.71-.5,3.07-1.14,3.07s-1.15-1.36-1.15-3.07.51-3.07,1.15-3.07,1.14,1.36,1.14,3.07Z"/>
    <path class="cls-24" d="m102.71,77.93c0,1.71-.5,3.07-1.14,3.07s-1.15-1.36-1.15-3.07.51-3.07,1.15-3.07,1.14,1.35,1.14,3.07Z"/>
    <path class="cls-24" d="m85,61.65c0,1.71-.5,3.07-1.14,3.07s-1.15-1.36-1.15-3.07.5-3.07,1.15-3.07,1.14,1.42,1.14,3.07Z"/>
    <path class="cls-24" d="m84.92,76.5c0,1.71-.49,3.07-1.13,3.07s-1.15-1.36-1.15-3.07.51-3.06,1.15-3.06,1.13,1.42,1.13,3.06Z"/>
    <path class="cls-24" d="m98.5,23.36c0,1.71-.5,3.07-1.15,3.07s-1.13-1.36-1.13-3.07.49-3.07,1.13-3.07,1.15,1.36,1.15,3.07Z"/>
    <path class="cls-24" d="m13.64,36.01c0,1.28-.43,2.28-.85,2.28-.51,0-.86-1-.86-2.28s.35-2.29.86-2.29.85,1.07.85,2.29Z"/>
    <path class="cls-24" d="m49.28,59.65c0,1.71-.49,3.06-1.13,3.06s-1.22-1.35-1.22-3.06.5-3.07,1.14-3.07,1.21,1.42,1.21,3.07Z"/>
    <path class="cls-24" d="m48.21,81.57c0,1.72-.5,3.07-1.14,3.07s-1.22-1.35-1.22-3.07.51-3.07,1.15-3.07,1.21,1.36,1.21,3.07Z"/>
    <ellipse class="cls-24" cx="2.93" cy="71.79" rx="1.15" ry="3.07"/>
    <path class="cls-24" d="m5.43,56.22c0,1.72-.5,3.07-1.14,3.07s-1.15-1.35-1.15-3.07.5-3.07,1.15-3.07,1.14,1.35,1.14,3.07Z"/>
    <path class="cls-24" d="m13.28,67.14c0,.65-1.35,1.15-3.07,1.15s-3.06-.5-3.06-1.15,1.35-1.13,3.06-1.13,3.07.49,3.07,1.13Z"/>
    <path class="cls-24" d="m41.07,69.08c.07.14.14.21.14.35,0,.65-1.36,1.14-3.07,1.14s-3.07-.49-3.07-1.14,1.36-1.14,3.07-1.14c1.36-.07,2.5.28,2.93.79Z"/>
    <ellipse class="cls-24" cx="59" cy="71.79" rx="3.07" ry="1.14"/>
    <path class="cls-24" d="m95.22,70.65c0,.64-1.44,1.14-3.08,1.14s-3.07-.5-3.07-1.14,1.36-1.15,3.07-1.15,3.08.51,3.08,1.15Z"/>
    <path class="cls-24" d="m63.07,29.43c0,.64-1.43,1.15-3.07,1.15s-3.07-.51-3.07-1.15,1.36-1.14,3.07-1.14,3.07.5,3.07,1.14Z"/>
    <path class="cls-24" d="m89.86,32.72c0,.64-1.36,1.14-3.07,1.14s-3.08-.5-3.08-1.14,1.36-1.14,3.08-1.14,3.07.5,3.07,1.14Z"/>
    <path class="cls-24" d="m48.36,29.07c0,.65-1.36,1.15-3.08,1.15s-3.07-.5-3.07-1.15,1.36-1.14,3.07-1.14,3.08.5,3.08,1.14Z"/>
    <path class="cls-24" d="m7.21,24.07c.07.15.15.22.15.36,0,.64-1.36,1.15-3.07,1.15s-3.08-.51-3.08-1.15,1.36-1.14,3.08-1.14c1.35-.07,2.5.29,2.92.78Z"/>
    <polyline class="cls-24" points="4.29 18.15 8.5 22.94 8.52 22.96 8.53 22.96 10 24.71 12.86 28.01 19.14 35.22"/>
    <polyline class="cls-24" points="10.21 18.15 13 21.72 15.79 25.22 17.64 27.5"/>
    <polyline class="cls-24" points="4.08 30.65 10 24.71 13 21.72 16.57 18.15"/>
    <path class="cls-24" d="m2.85,37.72c.23-.36,5.65-5.58,10.01-9.71,1.07-1,2.06-2,2.93-2.79,1.49-1.43,2.49-2.36,2.49-2.36"/>
    <polyline class="cls-24" points="81.57 20.29 92.35 33.93 95.22 37.5 106.5 51.79"/>
    <polyline class="cls-24" points="84.92 18.15 95.35 31.58 98.21 35.14 108.85 48.93"/>
    <polyline class="cls-24" points="82 42.08 92.35 33.93 95.35 31.58 98.43 29.14 110 19.94"/>
    <polyline class="cls-24" points="105.64 29.22 105.66 29.21 113.07 23.36"/>
    <polyline class="cls-24" points="82 48 95.22 37.5 98.21 35.14 105.64 29.22"/>
    <polyline class="cls-24" points="80.85 71 83.36 69.43 103.32 57.23 103.36 57.22 106.14 55.5 108.05 54.33 112.21 51.79"/>
    <polyline class="cls-24" points="82 67.79 83.36 69.43 95.78 84.64 98.5 88.07"/>
    <polyline class="cls-24" points="102.71 89.15 105.78 86.64 105.86 86.58 107.42 85.29 113.07 80.57"/>
    <polyline class="cls-24" points="113.79 16.29 113.85 23.29 113.85 23.36 114 32.72 114.28 51.79 114.43 61.03 114.43 61.07 114.49 63.29 114.49 63.36 114.79 80.57 114.93 89.15 114.93 90.86 114.93 93.64"/>
    <path class="cls-24" d="m113.72,32.72c-2.22-1.86-5.22-3-8.01-3.5-.01,0-.04,0-.05,0-.93-.15-1.81-.24-2.63-.24-1.71,0-3.15.34-3.96.96"/>
    <path class="cls-24" d="m113.93,35.36c-4.43-3.78-9.22-1.86-11.64,0"/>
    <polyline class="cls-24" points="118.71 32.72 118.79 32.68 129.28 27.86"/>
    <path class="cls-24" d="m118.71,34.29s.04-.02.08-.03c1.05-.47,11.36-5.19,13.56-5.19"/>
    <line class="cls-24" x1="119.07" y1="60.22" x2="129.78" y2="56.58"/>
    <path class="cls-24" d="m119.25,57.47c.64-.29,7-2.29,8.71-2.5"/>
    <line class="cls-24" x1="119.25" y1="89.95" x2="129.28" y2="84.86"/>
    <path class="cls-24" d="m119.25,87.22c.64-.29,11.64-4.78,13.35-5.01"/>
    <path class="cls-24" d="m114.49,61.07s-.03-.02-.06-.04c-.63-.46-4.68-3.35-8.29-5.53-1.93-1.21-3.78-2.14-4.72-2.35"/>
    <path class="cls-24" d="m114.43,63.29c-1.57-.93-6.98-3.91-11.11-6.06-.01,0-.02,0-.03-.01-2.58-1.36-4.65-2.36-5.08-2.36"/>
    <path class="cls-24" d="m114.93,89.15c-.36-.15-3.86-1.93-7.51-3.86-3.56-1.86-7.28-3.86-8.35-4.72"/>
    <path class="cls-24" d="m114.49,90.86s-4.27-2.22-8.63-4.28h-.01c-3.28-1.58-6.64-3.01-8.21-3.43"/>
    <line class="cls-24" x1="113.72" y1="93.64" x2="114.36" y2="139.36"/>
    <polyline class="cls-24" points="114.93 93.64 115.64 114.15 115.79 117.02 115.79 117.08 116.43 136.36"/>
    <path class="cls-24" d="m113.72,115.79c-2.79-3.79-8.94-9.22-11.94-9.93"/>
    <path class="cls-24" d="m113.72,119.86c-3.72-4.65-7.43-9.43-11.94-11.72"/>
    <line class="cls-24" x1="115.64" y1="114.15" x2="119.14" y2="113.5"/>
    <path class="cls-24" d="m115.64,117.15l.07-.07s.05-.05.08-.06c.61-.52,2.62-2.07,3.31-.99.02.02.03.03.04.05"/>
    <path class="cls-24" d="m109.07,203.71v-.13l.71-15.73.79-18.92.07-2.14v-.07l.98-22.65.1-2.29c-1.42-1.27-2.84-2.3-4.14-3.13-.08-.05-.15-.11-.22-.15-.07-.07-.15-.07-.22-.14-2.85-1.79-5.14-2.5-5.93-2.5"/>
    <path class="cls-24" d="m111.43,197.07v-.15l1-19.24v-.03l.42-8.09v-.06l.21-3.28v-.08s1.22-23.42,1.22-23.42c0,0,.04-.03.09-.07.54-.4,3.49-2.58,4.27-2.65"/>
    <path class="cls-24" d="m111.64,144.08s0,0-.02-.01c-.25-.17-2.95-1.81-3.77-2.29"/>
    <path class="cls-24" d="m110.72,166.79s-.03-.03-.08-.07c-.88-.79-8.95-8.08-10.57-8.08"/>
    <path class="cls-24" d="m110.57,168.93c-3.21-1.22-15.28-8.07-16.07-10.29"/>
    <path class="cls-24" d="m113.07,166.22c1.07-.36,3.14-1.36,5.36-2.29,2.07-.93,4.28-1.71,5.71-1.86"/>
    <path class="cls-24" d="m113.07,169.57c2-.92,3.72-1.86,5.21-2.71,2.36-1.28,4.15-2.28,5.29-2.5"/>
    <path class="cls-24" d="m113.07,177.72s.77,3.1,1.9,7.54c.01.04.02.06.03.1v.07c.28,1.19.63,2.54.99,3.95,0,.01,0,.03.01.05.78,3.19,1.7,6.67,2.62,10.09.01.01.01.04.02.06.42,1.53.84,3.08,1.26,4.56.01.03.01.05.02.08,1.87,6.56,3.51,12.07,4.22,12.85"/>
    <path class="cls-24" d="m112.21,188.07s.28,1.74.7,4.32c.01.04.01.07.02.11.5,3.06,1.21,7.24,1.98,11.28.01.03.01.05.02.08l.07.28c1.14,6.15,2.36,11.93,3.07,12.86"/>
    <line class="cls-24" x1="115.64" y1="16.29" x2="116.43" y2="93.5"/>
    <path class="cls-24" d="m113.07,140.72c.5-.15,1.07-.5,1.57-.94,1.57-1.13,3.21-2.77,4.36-1.77"/>
    <path class="cls-24" d="m154.21,164.07s.69-1.03,1.4-2.36c.01-.02.02-.04.03-.07.62-1.18,1.19-2.56,1.21-3.62v-.09"/>
    <path class="cls-24" d="m165,88.34c0,2-.39,6.44-.39,6.44,0,0-1.11.13-2.39-.02"/>
    <line class="cls-24" x1="161.35" y1="83.22" x2="163.63" y2="85.2"/>
    <line class="cls-24" x1="167.68" y1="86.89" x2="170.9" y2="87.15"/>
    <path class="cls-24" d="m161.35,83.22c.35.77,1.28,1.39,2.28,1.98"/>
    <path class="cls-24" d="m167.68,86.89c1.26.27,2.59.6,3.22.26"/>
    <line class="cls-25" x1="268.86" y1="160.22" x2="268.86" y2="226.38"/>
    <rect class="cls-24" x="161.86" y="108.65" width="3.85" height="2.49"/>
    <rect class="cls-24" x="158.21" y="115.08" width="2.79" height="2.07"/>
    <rect class="cls-24" x="175.78" y="111.79" width="2.79" height="2.07"/>
    <rect class="cls-24" x="165.71" y="115.08" width="2.79" height="2.07"/>
    <rect class="cls-24" x="185.64" y="126.71" width="2.79" height="2.08"/>
    <rect class="cls-24" x="181.93" y="131.58" width="2.78" height="2.07"/>
    <rect class="cls-24" x="193.14" y="140.72" width="2.78" height="2.06"/>
    <polygon class="cls-24" points="199.78 147.08 199.78 149.14 197.21 149.14 197 149.14 197 147.08 199.78 147.08"/>
    <rect class="cls-24" x="208.07" y="144.14" width="2.78" height="2.07"/>
    <rect class="cls-24" x="216.64" y="149.14" width="3.72" height="2.79"/>
    <rect class="cls-24" x="204.64" y="149.14" width="2.78" height="2.07"/>
    <polyline class="cls-24" points="137.39 103.19 143.89 111.79 149.9 101.9"/>
  </g>
</svg>