<?xml version="1.0" encoding="utf-8"?>
<!-- Generator: Adobe Illustrator 27.9.0, SVG Export Plug-In . SVG Version: 6.00 Build 0)  -->
<svg version="1.1" id="_レイヤー_1" xmlns="http://www.w3.org/2000/svg" xmlns:xlink="http://www.w3.org/1999/xlink" x="0px"
	 y="0px" viewBox="0 0 268.9 264.7" style="enable-background:new 0 0 268.9 264.7;" xml:space="preserve">
<style type="text/css">
	.st0{fill:#FAFFFF;}
	.st1{fill:#96D0A8;}
	.st2{fill:#346182;}
	.st3{fill:#559EC1;}
	.st4{fill:#ED9FAF;}
	.st5{fill:#D53C36;}
	.st6{fill:#3E6D4B;}
	.st7{fill:#D95347;}
	.st8{fill:#D6C34D;}
	.st9{fill:#2E3A6A;}
	.st10{fill:#80596C;}
	.st11{fill:#AEAEB6;}
	.st12{fill:#8AC99E;}
	.st13{fill:#497E54;}
	.st14{fill:#333333;}
	.st15{fill:#F7E5D2;}
	.st16{fill:#414244;}
	.st17{fill:#47414F;}
	.st18{fill:#DA5045;}
	.st19{fill:#FEFDF8;}
	.st20{fill:#8D969D;}
	.st21{fill:#FFFFFF;}
	.st22{fill:none;stroke:#000000;stroke-linecap:round;stroke-linejoin:round;stroke-miterlimit:10;}
	.st23{fill:none;}
	.st24{fill:none;stroke:#000000;stroke-linecap:round;stroke-linejoin:round;}
</style>
<g id="XMLID_00000065064540916772854620000000834242303057339283_">
	<g>
		<rect x="264.9" y="238" class="st0" width="3.6" height="26.7"/>
		<polygon class="st0" points="268.4,227 268.4,238 264.9,238 257.5,227 		"/>
		<path class="st1" d="M114.8,204.8h4.9h1l0.2,0.1l3.8,2.1l2.9-2.7c0,0,4.1,0.4,4.5,0.4c0.3,0,3.3-6.1,6.2-9.8
			c3.8,0.6,8.9-2.4,14.5-4.4l5.5,7.4l6.2-0.9l0,0l0.6-4.3l4.6,0.6l0.1,0l3.4,0.4l4.9,0.6l1.8-4.3l3.7-3.7l0.1-0.1l3.8-1.9l2.2,1.4
			l4.1-3.7h0.7h10.4c0,0,2.8-2.9,4.8-4.1c0.1-0.1,0.2-0.1,0.2-0.1c0.4-0.2,0.7-0.4,1-0.4c1.6-0.2,17-0.1,21.8-2.9
			c1.9-1.1,2.6-3.1,2.9-5.1c0.1-1.6,0-3.3-0.3-4.8c0,0,0-0.1,0-0.1c-0.3-1.5-0.5-2.8-0.7-3.8h7.8h5.7h12.1h4.5h3.8V227h-11h-4h-13.8
			h-4h-24.8h-4H193h-4h-24.9h-4h-13.8h-4h-24.9h-4H99.7h-4h-2.3c0.2-0.1,0.4-0.1,0.6-0.2c0,0,0,0,0.1,0c1-0.4,2.3-1.1,4.2-2.3
			c2.4-1.5,5.6-7.6,8.8-15.5c0-0.1,0-0.1,0.1-0.2l0.1,0l7.3-4H114.8z"/>
		<polygon class="st2" points="268.4,149.9 268.4,160.9 264.7,160.9 258.9,149.9 		"/>
		<rect x="260.8" y="238" class="st3" width="4" height="26.7"/>
		<polygon class="st3" points="257.5,227 264.9,238 260.8,238 253.4,227 		"/>
		<polygon class="st3" points="258.9,149.9 264.7,160.9 260.2,160.9 254.3,149.9 		"/>
		<rect x="247.1" y="238" class="st2" width="13.8" height="26.7"/>
		<polygon class="st2" points="253.4,227 260.8,238 247.1,238 239.7,227 		"/>
		<polygon class="st0" points="254.3,149.9 260.2,160.9 248.1,160.9 242.2,149.9 		"/>
		<polygon class="st4" points="242.2,149.9 248.1,160.9 242.4,160.9 236.6,149.9 		"/>
		<rect x="243.1" y="238" class="st3" width="4" height="26.7"/>
		<polygon class="st3" points="239.7,227 247.1,238 243.1,238 235.7,227 		"/>
		<rect x="218.2" y="238" class="st0" width="24.9" height="26.7"/>
		<polygon class="st0" points="235.7,227 243.1,238 218.2,238 210.8,227 		"/>
		<path class="st5" d="M236.6,149.9l5.8,11.1h-7.8c0,0,0-0.1,0-0.1c0-0.3-0.1-0.5-0.1-0.7c0,0,0,0,0-0.1c-0.4-1.4-1.2-2.9-2.3-4.6
			c-1.3-1.9-2.8-3.9-4.1-5.6H236.6z"/>
		<path class="st6" d="M235.3,164.8c0.3,1.5,0.4,3.2,0.3,4.8h-0.1c-44.9,3.6-54.1-9.3-56-15.8c0-0.1-0.1-0.2-0.1-0.3
			c-0.5-1.8-0.3-3-0.3-3s-0.1-0.4,0.9-5.7h0C186.4,155.5,184,170.1,235.3,164.8L235.3,164.8z"/>
		<path class="st7" d="M235.5,169.7L235.5,169.7c-0.1,2.1-0.9,4-2.8,5.1c-4.8,2.9-20.2,2.7-21.8,2.9c-0.3,0-0.6,0.2-1,0.4
			c-0.1,0-0.2,0.1-0.2,0.1c-24,0-28-12.4-31.2-24c0-0.2-0.1-0.3-0.1-0.5l1.1-0.3c0,0.1,0.1,0.2,0.1,0.3
			C181.4,160.3,190.6,173.2,235.5,169.7z"/>
		<path class="st8" d="M234.6,160.9c0.1,1,0.4,2.3,0.7,3.8c0,0,0,0.1,0,0.1h0c-51.3,5.3-48.9-9.3-55.3-20h0c0,0,0,0,0-0.1
			c0.2-1.3,0.5-3,0.9-5.1h0c0.1,1.1,3,28.5,53.6,20.4h0c0.1,0.2,0.1,0.5,0.1,0.7C234.6,160.9,234.6,160.9,234.6,160.9z"/>
		<path class="st9" d="M234.5,160C234.5,160.1,234.5,160.1,234.5,160L234.5,160c-50.6,8.2-53.5-19.3-53.6-20.3h0c0,0,0-0.1,0-0.1
			c0.1-0.4,0.1-0.7,0.2-1.1c4.7,4.4,8.1,8.9,13.4,12.3c0.8,0.5,1.5,0.9,2.4,1.4c6.9,3.6,17,5.3,35.3,3.3
			C233.3,157.1,234,158.7,234.5,160z"/>
		<path class="st10" d="M200.9,146.8c-1.4-2.5-3.3-6.2-5.3-10.4c0,0,0,0,0-0.1l0,0c2.2,1.2,5.2,2.5,8.3,3.6c0.4,0.1,0.9,0.3,1.3,0.4
			c3.6,1.2,7.1,2.1,9.1,2.4c3.8,0.4,10.5,3.1,13.1,6.3c0.2,0.3,0.4,0.6,0.7,0.9c1.3,1.6,2.8,3.6,4.1,5.6c-18.3,2-28.4,0.3-35.3-3.3
			c-0.8-0.4-1.6-0.9-2.4-1.4l2.2-0.9h0.2h2.6v-2.1L200.9,146.8z M220,152.7v-2.8h-3.7v2.8H220z M210.5,147v-2.1h-2.8v2.1H210.5z
			 M207.1,152v-2.1h-2.8v2.1H207.1z"/>
		<rect x="216.3" y="149.9" class="st11" width="3.7" height="2.8"/>
		<rect x="214.2" y="238" class="st12" width="4" height="26.7"/>
		<polygon class="st12" points="210.8,227 218.2,238 214.2,238 206.8,227 		"/>
		<path class="st7" d="M215.2,127.6l-9.8,12l-1.5,0.4c-3.1-1.1-6.1-2.4-8.3-3.6l0,0c-2.6-5.4-5.6-11.5-8.1-16.5c0,0,0,0,0-0.1l0,0
			l9.5-0.5v-0.1h7.3l-0.4,3l5.9,1.3v1.9l2.5,1L215.2,127.6z"/>
		<rect x="200.4" y="238" class="st13" width="13.8" height="26.7"/>
		<polygon class="st13" points="206.8,227 214.2,238 200.4,238 193,227 		"/>
		<rect x="207.7" y="144.9" class="st11" width="2.8" height="2.1"/>
		<path class="st10" d="M178.5,154.3c3.2,11.6,7.3,24,31.2,24c-1.9,1.2-4.8,4.1-4.8,4.1h-10.4v-0.1c-14-5.8-24.6-19.1-35.2-33.8
			l-4.7,0.3v-0.3c0,0-0.2-1.4-0.6-3.6c0,0,0,0,0,0l0.6-0.1l4.7-1.2c0,0,10,10.8,18.9,9.8c0,0.1,0.1,0.3,0.1,0.4
			S178.4,154.1,178.5,154.3z"/>
		<rect x="204.3" y="149.9" class="st11" width="2.8" height="2.1"/>
		<path class="st10" d="M174,126.8c-2.1,0.5-14.3,2.1-20.1,2.2h-0.1c0.3-3.6,0.6-7.8,0.8-12.1c0.6-11.5,5.3-10.1,8.6-11.3v-0.4
			c0,0,0,0,0.1,0c1.4-0.1,3.1-0.4,4.9-1.2h0c5-0.2,10.5-0.1,15.5,8.6c1,1.8,2.3,4.3,3.8,7.2c0,0,0,0,0,0.1c2.5,5,5.5,11.1,8.1,16.5
			c0,0,0,0,0,0.1c2,4.1,3.9,7.9,5.3,10.4l-1.4,1.1h-2.8v2.1l-2.2,0.9c-5.3-3.3-8.6-7.8-13.4-12.3l-3.7-6.1l-1.8-3L174,126.8z
			 M195.6,143.6v-2.1h-2.8v2.1H195.6z M188.1,129.6v-2.1h-2.8v2.1H188.1z M184.4,134.4v-2.1h-2.8v2.1H184.4z M182.5,120.6v-2.1h-2.8
			v2.1H182.5z M178.3,114.7v-2.1h-2.8v2.1H178.3z M168.2,117.9v-2.1h-2.8v2.1H168.2z M165.4,112v-2.5h-3.8v2.5H165.4z M160.7,117.9
			v-2.1h-2.8v2.1H160.7z"/>
		<rect x="196.4" y="238" class="st12" width="4" height="26.7"/>
		<polygon class="st12" points="193,227 200.4,238 196.4,238 189,227 		"/>
		<polygon class="st11" points="199.5,147.8 199.5,149.9 196.9,149.9 196.7,149.9 196.7,147.8 		"/>
		<path class="st7" d="M181.6,104.8c0.4,0.3,0.9,0.6,1.2,0.8c3.4,1.5,6.2,3.6,9,6.3c2.8,2.8,5.1,7.3,5.1,7.3v0.1l-9.5,0.5l0,0
			c-1.5-2.9-2.8-5.4-3.8-7.2c-5-8.7-10.5-8.8-15.5-8.6c2.2-0.9,4.5-2.4,6.2-4.4c0.6-0.9,1.1-2,1.5-3.4
			C175.8,96.3,178.7,102.3,181.6,104.8z"/>
		<rect x="171.6" y="238" class="st0" width="24.9" height="26.7"/>
		<polygon class="st0" points="189,227 196.4,238 171.6,238 164.2,227 		"/>
		<rect x="192.8" y="141.5" class="st11" width="2.8" height="2.1"/>
		<path class="st9" d="M194.5,182.3L194.5,182.3l-0.7,0.1l-4.1,3.7l-2.2-1.4c-15-9.4-29.6-30.1-29.6-30.1h-20.3l-0.1-0.1
			c1-1.5,1.9-3,2.8-4.7l0.1,0l14.2-1l4.7-0.3C169.9,163.2,180.5,176.5,194.5,182.3z"/>
		<rect x="185.3" y="127.5" class="st11" width="2.8" height="2.1"/>
		<path class="st8" d="M156.6,158.8C156.6,158.7,156.5,158.7,156.6,158.8c-2.1-0.1-14.6,1-22.1,0l0,0c0,0,0,0,0,0
			c1.1-1.3,2.1-2.6,3.1-4.1l0.1,0.1h20.3c0,0,14.5,20.7,29.6,30.1l-3.8,1.9l-0.1,0.1C174.1,183.6,164.8,169.4,156.6,158.8z"/>
		<rect x="181.6" y="132.4" class="st11" width="2.8" height="2.1"/>
		<path class="st6" d="M183.6,186.6l-3.7,3.7l-1.8,4.3l-4.9-0.6l-3.4-0.4l-0.1,0l0-0.1c-0.6-0.1-11.4-24.3-13.8-29.6
			c-0.2-0.5-0.5-1.1-0.6-1.3c0,0,0,0,0-0.1c0.6-1.2,1.2-2.6,1.2-3.6C164.8,169.4,174.1,183.6,183.6,186.6z"/>
		<rect x="179.7" y="118.5" class="st11" width="2.8" height="2.1"/>
		<path class="st6" d="M177.4,132.5l3.7,6.1c-9.4,2.8-16.7,2.9-21.5,2.5c-3.9-0.4-6.2-1.2-6.6-1.3c0,0,0,0,0,0c0-0.1,0-0.2-0.1-0.3
			c0-0.5,0.1-1.6,0.3-3.1h0.3C160.9,136.3,173.1,134.5,177.4,132.5z"/>
		<path class="st7" d="M181.1,138.6c-0.1,0.4-0.1,0.7-0.2,1.1c0,0,0,0.1,0,0.1c-0.4,2-0.7,3.7-0.9,5.1c0,0,0,0,0,0.1
			c-0.9,5.3-0.9,5.7-0.9,5.7s-0.1,1.2,0.3,3l-1.1,0.3c0-0.2-0.1-0.3-0.1-0.4c-8.9,1-18.9-9.8-18.9-9.8l-4.7,1.2L154,145
			c-0.3-1.5-0.6-3.3-1-5.2c0.5,0.2,2.7,0.9,6.6,1.3C164.4,141.5,171.7,141.3,181.1,138.6z"/>
		<rect x="175.5" y="112.6" class="st11" width="2.8" height="2.1"/>
		<path class="st8" d="M175.6,129.5l1.8,3c-4.4,2-16.5,3.8-23.9,3.8h-0.3c0-0.9,0.1-1.9,0.2-3h0.1
			C157.5,133.1,170.7,131.4,175.6,129.5z"/>
		<path class="st14" d="M119,97.3c2.8-2.5,14.7-12,14.7-12c1.7-1.4,3.3-2.6,4.7-3.8c1-0.9,17.7-14.7,24.1-14.9s12.3,1.6,13,9.7
			c0.4,6.5,1.6,14.8,0.4,20c-0.4,1.4-0.9,2.5-1.5,3.4c-1.7,2.1-4,3.5-6.2,4.4h0c-1.9,0.8-3.6,1.1-4.9,1.2c0,0,0,0-0.1,0
			c-0.3,0-0.6,0-0.9,0c-2.5-0.1-0.4-2.5,1.3-5l0,0c0,0,0,0,0-0.1c0.1-0.2,0.3-0.5,0.5-0.7c1.9-2.8,8.1-10.1,8.3-14
			c0.1-3,0.1-7.8-1.1-10.5c-0.4-0.9-0.9-1.5-1.4-1.9c-0.6,0.2-1.1,0.4-1.6,0.6c-4.4,1.6-8.1,3.6-10.3,3.7c-2.9,3.8-6,8.4-9.2,12.6
			l-3.7,4.8c-0.9,1.2-1.9,2.3-2.7,3.3c-1.3,1.5-2.5,2.7-3.5,3.6c-0.6,0.5-1.2,1-1.8,1.6c-0.1,0.1-0.3,0.3-0.5,0.5
			c-1.3,1.2-3.3,3.2-3.3,3.2c-1.6,1.7-3.5,3.5-5.5,5.1c-2.6,2.1-5.5,3.9-8.8,4.8c0,0,0,0-0.1,0v-2.5v-0.9c0-4.1,0-8.8,0-12.1
			L119,97.3C119,97.3,119,97.3,119,97.3z"/>
		<path class="st9" d="M174,126.8l1.6,2.7c-4.9,1.9-18.1,3.6-22.1,3.8h-0.1c0.1-1.3,0.2-2.8,0.3-4.4h0.1
			C159.7,128.9,171.9,127.3,174,126.8z"/>
		<path class="st15" d="M171.2,75c1.2,2.7,1.3,7.5,1.1,10.5c-0.1,3.9-6.4,11.2-8.3,14c-0.1,0.2-0.3,0.5-0.5,0.7l0,0
			c-1.9,1.9-3.9,2.6-7.6,2.7c-1.4,0-3.1-0.1-5.1-0.2c-0.4,0-0.8,0-1.1-0.1c-0.2,0-0.4-0.1-0.6-0.1c0,0,0,0,0,0
			c-1.4-0.3-2.6-0.8-3.7-1.4c-1.6-0.9-2.6-2-3.1-2.9c0.9-1,1.8-2.1,2.7-3.3l3.7-4.8c3.1-4.2,6.3-8.8,9.2-12.6
			c2.2-0.1,5.9-2.1,10.3-3.7c0.6-0.1,1.1-0.4,1.6-0.6C170.4,73.5,170.9,74.2,171.2,75z M171.4,81c0.3-0.4,0-1-0.6-1.4
			c-0.6-0.4-1.3-0.4-1.5-0.1c-0.3,0.4,0,1,0.6,1.4C170.5,81.3,171.2,81.4,171.4,81z M170.6,88l-3.2-0.2C168.7,88,170,88.3,170.6,88z
			 M166.1,78c0.1-0.6-0.4-1.2-1.2-1.4c-0.8-0.2-1.6,0.1-1.7,0.7c-0.1,0.6,0.4,1.2,1.2,1.4C165.2,78.9,165.9,78.6,166.1,78z
			 M163.4,86.1l-2.3-2C161.4,84.9,162.4,85.5,163.4,86.1z M160.2,99.3c0.1-0.2-0.3-0.6-0.9-0.8c-0.6-0.2-1.1-0.2-1.2,0.1
			c-0.1,0.2,0.3,0.6,0.9,0.8C159.6,99.6,160.1,99.5,160.2,99.3z"/>
		<rect x="167.6" y="238" class="st4" width="4" height="26.7"/>
		<polygon class="st4" points="164.2,227 171.6,238 167.6,238 160.1,227 		"/>
		<path class="st14" d="M170.8,79.6c0.6,0.4,0.9,1.1,0.6,1.4s-1,0.3-1.5-0.1c-0.6-0.4-0.9-1.1-0.6-1.4
			C169.6,79.1,170.2,79.1,170.8,79.6z"/>
		<path class="st7" d="M169.7,193.3l0,0.1l-4.6-0.6l-0.6,4.3c-1.8-1.2-9-21.3-10.6-32.3c0,0,0.7-1,1.4-2.4c0.1,0.2,0.4,0.8,0.6,1.3
			C158.3,169,169.1,193.3,169.7,193.3z"/>
		<rect x="165.4" y="115.9" class="st11" width="2.8" height="2.1"/>
		<rect x="153.8" y="238" class="st5" width="13.8" height="26.7"/>
		<polygon class="st5" points="160.1,227 167.6,238 153.8,238 146.4,227 		"/>
		<path class="st14" d="M164.8,76.7c0.8,0.2,1.4,0.8,1.2,1.4c-0.1,0.6-0.9,0.9-1.7,0.7c-0.8-0.2-1.4-0.8-1.2-1.4
			C163.2,76.8,164,76.5,164.8,76.7z"/>
		<rect x="161.6" y="109.5" class="st11" width="3.8" height="2.5"/>
		<path class="st7" d="M164.5,197.1L164.5,197.1l-6.2,0.9l-5.5-7.4c-5.6,2-10.7,4.9-14.5,4.4c2.9-5.6,5.3-16.8,7.1-23.4c0,0,0,0,0,0
			c2.6-2.7,4.7-5,6.1-6.5c0,0,0.1,0,0.1,0c1.2-0.1,2-0.1,2.3-0.3C155.5,175.9,162.8,196,164.5,197.1z"/>
		<path class="st10" d="M133.2,126.3c-1-1.2-2.2-2.5-3.3-3.8l-0.8,0.6h-2.8v2.1h2.8v2.1v2.1h2.8v-2.1L133.2,126.3z M163.6,100.2
			L163.6,100.2c-1.7,2.5-3.8,4.9-1.3,5.1c0.3,0,0.5,0,0.9,0v0.4c-3.3,1.1-7.9-0.2-8.6,11.3c-0.2,4.3-0.5,8.5-0.8,12.1
			c-0.1,1.6-0.2,3.1-0.3,4.4c-0.1,1.1-0.2,2.1-0.2,3c-0.2,1.5-0.2,2.6-0.3,3.1c-0.8-4.1-1.8-8.6-2.7-11c-1.8-5.1-5.7-0.9-9.6,2.2
			c-0.9,0.7-2.2,2.1-3.6,3.8c-0.7,0.8-1.4,1.8-2.2,2.7l0,0c-2.8,1.5-10.5,3.1-15.9,3.1h-0.1c0-0.4,0-0.9,0-1.4
			c0.1-6.8,0.1-14.2,0.1-21.9c0,0,0-0.1,0-0.1c3.3-0.9,6.2-2.6,8.8-4.8c2-1.6,3.8-3.4,5.5-5.1l11.1,14.1l11.5-18.2v-0.1
			C159.7,102.8,161.7,102,163.6,100.2L163.6,100.2C163.6,100.2,163.6,100.2,163.6,100.2z M124.7,132.5v-2.1h-2.8v2.1H124.7z"/>
		<rect x="157.9" y="115.9" class="st11" width="2.8" height="2.1"/>
		<path class="st7" d="M159.3,98.5c0.6,0.2,1,0.6,0.9,0.8s-0.6,0.3-1.2,0.1c-0.6-0.2-1-0.6-0.9-0.8
			C158.2,98.3,158.7,98.3,159.3,98.5z"/>
		<path class="st6" d="M155.3,162.5c-0.7,1.3-1.4,2.4-1.4,2.4c-0.3,0.1-1.1,0.2-2.3,0.3c0,0-0.1,0-0.1,0c-2,0.1-4.9,0.1-8,0.1
			c0,0-0.1,0-0.1,0c-3.7,0-7.7-0.1-10.7-0.2c0,0,0,0,0,0c-1.8-0.1-3.3-0.1-4.2-0.1l0,0c0,0,0,0,0,0c2-1.7,4-3.7,5.9-6l0,0
			c7.5,1,20-0.1,22-0.1c0,0,0,0.1,0.1,0.1C156.6,159.8,156,161.2,155.3,162.5C155.4,162.4,155.4,162.4,155.3,162.5z"/>
		<path class="st7" d="M155.9,102.8L155.9,102.8l-11.5,18.3L133.3,107c0,0,2-2,3.3-3.2l0.6,0.2l6.5,8.6l6-9.9l0-0.2
			c0.4,0.1,0.8,0.1,1.1,0.1C152.9,102.8,154.5,102.8,155.9,102.8z"/>
		<path class="st10" d="M144.2,141.1l-1-0.3v-2.1h-2.1v-2.1v-2.1h-2.8l-1.3-0.2c1.4-1.7,2.7-3.1,3.6-3.8c3.9-3.1,7.8-7.3,9.6-2.2
			c0.8,2.4,1.8,6.9,2.7,11c0,0.2,0,0.3,0,0.3s0,0,0.1,0c0.3,1.9,0.7,3.7,1,5.2c0,0,0,0,0,0c0.4,2.2,0.6,3.6,0.6,3.6v0.3l-14.2,1
			l-0.1,0c0,0,0,0,0,0C141.8,147.2,143.1,144.3,144.2,141.1z M153.4,148.6v-2.1h-2.8v2.1H153.4z M150.7,142.2v-2.1h-2.8v2.1H150.7z
			 M148.3,146.5v-2.1h-2.8v2.1H148.3z"/>
		<rect x="149.8" y="238" class="st4" width="4" height="26.7"/>
		<polygon class="st4" points="146.4,227 153.8,238 149.8,238 142.4,227 		"/>
		<rect x="150.6" y="146.5" class="st11" width="2.8" height="2.1"/>
		<rect x="147.9" y="140.1" class="st11" width="2.8" height="2.1"/>
		<rect x="124.9" y="238" class="st0" width="24.8" height="26.7"/>
		<polygon class="st0" points="142.4,227 149.8,238 124.9,238 117.5,227 		"/>
		<path class="st15" d="M149.7,102.5l0,0.2l-6,9.9l-6.5-8.6l-0.6-0.2c0.2-0.2,0.3-0.3,0.5-0.5c0.6-0.6,1.2-1.1,1.8-1.6
			c1-0.9,2.2-2.1,3.5-3.6c0.4,0.9,1.5,2,3.1,2.9c1.1,0.6,2.3,1.1,3.7,1.4c0,0,0,0,0,0C149.3,102.5,149.5,102.5,149.7,102.5z"/>
		<path class="st7" d="M135,180.7c-4.2,3-8.9,5.8-14.3,7.8c-0.4,0.1-0.7,0.3-1.1,0.4c-1.2,0.4-2.4,0.8-3.7,1.1c0,0-0.1,0-0.1,0
			c-0.3-1.4-0.7-2.7-1-3.9v0c5.4-1.5,14.7-4.5,22-11.8c0,0,0,0,0.1-0.1c2.6-2.5,4.8-5.5,6.6-9.2c0,0,0.1,0,0.1,0c3.1,0,6,0,8-0.1
			c-1.4,1.5-3.5,3.8-6.1,6.5c0,0,0,0,0,0c-0.9,0.9-1.8,1.8-2.8,2.8c0,0-0.1,0.1-0.1,0.1c0,0,0,0,0,0c-1.4,1.3-2.8,2.6-4.5,3.9
			c0,0,0,0,0,0c-0.9,0.8-1.9,1.5-2.9,2.2C135.1,180.7,135,180.7,135,180.7z"/>
		<rect x="145.5" y="144.4" class="st11" width="2.8" height="2.1"/>
		<path class="st10" d="M118.2,164.7c0.1-3.1,0.3-6.7,0.4-10.7c0.1-4,0.2-8.4,0.3-13.1c0,0,0,0,0-0.1c0-0.2,0-0.5,0-0.6h0.1
			c5.4,0,13.1-1.6,15.9-3.1l0,0c0.8-0.9,1.5-1.8,2.2-2.7l1.3,0.2v2.1h2.1h0.7v2.1h-0.7v2.1h2.8l1,0.3c-1.1,3.1-2.4,6.1-3.8,8.7
			c0,0,0,0,0,0c-0.9,1.6-1.9,3.2-2.8,4.7c-1,1.5-2,2.9-3.1,4.1c0,0,0,0,0,0c-1.9,2.3-3.9,4.3-5.9,6c0,0,0,0,0,0
			c-4,3.5-7.9,5.6-10.7,6.5c0.1-1,0.2-2.2,0.3-3.6c0,0,0-0.1,0-0.1C118.2,166.7,118.2,165.7,118.2,164.7z M138.5,141.9v-2.1h-2.8
			v2.1H138.5z M136,153V151h-2.8v2.1H136z M133.4,148.6v-2.1h-2.8v2.1H133.4z M130.1,155.3v-2.1h-2.8v2.1H130.1z"/>
		<path class="st6" d="M142.6,174.4c1-1,1.9-1.9,2.8-2.8c-1.8,6.6-4.2,17.8-7.1,23.4c-2.9,3.7-5.9,9.8-6.2,9.8
			c-0.4,0-4.5-0.4-4.5-0.4c6-9.5,11.1-19.4,14.9-29.9C142.5,174.5,142.5,174.4,142.6,174.4C142.6,174.4,142.6,174.4,142.6,174.4z"/>
		<polygon class="st11" points="143.2,138.8 143.2,140.8 140.4,140.8 140.4,138.8 141.1,138.8 		"/>
		<path class="st16" d="M151.9,1.5c-6.6,8.3-13.1,12.1-33.6,12.1c0,0,0,0,0,0.1H0.6H0.5V7.6h113.8C125.3,7.3,141.4,8.9,151.9,1.5z"
			/>
		<polygon class="st11" points="141.1,134.6 141.1,136.7 140.4,136.7 138.3,136.7 138.3,134.6 		"/>
		<path class="st7" d="M132.8,164.9c3,0.1,7.1,0.2,10.7,0.2c-1.8,3.6-4.1,6.7-6.6,9.2l-1.3-3l-1.5-3.4L132.8,164.9z"/>
		<path class="st8" d="M138,178.4c1.6-1.3,3.1-2.6,4.5-3.9c-3.8,10.5-8.9,20.5-14.9,29.9l-2.9,2.7l-3.8-2.1
			C129,193.9,136.1,187,138,178.4L138,178.4z"/>
		<rect x="135.8" y="139.8" class="st11" width="2.8" height="2.1"/>
		<path class="st9" d="M138,178.4L138,178.4c-1.9,8.6-9,15.5-17.1,26.6l-0.2-0.1h-1c-0.4-1.5-0.9-3-1.3-4.6c0,0,0,0,0-0.1
			c0,0,0,0,0,0c2.1-2.4,4.3-4.8,6.3-7.1c4.2-4.8,8-9.2,10.3-12.4c0.1,0,0.1-0.1,0.1-0.1C136.1,179.9,137.1,179.2,138,178.4
			C138,178.4,138,178.4,138,178.4z"/>
		<path class="st6" d="M136.9,174.3C136.9,174.3,136.9,174.3,136.9,174.3c-7.4,7.3-16.7,10.3-22.1,11.8v-0.1c0,0,0-0.1,0-0.1
			c0.6-1.9,1-3.7,1.4-5.4c0,0,0-0.1,0-0.1l0.1,0c7.3-0.9,17.9-7.7,19.3-9.2L136.9,174.3z"/>
		<rect x="133.2" y="151" class="st11" width="2.8" height="2.1"/>
		<path class="st8" d="M134.1,167.9l1.5,3.4c-1.4,1.5-12.1,8.3-19.3,9.2l-0.1,0c0.3-1.4,0.6-2.7,0.8-4.1c0,0,0-0.1,0-0.1l0.1,0
			C124.5,173.7,129.1,171.4,134.1,167.9z"/>
		<path class="st9" d="M132.8,164.9l1.3,2.9c-5,3.5-9.6,5.8-17,8.5l-0.1,0c0.1-0.6,0.3-1.2,0.3-1.7c0.1-0.8,0.3-1.9,0.4-3.3
			c0,0,0,0,0-0.1c2.8-0.9,6.7-3.1,10.7-6.5l0,0C129.5,164.8,131,164.9,132.8,164.9C132.8,164.9,132.8,164.9,132.8,164.9z"/>
		<rect x="130.6" y="146.5" class="st11" width="2.8" height="2.1"/>
		<path class="st10" d="M133.2,126.3l-1.3,1h-2.8v-2.1v-2.1l0.8-0.6C131,123.8,132.2,125.1,133.2,126.3z"/>
		<rect x="129.1" y="127.3" class="st11" width="2.8" height="2.1"/>
		<path class="st10" d="M135,180.7c-2.3,3.2-6,7.6-10.3,12.4l-1.8-0.4v-2.1h-2.3h-0.5l-0.6-1.7c0.4-0.1,0.7-0.2,1.1-0.4
			C126.1,186.6,130.8,183.8,135,180.7z"/>
		<rect x="127.3" y="153.3" class="st11" width="2.8" height="2.1"/>
		<rect x="126.4" y="123.2" class="st11" width="2.8" height="2.1"/>
		<rect x="120.9" y="238" class="st3" width="4" height="26.7"/>
		<polygon class="st3" points="117.5,227 124.9,238 120.9,238 113.5,227 		"/>
		<rect x="121.9" y="130.4" class="st11" width="2.8" height="2.1"/>
		<path class="st10" d="M122.9,192.7l1.8,0.4c-2,2.3-4.1,4.6-6.3,7.1c0,0,0,0,0,0c-0.9-3.4-1.8-6.9-2.6-10.1c0,0,0,0,0-0.1
			c0,0,0.1,0,0.1,0c1.3-0.3,2.5-0.7,3.7-1.1l0.6,1.7v2.1H122.9z"/>
		<polygon class="st11" points="122.9,190.6 122.9,192.7 120.2,192.7 120.2,190.6 120.6,190.6 		"/>
		<rect x="107.2" y="238" class="st2" width="13.8" height="26.7"/>
		<polygon class="st2" points="113.5,227 120.9,238 107.2,238 99.7,227 		"/>
		<path class="st17" d="M118.9,116.8L118.9,116.8c0.1,0,0.1,0,0.1,0c0,0,0,0.1,0,0.1c0,7.7-0.1,15-0.1,21.9h-0.1
			c-1.1-1-2.8,0.6-4.4,1.8l-0.3-0.4l-0.6-45.6h1.2l0.7,20.5l0.1,2.9C116.2,117.3,118.2,115.8,118.9,116.8z"/>
		<path class="st17" d="M119,94.5c0,0.9,0,1.9,0,2.8c0,0,0,0-0.1,0.1v4.1c0,3.2,0,7.9,0,12.1v0.9l-3.5,0.6l-0.7-20.5h1.5h2.3H119z"
			/>
		<path class="st18" d="M114.2,61.9l-0.1-9.2l-0.3-19l-0.1-9.4v-0.1l-0.1-7h1.9h2.9h0.1c0.1,3.4,0.1,9.1,0.2,16.3c0,0,0,0,0,0
			c0,0.5,0,1,0,1.5c0,0,0,0,0,0c0.1,7.4,0.2,16.3,0.3,25.9c0,1.1,0,2.1,0,3.3c0,4.2,0.1,8.6,0.1,12.9c0,4.1,0.1,8.3,0.1,12.6
			c0,1,0,2,0,2.9v1.5c0,0,0,0.1,0,0.1h-0.5h-2.3h-1.5v-2.8V90l-0.1-8.6l-0.3-17.2v-0.1L114.2,61.9L114.2,61.9z"/>
		<path class="st17" d="M118.9,140.8C118.9,140.8,118.9,140.8,118.9,140.8c-0.1,4.8-0.2,9.2-0.3,13.2c-0.1,4-0.2,7.6-0.4,10.7
			c-2.2,0.9-4.3,1.9-5.3,2.3v-0.1l1.2-23.4c0,0,0,0,0.1-0.1c0.5-0.4,3.5-2.6,4.3-2.6H118.9z"/>
		<path class="st17" d="M118.9,140.1c0,0.2,0,0.4,0,0.6h-0.4c-0.8,0.1-3.7,2.2-4.3,2.6l-1.3-1.9c0.5-0.1,1.1-0.5,1.6-0.9
			c1.6-1.1,3.2-2.8,4.4-1.8h0.1C118.9,139.2,118.9,139.7,118.9,140.1z"/>
		<path class="st19" d="M118.4,17.2C118.4,17.2,118.4,17.2,118.4,17.2L118.4,17.2l-2.9,0.1h-1.9H84.8h-6.3h-6.1h-5.1H32.7h-6.4h-7.2
			h-2.6h-6.4H4.3H0.6H0.5v-3.6h0.1h117.7c0,0.1,0,0.5,0,1C118.3,15.3,118.3,16.1,118.4,17.2z"/>
		<path class="st17" d="M117.8,171.3C117.8,171.3,117.8,171.3,117.8,171.3c-0.2,1.4-0.3,2.6-0.4,3.4c-0.1,0.5-0.2,1.1-0.3,1.7
			c0,0,0,0.1,0,0.1c-0.3,1.3-0.6,2.7-0.8,4.1c0,0,0,0.1,0,0.1c-0.4,1.7-0.8,3.5-1.4,5.4c-1.1-4.4-1.9-7.5-1.9-7.5l-0.6,0v0l0.4-8.1
			l0.2,0c2-0.9,3.7-1.9,5.2-2.7h0c0,0,0,0.1,0,0.1C118,169.1,117.9,170.2,117.8,171.3z"/>
		<path class="st10" d="M115.8,190.1c0.8,3.2,1.7,6.7,2.6,10.1c-1.3,1.5-2.5,2.9-3.7,4.3c-0.8-4-1.5-8.2-2-11.3c0,0,0-0.1,0-0.1
			c0.3-0.8,0.5-1.6,0.7-2.4c0-0.1,0-0.1,0-0.1l0,0C114.3,190.4,115,190.3,115.8,190.1C115.8,190.1,115.8,190.1,115.8,190.1z"/>
		<path class="st7" d="M114.7,186.1C114.8,186.1,114.8,186.1,114.7,186.1L114.7,186.1c0.4,1.2,0.7,2.5,1,3.9
			c-0.8,0.2-1.5,0.3-2.3,0.5l0,0C114,189.1,114.3,187.6,114.7,186.1L114.7,186.1z"/>
		<path class="st10" d="M114.7,204.5C114.7,204.5,114.7,204.5,114.7,204.5l0.1,0.4h-0.3l-7.3,4l-0.1,0c0.5-1.4,1.1-2.8,1.6-4.3
			c0-0.1,0.1-0.2,0.1-0.2c0.8-2.1,1.5-4.2,2.3-6.4c0-0.1,0.1-0.2,0.1-0.2c0.5-1.4,0.9-2.9,1.4-4.3c0-0.1,0-0.1,0.1-0.2
			c0,0,0,0.1,0,0.1C113.2,196.2,113.9,200.4,114.7,204.5z"/>
		<path class="st17" d="M112.7,193.1c0,0.1,0,0.1-0.1,0.2c-0.5,1.4-0.9,2.9-1.4,4.3l1-19.2l0.6,0c0,0,0.8,3.1,1.9,7.5
			c0,0.1,0,0.1,0,0.2v0.1c-0.4,1.5-0.8,2.9-1.2,4.3c0,0.1,0,0.1,0,0.1C113.2,191.5,113,192.3,112.7,193.1z"/>
		<path class="st18" d="M95.6,85.5l1.9-1.5c1.6,0.4,4.9,1.9,8.2,3.4l0,0c4.3,2.1,8.6,4.3,8.6,4.3h0.4v2.8h-1.2h-16H78.9h-0.4V71.9
			h2.2l2.5-1.6L95.6,85.5z M84.8,77.4c0-1.6-0.5-3.1-1.1-3.1s-1.1,1.4-1.1,3.1c0,1.7,0.5,3.1,1.1,3.1S84.8,79.1,84.8,77.4z"/>
		<path class="st18" d="M114.7,90v1.7h-0.4c0,0-4.3-2.2-8.6-4.3l1.6-1.3C110.9,88.1,114.4,89.8,114.7,90z"/>
		<path class="st18" d="M114.6,81.4l0.1,8.6c-0.4-0.1-3.8-1.9-7.5-3.8l5.6-4.7H114.6z"/>
		<path class="st18" d="M107.2,86.1l-1.6,1.3l0,0c-3.3-1.6-6.6-3-8.2-3.4l-1.9,1.5L83.2,70.3l19.9-12.2c4.1,2.1,9.5,5.1,11.1,6.1
			h0.1v0.1l0.3,17.2h-1.7L107.2,86.1z M102.5,78.8c0-1.7-0.5-3.1-1.1-3.1c-0.6,0-1.1,1.4-1.1,3.1c0,1.7,0.5,3.1,1.1,3.1
			C102,81.9,102.5,80.5,102.5,78.8z M95,71.5c0-0.6-1.4-1.1-3.1-1.1c-1.7,0-3.1,0.5-3.1,1.1c0,0.6,1.4,1.1,3.1,1.1
			C93.6,72.7,95,72.2,95,71.5z"/>
		<path class="st17" d="M111.4,144.8l0.1-2.3c-1.4-1.3-2.8-2.3-4.1-3.1l-0.2,0.3c-0.1-0.1-0.1-0.1-0.2-0.1c-0.1,0-0.1-0.1-0.2-0.1
			c-1.7-0.6-6.3,1.5-8.8,2.9c-2.9,1.7-4.3,4.1-3.1,5.4c0.5,0.5,1.2,0.8,2.2,0.8l0.4,1.5c-0.8,0.2-1.3,0.5-1.4,0.9l-1.9-0.1
			c0.1-0.9-0.9-1.9-2.4-3c-1.3-0.9-2.9-1.7-4.2-2.3c-3.2-1.4-6.6-1.4-7.4-0.1c-0.2,0.3-0.3,0.6-0.3,0.8h-1.2v-0.1v-26.9h1.4
			c0,0.3,0.5,0.6,1.8,0.7c3.6,0.5,8.3,0.3,9,0.3c0.4,0,1.1-0.6,1.3-1.1l1.3,0.1v0.1c-0.4,2.1-0.6,3.8-0.7,4.3
			c-0.2,0.9,0.2,2.4,1.1,2.4c0.9,0.1,1.4-1.3,1.4-2.4c0-1.1,0.4-5.1,0.9-9.1c0.5-4.1,2-13.8,2.1-16c0.1-1.3-0.2-2.1-0.6-2.1v-2.2h16
			l0.6,45.6l0.3,0.4c-0.5,0.4-1.1,0.8-1.6,0.9l1.3,1.9c-0.1,0-0.1,0.1-0.1,0.1l-1.2,23.4v0.1l-0.2,3.3v0.1l-0.4,8.1v0l-1,19.2
			c0,0.1-0.1,0.2-0.1,0.2c-0.8,2.2-1.5,4.3-2.3,6.4l0.7-15.7l0.8-18.9l0.1-2.1v-0.1L111.4,144.8z M105.5,124c0.6,0,1.6-0.7,0-1.6
			c-1.6-0.9-7.7-2.4-7.7-2.4s-0.8,0.7,0,1.1C99.4,122,104.9,124,105.5,124z M105,118.7c0,0,1.5-0.7-0.8-1.4c-2.3-0.7-7.1-1-7.4-0.8
			c-0.3,0.1-0.3,1.2,0.9,1.4C98.5,118,105,118.7,105,118.7z"/>
		<path class="st18" d="M114.2,62l0.1,2.2h-0.1c-1.6-0.9-7-3.9-11.1-6.1l0,0l2.8-1.7C109.5,58.6,113.6,61.4,114.2,62L114.2,62z"/>
		<path class="st18" d="M114.1,52.7l0.1,9.2c-0.7-0.5-4.7-3.3-8.3-5.5l6.1-3.7H114.1z"/>
		<path class="st18" d="M103.1,58.1L83.2,70.3l-2.5,1.6h-2.2V17.3h6.3v1.9l10.4,13.4l-3,2.4l2.9,3.6l3-2.3l7.4-5.9l0,0
			c0,0,0,0,0.1,0c2.8,0.5,5.8,1.6,8,3.5h0.3l0.3,19H112l-6.1,3.7L103.1,58.1L103.1,58.1z M96.5,46.8c0-1.7-0.5-3.1-1.1-3.1
			c-0.6,0-1.1,1.3-1.1,3.1c0,1.7,0.5,3.1,1.1,3.1C96,49.8,96.5,48.5,96.5,46.8z M89.7,33.7c0-0.6-1.3-1.1-3.1-1.1s-3.1,0.5-3.1,1.1
			c0,0.6,1.3,1.1,3.1,1.1S89.7,34.3,89.7,33.7z M84.8,62.5c0-1.6-0.5-3.1-1.1-3.1c-0.6,0-1.1,1.4-1.1,3.1c0,1.7,0.5,3.1,1.1,3.1
			C84.4,65.6,84.8,64.2,84.8,62.5z"/>
		<path class="st18" d="M113.7,24.3l0.1,9.4h-0.3c-2.2-1.9-5.2-3-8-3.5c0,0,0,0-0.1,0l7.4-5.8L113.7,24.3z"/>
		<path class="st18" d="M98.3,30.1l-3.1,2.4L84.8,19.1v-1.9h28.8l0.1,7v0.1l-0.8,0l-7.4,5.8c-0.9-0.2-1.8-0.2-2.6-0.2
			c-1.7,0-3.1,0.3-4,1L98.3,30.1z M98.3,24.3c0-1.7-0.5-3.1-1.1-3.1c-0.6,0-1.1,1.4-1.1,3.1c0,1.7,0.5,3.1,1.1,3.1
			C97.8,27.4,98.3,26,98.3,24.3z"/>
		<path class="st17" d="M110.4,169.7l-0.8,18.9l-2.1-0.1c0-0.2-0.1-0.5-0.4-0.9c-2.8-2.1-7.8-6.1-9.2-7.2c-1.4-1.1-6.9-5.4-7.5-6
			c-0.6-0.6-1.6-0.8-2.1-0.1c0,0,0,0.1-0.1,0.1c0,0,0,0,0,0l-0.7-0.2c2.3-6.2,3.4-15.1,3.9-22.5h0c1.2,0.1,2.2,0.1,2.5-0.3
			c0.1-0.1,0.1-0.1,0.1-0.3l1.9,0.1c-0.2,1,1.9,2.3,4.7,2.9c1.3,0.2,1.8-0.2,2.7-0.3c1.2-0.1,2.6,0.1,2.8-0.5c0.2-1-1.9-2.3-4.7-2.9
			c-1.4-0.3-2.7-0.4-3.7-0.2c-0.1,0-0.2,0-0.3,0.1l-0.4-1.5c0.2,0,0.4,0,0.6,0c1.4-0.1,2.9-0.6,4.4-1.5c0.9-0.5,1.1-1.6,1.6-2.1
			c1.4-1.4,4.3-4.3,3.5-5.3l0.2-0.3c1.3,0.8,2.7,1.8,4.1,3.1l-0.1,2.3l-1,22.6v0.1L110.4,169.7z M100.3,172.8
			c1.1-1.4,1.9-3.9,0.5-2.5c-1.4,1.4-4.2,4.8-4.9,5.8c-0.6,1.1,0.4,2.4,1.1,1.3C98.4,175.4,99.2,174.2,100.3,172.8z M97.2,169.6
			c0.7-1.6,0.8-4-0.8-1.6c-1.6,2.4-3,5.9-3.2,6.4c-0.2,0.3,0.4,2,0.9,1.2C95,173.7,96.5,171.1,97.2,169.6z"/>
		<path class="st17" d="M109.6,188.6l-0.7,15.7c0,0.1-0.1,0.2-0.1,0.2c-0.5,1.5-1.1,2.9-1.6,4.3c0,0.1,0,0.1-0.1,0.2
			c-3.2,7.9-6.4,14-8.8,15.5c-1.9,1.2-3.2,1.9-4.2,2.3l-0.1-0.1c-0.3,0-0.7,0-1,0c-10.4,0-23-9.6-40.4-15.9c0,0,0,0,0.1-0.1
			c0.8-0.7,7.6-6.7,14.9-13.7c0,0,0,0,0.1,0c1.8-1.6,3.5-3.4,5.3-5.1c0,0,0,0,0,0c0.1-0.1,0.2-0.2,0.4-0.3c1.8-1.8,3.6-3.6,5.2-5.4
			c0,0,0,0,0,0c2.9-3,5.3-5.7,6.8-7.9c0.8-1.1,1.4-2.6,2.1-4.1l0.7,0.2c0,0,0,0.1,0,0.1c-0.1,0.6,0.6,1.3,1.2,1.8
			c0.7,0.4,3.4,2.3,5.9,4.2c2.6,1.9,8.8,6.8,10.3,7.8c1.1,0.6,1.9,0.7,1.9,0.3L109.6,188.6z M97.1,204.5c3.1-1.9,3.1-3.8,2.2-7.8
			c-0.6-2.6-2.6-0.1-4.3,1.6c-1.3,1.4-2.7,1.6-6.8,6.1c-1.1,1.1,0.9,1.6,2.3,2.4C92.1,207.7,94.3,206.2,97.1,204.5z M98.9,212.6
			c0.4-1.8-1-2.3-3.6-3.3c-2.6-0.9-5.5-1.8-5.6,0.3c0.9,2.1,1.5,4.6,4.5,4.7C97.2,214.4,98.5,214.4,98.9,212.6z M91.1,185.6
			c1.2-1.4,3.1-4.8,3-5.1c-0.1-0.4-0.9-0.7-1.3,0.1c-0.4,0.4-2.9,5-2.9,5S89.8,186.9,91.1,185.6z M91.3,179.8c0,0-0.2-0.9-0.8-0.4
			c-1.1,0.9-4.4,4.1-4.6,4.5c-0.2,0.4-0.1,1.5,1.1,0.6C88.3,183.6,91.3,179.8,91.3,179.8z M84.7,217c2.6-2.1,1.4-4.1,1.4-5.3
			c0-1.1-0.8-1.4-2.6,0.1c-2.2,1.9-4.3,2.3-4.3,3.3S82.1,219.1,84.7,217z M87,205.5c0-1.1-2.5-1.6-5.6-2.4c-3-0.9-8.8-4.4-9.1-1.9
			c2.4,2.6,4.3,7,9.3,8.1C85.1,209.9,87,206.5,87,205.5z"/>
		<path class="st20" d="M107.2,139.8c0.8,0.9-2.1,3.9-3.5,5.3c-0.6,0.6-0.8,1.6-1.6,2.1c-1.5,0.9-3.1,1.4-4.4,1.5
			c-0.2,0-0.4,0-0.6,0c-1,0-1.7-0.3-2.2-0.8c-1.1-1.3,0.3-3.7,3.1-5.4c2.6-1.4,7.1-3.5,8.8-2.9c0.1,0,0.1,0.1,0.2,0.1
			C107.1,139.7,107.2,139.7,107.2,139.8z"/>
		<path class="st20" d="M107.5,188.5c0,0.4-0.8,0.4-1.9-0.3c-1.4-1-7.6-5.8-10.3-7.8c-2.6-1.9-5.2-3.8-5.9-4.2
			c-0.6-0.4-1.4-1.1-1.2-1.8c0,0,0,0,0-0.1c0,0,0,0,0,0c0.1,0,0.1-0.1,0.1-0.1c0.4-0.6,1.5-0.4,2.1,0.1c0.6,0.6,6.1,4.8,7.5,6
			c1.4,1.1,6.4,5.1,9.2,7.2C107.3,188,107.5,188.3,107.5,188.5z"/>
		<rect x="103.1" y="238" class="st3" width="4" height="26.7"/>
		<polygon class="st3" points="99.7,227 107.2,238 103.1,238 95.7,227 		"/>
		<path class="st20" d="M101.5,150.4c2.8,0.6,4.9,1.9,4.7,2.9c-0.1,0.6-1.6,0.4-2.8,0.5c-0.9,0.1-1.4,0.5-2.7,0.3
			c-2.8-0.6-4.9-1.9-4.7-2.9c0.1-0.4,0.7-0.8,1.4-0.9c0.1,0,0.2,0,0.3-0.1C98.8,150,100,150.1,101.5,150.4z"/>
		<path class="st20" d="M105.5,122.4c1.6,0.9,0.6,1.6,0,1.6s-6.1-2-7.7-2.9c-0.8-0.4,0-1.1,0-1.1S103.9,121.5,105.5,122.4z"/>
		<path class="st18" d="M105.5,30.1L105.5,30.1L98,36.1l-2.9-3.6l3.1-2.4l0.6,0.8c0.8-0.6,2.2-1,4-1C103.7,29.9,104.6,30,105.5,30.1
			z"/>
		<path class="st20" d="M104.2,117.3c2.3,0.6,0.8,1.4,0.8,1.4s-6.6-0.6-7.3-0.8c-1.2-0.1-1.2-1.2-0.9-1.4
			C97.1,116.3,102,116.6,104.2,117.3z"/>
		<rect x="78.3" y="238" class="st0" width="24.9" height="26.7"/>
		<path class="st0" d="M95.7,227l7.4,11H78.3l-6.4-9.5v0c8,0.3,16.1,0.1,19.9-1.2c0,0,0.4,0.2,1.7-0.3H95.7z"/>
		<path class="st20" d="M101.4,75.7c0.6,0,1.1,1.4,1.1,3.1c0,1.7-0.5,3.1-1.1,3.1c-0.6,0-1.1-1.4-1.1-3.1
			C100.3,77.1,100.7,75.7,101.4,75.7z"/>
		<path class="st20" d="M100.8,170.3c1.3-1.4,0.6,1.1-0.5,2.5s-1.9,2.6-3.3,4.6c-0.8,1.1-1.8-0.2-1.1-1.3
			C96.6,175.1,99.5,171.7,100.8,170.3z"/>
		<path class="st20" d="M99.3,196.8c0.9,4,0.9,5.8-2.2,7.8c-2.8,1.7-5.1,3.1-6.6,2.4c-1.4-0.8-3.4-1.3-2.3-2.4
			c4.1-4.5,5.5-4.8,6.8-6.1C96.8,196.7,98.7,194.2,99.3,196.8z"/>
		<path class="st21" d="M95.3,209.2c2.6,1.1,4.1,1.6,3.6,3.3c-0.4,1.8-1.7,1.8-4.8,1.6c-3-0.1-3.6-2.6-4.5-4.7
			C89.8,207.5,92.6,208.3,95.3,209.2z"/>
		<path class="st20" d="M97.5,96.7c0.4,0,0.7,0.9,0.6,2.1c-0.1,2.2-1.6,12-2.1,16c-0.5,4.1-0.9,8.1-0.9,9.1c0,1.1-0.4,2.5-1.4,2.4
			c-0.9-0.1-1.4-1.5-1.1-2.4c0.1-0.4,0.4-2.2,0.7-4.3v-0.1c0.2-1.3,0.4-2.7,0.6-4c0.3-1.5,0.4-2.8,0.6-3.5
			c0.4-2.3,1.6-10.1,2.1-14.5C96.9,97,97.3,96.7,97.5,96.7z"/>
		<path class="st20" d="M97.2,21.2c0.6,0,1.1,1.4,1.1,3.1c0,1.7-0.5,3.1-1.1,3.1c-0.6,0-1.1-1.3-1.1-3.1
			C96,22.6,96.5,21.2,97.2,21.2z"/>
		<polygon class="st18" points="95.2,32.5 98,36.1 95,38.4 92.2,34.9 		"/>
		<path class="st17" d="M97.5,94.5v2.2c-0.2,0-0.6,0.3-0.9,0.9c-0.6,4.4-1.8,12.2-2.1,14.5c-0.1,0.7-0.3,2-0.6,3.5l-1.4,0
			c0-0.1,0-0.1,0-0.2c0-0.4-0.3-0.7-0.9-0.9c-3.1-0.5-4.8-0.8-7.1-1.4c-1.6-0.4-3.8-0.3-3.8,0.2h-2.2V94.5h0.4H97.5z"/>
		<path class="st20" d="M96.4,168c1.6-2.4,1.5,0,0.8,1.6c-0.7,1.6-2.1,4.1-3.1,6.1c-0.4,0.8-1.1-0.9-0.9-1.2
			C93.4,173.9,94.8,170.4,96.4,168z"/>
		<path class="st20" d="M95.3,43.7c0.6,0,1.1,1.3,1.1,3.1c0,1.7-0.5,3.1-1.1,3.1c-0.6,0-1.1-1.4-1.1-3.1
			C94.2,45.1,94.7,43.7,95.3,43.7z"/>
		<path class="st20" d="M92,70.4c1.7,0,3.1,0.5,3.1,1.1c0,0.6-1.4,1.1-3.1,1.1c-1.7,0-3.1-0.5-3.1-1.1C88.9,70.9,90.3,70.4,92,70.4z
			"/>
		<path class="st17" d="M67.7,228.3c-4.6-0.2-8.8-0.6-11.8-1c-0.7,0.2-1.5,0.5-2.2,0.7c-1,0.4-2.1,0.7-3.3,1.1
			c-6.2,2.1-13.6,4.1-22.9,2.7c-1.5-0.2-3.1-0.5-4.8-1c-1.7-0.4-3.4-1-5.2-1.6c-3-1.1-7.2-1.4-10.7-1.5c-1.5,0-2.9,0-4,0
			c-1.3,0.1-2.2,0.1-2.5,0.1v-0.1c6.6-6.1,12.9-10.8,18.5-15.2c2.6-2,5-3.8,7.2-5.8c0.9-0.7,1.7-1.5,2.5-2.2l0.1-0.1
			c0,0,0.1-0.1,0.1-0.1l0.6,0.6c0,0-0.1,0.1-0.1,0.1l-0.1,0.1c-0.2,0.2-0.1,0.4,0.9,0.5c2.5,0.1,8.1,0.1,9.8,0
			c0.8-0.1,1.2-0.6,1.3-1.1l1.4,0.1c-0.2,1.7-0.5,3.6-0.8,5.2c-0.3,1.6-0.5,2.8-0.5,3.2c-0.2,0.9,0.2,2.4,1.1,2.5
			c0.9,0.1,1.4-1.3,1.4-2.4c0-0.8,0.2-2.7,0.5-5l1.1,0.1c0,0.1,0.1,0.4,0.4,0.5c1.6,0.9,3.8,2.1,4.4,2.1c0.2,0,0.4-0.1,0.6-0.2
			c0,0,0.1-0.1,0.1-0.1l1.7,0.1c0,0,0,0-0.1,0.1c17.5,6.3,30,15.9,40.4,15.9c0.3,0,0.7,0,1,0l0.1,0.1c0,0,0,0-0.1,0
			c-0.2,0.1-0.4,0.2-0.6,0.2c-1.3,0.5-1.7,0.3-1.7,0.3c-3.8,1.3-11.9,1.5-19.9,1.2C70.5,228.4,69.1,228.4,67.7,228.3z M40,210
			c0.6-0.1,1.5-2.1,0.4-1.9c-2.7,0.6-6.4,1.1-8.4,1.6c-2.1,0.5-4.4,2.3-0.8,2C34.9,211.4,39.4,210.2,40,210z"/>
		<path class="st20" d="M91.6,148.1c1.5,1.1,2.6,2.1,2.4,3c0,0.1-0.1,0.2-0.1,0.3c-0.3,0.4-1.3,0.4-2.5,0.3h0c0,0,0,0,0-0.1
			C91.5,150.4,91.5,149.3,91.6,148.1z"/>
		<path class="st20" d="M94,180.5c0.1,0.3-1.8,3.7-3,5.1c-1.2,1.4-1.2,0-1.2,0s2.6-4.6,2.9-5C93.2,179.8,94,180.1,94,180.5z"/>
		<path class="st17" d="M92.5,115.6l1.4,0c-0.2,1.3-0.4,2.7-0.6,4l-1.3-0.1v-0.1c0-0.2-0.1-0.4-0.4-0.4c-2.8-0.1-6.4-0.4-8.6-0.4
			c-1.4,0-3.1,0.5-3.1,1h-1.4v-6.2h2.2c0,0.1,0.2,0.4,0.9,0.6c2.4,0.9,7.8,2.4,9.4,2.6C91.8,116.6,92.4,116.1,92.5,115.6z"/>
		<path class="st20" d="M92.5,115.4c0,0.1,0,0.1,0,0.2c-0.1,0.5-0.7,1-1.5,0.9c-1.6-0.3-7.1-1.8-9.4-2.6c-0.6-0.2-0.9-0.4-0.9-0.6
			c0-0.5,2.2-0.6,3.8-0.2c2.2,0.6,3.9,0.9,7.1,1.4C92.3,114.7,92.5,115,92.5,115.4z"/>
		<path class="st20" d="M92,119.4L92,119.4c-0.2,0.6-0.9,1.2-1.3,1.2c-0.6,0-5.3,0.1-9-0.3c-1.3-0.1-1.8-0.4-1.8-0.7
			c0-0.5,1.6-1,3.1-1c2.1,0,5.8,0.3,8.6,0.4C91.9,118.9,92,119.2,92,119.4z"/>
		<path class="st20" d="M91.6,148.1c-0.1,1.1-0.1,2.3-0.2,3.5c0,0,0,0,0,0.1c-1.2-0.1-2.6-0.4-3.6-0.6c-1.1-0.1-4.8-1-5.7-1.9
			c-1.1-1.1-2.4-1.9-2.4-2.8c0-0.2,0.1-0.5,0.3-0.8c0.9-1.3,4.2-1.3,7.4,0.1C88.8,146.4,90.3,147.3,91.6,148.1z"/>
		<path class="st20" d="M90.6,179.4c0.6-0.4,0.8,0.4,0.8,0.4s-3.1,3.8-4.2,4.7c-1.2,0.9-1.3-0.2-1.1-0.6
			C86.2,183.4,89.4,180.2,90.6,179.4z"/>
		<path class="st17" d="M91.4,151.7c-0.5,7.4-1.6,16.3-3.9,22.5c-0.6,1.6-1.3,3-2.1,4.1c-1.5,2.2-3.9,4.9-6.8,7.9c0,0,0,0,0,0
			l-0.1-0.1v-39.7h1.2c0,0.9,1.3,1.7,2.4,2.8c0.9,0.9,4.6,1.7,5.7,1.9C88.8,151.3,90.2,151.5,91.4,151.7z M89.3,154.6
			c0.1-0.6,0.1-3.4-1.9-2.2c-2.8,1.6-6.6,3.7-3.6,4C86.7,156.7,89.2,155.2,89.3,154.6z"/>
		<path class="st20" d="M87.3,152.4c2-1.1,2,1.6,1.9,2.2s-2.6,2.1-5.6,1.8C80.7,156.1,84.6,154,87.3,152.4z"/>
		<path class="st20" d="M86.6,32.5c1.7,0,3.1,0.5,3.1,1.1c0,0.6-1.3,1.1-3.1,1.1s-3.1-0.5-3.1-1.1C83.6,33,84.9,32.5,86.6,32.5z"/>
		<path class="st21" d="M86.1,211.7c0,1.1,1.2,3.2-1.4,5.3c-2.6,2.1-5.6-1-5.6-1.9s2.1-1.4,4.3-3.3
			C85.4,210.4,86.1,210.6,86.1,211.7z"/>
		<path class="st20" d="M81.4,203c3.1,0.9,5.6,1.4,5.6,2.4s-1.9,4.4-5.3,3.8c-5.1-1.1-7-5.5-9.3-8.1C72.7,198.7,78.4,202.2,81.4,203
			z"/>
		<path class="st20" d="M83.7,59.5c0.6,0,1.1,1.4,1.1,3.1c0,1.7-0.5,3.1-1.1,3.1c-0.6,0-1.1-1.4-1.1-3.1
			C82.6,60.8,83.1,59.5,83.7,59.5z"/>
		<path class="st20" d="M83.6,74.3c0.6,0,1.1,1.4,1.1,3.1c0,1.7-0.5,3.1-1.1,3.1s-1.1-1.4-1.1-3.1C82.5,75.7,83,74.3,83.6,74.3z"/>
		<path class="st19" d="M78.5,186.1l0.1,0.1c-1.6,1.8-3.4,3.5-5.2,5.4c-0.1,0.1-0.2,0.2-0.4,0.3c0,0,0,0,0,0l-0.6-0.6V17.3h6.1v54.6
			v22.6v18.8v6.2v26.9v0.1V186.1z"/>
		<rect x="74.3" y="238" class="st12" width="4" height="26.7"/>
		<path class="st12" d="M71.9,228.5l6.4,9.5h-4l-6.5-9.7C69.1,228.4,70.5,228.4,71.9,228.5L71.9,228.5z"/>
		<rect x="60.5" y="238" class="st13" width="13.8" height="26.7"/>
		<path class="st13" d="M67.7,228.3l6.5,9.7H60.5l-6.7-10c0.8-0.3,1.5-0.5,2.2-0.7C58.9,227.7,63.2,228.1,67.7,228.3z"/>
		<path class="st19" d="M72.4,191.3L73,192c-1.8,1.7-3.5,3.5-5.3,5.1c0,0,0,0-0.1,0l-0.3-0.3V94.5V62.9V17.3h5.1V191.3z"/>
		<path class="st17" d="M32.7,200.6c1.4-1.6,2.7-3.2,3.7-5c6.1-10,7.6-12,9.8-18.3c0,0,0,0,0-0.1l-1.1-0.4c0,0,0,0,0-0.1
			c0.4-1.6-0.9-4.1-3.1-6.1c-2.7-2.4-5.9-3.3-7.2-1.9c-0.4,0.4-0.5,0.8-0.5,1.2h-1.6V94.5h34.6v102.3l0.3,0.3
			c-7.3,7-14.1,13-14.9,13.7l-1.7-0.1c0.3-0.3,0.3-0.8-0.7-1.3c-1.6-0.9-4.4-1.6-4.4-1.6s-0.4,0.4-0.4,0.7l-1.1-0.1v0
			c0.1-1.3,0.3-2.7,0.5-4.2c0.5-4.1,2-13.8,2.1-16c0.1-2.2-0.6-3.1-1.4-1.3c-0.7,4.3-1.9,12.1-2.3,14.4c-0.1,0.7-0.3,2-0.6,3.6
			l-1.4-0.1c0-0.1,0-0.1,0-0.2c0-0.4-0.4-0.9-1.1-0.8c-3.1,0.4-4.8,0.6-7.2,0.6c-1.3,0-2.7,0.4-3.4,0.9l-0.6-0.6
			C30.3,203.3,31.5,202,32.7,200.6C32.7,200.6,32.7,200.6,32.7,200.6z M60,115.9c1.7-0.9,5.5-2.8,5-3.9c-0.6-1.6-6.4-1-9.6-0.3
			c-3.3,0.7-5.4,2.6-4.7,4.2c0.6,1.6,3.8,2.3,7.1,1.6C58.7,117.2,59.3,116.2,60,115.9z M61.2,182.6c0.4-1.6-2.2-3.5-5.8-4.3
			c-3.6-0.8-6.7-0.2-7.1,1.3c-0.3,1.6,2.2,3.5,5.8,4.3c1.6,0.4,2.3-0.4,3.5-0.5C59.1,183.2,61,183.4,61.2,182.6z M59.3,150.3
			c1.6,0.6,2.6,0.3,1.3-0.9c-1.3-1.1-6.8-4.6-7.8-4.6c-1.1,0-1.9,0.4-0.9,1.6C52.4,147,57.7,149.6,59.3,150.3z M58,172.5
			c1.6-1.6,2.6-2.7,2-3.8c-0.9-1.6-4.2-1.5-7.4,0.4c-3.1,1.9-4.9,4.6-4,6.3c0.9,1.6,4.3,1.5,7.4-0.4C56.9,174.4,57.3,173.1,58,172.5
			z M57.9,153c1.1,0.4,1.6,0.6,1-0.5c-0.6-1.1-6.1-4.8-7.1-5.1c-0.9-0.4-1.2,0.3-1,1C51,148.9,56.9,152.7,57.9,153z M53,123.3
			c0.5-0.6-0.3-2.2-1.8-3.7c-1.6-1.4-3.3-2.2-3.8-1.6c-0.5,0.6,0.3,2.2,1.9,3.7c0.6,0.6,1.1,0.6,1.8,0.9
			C51.9,122.9,52.8,123.6,53,123.3z M49.8,150.5c0-2.3,3.4-15.4,3.1-16.8c-0.2-1.5-0.6-2.9-1.6-0.9c-0.3,2.2-2.5,12.7-3.6,17.9
			c-0.4,1.5-0.9,1.6-1,2.8c-0.1,1.6,0.1,1.8,1.5,2c1.6,0.2,1.7-1.1,1.7-1.7C49.8,152.5,49.8,151.9,49.8,150.5z M50.2,206.8
			c0,0,1.3,0.2,0.1-1.3c-1.3-1.5-3.6-2.7-3.9-2.7c-0.3,0-0.8,0.8,0,1.4C46.8,204.6,50.2,206.8,50.2,206.8z M47,116.6
			c1.8-0.4,0.7-5.4-0.6-8.6c-1.3-3.2-3.8-5.6-5.6-5.1c-1.7,0.4-1.1,2.1-1.1,4.1c0.1,1.2,2.2,4.4,2.9,5.3
			C43.9,113.7,45.8,116.9,47,116.6z M46.8,148.8c0.8-0.8-0.6-1-1.6-0.6c-1.1,0.4-4.8,1.4-9.7,3.4c-1.7,1.4,1.5,0.9,3,0.4
			C40,151.5,46,149.5,46.8,148.8z M46,145.9c0.9-0.6-0.4-1-1.5-0.9c-1.1,0.2-4.9,0.6-10.1,1.8c-1.9,1.1,1.4,1.1,2.9,0.8
			C38.8,147.4,45.1,146.5,46,145.9z M44.9,121.1c0.1-0.6,0.4-3.4-1.7-2.4c-2.9,1.3-7,3-4,3.6S44.8,121.7,44.9,121.1z"/>
		<path class="st18" d="M43.5,71.5l4.1,5.3l3.4-2.6l14.5-11.3h1.7v31.6H32.7V70.3H35c0,0.6,1.4,1.1,3.1,1.1c1.7,0,3.1-0.5,3.1-1.1
			c0-0.1-0.1-0.2-0.1-0.4l0.8-0.6L43.5,71.5z M62,72.7c0-0.6-1.4-1.1-3.1-1.1c-1.7,0-3.1,0.5-3.1,1.1c0,0.6,1.3,1.1,3.1,1.1
			C60.6,73.8,62,73.3,62,72.7z M47,85.5c0.6,0,1.1-1.4,1.1-3.1c0-1.7-0.6-3.1-1.2-3.1c-0.6,0-1.1,1.4-1.1,3.1
			C45.8,84.1,46.3,85.5,47,85.5z"/>
		<path class="st18" d="M46.9,68.9l-3.4,2.6l-1.7-2.2l0,0l-6.9-8.8h-2.1V17.3h34.6v45.6h-1.7L51,74.2L46.9,68.9z M63,30.4
			c0-0.6-1.4-1.1-3.1-1.1c-1.7,0-3.1,0.5-3.1,1.1c0,0.6,1.3,1.1,3.1,1.1C61.5,31.5,63,31,63,30.4z M53.7,24c0-1.6-0.5-3.1-1.1-3.1
			c-0.6,0-1.1,1.4-1.1,3.1c0,1.7,0.5,3.1,1.1,3.1C53.2,27,53.7,25.7,53.7,24z M52.8,38.7c0-1.6-0.5-3.1-1.1-3.1
			c-0.6,0-1.1,1.3-1.1,3.1c0,1.7,0.5,3.1,1.1,3.1C52.3,41.8,52.8,40.4,52.8,38.7z M48.1,63.6c0.6,0,1.1-1.4,1.1-3.1
			c0-1.6-0.6-3.1-1.2-3.1c-0.6,0-1.1,1.4-1.1,3.1C46.8,62.3,47.4,63.6,48.1,63.6z M48.3,30c0-0.6-1.4-1.1-3.1-1.1
			c-1.7,0-3.1,0.5-3.1,1.1c0,0.6,1.4,1.1,3.1,1.1C46.9,31.2,48.3,30.7,48.3,30z"/>
		<path class="st20" d="M65,112c0.5,1.1-3.3,3.1-5,3.9c-0.7,0.4-1.3,1.3-2.2,1.5c-3.3,0.7-6.5,0.1-7.1-1.6c-0.7-1.6,1.4-3.5,4.7-4.2
			C58.6,111,64.4,110.4,65,112z"/>
		<path class="st20" d="M59.9,29.2c1.7,0,3.1,0.5,3.1,1.1c0,0.6-1.4,1.1-3.1,1.1c-1.7,0-3.1-0.5-3.1-1.1
			C56.8,29.7,58.2,29.2,59.9,29.2z"/>
		<ellipse class="st20" cx="58.9" cy="72.7" rx="3.1" ry="1.1"/>
		<path class="st20" d="M55.4,178.3c3.6,0.8,6.1,2.7,5.8,4.3c-0.2,0.9-2.1,0.6-3.6,0.9c-1.2,0.1-1.9,0.9-3.5,0.5
			c-3.6-0.8-6.1-2.7-5.8-4.3C48.7,178.1,51.8,177.5,55.4,178.3z"/>
		<path class="st20" d="M60.6,149.4c1.3,1.1,0.4,1.5-1.3,0.9c-1.6-0.6-6.9-3.3-7.3-3.8c-1-1.3-0.2-1.6,0.9-1.6
			C53.8,144.8,59.3,148.3,60.6,149.4z"/>
		<rect x="56.5" y="238" class="st12" width="4" height="26.7"/>
		<path class="st12" d="M53.8,228l6.7,10h-4l-6-8.9C51.6,228.7,52.7,228.4,53.8,228z"/>
		<path class="st20" d="M60,168.7c0.6,1.1-0.4,2.3-2,3.8c-0.6,0.6-1.1,1.9-2,2.4c-3.1,1.9-6.5,2-7.4,0.4c-0.9-1.6,0.9-4.4,4-6.3
			C55.7,167.2,59,167,60,168.7z"/>
		<path class="st20" d="M58.9,152.5c0.6,1.1,0.1,0.9-1,0.5c-1-0.4-6.8-4.1-7.1-4.6c-0.2-0.7,0.1-1.4,1-1
			C52.8,147.8,58.3,151.4,58.9,152.5z"/>
		<rect x="31.7" y="238" class="st0" width="24.8" height="26.7"/>
		<path class="st0" d="M50.5,229.1l6,8.9H31.7l-4-6.1C36.9,233.2,44.3,231.2,50.5,229.1z"/>
		<path class="st20" d="M52.5,20.9c0.6,0,1.1,1.4,1.1,3.1c0,1.7-0.5,3.1-1.1,3.1c-0.6,0-1.1-1.4-1.1-3.1
			C51.4,22.2,51.9,20.9,52.5,20.9z"/>
		<path class="st20" d="M51.3,119.6c1.5,1.5,2.3,3.1,1.8,3.7c-0.3,0.3-1.1-0.4-1.9-0.8c-0.6-0.3-1.1-0.2-1.8-0.9
			c-1.6-1.5-2.3-3.1-1.9-3.7C48,117.4,49.7,118.2,51.3,119.6z"/>
		<path class="st20" d="M52.9,133.6c0.2,1.4-3.1,14.6-3.1,16.8c0,1.4,0,2.1,0.1,3.3c0,0.6-0.1,1.9-1.7,1.7c-1.3-0.2-1.6-0.4-1.5-2
			c0.1-1.1,0.6-1.3,1-2.8c1.1-5.2,3.3-15.7,3.6-17.9C52.3,130.7,52.7,132.1,52.9,133.6z"/>
		<ellipse class="st20" cx="51.7" cy="38.7" rx="1.1" ry="3.1"/>
		<path class="st20" d="M50.3,209.4c1,0.6,1,1,0.7,1.3c0,0-0.1,0.1-0.1,0.1c-0.1,0.1-0.4,0.2-0.6,0.2c-0.6,0-2.8-1.1-4.4-2.1
			c-0.3-0.1-0.4-0.3-0.4-0.5c0-0.4,0.4-0.7,0.4-0.7S48.7,208.5,50.3,209.4z"/>
		<polygon class="st18" points="46.9,68.9 51,74.2 47.6,76.8 43.5,71.5 		"/>
		<path class="st20" d="M50.3,205.5c1.3,1.5-0.1,1.3-0.1,1.3s-3.4-2.2-3.9-2.6c-0.8-0.6-0.3-1.4,0-1.4C46.7,202.8,49,204,50.3,205.5
			z"/>
		<path class="st20" d="M49.2,60.5c0,1.7-0.5,3.1-1.1,3.1c-0.6,0-1.2-1.4-1.2-3.1c0-1.7,0.5-3.1,1.1-3.1
			C48.6,57.5,49.2,58.9,49.2,60.5z"/>
		<path class="st20" d="M48.1,82.4c0,1.7-0.5,3.1-1.1,3.1c-0.6,0-1.2-1.4-1.2-3.1c0-1.7,0.5-3.1,1.1-3.1
			C47.5,79.4,48.1,80.7,48.1,82.4z"/>
		<path class="st20" d="M45.2,28.9c1.7,0,3.1,0.5,3.1,1.1c0,0.6-1.4,1.1-3.1,1.1c-1.7,0-3.1-0.5-3.1-1.1
			C42.1,29.4,43.5,28.9,45.2,28.9z"/>
		<path class="st20" d="M46.3,108c1.4,3.3,2.4,8.2,0.6,8.6c-1.1,0.3-3.1-2.9-4.4-4.4c-0.7-0.9-2.9-4.1-2.9-5.3c0-2-0.6-3.7,1.1-4.1
			C42.5,102.4,45,104.8,46.3,108z"/>
		<path class="st20" d="M45.5,186.8c0.8-1.9,1.6-0.9,1.4,1.3c-0.1,2.1-1.6,11.9-2.1,16c-0.2,1.5-0.4,2.9-0.5,4.2v0
			c-0.3,2.3-0.5,4.2-0.5,5c0,1.1-0.4,2.5-1.4,2.4c-0.9-0.1-1.4-1.6-1.1-2.5c0.1-0.3,0.3-1.6,0.5-3.2c0.3-1.6,0.6-3.5,0.8-5.2
			c0.3-1.6,0.4-2.9,0.6-3.6C43.6,199,44.8,191.1,45.5,186.8z"/>
		<path class="st20" d="M45.1,148.2c1.1-0.4,2.4-0.1,1.6,0.6c-0.8,0.7-6.8,2.7-8.3,3.2c-1.5,0.4-4.7,1-3-0.4
			C40.4,149.6,44.1,148.5,45.1,148.2z"/>
		<path class="st17" d="M46.2,177.3C46.2,177.3,46.2,177.3,46.2,177.3c-2.2,6.3-3.7,8.3-9.8,18.3c-1,1.7-2.3,3.4-3.7,5v-30.4h1.6
			c0,1.1,0.9,2.1,1.7,3.4c0.6,1.1,4,3.1,5,3.5c1.7,0.8,2.9,1.6,3.6,0.6c0.1-0.2,0.3-0.4,0.4-0.6c0-0.1,0-0.1,0.1-0.2L46.2,177.3z
			 M42.2,183.2c0.2-0.7,1.1-3.8-1.2-3.1c-3.1,1.1-7.5,2.8-4.7,3.8C39.1,185.1,42,184,42.2,183.2z"/>
		<path class="st20" d="M44.5,145c1.1-0.1,2.4,0.3,1.5,0.9c-0.9,0.6-7.1,1.5-8.7,1.7c-1.5,0.3-4.8,0.4-2.9-0.8
			C39.6,145.7,43.3,145.3,44.5,145z"/>
		<path class="st20" d="M42.1,170.8c2.2,2,3.4,4.5,3.1,6.1c0,0,0,0,0,0.1c0,0.1-0.1,0.1-0.1,0.2c-0.1,0.2-0.2,0.4-0.4,0.6
			c-0.8,0.9-1.9,0.1-3.6-0.6c-1-0.4-4.4-2.4-5-3.5c-0.9-1.3-1.7-2.3-1.7-3.4c0-0.4,0.1-0.8,0.5-1.2
			C36.1,167.5,39.4,168.4,42.1,170.8z"/>
		<path class="st20" d="M43.2,118.7c2.1-0.9,1.8,1.8,1.7,2.4c-0.1,0.6-2.7,1.9-5.7,1.2S40.3,119.9,43.2,118.7z"/>
		<path class="st20" d="M41,180.1c2.3-0.8,1.4,2.4,1.2,3.1c-0.2,0.8-3.1,1.9-5.9,0.8C33.5,182.9,37.9,181.3,41,180.1z"/>
		<path class="st18" d="M41.8,69.3L41,70c-0.4-0.5-1.6-0.9-2.9-0.8c-1.7,0-3.1,0.5-3.1,1.1h-2.3v-0.1v-9.7h2.1L41.8,69.3L41.8,69.3z
			"/>
		<path class="st20" d="M41.3,204.5c0,0.1,0,0.1,0,0.2c-0.1,0.5-0.5,1-1.3,1.1c-1.6,0.1-7.3,0.1-9.8,0c-0.9-0.1-1.1-0.3-0.9-0.5
			l0.1-0.1c0,0,0.1-0.1,0.1-0.1c0.6-0.4,2.1-0.9,3.4-0.9c2.3,0,4.1-0.2,7.2-0.6C40.9,203.7,41.3,204.1,41.3,204.5z"/>
		<path class="st20" d="M41,70c0.1,0.1,0.1,0.2,0.1,0.4c0,0.6-1.3,1.1-3.1,1.1c-1.7,0-3.1-0.5-3.1-1.1c0-0.6,1.4-1.1,3.1-1.1
			C39.4,69.1,40.6,69.5,41,70z"/>
		<path class="st20" d="M40.4,208.2c1.1-0.2,0.1,1.7-0.4,1.9c-0.6,0.1-5.1,1.4-8.8,1.8c-3.6,0.3-1.4-1.5,0.8-2
			C34.1,209.3,37.7,208.7,40.4,208.2z"/>
		<path class="st19" d="M32.7,170.2v30.4c0,0-0.1,0.1-0.1,0.1c-1.1,1.3-2.4,2.6-3.7,3.8c0,0-0.1,0.1-0.1,0.1l-0.1,0.1
			c-0.8,0.7-1.6,1.5-2.5,2.2V17.3h6.4v43.3v9.7v0.1v24.2V170.2z"/>
		<rect x="27.6" y="238" class="st4" width="4" height="26.7"/>
		<path class="st4" d="M27.6,231.9l4,6.1h-4l-4.8-7.1C24.5,231.3,26.1,231.7,27.6,231.9z"/>
		<rect x="13.9" y="238" class="st5" width="13.8" height="26.7"/>
		<path class="st5" d="M22.8,230.9l4.8,7.1H13.9L7,227.8c3.5,0.1,7.7,0.4,10.7,1.5C19.4,229.9,21.2,230.5,22.8,230.9z"/>
		<path class="st19" d="M26.3,17.3v189.6c-2.2,1.9-4.6,3.8-7.2,5.8v-18.5v-47.3V94.5V36.1v-7.7v-4.6v-0.1v-6.5H26.3z"/>
		<path class="st17" d="M19.1,194.2v18.5c-5.6,4.3-12,9.1-18.5,15.2v0.1c0,0-0.1,0-0.1,0v-33.4h0.1v1.8c0,0,2.5-1.4,2.9-2.1
			c0.1-0.1,0.1-0.2,0.1-0.3l1,0.1c-0.1,0.8-0.1,1.4-0.2,2.1c-0.2,1.6-0.9,1.9-0.8,3.1c0.1,1.6,0.4,1.9,1.9,1.9
			c1.8,0,1.8-1.4,1.6-2.1c-0.2-1.3-0.3-1.9-0.5-3.6c-0.1-0.9,0.1-3.1,0.4-5.7l0.9,0.1c0,0.3,0.2,0.6,0.6,1.1
			c0.5,0.6,6.6,2.9,8.3,3.3c1.1,0.3,2,0.2,2-0.2H19.1z M15.7,197.5c1.2,0.3,1.9,0.5,1.1-0.6c-0.8-1.1-7.2-4.4-8.3-4.7
			c-1.1-0.2-1.3,0.4-1,1.1C7.8,193.8,14.5,197.3,15.7,197.5z"/>
		<path class="st17" d="M19.1,146.9v47.3h-0.3c0-0.2-0.2-0.5-0.8-0.9c-1.6-1.1-7.9-4.1-9-4.1c-0.6,0-1.2,0.2-1.2,0.7l-0.9-0.1
			c0.5-5.1,1.4-11.8,1.1-12.8c-0.4-1.5-1.1-3-1.9-0.6c0,2.1-1,11.6-1.6,17.7l-1-0.1v0c0-0.6-1.9,0.1-2.9,0.6H0.5v-34.8v-0.1h0.1
			c0.3-0.2,0.6-0.4,0.9-0.7c0.9-0.9,1.5-1.8,1.5-2.5l1.9-0.2c0.3,1,2.3,2.5,3.8,3.7c1.7,1.5,1.9,1.9,2.6,1c0.8-1,0.2-2.4-1.5-3.8
			c-1.3-1.1-2.8-1.9-3.9-1.9l0.7-1.3c1.5,0.6,4.1,0.1,6.5-1.4c1.1-0.6,1.4-2.1,2.1-2.9c1.1-1.2,2.1-2,2.1-2.9H19.1z M2.3,191.3
			c0.9-0.8-0.6-1.1-1.8-0.8v1.6L2.3,191.3z"/>
		<path class="st17" d="M7.5,110.1l-5.6,2.7H0.5V94.5H1h17.8h0.4v52.4h-1.9c0-0.2-0.1-0.4-0.2-0.6c-0.9-1.6-2.9-0.9-6.1,1
			c-2.3,1.4-4.5,3-5.3,4.4l-2.5-0.1c0.5-1.3-0.9-3.4-2.6-5.9v-29.8h2.4l6.1-2.5L7.5,110.1z"/>
		<path class="st18" d="M3.5,65.9l-1.6-2.4H0.5V38.6h2.3c0.2-0.3,5.6-5.6,10-9.7l6.3,7.2v58.3h-0.4H1H0.5V67.7h0.7L3.5,65.9z
			 M13.6,36.9c0-1.2-0.3-2.3-0.9-2.3c-0.5,0-0.9,1-0.9,2.3s0.4,2.3,0.9,2.3C13.2,39.2,13.6,38.2,13.6,36.9z M13.3,68
			c0-0.6-1.4-1.1-3.1-1.1c-1.7,0-3.1,0.5-3.1,1.1c0,0.6,1.4,1.1,3.1,1.1C11.9,69.2,13.3,68.7,13.3,68z M5.4,57.1
			c0-1.7-0.5-3.1-1.1-3.1s-1.1,1.4-1.1,3.1c0,1.7,0.5,3.1,1.1,3.1S5.4,58.8,5.4,57.1z M4,72.7c0-1.7-0.5-3.1-1.1-3.1
			s-1.1,1.3-1.1,3.1c0,1.7,0.5,3.1,1.1,3.1S4,74.4,4,72.7z"/>
		<path class="st18" d="M19.1,28.4v7.7l-6.3-7.2c1.1-1,2.1-2,2.9-2.8l1.9,2.3H19.1z"/>
		<path class="st18" d="M19.1,23.8v4.6h-1.5l-1.9-2.3c1.5-1.4,2.5-2.3,2.5-2.3H19.1z"/>
		<path class="st18" d="M19.1,23.7L19.1,23.7l-0.9,0.1c0,0-1,0.9-2.5,2.3L13,22.7l3.6-3.6v-1.9h2.6V23.7z"/>
		<path class="st20" d="M18,193.3c0.6,0.3,0.8,0.6,0.8,0.9c0,0.4-0.9,0.5-2,0.2c-1.8-0.4-7.8-2.7-8.3-3.3c-0.4-0.5-0.6-0.9-0.6-1.1
			c0-0.5,0.6-0.7,1.2-0.7C10.1,189.2,16.5,192.3,18,193.3z"/>
		<path class="st20" d="M17,146.3c0.1,0.2,0.2,0.4,0.2,0.6c0,0.9-0.9,1.6-2.1,2.9c-0.7,0.7-1.1,2.2-2.1,2.9c-2.4,1.5-5,2-6.5,1.4
			c-0.4-0.1-0.7-0.4-0.9-0.8c-0.3-0.4-0.3-0.8-0.1-1.2c0-0.1,0.1-0.2,0.1-0.3c0.8-1.4,3-3,5.3-4.4C14.1,145.3,16,144.7,17,146.3z"/>
		<path class="st20" d="M16.7,196.9c0.8,1.1,0.1,0.9-1.1,0.6c-1.1-0.3-7.9-3.7-8.2-4.2c-0.3-0.7-0.1-1.4,1-1.1
			C9.5,192.5,16,195.8,16.7,196.9z"/>
		<polygon class="st18" points="16.5,17.3 16.5,19.1 13,22.7 10.2,19.1 10.2,17.3 		"/>
		<path class="st18" d="M13,22.7l2.8,3.5c-0.9,0.8-1.9,1.8-2.9,2.8L10,25.7L13,22.7z"/>
		<rect x="9.9" y="238" class="st4" width="4" height="26.7"/>
		<path class="st4" d="M7,227.8l6.9,10.2h-4L3,227.9C4.1,227.8,5.5,227.8,7,227.8z"/>
		<ellipse class="st20" cx="12.7" cy="36.9" rx="0.9" ry="2.3"/>
		<polygon class="st18" points="10.2,19.1 13,22.7 10,25.7 8.5,23.9 8.5,23.9 4.3,19.1 4.3,17.3 10.2,17.3 		"/>
		<path class="st18" d="M10,25.7l2.9,3.3c-4.4,4.1-9.8,9.3-10,9.7H0.5V25.4h0.6c0,0.6,1.3,1.1,3.1,1.1c1.7,0,3.1-0.5,3.1-1.1
			c0-0.1-0.1-0.2-0.1-0.3l1.3-1.1L10,25.7z"/>
		<path class="st20" d="M10.2,66.9c1.7,0,3.1,0.5,3.1,1.1c0,0.6-1.4,1.1-3.1,1.1c-1.7,0-3.1-0.5-3.1-1.1
			C7.1,67.4,8.5,66.9,10.2,66.9z"/>
		<path class="st20" d="M9.6,157.2c1.7,1.4,2.3,2.8,1.5,3.8c-0.8,0.9-0.9,0.5-2.6-1c-1.4-1.2-3.5-2.7-3.8-3.7c0-0.1,0-0.1,0-0.2
			c0-0.1,0.1-0.3,0.1-0.4c0.3-0.2,0.6-0.4,0.9-0.4C6.8,155.3,8.3,156.2,9.6,157.2z"/>
		<rect x="0.5" y="238" class="st0" width="9.3" height="26.7"/>
		<path class="st0" d="M3,227.9L9.9,238H0.5v-10C0.8,228,1.7,227.9,3,227.9z"/>
		<polygon class="st17" points="7.5,110.1 9,113.4 2.9,115.9 0.5,115.9 0.5,112.8 1.9,112.8 		"/>
		<path class="st18" d="M8.5,23.9L7.2,25c-0.4-0.5-1.6-0.9-2.9-0.8c-1.7,0-3.1,0.5-3.1,1.1H0.5v-8.1h0.1h3.6v1.9L8.5,23.9L8.5,23.9z
			"/>
		<path class="st20" d="M8,177.1c0.3,1-0.6,7.7-1.1,12.8c-0.3,2.6-0.5,4.8-0.4,5.7c0.2,1.6,0.3,2.3,0.5,3.6c0.1,0.6,0.1,2.1-1.6,2.1
			c-1.4,0-1.8-0.3-1.9-1.9c-0.1-1.3,0.6-1.5,0.8-3.1c0.1-0.6,0.1-1.3,0.2-2.1c0.6-6.1,1.6-15.6,1.6-17.7
			C6.9,174.1,7.5,175.6,8,177.1z"/>
		<path class="st20" d="M7.2,25c0.1,0.1,0.1,0.2,0.1,0.3c0,0.6-1.4,1.1-3.1,1.1c-1.7,0-3.1-0.5-3.1-1.1c0-0.6,1.3-1.1,3.1-1.1
			C5.6,24.2,6.8,24.5,7.2,25z"/>
		<path class="st17" d="M6.5,154l-0.7,1.3c-0.3,0-0.6,0.1-0.9,0.4c-0.1,0.1-0.1,0.3-0.1,0.4c0,0.1,0,0.1,0,0.2l-1.9,0.2
			c0-0.1,0-0.1,0-0.2c0-0.1-0.1-0.3-0.2-0.4c-0.3-0.3-1.2-0.2-2.1,0.4l0,0V152c0.7,0.5,1.4,0.8,1.9,0.4c0.3-0.2,0.4-0.4,0.6-0.6
			c0-0.1,0.1-0.1,0.1-0.2l2.5,0.1c-0.1,0.1-0.1,0.2-0.1,0.3c-0.2,0.4-0.2,0.9,0.1,1.2C5.8,153.5,6.1,153.8,6.5,154z"/>
		<path class="st20" d="M4.3,54c0.6,0,1.1,1.4,1.1,3.1c0,1.7-0.5,3.1-1.1,3.1s-1.1-1.4-1.1-3.1C3.1,55.4,3.6,54,4.3,54z"/>
		<ellipse class="st20" cx="2.9" cy="72.7" rx="1.1" ry="3.1"/>
		<polygon class="st18" points="1.9,63.5 3.5,65.9 1.3,67.7 0.5,67.7 0.5,63.5 		"/>
		<path class="st20" d="M3.5,194L3.5,194c0,0.1,0,0.2-0.1,0.3c-0.4,0.6-2.9,2.1-2.9,2.1v-1.8C1.5,194.2,3.5,193.4,3.5,194z"/>
		<path class="st20" d="M0.5,145.7c1.7,2.5,3.1,4.6,2.6,5.9c0,0.1-0.1,0.1-0.1,0.2c-0.1,0.3-0.3,0.4-0.6,0.6
			c-0.6,0.4-1.2,0.1-1.9-0.4V145.7z"/>
		<path class="st20" d="M2.8,156.2c0,0.1,0,0.1,0,0.2c0,0.6-0.6,1.6-1.5,2.5c-0.3,0.3-0.6,0.5-0.9,0.7H0.5v-3.4c0,0,0.1,0,0.1-0.1
			c0.9-0.6,1.7-0.7,2.1-0.4C2.8,156,2.8,156.1,2.8,156.2z"/>
		<path class="st20" d="M0.5,190.5c1.2-0.3,2.6,0,1.8,0.8l-1.8,0.9V190.5z"/>
	</g>
	<g>
		<polyline class="st22" points="93.5,227 95.7,227 99.7,227 113.5,227 117.5,227 142.4,227 146.4,227 160.1,227 164.2,227 189,227 
			193,227 206.8,227 210.8,227 235.7,227 239.7,227 253.4,227 257.5,227 268.4,227 268.4,238 268.4,264.7 		"/>
		<polyline class="st22" points="0.5,238 9.9,238 13.9,238 27.6,238 31.7,238 56.5,238 60.5,238 74.3,238 78.3,238 103.1,238 
			107.2,238 120.9,238 124.9,238 149.8,238 153.8,238 167.6,238 171.6,238 196.4,238 200.4,238 214.2,238 218.2,238 243.1,238 
			247.1,238 260.8,238 264.9,238 268.4,238 		"/>
		<polyline class="st23" points="268.4,264.7 264.9,264.7 260.8,264.7 247.1,264.7 243.1,264.7 218.2,264.7 214.2,264.7 
			200.4,264.7 196.4,264.7 171.6,264.7 167.6,264.7 153.8,264.7 149.8,264.7 124.9,264.7 120.9,264.7 107.2,264.7 103.1,264.7 
			78.3,264.7 74.3,264.7 60.5,264.7 56.5,264.7 31.7,264.7 27.6,264.7 13.9,264.7 9.9,264.7 0.5,264.7 0.5,238 0.5,228 0.5,227.8 		
			"/>
		<polyline class="st22" points="235.7,227 243.1,238 243.1,264.7 		"/>
		<polyline class="st22" points="239.7,227 247.1,238 247.1,264.7 		"/>
		<polyline class="st22" points="253.4,227 260.8,238 260.8,264.7 		"/>
		<polyline class="st22" points="257.5,227 264.9,238 264.9,264.7 		"/>
		<polyline class="st22" points="189,227 196.4,238 196.4,264.7 		"/>
		<polyline class="st22" points="193,227 200.4,238 200.4,264.7 		"/>
		<polyline class="st22" points="206.8,227 214.2,238 214.2,264.7 		"/>
		<polyline class="st22" points="210.8,227 218.2,238 218.2,264.7 		"/>
		<polyline class="st22" points="142.4,227 149.8,238 149.8,264.7 		"/>
		<polyline class="st22" points="146.4,227 153.8,238 153.8,264.7 		"/>
		<polyline class="st22" points="160.1,227 167.6,238 167.6,264.7 		"/>
		<polyline class="st22" points="164.2,227 171.6,238 171.6,264.7 		"/>
		<polyline class="st22" points="95.7,227 103.1,238 103.1,264.7 		"/>
		<polyline class="st22" points="99.7,227 107.2,238 107.2,264.7 		"/>
		<polyline class="st22" points="113.5,227 120.9,238 120.9,264.7 		"/>
		<polyline class="st22" points="117.5,227 124.9,238 124.9,264.7 		"/>
		<polyline class="st22" points="50.4,228.9 50.5,229.1 56.5,238 56.5,264.7 		"/>
		<polyline class="st22" points="53.8,228 60.5,238 60.5,264.7 		"/>
		<polyline class="st22" points="67.7,228.3 67.7,228.3 74.3,238 74.3,264.7 		"/>
		<polyline class="st22" points="71.9,228.5 78.3,238 78.3,264.7 		"/>
		<polyline class="st22" points="2.9,227.7 3,227.9 9.9,238 9.9,264.7 		"/>
		<polyline class="st22" points="6.9,227.7 7,227.8 13.9,238 13.9,264.7 		"/>
		<polyline class="st22" points="22.8,230.9 27.6,238 27.6,264.7 		"/>
		<polyline class="st22" points="27.6,231.9 31.7,238 31.7,264.7 		"/>
		<polyline class="st23" points="228.1,149.9 236.6,149.9 242.2,149.9 254.3,149.9 258.9,149.9 268.4,149.9 268.4,160.9 
			264.7,160.9 260.2,160.9 248.1,160.9 242.4,160.9 234.6,160.9 234.5,160.9 		"/>
		<line class="st22" x1="254.3" y1="149.9" x2="260.2" y2="160.9"/>
		<line class="st22" x1="258.9" y1="149.9" x2="264.7" y2="160.9"/>
		<line class="st22" x1="242.2" y1="149.9" x2="248.1" y2="160.9"/>
		<line class="st22" x1="236.6" y1="149.9" x2="242.4" y2="160.9"/>
		<path class="st24" d="M0.5,145.7v-29.8v-3.1V94.5V67.7v-4.3V38.6V25.4v-8.1v-3.6V7.6h113.8c11-0.4,27.1,1.3,37.6-6.1
			c-6.6,8.3-13.1,12.1-33.6,12.1c0,0,0,0,0,0.1c0,0.1,0,0.5,0,1c0,0.6,0,1.5,0.1,2.5c0,0,0,0,0,0.1c0.1,3.4,0.1,9.1,0.2,16.3
			c0,0,0,0,0,0c0,0.5,0,1,0,1.5c0,0,0,0,0,0c0.1,7.4,0.2,16.3,0.3,25.9c0,1.1,0,2.1,0,3.3c0,4.2,0.1,8.6,0.1,12.9
			c0,4.1,0.1,8.3,0.1,12.6c0,1,0,2,0,2.9v1.5c0,0,0,0.1,0,0.1c0,0.9,0,1.9,0,2.8c0,1.3,0,2.7,0,4.1c0,4.1,0,8.1,0,12.1"/>
		<line class="st24" x1="0.5" y1="156.2" x2="0.5" y2="152"/>
		<path class="st24" d="M119,116.9c0,7.7-0.1,15-0.1,21.9c0,0.4,0,0.9,0,1.4c0,0.2,0,0.4,0,0.6c0,0,0,0,0,0.1
			c-0.1,4.7-0.2,9.1-0.3,13.1c-0.1,4-0.2,7.6-0.4,10.7c-0.1,1-0.1,2-0.1,2.9c0,0,0,0.1,0,0.1c-0.1,1.4-0.1,2.6-0.3,3.6
			c0,0,0,0,0,0.1c-0.1,1.4-0.3,2.5-0.4,3.3c-0.1,0.5-0.2,1.1-0.3,1.7c0,0,0,0.1,0,0.1c-0.3,1.3-0.6,2.7-0.8,4.1c0,0,0,0.1,0,0.1
			c-0.4,1.7-0.8,3.5-1.4,5.4c0,0.1,0,0.1,0,0.2v0.1c-0.4,1.5-0.8,2.9-1.2,4.3c0,0.1,0,0.1,0,0.1c-0.2,0.8-0.5,1.6-0.7,2.4
			c0,0.1,0,0.1-0.1,0.2c-0.5,1.4-0.9,2.9-1.4,4.3c0,0.1-0.1,0.2-0.1,0.2c-0.8,2.2-1.5,4.3-2.3,6.4c0,0.1-0.1,0.2-0.1,0.2
			c-0.5,1.5-1.1,2.9-1.6,4.3c0,0.1,0,0.1-0.1,0.2c-3.2,7.9-6.4,14-8.8,15.5c-1.9,1.2-3.2,1.9-4.2,2.3c0,0,0,0-0.1,0
			c-0.2,0.1-0.4,0.2-0.6,0.2c-1.3,0.5-1.7,0.3-1.7,0.3c-3.8,1.3-11.9,1.5-19.9,1.2c-1.4,0-2.8-0.1-4.1-0.2c-4.6-0.2-8.8-0.6-11.8-1
			c-0.7,0.2-1.5,0.5-2.2,0.7c-1,0.4-2.1,0.7-3.3,1.1c-6.2,2.1-13.6,4.1-22.9,2.7c-1.5-0.2-3.1-0.5-4.8-1c-1.7-0.4-3.4-1-5.2-1.6
			c-3-1.1-7.2-1.4-10.7-1.5c-1.5,0-2.9,0-4,0c-1.3,0.1-2.2,0.1-2.5,0.1c0,0-0.1,0-0.1,0v-33.4v-34.8"/>
		<path class="st24" d="M119,114.3c0,0.8,0,1.7,0,2.5c0,0,0,0.1,0,0.1"/>
		<line class="st24" x1="0.6" y1="13.7" x2="118.3" y2="13.7"/>
		<polyline class="st24" points="0.6,17.3 4.3,17.3 10.2,17.3 16.5,17.3 19.1,17.3 26.3,17.3 32.7,17.3 67.3,17.3 72.4,17.3 
			78.5,17.3 84.8,17.3 113.6,17.3 115.4,17.3 118.3,17.3 		"/>
		<path class="st24" d="M47.2,174.5c-0.3,1-0.7,1.9-1,2.8c0,0,0,0,0,0.1c-2.2,6.3-3.6,8.3-9.8,18.3c-1,1.7-2.3,3.4-3.7,5
			c0,0-0.1,0.1-0.1,0.1c-1.1,1.3-2.4,2.6-3.7,3.8c0,0-0.1,0.1-0.1,0.1l-0.1,0.1c-0.8,0.7-1.6,1.5-2.5,2.2c-2.2,1.9-4.6,3.8-7.2,5.8
			c-5.6,4.3-12,9.1-18.5,15.2"/>
		<path class="st24" d="M91.8,138.6c0,0,0.1,4-0.1,9.6c-0.1,1.1-0.1,2.3-0.2,3.5c0,0,0,0,0,0.1c-0.5,7.4-1.6,16.3-3.9,22.5
			c-0.6,1.6-1.3,3-2.1,4.1c-1.5,2.2-3.9,4.9-6.8,7.9c0,0,0,0,0,0c-1.6,1.8-3.4,3.5-5.2,5.4c-0.1,0.1-0.2,0.2-0.4,0.3c0,0,0,0,0,0
			c-1.8,1.7-3.5,3.5-5.3,5.1c0,0,0,0-0.1,0c-7.3,7-14.1,13-14.9,13.7c0,0,0,0-0.1,0.1c17.5,6.3,30,15.9,40.4,15.9c0.3,0,0.7,0,1,0"
			/>
		<line class="st24" x1="49.3" y1="213.9" x2="56" y2="227.2"/>
		<polyline class="st24" points="19.1,212.7 19.1,194.2 19.1,146.9 19.1,94.5 19.1,36.1 19.1,28.4 19.1,23.8 19.1,23.7 19.1,17.3 		
			"/>
		<line class="st24" x1="26.3" y1="17.3" x2="26.3" y2="206.9"/>
		<polyline class="st24" points="32.7,17.3 32.7,60.5 32.7,70.2 32.7,70.3 32.7,94.5 32.7,170.2 32.7,200.6 32.7,200.7 		"/>
		<polyline class="st24" points="67.3,17.3 67.3,62.9 67.3,94.5 67.3,196.8 		"/>
		<line class="st24" x1="72.4" y1="17.3" x2="72.4" y2="191.3"/>
		<polyline class="st24" points="78.5,186.1 78.5,146.5 78.5,146.4 78.5,119.5 78.5,113.3 78.5,94.5 78.5,71.9 78.5,17.3 		"/>
		<polyline class="st24" points="64,21.7 52.5,30.7 42.6,38.6 		"/>
		<polyline class="st24" points="42.6,19.1 52.5,30.7 63,43 		"/>
		<polyline class="st24" points="34.9,60.5 41.8,69.3 41.8,69.3 43.5,71.5 47.6,76.8 57.5,89.3 		"/>
		<polyline class="st24" points="37.6,57 46.9,68.9 51,74.2 60.1,85.7 		"/>
		<polyline class="st24" points="65.6,62.9 51,74.2 47.6,76.8 37.6,84.5 		"/>
		<polyline class="st24" points="64,55.8 46.9,68.9 43.5,71.5 35.9,77.4 		"/>
		<line class="st24" x1="32.7" y1="94.5" x2="67.3" y2="94.5"/>
		<line class="st24" x1="1" y1="94.5" x2="18.7" y2="94.5"/>
		<polyline class="st24" points="78.9,94.5 97.5,94.5 113.5,94.5 114.7,94.5 116.2,94.5 118.5,94.5 		"/>
		<path class="st24" d="M5.8,155.3c1.1,0,2.6,0.9,3.9,1.9c1.7,1.4,2.3,2.8,1.5,3.8c-0.8,0.9-0.9,0.5-2.6-1c-1.4-1.2-3.5-2.7-3.8-3.7
			c0-0.1,0-0.1,0-0.2c0-0.1,0.1-0.3,0.1-0.4C5.1,155.5,5.4,155.3,5.8,155.3z"/>
		<path class="st24" d="M17.2,146.9c0-0.2-0.1-0.4-0.2-0.6c-0.9-1.6-2.9-0.9-6.1,1c-2.3,1.4-4.5,3-5.3,4.4c-0.1,0.1-0.1,0.2-0.1,0.3
			c-0.2,0.4-0.2,0.9,0.1,1.2c0.2,0.3,0.6,0.6,0.9,0.8c1.5,0.6,4.1,0.1,6.5-1.4c1.1-0.6,1.4-2.1,2.1-2.9
			C16.2,148.5,17.2,147.8,17.2,146.9z"/>
		<path class="st24" d="M51.3,132.8c-0.3,2.2-2.5,12.7-3.6,17.9c-0.4,1.5-0.9,1.6-1,2.8c-0.1,1.6,0.1,1.8,1.5,2
			c1.6,0.2,1.7-1.1,1.7-1.7c-0.1-1.2-0.1-1.9-0.1-3.3c0-2.3,3.4-15.4,3.1-16.8C52.7,132.1,52.3,130.7,51.3,132.8z"/>
		<path class="st24" d="M34.4,146.8c5.2-1.1,9-1.6,10.1-1.8c1.1-0.1,2.4,0.3,1.5,0.9c-0.9,0.6-7.1,1.5-8.7,1.7
			C35.8,147.9,32.5,148,34.4,146.8z"/>
		<path class="st24" d="M35.4,151.6c4.9-2,8.6-3.1,9.7-3.4c1.1-0.4,2.4-0.1,1.6,0.6c-0.8,0.7-6.8,2.7-8.3,3.2
			C36.9,152.5,33.7,153,35.4,151.6z"/>
		<path class="st24" d="M52,146.4c0.4,0.6,5.7,3.2,7.3,3.8c1.6,0.6,2.6,0.3,1.3-0.9c-1.3-1.1-6.8-4.6-7.8-4.6
			C51.8,144.8,51,145.1,52,146.4z"/>
		<path class="st24" d="M50.8,148.4c0.2,0.5,6.1,4.3,7.1,4.6c1.1,0.4,1.6,0.6,1-0.5c-0.6-1.1-6.1-4.8-7.1-5.1
			C50.9,147,50.6,147.7,50.8,148.4z"/>
		<path class="st22" d="M6.9,189.9c0.5-5.1,1.4-11.8,1.1-12.8c-0.4-1.5-1.1-3-1.9-0.6c0,2.1-1,11.6-1.6,17.7
			c-0.1,0.8-0.1,1.4-0.2,2.1c-0.2,1.6-0.9,1.9-0.8,3.1c0.1,1.6,0.4,1.9,1.9,1.9c1.8,0,1.8-1.4,1.6-2.1c-0.2-1.3-0.3-1.9-0.5-3.6
			C6.4,194.8,6.6,192.5,6.9,189.9z"/>
		<path class="st22" d="M0.5,190.5c1.2-0.3,2.6,0,1.8,0.8l-1.8,0.9"/>
		<path class="st22" d="M0.5,194.6c1-0.4,2.9-1.2,2.9-0.6v0c0,0.1,0,0.1-0.1,0.3c-0.4,0.6-2.9,2.1-2.9,2.1"/>
		<path class="st22" d="M7.8,190c0,0.3,0.2,0.6,0.6,1.1c0.5,0.6,6.6,2.9,8.3,3.3c1.1,0.3,2,0.2,2-0.2c0-0.2-0.2-0.5-0.8-0.9
			c-1.6-1.1-7.9-4.1-9-4.1C8.5,189.3,7.8,189.5,7.8,190z"/>
		<path class="st22" d="M7.5,193.3c0.3,0.5,7.1,3.9,8.2,4.2c1.2,0.3,1.9,0.5,1.1-0.6c-0.8-1.1-7.2-4.4-8.3-4.7
			C7.4,192,7.2,192.6,7.5,193.3z"/>
		<path class="st24" d="M34.4,170.2c0-0.4,0.1-0.8,0.5-1.2c1.3-1.4,4.5-0.6,7.2,1.9c2.2,2,3.4,4.5,3.1,6.1c0,0,0,0,0,0.1
			c0,0.1-0.1,0.1-0.1,0.2c-0.1,0.2-0.2,0.4-0.4,0.6c-0.8,0.9-1.9,0.1-3.6-0.6c-1-0.4-4.4-2.4-5-3.5
			C35.2,172.3,34.4,171.2,34.4,170.2z"/>
		<path class="st24" d="M60,168.7c0.6,1.1-0.4,2.3-2,3.8c-0.6,0.6-1.1,1.9-2,2.4c-3.1,1.9-6.5,2-7.4,0.4c-0.9-1.6,0.9-4.4,4-6.3
			C55.7,167.2,59,167,60,168.7z"/>
		<path class="st24" d="M61.2,182.6c-0.2,0.9-2.1,0.6-3.6,0.9c-1.2,0.1-1.9,0.9-3.5,0.5c-3.6-0.8-6.1-2.7-5.8-4.3
			c0.4-1.6,3.5-2.1,7.1-1.3C59,179.1,61.5,181,61.2,182.6z"/>
		<path class="st24" d="M41,180.1c-3.1,1.1-7.5,2.8-4.7,3.8c2.9,1.1,5.7,0,5.9-0.8C42.4,182.5,43.3,179.4,41,180.1z"/>
		<path class="st24" d="M94,151.1c0,0.1-0.1,0.2-0.1,0.3c-0.3,0.4-1.3,0.4-2.5,0.3h0c-1.2-0.1-2.6-0.4-3.6-0.6
			c-1.1-0.1-4.8-1-5.7-1.9c-1.1-1.1-2.4-1.9-2.4-2.8c0-0.2,0.1-0.5,0.3-0.8c0.9-1.3,4.2-1.3,7.4,0.1c1.4,0.6,2.9,1.5,4.2,2.3
			C93.1,149.2,94.2,150.3,94,151.1z"/>
		<path class="st24" d="M97.1,148.7c-1,0-1.7-0.3-2.2-0.8c-1.1-1.3,0.3-3.7,3.1-5.4c2.6-1.4,7.1-3.5,8.8-2.9c0.1,0,0.1,0.1,0.2,0.1
			c0.1,0.1,0.1,0.1,0.2,0.1c0.8,0.9-2.1,3.9-3.5,5.3c-0.6,0.6-0.8,1.6-1.6,2.1c-1.5,0.9-3.1,1.4-4.4,1.5
			C97.5,148.7,97.2,148.7,97.1,148.7z"/>
		<path class="st24" d="M97.4,150.2c0.1,0,0.2,0,0.3-0.1c1-0.1,2.3-0.1,3.7,0.2c2.8,0.6,4.9,1.9,4.7,2.9c-0.1,0.6-1.6,0.4-2.8,0.5
			c-0.9,0.1-1.4,0.5-2.7,0.3c-2.8-0.6-4.9-1.9-4.7-2.9C96.1,150.7,96.7,150.4,97.4,150.2z"/>
		<path class="st24" d="M87.3,152.4c-2.8,1.6-6.6,3.7-3.6,4c3,0.3,5.5-1.1,5.6-1.8S89.3,151.3,87.3,152.4z"/>
		<path class="st24" d="M47,116.6c-1.1,0.3-3.1-2.9-4.4-4.4c-0.7-0.9-2.9-4.1-2.9-5.3c0-2-0.6-3.7,1.1-4.1c1.7-0.4,4.2,1.9,5.6,5.1
			C47.7,111.2,48.8,116.2,47,116.6z"/>
		<path class="st24" d="M65,112c0.5,1.1-3.3,3.1-5,3.9c-0.7,0.4-1.3,1.3-2.2,1.5c-3.3,0.7-6.5,0.1-7.1-1.6c-0.7-1.6,1.4-3.5,4.7-4.2
			C58.6,111,64.4,110.4,65,112z"/>
		<path class="st24" d="M53,123.3c-0.3,0.3-1.1-0.4-1.9-0.8c-0.6-0.3-1.1-0.2-1.8-0.9c-1.6-1.5-2.3-3.1-1.9-3.7
			c0.5-0.6,2.2,0.2,3.8,1.6C52.8,121.1,53.5,122.7,53,123.3z"/>
		<path class="st24" d="M43.2,118.7c-2.9,1.3-7,3-4,3.6s5.6-0.6,5.7-1.2C45,120.4,45.3,117.7,43.2,118.7z"/>
		<path class="st24" d="M44.3,208.3L44.3,208.3c0.1-1.3,0.3-2.7,0.5-4.2c0.5-4.1,2-13.8,2.1-16c0.1-2.2-0.6-3.1-1.4-1.3
			c-0.7,4.3-1.9,12.1-2.3,14.4c-0.1,0.7-0.3,2-0.6,3.6c-0.2,1.7-0.5,3.6-0.8,5.2c-0.3,1.6-0.5,2.8-0.5,3.2c-0.2,0.9,0.2,2.4,1.1,2.5
			c0.9,0.1,1.4-1.3,1.4-2.4C43.8,212.5,44.1,210.6,44.3,208.3z"/>
		<path class="st24" d="M29.6,205.2c0,0-0.1,0.1-0.1,0.1l-0.1,0.1c-0.2,0.2-0.1,0.4,0.9,0.5c2.5,0.1,8.1,0.1,9.8,0
			c0.8-0.1,1.2-0.6,1.3-1.1c0-0.1,0-0.1,0-0.2c0-0.4-0.4-0.9-1.1-0.8c-3.1,0.4-4.8,0.6-7.2,0.6C31.7,204.3,30.2,204.8,29.6,205.2z"
			/>
		<path class="st24" d="M40.4,208.2c-2.7,0.6-6.4,1.1-8.4,1.6c-2.1,0.5-4.4,2.3-0.8,2c3.6-0.4,8.2-1.6,8.8-1.8
			C40.6,209.9,41.5,207.9,40.4,208.2z"/>
		<path class="st24" d="M46.3,204.2c0.4,0.4,3.9,2.6,3.9,2.6s1.3,0.2,0.1-1.3c-1.3-1.5-3.6-2.7-3.9-2.7
			C46,202.8,45.5,203.6,46.3,204.2z"/>
		<path class="st24" d="M45.5,208.5c0,0.1,0.1,0.4,0.4,0.5c1.6,0.9,3.8,2.1,4.4,2.1c0.2,0,0.4-0.1,0.6-0.2c0,0,0.1-0.1,0.1-0.1
			c0.3-0.3,0.3-0.8-0.7-1.3c-1.6-0.9-4.4-1.6-4.4-1.6S45.5,208.1,45.5,208.5z"/>
		<path class="st24" d="M97.5,96.7c-0.2,0-0.6,0.3-0.9,0.9c-0.6,4.4-1.8,12.2-2.1,14.5c-0.1,0.7-0.3,2-0.6,3.5
			c-0.2,1.3-0.4,2.7-0.6,4v0.1c-0.4,2.1-0.6,3.8-0.7,4.3c-0.2,0.9,0.2,2.4,1.1,2.4c0.9,0.1,1.4-1.3,1.4-2.4c0-1.1,0.4-5.1,0.9-9.1
			c0.5-4.1,2-13.8,2.1-16C98.2,97.6,97.9,96.7,97.5,96.7z"/>
		<path class="st24" d="M92.5,115.6c0-0.1,0-0.1,0-0.2c0-0.4-0.3-0.7-0.9-0.9c-3.1-0.5-4.8-0.8-7.1-1.4c-1.6-0.4-3.8-0.3-3.8,0.2
			c0,0.1,0.2,0.4,0.9,0.6c2.4,0.9,7.8,2.4,9.4,2.6C91.8,116.6,92.4,116.1,92.5,115.6z"/>
		<path class="st24" d="M79.9,119.5c0,0.3,0.5,0.6,1.8,0.7c3.6,0.5,8.3,0.3,9,0.3c0.4,0,1.1-0.6,1.3-1.1v-0.1c0-0.2-0.1-0.4-0.4-0.4
			c-2.8-0.1-6.4-0.4-8.6-0.4C81.6,118.5,79.9,119,79.9,119.5z"/>
		<path class="st24" d="M97.8,117.9c0.7,0.1,7.3,0.8,7.3,0.8s1.5-0.7-0.8-1.4c-2.3-0.7-7.1-1-7.4-0.8
			C96.5,116.7,96.5,117.7,97.8,117.9z"/>
		<path class="st24" d="M97.8,121.1c1.6,0.9,7.1,2.9,7.7,2.9s1.6-0.7,0-1.6c-1.6-0.9-7.7-2.4-7.7-2.4S97,120.7,97.8,121.1z"/>
		<path class="st24" d="M107.5,188.5c0-0.2-0.1-0.5-0.4-0.9c-2.8-2.1-7.8-6.1-9.2-7.2c-1.4-1.1-6.9-5.4-7.5-6
			c-0.6-0.6-1.6-0.8-2.1-0.1c0,0,0,0.1-0.1,0.1c0,0,0,0,0,0c0,0,0,0.1,0,0.1c-0.1,0.6,0.6,1.3,1.2,1.8c0.7,0.4,3.4,2.3,5.9,4.2
			c2.6,1.9,8.8,6.8,10.3,7.8C106.7,188.8,107.5,188.9,107.5,188.5z"/>
		<path class="st24" d="M97,177.4c1.4-2.1,2.1-3.2,3.3-4.6s1.9-3.9,0.5-2.5c-1.4,1.4-4.2,4.8-4.9,5.8
			C95.3,177.2,96.3,178.5,97,177.4z"/>
		<path class="st24" d="M94,175.6c1-1.9,2.4-4.5,3.1-6.1c0.7-1.6,0.8-4-0.8-1.6c-1.6,2.4-3,5.9-3.2,6.4
			C93,174.8,93.6,176.4,94,175.6z"/>
		<path class="st24" d="M92.8,180.6c-0.4,0.4-2.9,5-2.9,5s0,1.4,1.2,0c1.2-1.4,3.1-4.8,3-5.1C94,180.1,93.2,179.8,92.8,180.6z"/>
		<path class="st24" d="M90.6,179.4c-1.1,0.9-4.4,4.1-4.6,4.5c-0.2,0.4-0.1,1.5,1.1,0.6c1.1-0.9,4.2-4.7,4.2-4.7
			S91.1,178.9,90.6,179.4z"/>
		<path class="st24" d="M72.4,201.2c2.4,2.6,4.3,7,9.3,8.1c3.4,0.6,5.3-2.8,5.3-3.8s-2.5-1.6-5.6-2.4
			C78.4,202.2,72.7,198.7,72.4,201.2z"/>
		<path class="st24" d="M88.3,204.5c4.1-4.5,5.5-4.8,6.8-6.1c1.7-1.7,3.6-4.2,4.3-1.6c0.9,4,0.9,5.8-2.2,7.8
			c-2.8,1.7-5.1,3.1-6.6,2.4C89.1,206.1,87.2,205.6,88.3,204.5z"/>
		<path class="st24" d="M83.5,211.8c-2.2,1.9-4.3,2.3-4.3,3.3s2.9,4,5.6,1.9c2.6-2.1,1.4-4.1,1.4-5.3
			C86.1,210.6,85.4,210.4,83.5,211.8z"/>
		<path class="st24" d="M89.6,209.5c0.9,2.1,1.5,4.6,4.5,4.7c3.1,0.1,4.4,0.1,4.8-1.6c0.4-1.8-1-2.3-3.6-3.3
			C92.6,208.3,89.8,207.5,89.6,209.5z"/>
		<line class="st24" x1="163.6" y1="100.1" x2="163.6" y2="100.1"/>
		<path class="st24" d="M168.1,104c-1.9,0.8-3.6,1.1-4.9,1.2c0,0,0,0-0.1,0c-0.3,0-0.6,0-0.9,0c-2.5-0.1-0.4-2.5,1.3-5c0,0,0,0,0,0"
			/>
		<path class="st24" d="M163.6,100.2C163.6,100.2,163.6,100.2,163.6,100.2c0.2-0.3,0.4-0.5,0.5-0.7c1.9-2.8,8.1-10.1,8.3-14
			c0.1-3,0.1-7.8-1.1-10.5c-0.4-0.9-0.9-1.5-1.4-1.9c-0.6,0.2-1.1,0.4-1.6,0.6c-4.4,1.6-8.1,3.6-10.3,3.7c-2.9,3.8-6,8.4-9.2,12.6
			l-3.7,4.8c-0.9,1.2-1.9,2.3-2.7,3.3c-1.3,1.5-2.5,2.7-3.5,3.6c-0.6,0.5-1.2,1-1.8,1.6c-0.1,0.1-0.3,0.3-0.5,0.5
			c-1.3,1.2-3.3,3.2-3.3,3.2c-1.6,1.7-3.5,3.5-5.5,5.1c-2.6,2.1-5.5,3.9-8.8,4.8c0,0,0,0-0.1,0v-2.5v-0.9c0-4.1,0-8.8,0-12.1v-4.1
			c0,0,0,0,0.1-0.1c2.8-2.5,14.7-12,14.7-12c1.7-1.4,3.3-2.6,4.7-3.8c1-0.9,17.7-14.7,24.1-14.9s12.3,1.6,13,9.7
			c0.4,6.5,1.6,14.8,0.4,20c-0.4,1.4-0.9,2.5-1.5,3.4c-1.7,2.1-4,3.5-6.2,4.4"/>
		<path class="st24" d="M142.3,98.1c0.4,0.9,1.5,2,3.1,2.9c1.1,0.6,2.3,1.1,3.7,1.4c0,0,0,0,0,0c0.2,0.1,0.4,0.1,0.6,0.1
			c0.4,0.1,0.8,0.1,1.1,0.1c2.1,0.1,3.7,0.2,5.1,0.2c3.7-0.1,5.7-0.9,7.6-2.7"/>
		<polyline class="st24" points="155.9,102.9 144.4,121.1 133.3,107 		"/>
		<path class="st24" d="M181.6,104.8c0.4,0.3,0.9,0.6,1.2,0.8c3.4,1.5,6.2,3.6,9,6.3c2.8,2.8,5.1,7.3,5.1,7.3h7.3l-0.4,3l5.9,1.3
			v1.9l2.5,1l3,1.1l-9.8,12"/>
		<path class="st24" d="M175.8,96.3c0,0,2.9,6,5.8,8.5"/>
		<path class="st24" d="M168.1,104C168.1,104,168.1,104,168.1,104L168.1,104c5.1-0.2,10.6-0.1,15.6,8.6c1,1.8,2.3,4.3,3.8,7.2
			c0,0,0,0,0,0.1c2.5,5,5.5,11.1,8.1,16.5c0,0,0,0,0,0.1c2,4.1,3.9,7.9,5.3,10.4c0.1,0.2,0.2,0.3,0.3,0.5c0.9,1.5,1.5,2.5,1.8,2.7"
			/>
		<path class="st24" d="M195.6,136.3c2.2,1.2,5.2,2.5,8.3,3.6c0.4,0.1,0.9,0.3,1.3,0.4c3.6,1.2,7.1,2.1,9.1,2.4
			c3.8,0.4,10.5,3.1,13.1,6.3c0.2,0.3,0.4,0.6,0.7,0.9c1.3,1.6,2.8,3.6,4.1,5.6c1.1,1.6,1.9,3.2,2.3,4.6c0,0,0,0,0,0.1
			c0.1,0.2,0.1,0.5,0.1,0.7c0,0,0,0.1,0,0.1c0.1,1,0.4,2.3,0.7,3.8c0,0,0,0.1,0,0.1c0.3,1.5,0.4,3.2,0.3,4.8c-0.2,2.1-0.9,4-2.9,5.1
			c-4.8,2.9-20.2,2.7-21.8,2.9c-0.3,0-0.6,0.2-1,0.4c-0.1,0-0.2,0.1-0.2,0.1c-1.9,1.2-4.8,4.1-4.8,4.1h-10.4h-0.7l-4.1,3.7l-2.2-1.4
			l-3.8,1.9l-0.1,0.1l-3.7,3.7l-1.8,4.3l-4.9-0.6l-3.4-0.4l-0.1,0l-4.6-0.6l-0.6,4.3l0,0l-6.2,0.9l-5.5-7.4
			c-5.6,2-10.7,4.9-14.5,4.4c-2.9,3.7-5.9,9.8-6.2,9.8c-0.4,0-4.5-0.4-4.5-0.4l-2.9,2.7l-3.8-2.1l-0.2-0.1h-1h-4.9h-0.3l-7.3,4"/>
		<path class="st24" d="M134.8,137.1C134.8,137.1,134.9,137.1,134.8,137.1c0.8-1,1.5-1.9,2.2-2.7c1.4-1.7,2.7-3.1,3.6-3.8
			c3.9-3.1,7.8-7.3,9.6-2.2c0.8,2.4,1.8,6.9,2.7,11c0,0.1,0,0.2,0.1,0.3c0,0,0,0,0,0c0.3,1.9,0.7,3.7,1,5.2c0,0,0,0,0,0
			c0.4,2.2,0.6,3.6,0.6,3.6"/>
		<path class="st24" d="M122.9,149.9c2.3-0.8,7.5-7.4,11.9-12.8"/>
		<path class="st24" d="M117.8,171.3L117.8,171.3c2.9-0.9,6.7-3.1,10.7-6.5c0,0,0,0,0,0c2-1.7,4-3.7,5.9-6c0,0,0,0,0,0
			c1.1-1.3,2.1-2.6,3.1-4.1c1-1.5,1.9-3,2.8-4.7c0,0,0,0,0,0c1.4-2.6,2.7-5.6,3.8-8.7c0.8-2.3,1.4-4.6,1.9-7.1"/>
		<path class="st24" d="M140.5,149.9l14.2-1l4.7-0.3c10.6,14.7,21.1,28,35.2,33.8"/>
		<path class="st24" d="M137.6,154.6h20.3c0,0,14.5,20.7,29.6,30.1"/>
		<path class="st24" d="M134.5,158.7c7.5,1,20-0.1,22-0.1c0,0,0,0.1,0.1,0.1c8.2,10.6,17.5,24.8,27,27.9c0,0,0,0,0.1,0"/>
		<path class="st24" d="M128.6,164.8c0.9,0,2.4,0.1,4.2,0.1c0,0,0,0,0,0c3,0.1,7.1,0.2,10.7,0.2c0,0,0.1,0,0.1,0c3.1,0,6,0,8-0.1
			c0,0,0.1,0,0.1,0c1.2-0.1,2-0.1,2.3-0.3c1.6,11.1,8.8,31.2,10.6,32.3c0,0,0,0,0.1,0"/>
		<path class="st24" d="M155.3,162.4C155.3,162.4,155.3,162.4,155.3,162.4c0.1,0.3,0.4,0.8,0.6,1.3c2.4,5.3,13.2,29.5,13.8,29.6"/>
		<path class="st24" d="M135.1,180.6c0,0-0.1,0.1-0.1,0.1c-4.2,3-8.9,5.8-14.3,7.8c-0.4,0.1-0.7,0.3-1.1,0.4
			c-1.2,0.4-2.4,0.8-3.7,1.1c0,0-0.1,0-0.1,0c-0.8,0.2-1.5,0.3-2.3,0.5"/>
		<path class="st24" d="M142.5,174.4C142.5,174.4,142.5,174.5,142.5,174.4c-1.4,1.3-2.9,2.7-4.5,4c0,0,0,0,0,0
			c-0.9,0.8-1.9,1.5-2.9,2.2"/>
		<path class="st24" d="M151.6,165.1c-1.4,1.5-3.5,3.8-6.1,6.5c0,0,0,0,0,0c-0.9,0.9-1.8,1.8-2.8,2.8c0,0-0.1,0.1-0.1,0.1"/>
		<path class="st24" d="M114.8,186.1C114.8,186.1,114.8,186.1,114.8,186.1C114.8,186.1,114.8,186.1,114.8,186.1
			c5.4-1.5,14.8-4.5,22.1-11.8c0,0,0,0,0.1-0.1c2.6-2.5,4.8-5.5,6.6-9.2"/>
		<polyline class="st24" points="132.8,164.9 132.8,164.9 134.1,167.9 135.6,171.3 136.9,174.3 136.9,174.4 		"/>
		<path class="st24" d="M134.1,167.9c-5,3.5-9.6,5.8-17,8.5"/>
		<path class="st24" d="M116.2,180.5c7.3-0.9,17.9-7.7,19.3-9.2"/>
		<path class="st24" d="M150.9,171.3c0.6,6.6,1.1,18.1,2,19.3"/>
		<path class="st24" d="M154.7,144.8l4.7-1.2c0,0,10,10.8,18.9,9.8c0,0.1,0.1,0.3,0.1,0.4s0.1,0.3,0.1,0.5c3.2,11.6,7.3,24,31.2,24
			c0.1,0,0.1,0,0.2,0"/>
		<path class="st24" d="M180,144.8c6.4,10.6,4.1,25.2,55.3,20"/>
		<path class="st24" d="M180.9,139.7c0.1,1.1,3,28.5,53.6,20.4"/>
		<path class="st24" d="M181.1,138.6c4.7,4.4,8.1,8.9,13.4,12.3c0.8,0.5,1.5,0.9,2.4,1.4c6.9,3.6,17,5.3,35.3,3.3"/>
		<line class="st24" x1="187.5" y1="119.8" x2="197" y2="119.3"/>
		<line class="st24" x1="203.8" y1="122.3" x2="197" y2="133.4"/>
		<line class="st24" x1="202.9" y1="133.6" x2="209.7" y2="125.6"/>
		<line class="st24" x1="212.3" y1="126.5" x2="205" y2="136.3"/>
		<path class="st24" d="M163.2,105.6c-3.3,1.1-7.9-0.2-8.6,11.3c-0.2,4.3-0.5,8.5-0.8,12.1c-0.1,1.6-0.2,3.1-0.3,4.4
			c-0.1,1.1-0.2,2.1-0.2,3c-0.2,1.5-0.2,2.6-0.3,3.1c0,0.2,0,0.3,0,0.3s0,0,0.1,0c0.5,0.2,2.7,0.9,6.6,1.3
			c4.8,0.4,12.1,0.3,21.5-2.5c-0.1,0.4-0.1,0.7-0.2,1.1c0,0,0,0.1,0,0.1c-0.4,2-0.7,3.7-0.9,5.1c0,0,0,0,0,0.1
			c-0.9,5.3-0.9,5.7-0.9,5.7s-0.1,1.2,0.3,3c0,0.1,0.1,0.2,0.1,0.3c1.9,6.4,11.1,19.3,56,15.8"/>
		<path class="st24" d="M153.9,129c5.8-0.1,18-1.7,20.1-2.2"/>
		<path class="st24" d="M153.5,133.4c4-0.3,17.2-1.9,22.1-3.8"/>
		<path class="st24" d="M153.5,136.3c7.3,0,19.5-1.9,23.9-3.8"/>
		<polyline class="st24" points="169,118.7 174,126.8 175.6,129.5 177.4,132.5 181.1,138.6 		"/>
		<path class="st24" d="M127.9,112c3.1,5.4,7.9,14.1,12,14.9"/>
		<path class="st24" d="M128,119.9c0.5,0.7,1.1,1.5,1.6,2.2c0.1,0.1,0.2,0.2,0.3,0.3c1.1,1.3,2.2,2.6,3.3,3.8c1.6,1.7,3,3,3.6,3.4"
			/>
		<path class="st24" d="M119,123.9c2.6,2.8,6.3,7.4,13.4,7.6"/>
		<rect x="129.1" y="127.3" class="st24" width="2.8" height="2.1"/>
		<rect x="121.9" y="130.4" class="st24" width="2.8" height="2.1"/>
		<rect x="126.4" y="123.2" class="st24" width="2.8" height="2.1"/>
		<rect x="147.9" y="140.1" class="st24" width="2.8" height="2.1"/>
		<rect x="145.5" y="144.4" class="st24" width="2.8" height="2.1"/>
		<rect x="150.6" y="146.5" class="st24" width="2.8" height="2.1"/>
		<polygon class="st24" points="143.2,140.8 140.4,140.8 140.4,138.8 141.1,138.8 143.2,138.8 		"/>
		<polygon class="st24" points="138.3,134.6 141.1,134.6 141.1,136.7 140.4,136.7 138.3,136.7 		"/>
		<rect x="135.8" y="139.8" class="st24" width="2.8" height="2.1"/>
		<rect x="130.6" y="146.5" class="st24" width="2.8" height="2.1"/>
		<rect x="133.2" y="151" class="st24" width="2.8" height="2.1"/>
		<rect x="127.3" y="153.3" class="st24" width="2.8" height="2.1"/>
		<polygon class="st24" points="122.9,192.7 120.2,192.7 120.2,190.6 120.6,190.6 122.9,190.6 		"/>
		<rect x="179.7" y="118.5" class="st24" width="2.8" height="2.1"/>
		<path class="st24" d="M145.5,171.5C145.5,171.5,145.5,171.6,145.5,171.5c-1.8,6.7-4.2,17.9-7.1,23.5"/>
		<path class="st24" d="M127.6,204.4c6-9.5,11.1-19.4,14.9-29.9c0,0,0-0.1,0-0.1"/>
		<path class="st24" d="M120.6,205.5c0.1-0.1,0.2-0.3,0.4-0.5c8.1-11.1,15.2-18,17.1-26.5"/>
		<path class="st24" d="M114.4,204.8c0.1-0.1,0.1-0.2,0.2-0.3c0,0,0,0,0.1-0.1c1.2-1.4,2.4-2.8,3.7-4.3c0,0,0,0,0,0
			c2.1-2.4,4.3-4.8,6.3-7.1c4.2-4.8,8-9.2,10.3-12.4c0,0,0-0.1,0.1-0.1"/>
		<path class="st24" d="M181.6,104.8c1.1,1.8,6.1,7.3,7,9.6"/>
		<path class="st24" d="M118.9,140.1c5.4,0,13.1-1.6,15.9-3.1"/>
		<path class="st22" d="M0.5,152c0.7,0.5,1.4,0.8,1.9,0.4c0.3-0.2,0.4-0.4,0.6-0.6c0-0.1,0.1-0.1,0.1-0.2c0.5-1.3-0.9-3.4-2.6-5.9
			V152z"/>
		<path class="st22" d="M0.5,159.7L0.5,159.7c0.4-0.2,0.6-0.4,0.9-0.7c0.9-0.9,1.5-1.8,1.5-2.5c0-0.1,0-0.1,0-0.2
			c0-0.1-0.1-0.3-0.2-0.4c-0.3-0.3-1.2-0.2-2.1,0.4c0,0-0.1,0-0.1,0.1V159.7z"/>
		<polyline class="st24" points="1.9,112.8 7.5,110.1 14.1,107 		"/>
		<polyline class="st24" points="2.9,115.9 9,113.4 15.1,111 		"/>
		<polyline class="st24" points="3.3,100.6 7.5,110.1 9,113.4 12.7,121.9 		"/>
		<polyline class="st24" points="1.9,63.5 3.5,65.9 16,85.3 		"/>
		<polyline class="st24" points="1.3,67.7 3.5,65.9 16,55.8 		"/>
		<path class="st24" d="M53.7,24c0,1.7-0.5,3.1-1.1,3.1c-0.6,0-1.1-1.4-1.1-3.1c0-1.7,0.5-3.1,1.1-3.1C53.2,20.9,53.7,22.3,53.7,24z
			"/>
		<ellipse class="st24" cx="51.7" cy="38.7" rx="1.1" ry="3.1"/>
		<path class="st24" d="M96.5,46.8c0,1.7-0.5,3.1-1.1,3.1c-0.6,0-1.1-1.4-1.1-3.1c0-1.7,0.5-3.1,1.1-3.1
			C96,43.7,96.5,45.1,96.5,46.8z"/>
		<path class="st24" d="M102.5,78.8c0,1.7-0.5,3.1-1.1,3.1c-0.6,0-1.1-1.4-1.1-3.1c0-1.7,0.5-3.1,1.1-3.1
			C102,75.7,102.5,77.1,102.5,78.8z"/>
		<path class="st24" d="M84.8,62.5c0,1.7-0.5,3.1-1.1,3.1c-0.6,0-1.1-1.4-1.1-3.1c0-1.7,0.5-3.1,1.1-3.1
			C84.4,59.5,84.8,60.9,84.8,62.5z"/>
		<path class="st24" d="M84.8,77.4c0,1.7-0.5,3.1-1.1,3.1s-1.1-1.4-1.1-3.1c0-1.7,0.5-3.1,1.1-3.1S84.8,75.7,84.8,77.4z"/>
		<path class="st24" d="M98.3,24.3c0,1.7-0.5,3.1-1.1,3.1c-0.6,0-1.1-1.3-1.1-3.1c0-1.7,0.5-3.1,1.1-3.1
			C97.8,21.2,98.3,22.6,98.3,24.3z"/>
		<ellipse class="st24" cx="12.7" cy="36.9" rx="0.9" ry="2.3"/>
		<path class="st24" d="M49.2,60.5c0,1.7-0.5,3.1-1.1,3.1c-0.6,0-1.2-1.4-1.2-3.1c0-1.7,0.5-3.1,1.1-3.1
			C48.6,57.5,49.2,58.9,49.2,60.5z"/>
		<path class="st24" d="M48.1,82.4c0,1.7-0.5,3.1-1.1,3.1c-0.6,0-1.2-1.4-1.2-3.1c0-1.7,0.5-3.1,1.1-3.1
			C47.5,79.4,48.1,80.7,48.1,82.4z"/>
		<ellipse class="st24" cx="2.9" cy="72.7" rx="1.1" ry="3.1"/>
		<path class="st24" d="M5.4,57.1c0,1.7-0.5,3.1-1.1,3.1s-1.1-1.4-1.1-3.1c0-1.7,0.5-3.1,1.1-3.1S5.4,55.4,5.4,57.1z"/>
		<path class="st24" d="M10.2,69.2c-1.7,0-3.1-0.5-3.1-1.1c0-0.6,1.4-1.1,3.1-1.1c1.7,0,3.1,0.5,3.1,1.1
			C13.3,68.7,11.9,69.2,10.2,69.2z"/>
		<path class="st24" d="M41,70c0.1,0.1,0.1,0.2,0.1,0.4c0,0.6-1.3,1.1-3.1,1.1c-1.7,0-3.1-0.5-3.1-1.1c0-0.6,1.4-1.1,3.1-1.1
			C39.4,69.1,40.6,69.5,41,70z"/>
		<ellipse class="st24" cx="58.9" cy="72.7" rx="3.1" ry="1.1"/>
		<path class="st24" d="M92,72.7c-1.7,0-3.1-0.5-3.1-1.1c0-0.6,1.4-1.1,3.1-1.1c1.7,0,3.1,0.5,3.1,1.1C95,72.2,93.6,72.7,92,72.7z"
			/>
		<path class="st24" d="M59.9,31.5c-1.7,0-3.1-0.5-3.1-1.1c0-0.6,1.3-1.1,3.1-1.1c1.7,0,3.1,0.5,3.1,1.1C63,31,61.5,31.5,59.9,31.5z
			"/>
		<path class="st24" d="M86.6,34.8c-1.7,0-3.1-0.5-3.1-1.1c0-0.6,1.3-1.1,3.1-1.1s3.1,0.5,3.1,1.1C89.7,34.3,88.3,34.8,86.6,34.8z"
			/>
		<path class="st24" d="M45.2,31.2c-1.7,0-3.1-0.5-3.1-1.1c0-0.6,1.4-1.1,3.1-1.1c1.7,0,3.1,0.5,3.1,1.1
			C48.3,30.7,46.9,31.2,45.2,31.2z"/>
		<path class="st24" d="M7.2,25c0.1,0.1,0.1,0.2,0.1,0.3c0,0.6-1.4,1.1-3.1,1.1c-1.7,0-3.1-0.5-3.1-1.1c0-0.6,1.3-1.1,3.1-1.1
			C5.6,24.2,6.8,24.5,7.2,25z"/>
		<polyline class="st24" points="4.3,19.1 8.5,23.9 8.5,23.9 10,25.7 12.8,28.9 19.1,36.1 		"/>
		<polyline class="st24" points="10.2,19.1 13,22.7 15.7,26.2 17.6,28.4 		"/>
		<polyline class="st24" points="4,31.6 10,25.7 13,22.7 16.5,19.1 		"/>
		<path class="st24" d="M2.8,38.6c0.2-0.3,5.6-5.6,10-9.7c1.1-1,2.1-2,2.9-2.8c1.5-1.4,2.5-2.3,2.5-2.3"/>
		<polyline class="st24" points="81.4,21.2 92.2,34.9 95,38.4 106.3,52.7 		"/>
		<polyline class="st24" points="84.8,19.1 95.2,32.5 98,36.1 108.7,49.8 		"/>
		<polyline class="st24" points="81.9,43 92.2,34.9 95.2,32.5 98.3,30.1 109.8,20.9 		"/>
		<polyline class="st24" points="105.5,30.2 105.5,30.1 112.9,24.3 		"/>
		<polyline class="st24" points="81.9,48.9 95,38.4 98,36.1 105.5,30.2 		"/>
		<polyline class="st24" points="80.7,71.9 83.2,70.3 103.1,58.1 103.2,58.1 106,56.4 112,52.7 		"/>
		<polyline class="st24" points="81.9,68.7 83.2,70.3 95.6,85.5 98.3,88.9 		"/>
		<polyline class="st24" points="102.5,90 105.6,87.5 105.7,87.4 107.2,86.1 112.9,81.4 		"/>
		<polyline class="st24" points="113.6,17.3 113.7,24.2 113.7,24.3 113.8,33.7 114.1,52.7 114.2,61.9 114.2,62 114.3,64.2 
			114.3,64.2 114.6,81.4 114.7,90 114.7,91.7 114.7,94.5 		"/>
		<path class="st24" d="M113.5,33.7c-2.2-1.9-5.2-3-8-3.5c0,0,0,0-0.1,0c-0.9-0.2-1.8-0.2-2.6-0.2c-1.7,0-3.1,0.3-4,1"/>
		<path class="st24" d="M113.7,36.3c-4.4-3.8-9.2-1.9-11.6,0"/>
		<polyline class="st24" points="118.5,33.7 118.6,33.6 129.1,28.8 		"/>
		<path class="st24" d="M118.5,35.2C118.5,35.2,118.5,35.2,118.5,35.2c1.1-0.5,11.4-5.2,13.6-5.2"/>
		<line class="st24" x1="118.9" y1="61.1" x2="129.6" y2="57.5"/>
		<path class="st24" d="M119,58.4c0.6-0.3,7-2.3,8.7-2.5"/>
		<line class="st24" x1="119" y1="90.8" x2="129.1" y2="85.7"/>
		<path class="st24" d="M119,88.1c0.6-0.3,11.6-4.8,13.3-5"/>
		<path class="st24" d="M114.3,62C114.3,62,114.3,61.9,114.3,62c-0.7-0.5-4.8-3.4-8.3-5.6c-1.9-1.2-3.8-2.1-4.7-2.4"/>
		<path class="st24" d="M114.2,64.2c-1.6-0.9-7-3.9-11.1-6.1c0,0,0,0,0,0c-2.6-1.3-4.6-2.3-5.1-2.3"/>
		<path class="st24" d="M114.7,90c-0.4-0.1-3.8-1.9-7.5-3.8c-3.6-1.9-7.3-3.8-8.3-4.7"/>
		<path class="st24" d="M114.3,91.7c0,0-4.3-2.2-8.6-4.3l0,0c-3.3-1.6-6.6-3-8.2-3.4"/>
		<line class="st24" x1="113.5" y1="94.5" x2="114.2" y2="140.1"/>
		<polyline class="st24" points="114.7,94.5 115.4,115 115.6,117.8 115.6,117.9 116.2,137.1 		"/>
		<path class="st24" d="M113.5,116.6c-2.8-3.8-8.9-9.2-11.9-9.9"/>
		<path class="st24" d="M113.5,120.7c-3.7-4.6-7.4-9.4-11.9-11.7"/>
		<line class="st24" x1="115.4" y1="115" x2="118.9" y2="114.3"/>
		<path class="st24" d="M115.4,117.9C115.4,117.9,115.4,117.9,115.4,117.9c0.1-0.1,0.1-0.1,0.1-0.1c0.6-0.5,2.6-2.1,3.3-1
			c0,0,0,0,0,0"/>
		<path class="st24" d="M108.9,204.4l0-0.2l0.7-15.7l0.8-18.9l0.1-2.1v-0.1l1-22.6l0.1-2.3c-1.4-1.3-2.8-2.3-4.1-3.1
			c-0.1-0.1-0.2-0.1-0.3-0.2c-0.1-0.1-0.1-0.1-0.2-0.1c-2.9-1.8-5.1-2.5-5.9-2.5"/>
		<path class="st24" d="M111.2,197.8l0-0.2l1-19.2v0l0.4-8.1v-0.1l0.2-3.3v-0.1l1.2-23.4c0,0,0,0,0.1-0.1c0.5-0.4,3.5-2.6,4.3-2.6"
			/>
		<path class="st24" d="M111.5,144.8C111.5,144.8,111.4,144.8,111.5,144.8c-0.3-0.2-3-1.8-3.8-2.3"/>
		<path class="st24" d="M110.5,167.5C110.5,167.5,110.5,167.5,110.5,167.5c-0.9-0.8-9-8.1-10.6-8.1"/>
		<path class="st24" d="M110.4,169.7c-3.2-1.2-15.3-8.1-16-10.3"/>
		<path class="st24" d="M112.9,166.9c1.1-0.4,3.1-1.4,5.3-2.3c2.1-0.9,4.3-1.7,5.7-1.9"/>
		<path class="st24" d="M112.9,170.3c2-0.9,3.7-1.9,5.2-2.7h0c2.3-1.3,4.1-2.3,5.3-2.5"/>
		<path class="st24" d="M112.9,178.4c0,0,0.8,3.1,1.9,7.5c0,0,0,0.1,0,0.1v0.1v0c0.3,1.2,0.6,2.5,1,3.9c0,0,0,0,0,0.1
			c0.8,3.2,1.7,6.7,2.6,10.1c0,0,0,0,0,0.1c0.4,1.5,0.8,3.1,1.3,4.6c0,0,0,0,0,0.1c1.9,6.6,3.5,12.1,4.2,12.8"/>
		<path class="st24" d="M112,188.8c0,0,0.3,1.7,0.7,4.3c0,0,0,0.1,0,0.1c0.5,3,1.2,7.2,2,11.3c0,0,0,0,0,0.1l0.1,0.3
			c1.1,6.1,2.4,11.9,3.1,12.8"/>
		<line class="st24" x1="115.4" y1="17.3" x2="116.2" y2="94.3"/>
		<path class="st24" d="M112.9,141.5c0.5-0.1,1.1-0.5,1.6-0.9c1.6-1.1,3.2-2.8,4.4-1.8"/>
		<path class="st24" d="M154,164.8c0,0,0.7-1,1.4-2.4c0,0,0,0,0-0.1c0.6-1.2,1.2-2.6,1.2-3.6c0,0,0-0.1,0-0.1"/>
		<path class="st24" d="M164.7,89.2c0,2-0.4,6.4-0.4,6.4s-1.1,0.1-2.4,0"/>
		<line class="st24" x1="161.1" y1="84.1" x2="163.4" y2="86.1"/>
		<line class="st24" x1="167.4" y1="87.7" x2="170.6" y2="88"/>
		<path class="st24" d="M161.1,84.1c0.3,0.8,1.3,1.4,2.3,2"/>
		<path class="st24" d="M167.4,87.7c1.3,0.3,2.6,0.6,3.2,0.2"/>
		<line class="st23" x1="268.4" y1="160.9" x2="268.4" y2="227"/>
		<rect x="161.6" y="109.5" class="st24" width="3.8" height="2.5"/>
		<rect x="157.9" y="115.9" class="st24" width="2.8" height="2.1"/>
		<rect x="175.5" y="112.6" class="st24" width="2.8" height="2.1"/>
		<rect x="165.4" y="115.9" class="st24" width="2.8" height="2.1"/>
		<rect x="185.3" y="127.5" class="st24" width="2.8" height="2.1"/>
		<rect x="181.6" y="132.4" class="st24" width="2.8" height="2.1"/>
		<rect x="192.8" y="141.5" class="st24" width="2.8" height="2.1"/>
		<polygon class="st24" points="199.5,147.8 199.5,149.9 196.9,149.9 196.7,149.9 196.7,147.8 		"/>
		<rect x="207.7" y="144.9" class="st24" width="2.8" height="2.1"/>
		<rect x="216.3" y="149.9" class="st24" width="3.7" height="2.8"/>
		<rect x="204.3" y="149.9" class="st24" width="2.8" height="2.1"/>
		<polyline class="st24" points="137.2,104 143.7,112.6 149.7,102.7 		"/>
	</g>
</g>
</svg>
