<svg id="_レイヤー_1" data-name="レイヤー 1" xmlns="http://www.w3.org/2000/svg" viewBox="0 0 270.27 213.01"><defs><style>.cls-2,.cls-3,.cls-4,.cls-5,.cls-6{stroke-width:0}.cls-2{fill:#85718a}.cls-3{fill:#c1272d}.cls-10,.cls-9{stroke-miterlimit:10}.cls-10,.cls-11,.cls-9{fill:none;stroke:#000}.cls-10,.cls-11{stroke-linecap:round}.cls-4{fill:#dee7d6}.cls-5{fill:#f3edd7}.cls-11{stroke-linejoin:round}.cls-6{fill:#333}</style></defs><path class="cls-5" d="M.24 178.38h3.62v5.03H.24zM270.03 205.95v6.56h-30.44l15.35-8.63c1.03 1.61 3.11 2.72 5.51 2.72s4.62-1.18 5.62-2.88l3.97 2.23ZM270.03 195.39v10.55l-3.97-2.23c.38-.65.59-1.38.59-2.14 0-1.3-.62-2.48-1.61-3.38l4.99-2.8Z"/><path class="cls-5" d="M270.03 183.41v11.99l-4.99 2.8c-1.14-1.01-2.77-1.64-4.59-1.64s-3.31.58-4.44 1.51l-26.08-14.66h40.1ZM270.03 117.06v5.76H.24v-5.76h269.79zM266.03 178.38h3.99v5.03h-3.99z"/><path class="cls-5" d="M266.65 201.57c0 .76-.21 1.49-.59 2.14l-5.42-3.05 4.39-2.47c1 .89 1.61 2.07 1.61 3.38ZM260.64 200.67l5.42 3.05c-1 1.7-3.13 2.88-5.62 2.88s-4.48-1.1-5.51-2.72l5.71-3.21Z"/><path class="cls-6" d="M254.73 178.38h11.3v5.03h-11.3z"/><path class="cls-5" d="m265.04 198.2-4.39 2.47-4.64-2.6c1.13-.93 2.7-1.51 4.44-1.51 1.82 0 3.45.63 4.59 1.64Z"/><path class="cls-5" d="m260.64 200.67-5.71 3.21c-.44-.69-.69-1.48-.69-2.31 0-1.37.68-2.6 1.77-3.51l4.64 2.6Z"/><path class="cls-5" d="m229.93 183.41 26.08 14.66c-1.09.9-1.77 2.14-1.77 3.51 0 .83.25 1.62.69 2.31l-15.35 8.63h-41.46l-15.64-8.79c.38-.65.59-1.38.59-2.14 0-1.3-.62-2.48-1.61-3.37l26.33-14.8h22.14Zm-5.96 18.17c0-2.77-2.25-5.02-5.02-5.02s-5.03 2.25-5.03 5.02 2.25 5.03 5.03 5.03 5.02-2.25 5.02-5.03ZM254.73 183.41h-30.51v-5.03h30.51v5.03z"/><path class="cls-6" d="M212.92 178.38h11.3v5.03h-11.3zM218.95 196.56c2.77 0 5.02 2.25 5.02 5.02s-2.25 5.03-5.02 5.03-5.03-2.25-5.03-5.03 2.25-5.02 5.03-5.02Z"/><path class="cls-5" d="m207.78 183.41-26.33 14.8c-1.14-1.02-2.77-1.65-4.59-1.65s-3.31.58-4.44 1.51l-26.08-14.66h61.44ZM182.41 183.41v-5.03h30.51v5.03h-30.51zM198.12 212.51H156l15.35-8.63c1.03 1.61 3.12 2.72 5.51 2.72s4.62-1.18 5.62-2.88l15.64 8.79Z"/><path class="cls-5" d="M183.07 201.57c0 .76-.21 1.49-.59 2.14l-5.42-3.05 4.39-2.47c1 .89 1.61 2.07 1.61 3.37ZM177.06 200.67l5.42 3.05c-1 1.7-3.13 2.88-5.62 2.88s-4.48-1.1-5.51-2.72l5.71-3.21Z"/><path class="cls-6" d="M171.11 178.38h11.3v5.03h-11.3z"/><path class="cls-5" d="M176.87 196.56c1.82 0 3.45.63 4.59 1.65l-4.39 2.47-4.64-2.6c1.13-.93 2.7-1.51 4.44-1.51Z"/><path class="cls-5" d="m177.06 200.67-5.71 3.21c-.44-.69-.69-1.48-.69-2.31 0-1.37.68-2.6 1.77-3.51l4.64 2.6Z"/><path class="cls-5" d="m146.35 183.41 26.08 14.66c-1.09.9-1.77 2.14-1.77 3.51 0 .83.25 1.62.69 2.31L156 212.52h-41.46l-15.64-8.79c.38-.65.59-1.38.59-2.14 0-1.3-.62-2.48-1.61-3.37l26.33-14.8h22.14Zm-7.01 18.17c0-2.77-2.25-5.02-5.02-5.02s-5.03 2.25-5.03 5.02 2.25 5.03 5.03 5.03 5.02-2.25 5.02-5.03ZM171.11 183.41H140.6v-5.03h30.51v5.03z"/><path class="cls-6" d="M129.3 178.38h11.3v5.03h-11.3zM134.32 196.56c2.77 0 5.02 2.25 5.02 5.02s-2.25 5.03-5.02 5.03-5.03-2.25-5.03-5.03 2.25-5.02 5.03-5.02Z"/><path class="cls-5" d="m124.2 183.41-26.33 14.8c-1.14-1.02-2.77-1.65-4.59-1.65s-3.31.58-4.44 1.51l-26.08-14.66h61.44ZM129.3 183.41H98.79v-5.03h30.51v5.03zM114.54 212.51H72.42l15.35-8.63c1.03 1.61 3.11 2.72 5.51 2.72s4.62-1.18 5.62-2.88l15.64 8.79Z"/><path class="cls-5" d="M99.49 201.57c0 .76-.21 1.49-.59 2.14l-5.42-3.05 4.39-2.47c1 .89 1.61 2.07 1.61 3.37ZM93.49 200.67l5.42 3.05c-1 1.7-3.13 2.88-5.62 2.88s-4.48-1.1-5.51-2.72l5.71-3.21Z"/><path class="cls-6" d="M87.49 178.38h11.3v5.03h-11.3z"/><path class="cls-5" d="M93.29 196.56c1.82 0 3.45.63 4.59 1.65l-4.39 2.47-4.64-2.6c1.13-.93 2.7-1.51 4.44-1.51Z"/><path class="cls-5" d="m93.49 200.67-5.71 3.21c-.44-.69-.69-1.48-.69-2.31 0-1.37.68-2.6 1.77-3.51l4.64 2.6Z"/><path class="cls-5" d="m62.77 183.41 26.08 14.66c-1.09.9-1.77 2.14-1.77 3.51 0 .83.25 1.62.69 2.31l-15.35 8.63H30.77l-15.64-8.79c.38-.65.59-1.38.59-2.14 0-1.3-.62-2.48-1.61-3.37l26.33-14.8h22.33Zm-8.52 18.17c0-2.77-2.25-5.02-5.02-5.02s-5.03 2.25-5.03 5.02 2.25 5.03 5.03 5.03 5.02-2.25 5.02-5.03ZM87.49 183.41H56.98v-5.03h30.51v5.03z"/><path class="cls-6" d="M45.68 178.38h11.3v5.03h-11.3zM49.23 196.56c2.77 0 5.02 2.25 5.02 5.02s-2.25 5.03-5.02 5.03-5.03-2.25-5.03-5.03 2.25-5.02 5.03-5.02Z"/><path class="cls-5" d="M45.68 183.41H15.17v-5.03h30.51v5.03zM30.77 212.51H.24v-6.52L4 203.88c1.03 1.61 3.12 2.72 5.51 2.72s4.62-1.18 5.62-2.88l15.64 8.79ZM15.72 201.57c0 .76-.21 1.49-.59 2.14l-5.42-3.05 4.39-2.47c1 .89 1.61 2.07 1.61 3.37Z"/><path class="cls-6" d="M3.86 178.38h11.3v5.03H3.86z"/><path class="cls-5" d="m9.71 200.67 5.42 3.05c-1 1.7-3.13 2.88-5.62 2.88s-4.48-1.1-5.51-2.72l5.71-3.21Z"/><path class="cls-5" d="M9.52 196.56c1.82 0 3.45.63 4.59 1.65l-4.39 2.47-4.64-2.6c1.13-.93 2.7-1.51 4.44-1.51Z"/><path class="cls-5" d="M9.71 200.67 4 203.88c-.44-.69-.69-1.48-.69-2.31 0-1.37.68-2.6 1.77-3.51l4.64 2.6Z"/><path class="cls-5" d="m.24 195.35 4.83 2.72c-1.09.9-1.77 2.14-1.77 3.51 0 .83.25 1.62.69 2.31L.23 206v-10.64Z"/><path style="fill:#d2d296;stroke-width:0" d="M212.92 178.38H.24v-55.56H270.03v55.56h-57.11z"/><path class="cls-5" d="M.24 183.41h40.19l-26.33 14.8c-1.14-1.02-2.77-1.65-4.59-1.65s-3.31.58-4.44 1.51l-4.83-2.72v-11.94Z"/><path class="cls-9" d="M270.03 212.51H.24M.24 117.06h269.79M.24 122.82h269.79M266.03 178.38h4M224.22 178.38h30.51M182.41 178.38h30.51M140.6 178.38h30.51M98.79 178.38h30.51M56.98 178.38h30.51M15.17 178.38h30.51M.24 178.38h3.62M266.03 183.41h4M224.22 183.41h30.51M182.41 183.41h30.51M140.6 183.41h30.51M98.79 183.41H129.3M56.98 183.41H87.49M15.17 183.41h30.51M.24 183.41h3.62M72.43 212.51l15.34-8.63 5.72-3.21 4.39-2.46 26.32-14.8"/><path class="cls-9" d="m114.54 212.51-15.64-8.79-5.41-3.05-4.64-2.6-26.08-14.66M139.33 201.57c0 2.78-2.25 5.03-5.02 5.03s-5.03-2.25-5.03-5.03 2.25-5.02 5.03-5.02 5.02 2.25 5.02 5.02ZM223.96 201.57c0 2.78-2.25 5.03-5.02 5.03s-5.03-2.25-5.03-5.03 2.25-5.02 5.03-5.02 5.02 2.25 5.02 5.02Z"/><path class="cls-9" d="M97.88 198.21c1 .89 1.61 2.07 1.61 3.37 0 .76-.21 1.49-.59 2.14-1 1.7-3.13 2.88-5.62 2.88s-4.48-1.1-5.51-2.72c-.44-.69-.69-1.48-.69-2.31 0-1.37.68-2.6 1.77-3.51 1.13-.93 2.7-1.51 4.44-1.51 1.82 0 3.45.63 4.59 1.65ZM.24 205.99 4 203.88l5.71-3.21 4.4-2.46 26.32-14.8"/><path class="cls-9" d="m30.77 212.51-15.64-8.79-5.42-3.05-4.63-2.6-4.84-2.72"/><path class="cls-9" d="M14.11 198.21c1 .89 1.61 2.07 1.61 3.37 0 .76-.21 1.49-.59 2.14-1 1.7-3.13 2.88-5.62 2.88s-4.48-1.1-5.51-2.72c-.44-.69-.69-1.48-.69-2.31 0-1.37.68-2.6 1.77-3.51 1.13-.93 2.7-1.51 4.44-1.51 1.82 0 3.45.63 4.59 1.65ZM156.01 212.51l15.34-8.63 5.71-3.21 4.4-2.46 26.32-14.8"/><path class="cls-9" d="m198.12 212.51-15.64-8.79-5.42-3.05-4.63-2.6-26.08-14.66"/><path class="cls-9" d="M181.46 198.21c1 .89 1.61 2.07 1.61 3.37 0 .76-.21 1.49-.59 2.14-1 1.7-3.13 2.88-5.62 2.88s-4.48-1.1-5.51-2.72c-.44-.69-.69-1.48-.69-2.31 0-1.37.68-2.6 1.77-3.51 1.13-.93 2.7-1.51 4.44-1.51 1.82 0 3.45.63 4.59 1.65ZM239.59 212.51l15.34-8.63 5.71-3.21 4.4-2.47 4.99-2.81"/><path class="cls-9" d="m270.03 205.95-3.97-2.23-5.42-3.05-4.63-2.6-26.08-14.66"/><path class="cls-9" d="M265.04 198.2c1 .89 1.61 2.07 1.61 3.38 0 .76-.21 1.49-.59 2.14-1 1.7-3.13 2.88-5.62 2.88s-4.48-1.1-5.51-2.72c-.44-.69-.69-1.48-.69-2.31 0-1.37.68-2.6 1.77-3.51 1.13-.93 2.7-1.51 4.44-1.51 1.82 0 3.45.63 4.59 1.64ZM54.24 201.57c0 2.78-2.25 5.03-5.02 5.03s-5.03-2.25-5.03-5.03 2.25-5.02 5.03-5.02 5.02 2.25 5.02 5.02ZM3.86 178.38h11.3v5.03H3.86zM45.68 178.38h11.3v5.03h-11.3zM87.49 178.38h11.3v5.03h-11.3zM129.3 178.38h11.3v5.03h-11.3zM171.11 178.38h11.3v5.03h-11.3zM212.92 178.38h11.3v5.03h-11.3zM254.73 178.38h11.3v5.03h-11.3z"/><path class="cls-4" d="M232.45 114.88c5.43 1.11 10.64 2.54 10.64 2.54-6.54.89-13.64 9.09-16.96 12.69a7.47 7.47 0 0 1-1.87 1.49c-2.99 1.68-6.22.69-6.76-.3-.67-1.18-1.55-9.01-2-12.33s-3.55-1.77-4.88-1.55c-2.92.82-7.82.89-13.03.62l.03-.62s.19-8.49.11-15.07h.02c6.55 3.99 15.75 7.32 19.75 7.98 3.98.67 9.52 3.44 14.96 4.55Z"/><path class="cls-3" d="M243.09 117.42c-1 6.87-4.44 14.85-10.09 14.96h-4.99l-3.76-.78a7.47 7.47 0 0 0 1.87-1.49c3.32-3.6 10.42-11.8 16.96-12.69Z"/><path class="cls-2" d="m224.26 131.61 3.76.78c-1.66 9.19-3.77 15.18-13.96 20.16-10.2 4.99-27.04 4.99-29.48 4.65.02-4.55-4.77-17.16-4.77-17.16 5.36-.58 13.68-2.6 18.48-9.26.65-.36 1.28-.82 1.89-1.41 0 0 11.1 3.19 17.31 1.94.54.98 3.78 1.97 6.76.3Z"/><path class="cls-3" d="M215.5 118.98c.44 3.32 1.33 11.15 2 12.33-6.21 1.26-17.31-1.94-17.31-1.94.47-.44.92-.95 1.35-1.54 2.44-3.32 7.76-10.19 9.09-10.42 1.33-.22 4.44-1.77 4.88 1.55Z"/><path class="cls-4" d="M186 124.37c-.66 0-6.2 8.09-11.28 15.88 0 0 2.07.12 5.09-.21 0 0 4.78 12.61 4.77 17.16.33 5.43-.67 8.53-.67 8.53s-14.96-.99-16.84-2.33l-7.2-2.1-15.86-5.42c-4.6 3.18-9.33 6.32-13.28 8.96-3.78 1.8-8.66 3.44-13.32 4.44 9.14-4.18 5.16-13.86-.02-19.21 0 0 1.78.56 4.92-.43l-.05-.16s.21-6.93.4-12.41c0 0 7.58 3.06 14.71-1.74 4.41 1.56 9.5.97 17.77.53s9.52-2.77 11.89-9.27c2.95-11.08-2.37-32.21-4.58-40.34s-13.41-23.83-13.41-23.83c.69-.35 1.35-.77 1.97-1.29 1.14-.96 2.21-2.08 3.19-3.32 2.57.23 6.7 2.73 9.81 5.69 3.1 2.95 12.92 15.95 19.72 20.54 6.8 4.57 13.59 7.68 13.89 13.89.06 1.24.1 2.78.11 4.43.08 6.58-.11 15.07-.11 15.07l-.03.62c5.21.27 10.11.21 13.03-.62-1.33.23-6.65 7.1-9.09 10.42-.43.58-.88 1.09-1.35 1.54-.61.58-1.24 1.04-1.89 1.4-1.72.95-3.5 1.12-4.96.54-2.44-.95-6.65-6.79-7.32-6.94h-.02Z"/><path class="cls-3" d="M198.29 130.77c-4.8 6.67-13.12 8.69-18.48 9.27-3.01.33-5.09.21-5.09.21 5.08-7.79 10.62-15.88 11.28-15.88h.02c.67.16 4.88 5.99 7.32 6.94 1.46.58 3.24.41 4.96-.54Z"/><path class="cls-4" d="M138.41 69.95c2.88-1.14 5.7-3.27 8.18-6.63.83-.21 1.66-.5 2.45-.9s11.2 15.71 13.41 23.84 7.53 29.25 4.58 40.34c-2.37 6.5-3.62 8.83-11.89 9.27s-13.36 1.03-17.77-.53c-7.13 4.8-14.71 1.74-14.71 1.74.09-2.46.16-4.63.22-5.76.17-3.69-1.35-6.79-5.49-8.27-4.14-1.48-17.88-.74-27.48 2.07l-2.2.5c-6.39-6.59-15.09-14.04-24.36-17.8l.56-1.32c1.72-.9 3.12-3.12 4.62-5.87 1.19-2.2 2.44-4.74 3.95-7.2 3.4-5.54 10.79-18.18 13.45-22.47 2.66-4.29 10.94-11.15 16.25-12.18 4.6-.89 8.76-1.46 12.43-3.7.57-.35 1.14-.74 1.68-1.18 1.77 3.18 6.28 14.26 12.12 16.26 3.15 1.08 6.62 1.12 10.01-.2Z"/><path class="cls-2" d="m159.87 161.31 7.2 2.1c-1.66 2.22-10.19 5.88-18.39 2.33 3.8.37 7.2-2.51 11.19-4.43Z"/><path d="M145.76 63.5s-3.05 1.22-9.26 1.44c-2.33-.82-7.58-3.31-10.49-7.24-4.42-6-2.91-8.91-2.79-9.12.54-.37.99-.55 1.11-.44.32.47 1.08.49 2.04.24 2.11-.55 5.13-2.43 6.12-3.65-1.66.77-2.33-2.88-2.33-4.65s.56-2.77 1.77-2.55c1.22.23 1.88 1.44 3.11 4.44 0 0 1.77-7.65 3.43-15.22 2.22-.26 11.64-1.4 15.96-3.28.92.22 5.36 12.04 5.42 18.84.06 5.29-2.21 11.14-5.67 15.51-.98 1.24-2.06 2.36-3.19 3.32-.62.52-1.28.95-1.97 1.28-.79.4-1.61.69-2.45.9-.28.07-.55.13-.82.18Z" style="fill:#ffeccc;stroke-width:0"/><path class="cls-2" d="m144.01 155.89 15.86 5.42c-3.98 1.92-7.39 4.8-11.19 4.43-7.32.45-14.85 1.55-17.95-.89 3.95-2.64 8.68-5.78 13.28-8.96Z"/><path class="cls-6" d="M148.12 12.93v1.77h-2.21v.67s5.87-.11 8.53 8.09c-4.32 1.88-13.74 3.02-15.96 3.28-1.66 7.58-3.43 15.22-3.43 15.22-1.22-2.99-1.88-4.21-3.11-4.44-1.22-.22-1.77.78-1.77 2.55s.67 5.42 2.33 4.65c-.99 1.22-4.01 3.1-6.12 3.65-.95.24-1.72.23-2.04-.24 0 0 2.36-2.52 2.36-4.58s.89-19.8 4.58-22.6c-1.78-.15-4.44-.34-4.44-.34V18.1s5.39-1.48 6.72-1.55c.7-1.55 0-2.33 0-2.33-.77-2.33-1.92-3.91-1.92-3.91-4.25 4.19-5.82 5.26-7.07 7.73-.08.16-.16.34-.24.51-.7 1.55-2.36 3.52-4.01 9.44-1.36 4.92-2.68 13.3-3.48 25.72l-.56.18c-.55.44-1.11.83-1.68 1.18.14-5.4 1.6-18.28 4.14-27.56 1.52-5.56 3.43-10.59 5.67-13.58 5.99-7.98 6.98-7.65 8.09-7.65s3.44 4.77 3.44 4.77q.77-4.77 1-5.98c.22-1.22 4.21-4.32 5.54-4.55 1.33-.22 2.18 1.11 1.54 4.66-.65 3.54-1.76 3.98-1.76 7.86 2 0 5.88-.11 5.88-.11Z"/><path class="cls-4" d="M136.5 64.95c6.21-.23 9.26-1.44 9.26-1.44.28-.05.55-.11.82-.18-2.47 3.36-5.29 5.49-8.18 6.63-3.39 1.32-6.86 1.28-10.01.2-5.84-2-10.35-13.08-12.12-16.26l.56-.18 4.12-1.36c.31 1.73 6.01 12.63 13.55 12.63.69 0 1.35 0 1.98-.03Z"/><path d="M136.5 64.95c-.62.03-1.28.03-1.98.03-7.54 0-13.24-10.9-13.55-12.63-.28-1.55 1.16-3.05 2.26-3.77-.12.21-1.63 3.12 2.79 9.12 2.91 3.93 8.16 6.41 10.49 7.24Z" style="stroke-width:0;fill:#f3f0d1"/><path class="cls-4" d="M117.4 123.04c4.13 1.48 5.66 4.58 5.49 8.27-.05 1.14-.13 3.31-.22 5.76-.19 5.49-.4 12.41-.4 12.41l.05.16c-3.14.98-4.92.43-4.92.43-.87-.9-1.78-1.68-2.66-2.29-6.13-4.21-15.36-7.31-16.69-9.75-.62-1.14-4.51-6.43-10.32-12.42l2.2-.5c9.6-2.81 23.34-3.55 27.48-2.07Z"/><path class="cls-2" d="M75.02 160.27c-6.26-.11-11.87-.76-16.81-2.05-5.27-1.37-9.78-3.47-13.53-6.44a29.517 29.517 0 0 1-4.7-4.65 28.82 28.82 0 0 1-4.18-7.08c-3.12-7.46-3.08-15.39-2.92-21.07.2-6.72 7.95-14.32 23.55-12.58 1.89.21 3.9.56 6.02 1.06.3.11.6.23.9.36 9.27 3.77 17.98 11.21 24.36 17.8 5.81 5.99 9.7 11.28 10.32 12.42 1.33 2.44 10.56 5.54 16.69 9.75.89.61 1.8 1.39 2.66 2.29 5.18 5.35 9.16 15.03.02 19.21h-.02c-3.93.84-7.7 1.23-10.49.88-2.64-.33-8.88-2.46-15.65-5.54-3.32.23-9.65-1.63-16.22-4.37Z"/><path class="cls-4" d="M68.52 100.63c-1.49 2.74-2.9 4.96-4.62 5.87l-.56 1.32-.9-.36c-2.13-.5-4.13-.85-6.02-1.06 2.92-5.64 12.09-5.77 12.09-5.77Z"/><path class="cls-3" d="M44.68 151.78c3.75 2.97 8.26 5.07 13.53 6.44-10.72 6.21-30.05.62-30.05.62 4.13-.28 16.52-7.06 16.52-7.06Z"/><path class="cls-4" d="M39.98 147.13c1.41 1.74 2.97 3.29 4.7 4.65 0 0-12.39 6.78-16.52 7.05-.77.05-1.26-.12-1.33-.61-.44-3.1 8.96-18.18 8.96-18.18a29.27 29.27 0 0 0 4.18 7.08Z"/><path class="cls-11" d="M114.6 55.08c.14-5.4 1.6-18.28 4.14-27.56 1.52-5.56 3.43-10.59 5.67-13.58 5.99-7.98 6.98-7.65 8.09-7.65s3.44 4.77 3.44 4.77q.77-4.77 1-5.98c.22-1.22 4.21-4.32 5.54-4.55 1.33-.22 2.18 1.11 1.54 4.66-.65 3.54-1.76 3.98-1.76 7.86 2 0 5.88-.11 5.88-.11v1.77h-2.21v.67s5.87-.11 8.53 8.09c-4.32 1.88-13.74 3.02-15.96 3.28-1.66 7.58-3.43 15.22-3.43 15.22-1.22-2.99-1.88-4.21-3.11-4.44-1.22-.22-1.77.78-1.77 2.55s.67 5.42 2.33 4.65c-.99 1.22-4.01 3.1-6.12 3.65-.95.24-1.72.23-2.04-.24 0 0 2.36-2.52 2.36-4.58s.89-19.8 4.58-22.6c-1.78-.15-4.44-.34-4.44-.34v-2.51s5.39-1.48 6.72-1.55c.7-1.55 0-2.33 0-2.33-.77-2.33-1.92-3.91-1.92-3.91-4.25 4.19-5.82 5.26-7.07 7.73-.08.16-.16.34-.24.51-.7 1.55-2.36 3.52-4.01 9.44-1.36 4.92-2.68 13.3-3.48 25.72"/><path class="cls-11" d="M137.34 63.21s4.15 1.12 8.42.3c.28-.05.55-.11.82-.18.83-.21 1.66-.5 2.45-.9.69-.34 1.35-.76 1.97-1.28 1.14-.96 2.21-2.08 3.19-3.32 3.45-4.37 5.73-10.22 5.67-15.51-.07-6.8-4.5-18.62-5.42-18.84M140.29 31.81s4.21-.67 4.73 0"/><path class="cls-11" d="M152.78 31.81s3.62-.44 4.06 0"/><path class="cls-10" d="M141.33 40.23c1.79.42 3.7.37 5.69 0"/><path class="cls-11" d="M152.78 43.64c.37 1.84 2.73 5.24 2.73 6.28s-2.73 1.1-2.73 1.1"/><path class="cls-10" d="M155.15 39.71c.95.3 2.06.24 3.25 0"/><path class="cls-11" d="M148.6 54.71h4.18M123.23 48.58c-1.09.72-2.53 2.21-2.26 3.77.31 1.73 6.01 12.63 13.55 12.63.69 0 1.35 0 1.98-.03 6.21-.23 9.26-1.44 9.26-1.44M124.34 48.14c-.12-.1-.57.07-1.11.43"/><path class="cls-11" d="M123.23 48.57h0c-.12.22-1.63 3.13 2.79 9.13 2.91 3.93 8.16 6.41 10.49 7.24.03.02.07.03.1.03"/><path class="cls-11" d="M146.59 63.32c-2.47 3.36-5.29 5.49-8.18 6.63-3.39 1.32-6.86 1.28-10.01.2-5.84-2-10.35-13.08-12.12-16.26-.55.44-1.11.83-1.68 1.18-3.67 2.24-7.83 2.8-12.43 3.7-5.31 1.03-13.58 7.89-16.25 12.18-2.66 4.29-10.04 16.93-13.45 22.47-1.51 2.47-2.76 5.01-3.95 7.2-1.49 2.74-2.9 4.96-4.62 5.87M149.04 62.43s11.2 15.7 13.41 23.83 7.53 29.25 4.58 40.34c-2.37 6.5-3.62 8.83-11.89 9.27s-13.36 1.03-17.77-.53h-.02"/><path class="cls-11" d="M122.66 137.08s7.58 3.06 14.71-1.74c1.46-.98 2.89-2.29 4.24-4.02M138.41 69.95h0c.22.52 8.04 18.98 10.19 30.94 2.18 12.12.49 28.96 0 30.43M124.93 80.2s2.21 39.01 0 44.17"/><path class="cls-11" d="M89.92 125.12c9.6-2.81 23.34-3.55 27.48-2.07 4.13 1.48 5.66 4.58 5.49 8.27-.05 1.14-.13 3.31-.22 5.76-.19 5.49-.4 12.41-.4 12.41M114.73 62.43s5.47 20.73 5.47 34.02.74 27.92.74 27.92M98.04 63.81s9.6 17.72 12.71 30.42c3.1 12.71 6.65 28.81 6.65 28.81M99.37 90.69l-7.98-12.56-3.99 7.26s16.22 14.29 19.01 19.49c3.01 5.61 5.67 15.07 5.67 15.07M81.79 97.93s8.27 10.34 13.29 12.26c5.03 1.93 10.97 9.17 11.33 9.76M68.52 100.63s-9.17.13-12.09 5.77c-.02.03-.03.06-.05.1M154.2 57.81c2.57.23 6.7 2.73 9.81 5.69 3.1 2.95 12.92 15.95 19.72 20.54 6.8 4.57 13.59 7.68 13.89 13.89.06 1.24.1 2.78.11 4.43.08 6.58-.11 15.07-.11 15.07M117.4 169.3c-3.93.84-7.7 1.23-10.49.88-2.64-.33-8.88-2.46-15.65-5.54-8.89-4.04-18.69-9.72-22.46-15.15"/><path class="cls-11" d="M197.75 102.36c6.55 3.99 15.75 7.32 19.75 7.98 3.98.67 9.52 3.44 14.96 4.55s10.64 2.54 10.64 2.54c-1 6.87-4.44 14.85-10.09 14.96h-4.99c-1.66 9.19-3.77 15.18-13.96 20.16-10.2 4.99-27.04 4.99-29.48 4.65.33 5.43-.67 8.53-.67 8.53s-14.96-.99-16.84-2.33c-1.66 2.22-10.19 5.88-18.39 2.33-7.32.45-14.85 1.55-17.95-.89-3.78 1.8-8.66 3.44-13.32 4.44M75.02 160.27c-5.86-2.44-11.92-5.56-16.21-8.49M91.25 164.63c-3.32.23-9.65-1.63-16.22-4.37"/><path class="cls-11" d="M75.03 160.27h0c-6.26-.11-11.87-.76-16.81-2.05-5.27-1.37-9.78-3.47-13.53-6.44a29.517 29.517 0 0 1-4.7-4.65 28.82 28.82 0 0 1-4.18-7.08c-3.12-7.46-3.08-15.39-2.92-21.07.2-6.72 7.95-14.32 23.55-12.58 1.89.21 3.9.56 6.02 1.06.3.11.6.23.9.36 9.27 3.77 17.98 11.21 24.36 17.8 5.81 5.99 9.7 11.28 10.32 12.42 1.33 2.44 10.56 5.54 16.69 9.75.89.61 1.8 1.39 2.66 2.29 5.18 5.35 9.16 15.03.02 19.21h-.02M117.4 150.08s1.78.56 4.92-.43c.78-.24 1.66-.58 2.61-1.05 5.23-2.58 12.72-8.45 19.12-9.6M130.73 164.85c3.95-2.64 8.68-5.78 13.28-8.96 8.95-6.21 17.42-12.57 18.74-15.64M144.01 155.89l15.86 5.42 7.2 2.1M159.87 161.31c-3.98 1.92-7.39 4.8-11.19 4.43M186.02 124.37c.67.16 4.88 5.99 7.32 6.94 1.46.58 3.24.41 4.96-.54.65-.36 1.28-.82 1.89-1.4.47-.44.92-.95 1.35-1.54 2.44-3.32 7.76-10.19 9.09-10.42 1.33-.22 4.44-1.77 4.88 1.55s1.33 11.15 2 12.33c.54.98 3.78 1.97 6.76.3a7.47 7.47 0 0 0 1.87-1.49c3.32-3.6 10.42-11.8 16.96-12.69M161.65 136.35s9.08 2.58 11.08 7.01c.65-1.02 1.33-2.06 2.01-3.11 5.08-7.79 10.62-15.88 11.28-15.88"/><path class="cls-11" d="M200.19 129.38s11.1 3.19 17.31 1.94M224.26 131.61l3.75.78M174.73 140.25s2.07.12 5.09-.21c5.36-.58 13.68-2.6 18.48-9.26"/><path class="cls-11" d="M179.81 140.04s4.78 12.61 4.77 17.16M188.9 157.2c2.88-4.76 15.49-16.58 19.94-18.2M170.51 119.94l15.49 4.43h.02M175.98 115.65s11.41 1.85 21.61 2.39c5.21.27 10.11.21 13.03-.62M166.87 106.5s16.93-9.01 22.03-10.56M166.87 81.97l1.03-8.42s8.6 7.76 6.82 9.31c-4.22 5.31-7.2 6.48-7.86 13.07M35.79 140.04s-9.4 15.08-8.96 18.18c.07.49.56.66 1.33.61 4.13-.27 16.52-7.05 16.52-7.05M28.16 158.84s19.33 5.6 30.05-.62M116.29 53.9l.56-.19 4.12-1.36"/></svg>