<?xml version="1.0" encoding="UTF-8"?>
<svg id="_レイヤー_1" data-name="レイヤー 1" xmlns="http://www.w3.org/2000/svg" viewBox="0 0 261.26 193.65">
  <defs>
    <style>
      .cls-1 {
        fill: #e4d8c0;
      }

      .cls-1, .cls-2, .cls-3, .cls-4, .cls-5, .cls-6, .cls-7, .cls-8 {
        stroke-width: 0px;
      }

      .cls-2 {
        fill: #e3d598;
      }

      .cls-3 {
        fill: #8c4c43;
      }

      .cls-4 {
        fill: #fde4c5;
      }

      .cls-9 {
        fill: none;
        stroke: #000;
        stroke-linecap: round;
        stroke-linejoin: round;
      }

      .cls-6 {
        fill: #a8c8bd;
      }

      .cls-7 {
        fill: #7e6384;
      }

      .cls-8 {
        fill: #759580;
      }
    </style>
  </defs>
  <path class="cls-3" d="m260.16,162.04c.27.97.47,1.96.6,2.96-2.13,7.54-17.2,11.37-31.27,12.65,0,0-2.6.11-6.39.26v-.26c14.22-2.56,33.65-14.04,37.07-15.62Z"/>
  <path class="cls-6" d="m177.85,156.28c-1.17.28-2.9,1.29-5.52,2.61-5.69,2.84-24.17,11.66-27.62,10.24-2.08-.06-.53,2.85,10.41,3.84,1.9.17,3.75.22,5.52.17-.31,2.41-1.54,5.66-1.54,5.66-.86.57-1.7,6.4-3.99,9.49l.28.6c-1.07.49-2.05.88-2.84,1-3.55.57-9.23-8.81-11.52-11.09-.65-.65-1.29-.46-1.93.29l-.2-.29v-31.52l-.11-.37c6.46-1.97,7.36-2.47,7.36-2.47,2.75-6.2,5.69-11.33,20.05-10.38,0,0,1.86,2.86,7.32,5.74,5.78,3.05,15.59,6.13,31.5,5.84l.51-.43c5.67,6.67,11.62,13.13,11.62,13.13.1-2.11-1.05-5.94-3.07-9.82l.42-.22s27.28-2.43,28.06-8.15c0,0,.29,3.41,4.7,1.7,2.44,2.57,10.38,10.76,12.9,20.22-3.42,1.57-22.84,13.05-37.08,15.62v.26c-5.87.23-14.62.56-21.18.74-2.98.09-5.51.13-7.11.13-.8,0-1.56-.02-2.28-.07-5.96-.32-9.38-2-11.79-6.32,0,.08,0,.16-.01.26l-1.11-4.02c2.21-1.94,1.45-5.97.7-9.75-.46-2.27-1.07-2.93-2.41-2.61h-.03Z"/>
  <path class="cls-6" d="m238.93,127.62c-2.66-6.87-5.83-13.87-5.83-13.87v-.02c1.86-.09,4.02-.4,5.85-.9,4.18-1.14,5.03-2.26,5.03-2.26,4.98,6.39,5.69,15.78,3.27,31.26-4.41,1.7-4.7-1.7-4.7-1.7.25-1.84-1.54-7.13-3.63-12.51Z"/>
  <path class="cls-6" d="m243.99,110.55h0s-.86,1.14-5.03,2.27c-1.83.5-3.99.81-5.85.9-2.41.11-4.34-.16-4.56-.9-.37-1.33,2.07-7.21,6.55-10.39,4.04,3.09,7.27,6.05,8.89,8.12Z"/>
  <path class="cls-6" d="m238.93,127.62c2.09,5.38,3.88,10.67,3.63,12.51-.78,5.72-28.06,8.15-28.06,8.15l-.42.22c-1.63-3.14-3.83-6.32-6.42-8.64h.01c1.02-3.01-1.53-7.9-4.11-11.77,0,0,2.95-2.32,6.78-4.07,2.58-1.18,5.58-2.11,8.33-1.88,1.31.11,2.88.38,4.54.75,6.78,1.48,15.27,4.58,15.7,4.73Z"/>
  <path class="cls-6" d="m233.11,113.75s3.16,6.99,5.83,13.87c-.43-.16-8.92-3.25-15.7-4.73,0,0,1.37-10.02-1.97-13.45-.56-.57-1.01-1.2-1.36-1.9h.01s10.41-3.06,12.17-7.32c1.05.75,2.06,1.49,3.02,2.23-4.48,3.19-6.92,9.07-6.55,10.39.21.75,2.15,1.01,4.56.9v.02Z"/>
  <path class="cls-6" d="m232.08,100.21c-1.76,4.25-12.17,7.31-12.17,7.31h-.01c-1.77-3.5-.91-8.43,3.61-12.79,2.96,1.68,5.88,3.58,8.58,5.48Z"/>
  <path class="cls-6" d="m221.26,109.43c3.34,3.43,1.97,13.45,1.97,13.45-1.66-.37-3.23-.63-4.54-.75-2.75-.22-5.75.7-8.33,1.88.61-4.61-5.32-23.77-5.32-26.37s5.28-8.56,5.28-8.56c4.03.98,8.67,3.07,13.2,5.65-4.52,4.35-5.38,9.29-3.61,12.8.35.7.8,1.34,1.36,1.9Z"/>
  <path class="cls-7" d="m223.1,177.91c3.8-.14,6.39-.26,6.39-.26-9.96,14.79-28.01,11.95-40.39,11.66,5.12-1.43,12.8-10.53,12.8-10.53v-.14c6.56-.18,15.31-.5,21.2-.74Z"/>
  <path class="cls-6" d="m214.08,148.5c2.03,3.89,3.17,7.72,3.07,9.82,0,0-5.95-6.46-11.62-13.13-2.53-3-5.01-6.04-6.86-8.55l6.35,1.21c.91.56,1.8,1.23,2.64,2,2.58,2.33,4.79,5.5,6.42,8.64Z"/>
  <path class="cls-6" d="m205.03,97.64c0,2.61,5.94,21.76,5.32,26.37-3.83,1.75-6.78,4.07-6.78,4.07-2.23-3.35-4.48-5.95-4.48-5.95-.28-5.28-1.17-10.87-3.35-14.62,0,0-.4-.87-1.27-2.18-.06-.09-.11-.19-.18-.28-.33-.53-.65-1.07-.96-1.58-.72-2.54-1.65-8.74-1.65-8.74l-.11-.56.11-.02c3.29.03,8.8-3.7,10.21-5.64v-.22c1.54.06,3.15.12,4.83.22,1.12.07,2.32.27,3.58.57,0,0-5.28,5.9-5.28,8.56Z"/>
  <path class="cls-6" d="m199.18,128.16c.04-1.87.02-3.92-.09-6.03,0,0,2.25,2.6,4.48,5.95,2.58,3.88,5.13,8.77,4.11,11.76h-.01c-.84-.77-1.73-1.44-2.64-1.99l-6.35-1.21s.42-3.62.5-8.48Z"/>
  <path class="cls-6" d="m205.54,145.19l-.51.43c-15.9.29-25.72-2.78-31.5-5.84,7.47-.38,23.13-2.81,24.27-4.37.27.39.57.79.88,1.21,1.85,2.52,4.33,5.56,6.86,8.55Z"/>
  <path class="cls-6" d="m201.91,88.29v.22c-1.43,1.94-6.94,5.67-10.22,5.64l-.11.02-1.2-5.87c2.76-.1,6.76-.17,11.54-.01Z"/>
  <path class="cls-7" d="m201.9,178.65v.14s-7.67,9.1-12.8,10.53c-.49.98-9.19,2.72-15.48,1.86l.26-1.84c.28,0,.53-.1.72-.31.13-.14.3-.4.5-.75,6.04-2.81,13.43-1.4,17.41-9.57.72.04,1.48.07,2.28.07,1.59,0,4.12-.04,7.11-.13Z"/>
  <path class="cls-6" d="m199.09,122.14c.11,2.11.13,4.15.09,6.03-.76-2.73-9.38-10.65-12.42-12.12l-.53.12c-.18-.82-.39-1.57-.6-2.21,0,0-.09-.5-.26-1.34,0,0,8.1-1.89,10.37-5.11,2.18,3.75,3.07,9.34,3.35,14.62Z"/>
  <path class="cls-6" d="m199.18,128.16c-.08,4.86-.5,8.48-.5,8.48-.31-.42-.61-.82-.88-1.21-.35-.49-.65-.95-.92-1.37-3.32-5.19-7.02-7.67-11.48-8.53,1.78-1.78,1.54-6.1.84-9.36l.53-.12c3.04,1.47,11.66,9.39,12.42,12.12Z"/>
  <path class="cls-1" d="m185.39,125.52c4.47.86,8.16,3.34,11.48,8.53.28.42.58.88.92,1.37-1.14,1.56-16.8,3.99-24.27,4.37-5.46-2.87-7.32-5.74-7.32-5.74,0,0,1.59-2.37,4.19-4.64,2.29-2.03,5.38-3.98,8.84-4.19,2.21-.13,4.24-.07,6.15.3Z"/>
  <path class="cls-6" d="m193.47,103.89c.31.41.59.8.82,1.16.07.09.12.19.18.28.87,1.31,1.27,2.18,1.27,2.18-2.27,3.22-10.37,5.11-10.37,5.11-.7-3.6-2.71-13.39-4.32-16.34-.27-.5-.74-1.1-1.33-1.76,6.88,1.67,11.33,6.14,13.74,9.37Z"/>
  <path class="cls-6" d="m193.34,103.47c.06.16.09.3.13.42-2.42-3.23-6.86-7.7-13.74-9.37-1.21-1.36-3-2.97-4.83-4.54-3.76-3.2-7.77-6.16-7.77-6.16,0,0-.95,3.79,0,14.97-.29-.09-.59-.17-.9-.25-3.41-4.2-11.07-21.8-11.07-21.8.17-.21.27-.49.27-.79v-3.05c0-.72-.59-1.31-1.31-1.31h-.26v-11.64l.38-.8c7.61,5.22,23.45,20.17,32.04,29.36,0,0,1.45,5.55,7.07,14.96Z"/>
  <path class="cls-6" d="m191.69,94.73s.92,6.2,1.65,8.74c-5.62-9.41-7.07-14.96-7.07-14.96,0,0,1.5-.12,4.11-.21l1.2,5.87.11.56Z"/>
  <path class="cls-2" d="m185.63,113.96c.21.63.42,1.38.6,2.21.7,3.25.95,7.57-.84,9.36-1.9-.37-3.94-.43-6.15-.3-3.46.21-6.55,2.16-8.84,4.19l-.48-.1c-2.49-1.53-12.3-2.26-12.3-2.26,1.31-.92,2.65-1.87,3.97-2.8,5.19-3.64,9.88-6.88,9.88-6.88.2-1.5-.31-4.35-1.06-7.37,0,0,6.43-13.19,10.64-13.71,1.61,2.95,3.62,12.74,4.32,16.34.17.84.26,1.34.26,1.34Z"/>
  <path class="cls-6" d="m180.7,172.66c.01-.1.01-.18.01-.26,2.42,4.31,5.84,5.99,11.79,6.32-3.98,8.16-11.37,6.76-17.41,9.57,1.74-3.09,5.45-13.15,5.6-15.63Z"/>
  <path class="cls-6" d="m179.59,168.64l1.11,4.02c-.16,2.47-3.86,12.54-5.6,15.63-.2.35-.37.6-.5.75-.19.21-.45.31-.72.31-1.8,0-5.21-3.72-7.66-4.63-1.37-3.63-6.26-6.48-7.11-5.91,0,0,1.23-3.25,1.54-5.66,8.42-.22,15.13-2.57,17.94-3.85.39-.18.72-.39,1-.65Z"/>
  <path class="cls-3" d="m180.29,158.89c.75,3.78,1.5,7.81-.7,9.75-.28.26-.61.47-1,.65-2.82,1.28-9.52,3.63-17.94,3.85-1.77.06-3.62,0-5.52-.17-10.95-.99-12.5-3.9-10.41-3.84,3.45,1.43,21.93-7.4,27.62-10.24,2.63-1.31,4.35-2.33,5.52-2.61h.03c1.34-.32,1.95.33,2.41,2.61Z"/>
  <path class="cls-2" d="m179.72,94.53c.59.66,1.06,1.26,1.33,1.76-4.21.52-10.64,13.71-10.64,13.71-.16-.63-.31-1.28-.49-1.92-.71-2.67-1.51-5.29-2.08-7.06h0c.12-.29,3.97-9.44,7.05-11.04,1.84,1.57,3.62,3.19,4.83,4.54Z"/>
  <path class="cls-8" d="m173.88,189.34l-.26,1.84c-.98-.12-1.89-.31-2.72-.58,0,0-6.68,1.43-14.5,1.77-4.77,1.84-15,.08-22.23-1.74,1.67-4.31,3.31-9.69,4.95-11.55.63-.75,1.28-.94,1.93-.29,2.28,2.28,7.96,11.66,11.52,11.09.79-.12,1.77-.51,2.84-1,3.73-1.76,8.61-5,10.81-4.18,2.45.91,5.86,4.63,7.66,4.63Z"/>
  <path class="cls-2" d="m170.41,110c.75,3.02,1.26,5.87,1.06,7.37-8.53-1.7-31.26,1.8-31.26,1.8v-11.59c10.38-1.59,20.89-1.48,29.72.5.18.63.33,1.28.49,1.92Z"/>
  <path class="cls-2" d="m174.89,89.98c-3.09,1.59-6.93,10.75-7.05,11.03-.43-1.36-.72-2.22-.72-2.22-.95-11.18,0-14.97,0-14.97,0,0,4.01,2.96,7.77,6.16Z"/>
  <path class="cls-2" d="m169.92,129.31l.48.1c-2.6,2.27-4.19,4.64-4.19,4.64-14.36-.95-17.3,4.18-20.05,10.38,0,0-.51-2.04-.21-4.59.27-2.36,1.24-5.17,3.94-7.22,1.82-1.36,4.68-3.42,7.73-5.58,0,0,9.8.74,12.3,2.26Z"/>
  <path class="cls-2" d="m171.47,117.37s-4.69,3.24-9.88,6.88c-5.57-.47-21.38,2.6-21.38,2.6v-7.67s22.73-3.51,31.26-1.8Z"/>
  <path class="cls-2" d="m140.21,107.58c-3.05.47-6.09,1.08-9.08,1.85-6.24,1.59-12.22,3.81-17.52,6.62h-.18c-.13-1.88-.36-3.62-.68-5.11-.2-.94-.58-1.65-1.11-2.16h.01c6.36-4.86,16.7-8.36,22.1-9.98,1.23-.36,3.14-.69,5.48-.97,2.75-.31,6.08-.53,9.56-.61,1.67-.04,3.37-.04,5.05-.01,4.6.1,9.06.5,12.39,1.35.31.08.61.16.9.25,0,0,.29.86.72,2.22h0c.57,1.78,1.37,4.4,2.08,7.07-8.82-1.98-19.34-2.09-29.72-.5Z"/>
  <path class="cls-8" d="m166.21,184.71c-2.21-.82-7.08,2.42-10.81,4.18l-.28-.6c2.28-3.09,3.13-8.92,3.99-9.49.85-.57,5.74,2.28,7.11,5.91Z"/>
  <path class="cls-6" d="m166.21,98.55c-3.33-.85-7.79-1.25-12.39-1.35v-.52s.01-19.17.01-19.17v-.23h.26c.42,0,.81-.2,1.05-.52,0,0,7.66,17.6,11.07,21.8Z"/>
  <path class="cls-2" d="m140.21,126.85s15.82-3.06,21.38-2.6c-1.31.92-2.65,1.87-3.97,2.8-3.05,2.16-5.91,4.22-7.73,5.58-2.71,2.05-3.68,4.86-3.94,7.22,0,0-2.39.03-5.74.21v-.21s-.01-13-.01-13Z"/>
  <path class="cls-8" d="m155.41,72.91v3.05c0,.3-.1.58-.27.79-.23.32-.62.52-1.05.52h-5.32c-.7-.03-1.26-.6-1.26-1.31v-3.05c0-.72.58-1.3,1.3-1.31h5.28c.72,0,1.31.59,1.31,1.31Z"/>
  <path class="cls-1" d="m154.22,59.15l-.38.8v11.64h-5.02l-.04-.48v-11.65c.29-.22.56-.45.8-.67.43-.39.8-.89,1.11-1.5.74.11,1.96.77,3.53,1.86Z"/>
  <path class="cls-1" d="m153.84,77.51v19.69c-1.68-.03-3.39-.03-5.06.01v-.5s-.01-19.44-.01-19.44h5.07v.23Z"/>
  <path class="cls-4" d="m132.73,63.4s-5.02,6.15-9.77,11.15l-.4-.68s-9.8-10.35-9.8-21.23h.01c-1.3-.49-2.34-1.49-2.85-2.09h-.1c-.14-2.16-.26-4.43-.35-6.82-.25-6.59-.03-12.24.45-17.06,3.17-4.49,7.77-9.61,12.79-11.75,1.02-.43,2.07-.75,3.12-.9,8.68-1.28,16.22.42,19.77,4.27,2.94,3.17,5.49,6.45,6.19,11.35.16,1.01.22,2.11.2,3.29-.12,6.14,1.47,19.05-1.3,24.38-.31.61-.68,1.11-1.11,1.5-.25.22-.51.45-.8.67-2.94,2.32-7.8,4.57-12.56,4.46-1.17-.01-2.34-.18-3.47-.52Z"/>
  <path class="cls-6" d="m120.95,90.97c7.65-12.24,15.26-27.04,15.26-27.04h0c4.77.1,9.62-2.15,12.56-4.47v11.65l.04.48c-.72.01-1.3.59-1.3,1.31v3.05s-5.7,18.86-8.36,21.23l.08.63c-2.34.28-4.25.61-5.48.97-5.4,1.61-15.74,5.12-22.1,9.97h-.01c-.85-.86-2.07-1.24-3.59-1.25v-.66c2.93-1.01,7.93-7.91,12.9-15.88Z"/>
  <path class="cls-6" d="m148.77,96.71v.5c-3.46.08-6.79.3-9.55.61l-.08-.63c2.66-2.37,8.36-21.23,8.36-21.23,0,.71.56,1.28,1.26,1.31v19.44Z"/>
  <path class="cls-2" d="m145.95,139.85c-.3,2.55.21,4.59.21,4.59,0,0-.9.5-7.36,2.47-2.42.75-5.62,1.7-9.85,2.91-1.46.41-2.88.77-4.25,1.05-4.17.88-7.92,1.21-11.09,1.25-3.99.06-7.08-.35-8.99-.69-1.29-.25-2.04-.46-2.14-.49,3.22-1.18,5.84-1.95,7.44-4.35.31-.47.62-1.19.91-2.14h.01s8.5-2.04,16.26-3.22c.88-.13,1.79-.26,2.74-.37,3.52-.4,7.33-.65,10.37-.79,3.34-.18,5.74-.21,5.74-.21Z"/>
  <path class="cls-2" d="m140.21,139.85v.21c-3.03.14-6.84.39-10.36.79l-.08-.72.48-10.8.37-8.35.51-11.54c2.98-.77,6.03-1.38,9.08-1.85v32.27Z"/>
  <path class="cls-6" d="m138.92,178.79l.2.29c-1.64,1.86-3.27,7.24-4.95,11.55-2.04-.51-3.84-1.02-5.21-1.46-1.37-4.02-6.58-10.76-9.04-10.38,3.03-11.18,7.38-19.9,4.92-27.3l-.13-.63c1.37-.28,2.8-.63,4.25-1.05,4.22-1.2,7.43-2.16,9.85-2.91l.11.37v31.52Z"/>
  <path class="cls-6" d="m136.21,63.92h0s-7.61,14.81-15.26,27.05c-1.77-1.31-3.92-4.44-5.89-10.06l.2-.07c1.31.01,4.44-2.87,7.71-6.3,4.74-5,9.77-11.15,9.77-11.15,1.14.35,2.31.51,3.47.52Z"/>
  <path class="cls-2" d="m131.13,109.43l-.51,11.54c-3.7,0-17.22,6.66-17.22,6.66.26-3.99.3-8.05.03-11.57h.18c5.3-2.82,11.28-5.03,17.52-6.63Z"/>
  <path class="cls-2" d="m130.62,120.97l-.37,8.35c-2.55-.37-17.68,6.64-17.68,6.64.36-2.6.65-5.45.82-8.33,0,0,13.52-6.66,17.22-6.66Z"/>
  <path class="cls-2" d="m130.25,129.32l-.48,10.8.08.72c-.95.11-1.86.23-2.74.37-7.76,1.18-16.26,3.22-16.26,3.22h-.01c.65-2.02,1.25-5.01,1.74-8.48,0,0,15.13-7.01,17.68-6.64Z"/>
  <path class="cls-6" d="m124.84,151.5c2.46,7.4-1.89,16.12-4.92,27.3-2.47.38-4.93,11-7.87,11.81s-8.24-12-11.28-11.81c5.88-3.6,12.85-26.35,12.85-26.35v-.33c3.17-.03,6.93-.37,11.09-1.25l.13.63Z"/>
  <path class="cls-6" d="m122.57,73.86l.4.68c-3.26,3.43-6.39,6.32-7.71,6.3l-.2.07c-2.27-6.47-4.31-16.25-5.23-30.36h.1c.51.59,1.55,1.59,2.85,2.07h-.01c0,10.89,9.8,21.24,9.8,21.24Z"/>
  <path class="cls-8" d="m122.57,14.58l.14.33c-5.01,2.14-9.61,7.26-12.79,11.75,1.79-18.02,7.45-24.56,8.36-26.15.01-.01.01,0,.01,0,.29,3,2.7,14.07,4.27,14.07Z"/>
  <path class="cls-8" d="m119.91,178.79c2.46-.38,7.67,6.36,9.04,10.38-1.28,1.43-11.52,1.99-16.92,1.43,2.94-.8,5.4-11.43,7.87-11.81Z"/>
  <path class="cls-6" d="m115.06,80.91c1.97,5.61,4.12,8.74,5.89,10.06-4.97,7.97-9.97,14.87-12.89,15.88v.66c-1.1,0-2.35.18-3.7.5l-.29-1.16c-10.8-12.8-9.75-77.74-9.75-77.74,1.34-1.12,2.35-2.28,2.93-3.59,2.24-5.05,20.46-24.4,21.03-25.02-.91,1.59-6.57,8.13-8.36,26.15-.48,4.82-.69,10.47-.45,17.06.09,2.38.2,4.66.35,6.83.92,14.11,2.96,23.89,5.23,30.36Z"/>
  <path class="cls-6" d="m113.61,152.11v.33s-6.97,22.75-12.85,26.35c-3.03.19-4.92,11.38-6.46,11.76-1.53.38-9.27-9.86-12-9.86,8.22-3.99,19.98-23.7,20.17-28.26l2.15-1.02c1.9.35,5,.75,8.99.69Z"/>
  <path class="cls-6" d="m31.85,139.83c14.95-6.24,35.91-15.01,43.23-18.29,7.83-3.5,20.76-11.47,29.29-13.53,1.35-.32,2.6-.5,3.69-.5,1.51.01,2.74.39,3.59,1.26.53.51.91,1.23,1.11,2.16.32,1.49.55,3.23.68,5.12.27,3.52.22,7.58-.03,11.57-.18,2.88-.47,5.74-.82,8.33-.49,3.46-1.09,6.46-1.74,8.48-.29.95-.6,1.67-.91,2.14-4.51.62-10.31.43-15.51-.19-3.49-.42-6.7-1.02-9.1-1.72-5.97-1.7-1.7,6.26,1.25,10.51-4.81,2.93-10.47,5.46-12.62,6.84-3.99,2.56-39.72,16.87-49.1,24.01l-4.63-.19-14.99-.6s-.98-10.36.12-21.46c.71-7.17,2.28-14.66,5.56-19.87,5.21-8.29,12.79-14.17,17.73-17.42,2.96-1.95,4.99-2.94,4.99-2.94-1.14,5.19-1.82,10.6-1.77,16.28Z"/>
  <path class="cls-8" d="m100.76,178.79c3.04-.19,8.34,12.61,11.28,11.81-.57.28-13.79.14-17.49.85-.03.01-.07.01-.1.02l-.16-.91c1.54-.38,3.43-11.57,6.46-11.76Z"/>
  <path class="cls-3" d="m109.92,146.57c-1.6,2.41-4.22,3.17-7.44,4.35h-.01c-1.85.68-3.9,1.49-6.07,2.84-5.97,3.7-38.1,25.03-38.1,25.03,0,0-7.93,3.69-8.83,8.23l-24.63-.99c9.38-7.14,45.11-21.45,49.1-24.01,2.15-1.38,7.81-3.91,12.62-6.84,4.09-2.49,7.55-5.28,7.74-7.91l.11-.89c5.2.62,11,.81,15.51.19Z"/>
  <path class="cls-6" d="m104.62,151.42l-2.15,1.02c-.19,4.56-11.95,24.27-20.17,28.26-2.73,0-4.48,5.68-7.23,7.38-5.98,0-13.18-9.1-16.77-9.29,0,0,32.13-21.33,38.1-25.03,2.17-1.35,4.22-2.16,6.07-2.84h.01c.1.03.85.25,2.14.49Z"/>
  <path class="cls-6" d="m104.08,106.85l.29,1.16c-8.53,2.06-21.46,10.04-29.29,13.53-7.32,3.27-28.28,12.05-43.23,18.29-.04-5.68.63-11.09,1.77-16.28,3.55-16.32,11.57-30.54,15.86-44.28,5.69-18.2,17.35-30.43,27.02-38.1,7.2-5.72,13.92-8.75,17.83-12.05,0,0-1.06,64.94,9.75,77.74Z"/>
  <path class="cls-8" d="m94.3,190.56l.16.91c-3.9.69-13.43.77-16.75.77s-11.44-4.53-11.44-4.53l-16.8-.68c.9-4.54,8.83-8.23,8.83-8.23,3.6.19,10.79,9.29,16.77,9.29,2.75-1.7,4.5-7.38,7.23-7.38s10.47,10.24,12,9.86Z"/>
  <path class="cls-3" d="m94.41,146.38l-.11.89c-.19,2.63-3.65,5.41-7.74,7.91-2.95-4.25-7.22-12.22-1.25-10.51,2.39.69,5.61,1.29,9.1,1.72Z"/>
  <path class="cls-7" d="m28.55,125.58l.08.91c-4.95,3.25-12.52,9.13-17.73,17.42-3.27,5.21-4.84,12.7-5.56,19.87-6.52-7.63-5.65-26.04-2.6-30.86,4.09-6.44,13.13-6.24,25.81-7.34Z"/>
  <path class="cls-9" d="m118.3.51c.29,3,2.7,14.07,4.27,14.07"/>
  <path class="cls-9" d="m120.96,90.97h-.01c-1.77-1.31-3.92-4.44-5.89-10.06-2.27-6.47-4.31-16.25-5.23-30.36-.14-2.17-.26-4.44-.35-6.83-.25-6.59-.03-12.24.45-17.06,1.79-18.02,7.45-24.56,8.36-26.15"/>
  <path class="cls-9" d="m122.57,73.86s-9.8-10.35-9.8-21.23"/>
  <path class="cls-9" d="m109.92,26.66c3.17-4.49,7.77-9.61,12.79-11.75,1.02-.43,2.07-.75,3.12-.9,8.68-1.28,16.22.42,19.77,4.27,2.94,3.17,5.49,6.45,6.19,11.35.16,1.01.22,2.11.2,3.29-.12,6.14,1.47,19.05-1.3,24.38-.31.61-.68,1.11-1.11,1.5-.25.22-.51.45-.8.67-2.94,2.32-7.8,4.57-12.56,4.46-1.17-.01-2.34-.18-3.47-.52-1.48-.45-2.91-1.2-4.2-2.33"/>
  <path class="cls-9" d="m126.54,30.93s7.4-2.14,9.67-2.42"/>
  <path class="cls-9" d="m145.74,28.51s5.59.26,6.05,1.11c.01.03.02.06.02.09"/>
  <line class="cls-9" x1="127.97" y1="38.76" x2="137.49" y2="38.76"/>
  <line class="cls-9" x1="147.3" y1="37.61" x2="151.81" y2="37.61"/>
  <path class="cls-9" d="m145.74,41.16v6.68s-2.9,1.43-3.44,0"/>
  <path class="cls-5" d="m142.04,49.9c-.67,1.37-1.45,2.66-2.38,3.87-.46.6-.77,1.41-1.52,1.73-.36.18-.77.32-1.23.36-.45.05-.98.05-1.51-.23-.11-.06-.13-.18-.09-.29.31-.99.52-1.6.94-2.18.38-.6,1.16-.76,1.77-1.15,1.23-.8,2.5-1.58,3.79-2.32.13-.08.29.07.22.2h0Z"/>
  <path class="cls-5" d="m144.82,49.69c1.29.74,2.56,1.52,3.79,2.32.61.39,1.39.55,1.76,1.14.51.68.67,1.32.96,2.22.03.1-.01.2-.1.25-.51.27-1.06.28-1.5.23-.47-.05-.86-.18-1.23-.36-.76-.32-1.06-1.13-1.52-1.73-.46-.6-.88-1.23-1.28-1.87-.37-.66-.77-1.3-1.09-2-.07-.13.09-.28.22-.2h0Z"/>
  <path class="cls-9" d="m139.59,54.54s.44.03,1.12.07c1.84.08,5.35.18,6.17-.31"/>
  <path class="cls-9" d="m132.73,63.4s-5.02,6.15-9.77,11.15c-3.26,3.43-6.39,6.32-7.71,6.3"/>
  <path class="cls-9" d="m136.21,63.93s-7.61,14.8-15.26,27.04c-4.97,7.97-9.97,14.87-12.89,15.88"/>
  <path class="cls-9" d="m118.3.5h0s0,0-.01.01c-.57.61-18.79,19.97-21.03,25.02-.58,1.3-1.59,2.46-2.93,3.59-3.91,3.3-10.64,6.33-17.83,12.05-9.67,7.67-21.33,19.9-27.02,38.1-4.29,13.74-12.31,27.97-15.86,44.28-1.14,5.19-1.82,10.6-1.77,16.28v.29"/>
  <path class="cls-9" d="m243.99,110.55c-1.61-2.07-4.84-5.03-8.89-8.12-.96-.74-1.97-1.48-3.02-2.23-2.7-1.9-5.61-3.8-8.58-5.48-4.53-2.57-9.17-4.67-13.2-5.65-1.26-.3-2.45-.5-3.58-.57-1.68-.1-3.3-.17-4.82-.22-4.78-.16-8.78-.09-11.54.01-2.61.09-4.11.21-4.11.21-8.6-9.19-24.44-24.14-32.04-29.36-1.57-1.09-2.8-1.75-3.53-1.86"/>
  <path class="cls-9" d="m33.62,123.55s-2.03.99-4.99,2.94c-4.95,3.25-12.52,9.13-17.73,17.42-3.27,5.21-4.84,12.7-5.56,19.87-1.1,11.1-.12,21.46-.12,21.46l14.99.6,4.63.19,24.63.99,16.8.68s8.1,4.53,11.44,4.53,12.85-.08,16.75-.77c.03-.01.07-.01.1-.02,3.7-.7,16.92-.57,17.49-.85,5.4.57,15.64,0,16.92-1.43,1.37.43,3.17.95,5.21,1.46,7.23,1.82,17.46,3.58,22.23,1.74,7.82-.35,14.5-1.77,14.5-1.77.82.27,1.74.46,2.72.58,6.29.86,14.99-.88,15.48-1.86,12.37.29,30.43,3.13,40.39-11.66,14.08-1.28,29.15-5.11,31.27-12.65-.13-1-.33-1.99-.6-2.96-2.52-9.46-10.46-17.64-12.9-20.22,2.42-15.48,1.7-24.87-3.27-31.26"/>
  <path class="cls-9" d="m94.33,29.11s-1.06,64.94,9.75,77.74"/>
  <path class="cls-9" d="m58.3,77.27s18.69,9.86,30.32,20.37c3.42,3.1,6.24,6.24,7.79,9.21"/>
  <path class="cls-9" d="m88.62,97.64l-14.68-33.71,12.23-2.86s-2.56,17.92-1.43,21.04"/>
  <path class="cls-9" d="m102.47,150.93c-1.85.68-3.9,1.49-6.07,2.84-5.97,3.7-38.1,25.03-38.1,25.03,0,0-7.93,3.69-8.83,8.23"/>
  <path class="cls-9" d="m15.64,146.57s6.95-2.88,16.21-6.74c14.95-6.24,35.91-15.01,43.23-18.29,7.83-3.5,20.76-11.47,29.29-13.53,1.35-.32,2.6-.5,3.69-.5,1.51.01,2.74.39,3.59,1.26.53.51.91,1.23,1.11,2.16.32,1.49.55,3.23.68,5.12.27,3.52.22,7.58-.03,11.57-.18,2.88-.47,5.74-.82,8.33-.49,3.46-1.09,6.46-1.74,8.48-.29.95-.6,1.67-.91,2.14-1.6,2.41-4.22,3.17-7.44,4.35"/>
  <path class="cls-9" d="m24.84,186.03c9.38-7.14,45.11-21.45,49.1-24.01,2.15-1.38,7.81-3.91,12.62-6.84,4.09-2.49,7.55-5.28,7.74-7.91"/>
  <path class="cls-9" d="m86.56,155.18c-2.95-4.25-7.22-12.22-1.25-10.51,2.39.69,5.61,1.29,9.1,1.72,5.2.62,11,.81,15.51.19"/>
  <path class="cls-9" d="m99.19,118.52s-15.06,20.85-16.88,25.92"/>
  <path class="cls-9" d="m58.3,178.79c3.6.19,10.79,9.29,16.77,9.29,2.75-1.7,4.5-7.38,7.23-7.38s10.47,10.24,12,9.86c1.54-.38,3.43-11.57,6.46-11.76,3.04-.19,8.34,12.61,11.28,11.81s5.4-11.43,7.87-11.81c2.46-.38,7.67,6.36,9.04,10.38"/>
  <path class="cls-9" d="m119.91,178.79c3.03-11.18,7.38-19.9,4.92-27.3"/>
  <path class="cls-9" d="m113.61,152.44s-6.97,22.75-12.85,26.35"/>
  <path class="cls-9" d="m82.3,180.7c8.22-3.99,19.98-23.7,20.17-28.26"/>
  <path class="cls-9" d="m167.84,101.01c-.43-1.36-.72-2.22-.72-2.22"/>
  <path class="cls-9" d="m102.47,150.93h.01c.1.03.85.25,2.14.49,1.9.35,5,.75,8.99.69,3.17-.03,6.93-.37,11.09-1.25,1.37-.28,2.8-.63,4.25-1.05,4.22-1.2,7.43-2.16,9.85-2.91,6.46-1.97,7.36-2.47,7.36-2.47,0,0-.51-2.04-.21-4.59.27-2.36,1.24-5.17,3.94-7.22,1.82-1.36,4.68-3.42,7.73-5.58,1.31-.92,2.65-1.87,3.97-2.8,5.19-3.64,9.88-6.88,9.88-6.88.2-1.5-.31-4.35-1.06-7.37-.16-.63-.31-1.28-.49-1.92-.71-2.67-1.51-5.29-2.08-7.06"/>
  <line class="cls-9" x1="138.92" y1="147.27" x2="138.92" y2="178.79"/>
  <path class="cls-9" d="m134.17,190.63c1.67-4.31,3.31-9.69,4.95-11.55.63-.75,1.28-.94,1.93-.29,2.28,2.28,7.96,11.66,11.52,11.09.79-.12,1.77-.51,2.84-1,3.73-1.76,8.61-5,10.81-4.18,2.45.91,5.86,4.63,7.66,4.63.28,0,.53-.1.72-.31.13-.14.3-.4.5-.75,1.74-3.09,5.45-13.15,5.6-15.63.01-.1.01-.18.01-.26,2.42,4.31,5.84,5.99,11.79,6.32.72.04,1.48.07,2.28.07,1.59,0,4.12-.04,7.11-.13,6.56-.18,15.31-.5,21.2-.74,3.8-.14,6.39-.26,6.39-.26"/>
  <path class="cls-9" d="m201.9,178.79s-7.67,9.1-12.8,10.53"/>
  <path class="cls-9" d="m175.1,188.28c6.04-2.81,13.43-1.4,17.41-9.57"/>
  <path class="cls-9" d="m155.12,188.28c2.28-3.09,3.13-8.92,3.99-9.49.85-.57,5.74,2.28,7.11,5.91"/>
  <path class="cls-9" d="m159.11,178.79s1.23-3.25,1.54-5.66"/>
  <path class="cls-9" d="m177.89,156.28c1.34-.32,1.95.33,2.41,2.61.75,3.78,1.5,7.81-.7,9.75-.28.26-.61.47-1,.65-2.82,1.28-9.52,3.63-17.94,3.85-1.77.06-3.62,0-5.52-.17-10.95-.99-12.5-3.9-10.41-3.84,3.45,1.43,21.93-7.4,27.62-10.24,2.63-1.31,4.35-2.33,5.52-2.61"/>
  <polyline class="cls-9" points="179.59 168.64 180.7 172.66 180.72 172.68"/>
  <path class="cls-9" d="m159.89,140.12s8.84,15.4,17.97,16.16h.03"/>
  <path class="cls-9" d="m233.11,113.75s3.16,6.99,5.83,13.87c2.09,5.38,3.88,10.67,3.63,12.51-.78,5.72-28.06,8.15-28.06,8.15"/>
  <path class="cls-9" d="m242.56,140.12s.29,3.41,4.7,1.7"/>
  <line class="cls-9" x1="148.77" y1="59.46" x2="148.77" y2="71.11"/>
  <line class="cls-9" x1="148.77" y1="77.27" x2="148.77" y2="96.71"/>
  <line class="cls-9" x1="153.84" y1="59.95" x2="153.84" y2="71.11"/>
  <line class="cls-9" x1="153.84" y1="77.51" x2="153.84" y2="96.67"/>
  <path class="cls-9" d="m155.14,76.75c-.23.32-.62.52-1.05.52h-5.32c-.7-.03-1.26-.6-1.26-1.31v-3.05c0-.72.58-1.3,1.3-1.31h5.28c.72,0,1.31.59,1.31,1.31v3.05c0,.3-.1.58-.27.79Z"/>
  <path class="cls-9" d="m147.51,75.96s-5.7,18.86-8.36,21.23"/>
  <path class="cls-9" d="m155.14,76.75s7.66,17.6,11.07,21.8"/>
  <path class="cls-9" d="m111.65,108.76c6.36-4.84,16.7-8.35,22.1-9.97,1.23-.36,3.14-.69,5.48-.97,2.75-.31,6.08-.53,9.56-.61,1.67-.04,3.37-.04,5.05-.01,4.6.1,9.06.5,12.39,1.35.31.08.61.16.9.25-.95-11.18,0-14.97,0-14.97,0,0,4.01,2.96,7.77,6.16,1.84,1.57,3.62,3.19,4.83,4.54.59.66,1.06,1.26,1.33,1.76,1.61,2.95,3.62,12.74,4.32,16.34.17.84.26,1.34.26,1.34.21.63.42,1.38.6,2.21.7,3.25.95,7.57-.84,9.36h-.01"/>
  <path class="cls-9" d="m169.92,108.08c-8.82-1.98-19.34-2.09-29.72-.5-3.05.47-6.09,1.08-9.08,1.85-6.24,1.59-12.22,3.81-17.52,6.62"/>
  <polyline class="cls-9" points="131.13 109.43 130.62 120.97 130.25 129.32 129.77 140.12"/>
  <polyline class="cls-9" points="140.21 107.51 140.21 107.58 140.21 119.17 140.21 126.85 140.21 139.85"/>
  <path class="cls-9" d="m113.4,127.63s13.52-6.66,17.22-6.66"/>
  <path class="cls-9" d="m112.57,135.96s15.13-7.01,17.68-6.64"/>
  <path class="cls-9" d="m140.21,119.17s22.73-3.51,31.26-1.8"/>
  <path class="cls-9" d="m140.21,126.85s15.82-3.06,21.38-2.6"/>
  <path class="cls-9" d="m145.95,139.85s-2.39.03-5.74.21c-3.04.14-6.85.39-10.37.79-.95.11-1.86.23-2.74.37-7.76,1.18-16.26,3.22-16.26,3.22"/>
  <path class="cls-9" d="m146.17,144.43c2.75-6.2,5.69-11.33,20.05-10.38,0,0,1.86,2.86,7.32,5.74,5.78,3.05,15.59,6.13,31.5,5.84"/>
  <path class="cls-9" d="m157.63,127.05s9.8.74,12.3,2.26"/>
  <path class="cls-9" d="m185.37,112.62s8.1-1.89,10.37-5.11c2.18,3.75,3.07,9.34,3.35,14.62.11,2.11.13,4.15.09,6.03-.08,4.86-.5,8.48-.5,8.48l6.35,1.21c.91.56,1.8,1.23,2.64,2,2.58,2.33,4.79,5.5,6.42,8.64,2.03,3.89,3.17,7.72,3.07,9.82,0,0-5.95-6.46-11.62-13.13-2.53-3-5.01-6.04-6.86-8.55-.31-.42-.61-.82-.88-1.21-.35-.49-.65-.95-.92-1.37-3.32-5.19-7.02-7.67-11.48-8.53-1.9-.37-3.94-.43-6.15-.3-3.46.21-6.55,2.16-8.84,4.19-2.6,2.27-4.19,4.64-4.19,4.64"/>
  <path class="cls-9" d="m194.29,105.05c-.23-.36-.51-.75-.82-1.16-2.42-3.23-6.86-7.7-13.74-9.37"/>
  <path class="cls-9" d="m195.74,107.51s-.4-.87-1.27-2.18"/>
  <path class="cls-9" d="m186.26,88.51s1.45,5.55,7.07,14.96c.31.51.62,1.05.96,1.58.07.09.12.19.18.28"/>
  <path class="cls-9" d="m210.31,89.08s-5.28,5.9-5.28,8.56,5.94,21.76,5.32,26.37"/>
  <path class="cls-9" d="m199.09,122.14s2.25,2.6,4.48,5.95c2.58,3.88,5.13,8.77,4.11,11.76"/>
  <path class="cls-9" d="m203.57,128.08s2.95-2.32,6.78-4.07c2.58-1.18,5.58-2.11,8.33-1.88,1.31.11,2.88.38,4.54.75,6.78,1.48,15.27,4.58,15.7,4.73.01.01.02.01.02.01"/>
  <path class="cls-9" d="m223.23,122.88s1.37-10.02-1.97-13.45c-.56-.57-1.01-1.2-1.36-1.9-1.77-3.51-.91-8.44,3.61-12.8"/>
  <path class="cls-9" d="m219.91,107.51s10.41-3.05,12.17-7.31"/>
  <path class="cls-9" d="m235.1,102.43c-4.48,3.19-6.92,9.07-6.55,10.39.21.75,2.15,1.01,4.56.9,1.86-.09,4.02-.4,5.85-.9,4.18-1.14,5.03-2.26,5.03-2.26h0"/>
  <path class="cls-9" d="m201.9,88.51c-1.41,1.94-6.93,5.67-10.21,5.64"/>
  <path class="cls-9" d="m190.37,88.3l1.2,5.87.11.56s.92,6.2,1.65,8.74c.06.16.09.3.13.42.1.29.19.49.28.59"/>
  <path class="cls-9" d="m173.53,139.79c7.47-.38,23.13-2.81,24.27-4.37"/>
  <path class="cls-9" d="m186.76,116.04c3.04,1.47,11.66,9.39,12.42,12.12t.01.02"/>
  <path class="cls-9" d="m185.63,113.96s-6.47-1.43-10.74,0"/>
  <path class="cls-9" d="m170.41,110s6.43-13.19,10.64-13.71"/>
  <path class="cls-9" d="m167.84,101.02h0c.12-.29,3.97-9.44,7.05-11.04"/>
  <path class="cls-9" d="m29.1,125.53c-.18.01-.37.03-.55.04-12.67,1.1-22.15,1.04-25.81,7.34-2.87,4.93-3.92,23.23,2.6,30.86"/>
  <path class="cls-9" d="m109.49,34.44c.95-1.76,4.07-3.06,6.48-.86,1.69,1.55,1.69,4.64,1.69,4.64"/>
  <path class="cls-9" d="m113.93,39.97s-3.41,4.84-.8,7.31"/>
  <path class="cls-9" d="m109.92,50.54c.51.6,1.55,1.6,2.85,2.08,1.2.43,2.63.43,4.09-.75"/>
  <path class="cls-9" d="m223.08,177.66c14.23-2.56,33.66-14.04,37.08-15.62"/>
</svg>