<svg xmlns="http://www.w3.org/2000/svg" viewBox="0 0 269.34 205.47"><defs><style>.cls-1{fill:ivory}.cls-1,.cls-2,.cls-3,.cls-4,.cls-5,.cls-6,.cls-7,.cls-8{stroke-width:0}.cls-2{fill:#fb6a57}.cls-9{stroke-miterlimit:10}.cls-10,.cls-9{fill:none;stroke:#000}.cls-3{fill:#f3edd7}.cls-4{fill:#a6849d}.cls-10{stroke-linecap:round;stroke-linejoin:round}.cls-5{fill:#333}.cls-6{fill:#fde5c1}.cls-7{fill:#d2d296}.cls-8{fill:#fedb75}</style></defs><g id="_畳" data-name="畳"><path class="cls-3" d="M.24 170.95h3.61v5.01H.24zM269.09 198.43v6.54h-30.34l15.29-8.6c1.03 1.61 3.1 2.71 5.49 2.71s4.6-1.18 5.6-2.87l3.95 2.22ZM269.09 187.91v10.52l-3.95-2.22c.38-.65.59-1.38.59-2.14 0-1.3-.61-2.47-1.61-3.36l4.97-2.79ZM269.09 175.96v11.95l-4.97 2.79c-1.13-1-2.76-1.63-4.58-1.63s-3.3.58-4.42 1.51l-25.99-14.61h39.96ZM269.09 100.86v5.74H.24v-5.74h268.85zM265.12 170.95h3.98v5.01h-3.98z"/><path class="cls-3" d="M265.73 194.07c0 .76-.21 1.49-.59 2.14l-5.4-3.04 4.38-2.47c.99.89 1.61 2.07 1.61 3.36ZM259.74 193.17l5.4 3.04c-.99 1.7-3.12 2.87-5.6 2.87s-4.46-1.1-5.49-2.71l5.69-3.2Z"/><path class="cls-5" d="M253.85 170.95h11.26v5.01h-11.26z"/><path class="cls-3" d="m264.12 190.7-4.38 2.47-4.62-2.59c1.12-.93 2.69-1.51 4.42-1.51 1.82 0 3.44.63 4.58 1.63Z"/><path class="cls-3" d="m259.74 193.17-5.69 3.2c-.44-.68-.69-1.47-.69-2.3 0-1.37.67-2.59 1.76-3.49l4.62 2.59Z"/><path class="cls-3" d="m229.13 175.96 25.99 14.61c-1.09.9-1.76 2.13-1.76 3.49 0 .83.25 1.62.69 2.3l-15.29 8.6h-41.32l-15.59-8.76c.38-.65.59-1.38.59-2.14 0-1.3-.61-2.47-1.61-3.36l26.24-14.75h22.07Zm-5.94 18.1c0-2.76-2.24-5-5-5s-5.01 2.24-5.01 5 2.24 5.01 5.01 5.01 5-2.24 5-5.01Z"/><path class="cls-3" d="M253.85 175.96h-30.4v-5.01h30.4v5.01z"/><path class="cls-5" d="M212.19 170.95h11.26v5.01h-11.26zM218.19 189.07c2.76 0 5 2.24 5 5s-2.24 5.01-5 5.01-5.01-2.24-5.01-5.01 2.24-5 5.01-5Z"/><path class="cls-3" d="m207.07 175.96-26.24 14.75c-1.13-1.01-2.76-1.64-4.58-1.64s-3.3.58-4.42 1.51l-25.99-14.61h61.22ZM181.78 175.96v-5.01h30.41v5.01h-30.41zM197.44 204.97h-41.97l15.29-8.6c1.03 1.61 3.11 2.71 5.49 2.71s4.6-1.18 5.6-2.87l15.59 8.76Z"/><path class="cls-3" d="M182.44 194.07c0 .76-.21 1.49-.59 2.14l-5.4-3.04 4.38-2.46c.99.88 1.61 2.06 1.61 3.36Z"/><path class="cls-3" d="m176.45 193.17 5.4 3.04c-.99 1.7-3.12 2.87-5.6 2.87s-4.46-1.1-5.49-2.71l5.69-3.2Z"/><path class="cls-5" d="M170.52 170.95h11.26v5.01h-11.26z"/><path class="cls-3" d="M176.25 189.07c1.82 0 3.44.63 4.58 1.64l-4.38 2.46-4.62-2.59c1.12-.93 2.69-1.51 4.42-1.51Z"/><path class="cls-3" d="m176.45 193.17-5.69 3.2c-.44-.68-.69-1.47-.69-2.3 0-1.37.67-2.59 1.76-3.49l4.62 2.59Z"/><path class="cls-3" d="m145.84 175.96 25.99 14.61c-1.09.9-1.76 2.13-1.76 3.49 0 .83.25 1.62.69 2.3l-15.29 8.6h-41.32l-15.59-8.76c.38-.65.59-1.38.59-2.14 0-1.3-.61-2.47-1.61-3.36l26.24-14.75h22.07Zm-6.99 18.1c0-2.76-2.24-5-5-5s-5.01 2.24-5.01 5 2.24 5.01 5.01 5.01 5-2.24 5-5.01Z"/><path class="cls-3" d="M170.52 175.96h-30.41v-5.01h30.41v5.01z"/><path class="cls-5" d="M128.85 170.95h11.26v5.01h-11.26zM133.85 189.07c2.76 0 5 2.24 5 5s-2.24 5.01-5 5.01-5.01-2.24-5.01-5.01 2.24-5 5.01-5Z"/><path class="cls-3" d="m123.78 175.96-26.24 14.75c-1.13-1.01-2.76-1.64-4.58-1.64s-3.3.58-4.42 1.51l-25.99-14.61h61.22ZM128.85 175.96h-30.4v-5.01h30.4v5.01zM114.15 204.97H72.18l15.29-8.6c1.03 1.61 3.1 2.71 5.49 2.71s4.6-1.18 5.6-2.87l15.59 8.76Z"/><path class="cls-3" d="M99.15 194.07c0 .76-.21 1.49-.59 2.14l-5.4-3.04 4.38-2.46c.99.88 1.61 2.06 1.61 3.36Z"/><path class="cls-3" d="m93.16 193.17 5.4 3.04c-.99 1.7-3.12 2.87-5.6 2.87s-4.46-1.1-5.49-2.71l5.69-3.2Z"/><path class="cls-5" d="M87.19 170.95h11.26v5.01H87.19z"/><path class="cls-3" d="M92.96 189.07c1.82 0 3.44.63 4.58 1.64l-4.38 2.46-4.62-2.59c1.12-.93 2.69-1.51 4.42-1.51Z"/><path class="cls-3" d="m93.16 193.17-5.69 3.2c-.44-.68-.69-1.47-.69-2.3 0-1.37.67-2.59 1.76-3.49l4.62 2.59Z"/><path class="cls-3" d="m62.55 175.96 25.99 14.61c-1.09.9-1.76 2.13-1.76 3.49 0 .83.25 1.62.69 2.3l-15.29 8.6H30.67l-15.59-8.76c.38-.65.59-1.38.59-2.14 0-1.3-.61-2.47-1.61-3.36l26.24-14.75h22.26Zm-8.49 18.1c0-2.76-2.24-5-5-5s-5.01 2.24-5.01 5 2.24 5.01 5.01 5.01 5-2.24 5-5.01Z"/><path class="cls-3" d="M87.19 175.96H56.78v-5.01h30.41v5.01z"/><path class="cls-5" d="M45.52 170.95h11.26v5.01H45.52zM49.06 189.07c2.76 0 5 2.24 5 5s-2.24 5.01-5 5.01-5.01-2.24-5.01-5.01 2.24-5 5.01-5Z"/><path class="cls-3" d="M45.52 175.96H15.11v-5.01h30.41v5.01zM30.67 204.97H.24v-6.5l3.75-2.1c1.03 1.61 3.11 2.71 5.49 2.71s4.6-1.18 5.6-2.87l15.59 8.76ZM15.67 194.07c0 .76-.21 1.49-.59 2.14l-5.4-3.04 4.38-2.46c.99.88 1.61 2.06 1.61 3.36Z"/><path class="cls-5" d="M3.85 170.95h11.26v5.01H3.85z"/><path class="cls-3" d="m9.68 193.17 5.4 3.04c-.99 1.7-3.12 2.87-5.6 2.87s-4.46-1.1-5.49-2.71l5.69-3.2ZM9.48 189.07c1.82 0 3.44.63 4.58 1.64l-4.38 2.46-4.62-2.59c1.12-.93 2.69-1.51 4.42-1.51Z"/><path class="cls-3" d="m9.68 193.17-5.69 3.2c-.44-.68-.69-1.47-.69-2.3 0-1.37.67-2.59 1.76-3.49l4.62 2.59Z"/><path class="cls-3" d="m.24 187.86 4.82 2.71c-1.09.9-1.76 2.13-1.76 3.49 0 .83.25 1.62.69 2.3l-3.75 2.1v-10.6Z"/><path class="cls-7" d="M212.19 170.95H.24V106.6H269.09v64.35h-56.9z"/><path class="cls-3" d="M.24 175.96h40.05l-26.24 14.75c-1.13-1.01-2.76-1.64-4.58-1.64s-3.3.58-4.42 1.51l-4.82-2.71v-11.9Z"/><path class="cls-9" d="M269.09 204.97H.24M.24 100.86h268.85M.24 106.6h268.85M265.12 170.95h3.97M223.45 170.95h30.4M181.78 170.95h30.41M140.11 170.95h30.41M98.45 170.95h30.4M56.78 170.95h30.41M15.11 170.95h30.41M.24 170.95h3.61M265.12 175.96h3.97M223.45 175.96h30.4M181.78 175.96h30.41M140.11 175.96h30.41M98.45 175.96h30.4M56.78 175.96h30.41M15.11 175.96h30.41M.24 175.96h3.61M72.18 204.97l15.29-8.6 5.69-3.2 4.38-2.46 26.24-14.75"/><path class="cls-9" d="m114.15 204.97-15.59-8.77-5.4-3.03-4.62-2.6-25.99-14.61M138.85 194.07a5.004 5.004 0 1 1-10.01 0c0-2.77 2.24-5 5.01-5s5 2.24 5 5ZM223.19 194.07a5.004 5.004 0 1 1-10.01 0c0-2.77 2.24-5 5.01-5s5 2.24 5 5Z"/><path class="cls-9" d="M97.54 190.71c.99.88 1.61 2.06 1.61 3.36 0 .76-.21 1.49-.59 2.14-.99 1.7-3.12 2.87-5.6 2.87s-4.46-1.1-5.49-2.71c-.44-.68-.69-1.47-.69-2.3 0-1.37.67-2.59 1.76-3.49 1.12-.93 2.69-1.51 4.42-1.51 1.82 0 3.44.63 4.58 1.64ZM.24 198.47l3.75-2.1 5.69-3.2 4.38-2.46 26.23-14.75"/><path class="cls-9" d="m30.67 204.97-15.59-8.77-5.4-3.03-4.62-2.6-4.82-2.71"/><path class="cls-9" d="M14.06 190.71c.99.88 1.61 2.06 1.61 3.36 0 .76-.21 1.49-.59 2.14-.99 1.7-3.12 2.87-5.6 2.87s-4.46-1.1-5.49-2.71c-.44-.68-.69-1.47-.69-2.3 0-1.37.67-2.59 1.76-3.49 1.12-.93 2.69-1.51 4.42-1.51 1.82 0 3.44.63 4.58 1.64ZM155.47 204.97l15.29-8.6 5.69-3.2 4.38-2.46 26.24-14.75"/><path class="cls-9" d="m197.44 204.97-15.59-8.77-5.4-3.03-4.62-2.6-25.99-14.61"/><path class="cls-9" d="M180.83 190.71c.99.88 1.61 2.06 1.61 3.36 0 .76-.21 1.49-.59 2.14-.99 1.7-3.12 2.87-5.6 2.87s-4.46-1.1-5.49-2.71c-.44-.68-.69-1.47-.69-2.3 0-1.37.67-2.59 1.76-3.49 1.12-.93 2.69-1.51 4.42-1.51 1.82 0 3.44.63 4.58 1.64ZM238.76 204.97l15.29-8.6 5.69-3.2 4.38-2.47 4.97-2.79"/><path class="cls-9" d="m269.09 198.43-3.95-2.23-5.4-3.03-4.62-2.6-25.99-14.61"/><path class="cls-9" d="M264.12 190.7c.99.89 1.61 2.07 1.61 3.36 0 .76-.21 1.49-.59 2.14-.99 1.7-3.12 2.87-5.6 2.87s-4.46-1.1-5.49-2.71c-.44-.68-.69-1.47-.69-2.3 0-1.37.67-2.59 1.76-3.49 1.12-.93 2.69-1.51 4.42-1.51 1.82 0 3.44.63 4.58 1.63ZM54.06 194.07a5.004 5.004 0 1 1-10.01 0c0-2.77 2.24-5 5.01-5s5 2.24 5 5ZM3.85 170.95h11.26v5.01H3.85zM45.52 170.95h11.26v5.01H45.52zM87.19 170.95h11.26v5.01H87.19zM128.85 170.95h11.26v5.01h-11.26zM170.52 170.95h11.26v5.01h-11.26zM212.19 170.95h11.26v5.01h-11.26zM253.85 170.95h11.26v5.01h-11.26z"/><path class="cls-3" d="M.24 170.95h3.61v5.01H.24zM269.09 198.43v6.54h-30.34l15.29-8.6c1.03 1.61 3.1 2.71 5.49 2.71s4.6-1.18 5.6-2.87l3.95 2.22ZM269.09 187.91v10.52l-3.95-2.22c.38-.65.59-1.38.59-2.14 0-1.3-.61-2.47-1.61-3.36l4.97-2.79ZM269.09 175.96v11.95l-4.97 2.79c-1.13-1-2.76-1.63-4.58-1.63s-3.3.58-4.42 1.51l-25.99-14.61h39.96ZM269.09 100.86v5.74H.24v-5.74h268.85zM265.12 170.95h3.98v5.01h-3.98z"/><path class="cls-3" d="M265.73 194.07c0 .76-.21 1.49-.59 2.14l-5.4-3.04 4.38-2.47c.99.89 1.61 2.07 1.61 3.36ZM259.74 193.17l5.4 3.04c-.99 1.7-3.12 2.87-5.6 2.87s-4.46-1.1-5.49-2.71l5.69-3.2Z"/><path class="cls-5" d="M253.85 170.95h11.26v5.01h-11.26z"/><path class="cls-3" d="m264.12 190.7-4.38 2.47-4.62-2.59c1.12-.93 2.69-1.51 4.42-1.51 1.82 0 3.44.63 4.58 1.63Z"/><path class="cls-3" d="m259.74 193.17-5.69 3.2c-.44-.68-.69-1.47-.69-2.3 0-1.37.67-2.59 1.76-3.49l4.62 2.59Z"/><path class="cls-3" d="m229.13 175.96 25.99 14.61c-1.09.9-1.76 2.13-1.76 3.49 0 .83.25 1.62.69 2.3l-15.29 8.6h-41.32l-15.59-8.76c.38-.65.59-1.38.59-2.14 0-1.3-.61-2.47-1.61-3.36l26.24-14.75h22.07Zm-5.94 18.1c0-2.76-2.24-5-5-5s-5.01 2.24-5.01 5 2.24 5.01 5.01 5.01 5-2.24 5-5.01Z"/><path class="cls-3" d="M253.85 175.96h-30.4v-5.01h30.4v5.01z"/><path class="cls-5" d="M212.19 170.95h11.26v5.01h-11.26zM218.19 189.07c2.76 0 5 2.24 5 5s-2.24 5.01-5 5.01-5.01-2.24-5.01-5.01 2.24-5 5.01-5Z"/><path class="cls-3" d="m207.07 175.96-26.24 14.75c-1.13-1.01-2.76-1.64-4.58-1.64s-3.3.58-4.42 1.51l-25.99-14.61h61.22ZM181.78 175.96v-5.01h30.41v5.01h-30.41zM197.44 204.97h-41.97l15.29-8.6c1.03 1.61 3.11 2.71 5.49 2.71s4.6-1.18 5.6-2.87l15.59 8.76Z"/><path class="cls-3" d="M182.44 194.07c0 .76-.21 1.49-.59 2.14l-5.4-3.04 4.38-2.46c.99.88 1.61 2.06 1.61 3.36Z"/><path class="cls-3" d="m176.45 193.17 5.4 3.04c-.99 1.7-3.12 2.87-5.6 2.87s-4.46-1.1-5.49-2.71l5.69-3.2Z"/><path class="cls-5" d="M170.52 170.95h11.26v5.01h-11.26z"/><path class="cls-3" d="M176.25 189.07c1.82 0 3.44.63 4.58 1.64l-4.38 2.46-4.62-2.59c1.12-.93 2.69-1.51 4.42-1.51Z"/><path class="cls-3" d="m176.45 193.17-5.69 3.2c-.44-.68-.69-1.47-.69-2.3 0-1.37.67-2.59 1.76-3.49l4.62 2.59Z"/><path class="cls-3" d="m145.84 175.96 25.99 14.61c-1.09.9-1.76 2.13-1.76 3.49 0 .83.25 1.62.69 2.3l-15.29 8.6h-41.32l-15.59-8.76c.38-.65.59-1.38.59-2.14 0-1.3-.61-2.47-1.61-3.36l26.24-14.75h22.07Zm-6.99 18.1c0-2.76-2.24-5-5-5s-5.01 2.24-5.01 5 2.24 5.01 5.01 5.01 5-2.24 5-5.01Z"/><path class="cls-3" d="M170.52 175.96h-30.41v-5.01h30.41v5.01z"/><path class="cls-5" d="M128.85 170.95h11.26v5.01h-11.26zM133.85 189.07c2.76 0 5 2.24 5 5s-2.24 5.01-5 5.01-5.01-2.24-5.01-5.01 2.24-5 5.01-5Z"/><path class="cls-3" d="m123.78 175.96-26.24 14.75c-1.13-1.01-2.76-1.64-4.58-1.64s-3.3.58-4.42 1.51l-25.99-14.61h61.22ZM128.85 175.96h-30.4v-5.01h30.4v5.01zM114.15 204.97H72.18l15.29-8.6c1.03 1.61 3.1 2.71 5.49 2.71s4.6-1.18 5.6-2.87l15.59 8.76Z"/><path class="cls-3" d="M99.15 194.07c0 .76-.21 1.49-.59 2.14l-5.4-3.04 4.38-2.46c.99.88 1.61 2.06 1.61 3.36Z"/><path class="cls-3" d="m93.16 193.17 5.4 3.04c-.99 1.7-3.12 2.87-5.6 2.87s-4.46-1.1-5.49-2.71l5.69-3.2Z"/><path class="cls-5" d="M87.19 170.95h11.26v5.01H87.19z"/><path class="cls-3" d="M92.96 189.07c1.82 0 3.44.63 4.58 1.64l-4.38 2.46-4.62-2.59c1.12-.93 2.69-1.51 4.42-1.51Z"/><path class="cls-3" d="m93.16 193.17-5.69 3.2c-.44-.68-.69-1.47-.69-2.3 0-1.37.67-2.59 1.76-3.49l4.62 2.59Z"/><path class="cls-3" d="m62.55 175.96 25.99 14.61c-1.09.9-1.76 2.13-1.76 3.49 0 .83.25 1.62.69 2.3l-15.29 8.6H30.67l-15.59-8.76c.38-.65.59-1.38.59-2.14 0-1.3-.61-2.47-1.61-3.36l26.24-14.75h22.26Zm-8.49 18.1c0-2.76-2.24-5-5-5s-5.01 2.24-5.01 5 2.24 5.01 5.01 5.01 5-2.24 5-5.01Z"/><path class="cls-3" d="M87.19 175.96H56.78v-5.01h30.41v5.01z"/><path class="cls-5" d="M45.52 170.95h11.26v5.01H45.52zM49.06 189.07c2.76 0 5 2.24 5 5s-2.24 5.01-5 5.01-5.01-2.24-5.01-5.01 2.24-5 5.01-5Z"/><path class="cls-3" d="M45.52 175.96H15.11v-5.01h30.41v5.01zM30.67 204.97H.24v-6.5l3.75-2.1c1.03 1.61 3.11 2.71 5.49 2.71s4.6-1.18 5.6-2.87l15.59 8.76ZM15.67 194.07c0 .76-.21 1.49-.59 2.14l-5.4-3.04 4.38-2.46c.99.88 1.61 2.06 1.61 3.36Z"/><path class="cls-5" d="M3.85 170.95h11.26v5.01H3.85z"/><path class="cls-3" d="m9.68 193.17 5.4 3.04c-.99 1.7-3.12 2.87-5.6 2.87s-4.46-1.1-5.49-2.71l5.69-3.2ZM9.48 189.07c1.82 0 3.44.63 4.58 1.64l-4.38 2.46-4.62-2.59c1.12-.93 2.69-1.51 4.42-1.51Z"/><path class="cls-3" d="m9.68 193.17-5.69 3.2c-.44-.68-.69-1.47-.69-2.3 0-1.37.67-2.59 1.76-3.49l4.62 2.59Z"/><path class="cls-3" d="m.24 187.86 4.82 2.71c-1.09.9-1.76 2.13-1.76 3.49 0 .83.25 1.62.69 2.3l-3.75 2.1v-10.6Z"/><path class="cls-7" d="M212.19 170.95H.24V106.6H269.09v64.35h-56.9z"/><path class="cls-3" d="M.24 175.96h40.05l-26.24 14.75c-1.13-1.01-2.76-1.64-4.58-1.64s-3.3.58-4.42 1.51l-4.82-2.71v-11.9Z"/><path class="cls-9" d="M269.09 204.97H.24M.24 100.86h268.85M.24 106.6h268.85M265.12 170.95h3.97M223.45 170.95h30.4M181.78 170.95h30.41M140.11 170.95h30.41M98.45 170.95h30.4M56.78 170.95h30.41M15.11 170.95h30.41M.24 170.95h3.61M265.12 175.96h3.97M223.45 175.96h30.4M181.78 175.96h30.41M140.11 175.96h30.41M98.45 175.96h30.4M56.78 175.96h30.41M15.11 175.96h30.41M.24 175.96h3.61M72.18 204.97l15.29-8.6 5.69-3.2 4.38-2.46 26.24-14.75"/><path class="cls-9" d="m114.15 204.97-15.59-8.77-5.4-3.03-4.62-2.6-25.99-14.61M138.85 194.07a5.004 5.004 0 1 1-10.01 0c0-2.77 2.24-5 5.01-5s5 2.24 5 5ZM223.19 194.07a5.004 5.004 0 1 1-10.01 0c0-2.77 2.24-5 5.01-5s5 2.24 5 5Z"/><path class="cls-9" d="M97.54 190.71c.99.88 1.61 2.06 1.61 3.36 0 .76-.21 1.49-.59 2.14-.99 1.7-3.12 2.87-5.6 2.87s-4.46-1.1-5.49-2.71c-.44-.68-.69-1.47-.69-2.3 0-1.37.67-2.59 1.76-3.49 1.12-.93 2.69-1.51 4.42-1.51 1.82 0 3.44.63 4.58 1.64ZM.24 198.47l3.75-2.1 5.69-3.2 4.38-2.46 26.23-14.75"/><path class="cls-9" d="m30.67 204.97-15.59-8.77-5.4-3.03-4.62-2.6-4.82-2.71"/><path class="cls-9" d="M14.06 190.71c.99.88 1.61 2.06 1.61 3.36 0 .76-.21 1.49-.59 2.14-.99 1.7-3.12 2.87-5.6 2.87s-4.46-1.1-5.49-2.71c-.44-.68-.69-1.47-.69-2.3 0-1.37.67-2.59 1.76-3.49 1.12-.93 2.69-1.51 4.42-1.51 1.82 0 3.44.63 4.58 1.64ZM155.47 204.97l15.29-8.6 5.69-3.2 4.38-2.46 26.24-14.75"/><path class="cls-9" d="m197.44 204.97-15.59-8.77-5.4-3.03-4.62-2.6-25.99-14.61"/><path class="cls-9" d="M180.83 190.71c.99.88 1.61 2.06 1.61 3.36 0 .76-.21 1.49-.59 2.14-.99 1.7-3.12 2.87-5.6 2.87s-4.46-1.1-5.49-2.71c-.44-.68-.69-1.47-.69-2.3 0-1.37.67-2.59 1.76-3.49 1.12-.93 2.69-1.51 4.42-1.51 1.82 0 3.44.63 4.58 1.64ZM238.76 204.97l15.29-8.6 5.69-3.2 4.38-2.47 4.97-2.79"/><path class="cls-9" d="m269.09 198.43-3.95-2.23-5.4-3.03-4.62-2.6-25.99-14.61"/><path class="cls-9" d="M264.12 190.7c.99.89 1.61 2.07 1.61 3.36 0 .76-.21 1.49-.59 2.14-.99 1.7-3.12 2.87-5.6 2.87s-4.46-1.1-5.49-2.71c-.44-.68-.69-1.47-.69-2.3 0-1.37.67-2.59 1.76-3.49 1.12-.93 2.69-1.51 4.42-1.51 1.82 0 3.44.63 4.58 1.63ZM54.06 194.07a5.004 5.004 0 1 1-10.01 0c0-2.77 2.24-5 5.01-5s5 2.24 5 5ZM3.85 170.95h11.26v5.01H3.85zM45.52 170.95h11.26v5.01H45.52zM87.19 170.95h11.26v5.01H87.19zM128.85 170.95h11.26v5.01h-11.26zM170.52 170.95h11.26v5.01h-11.26zM212.19 170.95h11.26v5.01h-11.26zM253.85 170.95h11.26v5.01h-11.26z"/></g><g id="_レイヤー_2" data-name="レイヤー 2"><path class="cls-1" d="M226.93 132c2.27-.79 2.59-3.62 4.65-8.92 8.39 6.77 13.1 10.74 16.19 10.74-8.98 1.32-20.47 1.47-20.47 1.47.03-1.12-.11-2.21-.38-3.3Z"/><path class="cls-4" d="M202.43 99.52c13.1.44 16.5-.44 21.8 3.54 5.29 3.97 7.07 9.71 7.21 14.87l.15 5.16c-2.07 5.29-2.39 8.13-4.65 8.92-3.09-12.37-24.11-22.59-34.81-27.45.04-.46-.23-1.69-.63-3.15 3.58-1.3 7.41-1.98 10.93-1.89Z"/><path class="cls-2" d="M194.63 134.76c11.47-.45 27.44-.77 31.11 2.46-5.37 6.4-9.86 9.72-24.78 9.86-6.33.15-15.02 0-15.02 0 0-4.42 8.68-12.32 8.68-12.32Z"/><path class="cls-1" d="M191.49 101.41c-.84-3.04-2.21-7.08-2.29-7.33 4.56 1.47 11.47 4.26 13.23 5.44-3.52-.1-7.35.59-10.93 1.89ZM189.19 94.07Z"/><path class="cls-1" d="M192.13 104.56c10.7 4.85 31.72 15.08 34.81 27.45.27 1.08.41 2.18.38 3.3-.54.67-1.06 1.31-1.57 1.92-3.68-3.23-19.64-2.91-31.11-2.46-.65.03-1.29.05-1.91.08-1.44.06-2.77.11-3.98.16-10.89.44-14.64 0-20.16.22-5.53.22-11.05-9.94-11.93-11.7-.33-.67-.57-.99-.88-.99l.9-1.76c-3.46-1.85-8.07-4.77-10.13-6.1l-.16-.13c1.63-2.02 3.22-5.54 4.42-10 1.23-4.52 2.04-10.01 2.08-15.83 10.61-1.87 27.26-6.21 33.51-5.25.74 2.94 2.8 10.6 2.8 10.6.08.26 1.45 4.3 2.29 7.34.4 1.46.67 2.69.63 3.15Z"/><path class="cls-2" d="M192.72 134.84c-2.21 1.62-15.31 5.47-28.12 6.5-12.81 1.03-26.51-4.12-26.51-4.12 4.2-4.42 12.13-9.5 14.79-12.15 1.66-1.65 2.37-2.53 2.89-2.53.31 0 .55.32.88.99.88 1.76 6.4 11.92 11.93 11.7 5.52-.22 9.27.22 20.16-.22 1.21-.05 2.54-.1 3.98-.16Z"/><path class="cls-1" d="M186.38 83.48c-6.25-.96-22.9 3.38-33.51 5.25 0-1.77-.06-3.58-.21-5.4-.03-.39-.07-.77-.12-1.14-.58-4.45-2.37-8.17-4.74-11.27 0 0 11.51-9.21 14.58-9.96 4.56-1.48 9.42-1.63 11.63 1.91 2.21 3.53 2.66 6.92 4.57 9.57 1.91 2.66 7.07 8.1 7.8 11.05Z"/><path class="cls-2" d="M139.45 63.34s11.08-10.86 13.36-11.23c2.36 1.04 8.84 7.96 9.58 8.84-3.07.75-14.58 9.96-14.58 9.96-2.4-3.14-5.41-5.63-8.36-7.58Z"/><path class="cls-8" d="M125.51 87.12c0 5.8 4.71 10.51 10.51 10.51s10.51-4.71 10.51-10.51-4.71-10.51-10.51-10.51-10.51 4.71-10.51 10.51Zm6.3-27.88c2.13.93 4.85 2.27 7.64 4.1 2.94 1.95 5.95 4.44 8.36 7.58 2.37 3.1 4.16 6.82 4.74 11.27.05.37.09.75.12 1.14.15 1.82.22 3.62.21 5.4-.03 5.82-.85 11.31-2.08 15.83-1.2 4.45-2.79 7.98-4.42 10-.21.27-.42.51-.63.72-6.39-3.3-13.49-7.34-19.96-11.18-1.11-.65-2.2-1.3-3.25-1.93.25-.96.45-1.89.6-2.77.21-1.2.32-2.35.36-3.45.09-1.82-.03-3.5-.25-5.14a40.82 40.82 0 0 0-.74-3.69c-.14-.56-.29-1.1-.45-1.63-.51-1.77-1.12-3.36-1.73-4.81-.42-.98-.85-1.89-1.26-2.74-.5-1.05-.99-2.01-1.43-2.92l13.55-16.06c.21.09.42.18.64.28Z"/><path class="cls-1" d="M139.45 63.34c-2.79-1.83-5.51-3.17-7.64-4.1l2.16-1.38c1.18-1.03 4.11-11.42 4.11-11.42.86-1.1 1.37-1.83 1.37-1.83 4.96 2.05 10.64 4.91 13.36 7.51-2.28.37-13.36 11.23-13.36 11.23ZM125.78 104.1c6.48 3.84 13.57 7.88 19.96 11.18.22-.21.42-.45.63-.72l.16.13c2.06 1.33 6.67 4.25 10.13 6.1l-.9 1.76c-.52 0-1.23.87-2.89 2.53-2.66 2.66-10.59 7.73-14.79 12.15 0 0-4.19-3.98-11.25-13.04-1.71-2.19-2.67-4.47-3.14-6.68-1.48-6.88 1.83-12.95 1.83-12.95l.27-.46Z"/><circle class="cls-2" cx="136.02" cy="87.12" r="10.51"/><path class="cls-4" d="M136.91 152.82c-.77.07-1.63.14-2.59.19-.07 0-.15 0-.22.02 1.91-1.42 1.76-14.05 1.76-14.05 1.52-1.38 2.21-1.76 2.21-1.76s13.7 5.15 26.51 4.12c12.81-1.03 25.92-4.88 28.12-6.5.62-.03 1.26-.05 1.91-.08 0 0-8.68 7.9-8.68 12.32-6.25 1.57-19.46 3.01-31.23 4.13-7.06.67-13.61 1.22-17.8 1.61Z"/><path class="cls-4" d="M127.27 148.29c4.1-4.94 6.89-7.75 8.61-9.31 0 0 .15 12.27-1.76 13.69v.36c-.16-.27-2.77-4.34-6.83-4.74Z"/><path class="cls-5" d="M128.71 39.05c-.22.55-3.75-3.12-3.75-3.12.23-.09.49-.22.76-.38 1.23-.75 1.93-1.96 2.31-3.27 0 0 .9 6.22.67 6.77Z"/><path class="cls-6" d="M125.39 26.13c.57 0 1.09.07 1.53.22.9.33 1.5 1.03 1.52 2.27.03 1.09-.05 2.41-.42 3.65-.38 1.31-1.08 2.52-2.31 3.27-.27.16-.53.29-.76.37s3.52 3.68 3.75 3.13c0 0 1.09 1.38 2.02 2.78.79 1.19 1.45 2.4 1.19 2.76v.02c-1.92 2.17-5.41 5.68-8.82 8.1-5.01 3.54-7.95-1.26-7.95-1.26-5.54.25-9.02-1.36-11.26-3.48-2.58-2.43-3.55-5.53-4.2-7.33-1.33-3.68-1.63-12.08-1.19-15.76.44-3.68 4.57-9.57 7.53-10.38 3.95.26 6.52.26 7.45.26 1.11 0 1.99.55 2.66 2.43.66 1.88 3.64 9.94 4.08 11.37s.92 2.21 1.27 2.32c.35.11.64-.7.64-.7.29-.8 1.25-4.05 3.28-4.05Z"/><path class="cls-8" d="M123.24 90.81c.22 1.63.34 3.32.25 5.14l-18.09-5.09 17.83-.05Z"/><path class="cls-8" d="M123.49 95.95c-.04 1.1-.16 2.25-.36 3.45l-17.72-8.54 18.09 5.09ZM122.05 85.49c.16.53.31 1.06.45 1.63.3 1.21.55 2.44.74 3.69l-17.83.05 16.64-5.37Z"/><path class="cls-5" d="M91.38.51c2.66.11 23.19 2.21 25.29 2.32 2.09.11 4.85.45 5.73 2.21s-.66 5.19-1.54 5.85c2.21 6.4 5.81 14.13 6.05 15.47-.44-.16-.96-.22-1.53-.22-2.02 0-2.98 3.24-3.28 4.05 0 0-.29.81-.64.7-.35-.11-.83-.88-1.27-2.32s-3.43-9.5-4.08-11.37c-.67-1.88-1.55-2.43-2.66-2.43-.93 0-3.49 0-7.45-.27-.74-.04-1.54-.1-2.38-.17-.22-1.11 1.88-5.74 1.88-5.74-1.99-.1-7.28-.33-9.94-.77-2.65-.44-6.07-4.08-6.84-5.08-.78-.99 0-2.32 2.65-2.21Z"/><path class="cls-8" d="m122.05 85.49-16.64 5.37 14.79-10.13.12-.05c.61 1.45 1.22 3.04 1.73 4.81ZM120.32 80.68l-.12.05-14.79 10.13 1.87-1.77 11.78-11.15c.42.86.85 1.76 1.26 2.74Z"/><path class="cls-8" d="M117.63 75.03c.44.91.93 1.87 1.43 2.92L107.28 89.1l-.3-.32c.8-.82 1.35-1.89 1.1-2.42l9.56-11.32Z"/><path class="cls-1" d="M133.38 51.47c1.96-1.74 3.62-3.67 4.71-5.03 0 0-2.93 10.39-4.11 11.42l-2.16 1.38c-.22-.1-.43-.19-.64-.28l-13.55 16.06-9.56 11.32c-.1-.21-.31-.33-.67-.31-1.65.05-8.83 2.04-12.32 3.49.29-1.15.56-2.31.84-3.49l-4.06-1.26.45-1.44c1.62-2.69 1.99-7.51 1.84-12.42 2.05-1.51 11.5-14.51 13.03-16.62 3.17 3.17 6.9 6.7 7.95 6.95 5.45-.74 15.6-7.43 18.25-9.77Z"/><path class="cls-8" d="M122.53 102.16c-7.45-4.45-13.71-8.4-16.58-10.22-.03 0-.05-.03-.08-.04-.44-.3-.96-.66-1.54-1.11l.61-.73c.29-.15.65-.33 1.02-.53.35-.19.7-.46 1.01-.76l.3.32-1.87 1.77 17.72 8.54c-.15.88-.35 1.81-.6 2.76Z"/><path class="cls-1" d="M107.18 54.3c-2.54-2.53-4.73-4.83-4.89-4.99.86-.91 1.57-1.35 1.57-1.35 2.24 2.12 5.72 3.73 11.26 3.48 0 0 2.94 4.8 7.95 1.26 3.42-2.41 6.9-5.93 8.82-8.1v-.02c.27-.35-.4-1.57-1.19-2.76.94-.08 4.58 1.06 8.73 2.78 0 0-.5.74-1.37 1.83-1.08 1.37-2.74 3.3-4.71 5.03-2.66 2.34-12.8 9.04-18.25 9.77-1.05-.24-4.77-3.78-7.95-6.95Z"/><path class="cls-1" d="M102.29 49.31c.16.16 2.34 2.46 4.89 4.99-1.53 2.11-10.98 15.11-13.03 16.62-.14-4.39-.7-8.87-1.16-11.95-.37-2.46-.68-4.05-.68-4.05 2.79-2.66 7.89-4.57 9.1-4.57.29-.4.6-.74.88-1.04ZM101.19 98.48c1.74.7 2.49.41 2.49.41s.9-.98.79-1.25c-.03-.07-.2-.19-.43-.34.6.13 1.13.11 1.33-.09.44-.44.8-.83.74-1.21-.05-.34-1.78-1.59-2.21-1.89.68.44 2.26 1.27 3.28 1.19.36-.03.67-.68.77-.99.3-.91-.38-1.26-2-2.36 2.87 1.83 9.13 5.77 16.58 10.22 1.06.64 2.15 1.29 3.25 1.94l-.27.46s-3.3 6.07-1.83 12.95l-.26.05c-9.31 2.87-16.85 3.12-22.66 2.3V99.46l.42-.98Z"/><path class="cls-1" d="M96.96 96.19s1.76 1.16 3.81 2.1c.15.07.29.13.42.18l-.42.98v20.4c-4.05-.57-7.25-1.66-9.63-2.76-3.45-1.58-5.16-3.17-5.16-3.17 3.38-5.22 5.58-11.23 7.43-17.92.72.47 3.54.2 3.54.2Z"/><path class="cls-6" d="M103.68 98.88s-.75.29-2.49-.41c-.14-.05-.28-.11-.42-.18-2.04-.94-3.81-2.1-3.81-2.1s-2.82.27-3.54-.2c.57-2.09 1.12-4.25 1.65-6.46 3.49-1.45 10.67-3.44 12.32-3.49.36-.02.58.1.67.31l-3.13 3.71c-.55.29-.93.48-.93.48.11.09.22.16.32.24l-.07.08s.57.37 1.61 1.03a.3.3 0 0 0 .08.04c1.62 1.1 2.3 1.45 2 2.36-.1.3-.41.96-.77.99-1.02.09-2.59-.74-3.28-1.19.42.3 2.15 1.56 2.21 1.89.06.38-.29.77-.74 1.21-.2.2-.74.22-1.33.09-.67-.39-1.89-.93-1.89-.93.39.45 1.18.8 1.89.93.23.15.41.27.43.34.11.28-.79 1.25-.79 1.25Z"/><path class="cls-2" d="M92.99 58.96c.46 3.09 1.02 7.56 1.16 11.95.15 4.91-.22 9.73-1.84 12.42-.57-5.18-12.52-17.4-12.52-17.4l13.2-6.97Z"/><path class="cls-1" d="M100.77 119.86c5.81.82 13.36.57 22.66-2.3l.26-.05c.47 2.21 1.43 4.49 3.14 6.68 7.07 9.06 11.25 13.04 11.25 13.04s-.68.39-2.21 1.76c-1.71 1.56-4.51 4.37-8.61 9.31-5.51 1.58-27.78-2.02-54.02-5.12 3.88 0 17.89-26.08 17.89-26.08 2.38 1.1 5.58 2.19 9.63 2.76Z"/><path class="cls-4" d="M114.4 153.42c-12.25-.04-25.67-.49-32.99-1.33-3.27-.37-6.3-.82-9-1.31 8.49-4.51 30.43-2.47 42 2.65Z"/><path class="cls-4" d="M127.27 148.29c4.07.4 6.68 4.47 6.83 4.74-4.96.29-12.1.42-19.7.39-11.57-5.12-33.51-7.15-42-2.65-.76-5.43-11.41-7.61-11.41-7.61 2.12-2.35 4.65-6.04 4.16-9.79 6.69-4.5 11.77-9.29 15.52-12.94 2.06-2.01 3.81-4.18 5.31-6.51 0 0 1.7 1.59 5.16 3.17 0 0-14 26.08-17.89 26.08 26.24 3.11 48.51 6.7 54.02 5.12Z"/><path class="cls-1" d="m83.54 82.19 8.31 2.59 4.06 1.26c-.28 1.19-.55 2.34-.84 3.49-.53 2.21-1.08 4.37-1.65 6.46-1.85 6.7-4.05 12.71-7.43 17.92a36.813 36.813 0 0 1-5.31 6.51c-3.75 3.65-8.83 8.44-15.52 12.94-9.11 6.13-21.17 11.72-36.75 13.12-.29-14.87 2.51-26.5 2.51-26.5.05-.35.14-.77.26-1.23 0 0 12.65-2.25 26.09-12.46 2.95-2.24 5.94-4.86 8.84-7.92 2.53-2.67 4.66-4.93 6.46-6.83 2.51-2.65 4.36-4.6 5.73-6.05l3.94-4.15 1.32.85Z"/><path class="cls-2" d="M65.15 133.37c.49 3.75-2.04 7.44-4.16 9.79-1.44 1.6-2.7 2.59-2.7 2.59-4.71 2.79-12.81 3.82-19.58 3.09-6.77-.74-10.31-2.35-10.31-2.35 15.59-1.4 27.65-6.99 36.75-13.12Z"/><path class="cls-4" d="M60.99 143.16s10.65 2.18 11.41 7.61c-7.9-1.43-13.12-3.27-14.11-5.02 0 0 1.25-.99 2.7-2.59Z"/><path class="cls-1" d="M72.56 91.55c-3.69-1.21-13.68 3.61-13.68 3.61l-1.59-.18c1.31-10.95 2.47-30.14 35.02-40.06 0 0 .31 1.59.68 4.05l-13.2 6.97s11.95 12.22 12.52 17.4l-.45 1.44-8.31-2.59-1.32-.85-3.94 4.15c-1.37 1.45-3.22 3.41-5.73 6.05Z"/><path class="cls-1" d="M66.1 98.38c-2.9 3.06-5.89 5.68-8.84 7.92-2.65-2.06 0-11.05 0-11.05 0-.1.03-.19.03-.29l1.59.18s9.98-4.82 13.68-3.61c-1.8 1.9-3.93 4.16-6.46 6.83Z"/><path class="cls-4" d="M57.26 95.26s-2.65 8.99 0 11.05c-13.44 10.21-26.09 12.46-26.09 12.46 1.46-5.82 7.57-19.21 9.75-21.13 2.35-2.08 4.71-4.29 7.36-3.56 2.66.74 8.98 1.19 8.98 1.19Z"/><path class="cls-10" d="M126.92 26.36c.9.32 1.5 1.02 1.52 2.27.03 1.09-.05 2.41-.42 3.65-.38 1.31-1.08 2.52-2.31 3.27-.27.16-.53.29-.76.37-1.03.41-1.67.14-1.67.14M126.92 26.35c-.24-1.34-3.85-9.07-6.05-15.47.88-.66 2.42-4.08 1.54-5.85s-3.64-2.1-5.73-2.21C114.58 2.72 94.04.61 91.39.5c-2.65-.1-3.43 1.22-2.65 2.21.77.99 4.2 4.64 6.84 5.08 2.66.44 7.95.67 9.94.77 0 0-2.09 4.64-1.88 5.74.84.07 1.63.13 2.38.17 3.95.27 6.52.27 7.45.27 1.11 0 1.99.55 2.66 2.43.66 1.88 3.64 9.94 4.08 11.37s.92 2.21 1.27 2.32c.35.11.64-.7.64-.7.29-.8 1.25-4.05 3.28-4.05.57 0 1.09.07 1.53.22M126.92 26.35v.01"/><path class="cls-10" d="M128.03 32.28s.9 6.22.67 6.77-3.75-3.12-3.75-3.12M106.02 14.49c-2.97.81-7.09 6.7-7.53 10.38-.44 3.68-.15 12.08 1.19 15.76.65 1.8 1.62 4.9 4.2 7.33 2.24 2.12 5.72 3.73 11.26 3.48 1.08-.04 2.24-.16 3.48-.35"/><path class="cls-10" d="M98.61 26.52s3.92.61 5.03 1.27M109.38 27.79s5.08-1.83 7.07-1.27M108.22 32.98s5.41-.1 6.9 0M98.95 32.98s4.03-.49 4.91 0M103.86 36.14s-1.55 4.56-.22 5.22M105.4 44.6s3.24.88 3.98 0M131.91 44.59c.88-.99 1.43-1.71 1.47-1.89M115.13 51.44s2.94 4.8 7.95 1.26c3.42-2.41 6.9-5.93 8.82-8.1"/><path class="cls-10" d="M128.71 39.05s1.09 1.38 2.02 2.78c.79 1.19 1.45 2.4 1.19 2.76v.02M134.1 153.03c-4.96.29-12.1.42-19.7.39-12.25-.04-25.67-.49-32.99-1.33-3.27-.37-6.3-.82-9-1.31-7.9-1.43-13.12-3.27-14.11-5.02-4.71 2.79-12.81 3.82-19.58 3.09-6.77-.74-10.31-2.35-10.31-2.35-.29-14.87 2.51-26.5 2.51-26.5.05-.35.14-.77.26-1.23 1.46-5.82 7.57-19.21 9.75-21.13 2.35-2.08 4.71-4.29 7.36-3.56 2.66.74 8.98 1.19 8.98 1.19 0-.1.03-.19.03-.29 1.31-10.95 2.47-30.14 35.02-40.06 2.79-2.66 7.89-4.57 9.1-4.57.29-.4.6-.74.88-1.04.86-.91 1.57-1.35 1.57-1.35"/><path class="cls-10" d="M130.72 41.83c.94-.08 4.58 1.06 8.73 2.78 4.96 2.05 10.64 4.91 13.36 7.51 2.36 1.04 8.84 7.96 9.58 8.84 4.56-1.48 9.42-1.63 11.63 1.91 2.21 3.53 2.66 6.92 4.57 9.57 1.91 2.66 7.07 8.1 7.8 11.05.74 2.94 2.8 10.6 2.8 10.6h0c4.56 1.48 11.47 4.27 13.23 5.45 13.1.44 16.5-.44 21.8 3.54 5.29 3.97 7.07 9.71 7.21 14.87l.15 5.16c8.39 6.77 13.1 10.74 16.19 10.74-8.98 1.32-20.47 1.47-20.47 1.47-.54.67-1.06 1.31-1.57 1.92-5.37 6.4-9.86 9.72-24.78 9.86-6.33.15-15.02 0-15.02 0-6.25 1.57-19.46 3.01-31.23 4.13-7.06.67-13.61 1.22-17.8 1.61-.77.07-1.63.14-2.59.19-.07 0-.15 0-.22.02"/><path class="cls-10" d="M102.28 49.3h0c.16.17 2.34 2.47 4.89 5 3.17 3.17 6.9 6.7 7.95 6.95 5.45-.74 15.6-7.43 18.25-9.77 1.96-1.74 3.62-3.67 4.71-5.03.86-1.1 1.37-1.83 1.37-1.83"/><path class="cls-10" d="M138.08 46.44s-2.93 10.39-4.11 11.42M122.53 102.16c-7.45-4.45-13.71-8.4-16.58-10.22M105.87 91.89c-1.04-.66-1.61-1.03-1.61-1.03l.07-.08.61-.73 3.13-3.71 9.56-11.32 13.55-16.06c.21.09.42.18.64.28 2.13.93 4.85 2.27 7.64 4.1 2.94 1.95 5.95 4.44 8.36 7.58 2.37 3.1 4.16 6.82 4.74 11.27.05.37.09.75.12 1.14.15 1.82.22 3.62.21 5.4-.03 5.82-.85 11.31-2.08 15.83-1.2 4.45-2.79 7.98-4.42 10-.21.27-.42.51-.63.72-6.39-3.3-13.49-7.34-19.96-11.18-1.11-.65-2.2-1.3-3.25-1.93"/><path class="cls-10" d="M117.63 75.03c.44.91.93 1.87 1.43 2.92.42.86.85 1.76 1.26 2.74.61 1.45 1.22 3.04 1.73 4.81.16.53.31 1.06.45 1.63.3 1.21.55 2.44.74 3.69.22 1.63.34 3.32.25 5.14-.04 1.1-.16 2.25-.36 3.45-.15.88-.35 1.81-.6 2.76h0"/><path class="cls-10" d="m105.4 90.86 1.87-1.77 11.78-11.15M105.4 90.86l14.79-10.13M105.4 90.86l16.65-5.37M105.4 90.86l17.83-.05M105.4 90.86l18.09 5.09.03.01M105.4 90.86l17.73 8.54.1.05"/><circle class="cls-10" cx="136.02" cy="87.12" r="10.51"/><path class="cls-10" d="M152.87 88.73c10.61-1.87 27.26-6.21 33.51-5.25M156.42 72.72l7.73-4.85v9.94s-9.84 2.24-11.61 4.38M147.8 70.92s11.51-9.21 14.58-9.96M139.45 63.34s11.08-10.86 13.36-11.23M115.13 61.25s-6.75 18.92-9.77 20.94M107.39 54.01s-.08.1-.22.29c-1.53 2.11-10.98 15.11-13.03 16.62h0M93.41 95.99c-1.85 6.7-4.05 12.71-7.43 17.92a36.813 36.813 0 0 1-5.31 6.51c-3.75 3.65-8.83 8.44-15.52 12.94-9.11 6.13-21.17 11.72-36.75 13.12"/><path class="cls-10" d="M31.17 118.76s12.65-2.25 26.09-12.46c2.95-2.24 5.94-4.86 8.84-7.92 2.53-2.67 4.66-4.93 6.46-6.83 2.51-2.65 4.36-4.6 5.73-6.05l3.94-4.15 1.32.85 8.31 2.59 4.06 1.26c-.28 1.19-.55 2.34-.84 3.49-.53 2.21-1.08 4.37-1.65 6.46M58.29 145.76s1.25-.99 2.7-2.59c2.12-2.35 4.65-6.04 4.16-9.79"/><path class="cls-10" d="M60.99 143.16s10.65 2.18 11.41 7.61c8.49-4.51 30.43-2.47 42 2.65h.02M100.77 119.86c5.81.82 13.36.57 22.66-2.3M85.98 113.92s1.7 1.59 5.16 3.17c2.38 1.1 5.58 2.19 9.63 2.76"/><path class="cls-10" d="M73.16 143.16h.09c26.24 3.11 48.51 6.7 54.02 5.12 4.1-4.94 6.89-7.75 8.61-9.31 1.52-1.38 2.21-1.76 2.21-1.76s-4.19-3.98-11.25-13.04c-1.71-2.19-2.67-4.47-3.14-6.68-1.48-6.88 1.83-12.95 1.83-12.95"/><path class="cls-10" d="M91.14 117.09s-14 26.08-17.89 26.08M225.74 137.22c-3.68-3.23-19.64-2.91-31.11-2.46-.65.03-1.29.05-1.91.08-1.44.06-2.77.11-3.98.16-10.89.44-14.64 0-20.16.22-5.53.22-11.05-9.94-11.93-11.7-.33-.67-.57-.99-.88-.99-.52 0-1.23.87-2.89 2.53-2.66 2.66-10.59 7.73-14.79 12.15 0 0 13.7 5.15 26.51 4.12 12.81-1.03 25.92-4.88 28.12-6.5"/><path class="cls-10" d="M194.63 134.76s-8.68 7.9-8.68 12.32M154.72 151.21s7.13-2.59 11.64-5.75M134.1 153.03c.1 0 .28-.05.22-.02 1.74-.97 7.74-4.68 7.74-4.68"/><path class="cls-10" d="M135.88 138.98s.15 12.63-1.76 14.05M127.27 148.29c4.07.4 6.68 4.47 6.83 4.74h0M105.35 120.26s0 12.97-3.07 17.84l-3.05 4.85M100.77 99.45v20.41M104.04 97.29c.23.15.41.27.43.34.11.28-.79 1.25-.79 1.25s-.75.29-2.49-.41c-.14-.05-.28-.11-.42-.18-2.04-.94-3.81-2.1-3.81-2.1s-2.82.27-3.54-.2h0M104.04 97.29c-.71-.14-1.5-.48-1.89-.93 0 0 1.21.54 1.89.93ZM103.9 94.1c.42.3 2.15 1.56 2.21 1.89.06.38-.29.77-.74 1.21-.2.2-.74.22-1.33.09M103.8 94.04l.03.02"/><path class="cls-10" d="M95.07 89.53c3.49-1.45 10.67-3.44 12.32-3.49.36-.02.58.1.67.31.25.53-.29 1.6-1.1 2.42-.31.3-.66.57-1.01.76-.37.2-.73.38-1.02.53-.55.29-.93.48-.93.48.11.09.22.16.32.24.58.45 1.1.8 1.54 1.11a.3.3 0 0 0 .08.04c1.62 1.1 2.3 1.45 2 2.36-.1.3-.41.96-.77.99-1.02.09-2.59-.74-3.28-1.19-.03-.02-.04-.03-.07-.04M191.5 101.41c.4 1.46.67 2.69.63 3.15 10.7 4.85 31.72 15.08 34.81 27.45.27 1.08.41 2.18.38 3.3M189.19 94.07h0c.08.26 1.45 4.3 2.29 7.34M150.8 104.56s11.59 6.75 21.3 8.22 27.83 2.35 29.3 1.91M146.53 114.69c2.06 1.33 6.67 4.25 10.13 6.1 1.91 1.02 3.48 1.71 4.07 1.63M66.83 78.61s11.72 4.92 11.45 6.88M73.16 70.22s9.42 8.1 9.06 11.12M58.88 95.15s9.98-4.82 13.68-3.61M57.26 95.26s-2.65 8.99 0 11.05M92.99 58.96l-13.2 6.97s11.95 12.22 12.52 17.4c1.62-2.69 1.99-7.51 1.84-12.42-.14-4.39-.7-8.87-1.16-11.95-.37-2.46-.68-4.05-.68-4.05M191.49 101.41h0c3.58-1.3 7.41-1.98 10.93-1.89M231.59 123.08c-2.07 5.29-2.39 8.13-4.65 8.92"/></g></svg>