<?xml version="1.0" encoding="UTF-8"?>
<svg id="_レイヤー_1" data-name="レイヤー 1" xmlns="http://www.w3.org/2000/svg" viewBox="0 0 265.89 185.63">
  <defs>
    <style>
      .cls-1 {
        fill: ivory;
      }

      .cls-1, .cls-2, .cls-3, .cls-4, .cls-5, .cls-6 {
        stroke-width: 0px;
      }

      .cls-2 {
        fill: #fb6a57;
      }

      .cls-3 {
        fill: #a6849d;
      }

      .cls-7 {
        fill: none;
        stroke: #000;
        stroke-linecap: round;
        stroke-linejoin: round;
      }

      .cls-4 {
        fill: #333;
      }

      .cls-5 {
        fill: #fde5c1;
      }

      .cls-6 {
        fill: #fedb75;
      }
    </style>
  </defs>
  <g>
    <path class="cls-1" d="m240.22,159.27c2.74-.95,3.12-4.38,5.62-10.77,10.13,8.18,15.82,12.97,19.55,12.97-10.84,1.6-24.71,1.78-24.71,1.78.03-1.35-.14-2.67-.46-3.98Z"/>
    <path class="cls-3" d="m210.63,120.05c15.82.53,19.92-.53,26.32,4.27,6.39,4.79,8.53,11.73,8.71,17.95l.18,6.22c-2.5,6.39-2.88,9.82-5.62,10.77-3.73-14.93-29.11-27.28-42.02-33.14.05-.55-.28-2.04-.76-3.8,4.32-1.57,8.95-2.39,13.2-2.28Z"/>
    <path class="cls-2" d="m201.21,162.6c13.85-.54,33.13-.93,37.56,2.97-6.49,7.73-11.91,11.74-29.92,11.91-7.64.18-18.13,0-18.13,0,0-5.34,10.49-14.87,10.49-14.87Z"/>
    <path class="cls-1" d="m197.42,122.33c-1.01-3.67-2.67-8.54-2.77-8.85,5.5,1.78,13.85,5.15,15.98,6.57-4.25-.11-8.88.71-13.2,2.28h-.01Z"/>
    <path class="cls-1" d="m194.65,113.47h.01-.01Z"/>
    <path class="cls-1" d="m198.2,126.13c12.92,5.86,38.3,18.2,42.02,33.14.32,1.31.49,2.63.46,3.98-.65.8-1.28,1.58-1.9,2.32-4.44-3.9-23.72-3.51-37.56-2.97-.78.03-1.56.06-2.31.09-1.73.07-3.34.14-4.8.2-13.15.53-17.68,0-24.34.27-6.67.26-13.34-12-14.4-14.13-.4-.8-.69-1.19-1.07-1.19l1.09-2.12c-4.18-2.23-9.74-5.75-12.23-7.36l-.19-.16c1.96-2.43,3.88-6.69,5.34-12.07,1.48-5.46,2.46-12.08,2.51-19.11,12.81-2.26,32.91-7.5,40.46-6.34.89,3.55,3.38,12.79,3.38,12.79h.01c.09.31,1.75,5.19,2.77,8.86h.01c.48,1.76.81,3.25.76,3.8Z"/>
    <path class="cls-2" d="m198.91,162.69c-2.66,1.95-18.48,6.6-33.95,7.84-15.47,1.24-32.01-4.97-32.01-4.97,5.08-5.34,14.64-11.47,17.86-14.67,2.01-1.99,2.86-3.05,3.49-3.05.38,0,.67.39,1.07,1.19,1.07,2.13,7.73,14.39,14.4,14.13,6.66-.27,11.2.26,24.34-.27,1.46-.06,3.07-.13,4.8-.2Z"/>
    <path class="cls-1" d="m191.26,100.68c-7.55-1.16-27.64,4.08-40.46,6.34.01-2.14-.07-4.32-.25-6.52-.04-.47-.08-.93-.15-1.38-.7-5.37-2.86-9.87-5.72-13.61,0,0,13.9-11.12,17.61-12.03,5.5-1.79,11.37-1.96,14.04,2.31,2.67,4.26,3.21,8.35,5.51,11.55,2.31,3.21,8.53,9.77,9.42,13.34Z"/>
    <path class="cls-2" d="m134.6,76.37s13.38-13.11,16.13-13.56c2.85,1.25,10.67,9.61,11.56,10.67-3.71.91-17.61,12.03-17.61,12.03-2.9-3.79-6.54-6.8-10.09-9.15Z"/>
    <path class="cls-6" d="m117.77,105.08c0,7.01,5.68,12.69,12.69,12.69s12.69-5.68,12.69-12.69-5.68-12.69-12.69-12.69-12.69,5.68-12.69,12.69Zm7.6-33.66c2.57,1.12,5.86,2.74,9.22,4.95,3.55,2.35,7.18,5.36,10.09,9.15,2.86,3.74,5.02,8.24,5.72,13.61.06.45.1.91.15,1.38.18,2.19.26,4.38.25,6.52-.04,7.03-1.02,13.65-2.51,19.11-1.45,5.38-3.37,9.64-5.34,12.07-.25.32-.5.62-.76.87-7.72-3.98-16.28-8.86-24.1-13.49-1.34-.78-2.65-1.57-3.93-2.33h0c.3-1.16.54-2.28.72-3.34.25-1.45.39-2.84.44-4.17.1-2.19-.03-4.23-.3-6.2-.23-1.51-.53-3-.9-4.46-.17-.68-.34-1.33-.54-1.96-.62-2.14-1.35-4.05-2.09-5.81-.5-1.18-1.02-2.28-1.52-3.31-.61-1.26-1.19-2.42-1.72-3.52l16.35-19.39c.25.1.5.22.77.33Z"/>
    <path class="cls-1" d="m134.6,76.37c-3.36-2.21-6.65-3.83-9.22-4.95l2.61-1.67c1.42-1.24,4.96-13.79,4.96-13.79,1.04-1.33,1.65-2.21,1.65-2.21,5.98,2.48,12.85,5.93,16.13,9.06-2.76.45-16.13,13.56-16.13,13.56Z"/>
    <path class="cls-1" d="m118.1,125.58c7.82,4.64,16.39,9.51,24.1,13.49.26-.25.51-.54.76-.87l.19.16c2.49,1.61,8.05,5.13,12.23,7.36l-1.09,2.12c-.63,0-1.48,1.05-3.49,3.05-3.22,3.21-12.78,9.34-17.86,14.67,0,0-5.05-4.8-13.59-15.74-2.07-2.64-3.23-5.4-3.79-8.06-1.79-8.3,2.2-15.63,2.2-15.63l.32-.55Z"/>
    <circle class="cls-2" cx="130.46" cy="105.08" r="12.69"/>
    <path class="cls-3" d="m131.54,184.4c-.93.08-1.97.17-3.12.23-.08.01-.18.01-.26.02,2.31-1.71,2.13-16.96,2.13-16.96,1.84-1.66,2.66-2.13,2.66-2.13,0,0,16.54,6.21,32.01,4.97,15.47-1.24,31.29-5.89,33.95-7.84.75-.03,1.52-.06,2.31-.09,0,0-10.49,9.53-10.49,14.87-7.55,1.89-23.5,3.63-37.7,4.99-8.52.8-16.43,1.47-21.49,1.94Z"/>
    <path class="cls-3" d="m119.89,178.93c4.95-5.96,8.32-9.36,10.39-11.24,0,0,.18,15.25-2.13,16.96h-.01c-.19-.32-3.34-5.24-8.25-5.72Z"/>
    <path class="cls-4" d="m121.63,47.04c-.27.67-4.52-3.77-4.52-3.77h0c.28-.1.6-.26.92-.46,1.48-.91,2.33-2.37,2.79-3.95,0,0,1.09,7.51.81,8.18Z"/>
    <path class="cls-5" d="m117.63,31.44c.69,0,1.32.08,1.85.27h0c1.09.4,1.81,1.24,1.84,2.75.03,1.32-.06,2.91-.5,4.41-.46,1.58-1.31,3.04-2.79,3.95-.32.2-.64.36-.92.45h0s4.25,4.45,4.52,3.78c0,0,1.32,1.66,2.43,3.35.95,1.44,1.75,2.9,1.43,3.33t-.01.02c-2.32,2.62-6.53,6.86-10.65,9.77-6.05,4.27-9.6-1.52-9.6-1.52-6.69.3-10.89-1.64-13.6-4.2-3.11-2.93-4.28-6.67-5.06-8.85-1.61-4.45-1.96-14.58-1.43-19.03.53-4.44,5.51-11.55,9.1-12.53h0c4.77.31,7.87.31,8.99.31,1.34,0,2.4.67,3.21,2.93.79,2.27,4.4,12,4.93,13.73s1.11,2.66,1.54,2.8c.42.14.77-.85.77-.85.36-.97,1.51-4.89,3.96-4.89Z"/>
    <path class="cls-6" d="m115.03,109.53c.27,1.97.41,4.01.3,6.2l-21.84-6.14,21.52-.06h.01Z"/>
    <path class="cls-6" d="m115.33,115.74c-.05,1.33-.19,2.72-.44,4.17l-21.4-10.31,21.84,6.14Z"/>
    <path class="cls-6" d="m113.59,103.11c.2.64.38,1.28.54,1.96.37,1.46.67,2.95.9,4.46h-.01l-21.52.06,20.09-6.49Z"/>
    <path class="cls-4" d="m76.56.51c3.21.14,28,2.67,30.54,2.8,2.53.14,5.86.54,6.92,2.67s-.79,6.27-1.86,7.06c2.66,7.73,7.02,17.05,7.31,18.67-.53-.19-1.16-.27-1.85-.27-2.44,0-3.6,3.92-3.96,4.89,0,0-.36.98-.77.85-.43-.14-1-1.07-1.54-2.8s-4.14-11.47-4.93-13.73c-.8-2.27-1.87-2.93-3.21-2.93-1.12,0-4.22,0-8.99-.32-.9-.05-1.86-.13-2.87-.21-.26-1.34,2.27-6.93,2.27-6.93-2.4-.13-8.79-.4-12-.93-3.2-.53-7.33-4.93-8.26-6.13-.94-1.2,0-2.8,3.2-2.67Z"/>
    <path class="cls-6" d="m113.59,103.11l-20.09,6.49,17.86-12.23.15-.06c.74,1.75,1.47,3.67,2.09,5.81Z"/>
    <path class="cls-6" d="m111.5,97.31l-.15.06-17.86,12.23,2.26-2.14,14.22-13.46c.5,1.03,1.02,2.13,1.52,3.31Z"/>
    <path class="cls-6" d="m108.25,90.48c.53,1.1,1.12,2.26,1.72,3.52l-14.22,13.46-.37-.39c.97-.99,1.63-2.29,1.33-2.92l11.54-13.67Z"/>
    <path class="cls-1" d="m127.27,62.04c2.37-2.1,4.38-4.43,5.68-6.08,0,0-3.54,12.54-4.96,13.79l-2.61,1.67c-.27-.11-.52-.23-.77-.33l-16.35,19.39-11.54,13.67c-.11-.25-.38-.4-.81-.38-1.99.06-10.66,2.46-14.87,4.22.34-1.39.68-2.79,1.01-4.22l-4.9-1.52.54-1.73c1.95-3.25,2.4-9.06,2.22-15,2.48-1.82,13.88-17.51,15.73-20.06,3.83,3.82,8.33,8.09,9.6,8.39,6.58-.89,18.83-8.97,22.04-11.8Z"/>
    <path class="cls-6" d="m114.17,123.24c-8.99-5.38-16.55-10.14-20.02-12.34-.03-.01-.06-.03-.09-.05-.53-.37-1.16-.79-1.86-1.34l.73-.88c.36-.18.78-.4,1.23-.64.43-.23.85-.55,1.22-.92l.37.39-2.26,2.14,21.4,10.31c-.18,1.07-.42,2.18-.72,3.33Z"/>
    <path class="cls-1" d="m95.63,65.45c-3.07-3.06-5.71-5.83-5.9-6.03,1.03-1.1,1.9-1.63,1.9-1.63,2.7,2.56,6.9,4.5,13.6,4.2,0,0,3.55,5.8,9.6,1.52,4.13-2.91,8.33-7.15,10.65-9.77t.01-.02c.32-.43-.48-1.89-1.43-3.33,1.14-.09,5.52,1.28,10.54,3.35,0,0-.61.89-1.65,2.21-1.31,1.65-3.31,3.98-5.68,6.08-3.21,2.83-15.46,10.91-22.04,11.8-1.26-.29-5.76-4.56-9.6-8.39Z"/>
    <path class="cls-1" d="m89.73,59.43c.19.2,2.83,2.97,5.9,6.03-1.85,2.55-13.25,18.24-15.73,20.06-.17-5.31-.85-10.7-1.4-14.43-.45-2.97-.83-4.89-.83-4.89,3.37-3.21,9.52-5.51,10.99-5.51.36-.48.72-.9,1.07-1.25Z"/>
    <path class="cls-1" d="m88.41,118.79c2.1.85,3.01.49,3.01.49,0,0,1.09-1.18.95-1.51-.03-.08-.24-.23-.52-.41.72.16,1.37.14,1.61-.1.53-.53.96-1,.89-1.46-.06-.41-2.15-1.92-2.66-2.29.83.53,2.73,1.54,3.96,1.43.44-.03.8-.83.93-1.19.37-1.1-.46-1.52-2.41-2.85,3.47,2.2,11.03,6.97,20.02,12.34h0c1.27.77,2.59,1.56,3.93,2.34l-.32.55s-3.99,7.33-2.2,15.63l-.31.06c-11.24,3.47-20.34,3.77-27.36,2.78h0v-24.64l.51-1.18Z"/>
    <path class="cls-1" d="m83.3,116.03s2.13,1.4,4.6,2.54c.18.08.34.16.51.22l-.51,1.18v24.63c-4.89-.69-8.75-2.01-11.62-3.33-4.17-1.91-6.22-3.83-6.22-3.83,4.08-6.3,6.74-13.56,8.97-21.64h.01c.87.56,4.27.24,4.27.24Z"/>
    <path class="cls-5" d="m91.41,119.28s-.91.36-3.01-.49c-.17-.06-.33-.14-.51-.22-2.46-1.14-4.6-2.54-4.6-2.54,0,0-3.4.32-4.27-.24.69-2.53,1.36-5.13,1.99-7.8,4.21-1.75,12.88-4.16,14.87-4.22.44-.02.7.13.81.38l-3.78,4.48c-.67.36-1.12.58-1.12.58.14.1.26.2.39.29l-.08.09s.69.45,1.94,1.24c.03.02.06.04.09.05,1.95,1.33,2.78,1.75,2.41,2.85-.13.37-.49,1.16-.93,1.19-1.23.1-3.13-.9-3.96-1.43.51.37,2.6,1.88,2.66,2.29.07.46-.36.93-.89,1.46-.24.24-.89.26-1.61.1-.81-.47-2.28-1.13-2.28-1.13.47.54,1.42.96,2.28,1.13.28.18.49.32.52.41.14.33-.95,1.51-.95,1.51Z"/>
    <path class="cls-2" d="m78.51,71.08c.55,3.73,1.23,9.13,1.4,14.43.18,5.93-.27,11.75-2.22,15-.69-6.26-15.11-21.01-15.11-21.01l15.94-8.42Z"/>
    <path class="cls-1" d="m87.89,144.6c7.02.99,16.12.69,27.36-2.78l.31-.06c.56,2.66,1.72,5.42,3.79,8.06,8.53,10.93,13.59,15.74,13.59,15.74,0,0-.83.47-2.66,2.13-2.07,1.88-5.44,5.27-10.39,11.24-6.65,1.91-33.53-2.43-65.22-6.18,4.69,0,21.6-31.49,21.6-31.49,2.87,1.33,6.74,2.64,11.62,3.33h0Z"/>
    <path class="cls-3" d="m104.35,185.12c-14.79-.05-31-.6-39.83-1.61-3.95-.45-7.6-.99-10.87-1.59,10.24-5.44,36.74-2.99,50.7,3.2Z"/>
    <path class="cls-3" d="m119.89,178.93c4.91.48,8.06,5.4,8.25,5.72-5.98.36-14.61.51-23.79.47-13.96-6.18-40.46-8.64-50.7-3.2-.92-6.56-13.77-9.19-13.77-9.19,2.56-2.84,5.62-7.29,5.02-11.82,8.07-5.43,14.21-11.22,18.74-15.62,2.49-2.42,4.6-5.04,6.41-7.86,0,0,2.06,1.92,6.22,3.83,0,0-16.91,31.49-21.6,31.49,31.68,3.75,58.57,8.09,65.22,6.18Z"/>
    <path class="cls-1" d="m67.1,99.12l10.04,3.12,4.9,1.52c-.33,1.43-.67,2.83-1.01,4.22-.64,2.67-1.31,5.27-1.99,7.8h-.01c-2.23,8.08-4.89,15.34-8.97,21.64-1.82,2.82-3.93,5.44-6.41,7.86-4.52,4.41-10.66,10.19-18.74,15.62-11,7.4-25.55,14.15-44.37,15.84-.36-17.95,3.03-32,3.03-32,.06-.43.17-.93.31-1.48,0,0,15.27-2.72,31.5-15.04,3.56-2.7,7.17-5.87,10.67-9.57,3.06-3.23,5.63-5.95,7.8-8.25,3.03-3.2,5.26-5.56,6.91-7.31l4.75-5.01,1.6,1.02Z"/>
    <path class="cls-2" d="m44.9,160.92c.6,4.53-2.46,8.98-5.02,11.82-1.74,1.93-3.26,3.13-3.26,3.13-5.69,3.37-15.47,4.62-23.64,3.73s-12.45-2.84-12.45-2.84c18.82-1.69,33.38-8.44,44.37-15.84Z"/>
    <path class="cls-3" d="m39.88,172.74s12.86,2.63,13.77,9.19c-9.53-1.72-15.84-3.95-17.03-6.06,0,0,1.51-1.2,3.26-3.13Z"/>
    <path class="cls-1" d="m53.84,110.42c-4.46-1.46-16.51,4.35-16.51,4.35l-1.92-.22c1.59-13.22,2.98-36.38,42.27-48.36,0,0,.38,1.92.83,4.89l-15.94,8.42s14.42,14.76,15.11,21.01l-.54,1.73-10.04-3.12-1.6-1.02-4.75,5.01c-1.65,1.75-3.88,4.11-6.91,7.31Z"/>
    <path class="cls-1" d="m46.04,118.67c-3.5,3.7-7.11,6.86-10.67,9.57-3.2-2.49,0-13.34,0-13.34.01-.11.03-.23.04-.34l1.92.22s12.05-5.82,16.51-4.35c-2.17,2.3-4.74,5.02-7.8,8.25Z"/>
    <path class="cls-3" d="m35.36,114.9s-3.2,10.85,0,13.34c-16.23,12.32-31.5,15.04-31.5,15.04,1.76-7.03,9.14-23.19,11.77-25.51,2.84-2.51,5.69-5.18,8.89-4.29,3.21.9,10.84,1.43,10.84,1.43Z"/>
  </g>
  <g>
    <path class="cls-7" d="m119.48,31.72c1.09.39,1.81,1.23,1.84,2.74.03,1.32-.06,2.91-.5,4.41-.46,1.58-1.31,3.04-2.79,3.95-.32.2-.64.36-.92.45-1.24.49-2.02.17-2.02.17"/>
    <path class="cls-7" d="m119.48,31.71c-.29-1.62-4.65-10.94-7.31-18.67,1.07-.79,2.92-4.93,1.86-7.06s-4.4-2.54-6.92-2.67c-2.54-.13-27.33-2.66-30.54-2.8-3.2-.13-4.14,1.47-3.2,2.67.93,1.2,5.06,5.6,8.26,6.13,3.21.53,9.6.8,12,.93,0,0-2.53,5.6-2.27,6.93,1.01.08,1.97.16,2.87.21,4.77.32,7.87.32,8.99.32,1.34,0,2.4.67,3.21,2.93.79,2.27,4.4,12,4.93,13.73s1.11,2.66,1.54,2.8c.42.14.77-.85.77-.85.36-.97,1.51-4.89,3.96-4.89.69,0,1.32.08,1.85.27"/>
    <line class="cls-7" x1="119.48" y1="31.71" x2="119.48" y2="31.72"/>
    <path class="cls-7" d="m120.81,38.87s1.09,7.51.81,8.18-4.52-3.77-4.52-3.77"/>
    <path class="cls-7" d="m94.23,17.39c-3.58.98-8.56,8.09-9.1,12.53-.53,4.45-.18,14.58,1.43,19.03.78,2.17,1.95,5.91,5.06,8.85,2.7,2.56,6.9,4.5,13.6,4.2,1.31-.05,2.7-.19,4.2-.43"/>
    <path class="cls-7" d="m85.29,31.91s4.73.73,6.07,1.54"/>
    <path class="cls-7" d="m98.3,33.45s6.13-2.2,8.53-1.54"/>
    <path class="cls-7" d="m96.9,39.71s6.53-.13,8.33,0"/>
    <path class="cls-7" d="m85.7,39.71s4.87-.6,5.93,0"/>
    <path class="cls-7" d="m91.63,43.53s-1.87,5.5-.27,6.31"/>
    <path class="cls-7" d="m93.49,53.75s3.92,1.07,4.8,0"/>
    <path class="cls-7" d="m125.49,53.73c1.07-1.2,1.72-2.07,1.78-2.29"/>
    <path class="cls-7" d="m105.23,62s3.55,5.8,9.6,1.52c4.13-2.91,8.33-7.15,10.65-9.77"/>
    <path class="cls-7" d="m121.63,47.04s1.32,1.66,2.43,3.35c.95,1.44,1.75,2.9,1.43,3.33t-.01.02"/>
    <path class="cls-7" d="m128.14,184.65c-5.98.36-14.61.51-23.79.47-14.79-.05-31-.6-39.83-1.61-3.95-.45-7.6-.99-10.87-1.59-9.53-1.72-15.84-3.95-17.03-6.06-5.69,3.37-15.47,4.62-23.64,3.73s-12.45-2.84-12.45-2.84c-.36-17.95,3.03-32,3.03-32,.06-.43.17-.93.31-1.48,1.76-7.03,9.14-23.19,11.77-25.51,2.84-2.51,5.69-5.18,8.89-4.29,3.21.9,10.84,1.43,10.84,1.43.01-.11.03-.23.04-.34,1.59-13.22,2.98-36.38,42.27-48.36,3.37-3.21,9.52-5.51,10.99-5.51.36-.48.72-.9,1.07-1.25,1.03-1.1,1.9-1.63,1.9-1.63"/>
    <path class="cls-7" d="m124.06,50.39c1.14-.09,5.52,1.28,10.54,3.35,5.98,2.48,12.85,5.93,16.13,9.06,2.85,1.25,10.67,9.61,11.56,10.67,5.5-1.79,11.37-1.96,14.04,2.31,2.67,4.26,3.21,8.35,5.51,11.55,2.31,3.21,8.53,9.77,9.42,13.34.89,3.55,3.38,12.79,3.38,12.79h.01c5.5,1.79,13.85,5.16,15.98,6.58,15.82.53,19.92-.53,26.32,4.27,6.39,4.79,8.53,11.73,8.71,17.95l.18,6.22c10.13,8.18,15.82,12.97,19.55,12.97-10.84,1.6-24.71,1.78-24.71,1.78-.65.8-1.28,1.58-1.9,2.32-6.49,7.73-11.91,11.74-29.92,11.91-7.64.18-18.13,0-18.13,0-7.55,1.89-23.5,3.63-37.7,4.99-8.52.8-16.43,1.47-21.49,1.94-.93.08-1.97.17-3.12.23-.08.01-.18.01-.26.02"/>
    <path class="cls-7" d="m89.72,59.42h.01c.19.21,2.83,2.98,5.9,6.04,3.83,3.82,8.33,8.09,9.6,8.39,6.58-.89,18.83-8.97,22.04-11.8,2.37-2.1,4.38-4.43,5.68-6.08,1.04-1.33,1.65-2.21,1.65-2.21"/>
    <path class="cls-7" d="m132.95,55.96s-3.54,12.54-4.96,13.79"/>
    <path class="cls-7" d="m114.17,123.24c-8.99-5.38-16.55-10.14-20.02-12.34"/>
    <path class="cls-7" d="m94.06,110.84c-1.25-.79-1.94-1.24-1.94-1.24l.08-.09.73-.88,3.78-4.48,11.54-13.67,16.35-19.39c.25.1.5.22.77.33,2.57,1.12,5.86,2.74,9.22,4.95,3.55,2.35,7.18,5.36,10.09,9.15,2.86,3.74,5.02,8.24,5.72,13.61.06.45.1.91.15,1.38.18,2.19.26,4.38.25,6.52-.04,7.03-1.02,13.65-2.51,19.11-1.45,5.38-3.37,9.64-5.34,12.07-.25.32-.5.62-.76.87-7.72-3.98-16.28-8.86-24.1-13.49-1.34-.78-2.65-1.57-3.93-2.33"/>
    <path class="cls-7" d="m108.25,90.48c.53,1.1,1.12,2.26,1.72,3.52.5,1.03,1.02,2.13,1.52,3.31.74,1.75,1.47,3.67,2.09,5.81.2.64.38,1.28.54,1.96.37,1.46.67,2.95.9,4.46.27,1.97.41,4.01.3,6.2-.05,1.33-.19,2.72-.44,4.17-.18,1.07-.42,2.18-.72,3.33h0"/>
    <polyline class="cls-7" points="93.49 109.6 95.75 107.46 109.97 94"/>
    <line class="cls-7" x1="93.49" y1="109.6" x2="111.35" y2="97.37"/>
    <line class="cls-7" x1="93.49" y1="109.6" x2="113.59" y2="103.11"/>
    <line class="cls-7" x1="93.49" y1="109.6" x2="115.02" y2="109.53"/>
    <polyline class="cls-7" points="93.49 109.6 115.33 115.74 115.37 115.75"/>
    <polyline class="cls-7" points="93.49 109.6 114.89 119.9 115.02 119.97"/>
    <circle class="cls-7" cx="130.46" cy="105.08" r="12.69"/>
    <path class="cls-7" d="m150.8,107.02c12.81-2.26,32.91-7.5,40.46-6.34"/>
    <path class="cls-7" d="m155.09,87.7l9.34-5.86v12s-11.87,2.7-14.01,5.28"/>
    <path class="cls-7" d="m144.69,85.52s13.9-11.12,17.61-12.03"/>
    <path class="cls-7" d="m134.6,76.37s13.38-13.11,16.13-13.56"/>
    <path class="cls-7" d="m105.23,73.84s-8.15,22.84-11.8,25.28"/>
    <path class="cls-7" d="m95.89,65.1s-.09.13-.26.36c-1.85,2.55-13.25,18.24-15.73,20.06h-.01"/>
    <path class="cls-7" d="m79.02,115.79c-2.23,8.08-4.89,15.34-8.97,21.64-1.82,2.82-3.93,5.44-6.41,7.86-4.52,4.41-10.66,10.19-18.74,15.62-11,7.4-25.55,14.15-44.37,15.84"/>
    <path class="cls-7" d="m3.87,143.28s15.27-2.72,31.5-15.04c3.56-2.7,7.17-5.87,10.67-9.57,3.06-3.23,5.63-5.95,7.8-8.25,3.03-3.2,5.26-5.56,6.91-7.31l4.75-5.01,1.6,1.02,10.04,3.12,4.9,1.52c-.33,1.43-.67,2.83-1.01,4.22-.64,2.67-1.31,5.27-1.99,7.8"/>
    <path class="cls-7" d="m36.62,175.87s1.51-1.2,3.26-3.13c2.56-2.84,5.62-7.29,5.02-11.82"/>
    <path class="cls-7" d="m39.88,172.74s12.86,2.63,13.77,9.19c10.24-5.44,36.74-2.99,50.7,3.2.01,0,.01.01.02.01"/>
    <path class="cls-7" d="m87.89,144.6c7.02.99,16.12.69,27.36-2.78"/>
    <path class="cls-7" d="m70.05,137.43s2.06,1.92,6.22,3.83c2.87,1.33,6.74,2.64,11.62,3.33"/>
    <path class="cls-7" d="m54.57,172.74s.07.01.1.01c31.68,3.75,58.57,8.09,65.22,6.18,4.95-5.96,8.32-9.36,10.39-11.24,1.84-1.66,2.66-2.13,2.66-2.13,0,0-5.05-4.8-13.59-15.74-2.07-2.64-3.23-5.4-3.79-8.06-1.79-8.3,2.2-15.63,2.2-15.63"/>
    <path class="cls-7" d="m76.27,141.26s-16.91,31.49-21.6,31.49"/>
    <path class="cls-7" d="m238.78,165.56c-4.44-3.9-23.72-3.51-37.56-2.97-.78.03-1.56.06-2.31.09-1.73.07-3.34.14-4.8.2-13.15.53-17.68,0-24.34.27-6.67.26-13.34-12-14.4-14.13-.4-.8-.69-1.19-1.07-1.19-.63,0-1.48,1.05-3.49,3.05-3.22,3.21-12.78,9.34-17.86,14.67,0,0,16.54,6.21,32.01,4.97,15.47-1.24,31.29-5.89,33.95-7.84"/>
    <path class="cls-7" d="m201.21,162.6s-10.49,9.53-10.49,14.87"/>
    <path class="cls-7" d="m153.03,182.46s8.61-3.13,14.06-6.94"/>
    <path class="cls-7" d="m128.14,184.65c-.47.36-.33.31.27-.02,2.1-1.17,9.35-5.65,9.35-5.65"/>
    <path class="cls-7" d="m130.28,167.69s.18,15.25-2.13,16.96"/>
    <path class="cls-7" d="m119.89,178.93c4.91.48,8.06,5.4,8.25,5.72h.01"/>
    <path class="cls-7" d="m93.43,145.09s-.01,15.66-3.71,21.53l-3.69,5.86"/>
    <polyline class="cls-7" points="87.89 119.97 87.89 144.59 87.89 144.6"/>
    <path class="cls-7" d="m91.84,117.36c.28.18.49.32.52.41.14.33-.95,1.51-.95,1.51,0,0-.91.36-3.01-.49-.17-.06-.33-.14-.51-.22-2.46-1.14-4.6-2.54-4.6-2.54,0,0-3.4.32-4.27-.24h-.01"/>
    <path class="cls-7" d="m91.84,117.36c-.86-.17-1.81-.58-2.28-1.13,0,0,1.46.66,2.28,1.13Z"/>
    <path class="cls-7" d="m91.68,113.5c.51.37,2.6,1.88,2.66,2.29.07.46-.36.93-.89,1.46-.24.24-.89.26-1.61.1"/>
    <path class="cls-7" d="m91.56,113.43s.01.01.03.02"/>
    <path class="cls-7" d="m81.02,107.99c4.21-1.75,12.88-4.16,14.87-4.22.44-.02.7.13.81.38.3.64-.36,1.93-1.33,2.92-.38.37-.79.69-1.22.92-.45.24-.88.46-1.23.64-.67.36-1.12.58-1.12.58.14.1.26.2.39.29.7.54,1.33.97,1.86,1.34.03.02.06.04.09.05,1.95,1.33,2.78,1.75,2.41,2.85-.13.37-.49,1.16-.93,1.19-1.23.1-3.13-.9-3.96-1.43-.03-.02-.05-.03-.08-.05"/>
    <path class="cls-7" d="m197.43,122.33c.48,1.76.81,3.25.76,3.8,12.92,5.86,38.3,18.2,42.02,33.14.32,1.31.49,2.63.46,3.98"/>
    <path class="cls-7" d="m194.65,113.47h.01c.09.31,1.75,5.19,2.77,8.86"/>
    <path class="cls-7" d="m148.3,126.13s13.99,8.15,25.72,9.92c11.73,1.78,33.6,2.84,35.37,2.31"/>
    <path class="cls-7" d="m143.15,138.36c2.49,1.61,8.05,5.13,12.23,7.36,2.31,1.23,4.2,2.07,4.91,1.97"/>
    <path class="cls-7" d="m46.93,94.81s14.15,5.94,13.83,8.3"/>
    <path class="cls-7" d="m54.57,84.68s11.37,9.77,10.93,13.42"/>
    <path class="cls-7" d="m37.33,114.78s12.05-5.82,16.51-4.35"/>
    <path class="cls-7" d="m35.36,114.9s-3.2,10.85,0,13.34"/>
    <path class="cls-7" d="m78.51,71.08l-15.94,8.42s14.42,14.76,15.11,21.01c1.95-3.25,2.4-9.06,2.22-15-.17-5.31-.85-10.7-1.4-14.43-.45-2.97-.83-4.89-.83-4.89"/>
    <path class="cls-7" d="m197.42,122.33h.01c4.32-1.57,8.95-2.39,13.2-2.28"/>
    <path class="cls-7" d="m245.84,148.5c-2.5,6.39-2.88,9.82-5.62,10.77"/>
  </g>
</svg>