<?xml version="1.0" encoding="UTF-8"?>
<svg xmlns="http://www.w3.org/2000/svg" viewBox="0 0 271.41 219.73">
  <defs>
    <style>
      .cls-1 {
        stroke-miterlimit: 10;
      }

      .cls-1, .cls-2 {
        fill: none;
        stroke: #000;
      }

      .cls-3 {
        fill: #ccc9b6;
      }

      .cls-3, .cls-4, .cls-5, .cls-6, .cls-7, .cls-8, .cls-9, .cls-10 {
        stroke-width: 0px;
      }

      .cls-4 {
        fill: #f35b50;
      }

      .cls-5 {
        fill: #98819e;
      }

      .cls-6 {
        fill: #f3edd7;
      }

      .cls-2 {
        stroke-linecap: round;
        stroke-linejoin: round;
      }

      .cls-7 {
        fill: #333;
      }

      .cls-8 {
        fill: #91bfbf;
      }

      .cls-9 {
        fill: #d2d296;
      }

      .cls-10 {
        fill: #f2d3b4;
      }
    </style>
  </defs>
  <g id="_畳" data-name="畳">
    <g>
      <g>
        <rect class="cls-6" x=".24" y="184.96" width="3.63" height="5.05"/>
        <path class="cls-6" d="m271.16,212.64v6.59h-30.57l15.41-8.66c1.04,1.62,3.12,2.73,5.53,2.73s4.64-1.19,5.64-2.89l3.98,2.24Z"/>
        <path class="cls-6" d="m271.16,202.04v10.6l-3.98-2.24c.38-.65.59-1.39.59-2.15,0-1.31-.62-2.49-1.62-3.39l5.01-2.82Z"/>
        <path class="cls-6" d="m271.16,190v12.04l-5.01,2.82c-1.14-1.01-2.78-1.65-4.61-1.65s-3.32.58-4.45,1.52l-26.19-14.72h40.27Z"/>
        <polygon class="cls-6" points="271.16 104.9 271.16 110.69 1.13 110.69 .24 110.69 .24 104.9 271.16 104.9"/>
        <rect class="cls-6" x="267.15" y="184.96" width="4.01" height="5.05"/>
        <path class="cls-6" d="m267.77,208.25c0,.77-.21,1.5-.59,2.15l-5.44-3.06,4.41-2.48c1,.9,1.62,2.08,1.62,3.39Z"/>
        <path class="cls-6" d="m261.74,207.34l5.44,3.06c-1,1.71-3.15,2.89-5.64,2.89s-4.5-1.11-5.53-2.73l5.74-3.23Z"/>
        <rect class="cls-7" x="255.8" y="184.96" width="11.35" height="5.05"/>
        <path class="cls-6" d="m266.15,204.86l-4.41,2.48-4.65-2.61c1.13-.93,2.71-1.52,4.45-1.52,1.83,0,3.47.64,4.61,1.65Z"/>
        <path class="cls-6" d="m261.74,207.34l-5.74,3.23c-.44-.69-.7-1.48-.7-2.32,0-1.38.68-2.61,1.78-3.52l4.65,2.61Z"/>
        <path class="cls-6" d="m230.89,190l26.19,14.72c-1.1.91-1.78,2.14-1.78,3.52,0,.84.25,1.63.7,2.32l-15.41,8.66h-41.64l-15.71-8.83c.38-.65.59-1.39.59-2.15,0-1.31-.62-2.49-1.62-3.38l26.44-14.86h22.24Zm-5.99,18.24c0-2.78-2.26-5.04-5.04-5.04s-5.05,2.26-5.05,5.04,2.26,5.05,5.05,5.05,5.04-2.26,5.04-5.05Z"/>
        <polygon class="cls-6" points="255.8 190 230.89 190 225.17 190 225.17 184.96 255.8 184.96 255.8 190"/>
        <rect class="cls-7" x="213.82" y="184.96" width="11.35" height="5.05"/>
        <path class="cls-7" d="m219.87,203.21c2.78,0,5.04,2.26,5.04,5.04s-2.26,5.05-5.04,5.05-5.05-2.26-5.05-5.05,2.26-5.04,5.05-5.04Z"/>
        <path class="cls-6" d="m208.66,190l-26.44,14.86c-1.14-1.02-2.78-1.66-4.61-1.66s-3.32.58-4.45,1.52l-26.19-14.72h61.7Z"/>
        <polygon class="cls-6" points="183.18 190 183.18 184.96 213.82 184.96 213.82 190 208.66 190 183.18 190"/>
        <path class="cls-6" d="m198.96,219.23h-42.29l15.41-8.66c1.04,1.62,3.13,2.73,5.53,2.73s4.64-1.19,5.64-2.89l15.71,8.83Z"/>
        <path class="cls-6" d="m183.84,208.25c0,.77-.21,1.5-.59,2.15l-5.44-3.06,4.41-2.48c1,.89,1.62,2.07,1.62,3.38Z"/>
        <path class="cls-6" d="m177.81,207.34l5.44,3.06c-1,1.71-3.15,2.89-5.64,2.89s-4.5-1.11-5.53-2.73l5.74-3.23Z"/>
        <rect class="cls-7" x="171.83" y="184.96" width="11.35" height="5.05"/>
        <path class="cls-6" d="m177.61,203.21c1.83,0,3.47.64,4.61,1.66l-4.41,2.48-4.65-2.61c1.13-.93,2.71-1.52,4.45-1.52Z"/>
        <path class="cls-6" d="m177.81,207.34l-5.74,3.23c-.44-.69-.7-1.48-.7-2.32,0-1.38.68-2.61,1.78-3.52l4.65,2.61Z"/>
        <path class="cls-6" d="m146.96,190l26.19,14.72c-1.1.91-1.78,2.14-1.78,3.52,0,.84.25,1.63.7,2.32l-15.41,8.66h-41.64l-15.71-8.83c.38-.65.59-1.39.59-2.15,0-1.31-.62-2.49-1.62-3.38l26.44-14.86h22.24Zm-7.04,18.24c0-2.78-2.26-5.04-5.04-5.04s-5.05,2.26-5.05,5.04,2.26,5.05,5.05,5.05,5.04-2.26,5.04-5.05Z"/>
        <polygon class="cls-6" points="171.83 190 146.96 190 141.19 190 141.19 184.96 171.83 184.96 171.83 190"/>
        <rect class="cls-7" x="129.84" y="184.96" width="11.35" height="5.05"/>
        <path class="cls-7" d="m134.88,203.21c2.78,0,5.04,2.26,5.04,5.04s-2.26,5.05-5.04,5.05-5.05-2.26-5.05-5.05,2.26-5.04,5.05-5.04Z"/>
        <path class="cls-6" d="m124.73,190l-26.44,14.86c-1.14-1.02-2.78-1.66-4.61-1.66s-3.32.58-4.45,1.52l-26.19-14.72h61.7Z"/>
        <polygon class="cls-6" points="129.84 190 124.73 190 99.2 190 99.2 184.96 129.84 184.96 129.84 190"/>
        <path class="cls-6" d="m115.02,219.23h-42.29l15.41-8.66c1.04,1.62,3.12,2.73,5.53,2.73s4.64-1.19,5.64-2.89l15.71,8.83Z"/>
        <path class="cls-6" d="m99.91,208.25c0,.77-.21,1.5-.59,2.15l-5.44-3.06,4.41-2.48c1,.89,1.62,2.07,1.62,3.38Z"/>
        <path class="cls-6" d="m93.88,207.34l5.44,3.06c-1,1.71-3.15,2.89-5.64,2.89s-4.5-1.11-5.53-2.73l5.74-3.23Z"/>
        <rect class="cls-7" x="87.85" y="184.96" width="11.35" height="5.05"/>
        <path class="cls-6" d="m93.68,203.21c1.83,0,3.47.64,4.61,1.66l-4.41,2.48-4.65-2.61c1.13-.93,2.71-1.52,4.45-1.52Z"/>
        <path class="cls-6" d="m93.88,207.34l-5.74,3.23c-.44-.69-.7-1.48-.7-2.32,0-1.38.68-2.61,1.78-3.52l4.65,2.61Z"/>
        <path class="cls-6" d="m63.03,190l26.19,14.72c-1.1.91-1.78,2.14-1.78,3.52,0,.84.25,1.63.7,2.32l-15.41,8.66H30.9l-15.71-8.83c.38-.65.59-1.39.59-2.15,0-1.31-.62-2.49-1.62-3.38l26.44-14.86h22.43Zm-8.56,18.24c0-2.78-2.26-5.04-5.04-5.04s-5.05,2.26-5.05,5.04,2.26,5.05,5.05,5.05,5.04-2.26,5.04-5.05Z"/>
        <polygon class="cls-6" points="87.85 190 63.03 190 57.22 190 57.22 184.96 87.85 184.96 87.85 190"/>
        <rect class="cls-7" x="45.87" y="184.96" width="11.35" height="5.05"/>
        <path class="cls-7" d="m49.43,203.21c2.78,0,5.04,2.26,5.04,5.04s-2.26,5.05-5.04,5.05-5.05-2.26-5.05-5.05,2.26-5.04,5.05-5.04Z"/>
        <polygon class="cls-6" points="45.87 190 40.6 190 15.23 190 15.23 184.96 45.87 184.96 45.87 190"/>
        <path class="cls-6" d="m30.9,219.23H.24v-6.55l3.77-2.12c1.04,1.62,3.13,2.73,5.53,2.73s4.64-1.19,5.64-2.89l15.71,8.83Z"/>
        <path class="cls-6" d="m15.79,208.25c0,.77-.21,1.5-.59,2.15l-5.44-3.06,4.41-2.48c1,.89,1.62,2.07,1.62,3.38Z"/>
        <rect class="cls-7" x="3.88" y="184.96" width="11.35" height="5.05"/>
        <path class="cls-6" d="m9.75,207.34l5.44,3.06c-1,1.71-3.15,2.89-5.64,2.89s-4.5-1.11-5.53-2.73l5.74-3.23Z"/>
        <path class="cls-6" d="m9.55,203.21c1.83,0,3.47.64,4.61,1.66l-4.41,2.48-4.65-2.61c1.13-.93,2.71-1.52,4.45-1.52Z"/>
        <path class="cls-6" d="m9.75,207.34l-5.74,3.23c-.44-.69-.7-1.48-.7-2.32,0-1.38.68-2.61,1.78-3.52l4.65,2.61Z"/>
        <path class="cls-6" d="m.24,202l4.86,2.73c-1.1.91-1.78,2.14-1.78,3.52,0,.84.25,1.63.7,2.32l-3.77,2.12v-10.69Z"/>
        <polygon class="cls-9" points="213.82 184.96 183.18 184.96 171.83 184.96 141.19 184.96 129.84 184.96 99.2 184.96 87.85 184.96 57.22 184.96 45.87 184.96 15.23 184.96 3.88 184.96 .24 184.96 .24 110.69 1.13 110.69 271.16 110.69 271.16 184.96 267.15 184.96 255.8 184.96 225.17 184.96 213.82 184.96"/>
        <path class="cls-6" d="m.24,190h40.36l-26.44,14.86c-1.14-1.02-2.78-1.66-4.61-1.66s-3.32.58-4.45,1.52l-4.86-2.73v-11.99Z"/>
      </g>
      <g>
        <polyline class="cls-1" points="271.16 219.23 240.59 219.23 198.96 219.23 156.66 219.23 115.02 219.23 72.73 219.23 30.9 219.23 .24 219.23"/>
        <line class="cls-1" x1=".24" y1="104.9" x2="271.16" y2="104.9"/>
        <line class="cls-1" x1=".24" y1="110.69" x2="271.16" y2="110.69"/>
        <line class="cls-1" x1="267.15" y1="184.96" x2="271.16" y2="184.96"/>
        <line class="cls-1" x1="225.17" y1="184.96" x2="255.8" y2="184.96"/>
        <line class="cls-1" x1="183.18" y1="184.96" x2="213.82" y2="184.96"/>
        <line class="cls-1" x1="141.19" y1="184.96" x2="171.83" y2="184.96"/>
        <line class="cls-1" x1="99.2" y1="184.96" x2="129.84" y2="184.96"/>
        <line class="cls-1" x1="57.22" y1="184.96" x2="87.85" y2="184.96"/>
        <line class="cls-1" x1="15.23" y1="184.96" x2="45.87" y2="184.96"/>
        <line class="cls-1" x1=".24" y1="184.96" x2="3.88" y2="184.96"/>
        <line class="cls-1" x1="267.15" y1="190" x2="271.16" y2="190"/>
        <polyline class="cls-1" points="225.17 190 230.89 190 255.8 190"/>
        <polyline class="cls-1" points="183.18 190 208.66 190 213.82 190"/>
        <polyline class="cls-1" points="141.19 190 146.96 190 171.83 190"/>
        <polyline class="cls-1" points="99.2 190 124.73 190 129.84 190"/>
        <polyline class="cls-1" points="57.22 190 63.03 190 87.85 190"/>
        <polyline class="cls-1" points="15.23 190 40.6 190 45.87 190"/>
        <line class="cls-1" x1=".24" y1="190" x2="3.88" y2="190"/>
        <polyline class="cls-1" points="72.73 219.23 88.14 210.57 93.88 207.34 98.29 204.87 124.73 190"/>
        <polyline class="cls-1" points="115.02 219.23 99.32 210.4 93.88 207.34 89.22 204.73 63.03 190"/>
        <path class="cls-1" d="m139.92,208.25c0,2.79-2.26,5.05-5.04,5.05s-5.05-2.26-5.05-5.05,2.26-5.04,5.05-5.04,5.04,2.26,5.04,5.04Z"/>
        <path class="cls-1" d="m224.9,208.25c0,2.79-2.26,5.05-5.04,5.05s-5.05-2.26-5.05-5.05,2.26-5.04,5.05-5.04,5.04,2.26,5.04,5.04Z"/>
        <path class="cls-1" d="m98.29,204.87c1,.89,1.62,2.07,1.62,3.38,0,.77-.21,1.5-.59,2.15-1,1.71-3.15,2.89-5.64,2.89s-4.5-1.11-5.53-2.73c-.44-.69-.7-1.48-.7-2.32,0-1.38.68-2.61,1.78-3.52,1.13-.93,2.71-1.52,4.45-1.52,1.83,0,3.47.64,4.61,1.66Z"/>
        <polyline class="cls-1" points=".24 212.68 4.02 210.57 9.75 207.34 14.17 204.87 40.6 190"/>
        <polyline class="cls-1" points="30.9 219.23 15.19 210.4 9.75 207.34 5.1 204.73 .24 202"/>
        <path class="cls-1" d="m14.17,204.87c1,.89,1.62,2.07,1.62,3.38,0,.77-.21,1.5-.59,2.15-1,1.71-3.15,2.89-5.64,2.89s-4.5-1.11-5.53-2.73c-.44-.69-.7-1.48-.7-2.32,0-1.38.68-2.61,1.78-3.52,1.13-.93,2.71-1.52,4.45-1.52,1.83,0,3.47.64,4.61,1.66Z"/>
        <polyline class="cls-1" points="156.66 219.23 172.07 210.57 177.81 207.34 182.22 204.87 208.66 190"/>
        <polyline class="cls-1" points="198.96 219.23 183.25 210.4 177.81 207.34 173.15 204.73 146.96 190"/>
        <path class="cls-1" d="m182.22,204.87c1,.89,1.62,2.07,1.62,3.38,0,.77-.21,1.5-.59,2.15-1,1.71-3.15,2.89-5.64,2.89s-4.5-1.11-5.53-2.73c-.44-.69-.7-1.48-.7-2.32,0-1.38.68-2.61,1.78-3.52,1.13-.93,2.71-1.52,4.45-1.52,1.83,0,3.47.64,4.61,1.66Z"/>
        <polyline class="cls-1" points="240.59 219.23 256 210.57 261.74 207.34 266.15 204.86 271.16 202.04"/>
        <polyline class="cls-1" points="271.16 212.64 267.18 210.4 261.74 207.34 257.09 204.73 230.89 190"/>
        <path class="cls-1" d="m266.15,204.86c1,.9,1.62,2.08,1.62,3.39,0,.77-.21,1.5-.59,2.15-1,1.71-3.15,2.89-5.64,2.89s-4.5-1.11-5.53-2.73c-.44-.69-.7-1.48-.7-2.32,0-1.38.68-2.61,1.78-3.52,1.13-.93,2.71-1.52,4.45-1.52,1.83,0,3.47.64,4.61,1.65Z"/>
        <path class="cls-1" d="m54.47,208.25c0,2.79-2.26,5.05-5.04,5.05s-5.05-2.26-5.05-5.05,2.26-5.04,5.05-5.04,5.04,2.26,5.04,5.04Z"/>
        <rect class="cls-1" x="3.88" y="184.96" width="11.35" height="5.05"/>
        <rect class="cls-1" x="45.87" y="184.96" width="11.35" height="5.05"/>
        <rect class="cls-1" x="87.85" y="184.96" width="11.35" height="5.05"/>
        <rect class="cls-1" x="129.84" y="184.96" width="11.35" height="5.05"/>
        <rect class="cls-1" x="171.83" y="184.96" width="11.35" height="5.05"/>
        <rect class="cls-1" x="213.82" y="184.96" width="11.35" height="5.05"/>
        <rect class="cls-1" x="255.8" y="184.96" width="11.35" height="5.05"/>
      </g>
    </g>
    <g>
      <g>
        <rect class="cls-6" x=".24" y="184.96" width="3.63" height="5.05"/>
        <path class="cls-6" d="m271.16,212.64v6.59h-30.57l15.41-8.66c1.04,1.62,3.12,2.73,5.53,2.73s4.64-1.19,5.64-2.89l3.98,2.24Z"/>
        <path class="cls-6" d="m271.16,202.04v10.6l-3.98-2.24c.38-.65.59-1.39.59-2.15,0-1.31-.62-2.49-1.62-3.39l5.01-2.82Z"/>
        <path class="cls-6" d="m271.16,190v12.04l-5.01,2.82c-1.14-1.01-2.78-1.65-4.61-1.65s-3.32.58-4.45,1.52l-26.19-14.72h40.27Z"/>
        <polygon class="cls-6" points="271.16 104.9 271.16 110.69 1.13 110.69 .24 110.69 .24 104.9 271.16 104.9"/>
        <rect class="cls-6" x="267.15" y="184.96" width="4.01" height="5.05"/>
        <path class="cls-6" d="m267.77,208.25c0,.77-.21,1.5-.59,2.15l-5.44-3.06,4.41-2.48c1,.9,1.62,2.08,1.62,3.39Z"/>
        <path class="cls-6" d="m261.74,207.34l5.44,3.06c-1,1.71-3.15,2.89-5.64,2.89s-4.5-1.11-5.53-2.73l5.74-3.23Z"/>
        <rect class="cls-7" x="255.8" y="184.96" width="11.35" height="5.05"/>
        <path class="cls-6" d="m266.15,204.86l-4.41,2.48-4.65-2.61c1.13-.93,2.71-1.52,4.45-1.52,1.83,0,3.47.64,4.61,1.65Z"/>
        <path class="cls-6" d="m261.74,207.34l-5.74,3.23c-.44-.69-.7-1.48-.7-2.32,0-1.38.68-2.61,1.78-3.52l4.65,2.61Z"/>
        <path class="cls-6" d="m230.89,190l26.19,14.72c-1.1.91-1.78,2.14-1.78,3.52,0,.84.25,1.63.7,2.32l-15.41,8.66h-41.64l-15.71-8.83c.38-.65.59-1.39.59-2.15,0-1.31-.62-2.49-1.62-3.38l26.44-14.86h22.24Zm-5.99,18.24c0-2.78-2.26-5.04-5.04-5.04s-5.05,2.26-5.05,5.04,2.26,5.05,5.05,5.05,5.04-2.26,5.04-5.05Z"/>
        <polygon class="cls-6" points="255.8 190 230.89 190 225.17 190 225.17 184.96 255.8 184.96 255.8 190"/>
        <rect class="cls-7" x="213.82" y="184.96" width="11.35" height="5.05"/>
        <path class="cls-7" d="m219.87,203.21c2.78,0,5.04,2.26,5.04,5.04s-2.26,5.05-5.04,5.05-5.05-2.26-5.05-5.05,2.26-5.04,5.05-5.04Z"/>
        <path class="cls-6" d="m208.66,190l-26.44,14.86c-1.14-1.02-2.78-1.66-4.61-1.66s-3.32.58-4.45,1.52l-26.19-14.72h61.7Z"/>
        <polygon class="cls-6" points="183.18 190 183.18 184.96 213.82 184.96 213.82 190 208.66 190 183.18 190"/>
        <path class="cls-6" d="m198.96,219.23h-42.29l15.41-8.66c1.04,1.62,3.13,2.73,5.53,2.73s4.64-1.19,5.64-2.89l15.71,8.83Z"/>
        <path class="cls-6" d="m183.84,208.25c0,.77-.21,1.5-.59,2.15l-5.44-3.06,4.41-2.48c1,.89,1.62,2.07,1.62,3.38Z"/>
        <path class="cls-6" d="m177.81,207.34l5.44,3.06c-1,1.71-3.15,2.89-5.64,2.89s-4.5-1.11-5.53-2.73l5.74-3.23Z"/>
        <rect class="cls-7" x="171.83" y="184.96" width="11.35" height="5.05"/>
        <path class="cls-6" d="m177.61,203.21c1.83,0,3.47.64,4.61,1.66l-4.41,2.48-4.65-2.61c1.13-.93,2.71-1.52,4.45-1.52Z"/>
        <path class="cls-6" d="m177.81,207.34l-5.74,3.23c-.44-.69-.7-1.48-.7-2.32,0-1.38.68-2.61,1.78-3.52l4.65,2.61Z"/>
        <path class="cls-6" d="m146.96,190l26.19,14.72c-1.1.91-1.78,2.14-1.78,3.52,0,.84.25,1.63.7,2.32l-15.41,8.66h-41.64l-15.71-8.83c.38-.65.59-1.39.59-2.15,0-1.31-.62-2.49-1.62-3.38l26.44-14.86h22.24Zm-7.04,18.24c0-2.78-2.26-5.04-5.04-5.04s-5.05,2.26-5.05,5.04,2.26,5.05,5.05,5.05,5.04-2.26,5.04-5.05Z"/>
        <polygon class="cls-6" points="171.83 190 146.96 190 141.19 190 141.19 184.96 171.83 184.96 171.83 190"/>
        <rect class="cls-7" x="129.84" y="184.96" width="11.35" height="5.05"/>
        <path class="cls-7" d="m134.88,203.21c2.78,0,5.04,2.26,5.04,5.04s-2.26,5.05-5.04,5.05-5.05-2.26-5.05-5.05,2.26-5.04,5.05-5.04Z"/>
        <path class="cls-6" d="m124.73,190l-26.44,14.86c-1.14-1.02-2.78-1.66-4.61-1.66s-3.32.58-4.45,1.52l-26.19-14.72h61.7Z"/>
        <polygon class="cls-6" points="129.84 190 124.73 190 99.2 190 99.2 184.96 129.84 184.96 129.84 190"/>
        <path class="cls-6" d="m115.02,219.23h-42.29l15.41-8.66c1.04,1.62,3.12,2.73,5.53,2.73s4.64-1.19,5.64-2.89l15.71,8.83Z"/>
        <path class="cls-6" d="m99.91,208.25c0,.77-.21,1.5-.59,2.15l-5.44-3.06,4.41-2.48c1,.89,1.62,2.07,1.62,3.38Z"/>
        <path class="cls-6" d="m93.88,207.34l5.44,3.06c-1,1.71-3.15,2.89-5.64,2.89s-4.5-1.11-5.53-2.73l5.74-3.23Z"/>
        <rect class="cls-7" x="87.85" y="184.96" width="11.35" height="5.05"/>
        <path class="cls-6" d="m93.68,203.21c1.83,0,3.47.64,4.61,1.66l-4.41,2.48-4.65-2.61c1.13-.93,2.71-1.52,4.45-1.52Z"/>
        <path class="cls-6" d="m93.88,207.34l-5.74,3.23c-.44-.69-.7-1.48-.7-2.32,0-1.38.68-2.61,1.78-3.52l4.65,2.61Z"/>
        <path class="cls-6" d="m63.03,190l26.19,14.72c-1.1.91-1.78,2.14-1.78,3.52,0,.84.25,1.63.7,2.32l-15.41,8.66H30.9l-15.71-8.83c.38-.65.59-1.39.59-2.15,0-1.31-.62-2.49-1.62-3.38l26.44-14.86h22.43Zm-8.56,18.24c0-2.78-2.26-5.04-5.04-5.04s-5.05,2.26-5.05,5.04,2.26,5.05,5.05,5.05,5.04-2.26,5.04-5.05Z"/>
        <polygon class="cls-6" points="87.85 190 63.03 190 57.22 190 57.22 184.96 87.85 184.96 87.85 190"/>
        <rect class="cls-7" x="45.87" y="184.96" width="11.35" height="5.05"/>
        <path class="cls-7" d="m49.43,203.21c2.78,0,5.04,2.26,5.04,5.04s-2.26,5.05-5.04,5.05-5.05-2.26-5.05-5.05,2.26-5.04,5.05-5.04Z"/>
        <polygon class="cls-6" points="45.87 190 40.6 190 15.23 190 15.23 184.96 45.87 184.96 45.87 190"/>
        <path class="cls-6" d="m30.9,219.23H.24v-6.55l3.77-2.12c1.04,1.62,3.13,2.73,5.53,2.73s4.64-1.19,5.64-2.89l15.71,8.83Z"/>
        <path class="cls-6" d="m15.79,208.25c0,.77-.21,1.5-.59,2.15l-5.44-3.06,4.41-2.48c1,.89,1.62,2.07,1.62,3.38Z"/>
        <rect class="cls-7" x="3.88" y="184.96" width="11.35" height="5.05"/>
        <path class="cls-6" d="m9.75,207.34l5.44,3.06c-1,1.71-3.15,2.89-5.64,2.89s-4.5-1.11-5.53-2.73l5.74-3.23Z"/>
        <path class="cls-6" d="m9.55,203.21c1.83,0,3.47.64,4.61,1.66l-4.41,2.48-4.65-2.61c1.13-.93,2.71-1.52,4.45-1.52Z"/>
        <path class="cls-6" d="m9.75,207.34l-5.74,3.23c-.44-.69-.7-1.48-.7-2.32,0-1.38.68-2.61,1.78-3.52l4.65,2.61Z"/>
        <path class="cls-6" d="m.24,202l4.86,2.73c-1.1.91-1.78,2.14-1.78,3.52,0,.84.25,1.63.7,2.32l-3.77,2.12v-10.69Z"/>
        <polygon class="cls-9" points="213.82 184.96 183.18 184.96 171.83 184.96 141.19 184.96 129.84 184.96 99.2 184.96 87.85 184.96 57.22 184.96 45.87 184.96 15.23 184.96 3.88 184.96 .24 184.96 .24 110.69 1.13 110.69 271.16 110.69 271.16 184.96 267.15 184.96 255.8 184.96 225.17 184.96 213.82 184.96"/>
        <path class="cls-6" d="m.24,190h40.36l-26.44,14.86c-1.14-1.02-2.78-1.66-4.61-1.66s-3.32.58-4.45,1.52l-4.86-2.73v-11.99Z"/>
      </g>
      <g>
        <polyline class="cls-1" points="271.16 219.23 240.59 219.23 198.96 219.23 156.66 219.23 115.02 219.23 72.73 219.23 30.9 219.23 .24 219.23"/>
        <line class="cls-1" x1=".24" y1="104.9" x2="271.16" y2="104.9"/>
        <line class="cls-1" x1=".24" y1="110.69" x2="271.16" y2="110.69"/>
        <line class="cls-1" x1="267.15" y1="184.96" x2="271.16" y2="184.96"/>
        <line class="cls-1" x1="225.17" y1="184.96" x2="255.8" y2="184.96"/>
        <line class="cls-1" x1="183.18" y1="184.96" x2="213.82" y2="184.96"/>
        <line class="cls-1" x1="141.19" y1="184.96" x2="171.83" y2="184.96"/>
        <line class="cls-1" x1="99.2" y1="184.96" x2="129.84" y2="184.96"/>
        <line class="cls-1" x1="57.22" y1="184.96" x2="87.85" y2="184.96"/>
        <line class="cls-1" x1="15.23" y1="184.96" x2="45.87" y2="184.96"/>
        <line class="cls-1" x1=".24" y1="184.96" x2="3.88" y2="184.96"/>
        <line class="cls-1" x1="267.15" y1="190" x2="271.16" y2="190"/>
        <polyline class="cls-1" points="225.17 190 230.89 190 255.8 190"/>
        <polyline class="cls-1" points="183.18 190 208.66 190 213.82 190"/>
        <polyline class="cls-1" points="141.19 190 146.96 190 171.83 190"/>
        <polyline class="cls-1" points="99.2 190 124.73 190 129.84 190"/>
        <polyline class="cls-1" points="57.22 190 63.03 190 87.85 190"/>
        <polyline class="cls-1" points="15.23 190 40.6 190 45.87 190"/>
        <line class="cls-1" x1=".24" y1="190" x2="3.88" y2="190"/>
        <polyline class="cls-1" points="72.73 219.23 88.14 210.57 93.88 207.34 98.29 204.87 124.73 190"/>
        <polyline class="cls-1" points="115.02 219.23 99.32 210.4 93.88 207.34 89.22 204.73 63.03 190"/>
        <path class="cls-1" d="m139.92,208.25c0,2.79-2.26,5.05-5.04,5.05s-5.05-2.26-5.05-5.05,2.26-5.04,5.05-5.04,5.04,2.26,5.04,5.04Z"/>
        <path class="cls-1" d="m224.9,208.25c0,2.79-2.26,5.05-5.04,5.05s-5.05-2.26-5.05-5.05,2.26-5.04,5.05-5.04,5.04,2.26,5.04,5.04Z"/>
        <path class="cls-1" d="m98.29,204.87c1,.89,1.62,2.07,1.62,3.38,0,.77-.21,1.5-.59,2.15-1,1.71-3.15,2.89-5.64,2.89s-4.5-1.11-5.53-2.73c-.44-.69-.7-1.48-.7-2.32,0-1.38.68-2.61,1.78-3.52,1.13-.93,2.71-1.52,4.45-1.52,1.83,0,3.47.64,4.61,1.66Z"/>
        <polyline class="cls-1" points=".24 212.68 4.02 210.57 9.75 207.34 14.17 204.87 40.6 190"/>
        <polyline class="cls-1" points="30.9 219.23 15.19 210.4 9.75 207.34 5.1 204.73 .24 202"/>
        <path class="cls-1" d="m14.17,204.87c1,.89,1.62,2.07,1.62,3.38,0,.77-.21,1.5-.59,2.15-1,1.71-3.15,2.89-5.64,2.89s-4.5-1.11-5.53-2.73c-.44-.69-.7-1.48-.7-2.32,0-1.38.68-2.61,1.78-3.52,1.13-.93,2.71-1.52,4.45-1.52,1.83,0,3.47.64,4.61,1.66Z"/>
        <polyline class="cls-1" points="156.66 219.23 172.07 210.57 177.81 207.34 182.22 204.87 208.66 190"/>
        <polyline class="cls-1" points="198.96 219.23 183.25 210.4 177.81 207.34 173.15 204.73 146.96 190"/>
        <path class="cls-1" d="m182.22,204.87c1,.89,1.62,2.07,1.62,3.38,0,.77-.21,1.5-.59,2.15-1,1.71-3.15,2.89-5.64,2.89s-4.5-1.11-5.53-2.73c-.44-.69-.7-1.48-.7-2.32,0-1.38.68-2.61,1.78-3.52,1.13-.93,2.71-1.52,4.45-1.52,1.83,0,3.47.64,4.61,1.66Z"/>
        <polyline class="cls-1" points="240.59 219.23 256 210.57 261.74 207.34 266.15 204.86 271.16 202.04"/>
        <polyline class="cls-1" points="271.16 212.64 267.18 210.4 261.74 207.34 257.09 204.73 230.89 190"/>
        <path class="cls-1" d="m266.15,204.86c1,.9,1.62,2.08,1.62,3.39,0,.77-.21,1.5-.59,2.15-1,1.71-3.15,2.89-5.64,2.89s-4.5-1.11-5.53-2.73c-.44-.69-.7-1.48-.7-2.32,0-1.38.68-2.61,1.78-3.52,1.13-.93,2.71-1.52,4.45-1.52,1.83,0,3.47.64,4.61,1.65Z"/>
        <path class="cls-1" d="m54.47,208.25c0,2.79-2.26,5.05-5.04,5.05s-5.05-2.26-5.05-5.05,2.26-5.04,5.05-5.04,5.04,2.26,5.04,5.04Z"/>
        <rect class="cls-1" x="3.88" y="184.96" width="11.35" height="5.05"/>
        <rect class="cls-1" x="45.87" y="184.96" width="11.35" height="5.05"/>
        <rect class="cls-1" x="87.85" y="184.96" width="11.35" height="5.05"/>
        <rect class="cls-1" x="129.84" y="184.96" width="11.35" height="5.05"/>
        <rect class="cls-1" x="171.83" y="184.96" width="11.35" height="5.05"/>
        <rect class="cls-1" x="213.82" y="184.96" width="11.35" height="5.05"/>
        <rect class="cls-1" x="255.8" y="184.96" width="11.35" height="5.05"/>
      </g>
    </g>
  </g>
  <g id="_レイヤー_2" data-name="レイヤー 2">
    <g>
      <path class="cls-7" d="m133.95,29.02c0,1.89.9,6.79.67,7.9-.23,1.12-1.17.65-1.17.65-1.09-1.28-4.23-5.48-5.43-4.46,0-5.71-.75-12.87-.75-12.87-2.55-.34-5.56-.9-5.89-2.34s-1.45-3.89,2.22-5.89,17.14-5.01,19.59-6.56c2.45-1.56,9.13-4.01,11.35-4.79,2.22-.78,5.34,1.66,4.23,4.56-1.11,2.89-7.34,5.67-7.34,5.67,0,0,1.33,8.46,1,8.9-.1.13-.28.25-.59.35-.74.24-2.21.34-4.98.1-3.9-.34-11.24-.73-12.12.13s-.78,6.76-.78,8.66Z"/>
      <path class="cls-3" d="m194.04,155.87c-7.79,2.89-20.03,2.23-20.03,2.23-9.13,4.45-16.02,9.12-28.93,2,.75-1.16,1.26-2.22,1.65-3.7,8.19,3.43,19.57,1.7,27.43-2.51,4.92,1.56,10.3-.07,14.08-1.8l.24.51s1.01,5.79,11.89,0c-2.07,1.6-4.21,2.77-6.33,3.26Z"/>
      <path class="cls-4" d="m77.65,157.9l.07.22c-3.59,1.12-6.35,3.63-8.75,6.65-6.1,1.25-24.58,3.32-33.16-4.67,3.04-3.19,25-4.97,29.16-4.23,4.15.74,12.68,2.03,12.68,2.03Z"/>
      <path class="cls-4" d="m77.65,157.9c8.08-6.03,17.88-8.12,22.92-10.93,5.04-2.82,6.01-8.5,8.23-9.01,2.22-.52,1.22,3.8,10.44,3.36,9.22-.44,10.73-1.32,10.73-1.32-1.8,3.28-4.37,5.87-7.38,7.37-1.15.58-2.37.99-3.63,1.23-8.01,1.48-29.97,9.2-36.2,8.9-1.86-.09-3.53.14-5.05.62l-.07-.22Z"/>
      <path class="cls-4" d="m233.24,133.73s8.54,3.45,14.22,1.22c-6.23,4.45-15.8,10.02-21.81,10.02,4.18-1.86,6.42-6.32,7.23-11.3l.37.06Z"/>
      <path class="cls-4" d="m165.84,59.59l6.98,8.01c-3.08,1.4-7.86,4.59-7.86,4.59l-.31.24c-1.12-1.38-2.34-2.83-3.51-4.26l.77-.58s1.82-3.92,3.93-8.01Z"/>
      <path class="cls-4" d="m131.28,102.17l-6.08-.75s-.15-.89-2.82-11.57c-2.41-9.65-21.39-16.88-32.98-19.56,0,0,7.99-10.95,13.07-11.5,3.32,2,8.75,5.55,14.28,10.43,8.9,7.86,13.65,18.1,14.54,32.94Z"/>
      <path class="cls-5" d="m82.76,157.5c6.23.31,28.19-7.42,36.2-8.9,1.26-.24,2.48-.65,3.63-1.23h0s-7.18,9.54-11.19,12.73c-4,3.19-10.55,5.74-10.55,5.74-15.11-.78-30.11-1.51-30.11-1.51-.31.11-.92.27-1.78.44,2.4-3.02,5.16-5.53,8.75-6.65,1.52-.48,3.19-.71,5.05-.62Z"/>
      <path class="cls-5" d="m109.76,166.27h0c-1.16-.03-2.36-.09-3.62-.16-1.74-.1-3.51-.18-5.28-.28,0,0,6.55-2.55,10.55-5.74,4.01-3.19,11.19-12.72,11.19-12.72h0c3.02-1.51,5.59-4.11,7.38-7.38,1.89-3.44,2.92-7.63,2.68-12.06,8.56,4.5,15.79,10.29,15.22,18.74-.33,4.89-.62,7.7-1.15,9.73-.38,1.47-.9,2.54-1.65,3.7-13.38,4.53-21.04,6.58-35.32,6.17Z"/>
      <path class="cls-5" d="m200.37,152.61c-10.88,5.79-11.89,0-11.89,0l-.24-.51c2.95-1.35,4.92-2.75,4.92-2.75-8.16-.15-14.39-12.01-21.92-24.03,2.15-1.6,4.11-3.52,6.56-5.43,3.58-2.77,8.2-5.52,15.95-7.13,13.06-2.72,29.37-2.72,35.01,2.02,3.38,2.84,5.33,11.45,4.11,18.9-.81,4.98-3.04,9.44-7.23,11.3-10.69,5.56-28.04,10.9-31.61,10.9,2.12-.49,4.25-1.66,6.33-3.26Z"/>
      <path class="cls-8" d="m161.14,68.17c-3.71-4.46-7.16-8.59-7.16-8.59h-2.33l-.46-1.99c.57-.13,1.12-.27,1.68-.43,1.62-.45,2.78-1.68,3.62-3.38,0,0,9.81,1.82,10.84,2.99-.5.92-1,1.87-1.49,2.81-2.11,4.09-3.93,8.01-3.93,8.01l-.77.58Z"/>
      <path class="cls-8" d="m178.02,98.46c.07-2.1-.53-4.62-1.49-7.2-1.88-5.09-5.13-10.39-7.19-13.05-.93-1.2-2.68-3.35-4.68-5.77l.31-.24s4.79-3.19,7.86-4.59c1.12-.52,2.01-.8,2.37-.6,1.34.75,6.97,5.49,10.09,9.2,3.11,3.7,6.68,9.34,7.12,10.83.44,1.49,1.93,9.65,2.07,10.24,8.75,1.04,24.93-.82,32.5,6.97,7.57,7.78,20.48,27.15,20.48,30.71-5.67,2.23-14.22-1.22-14.22-1.22l-.37-.06c1.22-7.44-.73-16.06-4.11-18.9-5.64-4.74-21.96-4.74-35.01-2.02-7.75,1.61-12.37,4.36-15.95,7.13l-1.27-1.26c1.18-2.54,1.5-19.05,1.5-19.05v-1.12Z"/>
      <path class="cls-8" d="m34.92,114.92c5.56,1.12,12.91,4.23,12.91,4.23,4.67-5.78,14.46-19.8,20.25-27.81,1.16-1.6,2.92-3.92,5.06-6.62l1.61.51c-7.44,9.47-9.79,40.6-9.79,40.6l.11.51c-6.39,1.39-12.67,4.44-14.81,5.5-3.11,1.56-11.79-.89-11.79-.89l-3.56-16.03Z"/>
    </g>
    <path class="cls-2" d="m128.02,33.1c0-5.71-.75-12.87-.75-12.87-2.55-.34-5.56-.9-5.89-2.34s-1.45-3.89,2.22-5.89,17.14-5.01,19.59-6.56c2.45-1.56,9.13-4.01,11.35-4.79,2.22-.78,5.34,1.66,4.23,4.56-1.11,2.89-7.34,5.67-7.34,5.67,0,0,1.33,8.46,1,8.9-.1.13-.28.25-.59.35-.74.24-2.21.34-4.98.1-3.9-.34-11.24-.73-12.12.13s-.78,6.76-.78,8.66.9,6.79.67,7.9c-.23,1.12-1.17.65-1.17.65-1.09-1.28-4.23-5.48-5.43-4.46Z"/>
    <path class="cls-2" d="m128.22,33.1c-.07,0-.13,0-.19.02-2.09.37-.83,6.9-.17,8.45.17.41.51.76.92,1.04.74.5,1.78.79,2.78.89.78.07,1.98-.11,1.98-.11"/>
    <path class="cls-2" d="m156.49,53.79s9.81,1.82,10.84,2.99c-.5.92-1,1.87-1.49,2.81-2.11,4.09-3.93,8.01-3.93,8.01"/>
    <line class="cls-2" x1="165.84" y1="59.59" x2="172.82" y2="67.6"/>
    <g>
      <path class="cls-10" d="m147.41,58.21c-.99,1.82-4.11,5.2-11.24,3.41-4.71-1.18-7.1-3.86-8.27-6.35l.26-3.84.3-4.31h.31s2.06,0,3.09-.97.78-2.66.78-2.66l-3.88-.9c-.42-.28-.75-.63-.92-1.04-.65-1.54-1.92-8.08.17-8.45v-.02c1.19-1.02,4.33,3.18,5.42,4.46,0,0,.94.47,1.17-.65.23-1.11-.67-6.01-.67-7.9s-.1-7.79.78-8.66,8.23-.47,12.12-.13c2.76.24,4.24.14,4.98-.1,2.26,2,7.62,10.26,7.16,17.53-.32,5.15-.47,12.02-2.51,16.13-.84,1.7-2,2.93-3.62,3.38-.56.16-1.12.3-1.68.43-1.26.29-2.52.5-3.77.61Z"/>
      <path class="cls-8" d="m89.4,70.29c11.59,2.68,30.57,9.91,32.98,19.56,2.67,10.68,2.82,11.57,2.82,11.57l6.08.75c-.89-14.84-5.64-25.08-14.54-32.94-5.53-4.88-10.96-8.44-14.28-10.43-2.02-1.21-3.26-1.85-3.26-1.85,1.2-.83,2.27-1.41,3.15-1.67,7.57-2.22,24.58-3.44,24.58-3.44.1.94.37,2.16.98,3.44,1.17,2.48,3.57,5.17,8.27,6.35,7.12,1.79,10.24-1.59,11.24-3.41,1.26-.11,2.52-.32,3.77-.61l.46,1.99h2.33s3.45,4.12,7.16,8.59c1.18,1.43,2.39,2.89,3.51,4.26,2,2.42,3.75,4.57,4.68,5.77,2.07,2.66,5.31,7.96,7.19,13.05.96,2.58,1.56,5.1,1.49,7.2v1.12s-.32,16.52-1.5,19.05l1.27,1.26c-2.45,1.91-4.41,3.84-6.56,5.43,7.53,12.02,13.76,23.88,21.92,24.03,0,0-1.97,1.4-4.92,2.75-3.77,1.73-9.16,3.36-14.08,1.8-7.86,4.21-19.24,5.94-27.43,2.51.53-2.03.82-4.84,1.15-9.73.58-8.46-6.66-14.24-15.22-18.74.24,4.44-.79,8.62-2.68,12.06,0,0-1.51.89-10.73,1.32-9.22.44-8.22-3.89-10.44-3.36-2.21.51-3.19,6.2-8.23,9.01-5.05,2.82-14.84,4.9-22.92,10.93,0,0-8.53-1.29-12.68-2.03-4.16-.74-26.11,1.04-29.16,4.23-11.35,2.23-21.81,4.9-23.6,2,.9-9.34,12.69-42.06,22.71-47.18l3.56,16.03s8.68,2.45,11.79.89c2.14-1.06,8.42-4.11,14.81-5.5l-.11-.51s2.34-31.13,9.79-40.6l-1.61-.51c3.57-4.5,8.18-10.06,12.8-15.13,1.05.18,2.21.42,3.46.71Z"/>
      <path class="cls-7" d="m131.87,46.16c-1.04.97-3.09.97-3.09.97h-.31l.31-4.52,3.88.9s.25,1.69-.78,2.66Z"/>
      <path class="cls-10" d="m128.17,51.44l-.26,3.84c-.6-1.28-.88-2.5-.98-3.44l1.24-.39Z"/>
    </g>
    <g>
      <path class="cls-2" d="m128.17,51.44l-1.24.39c.1.94.37,2.16.98,3.44,1.17,2.48,3.57,5.17,8.27,6.35,7.12,1.79,10.24-1.59,11.24-3.41"/>
      <path class="cls-1" d="m128.46,47.12l.31-4.52,3.88.9s.25,1.69-.78,2.66-3.09.97-3.09.97h-.31"/>
      <polyline class="cls-1" points="127.91 55.27 128.17 51.44 128.46 47.12"/>
      <path class="cls-2" d="m109.75,166.27c-1.16-.03-2.36-.09-3.62-.16-1.74-.1-3.51-.18-5.28-.28-15.11-.78-30.11-1.51-30.11-1.51-.31.11-.92.27-1.78.44-6.1,1.25-24.58,3.32-33.16-4.67-11.35,2.23-21.81,4.9-23.6,2,.9-9.34,12.69-42.06,22.71-47.18,5.56,1.12,12.91,4.23,12.91,4.23,4.67-5.78,14.46-19.8,20.25-27.81,1.16-1.6,2.92-3.92,5.06-6.62,3.57-4.5,8.18-10.06,12.8-15.13,1.05.18,2.21.42,3.46.71,11.59,2.68,30.57,9.91,32.98,19.56,2.67,10.68,2.82,11.57,2.82,11.57l6.08.75c-.89-14.84-5.64-25.08-14.54-32.94-5.53-4.88-10.96-8.44-14.28-10.43-2.02-1.21-3.26-1.85-3.26-1.85,1.2-.83,2.27-1.41,3.15-1.67,7.57-2.22,24.58-3.44,24.58-3.44"/>
    </g>
    <path class="cls-2" d="m164.96,72.19s4.79-3.19,7.86-4.59c1.12-.52,2.01-.8,2.37-.6,1.34.75,6.97,5.49,10.09,9.2,3.11,3.7,6.68,9.34,7.12,10.83.44,1.49,1.93,9.65,2.07,10.24,8.75,1.04,24.93-.82,32.5,6.97,7.57,7.78,20.48,27.15,20.48,30.71-6.23,4.45-15.8,10.02-21.81,10.02-10.69,5.56-28.04,10.9-31.61,10.9-7.79,2.89-20.03,2.23-20.03,2.23-9.13,4.45-16.02,9.12-28.93,2-13.38,4.53-21.04,6.58-35.32,6.17"/>
    <path class="cls-2" d="m64.97,125.83s2.34-31.13,9.79-40.6c.5-.63,1.02-1.17,1.56-1.59"/>
    <path class="cls-2" d="m46.52,118.63s-4.26,9.43-6.04,10.76"/>
    <path class="cls-2" d="m34.92,114.92l3.56,16.03s8.68,2.45,11.79.89c2.14-1.06,8.42-4.11,14.81-5.5,2.96-.65,5.95-.93,8.56-.51,16.25-3.78,29.16-11.79,29.37-12.68.23-.89-29.82,0-29.82,0"/>
    <path class="cls-2" d="m77.65,98.9s2.45,2.89,12.91,3.57c10.46.66,18.47,2.09,21.36,2.27s12.24.89,4-2.91c-8.23-3.81-22.25-9.15-25.59-10.04s-2.89-2.45-2.22-4.23c.66-1.78,2.67-5.12,5.34-2,2.67,3.12,6.22,5.12,6.22,5.12"/>
    <path class="cls-2" d="m89.4,70.29s7.99-10.95,13.07-11.5"/>
    <path class="cls-2" d="m136.74,112.75s4.3-14.97-3.81-30.32c-8.1-15.36-11.71-19.43-13.68-22.85s.91-5.53,3.36-2.81,10.94,11.33,17.38,10.82c3.02-.24,5.81-.88,7.91-2.02,2.35-1.3,3.83-3.23,3.77-5.99"/>
    <path class="cls-2" d="m147.88,65.57h0c.39.49,13.03,15.7,15.22,26.21,2.22,10.69,3.12,25.15,1.56,28.49"/>
    <path class="cls-2" d="m182.91,80.65s-4.31,9.83-6.38,10.61h0"/>
    <path class="cls-2" d="m188.48,92.92l-10.46,5.53c.07-2.1-.53-4.62-1.49-7.2-1.88-5.09-5.13-10.39-7.19-13.05-.93-1.2-2.68-3.35-4.68-5.77-1.12-1.38-2.34-2.83-3.51-4.26-3.71-4.46-7.16-8.59-7.16-8.59"/>
    <path class="cls-2" d="m178.02,99.57s-.32,16.52-1.5,19.05"/>
    <path class="cls-2" d="m179.72,101.35s13.88.22,16.77,0"/>
    <path class="cls-2" d="m171.23,125.31c2.15-1.6,4.11-3.52,6.56-5.43,3.58-2.77,8.2-5.52,15.95-7.13,13.06-2.72,29.37-2.72,35.01,2.02,3.38,2.84,5.33,11.45,4.11,18.9-.81,4.98-3.04,9.44-7.23,11.3"/>
    <path class="cls-2" d="m218.67,127.94s-8.5,17.13-18.3,24.68c-2.07,1.6-4.21,2.77-6.33,3.26"/>
    <path class="cls-2" d="m188.48,152.61s1.01,5.79,11.89,0"/>
    <path class="cls-2" d="m145.08,160.1c.75-1.16,1.26-2.22,1.65-3.7.53-2.03.82-4.84,1.15-9.73.58-8.46-6.66-14.24-15.22-18.74.24,4.44-.79,8.62-2.68,12.06-1.8,3.28-4.37,5.87-7.38,7.37-1.15.58-2.37.99-3.63,1.23-8.01,1.48-29.97,9.2-36.2,8.9-1.86-.09-3.53.14-5.05.62-3.59,1.12-6.35,3.63-8.75,6.65"/>
    <path class="cls-2" d="m160.06,128.72s5.06,14.39,9.88,18.25"/>
    <path class="cls-2" d="m131.43,124.42s21.66,4.96,29.67,3.51c8.01-1.44,10.13-2.62,10.13-2.62,7.53,12.02,13.76,23.88,21.92,24.03,0,0-1.97,1.4-4.92,2.75-3.77,1.73-9.16,3.36-14.08,1.8-7.86,4.21-19.24,5.94-27.43,2.51"/>
    <path class="cls-2" d="m233.24,133.73s8.54,3.45,14.22,1.22"/>
    <path class="cls-2" d="m35.81,160.1c3.04-3.19,25-4.97,29.16-4.23,4.15.74,12.68,2.03,12.68,2.03,8.08-6.03,17.88-8.12,22.92-10.93,5.04-2.82,6.01-8.5,8.23-9.01,2.22-.52,1.22,3.8,10.44,3.36,9.22-.44,10.73-1.32,10.73-1.32"/>
    <path class="cls-2" d="m123.71,112.75s1.19,6.03-6.53,13.07c-7.71,7.05-8.15,10.63-9.39,12.66"/>
    <path class="cls-2" d="m122.59,147.38s-7.18,9.53-11.19,12.72c-4,3.19-10.55,5.74-10.55,5.74"/>
    <path class="cls-2" d="m109.62,166.31s.04-.02.13-.04h0c1.32-.41,11.71-3.76,15.59-8.05"/>
    <path class="cls-2" d="m151.83,20.13c2.26,2,7.62,10.26,7.16,17.53-.32,5.15-.47,12.02-2.51,16.13-.84,1.7-2,2.93-3.62,3.38-.56.16-1.12.3-1.68.43-1.26.29-2.52.5-3.77.61-3.84.37-7.58-.09-10.68-1.82"/>
    <path class="cls-2" d="m148.42,32.36s6.91,10.28,6.45,11.14c-.78,1.49-4.28.82-4.28.82"/>
    <path class="cls-2" d="m139.98,36.88s4.8-.55,6.14,0"/>
    <path class="cls-2" d="m154.13,35.1s1.94-1.04,2.68-.89"/>
    <line class="cls-2" x1="149.98" y1="28.28" x2="155.46" y2="27.24"/>
    <path class="cls-2" d="m145.26,29.24s-7.08-.22-8.53-.22"/>
    <line class="cls-2" x1="150.81" y1="49.89" x2="154.13" y2="49.66"/>
  </g>
</svg>