<?xml version="1.0" encoding="UTF-8"?>
<svg id="_レイヤー_1" data-name="レイヤー 1" xmlns="http://www.w3.org/2000/svg" viewBox="0 0 270.12 190.71">
  <defs>
    <style>
      .cls-1 {
        stroke-miterlimit: 10;
      }

      .cls-1, .cls-2 {
        fill: none;
        stroke: #000;
      }

      .cls-3 {
        fill: #ccc9b6;
      }

      .cls-3, .cls-4, .cls-5, .cls-6, .cls-7, .cls-8 {
        stroke-width: 0px;
      }

      .cls-4 {
        fill: #f35b50;
      }

      .cls-5 {
        fill: #98819e;
      }

      .cls-2 {
        stroke-linecap: round;
        stroke-linejoin: round;
      }

      .cls-6 {
        fill: #333;
      }

      .cls-7 {
        fill: #91bfbf;
      }

      .cls-8 {
        fill: #f2d3b4;
      }
    </style>
  </defs>
  <g>
    <path class="cls-6" d="m139.77,33.13c0,2.16,1.03,7.77.77,9.03-.26,1.28-1.34.74-1.34.74-1.25-1.47-4.84-6.27-6.21-5.11,0-6.53-.86-14.72-.86-14.72-2.92-.39-6.36-1.03-6.74-2.68s-1.66-4.45,2.54-6.74,19.6-5.73,22.41-7.51c2.8-1.78,10.44-4.59,12.98-5.47,2.54-.9,6.11,1.9,4.84,5.22-1.27,3.31-8.4,6.49-8.4,6.49,0,0,1.53,9.67,1.15,10.18-.11.15-.32.29-.68.4-.85.28-2.53.39-5.69.12-4.46-.39-12.85-.84-13.87.15s-.9,7.74-.9,9.9Z"/>
    <path class="cls-3" d="m208.52,178.25c-8.91,3.31-22.92,2.55-22.92,2.55-10.44,5.09-18.33,10.43-33.1,2.28.86-1.33,1.45-2.54,1.88-4.23,9.37,3.93,22.39,1.94,31.38-2.87,5.62,1.78,11.79-.08,16.1-2.05l.28.59s1.16,6.62,13.6,0c-2.37,1.83-4.82,3.17-7.24,3.73Z"/>
    <path class="cls-4" d="m75.36,180.57l.08.25c-4.11,1.29-7.27,4.16-10.01,7.61-6.98,1.43-28.12,3.8-37.93-5.34,3.48-3.65,28.6-5.68,33.36-4.84,4.75.85,14.51,2.32,14.51,2.32Z"/>
    <path class="cls-4" d="m75.36,180.57c9.24-6.9,20.45-9.28,26.23-12.5,5.76-3.22,6.88-9.72,9.41-10.31,2.54-.6,1.4,4.35,11.95,3.85,10.55-.5,12.28-1.52,12.28-1.52-2.05,3.75-5,6.72-8.45,8.44-1.32.67-2.71,1.14-4.15,1.41-9.16,1.7-34.28,10.53-41.41,10.18-2.12-.1-4.04.16-5.77.71l-.08-.25Z"/>
    <path class="cls-4" d="m253.36,152.92s9.77,3.95,16.26,1.4c-7.13,5.1-18.08,11.46-24.95,11.46,4.79-2.12,7.34-7.23,8.27-12.92l.42.07Z"/>
    <path class="cls-4" d="m176.26,68.1l7.99,9.16c-3.52,1.61-8.99,5.26-8.99,5.26l-.35.28c-1.29-1.58-2.67-3.24-4.02-4.88l.88-.66s2.08-4.49,4.5-9.16Z"/>
    <path class="cls-4" d="m136.72,116.81l-6.96-.86s-.17-1.02-3.22-13.23c-2.76-11.04-24.47-19.31-37.73-22.38,0,0,9.14-12.52,14.95-13.15,3.8,2.28,10.01,6.35,16.33,11.94,10.18,8.99,15.62,20.7,16.63,37.68Z"/>
    <path class="cls-5" d="m81.21,180.12c7.13.35,32.25-8.49,41.41-10.18,1.44-.27,2.83-.74,4.15-1.41h0s-8.22,10.91-12.8,14.56c-4.58,3.65-12.07,6.56-12.07,6.56-17.29-.9-34.44-1.73-34.44-1.73-.35.13-1.05.31-2.03.51,2.74-3.45,5.9-6.32,10.01-7.61,1.74-.55,3.65-.81,5.77-.71Z"/>
    <path class="cls-5" d="m112.1,190.15h0c-1.33-.04-2.7-.1-4.14-.18-1.99-.11-4.02-.21-6.04-.32,0,0,7.49-2.91,12.07-6.56,4.59-3.65,12.8-14.55,12.8-14.55h0c3.45-1.73,6.39-4.7,8.45-8.45,2.16-3.94,3.34-8.73,3.07-13.8,9.79,5.15,18.07,11.77,17.41,21.44-.38,5.59-.71,8.81-1.32,11.13-.44,1.69-1.03,2.9-1.88,4.23-15.31,5.19-24.07,7.53-40.41,7.06Z"/>
    <path class="cls-5" d="m215.76,174.52c-12.45,6.62-13.6,0-13.6,0l-.28-.59c3.37-1.55,5.62-3.15,5.62-3.15-9.33-.17-16.46-13.74-25.08-27.49,2.46-1.82,4.71-4.03,7.51-6.21,4.1-3.17,9.38-6.31,18.25-8.16,14.94-3.11,33.61-3.11,40.06,2.31,3.87,3.25,6.1,13.1,4.71,21.62-.93,5.69-3.48,10.8-8.27,12.92-12.23,6.36-32.08,12.47-36.16,12.47,2.42-.56,4.87-1.89,7.24-3.73Z"/>
    <path class="cls-7" d="m170.88,77.92c-4.25-5.11-8.2-9.82-8.2-9.82h-2.66l-.53-2.27c.65-.15,1.29-.31,1.92-.49,1.85-.52,3.18-1.92,4.14-3.87,0,0,11.22,2.08,12.41,3.42-.57,1.05-1.15,2.13-1.71,3.21-2.41,4.68-4.5,9.16-4.5,9.16l-.88.66Z"/>
    <path class="cls-7" d="m190.19,112.57c.08-2.4-.61-5.29-1.71-8.24-2.15-5.82-5.86-11.89-8.23-14.93-1.07-1.38-3.07-3.83-5.35-6.6l.35-.28s5.47-3.65,8.99-5.26c1.29-.6,2.3-.92,2.71-.69,1.54.86,7.98,6.28,11.55,10.53,3.56,4.24,7.64,10.69,8.15,12.39.51,1.71,2.2,11.04,2.37,11.72,10.01,1.19,28.52-.94,37.18,7.98,8.66,8.9,23.42,31.06,23.42,35.13-6.49,2.55-16.26-1.4-16.26-1.4l-.42-.07c1.4-8.52-.84-18.37-4.71-21.62-6.45-5.42-25.12-5.42-40.06-2.31-8.87,1.84-14.15,4.99-18.25,8.16l-1.46-1.44c1.35-2.9,1.72-21.8,1.72-21.8v-1.28Z"/>
    <path class="cls-7" d="m26.48,131.4c6.36,1.28,14.77,4.84,14.77,4.84,5.34-6.61,16.54-22.66,23.16-31.82,1.33-1.83,3.34-4.49,5.79-7.57l1.84.58c-8.52,10.84-11.2,46.45-11.2,46.45l.13.59c-7.31,1.6-14.5,5.08-16.94,6.29-3.56,1.78-13.49-1.02-13.49-1.02l-4.07-18.34Z"/>
  </g>
  <path class="cls-2" d="m132.99,37.8c0-6.53-.86-14.72-.86-14.72-2.92-.39-6.36-1.03-6.74-2.68s-1.66-4.45,2.54-6.74,19.6-5.73,22.41-7.51c2.8-1.78,10.44-4.59,12.98-5.47,2.54-.9,6.11,1.9,4.84,5.22-1.27,3.31-8.4,6.49-8.4,6.49,0,0,1.53,9.67,1.15,10.18-.11.15-.32.29-.68.4-.85.28-2.53.39-5.69.12-4.46-.39-12.85-.84-13.87.15s-.9,7.74-.9,9.9,1.03,7.77.77,9.03c-.26,1.28-1.34.74-1.34.74-1.25-1.47-4.84-6.27-6.21-5.11Z"/>
  <path class="cls-2" d="m133.22,37.8c-.08,0-.15,0-.22.02-2.39.42-.95,7.9-.2,9.66.2.47.58.87,1.06,1.19.85.57,2.03.91,3.18,1.02.89.08,2.26-.13,2.26-.13"/>
  <path class="cls-2" d="m165.56,61.47s11.22,2.08,12.41,3.42c-.57,1.05-1.15,2.13-1.71,3.21-2.41,4.68-4.5,9.16-4.5,9.16"/>
  <line class="cls-2" x1="176.26" y1="68.1" x2="184.24" y2="77.26"/>
  <g>
    <path class="cls-8" d="m155.18,66.52c-1.14,2.08-4.71,5.94-12.85,3.9-5.38-1.35-8.13-4.42-9.46-7.26l.3-4.39.34-4.94h.36s2.35,0,3.54-1.11.9-3.04.9-3.04l-4.44-1.03c-.48-.32-.86-.72-1.06-1.19-.75-1.77-2.19-9.24.2-9.66v-.02c1.37-1.17,4.96,3.64,6.2,5.11,0,0,1.08.54,1.34-.74.26-1.27-.77-6.87-.77-9.03s-.12-8.91.9-9.9,9.41-.54,13.87-.15c3.16.27,4.85.16,5.69-.12,2.58,2.28,8.72,11.74,8.2,20.05-.37,5.89-.54,13.75-2.87,18.46-.96,1.94-2.28,3.35-4.14,3.87-.64.18-1.28.34-1.92.49-1.44.33-2.88.57-4.32.7Z"/>
    <path class="cls-7" d="m88.8,80.35c13.26,3.07,34.97,11.34,37.73,22.38,3.05,12.22,3.22,13.23,3.22,13.23l6.96.86c-1.02-16.98-6.45-28.69-16.63-37.68-6.32-5.58-12.53-9.65-16.33-11.94-2.31-1.39-3.73-2.11-3.73-2.11,1.38-.95,2.59-1.62,3.6-1.91,8.66-2.54,28.12-3.94,28.12-3.94.11,1.08.43,2.47,1.12,3.94,1.34,2.84,4.08,5.91,9.46,7.26,8.15,2.04,11.72-1.81,12.85-3.9,1.44-.13,2.88-.37,4.32-.7l.53,2.27h2.66s3.95,4.72,8.2,9.82c1.35,1.64,2.73,3.3,4.02,4.88,2.28,2.77,4.29,5.23,5.35,6.6,2.36,3.04,6.07,9.1,8.23,14.93,1.1,2.95,1.78,5.83,1.71,8.24v1.28s-.37,18.9-1.72,21.8l1.46,1.44c-2.8,2.18-5.05,4.39-7.51,6.21,8.62,13.75,15.75,27.32,25.08,27.49,0,0-2.25,1.61-5.62,3.15-4.32,1.97-10.48,3.84-16.1,2.05-8.99,4.82-22.01,6.8-31.38,2.87.61-2.32.94-5.53,1.32-11.13.66-9.67-7.62-16.29-17.41-21.44.27,5.08-.91,9.86-3.07,13.8,0,0-1.73,1.02-12.28,1.52-10.55.5-9.4-4.45-11.95-3.85-2.53.59-3.65,7.09-9.41,10.31-5.77,3.22-16.98,5.6-26.23,12.5,0,0-9.76-1.48-14.51-2.32-4.76-.85-29.88,1.19-33.36,4.84-12.98,2.55-24.95,5.6-26.99,2.29,1.03-10.69,14.52-48.11,25.98-53.98l4.07,18.34s9.93,2.8,13.49,1.02c2.44-1.22,9.63-4.7,16.94-6.29l-.13-.59s2.68-35.61,11.2-46.45l-1.84-.58c4.08-5.15,9.36-11.51,14.64-17.31,1.2.21,2.52.48,3.96.81Z"/>
    <path class="cls-6" d="m137.4,52.73c-1.19,1.11-3.54,1.11-3.54,1.11h-.36l.36-5.18,4.44,1.03s.29,1.93-.9,3.04Z"/>
    <path class="cls-8" d="m133.16,58.78l-.3,4.39c-.69-1.47-1.01-2.86-1.12-3.94l1.42-.45Z"/>
  </g>
  <g>
    <path class="cls-2" d="m133.16,58.78l-1.42.45c.11,1.08.43,2.47,1.12,3.94,1.34,2.84,4.08,5.91,9.46,7.26,8.15,2.04,11.72-1.81,12.85-3.9"/>
    <path class="cls-1" d="m133.5,53.84l.36-5.18,4.44,1.03s.29,1.93-.9,3.04-3.54,1.11-3.54,1.11h-.36"/>
    <polyline class="cls-1" points="132.86 63.16 133.16 58.78 133.5 53.84"/>
    <path class="cls-2" d="m112.09,190.15c-1.33-.04-2.7-.1-4.14-.18-1.99-.11-4.02-.21-6.04-.32-17.29-.9-34.44-1.73-34.44-1.73-.35.13-1.05.31-2.03.51-6.98,1.43-28.12,3.8-37.93-5.34-12.98,2.55-24.95,5.6-26.99,2.29,1.03-10.69,14.52-48.11,25.98-53.98,6.36,1.28,14.77,4.84,14.77,4.84,5.34-6.61,16.54-22.66,23.16-31.82,1.33-1.83,3.34-4.49,5.79-7.57,4.08-5.15,9.36-11.51,14.64-17.31,1.2.21,2.52.48,3.96.81,13.26,3.07,34.97,11.34,37.73,22.38,3.05,12.22,3.22,13.23,3.22,13.23l6.96.86c-1.02-16.98-6.45-28.69-16.63-37.68-6.32-5.58-12.53-9.65-16.33-11.94-2.31-1.39-3.73-2.11-3.73-2.11,1.38-.95,2.59-1.62,3.6-1.91,8.66-2.54,28.12-3.94,28.12-3.94"/>
  </g>
  <path class="cls-2" d="m175.25,82.52s5.47-3.65,8.99-5.26c1.29-.6,2.3-.92,2.71-.69,1.54.86,7.98,6.28,11.55,10.53,3.56,4.24,7.64,10.69,8.15,12.39.51,1.71,2.2,11.04,2.37,11.72,10.01,1.19,28.52-.94,37.18,7.98,8.66,8.9,23.42,31.06,23.42,35.13-7.13,5.1-18.08,11.46-24.95,11.46-12.23,6.36-32.08,12.47-36.16,12.47-8.91,3.31-22.92,2.55-22.92,2.55-10.44,5.09-18.33,10.43-33.1,2.28-15.31,5.19-24.07,7.53-40.41,7.06"/>
  <path class="cls-2" d="m60.85,143.88s2.68-35.61,11.2-46.45c.57-.72,1.17-1.34,1.78-1.81"/>
  <path class="cls-2" d="m39.75,135.64s-4.88,10.79-6.91,12.32"/>
  <path class="cls-2" d="m26.48,131.4l4.07,18.34s9.93,2.8,13.49,1.02c2.44-1.22,9.63-4.7,16.94-6.29,3.39-.74,6.81-1.07,9.79-.59,18.59-4.33,33.36-13.49,33.61-14.51.26-1.02-34.11,0-34.11,0"/>
  <path class="cls-2" d="m75.36,113.07s2.8,3.31,14.77,4.08c11.97.76,21.13,2.39,24.44,2.59s14,1.02,4.58-3.33c-9.41-4.36-25.46-10.47-29.28-11.49s-3.31-2.8-2.54-4.84c.76-2.03,3.05-5.85,6.11-2.29,3.05,3.57,7.12,5.85,7.12,5.85"/>
  <path class="cls-2" d="m88.8,80.35s9.14-12.52,14.95-13.15"/>
  <path class="cls-2" d="m142.96,128.92s4.92-17.12-4.36-34.68c-9.26-17.57-13.39-22.23-15.66-26.14s1.04-6.33,3.84-3.21,12.51,12.96,19.88,12.38c3.46-.28,6.65-1.01,9.04-2.31,2.69-1.49,4.38-3.7,4.31-6.85"/>
  <path class="cls-2" d="m155.7,74.94h0c.45.56,14.91,17.96,17.41,29.99,2.54,12.23,3.57,28.77,1.78,32.59"/>
  <path class="cls-2" d="m195.78,92.19s-4.94,11.25-7.3,12.14h0"/>
  <path class="cls-2" d="m202.15,106.23l-11.97,6.33c.08-2.4-.61-5.29-1.71-8.24-2.15-5.82-5.86-11.89-8.23-14.93-1.07-1.38-3.07-3.83-5.35-6.6-1.29-1.58-2.67-3.24-4.02-4.88-4.25-5.11-8.2-9.82-8.2-9.82"/>
  <path class="cls-2" d="m190.19,113.84s-.37,18.9-1.72,21.8"/>
  <path class="cls-2" d="m192.13,115.88s15.88.25,19.19,0"/>
  <path class="cls-2" d="m182.42,143.29c2.46-1.82,4.71-4.03,7.51-6.21,4.1-3.17,9.38-6.31,18.25-8.16,14.94-3.11,33.61-3.11,40.06,2.31,3.87,3.25,6.1,13.1,4.71,21.62-.93,5.69-3.48,10.8-8.27,12.92"/>
  <path class="cls-2" d="m236.7,146.29s-9.72,19.59-20.94,28.23c-2.37,1.83-4.82,3.17-7.24,3.73"/>
  <path class="cls-2" d="m202.15,174.52s1.16,6.62,13.6,0"/>
  <path class="cls-2" d="m152.5,183.09c.86-1.33,1.45-2.54,1.88-4.23.61-2.32.94-5.53,1.32-11.13.66-9.67-7.62-16.29-17.41-21.44.27,5.08-.91,9.86-3.07,13.8-2.05,3.75-5,6.72-8.45,8.44-1.32.67-2.71,1.14-4.15,1.41-9.16,1.7-34.28,10.53-41.41,10.18-2.12-.1-4.04.16-5.77.71-4.11,1.29-7.27,4.16-10.01,7.61"/>
  <path class="cls-2" d="m169.65,147.19s5.78,16.46,11.3,20.88"/>
  <path class="cls-2" d="m136.89,142.27s24.78,5.67,33.94,4.02c9.16-1.65,11.59-3,11.59-3,8.62,13.75,15.75,27.32,25.08,27.49,0,0-2.25,1.61-5.62,3.15-4.32,1.97-10.48,3.84-16.1,2.05-8.99,4.82-22.01,6.8-31.38,2.87"/>
  <path class="cls-2" d="m253.36,152.92s9.77,3.95,16.26,1.4"/>
  <path class="cls-2" d="m27.49,183.09c3.48-3.65,28.6-5.68,33.36-4.84,4.75.85,14.51,2.32,14.51,2.32,9.24-6.9,20.45-9.28,26.23-12.5,5.76-3.22,6.88-9.72,9.41-10.31,2.54-.6,1.4,4.35,11.95,3.85,10.55-.5,12.28-1.52,12.28-1.52"/>
  <path class="cls-2" d="m128.06,128.92s1.36,6.9-7.47,14.96c-8.83,8.07-9.32,12.17-10.74,14.48"/>
  <path class="cls-2" d="m126.78,168.54s-8.22,10.9-12.8,14.55c-4.58,3.65-12.07,6.56-12.07,6.56"/>
  <path class="cls-2" d="m111.94,190.2s.05-.02.15-.05h0c1.51-.47,13.39-4.3,17.83-9.2"/>
  <path class="cls-2" d="m160.23,22.96c2.58,2.28,8.72,11.74,8.2,20.05-.37,5.89-.54,13.75-2.87,18.46-.96,1.94-2.28,3.35-4.14,3.87-.64.18-1.28.34-1.92.49-1.44.33-2.88.57-4.32.7-4.39.43-8.68-.1-12.22-2.08"/>
  <path class="cls-2" d="m156.32,36.95s7.91,11.76,7.38,12.74c-.89,1.71-4.9.94-4.9.94"/>
  <path class="cls-2" d="m146.67,42.12s5.49-.17,7.02,0"/>
  <path class="cls-2" d="m162.85,40.09s2.21-1.19,3.06-1.02"/>
  <line class="cls-2" x1="158.11" y1="32.28" x2="164.38" y2="31.09"/>
  <path class="cls-2" d="m152.72,33.38s-8.1-.26-9.76-.26"/>
  <line class="cls-2" x1="159.05" y1="57" x2="162.85" y2="56.74"/>
</svg>