<svg xmlns="http://www.w3.org/2000/svg" viewBox="0 0 284.39 230.21"><defs><style>.cls-2{stroke-miterlimit:10}.cls-2,.cls-3{stroke:#040000}.cls-5{fill:#8ebaba}.cls-10,.cls-11,.cls-5,.cls-7,.cls-8,.cls-9{stroke-width:0}.cls-2,.cls-3{fill:none}.cls-7{fill:#e65a4f}.cls-8{fill:#333}.cls-3{stroke-linecap:round;stroke-linejoin:round}.cls-9{fill:#f1ebd6}.cls-10{fill:#cecd94}.cls-11{fill:#947f9b}</style></defs><g id="_畳" data-name="畳"><path class="cls-9" d="M.24 193.79h3.81v5.29H.24zM284.14 222.8v6.91h-32.03l16.15-9.08c1.09 1.7 3.27 2.86 5.8 2.86s4.86-1.24 5.91-3.03l4.17 2.35Z"/><path class="cls-9" d="M284.14 211.7v11.11l-4.17-2.35c.4-.69.62-1.45.62-2.26 0-1.37-.65-2.61-1.7-3.55l5.25-2.95ZM284.14 199.08v12.61l-5.25 2.95c-1.2-1.06-2.91-1.73-4.83-1.73s-3.48.61-4.67 1.59l-27.45-15.43h42.2ZM284.14 109.9v6.07H.24v-6.07h283.9z"/><path class="cls-9" d="M279.94 193.79h4.2v5.29h-4.2zM280.59 218.2c0 .8-.22 1.57-.62 2.26l-5.7-3.21 4.62-2.6c1.05.94 1.7 2.18 1.7 3.55ZM274.27 217.25l5.7 3.21c-1.05 1.79-3.3 3.03-5.91 3.03s-4.71-1.16-5.8-2.86l6.01-3.38Z"/><path class="cls-8" d="M268.05 193.79h11.89v5.29h-11.89z"/><path class="cls-9" d="m278.89 214.65-4.62 2.6-4.88-2.74c1.19-.98 2.84-1.59 4.67-1.59 1.92 0 3.64.67 4.83 1.73Z"/><path class="cls-9" d="m274.27 217.25-6.01 3.38c-.47-.72-.73-1.55-.73-2.43 0-1.44.71-2.74 1.86-3.69l4.88 2.74Z"/><path class="cls-9" d="m241.94 199.08 27.45 15.43c-1.15.95-1.86 2.25-1.86 3.69 0 .88.26 1.71.73 2.43l-16.15 9.08h-43.63l-16.46-9.25c.4-.69.62-1.45.62-2.26 0-1.37-.65-2.61-1.7-3.54l27.7-15.57h23.3Zm-6.28 19.12c0-2.91-2.37-5.28-5.28-5.28s-5.29 2.37-5.29 5.28 2.37 5.29 5.29 5.29 5.28-2.37 5.28-5.29ZM268.05 199.08h-32.11v-5.29h32.11v5.29z"/><path class="cls-8" d="M224.05 193.79h11.89v5.29h-11.89zM230.39 212.92c2.91 0 5.28 2.37 5.28 5.28s-2.37 5.29-5.28 5.29-5.29-2.37-5.29-5.29 2.37-5.28 5.29-5.28Z"/><path class="cls-9" d="m218.64 199.08-27.7 15.57c-1.2-1.07-2.91-1.74-4.83-1.74s-3.48.61-4.67 1.59l-27.45-15.43h64.65Z"/><path class="cls-9" d="M191.94 199.08v-5.29h32.11v5.29h-32.11zM208.47 229.71h-44.32l16.15-9.08c1.09 1.7 3.28 2.86 5.8 2.86s4.86-1.24 5.91-3.03l16.46 9.25ZM192.64 218.2c0 .8-.22 1.57-.62 2.26l-5.7-3.21 4.62-2.59c1.05.93 1.7 2.17 1.7 3.54Z"/><path class="cls-9" d="m186.31 217.25 5.7 3.21c-1.05 1.79-3.3 3.03-5.91 3.03s-4.71-1.16-5.8-2.86l6.01-3.38Z"/><path class="cls-8" d="M180.05 193.79h11.89v5.29h-11.89z"/><path class="cls-9" d="M186.1 212.92c1.92 0 3.64.67 4.83 1.74l-4.62 2.59-4.88-2.74c1.19-.98 2.84-1.59 4.67-1.59Z"/><path class="cls-9" d="m186.31 217.25-6.01 3.38c-.47-.72-.73-1.55-.73-2.43 0-1.44.71-2.74 1.86-3.69l4.88 2.74Z"/><path class="cls-9" d="m153.99 199.08 27.45 15.43c-1.15.95-1.86 2.25-1.86 3.69 0 .88.26 1.71.73 2.43l-16.15 9.08h-43.63l-16.46-9.25c.4-.69.62-1.45.62-2.26 0-1.37-.65-2.61-1.7-3.54l27.7-15.57h23.3Zm-7.38 19.12c0-2.91-2.37-5.28-5.28-5.28s-5.29 2.37-5.29 5.28 2.37 5.29 5.29 5.29 5.28-2.37 5.28-5.29ZM180.05 199.08h-32.11v-5.29h32.11v5.29z"/><path class="cls-8" d="M136.05 193.79h11.89v5.29h-11.89zM141.33 212.92c2.91 0 5.28 2.37 5.28 5.28s-2.37 5.29-5.28 5.29-5.29-2.37-5.29-5.29 2.37-5.28 5.29-5.28Z"/><path class="cls-9" d="m130.69 199.08-27.7 15.57c-1.2-1.07-2.91-1.74-4.83-1.74s-3.48.61-4.67 1.59l-27.45-15.43h64.65Z"/><path class="cls-9" d="M136.05 199.08h-32.11v-5.29h32.11v5.29zM120.52 229.71H76.2l16.15-9.08c1.09 1.7 3.27 2.86 5.8 2.86s4.86-1.24 5.91-3.03l16.46 9.25ZM104.68 218.2c0 .8-.22 1.57-.62 2.26l-5.7-3.21 4.62-2.59c1.05.93 1.7 2.17 1.7 3.54Z"/><path class="cls-9" d="m98.36 217.25 5.7 3.21c-1.05 1.79-3.3 3.03-5.91 3.03s-4.71-1.16-5.8-2.86l6.01-3.38Z"/><path class="cls-8" d="M92.05 193.79h11.89v5.29H92.05z"/><path class="cls-9" d="M98.15 212.92c1.92 0 3.64.67 4.83 1.74l-4.62 2.59-4.88-2.74c1.19-.98 2.84-1.59 4.67-1.59ZM98.36 217.25l-6.01 3.38c-.47-.72-.73-1.55-.73-2.43 0-1.44.71-2.74 1.86-3.69l4.88 2.74Z"/><path class="cls-9" d="m66.04 199.08 27.45 15.43c-1.15.95-1.86 2.25-1.86 3.69 0 .88.26 1.71.73 2.43l-16.15 9.08H32.38l-16.46-9.25c.4-.69.62-1.45.62-2.26 0-1.37-.65-2.61-1.7-3.54l27.7-15.57h23.5Zm-8.97 19.12c0-2.91-2.37-5.28-5.28-5.28s-5.29 2.37-5.29 5.28 2.37 5.29 5.29 5.29 5.28-2.37 5.28-5.29ZM92.05 199.08h-32.1v-5.29h32.1v5.29z"/><path class="cls-8" d="M48.05 193.79h11.89v5.29H48.05zM51.79 212.92c2.91 0 5.28 2.37 5.28 5.28s-2.37 5.29-5.28 5.29-5.29-2.37-5.29-5.29 2.37-5.28 5.29-5.28Z"/><path class="cls-9" d="M48.05 199.08h-32.1v-5.29h32.1v5.29zM32.37 229.71H.24v-6.86l3.96-2.22c1.09 1.7 3.28 2.86 5.8 2.86s4.86-1.24 5.91-3.03l16.46 9.25ZM16.53 218.2c0 .8-.22 1.57-.62 2.26l-5.7-3.21 4.62-2.59c1.05.93 1.7 2.17 1.7 3.54Z"/><path class="cls-8" d="M4.05 193.79h11.89v5.29H4.05z"/><path class="cls-9" d="m10.21 217.25 5.7 3.21c-1.05 1.79-3.3 3.03-5.91 3.03s-4.71-1.16-5.8-2.86l6.01-3.38ZM10 212.92c1.92 0 3.64.67 4.83 1.74l-4.62 2.59-4.88-2.74c1.19-.98 2.84-1.59 4.67-1.59Z"/><path class="cls-9" d="m10.21 217.25-6.01 3.38c-.47-.72-.73-1.55-.73-2.43 0-1.44.71-2.74 1.86-3.69l4.88 2.74Z"/><path class="cls-9" d="m.24 211.65 5.09 2.86c-1.15.95-1.86 2.25-1.86 3.69 0 .88.26 1.71.73 2.43l-3.96 2.22v-11.2Z"/><path class="cls-10" d="M224.05 193.79H.24v-77.82h283.9v77.82h-60.09z"/><path class="cls-9" d="M.24 199.08h42.29l-27.7 15.57c-1.2-1.07-2.91-1.74-4.83-1.74s-3.48.61-4.67 1.59l-5.09-2.86v-12.57Z"/><path class="cls-2" d="M284.14 229.71H.24M.24 109.9h283.9M.24 115.97h283.9M279.94 193.79h4.2M235.94 193.79h32.11M191.94 193.79h32.11M147.94 193.79h32.11M103.94 193.79h32.11M59.95 193.79h32.1M15.95 193.79h32.1M.24 193.79h3.81M279.94 199.08h4.2M235.94 199.08h32.11M191.94 199.08h32.11M147.94 199.08h32.11M103.94 199.08h32.11M59.95 199.08h32.1M15.95 199.08h32.1M.24 199.08h3.81M76.2 229.71l16.15-9.08 6.01-3.38 4.62-2.59 27.71-15.58"/><path class="cls-2" d="m120.52 229.71-16.46-9.25-5.7-3.21-4.87-2.74-27.45-15.43M146.61 218.2c0 2.92-2.37 5.29-5.28 5.29s-5.29-2.37-5.29-5.29 2.37-5.28 5.29-5.28 5.28 2.37 5.28 5.28ZM235.67 218.2c0 2.92-2.37 5.29-5.28 5.29s-5.29-2.37-5.29-5.29 2.37-5.28 5.29-5.28 5.28 2.37 5.28 5.28Z"/><path class="cls-2" d="M102.98 214.66c1.05.93 1.7 2.17 1.7 3.54 0 .8-.22 1.57-.62 2.26-1.05 1.79-3.3 3.03-5.91 3.03s-4.71-1.16-5.8-2.86c-.47-.72-.73-1.55-.73-2.43 0-1.44.71-2.74 1.86-3.69 1.19-.98 2.84-1.59 4.67-1.59 1.92 0 3.64.67 4.83 1.74ZM.24 222.85l3.96-2.22 6.01-3.38 4.62-2.59 27.71-15.58"/><path class="cls-2" d="m32.37 229.71-16.46-9.25-5.7-3.21-4.88-2.74-5.09-2.86"/><path class="cls-2" d="M14.83 214.66c1.05.93 1.7 2.17 1.7 3.54 0 .8-.22 1.57-.62 2.26-1.05 1.79-3.3 3.03-5.91 3.03s-4.71-1.16-5.8-2.86c-.47-.72-.73-1.55-.73-2.43 0-1.44.71-2.74 1.86-3.69 1.19-.98 2.84-1.59 4.67-1.59 1.92 0 3.64.67 4.83 1.74ZM164.16 229.71l16.14-9.08 6.01-3.38 4.63-2.59 27.7-15.58"/><path class="cls-2" d="m208.47 229.71-16.46-9.25-5.7-3.21-4.87-2.74-27.45-15.43"/><path class="cls-2" d="M190.94 214.66c1.05.93 1.7 2.17 1.7 3.54 0 .8-.22 1.57-.62 2.26-1.05 1.79-3.3 3.03-5.91 3.03s-4.71-1.16-5.8-2.86c-.47-.72-.73-1.55-.73-2.43 0-1.44.71-2.74 1.86-3.69 1.19-.98 2.84-1.59 4.67-1.59 1.92 0 3.64.67 4.83 1.74ZM252.11 229.71l16.15-9.08 6.01-3.38 4.62-2.6 5.25-2.95"/><path class="cls-2" d="m284.14 222.8-4.17-2.34-5.7-3.21-4.88-2.74-27.45-15.43"/><path class="cls-2" d="M278.89 214.65c1.05.94 1.7 2.18 1.7 3.55 0 .8-.22 1.57-.62 2.26-1.05 1.79-3.3 3.03-5.91 3.03s-4.71-1.16-5.8-2.86c-.47-.72-.73-1.55-.73-2.43 0-1.44.71-2.74 1.86-3.69 1.19-.98 2.84-1.59 4.67-1.59 1.92 0 3.64.67 4.83 1.73ZM57.07 218.2c0 2.92-2.37 5.29-5.28 5.29s-5.29-2.37-5.29-5.29 2.37-5.28 5.29-5.28 5.28 2.37 5.28 5.28ZM4.05 193.79h11.89v5.29H4.05zM48.05 193.79h11.89v5.29H48.05zM92.05 193.79h11.89v5.29H92.05zM136.05 193.79h11.89v5.29h-11.89zM180.05 193.79h11.89v5.29h-11.89zM224.05 193.79h11.89v5.29h-11.89zM268.05 193.79h11.89v5.29h-11.89z"/><path class="cls-9" d="M.24 193.79h3.81v5.29H.24zM284.14 222.8v6.91h-32.03l16.15-9.08c1.09 1.7 3.27 2.86 5.8 2.86s4.86-1.24 5.91-3.03l4.17 2.35Z"/><path class="cls-9" d="M284.14 211.7v11.11l-4.17-2.35c.4-.69.62-1.45.62-2.26 0-1.37-.65-2.61-1.7-3.55l5.25-2.95ZM284.14 199.08v12.61l-5.25 2.95c-1.2-1.06-2.91-1.73-4.83-1.73s-3.48.61-4.67 1.59l-27.45-15.43h42.2ZM284.14 109.9v6.07H.24v-6.07h283.9z"/><path class="cls-9" d="M279.94 193.79h4.2v5.29h-4.2zM280.59 218.2c0 .8-.22 1.57-.62 2.26l-5.7-3.21 4.62-2.6c1.05.94 1.7 2.18 1.7 3.55ZM274.27 217.25l5.7 3.21c-1.05 1.79-3.3 3.03-5.91 3.03s-4.71-1.16-5.8-2.86l6.01-3.38Z"/><path class="cls-8" d="M268.05 193.79h11.89v5.29h-11.89z"/><path class="cls-9" d="m278.89 214.65-4.62 2.6-4.88-2.74c1.19-.98 2.84-1.59 4.67-1.59 1.92 0 3.64.67 4.83 1.73Z"/><path class="cls-9" d="m274.27 217.25-6.01 3.38c-.47-.72-.73-1.55-.73-2.43 0-1.44.71-2.74 1.86-3.69l4.88 2.74Z"/><path class="cls-9" d="m241.94 199.08 27.45 15.43c-1.15.95-1.86 2.25-1.86 3.69 0 .88.26 1.71.73 2.43l-16.15 9.08h-43.63l-16.46-9.25c.4-.69.62-1.45.62-2.26 0-1.37-.65-2.61-1.7-3.54l27.7-15.57h23.3Zm-6.28 19.12c0-2.91-2.37-5.28-5.28-5.28s-5.29 2.37-5.29 5.28 2.37 5.29 5.29 5.29 5.28-2.37 5.28-5.29ZM268.05 199.08h-32.11v-5.29h32.11v5.29z"/><path class="cls-8" d="M224.05 193.79h11.89v5.29h-11.89zM230.39 212.92c2.91 0 5.28 2.37 5.28 5.28s-2.37 5.29-5.28 5.29-5.29-2.37-5.29-5.29 2.37-5.28 5.29-5.28Z"/><path class="cls-9" d="m218.64 199.08-27.7 15.57c-1.2-1.07-2.91-1.74-4.83-1.74s-3.48.61-4.67 1.59l-27.45-15.43h64.65Z"/><path class="cls-9" d="M191.94 199.08v-5.29h32.11v5.29h-32.11zM208.47 229.71h-44.32l16.15-9.08c1.09 1.7 3.28 2.86 5.8 2.86s4.86-1.24 5.91-3.03l16.46 9.25ZM192.64 218.2c0 .8-.22 1.57-.62 2.26l-5.7-3.21 4.62-2.59c1.05.93 1.7 2.17 1.7 3.54Z"/><path class="cls-9" d="m186.31 217.25 5.7 3.21c-1.05 1.79-3.3 3.03-5.91 3.03s-4.71-1.16-5.8-2.86l6.01-3.38Z"/><path class="cls-8" d="M180.05 193.79h11.89v5.29h-11.89z"/><path class="cls-9" d="M186.1 212.92c1.92 0 3.64.67 4.83 1.74l-4.62 2.59-4.88-2.74c1.19-.98 2.84-1.59 4.67-1.59Z"/><path class="cls-9" d="m186.31 217.25-6.01 3.38c-.47-.72-.73-1.55-.73-2.43 0-1.44.71-2.74 1.86-3.69l4.88 2.74Z"/><path class="cls-9" d="m153.99 199.08 27.45 15.43c-1.15.95-1.86 2.25-1.86 3.69 0 .88.26 1.71.73 2.43l-16.15 9.08h-43.63l-16.46-9.25c.4-.69.62-1.45.62-2.26 0-1.37-.65-2.61-1.7-3.54l27.7-15.57h23.3Zm-7.38 19.12c0-2.91-2.37-5.28-5.28-5.28s-5.29 2.37-5.29 5.28 2.37 5.29 5.29 5.29 5.28-2.37 5.28-5.29ZM180.05 199.08h-32.11v-5.29h32.11v5.29z"/><path class="cls-8" d="M136.05 193.79h11.89v5.29h-11.89zM141.33 212.92c2.91 0 5.28 2.37 5.28 5.28s-2.37 5.29-5.28 5.29-5.29-2.37-5.29-5.29 2.37-5.28 5.29-5.28Z"/><path class="cls-9" d="m130.69 199.08-27.7 15.57c-1.2-1.07-2.91-1.74-4.83-1.74s-3.48.61-4.67 1.59l-27.45-15.43h64.65Z"/><path class="cls-9" d="M136.05 199.08h-32.11v-5.29h32.11v5.29zM120.52 229.71H76.2l16.15-9.08c1.09 1.7 3.27 2.86 5.8 2.86s4.86-1.24 5.91-3.03l16.46 9.25ZM104.68 218.2c0 .8-.22 1.57-.62 2.26l-5.7-3.21 4.62-2.59c1.05.93 1.7 2.17 1.7 3.54Z"/><path class="cls-9" d="m98.36 217.25 5.7 3.21c-1.05 1.79-3.3 3.03-5.91 3.03s-4.71-1.16-5.8-2.86l6.01-3.38Z"/><path class="cls-8" d="M92.05 193.79h11.89v5.29H92.05z"/><path class="cls-9" d="M98.15 212.92c1.92 0 3.64.67 4.83 1.74l-4.62 2.59-4.88-2.74c1.19-.98 2.84-1.59 4.67-1.59ZM98.36 217.25l-6.01 3.38c-.47-.72-.73-1.55-.73-2.43 0-1.44.71-2.74 1.86-3.69l4.88 2.74Z"/><path class="cls-9" d="m66.04 199.08 27.45 15.43c-1.15.95-1.86 2.25-1.86 3.69 0 .88.26 1.71.73 2.43l-16.15 9.08H32.38l-16.46-9.25c.4-.69.62-1.45.62-2.26 0-1.37-.65-2.61-1.7-3.54l27.7-15.57h23.5Zm-8.97 19.12c0-2.91-2.37-5.28-5.28-5.28s-5.29 2.37-5.29 5.28 2.37 5.29 5.29 5.29 5.28-2.37 5.28-5.29ZM92.05 199.08h-32.1v-5.29h32.1v5.29z"/><path class="cls-8" d="M48.05 193.79h11.89v5.29H48.05zM51.79 212.92c2.91 0 5.28 2.37 5.28 5.28s-2.37 5.29-5.28 5.29-5.29-2.37-5.29-5.29 2.37-5.28 5.29-5.28Z"/><path class="cls-9" d="M48.05 199.08h-32.1v-5.29h32.1v5.29zM32.37 229.71H.24v-6.86l3.96-2.22c1.09 1.7 3.28 2.86 5.8 2.86s4.86-1.24 5.91-3.03l16.46 9.25ZM16.53 218.2c0 .8-.22 1.57-.62 2.26l-5.7-3.21 4.62-2.59c1.05.93 1.7 2.17 1.7 3.54Z"/><path class="cls-8" d="M4.05 193.79h11.89v5.29H4.05z"/><path class="cls-9" d="m10.21 217.25 5.7 3.21c-1.05 1.79-3.3 3.03-5.91 3.03s-4.71-1.16-5.8-2.86l6.01-3.38ZM10 212.92c1.92 0 3.64.67 4.83 1.74l-4.62 2.59-4.88-2.74c1.19-.98 2.84-1.59 4.67-1.59Z"/><path class="cls-9" d="m10.21 217.25-6.01 3.38c-.47-.72-.73-1.55-.73-2.43 0-1.44.71-2.74 1.86-3.69l4.88 2.74Z"/><path class="cls-9" d="m.24 211.65 5.09 2.86c-1.15.95-1.86 2.25-1.86 3.69 0 .88.26 1.71.73 2.43l-3.96 2.22v-11.2Z"/><path class="cls-10" d="M224.05 193.79H.24v-77.82h283.9v77.82h-60.09z"/><path class="cls-9" d="M.24 199.08h42.29l-27.7 15.57c-1.2-1.07-2.91-1.74-4.83-1.74s-3.48.61-4.67 1.59l-5.09-2.86v-12.57Z"/><path class="cls-2" d="M284.14 229.71H.24M.24 109.9h283.9M.24 115.97h283.9M279.94 193.79h4.2M235.94 193.79h32.11M191.94 193.79h32.11M147.94 193.79h32.11M103.94 193.79h32.11M59.95 193.79h32.1M15.95 193.79h32.1M.24 193.79h3.81M279.94 199.08h4.2M235.94 199.08h32.11M191.94 199.08h32.11M147.94 199.08h32.11M103.94 199.08h32.11M59.95 199.08h32.1M15.95 199.08h32.1M.24 199.08h3.81M76.2 229.71l16.15-9.08 6.01-3.38 4.62-2.59 27.71-15.58"/><path class="cls-2" d="m120.52 229.71-16.46-9.25-5.7-3.21-4.87-2.74-27.45-15.43M146.61 218.2c0 2.92-2.37 5.29-5.28 5.29s-5.29-2.37-5.29-5.29 2.37-5.28 5.29-5.28 5.28 2.37 5.28 5.28ZM235.67 218.2c0 2.92-2.37 5.29-5.28 5.29s-5.29-2.37-5.29-5.29 2.37-5.28 5.29-5.28 5.28 2.37 5.28 5.28Z"/><path class="cls-2" d="M102.98 214.66c1.05.93 1.7 2.17 1.7 3.54 0 .8-.22 1.57-.62 2.26-1.05 1.79-3.3 3.03-5.91 3.03s-4.71-1.16-5.8-2.86c-.47-.72-.73-1.55-.73-2.43 0-1.44.71-2.74 1.86-3.69 1.19-.98 2.84-1.59 4.67-1.59 1.92 0 3.64.67 4.83 1.74ZM.24 222.85l3.96-2.22 6.01-3.38 4.62-2.59 27.71-15.58"/><path class="cls-2" d="m32.37 229.71-16.46-9.25-5.7-3.21-4.88-2.74-5.09-2.86"/><path class="cls-2" d="M14.83 214.66c1.05.93 1.7 2.17 1.7 3.54 0 .8-.22 1.57-.62 2.26-1.05 1.79-3.3 3.03-5.91 3.03s-4.71-1.16-5.8-2.86c-.47-.72-.73-1.55-.73-2.43 0-1.44.71-2.74 1.86-3.69 1.19-.98 2.84-1.59 4.67-1.59 1.92 0 3.64.67 4.83 1.74ZM164.16 229.71l16.14-9.08 6.01-3.38 4.63-2.59 27.7-15.58"/><path class="cls-2" d="m208.47 229.71-16.46-9.25-5.7-3.21-4.87-2.74-27.45-15.43"/><path class="cls-2" d="M190.94 214.66c1.05.93 1.7 2.17 1.7 3.54 0 .8-.22 1.57-.62 2.26-1.05 1.79-3.3 3.03-5.91 3.03s-4.71-1.16-5.8-2.86c-.47-.72-.73-1.55-.73-2.43 0-1.44.71-2.74 1.86-3.69 1.19-.98 2.84-1.59 4.67-1.59 1.92 0 3.64.67 4.83 1.74ZM252.11 229.71l16.15-9.08 6.01-3.38 4.62-2.6 5.25-2.95"/><path class="cls-2" d="m284.14 222.8-4.17-2.34-5.7-3.21-4.88-2.74-27.45-15.43"/><path class="cls-2" d="M278.89 214.65c1.05.94 1.7 2.18 1.7 3.55 0 .8-.22 1.57-.62 2.26-1.05 1.79-3.3 3.03-5.91 3.03s-4.71-1.16-5.8-2.86c-.47-.72-.73-1.55-.73-2.43 0-1.44.71-2.74 1.86-3.69 1.19-.98 2.84-1.59 4.67-1.59 1.92 0 3.64.67 4.83 1.73ZM57.07 218.2c0 2.92-2.37 5.29-5.28 5.29s-5.29-2.37-5.29-5.29 2.37-5.28 5.29-5.28 5.28 2.37 5.28 5.28ZM4.05 193.79h11.89v5.29H4.05zM48.05 193.79h11.89v5.29H48.05zM92.05 193.79h11.89v5.29H92.05zM136.05 193.79h11.89v5.29h-11.89zM180.05 193.79h11.89v5.29h-11.89zM224.05 193.79h11.89v5.29h-11.89zM268.05 193.79h11.89v5.29h-11.89z"/></g><g id="_レイヤー_2" data-name="レイヤー 2"><path class="cls-8" d="M140.35 30.39c0 1.98.94 7.12.7 8.28-.24 1.17-1.22.68-1.22.68-1.14-1.34-4.43-5.75-5.69-4.68 0-5.98-.79-13.48-.79-13.48-2.68-.36-5.83-.94-6.17-2.46s-1.52-4.07 2.33-6.17 17.96-5.25 20.52-6.88c2.57-1.63 9.56-4.2 11.89-5.01 2.33-.82 5.6 1.74 4.43 4.78-1.16 3.03-7.69 5.95-7.69 5.95s1.4 8.86 1.05 9.33c-.1.14-.29.26-.62.37-.78.26-2.32.36-5.22.11-4.08-.36-11.77-.77-12.71.14s-.82 7.09-.82 9.07Z"/><path d="M203.32 163.31c-8.17 3.03-20.99 2.34-20.99 2.34-9.56 4.66-16.79 9.55-30.32 2.09.79-1.21 1.32-2.33 1.73-3.87 8.59 3.6 20.51 1.78 28.74-2.63 5.15 1.63 10.8-.07 14.75-1.88l.26.54s1.06 6.07 12.46 0c-2.17 1.68-4.41 2.9-6.63 3.42Z" style="fill:#cbc8b5;stroke-width:0"/><path class="cls-7" d="m81.36 165.44.07.23c-3.76 1.18-6.66 3.81-9.17 6.97-6.39 1.31-25.76 3.48-34.75-4.9 3.19-3.34 26.2-5.21 30.55-4.43 4.35.78 13.29 2.13 13.29 2.13Z"/><path class="cls-7" d="M81.36 165.44c8.47-6.32 18.73-8.5 24.02-11.45 5.28-2.95 6.3-8.91 8.62-9.44 2.33-.55 1.28 3.98 10.94 3.53 9.66-.46 11.24-1.39 11.24-1.39-1.88 3.43-4.58 6.16-7.74 7.73-1.21.61-2.48 1.04-3.8 1.29-8.39 1.55-31.4 9.65-37.93 9.33-1.95-.09-3.7.15-5.29.65l-.07-.23ZM244.4 140.11s8.95 3.62 14.9 1.28c-6.53 4.67-16.56 10.5-22.85 10.5 4.38-1.95 6.72-6.62 7.57-11.84l.38.06ZM173.77 62.42l7.32 8.39c-3.22 1.47-8.24 4.81-8.24 4.81l-.32.26c-1.18-1.44-2.45-2.97-3.68-4.47l.8-.6s1.91-4.11 4.12-8.39ZM137.56 107.04l-6.38-.79s-.16-.93-2.95-12.12c-2.53-10.11-22.41-17.68-34.56-20.5 0 0 8.38-11.47 13.69-12.05 3.48 2.09 9.17 5.82 14.96 10.93 9.33 8.24 14.3 18.96 15.24 34.52Z"/><path class="cls-11" d="M86.72 165.02c6.53.32 29.54-7.77 37.93-9.33 1.32-.25 2.59-.68 3.8-1.29s-7.53 9.99-11.73 13.34c-4.19 3.34-11.05 6.01-11.05 6.01-15.84-.82-31.55-1.58-31.55-1.58-.32.12-.96.28-1.86.47 2.51-3.16 5.41-5.79 9.17-6.97 1.59-.5 3.34-.74 5.29-.65Z"/><path class="cls-11" d="M115.01 174.21c-1.21-.04-2.48-.09-3.79-.16-1.83-.1-3.68-.19-5.54-.29 0 0 6.86-2.67 11.05-6.01 4.2-3.34 11.73-13.33 11.73-13.33 3.16-1.58 5.85-4.3 7.74-7.74 1.98-3.61 3.06-7.99 2.81-12.64 8.97 4.71 16.55 10.78 15.95 19.64-.35 5.12-.65 8.07-1.21 10.19-.4 1.54-.94 2.66-1.73 3.87-14.02 4.75-22.05 6.9-37.01 6.47ZM209.95 159.9c-11.4 6.07-12.46 0-12.46 0l-.26-.54c3.09-1.42 5.15-2.89 5.15-2.89-8.55-.16-15.08-12.59-22.97-25.18 2.26-1.67 4.31-3.69 6.88-5.69 3.75-2.9 8.6-5.78 16.72-7.47 13.68-2.85 30.78-2.85 36.69 2.12 3.54 2.98 5.59 12 4.31 19.8-.85 5.22-3.19 9.89-7.57 11.84-11.2 5.83-29.38 11.43-33.12 11.43 2.22-.51 4.46-1.74 6.63-3.42Z"/><path class="cls-5" d="M168.85 71.42c-3.89-4.68-7.51-9-7.51-9h-2.44l-.48-2.08c.59-.14 1.18-.28 1.76-.45 1.7-.47 2.91-1.76 3.79-3.54 0 0 10.28 1.91 11.36 3.13-.52.96-1.05 1.95-1.56 2.94-2.21 4.28-4.12 8.39-4.12 8.39l-.8.6ZM186.53 103.15c.07-2.2-.56-4.84-1.56-7.54-1.97-5.33-5.37-10.89-7.54-13.67-.98-1.26-2.81-3.51-4.9-6.05l.32-.26s5.01-3.34 8.24-4.81c1.18-.55 2.11-.84 2.48-.63 1.41.79 7.31 5.75 10.58 9.65 3.26 3.88 7 9.79 7.46 11.34.47 1.56 2.02 10.11 2.17 10.73 9.17 1.09 26.12-.86 34.05 7.31 7.93 8.16 21.46 28.45 21.46 32.18-5.95 2.34-14.9-1.28-14.9-1.28l-.38-.06c1.28-7.8-.77-16.82-4.31-19.8-5.91-4.97-23.01-4.97-36.69-2.12-8.12 1.69-12.96 4.57-16.72 7.47l-1.33-1.32c1.23-2.66 1.57-19.97 1.57-19.97v-1.17ZM36.58 120.4c5.83 1.17 13.53 4.43 13.53 4.43 4.9-6.06 15.15-20.75 21.22-29.15 1.21-1.68 3.06-4.11 5.31-6.93l1.69.53c-7.8 9.93-10.26 42.55-10.26 42.55l.12.54c-6.7 1.46-13.28 4.65-15.52 5.76-3.26 1.63-12.36-.93-12.36-.93l-3.73-16.8Z"/><path class="cls-3" d="M134.14 34.66c0-5.98-.79-13.48-.79-13.48-2.68-.36-5.83-.94-6.17-2.46s-1.52-4.07 2.33-6.17 17.96-5.25 20.52-6.88c2.57-1.63 9.56-4.2 11.89-5.01 2.33-.82 5.6 1.74 4.43 4.78-1.16 3.03-7.69 5.95-7.69 5.95s1.4 8.86 1.05 9.33c-.1.14-.29.26-.62.37-.78.26-2.32.36-5.22.11-4.08-.36-11.77-.77-12.71.14s-.82 7.09-.82 9.07.94 7.12.7 8.28c-.24 1.17-1.22.68-1.22.68-1.14-1.34-4.43-5.75-5.69-4.68Z"/><path class="cls-3" d="M134.35 34.66c-.07 0-.14 0-.2.02-2.19.38-.87 7.23-.18 8.85.18.43.53.79.97 1.09.78.52 1.86.83 2.91.93.81.07 2.07-.12 2.07-.12M163.97 56.35s10.28 1.91 11.36 3.13c-.52.96-1.05 1.95-1.56 2.94-2.21 4.28-4.12 8.39-4.12 8.39M173.77 62.42l7.32 8.39"/><path d="M154.46 60.98c-1.04 1.91-4.31 5.44-11.77 3.57-4.93-1.23-7.44-4.05-8.67-6.65l.27-4.02.31-4.52h.33s2.16 0 3.24-1.01.82-2.79.82-2.79l-4.06-.94c-.44-.29-.79-.66-.97-1.09-.69-1.62-2.01-8.47.18-8.85v-.02c1.25-1.07 4.54 3.33 5.68 4.68 0 0 .99.49 1.22-.68.24-1.16-.7-6.29-.7-8.28s-.11-8.17.82-9.07 8.62-.49 12.71-.14c2.9.25 4.44.15 5.22-.11 2.37 2.09 7.98 10.75 7.51 18.37-.34 5.4-.49 12.6-2.63 16.91-.88 1.78-2.09 3.07-3.79 3.54-.58.16-1.17.31-1.76.45-1.32.3-2.64.52-3.96.64Z" style="fill:#eed0b2;stroke:#040000;stroke-miterlimit:10"/><path class="cls-5" d="M93.67 73.64c12.15 2.81 32.03 10.39 34.56 20.5 2.8 11.19 2.95 12.12 2.95 12.12l6.38.79c-.93-15.56-5.91-26.28-15.24-34.52-5.79-5.12-11.48-8.84-14.96-10.93-2.12-1.27-3.42-1.94-3.42-1.94 1.26-.87 2.37-1.48 3.3-1.75C115.17 55.58 133 54.3 133 54.3c.1.99.39 2.27 1.02 3.61 1.22 2.6 3.74 5.42 8.67 6.65 7.46 1.87 10.73-1.66 11.77-3.57 1.32-.12 2.64-.34 3.96-.64l.48 2.08h2.44s3.62 4.32 7.51 9c1.23 1.5 2.5 3.02 3.68 4.47 2.09 2.54 3.93 4.79 4.9 6.05 2.16 2.79 5.56 8.34 7.54 13.67 1 2.7 1.63 5.34 1.56 7.54v1.17s-.34 17.31-1.57 19.97l1.33 1.32c-2.57 2-4.62 4.02-6.88 5.69 7.89 12.6 14.42 25.03 22.97 25.18 0 0-2.06 1.47-5.15 2.89-3.96 1.81-9.6 3.52-14.75 1.88-8.24 4.41-20.16 6.23-28.74 2.63.56-2.13.86-5.07 1.21-10.19.6-8.86-6.98-14.93-15.95-19.64.25 4.65-.83 9.03-2.81 12.64 0 0-1.58.93-11.24 1.39-9.66.46-8.61-4.07-10.94-3.53-2.32.54-3.34 6.49-8.62 9.44-5.29 2.95-15.56 5.13-24.02 11.45 0 0-8.94-1.35-13.29-2.13-4.36-.78-27.37 1.09-30.55 4.43-11.89 2.34-22.85 5.13-24.73 2.1.94-9.79 13.3-44.07 23.79-49.44l3.73 16.8s9.1 2.57 12.36.93c2.24-1.11 8.82-4.3 15.52-5.76l-.12-.54s2.46-32.62 10.26-42.55l-1.69-.53c3.74-4.71 8.58-10.54 13.41-15.86 1.1.19 2.31.44 3.63.74Z"/><path class="cls-8" d="M138.18 48.34c-1.09 1.01-3.24 1.01-3.24 1.01h-.33l.33-4.74 4.06.94s.26 1.77-.82 2.79Z"/><path d="m134.3 53.88-.27 4.02c-.63-1.34-.92-2.62-1.02-3.61l1.3-.41Z" style="stroke-width:0;fill:#eed0b2"/><path class="cls-3" d="m134.3 53.88-1.3.41c.1.99.39 2.27 1.02 3.61 1.22 2.6 3.74 5.42 8.67 6.65 7.46 1.87 10.73-1.66 11.77-3.57"/><path class="cls-2" d="m134.61 49.36.33-4.74 4.06.94s.26 1.77-.82 2.79-3.24 1.01-3.24 1.01h-.33M134.02 57.9l.28-4.02.31-4.52"/><path class="cls-3" d="M115 174.21c-1.21-.04-2.48-.09-3.79-.16-1.83-.1-3.68-.19-5.54-.29-15.84-.82-31.55-1.58-31.55-1.58-.32.12-.96.28-1.86.47-6.39 1.31-25.76 3.48-34.75-4.9-11.89 2.34-22.85 5.13-24.73 2.1.94-9.79 13.3-44.07 23.79-49.44 5.83 1.17 13.53 4.43 13.53 4.43 4.9-6.06 15.15-20.75 21.22-29.15 1.21-1.68 3.06-4.11 5.31-6.93 3.74-4.71 8.58-10.54 13.41-15.86 1.1.19 2.31.44 3.63.74 12.15 2.81 32.03 10.39 34.56 20.5 2.8 11.19 2.95 12.12 2.95 12.12l6.38.79c-.93-15.56-5.91-26.28-15.24-34.52-5.79-5.12-11.48-8.84-14.96-10.93-2.12-1.27-3.42-1.94-3.42-1.94 1.26-.87 2.37-1.48 3.3-1.75C115.17 55.58 133 54.3 133 54.3M172.85 75.63s5.01-3.34 8.24-4.81c1.18-.55 2.11-.84 2.48-.63 1.41.79 7.31 5.75 10.58 9.65 3.26 3.88 7 9.79 7.46 11.34.47 1.56 2.02 10.11 2.17 10.73 9.17 1.09 26.12-.86 34.05 7.31 7.93 8.16 21.46 28.45 21.46 32.18-6.53 4.67-16.56 10.5-22.85 10.5-11.2 5.83-29.38 11.43-33.12 11.43-8.17 3.03-20.99 2.34-20.99 2.34-9.56 4.66-16.79 9.55-30.32 2.09-14.02 4.75-22.05 6.9-37.01 6.47"/><path class="cls-3" d="M68.07 131.83s2.46-32.62 10.26-42.55c.52-.66 1.07-1.22 1.63-1.66M48.74 124.28s-4.47 9.88-6.33 11.28"/><path class="cls-3" d="m36.58 120.4 3.73 16.8s9.1 2.57 12.36.93c2.24-1.11 8.82-4.3 15.52-5.76 3.11-.68 6.24-.98 8.97-.54 17.03-3.96 30.55-12.36 30.78-13.29.24-.93-31.25 0-31.25 0M81.36 103.61s2.57 3.03 13.53 3.74c10.96.69 19.36 2.19 22.39 2.37s12.82.93 4.19-3.05c-8.62-3.99-23.32-9.59-26.82-10.52s-3.03-2.57-2.33-4.43c.69-1.86 2.8-5.36 5.6-2.1 2.8 3.27 6.52 5.36 6.52 5.36M93.67 73.64s8.38-11.47 13.69-12.05M143.28 118.13s4.5-15.68-3.99-31.77S127.02 66 124.95 62.42s.95-5.8 3.52-2.94 11.46 11.87 18.21 11.34c3.17-.26 6.09-.92 8.28-2.12 2.47-1.36 4.01-3.39 3.95-6.28"/><path class="cls-3" d="M154.95 68.69h0c.41.51 13.66 16.45 15.95 27.47 2.33 11.2 3.27 26.35 1.63 29.85M191.66 84.49s-4.52 10.3-6.69 11.12h0"/><path class="cls-3" d="m197.49 97.35-10.96 5.8c.07-2.2-.56-4.84-1.56-7.54-1.97-5.33-5.37-10.89-7.54-13.67-.98-1.26-2.81-3.51-4.9-6.05-1.18-1.44-2.45-2.97-3.68-4.47-3.89-4.68-7.51-9-7.51-9M186.53 104.32s-.34 17.31-1.57 19.97M188.32 106.18s14.54.23 17.57 0M179.42 131.29c2.26-1.67 4.31-3.69 6.88-5.69 3.75-2.9 8.6-5.78 16.72-7.47 13.68-2.85 30.78-2.85 36.69 2.12 3.54 2.98 5.59 12 4.31 19.8-.85 5.22-3.19 9.89-7.57 11.84"/><path class="cls-3" d="M229.14 134.04s-8.91 17.95-19.18 25.86c-2.17 1.68-4.41 2.9-6.63 3.42"/><path class="cls-3" d="M197.49 159.9s1.06 6.07 12.46 0M152.02 167.74c.79-1.21 1.32-2.33 1.73-3.87.56-2.13.86-5.07 1.21-10.19.6-8.86-6.98-14.93-15.95-19.64.25 4.65-.83 9.03-2.81 12.64-1.88 3.43-4.58 6.16-7.74 7.73-1.21.61-2.48 1.04-3.8 1.29-8.39 1.55-31.4 9.65-37.93 9.33-1.95-.09-3.7.15-5.29.65-3.76 1.18-6.66 3.81-9.17 6.97M167.72 134.86s5.3 15.08 10.35 19.13"/><path class="cls-3" d="M137.71 130.36s22.7 5.2 31.09 3.68c8.39-1.51 10.61-2.75 10.61-2.75 7.89 12.6 14.42 25.03 22.97 25.18 0 0-2.06 1.47-5.15 2.89-3.96 1.81-9.6 3.52-14.75 1.88-8.24 4.41-20.16 6.23-28.74 2.63M244.4 140.11s8.95 3.62 14.9 1.28M37.51 167.74c3.19-3.34 26.2-5.21 30.55-4.43 4.35.78 13.29 2.13 13.29 2.13 8.47-6.32 18.73-8.5 24.02-11.45 5.28-2.95 6.3-8.91 8.62-9.44 2.33-.55 1.28 3.98 10.94 3.53 9.66-.46 11.24-1.39 11.24-1.39"/><path class="cls-3" d="M129.63 118.13s1.24 6.32-6.84 13.7c-8.08 7.39-8.54 11.14-9.84 13.26M128.45 154.42s-7.53 9.98-11.73 13.33c-4.19 3.34-11.05 6.01-11.05 6.01M114.86 174.26s.05-.02.14-.05h0c1.38-.43 12.27-3.94 16.33-8.43M159.1 21.07c2.37 2.09 7.98 10.75 7.51 18.37-.34 5.4-.49 12.6-2.63 16.91-.88 1.78-2.09 3.07-3.79 3.54-.58.16-1.17.31-1.76.45-1.32.3-2.64.52-3.96.64-4.02.39-7.95-.09-11.19-1.91"/><path class="cls-3" d="M155.51 33.88s7.24 10.77 6.76 11.67c-.81 1.56-4.48.86-4.48.86M146.67 38.63s5.03-.58 6.43 0M161.5 36.76s2.03-1.09 2.8-.93M157.15 29.61l5.75-1.09M152.21 30.62s-7.42-.23-8.94-.23M158.02 52.25l3.48-.23"/></g></svg>