<?xml version="1.0" encoding="UTF-8"?>
<svg id="_レイヤー_1" data-name="レイヤー 1" xmlns="http://www.w3.org/2000/svg" viewBox="0 0 236.78 197.94">
  <defs>
    <style>
      .cls-1 {
        fill: #c9adbb;
      }

      .cls-1, .cls-2, .cls-3, .cls-4, .cls-5 {
        stroke-width: 0px;
      }

      .cls-6 {
        fill: none;
        stroke: #000;
        stroke-linecap: round;
        stroke-linejoin: round;
      }

      .cls-2 {
        fill: #333;
      }

      .cls-3 {
        fill: #ffffed;
      }

      .cls-4 {
        fill: #c95955;
      }

      .cls-5 {
        fill: #ffe7c3;
      }
    </style>
  </defs>
  <g>
    <path class="cls-2" d="m139.76,35.93c2.56,8.62,3.81,17.61,3.93,24.88-.18,2.38-1.86,1.73-1.79.35-.65-17.31-5.42-23.8-9.22-34.16-3.81-10.35-8.39-13.8-10.48-15.47-2.08-1.67-3.63.35-4.82,3.8v3.81h8.16l.06,2.55h-4.07s.67,2.02,3.17,5.84c2.5,3.8,3.93,11.01,5.72,15.59,1.79,4.59,1.19,9.88,1.77,13.39.57,3.51,1.57,3.93,2.57,8.69,0,0-1.48-1.66-2.57-3.51s-4.6-9.19-4.6-9.19l-.03-.08c1.39-.51,2.03-3.56,1.78-5.45-.32-2.38-1.37-4.17-3.08-4.21-1.81-.06-2.27.76-2.61,2.54-.29,1.47-1.59,2.3-2.86,1.67-.32-.48-4.28-10.71-7.62-19.76-1.43,3.65-7.93,4.2-12.21,4.28-.63,0-1.11-.06-1.45-.18-1.92-.72.7-3.45,3.26-5.14,1.23-.42,4.07-3.87,5.32-5.3h-3.69v-2.02s4.52.12,5.47,0c.48-.12-.12-3.22-1.07-4.82s-2.32-3.45-6.19-9.64c-1.01-3.93,3.27-4.76,5.72-3.04l6.72,8.93s1.61-1.31,3.87-2.5c5.36-2.69,8.34,1.72,11.61,6.48,3.27,4.76,6.67,13.03,9.22,21.67Z"/>
    <path class="cls-3" d="m112.21,73.11s3.66,4.75,9.56,2.96c8.15-2.46,14.97-8.3,12.99-10.87l3.18,2.94s-2.19,3.46-6.91,6.91c-3.78,2.76-15.78,7.85-20.28.53l.68-1.16.78-1.31Z"/>
    <path class="cls-3" d="m143.74,69.78l-.05.2c-.69,1.4-1.97,2.94-3.6,4.46-3.78,3.54-9.45,7.08-14.02,8.99-6.55,2.74-16.19.84-19.04-1.9-2.86-2.73-1.94-6.3-1.94-6.3h0c3.51-.49,6.34-.78,6.34-.78l-.68,1.16c4.49,7.32,16.5,2.23,20.28-.53,4.72-3.45,6.91-6.91,6.91-6.91,0,0,2.72.95,5.8,1.63Z"/>
    <path class="cls-3" d="m209.05,177.93c-3.32,1.76-10.02,6.14-13.23,7.14-3.45,1.06-10.47,2.02-10.47,2.02l-1.67-.74,3.69-8.38h0c3.06.9,6.66,1.8,8.8,1.73,4.12-.11,7.35.98,12.88-1.78Z"/>
    <path class="cls-1" d="m60.76,172.36c-1.74.48-16.46-1.78-22.65-4.16s-9.04-8.62-9.04-8.62l-.06-.47c5.53-.67,16.88-2.15,27.11-3.65-3.27,4.75-.39,11.63,4.63,16.9Z"/>
    <path class="cls-1" d="m130.63,180.47c-3.41,1.96-10.64,3.4-15.87,4.12-4.52.83-17.08-2.03-17.08-2.03,7.07-2.39,16.12-5.84,23.52-9.62,2.69,2.79,5.9,5.3,9.43,7.53Z"/>
    <path class="cls-1" d="m147,188.55h0c-7.87,3.25-27.83-.38-32.24-3.95,5.23-.72,12.46-2.16,15.87-4.12h0c5,3.19,10.63,5.85,16.36,8.07Z"/>
    <path class="cls-1" d="m216.52,124.12c8.21,2.02,19.88,11.91,19.76,20.6-.11,8.69-4.4,14.88-4.4,14.88l-.1.06c-3.48-6.26-9.46-15.99-12.75-20.05-5.12-6.31-13.69-4.88-19.64-4.05-2.14.3-6.18.69-10.77.99l-.07-.99s.02-1.78.03-4.28h0c7.82-4.29,19.72-9.17,27.93-7.15Z"/>
    <path class="cls-4" d="m68.72,153.48c-3.53.62-7.95,1.31-12.6,1.98-10.24,1.5-21.58,2.98-27.11,3.65-.64.08-1.21.15-1.69.21-8.09.95-13.17-.79-16.67-3.81-3.49-3.01-10.15-10.63-10.15-10.63,11.43,3.01,21.43,6.98,31.26,7.3,9.85.32,50.47-.79,43.96-.16-1.29.39-3.79.9-7,1.46Z"/>
    <path class="cls-4" d="m234.38,165.3s-1.9,4.05-8.8,7.51c-6.91,3.45-12.86,3.33-15.83,4.75-.21.1-.45.22-.7.36-5.53,2.76-8.75,1.67-12.88,1.78-2.14.07-5.74-.83-8.8-1.74-3.07-.9-5.59-1.83-5.59-1.83,6.9-.35,22.38-7.5,28.57-9.29,6.18-1.78,19.78-3.42,24.04-1.55Z"/>
    <path class="cls-4" d="m164.52,159.6c1.48,1.6,2.32,9.94,1.6,11.19-6.07,3.27-17.57,6.72-19.12,7.25,3.41-4.82,12.28-16.78,13.53-18.03.71-.71,1.41-1.26,2.16-1.31.58-.05,1.17.21,1.83.9Z"/>
    <path class="cls-3" d="m133.09,167.8c12.38,12.38,13.91,10.24,13.91,10.24,1.55-.53,13.05-3.98,19.12-7.25,2.74,1.96,10.06,6.86,15.65,5.35,0,0,2.53.92,5.59,1.83h0s-3.69,8.39-3.69,8.39l-4.88,11.09c-8.03-1.61-20.13-4.35-31.8-8.89-5.73-2.23-11.37-4.89-16.36-8.07h0c-3.52-2.24-6.73-4.75-9.43-7.53,3.71-1.9,7-3.88,9.44-5.85l1.03-.75c.46.48.92.96,1.42,1.45Z"/>
    <path class="cls-3" d="m188.62,136.54c4.59-.3,8.62-.69,10.77-.99,5.95-.83,14.52-2.27,19.64,4.05,3.29,4.07,9.28,13.8,12.75,20.05,1.92,3.47,3.09,5.86,2.6,5.65-4.25-1.87-17.85-.23-24.04,1.55-6.19,1.79-21.67,8.93-28.57,9.29-5.59,1.51-12.91-3.39-15.65-5.35.72-1.25-.12-9.58-1.6-11.19-.65-.7-1.25-.95-1.83-.9-.76.06-1.45.61-2.16,1.31-1.25,1.25-10.12,13.21-13.53,18.03,0,0-1.53,2.14-13.91-10.24-.49-.49-.96-.98-1.42-1.45-4.07-4.26-6.54-7.76-7.87-10.79-2.23-5.1-1.22-8.88.88-12.75.6-1.11,2.04-3.04,4.49-5.35l-.36-.61c-.48-2.38-1.19-13.32,0-23.56,1.18-10.24,11.28-38.87,11.28-38.87,1.63-1.52,2.91-3.06,3.6-4.46l.05-.2c1.54.34,3.17.62,4.59.67,4.29.17,15.12,2.38,16.9,5.35,1.79,2.98,8.09,16.84,10.36,20.98,2.26,4.14,12.86,15.57,12.97,20.69.07,3.22.06,9.56.03,13.81,0,2.5-.03,4.28-.03,4.28l.07.99Z"/>
    <path class="cls-3" d="m123.8,155.56c1.33,3.03,3.8,6.53,7.87,10.79l-1.03.75c-2.43,1.97-5.72,3.94-9.44,5.85-7.4,3.79-16.46,7.24-23.52,9.62-5.47,1.84-9.76,3.04-11.16,3.25-4.13.64-6.98-1.11-9.05-4.91-.09-.18-.21-.4-.32-.66-2.36-5.31-8.43-26.76-8.43-26.76,3.22-.56,5.72-1.07,7-1.46,0,0,11.61-.53,13.15-1.77h0c2.06,1.7,4.84,2.86,8.63,3.24,12.74,1.23,24.76,1.98,24.76,1.98l1.54.1Z"/>
    <path class="cls-3" d="m68.72,153.48s6.07,21.44,8.43,26.76l-1.45-.1c-4.93,0-10.69-3.33-14.94-7.78-5.03-5.28-7.91-12.15-4.63-16.9,4.64-.67,9.06-1.36,12.6-1.98Z"/>
    <path class="cls-3" d="m59.42,131.76c10.76-.2,21.7-.54,23.01-1.17-.04.94-.02,1.85.07,2.69.67,6.1,1.51,12.98,6.36,16.95h0c-1.54,1.25-13.15,1.78-13.15,1.78,6.51-.63-34.11.48-43.96.16-9.84-.32-19.83-4.29-31.26-7.3,0,0,9.52-9.36,12.86-12.86,3.18-3.33,6.03-10.55,11.7-12.18h.02c5.33,0,20.67,5.48,34.34,11.54v.37Z"/>
    <path class="cls-3" d="m84.01,121.75c-.85,3.06-1.46,6.12-1.58,8.85-1.31.62-12.25.97-23.01,1.17v-.37c-13.68-6.06-29.01-11.53-34.35-11.54.27-.08.54-.15.82-.2,5.32-.96,25.97,1.45,34.86-1.8,3.65-5.08,9-12.38,12.47-17.29,4.21-5.96,11.48-15,16-19.71,0,0,4.07,14.85,4.65,15.92h0c-1.77,3.44-3.35,6.69-4,8.54-1.13,3.24-4.04,9.82-5.87,16.43Z"/>
    <path class="cls-3" d="m105.09,75.21s-.92,3.57,1.94,6.3c2.85,2.74,12.49,4.64,19.04,1.9,4.57-1.91,10.25-5.44,14.02-8.99,0,0-10.1,28.63-11.28,38.87-1.19,10.24-.48,21.18,0,23.56l.36.61c-2.45,2.31-3.9,4.24-4.49,5.35-2.1,3.87-3.1,7.65-.88,12.75l-1.54-.1s-12.03-.75-24.76-1.98c-3.79-.37-6.57-1.54-8.63-3.24-4.85-3.97-5.69-10.85-6.36-16.95-.09-.85-.11-1.75-.07-2.69.11-2.73.73-5.79,1.58-8.85,1.84-6.61,4.75-13.19,5.87-16.43.65-1.85,2.23-5.1,4-8.54h0c-.59-1.07-4.65-15.92-4.65-15.92,1.35-1.41,2.45-2.43,3.16-2.87,1.79-1.1,7.89-2.12,12.71-2.78h0Z"/>
    <path class="cls-5" d="m134.76,65.21c1.99,2.57-4.84,8.41-12.99,10.87-5.89,1.78-9.56-2.96-9.56-2.96l.27-1.25c-9.85-1.95-15.46-12.88-15.97-18.4-.63-6.82-.79-15.55,3-22.16.34.12.81.19,1.45.18,4.28-.07,10.79-.63,12.21-4.28,3.34,9.04,7.3,19.28,7.62,19.76,1.27.63,2.57-.2,2.86-1.67.34-1.77.8-2.59,2.61-2.54,1.71.05,2.76,1.84,3.08,4.21.25,1.89-.39,4.94-1.78,5.45l.03.08s3.51,7.35,4.6,9.19,2.57,3.51,2.57,3.51Z"/>
  </g>
  <g>
    <path class="cls-6" d="m127.59,52.51s3.51,7.35,4.6,9.19,2.57,3.51,2.57,3.51c-1.01-4.75-2-5.17-2.57-8.69-.58-3.51.02-8.8-1.77-13.39-1.78-4.58-3.22-11.78-5.72-15.59-2.5-3.81-3.17-5.84-3.17-5.84h4.07l-.06-2.55h-8.16v-3.81c1.19-3.45,2.74-5.47,4.82-3.8,2.09,1.67,6.67,5.12,10.48,15.47,3.8,10.36,8.57,16.85,9.22,34.16-.07,1.38,1.61,2.02,1.79-.35-.12-7.26-1.37-16.25-3.93-24.88-2.55-8.63-5.95-16.9-9.22-21.67-3.27-4.75-6.25-9.16-11.61-6.48-2.26,1.18-3.87,2.5-3.87,2.5l-6.72-8.93c-2.44-1.72-6.72-.89-5.72,3.04,3.87,6.19,5.24,8.04,6.19,9.64s1.55,4.7,1.07,4.82c-.95.12-5.47,0-5.47,0v2.02h3.69c-1.25,1.43-4.09,4.88-5.32,5.3-2.56,1.69-5.18,4.42-3.26,5.14.34.12.81.19,1.45.18,4.28-.07,10.79-.63,12.21-4.28,3.34,9.04,7.3,19.28,7.62,19.76,1.27.63,2.57-.2,2.86-1.67.34-1.77.8-2.59,2.61-2.54,1.71.05,2.76,1.84,3.08,4.21.25,1.89-.39,4.94-1.78,5.45-.35.14-.76.11-1.21-.15"/>
    <path class="cls-6" d="m99.52,31.31c-3.79,6.61-3.64,15.34-3,22.16.51,5.52,6.12,16.45,15.97,18.4,2.33.46,4.89.42,7.67-.31"/>
    <line class="cls-6" x1="96.91" y1="40.69" x2="101.83" y2="41.17"/>
    <line class="cls-6" x1="106.35" y1="40.69" x2="112.38" y2="39.03"/>
    <line class="cls-6" x1="108.16" y1="48.39" x2="113.33" y2="48.39"/>
    <line class="cls-6" x1="97.78" y1="49.5" x2="101.83" y2="49.5"/>
    <path class="cls-6" d="m103.81,46.17s.4,11.42,0,12.06,3.01-.16,3.41,0"/>
    <line class="cls-6" x1="106.79" y1="63.11" x2="111.11" y2="63.11"/>
    <path class="cls-6" d="m134.76,65.21c1.99,2.57-4.84,8.41-12.99,10.87-5.89,1.78-9.56-2.96-9.56-2.96l-.78,1.31-.68,1.16c4.49,7.32,16.5,2.23,20.28-.53,4.72-3.45,6.91-6.91,6.91-6.91l-3.18-2.94Z"/>
    <path class="cls-6" d="m111.43,74.43s-2.83.29-6.34.77c-4.82.66-10.92,1.68-12.71,2.78-.71.44-1.81,1.46-3.16,2.87-4.52,4.71-11.78,13.75-16,19.71-3.47,4.9-8.81,12.2-12.47,17.29-2.11,2.93-3.65,5.12-3.96,5.69"/>
    <path class="cls-6" d="m25.08,119.84c.27-.08.54-.15.82-.2,5.32-.96,25.97,1.45,34.86-1.8"/>
    <path class="cls-6" d="m.5,144.88c11.43,3.01,21.43,6.98,31.26,7.3,9.85.32,50.47-.79,43.96-.16-1.29.39-3.79.9-7,1.46-3.53.62-7.95,1.31-12.6,1.98-10.24,1.5-21.58,2.98-27.11,3.65-.64.08-1.21.15-1.69.21-8.09.95-13.17-.79-16.67-3.81-3.49-3.01-10.15-10.63-10.15-10.63,0,0,9.52-9.36,12.86-12.86,3.18-3.33,6.03-10.55,11.7-12.18"/>
    <path class="cls-6" d="m29.07,159.58s2.85,6.25,9.04,8.62,20.9,4.63,22.65,4.16"/>
    <path class="cls-6" d="m56.12,155.46c-3.27,4.75-.39,11.63,4.63,16.9,4.24,4.45,10,7.78,14.94,7.78.28,0,.55,0,.82-.03"/>
    <path class="cls-6" d="m68.72,153.48s6.07,21.44,8.43,26.76c.11.26.22.48.32.66,2.07,3.8,4.92,5.56,9.05,4.91,1.4-.21,5.69-1.42,11.16-3.25,7.07-2.39,16.12-5.84,23.52-9.62,3.71-1.9,7-3.88,9.44-5.85"/>
    <path class="cls-6" d="m25.06,119.84h.02c5.33,0,20.67,5.48,34.34,11.54"/>
    <path class="cls-6" d="m37.4,131.98s10.92-.03,22.02-.22c10.76-.2,21.7-.54,23.01-1.17.03,0,.06-.02.07-.04"/>
    <path class="cls-6" d="m69.3,110.91s13.76,8.46,14.71,10.83"/>
    <path class="cls-6" d="m89.22,80.85s4.07,14.85,4.65,15.92"/>
    <path class="cls-6" d="m101.07,83.42s-3.93,7.01-7.19,13.36c-1.77,3.44-3.35,6.69-4,8.54-1.13,3.24-4.04,9.82-5.87,16.43-.85,3.06-1.46,6.12-1.58,8.85-.04.94-.02,1.85.07,2.69.67,6.1,1.51,12.98,6.36,16.95,2.06,1.71,4.84,2.87,8.63,3.24,12.74,1.23,24.76,1.98,24.76,1.98"/>
    <path class="cls-6" d="m111.43,91.28c-6.31,11.78-11.31,25.47-13.09,38.09-1.79,12.61.6,21.9.6,21.9"/>
    <path class="cls-6" d="m105.09,75.21s-.92,3.57,1.94,6.3c2.85,2.74,12.49,4.64,19.04,1.9,4.57-1.91,10.25-5.44,14.02-8.99,1.63-1.52,2.91-3.06,3.6-4.46"/>
    <path class="cls-6" d="m137.94,68.14s2.72.95,5.8,1.63c1.54.34,3.17.62,4.59.67,4.29.17,15.12,2.38,16.9,5.35,1.79,2.98,8.09,16.84,10.36,20.98,2.26,4.14,12.86,15.57,12.97,20.69.07,3.22.06,9.56.03,13.81,0,2.5-.03,4.28-.03,4.28"/>
    <path class="cls-6" d="m188.59,131.27c7.82-4.29,19.72-9.17,27.93-7.15,8.21,2.02,19.88,11.91,19.76,20.6-.11,8.69-4.4,14.88-4.4,14.88"/>
    <path class="cls-6" d="m166.54,136.27c4.1,1.06,13.96.81,22.08.27,4.59-.3,8.62-.69,10.77-.99,5.95-.83,14.52-2.27,19.64,4.05,3.29,4.07,9.28,13.8,12.75,20.05,1.92,3.47,3.09,5.86,2.6,5.65-4.25-1.87-17.85-.23-24.04,1.55-6.19,1.79-21.67,8.93-28.57,9.29,0,0,2.53.92,5.59,1.83,3.06.91,6.66,1.81,8.8,1.74,4.12-.11,7.35.98,12.88-1.78"/>
    <path class="cls-6" d="m234.38,165.3s-1.9,4.05-8.8,7.51c-6.91,3.45-12.86,3.33-15.83,4.75-.21.1-.45.22-.7.36-3.32,1.76-10.02,6.14-13.23,7.14-3.45,1.06-10.47,2.02-10.47,2.02"/>
    <path class="cls-6" d="m130.63,180.47c-3.52-2.24-6.73-4.75-9.43-7.53"/>
    <path class="cls-6" d="m187.37,177.98l-3.69,8.38-4.88,11.09c-8.03-1.61-20.13-4.35-31.8-8.89-5.73-2.23-11.37-4.89-16.36-8.07"/>
    <path class="cls-6" d="m97.68,182.56s12.56,2.86,17.08,2.03c4.41,3.57,24.37,7.21,32.24,3.96"/>
    <path class="cls-6" d="m114.76,184.59c5.23-.72,12.46-2.16,15.87-4.12h0"/>
    <path class="cls-6" d="m166.54,109.96c.11,1.57-2.4,10.28-19.54,16.34-8.48,3.61-14.24,7.79-17.83,11.16-2.45,2.31-3.9,4.24-4.49,5.35-2.1,3.87-3.1,7.65-.88,12.75,1.33,3.03,3.8,6.53,7.87,10.79.46.48.92.96,1.42,1.45,12.38,12.38,13.91,10.24,13.91,10.24,3.41-4.82,12.28-16.78,13.53-18.03.71-.71,1.41-1.26,2.16-1.31.58-.05,1.17.21,1.83.9,1.48,1.6,2.32,9.94,1.6,11.19-6.07,3.27-17.57,6.72-19.12,7.25"/>
    <path class="cls-6" d="m135.55,146.78s18.17,10.8,27.14,11.92"/>
    <path class="cls-6" d="m166.12,170.79c2.74,1.96,10.06,6.86,15.65,5.35"/>
    <path class="cls-6" d="m137.94,140.91c3.44,1,12.64,5.17,26.34,5.87,12.49.64,28.84-2.11,45.58-2.7"/>
    <path class="cls-6" d="m140.09,74.43s-10.1,28.63-11.28,38.87c-1.19,10.24-.48,21.18,0,23.56"/>
    <path class="cls-6" d="m143.69,94.25l3.31-10.83,5.86,8.93c-13.57,14.04-19.84,30.23-18.73,39.63"/>
    <path class="cls-6" d="m140.09,125.61s11.33-27.32,24.66-31.84"/>
    <line class="cls-6" x1="112.21" y1="73.11" x2="112.48" y2="71.86"/>
    <path class="cls-6" d="m76.65,160.9s35.95,2.56,47.66-2.21"/>
    <path class="cls-6" d="m75.72,152.02s11.61-.53,13.15-1.77"/>
  </g>
</svg>