<svg xmlns="http://www.w3.org/2000/svg" viewBox="0 0 270.31 207.86"><defs><style>.cls-1{stroke-miterlimit:10}.cls-1,.cls-2{stroke:#000}.cls-1,.cls-2,.cls-3{fill:none}.cls-10,.cls-5,.cls-6,.cls-8,.cls-9{stroke-width:0}.cls-5{fill:#f3edd7}.cls-2,.cls-3{stroke-linecap:round;stroke-linejoin:round}.cls-6{fill:#333}.cls-3{stroke:#eee;stroke-width:.5px}.cls-8{fill:#856c96}.cls-9{fill:#d2d296}.cls-10{fill:#d23d37}</style></defs><g id="_畳" data-name="畳"><path class="cls-5" d="M.24 173.22h3.62v5.03H.24zM270.06 200.79v6.56h-30.44l15.35-8.63c1.03 1.61 3.11 2.72 5.51 2.72s4.62-1.18 5.62-2.88l3.97 2.23Z"/><path class="cls-5" d="M270.06 190.24v10.56l-3.97-2.23c.38-.65.59-1.38.59-2.14 0-1.3-.62-2.48-1.61-3.38l4.99-2.8ZM270.06 178.25v11.99l-4.99 2.8c-1.14-1.01-2.77-1.64-4.59-1.64s-3.31.58-4.44 1.51l-26.09-14.66h40.11ZM270.06 116.76v5.77H.24v-5.77h269.82zM266.07 173.22h3.99v5.03h-3.99z"/><path class="cls-5" d="M266.69 196.42c0 .76-.21 1.49-.59 2.14l-5.42-3.05 4.39-2.47c1 .89 1.61 2.07 1.61 3.38ZM260.68 195.52l5.42 3.05c-1 1.7-3.13 2.88-5.62 2.88s-4.48-1.1-5.51-2.72l5.71-3.21Z"/><path class="cls-6" d="M254.77 173.22h11.3v5.03h-11.3z"/><path class="cls-5" d="m265.07 193.04-4.39 2.47-4.64-2.6c1.13-.93 2.7-1.51 4.44-1.51 1.82 0 3.46.63 4.59 1.64Z"/><path class="cls-5" d="m260.68 195.52-5.71 3.21c-.44-.69-.69-1.48-.69-2.31 0-1.37.68-2.6 1.77-3.51l4.64 2.6Z"/><path class="cls-5" d="m229.96 178.25 26.09 14.66c-1.09.9-1.77 2.14-1.77 3.51 0 .83.25 1.62.69 2.31l-15.35 8.63h-41.47l-15.64-8.79c.38-.65.59-1.38.59-2.14 0-1.3-.62-2.48-1.61-3.37l26.33-14.8h22.15ZM224 196.42c0-2.77-2.25-5.02-5.02-5.02s-5.03 2.25-5.03 5.02 2.25 5.03 5.03 5.03 5.02-2.25 5.02-5.03ZM254.77 178.25h-30.52v-5.03h30.52v5.03z"/><path class="cls-6" d="M212.95 173.22h11.3v5.03h-11.3zM218.98 191.4c2.77 0 5.02 2.25 5.02 5.02s-2.25 5.03-5.02 5.03-5.03-2.25-5.03-5.03 2.25-5.02 5.03-5.02Z"/><path class="cls-5" d="m207.81 178.25-26.33 14.8c-1.14-1.02-2.77-1.65-4.59-1.65s-3.31.58-4.44 1.51l-26.09-14.66h61.45ZM182.44 178.25v-5.03h30.51v5.03h-30.51zM198.15 207.36h-42.12l15.35-8.63c1.03 1.61 3.12 2.72 5.51 2.72s4.62-1.18 5.62-2.88l15.64 8.79Z"/><path class="cls-5" d="M183.1 196.42c0 .76-.21 1.49-.59 2.14l-5.42-3.05 4.39-2.47c1 .89 1.61 2.07 1.61 3.37ZM177.09 195.52l5.42 3.05c-1 1.7-3.13 2.88-5.62 2.88s-4.48-1.1-5.51-2.72l5.71-3.21Z"/><path class="cls-6" d="M171.13 173.22h11.3v5.03h-11.3z"/><path class="cls-5" d="M176.89 191.4c1.82 0 3.46.63 4.59 1.65l-4.39 2.47-4.64-2.6c1.13-.93 2.7-1.51 4.44-1.51Z"/><path class="cls-5" d="m177.09 195.52-5.71 3.21c-.44-.69-.69-1.48-.69-2.31 0-1.37.68-2.6 1.77-3.51l4.64 2.6Z"/><path class="cls-5" d="m146.37 178.25 26.09 14.66c-1.09.9-1.77 2.14-1.77 3.51 0 .83.25 1.62.69 2.31l-15.35 8.63h-41.47l-15.64-8.79c.38-.65.59-1.38.59-2.14 0-1.3-.62-2.48-1.61-3.37l26.33-14.8h22.15Zm-7.01 18.17c0-2.77-2.25-5.02-5.02-5.02s-5.03 2.25-5.03 5.02 2.25 5.03 5.03 5.03 5.02-2.25 5.02-5.03ZM171.13 178.25h-30.51v-5.03h30.51v5.03z"/><path class="cls-6" d="M129.32 173.22h11.3v5.03h-11.3zM134.33 191.4c2.77 0 5.02 2.25 5.02 5.02s-2.25 5.03-5.02 5.03-5.03-2.25-5.03-5.03 2.25-5.02 5.03-5.02Z"/><path class="cls-5" d="m124.22 178.25-26.33 14.8c-1.14-1.02-2.77-1.65-4.59-1.65s-3.31.58-4.44 1.51l-26.09-14.66h61.45ZM129.32 178.25H98.8v-5.03h30.52v5.03zM114.56 207.36H72.44l15.35-8.63c1.03 1.61 3.11 2.72 5.51 2.72s4.62-1.18 5.62-2.88l15.64 8.79Z"/><path class="cls-5" d="M99.51 196.42c0 .76-.21 1.49-.59 2.14l-5.42-3.05 4.39-2.47c1 .89 1.61 2.07 1.61 3.37ZM93.5 195.52l5.42 3.05c-1 1.7-3.13 2.88-5.62 2.88s-4.48-1.1-5.51-2.72l5.71-3.21Z"/><path class="cls-6" d="M87.5 173.22h11.3v5.03H87.5z"/><path class="cls-5" d="M93.3 191.4c1.82 0 3.46.63 4.59 1.65l-4.39 2.47-4.64-2.6c1.13-.93 2.7-1.51 4.44-1.51Z"/><path class="cls-5" d="m93.5 195.52-5.71 3.21c-.44-.69-.69-1.48-.69-2.31 0-1.37.68-2.6 1.77-3.51l4.64 2.6Z"/><path class="cls-5" d="m62.78 178.25 26.09 14.66c-1.09.9-1.77 2.14-1.77 3.51 0 .83.25 1.62.69 2.31l-15.35 8.63H30.78l-15.64-8.79c.38-.65.59-1.38.59-2.14 0-1.3-.62-2.48-1.61-3.37l26.33-14.8h22.34Zm-8.52 18.17c0-2.77-2.25-5.02-5.02-5.02s-5.03 2.25-5.03 5.02 2.25 5.03 5.03 5.03 5.02-2.25 5.02-5.03ZM87.5 178.25H56.99v-5.03H87.5v5.03z"/><path class="cls-6" d="M45.68 173.22h11.3v5.03h-11.3zM49.23 191.4c2.77 0 5.02 2.25 5.02 5.02s-2.25 5.03-5.02 5.03-5.03-2.25-5.03-5.03 2.25-5.02 5.03-5.02Z"/><path class="cls-5" d="M45.68 178.25H15.17v-5.03h30.51v5.03zM30.78 207.36H.24v-6.52L4 198.73c1.03 1.61 3.12 2.72 5.51 2.72s4.62-1.18 5.62-2.88l15.64 8.79ZM15.72 196.42c0 .76-.21 1.49-.59 2.14l-5.42-3.05 4.39-2.47c1 .89 1.61 2.07 1.61 3.37Z"/><path class="cls-6" d="M3.86 173.22h11.3v5.03H3.86z"/><path class="cls-5" d="m9.72 195.52 5.42 3.05c-1 1.7-3.13 2.88-5.62 2.88s-4.48-1.1-5.51-2.72l5.71-3.21ZM9.52 191.4c1.82 0 3.46.63 4.59 1.65l-4.39 2.47-4.64-2.6c1.13-.93 2.7-1.51 4.44-1.51Z"/><path class="cls-5" d="m9.72 195.52-5.71 3.21c-.44-.69-.69-1.48-.69-2.31 0-1.37.68-2.6 1.77-3.51l4.64 2.6Z"/><path class="cls-5" d="m.24 190.19 4.84 2.72c-1.09.9-1.77 2.14-1.77 3.51 0 .83.25 1.62.69 2.31l-3.76 2.11V190.2Z"/><path class="cls-9" d="M212.95 173.22H.24v-50.69h269.82v50.69h-57.11z"/><path class="cls-5" d="M.24 178.25h40.19l-26.33 14.8c-1.14-1.02-2.77-1.65-4.59-1.65s-3.31.58-4.44 1.51l-4.84-2.72v-11.95Z"/><path class="cls-1" d="M270.06 207.36H.24M.24 116.76h269.82M.24 122.53h269.82M266.07 173.22h3.99M224.25 173.22h30.52M182.44 173.22h30.51M140.62 173.22h30.51M98.8 173.22h30.52M56.99 173.22H87.5M15.17 173.22h30.51M.24 173.22h3.62M266.07 178.25h3.99M224.25 178.25h30.52M182.44 178.25h30.51M140.62 178.25h30.51M98.8 178.25H129.32M56.99 178.25H87.5M15.17 178.25H45.68M.24 178.25h3.62M72.44 207.36l15.35-8.63 5.71-3.21 4.39-2.47 26.33-14.8"/><path class="cls-1" d="m114.56 207.36-15.64-8.8-5.42-3.04-4.64-2.61-26.08-14.66M139.35 196.42c0 2.78-2.25 5.03-5.02 5.03s-5.03-2.25-5.03-5.03 2.25-5.02 5.03-5.02 5.02 2.25 5.02 5.02ZM223.99 196.42c0 2.78-2.25 5.03-5.02 5.03s-5.03-2.25-5.03-5.03 2.25-5.02 5.03-5.02 5.02 2.25 5.02 5.02Z"/><path class="cls-1" d="M97.89 193.05c1 .89 1.61 2.07 1.61 3.37 0 .76-.21 1.49-.59 2.14-1 1.7-3.13 2.88-5.62 2.88s-4.48-1.1-5.51-2.72c-.44-.69-.69-1.48-.69-2.31 0-1.37.68-2.6 1.77-3.51 1.13-.93 2.7-1.51 4.44-1.51 1.82 0 3.46.63 4.59 1.65ZM.24 200.84 4 198.73l5.72-3.21 4.39-2.47 26.33-14.8"/><path class="cls-1" d="m30.78 207.36-15.65-8.8-5.41-3.04-4.64-2.61-4.84-2.72"/><path class="cls-1" d="M14.11 193.05c1 .89 1.61 2.07 1.61 3.37 0 .76-.21 1.49-.59 2.14-1 1.7-3.13 2.88-5.62 2.88s-4.48-1.1-5.51-2.72c-.44-.69-.69-1.48-.69-2.31 0-1.37.68-2.6 1.77-3.51 1.13-.93 2.7-1.51 4.44-1.51 1.82 0 3.46.63 4.59 1.65ZM156.03 207.36l15.35-8.63 5.71-3.21 4.39-2.47 26.33-14.8"/><path class="cls-1" d="m198.15 207.36-15.64-8.8-5.42-3.04-4.64-2.61-26.08-14.66"/><path class="cls-1" d="M181.48 193.05c1 .89 1.61 2.07 1.61 3.37 0 .76-.21 1.49-.59 2.14-1 1.7-3.13 2.88-5.62 2.88s-4.48-1.1-5.51-2.72c-.44-.69-.69-1.48-.69-2.31 0-1.37.68-2.6 1.77-3.51 1.13-.93 2.7-1.51 4.44-1.51 1.82 0 3.46.63 4.59 1.65ZM239.62 207.36l15.35-8.63 5.71-3.21 4.39-2.48 4.99-2.8"/><path class="cls-1" d="m270.06 200.79-3.96-2.23-5.42-3.04-4.64-2.61-26.08-14.66"/><path class="cls-1" d="M265.07 193.04c1 .89 1.61 2.07 1.61 3.38 0 .76-.21 1.49-.59 2.14-1 1.7-3.13 2.88-5.62 2.88s-4.48-1.1-5.51-2.72c-.44-.69-.69-1.48-.69-2.31 0-1.37.68-2.6 1.77-3.51 1.13-.93 2.7-1.51 4.44-1.51 1.82 0 3.46.63 4.59 1.64ZM54.25 196.42c0 2.78-2.25 5.03-5.02 5.03s-5.03-2.25-5.03-5.03 2.25-5.02 5.03-5.02 5.02 2.25 5.02 5.02ZM3.86 173.22h11.3v5.03H3.86zM45.68 173.22h11.3v5.03h-11.3zM87.5 173.22h11.3v5.03H87.5zM129.32 173.22h11.3v5.03h-11.3zM171.13 173.22h11.3v5.03h-11.3zM212.95 173.22h11.3v5.03h-11.3zM254.77 173.22h11.3v5.03h-11.3z"/><path class="cls-5" d="M.24 173.22h3.62v5.03H.24zM270.06 200.79v6.56h-30.44l15.35-8.63c1.03 1.61 3.11 2.72 5.51 2.72s4.62-1.18 5.62-2.88l3.97 2.23Z"/><path class="cls-5" d="M270.06 190.24v10.56l-3.97-2.23c.38-.65.59-1.38.59-2.14 0-1.3-.62-2.48-1.61-3.38l4.99-2.8ZM270.06 178.25v11.99l-4.99 2.8c-1.14-1.01-2.77-1.64-4.59-1.64s-3.31.58-4.44 1.51l-26.09-14.66h40.11ZM270.06 116.76v5.77H.24v-5.77h269.82zM266.07 173.22h3.99v5.03h-3.99z"/><path class="cls-5" d="M266.69 196.42c0 .76-.21 1.49-.59 2.14l-5.42-3.05 4.39-2.47c1 .89 1.61 2.07 1.61 3.38ZM260.68 195.52l5.42 3.05c-1 1.7-3.13 2.88-5.62 2.88s-4.48-1.1-5.51-2.72l5.71-3.21Z"/><path class="cls-6" d="M254.77 173.22h11.3v5.03h-11.3z"/><path class="cls-5" d="m265.07 193.04-4.39 2.47-4.64-2.6c1.13-.93 2.7-1.51 4.44-1.51 1.82 0 3.46.63 4.59 1.64Z"/><path class="cls-5" d="m260.68 195.52-5.71 3.21c-.44-.69-.69-1.48-.69-2.31 0-1.37.68-2.6 1.77-3.51l4.64 2.6Z"/><path class="cls-5" d="m229.96 178.25 26.09 14.66c-1.09.9-1.77 2.14-1.77 3.51 0 .83.25 1.62.69 2.31l-15.35 8.63h-41.47l-15.64-8.79c.38-.65.59-1.38.59-2.14 0-1.3-.62-2.48-1.61-3.37l26.33-14.8h22.15ZM224 196.42c0-2.77-2.25-5.02-5.02-5.02s-5.03 2.25-5.03 5.02 2.25 5.03 5.03 5.03 5.02-2.25 5.02-5.03ZM254.77 178.25h-30.52v-5.03h30.52v5.03z"/><path class="cls-6" d="M212.95 173.22h11.3v5.03h-11.3zM218.98 191.4c2.77 0 5.02 2.25 5.02 5.02s-2.25 5.03-5.02 5.03-5.03-2.25-5.03-5.03 2.25-5.02 5.03-5.02Z"/><path class="cls-5" d="m207.81 178.25-26.33 14.8c-1.14-1.02-2.77-1.65-4.59-1.65s-3.31.58-4.44 1.51l-26.09-14.66h61.45ZM182.44 178.25v-5.03h30.51v5.03h-30.51zM198.15 207.36h-42.12l15.35-8.63c1.03 1.61 3.12 2.72 5.51 2.72s4.62-1.18 5.62-2.88l15.64 8.79Z"/><path class="cls-5" d="M183.1 196.42c0 .76-.21 1.49-.59 2.14l-5.42-3.05 4.39-2.47c1 .89 1.61 2.07 1.61 3.37ZM177.09 195.52l5.42 3.05c-1 1.7-3.13 2.88-5.62 2.88s-4.48-1.1-5.51-2.72l5.71-3.21Z"/><path class="cls-6" d="M171.13 173.22h11.3v5.03h-11.3z"/><path class="cls-5" d="M176.89 191.4c1.82 0 3.46.63 4.59 1.65l-4.39 2.47-4.64-2.6c1.13-.93 2.7-1.51 4.44-1.51Z"/><path class="cls-5" d="m177.09 195.52-5.71 3.21c-.44-.69-.69-1.48-.69-2.31 0-1.37.68-2.6 1.77-3.51l4.64 2.6Z"/><path class="cls-5" d="m146.37 178.25 26.09 14.66c-1.09.9-1.77 2.14-1.77 3.51 0 .83.25 1.62.69 2.31l-15.35 8.63h-41.47l-15.64-8.79c.38-.65.59-1.38.59-2.14 0-1.3-.62-2.48-1.61-3.37l26.33-14.8h22.15Zm-7.01 18.17c0-2.77-2.25-5.02-5.02-5.02s-5.03 2.25-5.03 5.02 2.25 5.03 5.03 5.03 5.02-2.25 5.02-5.03ZM171.13 178.25h-30.51v-5.03h30.51v5.03z"/><path class="cls-6" d="M129.32 173.22h11.3v5.03h-11.3zM134.33 191.4c2.77 0 5.02 2.25 5.02 5.02s-2.25 5.03-5.02 5.03-5.03-2.25-5.03-5.03 2.25-5.02 5.03-5.02Z"/><path class="cls-5" d="m124.22 178.25-26.33 14.8c-1.14-1.02-2.77-1.65-4.59-1.65s-3.31.58-4.44 1.51l-26.09-14.66h61.45ZM129.32 178.25H98.8v-5.03h30.52v5.03zM114.56 207.36H72.44l15.35-8.63c1.03 1.61 3.11 2.72 5.51 2.72s4.62-1.18 5.62-2.88l15.64 8.79Z"/><path class="cls-5" d="M99.51 196.42c0 .76-.21 1.49-.59 2.14l-5.42-3.05 4.39-2.47c1 .89 1.61 2.07 1.61 3.37ZM93.5 195.52l5.42 3.05c-1 1.7-3.13 2.88-5.62 2.88s-4.48-1.1-5.51-2.72l5.71-3.21Z"/><path class="cls-6" d="M87.5 173.22h11.3v5.03H87.5z"/><path class="cls-5" d="M93.3 191.4c1.82 0 3.46.63 4.59 1.65l-4.39 2.47-4.64-2.6c1.13-.93 2.7-1.51 4.44-1.51Z"/><path class="cls-5" d="m93.5 195.52-5.71 3.21c-.44-.69-.69-1.48-.69-2.31 0-1.37.68-2.6 1.77-3.51l4.64 2.6Z"/><path class="cls-5" d="m62.78 178.25 26.09 14.66c-1.09.9-1.77 2.14-1.77 3.51 0 .83.25 1.62.69 2.31l-15.35 8.63H30.78l-15.64-8.79c.38-.65.59-1.38.59-2.14 0-1.3-.62-2.48-1.61-3.37l26.33-14.8h22.34Zm-8.52 18.17c0-2.77-2.25-5.02-5.02-5.02s-5.03 2.25-5.03 5.02 2.25 5.03 5.03 5.03 5.02-2.25 5.02-5.03ZM87.5 178.25H56.99v-5.03H87.5v5.03z"/><path class="cls-6" d="M45.68 173.22h11.3v5.03h-11.3zM49.23 191.4c2.77 0 5.02 2.25 5.02 5.02s-2.25 5.03-5.02 5.03-5.03-2.25-5.03-5.03 2.25-5.02 5.03-5.02Z"/><path class="cls-5" d="M45.68 178.25H15.17v-5.03h30.51v5.03zM30.78 207.36H.24v-6.52L4 198.73c1.03 1.61 3.12 2.72 5.51 2.72s4.62-1.18 5.62-2.88l15.64 8.79ZM15.72 196.42c0 .76-.21 1.49-.59 2.14l-5.42-3.05 4.39-2.47c1 .89 1.61 2.07 1.61 3.37Z"/><path class="cls-6" d="M3.86 173.22h11.3v5.03H3.86z"/><path class="cls-5" d="m9.72 195.52 5.42 3.05c-1 1.7-3.13 2.88-5.62 2.88s-4.48-1.1-5.51-2.72l5.71-3.21ZM9.52 191.4c1.82 0 3.46.63 4.59 1.65l-4.39 2.47-4.64-2.6c1.13-.93 2.7-1.51 4.44-1.51Z"/><path class="cls-5" d="m9.72 195.52-5.71 3.21c-.44-.69-.69-1.48-.69-2.31 0-1.37.68-2.6 1.77-3.51l4.64 2.6Z"/><path class="cls-5" d="m.24 190.19 4.84 2.72c-1.09.9-1.77 2.14-1.77 3.51 0 .83.25 1.62.69 2.31l-3.76 2.11V190.2Z"/><path class="cls-9" d="M212.95 173.22H.24v-50.69h269.82v50.69h-57.11z"/><path class="cls-5" d="M.24 178.25h40.19l-26.33 14.8c-1.14-1.02-2.77-1.65-4.59-1.65s-3.31.58-4.44 1.51l-4.84-2.72v-11.95Z"/><path class="cls-1" d="M270.06 207.36H.24M.24 116.76h269.82M.24 122.53h269.82M266.07 173.22h3.99M224.25 173.22h30.52M182.44 173.22h30.51M140.62 173.22h30.51M98.8 173.22h30.52M56.99 173.22H87.5M15.17 173.22h30.51M.24 173.22h3.62M266.07 178.25h3.99M224.25 178.25h30.52M182.44 178.25h30.51M140.62 178.25h30.51M98.8 178.25H129.32M56.99 178.25H87.5M15.17 178.25H45.68M.24 178.25h3.62M72.44 207.36l15.35-8.63 5.71-3.21 4.39-2.47 26.33-14.8"/><path class="cls-1" d="m114.56 207.36-15.64-8.8-5.42-3.04-4.64-2.61-26.08-14.66M139.35 196.42c0 2.78-2.25 5.03-5.02 5.03s-5.03-2.25-5.03-5.03 2.25-5.02 5.03-5.02 5.02 2.25 5.02 5.02ZM223.99 196.42c0 2.78-2.25 5.03-5.02 5.03s-5.03-2.25-5.03-5.03 2.25-5.02 5.03-5.02 5.02 2.25 5.02 5.02Z"/><path class="cls-1" d="M97.89 193.05c1 .89 1.61 2.07 1.61 3.37 0 .76-.21 1.49-.59 2.14-1 1.7-3.13 2.88-5.62 2.88s-4.48-1.1-5.51-2.72c-.44-.69-.69-1.48-.69-2.31 0-1.37.68-2.6 1.77-3.51 1.13-.93 2.7-1.51 4.44-1.51 1.82 0 3.46.63 4.59 1.65ZM.24 200.84 4 198.73l5.72-3.21 4.39-2.47 26.33-14.8"/><path class="cls-1" d="m30.78 207.36-15.65-8.8-5.41-3.04-4.64-2.61-4.84-2.72"/><path class="cls-1" d="M14.11 193.05c1 .89 1.61 2.07 1.61 3.37 0 .76-.21 1.49-.59 2.14-1 1.7-3.13 2.88-5.62 2.88s-4.48-1.1-5.51-2.72c-.44-.69-.69-1.48-.69-2.31 0-1.37.68-2.6 1.77-3.51 1.13-.93 2.7-1.51 4.44-1.51 1.82 0 3.46.63 4.59 1.65ZM156.03 207.36l15.35-8.63 5.71-3.21 4.39-2.47 26.33-14.8"/><path class="cls-1" d="m198.15 207.36-15.64-8.8-5.42-3.04-4.64-2.61-26.08-14.66"/><path class="cls-1" d="M181.48 193.05c1 .89 1.61 2.07 1.61 3.37 0 .76-.21 1.49-.59 2.14-1 1.7-3.13 2.88-5.62 2.88s-4.48-1.1-5.51-2.72c-.44-.69-.69-1.48-.69-2.31 0-1.37.68-2.6 1.77-3.51 1.13-.93 2.7-1.51 4.44-1.51 1.82 0 3.46.63 4.59 1.65ZM239.62 207.36l15.35-8.63 5.71-3.21 4.39-2.48 4.99-2.8"/><path class="cls-1" d="m270.06 200.79-3.96-2.23-5.42-3.04-4.64-2.61-26.08-14.66"/><path class="cls-1" d="M265.07 193.04c1 .89 1.61 2.07 1.61 3.38 0 .76-.21 1.49-.59 2.14-1 1.7-3.13 2.88-5.62 2.88s-4.48-1.1-5.51-2.72c-.44-.69-.69-1.48-.69-2.31 0-1.37.68-2.6 1.77-3.51 1.13-.93 2.7-1.51 4.44-1.51 1.82 0 3.46.63 4.59 1.64ZM54.25 196.42c0 2.78-2.25 5.03-5.02 5.03s-5.03-2.25-5.03-5.03 2.25-5.02 5.03-5.02 5.02 2.25 5.02 5.02ZM3.86 173.22h11.3v5.03H3.86zM45.68 173.22h11.3v5.03h-11.3zM87.5 173.22h11.3v5.03H87.5zM129.32 173.22h11.3v5.03h-11.3zM171.13 173.22h11.3v5.03h-11.3zM212.95 173.22h11.3v5.03h-11.3zM254.77 173.22h11.3v5.03h-11.3z"/></g><g id="_レイヤー_2" data-name="レイヤー 2"><path class="cls-6" d="M168.26 27.19a6.64 6.64 0 0 1-1.25-.93c-2.62-2.37-4.73-6.61-8.39-2.77-4.21 4.44-11.75 22.41-11.75 22.41-1.4-4.99-1.66-5.11-2.54-7.33-.89-2.22-2.77-1.28-2.88 2.21-.16 4.9 1.48 5.82 1.48 5.82l-6.42-.83s.95-1.4 1.92-3.51c.85-1.86 4.58-13.14 5.54-15.15 1.96-4.1 3.11-5.46 3.62-6.42.52-.96 0-2 0-2h-3.84v-2h4.65v-4.87c0-.59-1.03-2.88-3.03-1.26s-18.1 26.29-18.84 39.29c-.56.35-.93.56-1.18.69l-.1.05-.32.13h-.03c.59-7.31 6.58-32.78 21.21-45.34 2.14-1.4 6.28-1.33 6.06 2.44-.3 2.59-.59 3.32-.59 3.32l1.62.08c1.48-4.29 7.32-9.76 7.76-10.2s5.54-1.7 4.36 2.37c-1.93 4.65-6.29 10.19-6.29 10.19l.67 1.31h4.21v1.96h-3.18s6.28 2.71 7.54 10.32Z"/><path d="M168.62 36c.72 7.47.75 16.6-1.31 20.24-.1.17-.2.34-.3.49-.46.69-.95 1.36-1.45 2-5.65 7.06-14 10.18-14.92 10.42 0 0-16.61-8.8-18.41-21.43 2.9-1.07 4.27-1.94 4.27-1.94l6.42.83s-1.63-.91-1.48-5.82c.11-3.49 2-4.44 2.88-2.21.89 2.21 1.15 2.34 2.54 7.33 0 0 7.54-17.97 11.75-22.41 3.66-3.84 5.77.4 8.39 2.77.59 1.88 1.21 5.56 1.61 9.74Z" style="stroke-width:0;fill:#f2d3ba"/><path d="M145.39 75.35c2.33 1.44 1.08 3.65-.13 6.2-1.34 2.85-5.53 10.5-6.85 11.99-.89-.4-1.55-.63-1.55-.63-1.39-.23-2.78-.43-4.18-.62l.08-.58s5.65-9.92 7.42-12.7c1.77-2.78 3.38-4.8 5.21-3.66Z" style="fill:#e5c2a4;stroke-width:0"/><path class="cls-10" d="M91.38 151.25c-.58.72-1.01 1.56-1.25 2.67-.17.29-.35.59-.51.9-1.37 2.6-2.54 5.86-7.69 4.97-3.24-.56-7.85-1.36-11.26-1.96 0 0 13.48-8.79 16.47-9.9 3-1.1 3.45-1.57 4.25 3.32ZM193.1 126.91c-3.65-1.79-6.35-3.26-7.99-4.57-1.79-1.43-2.91-2.65-3.1-3.55.13-.36.26-.73.4-1.09.77-.61 2.6-.86 5.74-.68 7.82.44 11.36 3.54 19.12 6.65 7.67 3.06 30.97 11.92 31.52 12.12-.9 3.71-15.51 6.3-19.11 3.84-11.42-5.71-20.4-9.67-26.59-12.71Z"/><path class="cls-8" d="M161.9 143.78c1.12.77 14.3 4.19 26.24 7.17-1.22.23-15.89 1.64-15.89 1.64-2.73-.89-9.64-8.06-10.36-8.81Z"/><path class="cls-8" d="M172.25 152.59s-5.1 10.52-6.88 16.59c-3.91-4.38-4.44-12.39-4.23-18.26.16-4.13.69-7.21.69-7.21l.03.03.03.03c.72.76 7.63 7.92 10.36 8.81ZM156.63 151.81c.33 3.32-.56 9.31-1.22 13.74-.66 4.44-4.65 3.99-4.76 2.88-.1-.99-5.38-12.14-6.55-14.61l11.6-7.21s.44 1.38.78 3.89c.06.4.11.84.16 1.3ZM100.1 144.6c4.77-4.54 4.44-1.22 9.31 7.21-2.99-3.32-11.86-2-16.14-2.24 1.83-1.3 4.25-2.5 6.84-4.97Z"/><path class="cls-8" d="M117.28 141.95c.96 0 1.67 3.12 2.62 7.83-7.02-1.03-10.5 2.03-10.5 2.03s6.32-9.86 7.87-9.86Z"/><path class="cls-8" d="M119.9 149.78c.54 2.66 1.15 5.82 1.93 9.21-9.19 2.19-27.82-.86-32.22-4.17.16-.31.34-.62.51-.9.24-1.1.67-1.94 1.25-2.67.51-.63 1.15-1.17 1.88-1.69 4.28.25 13.15-1.08 16.14 2.25 0 0 3.47-3.06 10.5-2.03ZM47.24 116.79l-15.52 13.08s-11.96-1.34-15.29-1.34c3.01-4.11 10.71-11.83 18.41-19.18l2.42.67s8.53 2.11 9.97 6.76Z"/><path d="M182.41 117.69c.77-.61 2.6-.86 5.74-.68 7.82.44 11.36 3.54 19.12 6.65 7.67 3.06 30.97 11.92 31.52 12.12.04-.13.05-.27.05-.41 0 0-1.65-12.45-2.61-21.1-.96-8.65-6.58-9.31-11.09-9.61-4.51-.3-10.57.23-17.43-3.17-.59-.3-1.15-.68-1.71-1.14-5.9-4.89-9.67-18.3-9.67-18.3l-.92-1.02c-.91-1.01-2.72-3-6.32-6.98-7.24-7.99-21.77-17.83-21.77-17.83-.1.17-.2.34-.3.49-.46.69-.95 1.36-1.45 2-5.65 7.06-14 10.18-14.92 10.42 0 0-16.61-8.8-18.41-21.43l-6.88 2.85-.1.05c-.18.09-.28.12-.32.13h-.03s-1.22 1.45-2.87 2.76c-.77.61-1.63 1.19-2.52 1.57-2.53 1.11-9.27 2.13-14.9 3.24-.56.11-1.09.22-1.61.33-5.88 1.24-9.86 10.28-9.64 13.6.23 3.32-4.87 11.97-11.52 21.72-1.78.23-12.64 5.55-12.64 5.55s-.89-1.33-5.31-3.99c-4.44-2.66-7.32-5.76-9.31-4.21-1.09.85-10.4 9.19-19.71 18.06l2.42.67s8.53 2.11 9.97 6.76c0 0 7.75 5.76 7.54 10.42-.14 2.89-1.82 5.19-3.07 7.54-.76 1.43-1.36 2.89-1.36 4.52 0 4.31 8.86 10.1 16.41 13.32l-.67 4.43s1.94.34 4.58.81c0 0 13.48-8.79 16.47-9.9 3-1.1 3.45-1.57 4.25 3.32.51-.63 1.15-1.17 1.88-1.69 1.83-1.29 4.25-2.49 6.84-4.96 4.77-4.54 4.44-1.22 9.31 7.21 0 0 6.32-9.86 7.87-9.86.96 0 1.67 3.12 2.62 7.83.54 2.66 1.15 5.82 1.93 9.21.08.3.15.61.22.91 1.55 3.88 4.1 4.55 7.31 2.77 3.21-1.77 3.75-2.2 8.87-5.21l5.86-3.64 11.6-7.21s.44 1.38.78 3.89l.23-.03s2.69 1.55 4.41.44h.04c.16-4.13.69-7.21.69-7.21l.03.03.03.03c1.12.77 14.3 4.19 26.24 7.17 8.73 2.18 16.81 4.12 19.01 4.63 5.32 1.22 4.32-1.88 3.54-3.21-.19-.34-1.48-2.21-3.27-4.82l.4-.28 11.86-7.65c-11.42-5.71-20.4-9.67-26.59-12.71-3.65-1.79-6.35-3.26-7.99-4.57-1.79-1.43-2.91-2.65-3.1-3.55-.1-.44.03-.82.4-1.09Zm-37.15-36.15c-1.34 2.85-5.53 10.5-6.85 11.99-.89-.4-1.55-.63-1.55-.63-1.39-.23-2.78-.43-4.18-.62l.08-.58s5.65-9.92 7.42-12.7c1.77-2.78 3.38-4.8 5.21-3.66 2.33 1.44 1.08 3.65-.13 6.2Z" style="fill:#34362c;stroke-width:0"/><path class="cls-8" d="M47.24 116.79s7.75 5.76 7.54 10.42c-.14 2.89-1.82 5.19-3.07 7.54 0 0-3.69.1-9.45.43-5.76.34-10.53-5.31-10.53-5.31l15.52-13.08Z"/><path class="cls-2" d="M124.89 50.74c.59-7.32 6.58-32.79 21.21-45.35 2.14-1.4 6.28-1.33 6.06 2.44-.3 2.59-.59 3.32-.59 3.32l1.62.08c1.48-4.29 7.32-9.76 7.76-10.2s5.54-1.7 4.36 2.37c-1.93 4.65-6.29 10.19-6.29 10.19l.67 1.31h4.21v1.96h-3.18s6.28 2.71 7.54 10.32a6.64 6.64 0 0 1-1.25-.93c-2.62-2.37-4.73-6.61-8.39-2.77-4.21 4.44-11.75 22.41-11.75 22.41-1.4-4.99-1.66-5.11-2.54-7.33-.89-2.22-2.77-1.28-2.88 2.21-.16 4.9 1.48 5.82 1.48 5.82l-6.42-.83s.95-1.4 1.92-3.51c.85-1.86 4.58-13.14 5.54-15.15 1.96-4.1 3.11-5.46 3.62-6.42.52-.96 0-2 0-2h-3.84v-2h4.65v-4.87c0-.59-1.03-2.88-3.03-1.26s-18.1 26.29-18.84 39.29c-.56.35-.93.56-1.18.69"/><path class="cls-2" d="M125.23 50.6c-.18.09-.28.12-.32.13M167.01 26.26c.59 1.88 1.21 5.56 1.61 9.74.72 7.47.75 16.6-1.31 20.24-.1.17-.2.34-.3.49-.46.69-.95 1.36-1.45 2-5.65 7.06-14 10.18-14.92 10.42 0 0-16.61-8.8-18.41-21.43 2.9-1.07 4.27-1.94 4.27-1.94"/><path class="cls-2" d="M147.21 58.39s7.98 8.86 14.02 4.76M153.63 43.43s4.65.33 5.98 1.11M166.37 46.42h1.89M164.27 40.77l1.1 13.52s-2.88.11-3.21 0M161.72 51.74s-1.88 1.42-2.11 2.6M160.67 58.39s.72.55 2.16 0M154.58 34.54s4.28.38 6.09.91M165.38 36s1.94-.15 3.25 0M167.32 56.24s14.53 9.84 21.77 17.83c3.6 3.98 5.41 5.97 6.32 6.98l.92 1.02s3.77 13.41 9.67 18.3c.56.46 1.12.84 1.71 1.14 6.87 3.39 12.93 2.87 17.43 3.17 4.51.3 10.12.96 11.09 9.61.96 8.65 2.61 21.1 2.61 21.1 0 .14 0 .28-.05.41-.9 3.71-15.51 6.3-19.11 3.84l-11.86 7.65M161.83 143.72l.03.03.03.03c.72.76 7.63 7.92 10.36 8.81"/><path class="cls-2" d="M188.14 150.95c-11.95-2.98-25.12-6.4-26.24-7.17M207.43 147.55c1.8 2.6 3.08 4.48 3.27 4.82.78 1.33 1.78 4.44-3.54 3.21-2.21-.5-10.28-2.45-19.01-4.63M66.08 157.02s1.94.34 4.58.81c3.41.6 8.02 1.41 11.26 1.96 5.15.89 6.32-2.37 7.69-4.97.16-.31.34-.62.51-.9.24-1.1.67-1.94 1.25-2.67.51-.63 1.15-1.17 1.88-1.69 1.83-1.29 4.25-2.49 6.84-4.96 4.77-4.54 4.44-1.22 9.31 7.21 0 0 6.32-9.86 7.87-9.86.96 0 1.67 3.12 2.62 7.83.54 2.66 1.15 5.82 1.93 9.21.08.3.15.61.22.91 1.55 3.88 4.1 4.55 7.31 2.77 3.21-1.77 3.75-2.21 8.87-5.21l5.86-3.64 11.6-7.21M66.75 152.59l-.67 4.43"/><path class="cls-3" d="M95.56 114.94c-12.41 5.76-27.19 13.3-27.19 15.67s-1.62 21.98-1.62 21.98"/><path class="cls-2" d="M66.75 152.59c-7.54-3.22-16.41-9.01-16.41-13.32 0-1.63.6-3.09 1.36-4.52 1.25-2.35 2.93-4.65 3.07-7.54.22-4.65-7.54-10.42-7.54-10.42l-15.52 13.08s-11.96-1.34-15.29-1.34c3.01-4.11 10.71-11.83 18.41-19.18 9.31-8.86 18.61-17.21 19.71-18.06 2-1.55 4.88 1.55 9.31 4.21 4.43 2.67 5.31 3.99 5.31 3.99s10.86-5.32 12.64-5.55c6.65-9.75 11.75-18.4 11.52-21.72-.22-3.32 3.77-12.36 9.64-13.6.52-.11 1.06-.22 1.61-.33 5.63-1.11 12.37-2.13 14.9-3.24.89-.38 1.74-.96 2.52-1.57 1.65-1.31 2.87-2.75 2.87-2.75M89.62 154.82c4.39 3.31 23.02 6.35 32.22 4.17M70.66 157.83s13.48-8.79 16.47-9.9c3-1.1 3.45-1.57 4.25 3.32M93.27 149.57c4.28.24 13.15-1.09 16.14 2.24 0 0 3.47-3.06 10.5-2.03"/><path class="cls-3" d="M155.69 146.62s19.8-14.53 22.67-21.07"/><path class="cls-2" d="M144.09 153.82c1.17 2.47 6.46 13.62 6.55 14.61.1 1.11 4.1 1.55 4.76-2.88.67-4.43 1.55-10.42 1.22-13.74-.04-.46-.1-.9-.16-1.3-.34-2.51-.78-3.89-.78-3.89M161.83 143.72s-.53 3.07-.69 7.21c-.22 5.87.32 13.88 4.23 18.26 1.77-6.07 6.88-16.59 6.88-16.59s14.66-1.41 15.89-1.64h0M156.7 150.48s2.69 1.55 4.41.44M219.69 139.62c-11.42-5.71-20.4-9.67-26.59-12.71-3.65-1.79-6.35-3.26-7.99-4.57-1.79-1.43-2.91-2.65-3.1-3.55-.1-.44.03-.82.4-1.09.77-.61 2.6-.86 5.74-.68 7.82.44 11.36 3.54 19.12 6.65 7.67 3.06 30.97 11.92 31.52 12.12h0M124.89 50.74l.02-.01.32-.13.11-.05 6.88-2.84"/><path class="cls-3" d="m165.56 58.72.34 5.69s-11.89 8.57-13.72 9.53-8.29-3.47-11.91-6.21-14.84-16.35-14.84-16.35M165.9 64.41c4.47 5.84 17.21 22.57 17.87 28.89.67 6.31 1.61 17.27 0 20.95-.45 1.02-.9 2.22-1.36 3.45-.14.36-.27.73-.4 1.09-1.03 2.77-2.05 5.43-2.89 6.21-.16.16-.41.35-.76.56-2.1 1.24-8.17 3.09-26.18.88-2.95-.36-6.22-.83-9.84-1.43"/><path class="cls-3" d="M119.9 140.98s20.83-4.03 32.27-14.55M164.99 91.71c2.31 7.44 4.33 16.88 4.07 26.63M158.9 76.45s3.26 6.12 6.09 15.24M190.86 101.75l15.14-1.38M110.88 78.23c-.14 0-8.23-7.21-8.23-7.21l-3.77 7.21s11.19 6.65 16.29 10.08"/><path class="cls-3" d="M84.15 99.51s12.08-1.22 22.44-4.32c10.36-3.11 18.3-3.88 18.3-3.88s-8.83-14.07-11.04-19.39-8.92-12.85-8.92-12.85M122.18 54.1s4.41 15.7 4.96 21.47 1.38 16.15 1.38 16.15M125.93 106.6s-8.09 14.84-11.53 17.51M122.01 94.96s-20.14 28.35-35.1 31.47M124.89 91.3c1.21.15 2.42.3 3.63.44 1.39.17 2.78.36 4.17.55 1.4.19 2.79.39 4.18.62 0 0 .67.23 1.55.63 1.69.76 4.19 2.15 4.51 3.86.53 2.85-1.65 17.67-1.92 18.84M128.88 63.15s7.76 13.13 7.76 17.69M151.12 83.84s12.36 2.58 13.86 7.85v.02M151.12 111.84s-6.68 9.9-15.09 12.86c-8.41 2.95-24.92 5.51-29 14.58"/><path class="cls-3" d="M136.64 98.98c.99 0 1.13 23.05-.61 24.39"/><path class="cls-2" d="M35.02 109.41s10.79 2.73 12.23 7.38"/><path class="cls-3" d="M62.76 106.16c-.89.22-11.3 8.75-11.53 10.08 3.88-1.22 7.54.67 10.09 2.11"/><path class="cls-2" d="M31.72 129.87s4.77 5.65 10.53 5.31c5.76-.33 9.45-.43 9.45-.43"/><path class="cls-3" d="m206.96 146.84-13.02-18.71"/></g></svg>