<svg xmlns="http://www.w3.org/2000/svg" viewBox="0 0 270.3 208.4"><defs><style>.cls-1{stroke-miterlimit:10}.cls-1,.cls-3{stroke:#000}.cls-1,.cls-3,.cls-4{fill:none}.cls-10,.cls-11,.cls-13,.cls-15,.cls-5,.cls-6,.cls-8,.cls-9{stroke-width:0}.cls-6{fill:#f3edd7}.cls-3,.cls-4{stroke-linecap:round;stroke-linejoin:round}.cls-4{stroke-width:.5px}.cls-8{fill:#333}.cls-9{fill:#feffff}.cls-10{fill:#3c3a35}.cls-11{fill:#d2d296}.cls-13{fill:#de584d}.cls-4{stroke:#fff}.cls-15{fill:#fddabe}</style></defs><g id="_畳" data-name="畳"><path class="cls-6" d="M.2 173.8h3.6v5H.2zM270.1 201.4v6.6h-30.4l15.3-8.6c1 1.6 3.1 2.7 5.5 2.7s4.6-1.2 5.6-2.9l4 2.2Z"/><path class="cls-6" d="M270.1 190.8v10.6l-4-2.2c.4-.7.6-1.4.6-2.1 0-1.3-.6-2.5-1.6-3.4l5-2.8ZM270.1 178.8v12l-5 2.8c-1.1-1-2.8-1.6-4.6-1.6s-3.3.6-4.4 1.5L230 178.8h40.1ZM270.1 117.3v5.8H.2v-5.8h269.9zM266.1 173.8h4v5h-4z"/><path class="cls-6" d="M266.7 197c0 .8-.2 1.5-.6 2.1l-5.4-3 4.4-2.5c1 .9 1.6 2.1 1.6 3.4Z"/><path class="cls-6" d="m260.7 196.1 5.4 3c-1 1.7-3.1 2.9-5.6 2.9s-4.5-1.1-5.5-2.7l5.7-3.2Z"/><path class="cls-8" d="M254.8 173.8h11.3v5h-11.3z"/><path class="cls-6" d="m265.1 193.6-4.4 2.5-4.6-2.6c1.1-.9 2.7-1.5 4.4-1.5s3.5.6 4.6 1.6Z"/><path class="cls-6" d="m260.7 196.1-5.7 3.2c-.4-.7-.7-1.5-.7-2.3 0-1.4.7-2.6 1.8-3.5l4.6 2.6Z"/><path class="cls-6" d="m230 178.8 26.1 14.7c-1.1.9-1.8 2.1-1.8 3.5s.3 1.6.7 2.3l-15.3 8.6h-41.5l-15.6-8.8c.4-.7.6-1.4.6-2.1 0-1.3-.6-2.5-1.6-3.4l26.3-14.8H230Zm-6 18.2c0-2.8-2.2-5-5-5s-5 2.2-5 5 2.2 5 5 5 5-2.2 5-5Z"/><path class="cls-6" d="M254.8 178.8h-30.6v-5h30.6v5z"/><path class="cls-8" d="M212.9 173.8h11.3v5h-11.3zM219 192c2.8 0 5 2.2 5 5s-2.2 5-5 5-5-2.2-5-5 2.2-5 5-5Z"/><path class="cls-6" d="m207.8 178.8-26.3 14.8c-1.1-1-2.8-1.6-4.6-1.6s-3.3.6-4.4 1.5l-26.1-14.7h61.4ZM182.4 178.8v-5h30.5v5h-30.5zM198.1 207.9H156l15.3-8.6c1 1.6 3.1 2.7 5.5 2.7s4.6-1.2 5.6-2.9l15.6 8.8Z"/><path class="cls-6" d="M183.1 197c0 .8-.2 1.5-.6 2.1l-5.4-3 4.4-2.5c1 .9 1.6 2.1 1.6 3.4Z"/><path class="cls-6" d="m177.1 196.1 5.4 3c-1 1.7-3.1 2.9-5.6 2.9s-4.5-1.1-5.5-2.7l5.7-3.2Z"/><path class="cls-8" d="M171.1 173.8h11.3v5h-11.3z"/><path class="cls-6" d="M176.9 192c1.8 0 3.5.6 4.6 1.6l-4.4 2.5-4.6-2.6c1.1-.9 2.7-1.5 4.4-1.5Z"/><path class="cls-6" d="m177.1 196.1-5.7 3.2c-.4-.7-.7-1.5-.7-2.3 0-1.4.7-2.6 1.8-3.5l4.6 2.6Z"/><path class="cls-6" d="m146.4 178.8 26.1 14.7c-1.1.9-1.8 2.1-1.8 3.5s.3 1.6.7 2.3l-15.3 8.6h-41.5L99 199.1c.4-.7.6-1.4.6-2.1 0-1.3-.6-2.5-1.6-3.4l26.3-14.8h22.1Zm-7 18.2c0-2.8-2.2-5-5-5s-5 2.2-5 5 2.2 5 5 5 5-2.2 5-5Z"/><path class="cls-6" d="M171.1 178.8h-30.5v-5h30.5v5z"/><path class="cls-8" d="M129.3 173.8h11.3v5h-11.3zM134.3 192c2.8 0 5 2.2 5 5s-2.2 5-5 5-5-2.2-5-5 2.2-5 5-5Z"/><path class="cls-6" d="m124.2 178.8-26.3 14.8c-1.1-1-2.8-1.6-4.6-1.6s-3.3.6-4.4 1.5l-26.1-14.7h61.4ZM129.3 178.8H98.8v-5h30.5v5zM114.6 207.9H72.5l15.3-8.6c1 1.6 3.1 2.7 5.5 2.7s4.6-1.2 5.6-2.9l15.6 8.8Z"/><path class="cls-6" d="M99.5 197c0 .8-.2 1.5-.6 2.1l-5.4-3 4.4-2.5c1 .9 1.6 2.1 1.6 3.4Z"/><path class="cls-6" d="m93.5 196.1 5.4 3c-1 1.7-3.1 2.9-5.6 2.9s-4.5-1.1-5.5-2.7l5.7-3.2Z"/><path class="cls-8" d="M87.5 173.8h11.3v5H87.5z"/><path class="cls-6" d="M93.3 192c1.8 0 3.5.6 4.6 1.6l-4.4 2.5-4.6-2.6c1.1-.9 2.7-1.5 4.4-1.5Z"/><path class="cls-6" d="m93.5 196.1-5.7 3.2c-.4-.7-.7-1.5-.7-2.3 0-1.4.7-2.6 1.8-3.5l4.6 2.6Z"/><path class="cls-6" d="m62.8 178.8 26.1 14.7c-1.1.9-1.8 2.1-1.8 3.5s.3 1.6.7 2.3l-15.3 8.6H30.8l-15.6-8.8c.4-.7.6-1.4.6-2.1 0-1.3-.6-2.5-1.6-3.4l26.3-14.8h22.3ZM54.3 197c0-2.8-2.2-5-5-5s-5 2.2-5 5 2.2 5 5 5 5-2.2 5-5Z"/><path class="cls-6" d="M87.5 178.8H57v-5h30.5v5z"/><path class="cls-8" d="M45.7 173.8H57v5H45.7zM49.2 192c2.8 0 5 2.2 5 5s-2.2 5-5 5-5-2.2-5-5 2.2-5 5-5Z"/><path class="cls-6" d="M45.7 178.8H15.2v-5h30.5v5zM30.8 207.9H.2v-6.5l3.8-2.1c1 1.6 3.1 2.7 5.5 2.7s4.6-1.2 5.6-2.9l15.6 8.8ZM15.7 197c0 .8-.2 1.5-.6 2.1l-5.4-3 4.4-2.5c1 .9 1.6 2.1 1.6 3.4Z"/><path class="cls-8" d="M3.9 173.8h11.3v5H3.9z"/><path class="cls-6" d="m9.7 196.1 5.4 3c-1 1.7-3.1 2.9-5.6 2.9S5 200.9 4 199.3l5.7-3.2ZM9.5 192c1.8 0 3.5.6 4.6 1.6l-4.4 2.5-4.6-2.6c1.1-.9 2.7-1.5 4.4-1.5Z"/><path class="cls-6" d="M9.7 196.1 4 199.3c-.4-.7-.7-1.5-.7-2.3 0-1.4.7-2.6 1.8-3.5l4.6 2.6Z"/><path class="cls-6" d="m.2 190.8 4.8 2.7c-1.1.9-1.8 2.1-1.8 3.5s.3 1.6.7 2.3l-3.8 2.1v-10.6Z"/><path class="cls-11" d="M212.9 173.8H.2v-50.7h269.9v50.7h-57.2z"/><path class="cls-6" d="M.2 178.8h40.2l-26.3 14.8c-1.1-1-2.8-1.6-4.6-1.6s-3.3.6-4.4 1.5l-4.8-2.7v-11.9Z"/><path class="cls-1" d="M270.1 207.9H.2M.2 117.3h269.9M.2 123.1h269.9M266.1 173.8h4M224.2 173.8h30.6M182.4 173.8h30.5M140.6 173.8h30.5M98.8 173.8h30.5M57 173.8h30.5M15.2 173.8h30.5M.2 173.8h3.7M266.1 178.8h4M224.2 178.8h30.6M182.4 178.8h30.5M140.6 178.8h30.5M98.8 178.8h30.5M57 178.8h30.5M15.2 178.8h30.5M.2 178.8h3.7M72.4 207.9l15.4-8.6 5.7-3.2 4.4-2.5 26.3-14.8"/><path class="cls-1" d="m114.6 207.9-15.7-8.8-5.4-3-4.6-2.6-26.1-14.7M139.3 197c0 2.8-2.2 5-5 5s-5-2.2-5-5 2.2-5 5-5 5 2.2 5 5ZM224 197c0 2.8-2.2 5-5 5s-5-2.2-5-5 2.2-5 5-5 5 2.2 5 5Z"/><path class="cls-1" d="M97.9 193.6c1 .9 1.6 2.1 1.6 3.4s-.2 1.5-.6 2.1c-1 1.7-3.1 2.9-5.6 2.9s-4.5-1.1-5.5-2.7c-.4-.7-.7-1.5-.7-2.3 0-1.4.7-2.6 1.8-3.5 1.1-.9 2.7-1.5 4.4-1.5s3.5.6 4.6 1.6ZM.2 201.4l3.8-2.1 5.7-3.2 4.4-2.5 26.3-14.8"/><path class="cls-1" d="m30.8 207.9-15.7-8.8-5.4-3-4.6-2.6-4.9-2.7"/><path class="cls-1" d="M14.1 193.6c1 .9 1.6 2.1 1.6 3.4s-.2 1.5-.6 2.1c-1 1.7-3.1 2.9-5.6 2.9S5 200.9 4 199.3c-.4-.7-.7-1.5-.7-2.3 0-1.4.7-2.6 1.8-3.5 1.1-.9 2.7-1.5 4.4-1.5s3.5.6 4.6 1.6ZM156 207.9l15.4-8.6 5.7-3.2 4.4-2.5 26.3-14.8"/><path class="cls-1" d="m198.1 207.9-15.6-8.8-5.4-3-4.7-2.6-26-14.7"/><path class="cls-1" d="M181.5 193.6c1 .9 1.6 2.1 1.6 3.4s-.2 1.5-.6 2.1c-1 1.7-3.1 2.9-5.6 2.9s-4.5-1.1-5.5-2.7c-.4-.7-.7-1.5-.7-2.3 0-1.4.7-2.6 1.8-3.5 1.1-.9 2.7-1.5 4.4-1.5s3.5.6 4.6 1.6ZM239.6 207.9l15.4-8.6 5.7-3.2 4.4-2.5 5-2.8"/><path class="cls-1" d="m270.1 201.4-4-2.3-5.4-3-4.7-2.6-26-14.7"/><path class="cls-1" d="M265.1 193.6c1 .9 1.6 2.1 1.6 3.4s-.2 1.5-.6 2.1c-1 1.7-3.1 2.9-5.6 2.9s-4.5-1.1-5.5-2.7c-.4-.7-.7-1.5-.7-2.3 0-1.4.7-2.6 1.8-3.5 1.1-.9 2.7-1.5 4.4-1.5s3.5.6 4.6 1.6ZM54.2 197c0 2.8-2.2 5-5 5s-5-2.2-5-5 2.2-5 5-5 5 2.2 5 5ZM3.9 173.8h11.3v5H3.9zM45.7 173.8H57v5H45.7zM87.5 173.8h11.3v5H87.5zM129.3 173.8h11.3v5h-11.3zM171.1 173.8h11.3v5h-11.3zM212.9 173.8h11.3v5h-11.3zM254.8 173.8h11.3v5h-11.3z"/><path class="cls-6" d="M.2 173.8h3.6v5H.2zM270.1 201.4v6.6h-30.4l15.3-8.6c1 1.6 3.1 2.7 5.5 2.7s4.6-1.2 5.6-2.9l4 2.2Z"/><path class="cls-6" d="M270.1 190.8v10.6l-4-2.2c.4-.7.6-1.4.6-2.1 0-1.3-.6-2.5-1.6-3.4l5-2.8ZM270.1 178.8v12l-5 2.8c-1.1-1-2.8-1.6-4.6-1.6s-3.3.6-4.4 1.5L230 178.8h40.1ZM270.1 117.3v5.8H.2v-5.8h269.9zM266.1 173.8h4v5h-4z"/><path class="cls-6" d="M266.7 197c0 .8-.2 1.5-.6 2.1l-5.4-3 4.4-2.5c1 .9 1.6 2.1 1.6 3.4Z"/><path class="cls-6" d="m260.7 196.1 5.4 3c-1 1.7-3.1 2.9-5.6 2.9s-4.5-1.1-5.5-2.7l5.7-3.2Z"/><path class="cls-8" d="M254.8 173.8h11.3v5h-11.3z"/><path class="cls-6" d="m265.1 193.6-4.4 2.5-4.6-2.6c1.1-.9 2.7-1.5 4.4-1.5s3.5.6 4.6 1.6Z"/><path class="cls-6" d="m260.7 196.1-5.7 3.2c-.4-.7-.7-1.5-.7-2.3 0-1.4.7-2.6 1.8-3.5l4.6 2.6Z"/><path class="cls-6" d="m230 178.8 26.1 14.7c-1.1.9-1.8 2.1-1.8 3.5s.3 1.6.7 2.3l-15.3 8.6h-41.5l-15.6-8.8c.4-.7.6-1.4.6-2.1 0-1.3-.6-2.5-1.6-3.4l26.3-14.8H230Zm-6 18.2c0-2.8-2.2-5-5-5s-5 2.2-5 5 2.2 5 5 5 5-2.2 5-5Z"/><path class="cls-6" d="M254.8 178.8h-30.6v-5h30.6v5z"/><path class="cls-8" d="M212.9 173.8h11.3v5h-11.3zM219 192c2.8 0 5 2.2 5 5s-2.2 5-5 5-5-2.2-5-5 2.2-5 5-5Z"/><path class="cls-6" d="m207.8 178.8-26.3 14.8c-1.1-1-2.8-1.6-4.6-1.6s-3.3.6-4.4 1.5l-26.1-14.7h61.4ZM182.4 178.8v-5h30.5v5h-30.5zM198.1 207.9H156l15.3-8.6c1 1.6 3.1 2.7 5.5 2.7s4.6-1.2 5.6-2.9l15.6 8.8Z"/><path class="cls-6" d="M183.1 197c0 .8-.2 1.5-.6 2.1l-5.4-3 4.4-2.5c1 .9 1.6 2.1 1.6 3.4Z"/><path class="cls-6" d="m177.1 196.1 5.4 3c-1 1.7-3.1 2.9-5.6 2.9s-4.5-1.1-5.5-2.7l5.7-3.2Z"/><path class="cls-8" d="M171.1 173.8h11.3v5h-11.3z"/><path class="cls-6" d="M176.9 192c1.8 0 3.5.6 4.6 1.6l-4.4 2.5-4.6-2.6c1.1-.9 2.7-1.5 4.4-1.5Z"/><path class="cls-6" d="m177.1 196.1-5.7 3.2c-.4-.7-.7-1.5-.7-2.3 0-1.4.7-2.6 1.8-3.5l4.6 2.6Z"/><path class="cls-6" d="m146.4 178.8 26.1 14.7c-1.1.9-1.8 2.1-1.8 3.5s.3 1.6.7 2.3l-15.3 8.6h-41.5L99 199.1c.4-.7.6-1.4.6-2.1 0-1.3-.6-2.5-1.6-3.4l26.3-14.8h22.1Zm-7 18.2c0-2.8-2.2-5-5-5s-5 2.2-5 5 2.2 5 5 5 5-2.2 5-5Z"/><path class="cls-6" d="M171.1 178.8h-30.5v-5h30.5v5z"/><path class="cls-8" d="M129.3 173.8h11.3v5h-11.3zM134.3 192c2.8 0 5 2.2 5 5s-2.2 5-5 5-5-2.2-5-5 2.2-5 5-5Z"/><path class="cls-6" d="m124.2 178.8-26.3 14.8c-1.1-1-2.8-1.6-4.6-1.6s-3.3.6-4.4 1.5l-26.1-14.7h61.4ZM129.3 178.8H98.8v-5h30.5v5zM114.6 207.9H72.5l15.3-8.6c1 1.6 3.1 2.7 5.5 2.7s4.6-1.2 5.6-2.9l15.6 8.8Z"/><path class="cls-6" d="M99.5 197c0 .8-.2 1.5-.6 2.1l-5.4-3 4.4-2.5c1 .9 1.6 2.1 1.6 3.4Z"/><path class="cls-6" d="m93.5 196.1 5.4 3c-1 1.7-3.1 2.9-5.6 2.9s-4.5-1.1-5.5-2.7l5.7-3.2Z"/><path class="cls-8" d="M87.5 173.8h11.3v5H87.5z"/><path class="cls-6" d="M93.3 192c1.8 0 3.5.6 4.6 1.6l-4.4 2.5-4.6-2.6c1.1-.9 2.7-1.5 4.4-1.5Z"/><path class="cls-6" d="m93.5 196.1-5.7 3.2c-.4-.7-.7-1.5-.7-2.3 0-1.4.7-2.6 1.8-3.5l4.6 2.6Z"/><path class="cls-6" d="m62.8 178.8 26.1 14.7c-1.1.9-1.8 2.1-1.8 3.5s.3 1.6.7 2.3l-15.3 8.6H30.8l-15.6-8.8c.4-.7.6-1.4.6-2.1 0-1.3-.6-2.5-1.6-3.4l26.3-14.8h22.3ZM54.3 197c0-2.8-2.2-5-5-5s-5 2.2-5 5 2.2 5 5 5 5-2.2 5-5Z"/><path class="cls-6" d="M87.5 178.8H57v-5h30.5v5z"/><path class="cls-8" d="M45.7 173.8H57v5H45.7zM49.2 192c2.8 0 5 2.2 5 5s-2.2 5-5 5-5-2.2-5-5 2.2-5 5-5Z"/><path class="cls-6" d="M45.7 178.8H15.2v-5h30.5v5zM30.8 207.9H.2v-6.5l3.8-2.1c1 1.6 3.1 2.7 5.5 2.7s4.6-1.2 5.6-2.9l15.6 8.8ZM15.7 197c0 .8-.2 1.5-.6 2.1l-5.4-3 4.4-2.5c1 .9 1.6 2.1 1.6 3.4Z"/><path class="cls-8" d="M3.9 173.8h11.3v5H3.9z"/><path class="cls-6" d="m9.7 196.1 5.4 3c-1 1.7-3.1 2.9-5.6 2.9S5 200.9 4 199.3l5.7-3.2ZM9.5 192c1.8 0 3.5.6 4.6 1.6l-4.4 2.5-4.6-2.6c1.1-.9 2.7-1.5 4.4-1.5Z"/><path class="cls-6" d="M9.7 196.1 4 199.3c-.4-.7-.7-1.5-.7-2.3 0-1.4.7-2.6 1.8-3.5l4.6 2.6Z"/><path class="cls-6" d="m.2 190.8 4.8 2.7c-1.1.9-1.8 2.1-1.8 3.5s.3 1.6.7 2.3l-3.8 2.1v-10.6Z"/><path class="cls-11" d="M212.9 173.8H.2v-50.7h269.9v50.7h-57.2z"/><path class="cls-6" d="M.2 178.8h40.2l-26.3 14.8c-1.1-1-2.8-1.6-4.6-1.6s-3.3.6-4.4 1.5l-4.8-2.7v-11.9Z"/><path class="cls-1" d="M270.1 207.9H.2M.2 117.3h269.9M.2 123.1h269.9M266.1 173.8h4M224.2 173.8h30.6M182.4 173.8h30.5M140.6 173.8h30.5M98.8 173.8h30.5M57 173.8h30.5M15.2 173.8h30.5M.2 173.8h3.7M266.1 178.8h4M224.2 178.8h30.6M182.4 178.8h30.5M140.6 178.8h30.5M98.8 178.8h30.5M57 178.8h30.5M15.2 178.8h30.5M.2 178.8h3.7M72.4 207.9l15.4-8.6 5.7-3.2 4.4-2.5 26.3-14.8"/><path class="cls-1" d="m114.6 207.9-15.7-8.8-5.4-3-4.6-2.6-26.1-14.7M139.3 197c0 2.8-2.2 5-5 5s-5-2.2-5-5 2.2-5 5-5 5 2.2 5 5ZM224 197c0 2.8-2.2 5-5 5s-5-2.2-5-5 2.2-5 5-5 5 2.2 5 5Z"/><path class="cls-1" d="M97.9 193.6c1 .9 1.6 2.1 1.6 3.4s-.2 1.5-.6 2.1c-1 1.7-3.1 2.9-5.6 2.9s-4.5-1.1-5.5-2.7c-.4-.7-.7-1.5-.7-2.3 0-1.4.7-2.6 1.8-3.5 1.1-.9 2.7-1.5 4.4-1.5s3.5.6 4.6 1.6ZM.2 201.4l3.8-2.1 5.7-3.2 4.4-2.5 26.3-14.8"/><path class="cls-1" d="m30.8 207.9-15.7-8.8-5.4-3-4.6-2.6-4.9-2.7"/><path class="cls-1" d="M14.1 193.6c1 .9 1.6 2.1 1.6 3.4s-.2 1.5-.6 2.1c-1 1.7-3.1 2.9-5.6 2.9S5 200.9 4 199.3c-.4-.7-.7-1.5-.7-2.3 0-1.4.7-2.6 1.8-3.5 1.1-.9 2.7-1.5 4.4-1.5s3.5.6 4.6 1.6ZM156 207.9l15.4-8.6 5.7-3.2 4.4-2.5 26.3-14.8"/><path class="cls-1" d="m198.1 207.9-15.6-8.8-5.4-3-4.7-2.6-26-14.7"/><path class="cls-1" d="M181.5 193.6c1 .9 1.6 2.1 1.6 3.4s-.2 1.5-.6 2.1c-1 1.7-3.1 2.9-5.6 2.9s-4.5-1.1-5.5-2.7c-.4-.7-.7-1.5-.7-2.3 0-1.4.7-2.6 1.8-3.5 1.1-.9 2.7-1.5 4.4-1.5s3.5.6 4.6 1.6ZM239.6 207.9l15.4-8.6 5.7-3.2 4.4-2.5 5-2.8"/><path class="cls-1" d="m270.1 201.4-4-2.3-5.4-3-4.7-2.6-26-14.7"/><path class="cls-1" d="M265.1 193.6c1 .9 1.6 2.1 1.6 3.4s-.2 1.5-.6 2.1c-1 1.7-3.1 2.9-5.6 2.9s-4.5-1.1-5.5-2.7c-.4-.7-.7-1.5-.7-2.3 0-1.4.7-2.6 1.8-3.5 1.1-.9 2.7-1.5 4.4-1.5s3.5.6 4.6 1.6ZM54.2 197c0 2.8-2.2 5-5 5s-5-2.2-5-5 2.2-5 5-5 5 2.2 5 5ZM3.9 173.8h11.3v5H3.9zM45.7 173.8H57v5H45.7zM87.5 173.8h11.3v5H87.5zM129.3 173.8h11.3v5h-11.3zM171.1 173.8h11.3v5h-11.3zM212.9 173.8h11.3v5h-11.3zM254.8 173.8h11.3v5h-11.3z"/></g><g id="_レイヤー_2" data-name="レイヤー 2"><path class="cls-10" d="M205.7 95c.2.4.5.9.7 1.3 0 0 9.7 7.5 16.8 12.2s5 5.4 5.3 9c.3 3.6-.4 15.5-1.5 28.8-.9.9-4.1 2.3-7.7 3.6.4-.5.6-1.4.9-2.6.7-3.4-8.1-18.2-14.6-21.2s-16.1-19.1-20.2-26.3c-2.4-4.2-6.5-14.5-9.7-22.5-1.4-3.6-2.8-6.7-3.7-8.6 0 0 4.7-2.8 11.5-2.4h3.9c2.8 0 6.3 1.3 7.6 5 1.3 3.6 3.5 10.9 10.6 23.8Z"/><path class="cls-13" d="M205.7 126c6.5 3 15.3 17.7 14.6 21.2-.3 1.3-.5 2.1-.9 2.6-.9.3-1.7.6-2.6.9h-1.1c-3.2-.1-7.1-6.2-12.3-7.3-5.2-1.1-11.4.4-15-8.2-3.5-8.6-13.3-36.7-15-42.6-1.7-5.9-1.9-6-4.1-9.2-.6-.8-1.2-3.4-1.8-4.9 3.3 0 6-.4 8.1-1.3 3.3 8 7.3 18.2 9.7 22.5 4.1 7.2 13.7 23.4 20.2 26.3Z"/><path class="cls-10" d="M215.8 150.8h1.1c-1.8.6-3.5 1.1-4.9 1.6v8.3s-7.4-.9-21.9-3.7c0 0-1.2.2-3.7.5-.4-.2-8.4-3.6-13.4-6.7-5.1-3.2-15.5-6.6-19.5-5.7-4 .9-15.3 7.1-26.3 13.6 0 0-6.8 3.1-11.3 5.8-4.4 2.7-5.9 1.9-9.9-6.1 0 0-1.8-8.9-2.7-11.2-.9-2.4-2.8-5.3-4.8-4.6-.8.3-3.5 2.2-6.3 4.2-1.7 0-13.6 1.2-19.3 2.7-5.8 1.5-37.4-.6-37.4-.6s3.8-5.2 8.1-12.3c0 0 2.2-1.2 4.3-3.8 2.1-2.7 8-6.8 9.8-11.8.7-2.1 2.3-3.9 4.1-5.6.5-.4 1-.9 1.5-1.3 2.3-1.9 4.9-3.7 7.1-5.6 4.4-3.9 11.2-4.6 18.6-7.3 0-.7.4-2.1 1.1-4.1 3.1-9.2 12.1-29.6 12.1-29.6s8.9-15.9 10.9-17.5 4.2-1.3 8.1-1.6c3.8-.2 12.8-.7 14.7-1.3 3.7 10.6 10.8 24.8 13.3 25.4 2.4.7 6.1 1.2 6.1 1.2h.7c0 .8.8 1.2 1.9 1.1h1s-1.6.4-1.4 1.6c0 .7.9 1.2 2 1.1h.5l2.5 51.4c0 .8.6 1.4 1.4 1.5h1.8c.8 0 1.3-.7 1.3-1.5l.8-50.4c.6 1.5 1.3 4.1 1.8 4.9 2.2 3.2 2.4 3.3 4.1 9.2 1.7 5.9 11.4 33.9 15 42.6 3.6 8.6 9.8 7.1 15 8.2 5.2 1.1 9.1 7.2 12.3 7.3Z"/><path class="cls-15" d="M167.6 61.4c-1.4 2.2-4.3 3.2-7.8 3.2s-4.7-.4-7.1-1.3c-5.1-1.9-6.8-18.6-6.8-18.6 1 1.2 5.1-.5 7.2-1.8l.6-.3c2.1-1.2 4.8-2.4 3.9-2.9s-.7-2.5-.6-3.8c.1-1.2.6-3 1.1-3.9 0-.1.1-.3.2-.3 1.1-1.4 2.3-1 3.3.4s.5 1.8 1.7 4.5c.7-.4 6.8-11.1 8.8-14.9 1 .4 6.5 1.9 8.6 2 1.8 0 4.3.3 5-.8.2.3 3.7 5.2 3.7 7s-2.8 13-5.3 17.3c-2 3.4-5.1 7.9-7.7 10.6-.7.7-1.4 1.3-2 1.7-1.7 1.1-4.3 2-6.7 2Z"/><path class="cls-9" d="M186.3 157.5c-2.9.5-7.4 1.2-13.7 2.4-.6 1.8-5.3 10.5-5.3 10.5s-2.2-1.8-6.4-10.6c-12.4 1.2-33.8-1-33.8-1 11-6.5 22.3-12.7 26.3-13.6 4-.9 14.4 2.5 19.5 5.7 5 3.1 13.1 6.5 13.4 6.7Z"/><path class="cls-8" d="M185.7 22.8c-.8 1.1-3.2.9-5 .8-2.1 0-7.6-1.6-8.6-2-2 3.8-8.1 14.4-8.8 14.9-1.2-2.7-.7-3.1-1.7-4.5s-2.1-1.8-3.3-.4c0 0-.1.2-.2.3l-1.7-.6c3.8-7 8.8-16.9 8.8-16.9v-2.3h1.4s3.1-2.2 3.2-3.3c.1-1-.8-3.1-2.9-2.4-1.5.5-5 2.9-7.9 5.5-1.3 1.1-2.4 2.2-3.3 3.3-3 3.6-13.6 18.1-14 27-.4.6-1.4 1.3-1.5 1.4 0-.4 1.7-8.7 3-12.7 1.3-4.1 9.7-18.3 14.4-22.4 4.7-4.1 9.1-6.6 11.5-7.4 2.4-.7 6.6.4 5.7 3.4 2.3-1.4 7.3-3.8 8.8-4.2 1.5-.4 3.5.8 2.5 2.2-1 1.4-7 6.6-7 6.6l-.2 1.4h4.6v2.1H179V14c3.8.4 7.1 5.6 7.1 7.6s0 .6-.2.8Z"/><path class="cls-10" d="M183.5 66.3c-6.8-.4-11.5 2.4-11.5 2.4-.6-1.2-1-1.9-1.2-2.1-1.5-1-2.4.3-2.9 1.3l-1.1-.2c-1.3-.6-4.3-1-6.9-1v-2c3.4 0 6.4-1.1 7.7-3.2 2.4 0 5-.8 6.7-2 .6-.4 1.3-1 2-1.7 0 0 1.9-.2 3.9-.4 2-.1 2.6 3.1 3.3 8.9Z"/><path class="cls-13" d="m175.7 77.3-3.7-8.6c.9 1.9 2.2 5.1 3.7 8.6Z"/><path class="cls-15" d="m167.9 67.9 4.2.8 3.7 8.6c-2.1 1-4.8 1.4-8.1 1.3h-.4c-.8.1-3.9-.3-4.7-.5 0 0-1.6-.4-2.7-.5h-.5c-1.1 0-1.9-.3-2-1.1-.2-1.2 1.4-1.6 1.4-1.6h-1c-1.1 0-1.9-.3-1.9-1 0-1.1 1.9-1.7 1.9-1.7h-1.1c-1.1 0-1.5 0-1.7-.6-.2-.9.6-1.6.7-1.6-.8.2-2 .5-2.6-.3-1.2-1.4 1.8-2.3 4.2-2.8.7-.2 1.7-.2 2.6-.2 2.5 0 5.5.5 6.9 1l1.1.2Z"/><path class="cls-13" d="m172.1 68.7-4.2-.8c.5-1 1.4-2.3 2.9-1.3.2.2.7.9 1.2 2.1Z"/><path d="m167.6 78.6-.8 50.4c0 .8-.6 1.4-1.3 1.5-.6 0-1.3.1-1.8 0-.8-.1-1.3-.7-1.4-1.5l-2.5-51.4c1.2 0 2.7.5 2.7.5.8.2 3.9.6 4.7.5h.4Z" style="fill:#ffe4c7;stroke-width:0"/><path class="cls-8" d="M159.1 12.3h6.1v2.3h-6.1z"/><path class="cls-10" d="M159.9 64.7v2c-1 0-1.9 0-2.6.2-2.4.5-5.4 1.4-4.2 2.8.6.7 1.8.5 2.6.3 0 0-1 .7-.7 1.6.2.6.6.7 1.7.6h1.1s-1.9.6-1.9 1.7h-.7s-3.6-.6-6.1-1.2c-2.4-.7-9.5-14.9-13.3-25.4 1.9-.5 2.6-2.7 3.9-3.2.2 0 .4 0 .6-.1 1.6-.2 4.5.3 6.6.1-.3.2-.6.4-.9.7 0 0 1.7 16.7 6.8 18.6 2.4.9 4.9 1.3 7.1 1.3Z"/><path class="cls-8" d="m156.4 31.4 1.7.6c-.5.9-.9 2.8-1.1 3.9-.1 1.3-.3 3.4.6 3.8s-1.9 1.7-3.9 2.8l-.6.3c-2.1 1.3-6.1 3-7.2 1.8.3-.2.6-.5.9-.7 2.6-2 4.3-3.1 7.6-9.1.6-1 1.2-2.2 1.9-3.5Z"/><path class="cls-9" d="M92.2 146.8c2.8-2.1 5.5-3.9 6.3-4.2 2-.7 3.9 2.2 4.8 4.6.9 2.4 2.7 11.2 2.7 11.2-3.8 2.2-11.7-1.5-21.9-5.5 0 0 4.2-3.2 8.1-6.1ZM90 97.2c-.7 1.9-1.1 3.4-1.1 4.1-7.4 2.7-14.2 3.4-18.6 7.3 0 0-5.4-3.6-7.6-9.5-2.2-5.9-1.4-21.4-1.4-21.4 1.3-2.5 5.3-3 5.3-3s2.2-1.9 8.7-4.5 16.5-1.9 26.7-2.6c0 0-9 20.4-12.1 29.6Z"/><path d="M92.2 146.8c-3.9 2.9-8.1 6.1-8.1 6.1S68 160 64.9 161c-3.1 1-14.5-5-29.4-12.1 0 0 31.6 2.1 37.4.6 5.8-1.5 17.7-2.7 19.3-2.7Z" style="fill:#ee574c;stroke-width:0"/><path d="M62.7 99c2.2 5.9 7.6 9.5 7.6 9.5-2.1 1.9-4.7 3.7-7.1 5.6 0 0-1.2-1.3-3-3.6s-6.4-19.4-6.4-19.4-1.3-11.1 0-14.2c1.7-4.1 12.9-2.4 12.9-2.4s-4 .5-5.3 3c0 0-.8 15.5 1.4 21.4Z" style="fill:#adc7d4;stroke-width:0"/><path class="cls-9" d="M63.3 114.1c-.5.4-1 .9-1.5 1.3-11.2 2.9-25.9-13.5-25.9-13.5 2.1-3.1 12.4-10.3 17.9-10.8 0 0 4.6 17 6.4 19.4 1.8 2.3 3 3.6 3 3.6Z"/><path class="cls-9" d="M35.9 102s14.7 16.4 25.9 13.5c-1.9 1.7-3.4 3.5-4.1 5.6-1.8 5-7.7 9.2-9.8 11.8-2.1 2.7-4.3 3.8-4.3 3.8-3.4.7-19.7-4-30.9-8.3 3-.1 11.5-9.6 15.2-13.3s5.9-10.1 8-13.2Z"/><path class="cls-3" d="m153.6 42.6-.6.3c-2.1 1.3-6.1 3-7.2 1.8.3-.2.6-.5.9-.7 2.6-2 4.3-3.1 7.6-9.1.6-1 1.2-2.2 1.9-3.5 3.8-7 8.8-16.9 8.8-16.9h-6.1v-2.3h7.5s3.1-2.2 3.2-3.3c.1-1-.8-3.1-2.9-2.4-1.5.5-5 2.9-7.9 5.5-1.3 1.1-2.4 2.2-3.3 3.3-3 3.6-13.6 18.1-14 27-.4.6-1.4 1.3-1.5 1.4"/><path class="cls-3" d="M140.2 43.9h0c0-.4 1.7-8.7 3-12.7 1.3-4.1 9.7-18.3 14.4-22.4 4.7-4.1 9.1-6.6 11.5-7.4 2.4-.7 6.6.4 5.7 3.4 2.3-1.4 7.3-3.8 8.8-4.2 1.5-.4 3.5.8 2.5 2.2-1 1.4-7 6.6-7 6.6l-.2 1.4h4.6v2.1H179v1.4c3.8.4 7.1 5.6 7.1 7.6s0 .6-.2.8c-.8 1.1-3.2.9-5 .8-2.1 0-7.6-1.6-8.6-2-2 3.8-8.1 14.4-8.8 14.9-1.2-2.7-.7-3.1-1.7-4.5s-2.1-1.8-3.3-.4c0 0-.1.2-.2.3-.5.9-.9 2.8-1.1 3.9-.1 1.3-.3 3.4.6 3.8s-1.9 1.7-3.9 2.8"/><path class="cls-3" d="M185.7 22.8s0 0 0 0c.2.3 3.7 5.2 3.7 7s-2.8 13-5.3 17.3c-2 3.4-5.1 7.9-7.7 10.6-.7.7-1.4 1.3-2 1.7-1.7 1.1-4.3 2-6.7 2-1.6 0-3.1-.5-4.3-1.5"/><path class="cls-3" d="M169.5 52.8c.1.3 2.8 3.1 5.2 1.9M180.2 44.4 179 50h-2.7M173.9 40h2.4M183.5 41.4h2.2M169.5 33.4s5.7-.1 6.9 0M183.5 35.1s3-.5 3.9 0M167.6 78.6h-.4c-.8.1-3.9-.3-4.7-.5 0 0-1.6-.4-2.7-.5h-.5c-1.1 0-1.9-.3-2-1.1-.2-1.2 1.4-1.6 1.4-1.6M155.6 69.9c-.8.2-2 .5-2.6-.3-1.2-1.4 1.8-2.3 4.2-2.8.7-.2 1.7-.2 2.6-.2 2.5 0 5.5.5 6.9 1l1.1.2 4.2.8 3.7 8.6"/><path class="cls-3" d="M162.7 70s-2.1-.3-2.9-.6c-.8-.3-3.5.2-3.5.2s-.3.1-.7.3M155.6 69.9h0s-1 .7-.7 1.7c.2.6.6.7 1.7.6h1.1c1.1.1 2.2.4 2.2.4"/><path class="cls-3" d="M157.6 72.2s-1.9.6-1.9 1.7h0c0 .8.8 1.1 1.9 1.1h1c1.1.1 2.2.4 2.2.4M167.9 67.9s0 0 0 0c.5-1 1.4-2.3 2.9-1.3.2.2.7.9 1.2 2.1.9 1.9 2.2 5.1 3.7 8.6 3.3 8 7.3 18.2 9.7 22.5 4.1 7.2 13.7 23.4 20.2 26.3 6.5 3 15.3 17.7 14.6 21.2-.3 1.3-.5 2.1-.9 2.6-.5.7-1.3.9-2.6.9h-1.1c-3.2-.1-7.1-6.2-12.3-7.3-5.2-1.1-11.4.4-15-8.2-3.5-8.6-13.3-36.7-15-42.6-1.7-5.9-1.9-6-4.1-9.2-.6-.8-1.2-3.4-1.8-4.9"/><path class="cls-3" d="m159.8 77.6 2.5 51.4c0 .8.6 1.4 1.4 1.5h1.8c.8 0 1.3-.7 1.3-1.5l.8-50.4M153.6 42.6h0c0 .3.2 7.4 1 8.6M145.9 44.7s1.7 16.7 6.8 18.6c2.4.9 4.9 1.3 7.1 1.3 3.5 0 6.4-1.1 7.8-3.2M205.7 95c-7.1-12.9-9.3-20.2-10.6-23.8-1.3-3.7-4.8-5.1-7.6-5h-3.9c-.7-5.8-1.3-9.1-3.3-8.9-2 .1-3.9.4-3.9.4M186.3 157.5c2.5-.4 3.7-.5 3.7-.5 14.5 2.8 21.9 3.7 21.9 3.7v-8.3c1.4-.4 3.2-1 4.9-1.6.9-.3 1.8-.6 2.6-.9 3.6-1.3 6.8-2.6 7.7-3.6 1-13.3 1.8-25.3 1.5-28.8-.3-3.5 1.8-4.3-5.3-9s-16.8-12.2-16.8-12.2c-.3-.4-.5-.9-.7-1.3"/><path class="cls-3" d="M146.8 44c-2.1.2-5-.3-6.6-.1-.2 0-.4 0-.6.1-1.3.5-2.1 2.6-3.9 3.2-1.9.5-10.8 1.1-14.7 1.3-3.8.2-6.1 0-8.1 1.6S102 67.6 102 67.6c-10.2.7-20.2 0-26.7 2.6s-8.7 4.5-8.7 4.5-11.1-1.7-12.9 2.4c-1.3 3.1 0 14.2 0 14.2-5.5.4-15.8 7.7-17.9 10.8-2.1 3.1-4.3 9.5-8 13.2s-12.3 13.2-15.2 13.3c11.2 4.3 27.5 9 30.9 8.3-4.3 7.1-8.1 12.3-8.1 12.3 14.9 7.1 26.3 13.1 29.4 12.1 3.1-1 19.2-8.1 19.2-8.1 10.2 4 18 7.7 21.9 5.5 4 8 5.5 8.7 9.9 6.1 4.4-2.7 11.3-5.8 11.3-5.8s21.3 2.2 33.8 1c4.2 8.9 6.4 10.6 6.4 10.6s4.7-8.7 5.3-10.5c6.3-1.2 10.8-2 13.7-2.4"/><path class="cls-3" d="M102.1 67.5s-9 20.4-12.1 29.6c-.7 1.9-1.1 3.4-1.1 4.1-7.4 2.7-14.2 3.4-18.6 7.3-2.1 1.9-4.7 3.7-7.1 5.6-.5.4-1 .9-1.5 1.3-1.9 1.7-3.4 3.5-4.1 5.6-1.8 5-7.7 9.2-9.8 11.8-2.1 2.7-4.3 3.8-4.3 3.8"/><path class="cls-4" d="M133 112.1c-2 12.6-4.2 26.4-4.2 26.4 6.6-2.2 14.4-5.3 15.7-6.6M132.8 53.9s4.1 30.7 2.9 39.8c-.4 3.4-1.5 10.7-2.7 18.4M126.1 66.3v-8.7l-10 1.3c6 13.7 14 37.1 13.7 44.4"/><path class="cls-4" d="M64.1 124.5c7.5 0 20.8-2 28.8-7.3 6-4 17.9-11.1 25.1-13.9 2.3-.9 4.1-1.4 5.1-1.2 4 .9 10.2-1.3 9.9 10h0"/><path class="cls-4" d="M100.9 102.1s13.6 2.3 17.1 1.2M110.6 77.6c1.1 0 12.6 16.3 12.4 24.5M135.7 47.2c3.7 10.6 10.8 24.8 13.3 25.4 2.4.7 6.1 1.2 6.1 1.2"/><path class="cls-3" d="M127.1 158.7c11-6.5 22.3-12.7 26.3-13.6 4-.9 14.4 2.5 19.5 5.7 5 3.1 13.1 6.5 13.4 6.7h0"/><path class="cls-4" d="M156.8 145s7.7-9.5 17.9-14.4M205.7 95c.3.6 9.4 21.3 13.3 22.4"/><path class="cls-3" d="M205.7 95s0 0 0 0"/><path class="cls-4" d="M141.2 100.1s-6.4 19.5-7.1 21.9 10.9 10 19.5 8.5M172.1 68.7s4.7-2.8 11.5-2.4"/><path class="cls-3" d="M81.8 72.6s8.9 19.3 8.2 24.5M35.9 102s14.7 16.4 25.9 13.5M53.8 91.2s4.6 17 6.4 19.4c1.8 2.3 3 3.6 3 3.6M66.7 74.6s-4 .5-5.3 3M61.3 77.6s-.8 15.5 1.4 21.4c2.2 5.9 7.6 9.5 7.6 9.5M35.5 148.9s31.6 2.1 37.4.6c5.8-1.5 17.7-2.7 19.3-2.7h0"/><path class="cls-3" d="M84.1 152.9s4.2-3.2 8.1-6.1c2.8-2.1 5.5-3.9 6.3-4.2 2-.7 3.9 2.2 4.8 4.6.9 2.4 2.7 11.2 2.7 11.2"/><path class="cls-1" d="M160.9 159.7s-2.4-11.9 0-13.8M172.6 159.9s-1-7.8-.3-9.4"/><circle class="cls-5" cx="176.1" cy="40.6" r=".5"/><circle class="cls-5" cx="185.3" cy="41.8" r=".5"/><path d="M162.7 70s-2.1-.3-2.9-.6-3.5.2-3.5.2-2.4 1.2-3.3 0 1.8-2.3 4.2-2.8 7.7 0 9.5.8l5.3 1 3.7 8.6c-2.2 1-5 1.5-8.5 1.3-.8.1-4-.3-4.7-.5 0 0-2.2-.6-3.3-.5s-1.9-.3-2-1.1c-.2-1.2 1.4-1.6 1.4-1.6" style="stroke-width:.5px;stroke-linecap:round;stroke-linejoin:round;fill:none;stroke:#000"/></g></svg>