<?xml version="1.0" encoding="UTF-8"?>
<svg xmlns="http://www.w3.org/2000/svg" viewBox="0 0 270.31 201.19">
  <defs>
    <style>
      .cls-1 {
        fill: #bc96af;
      }

      .cls-1, .cls-2, .cls-3, .cls-4, .cls-5, .cls-6, .cls-7, .cls-8, .cls-9 {
        stroke-width: 0px;
      }

      .cls-2 {
        fill: #fdfbef;
      }

      .cls-10 {
        stroke-miterlimit: 10;
      }

      .cls-10, .cls-11 {
        stroke: #000;
      }

      .cls-10, .cls-11, .cls-12 {
        fill: none;
      }

      .cls-3 {
        fill: #eecaaa;
      }

      .cls-4 {
        fill: #f3edd7;
      }

      .cls-11, .cls-12 {
        stroke-linecap: round;
        stroke-linejoin: round;
      }

      .cls-5 {
        fill: #c25c50;
      }

      .cls-6 {
        fill: #333;
      }

      .cls-7 {
        fill: #3c3834;
      }

      .cls-12 {
        stroke: #eee;
        stroke-width: .5px;
      }

      .cls-8 {
        fill: #d2d296;
      }

      .cls-9 {
        fill: #f7e4c6;
      }
    </style>
  </defs>
  <g id="_畳" data-name="畳">
    <g>
      <g>
        <g>
          <rect class="cls-4" x=".24" y="166.55" width="3.62" height="5.03"/>
          <path class="cls-4" d="m270.06,194.12v6.56h-30.44l15.35-8.63c1.03,1.61,3.11,2.72,5.51,2.72s4.62-1.18,5.62-2.88l3.97,2.23Z"/>
          <path class="cls-4" d="m270.06,183.57v10.56l-3.97-2.23c.38-.65.59-1.38.59-2.14,0-1.3-.62-2.48-1.61-3.38l4.99-2.8Z"/>
          <path class="cls-4" d="m270.06,171.58v11.99l-4.99,2.8c-1.14-1.01-2.77-1.64-4.59-1.64s-3.31.58-4.44,1.51l-26.09-14.66h40.11Z"/>
          <polygon class="cls-4" points="270.06 93.95 270.06 99.72 1.13 99.72 .24 99.72 .24 93.95 270.06 93.95"/>
          <rect class="cls-4" x="266.07" y="166.55" width="3.99" height="5.03"/>
          <path class="cls-4" d="m266.69,189.75c0,.76-.21,1.49-.59,2.14l-5.42-3.05,4.39-2.47c1,.89,1.61,2.07,1.61,3.38Z"/>
          <path class="cls-4" d="m260.68,188.84l5.42,3.05c-1,1.7-3.13,2.88-5.62,2.88s-4.48-1.1-5.51-2.72l5.71-3.21Z"/>
          <rect class="cls-6" x="254.77" y="166.55" width="11.3" height="5.03"/>
          <path class="cls-4" d="m265.07,186.37l-4.39,2.47-4.64-2.6c1.13-.93,2.7-1.51,4.44-1.51,1.82,0,3.46.63,4.59,1.64Z"/>
          <path class="cls-4" d="m260.68,188.84l-5.71,3.21c-.44-.69-.69-1.48-.69-2.31,0-1.37.68-2.6,1.77-3.51l4.64,2.6Z"/>
          <path class="cls-4" d="m229.96,171.58l26.09,14.66c-1.09.9-1.77,2.14-1.77,3.51,0,.83.25,1.62.69,2.31l-15.35,8.63h-41.47l-15.64-8.79c.38-.65.59-1.38.59-2.14,0-1.3-.62-2.48-1.61-3.37l26.33-14.8h22.15Zm-5.96,18.17c0-2.77-2.25-5.02-5.02-5.02s-5.03,2.25-5.03,5.02,2.25,5.03,5.03,5.03,5.02-2.25,5.02-5.03Z"/>
          <polygon class="cls-4" points="254.77 171.58 229.96 171.58 224.25 171.58 224.25 166.55 254.77 166.55 254.77 171.58"/>
          <rect class="cls-6" x="212.95" y="166.55" width="11.3" height="5.03"/>
          <path class="cls-6" d="m218.98,184.73c2.77,0,5.02,2.25,5.02,5.02s-2.25,5.03-5.02,5.03-5.03-2.25-5.03-5.03,2.25-5.02,5.03-5.02Z"/>
          <path class="cls-4" d="m207.81,171.58l-26.33,14.8c-1.14-1.02-2.77-1.65-4.59-1.65s-3.31.58-4.44,1.51l-26.09-14.66h61.45Z"/>
          <polygon class="cls-4" points="182.44 171.58 182.44 166.55 212.95 166.55 212.95 171.58 207.81 171.58 182.44 171.58"/>
          <path class="cls-4" d="m198.15,200.69h-42.12l15.35-8.63c1.03,1.61,3.12,2.72,5.51,2.72s4.62-1.18,5.62-2.88l15.64,8.79Z"/>
          <path class="cls-4" d="m183.1,189.75c0,.76-.21,1.49-.59,2.14l-5.42-3.05,4.39-2.47c1,.89,1.61,2.07,1.61,3.37Z"/>
          <path class="cls-4" d="m177.09,188.84l5.42,3.05c-1,1.7-3.13,2.88-5.62,2.88s-4.48-1.1-5.51-2.72l5.71-3.21Z"/>
          <rect class="cls-6" x="171.13" y="166.55" width="11.3" height="5.03"/>
          <path class="cls-4" d="m176.89,184.73c1.82,0,3.46.63,4.59,1.65l-4.39,2.47-4.64-2.6c1.13-.93,2.7-1.51,4.44-1.51Z"/>
          <path class="cls-4" d="m177.09,188.84l-5.71,3.21c-.44-.69-.69-1.48-.69-2.31,0-1.37.68-2.6,1.77-3.51l4.64,2.6Z"/>
          <path class="cls-4" d="m146.37,171.58l26.09,14.66c-1.09.9-1.77,2.14-1.77,3.51,0,.83.25,1.62.69,2.31l-15.35,8.63h-41.47l-15.64-8.79c.38-.65.59-1.38.59-2.14,0-1.3-.62-2.48-1.61-3.37l26.33-14.8h22.15Zm-7.01,18.17c0-2.77-2.25-5.02-5.02-5.02s-5.03,2.25-5.03,5.02,2.25,5.03,5.03,5.03,5.02-2.25,5.02-5.03Z"/>
          <polygon class="cls-4" points="171.13 171.58 146.37 171.58 140.62 171.58 140.62 166.55 171.13 166.55 171.13 171.58"/>
          <rect class="cls-6" x="129.32" y="166.55" width="11.3" height="5.03"/>
          <path class="cls-6" d="m134.33,184.73c2.77,0,5.02,2.25,5.02,5.02s-2.25,5.03-5.02,5.03-5.03-2.25-5.03-5.03,2.25-5.02,5.03-5.02Z"/>
          <path class="cls-4" d="m124.22,171.58l-26.33,14.8c-1.14-1.02-2.77-1.65-4.59-1.65s-3.31.58-4.44,1.51l-26.09-14.66h61.45Z"/>
          <polygon class="cls-4" points="129.32 171.58 124.22 171.58 98.8 171.58 98.8 166.55 129.32 166.55 129.32 171.58"/>
          <path class="cls-4" d="m114.56,200.69h-42.12l15.35-8.63c1.03,1.61,3.11,2.72,5.51,2.72s4.62-1.18,5.62-2.88l15.64,8.79Z"/>
          <path class="cls-4" d="m99.51,189.75c0,.76-.21,1.49-.59,2.14l-5.42-3.05,4.39-2.47c1,.89,1.61,2.07,1.61,3.37Z"/>
          <path class="cls-4" d="m93.5,188.84l5.42,3.05c-1,1.7-3.13,2.88-5.62,2.88s-4.48-1.1-5.51-2.72l5.71-3.21Z"/>
          <rect class="cls-6" x="87.5" y="166.55" width="11.3" height="5.03"/>
          <path class="cls-4" d="m93.3,184.73c1.82,0,3.46.63,4.59,1.65l-4.39,2.47-4.64-2.6c1.13-.93,2.7-1.51,4.44-1.51Z"/>
          <path class="cls-4" d="m93.5,188.84l-5.71,3.21c-.44-.69-.69-1.48-.69-2.31,0-1.37.68-2.6,1.77-3.51l4.64,2.6Z"/>
          <path class="cls-4" d="m62.78,171.58l26.09,14.66c-1.09.9-1.77,2.14-1.77,3.51,0,.83.25,1.62.69,2.31l-15.35,8.63H30.78l-15.64-8.79c.38-.65.59-1.38.59-2.14,0-1.3-.62-2.48-1.61-3.37l26.33-14.8h22.34Zm-8.52,18.17c0-2.77-2.25-5.02-5.02-5.02s-5.03,2.25-5.03,5.02,2.25,5.03,5.03,5.03,5.02-2.25,5.02-5.03Z"/>
          <polygon class="cls-4" points="87.5 171.58 62.78 171.58 56.99 171.58 56.99 166.55 87.5 166.55 87.5 171.58"/>
          <rect class="cls-6" x="45.68" y="166.55" width="11.3" height="5.03"/>
          <path class="cls-6" d="m49.23,184.73c2.77,0,5.02,2.25,5.02,5.02s-2.25,5.03-5.02,5.03-5.03-2.25-5.03-5.03,2.25-5.02,5.03-5.02Z"/>
          <polygon class="cls-4" points="45.68 171.58 40.44 171.58 15.17 171.58 15.17 166.55 45.68 166.55 45.68 171.58"/>
          <path class="cls-4" d="m30.78,200.69H.24v-6.52l3.76-2.11c1.03,1.61,3.12,2.72,5.51,2.72s4.62-1.18,5.62-2.88l15.64,8.79Z"/>
          <path class="cls-4" d="m15.72,189.75c0,.76-.21,1.49-.59,2.14l-5.42-3.05,4.39-2.47c1,.89,1.61,2.07,1.61,3.37Z"/>
          <rect class="cls-6" x="3.86" y="166.55" width="11.3" height="5.03"/>
          <path class="cls-4" d="m9.72,188.84l5.42,3.05c-1,1.7-3.13,2.88-5.62,2.88s-4.48-1.1-5.51-2.72l5.71-3.21Z"/>
          <path class="cls-4" d="m9.52,184.73c1.82,0,3.46.63,4.59,1.65l-4.39,2.47-4.64-2.6c1.13-.93,2.7-1.51,4.44-1.51Z"/>
          <path class="cls-4" d="m9.72,188.84l-5.71,3.21c-.44-.69-.69-1.48-.69-2.31,0-1.37.68-2.6,1.77-3.51l4.64,2.6Z"/>
          <path class="cls-4" d="m.24,183.52l4.84,2.72c-1.09.9-1.77,2.14-1.77,3.51,0,.83.25,1.62.69,2.31l-3.76,2.11v-10.64Z"/>
          <polygon class="cls-8" points="212.95 166.55 182.44 166.55 171.13 166.55 140.62 166.55 129.32 166.55 98.8 166.55 87.5 166.55 56.99 166.55 45.68 166.55 15.17 166.55 3.86 166.55 .24 166.55 .24 99.72 1.13 99.72 270.06 99.72 270.06 166.55 266.07 166.55 254.77 166.55 224.25 166.55 212.95 166.55"/>
          <path class="cls-4" d="m.24,171.58h40.19l-26.33,14.8c-1.14-1.02-2.77-1.65-4.59-1.65s-3.31.58-4.44,1.51l-4.84-2.72v-11.95Z"/>
        </g>
        <g>
          <polyline class="cls-10" points="270.06 200.69 239.62 200.69 198.15 200.69 156.03 200.69 114.56 200.69 72.44 200.69 30.78 200.69 .24 200.69"/>
          <line class="cls-10" x1=".24" y1="93.95" x2="270.06" y2="93.95"/>
          <line class="cls-10" x1=".24" y1="99.72" x2="270.06" y2="99.72"/>
          <line class="cls-10" x1="266.07" y1="166.55" x2="270.06" y2="166.55"/>
          <line class="cls-10" x1="224.25" y1="166.55" x2="254.77" y2="166.55"/>
          <line class="cls-10" x1="182.44" y1="166.55" x2="212.95" y2="166.55"/>
          <line class="cls-10" x1="140.62" y1="166.55" x2="171.13" y2="166.55"/>
          <line class="cls-10" x1="98.8" y1="166.55" x2="129.32" y2="166.55"/>
          <line class="cls-10" x1="56.99" y1="166.55" x2="87.5" y2="166.55"/>
          <line class="cls-10" x1="15.17" y1="166.55" x2="45.68" y2="166.55"/>
          <line class="cls-10" x1=".24" y1="166.55" x2="3.86" y2="166.55"/>
          <line class="cls-10" x1="266.07" y1="171.58" x2="270.06" y2="171.58"/>
          <polyline class="cls-10" points="224.25 171.58 229.96 171.58 254.77 171.58"/>
          <polyline class="cls-10" points="182.44 171.58 207.81 171.58 212.95 171.58"/>
          <polyline class="cls-10" points="140.62 171.58 146.37 171.58 171.13 171.58"/>
          <polyline class="cls-10" points="98.8 171.58 124.22 171.58 129.32 171.58"/>
          <polyline class="cls-10" points="56.99 171.58 62.78 171.58 87.5 171.58"/>
          <polyline class="cls-10" points="15.17 171.58 40.44 171.58 45.68 171.58"/>
          <line class="cls-10" x1=".24" y1="171.58" x2="3.86" y2="171.58"/>
          <polyline class="cls-10" points="72.44 200.69 87.79 192.06 93.5 188.84 97.89 186.38 124.22 171.58"/>
          <polyline class="cls-10" points="114.56 200.69 98.92 191.89 93.5 188.84 88.86 186.24 62.78 171.58"/>
          <path class="cls-10" d="m139.35,189.75c0,2.78-2.25,5.03-5.02,5.03s-5.03-2.25-5.03-5.03,2.25-5.02,5.03-5.02,5.02,2.25,5.02,5.02Z"/>
          <path class="cls-10" d="m223.99,189.75c0,2.78-2.25,5.03-5.02,5.03s-5.03-2.25-5.03-5.03,2.25-5.02,5.03-5.02,5.02,2.25,5.02,5.02Z"/>
          <path class="cls-10" d="m97.89,186.38c1,.89,1.61,2.07,1.61,3.37,0,.76-.21,1.49-.59,2.14-1,1.7-3.13,2.88-5.62,2.88s-4.48-1.1-5.51-2.72c-.44-.69-.69-1.48-.69-2.31,0-1.37.68-2.6,1.77-3.51,1.13-.93,2.7-1.51,4.44-1.51,1.82,0,3.46.63,4.59,1.65Z"/>
          <polyline class="cls-10" points=".24 194.17 4 192.06 9.72 188.84 14.11 186.38 40.44 171.58"/>
          <polyline class="cls-10" points="30.78 200.69 15.13 191.89 9.72 188.84 5.08 186.24 .24 183.52"/>
          <path class="cls-10" d="m14.11,186.38c1,.89,1.61,2.07,1.61,3.37,0,.76-.21,1.49-.59,2.14-1,1.7-3.13,2.88-5.62,2.88s-4.48-1.1-5.51-2.72c-.44-.69-.69-1.48-.69-2.31,0-1.37.68-2.6,1.77-3.51,1.13-.93,2.7-1.51,4.44-1.51,1.82,0,3.46.63,4.59,1.65Z"/>
          <polyline class="cls-10" points="156.03 200.69 171.38 192.06 177.09 188.84 181.48 186.38 207.81 171.58"/>
          <polyline class="cls-10" points="198.15 200.69 182.51 191.89 177.09 188.84 172.45 186.24 146.37 171.58"/>
          <path class="cls-10" d="m181.48,186.38c1,.89,1.61,2.07,1.61,3.37,0,.76-.21,1.49-.59,2.14-1,1.7-3.13,2.88-5.62,2.88s-4.48-1.1-5.51-2.72c-.44-.69-.69-1.48-.69-2.31,0-1.37.68-2.6,1.77-3.51,1.13-.93,2.7-1.51,4.44-1.51,1.82,0,3.46.63,4.59,1.65Z"/>
          <polyline class="cls-10" points="239.62 200.69 254.97 192.06 260.68 188.84 265.07 186.37 270.06 183.57"/>
          <polyline class="cls-10" points="270.06 194.12 266.1 191.89 260.68 188.84 256.04 186.24 229.96 171.58"/>
          <path class="cls-10" d="m265.07,186.37c1,.89,1.61,2.07,1.61,3.38,0,.76-.21,1.49-.59,2.14-1,1.7-3.13,2.88-5.62,2.88s-4.48-1.1-5.51-2.72c-.44-.69-.69-1.48-.69-2.31,0-1.37.68-2.6,1.77-3.51,1.13-.93,2.7-1.51,4.44-1.51,1.82,0,3.46.63,4.59,1.64Z"/>
          <path class="cls-10" d="m54.25,189.75c0,2.78-2.25,5.03-5.02,5.03s-5.03-2.25-5.03-5.03,2.25-5.02,5.03-5.02,5.02,2.25,5.02,5.02Z"/>
          <rect class="cls-10" x="3.86" y="166.55" width="11.3" height="5.03"/>
          <rect class="cls-10" x="45.68" y="166.55" width="11.3" height="5.03"/>
          <rect class="cls-10" x="87.5" y="166.55" width="11.3" height="5.03"/>
          <rect class="cls-10" x="129.32" y="166.55" width="11.3" height="5.03"/>
          <rect class="cls-10" x="171.13" y="166.55" width="11.3" height="5.03"/>
          <rect class="cls-10" x="212.95" y="166.55" width="11.3" height="5.03"/>
          <rect class="cls-10" x="254.77" y="166.55" width="11.3" height="5.03"/>
        </g>
      </g>
      <g>
        <g>
          <rect class="cls-4" x=".24" y="166.55" width="3.62" height="5.03"/>
          <path class="cls-4" d="m270.06,194.12v6.56h-30.44l15.35-8.63c1.03,1.61,3.11,2.72,5.51,2.72s4.62-1.18,5.62-2.88l3.97,2.23Z"/>
          <path class="cls-4" d="m270.06,183.57v10.56l-3.97-2.23c.38-.65.59-1.38.59-2.14,0-1.3-.62-2.48-1.61-3.38l4.99-2.8Z"/>
          <path class="cls-4" d="m270.06,171.58v11.99l-4.99,2.8c-1.14-1.01-2.77-1.64-4.59-1.64s-3.31.58-4.44,1.51l-26.09-14.66h40.11Z"/>
          <polygon class="cls-4" points="270.06 93.95 270.06 99.72 1.13 99.72 .24 99.72 .24 93.95 270.06 93.95"/>
          <rect class="cls-4" x="266.07" y="166.55" width="3.99" height="5.03"/>
          <path class="cls-4" d="m266.69,189.75c0,.76-.21,1.49-.59,2.14l-5.42-3.05,4.39-2.47c1,.89,1.61,2.07,1.61,3.38Z"/>
          <path class="cls-4" d="m260.68,188.84l5.42,3.05c-1,1.7-3.13,2.88-5.62,2.88s-4.48-1.1-5.51-2.72l5.71-3.21Z"/>
          <rect class="cls-6" x="254.77" y="166.55" width="11.3" height="5.03"/>
          <path class="cls-4" d="m265.07,186.37l-4.39,2.47-4.64-2.6c1.13-.93,2.7-1.51,4.44-1.51,1.82,0,3.46.63,4.59,1.64Z"/>
          <path class="cls-4" d="m260.68,188.84l-5.71,3.21c-.44-.69-.69-1.48-.69-2.31,0-1.37.68-2.6,1.77-3.51l4.64,2.6Z"/>
          <path class="cls-4" d="m229.96,171.58l26.09,14.66c-1.09.9-1.77,2.14-1.77,3.51,0,.83.25,1.62.69,2.31l-15.35,8.63h-41.47l-15.64-8.79c.38-.65.59-1.38.59-2.14,0-1.3-.62-2.48-1.61-3.37l26.33-14.8h22.15Zm-5.96,18.17c0-2.77-2.25-5.02-5.02-5.02s-5.03,2.25-5.03,5.02,2.25,5.03,5.03,5.03,5.02-2.25,5.02-5.03Z"/>
          <polygon class="cls-4" points="254.77 171.58 229.96 171.58 224.25 171.58 224.25 166.55 254.77 166.55 254.77 171.58"/>
          <rect class="cls-6" x="212.95" y="166.55" width="11.3" height="5.03"/>
          <path class="cls-6" d="m218.98,184.73c2.77,0,5.02,2.25,5.02,5.02s-2.25,5.03-5.02,5.03-5.03-2.25-5.03-5.03,2.25-5.02,5.03-5.02Z"/>
          <path class="cls-4" d="m207.81,171.58l-26.33,14.8c-1.14-1.02-2.77-1.65-4.59-1.65s-3.31.58-4.44,1.51l-26.09-14.66h61.45Z"/>
          <polygon class="cls-4" points="182.44 171.58 182.44 166.55 212.95 166.55 212.95 171.58 207.81 171.58 182.44 171.58"/>
          <path class="cls-4" d="m198.15,200.69h-42.12l15.35-8.63c1.03,1.61,3.12,2.72,5.51,2.72s4.62-1.18,5.62-2.88l15.64,8.79Z"/>
          <path class="cls-4" d="m183.1,189.75c0,.76-.21,1.49-.59,2.14l-5.42-3.05,4.39-2.47c1,.89,1.61,2.07,1.61,3.37Z"/>
          <path class="cls-4" d="m177.09,188.84l5.42,3.05c-1,1.7-3.13,2.88-5.62,2.88s-4.48-1.1-5.51-2.72l5.71-3.21Z"/>
          <rect class="cls-6" x="171.13" y="166.55" width="11.3" height="5.03"/>
          <path class="cls-4" d="m176.89,184.73c1.82,0,3.46.63,4.59,1.65l-4.39,2.47-4.64-2.6c1.13-.93,2.7-1.51,4.44-1.51Z"/>
          <path class="cls-4" d="m177.09,188.84l-5.71,3.21c-.44-.69-.69-1.48-.69-2.31,0-1.37.68-2.6,1.77-3.51l4.64,2.6Z"/>
          <path class="cls-4" d="m146.37,171.58l26.09,14.66c-1.09.9-1.77,2.14-1.77,3.51,0,.83.25,1.62.69,2.31l-15.35,8.63h-41.47l-15.64-8.79c.38-.65.59-1.38.59-2.14,0-1.3-.62-2.48-1.61-3.37l26.33-14.8h22.15Zm-7.01,18.17c0-2.77-2.25-5.02-5.02-5.02s-5.03,2.25-5.03,5.02,2.25,5.03,5.03,5.03,5.02-2.25,5.02-5.03Z"/>
          <polygon class="cls-4" points="171.13 171.58 146.37 171.58 140.62 171.58 140.62 166.55 171.13 166.55 171.13 171.58"/>
          <rect class="cls-6" x="129.32" y="166.55" width="11.3" height="5.03"/>
          <path class="cls-6" d="m134.33,184.73c2.77,0,5.02,2.25,5.02,5.02s-2.25,5.03-5.02,5.03-5.03-2.25-5.03-5.03,2.25-5.02,5.03-5.02Z"/>
          <path class="cls-4" d="m124.22,171.58l-26.33,14.8c-1.14-1.02-2.77-1.65-4.59-1.65s-3.31.58-4.44,1.51l-26.09-14.66h61.45Z"/>
          <polygon class="cls-4" points="129.32 171.58 124.22 171.58 98.8 171.58 98.8 166.55 129.32 166.55 129.32 171.58"/>
          <path class="cls-4" d="m114.56,200.69h-42.12l15.35-8.63c1.03,1.61,3.11,2.72,5.51,2.72s4.62-1.18,5.62-2.88l15.64,8.79Z"/>
          <path class="cls-4" d="m99.51,189.75c0,.76-.21,1.49-.59,2.14l-5.42-3.05,4.39-2.47c1,.89,1.61,2.07,1.61,3.37Z"/>
          <path class="cls-4" d="m93.5,188.84l5.42,3.05c-1,1.7-3.13,2.88-5.62,2.88s-4.48-1.1-5.51-2.72l5.71-3.21Z"/>
          <rect class="cls-6" x="87.5" y="166.55" width="11.3" height="5.03"/>
          <path class="cls-4" d="m93.3,184.73c1.82,0,3.46.63,4.59,1.65l-4.39,2.47-4.64-2.6c1.13-.93,2.7-1.51,4.44-1.51Z"/>
          <path class="cls-4" d="m93.5,188.84l-5.71,3.21c-.44-.69-.69-1.48-.69-2.31,0-1.37.68-2.6,1.77-3.51l4.64,2.6Z"/>
          <path class="cls-4" d="m62.78,171.58l26.09,14.66c-1.09.9-1.77,2.14-1.77,3.51,0,.83.25,1.62.69,2.31l-15.35,8.63H30.78l-15.64-8.79c.38-.65.59-1.38.59-2.14,0-1.3-.62-2.48-1.61-3.37l26.33-14.8h22.34Zm-8.52,18.17c0-2.77-2.25-5.02-5.02-5.02s-5.03,2.25-5.03,5.02,2.25,5.03,5.03,5.03,5.02-2.25,5.02-5.03Z"/>
          <polygon class="cls-4" points="87.5 171.58 62.78 171.58 56.99 171.58 56.99 166.55 87.5 166.55 87.5 171.58"/>
          <rect class="cls-6" x="45.68" y="166.55" width="11.3" height="5.03"/>
          <path class="cls-6" d="m49.23,184.73c2.77,0,5.02,2.25,5.02,5.02s-2.25,5.03-5.02,5.03-5.03-2.25-5.03-5.03,2.25-5.02,5.03-5.02Z"/>
          <polygon class="cls-4" points="45.68 171.58 40.44 171.58 15.17 171.58 15.17 166.55 45.68 166.55 45.68 171.58"/>
          <path class="cls-4" d="m30.78,200.69H.24v-6.52l3.76-2.11c1.03,1.61,3.12,2.72,5.51,2.72s4.62-1.18,5.62-2.88l15.64,8.79Z"/>
          <path class="cls-4" d="m15.72,189.75c0,.76-.21,1.49-.59,2.14l-5.42-3.05,4.39-2.47c1,.89,1.61,2.07,1.61,3.37Z"/>
          <rect class="cls-6" x="3.86" y="166.55" width="11.3" height="5.03"/>
          <path class="cls-4" d="m9.72,188.84l5.42,3.05c-1,1.7-3.13,2.88-5.62,2.88s-4.48-1.1-5.51-2.72l5.71-3.21Z"/>
          <path class="cls-4" d="m9.52,184.73c1.82,0,3.46.63,4.59,1.65l-4.39,2.47-4.64-2.6c1.13-.93,2.7-1.51,4.44-1.51Z"/>
          <path class="cls-4" d="m9.72,188.84l-5.71,3.21c-.44-.69-.69-1.48-.69-2.31,0-1.37.68-2.6,1.77-3.51l4.64,2.6Z"/>
          <path class="cls-4" d="m.24,183.52l4.84,2.72c-1.09.9-1.77,2.14-1.77,3.51,0,.83.25,1.62.69,2.31l-3.76,2.11v-10.64Z"/>
          <polygon class="cls-8" points="212.95 166.55 182.44 166.55 171.13 166.55 140.62 166.55 129.32 166.55 98.8 166.55 87.5 166.55 56.99 166.55 45.68 166.55 15.17 166.55 3.86 166.55 .24 166.55 .24 99.72 1.13 99.72 270.06 99.72 270.06 166.55 266.07 166.55 254.77 166.55 224.25 166.55 212.95 166.55"/>
          <path class="cls-4" d="m.24,171.58h40.19l-26.33,14.8c-1.14-1.02-2.77-1.65-4.59-1.65s-3.31.58-4.44,1.51l-4.84-2.72v-11.95Z"/>
        </g>
        <g>
          <polyline class="cls-10" points="270.06 200.69 239.62 200.69 198.15 200.69 156.03 200.69 114.56 200.69 72.44 200.69 30.78 200.69 .24 200.69"/>
          <line class="cls-10" x1=".24" y1="93.95" x2="270.06" y2="93.95"/>
          <line class="cls-10" x1=".24" y1="99.72" x2="270.06" y2="99.72"/>
          <line class="cls-10" x1="266.07" y1="166.55" x2="270.06" y2="166.55"/>
          <line class="cls-10" x1="224.25" y1="166.55" x2="254.77" y2="166.55"/>
          <line class="cls-10" x1="182.44" y1="166.55" x2="212.95" y2="166.55"/>
          <line class="cls-10" x1="140.62" y1="166.55" x2="171.13" y2="166.55"/>
          <line class="cls-10" x1="98.8" y1="166.55" x2="129.32" y2="166.55"/>
          <line class="cls-10" x1="56.99" y1="166.55" x2="87.5" y2="166.55"/>
          <line class="cls-10" x1="15.17" y1="166.55" x2="45.68" y2="166.55"/>
          <line class="cls-10" x1=".24" y1="166.55" x2="3.86" y2="166.55"/>
          <line class="cls-10" x1="266.07" y1="171.58" x2="270.06" y2="171.58"/>
          <polyline class="cls-10" points="224.25 171.58 229.96 171.58 254.77 171.58"/>
          <polyline class="cls-10" points="182.44 171.58 207.81 171.58 212.95 171.58"/>
          <polyline class="cls-10" points="140.62 171.58 146.37 171.58 171.13 171.58"/>
          <polyline class="cls-10" points="98.8 171.58 124.22 171.58 129.32 171.58"/>
          <polyline class="cls-10" points="56.99 171.58 62.78 171.58 87.5 171.58"/>
          <polyline class="cls-10" points="15.17 171.58 40.44 171.58 45.68 171.58"/>
          <line class="cls-10" x1=".24" y1="171.58" x2="3.86" y2="171.58"/>
          <polyline class="cls-10" points="72.44 200.69 87.79 192.06 93.5 188.84 97.89 186.38 124.22 171.58"/>
          <polyline class="cls-10" points="114.56 200.69 98.92 191.89 93.5 188.84 88.86 186.24 62.78 171.58"/>
          <path class="cls-10" d="m139.35,189.75c0,2.78-2.25,5.03-5.02,5.03s-5.03-2.25-5.03-5.03,2.25-5.02,5.03-5.02,5.02,2.25,5.02,5.02Z"/>
          <path class="cls-10" d="m223.99,189.75c0,2.78-2.25,5.03-5.02,5.03s-5.03-2.25-5.03-5.03,2.25-5.02,5.03-5.02,5.02,2.25,5.02,5.02Z"/>
          <path class="cls-10" d="m97.89,186.38c1,.89,1.61,2.07,1.61,3.37,0,.76-.21,1.49-.59,2.14-1,1.7-3.13,2.88-5.62,2.88s-4.48-1.1-5.51-2.72c-.44-.69-.69-1.48-.69-2.31,0-1.37.68-2.6,1.77-3.51,1.13-.93,2.7-1.51,4.44-1.51,1.82,0,3.46.63,4.59,1.65Z"/>
          <polyline class="cls-10" points=".24 194.17 4 192.06 9.72 188.84 14.11 186.38 40.44 171.58"/>
          <polyline class="cls-10" points="30.78 200.69 15.13 191.89 9.72 188.84 5.08 186.24 .24 183.52"/>
          <path class="cls-10" d="m14.11,186.38c1,.89,1.61,2.07,1.61,3.37,0,.76-.21,1.49-.59,2.14-1,1.7-3.13,2.88-5.62,2.88s-4.48-1.1-5.51-2.72c-.44-.69-.69-1.48-.69-2.31,0-1.37.68-2.6,1.77-3.51,1.13-.93,2.7-1.51,4.44-1.51,1.82,0,3.46.63,4.59,1.65Z"/>
          <polyline class="cls-10" points="156.03 200.69 171.38 192.06 177.09 188.84 181.48 186.38 207.81 171.58"/>
          <polyline class="cls-10" points="198.15 200.69 182.51 191.89 177.09 188.84 172.45 186.24 146.37 171.58"/>
          <path class="cls-10" d="m181.48,186.38c1,.89,1.61,2.07,1.61,3.37,0,.76-.21,1.49-.59,2.14-1,1.7-3.13,2.88-5.62,2.88s-4.48-1.1-5.51-2.72c-.44-.69-.69-1.48-.69-2.31,0-1.37.68-2.6,1.77-3.51,1.13-.93,2.7-1.51,4.44-1.51,1.82,0,3.46.63,4.59,1.65Z"/>
          <polyline class="cls-10" points="239.62 200.69 254.97 192.06 260.68 188.84 265.07 186.37 270.06 183.57"/>
          <polyline class="cls-10" points="270.06 194.12 266.1 191.89 260.68 188.84 256.04 186.24 229.96 171.58"/>
          <path class="cls-10" d="m265.07,186.37c1,.89,1.61,2.07,1.61,3.38,0,.76-.21,1.49-.59,2.14-1,1.7-3.13,2.88-5.62,2.88s-4.48-1.1-5.51-2.72c-.44-.69-.69-1.48-.69-2.31,0-1.37.68-2.6,1.77-3.51,1.13-.93,2.7-1.51,4.44-1.51,1.82,0,3.46.63,4.59,1.64Z"/>
          <path class="cls-10" d="m54.25,189.75c0,2.78-2.25,5.03-5.02,5.03s-5.03-2.25-5.03-5.03,2.25-5.02,5.03-5.02,5.02,2.25,5.02,5.02Z"/>
          <rect class="cls-10" x="3.86" y="166.55" width="11.3" height="5.03"/>
          <rect class="cls-10" x="45.68" y="166.55" width="11.3" height="5.03"/>
          <rect class="cls-10" x="87.5" y="166.55" width="11.3" height="5.03"/>
          <rect class="cls-10" x="129.32" y="166.55" width="11.3" height="5.03"/>
          <rect class="cls-10" x="171.13" y="166.55" width="11.3" height="5.03"/>
          <rect class="cls-10" x="212.95" y="166.55" width="11.3" height="5.03"/>
          <rect class="cls-10" x="254.77" y="166.55" width="11.3" height="5.03"/>
        </g>
      </g>
    </g>
  </g>
  <g id="_レイヤー_2" data-name="レイヤー 2">
    <g>
      <g>
        <path class="cls-2" d="m242.08,121.41c7.2,6.96,17.76,18.86,18.08,25.18-13.51,0-31.2-.31-37.59-4.4l9.02-6.82-12.6-6.66c.24-1.79.14-4.38-.13-6.47l.26-.03s20.22,1.14,22.95-.8Z"/>
        <path class="cls-2" d="m234.56,105.21c1.37,1.6,7.52,16.2,7.52,16.2-2.73,1.94-22.95.8-22.95.8l-.26.03c-.19-1.52-.45-2.77-.75-3.27-.68-1.2-6.62-14.63-6.62-14.63h0c13.56.34,21.74-.67,23.06.87Z"/>
        <path class="cls-7" d="m185.95,99.37l33.05,29.34,12.6,6.66-9.02,6.82c-13,3.19-26.36,5.24-26.36,5.24h0s-.34-1.19-.34-1.19c1-.28,1.94-.74,2.87-1.32-4.68-.45-27.5-23.73-34.91-42.21-3.04-7.59-5.08-26.71-5.08-26.71.66-.08,1.18-.5,1.59-1.13,1.81-2.79,1.44-9.7,1.44-9.7,0,0,6.99.81,8.57,1.28l.37-1.11c2.85.98,6.57,2.6,7.14,4.83.69,2.63,1.99,8.64,5.18,13.31l-.13.06s1.61,8.01,3.05,15.82h0Z"/>
        <path class="cls-7" d="m218.87,122.24c.26,2.09.37,4.68.13,6.47l-33.05-29.34h0c-1.44-7.82-3.05-15.83-3.05-15.83l.13-.06c.9,1.32,1.94,2.52,3.15,3.53,5.55,4.57,10.72,12.29,11.3,12.85,8.33,3.08,12.66,4.45,12.66,4.45.46.02.91.03,1.37.04h0s5.94,13.44,6.62,14.64c.3.51.56,1.75.75,3.27Z"/>
        <path class="cls-5" d="m198.72,144.92c-.93.58-1.86,1.04-2.87,1.32-2.6.75-5.73.38-10.82-2.01-4.44-2.07-11.53-9.18-17.01-17.38-3.25-4.86-5.92-10.11-7.13-14.9-2.92-11.62-6.33-30.98-6.7-37.61-.05-.73-.05-1.3,0-1.7,1.37.62,2.64,1.13,3.14,1.13,1.03,0,3,1.09,3,1.09-.42.63-.93,1.05-1.59,1.13,0,0,2.04,19.13,5.08,26.71,7.42,18.48,30.24,41.76,34.91,42.21Z"/>
        <path class="cls-1" d="m150.91,150.63c-10.95,1.02-29.66.23-33.77-6.95,0,0-.12-13.47.97-20.08,1.09-6.63,3.93-17.58,7.82-29.67,3.88-12.11,10.12-22.95,19.14-23.13,8.1-.16,9.12,3.55,9.12,3.55.37,6.63,3.78,25.99,6.7,37.61,1.21,4.79,3.89,10.05,7.13,14.9,5.48,8.2,12.57,15.31,17.01,17.38,5.09,2.39,8.23,2.76,10.82,2.01l.34,1.2c-.45.27-14.99,8.9-19.15,9.23-4.23.34-10.5.8-18.32-2.63l-7.81-3.42h0Z"/>
        <path class="cls-9" d="m180.02,44.73l2.88,5.36-18.84,8.73-7.63,3.54c-.65-.52-1.17-1.05-1.41-1.53-.4-.8-1.17-1.61-2.03-2.33l.42-.26,8.03-4.08,18.57-9.42Z"/>
        <path class="cls-7" d="m170.7,65.33l-.37,1.11c-1.58-.46-8.57-1.28-8.57-1.28-.67,0-3.52-1.37-5.33-2.81l7.63-3.54s2.18,5.04,3.47,5.5c.44.16,1.69.5,3.16,1.01Z"/>
        <path class="cls-6" d="m160.74,18.89c-.22.07-.48.12-.8.16-1.67.24-2.74.24-4.03,0-1.29-.22-2.74-.99-3.65-1.82-.91-.84-2.74-1.64-3.27-.56-.52,1.09-7.98,11.44-9.88,13.11-1.91,1.66-3.27,3.65-4.11,3.65-.07-4.57-1.06-5.79-2.21-6.24-1.13-.46-1.97.31-2.43,1.37-.45,1.07-1.14,2.94-1.25,6.75l-1.07-.05s-.3-1.06-.46-2.31c-.15-1.26.23-5.15.72-6.65.06-.19.14-.39.25-.61.09-.19.2-.4.32-.61.83-1.49,2.27-3.35,3.61-4.34,1.75-1.29,10.35-12.25,10.35-12.25h-5.33s-5.33,6.93-8.21,11.33c-.8,1.21-1.63,2.81-2.5,4.57-.12.25-.24.51-.37.76-2.19,4.49-4.52,9.68-6.56,11.57-.34.31-.62.45-.86.51-.45.1-.67-.14-.67-.14,1.14-1.52,1.97-2.12,2.7-4.21,2.4-7.76,9.81-19.75,14.15-24.42,4.33-4.68,6.35-6.57,7.64-7.04,1.29-.45,7.83,2.5,9.21,2.05,1.37-.46,5.24-1.9,6.62-2.59,1.37-.69,4.18-.39,4.41.45.23.84-2.51,3.43-4.49,4.42-1.99.98-2.75,1.13-2.75,1.13l.08,1.37h5.4v1.67h-3.27c.39,1.37,3.66,6.62,3.66,7.46,0,.67-.05,1.19-.95,1.5Z"/>
        <path class="cls-3" d="m145.56,60.34c-.43-.17-.87-.26-.87-.26,0,0-.72-.59-.2-1.67.17-.36,1.52-.86,1.52-.86l.05-.13c-.52-.2-1.53-.31-1.76-.44-.43-.26-.69-.78-.48-1.17.23-.45.92-.8,1.33-.88.05,0,.11-.02.15-.02.62,0,3.49.8,4.71,1.48.69.39,1.89,1.17,2.98,2.1.86.72,1.63,1.54,2.03,2.33.24.48.76,1,1.41,1.53,1.81,1.45,4.66,2.81,5.33,2.81,0,0,.37,6.92-1.44,9.7,0,0-1.97-1.09-3-1.09-.5,0-1.76-.51-3.14-1.13-1.39-.63-2.89-1.4-3.82-1.89-1.46-.77-3.53-3.18-4.3-4.12-.2-.24-.32-.38-.32-.38,0,0-.15-.31-.61-.69-.45-.38-1.26-.61-1.26-.61,0,0-.43-.23-.68-.64-.2-.32-.31-.71-.08-1.18.17-.35,1.77-.44,1.77-.44-.29-.1-.53-.15-.53-.15,0,0-1.06-.73-.52-1.82.14-.31,1.37-.37,1.73-.38Z"/>
        <path class="cls-7" d="m161.44,54.15l-8.03,4.08-.42.26c-1.09-.93-2.3-1.71-2.98-2.1-1.22-.68-4.09-1.48-4.71-1.48-.05,0-.1,0-.15.02l-.19-.75c1.95-.45,3.78-1.05,5.4-1.75h0c2.55-1.09,4.58-2.45,5.77-3.99,0,0,4.43,4.12,5.31,5.72Z"/>
        <path class="cls-3" d="m160.79,26.25c-.49,9.35-2.86,18.56-3.94,20.99-.18.42-.42.8-.71,1.19-1.18,1.54-3.22,2.9-5.77,3.99h0c-1.62.71-3.45,1.3-5.4,1.75-.03,0-.06.02-.09.03-5.81,1.37-13.35-1.83-16.2-3.43-2.85-1.59-4.19-5.74-4.58-8.55-.36-2.74,1.31-6.43,1.39-6.64,0,0,0,0,0,0,.72-.14,1.55-.25,2.53-.33l1.07.05c.11-3.81.8-5.68,1.25-6.75.46-1.06,1.3-1.83,2.43-1.37,1.15.45,2.13,1.67,2.21,6.24.84,0,2.21-1.99,4.11-3.65,1.9-1.67,9.36-12.03,9.88-13.11.53-1.08,2.36-.28,3.27.56.91.83,2.36,1.6,3.65,1.82,1.29.24,2.36.24,4.03,0,.33-.05.59-.09.8-.16.2,2.39.2,4.87.05,7.36Z"/>
        <path class="cls-7" d="m103.81,135.7c-.44-.23-.79-.35-.93-.33-.98.15-11.11,6.85-11.5,7.1-8.01-.52-15.54-1.39-20.25-3.15,4.3,0,2.88-2.61.48-6.04-2.4-3.42-8.17-18.21-8.17-18.21,2.57-2.36,3-3.35,0-3.46-2.98-.11-46.15,8.9-46.15,8.9,2.85-7.65,11.76-27.73,11.76-27.73,11.87-.8,29.67-.57,35.6-7.18,5.93-6.63,9.24-15.27,11.53-19.11.48-.81,1.34-2.29,2.42-4.13,0,0,9.44,14.22,13.55,14.22h.51c.96-2.17,2.21-4.54,4.06-7.66,4.57-7.67,18.02-27.41,18.02-27.41l2.6-.13c-.15-1.7-.21-2.83-.21-2.83.78,0,1.2.03,1.2.03.38-.14.72-.27,1.04-.42h0c2.05-.9,3.09-1.98,6.09-2.56-.08.21-1.75,3.9-1.39,6.64.39,2.8,1.73,6.95,4.58,8.55,2.86,1.6,10.39,4.79,16.2,3.43.03,0,.06-.02.09-.03l.19.75c-.41.08-1.1.43-1.33.88-.21.39.05.9.48,1.17.24.14,1.25.24,1.76.44l-.05.13s-1.35.5-1.52.86c-.52,1.09.2,1.67.2,1.67,0,0,.43.09.87.26-.35,0-1.58.07-1.73.38-.53,1.09.52,1.82.52,1.82,0,0,.24.05.53.15,0,0-1.6.09-1.77.44-.23.47-.12.87.08,1.18l-2.18,1.26,1.6,2.4,3.45-1.34c.77.94,2.83,3.35,4.3,4.12.92.49,2.42,1.26,3.82,1.89-.04.4-.04.97,0,1.7,0,0-1.01-3.72-9.12-3.55-9.02.18-15.26,11.02-19.14,23.13-3.89,12.09-6.74,23.04-7.82,29.67-1.09,6.61-.97,20.08-.97,20.08-1.78-.12-3.74-.21-5.82-.3.64-2.11-5.1-6.46-7.51-7.68Z"/>
        <path class="cls-9" d="m146.07,66.63l-3.45,1.34-1.6-2.4,2.18-1.26c.25.42.68.64.68.64,0,0,.8.23,1.26.61.46.38.61.69.61.69,0,0,.12.14.32.38Z"/>
        <path class="cls-7" d="m117.34,41.37l-2.6.13s-13.46,19.74-18.02,27.41c-1.85,3.12-3.1,5.49-4.06,7.67h-.51c-4.11,0-13.55-14.22-13.55-14.22,4.04-6.87,11.21-18.77,14.01-20.12,3.54-1.72,10.95-3.54,16.55-3.66,3.67-.08,6.48-.05,7.98-.03,0,0,.05,1.13.21,2.83Z"/>
        <path class="cls-1" d="m103.81,135.7c2.41,1.22,8.15,5.57,7.51,7.68-6.09-.26-13.19-.44-19.94-.9.39-.24,10.53-6.94,11.5-7.1.14-.03.49.1.93.33Z"/>
        <path class="cls-1" d="m71.61,133.28c2.4,3.43,3.83,6.03-.48,6.04-.85-.31-1.6-.65-2.26-1.01-12.66-2.41-23.17-4.46-26.81-10.16,0,0,18.83-10.72,21.38-13.08,0,0,5.78,14.79,8.17,18.21Z"/>
        <path class="cls-5" d="m63.44,111.61c3,.11,2.57,1.1,0,3.46-2.55,2.35-21.38,13.08-21.38,13.08l-9.59,2.62-.04-.02-.1-.06-15.04-10.18s43.16-9.01,46.15-8.9Z"/>
      </g>
      <g>
        <path class="cls-11" d="m150.36,52.42c-1.62.71-3.45,1.3-5.4,1.75-.03,0-.06.02-.09.03-5.81,1.37-13.35-1.83-16.2-3.43-2.85-1.59-4.19-5.74-4.58-8.55-.36-2.74,1.31-6.43,1.39-6.64"/>
        <path class="cls-11" d="m160.74,18.88h0c.2,2.4.2,4.88.05,7.37-.49,9.35-2.86,18.56-3.94,20.99-.18.42-.42.8-.71,1.19-1.18,1.54-3.22,2.9-5.77,3.99"/>
        <path class="cls-11" d="m142.38,31.61s5.34.57,6.71,1.03"/>
        <path class="cls-11" d="m145.73,23.63s5.3.45,5.75.68"/>
        <path class="cls-11" d="m157.42,26.25s2.15.11,3.37,0c.04,0,.07,0,.1,0"/>
        <path class="cls-11" d="m155.02,34c-.45,5.48-3.65,10.96-4.33,11.3-.69.34-1.19.11-2.08,0"/>
        <path class="cls-11" d="m147.26,42.23s-1.57,1.48-1.53,2.5"/>
        <path class="cls-11" d="m144.87,48.61s1.37.58,2.4.58"/>
        <path class="cls-11" d="m155.82,35.38s2.76-.27,3.34,0"/>
        <path class="cls-12" d="m161.76,65.17s6.99.81,8.57,1.28c.05.02.1.03.13.05"/>
        <path class="cls-11" d="m149.38,59.53l-.46-.52s-1.34-.9-2.78-1.56l-.08-.03c-.52-.2-1.53-.31-1.76-.44-.43-.26-.69-.78-.48-1.17.23-.45.92-.8,1.33-.88.05,0,.11-.02.15-.02.62,0,3.49.8,4.71,1.48.69.39,1.89,1.17,2.98,2.1.86.72,1.63,1.54,2.03,2.33.24.48.76,1,1.41,1.53,1.81,1.45,4.66,2.81,5.33,2.81"/>
        <path class="cls-11" d="m145.57,60.34c.23.09.44.21.61.34.45.38.62.69.62.69"/>
        <path class="cls-11" d="m146.01,57.54s-1.35.5-1.52.86c-.52,1.09.2,1.67.2,1.67,0,0,.43.09.87.26"/>
        <path class="cls-11" d="m145.64,60.34h-.08c-.35,0-1.58.07-1.73.38-.53,1.09.52,1.82.52,1.82,0,0,.24.05.53.15.33.11.72.26.96.46.46.38.62.69.62.69"/>
        <path class="cls-11" d="m144.89,62.69s-1.6.09-1.77.44c-.23.47-.12.87.08,1.18.25.42.68.64.68.64,0,0,.8.23,1.26.61.46.38.61.69.61.69"/>
        <path class="cls-11" d="m145.75,66.25s.12.14.32.38c.77.94,2.83,3.35,4.3,4.12.92.49,2.42,1.26,3.82,1.89,1.37.62,2.64,1.13,3.14,1.13,1.03,0,3,1.09,3,1.09"/>
        <polyline class="cls-11" points="153.41 58.23 161.44 54.15 180.02 44.73 182.9 50.09 164.06 58.82 156.43 62.35"/>
        <polyline class="cls-11" points="143.21 64.32 143.2 64.32 141.02 65.57 142.62 67.97 146.07 66.63"/>
        <path class="cls-12" d="m158.73,76c1.55,4.79,15.35,7.65,19.12,7.53"/>
        <path class="cls-11" d="m161.76,65.17s.37,6.92-1.44,9.7c-.42.63-.93,1.05-1.59,1.13"/>
        <path class="cls-11" d="m158.73,76s2.04,19.13,5.08,26.71c7.42,18.48,30.24,41.76,34.91,42.21-.93.58-1.86,1.04-2.87,1.32-2.6.75-5.73.38-10.82-2.01-4.44-2.07-11.53-9.18-17.01-17.38-3.25-4.86-5.92-10.11-7.13-14.9-2.92-11.62-6.33-30.98-6.7-37.61-.05-.73-.05-1.3,0-1.7"/>
        <path class="cls-11" d="m156.13,48.44s4.43,4.12,5.31,5.72"/>
        <path class="cls-11" d="m32.33,130.69c-1.32-.8-12.14-7.51-15.04-10.18,2.85-7.65,11.76-27.73,11.76-27.73,11.87-.8,29.67-.57,35.6-7.18,5.93-6.63,9.24-15.27,11.53-19.11.48-.81,1.34-2.29,2.42-4.13,4.04-6.87,11.21-18.77,14.01-20.12,3.54-1.72,10.95-3.54,16.55-3.66,3.67-.08,6.48-.05,7.98-.03.78,0,1.2.03,1.2.03.38-.14.72-.27,1.04-.42h0c2.05-.9,3.09-1.98,6.09-2.56,0,0,0,0,0,0,.72-.14,1.55-.25,2.53-.33"/>
        <path class="cls-11" d="m150.91,150.63c-10.95,1.02-29.66.23-33.77-6.95-1.78-.12-3.74-.21-5.82-.3-6.09-.26-13.19-.44-19.94-.9-8.01-.52-15.54-1.39-20.25-3.15-.85-.31-1.6-.65-2.26-1.01-12.66-2.41-23.17-4.46-26.81-10.16-8.79,2.62-9.59,2.62-9.59,2.62"/>
        <path class="cls-11" d="m164.06,58.82s2.18,5.04,3.47,5.5c.44.16,1.69.5,3.16,1.01,2.85.98,6.57,2.6,7.14,4.83.69,2.63,1.99,8.64,5.18,13.31.9,1.32,1.94,2.52,3.15,3.53,5.55,4.57,10.72,12.29,11.3,12.85,8.33,3.08,12.66,4.45,12.66,4.45.46.02.91.03,1.37.04,13.56.35,21.74-.66,23.06.88,1.37,1.6,7.52,16.2,7.52,16.2,7.2,6.96,17.76,18.86,18.08,25.18-13.51,0-31.2-.31-37.59-4.4-13,3.19-26.36,5.24-26.36,5.24h0c-.45.28-14.99,8.91-19.15,9.24-4.23.34-10.5.8-18.32-2.63l-7.81-3.42"/>
        <path class="cls-12" d="m78.6,62.35s9.44,14.22,13.55,14.22"/>
        <path class="cls-12" d="m114.74,41.5s-13.46,19.74-18.02,27.41c-1.85,3.12-3.1,5.49-4.06,7.67-1.39,3.19-2.15,5.98-3.25,10.04-1.83,6.84.45,13.69,0,18.48"/>
        <path class="cls-12" d="m117.78,58.24c0,.69,1.46,2.59-.84,6.61-2.28,4.04-10.64,17.2-11.7,22.99-1.08,5.78-2.36,13.31-2.36,13.31"/>
        <path class="cls-12" d="m66.48,112.6c6.59,1.46,15.65,3.35,17.61,3.45,3.19.15,17.8,5.18,21.15,1.67"/>
        <path class="cls-12" d="m31.29,101.15s24.46,9.73,29.33,9.73"/>
        <path class="cls-11" d="m17.29,120.51s43.16-9.01,46.15-8.9c3,.11,2.57,1.1,0,3.46-2.55,2.35-21.38,13.08-21.38,13.08l-9.59,2.62-.04-.02-.1-.06-15.04-10.18Z"/>
        <path class="cls-11" d="m63.44,115.07s5.78,14.79,8.17,18.21c2.4,3.43,3.83,6.03-.48,6.04"/>
        <path class="cls-11" d="m56.21,127.2s7.96,10.21,9.93,10.58"/>
        <path class="cls-11" d="m91.37,142.48h0c.39-.25,10.53-6.95,11.5-7.11.14-.03.49.1.93.33,2.41,1.22,8.15,5.57,7.51,7.68"/>
        <path class="cls-11" d="m103.81,135.7s7.59-3.45,9.87-5.5"/>
        <path class="cls-11" d="m154.19,74.34s-1.01-3.72-9.12-3.55c-9.02.18-15.26,11.02-19.14,23.13-3.89,12.09-6.74,23.04-7.82,29.67-1.09,6.61-.97,20.08-.97,20.08"/>
        <path class="cls-12" d="m117.13,38.54s.05,1.13.21,2.83c.41,4.34,1.51,12.45,4.24,15.11,4.46,4.34,13.47,5.94,15.07,5.6"/>
        <path class="cls-12" d="m185.95,99.37c.89,4.8,1.7,9.51,2.05,12.24.91,7.19,8.67,15.59,8.67,15.59"/>
        <path class="cls-12" d="m182.9,83.53s1.61,8.01,3.05,15.82"/>
        <polyline class="cls-12" points="219 128.71 185.95 99.37 185.95 99.36"/>
        <polyline class="cls-11" points="222.57 142.19 231.6 135.37 219 128.71"/>
        <path class="cls-11" d="m211.5,104.34s5.94,13.43,6.62,14.63c.3.51.56,1.75.75,3.27.26,2.09.37,4.68.13,6.47"/>
        <path class="cls-11" d="m219.13,122.22s20.22,1.14,22.95-.8"/>
        <path class="cls-11" d="m128.02,35.26l1.07.05c.11-3.81.8-5.68,1.25-6.75.46-1.06,1.3-1.83,2.43-1.37,1.15.45,2.13,1.67,2.21,6.24.84,0,2.21-1.99,4.11-3.65,1.9-1.67,9.36-12.03,9.88-13.11.53-1.08,2.36-.28,3.27.56.91.83,2.36,1.6,3.65,1.82,1.29.24,2.36.24,4.03,0,.33-.05.59-.09.8-.16.9-.31.95-.83.95-1.5,0-.84-3.27-6.09-3.66-7.46h3.27v-1.67h-5.4l-.08-1.37s.76-.15,2.75-1.13c1.97-.99,4.71-3.58,4.49-4.42-.24-.84-3.05-1.14-4.41-.45-1.37.69-5.25,2.13-6.62,2.59-1.37.45-7.91-2.5-9.21-2.05-1.29.46-3.31,2.35-7.64,7.04-4.34,4.68-11.76,16.67-14.15,24.42-.73,2.1-1.56,2.69-2.7,4.21,0,0,.22.24.67.14.24-.05.52-.2.86-.51,2.03-1.89,4.37-7.08,6.56-11.57.13-.25.25-.51.37-.76.88-1.75,1.71-3.35,2.5-4.57,2.88-4.4,8.21-11.33,8.21-11.33h5.33s-8.6,10.96-10.35,12.25c-1.34.99-2.78,2.85-3.61,4.34-.12.21-.23.42-.32.61-.11.23-.19.43-.25.61-.5,1.49-.88,5.39-.72,6.65.16,1.26.46,2.31.46,2.31Z"/>
        <path class="cls-11" d="m132.01,41.5s-.67,4.9.92,6.66c1.6,1.77,7.52,4.68,9.54,4.79,2,.11,5.97.31,7.89-.53h0"/>
        <path class="cls-11" d="m150.92,150.63h0c-.08-.21-1.43-3.46-1.73-5.98"/>
        <path class="cls-11" d="m168.02,126.86c-.33,2.62-.06,7.46.74,9.62"/>
      </g>
    </g>
  </g>
</svg>