<?xml version="1.0" encoding="UTF-8"?>
<svg id="_レイヤー_1" data-name="レイヤー 1" xmlns="http://www.w3.org/2000/svg" viewBox="0 0 269.58 173.97">
  <defs>
    <style>
      .cls-1 {
        fill: #bc96af;
      }

      .cls-1, .cls-2, .cls-3, .cls-4, .cls-5, .cls-6, .cls-7 {
        stroke-width: 0px;
      }

      .cls-2 {
        fill: #fdfbef;
      }

      .cls-3 {
        fill: #eecaaa;
      }

      .cls-8 {
        stroke: #000;
      }

      .cls-8, .cls-9 {
        fill: none;
        stroke-linecap: round;
        stroke-linejoin: round;
      }

      .cls-4 {
        fill: #c25c50;
      }

      .cls-5 {
        fill: #333;
      }

      .cls-9 {
        stroke: #eee;
      }

      .cls-6 {
        fill: #3c3834;
      }

      .cls-7 {
        fill: #f7e4c6;
      }
    </style>
  </defs>
  <g>
    <path class="cls-2" d="m249.09,134.22c7.96,7.7,19.64,20.86,19.99,27.85-14.94,0-34.5-.34-41.57-4.87l9.97-7.53-13.93-7.37c.27-1.98.15-4.84-.14-7.15l.29-.03s22.36,1.26,25.38-.89Z"/>
    <path class="cls-2" d="m240.77,116.29c1.51,1.77,8.32,17.92,8.32,17.92-3.02,2.14-25.38.89-25.38.89l-.29.03c-.21-1.68-.5-3.06-.83-3.63-.75-1.32-7.32-16.17-7.32-16.17h0c15,.38,24.04-.74,25.5.96Z"/>
    <path class="cls-6" d="m169.74,73.42l.42-1.24c3.15,1.09,7.27,2.89,7.9,5.34.76,2.92,2.2,9.56,5.73,14.73l-.14.07s1.78,8.87,3.37,17.51l36.54,32.45,13.93,7.37-9.97,7.53c-14.38,3.53-29.15,5.8-29.15,5.8h0s-.39-1.31-.39-1.31c1.12-.32,2.14-.82,3.17-1.46-5.17-.5-30.41-26.24-38.61-46.69-3.36-8.38-5.62-29.54-5.62-29.54.73-.09,1.3-.55,1.76-1.25,2.01-3.08,1.59-10.73,1.59-10.73,0,0,7.73.9,9.48,1.41Z"/>
    <path class="cls-6" d="m223.42,135.14c.29,2.3.41,5.17.14,7.15l-36.54-32.45c-1.59-8.64-3.37-17.51-3.37-17.51l.14-.07c.99,1.45,2.14,2.79,3.48,3.89,6.14,5.05,11.86,13.59,12.49,14.21,9.21,3.41,14.01,4.92,14.01,4.92.5.02,1.01.03,1.5.04h0s6.57,14.86,7.32,16.18c.33.56.62,1.95.83,3.63Z"/>
    <path class="cls-4" d="m201.14,160.21c-1.03.64-2.06,1.15-3.17,1.46-2.87.83-6.34.42-11.97-2.22-4.9-2.29-12.75-10.15-18.81-19.22-3.59-5.38-6.54-11.18-7.89-16.49-3.23-12.85-7-34.26-7.4-41.59-.05-.81-.05-1.44,0-1.88,1.51.69,2.92,1.25,3.47,1.25,1.14,0,3.31,1.22,3.31,1.22-.45.69-1.03,1.16-1.76,1.25,0,0,2.26,21.15,5.62,29.54,8.2,20.44,33.44,46.18,38.61,46.69Z"/>
    <path class="cls-1" d="m167.19,140.24c6.06,9.06,13.91,16.92,18.81,19.22,5.63,2.64,9.1,3.05,11.97,2.22l.39,1.32c-.5.3-16.59,9.85-21.18,10.21-4.68.38-11.61.88-20.26-2.91l-8.64-3.79c-12.11,1.14-32.81.26-37.34-7.69,0,0-.13-14.9,1.07-22.21,1.2-7.32,4.35-19.43,8.65-32.81,4.29-13.38,11.19-25.37,21.17-25.58,8.96-.18,10.08,3.93,10.08,3.93.41,7.32,4.17,28.73,7.4,41.59,1.34,5.31,4.3,11.11,7.89,16.49Z"/>
    <path class="cls-7" d="m180.45,49.41l3.19,5.93-20.84,9.65-8.44,3.9c-.71-.57-1.29-1.16-1.55-1.69-.44-.88-1.29-1.78-2.24-2.58l.46-.29,8.88-4.51,20.54-10.42Z"/>
    <path class="cls-6" d="m170.15,72.19l-.42,1.24c-1.75-.51-9.48-1.41-9.48-1.41-.74,0-3.88-1.51-5.89-3.11l8.44-3.9s2.41,5.57,3.85,6.08c.48.18,1.87.55,3.5,1.12Z"/>
    <path class="cls-5" d="m159.13,20.84c-.24.08-.53.14-.89.19-1.85.26-3.03.26-4.46,0-1.43-.25-3.03-1.1-4.04-2.02-1.01-.93-3.02-1.81-3.62-.61-.58,1.2-8.83,12.64-10.93,14.49s-3.62,4.04-4.55,4.04c-.08-5.05-1.18-6.4-2.44-6.9-1.26-.5-2.18.34-2.69,1.51s-1.27,3.25-1.38,7.46l-1.18-.07s-.34-1.17-.51-2.56c-.17-1.38.26-5.69.8-7.34.07-.21.16-.43.28-.68.81-1.71,2.66-4.22,4.35-5.47,1.94-1.43,11.45-13.55,11.45-13.55h-5.89s-5.89,7.66-9.08,12.53c-1,1.52-2.07,3.63-3.17,5.88-2.42,4.97-5,10.72-7.26,12.8-.38.35-.69.5-.95.56-.49.11-.74-.15-.74-.15,1.27-1.68,2.18-2.34,3-4.67,2.65-8.58,10.84-21.84,15.65-27.01,4.79-5.18,7.02-7.28,8.45-7.78s8.66,2.77,10.18,2.26c1.51-.5,5.8-2.1,7.31-2.86s4.63-.43,4.88.5c.25.93-2.78,3.79-4.96,4.88-2.19,1.09-3.03,1.26-3.03,1.26l.09,1.52h5.97v1.85h-3.62c.43,1.51,4.04,7.31,4.04,8.24,0,.74-.06,1.32-1.05,1.66Z"/>
    <path class="cls-3" d="m139.74,71.07c-.22-.35-.34-.79-.09-1.31.19-.39,1.97-.48,1.97-.48-.33-.11-.59-.17-.59-.17,0,0-1.17-.81-.58-2.02.16-.34,1.52-.41,1.91-.42-.47-.19-.96-.3-.96-.3,0,0-.8-.64-.22-1.85.19-.4,1.68-.95,1.68-.95l.05-.14c-.57-.22-1.69-.34-1.95-.49-.47-.29-.76-.86-.53-1.29.25-.5,1.02-.88,1.47-.97.06,0,.12-.02.17-.02.69,0,3.86.89,5.21,1.64.76.43,2.1,1.29,3.3,2.31.95.8,1.8,1.7,2.24,2.58.27.53.84,1.12,1.55,1.69,2.01,1.6,5.15,3.11,5.89,3.11,0,0,.42,7.65-1.59,10.73,0,0-2.17-1.22-3.31-1.22-.55,0-1.96-.55-3.47-1.25-1.54-.7-3.2-1.55-4.22-2.1-1.62-.85-3.9-3.52-4.75-4.56-.22-.27-.35-.43-.35-.43,0,0-.18-.34-.68-.75-.5-.43-1.39-.67-1.39-.67,0,0-.46-.26-.75-.71Z"/>
    <path class="cls-6" d="m159.91,59.83l-8.88,4.51-.46.29c-1.21-1.03-2.54-1.89-3.3-2.31-1.34-.75-4.52-1.64-5.21-1.64-.05,0-.11,0-.17.02l-.21-.83c2.15-.5,4.18-1.16,5.97-1.94h0c2.82-1.21,5.07-2.72,6.38-4.42,0,0,4.9,4.57,5.87,6.33Z"/>
    <path class="cls-3" d="m159.19,28.98c-.54,10.34-3.16,20.53-4.36,23.21-.2.45-.46.89-.79,1.31-1.3,1.7-3.56,3.21-6.38,4.42h0c-1.79.78-3.82,1.43-5.97,1.94-.03,0-.07.02-.1.03-6.43,1.51-14.77-2.02-17.92-3.79s-4.64-6.36-5.06-9.46c-.41-3.02,1.44-7.11,1.54-7.33,0,0,0,0,0,0,.79-.16,1.71-.28,2.8-.37l1.18.07c.12-4.21.88-6.29,1.38-7.46s1.43-2.02,2.69-1.51c1.27.5,2.36,1.85,2.44,6.9.93,0,2.44-2.19,4.55-4.04s10.35-13.29,10.93-14.49c.59-1.2,2.61-.32,3.62.61,1.01.92,2.61,1.77,4.04,2.02,1.42.26,2.61.26,4.46,0,.36-.05.65-.11.89-.19.22,2.64.22,5.4.06,8.15Z"/>
    <path class="cls-6" d="m96.18,150.01c-.49-.25-.87-.39-1.04-.36-1.08.17-12.29,7.57-12.71,7.85-8.87-.57-17.18-1.54-22.4-3.48,4.76,0,3.18-2.9.53-6.68s-9.03-20.15-9.03-20.15c2.84-2.61,3.31-3.71,0-3.83-3.3-.12-51.03,9.84-51.03,9.84,3.15-8.45,13-30.66,13-30.66,13.13-.88,32.81-.63,39.37-7.95,6.56-7.32,10.22-16.88,12.75-21.12.53-.9,1.48-2.53,2.68-4.58,0,0,10.44,15.73,14.99,15.73h.55c1.06-2.4,2.44-5.02,4.49-8.47,5.05-8.48,19.94-30.31,19.94-30.31l2.88-.15c-.17-1.88-.23-3.12-.23-3.12.86,0,1.32.03,1.32.03.43-.15.81-.31,1.17-.46,2.26-1,3.42-2.18,6.74-2.83-.1.23-1.95,4.31-1.54,7.33.43,3.1,1.91,7.69,5.06,9.46s11.49,5.3,17.92,3.79c.03,0,.07-.02.1-.03l.21.83c-.45.09-1.23.46-1.47.97-.23.43.06,1,.53,1.29.26.16,1.37.28,1.95.49l-.05.14s-1.49.55-1.68.95c-.58,1.21.22,1.85.22,1.85,0,0,.48.11.96.3-.39,0-1.75.08-1.91.42-.58,1.21.58,2.02.58,2.02,0,0,.27.06.59.17,0,0-1.78.1-1.97.48-.25.52-.13.97.09,1.31l-2.4,1.39,1.77,2.65,3.81-1.48c.85,1.04,3.13,3.71,4.75,4.56,1.02.54,2.68,1.39,4.22,2.1-.04.43-.04,1.07,0,1.88,0,0-1.13-4.11-10.08-3.93-9.98.21-16.88,12.2-21.17,25.58-4.3,13.37-7.45,25.48-8.65,32.81-1.2,7.31-1.07,22.21-1.07,22.21-1.98-.13-4.14-.23-6.44-.33.71-2.33-5.63-7.14-8.29-8.49Z"/>
    <path class="cls-6" d="m111.14,45.7l-2.88.15s-14.89,21.83-19.94,30.31c-2.05,3.45-3.43,6.07-4.49,8.48h-.55c-4.55,0-14.99-15.74-14.99-15.74,4.47-7.59,12.41-20.76,15.49-22.25,3.91-1.9,12.11-3.91,18.3-4.04,4.06-.09,7.18-.06,8.83-.03,0,0,.06,1.25.23,3.12Z"/>
    <path class="cls-1" d="m96.18,150.01c2.66,1.35,9.01,6.16,8.29,8.49-6.73-.29-14.59-.49-22.04-1,.43-.28,11.63-7.68,12.71-7.85.17-.03.54.11,1.04.36Z"/>
    <path class="cls-1" d="m60.57,147.34c2.65,3.79,4.23,6.67-.53,6.68-.94-.35-1.77-.72-2.49-1.13-14.01-2.66-25.62-4.92-29.65-11.24,0,0,20.82-11.86,23.64-14.46,0,0,6.39,16.36,9.03,20.15Z"/>
    <path class="cls-4" d="m51.53,123.37c3.31.12,2.84,1.22,0,3.83-2.83,2.6-23.64,14.46-23.64,14.46l-10.61,2.91-.04-.02L.5,133.21s47.73-9.95,51.03-9.84Z"/>
  </g>
  <g>
    <path class="cls-8" d="m147.65,57.93c-1.79.78-3.82,1.43-5.97,1.94-.03,0-.07.02-.1.03-6.43,1.51-14.77-2.02-17.92-3.79s-4.64-6.36-5.06-9.46c-.41-3.02,1.44-7.11,1.54-7.33"/>
    <path class="cls-8" d="m159.13,20.83h0c.22,2.65.22,5.41.06,8.15-.54,10.34-3.16,20.53-4.36,23.21-.2.45-.46.89-.79,1.31-1.3,1.7-3.56,3.21-6.38,4.42"/>
    <path class="cls-8" d="m138.83,34.9s5.91.63,7.42,1.14"/>
    <path class="cls-8" d="m142.54,26.08s5.85.5,6.36.75"/>
    <path class="cls-8" d="m155.46,28.97s2.37.12,3.73,0c.04,0,.08,0,.11,0"/>
    <path class="cls-8" d="m152.81,37.55c-.5,6.06-4.04,12.12-4.79,12.49-.76.39-1.31.13-2.3,0"/>
    <path class="cls-8" d="m144.23,46.65s-1.74,1.64-1.69,2.77"/>
    <path class="cls-8" d="m141.58,53.7s1.51.63,2.65.63"/>
    <path class="cls-8" d="m153.69,39.08s3.04-.31,3.69,0"/>
    <path class="cls-9" d="m160.26,72.01s7.73.9,9.48,1.41c.05.02.11.03.15.05"/>
    <path class="cls-8" d="m146.57,65.78l-.5-.58s-1.48-1-3.07-1.73l-.09-.03c-.57-.22-1.69-.34-1.95-.49-.47-.29-.76-.86-.53-1.29.25-.5,1.02-.88,1.47-.97.06,0,.12-.02.17-.02.69,0,3.86.89,5.21,1.64.76.43,2.1,1.29,3.3,2.31.95.8,1.8,1.7,2.24,2.58.27.53.84,1.12,1.55,1.69,2.01,1.6,5.15,3.11,5.89,3.11"/>
    <path class="cls-8" d="m142.85,63.58s-1.49.55-1.68.95c-.58,1.21.22,1.85.22,1.85,0,0,.48.11.96.3.26.1.5.23.68.38.5.43.69.76.69.76"/>
    <path class="cls-8" d="m142.44,66.67h-.1c-.39,0-1.75.08-1.91.42-.58,1.21.58,2.02.58,2.02,0,0,.27.06.59.17.37.12.8.29,1.06.5.5.43.69.76.69.76"/>
    <path class="cls-8" d="m141.61,69.27s-1.78.1-1.97.48c-.25.52-.13.97.09,1.31.29.45.75.71.75.71,0,0,.89.25,1.39.67.5.42.68.75.68.75"/>
    <path class="cls-8" d="m142.56,73.21s.13.16.35.43c.85,1.04,3.13,3.71,4.75,4.56,1.02.54,2.68,1.39,4.22,2.1,1.51.69,2.92,1.25,3.47,1.25,1.14,0,3.31,1.22,3.31,1.22"/>
    <polyline class="cls-8" points="151.03 64.34 159.91 59.83 180.45 49.41 183.64 55.35 162.81 64.99 154.37 68.9"/>
    <polyline class="cls-8" points="139.75 71.07 139.74 71.07 137.33 72.47 139.1 75.11 142.91 73.63"/>
    <path class="cls-9" d="m156.91,83.99c1.71,5.3,16.98,8.46,21.14,8.33"/>
    <path class="cls-8" d="m160.26,72.01s.42,7.65-1.59,10.73c-.45.69-1.03,1.16-1.76,1.25"/>
    <path class="cls-8" d="m156.91,83.99s2.26,21.15,5.62,29.54c8.2,20.44,33.44,46.18,38.61,46.69-1.03.64-2.06,1.15-3.17,1.46-2.87.83-6.34.42-11.97-2.22-4.9-2.29-12.75-10.15-18.81-19.22-3.59-5.38-6.54-11.18-7.89-16.49-3.23-12.85-7-34.26-7.4-41.59-.05-.81-.05-1.44,0-1.88"/>
    <path class="cls-8" d="m154.04,53.51s4.9,4.57,5.87,6.33"/>
    <path class="cls-8" d="m17.24,144.55c-.79-.48-13.44-8.28-16.74-11.34,3.15-8.45,13-30.66,13-30.66,13.13-.88,32.81-.63,39.37-7.95,6.56-7.32,10.22-16.88,12.75-21.12.53-.9,1.48-2.53,2.68-4.58,4.47-7.59,12.41-20.76,15.49-22.25,3.91-1.9,12.11-3.91,18.3-4.04,4.06-.09,7.18-.06,8.83-.03.86,0,1.32.03,1.32.03.43-.15.81-.31,1.17-.46,2.26-1,3.42-2.18,6.74-2.83,0,0,0,0,0,0,.79-.16,1.71-.28,2.8-.37"/>
    <path class="cls-8" d="m162.81,64.99s2.41,5.57,3.85,6.08c.48.18,1.87.55,3.5,1.12,3.15,1.09,7.27,2.89,7.9,5.34.76,2.92,2.2,9.56,5.73,14.73.99,1.45,2.14,2.79,3.48,3.89,6.14,5.05,11.86,13.59,12.49,14.21,9.21,3.41,14.01,4.92,14.01,4.92.5.02,1.01.03,1.5.04,15,.39,24.04-.73,25.5.97,1.51,1.77,8.32,17.92,8.32,17.92,7.96,7.7,19.64,20.86,19.99,27.85-14.94,0-34.5-.34-41.57-4.87-14.38,3.53-29.15,5.8-29.15,5.8h0c-.5.31-16.59,9.86-21.18,10.22-4.68.38-11.61.88-20.26-2.91l-8.64-3.79c-12.11,1.14-32.81.26-37.34-7.69-1.98-.13-4.14-.23-6.44-.33-6.73-.29-14.59-.49-22.04-1-8.87-.57-17.18-1.54-22.4-3.48-.94-.35-1.77-.72-2.49-1.13-14.01-2.66-25.62-4.92-29.65-11.24-9.72,2.91-10.61,2.91-10.61,2.91"/>
    <path class="cls-9" d="m68.3,68.9s10.44,15.73,14.99,15.73"/>
    <path class="cls-9" d="m108.26,45.85s-14.89,21.83-19.94,30.31c-2.05,3.45-3.43,6.07-4.49,8.48-1.54,3.53-2.38,6.6-3.59,11.1-2.02,7.56.5,15.13,0,20.44"/>
    <path class="cls-9" d="m111.63,64.35c0,.76,1.6,2.86-.93,7.31-2.52,4.47-11.77,19.02-12.95,25.41-1.19,6.4-2.61,14.72-2.61,14.72"/>
    <path class="cls-9" d="m54.9,124.47c7.29,1.62,17.32,3.72,19.47,3.82,3.53.17,19.68,5.72,23.39,1.85"/>
    <path class="cls-9" d="m15.98,111.8s27.05,10.76,32.44,10.76"/>
    <path class="cls-8" d="m.5,133.21s47.73-9.95,51.03-9.84c3.31.12,2.84,1.22,0,3.83-2.83,2.6-23.64,14.46-23.64,14.46l-10.61,2.91-.04-.02L.5,133.21Z"/>
    <path class="cls-8" d="m51.53,127.2s6.39,16.36,9.03,20.15,4.23,6.67-.53,6.68"/>
    <path class="cls-8" d="m43.54,140.61s8.8,11.29,10.98,11.7"/>
    <path class="cls-8" d="m82.42,157.51h0c.43-.29,11.63-7.69,12.71-7.86.17-.03.54.11,1.04.36,2.66,1.35,9.01,6.16,8.29,8.49"/>
    <path class="cls-8" d="m96.18,150.01s8.38-3.81,10.9-6.08"/>
    <path class="cls-8" d="m151.89,82.16s-1.13-4.11-10.08-3.93c-9.98.21-16.88,12.2-21.17,25.58-4.3,13.37-7.45,25.48-8.65,32.81-1.2,7.31-1.07,22.21-1.07,22.21"/>
    <path class="cls-9" d="m110.91,42.57s.06,1.25.23,3.12c.45,4.8,1.67,13.77,4.7,16.72,4.92,4.79,14.9,6.57,16.67,6.19"/>
    <path class="cls-9" d="m183.64,92.32s1.78,8.87,3.37,17.51c.98,5.31,1.88,10.52,2.26,13.54,1.01,7.95,9.59,17.24,9.59,17.24"/>
    <polyline class="cls-9" points="223.56 142.28 187.02 109.83 187.01 109.82"/>
    <polyline class="cls-8" points="227.51 157.19 237.49 149.66 223.56 142.28"/>
    <path class="cls-8" d="m215.27,115.34s6.57,14.85,7.32,16.17c.33.56.62,1.95.83,3.63.29,2.3.41,5.17.14,7.15"/>
    <path class="cls-8" d="m223.71,135.11s22.36,1.26,25.38-.89"/>
    <path class="cls-8" d="m122.95,38.94l1.18.07c.12-4.21.88-6.29,1.38-7.46s1.43-2.02,2.69-1.51c1.27.5,2.36,1.85,2.44,6.9.93,0,2.44-2.19,4.55-4.04s10.35-13.29,10.93-14.49c.59-1.2,2.61-.32,3.62.61,1.01.92,2.61,1.77,4.04,2.02,1.42.26,2.61.26,4.46,0,.36-.05.65-.11.89-.19.99-.34,1.05-.92,1.05-1.66,0-.93-3.62-6.73-4.04-8.24h3.62v-1.85h-5.97l-.09-1.52s.84-.17,3.03-1.26c2.18-1.1,5.21-3.95,4.96-4.88-.26-.93-3.37-1.27-4.88-.5s-5.8,2.35-7.31,2.86c-1.52.5-8.75-2.77-10.18-2.26s-3.66,2.6-8.45,7.78c-4.8,5.17-13,18.43-15.65,27.01-.81,2.32-1.73,2.99-3,4.67,0,0,.25.26.74.15.26-.06.57-.22.95-.56,2.25-2.09,4.83-7.83,7.26-12.8,1.11-2.25,2.17-4.36,3.17-5.88,3.19-4.87,9.08-12.53,9.08-12.53h5.89s-9.51,12.12-11.45,13.55c-1.69,1.25-3.54,3.76-4.35,5.47-.12.25-.21.47-.28.68-.54,1.65-.97,5.96-.8,7.34.18,1.39.51,2.56.51,2.56Z"/>
    <path class="cls-8" d="m125.55,45.85s.39,6.23,2.14,8.17c1.77,1.96,9.01,4.36,11.23,4.49,2.21.12,6.6.35,8.73-.58h0"/>
    <path class="cls-8" d="m148.27,166.52s-1.58-3.74-1.92-6.6"/>
    <path class="cls-8" d="m167.19,140.24c-.37,2.9-.07,8.24.82,10.64"/>
  </g>
</svg>