<?xml version="1.0" encoding="UTF-8"?>
<svg id="_レイヤー_1" data-name="レイヤー 1" xmlns="http://www.w3.org/2000/svg" viewBox="0 0 261.13 196.2">
  <defs>
    <style>
      .cls-1, .cls-2 {
        fill: none;
        stroke: #000;
        stroke-miterlimit: 10;
      }

      .cls-3 {
        fill: #b7dbe7;
      }

      .cls-3, .cls-4, .cls-5, .cls-6, .cls-7 {
        stroke-width: 0px;
      }

      .cls-2 {
        stroke-width: 3px;
      }

      .cls-4 {
        fill: #333;
      }

      .cls-5 {
        fill: #e02f17;
      }

      .cls-6 {
        fill: #faf3e1;
      }

      .cls-7 {
        fill: #f1d7b6;
      }
    </style>
  </defs>
  <g>
    <path class="cls-3" d="m72.53,165.81c-.86,5.83-5.13,15.72-10.07,23.72l-5.61-.85-2.74.13c2.03-.89,10.45-11.64,13.97-17.94s1.88-16.53,1.88-16.53c.79-.21,1.91-.44,2.89-.42,0,1.5-.01,9.73-.32,11.89Z"/>
    <path class="cls-3" d="m65.02,158.21l-2.27-.8c3.03-1.12,5.33-2.94,5.33-2.94-1.02,17.36-16.17,26.72-22.47,29.45l1.87-13.28s12.35-5.51,17.54-12.43Z"/>
    <path class="cls-6" d="m182.12,115.06l15.45,12.64c-3.79.69-7.63,1.34-11.48,1.95l-.22-1.38-3.75-13.21Z"/>
    <path class="cls-6" d="m257.65,171.57c-10.75-1.19-16.54-9.77-21.51-15.39-.04-4.69-3-9.72-8.06-13.46,0,0,2.89-.24,4.44-.86,0,0,17.67,23.21,25.13,29.71Z"/>
    <path class="cls-6" d="m257.65,171.57c.84.73,1.55,1.25,2.09,1.5-10.47,3.27-31.4,7.47-42.25,3.07,7.44-5.05,13.66-10.17,15.98-12.82,1.84-2.11,2.69-4.57,2.67-7.14,4.97,5.62,10.76,14.2,21.51,15.39Z"/>
    <path class="cls-5" d="m153.18,171.47c-2.06.32-9.2.53-15.14,2.74-5.96,2.22-17.75,1.02-17.75,1.02,2.36-.64,4.77-1.78,7.02-3.06,5.11-2.89,15.15-9.53,16.68-9.87,1.54-.34,6.13,5.27,7.32,7.49.39.72.93,1.34,1.87,1.68Z"/>
    <path class="cls-6" d="m106.12,138.13v.17s40.43-2.33,79.97-8.65c3.85-.61,7.69-1.26,11.48-1.95,0,0,15.87-1.4,18.76,0,2.9,1.41,16,11.45,17.03,12.98.33.49-.1.88-.84,1.18-1.55.62-4.44.86-4.44.86-6.55.73-16.55,2.22-20.94,3.58,0,0-29.95,17.7-41.02,22.3-7.41,3.08-11.01,3.56-12.93,2.87h-.01c-.94-.34-1.48-.96-1.87-1.68-1.19-2.22-5.78-7.83-7.32-7.49-1.53.34-11.57,6.98-16.68,9.87-2.25,1.28-4.66,2.42-7.02,3.06-3,.83-5.92.85-8.3-.68-2.79-1.78-6.75-10.83-9.58-18.9-1.03-2.92-1.9-5.71-2.52-7.99-.27-1.02-.5-1.94-.66-2.72,1.33-2.29,3.72-4.56,6.89-6.81Z"/>
    <path class="cls-4" d="m138.12,44.47c-.09,1.88-1.53,5.22-3.3,6.02,1.75-.84,3.19-4.23,3.3-6.11v.09Z"/>
    <path class="cls-7" d="m138.12,44.34c-.02-.87-.61-1.75-1.26-2.32-.04-.06-.09-.11-.14-.14.73.53,1.45,1.48,1.4,2.46Z"/>
    <path class="cls-7" d="m138.12,44.38c-.11,1.88-1.55,5.27-3.3,6.11h0c-.12.05-.25.1-.37.13-.27.07-.54.07-.82-.01,2.18.54,3.54-4.72,3.64-7.01.04-.72-.12-1.23-.4-1.58.65.57,1.24,1.45,1.26,2.32v.04Z"/>
    <path class="cls-7" d="m136.72,41.88s.1.08.14.14c-.31-.27-.63-.47-.9-.56.23.07.48.21.74.4.01,0,.02.02.02.02Z"/>
    <path class="cls-4" d="m134.81,50.49c-.12.06-.25.1-.37.13.12-.03.25-.08.37-.13Z"/>
    <path class="cls-4" d="m138.73,44.5c-.26,4.14-.75,9.02-1.46,10.65-1.16,2.62-2.69,5.24-2.94,5.3-.26.06-2.61,0-2.61,0l-.18-5.81c.65-1.28,1.23-2.67,1.76-4.15.11.05.21.09.32.12.28.08.55.08.82.01.12-.03.25-.07.37-.13h0c1.77-.8,3.21-4.14,3.3-6.02l.61.03Z"/>
    <path class="cls-4" d="m145.18,8.62c4.21,4.6,6.64,7.85,5.36,12.25-1.02,3.52-6.06,2.3-7.21,2.81s-4.47,12.26-4.41,15c.03,1.04-.04,3.29-.19,5.82l-.61-.03v-.13c.05-.98-.67-1.93-1.4-2.46,0,0,0-.02-.02-.02-.21-.21-.46-.34-.74-.4-.05-.02-.11-.03-.16-.04,1.41-6.23,1.88-12-1.46-15.83-.77-.88-2.82-1.12-4.03-1.78-1.85-1-2.82-1.9-4.86-1.78-.93.05-1.87.21-2.78.45h0c1.64-1.87,6.3-5.15,9.21-6.75.71-.39.66-1.44-.08-1.76-4.06-1.8-7.7-2.91-8.64-4.39-1.09-1.73-1.25-9.9,4.05-9.01,3.83.83,13.76,3.45,17.97,8.05Z"/>
    <path class="cls-7" d="m113.79,66.14l-.02-.28s.06.01.09.02c-.02.09-.05.17-.07.26Z"/>
    <path class="cls-6" d="m110.25,69.7c.06.04.13.07.2.1-.23.2-.48.41-.76.65-.02-.14-.03-.28-.04-.43.29-.14.49-.25.6-.32Z"/>
    <path class="cls-6" d="m109.65,70.02c0,.15.02.29.04.43-.42.37-.89.79-1.41,1.26-.07-.32-.13-.63-.17-.95.65-.3,1.17-.55,1.54-.74Z"/>
    <path class="cls-6" d="m186.09,129.65c-39.54,6.32-79.97,8.65-79.97,8.65v-.17c-.38-11.13,3.68-16.56,7.7-26.56,4.04-10.04,29.66-36.76,36.47-41.87l.11-.36c.4.13.81.25,1.21.36,3.83,1.07,14.55,3.24,17.75,6.94,3.19,3.7,7.02,7.91,7.4,18,.38,10.08,0,11.36,0,11.36l5.36,9.06,3.75,13.21.22,1.38Z"/>
    <path class="cls-6" d="m140.42,65.57c2.8,1.2,6.49,2.71,9.98,3.77l-.11.36c-6.81,5.11-32.43,31.83-36.47,41.87-4.02,10-8.08,15.43-7.7,26.56-3.17,2.25-5.56,4.52-6.89,6.81.16.78.39,1.7.66,2.72,0,0-2.32,1.17-17.21.25-1.16-.07-2.39-.15-3.7-.25-1.97-.15-3.72-.34-5.28-.57-1.1-.17-2.1-.35-3.01-.56h-.01c-9.85-2.2-9.83-6.61-10.94-11.47-1.36-5.95,4.42-15.83,9.02-23.32.79-1.29,2.34-3.2,4.39-5.51.75-.84,1.56-1.73,2.43-2.67,9.47-10.19,25.48-25.4,32.7-31.85.52-.47.99-.89,1.41-1.26.28-.24.53-.45.76-.65.35.16.77.28,1.26.36.54.1,1.15.14,1.79.15,2.09.05,4.51-.27,5.98-.61,1.19-.21,2.47-.48,3.7-.85,4.15-1.24,7.64-3.62,8.66-4.57,0,0,1.76-1,2.57-1.61,2.04.55,3.73,1.92,6.01,2.9Z"/>
    <path class="cls-7" d="m105.94,40.3c1.24-3.25,3.7-6.82,6.17-9.81h0c1.41-1.72,2.84-3.25,4.04-4.4,1.72-1.67,4.03-2.97,6.51-3.61.91-.24,1.85-.4,2.78-.45,2.04-.12,3.01.78,4.86,1.78,1.21.66,3.26.9,4.03,1.78,3.34,3.83,2.87,9.6,1.46,15.83.05.01.11.02.16.04.27.09.59.29.9.56.28.35.44.86.4,1.58-.1,2.29-1.46,7.55-3.64,7.01-.11-.03-.21-.07-.32-.12-.53,1.48-1.11,2.87-1.76,4.15l.18,5.81.06,2.02.06,1.81c-1.02.95-4.51,3.33-8.66,4.57-1.23.37-2.51.64-3.7.85-2.93.48-5.37.55-5.37.55l-.22-2.88-.1-1.23c.02-.09.05-.17.07-.26-.03-.01-.06-.01-.09-.02-.46-.11-.92-.26-1.38-.43-.06-.02-.12-.05-.18-.08-.61-.23-1.19-.49-1.73-.79-.46-.24-.89-.49-1.3-.78-.36-.23-.7-.49-1.03-.76-.25-.2-.5-.42-.73-.66-4.52-4.32-5.42-11.7-1.48-22.06Z"/>
    <path class="cls-3" d="m102.41,155.65c2.83,8.07,6.79,17.12,9.58,18.9,2.38,1.53,5.3,1.51,8.3.68,0,0,11.79,1.2,17.75-1.02,5.94-2.21,13.08-2.42,15.14-2.74h.01c1.92.69,5.52.21,12.93-2.87,11.07-4.6,41.02-22.3,41.02-22.3,4.39-1.36,14.39-2.85,20.94-3.58,5.06,3.74,8.02,8.77,8.06,13.46.02,2.57-.83,5.03-2.67,7.14-2.32,2.65-8.54,7.77-15.98,12.82-9.27,6.3-20.46,12.5-28.39,13.73-14.3,2.22-38.13,2.73-44.43,1.7-15.14,2.9-9.7,4.43-25.02,4.09-4.72-.1-9.46-.55-13.91-1.33l.35-2.07c-6.07-2.05-8.73-4.43-11.47-15.66-.62-2.54-.52-5.35.07-8.1,1.02-4.89,3.58-9.61,6.41-12.33l1.31-.52Z"/>
    <path class="cls-3" d="m74.72,154.64c2.04,3.06,5.27,7.49,8.17,7.49s9.53-1.36,7.32-5.62c-2.22-4.25-7.53-8.6-7.53-8.6,14.89.92,17.21-.25,17.21-.25.62,2.28,1.49,5.07,2.52,7.99l-1.31.52c-2.83,2.72-5.39,7.44-6.41,12.33-2.88,3.96-11.8,8.17-18.95,11.16l-2.76-.32c1.93-7.71,3.11-18.39,1.74-24.7Z"/>
    <path class="cls-3" d="m94.62,176.6c2.74,11.23,5.4,13.61,11.47,15.66l-.35,2.07c-10-1.75-18.57-5.18-22.34-10.24-9.02,4.25-14.47,4.42-14.47,4.42,1.36-.78,2.85-4.41,4.05-9.17l2.76.32c7.15-2.99,16.07-7.2,18.95-11.16-.59,2.75-.69,5.56-.07,8.1Z"/>
    <path class="cls-6" d="m108.28,71.71c-7.22,6.45-23.23,21.66-32.7,31.85l-1.88-1.18c-1.56-.92-2.9-8.85-2.9-8.85l-1.68-.16c6.67-5.49,12.94-10.37,14.62-11.41,1.07-.66,3.73-1.93,6.97-3.41,4.86-2.22,11.04-4.92,15.15-6.76.34-.16.67-.31.98-.45.46-.21.89-.4,1.27-.58.04.32.1.63.17.95Z"/>
    <path class="cls-6" d="m70.46,106.14c-3.65.11-12.71,1.88-16.51,2.37l-1.81-.19c3.25-3.4,10.31-9.47,16.98-14.95l1.68.16s1.34,7.93,2.9,8.85l1.88,1.18c-.87.94-1.68,1.83-2.43,2.67l-2.69-.09Z"/>
    <path class="cls-6" d="m59.74,135.06c1.11,4.86,1.09,9.27,10.94,11.47-10.01-.06-15.32,4.13-16.28,6.38-.1.24-.17.49-.21.76h-.08s-.59.06-4.07-.05c-5.28-.17-10.56-13.45-12.94-18.9-1.37-3.14-3.69-8.67-5.76-13-1.52-3.17-2.9-5.7-3.69-6.21,7.73-3.64,23.41-5.98,23.41-5.98.29-.35.65-.76,1.08-1.21l1.81.19c3.8-.49,12.86-2.26,16.51-2.37l2.69.09c-2.05,2.31-3.6,4.22-4.39,5.51-4.6,7.49-10.38,17.37-9.02,23.32Z"/>
    <path class="cls-3" d="m35.74,184.09c-7.49,1.7-9.87,4.93-23.83,1.87-13.96-3.07-12.09-17.53-9.87-21.96,2.21-4.43,14.29-12.43,14.63-17.02.12-1.53.44-4.81,1.02-8.68,6.11-12.24,12.76-16.1,13.65-16.58,2.07,4.33,4.39,9.86,5.76,13,2.38,5.45,7.66,18.73,12.94,18.9,3.48.11,4.07.08,4.07.04h.08c-.3,2.2,1.7,4.97,5.35,4.55,1.11-.13,2.21-.43,3.21-.8l2.27.8c-5.19,6.92-17.54,12.43-17.54,12.43l-1.87,13.28s-.79-.52-2.9-.62c-1.55-.08-3.8.07-6.97.79Z"/>
    <path class="cls-6" d="m27.65,115.51c.79.51,2.17,3.04,3.69,6.21-.89.48-7.54,4.34-13.65,16.58,1.17-7.82,3.4-18.04,7.16-21.11.71-.59,1.67-1.15,2.8-1.68Z"/>
  </g>
  <g>
    <path class="cls-1" d="m112.11,30.49c-2.47,2.99-4.93,6.56-6.17,9.81-3.94,10.36-3.04,17.74,1.48,22.06.23.24.48.46.73.66.33.27.67.53,1.03.76.41.29.84.54,1.3.78.54.3,1.12.56,1.73.79.06.03.12.06.18.08.46.17.92.32,1.38.43.03.01.06.01.09.02,1.33.31,2.67.4,4,.24l-.09.08"/>
    <path class="cls-1" d="m113.77,65.86l.02.28.1,1.23.22,2.88s2.44-.07,5.37-.55c1.19-.21,2.47-.48,3.7-.85,4.15-1.24,7.64-3.62,8.66-4.57l-.06-1.81-.06-2.02-.18-5.81c.65-1.28,1.23-2.67,1.76-4.15.11.05.21.09.32.12.28.08.55.08.82.01.12-.03.25-.07.37-.13h0c1.77-.8,3.21-4.14,3.3-6.02v-.13c-.02-.87-.61-1.75-1.26-2.32-.31-.27-.63-.47-.9-.56-.05-.02-.11-.03-.16-.04,1.41-6.23,1.88-12-1.46-15.83-.77-.88-2.82-1.12-4.03-1.78-1.85-1-2.82-1.9-4.86-1.78-.93.05-1.87.21-2.78.45-2.48.64-4.79,1.94-6.51,3.61-1.2,1.15-2.63,2.68-4.04,4.4"/>
    <path class="cls-1" d="m122.67,22.47c1.64-1.86,6.3-5.14,9.21-6.74.71-.39.66-1.44-.08-1.76-4.06-1.8-7.7-2.91-8.64-4.39-1.09-1.73-1.25-9.9,4.05-9.01,3.83.83,13.76,3.45,17.97,8.05s6.64,7.85,5.36,12.25c-1.02,3.52-6.06,2.3-7.21,2.81s-4.47,12.26-4.41,15c.03,1.04-.04,3.29-.19,5.82-.26,4.14-.75,9.02-1.46,10.65-1.16,2.62-2.69,5.24-2.94,5.3-.26.06-2.61,0-2.61,0"/>
    <path class="cls-1" d="m119.14,35.75c4.21-1.53,11.87.25,12.63,7.53"/>
    <path class="cls-1" d="m115.82,32.3c-2.16-2.54-2.69-1.59-3.7-1.81h0"/>
    <path class="cls-1" d="m117.86,39.26c1.11-.24,3.57-.49,6.55,1.3"/>
    <path class="cls-1" d="m113.43,37.66c-1.1-1.53-3.84-2.22-4.51-2.04"/>
    <path class="cls-1" d="m114.54,37.15c-1.62,2.13-6.52,6.76-5.19,8.82,1.26,1.95,2.48,1.05,2.48,1.05"/>
    <path class="cls-1" d="m104.41,53.83c1.11-.85,1.87-3.06,4.51-3.06"/>
    <path class="cls-1" d="m113.43,50.77s7.02,4.34,8.11,7.74"/>
    <path class="cls-1" d="m108.1,54.85c-.04,1.16,4.35,1.95,5.65.65"/>
    <path class="cls-1" d="m131.84,64.28s1.76-1,2.57-1.61c.13-.09.24-.18.31-.25"/>
    <path class="cls-1" d="m116.94,43.53s1.09,1.62,1.26,5.11"/>
    <path class="cls-1" d="m108.17,45.49c-.78.6-1.63,1.36-2.14,3.15"/>
    <path class="cls-1" d="m150.29,69.7c-6.81,5.11-32.43,31.83-36.47,41.87-4.02,10-8.08,15.43-7.7,26.56v.17"/>
    <path class="cls-1" d="m153.19,171.47c1.92.69,5.52.21,12.93-2.87,11.07-4.6,41.02-22.3,41.02-22.3,4.39-1.36,14.39-2.85,20.94-3.58"/>
    <path class="cls-1" d="m164.08,98.83c-.85,4.06-20.6,21.09-34.72,27.21-9.12,3.96-17.47,7.99-23.24,12.09-3.17,2.25-5.56,4.52-6.89,6.81.16.78.39,1.7.66,2.72.62,2.28,1.49,5.07,2.52,7.99,2.83,8.07,6.79,17.12,9.58,18.9,2.38,1.53,5.3,1.51,8.3.68,2.36-.64,4.77-1.78,7.02-3.06,5.11-2.89,15.15-9.53,16.68-9.87,1.54-.34,6.13,5.27,7.32,7.49.39.72.93,1.34,1.87,1.68"/>
    <path class="cls-1" d="m120.29,175.23s11.79,1.2,17.75-1.02c5.94-2.21,13.08-2.42,15.14-2.74h.01"/>
    <path class="cls-1" d="m106.12,145.11s31.58,18.04,39.49,15.32"/>
    <path class="cls-1" d="m106.12,138.3s40.43-2.33,79.97-8.65c3.85-.61,7.69-1.26,11.48-1.95"/>
    <line class="cls-1" x1="182.12" y1="115.06" x2="185.87" y2="128.27"/>
    <path class="cls-1" d="m142.46,104s-18.45,24.6-29.06,28.17"/>
    <path class="cls-1" d="m111.19,130.64c1.83-7.83,22.08-42.72,36.21-50.38"/>
    <path class="cls-1" d="m96.16,129.62s-.85-8.68-2.55-9.7"/>
    <path class="cls-1" d="m94.89,119.92l7.06-3.58c-2.72,6.13-2.38,16.68-1.02,21.96"/>
    <path class="cls-1" d="m72.85,137.31s5.27-16.03,15.65-28.8c10.39-12.77,21.38-32.34,21.38-32.34,2.6.21,5.53,1.17,9.42,1.17,5.36,0,12.54-1.83,23.16-9.97"/>
    <path class="cls-1" d="m70.69,146.53c.91.21,1.91.39,3.01.56,1.56.23,3.31.42,5.28.57,1.31.1,2.54.18,3.7.25,14.89.92,17.21-.25,17.21-.25"/>
    <path class="cls-1" d="m110.56,69.7s-.07.06-.11.1c-.23.2-.48.41-.76.65-.42.37-.89.79-1.41,1.26-7.22,6.45-23.23,21.66-32.7,31.85-.87.94-1.68,1.83-2.43,2.67-2.05,2.31-3.6,4.22-4.39,5.51-4.6,7.49-10.38,17.37-9.02,23.32,1.11,4.86,1.09,9.27,10.94,11.47"/>
    <line class="cls-1" x1="90.71" y1="78.55" x2="88.99" y2="85.7"/>
    <path class="cls-1" d="m77.78,89.45c0,.68.85,8.17.85,8.17"/>
    <path class="cls-1" d="m70.8,93.53s1.34,7.93,2.9,8.85"/>
    <path class="cls-1" d="m53.95,108.51c3.8-.49,12.86-2.26,16.51-2.37.12-.01.23-.01.34-.01"/>
    <path class="cls-1" d="m27.65,115.51c.79.51,2.17,3.04,3.69,6.21,2.07,4.33,4.39,9.86,5.76,13,2.38,5.45,7.66,18.73,12.94,18.9,3.48.11,4.07.08,4.07.04,0-.02-.16-.04-.16-.04"/>
    <path class="cls-1" d="m82.68,147.91s5.31,4.35,7.53,8.6c2.21,4.26-4.43,5.62-7.32,5.62s-6.13-4.43-8.17-7.49c1.37,6.31.19,16.99-1.74,24.7-1.2,4.76-2.69,8.39-4.05,9.17"/>
    <path class="cls-1" d="m70.69,146.53h-.01c-10.01-.06-15.32,4.13-16.28,6.38-.1.24-.17.49-.21.76-.3,2.19,1.7,4.96,5.35,4.54,1.11-.13,2.21-.43,3.21-.8,3.03-1.12,5.33-2.94,5.33-2.94-1.02,17.36-16.17,26.72-22.47,29.45l1.87-13.28s12.35-5.51,17.54-12.43"/>
    <line class="cls-1" x1="59.54" y1="154.64" x2="68.08" y2="150.04"/>
    <line class="cls-1" x1="77.78" y1="150.89" x2="83.74" y2="156.17"/>
    <path class="cls-1" d="m70.69,146.53s-2.42,5.27-1.92,7.64l.06.21c.03.09.06.18.1.26,0,0,.42-.14,1.03-.3.79-.21,1.91-.44,2.89-.42.8.02,1.52.21,1.87.72"/>
    <path class="cls-1" d="m69.96,154.34s1.64,10.23-1.88,16.53-11.94,17.05-13.97,17.94"/>
    <path class="cls-1" d="m62.46,189.53c4.94-8,9.21-17.89,10.07-23.72.31-2.16.32-10.39.32-11.89v-.23c-.16-2.72.79-6.38.85-6.6h0"/>
    <path class="cls-1" d="m101.1,156.17c-2.83,2.72-5.39,7.44-6.41,12.33-.59,2.75-.69,5.56-.07,8.1,2.74,11.23,5.4,13.61,11.47,15.66"/>
    <path class="cls-1" d="m75.74,179.66c7.15-2.99,16.07-7.2,18.95-11.16.07-.1.14-.19.2-.29"/>
    <path class="cls-1" d="m144.67,191.57c6.81-4.08,52.09-28.2,58.39-30.86"/>
    <path class="cls-1" d="m171.23,182.04s14.98-6.85,17.7-8.53,2.04,2.04,2.04,2.04"/>
    <path class="cls-1" d="m26.72,160.71s14.31,22.39,15.99,22.59"/>
    <path class="cls-1" d="m22.29,172s11.24,11.3,15.83,11.3"/>
    <path class="cls-1" d="m50.04,153.62s-1.37,10.55-1.54,13.27"/>
    <path class="cls-1" d="m31.44,121.67s-.03.02-.1.05c-.89.48-7.54,4.34-13.65,16.58"/>
    <path class="cls-1" d="m232.52,141.86s17.67,23.21,25.13,29.71c.84.73,1.55,1.25,2.09,1.5-10.47,3.27-31.4,7.47-42.25,3.07"/>
    <path class="cls-1" d="m236.13,156.17h0c4.97,5.63,10.76,14.21,21.51,15.4"/>
    <path class="cls-1" d="m150.29,77.49l3.75,13.32c-5.62,0-17.02,8-17.3,8.02"/>
    <path class="cls-1" d="m119.48,69.7c-1.47.34-3.89.66-5.98.61-.64-.01-1.25-.05-1.79-.15-.49-.08-.91-.2-1.26-.36-.07-.03-.14-.06-.2-.1-.11.07-.31.18-.6.32-.37.19-.89.44-1.54.74-.38.18-.81.37-1.27.58-.31.14-.64.29-.98.45-4.11,1.84-10.29,4.54-15.15,6.76-3.24,1.48-5.9,2.75-6.97,3.41-1.68,1.04-7.95,5.92-14.62,11.41-6.67,5.48-13.73,11.55-16.98,14.95-.43.45-.79.86-1.08,1.21,0,0-15.68,2.34-23.41,5.98-1.13.53-2.09,1.09-2.8,1.68-3.76,3.07-5.99,13.29-7.16,21.11-.58,3.87-.9,7.15-1.02,8.68-.34,4.59-12.42,12.59-14.63,17.02-2.22,4.43-4.09,18.89,9.87,21.96,13.96,3.06,16.34-.17,23.83-1.87,3.17-.72,5.42-.87,6.97-.79,2.11.1,2.9.62,2.9.62l-2.21,3.91,9.87,1.02.84-.04,2.74-.13,5.61.85h5.11l1.36-1.02s5.45-.17,14.47-4.42c3.77,5.06,12.34,8.49,22.34,10.24,4.45.78,9.19,1.23,13.91,1.33,15.32.34,9.88-1.19,25.02-4.09,6.3,1.03,30.13.52,44.43-1.7,7.93-1.23,19.12-7.43,28.39-13.73,7.44-5.05,13.66-10.17,15.98-12.82,1.84-2.11,2.69-4.57,2.67-7.14-.04-4.69-3-9.72-8.06-13.46,0,0,2.89-.24,4.44-.86.74-.3,1.17-.69.84-1.18-1.03-1.53-14.13-11.57-17.03-12.98-2.89-1.4-18.76,0-18.76,0l-15.45-12.64-5.36-9.06s.38-1.28,0-11.36c-.38-10.09-4.21-14.3-7.4-18-3.2-3.7-13.92-5.87-17.75-6.94-.4-.11-.81-.23-1.21-.36-3.49-1.06-7.18-2.57-9.98-3.77-2.28-.98-3.97-2.35-6.01-2.9-.8-.22-1.66-.31-2.63-.2h-.01"/>
    <path class="cls-1" d="m110.56,69.7c.33-.47.71-.89,1.11-1.23.62-.55,1.29-.93,1.88-1.05.12-.03.23-.04.34-.05"/>
    <path class="cls-2" d="m108.17,61.15s-.33.44-.75,1.21c-.98,1.8-2.47,5.4-1.56,9.43.05.22.11.45.17.67"/>
    <path class="cls-2" d="m109.24,61.15s-.51.69-1.09,1.87c-.9,1.86-1.94,4.92-1.31,8.32.06.37.15.74.26,1.12"/>
    <path class="cls-2" d="m110.61,61.15s-.74,1-1.43,2.63c-.74,1.76-1.43,4.24-1.07,6.98.04.32.1.63.17.95.05.25.12.5.19.75"/>
    <path class="cls-2" d="m112.22,61.15s-.98,1.32-1.74,3.41c-.54,1.49-.97,3.39-.83,5.46,0,.15.02.29.04.43.07.66.19,1.33.39,2.01"/>
    <path class="cls-2" d="m114.25,61.02s-1.28,1.72-2.04,4.33c-.27.94-.48,1.99-.54,3.12-.03.55-.02,1.11.04,1.69.05.71.18,1.43.4,2.17"/>
    <path class="cls-2" d="m116.03,61.06s-1.44,1.94-2.17,4.82c-.02.09-.05.17-.07.26-.1.41-.18.84-.24,1.28-.12.9-.16,1.88-.05,2.89.06.67.19,1.37.39,2.07"/>
    <path class="cls-1" d="m121.14,42.55s1.51,2.04,5.96.73"/>
    <path class="cls-1" d="m109.4,39.82s-1.66-.1-1.87-1.27"/>
    <path class="cls-1" d="m118.2,29.02c.22,1.21,3.11,2.71,4.3,2.37"/>
  </g>
</svg>