<?xml version="1.0" encoding="UTF-8"?>
<svg id="_レイヤー_1" data-name="レイヤー 1" xmlns="http://www.w3.org/2000/svg" viewBox="0 0 270.78 216.1">
  <defs>
    <style>
      .cls-1, .cls-2 {
        fill: none;
        stroke: #000;
        stroke-miterlimit: 10;
      }

      .cls-3 {
        fill: #b7dbe7;
      }

      .cls-3, .cls-4, .cls-5, .cls-6, .cls-7, .cls-8, .cls-9, .cls-10 {
        stroke-width: 0px;
      }

      .cls-2 {
        stroke-width: 3px;
      }

      .cls-4 {
        fill: #333;
      }

      .cls-5 {
        fill: #e02f17;
      }

      .cls-6 {
        fill: #fffee9;
      }

      .cls-7 {
        fill: #fceed3;
      }

      .cls-8 {
        fill: #cacda0;
      }

      .cls-9 {
        fill: #faf3e1;
      }

      .cls-10 {
        fill: #f1d7b6;
      }
    </style>
  </defs>
  <g>
    <path class="cls-7" d="m235.87,125.11c.64-.26,1.02-.61.73-1.04-.21-.32-1-1.04-2.13-1.98l.1-.11h35.71v3.14h-34.41Z"/>
    <polygon class="cls-6" points=".5 186.77 .5 183.64 6.54 183.64 .5 186.77"/>
    <path class="cls-9" d="m221.59,112.63c1.96.95,9.19,6.37,12.88,9.46,1.13.94,1.92,1.67,2.13,1.98.29.43-.09.78-.73,1.04h0c-1.37.55-3.91.76-3.91.76-5.77.64-14.59,1.96-18.46,3.16,0,0-26.4,15.6-36.16,19.66-6.53,2.72-9.71,3.14-11.4,2.53h0c-.83-.3-1.3-.85-1.65-1.48-1.05-1.96-5.1-6.9-6.45-6.6-1.35.3-10.2,6.15-14.7,8.7-1.98,1.13-4.11,2.13-6.19,2.7-2.64.73-5.22.75-7.32-.6-2.46-1.57-5.95-9.55-8.44-16.66-.91-2.57-1.67-5.03-2.22-7.04-.24-.9-.44-1.71-.58-2.4,1.17-2.02,3.28-4.02,6.07-6v.15s35.64-2.05,70.49-7.63c3.39-.54,6.78-1.11,10.12-1.72,0,0,13.99-1.23,16.54,0Z"/>
    <path class="cls-9" d="m126.19,62.43c.04.28.09.56.15.84-.28.26-.58.52-.9.81l-.14-.15c-.1-.33-.18-.66-.23-.99.41-.19.78-.35,1.12-.51Z"/>
    <path class="cls-9" d="m92.56,136.11s.38,2.39.33,5.47c-.04,2.9-.48,6.41-1.98,9.11-3.1,5.55-10.53,15.03-12.31,15.81l-.74.04-8.7-.9,1.95-3.45c5.55-2.41,18.91-10.66,19.81-25.96l.61-.26.05.19c.03.08.05.16.09.23,0,0,.37-.12.91-.26Z"/>
    <path class="cls-9" d="m100.2,86.11l1.6.75c-1.53,1.57-2.98,3.09-4.28,4.49l-1.66-1.04c-1.38-.81-2.56-7.8-2.56-7.8l-1.48-.14c1.84-1.51,3.64-2.97,5.3-4.29l2.34.84c0,.6.75,7.2.75,7.2Z"/>
    <path class="cls-3" d="m90.9,136.22c-.9,15.3-14.25,23.55-19.81,25.96l1.65-11.71s.86-.39,2.2-1.08c3.42-1.75,9.97-5.5,13.26-9.88l-2-.71c2.67-.99,4.7-2.59,4.7-2.59Z"/>
    <path class="cls-3" d="m94.83,146.22c-.76,5.14-4.52,13.86-8.88,20.91l-4.95-.75-2.42.11c1.79-.78,9.21-10.26,12.31-15.81,1.51-2.7,1.94-6.21,1.98-9.11l2.17.02c-.04,1.94-.11,3.8-.23,4.63Z"/>
    <path class="cls-9" d="m94.83,146.22c.12-.83.19-2.69.23-4.63.05-2.49.05-5.11.05-5.85.71.02,1.34.19,1.65.63,1.21,5.56.17,14.98-1.53,21.77-1.06,4.2-2.37,7.4-3.57,8.08l-1.2.9h-4.5c4.35-7.05,8.12-15.77,8.88-20.91Z"/>
    <path class="cls-3" d="m92.56,136.11c.7-.19,1.68-.39,2.55-.37,0,.74,0,3.37-.05,5.85l-2.17-.02c.05-3.08-.33-5.47-.33-5.47Z"/>
    <path class="cls-3" d="m78.66,135.52c-.26,1.93,1.5,4.37,4.72,4,.98-.11,1.95-.38,2.83-.71l2,.71c-3.29,4.38-9.84,8.13-13.26,9.88l-1.3-2.23c.15-2.4,1.36-11.7,1.36-11.7,3.07.1,3.59.07,3.59.04h.07Z"/>
    <path class="cls-10" d="m126.91,31.46c.59-.16,3.01.45,3.98,1.8l.41.25c-.71.83-1.67,1.88-2.49,2.94l-1.48-1.28s-1.46-.09-1.65-1.12l-.68-.1c.44-.9.97-1.81,1.55-2.71l.35.22Z"/>
    <path class="cls-10" d="m125.68,34.04c.19,1.03,1.65,1.12,1.65,1.12l1.48,1.28c-1.02,1.31-1.83,2.64-1.72,3.61l-.85.11c-.69.53-1.44,1.2-1.89,2.78l-2.01-.29c.32-2.14.95-4.5,1.93-7.06.2-.54.45-1.08.72-1.64l.68.1Z"/>
    <path class="cls-9" d="m127.58,62.16c.25-.21.47-.4.67-.57.31.14.68.25,1.11.32.48.09,1.01.12,1.58.13,1.84.04,3.98-.24,5.27-.54,1.05-.19,2.18-.42,3.26-.75,3.66-1.09,6.73-3.19,7.63-4.03,0,0,1.55-.88,2.27-1.42,1.8.48,3.29,1.69,5.3,2.56,2.47,1.06,5.72,2.39,8.8,3.32l-.1.32c-6,4.5-28.59,28.06-32.15,36.91-3.54,8.82-7.12,13.6-6.79,23.41-2.79,1.98-4.9,3.98-6.07,6,.14.69.34,1.5.58,2.4,0,0-2.05,1.03-15.17.22-1.02-.06-2.11-.13-3.26-.22-1.74-.13-3.28-.3-4.65-.5-.97-.15-1.85-.31-2.65-.49h-.02c-8.67-1.94-8.66-5.83-9.63-10.11-1.2-5.24,3.9-13.95,7.95-20.56.7-1.14,2.06-2.82,3.87-4.86.66-.74,1.38-1.53,2.14-2.35,1.3-1.4,2.75-2.92,4.28-4.49,7.85-8.05,18.03-17.71,23.64-22.78.32-.29.62-.56.9-.81.46-.41.87-.78,1.24-1.11Z"/>
    <path class="cls-9" d="m110.85,69.3c4.28-1.96,9.73-4.34,13.35-5.96.3-.14.59-.27.86-.4.05.33.13.65.23.99l.14.15c-5.62,5.07-15.8,14.73-23.64,22.78l-1.6-.75s-.75-6.6-.75-7.2l-2.34-.84c3.64-2.9,6.57-5.14,7.59-5.77.94-.58,3.29-1.7,6.14-3.01Z"/>
    <path class="cls-3" d="m58.52,107.36c1.82,3.82,3.87,8.69,5.08,11.46,2.1,4.8,6.75,16.51,11.41,16.66,0,0-1.21,9.3-1.36,11.7l1.3,2.23c-1.34.69-2.2,1.08-2.2,1.08l-1.65,11.71s-.7-.46-2.56-.55c-1.37-.07-3.35.06-6.14.7-6.6,1.5-8.7,4.35-21.01,1.65-12.31-2.71-10.66-15.45-8.7-19.36,1.95-3.91,12.6-10.96,12.9-15,.07-.9.22-2.49.47-4.45.11-.99.26-2.06.43-3.2,5.39-10.79,11.25-14.19,12.03-14.62Z"/>
    <path class="cls-10" d="m129.81,57.66c-.54-.2-1.05-.43-1.53-.7-.41-.21-.78-.43-1.15-.69-.32-.2-.62-.43-.91-.67-.22-.18-.44-.37-.64-.58-2.86-2.74-4.08-6.88-3.24-12.39l2.01.29c.45-1.58,1.2-2.25,1.89-2.78l.85-.11c-.11-.97.7-2.3,1.72-3.61.82-1.06,1.78-2.11,2.49-2.94l-.41-.25c-.97-1.35-3.39-1.96-3.98-1.8l-.35-.22c.96-1.5,2.06-2.96,3.16-4.3h0c1.24-1.52,2.5-2.86,3.56-3.88,1.52-1.47,3.55-2.62,5.74-3.18.8-.21,1.63-.35,2.45-.4,1.8-.11,2.65.69,4.28,1.57,1.07.58,2.87.79,3.55,1.57,2.94,3.38,2.53,8.46,1.29,13.95.04,0,.1.02.14.04.06.02.12.04.19.08.19.09.41.24.61.41.25.31.39.76.35,1.39-.09,1.97-1.23,6.42-3.06,6.21-.05,0-.1,0-.15-.03-.1-.03-.19-.06-.28-.11-.47,1.3-.98,2.53-1.55,3.66l.16,5.12.05,1.78.05,1.6c-.9.84-3.98,2.94-7.63,4.03-1.08.33-2.21.56-3.26.75-2.58.42-4.73.48-4.73.48l-.19-2.54-.09-1.08c.02-.08.04-.15.06-.23-.03,0-.05,0-.08-.02-.41-.1-.81-.23-1.22-.38-.05-.02-.11-.04-.16-.07Z"/>
    <polygon class="cls-6" points="270.28 183.64 270.28 215.6 240.31 215.6 263.81 202.32 227.77 183.64 251.18 183.64 259.86 183.64 270.28 183.64"/>
    <rect class="cls-6" x="259.86" y="176.29" width="10.42" height="7.35"/>
    <path class="cls-8" d="m270.28,125.11v51.18H.5v-51.17h45.09l.47.05c-.25,1.97-.4,3.55-.47,4.45-.3,4.05-10.95,11.1-12.9,15-1.96,3.91-3.61,16.65,8.7,19.36,12.31,2.7,14.4-.15,21.01-1.65,2.79-.63,4.78-.77,6.14-.7,1.86.09,2.56.55,2.56.55l-1.95,3.45,8.7.9.74-.04,2.42-.11,4.95.75h4.5l1.2-.9s4.8-.15,12.76-3.9c3.32,4.46,10.88,7.48,19.69,9.03,3.92.69,8.1,1.08,12.26,1.17,13.5.3,8.71-1.05,22.06-3.61,5.55.91,26.56.46,39.17-1.5,6.99-1.08,16.85-6.55,25.03-12.1,9.56,3.88,28.01.18,37.24-2.71-.48-.22-1.1-.68-1.84-1.32-6.58-5.73-22.15-26.19-22.15-26.19h34.41Z"/>
    <path class="cls-6" d="m263.81,202.32l-23.5,13.28h-39.28l-23.5-13.28,36.05-18.68h14.19l36.05,18.68Zm-37.71,1.57v-6.11h-10.86v6.11h10.86Z"/>
    <rect class="cls-4" x="251.18" y="176.29" width="8.67" height="7.35"/>
    <path class="cls-9" d="m258.01,151.3c.74.64,1.37,1.1,1.84,1.32-9.23,2.88-27.68,6.58-37.24,2.71,6.56-4.45,12.04-8.96,14.09-11.3,1.62-1.86,2.37-4.03,2.35-6.29,4.38,4.95,9.49,12.52,18.96,13.57Z"/>
    <polygon class="cls-6" points="251.18 176.29 251.18 183.64 227.77 183.64 225.01 183.64 225.01 176.29 251.18 176.29"/>
    <path class="cls-9" d="m258.01,151.3c-9.48-1.05-14.58-8.61-18.96-13.57-.04-4.13-2.64-8.57-7.1-11.87,0,0,2.55-.21,3.91-.76,0,0,15.58,20.46,22.15,26.19Z"/>
    <path class="cls-3" d="m114.36,148.59c.9-4.31,3.16-8.47,5.65-10.87l1.15-.46c2.49,7.11,5.99,15.09,8.44,16.66,2.1,1.35,4.67,1.33,7.32.6,0,0,10.39,1.06,15.65-.9,5.24-1.95,11.53-2.13,13.35-2.42h0c1.69.61,4.87.19,11.4-2.53,9.76-4.05,36.16-19.66,36.16-19.66,3.87-1.2,12.68-2.51,18.46-3.16,4.46,3.3,7.07,7.73,7.1,11.87.02,2.27-.73,4.43-2.35,6.29-2.05,2.34-7.53,6.85-14.09,11.3-8.17,5.55-18.04,11.02-25.03,12.1-12.61,1.96-33.61,2.41-39.17,1.5-13.35,2.56-8.55,3.91-22.06,3.61-4.16-.09-8.34-.48-12.26-1.17l.31-1.82c-5.35-1.81-7.7-3.91-10.11-13.8-.55-2.24-.46-4.72.06-7.14Z"/>
    <rect class="cls-4" x="215.24" y="197.78" width="10.86" height="6.11"/>
    <rect class="cls-4" x="216.34" y="176.29" width="8.67" height="7.35"/>
    <polygon class="cls-6" points="216.34 176.29 216.34 183.64 213.58 183.64 190.16 183.64 190.16 176.29 216.34 176.29"/>
    <polygon class="cls-6" points="213.58 183.64 177.53 202.32 201.03 215.6 136.8 215.6 160.29 202.32 124.24 183.64 146.64 183.64 155.32 183.64 181.49 183.64 190.16 183.64 213.58 183.64"/>
    <path class="cls-9" d="m191.43,101.48l13.62,11.14c-3.34.61-6.73,1.18-10.12,1.72l-.19-1.22-3.31-11.64Z"/>
    <path class="cls-9" d="m124.44,121.82c-.33-9.81,3.24-14.6,6.79-23.41,3.56-8.85,26.15-32.4,32.15-36.91l.1-.32c.35.11.71.22,1.07.32,3.38.94,12.83,2.86,15.65,6.12,2.81,3.26,6.19,6.97,6.52,15.87.33,8.89,0,10.01,0,10.01l4.72,7.99,3.31,11.64.19,1.22c-34.85,5.57-70.49,7.63-70.49,7.63v-.15Z"/>
    <rect class="cls-4" x="181.49" y="176.29" width="8.67" height="7.35"/>
    <rect class="cls-6" x="155.32" y="176.29" width="26.17" height="7.35"/>
    <path class="cls-5" d="m164.27,149.73c.34.63.82,1.18,1.65,1.48-1.82.28-8.11.47-13.35,2.42-5.25,1.96-15.65.9-15.65.9,2.08-.56,4.2-1.57,6.19-2.7,4.5-2.55,13.35-8.4,14.7-8.7,1.36-.3,5.4,4.65,6.45,6.6Z"/>
    <path class="cls-4" d="m158.87,7.66c3.71,4.05,5.85,6.92,4.72,10.8-.9,3.1-5.34,2.03-6.36,2.48s-3.94,10.81-3.89,13.22c.03.92-.04,2.9-.17,5.13l-.54-.03v-.11c.04-.84-.55-1.65-1.17-2.12-.02-.03-.04-.04-.06-.05,0,0,0-.02-.02-.02-.19-.19-.41-.3-.65-.35-.04-.02-.1-.03-.14-.04,1.24-5.49,1.66-10.58-1.29-13.95-.68-.78-2.49-.99-3.55-1.57-1.63-.88-2.49-1.67-4.28-1.57-.82.04-1.65.19-2.45.4h0c1.45-1.65,5.55-4.54,8.12-5.95.63-.34.58-1.27-.07-1.55-3.58-1.59-6.79-2.57-7.62-3.87-.96-1.53-1.1-8.73,3.57-7.94,3.38.73,12.13,3.04,15.84,7.1Z"/>
    <path class="cls-6" d="m160.29,202.32l-23.49,13.28h-39.29l-23.49-13.28,36.05-18.68h14.18l36.05,18.68Zm-38.07,1.57v-6.11h-10.86v6.11h10.86Z"/>
    <rect class="cls-4" x="146.64" y="176.29" width="8.67" height="7.35"/>
    <path class="cls-4" d="m152.65,39.26l.54.03c-.23,3.65-.66,7.95-1.29,9.39-1.02,2.31-2.37,4.62-2.59,4.67-.23.05-2.3,0-2.3,0l-.16-5.12c.57-1.13,1.08-2.35,1.55-3.66.1.04.19.08.28.11.05.02.1.03.15.03.19.04.38.04.57-.02.11-.03.22-.06.33-.11h0s.04-.02.06-.04c1.53-.75,2.77-3.63,2.85-5.27Z"/>
    <path class="cls-4" d="m152.65,39.18v.08c-.08,1.64-1.31,4.52-2.85,5.27,1.52-.78,2.75-3.71,2.85-5.35Z"/>
    <path class="cls-10" d="m152.65,39.14v.04c-.1,1.64-1.33,4.57-2.85,5.35-.02.02-.04.03-.06.04h0c-.11.04-.22.09-.33.11-.19.05-.38.06-.57.02,1.83.21,2.97-4.24,3.06-6.21.04-.63-.11-1.08-.35-1.39.57.5,1.09,1.28,1.11,2.05Z"/>
    <path class="cls-10" d="m151.47,37.03c.63.47,1.22,1.28,1.17,2.12-.02-.77-.54-1.54-1.11-2.05-.02-.03-.04-.05-.06-.07Z"/>
    <path class="cls-10" d="m151.47,37.03s.04.04.06.07c-.2-.18-.41-.33-.61-.41.15.06.31.16.47.27,0,0,.02.02.02.02.02.02.04.03.06.05Z"/>
    <path class="cls-10" d="m150.93,36.68c-.06-.04-.12-.06-.19-.08.06.02.12.04.19.08Z"/>
    <path class="cls-4" d="m149.4,44.68c.11-.03.22-.07.33-.11-.11.05-.22.09-.33.11Z"/>
    <polygon class="cls-6" points="146.64 176.29 146.64 183.64 124.24 183.64 120.47 183.64 120.47 176.29 146.64 176.29"/>
    <path class="cls-10" d="m131.26,58.13c-.02.08-.04.15-.06.23l-.02-.25s.05,0,.08.02Z"/>
    <path class="cls-9" d="m128.08,61.5c.05.04.11.06.18.09-.2.18-.42.36-.67.57-.02-.12-.03-.25-.04-.38.26-.12.43-.22.53-.28Z"/>
    <path class="cls-9" d="m127.55,61.78c0,.13.02.26.04.38-.37.33-.78.7-1.24,1.11-.06-.28-.11-.56-.15-.84.57-.26,1.03-.48,1.36-.65Z"/>
    <path class="cls-3" d="m124.41,169.54l-.31,1.82c-8.82-1.54-16.37-4.57-19.69-9.03-7.95,3.75-12.76,3.9-12.76,3.9,1.2-.69,2.51-3.89,3.57-8.08l2.43.28c6.3-2.64,14.17-6.35,16.7-9.84-.52,2.42-.61,4.9-.06,7.14,2.42,9.9,4.76,12,10.11,13.8Z"/>
    <rect class="cls-4" x="111.36" y="197.78" width="10.86" height="6.11"/>
    <path class="cls-3" d="m121.17,137.26l-1.15.46c-2.49,2.4-4.75,6.56-5.65,10.87-2.54,3.49-10.4,7.2-16.7,9.84l-2.43-.28c1.7-6.8,2.74-16.21,1.53-21.77,1.8,2.7,4.65,6.6,7.2,6.6s8.4-1.2,6.45-4.95c-1.96-3.75-6.64-7.58-6.64-7.58,13.13.81,15.17-.22,15.17-.22.55,2.01,1.31,4.47,2.22,7.04Z"/>
    <rect class="cls-4" x="111.8" y="176.29" width="8.67" height="7.35"/>
    <polygon class="cls-6" points="111.8 176.29 111.8 183.64 110.06 183.64 85.62 183.64 85.62 176.29 111.8 176.29"/>
    <path class="cls-9" d="m110.41,138.02c1.95,3.76-3.91,4.95-6.45,4.95s-5.4-3.91-7.2-6.6c-.31-.45-.94-.62-1.65-.63v-.2c-.14-2.4.7-5.62.75-5.82,1.38.2,2.92.37,4.65.5,1.15.09,2.24.16,3.26.22,0,0,4.68,3.83,6.64,7.58Z"/>
    <polygon class="cls-6" points="110.06 183.64 74.02 202.32 97.51 215.6 33.27 215.6 56.76 202.32 20.73 183.64 42.1 183.64 50.78 183.64 76.95 183.64 85.62 183.64 110.06 183.64"/>
    <path class="cls-9" d="m93,93.62c-3.22.1-11.2,1.66-14.55,2.09l-1.6-.17c2.86-3,9.09-8.35,14.97-13.18l1.48.14s1.18,6.99,2.56,7.8l1.66,1.04c-.77.83-1.48,1.61-2.14,2.35l-2.37-.08Z"/>
    <path class="cls-9" d="m78.59,135.51s-.52.06-3.59-.04c-4.65-.15-9.31-11.86-11.41-16.66-1.21-2.77-3.25-7.64-5.08-11.46-1.34-2.79-2.56-5.02-3.25-5.47,6.81-3.21,20.64-5.27,20.64-5.27.26-.31.57-.67.95-1.07l1.6.17c3.35-.43,11.34-1.99,14.55-2.09l2.37.08c-1.81,2.04-3.17,3.72-3.87,4.86-4.05,6.6-9.15,15.31-7.95,20.56.98,4.28.96,8.17,9.63,10.11-8.82-.05-13.5,3.64-14.34,5.62-.09.21-.15.43-.19.67h-.07Z"/>
    <path class="cls-9" d="m93.2,129.23h0s-2.13,4.65-1.69,6.73l-.61.26s-2.03,1.6-4.7,2.59c-.88.33-1.85.59-2.83.71-3.22.37-4.98-2.07-4.72-4,.04-.24.1-.46.19-.67.85-1.98,5.53-5.68,14.34-5.62h0Z"/>
    <rect class="cls-4" x="76.95" y="176.29" width="8.67" height="7.35"/>
    <rect class="cls-6" x="50.78" y="176.29" width="26.17" height="7.35"/>
    <path class="cls-5" d="m55.27,101.88c.7.45,1.91,2.68,3.25,5.47-.78.42-6.65,3.83-12.03,14.62.04-.25.07-.48.11-.74,1.06-6.78,3-15.26,6.2-17.87.63-.52,1.47-1.01,2.47-1.48Z"/>
    <path class="cls-6" d="m56.76,202.32l-23.49,13.28H.5v-28.83l6.04-3.13h14.19l36.04,18.68Zm-37.7,1.57v-6.11h-10.86v6.11h10.86Z"/>
    <rect class="cls-4" x="42.1" y="176.29" width="8.67" height="7.35"/>
    <path class="cls-7" d="m46.6,121.23c-.04.26-.08.49-.11.74-.17,1.14-.32,2.21-.43,3.2l-.47-.05H.5v-4.02h45.24l.86.13Z"/>
    <polygon class="cls-6" points="42.1 176.29 42.1 183.64 20.73 183.64 16.02 183.64 16.02 176.29 42.1 176.29"/>
    <rect class="cls-4" x="8.2" y="197.78" width="10.86" height="6.11"/>
    <rect class="cls-4" x="7.35" y="176.29" width="8.67" height="7.35"/>
    <polygon class="cls-6" points="7.35 176.29 7.35 183.64 6.54 183.64 .5 183.64 .5 176.29 7.35 176.29"/>
  </g>
  <g>
    <path class="cls-5" d="m258.02,151.3c.74.64,1.37,1.1,1.84,1.32-9.23,2.88-27.68,6.58-37.24,2.71,6.56-4.45,12.04-8.96,14.09-11.3,1.62-1.86,2.37-4.03,2.35-6.29,4.38,4.95,9.49,12.52,18.96,13.57Z"/>
    <g>
      <path class="cls-1" d="m129.72,26.93c-1.1,1.34-2.2,2.79-3.16,4.29,0,0,0,0,0,0-.58.9-1.11,1.81-1.55,2.71-.27.56-.52,1.1-.72,1.64-.98,2.57-1.61,4.92-1.93,7.06v.02c-.85,5.5.37,9.63,3.24,12.37.2.21.42.41.64.58.29.24.59.47.91.67.36.26.74.48,1.15.69.48.26.99.49,1.53.7.05.03.11.05.16.07.41.15.81.28,1.22.38.03,0,.05,0,.08.02,1.17.27,2.35.35,3.53.21l-.08.07"/>
      <path class="cls-1" d="m131.18,58.11l.02.25.09,1.08.19,2.54s2.15-.06,4.73-.48c1.05-.19,2.18-.42,3.26-.75,3.66-1.09,6.73-3.19,7.63-4.03l-.05-1.6-.05-1.78-.16-5.12c.57-1.13,1.08-2.35,1.55-3.66.1.04.19.08.28.11.05.02.1.03.15.03.19.04.38.04.57-.02.11-.03.22-.06.33-.11h0s.04-.02.06-.04c1.53-.75,2.77-3.63,2.85-5.27v-.11c-.02-.77-.54-1.54-1.11-2.05-.2-.18-.41-.33-.61-.41-.06-.04-.12-.06-.19-.08-.04-.02-.1-.03-.14-.04,1.24-5.49,1.66-10.58-1.29-13.95-.68-.78-2.49-.99-3.55-1.57-1.63-.88-2.49-1.67-4.28-1.57-.82.04-1.65.19-2.45.4-2.19.56-4.22,1.71-5.74,3.18-1.06,1.01-2.32,2.36-3.56,3.88"/>
      <path class="cls-1" d="m139.03,19.86c1.45-1.64,5.55-4.53,8.12-5.94.63-.34.58-1.27-.07-1.55-3.58-1.59-6.79-2.57-7.62-3.87-.96-1.53-1.1-8.73,3.57-7.94,3.38.73,12.13,3.04,15.84,7.1,3.71,4.05,5.85,6.92,4.72,10.8-.9,3.1-5.34,2.03-6.36,2.48s-3.94,10.81-3.89,13.22c.03.92-.04,2.9-.17,5.13-.23,3.65-.66,7.95-1.29,9.39-1.02,2.31-2.37,4.62-2.59,4.67-.23.05-2.3,0-2.3,0"/>
      <path class="cls-1" d="m135.92,31.57c3.71-1.35,10.46.22,11.13,6.64"/>
      <path class="cls-1" d="m132.99,28.53c-1.9-2.24-2.37-1.4-3.26-1.6h0"/>
      <path class="cls-1" d="m134.79,34.67c.98-.21,3.15-.43,5.77,1.15"/>
      <path class="cls-1" d="m130.88,33.25c-.97-1.35-3.39-1.96-3.98-1.8"/>
      <path class="cls-1" d="m131.86,32.81c-.16.21-.35.44-.56.7-.71.83-1.67,1.88-2.49,2.94-1.02,1.31-1.83,2.64-1.72,3.61.03.19.09.37.19.53,1.11,1.72,2.19.93,2.19.93"/>
      <path class="cls-1" d="m122.93,47.51c.98-.75,1.65-2.7,3.98-2.7"/>
      <path class="cls-1" d="m130.88,44.81s6.19,3.83,7.15,6.82"/>
      <path class="cls-1" d="m126.19,48.41c-.04,1.02,3.83,1.72,4.98.57"/>
      <path class="cls-1" d="m147.11,56.72s1.55-.88,2.27-1.42c.11-.08.21-.16.27-.22"/>
      <path class="cls-1" d="m133.98,38.43s.96,1.43,1.11,4.5"/>
      <path class="cls-1" d="m126.25,40.16c-.69.53-1.44,1.2-1.89,2.78"/>
      <path class="cls-1" d="m163.38,61.5c-6,4.5-28.59,28.06-32.15,36.91-3.54,8.82-7.12,13.6-6.79,23.41v.15"/>
      <path class="cls-1" d="m165.93,151.21c1.69.61,4.87.19,11.4-2.53,9.76-4.05,36.16-19.66,36.16-19.66,3.87-1.2,12.68-2.51,18.46-3.16"/>
      <path class="cls-1" d="m175.53,87.18c-.75,3.58-18.16,18.59-30.61,23.99-8.04,3.49-15.4,7.04-20.49,10.66-2.79,1.98-4.9,3.98-6.07,6,.14.69.34,1.5.58,2.4.55,2.01,1.31,4.47,2.22,7.04,2.49,7.11,5.99,15.09,8.44,16.66,2.1,1.35,4.67,1.33,7.32.6,2.08-.56,4.2-1.57,6.19-2.7,4.5-2.55,13.35-8.4,14.7-8.7,1.36-.3,5.4,4.65,6.45,6.6.34.63.82,1.18,1.65,1.48"/>
      <path class="cls-1" d="m136.93,154.52s10.39,1.06,15.65-.9c5.24-1.95,11.53-2.13,13.35-2.42h0"/>
      <path class="cls-1" d="m124.44,127.97s27.84,15.9,34.81,13.5"/>
      <path class="cls-1" d="m124.44,121.97s35.64-2.05,70.49-7.63c3.39-.54,6.78-1.11,10.12-1.72"/>
      <line class="cls-1" x1="191.44" y1="101.48" x2="194.74" y2="113.13"/>
      <path class="cls-1" d="m156.47,91.73s-16.26,21.69-25.62,24.83"/>
      <path class="cls-1" d="m128.91,115.22c1.61-6.9,19.46-37.66,31.92-44.41"/>
      <path class="cls-1" d="m115.66,114.32s-.75-7.65-2.25-8.55"/>
      <path class="cls-1" d="m114.54,105.77l6.22-3.16c-2.4,5.4-2.1,14.7-.9,19.36"/>
      <path class="cls-1" d="m95.11,121.1s4.65-14.13,13.8-25.39c9.16-11.26,18.85-28.51,18.85-28.51,2.29.19,4.87,1.03,8.3,1.03,4.72,0,11.05-1.61,20.42-8.79"/>
      <path class="cls-1" d="m93.21,129.23c.8.19,1.68.34,2.65.49,1.38.2,2.92.37,4.65.5,1.15.09,2.24.16,3.26.22,13.13.81,15.17-.22,15.17-.22"/>
      <path class="cls-1" d="m128.35,61.5s-.06.05-.1.09c-.2.18-.42.36-.67.57-.37.33-.78.7-1.24,1.11-.28.26-.58.52-.9.81-5.62,5.07-15.8,14.73-23.64,22.78-1.53,1.57-2.98,3.09-4.28,4.49-.77.83-1.48,1.61-2.14,2.35-1.81,2.04-3.17,3.72-3.87,4.86-4.05,6.6-9.15,15.31-7.95,20.56.98,4.28.96,8.17,9.63,10.11"/>
      <line class="cls-1" x1="110.86" y1="69.3" x2="109.34" y2="75.6"/>
      <path class="cls-1" d="m99.46,78.91c0,.6.75,7.2.75,7.2"/>
      <path class="cls-1" d="m93.31,82.5s1.18,6.99,2.56,7.8"/>
      <path class="cls-1" d="m78.45,95.71c3.35-.43,11.34-1.99,14.55-2.09.11,0,.2,0,.3,0"/>
      <path class="cls-1" d="m55.27,101.88c.7.45,1.91,2.68,3.25,5.47,1.82,3.82,3.87,8.69,5.08,11.46,2.1,4.8,6.75,16.51,11.41,16.66,2.88.09,3.52.07,3.58.04,0,0,0,0,0,0,0-.02-.14-.04-.14-.04"/>
      <path class="cls-1" d="m103.78,130.44s4.68,3.83,6.64,7.58c1.95,3.76-3.91,4.95-6.45,4.95s-5.4-3.91-7.2-6.6c1.21,5.56.17,14.98-1.53,21.77-1.06,4.2-2.37,7.4-3.57,8.08"/>
      <path class="cls-1" d="m93.21,129.23h-.02c-8.82-.05-13.5,3.64-14.34,5.62-.09.21-.15.43-.19.67-.26,1.93,1.5,4.37,4.72,4,.98-.11,1.95-.38,2.83-.71,2.67-.99,4.7-2.59,4.7-2.59-.9,15.3-14.25,23.55-19.81,25.96l1.65-11.71s.86-.39,2.2-1.08c3.42-1.75,9.97-5.5,13.26-9.88"/>
      <line class="cls-1" x1="83.38" y1="136.37" x2="90.91" y2="132.32"/>
      <line class="cls-1" x1="99.46" y1="133.07" x2="104.71" y2="137.72"/>
      <path class="cls-1" d="m93.21,129.23s-2.13,4.65-1.69,6.73l.05.19c.03.08.05.16.09.23,0,0,.37-.12.91-.26.7-.19,1.68-.39,2.55-.37.71.02,1.34.19,1.65.63"/>
      <path class="cls-1" d="m92.57,136.11s.38,2.39.33,5.47c-.04,2.9-.48,6.41-1.98,9.11-3.1,5.55-10.53,15.03-12.31,15.81"/>
      <path class="cls-1" d="m85.95,167.13c4.35-7.05,8.12-15.77,8.88-20.91.12-.83.19-2.69.23-4.63.05-2.49.05-5.11.05-5.85v-.2c-.14-2.4.7-5.62.75-5.82h0"/>
      <path class="cls-1" d="m120.02,137.72c-2.49,2.4-4.75,6.56-5.65,10.87-.52,2.42-.61,4.9-.06,7.14,2.42,9.9,4.76,12,10.11,13.8"/>
      <path class="cls-1" d="m97.66,158.43c6.3-2.64,14.17-6.35,16.7-9.84.06-.09.12-.17.18-.26"/>
      <path class="cls-1" d="m158.42,168.93c6-3.6,45.92-24.86,51.47-27.2"/>
      <path class="cls-1" d="m181.84,160.53s13.21-6.04,15.6-7.52,1.8,1.8,1.8,1.8"/>
      <path class="cls-1" d="m54.45,141.72s12.61,19.74,14.1,19.91"/>
      <path class="cls-1" d="m50.54,151.68s9.91,9.96,13.95,9.96"/>
      <path class="cls-1" d="m75.01,135.47s-1.21,9.3-1.36,11.7"/>
      <path class="cls-1" d="m58.61,107.31s-.03.02-.09.04c-.78.42-6.65,3.83-12.03,14.62"/>
      <path class="cls-1" d="m235.86,125.11s15.58,20.46,22.15,26.19c.74.64,1.37,1.1,1.84,1.32-9.23,2.88-27.68,6.58-37.24,2.71"/>
      <path class="cls-1" d="m239.05,137.72h0c4.38,4.96,9.49,12.53,18.96,13.58"/>
      <path class="cls-1" d="m163.38,68.37l3.31,11.74c-4.95,0-15,7.05-15.25,7.07"/>
      <path class="cls-1" d="m235.87,125.11c.64-.26,1.02-.61.73-1.04-.21-.32-1-1.04-2.13-1.98-3.68-3.09-10.92-8.51-12.88-9.46-2.55-1.23-16.54,0-16.54,0l-13.62-11.14-4.72-7.99s.33-1.13,0-10.01c-.33-8.89-3.71-12.61-6.52-15.87-2.82-3.26-12.27-5.17-15.65-6.12-.35-.1-.71-.2-1.07-.32-3.08-.93-6.33-2.27-8.8-3.32-2.01-.86-3.5-2.07-5.3-2.56-.71-.19-1.46-.27-2.32-.18h0"/>
      <path class="cls-1" d="m136.22,61.5c-1.3.3-3.43.58-5.27.54-.56,0-1.1-.04-1.58-.13-.43-.07-.8-.18-1.11-.32-.06-.03-.12-.05-.18-.09-.1.06-.27.16-.53.28-.33.17-.78.39-1.36.65-.33.16-.71.33-1.12.51-.27.12-.56.26-.86.4-3.62,1.62-9.07,4-13.35,5.96-2.86,1.3-5.2,2.42-6.14,3.01-1.02.63-3.95,2.86-7.59,5.77-1.66,1.32-3.46,2.79-5.3,4.29-5.88,4.83-12.1,10.18-14.97,13.18-.38.4-.7.76-.95,1.07,0,0-13.82,2.06-20.64,5.27-1,.47-1.84.96-2.47,1.48-3.2,2.61-5.14,11.09-6.2,17.87-.04.26-.08.49-.11.74-.17,1.14-.32,2.21-.43,3.2-.25,1.97-.4,3.55-.47,4.45-.3,4.05-10.95,11.1-12.9,15-1.96,3.91-3.61,16.65,8.7,19.36,12.31,2.7,14.4-.15,21.01-1.65,2.79-.63,4.78-.77,6.14-.7,1.86.09,2.56.55,2.56.55l-1.95,3.45,8.7.9.74-.04,2.42-.11,4.95.75h4.5l1.2-.9s4.8-.15,12.76-3.9c3.32,4.46,10.88,7.48,19.69,9.03,3.92.69,8.1,1.08,12.26,1.17,13.5.3,8.71-1.05,22.06-3.61,5.55.91,26.56.46,39.17-1.5,6.99-1.08,16.85-6.55,25.03-12.1,6.56-4.45,12.04-8.96,14.09-11.3,1.62-1.86,2.37-4.03,2.35-6.29-.04-4.13-2.64-8.57-7.1-11.87,0,0,2.55-.21,3.91-.76"/>
      <path class="cls-1" d="m128.35,61.5c.29-.41.63-.78.98-1.08.55-.48,1.14-.82,1.66-.93.11-.03.2-.04.3-.04"/>
      <path class="cls-2" d="m126.25,53.96s-.29.39-.66,1.07c-.86,1.59-2.18,4.76-1.38,8.31.04.19.1.4.15.59"/>
      <path class="cls-2" d="m127.19,53.96s-.45.61-.96,1.65c-.79,1.64-1.71,4.34-1.15,7.33.05.33.13.65.23.99"/>
      <path class="cls-2" d="m128.4,53.96s-.65.88-1.26,2.32c-.65,1.55-1.26,3.74-.94,6.15.04.28.09.56.15.84.04.22.11.44.17.66"/>
      <path class="cls-2" d="m129.82,53.96s-.86,1.16-1.53,3.01c-.48,1.31-.86,2.99-.73,4.81,0,.13.02.26.04.38.06.58.17,1.17.34,1.77"/>
      <path class="cls-2" d="m131.61,53.85s-1.13,1.52-1.8,3.82c-.24.83-.42,1.75-.48,2.75-.03.48-.02.98.04,1.49.04.63.16,1.26.35,1.91"/>
      <path class="cls-2" d="m133.18,53.88s-1.27,1.71-1.91,4.25c-.02.08-.04.15-.06.23-.09.36-.16.74-.21,1.13-.11.79-.14,1.66-.04,2.55.05.59.17,1.21.34,1.82"/>
      <path class="cls-1" d="m137.68,37.57s1.33,1.8,5.25.64"/>
      <path class="cls-1" d="m127.33,35.16s-1.46-.09-1.65-1.12"/>
      <path class="cls-1" d="m135.09,25.64c.19,1.07,2.74,2.39,3.79,2.09"/>
      <polyline class="cls-1" points="45.74 121.1 .5 121.1 .5 125.12 .5 176.29 .5 183.64 .5 186.77 .5 215.6 33.27 215.6 97.51 215.6 136.8 215.6 201.04 215.6 240.32 215.6 270.28 215.6 270.28 183.64 270.28 176.29 270.28 125.11 270.28 121.97 234.57 121.97"/>
      <line class="cls-1" x1=".5" y1="125.12" x2="45.59" y2="125.12"/>
      <polyline class="cls-1" points="235.86 125.11 235.87 125.11 270.28 125.11"/>
      <line class="cls-1" x1="259.86" y1="176.29" x2="270.28" y2="176.29"/>
      <line class="cls-1" x1="225.01" y1="176.29" x2="251.18" y2="176.29"/>
      <line class="cls-1" x1="190.17" y1="176.29" x2="216.34" y2="176.29"/>
      <line class="cls-1" x1="155.32" y1="176.29" x2="181.49" y2="176.29"/>
      <line class="cls-1" x1="120.47" y1="176.29" x2="146.65" y2="176.29"/>
      <line class="cls-1" x1="85.63" y1="176.29" x2="111.8" y2="176.29"/>
      <line class="cls-1" x1="50.78" y1="176.29" x2="76.95" y2="176.29"/>
      <line class="cls-1" x1="16.02" y1="176.29" x2="42.11" y2="176.29"/>
      <line class="cls-1" x1=".5" y1="176.29" x2="7.35" y2="176.29"/>
      <line class="cls-1" x1="259.86" y1="183.64" x2="270.28" y2="183.64"/>
      <polyline class="cls-1" points="225.01 183.64 227.77 183.64 251.18 183.64"/>
      <polyline class="cls-1" points="190.17 183.64 213.58 183.64 216.34 183.64"/>
      <line class="cls-1" x1="155.32" y1="183.64" x2="181.49" y2="183.64"/>
      <polyline class="cls-1" points="120.47 183.64 124.25 183.64 146.65 183.64"/>
      <polyline class="cls-1" points="85.63 183.64 110.06 183.64 111.8 183.64"/>
      <line class="cls-1" x1="50.78" y1="183.64" x2="76.95" y2="183.64"/>
      <polyline class="cls-1" points="16.02 183.64 20.73 183.64 42.11 183.64"/>
      <polyline class="cls-1" points=".5 183.64 6.54 183.64 7.35 183.64"/>
      <rect class="cls-1" x="251.18" y="176.29" width="8.67" height="7.35"/>
      <rect class="cls-1" x="216.34" y="176.29" width="8.67" height="7.35"/>
      <rect class="cls-1" x="181.49" y="176.29" width="8.67" height="7.35"/>
      <rect class="cls-1" x="146.65" y="176.29" width="8.67" height="7.35"/>
      <rect class="cls-1" x="111.8" y="176.29" width="8.67" height="7.35"/>
      <rect class="cls-1" x="76.95" y="176.29" width="8.67" height="7.35"/>
      <rect class="cls-1" x="42.11" y="176.29" width="8.67" height="7.35"/>
      <rect class="cls-1" x="7.35" y="176.29" width="8.67" height="7.35"/>
      <polyline class="cls-1" points="201.04 215.6 177.53 202.32 213.58 183.64"/>
      <polyline class="cls-1" points="240.32 215.6 263.82 202.32 227.77 183.64"/>
      <polyline class="cls-1" points="97.51 215.6 74.02 202.32 110.06 183.64"/>
      <polyline class="cls-1" points="136.8 215.6 160.29 202.32 124.25 183.64"/>
      <line class="cls-1" x1=".5" y1="186.77" x2="6.54" y2="183.64"/>
      <polyline class="cls-1" points="33.27 215.6 56.77 202.32 20.73 183.64"/>
      <rect class="cls-1" x="215.25" y="197.78" width="10.86" height="6.11"/>
      <rect class="cls-1" x="111.36" y="197.78" width="10.86" height="6.11"/>
      <rect class="cls-1" x="8.2" y="197.78" width="10.86" height="6.11"/>
    </g>
  </g>
</svg>