<?xml version="1.0" encoding="UTF-8"?>
<svg id="_レイヤー_1" data-name="レイヤー 1" xmlns="http://www.w3.org/2000/svg" viewBox="0 0 269.64 215.8">
  <defs>
    <style>
      .cls-1, .cls-2 {
        fill: none;
        stroke: #000;
        stroke-miterlimit: 10;
      }

      .cls-3 {
        fill: #b7dbe7;
      }

      .cls-3, .cls-4, .cls-5, .cls-6, .cls-7, .cls-8, .cls-9, .cls-10 {
        stroke-width: 0px;
      }

      .cls-2 {
        stroke-width: 3px;
      }

      .cls-4 {
        fill: #333;
      }

      .cls-5 {
        fill: #e02f17;
      }

      .cls-6 {
        fill: #fffee9;
      }

      .cls-7 {
        fill: #fceed3;
      }

      .cls-8 {
        fill: #cacda0;
      }

      .cls-9 {
        fill: #faf3e1;
      }

      .cls-10 {
        fill: #f1d7b6;
      }
    </style>
  </defs>
  <g>
    <path class="cls-7" d="m235.28,124.94c.64-.26,1.02-.61.73-1.04-.21-.32-1-1.04-2.13-1.98l.1-.11h35.66v3.13h-34.36Z"/>
    <polygon class="cls-6" points=".23 186.52 .23 183.39 6.26 183.39 .23 186.52"/>
    <path class="cls-9" d="m221.02,112.47c1.95.95,9.18,6.36,12.86,9.45,1.13.94,1.92,1.66,2.13,1.98.29.43-.09.77-.73,1.04h0c-1.36.55-3.91.76-3.91.76-5.77.64-14.57,1.95-18.43,3.15,0,0-26.37,15.58-36.11,19.63-6.52,2.71-9.69,3.13-11.38,2.53h0c-.83-.3-1.3-.85-1.65-1.48-1.05-1.95-5.09-6.89-6.44-6.59-1.35.3-10.19,6.14-14.68,8.69-1.98,1.13-4.1,2.13-6.18,2.69-2.64.73-5.21.75-7.31-.6-2.46-1.57-5.94-9.53-8.43-16.64-.91-2.57-1.67-5.03-2.22-7.03-.24-.9-.44-1.71-.58-2.39,1.17-2.02,3.27-4.01,6.07-5.99v.15s35.59-2.05,70.4-7.61c3.39-.54,6.77-1.11,10.11-1.72,0,0,13.97-1.23,16.51,0Z"/>
    <path class="cls-9" d="m125.75,62.35c.04.28.09.55.15.84-.28.26-.58.52-.9.81l-.14-.15c-.1-.33-.18-.66-.23-.99.4-.18.78-.35,1.12-.51Z"/>
    <path class="cls-9" d="m92.17,135.92s.38,2.39.33,5.46c-.04,2.9-.48,6.4-1.98,9.09-3.1,5.55-10.51,15.01-12.3,15.79l-.74.04-8.69-.9,1.95-3.44c5.55-2.4,18.88-10.64,19.78-25.92l.61-.26.05.18c.03.08.05.16.09.23,0,0,.37-.12.91-.26Z"/>
    <path class="cls-9" d="m99.8,85.99l1.59.75c-1.53,1.57-2.98,3.08-4.28,4.48l-1.65-1.04c-1.37-.81-2.55-7.79-2.55-7.79l-1.48-.14c1.84-1.51,3.64-2.97,5.29-4.29l2.33.84c0,.6.75,7.19.75,7.19Z"/>
    <path class="cls-3" d="m90.51,136.04c-.9,15.28-14.23,23.52-19.78,25.92l1.65-11.69s.86-.39,2.2-1.07c3.42-1.75,9.96-5.49,13.24-9.87l-2-.7c2.67-.99,4.69-2.59,4.69-2.59Z"/>
    <path class="cls-3" d="m94.43,146.02c-.76,5.13-4.52,13.84-8.86,20.88l-4.94-.75-2.41.11c1.79-.78,9.2-10.25,12.3-15.79,1.51-2.69,1.94-6.2,1.98-9.09l2.17.02c-.04,1.94-.11,3.79-.23,4.62Z"/>
    <path class="cls-9" d="m94.43,146.02c.12-.83.18-2.68.23-4.62.05-2.48.05-5.11.05-5.85.7.02,1.34.18,1.65.63,1.21,5.55.17,14.96-1.53,21.74-1.06,4.19-2.37,7.39-3.57,8.07l-1.2.9h-4.5c4.35-7.04,8.11-15.75,8.86-20.88Z"/>
    <path class="cls-3" d="m92.17,135.92c.7-.18,1.68-.39,2.54-.37,0,.74,0,3.36-.05,5.85l-2.17-.02c.05-3.07-.33-5.46-.33-5.46Z"/>
    <path class="cls-3" d="m78.28,135.33c-.26,1.93,1.5,4.37,4.71,4,.98-.11,1.95-.38,2.83-.7l2,.7c-3.28,4.38-9.82,8.12-13.24,9.87l-1.3-2.23c.15-2.39,1.36-11.68,1.36-11.68,3.06.1,3.58.07,3.58.04h.07Z"/>
    <path class="cls-10" d="m126.46,31.41c.59-.16,3,.45,3.97,1.8l.41.25c-.7.83-1.66,1.88-2.48,2.93l-1.48-1.28s-1.46-.09-1.65-1.12l-.68-.1c.44-.9.97-1.8,1.55-2.7l.35.22Z"/>
    <path class="cls-10" d="m125.24,33.99c.18,1.03,1.65,1.12,1.65,1.12l1.48,1.28c-1.02,1.31-1.83,2.64-1.72,3.61l-.85.11c-.69.53-1.43,1.2-1.88,2.77l-2.01-.29c.32-2.14.95-4.49,1.93-7.05.2-.54.45-1.08.72-1.64l.68.1Z"/>
    <path class="cls-9" d="m127.14,62.08c.25-.21.47-.4.67-.57.31.14.68.25,1.11.32.48.09,1.01.12,1.58.13,1.84.04,3.97-.24,5.26-.54,1.05-.18,2.17-.42,3.26-.75,3.65-1.09,6.73-3.19,7.62-4.02,0,0,1.55-.88,2.26-1.42,1.8.48,3.28,1.69,5.29,2.55,2.46,1.06,5.71,2.39,8.79,3.32l-.1.32c-5.99,4.5-28.55,28.02-32.1,36.86-3.54,8.8-7.11,13.58-6.78,23.38-2.79,1.98-4.89,3.98-6.07,5.99.14.69.34,1.5.58,2.39,0,0-2.04,1.03-15.15.22-1.02-.06-2.1-.13-3.26-.22-1.73-.13-3.27-.3-4.65-.5-.97-.15-1.85-.31-2.65-.49h-.02c-8.66-1.94-8.64-5.82-9.62-10.1-1.2-5.24,3.89-13.94,7.94-20.53.7-1.14,2.06-2.82,3.86-4.85.66-.74,1.37-1.52,2.14-2.35,1.3-1.4,2.75-2.91,4.28-4.48,7.83-8.04,18-17.69,23.61-22.75.32-.29.62-.55.9-.81.46-.41.87-.78,1.24-1.11Z"/>
    <path class="cls-9" d="m110.43,69.21c4.28-1.95,9.72-4.33,13.34-5.95.3-.14.59-.27.86-.4.05.33.13.65.23.99l.14.15c-5.61,5.06-15.78,14.71-23.61,22.75l-1.59-.75s-.75-6.59-.75-7.19l-2.33-.84c3.64-2.9,6.56-5.13,7.58-5.76.94-.58,3.28-1.7,6.14-3Z"/>
    <path class="cls-3" d="m58.17,107.21c1.82,3.81,3.86,8.68,5.07,11.44,2.1,4.8,6.74,16.49,11.39,16.64,0,0-1.21,9.29-1.36,11.68l1.3,2.23c-1.34.69-2.2,1.07-2.2,1.07l-1.65,11.69s-.7-.46-2.55-.55c-1.36-.07-3.35.06-6.14.7-6.59,1.5-8.69,4.34-20.98,1.65-12.29-2.7-10.64-15.43-8.69-19.33,1.95-3.9,12.58-10.94,12.88-14.98.07-.9.22-2.48.47-4.45.11-.99.26-2.06.43-3.2,5.38-10.77,11.23-14.17,12.02-14.6Z"/>
    <path class="cls-10" d="m129.36,57.59c-.54-.2-1.05-.43-1.52-.7-.4-.21-.78-.43-1.14-.69-.32-.2-.62-.43-.91-.67-.22-.18-.44-.37-.64-.58-2.86-2.74-4.08-6.87-3.23-12.37l2.01.29c.45-1.58,1.2-2.24,1.88-2.77l.85-.11c-.11-.97.7-2.3,1.72-3.61.82-1.06,1.78-2.1,2.48-2.93l-.41-.25c-.97-1.35-3.38-1.95-3.97-1.8l-.35-.22c.96-1.5,2.06-2.96,3.16-4.3h0c1.24-1.51,2.5-2.86,3.56-3.87,1.51-1.47,3.55-2.61,5.73-3.18.8-.21,1.63-.35,2.45-.4,1.8-.11,2.65.69,4.28,1.57,1.07.58,2.87.79,3.55,1.57,2.94,3.37,2.53,8.45,1.29,13.94.04,0,.1.02.14.04.06.02.12.04.18.08.19.09.4.24.61.41.25.31.39.76.35,1.39-.09,1.96-1.22,6.41-3.05,6.2-.05,0-.1,0-.15-.03-.1-.03-.18-.06-.28-.11-.47,1.3-.98,2.53-1.55,3.65l.16,5.11.05,1.78.05,1.59c-.9.84-3.97,2.93-7.62,4.02-1.08.33-2.21.56-3.26.75-2.58.42-4.73.48-4.73.48l-.19-2.54-.09-1.08c.02-.08.04-.15.06-.23-.03,0-.05,0-.08-.02-.4-.1-.81-.23-1.21-.38-.05-.02-.11-.04-.16-.07Z"/>
    <polygon class="cls-6" points="269.64 183.39 269.64 215.3 239.71 215.3 263.18 202.04 227.19 183.39 250.57 183.39 259.23 183.39 269.64 183.39"/>
    <rect class="cls-6" x="259.23" y="176.05" width="10.41" height="7.34"/>
    <path class="cls-8" d="m269.64,124.94v51.11H.23v-51.1h45.03l.47.05c-.25,1.96-.4,3.55-.47,4.45-.3,4.04-10.93,11.08-12.88,14.98-1.95,3.9-3.6,16.63,8.69,19.33,12.29,2.69,14.38-.15,20.98-1.65,2.79-.63,4.77-.77,6.14-.7,1.86.09,2.55.55,2.55.55l-1.95,3.44,8.69.9.74-.04,2.41-.11,4.94.75h4.5l1.2-.9s4.8-.15,12.74-3.89c3.32,4.45,10.86,7.47,19.67,9.01,3.92.69,8.09,1.08,12.25,1.17,13.49.3,8.7-1.05,22.03-3.6,5.55.91,26.52.46,39.11-1.5,6.98-1.08,16.83-6.54,24.99-12.09,9.55,3.87,27.98.18,37.19-2.7-.48-.22-1.1-.68-1.84-1.32-6.57-5.72-22.12-26.15-22.12-26.15h34.37Z"/>
    <path class="cls-6" d="m263.18,202.04l-23.47,13.26h-39.23l-23.47-13.26,36-18.65h14.17l36,18.65Zm-37.66,1.57v-6.1h-10.85v6.1h10.85Z"/>
    <rect class="cls-4" x="250.57" y="176.05" width="8.66" height="7.34"/>
    <path class="cls-9" d="m257.39,151.09c.74.64,1.36,1.1,1.84,1.32-9.22,2.88-27.64,6.58-37.19,2.7,6.55-4.45,12.02-8.95,14.07-11.29,1.62-1.86,2.37-4.02,2.35-6.29,4.38,4.95,9.47,12.5,18.94,13.55Z"/>
    <polygon class="cls-6" points="250.57 176.05 250.57 183.39 227.19 183.39 224.43 183.39 224.43 176.05 250.57 176.05"/>
    <path class="cls-9" d="m257.39,151.09c-9.46-1.05-14.56-8.6-18.94-13.55-.04-4.13-2.64-8.56-7.1-11.85,0,0,2.54-.21,3.91-.76,0,0,15.55,20.43,22.12,26.15Z"/>
    <path class="cls-3" d="m113.94,148.39c.9-4.3,3.15-8.46,5.64-10.85l1.15-.46c2.49,7.1,5.98,15.07,8.43,16.64,2.1,1.35,4.67,1.33,7.31.6,0,0,10.38,1.06,15.63-.9,5.23-1.95,11.51-2.13,13.33-2.41h0c1.69.61,4.86.18,11.38-2.53,9.74-4.05,36.11-19.63,36.11-19.63,3.86-1.2,12.67-2.51,18.43-3.15,4.45,3.29,7.06,7.72,7.1,11.85.02,2.26-.73,4.43-2.35,6.29-2.04,2.33-7.52,6.84-14.07,11.29-8.16,5.55-18.01,11-24.99,12.09-12.59,1.95-33.57,2.4-39.11,1.5-13.33,2.55-8.54,3.9-22.03,3.6-4.16-.09-8.33-.48-12.25-1.17l.31-1.82c-5.34-1.8-7.69-3.9-10.1-13.79-.55-2.24-.46-4.71.06-7.13Z"/>
    <rect class="cls-4" x="214.68" y="197.51" width="10.85" height="6.1"/>
    <rect class="cls-4" x="215.77" y="176.05" width="8.66" height="7.34"/>
    <polygon class="cls-6" points="215.77 176.05 215.77 183.39 213.01 183.39 189.63 183.39 189.63 176.05 215.77 176.05"/>
    <polygon class="cls-6" points="213.01 183.39 177.02 202.04 200.49 215.3 136.34 215.3 159.8 202.04 123.8 183.39 146.17 183.39 154.84 183.39 180.97 183.39 189.63 183.39 213.01 183.39"/>
    <path class="cls-9" d="m190.9,101.35l13.6,11.13c-3.34.61-6.72,1.18-10.11,1.72l-.19-1.21-3.3-11.63Z"/>
    <path class="cls-9" d="m124,121.65c-.33-9.8,3.24-14.58,6.78-23.38,3.56-8.84,26.11-32.36,32.1-36.86l.1-.32c.35.11.71.22,1.07.32,3.37.94,12.81,2.85,15.63,6.11,2.81,3.26,6.18,6.96,6.51,15.85.33,8.87,0,10,0,10l4.72,7.98,3.3,11.63.19,1.21c-34.81,5.56-70.4,7.61-70.4,7.61v-.15Z"/>
    <rect class="cls-4" x="180.97" y="176.05" width="8.66" height="7.34"/>
    <rect class="cls-6" x="154.84" y="176.05" width="26.14" height="7.34"/>
    <path class="cls-5" d="m163.78,149.53c.34.63.82,1.18,1.65,1.48-1.81.28-8.1.47-13.33,2.41-5.25,1.95-15.63.9-15.63.9,2.08-.56,4.2-1.57,6.18-2.69,4.5-2.54,13.34-8.39,14.68-8.69,1.36-.3,5.4,4.64,6.44,6.59Z"/>
    <path class="cls-4" d="m158.38,7.65c3.71,4.05,5.85,6.91,4.72,10.78-.9,3.1-5.33,2.02-6.35,2.47s-3.93,10.79-3.88,13.2c.03.92-.04,2.9-.17,5.12l-.54-.03v-.11c.04-.84-.55-1.65-1.17-2.11-.02-.03-.04-.04-.06-.05,0,0,0-.02-.02-.02-.18-.18-.4-.3-.65-.35-.04-.02-.1-.03-.14-.04,1.24-5.48,1.65-10.56-1.29-13.94-.68-.77-2.48-.99-3.55-1.57-1.63-.88-2.48-1.67-4.28-1.57-.82.04-1.65.18-2.45.4h0c1.44-1.65,5.55-4.53,8.11-5.94.63-.34.58-1.27-.07-1.55-3.57-1.58-6.78-2.56-7.61-3.86-.96-1.52-1.1-8.72,3.57-7.93,3.37.73,12.11,3.04,15.82,7.09Z"/>
    <path class="cls-6" d="m159.8,202.04l-23.46,13.26h-39.24l-23.46-13.26,36-18.65h14.16l36,18.65Zm-38.02,1.57v-6.1h-10.85v6.1h10.85Z"/>
    <rect class="cls-4" x="146.17" y="176.05" width="8.66" height="7.34"/>
    <path class="cls-4" d="m152.17,39.21l.54.03c-.23,3.64-.66,7.94-1.29,9.38-1.02,2.31-2.37,4.61-2.59,4.67-.23.05-2.3,0-2.3,0l-.16-5.11c.57-1.13,1.08-2.35,1.55-3.65.1.04.18.08.28.11.05.02.1.03.15.03.19.04.38.04.57-.02.11-.03.22-.06.33-.11h0s.04-.02.06-.04c1.53-.75,2.76-3.63,2.84-5.26Z"/>
    <path class="cls-4" d="m152.17,39.13v.08c-.08,1.64-1.31,4.52-2.84,5.26,1.51-.78,2.75-3.71,2.84-5.34Z"/>
    <path class="cls-10" d="m152.17,39.09v.04c-.1,1.64-1.33,4.56-2.84,5.34-.02.02-.04.03-.06.04h0c-.11.04-.22.09-.33.11-.19.05-.38.06-.57.02,1.83.21,2.97-4.23,3.05-6.2.04-.63-.11-1.08-.35-1.39.57.5,1.09,1.28,1.11,2.04Z"/>
    <path class="cls-10" d="m151,36.98c.63.47,1.21,1.28,1.17,2.11-.02-.77-.54-1.54-1.11-2.04-.02-.03-.04-.05-.06-.07Z"/>
    <path class="cls-10" d="m151,36.98s.04.04.06.07c-.2-.18-.41-.33-.61-.41.15.06.31.16.47.27,0,0,.02.02.02.02.02.02.04.03.06.05Z"/>
    <path class="cls-10" d="m150.45,36.63c-.06-.04-.12-.06-.18-.08.06.02.12.04.18.08Z"/>
    <path class="cls-4" d="m148.93,44.62c.11-.03.22-.07.33-.11-.11.05-.22.09-.33.11Z"/>
    <polygon class="cls-6" points="146.17 176.05 146.17 183.39 123.8 183.39 120.04 183.39 120.04 176.05 146.17 176.05"/>
    <path class="cls-10" d="m130.81,58.05c-.02.08-.04.15-.06.23l-.02-.25s.05,0,.08.02Z"/>
    <path class="cls-9" d="m127.63,61.42c.05.04.11.06.18.09-.2.18-.42.36-.67.57-.02-.12-.03-.25-.04-.38.26-.12.43-.22.53-.28Z"/>
    <path class="cls-9" d="m127.11,61.7c0,.13.02.26.04.38-.37.33-.78.7-1.24,1.11-.06-.28-.11-.55-.15-.84.57-.26,1.03-.48,1.36-.65Z"/>
    <path class="cls-3" d="m123.97,169.31l-.31,1.82c-8.8-1.54-16.35-4.56-19.67-9.01-7.94,3.74-12.74,3.89-12.74,3.89,1.2-.69,2.51-3.88,3.57-8.07l2.43.28c6.29-2.63,14.15-6.34,16.68-9.82-.52,2.42-.61,4.89-.06,7.13,2.41,9.89,4.75,11.98,10.1,13.79Z"/>
    <rect class="cls-4" x="110.93" y="197.51" width="10.85" height="6.1"/>
    <path class="cls-3" d="m120.73,137.08l-1.15.46c-2.49,2.39-4.74,6.55-5.64,10.85-2.54,3.49-10.39,7.19-16.68,9.82l-2.43-.28c1.7-6.79,2.74-16.19,1.53-21.74,1.8,2.69,4.64,6.59,7.19,6.59s8.39-1.2,6.44-4.95c-1.95-3.74-6.63-7.57-6.63-7.57,13.11.81,15.15-.22,15.15-.22.55,2.01,1.31,4.46,2.22,7.03Z"/>
    <rect class="cls-4" x="111.37" y="176.05" width="8.66" height="7.34"/>
    <polygon class="cls-6" points="111.37 176.05 111.37 183.39 109.64 183.39 85.24 183.39 85.24 176.05 111.37 176.05"/>
    <path class="cls-9" d="m109.99,137.83c1.95,3.75-3.9,4.95-6.44,4.95s-5.4-3.9-7.19-6.59c-.31-.45-.94-.62-1.65-.63v-.2c-.14-2.39.7-5.62.75-5.81,1.37.2,2.91.37,4.65.5,1.15.09,2.24.16,3.26.22,0,0,4.67,3.83,6.63,7.57Z"/>
    <polygon class="cls-6" points="109.64 183.39 73.64 202.04 97.1 215.3 32.96 215.3 56.42 202.04 20.43 183.39 41.78 183.39 50.44 183.39 76.58 183.39 85.24 183.39 109.64 183.39"/>
    <path class="cls-9" d="m92.61,93.49c-3.21.1-11.19,1.65-14.53,2.09l-1.59-.17c2.86-2.99,9.08-8.34,14.95-13.16l1.48.14s1.18,6.98,2.55,7.79l1.65,1.04c-.77.83-1.48,1.61-2.14,2.35l-2.37-.08Z"/>
    <path class="cls-9" d="m78.21,135.33s-.52.06-3.58-.04c-4.65-.15-9.3-11.84-11.39-16.64-1.21-2.76-3.25-7.63-5.07-11.44-1.34-2.79-2.55-5.02-3.25-5.47,6.8-3.2,20.61-5.26,20.61-5.26.26-.31.57-.67.95-1.07l1.59.17c3.35-.43,11.32-1.99,14.53-2.09l2.37.08c-1.8,2.03-3.17,3.71-3.86,4.85-4.05,6.59-9.14,15.29-7.94,20.53.98,4.28.96,8.16,9.62,10.1-8.8-.05-13.48,3.64-14.32,5.62-.09.21-.15.43-.18.67h-.07Z"/>
    <path class="cls-9" d="m92.8,129.05h0s-2.13,4.64-1.69,6.73l-.61.26s-2.02,1.6-4.69,2.59c-.88.33-1.85.59-2.83.7-3.21.37-4.97-2.07-4.71-4,.04-.24.1-.46.18-.67.85-1.98,5.52-5.67,14.32-5.62h0Z"/>
    <rect class="cls-4" x="76.58" y="176.05" width="8.66" height="7.34"/>
    <rect class="cls-6" x="50.44" y="176.05" width="26.14" height="7.34"/>
    <path class="cls-5" d="m54.92,101.74c.7.45,1.91,2.68,3.25,5.47-.78.42-6.64,3.82-12.02,14.6.04-.25.07-.48.11-.74,1.06-6.77,2.99-15.24,6.19-17.84.63-.52,1.47-1.01,2.46-1.48Z"/>
    <path class="cls-6" d="m56.42,202.04l-23.46,13.26H.23v-28.79l6.03-3.13h14.17l35.99,18.65Zm-37.65,1.57v-6.1H7.92v6.1h10.85Z"/>
    <rect class="cls-4" x="41.78" y="176.05" width="8.66" height="7.34"/>
    <path class="cls-7" d="m46.27,121.06c-.04.26-.08.49-.11.74-.17,1.14-.32,2.21-.43,3.2l-.47-.05H.23v-4.01h45.18l.86.13Z"/>
    <polygon class="cls-6" points="41.78 176.05 41.78 183.39 20.43 183.39 15.73 183.39 15.73 176.05 41.78 176.05"/>
    <rect class="cls-4" x="7.92" y="197.51" width="10.85" height="6.1"/>
    <rect class="cls-4" x="7.07" y="176.05" width="8.66" height="7.34"/>
    <polygon class="cls-6" points="7.07 176.05 7.07 183.39 6.26 183.39 .23 183.39 .23 176.05 7.07 176.05"/>
  </g>
  <g>
    <path class="cls-5" d="m257.39,151.09c.74.64,1.36,1.1,1.84,1.32-9.22,2.88-27.64,6.58-37.19,2.7,6.55-4.45,12.02-8.95,14.07-11.29,1.62-1.86,2.37-4.02,2.35-6.29,4.38,4.95,9.47,12.5,18.94,13.55Z"/>
    <g>
      <path class="cls-1" d="m129.27,26.9c-1.1,1.34-2.2,2.79-3.15,4.29,0,0,0,0,0,0-.58.9-1.11,1.8-1.55,2.7-.27.55-.52,1.1-.72,1.64-.98,2.56-1.61,4.91-1.93,7.05v.02c-.85,5.49.37,9.61,3.23,12.35.2.21.42.4.64.58.29.24.59.47.91.67.36.26.74.48,1.14.69.48.26.99.49,1.52.7.05.03.11.05.16.07.4.15.81.28,1.21.38.03,0,.05,0,.08.02,1.17.27,2.35.35,3.52.21l-.08.07"/>
      <path class="cls-1" d="m130.74,58.03l.02.25.09,1.08.19,2.54s2.15-.06,4.73-.48c1.05-.18,2.17-.42,3.26-.75,3.65-1.09,6.73-3.19,7.62-4.02l-.05-1.59-.05-1.78-.16-5.11c.57-1.13,1.08-2.35,1.55-3.65.1.04.18.08.28.11.05.02.1.03.15.03.19.04.38.04.57-.02.11-.03.22-.06.33-.11h0s.04-.02.06-.04c1.53-.75,2.76-3.63,2.84-5.26v-.11c-.02-.77-.54-1.54-1.11-2.04-.2-.18-.41-.33-.61-.41-.06-.04-.12-.06-.18-.08-.04-.02-.1-.03-.14-.04,1.24-5.48,1.65-10.56-1.29-13.94-.68-.77-2.48-.99-3.55-1.57-1.63-.88-2.48-1.67-4.28-1.57-.82.04-1.65.18-2.45.4-2.18.56-4.22,1.71-5.73,3.18-1.06,1.01-2.32,2.36-3.56,3.87"/>
      <path class="cls-1" d="m138.57,19.84c1.44-1.64,5.55-4.52,8.11-5.93.63-.34.58-1.27-.07-1.55-3.57-1.58-6.78-2.56-7.61-3.86-.96-1.52-1.1-8.72,3.57-7.93,3.37.73,12.11,3.04,15.82,7.09,3.71,4.05,5.85,6.91,4.72,10.78-.9,3.1-5.33,2.02-6.35,2.47s-3.93,10.79-3.88,13.2c.03.92-.04,2.9-.17,5.12-.23,3.64-.66,7.94-1.29,9.38-1.02,2.31-2.37,4.61-2.59,4.67-.23.05-2.3,0-2.3,0"/>
      <path class="cls-1" d="m135.46,31.53c3.71-1.35,10.45.22,11.12,6.63"/>
      <path class="cls-1" d="m132.54,28.49c-1.9-2.24-2.37-1.4-3.26-1.59h0"/>
      <path class="cls-1" d="m134.34,34.62c.98-.21,3.14-.43,5.77,1.14"/>
      <path class="cls-1" d="m130.44,33.21c-.97-1.35-3.38-1.95-3.97-1.8"/>
      <path class="cls-1" d="m131.41,32.76c-.16.21-.35.44-.56.7-.7.83-1.66,1.88-2.48,2.93-1.02,1.31-1.83,2.64-1.72,3.61.03.19.09.37.19.53,1.11,1.72,2.18.92,2.18.92"/>
      <path class="cls-1" d="m122.5,47.44c.98-.75,1.65-2.69,3.97-2.69"/>
      <path class="cls-1" d="m130.44,44.75s6.18,3.82,7.14,6.81"/>
      <path class="cls-1" d="m125.74,48.34c-.04,1.02,3.83,1.72,4.97.57"/>
      <path class="cls-1" d="m146.64,56.64s1.55-.88,2.26-1.42c.11-.08.21-.16.27-.22"/>
      <path class="cls-1" d="m133.53,38.38s.96,1.43,1.11,4.5"/>
      <path class="cls-1" d="m125.81,40.1c-.69.53-1.43,1.2-1.88,2.77"/>
      <path class="cls-1" d="m162.88,61.41c-5.99,4.5-28.55,28.02-32.1,36.86-3.54,8.8-7.11,13.58-6.78,23.38v.15"/>
      <path class="cls-1" d="m165.44,151c1.69.61,4.86.18,11.38-2.53,9.74-4.05,36.11-19.63,36.11-19.63,3.86-1.2,12.67-2.51,18.43-3.15"/>
      <path class="cls-1" d="m175.02,87.06c-.75,3.57-18.13,18.57-30.56,23.95-8.03,3.49-15.38,7.03-20.46,10.64-2.79,1.98-4.89,3.98-6.07,5.99.14.69.34,1.5.58,2.39.55,2.01,1.31,4.46,2.22,7.03,2.49,7.1,5.98,15.07,8.43,16.64,2.1,1.35,4.67,1.33,7.31.6,2.08-.56,4.2-1.57,6.18-2.69,4.5-2.54,13.34-8.39,14.68-8.69,1.36-.3,5.4,4.64,6.44,6.59.34.63.82,1.18,1.65,1.48"/>
      <path class="cls-1" d="m136.47,154.31s10.38,1.06,15.63-.9c5.23-1.95,11.51-2.13,13.33-2.41h0"/>
      <path class="cls-1" d="m124,127.8s27.8,15.88,34.76,13.49"/>
      <path class="cls-1" d="m124,121.8s35.59-2.05,70.4-7.61c3.39-.54,6.77-1.11,10.11-1.72"/>
      <line class="cls-1" x1="190.9" y1="101.35" x2="194.21" y2="112.97"/>
      <path class="cls-1" d="m155.99,91.61s-16.24,21.66-25.58,24.8"/>
      <path class="cls-1" d="m128.46,115.06c1.61-6.89,19.44-37.61,31.88-44.35"/>
      <path class="cls-1" d="m115.23,114.16s-.75-7.64-2.24-8.54"/>
      <path class="cls-1" d="m114.12,105.62l6.21-3.15c-2.39,5.4-2.1,14.68-.9,19.33"/>
      <path class="cls-1" d="m94.71,120.93s4.64-14.11,13.78-25.35c9.15-11.24,18.82-28.47,18.82-28.47,2.29.18,4.87,1.03,8.29,1.03,4.72,0,11.04-1.61,20.39-8.78"/>
      <path class="cls-1" d="m92.81,129.05c.8.18,1.68.34,2.65.49,1.37.2,2.91.37,4.65.5,1.15.09,2.24.16,3.26.22,13.11.81,15.15-.22,15.15-.22"/>
      <path class="cls-1" d="m127.91,61.41s-.06.05-.1.09c-.2.18-.42.36-.67.57-.37.33-.78.7-1.24,1.11-.28.26-.58.52-.9.81-5.61,5.06-15.78,14.71-23.61,22.75-1.53,1.57-2.98,3.08-4.28,4.48-.77.83-1.48,1.61-2.14,2.35-1.8,2.03-3.17,3.71-3.86,4.85-4.05,6.59-9.14,15.29-7.94,20.53.98,4.28.96,8.16,9.62,10.1"/>
      <line class="cls-1" x1="110.44" y1="69.21" x2="108.92" y2="75.5"/>
      <path class="cls-1" d="m99.05,78.8c0,.6.75,7.19.75,7.19"/>
      <path class="cls-1" d="m92.91,82.39s1.18,6.98,2.55,7.79"/>
      <path class="cls-1" d="m78.08,95.58c3.35-.43,11.32-1.99,14.53-2.09.11,0,.2,0,.3,0"/>
      <path class="cls-1" d="m54.92,101.74c.7.45,1.91,2.68,3.25,5.47,1.82,3.81,3.86,8.68,5.07,11.44,2.1,4.8,6.74,16.49,11.39,16.64,2.88.09,3.51.07,3.57.04,0,0,0,0,0,0,0-.02-.14-.04-.14-.04"/>
      <path class="cls-1" d="m103.37,130.26s4.67,3.83,6.63,7.57c1.95,3.75-3.9,4.95-6.44,4.95s-5.4-3.9-7.19-6.59c1.21,5.55.17,14.96-1.53,21.74-1.06,4.19-2.37,7.39-3.57,8.07"/>
      <path class="cls-1" d="m92.81,129.05h-.02c-8.8-.05-13.48,3.64-14.32,5.62-.09.21-.15.43-.18.67-.26,1.93,1.5,4.37,4.71,4,.98-.11,1.95-.38,2.83-.7,2.67-.99,4.69-2.59,4.69-2.59-.9,15.28-14.23,23.52-19.78,25.92l1.65-11.69s.86-.39,2.2-1.07c3.42-1.75,9.96-5.49,13.24-9.87"/>
      <line class="cls-1" x1="83" y1="136.19" x2="90.51" y2="132.14"/>
      <line class="cls-1" x1="99.05" y1="132.89" x2="104.3" y2="137.53"/>
      <path class="cls-1" d="m92.81,129.05s-2.13,4.64-1.69,6.73l.05.18c.03.08.05.16.09.23,0,0,.37-.12.91-.26.7-.18,1.68-.39,2.54-.37.7.02,1.34.18,1.65.63"/>
      <path class="cls-1" d="m92.17,135.92s.38,2.39.33,5.46c-.04,2.9-.48,6.4-1.98,9.09-3.1,5.55-10.51,15.01-12.3,15.79"/>
      <path class="cls-1" d="m85.57,166.9c4.35-7.04,8.11-15.75,8.86-20.88.12-.83.18-2.68.23-4.62.05-2.48.05-5.11.05-5.85v-.2c-.14-2.39.7-5.62.75-5.81h0"/>
      <path class="cls-1" d="m119.58,137.53c-2.49,2.39-4.74,6.55-5.64,10.85-.52,2.42-.61,4.89-.06,7.13,2.41,9.89,4.75,11.98,10.1,13.79"/>
      <path class="cls-1" d="m97.26,158.21c6.29-2.63,14.15-6.34,16.68-9.82.06-.09.12-.17.18-.26"/>
      <path class="cls-1" d="m157.94,168.7c5.99-3.59,45.86-24.82,51.4-27.17"/>
      <path class="cls-1" d="m181.32,160.31s13.19-6.03,15.58-7.51,1.8,1.8,1.8,1.8"/>
      <path class="cls-1" d="m54.1,141.53s12.6,19.71,14.08,19.89"/>
      <path class="cls-1" d="m50.2,151.47s9.89,9.95,13.94,9.95"/>
      <path class="cls-1" d="m74.63,135.29s-1.21,9.29-1.36,11.68"/>
      <path class="cls-1" d="m58.26,107.16s-.03.02-.09.04c-.78.42-6.64,3.82-12.02,14.6"/>
      <path class="cls-1" d="m235.27,124.94s15.55,20.43,22.12,26.15c.74.64,1.36,1.1,1.84,1.32-9.22,2.88-27.64,6.58-37.19,2.7"/>
      <path class="cls-1" d="m238.45,137.53h0c4.38,4.96,9.47,12.51,18.94,13.56"/>
      <path class="cls-1" d="m162.88,68.27l3.3,11.73c-4.95,0-14.98,7.04-15.23,7.06"/>
      <path class="cls-1" d="m235.28,124.94c.64-.26,1.02-.61.73-1.04-.21-.32-1-1.04-2.13-1.98-3.68-3.08-10.91-8.49-12.86-9.45-2.54-1.23-16.51,0-16.51,0l-13.6-11.13-4.72-7.98s.33-1.13,0-10c-.33-8.88-3.71-12.59-6.51-15.85-2.82-3.26-12.25-5.17-15.63-6.11-.35-.1-.71-.2-1.07-.32-3.07-.93-6.32-2.26-8.79-3.32-2.01-.86-3.49-2.07-5.29-2.55-.7-.19-1.46-.27-2.32-.18h0"/>
      <path class="cls-1" d="m135.76,61.41c-1.29.3-3.42.58-5.26.54-.56,0-1.1-.04-1.58-.13-.43-.07-.8-.18-1.11-.32-.06-.03-.12-.05-.18-.09-.1.06-.27.16-.53.28-.33.17-.78.39-1.36.65-.33.16-.71.33-1.12.51-.27.12-.56.26-.86.4-3.62,1.62-9.06,4-13.34,5.95-2.85,1.3-5.19,2.42-6.14,3-1.02.63-3.94,2.86-7.58,5.76-1.65,1.32-3.45,2.78-5.29,4.29-5.87,4.82-12.09,10.17-14.95,13.16-.38.4-.7.76-.95,1.07,0,0-13.8,2.06-20.61,5.26-.99.47-1.84.96-2.46,1.48-3.2,2.61-5.13,11.07-6.19,17.84-.04.26-.08.49-.11.74-.17,1.14-.32,2.21-.43,3.2-.25,1.96-.4,3.55-.47,4.45-.3,4.04-10.93,11.08-12.88,14.98-1.95,3.9-3.6,16.63,8.69,19.33,12.29,2.69,14.38-.15,20.98-1.65,2.79-.63,4.77-.77,6.14-.7,1.86.09,2.55.55,2.55.55l-1.95,3.44,8.69.9.74-.04,2.41-.11,4.94.75h4.5l1.2-.9s4.8-.15,12.74-3.89c3.32,4.45,10.86,7.47,19.67,9.01,3.92.69,8.09,1.08,12.25,1.17,13.49.3,8.7-1.05,22.03-3.6,5.55.91,26.52.46,39.11-1.5,6.98-1.08,16.83-6.54,24.99-12.09,6.55-4.45,12.02-8.95,14.07-11.29,1.62-1.86,2.37-4.02,2.35-6.29-.04-4.13-2.64-8.56-7.1-11.85,0,0,2.54-.21,3.91-.76"/>
      <path class="cls-1" d="m127.91,61.41c.29-.41.63-.78.98-1.08.55-.48,1.14-.82,1.65-.92.11-.03.2-.04.3-.04"/>
      <path class="cls-2" d="m125.81,53.89s-.29.39-.66,1.07c-.86,1.58-2.17,4.75-1.37,8.3.04.19.1.4.15.59"/>
      <path class="cls-2" d="m126.75,53.89s-.45.61-.96,1.65c-.79,1.64-1.71,4.33-1.15,7.32.05.33.13.65.23.99"/>
      <path class="cls-2" d="m127.95,53.89s-.65.88-1.26,2.32c-.65,1.55-1.26,3.73-.94,6.14.04.28.09.55.15.84.04.22.11.44.17.66"/>
      <path class="cls-2" d="m129.37,53.89s-.86,1.16-1.53,3c-.48,1.31-.85,2.98-.73,4.81,0,.13.02.26.04.38.06.58.17,1.17.34,1.77"/>
      <path class="cls-2" d="m131.16,53.77s-1.13,1.51-1.8,3.81c-.24.83-.42,1.75-.48,2.75-.03.48-.02.98.04,1.49.04.63.16,1.26.35,1.91"/>
      <path class="cls-2" d="m132.72,53.81s-1.27,1.71-1.91,4.24c-.02.08-.04.15-.06.23-.09.36-.16.74-.21,1.13-.11.79-.14,1.65-.04,2.54.05.59.17,1.21.34,1.82"/>
      <path class="cls-1" d="m137.22,37.51s1.33,1.8,5.25.64"/>
      <path class="cls-1" d="m126.89,35.11s-1.46-.09-1.65-1.12"/>
      <path class="cls-1" d="m134.64,25.6c.19,1.07,2.74,2.39,3.79,2.09"/>
      <line class="cls-1" x1="269.64" y1="121.8" x2="233.98" y2="121.8"/>
      <polyline class="cls-1" points=".23 215.3 32.96 215.3 97.11 215.3 136.34 215.3 200.49 215.3 239.72 215.3 269.64 215.3"/>
      <line class="cls-1" x1="45.41" y1="120.93" x2=".23" y2="120.93"/>
      <line class="cls-1" x1=".23" y1="124.95" x2="45.26" y2="124.95"/>
      <polyline class="cls-1" points="235.27 124.94 235.28 124.94 269.64 124.94"/>
      <line class="cls-1" x1="259.23" y1="176.05" x2="269.64" y2="176.05"/>
      <line class="cls-1" x1="224.44" y1="176.05" x2="250.57" y2="176.05"/>
      <line class="cls-1" x1="189.64" y1="176.05" x2="215.77" y2="176.05"/>
      <line class="cls-1" x1="154.84" y1="176.05" x2="180.97" y2="176.05"/>
      <line class="cls-1" x1="120.04" y1="176.05" x2="146.18" y2="176.05"/>
      <line class="cls-1" x1="85.24" y1="176.05" x2="111.38" y2="176.05"/>
      <line class="cls-1" x1="50.44" y1="176.05" x2="76.58" y2="176.05"/>
      <line class="cls-1" x1="15.73" y1="176.05" x2="41.78" y2="176.05"/>
      <line class="cls-1" x1=".23" y1="176.05" x2="7.07" y2="176.05"/>
      <line class="cls-1" x1="259.23" y1="183.39" x2="269.64" y2="183.39"/>
      <polyline class="cls-1" points="224.44 183.39 227.19 183.39 250.57 183.39"/>
      <polyline class="cls-1" points="189.64 183.39 213.02 183.39 215.77 183.39"/>
      <line class="cls-1" x1="154.84" y1="183.39" x2="180.97" y2="183.39"/>
      <polyline class="cls-1" points="120.04 183.39 123.81 183.39 146.18 183.39"/>
      <polyline class="cls-1" points="85.24 183.39 109.64 183.39 111.38 183.39"/>
      <line class="cls-1" x1="50.44" y1="183.39" x2="76.58" y2="183.39"/>
      <polyline class="cls-1" points="15.73 183.39 20.43 183.39 41.78 183.39"/>
      <polyline class="cls-1" points=".23 183.39 6.26 183.39 7.07 183.39"/>
      <rect class="cls-1" x="250.57" y="176.05" width="8.66" height="7.34"/>
      <rect class="cls-1" x="215.77" y="176.05" width="8.66" height="7.34"/>
      <rect class="cls-1" x="180.97" y="176.05" width="8.66" height="7.34"/>
      <rect class="cls-1" x="146.18" y="176.05" width="8.66" height="7.34"/>
      <rect class="cls-1" x="111.38" y="176.05" width="8.66" height="7.34"/>
      <rect class="cls-1" x="76.58" y="176.05" width="8.66" height="7.34"/>
      <rect class="cls-1" x="41.78" y="176.05" width="8.66" height="7.34"/>
      <rect class="cls-1" x="7.07" y="176.05" width="8.66" height="7.34"/>
      <polyline class="cls-1" points="200.49 215.3 177.02 202.04 213.02 183.39"/>
      <polyline class="cls-1" points="239.72 215.3 263.19 202.04 227.19 183.39"/>
      <polyline class="cls-1" points="97.11 215.3 73.65 202.04 109.64 183.39"/>
      <polyline class="cls-1" points="136.34 215.3 159.8 202.04 123.81 183.39"/>
      <line class="cls-1" x1=".23" y1="186.52" x2="6.26" y2="183.39"/>
      <polyline class="cls-1" points="32.96 215.3 56.42 202.04 20.43 183.39"/>
      <rect class="cls-1" x="214.68" y="197.51" width="10.85" height="6.1"/>
      <rect class="cls-1" x="110.94" y="197.51" width="10.85" height="6.1"/>
      <rect class="cls-1" x="7.92" y="197.51" width="10.85" height="6.1"/>
    </g>
  </g>
</svg>