<?xml version="1.0" encoding="UTF-8"?>
<svg id="_レイヤー_1" data-name="レイヤー 1" xmlns="http://www.w3.org/2000/svg" viewBox="0 0 221.4 198.93">
  <defs>
    <style>
      .cls-1 {
        fill: #8fbdba;
      }

      .cls-1, .cls-2, .cls-3, .cls-4, .cls-5, .cls-6, .cls-7, .cls-8 {
        stroke-width: 0px;
      }

      .cls-2 {
        fill: #9d968c;
      }

      .cls-9 {
        fill: none;
        stroke: #000;
        stroke-linecap: round;
        stroke-linejoin: round;
      }

      .cls-4 {
        fill: #333;
      }

      .cls-5 {
        fill: #f7daba;
      }

      .cls-6 {
        fill: #d8d8ce;
      }

      .cls-7 {
        fill: #ffffea;
      }

      .cls-8 {
        fill: #dd6d62;
      }
    </style>
  </defs>
  <g>
    <path class="cls-6" d="m190.8,169.39c2.51-2.17,15.01,0,21.8-3.48-.05,1.19-.14,2.26-.33,3.12-2.17,2.16-4.71,4.14-7.63,5.94-9.26,5.74-15.03,5.05-23.47,4.3l7.14-7.71,2.49-2.17Z"/>
    <path class="cls-6" d="m197.14,126.22s7.26,1,13,1.5c5.75.49,10.76,9.99,10.76,21,0,7.94-3.01,14.71-8.63,20.31.19-.86.28-1.93.33-3.12.27-6.1-.96-15.55-.96-17.94,0-3.25,0-9.76-1-12.75-1-3-13.5-9-13.5-9Z"/>
    <path class="cls-1" d="m197.14,126.22s12.5,6,13.5,9c1,2.99,1,9.5,1,12.75,0,2.39,1.23,11.84.96,17.94-2.27-.18-59.4-25.8-60.3-26.19h-.01s-1.96-5.36-3.48-9.7l2.15-.14c.29-.13.75-.36,1.33-.69h.01l39.5-2.81v-5.15l2.4-1.31c.97,1.95,1.96,4.05,2.94,6.3Z"/>
    <path class="cls-8" d="m212.6,165.91c-6.79,3.48-19.29,1.31-21.8,3.48l-2.49,2.17-13.84-9.41-14.84-10.1-7.33-12.33c.9.39,58.03,26.01,60.3,26.19Z"/>
    <path class="cls-1" d="m184.22,121.82c-1.68.09-5.43-.44-7.57-.98-.61-.16-2.35-1.09-4.53-2.35l2.35-.11c.83-.33,5.79-13.92,5.79-13.92,0,0,.12,1,4,2.5,3.03,1.18,6.44,6.01,9.94,12.96l-2.4,1.31-7.54.59h-.04Z"/>
    <path class="cls-1" d="m170.14,97.38c2.66-1.67,6.52-6.86,6.51-8.94,1.2.95,2.21,1.73,2.99,2.27,4.99,3.5,2.25,7.25.62,13.75,0,0-4.96,13.59-5.79,13.92l-2.35.11c-5.51-3.16-13.85-8.41-14.11-8.56v-.02c-.8-2.88-1.74-6.28-2.67-9.32l2.66-.26s9.46-1.29,12.14-2.95Z"/>
    <path class="cls-1" d="m174.47,162.15l13.84,9.41-7.14,7.71c-1.12-.1-2.3-.21-3.53-.3l-1.03.17c-.46-.47-.86-2.71-1.18-5.43-.61-4.99-.96-11.56-.96-11.56Z"/>
    <path class="cls-1" d="m159.63,152.05l14.84,10.1s.35,6.57.96,11.56c-1.33-.12-4.29-2.15-4.29-2.15-4.34-8.84-11.51-19.51-11.51-19.51Z"/>
    <path class="cls-6" d="m169.97,180.26l-2.12.35-.72.12,4.01-9.17s2.96,2.03,4.29,2.15c.32,2.72.72,4.96,1.18,5.43l-6.64,1.12Z"/>
    <path class="cls-1" d="m142.81,79.6c2.52-7.56,5.82-18.15,5.82-18.15,2.5,3.88,5.75,6.01,5.75,6.01,3.81,5.29,15.68,15.77,22.27,20.98.01,2.08-3.85,7.27-6.51,8.94-2.68,1.66-12.14,2.95-12.14,2.95l-2.66.26c-.14-.47-.28-.94-.43-1.39-.96-3.02-1.88-5.51-2.62-6.5-2.33-3.16-9.48-13.1-9.48-13.1Z"/>
    <path class="cls-1" d="m158.01,109.93c.26.15,8.6,5.4,14.11,8.56,2.18,1.26,3.92,2.19,4.53,2.35,2.14.54,5.89,1.07,7.57.98l-23.96,1.86c.21-.22.39-.43.54-.64,0,0,.16-4.49-.84-6.59-.34-.7-1.05-3.29-1.95-6.52Z"/>
    <path class="cls-1" d="m148.81,130.02c-.51-1.46-.96-2.8-1.27-3.8-.46-1.46-1.74-3.11-2.97-3.56,1.21-1.74,6.27-9.04,8.9-14.29,1.66-3.33,1.37-6.3.5-8.89l.94-.28c.15.45.29.92.43,1.39.93,3.04,1.87,6.44,2.66,9.32v.02c.91,3.23,1.62,5.82,1.96,6.52,1,2.1.84,6.59.84,6.59-.15.21-.33.42-.54.64-1.78,1.85-5.71,4.28-7.96,5.51h-.01c-.58.33-1.04.56-1.33.69l-2.15.14Z"/>
    <path class="cls-2" d="m191.8,126.38l-39.5,2.81c2.25-1.23,6.18-3.66,7.96-5.51l23.96-1.86h.04l7.54-.59v5.15Z"/>
    <path class="cls-1" d="m142.81,79.6s7.15,9.94,9.48,13.1c.74.99,1.66,3.48,2.62,6.5l-.94.28c-.7-2.07-1.76-3.88-2.51-5.43-1.66-3.51-11.05-7.7-11.05-7.7.5-1.19,1.39-3.73,2.4-6.75Z"/>
    <path class="cls-8" d="m144.57,122.66c1.23.45,2.51,2.1,2.97,3.56.31,1,.76,2.34,1.27,3.8,1.52,4.34,3.48,9.69,3.48,9.69h.01s7.33,12.34,7.33,12.34c0,0,7.17,10.67,11.51,19.51l-4.01,9.17-1.1.11-2.4.27-2.49.27-2.4.27-.74.08s-3.86-12.84-5.71-19.35c-1.83-6.49-11.16-32-10.29-37.16.41-2.43,1.47-2.97,2.57-2.56Z"/>
    <path class="cls-1" d="m148.63,61.45s-3.3,10.59-5.82,18.15c-1.01,3.02-1.9,5.56-2.4,6.75-.2.47-.34.73-.41.73-2.49.13-4.62-2.75-4.62-2.75.35-1.05,1.02-4.69,1.74-8.99,1.35-8.04,2.88-18.39,2.88-18.39,2.5-1.74,7.13.5,8.63,4.5Z"/>
    <path class="cls-1" d="m130.83,52.19s8.3,3.76,9.17,4.76c0,0-1.53,10.35-2.88,18.39,0,0-5.32-4.3-7.5-5.63-2.16-1.34-7.43-7.26-7.43-7.26h0c1.17-.64,2.44-1.4,3.86-2.25,2.84-1.7,4.07-4.71,4.78-8.01Z"/>
    <path class="cls-1" d="m113.38,65.2c3.01.03,5.52-.94,8.81-2.76h0s5.27,5.93,7.43,7.27c2.18,1.33,7.5,5.63,7.5,5.63-.72,4.3-1.39,7.94-1.74,8.99,0,0-9.09-6.12-20.08-16.96-.72-.71-1.42-1.34-2.12-1.92l.2-.25Z"/>
    <path class="cls-7" d="m114.08,30.45c-1.66,3.49-3.83,2.88-4.21,1.88-.37-1.01-3.37-5.63-4.62-8.63-.62-1.49-.55-2.24-.22-2.67.34-.43.94-.52,1.34-.71.81-.36,4.75-2.12,7.71-3s3.17.62,3.17,3c0,2.09-1.16,5.62-2.56,8.82-.21.45-.4.88-.61,1.31Z"/>
    <path class="cls-4" d="m93.46,23.41c.24-3.42,1.49-14.05,5.08-17.22,1.82-1.61,4.59-1.91,6.94-1.72l-.11,1.39c-.96-.05-2.08.11-2.58.16-.92.11-2.42,1.34-4.08,5.51-1.67,4.17-2.17,9.33-2.17,9.33-.31,2.25.91,2.34,1.5,2.34s2.6-.59,3.43-1.6c.2-.25.5-.62.85-1.03l2.71.46c-.33.43-.4,1.18.22,2.67,1.25,3,4.25,7.62,4.62,8.63.38,1,2.55,1.61,4.21-1.88.21-.43.4-.86.61-1.31l2.12.97c-2.09,3.55-3.98,6.14-5.35,6.51-1.62.44-6.23-2.3-7.75-3.36-.2-.14-.34-.25-.42-.31-.67-.58-3.83-5.25-3.83-5.25-3.92-.75-6.34-.84-6-4.29Z"/>
    <path class="cls-1" d="m106.12,172.64l.03-.34c10.98,2.49,25.53,5.7,30.5,6.67-2.83,1.08-25.69,4.42-25.69,4.42l-4.84-10.75Z"/>
    <path class="cls-4" d="m102.32,20.57c1.08-1.27,2.7-2.95,4.14-3.21v-2.88h-3.92v-1.74h4.17s.99-4.53.42-6.13c-.19-.53-.92-.71-1.76-.75l.11-1.39c2.28.17,4.18.8,4.48,1.16.59.73.42,7.73.42,7.73,0,0,3.07-2.33,4.49-4.75s6.51-6.67,8.76-7.67c2.24-1,7.41-.41,5.83,2.92-1.58,3.34-3.92,5.75-4.17,6.41-.25.68.5,3.01.5,3.01h5.67v1.75h-4.91l.08,1.33c2.75,1.5,7.66,7.84,8.09,9.5.17.72-.56,1.03-1.53,1.17h0c-1.3.2-3.04.07-3.57.17-.91.16-10.66-.91-10.66-.91-.73,1.36-1.45,2.64-2.15,3.82l-2.12-.97c1.4-3.2,2.56-6.73,2.56-8.82,0-2.38-.21-3.88-3.17-3s-6.9,2.64-7.71,3c-.4.19-1,.28-1.34.71l-2.71-.46Z"/>
    <path class="cls-5" d="m93,48.39c.38-.23,1.62-1.37,2.83-2.52l6.12-1.45h.03s-1.59-.1-2.61-.53c-.27-.16-.55-.37-.81-.64-1.96-1.99-1.02-6.58-.04-7.65,1.48-1.62,2.84-2.18,5.05-1.7l.14-.64c1.52,1.06,6.13,3.8,7.75,3.36,1.37-.37,3.26-2.96,5.35-6.51.7-1.18,1.42-2.46,2.15-3.82,0,0,9.75,1.07,10.66.91.53-.1,2.27.03,3.57-.16.01.41.32,10.62-.89,16.21-.6,2.71-.82,5.95-1.47,8.94-.71,3.3-1.94,6.31-4.78,8.01-1.42.85-2.69,1.61-3.86,2.24-3.29,1.82-5.8,2.79-8.81,2.76l-.2.25c-1.92-1.59-3.79-2.74-5.57-3.56-3.57-1.63-6.81-1.91-9.46-1.58l-.03-.23c.49-4.63-5.12-11.69-5.12-11.69Z"/>
    <path class="cls-5" d="m101.98,44.41h-.03c-.69.09-1.65.06-2.58-.52,1.02.43,2.61.52,2.61.52Z"/>
    <path class="cls-5" d="m98.56,43.25c.26.27.54.48.81.64-.39-.16-.7-.37-.81-.64Z"/>
    <path class="cls-1" d="m107.29,191.06l-10.52-20.91h0c2.38.56,5.68,1.31,9.38,2.15l-.03.34,4.84,10.75s22.86-3.34,25.69-4.42c.48.09.87.16,1.15.21,2.4.41,6.07,1.08,9.73,1.64-2.5,2.69-40.24,10.24-40.24,10.24Z"/>
    <path class="cls-4" d="m95.83,45.87c1.38-1.3,2.73-2.62,2.73-2.62.11.27.42.48.81.64.93.58,1.89.61,2.58.53l-6.12,1.45Z"/>
    <path class="cls-6" d="m93,169.22c.45.14,1.8.46,3.77.92h0s10.52,20.92,10.52,20.92c0,0,37.74-7.55,40.24-10.24.17.02.35.05.52.07l5.8,9.68c-1.92,1.21-8.71,5.45-12.97,7.16-5,2-24.51-.76-30.42-2.5-5.21-1.55-24.2-5.42-36.18-6.99h0c-1.21-.18-2.33-4.18-1.66-6.46.21-.72.94-1.28,2.04-1.81,2.38-1.14,6.49-2.19,10.84-4.56,6.4-3.48,7.5-6.19,7.5-6.19Z"/>
    <path class="cls-1" d="m63.07,103.56c-.15-3.48-7.29-17.21-7.29-17.21l-1.71-.31c1.33-7.81,3.01-17.07,4.21-19.17,2.01-3.5,17.18-13.34,22-15.92,4.84-2.6,12.72-2.56,12.72-2.56,0,0,5.61,7.06,5.12,11.69l.03.23c2.65-.33,5.89-.05,9.46,1.58,1.78.82,3.65,1.97,5.57,3.56.7.58,1.4,1.21,2.12,1.92,10.99,10.84,20.08,16.96,20.08,16.96,0,0,2.13,2.88,4.62,2.75.07,0,.21-.26.41-.73,0,0,9.39,4.19,11.05,7.7.75,1.55,1.81,3.36,2.51,5.43.87,2.59,1.16,5.56-.5,8.89-2.63,5.25-7.69,12.55-8.9,14.29-1.1-.41-2.16.13-2.57,2.56-.87,5.16,8.46,30.67,10.29,37.16,1.85,6.51,5.71,19.35,5.71,19.35-.33.03-.7.05-1.12.05-2.17.01-5.46-.38-8.83-.89-.17-.02-.35-.05-.52-.07-3.66-.56-7.33-1.23-9.73-1.64-.28-.05-.67-.12-1.15-.21-4.97-.97-19.52-4.18-30.5-6.67-3.7-.84-7-1.59-9.38-2.16-1.97-.46-3.32-.78-3.77-.92-.2-.06-.46-.12-.77-.19-3.24-1.22-6.77-8.01-10.95-12.64-4.49-4.98-13.99-21.84-13.99-21.84l-3.54-6.22h0c1.06-1.32,1.7-2.11,1.7-2.11,0,0-.36-1.98-1.19-3.69-.14-.32-.32-.63-.52-.92-.81-2.35-.72-8-.57-12.99.03-1.37.08-2.69.11-3.88.01-.36.03-.74.07-1.16l-.28-.02Z"/>
    <path class="cls-6" d="m19.6,131.97s4.34,10.58,9.68,10.25h.01c-4.71,3.75-8.21,6.67-8.51,7.33-1.01,2.17,8,6.51,11.5,6.09,2.39-.29,4.54-.69,7.21-2.03h0s-5.21,5.37-7.05,7.4c-1.83,2.04-3.16,7.04,5.01,7.8,8.17.74,16.5,3.08,20.16,3.83,6.84.58,13.21,3.5,17.05,7.33-1.1.53-1.83,1.09-2.04,1.81-.67,2.28.45,6.28,1.66,6.45h0c-1.61-.21-3.1-.38-4.42-.5-10.99-1.01-24-7.26-35.5-8-11.5-.76-16.5-8.26-17.25-9.51s-.5-7.75,0-12,.5-23.5,2.49-26.25Z"/>
    <path class="cls-1" d="m50.71,157.24c-.16.66-.03,1.55.57,2.98,1.41,3.38,5.42,7.46,6.65,8.66l.68-.07s2.07-4.53,7.38-4.15c.77.21,1.59.41,2.46.56,6.98,1.24,19.77,2.91,23.78,3.81.26.1.51.17.77.19,0,0-1.1,2.71-7.5,6.19-4.35,2.37-8.46,3.42-10.84,4.56-3.84-3.83-10.21-6.75-17.05-7.33-3.66-.75-11.99-3.09-20.16-3.83-8.17-.76-6.84-5.76-5.01-7.8,1.84-2.03,7.05-7.39,7.05-7.39h0c1.24-.63,2.59-1.45,4.12-2.57,3.9-2.83,15.72-17.25,20.14-22.72l3.54,6.22s-13.01,17.83-14.34,19.83c-.85,1.3-1.99,1.69-2.24,2.86Z"/>
    <path class="cls-1" d="m51.11,114.38s.08-6.22.38-11.34c2.56.77,5.16,1.63,7.26,2.53,1.66,1.16,3.15,2.22,4.32,3.05h.1c-.15,4.99-.24,10.64.57,12.99-.18-.29-.4-.55-.62-.77-1.67-1.63-6.01,0-6.01,0,0,0-17.08,12.83-27.82,21.39h-.01c-5.34.32-9.68-10.26-9.68-10.26,1.62-7.14,11.94-10.46,27.44-16.09h.01c1.32-.48,2.67-.98,4.06-1.5Z"/>
    <path class="cls-1" d="m32.28,155.64c-3.5.42-12.51-3.92-11.5-6.09.3-.66,3.8-3.58,8.51-7.32,10.74-8.56,27.82-21.39,27.82-21.39,0,0,4.34-1.63,6.01,0,.22.22.44.48.62.77.14.43.32.74.52.92.83,1.71,1.19,3.69,1.19,3.69,0,0-.64.79-1.7,2.1h0c-4.42,5.48-16.24,19.9-20.14,22.73-1.53,1.12-2.88,1.94-4.12,2.56-2.67,1.34-4.82,1.74-7.21,2.03Z"/>
    <path class="cls-1" d="m52.12,97.21c.33-1.4,1.07-5.97,1.95-11.17l1.71.31s7.14,13.73,7.29,17.21l.28.02c-.04.42-.06.8-.07,1.16-.03,1.19-.08,2.51-.11,3.88h-.1c-.24-.98-1.95-2.03-4.32-3.05-2.19-1.52-4.67-3.2-7.1-4.75.13-1.53.28-2.83.47-3.61Z"/>
    <path class="cls-6" d="m50.71,157.24c.65-1.45,3.35-.91,4.91.65s4.54,5.06,10.37,6.77c-5.31-.38-7.38,4.15-7.38,4.15l-.68.07c-1.23-1.2-5.24-5.28-6.65-8.66-.6-1.43-.73-2.32-.57-2.98Z"/>
    <path class="cls-1" d="m50.71,157.24c.25-1.17,1.39-1.56,2.24-2.86,1.33-2,14.34-19.83,14.34-19.83,0,0,9.5,16.86,13.99,21.84,4.18,4.63,7.71,11.42,10.95,12.64-4.01-.9-16.8-2.57-23.78-3.81-.87-.15-1.69-.35-2.46-.56-5.83-1.71-8.76-5.16-10.37-6.77s-4.26-2.1-4.91-.65Z"/>
    <path class="cls-2" d="m.61,101.88c0-.5-1.34-1.34,5.5,1.55s45,10.95,45,10.95c-1.39.52-2.74,1.02-4.06,1.5h-.01c-.8-.17-34.3-7.17-37.6-8.01-3.33-.84-8.83-5.49-8.83-5.99Z"/>
  </g>
  <path class="cls-9" d="m133.19,27.04c-1.3.19-3.04.06-3.57.16-.91.16-10.66-.91-10.66-.91-.73,1.36-1.45,2.64-2.15,3.82-2.09,3.55-3.98,6.14-5.35,6.51-1.62.44-6.23-2.3-7.75-3.36-.2-.14-.34-.25-.42-.31-.67-.58-3.83-5.25-3.83-5.25-3.92-.75-6.34-.84-6-4.29.24-3.42,1.49-14.05,5.08-17.22,1.82-1.61,4.59-1.91,6.94-1.72,2.28.17,4.18.8,4.48,1.16.59.73.42,7.73.42,7.73,0,0,3.07-2.33,4.49-4.75s6.51-6.67,8.76-7.67c2.24-1,7.41-.41,5.83,2.92-1.58,3.34-3.92,5.75-4.17,6.41-.25.68.5,3.01.5,3.01h5.67v1.75h-4.91l.08,1.33c2.75,1.5,7.66,7.84,8.09,9.5.17.72-.56,1.03-1.53,1.17"/>
  <path class="cls-9" d="m102.32,20.57c-.35.41-.65.78-.85,1.03-.83,1.01-2.84,1.6-3.43,1.6s-1.81-.09-1.5-2.34c0,0,.5-5.16,2.17-9.33,1.66-4.17,3.16-5.4,4.08-5.51.5-.05,1.62-.21,2.58-.16.84.04,1.57.22,1.76.75.57,1.6-.42,6.13-.42,6.13h-4.17v1.74h3.92v2.88c-1.44.26-3.06,1.94-4.14,3.21Z"/>
  <path class="cls-9" d="m114.69,29.14c1.4-3.2,2.56-6.73,2.56-8.82,0-2.38-.21-3.88-3.17-3s-6.9,2.64-7.71,3c-.4.19-1,.28-1.34.71-.33.43-.4,1.18.22,2.67,1.25,3,4.25,7.62,4.62,8.63.38,1,2.55,1.61,4.21-1.88.21-.43.4-.86.61-1.31Z"/>
  <path class="cls-9" d="m101.98,44.41c.21-.03.39-.06.54-.1,0,0-.23,4.71.44,6.64"/>
  <path class="cls-9" d="m103.75,33.94c-.06-.01-.12-.03-.18-.04-2.21-.48-3.57.08-5.05,1.7-.98,1.07-1.92,5.66.04,7.65.26.27.54.48.81.64.93.58,1.89.61,2.58.53"/>
  <path class="cls-9" d="m122.71,39.45s2.83,10.67,1,11.34c-1.83.66-3.25-1-3.25-1"/>
  <path class="cls-9" d="m110.46,41.41s3.42-.71,4.84.79"/>
  <line class="cls-9" x1="117.25" y1="31.76" x2="120.99" y2="31.76"/>
  <line class="cls-9" x1="129.62" y1="32.65" x2="132.71" y2="33.11"/>
  <path class="cls-9" d="m127.13,43.86s2.25-.65,3.58,0"/>
  <path class="cls-9" d="m130.83,52.19s8.3,3.76,9.17,4.76c2.5-1.74,7.13.5,8.63,4.5,2.5,3.88,5.75,6.01,5.75,6.01,3.81,5.29,15.68,15.77,22.27,20.98,1.2.95,2.21,1.73,2.99,2.27,4.99,3.5,2.25,7.25.62,13.75,0,0,.12,1,4,2.5,3.03,1.18,6.44,6.01,9.94,12.96.97,1.95,1.96,4.05,2.94,6.3,0,0,7.26,1,13,1.5,5.75.49,10.76,9.99,10.76,21,0,7.94-3.01,14.71-8.63,20.31-2.17,2.16-4.71,4.14-7.63,5.94-9.26,5.74-15.03,5.05-23.47,4.3-1.12-.1-2.3-.21-3.53-.3l-1.03.17-6.64,1.12-2.12.35-.72.12"/>
  <path class="cls-9" d="m140,56.95s-1.53,10.35-2.88,18.39c-.72,4.3-1.39,7.94-1.74,8.99,0,0,2.13,2.88,4.62,2.75.07,0,.21-.26.41-.73.5-1.19,1.39-3.73,2.4-6.75,2.52-7.56,5.82-18.15,5.82-18.15"/>
  <path class="cls-9" d="m113.38,65.2c3.01.03,5.52-.94,8.81-2.76,1.17-.63,2.44-1.39,3.86-2.24,2.84-1.7,4.07-4.71,4.78-8.01.65-2.99.87-6.23,1.47-8.94,1.21-5.59.9-15.8.89-16.21h0"/>
  <path class="cls-9" d="m93,48.39s5.61,7.06,5.12,11.69"/>
  <path class="cls-9" d="m75.87,65.2s5.12-.4,9.63-1.13c2.64-.43,5.08-.97,6.16-1.62.62-.36,1.52-.83,2.67-1.24,1.08-.39,2.36-.74,3.82-.9,2.65-.33,5.89-.05,9.46,1.58,1.78.82,3.65,1.97,5.57,3.56.7.58,1.4,1.21,2.12,1.92,10.99,10.84,20.08,16.96,20.08,16.96"/>
  <path class="cls-9" d="m79.87,57.83s5.9,4.74,5.63,6.24"/>
  <path class="cls-9" d="m88.25,51.57s6.04,7.01,6.08,9.64"/>
  <path class="cls-9" d="m98.15,116.45s15.39-9.91,33.02-11.07c17.63-1.17,20.64-3.5,20.64-3.5"/>
  <path class="cls-9" d="m140.41,86.35s9.39,4.19,11.05,7.7c.75,1.55,1.81,3.36,2.51,5.43.87,2.59,1.16,5.56-.5,8.89-2.63,5.25-7.69,12.55-8.9,14.29-.18.25-.28.38-.28.38"/>
  <path class="cls-9" d="m122.19,62.45s5.27,5.92,7.43,7.26c2.18,1.33,7.5,5.63,7.5,5.63"/>
  <path class="cls-9" d="m152.29,129.19c-.58.33-1.04.56-1.33.69"/>
  <path class="cls-9" d="m158.01,109.93c.9,3.23,1.61,5.82,1.95,6.52,1,2.1.84,6.59.84,6.59-.15.21-.33.42-.54.64-1.78,1.85-5.71,4.28-7.96,5.51"/>
  <path class="cls-9" d="m142.81,79.6s7.15,9.94,9.48,13.1c.74.99,1.66,3.48,2.62,6.5.15.45.29.92.43,1.39.93,3.04,1.87,6.44,2.66,9.32"/>
  <path class="cls-9" d="m158,100.33s9.46-1.29,12.14-2.95c2.66-1.67,6.52-6.86,6.51-8.94"/>
  <path class="cls-9" d="m180.26,104.46s-4.96,13.59-5.79,13.92"/>
  <path class="cls-9" d="m158,109.91v.02c.27.15,8.61,5.4,14.12,8.56,2.18,1.26,3.92,2.19,4.53,2.35,2.14.54,5.89,1.07,7.57.98"/>
  <path class="cls-9" d="m133.24,139.71s-5.95,3.84-6.28,10.18c-.33,6.33.67,10.33-1.83,11-2.5.66-4.67-1.5-4.67-1.5"/>
  <polyline class="cls-9" points="152.29 129.19 152.3 129.19 191.8 126.38 191.8 121.23 184.26 121.82 184.22 121.82 160.26 123.68"/>
  <path class="cls-9" d="m197.14,126.22s12.5,6,13.5,9c1,2.99,1,9.5,1,12.75,0,2.39,1.23,11.84.96,17.94-.05,1.19-.14,2.26-.33,3.12-.15.73-.35,1.3-.63,1.69"/>
  <path class="cls-9" d="m152.3,139.72c.9.39,58.03,26.01,60.3,26.19-6.79,3.48-19.29,1.31-21.8,3.48l-2.49,2.17-13.84-9.41-14.84-10.1-7.33-12.33h-.01"/>
  <path class="cls-9" d="m159.63,152.05s7.17,10.67,11.51,19.51l-4.01,9.17-1.1.11-2.4.27-2.49.27-2.4.27-.74.08s-3.86-12.84-5.71-19.35c-1.83-6.49-11.16-32-10.29-37.16.41-2.43,1.47-2.97,2.57-2.56,1.23.45,2.51,2.1,2.97,3.56.31,1,.76,2.34,1.27,3.8,1.52,4.34,3.48,9.69,3.48,9.69"/>
  <line class="cls-9" x1="181.17" y1="179.27" x2="188.31" y2="171.56"/>
  <path class="cls-9" d="m174.47,162.15s.35,6.57.96,11.56c.32,2.72.72,4.96,1.18,5.43,0,.02.03.03.04.04"/>
  <path class="cls-9" d="m171.14,171.56s2.96,2.03,4.29,2.15c.05.01.08.01.12.01"/>
  <path class="cls-9" d="m19.6,131.97s4.34,10.58,9.68,10.25"/>
  <path class="cls-9" d="m63.75,128.32c1.06-1.31,1.7-2.1,1.7-2.1,0,0-.36-1.98-1.19-3.69-.14-.32-.32-.63-.52-.92-.18-.29-.4-.55-.62-.77-1.67-1.63-6.01,0-6.01,0,0,0-17.08,12.83-27.82,21.39-4.71,3.74-8.21,6.66-8.51,7.32-1.01,2.17,8,6.51,11.5,6.09,2.39-.29,4.54-.69,7.21-2.03,1.24-.62,2.59-1.44,4.12-2.56,3.9-2.83,15.72-17.25,20.14-22.72"/>
  <path class="cls-9" d="m63.75,128.32h0s3.54,6.23,3.54,6.23c0,0-13.01,17.83-14.34,19.83-.85,1.3-1.99,1.69-2.24,2.86-.16.66-.03,1.55.57,2.98,1.41,3.38,5.42,7.46,6.65,8.66.22.22.35.34.35.34"/>
  <path class="cls-9" d="m50.55,158.22c-.03-.39.03-.71.16-.98.65-1.45,3.35-.91,4.91.65s4.54,5.06,10.37,6.77c.77.21,1.59.41,2.46.56,6.98,1.24,19.77,2.91,23.78,3.81.31.07.57.13.77.19.45.14,1.8.46,3.77.92,2.38.57,5.68,1.32,9.38,2.16,10.98,2.49,25.53,5.7,30.5,6.67.48.09.87.16,1.15.21,2.4.41,6.07,1.08,9.73,1.64.17.02.35.05.52.07,3.37.51,6.66.9,8.83.89.42,0,.79-.02,1.12-.05"/>
  <path class="cls-9" d="m58.61,168.81s2.07-4.53,7.38-4.15h.04"/>
  <path class="cls-9" d="m39.49,153.62s-5.21,5.36-7.05,7.39c-1.83,2.04-3.16,7.04,5.01,7.8,8.17.74,16.5,3.08,20.16,3.83,6.84.58,13.21,3.5,17.05,7.33"/>
  <path class="cls-9" d="m67.29,134.55s9.5,16.86,13.99,21.84c4.18,4.63,7.71,11.42,10.95,12.64.26.1.51.17.77.19,0,0-1.1,2.71-7.5,6.19-4.35,2.37-8.46,3.42-10.84,4.56-1.1.53-1.83,1.09-2.04,1.81-.67,2.28.45,6.28,1.66,6.45"/>
  <path class="cls-9" d="m96.77,170.15l10.52,20.91s37.74-7.55,40.24-10.24h0"/>
  <path class="cls-9" d="m106.12,172.64l4.84,10.75s22.86-3.34,25.69-4.42"/>
  <path class="cls-9" d="m67.29,84.33s-3.41,12.54-3.94,19.25c-.04.42-.06.8-.07,1.16-.03,1.19-.08,2.51-.11,3.88-.15,4.99-.24,10.64.57,12.99.14.43.32.74.52.92"/>
  <path class="cls-9" d="m51.11,114.38s-38.16-8.06-45-10.95-5.5-2.05-5.5-1.55,5.5,5.15,8.83,5.99c3.3.84,36.8,7.84,37.6,8.01"/>
  <path class="cls-9" d="m41.28,100.37s5,1.12,10.21,2.67c2.56.77,5.16,1.63,7.26,2.53,2.37,1.02,4.08,2.07,4.32,3.05-1.17-.83-2.66-1.89-4.32-3.05-2.19-1.52-4.67-3.2-7.1-4.75-4.41-2.79-8.59-5.11-10.37-5.11"/>
  <path class="cls-9" d="m55.78,86.35s7.14,13.73,7.29,17.21"/>
  <path class="cls-9" d="m151.26,84.33c0-1.62,1.33-6.37,1.03-8.25-.28-1.88,6.21,4.13,6.21,4.13,0,0-3.99,6.23-3.62,8.23"/>
  <path class="cls-3" d="m122.35,52.49c-.41,3.57-4.23,6.21-7.6,4.53,1.23-3.29,4.03-5.31,7.6-4.53h0Z"/>
  <path class="cls-3" d="m122.56,52.76c2.81-.42,5.08,1.33,5.85,3.99-2.76.87-5.49-1.22-5.85-3.99h0Z"/>
  <polyline class="cls-9" points="147.88 180.61 148.05 180.89 153.85 190.57 158 197.47"/>
  <path class="cls-9" d="m169.97,180.25h0c.25.41,5.48,9.29,8.08,12.31"/>
  <path class="cls-9" d="m154.38,181.78s8.41,12.8,9.64,14.78"/>
  <path class="cls-9" d="m158.74,181.65s8.46,12.49,9.29,13.99"/>
  <line class="cls-9" x1="163.63" y1="181.11" x2="172.04" y2="193.89"/>
  <line class="cls-9" x1="167.85" y1="180.61" x2="176.04" y2="192.98"/>
  <line class="cls-9" x1="166.03" y1="180.84" x2="174.05" y2="193.39"/>
  <line class="cls-9" x1="161.14" y1="181.38" x2="170.03" y2="194.73"/>
  <line class="cls-9" x1="156.88" y1="181.78" x2="166.03" y2="196.14"/>
  <line class="cls-9" x1="152.29" y1="181.73" x2="162.02" y2="196.97"/>
  <line class="cls-9" x1="150.13" y1="181.38" x2="160.01" y2="197.47"/>
  <path class="cls-9" d="m104.29,57.45s1.53,3.52,3.32,4.44"/>
  <path class="cls-9" d="m119.38,47.54s-1.57.91-1.65,2.25"/>
  <path class="cls-9" d="m154.38,190.23s-.19.11-.53.34c-1.92,1.21-8.71,5.45-12.97,7.16-5,2-24.51-.76-30.42-2.5-5.21-1.55-24.2-5.42-36.18-6.99-1.61-.22-3.1-.39-4.42-.51-10.99-1.01-24-7.26-35.5-8-11.5-.76-16.5-8.26-17.25-9.51s-.5-7.75,0-12,.5-23.5,2.49-26.25c1.62-7.14,11.94-10.46,27.44-16.09h.01c1.32-.48,2.67-.98,4.06-1.5,0,0,.08-6.22.38-11.34.05-.78.1-1.52.16-2.22.13-1.53.28-2.83.47-3.61.33-1.4,1.07-5.97,1.95-11.17,1.33-7.81,3.01-17.07,4.21-19.17,2.01-3.5,17.18-13.34,22-15.92,4.84-2.6,12.72-2.56,12.72-2.56.38-.23,1.62-1.37,2.83-2.52,1.38-1.3,2.73-2.62,2.73-2.62.11.27.42.48.81.64,1.02.43,2.61.52,2.61.52h-.03s-6.12,1.46-6.12,1.46"/>
</svg>