<?xml version="1.0" encoding="utf-8"?>
<!-- Generator: Adobe Illustrator 27.9.0, SVG Export Plug-In . SVG Version: 6.00 Build 0)  -->
<svg version="1.1" id="レイヤー_1" xmlns="http://www.w3.org/2000/svg" xmlns:xlink="http://www.w3.org/1999/xlink" x="0px"
	 y="0px" viewBox="0 0 270 200" style="enable-background:new 0 0 270 200;" xml:space="preserve">
<style type="text/css">
	.st0{fill:#333333;}
	.st1{fill:#8FBDBA;}
	.st2{fill:#D8D8CE;}
	.st3{fill:#B3B3B3;}
	.st4{fill:#EABE9B;}
	.st5{fill:#CCCCCC;}
	.st6{fill:none;stroke:#000000;stroke-linecap:round;stroke-linejoin:round;stroke-miterlimit:10;}
	.st7{fill:#999999;stroke:#000000;stroke-linecap:round;stroke-linejoin:round;stroke-miterlimit:10;}
	.st8{fill:#1A1A1A;}
	.st9{fill:none;stroke:#1A1A1A;stroke-linecap:round;stroke-linejoin:round;stroke-miterlimit:10;}
</style>
<path class="st0" d="M121.7,25.17c0.27-2.02,0.97-3.72,2.58-4.99c1.46-1.13,3.14-1.9,4.65-2.95c-0.08-0.61-0.17-1.21-0.24-1.81
	c-1.3,0-2.66,0.53-3.96,0.53c0-0.58,0-1.16,0-1.75c1.39,0,2.83-0.53,4.22-0.53c0.32-1.65,0.63-3.34,0.59-5.03
	c-0.01-0.55-0.03-1.3-0.43-1.68c-0.23-0.21-0.53-0.32-0.82-0.37l0.14-1.27c0.84,0.09,1.69,0.28,2.58,0.63
	c0.23,0.08,0.46,0.18,0.61,0.36c0.18,0.22,0.21,0.51,0.23,0.78c0.1,1.17,0.12,2.05,0.34,3.93c0.13,1.01,0.23,2.23,0.48,3.19
	c1.06-0.36,2.17-1.47,3.04-2.17c1.2-0.98,2.52-2.05,3.32-3.41c1.42-2.42,6.5-6.66,8.74-7.66c2.25-1,7.42-0.41,5.83,2.92
	c-1.58,3.34-3.91,5.74-4.16,6.41c-0.25,0.68-0.04,2.01-0.04,2.01l5.1-0.42v1.75l-4.34,0.41l0.62,2.34c3.02,0.58,7.45,6.54,6.79,9.54
	c-0.13,0.57-0.45,0.9-0.87,1.09c-0.83,0.37-2.04,0.2-2.93,0.2c-0.93,0-14.32-1-14.32-1c-2.91,5.41-4.27,9.06-4.82,9.24
	c-1.8,0.6-5.91-0.25-7-1.57c-2-0.42-3.31,0.07-4.65,1.43l-0.08-0.08c0.08-1.7-0.74-3.26-1.04-4.91c-0.24-1.34-0.32-2.71-0.23-4.06
	C121.62,25.88,121.65,25.52,121.7,25.17z"/>
<path class="st0" d="M124.04,9.73c-2.71,4.97-3.42,10.75-3.81,16.42c-0.01,0.2-0.03,0.4-0.04,0.6c-0.84,0.05-1.68-0.01-2.5-0.16
	c-0.14-0.02-0.27-0.06-0.35-0.17c-0.07-0.09-0.08-0.22-0.08-0.33c0.02-3.08,0.2-6.16,0.54-9.24c0.25-2.32,0.62-4.65,1.36-6.86
	c0.35-1.03,0.8-2.06,1.58-2.83c0.89-0.87,2.11-1.3,3.34-1.55c1.57-0.31,2.94-0.46,4.33-0.31l-0.14,1.27
	c-0.91-0.15-1.84,0.23-2.54,0.81C125.04,7.99,124.48,8.92,124.04,9.73z"/>
<path class="st1" d="M235.67,147.82c0,2.57,1.67,12.38,1.25,17.94l-0.29-0.02c-2.27-0.18-59.34-25.77-60.23-26.16l-0.01-0.01
	c0,0-1.97-5.34-3.48-9.69l2.15-0.14c0.28-0.13,0.74-0.36,1.33-0.68h0.01l39.45-2.81v-5.15l2.39-1.31c0.98,1.95,1.96,4.05,2.94,6.29
	c0,0,12.48,6,13.49,8.99C235.67,138.08,235.67,144.58,235.67,147.82z"/>
<path class="st2" d="M236.63,165.75l0.29,0.02c-0.11,1.46-0.36,2.62-0.83,3.3c-2.11,2.08-4.6,3.99-7.42,5.73
	c-9.26,5.73-15.02,5.05-23.46,4.29l7.14-7.7c0,0,0,0,2.49-2.17C217.35,167.06,229.84,169.22,236.63,165.75z"/>
<path class="st2" d="M236.92,165.77c0.42-5.57-1.25-15.37-1.25-17.94c0-3.25,0-9.74-1-12.74c-1.01-2.99-13.49-8.99-13.49-8.99
	s7.24,1,12.99,1.5c5.74,0.5,10.73,9.99,10.73,20.98c0,8.03-3.07,14.86-8.81,20.49C236.56,168.39,236.82,167.22,236.92,165.77z"/>
<path class="st1" d="M236.63,165.75c-6.79,3.47-19.28,1.31-21.78,3.47c-2.49,2.17-2.49,2.17-2.49,2.17l-13.82-9.4l-14.82-10.09
	l-7.32-12.32C177.29,139.98,234.36,165.57,236.63,165.75z"/>
<path class="st1" d="M218.24,119.81l-2.39,1.31l-7.53,0.59h-0.04c-1.68,0.09-5.43-0.44-7.57-0.98c-0.61-0.16-2.35-1.09-4.53-2.35
	l2.36-0.11c0.83-0.33,5.78-13.91,5.78-13.91s0.13,1.01,4,2.5C211.34,108.04,214.75,112.86,218.24,119.81z"/>
<path class="st3" d="M215.85,121.12v5.15l-39.45,2.81c2.24-1.23,6.17-3.66,7.94-5.51l23.94-1.86h0.04L215.85,121.12z"/>
<path class="st1" d="M199.49,173.54c-0.61-4.99-0.96-11.55-0.96-11.55l13.82,9.4l-7.14,7.7c-1.12-0.1-2.29-0.21-3.52-0.29
	l-1.03,0.17C200.21,178.49,199.82,176.25,199.49,173.54z"/>
<path class="st1" d="M203.7,90.62c4.99,3.5,2.24,7.25,0.62,13.74c0,0-4.95,13.58-5.78,13.91l-2.36,0.11
	c-5.59-3.21-14.09-8.57-14.09-8.57c-0.8-2.88-1.73-6.27-2.67-9.31l2.67-0.25c0,0,9.45-1.29,12.11-2.95
	c2.67-1.66,6.53-6.85,6.51-8.92C201.91,89.31,202.93,90.09,203.7,90.62z"/>
<path class="st1" d="M198.54,161.99c0,0,0.35,6.56,0.96,11.55c-1.32-0.13-4.28-2.15-4.28-2.15c-4.33-8.83-11.5-19.49-11.5-19.49
	L198.54,161.99z"/>
<path class="st2" d="M191.21,180.55l4-9.16c0,0,2.96,2.03,4.28,2.15c0.32,2.71,0.71,4.95,1.17,5.42l-6.62,1.11c0,0,0,0,0,0.01
	l-2.12,0.35L191.21,180.55z"/>
<path class="st1" d="M200.71,120.73c2.14,0.54,5.89,1.07,7.57,0.98l-23.94,1.86c0.22-0.23,0.39-0.43,0.54-0.64
	c0,0,0.17-4.49-0.83-6.58c-0.34-0.7-1.06-3.3-1.96-6.54c0,0,8.5,5.36,14.09,8.57C198.36,119.64,200.1,120.57,200.71,120.73z"/>
<path class="st1" d="M179.42,100.49c0.94,3.04,1.87,6.44,2.67,9.31c0.9,3.24,1.61,5.83,1.96,6.54c1,2.09,0.83,6.58,0.83,6.58
	c-0.15,0.21-0.32,0.41-0.54,0.64c-1.77,1.85-5.7,4.28-7.94,5.51h-0.01c-0.59,0.32-1.05,0.56-1.33,0.68l-2.15,0.14
	c-0.51-1.46-0.96-2.8-1.27-3.8c-0.46-1.46-1.73-3.09-2.96-3.55c1.21-1.74,6.26-9.03,8.88-14.27c1.67-3.33,1.38-6.3,0.51-8.89
	l0.93-0.27C179.14,99.56,179.28,100.02,179.42,100.49z"/>
<path class="st1" d="M200.71,88.36c0.02,2.07-3.83,7.26-6.51,8.92c-2.66,1.66-12.11,2.95-12.11,2.95l-2.67,0.25
	c-0.14-0.47-0.28-0.94-0.43-1.39c-0.95-3.01-1.88-5.5-2.6-6.49c-2.28-3.09-9.19-12.68-9.48-13.08c2.51-7.55,5.82-18.14,5.82-18.14
	c2.49,3.87,5.74,6,5.74,6C182.27,72.68,194.13,83.16,200.71,88.36z"/>
<path class="st1" d="M176.4,139.59l7.32,12.32c0,0,7.16,10.65,11.5,19.49l-4,9.16l-1.11,0.12l-2.4,0.26l-2.48,0.27l-2.41,0.26
	l-0.72,0.08c0,0-3.87-12.83-5.7-19.32c-1.83-6.49-11.15-31.97-10.28-37.13c0.41-2.44,1.47-2.96,2.56-2.55
	c1.23,0.46,2.5,2.09,2.96,3.55c0.31,1,0.76,2.34,1.27,3.8C174.42,134.24,176.39,139.58,176.4,139.59L176.4,139.59z"/>
<path class="st1" d="M176.39,92.62c0.72,0.99,1.65,3.47,2.6,6.49l-0.93,0.27c-0.69-2.05-1.76-3.87-2.5-5.42
	c-1.66-3.5-11.04-7.69-11.04-7.69c0.5-1.18,1.39-3.72,2.4-6.73C167.2,79.94,174.11,89.53,176.39,92.62z"/>
<path class="st2" d="M131.42,190.87c0,0,37.69-7.54,40.2-10.22c0.18,0.02,0.35,0.05,0.53,0.07l5.79,9.67
	c-1.92,1.21-8.71,5.45-12.96,7.15c-4.99,2-24.48-0.75-30.39-2.49c-5.2-1.55-24.17-5.41-36.14-6.99v-0.01
	c-1.21-0.17-2.33-4.17-1.66-6.44c0.22-0.72,0.94-1.28,2.03-1.81c2.37-1.14,6.48-2.18,10.84-4.56c6.39-3.47,7.48-6.18,7.48-6.18
	c0.45,0.14,1.8,0.46,3.77,0.92v0.01L131.42,190.87z"/>
<path class="st1" d="M171.62,180.65c-2.5,2.68-40.2,10.22-40.2,10.22l-10.51-20.89v-0.01c2.38,0.57,5.67,1.32,9.37,2.16l-0.03,0.33
	l4.83,10.74c0,0,22.84-3.34,25.66-4.41c0.47,0.09,0.86,0.16,1.14,0.21C164.29,179.41,167.97,180.08,171.62,180.65z"/>
<path class="st1" d="M122.3,60.26c2.65-0.32,5.89-0.05,9.45,1.58c1.78,0.81,3.64,1.97,5.56,3.55c0.69,0.58,1.4,1.21,2.11,1.92
	c11,10.83,20.06,16.94,20.06,16.94s2.12,2.88,4.63,2.75c0.07,0,0.21-0.26,0.4-0.73c0,0,9.38,4.19,11.04,7.69
	c0.74,1.55,1.81,3.37,2.5,5.42c0.87,2.59,1.16,5.57-0.51,8.89c-2.62,5.24-7.67,12.53-8.88,14.27c-1.1-0.41-2.15,0.12-2.56,2.55
	c-0.87,5.16,8.45,30.64,10.28,37.13c1.83,6.5,5.7,19.32,5.7,19.32c-0.33,0.04-0.7,0.06-1.13,0.06c-2.16,0.01-5.45-0.38-8.81-0.89
	c-0.18-0.02-0.35-0.05-0.53-0.07c-3.65-0.57-7.33-1.23-9.72-1.64c-0.28-0.05-0.68-0.12-1.14-0.21c-4.96-0.97-19.5-4.18-30.46-6.66
	c-3.7-0.84-6.99-1.59-9.37-2.16c-1.97-0.46-3.32-0.78-3.77-0.92c-0.2-0.06-0.46-0.12-0.76-0.19c-3.24-1.22-6.77-8-10.94-12.63
	c-4.5-4.98-13.99-21.82-13.99-21.82l-3.52-6.21v-0.01c1.06-1.31,1.69-2.1,1.69-2.1s-0.35-1.98-1.18-3.68
	c-0.15-0.32-0.32-0.64-0.52-0.92c-0.81-2.35-0.72-7.99-0.58-12.98c0.04-1.37,0.09-2.69,0.12-3.87c0.01-0.36,0.03-0.74,0.07-1.15
	l-0.28-0.02c-0.15-3.48-7.28-17.2-7.28-17.2l-1.72-0.3c1.34-7.81,3.02-17.05,4.22-19.16c2-3.49,17.15-13.32,21.98-15.91
	c4.83-2.59,12.7-2.55,12.7-2.55s5.61,7.05,5.12,11.68L122.3,60.26z"/>
<path class="st1" d="M164.11,87c-2.5,0.13-4.63-2.75-4.63-2.75c0.35-1.05,1.03-4.69,1.74-8.98c1.35-8.03,2.89-18.37,2.89-18.37
	c2.49-1.74,7.11,0.5,8.62,4.5c0,0-3.31,10.59-5.82,18.14c-1.01,3.01-1.9,5.55-2.4,6.73C164.31,86.74,164.18,87,164.11,87z"/>
<path class="st1" d="M164.11,56.9c0,0-1.54,10.34-2.89,18.37c0,0-5.31-4.29-7.48-5.63c-2.16-1.34-7.44-7.25-7.44-7.25
	c1.16-0.65,2.44-1.4,3.85-2.25c1.18-0.71,2.09-1.64,2.8-2.74c0.98-1.52,1.58-3.34,1.99-5.26C154.94,52.15,163.23,55.9,164.11,56.9z"
	/>
<path class="st1" d="M160.75,178.8c-2.82,1.08-25.66,4.41-25.66,4.41l-4.83-10.74l0.03-0.33
	C141.26,174.62,155.79,177.83,160.75,178.8z"/>
<path class="st1" d="M139.42,67.31c-0.71-0.7-1.42-1.34-2.11-1.92l0.21-0.24c3,0.03,5.52-0.94,8.79-2.75c0,0,5.27,5.91,7.44,7.25
	c2.17,1.33,7.48,5.63,7.48,5.63c-0.71,4.29-1.39,7.93-1.74,8.98C159.48,84.25,150.41,78.14,139.42,67.31z"/>
<path class="st0" d="M126.63,45.51c-2.1,2.66-7.59,1.2-7.59,1.2c1.62-1.52,3.66-3.5,3.66-3.5c1.45,1.48,3.17,1.26,3.96,1.06
	C126.66,44.27,126.63,44.77,126.63,45.51L126.63,45.51z"/>
<path class="st4" d="M157.29,27.01l-0.63-0.03c-0.83,0.37-2.04,0.2-2.93,0.2c-0.93,0-14.32-1-14.32-1
	c-2.91,5.41-4.27,9.06-4.82,9.24c-1.8,0.6-5.91-0.25-7-1.57c-2-0.42-3.31,0.07-4.65,1.43c-0.1,0.09-0.19,0.19-0.27,0.28
	c-0.98,1.07-1.92,5.65,0.03,7.64c1.45,1.48,3.17,1.26,3.96,1.06c0,0-0.03,0.5-0.03,1.23v0.01c-2.1,2.66-7.59,1.2-7.59,1.2
	c-0.86,0.79-1.61,1.46-1.89,1.63c0,0,5.61,7.05,5.12,11.68l0.03,0.22c2.65-0.32,5.89-0.05,9.45,1.58c1.78,0.81,3.64,1.97,5.56,3.55
	l0.21-0.24c3,0.03,5.52-0.94,8.79-2.75c1.16-0.65,2.44-1.4,3.85-2.25c1.18-0.71,2.09-1.64,2.8-2.74c0.98-1.52,1.58-3.34,1.99-5.26
	c0.65-2.98,0.87-6.22,1.47-8.93c0.05-0.22,0.1-0.46,0.14-0.69C157.62,36.7,157.29,27.01,157.29,27.01z"/>
<path class="st1" d="M82.12,168.71l0.68-0.07c0,0,2.06-4.51,7.36-4.15c0.77,0.22,1.59,0.41,2.47,0.57
	c6.97,1.23,19.75,2.91,23.76,3.81c0.25,0.1,0.51,0.17,0.76,0.19c0,0-1.1,2.71-7.48,6.18c-4.36,2.38-8.47,3.41-10.84,4.56
	c-3.83-3.83-10.19-6.74-17.02-7.33c-3.66-0.74-11.98-3.08-20.15-3.83c-8.16-0.75-6.82-5.75-4.99-7.79c1.83-2.03,7.02-7.39,7.02-7.39
	c1.24-0.63,2.59-1.45,4.13-2.56c3.89-2.83,15.7-17.24,20.12-22.7l3.52,6.21c0,0-12.98,17.81-14.32,19.81
	c-0.86,1.3-2.01,1.69-2.25,2.89c-0.13,0.66,0,1.55,0.59,2.94C76.87,163.44,80.89,167.52,82.12,168.71z"/>
<path class="st1" d="M90.16,164.49c-5.82-1.7-8.74-5.15-10.35-6.76c-1.57-1.57-4.28-2.1-4.92-0.62c0.24-1.19,1.39-1.58,2.25-2.89
	c1.34-2,14.32-19.81,14.32-19.81s9.49,16.84,13.99,21.82c4.17,4.63,7.7,11.41,10.94,12.63c-4.01-0.9-16.8-2.57-23.76-3.81
	C91.75,164.91,90.93,164.71,90.16,164.49z"/>
<path class="st2" d="M90.16,164.49c-5.29-0.36-7.36,4.15-7.36,4.15l-0.68,0.07c-1.22-1.19-5.24-5.27-6.64-8.65
	c-0.59-1.4-0.71-2.29-0.59-2.94c0.65-1.49,3.36-0.95,4.92,0.62C81.42,159.35,84.34,162.79,90.16,164.49z"/>
<path class="st1" d="M88.45,122.42c0.83,1.7,1.18,3.68,1.18,3.68s-0.64,0.79-1.69,2.1v0.01c-4.42,5.46-16.23,19.87-20.12,22.7
	c-1.54,1.12-2.89,1.94-4.13,2.56c-2.66,1.33-4.81,1.73-7.19,2.02c-3.5,0.42-12.49-3.91-11.5-6.08c0.3-0.67,3.8-3.58,8.5-7.32
	c10.73-8.55,27.8-21.37,27.8-21.37s4.33-1.62,6,0c0.23,0.22,0.44,0.48,0.63,0.77C88.07,121.92,88.24,122.23,88.45,122.42z"/>
<path class="st1" d="M71.24,115.77c1.32-0.48,2.68-0.98,4.07-1.5c0,0,0.08-6.21,0.38-11.33c2.55,0.77,5.16,1.63,7.25,2.53
	c1.66,1.15,3.15,2.21,4.31,3.04h0.1c-0.15,4.99-0.23,10.63,0.58,12.98c-0.19-0.29-0.4-0.56-0.63-0.77c-1.66-1.62-6,0-6,0
	s-17.07,12.82-27.8,21.37l-0.01-0.01c-5.32,0.33-9.66-10.24-9.66-10.24C45.45,124.71,55.75,121.39,71.24,115.77z"/>
<path class="st1" d="M87.47,104.64c-0.03,1.18-0.08,2.5-0.12,3.87h-0.1c-0.23-0.98-1.95-2.03-4.31-3.04
	c-2.18-1.52-4.67-3.2-7.09-4.74c0.13-1.54,0.27-2.83,0.46-3.61c0.33-1.4,1.07-5.96,1.95-11.15l1.72,0.3c0,0,7.13,13.72,7.28,17.2
	l0.28,0.02C87.5,103.9,87.48,104.28,87.47,104.64z"/>
<path class="st2" d="M43.84,131.84c0,0,4.33,10.58,9.66,10.24l0.01,0.01c-4.71,3.74-8.2,6.65-8.5,7.32c-1,2.16,7.99,6.5,11.5,6.08
	c2.38-0.28,4.53-0.68,7.19-2.02c0,0-5.19,5.35-7.02,7.39c-1.83,2.03-3.17,7.03,4.99,7.79c8.17,0.74,16.49,3.08,20.15,3.83
	c6.83,0.59,13.2,3.5,17.02,7.33c-1.1,0.53-1.82,1.09-2.03,1.81c-0.67,2.27,0.45,6.27,1.66,6.44v0.01c-1.61-0.22-3.1-0.39-4.41-0.51
	c-10.99-1.01-23.98-7.25-35.46-7.99c-11.5-0.75-16.49-8.25-17.24-9.5c-0.75-1.24-0.5-7.74,0-11.98S41.84,134.59,43.84,131.84z"/>
<path class="st5" d="M30.35,103.33c6.83,2.89,44.96,10.94,44.96,10.94c-1.39,0.52-2.75,1.02-4.07,1.5
	c-0.79-0.17-34.27-7.16-37.56-7.99c-3.34-0.84-8.82-5.49-8.82-5.99S23.53,100.45,30.35,103.33z"/>
<g>
	<path class="st6" d="M127.59,33.86c1.1,1.31,5.2,2.16,7,1.57c0.56-0.19,1.92-3.83,4.82-9.24c0,0,13.39,1,14.32,1
		c0.88,0,2.09,0.18,2.93-0.2c0.42-0.19,0.74-0.52,0.87-1.09c0.67-2.99-3.77-8.96-6.79-9.54l-0.62-2.34l4.34-0.41v-1.75l-5.1,0.42
		c0,0-0.22-1.33,0.04-2.01c0.24-0.67,2.58-3.07,4.16-6.41c1.58-3.33-3.58-3.91-5.83-2.92c-2.24,1-7.32,5.24-8.74,7.66
		c-0.79,1.36-2.11,2.44-3.32,3.41c-0.87,0.7-1.99,1.81-3.04,2.17c-0.24-0.96-0.35-2.18-0.48-3.19c-0.23-1.88-0.24-2.76-0.34-3.93
		c-0.02-0.27-0.05-0.57-0.23-0.78c-0.15-0.19-0.38-0.28-0.61-0.36c-0.89-0.34-1.74-0.54-2.58-0.63c-1.39-0.15-2.77,0-4.33,0.31
		c-1.22,0.24-2.45,0.68-3.34,1.55c-0.78,0.76-1.23,1.8-1.58,2.83c-0.74,2.21-1.11,4.54-1.36,6.86c-0.34,3.07-0.52,6.15-0.54,9.24
		c0,0.12,0.01,0.24,0.08,0.33c0.08,0.11,0.22,0.15,0.35,0.17c0.82,0.15,1.66,0.21,2.5,0.16c0.01-0.2,0.03-0.4,0.04-0.6
		c0.38-5.66,1.1-11.45,3.81-16.42c0.44-0.81,1-1.74,1.69-2.34c0.7-0.59,1.63-0.96,2.54-0.81c0.29,0.05,0.6,0.17,0.82,0.37
		c0.4,0.38,0.42,1.13,0.43,1.68c0.04,1.69-0.26,3.38-0.59,5.03c-1.39,0-2.83,0.53-4.22,0.53c0,0.59,0,1.17,0,1.75
		c1.3,0,2.66-0.53,3.96-0.53c0.08,0.6,0.17,1.2,0.24,1.81c-1.51,1.06-3.19,1.82-4.65,2.95c-1.61,1.27-2.31,2.97-2.58,4.99
		c-0.05,0.35-0.08,0.71-0.11,1.08c-0.09,1.35-0.01,2.72,0.23,4.06c0.29,1.65,1.12,3.21,1.04,4.91"/>
	<path class="st6" d="M126.63,45.51c-0.02,1.54,0.02,4.09,0.47,5.39"/>
	<path class="st6" d="M127.89,33.92c-0.11-0.03-0.21-0.05-0.3-0.06c-2-0.42-3.31,0.07-4.65,1.43c-0.1,0.09-0.19,0.19-0.27,0.28
		c-0.98,1.07-1.92,5.65,0.03,7.64c1.45,1.48,3.17,1.26,3.96,1.06c0,0-0.03,0.5-0.03,1.23"/>
	<path class="st6" d="M122.7,43.22c0,0-2.03,1.99-3.66,3.5c-0.86,0.79-1.61,1.46-1.89,1.63c0,0-7.87-0.04-12.7,2.55
		c-4.83,2.58-19.99,12.41-21.98,15.91c-1.19,2.1-2.88,11.35-4.22,19.16c-0.88,5.19-1.61,9.75-1.95,11.15
		c-0.19,0.78-0.33,2.07-0.46,3.61c-0.06,0.69-0.11,1.44-0.16,2.21c-0.3,5.12-0.38,11.33-0.38,11.33c-1.39,0.52-2.75,1.02-4.07,1.5
		c-15.49,5.63-25.79,8.94-27.4,16.07c-2,2.75-2,21.98-2.49,26.23s-0.75,10.74,0,11.98c0.74,1.25,5.74,8.75,17.24,9.5
		c11.49,0.74,24.48,6.99,35.46,7.99c1.31,0.12,2.8,0.29,4.41,0.51c11.96,1.58,30.93,5.44,36.14,6.99c5.91,1.74,25.4,4.49,30.39,2.49
		c4.26-1.7,11.04-5.94,12.96-7.15"/>
	<path class="st6" d="M146.83,39.42c0,0,0.35,1.34,0.73,3.09c0.68,3.21,1.45,7.81,0.26,8.24c-0.15,0.05-0.3,0.09-0.45,0.12
		c-1.6,0.28-2.8-1.12-2.8-1.12"/>
	<path class="st6" d="M137.59,41.35c0,0,3.41-0.7,4.82,0.79"/>
	<line class="st6" x1="138.9" y1="33.09" x2="142.64" y2="33.09"/>
	<line class="st6" x1="151.49" y1="33.48" x2="155.04" y2="34.01"/>
	<path class="st6" d="M150.19,42.29c0,0,2.25-0.66,3.58,0"/>
	<polyline class="st6" points="194.04,180.08 191.92,180.43 191.21,180.55 	"/>
	<path class="st6" d="M154.94,52.15c0,0,8.29,3.76,9.17,4.75c2.49-1.74,7.11,0.5,8.62,4.5c2.49,3.87,5.74,6,5.74,6
		c3.8,5.28,15.66,15.76,22.24,20.96c1.2,0.95,2.22,1.72,2.99,2.26c4.99,3.5,2.24,7.25,0.62,13.74c0,0,0.13,1.01,4,2.5
		c3.02,1.17,6.43,6,9.92,12.94c0.98,1.95,1.96,4.05,2.94,6.29c0,0,7.24,1,12.99,1.5c5.74,0.5,10.73,9.99,10.73,20.98
		c0,8.03-3.07,14.86-8.81,20.49c-2.11,2.08-4.6,3.99-7.42,5.73c-9.26,5.73-15.02,5.05-23.46,4.29c-1.12-0.1-2.29-0.21-3.52-0.29
		l-1.03,0.17l-6.62,1.11"/>
	<path class="st6" d="M164.11,56.9c0,0-1.54,10.34-2.89,18.37c-0.71,4.29-1.39,7.93-1.74,8.98c0,0,2.12,2.88,4.63,2.75
		c0.07,0,0.21-0.26,0.4-0.73c0.5-1.18,1.39-3.72,2.4-6.73c2.51-7.55,5.82-18.14,5.82-18.14"/>
	<path class="st6" d="M137.51,65.15c3,0.03,5.52-0.94,8.79-2.75c1.16-0.65,2.44-1.4,3.85-2.25c1.18-0.71,2.09-1.64,2.8-2.74
		c0.98-1.52,1.58-3.34,1.99-5.26c0.65-2.98,0.87-6.22,1.47-8.93c0.05-0.23,0.1-0.46,0.14-0.69c1.08-5.82,0.74-15.51,0.74-15.51"/>
	<path class="st6" d="M117.15,48.35c0,0,5.61,7.05,5.12,11.68"/>
	<path class="st6" d="M100.04,65.15c0,0,5.12-0.4,9.63-1.13c2.63-0.43,5.07-0.97,6.15-1.61c0.62-0.36,1.52-0.83,2.66-1.24
		c1.08-0.39,2.36-0.73,3.82-0.9c2.65-0.32,5.89-0.05,9.45,1.58c1.78,0.81,3.64,1.97,5.56,3.55c0.69,0.58,1.4,1.21,2.11,1.92
		c11,10.83,20.06,16.94,20.06,16.94"/>
	<path class="st6" d="M104.03,57.78c0,0,5.9,4.73,5.64,6.23"/>
	<path class="st6" d="M112.41,51.53c0,0,6.03,7,6.08,9.63"/>
	<path class="st6" d="M122.3,116.34c0,0,15.38-9.9,32.99-11.06c17.61-1.16,20.61-3.49,20.61-3.49"/>
	<path class="st6" d="M164.51,86.27c0,0,9.38,4.19,11.04,7.69c0.74,1.55,1.81,3.37,2.5,5.42c0.87,2.59,1.16,5.57-0.51,8.89
		c-2.62,5.24-7.67,12.53-8.88,14.27c-0.18,0.24-0.27,0.38-0.27,0.38"/>
	<path class="st6" d="M146.3,62.4c0,0,5.27,5.91,7.44,7.25c2.17,1.33,7.48,5.63,7.48,5.63"/>
	<path class="st6" d="M176.39,129.07c-0.59,0.32-1.05,0.56-1.33,0.68"/>
	<path class="st6" d="M166.9,79.53C166.9,79.53,166.9,79.53,166.9,79.53c0.3,0.41,7.21,10,9.49,13.09c0.72,0.99,1.65,3.47,2.6,6.49
		c0.15,0.45,0.29,0.92,0.43,1.39c0.94,3.04,1.87,6.44,2.67,9.31c0.9,3.24,1.61,5.83,1.96,6.54c1,2.09,0.83,6.58,0.83,6.58
		c-0.15,0.21-0.32,0.41-0.54,0.64c-1.77,1.85-5.7,4.28-7.94,5.51"/>
	<path class="st6" d="M182.09,100.24c0,0,9.45-1.29,12.11-2.95c2.67-1.66,6.53-6.85,6.51-8.92"/>
	<path class="st6" d="M204.32,104.36c0,0-4.95,13.58-5.78,13.91"/>
	<path class="st6" d="M182.09,109.81c0,0,8.5,5.36,14.09,8.57c2.18,1.26,3.92,2.19,4.53,2.35c2.14,0.54,5.89,1.07,7.57,0.98"/>
	<path class="st6" d="M157.34,139.58c0,0-5.93,3.83-6.26,10.16c-0.33,6.33,0.67,10.32-1.83,10.99c-2.5,0.67-4.67-1.5-4.67-1.5"/>
	<polyline class="st6" points="176.39,129.07 176.4,129.07 215.85,126.26 215.85,121.12 208.32,121.7 208.28,121.7 184.34,123.56 	
		"/>
	<path class="st6" d="M221.18,126.1c0,0,12.48,6,13.49,8.99c1,2.99,1,9.49,1,12.74c0,2.57,1.67,12.38,1.25,17.94
		c-0.11,1.46-0.36,2.62-0.83,3.3"/>
	<path class="st6" d="M176.4,139.59c0.89,0.39,57.96,25.98,60.23,26.16c-6.79,3.47-19.28,1.31-21.78,3.47
		c-2.49,2.17-2.49,2.17-2.49,2.17l-13.82-9.4l-14.82-10.09L176.4,139.59L176.4,139.59"/>
	<path class="st6" d="M183.71,151.9c0,0,7.16,10.65,11.5,19.49l-4,9.16l-1.11,0.12l-2.4,0.26l-2.48,0.27l-2.41,0.26l-0.72,0.08
		c0,0-3.87-12.83-5.7-19.32c-1.83-6.49-11.15-31.97-10.28-37.13c0.41-2.44,1.47-2.96,2.56-2.55c1.23,0.46,2.5,2.09,2.96,3.55
		c0.31,1,0.76,2.34,1.27,3.8c1.52,4.34,3.48,9.69,3.48,9.69"/>
	<line class="st6" x1="205.22" y1="179.09" x2="212.36" y2="171.39"/>
	<path class="st6" d="M198.54,161.99c0,0,0.35,6.56,0.96,11.55c0.32,2.71,0.71,4.95,1.17,5.42c0.01,0.02,0.03,0.03,0.04,0.04"/>
	<path class="st6" d="M195.21,171.39c0,0,2.96,2.03,4.28,2.15c0.05,0.01,0.09,0.01,0.13,0.01"/>
	<path class="st6" d="M43.84,131.84c0,0,4.33,10.58,9.66,10.24"/>
	<path class="st6" d="M87.94,128.2c1.06-1.31,1.69-2.1,1.69-2.1s-0.35-1.98-1.18-3.68c-0.15-0.32-0.32-0.64-0.52-0.92
		c-0.19-0.29-0.4-0.56-0.63-0.77c-1.66-1.62-6,0-6,0s-17.07,12.82-27.8,21.37c-4.71,3.74-8.2,6.65-8.5,7.32
		c-1,2.16,7.99,6.5,11.5,6.08c2.38-0.28,4.53-0.68,7.19-2.02c1.24-0.63,2.59-1.45,4.13-2.56C71.71,148.08,83.52,133.67,87.94,128.2"
		/>
	<path class="st6" d="M87.94,128.2L87.94,128.2l3.52,6.22c0,0-12.98,17.81-14.32,19.81c-0.86,1.3-2.01,1.69-2.25,2.89
		c-0.13,0.66,0,1.55,0.59,2.94c1.4,3.38,5.42,7.45,6.64,8.65c0.23,0.23,0.35,0.34,0.35,0.34"/>
	<path class="st6" d="M74.75,158.07c-0.03-0.38,0.02-0.69,0.14-0.95c0.65-1.49,3.36-0.95,4.92,0.62c1.61,1.61,4.53,5.06,10.35,6.76
		c0.77,0.22,1.59,0.41,2.47,0.57c6.97,1.23,19.75,2.91,23.76,3.81c0.3,0.07,0.57,0.13,0.76,0.19c0.45,0.14,1.8,0.46,3.77,0.92
		c2.38,0.57,5.67,1.32,9.37,2.16c10.97,2.48,25.5,5.69,30.46,6.66c0.47,0.09,0.86,0.16,1.14,0.21c2.4,0.41,6.08,1.08,9.72,1.64
		c0.18,0.02,0.35,0.05,0.53,0.07c3.37,0.51,6.65,0.9,8.81,0.89c0.42,0,0.79-0.02,1.13-0.06"/>
	<path class="st6" d="M82.8,168.64c0,0,2.06-4.51,7.36-4.15c0.02,0,0.03,0,0.05,0"/>
	<path class="st6" d="M63.69,153.47c0,0-5.19,5.35-7.02,7.39c-1.83,2.03-3.17,7.03,4.99,7.79c8.17,0.74,16.49,3.08,20.15,3.83
		c6.83,0.59,13.2,3.5,17.02,7.33"/>
	<path class="st6" d="M91.46,134.42c0,0,9.49,16.84,13.99,21.82c4.17,4.63,7.7,11.41,10.94,12.63c0.25,0.1,0.51,0.17,0.76,0.19
		c0,0-1.1,2.71-7.48,6.18c-4.36,2.38-8.47,3.41-10.84,4.56c-1.1,0.53-1.82,1.09-2.03,1.81c-0.67,2.27,0.45,6.27,1.66,6.44"/>
	<path class="st6" d="M120.92,169.98l10.51,20.89c0,0,37.69-7.54,40.2-10.22l0.01-0.01"/>
	<path class="st6" d="M130.26,172.47l4.83,10.74c0,0,22.84-3.34,25.66-4.41"/>
	<path class="st6" d="M91.46,84.25c0,0-3.4,12.52-3.92,19.23c-0.04,0.41-0.06,0.79-0.07,1.15c-0.03,1.18-0.08,2.5-0.12,3.87
		c-0.15,4.99-0.23,10.63,0.58,12.98c0.14,0.42,0.31,0.73,0.52,0.92"/>
	<path class="st7" d="M75.31,114.27c0,0-38.13-8.05-44.96-10.94c-6.82-2.89-5.49-2.04-5.49-1.55s5.49,5.15,8.82,5.99
		c3.29,0.83,36.76,7.83,37.56,7.99c0.01,0,0.01,0,0.01,0"/>
	<path class="st6" d="M65.49,100.28c0,0,5,1.12,10.2,2.66c2.55,0.77,5.16,1.63,7.25,2.53c2.37,1.02,4.08,2.06,4.31,3.04
		c-1.16-0.83-2.65-1.89-4.31-3.04c-2.18-1.52-4.67-3.2-7.09-4.74c-4.4-2.79-8.59-5.11-10.36-5.11"/>
	<path class="st6" d="M79.98,86.27c0,0,7.13,13.72,7.28,17.2"/>
	<path class="st6" d="M175.35,84.25c0-1.62,1.33-6.37,1.04-8.24c-0.29-1.88,6.2,4.12,6.2,4.12s-3.99,6.22-3.62,8.23"/>
	<polyline class="st6" points="172.15,180.71 177.94,190.38 182.09,197.28 	"/>
	<path class="st6" d="M194.04,180.07C194.04,180.07,194.04,180.07,194.04,180.07c0.24,0.41,5.47,9.28,8.07,12.3"/>
	<path class="st6" d="M178.47,181.61c0,0,8.4,12.79,9.63,14.76"/>
	<path class="st6" d="M182.81,181.47c0,0,8.45,12.48,9.28,13.98"/>
	<line class="st6" x1="187.71" y1="180.93" x2="196.11" y2="193.7"/>
	<line class="st6" x1="191.92" y1="180.43" x2="200.11" y2="192.79"/>
	<line class="st6" x1="190.1" y1="180.67" x2="198.11" y2="193.2"/>
	<line class="st6" x1="185.22" y1="181.2" x2="194.1" y2="194.54"/>
	<line class="st6" x1="180.96" y1="181.61" x2="190.1" y2="195.95"/>
	<line class="st6" x1="176.39" y1="181.55" x2="186.09" y2="196.78"/>
	<line class="st6" x1="174.22" y1="181.2" x2="184.1" y2="197.28"/>
	<path class="st6" d="M128.43,57.4c0,0,1.53,3.52,3.32,4.44"/>
	<path class="st6" d="M142.66,47.5c0,0-1.66,0.91-1.74,2.25"/>
	<path class="st6" d="M119.04,46.72c0,0,5.49,1.46,7.59-1.2V45.5"/>
</g>
<path class="st8" d="M151.24,55.92c-0.51-0.93-0.95-1.97-1.51-2.88c-0.26-0.47-0.32-1.13-0.85-1.34c-0.48-0.22-0.94-0.3-1.48-0.26
	c-0.2,0.01-0.41,0.04-0.64,0.09c-0.1,0.03-0.2,0.11-0.23,0.22c-0.02,0.07-0.04,0.13-0.05,0.19c0-0.05-0.01-0.11-0.02-0.17
	c-0.03-0.13-0.12-0.25-0.24-0.3c-0.94-0.38-1.65-0.49-2.48-0.28c-0.64,0.12-0.78,0.88-1.15,1.36l-0.55,0.71
	c-0.52,0.72-1.05,1.56-1.61,2.24c-0.14,0.12-0.07,0.36,0.12,0.37c1.16,0.06,2.25-0.24,3.31-0.6c0.13-0.04,0.25-0.09,0.37-0.13
	c0,0,0,0,0.01,0l1.29,0.02l2.9,0.05h0.17c0.77,0.43,1.56,0.79,2.47,1h0.03C151.25,56.2,151.32,56.03,151.24,55.92z"/>
<path class="st9" d="M144.35,54.67c0.14,0.84,2.09,1.52,3.53,0.06"/>
</svg>
