<svg xmlns="http://www.w3.org/2000/svg" viewBox="0 0 270.31 215.87"><defs><style>.cls-1{stroke-miterlimit:10}.cls-1,.cls-2{fill:none;stroke:#000}.cls-3{fill:#8fb79c}.cls-10,.cls-3,.cls-5,.cls-7,.cls-8,.cls-9{stroke-width:0}.cls-5{fill:#f3edd7}.cls-2{stroke-linecap:round;stroke-linejoin:round}.cls-7{fill:#333}.cls-8{fill:#e16764}.cls-9{fill:#d2d296}.cls-10{fill:#c4a8be}</style></defs><g id="_畳" data-name="畳"><path d="M.24 181.24h3.62v5.03H.24zM270.06 208.81v6.56h-30.44l15.35-8.63c1.03 1.61 3.11 2.72 5.51 2.72s4.62-1.18 5.62-2.88l3.97 2.23Z" class="cls-5"/><path d="M270.06 198.25v10.56l-3.97-2.23c.38-.65.59-1.38.59-2.14 0-1.3-.62-2.48-1.61-3.38l4.99-2.8ZM270.06 186.26v11.99l-4.99 2.8c-1.14-1.01-2.77-1.64-4.59-1.64s-3.31.58-4.44 1.51l-26.09-14.66h40.11ZM270.06 124.78v5.76H.24v-5.76h269.82z" class="cls-5"/><path d="M266.07 181.24h3.99v5.03h-3.99zM266.69 204.43c0 .76-.21 1.49-.59 2.14l-5.42-3.05 4.39-2.47c1 .89 1.61 2.07 1.61 3.38ZM260.68 203.53l5.42 3.05c-1 1.7-3.13 2.88-5.62 2.88s-4.48-1.1-5.51-2.72l5.71-3.21Z" class="cls-5"/><path d="M254.77 181.24h11.3v5.03h-11.3z" class="cls-7"/><path d="m265.07 201.06-4.39 2.47-4.64-2.6c1.13-.93 2.7-1.51 4.44-1.51 1.82 0 3.46.63 4.59 1.64Z" class="cls-5"/><path d="m260.68 203.53-5.71 3.21c-.44-.69-.69-1.48-.69-2.31 0-1.37.68-2.6 1.77-3.51l4.64 2.6Z" class="cls-5"/><path d="m229.96 186.26 26.09 14.66c-1.09.9-1.77 2.14-1.77 3.51 0 .83.25 1.62.69 2.31l-15.35 8.63h-41.47l-15.64-8.79c.38-.65.59-1.38.59-2.14 0-1.3-.62-2.48-1.61-3.37l26.33-14.8h22.15ZM224 204.43c0-2.77-2.25-5.02-5.02-5.02s-5.03 2.25-5.03 5.02 2.25 5.03 5.03 5.03 5.02-2.25 5.02-5.03ZM254.77 186.26h-30.52v-5.02h30.52v5.02z" class="cls-5"/><path d="M212.95 181.24h11.3v5.03h-11.3zM218.98 199.42c2.77 0 5.02 2.25 5.02 5.02s-2.25 5.03-5.02 5.03-5.03-2.25-5.03-5.03 2.25-5.02 5.03-5.02Z" class="cls-7"/><path d="m207.81 186.26-26.33 14.8c-1.14-1.02-2.77-1.65-4.59-1.65s-3.31.58-4.44 1.51l-26.09-14.66h61.45ZM182.44 186.26v-5.02h30.51v5.02h-30.51zM198.15 215.37h-42.12l15.35-8.63c1.03 1.61 3.12 2.72 5.51 2.72s4.62-1.18 5.62-2.88l15.64 8.79Z" class="cls-5"/><path d="M183.1 204.43c0 .76-.21 1.49-.59 2.14l-5.42-3.05 4.39-2.47c1 .89 1.61 2.07 1.61 3.37ZM177.09 203.53l5.42 3.05c-1 1.7-3.13 2.88-5.62 2.88s-4.48-1.1-5.51-2.72l5.71-3.21Z" class="cls-5"/><path d="M171.13 181.24h11.3v5.03h-11.3z" class="cls-7"/><path d="M176.89 199.42c1.82 0 3.46.63 4.59 1.65l-4.39 2.47-4.64-2.6c1.13-.93 2.7-1.51 4.44-1.51Z" class="cls-5"/><path d="m177.09 203.53-5.71 3.21c-.44-.69-.69-1.48-.69-2.31 0-1.37.68-2.6 1.77-3.51l4.64 2.6Z" class="cls-5"/><path d="m146.37 186.26 26.09 14.66c-1.09.9-1.77 2.14-1.77 3.51 0 .83.25 1.62.69 2.31l-15.35 8.63h-41.47l-15.64-8.79c.38-.65.59-1.38.59-2.14 0-1.3-.62-2.48-1.61-3.37l26.33-14.8h22.15Zm-7.01 18.17c0-2.77-2.25-5.02-5.02-5.02s-5.03 2.25-5.03 5.02 2.25 5.03 5.03 5.03 5.02-2.25 5.02-5.03ZM171.13 186.26h-30.51v-5.02h30.51v5.02z" class="cls-5"/><path d="M129.32 181.24h11.3v5.03h-11.3zM134.33 199.42c2.77 0 5.02 2.25 5.02 5.02s-2.25 5.03-5.02 5.03-5.03-2.25-5.03-5.03 2.25-5.02 5.03-5.02Z" class="cls-7"/><path d="m124.22 186.26-26.33 14.8c-1.14-1.02-2.77-1.65-4.59-1.65s-3.31.58-4.44 1.51l-26.09-14.66h61.45ZM129.32 186.26H98.8v-5.02h30.52v5.02zM114.56 215.37H72.44l15.35-8.63c1.03 1.61 3.11 2.72 5.51 2.72s4.62-1.18 5.62-2.88l15.64 8.79Z" class="cls-5"/><path d="M99.51 204.43c0 .76-.21 1.49-.59 2.14l-5.42-3.05 4.39-2.47c1 .89 1.61 2.07 1.61 3.37ZM93.5 203.53l5.42 3.05c-1 1.7-3.13 2.88-5.62 2.88s-4.48-1.1-5.51-2.72l5.71-3.21Z" class="cls-5"/><path d="M87.5 181.24h11.3v5.03H87.5z" class="cls-7"/><path d="M93.3 199.42c1.82 0 3.46.63 4.59 1.65l-4.39 2.47-4.64-2.6c1.13-.93 2.7-1.51 4.44-1.51Z" class="cls-5"/><path d="m93.5 203.53-5.71 3.21c-.44-.69-.69-1.48-.69-2.31 0-1.37.68-2.6 1.77-3.51l4.64 2.6Z" class="cls-5"/><path d="m62.78 186.26 26.09 14.66c-1.09.9-1.77 2.14-1.77 3.51 0 .83.25 1.62.69 2.31l-15.35 8.63H30.78l-15.64-8.79c.38-.65.59-1.38.59-2.14 0-1.3-.62-2.48-1.61-3.37l26.33-14.8h22.34Zm-8.52 18.17c0-2.77-2.25-5.02-5.02-5.02s-5.03 2.25-5.03 5.02 2.25 5.03 5.03 5.03 5.02-2.25 5.02-5.03ZM87.5 186.26H56.99v-5.02H87.5v5.02z" class="cls-5"/><path d="M45.68 181.24h11.3v5.03h-11.3zM49.23 199.42c2.77 0 5.02 2.25 5.02 5.02s-2.25 5.03-5.02 5.03-5.03-2.25-5.03-5.03 2.25-5.02 5.03-5.02Z" class="cls-7"/><path d="M45.68 186.26H15.17v-5.02h30.51v5.02zM30.78 215.37H.24v-6.52L4 206.74c1.03 1.61 3.12 2.72 5.51 2.72s4.62-1.18 5.62-2.88l15.64 8.79ZM15.72 204.43c0 .76-.21 1.49-.59 2.14l-5.42-3.05 4.39-2.47c1 .89 1.61 2.07 1.61 3.37Z" class="cls-5"/><path d="M3.86 181.24h11.3v5.03H3.86z" class="cls-7"/><path d="m9.72 203.53 5.42 3.05c-1 1.7-3.13 2.88-5.62 2.88s-4.48-1.1-5.51-2.72l5.71-3.21Z" class="cls-5"/><path d="M9.52 199.42c1.82 0 3.46.63 4.59 1.65l-4.39 2.47-4.64-2.6c1.13-.93 2.7-1.51 4.44-1.51Z" class="cls-5"/><path d="m9.72 203.53-5.71 3.21c-.44-.69-.69-1.48-.69-2.31 0-1.37.68-2.6 1.77-3.51l4.64 2.6Z" class="cls-5"/><path d="m.24 198.21 4.84 2.72c-1.09.9-1.77 2.14-1.77 3.51 0 .83.25 1.62.69 2.31l-3.76 2.11v-10.64Z" class="cls-5"/><path d="M212.95 181.24H.24v-50.7h269.82v50.7h-57.11z" class="cls-9"/><path d="M.24 186.26h40.19l-26.33 14.8c-1.14-1.02-2.77-1.65-4.59-1.65s-3.31.58-4.44 1.51L.23 198.2v-11.95Z" class="cls-5"/><path d="M270.06 215.37H.24M.24 124.78h269.82M.24 130.54h269.82M266.07 181.24h3.99M224.25 181.24h30.52M182.44 181.24h30.51M140.62 181.24h30.51M98.8 181.24h30.52M56.99 181.24H87.5M15.17 181.24h30.51M.24 181.24h3.62M266.07 186.26h3.99M224.25 186.26h30.52M182.44 186.26h30.51M140.62 186.26h30.51M98.8 186.26H129.32M56.99 186.26H87.5M15.17 186.26H45.68M.24 186.26h3.62M72.44 215.37l15.35-8.63 5.71-3.21 4.39-2.47 26.33-14.8" class="cls-1"/><path d="m114.56 215.37-15.64-8.79-5.42-3.05-4.64-2.6-26.08-14.67M139.35 204.43c0 2.78-2.25 5.03-5.02 5.03s-5.03-2.25-5.03-5.03 2.25-5.02 5.03-5.02 5.02 2.25 5.02 5.02ZM223.99 204.43c0 2.78-2.25 5.03-5.02 5.03s-5.03-2.25-5.03-5.03 2.25-5.02 5.03-5.02 5.02 2.25 5.02 5.02Z" class="cls-1"/><path d="M97.89 201.06c1 .89 1.61 2.07 1.61 3.37 0 .76-.21 1.49-.59 2.14-1 1.7-3.13 2.88-5.62 2.88s-4.48-1.1-5.51-2.72c-.44-.69-.69-1.48-.69-2.31 0-1.37.68-2.6 1.77-3.51 1.13-.93 2.7-1.51 4.44-1.51 1.82 0 3.46.63 4.59 1.65ZM.24 208.85 4 206.74l5.72-3.21 4.39-2.47 26.33-14.8" class="cls-1"/><path d="m30.78 215.37-15.65-8.79-5.41-3.05-4.64-2.6-4.84-2.72" class="cls-1"/><path d="M14.11 201.06c1 .89 1.61 2.07 1.61 3.37 0 .76-.21 1.49-.59 2.14-1 1.7-3.13 2.88-5.62 2.88s-4.48-1.1-5.51-2.72c-.44-.69-.69-1.48-.69-2.31 0-1.37.68-2.6 1.77-3.51 1.13-.93 2.7-1.51 4.44-1.51 1.82 0 3.46.63 4.59 1.65ZM156.03 215.37l15.35-8.63 5.71-3.21 4.39-2.47 26.33-14.8" class="cls-1"/><path d="m198.15 215.37-15.64-8.79-5.42-3.05-4.64-2.6-26.08-14.67" class="cls-1"/><path d="M181.48 201.06c1 .89 1.61 2.07 1.61 3.37 0 .76-.21 1.49-.59 2.14-1 1.7-3.13 2.88-5.62 2.88s-4.48-1.1-5.51-2.72c-.44-.69-.69-1.48-.69-2.31 0-1.37.68-2.6 1.77-3.51 1.13-.93 2.7-1.51 4.44-1.51 1.82 0 3.46.63 4.59 1.65ZM239.62 215.37l15.35-8.63 5.71-3.21 4.39-2.47 4.99-2.81" class="cls-1"/><path d="m270.06 208.81-3.96-2.23-5.42-3.05-4.64-2.6-26.08-14.67" class="cls-1"/><path d="M265.07 201.06c1 .89 1.61 2.07 1.61 3.38 0 .76-.21 1.49-.59 2.14-1 1.7-3.13 2.88-5.62 2.88s-4.48-1.1-5.51-2.72c-.44-.69-.69-1.48-.69-2.31 0-1.37.68-2.6 1.77-3.51 1.13-.93 2.7-1.51 4.44-1.51 1.82 0 3.46.63 4.59 1.64ZM54.25 204.43c0 2.78-2.25 5.03-5.02 5.03s-5.03-2.25-5.03-5.03 2.25-5.02 5.03-5.02 5.02 2.25 5.02 5.02ZM3.86 181.24h11.3v5.03H3.86zM45.68 181.24h11.3v5.03h-11.3zM87.5 181.24h11.3v5.03H87.5zM129.32 181.24h11.3v5.03h-11.3zM171.13 181.24h11.3v5.03h-11.3zM212.95 181.24h11.3v5.03h-11.3zM254.77 181.24h11.3v5.03h-11.3z" class="cls-1"/><path d="M.24 181.24h3.62v5.03H.24zM270.06 208.81v6.56h-30.44l15.35-8.63c1.03 1.61 3.11 2.72 5.51 2.72s4.62-1.18 5.62-2.88l3.97 2.23Z" class="cls-5"/><path d="M270.06 198.25v10.56l-3.97-2.23c.38-.65.59-1.38.59-2.14 0-1.3-.62-2.48-1.61-3.38l4.99-2.8ZM270.06 186.26v11.99l-4.99 2.8c-1.14-1.01-2.77-1.64-4.59-1.64s-3.31.58-4.44 1.51l-26.09-14.66h40.11ZM270.06 124.78v5.76H.24v-5.76h269.82z" class="cls-5"/><path d="M266.07 181.24h3.99v5.03h-3.99zM266.69 204.43c0 .76-.21 1.49-.59 2.14l-5.42-3.05 4.39-2.47c1 .89 1.61 2.07 1.61 3.38ZM260.68 203.53l5.42 3.05c-1 1.7-3.13 2.88-5.62 2.88s-4.48-1.1-5.51-2.72l5.71-3.21Z" class="cls-5"/><path d="M254.77 181.24h11.3v5.03h-11.3z" class="cls-7"/><path d="m265.07 201.06-4.39 2.47-4.64-2.6c1.13-.93 2.7-1.51 4.44-1.51 1.82 0 3.46.63 4.59 1.64Z" class="cls-5"/><path d="m260.68 203.53-5.71 3.21c-.44-.69-.69-1.48-.69-2.31 0-1.37.68-2.6 1.77-3.51l4.64 2.6Z" class="cls-5"/><path d="m229.96 186.26 26.09 14.66c-1.09.9-1.77 2.14-1.77 3.51 0 .83.25 1.62.69 2.31l-15.35 8.63h-41.47l-15.64-8.79c.38-.65.59-1.38.59-2.14 0-1.3-.62-2.48-1.61-3.37l26.33-14.8h22.15ZM224 204.43c0-2.77-2.25-5.02-5.02-5.02s-5.03 2.25-5.03 5.02 2.25 5.03 5.03 5.03 5.02-2.25 5.02-5.03ZM254.77 186.26h-30.52v-5.02h30.52v5.02z" class="cls-5"/><path d="M212.95 181.24h11.3v5.03h-11.3zM218.98 199.42c2.77 0 5.02 2.25 5.02 5.02s-2.25 5.03-5.02 5.03-5.03-2.25-5.03-5.03 2.25-5.02 5.03-5.02Z" class="cls-7"/><path d="m207.81 186.26-26.33 14.8c-1.14-1.02-2.77-1.65-4.59-1.65s-3.31.58-4.44 1.51l-26.09-14.66h61.45ZM182.44 186.26v-5.02h30.51v5.02h-30.51zM198.15 215.37h-42.12l15.35-8.63c1.03 1.61 3.12 2.72 5.51 2.72s4.62-1.18 5.62-2.88l15.64 8.79Z" class="cls-5"/><path d="M183.1 204.43c0 .76-.21 1.49-.59 2.14l-5.42-3.05 4.39-2.47c1 .89 1.61 2.07 1.61 3.37ZM177.09 203.53l5.42 3.05c-1 1.7-3.13 2.88-5.62 2.88s-4.48-1.1-5.51-2.72l5.71-3.21Z" class="cls-5"/><path d="M171.13 181.24h11.3v5.03h-11.3z" class="cls-7"/><path d="M176.89 199.42c1.82 0 3.46.63 4.59 1.65l-4.39 2.47-4.64-2.6c1.13-.93 2.7-1.51 4.44-1.51Z" class="cls-5"/><path d="m177.09 203.53-5.71 3.21c-.44-.69-.69-1.48-.69-2.31 0-1.37.68-2.6 1.77-3.51l4.64 2.6Z" class="cls-5"/><path d="m146.37 186.26 26.09 14.66c-1.09.9-1.77 2.14-1.77 3.51 0 .83.25 1.62.69 2.31l-15.35 8.63h-41.47l-15.64-8.79c.38-.65.59-1.38.59-2.14 0-1.3-.62-2.48-1.61-3.37l26.33-14.8h22.15Zm-7.01 18.17c0-2.77-2.25-5.02-5.02-5.02s-5.03 2.25-5.03 5.02 2.25 5.03 5.03 5.03 5.02-2.25 5.02-5.03ZM171.13 186.26h-30.51v-5.02h30.51v5.02z" class="cls-5"/><path d="M129.32 181.24h11.3v5.03h-11.3zM134.33 199.42c2.77 0 5.02 2.25 5.02 5.02s-2.25 5.03-5.02 5.03-5.03-2.25-5.03-5.03 2.25-5.02 5.03-5.02Z" class="cls-7"/><path d="m124.22 186.26-26.33 14.8c-1.14-1.02-2.77-1.65-4.59-1.65s-3.31.58-4.44 1.51l-26.09-14.66h61.45ZM129.32 186.26H98.8v-5.02h30.52v5.02zM114.56 215.37H72.44l15.35-8.63c1.03 1.61 3.11 2.72 5.51 2.72s4.62-1.18 5.62-2.88l15.64 8.79Z" class="cls-5"/><path d="M99.51 204.43c0 .76-.21 1.49-.59 2.14l-5.42-3.05 4.39-2.47c1 .89 1.61 2.07 1.61 3.37ZM93.5 203.53l5.42 3.05c-1 1.7-3.13 2.88-5.62 2.88s-4.48-1.1-5.51-2.72l5.71-3.21Z" class="cls-5"/><path d="M87.5 181.24h11.3v5.03H87.5z" class="cls-7"/><path d="M93.3 199.42c1.82 0 3.46.63 4.59 1.65l-4.39 2.47-4.64-2.6c1.13-.93 2.7-1.51 4.44-1.51Z" class="cls-5"/><path d="m93.5 203.53-5.71 3.21c-.44-.69-.69-1.48-.69-2.31 0-1.37.68-2.6 1.77-3.51l4.64 2.6Z" class="cls-5"/><path d="m62.78 186.26 26.09 14.66c-1.09.9-1.77 2.14-1.77 3.51 0 .83.25 1.62.69 2.31l-15.35 8.63H30.78l-15.64-8.79c.38-.65.59-1.38.59-2.14 0-1.3-.62-2.48-1.61-3.37l26.33-14.8h22.34Zm-8.52 18.17c0-2.77-2.25-5.02-5.02-5.02s-5.03 2.25-5.03 5.02 2.25 5.03 5.03 5.03 5.02-2.25 5.02-5.03ZM87.5 186.26H56.99v-5.02H87.5v5.02z" class="cls-5"/><path d="M45.68 181.24h11.3v5.03h-11.3zM49.23 199.42c2.77 0 5.02 2.25 5.02 5.02s-2.25 5.03-5.02 5.03-5.03-2.25-5.03-5.03 2.25-5.02 5.03-5.02Z" class="cls-7"/><path d="M45.68 186.26H15.17v-5.02h30.51v5.02zM30.78 215.37H.24v-6.52L4 206.74c1.03 1.61 3.12 2.72 5.51 2.72s4.62-1.18 5.62-2.88l15.64 8.79ZM15.72 204.43c0 .76-.21 1.49-.59 2.14l-5.42-3.05 4.39-2.47c1 .89 1.61 2.07 1.61 3.37Z" class="cls-5"/><path d="M3.86 181.24h11.3v5.03H3.86z" class="cls-7"/><path d="m9.72 203.53 5.42 3.05c-1 1.7-3.13 2.88-5.62 2.88s-4.48-1.1-5.51-2.72l5.71-3.21Z" class="cls-5"/><path d="M9.52 199.42c1.82 0 3.46.63 4.59 1.65l-4.39 2.47-4.64-2.6c1.13-.93 2.7-1.51 4.44-1.51Z" class="cls-5"/><path d="m9.72 203.53-5.71 3.21c-.44-.69-.69-1.48-.69-2.31 0-1.37.68-2.6 1.77-3.51l4.64 2.6Z" class="cls-5"/><path d="m.24 198.21 4.84 2.72c-1.09.9-1.77 2.14-1.77 3.51 0 .83.25 1.62.69 2.31l-3.76 2.11v-10.64Z" class="cls-5"/><path d="M212.95 181.24H.24v-50.7h269.82v50.7h-57.11z" class="cls-9"/><path d="M.24 186.26h40.19l-26.33 14.8c-1.14-1.02-2.77-1.65-4.59-1.65s-3.31.58-4.44 1.51L.23 198.2v-11.95Z" class="cls-5"/><path d="M270.06 215.37H.24M.24 124.78h269.82M.24 130.54h269.82M266.07 181.24h3.99M224.25 181.24h30.52M182.44 181.24h30.51M140.62 181.24h30.51M98.8 181.24h30.52M56.99 181.24H87.5M15.17 181.24h30.51M.24 181.24h3.62M266.07 186.26h3.99M224.25 186.26h30.52M182.44 186.26h30.51M140.62 186.26h30.51M98.8 186.26H129.32M56.99 186.26H87.5M15.17 186.26H45.68M.24 186.26h3.62M72.44 215.37l15.35-8.63 5.71-3.21 4.39-2.47 26.33-14.8" class="cls-1"/><path d="m114.56 215.37-15.64-8.79-5.42-3.05-4.64-2.6-26.08-14.67M139.35 204.43c0 2.78-2.25 5.03-5.02 5.03s-5.03-2.25-5.03-5.03 2.25-5.02 5.03-5.02 5.02 2.25 5.02 5.02ZM223.99 204.43c0 2.78-2.25 5.03-5.02 5.03s-5.03-2.25-5.03-5.03 2.25-5.02 5.03-5.02 5.02 2.25 5.02 5.02Z" class="cls-1"/><path d="M97.89 201.06c1 .89 1.61 2.07 1.61 3.37 0 .76-.21 1.49-.59 2.14-1 1.7-3.13 2.88-5.62 2.88s-4.48-1.1-5.51-2.72c-.44-.69-.69-1.48-.69-2.31 0-1.37.68-2.6 1.77-3.51 1.13-.93 2.7-1.51 4.44-1.51 1.82 0 3.46.63 4.59 1.65ZM.24 208.85 4 206.74l5.72-3.21 4.39-2.47 26.33-14.8" class="cls-1"/><path d="m30.78 215.37-15.65-8.79-5.41-3.05-4.64-2.6-4.84-2.72" class="cls-1"/><path d="M14.11 201.06c1 .89 1.61 2.07 1.61 3.37 0 .76-.21 1.49-.59 2.14-1 1.7-3.13 2.88-5.62 2.88s-4.48-1.1-5.51-2.72c-.44-.69-.69-1.48-.69-2.31 0-1.37.68-2.6 1.77-3.51 1.13-.93 2.7-1.51 4.44-1.51 1.82 0 3.46.63 4.59 1.65ZM156.03 215.37l15.35-8.63 5.71-3.21 4.39-2.47 26.33-14.8" class="cls-1"/><path d="m198.15 215.37-15.64-8.79-5.42-3.05-4.64-2.6-26.08-14.67" class="cls-1"/><path d="M181.48 201.06c1 .89 1.61 2.07 1.61 3.37 0 .76-.21 1.49-.59 2.14-1 1.7-3.13 2.88-5.62 2.88s-4.48-1.1-5.51-2.72c-.44-.69-.69-1.48-.69-2.31 0-1.37.68-2.6 1.77-3.51 1.13-.93 2.7-1.51 4.44-1.51 1.82 0 3.46.63 4.59 1.65ZM239.62 215.37l15.35-8.63 5.71-3.21 4.39-2.47 4.99-2.81" class="cls-1"/><path d="m270.06 208.81-3.96-2.23-5.42-3.05-4.64-2.6-26.08-14.67" class="cls-1"/><path d="M265.07 201.06c1 .89 1.61 2.07 1.61 3.38 0 .76-.21 1.49-.59 2.14-1 1.7-3.13 2.88-5.62 2.88s-4.48-1.1-5.51-2.72c-.44-.69-.69-1.48-.69-2.31 0-1.37.68-2.6 1.77-3.51 1.13-.93 2.7-1.51 4.44-1.51 1.82 0 3.46.63 4.59 1.64ZM54.25 204.43c0 2.78-2.25 5.03-5.02 5.03s-5.03-2.25-5.03-5.03 2.25-5.02 5.03-5.02 5.02 2.25 5.02 5.02ZM3.86 181.24h11.3v5.03H3.86zM45.68 181.24h11.3v5.03h-11.3zM87.5 181.24h11.3v5.03H87.5zM129.32 181.24h11.3v5.03h-11.3zM171.13 181.24h11.3v5.03h-11.3zM212.95 181.24h11.3v5.03h-11.3zM254.77 181.24h11.3v5.03h-11.3z" class="cls-1"/></g><g id="_レイヤー_2" data-name="レイヤー 2"><path d="M219.2 109.37c5.1 5.65 8.2 27.48 6.54 30.14-1.66 2.67-7.09 9.7-7.09 9.7s-4.1-11.03-6.87-16.45c-2.78-5.43-13.66-12.08-13.66-12.08h-.21c.19-4.79.3-9.36.12-11.3 6.2-2.77 16.07-5.65 21.16 0Z" class="cls-10"/><path d="M218.59 149.39c1.53.39 2.69 1.45.61 3.32-3.11 2.77-12.74 10.08-19.28 11.19-6.55 1.11-22.06 1.55-24.16.67l-1.02-.14c2.06-2.41 3.29-4.6 4.31-6.81 1.55-.06 3.19-.21 4.9-.48 17.74-2.77 30.7-7.54 32.48-7.87.58-.1 1.42-.08 2.16.12Z" class="cls-8"/><path d="M197.91 120.67h.21s10.88 6.66 13.66 12.09c2.77 5.43 6.87 16.45 6.87 16.45l-.05.18c-.75-.2-1.58-.23-2.16-.12-1.78.33-14.74 5.1-32.48 7.87-1.72.27-3.35.42-4.9.48-14.55.52-22.24-7.34-22.24-7.34l-.03-.91c.74-.03 1.2-.08 1.28-.15.59-.47.74-6.03.52-10.47-.64.48-1.3.93-1.96 1.35-7.91 5.13-16.68 6.88-22.2 7.46-3.38.36-5.54.28-5.54.28s-2.63-5.95-4.28-14.35a72.43 72.43 0 0 1-.67-4c-.15-1.03-.28-2.08-.37-3.15-.29-3.05.29-5.61 1.43-7.8-6.32-13.13 4.77-37.2 10.17-43.62 0 0 .59-4.65 0-7.54-16.55-5.32-15.15-19.28-15.15-19.28l.44-2.47c1.03.19 2.07.46 3.11.8.02.42.1 1.02.23 1.73.36 1.85 1.12 4.39 2.09 5.99 1.35 2.21 4.68 9.39 12.34 8.76 3.13 3.07 6.9 3.03 8.25 2.47.9-.37 2.86-1.73 5.1-3.46 6.12 0 14.85 4.01 17.8 8 2.94 3.99 9.48 18.51 12.92 22.94s15.3 11.63 15.74 16.51c.17 1.94.07 6.51-.12 11.29Z" class="cls-3"/><path d="M120.87 146.37c-3.92 2.53-9.1 4.26-14.47 5.46-5.1 1.14-10.39 1.78-14.93 2.17-2.88.24-5.46.38-7.52.48 0 0-.24-4.05-.6-8.11-.21-2.22-.44-4.44-.69-6.02l2.11-.26s34-3.9 39.83-6.62c1.65 8.4 4.28 14.35 4.28 14.35s2.16.08 5.54-.28c6.05 1.4 18.33 1.95 22.35 1.81l.03.91s7.69 7.87 22.24 7.34c-1.02 2.21-2.25 4.4-4.31 6.81-1.81 2.12-4.28 4.41-7.81 7.04-6.41 1.01-16.42-4.02-25.47-9.82-11-7.06-20.58-15.28-20.58-15.28Z" class="cls-3"/><path d="m124.14 45.25 8.84-.49v-5.99c0-1.22 3.1-4.1 5.54-5.21.89-1.1 6.88-8.2 10.64-12.63l.56-1.77s-.67-.11-3.25-1.44-1.08-2.55 0-2.77c1.08-.23 2.25.99 5.79 2.66l2 .11s-.89-12.08-.89-13.3-1.11-.56-3.55.89c-2.43 1.44-15.84 15.74-17.17 17.95-1.27 2.09-5.1 14.81-8.51 21.99Zm-.58 1.17s4.44-16.18 7.75-22.28c3.32-6.09 11.97-16.84 17.74-20.06 5.76-3.21 8.42-4.98 8.76-2.21.33 2.77 0 13.19 0 13.19 5.1-3.21 6.31-3.87 8.2-4.43s4.32.56 3 3.21-6.32 6.98-6.32 6.98l.23 1.22 3.54.66-.77.76h-2.55s3.44 4.01 3.44 9.11c0 .44-.03.95-.08 1.52-1.09.51-7.46 1.03-8.67.26-1.22-.78-6.21-3.99-6.21-3.99s-3.22 2.77-5.13 5.32c-1.86 2.47-5.57 6.38-5.81 6.62.03-.22.47-3.24-1.03-4.63-1.55-1.44-2.55-.44-3.59 1.33s-.81 4.43-.41 6.21c.36 1.57 1.11 1.99 0 1.99s-11.71.93-11.71.93l-.13.03c-.13-.7-.22-1.31-.23-1.73Z" class="cls-7"/><path d="M140.66 42.3c.23-.24 3.95-4.16 5.81-6.62 1.91-2.55 5.13-5.32 5.13-5.32s4.98 3.21 6.21 3.99c1.22.77 7.59.25 8.67-.26-.57 6.04-4.05 18.63-7.79 21.98-2.1 1.87-4.77 4.05-7.11 5.85-2.25 1.73-4.2 3.08-5.1 3.46-1.35.56-5.12.6-8.25-2.47-7.66.63-10.99-6.55-12.34-8.76-.97-1.6-1.73-4.14-2.09-5.99l.13-.03s10.61-.93 11.71-.93.36-.42 0-1.99c-.4-1.78-.63-4.44.41-6.21s2.03-2.77 3.59-1.33c1.5 1.39 1.06 4.41 1.03 4.63Z" style="fill:#f4d7b9;stroke-width:0"/><path d="M158.58 138.74c.22 4.44.07 10-.52 10.47-.09.07-.55.12-1.28.15-4.02.15-16.3-.41-22.35-1.81 5.52-.58 14.29-2.33 22.2-7.46.66-.43 1.32-.88 1.96-1.35Z" class="cls-8"/><path d="m67.03 96.33 4.14 11.81c-.3.14-.61.28-.92.43-8.37 3.98-21.69 12.36-21.98 16.21-7.25-.15-11.97-13.57-11.97-13.57 3.11-4.05 9.18-10.51 14.44-14.21 1.25-.89 2.45-1.61 3.55-2.11.21-.1.42-.18.62-.26 9.02-13.45 17.88-30.44 31.18-38.12 12.18-7.04 23.13-13.02 34.35-10.89l-.44 2.47s-1.4 13.96 15.15 19.28c.59 2.88 0 7.54 0 7.54-5.39 6.42-16.49 30.49-10.17 43.61-1.15 2.2-1.72 4.76-1.43 7.8.1 1.07.23 2.12.37 3.15-4.51 1.15-33.61 1.41-33.61 1.41l-7.35-12.35 2.47-3.17c-1.23-2.67-2.5-7.2-2.48-14.52-1.59-.02-9.47-3.89-14.7-6.55l-1.22 2.05Z" class="cls-3"/><path d="M141.46 161.65c-10.17 2.49-18.79.2-24.92-2.8-6.41-3.13-10.12-7.01-10.12-7.01 5.37-1.2 10.55-2.93 14.47-5.46 0 0 9.58 8.22 20.58 15.28Z" class="cls-10"/><path d="M123.93 129.48c.19 1.38.42 2.72.67 4-5.83 2.72-39.83 6.62-39.83 6.62l-2.11.26c-.13-.82-.27-1.47-.41-1.83-.89-2.37-6.5 2.8-9.03 6.65-.68 1.03-1.38 1.83-2.04 2.42-1.79 1.6-3.3 1.65-3.4.68-.02-.16-.03-.67-.03-1.44 0-2.01.05-5.81.12-9.86.11-7.1.27-14.97.28-15.29.43-.18.76-.34.96-.45l1.15-12.66c.31-.16.63-.3.92-.43l-4.14-11.81 1.22-2.05c5.23 2.67 13.11 6.54 14.7 6.55-.02 7.33 1.25 11.86 2.48 14.52l-2.47 3.17 7.35 12.35s29.11-.25 33.61-1.41ZM116.52 158.85c-16.4 3.71-25.05-4.84-25.05-4.84 4.54-.39 9.83-1.03 14.93-2.17 0 0 3.72 3.89 10.12 7.01ZM83.95 154.48c-2.31.42-7.2-2.76-10.21-4.94l.23-.33s8.17-1.3 9.37-2.84c.36 4.06.6 8.11.6 8.11Z" class="cls-3"/><path d="M83.35 146.37c-1.2 1.54-9.37 2.84-9.37 2.84l-.23.33a59.125 59.125 0 0 1-2.56-1.94c.66-.59 1.36-1.39 2.04-2.42 2.53-3.85 8.14-9.02 9.03-6.65.14.36.28 1.02.41 1.83.25 1.57.49 3.79.69 6.02Z" class="cls-3"/><path d="m70.25 108.57-1.15 12.66c-.21.11-.54.27-.96.44-3.78 1.57-15.28 5.22-18.82 4.27-.7-.19-1.09-.56-1.05-1.16.29-3.85 13.61-12.22 21.98-16.21Z" class="cls-8"/><path d="M49.31 141.08V126.1l.02-.16c3.54.95 15.04-2.7 18.82-4.26 0 .32-.16 8.19-.28 15.29h-.1l-17.03 4.29-1.43.36v-.54Z" class="cls-3"/><path d="M67.77 136.97h.1c-.07 4.05-.12 7.86-.12 9.86-3.61.44-17.01-5.57-17.01-5.57l17.03-4.29Z" class="cls-3"/><path d="M54.29 94.89c-1.1.5-2.3 1.22-3.55 2.11l-8.97-26.42-.14-.62 3.24-.75s8.72 25.67 9.42 25.67Z" style="fill:#ab9f6d;stroke-width:0"/><path d="m49.32 125.94-.02.16v6.22c-6.94-3.11-13.13-17.88-13.51-19.73l.5-1.37s4.72 13.42 11.97 13.57c-.04.6.35.97 1.05 1.16Z" class="cls-10"/><path d="M49.31 132.32v8.77c-12.08-4.64-15.3-18.46-15.52-22.41 0-.49 1.28-4.08 2.01-6.09.38 1.85 6.56 16.62 13.51 19.73Z" class="cls-3"/><path d="M124.14 45.25c3.4-7.18 7.24-19.9 8.51-21.99 1.33-2.21 14.74-16.51 17.17-17.95 2.44-1.44 3.55-2.11 3.55-.89s.89 13.3.89 13.3l-2-.11c-3.54-1.67-4.71-2.88-5.79-2.66-1.08.22-2.58 1.44 0 2.77s3.25 1.44 3.25 1.44l-.56 1.77c-3.77 4.44-9.76 11.53-10.64 12.63-2.44 1.11-5.54 3.99-5.54 5.21v5.99l-8.84.49Z" class="cls-2"/><path d="M151.58 61.92c2.34-1.8 5.01-3.98 7.11-5.85 3.74-3.35 7.21-15.94 7.79-21.98.05-.57.08-1.08.08-1.52 0-5.1-3.44-9.11-3.44-9.11h2.55l.77-.76-3.54-.66-.23-1.22s4.99-4.32 6.32-6.98-1.11-3.77-3-3.21-3.1 1.22-8.2 4.43c0 0 .33-10.42 0-13.19-.34-2.77-3-1-8.76 2.21-5.76 3.22-14.41 13.97-17.74 20.06-3.32 6.09-7.75 22.28-7.75 22.28.19-.37.38-.76.58-1.17M135.08 57.84c.83 2.25 1.94 3.89 3.13 5.06 3.13 3.07 6.9 3.03 8.25 2.47.9-.37 2.86-1.73 5.1-3.46" class="cls-2"/><path d="M140.65 42.31h0c.23-.25 3.95-4.17 5.81-6.63 1.91-2.55 5.13-5.32 5.13-5.32s4.98 3.21 6.21 3.99c1.22.77 7.59.25 8.67-.26" class="cls-2"/><path d="M123.92 48.13s10.61-.93 11.71-.93.36-.42 0-1.99c-.4-1.78-.63-4.44.41-6.21s2.03-2.77 3.59-1.33c1.5 1.39 1.06 4.41 1.03 4.63M146.93 43.98s5.88.44 5.55 2.44M158.58 47.54s1.66.22 2.21 1.1M151.32 45.84l.51.51M159.96 48.64l.31.31M156.36 43.43s-2.22 12.08-2.88 12.08-4.53-.33-3.77-1.55M151.83 35.89l2.15 1.17M160.79 39.24s1.61 1.21 1.67 1.42" class="cls-2"/><path d="M151.32 51.58s-.61.22-.95.28M148.75 58.02s1.66.82 2.26.7M151.57 61.92h0c6.12 0 14.85 4.01 17.8 8 2.94 3.99 9.48 18.51 12.92 22.94s15.3 11.63 15.74 16.51c.17 1.94.07 6.51-.12 11.29-.3 7.19-.77 14.86-.77 14.86" class="cls-2"/><path d="M198.03 109.37c6.2-2.77 16.07-5.65 21.16 0s8.2 27.48 6.54 30.14c-1.66 2.67-7.09 9.7-7.09 9.7s-4.1-11.03-6.87-16.45c-2.78-5.43-13.66-12.08-13.66-12.08M156.81 150.27s7.69 7.87 22.24 7.34c1.55-.06 3.19-.21 4.9-.48 17.74-2.77 30.7-7.54 32.48-7.87.58-.1 1.42-.08 2.16.12 1.53.39 2.69 1.45.61 3.32-3.11 2.77-12.74 10.08-19.28 11.19-6.55 1.11-22.06 1.55-24.16.67M137.3 112.58c1.55.23 38.34 19.73 46.77 21.06s19.28 3.32 19.28 3.32M124.99 118.53c-1.15 2.19-1.72 4.75-1.43 7.8.1 1.07.23 2.12.37 3.15.19 1.38.42 2.72.67 4 1.65 8.4 4.28 14.35 4.28 14.35s2.16.08 5.54-.28c5.52-.58 14.29-2.33 22.2-7.46.66-.43 1.32-.88 1.96-1.35.22 4.44.07 10-.52 10.47-.09.07-.55.12-1.28.15-4.02.15-16.3-.41-22.35-1.81M169.38 93.09c-2.82 3.1-18.56 9.24-26.76 13.04-1.39.64-2.88 1.3-4.4 2.01-3.71 1.74-7.56 3.78-10.4 6.61-1.14 1.12-2.1 2.37-2.83 3.78" class="cls-2"/><path d="M135.15 121.67s16.1 18.6 21.46 18.42M168.33 77.56c-.22.56-13.68 9.42-17.48 13.53-3.79 4.1-13.14 13.05-12.62 17.05M142.62 77.01l7.75-6.42-1.62 12.97c-10.34 3.87-23.87 17.5-20.93 31.19" class="cls-2"/><path d="M120.01 48.09s-1.4 13.96 15.15 19.28c.59 2.88 0 7.54 0 7.54-5.39 6.42-16.49 30.49-10.17 43.61h0M118.02 58.73S99.4 78.9 98.07 97.51c-1.33 18.62-.39 22.34-.39 22.34l11.53-1.17" class="cls-2"/><path d="M105.6 112.58s4.65 10.42 12.41 12.2M83.94 90.15c-.35 1.61-.59 3.26-.73 4.92-.17 2.09-.25 4.01-.26 5.76-.02 7.33 1.25 11.86 2.48 14.52 1.13 2.45 2.21 3.32 2.21 3.32M110.03 51.86c-6.29 6-15.29 14.71-21.12 25.35-2.22 4.05-3.98 8.38-4.96 12.94" class="cls-2"/><path d="m85.43 115.36-2.47 3.17 7.35 12.35s29.11-.25 33.61-1.41M84.77 140.09s34-3.9 39.83-6.62M89.94 68.7l1.62-5.76-6.58 2.73s2.08 10.88 3.92 11.54M73.98 76.31s7.51 13.84 9.97 13.84h0M63.49 91.83s2.02 1.06 4.77 2.46c5.23 2.67 13.11 6.54 14.7 6.55h0M68.14 121.68c-3.78 1.56-15.28 5.21-18.82 4.26-.7-.19-1.09-.56-1.05-1.16.29-3.85 13.61-12.22 21.98-16.21.31-.16.63-.3.92-.43l-4.14-11.81h-6.5" class="cls-2"/><path d="m70.25 108.57-1.15 12.66c-.21.11-.54.27-.96.44M49.31 126.1v15.52l1.43-.36 17.03-4.29M71.18 147.59c.66-.59 1.36-1.39 2.04-2.42 2.53-3.85 8.14-9.02 9.03-6.65.14.36.28 1.02.41 1.83.25 1.57.49 3.79.69 6.02.36 4.06.6 8.11.6 8.11 2.06-.1 4.64-.23 7.52-.48 4.54-.39 9.83-1.03 14.93-2.17 5.37-1.2 10.55-2.93 14.47-5.46 1.13-.73 2.15-1.52 3.05-2.39M68.14 121.67h0c0 .33-.16 8.2-.28 15.3-.07 4.05-.12 7.86-.12 9.86 0 .77 0 1.28.03 1.44.1.97 1.61.92 3.4-.68" class="cls-2"/><path d="M120.87 146.37s9.58 8.22 20.58 15.28c9.05 5.8 19.06 10.83 25.47 9.82 3.53-2.63 6-4.92 7.81-7.04 2.06-2.41 3.29-4.6 4.31-6.81M116.53 158.85c6.14 3 14.75 5.3 24.92 2.8M106.4 151.83s3.72 3.89 10.12 7.01M91.47 154s8.66 8.55 25.05 4.84h0M71.17 147.59h0c.12.1 1.13.91 2.56 1.94 3.01 2.18 7.9 5.36 10.21 4.94" class="cls-2"/><path d="M73.98 149.21s8.17-1.3 9.37-2.84M50.74 141.26s13.4 6.02 17.01 5.57M49.75 141.26c-.15-.05-.3-.1-.44-.17-12.08-4.64-15.3-18.46-15.52-22.41 0-.49 1.28-4.08 2.01-6.09l.5-1.37s4.72 13.42 11.97 13.57" class="cls-2"/><path d="M49.31 132.32c-6.94-3.11-13.13-17.88-13.51-19.73M54.3 94.89c.21-.1.42-.18.62-.26C63.94 81.18 72.8 64.19 86.1 56.51c12.18-7.04 23.13-13.02 34.35-10.89 1.03.19 2.07.46 3.11.8.02.42.1 1.02.23 1.73.36 1.85 1.12 4.39 2.09 5.99 1.35 2.21 4.68 9.39 12.34 8.76M36.3 111.21c3.11-4.05 9.18-10.51 14.44-14.21 1.25-.89 2.45-1.61 3.55-2.11M41.77 70.58 50.74 97" class="cls-2"/><path d="m41.18 70.07.45-.1 3.24-.75s8.72 25.67 9.42 25.67h0" class="cls-2"/></g></svg>