<?xml version="1.0" encoding="UTF-8"?>
<svg id="_レイヤー_1" data-name="レイヤー 1" xmlns="http://www.w3.org/2000/svg" viewBox="0 0 244.94 195.15">
  <defs>
    <style>
      .cls-1, .cls-2 {
        stroke: #000;
      }

      .cls-1, .cls-2, .cls-3, .cls-4 {
        fill: none;
      }

      .cls-1, .cls-4 {
        stroke-miterlimit: 10;
      }

      .cls-5 {
        fill: #3d3931;
      }

      .cls-5, .cls-6, .cls-7, .cls-8, .cls-9 {
        stroke-width: 0px;
      }

      .cls-2, .cls-3 {
        stroke-linecap: round;
        stroke-linejoin: round;
      }

      .cls-6 {
        fill: #333;
      }

      .cls-3, .cls-4 {
        stroke: #eee;
      }

      .cls-7 {
        fill: #fed3b0;
      }

      .cls-8 {
        fill: #d2d0b9;
      }

      .cls-9 {
        fill: #ec6c5f;
      }
    </style>
  </defs>
  <g>
    <path class="cls-5" d="m203.68,104.78l1.26-1.52c2.66.97,4.79.96,5.66,1.66,1.64,1.31,14.05,11.1,20.28,14.39,6.23,3.27,9.52,10.41,10.84,14.83,1.31,4.43,2.71,17.62,2.71,20.41-8.85-2.46-11.07-3.19-23.04-8.6s-24.13-6.63-30.04-8.43c-.45-.34-.9-.67-1.34-1.02h0c-3.01-2.32-5.86-4.65-7.94-5.75-1.64-.88-2.78-.98-3.14.3,0-2.79.09-7.92.43-11.14.1-.9.21-1.66.35-2.17,1.45-5.42,2.93-9.47,8.04-12.24,4.89-2.66,11.14-4.57,15.85-.77.02.02.05.04.07.06Z"/>
    <path class="cls-9" d="m221.4,145.94c11.97,5.41,14.19,6.14,23.04,8.6,0,2.79-7.25,7.04-12.55,6.32-3.68-.51-10.65,1.96-10.65,1.96-13.5-3.85-22.53-17.69-34.79-24.4,1.8-.9,3.42-1.83,3.57-1.93h0c.44.35.89.68,1.34,1.02,5.9,1.8,18.07,3.01,30.04,8.43Z"/>
    <path class="cls-5" d="m121.61,165.93c9.96-7.21,28.07-17.01,28.56-19.31-.19-.19-.34-.84-.43-1.75h0c2.95-1.87,3.81-2.58,5.9-2.57l5.68,1.85.39.52c-.15.13-.26.25-.34.35-.03.3.31.54.75.68h0c.49.16,1.1.21,1.5.12.34-.09,1.64-.12,3.16-.22,2.02-.13,4.44-.36,5.53-.96,1.93-1.05,7.75-4.51,9.51-4.47.86.02,2.8-.85,4.58-1.74,12.27,6.71,21.29,20.55,34.79,24.4,0,0-1.47,7.13-1.96,11.56s-4.92,4.43-12.3,2.95c-4.44-.89-10.75-.7-16.24-.41h-.07c-7.07.14-25.26-5.49-28.53-8.19-3.27-2.71-2.5-8.48,0-14.19,0,0-8.52,8.65-12.39,11.39-.72.52-1.52,1.29-2.4,2.25-1.64,1.79-3.53,4.22-5.68,6.79-2.83,3.4-6.1,7.04-9.77,9.81,0,0-7.7,4.58-9.51,6.56-1.8,1.96-7.7,3.93-10.49,3.11-2.79-.82-4.63-4.58-14.84-12.09,0,0-1.6,1.72-7.87,4.91-5.56.91-11.18.3-16.38-1.17,5.33,1.15,29.51-7.65,34.33-11.75,3-2.55,2.89-3.93,2.23-4.59,2.3-.62,6.84-1.98,12.23-3.84Z"/>
    <path class="cls-5" d="m204.94,103.26l-1.26,1.52s-.05-.04-.07-.06c-4.71-3.8-10.96-1.89-15.85.77-5.11,2.77-6.59,6.82-8.04,12.24-.13.51-.25,1.27-.35,2.17l-1.55-.03c-.81-4.13-4.41-12.49-5.64-16.23-1.22-3.73-11.56-26.51-15.92-35.02l-.07-.07c.68-.72,1.12-1.19,1.18-1.27.99.11,1.99.25,2.89.42,3.45.65,11.91,4.75,17.45,8.8,5.53,4.06,13.68,13.2,19.42,20.73,2.69,3.53,5.46,5.15,7.8,6.01Z"/>
    <path class="cls-8" d="m162.14,168.72c3.26,2.7,21.46,8.33,28.53,8.19-3.62.18-6.88.41-9.02.41-5.4,0-11.07,2.71-11.07,2.71,0,0,.65,6.56,0,10.99-.65,4.42-2.29,3.44-6.55-.65-1.16-4.3-2.05-5.17-6.23-7.5-1.17-.65-2.43-1.73-3.63-3.05-3.07-3.37-5.76-8.3-5.55-11.58l-1.27-.05c.88-.96,1.68-1.73,2.4-2.25,3.87-2.74,12.39-11.39,12.39-11.39-2.5,5.7-3.27,11.48,0,14.19Z"/>
    <path class="cls-7" d="m166.81,145.59c-1.52.11-2.82.13-3.16.22-.4.1-1.01.05-1.5-.12h0c-.44-.14-.78-.39-.75-.68.08-.1.18-.21.34-.35,1.02-.91,3.63-2.53,4.39-3.25.87-.83,2.18-3.81,4.17-5.79l-.69-.33c-.68-.33-2.88.2-5.26.89-2.37.68-.56-1.15,1.05-2.4.9-.71,2.47-1.15,4.15-1.26,1.31-.09,2.69,0,3.89.33,2.74.72,3.61.43,4.7.34.35.02.7-.05,1.05-.18,1.33-.5,2.55-1.87,2.9-2.27,2.07,1.1,4.92,3.43,7.94,5.75-.15.1-1.77,1.03-3.57,1.93-1.78.9-3.73,1.76-4.58,1.74-1.76-.04-7.59,3.42-9.51,4.47-1.09.61-3.51.84-5.53.96Z"/>
    <path class="cls-5" d="m178.94,131.04c.36-1.28,1.5-1.17,3.14-.3-.35.4-1.57,1.77-2.9,2.27l-.24-.6c-.1-.13,0,.21,0-1.38Z"/>
    <path class="cls-5" d="m149.42,133.58c.04,3.44,0,8.58.32,11.29.1.91.24,1.56.43,1.75-.49,2.3-18.61,12.1-28.56,19.31-5.39,1.86-9.93,3.23-12.23,3.84-.42-.43-1.06-.58-1.25-.56-1.87.15,0,0-6.39,2.21-6.38,2.21-36.63,4.42-50.78,1.63h0c-.97-1.2-1.6-2.31-1.82-3.23,0-.02,0-.03,0-.05-1.45-6.14,2.35-13.25,6.52-19.14,1.64-2.31,4.31-4.36,7.52-6.36,4.99-3.1,11.26-6.09,16.95-9.75,0,0,0-1.11-.74-5.41s-2.34-16.97-.98-19.42c.34-.62,1.09-2.27,2.06-4.49,2.86-6.56,7.66-18.03,9.5-22.06,2.46-5.41,4.3-9.47,11.31-13.65,4.61-2.74,10.26-5.1,15.63-6.85.08-.03.15-.05.23-.08,3.2,2.86,11.68,11.34,16.35,13.56s12.9,2.13,16.72-1.51c2.44-2.33,4.7-4.68,6.02-6.08l.07.07c4.36,8.5,14.7,31.29,15.92,35.02,1.23,3.74,4.83,12.1,5.64,16.23l1.55.03c-.35,3.23-.42,8.35-.43,11.14,0,1.59-.1,1.24,0,1.38l.24.6c-.35.13-.7.2-1.05.18-1.09.1-1.95.39-4.7-.34-1.2-.32-2.58-.41-3.89-.33l-.02-.19c-5.57-.73-9.02-2.06-16.78,1.96l-3.32-.72Z"/>
    <path class="cls-7" d="m152.74,134.3c7.75-4.03,11.21-2.7,16.78-1.96l.02.19c-1.69.12-3.26.55-4.15,1.26-1.61,1.25-3.42,3.08-1.05,2.4,2.38-.68,4.57-1.21,5.26-.89l.69.33c-1.99,1.97-3.3,4.96-4.17,5.79-.76.71-3.37,2.33-4.39,3.25l-.39-.52-5.68-1.85c-2.09,0-2.96.7-5.9,2.57h0c-.31-2.71-.28-7.85-.32-11.29l3.32.72Z"/>
    <path class="cls-6" d="m163.04,23.73c0,.99-.73,2.96-2.46,2.96-.22,0-.62-.03-1.15-.09-3.61-.39-13.37-2.01-13.94-3.44-2.29,6.8-4.8,18.61-5.43,19.01-1.69-3.2-3.09-5.16-4.65-5.49-1.08-.23-2.57.82-2.89,2.73l-1.88-.37c.64-3.2,1.2-5.93,1.45-7.16.73-3.56,5.65-12.66,7.74-14.01.24-.62,0-1.23,0-1.23h-2.96v-2.66h4.96s.94-1.65,1.72-1.89c-1.93-1.96-3.85-3.11-4.22-3.27-.37-.17-.87-.94-2.25.82-.62.77-1.6,2.07-2.72,3.94-1.43,2.41-3.06,5.77-4.37,10.2-2.34,7.87-11.56,38.39-11.56,38.39-.45.13-.91.28-1.36.42-.08.03-.15.05-.23.08v-.04s10.81-42.17,12.53-45.99c1.71-3.8,4.8-12.12,9.79-10.74,5,1.4,7.29,3.36,7.29,3.36,2.05-2.21,8.28-6.67,10.5-8.07,2.21-1.4,4.54-.64,3.44,1.89-2.29,2.95-6.64,8.03-6.64,8.03l1.06,1.47h4.83v1.31h-3.35c2.95,2.87,6.71,8.85,6.71,9.83Z"/>
    <path class="cls-7" d="m147.69,67.47l-.06.24c-1.22.94-7.52,3.07-10.56,2.41-4.55-.98-12.22-9.67-12.22-9.67l3.32-5.2c1.27-1.36,6.6-3.49,8.9-3.49,0,0,.33-.74.16-2.05-2.21,0-2.96-3.69-4.35-7.38-.41-1.12-.49-2.1-.35-2.93.32-1.91,1.81-2.96,2.89-2.73,1.56.33,2.96,2.29,4.65,5.49.64-.4,3.14-12.21,5.43-19.01.57,1.43,10.32,3.05,13.94,3.44.55,1.5,1.01,4.55,1.32,8.07h0c.2,2.29.34,4.77.4,7.17.12,4.88-.09,9.41-.74,11.16-1.47,3.93-5.98,11.14-8.52,13.85-.92.98-2.49,1.03-4.21.63Z"/>
    <path class="cls-5" d="m157.38,67.29c-.07.08-.5.55-1.18,1.27-1.32,1.4-3.58,3.75-6.02,6.08-3.81,3.64-12.05,3.73-16.72,1.51s-13.16-10.7-16.35-13.56c.45-.14.91-.29,1.36-.42,2.23-.69,4.39-1.26,6.38-1.71,0,0,7.68,8.69,12.22,9.67,3.04.66,9.34-1.46,10.56-2.41l.06-.24c1.71.4,3.28.36,4.21-.63,0,0,2.69.11,5.48.44Z"/>
    <path class="cls-8" d="m154.17,179.81c-2.88-.55-6.78,2.19-8.21,3.79-.51-3.06-2.21-6.7-4.29-8.63,2.15-2.57,4.04-5,5.68-6.79l1.27.05c-.21,3.27,2.48,8.21,5.55,11.58Z"/>
    <path class="cls-8" d="m145.95,183.6c.32,1.87.19,3.52-.53,4.46,0,0,.08.98-1.89,3.28-1.96,2.29-4.27,1.64-5.25-1.15-.98-2.79-6.39-5.41-6.39-5.41,3.68-2.77,6.94-6.41,9.77-9.81,2.08,1.93,3.78,5.57,4.29,8.63Z"/>
    <path class="cls-6" d="m137.23,49.71c.16,1.31-.16,2.05-.16,2.05-2.3,0-7.63,2.13-8.9,3.49-.15-2.19,1.27-10.06,2.48-16.21l1.88.37c-.14.83-.07,1.81.35,2.93,1.4,3.69,2.14,7.38,4.35,7.38Z"/>
    <path class="cls-9" d="m109.38,169.77c.65.66.77,2.04-2.23,4.59-4.82,4.1-29.01,12.9-34.33,11.75-.11-.02-.2-.05-.3-.08-9.75-2.79-18-8.55-21.57-12.98h0c14.15,2.79,44.4.58,50.78-1.63,6.39-2.21,4.53-2.06,6.39-2.21.19-.02.83.13,1.25.56Z"/>
    <path class="cls-8" d="m80.14,105.09l.3.13c-.97,2.21-1.72,3.87-2.06,4.49-1.36,2.46.24,15.12.98,19.42s.74,5.41.74,5.41c-5.69,3.66-11.96,6.64-16.95,9.75l-.06-.1c-8.93,2.22-27.63-2.84-28.58-3.1,1.6.13,6.06-9.98,10.3-16.03,0,0,.02,0,.02-.02,1.26-1.8,2.51-3.25,3.66-3.96,0,0,.02,0,.03-.02.21-.1.44-.21.68-.33,0,0,.03,0,.04,0,1.69-.83,3.95-2.06,5.72-3.48,3.27-2.62,10.81-14.67,10.81-14.67l14.36,2.51Z"/>
    <path class="cls-8" d="m63.09,144.19l.06.1c-3.21,1.99-5.88,4.04-7.52,6.36-4.17,5.88-7.97,12.99-6.52,19.14l-.21.05s-26.71-1.11-38.19-.06c-11.47,1.05-10.16.91-10.16-1.54s16.06-37.54,19.01-41.81c1.77-2.55,3.53-4.75,5.59-5.88,1.45-.6,2.26-1.06,3.83,2.74,0,0,0,0,0,0,.17.43.37.93.57,1.49,1.97,5.41,2.79,15.86,4.92,16.29,0,0,0,0,.04,0,.95.26,19.66,5.33,28.58,3.1Z"/>
    <path class="cls-5" d="m46.77,121.84s.68-.28,1.72-.76c-1.15.71-2.4,2.16-3.66,3.96,0,0,0,0-.02.02-1.12,1.49-6.13,5.8-8.82,6.47-2.71.68-4.18-2.89-7.01-8.23,0,0,0,0,0,0-1.57-3.8-2.38-3.34-3.83-2.74,1.38-.78,2.87-1.07,4.58-.67,4.26.98,7.2,0,17.05,1.97Z"/>
    <path class="cls-8" d="m35.99,131.53c2.69-.67,7.7-4.98,8.82-6.47-4.25,6.06-8.71,16.16-10.3,16.03-.03,0-.04,0-.04,0-2.13-.43-2.95-10.88-4.92-16.29-.2-.56-.39-1.06-.57-1.49,2.83,5.34,4.3,8.92,7.01,8.23Z"/>
  </g>
  <g>
    <path class="cls-2" d="m116.86,62.62s10.81-42.17,12.54-45.99c1.71-3.8,4.8-12.12,9.79-10.74,5,1.4,7.29,3.36,7.29,3.36,2.05-2.21,8.28-6.67,10.5-8.07,2.21-1.4,4.54-.64,3.44,1.89-2.29,2.95-6.64,8.03-6.64,8.03l1.06,1.47h4.83v1.31h-3.35c2.95,2.87,6.71,8.85,6.71,9.83s-.73,2.96-2.46,2.96c-.22,0-.62-.03-1.15-.09-3.61-.39-13.37-2.01-13.94-3.44-2.29,6.8-4.8,18.61-5.43,19.01-1.69-3.2-3.09-5.16-4.65-5.49-1.08-.23-2.57.82-2.89,2.73-.14.83-.07,1.81.35,2.93,1.4,3.69,2.14,7.38,4.35,7.38.16,1.31-.16,2.05-.16,2.05-2.3,0-7.63,2.13-8.9,3.49-.15-2.19,1.27-10.06,2.48-16.21.64-3.2,1.2-5.93,1.45-7.16.73-3.56,5.65-12.66,7.74-14.01.24-.62,0-1.23,0-1.23h-2.96v-2.66h4.96s.94-1.65,1.72-1.89c-1.93-1.96-3.85-3.11-4.22-3.27-.37-.17-.87-.94-2.25.82-.62.77-1.6,2.07-2.72,3.94-1.43,2.41-3.06,5.77-4.37,10.2-2.34,7.87-11.56,38.39-11.56,38.39"/>
    <path class="cls-2" d="m160.76,34.68c.2,2.28.34,4.76.4,7.16.12,4.88-.09,9.41-.74,11.16-1.47,3.93-5.98,11.14-8.52,13.85-.92.98-2.49,1.03-4.21.63-3-.71-6.42-2.8-7.62-3.66"/>
    <path class="cls-2" d="m159.44,26.6c.55,1.5,1.01,4.55,1.32,8.07"/>
    <path class="cls-2" d="m128.17,55.25l-3.32,5.2s7.68,8.69,12.22,9.67c3.04.66,9.34-1.46,10.56-2.41"/>
    <path class="cls-2" d="m147.63,41.56s3.78-.13,4.51.28"/>
    <path class="cls-2" d="m158.04,41.84s2.31-.23,3.12,0c0,0,.02,0,.03,0"/>
    <path class="cls-2" d="m155.17,50.78v1.15c0,.41,2.31,1.47,3.28.91,1.01-.6.57.16,1.17-.98.59-1.16-.11-5.58-.11-5.58"/>
    <path class="cls-2" d="m153.95,56.68s3.11-.16,3.44,0"/>
    <line class="cls-2" x1="144.93" y1="33.48" x2="151.08" y2="35.12"/>
    <polyline class="cls-2" points="158.88 35.45 160.76 34.68 160.76 34.67 161.65 34.3"/>
    <path class="cls-2" d="m190.74,176.91c5.49-.29,11.8-.47,16.24.41,7.38,1.48,11.81,1.48,12.3-2.95s1.96-11.56,1.96-11.56c0,0,6.97-2.48,10.65-1.96,5.3.72,12.55-3.52,12.55-6.32s-1.4-15.98-2.71-20.41c-1.32-4.42-4.61-11.56-10.84-14.83-6.23-3.28-18.64-13.08-20.28-14.39-.88-.69-3-.68-5.66-1.66-2.34-.86-5.11-2.48-7.8-6.01-5.74-7.53-13.9-16.67-19.42-20.73-5.54-4.05-14-8.15-17.45-8.8-.9-.17-1.9-.32-2.89-.42-2.79-.34-5.48-.44-5.48-.44"/>
    <path class="cls-2" d="m164.03,190.36c4.26,4.09,5.89,5.08,6.55.65.65-4.43,0-10.99,0-10.99,0,0,5.66-2.71,11.07-2.71,2.15,0,5.4-.23,9.02-.41"/>
    <path class="cls-2" d="m72.81,186.12c5.2,1.46,10.82,2.07,16.38,1.17,6.27-3.19,7.87-4.91,7.87-4.91,10.21,7.5,12.05,11.27,14.84,12.09,2.78.82,8.69-1.15,10.49-3.11,1.8-1.97,9.51-6.56,9.51-6.56,0,0,5.41,2.62,6.39,5.41.98,2.78,3.28,3.44,5.25,1.15,1.96-2.3,1.89-3.28,1.89-3.28"/>
    <path class="cls-2" d="m124.84,60.45c-1.99.45-4.15,1.02-6.38,1.71-.45.13-.91.28-1.36.42-.08.03-.15.05-.23.08-5.37,1.74-11.02,4.1-15.63,6.85-7,4.18-8.85,8.23-11.31,13.65-1.84,4.04-6.64,15.5-9.5,22.06-.97,2.21-1.72,3.87-2.06,4.49-1.36,2.46.24,15.12.98,19.42s.74,5.41.74,5.41c-5.69,3.66-11.96,6.64-16.95,9.75-3.21,1.99-5.88,4.04-7.52,6.36-4.17,5.88-7.97,12.99-6.52,19.14,0,.02,0,.03,0,.05.22.91.85,2.02,1.82,3.23,3.57,4.43,11.83,10.19,21.57,12.98"/>
    <path class="cls-3" d="m178.94,132.42c-.1-.13,0,.21,0-1.38,0-2.79.09-7.92.43-11.14.1-.9.21-1.66.35-2.17,1.45-5.42,2.93-9.47,8.04-12.24,4.89-2.66,11.14-4.57,15.85-.77.02.02.05.04.07.06,4.38,3.53,8.26,7.72,12.42,11.52,4.51,4.11,9.76,9.51,15.78,11.26"/>
    <path class="cls-2" d="m221.24,162.82c-13.5-3.85-22.53-17.69-34.79-24.4"/>
    <path class="cls-2" d="m190.01,136.49c-3.01-2.32-5.86-4.65-7.94-5.75-1.64-.88-2.78-.98-3.14.3"/>
    <path class="cls-2" d="m244.44,154.54c-8.85-2.46-11.07-3.19-23.04-8.6s-24.13-6.63-30.04-8.43c-.45-.34-.9-.67-1.34-1.02"/>
    <path class="cls-2" d="m50.95,173.06c14.15,2.79,44.4.58,50.78-1.63,6.39-2.21,4.53-2.06,6.39-2.21.19-.02.83.13,1.25.56.65.66.77,2.04-2.23,4.59-4.82,4.1-29.01,12.9-34.33,11.75-.11-.02-.2-.05-.3-.08"/>
    <path class="cls-3" d="m109.38,169.77c2.3-.62,6.84-1.98,12.23-3.84,12.4-4.27,29.35-11.15,34.05-17.54"/>
    <path class="cls-3" d="m98.46,112.65s19.84,8.37,28.03,9.19"/>
    <path class="cls-3" d="m105.02,78.07s25.35,36.56,27.5,43.77"/>
    <path class="cls-3" d="m119.44,74.63s13.77,28.52,15.74,36.71c1.96,8.2,2.95,10.5,2.95,10.5"/>
    <path class="cls-3" d="m148.62,80.85s14.58,24.1,14.42,45.57"/>
    <path class="cls-2" d="m117.1,62.59c3.2,2.86,11.68,11.34,16.35,13.56s12.9,2.13,16.72-1.51c2.44-2.33,4.7-4.68,6.02-6.08.68-.72,1.12-1.19,1.18-1.27h0"/>
    <path class="cls-3" d="m156.26,68.62c4.36,8.5,14.7,31.29,15.92,35.02,1.23,3.74,4.83,12.1,5.64,16.23"/>
    <path class="cls-3" d="m178.94,83.32s3.65,24.93,2.98,27.54"/>
    <path class="cls-3" d="m121.61,165.93c9.96-7.21,28.07-17.01,28.56-19.31-.19-.19-.34-.84-.43-1.75-.31-2.71-.28-7.85-.32-11.29,0-1.33-.04-2.4-.09-2.98-.25-2.58-6.16-2.46-6.16-2.46-5.05.25-14.39.08-25.87,6.14-15.57,13.61-34.26,12.3-34.75,12.3"/>
    <path class="cls-2" d="m149.75,144.87c2.95-1.87,3.81-2.58,5.9-2.57l5.68,1.85"/>
    <path class="cls-2" d="m169.52,132.34c-5.57-.73-9.02-2.06-16.78,1.96-.03.02-.07.04-.11.06"/>
    <path class="cls-1" d="m162.15,145.7c.49.16,1.1.21,1.5.12.34-.09,1.64-.12,3.16-.22,2.02-.13,4.44-.36,5.53-.96,1.93-1.05,7.75-4.51,9.51-4.47.86.02,2.8-.85,4.58-1.74,1.8-.9,3.42-1.83,3.57-1.93h0"/>
    <path class="cls-1" d="m182.17,130.63s-.03.04-.09.11c-.35.4-1.57,1.77-2.9,2.27-.35.13-.7.2-1.05.18-1.09.1-1.95.39-4.7-.34-1.2-.32-2.58-.41-3.89-.33-1.69.12-3.26.55-4.15,1.26-1.61,1.25-3.42,3.08-1.05,2.4,2.38-.68,4.57-1.21,5.26-.89l.69.33c-1.99,1.97-3.3,4.96-4.17,5.79-.76.71-3.37,2.33-4.39,3.25-.15.13-.26.25-.34.35-.03.3.31.54.75.68"/>
    <path class="cls-1" d="m162.14,145.7h0c1.68-.27,8.05-4.14,8.28-4.61"/>
    <path class="cls-1" d="m166.78,145.61s.03,0,.04-.02c1.04-.39,3.38-1.53,4.58-2.8"/>
    <polyline class="cls-2" points="152.99 134.36 152.74 134.3 149.42 133.58 149.34 133.56"/>
    <path class="cls-1" d="m148.62,168.23c-.21,3.27,2.48,8.21,5.55,11.58,1.2,1.32,2.46,2.4,3.63,3.05,4.18,2.33,5.08,3.2,6.23,7.5"/>
    <path class="cls-1" d="m145.43,188.06c.72-.94.85-2.59.53-4.46-.51-3.06-2.21-6.7-4.29-8.63"/>
    <path class="cls-1" d="m131.89,184.79c3.68-2.77,6.94-6.41,9.77-9.81,2.15-2.57,4.04-5,5.68-6.79.88-.96,1.68-1.73,2.4-2.25,3.87-2.74,12.39-11.39,12.39-11.39-2.5,5.7-3.27,11.48,0,14.19,3.26,2.7,21.46,8.33,28.53,8.19h.07"/>
    <path class="cls-1" d="m145.95,183.6c1.43-1.61,5.34-4.34,8.21-3.79"/>
    <path class="cls-4" d="m97.11,94.25s23.15,15.78,26.26,21.69"/>
    <path class="cls-4" d="m101.4,83.32s8.48,12.94,8.84,14.92"/>
    <path class="cls-1" d="m48.5,121.08c-1.04.48-1.72.76-1.72.76-9.84-1.97-12.79-.99-17.05-1.97-1.71-.39-3.21-.11-4.58.67-2.05,1.14-3.81,3.33-5.59,5.88-2.95,4.27-19.01,39.34-19.01,41.81s-1.31,2.59,10.16,1.54c11.48-1.05,38.19.06,38.19.06"/>
    <path class="cls-1" d="m49.21,120.73c-.24.12-.47.23-.68.33"/>
    <path class="cls-1" d="m80.14,105.09l-14.36-2.51s-7.54,12.05-10.81,14.67c-1.77,1.42-4.03,2.65-5.72,3.48"/>
    <path class="cls-1" d="m44.84,125.04c1.26-1.8,2.51-3.25,3.66-3.96,0,0,.02,0,.03-.02.23-.13.46-.25.68-.33,0,0,.03,0,.04,0"/>
    <path class="cls-1" d="m34.51,141.09c1.6.13,6.06-9.98,10.3-16.03"/>
    <path class="cls-1" d="m28.98,123.3c.17.43.37.93.57,1.49,1.97,5.41,2.79,15.86,4.92,16.29"/>
    <path class="cls-1" d="m25.14,120.54c1.45-.6,2.26-1.06,3.83,2.74"/>
    <path class="cls-1" d="m28.97,123.29s0,0,0,0c2.83,5.34,4.3,8.92,7.01,8.23,2.69-.67,7.7-4.98,8.82-6.47,0,0,.02,0,.02-.02"/>
    <path class="cls-1" d="m34.47,141.08s0,0,.04,0c.95.26,19.66,5.33,28.58,3.1"/>
  </g>
</svg>