<svg xmlns="http://www.w3.org/2000/svg" xml:space="preserve" id="レイヤー_1" x="0" y="0" style="enable-background:new 0 0 269.6 211.9" version="1.1" viewBox="0 0 269.6 211.9"><style>.st0{fill:#f3edd7}.st1{fill:#333}.st2{fill:#d2d296}.st3{fill:none;stroke:#000;stroke-miterlimit:10}.st4{fill:#d2d0b9}.st5{fill:#ec6c5f}.st6{fill:#fcdfca}.st7{fill:none;stroke:#000;stroke-linecap:round;stroke-linejoin:round}.st8,.st9{fill:none;stroke:#fff;stroke-width:.5}.st8{stroke-linecap:round;stroke-linejoin:round}.st9{stroke-miterlimit:10}</style><g id="_畳"><path d="M.2 177.4h3.6v5H.2zM269.4 204.9v6.6H239l15.3-8.6c1 1.6 3.1 2.7 5.5 2.7s4.6-1.2 5.6-2.9l4 2.2z" class="st0"/><path d="M269.4 194.4v10.5l-4-2.2c.4-.6.6-1.4.6-2.1 0-1.3-.6-2.5-1.6-3.4l5-2.8z" class="st0"/><path d="M269.4 182.4v12l-5 2.8c-1.1-1-2.8-1.6-4.6-1.6s-3.3.6-4.4 1.5l-26-14.6h40zM269.4 121.1v5.7H.2v-5.7zM265.4 177.4h4v5h-4z" class="st0"/><path d="M266 200.5c0 .8-.2 1.5-.6 2.1l-5.4-3 4.4-2.5c1 1 1.6 2.1 1.6 3.4z" class="st0"/><path d="m260 199.6 5.4 3c-1 1.7-3.1 2.9-5.6 2.9s-4.5-1.1-5.5-2.7l5.7-3.2z" class="st0"/><path d="M254.1 177.4h11.3v5h-11.3z" class="st1"/><path d="m264.4 197.2-4.4 2.5-4.6-2.6c1.1-.9 2.7-1.5 4.4-1.5 1.9-.1 3.5.6 4.6 1.6z" class="st0"/><path d="m260 199.6-5.7 3.2c-.4-.7-.7-1.5-.7-2.3 0-1.4.7-2.6 1.8-3.5l4.6 2.6z" class="st0"/><path d="m229.4 182.4 26 14.6c-1.1.9-1.8 2.1-1.8 3.5 0 .8.2 1.6.7 2.3l-15.3 8.6h-41.4l-15.6-8.8c.4-.6.6-1.4.6-2.1 0-1.3-.6-2.5-1.6-3.4l26.3-14.8h22.1v.1zm-6 18.1c0-2.8-2.2-5-5-5s-5 2.2-5 5 2.2 5 5 5 5-2.2 5-5z" class="st0"/><path d="M254.1 182.4h-30.4v-5h30.4z" class="st0"/><path d="M212.4 177.4h11.3v5h-11.3zM218.4 195.5c2.8 0 5 2.2 5 5s-2.2 5-5 5-5-2.2-5-5 2.3-5 5-5z" class="st1"/><path d="M207.3 182.4 181 197.2c-1.1-1-2.8-1.6-4.6-1.6s-3.3.6-4.4 1.5l-26-14.6h61.3zM182 182.4v-5h30.4v5h-5.1zM197.7 211.4h-42l15.3-8.6c1 1.6 3.1 2.7 5.5 2.7s4.6-1.2 5.6-2.9l15.6 8.8z" class="st0"/><path d="M182.6 200.5c0 .8-.2 1.5-.6 2.1l-5.4-3 4.4-2.5c1 1 1.7 2.1 1.6 3.4z" class="st0"/><path d="m176.7 199.6 5.4 3c-1 1.7-3.1 2.9-5.6 2.9s-4.5-1.1-5.5-2.7l5.7-3.2z" class="st0"/><path d="M170.7 177.4H182v5h-11.3z" class="st1"/><path d="M176.5 195.5c1.8 0 3.4.6 4.6 1.6l-4.4 2.5-4.7-2.6c1.2-.9 2.7-1.5 4.5-1.5z" class="st0"/><path d="m176.7 199.6-5.7 3.2c-.4-.7-.7-1.5-.7-2.3 0-1.4.7-2.6 1.8-3.5l4.6 2.6z" class="st0"/><path d="m146 182.4 26 14.6c-1.1.9-1.8 2.1-1.8 3.5 0 .8.2 1.6.7 2.3l-15.3 8.6h-41.4l-15.6-8.8c.4-.6.6-1.4.6-2.1 0-1.3-.6-2.5-1.6-3.4l26.3-14.8H146v.1zm-7 18.1c0-2.8-2.2-5-5-5s-5 2.2-5 5 2.2 5 5 5 5-2.2 5-5z" class="st0"/><path d="M170.7 182.4h-30.4v-5h30.4z" class="st0"/><path d="M129 177.4h11.3v5H129zM134 195.5c2.8 0 5 2.2 5 5s-2.2 5-5 5-5-2.2-5-5 2.2-5 5-5z" class="st1"/><path d="m123.9 182.4-26.3 14.8c-1.1-1-2.8-1.6-4.6-1.6s-3.3.6-4.4 1.5l-26-14.6c0-.1 61.3-.1 61.3-.1zM129 182.4H98.6v-5H129zM114.3 211.4h-42l15.3-8.6c1 1.6 3.1 2.7 5.5 2.7s4.6-1.2 5.6-2.9l15.6 8.8z" class="st0"/><path d="M99.3 200.5c0 .8-.2 1.5-.6 2.1l-5.4-3 4.4-2.5c1 1 1.6 2.1 1.6 3.4z" class="st0"/><path d="m93.3 199.6 5.4 3c-1 1.7-3.1 2.9-5.6 2.9s-4.5-1.1-5.5-2.7l5.7-3.2z" class="st0"/><path d="M87.3 177.4h11.3v5H87.3z" class="st1"/><path d="M93.1 195.5c1.8 0 3.4.6 4.6 1.6l-4.4 2.5-4.6-2.6c1.1-.9 2.6-1.5 4.4-1.5z" class="st0"/><path d="m93.3 199.6-5.7 3.2c-.4-.7-.7-1.5-.7-2.3 0-1.4.7-2.6 1.8-3.5l4.6 2.6z" class="st0"/><path d="m62.6 182.4 26 14.6c-1.1.9-1.8 2.1-1.8 3.5 0 .8.2 1.6.7 2.3l-15.3 8.6H30.7l-15.6-8.8c.4-.6.6-1.4.6-2.1 0-1.3-.6-2.5-1.6-3.4l26.3-14.8c-.1.1 22.2.1 22.2.1zm-8.5 18.1c0-2.8-2.2-5-5-5s-5 2.2-5 5 2.2 5 5 5 5-2.2 5-5z" class="st0"/><path d="M87.3 182.4H56.8v-5h30.5z" class="st0"/><path d="M45.6 177.4h11.3v5H45.6zM49.1 195.5c2.8 0 5 2.2 5 5s-2.2 5-5 5-5-2.2-5-5 2.2-5 5-5z" class="st1"/><path d="M45.6 182.4H15.1v-5h30.5zM30.7 211.4H.2v-6.5l3.8-2.1c1 1.6 3.1 2.7 5.5 2.7s4.6-1.2 5.6-2.9l15.6 8.8zM15.7 200.5c0 .8-.2 1.5-.6 2.1l-5.4-3 4.4-2.5c1 1 1.6 2.1 1.6 3.4z" class="st0"/><path d="M3.9 177.4h11.3v5H3.9z" class="st1"/><path d="m9.7 199.6 5.4 3c-1 1.7-3.1 2.9-5.6 2.9s-4.5-1-5.5-2.7l5.7-3.2zM9.5 195.5c1.8 0 3.4.6 4.6 1.6l-4.4 2.5-4.6-2.6c1.1-.9 2.7-1.5 4.4-1.5z" class="st0"/><path d="M9.7 199.6 4 202.8c-.4-.7-.7-1.5-.7-2.3 0-1.4.7-2.6 1.8-3.5l4.6 2.6zM.2 194.3 5 197c-1.1.9-1.8 2.1-1.8 3.5 0 .8.2 1.6.7 2.3l-3.8 2.1.1-10.6z" class="st0"/><path d="M212.4 177.4H.2v-50.6h269.2v50.6h-45.7z" class="st2"/><path d="M.2 182.4h40.1L14 197.2c-1.1-1-2.8-1.6-4.6-1.6s-3.3.6-4.4 1.5l-4.8-2.7v-12z" class="st0"/><path d="M269.4 211.4H.2M.2 121.1h269.2M.2 126.8h269.2M265.4 177.4h4M223.7 177.4h30.4M182 177.4h30.4M140.3 177.4h30.4M98.6 177.4H129M56.8 177.4h30.5M15.1 177.4h30.5M.2 177.4h3.7M265.4 182.4h4M223.7 182.4h30.4M182 182.4h30.4M140.3 182.4h30.4M98.6 182.4H129M56.8 182.4h30.5M15.1 182.4h30.5M.2 182.4h3.7M72.3 211.4l15.3-8.6 5.7-3.2 4.4-2.4 26.2-14.8" class="st3"/><path d="m114.3 211.4-15.6-8.7-5.4-3.1-4.6-2.6-26.1-14.6M139 200.5c0 2.8-2.2 5-5 5s-5-2.2-5-5 2.2-5 5-5 5 2.3 5 5zM223.4 200.5c0 2.8-2.2 5-5 5s-5-2.2-5-5 2.2-5 5-5 5 2.3 5 5z" class="st3"/><path d="M97.7 197.2c1 .9 1.6 2.1 1.6 3.4 0 .8-.2 1.5-.6 2.1-1 1.7-3.1 2.9-5.6 2.9s-4.5-1.1-5.5-2.7c-.4-.7-.7-1.5-.7-2.3 0-1.4.7-2.6 1.8-3.5 1.1-.9 2.7-1.5 4.4-1.5 1.8-.1 3.4.6 4.6 1.6zM.2 204.9l3.8-2.1 5.7-3.2 4.4-2.4 26.2-14.8" class="st3"/><path d="m30.7 211.4-15.6-8.7-5.4-3.1-4.6-2.6-4.9-2.7" class="st3"/><path d="M14.1 197.2c1 .9 1.6 2.1 1.6 3.4 0 .8-.2 1.5-.6 2.1-1 1.7-3.1 2.9-5.6 2.9S5 204.5 4 202.8c-.4-.7-.7-1.5-.7-2.3 0-1.4.7-2.6 1.8-3.5 1.1-.9 2.7-1.5 4.4-1.5 1.8 0 3.5.7 4.6 1.7zM155.6 211.4l15.4-8.6 5.7-3.2 4.3-2.4 26.3-14.8" class="st3"/><path d="m197.7 211.4-15.6-8.7-5.4-3.1-4.7-2.6-26-14.6" class="st3"/><path d="M181 197.2c1 .9 1.6 2.1 1.6 3.4 0 .8-.2 1.5-.6 2.1-1 1.7-3.1 2.9-5.6 2.9s-4.5-1.1-5.5-2.7c-.4-.7-.7-1.5-.7-2.3 0-1.4.7-2.6 1.8-3.5 1.1-.9 2.7-1.5 4.4-1.5 1.9-.1 3.5.6 4.6 1.6zM239 211.4l15.4-8.6 5.6-3.2 4.4-2.4 5-2.8" class="st3"/><path d="m269.4 204.9-3.9-2.2-5.5-3.1-4.6-2.6-26-14.6" class="st3"/><path d="M264.4 197.2c1 .9 1.6 2.1 1.6 3.4 0 .8-.2 1.5-.6 2.1-1 1.7-3.1 2.9-5.6 2.9s-4.5-1.1-5.5-2.7c-.4-.7-.7-1.5-.7-2.3 0-1.4.7-2.6 1.8-3.5 1.1-.9 2.7-1.5 4.4-1.5 1.9-.1 3.5.6 4.6 1.6zM54.1 200.5c0 2.8-2.2 5-5 5s-5-2.2-5-5 2.2-5 5-5 5 2.3 5 5zM3.9 177.4h11.3v5H3.9zM45.6 177.4h11.3v5H45.6zM87.3 177.4h11.3v5H87.3zM129 177.4h11.3v5H129zM170.7 177.4H182v5h-11.3zM212.4 177.4h11.3v5h-11.3zM254.1 177.4h11.3v5h-11.3z" class="st3"/><path d="M.2 177.4h3.6v5H.2zM269.4 204.9v6.6H239l15.3-8.6c1 1.6 3.1 2.7 5.5 2.7s4.6-1.2 5.6-2.9l4 2.2z" class="st0"/><path d="M269.4 194.4v10.5l-4-2.2c.4-.6.6-1.4.6-2.1 0-1.3-.6-2.5-1.6-3.4l5-2.8z" class="st0"/><path d="M269.4 182.4v12l-5 2.8c-1.1-1-2.8-1.6-4.6-1.6s-3.3.6-4.4 1.5l-26-14.6h40zM269.4 121.1v5.7H.2v-5.7zM265.4 177.4h4v5h-4z" class="st0"/><path d="M266 200.5c0 .8-.2 1.5-.6 2.1l-5.4-3 4.4-2.5c1 1 1.6 2.1 1.6 3.4z" class="st0"/><path d="m260 199.6 5.4 3c-1 1.7-3.1 2.9-5.6 2.9s-4.5-1.1-5.5-2.7l5.7-3.2z" class="st0"/><path d="M254.1 177.4h11.3v5h-11.3z" class="st1"/><path d="m264.4 197.2-4.4 2.5-4.6-2.6c1.1-.9 2.7-1.5 4.4-1.5 1.9-.1 3.5.6 4.6 1.6z" class="st0"/><path d="m260 199.6-5.7 3.2c-.4-.7-.7-1.5-.7-2.3 0-1.4.7-2.6 1.8-3.5l4.6 2.6z" class="st0"/><path d="m229.4 182.4 26 14.6c-1.1.9-1.8 2.1-1.8 3.5 0 .8.2 1.6.7 2.3l-15.3 8.6h-41.4l-15.6-8.8c.4-.6.6-1.4.6-2.1 0-1.3-.6-2.5-1.6-3.4l26.3-14.8h22.1v.1zm-6 18.1c0-2.8-2.2-5-5-5s-5 2.2-5 5 2.2 5 5 5 5-2.2 5-5z" class="st0"/><path d="M254.1 182.4h-30.4v-5h30.4z" class="st0"/><path d="M212.4 177.4h11.3v5h-11.3zM218.4 195.5c2.8 0 5 2.2 5 5s-2.2 5-5 5-5-2.2-5-5 2.3-5 5-5z" class="st1"/><path d="M207.3 182.4 181 197.2c-1.1-1-2.8-1.6-4.6-1.6s-3.3.6-4.4 1.5l-26-14.6h61.3zM182 182.4v-5h30.4v5h-5.1zM197.7 211.4h-42l15.3-8.6c1 1.6 3.1 2.7 5.5 2.7s4.6-1.2 5.6-2.9l15.6 8.8z" class="st0"/><path d="M182.6 200.5c0 .8-.2 1.5-.6 2.1l-5.4-3 4.4-2.5c1 1 1.7 2.1 1.6 3.4z" class="st0"/><path d="m176.7 199.6 5.4 3c-1 1.7-3.1 2.9-5.6 2.9s-4.5-1.1-5.5-2.7l5.7-3.2z" class="st0"/><path d="M170.7 177.4H182v5h-11.3z" class="st1"/><path d="M176.5 195.5c1.8 0 3.4.6 4.6 1.6l-4.4 2.5-4.7-2.6c1.2-.9 2.7-1.5 4.5-1.5z" class="st0"/><path d="m176.7 199.6-5.7 3.2c-.4-.7-.7-1.5-.7-2.3 0-1.4.7-2.6 1.8-3.5l4.6 2.6z" class="st0"/><path d="m146 182.4 26 14.6c-1.1.9-1.8 2.1-1.8 3.5 0 .8.2 1.6.7 2.3l-15.3 8.6h-41.4l-15.6-8.8c.4-.6.6-1.4.6-2.1 0-1.3-.6-2.5-1.6-3.4l26.3-14.8H146v.1zm-7 18.1c0-2.8-2.2-5-5-5s-5 2.2-5 5 2.2 5 5 5 5-2.2 5-5z" class="st0"/><path d="M170.7 182.4h-30.4v-5h30.4z" class="st0"/><path d="M129 177.4h11.3v5H129zM134 195.5c2.8 0 5 2.2 5 5s-2.2 5-5 5-5-2.2-5-5 2.2-5 5-5z" class="st1"/><path d="m123.9 182.4-26.3 14.8c-1.1-1-2.8-1.6-4.6-1.6s-3.3.6-4.4 1.5l-26-14.6c0-.1 61.3-.1 61.3-.1zM129 182.4H98.6v-5H129zM114.3 211.4h-42l15.3-8.6c1 1.6 3.1 2.7 5.5 2.7s4.6-1.2 5.6-2.9l15.6 8.8z" class="st0"/><path d="M99.3 200.5c0 .8-.2 1.5-.6 2.1l-5.4-3 4.4-2.5c1 1 1.6 2.1 1.6 3.4z" class="st0"/><path d="m93.3 199.6 5.4 3c-1 1.7-3.1 2.9-5.6 2.9s-4.5-1.1-5.5-2.7l5.7-3.2z" class="st0"/><path d="M87.3 177.4h11.3v5H87.3z" class="st1"/><path d="M93.1 195.5c1.8 0 3.4.6 4.6 1.6l-4.4 2.5-4.6-2.6c1.1-.9 2.6-1.5 4.4-1.5z" class="st0"/><path d="m93.3 199.6-5.7 3.2c-.4-.7-.7-1.5-.7-2.3 0-1.4.7-2.6 1.8-3.5l4.6 2.6z" class="st0"/><path d="m62.6 182.4 26 14.6c-1.1.9-1.8 2.1-1.8 3.5 0 .8.2 1.6.7 2.3l-15.3 8.6H30.7l-15.6-8.8c.4-.6.6-1.4.6-2.1 0-1.3-.6-2.5-1.6-3.4l26.3-14.8c-.1.1 22.2.1 22.2.1zm-8.5 18.1c0-2.8-2.2-5-5-5s-5 2.2-5 5 2.2 5 5 5 5-2.2 5-5z" class="st0"/><path d="M87.3 182.4H56.8v-5h30.5z" class="st0"/><path d="M45.6 177.4h11.3v5H45.6zM49.1 195.5c2.8 0 5 2.2 5 5s-2.2 5-5 5-5-2.2-5-5 2.2-5 5-5z" class="st1"/><path d="M45.6 182.4H15.1v-5h30.5zM30.7 211.4H.2v-6.5l3.8-2.1c1 1.6 3.1 2.7 5.5 2.7s4.6-1.2 5.6-2.9l15.6 8.8zM15.7 200.5c0 .8-.2 1.5-.6 2.1l-5.4-3 4.4-2.5c1 1 1.6 2.1 1.6 3.4z" class="st0"/><path d="M3.9 177.4h11.3v5H3.9z" class="st1"/><path d="m9.7 199.6 5.4 3c-1 1.7-3.1 2.9-5.6 2.9s-4.5-1-5.5-2.7l5.7-3.2zM9.5 195.5c1.8 0 3.4.6 4.6 1.6l-4.4 2.5-4.6-2.6c1.1-.9 2.7-1.5 4.4-1.5z" class="st0"/><path d="M9.7 199.6 4 202.8c-.4-.7-.7-1.5-.7-2.3 0-1.4.7-2.6 1.8-3.5l4.6 2.6zM.2 194.3 5 197c-1.1.9-1.8 2.1-1.8 3.5 0 .8.2 1.6.7 2.3l-3.8 2.1.1-10.6z" class="st0"/><path d="M212.4 177.4H.2v-50.6h269.2v50.6h-45.7z" class="st2"/><path d="M.2 182.4h40.1L14 197.2c-1.1-1-2.8-1.6-4.6-1.6s-3.3.6-4.4 1.5l-4.8-2.7v-12z" class="st0"/><path d="M269.4 211.4H.2M.2 121.1h269.2M.2 126.8h269.2M265.4 177.4h4M223.7 177.4h30.4M182 177.4h30.4M140.3 177.4h30.4M98.6 177.4H129M56.8 177.4h30.5M15.1 177.4h30.5M.2 177.4h3.7M265.4 182.4h4M223.7 182.4h30.4M182 182.4h30.4M140.3 182.4h30.4M98.6 182.4H129M56.8 182.4h30.5M15.1 182.4h30.5M.2 182.4h3.7M72.3 211.4l15.3-8.6 5.7-3.2 4.4-2.4 26.2-14.8" class="st3"/><path d="m114.3 211.4-15.6-8.7-5.4-3.1-4.6-2.6-26.1-14.6M139 200.5c0 2.8-2.2 5-5 5s-5-2.2-5-5 2.2-5 5-5 5 2.3 5 5zM223.4 200.5c0 2.8-2.2 5-5 5s-5-2.2-5-5 2.2-5 5-5 5 2.3 5 5z" class="st3"/><path d="M97.7 197.2c1 .9 1.6 2.1 1.6 3.4 0 .8-.2 1.5-.6 2.1-1 1.7-3.1 2.9-5.6 2.9s-4.5-1.1-5.5-2.7c-.4-.7-.7-1.5-.7-2.3 0-1.4.7-2.6 1.8-3.5 1.1-.9 2.7-1.5 4.4-1.5 1.8-.1 3.4.6 4.6 1.6zM.2 204.9l3.8-2.1 5.7-3.2 4.4-2.4 26.2-14.8" class="st3"/><path d="m30.7 211.4-15.6-8.7-5.4-3.1-4.6-2.6-4.9-2.7" class="st3"/><path d="M14.1 197.2c1 .9 1.6 2.1 1.6 3.4 0 .8-.2 1.5-.6 2.1-1 1.7-3.1 2.9-5.6 2.9S5 204.5 4 202.8c-.4-.7-.7-1.5-.7-2.3 0-1.4.7-2.6 1.8-3.5 1.1-.9 2.7-1.5 4.4-1.5 1.8 0 3.5.7 4.6 1.7zM155.6 211.4l15.4-8.6 5.7-3.2 4.3-2.4 26.3-14.8" class="st3"/><path d="m197.7 211.4-15.6-8.7-5.4-3.1-4.7-2.6-26-14.6" class="st3"/><path d="M181 197.2c1 .9 1.6 2.1 1.6 3.4 0 .8-.2 1.5-.6 2.1-1 1.7-3.1 2.9-5.6 2.9s-4.5-1.1-5.5-2.7c-.4-.7-.7-1.5-.7-2.3 0-1.4.7-2.6 1.8-3.5 1.1-.9 2.7-1.5 4.4-1.5 1.9-.1 3.5.6 4.6 1.6zM239 211.4l15.4-8.6 5.6-3.2 4.4-2.4 5-2.8" class="st3"/><path d="m269.4 204.9-3.9-2.2-5.5-3.1-4.6-2.6-26-14.6" class="st3"/><path d="M264.4 197.2c1 .9 1.6 2.1 1.6 3.4 0 .8-.2 1.5-.6 2.1-1 1.7-3.1 2.9-5.6 2.9s-4.5-1.1-5.5-2.7c-.4-.7-.7-1.5-.7-2.3 0-1.4.7-2.6 1.8-3.5 1.1-.9 2.7-1.5 4.4-1.5 1.9-.1 3.5.6 4.6 1.6zM54.1 200.5c0 2.8-2.2 5-5 5s-5-2.2-5-5 2.2-5 5-5 5 2.3 5 5zM3.9 177.4h11.3v5H3.9zM45.6 177.4h11.3v5H45.6zM87.3 177.4h11.3v5H87.3zM129 177.4h11.3v5H129zM170.7 177.4H182v5h-11.3zM212.4 177.4h11.3v5h-11.3zM254.1 177.4h11.3v5h-11.3z" class="st3"/></g><g id="_レイヤー_2"><path d="M73.2 129.8c-2.9 1.8-5.3 3.6-6.8 5.7-3.8 5.3-7.2 11.7-5.9 17.2h-.2s-24-1-34.3-.1c-10.3.9-9.1.8-9.1-1.4s14.4-33.8 17.1-37.6c1.6-2.3 3.2-4.3 5-5.3 1.3-.5 2-.9 3.5 2.5v.1c.2.4.3.8.5 1.3 1.8 4.9 2.5 14.3 4.4 14.7.9.3 17.7 4.8 25.8 2.9z" class="st4"/><path d="M88.7 94.7c-.9 2-1.6 3.5-1.8 4-1.2 2.2.2 13.6.9 17.5s.7 4.9.7 4.9c-5.1 3.3-10.8 6-15.2 8.8l-.1-.1c-8 2-24.8-2.6-25.7-2.8 1.5.1 5.5-9 9.3-14.4 1.1-1.6 2.2-2.9 3.3-3.6.2-.1.4-.2.7-.3 1.5-.7 3.5-1.8 5.1-3.1 2.9-2.4 9.7-13.2 9.7-13.2l12.9 2.3c0-.1.2 0 .2 0z" class="st4"/><path d="M48.8 118.3c2.4-.6 7-4.5 8-5.8-3.8 5.4-7.8 14.6-9.3 14.4-1.9-.4-2.7-9.8-4.4-14.7-.2-.5-.3-.9-.5-1.3 2.4 4.9 3.8 8.1 6.2 7.4z" class="st4"/><path d="M58.5 109.6s.6-.2 1.5-.7c-1 .6-2.1 1.9-3.3 3.6-1 1.3-5.5 5.2-8 5.8-2.4.6-3.8-2.6-6.3-7.3v-.1c-1.4-3.4-2.1-3-3.5-2.5 1.2-.7 2.6-1 4.1-.6 4 .9 6.6 0 15.5 1.8z" class="st1"/><path d="M184.1 124.5c1.6-.8 3.1-1.7 3.2-1.7l1.2.9c5.3 1.6 16.2 2.7 27 7.6 10.8 4.9 12.8 5.5 20.7 7.7 0 2.5-6.5 6.3-11.3 5.7-3.3-.5-9.6 1.8-9.6 1.8-12.1-3.5-20.2-15.9-31.2-22z" class="st5"/><path d="M160.5 60.9c3.1.6 10.7 4.3 15.7 7.9 5 3.7 12.3 11.9 17.5 18.7 2.4 3.2 4.9 4.6 7 5.4l-1.1 1.4-.1-.1c-4.2-3.4-9.9-1.7-14.2.7-4.6 2.5-5.9 6.1-7.2 11-.1.5-.2 1.1-.3 1.9h-1.4c-.7-3.7-4-11.2-5.1-14.6-1.1-3.3-10.4-23.8-14.3-31.5l-.1-.1c.6-.7 1-1.1 1.1-1.1.8.2 1.7.3 2.5.4z" class="st1"/><path d="M177.3 117.9c0-2.5.1-7.1.4-10 .1-.8.2-1.5.3-1.9 1.3-4.9 2.6-8.5 7.2-11 4.4-2.4 10-4.1 14.2-.7l.1.1 1.1-1.4c2.4.9 4.3.9 5.1 1.5 1.5 1.2 12.6 10 18.2 12.9 5.6 2.9 8.6 9.4 9.8 13.3 1.2 4 2.4 15.9 2.4 18.4-8-2.2-9.9-2.9-20.7-7.7s-21.7-6-27-7.6l-1.2-.9c-2.7-2.1-5.3-4.2-7.1-5.2-1.4-.9-2.5-1-2.8.2z" class="st1"/><path d="m168.9 121.7.6.3c-1.8 1.8-3 4.5-3.8 5.2-.7.6-3 2.1-3.9 2.9l-.4-.5-5.1-1.7c-1.9 0-2.7.6-5.3 2.3-.3-2.4-.2-7.1-.3-10.2l3 .7c7-3.6 10.1-2.4 15.1-1.8v.2c-1.5.1-2.9.5-3.7 1.1-1.4 1.1-3.1 2.8-.9 2.2 2.1-.5 4.1-1 4.7-.7z" class="st6"/><path d="M171.4 130.1c-1 .6-3.1.8-5 .9-1.4.1-2.5.1-2.8.2-.4.1-.9 0-1.4-.1-.4-.1-.7-.4-.7-.6l.3-.3c.9-.8 3.3-2.3 3.9-2.9.8-.7 2-3.4 3.8-5.2l-.6-.3c-.6-.3-2.6.2-4.7.8-2.1.6-.5-1 .9-2.2.8-.6 2.2-1 3.7-1.1 1.2-.1 2.4 0 3.5.3 2.5.7 3.2.4 4.2.3 1.5.1 3.2-1.8 3.6-2.2 1.9 1 4.4 3.1 7.1 5.2-.1.1-1.6.9-3.2 1.7-1.6.8-3.4 1.6-4.1 1.6-1.5-.1-6.8 3-8.5 3.9z" class="st6"/><path d="M169.8 171.8c-.6 4-2.1 3.1-5.9-.6-1-3.9-1.8-4.6-5.6-6.8-1.1-.6-2.2-1.6-3.3-2.8-2.8-3-5.2-7.5-5-10.4h-1.1c.8-.9 1.5-1.6 2.2-2 3.5-2.5 11.1-10.2 11.1-10.2-2.2 5.1-2.9 10.3 0 12.8 2.9 2.4 19.3 7.5 25.6 7.4-3.3.2-6.2.4-8.1.4-4.9 0-9.9 2.4-9.9 2.4s.6 5.8 0 9.8z" class="st4"/><path d="M179.9 126.1c.8 0 2.5-.8 4.1-1.6 11 6 19.1 18.5 31.3 21.9 0 0-1.3 6.4-1.8 10.4-.4 4-4.4 4-11.1 2.6-4-.8-9.7-.6-14.6-.4h-.1c-6.4.1-22.7-4.9-25.6-7.4-2.9-2.4-2.2-7.6 0-12.8 0 0-7.7 7.8-11.1 10.2-.6.5-1.4 1.2-2.2 2-1.5 1.6-3.2 3.8-5.1 6.1-2.6 3.1-5.5 6.3-8.8 8.8 0 0-6.9 4.1-8.6 5.9-1.6 1.8-6.9 3.5-9.4 2.8-2.5-.7-4.2-4.1-13.3-10.9 0 0-1.4 1.6-7.1 4.4-5 .8-10.1.3-14.7-1.1 4.8 1 26.5-6.9 30.9-10.6 2.7-2.3 2.6-3.5 2-4.1 2.1-.6 6.2-1.8 11-3.5 8.9-6.5 25.2-15.3 25.7-17.4-.2-.2-.3-.8-.4-1.6 2.6-1.7 3.4-2.3 5.3-2.3l5.1 1.7.4.5-.3.3c0 .3.3.5.7.6.4.1 1 .2 1.4.1.3-.1 1.5-.1 2.8-.2 1.8-.1 4-.3 5-.9 1.7-.5 6.9-3.6 8.5-3.5z" class="st1"/><path d="M155.1 161.7c-2.6-.5-6.1 2-7.4 3.4-.5-2.8-2-6-3.9-7.8 1.9-2.3 3.6-4.5 5.1-6.1h1.1c-.1 3.1 2.3 7.5 5.1 10.5z" class="st4"/><path d="M145.5 172.1c-1.8 2.1-3.8 1.5-4.7-1-.9-2.5-5.8-4.9-5.8-4.9 3.3-2.5 6.2-5.8 8.8-8.8 1.9 1.7 3.4 5 3.9 7.8.3 1.7.2 3.2-.5 4 0 0 .1.8-1.7 2.9z" class="st4"/><path d="M135.9 38.1c-1.2-3.3.9-5.4 2.3-5.1 1.4.3 2.7 2.1 4.2 4.9.6-.4 2.8-11 4.9-17.1.5 1.3 9.3 2.8 12.5 3.1.5 1.4.9 4.1 1.2 7.3.2 2.1.3 4.3.4 6.4.1 4.4-.1 8.5-.7 10-1.3 3.5-5.4 10-7.7 12.5-.8.9-2.2.9-3.8.6l-.1.2c-1.1.8-6.8 2.8-9.5 2.2-4.1-.9-11-8.7-11-8.7l3-4.7c1.1-1.2 5.9-3.1 8-3.1 0 0 .3-.7.1-1.8-1.9 0-2.5-3.3-3.8-6.7z" class="st6"/><path d="M122.9 56c2-.6 3.9-1.1 5.7-1.5 0 0 6.9 7.8 11 8.7 2.7.6 8.4-1.3 9.5-2.2l.1-.2c1.5.4 2.9.3 3.8-.6 0 0 2.4.1 4.9.4-.1.1-.4.5-1.1 1.1-1.2 1.3-3.2 3.4-5.4 5.5-3.4 3.3-10.8 3.3-15 1.4s-11.8-9.6-14.7-12.2c.4-.2.8-.3 1.2-.4z" class="st1"/><path d="M172.4 119.5c-1.1-.3-2.3-.4-3.5-.3v-.2c-5-.7-8.1-1.8-15.1 1.8l-3-.7c0 3.1 0 7.7.3 10.1.1.8.2 1.4.4 1.6-.4 2.1-16.7 10.9-25.7 17.4-4.8 1.7-8.9 2.9-11 3.5-.4-.4-.9-.5-1.1-.5-1.7.1 0 0-5.8 2-5.7 2-32.9 4-45.7 1.5-.9-1.1-1.4-2.1-1.6-2.9-1.3-5.5 2.1-11.9 5.9-17.2 1.5-2.1 3.9-3.9 6.8-5.7 4.5-2.8 10.1-5.5 15.2-8.8 0 0 0-1-.7-4.9s-2.1-15.3-.9-17.5c.3-.6 1-2 1.8-4 2.6-5.9 6.9-16.2 8.5-19.8 2.2-4.9 3.9-8.5 10.2-12.3 4.2-2.5 9.2-4.6 14.1-6.2.1 0 .1 0 .2-.1 2.9 2.6 10.5 10.2 14.7 12.2s11.6 1.9 15-1.4c2.2-2.1 4.2-4.2 5.4-5.5l.1.1c3.9 7.6 13.2 28.1 14.3 31.5 1.1 3.4 4.4 10.9 5.1 14.6h1.4c-.3 2.9-.4 7.5-.4 10 .3-1.2 1.4-1.1 2.8-.3-.4.5-2 2.3-3.6 2.2-.9.2-1.7.5-4.1-.2z" class="st1"/><path d="M133.3 21.4c-2.1 7.1-10.4 34.5-10.4 34.5-.4.1-.8.2-1.2.4-.1 0-.1 0-.2.1 0 0 9.7-37.9 11.3-41.3 1.5-3.4 4.3-10.9 8.8-9.7 4.5 1.3 6.6 3 6.6 3 1.8-2 7.4-6 9.4-7.3 2-1.3 4.1-.6 3.1 1.7-2.1 2.7-6 7.2-6 7.2l.9 1.3h4.4v1.2h-3c2.6 2.6 6 8 6 8.8s-.7 2.7-2.2 2.7c-.2 0-.6 0-1-.1-3.2-.4-12-1.8-12.5-3.1-2.1 6.1-4.3 16.7-4.9 17.1-1.5-2.9-2.8-4.6-4.2-4.9-1.4-.3-3.5 1.8-2.3 5.1 1.3 3.3 1.9 6.6 3.9 6.6.1 1.2-.1 1.8-.1 1.8-2.1 0-6.9 1.9-8 3.1-.2-3 2.9-17.8 3.5-21 .7-3.2 5.1-11.4 7-12.6.2-.6 0-1.1 0-1.1h-2.7v-2.4h4.5s.9-1.5 1.6-1.7c-1.7-1.8-3.5-2.8-3.8-2.9-.3-.2-.8-.8-2 .7-1.3 1.7-4.4 5.7-6.5 12.8z" class="st1"/><path d="M62.2 155.7c12.7 2.5 39.9.5 45.7-1.5 5.8-2 4.1-1.9 5.8-2 .2 0 .7.1 1.1.5.6.6.7 1.8-2 4.1-4.3 3.7-26.1 11.6-30.9 10.6-.1 0-.2 0-.3-.1-8.7-2.5-16.2-7.6-19.4-11.6z" class="st5"/><path d="M121.5 56.4s9.7-37.9 11.3-41.3c1.5-3.4 4.3-10.9 8.8-9.7 4.5 1.3 6.6 3 6.6 3 1.8-2 7.4-6 9.4-7.3 2-1.3 4.1-.6 3.1 1.7-2.1 2.7-6 7.2-6 7.2l.9 1.3h4.4v1.2h-3c2.6 2.6 6 8 6 8.8s-.7 2.7-2.2 2.7c-.2 0-.6 0-1-.1-3.2-.4-12-1.8-12.5-3.1-2.1 6.1-4.3 16.7-4.9 17.1-1.5-2.9-2.8-4.6-4.2-4.9-1.4-.3-3.5 1.8-2.3 5.1 1.3 3.3 1.9 6.6 3.9 6.6.1 1.2-.1 1.8-.1 1.8-2.1 0-6.9 1.9-8 3.1-.2-3 2.9-17.8 3.5-21 .7-3.2 5.1-11.4 7-12.6.2-.6 0-1.1 0-1.1h-2.7v-2.4h4.5s.9-1.5 1.6-1.7c-1.7-1.8-3.5-2.8-3.8-2.9-.3-.2-.8-.8-2 .7-1.3 1.6-4.3 5.6-6.4 12.7-2.1 7.1-10.4 34.5-10.4 34.5M161 31.2c.2 2 .3 4.3.4 6.4.1 4.4-.1 8.5-.7 10-1.3 3.5-5.4 10-7.7 12.5-.8.9-2.2.9-3.8.6-2.7-.6-5.8-2.5-6.9-3.3" class="st7"/><path d="M159.8 24c.5 1.4.9 4.1 1.2 7.3M131.7 49.7l-3 4.7s6.9 7.8 11 8.7c2.7.6 8.4-1.3 9.5-2.2M149.2 37.4s3.4-.1 4.1.2M158.5 37.7s2.1-.2 2.8 0c0 0 0 0 0 0M155.9 45.7v1c0 .4 2.1 1.3 2.9.8.9-.5.5.2 1.1-.9.5-1-.1-5-.1-5M154.9 51s2.8-.2 3.1 0M146.7 30.2l5.6 1.4" class="st7"/><path d="m159.3 31.9 1.7-.7h0l.8-.3M187.9 159.1c4.9-.3 10.6-.4 14.6.4 6.6 1.3 10.6 1.3 11.1-2.6s1.8-10.4 1.8-10.4 6.3-2.2 9.6-1.8c4.8.6 11.3-3.2 11.3-5.7s-1.3-14.4-2.4-18.3c-1.2-4-4.1-10.4-9.8-13.3-5.6-2.9-16.8-11.8-18.2-12.9-.8-.6-2.7-.6-5.1-1.5-2.1-.8-4.6-2.2-7-5.4-5.2-6.8-12.5-15-17.5-18.7-5-3.7-12.6-7.3-15.7-7.9-.8-.2-1.7-.3-2.6-.4-2.5-.3-4.9-.4-4.9-.4M163.9 171.2c3.8 3.7 5.3 4.6 5.9.6.6-4 0-9.9 0-9.9s5.1-2.4 9.9-2.4c1.9 0 4.9-.2 8.1-.4M81.9 167.4c4.7 1.3 9.7 1.9 14.7 1.1 5.6-2.9 7.1-4.4 7.1-4.4 9.2 6.8 10.8 10.1 13.3 10.9 2.5.7 7.8-1 9.4-2.8 1.6-1.8 8.6-5.9 8.6-5.9s4.9 2.4 5.8 4.9c.9 2.5 2.9 3.1 4.7 1 1.8-2.1 1.7-2.9 1.7-2.9M128.7 54.4c-1.8.4-3.7.9-5.7 1.5-.4.1-.8.2-1.2.4-.1 0-.1 0-.2.1-4.8 1.6-9.9 3.7-14.1 6.2-6.3 3.8-8 7.4-10.2 12.3-1.7 3.6-6 13.9-8.5 19.8-.9 2-1.6 3.5-1.8 4-1.2 2.2.2 13.6.9 17.5s.7 4.9.7 4.9c-5.1 3.3-10.8 6-15.2 8.8-2.9 1.8-5.3 3.6-6.8 5.7-3.8 5.3-7.2 11.7-5.9 17.2 0 0 0 0 0 0 .2.8.8 1.8 1.6 2.9 3.2 4 10.6 9.2 19.4 11.7" class="st7"/><path d="M177.3 119.1c-.1-.1 0 .2 0-1.2 0-2.5.1-7.1.4-10 .1-.8.2-1.5.3-1.9 1.3-4.9 2.6-8.5 7.2-11 4.4-2.4 10-4.1 14.2-.7l.1.1c3.9 3.2 7.4 6.9 11.2 10.4 4.1 3.7 8.8 8.6 14.2 10.1" class="st8"/><path d="M215.4 146.5c-12.1-3.5-20.3-15.9-31.3-21.9M187.3 122.8c-2.7-2.1-5.3-4.2-7.1-5.2-1.5-.8-2.5-.9-2.8.3M236.2 139c-8-2.2-9.9-2.9-20.7-7.7s-21.7-6-27-7.6l-1.2-.9M62.2 155.7c12.7 2.5 39.9.5 45.7-1.5 5.8-2 4.1-1.9 5.8-2 .2 0 .7.1 1.1.5.6.6.7 1.8-2 4.1-4.3 3.7-26.1 11.6-30.9 10.6-.1 0-.2 0-.3-.1" class="st7"/><path d="M114.8 152.7c2.1-.6 6.2-1.8 11-3.5 11.2-3.8 26.4-10 30.6-15.8M104.9 101.3s17.8 7.5 25.2 8.3M110.8 70.3s22.8 32.9 24.7 39.4M123.8 67.2s12.4 25.6 14.2 33c1.8 7.4 2.6 9.4 2.6 9.4M150.1 72.8s13.1 21.7 13 41M121.7 56.3c2.9 2.6 10.5 10.2 14.7 12.2s11.6 1.9 15-1.4c2.2-2.1 4.2-4.2 5.4-5.5.6-.7 1-1.1 1.1-1.1h0M156.9 61.8c3.9 7.6 13.2 28.1 14.3 31.5 1.1 3.4 4.4 10.9 5.1 14.6M177.3 75s3.3 22.4 2.7 24.8" class="st8"/><path d="M125.8 149.3c9-6.5 25.2-15.3 25.7-17.4-.2-.2-.3-.8-.4-1.6-.3-2.4-.2-7.1-.3-10.2 0-1.2 0-2.2-.1-2.7-.2-2.3-5.5-2.2-5.5-2.2-4.5.2-12.9.1-23.3 5.5-14 12.2-30.8 11.1-31.2 11.1" class="st8"/><path d="M151.1 130.3c2.6-1.7 3.4-2.3 5.3-2.3l5.1 1.7M168.9 119.1c-5-.7-8.1-1.8-15.1 1.8 0 0-.1 0-.1.1" class="st7"/><path d="M162.2 131.1c.4.1 1 .2 1.4.1.3-.1 1.5-.1 2.8-.2 1.8-.1 4-.3 5-.9 1.7-.9 7-4.1 8.6-4 .8 0 2.5-.8 4.1-1.6 1.6-.8 3.1-1.7 3.2-1.7M180.2 117.5c-.5.6-2.1 2.4-3.6 2.3-1 .1-1.8.3-4.2-.3-1.1-.3-2.3-.4-3.5-.3-1.5.1-2.9.5-3.7 1.1-1.4 1.1-3.1 2.8-.9 2.2 2.1-.6 4.1-1.1 4.7-.8l.6.3c-1.8 1.8-3 4.5-3.8 5.2-.7.6-3 2.1-3.9 2.9l-.3.3c0 .3.3.5.7.6" class="st3"/><path d="M162.2 131.1c1.5-.2 7.2-3.7 7.4-4.2M166.4 131c1-.4 3.1-1.4 4.1-2.5" class="st3"/><path d="m154 120.9-.2-.1-3-.6h-.1" class="st7"/><path d="M150.1 151.3c-.2 2.9 2.2 7.4 5 10.4 1.1 1.2 2.2 2.2 3.3 2.8 3.8 2.1 4.6 2.9 5.6 6.8M147.2 169.2c.6-.9.8-2.3.5-4-.5-2.8-2-6-3.9-7.8" class="st3"/><path d="M135 166.2c3.3-2.5 6.2-5.8 8.8-8.8 1.9-2.3 3.6-4.5 5.1-6.1.8-.9 1.5-1.6 2.2-2 3.5-2.5 11.1-10.2 11.1-10.2-2.2 5.1-2.9 10.3 0 12.8 2.9 2.4 19.3 7.5 25.6 7.4h.1" class="st3"/><path d="M147.7 165.1c1.3-1.4 4.8-3.9 7.4-3.4" class="st3"/><path d="M103.7 84.8s20.8 14.2 23.6 19.5M107.6 75s7.6 11.6 7.9 13.4" class="st9"/><path d="M60 108.9c-.9.4-1.5.7-1.5.7-8.8-1.8-11.5-.9-15.3-1.8-1.5-.4-2.9-.1-4.1.6-1.8 1-3.4 3-5 5.3-2.6 3.8-17.1 35.4-17.1 37.6s-1.2 2.3 9.1 1.4 34.3.1 34.3.1M60.7 108.6c-.2.1-.5.2-.7.3M88.5 94.6l-12.9-2.3s-6.8 10.8-9.7 13.2c-1.6 1.3-3.6 2.4-5.1 3.1" class="st3"/><path d="M47.4 126.9c1.5.1 5.5-9 9.3-14.4 1.1-1.6 2.2-2.9 3.3-3.6.2-.1.4-.2.7-.3M42.5 111c.2.4.3.8.5 1.3 1.8 4.9 2.5 14.3 4.4 14.7M39 108.4c1.3-.5 2-.9 3.5 2.5" class="st3"/><path d="M42.5 110.9s0 .1 0 0c2.6 4.8 3.9 8 6.3 7.4 2.4-.6 7-4.5 8-5.8M47.4 126.9c.9.2 17.7 4.8 25.7 2.8" class="st3"/></g></svg>