<?xml version="1.0" encoding="UTF-8"?>
<svg xmlns="http://www.w3.org/2000/svg" viewBox="0 0 269.65 211.95">
  <defs>
    <style>
      .cls-1, .cls-2 {
        stroke: #000;
      }

      .cls-1, .cls-2, .cls-3, .cls-4 {
        fill: none;
      }

      .cls-1, .cls-3 {
        stroke-miterlimit: 10;
      }

      .cls-5 {
        fill: #f3edd7;
      }

      .cls-5, .cls-6, .cls-7, .cls-8, .cls-9, .cls-10 {
        stroke-width: 0px;
      }

      .cls-2, .cls-4 {
        stroke-linecap: round;
        stroke-linejoin: round;
      }

      .cls-6 {
        fill: #333;
      }

      .cls-7 {
        fill: #fed3b0;
      }

      .cls-8 {
        fill: #d2d0b9;
      }

      .cls-3, .cls-4 {
        stroke: #fff;
        stroke-width: .5px;
      }

      .cls-9 {
        fill: #d2d296;
      }

      .cls-10 {
        fill: #ec6c5f;
      }
    </style>
  </defs>
  <g id="_畳" data-name="畳">
    <g>
      <g>
        <g>
          <rect class="cls-5" x=".24" y="177.4" width="3.61" height="5.01"/>
          <path class="cls-5" d="m269.41,204.9v6.55h-30.37l15.31-8.61c1.03,1.61,3.1,2.71,5.5,2.71s4.61-1.18,5.6-2.88l3.96,2.23Z"/>
          <path class="cls-5" d="m269.41,194.37v10.53l-3.96-2.23c.38-.65.59-1.38.59-2.14,0-1.3-.61-2.48-1.61-3.37l4.98-2.8Z"/>
          <path class="cls-5" d="m269.41,182.41v11.96l-4.98,2.8c-1.13-1-2.76-1.64-4.58-1.64s-3.3.58-4.43,1.51l-26.02-14.63h40.01Z"/>
          <polygon class="cls-5" points="269.41 121.08 269.41 126.83 1.13 126.83 .24 126.83 .24 121.08 269.41 121.08"/>
          <rect class="cls-5" x="265.42" y="177.4" width="3.98" height="5.01"/>
          <path class="cls-5" d="m266.04,200.54c0,.76-.21,1.49-.59,2.14l-5.4-3.04,4.38-2.47c1,.89,1.61,2.07,1.61,3.37Z"/>
          <path class="cls-5" d="m260.05,199.64l5.4,3.04c-1,1.7-3.13,2.88-5.6,2.88s-4.47-1.1-5.5-2.71l5.7-3.2Z"/>
          <rect class="cls-6" x="254.15" y="177.4" width="11.28" height="5.01"/>
          <path class="cls-5" d="m264.43,197.17l-4.38,2.47-4.62-2.6c1.13-.93,2.69-1.51,4.43-1.51,1.82,0,3.45.63,4.58,1.64Z"/>
          <path class="cls-5" d="m260.05,199.64l-5.7,3.2c-.44-.68-.69-1.47-.69-2.3,0-1.37.68-2.6,1.77-3.5l4.62,2.6Z"/>
          <path class="cls-5" d="m229.4,182.41l26.02,14.63c-1.09.9-1.77,2.13-1.77,3.5,0,.83.25,1.62.69,2.3l-15.31,8.61h-41.37l-15.61-8.77c.38-.65.59-1.38.59-2.14,0-1.3-.61-2.48-1.61-3.36l26.27-14.77h22.09Zm-5.95,18.13c0-2.76-2.24-5.01-5.01-5.01s-5.01,2.24-5.01,5.01,2.24,5.01,5.01,5.01,5.01-2.24,5.01-5.01Z"/>
          <polygon class="cls-5" points="254.15 182.41 229.4 182.41 223.71 182.41 223.71 177.4 254.15 177.4 254.15 182.41"/>
          <rect class="cls-6" x="212.43" y="177.4" width="11.28" height="5.01"/>
          <path class="cls-6" d="m218.44,195.53c2.76,0,5.01,2.24,5.01,5.01s-2.24,5.01-5.01,5.01-5.01-2.24-5.01-5.01,2.24-5.01,5.01-5.01Z"/>
          <path class="cls-5" d="m207.31,182.41l-26.27,14.77c-1.13-1.01-2.76-1.65-4.58-1.65s-3.3.58-4.43,1.51l-26.02-14.63h61.3Z"/>
          <polygon class="cls-5" points="181.99 182.41 181.99 177.4 212.43 177.4 212.43 182.41 207.31 182.41 181.99 182.41"/>
          <path class="cls-5" d="m197.67,211.45h-42.02l15.31-8.61c1.03,1.61,3.11,2.71,5.5,2.71s4.61-1.18,5.6-2.88l15.61,8.77Z"/>
          <path class="cls-5" d="m182.65,200.54c0,.76-.21,1.49-.59,2.14l-5.4-3.04,4.38-2.46c1,.88,1.61,2.06,1.61,3.36Z"/>
          <path class="cls-5" d="m176.66,199.64l5.4,3.04c-1,1.7-3.13,2.88-5.6,2.88s-4.47-1.1-5.5-2.71l5.7-3.2Z"/>
          <rect class="cls-6" x="170.72" y="177.4" width="11.28" height="5.01"/>
          <path class="cls-5" d="m176.46,195.53c1.82,0,3.45.63,4.58,1.65l-4.38,2.46-4.62-2.6c1.13-.93,2.69-1.51,4.43-1.51Z"/>
          <path class="cls-5" d="m176.66,199.64l-5.7,3.2c-.44-.68-.69-1.47-.69-2.3,0-1.37.68-2.6,1.77-3.5l4.62,2.6Z"/>
          <path class="cls-5" d="m146.01,182.41l26.02,14.63c-1.09.9-1.77,2.13-1.77,3.5,0,.83.25,1.62.69,2.3l-15.31,8.61h-41.37l-15.61-8.77c.38-.65.59-1.38.59-2.14,0-1.3-.61-2.48-1.61-3.36l26.27-14.77h22.09Zm-7,18.13c0-2.76-2.24-5.01-5.01-5.01s-5.01,2.24-5.01,5.01,2.24,5.01,5.01,5.01,5.01-2.24,5.01-5.01Z"/>
          <polygon class="cls-5" points="170.72 182.41 146.01 182.41 140.28 182.41 140.28 177.4 170.72 177.4 170.72 182.41"/>
          <rect class="cls-6" x="129" y="177.4" width="11.28" height="5.01"/>
          <path class="cls-6" d="m134.01,195.53c2.76,0,5.01,2.24,5.01,5.01s-2.24,5.01-5.01,5.01-5.01-2.24-5.01-5.01,2.24-5.01,5.01-5.01Z"/>
          <path class="cls-5" d="m123.92,182.41l-26.27,14.77c-1.13-1.01-2.76-1.65-4.58-1.65s-3.3.58-4.43,1.51l-26.02-14.63h61.3Z"/>
          <polygon class="cls-5" points="129 182.41 123.92 182.41 98.56 182.41 98.56 177.4 129 177.4 129 182.41"/>
          <path class="cls-5" d="m114.28,211.45h-42.02l15.31-8.61c1.03,1.61,3.1,2.71,5.5,2.71s4.61-1.18,5.6-2.88l15.61,8.77Z"/>
          <path class="cls-5" d="m99.26,200.54c0,.76-.21,1.49-.59,2.14l-5.4-3.04,4.38-2.46c1,.88,1.61,2.06,1.61,3.36Z"/>
          <path class="cls-5" d="m93.27,199.64l5.4,3.04c-1,1.7-3.13,2.88-5.6,2.88s-4.47-1.1-5.5-2.71l5.7-3.2Z"/>
          <rect class="cls-6" x="87.29" y="177.4" width="11.28" height="5.01"/>
          <path class="cls-5" d="m93.07,195.53c1.82,0,3.45.63,4.58,1.65l-4.38,2.46-4.62-2.6c1.13-.93,2.69-1.51,4.43-1.51Z"/>
          <path class="cls-5" d="m93.27,199.64l-5.7,3.2c-.44-.68-.69-1.47-.69-2.3,0-1.37.68-2.6,1.77-3.5l4.62,2.6Z"/>
          <path class="cls-5" d="m62.62,182.41l26.02,14.63c-1.09.9-1.77,2.13-1.77,3.5,0,.83.25,1.62.69,2.3l-15.31,8.61H30.7l-15.61-8.77c.38-.65.59-1.38.59-2.14,0-1.3-.61-2.48-1.61-3.36l26.27-14.77h22.28Zm-8.5,18.13c0-2.76-2.24-5.01-5.01-5.01s-5.01,2.24-5.01,5.01,2.24,5.01,5.01,5.01,5.01-2.24,5.01-5.01Z"/>
          <polygon class="cls-5" points="87.29 182.41 62.62 182.41 56.85 182.41 56.85 177.4 87.29 177.4 87.29 182.41"/>
          <rect class="cls-6" x="45.57" y="177.4" width="11.28" height="5.01"/>
          <path class="cls-6" d="m49.11,195.53c2.76,0,5.01,2.24,5.01,5.01s-2.24,5.01-5.01,5.01-5.01-2.24-5.01-5.01,2.24-5.01,5.01-5.01Z"/>
          <polygon class="cls-5" points="45.57 182.41 40.34 182.41 15.13 182.41 15.13 177.4 45.57 177.4 45.57 182.41"/>
          <path class="cls-5" d="m30.7,211.45H.24v-6.5l3.75-2.1c1.03,1.61,3.11,2.71,5.5,2.71s4.61-1.18,5.6-2.88l15.61,8.77Z"/>
          <path class="cls-5" d="m15.69,200.54c0,.76-.21,1.49-.59,2.14l-5.4-3.04,4.38-2.46c1,.88,1.61,2.06,1.61,3.36Z"/>
          <rect class="cls-6" x="3.86" y="177.4" width="11.28" height="5.01"/>
          <path class="cls-5" d="m9.69,199.64l5.4,3.04c-1,1.7-3.13,2.88-5.6,2.88s-4.47-1.1-5.5-2.71l5.7-3.2Z"/>
          <path class="cls-5" d="m9.49,195.53c1.82,0,3.45.63,4.58,1.65l-4.38,2.46-4.62-2.6c1.13-.93,2.69-1.51,4.43-1.51Z"/>
          <path class="cls-5" d="m9.69,199.64l-5.7,3.2c-.44-.68-.69-1.47-.69-2.3,0-1.37.68-2.6,1.77-3.5l4.62,2.6Z"/>
          <path class="cls-5" d="m.24,194.33l4.82,2.71c-1.09.9-1.77,2.13-1.77,3.5,0,.83.25,1.62.69,2.3l-3.75,2.1v-10.62Z"/>
          <polygon class="cls-9" points="212.43 177.4 181.99 177.4 170.72 177.4 140.28 177.4 129 177.4 98.56 177.4 87.29 177.4 56.85 177.4 45.57 177.4 15.13 177.4 3.86 177.4 .24 177.4 .24 126.83 1.13 126.83 269.41 126.83 269.41 177.4 265.42 177.4 254.15 177.4 223.71 177.4 212.43 177.4"/>
          <path class="cls-5" d="m.24,182.41h40.1l-26.27,14.77c-1.13-1.01-2.76-1.65-4.58-1.65s-3.3.58-4.43,1.51l-4.82-2.71v-11.92Z"/>
        </g>
        <g>
          <polyline class="cls-1" points="269.41 211.45 239.04 211.45 197.67 211.45 155.65 211.45 114.28 211.45 72.26 211.45 30.7 211.45 .24 211.45"/>
          <line class="cls-1" x1=".24" y1="121.08" x2="269.41" y2="121.08"/>
          <line class="cls-1" x1=".24" y1="126.83" x2="269.41" y2="126.83"/>
          <line class="cls-1" x1="265.42" y1="177.4" x2="269.41" y2="177.4"/>
          <line class="cls-1" x1="223.71" y1="177.4" x2="254.15" y2="177.4"/>
          <line class="cls-1" x1="181.99" y1="177.4" x2="212.43" y2="177.4"/>
          <line class="cls-1" x1="140.28" y1="177.4" x2="170.72" y2="177.4"/>
          <line class="cls-1" x1="98.56" y1="177.4" x2="129" y2="177.4"/>
          <line class="cls-1" x1="56.85" y1="177.4" x2="87.29" y2="177.4"/>
          <line class="cls-1" x1="15.13" y1="177.4" x2="45.57" y2="177.4"/>
          <line class="cls-1" x1=".24" y1="177.4" x2="3.86" y2="177.4"/>
          <line class="cls-1" x1="265.42" y1="182.41" x2="269.41" y2="182.41"/>
          <polyline class="cls-1" points="223.71 182.41 229.4 182.41 254.15 182.41"/>
          <polyline class="cls-1" points="181.99 182.41 207.31 182.41 212.43 182.41"/>
          <polyline class="cls-1" points="140.28 182.41 146.01 182.41 170.72 182.41"/>
          <polyline class="cls-1" points="98.56 182.41 123.92 182.41 129 182.41"/>
          <polyline class="cls-1" points="56.85 182.41 62.62 182.41 87.29 182.41"/>
          <polyline class="cls-1" points="15.13 182.41 40.34 182.41 45.57 182.41"/>
          <line class="cls-1" x1=".24" y1="182.41" x2="3.86" y2="182.41"/>
          <polyline class="cls-1" points="72.26 211.45 87.57 202.84 93.27 199.64 97.65 197.18 123.92 182.41"/>
          <polyline class="cls-1" points="114.28 211.45 98.67 202.68 93.27 199.64 88.65 197.04 62.62 182.41"/>
          <path class="cls-1" d="m139.01,200.54c0,2.77-2.24,5.01-5.01,5.01s-5.01-2.24-5.01-5.01,2.24-5.01,5.01-5.01,5.01,2.24,5.01,5.01Z"/>
          <path class="cls-1" d="m223.45,200.54c0,2.77-2.24,5.01-5.01,5.01s-5.01-2.24-5.01-5.01,2.24-5.01,5.01-5.01,5.01,2.24,5.01,5.01Z"/>
          <path class="cls-1" d="m97.65,197.18c1,.88,1.61,2.06,1.61,3.36,0,.76-.21,1.49-.59,2.14-1,1.7-3.13,2.88-5.6,2.88s-4.47-1.1-5.5-2.71c-.44-.68-.69-1.47-.69-2.3,0-1.37.68-2.6,1.77-3.5,1.13-.93,2.69-1.51,4.43-1.51,1.82,0,3.45.63,4.58,1.65Z"/>
          <polyline class="cls-1" points=".24 204.95 3.99 202.84 9.69 199.64 14.08 197.18 40.34 182.41"/>
          <polyline class="cls-1" points="30.7 211.45 15.1 202.68 9.69 199.64 5.07 197.04 .24 194.33"/>
          <path class="cls-1" d="m14.08,197.18c1,.88,1.61,2.06,1.61,3.36,0,.76-.21,1.49-.59,2.14-1,1.7-3.13,2.88-5.6,2.88s-4.47-1.1-5.5-2.71c-.44-.68-.69-1.47-.69-2.3,0-1.37.68-2.6,1.77-3.5,1.13-.93,2.69-1.51,4.43-1.51,1.82,0,3.45.63,4.58,1.65Z"/>
          <polyline class="cls-1" points="155.65 211.45 170.96 202.84 176.66 199.64 181.04 197.18 207.31 182.41"/>
          <polyline class="cls-1" points="197.67 211.45 182.06 202.68 176.66 199.64 172.03 197.04 146.01 182.41"/>
          <path class="cls-1" d="m181.04,197.18c1,.88,1.61,2.06,1.61,3.36,0,.76-.21,1.49-.59,2.14-1,1.7-3.13,2.88-5.6,2.88s-4.47-1.1-5.5-2.71c-.44-.68-.69-1.47-.69-2.3,0-1.37.68-2.6,1.77-3.5,1.13-.93,2.69-1.51,4.43-1.51,1.82,0,3.45.63,4.58,1.65Z"/>
          <polyline class="cls-1" points="239.04 211.45 254.35 202.84 260.05 199.64 264.43 197.17 269.41 194.37"/>
          <polyline class="cls-1" points="269.41 204.9 265.45 202.68 260.05 199.64 255.42 197.04 229.4 182.41"/>
          <path class="cls-1" d="m264.43,197.17c1,.89,1.61,2.07,1.61,3.37,0,.76-.21,1.49-.59,2.14-1,1.7-3.13,2.88-5.6,2.88s-4.47-1.1-5.5-2.71c-.44-.68-.69-1.47-.69-2.3,0-1.37.68-2.6,1.77-3.5,1.13-.93,2.69-1.51,4.43-1.51,1.82,0,3.45.63,4.58,1.64Z"/>
          <path class="cls-1" d="m54.12,200.54c0,2.77-2.24,5.01-5.01,5.01s-5.01-2.24-5.01-5.01,2.24-5.01,5.01-5.01,5.01,2.24,5.01,5.01Z"/>
          <rect class="cls-1" x="3.86" y="177.4" width="11.28" height="5.01"/>
          <rect class="cls-1" x="45.57" y="177.4" width="11.28" height="5.01"/>
          <rect class="cls-1" x="87.29" y="177.4" width="11.28" height="5.01"/>
          <rect class="cls-1" x="129" y="177.4" width="11.28" height="5.01"/>
          <rect class="cls-1" x="170.72" y="177.4" width="11.28" height="5.01"/>
          <rect class="cls-1" x="212.43" y="177.4" width="11.28" height="5.01"/>
          <rect class="cls-1" x="254.15" y="177.4" width="11.28" height="5.01"/>
        </g>
      </g>
      <g>
        <g>
          <rect class="cls-5" x=".24" y="177.4" width="3.61" height="5.01"/>
          <path class="cls-5" d="m269.41,204.9v6.55h-30.37l15.31-8.61c1.03,1.61,3.1,2.71,5.5,2.71s4.61-1.18,5.6-2.88l3.96,2.23Z"/>
          <path class="cls-5" d="m269.41,194.37v10.53l-3.96-2.23c.38-.65.59-1.38.59-2.14,0-1.3-.61-2.48-1.61-3.37l4.98-2.8Z"/>
          <path class="cls-5" d="m269.41,182.41v11.96l-4.98,2.8c-1.13-1-2.76-1.64-4.58-1.64s-3.3.58-4.43,1.51l-26.02-14.63h40.01Z"/>
          <polygon class="cls-5" points="269.41 121.08 269.41 126.83 1.13 126.83 .24 126.83 .24 121.08 269.41 121.08"/>
          <rect class="cls-5" x="265.42" y="177.4" width="3.98" height="5.01"/>
          <path class="cls-5" d="m266.04,200.54c0,.76-.21,1.49-.59,2.14l-5.4-3.04,4.38-2.47c1,.89,1.61,2.07,1.61,3.37Z"/>
          <path class="cls-5" d="m260.05,199.64l5.4,3.04c-1,1.7-3.13,2.88-5.6,2.88s-4.47-1.1-5.5-2.71l5.7-3.2Z"/>
          <rect class="cls-6" x="254.15" y="177.4" width="11.28" height="5.01"/>
          <path class="cls-5" d="m264.43,197.17l-4.38,2.47-4.62-2.6c1.13-.93,2.69-1.51,4.43-1.51,1.82,0,3.45.63,4.58,1.64Z"/>
          <path class="cls-5" d="m260.05,199.64l-5.7,3.2c-.44-.68-.69-1.47-.69-2.3,0-1.37.68-2.6,1.77-3.5l4.62,2.6Z"/>
          <path class="cls-5" d="m229.4,182.41l26.02,14.63c-1.09.9-1.77,2.13-1.77,3.5,0,.83.25,1.62.69,2.3l-15.31,8.61h-41.37l-15.61-8.77c.38-.65.59-1.38.59-2.14,0-1.3-.61-2.48-1.61-3.36l26.27-14.77h22.09Zm-5.95,18.13c0-2.76-2.24-5.01-5.01-5.01s-5.01,2.24-5.01,5.01,2.24,5.01,5.01,5.01,5.01-2.24,5.01-5.01Z"/>
          <polygon class="cls-5" points="254.15 182.41 229.4 182.41 223.71 182.41 223.71 177.4 254.15 177.4 254.15 182.41"/>
          <rect class="cls-6" x="212.43" y="177.4" width="11.28" height="5.01"/>
          <path class="cls-6" d="m218.44,195.53c2.76,0,5.01,2.24,5.01,5.01s-2.24,5.01-5.01,5.01-5.01-2.24-5.01-5.01,2.24-5.01,5.01-5.01Z"/>
          <path class="cls-5" d="m207.31,182.41l-26.27,14.77c-1.13-1.01-2.76-1.65-4.58-1.65s-3.3.58-4.43,1.51l-26.02-14.63h61.3Z"/>
          <polygon class="cls-5" points="181.99 182.41 181.99 177.4 212.43 177.4 212.43 182.41 207.31 182.41 181.99 182.41"/>
          <path class="cls-5" d="m197.67,211.45h-42.02l15.31-8.61c1.03,1.61,3.11,2.71,5.5,2.71s4.61-1.18,5.6-2.88l15.61,8.77Z"/>
          <path class="cls-5" d="m182.65,200.54c0,.76-.21,1.49-.59,2.14l-5.4-3.04,4.38-2.46c1,.88,1.61,2.06,1.61,3.36Z"/>
          <path class="cls-5" d="m176.66,199.64l5.4,3.04c-1,1.7-3.13,2.88-5.6,2.88s-4.47-1.1-5.5-2.71l5.7-3.2Z"/>
          <rect class="cls-6" x="170.72" y="177.4" width="11.28" height="5.01"/>
          <path class="cls-5" d="m176.46,195.53c1.82,0,3.45.63,4.58,1.65l-4.38,2.46-4.62-2.6c1.13-.93,2.69-1.51,4.43-1.51Z"/>
          <path class="cls-5" d="m176.66,199.64l-5.7,3.2c-.44-.68-.69-1.47-.69-2.3,0-1.37.68-2.6,1.77-3.5l4.62,2.6Z"/>
          <path class="cls-5" d="m146.01,182.41l26.02,14.63c-1.09.9-1.77,2.13-1.77,3.5,0,.83.25,1.62.69,2.3l-15.31,8.61h-41.37l-15.61-8.77c.38-.65.59-1.38.59-2.14,0-1.3-.61-2.48-1.61-3.36l26.27-14.77h22.09Zm-7,18.13c0-2.76-2.24-5.01-5.01-5.01s-5.01,2.24-5.01,5.01,2.24,5.01,5.01,5.01,5.01-2.24,5.01-5.01Z"/>
          <polygon class="cls-5" points="170.72 182.41 146.01 182.41 140.28 182.41 140.28 177.4 170.72 177.4 170.72 182.41"/>
          <rect class="cls-6" x="129" y="177.4" width="11.28" height="5.01"/>
          <path class="cls-6" d="m134.01,195.53c2.76,0,5.01,2.24,5.01,5.01s-2.24,5.01-5.01,5.01-5.01-2.24-5.01-5.01,2.24-5.01,5.01-5.01Z"/>
          <path class="cls-5" d="m123.92,182.41l-26.27,14.77c-1.13-1.01-2.76-1.65-4.58-1.65s-3.3.58-4.43,1.51l-26.02-14.63h61.3Z"/>
          <polygon class="cls-5" points="129 182.41 123.92 182.41 98.56 182.41 98.56 177.4 129 177.4 129 182.41"/>
          <path class="cls-5" d="m114.28,211.45h-42.02l15.31-8.61c1.03,1.61,3.1,2.71,5.5,2.71s4.61-1.18,5.6-2.88l15.61,8.77Z"/>
          <path class="cls-5" d="m99.26,200.54c0,.76-.21,1.49-.59,2.14l-5.4-3.04,4.38-2.46c1,.88,1.61,2.06,1.61,3.36Z"/>
          <path class="cls-5" d="m93.27,199.64l5.4,3.04c-1,1.7-3.13,2.88-5.6,2.88s-4.47-1.1-5.5-2.71l5.7-3.2Z"/>
          <rect class="cls-6" x="87.29" y="177.4" width="11.28" height="5.01"/>
          <path class="cls-5" d="m93.07,195.53c1.82,0,3.45.63,4.58,1.65l-4.38,2.46-4.62-2.6c1.13-.93,2.69-1.51,4.43-1.51Z"/>
          <path class="cls-5" d="m93.27,199.64l-5.7,3.2c-.44-.68-.69-1.47-.69-2.3,0-1.37.68-2.6,1.77-3.5l4.62,2.6Z"/>
          <path class="cls-5" d="m62.62,182.41l26.02,14.63c-1.09.9-1.77,2.13-1.77,3.5,0,.83.25,1.62.69,2.3l-15.31,8.61H30.7l-15.61-8.77c.38-.65.59-1.38.59-2.14,0-1.3-.61-2.48-1.61-3.36l26.27-14.77h22.28Zm-8.5,18.13c0-2.76-2.24-5.01-5.01-5.01s-5.01,2.24-5.01,5.01,2.24,5.01,5.01,5.01,5.01-2.24,5.01-5.01Z"/>
          <polygon class="cls-5" points="87.29 182.41 62.62 182.41 56.85 182.41 56.85 177.4 87.29 177.4 87.29 182.41"/>
          <rect class="cls-6" x="45.57" y="177.4" width="11.28" height="5.01"/>
          <path class="cls-6" d="m49.11,195.53c2.76,0,5.01,2.24,5.01,5.01s-2.24,5.01-5.01,5.01-5.01-2.24-5.01-5.01,2.24-5.01,5.01-5.01Z"/>
          <polygon class="cls-5" points="45.57 182.41 40.34 182.41 15.13 182.41 15.13 177.4 45.57 177.4 45.57 182.41"/>
          <path class="cls-5" d="m30.7,211.45H.24v-6.5l3.75-2.1c1.03,1.61,3.11,2.71,5.5,2.71s4.61-1.18,5.6-2.88l15.61,8.77Z"/>
          <path class="cls-5" d="m15.69,200.54c0,.76-.21,1.49-.59,2.14l-5.4-3.04,4.38-2.46c1,.88,1.61,2.06,1.61,3.36Z"/>
          <rect class="cls-6" x="3.86" y="177.4" width="11.28" height="5.01"/>
          <path class="cls-5" d="m9.69,199.64l5.4,3.04c-1,1.7-3.13,2.88-5.6,2.88s-4.47-1.1-5.5-2.71l5.7-3.2Z"/>
          <path class="cls-5" d="m9.49,195.53c1.82,0,3.45.63,4.58,1.65l-4.38,2.46-4.62-2.6c1.13-.93,2.69-1.51,4.43-1.51Z"/>
          <path class="cls-5" d="m9.69,199.64l-5.7,3.2c-.44-.68-.69-1.47-.69-2.3,0-1.37.68-2.6,1.77-3.5l4.62,2.6Z"/>
          <path class="cls-5" d="m.24,194.33l4.82,2.71c-1.09.9-1.77,2.13-1.77,3.5,0,.83.25,1.62.69,2.3l-3.75,2.1v-10.62Z"/>
          <polygon class="cls-9" points="212.43 177.4 181.99 177.4 170.72 177.4 140.28 177.4 129 177.4 98.56 177.4 87.29 177.4 56.85 177.4 45.57 177.4 15.13 177.4 3.86 177.4 .24 177.4 .24 126.83 1.13 126.83 269.41 126.83 269.41 177.4 265.42 177.4 254.15 177.4 223.71 177.4 212.43 177.4"/>
          <path class="cls-5" d="m.24,182.41h40.1l-26.27,14.77c-1.13-1.01-2.76-1.65-4.58-1.65s-3.3.58-4.43,1.51l-4.82-2.71v-11.92Z"/>
        </g>
        <g>
          <polyline class="cls-1" points="269.41 211.45 239.04 211.45 197.67 211.45 155.65 211.45 114.28 211.45 72.26 211.45 30.7 211.45 .24 211.45"/>
          <line class="cls-1" x1=".24" y1="121.08" x2="269.41" y2="121.08"/>
          <line class="cls-1" x1=".24" y1="126.83" x2="269.41" y2="126.83"/>
          <line class="cls-1" x1="265.42" y1="177.4" x2="269.41" y2="177.4"/>
          <line class="cls-1" x1="223.71" y1="177.4" x2="254.15" y2="177.4"/>
          <line class="cls-1" x1="181.99" y1="177.4" x2="212.43" y2="177.4"/>
          <line class="cls-1" x1="140.28" y1="177.4" x2="170.72" y2="177.4"/>
          <line class="cls-1" x1="98.56" y1="177.4" x2="129" y2="177.4"/>
          <line class="cls-1" x1="56.85" y1="177.4" x2="87.29" y2="177.4"/>
          <line class="cls-1" x1="15.13" y1="177.4" x2="45.57" y2="177.4"/>
          <line class="cls-1" x1=".24" y1="177.4" x2="3.86" y2="177.4"/>
          <line class="cls-1" x1="265.42" y1="182.41" x2="269.41" y2="182.41"/>
          <polyline class="cls-1" points="223.71 182.41 229.4 182.41 254.15 182.41"/>
          <polyline class="cls-1" points="181.99 182.41 207.31 182.41 212.43 182.41"/>
          <polyline class="cls-1" points="140.28 182.41 146.01 182.41 170.72 182.41"/>
          <polyline class="cls-1" points="98.56 182.41 123.92 182.41 129 182.41"/>
          <polyline class="cls-1" points="56.85 182.41 62.62 182.41 87.29 182.41"/>
          <polyline class="cls-1" points="15.13 182.41 40.34 182.41 45.57 182.41"/>
          <line class="cls-1" x1=".24" y1="182.41" x2="3.86" y2="182.41"/>
          <polyline class="cls-1" points="72.26 211.45 87.57 202.84 93.27 199.64 97.65 197.18 123.92 182.41"/>
          <polyline class="cls-1" points="114.28 211.45 98.67 202.68 93.27 199.64 88.65 197.04 62.62 182.41"/>
          <path class="cls-1" d="m139.01,200.54c0,2.77-2.24,5.01-5.01,5.01s-5.01-2.24-5.01-5.01,2.24-5.01,5.01-5.01,5.01,2.24,5.01,5.01Z"/>
          <path class="cls-1" d="m223.45,200.54c0,2.77-2.24,5.01-5.01,5.01s-5.01-2.24-5.01-5.01,2.24-5.01,5.01-5.01,5.01,2.24,5.01,5.01Z"/>
          <path class="cls-1" d="m97.65,197.18c1,.88,1.61,2.06,1.61,3.36,0,.76-.21,1.49-.59,2.14-1,1.7-3.13,2.88-5.6,2.88s-4.47-1.1-5.5-2.71c-.44-.68-.69-1.47-.69-2.3,0-1.37.68-2.6,1.77-3.5,1.13-.93,2.69-1.51,4.43-1.51,1.82,0,3.45.63,4.58,1.65Z"/>
          <polyline class="cls-1" points=".24 204.95 3.99 202.84 9.69 199.64 14.08 197.18 40.34 182.41"/>
          <polyline class="cls-1" points="30.7 211.45 15.1 202.68 9.69 199.64 5.07 197.04 .24 194.33"/>
          <path class="cls-1" d="m14.08,197.18c1,.88,1.61,2.06,1.61,3.36,0,.76-.21,1.49-.59,2.14-1,1.7-3.13,2.88-5.6,2.88s-4.47-1.1-5.5-2.71c-.44-.68-.69-1.47-.69-2.3,0-1.37.68-2.6,1.77-3.5,1.13-.93,2.69-1.51,4.43-1.51,1.82,0,3.45.63,4.58,1.65Z"/>
          <polyline class="cls-1" points="155.65 211.45 170.96 202.84 176.66 199.64 181.04 197.18 207.31 182.41"/>
          <polyline class="cls-1" points="197.67 211.45 182.06 202.68 176.66 199.64 172.03 197.04 146.01 182.41"/>
          <path class="cls-1" d="m181.04,197.18c1,.88,1.61,2.06,1.61,3.36,0,.76-.21,1.49-.59,2.14-1,1.7-3.13,2.88-5.6,2.88s-4.47-1.1-5.5-2.71c-.44-.68-.69-1.47-.69-2.3,0-1.37.68-2.6,1.77-3.5,1.13-.93,2.69-1.51,4.43-1.51,1.82,0,3.45.63,4.58,1.65Z"/>
          <polyline class="cls-1" points="239.04 211.45 254.35 202.84 260.05 199.64 264.43 197.17 269.41 194.37"/>
          <polyline class="cls-1" points="269.41 204.9 265.45 202.68 260.05 199.64 255.42 197.04 229.4 182.41"/>
          <path class="cls-1" d="m264.43,197.17c1,.89,1.61,2.07,1.61,3.37,0,.76-.21,1.49-.59,2.14-1,1.7-3.13,2.88-5.6,2.88s-4.47-1.1-5.5-2.71c-.44-.68-.69-1.47-.69-2.3,0-1.37.68-2.6,1.77-3.5,1.13-.93,2.69-1.51,4.43-1.51,1.82,0,3.45.63,4.58,1.64Z"/>
          <path class="cls-1" d="m54.12,200.54c0,2.77-2.24,5.01-5.01,5.01s-5.01-2.24-5.01-5.01,2.24-5.01,5.01-5.01,5.01,2.24,5.01,5.01Z"/>
          <rect class="cls-1" x="3.86" y="177.4" width="11.28" height="5.01"/>
          <rect class="cls-1" x="45.57" y="177.4" width="11.28" height="5.01"/>
          <rect class="cls-1" x="87.29" y="177.4" width="11.28" height="5.01"/>
          <rect class="cls-1" x="129" y="177.4" width="11.28" height="5.01"/>
          <rect class="cls-1" x="170.72" y="177.4" width="11.28" height="5.01"/>
          <rect class="cls-1" x="212.43" y="177.4" width="11.28" height="5.01"/>
          <rect class="cls-1" x="254.15" y="177.4" width="11.28" height="5.01"/>
        </g>
      </g>
    </g>
  </g>
  <g id="_レイヤー_2" data-name="レイヤー 2">
    <g>
      <g>
        <path class="cls-8" d="m73.19,129.8c-2.88,1.8-5.28,3.64-6.75,5.72-3.75,5.29-7.17,11.68-5.86,17.21l-.2.04s-24.02-1-34.35-.05c-10.31.94-9.14.82-9.14-1.39s14.44-33.76,17.09-37.59c1.59-2.29,3.18-4.27,5.02-5.29,1.31-.54,2.04-.95,3.45,2.47,0,.02.03.04.03.06.16.38.32.81.49,1.29,1.77,4.87,2.5,14.26,4.42,14.65,0,0,0,0,.03,0,.86.23,17.68,4.79,25.7,2.79l.05.09Z"/>
        <path class="cls-8" d="m88.74,94.67c-.87,1.99-1.55,3.48-1.85,4.04-1.22,2.21.22,13.6.88,17.47s.67,4.87.67,4.87c-5.12,3.29-10.76,5.98-15.25,8.76l-.05-.09c-8.03,2-24.85-2.55-25.7-2.79,1.45.11,5.46-8.99,9.28-14.44,1.13-1.61,2.25-2.91,3.27-3.55,0,0,.02,0,.03,0,.2-.1.42-.21.66-.32h0c1.52-.74,3.55-1.85,5.14-3.13,2.94-2.36,9.73-13.19,9.73-13.19l12.91,2.26.28.11Z"/>
        <path class="cls-8" d="m48.77,118.33c2.43-.61,6.97-4.52,7.95-5.84-3.82,5.45-7.84,14.55-9.28,14.44-.03,0-.03,0-.03,0-1.91-.39-2.65-9.79-4.42-14.65-.17-.48-.34-.91-.49-1.29,2.53,4.78,3.85,7.97,6.28,7.35Z"/>
        <path class="cls-6" d="m58.46,109.62s.61-.24,1.53-.68c-1.02.64-2.14,1.94-3.27,3.55-.98,1.32-5.52,5.23-7.95,5.84-2.42.61-3.75-2.57-6.28-7.35,0-.02-.03-.04-.03-.06-1.41-3.42-2.14-3.01-3.45-2.47,1.24-.7,2.58-.96,4.12-.61,3.83.88,6.49,0,15.33,1.78Z"/>
        <path class="cls-10" d="m184.07,124.52c1.62-.81,3.07-1.65,3.21-1.73h0c.4.31.8.61,1.2.92,5.31,1.62,16.25,2.71,27.01,7.58s12.76,5.53,20.71,7.73c0,2.51-6.52,6.33-11.28,5.68-3.31-.46-9.58,1.77-9.58,1.77-12.14-3.46-20.26-15.91-31.29-21.94Z"/>
        <path class="cls-6" d="m160.53,60.94c3.1.59,10.71,4.27,15.69,7.92,4.97,3.65,12.31,11.87,17.47,18.65,2.42,3.18,4.91,4.63,7.01,5.4l-1.13,1.37s-.04-.03-.06-.05c-4.23-3.42-9.86-1.7-14.25.69-4.6,2.49-5.92,6.13-7.23,11.01-.12.46-.23,1.14-.31,1.95l-1.39-.03c-.73-3.72-3.97-11.23-5.07-14.59-1.1-3.35-10.39-23.84-14.32-31.49l-.06-.06c.61-.65,1-1.07,1.07-1.14.89.1,1.79.23,2.6.38Z"/>
        <path class="cls-6" d="m177.32,117.89c0-2.51.08-7.12.39-10.02.09-.81.19-1.49.31-1.95,1.31-4.88,2.63-8.51,7.23-11.01,4.4-2.39,10.02-4.11,14.25-.69.02.02.04.03.06.05l1.13-1.37c2.39.87,4.3.87,5.09,1.49,1.47,1.18,12.64,9.99,18.24,12.94,5.6,2.94,8.56,9.36,9.75,13.34,1.18,3.98,2.43,15.85,2.43,18.35-7.96-2.21-9.95-2.87-20.71-7.73s-21.7-5.96-27.01-7.58c-.41-.3-.81-.61-1.2-.92h0c-2.71-2.09-5.27-4.18-7.14-5.17-1.47-.79-2.5-.88-2.82.27Z"/>
        <path class="cls-7" d="m168.92,121.72l.62.29c-1.79,1.78-2.97,4.46-3.75,5.2-.68.64-3.03,2.1-3.95,2.92l-.36-.47-5.11-1.66c-1.88,0-2.66.63-5.31,2.31h0c-.28-2.43-.25-7.06-.29-10.15l2.99.65c6.97-3.62,10.08-2.42,15.09-1.77l.02.17c-1.52.1-2.93.49-3.73,1.13-1.45,1.13-3.07,2.77-.94,2.16,2.14-.61,4.11-1.09,4.73-.8Z"/>
        <path class="cls-7" d="m171.39,130.1c-.98.55-3.15.75-4.97.87-1.37.1-2.54.12-2.84.2-.36.09-.91.04-1.35-.1h0c-.4-.13-.7-.35-.68-.61.07-.09.16-.19.3-.31.92-.82,3.26-2.28,3.95-2.92.78-.74,1.96-3.43,3.75-5.2l-.62-.29c-.61-.29-2.59.18-4.73.8-2.13.61-.5-1.03.94-2.16.81-.64,2.22-1.03,3.73-1.13,1.18-.08,2.42,0,3.5.29,2.47.65,3.25.39,4.23.3,1.52.1,3.16-1.75,3.55-2.21,1.86.99,4.43,3.08,7.14,5.17-.14.09-1.59.93-3.21,1.73-1.6.81-3.35,1.58-4.12,1.57-1.58-.03-6.82,3.07-8.56,4.02Z"/>
        <path class="cls-8" d="m169.8,171.82c-.59,3.97-2.06,3.09-5.89-.59-1.04-3.87-1.84-4.65-5.6-6.75-1.06-.59-2.18-1.56-3.26-2.75-2.76-3.03-5.18-7.46-4.99-10.41l-1.14-.04c.79-.87,1.51-1.56,2.16-2.03,3.48-2.47,11.15-10.24,11.15-10.24-2.25,5.13-2.94,10.32,0,12.76,2.94,2.42,19.29,7.49,25.65,7.36-3.26.16-6.18.37-8.11.37-4.86,0-9.95,2.43-9.95,2.43,0,0,.59,5.9,0,9.88Z"/>
        <path class="cls-6" d="m179.94,126.09c.77.02,2.52-.76,4.12-1.57,11.03,6.04,19.15,18.48,31.29,21.94,0,0-1.32,6.41-1.77,10.39-.44,3.98-4.43,3.98-11.06,2.65-3.99-.8-9.66-.63-14.6-.37h-.06c-6.36.13-22.72-4.94-25.65-7.36-2.94-2.43-2.25-7.63,0-12.76,0,0-7.66,7.78-11.15,10.24-.65.47-1.37,1.16-2.16,2.03-1.47,1.61-3.18,3.79-5.11,6.11-2.55,3.06-5.48,6.33-8.79,8.82,0,0-6.93,4.12-8.55,5.9-1.62,1.77-6.93,3.53-9.43,2.8-2.51-.74-4.17-4.12-13.35-10.87,0,0-1.44,1.55-7.08,4.42-5,.81-10.05.27-14.73-1.05,4.79,1.03,26.53-6.88,30.87-10.57,2.7-2.29,2.6-3.53,2.01-4.13,2.07-.55,6.15-1.78,11-3.46,8.95-6.49,25.24-15.29,25.69-17.36-.17-.17-.3-.75-.39-1.58h0c2.65-1.68,3.43-2.32,5.31-2.31l5.11,1.66.36.47c-.14.12-.23.23-.3.31-.03.27.28.48.68.61h0c.44.15.99.19,1.35.1.3-.08,1.47-.1,2.84-.2,1.82-.11,3.99-.32,4.97-.87,1.73-.94,6.97-4.05,8.56-4.02Z"/>
        <path class="cls-8" d="m155.05,161.74c-2.59-.49-6.1,1.97-7.39,3.41-.46-2.75-1.98-6.03-3.85-7.76,1.93-2.31,3.64-4.49,5.11-6.11l1.14.04c-.19,2.94,2.23,7.38,4.99,10.41Z"/>
        <path class="cls-8" d="m145.49,172.11c-1.77,2.06-3.84,1.47-4.72-1.03-.88-2.51-5.75-4.87-5.75-4.87,3.31-2.49,6.24-5.77,8.79-8.82,1.87,1.73,3.39,5.01,3.85,7.76.29,1.68.17,3.16-.48,4.01,0,0,.07.88-1.7,2.95Z"/>
        <path class="cls-7" d="m135.9,38.12c-1.25-3.32.89-5.38,2.29-5.08,1.4.29,2.66,2.06,4.18,4.94.57-.36,2.82-10.98,4.88-17.09.51,1.28,9.28,2.75,12.53,3.09.49,1.35.91,4.09,1.19,7.26h0c.18,2.06.3,4.29.36,6.44.1,4.39-.08,8.46-.67,10.04-1.32,3.53-5.38,10.02-7.66,12.45-.83.88-2.24.93-3.78.56l-.05.22c-1.1.85-6.76,2.76-9.5,2.17-4.09-.88-10.99-8.69-10.99-8.69l2.99-4.68c1.14-1.22,5.93-3.13,8-3.13,0,0,.29-.67.15-1.84-1.99,0-2.66-3.32-3.91-6.63Z"/>
        <path class="cls-6" d="m122.93,55.95c2.01-.62,3.95-1.13,5.74-1.54,0,0,6.9,7.81,10.99,8.69,2.74.6,8.4-1.32,9.5-2.17l.05-.22c1.54.36,2.95.32,3.78-.56,0,0,2.42.1,4.93.4-.06.07-.45.49-1.07,1.14-1.19,1.26-3.22,3.37-5.41,5.46-3.43,3.27-10.83,3.35-15.03,1.36s-11.83-9.62-14.7-12.19c.41-.13.81-.26,1.22-.38Z"/>
        <path class="cls-6" d="m172.37,119.52c-1.08-.29-2.32-.37-3.5-.29l-.02-.17c-5.01-.66-8.11-1.85-15.09,1.77l-2.99-.65c.03,3.09,0,7.72.29,10.15.09.82.22,1.4.39,1.58-.44,2.07-16.73,10.88-25.69,17.36-4.85,1.67-8.93,2.9-11,3.46-.38-.39-.95-.52-1.13-.5-1.68.14,0,0-5.75,1.99-5.74,1.98-32.94,3.97-45.66,1.46h0c-.87-1.08-1.44-2.08-1.64-2.9,0-.02,0-.03,0-.04-1.31-5.53,2.11-11.92,5.86-17.21,1.47-2.08,3.87-3.91,6.75-5.72,4.49-2.79,10.13-5.47,15.25-8.76,0,0,0-1-.67-4.87s-2.1-15.26-.88-17.47c.3-.55.98-2.04,1.85-4.04,2.57-5.9,6.88-16.21,8.54-19.84,2.21-4.87,3.87-8.51,10.17-12.27,4.15-2.47,9.22-4.59,14.06-6.16.07-.03.14-.04.21-.07,2.88,2.57,10.5,10.2,14.7,12.19s11.6,1.91,15.03-1.36c2.19-2.1,4.23-4.21,5.41-5.46l.06.06c3.92,7.65,13.22,28.14,14.32,31.49,1.11,3.36,4.35,10.88,5.07,14.59l1.39.03c-.31,2.9-.38,7.51-.39,10.02.32-1.15,1.35-1.06,2.82-.27-.39.46-2.04,2.3-3.55,2.21-.98.09-1.76.35-4.23-.3Z"/>
        <path class="cls-6" d="m133.33,21.43c-2.1,7.08-10.39,34.52-10.39,34.52-.41.12-.81.25-1.22.38-.07.03-.14.04-.21.07v-.03s9.72-37.92,11.27-41.35c1.54-3.42,4.31-10.9,8.81-9.66,4.49,1.26,6.56,3.02,6.56,3.02,1.84-1.98,7.45-6,9.44-7.26,1.98-1.26,4.08-.57,3.09,1.7-2.06,2.65-5.97,7.22-5.97,7.22l.95,1.32h4.35v1.18h-3.01c2.65,2.58,6.04,7.96,6.04,8.84s-.66,2.66-2.21,2.66c-.2,0-.55-.03-1.03-.08-3.25-.35-12.02-1.81-12.53-3.09-2.06,6.11-4.31,16.73-4.88,17.09-1.52-2.88-2.78-4.64-4.18-4.94-1.39-.29-3.53,1.77-2.29,5.08,1.26,3.32,1.92,6.63,3.91,6.63.15,1.18-.15,1.84-.15,1.84-2.07,0-6.86,1.91-8,3.13-.22-2.99,2.88-17.81,3.54-21.01.66-3.2,5.08-11.39,6.96-12.6.22-.55,0-1.11,0-1.11h-2.66v-2.39h4.46s.85-1.48,1.55-1.7c-1.73-1.77-3.46-2.8-3.79-2.94-.33-.16-.78-.85-2.03.74-1.26,1.58-4.28,5.64-6.37,12.71Z"/>
        <path class="cls-10" d="m62.23,155.67c12.72,2.51,39.92.52,45.66-1.46,5.75-1.99,4.07-1.85,5.75-1.99.17-.02.74.11,1.13.5.59.6.69,1.84-2.01,4.13-4.34,3.69-26.08,11.6-30.87,10.57-.1-.02-.18-.04-.27-.07-8.76-2.51-16.19-7.69-19.4-11.67h0Z"/>
      </g>
      <g>
        <path class="cls-2" d="m121.5,56.36s9.73-37.92,11.28-41.35c1.54-3.42,4.31-10.9,8.81-9.66,4.49,1.26,6.56,3.02,6.56,3.02,1.84-1.98,7.45-6,9.44-7.26,1.98-1.26,4.08-.57,3.09,1.7-2.06,2.65-5.97,7.22-5.97,7.22l.95,1.32h4.35v1.18h-3.01c2.65,2.58,6.04,7.96,6.04,8.84s-.66,2.66-2.21,2.66c-.2,0-.55-.03-1.03-.08-3.25-.35-12.02-1.81-12.53-3.09-2.06,6.11-4.31,16.73-4.88,17.09-1.52-2.88-2.78-4.64-4.18-4.94-1.39-.29-3.53,1.77-2.29,5.08,1.26,3.32,1.92,6.63,3.91,6.63.15,1.18-.15,1.84-.15,1.84-2.07,0-6.86,1.91-8,3.13-.22-2.99,2.88-17.81,3.54-21.01.66-3.2,5.08-11.39,6.96-12.6.22-.55,0-1.11,0-1.11h-2.66v-2.39h4.46s.85-1.48,1.55-1.7c-1.73-1.77-3.46-2.8-3.79-2.94-.33-.16-.78-.85-2.03.74-1.26,1.58-4.28,5.64-6.37,12.71-2.1,7.08-10.39,34.52-10.39,34.52"/>
        <path class="cls-2" d="m160.97,31.23c.18,2.05.3,4.28.36,6.43.1,4.39-.08,8.46-.67,10.04-1.32,3.53-5.38,10.02-7.66,12.45-.83.88-2.24.93-3.78.56-2.69-.64-5.78-2.52-6.85-3.29"/>
        <path class="cls-2" d="m159.78,23.97c.49,1.35.91,4.09,1.19,7.26"/>
        <path class="cls-2" d="m131.66,49.73l-2.99,4.68s6.9,7.81,10.99,8.69c2.74.6,8.4-1.32,9.5-2.17"/>
        <path class="cls-2" d="m149.17,37.43s3.39-.11,4.05.25"/>
        <path class="cls-2" d="m158.53,37.68s2.08-.21,2.81,0c0,0,.02,0,.03,0"/>
        <path class="cls-2" d="m155.95,45.71v1.03c0,.37,2.08,1.32,2.95.81.91-.54.51.15,1.05-.88.53-1.04-.1-5.01-.1-5.01"/>
        <path class="cls-2" d="m154.85,51.02s2.8-.15,3.09,0"/>
        <line class="cls-2" x1="146.74" y1="30.16" x2="152.27" y2="31.63"/>
        <polyline class="cls-2" points="159.28 31.93 160.97 31.23 160.97 31.22 161.78 30.9"/>
        <path class="cls-2" d="m187.93,159.13c4.94-.26,10.61-.42,14.6.37,6.63,1.33,10.62,1.33,11.06-2.65.44-3.98,1.77-10.39,1.77-10.39,0,0,6.27-2.23,9.58-1.77,4.76.65,11.28-3.17,11.28-5.68s-1.26-14.37-2.43-18.35c-1.19-3.97-4.15-10.39-9.75-13.34-5.6-2.95-16.77-11.76-18.24-12.94-.79-.62-2.7-.61-5.09-1.49-2.1-.77-4.6-2.23-7.01-5.4-5.16-6.77-12.5-14.99-17.47-18.65-4.98-3.65-12.59-7.33-15.69-7.92-.81-.16-1.71-.29-2.6-.38-2.51-.3-4.93-.4-4.93-.4"/>
        <path class="cls-2" d="m163.91,171.23c3.83,3.68,5.3,4.56,5.89.59.59-3.98,0-9.88,0-9.88,0,0,5.09-2.43,9.95-2.43,1.93,0,4.86-.21,8.11-.37"/>
        <path class="cls-2" d="m81.89,167.41c4.68,1.32,9.73,1.86,14.73,1.05,5.64-2.87,7.08-4.42,7.08-4.42,9.18,6.75,10.83,10.13,13.35,10.87,2.5.74,7.81-1.03,9.43-2.8,1.62-1.78,8.55-5.9,8.55-5.9,0,0,4.87,2.36,5.75,4.87.88,2.5,2.95,3.09,4.72,1.03,1.77-2.07,1.7-2.95,1.7-2.95"/>
        <path class="cls-2" d="m128.68,54.41c-1.79.41-3.73.92-5.74,1.54-.41.12-.81.25-1.22.38-.07.03-.14.04-.21.07-4.83,1.57-9.91,3.69-14.06,6.16-6.3,3.76-7.96,7.4-10.17,12.27-1.65,3.63-5.97,13.94-8.54,19.84-.87,1.99-1.55,3.48-1.85,4.04-1.22,2.21.22,13.6.88,17.47s.67,4.87.67,4.87c-5.12,3.29-10.76,5.98-15.25,8.76-2.88,1.8-5.28,3.64-6.75,5.72-3.75,5.29-7.17,11.68-5.86,17.21,0,.02,0,.03,0,.04.2.82.76,1.82,1.64,2.9,3.21,3.98,10.63,9.16,19.4,11.67"/>
        <path class="cls-4" d="m177.32,119.12c-.09-.12,0,.19,0-1.24,0-2.51.08-7.12.39-10.02.09-.81.19-1.49.31-1.95,1.31-4.88,2.63-8.51,7.23-11.01,4.4-2.39,10.02-4.11,14.25-.69.02.02.04.03.06.05,3.94,3.18,7.43,6.95,11.17,10.36,4.05,3.7,8.77,8.55,14.19,10.12"/>
        <path class="cls-2" d="m215.35,146.46c-12.14-3.46-20.26-15.91-31.29-21.94"/>
        <path class="cls-2" d="m187.28,122.79c-2.71-2.09-5.27-4.18-7.14-5.17-1.47-.79-2.5-.88-2.82.27"/>
        <path class="cls-2" d="m236.22,139.02c-7.96-2.21-9.95-2.87-20.71-7.73s-21.7-5.96-27.01-7.58c-.41-.3-.81-.61-1.2-.92"/>
        <path class="cls-2" d="m62.23,155.67c12.72,2.51,39.92.52,45.66-1.46,5.75-1.99,4.07-1.85,5.75-1.99.17-.02.74.11,1.13.5.59.6.69,1.84-2.01,4.13-4.34,3.69-26.08,11.6-30.87,10.57-.1-.02-.18-.04-.27-.07"/>
        <path class="cls-4" d="m114.77,152.72c2.07-.55,6.15-1.78,11-3.46,11.15-3.84,26.4-10.03,30.62-15.77"/>
        <path class="cls-4" d="m104.95,101.35s17.84,7.53,25.21,8.26"/>
        <path class="cls-4" d="m110.85,70.26s22.79,32.87,24.73,39.36"/>
        <path class="cls-4" d="m123.82,67.16s12.38,25.64,14.15,33.01c1.77,7.37,2.65,9.44,2.65,9.44"/>
        <path class="cls-4" d="m150.06,72.76s13.11,21.67,12.96,40.98"/>
        <path class="cls-4" d="m121.71,56.33c2.88,2.57,10.5,10.2,14.7,12.19s11.6,1.91,15.03-1.36c2.19-2.1,4.23-4.21,5.41-5.46.61-.65,1-1.07,1.07-1.14h0"/>
        <path class="cls-4" d="m156.93,61.76c3.92,7.65,13.22,28.14,14.32,31.49,1.11,3.36,4.35,10.88,5.07,14.59"/>
        <path class="cls-4" d="m177.32,74.98s3.28,22.42,2.68,24.77"/>
        <path class="cls-4" d="m125.77,149.26c8.95-6.49,25.24-15.29,25.69-17.36-.17-.17-.3-.75-.39-1.58-.28-2.43-.25-7.06-.29-10.15,0-1.2-.03-2.16-.08-2.68-.23-2.32-5.54-2.21-5.54-2.21-4.54.23-12.94.07-23.26,5.53-14,12.24-30.8,11.06-31.25,11.06"/>
        <path class="cls-2" d="m151.07,130.32c2.65-1.68,3.43-2.32,5.31-2.31l5.11,1.66"/>
        <path class="cls-2" d="m168.85,119.05c-5.01-.66-8.11-1.85-15.09,1.77-.03.02-.06.03-.1.05"/>
        <path class="cls-1" d="m162.23,131.07c.44.15.99.19,1.35.1.3-.08,1.47-.1,2.84-.2,1.82-.11,3.99-.32,4.97-.87,1.73-.94,6.97-4.05,8.56-4.02.77.02,2.52-.76,4.12-1.57,1.62-.81,3.07-1.65,3.21-1.73h0"/>
        <path class="cls-1" d="m180.22,117.52s-.03.03-.08.1c-.39.46-2.04,2.3-3.55,2.21-.98.09-1.76.35-4.23-.3-1.08-.29-2.32-.37-3.5-.29-1.52.1-2.93.49-3.73,1.13-1.45,1.13-3.07,2.77-.94,2.16,2.14-.61,4.11-1.09,4.73-.8l.62.29c-1.79,1.78-2.97,4.46-3.75,5.2-.68.64-3.03,2.1-3.95,2.92-.14.12-.23.23-.3.31-.03.27.28.48.68.61"/>
        <path class="cls-1" d="m162.22,131.07h0c1.51-.24,7.24-3.72,7.45-4.15"/>
        <path class="cls-1" d="m166.38,130.99s.03,0,.03-.02c.94-.35,3.04-1.38,4.12-2.52"/>
        <polyline class="cls-2" points="153.99 120.87 153.76 120.82 150.78 120.17 150.7 120.15"/>
        <path class="cls-1" d="m150.06,151.33c-.19,2.94,2.23,7.38,4.99,10.41,1.08,1.19,2.21,2.16,3.26,2.75,3.76,2.1,4.56,2.88,5.6,6.75"/>
        <path class="cls-1" d="m147.18,169.16c.65-.85.76-2.33.48-4.01-.46-2.75-1.98-6.03-3.85-7.76"/>
        <path class="cls-1" d="m135.02,166.22c3.31-2.49,6.24-5.77,8.79-8.82,1.93-2.31,3.64-4.49,5.11-6.11.79-.87,1.51-1.56,2.16-2.03,3.48-2.47,11.15-10.24,11.15-10.24-2.25,5.13-2.94,10.32,0,12.76,2.94,2.42,19.29,7.49,25.65,7.36h.06"/>
        <path class="cls-1" d="m147.66,165.15c1.29-1.45,4.8-3.91,7.39-3.41"/>
        <path class="cls-3" d="m103.74,84.8s20.82,14.19,23.62,19.5"/>
        <path class="cls-3" d="m107.6,74.98s7.63,11.64,7.95,13.41"/>
        <path class="cls-1" d="m59.99,108.94c-.92.43-1.53.68-1.53.68-8.84-1.78-11.5-.89-15.33-1.78-1.54-.36-2.88-.1-4.12.61-1.84,1.02-3.43,3-5.02,5.29-2.65,3.84-17.09,35.38-17.09,37.59s-1.18,2.33,9.14,1.39c10.32-.94,34.35.05,34.35.05"/>
        <path class="cls-1" d="m60.68,108.61c-.23.11-.46.23-.66.32"/>
        <path class="cls-1" d="m88.47,94.56l-12.91-2.26s-6.78,10.83-9.73,13.19c-1.59,1.27-3.62,2.38-5.14,3.13"/>
        <path class="cls-1" d="m47.44,126.93c1.45.11,5.46-8.99,9.28-14.44,1.13-1.61,2.25-2.91,3.27-3.55,0,0,.02,0,.03,0,.23-.14.44-.24.66-.32h0"/>
        <path class="cls-1" d="m42.49,110.97c.16.38.32.81.49,1.29,1.77,4.87,2.5,14.26,4.42,14.65"/>
        <path class="cls-1" d="m39.01,108.45c1.31-.54,2.04-.95,3.45,2.47"/>
        <path class="cls-1" d="m42.46,110.91s.03.04.03.06c2.53,4.78,3.85,7.97,6.28,7.35,2.43-.61,6.97-4.52,7.95-5.84"/>
        <path class="cls-1" d="m47.4,126.92s0,0,.03,0c.86.23,17.68,4.79,25.7,2.79"/>
      </g>
    </g>
  </g>
</svg>