<?xml version="1.0" encoding="UTF-8"?>
<svg xmlns="http://www.w3.org/2000/svg" viewBox="0 0 269.01 212.34">
  <defs>
    <style>
      .cls-1 {
        stroke-miterlimit: 10;
      }

      .cls-1, .cls-2 {
        fill: none;
        stroke: #000;
      }

      .cls-3 {
        fill: #ba5549;
      }

      .cls-3, .cls-4, .cls-5, .cls-6, .cls-7, .cls-8, .cls-9, .cls-10 {
        stroke-width: 0px;
      }

      .cls-4 {
        fill: #efcc77;
      }

      .cls-5 {
        fill: #f3edd7;
      }

      .cls-2 {
        stroke-linecap: round;
        stroke-linejoin: round;
      }

      .cls-6 {
        fill: #333;
      }

      .cls-7 {
        fill: #ccb1b8;
      }

      .cls-8 {
        fill: #fffef1;
      }

      .cls-9 {
        fill: #d2d296;
      }

      .cls-10 {
        fill: #f8e1bf;
      }
    </style>
  </defs>
  <g id="_畳" data-name="畳">
    <g>
      <g>
        <g>
          <rect class="cls-5" x=".24" y="177.87" width="3.6" height="5"/>
          <path class="cls-5" d="m268.77,205.3v6.53h-30.3l15.27-8.59c1.03,1.61,3.09,2.7,5.49,2.7s4.6-1.17,5.59-2.87l3.95,2.22Z"/>
          <path class="cls-5" d="m268.77,194.8v10.51l-3.95-2.22c.38-.65.59-1.37.59-2.13,0-1.3-.61-2.47-1.61-3.36l4.97-2.79Z"/>
          <path class="cls-5" d="m268.77,182.87v11.93l-4.97,2.79c-1.13-1-2.76-1.63-4.57-1.63s-3.29.58-4.41,1.5l-25.96-14.59h39.91Z"/>
          <polygon class="cls-5" points="268.77 121.68 268.77 127.41 1.13 127.41 .24 127.41 .24 121.68 268.77 121.68"/>
          <rect class="cls-5" x="264.79" y="177.87" width="3.97" height="5"/>
          <path class="cls-5" d="m265.41,200.95c0,.76-.21,1.49-.59,2.13l-5.39-3.03,4.37-2.46c.99.89,1.61,2.06,1.61,3.36Z"/>
          <path class="cls-5" d="m259.43,200.05l5.39,3.03c-.99,1.69-3.12,2.87-5.59,2.87s-4.46-1.1-5.49-2.7l5.68-3.2Z"/>
          <rect class="cls-6" x="253.54" y="177.87" width="11.25" height="5"/>
          <path class="cls-5" d="m263.8,197.59l-4.37,2.46-4.61-2.59c1.12-.92,2.69-1.5,4.41-1.5,1.81,0,3.44.63,4.57,1.63Z"/>
          <path class="cls-5" d="m259.43,200.05l-5.68,3.2c-.44-.68-.69-1.47-.69-2.3,0-1.37.67-2.59,1.76-3.49l4.61,2.59Z"/>
          <path class="cls-5" d="m228.85,182.87l25.96,14.59c-1.09.9-1.76,2.13-1.76,3.49,0,.83.25,1.62.69,2.3l-15.27,8.59h-41.27l-15.57-8.75c.38-.65.59-1.37.59-2.13,0-1.3-.61-2.47-1.61-3.35l26.2-14.73h22.04Zm-5.94,18.08c0-2.76-2.24-4.99-4.99-4.99s-5,2.24-5,4.99,2.24,5,5,5,4.99-2.24,4.99-5Z"/>
          <polygon class="cls-5" points="253.54 182.87 228.85 182.87 223.18 182.87 223.18 177.87 253.54 177.87 253.54 182.87"/>
          <rect class="cls-6" x="211.93" y="177.87" width="11.25" height="5"/>
          <path class="cls-6" d="m217.92,195.96c2.76,0,4.99,2.24,4.99,4.99s-2.24,5-4.99,5-5-2.24-5-5,2.24-4.99,5-4.99Z"/>
          <path class="cls-5" d="m206.81,182.87l-26.2,14.73c-1.13-1.01-2.76-1.64-4.57-1.64s-3.29.58-4.41,1.5l-25.96-14.59h61.15Z"/>
          <polygon class="cls-5" points="181.56 182.87 181.56 177.87 211.93 177.87 211.93 182.87 206.81 182.87 181.56 182.87"/>
          <path class="cls-5" d="m197.2,211.84h-41.92l15.27-8.59c1.03,1.61,3.1,2.7,5.49,2.7s4.6-1.17,5.59-2.87l15.57,8.75Z"/>
          <path class="cls-5" d="m182.22,200.95c0,.76-.21,1.49-.59,2.13l-5.39-3.03,4.37-2.45c.99.88,1.61,2.06,1.61,3.35Z"/>
          <path class="cls-5" d="m176.24,200.05l5.39,3.03c-.99,1.69-3.12,2.87-5.59,2.87s-4.46-1.1-5.49-2.7l5.68-3.2Z"/>
          <rect class="cls-6" x="170.31" y="177.87" width="11.25" height="5"/>
          <path class="cls-5" d="m176.04,195.96c1.81,0,3.44.63,4.57,1.64l-4.37,2.45-4.61-2.59c1.12-.92,2.69-1.5,4.41-1.5Z"/>
          <path class="cls-5" d="m176.24,200.05l-5.68,3.2c-.44-.68-.69-1.47-.69-2.3,0-1.37.67-2.59,1.76-3.49l4.61,2.59Z"/>
          <path class="cls-5" d="m145.66,182.87l25.96,14.59c-1.09.9-1.76,2.13-1.76,3.49,0,.83.25,1.62.69,2.3l-15.27,8.59h-41.27l-15.57-8.75c.38-.65.59-1.37.59-2.13,0-1.3-.61-2.47-1.61-3.35l26.2-14.73h22.04Zm-6.98,18.08c0-2.76-2.24-4.99-4.99-4.99s-5,2.24-5,4.99,2.24,5,5,5,4.99-2.24,4.99-5Z"/>
          <polygon class="cls-5" points="170.31 182.87 145.66 182.87 139.94 182.87 139.94 177.87 170.31 177.87 170.31 182.87"/>
          <rect class="cls-6" x="128.7" y="177.87" width="11.25" height="5"/>
          <path class="cls-6" d="m133.69,195.96c2.76,0,4.99,2.24,4.99,4.99s-2.24,5-4.99,5-5-2.24-5-5,2.24-4.99,5-4.99Z"/>
          <path class="cls-5" d="m123.62,182.87l-26.2,14.73c-1.13-1.01-2.76-1.64-4.57-1.64s-3.29.58-4.41,1.5l-25.96-14.59h61.15Z"/>
          <polygon class="cls-5" points="128.7 182.87 123.62 182.87 98.33 182.87 98.33 177.87 128.7 177.87 128.7 182.87"/>
          <path class="cls-5" d="m114.01,211.84h-41.92l15.27-8.59c1.03,1.61,3.09,2.7,5.49,2.7s4.6-1.17,5.59-2.87l15.57,8.75Z"/>
          <path class="cls-5" d="m99.03,200.95c0,.76-.21,1.49-.59,2.13l-5.39-3.03,4.37-2.45c.99.88,1.61,2.06,1.61,3.35Z"/>
          <path class="cls-5" d="m93.05,200.05l5.39,3.03c-.99,1.69-3.12,2.87-5.59,2.87s-4.46-1.1-5.49-2.7l5.68-3.2Z"/>
          <rect class="cls-6" x="87.08" y="177.87" width="11.25" height="5"/>
          <path class="cls-5" d="m92.85,195.96c1.81,0,3.44.63,4.57,1.64l-4.37,2.45-4.61-2.59c1.12-.92,2.69-1.5,4.41-1.5Z"/>
          <path class="cls-5" d="m93.05,200.05l-5.68,3.2c-.44-.68-.69-1.47-.69-2.3,0-1.37.67-2.59,1.76-3.49l4.61,2.59Z"/>
          <path class="cls-5" d="m62.47,182.87l25.96,14.59c-1.09.9-1.76,2.13-1.76,3.49,0,.83.25,1.62.69,2.3l-15.27,8.59H30.63l-15.57-8.75c.38-.65.59-1.37.59-2.13,0-1.3-.61-2.47-1.61-3.35l26.2-14.73h22.23Zm-8.48,18.08c0-2.76-2.24-4.99-4.99-4.99s-5,2.24-5,4.99,2.24,5,5,5,4.99-2.24,4.99-5Z"/>
          <polygon class="cls-5" points="87.08 182.87 62.47 182.87 56.71 182.87 56.71 177.87 87.08 177.87 87.08 182.87"/>
          <rect class="cls-6" x="45.46" y="177.87" width="11.25" height="5"/>
          <path class="cls-6" d="m49,195.96c2.76,0,4.99,2.24,4.99,4.99s-2.24,5-4.99,5-5-2.24-5-5,2.24-4.99,5-4.99Z"/>
          <polygon class="cls-5" points="45.46 182.87 40.25 182.87 15.1 182.87 15.1 177.87 45.46 177.87 45.46 182.87"/>
          <path class="cls-5" d="m30.63,211.84H.24v-6.49l3.74-2.1c1.03,1.61,3.1,2.7,5.49,2.7s4.6-1.17,5.59-2.87l15.57,8.75Z"/>
          <path class="cls-5" d="m15.65,200.95c0,.76-.21,1.49-.59,2.13l-5.39-3.03,4.37-2.45c.99.88,1.61,2.06,1.61,3.35Z"/>
          <rect class="cls-6" x="3.85" y="177.87" width="11.25" height="5"/>
          <path class="cls-5" d="m9.67,200.05l5.39,3.03c-.99,1.69-3.12,2.87-5.59,2.87s-4.46-1.1-5.49-2.7l5.68-3.2Z"/>
          <path class="cls-5" d="m9.47,195.96c1.81,0,3.44.63,4.57,1.64l-4.37,2.45-4.61-2.59c1.12-.92,2.69-1.5,4.41-1.5Z"/>
          <path class="cls-5" d="m9.67,200.05l-5.68,3.2c-.44-.68-.69-1.47-.69-2.3,0-1.37.67-2.59,1.76-3.49l4.61,2.59Z"/>
          <path class="cls-5" d="m.24,194.76l4.81,2.7c-1.09.9-1.76,2.13-1.76,3.49,0,.83.25,1.62.69,2.3l-3.74,2.1v-10.59Z"/>
          <polygon class="cls-9" points="211.93 177.87 181.56 177.87 170.31 177.87 139.94 177.87 128.7 177.87 98.33 177.87 87.08 177.87 56.71 177.87 45.46 177.87 15.1 177.87 3.85 177.87 .24 177.87 .24 127.41 1.13 127.41 268.77 127.41 268.77 177.87 264.79 177.87 253.54 177.87 223.18 177.87 211.93 177.87"/>
          <path class="cls-5" d="m.24,182.87h40l-26.2,14.73c-1.13-1.01-2.76-1.64-4.57-1.64s-3.29.58-4.41,1.5l-4.81-2.7v-11.89Z"/>
        </g>
        <g>
          <polyline class="cls-1" points="268.77 211.84 238.47 211.84 197.2 211.84 155.28 211.84 114.01 211.84 72.09 211.84 30.63 211.84 .24 211.84"/>
          <line class="cls-1" x1=".24" y1="121.68" x2="268.77" y2="121.68"/>
          <line class="cls-1" x1=".24" y1="127.41" x2="268.77" y2="127.41"/>
          <line class="cls-1" x1="264.79" y1="177.87" x2="268.77" y2="177.87"/>
          <line class="cls-1" x1="223.18" y1="177.87" x2="253.54" y2="177.87"/>
          <line class="cls-1" x1="181.56" y1="177.87" x2="211.93" y2="177.87"/>
          <line class="cls-1" x1="139.94" y1="177.87" x2="170.31" y2="177.87"/>
          <line class="cls-1" x1="98.33" y1="177.87" x2="128.7" y2="177.87"/>
          <line class="cls-1" x1="56.71" y1="177.87" x2="87.08" y2="177.87"/>
          <line class="cls-1" x1="15.1" y1="177.87" x2="45.46" y2="177.87"/>
          <line class="cls-1" x1=".24" y1="177.87" x2="3.85" y2="177.87"/>
          <line class="cls-1" x1="264.79" y1="182.87" x2="268.77" y2="182.87"/>
          <polyline class="cls-1" points="223.18 182.87 228.85 182.87 253.54 182.87"/>
          <polyline class="cls-1" points="181.56 182.87 206.81 182.87 211.93 182.87"/>
          <polyline class="cls-1" points="139.94 182.87 145.66 182.87 170.31 182.87"/>
          <polyline class="cls-1" points="98.33 182.87 123.62 182.87 128.7 182.87"/>
          <polyline class="cls-1" points="56.71 182.87 62.47 182.87 87.08 182.87"/>
          <polyline class="cls-1" points="15.1 182.87 40.25 182.87 45.46 182.87"/>
          <line class="cls-1" x1=".24" y1="182.87" x2="3.85" y2="182.87"/>
          <polyline class="cls-1" points="72.09 211.84 87.37 203.25 93.05 200.05 97.42 197.6 123.62 182.87"/>
          <polyline class="cls-1" points="114.01 211.84 98.44 203.08 93.05 200.05 88.44 197.46 62.47 182.87"/>
          <path class="cls-1" d="m138.68,200.95c0,2.76-2.24,5-4.99,5s-5-2.24-5-5,2.24-4.99,5-4.99,4.99,2.24,4.99,4.99Z"/>
          <path class="cls-1" d="m222.92,200.95c0,2.76-2.24,5-4.99,5s-5-2.24-5-5,2.24-4.99,5-4.99,4.99,2.24,4.99,4.99Z"/>
          <path class="cls-1" d="m97.42,197.6c.99.88,1.61,2.06,1.61,3.35,0,.76-.21,1.49-.59,2.13-.99,1.69-3.12,2.87-5.59,2.87s-4.46-1.1-5.49-2.7c-.44-.68-.69-1.47-.69-2.3,0-1.37.67-2.59,1.76-3.49,1.12-.92,2.69-1.5,4.41-1.5,1.81,0,3.44.63,4.57,1.64Z"/>
          <polyline class="cls-1" points=".24 205.35 3.99 203.25 9.67 200.05 14.04 197.6 40.25 182.87"/>
          <polyline class="cls-1" points="30.63 211.84 15.06 203.08 9.67 200.05 5.06 197.46 .24 194.76"/>
          <path class="cls-1" d="m14.04,197.6c.99.88,1.61,2.06,1.61,3.35,0,.76-.21,1.49-.59,2.13-.99,1.69-3.12,2.87-5.59,2.87s-4.46-1.1-5.49-2.7c-.44-.68-.69-1.47-.69-2.3,0-1.37.67-2.59,1.76-3.49,1.12-.92,2.69-1.5,4.41-1.5,1.81,0,3.44.63,4.57,1.64Z"/>
          <polyline class="cls-1" points="155.28 211.84 170.55 203.25 176.24 200.05 180.61 197.6 206.81 182.87"/>
          <polyline class="cls-1" points="197.2 211.84 181.63 203.08 176.24 200.05 171.63 197.46 145.66 182.87"/>
          <path class="cls-1" d="m180.61,197.6c.99.88,1.61,2.06,1.61,3.35,0,.76-.21,1.49-.59,2.13-.99,1.69-3.12,2.87-5.59,2.87s-4.46-1.1-5.49-2.7c-.44-.68-.69-1.47-.69-2.3,0-1.37.67-2.59,1.76-3.49,1.12-.92,2.69-1.5,4.41-1.5,1.81,0,3.44.63,4.57,1.64Z"/>
          <polyline class="cls-1" points="238.47 211.84 253.74 203.25 259.43 200.05 263.8 197.59 268.77 194.8"/>
          <polyline class="cls-1" points="268.77 205.3 264.82 203.08 259.43 200.05 254.81 197.46 228.85 182.87"/>
          <path class="cls-1" d="m263.8,197.59c.99.89,1.61,2.06,1.61,3.36,0,.76-.21,1.49-.59,2.13-.99,1.69-3.12,2.87-5.59,2.87s-4.46-1.1-5.49-2.7c-.44-.68-.69-1.47-.69-2.3,0-1.37.67-2.59,1.76-3.49,1.12-.92,2.69-1.5,4.41-1.5,1.81,0,3.44.63,4.57,1.63Z"/>
          <path class="cls-1" d="m53.99,200.95c0,2.76-2.24,5-4.99,5s-5-2.24-5-5,2.24-4.99,5-4.99,4.99,2.24,4.99,4.99Z"/>
          <rect class="cls-1" x="3.85" y="177.87" width="11.25" height="5"/>
          <rect class="cls-1" x="45.46" y="177.87" width="11.25" height="5"/>
          <rect class="cls-1" x="87.08" y="177.87" width="11.25" height="5"/>
          <rect class="cls-1" x="128.7" y="177.87" width="11.25" height="5"/>
          <rect class="cls-1" x="170.31" y="177.87" width="11.25" height="5"/>
          <rect class="cls-1" x="211.93" y="177.87" width="11.25" height="5"/>
          <rect class="cls-1" x="253.54" y="177.87" width="11.25" height="5"/>
        </g>
      </g>
      <g>
        <g>
          <rect class="cls-5" x=".24" y="177.87" width="3.6" height="5"/>
          <path class="cls-5" d="m268.77,205.3v6.53h-30.3l15.27-8.59c1.03,1.61,3.09,2.7,5.49,2.7s4.6-1.17,5.59-2.87l3.95,2.22Z"/>
          <path class="cls-5" d="m268.77,194.8v10.51l-3.95-2.22c.38-.65.59-1.37.59-2.13,0-1.3-.61-2.47-1.61-3.36l4.97-2.79Z"/>
          <path class="cls-5" d="m268.77,182.87v11.93l-4.97,2.79c-1.13-1-2.76-1.63-4.57-1.63s-3.29.58-4.41,1.5l-25.96-14.59h39.91Z"/>
          <polygon class="cls-5" points="268.77 121.68 268.77 127.41 1.13 127.41 .24 127.41 .24 121.68 268.77 121.68"/>
          <rect class="cls-5" x="264.79" y="177.87" width="3.97" height="5"/>
          <path class="cls-5" d="m265.41,200.95c0,.76-.21,1.49-.59,2.13l-5.39-3.03,4.37-2.46c.99.89,1.61,2.06,1.61,3.36Z"/>
          <path class="cls-5" d="m259.43,200.05l5.39,3.03c-.99,1.69-3.12,2.87-5.59,2.87s-4.46-1.1-5.49-2.7l5.68-3.2Z"/>
          <rect class="cls-6" x="253.54" y="177.87" width="11.25" height="5"/>
          <path class="cls-5" d="m263.8,197.59l-4.37,2.46-4.61-2.59c1.12-.92,2.69-1.5,4.41-1.5,1.81,0,3.44.63,4.57,1.63Z"/>
          <path class="cls-5" d="m259.43,200.05l-5.68,3.2c-.44-.68-.69-1.47-.69-2.3,0-1.37.67-2.59,1.76-3.49l4.61,2.59Z"/>
          <path class="cls-5" d="m228.85,182.87l25.96,14.59c-1.09.9-1.76,2.13-1.76,3.49,0,.83.25,1.62.69,2.3l-15.27,8.59h-41.27l-15.57-8.75c.38-.65.59-1.37.59-2.13,0-1.3-.61-2.47-1.61-3.35l26.2-14.73h22.04Zm-5.94,18.08c0-2.76-2.24-4.99-4.99-4.99s-5,2.24-5,4.99,2.24,5,5,5,4.99-2.24,4.99-5Z"/>
          <polygon class="cls-5" points="253.54 182.87 228.85 182.87 223.18 182.87 223.18 177.87 253.54 177.87 253.54 182.87"/>
          <rect class="cls-6" x="211.93" y="177.87" width="11.25" height="5"/>
          <path class="cls-6" d="m217.92,195.96c2.76,0,4.99,2.24,4.99,4.99s-2.24,5-4.99,5-5-2.24-5-5,2.24-4.99,5-4.99Z"/>
          <path class="cls-5" d="m206.81,182.87l-26.2,14.73c-1.13-1.01-2.76-1.64-4.57-1.64s-3.29.58-4.41,1.5l-25.96-14.59h61.15Z"/>
          <polygon class="cls-5" points="181.56 182.87 181.56 177.87 211.93 177.87 211.93 182.87 206.81 182.87 181.56 182.87"/>
          <path class="cls-5" d="m197.2,211.84h-41.92l15.27-8.59c1.03,1.61,3.1,2.7,5.49,2.7s4.6-1.17,5.59-2.87l15.57,8.75Z"/>
          <path class="cls-5" d="m182.22,200.95c0,.76-.21,1.49-.59,2.13l-5.39-3.03,4.37-2.45c.99.88,1.61,2.06,1.61,3.35Z"/>
          <path class="cls-5" d="m176.24,200.05l5.39,3.03c-.99,1.69-3.12,2.87-5.59,2.87s-4.46-1.1-5.49-2.7l5.68-3.2Z"/>
          <rect class="cls-6" x="170.31" y="177.87" width="11.25" height="5"/>
          <path class="cls-5" d="m176.04,195.96c1.81,0,3.44.63,4.57,1.64l-4.37,2.45-4.61-2.59c1.12-.92,2.69-1.5,4.41-1.5Z"/>
          <path class="cls-5" d="m176.24,200.05l-5.68,3.2c-.44-.68-.69-1.47-.69-2.3,0-1.37.67-2.59,1.76-3.49l4.61,2.59Z"/>
          <path class="cls-5" d="m145.66,182.87l25.96,14.59c-1.09.9-1.76,2.13-1.76,3.49,0,.83.25,1.62.69,2.3l-15.27,8.59h-41.27l-15.57-8.75c.38-.65.59-1.37.59-2.13,0-1.3-.61-2.47-1.61-3.35l26.2-14.73h22.04Zm-6.98,18.08c0-2.76-2.24-4.99-4.99-4.99s-5,2.24-5,4.99,2.24,5,5,5,4.99-2.24,4.99-5Z"/>
          <polygon class="cls-5" points="170.31 182.87 145.66 182.87 139.94 182.87 139.94 177.87 170.31 177.87 170.31 182.87"/>
          <rect class="cls-6" x="128.7" y="177.87" width="11.25" height="5"/>
          <path class="cls-6" d="m133.69,195.96c2.76,0,4.99,2.24,4.99,4.99s-2.24,5-4.99,5-5-2.24-5-5,2.24-4.99,5-4.99Z"/>
          <path class="cls-5" d="m123.62,182.87l-26.2,14.73c-1.13-1.01-2.76-1.64-4.57-1.64s-3.29.58-4.41,1.5l-25.96-14.59h61.15Z"/>
          <polygon class="cls-5" points="128.7 182.87 123.62 182.87 98.33 182.87 98.33 177.87 128.7 177.87 128.7 182.87"/>
          <path class="cls-5" d="m114.01,211.84h-41.92l15.27-8.59c1.03,1.61,3.09,2.7,5.49,2.7s4.6-1.17,5.59-2.87l15.57,8.75Z"/>
          <path class="cls-5" d="m99.03,200.95c0,.76-.21,1.49-.59,2.13l-5.39-3.03,4.37-2.45c.99.88,1.61,2.06,1.61,3.35Z"/>
          <path class="cls-5" d="m93.05,200.05l5.39,3.03c-.99,1.69-3.12,2.87-5.59,2.87s-4.46-1.1-5.49-2.7l5.68-3.2Z"/>
          <rect class="cls-6" x="87.08" y="177.87" width="11.25" height="5"/>
          <path class="cls-5" d="m92.85,195.96c1.81,0,3.44.63,4.57,1.64l-4.37,2.45-4.61-2.59c1.12-.92,2.69-1.5,4.41-1.5Z"/>
          <path class="cls-5" d="m93.05,200.05l-5.68,3.2c-.44-.68-.69-1.47-.69-2.3,0-1.37.67-2.59,1.76-3.49l4.61,2.59Z"/>
          <path class="cls-5" d="m62.47,182.87l25.96,14.59c-1.09.9-1.76,2.13-1.76,3.49,0,.83.25,1.62.69,2.3l-15.27,8.59H30.63l-15.57-8.75c.38-.65.59-1.37.59-2.13,0-1.3-.61-2.47-1.61-3.35l26.2-14.73h22.23Zm-8.48,18.08c0-2.76-2.24-4.99-4.99-4.99s-5,2.24-5,4.99,2.24,5,5,5,4.99-2.24,4.99-5Z"/>
          <polygon class="cls-5" points="87.08 182.87 62.47 182.87 56.71 182.87 56.71 177.87 87.08 177.87 87.08 182.87"/>
          <rect class="cls-6" x="45.46" y="177.87" width="11.25" height="5"/>
          <path class="cls-6" d="m49,195.96c2.76,0,4.99,2.24,4.99,4.99s-2.24,5-4.99,5-5-2.24-5-5,2.24-4.99,5-4.99Z"/>
          <polygon class="cls-5" points="45.46 182.87 40.25 182.87 15.1 182.87 15.1 177.87 45.46 177.87 45.46 182.87"/>
          <path class="cls-5" d="m30.63,211.84H.24v-6.49l3.74-2.1c1.03,1.61,3.1,2.7,5.49,2.7s4.6-1.17,5.59-2.87l15.57,8.75Z"/>
          <path class="cls-5" d="m15.65,200.95c0,.76-.21,1.49-.59,2.13l-5.39-3.03,4.37-2.45c.99.88,1.61,2.06,1.61,3.35Z"/>
          <rect class="cls-6" x="3.85" y="177.87" width="11.25" height="5"/>
          <path class="cls-5" d="m9.67,200.05l5.39,3.03c-.99,1.69-3.12,2.87-5.59,2.87s-4.46-1.1-5.49-2.7l5.68-3.2Z"/>
          <path class="cls-5" d="m9.47,195.96c1.81,0,3.44.63,4.57,1.64l-4.37,2.45-4.61-2.59c1.12-.92,2.69-1.5,4.41-1.5Z"/>
          <path class="cls-5" d="m9.67,200.05l-5.68,3.2c-.44-.68-.69-1.47-.69-2.3,0-1.37.67-2.59,1.76-3.49l4.61,2.59Z"/>
          <path class="cls-5" d="m.24,194.76l4.81,2.7c-1.09.9-1.76,2.13-1.76,3.49,0,.83.25,1.62.69,2.3l-3.74,2.1v-10.59Z"/>
          <polygon class="cls-9" points="211.93 177.87 181.56 177.87 170.31 177.87 139.94 177.87 128.7 177.87 98.33 177.87 87.08 177.87 56.71 177.87 45.46 177.87 15.1 177.87 3.85 177.87 .24 177.87 .24 127.41 1.13 127.41 268.77 127.41 268.77 177.87 264.79 177.87 253.54 177.87 223.18 177.87 211.93 177.87"/>
          <path class="cls-5" d="m.24,182.87h40l-26.2,14.73c-1.13-1.01-2.76-1.64-4.57-1.64s-3.29.58-4.41,1.5l-4.81-2.7v-11.89Z"/>
        </g>
        <g>
          <polyline class="cls-1" points="268.77 211.84 238.47 211.84 197.2 211.84 155.28 211.84 114.01 211.84 72.09 211.84 30.63 211.84 .24 211.84"/>
          <line class="cls-1" x1=".24" y1="121.68" x2="268.77" y2="121.68"/>
          <line class="cls-1" x1=".24" y1="127.41" x2="268.77" y2="127.41"/>
          <line class="cls-1" x1="264.79" y1="177.87" x2="268.77" y2="177.87"/>
          <line class="cls-1" x1="223.18" y1="177.87" x2="253.54" y2="177.87"/>
          <line class="cls-1" x1="181.56" y1="177.87" x2="211.93" y2="177.87"/>
          <line class="cls-1" x1="139.94" y1="177.87" x2="170.31" y2="177.87"/>
          <line class="cls-1" x1="98.33" y1="177.87" x2="128.7" y2="177.87"/>
          <line class="cls-1" x1="56.71" y1="177.87" x2="87.08" y2="177.87"/>
          <line class="cls-1" x1="15.1" y1="177.87" x2="45.46" y2="177.87"/>
          <line class="cls-1" x1=".24" y1="177.87" x2="3.85" y2="177.87"/>
          <line class="cls-1" x1="264.79" y1="182.87" x2="268.77" y2="182.87"/>
          <polyline class="cls-1" points="223.18 182.87 228.85 182.87 253.54 182.87"/>
          <polyline class="cls-1" points="181.56 182.87 206.81 182.87 211.93 182.87"/>
          <polyline class="cls-1" points="139.94 182.87 145.66 182.87 170.31 182.87"/>
          <polyline class="cls-1" points="98.33 182.87 123.62 182.87 128.7 182.87"/>
          <polyline class="cls-1" points="56.71 182.87 62.47 182.87 87.08 182.87"/>
          <polyline class="cls-1" points="15.1 182.87 40.25 182.87 45.46 182.87"/>
          <line class="cls-1" x1=".24" y1="182.87" x2="3.85" y2="182.87"/>
          <polyline class="cls-1" points="72.09 211.84 87.37 203.25 93.05 200.05 97.42 197.6 123.62 182.87"/>
          <polyline class="cls-1" points="114.01 211.84 98.44 203.08 93.05 200.05 88.44 197.46 62.47 182.87"/>
          <path class="cls-1" d="m138.68,200.95c0,2.76-2.24,5-4.99,5s-5-2.24-5-5,2.24-4.99,5-4.99,4.99,2.24,4.99,4.99Z"/>
          <path class="cls-1" d="m222.92,200.95c0,2.76-2.24,5-4.99,5s-5-2.24-5-5,2.24-4.99,5-4.99,4.99,2.24,4.99,4.99Z"/>
          <path class="cls-1" d="m97.42,197.6c.99.88,1.61,2.06,1.61,3.35,0,.76-.21,1.49-.59,2.13-.99,1.69-3.12,2.87-5.59,2.87s-4.46-1.1-5.49-2.7c-.44-.68-.69-1.47-.69-2.3,0-1.37.67-2.59,1.76-3.49,1.12-.92,2.69-1.5,4.41-1.5,1.81,0,3.44.63,4.57,1.64Z"/>
          <polyline class="cls-1" points=".24 205.35 3.99 203.25 9.67 200.05 14.04 197.6 40.25 182.87"/>
          <polyline class="cls-1" points="30.63 211.84 15.06 203.08 9.67 200.05 5.06 197.46 .24 194.76"/>
          <path class="cls-1" d="m14.04,197.6c.99.88,1.61,2.06,1.61,3.35,0,.76-.21,1.49-.59,2.13-.99,1.69-3.12,2.87-5.59,2.87s-4.46-1.1-5.49-2.7c-.44-.68-.69-1.47-.69-2.3,0-1.37.67-2.59,1.76-3.49,1.12-.92,2.69-1.5,4.41-1.5,1.81,0,3.44.63,4.57,1.64Z"/>
          <polyline class="cls-1" points="155.28 211.84 170.55 203.25 176.24 200.05 180.61 197.6 206.81 182.87"/>
          <polyline class="cls-1" points="197.2 211.84 181.63 203.08 176.24 200.05 171.63 197.46 145.66 182.87"/>
          <path class="cls-1" d="m180.61,197.6c.99.88,1.61,2.06,1.61,3.35,0,.76-.21,1.49-.59,2.13-.99,1.69-3.12,2.87-5.59,2.87s-4.46-1.1-5.49-2.7c-.44-.68-.69-1.47-.69-2.3,0-1.37.67-2.59,1.76-3.49,1.12-.92,2.69-1.5,4.41-1.5,1.81,0,3.44.63,4.57,1.64Z"/>
          <polyline class="cls-1" points="238.47 211.84 253.74 203.25 259.43 200.05 263.8 197.59 268.77 194.8"/>
          <polyline class="cls-1" points="268.77 205.3 264.82 203.08 259.43 200.05 254.81 197.46 228.85 182.87"/>
          <path class="cls-1" d="m263.8,197.59c.99.89,1.61,2.06,1.61,3.36,0,.76-.21,1.49-.59,2.13-.99,1.69-3.12,2.87-5.59,2.87s-4.46-1.1-5.49-2.7c-.44-.68-.69-1.47-.69-2.3,0-1.37.67-2.59,1.76-3.49,1.12-.92,2.69-1.5,4.41-1.5,1.81,0,3.44.63,4.57,1.63Z"/>
          <path class="cls-1" d="m53.99,200.95c0,2.76-2.24,5-4.99,5s-5-2.24-5-5,2.24-4.99,5-4.99,4.99,2.24,4.99,4.99Z"/>
          <rect class="cls-1" x="3.85" y="177.87" width="11.25" height="5"/>
          <rect class="cls-1" x="45.46" y="177.87" width="11.25" height="5"/>
          <rect class="cls-1" x="87.08" y="177.87" width="11.25" height="5"/>
          <rect class="cls-1" x="128.7" y="177.87" width="11.25" height="5"/>
          <rect class="cls-1" x="170.31" y="177.87" width="11.25" height="5"/>
          <rect class="cls-1" x="211.93" y="177.87" width="11.25" height="5"/>
          <rect class="cls-1" x="253.54" y="177.87" width="11.25" height="5"/>
        </g>
      </g>
    </g>
  </g>
  <g id="_レイヤー_2" data-name="レイヤー 2">
    <g>
      <g>
        <path class="cls-8" d="m226.88,119.92s27.13,16.57,28.67,16.28c-9.49,2.35-26.13,10.46-27.57,11.76-1.99-6.37-5.48-14.13-8.15-15.36.07-.22.14-.45.2-.67l1.17-6.03c.2-1,.28-2.09.23-3.23h.02l5.42-2.75Z"/>
        <path class="cls-8" d="m227.98,147.95c1.03,3.32,1.65,6.25,1.54,7.69-7.61-5.62-13.01-5.51-19.48-5.81,4.66-5.48,8.18-12,9.8-17.24,2.67,1.23,6.16,8.99,8.15,15.36Z"/>
        <path class="cls-8" d="m226.88,119.92l-5.42,2.75h-.02c-.24-5.68-3.75-12.34-12.58-12.94-1.76-.12-3.55-.04-5.34.19l-.03-.25s8.36-6.41,9.48-6.85,4.2,1.99,5.09,4.86c.88,2.87,8.82,12.25,8.82,12.25Z"/>
        <path class="cls-7" d="m154.77,163.14c-12.25,7.93-20.83,5.81-26.5,5.69-3.64-.06-7.11-2.22-9.84-5.01-1.66-1.68-3.04-3.6-4.02-5.43-.93-1.75-1.5-3.42-1.58-4.71-.25-4.13,1.63-11.46,4.47-14.27.49-.49,1.02-.85,1.56-1.02,0,0,10.29,11.62,15.59,12.8.38.09.76.16,1.14.21,5,.75,10.51-.72,14.74-3.59,1.62-1.1,5.12-4.61,9.24-8.85,5.39-5.55,11.84-12.32,16.49-16.51,1.79-1.61,3.32-2.83,4.41-3.46,5.14-2.94,14.07-7.93,23.04-9.07,1.79-.23,3.58-.31,5.34-.19,8.83.6,12.34,7.26,12.58,12.94.04,1.14-.03,2.23-.23,3.23l-1.17,6.03c-.06.22-.13.44-.2.67-1.62,5.24-5.14,11.76-9.8,17.24-3.91,4.6-8.6,8.48-13.64,10.22-.25.1-.51.18-.77.26-9.79,2.98-22.29,5.11-34.08,4.13-2.2-.18-4.37-.48-6.51-.89l-.27-.41Z"/>
        <path class="cls-3" d="m210.04,149.83c6.47.3,11.87.19,19.48,5.81-11.91,2.32-21.25,5.74-33.12,4.41h0c5.04-1.75,9.74-5.62,13.64-10.23Z"/>
        <path class="cls-8" d="m176.07,118.25v4.2c-4.66,4.19-11.1,10.96-16.49,16.51,0,0-5.61-2.95-10.43-8.24-4.28,13.68-10.83,18.64-13.56,20.68-.38-.05-.76-.12-1.14-.21-5.3-1.17-15.59-12.8-15.59-12.8,0,0-1.95-3.93-2.17-5.69-.22-1.77-.53-5.18,5.53-10.04.94-.76,2.02-1.62,3.24-2.56,1.53-1.17,3.27-2.45,5.23-3.73,6.41-4.2,15.08-8.45,25.93-9.37.99-9.16,1.29-15.22,1.29-15.22-10.73,9.56-22.59,15.51-25.3,16.97.58-1.98,1.18-3.77,1.73-5.17,1.22-3.08,6.18-11.02,7.5-12.35,1.32-1.33,25.3-13.95,25.3-13.95,3.12,2.46,5.37,4.73,6.14,6.87,1.32,3.66,2.79,14.25,2.79,19.1v15Z"/>
        <path class="cls-8" d="m132.61,108.75c-.7,2.38-1.38,5.04-1.92,7.63-1.95,1.28-3.7,2.56-5.23,3.73l-1.27-1.3c7.52-21.91,15.76-41.41,33.71-46.7.48-.15.97-.28,1.47-.4,2.89,1.97,5.55,3.82,7.76,5.57,0,0-23.97,12.62-25.3,13.95-1.32,1.32-6.28,9.26-7.5,12.35-.54,1.4-1.15,3.19-1.73,5.17Z"/>
        <path class="cls-8" d="m157.91,91.78s-.29,6.06-1.29,15.22c-10.84.92-19.52,5.18-25.93,9.37.54-2.59,1.22-5.25,1.92-7.63,2.7-1.46,14.57-7.4,25.3-16.97Z"/>
        <path class="cls-3" d="m149.15,130.72c4.82,5.29,10.43,8.24,10.43,8.24-4.12,4.23-7.62,7.75-9.24,8.85-4.23,2.88-9.74,4.35-14.74,3.59,2.72-2.05,9.28-7.01,13.56-20.68Z"/>
        <path class="cls-3" d="m142.96,62.89c3.18.77,9.87,1.84,14.95,9.22-17.95,5.29-26.19,24.79-33.71,46.7-3.21-3.42-2.43-12.68,1.76-26.69,3.28-10.97,10.08-21.26,17-29.23Z"/>
        <path class="cls-8" d="m101.92,72.11c-.14-1.67-.45-2.71-.45-2.71l.02-.13c2.72.46,5.43-.3,7.77-1.43h0c8.67-1.24,14.06-8.69,14.94-12.57,6.18-1.09,10.81,1.02,17.64,1.29l6.84.28c-1.87,1.82-3.8,3.85-5.72,6.06-6.92,7.97-13.72,18.26-17,29.23-4.19,14-4.97,23.27-1.76,26.69l1.27,1.3c-1.22.93-2.3,1.8-3.24,2.56-6.06,4.86-5.75,8.27-5.53,10.04.22,1.76,2.17,5.69,2.17,5.69-.54.17-1.07.53-1.56,1.02-3.26.43-9.99-2.75-11.08-3.19-1.11-.44-3.09,0-5.51.44-.64.11-1.17.2-1.81.22-1.78.08-4.3-.31-11.86-1.77-6.7-1.3-5.83-8.99-3.56-16.87,1.2-4.19,2.79-8.43,3.85-11.8,2.86-9.1,7.76-16.56,11.54-22.72.25-.41.49-.81.73-1.21.89-1.47,1.46-2.95,1.83-4.36.6-2.32.61-4.47.48-6.05Z"/>
        <path class="cls-8" d="m120.55,53.13l3.65,2.13c-.88,3.88-6.26,11.33-14.94,12.57,1.51-.73,2.87-1.62,3.96-2.41,2.22-1.62,5.08-4.41,6.35-7.17.1-.23-.16-.87-.63-1.7.75-.66,1.84-2.26,1.62-3.42Z"/>
        <path class="cls-6" d="m120.55,53.13c.22,1.16-.86,2.76-1.62,3.42-1.28-2.3-4.08-6.06-4.71-6.8.12-.17.22-.36.26-.58.03-.16.03-.37,0-.62h.02s5.82,3.42,6.04,4.58Z"/>
        <path class="cls-10" d="m114.23,49.75c.63.73,3.43,4.5,4.71,6.8.47.83.73,1.47.63,1.7-1.27,2.76-4.13,5.56-6.35,7.17-1.09.79-2.44,1.68-3.96,2.41h0c-2.33,1.13-5.05,1.89-7.77,1.43-1.16-.19-2.31-.6-3.43-1.3-3.32-2.06-7.28-5.24-10.27-8.07l-.02-.03c-1.96-1.86-3.5-3.56-4.16-4.7-.1-.16-.19-.35-.29-.54-1.61-3.08-3.48-9.19-2.02-16.09.69,1.76,11.25-3.34,14.67-5.76,0,.54,10.67,10.7,10.67,10.7,0,0,3.01,2.43,3.66,2.09.13-.06.24-.25.34-.54h0c.44-.68.45-1.63,1.83-.71,1.17.77,1.93,2.96,2.03,4.22.03.25.03.47,0,.62-.04.22-.14.41-.26.58Z"/>
        <path class="cls-7" d="m74.54,113.05c1.05,2.4,3.37,3.48,8.59,5.1l.35.1c-2.27,7.89-3.14,15.58,3.56,16.87,7.56,1.46,10.08,1.85,11.86,1.77l.04,1.5c-.22.92-9.37,15.92-10.47,17.24-1.11,1.32-3.09,1.32,0,2.76,3.08,1.43,20.98,4.58,25.95,0,.98,1.82,2.36,3.74,4.02,5.43-16.12,2.94-24.57,1.49-35.31-3.03-1.32,1.95-18.36-1.66-18.36-1.66-2.34.69-6.1-.59-9.94-2.5,0,0-.67,1.17-6.99,2.5-6.32,1.32-16.76-10.88-17.94-13.09-1.17-2.2-.29-3.97,0-4.98.22-.78,6.6-7.96,9.62-11.33.94-1.05,1.56-1.73,1.56-1.73h0c-3.14-5.63-6.11-12.58-6.33-18.34-.06-1.62.15-3.2.58-4.72,2.58-9.16,13.1-16.11,19.27-16.14,3.22-.02,6.91,2.11,10.17,5.05,4.03,3.64,7.39,8.53,8.36,12.19.58,2.19,1,4.59,1.41,7.01Z"/>
        <path class="cls-8" d="m106.22,136.23c1.1.44,7.83,3.62,11.08,3.19-2.83,2.81-4.72,10.14-4.47,14.27.08,1.29.65,2.95,1.58,4.71-4.98,4.58-22.87,1.43-25.95,0-3.09-1.43-1.11-1.43,0-2.76,1.1-1.32,10.26-16.33,10.47-17.24l-.04-1.5c.64-.03,1.17-.11,1.81-.22,2.42-.44,4.41-.88,5.51-.44Z"/>
        <path class="cls-6" d="m97.21,22.23c.73,2.6-.03,5.37,2.28,7.34,2.32,1.99,9.93,8.83,10.81,10.48.71,1.33.71,3.84.34,4.97h0c-.1.29-.21.48-.34.54-.66.34-3.66-2.09-3.66-2.09,0,0-10.67-10.15-10.67-10.7-3.42,2.42-13.98,7.52-14.67,5.76,0-.48-2.21-3.56,2.97-11.5s7.84-19.3,7.84-21.84,4.3-6.18,7.5-4.08c3.2,2.09,5.51,5.4,6.51,7.5.99,2.09.67,4.19-1.65,6.39-2.41,2.24-5.14,5.02-7.25,7.21Z"/>
        <path class="cls-3" d="m101.42,78.16h0c-.37,1.42-.94,2.89-1.83,4.36-.24.4-.48.79-.73,1.21-1.9.21-3.78.48-5.61.79,0,0,.94-1.74,1.36-2.54.42-.79,2.39-1.37,3.33-2.7.22-.32.42-.71.59-1.12,0,0,2.89-.04,2.89,0Z"/>
        <path class="cls-10" d="m99.56,72.25l.02.07s1.27.04,1.42.46c.16.42-.7,1.48-1.29,1.36-.59-.13-.98.09-.98.09.45.97.32,2.63-.19,3.94-.16.41-.36.8-.59,1.12-.94,1.33-2.91,1.91-3.33,2.7-.41.8-1.36,2.54-1.36,2.54-1.4.25-2.78.52-4.12.82-.03,0-.06,0-.09.02.03-.79.85-5.26,1.39-7.19.09-.35.18-.61.25-.76.77-1.55,1.24-3.49,1.56-5.1h0c.3-1.48.48-2.68.69-3.02.29-.51.86-.81,1.61-.92.31-.04.65-.06,1.02-.04,1.27.04,1.65.38.92.89v.06c.7-.15,1.51-.27,1.87-.17.6.16,1.74.7.03,1.4-.03.02-.07.03-.1.03l.06.15c.74-.3,1.86.27,2,.6.14.31.1.67-.81.96Z"/>
        <path class="cls-4" d="m87.78,59.89l6.77,8.48c-.75.11-1.31.41-1.61.92-.21.34-.39,1.54-.69,3.01l-9.13-15.08c-.46-1-1.32-1.5,0-2.5l.19-.1c.1.19.2.37.29.54.66,1.14,2.19,2.84,4.16,4.7l.02.03Z"/>
        <path class="cls-8" d="m98.87,83.73c-3.78,6.16-8.68,13.62-11.54,22.72-1.06,3.37-2.65,7.61-3.85,11.8l-.35-.1c-5.22-1.62-7.53-2.7-8.59-5.1-.41-2.42-.83-4.82-1.41-7.01-.98-3.66-4.34-8.55-8.36-12.19,0,0,5.26-2.71,13.22-5.39,3.29-1.11,7.04-2.2,11.07-3.1,0,.16.02.16.09-.02,1.34-.3,2.72-.57,4.12-.82,1.83-.32,3.71-.59,5.61-.79Z"/>
        <path class="cls-3" d="m90.39,78.16l.05.02c-.54,1.93-1.37,6.39-1.39,7.19-4.03.9-7.78,2-11.07,3.1,0,0,8.94-9.79,12.41-10.31Z"/>
        <path class="cls-8" d="m34.75,109.66c.22,5.76,3.2,12.71,6.33,18.34h0s-.61.68-1.56,1.73c-10.09-1.84-19.25-10.52-21.75-13.36-2.54-2.87.1-3.42,1.65-4.52,1.52-1.09,15.46-6.74,15.91-6.91-.43,1.52-.64,3.1-.58,4.72Z"/>
      </g>
      <g>
        <path class="cls-2" d="m110.63,45.03c-.1.29-.21.48-.34.54-.66.34-3.66-2.09-3.66-2.09,0,0-10.67-10.15-10.67-10.7-3.42,2.42-13.98,7.52-14.67,5.76,0-.48-2.21-3.56,2.97-11.5s7.84-19.3,7.84-21.84,4.3-6.18,7.5-4.08c3.2,2.09,5.51,5.4,6.51,7.5.99,2.09.67,4.19-1.65,6.39-2.41,2.24-5.14,5.02-7.25,7.21-2.04,2.13-3.5,3.71-3.5,3.71"/>
        <path class="cls-2" d="m97.21,22.23c.73,2.6-.03,5.37,2.28,7.34,2.32,1.99,9.93,8.83,10.81,10.48.71,1.33.71,3.84.34,4.97"/>
        <path class="cls-2" d="m110.63,45.03h0c.44-.68.45-1.63,1.83-.71,1.17.77,1.93,2.96,2.03,4.22.03.25.03.47,0,.62-.04.22-.14.41-.26.58-.44.6-1.27.92-1.47.6"/>
        <path class="cls-2" d="m87.77,59.87c-1.96-1.86-3.5-3.56-4.16-4.7-.1-.16-.19-.35-.29-.54-1.61-3.08-3.48-9.19-2.02-16.09"/>
        <path class="cls-2" d="m109.25,67.83c-2.33,1.13-5.05,1.89-7.77,1.43-1.16-.19-2.31-.6-3.43-1.3-3.32-2.06-7.28-5.24-10.27-8.07"/>
        <path class="cls-2" d="m114.23,49.75c.63.73,3.43,4.5,4.71,6.8.47.83.73,1.47.63,1.7-1.27,2.76-4.13,5.56-6.35,7.17-1.09.79-2.44,1.68-3.96,2.41"/>
        <path class="cls-2" d="m114.51,48.55s5.82,3.42,6.04,4.58c.22,1.16-.86,2.76-1.62,3.42"/>
        <line class="cls-2" x1="83.13" y1="50.16" x2="86.37" y2="48.55"/>
        <line class="cls-2" x1="93.72" y1="42.96" x2="97.1" y2="41.13"/>
        <path class="cls-2" d="m92.17,53.97c.96,1.86,2.58,7.59,3.68,7.66,1.1.07,3.02-1.62,3.02-1.62"/>
        <path class="cls-2" d="m98.87,57.22s2.06,1.55,2.06,2.06"/>
        <path class="cls-2" d="m97.69,49.36s3.02-2.43,3.82-2.51"/>
        <path class="cls-2" d="m87.32,56.55s3.16-2.44,3.82-2.57"/>
        <polyline class="cls-2" points="100.18 62.74 102.76 61.64 101.95 64.13"/>
        <path class="cls-2" d="m120.55,53.13l3.65,2.13c-.88,3.88-6.26,11.33-14.94,12.57h0"/>
        <path class="cls-2" d="m124.2,55.26c6.18-1.09,10.81,1.02,17.64,1.29l6.84.28c-1.87,1.82-3.8,3.85-5.72,6.06-6.92,7.97-13.72,18.26-17,29.23-4.19,14-4.97,23.27-1.76,26.69,7.52-21.91,15.76-41.41,33.71-46.7.48-.15.97-.28,1.47-.4,2.89,1.97,5.55,3.82,7.76,5.57,3.12,2.46,5.37,4.73,6.14,6.87,1.32,3.66,2.79,14.25,2.79,19.1v19.41"/>
        <path class="cls-2" d="m155.04,163.55c2.13.41,4.3.71,6.51.89,11.79.98,24.29-1.15,34.08-4.13.26-.08.52-.16.77-.26,5.04-1.75,9.74-5.62,13.64-10.22,4.66-5.48,8.18-12,9.8-17.24.07-.22.14-.45.2-.67l1.17-6.03c.2-1,.28-2.09.23-3.23-.24-5.68-3.75-12.34-12.58-12.94-1.76-.12-3.55-.04-5.34.19-8.97,1.14-17.9,6.13-23.04,9.07-1.1.63-2.63,1.86-4.41,3.46-4.66,4.19-11.1,10.96-16.49,16.51-4.12,4.23-7.62,7.75-9.24,8.85-4.23,2.88-9.74,4.35-14.74,3.59-.38-.05-.76-.12-1.14-.21-5.3-1.17-15.59-12.8-15.59-12.8-.54.17-1.07.53-1.56,1.02-2.83,2.81-4.72,10.14-4.47,14.27.08,1.29.65,2.95,1.58,4.71.98,1.82,2.36,3.74,4.02,5.43,2.73,2.79,6.2,4.95,9.84,5.01,5.67.11,14.25,2.24,26.5-5.69,4.92-3.18,10.44-7.98,16.59-15.19"/>
        <path class="cls-2" d="m161.55,164.44c10.4-6.92,25.41-18.83,26.14-20.6,1.03,2.2,0,8.82,0,8.82l-5.59.44"/>
        <path class="cls-2" d="m135.59,151.4c2.72-2.05,9.28-7.01,13.56-20.68,4.82,5.29,10.43,8.24,10.43,8.24"/>
        <path class="cls-2" d="m134.34,126.53s2,5.18,19.19,2.53"/>
        <path class="cls-2" d="m139.75,116.38s26.54,6.51,36.32,1.87"/>
        <path class="cls-2" d="m118.87,138.4s-1.95-3.93-2.17-5.69c-.22-1.77-.53-5.18,5.53-10.04.94-.76,2.02-1.62,3.24-2.56,1.53-1.17,3.27-2.45,5.23-3.73,6.41-4.2,15.08-8.45,25.93-9.37.99-9.16,1.29-15.22,1.29-15.22-10.73,9.56-22.59,15.51-25.3,16.97-.02,0-.03,0-.03.02"/>
        <path class="cls-2" d="m167.14,77.28s-23.97,12.62-25.3,13.95c-1.32,1.32-6.28,9.26-7.5,12.35-.54,1.4-1.15,3.19-1.73,5.17-.7,2.38-1.38,5.04-1.92,7.63"/>
        <path class="cls-2" d="m142.96,62.89c3.18.77,9.87,1.84,14.95,9.22"/>
        <path class="cls-2" d="m109.25,77.28c-.39.6-.83,3.91-3.7,9.43s-11.02,26.25-10.14,45.88"/>
        <path class="cls-2" d="m101.47,69.4s.31,1.05.45,2.71c.13,1.58.11,3.72-.48,6.05-.37,1.42-.94,2.89-1.83,4.36-.24.4-.48.79-.73,1.21-3.78,6.16-8.68,13.62-11.54,22.72-1.06,3.37-2.65,7.61-3.85,11.8-2.27,7.89-3.14,15.58,3.56,16.87,7.56,1.46,10.08,1.85,11.86,1.77.64-.03,1.17-.11,1.81-.22,2.42-.44,4.41-.88,5.51-.44,1.1.44,7.83,3.62,11.08,3.19"/>
        <path class="cls-2" d="m98.94,138.4c-.22.92-9.37,15.92-10.47,17.24-1.11,1.32-3.09,1.32,0,2.76,3.08,1.43,20.98,4.58,25.95,0"/>
        <path class="cls-2" d="m83.13,118.15c-5.22-1.62-7.53-2.7-8.59-5.1-.23-.51-.4-1.07-.53-1.71"/>
        <path class="cls-2" d="m77.99,126.53c-1.87-3.57-2.63-8.57-3.45-13.48-.41-2.42-.83-4.82-1.41-7.01-.98-3.66-4.34-8.55-8.36-12.19-3.26-2.94-6.95-5.06-10.17-5.05-6.18.03-16.69,6.98-19.27,16.14-.43,1.52-.64,3.1-.58,4.72.22,5.76,3.2,12.71,6.33,18.34,3.05,5.49,6.25,9.74,7.2,10.39"/>
        <path class="cls-2" d="m64.77,93.85s5.26-2.71,13.22-5.39c3.29-1.11,7.04-2.2,11.07-3.1.03,0,.05,0,.09-.02,1.34-.3,2.72-.57,4.12-.82,1.83-.32,3.71-.59,5.61-.79"/>
        <path class="cls-2" d="m77.99,88.46s8.94-9.79,12.41-10.31"/>
        <path class="cls-2" d="m50.93,136.2l-3.09-9.67,9.12.84c-3.27,6.96-3.54,17.48.31,23.04,1.68,2.43,4.15,3.91,7.5,3.73"/>
        <path class="cls-2" d="m41.07,131.49s4.16,16.36,16.2,18.92"/>
        <path class="cls-2" d="m83.13,136.2s-11.02,16.47-16.03,15.88"/>
        <path class="cls-2" d="m41.07,147.95s7.01,5.31,13.75,8.68c3.84,1.91,7.6,3.19,9.94,2.5.72-1.76,2.33-3.52,2.33-3.52"/>
        <path class="cls-2" d="m64.77,159.13s17.04,3.61,18.36,1.66c10.74,4.52,19.19,5.97,35.31,3.03"/>
        <path class="cls-2" d="m41.07,128.01s-.61.68-1.56,1.73c-3.02,3.37-9.39,10.55-9.62,11.33-.29,1.02-1.17,2.78,0,4.98,1.17,2.21,11.61,14.41,17.94,13.09,6.32-1.32,6.99-2.5,6.99-2.5"/>
        <path class="cls-2" d="m35.33,104.94h0c-.44.18-14.38,5.83-15.91,6.92-1.55,1.1-4.19,1.65-1.65,4.52,2.5,2.83,11.65,11.52,21.75,13.36.14.03.28.05.41.08"/>
        <path class="cls-2" d="m101.92,72.11s4.52,2.52,12.6.43c4.98-1.3,14.83-7.38,17.61-14.29"/>
        <line class="cls-2" x1="126.52" y1="59.57" x2="130.15" y2="61.64"/>
        <path class="cls-2" d="m219.84,132.59c2.67,1.23,6.16,8.99,8.15,15.36,1.03,3.32,1.65,6.25,1.54,7.69-11.91,2.32-21.25,5.74-33.12,4.41"/>
        <path class="cls-2" d="m210.04,149.83c6.47.3,11.87.19,19.48,5.81"/>
        <path class="cls-1" d="m95.48,69.53c.2-.06.59-.16,1.03-.25.69-.15,1.5-.27,1.87-.17.6.16,1.74.7.03,1.4-.03.02-.07.03-.1.03l-1.51.62"/>
        <path class="cls-1" d="m98.37,70.69c.74-.3,1.86.27,2,.6.14.31.1.67-.81.96-.08.03-.16.05-.26.08-1.17.3-1.47.34-1.47.34"/>
        <path class="cls-1" d="m99.58,72.32s1.27.04,1.42.46c.16.42-.7,1.48-1.29,1.36-.59-.13-.98.09-.98.09.45.97.32,2.63-.19,3.94-.16.41-.36.8-.59,1.12-.94,1.33-2.91,1.91-3.33,2.7-.41.8-1.36,2.54-1.36,2.54"/>
        <path class="cls-1" d="m92.26,72.31c.3-1.47.48-2.67.69-3.01.29-.51.86-.81,1.61-.92.31-.04.65-.06,1.02-.04,1.27.04,1.65.38.92.89"/>
        <path class="cls-1" d="m89.14,85.34c-.07.18-.1.17-.09.02.03-.79.85-5.26,1.39-7.19.09-.35.18-.61.25-.76.77-1.55,1.24-3.49,1.56-5.1"/>
        <path class="cls-1" d="m98.54,78.16s2.89-.04,2.89,0"/>
        <path class="cls-1" d="m92.26,72.32h0s-9.13-15.09-9.13-15.09c-.46-1-1.32-1.5,0-2.5"/>
        <line class="cls-1" x1="87.78" y1="59.89" x2="94.56" y2="68.38"/>
        <line class="cls-2" x1="87.77" y1="59.87" x2="87.78" y2="59.89"/>
        <path class="cls-1" d="m203.49,109.66s8.36-6.41,9.48-6.85,4.2,1.99,5.09,4.86c.88,2.87,8.82,12.25,8.82,12.25l-5.42,2.75"/>
        <path class="cls-1" d="m226.88,119.92s27.13,16.57,28.67,16.28c-9.49,2.35-26.13,10.46-27.57,11.76"/>
      </g>
    </g>
  </g>
</svg>