<?xml version="1.0" encoding="utf-8"?>
<!-- Generator: Adobe Illustrator 27.8.1, SVG Export Plug-In . SVG Version: 6.00 Build 0)  -->
<svg version="1.1" id="レイヤー_1" xmlns="http://www.w3.org/2000/svg" xmlns:xlink="http://www.w3.org/1999/xlink" x="0px"
	 y="0px" viewBox="0 0 270 200" style="enable-background:new 0 0 270 200;" xml:space="preserve">
<style type="text/css">
	.st0{fill:#FFFEF1;}
	.st1{fill:#CCB1B8;}
	.st2{fill:#BA5549;}
	.st3{fill:#333333;}
	.st4{fill:#F8E1BF;}
	.st5{fill:none;stroke:#000000;stroke-linecap:round;stroke-linejoin:round;stroke-miterlimit:10;}
	.st6{fill:none;stroke:#000000;stroke-miterlimit:10;}
</style>
<g id="XMLID_00000089549739890608683850000005882281980672780720_">
	<g>
		<path class="st0" d="M235.41,142.17c0,0,30.02,18.33,31.73,18.01c-10.5,2.6-28.92,11.58-30.51,13.01c-2.19-7.05-6.05-15.64-9-17
			c0.08-0.25,0.15-0.5,0.22-0.74c0,0,0,0,1.3-6.67c0.22-1.11,0.31-2.31,0.25-3.58h0.02L235.41,142.17z"/>
		<path class="st0" d="M236.62,173.19c1.15,3.67,1.84,6.92,1.71,8.51c-8.42-6.22-14.4-6.11-21.56-6.43
			c5.15-6.07,9.05-13.29,10.84-19.07C230.57,157.55,234.43,166.14,236.62,173.19z"/>
		<path class="st0" d="M235.41,142.17l-6,3.04h-0.02c-0.26-6.29-4.15-13.64-13.92-14.32c-1.95-0.13-3.93-0.05-5.9,0.21l-0.04-0.28
			c0,0,9.25-7.09,10.49-7.58c1.23-0.49,4.65,2.2,5.62,5.37C226.61,131.78,235.41,142.17,235.41,142.17z"/>
		<path class="st1" d="M163.12,191.43c-2.44-0.2-4.84-0.53-7.2-0.98l-0.29-0.44c-13.55,8.76-23.06,6.4-29.33,6.29
			c-4.01-0.07-7.87-2.46-10.89-5.54c-1.84-1.86-3.36-3.99-4.45-6c-1.03-1.94-1.66-3.79-1.75-5.21c-0.29-4.57,1.8-12.68,4.93-15.79
			c0.54-0.54,1.13-0.94,1.73-1.13c0,0,11.39,12.86,17.25,14.16c0.42,0.1,0.84,0.17,1.26,0.23c5.53,0.83,11.62-0.8,16.31-3.98
			c1.8-1.21,5.67-5.1,10.22-9.79c5.96-6.14,13.11-13.64,18.26-18.28c1.98-1.78,3.66-3.13,4.88-3.82c5.7-3.25,15.58-8.78,25.5-10.04
			c1.97-0.26,3.95-0.34,5.9-0.21c9.77,0.68,13.66,8.03,13.92,14.32c0.06,1.26-0.03,2.47-0.25,3.58c-1.3,6.67-1.3,6.67-1.3,6.67
			c-0.07,0.24-0.14,0.49-0.22,0.74c-1.79,5.78-5.69,13-10.84,19.07c-4.32,5.1-9.52,9.38-15.09,11.31c-0.28,0.11-0.56,0.2-0.85,0.29
			C190,190.16,176.17,192.52,163.12,191.43z"/>
		<path class="st2" d="M216.78,175.26c7.16,0.33,13.13,0.21,21.56,6.43c-13.18,2.56-23.52,6.35-36.65,4.88v-0.01
			C207.26,184.64,212.46,180.36,216.78,175.26z"/>
		<path class="st0" d="M179.19,140.32c0,2.27,0,4.01,0,4.64c-5.15,4.64-12.29,12.14-18.26,18.28c0,0-6.19-3.27-11.53-9.12
			c-4.73,15.13-12,20.62-15,22.88c-0.42-0.06-0.84-0.13-1.26-0.23c-5.86-1.3-17.25-14.16-17.25-14.16s-2.15-4.35-2.4-6.31
			c-0.24-1.95-0.57-5.74,6.12-11.1c1.04-0.84,2.24-1.8,3.58-2.83c1.69-1.3,3.62-2.71,5.79-4.13c7.09-4.65,16.69-9.35,28.69-10.37
			c1.1-10.13,1.42-16.84,1.42-16.84c-11.87,10.58-25,17.16-27.99,18.77c0.64-2.19,1.3-4.17,1.91-5.72c1.34-3.41,6.83-12.2,8.3-13.67
			c1.46-1.46,27.99-15.43,27.99-15.43c3.45,2.72,5.94,5.24,6.79,7.6c1.46,4.05,3.1,15.76,3.1,21.14
			C179.19,127.2,179.19,135.13,179.19,140.32z"/>
		<path class="st0" d="M131.11,129.81c-0.78,2.63-1.53,5.57-2.12,8.44c-2.17,1.41-4.1,2.83-5.79,4.13l-1.41-1.44
			c8.33-24.24,17.45-45.82,37.31-51.67c0.54-0.16,1.07-0.31,1.63-0.44c3.19,2.18,6.14,4.23,8.58,6.17c0,0-26.53,13.97-27.99,15.43
			c-1.46,1.47-6.96,10.26-8.3,13.67C132.41,125.64,131.75,127.62,131.11,129.81z"/>
		<path class="st0" d="M159.1,111.03c0,0-0.33,6.71-1.42,16.84c-12,1.02-21.59,5.73-28.69,10.37c0.59-2.87,1.34-5.81,2.12-8.44
			C134.1,128.19,147.23,121.62,159.1,111.03z"/>
		<path class="st2" d="M149.41,154.12c5.33,5.85,11.53,9.12,11.53,9.12c-4.55,4.68-8.42,8.57-10.22,9.79
			c-4.68,3.17-10.77,4.81-16.31,3.98C137.41,174.74,144.67,169.25,149.41,154.12z"/>
		<path class="st2" d="M142.55,79.07c3.53,0.85,10.93,2.04,16.55,10.2c-19.86,5.85-28.98,27.43-37.31,51.67
			c-3.54-3.79-2.68-14.03,1.96-29.53C127.38,99.27,134.89,87.89,142.55,79.07z"/>
		<path class="st0" d="M97.15,89.27c-0.15-1.84-0.5-3-0.5-3l0.02-0.14c3.01,0.51,6.01-0.34,8.59-1.59h0.01
			c9.6-1.37,15.54-9.62,16.52-13.91c6.83-1.2,11.96,1.12,19.53,1.42c7.56,0.3,7.56,0.3,7.56,0.3c-2.06,2.02-4.21,4.27-6.33,6.72
			c-7.66,8.82-15.17,20.2-18.8,32.34c-4.64,15.5-5.5,25.74-1.96,29.53l1.41,1.44c-1.35,1.03-2.54,1.99-3.58,2.83
			c-6.69,5.36-6.36,9.15-6.12,11.1c0.25,1.96,2.4,6.31,2.4,6.31c-0.6,0.19-1.19,0.58-1.73,1.13c-3.59,0.48-11.04-3.04-12.25-3.53
			c-1.22-0.49-3.42,0-6.11,0.49c-0.71,0.12-1.3,0.22-2,0.25c-1.96,0.09-4.75-0.33-13.13-1.96c-7.42-1.43-6.44-9.95-3.93-18.68
			c1.33-4.64,3.09-9.32,4.25-13.05c3.17-10.07,8.59-18.32,12.78-25.14c0.28-0.46,0.54-0.9,0.81-1.34c0.98-1.63,1.62-3.27,2.02-4.84
			C97.26,93.38,97.29,91.02,97.15,89.27z"/>
		<path class="st0" d="M117.76,68.27l4.02,2.36c-0.98,4.29-6.92,12.54-16.52,13.91c1.67-0.81,3.17-1.79,4.38-2.67
			c2.46-1.79,5.61-4.88,7.02-7.93c0.11-0.26-0.17-0.97-0.69-1.88C116.81,71.33,118.01,69.55,117.76,68.27z"/>
		<path class="st3" d="M117.76,68.27c0.25,1.28-0.96,3.06-1.79,3.79c-1.41-2.54-4.51-6.71-5.22-7.52c0.14-0.19,0.25-0.41,0.3-0.64
			c0.03-0.17,0.04-0.41,0.01-0.69h0.02C111.08,63.2,117.53,66.99,117.76,68.27z"/>
		<path class="st4" d="M110.76,64.53c0.71,0.81,3.8,4.98,5.22,7.52c0.52,0.92,0.8,1.63,0.69,1.88c-1.41,3.06-4.56,6.15-7.02,7.93
			c-1.2,0.88-2.71,1.85-4.38,2.67h-0.01c-2.58,1.24-5.58,2.09-8.59,1.59c-1.28-0.21-2.55-0.67-3.79-1.44
			c-3.69-2.28-8.09-5.82-11.39-8.96c-2.17-2.06-3.87-3.95-4.59-5.2c-0.11-0.18-0.21-0.38-0.33-0.59c-1.78-3.41-3.85-10.17-2.25-17.8
			c0.76,1.95,12.46-3.7,16.23-6.39c0,0.61,11.82,11.84,11.82,11.84s3.32,2.69,4.05,2.31c0.14-0.07,0.27-0.29,0.37-0.59V59.3
			c0.48-0.75,0.49-1.8,2.03-0.77c1.29,0.84,2.12,3.28,2.25,4.67c0.03,0.28,0.02,0.52-0.01,0.69
			C111.01,64.12,110.9,64.34,110.76,64.53z"/>
		<path class="st1" d="M29.82,151.12c-3.46-6.22-6.75-13.92-7-20.29c-0.07-1.79,0.16-3.54,0.64-5.22
			c2.86-10.13,14.49-17.83,21.33-17.86c3.57-0.02,7.65,2.32,11.24,5.58c4.46,4.01,8.18,9.43,9.26,13.49
			c0.65,2.43,1.12,5.1,1.57,7.79c1.18,2.63,3.74,3.82,9.49,5.6l0.38,0.11c-2.51,8.73-3.49,17.24,3.93,18.68
			c8.38,1.63,11.17,2.05,13.13,1.96l0.05,1.66c-0.25,1.01-10.37,17.62-11.6,19.08c-1.21,1.46-3.41,1.46,0,3.05
			c3.42,1.59,23.22,5.07,28.73,0c1.08,2.02,2.61,4.14,4.45,6c-17.84,3.25-27.19,1.64-39.07-3.36c-1.46,2.16-20.32-1.84-20.32-1.84
			c-2.59,0.76-6.75-0.65-10.99-2.76c0,0-0.74,1.3-7.73,2.76s-18.54-12.04-19.84-14.48c-1.31-2.44-0.33-4.39,0-5.52
			c0.25-0.86,7.3-8.8,10.64-12.53C29.14,151.87,29.82,151.12,29.82,151.12z"/>
		<path class="st0" d="M101.91,160.22c1.21,0.49,8.66,4.01,12.25,3.53c-3.14,3.12-5.22,11.22-4.93,15.79
			c0.09,1.42,0.72,3.27,1.75,5.21c-5.51,5.07-25.3,1.59-28.73,0c-3.41-1.59-1.21-1.59,0-3.05c1.22-1.46,11.35-18.07,11.6-19.08
			l-0.05-1.66c0.7-0.03,1.29-0.12,2-0.25C98.48,160.22,100.68,159.73,101.91,160.22z"/>
		<path class="st3" d="M91.93,34.09c0.82,2.88-0.03,5.92,2.53,8.12s10.98,9.77,11.96,11.6c0.78,1.46,0.78,4.25,0.37,5.5v0.01
			c-0.11,0.31-0.23,0.53-0.37,0.59c-0.74,0.37-4.05-2.31-4.05-2.31S90.55,46.36,90.55,45.75c-3.78,2.69-15.47,8.34-16.23,6.39
			c0-0.53-2.44-3.94,3.3-12.72c5.74-8.79,8.67-21.36,8.67-24.17s4.75-6.83,8.3-4.51c3.54,2.31,6.1,5.97,7.2,8.3
			c1.1,2.31,0.73,4.64-1.84,7.07C97.28,28.59,94.26,31.67,91.93,34.09z"/>
		<path class="st2" d="M93.41,95.95c0,0,3.2-0.04,3.19,0c-0.4,1.57-1.04,3.21-2.02,4.84c-0.27,0.44-0.54,0.88-0.81,1.34
			c-2.1,0.23-4.18,0.53-6.2,0.88c0,0,1.04-1.93,1.5-2.81c0.47-0.88,2.65-1.52,3.69-2.99C93.01,96.85,93.23,96.42,93.41,95.95z"/>
		<path class="st4" d="M93.15,87.54l0.07,0.16c0.82-0.33,2.06,0.3,2.22,0.66c0.14,0.34,0.11,0.75-0.9,1.06l0.02,0.08
			c0,0,1.41,0.04,1.57,0.51s-0.78,1.63-1.43,1.49c-0.65-0.13-1.07,0.11-1.07,0.11c0.5,1.07,0.34,2.9-0.21,4.35
			c-0.18,0.47-0.4,0.9-0.65,1.25c-1.04,1.47-3.22,2.11-3.69,2.99c-0.46,0.88-1.5,2.81-1.5,2.81c-1.56,0.28-3.08,0.58-4.57,0.91
			c-0.03,0.01-0.06,0.01-0.09,0.02c0.02-0.83,0.94-5.82,1.54-7.96c0.11-0.38,0.2-0.67,0.28-0.83c0.85-1.71,1.37-3.86,1.73-5.64
			v-0.01c0.33-1.63,0.54-2.95,0.76-3.33c0.33-0.56,0.96-0.9,1.79-1.02c0.33-0.05,0.72-0.07,1.12-0.05c1.41,0.05,1.84,0.42,1.03,0.98
			l0.01,0.07c0.76-0.16,1.66-0.3,2.06-0.19c0.67,0.18,1.92,0.76,0.02,1.55C93.22,87.51,93.18,87.53,93.15,87.54z"/>
		<path class="st0" d="M93.77,102.13c-4.19,6.82-9.61,15.07-12.78,25.14c-1.17,3.73-2.93,8.41-4.25,13.05l-0.38-0.11
			c-5.75-1.78-8.32-2.97-9.49-5.6c-0.45-2.7-0.92-5.36-1.57-7.79c-1.08-4.05-4.8-9.47-9.26-13.49c0,0,5.83-3,14.63-5.96
			c3.64-1.22,7.79-2.44,12.25-3.43c-0.01,0.16,0.02,0.17,0.09-0.02c1.49-0.33,3.01-0.63,4.57-0.91
			C89.59,102.65,91.67,102.36,93.77,102.13z"/>
		<path class="st2" d="M84.39,95.95l0.06,0.02c-0.6,2.14-1.52,7.13-1.54,7.96c-4.46,0.99-8.61,2.21-12.25,3.43
			C70.66,107.36,80.55,96.53,84.39,95.95z"/>
		<path class="st0" d="M22.82,130.82c0.25,6.38,3.54,14.07,7,20.29c0,0-0.68,0.76-1.72,1.91c-11.17-2.04-21.3-11.64-24.07-14.78
			c-2.8-3.17,0.12-3.79,1.84-5c1.67-1.2,17.11-7.46,17.6-7.65C22.99,127.29,22.76,129.03,22.82,130.82z"/>
	</g>
	<g>
		<path class="st5" d="M106.79,59.31c-0.11,0.31-0.23,0.53-0.37,0.59c-0.74,0.37-4.05-2.31-4.05-2.31S90.55,46.36,90.55,45.75
			c-3.78,2.69-15.47,8.34-16.23,6.39c0-0.53-2.44-3.94,3.3-12.72c5.74-8.79,8.67-21.36,8.67-24.17s4.75-6.83,8.3-4.51
			c3.54,2.31,6.1,5.97,7.2,8.3c1.1,2.31,0.73,4.64-1.84,7.07c-2.67,2.49-5.69,5.56-8.02,7.99c-2.26,2.35-3.86,4.09-3.86,4.09"/>
		<path class="st5" d="M91.93,34.08L91.93,34.08c0.82,2.89-0.03,5.93,2.53,8.13s10.98,9.77,11.96,11.6c0.78,1.46,0.78,4.25,0.37,5.5
			"/>
		<path class="st5" d="M106.79,59.31L106.79,59.31c0.48-0.76,0.49-1.81,2.03-0.78c1.29,0.84,2.12,3.28,2.25,4.67
			c0.03,0.28,0.02,0.52-0.01,0.69c-0.05,0.23-0.15,0.45-0.3,0.64c-0.48,0.67-1.4,1.01-1.62,0.66"/>
		<path class="st5" d="M105.26,84.54c-2.58,1.24-5.58,2.09-8.59,1.59c-1.28-0.21-2.55-0.67-3.79-1.44
			c-3.69-2.28-8.09-5.82-11.39-8.96c-2.17-2.06-3.87-3.95-4.59-5.2c-0.11-0.18-0.21-0.38-0.33-0.59c-1.78-3.41-3.85-10.17-2.25-17.8
			"/>
		<path class="st5" d="M110.76,64.53c0.71,0.81,3.8,4.98,5.22,7.52c0.52,0.92,0.8,1.63,0.69,1.88c-1.41,3.06-4.56,6.15-7.02,7.93
			c-1.2,0.88-2.71,1.85-4.38,2.67"/>
		<path class="st5" d="M111.08,63.2c0,0,6.44,3.79,6.68,5.07c0.25,1.28-0.96,3.06-1.79,3.79"/>
		<line class="st5" x1="76.35" y1="64.99" x2="79.94" y2="63.2"/>
		<line class="st5" x1="88.07" y1="57.02" x2="91.81" y2="54.98"/>
		<path class="st5" d="M86.36,69.2c1.06,2.06,2.86,8.39,4.07,8.48c1.21,0.08,3.34-1.79,3.34-1.79"/>
		<path class="st5" d="M93.77,72.8c0,0,2.28,1.71,2.28,2.28"/>
		<path class="st5" d="M92.46,64.1c0,0,3.34-2.69,4.23-2.77"/>
		<path class="st5" d="M80.99,72.05c0,0,3.5-2.71,4.23-2.85"/>
		<polyline class="st5" points="95.21,78.91 98.08,77.68 97.18,80.45 		"/>
		<path class="st5" d="M117.76,68.27l4.02,2.36c-0.98,4.29-6.92,12.54-16.52,13.91h-0.01"/>
		<path class="st5" d="M121.79,70.63c6.83-1.2,11.96,1.12,19.53,1.42c7.56,0.3,7.56,0.3,7.56,0.3c-2.06,2.02-4.21,4.27-6.33,6.72
			c-7.66,8.82-15.17,20.2-18.8,32.34c-4.64,15.5-5.5,25.74-1.96,29.53c8.33-24.24,17.45-45.82,37.31-51.67
			c0.54-0.16,1.07-0.31,1.63-0.44c3.19,2.18,6.14,4.23,8.58,6.17c3.45,2.72,5.94,5.24,6.79,7.6c1.46,4.05,3.1,15.76,3.1,21.14
			c0,3.47,0,11.4,0,16.59c0,2.27,0,4.01,0,4.64c0,0.16,0,0.25,0,0.25"/>
		<path class="st5" d="M155.92,190.44c2.36,0.46,4.76,0.78,7.2,0.98c13.05,1.09,26.88-1.27,37.71-4.57
			c0.29-0.09,0.57-0.18,0.85-0.29c5.57-1.93,10.77-6.21,15.09-11.31c5.15-6.07,9.05-13.29,10.84-19.07c0.08-0.25,0.15-0.5,0.22-0.74
			c0,0,0,0,1.3-6.67c0.22-1.11,0.31-2.31,0.25-3.58c-0.26-6.29-4.15-13.64-13.92-14.32c-1.95-0.13-3.93-0.05-5.9,0.21
			c-9.92,1.26-19.81,6.79-25.5,10.04c-1.21,0.7-2.9,2.05-4.88,3.82c-5.15,4.64-12.29,12.14-18.26,18.28
			c-4.55,4.68-8.42,8.57-10.22,9.79c-4.68,3.17-10.77,4.81-16.31,3.98c-0.42-0.06-0.84-0.13-1.26-0.23
			c-5.86-1.3-17.25-14.16-17.25-14.16c-0.6,0.19-1.19,0.58-1.73,1.13c-3.14,3.12-5.22,11.22-4.93,15.79
			c0.09,1.42,0.72,3.27,1.75,5.21c1.08,2.02,2.61,4.14,4.45,6c3.02,3.09,6.87,5.48,10.89,5.54c6.27,0.11,15.77,2.47,29.33-6.29
			c5.44-3.53,11.54-8.84,18.34-16.81"/>
		<path class="st5" d="M163.12,191.43c11.51-7.66,28.1-20.84,28.92-22.79c1.15,2.44,0,9.76,0,9.76l-6.18,0.49"/>
		<path class="st5" d="M134.41,177c3-2.27,10.27-7.75,15-22.88c5.33,5.85,11.53,9.12,11.53,9.12"/>
		<path class="st5" d="M133.02,149.48c0,0,2.22,5.73,21.23,2.8"/>
		<path class="st5" d="M139,138.25c0,0,29.38,7.2,40.2,2.07"/>
		<path class="st5" d="M115.89,162.62c0,0-2.15-4.35-2.4-6.31c-0.24-1.95-0.57-5.74,6.12-11.1c1.04-0.84,2.24-1.8,3.58-2.83
			c1.69-1.3,3.62-2.71,5.79-4.13c7.09-4.65,16.69-9.35,28.69-10.37c1.1-10.13,1.42-16.84,1.42-16.84
			c-11.87,10.58-25,17.16-27.99,18.77c-0.02,0.01-0.03,0.01-0.04,0.02"/>
		<path class="st5" d="M169.31,94.99c0,0-26.53,13.97-27.99,15.43c-1.46,1.47-6.96,10.26-8.3,13.67c-0.61,1.55-1.27,3.53-1.91,5.72
			c-0.78,2.63-1.53,5.57-2.12,8.44"/>
		<path class="st5" d="M142.55,79.07c3.53,0.85,10.93,2.04,16.55,10.2"/>
		<path class="st5" d="M105.26,94.99c-0.43,0.67-0.92,4.33-4.09,10.43s-12.21,29.04-11.22,50.77"/>
		<path class="st5" d="M96.65,86.27c0,0,0.34,1.16,0.5,3c0.14,1.75,0.11,4.11-0.54,6.68c-0.4,1.57-1.04,3.21-2.02,4.84
			c-0.27,0.44-0.54,0.88-0.81,1.34c-4.19,6.82-9.61,15.07-12.78,25.14c-1.17,3.73-2.93,8.41-4.25,13.05
			c-2.51,8.73-3.49,17.24,3.93,18.68c8.38,1.63,11.17,2.05,13.13,1.96c0.7-0.03,1.29-0.12,2-0.25c2.69-0.49,4.88-0.98,6.11-0.49
			c1.21,0.49,8.66,4.01,12.25,3.53"/>
		<path class="st5" d="M93.85,162.62c-0.25,1.01-10.37,17.62-11.6,19.08c-1.21,1.46-3.41,1.46,0,3.05c3.42,1.59,23.22,5.07,28.73,0"
			/>
		<path class="st5" d="M76.35,140.21c-5.75-1.78-8.32-2.97-9.49-5.6c-0.26-0.57-0.45-1.2-0.59-1.93"/>
		<path class="st5" d="M70.66,149.48c-2.06-3.95-2.9-9.46-3.79-14.87c-0.45-2.7-0.92-5.36-1.57-7.79c-1.08-4.05-4.8-9.47-9.26-13.49
			c-3.59-3.26-7.68-5.6-11.24-5.58c-6.83,0.03-18.47,7.72-21.33,17.86c-0.48,1.68-0.71,3.43-0.64,5.22c0.25,6.38,3.54,14.07,7,20.29
			c3.38,6.08,6.92,10.77,7.97,11.5"/>
		<path class="st5" d="M56.03,113.33c0,0,5.83-3,14.63-5.96c3.64-1.22,7.79-2.44,12.25-3.43c0.03-0.01,0.06-0.01,0.09-0.02
			c1.49-0.33,3.01-0.63,4.57-0.91c2.03-0.35,4.1-0.65,6.2-0.88"/>
		<path class="st5" d="M70.66,107.36c0,0,9.89-10.83,13.74-11.41"/>
		<path class="st5" d="M40.73,160.18l-3.42-10.7l10.08,0.93c-3.61,7.7-3.91,19.32,0.33,25.48c1.85,2.71,4.59,4.35,8.31,4.15"/>
		<path class="st5" d="M29.82,154.97c0,0,4.6,18.09,17.9,20.92c0.01,0.01,0.01,0.01,0.02,0.01"/>
		<path class="st5" d="M76.35,160.18c0,0-12.2,18.22-17.73,17.57"/>
		<path class="st5" d="M29.82,173.19c0,0,7.75,5.89,15.22,9.61c4.24,2.11,8.4,3.53,10.99,2.76c0.8-1.95,2.59-3.91,2.59-3.91"/>
		<path class="st5" d="M56.03,185.56c0,0,18.86,4,20.32,1.84c11.88,5,21.23,6.61,39.07,3.36"/>
		<path class="st5" d="M29.82,151.12c0,0-0.68,0.76-1.72,1.91c-3.34,3.73-10.39,11.67-10.64,12.53c-0.33,1.13-1.31,3.08,0,5.52
			c1.3,2.44,12.85,15.94,19.84,14.48s7.73-2.76,7.73-2.76"/>
		<path class="st5" d="M23.47,125.59C23.47,125.59,23.47,125.59,23.47,125.59c-0.5,0.2-15.94,6.45-17.61,7.66
			c-1.71,1.21-4.64,1.83-1.84,5c2.77,3.14,12.9,12.74,24.07,14.78c0.15,0.04,0.31,0.06,0.46,0.09"/>
		<path class="st5" d="M97.15,89.27c0,0,5,2.79,13.94,0.48c5.51-1.43,16.4-8.16,19.47-15.81"/>
		<line class="st5" x1="124.37" y1="75.39" x2="128.38" y2="77.68"/>
		<path class="st5" d="M227.62,156.19c2.95,1.36,6.82,9.95,9,17c1.15,3.67,1.84,6.92,1.71,8.51c-13.18,2.56-23.52,6.35-36.65,4.88"
			/>
		<path class="st5" d="M216.78,175.26c7.16,0.33,13.13,0.21,21.56,6.43"/>
		<path class="st6" d="M90.02,86.42c0.22-0.07,0.65-0.18,1.14-0.28c0.76-0.16,1.66-0.3,2.06-0.19c0.67,0.18,1.92,0.76,0.02,1.55
			c-0.03,0.01-0.07,0.03-0.1,0.04c-1.67,0.69-1.67,0.69-1.67,0.69"/>
		<path class="st6" d="M93.22,87.7c0.82-0.33,2.06,0.3,2.22,0.66c0.14,0.34,0.11,0.75-0.9,1.06c-0.09,0.03-0.18,0.06-0.29,0.09
			c-1.29,0.33-1.63,0.37-1.63,0.37"/>
		<path class="st6" d="M94.55,89.5c0,0,1.41,0.04,1.57,0.51s-0.78,1.63-1.43,1.49c-0.65-0.13-1.07,0.11-1.07,0.11
			c0.5,1.07,0.34,2.9-0.21,4.35c-0.18,0.47-0.4,0.9-0.65,1.25c-1.04,1.47-3.22,2.11-3.69,2.99c-0.46,0.88-1.5,2.81-1.5,2.81"/>
		<path class="st6" d="M86.46,89.49c0.33-1.63,0.54-2.95,0.76-3.33c0.33-0.56,0.96-0.9,1.79-1.02c0.33-0.05,0.72-0.07,1.12-0.05
			c1.41,0.05,1.84,0.42,1.03,0.98"/>
		<path class="st6" d="M83.01,103.9L83.01,103.9c-0.08,0.2-0.11,0.19-0.1,0.03c0.02-0.83,0.94-5.82,1.54-7.96
			c0.11-0.38,0.2-0.67,0.28-0.83c0.85-1.71,1.37-3.86,1.73-5.64"/>
		<path class="st6" d="M93.41,95.95c0,0,3.2-0.04,3.19,0"/>
		<path class="st6" d="M86.46,89.5L86.46,89.5l-10.1-16.7c-0.51-1.11-1.46-1.66,0-2.76"/>
		<line class="st6" x1="81.48" y1="75.72" x2="89" y2="85.14"/>
		<path class="st6" d="M209.53,130.82c0,0,9.25-7.09,10.49-7.58c1.23-0.49,4.65,2.2,5.62,5.37c0.98,3.16,9.77,13.55,9.77,13.55
			l-6,3.04"/>
		<path class="st6" d="M235.41,142.17c0,0,30.02,18.33,31.73,18.01c-10.5,2.6-28.92,11.58-30.51,13.01"/>
	</g>
</g>
</svg>
