<?xml version="1.0" encoding="UTF-8"?>
<svg xmlns="http://www.w3.org/2000/svg" viewBox="0 0 271.05 206.24">
  <defs>
    <style>
      .cls-1 {
        fill: #ff6330;
      }

      .cls-1, .cls-2, .cls-3, .cls-4, .cls-5, .cls-6 {
        stroke-width: 0px;
      }

      .cls-7 {
        stroke-miterlimit: 10;
      }

      .cls-7, .cls-8 {
        stroke: #000;
      }

      .cls-7, .cls-8, .cls-9 {
        fill: none;
      }

      .cls-2 {
        fill: #f3edd7;
      }

      .cls-8, .cls-9 {
        stroke-linecap: round;
        stroke-linejoin: round;
      }

      .cls-3 {
        fill: #f8ddc0;
      }

      .cls-4 {
        fill: #333;
      }

      .cls-9 {
        stroke: #eee;
        stroke-width: .5px;
      }

      .cls-5 {
        fill: #d2d296;
      }

      .cls-6 {
        fill: #a669a2;
      }
    </style>
  </defs>
  <g id="_畳" data-name="畳">
    <g>
      <g>
        <rect class="cls-2" x=".24" y="171.51" width="3.63" height="5.04"/>
        <path class="cls-2" d="m270.81,199.16v6.58h-30.53l15.39-8.65c1.04,1.62,3.12,2.72,5.53,2.72s4.63-1.18,5.63-2.89l3.98,2.24Z"/>
        <path class="cls-2" d="m270.81,188.58v10.59l-3.98-2.24c.38-.65.59-1.38.59-2.15,0-1.31-.62-2.49-1.62-3.39l5.01-2.81Z"/>
        <path class="cls-2" d="m270.81,176.55v12.02l-5.01,2.81c-1.14-1.01-2.78-1.65-4.6-1.65s-3.32.58-4.45,1.51l-26.16-14.7h40.22Z"/>
        <polygon class="cls-2" points="270.81 105.32 270.81 111.1 1.13 111.1 .24 111.1 .24 105.32 270.81 105.32"/>
        <rect class="cls-2" x="266.8" y="171.51" width="4" height="5.04"/>
        <path class="cls-2" d="m267.42,194.77c0,.77-.21,1.5-.59,2.15l-5.43-3.06,4.4-2.48c1,.9,1.62,2.08,1.62,3.39Z"/>
        <path class="cls-2" d="m261.4,193.87l5.43,3.06c-1,1.71-3.14,2.89-5.63,2.89s-4.49-1.11-5.53-2.72l5.73-3.22Z"/>
        <rect class="cls-4" x="255.47" y="171.51" width="11.33" height="5.04"/>
        <path class="cls-2" d="m265.8,191.39l-4.4,2.48-4.65-2.61c1.13-.93,2.71-1.51,4.45-1.51,1.83,0,3.46.64,4.6,1.65Z"/>
        <path class="cls-2" d="m261.4,193.87l-5.73,3.22c-.44-.69-.7-1.48-.7-2.32,0-1.38.68-2.61,1.78-3.52l4.65,2.61Z"/>
        <path class="cls-2" d="m230.59,176.55l26.16,14.7c-1.1.91-1.78,2.14-1.78,3.52,0,.84.25,1.63.7,2.32l-15.39,8.65h-41.58l-15.69-8.82c.38-.65.59-1.38.59-2.15,0-1.31-.62-2.49-1.62-3.38l26.4-14.84h22.21Zm-5.98,18.22c0-2.78-2.25-5.03-5.03-5.03s-5.04,2.25-5.04,5.03,2.25,5.04,5.04,5.04,5.03-2.25,5.03-5.04Z"/>
        <polygon class="cls-2" points="255.47 176.55 230.59 176.55 224.87 176.55 224.87 171.51 255.47 171.51 255.47 176.55"/>
        <rect class="cls-4" x="213.54" y="171.51" width="11.33" height="5.04"/>
        <path class="cls-4" d="m219.58,189.74c2.78,0,5.03,2.25,5.03,5.03s-2.25,5.04-5.03,5.04-5.04-2.25-5.04-5.04,2.25-5.03,5.04-5.03Z"/>
        <path class="cls-2" d="m208.38,176.55l-26.4,14.84c-1.14-1.02-2.78-1.65-4.6-1.65s-3.32.58-4.45,1.51l-26.16-14.7h61.61Z"/>
        <polygon class="cls-2" points="182.94 176.55 182.94 171.51 213.54 171.51 213.54 176.55 208.38 176.55 182.94 176.55"/>
        <path class="cls-2" d="m198.69,205.74h-42.24l15.39-8.65c1.04,1.62,3.13,2.72,5.53,2.72s4.63-1.18,5.63-2.89l15.69,8.82Z"/>
        <path class="cls-2" d="m183.6,194.77c0,.77-.21,1.5-.59,2.15l-5.43-3.06,4.4-2.47c1,.89,1.62,2.07,1.62,3.38Z"/>
        <path class="cls-2" d="m177.58,193.87l5.43,3.06c-1,1.71-3.14,2.89-5.63,2.89s-4.49-1.11-5.53-2.72l5.73-3.22Z"/>
        <rect class="cls-4" x="171.6" y="171.51" width="11.33" height="5.04"/>
        <path class="cls-2" d="m177.38,189.74c1.83,0,3.46.64,4.6,1.65l-4.4,2.47-4.65-2.61c1.13-.93,2.71-1.51,4.45-1.51Z"/>
        <path class="cls-2" d="m177.58,193.87l-5.73,3.22c-.44-.69-.7-1.48-.7-2.32,0-1.38.68-2.61,1.78-3.52l4.65,2.61Z"/>
        <path class="cls-2" d="m146.77,176.55l26.16,14.7c-1.1.91-1.78,2.14-1.78,3.52,0,.84.25,1.63.7,2.32l-15.39,8.65h-41.58l-15.69-8.82c.38-.65.59-1.38.59-2.15,0-1.31-.62-2.49-1.62-3.38l26.4-14.84h22.21Zm-7.03,18.22c0-2.78-2.25-5.03-5.03-5.03s-5.04,2.25-5.04,5.03,2.25,5.04,5.04,5.04,5.03-2.25,5.03-5.04Z"/>
        <polygon class="cls-2" points="171.6 176.55 146.77 176.55 141.01 176.55 141.01 171.51 171.6 171.51 171.6 176.55"/>
        <rect class="cls-4" x="129.67" y="171.51" width="11.33" height="5.04"/>
        <path class="cls-4" d="m134.7,189.74c2.78,0,5.03,2.25,5.03,5.03s-2.25,5.04-5.03,5.04-5.04-2.25-5.04-5.04,2.25-5.03,5.04-5.03Z"/>
        <path class="cls-2" d="m124.56,176.55l-26.4,14.84c-1.14-1.02-2.78-1.65-4.6-1.65s-3.32.58-4.45,1.51l-26.16-14.7h61.61Z"/>
        <polygon class="cls-2" points="129.67 176.55 124.56 176.55 99.07 176.55 99.07 171.51 129.67 171.51 129.67 176.55"/>
        <path class="cls-2" d="m114.87,205.74h-42.24l15.39-8.65c1.04,1.62,3.12,2.72,5.53,2.72s4.63-1.18,5.63-2.89l15.69,8.82Z"/>
        <path class="cls-2" d="m99.78,194.77c0,.77-.21,1.5-.59,2.15l-5.43-3.06,4.4-2.47c1,.89,1.62,2.07,1.62,3.38Z"/>
        <path class="cls-2" d="m93.75,193.87l5.43,3.06c-1,1.71-3.14,2.89-5.63,2.89s-4.49-1.11-5.53-2.72l5.73-3.22Z"/>
        <rect class="cls-4" x="87.74" y="171.51" width="11.33" height="5.04"/>
        <path class="cls-2" d="m93.55,189.74c1.83,0,3.46.64,4.6,1.65l-4.4,2.47-4.65-2.61c1.13-.93,2.71-1.51,4.45-1.51Z"/>
        <path class="cls-2" d="m93.75,193.87l-5.73,3.22c-.44-.69-.7-1.48-.7-2.32,0-1.38.68-2.61,1.78-3.52l4.65,2.61Z"/>
        <path class="cls-2" d="m62.95,176.55l26.16,14.7c-1.1.91-1.78,2.14-1.78,3.52,0,.84.25,1.63.7,2.32l-15.39,8.65H30.86l-15.69-8.82c.38-.65.59-1.38.59-2.15,0-1.31-.62-2.49-1.62-3.38l26.4-14.84h22.4Zm-8.55,18.22c0-2.78-2.25-5.03-5.03-5.03s-5.04,2.25-5.04,5.03,2.25,5.04,5.04,5.04,5.03-2.25,5.03-5.04Z"/>
        <polygon class="cls-2" points="87.74 176.55 62.95 176.55 57.14 176.55 57.14 171.51 87.74 171.51 87.74 176.55"/>
        <rect class="cls-4" x="45.81" y="171.51" width="11.33" height="5.04"/>
        <path class="cls-4" d="m49.37,189.74c2.78,0,5.03,2.25,5.03,5.03s-2.25,5.04-5.03,5.04-5.04-2.25-5.04-5.04,2.25-5.03,5.04-5.03Z"/>
        <polygon class="cls-2" points="45.81 176.55 40.55 176.55 15.21 176.55 15.21 171.51 45.81 171.51 45.81 176.55"/>
        <path class="cls-2" d="m30.86,205.74H.24v-6.54l3.77-2.12c1.04,1.62,3.13,2.72,5.53,2.72s4.63-1.18,5.63-2.89l15.69,8.82Z"/>
        <path class="cls-2" d="m15.77,194.77c0,.77-.21,1.5-.59,2.15l-5.43-3.06,4.4-2.47c1,.89,1.62,2.07,1.62,3.38Z"/>
        <rect class="cls-4" x="3.87" y="171.51" width="11.33" height="5.04"/>
        <path class="cls-2" d="m9.74,193.87l5.43,3.06c-1,1.71-3.14,2.89-5.63,2.89s-4.49-1.11-5.53-2.72l5.73-3.22Z"/>
        <path class="cls-2" d="m9.54,189.74c1.83,0,3.46.64,4.6,1.65l-4.4,2.47-4.65-2.61c1.13-.93,2.71-1.51,4.45-1.51Z"/>
        <path class="cls-2" d="m9.74,193.87l-5.73,3.22c-.44-.69-.7-1.48-.7-2.32,0-1.38.68-2.61,1.78-3.52l4.65,2.61Z"/>
        <path class="cls-2" d="m.24,188.53l4.85,2.72c-1.1.91-1.78,2.14-1.78,3.52,0,.84.25,1.63.7,2.32l-3.77,2.12v-10.67Z"/>
        <polygon class="cls-5" points="213.54 171.51 182.94 171.51 171.6 171.51 141.01 171.51 129.67 171.51 99.07 171.51 87.74 171.51 57.14 171.51 45.81 171.51 15.21 171.51 3.87 171.51 .24 171.51 .24 111.1 1.13 111.1 270.81 111.1 270.81 171.51 266.8 171.51 255.47 171.51 224.87 171.51 213.54 171.51"/>
        <path class="cls-2" d="m.24,176.55h40.3l-26.4,14.84c-1.14-1.02-2.78-1.65-4.6-1.65s-3.32.58-4.45,1.51l-4.85-2.72v-11.98Z"/>
      </g>
      <g>
        <polyline class="cls-7" points="270.81 205.74 240.28 205.74 198.69 205.74 156.46 205.74 114.87 205.74 72.64 205.74 30.86 205.74 .24 205.74"/>
        <line class="cls-7" x1=".24" y1="105.32" x2="270.81" y2="105.32"/>
        <line class="cls-7" x1=".24" y1="111.1" x2="270.81" y2="111.1"/>
        <line class="cls-7" x1="266.8" y1="171.51" x2="270.81" y2="171.51"/>
        <line class="cls-7" x1="224.87" y1="171.51" x2="255.47" y2="171.51"/>
        <line class="cls-7" x1="182.94" y1="171.51" x2="213.54" y2="171.51"/>
        <line class="cls-7" x1="141.01" y1="171.51" x2="171.6" y2="171.51"/>
        <line class="cls-7" x1="99.07" y1="171.51" x2="129.67" y2="171.51"/>
        <line class="cls-7" x1="57.14" y1="171.51" x2="87.74" y2="171.51"/>
        <line class="cls-7" x1="15.21" y1="171.51" x2="45.81" y2="171.51"/>
        <line class="cls-7" x1=".24" y1="171.51" x2="3.87" y2="171.51"/>
        <line class="cls-7" x1="266.8" y1="176.55" x2="270.81" y2="176.55"/>
        <polyline class="cls-7" points="224.87 176.55 230.59 176.55 255.47 176.55"/>
        <polyline class="cls-7" points="182.94 176.55 208.38 176.55 213.54 176.55"/>
        <polyline class="cls-7" points="141.01 176.55 146.77 176.55 171.6 176.55"/>
        <polyline class="cls-7" points="99.07 176.55 124.56 176.55 129.67 176.55"/>
        <polyline class="cls-7" points="57.14 176.55 62.95 176.55 87.74 176.55"/>
        <polyline class="cls-7" points="15.21 176.55 40.55 176.55 45.81 176.55"/>
        <line class="cls-7" x1=".24" y1="176.55" x2="3.87" y2="176.55"/>
        <polyline class="cls-7" points="72.64 205.74 88.03 197.09 93.75 193.87 98.16 191.4 124.56 176.55"/>
        <polyline class="cls-7" points="114.87 205.74 99.19 196.92 93.75 193.87 89.11 191.26 62.95 176.55"/>
        <path class="cls-7" d="m139.73,194.77c0,2.79-2.25,5.04-5.03,5.04s-5.04-2.25-5.04-5.04,2.25-5.03,5.04-5.03,5.03,2.25,5.03,5.03Z"/>
        <path class="cls-7" d="m224.61,194.77c0,2.79-2.25,5.04-5.03,5.04s-5.04-2.25-5.04-5.04,2.25-5.03,5.04-5.03,5.03,2.25,5.03,5.03Z"/>
        <path class="cls-7" d="m98.16,191.4c1,.89,1.62,2.07,1.62,3.38,0,.77-.21,1.5-.59,2.15-1,1.71-3.14,2.89-5.63,2.89s-4.49-1.11-5.53-2.72c-.44-.69-.7-1.48-.7-2.32,0-1.38.68-2.61,1.78-3.52,1.13-.93,2.71-1.51,4.45-1.51,1.83,0,3.46.64,4.6,1.65Z"/>
        <polyline class="cls-7" points=".24 199.2 4.01 197.09 9.74 193.87 14.15 191.4 40.55 176.55"/>
        <polyline class="cls-7" points="30.86 205.74 15.17 196.92 9.74 193.87 5.09 191.26 .24 188.53"/>
        <path class="cls-7" d="m14.15,191.4c1,.89,1.62,2.07,1.62,3.38,0,.77-.21,1.5-.59,2.15-1,1.71-3.14,2.89-5.63,2.89s-4.49-1.11-5.53-2.72c-.44-.69-.7-1.48-.7-2.32,0-1.38.68-2.61,1.78-3.52,1.13-.93,2.71-1.51,4.45-1.51,1.83,0,3.46.64,4.6,1.65Z"/>
        <polyline class="cls-7" points="156.46 205.74 171.85 197.09 177.58 193.87 181.98 191.4 208.38 176.55"/>
        <polyline class="cls-7" points="198.69 205.74 183.01 196.92 177.58 193.87 172.93 191.26 146.77 176.55"/>
        <path class="cls-7" d="m181.98,191.4c1,.89,1.62,2.07,1.62,3.38,0,.77-.21,1.5-.59,2.15-1,1.71-3.14,2.89-5.63,2.89s-4.49-1.11-5.53-2.72c-.44-.69-.7-1.48-.7-2.32,0-1.38.68-2.61,1.78-3.52,1.13-.93,2.71-1.51,4.45-1.51,1.83,0,3.46.64,4.6,1.65Z"/>
        <polyline class="cls-7" points="240.28 205.74 255.67 197.09 261.4 193.87 265.8 191.39 270.81 188.58"/>
        <polyline class="cls-7" points="270.81 199.16 266.83 196.92 261.4 193.87 256.75 191.26 230.59 176.55"/>
        <path class="cls-7" d="m265.8,191.39c1,.9,1.62,2.08,1.62,3.39,0,.77-.21,1.5-.59,2.15-1,1.71-3.14,2.89-5.63,2.89s-4.49-1.11-5.53-2.72c-.44-.69-.7-1.48-.7-2.32,0-1.38.68-2.61,1.78-3.52,1.13-.93,2.71-1.51,4.45-1.51,1.83,0,3.46.64,4.6,1.65Z"/>
        <path class="cls-7" d="m54.4,194.77c0,2.79-2.25,5.04-5.03,5.04s-5.04-2.25-5.04-5.04,2.25-5.03,5.04-5.03,5.03,2.25,5.03,5.03Z"/>
        <rect class="cls-7" x="3.87" y="171.51" width="11.33" height="5.04"/>
        <rect class="cls-7" x="45.81" y="171.51" width="11.33" height="5.04"/>
        <rect class="cls-7" x="87.74" y="171.51" width="11.33" height="5.04"/>
        <rect class="cls-7" x="129.67" y="171.51" width="11.33" height="5.04"/>
        <rect class="cls-7" x="171.6" y="171.51" width="11.33" height="5.04"/>
        <rect class="cls-7" x="213.54" y="171.51" width="11.33" height="5.04"/>
        <rect class="cls-7" x="255.47" y="171.51" width="11.33" height="5.04"/>
      </g>
    </g>
  </g>
  <g id="_レイヤー_2" data-name="レイヤー 2">
    <g>
      <path class="cls-4" d="m230.77,124.56c-1.46,1.57-2.84,3.18-4.29,4.66.08-5.42-1.98-5.48-6.64-4.08-4.67,1.38-18.22,8.17-18.22,8.17-5.01-1.78-8.78-3.56-10.12,5.11s-1.26,12.38-3.86,16.08h-5.62c-8.9,1.48-11.12.74-12.89,1.63-.24.05-.46.1-.68.15,2.51-.72,1.8-3.63-.24-6.37-2.09-2.81-12.72-10.81-21.01-21.78-1.22,1.33-6.7,5.48-13.47,10.22-10.54,7.41-24.17,16.32-29.49,18.42-.97-.11-1.83-.29-2.68-.49-3.71-.89-6.08-1.33-7.7-11.4,0,0,1.04-3.26,2.37-8.9,0,0,9.19-6.07,11.41-13.93-3.86-.74-20.6-5.08-20.6-5.08-1.78,1.52-4.45,2.78-1.63,7.41,2.81,4.63,6.67,12.34,6.67,12.34-9.64,3.71-48.1,18.59-54.66,19.38h0c-4.4-.97-7.7-2.43-8.83-4.55,1.11-16.23,11.33-34.23,14.45-40.45,3.11-6.22,14.89-20,19.78-25.34,9.33-15.11,18.67-22.89,22.55-26.23,3.89-3.33,10.12-9.44,15.01-11.55,2.82-1.22,6.68-2.57,9.85-3.65,1.03-.35,1.98-.67,2.79-.95,1.04-.35,1.87-.64,2.37-.83,0,0-.78,3.87.55,6.97,1.33,3.12,3.06,9.56,9.11,10.23,6.06.67,10.66-4.78,10.66-4.78,0,0,1.85.11,4.52.29,5.3.35,13.83.93,17.6,1.38,5.67.67,10.89,2.56,16.89,8.78,6.01,6.22,12.22,10.45,15.78,12.45,3.55,2,5.67,9.22,6.11,10.78s2.33,8.44,10.45,10.23c8.11,1.78,13.56,2.88,15.19,7.33s8.52,17.19,8.52,18.38Zm-42.49,1.51c.97-.38-1.45-6.89-5.89-7s-12.78,9.44-16.89,12.11c6.11-.77,20.22-4.11,22.78-5.11Z"/>
      <path class="cls-1" d="m219.83,125.13c4.67-1.39,6.72-1.34,6.64,4.08-2.53,2.58-5.32,4.77-9.27,5.71-7.08.97-15.59-1.63-15.59-1.63,0,0,13.55-6.78,18.22-8.17Z"/>
      <path class="cls-6" d="m201.61,133.3s8.51,2.59,15.59,1.63c-1.04,2.89-5.26,8.9-9.85,10.82l-4.6,1.92-15.11,6.82c2.59-3.7,2.52-7.41,3.86-16.08s5.11-6.89,10.12-5.11Z"/>
      <path class="cls-1" d="m182.38,119.08c4.45.11,6.87,6.62,5.89,7-2.56,1-16.67,4.34-22.78,5.11,4.11-2.66,12.44-12.22,16.89-12.11Z"/>
      <path class="cls-6" d="m168.21,149.89c2.04,2.74,2.74,5.65.24,6.37t-.02,0c-13.88,3.09-15.46,2.52-24.64,2.37-4.05-.07-8.6-.37-12.52-.8l.22-2.09c-4.37-.52-5.41-1.41-5.26-2.38,2.28-3.49,5.11-11.23,9.35-14.56l-1.85-.48c6.76-4.74,12.25-8.89,13.47-10.22,8.3,10.97,18.92,18.97,21.01,21.78Z"/>
      <path class="cls-3" d="m147.94,26.32s2.37,10.22,1.92,15.56.74,7.11-1.92,9.63c-2.67,2.52-5.08,3.9-7.71,3.73-2.67-.17-4.52-.29-4.52-.29,0,0-4.6,5.45-10.66,4.78-6.06-.67-7.78-7.11-9.11-10.23-1.33-3.11-.55-6.97-.55-6.97,3.71,1.55,6.24.24,8.26-.73,0,0,.22-.66-.52-2.14-.9.07-2.32.1-3.13-1.38-.76-1.38-.68-3.8-.42-5.14.42-2.12,1.92-1.71,5.69,1.77.97.14,1.85-.52,3.04-1.63,1.18-1.11.65-4.73,1.02-6.73.37-1.99.8-3.61,1.17-3.83.37-.23,2.56.33,5.75.63s11.09,3.57,11.71,2.97Z"/>
      <path class="cls-4" d="m141.57,17.87c2.45,2.52,6.98,7.84,6.37,8.45-.62.6-8.52-2.67-11.71-2.97s-5.37-.85-5.75-.63c-.37.22-.79,1.84-1.17,3.83-.37,2,.17,5.61-1.02,6.73-1.18,1.11-2.07,1.77-3.04,1.63-3.78-3.48-5.28-3.88-5.69-1.77l-1.95-.35c1.04-6.02,3.35-14.94,6.02-16.18.15-.89-1.48-1.78-3.19-2.08s-2.66-.81-3.11.45c-.44,1.25-2.38,5.77-2.74,10.45-.37,4.67-1.71,17.56-1.71,17.56l.12.37c-.82.28-1.77.6-2.79.95l-.07-.21c-.07-4.37,2.84-21.54,3.19-25.18.23-2.37,1.92-6.3,3.19-7.41,1.26-1.11,6.63-.26,6.63-.26,0,0-.24-1.26,0-2.26.22-.95.9-1.64,1.45-1.85,1.11-.44,3.4.44,3.4.44,3.04-4.29,3.93-5.41,4.96-6.44,1.04-1.04,6.22-.97,4.97,1.56-1.26,2.52-2.82,5.7-3.12,5.7.59.89.08,1.85-.51,2.22.15,1.04.15,1.56.15,1.56,3.33,1.48,4.67,3.19,7.11,5.7Z"/>
      <path class="cls-6" d="m133.73,138.33l1.85.48c-4.24,3.33-7.07,11.07-9.35,14.56-.15.97.89,1.85,5.26,2.38l-.22,2.09c-5.11-.56-9.14-1.29-9.56-1.87-9.79,1.03-14.25,1.18-17.47.78,5.32-2.1,18.95-11.01,29.49-18.42Z"/>
      <path class="cls-4" d="m123.12,39.66c.74,1.48.52,2.14.52,2.14-2.02.97-4.55,2.28-8.26.73-.25-.1-.51-.23-.78-.36,0,0,2.22-.74,2.45-4.96.05-.99.25-2.56.57-4.41l1.95.35c-.26,1.34-.34,3.76.42,5.14.82,1.47,2.24,1.45,3.13,1.38Z"/>
      <path class="cls-1" d="m107.63,122.04c-2.22,7.86-11.41,13.93-11.41,13.93-1.33,5.63-2.37,8.9-2.37,8.9-6.96,5.18-10.08,11.4-23.42,12.44-9.09.71-23.58.87-33.02-1.22,6.55-.79,45.02-15.67,54.66-19.38,0,0-3.86-7.7-6.67-12.34-2.82-4.63-.15-5.88,1.63-7.41,0,0,16.74,4.34,20.6,5.08Z"/>
    </g>
    <g>
      <path class="cls-8" d="m110.15,44.1c-.07-4.37,2.84-21.54,3.19-25.18.23-2.37,1.92-6.3,3.19-7.41,1.26-1.11,6.63-.26,6.63-.26,0,0-.24-1.26,0-2.26.22-.95.9-1.64,1.45-1.85,1.11-.44,3.4.44,3.4.44,3.04-4.29,3.93-5.41,4.96-6.44,1.04-1.04,6.22-.97,4.97,1.56-1.26,2.52-2.82,5.7-3.12,5.7.59.89.08,1.85-.51,2.22.15,1.04.15,1.56.15,1.56,3.33,1.48,4.67,3.19,7.11,5.7,2.45,2.52,6.98,7.84,6.37,8.45-.62.6-8.52-2.67-11.71-2.97s-5.37-.85-5.75-.63c-.37.22-.79,1.84-1.17,3.83-.37,2,.17,5.61-1.02,6.73-1.18,1.11-2.07,1.77-3.04,1.63-3.78-3.48-5.28-3.88-5.69-1.77-.26,1.34-.34,3.76.42,5.14.82,1.47,2.24,1.45,3.13,1.38.74,1.48.52,2.14.52,2.14-2.02.97-4.55,2.28-8.26.73-.25-.1-.51-.23-.78-.36,0,0,2.22-.74,2.45-4.96.22-4.22,3.11-18.97,6.59-20.6.15-.89-1.48-1.78-3.19-2.08s-2.66-.81-3.11.45c-.44,1.25-2.38,5.77-2.74,10.45-.37,4.67-1.71,17.56-1.71,17.56"/>
      <path class="cls-8" d="m37.41,156.08c-4.4-.97-7.7-2.43-8.83-4.55,1.11-16.23,11.33-34.23,14.45-40.45,3.11-6.22,14.89-20,19.78-25.34,9.33-15.11,18.67-22.89,22.55-26.23,3.89-3.33,10.12-9.44,15.01-11.55,2.82-1.22,6.68-2.57,9.85-3.65,1.03-.35,1.98-.67,2.79-.95,1.04-.35,1.87-.64,2.37-.83,0,0-.78,3.87.55,6.97,1.33,3.12,3.06,9.56,9.11,10.23s10.66-4.78,10.66-4.78c0,0,1.85.11,4.52.29,5.3.35,13.83.93,17.6,1.38,5.67.67,10.89,2.56,16.89,8.78,6.01,6.22,12.22,10.45,15.78,12.45,3.55,2,5.67,9.22,6.11,10.78s2.33,8.44,10.45,10.23c8.11,1.78,13.56,2.88,15.19,7.33,1.63,4.45,8.52,17.19,8.52,18.38-1.46,1.57-2.84,3.18-4.29,4.66-2.53,2.58-5.32,4.77-9.27,5.71-1.04,2.89-5.26,8.9-9.85,10.82l-4.6,1.92-15.11,6.82h-5.62c-8.9,1.48-11.12.74-12.89,1.63-.24.05-.46.1-.68.15"/>
      <path class="cls-8" d="m168.43,156.27c-13.88,3.09-15.46,2.52-24.64,2.37-4.05-.07-8.6-.37-12.52-.8-5.11-.56-9.14-1.29-9.56-1.87-9.79,1.03-14.25,1.18-17.47.78-.97-.11-1.83-.29-2.68-.49-3.71-.89-6.08-1.33-7.7-11.4-6.96,5.18-10.08,11.4-23.42,12.44-9.09.71-23.58.87-33.02-1.22"/>
      <path class="cls-8" d="m127.85,49.43s2.45,5.48,7.85,5.52"/>
      <path class="cls-8" d="m147.93,26.32s2.37,10.22,1.92,15.56.74,7.11-1.92,9.63c-2.67,2.52-5.08,3.9-7.71,3.73"/>
      <path class="cls-8" d="m132.37,31.5h6.01"/>
      <line class="cls-8" x1="143.71" y1="30.91" x2="147.99" y2="30.91"/>
      <path class="cls-8" d="m142.3,34.91s2.94,8.23,2.77,9.48c-.17,1.26-1.81,1.78-2.77,1.78"/>
      <path class="cls-8" d="m133.56,37.43s2.66-.07,3.7,0"/>
      <path class="cls-8" d="m145.08,37.39s2.37-.25,2.91,0"/>
      <path class="cls-8" d="m138.38,50.32s3.78.23,4.67,0"/>
      <path class="cls-9" d="m107.63,47.8c3.26,6.08,7.53,15.99,12,17.48,4.24,1.42,8.84,1.89,12.74-.65,1.81-1.18,3.48-3.02,4.89-5.72"/>
      <path class="cls-9" d="m132.37,64.63c3.33,3.54,11.19,12.87,12.71,20.21,1.51,7.34-.3,30.01-1.39,34.23"/>
      <path class="cls-9" d="m143.71,60.62c3.85,5.94,9.31,12.1,12.47,19.41,1.23,2.82,2.1,5.81,2.41,9.04,1.11,11.56,3,23.78,0,27-.3.32-.61.63-.92.89-2.76,2.4-5.75,2.75-8.74,3.45"/>
      <path class="cls-9" d="m161.93,60.62s-.48,16.17-5.75,19.41"/>
      <path class="cls-9" d="m166.49,75.73l3.44-6.44,3.56,8.56s-8.67,5.11-10.56,10.11"/>
      <path class="cls-9" d="m164.6,96.85s9.33-10.56,24.44-11.33"/>
      <path class="cls-9" d="m162.93,99.29s11.56,2.99,21.34,7.22c9.78,4.23,18.33,6.67,18.89,6.67"/>
      <path class="cls-9" d="m165.49,107.18s14,10.67,17.56,11.89"/>
      <path class="cls-8" d="m188.27,126.07c.97-.38-1.45-6.89-5.89-7-4.45-.11-12.78,9.44-16.89,12.11,6.11-.77,20.22-4.11,22.78-5.11Z"/>
      <path class="cls-9" d="m157.68,116.96s6.03,6.78,7.82,14.22"/>
      <path class="cls-8" d="m226.47,129.21c.08-5.42-1.98-5.48-6.64-4.08-4.67,1.38-18.22,8.17-18.22,8.17,0,0,8.51,2.59,15.59,1.63"/>
      <path class="cls-8" d="m201.61,133.3c-5.01-1.78-8.78-3.56-10.12,5.11-1.33,8.67-1.26,12.38-3.86,16.08"/>
      <path class="cls-8" d="m104.24,156.75c5.32-2.1,18.95-11.01,29.49-18.42,6.76-4.74,12.25-8.89,13.47-10.22,8.3,10.97,18.92,18.97,21.01,21.78,2.04,2.74,2.74,5.65.24,6.37t-.02,0c-.07.02-.14.03-.22.05"/>
      <path class="cls-8" d="m138.74,137.3c-1.14.19-2.19.73-3.17,1.51-4.24,3.33-7.07,11.07-9.35,14.56-.15.97.89,1.85,5.26,2.38"/>
      <path class="cls-9" d="m92.67,70.32c-.59.89-7.85-4.89-7.85-4.89l-5.48,6.08c9.18,2.97,18.66,7.11,21.48,14.01"/>
      <path class="cls-9" d="m95.63,54.03s-.35,7.84,6.82,17.92"/>
      <path class="cls-9" d="m105.25,54.03s.75,4,3.56,5.92"/>
      <path class="cls-9" d="m50.88,113.13s3.11,13.95,4,14.98"/>
      <path class="cls-9" d="m50.88,135.14c.59-.66,35.56-17.4,40.75-24.07"/>
      <path class="cls-9" d="m62.58,107.18s33.49-12.63,36.45-16"/>
      <path class="cls-9" d="m57.55,95.37s30.22-.45,34.52-2.52"/>
      <path class="cls-9" d="m114.89,69.29s6.37,21.93,4.45,28.6c-1.93,6.67-3.41,19.07-3.41,19.07"/>
      <path class="cls-9" d="m116.22,119.07s12.6,2.96,19.48,2.96"/>
      <path class="cls-9" d="m105.25,131.83s17.93-6.9,21.79-7.46"/>
      <path class="cls-8" d="m93.85,144.86s1.04-3.26,2.37-8.9c0,0,9.19-6.07,11.41-13.93-3.86-.74-20.6-5.08-20.6-5.08-1.78,1.52-4.45,2.78-1.63,7.41,2.81,4.63,6.67,12.34,6.67,12.34-9.64,3.71-48.1,18.59-54.66,19.38h0"/>
      <path class="cls-9" d="m168.21,142.43s7.62,5.54,8.62,7.09,3.72,4,3.72,4"/>
    </g>
  </g>
</svg>