<?xml version="1.0" encoding="UTF-8"?>
<svg xmlns="http://www.w3.org/2000/svg" viewBox="0 0 270.31 211.68">
  <defs>
    <style>
      .cls-1 {
        fill: #aa4c30;
      }

      .cls-1, .cls-2, .cls-3, .cls-4, .cls-5, .cls-6, .cls-7 {
        stroke-width: 0px;
      }

      .cls-2 {
        fill: #ff6330;
      }

      .cls-8 {
        stroke-miterlimit: 10;
      }

      .cls-8, .cls-9 {
        stroke: #000;
      }

      .cls-8, .cls-9, .cls-10 {
        fill: none;
      }

      .cls-3 {
        fill: #f3edd7;
      }

      .cls-9, .cls-10 {
        stroke-linecap: round;
        stroke-linejoin: round;
      }

      .cls-4 {
        fill: #333;
      }

      .cls-10 {
        stroke: #eee;
        stroke-width: .5px;
      }

      .cls-5 {
        fill: #face87;
      }

      .cls-6 {
        fill: #d2d296;
      }

      .cls-7 {
        fill: #a669a2;
      }
    </style>
  </defs>
  <g id="_畳" data-name="畳">
    <g>
      <g>
        <rect class="cls-3" x=".24" y="177.04" width="3.62" height="5.03"/>
        <path class="cls-3" d="m270.06,204.62v6.56h-30.44l15.35-8.63c1.03,1.61,3.11,2.72,5.51,2.72s4.62-1.18,5.62-2.88l3.97,2.23Z"/>
        <path class="cls-3" d="m270.06,194.06v10.56l-3.97-2.23c.38-.65.59-1.38.59-2.14,0-1.3-.62-2.48-1.61-3.38l4.99-2.8Z"/>
        <path class="cls-3" d="m270.06,182.07v11.99l-4.99,2.8c-1.14-1.01-2.77-1.64-4.59-1.64s-3.31.58-4.44,1.51l-26.09-14.66h40.11Z"/>
        <polygon class="cls-3" points="270.06 111.04 270.06 116.8 1.13 116.8 .24 116.8 .24 111.04 270.06 111.04"/>
        <rect class="cls-3" x="266.07" y="177.04" width="3.99" height="5.03"/>
        <path class="cls-3" d="m266.69,200.24c0,.76-.21,1.49-.59,2.14l-5.42-3.05,4.39-2.47c1,.89,1.61,2.07,1.61,3.38Z"/>
        <path class="cls-3" d="m260.68,199.34l5.42,3.05c-1,1.7-3.13,2.88-5.62,2.88s-4.48-1.1-5.51-2.72l5.71-3.21Z"/>
        <rect class="cls-4" x="254.77" y="177.04" width="11.3" height="5.03"/>
        <path class="cls-3" d="m265.07,196.86l-4.39,2.47-4.64-2.6c1.13-.93,2.7-1.51,4.44-1.51,1.82,0,3.46.63,4.59,1.64Z"/>
        <path class="cls-3" d="m260.68,199.34l-5.71,3.21c-.44-.69-.69-1.48-.69-2.31,0-1.37.68-2.6,1.77-3.51l4.64,2.6Z"/>
        <path class="cls-3" d="m229.96,182.07l26.09,14.66c-1.09.9-1.77,2.14-1.77,3.51,0,.83.25,1.62.69,2.31l-15.35,8.63h-41.47l-15.64-8.79c.38-.65.59-1.38.59-2.14,0-1.3-.62-2.48-1.61-3.37l26.33-14.8h22.15Zm-5.96,18.17c0-2.77-2.25-5.02-5.02-5.02s-5.03,2.25-5.03,5.02,2.25,5.03,5.03,5.03,5.02-2.25,5.02-5.03Z"/>
        <polygon class="cls-3" points="254.77 182.07 229.96 182.07 224.25 182.07 224.25 177.04 254.77 177.04 254.77 182.07"/>
        <rect class="cls-4" x="212.95" y="177.04" width="11.3" height="5.03"/>
        <path class="cls-4" d="m218.98,195.22c2.77,0,5.02,2.25,5.02,5.02s-2.25,5.03-5.02,5.03-5.03-2.25-5.03-5.03,2.25-5.02,5.03-5.02Z"/>
        <path class="cls-3" d="m207.81,182.07l-26.33,14.8c-1.14-1.02-2.77-1.65-4.59-1.65s-3.31.58-4.44,1.51l-26.09-14.66h61.45Z"/>
        <polygon class="cls-3" points="182.44 182.07 182.44 177.04 212.95 177.04 212.95 182.07 207.81 182.07 182.44 182.07"/>
        <path class="cls-3" d="m198.15,211.18h-42.12l15.35-8.63c1.03,1.61,3.12,2.72,5.51,2.72s4.62-1.18,5.62-2.88l15.64,8.79Z"/>
        <path class="cls-3" d="m183.1,200.24c0,.76-.21,1.49-.59,2.14l-5.42-3.05,4.39-2.47c1,.89,1.61,2.07,1.61,3.37Z"/>
        <path class="cls-3" d="m177.09,199.34l5.42,3.05c-1,1.7-3.13,2.88-5.62,2.88s-4.48-1.1-5.51-2.72l5.71-3.21Z"/>
        <rect class="cls-4" x="171.13" y="177.04" width="11.3" height="5.03"/>
        <path class="cls-3" d="m176.89,195.22c1.82,0,3.46.63,4.59,1.65l-4.39,2.47-4.64-2.6c1.13-.93,2.7-1.51,4.44-1.51Z"/>
        <path class="cls-3" d="m177.09,199.34l-5.71,3.21c-.44-.69-.69-1.48-.69-2.31,0-1.37.68-2.6,1.77-3.51l4.64,2.6Z"/>
        <path class="cls-3" d="m146.37,182.07l26.09,14.66c-1.09.9-1.77,2.14-1.77,3.51,0,.83.25,1.62.69,2.31l-15.35,8.63h-41.47l-15.64-8.79c.38-.65.59-1.38.59-2.14,0-1.3-.62-2.48-1.61-3.37l26.33-14.8h22.15Zm-7.01,18.17c0-2.77-2.25-5.02-5.02-5.02s-5.03,2.25-5.03,5.02,2.25,5.03,5.03,5.03,5.02-2.25,5.02-5.03Z"/>
        <polygon class="cls-3" points="171.13 182.07 146.37 182.07 140.62 182.07 140.62 177.04 171.13 177.04 171.13 182.07"/>
        <rect class="cls-4" x="129.32" y="177.04" width="11.3" height="5.03"/>
        <path class="cls-4" d="m134.33,195.22c2.77,0,5.02,2.25,5.02,5.02s-2.25,5.03-5.02,5.03-5.03-2.25-5.03-5.03,2.25-5.02,5.03-5.02Z"/>
        <path class="cls-3" d="m124.22,182.07l-26.33,14.8c-1.14-1.02-2.77-1.65-4.59-1.65s-3.31.58-4.44,1.51l-26.09-14.66h61.45Z"/>
        <polygon class="cls-3" points="129.32 182.07 124.22 182.07 98.8 182.07 98.8 177.04 129.32 177.04 129.32 182.07"/>
        <path class="cls-3" d="m114.56,211.18h-42.12l15.35-8.63c1.03,1.61,3.11,2.72,5.51,2.72s4.62-1.18,5.62-2.88l15.64,8.79Z"/>
        <path class="cls-3" d="m99.51,200.24c0,.76-.21,1.49-.59,2.14l-5.42-3.05,4.39-2.47c1,.89,1.61,2.07,1.61,3.37Z"/>
        <path class="cls-3" d="m93.5,199.34l5.42,3.05c-1,1.7-3.13,2.88-5.62,2.88s-4.48-1.1-5.51-2.72l5.71-3.21Z"/>
        <rect class="cls-4" x="87.5" y="177.04" width="11.3" height="5.03"/>
        <path class="cls-3" d="m93.3,195.22c1.82,0,3.46.63,4.59,1.65l-4.39,2.47-4.64-2.6c1.13-.93,2.7-1.51,4.44-1.51Z"/>
        <path class="cls-3" d="m93.5,199.34l-5.71,3.21c-.44-.69-.69-1.48-.69-2.31,0-1.37.68-2.6,1.77-3.51l4.64,2.6Z"/>
        <path class="cls-3" d="m62.78,182.07l26.09,14.66c-1.09.9-1.77,2.14-1.77,3.51,0,.83.25,1.62.69,2.31l-15.35,8.63H30.78l-15.64-8.79c.38-.65.59-1.38.59-2.14,0-1.3-.62-2.48-1.61-3.37l26.33-14.8h22.34Zm-8.52,18.17c0-2.77-2.25-5.02-5.02-5.02s-5.03,2.25-5.03,5.02,2.25,5.03,5.03,5.03,5.02-2.25,5.02-5.03Z"/>
        <polygon class="cls-3" points="87.5 182.07 62.78 182.07 56.99 182.07 56.99 177.04 87.5 177.04 87.5 182.07"/>
        <rect class="cls-4" x="45.68" y="177.04" width="11.3" height="5.03"/>
        <path class="cls-4" d="m49.23,195.22c2.77,0,5.02,2.25,5.02,5.02s-2.25,5.03-5.02,5.03-5.03-2.25-5.03-5.03,2.25-5.02,5.03-5.02Z"/>
        <polygon class="cls-3" points="45.68 182.07 40.44 182.07 15.17 182.07 15.17 177.04 45.68 177.04 45.68 182.07"/>
        <path class="cls-3" d="m30.78,211.18H.24v-6.52l3.76-2.11c1.03,1.61,3.12,2.72,5.51,2.72s4.62-1.18,5.62-2.88l15.64,8.79Z"/>
        <path class="cls-3" d="m15.72,200.24c0,.76-.21,1.49-.59,2.14l-5.42-3.05,4.39-2.47c1,.89,1.61,2.07,1.61,3.37Z"/>
        <rect class="cls-4" x="3.86" y="177.04" width="11.3" height="5.03"/>
        <path class="cls-3" d="m9.72,199.34l5.42,3.05c-1,1.7-3.13,2.88-5.62,2.88s-4.48-1.1-5.51-2.72l5.71-3.21Z"/>
        <path class="cls-3" d="m9.52,195.22c1.82,0,3.46.63,4.59,1.65l-4.39,2.47-4.64-2.6c1.13-.93,2.7-1.51,4.44-1.51Z"/>
        <path class="cls-3" d="m9.72,199.34l-5.71,3.21c-.44-.69-.69-1.48-.69-2.31,0-1.37.68-2.6,1.77-3.51l4.64,2.6Z"/>
        <path class="cls-3" d="m.24,194.02l4.84,2.72c-1.09.9-1.77,2.14-1.77,3.51,0,.83.25,1.62.69,2.31l-3.76,2.11v-10.64Z"/>
        <polygon class="cls-6" points="212.95 177.04 182.44 177.04 171.13 177.04 140.62 177.04 129.32 177.04 98.8 177.04 87.5 177.04 56.99 177.04 45.68 177.04 15.17 177.04 3.86 177.04 .24 177.04 .24 116.8 1.13 116.8 270.06 116.8 270.06 177.04 266.07 177.04 254.77 177.04 224.25 177.04 212.95 177.04"/>
        <path class="cls-3" d="m.24,182.07h40.19l-26.33,14.8c-1.14-1.02-2.77-1.65-4.59-1.65s-3.31.58-4.44,1.51l-4.84-2.72v-11.95Z"/>
      </g>
      <g>
        <polyline class="cls-8" points="270.06 211.18 239.62 211.18 198.15 211.18 156.03 211.18 114.56 211.18 72.44 211.18 30.78 211.18 .24 211.18"/>
        <line class="cls-8" x1=".24" y1="111.04" x2="270.06" y2="111.04"/>
        <line class="cls-8" x1=".24" y1="116.8" x2="270.06" y2="116.8"/>
        <line class="cls-8" x1="266.07" y1="177.04" x2="270.06" y2="177.04"/>
        <line class="cls-8" x1="224.25" y1="177.04" x2="254.77" y2="177.04"/>
        <line class="cls-8" x1="182.44" y1="177.04" x2="212.95" y2="177.04"/>
        <line class="cls-8" x1="140.62" y1="177.04" x2="171.13" y2="177.04"/>
        <line class="cls-8" x1="98.8" y1="177.04" x2="129.32" y2="177.04"/>
        <line class="cls-8" x1="56.99" y1="177.04" x2="87.5" y2="177.04"/>
        <line class="cls-8" x1="15.17" y1="177.04" x2="45.68" y2="177.04"/>
        <line class="cls-8" x1=".24" y1="177.04" x2="3.86" y2="177.04"/>
        <line class="cls-8" x1="266.07" y1="182.07" x2="270.06" y2="182.07"/>
        <polyline class="cls-8" points="224.25 182.07 229.96 182.07 254.77 182.07"/>
        <polyline class="cls-8" points="182.44 182.07 207.81 182.07 212.95 182.07"/>
        <polyline class="cls-8" points="140.62 182.07 146.37 182.07 171.13 182.07"/>
        <polyline class="cls-8" points="98.8 182.07 124.22 182.07 129.32 182.07"/>
        <polyline class="cls-8" points="56.99 182.07 62.78 182.07 87.5 182.07"/>
        <polyline class="cls-8" points="15.17 182.07 40.44 182.07 45.68 182.07"/>
        <line class="cls-8" x1=".24" y1="182.07" x2="3.86" y2="182.07"/>
        <polyline class="cls-8" points="72.44 211.18 87.79 202.55 93.5 199.34 97.89 196.87 124.22 182.07"/>
        <polyline class="cls-8" points="114.56 211.18 98.92 202.39 93.5 199.34 88.86 196.73 62.78 182.07"/>
        <path class="cls-8" d="m139.35,200.24c0,2.78-2.25,5.03-5.02,5.03s-5.03-2.25-5.03-5.03,2.25-5.02,5.03-5.02,5.02,2.25,5.02,5.02Z"/>
        <path class="cls-8" d="m223.99,200.24c0,2.78-2.25,5.03-5.02,5.03s-5.03-2.25-5.03-5.03,2.25-5.02,5.03-5.02,5.02,2.25,5.02,5.02Z"/>
        <path class="cls-8" d="m97.89,196.87c1,.89,1.61,2.07,1.61,3.37,0,.76-.21,1.49-.59,2.14-1,1.7-3.13,2.88-5.62,2.88s-4.48-1.1-5.51-2.72c-.44-.69-.69-1.48-.69-2.31,0-1.37.68-2.6,1.77-3.51,1.13-.93,2.7-1.51,4.44-1.51,1.82,0,3.46.63,4.59,1.65Z"/>
        <polyline class="cls-8" points=".24 204.66 4 202.55 9.72 199.34 14.11 196.87 40.44 182.07"/>
        <polyline class="cls-8" points="30.78 211.18 15.13 202.39 9.72 199.34 5.08 196.73 .24 194.02"/>
        <path class="cls-8" d="m14.11,196.87c1,.89,1.61,2.07,1.61,3.37,0,.76-.21,1.49-.59,2.14-1,1.7-3.13,2.88-5.62,2.88s-4.48-1.1-5.51-2.72c-.44-.69-.69-1.48-.69-2.31,0-1.37.68-2.6,1.77-3.51,1.13-.93,2.7-1.51,4.44-1.51,1.82,0,3.46.63,4.59,1.65Z"/>
        <polyline class="cls-8" points="156.03 211.18 171.38 202.55 177.09 199.34 181.48 196.87 207.81 182.07"/>
        <polyline class="cls-8" points="198.15 211.18 182.51 202.39 177.09 199.34 172.45 196.73 146.37 182.07"/>
        <path class="cls-8" d="m181.48,196.87c1,.89,1.61,2.07,1.61,3.37,0,.76-.21,1.49-.59,2.14-1,1.7-3.13,2.88-5.62,2.88s-4.48-1.1-5.51-2.72c-.44-.69-.69-1.48-.69-2.31,0-1.37.68-2.6,1.77-3.51,1.13-.93,2.7-1.51,4.44-1.51,1.82,0,3.46.63,4.59,1.65Z"/>
        <polyline class="cls-8" points="239.62 211.18 254.97 202.55 260.68 199.34 265.07 196.86 270.06 194.06"/>
        <polyline class="cls-8" points="270.06 204.62 266.1 202.39 260.68 199.34 256.04 196.73 229.96 182.07"/>
        <path class="cls-8" d="m265.07,196.86c1,.89,1.61,2.07,1.61,3.38,0,.76-.21,1.49-.59,2.14-1,1.7-3.13,2.88-5.62,2.88s-4.48-1.1-5.51-2.72c-.44-.69-.69-1.48-.69-2.31,0-1.37.68-2.6,1.77-3.51,1.13-.93,2.7-1.51,4.44-1.51,1.82,0,3.46.63,4.59,1.64Z"/>
        <path class="cls-8" d="m54.25,200.24c0,2.78-2.25,5.03-5.02,5.03s-5.03-2.25-5.03-5.03,2.25-5.02,5.03-5.02,5.02,2.25,5.02,5.02Z"/>
        <rect class="cls-8" x="3.86" y="177.04" width="11.3" height="5.03"/>
        <rect class="cls-8" x="45.68" y="177.04" width="11.3" height="5.03"/>
        <rect class="cls-8" x="87.5" y="177.04" width="11.3" height="5.03"/>
        <rect class="cls-8" x="129.32" y="177.04" width="11.3" height="5.03"/>
        <rect class="cls-8" x="171.13" y="177.04" width="11.3" height="5.03"/>
        <rect class="cls-8" x="212.95" y="177.04" width="11.3" height="5.03"/>
        <rect class="cls-8" x="254.77" y="177.04" width="11.3" height="5.03"/>
      </g>
    </g>
  </g>
  <g id="_レイヤー_2" data-name="レイヤー 2">
    <g>
      <path class="cls-4" d="m141.18,17.82c2.44,2.52,6.96,7.82,6.35,8.43-.62.6-8.5-2.67-11.68-2.96s-5.36-.85-5.73-.63c-.36.22-.79,1.83-1.16,3.82-.36,2,.16,5.6-1.02,6.71-1.18,1.1-2.07,1.76-3.03,1.62-3.77-3.47-5.26-3.87-5.68-1.76-.26,1.34-.34,3.75.42,5.12.82,1.47,2.23,1.44,3.13,1.37.74,1.48.52,2.14.52,2.14-2.01.97-4.54,2.27-8.24.73-.25-.1-.51-.23-.78-.36,0,0,2.21-.74,2.44-4.95.22-4.21,3.1-18.92,6.57-20.54.15-.89-1.48-1.78-3.18-2.07s-2.66-.81-3.1.45c-.44,1.25-2.37,5.76-2.73,10.42-.37,4.65-1.7,17.51-1.7,17.51l.12.36c-.82.28-1.76.6-2.79.95l-.07-.21c-.07-4.36,2.83-21.48,3.18-25.11.23-2.36,1.92-6.29,3.18-7.39,1.26-1.11,6.62-.26,6.62-.26,0,0-.23-1.26,0-2.26.22-.95.89-1.63,1.44-1.85,1.1-.44,3.39.44,3.39.44,3.03-4.28,3.92-5.39,4.95-6.42,1.04-1.03,6.21-.96,4.96,1.55-1.26,2.51-2.81,5.69-3.11,5.69.59.89.08,1.85-.51,2.21.15,1.04.15,1.55.15,1.55,3.32,1.48,4.65,3.18,7.09,5.69Z"/>
      <path class="cls-5" d="m135.33,54.8s-4.59,5.43-10.63,4.77-7.76-7.09-9.09-10.2c-1.33-3.1-.55-6.95-.55-6.95,3.7,1.55,6.22.24,8.24-.73,0,0,.22-.66-.52-2.14-.89.07-2.31.1-3.13-1.37-.76-1.37-.68-3.78-.42-5.12.42-2.11,1.91-1.71,5.68,1.76.96.14,1.85-.52,3.03-1.62,1.18-1.11.65-4.71,1.02-6.71.37-1.99.8-3.6,1.16-3.82.37-.23,2.55.33,5.73.63s11.06,3.56,11.68,2.96c0,0,2.36,10.19,1.92,15.51s.74,7.09-1.92,9.6c-2.67,2.52-5.07,3.89-7.69,3.72-2.67-.17-4.51-.29-4.51-.29Z"/>
      <path class="cls-7" d="m201.06,132.93s8.49,2.59,15.55,1.62c-1.03,2.88-5.24,8.87-9.83,10.79l-4.58,1.92-15.07,6.8c2.59-3.69,2.52-7.39,3.85-16.03,1.33-8.65,5.1-6.87,10.09-5.1Z"/>
      <path class="cls-7" d="m133.36,137.95l1.84.48c-4.23,3.32-7.05,11.04-9.32,14.52-.15.96.89,1.85,5.24,2.37l-.22,2.08c-5.1-.56-9.12-1.28-9.53-1.87-9.77,1.02-14.21,1.17-17.42.78,5.3-2.09,18.9-10.98,29.41-18.37Z"/>
      <path class="cls-7" d="m135.2,138.43l-1.84-.48c6.75-4.73,12.21-8.86,13.43-10.19,8.27,10.94,18.87,18.92,20.96,21.72,2.03,2.73,2.73,5.63.23,6.35t-.02,0c-13.84,3.08-15.42,2.51-24.58,2.36-4.04-.07-8.58-.37-12.48-.8l.22-2.08c-4.36-.52-5.39-1.41-5.24-2.37,2.27-3.48,5.1-11.2,9.32-14.52Z"/>
      <path class="cls-1" d="m181.88,118.75c4.44.11,6.85,6.6,5.88,6.98-2.55,1-16.62,4.32-22.72,5.1,4.1-2.66,12.41-12.19,16.84-12.08Z"/>
      <path class="cls-2" d="m107.34,121.7c-2.21,7.84-11.38,13.89-11.38,13.89-1.33,5.62-2.36,8.87-2.36,8.87-6.94,5.17-10.05,11.37-23.35,12.41-9.06.71-23.52.87-32.93-1.22,6.54-.79,44.9-15.63,54.51-19.32,0,0-3.85-7.68-6.65-12.3-2.81-4.62-.15-5.87,1.62-7.39,0,0,16.69,4.32,20.54,5.06Z"/>
      <path class="cls-4" d="m165.04,130.82c6.09-.77,20.17-4.1,22.72-5.1.97-.38-1.44-6.87-5.88-6.98-4.44-.11-12.74,9.42-16.84,12.08Zm56.59-24.93c1.62,4.44,8.5,17.15,8.5,18.33-1.46,1.56-2.83,3.17-4.28,4.64.08-5.41-1.97-5.46-6.62-4.07-4.65,1.38-18.17,8.14-18.17,8.14-4.99-1.77-8.76-3.55-10.09,5.1-1.33,8.65-1.26,12.34-3.85,16.03h-5.61c-8.87,1.48-11.09.74-12.86,1.62-.23.05-.46.1-.68.15,2.5-.72,1.8-3.62-.23-6.35-2.08-2.8-12.68-10.78-20.96-21.72-1.22,1.33-6.68,5.46-13.43,10.19-10.51,7.39-24.11,16.28-29.41,18.37-.97-.11-1.82-.29-2.67-.49-3.7-.89-6.06-1.33-7.68-11.37,0,0,1.03-3.26,2.36-8.87,0,0,9.17-6.05,11.38-13.89-3.85-.74-20.54-5.06-20.54-5.06-1.77,1.52-4.44,2.77-1.62,7.39,2.8,4.62,6.65,12.3,6.65,12.3-9.61,3.7-47.97,18.53-54.51,19.32h0c-4.38-.97-7.67-2.42-8.8-4.54,1.11-16.18,11.3-34.13,14.41-40.34,3.1-6.21,14.84-19.95,19.72-25.27,9.31-15.07,18.62-22.83,22.49-26.16,3.88-3.32,10.09-9.42,14.97-11.52,2.81-1.22,6.66-2.56,9.82-3.64,1.02-.35,1.97-.67,2.79-.95,1.04-.35,1.87-.63,2.36-.82,0,0-.78,3.85.55,6.95,1.33,3.11,3.05,9.53,9.09,10.2s10.63-4.77,10.63-4.77c0,0,1.84.11,4.51.29,5.29.35,13.79.93,17.55,1.37,5.65.67,10.86,2.55,16.84,8.76,5.99,6.21,12.19,10.42,15.74,12.41,3.54,2,5.65,9.19,6.09,10.75s2.33,8.42,10.42,10.2c8.09,1.77,13.53,2.87,15.15,7.31Z"/>
      <path class="cls-2" d="m219.23,124.79c4.65-1.39,6.7-1.34,6.62,4.07-2.53,2.57-5.3,4.76-9.25,5.69-7.06.96-15.55-1.62-15.55-1.62,0,0,13.52-6.76,18.17-8.14Z"/>
    </g>
    <g>
      <path class="cls-9" d="m109.84,43.98c-.07-4.36,2.83-21.48,3.18-25.11.23-2.36,1.92-6.29,3.18-7.39,1.26-1.11,6.62-.26,6.62-.26,0,0-.23-1.26,0-2.26.22-.95.89-1.63,1.44-1.85,1.1-.44,3.39.44,3.39.44,3.03-4.28,3.92-5.39,4.95-6.42,1.04-1.03,6.21-.96,4.96,1.55-1.26,2.51-2.81,5.69-3.11,5.69.59.89.08,1.85-.51,2.21.15,1.04.15,1.55.15,1.55,3.32,1.48,4.65,3.18,7.09,5.69,2.44,2.52,6.96,7.82,6.35,8.43-.62.6-8.5-2.67-11.68-2.96s-5.36-.85-5.73-.63c-.36.22-.79,1.83-1.16,3.82-.36,2,.16,5.6-1.02,6.71-1.18,1.1-2.07,1.76-3.03,1.62-3.77-3.47-5.26-3.87-5.68-1.76-.26,1.34-.34,3.75.42,5.12.82,1.47,2.23,1.44,3.13,1.37.74,1.48.52,2.14.52,2.14-2.01.97-4.54,2.27-8.24.73-.25-.1-.51-.23-.78-.36,0,0,2.21-.74,2.44-4.95.22-4.21,3.1-18.92,6.57-20.54.15-.89-1.48-1.78-3.18-2.07s-2.66-.81-3.1.45c-.44,1.25-2.37,5.76-2.73,10.42-.37,4.65-1.7,17.51-1.7,17.51"/>
      <path class="cls-9" d="m37.3,155.65c-4.38-.97-7.67-2.42-8.8-4.54,1.11-16.18,11.3-34.13,14.41-40.34,3.1-6.21,14.84-19.95,19.72-25.27,9.31-15.07,18.62-22.83,22.49-26.16,3.88-3.32,10.09-9.42,14.97-11.52,2.81-1.22,6.66-2.56,9.82-3.64,1.02-.35,1.97-.67,2.79-.95,1.04-.35,1.87-.63,2.36-.82,0,0-.78,3.85.55,6.95,1.33,3.11,3.05,9.53,9.09,10.2s10.63-4.77,10.63-4.77c0,0,1.84.11,4.51.29,5.29.35,13.79.93,17.55,1.37,5.65.67,10.86,2.55,16.84,8.76,5.99,6.21,12.19,10.42,15.74,12.41,3.54,2,5.65,9.19,6.09,10.75s2.33,8.42,10.42,10.2c8.09,1.77,13.53,2.87,15.15,7.31s8.5,17.15,8.5,18.33c-1.46,1.56-2.83,3.17-4.28,4.64-2.53,2.57-5.3,4.76-9.25,5.69-1.03,2.88-5.24,8.87-9.83,10.79l-4.58,1.92-15.07,6.8h-5.61c-8.87,1.48-11.09.74-12.86,1.62-.23.05-.46.1-.68.15"/>
      <path class="cls-9" d="m167.97,155.84c-13.84,3.08-15.42,2.51-24.58,2.36-4.04-.07-8.58-.37-12.48-.8-5.1-.56-9.12-1.28-9.53-1.87-9.77,1.02-14.21,1.17-17.42.78-.97-.11-1.82-.29-2.67-.49-3.7-.89-6.06-1.33-7.68-11.37-6.94,5.17-10.05,11.37-23.35,12.41-9.06.71-23.52.87-32.93-1.22"/>
      <path class="cls-9" d="m127.5,49.3s2.44,5.47,7.83,5.5"/>
      <path class="cls-9" d="m147.53,26.25s2.36,10.19,1.92,15.51.74,7.09-1.92,9.6c-2.67,2.52-5.07,3.89-7.69,3.72"/>
      <path class="cls-9" d="m132.01,31.41h5.99"/>
      <line class="cls-9" x1="143.32" y1="30.82" x2="147.58" y2="30.82"/>
      <path class="cls-9" d="m141.91,34.82s2.93,8.2,2.76,9.45c-.17,1.26-1.81,1.77-2.76,1.77"/>
      <path class="cls-9" d="m133.2,37.33s2.66-.07,3.69,0"/>
      <path class="cls-9" d="m144.68,37.29s2.36-.25,2.9,0"/>
      <path class="cls-9" d="m138,50.18s3.77.23,4.65,0"/>
      <path class="cls-10" d="m107.34,47.67c3.25,6.06,7.51,15.95,11.97,17.43,4.23,1.42,8.81,1.88,12.7-.65,1.81-1.18,3.47-3.01,4.88-5.7"/>
      <path class="cls-10" d="m132.01,64.46c3.32,3.53,11.16,12.84,12.67,20.16,1.51,7.32-.3,29.92-1.39,34.13"/>
      <path class="cls-10" d="m143.32,60.45c3.84,5.92,9.29,12.07,12.44,19.36,1.22,2.81,2.09,5.8,2.4,9.01,1.11,11.53,3,23.72,0,26.93-.3.32-.61.63-.92.89-2.75,2.4-5.74,2.74-8.72,3.44"/>
      <path class="cls-10" d="m161.49,60.45s-.48,16.12-5.73,19.36"/>
      <path class="cls-10" d="m166.04,75.52l3.43-6.42,3.55,8.53s-8.65,5.1-10.53,10.08"/>
      <path class="cls-10" d="m164.15,96.58s9.31-10.53,24.38-11.3"/>
      <path class="cls-10" d="m162.49,99.02s11.53,2.99,21.28,7.2c9.75,4.22,18.28,6.65,18.84,6.65"/>
      <path class="cls-10" d="m165.04,106.89s13.96,10.64,17.51,11.86"/>
      <path class="cls-9" d="m187.76,125.73c.97-.38-1.44-6.87-5.88-6.98-4.44-.11-12.74,9.42-16.84,12.08,6.09-.77,20.17-4.1,22.72-5.1Z"/>
      <path class="cls-10" d="m157.24,116.64s6.02,6.76,7.8,14.19"/>
      <path class="cls-9" d="m225.85,128.86c.08-5.41-1.97-5.46-6.62-4.07-4.65,1.38-18.17,8.14-18.17,8.14,0,0,8.49,2.59,15.55,1.62"/>
      <path class="cls-9" d="m201.06,132.93c-4.99-1.77-8.76-3.55-10.09,5.1-1.33,8.65-1.26,12.34-3.85,16.03"/>
      <path class="cls-9" d="m103.95,156.32c5.3-2.09,18.9-10.98,29.41-18.37,6.75-4.73,12.21-8.86,13.43-10.19,8.27,10.94,18.87,18.92,20.96,21.72,2.03,2.73,2.73,5.63.23,6.35t-.02,0c-.07.02-.14.03-.22.05"/>
      <path class="cls-9" d="m138.36,136.93c-1.14.19-2.19.73-3.16,1.5-4.23,3.32-7.05,11.04-9.32,14.52-.15.96.89,1.85,5.24,2.37"/>
      <path class="cls-10" d="m92.41,70.13c-.59.89-7.83-4.88-7.83-4.88l-5.47,6.06c9.16,2.96,18.61,7.09,21.43,13.97"/>
      <path class="cls-10" d="m95.36,53.88s-.35,7.82,6.8,17.87"/>
      <path class="cls-10" d="m104.97,53.88s.75,3.98,3.55,5.9"/>
      <path class="cls-10" d="m50.74,112.82s3.1,13.91,3.98,14.94"/>
      <path class="cls-10" d="m50.74,134.77c.59-.66,35.46-17.35,40.64-24"/>
      <path class="cls-10" d="m62.41,106.89s33.4-12.6,36.35-15.96"/>
      <path class="cls-10" d="m57.39,95.11s30.14-.45,34.43-2.52"/>
      <path class="cls-10" d="m114.58,69.1s6.35,21.87,4.44,28.52c-1.93,6.65-3.4,19.02-3.4,19.02"/>
      <path class="cls-10" d="m115.9,118.75s12.56,2.95,19.43,2.95"/>
      <path class="cls-10" d="m104.97,131.47s17.88-6.88,21.73-7.44"/>
      <path class="cls-9" d="m93.59,144.46s1.03-3.26,2.36-8.87c0,0,9.17-6.05,11.38-13.89-3.85-.74-20.54-5.06-20.54-5.06-1.77,1.52-4.44,2.77-1.62,7.39,2.8,4.62,6.65,12.3,6.65,12.3-9.61,3.7-47.97,18.53-54.51,19.32h0"/>
      <path class="cls-10" d="m167.75,142.04s7.6,5.52,8.59,7.08,3.71,3.98,3.71,3.98"/>
    </g>
  </g>
</svg>