<?xml version="1.0" encoding="UTF-8"?>
<svg id="_レイヤー_1" data-name="レイヤー 1" xmlns="http://www.w3.org/2000/svg" viewBox="0 0 213.18 198.22">
  <defs>
    <style>
      .cls-1 {
        fill: #33352f;
      }

      .cls-1, .cls-2, .cls-3, .cls-4, .cls-5 {
        stroke-width: 0px;
      }

      .cls-2 {
        fill: #be97b6;
      }

      .cls-3 {
        fill: #e13c20;
      }

      .cls-6 {
        stroke: #000;
      }

      .cls-6, .cls-7 {
        fill: none;
        stroke-linecap: round;
        stroke-linejoin: round;
      }

      .cls-4 {
        fill: #333;
      }

      .cls-7 {
        stroke: #eee;
      }

      .cls-5 {
        fill: #fbd1a1;
      }
    </style>
  </defs>
  <g>
    <path class="cls-1" d="m65.71,101.99c.74-1.12,1.33-2.03,1.69-2.65.87-1.55,2.61-3.79,4.61-6.05,3.15-3.55,6.92-7.2,9.04-8.47,3.16-1.9,10.93-5.67,14.89.54l2.4-.54s3.63.69,10.89-3.81c7.26-4.49,12.44-15.21,13.47-17.45l.16-1.84c9.05.81,18.03,1.15,21.1,1.49,3.11.35,6.74,1.18,8.99,6.47s12.28,32.77,16.25,38.82c3.98,6.04,5.02,12.09,16.25,11.75s23.51,4.84,25.23,11.23c1.73,6.4,2.77,16.6,1.38,21.95-1.38,5.36-1.81,14.43-1.55,19.1-2.34-1.04-9.07-1.82-11.4-1.3s-12.97,5.71-19.44,6.49c-11.15-10.89-21.33-15.82-35.81-19.96-14.48-4.15-39.88-7.52-41.7-7.26,8.81,9.85,14.69,9.84,20.56,13.61,5.88,3.76,12.87,14.65,19.88,15.42,6.91.77,13.3,1.54,19.61-.32-.59.16-1.17.36-1.73.59-5.7,2.34-13.99,13.22-15.29,17.89-9.33.77-25.34-8.81-31.08-11.41-5.73-2.59-11.95-5.96-11.95-5.96-9.6-7.51-15.56-18.49-17.63-19.62-11.15,5.88-17.37,9.81-17.37,9.81l-12.18,5.92-12.7,4.41-8.56-11.15c4.67-1.55,24.2-12.78,33.71-19.35,9.5-6.57,24.2-21.78,23.5-23.16-.69-1.38-11.75,4.14-16.25,9.33-4.49,5.19-32.49,20.74-59.36,32.93-9.34,0-14.78-1.56-14.78-1.56l8.04-13.22s2.76-12.27,7.69-19.01c2.76-3.77,8.44-8.24,14.05-12.18,4.43-3.1,8.8-5.87,11.7-7.69,6.26-3.96,19.75-12.94,21-13.77h2.73Z"/>
    <path class="cls-3" d="m179.64,177.71c-5.76.69-11.94-.06-17.25,1.42l-.21.06c-6.31,1.87-12.69,1.1-19.61.32-7.01-.77-14-11.67-19.88-15.42-5.87-3.77-11.75-3.76-20.56-13.61,1.82-.26,27.22,3.11,41.7,7.26,14.48,4.14,24.66,9.07,35.81,19.96Z"/>
    <path class="cls-1" d="m122.85,61.72l-.16,1.84c-1.04,2.24-6.21,12.97-13.47,17.45-7.26,4.5-10.89,3.81-10.89,3.81l-2.4.54c-3.96-6.2-11.73-2.44-14.89-.54-2.11,1.27-5.89,4.91-9.04,8.47l-.26-.23c-2.07-1.21-6.08-11.18-5.74-14.8l-2.81-.74c1.48-1.43,2.75-2.56,3.68-3.24,4.93-3.62,7.28-7.2,10.06-7.62,1.8,1.26,4.1,2.23,7.06,2.69,2.39.38,4.52.41,6.41.22,1.82,4.12,4.43,6.4,9.75,5.92,2.2-.2,5.48-1.86,9.25-5.81,3.76-3.95,7.16-12.78,7.16-12.78l5.97,4.79.34.03Z"/>
    <path class="cls-1" d="m112.76,53.85l3.79,3.05s-3.4,8.83-7.16,12.78c-3.77,3.95-7.05,5.6-9.25,5.81-5.32.48-7.93-1.8-9.75-5.92,1.98-.2,3.7-.64,5.16-1.21,3.29,2.11,8.13-.82,10.89-4.28,2.77-3.45,5.63-9.77,5.63-9.77l.69-.46Z"/>
    <path class="cls-4" d="m108.48,29.71c-1.97-6.27-4.23-8.46-5.47-10.82-.22-.42-.68-.67-1.16-.61l-7.68.86v2.33c3.62,4.23,9.41,10.2,10.46,16.25,1.04,6.05,1.29,7.52,1.29,7.52,2.17,2.49,3.86,4.28,5.09,5.53,1.79,1.83,2.61,2.5,2.61,2.5l-.86.58-.69.46-6.22-5.01-.78-.95-.5-1.89c-.75-2.9-1.23-4.44-2.95-4.93-2.08-.61-3.54,2.85-3.72,5.1h-.69c-1.99-3.8-4.75-7.95-4.92-10.37-3.03-2.68-4.33-3.89-4.33-3.89-4.67,1.73-8.2,3.37-14.95,2.85,1.21-4.15,3.8-10.72,11.06-13.75v-.94h-3.45v-.95h3.03v-1.21c-4.67-3.89-10.89-9.77-12.36-11.06-1.47-1.3-.78-2.94,0-3.72.77-.78,2.42-2.34,3.02-2.68.61-.35,1.41-.88,2.94.43,2.42,2.08,9.85,10.63,9.85,10.63.52-4.66,2.42-6.96,3.37-7.55.94-.61,2.76-1.43,5.01-.3,2.25,1.12,8.39,6.13,12.1,15.81s7.51,23.42,8.3,30.25c-.51.51-1.81.95-2.21.43-.08-.1-.12-.24-.12-.43,0-1.1-3.24-14.28-5.02-20.36l-.03-.09Zm-10.34-13.34c1.82-.17,2.68-1.21,2.25-2.15-.44-.95-3.37-4.42-4.93-5.97-1.55-1.55-2.42-1.38-2.84-.43-.44.94-1.56,2.85-2.77,8.12-.26,1.1.69,1.21,1.38,1.21s5.11-.61,6.91-.78Z"/>
    <path class="cls-5" d="m90.39,69.57c-1.89.18-4.02.15-6.41-.22-2.95-.46-5.26-1.43-7.06-2.69-.43-.29-.83-.61-1.2-.93l2.16-.13c.12-.25.77-2.03.77-2.03l1.04-2.38c-1.32-.75-2.92-5.24-3.63-8.47l-2.19.3-3.45-.57-.79.12c-.69-4.34-.65-12.4,3.38-17.35,6.74.52,10.28-1.13,14.95-2.85,0,0,1.3,1.21,4.33,3.89.17,2.42,2.93,6.57,4.92,10.37h.69c.17-2.24,1.63-5.71,3.72-5.1,1.73.5,2.2,2.03,2.95,4.93l.5,1.89.78.95,6.22,5.01s-2.85,6.32-5.63,9.77c-2.76,3.46-7.6,6.4-10.89,4.28-1.46.57-3.18,1.01-5.16,1.21Z"/>
    <path class="cls-2" d="m102.13,180.3c-7.78,1.3-27.49-3.11-27.49-3.11,0,0-3.62-3.12-7.51-6.7,0,0,6.22-3.93,17.37-9.81,2.07,1.13,8.03,12.1,17.63,19.62Z"/>
    <path class="cls-3" d="m90.89,127.16c.7,1.38-13.99,16.59-23.5,23.16-9.51,6.57-29.04,17.8-33.71,19.35-10.88,1.04-18.4-.25-18.4-.25,26.87-12.18,54.87-27.74,59.36-32.93,4.5-5.19,15.56-10.71,16.25-9.33Z"/>
    <path class="cls-5" d="m79.7,61.18l-1.04,2.38s-.65,1.78-.77,2.03l-2.16.13c-4.31-3.77-5.23-9.26-5.86-11.9-.09-.37-.17-.79-.24-1.25l.79-.12,3.45.57,2.19-.3c.71,3.23,2.32,7.72,3.63,8.47Z"/>
    <path class="cls-2" d="m67.13,170.49c3.89,3.58,7.51,6.7,7.51,6.7-5.44,1.81-19.7-.78-19.7-.78l12.18-5.92Z"/>
    <path class="cls-1" d="m62.97,101.99c-1.25.83-14.73,9.81-21,13.77-2.89,1.82-7.27,4.59-11.7,7.69-4.53.29-5.5-9.49-5.5-9.49.95-.27,1.93-.54,2.94-.79,7.78-4.41,10.63-5.44,15.04-12.18,3.58-5.48,14-17.28,20.43-23.46l2.81.74c-.35,3.62,3.67,13.6,5.74,14.8l.26.23c-2,2.26-3.74,4.5-4.61,6.05-.36.62-.94,1.53-1.69,2.65h-2.73Z"/>
    <path class="cls-2" d="m24.78,113.95s.97,9.79,5.5,9.49c-5.61,3.94-11.29,8.42-14.05,12.18-4.92,6.74-7.69,19.01-7.69,19.01-7.01-7.78-8.04-21-4.67-27.48,3.1-5.95,10.13-10.15,20.91-13.21Z"/>
  </g>
  <g>
    <path class="cls-6" d="m108.48,29.71c-.04-.16-.09-.31-.13-.47"/>
    <path class="cls-6" d="m104.56,46.46c-.75-2.9-1.23-4.44-2.95-4.93-2.08-.61-3.54,2.85-3.72,5.1h-.69c-1.99-3.8-4.75-7.95-4.92-10.37-3.03-2.68-4.33-3.89-4.33-3.89-4.67,1.73-8.2,3.37-14.95,2.85,1.21-4.15,3.8-10.72,11.06-13.75v-.94h-3.45v-.95h3.03v-1.21c-4.67-3.89-10.89-9.77-12.36-11.06-1.47-1.3-.78-2.94,0-3.72.77-.78,2.42-2.34,3.02-2.68.61-.35,1.41-.88,2.94.43,2.42,2.08,9.85,10.63,9.85,10.63.52-4.66,2.42-6.96,3.37-7.55.94-.61,2.76-1.43,5.01-.3,2.25,1.12,8.39,6.13,12.1,15.81s7.51,23.42,8.3,30.25c-.51.51-1.81.95-2.21.43-.08-.1-.12-.24-.12-.43,0-1.1-3.24-14.28-5.02-20.36"/>
    <path class="cls-6" d="m108.51,29.81l-.03-.09c-1.97-6.27-4.23-8.46-5.47-10.82-.22-.42-.68-.67-1.16-.61l-7.68.86v2.33c3.62,4.23,9.41,10.2,10.46,16.25,1.04,6.05,1.29,7.52,1.29,7.52,2.17,2.49,3.86,4.28,5.09,5.53,1.79,1.83,2.61,2.5,2.61,2.5l-.86.58-.69.46-6.22-5.01-.78-.95"/>
    <path class="cls-6" d="m104.56,46.46l.5,1.89c.5,1.9-.39,2.55-1.04,3.16-.65.6-3.89.52-3.89.52"/>
    <path class="cls-6" d="m73.01,35.22c-4.03,4.95-4.07,13.02-3.38,17.35.07.46.15.88.24,1.25.63,2.64,1.55,8.13,5.86,11.9.37.32.77.64,1.2.93,1.8,1.26,4.1,2.23,7.06,2.69,2.39.38,4.52.41,6.41.22,1.98-.2,3.7-.64,5.16-1.21,3.95-1.5,6.05-3.86,6.58-4.46"/>
    <path class="cls-6" d="m95.55,68.36c3.29,2.11,8.13-.82,10.89-4.28,2.77-3.45,5.63-9.77,5.63-9.77"/>
    <path class="cls-6" d="m162.17,179.19c-.59.16-1.17.36-1.73.59-5.7,2.34-13.99,13.22-15.29,17.89-9.33.77-25.34-8.81-31.08-11.41-5.73-2.59-11.95-5.96-11.95-5.96-7.78,1.3-27.49-3.11-27.49-3.11-5.44,1.81-19.7-.78-19.7-.78l-12.7,4.41-8.56-11.15c-10.88,1.04-18.4-.25-18.4-.25-9.34,0-14.78-1.56-14.78-1.56l8.04-13.22c-7.01-7.78-8.04-21-4.67-27.48,3.1-5.95,10.13-10.15,20.91-13.21.95-.27,1.93-.54,2.94-.79,7.78-4.41,10.63-5.44,15.04-12.18,3.58-5.48,14-17.28,20.43-23.46,1.48-1.43,2.75-2.56,3.68-3.24,4.93-3.62,7.28-7.2,10.06-7.62"/>
    <path class="cls-6" d="m112.76,53.85l3.79,3.05,5.97,4.79.34.03c9.05.81,18.03,1.15,21.1,1.49,3.11.35,6.74,1.18,8.99,6.47s12.28,32.77,16.25,38.82c3.98,6.04,5.02,12.09,16.25,11.75s23.51,4.84,25.23,11.23c1.73,6.4,2.77,16.6,1.38,21.95-1.38,5.36-1.81,14.43-1.55,19.1-2.34-1.04-9.07-1.82-11.4-1.3s-12.97,5.71-19.44,6.49c-5.76.69-11.94-.06-17.25,1.42"/>
    <path class="cls-6" d="m15.28,169.42c26.87-12.18,54.87-27.74,59.36-32.93,4.5-5.19,15.56-10.71,16.25-9.33.7,1.38-13.99,16.59-23.5,23.16-9.51,6.57-29.04,17.8-33.71,19.35"/>
    <path class="cls-7" d="m55.63,92.25l7.43,9.68-.09.06c-1.25.83-14.73,9.81-21,13.77-2.89,1.82-7.27,4.59-11.7,7.69"/>
    <path class="cls-7" d="m66,78.25c-.35,3.62,3.67,13.6,5.74,14.8"/>
    <path class="cls-7" d="m102.68,119.55s-2.27-23.16-5.74-32.15c-.29-.78-.64-1.46-1.02-2.05-3.96-6.2-11.73-2.44-14.89-.54-2.11,1.27-5.89,4.91-9.04,8.47-2,2.26-3.74,4.5-4.61,6.05-.36.62-.94,1.53-1.69,2.65-4.04,6-12.61,17.57-12.61,17.57,6.17,3.11,9.63,8.47,19.99,3.89,0,0,4.84-9.94,8.71-17.72,3.86-7.78,2.36-9.5,2.36-9.5"/>
    <path class="cls-7" d="m122.69,63.56c-1.04,2.24-6.21,12.97-13.47,17.45-7.26,4.5-10.89,3.81-10.89,3.81"/>
    <path class="cls-7" d="m77.89,71.33s5.4,8.47,7.82,8.3"/>
    <path class="cls-7" d="m75.69,74.21s-4.67,12.85-6.4,14.93"/>
    <path class="cls-7" d="m126.67,69.07s-9.46,14.02-12.26,22.14c-2.78,8.12-5.54,22.11-5.54,26.27"/>
    <path class="cls-7" d="m129.77,79.63l8.3-5.42,1.04,10.64c-12.96,5.67-21.08,11.03-28.6,31.94"/>
    <path class="cls-7" d="m153.28,101.24c-6.91,2.42-29.9,12.27-40.44,16.25"/>
    <path class="cls-7" d="m126.67,124.22s20.22-3.63,38.89-2.77"/>
    <path class="cls-7" d="m103.8,118.17s6.45.17,16.47,5.27c10.02,5.1,45.46,15.98,52.54,16.68,7.08.69,13.82,9.85,9.85,20.56"/>
    <path class="cls-6" d="m179.64,177.71c-11.15-10.89-21.33-15.82-35.81-19.96-14.48-4.15-39.88-7.52-41.7-7.26,8.81,9.85,14.69,9.84,20.56,13.61,5.88,3.76,12.87,14.65,19.88,15.42,6.91.77,13.3,1.54,19.61-.32l.21-.06"/>
    <path class="cls-7" d="m205.04,134.42c-10.07.16-19.64.5-25.4,2.07.5-3.89.6-8.29.11-13.44"/>
    <path class="cls-7" d="m108.87,123.44s1.77,16.42,5.54,20.04"/>
    <path class="cls-7" d="m88.12,139.42c-3.11,3.29-4.53,11.59,2.79,12.62l7.32,1.04"/>
    <polyline class="cls-7" points="74.12 150.47 91.91 156.2 84.5 160.68"/>
    <path class="cls-6" d="m102.13,180.3c-9.6-7.51-15.56-18.49-17.63-19.62-11.15,5.88-17.37,9.81-17.37,9.81,3.89,3.58,7.51,6.7,7.51,6.7"/>
    <line class="cls-6" x1="67.13" y1="170.49" x2="54.94" y2="176.41"/>
    <path class="cls-7" d="m148.79,155.58c.25,1.66,19.96,4.93,24.1,5.11"/>
    <line class="cls-6" x1="70.42" y1="44.2" x2="74.77" y2="45.37"/>
    <line class="cls-6" x1="79.7" y1="42.9" x2="84.89" y2="39.01"/>
    <line class="cls-6" x1="82.3" y1="49.24" x2="85.71" y2="47.96"/>
    <line class="cls-6" x1="70.42" y1="52.45" x2="73.87" y2="53.02"/>
    <path class="cls-6" d="m75.69,49.9c-.04.6.11,1.61.38,2.81.71,3.23,2.32,7.72,3.63,8.47,1.82,1.04,3.41-.13,4.31-1.69"/>
    <path class="cls-6" d="m78.66,63.56s-.65,1.78-.77,2.03"/>
    <path class="cls-6" d="m88.64,60.01s2.85.51,3.5,1.68"/>
    <line class="cls-6" x1="83.46" y1="64.57" x2="87.34" y2="63.56"/>
    <path class="cls-7" d="m116.54,56.89s-3.4,8.83-7.16,12.78c-3.77,3.95-7.05,5.6-9.25,5.81-5.32.48-7.93-1.8-9.75-5.92h0"/>
    <path class="cls-6" d="m89.85,15.95c1.21-5.27,2.34-7.18,2.77-8.12.43-.95,1.29-1.13,2.84.43,1.56,1.55,4.5,5.02,4.93,5.97.43.94-.44,1.98-2.25,2.15-1.81.17-6.21.78-6.91.78s-1.64-.11-1.38-1.21Z"/>
    <path class="cls-6" d="m24.78,113.95s.97,9.79,5.5,9.49"/>
  </g>
</svg>