<?xml version="1.0" encoding="UTF-8"?>
<svg xmlns="http://www.w3.org/2000/svg" viewBox="0 0 270.53 204.11">
  <defs>
    <style>
      .cls-1 {
        fill: #fffbc4;
      }

      .cls-1, .cls-2, .cls-3, .cls-4, .cls-5, .cls-6, .cls-7, .cls-8 {
        stroke-width: 0px;
      }

      .cls-9 {
        stroke-miterlimit: 10;
      }

      .cls-9, .cls-10 {
        fill: none;
        stroke: #000;
      }

      .cls-2 {
        fill: #b385b6;
      }

      .cls-3 {
        fill: #f3edd7;
      }

      .cls-10 {
        stroke-linecap: round;
        stroke-linejoin: round;
      }

      .cls-4 {
        fill: #333;
      }

      .cls-5 {
        fill: #ffdaae;
      }

      .cls-6 {
        fill: #d2d296;
      }

      .cls-7 {
        fill: #fc5b3f;
      }

      .cls-8 {
        fill: #8db88d;
      }
    </style>
  </defs>
  <g id="_畳" data-name="畳">
    <g>
      <g>
        <rect class="cls-3" x=".24" y="169.44" width="3.62" height="5.03"/>
        <path class="cls-3" d="m270.28,197.04v6.57h-30.47l15.36-8.64c1.03,1.62,3.11,2.72,5.52,2.72s4.62-1.18,5.62-2.88l3.97,2.23Z"/>
        <path class="cls-3" d="m270.28,186.47v10.56l-3.97-2.23c.38-.65.59-1.38.59-2.15,0-1.3-.62-2.48-1.62-3.38l5-2.81Z"/>
        <path class="cls-3" d="m270.28,174.47v12l-5,2.81c-1.14-1.01-2.77-1.64-4.6-1.64s-3.31.58-4.44,1.51l-26.11-14.67h40.14Z"/>
        <polygon class="cls-3" points="270.28 114.23 270.28 120 1.13 120 .24 120 .24 114.23 270.28 114.23"/>
        <rect class="cls-3" x="266.28" y="169.44" width="4" height="5.03"/>
        <path class="cls-3" d="m266.9,192.66c0,.76-.21,1.49-.59,2.15l-5.42-3.05,4.4-2.48c1,.89,1.62,2.08,1.62,3.38Z"/>
        <path class="cls-3" d="m260.89,191.76l5.42,3.05c-1,1.7-3.14,2.88-5.62,2.88s-4.48-1.1-5.52-2.72l5.72-3.21Z"/>
        <rect class="cls-4" x="254.97" y="169.44" width="11.31" height="5.03"/>
        <path class="cls-3" d="m265.29,189.28l-4.4,2.48-4.64-2.61c1.13-.93,2.7-1.51,4.44-1.51,1.82,0,3.46.63,4.6,1.64Z"/>
        <path class="cls-3" d="m260.89,191.76l-5.72,3.21c-.44-.69-.7-1.48-.7-2.31,0-1.37.68-2.61,1.77-3.51l4.64,2.61Z"/>
        <path class="cls-3" d="m230.14,174.47l26.11,14.67c-1.09.9-1.77,2.14-1.77,3.51,0,.83.25,1.62.7,2.31l-15.36,8.64h-41.5l-15.66-8.8c.38-.65.59-1.38.59-2.15,0-1.3-.62-2.48-1.62-3.37l26.35-14.81h22.16Zm-5.97,18.18c0-2.77-2.25-5.02-5.02-5.02s-5.03,2.25-5.03,5.02,2.25,5.03,5.03,5.03,5.02-2.25,5.02-5.03Z"/>
        <polygon class="cls-3" points="254.97 174.47 230.14 174.47 224.43 174.47 224.43 169.44 254.97 169.44 254.97 174.47"/>
        <rect class="cls-4" x="213.12" y="169.44" width="11.31" height="5.03"/>
        <path class="cls-4" d="m219.15,187.64c2.77,0,5.02,2.25,5.02,5.02s-2.25,5.03-5.02,5.03-5.03-2.25-5.03-5.03,2.25-5.02,5.03-5.02Z"/>
        <path class="cls-3" d="m207.98,174.47l-26.35,14.81c-1.14-1.02-2.77-1.65-4.6-1.65s-3.31.58-4.44,1.51l-26.11-14.67h61.49Z"/>
        <polygon class="cls-3" points="182.58 174.47 182.58 169.44 213.12 169.44 213.12 174.47 207.98 174.47 182.58 174.47"/>
        <path class="cls-3" d="m198.31,203.61h-42.15l15.36-8.64c1.03,1.62,3.12,2.72,5.52,2.72s4.62-1.18,5.62-2.88l15.66,8.8Z"/>
        <path class="cls-3" d="m183.24,192.66c0,.76-.21,1.49-.59,2.15l-5.42-3.05,4.4-2.47c1,.89,1.62,2.07,1.62,3.37Z"/>
        <path class="cls-3" d="m177.23,191.76l5.42,3.05c-1,1.7-3.14,2.88-5.62,2.88s-4.48-1.1-5.52-2.72l5.72-3.21Z"/>
        <rect class="cls-4" x="171.27" y="169.44" width="11.31" height="5.03"/>
        <path class="cls-3" d="m177.03,187.64c1.82,0,3.46.63,4.6,1.65l-4.4,2.47-4.64-2.61c1.13-.93,2.7-1.51,4.44-1.51Z"/>
        <path class="cls-3" d="m177.23,191.76l-5.72,3.21c-.44-.69-.7-1.48-.7-2.31,0-1.37.68-2.61,1.77-3.51l4.64,2.61Z"/>
        <path class="cls-3" d="m146.48,174.47l26.11,14.67c-1.09.9-1.77,2.14-1.77,3.51,0,.83.25,1.62.7,2.31l-15.36,8.64h-41.5l-15.66-8.8c.38-.65.59-1.38.59-2.15,0-1.3-.62-2.48-1.62-3.37l26.35-14.81h22.16Zm-7.02,18.18c0-2.77-2.25-5.02-5.02-5.02s-5.03,2.25-5.03,5.02,2.25,5.03,5.03,5.03,5.02-2.25,5.02-5.03Z"/>
        <polygon class="cls-3" points="171.27 174.47 146.48 174.47 140.73 174.47 140.73 169.44 171.27 169.44 171.27 174.47"/>
        <rect class="cls-4" x="129.42" y="169.44" width="11.31" height="5.03"/>
        <path class="cls-4" d="m134.44,187.64c2.77,0,5.02,2.25,5.02,5.02s-2.25,5.03-5.02,5.03-5.03-2.25-5.03-5.03,2.25-5.02,5.03-5.02Z"/>
        <path class="cls-3" d="m124.32,174.47l-26.35,14.81c-1.14-1.02-2.77-1.65-4.6-1.65s-3.31.58-4.44,1.51l-26.11-14.67h61.49Z"/>
        <polygon class="cls-3" points="129.42 174.47 124.32 174.47 98.88 174.47 98.88 169.44 129.42 169.44 129.42 174.47"/>
        <path class="cls-3" d="m114.65,203.61h-42.15l15.36-8.64c1.03,1.62,3.11,2.72,5.52,2.72s4.62-1.18,5.62-2.88l15.66,8.8Z"/>
        <path class="cls-3" d="m99.59,192.66c0,.76-.21,1.49-.59,2.15l-5.42-3.05,4.4-2.47c1,.89,1.62,2.07,1.62,3.37Z"/>
        <path class="cls-3" d="m93.57,191.76l5.42,3.05c-1,1.7-3.14,2.88-5.62,2.88s-4.48-1.1-5.52-2.72l5.72-3.21Z"/>
        <rect class="cls-4" x="87.57" y="169.44" width="11.31" height="5.03"/>
        <path class="cls-3" d="m93.37,187.64c1.82,0,3.46.63,4.6,1.65l-4.4,2.47-4.64-2.61c1.13-.93,2.7-1.51,4.44-1.51Z"/>
        <path class="cls-3" d="m93.57,191.76l-5.72,3.21c-.44-.69-.7-1.48-.7-2.31,0-1.37.68-2.61,1.77-3.51l4.64,2.61Z"/>
        <path class="cls-3" d="m62.83,174.47l26.11,14.67c-1.09.9-1.77,2.14-1.77,3.51,0,.83.25,1.62.7,2.31l-15.36,8.64H30.8l-15.66-8.8c.38-.65.59-1.38.59-2.15,0-1.3-.62-2.48-1.62-3.37l26.35-14.81h22.35Zm-8.53,18.18c0-2.77-2.25-5.02-5.02-5.02s-5.03,2.25-5.03,5.02,2.25,5.03,5.03,5.03,5.02-2.25,5.02-5.03Z"/>
        <polygon class="cls-3" points="87.57 174.47 62.83 174.47 57.03 174.47 57.03 169.44 87.57 169.44 87.57 174.47"/>
        <rect class="cls-4" x="45.72" y="169.44" width="11.31" height="5.03"/>
        <path class="cls-4" d="m49.27,187.64c2.77,0,5.02,2.25,5.02,5.02s-2.25,5.03-5.02,5.03-5.03-2.25-5.03-5.03,2.25-5.02,5.03-5.02Z"/>
        <polygon class="cls-3" points="45.72 174.47 40.47 174.47 15.18 174.47 15.18 169.44 45.72 169.44 45.72 174.47"/>
        <path class="cls-3" d="m30.8,203.61H.24v-6.52l3.76-2.11c1.03,1.62,3.12,2.72,5.52,2.72s4.62-1.18,5.62-2.88l15.66,8.8Z"/>
        <path class="cls-3" d="m15.74,192.66c0,.76-.21,1.49-.59,2.15l-5.42-3.05,4.4-2.47c1,.89,1.62,2.07,1.62,3.37Z"/>
        <rect class="cls-4" x="3.87" y="169.44" width="11.31" height="5.03"/>
        <path class="cls-3" d="m9.72,191.76l5.42,3.05c-1,1.7-3.14,2.88-5.62,2.88s-4.48-1.1-5.52-2.72l5.72-3.21Z"/>
        <path class="cls-3" d="m9.52,187.64c1.82,0,3.46.63,4.6,1.65l-4.4,2.47-4.64-2.61c1.13-.93,2.7-1.51,4.44-1.51Z"/>
        <path class="cls-3" d="m9.72,191.76l-5.72,3.21c-.44-.69-.7-1.48-.7-2.31,0-1.37.68-2.61,1.77-3.51l4.64,2.61Z"/>
        <path class="cls-3" d="m.24,186.43l4.84,2.72c-1.09.9-1.77,2.14-1.77,3.51,0,.83.25,1.62.7,2.31l-3.76,2.11v-10.65Z"/>
        <polygon class="cls-6" points="213.12 169.44 182.58 169.44 171.27 169.44 140.73 169.44 129.42 169.44 98.88 169.44 87.57 169.44 57.03 169.44 45.72 169.44 15.18 169.44 3.87 169.44 .24 169.44 .24 120 1.13 120 270.28 120 270.28 169.44 266.28 169.44 254.97 169.44 224.43 169.44 213.12 169.44"/>
        <path class="cls-3" d="m.24,174.47h40.23l-26.35,14.81c-1.14-1.02-2.77-1.65-4.6-1.65s-3.31.58-4.44,1.51l-4.84-2.72v-11.95Z"/>
      </g>
      <g>
        <polyline class="cls-9" points="270.28 203.61 239.81 203.61 198.31 203.61 156.15 203.61 114.65 203.61 72.5 203.61 30.8 203.61 .24 203.61"/>
        <line class="cls-9" x1=".24" y1="114.23" x2="270.28" y2="114.23"/>
        <line class="cls-9" x1=".24" y1="120" x2="270.28" y2="120"/>
        <line class="cls-9" x1="266.28" y1="169.44" x2="270.28" y2="169.44"/>
        <line class="cls-9" x1="224.43" y1="169.44" x2="254.97" y2="169.44"/>
        <line class="cls-9" x1="182.58" y1="169.44" x2="213.12" y2="169.44"/>
        <line class="cls-9" x1="140.73" y1="169.44" x2="171.27" y2="169.44"/>
        <line class="cls-9" x1="98.88" y1="169.44" x2="129.42" y2="169.44"/>
        <line class="cls-9" x1="57.03" y1="169.44" x2="87.57" y2="169.44"/>
        <line class="cls-9" x1="15.18" y1="169.44" x2="45.72" y2="169.44"/>
        <line class="cls-9" x1=".24" y1="169.44" x2="3.87" y2="169.44"/>
        <line class="cls-9" x1="266.28" y1="174.47" x2="270.28" y2="174.47"/>
        <polyline class="cls-9" points="224.43 174.47 230.14 174.47 254.97 174.47"/>
        <polyline class="cls-9" points="182.58 174.47 207.98 174.47 213.12 174.47"/>
        <polyline class="cls-9" points="140.73 174.47 146.48 174.47 171.27 174.47"/>
        <polyline class="cls-9" points="98.88 174.47 124.32 174.47 129.42 174.47"/>
        <polyline class="cls-9" points="57.03 174.47 62.83 174.47 87.57 174.47"/>
        <polyline class="cls-9" points="15.18 174.47 40.47 174.47 45.72 174.47"/>
        <line class="cls-9" x1=".24" y1="174.47" x2="3.87" y2="174.47"/>
        <polyline class="cls-9" points="72.5 203.61 87.86 194.97 93.57 191.76 97.97 189.29 124.32 174.47"/>
        <polyline class="cls-9" points="114.65 203.61 98.99 194.8 93.57 191.76 88.93 189.15 62.83 174.47"/>
        <path class="cls-9" d="m139.46,192.66c0,2.78-2.25,5.03-5.02,5.03s-5.03-2.25-5.03-5.03,2.25-5.02,5.03-5.02,5.02,2.25,5.02,5.02Z"/>
        <path class="cls-9" d="m224.17,192.66c0,2.78-2.25,5.03-5.02,5.03s-5.03-2.25-5.03-5.03,2.25-5.02,5.03-5.02,5.02,2.25,5.02,5.02Z"/>
        <path class="cls-9" d="m97.97,189.29c1,.89,1.62,2.07,1.62,3.37,0,.76-.21,1.49-.59,2.15-1,1.7-3.14,2.88-5.62,2.88s-4.48-1.1-5.52-2.72c-.44-.69-.7-1.48-.7-2.31,0-1.37.68-2.61,1.77-3.51,1.13-.93,2.7-1.51,4.44-1.51,1.82,0,3.46.63,4.6,1.65Z"/>
        <polyline class="cls-9" points=".24 197.08 4.01 194.97 9.72 191.76 14.12 189.29 40.47 174.47"/>
        <polyline class="cls-9" points="30.8 203.61 15.15 194.8 9.72 191.76 5.08 189.15 .24 186.43"/>
        <path class="cls-9" d="m14.12,189.29c1,.89,1.62,2.07,1.62,3.37,0,.76-.21,1.49-.59,2.15-1,1.7-3.14,2.88-5.62,2.88s-4.48-1.1-5.52-2.72c-.44-.69-.7-1.48-.7-2.31,0-1.37.68-2.61,1.77-3.51,1.13-.93,2.7-1.51,4.44-1.51,1.82,0,3.46.63,4.6,1.65Z"/>
        <polyline class="cls-9" points="156.15 203.61 171.51 194.97 177.23 191.76 181.63 189.29 207.98 174.47"/>
        <polyline class="cls-9" points="198.31 203.61 182.65 194.8 177.23 191.76 172.59 189.15 146.48 174.47"/>
        <path class="cls-9" d="m181.63,189.29c1,.89,1.62,2.07,1.62,3.37,0,.76-.21,1.49-.59,2.15-1,1.7-3.14,2.88-5.62,2.88s-4.48-1.1-5.52-2.72c-.44-.69-.7-1.48-.7-2.31,0-1.37.68-2.61,1.77-3.51,1.13-.93,2.7-1.51,4.44-1.51,1.82,0,3.46.63,4.6,1.65Z"/>
        <polyline class="cls-9" points="239.81 203.61 255.17 194.97 260.89 191.76 265.29 189.28 270.28 186.47"/>
        <polyline class="cls-9" points="270.28 197.04 266.31 194.8 260.89 191.76 256.25 189.15 230.14 174.47"/>
        <path class="cls-9" d="m265.29,189.28c1,.89,1.62,2.08,1.62,3.38,0,.76-.21,1.49-.59,2.15-1,1.7-3.14,2.88-5.62,2.88s-4.48-1.1-5.52-2.72c-.44-.69-.7-1.48-.7-2.31,0-1.37.68-2.61,1.77-3.51,1.13-.93,2.7-1.51,4.44-1.51,1.82,0,3.46.63,4.6,1.64Z"/>
        <path class="cls-9" d="m54.29,192.66c0,2.78-2.25,5.03-5.02,5.03s-5.03-2.25-5.03-5.03,2.25-5.02,5.03-5.02,5.02,2.25,5.02,5.02Z"/>
        <rect class="cls-9" x="3.87" y="169.44" width="11.31" height="5.03"/>
        <rect class="cls-9" x="45.72" y="169.44" width="11.31" height="5.03"/>
        <rect class="cls-9" x="87.57" y="169.44" width="11.31" height="5.03"/>
        <rect class="cls-9" x="129.42" y="169.44" width="11.31" height="5.03"/>
        <rect class="cls-9" x="171.27" y="169.44" width="11.31" height="5.03"/>
        <rect class="cls-9" x="213.12" y="169.44" width="11.31" height="5.03"/>
        <rect class="cls-9" x="254.97" y="169.44" width="11.31" height="5.03"/>
      </g>
    </g>
  </g>
  <g id="_レイヤー_2" data-name="レイヤー 2">
    <g>
      <g>
        <path class="cls-8" d="m250.39,114.18c1.02,1.44.87,4.78,0,5.21s-30.41,0-30.41,0l-.75.57c-2.08-2.86-4.35-4.65-4.35-4.65-.14-1.92-.5-3.64-1.13-5.05-1-2.28-2.55-3.93-4.54-5.12,0,0,4.35-.3,6.77-1.06.81-.25,1.4-.56,1.55-.92.36-.9,3.67-5.04,6.1-8.01.71-.89,1.36-1.67,1.82-2.22.42-.5,1.16-.56,1.64-.13,4.24,3.8,22.41,20.1,23.3,21.37Z"/>
        <path class="cls-8" d="m221.72,124.46c2.02,5.36,4.6,16.66,3.62,16.94-.56.17-1.14.28-1.74.33-6.72.7-14.96-4.71-14.96-4.71,4.47-6.37,6.71-15.17,6.24-21.7,0,0,2.28,1.79,4.35,4.65.95,1.29,1.86,2.82,2.48,4.49Z"/>
        <path class="cls-7" d="m208.65,137.03s8.24,5.41,14.96,4.71c-8.69,4.88-25.54,3.59-26.07,3.54,3.21-1.16,5.92-2.63,7.9-4.49,1.17-1.1,2.25-2.37,3.21-3.76Z"/>
        <path class="cls-8" d="m223.62,95.17c-2.43,2.97-5.73,7.11-6.1,8.01-.15.36-.74.67-1.55.92l-.19-.92-2.25-8.44c4.85-.63,6.99-.58,10.09.43Z"/>
        <path class="cls-8" d="m215.79,103.18l.19.92c-2.42.76-6.77,1.06-6.77,1.06-3.04-1.82-7.08-2.58-11.63-2.88h0c-1.05-2.94-7.13-6.89-9.78-7.95l-.09.02c-.18-1.19-.38-2.46-.59-3.75l.1-.02,20.5-8.78c1.13-.49,2.42.15,2.74,1.33l3.09,11.62,2.25,8.44Z"/>
        <path class="cls-2" d="m144.61,149.66c-13.68,3.69-27.75-2.02-33.1-8.88h0c4.63.06,8.37-.25,9.57-1.26,1.3-4.78,3.18-9.7,3.18-9.7l.4-.28c.57.66,1.17,1.2,1.81,1.58,2.55-.89,8.3-4.56,14.63-9.02,19.5-10.39,36.99-18.53,47.6-19.83,1.03-.14,2-.2,2.89-.19,2.06.02,4.07.06,5.98.18h0c4.55.3,8.59,1.06,11.63,2.88,1.99,1.19,3.54,2.84,4.54,5.12.63,1.41.99,3.13,1.13,5.05.47,6.53-1.77,15.33-6.24,21.7-.96,1.39-2.04,2.66-3.21,3.76-1.98,1.86-4.69,3.33-7.9,4.49h0c-15.45,5.6-42.27,4.02-52.91,4.38Z"/>
        <path class="cls-8" d="m187.79,94.33c2.65,1.06,8.73,5.01,9.78,7.94-1.91-.12-3.92-.17-5.98-.18-.89,0-1.86.05-2.89.19,0-.87-.41-4.02-1-7.93l.09-.02Z"/>
        <path class="cls-8" d="m141.1,122.11c-6.33,4.46-12.08,8.13-14.63,9.02-.63-.38-1.23-.92-1.81-1.58-1.89-2.19-3.43-5.7-4.6-9.1-.46-1.32-.86-2.63-1.19-3.84-.93-3.3-1.42-5.82-1.42-5.82l8.5-5.49c-2.25-3.63,1.78-15.45,1.78-15.45l.04-.12c.58.19,2.23.78,3.09.58.6-.15.45-1.06.02-1.45.9.48,1.76.92,2.06,1.07.76.36,1.69.36,1.56-.29-.22-1.16-2.66-2.07-2.89-2.32s-3.15-1.49-3.15-1.49v-.22c.25,0,1.66.21,1.66.21.58.05,2.39.87,4.93,2.46,2.54,1.6,2.1-.29,1.95-.72s-2.89-2.18-2.89-2.18l.02-.12c.76.23,1.44.28,1.66-.18.06-.22-.31-.56-.94-.94l.2-.32c4.29-7.06,15.86-15.45,21.72-17.81,4.13-1.66,7.16-3.01,9.22-3.35.54-.09,1.02-.11,1.42-.05,1.95.29,6.66,1.45,8.62,3.11,1.95,1.67,6.44,4.42,8.04,9.56.83,2.68,2.06,9.3,3.03,15.33h0c.21,1.29.41,2.56.59,3.75.59,3.91,1,7.06,1,7.93-10.62,1.29-28.11,9.44-47.6,19.83Z"/>
        <path class="cls-4" d="m160.07,24.37c-.32-.3-.58-.98-.54-1.85.14-2.1.07-3.99-.08-4.49-.14-.5-.5-.94-2.68-1.59s-12.31-2.54-13.03-3.84c-1.09,2.75-2.54,5.58-3.04,6.8-.5,1.23-5.27,6.39-5.27,6.39h-.02c-.37-1.06-1.52-3.94-3.11-4.54l.07-.19c.87-1.23,4.13-7.6,4.78-8.25s2.17-1.3,3.33-1.74c-2.02-1.37-3.91-2.89-4.41-3.54-.51-.65-1.09-2.97,1.88-4.27,2.97-1.3,8.84-2.89,13.33-2.75,4.48.15,20.92,1.45,23.02,2.17,2.09.73,5.43,1.95,2.46,4.13s-4.2,2.75-8.47,2.9c-4.27.14-5.93,0-7.32-.3-1.37-.29-3.04-.65-2.17,1.3s3.19,5.58,3.04,7.17c-.14,1.6-.5,5.36-.94,6.3-.21.45-.55.47-.83.19Z"/>
        <path class="cls-7" d="m165.9,62.09l.1.56c-2.06.35-5.09,1.69-9.22,3.35-5.86,2.36-17.43,10.75-21.72,17.81l-.2.32c-1.76-1.07-5.46-2.53-6.9-2.9-.41-.1-.94-.17-1.56-.23l.07-.76c.98-2.06,2.61-6.13,6.19-10.31,4.78-5.58,8-7.98,12.6-11.18,3.62-2.54,7.56-4.5,11.35-6.21.65.75,8.25,9.36,9.22,9.36h.08c0,.07,0,.13,0,.18Z"/>
        <path class="cls-8" d="m163.73,51.05c1.16,2.02,2.33,8.6,2.18,10.86h-.08c-.97,0-8.57-8.61-9.22-9.36,2.12-.96,4.19-1.84,6.13-2.7h.02c.43.44.76.86.96,1.2Z"/>
        <path class="cls-8" d="m156.61,52.55c-3.79,1.71-7.72,3.68-11.35,6.21-4.6,3.21-7.82,5.6-12.6,11.18-3.59,4.19-5.21,8.25-6.19,10.31l-.07.76c-2.3-.2-5.8-.16-8.94-.76l-.1-.03c.03-.1.07-.2.1-.3-7.28-2.39-22.92-11.51-24.54-11.51h-3.97c.3-.83.56-1.56.71-2.02.1-.28.35-.76.72-1.36,1.48-2.44,4.79-7.06,6.81-10.04.64-.94,1.16-1.71,1.44-2.21,1.45-2.46,9.42-11.88,9.42-11.88l-.04-.56c.35-.03.64-.05.87-.05,2.5,0,3.48-.21,5.43-.64s3.48-1.3,4.24-1.3c.23,0,.55.21.86.5l-1.41.47s1.42,3.81,2.94,5.98,5.53,5.65,6.4,5.97,3.26-1.62,4.34-1.74l.05-.11c2.73,1.23,6.91,2.06,10.49,1.96,4.01-.11,4.42-.23,8.58-3.7,1.38-1.16,2.21-2.56,2.74-3.99l.2.08c2.26.55,6.86,3.81,9.03,6.07h-.02c-1.95.87-4.01,1.75-6.13,2.71Z"/>
        <path class="cls-5" d="m121.07,40.8l3.78-3.22s2.44-.15,3.6-1.16c1.16-1.02,3.35-3.04,3.35-4.06-.44-.31-.96-.49-1.51-.49l.83-.05.62-.73.04-.18c-1.82-.42-2.52-5.52-2.58-6.59-.07-1.16.8-2.82,2.1-3.11.15-.04.3-.06.44-.06.2,0,.39.03.57.1,1.59.6,2.74,3.48,3.11,4.54h.02s4.76-5.17,5.27-6.4c.5-1.23,1.95-4.05,3.04-6.8.72,1.3,10.86,3.19,13.03,3.84s2.54,1.09,2.68,1.59c.15.5.22,2.39.08,4.49-.04.87.22,1.55.54,1.85-1.63,3.96-4.6,11.72-5.25,14.07-.37,1.37-.57,3.32-1.29,5.24-.53,1.42-1.36,2.83-2.74,3.99-4.15,3.47-4.56,3.59-8.58,3.7-3.58.1-7.76-.73-10.49-1.96l-.05.11c-1.09.11-3.48,2.06-4.34,1.74s-4.88-3.8-6.4-5.97-2.94-5.98-2.94-5.98l1.41-.47c.7.64,1.42,1.67,1.42,1.67l.24.29Z"/>
        <path class="cls-5" d="m130.9,88.86c.43.39.58,1.3-.02,1.45-.86.2-2.51-.39-3.09-.58-.02,0-.03-.02-.04-.02-.9-.29-4.41-1.3-5.5-.96-.36.11-1.17.06-2.17-.1-1.97-.3-4.7-1.01-6.25-1.67,1.65-2.35,2.88-4.62,3.54-6.75l.1.03c3.14.6,6.64.56,8.94.76.62.05,1.15.12,1.56.23,1.44.37,5.14,1.83,6.9,2.9.63.38,1,.72.94.94-.22.46-.89.41-1.66.18l-.02.12s2.75,1.75,2.89,2.18.58,2.32-1.95.72c-2.54-1.59-4.34-2.41-4.93-2.46,0,0-1.41-.21-1.66-.21v.22s2.91,1.23,3.15,1.49,2.68,1.16,2.89,2.32c.13.65-.79.65-1.56.29-.3-.15-1.16-.59-2.06-1.07Z"/>
        <path class="cls-4" d="m131.8,32.37c0,1.02-2.19,3.04-3.35,4.06-1.16,1.01-3.6,1.16-3.6,1.16,0,0,1.9-3.54,3.11-4.67.76-.71,1.58-1.03,2.33-1.03.55,0,1.07.17,1.51.49Z"/>
        <path class="cls-8" d="m120.07,88.65c1,.16,1.81.21,2.17.1,1.09-.34,4.6.68,5.5.96.02,0,.03,0,.04.02l-.04.12s-4.03,11.82-1.78,15.45l-8.5,5.49c-3.11.52-11.94-.76-18.34-2.97-1.64-.57-3.13-1.2-4.32-1.88h0c7.22-5.86,14.6-12.66,19.03-18.96,1.55.66,4.27,1.37,6.25,1.67Z"/>
        <path class="cls-8" d="m124.67,129.54l-.4.28s-1.88,4.92-3.18,9.7c-1.21,1.01-4.94,1.32-9.57,1.25-9.31-.12-22.19-1.73-25.18-2.12-1.16-.15-2.94-.53-4.94-1.02l.17-.71c3.48-3.29,17.55-29.09,17.55-29.09v-.02c6.41,2.22,15.24,3.49,18.35,2.97,0,0,.49,2.52,1.42,5.82h0l-20.81,4.67,4.85,8.55s13.97-5.13,17.16-9.37c1.16,3.4,2.71,6.91,4.6,9.1Z"/>
        <path class="cls-1" d="m118.88,116.61c.33,1.21.73,2.52,1.19,3.84-3.19,4.24-17.16,9.37-17.16,9.37l-4.85-8.55,20.81-4.67h0Z"/>
        <path class="cls-8" d="m33.74,122.46c.59-6.71,3.14-18.25,5.53-23.41,2.82-6.08,10.7-9.5,16.34-12.11h.03c.4,2.8,1.24,7.3,3.02,11.75l.48.83c5.1-3.83,10.06-7.78,12.55-9.81,5.51-4.49,12.89-13.18,14.2-14.77.47-.57,1.02-1.61,1.55-2.79.54-1.22,1.08-2.58,1.5-3.73h3.97c1.62,0,17.26,9.12,24.54,11.51-.03.1-.06.2-.1.3-.66,2.13-1.89,4.4-3.54,6.75-4.42,6.3-11.81,13.1-19.03,18.95-.42.35-.83.69-1.25,1.02-6.58,5.25-12.86,9.64-16.48,12.09-6.92,4.67-21.58,10.17-32.87,13.76-3.95,1.26-7.49,2.28-10.14,2.96,0,0-.22-4.78-.43-10.21-.03-.83,0-1.89.12-3.09Z"/>
        <path class="cls-8" d="m108.01,40.34l.04.56s-7.97,9.42-9.42,11.88c-.29.5-.8,1.27-1.44,2.21l-.2-.14c-.48-1.64-.77-3.69-.96-5.7-.25-2.59-.34-5.13-.4-6.69,0,0,8.9-1.8,12.38-2.12Z"/>
        <path class="cls-8" d="m81.56,136.92l-.17.71s-.08-.02-.11-.03c-5.77-1.41-13.34-3.65-13.34-3.65v-2.65c.29-.1.57-.22.87-.33,13.32-5.21,21.57-16.94,24.74-24.03.42-.33.83-.67,1.25-1.02h0c1.19.69,2.68,1.31,4.32,1.89v.02s-14.07,25.8-17.56,29.09Z"/>
        <path class="cls-7" d="m96.99,54.85l.2.14c-2.02,2.98-5.33,7.6-6.81,10.04l-.14-.09s-1.89-5.21-2.9-7.1c-.67-1.23-.83-3.17-.86-4.34l9.26-4.34h.29c.19,2,.49,4.05.96,5.69Z"/>
        <path class="cls-8" d="m88.95,68.42c-.43,1.15-.96,2.51-1.5,3.73l-.24-.1c-2.03-.73-23.17,4.48-26.5,4.2-3.34-.29-3.19-2.89-3.19-2.89l-.14-.14h0c1.68-1.66,3.84-3.6,5.79-5.66,3.91-4.13,9.12-11.08,12.38-12.82s9.12-1.45,10.93-2.24c0,0-.02.4,0,1.01.03,1.17.19,3.11.86,4.34,1.02,1.89,2.9,7.1,2.9,7.1l.14.09c-.37.61-.63,1.09-.72,1.36-.16.47-.41,1.19-.71,2.02Z"/>
        <path class="cls-8" d="m87.2,72.05l.24.1c-.53,1.18-1.08,2.22-1.55,2.79-1.3,1.59-8.69,10.28-14.2,14.77-2.49,2.03-7.45,5.98-12.55,9.81l-.48-.83c-1.78-4.45-2.62-8.95-3.02-11.76-.24-1.77-.3-2.87-.3-2.87,0,0-.87-5.21-.87-6.95,0-.87,1.21-2.24,2.9-3.9l.14.14s-.15,2.61,3.19,2.89c3.33.29,24.47-4.93,26.5-4.2Z"/>
        <path class="cls-7" d="m93.54,106.95c-3.16,7.09-11.42,18.82-24.74,24.03-.3.11-.58.23-.87.33-12.82,4.74-20.77,1.7-23.74,1.49,11.29-3.6,25.95-9.1,32.87-13.76,3.62-2.44,9.9-6.84,16.48-12.09Z"/>
        <path class="cls-2" d="m55.65,86.93h-.03c-5.65,2.62-13.52,6.04-16.34,12.12-2.39,5.15-4.93,16.7-5.53,23.41-5.8-2.68-9.24-13.88-9.03-20.15.22-6.3,7.38-14.12,13.68-15.86s9.34-1.74,16.94-2.39c0,0,.06,1.09.3,2.87Z"/>
      </g>
      <g>
        <path class="cls-10" d="m124.85,37.58s2.44-.15,3.6-1.16c1.16-1.02,3.35-3.04,3.35-4.06-.44-.31-.96-.49-1.51-.49-.75,0-1.56.31-2.33,1.03-1.21,1.13-3.11,4.67-3.11,4.67Z"/>
        <path class="cls-10" d="m135.56,26.22s-.04-.16-.14-.41c-.37-1.07-1.52-3.94-3.11-4.54-.18-.07-.37-.1-.57-.1-.14,0-.3.02-.44.06-1.3.29-2.17,1.95-2.1,3.11.06,1.07.76,6.17,2.58,6.59.14.03.3.03.46,0,2.17-.43,1.3-1.59,1.3-1.59"/>
        <path class="cls-10" d="m132.38,21.07c.87-1.23,4.13-7.6,4.78-8.25s2.17-1.3,3.33-1.74c-2.02-1.37-3.91-2.89-4.41-3.54-.51-.65-1.09-2.97,1.88-4.27,2.97-1.3,8.84-2.89,13.33-2.75,4.48.15,20.92,1.45,23.02,2.17,2.09.73,5.43,1.95,2.46,4.13s-4.2,2.75-8.47,2.9c-4.27.14-5.93,0-7.32-.3-1.37-.29-3.04-.65-2.17,1.3s3.19,5.58,3.04,7.17c-.14,1.6-.5,5.36-.94,6.3-.21.45-.55.47-.83.19-.32-.3-.58-.98-.54-1.85.14-2.1.07-3.99-.08-4.49-.14-.5-.5-.94-2.68-1.59s-12.31-2.54-13.03-3.84c-1.09,2.75-2.54,5.58-3.04,6.8-.5,1.23-5.27,6.39-5.27,6.39"/>
        <path class="cls-10" d="m160.14,24.22c-.02.05-.04.1-.07.16-1.63,3.96-4.6,11.72-5.25,14.07-.37,1.37-.57,3.32-1.29,5.24-.53,1.42-1.36,2.83-2.74,3.99-4.15,3.47-4.56,3.59-8.58,3.7-3.58.1-7.76-.73-10.49-1.96-1.09-.49-1.95-1.03-2.44-1.62"/>
        <path class="cls-10" d="m150.7,29c-.11,2.28-.11,10.1-1.2,11.41s-3.26.98-4.23.98"/>
        <path class="cls-10" d="m145.48,38.35s-.55.43-.98,1.74"/>
        <line class="cls-10" x1="143.09" y1="30.96" x2="146.89" y2="31.39"/>
        <line class="cls-10" x1="152.65" y1="32.59" x2="155.58" y2="32.7"/>
        <path class="cls-10" d="m142.44,23.78s4.56.11,5.1.33"/>
        <line class="cls-10" x1="155.69" y1="26.62" x2="158.18" y2="26.82"/>
        <path class="cls-10" d="m142.66,44.86s3.15.76,3.69.76"/>
        <line class="cls-10" x1="131.11" y1="31.83" x2="131.73" y2="31.1"/>
        <polyline class="cls-10" points="124.85 37.58 121.07 40.8 120.39 41.39"/>
        <path class="cls-10" d="m118,39.32s1.42,3.81,2.94,5.98,5.53,5.65,6.4,5.97,3.26-1.62,4.34-1.74"/>
        <path class="cls-10" d="m120.83,40.52s-.72-1.03-1.42-1.67c-.31-.3-.63-.5-.86-.5-.76,0-2.28.87-4.24,1.3s-2.93.64-5.43.64c-.23,0-.52.02-.87.05-3.48.32-12.38,2.12-12.38,2.12.06,1.56.15,4.1.4,6.69.19,2.01.49,4.06.96,5.7"/>
        <path class="cls-10" d="m90.24,64.95s-1.89-5.21-2.9-7.1c-.67-1.23-.83-3.17-.86-4.34-.03-.61,0-1.01,0-1.01-1.81.79-7.67.5-10.93,2.24s-8.47,8.69-12.38,12.82c-1.95,2.06-4.11,4-5.79,5.65h0c-1.69,1.67-2.9,3.04-2.9,3.91,0,1.74.87,6.95.87,6.95-7.6.65-10.64.65-16.94,2.39s-13.47,9.56-13.68,15.86c-.22,6.26,3.22,17.47,9.03,20.15.03.03.06.03.1.05"/>
        <polyline class="cls-10" points="95.74 49.16 86.48 53.51 86.47 53.51"/>
        <path class="cls-10" d="m55.61,86.94c-5.65,2.61-13.52,6.03-16.34,12.11-2.39,5.15-4.93,16.7-5.53,23.41-.11,1.21-.16,2.26-.12,3.09.22,5.43.43,10.21.43,10.21,2.65-.68,6.19-1.7,10.14-2.96,11.29-3.6,25.95-9.1,32.87-13.76,3.62-2.44,9.9-6.84,16.48-12.09.42-.33.83-.67,1.25-1.02,7.22-5.85,14.6-12.65,19.03-18.95,1.65-2.35,2.88-4.62,3.54-6.75.03-.1.07-.2.1-.3-7.28-2.39-22.92-11.51-24.54-11.51h-4.13"/>
        <path class="cls-10" d="m55.34,84.06s.06,1.09.3,2.87c.4,2.81,1.24,7.31,3.02,11.76"/>
        <path class="cls-10" d="m57.51,73.35s-.15,2.61,3.19,2.89c3.33.29,24.47-4.93,26.5-4.2"/>
        <path class="cls-10" d="m79.38,58.28s7.67,9.12,9.41,9.56"/>
        <path class="cls-10" d="m108.05,40.91s-7.97,9.42-9.42,11.88c-.29.5-.8,1.27-1.44,2.21-2.02,2.98-5.33,7.6-6.81,10.04-.37.61-.63,1.09-.72,1.36-.16.47-.41,1.19-.71,2.02-.43,1.15-.96,2.51-1.5,3.73-.53,1.18-1.08,2.22-1.55,2.79-1.3,1.59-8.69,10.28-14.2,14.77-2.49,2.03-7.45,5.98-12.55,9.81-6.15,4.62-12.5,9.1-14.95,9.89"/>
        <path class="cls-10" d="m128.98,52.02s5.43.76,7.27.33"/>
        <path class="cls-10" d="m111.05,40.4c.43,2.17,3.15,8.91,6.85,12.48,3.69,3.59,11.41,4.96,13.47,4.89,3.26-.11,5.21-2.61,6.73-3.8"/>
        <path class="cls-10" d="m153.74,43.77c2.26.55,6.86,3.81,9.03,6.07.43.45.76.87.96,1.21,1.16,2.02,2.33,8.6,2.18,10.86h0c0,.07,0,.13,0,.18"/>
        <path class="cls-10" d="m162.75,49.85c-1.95.86-4.01,1.74-6.13,2.7-3.79,1.71-7.72,3.68-11.35,6.21-4.6,3.21-7.82,5.6-12.6,11.18-3.59,4.19-5.21,8.25-6.19,10.31"/>
        <path class="cls-10" d="m156.56,52.5l.05.05c.65.75,8.25,9.36,9.22,9.36"/>
        <path class="cls-10" d="m135.06,83.82c4.29-7.06,15.86-15.45,21.72-17.81,4.13-1.66,7.16-3.01,9.22-3.35.54-.09,1.02-.11,1.42-.05,1.95.29,6.66,1.45,8.62,3.11,1.95,1.67,6.44,4.42,8.04,9.56.83,2.68,2.06,9.3,3.03,15.33h0c.21,1.29.41,2.56.59,3.75.59,3.91,1,7.06,1,7.93"/>
        <path class="cls-10" d="m155.11,68.42c1.02,1.3-1.01,5.07-2.02,6.52s-6.66,8.11-8.25,9.84-10.28,11.29-11.01,14.63c.65,0,1.32,0,2.02,0,5.34-.03,11.86-.23,17.25-.86,6.08-.73,14.92-2.17,19.26-5.65"/>
        <path class="cls-10" d="m163.94,81.74s-6.08,3.48-8.69,6.08-13.03,7.53-14.34,8.84c-1.23,1.23-4.66,2.58-5.08,2.75-.03,0-.04.02-.04.02"/>
        <path class="cls-10" d="m102.91,70.38c1.41-4.46,9.34-16.26,12.16-16.87"/>
        <path class="cls-10" d="m94.8,105.94c1.19.68,2.68,1.3,4.32,1.88,6.4,2.22,15.23,3.49,18.34,2.97"/>
        <path class="cls-10" d="m99.11,107.83s-14.07,25.8-17.55,29.09c-.05.05-.1.1-.16.14"/>
        <path class="cls-10" d="m93.54,106.95c-3.16,7.09-11.42,18.82-24.74,24.03-.3.11-.58.23-.87.33-12.82,4.74-20.77,1.7-23.74,1.49"/>
        <path class="cls-10" d="m67.94,131.31v2.65s7.57,2.24,13.34,3.65c.03,0,.08.02.11.03,2.01.49,3.79.87,4.94,1.02,2.99.39,15.87,2,25.18,2.12,4.63.07,8.37-.24,9.57-1.25,1.3-4.78,3.18-9.7,3.18-9.7"/>
        <path class="cls-10" d="m130.93,102.09l-4.97,3.21-8.5,5.49s.49,2.52,1.42,5.82c.33,1.21.73,2.52,1.19,3.84,1.16,3.4,2.71,6.91,4.6,9.1.57.66,1.17,1.2,1.81,1.58,2.55-.89,8.3-4.56,14.63-9.02,11.29-7.95,24.45-18.39,24.73-20.02"/>
        <path class="cls-10" d="m197.52,145.28c-15.45,5.6-42.27,4.02-52.91,4.38"/>
        <path class="cls-10" d="m197.58,102.28c4.55.3,8.59,1.05,11.63,2.88,1.99,1.19,3.54,2.84,4.54,5.12.63,1.41.99,3.13,1.13,5.05.47,6.53-1.77,15.33-6.24,21.7-.96,1.39-2.04,2.66-3.21,3.76-1.98,1.86-4.69,3.33-7.9,4.49"/>
        <path class="cls-10" d="m141.1,122.11c19.5-10.39,36.99-18.53,47.6-19.83,1.03-.14,2-.2,2.89-.19,2.06.02,4.07.06,5.98.18"/>
        <path class="cls-10" d="m154.14,145.87c12.29-6.06,25.45-16.05,25.45-16.05"/>
        <path class="cls-10" d="m111.51,140.78c5.35,6.85,19.42,12.57,33.1,8.88,2.92-.78,6.19-2.14,9.51-3.79"/>
        <path class="cls-10" d="m190.23,131.13s-15.08,15.31-36.09,14.74h0"/>
        <path class="cls-10" d="m187.21,90.58l20.5-8.78c1.13-.49,2.42.15,2.74,1.33l3.09,11.62,2.25,8.44"/>
        <path class="cls-10" d="m209.21,105.16s4.35-.3,6.77-1.06c.81-.25,1.4-.56,1.55-.92.36-.9,3.67-5.04,6.1-8.01.71-.89,1.36-1.67,1.82-2.22.42-.5,1.16-.56,1.64-.13,4.24,3.8,22.41,20.1,23.3,21.37,1.02,1.44.87,4.78,0,5.21s-30.41,0-30.41,0"/>
        <path class="cls-10" d="m208.65,137.03s8.24,5.41,14.96,4.71c.6-.05,1.17-.17,1.74-.33.98-.29-1.6-11.58-3.62-16.94-.63-1.67-1.54-3.2-2.48-4.49-2.08-2.86-4.35-4.65-4.35-4.65"/>
        <path class="cls-10" d="m197.52,145.28h0c.53.04,17.38,1.34,26.07-3.54"/>
        <path class="cls-10" d="m118.87,116.61l-20.81,4.67,4.85,8.55s13.97-5.13,17.16-9.37"/>
        <path class="cls-10" d="m117.46,80.26c3.14.6,6.64.56,8.94.76.62.05,1.15.12,1.56.23,1.44.37,5.14,1.83,6.9,2.9.63.38,1,.72.94.94-.22.46-.89.41-1.66.18-1.03-.3-2.22-.92-2.64-1.01-.73-.15-1.62-.59-3.02-.66"/>
        <path class="cls-10" d="m134.12,85.38s2.75,1.75,2.89,2.18.58,2.32-1.95.72c-2.54-1.59-4.34-2.41-4.93-2.46,0,0-1.41-.21-1.66-.21"/>
        <path class="cls-10" d="m128.14,87.39s1.43.77,2.75,1.47c.9.48,1.76.92,2.06,1.07.76.36,1.69.36,1.56-.29-.22-1.16-2.66-2.07-2.89-2.32s-3.15-1.49-3.15-1.49"/>
        <path class="cls-10" d="m113.82,86.98c1.55.66,4.27,1.37,6.25,1.67,1,.16,1.81.21,2.17.1,1.09-.34,4.6.68,5.5.96.02,0,.03,0,.04.02.58.19,2.23.78,3.09.58.6-.15.45-1.06.02-1.45"/>
        <path class="cls-10" d="m120.07,88.65c-1.74,5.4-2.07,13.81-1.63,18.3"/>
        <path class="cls-10" d="m127.74,89.85s-4.03,11.82-1.78,15.45"/>
        <path class="cls-10" d="m223.62,95.17c-3.1-1.01-5.24-1.05-10.09-.43"/>
        <path class="cls-9" d="m187.79,94.33c2.65,1.06,8.73,5.01,9.78,7.94h0"/>
      </g>
    </g>
  </g>
</svg>