<?xml version="1.0" encoding="UTF-8"?>
<svg id="_レイヤー_1" data-name="レイヤー 1" xmlns="http://www.w3.org/2000/svg" viewBox="0 0 261.58 174.01">
  <defs>
    <style>
      .cls-1 {
        fill: #fffbc4;
      }

      .cls-1, .cls-2, .cls-3, .cls-4, .cls-5, .cls-6 {
        stroke-width: 0px;
      }

      .cls-7 {
        stroke-miterlimit: 10;
      }

      .cls-7, .cls-8 {
        fill: none;
        stroke: #000;
      }

      .cls-2 {
        fill: #b385b6;
      }

      .cls-8 {
        stroke-linecap: round;
        stroke-linejoin: round;
      }

      .cls-3 {
        fill: #333;
      }

      .cls-4 {
        fill: #ffdaae;
      }

      .cls-5 {
        fill: #fc5b3f;
      }

      .cls-6 {
        fill: #8db88d;
      }
    </style>
  </defs>
  <g>
    <path class="cls-6" d="m233.44,106.75c4.88,4.37,25.79,23.13,26.82,24.6,1.17,1.66,1,5.5,0,6s-35,0-35,0l-.86.66c-2.39-3.29-5.01-5.35-5.01-5.35-.16-2.21-.58-4.19-1.3-5.81-1.15-2.62-2.94-4.52-5.23-5.89,0,0,5.01-.34,7.79-1.22.93-.29,1.61-.64,1.78-1.06.42-1.04,4.22-5.8,7.02-9.22.82-1.02,1.56-1.92,2.1-2.56.48-.58,1.33-.65,1.89-.15Z"/>
    <path class="cls-5" d="m212.21,157.64s9.48,6.23,17.22,5.42c-10,5.62-29.4,4.13-30.01,4.08,3.69-1.34,6.81-3.03,9.09-5.17,1.35-1.27,2.59-2.73,3.7-4.33Z"/>
    <path class="cls-6" d="m222.43,118.68c-.17.42-.85.77-1.78,1.06l-.22-1.06-2.59-9.71c5.58-.72,8.04-.67,11.61.49-2.8,3.42-6.6,8.18-7.02,9.22Z"/>
    <path class="cls-2" d="m115.55,149.03c.66.76,1.35,1.38,2.08,1.82,2.94-1.02,9.55-5.25,16.84-10.38,22.44-11.96,42.57-21.33,54.79-22.82,1.19-.16,2.3-.23,3.33-.22,2.37.02,4.68.07,6.88.21h0c5.24.35,9.89,1.22,13.39,3.32,2.29,1.37,4.08,3.27,5.23,5.89.72,1.62,1.14,3.6,1.3,5.81.54,7.52-2.04,17.65-7.18,24.98-1.11,1.6-2.35,3.06-3.7,4.33-2.28,2.14-5.4,3.83-9.09,5.17h0c-17.78,6.44-48.65,4.63-60.9,5.04-15.75,4.25-31.94-2.33-38.1-10.22h0c5.33.07,9.63-.29,11.02-1.45,1.5-5.5,3.66-11.16,3.66-11.16l.46-.32Z"/>
    <path class="cls-6" d="m227.26,143.18c2.33,6.17,5.3,19.17,4.17,19.5-.65.19-1.31.32-2,.38-7.74.81-17.22-5.42-17.22-5.42,5.14-7.33,7.72-17.46,7.18-24.98,0,0,2.62,2.06,5.01,5.35,1.09,1.49,2.14,3.25,2.86,5.17Z"/>
    <path class="cls-6" d="m220.43,118.68l.22,1.06c-2.78.88-7.79,1.22-7.79,1.22-3.5-2.1-8.15-2.97-13.39-3.31h0c-1.21-3.38-8.21-7.93-11.26-9.15l-.1.02c-.21-1.37-.44-2.83-.68-4.32l.11-.02,23.59-10.11c1.3-.56,2.79.17,3.15,1.53l3.56,13.37,2.59,9.71Z"/>
    <path class="cls-6" d="m188.21,108.5c3.05,1.22,10.05,5.77,11.26,9.14-2.2-.14-4.51-.19-6.88-.21-1.03-.01-2.14.06-3.33.22,0-1-.47-4.63-1.15-9.13l.1-.02Z"/>
    <path class="cls-6" d="m152.32,60.41c2.44-1.11,4.82-2.12,7.06-3.11h.02c.5.51.88.99,1.11,1.38,1.33,2.32,2.68,9.9,2.51,12.5h-.09c-1.12,0-9.86-9.91-10.61-10.77Z"/>
    <path class="cls-3" d="m158.34,20.51c-.16,1.84-.58,6.17-1.08,7.25-.24.52-.63.54-.96.22-.37-.35-.67-1.13-.62-2.13.16-2.42.08-4.59-.09-5.17-.16-.58-.58-1.08-3.08-1.83s-14.17-2.92-15-4.42c-1.25,3.17-2.92,6.42-3.5,7.83-.58,1.42-6.06,7.36-6.06,7.36h-.02c-.43-1.23-1.75-4.55-3.58-5.22l.08-.22c1-1.42,4.75-8.75,5.5-9.5s2.5-1.5,3.83-2c-2.33-1.58-4.5-3.33-5.08-4.08-.59-.75-1.25-3.42,2.16-4.92,3.42-1.5,10.17-3.33,15.34-3.17,5.16.17,24.08,1.67,26.5,2.5,2.41.84,6.25,2.25,2.83,4.75s-4.83,3.17-9.75,3.34c-4.92.16-6.83,0-8.42-.34-1.58-.33-3.5-.75-2.5,1.5s3.67,6.42,3.5,8.25Z"/>
    <path class="cls-5" d="m163.02,71.19c0,.07,0,.14-.01.2l.11.65c-2.37.4-5.86,1.95-10.61,3.86-6.75,2.72-20.06,12.37-25,20.5l-.23.37c-2.02-1.23-6.28-2.91-7.94-3.34-.47-.12-1.08-.2-1.79-.26l.08-.87c1.13-2.37,3-7.05,7.13-11.87,5.5-6.42,9.21-9.18,14.5-12.87,4.17-2.92,8.7-5.18,13.06-7.15.75.86,9.49,10.77,10.61,10.77h.09Z"/>
    <path class="cls-4" d="m119.34,93.43c1.66.43,5.92,2.11,7.94,3.34.72.44,1.15.83,1.08,1.08-.25.53-1.03.47-1.91.21l-.02.14s3.16,2.01,3.33,2.51.67,2.67-2.25.83c-2.92-1.83-5-2.77-5.67-2.83,0,0-1.62-.24-1.91-.24v.25s3.35,1.42,3.62,1.71,3.08,1.33,3.33,2.67c.15.75-.91.75-1.79.33-.35-.17-1.33-.68-2.37-1.23.5.45.67,1.5-.02,1.67-.99.23-2.89-.45-3.56-.67-.02-.01-.03-.02-.05-.02-1.04-.33-5.08-1.5-6.33-1.11-.42.13-1.35.07-2.5-.11-2.27-.34-5.41-1.16-7.19-1.92,1.9-2.7,3.32-5.32,4.08-7.77l.11.03c3.61.69,7.64.64,10.29.87.71.06,1.32.14,1.79.26Z"/>
    <path class="cls-3" d="m115.76,43.18s2.19-4.08,3.58-5.38c.88-.82,1.82-1.18,2.68-1.18.63,0,1.23.2,1.74.56,0,1.17-2.52,3.5-3.86,4.67-1.33,1.16-4.14,1.33-4.14,1.33Z"/>
    <path class="cls-6" d="m119.14,103.2c.67.22,2.57.9,3.56.67.69-.17.52-1.22.02-1.67,1.04.55,2.02,1.06,2.37,1.23.88.42,1.94.42,1.79-.33-.25-1.34-3.06-2.38-3.33-2.67s-3.62-1.71-3.62-1.71v-.25c.29,0,1.91.24,1.91.24.67.06,2.75,1,5.67,2.83,2.92,1.84,2.42-.33,2.25-.83s-3.33-2.51-3.33-2.51l.02-.14c.88.26,1.66.32,1.91-.21.07-.25-.36-.64-1.08-1.08l.23-.37c4.94-8.13,18.25-17.78,25-20.5,4.75-1.91,8.24-3.46,10.61-3.86.62-.1,1.17-.13,1.64-.06,2.25.33,7.67,1.67,9.92,3.58,2.25,1.92,7.41,5.09,9.25,11,.96,3.09,2.37,10.7,3.49,17.64h.01c.24,1.49.47,2.95.68,4.32.68,4.5,1.15,8.13,1.15,9.13-12.22,1.49-32.35,10.86-54.79,22.82-7.29,5.13-13.9,9.36-16.84,10.38-.73-.44-1.42-1.06-2.08-1.82-2.17-2.52-3.95-6.56-5.29-10.47-.53-1.52-.99-3.03-1.37-4.42-1.07-3.8-1.63-6.7-1.63-6.7l9.78-6.32c-2.59-4.18,2.05-17.78,2.05-17.78l.05-.14Z"/>
    <path class="cls-1" d="m108.89,134.14c.38,1.39.84,2.9,1.37,4.42-3.67,4.88-19.75,10.79-19.75,10.79l-5.58-9.84,23.95-5.37h.01Z"/>
    <path class="cls-4" d="m123.63,56.93c-1.25.13-4,2.37-5,2s-5.62-4.37-7.37-6.87-3.38-6.88-3.38-6.88l1.62-.54c.8.74,1.63,1.92,1.63,1.92l.28.33,4.35-3.71s2.81-.17,4.14-1.33c1.34-1.17,3.86-3.5,3.86-4.67-.51-.36-1.11-.56-1.74-.56l.95-.06.71-.84.05-.21c-2.1-.48-2.9-6.35-2.97-7.58-.08-1.33.92-3.25,2.42-3.58.17-.05.35-.07.51-.07.23,0,.45.04.66.12,1.83.67,3.15,3.99,3.58,5.23h.02s5.48-5.95,6.06-7.37c.58-1.41,2.25-4.66,3.5-7.83.83,1.5,12.5,3.67,15,4.42s2.92,1.25,3.08,1.83c.17.58.25,2.75.09,5.17-.05,1,.25,1.78.62,2.13-1.88,4.56-5.3,13.49-6.04,16.2-.43,1.58-.66,3.82-1.48,6.03-.61,1.64-1.56,3.26-3.15,4.59-4.78,3.99-5.25,4.13-9.87,4.26-4.12.11-8.93-.84-12.07-2.26l-.06.13Z"/>
    <path class="cls-6" d="m65.94,157.52c4.01-3.79,20.2-33.48,20.2-33.48v-.02c7.38,2.55,17.54,4.02,21.12,3.42,0,0,.56,2.9,1.63,6.7h-.01l-23.95,5.37,5.58,9.84s16.08-5.91,19.75-10.79c1.34,3.91,3.12,7.95,5.29,10.47l-.46.32s-2.16,5.66-3.66,11.16c-1.39,1.16-5.69,1.52-11.02,1.44-10.71-.14-25.54-1.99-28.98-2.44-1.33-.17-3.38-.61-5.69-1.17l.2-.82Z"/>
    <path class="cls-6" d="m119.09,103.18s.03.01.05.02l-.05.14s-4.64,13.6-2.05,17.78l-9.78,6.32c-3.58.6-13.74-.87-21.11-3.42-1.89-.66-3.6-1.38-4.97-2.16h-.01c8.31-6.74,16.81-14.57,21.9-21.82,1.78.76,4.92,1.58,7.19,1.92,1.15.18,2.08.24,2.5.11,1.25-.39,5.29.78,6.33,1.11Z"/>
    <path class="cls-6" d="m83.7,63.06c-.55-1.89-.89-4.25-1.11-6.56-.29-2.98-.39-5.91-.46-7.7,0,0,10.24-2.07,14.25-2.44l.05.65s-9.17,10.84-10.84,13.67c-.33.57-.92,1.46-1.66,2.54l-.23-.16Z"/>
    <path class="cls-5" d="m83.93,63.22c-2.33,3.43-6.14,8.75-7.84,11.56l-.16-.1s-2.17-6-3.34-8.17c-.77-1.42-.96-3.65-.99-5l10.66-5h.33c.22,2.3.56,4.66,1.11,6.55l.23.16Z"/>
    <path class="cls-6" d="m118.63,58.93c1,.37,3.75-1.87,5-2l.06-.13c3.14,1.42,7.95,2.37,12.07,2.26,4.62-.13,5.09-.27,9.87-4.26,1.59-1.33,2.54-2.95,3.15-4.59l.23.09c2.6.63,7.9,4.38,10.39,6.99h-.02c-2.24,1-4.62,2.01-7.06,3.12-4.36,1.97-8.89,4.23-13.06,7.15-5.29,3.69-9,6.45-14.5,12.87-4.13,4.82-6,9.5-7.13,11.87l-.08.87c-2.65-.23-6.68-.18-10.29-.87l-.11-.03c.04-.11.08-.23.11-.34-8.38-2.75-26.38-13.25-28.25-13.25h-4.57c.35-.96.64-1.79.82-2.33.11-.32.4-.87.83-1.57,1.7-2.81,5.51-8.13,7.84-11.56.74-1.08,1.33-1.97,1.66-2.54,1.67-2.83,10.84-13.67,10.84-13.67l-.05-.65c.4-.04.74-.06,1-.06,2.88,0,4-.24,6.25-.74s4-1.5,4.88-1.5c.27,0,.63.24.99.58l-1.62.54s1.63,4.38,3.38,6.88,6.37,6.5,7.37,6.87Z"/>
    <path class="cls-6" d="m65.94,157.52l-.2.82s-.09-.02-.13-.03c-6.64-1.62-15.35-4.2-15.35-4.2v-3.05c.33-.12.66-.25,1-.38,15.33-6,24.83-19.5,28.47-27.66.48-.38.96-.77,1.44-1.17h.01c1.37.79,3.08,1.51,4.97,2.17v.02s-16.2,29.69-20.21,33.48Z"/>
    <path class="cls-6" d="m72.59,66.51c1.17,2.17,3.34,8.17,3.34,8.17l.16.1c-.43.7-.72,1.25-.83,1.57-.18.54-.47,1.37-.82,2.33-.49,1.32-1.11,2.89-1.73,4.29l-.28-.12c-2.34-.84-26.67,5.16-30.5,4.83-3.84-.33-3.67-3.33-3.67-3.33l-.16-.16h0c1.93-1.91,4.42-4.14,6.66-6.51,4.5-4.75,10.5-12.75,14.25-14.75s10.5-1.67,12.58-2.58c0,0-.02.46.01,1.16.03,1.35.22,3.58.99,5Z"/>
    <path class="cls-6" d="m72.43,82.85l.28.12c-.61,1.36-1.24,2.55-1.78,3.21-1.5,1.83-10,11.83-16.34,17-2.87,2.34-8.58,6.88-14.45,11.29l-.55-.96c-2.05-5.12-3.02-10.3-3.48-13.53-.28-2.04-.35-3.3-.35-3.3,0,0-1-6-1-8,0-1,1.39-2.58,3.34-4.49l.16.16s-.17,3,3.67,3.33c3.83.33,28.16-5.67,30.5-4.83Z"/>
    <path class="cls-6" d="m79.01,78.68c1.87,0,19.87,10.5,28.25,13.25-.03.11-.07.23-.11.34-.76,2.45-2.18,5.07-4.08,7.77-5.09,7.25-13.59,15.08-21.9,21.81-.48.4-.96.79-1.44,1.17-7.57,6.04-14.8,11.1-18.97,13.91-7.96,5.37-24.84,11.7-37.83,15.84-4.55,1.45-8.62,2.63-11.67,3.41,0,0-.25-5.5-.5-11.75-.04-.96.01-2.17.14-3.56.68-7.72,3.61-21.01,6.36-26.94,3.25-7,12.31-10.94,18.81-13.94h.04c.46,3.22,1.43,8.4,3.48,13.52l.55.96c5.87-4.41,11.58-8.95,14.45-11.29,6.34-5.17,14.84-15.17,16.34-17,.54-.66,1.17-1.85,1.78-3.21.62-1.4,1.24-2.97,1.73-4.29h4.57Z"/>
    <path class="cls-2" d="m35.76,96.68s.07,1.26.35,3.3h-.04c-6.5,3.01-15.56,6.95-18.81,13.95-2.75,5.93-5.68,19.22-6.36,26.94-6.68-3.08-10.64-15.98-10.39-23.19.25-7.25,8.5-16.25,15.75-18.25s10.75-2,19.5-2.75Z"/>
    <path class="cls-5" d="m60.76,136.93c4.17-2.81,11.4-7.87,18.97-13.91-3.64,8.16-13.14,21.66-28.47,27.66-.34.13-.67.26-1,.38-14.75,5.46-23.91,1.96-27.33,1.71,12.99-4.14,29.87-10.47,37.83-15.84Z"/>
  </g>
  <g>
    <path class="cls-8" d="m115.76,43.18s2.81-.17,4.14-1.33c1.34-1.17,3.86-3.5,3.86-4.67-.51-.36-1.11-.56-1.74-.56-.86,0-1.8.36-2.68,1.18-1.39,1.3-3.58,5.38-3.58,5.38Z"/>
    <path class="cls-8" d="m128.09,30.1s-.05-.18-.16-.47c-.43-1.24-1.75-4.56-3.58-5.23-.21-.08-.43-.12-.66-.12-.16,0-.34.02-.51.07-1.5.33-2.5,2.25-2.42,3.58.07,1.23.87,7.1,2.97,7.58.16.03.34.04.53,0,2.5-.5,1.5-1.83,1.5-1.83"/>
    <path class="cls-8" d="m124.43,24.18c1-1.42,4.75-8.75,5.5-9.5s2.5-1.5,3.83-2c-2.33-1.58-4.5-3.33-5.08-4.08-.59-.75-1.25-3.42,2.16-4.92,3.42-1.5,10.17-3.33,15.34-3.17,5.16.17,24.08,1.67,26.5,2.5,2.41.84,6.25,2.25,2.83,4.75s-4.83,3.17-9.75,3.34c-4.92.16-6.83,0-8.42-.34-1.58-.33-3.5-.75-2.5,1.5s3.67,6.42,3.5,8.25c-.16,1.84-.58,6.17-1.08,7.25-.24.52-.63.54-.96.22-.37-.35-.67-1.13-.62-2.13.16-2.42.08-4.59-.09-5.17-.16-.58-.58-1.08-3.08-1.83s-14.17-2.92-15-4.42c-1.25,3.17-2.92,6.42-3.5,7.83-.58,1.42-6.06,7.36-6.06,7.36"/>
    <path class="cls-8" d="m156.38,27.8c-.02.06-.05.12-.08.18-1.88,4.56-5.3,13.49-6.04,16.2-.43,1.58-.66,3.82-1.48,6.03-.61,1.64-1.56,3.26-3.15,4.59-4.78,3.99-5.25,4.13-9.87,4.26-4.12.11-8.93-.84-12.07-2.26-1.25-.56-2.24-1.19-2.81-1.87"/>
    <path class="cls-8" d="m145.51,33.3c-.13,2.63-.13,11.63-1.38,13.13s-3.75,1.13-4.87,1.13"/>
    <path class="cls-8" d="m139.51,44.06s-.63.5-1.13,2"/>
    <line class="cls-8" x1="136.76" y1="35.56" x2="141.13" y2="36.06"/>
    <line class="cls-8" x1="147.76" y1="37.43" x2="151.13" y2="37.56"/>
    <path class="cls-8" d="m136.01,27.3s5.25.13,5.87.38"/>
    <line class="cls-8" x1="151.26" y1="30.56" x2="154.13" y2="30.8"/>
    <path class="cls-8" d="m136.26,51.56s3.62.87,4.25.87"/>
    <line class="cls-8" x1="122.97" y1="36.56" x2="123.68" y2="35.72"/>
    <polyline class="cls-8" points="115.76 43.18 111.41 46.89 110.63 47.56"/>
    <path class="cls-8" d="m107.88,45.18s1.63,4.38,3.38,6.88,6.37,6.5,7.37,6.87,3.75-1.87,5-2"/>
    <path class="cls-8" d="m111.13,46.56s-.83-1.18-1.63-1.92c-.36-.34-.72-.58-.99-.58-.88,0-2.63,1-4.88,1.5s-3.37.74-6.25.74c-.26,0-.6.02-1,.06-4.01.37-14.25,2.44-14.25,2.44.07,1.79.17,4.72.46,7.7.22,2.31.56,4.67,1.11,6.56"/>
    <path class="cls-8" d="m75.93,74.68s-2.17-6-3.34-8.17c-.77-1.42-.96-3.65-.99-5-.03-.7-.01-1.16-.01-1.16-2.08.91-8.83.58-12.58,2.58s-9.75,10-14.25,14.75c-2.24,2.37-4.73,4.6-6.66,6.5h0c-1.95,1.92-3.34,3.5-3.34,4.5,0,2,1,8,1,8-8.75.75-12.25.75-19.5,2.75S.76,110.43.51,117.68c-.25,7.21,3.71,20.11,10.39,23.19.04.03.07.04.11.06"/>
    <polyline class="cls-8" points="82.26 56.51 71.6 61.51 71.59 61.51"/>
    <path class="cls-8" d="m36.07,99.99c-6.5,3-15.56,6.94-18.81,13.94-2.75,5.93-5.68,19.22-6.36,26.94-.13,1.39-.18,2.6-.14,3.56.25,6.25.5,11.75.5,11.75,3.05-.78,7.12-1.96,11.67-3.41,12.99-4.14,29.87-10.47,37.83-15.84,4.17-2.81,11.4-7.87,18.97-13.91.48-.38.96-.77,1.44-1.17,8.31-6.73,16.81-14.56,21.9-21.81,1.9-2.7,3.32-5.32,4.08-7.77.04-.11.08-.23.11-.34-8.38-2.75-26.38-13.25-28.25-13.25h-4.75"/>
    <path class="cls-8" d="m35.76,96.68s.07,1.26.35,3.3c.46,3.23,1.43,8.41,3.48,13.53"/>
    <path class="cls-8" d="m38.26,84.35s-.17,3,3.67,3.33c3.83.33,28.16-5.67,30.5-4.83"/>
    <path class="cls-8" d="m63.43,67.01s8.83,10.5,10.83,11"/>
    <path class="cls-8" d="m96.43,47.01s-9.17,10.84-10.84,13.67c-.33.57-.92,1.46-1.66,2.54-2.33,3.43-6.14,8.75-7.84,11.56-.43.7-.72,1.25-.83,1.57-.18.54-.47,1.37-.82,2.33-.49,1.32-1.11,2.89-1.73,4.29-.61,1.36-1.24,2.55-1.78,3.21-1.5,1.83-10,11.83-16.34,17-2.87,2.34-8.58,6.88-14.45,11.29-7.08,5.32-14.39,10.47-17.21,11.38"/>
    <path class="cls-8" d="m120.51,59.8s6.25.88,8.37.38"/>
    <path class="cls-8" d="m99.88,46.43c.5,2.5,3.63,10.25,7.88,14.37,4.25,4.13,13.13,5.71,15.5,5.63,3.75-.13,6-3,7.75-4.37"/>
    <path class="cls-8" d="m149.01,50.3c2.6.63,7.9,4.38,10.39,6.99.5.52.88,1,1.11,1.39,1.33,2.32,2.68,9.9,2.51,12.5h0c0,.08,0,.15-.01.21"/>
    <path class="cls-8" d="m159.38,57.3c-2.24.99-4.62,2-7.06,3.11-4.36,1.97-8.89,4.23-13.06,7.15-5.29,3.69-9,6.45-14.5,12.87-4.13,4.82-6,9.5-7.13,11.87"/>
    <path class="cls-8" d="m152.26,60.35l.06.06c.75.86,9.49,10.77,10.61,10.77"/>
    <path class="cls-8" d="m127.51,96.4c4.94-8.13,18.25-17.78,25-20.5,4.75-1.91,8.24-3.46,10.61-3.86.62-.1,1.17-.13,1.64-.06,2.25.33,7.67,1.67,9.92,3.58,2.25,1.92,7.41,5.09,9.25,11,.96,3.09,2.37,10.7,3.49,17.64h.01c.24,1.49.47,2.95.68,4.32.68,4.5,1.15,8.13,1.15,9.13"/>
    <path class="cls-8" d="m150.59,78.68c1.17,1.5-1.16,5.83-2.33,7.5s-7.67,9.33-9.5,11.33-11.83,13-12.67,16.84c.75,0,1.52,0,2.32-.01,6.15-.04,13.65-.26,19.85-.99,7-.84,17.17-2.5,22.17-6.5"/>
    <path class="cls-8" d="m160.76,94.01s-7,4-10,7-15,8.67-16.5,10.17c-1.41,1.41-5.36,2.97-5.85,3.16-.03.01-.05.02-.05.02"/>
    <path class="cls-8" d="m90.51,80.93c1.62-5.13,10.75-18.71,14-19.42"/>
    <path class="cls-8" d="m81.18,121.86c1.37.78,3.08,1.5,4.97,2.16,7.37,2.55,17.53,4.02,21.11,3.42"/>
    <path class="cls-8" d="m86.14,124.04s-16.19,29.69-20.2,33.48c-.06.06-.12.11-.18.16"/>
    <path class="cls-8" d="m79.73,123.02c-3.64,8.16-13.14,21.66-28.47,27.66-.34.13-.67.26-1,.38-14.75,5.46-23.91,1.96-27.33,1.71"/>
    <path class="cls-8" d="m50.26,151.06v3.05s8.71,2.58,15.35,4.2c.04.01.09.02.13.03,2.31.56,4.36,1,5.69,1.17,3.44.45,18.27,2.3,28.98,2.44,5.33.08,9.63-.28,11.02-1.44,1.5-5.5,3.66-11.16,3.66-11.16"/>
    <path class="cls-8" d="m122.76,117.43l-5.72,3.69-9.78,6.32s.56,2.9,1.63,6.7c.38,1.39.84,2.9,1.37,4.42,1.34,3.91,3.12,7.95,5.29,10.47.66.76,1.35,1.38,2.08,1.82,2.94-1.02,9.55-5.25,16.84-10.38,12.99-9.15,28.14-21.17,28.46-23.04"/>
    <path class="cls-8" d="m199.41,167.14c-17.78,6.44-48.65,4.63-60.9,5.04"/>
    <path class="cls-8" d="m199.47,117.65c5.24.34,9.89,1.21,13.39,3.31,2.29,1.37,4.08,3.27,5.23,5.89.72,1.62,1.14,3.6,1.3,5.81.54,7.52-2.04,17.65-7.18,24.98-1.11,1.6-2.35,3.06-3.7,4.33-2.28,2.14-5.4,3.83-9.09,5.17"/>
    <path class="cls-8" d="m134.47,140.47c22.44-11.96,42.57-21.33,54.79-22.82,1.19-.16,2.3-.23,3.33-.22,2.37.02,4.68.07,6.88.21"/>
    <path class="cls-8" d="m149.47,167.82c14.14-6.98,29.29-18.47,29.29-18.47"/>
    <path class="cls-8" d="m100.41,161.96c6.16,7.89,22.35,14.47,38.1,10.22,3.36-.9,7.12-2.46,10.95-4.36"/>
    <path class="cls-8" d="m191.01,150.85s-17.36,17.62-41.54,16.97h-.01"/>
    <path class="cls-8" d="m187.54,104.18l23.59-10.11c1.3-.56,2.79.17,3.15,1.53l3.56,13.37,2.59,9.71"/>
    <path class="cls-8" d="m212.86,120.96s5.01-.34,7.79-1.22c.93-.29,1.61-.64,1.78-1.06.42-1.04,4.22-5.8,7.02-9.22.82-1.02,1.56-1.92,2.1-2.56.48-.58,1.33-.65,1.89-.15,4.88,4.37,25.79,23.13,26.82,24.6,1.17,1.66,1,5.5,0,6s-35,0-35,0"/>
    <path class="cls-8" d="m212.21,157.64s9.48,6.23,17.22,5.42c.69-.06,1.35-.19,2-.38,1.13-.33-1.84-13.33-4.17-19.5-.72-1.92-1.77-3.68-2.86-5.17-2.39-3.29-5.01-5.35-5.01-5.35"/>
    <path class="cls-8" d="m199.41,167.14h0c.61.05,20.01,1.54,30.01-4.08"/>
    <path class="cls-8" d="m108.88,134.14l-23.95,5.37,5.58,9.84s16.08-5.91,19.75-10.79"/>
    <path class="cls-8" d="m107.26,92.3c3.61.69,7.64.64,10.29.87.71.06,1.32.14,1.79.26,1.66.43,5.92,2.11,7.94,3.34.72.44,1.15.83,1.08,1.08-.25.53-1.03.47-1.91.21-1.19-.35-2.56-1.06-3.04-1.16-.84-.17-1.86-.68-3.48-.76"/>
    <path class="cls-8" d="m126.43,98.2s3.16,2.01,3.33,2.51.67,2.67-2.25.83c-2.92-1.83-5-2.77-5.67-2.83,0,0-1.62-.24-1.91-.24"/>
    <path class="cls-8" d="m119.55,100.51s1.65.89,3.17,1.69c1.04.55,2.02,1.06,2.37,1.23.88.42,1.94.42,1.79-.33-.25-1.34-3.06-2.38-3.33-2.67s-3.62-1.71-3.62-1.71"/>
    <path class="cls-8" d="m103.07,100.04c1.78.76,4.92,1.58,7.19,1.92,1.15.18,2.08.24,2.5.11,1.25-.39,5.29.78,6.33,1.11.02,0,.03.01.05.02.67.22,2.57.9,3.56.67.69-.17.52-1.22.02-1.67"/>
    <path class="cls-8" d="m110.26,101.96c-2,6.22-2.38,15.9-1.88,21.06"/>
    <path class="cls-8" d="m119.09,103.34s-4.64,13.6-2.05,17.78"/>
    <path class="cls-8" d="m229.45,109.46c-3.57-1.16-6.03-1.21-11.61-.49"/>
    <path class="cls-7" d="m188.21,108.5c3.05,1.22,10.05,5.77,11.26,9.14h0"/>
  </g>
</svg>