<?xml version="1.0" encoding="UTF-8"?>
<svg xmlns="http://www.w3.org/2000/svg" viewBox="0 0 269.23 165.76">
  <defs>
    <style>
      .cls-1 {
        stroke-miterlimit: 10;
      }

      .cls-1, .cls-2 {
        fill: none;
        stroke: #000;
      }

      .cls-3 {
        fill: #f2e680;
      }

      .cls-3, .cls-4, .cls-5, .cls-6, .cls-7, .cls-8, .cls-9, .cls-10 {
        stroke-width: 0px;
      }

      .cls-4 {
        fill: #df5f42;
      }

      .cls-5 {
        fill: #f3edd7;
      }

      .cls-2 {
        stroke-linecap: round;
        stroke-linejoin: round;
      }

      .cls-6 {
        fill: #333;
      }

      .cls-7 {
        fill: #7bbcc0;
      }

      .cls-8 {
        fill: #fffbe2;
      }

      .cls-9 {
        fill: #d2d296;
      }

      .cls-10 {
        fill: #fae7c9;
      }
    </style>
  </defs>
  <g id="_畳" data-name="畳">
    <g>
      <g>
        <rect class="cls-5" x=".24" y="131.26" width="3.61" height="5.01"/>
        <path class="cls-5" d="m268.99,158.73v6.54h-30.32l15.29-8.59c1.03,1.61,3.1,2.71,5.49,2.71s4.6-1.18,5.59-2.87l3.95,2.22Z"/>
        <path class="cls-5" d="m268.99,148.21v10.51l-3.95-2.22c.38-.65.59-1.37.59-2.14,0-1.3-.61-2.47-1.61-3.36l4.97-2.79Z"/>
        <path class="cls-5" d="m268.99,136.27v11.94l-4.97,2.79c-1.13-1-2.76-1.63-4.57-1.63s-3.29.58-4.42,1.5l-25.98-14.6h39.95Z"/>
        <polygon class="cls-5" points="268.99 63.23 268.99 68.97 1.13 68.97 .24 68.97 .24 63.23 268.99 63.23"/>
        <rect class="cls-5" x="265.01" y="131.26" width="3.98" height="5.01"/>
        <path class="cls-5" d="m265.62,154.37c0,.76-.21,1.49-.59,2.14l-5.4-3.03,4.38-2.46c.99.89,1.61,2.07,1.61,3.36Z"/>
        <path class="cls-5" d="m259.64,153.47l5.4,3.03c-.99,1.69-3.12,2.87-5.59,2.87s-4.46-1.1-5.49-2.71l5.69-3.2Z"/>
        <rect class="cls-6" x="253.75" y="131.26" width="11.26" height="5.01"/>
        <path class="cls-5" d="m264.01,151l-4.38,2.46-4.62-2.59c1.12-.93,2.69-1.5,4.42-1.5,1.82,0,3.44.63,4.57,1.63Z"/>
        <path class="cls-5" d="m259.64,153.47l-5.69,3.2c-.44-.68-.69-1.47-.69-2.3,0-1.37.67-2.59,1.76-3.49l4.62,2.59Z"/>
        <path class="cls-5" d="m229.04,136.27l25.98,14.6c-1.09.9-1.76,2.13-1.76,3.49,0,.83.25,1.62.69,2.3l-15.29,8.59h-41.3l-15.58-8.76c.38-.65.59-1.37.59-2.14,0-1.3-.61-2.47-1.61-3.35l26.22-14.74h22.06Zm-5.94,18.1c0-2.76-2.24-5-5-5s-5.01,2.24-5.01,5,2.24,5.01,5.01,5.01,5-2.24,5-5.01Z"/>
        <polygon class="cls-5" points="253.75 136.27 229.04 136.27 223.36 136.27 223.36 131.26 253.75 131.26 253.75 136.27"/>
        <rect class="cls-6" x="212.1" y="131.26" width="11.26" height="5.01"/>
        <path class="cls-6" d="m218.1,149.37c2.76,0,5,2.24,5,5s-2.24,5.01-5,5.01-5.01-2.24-5.01-5.01,2.24-5,5.01-5Z"/>
        <path class="cls-5" d="m206.98,136.27l-26.22,14.74c-1.13-1.01-2.76-1.64-4.57-1.64s-3.29.58-4.42,1.5l-25.98-14.6h61.2Z"/>
        <polygon class="cls-5" points="181.71 136.27 181.71 131.26 212.1 131.26 212.1 136.27 206.98 136.27 181.71 136.27"/>
        <path class="cls-5" d="m197.36,165.26h-41.95l15.29-8.59c1.03,1.61,3.1,2.71,5.49,2.71s4.6-1.18,5.59-2.87l15.58,8.76Z"/>
        <path class="cls-5" d="m182.37,154.37c0,.76-.21,1.49-.59,2.14l-5.4-3.03,4.38-2.46c.99.88,1.61,2.06,1.61,3.35Z"/>
        <path class="cls-5" d="m176.38,153.47l5.4,3.03c-.99,1.69-3.12,2.87-5.59,2.87s-4.46-1.1-5.49-2.71l5.69-3.2Z"/>
        <rect class="cls-6" x="170.45" y="131.26" width="11.26" height="5.01"/>
        <path class="cls-5" d="m176.18,149.37c1.82,0,3.44.63,4.57,1.64l-4.38,2.46-4.62-2.59c1.12-.93,2.69-1.5,4.42-1.5Z"/>
        <path class="cls-5" d="m176.38,153.47l-5.69,3.2c-.44-.68-.69-1.47-.69-2.3,0-1.37.67-2.59,1.76-3.49l4.62,2.59Z"/>
        <path class="cls-5" d="m145.78,136.27l25.98,14.6c-1.09.9-1.76,2.13-1.76,3.49,0,.83.25,1.62.69,2.3l-15.29,8.59h-41.3l-15.58-8.76c.38-.65.59-1.37.59-2.14,0-1.3-.61-2.47-1.61-3.35l26.22-14.74h22.06Zm-6.99,18.1c0-2.76-2.24-5-5-5s-5.01,2.24-5.01,5,2.24,5.01,5.01,5.01,5-2.24,5-5.01Z"/>
        <polygon class="cls-5" points="170.45 136.27 145.78 136.27 140.06 136.27 140.06 131.26 170.45 131.26 170.45 136.27"/>
        <rect class="cls-6" x="128.8" y="131.26" width="11.26" height="5.01"/>
        <path class="cls-6" d="m133.8,149.37c2.76,0,5,2.24,5,5s-2.24,5.01-5,5.01-5.01-2.24-5.01-5.01,2.24-5,5.01-5Z"/>
        <path class="cls-5" d="m123.73,136.27l-26.22,14.74c-1.13-1.01-2.76-1.64-4.57-1.64s-3.29.58-4.42,1.5l-25.98-14.6h61.2Z"/>
        <polygon class="cls-5" points="128.8 136.27 123.73 136.27 98.41 136.27 98.41 131.26 128.8 131.26 128.8 136.27"/>
        <path class="cls-5" d="m114.1,165.26h-41.95l15.29-8.59c1.03,1.61,3.1,2.71,5.49,2.71s4.6-1.18,5.59-2.87l15.58,8.76Z"/>
        <path class="cls-5" d="m99.11,154.37c0,.76-.21,1.49-.59,2.14l-5.4-3.03,4.38-2.46c.99.88,1.61,2.06,1.61,3.35Z"/>
        <path class="cls-5" d="m93.13,153.47l5.4,3.03c-.99,1.69-3.12,2.87-5.59,2.87s-4.46-1.1-5.49-2.71l5.69-3.2Z"/>
        <rect class="cls-6" x="87.15" y="131.26" width="11.26" height="5.01"/>
        <path class="cls-5" d="m92.93,149.37c1.82,0,3.44.63,4.57,1.64l-4.38,2.46-4.62-2.59c1.12-.93,2.69-1.5,4.42-1.5Z"/>
        <path class="cls-5" d="m93.13,153.47l-5.69,3.2c-.44-.68-.69-1.47-.69-2.3,0-1.37.67-2.59,1.76-3.49l4.62,2.59Z"/>
        <path class="cls-5" d="m62.53,136.27l25.98,14.6c-1.09.9-1.76,2.13-1.76,3.49,0,.83.25,1.62.69,2.3l-15.29,8.59H30.65l-15.58-8.76c.38-.65.59-1.37.59-2.14,0-1.3-.61-2.47-1.61-3.35l26.22-14.74h22.25Zm-8.49,18.1c0-2.76-2.24-5-5-5s-5.01,2.24-5.01,5,2.24,5.01,5.01,5.01,5-2.24,5-5.01Z"/>
        <polygon class="cls-5" points="87.15 136.27 62.53 136.27 56.76 136.27 56.76 131.26 87.15 131.26 87.15 136.27"/>
        <rect class="cls-6" x="45.5" y="131.26" width="11.26" height="5.01"/>
        <path class="cls-6" d="m49.04,149.37c2.76,0,5,2.24,5,5s-2.24,5.01-5,5.01-5.01-2.24-5.01-5.01,2.24-5,5.01-5Z"/>
        <polygon class="cls-5" points="45.5 136.27 40.28 136.27 15.11 136.27 15.11 131.26 45.5 131.26 45.5 136.27"/>
        <path class="cls-5" d="m30.65,165.26H.24v-6.49l3.74-2.1c1.03,1.61,3.1,2.71,5.49,2.71s4.6-1.18,5.59-2.87l15.58,8.76Z"/>
        <path class="cls-5" d="m15.66,154.37c0,.76-.21,1.49-.59,2.14l-5.4-3.03,4.38-2.46c.99.88,1.61,2.06,1.61,3.35Z"/>
        <rect class="cls-6" x="3.85" y="131.26" width="11.26" height="5.01"/>
        <path class="cls-5" d="m9.68,153.47l5.4,3.03c-.99,1.69-3.12,2.87-5.59,2.87s-4.46-1.1-5.49-2.71l5.69-3.2Z"/>
        <path class="cls-5" d="m9.48,149.37c1.82,0,3.44.63,4.57,1.64l-4.38,2.46-4.62-2.59c1.12-.93,2.69-1.5,4.42-1.5Z"/>
        <path class="cls-5" d="m9.68,153.47l-5.69,3.2c-.44-.68-.69-1.47-.69-2.3,0-1.37.67-2.59,1.76-3.49l4.62,2.59Z"/>
        <path class="cls-5" d="m.24,148.17l4.82,2.71c-1.09.9-1.76,2.13-1.76,3.49,0,.83.25,1.62.69,2.3l-3.74,2.1v-10.6Z"/>
        <polygon class="cls-9" points="212.1 131.26 181.71 131.26 170.45 131.26 140.06 131.26 128.8 131.26 98.41 131.26 87.15 131.26 56.76 131.26 45.5 131.26 15.11 131.26 3.85 131.26 .24 131.26 .24 68.97 1.13 68.97 268.99 68.97 268.99 131.26 265.01 131.26 253.75 131.26 223.36 131.26 212.1 131.26"/>
        <path class="cls-5" d="m.24,136.27h40.03l-26.22,14.74c-1.13-1.01-2.76-1.64-4.57-1.64s-3.29.58-4.42,1.5l-4.82-2.71v-11.9Z"/>
      </g>
      <g>
        <polyline class="cls-1" points="268.99 165.26 238.66 165.26 197.36 165.26 155.41 165.26 114.1 165.26 72.15 165.26 30.65 165.26 .24 165.26"/>
        <line class="cls-1" x1=".24" y1="63.23" x2="268.99" y2="63.23"/>
        <line class="cls-1" x1=".24" y1="68.97" x2="268.99" y2="68.97"/>
        <line class="cls-1" x1="265.01" y1="131.26" x2="268.99" y2="131.26"/>
        <line class="cls-1" x1="223.36" y1="131.26" x2="253.75" y2="131.26"/>
        <line class="cls-1" x1="181.71" y1="131.26" x2="212.1" y2="131.26"/>
        <line class="cls-1" x1="140.06" y1="131.26" x2="170.45" y2="131.26"/>
        <line class="cls-1" x1="98.41" y1="131.26" x2="128.8" y2="131.26"/>
        <line class="cls-1" x1="56.76" y1="131.26" x2="87.15" y2="131.26"/>
        <line class="cls-1" x1="15.11" y1="131.26" x2="45.5" y2="131.26"/>
        <line class="cls-1" x1=".24" y1="131.26" x2="3.85" y2="131.26"/>
        <line class="cls-1" x1="265.01" y1="136.27" x2="268.99" y2="136.27"/>
        <polyline class="cls-1" points="223.36 136.27 229.04 136.27 253.75 136.27"/>
        <polyline class="cls-1" points="181.71 136.27 206.98 136.27 212.1 136.27"/>
        <polyline class="cls-1" points="140.06 136.27 145.78 136.27 170.45 136.27"/>
        <polyline class="cls-1" points="98.41 136.27 123.73 136.27 128.8 136.27"/>
        <polyline class="cls-1" points="56.76 136.27 62.53 136.27 87.15 136.27"/>
        <polyline class="cls-1" points="15.11 136.27 40.28 136.27 45.5 136.27"/>
        <line class="cls-1" x1=".24" y1="136.27" x2="3.85" y2="136.27"/>
        <polyline class="cls-1" points="72.15 165.26 87.44 156.67 93.13 153.47 97.5 151.01 123.73 136.27"/>
        <polyline class="cls-1" points="114.1 165.26 98.52 156.5 93.13 153.47 88.51 150.87 62.53 136.27"/>
        <path class="cls-1" d="m138.8,154.37c0,2.77-2.24,5.01-5,5.01s-5.01-2.24-5.01-5.01,2.24-5,5.01-5,5,2.24,5,5Z"/>
        <path class="cls-1" d="m223.1,154.37c0,2.77-2.24,5.01-5,5.01s-5.01-2.24-5.01-5.01,2.24-5,5.01-5,5,2.24,5,5Z"/>
        <path class="cls-1" d="m97.5,151.01c.99.88,1.61,2.06,1.61,3.35,0,.76-.21,1.49-.59,2.14-.99,1.69-3.12,2.87-5.59,2.87s-4.46-1.1-5.49-2.71c-.44-.68-.69-1.47-.69-2.3,0-1.37.67-2.59,1.76-3.49,1.12-.93,2.69-1.5,4.42-1.5,1.82,0,3.44.63,4.57,1.64Z"/>
        <polyline class="cls-1" points=".24 158.77 3.99 156.67 9.68 153.47 14.05 151.01 40.28 136.27"/>
        <polyline class="cls-1" points="30.65 165.26 15.07 156.5 9.68 153.47 5.06 150.87 .24 148.17"/>
        <path class="cls-1" d="m14.05,151.01c.99.88,1.61,2.06,1.61,3.35,0,.76-.21,1.49-.59,2.14-.99,1.69-3.12,2.87-5.59,2.87s-4.46-1.1-5.49-2.71c-.44-.68-.69-1.47-.69-2.3,0-1.37.67-2.59,1.76-3.49,1.12-.93,2.69-1.5,4.42-1.5,1.82,0,3.44.63,4.57,1.64Z"/>
        <polyline class="cls-1" points="155.41 165.26 170.69 156.67 176.38 153.47 180.76 151.01 206.98 136.27"/>
        <polyline class="cls-1" points="197.36 165.26 181.78 156.5 176.38 153.47 171.76 150.87 145.78 136.27"/>
        <path class="cls-1" d="m180.76,151.01c.99.88,1.61,2.06,1.61,3.35,0,.76-.21,1.49-.59,2.14-.99,1.69-3.12,2.87-5.59,2.87s-4.46-1.1-5.49-2.71c-.44-.68-.69-1.47-.69-2.3,0-1.37.67-2.59,1.76-3.49,1.12-.93,2.69-1.5,4.42-1.5,1.82,0,3.44.63,4.57,1.64Z"/>
        <polyline class="cls-1" points="238.66 165.26 253.95 156.67 259.64 153.47 264.01 151 268.99 148.21"/>
        <polyline class="cls-1" points="268.99 158.73 265.03 156.5 259.64 153.47 255.02 150.87 229.04 136.27"/>
        <path class="cls-1" d="m264.01,151c.99.89,1.61,2.07,1.61,3.36,0,.76-.21,1.49-.59,2.14-.99,1.69-3.12,2.87-5.59,2.87s-4.46-1.1-5.49-2.71c-.44-.68-.69-1.47-.69-2.3,0-1.37.67-2.59,1.76-3.49,1.12-.93,2.69-1.5,4.42-1.5,1.82,0,3.44.63,4.57,1.63Z"/>
        <path class="cls-1" d="m54.03,154.37c0,2.77-2.24,5.01-5,5.01s-5.01-2.24-5.01-5.01,2.24-5,5.01-5,5,2.24,5,5Z"/>
        <rect class="cls-1" x="3.85" y="131.26" width="11.26" height="5.01"/>
        <rect class="cls-1" x="45.5" y="131.26" width="11.26" height="5.01"/>
        <rect class="cls-1" x="87.15" y="131.26" width="11.26" height="5.01"/>
        <rect class="cls-1" x="128.8" y="131.26" width="11.26" height="5.01"/>
        <rect class="cls-1" x="170.45" y="131.26" width="11.26" height="5.01"/>
        <rect class="cls-1" x="212.1" y="131.26" width="11.26" height="5.01"/>
        <rect class="cls-1" x="253.75" y="131.26" width="11.26" height="5.01"/>
      </g>
    </g>
  </g>
  <g id="_レイヤー_2" data-name="レイヤー 2">
    <g>
      <g>
        <path class="cls-4" d="m264.12,85.44c.29.88.39,1.71.22,2.44-5.45,7.58-23.69,24.95-24.65,25.39-1.13-.75-2.02-1.96-2.68-3.31,0,0,0,0,0-.02-1.39-2.84-1.76-6.31-1.33-7.53,9.01-4.26,19.29-9.93,28.45-16.96Z"/>
        <path class="cls-3" d="m262.45,82.24c.75,1.11,1.34,2.19,1.68,3.2-9.16,7.03-19.44,12.7-28.45,16.96-3.35,1.58-6.52,2.97-9.39,4.17h0c-.8.34-1.57.65-2.32.95h0c-7.29,2.93-12.15,4.42-12.15,4.42l.12-3.83h.05c1.96-.57,30.76-9.81,50.07-25.62l.4-.25Z"/>
        <path class="cls-3" d="m262.45,82.24l-.4.25c-19.32,15.81-48.11,25.05-50.07,25.62h-.05l.13-3.84h.1c3.93-1.14,31.71-10.47,47.6-24.56l.39-.44c.85.99,1.64,1.99,2.31,2.97Z"/>
        <path class="cls-3" d="m260.14,79.27l-.39.44c-15.89,14.09-43.67,23.42-47.6,24.56h-.1l.12-3.84h.15c5.89-1.7,32.66-11.14,45.13-23.5l.35-.18c.79.8,1.58,1.65,2.33,2.52Z"/>
        <path class="cls-7" d="m197.83,56.61c1.9,4.63,3.88,10.43,4.95,15.61.29,1.43.52,2.8.65,4.1.09.88.14,1.72.14,2.52.65.2,1.38.42,2.19.66h0c1.88.55,4.14,1.19,6.56,1.87,1.16.32,2.35.64,3.55.97,5.53-1.82,13.66-4.25,20.83-6.34.03,0,.05-.02.07-.03,7.88-2.29,14.58-4.18,15.35-4.41.87.72,3.24,2.73,5.68,5.21l-.35.18c-12.47,12.36-39.24,21.8-45.13,23.51h-.15s.15-4.62.15-4.62h-1.6c.08-.17.14-.35.2-.51-1.17-.23-2.29-.45-3.38-.66-1.39-.26-2.72-.5-3.98-.73-1.52-.27-2.94-.52-4.25-.73-8.69-1.46-13.12-1.88-13.12-1.88l1.04-1.14,4.76-6.58.09-.18.11.05,3.41-8.3,1.37-7.21-.42-7.91-.16-.34v-6.41c.47,1.01.95,2.13,1.44,3.32Z"/>
        <path class="cls-4" d="m235.5,63.08c1.87,6.61,2.26,12.32,1.27,12.87-.02,0-.04.02-.07.03-7.17,2.09-15.3,4.52-20.83,6.34-1.2-.33-2.4-.65-3.55-.97l22.57-17.79.61-.48Z"/>
        <path class="cls-4" d="m235.68,102.41c-.43,1.22-.06,4.69,1.33,7.53-.77-1.23-10.35-3.29-10.72-3.36,2.87-1.19,6.04-2.59,9.39-4.17Z"/>
        <path class="cls-7" d="m231.79,58.28l3.1,5.28-22.57,17.79c-2.42-.67-4.69-1.31-6.56-1.87,5.99-4.17,21.59-14.93,26.03-21.2Z"/>
        <path class="cls-4" d="m223.88,55.6c-.86-.04-1.72-.06-2.59-.08v-.02c-.22-5.21-5.87-18.4-5.87-18.4h0c.69.16,1.41.42,2.01.8,2.78,1.8,8.99,3.41,14.57,12.81,1.57,2.65.88,4.63.77,5.78-1.5-.26-3.05-.46-4.63-.61-1.4-.14-2.83-.22-4.26-.29Z"/>
        <path class="cls-3" d="m232.78,56.49c-.2.54-.54,1.14-.99,1.79-4.44,6.27-20.03,17.03-26.03,21.2h0c-.8-.24-1.54-.46-2.19-.66,0-.8-.05-1.63-.14-2.52,7.5-3.96,21.39-15.19,24.72-20.42,1.58.15,3.13.35,4.63.61Z"/>
        <path class="cls-7" d="m223.96,107.53c1.63.3,7.06,2.87,6.83,3.79-.22.91-1.84,5.85-6.1,9.94-2.35,2.25-5.74,4.3-8.09,3.64-2.36-.67-10.82-12.25-10.82-12.25.67-.45,1.19-.9,1.5-1.33l4.53.63s4.86-1.49,12.15-4.42h0Z"/>
        <path class="cls-3" d="m223.88,55.6c1.44.06,2.86.15,4.26.29-3.33,5.23-17.22,16.46-24.72,20.42-.13-1.3-.35-2.67-.65-4.1,5.9-2.31,19.35-14.29,21.11-16.61Z"/>
        <path class="cls-7" d="m221.3,55.53c.86.02,1.73.03,2.59.08-1.76,2.32-15.21,14.3-21.11,16.61-1.06-5.18-3.04-10.97-4.95-15.61,4.95-.31,11.16-.86,17.6-1.04,1.95-.05,3.92-.07,5.87-.04Z"/>
        <path class="cls-4" d="m221.3,55.51v.02c-1.95-.03-3.93,0-5.87.04.83-3.03-.9-11.77-3.1-17.66.17-.41.31-.78.43-1.12,0,0,1.28-.02,2.67.31h0s5.65,13.19,5.87,18.41Z"/>
        <path class="cls-8" d="m216.6,124.9s-.96.51-3.39,1.69l-10.44-12.26c1.18-.56,2.2-1.12,3.01-1.69,0,0,8.46,11.59,10.82,12.25Z"/>
        <path class="cls-4" d="m208.56,44.98c.69-1.15,1.33-2.26,1.88-3.27.58-1.07,1.07-2.03,1.44-2.8.18-.38.33-.72.45-.99,2.2,5.89,3.93,14.63,3.1,17.66-6.43.17-12.65.73-17.6,1.04,3.35-.67,7.63-6.5,10.73-11.63Z"/>
        <path class="cls-8" d="m202.77,114.33l10.44,12.26-3.53,2.91-1.25-1.66-9.11-11.99c1.23-.5,2.4-1,3.46-1.51Z"/>
        <path class="cls-3" d="m211.36,32.32c1.41.3,2.48,1.27,1.39,4.47-.12.35-.26.72-.43,1.12-.12.28-.27.61-.45.99-3.46-1.51-18.98-1.36-23.7.48h0l.67-6.55s4.84-.2,10-.37c5.41-.18,11.19-.34,12.09-.22.15.02.29.04.43.07h0Z"/>
        <path class="cls-8" d="m212.32,95.83l-.15,4.61-.12,3.84-.13,3.84-.12,3.83-4.53-.63-8.87-1.25c5.46-4.93,10.7-10.42,12.32-14.24h1.6Z"/>
        <path class="cls-4" d="m211.36,32.32c-.14-.03-.29-.05-.43-.07-.9-.11-6.68.04-12.09.22-1.55-2.62-8.39-3.72-10.66-3.55l-.23-.14c.82-1.39,1.61-2.87,2.33-4.37,1.86-3.8,3.38-7.69,4.39-10.66,0,0,12.67,10.01,16.69,18.56Z"/>
        <path class="cls-3" d="m210.92,95.32c-.06.16-.12.34-.2.51-1.63,3.82-6.86,9.31-12.32,14.24-5.07,4.57-10.35,8.66-13.17,10.51,0,0-.02,0-.02,0-.42.28-.8.5-1.1.67-.63-1.32-1.31-2.63-2.05-3.92h0c6.04-3.63,21.64-13.54,25.47-22.68,1.09.21,2.21.42,3.38.66Z"/>
        <path class="cls-3" d="m211.87,38.91c-.36.77-.86,1.73-1.44,2.8-4.16-.84-16.66-.28-21.36,1.25l-.2.22c-.33-.3-.66-.6-.99-.88.03-.24.05-.49.05-.76l.22-2.14h0c4.72-1.84,20.24-2,23.7-.48Z"/>
        <path class="cls-3" d="m210.44,41.71c-.54,1.01-1.18,2.12-1.88,3.27-2.53-1.46-17.33.55-17.33.55-.76-.82-1.55-1.61-2.35-2.36l.2-.22c4.7-1.52,17.2-2.08,21.36-1.25Z"/>
        <path class="cls-8" d="m199.31,115.84l9.11,11.99c-1.18.73-5.81.73-7.58,0-.67-.28-1.93-1.73-3.23-3.42-2.17-2.81-4.49-6.3-4.49-6.3,2.01-.68,4.17-1.46,6.19-2.27Z"/>
        <path class="cls-8" d="m199.31,115.84c-2.02.8-4.18,1.58-6.19,2.27-1.97.67-3.79,1.24-5.19,1.66-1.55.48-2.57.77-2.7.8,2.82-1.84,8.1-5.93,13.17-10.51l8.87,1.25c-.3.43-.82.88-1.5,1.33-.8.56-1.83,1.12-3.01,1.69-1.05.51-2.23,1.01-3.46,1.51Z"/>
        <path class="cls-7" d="m208.56,44.98c-3.1,5.13-7.38,10.96-10.73,11.63-.49-1.19-.98-2.31-1.44-3.32-.27-.61-.54-1.17-.8-1.69-1.03-2.08-2.59-4.15-4.36-6.07,0,0,14.79-2.01,17.33-.55Z"/>
        <path class="cls-3" d="m203.56,93.93c1.25.23,2.59.48,3.98.73-3.83,9.14-19.43,19.05-25.47,22.67-.67-1.18-1.38-2.33-2.12-3.46,6.4-3.77,17.56-10.44,23.61-19.94h0Z"/>
        <path class="cls-3" d="m203.56,93.93h0c-6.05,9.5-17.22,16.18-23.61,19.95-.58-.89-1.18-1.76-1.79-2.61l.2-.14c5.41-1.92,17.34-13.6,20.95-17.93,1.31.22,2.73.47,4.25.73Z"/>
        <path class="cls-8" d="m197.82,138.47l-6.99,1.99s-9.1-14.46-8.77-23.12c.73,1.29,1.42,2.59,2.05,3.92.3-.17.67-.4,1.1-.67,0,0,0,0,.02,0,.13-.03,1.15-.33,2.7-.8h0c.82,2.64,1.81,4.94,3.3,7.73,1.54,2.85,3.61,6.23,6.59,10.97Z"/>
        <path class="cls-7" d="m197.61,124.41l-6.18,2.98-.19.1c-1.5-2.79-2.48-5.09-3.3-7.72h0c1.4-.43,3.22-1,5.19-1.67,0,0,2.32,3.49,4.49,6.3Z"/>
        <path class="cls-3" d="m196.54,60.03l.42,7.91-26.55-3.64c.75-2.01,1.43-3.9,2.01-5.63v.06s23.96.96,23.96.96l.16.34Z"/>
        <path class="cls-3" d="m196.97,67.94l-1.37,7.21-26.03-7.21-.47-.18c.46-1.18.9-2.34,1.31-3.46l26.55,3.64Z"/>
        <path class="cls-3" d="m196.39,53.29v6.41l-23.97-.96v-.06s.02-.02.02-.02c.33-.94.63-1.83.9-2.67l8.27-.97,14.79-1.73Z"/>
        <path class="cls-7" d="m196.39,53.29l-14.79,1.73c.48-1.56,6.25-12.06,6.25-12.06v-.45c.02-.07.03-.14.04-.22.33.29.66.58.99.88.8.75,1.59,1.54,2.35,2.36,1.77,1.92,3.33,3.99,4.36,6.07.26.52.53,1.08.8,1.69Z"/>
        <path class="cls-6" d="m143.42,30.07c.69-.91,1.4-1.76,2.12-2.58.67-.77,1.35-1.49,2.03-2.16.12-.12.24-.24.37-.36,1.58-1.51,3.41-3.06,5.39-4.61,3.06-2.4,6.48-4.81,9.93-7.14,2.19-1.48,4.38-2.93,6.49-4.33,6.42-4.25,12.1-8.39,15.01-8.39,6.43,0,14.79.9,11.43,9.75-.09.23-.32.42-.61.55-.44.21-.99.24-1.28,0-1.87-1.12-3.48-3.49-4.54-6.1-2.03,1.1-4.31.95-4.31.95-3.69,4.06-20.03,19.26-21.34,20.46-.42.37-.85.78-1.31,1.2-1.33,1.22-2.85,2.63-4.47,4.12-1.38,1.28-2.83,2.61-4.28,3.94h0c-2.1,1.95-4.21,3.89-6.12,5.65-2.77,2.53-5.13,4.68-6.48,5.85-1.6,1.39-3.86,5.1-6.13,9.13-3.32,5.88-6.67,12.44-8.04,13.42l-1.26.65c.45-2.42,1.09-5.05,1.9-7.8.84-2.91,1.88-5.96,3.06-9.03,2.78-7.2,6.41-14.52,10.49-20.47.63-.93,1.28-1.83,1.94-2.69Z"/>
        <path class="cls-3" d="m195.59,75.15l-3.41,8.3-.11-.05-24.46-11.85h0c.52-1.29,1.02-2.55,1.5-3.79l.47.18,26.03,7.21Z"/>
        <path class="cls-10" d="m190.28,24.42c-.73,1.5-1.51,2.97-2.33,4.37-.03.05-.06.1-.09.14-.84,1.42-1.73,2.74-2.65,3.93-1.49,1.91-3.16,3.15-4.8,3.94-.48.22-.94.42-1.4.58-.68.24-1.34.42-1.97.54-1.01.21-1.93.32-2.76.35-1.52.06-2.78-.13-3.85-.48-2.81-.92-4.38-2.91-6.14-4.29l-.35.06-1.13-6.26c.47-.42.9-.83,1.31-1.2,1.31-1.19,17.65-16.4,21.34-20.46,0,0,2.27.15,4.31-.95,1.06,2.61,2.67,4.99,4.54,6.1.29.25.84.22,1.28,0-.23.81-.54,1.82-.93,2.95-1.01,2.97-2.53,6.87-4.39,10.66Z"/>
        <path class="cls-7" d="m175.07,107.25c-1.05-1.25-2.09-2.41-3.14-3.48l3.23-2.14.82,1.05,5.62-6.33,4.59-5.04s4.43.42,13.12,1.88c-3.61,4.33-15.54,16.01-20.95,17.93l-.2.14c-1-1.41-2.05-2.75-3.1-4.01Z"/>
        <path class="cls-3" d="m167.61,71.55l24.46,11.85-.09.18-4.76,6.58-21.88-13.16h0c.79-1.84,1.54-3.67,2.26-5.46h0Z"/>
        <path class="cls-8" d="m190.84,140.46l-6.94,1.21c-5.19-10.14-11.3-25.14-8.83-34.42,1.05,1.26,2.09,2.6,3.1,4.01.61.85,1.21,1.72,1.79,2.61.73,1.12,1.44,2.28,2.12,3.46h0c-.33,8.67,8.77,23.13,8.77,23.13Z"/>
        <path class="cls-4" d="m198.84,32.47c-5.16.17-10,.37-10,.37,0,0-.05-2.78-.98-3.93.03-.04.06-.09.09-.14l.23.14c2.27-.16,9.11.93,10.66,3.55Z"/>
        <path class="cls-7" d="m188.83,32.85l-.67,6.55-.22,2.14c.1-3.66-2.74-8.68-2.74-8.68.92-1.18,1.81-2.51,2.65-3.93.93,1.15.98,3.93.98,3.93Z"/>
        <path class="cls-7" d="m185.21,32.85s2.84,5.02,2.74,8.68l-.07.74c-2.76-2.44-5.56-4.39-7.47-5.48,1.64-.8,3.31-2.03,4.8-3.94Z"/>
        <path class="cls-7" d="m187.88,42.27l-.03.23v.45s-5.78,10.51-6.25,12.06l-8.27.97c1.19-3.63,1.86-6.15,1.82-6.89-.03-.7-.87-1.16-2.2-1.45h0c1.91-1.78,6.05-10.26,6.05-10.26h0c.46-.17.93-.36,1.4-.59,1.91,1.09,4.71,3.04,7.47,5.48Z"/>
        <path class="cls-3" d="m187.23,90.16l-1.04,1.14-4.59,5.04-18.07-15.17c.62-1.4,1.23-2.79,1.82-4.18h0l21.88,13.16Z"/>
        <path class="cls-8" d="m183.89,141.67c.07.16.15.3.22.45l-8.96.77c-2.38-3.1-3.66-8.79-4.32-14.88-1.06-9.76-.55-20.53-.42-23.25l1.51-.99c1.05,1.07,2.09,2.24,3.14,3.48-2.47,9.28,3.64,24.28,8.83,34.42Z"/>
        <path class="cls-3" d="m181.6,96.35l-5.62,6.33-.82-1.05-13.2-16.96c.54-1.16,1.05-2.32,1.57-3.48l18.07,15.17Z"/>
        <path class="cls-8" d="m179.01,37.37h0s-4.14,8.49-6.05,10.26h0c-.99-.21-2.25-.34-3.66-.4l4.98-8.96h0c.83-.04,1.75-.16,2.76-.36.63-.13,1.29-.3,1.97-.54Z"/>
        <path class="cls-3" d="m169.3,47.23c1.41.06,2.66.19,3.66.41,1.33.29,2.17.75,2.2,1.45.03.74-.63,3.26-1.82,6.89l-.38.04-.52,2.63v.02c-.6,1.73-1.27,3.61-2.02,5.63-.42,1.12-.86,2.27-1.31,3.46-.48,1.24-.98,2.5-1.5,3.79-.72,1.78-1.47,3.61-2.26,5.46-.59,1.38-1.19,2.78-1.82,4.18-.52,1.16-1.04,2.32-1.57,3.48-1.07,2.32-2.18,4.61-3.3,6.82-3.27,6.43-6.71,12.23-9.99,16.19-7.37,8.9-12.36,14.96-17.15,19.93-5.73,5.96-11.15,10.38-19.93,16.28-.72-2.05-1.28-4.35-1.7-6.82,6.24-1.96,17.09-7.57,33.51-27.65,16.41-20.09,23.21-56.03,24.68-62.21h0c.42,0,.83.02,1.24.03Z"/>
        <path class="cls-3" d="m161.96,84.66l13.2,16.96-3.23,2.14-1.51.99-.85.56-2.43-3.08-2.4-3.05h0s-2.24-2.84-2.24-2.84l-3.84-4.87c1.12-2.21,2.23-4.5,3.3-6.82Z"/>
        <path class="cls-8" d="m174.28,38.27h0s-4.98,8.97-4.98,8.97c-.41-.02-.81-.03-1.24-.04-.96,0-1.96,0-2.98,0-.22,0-.46,0-.68.02l1.58-2.45,4.44-6.86.02-.12c1.07.35,2.33.54,3.85.48Z"/>
        <path class="cls-10" d="m170.43,37.79l-.02.12-4.44,6.86-2.03-11.21.35-.06c1.76,1.38,3.33,3.37,6.14,4.29Z"/>
        <path class="cls-4" d="m169.57,105.32l.85-.56c-.13,2.72-.64,13.49.42,23.25-2.4,2.53-12.3,4.39-17.36,4.2,6.04-7.38,15.17-19.59,16.09-26.89Z"/>
        <path class="cls-8" d="m167.14,102.24l2.43,3.08c-.93,7.3-10.05,19.51-16.09,26.89-3.06,3.75-5.33,6.26-5.33,6.26l-6.22-5.45c3.72-3.77,9.13-9.29,12.11-12.55,4.85-5.3,13.09-18.24,13.09-18.24Z"/>
        <path class="cls-3" d="m168.06,47.19h0c-1.47,6.19-8.27,42.13-24.68,62.22-16.41,20.08-27.26,25.69-33.51,27.65-.18-.97-.33-1.97-.46-3l.12-.02c8.15-4.37,18.39-11.07,31.6-27.29,16.58-20.4,22.26-50.52,23.93-59.41v-.15c1.02-.02,2.02-.02,2.98,0Z"/>
        <path class="cls-3" d="m164.73,99.19l2.4,3.05s-8.24,12.94-13.09,18.24c-2.98,3.26-8.4,8.78-12.11,12.55-2.33,2.36-4,4.04-4,4.04-.67-.74-1.37-1.63-2.05-2.58,0,0,27.42-27.24,28.85-35.29Z"/>
        <path class="cls-8" d="m163.95,33.56l2.03,11.21-1.58,2.45h-.16l-5.89-15.8c1.62-1.49,3.14-2.9,4.47-4.12l1.13,6.26Z"/>
        <path class="cls-3" d="m165.08,47.2v.15c-1.68,8.89-7.36,39.01-23.93,59.41-13.21,16.22-23.45,22.92-31.6,27.29l-.12.02c-.13-.99-.23-2-.33-3.03h.12c10.06-6.79,19.68-14.59,29.69-26.93,16.74-20.71,21.3-45.01,23.19-56.62v-.19c.7-.03,1.42-.06,2.14-.08l.06.16.1-.16c.22,0,.46-.02.68-.02Z"/>
        <path class="cls-3" d="m164.73,99.18h0c-1.44,8.07-28.85,35.3-28.85,35.3-.73-1.02-1.45-2.09-2.08-3.08,0,0,19.84-17.18,28.69-35.06l2.24,2.84Z"/>
        <path class="cls-8" d="m158.34,31.42l5.89,15.8c-.72.02-1.44.04-2.14.08-1.05.04-2.08.1-3.04.14l-4.98-12.06h0c1.45-1.34,2.9-2.67,4.28-3.95Z"/>
        <path class="cls-3" d="m158.66,91.48l3.84,4.87c-8.85,17.88-28.69,35.06-28.69,35.06-1.34-2.1-2.29-3.8-2.29-3.8,4.79-4.97,9.79-11.03,17.15-19.93,3.28-3.96,6.72-9.76,9.99-16.19Z"/>
        <path class="cls-3" d="m162.09,47.29v.19c-1.88,11.6-6.44,35.91-23.18,56.62-10.01,12.35-19.63,20.15-29.69,26.93h-.12c-.04-.51-.09-1.03-.12-1.55-.03-.49-.07-.98-.1-1.47,41.67-31.98,47.3-60.29,50.24-80.38l-.08-.2c.96-.04,1.99-.1,3.04-.14Z"/>
        <path class="cls-4" d="m163.26,13.22c-3.45,2.33-6.87,4.75-9.93,7.14-2.34-.8-4.73-1.79-7.41-2.67,0,0,8.14-9.43,10.44-9.76,2.61,1.47,5.05,3.25,6.91,5.29Z"/>
        <path class="cls-7" d="m134.02,77.03c.8-3.92,1.26-8.18,1.52-11.84.37-5.2.34-9.17.34-9.17l-.54-.04c2.27-4.03,4.53-7.74,6.13-9.13,1.35-1.17,3.71-3.31,6.48-5.85,3.19,1.63,3.09,6.33,5.44,6.62.7.09,2.91-.05,5.66-.2l.08.2c-2.95,20.09-8.58,48.39-50.24,80.38-.11-2.02-.16-4.07-.16-6.11,0-7.2.63-14.21,1.53-19.22.41-2.3.86-4.18,1.34-5.45.16-.44.4-.92.69-1.4,1.13-1.88,3.14-4.06,5.5-6.23,1.28-1.2,2.66-2.39,4.06-3.54,5.95-4.89,12.18-9.03,12.18-9.03Z"/>
        <path class="cls-7" d="m154.06,35.37l4.98,12.06c-2.76.15-4.96.29-5.66.2-2.35-.29-2.25-4.99-5.44-6.62,1.91-1.76,4.02-3.69,6.12-5.64Z"/>
        <path class="cls-4" d="m144.64,3.59c3.27.57,7.7,2.08,11.72,4.34-2.29.33-10.44,9.76-10.44,9.76-1.39-.46-2.86-.88-4.45-1.25-.52-3.33.4-10.57,3.17-12.85h0Z"/>
        <path class="cls-3" d="m153.33,20.36c-1.98,1.55-3.8,3.1-5.39,4.61-6.25-1.31-14.29-2.67-23.34-.9-10,1.97-21.34,13.48-30.53,22.22-7.79-.63-13.39-.76-13.39-.76,5-5.71,11.13-11.21,17.32-15.87,9.66-7.29,19.49-12.57,25.51-13.52,7.59-1.19,13.28-.74,17.96.31,1.59.36,3.06.79,4.45,1.25,2.68.88,5.07,1.87,7.41,2.67Z"/>
        <path class="cls-3" d="m147.94,24.97c-.13.12-.25.24-.37.36-.68.67-1.37,1.39-2.03,2.16-5.1-1.13-12.85-2.71-21.08-.98-8.96,1.89-18.23,12.06-26.43,20.12-1.37-.13-2.69-.24-3.95-.35,9.19-8.74,20.53-20.25,30.53-22.22,9.04-1.77,17.09-.42,23.34.9Z"/>
        <path class="cls-4" d="m144.64,3.59h0c-2.78,2.28-3.69,9.53-3.17,12.86-4.68-1.05-10.37-1.5-17.96-.31,3.42-5.48,14.24-13.1,19.32-12.77.55.03,1.16.11,1.82.22Z"/>
        <path class="cls-3" d="m145.54,27.49c-.72.81-1.43,1.67-2.12,2.58-3.97-.96-11.55-2.84-19.11-1.11-7.93,1.81-15.17,10.69-22.39,18.07-.49-.05-.99-.1-1.47-.16h0c-.82-.09-1.63-.16-2.42-.24,8.21-8.06,17.47-18.23,26.43-20.12,8.23-1.74,15.98-.16,21.08.98Z"/>
        <path class="cls-3" d="m143.42,30.07c-.66.86-1.31,1.76-1.94,2.69l-.15-.1c-2.8-.77-10.25-2.99-17.17-1.25s-12.14,9.37-18.4,16.09c-1.3-.16-2.58-.32-3.84-.47,7.22-7.38,14.46-16.26,22.39-18.07,7.56-1.73,15.14.15,19.11,1.11Z"/>
        <path class="cls-7" d="m141.34,32.66l.15.1c-4.08,5.95-7.7,13.26-10.49,20.47-6.88-2.79-16.36-4.58-25.23-5.72,6.26-6.72,11.48-14.35,18.4-16.09s14.37.48,17.17,1.25Z"/>
        <path class="cls-7" d="m135.88,56.03s.03,3.97-.34,9.17l-8.25,4.21c1.37-.98,4.72-7.54,8.04-13.42l.54.04Z"/>
        <path class="cls-7" d="m127.29,69.4l8.25-4.21c-.26,3.66-.72,7.92-1.52,11.84,0,0-6.23,4.14-12.18,9.03l.93-4.88,2.2-10.59,1.05-.54,1.26-.65Z"/>
        <path class="cls-8" d="m101.93,47.04c1.26.15,2.54.3,3.84.47,8.87,1.14,18.35,2.93,25.23,5.72-1.18,3.07-2.22,6.11-3.06,9.03h0c-2.52-2.41-18.21-10.76-27.47-15.37.48.05.98.1,1.47.16Z"/>
        <path class="cls-8" d="m98.03,46.64c.8.08,1.6.16,2.42.24h0c9.26,4.62,24.95,12.96,27.47,15.37h0c-.81,2.75-1.45,5.38-1.9,7.8l-1.05.54s-20.6-7.65-30.17-10.89c-9.57-3.23-36.2-9.45-36.2-9.45l.03-.13c1.51.37,3.19-.14,4.53-.86,1.07-.58,2.25-1.57,3.48-2.68,2.84-2.55,5.98-5.78,8.81-6.29.16,1.83.35,3.84.58,6.02l4.64-.76s5.6.13,13.39.76c1.26.1,2.59.22,3.95.35Z"/>
        <path class="cls-8" d="m124.98,70.59l-2.2,10.59c-18.25-8.83-62.7-24.07-86.54-27.22l11.91-12.88,6.51,1.06h.02c.18,5.37,1.92,7.48,3.96,7.97l-.03.13s26.63,6.22,36.2,9.45c9.56,3.24,30.17,10.89,30.17,10.89Z"/>
        <path class="cls-8" d="m122.77,81.18l-.93,4.88c-1.4,1.15-2.78,2.33-4.06,3.54-6.98-5.8-35.33-14-44.22-16.21-8.77-2.18-40.28-9.5-57.41-11.59,2.84-.48,5.93-10.1,8.75-15.49l10.42.59h0c-.04,2.36.16,4.9.91,7.08,23.85,3.15,68.29,18.39,86.54,27.22Z"/>
        <path class="cls-8" d="m117.77,89.59c-2.36,2.18-4.37,4.35-5.5,6.23-10.63-6.25-17.81-8.23-25.92-5.03-.18.07-.42.11-.68.13-6.32.4-35.72-13.21-36.17-13.43h0l-1.35-2.34-5.08.49-35.68-7.7c-7.65-8.69,1.76-20.9,3.53-21.36,1.53,11.78,3.33,15.52,5.23,15.2,17.14,2.09,48.64,9.42,57.41,11.59,8.89,2.21,37.24,10.41,44.22,16.21Z"/>
        <path class="cls-4" d="m112.28,95.83c-.29.48-.53.96-.69,1.4-.48,1.27-.93,3.15-1.34,5.45h0s-14.84-9.79-21.61-11.37c-1.08-.25-2.06-.31-2.94-.2l-.02-.18c.27-.02.5-.06.68-.13,8.11-3.2,15.3-1.22,25.92,5.03Z"/>
        <path class="cls-4" d="m110.24,102.68h0c-.9,5.01-1.54,12.02-1.53,19.22,0,0-7.53.61-12.81.84-.71.03-1.38.05-1.99.06-5.08.11-12.91,2.98-27.66,4.4,1.41-.55,2.44-1.42,3.09-2.18.28-.33.61-.94.98-1.77.56-1.29,1.21-3.09,1.89-5.14.43-1.33.89-2.78,1.35-4.24,1.42-4.63,2.82-9.52,3.73-12.23.67-2,1.43-4.06,2.41-5.81h0c1.39-2.48,3.25-4.38,5.97-4.72.88-.11,1.86-.05,2.94.2,6.77,1.58,21.61,11.37,21.61,11.37Z"/>
        <path class="cls-4" d="m108.97,129.48l-.26.02c-12.36,1.85-25.95-.53-25.95-.53,5.97-2.53,11.08-4.87,13.14-6.23,5.27-.22,12.81-.84,12.81-.84,0,2.04.05,4.09.16,6.11.03.49.06.98.1,1.47Z"/>
        <path class="cls-4" d="m93.92,122.8c.61,0,1.28-.03,1.99-.06-2.07,1.37-7.18,3.7-13.14,6.23-12.51,5.31-28.8,11.49-28.8,11.49,0,0-.38-.54-1.04-1.52-1.18-1.76-3.23-4.93-5.49-8.82-1.23-2.12-2.51-4.44-3.74-6.87-4.75-9.37-8.5.66-11.48,8.16-1.05,2.63-2.21,3.93-3.37,4.42-.04,0-.06.02-.06.02-2.14.85-4.27-1.03-5.62-2.45-1.25-1.31-2.91-6.16-4.44-10.73-1.06-3.14-2.07-6.16-2.84-7.82-.7-1.51-1.24-2.04-1.72-1.88,1.9-1.17,4.26-2.76,9.74-2.22h0c2.4,3.8,3.68,3.06,4.88.38,1.31-2.95-2.85-9.85-4.4-14.78-1.55-4.94,5.96-1.03,8.91,3.67,1.32,4.7,11.91,17.22,20.46,23.8,5.63,4.34,9.79,4.44,12.51,3.37,14.75-1.42,22.58-4.29,27.66-4.4Z"/>
        <path class="cls-4" d="m76.07,21.7c.49-.24,1.2-.22,2.28.1,2.98.89,18.1,6.55,19.64,7.86-6.19,4.67-12.32,10.17-17.32,15.87l-4.64.76c-.22-2.18-.42-4.18-.58-6.02-.16-1.8-.29-3.43-.41-4.91-.16-2.25-.27-4.14-.31-5.71-.07-2.06-.03-3.55.09-4.55.21-1.76.37-2.98,1.25-3.41Z"/>
        <path class="cls-7" d="m85.67,90.92l.02.18c-2.72.34-4.58,2.24-5.97,4.72h0c-2.01-.03-9.96.48-19.26,1.26l-.06-.74-10.88-18.85c.45.22,29.85,13.83,36.17,13.43Z"/>
        <path class="cls-7" d="m60.44,97.09c9.3-.79,17.25-1.3,19.26-1.26-.99,1.76-1.75,3.81-2.41,5.81-.91,2.71-2.31,7.61-3.73,12.23h0c-7.56,1.12-17.05-8.46-23.01-15.87.8-.08,1.58-.16,2.38-.23,2.54-.24,5.08-.47,7.51-.67Z"/>
        <path class="cls-3" d="m75.05,35.36c.11,1.48.24,3.11.41,4.91-2.83.51-5.97,3.74-8.81,6.29l-.25-.28-2.72-1.88c3.76-5.17,8.85-8.65,11.38-9.04Z"/>
        <path class="cls-3" d="m76.07,21.7c-.87.42-1.04,1.64-1.25,3.41-.12.99-.16,2.49-.09,4.55h-.03c-5.83,3.22-11.1,7.82-14.33,12.49l-5.6-3.86c1.51-6.28,16.43-16.07,21.3-16.58Z"/>
        <path class="cls-3" d="m74.74,29.66c.04,1.57.15,3.46.31,5.71-2.53.4-7.62,3.87-11.38,9.04l-3.29-2.27c3.23-4.67,8.5-9.27,14.33-12.49h.03Z"/>
        <path class="cls-3" d="m73.57,113.87c-.46,1.46-.92,2.91-1.35,4.24h0c-9.12,1.38-20.67-10.88-27.2-19.54,1.82-.2,3.67-.39,5.54-.57,5.96,7.41,15.45,17,23.01,15.87h0Z"/>
        <path class="cls-3" d="m72.21,118.11h0c-.68,2.05-1.33,3.85-1.89,5.14-10.7-.1-23.54-13.47-30.73-24.06,1.74-.21,3.55-.42,5.41-.61,6.53,8.66,18.08,20.92,27.2,19.54Z"/>
        <path class="cls-3" d="m70.32,123.25c-.36.83-.7,1.44-.98,1.77-.65.76-1.68,1.63-3.09,2.18-2.72,1.07-6.88.97-12.51-3.37-8.54-6.58-19.13-19.11-20.46-23.8,1.91-.29,4.04-.56,6.3-.84,7.19,10.59,20.03,23.97,30.73,24.06Z"/>
        <path class="cls-8" d="m66.4,46.29l.25.28c-1.24,1.12-2.41,2.1-3.48,2.68-1.34.73-3.02,1.24-4.53.86-2.04-.49-3.78-2.6-3.96-7.97-.03-1.13,0-2.42.1-3.86l5.6,3.86,3.29,2.27,2.72,1.88Z"/>
        <path class="cls-4" d="m60.38,96.35l.06.74c-2.44.21-4.97.43-7.51.67l-16.7-21.45,6.84-.67,5.08-.49,1.35,2.34h0l10.88,18.85Z"/>
        <path class="cls-4" d="m36.23,76.31l16.7,21.45c-.8.08-1.58.16-2.38.23-1.87.18-3.73.37-5.54.57-1.86.2-3.67.41-5.41.61-2.27.28-4.39.55-6.3.84-2.95-4.7-10.45-8.61-8.91-3.67,1.55,4.93,5.71,11.83,4.4,14.78-1.19,2.68-2.47,3.42-4.88-.38h0c-.25-.39-.51-.84-.79-1.33-2.92-5.27-8.48-25.69-8.59-29.48,0,0,5.59,6.4,6.85,10.38,0,0,1.32,1.18,2.54-.15,1.21-1.32,8.27-9.2,7.9-9.79-.36-.59-10.52-6.7-10.52-6.7,0,0-1.62-1.15-6.02,5.15-.94-.58-7.89-10.89-7.89-10.89l35.68,7.7-6.84.67Z"/>
        <path class="cls-4" d="m52.93,138.94c-4.78,1.69-10.89-3.67-13.28-5.96,3.48-1.01,6.72-2.09,7.79-2.86,2.26,3.89,4.31,7.06,5.49,8.82Z"/>
        <path class="cls-8" d="m48.14,41.08l-11.91,12.88c-.74-2.18-.95-4.72-.91-7.08.07-4.16.91-7.75.91-7.75l11.91,1.95Z"/>
        <path class="cls-4" d="m43.7,123.25c1.23,2.43,2.51,4.76,3.74,6.87-1.07.77-4.31,1.85-7.79,2.86-4.85,1.41-10.18,2.7-10.8,2.84,1.16-.48,2.33-1.79,3.37-4.42,2.98-7.51,6.74-17.54,11.48-8.16Z"/>
        <path class="cls-4" d="m31.81,80.38c.37.59-6.69,8.46-7.9,9.79-1.22,1.32-2.54.15-2.54.15,0,0,1.25-13.32-.08-16.64,0,0,10.16,6.11,10.52,6.7Z"/>
        <path class="cls-8" d="m16.14,61.79c-1.9.32-3.7-3.42-5.23-15.2l13.98-.29c-2.82,5.4-5.91,15.01-8.75,15.49Z"/>
        <path class="cls-4" d="m21.29,73.68c1.33,3.31.08,16.64.08,16.64-1.25-3.98-6.85-10.38-6.85-10.38.26-.39.51-.76.75-1.11,4.4-6.3,6.02-5.15,6.02-5.15Z"/>
        <path class="cls-4" d="m18.72,122.67h0c-1.99.45-6.03-2.63-6.91-4.45.9-2.74,1.54-4.98,2.36-5.25.48-.16,1.02.37,1.72,1.88.77,1.66,1.77,4.68,2.84,7.82Z"/>
      </g>
      <g>
        <path class="cls-2" d="m154.06,35.37c-2.1,1.95-4.21,3.88-6.12,5.64-2.77,2.53-5.13,4.68-6.48,5.85-1.6,1.39-3.86,5.1-6.13,9.13-3.32,5.88-6.67,12.44-8.04,13.42"/>
        <path class="cls-2" d="m126.03,70.05c.45-2.42,1.09-5.05,1.9-7.8.84-2.91,1.88-5.96,3.06-9.03,2.78-7.2,6.41-14.52,10.49-20.47.63-.93,1.28-1.83,1.94-2.69.69-.91,1.4-1.76,2.12-2.58.67-.77,1.35-1.49,2.03-2.16.12-.12.24-.24.37-.36,1.58-1.51,3.41-3.06,5.39-4.61,3.06-2.4,6.48-4.81,9.93-7.14,2.19-1.48,4.38-2.93,6.49-4.33,6.42-4.25,12.1-8.39,15.01-8.39,6.43,0,14.79.9,11.43,9.75-.09.23-.32.42-.61.55-.44.21-.99.24-1.28,0-1.87-1.12-3.48-3.49-4.54-6.1-2.03,1.1-4.31.95-4.31.95-3.69,4.06-20.03,19.26-21.34,20.46-.42.37-.85.78-1.31,1.2-1.33,1.22-2.85,2.63-4.47,4.12-1.38,1.28-2.83,2.61-4.28,3.94"/>
        <polyline class="cls-2" points="162.81 27.3 163.95 33.56 165.98 44.77"/>
        <polyline class="cls-2" points="170.41 37.91 165.98 44.77 164.4 47.22 164.29 47.37"/>
        <path class="cls-2" d="m164.29,33.5c1.76,1.38,3.33,3.37,6.14,4.29,1.07.35,2.33.54,3.85.48.83-.03,1.75-.15,2.76-.35.63-.13,1.29-.3,1.97-.54.46-.16.93-.35,1.4-.58,1.64-.8,3.31-2.03,4.8-3.94.92-1.18,1.81-2.51,2.65-3.93.03-.04.06-.09.09-.14.82-1.39,1.61-2.87,2.33-4.37,1.86-3.8,3.38-7.69,4.39-10.66.38-1.13.69-2.14.93-2.95h0"/>
        <polyline class="cls-2" points="158.34 31.41 158.34 31.42 164.23 47.22 164.29 47.37"/>
        <polyline class="cls-2" points="174.28 38.28 169.3 47.23 169.29 47.24"/>
        <path class="cls-2" d="m172.96,47.63c1.91-1.77,6.05-10.25,6.05-10.25"/>
        <polyline class="cls-2" points="154.06 35.36 154.06 35.37 159.04 47.43 159.12 47.63"/>
        <path class="cls-2" d="m172.43,58.67c-.59,1.73-1.26,3.61-2.01,5.63-.42,1.12-.86,2.27-1.31,3.46-.48,1.24-.98,2.5-1.5,3.79-.72,1.78-1.47,3.61-2.26,5.46-.59,1.38-1.19,2.78-1.82,4.18-.52,1.16-1.04,2.32-1.57,3.48-1.07,2.32-2.18,4.61-3.3,6.82-3.27,6.43-6.71,12.23-9.99,16.19-7.37,8.9-12.36,14.96-17.15,19.93-5.73,5.96-11.15,10.38-19.93,16.28-.72-2.05-1.28-4.35-1.7-6.82-.18-.97-.33-1.97-.46-3-.13-.99-.23-2-.33-3.03-.04-.52-.09-1.04-.12-1.56-.03-.49-.07-.98-.1-1.47-.11-2.02-.16-4.07-.16-6.11,0-7.2.63-14.21,1.53-19.22.41-2.3.86-4.18,1.34-5.45.16-.44.4-.92.69-1.4,1.13-1.88,3.14-4.06,5.5-6.23,1.28-1.2,2.66-2.39,4.06-3.54,5.95-4.89,12.18-9.03,12.18-9.03"/>
        <path class="cls-2" d="m147.94,41.01c3.19,1.63,3.09,6.33,5.44,6.62.7.09,2.91-.05,5.66-.2.96-.04,1.99-.1,3.04-.14.71-.03,1.43-.06,2.14-.08h.16c.22,0,.46-.02.68-.02,1.02-.02,2.02-.02,2.98,0,.42,0,.83.03,1.24.04,1.41.06,2.66.19,3.66.41,1.33.29,2.17.75,2.2,1.45.03.74-.63,3.26-1.82,6.89-.27.84-.57,1.73-.9,2.67"/>
        <path class="cls-2" d="m135.88,56.03s.03,3.97-.34,9.17c-.26,3.66-.72,7.92-1.52,11.84-.42,2.01-.93,3.93-1.54,5.63-3.54,9.71-8.98,18.98-8.98,18.98"/>
        <path class="cls-2" d="m159.12,47.63c-2.95,20.09-8.58,48.39-50.24,80.38"/>
        <path class="cls-2" d="m162.1,47.48c-1.88,11.6-6.45,35.91-23.19,56.62-10.01,12.35-19.63,20.15-29.69,26.93"/>
        <path class="cls-2" d="m165.08,47.35c-1.68,8.89-7.36,39.01-23.93,59.41-13.21,16.22-23.45,22.92-31.6,27.29"/>
        <path class="cls-2" d="m168.06,47.2c-1.47,6.18-8.27,42.12-24.68,62.21-16.41,20.08-27.26,25.69-33.51,27.65h0"/>
        <path class="cls-2" d="m178.47,19.06c1.22,0,3.75.2,3.86,1.3"/>
        <path class="cls-2" d="m187.85,23.73c1.05,0,2.65.24,2.42.68"/>
        <path class="cls-2" d="m186.5,19.48c-.73,1.95-1.19,7.28-2.96,8.9-1.77,1.62-1.74,1.7-3.13.23,0,0-.7-.86-.78-1.35"/>
        <polyline class="cls-2" points="179.01 32.25 177.22 32.85 177.67 33.87"/>
        <path class="cls-2" d="m205.76,79.49c1.88.55,4.14,1.19,6.56,1.87,1.16.32,2.35.64,3.55.97,8.46,2.29,17.43,4.54,18.23,4.31"/>
        <path class="cls-2" d="m180.41,36.79c1.91,1.09,4.71,3.04,7.47,5.48,0,0,0,0,.02.02.33.29.66.58.99.88.8.75,1.59,1.54,2.35,2.36,1.77,1.92,3.33,3.99,4.36,6.07.26.52.53,1.08.8,1.69.47,1.01.95,2.13,1.44,3.32,1.9,4.63,3.88,10.43,4.95,15.61.29,1.43.52,2.8.65,4.1.09.88.14,1.72.14,2.52.65.2,1.38.42,2.19.66"/>
        <polygon class="cls-2" points="172.44 58.66 172.96 56.03 173.34 55.98 181.6 55.02 196.39 53.29 196.39 59.69 172.42 58.73 172.43 58.67 172.44 58.66"/>
        <polyline class="cls-2" points="196.39 59.69 196.54 60.03 196.97 67.94 170.41 64.3"/>
        <polyline class="cls-2" points="196.97 67.94 195.59 75.15 169.57 67.94"/>
        <polyline class="cls-2" points="167.61 71.55 192.07 83.4 192.19 83.45 195.59 75.15"/>
        <polyline class="cls-2" points="165.36 77 187.23 90.16 191.99 83.58"/>
        <polyline class="cls-2" points="163.53 81.18 181.6 96.35 186.19 91.31 187.23 90.16"/>
        <polyline class="cls-2" points="161.96 84.66 175.16 101.62 175.98 102.68 181.6 96.35"/>
        <polyline class="cls-2" points="164.73 99.19 167.14 102.24 169.57 105.32 170.41 104.76 171.93 103.76 175.16 101.62"/>
        <polyline class="cls-2" points="158.66 91.48 162.49 96.35 164.73 99.18"/>
        <path class="cls-2" d="m167.14,102.24s-8.24,12.94-13.09,18.24c-2.98,3.26-8.4,8.78-12.11,12.55-2.33,2.36-4,4.04-4,4.04-.67-.74-1.37-1.63-2.05-2.58-.73-1.02-1.45-2.09-2.08-3.08-1.34-2.1-2.29-3.8-2.29-3.8"/>
        <path class="cls-2" d="m133.81,131.41s19.84-17.18,28.69-35.06"/>
        <path class="cls-2" d="m135.88,134.49s27.42-27.24,28.85-35.29h0"/>
        <path class="cls-2" d="m141.93,133.02l6.22,5.45s2.27-2.51,5.33-6.26c6.04-7.38,15.17-19.59,16.09-26.89"/>
        <path class="cls-2" d="m170.41,104.76c-.13,2.72-.64,13.49.42,23.25.67,6.09,1.95,11.79,4.32,14.88l8.96-.77c-.08-.15-.16-.29-.22-.45-5.19-10.14-11.3-25.14-8.83-34.42.03-.11.06-.23.1-.35"/>
        <path class="cls-2" d="m183.89,141.67l6.94-1.21s-9.1-14.46-8.77-23.12"/>
        <path class="cls-2" d="m190.84,140.46l6.99-1.99c-2.97-4.75-5.05-8.12-6.59-10.97-1.5-2.79-2.48-5.09-3.3-7.72"/>
        <path class="cls-2" d="m185.23,120.57c2.82-1.84,8.1-5.93,13.17-10.51,5.46-4.93,10.7-10.42,12.32-14.24.08-.17.14-.35.2-.51-1.17-.23-2.29-.45-3.38-.66-1.39-.26-2.72-.5-3.98-.73-1.52-.27-2.94-.52-4.25-.73-8.69-1.46-13.12-1.88-13.12-1.88"/>
        <path class="cls-2" d="m171.93,103.76c1.05,1.07,2.09,2.24,3.14,3.48,1.05,1.26,2.09,2.6,3.1,4.01.61.85,1.21,1.72,1.79,2.61.73,1.12,1.44,2.28,2.12,3.46h0c.73,1.3,1.42,2.6,2.05,3.93.3-.17.67-.4,1.1-.67"/>
        <path class="cls-2" d="m199.31,93.19c-3.61,4.33-15.54,16.01-20.95,17.93"/>
        <path class="cls-2" d="m179.95,113.87c6.4-3.77,17.56-10.44,23.61-19.94"/>
        <path class="cls-2" d="m182.07,117.33c6.04-3.62,21.64-13.53,25.47-22.67"/>
        <path class="cls-2" d="m185.22,120.58s0,0,.02,0c.13-.03,1.15-.33,2.7-.8,1.4-.42,3.22-.99,5.19-1.66,2.01-.68,4.17-1.46,6.19-2.27,1.23-.5,2.4-1,3.46-1.51,1.18-.56,2.2-1.12,3.01-1.69.67-.45,1.19-.9,1.5-1.33"/>
        <polyline class="cls-2" points="198.4 110.07 207.27 111.31 211.8 111.94 211.93 108.11 212.06 104.27 212.18 100.44 212.32 95.83 210.72 95.83"/>
        <path class="cls-2" d="m212.32,100.44c5.89-1.71,32.66-11.15,45.13-23.51"/>
        <path class="cls-2" d="m212.15,104.27c3.93-1.14,31.71-10.47,47.6-24.56"/>
        <path class="cls-2" d="m211.98,108.11c1.96-.57,30.76-9.81,50.07-25.62"/>
        <path class="cls-2" d="m226.29,106.57c2.87-1.19,6.04-2.59,9.39-4.17,9.01-4.26,19.29-9.93,28.45-16.96.08-.06.15-.11.22-.17"/>
        <path class="cls-2" d="m223.96,107.53c.74-.3,1.52-.61,2.32-.95"/>
        <path class="cls-2" d="m211.8,111.94s4.86-1.49,12.15-4.42"/>
        <path class="cls-2" d="m237.01,109.94c-1.39-2.84-1.76-6.31-1.33-7.53"/>
        <path class="cls-2" d="m251.77,71.25s.13.1.35.29c.87.72,3.24,2.73,5.68,5.21.79.8,1.58,1.65,2.33,2.52.85.99,1.64,1.99,2.31,2.97.75,1.11,1.34,2.19,1.68,3.2.29.88.39,1.71.22,2.44-5.45,7.58-23.69,24.95-24.65,25.39-1.13-.75-2.02-1.96-2.68-3.31"/>
        <path class="cls-2" d="m205.78,112.64s8.46,11.59,10.82,12.25c2.35.66,5.74-1.39,8.09-3.64,4.26-4.09,5.89-9.04,6.1-9.94.22-.92-5.2-3.48-6.83-3.79h0"/>
        <path class="cls-2" d="m202.77,114.33l10.44,12.26c2.43-1.18,3.39-1.69,3.39-1.69"/>
        <polyline class="cls-2" points="199.31 115.84 199.31 115.84 208.42 127.84 209.68 129.5 213.21 126.59"/>
        <path class="cls-2" d="m193.12,118.11s2.32,3.49,4.49,6.3c1.31,1.69,2.57,3.15,3.23,3.42,1.77.73,6.4.73,7.58,0"/>
        <line class="cls-2" x1="191.43" y1="127.4" x2="197.61" y2="124.41"/>
        <path class="cls-2" d="m236.78,75.96c7.88-2.29,14.58-4.18,15.35-4.41"/>
        <path class="cls-2" d="m215.88,82.32c5.53-1.82,13.66-4.25,20.83-6.34"/>
        <path class="cls-2" d="m212.32,81.35l22.57-17.79.61-.48c1.87,6.61,2.26,12.32,1.27,12.87-.02,0-.04.02-.07.03"/>
        <line class="cls-2" x1="231.79" y1="58.28" x2="234.89" y2="63.57"/>
        <path class="cls-2" d="m223.95,55.51s-.04.06-.07.1c-1.76,2.32-15.21,14.3-21.11,16.61"/>
        <path class="cls-2" d="m228.15,55.89c-3.33,5.23-17.22,16.46-24.72,20.42"/>
        <path class="cls-2" d="m153.48,132.21c5.06.19,14.96-1.67,17.36-4.2"/>
        <path class="cls-2" d="m197.82,56.61h0c4.95-.31,11.16-.86,17.6-1.04,1.95-.05,3.92-.07,5.87-.04.86.02,1.73.03,2.59.08,1.44.06,2.86.15,4.26.29,1.58.15,3.13.35,4.63.61"/>
        <path class="cls-2" d="m211.36,32.32c1.41.3,2.48,1.27,1.39,4.47-.12.35-.26.72-.43,1.12-.12.28-.27.61-.45.99-.36.77-.86,1.73-1.44,2.8-.54,1.01-1.18,2.12-1.88,3.27-3.1,5.13-7.38,10.96-10.73,11.63"/>
        <path class="cls-2" d="m185.21,32.85s2.84,5.02,2.74,8.68c0,.27-.02.52-.05.76-.02.08-.03.15-.04.22l.03-.23.07-.74.22-2.14.67-6.55s4.84-.2,10-.37c5.41-.18,11.19-.34,12.09-.22.15.02.29.04.43.07"/>
        <path class="cls-2" d="m191.24,45.53s14.79-2.01,17.33-.55c0,0,0,0,0,0"/>
        <path class="cls-2" d="m189.08,42.95c4.7-1.52,17.2-2.08,21.36-1.25"/>
        <path class="cls-2" d="m188.17,39.39c4.72-1.84,20.24-2,23.7-.48"/>
        <path class="cls-2" d="m212.76,36.79s1.28-.02,2.67.31c.69.17,1.41.42,2.01.81,2.78,1.8,8.99,3.41,14.57,12.81,1.57,2.65.88,4.63.77,5.78-.2.54-.54,1.14-.99,1.79-4.44,6.27-20.03,17.03-26.03,21.2h0"/>
        <path class="cls-2" d="m215.43,37.11s5.65,13.19,5.87,18.4"/>
        <path class="cls-2" d="m212.32,37.91c2.2,5.89,3.93,14.63,3.1,17.66"/>
        <path class="cls-2" d="m194.67,13.76s12.67,10.01,16.69,18.56h0"/>
        <path class="cls-2" d="m100.46,46.88c.48.05.98.1,1.47.16,1.26.15,2.54.3,3.84.47,8.87,1.14,18.35,2.93,25.23,5.72.05.02.1.04.16.06"/>
        <path class="cls-2" d="m153.33,20.36c-2.34-.8-4.73-1.79-7.41-2.67-1.39-.46-2.86-.88-4.45-1.25-4.68-1.05-10.37-1.5-17.96-.31-6.02.95-15.85,6.23-25.51,13.52-6.19,4.67-12.32,10.17-17.32,15.87,0,0,5.6.13,13.39.76,1.26.1,2.59.22,3.95.35.8.08,1.6.16,2.42.24"/>
        <path class="cls-2" d="m105.76,47.5c6.26-6.72,11.48-14.35,18.4-16.09s14.37.48,17.17,1.25"/>
        <path class="cls-2" d="m101.87,47.1s.04-.04.05-.06c7.22-7.38,14.46-16.26,22.39-18.07,7.56-1.73,15.14.15,19.11,1.11.04,0,.08.02.11.03"/>
        <path class="cls-2" d="m97.97,46.69l.05-.05c8.21-8.06,17.47-18.23,26.43-20.12,8.23-1.74,15.98-.16,21.08.98.07.02.13.03.2.04"/>
        <path class="cls-2" d="m94.07,46.29c9.19-8.74,20.53-20.25,30.53-22.22,9.04-1.77,17.09-.42,23.34.9"/>
        <path class="cls-2" d="m100.45,46.88h0c9.26,4.62,24.95,12.96,27.47,15.37"/>
        <path class="cls-2" d="m80.68,45.53l-4.64.76c-.22-2.18-.42-4.18-.58-6.02-.16-1.8-.29-3.43-.41-4.91-.16-2.25-.27-4.14-.31-5.71-.07-2.06-.03-3.55.09-4.55.21-1.76.37-2.98,1.25-3.41.49-.24,1.2-.22,2.28.1,2.98.89,18.1,6.55,19.64,7.86"/>
        <path class="cls-2" d="m123.51,16.13c3.42-5.48,14.24-13.1,19.32-12.77.55.03,1.16.11,1.82.22,3.27.57,7.7,2.08,11.72,4.34,2.61,1.47,5.05,3.25,6.91,5.29"/>
        <path class="cls-2" d="m141.47,16.44c-.52-3.33.4-10.57,3.17-12.85"/>
        <path class="cls-2" d="m145.92,17.69s8.14-9.43,10.44-9.76"/>
        <path class="cls-2" d="m188.83,32.85s-.05-2.78-.98-3.93"/>
        <path class="cls-2" d="m188.17,28.92c2.27-.16,9.11.93,10.66,3.55"/>
        <path class="cls-2" d="m79.7,95.83c-.99,1.76-1.75,3.81-2.41,5.81-.91,2.71-2.31,7.61-3.73,12.23-.46,1.46-.92,2.91-1.35,4.24-.68,2.05-1.33,3.85-1.89,5.14-.36.83-.7,1.44-.98,1.77-.65.76-1.68,1.63-3.09,2.18-2.72,1.07-6.88.97-12.51-3.37-8.54-6.58-19.13-19.11-20.46-23.8,1.91-.29,4.04-.56,6.3-.84,1.74-.21,3.55-.42,5.41-.61,1.82-.2,3.67-.39,5.54-.57.8-.08,1.58-.16,2.38-.23,2.54-.24,5.08-.47,7.51-.67,9.3-.79,17.25-1.3,19.26-1.26"/>
        <line class="cls-2" x1="79.7" y1="95.83" x2="79.71" y2="95.83"/>
        <path class="cls-2" d="m110.24,102.68s-14.84-9.79-21.61-11.37c-1.08-.25-2.06-.31-2.94-.2-2.72.34-4.58,2.24-5.97,4.72"/>
        <path class="cls-2" d="m39.59,99.18c7.19,10.59,20.03,23.97,30.73,24.06"/>
        <path class="cls-2" d="m45.01,98.57c6.53,8.66,18.08,20.92,27.2,19.54"/>
        <path class="cls-2" d="m50.55,98c5.96,7.41,15.45,17,23.01,15.87"/>
        <path class="cls-2" d="m66.26,127.2c14.75-1.42,22.58-4.29,27.66-4.4.61,0,1.28-.03,1.99-.06,5.27-.22,12.81-.84,12.81-.84"/>
        <path class="cls-2" d="m28.79,135.84c-2.14.85-4.27-1.03-5.62-2.45-1.25-1.31-2.91-6.16-4.44-10.73-1.06-3.14-2.07-6.16-2.84-7.82-.7-1.51-1.24-2.04-1.72-1.88-.82.27-1.46,2.51-2.36,5.25.88,1.82,4.92,4.9,6.91,4.45"/>
        <path class="cls-2" d="m95.91,122.74c-2.07,1.37-7.18,3.7-13.14,6.23-12.51,5.31-28.8,11.49-28.8,11.49,0,0-.38-.54-1.04-1.52-1.18-1.76-3.23-4.93-5.49-8.82-1.23-2.12-2.51-4.44-3.74-6.87-4.75-9.37-8.5.66-11.48,8.16-1.05,2.63-2.21,3.93-3.37,4.42"/>
        <path class="cls-2" d="m82.77,128.97s13.58,2.38,25.95.53"/>
        <path class="cls-2" d="m28.79,135.84s.02,0,.06-.02c.62-.15,5.95-1.44,10.8-2.84,3.48-1.01,6.72-2.09,7.79-2.86"/>
        <path class="cls-2" d="m39.65,132.98c2.4,2.29,8.5,7.64,13.28,5.96"/>
        <path class="cls-2" d="m76.1,21.7h-.03c-4.87.5-19.78,10.3-21.3,16.58l5.6,3.86,3.29,2.27,2.72,1.88"/>
        <path class="cls-2" d="m75.46,40.27c-2.83.51-5.97,3.74-8.81,6.29-1.24,1.12-2.41,2.1-3.48,2.68-1.34.73-3.02,1.24-4.53.86-2.04-.49-3.78-2.6-3.96-7.97-.03-1.13,0-2.42.1-3.86"/>
        <path class="cls-2" d="m60.38,42.14c3.23-4.67,8.5-9.27,14.33-12.49"/>
        <path class="cls-2" d="m63.67,44.41c3.76-5.17,8.85-8.65,11.38-9.04"/>
        <path class="cls-2" d="m58.61,50.24s26.63,6.22,36.2,9.45c9.56,3.24,30.17,10.89,30.17,10.89l1.05-.54,1.26-.65,8.25-4.21"/>
        <path class="cls-2" d="m124.98,70.59l-2.2,10.59c-18.25-8.83-62.7-24.07-86.54-27.22-.74-2.18-.95-4.72-.91-7.08.07-4.16.91-7.75.91-7.75l11.91,1.95,6.51,1.06"/>
        <line class="cls-2" x1="48.14" y1="41.08" x2="36.23" y2="53.96"/>
        <path class="cls-2" d="m35.31,46.88l-10.42-.59c-2.82,5.4-5.91,15.01-8.75,15.49-1.9.32-3.7-3.42-5.23-15.2l13.98-.29"/>
        <path class="cls-2" d="m15.44,61.7c.23.03.47.05.7.09,17.14,2.09,48.64,9.42,57.41,11.59,8.89,2.21,37.24,10.41,44.22,16.21"/>
        <polyline class="cls-2" points="49.49 77.5 48.14 75.15 43.07 75.65 36.23 76.31 52.93 97.76"/>
        <line class="cls-2" x1="60.38" y1="96.35" x2="49.5" y2="77.5"/>
        <path class="cls-2" d="m23.9,110.74c-.25-.39-.51-.84-.79-1.33-2.92-5.27-8.48-25.69-8.59-29.48.26-.39.51-.76.75-1.11,4.4-6.3,6.02-5.15,6.02-5.15,1.33,3.31.08,16.64.08,16.64-1.25-3.98-6.85-10.38-6.85-10.38"/>
        <path class="cls-2" d="m33.29,100.02c-2.95-4.7-10.45-8.61-8.91-3.67,1.55,4.93,5.71,11.83,4.4,14.78-1.19,2.68-2.47,3.42-4.88-.38"/>
        <path class="cls-2" d="m21.29,73.68s10.16,6.11,10.52,6.7c.37.59-6.69,8.46-7.9,9.79-1.22,1.32-2.54.15-2.54.15"/>
        <path class="cls-2" d="m43.07,75.65l-35.68-7.7s6.94,10.31,7.89,10.89"/>
        <path class="cls-2" d="m112.28,95.83c-10.63-6.25-17.81-8.23-25.92-5.03-.18.07-.42.11-.68.13-6.32.4-35.72-13.21-36.17-13.43h0"/>
        <path class="cls-2" d="m187.85,42.95s-5.78,10.51-6.25,12.06"/>
        <line class="cls-2" x1="121.84" y1="86.06" x2="122.77" y2="81.18"/>
        <path class="cls-2" d="m226.28,106.57h0c.37.08,9.95,2.14,10.72,3.36,0,0,0,0,0,.02"/>
        <path class="cls-2" d="m10.91,46.59c-1.76.46-11.18,12.67-3.53,21.36"/>
        <path class="cls-2" d="m14.16,112.96c1.9-1.17,4.26-2.76,9.74-2.22h0"/>
      </g>
    </g>
    <ellipse class="cls-6" cx="191.27" cy="12.81" rx="1.03" ry="1.62" transform="translate(133.19 195.5) rotate(-76.2)"/>
    <ellipse class="cls-6" cx="184.45" cy="11.01" rx="1.03" ry="1.62" transform="translate(129.74 187.5) rotate(-76.2)"/>
  </g>
</svg>