<?xml version="1.0" encoding="UTF-8"?>
<svg id="_レイヤー_1" data-name="レイヤー 1" xmlns="http://www.w3.org/2000/svg" viewBox="0 0 267.22 147.81">
  <defs>
    <style>
      .cls-1 {
        fill: #f2e680;
      }

      .cls-1, .cls-2, .cls-3, .cls-4, .cls-5, .cls-6 {
        stroke-width: 0px;
      }

      .cls-2 {
        fill: #df5f42;
      }

      .cls-7 {
        fill: none;
        stroke: #000;
        stroke-linecap: round;
        stroke-linejoin: round;
      }

      .cls-3 {
        fill: #333;
      }

      .cls-4 {
        fill: #7bbcc0;
      }

      .cls-5 {
        fill: #fffbe2;
      }

      .cls-6 {
        fill: #fae7c9;
      }
    </style>
  </defs>
  <g>
    <g>
      <path class="cls-2" d="m238.63,112.54c-1.41-2.91-1.8-6.45-1.35-7.69,9.22-4.37,19.76-10.17,29.14-17.38.3.9.4,1.75.23,2.5-5.58,7.76-24.27,25.54-25.25,25.99-1.17-.78-2.09-2.03-2.76-3.42Z"/>
      <path class="cls-1" d="m264.69,84.21c.76,1.12,1.37,2.24,1.72,3.27-9.38,7.21-19.91,13.01-29.14,17.38-3.43,1.62-6.68,3.05-9.62,4.27-.81.34-1.61.66-2.37.97-7.46,2.99-12.44,4.52-12.44,4.52l.12-3.92h.05c2.01-.58,31.49-10.03,51.27-26.23l.41-.25Z"/>
      <path class="cls-1" d="m264.69,84.21l-.41.25c-19.78,16.2-49.26,25.65-51.27,26.23h-.05l.13-3.92h.1c4.02-1.17,32.46-10.73,48.74-25.15l.4-.45c.87,1,1.68,2.03,2.36,3.05Z"/>
      <path class="cls-1" d="m262.33,81.16l-.4.45c-16.28,14.42-44.72,23.98-48.74,25.15h-.1l.12-3.94h.15c6.02-1.74,33.43-11.4,46.2-24.06l.35-.19c.81.82,1.63,1.69,2.4,2.59Z"/>
      <path class="cls-4" d="m208.47,96.92c-1.43-.27-2.78-.52-4.06-.75-1.55-.27-3-.53-4.36-.76-8.9-1.49-13.44-1.93-13.44-1.93l1.06-1.17,4.87-6.74.09-.19.12.05,3.5-8.5,1.4-7.38-.43-8.1-.15-.34v-6.57c.47,1.04.97,2.18,1.47,3.4,1.95,4.75,3.98,10.69,5.07,15.99.3,1.46.53,2.87.66,4.2.09.9.14,1.76.14,2.58.66.2,1.41.42,2.23.66,1.93.57,4.25,1.22,6.74,1.91h0c1.19.33,2.41.66,3.65,1,5.66-1.88,13.98-4.35,21.31-6.49h0c8.07-2.36,14.94-4.3,15.77-4.55h0c.9.75,3.33,2.81,5.81,5.33l-.35.19c-12.77,12.66-40.18,22.33-46.2,24.07h-.15s.15-4.73.15-4.73h-1.64c.08-.18.14-.35.2-.52-1.2-.24-2.35-.46-3.47-.66Z"/>
      <path class="cls-2" d="m237.1,64.58c1.95,6.91,2.33,12.85,1.24,13.22h0c-7.33,2.14-15.65,4.61-21.31,6.49-1.24-.34-2.46-.67-3.65-1l23.09-18.21.64-.5Z"/>
      <path class="cls-2" d="m237.27,104.85c-.44,1.25-.05,4.78,1.35,7.69-.83-1.28-10.98-3.43-10.98-3.43,2.95-1.22,6.2-2.65,9.62-4.27Z"/>
      <path class="cls-4" d="m236.47,65.07l-23.09,18.21h0c-2.49-.69-4.81-1.35-6.74-1.91,6.14-4.26,22.12-15.28,26.66-21.71l3.18,5.41Z"/>
      <path class="cls-2" d="m225.2,56.93c-.88-.04-1.75-.07-2.64-.08v-.02c-.23-5.26-5.83-18.43-6-18.84.7.17,1.43.43,2.05.82,2.85,1.84,9.21,3.49,14.92,13.1,1.61,2.72.9,4.75.79,5.91-1.53-.27-3.12-.47-4.74-.62-1.43-.13-2.89-.23-4.37-.28Z"/>
      <path class="cls-1" d="m234.31,57.83c-.2.56-.55,1.17-1.02,1.83-4.53,6.43-20.52,17.45-26.66,21.71-.82-.24-1.58-.46-2.23-.66,0-.81-.05-1.67-.14-2.58,7.68-4.06,21.89-15.56,25.31-20.92,1.62.15,3.2.35,4.74.62Z"/>
      <path class="cls-4" d="m225.28,110.09c1.66.3,7.22,2.93,7,3.87-.23.93-1.89,5.99-6.26,10.18-2.4,2.3-5.88,4.41-8.29,3.73s-11.08-12.54-11.08-12.54c.69-.47,1.22-.93,1.53-1.37l4.65.65s4.98-1.52,12.44-4.52Z"/>
      <path class="cls-1" d="m225.2,56.93c1.48.05,2.94.15,4.37.28-3.42,5.36-17.64,16.86-25.31,20.92-.13-1.33-.36-2.74-.66-4.2,6.03-2.37,19.8-14.64,21.6-17.01Z"/>
      <path class="cls-4" d="m222.56,56.85c.89,0,1.76.04,2.64.08-1.8,2.36-15.57,14.63-21.6,17.01-1.09-5.3-3.13-11.24-5.07-15.99,5.06-.32,11.43-.88,18.02-1.05,1.99-.06,4.01-.08,6.01-.04Z"/>
      <path class="cls-2" d="m222.56,56.83v.02c-2-.04-4.02-.02-6.01.04h0c.84-3.1-.92-12.06-3.18-18.08.18-.42.33-.81.44-1.16,0,0,1.32-.02,2.74.34.17.41,5.77,13.58,6,18.84Z"/>
      <path class="cls-5" d="m217.73,127.87s-.97.53-3.46,1.74l-10.69-12.55c1.2-.58,2.26-1.15,3.08-1.72,0,0,8.67,11.85,11.08,12.54Z"/>
      <path class="cls-2" d="m209.51,46.05c.71-1.18,1.35-2.31,1.91-3.35.61-1.11,1.11-2.09,1.49-2.88.19-.39.34-.73.46-1.01,2.26,6.02,4.02,14.98,3.18,18.07h0c-6.6.19-12.96.74-18.02,1.06,3.43-.66,7.83-6.65,10.99-11.9Z"/>
      <path class="cls-5" d="m203.58,117.05l10.69,12.55-3.61,2.98-1.29-1.7-9.32-12.29c1.26-.51,2.45-1.03,3.53-1.55Z"/>
      <path class="cls-1" d="m212.39,33.09c1.44.31,2.54,1.29,1.43,4.57-.12.35-.27.74-.44,1.16-.12.28-.27.62-.46,1.01-3.55-1.55-19.43-1.39-24.28.5l.68-6.7s4.96-.19,10.24-.37c5.54-.19,11.46-.35,12.38-.24.15.02.3.04.45.08Z"/>
      <path class="cls-5" d="m213.37,98.11l-.15,4.72-.12,3.94-.13,3.92-.12,3.92-4.65-.65-9.08-1.27c5.6-5.05,10.95-10.68,12.62-14.59h1.64Z"/>
      <path class="cls-2" d="m212.39,33.09c-.15-.04-.3-.06-.45-.08-.92-.12-6.83.05-12.38.24-1.58-2.69-8.59-3.82-10.92-3.65l-.21.15c-.04-.05-.07-.11-.11-.15.88-1.47,1.7-3.03,2.48-4.61,1.9-3.88,3.45-7.87,4.5-10.91.4.31,13.04,10.39,17.1,19.01Z"/>
      <path class="cls-1" d="m185.65,123.43c-.45.29-.84.53-1.16.71-.65-1.35-1.35-2.7-2.11-4.02,6.2-3.71,22.15-13.85,26.08-23.2,1.12.2,2.27.42,3.47.66-.06.17-.12.35-.2.52-1.67,3.91-7.02,9.54-12.62,14.59-5.17,4.67-10.55,8.84-13.45,10.74h0Z"/>
      <path class="cls-1" d="m212.91,39.83c-.38.79-.88,1.77-1.49,2.88-4.28-.86-17.05-.29-21.86,1.27l-.2.23c-.34-.31-.68-.62-1.02-.91.04-.24.07-.48.07-.73l.22-2.23c4.84-1.89,20.73-2.05,24.28-.5Z"/>
      <path class="cls-1" d="m211.42,42.7c-.56,1.04-1.2,2.17-1.91,3.35-2.54-1.48-17.25.5-17.73.57h0c-.77-.83-1.58-1.65-2.41-2.42l.2-.23c4.81-1.56,17.57-2.12,21.86-1.27Z"/>
      <path class="cls-5" d="m200.05,118.6l9.32,12.29c-1.21.75-5.95.75-7.76,0-.68-.28-1.97-1.77-3.32-3.51-2.22-2.88-4.59-6.45-4.59-6.45,2.05-.7,4.28-1.5,6.35-2.32Z"/>
      <path class="cls-5" d="m200.05,118.6c-2.07.82-4.29,1.62-6.35,2.32-2.02.68-3.89,1.27-5.31,1.71-1.47.45-2.48.73-2.73.81,2.89-1.9,8.28-6.07,13.45-10.74l9.08,1.27c-.31.44-.84.9-1.53,1.37-.82.57-1.88,1.14-3.08,1.72-1.08.52-2.28,1.04-3.53,1.55Z"/>
      <path class="cls-4" d="m209.51,46.05c-3.16,5.25-7.55,11.23-10.99,11.9-.5-1.22-1-2.36-1.47-3.4-.28-.62-.56-1.2-.81-1.73-1.04-2.13-2.65-4.25-4.46-6.21.49-.07,15.19-2.05,17.73-.57Z"/>
      <path class="cls-1" d="m204.4,96.17c1.28.23,2.64.48,4.06.75-3.93,9.36-19.88,19.49-26.08,23.2-.68-1.2-1.41-2.38-2.16-3.53,6.54-3.87,17.98-10.7,24.18-20.42Z"/>
      <path class="cls-1" d="m200.05,95.41c1.35.23,2.81.49,4.36.76-6.2,9.72-17.64,16.56-24.18,20.42-.59-.91-1.2-1.81-1.83-2.67l.19-.14c5.55-1.97,17.75-13.93,21.46-18.37Z"/>
      <path class="cls-5" d="m198.52,141.77l-7.16,2.04s-9.31-14.81-8.98-23.68c.76,1.32,1.46,2.66,2.11,4.02.32-.18.71-.42,1.16-.71h0c.25-.07,1.26-.35,2.73-.81.85,2.7,1.86,5.06,3.39,7.91,1.58,2.93,3.69,6.37,6.75,11.23Z"/>
      <path class="cls-4" d="m198.29,127.37l-6.32,3.05-.19.11c-1.53-2.85-2.54-5.21-3.39-7.91,1.43-.43,3.29-1.03,5.31-1.71,0,0,2.37,3.58,4.59,6.45Z"/>
      <path class="cls-1" d="m197.2,61.45l.43,8.1-27.18-3.72c.76-2.04,1.44-3.96,2.05-5.7l24.55.98.15.34Z"/>
      <path class="cls-1" d="m197.64,69.55l-1.4,7.38-26.65-7.38-.48-.19c.47-1.21.92-2.39,1.35-3.53l27.18,3.72Z"/>
      <path class="cls-1" d="m197.05,54.55v6.57l-24.55-.98c.35-1,.66-1.95.95-2.82l8.45-.99,15.15-1.77Z"/>
      <path class="cls-3" d="m158.1,32.16c-1.42,1.31-2.9,2.68-4.39,4.05h0c-2.15,1.99-4.31,3.98-6.27,5.77-2.83,2.6-5.24,4.79-6.62,5.99-1.64,1.43-3.96,5.22-6.29,9.34-3.38,5.99-6.8,12.69-8.22,13.73l-.02.02-1.29.66c.46-2.47,1.12-5.16,1.94-7.98.87-2.98,1.93-6.11,3.14-9.25,2.85-7.37,6.57-14.86,10.74-20.96.65-.96,1.31-1.87,1.98-2.74.71-.93,1.43-1.81,2.17-2.65.68-.79,1.38-1.52,2.08-2.21.12-.12.25-.24.37-.36h0c1.62-1.55,3.49-3.13,5.52-4.72h0c3.13-2.46,6.64-4.93,10.16-7.32,2.24-1.51,4.48-3,6.65-4.44,6.58-4.36,12.39-8.59,15.37-8.59,6.6,0,15.15.93,11.7,9.99-.09.23-.33.43-.61.57-.45.21-1.02.25-1.31,0-1.92-1.13-3.57-3.58-4.66-6.25-2.07,1.13-4.4.97-4.4.97-3.79,4.15-20.51,19.72-21.86,20.96-.42.38-.87.8-1.35,1.23-1.35,1.25-2.91,2.68-4.57,4.21Z"/>
      <path class="cls-1" d="m196.24,76.94l-3.5,8.5-.12-.05-25.05-12.14c.54-1.32,1.04-2.62,1.53-3.88l.48.19,26.65,7.38Z"/>
      <path class="cls-6" d="m190.79,24.99c-.78,1.58-1.6,3.14-2.48,4.61-.87,1.45-1.78,2.81-2.72,4.02-1.51,1.96-3.22,3.22-4.9,4.05-.49.23-.96.43-1.44.59-.69.25-1.36.42-2.01.56-1.04.21-1.97.33-2.82.36-1.55.05-2.83-.13-3.93-.49-2.88-.94-4.49-2.97-6.29-4.4l-.35.06-1.17-6.4c.48-.43.92-.85,1.35-1.23,1.35-1.23,18.07-16.8,21.86-20.96,0,0,2.33.16,4.4-.97,1.09,2.67,2.74,5.12,4.66,6.25.29.26.86.22,1.31,0-.24.83-.56,1.86-.95,3.03-1.04,3.04-2.59,7.03-4.5,10.91Z"/>
      <path class="cls-4" d="m175.22,109.81c-1.07-1.27-2.15-2.48-3.22-3.58l3.32-2.19.83,1.07,5.75-6.48,4.7-5.16s4.54.44,13.44,1.93c-3.71,4.44-15.91,16.4-21.46,18.37l-.19.14c-1.03-1.43-2.1-2.82-3.17-4.11Z"/>
      <path class="cls-1" d="m167.58,73.25l25.05,12.14-.09.19-4.87,6.74-22.4-13.47c.81-1.89,1.58-3.76,2.31-5.59Z"/>
      <path class="cls-5" d="m191.36,143.8l-7.11,1.24c-5.3-10.38-11.55-25.74-9.03-35.24,1.07,1.29,2.14,2.67,3.17,4.11.63.87,1.24,1.76,1.83,2.67.75,1.15,1.48,2.33,2.16,3.53-.34,8.87,8.98,23.68,8.98,23.68Z"/>
      <path class="cls-2" d="m199.56,33.25c-5.29.18-10.24.37-10.24.37,0,0-.05-2.61-.89-3.87l.21-.15c2.34-.17,9.34.96,10.92,3.65Z"/>
      <path class="cls-4" d="m189.32,33.62l-.68,6.7-.22,2.23c.12-3.75-2.82-8.93-2.82-8.93.94-1.21,1.85-2.57,2.72-4.02.04.04.07.1.11.15.84,1.26.89,3.87.89,3.87Z"/>
      <path class="cls-4" d="m185.6,33.62s2.94,5.18,2.82,8.93l-.07.73c-2.82-2.5-5.69-4.51-7.65-5.62,1.68-.82,3.39-2.09,4.9-4.05Z"/>
      <path class="cls-4" d="m188.34,43.29c0,.08,0,.15-.03.22v.46s-5.91,10.76-6.41,12.35l-8.45.99c1.22-3.72,1.9-6.29,1.87-7.05-.04-.72-.89-1.19-2.27-1.49v-.02c1.97-1.81,6.2-10.5,6.2-10.5.48-.16.96-.36,1.44-.59,1.96,1.12,4.82,3.13,7.65,5.62Z"/>
      <path class="cls-1" d="m187.67,92.31l-1.06,1.17-4.7,5.16-18.49-15.52c.64-1.43,1.26-2.86,1.86-4.28l22.4,13.47Z"/>
      <path class="cls-5" d="m170.88,131.07c-1.09-10-.57-21.03-.42-23.81l1.54-1.03c1.07,1.1,2.15,2.3,3.22,3.58-2.52,9.5,3.73,24.86,9.03,35.24.08.16.16.31.24.46l-9.17.79c-2.43-3.17-3.74-8.99-4.44-15.22Z"/>
      <path class="cls-1" d="m181.91,98.64l-5.75,6.48-.83-1.07-13.52-17.37c.54-1.18,1.08-2.36,1.61-3.56l18.49,15.52Z"/>
      <path class="cls-5" d="m177.24,38.82c.65-.13,1.32-.31,2.01-.56,0,0-4.23,8.69-6.2,10.5v.02c-1.02-.22-2.31-.35-3.75-.42l5.12-9.17h0c.85-.04,1.79-.16,2.82-.37Z"/>
      <path class="cls-1" d="m130.62,130.65c-5.87,6.09-11.42,10.61-20.41,16.66-.73-2.09-1.31-4.45-1.74-6.98,6.38-2.01,17.5-7.76,34.31-28.32,16.81-20.57,23.77-57.37,25.27-63.7.43.02.85.03,1.26.04,1.44.06,2.74.19,3.75.42,1.37.3,2.23.77,2.27,1.49.04.76-.65,3.33-1.87,7.05l-.4.04-.55,2.78c-.6,1.74-1.28,3.67-2.05,5.7-.42,1.14-.88,2.32-1.35,3.53-.49,1.26-.99,2.56-1.53,3.88-.73,1.82-1.51,3.69-2.31,5.59-.6,1.43-1.22,2.85-1.86,4.28-.53,1.2-1.07,2.38-1.61,3.56-1.11,2.37-2.24,4.72-3.38,6.99-3.35,6.59-6.87,12.52-10.23,16.58-7.53,9.11-12.67,15.31-17.57,20.41Z"/>
      <path class="cls-1" d="m175.32,104.05l-3.32,2.19-1.54,1.03-.87.57-2.49-3.15-2.46-3.13-2.3-2.91-3.92-4.98c1.14-2.27,2.28-4.61,3.38-6.99l13.52,17.37Z"/>
      <path class="cls-5" d="m174.42,39.18h0s-5.12,9.18-5.12,9.18c-.41-.02-.82-.03-1.26-.04-.97-.02-2,0-3.05,0-.24,0-.47,0-.71.02l1.63-2.51,4.54-7.01.03-.12c1.1.35,2.38.54,3.93.49Z"/>
      <path class="cls-6" d="m170.49,38.69l-.03.12-4.54,7.01-2.08-11.47.35-.06c1.81,1.43,3.42,3.46,6.29,4.4Z"/>
      <path class="cls-2" d="m169.59,107.83l.87-.57c-.14,2.78-.66,13.82.42,23.81-2.49,2.58-12.61,4.48-17.77,4.29h0c6.19-7.57,15.54-20.06,16.48-27.54Z"/>
      <path class="cls-5" d="m167.1,104.67l2.49,3.15c-.95,7.48-10.3,19.97-16.48,27.53-3.13,3.84-5.45,6.41-5.45,6.41l-6.36-5.58c3.8-3.85,9.34-9.51,12.39-12.85,4.98-5.42,13.41-18.67,13.41-18.67Z"/>
      <path class="cls-1" d="m165,48.32c1.04-.02,2.07-.03,3.05,0-1.5,6.33-8.45,43.13-25.27,63.7-16.8,20.57-27.92,26.31-34.31,28.32-.19-1-.34-2.03-.47-3.07l.13-.02c8.34-4.48,18.82-11.34,32.36-27.95,16.96-20.88,22.79-51.73,24.51-60.83v-.14Z"/>
      <path class="cls-1" d="m164.64,101.55l2.46,3.13s-8.44,13.25-13.41,18.67c-3.05,3.34-8.6,8.99-12.39,12.85-2.39,2.43-4.11,4.14-4.11,4.14-.68-.76-1.4-1.68-2.1-2.65,0,0,28.09-27.9,29.55-36.14Z"/>
      <path class="cls-5" d="m163.84,34.35l2.08,11.47-1.63,2.51h-.15l-6.04-16.18c1.66-1.52,3.21-2.96,4.57-4.21l1.17,6.4Z"/>
      <path class="cls-1" d="m165,48.32v.14c-1.72,9.1-7.54,39.95-24.51,60.83-13.54,16.61-24.02,23.47-32.36,27.95l-.13.02c-.12-1.01-.24-2.05-.33-3.1h.12c10.3-6.96,20.16-14.94,30.41-27.59,17.13-21.2,21.81-46.09,23.74-57.97v-.19c.72-.04,1.46-.06,2.2-.08l.05.15.1-.15c.24,0,.47-.02.71-.02Z"/>
      <path class="cls-1" d="m162.34,98.64l2.3,2.91c-1.46,8.23-29.55,36.14-29.55,36.14-.75-1.04-1.48-2.14-2.12-3.15,0,0,20.33-17.59,29.37-35.9Z"/>
      <path class="cls-5" d="m158.1,32.16l6.04,16.18c-.73.02-1.48.04-2.2.08-1.08.04-2.14.09-3.13.14l-5.1-12.35h0c1.49-1.37,2.97-2.74,4.39-4.05Z"/>
      <path class="cls-1" d="m158.42,93.66l3.92,4.98c-9.05,18.31-29.37,35.9-29.37,35.9-1.33-2.08-2.28-3.79-2.35-3.89,4.9-5.1,10.04-11.3,17.57-20.41,3.36-4.06,6.88-10,10.23-16.58Z"/>
      <path class="cls-1" d="m161.93,48.42v.19c-1.92,11.88-6.6,36.77-23.74,57.97-10.25,12.64-20.11,20.63-30.41,27.58h-.12c-.05-.51-.1-1.05-.13-1.58-.04-.5-.06-1-.09-1.51,42.66-32.75,48.43-61.74,51.44-82.31l-.08-.19c.98-.05,2.05-.11,3.13-.14Z"/>
      <path class="cls-2" d="m163.13,13.52c-3.52,2.39-7.03,4.86-10.16,7.32h0c-2.4-.82-4.83-1.83-7.58-2.74,0,0,8.34-9.66,10.68-10,2.67,1.5,5.18,3.32,7.07,5.42Z"/>
      <path class="cls-4" d="m133.19,78.87c.82-4.01,1.29-8.38,1.56-12.12.38-5.33.35-9.39.35-9.39l-.56-.04c2.33-4.12,4.65-7.91,6.29-9.34,1.38-1.2,3.79-3.39,6.62-5.99,3.28,1.67,3.16,6.48,5.58,6.78.72.09,2.97-.04,5.79-.19l.08.19c-3.01,20.57-8.77,49.56-51.44,82.31-.12-2.07-.18-4.18-.18-6.27,0-7.37.66-14.55,1.57-19.68.42-2.35.89-4.28,1.37-5.58.17-.45.41-.94.72-1.43,1.15-1.93,3.21-4.15,5.62-6.38,1.31-1.22,2.74-2.44,4.17-3.62,6.08-5,12.47-9.23,12.47-9.23Z"/>
      <path class="cls-4" d="m153.71,36.21l5.1,12.35c-2.82.15-5.07.28-5.79.19-2.42-.3-2.3-5.11-5.58-6.78,1.96-1.79,4.12-3.78,6.27-5.76Z"/>
      <path class="cls-2" d="m144.07,3.67c3.34.58,7.87,2.12,11.99,4.44-2.34.35-10.68,10-10.68,10-1.43-.47-2.93-.9-4.56-1.27-.54-3.42.41-10.84,3.25-13.16Z"/>
      <path class="cls-1" d="m152.96,20.84c-2.03,1.58-3.9,3.17-5.52,4.72h0c-6.4-1.35-14.63-2.74-23.88-.92-10.25,2.01-21.85,13.79-31.26,22.74-7.99-.65-13.72-.77-13.72-.77,5.13-5.84,11.39-11.47,17.74-16.26,9.89-7.46,19.95-12.87,26.11-13.85,7.78-1.22,13.6-.76,18.4.33,1.63.37,3.13.81,4.56,1.27,2.74.9,5.18,1.91,7.58,2.74Z"/>
      <path class="cls-1" d="m147.43,25.56c-.12.12-.25.24-.37.36-.7.69-1.4,1.43-2.08,2.21-5.21-1.16-13.16-2.77-21.57-.99-9.16,1.92-18.67,12.34-27.06,20.59-1.4-.13-2.75-.25-4.05-.35,9.41-8.95,21.01-20.73,31.26-22.74,9.25-1.82,17.48-.42,23.88.92Z"/>
      <path class="cls-1" d="m144.98,28.14c-.74.83-1.46,1.72-2.17,2.65-4.07-.98-11.83-2.91-19.56-1.14-8.12,1.85-15.53,10.95-22.93,18.5-.5-.05-1.01-.11-1.51-.16h0c-.83-.09-1.66-.17-2.47-.25,8.39-8.25,17.9-18.67,27.06-20.59,8.42-1.78,16.36-.17,21.57.99Z"/>
      <path class="cls-2" d="m142.2,3.44c.57.04,1.2.12,1.87.23-2.84,2.33-3.79,9.75-3.25,13.16-4.8-1.09-10.61-1.55-18.4-.33,3.51-5.61,14.58-13.41,19.78-13.07Z"/>
      <path class="cls-1" d="m142.81,30.79c-.67.88-1.34,1.79-1.98,2.74l-.15-.1c-2.86-.79-10.49-3.06-17.57-1.28s-12.43,9.6-18.84,16.48c-1.33-.17-2.65-.33-3.94-.48,7.4-7.55,14.81-16.65,22.93-18.5,7.73-1.77,15.48.16,19.56,1.14Z"/>
      <path class="cls-4" d="m140.68,33.43l.15.1c-4.17,6.09-7.89,13.58-10.74,20.96-7.05-2.86-16.74-4.69-25.82-5.86,6.41-6.88,11.76-14.7,18.84-16.48s14.71.5,17.57,1.28Z"/>
      <path class="cls-4" d="m135.09,57.35s.04,4.06-.35,9.39l-8.43,4.29c1.42-1.04,4.83-7.74,8.22-13.73l.56.04Z"/>
      <path class="cls-4" d="m126.32,71.04l8.43-4.29c-.27,3.74-.73,8.11-1.56,12.12,0,0-6.38,4.23-12.47,9.23l.95-4.98,2.26-10.85,1.08-.55,1.29-.66.02-.02Z"/>
      <path class="cls-5" d="m100.32,48.15c1.29.15,2.61.31,3.94.48,9.08,1.17,18.78,3,25.82,5.86-1.21,3.14-2.28,6.27-3.14,9.25-2.58-2.48-18.64-11.01-28.13-15.75.5.05,1,.11,1.51.16Z"/>
      <path class="cls-5" d="m96.34,47.74c.81.08,1.64.16,2.47.25h0c9.48,4.74,25.55,13.27,28.13,15.75-.82,2.82-1.48,5.51-1.94,7.98l-1.08.55s-21.1-7.83-30.89-11.15c-9.79-3.32-37.06-9.69-37.06-9.69l.03-.12c1.55.37,3.26-.15,4.63-.89,1.1-.59,2.31-1.6,3.58-2.74,2.9-2.61,6.13-5.91,9.01-6.44h0c.17,1.88.36,3.92.59,6.15l4.75-.77s5.74.12,13.72.77c1.29.11,2.65.22,4.05.35Z"/>
      <path class="cls-5" d="m123.93,72.26l-2.26,10.85c-18.69-9.05-64.19-24.65-88.6-27.88l12.19-13.19,6.67,1.09h.02c.19,5.5,1.97,7.66,4.06,8.17l-.03.12s27.27,6.37,37.06,9.69c9.79,3.31,30.89,11.15,30.89,11.15Z"/>
      <path class="cls-5" d="m121.67,83.12l-.95,4.98c-1.43,1.18-2.86,2.4-4.17,3.62-7.14-5.94-36.17-14.33-45.27-16.59-8.99-2.24-41.3-9.76-58.84-11.88,2.92-.4,6.11-10.31,9.01-15.86l10.67.6h0c-.04,2.42.17,5.02.93,7.25,24.41,3.23,69.91,18.83,88.6,27.88Z"/>
      <path class="cls-5" d="m116.55,91.72c-2.41,2.23-4.47,4.45-5.62,6.38-10.88-6.4-18.25-8.43-26.54-5.15-.19.07-.42.12-.7.13-6.52.42-37.04-13.74-37.04-13.74l-1.39-2.41-5.2.51h0s-36.54-7.9-36.54-7.9c-7.83-8.89,1.81-21.4,3.62-21.87,1.37,10.57,2.96,14.83,4.63,15.48.22.09.44.12.67.08,17.54,2.12,49.85,9.64,58.84,11.88,9.09,2.26,38.13,10.65,45.27,16.59Z"/>
      <path class="cls-2" d="m110.93,98.11c-.31.5-.55.98-.72,1.43-.49,1.3-.96,3.22-1.37,5.58,0,0-15.2-10.02-22.13-11.64-1.11-.26-2.1-.32-3-.2l-.02-.19c.27-.02.51-.06.7-.13,8.3-3.28,15.66-1.25,26.54,5.15Z"/>
      <path class="cls-2" d="m107.54,132.57l-.27.02c-12.66,1.89-26.56-.55-26.56-.55,6.1-2.59,11.32-4.98,13.45-6.38h0c5.39-.23,13.1-.86,13.1-.86,0,2.09.05,4.2.18,6.27.03.5.05,1.01.09,1.51Z"/>
      <path class="cls-2" d="m108.84,105.12c-.91,5.13-1.57,12.31-1.57,19.68,0,0-7.71.63-13.1.86h0c-.73.04-1.41.05-2.03.07-5.2.11-13.23,3.05-28.33,4.51h0c1.44-.58,2.5-1.46,3.16-2.23.29-.34.63-.96,1-1.81.58-1.32,1.25-3.17,1.94-5.27.45-1.36.91-2.83,1.38-4.33,1.45-4.73,2.89-9.74,3.82-12.53.68-2.05,1.45-4.15,2.47-5.96,1.43-2.54,3.33-4.49,6.13-4.83.9-.12,1.89-.05,3,.2,6.93,1.62,22.13,11.64,22.13,11.64Z"/>
      <path class="cls-2" d="m44.53,133.22c-1.25-2.16-2.57-4.54-3.82-7.03-4.86-9.6-8.7.66-11.75,8.35-1.09,2.74-2.31,4.07-3.52,4.55-2.19.86-4.36-1.06-5.75-2.51-1.27-1.34-2.99-6.3-4.57-10.99-1.09-3.21-2.11-6.29-2.89-8-.71-1.55-1.27-2.09-1.76-1.93,1.96-1.2,4.36-2.82,9.98-2.28,2.46,3.9,3.78,3.13,4.99.4,1.34-3.03-2.92-10.09-4.51-15.14-1.58-5.05,6.11-1.05,9.12,3.76,1.35,4.81,12.21,17.64,20.95,24.37,5.76,4.45,10.02,4.55,12.81,3.45h0c15.1-1.45,23.13-4.39,28.33-4.5.62-.02,1.3-.04,2.03-.07-2.12,1.41-7.35,3.79-13.45,6.38-12.81,5.44-29.49,11.77-29.49,11.77,0,0-.39-.56-1.06-1.55-1.2-1.8-3.31-5.05-5.63-9.04Z"/>
      <path class="cls-2" d="m72.81,36.2c-.17-2.31-.27-4.25-.32-5.85-.07-2.11-.04-3.63.09-4.65.22-1.81.4-3.07,1.3-3.5h0c.5-.24,1.22-.21,2.31.11,3.05.9,18.53,6.7,20.11,8.04-6.35,4.79-12.62,10.42-17.74,16.26l-4.75.77c-.23-2.23-.42-4.28-.59-6.15-.17-1.84-.31-3.51-.42-5.03Z"/>
      <path class="cls-4" d="m83.69,93.09l.02.19c-2.8.35-4.7,2.29-6.13,4.83-2.05-.04-10.2.49-19.73,1.29l-.06-.76-11.14-19.29s30.52,14.16,37.04,13.74Z"/>
      <path class="cls-4" d="m57.85,99.4c9.53-.81,17.69-1.33,19.73-1.29-1.02,1.81-1.79,3.91-2.47,5.96-.93,2.79-2.37,7.8-3.82,12.53-7.75,1.14-17.47-8.68-23.57-16.26l2.44-.24c2.6-.25,5.19-.48,7.68-.69Z"/>
      <path class="cls-1" d="m73.23,41.23h0c-2.89.52-6.11,3.82-9.01,6.44l-.26-.28-2.8-1.93c3.85-5.28,9.06-8.84,11.65-9.25.12,1.51.26,3.19.42,5.03Z"/>
      <path class="cls-1" d="m73.88,22.21c-.9.42-1.08,1.68-1.3,3.5-.12,1.02-.16,2.54-.09,4.65h-.04c-5.96,3.29-11.36,8-14.67,12.78l-5.74-3.95c1.55-6.45,16.87-16.49,21.83-16.98Z"/>
      <path class="cls-1" d="m72.49,30.35c.04,1.6.15,3.54.32,5.85-2.59.41-7.8,3.98-11.65,9.25l-3.37-2.32c3.31-4.78,8.71-9.49,14.67-12.78h.04Z"/>
      <path class="cls-1" d="m71.29,116.59c-.47,1.5-.93,2.97-1.38,4.33-9.35,1.42-21.17-11.13-27.85-20.01,1.86-.2,3.76-.4,5.67-.58,6.1,7.59,15.82,17.41,23.57,16.26Z"/>
      <path class="cls-1" d="m42.05,100.91c6.68,8.88,18.5,21.42,27.85,20.01-.69,2.1-1.35,3.95-1.94,5.27-10.94-.11-24.09-13.8-31.46-24.64h0c1.78-.22,3.65-.43,5.55-.64Z"/>
      <path class="cls-1" d="m67.97,126.19c-.37.85-.71,1.48-1,1.81-.66.77-1.72,1.66-3.16,2.22-2.79,1.1-7.05,1-12.81-3.45-8.74-6.74-19.59-19.57-20.95-24.37,1.96-.29,4.13-.58,6.45-.86h0c7.37,10.85,20.52,24.54,31.46,24.65Z"/>
      <path class="cls-5" d="m63.96,47.39l.26.28c-1.27,1.14-2.48,2.15-3.58,2.74-1.37.74-3.08,1.27-4.63.89-2.09-.51-3.88-2.67-4.06-8.17-.04-1.16,0-2.47.11-3.95l5.74,3.95,3.37,2.32,2.8,1.93Z"/>
      <path class="cls-2" d="m57.79,98.64l.06.76c-2.5.21-5.08.44-7.68.69l-17.1-21.96,6.99-.68,5.2-.51,1.39,2.41,11.14,19.29Z"/>
      <path class="cls-2" d="m33.07,78.13l17.1,21.96-2.44.24c-1.9.19-3.81.38-5.67.58-1.9.2-3.77.42-5.55.63-2.32.28-4.5.57-6.45.86-3.01-4.82-10.69-8.81-9.12-3.76,1.58,5.05,5.84,12.11,4.51,15.14-1.21,2.74-2.53,3.5-4.99-.4-.26-.41-.52-.86-.81-1.36-3-5.39-8.68-26.3-8.8-30.18,0,0,5.73,6.56,7,10.62,0,0,1.36,1.2,2.6-.15s8.47-9.42,8.1-10.02c-.38-.6-10.77-6.85-10.77-6.85,0,0-1.66-1.19-6.17,5.28-.96-.6-8.07-11.15-8.07-11.15l36.54,7.89h0s-6.99.69-6.99.69Z"/>
      <path class="cls-2" d="m50.16,142.26c-4.9,1.72-11.15-3.76-13.61-6.11,3.56-1.04,6.86-2.13,7.98-2.93,2.32,3.99,4.43,7.24,5.63,9.04Z"/>
      <path class="cls-5" d="m45.26,42.05l-12.19,13.19c-.76-2.23-.97-4.83-.93-7.25.07-4.26.93-7.93.93-7.93l12.19,1.99Z"/>
      <path class="cls-2" d="m40.71,126.19c1.26,2.49,2.58,4.87,3.82,7.03-1.12.8-4.42,1.89-7.98,2.93-5.29,1.54-11.12,2.94-11.12,2.94,1.21-.48,2.43-1.81,3.52-4.55,3.05-7.68,6.89-17.95,11.75-8.35Z"/>
      <path class="cls-2" d="m28.54,82.28c.37.6-6.86,8.67-8.1,10.02s-2.6.15-2.6.15c0,0,1.28-13.63-.07-17.02,0,0,10.39,6.25,10.77,6.85Z"/>
      <path class="cls-5" d="m7.15,47.69l14.32-.3c-2.9,5.55-6.09,15.47-9.01,15.86-.23-.03-.45-.05-.67-.08-1.67-.66-3.26-4.91-4.63-15.48Z"/>
      <path class="cls-2" d="m17.77,75.43c1.35,3.39.07,17.02.07,17.02-1.27-4.06-7-10.62-7-10.62.27-.4.51-.77.76-1.12,4.51-6.46,6.17-5.28,6.17-5.28Z"/>
      <path class="cls-2" d="m15.12,125.59c-2.04.46-6.17-2.69-7.07-4.55.93-2.82,1.58-5.11,2.42-5.38.5-.16,1.05.38,1.76,1.93.79,1.71,1.81,4.79,2.89,8Z"/>
    </g>
    <g>
      <path class="cls-7" d="m153.71,36.21c-2.15,1.98-4.31,3.98-6.27,5.76-2.83,2.6-5.24,4.79-6.62,5.99-1.64,1.43-3.96,5.22-6.29,9.34-3.38,5.99-6.8,12.69-8.22,13.73"/>
      <path class="cls-7" d="m152.97,20.84c3.13-2.46,6.64-4.93,10.16-7.32,2.24-1.51,4.48-3,6.65-4.44,6.58-4.36,12.39-8.59,15.37-8.59,6.6,0,15.15.93,11.7,9.99-.09.23-.33.43-.61.57-.45.21-1.02.25-1.31,0-1.92-1.13-3.57-3.58-4.66-6.25-2.07,1.13-4.4.97-4.4.97-3.79,4.15-20.51,19.72-21.86,20.96-.42.38-.87.8-1.35,1.23-1.35,1.25-2.91,2.68-4.57,4.21-1.42,1.31-2.9,2.68-4.39,4.05"/>
      <path class="cls-7" d="m147.44,25.56c1.62-1.55,3.49-3.13,5.52-4.72"/>
      <path class="cls-7" d="m125.01,71.71c.46-2.47,1.12-5.16,1.94-7.98.87-2.98,1.93-6.11,3.14-9.25,2.85-7.37,6.57-14.86,10.74-20.96.65-.96,1.31-1.87,1.98-2.74.71-.93,1.43-1.81,2.17-2.65.68-.79,1.38-1.52,2.08-2.21.12-.12.25-.24.37-.36"/>
      <polyline class="cls-7" points="162.67 27.94 162.67 27.95 163.84 34.35 165.92 45.83"/>
      <polyline class="cls-7" points="170.46 38.82 165.92 45.83 164.29 48.34 164.19 48.49"/>
      <path class="cls-7" d="m164.19,34.29c1.81,1.43,3.42,3.46,6.29,4.4,1.1.35,2.38.54,3.93.49.85-.04,1.79-.15,2.82-.36.65-.13,1.32-.31,2.01-.56.48-.16.96-.36,1.44-.59,1.68-.82,3.39-2.09,4.9-4.05.94-1.21,1.85-2.57,2.72-4.02.88-1.47,1.7-3.03,2.48-4.61,1.9-3.88,3.45-7.87,4.5-10.91.39-1.17.71-2.2.95-3.03h0"/>
      <polyline class="cls-7" points="158.1 32.15 158.1 32.16 164.14 48.34 164.19 48.49"/>
      <line class="cls-7" x1="174.42" y1="39.19" x2="169.3" y2="48.36"/>
      <path class="cls-7" d="m173.05,48.76c1.97-1.81,6.2-10.5,6.2-10.5"/>
      <polyline class="cls-7" points="153.71 36.2 153.71 36.21 158.81 48.56 158.89 48.76"/>
      <path class="cls-7" d="m147.44,41.98c3.28,1.67,3.16,6.48,5.58,6.78.72.09,2.97-.04,5.79-.19.98-.05,2.05-.11,3.13-.14.73-.04,1.47-.06,2.2-.08h.15c.24,0,.47-.02.71-.02,1.04-.02,2.07-.03,3.05,0,.43.02.85.03,1.26.04,1.44.06,2.74.19,3.75.42,1.37.3,2.23.77,2.27,1.49.04.76-.65,3.33-1.87,7.05-.28.88-.6,1.82-.95,2.82-.6,1.74-1.28,3.67-2.05,5.7-.42,1.14-.88,2.32-1.35,3.53-.49,1.26-.99,2.56-1.53,3.88-.73,1.82-1.51,3.69-2.31,5.59-.6,1.43-1.22,2.85-1.86,4.28-.53,1.2-1.07,2.38-1.61,3.56-1.11,2.37-2.24,4.72-3.38,6.99-3.35,6.59-6.87,12.52-10.23,16.58-7.53,9.11-12.67,15.31-17.57,20.41-5.87,6.09-11.42,10.61-20.41,16.66-.73-2.09-1.31-4.45-1.74-6.98-.19-1-.34-2.03-.47-3.07-.12-1.01-.24-2.05-.33-3.1-.05-.52-.1-1.06-.13-1.59-.04-.5-.06-1-.09-1.51-.12-2.07-.18-4.18-.18-6.27,0-7.37.66-14.55,1.57-19.68.42-2.35.89-4.28,1.37-5.58.17-.45.41-.94.72-1.43,1.15-1.93,3.21-4.15,5.62-6.38,1.31-1.22,2.74-2.44,4.17-3.62,6.08-5,12.47-9.23,12.47-9.23"/>
      <path class="cls-7" d="m135.09,57.35s.04,4.06-.35,9.39c-.27,3.74-.73,8.11-1.56,12.12-.42,2.05-.95,4.02-1.58,5.75-3.61,9.94-9.19,19.44-9.19,19.44"/>
      <path class="cls-7" d="m158.89,48.76c-3.01,20.57-8.77,49.56-51.44,82.31"/>
      <path class="cls-7" d="m161.94,48.61c-1.93,11.88-6.61,36.77-23.74,57.97-10.25,12.64-20.11,20.63-30.41,27.58"/>
      <path class="cls-7" d="m165,48.47c-1.72,9.1-7.54,39.95-24.51,60.83-13.54,16.61-24.02,23.47-32.36,27.95"/>
      <path class="cls-7" d="m168.04,48.32c-1.5,6.33-8.45,43.13-25.27,63.7-16.8,20.57-27.92,26.31-34.31,28.32"/>
      <path class="cls-7" d="m178.71,19.52c1.24,0,3.84.19,3.95,1.33"/>
      <path class="cls-7" d="m188.32,24.29c1.07,0,2.7.25,2.48.7"/>
      <path class="cls-7" d="m186.92,19.94c-.75,1.99-1.22,7.45-3.03,9.1s-1.77,1.74-3.2.24c0,0-.72-.89-.79-1.37"/>
      <polyline class="cls-7" points="179.25 33.01 177.43 33.62 177.88 34.66"/>
      <path class="cls-7" d="m213.38,83.29c1.19.33,2.41.66,3.65,1,8.65,2.35,17.83,4.65,18.64,4.41"/>
      <path class="cls-7" d="m191.78,46.62c1.81,1.96,3.42,4.07,4.46,6.21.26.53.53,1.11.81,1.73.47,1.04.97,2.18,1.47,3.4,1.95,4.75,3.98,10.69,5.07,15.99.3,1.46.53,2.87.66,4.2.09.9.14,1.76.14,2.58.66.2,1.41.42,2.23.66,1.93.57,4.25,1.22,6.74,1.91"/>
      <path class="cls-7" d="m180.68,37.66s0,0,0,0c1.96,1.12,4.82,3.13,7.65,5.62.34.29.68.6,1.02.91.82.77,1.64,1.58,2.41,2.42"/>
      <polygon class="cls-7" points="172.5 60.13 173.05 57.35 173.45 57.31 181.91 56.32 197.05 54.55 197.05 61.12 172.5 60.13"/>
      <polyline class="cls-7" points="197.05 61.12 197.2 61.45 197.64 69.55 170.46 65.84"/>
      <polyline class="cls-7" points="197.64 69.55 196.24 76.94 169.59 69.55"/>
      <polyline class="cls-7" points="167.58 73.25 192.63 85.38 192.74 85.44 196.24 76.94"/>
      <polyline class="cls-7" points="165.27 78.83 187.67 92.31 192.54 85.57"/>
      <polyline class="cls-7" points="163.41 83.12 181.91 98.64 186.61 93.48 187.67 92.31"/>
      <polyline class="cls-7" points="161.79 86.67 161.8 86.68 175.32 104.05 176.15 105.12 181.91 98.64"/>
      <polyline class="cls-7" points="158.41 93.65 158.42 93.66 162.34 98.64 164.64 101.55 167.1 104.67 169.59 107.83 170.46 107.26 172 106.23 175.32 104.05"/>
      <path class="cls-7" d="m167.1,104.67s-8.44,13.25-13.41,18.67c-3.05,3.34-8.6,8.99-12.39,12.85-2.39,2.43-4.11,4.14-4.11,4.14-.68-.76-1.4-1.68-2.1-2.65-.75-1.04-1.48-2.14-2.12-3.15-1.33-2.08-2.28-3.79-2.35-3.89h0"/>
      <path class="cls-7" d="m132.97,134.54s20.33-17.59,29.37-35.9"/>
      <path class="cls-7" d="m135.09,137.69s28.09-27.9,29.55-36.14"/>
      <path class="cls-7" d="m141.3,136.19l6.36,5.58s2.32-2.57,5.45-6.41c6.19-7.56,15.54-20.05,16.48-27.53"/>
      <path class="cls-7" d="m170.46,107.26c-.14,2.78-.66,13.82.42,23.81.69,6.22,2,12.05,4.44,15.22l9.17-.79c-.08-.15-.16-.3-.24-.46-5.3-10.38-11.55-25.74-9.03-35.24.03-.12.06-.24.1-.36"/>
      <path class="cls-7" d="m184.25,145.04l7.11-1.24s-9.31-14.81-8.98-23.68"/>
      <path class="cls-7" d="m191.36,143.8l7.16-2.04c-3.05-4.86-5.17-8.3-6.75-11.23-1.53-2.85-2.54-5.21-3.39-7.91"/>
      <path class="cls-7" d="m185.66,123.43c2.89-1.9,8.28-6.07,13.45-10.74,5.6-5.05,10.95-10.68,12.62-14.59.08-.18.14-.35.2-.52-1.2-.24-2.35-.46-3.47-.66-1.43-.27-2.78-.52-4.06-.75-1.55-.27-3-.53-4.36-.76-8.9-1.49-13.44-1.93-13.44-1.93"/>
      <path class="cls-7" d="m172,106.23c1.07,1.1,2.15,2.3,3.22,3.58,1.07,1.29,2.14,2.67,3.17,4.11.63.87,1.24,1.76,1.83,2.67.75,1.15,1.48,2.33,2.16,3.53.76,1.32,1.46,2.66,2.11,4.02.32-.18.71-.42,1.16-.71"/>
      <path class="cls-7" d="m200.05,95.41c-3.71,4.44-15.91,16.4-21.46,18.37"/>
      <path class="cls-7" d="m180.22,116.59c6.54-3.87,17.98-10.7,24.18-20.42"/>
      <path class="cls-7" d="m182.38,120.12c6.2-3.71,22.15-13.85,26.08-23.2h0"/>
      <path class="cls-7" d="m185.61,123.45s.02,0,.04-.02h0c.25-.07,1.26-.35,2.73-.81,1.43-.43,3.29-1.03,5.31-1.71,2.05-.7,4.28-1.5,6.35-2.32,1.26-.51,2.45-1.03,3.53-1.55,1.2-.58,2.26-1.15,3.08-1.72.69-.47,1.22-.93,1.53-1.37"/>
      <polyline class="cls-7" points="199.11 112.7 208.19 113.96 212.84 114.61 212.96 110.69 213.1 106.76 213.22 102.82 213.37 98.11 211.73 98.11 211.72 98.11"/>
      <path class="cls-7" d="m213.37,102.83c6.02-1.74,33.43-11.41,46.2-24.07"/>
      <path class="cls-7" d="m213.19,106.76c4.02-1.17,32.46-10.73,48.74-25.15"/>
      <path class="cls-7" d="m213.02,110.69c2.01-.58,31.49-10.03,51.27-26.23"/>
      <path class="cls-7" d="m212.84,114.61s4.98-1.52,12.44-4.52c.76-.31,1.56-.64,2.37-.97,2.95-1.22,6.2-2.65,9.62-4.27,9.22-4.37,19.76-10.17,29.14-17.38.08-.06.15-.12.23-.18"/>
      <path class="cls-7" d="m254.12,73.25c.9.75,3.33,2.81,5.81,5.33.81.82,1.63,1.69,2.4,2.59.87,1,1.68,2.03,2.36,3.05.76,1.12,1.37,2.24,1.72,3.27.3.9.4,1.75.23,2.5-5.58,7.76-24.27,25.54-25.25,25.99-1.17-.78-2.09-2.03-2.76-3.42-1.41-2.91-1.8-6.45-1.35-7.69"/>
      <path class="cls-7" d="m253.75,72.94s.13.11.36.3"/>
      <path class="cls-7" d="m206.66,115.33s8.67,11.85,11.08,12.54,5.89-1.43,8.29-3.73c4.37-4.19,6.03-9.25,6.26-10.18.22-.94-5.35-3.57-7-3.87"/>
      <path class="cls-7" d="m203.58,117.05l10.69,12.55c2.49-1.2,3.46-1.74,3.46-1.74"/>
      <polyline class="cls-7" points="200.05 118.59 200.05 118.6 209.37 130.89 210.66 132.59 214.27 129.6"/>
      <path class="cls-7" d="m193.7,120.92s2.37,3.58,4.59,6.45c1.35,1.74,2.64,3.23,3.32,3.51,1.81.75,6.54.75,7.76,0"/>
      <line class="cls-7" x1="191.97" y1="130.43" x2="198.29" y2="127.37"/>
      <path class="cls-7" d="m238.34,77.8c8.07-2.36,14.94-4.3,15.77-4.55h0"/>
      <path class="cls-7" d="m217.01,84.29h.02c5.66-1.88,13.98-4.35,21.31-6.49"/>
      <path class="cls-7" d="m213.37,83.29h0l23.09-18.21.64-.5c1.95,6.91,2.33,12.85,1.24,13.22h0"/>
      <line class="cls-7" x1="233.29" y1="59.67" x2="236.47" y2="65.07"/>
      <path class="cls-7" d="m225.27,56.83s-.04.06-.07.1c-1.8,2.36-15.57,14.63-21.6,17.01"/>
      <path class="cls-7" d="m229.57,57.21c-3.42,5.36-17.64,16.86-25.31,20.92"/>
      <path class="cls-7" d="m153.12,135.37c5.16.19,15.28-1.72,17.77-4.29h0"/>
      <path class="cls-7" d="m188.32,43.51c.02-.07.03-.14.03-.22l.07-.73.22-2.23.68-6.7s4.96-.19,10.24-.37c5.54-.19,11.46-.35,12.38-.24.15.02.3.04.45.08,1.44.31,2.54,1.29,1.43,4.57-.12.35-.27.74-.44,1.16-.12.28-.27.62-.46,1.01-.38.79-.88,1.77-1.49,2.88-.56,1.04-1.2,2.17-1.91,3.35-3.16,5.25-7.55,11.23-10.99,11.9,5.06-.32,11.43-.88,18.02-1.05,1.99-.06,4.01-.08,6.01-.04.89,0,1.76.04,2.64.08,1.48.05,2.94.15,4.37.28,1.62.15,3.2.35,4.74.62"/>
      <path class="cls-7" d="m185.6,33.62s2.94,5.18,2.82,8.93c0,.26-.03.5-.07.73"/>
      <path class="cls-7" d="m191.77,46.62h0c.49-.07,15.19-2.05,17.73-.57h0"/>
      <path class="cls-7" d="m189.56,43.97c4.81-1.56,17.57-2.12,21.86-1.27h.02"/>
      <path class="cls-7" d="m188.63,40.32c4.84-1.89,20.73-2.05,24.28-.5"/>
      <path class="cls-7" d="m213.81,37.66s1.32-.02,2.74.34c.7.17,1.43.43,2.05.82,2.85,1.84,9.21,3.49,14.92,13.1,1.61,2.72.9,4.75.79,5.91-.2.56-.55,1.17-1.02,1.83-4.53,6.43-20.52,17.45-26.66,21.71"/>
      <path class="cls-7" d="m216.55,37.98h0c.17.42,5.77,13.59,6,18.85"/>
      <path class="cls-7" d="m213.37,38.82c2.26,6.02,4.02,14.98,3.18,18.07"/>
      <path class="cls-7" d="m195.28,14.07h0c.4.32,13.04,10.4,17.1,19.02"/>
      <path class="cls-7" d="m98.82,47.99c.5.05,1,.11,1.51.16,1.29.15,2.61.31,3.94.48,9.08,1.17,18.78,3,25.82,5.86.05.02.11.04.16.06"/>
      <path class="cls-7" d="m152.97,20.84h0c-2.4-.82-4.83-1.83-7.58-2.74-1.43-.47-2.93-.9-4.56-1.27-4.8-1.09-10.61-1.55-18.4-.33-6.15.97-16.22,6.38-26.11,13.85-6.35,4.79-12.62,10.42-17.74,16.26,0,0,5.74.12,13.72.77,1.29.11,2.65.22,4.05.35.81.08,1.64.16,2.47.25"/>
      <path class="cls-7" d="m104.26,48.63c6.41-6.88,11.76-14.7,18.84-16.48s14.71.5,17.57,1.28"/>
      <path class="cls-7" d="m100.27,48.21s.04-.04.05-.06c7.4-7.55,14.81-16.65,22.93-18.5,7.73-1.77,15.48.16,19.56,1.14.04,0,.08.02.12.03"/>
      <path class="cls-7" d="m96.28,47.8l.06-.06c8.39-8.25,17.9-18.67,27.06-20.59,8.42-1.78,16.36-.17,21.57.99.07.02.13.03.2.04"/>
      <path class="cls-7" d="m92.29,47.39c9.41-8.95,21.01-20.73,31.26-22.74,9.25-1.82,17.48-.42,23.88.92h0"/>
      <path class="cls-7" d="m98.81,47.99h0c9.48,4.74,25.55,13.27,28.13,15.75"/>
      <path class="cls-7" d="m73.89,22.21c.5-.24,1.22-.21,2.31.11,3.05.9,18.53,6.7,20.11,8.04"/>
      <path class="cls-7" d="m78.57,46.62l-4.75.77c-.23-2.23-.42-4.28-.59-6.15-.17-1.84-.31-3.51-.42-5.03-.17-2.31-.27-4.25-.32-5.85-.07-2.11-.04-3.63.09-4.65.22-1.81.4-3.07,1.3-3.5"/>
      <path class="cls-7" d="m122.42,16.51c3.51-5.61,14.58-13.41,19.78-13.07.57.04,1.2.12,1.87.23,3.34.58,7.87,2.12,11.99,4.44,2.67,1.5,5.18,3.32,7.07,5.42"/>
      <path class="cls-7" d="m140.82,16.83c-.54-3.42.41-10.84,3.25-13.16"/>
      <path class="cls-7" d="m145.38,18.11s8.34-9.66,10.68-10"/>
      <path class="cls-7" d="m189.32,33.62s-.05-2.61-.89-3.87c-.04-.05-.07-.11-.11-.15"/>
      <path class="cls-7" d="m188.63,29.6c2.34-.17,9.34.96,10.92,3.65"/>
      <path class="cls-7" d="m108.84,105.12s-15.2-10.02-22.13-11.64c-1.11-.26-2.1-.32-3-.2-2.8.35-4.7,2.29-6.13,4.83-1.02,1.81-1.79,3.91-2.47,5.96-.93,2.79-2.37,7.8-3.82,12.53-.47,1.5-.93,2.97-1.38,4.33-.69,2.1-1.35,3.95-1.94,5.27-.37.85-.71,1.48-1,1.81-.66.77-1.72,1.66-3.16,2.22-2.79,1.1-7.05,1-12.81-3.45-8.74-6.74-19.59-19.57-20.95-24.37,1.96-.29,4.13-.58,6.45-.86,1.78-.21,3.65-.42,5.55-.63,1.86-.2,3.76-.4,5.67-.58l2.44-.24c2.6-.25,5.19-.48,7.68-.69,9.53-.81,17.69-1.33,19.73-1.29"/>
      <path class="cls-7" d="m36.5,101.55c7.37,10.84,20.52,24.53,31.46,24.64"/>
      <path class="cls-7" d="m42.05,100.91c6.68,8.88,18.5,21.42,27.85,20.01"/>
      <path class="cls-7" d="m47.72,100.33c6.1,7.59,15.82,17.41,23.57,16.26"/>
      <path class="cls-7" d="m94.17,125.66c5.39-.23,13.1-.86,13.1-.86"/>
      <path class="cls-7" d="m63.81,130.23c15.1-1.46,23.13-4.4,28.33-4.51.62-.02,1.3-.04,2.03-.07"/>
      <path class="cls-7" d="m94.17,125.66h0c-2.12,1.41-7.35,3.79-13.45,6.38-12.81,5.44-29.49,11.77-29.49,11.77,0,0-.39-.56-1.06-1.55-1.2-1.8-3.31-5.05-5.63-9.04-1.25-2.16-2.57-4.54-3.82-7.03-4.86-9.6-8.7.66-11.75,8.35-1.09,2.74-2.31,4.07-3.52,4.55-2.19.86-4.36-1.06-5.75-2.51-1.27-1.34-2.99-6.3-4.57-10.99-1.09-3.21-2.11-6.29-2.89-8-.71-1.55-1.27-2.09-1.76-1.93-.83.27-1.49,2.57-2.42,5.38.9,1.86,5.04,5.01,7.07,4.55"/>
      <path class="cls-7" d="m80.72,132.04s13.9,2.43,26.56.55"/>
      <path class="cls-7" d="m25.44,139.09s5.83-1.4,11.12-2.94c3.56-1.04,6.86-2.13,7.98-2.93h0"/>
      <path class="cls-7" d="m36.56,136.15c2.46,2.35,8.7,7.83,13.61,6.11"/>
      <path class="cls-7" d="m73.89,22.21h0c-4.97.49-20.28,10.54-21.83,16.98l5.74,3.95,3.37,2.32,2.8,1.93"/>
      <path class="cls-7" d="m73.23,41.23c-2.89.52-6.11,3.82-9.01,6.44-1.27,1.14-2.48,2.15-3.58,2.74-1.37.74-3.08,1.27-4.63.89-2.09-.51-3.88-2.67-4.06-8.17-.04-1.16,0-2.47.11-3.95"/>
      <path class="cls-7" d="m57.79,43.14c3.31-4.78,8.71-9.49,14.67-12.78"/>
      <path class="cls-7" d="m61.16,45.46c3.85-5.28,9.06-8.84,11.65-9.25h0"/>
      <path class="cls-7" d="m55.98,51.43s27.27,6.37,37.06,9.69c9.79,3.31,30.89,11.15,30.89,11.15l1.08-.55,1.29-.66.02-.02,8.43-4.29"/>
      <path class="cls-7" d="m123.93,72.26l-2.26,10.85c-18.69-9.05-64.19-24.65-88.6-27.88-.76-2.23-.97-4.83-.93-7.25.07-4.26.93-7.93.93-7.93l12.19,1.99,6.67,1.09"/>
      <line class="cls-7" x1="45.26" y1="42.05" x2="33.07" y2="55.24"/>
      <path class="cls-7" d="m32.13,47.99l-10.67-.6c-2.9,5.55-6.09,15.47-9.01,15.86-.23.04-.45,0-.67-.08-1.67-.66-3.26-4.91-4.63-15.48l14.32-.3"/>
      <path class="cls-7" d="m11.78,63.17c.22.03.44.05.67.08,17.54,2.12,49.85,9.64,58.84,11.88,9.09,2.26,38.13,10.65,45.27,16.59"/>
      <polyline class="cls-7" points="57.79 98.64 46.65 79.35 45.26 76.94 40.06 77.45 33.07 78.13 50.16 100.09"/>
      <path class="cls-7" d="m30.05,102.4c-3.01-4.82-10.69-8.81-9.12-3.76,1.58,5.05,5.84,12.11,4.51,15.14-1.21,2.74-2.53,3.5-4.99-.4-.26-.41-.52-.86-.81-1.36-3-5.39-8.68-26.3-8.8-30.18.27-.4.51-.77.76-1.12,4.51-6.46,6.17-5.28,6.17-5.28,1.35,3.39.07,17.02.07,17.02-1.27-4.06-7-10.62-7-10.62"/>
      <path class="cls-7" d="m17.77,75.43s10.39,6.25,10.77,6.85c.37.6-6.86,8.67-8.1,10.02s-2.6.15-2.6.15"/>
      <path class="cls-7" d="m40.06,77.44l-36.54-7.89s7.11,10.55,8.07,11.15"/>
      <path class="cls-7" d="m110.93,98.11c-10.88-6.4-18.25-8.43-26.54-5.15-.19.07-.42.12-.7.13-6.52.42-37.04-13.74-37.04-13.74"/>
      <path class="cls-7" d="m188.32,43.97s-5.91,10.76-6.41,12.35"/>
      <line class="cls-7" x1="120.72" y1="88.1" x2="121.67" y2="83.12"/>
      <path class="cls-7" d="m227.65,109.12s10.15,2.14,10.98,3.43c0,0,0,.02.02.03"/>
      <path class="cls-7" d="m7.15,47.69c-1.81.47-11.46,12.98-3.62,21.87"/>
      <path class="cls-7" d="m10.47,115.65c1.96-1.2,4.36-2.82,9.98-2.28"/>
    </g>
  </g>
  <ellipse class="cls-3" cx="192.53" cy="10.74" rx="1.05" ry="1.66" transform="translate(136.16 195.15) rotate(-76.2)"/>
  <ellipse class="cls-3" cx="185.55" cy="8.9" rx="1.05" ry="1.66" transform="translate(132.63 186.96) rotate(-76.2)"/>
</svg>