<?xml version="1.0" encoding="UTF-8"?>
<svg id="_レイヤー_1" data-name="レイヤー 1" xmlns="http://www.w3.org/2000/svg" viewBox="0 0 256.96 156.07">
  <defs>
    <style>
      .cls-1 {
        fill: #a6e3db;
      }

      .cls-1, .cls-2, .cls-3, .cls-4, .cls-5, .cls-6, .cls-7 {
        stroke-width: 0px;
      }

      .cls-8 {
        fill: none;
        stroke: #000;
        stroke-linecap: round;
        stroke-linejoin: round;
      }

      .cls-2 {
        fill: #333;
      }

      .cls-3 {
        fill: #c696d0;
      }

      .cls-4 {
        fill: #fdf9af;
      }

      .cls-5 {
        fill: #f7f9d2;
      }

      .cls-6 {
        fill: #f16251;
      }

      .cls-7 {
        fill: #ffe6b1;
      }
    </style>
  </defs>
  <g>
    <path class="cls-2" d="m255.97,143.82c1.14,2.07-.02,3.8-.32,3.49-.31-.32-6.83-3.41-9.61-4.89-2.76-1.47-34.33-7.36-35.01-7.49.66-.31,1.34-.64,2.02-.99l31.55,5.93.11-.93c-4.75-8.36-16.42-11.58-20.85-12.61.54-.62,1-1.26,1.37-1.89,7.6,1.53,16.28,6.33,20.72,11.19s8.91,6.13,10.04,8.19Z"/>
    <path class="cls-6" d="m216.53,123.28h0c-1.88.55-3.98.75-6.06.74v-.06s1.44-6.94,3.04-8.23c.44-.04.79-.08,1.04-.12,3.17-.55,13.92-3.86,13.92-3.86.6-.15,1.45-.39,2.22-.51,1.36-.23,2.47-.11,1.51,1.47-1.12,1.84-5.86,5.26-9.76,7.64-1.38.84-2.64,1.55-3.61,2.02-.7.38-1.47.69-2.28.92Z"/>
    <path class="cls-1" d="m159.82,80.04c-3.55-7.55-12.11-17.28-20.74-27.52.57-.3,1.09-.68,1.58-1.14,9.64.62,13.99.62,17.51,3.93,3.51,3.31,18.19,19.75,21.7,19.69,3.52-.05,12.25,8.62,13.44,13.38l.06.44c1.32-.19,2.55-.33,3.67-.44,6.82-.62,12.61-1.24,15.19-.52,2.58.73,6.41,4.45,8.58,7.45,2.17,3,9.72,15.08,9.72,15.08l.15.83c-.77.12-1.62.36-2.22.51,0,0-10.74,3.31-13.92,3.86-.25.04-.6.08-1.04.12-4.97.4-20.85.15-24.01-3.15h0c-.44-1.75-.95-3.37-1.41-4-.32-.45-.73-.7-1.16-.79h0c-2.15-1.7-20.4-4.48-24.06-12.6-.22-3.67-.67-7.39-1.39-10.41-.16-.7-.34-1.35-.53-1.97-.28-.88-.65-1.81-1.1-2.76Z"/>
    <path class="cls-3" d="m211.02,134.92c-3.05,1.43-5.74,2.42-7.09,2.77-1.47.37-5.55.96-10.62,1.6,11.43-6.6,19.95-9.31,23.21-16.02h0c.81-.23,1.58-.54,2.28-.92.97-.47,2.23-1.17,3.61-2.02,0,0,2.45-.6,3.69.55.11,1.18-.23,2.37-.91,3.54-.36.64-.83,1.27-1.37,1.89h0c-2.53,2.9-6.79,5.58-10.79,7.61-.68.35-1.36.68-2.02.99Z"/>
    <path class="cls-6" d="m190.48,118.5l.08-.28c0-.56-.47-3.21-1.07-5.64,3.16,3.3,19.04,3.55,24.01,3.15-1.6,1.29-3.04,8.23-3.04,8.23v.06c-3.25-.03-6.39-.6-8.33-1.25l-.06-.29c-7.64,1.38-20.91,2.6-30.95,2.49,2.53-2.95,6.39-7.94,9.28-11.64,2.83,1.68,5.72,3.96,10.07,5.17Z"/>
    <path class="cls-3" d="m188.75,139.86s0,0-.02,0c-2.53.3-5.16.61-7.72.89-3.07-.35-7.13-11.09-10.84-16.32.45.36.79.54.96.54,10.04.11,23.3-1.11,30.95-2.49l.06.29c1.94.65,5.08,1.21,8.33,1.25,2.07.02,4.18-.19,6.06-.74-3.26,6.7-11.77,9.42-23.21,16.02-1.45.19-2.99.37-4.57.56Z"/>
    <path class="cls-6" d="m190.56,118.22l-.08.28c-4.36-1.21-7.25-3.49-10.07-5.17,1.97-2.53,3.48-4.47,3.81-4.75.57-.48,1.69-1.03,2.69-.79h0c.43.1.83.34,1.16.79.46.63.97,2.25,1.41,3.99h0c.6,2.44,1.07,5.09,1.07,5.65Z"/>
    <path class="cls-1" d="m180.41,113.33c-2.89,3.71-6.74,8.7-9.28,11.64-.18,0-.51-.18-.96-.54-1.87-1.47-5.85-5.98-9.51-13.29l1.38-1.33c.88-2.17,1.21-8.32.83-14.63,3.66,8.12,21.91,10.9,24.06,12.6-1-.23-2.11.32-2.69.79-.33.28-1.85,2.22-3.81,4.75Z"/>
    <path class="cls-1" d="m170.16,124.43c3.72,5.23,7.77,15.98,10.84,16.32-7.05.79-13.61,1.46-16.22,1.66-3.72-.34-10.75-11.79-10.75-11.79,1.65-.96,1.1-2.41.69-3.89-.4-1.43-3.47-8.16-5.72-12.22l.49-.25s5.1-.72,11.17-3.12c3.67,7.31,7.64,11.82,9.51,13.29Z"/>
    <path class="cls-1" d="m132.37,59.48c.89-.72,1.77-1.63,2.65-2.72.62-1.65,1.07-3.34,1.07-3.34v-.04c1.06-.08,2.08-.36,3-.85,8.62,10.24,17.19,19.98,20.74,27.52.45.96.83,1.88,1.1,2.76.19.62.37,1.27.53,1.97.72,3.02,1.17,6.74,1.39,10.41.38,6.31.06,12.46-.83,14.63l-1.38,1.33c-6.06,2.4-11.17,3.12-11.17,3.12l-.49.25c-.07-.13-.14-.26-.21-.38-1.41-2.49-3.31-4.19-5.24-3.23-1.94.96-11.32,2.27-11.61,5.45-.66-.28-1.12-.1-1.16.56,0,.2.02.45.1.74-2.89.3-2.48,4.09-1.65,6.88s3.14,10.65,3.14,10.65c.22,3.73,3.51,10.54,6.63,15.55-.95.67-10.39,1.03-10.39,1.03l-13.17-20.16c-2.46.29-5.06.51-7.6.63-1.17.06-2.32.1-3.46.11v-.11c-1.04-1.38-3.27-3.43-6-5.57-1.26-.98-2.64-1.99-4.05-2.95l-.11.16c-17.59,14.7-34.1,19.17-45.5,20.72-5.75.78-10.2.83-12.83,1.07-7.86.72-7.34-2.38-6.93-4.45.33-1.68,3.47-6.36,5.19-9.12.4-.63.71-1.17.91-1.53,1.04-1.97,10.34-13.34,14.06-15.2,2.98-1.49,7.1-.45,16.23-.63v-.4s-1.13-8.28-1.13-8.28l-24.21,7.6-.11-.32c-2.37-3.61.06-6.85.87-10.09,2.91-.36,5.98-.89,9.06-1.43.93-.16,1.86-.32,2.79-.49,2.87-.5,5.7-.98,8.4-1.32-.15-.91-.26-1.98-.32-3.1-.07-1.2-.09-2.45-.06-3.64.02-.79.05-1.54.11-2.22l.02-.1c.11.04.19.09.24.13l.46-2.2c1.94-7.17,10.27-21.57,10.27-21.57l.74-1.68,5.05,2.2h.03c.05-.98.15-1.9.28-2.78.19-1.19.44-2.29.74-3.32.44-1.47,1-2.77,1.63-3.94.7-1.3,1.51-2.45,2.36-3.46.75-.91,1.56-1.7,2.37-2.42.84-.74,1.68-1.38,2.5-1.97,1.26-.9,2.82-1.53,4.55-2,1.36-.36,2.83-.63,4.32-.85,1.64-.24,3.32-.43,4.96-.63,1.54-.19,3.04-.38,4.43-.65,0,0,.45.81,1.17,1.99v.02c1.61,2.66,4.54,7.23,6.68,8.95,2.79,2.23,10.91,9.2,18.79,2.72Z"/>
    <path class="cls-1" d="m164.79,142.41c-2.9,3.24-11.44,4.89-11.44,4.89l-.98.31c-2.98-5.81-6.19-13.52-6.19-13.52l-.79.06v-.07c.45-.02,1.09-.16,2.03-.42,3.45-.96,4.96-2.07,6.62-3.04,0,0,7.03,11.45,10.75,11.79Z"/>
    <path class="cls-4" d="m154.72,126.73c.41,1.48.96,2.93-.69,3.89s-3.17,2.07-6.62,3.04c-.95.26-1.58.4-2.04.42-1.22.07-1.34-.55-3.34-1.25l-6.48-11.94c-.98-2.17-2.15-3.57-3.08-4.23-.19-.14-.37-.24-.54-.32.29-3.18,9.68-4.49,11.61-5.45,1.93-.96,3.83.74,5.24,3.23.07.12.14.25.21.38,2.25,4.06,5.33,10.79,5.72,12.22Zm-2.62,1.55c.41-.83-5.24-11.76-5.65-12.56-.71-1.38-4.41.57-8.27,1.92,0,0,5.92,13.91,6.89,13.65.96-.26,6.62-2.19,7.03-3.01Z"/>
    <path class="cls-4" d="m156.37,153.78c-.41.13-1.81.33-3.59.57-2.19-1.6-9.3-16.28-10.29-19.97l2.89-.23.79-.06s3.21,7.71,6.19,13.52c1.56,3.04,3.06,5.55,4.01,6.17Z"/>
    <path class="cls-4" d="m146.46,115.73c.41.8,6.06,11.73,5.65,12.56s-6.06,2.75-7.03,3.01c-.97.26-6.89-13.65-6.89-13.65,3.85-1.35,7.55-3.3,8.27-1.92Z"/>
    <path class="cls-4" d="m152.79,154.35c-1.02.14-2.16.28-3.3.42h0c-5.03-6.15-10.49-20.11-10.49-20.11l3.5-.28c1,3.68,8.11,18.37,10.29,19.97Z"/>
    <path class="cls-4" d="m149.48,154.76h0c-1.37.17-2.74.33-3.91.46-8.28-13.25-10.08-20.29-10.08-20.29l3.51-.28s5.46,13.97,10.49,20.1Z"/>
    <path class="cls-2" d="m148.14,24.92c.73,3.62-1.3,7.13-1.3,7.13l-.62-9.24s-8.34-1.51-10.51-1.55c-1.24,3.24-6.06,8.34-6.48,8.62s-2.57,4.45-3.93,4.45c-1.04-4.96-1.34-6.83-3.3-6.93-1.3.75-2.14,2.13-2.33,3.81l-2.3-.28v-.07c-.02-.7,2.36-7.72,2.36-7.72l-.62-.83c-.36-.48-.86-1.83-1.13-3.46l1.93-.28c.14.98.43,1.63.93,1.39,0,0,3.24-3.27,4.02-3.94.77-.66-.21-1.54-1.25-2.11-1.03-.57-2.68-1.24-3.26-.93-.07.04-.14.19-.2.41l-1.7-.45c.81-2.02,2.24-3.7,3.56-5.17,1.76-1.97,4.44-2.07,5.89-2.07s1.91,1.4,2.23,3.26c.15.95,1.31.75,2.28.05.91-.68,1.64-1.86,1.64-1.86,0,0,3.99-5.47,5.03-6.4s4.14,1.1,3.41,3.17c-.52,1.04-4.27,6.23-4.27,6.23h5.92v1.86h-2.89c1.04.62,6.2,9.3,6.92,12.92Zm-15.11-7.93c-2.57-.96-7.32,2.06-10.28,5.03,0,0,3.04,3.17,5.86,5.93,1.3-.83,3.73-5.17,4.42-10.96Z"/>
    <path class="cls-7" d="m139.09,52.52c-.92.49-1.94.77-3,.85-1.49.13-3.05-.14-4.54-.74-14.96,5.9-17.82-5.29-19.06-9.9l1.28-.69,2.4-1.28,5.21-2.51s-.62-1.34-1.45-4.24c-.28-.99-.36-1.94-.26-2.81.19-1.68,1.04-3.05,2.33-3.81,1.96.11,2.27,1.97,3.3,6.93,1.36,0,3.51-4.17,3.93-4.45s5.24-5.38,6.48-8.62c2.17.03,10.51,1.55,10.51,1.55l.62,9.24c-1.34,7.34-3,16.3-6.17,19.33-.49.46-1.01.84-1.58,1.14Z"/>
    <path class="cls-4" d="m145.38,134.08v.07s-2.88.23-2.88.23l-3.5.28-3.51.28-3.13.24s-2.32-7.85-3.14-10.65-1.24-6.58,1.65-6.88c.7,2.65,6.06,13.12,7.31,13.94,1.24.83,3.85,1.25,3.85,1.25,2,.7,2.11,1.32,3.34,1.25Z"/>
    <path class="cls-4" d="m145.57,155.22c-1.79.2-3.08.35-3.08.35-1-1.11-2.23-2.83-3.5-4.85-3.13-5-6.41-11.81-6.63-15.55l3.13-.24s1.8,7.04,10.08,20.29Z"/>
    <path class="cls-4" d="m135.56,120.89l6.48,11.94s-2.62-.42-3.85-1.25c-1.25-.83-6.62-11.3-7.31-13.94-.07-.29-.11-.53-.1-.74,1.1-.14,1.7-.24,1.7-.24.94.66,2.11,2.06,3.08,4.23Z"/>
    <path class="cls-1" d="m136.08,53.37v.04s-.45,1.69-1.07,3.34c-.87,1.09-1.76,2-2.65,2.72-7.88,6.48-16-.49-18.79-2.72-2.14-1.72-5.07-6.28-6.68-8.95v-.02c-.72-1.18-1.17-1.99-1.17-1.99,0,0,.15-.16.45-.42.61-.52,1.81-1.41,3.56-2.03.8-.28,1.72-.51,2.74-.62,1.24,4.62,4.11,15.81,19.06,9.9,1.49.6,3.05.87,4.54.74Z"/>
    <path class="cls-5" d="m122.75,22.02c2.96-2.96,7.72-5.99,10.28-5.03-.69,5.79-3.12,10.13-4.42,10.96-2.83-2.75-5.86-5.93-5.86-5.93Z"/>
    <path class="cls-1" d="m115.44,131.59l13.17,20.16h-8.89l-11.88-19.53c2.54-.12,5.14-.34,7.6-.63Z"/>
    <path class="cls-5" d="m123.59,13.91c1.04.57,2.02,1.45,1.25,2.11-.78.66-4.02,3.94-4.02,3.94-.5.23-.79-.41-.93-1.39-.22-1.63-.04-4.16.24-5.17.06-.23.13-.37.2-.41.57-.31,2.23.36,3.26.93Z"/>
    <path class="cls-2" d="m121.37,38.25l-5.21,2.51,1.21-9.85,2.3.28c-.1.87-.02,1.82.26,2.81.83,2.9,1.45,4.24,1.45,4.24Z"/>
    <path class="cls-2" d="m118.43,12.93l1.7.45c-.28,1.01-.46,3.55-.24,5.17l-1.93.28c-.19-1.18-.28-2.52-.11-3.77.11-.74.3-1.46.57-2.13Z"/>
    <path class="cls-3" d="m93.33,148.7c-9.43-2.62-12.87-8.73-13.15-9.26,4-2.64,8.29-5.54,11.93-8.11,2.57.79,7.17,1.1,12.28,1.01,1.13-.02,2.29-.06,3.46-.11l11.88,19.53s-13.34-1.24-21.13-2.06c-1.94-.2-3.68-.55-5.26-1Z"/>
    <path class="cls-4" d="m112.89,33.19l.87,8.86-1.28.69c-1.03.11-1.94.33-2.74.62l-1.89-10.16-.11-.61c1.94-.2,3.74-.15,5.17.61Z"/>
    <path class="cls-4" d="m107.84,33.19l1.89,10.16c-1.75.62-2.96,1.51-3.56,2.03l-.45-.62-2.04-11.3,4.15-.28Z"/>
    <path class="cls-4" d="m105.73,44.76l.45.62c-.29.26-.45.42-.45.42-1.39.27-2.89.46-4.43.65l-3.65-12.65-.25-.88c0-.24,5.03-.93,5.99-.56l.3,1.11,2.04,11.3Z"/>
    <path class="cls-1" d="m104.38,132.22v.11c-5.11.09-9.7-.23-12.28-1.01,2.47-1.74,4.63-3.34,6.21-4.59l.06-.08c2.73,2.14,4.96,4.19,6,5.57Z"/>
    <path class="cls-4" d="m97.65,33.8l3.65,12.65c-1.64.2-3.32.39-4.96.63h0s-4.97-11.36-4.97-11.36c-.12-.28.02-.6.31-.7,1.21-.4,4.15-1.31,5.72-1.15l.25-.07Z"/>
    <path class="cls-6" d="m92.11,131.32c-3.64,2.57-7.93,5.47-11.93,8.11-1.61,1.05-3.18,2.06-4.64,3-4.19,2.68-7.51,4.67-8.54,5.08-.43.17-.79.32-1.1.44l-1.79.7s-11.79-.41-13.34-1.55c-1.38-1.01-1.94-2.25-2.05-2.51,11.4-1.55,27.91-6.02,45.5-20.72l.11-.16c1.41.96,2.79,1.97,4.05,2.95l-.06.08c-1.58,1.26-3.74,2.85-6.21,4.59Z"/>
    <path class="cls-4" d="m96.34,47.07h0c-1.5.23-2.96.49-4.32.86l-5.96-10.44-.5-.87c1.81-.94,3.57-1.67,5.27-2.12l.54,1.22,4.97,11.35Z"/>
    <path class="cls-4" d="m86.06,37.49l5.96,10.44c-1.73.47-3.3,1.1-4.55,2l-6.21-9.47c1.43-1.28,3.05-2.23,4.8-2.97Z"/>
    <path class="cls-3" d="m93.33,148.7c-1.05.15-4.4.62-8.25.86-4.14-1.42-9.21-6.78-9.54-7.13,1.46-.93,3.03-1.94,4.64-3,.28.53,3.72,6.64,13.15,9.26Z"/>
    <path class="cls-4" d="m81.26,40.46l6.21,9.47c-.82.58-1.66,1.23-2.5,1.97l-8.4-8.55-.61-.62c.57-1.17,2.31-2.27,4.61-3.33l.7,1.06Z"/>
    <path class="cls-4" d="m76.56,43.35l8.4,8.55c-.81.72-1.62,1.51-2.37,2.42l-9.69-7.55s2.34-3.26,3.66-3.43Z"/>
    <path class="cls-3" d="m85.08,149.56c-.74.06-1.5.09-2.27.12-5.49.21-16.56-1.67-16.91-1.73.31-.12.67-.27,1.1-.44,1.04-.4,4.36-2.4,8.54-5.08.32.35,5.4,5.71,9.54,7.13Z"/>
    <path class="cls-4" d="m72.9,46.77l9.69,7.55c-.86,1.01-1.66,2.15-2.36,3.46l-10.49-7.94-.69-.53c.62-1.74,1.67-2.74,3.05-3.17l.8.62Z"/>
    <path class="cls-4" d="m69.74,49.84l10.49,7.94c-.63,1.17-1.19,2.48-1.63,3.94l-12-7.68c.74-1.6,1.65-3.08,3.13-4.19Z"/>
    <path class="cls-4" d="m66.6,54.04l12,7.68c-.31,1.03-.56,2.13-.74,3.32l-14.35-7.03-.91-.45c.87-1.75,1.88-3.15,3.03-4.15l.98.62Z"/>
    <path class="cls-4" d="m63.51,58.01l14.35,7.03c-.14.87-.23,1.8-.28,2.78h-.03l-5.05-2.2-10.24-4.46c.02-1.09.41-2.14,1.26-3.14Z"/>
    <path class="cls-1" d="m65.35,114.33v.4c-9.13.18-13.25-.86-16.23.63-3.72,1.86-13.03,13.23-14.06,15.2-.19.36-.51.9-.91,1.53l-.53-.5-4.66-14.47,11.06-3.47,24.21-7.6,1.12,8.28Z"/>
    <path class="cls-2" d="m61.48,88.87l-.46,2.2c-.06-.04-.14-.09-.24-.13-1.42-.57-7.39-1.33-14.62-1.8h-.02c-2.69-.19-5.55-.32-8.42-.4-8.24-.21-16.52.11-20.75,1.5,1.46.46,2.91.93,4.38,1.39,10.15,3.23,21.13,6.44,31.28,9.68-.92.16-1.85.32-2.79.49l-.02-.11-33.34-10.06s-13.85-4.48-15.03-4.96c-1.17-.48-1.51-2.54.35-1.58s13.09,2.34,21.98,1.85c8.31-.45,25.46-.23,37.69,1.94Z"/>
    <path class="cls-2" d="m60.7,96.89h0l-22.98-7.76v-.39c2.87.08,5.74.21,8.43.39h.02s14.48,4.12,14.48,4.12h0c-.03,1.18-.02,2.44.06,3.64Z"/>
  </g>
  <g>
    <path class="cls-8" d="m122.75,22.02c2.96-2.96,7.72-5.99,10.28-5.03-.69,5.79-3.12,10.13-4.42,10.96-2.83-2.75-5.86-5.93-5.86-5.93Z"/>
    <path class="cls-8" d="m119.72,23.13l-.62-.83c-.36-.48-.86-1.83-1.13-3.46-.19-1.18-.28-2.52-.11-3.77.11-.74.3-1.46.57-2.13.81-2.02,2.24-3.7,3.56-5.17,1.76-1.97,4.44-2.07,5.89-2.07s1.91,1.4,2.23,3.26c.15.95,1.31.75,2.28.05.91-.68,1.64-1.86,1.64-1.86,0,0,3.99-5.47,5.03-6.4s4.14,1.1,3.41,3.17c-.52,1.04-4.27,6.23-4.27,6.23h5.92v1.86h-2.89c1.04.62,6.2,9.3,6.92,12.92.73,3.62-1.3,7.13-1.3,7.13l-.62-9.24s-8.34-1.51-10.51-1.55c-1.24,3.24-6.06,8.34-6.48,8.62s-2.57,4.45-3.93,4.45c-1.04-4.96-1.34-6.83-3.3-6.93-1.3.75-2.14,2.13-2.33,3.81-.1.87-.02,1.82.26,2.81.83,2.9,1.45,4.24,1.45,4.24l-5.21,2.51-2.4,1.28-1.28.69c1.24,4.62,4.11,15.81,19.06,9.9"/>
    <path class="cls-8" d="m119.89,18.56c.14.98.43,1.63.93,1.39,0,0,3.24-3.27,4.02-3.94.77-.66-.21-1.54-1.25-2.11-1.03-.57-2.68-1.24-3.26-.93-.07.04-.14.19-.2.41-.28,1.01-.46,3.55-.24,5.17Z"/>
    <path class="cls-8" d="m146.84,32.05c-1.34,7.34-3,16.3-6.17,19.33-.49.46-1.01.84-1.58,1.14-.92.49-1.94.77-3,.85-1.49.13-3.05-.14-4.54-.74-1.02-.4-2.02-.97-2.93-1.67"/>
    <line class="cls-8" x1="130.46" y1="33.19" x2="135.32" y2="33.19"/>
    <path class="cls-8" d="m141.73,31.32s.31,7.34,0,8.89c-.31,1.55.2,1.82-1.24,2.52-1.45.69-3.62.69-3.51-1.07"/>
    <line class="cls-8" x1="142.94" y1="34.5" x2="145.56" y2="34.5"/>
    <line class="cls-8" x1="136.53" y1="25.95" x2="139.08" y2="25.95"/>
    <line class="cls-8" x1="143.63" y1="26.43" x2="146.04" y2="26.43"/>
    <line class="cls-8" x1="136.08" y1="47.3" x2="139.53" y2="47.3"/>
    <path class="cls-8" d="m106.9,47.79c-.72-1.18-1.17-1.99-1.17-1.99,0,0,.15-.16.45-.42.61-.52,1.81-1.41,3.56-2.03.8-.28,1.72-.51,2.74-.62"/>
    <path class="cls-8" d="m136.08,53.41s-.45,1.69-1.07,3.34c-.87,1.09-1.76,2-2.65,2.72-7.88,6.48-16-.49-18.79-2.72-2.14-1.72-5.07-6.28-6.68-8.95"/>
    <path class="cls-8" d="m132.37,59.48c5.68,5.27,15.33,15.06,16.7,31.04"/>
    <path class="cls-8" d="m139.08,52.51h0c8.62,10.25,17.19,19.98,20.74,27.53.45.96.83,1.88,1.1,2.76.19.62.37,1.27.53,1.97.72,3.02,1.17,6.74,1.39,10.41.38,6.31.06,12.46-.83,14.63"/>
    <path class="cls-8" d="m140.67,51.38c9.64.62,13.99.62,17.51,3.93,3.51,3.31,18.19,19.75,21.7,19.69,3.52-.05,12.25,8.62,13.44,13.38"/>
    <path class="cls-8" d="m169.13,90.52c8.47.8,17.51-.79,24.24-1.7,1.32-.19,2.55-.33,3.67-.44,6.82-.62,12.61-1.24,15.19-.52,2.58.73,6.41,4.45,8.58,7.45,2.17,3,9.72,15.08,9.72,15.08"/>
    <path class="cls-8" d="m186.91,107.78c-1-.23-2.11.32-2.69.79-.33.28-1.85,2.22-3.81,4.75-2.89,3.71-6.74,8.7-9.28,11.64,10.04.11,23.3-1.11,30.95-2.49,2.22-.4,3.97-.82,5.02-1.22"/>
    <path class="cls-8" d="m189.48,112.57c-.44-1.74-.95-3.36-1.41-3.99-.32-.45-.73-.7-1.16-.79"/>
    <path class="cls-8" d="m190.56,118.22c0-.56-.47-3.21-1.07-5.64"/>
    <path class="cls-8" d="m216.52,123.28c-1.88.55-3.98.75-6.06.74-3.25-.03-6.39-.6-8.33-1.25"/>
    <path class="cls-8" d="m189.48,112.57h0c3.16,3.3,19.04,3.56,24.01,3.16.44-.04.79-.08,1.04-.12,3.17-.55,13.92-3.86,13.92-3.86.6-.15,1.45-.39,2.22-.51,1.36-.23,2.47-.11,1.51,1.47-1.12,1.84-5.86,5.26-9.76,7.64-1.38.84-2.64,1.55-3.61,2.02-.7.38-1.47.69-2.28.92"/>
    <path class="cls-8" d="m210.46,123.95s1.44-6.94,3.04-8.23"/>
    <path class="cls-8" d="m180.4,113.32s0,0,0,0c2.83,1.68,5.72,3.96,10.07,5.17,2.8.79,6.22,1.13,10.62.55"/>
    <path class="cls-8" d="m106.9,47.79v.02c4,15.03,11.85,36.1,12.82,48.23"/>
    <path class="cls-8" d="m104.14,69.88l-9.78-10.4-6.89,4.03c8.68,5.93,21.77,12.57,22.6,17.66l.83,5.08"/>
    <path class="cls-8" d="m115.44,96.03s0-.02,0-.06c-.51-2.85-27.16-2.6-29.21-7.59"/>
    <path class="cls-8" d="m89.81,79.49s20.4,5.62,22.67,8.05c2.13,2.28,2.87,7.75,2.96,8.43"/>
    <path class="cls-8" d="m171.13,124.97c-.18,0-.51-.18-.96-.54-1.87-1.47-5.85-5.98-9.51-13.29-6.06,2.4-11.17,3.12-11.17,3.12"/>
    <path class="cls-8" d="m162.85,95.18c3.66,8.12,21.91,10.9,24.06,12.6h0"/>
    <path class="cls-8" d="m105.73,45.8c-1.39.27-2.89.46-4.43.65-1.64.2-3.32.39-4.96.63-1.5.22-2.96.49-4.32.85-1.73.47-3.3,1.1-4.55,2-.82.58-1.66,1.23-2.5,1.97-.81.72-1.62,1.51-2.37,2.42-.86,1.01-1.66,2.15-2.36,3.46-.63,1.17-1.19,2.48-1.63,3.94-.31,1.03-.56,2.13-.74,3.32-.14.87-.23,1.8-.28,2.78-.02.17-.02.34-.03.52"/>
    <path class="cls-8" d="m71.75,67.3s-8.33,14.4-10.27,21.57"/>
    <polyline class="cls-8" points="105.73 44.76 103.69 33.47 107.84 33.19"/>
    <path class="cls-8" d="m101.3,46.45l-3.65-12.65-.25-.88c0-.24,5.03-.93,5.99-.56l.3,1.11"/>
    <path class="cls-8" d="m96.34,47.07l-4.97-11.35c-.12-.28.02-.6.31-.7,1.21-.4,4.15-1.31,5.72-1.15"/>
    <path class="cls-8" d="m92.03,47.94h0s-5.96-10.45-5.96-10.45l-.5-.87c1.81-.94,3.57-1.67,5.27-2.12l.54,1.22"/>
    <path class="cls-8" d="m87.47,49.93l-6.21-9.47-.7-1.06c-2.3,1.06-4.03,2.15-4.61,3.33l.61.62,8.4,8.55"/>
    <path class="cls-8" d="m82.59,54.32l-9.69-7.55-.8-.62c-1.38.42-2.43,1.43-3.05,3.17l.69.53,10.49,7.94"/>
    <path class="cls-8" d="m78.6,61.72l-12-7.68-.98-.62c-1.15,1-2.15,2.4-3.03,4.15l.91.45,14.35,7.03"/>
    <path class="cls-8" d="m113.76,42.04l-.87-8.86c-1.43-.76-3.23-.81-5.17-.61l.11.61,1.89,10.16"/>
    <path class="cls-8" d="m86.06,37.49c-1.75.74-3.38,1.69-4.8,2.97"/>
    <path class="cls-8" d="m72.9,46.77s2.34-3.26,3.66-3.43"/>
    <path class="cls-8" d="m66.6,54.04c.74-1.6,1.65-3.08,3.13-4.19"/>
    <path class="cls-8" d="m63.51,58.01c-.85,1-1.24,2.05-1.26,3.14l10.24,4.46,5.05,2.2"/>
    <polyline class="cls-8" points="64.83 105.86 64.23 106.04 40.02 113.65 28.96 117.12 33.61 131.59"/>
    <polyline class="cls-8" points="64.21 105.86 64.23 106.04 65.35 114.33"/>
    <path class="cls-8" d="m115.44,96.03l2.41,2.94-.62,3.88c-4.45-2.79-7.55-4.54-7.55-4.54-16.53,8.68-21.81,14.78-36.59,16.02-2.92.25-5.48.36-7.74.4-9.13.18-13.25-.86-16.23.63-3.72,1.86-13.03,13.23-14.06,15.2-.19.36-.51.9-.91,1.53-1.72,2.75-4.86,7.43-5.19,9.12-.41,2.06-.93,5.17,6.93,4.45,2.63-.24,7.08-.29,12.83-1.07,11.4-1.55,27.91-6.02,45.5-20.72"/>
    <path class="cls-8" d="m110.31,104.68l-24.81,14.04c2.7,1.09,5.85,2.95,8.83,4.98,1.41.96,2.79,1.97,4.05,2.95,2.73,2.14,4.96,4.19,6,5.57"/>
    <path class="cls-8" d="m98.32,126.73c-1.58,1.26-3.74,2.85-6.21,4.59-3.64,2.57-7.93,5.47-11.93,8.11-1.61,1.05-3.18,2.06-4.64,3-4.19,2.68-7.51,4.67-8.54,5.08-.43.17-.79.32-1.1.44l-1.79.7s-11.79-.41-13.34-1.55c-1.38-1.01-1.94-2.25-2.05-2.51,0-.03-.02-.05-.02-.05"/>
    <path class="cls-8" d="m65.89,147.94h0c.36.06,11.42,1.94,16.91,1.73.77-.03,1.52-.06,2.27-.12,3.85-.24,7.2-.7,8.25-.86.22-.03.34-.05.34-.05"/>
    <path class="cls-8" d="m75.53,142.41l.02.02c.32.35,5.4,5.71,9.54,7.13.15.06.28.1.42.14"/>
    <path class="cls-8" d="m80.16,139.39s0,.02.02.04c.28.53,3.72,6.64,13.15,9.26,1.58.45,3.33.79,5.26,1,7.79.82,21.13,2.06,21.13,2.06h8.89l-13.17-20.16c-2.46.29-5.06.51-7.6.63-1.17.06-2.32.1-3.46.11-5.11.09-9.7-.23-12.28-1.01-.03,0-.06-.02-.08-.02"/>
    <line class="cls-8" x1="107.84" y1="132.22" x2="119.72" y2="151.75"/>
    <path class="cls-8" d="m142.04,132.84s-2.62-.42-3.85-1.25c-1.25-.83-6.62-11.3-7.31-13.94-.07-.29-.11-.53-.1-.74.04-.66.49-.84,1.16-.56.17.07.35.18.54.32.94.66,2.11,2.06,3.08,4.23l6.48,11.94Z"/>
    <path class="cls-8" d="m142.04,132.84c2,.7,2.11,1.32,3.34,1.25.46-.02,1.09-.16,2.04-.42,3.45-.96,4.96-2.07,6.62-3.04s1.1-2.41.69-3.89c-.4-1.43-3.47-8.16-5.72-12.22-.07-.13-.14-.26-.21-.38-1.41-2.49-3.31-4.19-5.24-3.23-1.94.96-11.32,2.27-11.61,5.45"/>
    <path class="cls-8" d="m146.46,115.73c.41.8,6.06,11.73,5.65,12.56s-6.06,2.75-7.03,3.01c-.97.26-6.89-13.65-6.89-13.65,3.85-1.35,7.55-3.3,8.27-1.92Z"/>
    <path class="cls-8" d="m130.88,117.65c-2.89.3-2.48,4.09-1.65,6.88s3.14,10.65,3.14,10.65l3.13-.24,3.51-.28,3.5-.28,2.89-.23.79-.06s3.21,7.71,6.19,13.52c1.56,3.04,3.06,5.55,4.01,6.17-.41.13-1.81.33-3.59.57-1.02.14-2.16.28-3.3.42-1.37.16-2.74.32-3.91.45-1.79.2-3.08.35-3.08.35-1-1.11-2.23-2.83-3.5-4.85-3.13-5-6.41-11.81-6.63-15.55"/>
    <path class="cls-8" d="m223.84,126.33c.54-.62,1-1.26,1.37-1.89.67-1.17,1.01-2.36.91-3.54-1.24-1.15-3.69-.55-3.69-.55"/>
    <path class="cls-8" d="m188.75,139.86c1.58-.19,3.12-.37,4.57-.56,5.06-.64,9.15-1.23,10.62-1.6,1.35-.35,4.04-1.34,7.09-2.77.66-.31,1.34-.64,2.02-.99,4.01-2.03,8.27-4.71,10.79-7.61"/>
    <path class="cls-8" d="m154.03,130.62s7.03,11.45,10.75,11.79c2.61-.2,9.17-.87,16.22-1.66,2.57-.28,5.2-.59,7.72-.89"/>
    <path class="cls-8" d="m128.61,151.75s9.44-.36,10.39-1.03"/>
    <path class="cls-8" d="m153.35,147.3s8.54-1.65,11.44-4.89"/>
    <path class="cls-8" d="m135.49,134.93s1.8,7.04,10.08,20.29c.02.03.03.06.06.1"/>
    <path class="cls-8" d="m139,134.66s5.46,13.97,10.49,20.1"/>
    <path class="cls-8" d="m142.5,134.38c1,3.68,8.11,18.37,10.29,19.97"/>
    <path class="cls-8" d="m132.48,116.67s-.6.11-1.7.24c-1.99.26-5.62.63-10.23.74"/>
    <path class="cls-8" d="m69.74,102.93s26.79-2.95,30.81-3.95"/>
    <path class="cls-8" d="m161.46,84.77s10.77-5.97,11.59-8.03"/>
    <path class="cls-8" d="m157.35,67.82l1.1-4.9,6.34,4.9s-4.96,9.2-4.96,12.23"/>
    <path class="cls-8" d="m223.83,126.33h0c4.43,1.03,16.1,4.24,20.85,12.61l-.11.93-31.55-5.93"/>
    <path class="cls-8" d="m211.01,134.92h0c.68.13,32.25,6.02,35.01,7.49,2.79,1.48,9.3,4.57,9.61,4.89.31.31,1.47-1.42.32-3.49-1.13-2.06-5.6-3.34-10.04-8.19s-13.13-9.66-20.72-11.19"/>
    <path class="cls-8" d="m60.76,91.04c-.06.68-.1,1.43-.11,2.22-.03,1.18-.02,2.44.06,3.64.06,1.13.17,2.19.32,3.1-2.7.34-5.53.82-8.4,1.32-.92.16-1.85.32-2.79.49-3.08.54-6.15,1.07-9.06,1.43-.81,3.24-3.24,6.48-.87,10.09"/>
    <path class="cls-8" d="m46.16,89.14c7.23.47,13.21,1.22,14.62,1.8.11.04.19.09.24.13l.46-2.2c-12.23-2.16-29.38-2.38-37.69-1.94-8.89.49-20.12-.89-21.98-1.85s-1.51,1.1-.35,1.58c1.17.49,15.03,4.96,15.03,4.96l33.34,10.06"/>
    <path class="cls-8" d="m52.63,101.31h0c-10.15-3.24-21.13-6.45-31.28-9.68-1.47-.46-2.92-.93-4.38-1.39,4.23-1.39,12.51-1.71,20.75-1.5,2.87.08,5.73.21,8.42.39"/>
    <polyline class="cls-8" points="60.63 93.26 46.16 89.14 46.14 89.14"/>
    <line class="cls-8" x1="37.71" y1="89.14" x2="60.69" y2="96.89"/>
    <path class="cls-8" d="m193.31,139.3c11.43-6.6,19.95-9.31,23.21-16.02h0"/>
    <path class="cls-8" d="m201.1,127.18s-10.96,12.32-12.36,12.67t-.02,0"/>
    <path class="cls-8" d="m170.16,124.43c3.72,5.23,7.77,15.98,10.84,16.32"/>
    <path class="cls-8" d="m116.16,40.76l1.21-9.85v-.07c-.02-.7,2.36-7.72,2.36-7.72"/>
  </g>
</svg>