<?xml version="1.0" encoding="UTF-8"?>
<svg xmlns="http://www.w3.org/2000/svg" viewBox="0 0 269.05 217.87">
  <defs>
    <style>
      .cls-1 {
        stroke-miterlimit: 10;
      }

      .cls-1, .cls-2, .cls-3 {
        stroke: #000;
      }

      .cls-1, .cls-3 {
        fill: none;
      }

      .cls-4 {
        fill: #f3edd7;
      }

      .cls-4, .cls-5, .cls-6, .cls-7, .cls-8, .cls-9, .cls-10, .cls-11 {
        stroke-width: 0px;
      }

      .cls-5 {
        fill: #a6e3db;
      }

      .cls-2, .cls-3 {
        stroke-linecap: round;
        stroke-linejoin: round;
      }

      .cls-2, .cls-6 {
        fill: #333;
      }

      .cls-7 {
        fill: #c696d0;
      }

      .cls-8 {
        fill: #fdf9af;
      }

      .cls-9 {
        fill: #f16251;
      }

      .cls-10 {
        fill: #d2d296;
      }

      .cls-11 {
        fill: #ffe6b1;
      }
    </style>
  </defs>
  <g id="_畳" data-name="畳">
    <g>
      <g>
        <rect class="cls-4" x=".24" y="183.4" width="3.6" height="5"/>
        <path class="cls-4" d="m268.8,210.84v6.53h-30.3l15.28-8.59c1.03,1.61,3.09,2.7,5.49,2.7s4.6-1.18,5.59-2.87l3.95,2.22Z"/>
        <path class="cls-4" d="m268.8,200.33v10.51l-3.95-2.22c.38-.65.59-1.37.59-2.13,0-1.3-.61-2.47-1.61-3.36l4.97-2.79Z"/>
        <path class="cls-4" d="m268.8,188.4v11.93l-4.97,2.79c-1.13-1-2.76-1.63-4.57-1.63s-3.29.58-4.42,1.5l-25.97-14.59h39.92Z"/>
        <polygon class="cls-4" points="268.8 99.11 268.8 104.85 1.13 104.85 .24 104.85 .24 99.11 268.8 99.11"/>
        <rect class="cls-4" x="264.83" y="183.4" width="3.97" height="5"/>
        <path class="cls-4" d="m265.44,206.49c0,.76-.21,1.49-.59,2.13l-5.39-3.03,4.37-2.46c.99.89,1.61,2.07,1.61,3.36Z"/>
        <path class="cls-4" d="m259.46,205.59l5.39,3.03c-.99,1.69-3.12,2.87-5.59,2.87s-4.46-1.1-5.49-2.7l5.69-3.2Z"/>
        <rect class="cls-6" x="253.58" y="183.4" width="11.25" height="5"/>
        <path class="cls-4" d="m263.84,203.12l-4.37,2.46-4.61-2.59c1.12-.92,2.69-1.5,4.42-1.5,1.81,0,3.44.63,4.57,1.63Z"/>
        <path class="cls-4" d="m259.46,205.59l-5.69,3.2c-.44-.68-.69-1.47-.69-2.3,0-1.37.67-2.59,1.76-3.49l4.61,2.59Z"/>
        <path class="cls-4" d="m228.88,188.4l25.97,14.59c-1.09.9-1.76,2.13-1.76,3.49,0,.83.25,1.62.69,2.3l-15.28,8.59h-41.28l-15.57-8.75c.38-.65.59-1.37.59-2.13,0-1.3-.61-2.47-1.61-3.35l26.21-14.73h22.04Zm-5.94,18.08c0-2.76-2.24-4.99-4.99-4.99s-5,2.24-5,4.99,2.24,5,5,5,4.99-2.24,4.99-5Z"/>
        <polygon class="cls-4" points="253.58 188.4 228.88 188.4 223.21 188.4 223.21 183.4 253.58 183.4 253.58 188.4"/>
        <rect class="cls-6" x="211.96" y="183.4" width="11.25" height="5"/>
        <path class="cls-6" d="m217.95,201.49c2.76,0,4.99,2.24,4.99,4.99s-2.24,5-4.99,5-5-2.24-5-5,2.24-4.99,5-4.99Z"/>
        <path class="cls-4" d="m206.84,188.4l-26.21,14.73c-1.13-1.01-2.76-1.64-4.57-1.64s-3.29.58-4.42,1.5l-25.97-14.59h61.16Z"/>
        <polygon class="cls-4" points="181.59 188.4 181.59 183.4 211.96 183.4 211.96 188.4 206.84 188.4 181.59 188.4"/>
        <path class="cls-4" d="m197.23,217.37h-41.92l15.28-8.59c1.03,1.61,3.1,2.7,5.49,2.7s4.6-1.18,5.59-2.87l15.57,8.75Z"/>
        <path class="cls-4" d="m182.24,206.49c0,.76-.21,1.49-.59,2.13l-5.39-3.03,4.37-2.45c.99.88,1.61,2.06,1.61,3.35Z"/>
        <path class="cls-4" d="m176.26,205.59l5.39,3.03c-.99,1.69-3.12,2.87-5.59,2.87s-4.46-1.1-5.49-2.7l5.69-3.2Z"/>
        <rect class="cls-6" x="170.34" y="183.4" width="11.25" height="5"/>
        <path class="cls-4" d="m176.06,201.49c1.81,0,3.44.63,4.57,1.64l-4.37,2.45-4.61-2.59c1.12-.92,2.69-1.5,4.42-1.5Z"/>
        <path class="cls-4" d="m176.26,205.59l-5.69,3.2c-.44-.68-.69-1.47-.69-2.3,0-1.37.67-2.59,1.76-3.49l4.61,2.59Z"/>
        <path class="cls-4" d="m145.68,188.4l25.97,14.59c-1.09.9-1.76,2.13-1.76,3.49,0,.83.25,1.62.69,2.3l-15.28,8.59h-41.28l-15.57-8.75c.38-.65.59-1.37.59-2.13,0-1.3-.61-2.47-1.61-3.35l26.21-14.73h22.04Zm-6.98,18.08c0-2.76-2.24-4.99-4.99-4.99s-5,2.24-5,4.99,2.24,5,5,5,4.99-2.24,4.99-5Z"/>
        <polygon class="cls-4" points="170.34 188.4 145.68 188.4 139.96 188.4 139.96 183.4 170.34 183.4 170.34 188.4"/>
        <rect class="cls-6" x="128.71" y="183.4" width="11.25" height="5"/>
        <path class="cls-6" d="m133.71,201.49c2.76,0,4.99,2.24,4.99,4.99s-2.24,5-4.99,5-5-2.24-5-5,2.24-4.99,5-4.99Z"/>
        <path class="cls-4" d="m123.64,188.4l-26.21,14.73c-1.13-1.01-2.76-1.64-4.57-1.64s-3.29.58-4.42,1.5l-25.97-14.59h61.16Z"/>
        <polygon class="cls-4" points="128.71 188.4 123.64 188.4 98.34 188.4 98.34 183.4 128.71 183.4 128.71 188.4"/>
        <path class="cls-4" d="m114.02,217.37h-41.92l15.28-8.59c1.03,1.61,3.09,2.7,5.49,2.7s4.6-1.18,5.59-2.87l15.57,8.75Z"/>
        <path class="cls-4" d="m99.04,206.49c0,.76-.21,1.49-.59,2.13l-5.39-3.03,4.37-2.45c.99.88,1.61,2.06,1.61,3.35Z"/>
        <path class="cls-4" d="m93.06,205.59l5.39,3.03c-.99,1.69-3.12,2.87-5.59,2.87s-4.46-1.1-5.49-2.7l5.69-3.2Z"/>
        <rect class="cls-6" x="87.09" y="183.4" width="11.25" height="5"/>
        <path class="cls-4" d="m92.86,201.49c1.81,0,3.44.63,4.57,1.64l-4.37,2.45-4.61-2.59c1.12-.92,2.69-1.5,4.42-1.5Z"/>
        <path class="cls-4" d="m93.06,205.59l-5.69,3.2c-.44-.68-.69-1.47-.69-2.3,0-1.37.67-2.59,1.76-3.49l4.61,2.59Z"/>
        <path class="cls-4" d="m62.48,188.4l25.97,14.59c-1.09.9-1.76,2.13-1.76,3.49,0,.83.25,1.62.69,2.3l-15.28,8.59H30.63l-15.57-8.75c.38-.65.59-1.37.59-2.13,0-1.3-.61-2.47-1.61-3.35l26.21-14.73h22.23Zm-8.49,18.08c0-2.76-2.24-4.99-4.99-4.99s-5,2.24-5,4.99,2.24,5,5,5,4.99-2.24,4.99-5Z"/>
        <polygon class="cls-4" points="87.09 188.4 62.48 188.4 56.72 188.4 56.72 183.4 87.09 183.4 87.09 188.4"/>
        <rect class="cls-6" x="45.47" y="183.4" width="11.25" height="5"/>
        <path class="cls-6" d="m49,201.49c2.76,0,4.99,2.24,4.99,4.99s-2.24,5-4.99,5-5-2.24-5-5,2.24-4.99,5-4.99Z"/>
        <polygon class="cls-4" points="45.47 188.4 40.25 188.4 15.1 188.4 15.1 183.4 45.47 183.4 45.47 188.4"/>
        <path class="cls-4" d="m30.63,217.37H.24v-6.49l3.74-2.1c1.03,1.61,3.1,2.7,5.49,2.7s4.6-1.18,5.59-2.87l15.57,8.75Z"/>
        <path class="cls-4" d="m15.65,206.49c0,.76-.21,1.49-.59,2.13l-5.39-3.03,4.37-2.45c.99.88,1.61,2.06,1.61,3.35Z"/>
        <rect class="cls-6" x="3.85" y="183.4" width="11.25" height="5"/>
        <path class="cls-4" d="m9.67,205.59l5.39,3.03c-.99,1.69-3.12,2.87-5.59,2.87s-4.46-1.1-5.49-2.7l5.69-3.2Z"/>
        <path class="cls-4" d="m9.47,201.49c1.81,0,3.44.63,4.57,1.64l-4.37,2.45-4.61-2.59c1.12-.92,2.69-1.5,4.42-1.5Z"/>
        <path class="cls-4" d="m9.67,205.59l-5.69,3.2c-.44-.68-.69-1.47-.69-2.3,0-1.37.67-2.59,1.76-3.49l4.61,2.59Z"/>
        <path class="cls-4" d="m.24,200.29l4.81,2.7c-1.09.9-1.76,2.13-1.76,3.49,0,.83.25,1.62.69,2.3l-3.74,2.1v-10.59Z"/>
        <polygon class="cls-10" points="211.96 183.4 181.59 183.4 170.34 183.4 139.96 183.4 128.71 183.4 98.34 183.4 87.09 183.4 56.72 183.4 45.47 183.4 15.1 183.4 3.85 183.4 .24 183.4 .24 104.85 1.13 104.85 268.8 104.85 268.8 183.4 264.83 183.4 253.58 183.4 223.21 183.4 211.96 183.4"/>
        <path class="cls-4" d="m.24,188.4h40.01l-26.21,14.73c-1.13-1.01-2.76-1.64-4.57-1.64s-3.29.58-4.42,1.5l-4.81-2.7v-11.89Z"/>
      </g>
      <g>
        <polyline class="cls-1" points="268.8 217.37 238.5 217.37 197.23 217.37 155.3 217.37 114.02 217.37 72.1 217.37 30.63 217.37 .24 217.37"/>
        <line class="cls-1" x1=".24" y1="99.11" x2="268.8" y2="99.11"/>
        <line class="cls-1" x1=".24" y1="104.85" x2="268.8" y2="104.85"/>
        <line class="cls-1" x1="264.83" y1="183.4" x2="268.8" y2="183.4"/>
        <line class="cls-1" x1="223.21" y1="183.4" x2="253.58" y2="183.4"/>
        <line class="cls-1" x1="181.59" y1="183.4" x2="211.96" y2="183.4"/>
        <line class="cls-1" x1="139.96" y1="183.4" x2="170.34" y2="183.4"/>
        <line class="cls-1" x1="98.34" y1="183.4" x2="128.71" y2="183.4"/>
        <line class="cls-1" x1="56.72" y1="183.4" x2="87.09" y2="183.4"/>
        <line class="cls-1" x1="15.1" y1="183.4" x2="45.47" y2="183.4"/>
        <line class="cls-1" x1=".24" y1="183.4" x2="3.85" y2="183.4"/>
        <line class="cls-1" x1="264.83" y1="188.4" x2="268.8" y2="188.4"/>
        <polyline class="cls-1" points="223.21 188.4 228.88 188.4 253.58 188.4"/>
        <polyline class="cls-1" points="181.59 188.4 206.84 188.4 211.96 188.4"/>
        <polyline class="cls-1" points="139.96 188.4 145.68 188.4 170.34 188.4"/>
        <polyline class="cls-1" points="98.34 188.4 123.64 188.4 128.71 188.4"/>
        <polyline class="cls-1" points="56.72 188.4 62.48 188.4 87.09 188.4"/>
        <polyline class="cls-1" points="15.1 188.4 40.25 188.4 45.47 188.4"/>
        <line class="cls-1" x1=".24" y1="188.4" x2="3.85" y2="188.4"/>
        <polyline class="cls-1" points="72.1 217.37 87.38 208.78 93.06 205.59 97.43 203.13 123.64 188.4"/>
        <polyline class="cls-1" points="114.02 217.37 98.45 208.62 93.06 205.59 88.45 203 62.48 188.4"/>
        <path class="cls-1" d="m138.7,206.49c0,2.76-2.24,5-4.99,5s-5-2.24-5-5,2.24-4.99,5-4.99,4.99,2.24,4.99,4.99Z"/>
        <path class="cls-1" d="m222.95,206.49c0,2.76-2.24,5-4.99,5s-5-2.24-5-5,2.24-4.99,5-4.99,4.99,2.24,4.99,4.99Z"/>
        <path class="cls-1" d="m97.43,203.13c.99.88,1.61,2.06,1.61,3.35,0,.76-.21,1.49-.59,2.13-.99,1.69-3.12,2.87-5.59,2.87s-4.46-1.1-5.49-2.7c-.44-.68-.69-1.47-.69-2.3,0-1.37.67-2.59,1.76-3.49,1.12-.92,2.69-1.5,4.42-1.5,1.81,0,3.44.63,4.57,1.64Z"/>
        <polyline class="cls-1" points=".24 210.88 3.99 208.78 9.67 205.59 14.04 203.13 40.25 188.4"/>
        <polyline class="cls-1" points="30.63 217.37 15.06 208.62 9.67 205.59 5.06 203 .24 200.29"/>
        <path class="cls-1" d="m14.04,203.13c.99.88,1.61,2.06,1.61,3.35,0,.76-.21,1.49-.59,2.13-.99,1.69-3.12,2.87-5.59,2.87s-4.46-1.1-5.49-2.7c-.44-.68-.69-1.47-.69-2.3,0-1.37.67-2.59,1.76-3.49,1.12-.92,2.69-1.5,4.42-1.5,1.81,0,3.44.63,4.57,1.64Z"/>
        <polyline class="cls-1" points="155.3 217.37 170.58 208.78 176.26 205.59 180.64 203.13 206.84 188.4"/>
        <polyline class="cls-1" points="197.23 217.37 181.65 208.62 176.26 205.59 171.65 203 145.68 188.4"/>
        <path class="cls-1" d="m180.64,203.13c.99.88,1.61,2.06,1.61,3.35,0,.76-.21,1.49-.59,2.13-.99,1.69-3.12,2.87-5.59,2.87s-4.46-1.1-5.49-2.7c-.44-.68-.69-1.47-.69-2.3,0-1.37.67-2.59,1.76-3.49,1.12-.92,2.69-1.5,4.42-1.5,1.81,0,3.44.63,4.57,1.64Z"/>
        <polyline class="cls-1" points="238.5 217.37 253.78 208.78 259.46 205.59 263.84 203.12 268.8 200.33"/>
        <polyline class="cls-1" points="268.8 210.84 264.86 208.62 259.46 205.59 254.85 203 228.88 188.4"/>
        <path class="cls-1" d="m263.84,203.12c.99.89,1.61,2.07,1.61,3.36,0,.76-.21,1.49-.59,2.13-.99,1.69-3.12,2.87-5.59,2.87s-4.46-1.1-5.49-2.7c-.44-.68-.69-1.47-.69-2.3,0-1.37.67-2.59,1.76-3.49,1.12-.92,2.69-1.5,4.42-1.5,1.81,0,3.44.63,4.57,1.63Z"/>
        <path class="cls-1" d="m54,206.49c0,2.76-2.24,5-4.99,5s-5-2.24-5-5,2.24-4.99,5-4.99,4.99,2.24,4.99,4.99Z"/>
        <rect class="cls-1" x="3.85" y="183.4" width="11.25" height="5"/>
        <rect class="cls-1" x="45.47" y="183.4" width="11.25" height="5"/>
        <rect class="cls-1" x="87.09" y="183.4" width="11.25" height="5"/>
        <rect class="cls-1" x="128.71" y="183.4" width="11.25" height="5"/>
        <rect class="cls-1" x="170.34" y="183.4" width="11.25" height="5"/>
        <rect class="cls-1" x="211.96" y="183.4" width="11.25" height="5"/>
        <rect class="cls-1" x="253.58" y="183.4" width="11.25" height="5"/>
      </g>
    </g>
  </g>
  <g id="_レイヤー_2" data-name="レイヤー 2">
    <g>
      <g>
        <path class="cls-6" d="m264.65,148.08c1.17,2.13-.03,3.92-.34,3.59-.32-.32-7.04-3.52-9.92-5.05-2.88-1.52-36.14-7.72-36.14-7.72.69-.32,1.39-.66,2.1-1.02l32.54,6.11.11-.96c-4.9-8.63-16.94-11.95-21.51-13,.56-.64,1.04-1.3,1.41-1.96,7.84,1.57,16.79,6.53,21.38,11.55s9.19,6.32,10.37,8.46Z"/>
        <path class="cls-9" d="m223.94,126.89h0c-1.94.57-4.12.78-6.25.76v-.07s1.49-7.17,3.13-8.5c.45-.04.81-.08,1.07-.13,3.28-.57,14.37-3.98,14.37-3.98.62-.15,1.49-.4,2.28-.53,1.4-.23,2.56-.11,1.55,1.53-1.15,1.89-6.04,5.41-10.06,7.87h0c-1.42.87-2.72,1.6-3.73,2.08-.73.39-1.52.71-2.36.96Z"/>
        <path class="cls-5" d="m200.04,91.32c1.36-.18,2.63-.34,3.78-.44,7.04-.64,13.01-1.29,15.67-.53,2.67.74,6.62,4.59,8.86,7.68s10.03,15.57,10.03,15.57l.15.85c-.79.13-1.66.38-2.28.53,0,0-11.1,3.41-14.37,3.98-.26.04-.62.08-1.07.13-5.14.42-21.54.15-24.78-3.26-.45-1.8-.97-3.47-1.45-4.12-.33-.47-.75-.72-1.19-.82h0c-2.21-1.75-21.01-4.61-24.82-12.98-.23-3.79-.69-7.65-1.45-10.77-.17-.72-.35-1.4-.55-2.03-.28-.91-.67-1.85-1.14-2.84-3.65-7.79-12.5-17.84-21.41-28.41.58-.3,1.14-.69,1.64-1.18,9.96.64,14.44.64,18.06,4.06,3.63,3.41,18.77,20.37,22.4,20.32,3.63-.06,12.63,8.89,13.86,13.81l.06.44Z"/>
        <path class="cls-7" d="m233.83,124.43c.11,1.22-.24,2.45-.94,3.65-.38.66-.85,1.31-1.41,1.96h0c-2.61,2.99-6.99,5.75-11.13,7.85-.71.36-1.41.7-2.1,1.02-3.14,1.47-5.92,2.49-7.31,2.85-1.51.38-5.73.99-10.95,1.66h0c11.8-6.82,20.59-9.62,23.95-16.53h0c.84-.25,1.63-.57,2.36-.96,1-.48,2.31-1.21,3.73-2.08h0c.17-.04,2.57-.58,3.8.58Z"/>
        <path class="cls-9" d="m197.06,121.95l.08-.28c0-.58-.48-3.33-1.11-5.84,3.24,3.41,19.64,3.68,24.78,3.26-1.65,1.33-3.13,8.5-3.13,8.5v.07c-3.35-.03-6.58-.63-8.59-1.3l-.06-.3c-7.88,1.43-21.58,2.69-31.94,2.58,2.62-3.04,6.59-8.2,9.57-12.02h0c2.92,1.74,5.9,4.09,10.39,5.34Z"/>
        <path class="cls-7" d="m195.26,144c-2.61.31-5.32.63-7.97.92-3.17-.36-7.35-11.45-11.19-16.84.47.38.81.56.99.56,10.36.11,24.06-1.15,31.94-2.58l.06.3c2.01.67,5.24,1.26,8.59,1.3,2.13.02,4.31-.19,6.25-.76-3.36,6.91-12.15,9.71-23.95,16.52h0c-1.5.19-3.1.39-4.73.58Z"/>
        <path class="cls-9" d="m197.14,121.67l-.08.28c-4.5-1.24-7.48-3.6-10.39-5.34,2.03-2.62,3.59-4.62,3.94-4.9.59-.49,1.75-1.06,2.77-.82h0c.44.1.86.35,1.19.82.48.65,1,2.32,1.45,4.12.63,2.51,1.11,5.26,1.11,5.84Z"/>
        <path class="cls-5" d="m193.38,110.89c-1.03-.24-2.18.33-2.77.82-.34.28-1.91,2.29-3.94,4.9h0c-2.97,3.83-6.95,8.98-9.57,12.02-.18,0-.53-.18-.99-.56-1.93-1.52-6.03-6.17-9.82-13.72l1.42-1.37c.91-2.23,1.24-8.56.86-15.07,3.8,8.36,22.6,11.22,24.82,12.98Z"/>
        <path class="cls-5" d="m176.1,128.08c3.84,5.39,8.02,16.48,11.19,16.84-7.28.81-14.05,1.5-16.74,1.71-3.84-.35-11.1-12.16-11.1-12.16,1.7-1,1.14-2.49.71-4.02-.41-1.48-3.58-8.43-5.91-12.61l.5-.26s5.26-.75,11.52-3.23c3.78,7.55,7.89,12.2,9.82,13.72Z"/>
        <path class="cls-5" d="m110.82,49c1.65,2.75,4.68,7.48,6.89,9.24,3.2,2.57,13.22,11.19,22.12,0,.64-1.7,1.1-3.45,1.1-3.45v-.03c1.09-.08,2.14-.37,3.09-.89,8.91,10.57,17.76,20.62,21.41,28.41.47.99.85,1.93,1.14,2.84.2.64.38,1.31.55,2.03.75,3.12,1.22,6.98,1.45,10.77.38,6.51.05,12.84-.86,15.07l-1.42,1.37c-6.26,2.47-11.52,3.23-11.52,3.23l-.5.26c-.08-.13-.14-.27-.22-.39-1.45-2.58-3.42-4.34-5.41-3.34-2,1-11.68,2.35-11.98,5.63-.68-.3-1.14-.11-1.19.57,0,.2.02.46.1.76-2.99.32-2.57,4.22-1.71,7.1s3.25,10.99,3.25,10.99c.22,3.85,3.61,10.89,6.83,16.04-.98.7-10.72,1.06-10.72,1.06l-13.59-20.8c-2.55.3-5.22.52-7.85.64-1.21.06-2.4.1-3.57.12v-.12c-1.08-1.42-3.38-3.54-6.19-5.74-1.31-1.02-2.72-2.06-4.19-3.05l-.11.17c-18.15,15.17-35.18,19.79-46.95,21.38-5.93.81-10.53.85-13.24,1.1-8.11.74-7.58-2.46-7.15-4.59.34-1.73,3.58-6.56,5.36-9.4.41-.66.74-1.21.94-1.59,1.06-2.02,10.66-13.76,14.5-15.67,3.07-1.54,7.32-.48,16.75-.66v-.41s-1.15-8.56-1.15-8.56l-24.99,7.85-.1-.33c-2.46-3.73.05-7.07.89-10.41,3-.38,6.17-.92,9.36-1.48.96-.17,1.92-.34,2.87-.51,2.95-.52,5.87-1,8.66-1.35-.16-.94-.27-2.05-.33-3.21-.08-1.24-.09-2.53-.06-3.75.02-.81.05-1.59.12-2.28l.03-.1c.11.04.19.09.25.13l.48-2.28c2-7.39,10.59-22.26,10.59-22.26l.76-1.74,5.21,2.27h.03c.05-1,.15-1.96.29-2.86.18-1.23.44-2.36.77-3.43.45-1.51,1.02-2.86,1.68-4.07.73-1.35,1.55-2.53,2.44-3.58.79-.93,1.61-1.75,2.45-2.49.87-.76,1.74-1.43,2.58-2.03,1.3-.93,2.92-1.58,4.7-2.06,1.4-.38,2.92-.66,4.46-.89,1.69-.25,3.42-.44,5.11-.65,1.59-.19,3.13-.39,4.57-.67,0,0,.47.84,1.21,2.06Z"/>
        <path class="cls-5" d="m170.55,146.63c-2.99,3.35-11.81,5.05-11.81,5.05l-1.01.31c-3.07-5.99-6.38-13.95-6.38-13.95l-.81.07v-.08c.47-.03,1.11-.17,2.09-.43,3.56-.99,5.12-2.13,6.83-3.12,0,0,7.25,11.81,11.1,12.16Z"/>
        <path class="cls-8" d="m160.16,130.45c.43,1.53.99,3.02-.71,4.02-1.7.99-3.27,2.13-6.83,3.12-.98.27-1.62.41-2.1.43-1.26.08-1.39-.57-3.45-1.29l-6.68-12.32c-1.01-2.24-2.21-3.68-3.18-4.36-.2-.14-.38-.25-.56-.33.3-3.28,9.98-4.63,11.98-5.63,1.99-.99,3.95.76,5.41,3.34.08.13.14.26.22.39,2.32,4.18,5.5,11.13,5.91,12.61Zm-2.7,1.6c.43-.85-5.41-12.12-5.83-12.96-.74-1.43-4.55.58-8.53,1.98,0,0,6.12,14.36,7.11,14.1s6.83-2.26,7.25-3.12Z"/>
        <path class="cls-8" d="m161.87,158.36c-.43.13-1.87.34-3.7.58-2.26-1.65-9.59-16.79-10.62-20.6l2.99-.23.81-.07s3.31,7.95,6.38,13.95c1.61,3.13,3.16,5.74,4.14,6.38Z"/>
        <path class="cls-8" d="m151.63,119.09c.43.84,6.26,12.11,5.83,12.96s-6.26,2.85-7.25,3.12-7.11-14.1-7.11-14.1c3.98-1.4,7.8-3.41,8.53-1.98Z"/>
        <path class="cls-8" d="m158.17,158.94c-1.05.14-2.23.28-3.41.43-5.19-6.34-10.82-20.75-10.82-20.75l3.61-.28c1.03,3.81,8.36,18.96,10.62,20.6Z"/>
        <path class="cls-8" d="m154.76,159.38c-1.42.17-2.84.33-4.04.48-8.54-13.67-10.39-20.95-10.39-20.95l3.62-.28s5.63,14.41,10.82,20.75Z"/>
        <path class="cls-11" d="m152.03,32.74c-1.39,7.58-3.09,16.82-6.37,19.95-.5.48-1.05.87-1.64,1.17-.95.52-2,.81-3.09.89-1.53.13-3.14-.15-4.68-.77-15.44,6.1-18.39-5.45-19.67-10.22l1.32-.7,2.48-1.32,5.37-2.6s-.64-1.38-1.49-4.37c-.86-2.99.1-5.65,2.13-6.82,2.03.1,2.35,2.02,3.41,7.14,1.41,0,3.63-4.3,4.06-4.59.42-.28,5.4-5.54,6.68-8.89,2.24.04,10.85,1.61,10.85,1.61l.64,9.52Z"/>
        <path class="cls-8" d="m150.53,138.03v.08s-2.98.23-2.98.23l-3.61.28-3.62.28-3.22.25s-2.4-8.1-3.25-10.99-1.28-6.78,1.71-7.1c.71,2.73,6.25,13.54,7.54,14.4,1.28.85,3.98,1.28,3.98,1.28,2.06.72,2.19,1.36,3.45,1.29Z"/>
        <path class="cls-8" d="m150.71,159.85c-1.85.21-3.17.35-3.17.35-1.04-1.14-2.31-2.92-3.61-5-3.23-5.16-6.62-12.19-6.83-16.04l3.22-.25s1.85,7.28,10.39,20.95Z"/>
        <path class="cls-8" d="m140.39,124.43l6.68,12.32s-2.7-.43-3.98-1.28c-1.29-.85-6.83-11.66-7.54-14.4-.08-.3-.11-.56-.1-.76,1.13-.13,1.75-.24,1.75-.24.97.68,2.17,2.12,3.18,4.36Z"/>
        <path class="cls-5" d="m113.74,44.4c.83-.29,1.77-.53,2.83-.64,1.28,4.77,4.24,16.32,19.67,10.22,1.55.62,3.16.89,4.69.77v.03s-.46,1.75-1.1,3.45c-8.9,11.19-18.92,2.57-22.12,0-2.21-1.76-5.24-6.49-6.89-9.24-.74-1.23-1.21-2.06-1.21-2.06,0,0,.16-.17.46-.43.63-.54,1.87-1.46,3.68-2.11Z"/>
        <path class="cls-5" d="m119.63,135.47l13.59,20.8h-9.17l-12.26-20.15c2.62-.13,5.3-.34,7.85-.64Z"/>
        <path class="cls-7" d="m96.8,153.12h0c-9.68-2.72-13.23-8.97-13.54-9.56,4.13-2.72,8.56-5.72,12.31-8.37,2.66.81,7.39,1.13,12.67,1.04,1.17-.02,2.36-.06,3.57-.12l12.26,20.15s-13.76-1.28-21.8-2.11c-2-.21-3.81-.57-5.45-1.03Z"/>
        <path class="cls-8" d="m117,33.92l.89,9.14-1.32.7c-1.06.11-2.01.34-2.83.64l-1.96-10.48-.12-.63c2.01-.22,3.86-.16,5.33.63Z"/>
        <path class="cls-8" d="m111.79,33.92l1.96,10.48c-1.8.64-3.05,1.56-3.68,2.11l-.46-.64-2.11-11.65,4.29-.29Z"/>
        <path class="cls-8" d="m109.6,45.86l.46.64c-.3.26-.46.43-.46.43-1.44.28-2.98.48-4.57.67l-3.77-13.04-.26-.91c0-.25,5.19-.96,6.18-.58l.31,1.15,2.11,11.65Z"/>
        <path class="cls-5" d="m108.22,136.11v.12c-5.27.09-10.01-.23-12.67-1.04,2.55-1.8,4.78-3.44,6.41-4.74l.07-.08c2.82,2.2,5.11,4.32,6.19,5.74Z"/>
        <path class="cls-8" d="m101.27,34.56l3.77,13.04c-1.69.21-3.42.4-5.11.65l-5.14-11.72c-.13-.28.02-.62.32-.72,1.24-.41,4.29-1.35,5.9-1.18l.26-.08Z"/>
        <path class="cls-9" d="m95.55,135.19c-3.75,2.66-8.18,5.65-12.31,8.37-1.66,1.09-3.28,2.13-4.78,3.09-4.33,2.76-7.75,4.81-8.82,5.24-.44.18-.83.33-1.14.45l-1.84.72s-12.17-.43-13.76-1.6c-1.43-1.05-2.01-2.33-2.11-2.6,11.76-1.6,28.8-6.21,46.95-21.38l.11-.17c1.46.99,2.87,2.03,4.19,3.05l-.07.08c-1.63,1.3-3.86,2.94-6.41,4.74Z"/>
        <path class="cls-8" d="m94.79,36.53l5.14,11.72c-1.55.23-3.06.5-4.46.89l-6.15-10.77h0l-.52-.91c1.87-.97,3.69-1.72,5.44-2.19l.56,1.26Z"/>
        <path class="cls-8" d="m89.32,38.37l6.15,10.77c-1.79.48-3.4,1.14-4.7,2.06l-6.41-9.77c1.47-1.33,3.14-2.3,4.95-3.07h0Z"/>
        <path class="cls-7" d="m96.79,153.12c-1.12.16-4.55.64-8.49.89-4.24-1.46-9.45-6.94-9.83-7.35,1.5-.96,3.12-2.01,4.78-3.09.32.59,3.87,6.84,13.54,9.56Z"/>
        <path class="cls-8" d="m84.36,41.43l6.41,9.77c-.84.6-1.71,1.27-2.58,2.03l-8.67-8.82-.63-.64c.6-1.21,2.39-2.34,4.75-3.43l.72,1.09Z"/>
        <path class="cls-8" d="m79.51,44.41l8.67,8.82c-.84.74-1.66,1.56-2.45,2.49l-10-7.79s2.41-3.35,3.78-3.53Z"/>
        <path class="cls-7" d="m88.3,154.01c-.77.05-1.55.09-2.34.13-5.76.21-17.46-1.79-17.46-1.79.32-.13.7-.28,1.14-.45,1.07-.43,4.5-2.48,8.82-5.24.38.41,5.59,5.89,9.83,7.35Z"/>
        <path class="cls-8" d="m75.73,47.93l10,7.79c-.89,1.04-1.71,2.22-2.44,3.58l-10.82-8.2-.72-.54c.64-1.8,1.72-2.83,3.15-3.27l.83.64Z"/>
        <path class="cls-8" d="m72.47,51.1l10.82,8.2c-.66,1.21-1.23,2.56-1.68,4.07l-12.38-7.93c.76-1.65,1.7-3.18,3.24-4.34Z"/>
        <path class="cls-8" d="m69.23,55.44l12.38,7.93c-.33,1.06-.58,2.2-.77,3.43l-14.81-7.25-.94-.46c.9-1.81,1.93-3.26,3.12-4.29l1.01.65Z"/>
        <path class="cls-8" d="m66.04,59.54l14.81,7.25c-.14.9-.24,1.85-.29,2.86h-.03l-5.21-2.27-10.57-4.6c.03-1.12.43-2.21,1.3-3.23Z"/>
        <path class="cls-5" d="m67.94,117.65v.41c-9.42.18-13.67-.88-16.74.66-3.84,1.91-13.44,13.65-14.5,15.67-.2.38-.53.93-.94,1.59l-.55-.52-4.8-14.93,11.41-3.58,24.99-7.85,1.14,8.56Z"/>
        <path class="cls-6" d="m48.14,91.66c-2.78-.18-5.75-.33-8.71-.41-8.51-.22-17.04.11-21.41,1.55,1.51.48,3.02.96,4.52,1.44,10.47,3.34,21.81,6.65,32.28,9.98-.95.17-1.91.34-2.87.51l-.02-.12-34.41-10.39s-14.3-4.63-15.5-5.12c-1.21-.5-1.57-2.63.35-1.64s13.51,2.41,22.68,1.92c8.57-.47,26.27-.23,38.89,1.99l-.48,2.28c-.06-.04-.14-.09-.25-.13-1.46-.6-7.62-1.38-15.08-1.86Z"/>
        <path class="cls-6" d="m63.14,99.65h0l-23.71-8v-.4c2.97.08,5.94.23,8.72.41l14.93,4.24h0c-.03,1.22-.02,2.51.06,3.75Z"/>
      </g>
      <g>
        <path class="cls-3" d="m136.25,53.98c-15.44,6.1-18.39-5.45-19.67-10.22l1.32-.7,2.48-1.32"/>
        <path class="cls-3" d="m152.02,32.74c-1.39,7.58-3.09,16.82-6.37,19.94-.5.48-1.05.88-1.64,1.18-.95.52-2.01.8-3.09.89-1.53.13-3.14-.15-4.69-.77-1.05-.42-2.08-1-3.02-1.72"/>
        <line class="cls-3" x1="135.13" y1="33.92" x2="140.14" y2="33.92"/>
        <path class="cls-3" d="m146.76,32s.32,7.57,0,9.17c-.32,1.6.22,1.88-1.28,2.59s-3.73.71-3.63-1.1"/>
        <line class="cls-3" x1="148.01" y1="35.27" x2="150.7" y2="35.27"/>
        <line class="cls-3" x1="141.39" y1="26.45" x2="144.02" y2="26.45"/>
        <line class="cls-3" x1="148.72" y1="26.95" x2="151.21" y2="26.95"/>
        <line class="cls-3" x1="140.93" y1="48.48" x2="144.49" y2="48.48"/>
        <path class="cls-3" d="m140.93,54.79s-.46,1.75-1.1,3.45c-8.9,11.19-18.92,2.57-22.12,0-2.21-1.76-5.24-6.49-6.89-9.24-.74-1.23-1.21-2.06-1.21-2.06,0,0,.16-.17.46-.43.63-.54,1.87-1.46,3.68-2.11.83-.29,1.77-.53,2.83-.64"/>
        <path class="cls-3" d="m137.1,61.05c5.86,5.43,15.81,15.53,17.23,32.03"/>
        <path class="cls-3" d="m144.02,53.87c8.91,10.57,17.76,20.62,21.41,28.41.47.99.85,1.93,1.14,2.84.2.64.38,1.31.55,2.03.75,3.12,1.22,6.98,1.45,10.77.38,6.51.05,12.84-.86,15.07"/>
        <path class="cls-3" d="m145.66,52.69c9.96.64,14.44.64,18.06,4.06,3.63,3.41,18.77,20.37,22.4,20.32,3.63-.06,12.63,8.89,13.86,13.81"/>
        <path class="cls-3" d="m175.03,93.08c8.74.84,18.07-.82,25.02-1.75,1.36-.18,2.63-.34,3.78-.44,7.04-.64,13.01-1.29,15.67-.53,2.67.74,6.62,4.59,8.86,7.68s10.03,15.57,10.03,15.57"/>
        <path class="cls-3" d="m186.66,116.62c-2.97,3.83-6.95,8.98-9.57,12.02,10.36.11,24.06-1.15,31.94-2.58h0c2.29-.42,4.09-.84,5.17-1.26"/>
        <path class="cls-3" d="m193.38,110.89c-1.03-.24-2.18.33-2.77.82-.34.28-1.91,2.29-3.94,4.9"/>
        <path class="cls-3" d="m197.14,121.67c0-.58-.48-3.33-1.11-5.84-.45-1.8-.97-3.47-1.45-4.12-.33-.47-.75-.72-1.19-.82"/>
        <path class="cls-3" d="m223.93,126.89c-1.94.57-4.12.78-6.25.76-3.35-.03-6.58-.63-8.59-1.3"/>
        <path class="cls-3" d="m230.02,123.85c-1.42.87-2.72,1.6-3.73,2.08-.73.39-1.52.71-2.36.96"/>
        <path class="cls-3" d="m196.03,115.83c3.24,3.41,19.64,3.68,24.78,3.26.45-.04.81-.08,1.07-.13,3.28-.57,14.37-3.98,14.37-3.98.62-.15,1.49-.4,2.28-.53,1.4-.23,2.56-.11,1.55,1.53-1.15,1.89-6.04,5.41-10.06,7.87"/>
        <path class="cls-3" d="m217.68,127.59s1.49-7.17,3.13-8.5"/>
        <path class="cls-3" d="m186.66,116.62h0c2.92,1.74,5.9,4.09,10.39,5.34,2.9.81,6.43,1.15,10.96.57"/>
        <path class="cls-3" d="m110.82,49c4.12,15.5,12.23,37.26,13.23,49.77"/>
        <path class="cls-3" d="m107.97,71.79l-10.09-10.74-7.11,4.15c8.96,6.12,22.47,12.98,23.32,18.22l.85,5.25"/>
        <path class="cls-3" d="m119.63,98.77s0-.03,0-.07c-.53-2.93-28.02-2.67-30.14-7.82"/>
        <path class="cls-3" d="m93.18,81.71s21.05,5.8,23.39,8.31c2.2,2.34,2.97,7.99,3.05,8.69"/>
        <path class="cls-3" d="m177.09,128.64c-.18,0-.53-.18-.99-.56-1.93-1.52-6.03-6.17-9.82-13.72-6.26,2.47-11.52,3.23-11.52,3.23"/>
        <path class="cls-3" d="m168.55,97.9s0,0,0,.02c3.8,8.36,22.6,11.22,24.82,12.98h0"/>
        <path class="cls-3" d="m109.6,46.93c-1.44.28-2.98.48-4.57.67-1.69.21-3.42.4-5.11.65-1.55.23-3.06.5-4.46.89-1.79.48-3.4,1.14-4.7,2.06-.84.6-1.71,1.27-2.58,2.03-.84.74-1.66,1.56-2.45,2.49-.89,1.04-1.71,2.22-2.44,3.58-.66,1.21-1.23,2.56-1.68,4.07-.33,1.06-.58,2.2-.77,3.43-.14.9-.24,1.85-.29,2.86-.02.18-.03.35-.03.53"/>
        <path class="cls-3" d="m74.55,69.12s-8.6,14.86-10.59,22.26"/>
        <polyline class="cls-3" points="109.6 45.86 107.5 34.22 111.79 33.92"/>
        <path class="cls-3" d="m105.03,47.6l-3.77-13.04-.26-.91c0-.25,5.19-.96,6.18-.58l.31,1.15"/>
        <path class="cls-3" d="m99.93,48.25l-5.14-11.72c-.13-.28.02-.62.32-.72,1.24-.41,4.29-1.35,5.9-1.18"/>
        <path class="cls-3" d="m89.31,38.37l-.52-.91c1.87-.97,3.69-1.72,5.44-2.19l.56,1.26"/>
        <line class="cls-3" x1="95.47" y1="49.14" x2="89.32" y2="38.37"/>
        <path class="cls-3" d="m90.76,51.2l-6.41-9.77-.72-1.09c-2.36,1.09-4.15,2.21-4.75,3.43l.63.64,8.67,8.82"/>
        <path class="cls-3" d="m85.73,55.72l-10-7.79-.83-.64c-1.43.43-2.51,1.47-3.15,3.27l.72.54,10.82,8.2"/>
        <path class="cls-3" d="m81.61,63.37l-12.38-7.93-1.01-.65c-1.19,1.04-2.21,2.48-3.12,4.29l.94.46,14.81,7.25"/>
        <path class="cls-3" d="m117.89,43.06l-.89-9.14c-1.47-.79-3.33-.84-5.33-.63l.12.63,1.96,10.48h0"/>
        <path class="cls-3" d="m89.32,38.37h0c-1.81.77-3.48,1.74-4.95,3.07"/>
        <path class="cls-3" d="m75.73,47.93s2.41-3.35,3.78-3.53"/>
        <path class="cls-3" d="m69.23,55.44c.76-1.65,1.7-3.18,3.24-4.34"/>
        <path class="cls-3" d="m66.04,59.54c-.88,1.03-1.27,2.11-1.3,3.23l10.57,4.6,5.21,2.27"/>
        <polyline class="cls-3" points="67.4 108.9 66.79 109.1 41.8 116.95 30.39 120.53 35.19 135.47"/>
        <polyline class="cls-3" points="66.77 108.9 66.79 109.1 67.94 117.65"/>
        <path class="cls-3" d="m119.63,98.77l2.49,3.03-.64,4.01c-4.58-2.88-7.78-4.7-7.78-4.7-17.07,8.96-22.51,15.26-37.77,16.54-3.02.25-5.66.37-7.99.41-9.43.18-13.68-.88-16.75.66-3.84,1.91-13.44,13.65-14.5,15.67-.2.38-.53.93-.94,1.59-1.77,2.84-5.01,7.67-5.36,9.4-.43,2.13-.96,5.33,7.15,4.59,2.72-.25,7.31-.29,13.24-1.1,11.76-1.6,28.8-6.21,46.95-21.38"/>
        <path class="cls-3" d="m114.33,107.69l-25.6,14.49c2.77,1.13,6.03,3.04,9.11,5.14,1.46.99,2.87,2.03,4.19,3.05,2.82,2.2,5.11,4.32,6.19,5.74"/>
        <path class="cls-3" d="m101.96,130.45c-1.63,1.3-3.86,2.94-6.41,4.74-3.75,2.66-8.18,5.65-12.31,8.37-1.66,1.09-3.28,2.13-4.78,3.09-4.33,2.76-7.75,4.81-8.82,5.24-.44.18-.83.33-1.14.45l-1.84.72s-12.17-.43-13.76-1.6c-1.43-1.05-2.01-2.33-2.11-2.6,0-.03-.02-.05-.02-.05"/>
        <path class="cls-3" d="m96.8,153.12c.23-.04.37-.06.37-.06"/>
        <path class="cls-3" d="m68.5,152.34s11.71,2,17.46,1.79c.79-.03,1.57-.08,2.34-.13,3.94-.25,7.37-.73,8.49-.89"/>
        <path class="cls-3" d="m78.44,146.63l.03.03c.38.41,5.59,5.89,9.83,7.35.15.06.29.1.43.14"/>
        <path class="cls-3" d="m83.22,143.51l.03.05c.32.59,3.87,6.84,13.54,9.56h0c1.64.46,3.45.82,5.45,1.03,8.04.84,21.8,2.11,21.8,2.11h9.17l-13.59-20.8c-2.55.3-5.22.52-7.85.64-1.21.06-2.4.1-3.57.12-5.27.09-10.01-.23-12.67-1.04-.03,0-.06-.02-.08-.03"/>
        <line class="cls-3" x1="111.79" y1="136.11" x2="124.04" y2="156.26"/>
        <path class="cls-3" d="m147.08,136.74s-2.7-.43-3.98-1.28c-1.29-.85-6.83-11.66-7.54-14.4-.08-.3-.11-.56-.1-.76.04-.68.51-.87,1.19-.57.18.08.36.18.56.33.97.68,2.17,2.12,3.18,4.36l6.68,12.32Z"/>
        <path class="cls-3" d="m147.08,136.74c2.06.72,2.19,1.36,3.45,1.29.48-.03,1.12-.17,2.1-.43,3.56-.99,5.12-2.13,6.83-3.12,1.7-1,1.14-2.49.71-4.02-.41-1.48-3.58-8.43-5.91-12.61-.08-.13-.14-.27-.22-.39-1.45-2.58-3.42-4.34-5.41-3.34-2,1-11.68,2.35-11.98,5.63"/>
        <path class="cls-3" d="m151.63,119.09c.43.84,6.26,12.11,5.83,12.96s-6.26,2.85-7.25,3.12-7.11-14.1-7.11-14.1c3.98-1.4,7.8-3.41,8.53-1.98Z"/>
        <path class="cls-3" d="m135.56,121.07c-2.99.32-2.57,4.22-1.71,7.1s3.25,10.99,3.25,10.99l3.22-.25,3.62-.28,3.61-.28,2.99-.23.81-.07s3.31,7.95,6.38,13.95c1.61,3.13,3.16,5.74,4.14,6.38-.43.13-1.87.34-3.7.58-1.05.14-2.23.28-3.41.43-1.42.17-2.84.33-4.04.48-1.85.21-3.17.35-3.17.35-1.04-1.14-2.31-2.92-3.61-5-3.23-5.16-6.62-12.19-6.83-16.04"/>
        <path class="cls-3" d="m231.48,130.03c.56-.64,1.04-1.3,1.41-1.96.69-1.2,1.04-2.43.94-3.65-1.24-1.15-3.63-.62-3.8-.58h0"/>
        <path class="cls-3" d="m159.45,134.47s7.25,11.81,11.1,12.16c2.69-.21,9.46-.9,16.74-1.71,2.65-.29,5.36-.61,7.97-.92,1.63-.19,3.23-.39,4.73-.58,5.22-.67,9.44-1.28,10.95-1.66,1.4-.36,4.17-1.38,7.31-2.85.69-.32,1.39-.66,2.1-1.02,4.14-2.11,8.52-4.86,11.13-7.85"/>
        <path class="cls-3" d="m133.22,156.26s9.74-.36,10.72-1.06"/>
        <path class="cls-3" d="m158.74,151.67s8.81-1.7,11.81-5.05"/>
        <path class="cls-3" d="m140.32,138.91s1.85,7.28,10.39,20.95c.03.03.04.07.07.1"/>
        <path class="cls-3" d="m143.94,138.62s5.63,14.41,10.82,20.75"/>
        <path class="cls-3" d="m147.55,138.34c1.03,3.81,8.36,18.96,10.62,20.6"/>
        <path class="cls-3" d="m137.21,120.07s-.62.11-1.75.24c-2.06.27-5.8.65-10.57.76"/>
        <path class="cls-3" d="m72.47,105.88s27.64-3.03,31.78-4.08"/>
        <path class="cls-3" d="m167.11,87.15s11.11-6.15,11.96-8.29"/>
        <path class="cls-3" d="m162.87,69.65l1.14-5.05,6.54,5.05s-5.11,9.49-5.12,12.62"/>
        <path class="cls-3" d="m231.48,130.03h0c4.57,1.05,16.61,4.37,21.51,13l-.11.96-32.54-6.11"/>
        <path class="cls-3" d="m218.25,138.91s33.25,6.2,36.14,7.72c2.88,1.53,9.6,4.73,9.92,5.05.32.33,1.51-1.46.34-3.59-1.18-2.14-5.78-3.44-10.37-8.46s-13.54-9.98-21.38-11.55"/>
        <path class="cls-3" d="m63.2,93.62c-.07.69-.1,1.47-.12,2.28-.03,1.22-.02,2.51.06,3.75.07,1.16.18,2.27.33,3.21-2.78.35-5.71.84-8.66,1.35-.95.17-1.91.34-2.87.51-3.19.56-6.36,1.1-9.36,1.48-.84,3.34-3.34,6.68-.89,10.41"/>
        <path class="cls-3" d="m54.82,104.22c-10.48-3.33-21.82-6.64-32.28-9.98-1.5-.48-3.01-.95-4.52-1.44,4.37-1.44,12.91-1.76,21.41-1.55,2.97.08,5.93.23,8.71.41,7.46.48,13.62,1.26,15.08,1.86.11.04.19.09.25.13l.48-2.28c-12.62-2.22-30.32-2.46-38.89-1.99-9.17.49-20.76-.93-22.68-1.92s-1.56,1.14-.35,1.64c1.2.49,15.5,5.12,15.5,5.12l34.41,10.39"/>
        <polyline class="cls-3" points="63.07 95.9 48.14 91.66 48.12 91.65"/>
        <line class="cls-3" x1="39.42" y1="91.65" x2="63.13" y2="99.65"/>
        <path class="cls-3" d="m199.98,143.41c11.8-6.81,20.59-9.61,23.95-16.52h0"/>
        <path class="cls-3" d="m208.02,130.91s-11.39,12.8-12.77,13.08"/>
        <path class="cls-3" d="m176.1,128.08c3.84,5.39,8.02,16.48,11.19,16.84"/>
      </g>
    </g>
    <path class="cls-2" d="m125.87,14.61c.58-.32,1.36-.99,2.41-.4s2.06,1.48,1.27,2.16-4.1,4.02-4.1,4.02c-1.57.74-.16-5.46.42-5.77Zm.14,24.47s-.63-1.37-1.48-4.33.11-5.6,2.11-6.76c2.01.11,2.32,2.01,3.38,7.08,1.39,0,3.59-4.26,4.01-4.54s5.35-5.49,6.62-8.8c2.22.04,10.74,1.58,10.74,1.58l.63,9.44s2.08-3.59,1.34-7.29-6.02-12.57-7.08-13.2h2.96v-1.9h-6.06s3.84-5.32,4.37-6.37c.74-2.11-2.43-4.19-3.49-3.24s-5.14,6.55-5.14,6.55c0,0-.74,1.21-1.68,1.9s-2.16.92-2.32-.05c-.32-1.9-.79-3.33-2.27-3.33s-4.23.11-6.02,2.11-3.8,4.4-4.23,7.46.63,6.55,1.27,7.39l.63.85s-2.43,7.18-2.39,7.89l-1.24,10.14,5.33-2.57Z"/>
  </g>
</svg>