<svg id="_レイヤー_1" data-name="レイヤー 1" xmlns="http://www.w3.org/2000/svg" viewBox="0 0 269.22 201.39"><defs><style>.cls-1{fill:#fff0d1}.cls-1,.cls-10,.cls-11,.cls-2,.cls-3,.cls-4,.cls-5,.cls-6,.cls-7,.cls-8,.cls-9{stroke-width:0}.cls-2{fill:#e5dbc2}.cls-12{stroke-miterlimit:10}.cls-12,.cls-13{fill:none;stroke:#000}.cls-4{fill:#a7c9b0}.cls-5{fill:#a681ad}.cls-13{stroke-linecap:round;stroke-linejoin:round}.cls-6{fill:#333}.cls-7{fill:#f4efc5}.cls-8{fill:#ead2b6}.cls-9{fill:#e0a497}.cls-10{fill:#df585e}.cls-11{fill:#faebce}</style></defs><path class="cls-6" d="M268.72 198.71v2.18h-10.56v-.3a5.448 5.448 0 0 1 10.56-1.87Z"/><path class="cls-11" d="M268.72 182.96v15.75a5.448 5.448 0 0 0-10.56 1.87v.3H230.5l31.64-18.9h4.96l1.62.97Z"/><path class="cls-11" d="M268.72 174.01v7.98H255.07v-7.98h13.65z"/><path class="cls-1" d="M268.72 118.26v4.79h-35.14c-.67-.53-1.41-1.05-2.22-1.55-2.74-1.7-4.31-2.67-5.22-3.24h42.58Z"/><path class="cls-6" d="M244.99 174.01h10.07v7.98h-10.07z"/><path class="cls-11" d="M224.96 174.01h20.03v7.98h-20.03z"/><path class="cls-4" d="M160.41 73.44c-1-4.24-3.7-8.91-6.05-12.39 0 0 1.74-1.3 3.67-2.93 0 0 7.6 4.94 10.84 5.79l2.55-.44c2.77 5.43 8.3 13.62 11.07 16.62 1.84 2 5.02 5.36 6.92 7.38.96 1.02 1.61 1.7 1.61 1.7s2.55 7.64 3.11 9.86l12.74 1.77 5.87 5.54s5.99.23 10.2 3.88c4.21 3.66 2 7.31 2 7.31l1.2.75c.9.56 2.47 1.54 5.22 3.24.81.5 1.55 1.02 2.22 1.55 3.56 2.8 5.24 5.84 5.59 7.81-4.38-.38-32.62 4.71-37.82 5.48s-11.97.88-11.97.88l-.98-16.38-24.44-14.38c-.25-13.28-2.46-24.24-3.18-31.12-.07-.62-.18-1.26-.34-1.91Z"/><path class="cls-6" d="M214.9 174.01h10.07v7.98H214.9z"/><path class="cls-11" d="M223.98 200.89H194.3v-.3c0-3-2.44-5.44-5.45-5.44s-5.45 2.44-5.45 5.44v.3h-27.66l31.64-18.9h4.96l31.64 18.9ZM194.87 174.01h20.03v7.98h-20.03z"/><path class="cls-5" d="M204.54 141.78s-3.05 7.58-10.05 9.94c-.88.17-1.94.38-3.25.65-1.13.23-2.44.49-3.98.81-.99.49-3.05 1.08-5.72 1.67 8.77-2.26 15.15-13.02 15.35-13.37 2.13.1 4.85.23 7.64.3Z"/><path class="cls-2" d="M194.49 151.72c6.99-2.36 10.05-9.94 10.05-9.94 5.74.16 11.8.15 13.74-.56 0 0-4.21 2.66-5.76 5.31-1.55 2.66-9.75 3.32-12.41 3.99-1.74.44-2.53.59-5.62 1.2Z"/><path class="cls-6" d="M194.87 174.01v7.98h-10.06v-7.98h10.06z"/><path class="cls-11" d="M194.87 181.99h67.26l-31.64 18.9h-6.51l-31.63-18.9h2.52z"/><path class="cls-6" d="M194.31 200.59v.3h-10.9v-.3c0-3 2.44-5.44 5.45-5.44s5.45 2.44 5.45 5.44Z"/><path class="cls-4" d="m118.36 132.58-21.27 11.97s-6.33-14.91-9.44-23.71c-.28-.8-.54-1.54-.75-2.22-2.66-8.19-.89-20.83 2.22-27.62.71-1.54 1.51-3.51 2.33-5.61l-1.44-.56c-.86-2.03-3.02-12.51-3.02-12.51.28-2.24.53-4.67.81-7.31 1.78-16.62 11.08-19.28 18.61-21.94 1.88-.66 4.11-1.28 6.47-1.86l1.8 1.37c3.05 1.97 9.04 6.52 14.62 11.45 1.52 1.34 3.01 2.71 4.4 4.07 1.21 1.18 2.36 2.36 3.39 3.5 0 0 11.7-3.39 12.89-5.17.16-.23.3-.49.43-.74 0 0 1.84 2.18 3.97 5.35 2.35 3.48 5.05 8.15 6.05 12.39.16.65.27 1.28.34 1.91.73 6.88 2.93 17.83 3.18 31.12.06 2.96.02 6.03-.16 9.21l14.27 12.65 11.38 10.1 3.16 2.8s-1.11 2.66-6.2 5.16c-1.54.75-5.99 1.52-11.71 2.21-11.24 1.37-27.36 2.5-35.94 2.9-1.47.07-2.72.11-3.68.14-9.45.22-15.13-7.09-15.13-7.09l-1.55-11.97Z"/><path class="cls-10" d="M196.89 141.48c-2.58-.14-4.31-.25-4.31-.25l-3.16-2.8-.07-1.2s6.77-.1 11.97-.88 33.44-5.87 37.82-5.48c.1.62.09 1.13-.05 1.49-.67 1.78-20.83 8.87-20.83 8.87-1.94.7-8 .72-13.74.56-2.79-.08-5.51-.2-7.64-.3Z"/><path class="cls-10" d="m189.35 137.22.07 1.2-11.38-10.1c2.3-2.48 10.33-7.48 10.33-7.48l.98 16.38Z"/><path class="cls-4" d="m163.94 106.46 24.44 14.38s-8.03 5-10.33 7.48l-14.27-12.65c.17-3.18.22-6.25.16-9.21Z"/><path class="cls-11" d="m187.38 181.99-31.63 18.9h-6.5l-31.64-18.9H187.38zM164.78 174.01h20.03v7.98h-20.03z"/><path class="cls-10" d="M174.67 148.6s-7.79 3.7-17.33 6.36-18.61-3.46-18.61-3.46c8.58-.4 24.7-1.53 35.94-2.9Z"/><path class="cls-6" d="M154.71 174.01h10.07v7.98h-10.07z"/><path class="cls-4" d="M164.11 51.61c2.33 1.77 4.55 6.42 7.31 11.85l-2.55.44c-3.24-.85-10.84-5.79-10.84-5.79 2.3-1.95 4.89-4.38 5.19-5.71l.62-.98.26.18Z"/><path class="cls-4" d="m163.85 51.42-.62.98c-.3 1.33-2.89 3.76-5.19 5.71a96.937 96.937 0 0 1-3.67 2.93c-2.13-3.17-3.97-5.35-3.97-5.35.8-1.6.89-3.3.89-3.3 2.04-.38 3.6-.77 5.18-2.04l.11.13s4.84-.62 7.27.93Z"/><path class="cls-3" d="M158.49 48.27c-.03.17-.06.35-.11.52l-.17-.02s-.02-.08-.03-.11c.1-.12.21-.25.31-.39Z"/><path class="cls-8" d="M164.39 31.65c-.73 5.39-2.3 11.07-4.16 14.08-.62 1-1.19 1.84-1.74 2.53.17-1.02.08-2.1-.14-3.09-.13-.58-.16-1.26-.55-1.73-.4-.48-.86-.92-1.51-.94l.03-.37c.86.26 1.67-.25 2.26-2.16.51-1.73-.11-6.41-.41-8.4l1.96-.13c1.14-.39 2.16-.36 3.1 0l1.16.2Z"/><path class="cls-3" d="M158.35 45.18c.22.99.31 2.07.14 3.09-.1.14-.21.27-.31.39-.1-.52-.25-1.01-.45-1.46-.29-.88-.75-1.5-1.11-2.11-.12-.22-.23-.43-.31-.66-.15-.51-.18-1.05-.19-1.74l.08-.17h.1c.65.02 1.11.46 1.51.94.38.47.42 1.15.55 1.73Z"/><path class="cls-9" d="m156.19 45.34-1.15-.02c.52 0 .94 0 1.15.02Z"/><path class="cls-9" d="m155.04 45.32 1.15.02c-.18.55-1.61 1.49-2.58 1.49s-2.53-1.55-2.53-1.55l3.97.04Z"/><path class="cls-11" d="M134.69 174.01h20.03v7.98h-20.03z"/><path class="cls-4" d="M151.29 52.4s-.1 1.7-.89 3.3c-.12.25-.26.5-.43.74-1.19 1.78-12.89 5.17-12.89 5.17a77.972 77.972 0 0 0-3.39-3.5c1.59-2.33 1.05-5.29 1.05-5.29l9.98-.61c.88.36 1.76.57 2.67.63.71.06 1.45.02 2.21-.13.6-.11 1.15-.22 1.68-.31Z"/><path class="cls-9" d="m155.04 45.32-3.97-.04s1.74-1.48 2.43-1.43c.69.03 2.48.86 2.68 1.49-.21 0-.62 0-1.15-.02Z"/><path class="cls-8" d="m144.72 52.21-9.98.61-3.08-15.06c-.16.03-.35.05-.54.08 1.56-.36 2.52-.99 3.25-1.74.12 0 1.07-.1 2.79-.44 1.85-.37 3.84-1.75 3.84-1.75-.82-.26-1.46-1.61-1.56-2.36-.04-.32.08-1.14.33-2 .41-1.35 1.16-2.79 2.14-2.49 1.82.56.72 1.83 1.3 2.02.44.15 1.48-1.07 1.84-2.18.37-1.1 2.25-5.17 2.91-7.09.67-1.92.23-3.84 1.71-3.54 1.48.3 4.7 1.53 6.79 1.72 1.75.16 4.09-.67 4.28-.74 1.1.63 2.05 1.31 2.7 2 1.57 1.68 1.69 6.88.94 12.39l-1.16-.2c-.94-.36-1.96-.39-3.1 0l-1.96.13c.3 1.99.92 6.67.41 8.4-.58 1.91-1.4 2.42-2.26 2.16l-.03.37h-.1l-.08.17c0 .69.04 1.23.19 1.74.08.23.19.44.31.66l-.43.25c-.2-.63-1.99-1.46-2.68-1.49-.69-.04-2.43 1.43-2.43 1.43l-.68-.03c.29-.78.43-1.61.63-2.52l-.1-.19c-1.08.14-1.79.92-2.39 1.69-.57.75-.69 1.72-.93 2.6-.45 1.75-.67 3.68-.2 5.45l-.03.56c-.91-.06-1.8-.28-2.67-.63Z"/><path class="cls-11" d="M149.25 200.89h-29.69v-.3c0-3-2.44-5.44-5.45-5.44s-5.44 2.44-5.44 5.44v.3H81l31.64-18.9h4.97l31.64 18.9Z"/><path class="cls-8" d="m147.42 52.29.21-.02c.19-2.61 1.66-4.81 2.78-7.02l.68.03s1.56 1.55 2.53 1.55 2.39-.95 2.58-1.49l.43-.25c.36.61.82 1.23 1.11 2.11.2.45.36.94.45 1.46-.58.7-1.15 1.27-1.71 1.71-1.58 1.27-3.14 1.66-5.18 2.04-.53.1-1.08.2-1.68.31-.76.15-1.5.19-2.21.13l.03-.56Z"/><path class="cls-3" d="m147.62 52.27-.21.02c-.47-1.77-.25-3.7.2-5.45.23-.89.36-1.85.93-2.6.61-.77 1.31-1.55 2.39-1.69l.1.19c-.2.9-.35 1.74-.63 2.52-1.12 2.21-2.59 4.41-2.78 7.02Z"/><path class="cls-6" d="M145.05 26.9c-.36 1.11-1.4 2.33-1.84 2.18-.58-.19.52-1.46-1.3-2.02-.98-.3-1.74 1.14-2.14 2.49l-.86-.29c.49-1.46.82-2.92 1.05-3.69.44-1.55 3.11-9.41 4.32-10.63.72-.73 1.75-1.21 2.79-1.49l-.36-.29-6.98-2.54s.1-1.55 2.98-3.32c2.88-1.78 7.09-3.77 13.18-4.32 6.1-.56 23.6-3.65 24.15-2 .56 1.66-5.42 8.2-9.08 9.64-1.83.72-4.6 2.26-6.91 3.63-2.31 1.37-4.16 2.55-4.16 2.55.29.15.56.3.82.45-.19.07-2.53.89-4.28.74-2.09-.19-5.31-1.42-6.79-1.72-1.48-.3-1.04 1.62-1.71 3.54-.66 1.92-2.53 5.99-2.91 7.09Z"/><path class="cls-6" d="M137.16 35.66c-1.73.34-2.67.43-2.79.44.95-.98 1.49-2.15 2.5-3.08.89-.82 1.55-2.29 2.05-3.76l.86.29c-.25.86-.37 1.67-.33 2 .1.75.75 2.1 1.56 2.36 0 0-2 1.38-3.84 1.75ZM134.74 52.82s.54 2.97-1.05 5.29c-1.39-1.36-2.88-2.73-4.4-4.07.89-4.91-3.74-15.34-3.74-15.34 2.23-.37 4.17-.66 5.54-.86h.03c.19-.03.37-.05.54-.08l3.08 15.06ZM124.62 174.01h10.07v7.98h-10.07z"/><path class="cls-4" d="M125.55 38.7s4.62 10.43 3.74 15.34c-5.58-4.94-11.57-9.48-14.62-11.45l-1.8-1.37c4.23-1.02 8.89-1.88 12.68-2.52Z"/><path class="cls-11" d="M124.62 174.01v7.98h-20.03v-7.98h20.03z"/><path class="cls-10" d="m118.36 132.58 1.55 11.97c-3.55 1.99-16.62 2.88-22.82 0l21.27-11.97Z"/><path class="cls-6" d="M119.56 200.59v.3h-10.89v-.3c0-3 2.44-5.44 5.44-5.44s5.45 2.44 5.45 5.44Z"/><path class="cls-5" d="M115.93 162.27c-2.88-.22-7.53-4.87-7.53-4.87v-.28c-6.46-.02-13-.51-15.29-1.49-4.65-1.99-8.32-3.51-8.32-3.51l-.62.06-1.79-18.14c1.22-3.74 1.76-9.08 5.28-13.2 3.11 8.8 9.44 23.71 9.44 23.71 6.2 2.88 19.27 1.99 22.82 0 0 0 5.68 7.31 15.13 7.09.96-.03 2.21-.07 3.68-.14 0 0 9.08 6.12 18.61 3.46 9.54-2.66 17.33-6.36 17.33-6.36 5.72-.69 10.17-1.46 11.71-2.21 5.09-2.51 6.2-5.16 6.2-5.16s1.74.11 4.31.25c-.2.35-6.58 11.12-15.35 13.37-5.68 1.24-14.15 2.46-21.09 2.77-9.75 11.97-15.95 8.42-22.38 8.64-6.42.22-19.27-3.77-22.15-3.99Z"/><path class="cls-6" d="M94.53 174.01h10.07v7.98H94.53z"/><path class="cls-2" d="M93.1 155.63c2.29.98 8.82 1.48 15.29 1.49v.28l-4.88.22c-4.21 5.09-13.29 4.43-17.5 1.33 0 0-.41-.12-1.23-.37l-.62-6.4.62-.06s3.67 1.53 8.32 3.51Z"/><path class="cls-11" d="M74.5 174.01h20.03v7.98H74.5z"/><path class="cls-4" d="M86.99 72.33s2.16 10.48 3.02 12.51l1.44.56c-.82 2.1-1.61 4.06-2.33 5.61-3.11 6.79-4.88 19.43-2.22 27.62.22.68.48 1.42.75 2.22-3.52 4.12-4.06 9.46-5.28 13.2-.43 1.28-.94 2.39-1.67 3.18-2.88 3.12-8.82 17.4-8.82 17.4-1.65-.5-3.43-1.06-5.35-1.66-6.64-2.07-10.32-7.25-12.32-13.48-1.3-4.01-1.9-8.44-2.14-12.74-.1-1.72-.15-3.41-.15-5.05v-.64c0-1.34.08-2.57.24-3.71 1.3-9.26 7.89-12.67 19.92-19.77 4.99-2.94 8.2-5.89 10.34-9.27 2.75-4.32 3.77-9.35 4.57-15.98Z"/><path class="cls-4" d="m82.37 134.04 1.79 18.14.62 6.4c-1.98-.6-6.31-1.92-12.9-3.95 0 0 5.94-14.28 8.82-17.4.74-.8 1.24-1.9 1.67-3.18Z"/><path class="cls-4" d="M71.87 154.62c6.59 2.03 10.92 3.35 12.9 3.95-4.06 2.45-21.95 6.72-28.59 8.01-6.65 1.29-7.83-1.43-10.93-4.53-1.58-1.58-3.27-4.89-4.89-8.72-1.56-3.69-3.05-7.86-4.27-11.46-.51-1.5-.99-2.44-1.45-2.93l.03-.43 19.52.99c2 6.22 5.68 11.41 12.32 13.48 1.93.6 3.71 1.15 5.35 1.66Z"/><path class="cls-6" d="M64.43 174.01H74.5v7.98H64.43z"/><path class="cls-11" d="M74.5 200.89H44.82v-.3c0-3-2.44-5.44-5.45-5.44s-5.45 2.44-5.45 5.44v.3H6.26l31.64-18.9h4.96l31.64 18.9ZM44.41 174.01h20.03v7.98H44.41z"/><path class="cls-1" d="M51.9 121.06v.64H26.32c-2.24-.43-4.16-.75-5.59-.86-4.03-.3-6.16-1.83-6.4 0H.5v-3.5h51.64c-.16 1.15-.24 2.38-.24 3.71Z"/><path class="cls-6" d="M44.82 200.59v.3h-10.9v-.3c0-3 2.44-5.44 5.45-5.44s5.45 2.44 5.45 5.44ZM44.41 174.01v7.98H34.34v-7.98h10.07z"/><path class="cls-11" d="M44.41 181.99h68.23L81 200.89h-6.5l-31.64-18.9h1.55zM37.9 181.99l-31.64 18.9H.5v-18.9H37.9z"/><path class="cls-2" d="M36.09 141.87c1.22 3.6 2.71 7.77 4.27 11.46-3.56 1.19-16.83 0-16.83 0 3.55-1.18 3.7-1.19 6.06-6.94 1.87-4.57 3.29-9.36 5.05-7.45.46.49.94 1.43 1.45 2.93Z"/><path class="cls-7" d="M26.32 121.7H51.9c0 1.64.04 3.33.15 5.05-7.91-.91-18.47-3.62-25.73-5.04Z"/><path class="cls-4" d="M34.65 138.93c-1.76-1.91-3.18 2.88-5.05 7.45-2.36 5.75-2.51 5.76-6.06 6.94-2.95-1.33-5.61-16.98-8.12-26.58-.84-3.21-1.2-4.98-1.08-5.91.23-1.83 2.36-.3 6.4 0 1.43.1 3.35.43 5.59.87 7.25 1.42 17.82 4.13 25.73 5.04.24 4.3.84 8.73 2.14 12.74l-19.52-.99-.03.43Z"/><path class="cls-11" d="M14.31 174.01h20.03v7.98H14.31z"/><path class="cls-7" d="M181.54 154.85c2.67-.58 4.73-1.17 5.72-1.67 1.54-.31 2.85-.58 3.98-.81 1.16-.09 2.24-.32 3.25-.65 3.09-.61 3.88-.75 5.62-1.2 2.66-.67 10.86-1.33 12.41-3.99 1.55-2.66 5.76-5.31 5.76-5.31s20.16-7.09 20.83-8.87c.14-.36.16-.88.05-1.49-.35-1.97-2.03-5.01-5.59-7.81h35.14V174H.5v-53.17h13.84c-.12.93.23 2.7 1.08 5.91 2.51 9.6 5.17 25.25 8.12 26.58 0 0 13.27 1.19 16.83 0 1.61 3.84 3.31 7.14 4.89 8.72 3.11 3.1 4.29 5.82 10.93 4.53 6.64-1.28 24.53-5.56 28.59-8.01.82.25 1.23.37 1.23.37 4.21 3.11 13.29 3.77 17.5-1.33l4.88-.22s4.65 4.65 7.53 4.87c2.88.23 15.73 4.21 22.15 3.99 6.43-.23 12.63 3.32 22.38-8.64 6.93-.3 15.4-1.53 21.09-2.77Z"/><path class="cls-6" d="M4.25 174.01h10.07v7.98H4.25z"/><path class="cls-11" d="M.5 174.01h3.75v7.98H.5z"/><path class="cls-12" d="M131.12 37.84c.19-.03.37-.05.54-.08l3.08 15.06 9.98-.61.84-.05M84.77 158.57c-1.98-.6-6.31-1.92-12.9-3.95-1.65-.5-3.43-1.06-5.35-1.66-6.64-2.07-10.32-7.25-12.32-13.48-1.3-4.01-1.9-8.44-2.14-12.74-.1-1.72-.15-3.41-.15-5.05v-.64c0-1.34.08-2.57.24-3.71 1.3-9.26 7.89-12.67 19.92-19.77 4.99-2.94 8.2-5.89 10.34-9.27 2.75-4.32 3.77-9.35 4.57-15.98.28-2.24.53-4.67.81-7.31 1.78-16.62 11.08-19.28 18.61-21.94 1.88-.66 4.11-1.28 6.47-1.86 4.23-1.02 8.89-1.88 12.68-2.52 2.23-.37 4.17-.66 5.54-.86M108.39 157.4l-4.88.22c-4.21 5.09-13.29 4.43-17.5 1.33 0 0-.41-.12-1.23-.37"/><path class="cls-13" d="M181.54 154.85c-5.68 1.24-14.15 2.46-21.09 2.77-9.75 11.97-15.95 8.42-22.38 8.64-6.42.22-19.27-3.77-22.15-3.99-2.88-.22-7.53-4.87-7.53-4.87"/><path class="cls-12" d="M239.16 130.86c.1.62.09 1.13-.05 1.49-.67 1.78-20.83 8.87-20.83 8.87s-4.21 2.66-5.76 5.31c-1.55 2.66-9.75 3.32-12.41 3.99-1.74.44-2.53.59-5.62 1.2-.88.17-1.94.38-3.25.65-1.13.23-2.44.49-3.98.81-.99.49-3.05 1.08-5.72 1.67"/><path class="cls-13" d="M233.57 123.05c3.56 2.8 5.24 5.84 5.59 7.81"/><path class="cls-12" d="M226.14 118.26c.9.56 2.47 1.54 5.22 3.24.81.5 1.55 1.02 2.22 1.55M156.58 50.5s4.84-.62 7.27.93l.26.18c2.33 1.77 4.55 6.42 7.31 11.85s8.3 13.62 11.07 16.62c1.84 2 5.02 5.36 6.92 7.38.96 1.02 1.61 1.7 1.61 1.7s2.55 7.64 3.11 9.86l12.74 1.77 5.87 5.54s5.99.23 10.2 3.88c4.21 3.66 2 7.31 2 7.31l1.2.75M160.74 17.25c-.19.07-2.53.89-4.28.74-2.09-.19-5.31-1.42-6.79-1.72-1.48-.3-1.04 1.62-1.71 3.54-.66 1.92-2.53 5.99-2.91 7.09-.36 1.11-1.4 2.33-1.84 2.18-.58-.19.52-1.46-1.3-2.02-.98-.3-1.74 1.14-2.14 2.49-.25.86-.37 1.67-.33 2 .1.75.75 2.1 1.56 2.36.08.03.16.05.25.05.92.04 1.77-.36 1.77-.36"/><path class="cls-12" d="M147.96 24.25s4.96-.33 6.4 0M159.35 25.9s3.39-.78 4.43 0M148.6 30.16c2.22-.37 4.1-.32 5.76 0M158.02 30.67s.06.35.15.91c.3 1.99.92 6.67.41 8.4-.58 1.91-1.4 2.42-2.26 2.16-.14-.03-.27-.1-.41-.17M160.13 31.45c1.14-.39 2.16-.36 3.1 0M154.37 37.76s-4.87 6.09-8.81 6.76M114.67 42.59c3.05 1.97 9.04 6.52 14.62 11.45 1.52 1.34 3.01 2.71 4.4 4.07 1.21 1.18 2.36 2.36 3.39 3.5 2.46 2.73 4.25 5.22 4.75 7.09 1.79 6.79-.28 24.52-2.2 27.91M129.29 87.46s11.52 12.7 11.52 18.91M144.06 61.61s6.75 16.7 6.33 36.33M137.08 61.61s11.7-3.39 12.89-5.17c.16-.23.3-.49.43-.74.8-1.6.89-3.3.89-3.3M166.66 94.55s18.5-6.35 22.76-7.09M160.41 73.44s6.54-4.3 7.58-6.36M97.1 69.6s-2.91 8.69-5.65 15.79c-.82 2.1-1.61 4.06-2.33 5.61-3.11 6.79-4.88 19.43-2.22 27.62.22.68.48 1.42.75 2.22 3.11 8.8 9.44 23.71 9.44 23.71l21.27-11.97s-22.6-13.07-23.49-17.94M118.36 132.58l1.55 11.97c-3.55 1.99-16.62 2.88-22.82 0"/><path class="cls-12" d="M119.92 144.55s5.68 7.31 15.13 7.09c.96-.03 2.21-.07 3.68-.14 8.58-.4 24.7-1.53 35.94-2.9 5.72-.69 10.17-1.46 11.71-2.21 5.09-2.51 6.2-5.16 6.2-5.16l-3.16-2.8-11.38-10.1-14.27-12.65c.17-3.18.22-6.25.16-9.21-.25-13.28-2.46-24.24-3.18-31.12-.07-.62-.18-1.26-.34-1.91-1-4.24-3.7-8.91-6.05-12.39-2.13-3.17-3.97-5.35-3.97-5.35"/><path class="cls-12" d="M163.78 115.67c-2.88-2.8-8.08-9.07-18.22-8.6-10.14.48-44.04-.34-47.36-.7-3.32-.37-6.86-2.7-6.86-2.7M163.78 106.37l.16.1 24.44 14.38s-8.03 5-10.33 7.48"/><path class="cls-12" d="m188.37 120.84.98 16.38.07 1.2M189.35 137.22s6.77-.1 11.97-.88 33.44-5.87 37.82-5.48M192.58 141.23s1.74.11 4.31.25c2.13.1 4.85.23 7.64.3 5.74.16 11.8.15 13.74-.56M138.73 151.5s9.08 6.12 18.61 3.46c9.54-2.66 17.33-6.36 17.33-6.36M87.65 120.84c-3.52 4.12-4.06 9.46-5.28 13.2-.43 1.28-.94 2.39-1.67 3.18-2.88 3.12-8.82 17.4-8.82 17.4M84.78 152.12s3.67 1.53 8.32 3.51c2.29.98 8.82 1.48 15.29 1.49 6.67.02 13.27-.48 15.06-1.49M154.37 61.05s1.74-1.3 3.67-2.93c2.3-1.95 4.89-4.38 5.19-5.71"/><path class="cls-12" d="M158.04 58.11s7.6 4.94 10.84 5.79M125.55 38.7s4.62 10.43 3.74 15.34M134.74 52.82s.54 2.97-1.05 5.29M136.86 45.73c2.77 3.13 5.25 5.42 7.85 6.48.88.36 1.76.57 2.67.63.71.06 1.45.02 2.21-.13.6-.11 1.15-.22 1.68-.31 2.04-.38 3.6-.77 5.18-2.04.56-.44 1.13-1.01 1.71-1.71.1-.12.21-.25.31-.39.56-.69 1.13-1.54 1.74-2.53 1.86-3.01 3.43-8.69 4.16-14.08.75-5.51.63-10.71-.94-12.39-.65-.69-1.6-1.37-2.7-2-.27-.16-.54-.3-.82-.45 0 0 1.85-1.18 4.16-2.55 2.31-1.36 5.08-2.91 6.91-3.63 3.65-1.44 9.63-7.98 9.08-9.64-.55-1.66-18.05 1.44-24.15 2-6.09.56-10.3 2.54-13.18 4.32-2.88 1.77-2.98 3.32-2.98 3.32l6.98 2.54.36.29c-1.04.28-2.07.76-2.79 1.49-1.21 1.21-3.88 9.08-4.32 10.63-.23.77-.56 2.23-1.05 3.69-.49 1.47-1.16 2.93-2.05 3.76-1.01.93-1.55 2.1-2.5 3.08-.73.75-1.68 1.38-3.25 1.74h-.03M52.05 126.75c-7.91-.91-18.47-3.62-25.73-5.04-2.24-.44-4.16-.76-5.59-.87-4.03-.3-6.16-1.83-6.4 0-.12.93.23 2.7 1.08 5.91 2.51 9.6 5.17 25.25 8.12 26.58 3.55-1.18 3.7-1.19 6.06-6.94 1.87-4.57 3.29-9.36 5.05-7.45.46.49.94 1.43 1.45 2.93 1.22 3.6 2.71 7.77 4.27 11.46 1.61 3.84 3.31 7.14 4.89 8.72 3.11 3.1 4.29 5.82 10.93 4.53 6.64-1.28 24.53-5.56 28.59-8.01l-.62-6.4-1.79-18.14"/><path class="cls-12" d="M23.54 153.33s13.27 1.19 16.83 0M159.07 41.91c.23.83.32 1.5.72 2.6M86.99 72.33s2.16 10.48 3.02 12.51M82.4 88.3c.04.21.72 3.52 3.2 4.29"/><path class="cls-13" d="M151.08 45.28s1.56 1.55 2.53 1.55 2.39-.95 2.58-1.49"/><path class="cls-13" d="M151.08 45.28s1.74-1.48 2.43-1.43c.69.03 2.48.86 2.68 1.49l-1.15-.02-3.97-.04ZM204.54 141.78s-3.05 7.58-10.05 9.94c-1.01.33-2.08.56-3.25.65M196.9 141.47h0c-.2.36-6.58 11.12-15.35 13.38-.38.1-.77.19-1.16.25M.99 120.84h13.32M26.32 121.7H51.9M.99 117.35h51.16M.5 181.99v-7.98M268.72 198.71v2.18H.5M268.72 181.99v.97M226.14 118.26h42.06"/><path class="cls-12" d="M226.13 118.26h.01"/><path class="cls-13" d="M268.29 123.05h-34.72M34.62 138.5h.05l19.53.99"/><path class="cls-12" d="M255.07 174.01h13.65M224.96 174.01h20.03M194.87 174.01h20.03M164.78 174.01h20.03M134.69 174.01h20.02M104.59 174.01h20.03M74.5 174.01h20.03M44.41 174.01h20.02M14.31 174.01h20.03M.5 174.01h3.75M4.25 181.99H.5M34.34 181.99H14.31M64.43 181.99H44.41M94.53 181.99H74.5M124.62 181.99h-20.03M154.71 181.99h-20.02M184.81 181.99h-20.03M214.9 181.99h-20.03M244.99 181.99h-20.03M268.72 181.99H255.07M4.25 174.01h10.07v7.98H4.25zM44.41 181.99H34.34v-7.98h10.07v7.98zM64.43 174.01H74.5v7.98H64.43zM94.53 174.01h10.07v7.98H94.53zM124.62 174.01h10.07v7.98h-10.07zM154.71 174.01h10.07v7.98h-10.07zM194.87 181.99h-10.06v-7.98h10.06v7.98zM214.9 174.01h10.07v7.98H214.9zM244.99 174.01h10.07v7.98h-10.07zM37.9 181.99l-31.64 18.9M42.86 181.99l31.64 18.9M33.92 200.59c0-3 2.44-5.44 5.45-5.44s5.45 2.44 5.45 5.44M112.64 181.99 81 200.89M117.61 181.99l31.64 18.9M108.67 200.59c0-3 2.44-5.44 5.44-5.44s5.45 2.44 5.45 5.44M187.38 181.99l-31.63 18.9M192.35 181.99l31.63 18.9M183.41 200.59c0-3 2.44-5.44 5.45-5.44s5.45 2.44 5.45 5.44M262.13 181.99l-31.64 18.9M267.09 181.99l1.63.97M258.15 200.59a5.448 5.448 0 0 1 10.56-1.87v.02M141 33.9s-2 1.38-3.84 1.75c-1.73.34-2.67.43-2.79.44"/></svg>