<svg xmlns="http://www.w3.org/2000/svg" viewBox="0 0 270.41 211.74"><defs><style>.cls-1,.cls-3{stroke:#000;fill:none}.cls-1{stroke-miterlimit:10}.cls-3{stroke-linecap:round;stroke-linejoin:round}.cls-10,.cls-5,.cls-6,.cls-7,.cls-9{stroke-width:0}.cls-5{fill:#f3edd7}.cls-6{fill:#333}.cls-7{fill:#fe4a39}.cls-9{fill:#abd0c8}.cls-10{fill:#ff7d5d}</style></defs><g id="_畳" data-name="畳"><path d="M.24 177.1h3.62v5.03H.24zM270.16 204.68v6.57H239.7l15.35-8.63c1.03 1.62 3.11 2.72 5.51 2.72s4.62-1.18 5.62-2.88l3.97 2.23ZM270.16 194.12v10.56l-3.97-2.23c.38-.65.59-1.38.59-2.15 0-1.3-.62-2.48-1.62-3.38l4.99-2.81Z" class="cls-5"/><path d="M270.16 182.13v11.99l-4.99 2.81c-1.14-1.01-2.77-1.64-4.59-1.64s-3.31.58-4.44 1.51l-26.1-14.67h40.12ZM270.16 103.84v5.77H.24v-5.77h269.92zM266.17 177.1h3.99v5.03h-3.99z" class="cls-5"/><path d="M266.78 200.3c0 .76-.21 1.49-.59 2.15l-5.42-3.05 4.39-2.48c1 .89 1.62 2.08 1.62 3.38Z" class="cls-5"/><path d="m260.77 199.4 5.42 3.05c-1 1.7-3.14 2.88-5.62 2.88s-4.48-1.1-5.51-2.72l5.71-3.21Z" class="cls-5"/><path d="M254.86 177.1h11.31v5.03h-11.31z" class="cls-6"/><path d="m265.17 196.92-4.39 2.48-4.64-2.61c1.13-.93 2.7-1.51 4.44-1.51 1.82 0 3.46.63 4.59 1.64ZM260.77 199.4l-5.71 3.21c-.44-.69-.69-1.48-.69-2.31 0-1.37.68-2.61 1.77-3.51l4.64 2.61Z" class="cls-5"/><path d="m230.04 182.13 26.1 14.67c-1.09.9-1.77 2.14-1.77 3.51 0 .83.25 1.62.69 2.31l-15.35 8.63h-41.49l-15.65-8.8c.38-.65.59-1.38.59-2.15 0-1.3-.62-2.48-1.62-3.37l26.34-14.81h22.15Zm-5.97 18.18c0-2.77-2.25-5.02-5.02-5.02s-5.03 2.25-5.03 5.02 2.25 5.03 5.03 5.03 5.02-2.25 5.02-5.03Z" class="cls-5"/><path d="M254.86 182.13h-30.52v-5.03h30.52v5.03z" class="cls-5"/><path d="M213.03 177.1h11.31v5.03h-11.31zM219.06 195.28c2.77 0 5.02 2.25 5.02 5.02s-2.25 5.03-5.02 5.03-5.03-2.25-5.03-5.03 2.25-5.02 5.03-5.02Z" class="cls-6"/><path d="m207.89 182.13-26.34 14.81c-1.14-1.02-2.77-1.65-4.59-1.65s-3.31.58-4.44 1.51l-26.1-14.67h61.47ZM182.5 182.13v-5.03h30.53v5.03H182.5zM198.22 211.24h-42.14l15.35-8.63c1.03 1.62 3.12 2.72 5.51 2.72s4.62-1.18 5.62-2.88l15.65 8.8Z" class="cls-5"/><path d="M183.16 200.3c0 .76-.21 1.49-.59 2.15l-5.42-3.05 4.39-2.47c1 .89 1.62 2.07 1.62 3.37Z" class="cls-5"/><path d="m177.15 199.4 5.42 3.05c-1 1.7-3.14 2.88-5.62 2.88s-4.48-1.1-5.51-2.72l5.71-3.21Z" class="cls-5"/><path d="M171.2 177.1h11.31v5.03H171.2z" class="cls-6"/><path d="M176.95 195.28c1.82 0 3.46.63 4.59 1.65l-4.39 2.47-4.64-2.61c1.13-.93 2.7-1.51 4.44-1.51Z" class="cls-5"/><path d="m177.15 199.4-5.71 3.21c-.44-.69-.69-1.48-.69-2.31 0-1.37.68-2.61 1.77-3.51l4.64 2.61Z" class="cls-5"/><path d="m146.42 182.13 26.1 14.67c-1.09.9-1.77 2.14-1.77 3.51 0 .83.25 1.62.69 2.31l-15.35 8.63H114.6l-15.65-8.8c.38-.65.59-1.38.59-2.15 0-1.3-.62-2.48-1.62-3.37l26.34-14.81h22.15Zm-7.02 18.18c0-2.77-2.25-5.02-5.02-5.02s-5.03 2.25-5.03 5.02 2.25 5.03 5.03 5.03 5.02-2.25 5.02-5.03Z" class="cls-5"/><path d="M171.2 182.13h-30.53v-5.03h30.53v5.03z" class="cls-5"/><path d="M129.36 177.1h11.31v5.03h-11.31zM134.38 195.28c2.77 0 5.02 2.25 5.02 5.02s-2.25 5.03-5.02 5.03-5.03-2.25-5.03-5.03 2.25-5.02 5.03-5.02Z" class="cls-6"/><path d="m124.27 182.13-26.34 14.81c-1.14-1.02-2.77-1.65-4.59-1.65s-3.31.58-4.44 1.51l-26.1-14.67h61.47ZM129.36 182.13H98.84v-5.03h30.52v5.03zM114.6 211.24H72.46l15.35-8.63c1.03 1.62 3.11 2.72 5.51 2.72s4.62-1.18 5.62-2.88l15.65 8.8Z" class="cls-5"/><path d="M99.54 200.3c0 .76-.21 1.49-.59 2.15l-5.42-3.05 4.39-2.47c1 .89 1.62 2.07 1.62 3.37ZM93.53 199.4l5.42 3.05c-1 1.7-3.14 2.88-5.62 2.88s-4.48-1.1-5.51-2.72l5.71-3.21Z" class="cls-5"/><path d="M87.53 177.1h11.31v5.03H87.53z" class="cls-6"/><path d="M93.33 195.28c1.82 0 3.46.63 4.59 1.65l-4.39 2.47-4.64-2.61c1.13-.93 2.7-1.51 4.44-1.51Z" class="cls-5"/><path d="m93.53 199.4-5.71 3.21c-.44-.69-.69-1.48-.69-2.31 0-1.37.68-2.61 1.77-3.51l4.64 2.61Z" class="cls-5"/><path d="m62.8 182.13 26.1 14.67c-1.09.9-1.77 2.14-1.77 3.51 0 .83.25 1.62.69 2.31l-15.35 8.63H30.79l-15.65-8.8c.38-.65.59-1.38.59-2.15 0-1.3-.62-2.48-1.62-3.37l26.34-14.81h22.34Zm-8.53 18.18c0-2.77-2.25-5.02-5.02-5.02s-5.03 2.25-5.03 5.02 2.25 5.03 5.03 5.03 5.02-2.25 5.02-5.03Z" class="cls-5"/><path d="M87.53 182.13H57.01v-5.03h30.52v5.03z" class="cls-5"/><path d="M45.7 177.1h11.31v5.03H45.7zM49.25 195.28c2.77 0 5.02 2.25 5.02 5.02s-2.25 5.03-5.02 5.03-5.03-2.25-5.03-5.03 2.25-5.02 5.03-5.02Z" class="cls-6"/><path d="M45.7 182.13H15.17v-5.03H45.7v5.03zM30.79 211.24H.24v-6.52L4 202.61c1.03 1.62 3.12 2.72 5.51 2.72s4.62-1.18 5.62-2.88l15.65 8.8ZM15.73 200.3c0 .76-.21 1.49-.59 2.15l-5.42-3.05 4.39-2.47c1 .89 1.62 2.07 1.62 3.37Z" class="cls-5"/><path d="M3.87 177.1h11.31v5.03H3.87z" class="cls-6"/><path d="m9.72 199.4 5.42 3.05c-1 1.7-3.14 2.88-5.62 2.88s-4.48-1.1-5.51-2.72l5.71-3.21ZM9.52 195.28c1.82 0 3.46.63 4.59 1.65l-4.39 2.47-4.64-2.61c1.13-.93 2.7-1.51 4.44-1.51Z" class="cls-5"/><path d="m9.72 199.4-5.71 3.21c-.44-.69-.69-1.48-.69-2.31 0-1.37.68-2.61 1.77-3.51l4.64 2.61ZM.24 194.07l4.84 2.72c-1.09.9-1.77 2.14-1.77 3.51 0 .83.25 1.62.69 2.31l-3.76 2.11v-10.65Z" class="cls-5"/><path d="M213.03 177.1H.24v-67.49H270.16v67.49h-57.13z" style="fill:#d2d296;stroke-width:0"/><path d="M.24 182.13h40.21l-26.34 14.81c-1.14-1.02-2.77-1.65-4.59-1.65s-3.31.58-4.44 1.51l-4.84-2.72v-11.95Z" class="cls-5"/><path d="M270.16 211.24H.24M.24 103.84h269.92M.24 109.61h269.92M266.17 177.1h3.99M224.34 177.1h30.52M182.5 177.1h30.53M140.67 177.1h30.53M98.84 177.1h30.52M57.01 177.1h30.52M15.17 177.1H45.7M.24 177.1h3.63M266.17 182.13h3.99M224.34 182.13h30.52M182.5 182.13h30.53M140.67 182.13h30.53M98.84 182.13h30.52M57.01 182.13h30.52M15.17 182.13H45.7M.24 182.13h3.63M72.46 211.24l15.36-8.63 5.71-3.21 4.4-2.47 26.34-14.8" class="cls-1"/><path d="m114.6 211.24-15.65-8.79-5.42-3.05-4.64-2.61-26.09-14.66M139.4 200.3c0 2.78-2.25 5.03-5.02 5.03s-5.03-2.25-5.03-5.03 2.25-5.02 5.03-5.02 5.02 2.25 5.02 5.02ZM224.07 200.3c0 2.78-2.25 5.03-5.02 5.03s-5.03-2.25-5.03-5.03 2.25-5.02 5.03-5.02 5.02 2.25 5.02 5.02Z" class="cls-1"/><path d="M97.93 196.93c1 .89 1.62 2.07 1.62 3.37 0 .76-.21 1.49-.59 2.15-1 1.7-3.14 2.88-5.62 2.88s-4.48-1.1-5.51-2.72c-.44-.69-.69-1.48-.69-2.31 0-1.37.68-2.61 1.77-3.51 1.13-.93 2.7-1.51 4.44-1.51 1.82 0 3.46.63 4.59 1.65ZM.24 204.72l3.77-2.11 5.71-3.21 4.39-2.47 26.34-14.8" class="cls-1"/><path d="m30.79 211.24-15.65-8.79-5.42-3.05-4.64-2.61-4.84-2.72" class="cls-1"/><path d="M14.11 196.93c1 .89 1.62 2.07 1.62 3.37 0 .76-.21 1.49-.59 2.15-1 1.7-3.14 2.88-5.62 2.88s-4.48-1.1-5.51-2.72c-.44-.69-.69-1.48-.69-2.31 0-1.37.68-2.61 1.77-3.51 1.13-.93 2.7-1.51 4.44-1.51 1.82 0 3.46.63 4.59 1.65ZM156.09 211.24l15.35-8.63 5.71-3.21 4.4-2.47 26.34-14.8" class="cls-1"/><path d="m198.22 211.24-15.65-8.79-5.42-3.05-4.63-2.61-26.1-14.66" class="cls-1"/><path d="M181.55 196.93c1 .89 1.62 2.07 1.62 3.37 0 .76-.21 1.49-.59 2.15-1 1.7-3.14 2.88-5.62 2.88s-4.48-1.1-5.51-2.72c-.44-.69-.69-1.48-.69-2.31 0-1.37.68-2.61 1.77-3.51 1.13-.93 2.7-1.51 4.44-1.51 1.82 0 3.46.63 4.59 1.65ZM239.71 211.24l15.35-8.63 5.71-3.21 4.4-2.48 4.99-2.8" class="cls-1"/><path d="m270.16 204.68-3.97-2.23-5.42-3.05-4.63-2.61-26.1-14.66" class="cls-1"/><path d="M265.17 196.92c1 .89 1.62 2.08 1.62 3.38 0 .76-.21 1.49-.59 2.15-1 1.7-3.14 2.88-5.62 2.88s-4.48-1.1-5.51-2.72c-.44-.69-.69-1.48-.69-2.31 0-1.37.68-2.61 1.77-3.51 1.13-.93 2.7-1.51 4.44-1.51 1.82 0 3.46.63 4.59 1.64ZM54.27 200.3c0 2.78-2.25 5.03-5.02 5.03s-5.03-2.25-5.03-5.03 2.25-5.02 5.03-5.02 5.02 2.25 5.02 5.02ZM3.87 177.1h11.31v5.03H3.87zM45.7 177.1h11.31v5.03H45.7zM87.53 177.1h11.31v5.03H87.53zM129.36 177.1h11.31v5.03h-11.31zM171.2 177.1h11.31v5.03H171.2zM213.03 177.1h11.31v5.03h-11.31zM254.86 177.1h11.31v5.03h-11.31z" class="cls-1"/></g><g id="_レイヤー_2" data-name="レイヤー 2"><path d="M120.03 25.55c.67 4.21.37 5.76.37 5.76l-.7.03c-1.06-2.74-1.65-4.59-2.48-5.28-.83-.69-3.55-1.25-4.26 1.09-.75 2.48-.74 5.02.67 5.93 1.07.69 1.75.3 1.75.3v2.33s-4.44 2.88-5.05 2.47c.5-2.77 1.59-4.65 1.28-5.71-.52-1.76-.61-5.97 1.18-7.3 1.65-1.23 3.94-2.15 5.05-2.27 1.49-5.04 5.18-12.38 5.96-12.83.44-1.22.39-1.5.39-1.5s-1.55-1.33-2-1.88c-.44-.55-.72-3.38 1.28-4.87 2-1.5 5.35-1.72 9.26-.67 3.96 1.07 18.17 2.88 19.73 2.72 1.63-.17 5.6 4.6 6.93 6.59 1.33 2-.11 3.94-4.27 3.44-4.15-.5-8.2-2.94-9.36-3.77s-4.32-.77-4.32-.77l-1.95 5.77c1.95 1.81 3.88 4.26 4.05 5.82-.1-.07-.21-.13-.31-.2-3.3-2.08-6.18-3.81-8.44-4.46-2.33-.67-3.82-1.88-4.72-1.88s-1.94-1.11-3.33 2.21c-1.77 4.26-3.23 9-6.7 8.93Z" class="cls-6"/><path d="M143.9 27.27c.18 3.82.04 8.22-1.02 10.39-1.88 3.83-3.99 9.11-6.77 11.72-.35.32-.77.69-1.29 1.07-2.26 1.69-5.97 3.68-9.97 3.89-2.26.12-4.6-.33-6.82-1.74-.66 2.1.11 2.87.11 2.87-5.43.89-7.87-.1-10.53-3.87-2.66-3.77-2.99-5.88-2.66-11.98 3.78 1.5 4.92.47 5.25-.45.18-.51.12-.99.12-.99.61.42 5.05-2.47 5.05-2.47v-2.33s-.68.38-1.75-.3c-1.41-.91-1.42-3.46-.67-5.93.71-2.34 3.43-1.79 4.26-1.09.83.69 1.42 2.54 2.48 5.28l.7-.03s.3-1.55-.37-5.76c3.47.07 4.93-4.66 6.7-8.93 1.39-3.33 2.44-2.21 3.33-2.21s2.39 1.22 4.72 1.88c2.26.64 5.14 2.38 8.44 4.46l-.02.03c.24 1.02.56 3.6.69 6.5ZM133.39 48.1c.23-.36-.8-.48-.8-.48l-2.69-.3c.06.72 1.39 1.33 1.39 1.33.56.11 1.88-.19 2.1-.55Z" style="fill:#ffe6be;stroke-width:0"/><path d="M74.69 141.95s31.2 7.65 35.87 6.32c4.65-1.34 8.92-8.54 10.14-8.88l.07-.07c.52.55 1.07 1.1 1.62 1.66.43.21.93.31 1.48.31l-4.13 8.93s-.59.52-3.77 1.48c-5.47 2.08-32.59-1.69-37.69-3.33-5.11-1.62-10.79-3.25-22.48-8.57l.57-.66 3.64-4.22.24-.3c2.76 2.15 6.07 4.64 7.34 5.22 4.29 2 7.74 2.72 7.1 2.11Z" style="stroke-width:0;fill:#dad3b9"/><path d="M46.17 107.67h.02c.61-.32 1.4-.15 2.22 1.69.56 1.27 2.63 3.86 5.09 6.56-.11 4.24-6.12 6.47-9.41 6.69l-.08-.04c.3-.43.47-1.05.52-1.89.45-7.54.23-11.31.67-11.98.18-.28.53-.77.97-1.02Z" class="cls-10"/><path d="M53.5 115.92c-2.46-2.7-4.52-5.29-5.09-6.56-.83-1.84-1.62-2.01-2.22-1.69 4.39-3.38 17.7-9.74 20.52-10.28h.6c-.22 3.93-.27 5.62-.27 7.87 0 3.44 1.88 10.42 9.31 9.76l-12.51 9.93-.23-.3c-1.61-.2-6.31-4.59-10.1-8.74Z" class="cls-10"/><path d="M36.89 123.44s6.37 14.14 11.1 15.53h-2.01c-4.65 0-12.31-4.32-15.85-6.21-3.55-1.88-8.42-6.65-10.31-10.53s-2.87-11.72-1.56-15.5c3.6 1.73 5.31 3.43 9.54 6.96 2.72 2.27 6.9 6 10.41 8.11l-1.32 1.64Z" class="cls-9"/><path d="m63.6 124.65.23.3-7.89 6.25s1.95 1.59 4.31 3.42l-.24.3-3.64 4.22-.09-.08s-4.18-.09-8.3-.1c-4.72-1.39-11.1-15.53-11.1-15.53l1.32-1.64c2.6 1.56 4.83 2.24 5.8.76l.08.04c3.29-.22 9.3-2.45 9.41-6.69 3.79 4.14 8.49 8.54 10.1 8.74ZM137.48 151.15s20.1-6.46 21.58-10.16l.07-.3c3.04.78 6.96 1.19 10.57 1.5 2.98.25 5.75.44 7.62.72 1.17.17 2.49.44 3.86.76l-.03.12c-1.55 2.51-15.08 5.69-20.62 7.46s-16.19-1.18-19.96-.44c-.77.15-1.83.26-3.1.33Z" class="cls-9"/><path d="m156.35 140.01.1-.21c.76.34 1.68.63 2.68.89l-.07.3c-1.49 3.7-21.58 10.16-21.58 10.16-4.91.29-12.8-.03-17.74-.92l4.13-8.93c.49 0 1.02-.09 1.56-.24 1.73-.12 17.66-1.25 20.39-1.25s9.13 0 10.53.21ZM209.05 129.05c-.32.58-.6.98-.84 1.15l-.33.25c-5.74-7.15-16.97-19.2-18.73-20.8-2.37-2.15-9.32-1.26-12.05-1.85-.48-.1-1.53-.22-2.95-.34l.05-.61c-1.35-.4-3.2-6.56-4.15-10.67 9.96-3.91 20.77-8.32 29.21-7.49 1.13.11 2.22.32 3.27.63 1.05.32 2.05.69 3 1.11 6.41 2.84 10.25 7.9 10.25 13.62 0 .48-.03.96-.09 1.46-.71 6.28-4.42 19.45-6.63 23.54Z" class="cls-9"/><path d="M69.11 80.08c-.64 2.85-1.12 5.84-1.3 8.88-.02.3-.03.6-.05.89h-.05s-7.47-.44-12.12-4.29c1.4-.59 13.52-5.47 13.52-5.47ZM215.23 82.67c.75 2.48-.09 8.55-.21 9.43-3.46-.82-6.85-1.52-9.41-1.89l-.1.23c-.95-.43-1.95-.79-3-1.11-1.04-.31-2.14-.52-3.27-.63 5.98-4.13 15.16-8.67 15.98-6.02Z" class="cls-10"/><path d="m218.11 104.04-2.35.02c0-5.71-3.84-10.78-10.25-13.62l.1-.23c2.55.37 5.95 1.08 9.41 1.89 6.74 1.61 13.72 3.66 15.28 4.69l.15.53c-5.04 2.58-12.34 6.71-12.34 6.71Z" class="cls-10"/><path d="M247.5 114.15c.64 1.29-.02 2.84-1.39 3.27-11.14 3.53-35.29 11.08-37.06 11.63 2.21-4.09 5.91-17.26 6.63-23.54.05-.5.09-.98.09-1.46l2.35-.02s7.3-4.13 12.34-6.71c2.13-1.09 3.85-1.9 4.44-2.01 1.99-.37 3.54.07 4.65 2.51.84 1.85 5.67 11.68 7.95 16.33Z" class="cls-10"/><path d="M211.27 137.51h.1c-.1 1.49-.89 2.61-3.97 3.92-4.36 1.85-10.57 5.4-13.16 5.4-2.04 0-7.94-1.94-13.06-3.15-1.37-.32-2.69-.6-3.86-.76-1.87-.28-4.64-.47-7.62-.72v-.03c8.76-4.77 36.26-6.2 41.57-4.65ZM153.13 137.09l-.06.06c-6.24-1.05-12.09-2.68-17.32-5.23 3.03-2.87 6.51-5.38 9.12-4.53 3 2.68 5.68 6.79 8.25 9.7Z" class="cls-7"/><path d="M153.13 137.09c.56.63 1.09 1.2 1.64 1.68.43.38 1 .73 1.68 1.03l-.1.21c-1.4-.21-7.73-.21-10.53-.21s-18.66 1.13-20.39 1.25c1.45-.43 3.06-1.43 4.5-2.95 1.16-1.23 3.34-3.83 5.82-6.18 5.23 2.54 11.07 4.18 17.32 5.23l.06-.06ZM74.82 51.96l6.57-6.52.11-.04c.83 2.3 3.02 6.64 3.58 7.29-3.13 2.38-6.13 4.92-8.03 7.09l-.15-.15s-5.45-5.3-4.24-7.49c.74-.22 1.45-.26 2.15-.17Z" class="cls-7"/><path d="M144.87 127.39c-2.61-.85-6.09 1.66-9.12 4.53-2.48 2.35-4.65 4.95-5.82 6.18-1.44 1.52-3.05 2.53-4.5 2.95-.55.16-1.08.24-1.56.24-.55 0-1.04-.1-1.48-.31-.56-.56-1.1-1.11-1.62-1.66-7.17-7.44-11.62-14.06-12.86-20.81-1.01-5.5-1.12-13 4.79-16.71 1.19-.75 2.62-1.34 4.33-1.74 1-.23 2.09-.39 3.29-.48 10.79.44 25.35 5.62 29.12 6.14 3.11.43 18.01 1.16 24.69 1.73 1.42.12 2.48.23 2.95.34 2.74.59 9.68-.3 12.05 1.85 1.76 1.6 12.99 13.65 18.73 20.8 1.96 2.45 3.28 4.32 3.36 4.99.09.78.17 1.46.13 2.08h-.1c-5.31-1.55-32.81-.12-41.57 4.65v.03c-3.6-.31-7.53-.72-10.57-1.5-1.01-.25-1.92-.55-2.68-.89-.68-.3-1.24-.65-1.68-1.03-.55-.49-1.09-1.06-1.64-1.68-2.57-2.91-5.25-7.02-8.25-9.71Z" class="cls-10"/><path d="M149.45 105.74c-3.77-.52-18.32-5.7-29.12-6.14-1.2.09-2.29.25-3.29.48.35-9.69 2.68-12.46 9.65-17.55 6.29-4.59 20.02-11.52 25.05-13.9.56-.27 1.01-.48 1.33-.62 3.27-1.44 8.6-3.1 10.98 3.27 0 0 4.93 19.06 5.49 22.45.1.64.28 1.49.5 2.46.95 4.12 2.81 10.27 4.15 10.67l-.05.61c-6.68-.57-21.58-1.3-24.69-1.73ZM140.71 58.58c.81-.52 1.54-.87 2.19-1.06 3.24-.99 4.61 1.7 4.71 5.16l.14 2.78-7.98-6.16-.04-.07c.36-.24.69-.46.99-.65Z" class="cls-10"/><path d="m147.74 65.46 3.94 3.04.05.12c-5.04 2.38-18.77 9.31-25.05 13.9-6.96 5.09-9.3 7.86-9.65 17.55-1.71.4-3.14.99-4.33 1.74l-.32-.66c-.86-5.53 1.22-12.42 5.55-20.84 4.05-7.9 16.32-17.38 21.79-21.08l.04.07 7.98 6.16Z" class="cls-7"/><path d="M74.69 141.95c.64.61-2.81-.11-7.1-2.11-1.27-.58-4.58-3.07-7.34-5.22-2.35-1.83-4.31-3.42-4.31-3.42l7.89-6.25 12.51-9.93c-7.43.66-9.31-6.32-9.31-9.76 0-2.25.05-3.93.27-7.87.1-1.88.25-4.29.45-7.54.02-.29.03-.58.05-.89.18-3.04.66-6.03 1.3-8.88 1.62-7.25 4.33-13.63 6.24-17.85.33-.73.93-1.56 1.7-2.46 1.9-2.17 4.91-4.71 8.03-7.09 5.85-4.47 12.11-8.42 12.11-8.42 2 6.54 5.05 14.19 10.48 15.35 5.43 1.16 11.86.44 17.18-5.26v-.03c3.99-.21 7.71-2.2 9.97-3.89l.12.16s6.82 3.85 7.93 6.84l.03.08c-.65.19-1.38.54-2.19 1.06-.3.19-.63.41-.99.65-5.47 3.7-17.74 13.17-21.79 21.08-4.32 8.42-6.41 15.31-5.55 20.84l.32.66c-5.91 3.71-5.8 11.21-4.79 16.71 1.24 6.75 5.69 13.37 12.86 20.81l-.07.07c-1.22.34-5.49 7.54-10.14 8.88-4.66 1.33-35.87-6.32-35.87-6.32Z" class="cls-10"/><path d="M118.03 52.6c2.21 1.41 4.56 1.86 6.82 1.74v.03c-5.31 5.71-11.75 6.43-17.18 5.26-5.44-1.16-8.48-8.81-10.48-15.35 0 0-6.25 3.94-12.11 8.42-.56-.65-2.74-4.99-3.58-7.29-.27-.75-.4-1.28-.28-1.4.5-.5 9.03-7.59 12.91-8.65 3.88-1.05 11.42 2.39 15.91 3.77l.16.05c-.33.92-1.48 1.95-5.25.45-.33 6.1 0 8.21 2.66 11.98 2.67 3.77 5.11 4.77 10.53 3.87 0 0-.77-.77-.11-2.87ZM18.25 106.72c-.92-.43-1.96-.88-3.2-1.35 5.43-7.87 23.61-17.24 32.04-20.29s7.65-4.99 8.26-5.82c.61-.83 2.49-4.88 3.83-8.48 1.33-3.6 5.76-10.47 8.42-14.3 1.78-2.56 3.47-3.86 5.07-4.33-1.22 2.2 4.24 7.49 4.24 7.49l.15.15c-.77.89-1.37 1.73-1.7 2.46-1.9 4.22-4.61 10.59-6.24 17.85S57 84.98 55.6 85.57c4.65 3.85 12.12 4.29 12.12 4.29h.05c-.2 3.25-.35 5.65-.45 7.54h-.6c-2.82.55-16.13 6.9-20.52 10.28h-.02c-.44.24-.79.74-.97 1.02-.44.67-.22 4.44-.67 11.98-.05.84-.23 1.46-.52 1.89-.97 1.48-3.2.8-5.8-.76-3.51-2.11-7.69-5.84-10.41-8.11-4.24-3.53-5.95-5.24-9.54-6.96Z" class="cls-10"/><path d="M110.33 38.18c.5-2.77 1.59-4.65 1.28-5.71-.52-1.76-.61-5.97 1.18-7.3 1.65-1.23 3.94-2.15 5.05-2.27 1.49-5.04 5.18-12.38 5.96-12.83.44-1.22.39-1.5.39-1.5s-1.55-1.33-2-1.88c-.44-.55-.72-3.38 1.28-4.87 2-1.5 5.35-1.72 9.26-.67 3.96 1.07 18.17 2.88 19.73 2.72 1.63-.17 5.6 4.6 6.93 6.59 1.33 2-.11 3.94-4.27 3.44-4.15-.5-8.2-2.94-9.36-3.77s-4.32-.77-4.32-.77l-1.95 5.77c1.95 1.81 3.88 4.26 4.05 5.82-.1-.07-.21-.13-.31-.2-3.3-2.08-6.18-3.81-8.44-4.46-2.33-.67-3.82-1.88-4.72-1.88s-1.94-1.11-3.33 2.21c-1.77 4.26-3.23 9-6.7 8.93.67 4.21.37 5.76.37 5.76l-.7.03c-1.06-2.74-1.65-4.59-2.48-5.28-.83-.69-3.55-1.25-4.26 1.09-.75 2.48-.74 5.02.67 5.93 1.07.69 1.75.3 1.75.3v2.33s-4.44 2.88-5.05 2.47Z" class="cls-3"/><path d="M110.33 38.18s.06.48-.12.99c-.33.92-1.48 1.95-5.25.45-.33 6.1 0 8.21 2.66 11.98 2.67 3.77 5.11 4.77 10.53 3.87 0 0-.77-.77-.11-2.87 2.21 1.41 4.56 1.86 6.82 1.74 3.99-.21 7.71-2.2 9.97-3.89.51-.38.94-.75 1.29-1.07 2.77-2.61 4.88-7.89 6.77-11.72 1.07-2.17 1.21-6.57 1.02-10.39-.13-2.9-.45-5.47-.69-6.5M134.94 50.6s6.82 3.85 7.93 6.84M112.38 101.15c-.86-5.53 1.22-12.42 5.55-20.84 4.05-7.9 16.32-17.38 21.79-21.08.36-.24.69-.46.99-.65.81-.52 1.54-.87 2.19-1.06 3.24-.99 4.61 1.7 4.71 5.16l.14 2.78v.1" class="cls-3"/><path d="M117.04 100.15v-.08c.35-9.69 2.68-12.46 9.65-17.55 6.29-4.59 20.02-11.52 25.05-13.9.56-.27 1.01-.48 1.33-.62 3.27-1.44 8.6-3.1 10.98 3.27 0 0 4.93 19.06 5.49 22.45.1.64.28 1.49.5 2.46.95 4.12 2.81 10.27 4.15 10.67M139.76 59.3l7.98 6.16 3.95 3.04" class="cls-3"/><path d="M119.74 113.05c1.85 1.11 18.63 9.98 23.14 12.79.69.43 1.35.95 2.01 1.54 3 2.69 5.68 6.8 8.25 9.71.56.63 1.09 1.2 1.64 1.68.43.38 1 .73 1.68 1.03.76.34 1.68.63 2.68.89 3.04.78 6.96 1.19 10.57 1.5 2.98.25 5.75.44 7.62.72 1.17.17 2.49.44 3.86.76 5.12 1.22 11.02 3.15 13.06 3.15 2.59 0 8.8-3.55 13.16-5.4 3.07-1.3 3.87-2.42 3.97-3.91.03-.62-.04-1.29-.13-2.08-.08-.68-1.4-2.54-3.36-4.99-5.74-7.15-16.97-19.2-18.73-20.8-2.37-2.15-9.32-1.26-12.05-1.85-.48-.1-1.53-.22-2.95-.34-6.68-.57-21.58-1.3-24.69-1.73-3.77-.52-18.32-5.7-29.12-6.14-1.2.09-2.29.25-3.29.48-1.71.4-3.14.99-4.33 1.74-5.91 3.71-5.8 11.21-4.79 16.71 1.24 6.75 5.69 13.37 12.86 20.81.52.55 1.07 1.1 1.62 1.66.43.21.93.31 1.48.31.49 0 1.02-.09 1.56-.24 1.45-.43 3.06-1.43 4.5-2.95 1.16-1.23 3.34-3.83 5.82-6.18 3.03-2.87 6.51-5.38 9.12-4.53" class="cls-3"/><path d="M125.28 141.07h.16c1.73-.12 17.66-1.25 20.39-1.25s9.13 0 10.53.21c.04 0 .09 0 .12.02M135.55 131.83c.07.03.13.06.2.1 5.23 2.54 11.07 4.18 17.32 5.23M169.7 142.17c8.76-4.77 36.26-6.2 41.57-4.65M123.88 141.28v.02l-4.14 8.93c4.94.89 12.84 1.21 17.74.92 1.27-.07 2.33-.18 3.1-.33 3.77-.74 14.42 2.21 19.96.44s19.07-4.95 20.62-7.46" class="cls-3"/><path d="M137.48 151.15s20.1-6.46 21.58-10.16M169.99 96.2s.03 0 .04-.02c9.96-3.91 20.77-8.32 29.21-7.49 1.13.11 2.22.32 3.27.63 1.05.32 2.05.69 3 1.11 6.41 2.84 10.25 7.9 10.25 13.62 0 .48-.03.96-.09 1.46-.71 6.28-4.42 19.45-6.63 23.54-.32.58-.6.98-.84 1.15" class="cls-3"/><path d="M199.19 88.73s.04-.03.06-.04c5.98-4.13 15.16-8.67 15.98-6.02.75 2.48-.09 8.55-.21 9.43 0 .07-.02.1-.02.1" class="cls-3"/><path d="M205.62 90.21c2.55.37 5.95 1.08 9.41 1.89 6.74 1.61 13.72 3.66 15.28 4.69M218.11 104.04s7.3-4.13 12.34-6.71c2.13-1.09 3.85-1.9 4.44-2.01 1.99-.37 3.54.07 4.65 2.51.84 1.85 5.67 11.68 7.95 16.33.64 1.29-.02 2.84-1.39 3.27-11.14 3.53-35.29 11.08-37.06 11.63-.07.03-.1.03-.1.03M110.05 39.12c-4.49-1.38-12.03-4.82-15.91-3.77-3.88 1.06-12.42 8.15-12.91 8.65-.12.12 0 .65.28 1.4.83 2.3 3.02 6.64 3.58 7.29.03.03.06.05.08.07M81.4 45.44l-6.58 6.52-.91.91M76.91 59.63s-5.45-5.3-4.24-7.49c.03-.08.09-.15.14-.21M46.19 107.67c.61-.32 1.4-.15 2.22 1.69.56 1.27 2.63 3.86 5.09 6.56 3.79 4.14 8.49 8.54 10.1 8.74" class="cls-3"/><path d="M74.97 51.98c-.05 0-.1 0-.15-.02a5.28 5.28 0 0 0-2.15.17c-1.61.48-3.29 1.77-5.07 4.33-2.67 3.83-7.1 10.7-8.42 14.3-1.34 3.6-3.22 7.65-3.83 8.48-.61.83.17 2.77-8.26 5.82s-26.61 12.42-32.04 20.29c1.24.48 2.28.92 3.2 1.35 3.6 1.73 5.31 3.43 9.54 6.96 2.72 2.27 6.9 6 10.41 8.11 2.6 1.56 4.83 2.24 5.8.76.3-.43.47-1.05.52-1.89.45-7.54.23-11.31.67-11.98.18-.28.53-.77.97-1.02M118.48 63.9s-8.64 13.75-10.64 19.18c-2 5.44-3.66 19.63-3.55 22.61.11 3 1.33 5.99 2.77 5.99M74.69 141.95s31.2 7.65 35.87 6.32c4.65-1.34 8.92-8.54 10.14-8.88" class="cls-3"/><path d="m60.01 134.93-3.64 4.22-.57.66c11.68 5.32 17.37 6.95 22.48 8.57 5.1 1.63 32.22 5.4 37.69 3.33 3.18-.96 3.77-1.48 3.77-1.48M18.26 106.69v.03c-1.31 3.78-.32 11.63 1.56 15.5s6.76 8.64 10.31 10.53c3.54 1.88 11.19 6.21 15.85 6.21h2.01c4.13.02 8.3.1 8.3.1" class="cls-3"/><path d="M36.89 123.44s6.37 14.14 11.1 15.53c.3.09.59.12.87.1" class="cls-3"/><path d="M30.57 125.65c2.1 1.33 7.21 8.76 13.08 9.76M44.09 122.6c3.29-.22 9.3-2.45 9.41-6.69v-.13M45.92 107.87c.08-.06.17-.13.25-.2h.02c4.39-3.38 17.7-9.74 20.52-10.28" class="cls-3"/><path d="M98.08 58.69c-.89.22-6.43 8.31-11.97 16.73-5.55 8.43-5.77 21.73-5.77 36.37l14.41 9.2s-.89 2-2.33 5.65-17.73 15.3-17.73 15.3c.64.61-2.81-.11-7.1-2.11-1.27-.58-4.58-3.07-7.34-5.22-2.35-1.83-4.31-3.42-4.31-3.42l7.89-6.25 12.51-9.93c-7.43.66-9.31-6.32-9.31-9.76 0-2.25.05-3.93.27-7.87.1-1.88.25-4.29.45-7.54.02-.29.03-.58.05-.89.18-3.04.66-6.03 1.3-8.88 1.62-7.25 4.33-13.63 6.24-17.85.33-.73.93-1.56 1.7-2.46 1.9-2.17 4.91-4.71 8.03-7.09 5.85-4.47 12.11-8.42 12.11-8.42 2 6.54 5.05 14.19 10.48 15.35 5.43 1.16 11.86.44 17.18-5.26M123.44 99.6c1.48-7.69 16.26-21.73 26.45-25.86M154.62 84.08s-24.84 15.08-27.05 16.26M138.22 102.71c6.8-.74 23.65-2.08 25.71-3.99M128.18 24.43c1.88-.28 4.39-1.11 5.71.05M140.32 27.53s2.5-.43 3.58-.26c.07 0 .13.03.19.04M135.99 31.36s1.67 11.36.72 11.91c-.94.56-3.77.61-4.98 0-1.22-.61-.28-1.72-.28-1.72" class="cls-3"/><path d="m132.77 47.56-3.22-.36c.07.86 1.66 1.59 1.66 1.59.66.13 2.25-.23 2.51-.65.27-.44-.96-.57-.96-.57Z" style="stroke-linecap:round;stroke-linejoin:round;fill:#c1272d;stroke:#000"/><path d="M126.82 31.86c1.49-.22 3.22-.02 5.02.28M138.38 33.64c.78-.23 1.99.07 3.27.44M69.11 80.08s-12.12 4.88-13.52 5.47c4.65 3.85 12.12 4.29 12.12 4.29" class="cls-3"/></g></svg>