<?xml version="1.0" encoding="UTF-8"?>
<svg xmlns="http://www.w3.org/2000/svg" viewBox="0 0 270.41 211.74">
  <defs>
    <style>
      .cls-1 {
        stroke-miterlimit: 10;
      }

      .cls-1, .cls-2, .cls-3 {
        stroke: #000;
      }

      .cls-1, .cls-3 {
        fill: none;
      }

      .cls-2 {
        fill: #c1272d;
      }

      .cls-2, .cls-3 {
        stroke-linecap: round;
        stroke-linejoin: round;
      }

      .cls-4 {
        fill: #dad3b9;
      }

      .cls-4, .cls-5, .cls-6, .cls-7, .cls-8, .cls-9, .cls-10, .cls-11 {
        stroke-width: 0px;
      }

      .cls-5 {
        fill: #f3edd7;
      }

      .cls-6 {
        fill: #333;
      }

      .cls-7 {
        fill: #fe4a39;
      }

      .cls-8 {
        fill: #d2d296;
      }

      .cls-9 {
        fill: #abd0c8;
      }

      .cls-10 {
        fill: #ff7d5d;
      }

      .cls-11 {
        fill: #ffe6be;
      }
    </style>
  </defs>
  <g id="_畳" data-name="畳">
    <g>
      <g>
        <rect class="cls-5" x=".24" y="177.1" width="3.62" height="5.03"/>
        <path class="cls-5" d="m270.16,204.68v6.57h-30.46l15.35-8.63c1.03,1.62,3.11,2.72,5.51,2.72s4.62-1.18,5.62-2.88l3.97,2.23Z"/>
        <path class="cls-5" d="m270.16,194.12v10.56l-3.97-2.23c.38-.65.59-1.38.59-2.15,0-1.3-.62-2.48-1.62-3.38l4.99-2.81Z"/>
        <path class="cls-5" d="m270.16,182.13v11.99l-4.99,2.81c-1.14-1.01-2.77-1.64-4.59-1.64s-3.31.58-4.44,1.51l-26.1-14.67h40.12Z"/>
        <polygon class="cls-5" points="270.16 103.84 270.16 109.61 1.13 109.61 .24 109.61 .24 103.84 270.16 103.84"/>
        <rect class="cls-5" x="266.17" y="177.1" width="3.99" height="5.03"/>
        <path class="cls-5" d="m266.78,200.3c0,.76-.21,1.49-.59,2.15l-5.42-3.05,4.39-2.48c1,.89,1.62,2.08,1.62,3.38Z"/>
        <path class="cls-5" d="m260.77,199.4l5.42,3.05c-1,1.7-3.14,2.88-5.62,2.88s-4.48-1.1-5.51-2.72l5.71-3.21Z"/>
        <rect class="cls-6" x="254.86" y="177.1" width="11.31" height="5.03"/>
        <path class="cls-5" d="m265.17,196.92l-4.39,2.48-4.64-2.61c1.13-.93,2.7-1.51,4.44-1.51,1.82,0,3.46.63,4.59,1.64Z"/>
        <path class="cls-5" d="m260.77,199.4l-5.71,3.21c-.44-.69-.69-1.48-.69-2.31,0-1.37.68-2.61,1.77-3.51l4.64,2.61Z"/>
        <path class="cls-5" d="m230.04,182.13l26.1,14.67c-1.09.9-1.77,2.14-1.77,3.51,0,.83.25,1.62.69,2.31l-15.35,8.63h-41.49l-15.65-8.8c.38-.65.59-1.38.59-2.15,0-1.3-.62-2.48-1.62-3.37l26.34-14.81h22.15Zm-5.97,18.18c0-2.77-2.25-5.02-5.02-5.02s-5.03,2.25-5.03,5.02,2.25,5.03,5.03,5.03,5.02-2.25,5.02-5.03Z"/>
        <polygon class="cls-5" points="254.86 182.13 230.04 182.13 224.34 182.13 224.34 177.1 254.86 177.1 254.86 182.13"/>
        <rect class="cls-6" x="213.03" y="177.1" width="11.31" height="5.03"/>
        <path class="cls-6" d="m219.06,195.28c2.77,0,5.02,2.25,5.02,5.02s-2.25,5.03-5.02,5.03-5.03-2.25-5.03-5.03,2.25-5.02,5.03-5.02Z"/>
        <path class="cls-5" d="m207.89,182.13l-26.34,14.81c-1.14-1.02-2.77-1.65-4.59-1.65s-3.31.58-4.44,1.51l-26.1-14.67h61.47Z"/>
        <polygon class="cls-5" points="182.5 182.13 182.5 177.1 213.03 177.1 213.03 182.13 207.89 182.13 182.5 182.13"/>
        <path class="cls-5" d="m198.22,211.24h-42.14l15.35-8.63c1.03,1.62,3.12,2.72,5.51,2.72s4.62-1.18,5.62-2.88l15.65,8.8Z"/>
        <path class="cls-5" d="m183.16,200.3c0,.76-.21,1.49-.59,2.15l-5.42-3.05,4.39-2.47c1,.89,1.62,2.07,1.62,3.37Z"/>
        <path class="cls-5" d="m177.15,199.4l5.42,3.05c-1,1.7-3.14,2.88-5.62,2.88s-4.48-1.1-5.51-2.72l5.71-3.21Z"/>
        <rect class="cls-6" x="171.2" y="177.1" width="11.31" height="5.03"/>
        <path class="cls-5" d="m176.95,195.28c1.82,0,3.46.63,4.59,1.65l-4.39,2.47-4.64-2.61c1.13-.93,2.7-1.51,4.44-1.51Z"/>
        <path class="cls-5" d="m177.15,199.4l-5.71,3.21c-.44-.69-.69-1.48-.69-2.31,0-1.37.68-2.61,1.77-3.51l4.64,2.61Z"/>
        <path class="cls-5" d="m146.42,182.13l26.1,14.67c-1.09.9-1.77,2.14-1.77,3.51,0,.83.25,1.62.69,2.31l-15.35,8.63h-41.49l-15.65-8.8c.38-.65.59-1.38.59-2.15,0-1.3-.62-2.48-1.62-3.37l26.34-14.81h22.15Zm-7.02,18.18c0-2.77-2.25-5.02-5.02-5.02s-5.03,2.25-5.03,5.02,2.25,5.03,5.03,5.03,5.02-2.25,5.02-5.03Z"/>
        <polygon class="cls-5" points="171.2 182.13 146.42 182.13 140.67 182.13 140.67 177.1 171.2 177.1 171.2 182.13"/>
        <rect class="cls-6" x="129.36" y="177.1" width="11.31" height="5.03"/>
        <path class="cls-6" d="m134.38,195.28c2.77,0,5.02,2.25,5.02,5.02s-2.25,5.03-5.02,5.03-5.03-2.25-5.03-5.03,2.25-5.02,5.03-5.02Z"/>
        <path class="cls-5" d="m124.27,182.13l-26.34,14.81c-1.14-1.02-2.77-1.65-4.59-1.65s-3.31.58-4.44,1.51l-26.1-14.67h61.47Z"/>
        <polygon class="cls-5" points="129.36 182.13 124.27 182.13 98.84 182.13 98.84 177.1 129.36 177.1 129.36 182.13"/>
        <path class="cls-5" d="m114.6,211.24h-42.14l15.35-8.63c1.03,1.62,3.11,2.72,5.51,2.72s4.62-1.18,5.62-2.88l15.65,8.8Z"/>
        <path class="cls-5" d="m99.54,200.3c0,.76-.21,1.49-.59,2.15l-5.42-3.05,4.39-2.47c1,.89,1.62,2.07,1.62,3.37Z"/>
        <path class="cls-5" d="m93.53,199.4l5.42,3.05c-1,1.7-3.14,2.88-5.62,2.88s-4.48-1.1-5.51-2.72l5.71-3.21Z"/>
        <rect class="cls-6" x="87.53" y="177.1" width="11.31" height="5.03"/>
        <path class="cls-5" d="m93.33,195.28c1.82,0,3.46.63,4.59,1.65l-4.39,2.47-4.64-2.61c1.13-.93,2.7-1.51,4.44-1.51Z"/>
        <path class="cls-5" d="m93.53,199.4l-5.71,3.21c-.44-.69-.69-1.48-.69-2.31,0-1.37.68-2.61,1.77-3.51l4.64,2.61Z"/>
        <path class="cls-5" d="m62.8,182.13l26.1,14.67c-1.09.9-1.77,2.14-1.77,3.51,0,.83.25,1.62.69,2.31l-15.35,8.63H30.79l-15.65-8.8c.38-.65.59-1.38.59-2.15,0-1.3-.62-2.48-1.62-3.37l26.34-14.81h22.34Zm-8.53,18.18c0-2.77-2.25-5.02-5.02-5.02s-5.03,2.25-5.03,5.02,2.25,5.03,5.03,5.03,5.02-2.25,5.02-5.03Z"/>
        <polygon class="cls-5" points="87.53 182.13 62.8 182.13 57.01 182.13 57.01 177.1 87.53 177.1 87.53 182.13"/>
        <rect class="cls-6" x="45.7" y="177.1" width="11.31" height="5.03"/>
        <path class="cls-6" d="m49.25,195.28c2.77,0,5.02,2.25,5.02,5.02s-2.25,5.03-5.02,5.03-5.03-2.25-5.03-5.03,2.25-5.02,5.03-5.02Z"/>
        <polygon class="cls-5" points="45.7 182.13 40.45 182.13 15.17 182.13 15.17 177.1 45.7 177.1 45.7 182.13"/>
        <path class="cls-5" d="m30.79,211.24H.24v-6.52l3.76-2.11c1.03,1.62,3.12,2.72,5.51,2.72s4.62-1.18,5.62-2.88l15.65,8.8Z"/>
        <path class="cls-5" d="m15.73,200.3c0,.76-.21,1.49-.59,2.15l-5.42-3.05,4.39-2.47c1,.89,1.62,2.07,1.62,3.37Z"/>
        <rect class="cls-6" x="3.87" y="177.1" width="11.31" height="5.03"/>
        <path class="cls-5" d="m9.72,199.4l5.42,3.05c-1,1.7-3.14,2.88-5.62,2.88s-4.48-1.1-5.51-2.72l5.71-3.21Z"/>
        <path class="cls-5" d="m9.52,195.28c1.82,0,3.46.63,4.59,1.65l-4.39,2.47-4.64-2.61c1.13-.93,2.7-1.51,4.44-1.51Z"/>
        <path class="cls-5" d="m9.72,199.4l-5.71,3.21c-.44-.69-.69-1.48-.69-2.31,0-1.37.68-2.61,1.77-3.51l4.64,2.61Z"/>
        <path class="cls-5" d="m.24,194.07l4.84,2.72c-1.09.9-1.77,2.14-1.77,3.51,0,.83.25,1.62.69,2.31l-3.76,2.11v-10.65Z"/>
        <polygon class="cls-8" points="213.03 177.1 182.5 177.1 171.2 177.1 140.67 177.1 129.36 177.1 98.84 177.1 87.53 177.1 57.01 177.1 45.7 177.1 15.17 177.1 3.87 177.1 .24 177.1 .24 109.61 1.13 109.61 270.16 109.61 270.16 177.1 266.17 177.1 254.86 177.1 224.34 177.1 213.03 177.1"/>
        <path class="cls-5" d="m.24,182.13h40.21l-26.34,14.81c-1.14-1.02-2.77-1.65-4.59-1.65s-3.31.58-4.44,1.51l-4.84-2.72v-11.95Z"/>
      </g>
      <g>
        <polyline class="cls-1" points="270.16 211.24 239.71 211.24 198.22 211.24 156.09 211.24 114.6 211.24 72.46 211.24 30.79 211.24 .24 211.24"/>
        <line class="cls-1" x1=".24" y1="103.84" x2="270.16" y2="103.84"/>
        <line class="cls-1" x1=".24" y1="109.61" x2="270.16" y2="109.61"/>
        <line class="cls-1" x1="266.17" y1="177.1" x2="270.16" y2="177.1"/>
        <line class="cls-1" x1="224.34" y1="177.1" x2="254.86" y2="177.1"/>
        <line class="cls-1" x1="182.5" y1="177.1" x2="213.03" y2="177.1"/>
        <line class="cls-1" x1="140.67" y1="177.1" x2="171.2" y2="177.1"/>
        <line class="cls-1" x1="98.84" y1="177.1" x2="129.36" y2="177.1"/>
        <line class="cls-1" x1="57.01" y1="177.1" x2="87.53" y2="177.1"/>
        <line class="cls-1" x1="15.17" y1="177.1" x2="45.7" y2="177.1"/>
        <line class="cls-1" x1=".24" y1="177.1" x2="3.87" y2="177.1"/>
        <line class="cls-1" x1="266.17" y1="182.13" x2="270.16" y2="182.13"/>
        <polyline class="cls-1" points="224.34 182.13 230.04 182.13 254.86 182.13"/>
        <polyline class="cls-1" points="182.5 182.13 207.89 182.13 213.03 182.13"/>
        <polyline class="cls-1" points="140.67 182.13 146.42 182.13 171.2 182.13"/>
        <polyline class="cls-1" points="98.84 182.13 124.27 182.13 129.36 182.13"/>
        <polyline class="cls-1" points="57.01 182.13 62.8 182.13 87.53 182.13"/>
        <polyline class="cls-1" points="15.17 182.13 40.45 182.13 45.7 182.13"/>
        <line class="cls-1" x1=".24" y1="182.13" x2="3.87" y2="182.13"/>
        <polyline class="cls-1" points="72.46 211.24 87.82 202.61 93.53 199.4 97.93 196.93 124.27 182.13"/>
        <polyline class="cls-1" points="114.6 211.24 98.95 202.45 93.53 199.4 88.89 196.79 62.8 182.13"/>
        <path class="cls-1" d="m139.4,200.3c0,2.78-2.25,5.03-5.02,5.03s-5.03-2.25-5.03-5.03,2.25-5.02,5.03-5.02,5.02,2.25,5.02,5.02Z"/>
        <path class="cls-1" d="m224.07,200.3c0,2.78-2.25,5.03-5.02,5.03s-5.03-2.25-5.03-5.03,2.25-5.02,5.03-5.02,5.02,2.25,5.02,5.02Z"/>
        <path class="cls-1" d="m97.93,196.93c1,.89,1.62,2.07,1.62,3.37,0,.76-.21,1.49-.59,2.15-1,1.7-3.14,2.88-5.62,2.88s-4.48-1.1-5.51-2.72c-.44-.69-.69-1.48-.69-2.31,0-1.37.68-2.61,1.77-3.51,1.13-.93,2.7-1.51,4.44-1.51,1.82,0,3.46.63,4.59,1.65Z"/>
        <polyline class="cls-1" points=".24 204.72 4.01 202.61 9.72 199.4 14.11 196.93 40.45 182.13"/>
        <polyline class="cls-1" points="30.79 211.24 15.14 202.45 9.72 199.4 5.08 196.79 .24 194.07"/>
        <path class="cls-1" d="m14.11,196.93c1,.89,1.62,2.07,1.62,3.37,0,.76-.21,1.49-.59,2.15-1,1.7-3.14,2.88-5.62,2.88s-4.48-1.1-5.51-2.72c-.44-.69-.69-1.48-.69-2.31,0-1.37.68-2.61,1.77-3.51,1.13-.93,2.7-1.51,4.44-1.51,1.82,0,3.46.63,4.59,1.65Z"/>
        <polyline class="cls-1" points="156.09 211.24 171.44 202.61 177.15 199.4 181.55 196.93 207.89 182.13"/>
        <polyline class="cls-1" points="198.22 211.24 182.57 202.45 177.15 199.4 172.52 196.79 146.42 182.13"/>
        <path class="cls-1" d="m181.55,196.93c1,.89,1.62,2.07,1.62,3.37,0,.76-.21,1.49-.59,2.15-1,1.7-3.14,2.88-5.62,2.88s-4.48-1.1-5.51-2.72c-.44-.69-.69-1.48-.69-2.31,0-1.37.68-2.61,1.77-3.51,1.13-.93,2.7-1.51,4.44-1.51,1.82,0,3.46.63,4.59,1.65Z"/>
        <polyline class="cls-1" points="239.71 211.24 255.06 202.61 260.77 199.4 265.17 196.92 270.16 194.12"/>
        <polyline class="cls-1" points="270.16 204.68 266.19 202.45 260.77 199.4 256.14 196.79 230.04 182.13"/>
        <path class="cls-1" d="m265.17,196.92c1,.89,1.62,2.08,1.62,3.38,0,.76-.21,1.49-.59,2.15-1,1.7-3.14,2.88-5.62,2.88s-4.48-1.1-5.51-2.72c-.44-.69-.69-1.48-.69-2.31,0-1.37.68-2.61,1.77-3.51,1.13-.93,2.7-1.51,4.44-1.51,1.82,0,3.46.63,4.59,1.64Z"/>
        <path class="cls-1" d="m54.27,200.3c0,2.78-2.25,5.03-5.02,5.03s-5.03-2.25-5.03-5.03,2.25-5.02,5.03-5.02,5.02,2.25,5.02,5.02Z"/>
        <rect class="cls-1" x="3.87" y="177.1" width="11.31" height="5.03"/>
        <rect class="cls-1" x="45.7" y="177.1" width="11.31" height="5.03"/>
        <rect class="cls-1" x="87.53" y="177.1" width="11.31" height="5.03"/>
        <rect class="cls-1" x="129.36" y="177.1" width="11.31" height="5.03"/>
        <rect class="cls-1" x="171.2" y="177.1" width="11.31" height="5.03"/>
        <rect class="cls-1" x="213.03" y="177.1" width="11.31" height="5.03"/>
        <rect class="cls-1" x="254.86" y="177.1" width="11.31" height="5.03"/>
      </g>
    </g>
  </g>
  <g id="_レイヤー_2" data-name="レイヤー 2">
    <g>
      <g>
        <path class="cls-6" d="m120.03,25.55c.67,4.21.37,5.76.37,5.76l-.7.03c-1.06-2.74-1.65-4.59-2.48-5.28-.83-.69-3.55-1.25-4.26,1.09-.75,2.48-.74,5.02.67,5.93,1.07.69,1.75.3,1.75.3v2.33s-4.44,2.88-5.05,2.47c.5-2.77,1.59-4.65,1.28-5.71-.52-1.76-.61-5.97,1.18-7.3,1.65-1.23,3.94-2.15,5.05-2.27,1.49-5.04,5.18-12.38,5.96-12.83.44-1.22.39-1.5.39-1.5,0,0-1.55-1.33-2-1.88-.44-.55-.72-3.38,1.28-4.87,2-1.5,5.35-1.72,9.26-.67,3.96,1.07,18.17,2.88,19.73,2.72,1.63-.17,5.6,4.6,6.93,6.59,1.33,2-.11,3.94-4.27,3.44-4.15-.5-8.2-2.94-9.36-3.77s-4.32-.77-4.32-.77l-1.95,5.77c1.95,1.81,3.88,4.26,4.05,5.82-.1-.07-.21-.13-.31-.2-3.3-2.08-6.18-3.81-8.44-4.46-2.33-.67-3.82-1.88-4.72-1.88s-1.94-1.11-3.33,2.21c-1.77,4.26-3.23,9-6.7,8.93Z"/>
        <path class="cls-11" d="m143.9,27.27c.18,3.82.04,8.22-1.02,10.39-1.88,3.83-3.99,9.11-6.77,11.72-.35.32-.77.69-1.29,1.07-2.26,1.69-5.97,3.68-9.97,3.89-2.26.12-4.6-.33-6.82-1.74-.66,2.1.11,2.87.11,2.87-5.43.89-7.87-.1-10.53-3.87-2.66-3.77-2.99-5.88-2.66-11.98,3.78,1.5,4.92.47,5.25-.45.18-.51.12-.99.12-.99.61.42,5.05-2.47,5.05-2.47v-2.33s-.68.38-1.75-.3c-1.41-.91-1.42-3.46-.67-5.93.71-2.34,3.43-1.79,4.26-1.09.83.69,1.42,2.54,2.48,5.28l.7-.03s.3-1.55-.37-5.76c3.47.07,4.93-4.66,6.7-8.93,1.39-3.33,2.44-2.21,3.33-2.21s2.39,1.22,4.72,1.88c2.26.64,5.14,2.38,8.44,4.46l-.02.03c.24,1.02.56,3.6.69,6.5Zm-10.51,20.83c.23-.36-.8-.48-.8-.48l-2.69-.3c.06.72,1.39,1.33,1.39,1.33.56.11,1.88-.19,2.1-.55Z"/>
        <path class="cls-4" d="m74.69,141.95s31.2,7.65,35.87,6.32c4.65-1.34,8.92-8.54,10.14-8.88l.07-.07c.52.55,1.07,1.1,1.62,1.66.43.21.93.31,1.48.31l-4.13,8.93s-.59.52-3.77,1.48c-5.47,2.08-32.59-1.69-37.69-3.33-5.11-1.62-10.79-3.25-22.48-8.57l.57-.66,3.64-4.22.24-.3c2.76,2.15,6.07,4.64,7.34,5.22,4.29,2,7.74,2.72,7.1,2.11Z"/>
        <path class="cls-10" d="m46.17,107.67s0,0,.02,0c.61-.32,1.4-.15,2.22,1.69.56,1.27,2.63,3.86,5.09,6.56-.11,4.24-6.12,6.47-9.41,6.69l-.08-.04c.3-.43.47-1.05.52-1.89.45-7.54.23-11.31.67-11.98.18-.28.53-.77.97-1.02Z"/>
        <path class="cls-10" d="m53.5,115.92c-2.46-2.7-4.52-5.29-5.09-6.56-.83-1.84-1.62-2.01-2.22-1.69,4.39-3.38,17.7-9.74,20.52-10.28h.6c-.22,3.93-.27,5.62-.27,7.87,0,3.44,1.88,10.42,9.31,9.76l-12.51,9.93-.23-.3c-1.61-.2-6.31-4.59-10.1-8.74Z"/>
        <path class="cls-9" d="m36.89,123.44s6.37,14.14,11.1,15.53c-.68,0-1.35,0-2.01,0-4.65,0-12.31-4.32-15.85-6.21-3.55-1.88-8.42-6.65-10.31-10.53s-2.87-11.72-1.56-15.5c3.6,1.73,5.31,3.43,9.54,6.96,2.72,2.27,6.9,6,10.41,8.11l-1.32,1.64Z"/>
        <path class="cls-9" d="m63.6,124.65l.23.3-7.89,6.25s1.95,1.59,4.31,3.42l-.24.3-3.64,4.22-.09-.08s-4.18-.09-8.3-.1c-4.72-1.39-11.1-15.53-11.1-15.53l1.32-1.64c2.6,1.56,4.83,2.24,5.8.76l.08.04c3.29-.22,9.3-2.45,9.41-6.69,3.79,4.14,8.49,8.54,10.1,8.74Z"/>
        <path class="cls-9" d="m137.48,151.15s20.1-6.46,21.58-10.16l.07-.3c3.04.78,6.96,1.19,10.57,1.5,2.98.25,5.75.44,7.62.72,1.17.17,2.49.44,3.86.76l-.03.12c-1.55,2.51-15.08,5.69-20.62,7.46s-16.19-1.18-19.96-.44c-.77.15-1.83.26-3.1.33Z"/>
        <path class="cls-9" d="m156.35,140.01l.1-.21c.76.34,1.68.63,2.68.89l-.07.3c-1.49,3.7-21.58,10.16-21.58,10.16-4.91.29-12.8-.03-17.74-.92l4.13-8.93c.49,0,1.02-.09,1.56-.24,1.73-.12,17.66-1.25,20.39-1.25s9.13,0,10.53.21Z"/>
        <path class="cls-9" d="m209.05,129.05c-.32.58-.6.98-.84,1.15l-.33.25c-5.74-7.15-16.97-19.2-18.73-20.8-2.37-2.15-9.32-1.26-12.05-1.85-.48-.1-1.53-.22-2.95-.34l.05-.61c-1.35-.4-3.2-6.56-4.15-10.67,9.96-3.91,20.77-8.32,29.21-7.49,1.13.11,2.22.32,3.27.63,1.05.32,2.05.69,3,1.11,6.41,2.84,10.25,7.9,10.25,13.62,0,.48-.03.96-.09,1.46-.71,6.28-4.42,19.45-6.63,23.54Z"/>
        <path class="cls-10" d="m69.11,80.08h0c-.64,2.85-1.12,5.84-1.3,8.88-.02.3-.03.6-.05.89h-.05s-7.47-.44-12.12-4.29c1.4-.59,13.52-5.47,13.52-5.47Z"/>
        <path class="cls-10" d="m215.23,82.67c.75,2.48-.09,8.55-.21,9.43-3.46-.82-6.85-1.52-9.41-1.89l-.1.23c-.95-.43-1.95-.79-3-1.11-1.04-.31-2.14-.52-3.27-.63,5.98-4.13,15.16-8.67,15.98-6.02Z"/>
        <path class="cls-10" d="m218.11,104.04l-2.35.02c0-5.71-3.84-10.78-10.25-13.62l.1-.23c2.55.37,5.95,1.08,9.41,1.89,6.74,1.61,13.72,3.66,15.28,4.69l.15.53c-5.04,2.58-12.34,6.71-12.34,6.71Z"/>
        <path class="cls-10" d="m247.5,114.15c.64,1.29-.02,2.84-1.39,3.27-11.14,3.53-35.29,11.08-37.06,11.63,2.21-4.09,5.91-17.26,6.63-23.54.05-.5.09-.98.09-1.46l2.35-.02s7.3-4.13,12.34-6.71c2.13-1.09,3.85-1.9,4.44-2.01,1.99-.37,3.54.07,4.65,2.51.84,1.85,5.67,11.68,7.95,16.33Z"/>
        <path class="cls-7" d="m211.27,137.51h.1c-.1,1.49-.89,2.61-3.97,3.92-4.36,1.85-10.57,5.4-13.16,5.4-2.04,0-7.94-1.94-13.06-3.15-1.37-.32-2.69-.6-3.86-.76-1.87-.28-4.64-.47-7.62-.72v-.03c8.76-4.77,36.26-6.2,41.57-4.65Z"/>
        <path class="cls-7" d="m153.13,137.09l-.06.06c-6.24-1.05-12.09-2.68-17.32-5.23,3.03-2.87,6.51-5.38,9.12-4.53h0c3,2.68,5.68,6.79,8.25,9.7Z"/>
        <path class="cls-7" d="m153.13,137.09c.56.63,1.09,1.2,1.64,1.68.43.38,1,.73,1.68,1.03l-.1.21c-1.4-.21-7.73-.21-10.53-.21s-18.66,1.13-20.39,1.25c1.45-.43,3.06-1.43,4.5-2.95,1.16-1.23,3.34-3.83,5.82-6.18,5.23,2.54,11.07,4.18,17.32,5.23l.06-.06Z"/>
        <path class="cls-7" d="m74.82,51.96l6.57-6.52.11-.04c.83,2.3,3.02,6.64,3.58,7.29-3.13,2.38-6.13,4.92-8.03,7.09l-.15-.15s-5.45-5.3-4.24-7.49c.74-.22,1.45-.26,2.15-.17Z"/>
        <path class="cls-10" d="m144.87,127.39c-2.61-.85-6.09,1.66-9.12,4.53-2.48,2.35-4.65,4.95-5.82,6.18-1.44,1.52-3.05,2.53-4.5,2.95-.55.16-1.08.24-1.56.24-.55,0-1.04-.1-1.48-.31-.56-.56-1.1-1.11-1.62-1.66-7.17-7.44-11.62-14.06-12.86-20.81-1.01-5.5-1.12-13,4.79-16.71,1.19-.75,2.62-1.34,4.33-1.74,1-.23,2.09-.39,3.29-.48,10.79.44,25.35,5.62,29.12,6.14,3.11.43,18.01,1.16,24.69,1.73,1.42.12,2.48.23,2.95.34,2.74.59,9.68-.3,12.05,1.85,1.76,1.6,12.99,13.65,18.73,20.8,1.96,2.45,3.28,4.32,3.36,4.99.09.78.17,1.46.13,2.08h-.1c-5.31-1.55-32.81-.12-41.57,4.65v.03c-3.6-.31-7.53-.72-10.57-1.5-1.01-.25-1.92-.55-2.68-.89-.68-.3-1.24-.65-1.68-1.03-.55-.49-1.09-1.06-1.64-1.68-2.57-2.91-5.25-7.02-8.25-9.71h0Z"/>
        <path class="cls-10" d="m149.45,105.74c-3.77-.52-18.32-5.7-29.12-6.14-1.2.09-2.29.25-3.29.48.35-9.69,2.68-12.46,9.65-17.55,6.29-4.59,20.02-11.52,25.05-13.9.56-.27,1.01-.48,1.33-.62,3.27-1.44,8.6-3.1,10.98,3.27,0,0,4.93,19.06,5.49,22.45.1.64.28,1.49.5,2.46.95,4.12,2.81,10.27,4.15,10.67l-.05.61c-6.68-.57-21.58-1.3-24.69-1.73Z"/>
        <path class="cls-10" d="m140.71,58.58c.81-.52,1.54-.87,2.19-1.06,3.24-.99,4.61,1.7,4.71,5.16l.14,2.78-7.98-6.16-.04-.07c.36-.24.69-.46.99-.65Z"/>
        <path class="cls-7" d="m147.74,65.46l3.94,3.04.05.12c-5.04,2.38-18.77,9.31-25.05,13.9-6.96,5.09-9.3,7.86-9.65,17.55-1.71.4-3.14.99-4.33,1.74l-.32-.66c-.86-5.53,1.22-12.42,5.55-20.84,4.05-7.9,16.32-17.38,21.79-21.08l.04.07,7.98,6.16Z"/>
        <path class="cls-10" d="m74.69,141.95c.64.61-2.81-.11-7.1-2.11-1.27-.58-4.58-3.07-7.34-5.22-2.35-1.83-4.31-3.42-4.31-3.42l7.89-6.25,12.51-9.93c-7.43.66-9.31-6.32-9.31-9.76,0-2.25.05-3.93.27-7.87.1-1.88.25-4.29.45-7.54.02-.29.03-.58.05-.89.18-3.04.66-6.03,1.3-8.88,1.62-7.25,4.33-13.63,6.24-17.85.33-.73.93-1.56,1.7-2.46,1.9-2.17,4.91-4.71,8.03-7.09,5.85-4.47,12.11-8.42,12.11-8.42,2,6.54,5.05,14.19,10.48,15.35,5.43,1.16,11.86.44,17.18-5.26v-.03c3.99-.21,7.71-2.2,9.97-3.89l.12.16s6.82,3.85,7.93,6.84l.03.08c-.65.19-1.38.54-2.19,1.06-.3.19-.63.41-.99.65-5.47,3.7-17.74,13.17-21.79,21.08-4.32,8.42-6.41,15.31-5.55,20.84l.32.66c-5.91,3.71-5.8,11.21-4.79,16.71,1.24,6.75,5.69,13.37,12.86,20.81l-.07.07c-1.22.34-5.49,7.54-10.14,8.88-4.66,1.33-35.87-6.32-35.87-6.32Z"/>
        <path class="cls-10" d="m118.03,52.6c2.21,1.41,4.56,1.86,6.82,1.74v.03c-5.31,5.71-11.75,6.43-17.18,5.26-5.44-1.16-8.48-8.81-10.48-15.35,0,0-6.25,3.94-12.11,8.42-.56-.65-2.74-4.99-3.58-7.29-.27-.75-.4-1.28-.28-1.4.5-.5,9.03-7.59,12.91-8.65,3.88-1.05,11.42,2.39,15.91,3.77l.16.05c-.33.92-1.48,1.95-5.25.45-.33,6.1,0,8.21,2.66,11.98,2.67,3.77,5.11,4.77,10.53,3.87,0,0-.77-.77-.11-2.87Z"/>
        <path class="cls-10" d="m18.25,106.72c-.92-.43-1.96-.88-3.2-1.35,5.43-7.87,23.61-17.24,32.04-20.29s7.65-4.99,8.26-5.82c.61-.83,2.49-4.88,3.83-8.48,1.33-3.6,5.76-10.47,8.42-14.3,1.78-2.56,3.47-3.86,5.07-4.33-1.22,2.2,4.24,7.49,4.24,7.49l.15.15c-.77.89-1.37,1.73-1.7,2.46-1.9,4.22-4.61,10.59-6.24,17.85h0s-12.12,4.88-13.52,5.47c4.65,3.85,12.12,4.29,12.12,4.29h.05c-.2,3.25-.35,5.65-.45,7.54h-.6c-2.82.55-16.13,6.9-20.52,10.28,0,0-.02,0-.02,0-.44.24-.79.74-.97,1.02-.44.67-.22,4.44-.67,11.98-.05.84-.23,1.46-.52,1.89-.97,1.48-3.2.8-5.8-.76-3.51-2.11-7.69-5.84-10.41-8.11-4.24-3.53-5.95-5.24-9.54-6.96Z"/>
      </g>
      <g>
        <path class="cls-3" d="m110.33,38.18c.5-2.77,1.59-4.65,1.28-5.71-.52-1.76-.61-5.97,1.18-7.3,1.65-1.23,3.94-2.15,5.05-2.27,1.49-5.04,5.18-12.38,5.96-12.83.44-1.22.39-1.5.39-1.5,0,0-1.55-1.33-2-1.88-.44-.55-.72-3.38,1.28-4.87,2-1.5,5.35-1.72,9.26-.67,3.96,1.07,18.17,2.88,19.73,2.72,1.63-.17,5.6,4.6,6.93,6.59,1.33,2-.11,3.94-4.27,3.44-4.15-.5-8.2-2.94-9.36-3.77s-4.32-.77-4.32-.77l-1.95,5.77c1.95,1.81,3.88,4.26,4.05,5.82-.1-.07-.21-.13-.31-.2-3.3-2.08-6.18-3.81-8.44-4.46-2.33-.67-3.82-1.88-4.72-1.88s-1.94-1.11-3.33,2.21c-1.77,4.26-3.23,9-6.7,8.93.67,4.21.37,5.76.37,5.76l-.7.03c-1.06-2.74-1.65-4.59-2.48-5.28-.83-.69-3.55-1.25-4.26,1.09-.75,2.48-.74,5.02.67,5.93,1.07.69,1.75.3,1.75.3v2.33s-4.44,2.88-5.05,2.47Z"/>
        <path class="cls-3" d="m110.33,38.18s.06.48-.12.99c-.33.92-1.48,1.95-5.25.45-.33,6.1,0,8.21,2.66,11.98,2.67,3.77,5.11,4.77,10.53,3.87,0,0-.77-.77-.11-2.87,2.21,1.41,4.56,1.86,6.82,1.74,3.99-.21,7.71-2.2,9.97-3.89.51-.38.94-.75,1.29-1.07,2.77-2.61,4.88-7.89,6.77-11.72,1.07-2.17,1.21-6.57,1.02-10.39-.13-2.9-.45-5.47-.69-6.5"/>
        <path class="cls-3" d="m134.94,50.6s6.82,3.85,7.93,6.84"/>
        <path class="cls-3" d="m112.38,101.15c-.86-5.53,1.22-12.42,5.55-20.84,4.05-7.9,16.32-17.38,21.79-21.08.36-.24.69-.46.99-.65.81-.52,1.54-.87,2.19-1.06,3.24-.99,4.61,1.7,4.71,5.16l.14,2.78v.1"/>
        <path class="cls-3" d="m117.04,100.15v-.08c.35-9.69,2.68-12.46,9.65-17.55,6.29-4.59,20.02-11.52,25.05-13.9.56-.27,1.01-.48,1.33-.62,3.27-1.44,8.6-3.1,10.98,3.27,0,0,4.93,19.06,5.49,22.45.1.64.28,1.49.5,2.46.95,4.12,2.81,10.27,4.15,10.67"/>
        <polyline class="cls-3" points="139.76 59.3 147.74 65.46 151.69 68.5"/>
        <path class="cls-3" d="m119.74,113.05c1.85,1.11,18.63,9.98,23.14,12.79.69.43,1.35.95,2.01,1.54,3,2.69,5.68,6.8,8.25,9.71.56.63,1.09,1.2,1.64,1.68.43.38,1,.73,1.68,1.03.76.34,1.68.63,2.68.89,3.04.78,6.96,1.19,10.57,1.5,2.98.25,5.75.44,7.62.72,1.17.17,2.49.44,3.86.76,5.12,1.22,11.02,3.15,13.06,3.15,2.59,0,8.8-3.55,13.16-5.4,3.07-1.3,3.87-2.42,3.97-3.91.03-.62-.04-1.29-.13-2.08-.08-.68-1.4-2.54-3.36-4.99-5.74-7.15-16.97-19.2-18.73-20.8-2.37-2.15-9.32-1.26-12.05-1.85-.48-.1-1.53-.22-2.95-.34-6.68-.57-21.58-1.3-24.69-1.73-3.77-.52-18.32-5.7-29.12-6.14-1.2.09-2.29.25-3.29.48-1.71.4-3.14.99-4.33,1.74-5.91,3.71-5.8,11.21-4.79,16.71,1.24,6.75,5.69,13.37,12.86,20.81.52.55,1.07,1.1,1.62,1.66.43.21.93.31,1.48.31.49,0,1.02-.09,1.56-.24,1.45-.43,3.06-1.43,4.5-2.95,1.16-1.23,3.34-3.83,5.82-6.18,3.03-2.87,6.51-5.38,9.12-4.53"/>
        <path class="cls-3" d="m125.28,141.07s.05,0,.16,0c1.73-.12,17.66-1.25,20.39-1.25s9.13,0,10.53.21c.04,0,.09,0,.12.02"/>
        <path class="cls-3" d="m135.55,131.83c.07.03.13.06.2.1,5.23,2.54,11.07,4.18,17.32,5.23"/>
        <path class="cls-3" d="m169.7,142.17c8.76-4.77,36.26-6.2,41.57-4.65"/>
        <path class="cls-3" d="m123.88,141.28v.02s-4.14,8.93-4.14,8.93c4.94.89,12.84,1.21,17.74.92,1.27-.07,2.33-.18,3.1-.33,3.77-.74,14.42,2.21,19.96.44s19.07-4.95,20.62-7.46"/>
        <path class="cls-3" d="m137.48,151.15s20.1-6.46,21.58-10.16"/>
        <path class="cls-3" d="m169.99,96.2s.03,0,.04-.02c9.96-3.91,20.77-8.32,29.21-7.49,1.13.11,2.22.32,3.27.63,1.05.32,2.05.69,3,1.11,6.41,2.84,10.25,7.9,10.25,13.62,0,.48-.03.96-.09,1.46-.71,6.28-4.42,19.45-6.63,23.54-.32.58-.6.98-.84,1.15"/>
        <path class="cls-3" d="m199.19,88.73s.04-.03.06-.04c5.98-4.13,15.16-8.67,15.98-6.02.75,2.48-.09,8.55-.21,9.43,0,.07-.02.1-.02.1"/>
        <path class="cls-3" d="m205.62,90.21c2.55.37,5.95,1.08,9.41,1.89,6.74,1.61,13.72,3.66,15.28,4.69"/>
        <path class="cls-3" d="m218.11,104.04s7.3-4.13,12.34-6.71c2.13-1.09,3.85-1.9,4.44-2.01,1.99-.37,3.54.07,4.65,2.51.84,1.85,5.67,11.68,7.95,16.33.64,1.29-.02,2.84-1.39,3.27-11.14,3.53-35.29,11.08-37.06,11.63-.07.03-.1.03-.1.03"/>
        <path class="cls-3" d="m110.05,39.12c-4.49-1.38-12.03-4.82-15.91-3.77-3.88,1.06-12.42,8.15-12.91,8.65-.12.12,0,.65.28,1.4.83,2.3,3.02,6.64,3.58,7.29.03.03.06.05.08.07"/>
        <polyline class="cls-3" points="81.4 45.44 74.82 51.96 73.91 52.87"/>
        <path class="cls-3" d="m76.91,59.63s-5.45-5.3-4.24-7.49c.03-.08.09-.15.14-.21"/>
        <path class="cls-3" d="m46.19,107.67c.61-.32,1.4-.15,2.22,1.69.56,1.27,2.63,3.86,5.09,6.56,3.79,4.14,8.49,8.54,10.1,8.74"/>
        <path class="cls-3" d="m74.97,51.98c-.05,0-.1,0-.15-.02-.7-.09-1.42-.04-2.15.17-1.61.48-3.29,1.77-5.07,4.33-2.67,3.83-7.1,10.7-8.42,14.3-1.34,3.6-3.22,7.65-3.83,8.48-.61.83.17,2.77-8.26,5.82s-26.61,12.42-32.04,20.29c1.24.48,2.28.92,3.2,1.35,3.6,1.73,5.31,3.43,9.54,6.96,2.72,2.27,6.9,6,10.41,8.11,2.6,1.56,4.83,2.24,5.8.76.3-.43.47-1.05.52-1.89.45-7.54.23-11.31.67-11.98.18-.28.53-.77.97-1.02"/>
        <path class="cls-3" d="m118.48,63.9s-8.64,13.75-10.64,19.18c-2,5.44-3.66,19.63-3.55,22.61.11,3,1.33,5.99,2.77,5.99"/>
        <path class="cls-3" d="m74.69,141.95s31.2,7.65,35.87,6.32c4.65-1.34,8.92-8.54,10.14-8.88"/>
        <path class="cls-3" d="m60.01,134.93l-3.64,4.22-.57.66c11.68,5.32,17.37,6.95,22.48,8.57,5.1,1.63,32.22,5.4,37.69,3.33,3.18-.96,3.77-1.48,3.77-1.48"/>
        <path class="cls-3" d="m18.26,106.69s0,.02,0,.03c-1.31,3.78-.32,11.63,1.56,15.5s6.76,8.64,10.31,10.53c3.54,1.88,11.19,6.21,15.85,6.21.66,0,1.34,0,2.01,0,4.13.02,8.3.1,8.3.1"/>
        <path class="cls-3" d="m36.89,123.44s6.37,14.14,11.1,15.53c.3.09.59.12.87.1"/>
        <path class="cls-3" d="m30.57,125.65c2.1,1.33,7.21,8.76,13.08,9.76"/>
        <path class="cls-3" d="m44.09,122.6c3.29-.22,9.3-2.45,9.41-6.69,0-.04,0-.09,0-.13"/>
        <path class="cls-3" d="m45.92,107.87c.08-.06.17-.13.25-.2,0,0,0,0,.02,0,4.39-3.38,17.7-9.74,20.52-10.28"/>
        <path class="cls-3" d="m98.08,58.69c-.89.22-6.43,8.31-11.97,16.73-5.55,8.43-5.77,21.73-5.77,36.37l14.41,9.2s-.89,2-2.33,5.65-17.73,15.3-17.73,15.3c.64.61-2.81-.11-7.1-2.11-1.27-.58-4.58-3.07-7.34-5.22-2.35-1.83-4.31-3.42-4.31-3.42l7.89-6.25,12.51-9.93c-7.43.66-9.31-6.32-9.31-9.76,0-2.25.05-3.93.27-7.87.1-1.88.25-4.29.45-7.54.02-.29.03-.58.05-.89.18-3.04.66-6.03,1.3-8.88,1.62-7.25,4.33-13.63,6.24-17.85.33-.73.93-1.56,1.7-2.46,1.9-2.17,4.91-4.71,8.03-7.09,5.85-4.47,12.11-8.42,12.11-8.42,2,6.54,5.05,14.19,10.48,15.35,5.43,1.16,11.86.44,17.18-5.26"/>
        <path class="cls-3" d="m123.44,99.6c1.48-7.69,16.26-21.73,26.45-25.86"/>
        <path class="cls-3" d="m154.62,84.08s-24.84,15.08-27.05,16.26"/>
        <path class="cls-3" d="m138.22,102.71c6.8-.74,23.65-2.08,25.71-3.99"/>
        <path class="cls-3" d="m128.18,24.43c1.88-.28,4.39-1.11,5.71.05"/>
        <path class="cls-3" d="m140.32,27.53s2.5-.43,3.58-.26c.07,0,.13.03.19.04"/>
        <path class="cls-3" d="m135.99,31.36s1.67,11.36.72,11.91c-.94.56-3.77.61-4.98,0-1.22-.61-.28-1.72-.28-1.72"/>
        <path class="cls-2" d="m132.77,47.56l-3.22-.36c.07.86,1.66,1.59,1.66,1.59.66.13,2.25-.23,2.51-.65.27-.44-.96-.57-.96-.57Z"/>
        <path class="cls-3" d="m126.82,31.86c1.49-.22,3.22-.02,5.02.28"/>
        <path class="cls-3" d="m138.38,33.64c.78-.23,1.99.07,3.27.44"/>
        <path class="cls-3" d="m69.11,80.08s-12.12,4.88-13.52,5.47c4.65,3.85,12.12,4.29,12.12,4.29"/>
      </g>
    </g>
  </g>
</svg>