<?xml version="1.0" encoding="UTF-8"?>
<svg id="_レイヤー_1" data-name="レイヤー 1" xmlns="http://www.w3.org/2000/svg" viewBox="0 0 264.54 188.97">
  <defs>
    <style>
      .cls-1 {
        fill: #fddc99;
      }

      .cls-1, .cls-2, .cls-3, .cls-4, .cls-5, .cls-6 {
        stroke-width: 0px;
      }

      .cls-2 {
        fill: #fb650e;
      }

      .cls-7 {
        fill: none;
        stroke: #000;
        stroke-linecap: round;
        stroke-linejoin: round;
      }

      .cls-3 {
        fill: #333;
      }

      .cls-4 {
        fill: #e9dc59;
      }

      .cls-5 {
        fill: #e9e6bb;
      }

      .cls-6 {
        fill: #67a7b0;
      }
    </style>
  </defs>
  <g>
    <polygon class="cls-5" points="136.42 89.38 133.87 125.33 132.86 125.25 130.79 125.09 131.67 89.38 136.42 89.38"/>
    <polygon class="cls-5" points="131.67 89.38 130.79 125.09 128.52 124.91 127.44 124.82 126.93 89.38 131.67 89.38"/>
    <path class="cls-2" d="m218.02,153.87c10.85-2.56,33.85-11.4,46.02-6.79-3.51.09-15.81,8.18-25.6,14.77-2.98.72-8.55-3.29-14.33-5.94-2.04-.94-4.11-1.71-6.09-2.04Z"/>
    <path class="cls-5" d="m245.78,114.65c4.6,2.39,9.14,12.8,7.92,16.6-3.07-7.15-10.09-14.04-20.17-13.15-9.96.89-12.9-.08-12.9-.08-.65-1.21-1.23-2.32-1.74-3.33,10.89-2.8,22.3-2.42,26.89-.04Z"/>
    <path class="cls-5" d="m224.11,155.91c5.78,2.65,11.35,6.66,14.33,5.94-4.83,3.26-9.06,6.15-11.3,7.53-5.23,3.23-12.53,2.86-23.56,1.7,0,0,7.48-2.94,11.69-5.24,4.21-2.29,8.84-9.93,8.84-9.93Z"/>
    <path class="cls-6" d="m224.11,155.91s-4.63,7.64-8.84,9.93c-4.21,2.3-11.69,5.24-11.69,5.24-1.98-.21-4.09-.44-6.33-.69,6.28-3.52,11.43-7.36,15.21-15.73,1.07-.03,2.14-.13,3.19-.3.7-.11,1.5-.28,2.37-.49,1.98.33,4.05,1.1,6.09,2.04Z"/>
    <path class="cls-4" d="m182.94,106.74l-.22-22.33.63-1.29c1.11.33,2.4.71,3.84,1.15,5.48,1.66,15.06,8.55,21.95,14.3,6.32,5.26,4.17,5.06,9.75,16.12.51,1.01,1.09,2.12,1.74,3.33-6.25-.05-14.3.21-21.83-1.07s-11.1-5.19-15.83-7.26l-.03-2.95Z"/>
    <path class="cls-6" d="m190.74,146.27c4.21,4.91,13.16,8.69,21.72,8.39-3.78,8.37-8.93,12.21-15.21,15.73-1.39-.15-2.83-.3-4.32-.46-3.45-1.28-20.43-24.64-20.43-24.64v-.03c3.7-.05,12.02-.14,18.26-.03l-.02,1.04Z"/>
    <path class="cls-2" d="m190.64,134.77c3.47.12,7.93,2.42,2.6,10.52-.77-.02-1.61-.04-2.48-.06-6.24-.11-14.56-.02-18.26.03-1.2.02-1.91.03-1.91.03,7.79-2.42,14.94-9.19,17.62-10.21.58-.22,1.47-.35,2.43-.31Z"/>
    <path class="cls-4" d="m218.02,153.87c-.87.21-1.67.38-2.37.49-1.05.17-2.12.27-3.19.3-8.56.3-17.51-3.48-21.72-8.39l.02-1.04c.87.02,1.71.04,2.48.06,5.33-8.1.87-10.4-2.6-10.52-.96-.04-1.85.09-2.43.31-2.68,1.02-9.83,7.79-17.62,10.21-.86-1.51-1.58-3.02-2.18-4.5-2.27-5.62-2.8-10.95-2.49-15.5.23-3.35.93-6.29,1.73-8.59,1.06-3.06,3.62-5.29,6.5-6.54,3.02-1.3,6.41-1.52,8.82-.47,4.73,2.07,8.3,5.98,15.83,7.26s15.58,1.02,21.83,1.07c0,0,2.94.97,12.9.08,10.08-.89,17.1,6,20.17,13.15,3.06,7.15,5.74,8.55,10.34,15.83-12.17-4.61-35.17,4.23-46.02,6.79Z"/>
    <path class="cls-4" d="m182.94,106.74l.03,2.95c-2.41-1.05-5.8-.83-8.82.47l-.05-.49s-2.81-7.46-4.34-11.29c-.43-1.08-1.52-2.98-3-5.35l10.64-10.25c.69-.66,1.66-.91,2.57-.64.82.23,1.95.56,3.38.98l-.63,1.29.22,22.33Z"/>
    <path class="cls-4" d="m164.59,75.46c-2.17-.13-1.92,7.22-1.92,11.22-3.38-5.11-7.26-10.82-10.14-15.21,1.42-1.08,2.7-2.21,3.83-3.35,0,0,9.69,4.14,10.27,5.57.51,1.26-.01,1.92-.1,2.36-.65-.33-1.3-.55-1.94-.59Z"/>
    <path class="cls-4" d="m164.36,125.28c.44-5.62-14.63-40.09-18.07-47.39l-.42-.47c1.47-1.35,2.8-2.83,3.91-4.4.63-.24,1.29-.56,1.96-.96.27-.2.53-.39.79-.59,2.88,4.39,6.76,10.1,10.14,15.21,1.51,2.3,2.92,4.47,4.09,6.35,1.48,2.37,2.57,4.27,3,5.35,1.53,3.83,4.34,11.29,4.34,11.29l.05.49c-2.88,1.25-5.44,3.48-6.5,6.54-.8,2.3-1.5,5.24-1.73,8.59h-1.56Z"/>
    <path class="cls-4" d="m164.33,125.5c.02-.07.02-.14.03-.22h1.56c-.31,4.56.22,9.89,2.49,15.51-1.57,1.62-10.71,4.32-11.28,4.49.78-.47,6.32-14.98,7.2-19.78Z"/>
    <path class="cls-2" d="m162.67,86.68c0-4-.25-11.35,1.92-11.22.64.04,1.29.26,1.94.59,1.57.79,3.17,2.2,4.7,3.24,2.17,1.47,6.17,3.49,6.17,3.49l-10.64,10.25c-1.17-1.88-2.58-4.05-4.09-6.35Z"/>
    <path class="cls-1" d="m144.81,73.56l-.05.28c-1.96,1.45-7.49,6.05-10.81,5.96-3.32-.08-10.3-4.68-13.62-12.85l6.41-2.72c2.55.64,6.47-2.09,6.59-5.15-1.95.89-3.91-1.91-3.91-5.37,0-1.24-.23-2.67.09-3.66.22-.68.71-1.15,1.7-1.21,2.44-.14,4.34,4.92,4.34,4.92l.51,1.02s2.04-.64,2.3-3.06c.25-2.43,3-12.24,3.53-13.41.59-1.32,1.27-2.42,1.61-2.34.34.09,11.88.47,13.15.34,1.2-.12,1.65,1.15,3.07,1.52l-.02.06c3.27,6.25,2.08,14.42,1.74,21.06-.15,2.92-2.03,6.1-5.08,9.17-1.13,1.14-2.41,2.27-3.83,3.35-.26.2-.52.39-.79.59-.67.4-1.33.72-1.96.96-1.23.48-2.38.67-3.45.67-.53,0-1.04-.05-1.52-.13Z"/>
    <path class="cls-5" d="m149.18,161.76c3.53,1.88.52,13.46,2.68,15.24-2.8-2.21-20.29-2.3-20.29-2.3l-.72-.12c3.31-3.6,8.48-8.64,12.69-11.28,2.34-1.47,4.39-2.21,5.64-1.54Z"/>
    <path class="cls-4" d="m146.33,73.69c1.07,0,2.22-.19,3.45-.67-1.11,1.57-2.44,3.05-3.91,4.4-4.25,3.92-9.63,6.69-14.09,6.98-6,.38-13.79-11.11-16.12-15.94h0c2.02-.67,3.92-1.29,4.67-1.51,3.32,8.17,10.3,12.77,13.62,12.85,3.32.09,8.85-4.51,10.81-5.96l.05-.28c.48.08.99.13,1.52.13Z"/>
    <path class="cls-4" d="m143.54,163.29h0c-4.21,2.65-9.38,7.69-12.69,11.29-.48.53-.93,1.03-1.32,1.48-.06.02-.12.05-.18.07-5.88-5.77-17.39-28.24-17.74-31.48-.06-.56-.12-1.14-.18-1.71,0,0,9.82,4.27,16.78,8.35,1.13.67,2.3,1.43,3.46,2.25,5.99,4.2,11.87,9.75,11.87,9.75Z"/>
    <path class="cls-3" d="m138.36,51.72c-.26,2.42-2.3,3.06-2.3,3.06l-.51-1.02s-1.9-5.06-4.34-4.92c-.99.06-1.48.53-1.7,1.21l-1.91-.45c.92-3.49,3.42-5.96,4.37-6.69,1.15-.9,2.3-16.34,2.64-20.21-5.45-3.58-11.4-6.64-12.6-11.07,0-3.74-.34-9.02,3.75-11.06,1.99-.44,4.02,1.28,10.89,6,6.77,4.65,17.36,12.89,18.56,14.42,1.19,1.54,2.42,9.79,2.93,12.98,2.81,3.07,1.87,3.92,1.87,3.92-.1-.02-.2-.04-.29-.06-1.42-.37-1.87-1.64-3.07-1.52-1.27.13-12.81-.25-13.15-.34-.34-.08-1.02,1.02-1.61,2.34-.53,1.17-3.28,10.98-3.53,13.41Z"/>
    <path class="cls-5" d="m132.84,125.5l-.42,4.14-.09.13c-.53-.34-1.11-.68-1.7-.98l.07-.14.09-3.56,2.07.16-.02.25Z"/>
    <path class="cls-5" d="m130.79,125.09l-.09,3.56-.07.14c-.71-.37-1.42-.67-2.04-.86l-.1-2.6.03-.42,2.27.18Z"/>
    <path class="cls-3" d="m127.25,51.97c.02-.83.15-1.63.35-2.37l1.91.45c-.32.99-.09,2.42-.09,3.66,0,3.46,1.96,6.26,3.91,5.37-.12,3.06-4.04,5.79-6.59,5.15,0,0,.38-7.53.51-12.26Z"/>
    <path class="cls-1" d="m128.47,133.53c-.55-.18-.95-.3-.99-.3-.03,0-.22.02-.47.04l-.34-2.28c1.15-.76,3.71.32,4.09.58.19.13.82.48,1.55.68l-.02.08s2.17,1.63,2.17,2.45-2.04.44-2.74,0c-.47-.3-2.14-.89-3.24-1.24h-.01Z"/>
    <path class="cls-1" d="m114.97,129.81c4.51-.81,11.07-2.65,13.62-1.88.62.19,1.33.49,2.04.86.59.3,1.17.64,1.7.98,1.45.95,2.51,1.93,2.13,2.24-.59.49-1.42.44-2.15.24s-1.36-.55-1.55-.68c-.38-.26-2.94-1.34-4.09-.58l.34,2.28c-.54.06-1.36.15-1.36.15l.11,2.22s.79-.09,1.17-.09c.21,0,2.05.97,3.48,1.6.11.18.99,1.63.51,2.14-.51.54-1.1-.16-2.14-.22-1.04-.07-3.13-.93-3.13-.93,0,0-.46.19-1.15.18-.66-.02-3.23,1.82-6.38,2.33s-4.34-1.78-6.69-3.52l-.24-.16c1.7-2.59,2.92-5.03,3.52-7.24h.01l.25.08Z"/>
    <path class="cls-1" d="m127.48,133.23s.44.12.99.3h.01c.4.23,3.08,1.71,3.43,2.12.38.45.76,2.36-.64,1.85-.25-.09-.54-.21-.86-.35-1.43-.63-3.27-1.6-3.48-1.6-.38,0-1.17.09-1.17.09l-.11-2.22s.82-.09,1.36-.15c.25-.02.44-.04.47-.04Z"/>
    <path class="cls-4" d="m111.43,137.13c2.35,1.74,3.54,4.03,6.69,3.52s5.72-2.35,6.38-2.33c.69,0,1.15-.18,1.15-.18,0,0,2.09.86,3.13.93l-.57,12.22c-6.96-4.08-16.78-8.35-16.78-8.35-.3-2.77-.59-5.44-.59-5.44.13-.18.25-.36.35-.53l.24.16Z"/>
    <path class="cls-6" d="m102.69,175.87l-.06.19c-5.87,6.37-28.25,6.47-36.24,4.78,6.2-3.56,12.31-8.45,15.82-14.83l-.13-.18h0c.9-.62,1.74-1.24,2.51-1.86,10.32-8.35,20.65-18.13,26.25-26.47,0,0,.29,2.67.59,5.44.06.57.12,1.15.18,1.71.35,3.24,11.86,25.71,17.74,31.48-2.95,1.17-12.26,2.28-20.76,1.11-1.9-.26-3.91-.76-5.9-1.37Z"/>
    <path class="cls-4" d="m115.66,68.46c2.33,4.83,10.12,16.32,16.12,15.94,4.46-.29,9.84-3.06,14.09-6.98l.42.47c3.44,7.3,18.51,41.77,18.07,47.39-.01.08-.01.15-.03.22-.88,4.8-6.42,19.31-7.2,19.78.57-.17,9.71-2.87,11.28-4.49.6,1.48,1.32,2.99,2.18,4.5,0,0,.71-.01,1.91-.03v.03s16.98,23.36,20.43,24.64c-7.79,6-28.6,6.25-40.4,7.31-.24,0-.44-.07-.62-.2-.02-.01-.03-.03-.05-.04-2.16-1.78.85-13.36-2.68-15.24-1.25-.67-3.3.07-5.64,1.54h0s-5.88-5.56-11.87-9.76c-1.16-.82-2.33-1.58-3.46-2.25l.57-12.22c1.04.06,1.63.76,2.14.22.48-.51-.4-1.96-.51-2.14.32.14.61.26.86.35,1.4.51,1.02-1.4.64-1.85-.35-.41-3.03-1.89-3.43-2.11,1.1.35,2.77.94,3.24,1.24.7.44,2.74.81,2.74,0s-2.17-2.45-2.17-2.45l.02-.08c.73.2,1.56.25,2.15-.24.38-.31-.68-1.29-2.13-2.24l.09-.13.42-4.14.02-.25,1.01.08,2.55-35.95h-9.49l.51,35.44,1.08.09-.03.42.1,2.6c-2.55-.77-9.11,1.07-13.62,1.88l-.25-.08c.1-.37.18-.73.25-1.08l2.39-4c4.42-5.36.93-21.78,0-23.74-.94-1.96-16.35-29.87-17.37-30.47v-.16c3.17.17,8.59.48,9.62.16.76-.24,3.49-1.15,6.05-1.99h0Z"/>
    <path class="cls-4" d="m23.53,175.79c.72-5.23,2.02-10.3,4.04-16.75.83-2.66,1.86-5.3,3.06-7.83h.01l.16.08c2.28-.17,8.08-1.76,15.46-4.64l-.14-.38s.14-5.2.37-11.9c.04-1.31.09-2.69.14-4.09.19-5.18.42-10.76.68-15.33.02-.33.04-.65.06-.97.85-11.42,5.02-17.01,9.99-21.03,8.29-7.91,15.83-12.51,18.38-13.32,0,0,5.88.63,8.81,1.89.47.21.87.43,1.15.66,2.04,1.71,24,19.49,26.12,27.75,1.23,4.77,2.09,10.29,2.6,14.08.37,2.78.55,4.64.55,4.64-.07.35-.15.71-.25,1.08h-.01c-.6,2.21-1.82,4.65-3.52,7.24-.1.17-.22.35-.35.53-5.6,8.34-15.93,18.12-26.25,26.47-.77.62-1.61,1.24-2.51,1.85h0c-15.76,10.75-49.94,19.54-59.28,21.47,0-4.23.23-7.9.73-11.5Z"/>
    <path class="cls-2" d="m99.99,70.44c1.02.6,16.43,28.51,17.37,30.47.93,1.96,4.42,18.38,0,23.74l-2.39,4s-.18-1.86-.55-4.64c-.51-3.79-1.37-9.31-2.6-14.08-2.12-8.26-24.08-26.04-26.12-27.75-.28-.23-.68-.45-1.15-.66l.12-.27c2.39-6.3,7.75-7.66,10.05-7.83l.34-.26c.68-1.27,1.53-2.98,2.81-2.98.31,0,1.1.04,2.13.1v.16Z"/>
    <path class="cls-2" d="m82.08,165.83l.13.18c-3.51,6.38-9.62,11.27-15.82,14.83-8.19,4.71-16.53,7.08-19.25,7.47-4.76.68-24.34-1.02-24.34-1.02,9.34-1.93,43.52-10.72,59.28-21.46Z"/>
    <path class="cls-4" d="m.5,141.67c19.75-5.95,46.13-27.74,46.13-27.74l.74.05c-.02.32-.04.64-.06.97-.26,4.57-.49,10.15-.68,15.33-1.27.07-9.45.61-16.51,2.88-5.56,1.79-12.84,13.27-15.67,22.26l-.12-.04s-10.25-6.05-13.83-13.71Z"/>
    <path class="cls-6" d="m46.63,130.28c-.05,1.4-.1,2.78-.14,4.09h-.2c-6.44,2.3-11.9,9-15.65,16.84h-.01c-1.2,2.53-2.23,5.17-3.06,7.83-2.02,6.45-3.32,11.52-4.04,16.75-1.36-1.24-7.03-6.56-9.58-10.8-1.15-1.91-.79-5.48.5-9.57,2.83-8.99,10.11-20.47,15.67-22.26,7.06-2.27,15.24-2.81,16.51-2.88Z"/>
    <path class="cls-6" d="m30.64,151.21c3.75-7.84,9.21-14.54,15.65-16.85h.2c-.23,6.71-.37,11.91-.37,11.91l.14.38c-7.38,2.88-13.18,4.47-15.46,4.64l-.16-.08Z"/>
  </g>
  <g>
    <path class="cls-7" d="m126.74,64.23c2.55.64,6.47-2.09,6.59-5.15-1.95.89-3.91-1.91-3.91-5.37,0-1.24-.23-2.67.09-3.66.22-.68.71-1.15,1.7-1.21,2.44-.14,4.34,4.92,4.34,4.92l.51,1.02s2.04-.64,2.3-3.06c.25-2.43,3-12.24,3.53-13.41.59-1.32,1.27-2.42,1.61-2.34.34.09,11.88.47,13.15.34,1.2-.12,1.65,1.15,3.07,1.52.09.02.19.04.29.06,0,0,.94-.85-1.87-3.92-.51-3.19-1.74-11.44-2.93-12.98-1.2-1.53-11.79-9.77-18.56-14.42-6.87-4.72-8.9-6.44-10.89-6-4.09,2.04-3.75,7.32-3.75,11.06,1.2,4.43,7.15,7.49,12.6,11.07-.34,3.87-1.49,19.31-2.64,20.21-.95.73-3.45,3.2-4.37,6.69-.2.74-.33,1.54-.35,2.37-.13,4.73-.51,12.26-.51,12.26Z"/>
    <path class="cls-7" d="m136.42,67.38l1.36,1.78s2.71,3.66,7.03,4.4c.48.08.99.13,1.52.13,1.07,0,2.22-.19,3.45-.67.63-.24,1.29-.56,1.96-.96.27-.2.53-.39.79-.59,1.42-1.08,2.7-2.21,3.83-3.35,3.05-3.07,4.93-6.25,5.08-9.17.34-6.64,1.53-14.81-1.74-21.06"/>
    <path class="cls-7" d="m143.14,43.72c.6-.17,4.6-.26,6.3.76"/>
    <path class="cls-7" d="m154.89,44.57s4.17-.94,5.19-.34"/>
    <path class="cls-7" d="m144.93,49.84s5.31-.73,6.13-.17"/>
    <path class="cls-7" d="m157.1,50.36s2.98-.43,3.74-.18"/>
    <path class="cls-7" d="m154.8,51.46c0,.77,4.09,6.64,3.32,8-.76,1.36-2.98,1.19-4.17,1.19s-1.96-.59-1.96-.59"/>
    <path class="cls-7" d="m151.91,56.57s-1.11,2.89-1.53,3.4"/>
    <path class="cls-7" d="m149.78,64.61c-.02.81,4.85,1.13,5.49.26"/>
    <path class="cls-7" d="m126.74,64.23l-6.41,2.72c3.32,8.17,10.3,12.77,13.62,12.85,3.32.09,8.85-4.51,10.81-5.96"/>
    <path class="cls-7" d="m120.33,66.95c-.75.22-2.65.84-4.67,1.5-2.56.84-5.29,1.75-6.05,1.99-1.03.32-6.45.01-9.61-.16-1.03-.06-1.82-.1-2.13-.1-1.28,0-2.13,1.71-2.81,2.98"/>
    <path class="cls-7" d="m99.99,70.44c1.02.6,16.43,28.51,17.37,30.47.93,1.96,4.42,18.38,0,23.74l-2.39,4s-.18-1.86-.55-4.64c-.51-3.79-1.37-9.31-2.6-14.08-2.12-8.26-24.08-26.04-26.12-27.75-.28-.23-.68-.45-1.15-.66-2.93-1.26-8.81-1.89-8.81-1.89-2.55.81-10.09,5.41-18.38,13.32-4.97,4.02-9.14,9.61-9.99,21.03-.02.32-.04.64-.06.97-.26,4.57-.49,10.15-.68,15.33-.05,1.4-.1,2.78-.14,4.09-.23,6.7-.37,11.9-.37,11.9"/>
    <path class="cls-7" d="m94.72,73.42c-2.3.17-7.66,1.53-10.05,7.83"/>
    <path class="cls-7" d="m46.63,113.93s-26.38,21.79-46.13,27.74c3.58,7.66,13.83,13.71,13.83,13.71"/>
    <path class="cls-7" d="m46.8,130.27s-.06,0-.17.01c-1.27.07-9.45.61-16.51,2.88-5.56,1.79-12.84,13.27-15.67,22.26-1.29,4.09-1.65,7.66-.5,9.57,2.55,4.24,8.22,9.56,9.58,10.8.19.18.29.27.29.27"/>
    <path class="cls-7" d="m46.29,134.36c-6.44,2.31-11.9,9.01-15.65,16.85h-.01c-1.2,2.53-2.23,5.17-3.06,7.83-2.02,6.45-3.32,11.52-4.04,16.75-.5,3.6-.73,7.27-.73,11.5,9.34-1.93,43.52-10.72,59.28-21.46h0c.9-.62,1.74-1.24,2.51-1.86,10.32-8.35,20.65-18.13,26.25-26.47.13-.18.25-.36.35-.53,1.7-2.59,2.92-5.03,3.52-7.24h.01c.1-.37.18-.73.25-1.08"/>
    <path class="cls-7" d="m22.8,187.29s19.58,1.7,24.34,1.02c2.72-.39,11.06-2.76,19.25-7.47,6.2-3.56,12.31-8.45,15.82-14.83"/>
    <path class="cls-7" d="m30.8,151.29c2.28-.17,8.08-1.76,15.46-4.64,14.11-5.51,34-15.74,46.07-29.83"/>
    <polyline class="cls-7" points="63.48 95.38 104.53 118.45 114.42 124.01"/>
    <path class="cls-7" d="m87.82,102.18c-.51-.68-11.06-8.34-11.06-8.34l2.64-6.46s15.66,11.23,19.23,16.42c3.38,4.91,5.92,12.86,5.9,14.65,0,.1-.01.19-.03.25"/>
    <path class="cls-7" d="m66.39,180.84c7.99,1.69,30.37,1.59,36.24-4.78"/>
    <path class="cls-7" d="m88.95,169.93s6.68,3.73,13.74,5.94c1.99.61,4,1.11,5.9,1.37,8.5,1.17,17.81.06,20.76-1.11.06-.02.12-.05.18-.07"/>
    <path class="cls-7" d="m151.91,177.04c.18.13.38.2.62.2,11.8-1.06,32.61-1.31,40.4-7.31,1.49.16,2.93.31,4.32.46,2.24.25,4.35.48,6.33.69,11.03,1.16,18.33,1.53,23.56-1.7,2.24-1.38,6.47-4.27,11.3-7.53,9.79-6.59,22.09-14.68,25.6-14.77-4.6-7.28-7.28-8.68-10.34-15.83-3.07-7.15-10.09-14.04-20.17-13.15-9.96.89-12.9-.08-12.9-.08-.65-1.21-1.23-2.32-1.74-3.33-5.58-11.06-3.43-10.86-9.75-16.12-6.89-5.75-16.47-12.64-21.95-14.3-1.44-.44-2.73-.82-3.84-1.15-1.43-.42-2.56-.75-3.38-.98-.91-.27-1.88-.02-2.57.64l-10.64,10.25"/>
    <path class="cls-7" d="m129.53,176.06c.39-.45.84-.95,1.32-1.48,3.31-3.6,8.48-8.64,12.69-11.28,2.34-1.47,4.39-2.21,5.64-1.54,3.53,1.88.52,13.46,2.68,15.24"/>
    <path class="cls-7" d="m131.57,174.7s17.49.09,20.29,2.3c.02.01.03.03.05.04"/>
    <path class="cls-7" d="m129.53,176.31c-.06-.06-.12-.11-.18-.18-5.88-5.77-17.39-28.24-17.74-31.48-.06-.56-.12-1.14-.18-1.71-.3-2.77-.59-5.44-.59-5.44"/>
    <path class="cls-7" d="m111.43,142.94s9.82,4.27,16.78,8.35c1.13.67,2.3,1.43,3.46,2.25,5.99,4.2,11.87,9.75,11.87,9.75"/>
    <path class="cls-7" d="m156.36,68.12s9.69,4.14,10.27,5.57c.51,1.26-.01,1.92-.1,2.36"/>
    <path class="cls-7" d="m162.67,86.68c0-4-.25-11.35,1.92-11.22.64.04,1.29.26,1.94.59,1.57.79,3.17,2.2,4.7,3.24,2.17,1.47,6.17,3.49,6.17,3.49"/>
    <path class="cls-7" d="m152.53,71.47c2.88,4.39,6.76,10.1,10.14,15.21,1.51,2.3,2.92,4.47,4.09,6.35,1.48,2.37,2.57,4.27,3,5.35,1.53,3.83,4.34,11.29,4.34,11.29"/>
    <path class="cls-7" d="m115.66,68.46c2.33,4.83,10.12,16.32,16.12,15.94,4.46-.29,9.84-3.06,14.09-6.98,1.47-1.35,2.8-2.83,3.91-4.4"/>
    <path class="cls-7" d="m157.1,145.29s.01,0,.03-.01c.57-.17,9.71-2.87,11.28-4.49"/>
    <path class="cls-7" d="m146.29,77.89c3.44,7.3,18.51,41.77,18.07,47.39-.01.08-.01.15-.03.22-.88,4.8-6.42,19.31-7.2,19.78"/>
    <path class="cls-7" d="m220.63,118.02c-6.25-.05-14.3.21-21.83-1.07s-11.1-5.19-15.83-7.26c-2.41-1.05-5.8-.83-8.82.47-2.88,1.25-5.44,3.48-6.5,6.54-.8,2.3-1.5,5.24-1.73,8.59-.31,4.55.22,9.88,2.49,15.5.6,1.48,1.32,2.99,2.18,4.5,7.79-2.42,14.94-9.19,17.62-10.21.58-.22,1.47-.35,2.43-.31,3.47.12,7.93,2.42,2.6,10.52-.77-.02-1.61-.04-2.48-.06-6.24-.11-14.56-.02-18.26.03-1.2.02-1.91.03-1.91.03"/>
    <path class="cls-7" d="m171.1,120.01c0,1.27,14.12,14.23,19.54,14.76.04,0,.07.01.1.01"/>
    <path class="cls-7" d="m190.74,146.27c4.21,4.91,13.16,8.69,21.72,8.39,1.07-.03,2.14-.13,3.19-.3.7-.11,1.5-.28,2.37-.49,10.85-2.56,33.85-11.4,46.02-6.79"/>
    <path class="cls-7" d="m218,153.87h.02c1.98.33,4.05,1.1,6.09,2.04,5.78,2.65,11.35,6.66,14.33,5.94"/>
    <path class="cls-7" d="m224.11,155.91s-4.63,7.64-8.84,9.93c-4.21,2.3-11.69,5.24-11.69,5.24"/>
    <path class="cls-7" d="m197.25,170.39c6.28-3.52,11.43-7.36,15.21-15.73"/>
    <path class="cls-7" d="m172.5,145.29s16.98,23.36,20.43,24.64"/>
    <polyline class="cls-7" points="182.72 84.41 182.94 106.74 182.97 109.69"/>
    <path class="cls-7" d="m182.72,106.87c.07-.04.14-.08.22-.13,3.86-2.31,10.33-12.41,12.54-14.58"/>
    <path class="cls-7" d="m114.97,129.81c4.51-.81,11.07-2.65,13.62-1.88.62.19,1.33.49,2.04.86.59.3,1.17.64,1.7.98,1.45.95,2.51,1.93,2.13,2.24-.59.49-1.42.44-2.15.24s-1.36-.55-1.55-.68c-.38-.26-2.94-1.34-4.09-.58"/>
    <path class="cls-7" d="m128.47,133.53c-.55-.18-.95-.3-.99-.3-.03,0-.22.02-.47.04-.54.06-1.36.15-1.36.15"/>
    <path class="cls-7" d="m132.29,132.33s2.17,1.63,2.17,2.45-2.04.44-2.74,0c-.47-.3-2.14-.89-3.24-1.24"/>
    <path class="cls-7" d="m128.43,133.51s.01.01.04.02h.01c.4.23,3.08,1.71,3.43,2.12.38.45.76,2.36-.64,1.85-.25-.09-.54-.21-.86-.35-1.43-.63-3.27-1.6-3.48-1.6-.38,0-1.17.09-1.17.09"/>
    <path class="cls-7" d="m111.43,137.13c2.35,1.74,3.54,4.03,6.69,3.52s5.72-2.35,6.38-2.33c.69,0,1.15-.18,1.15-.18,0,0,2.09.86,3.13.93,1.04.06,1.63.76,2.14.22.48-.51-.4-1.96-.51-2.14-.01-.01-.01-.02-.01-.02"/>
    <polygon class="cls-7" points="132.86 125.25 133.87 125.33 136.42 89.38 131.67 89.38 126.93 89.38 127.44 124.82 128.52 124.91 130.79 125.09 132.86 125.25"/>
    <polyline class="cls-7" points="131.67 89.38 130.79 125.09 130.7 128.65"/>
    <line class="cls-7" x1="128.78" y1="139.07" x2="128.21" y2="151.29"/>
    <path class="cls-7" d="m112.25,72.09c4.59,14.73,13.5,35.03,13.51,39.5.02,4.47-1,14.55-1,14.55"/>
    <line class="cls-7" x1="132.84" y1="125.5" x2="132.42" y2="129.64"/>
    <line class="cls-7" x1="128.49" y1="125.33" x2="128.59" y2="127.93"/>
    <path class="cls-7" d="m218.89,114.69c10.89-2.8,22.3-2.42,26.89-.04,4.6,2.39,9.14,12.8,7.92,16.6"/>
    <path class="cls-7" d="m131.67,153.54c2.03-3.01,11.87-3.91,11.87-3.91,4.58-.13,8.67.07,10.71,3.48,2.04,3.42,7.28,14.39,15.57,18.99"/>
  </g>
</svg>