<svg xmlns="http://www.w3.org/2000/svg" viewBox="0 0 269.44 211.36"><defs><style>.cls-1{fill:#fddc99}.cls-1,.cls-2,.cls-3,.cls-4,.cls-5,.cls-6,.cls-8{stroke-width:0}.cls-9{stroke-miterlimit:10}.cls-10,.cls-9{fill:none;stroke:#000}.cls-2{fill:#f3edd7}.cls-3{fill:#fb650e}.cls-10{stroke-linecap:round;stroke-linejoin:round}.cls-4{fill:#333}.cls-5{fill:#e9dc59}.cls-6{fill:#e9e6bb}.cls-8{fill:#67a7b0}</style></defs><g id="_畳" data-name="畳"><path d="M.24 176.84h3.61v5.01H.24zM269.2 204.32v6.54h-30.35l15.3-8.6c1.03 1.61 3.1 2.71 5.49 2.71s4.6-1.18 5.6-2.87l3.95 2.22Z" class="cls-2"/><path d="M269.2 193.8v10.52l-3.95-2.22c.38-.65.59-1.38.59-2.14 0-1.3-.61-2.47-1.61-3.37l4.98-2.79ZM269.2 181.85v11.95l-4.98 2.79c-1.13-1-2.76-1.64-4.58-1.64s-3.3.58-4.42 1.51l-26-14.62h39.98ZM269.2 103.85v5.74H.24v-5.74H269.2z" class="cls-2"/><path d="M265.22 176.84h3.98v5.01h-3.98zM265.83 199.96c0 .76-.21 1.49-.59 2.14l-5.4-3.04 4.38-2.47c1 .89 1.61 2.07 1.61 3.37ZM259.84 199.06l5.4 3.04c-1 1.7-3.12 2.87-5.6 2.87s-4.47-1.1-5.49-2.71l5.69-3.2Z" class="cls-2"/><path d="M253.95 176.84h11.27v5.01h-11.27z" class="cls-4"/><path d="m264.22 196.6-4.38 2.47-4.62-2.6c1.12-.93 2.69-1.51 4.42-1.51 1.82 0 3.44.63 4.58 1.64Z" class="cls-2"/><path d="m259.84 199.06-5.69 3.2c-.44-.68-.69-1.47-.69-2.3 0-1.37.67-2.6 1.77-3.5l4.62 2.6Z" class="cls-2"/><path d="m229.22 181.85 26 14.62c-1.09.9-1.77 2.13-1.77 3.5 0 .83.25 1.62.69 2.3l-15.3 8.6H197.5l-15.59-8.77c.38-.65.59-1.38.59-2.14 0-1.3-.61-2.47-1.61-3.36l26.25-14.75h22.07Zm-5.94 18.11c0-2.76-2.24-5-5-5s-5.01 2.24-5.01 5 2.24 5.01 5.01 5.01 5-2.24 5-5.01ZM253.95 181.85h-30.42v-5.01h30.42v5.01z" class="cls-2"/><path d="M212.27 176.84h11.27v5.01h-11.27zM218.27 194.96c2.76 0 5 2.24 5 5s-2.24 5.01-5 5.01-5.01-2.24-5.01-5.01 2.24-5 5.01-5Z" class="cls-4"/><path d="m207.14 181.85-26.25 14.75c-1.13-1.01-2.76-1.64-4.58-1.64s-3.3.58-4.42 1.51l-26-14.62h61.25ZM181.85 181.85v-5.01h30.42v5.01H181.85zM197.51 210.86h-41.99l15.3-8.6c1.03 1.61 3.11 2.71 5.49 2.71s4.6-1.18 5.6-2.87l15.59 8.77ZM182.51 199.96c0 .76-.21 1.49-.59 2.14l-5.4-3.04 4.38-2.46c1 .88 1.61 2.06 1.61 3.36Z" class="cls-2"/><path d="m176.52 199.06 5.4 3.04c-1 1.7-3.12 2.87-5.6 2.87s-4.47-1.1-5.49-2.71l5.69-3.2Z" class="cls-2"/><path d="M170.58 176.84h11.27v5.01h-11.27z" class="cls-4"/><path d="M176.32 194.96c1.82 0 3.44.63 4.58 1.64l-4.38 2.46-4.62-2.6c1.12-.93 2.69-1.51 4.42-1.51Z" class="cls-2"/><path d="m176.52 199.06-5.69 3.2c-.44-.68-.69-1.47-.69-2.3 0-1.37.67-2.6 1.77-3.5l4.62 2.6Z" class="cls-2"/><path d="m145.9 181.85 26 14.62c-1.09.9-1.77 2.13-1.77 3.5 0 .83.25 1.62.69 2.3l-15.3 8.6h-41.34l-15.59-8.77c.38-.65.59-1.38.59-2.14 0-1.3-.61-2.47-1.61-3.36l26.25-14.75h22.07Zm-6.99 18.11c0-2.76-2.24-5-5-5s-5.01 2.24-5.01 5 2.24 5.01 5.01 5.01 5-2.24 5-5.01ZM170.58 181.85h-30.41v-5.01h30.41v5.01z" class="cls-2"/><path d="M128.9 176.84h11.27v5.01H128.9zM133.9 194.96c2.76 0 5 2.24 5 5s-2.24 5.01-5 5.01-5.01-2.24-5.01-5.01 2.24-5 5.01-5Z" class="cls-4"/><path d="M123.82 181.85 97.57 196.6c-1.13-1.01-2.76-1.64-4.58-1.64s-3.3.58-4.42 1.51l-26-14.62h61.25ZM128.9 181.85H98.49v-5.01h30.41v5.01zM114.19 210.86H72.2l15.3-8.6c1.03 1.61 3.1 2.71 5.49 2.71s4.6-1.18 5.6-2.87l15.59 8.77ZM99.19 199.96c0 .76-.21 1.49-.59 2.14l-5.4-3.04 4.38-2.46c1 .88 1.61 2.06 1.61 3.36Z" class="cls-2"/><path d="m93.2 199.06 5.4 3.04c-1 1.7-3.12 2.87-5.6 2.87s-4.47-1.1-5.49-2.71l5.69-3.2Z" class="cls-2"/><path d="M87.22 176.84h11.27v5.01H87.22z" class="cls-4"/><path d="M93 194.96c1.82 0 3.44.63 4.58 1.64l-4.38 2.46-4.62-2.6c1.12-.93 2.69-1.51 4.42-1.51Z" class="cls-2"/><path d="m93.2 199.06-5.69 3.2c-.44-.68-.69-1.47-.69-2.3 0-1.37.67-2.6 1.77-3.5l4.62 2.6Z" class="cls-2"/><path d="m62.57 181.85 26 14.62c-1.09.9-1.77 2.13-1.77 3.5 0 .83.25 1.62.69 2.3l-15.3 8.6H30.68l-15.59-8.77c.38-.65.59-1.38.59-2.14 0-1.3-.61-2.47-1.61-3.36l26.25-14.75h22.26Zm-8.5 18.11c0-2.76-2.24-5-5-5s-5.01 2.24-5.01 5 2.24 5.01 5.01 5.01 5-2.24 5-5.01ZM87.22 181.85H56.8v-5.01h30.42v5.01z" class="cls-2"/><path d="M45.54 176.84h11.27v5.01H45.54zM49.08 194.96c2.76 0 5 2.24 5 5s-2.24 5.01-5 5.01-5.01-2.24-5.01-5.01 2.24-5 5.01-5Z" class="cls-4"/><path d="M45.54 181.85H15.12v-5.01h30.42v5.01zM30.68 210.86H.24v-6.5l3.75-2.1c1.03 1.61 3.11 2.71 5.49 2.71s4.6-1.18 5.6-2.87l15.59 8.77ZM15.67 199.96c0 .76-.21 1.49-.59 2.14l-5.4-3.04 4.38-2.46c1 .88 1.61 2.06 1.61 3.36Z" class="cls-2"/><path d="M3.85 176.84h11.27v5.01H3.85z" class="cls-4"/><path d="m9.69 199.06 5.4 3.04c-1 1.7-3.12 2.87-5.6 2.87s-4.47-1.1-5.49-2.71l5.69-3.2ZM9.49 194.96c1.82 0 3.44.63 4.58 1.64l-4.38 2.46-4.62-2.6c1.12-.93 2.69-1.51 4.42-1.51Z" class="cls-2"/><path d="M9.69 199.06 4 202.26c-.44-.68-.69-1.47-.69-2.3 0-1.37.67-2.6 1.77-3.5l4.62 2.6Z" class="cls-2"/><path d="m.24 193.76 4.82 2.71c-1.09.9-1.77 2.13-1.77 3.5 0 .83.25 1.62.69 2.3l-3.75 2.1v-10.61Z" class="cls-2"/><path d="M212.27 176.84H.24v-67.25H269.2v67.25h-56.93z" style="fill:#d2d296;stroke-width:0"/><path d="M.24 181.85H40.3L14.05 196.6c-1.13-1.01-2.76-1.64-4.58-1.64s-3.3.58-4.42 1.51l-4.82-2.71v-11.91Z" class="cls-2"/><path d="M269.2 210.86H.24M.24 103.85H269.2M.24 109.59H269.2M265.22 176.84h3.98M223.53 176.84h30.42M181.85 176.84h30.42M140.17 176.84h30.41M98.49 176.84h30.41M56.8 176.84h30.42M15.12 176.84h30.42M.24 176.84h3.61M265.22 181.85h3.98M223.53 181.85h30.42M181.85 181.85H212.27M140.17 181.85h30.41M98.49 181.85H128.9M56.8 181.85H87.22M15.12 181.85h30.42M.24 181.85h3.61M72.21 210.86l15.29-8.6 5.7-3.2 4.38-2.46 26.24-14.75" class="cls-9"/><path d="M114.19 210.86 98.6 202.1l-5.4-3.04-4.62-2.59-26.01-14.62M138.9 199.96a5.004 5.004 0 1 1-10.01 0c0-2.77 2.24-5 5.01-5s5 2.24 5 5ZM223.27 199.96a5.004 5.004 0 1 1-10.01 0c0-2.77 2.24-5 5.01-5s5 2.24 5 5Z" class="cls-9"/><path d="M97.58 196.6c1 .88 1.61 2.06 1.61 3.36 0 .76-.21 1.49-.59 2.14-1 1.7-3.12 2.87-5.6 2.87s-4.47-1.1-5.49-2.71c-.44-.68-.69-1.47-.69-2.3 0-1.37.67-2.6 1.77-3.5 1.12-.93 2.69-1.51 4.42-1.51 1.82 0 3.44.63 4.58 1.64ZM.24 204.37l3.75-2.11 5.7-3.2 4.37-2.46 26.25-14.75" class="cls-9"/><path d="m30.68 210.86-15.59-8.76-5.4-3.04-4.63-2.59-4.82-2.71" class="cls-9"/><path d="M14.06 196.6c1 .88 1.61 2.06 1.61 3.36 0 .76-.21 1.49-.59 2.14-1 1.7-3.12 2.87-5.6 2.87s-4.47-1.1-5.49-2.71c-.44-.68-.69-1.47-.69-2.3 0-1.37.67-2.6 1.77-3.5 1.12-.93 2.69-1.51 4.42-1.51 1.82 0 3.44.63 4.58 1.64ZM155.53 210.86l15.3-8.6 5.69-3.2 4.38-2.46 26.24-14.75" class="cls-9"/><path d="m197.51 210.86-15.59-8.76-5.4-3.04-4.62-2.59-26-14.62" class="cls-9"/><path d="M180.9 196.6c1 .88 1.61 2.06 1.61 3.36 0 .76-.21 1.49-.59 2.14-1 1.7-3.12 2.87-5.6 2.87s-4.47-1.1-5.49-2.71c-.44-.68-.69-1.47-.69-2.3 0-1.37.67-2.6 1.77-3.5 1.12-.93 2.69-1.51 4.42-1.51 1.82 0 3.44.63 4.58 1.64ZM238.85 210.86l15.3-8.6 5.69-3.2 4.38-2.46 4.98-2.8" class="cls-9"/><path d="m269.2 204.32-3.96-2.22-5.4-3.04-4.62-2.59-26-14.62" class="cls-9"/><path d="M264.22 196.6c1 .89 1.61 2.07 1.61 3.37 0 .76-.21 1.49-.59 2.14-1 1.7-3.12 2.87-5.6 2.87s-4.47-1.1-5.49-2.71c-.44-.68-.69-1.47-.69-2.3 0-1.37.67-2.6 1.77-3.5 1.12-.93 2.69-1.51 4.42-1.51 1.82 0 3.44.63 4.58 1.64ZM54.08 199.96a5.004 5.004 0 1 1-10.01 0c0-2.77 2.24-5 5.01-5s5 2.24 5 5ZM3.85 176.84h11.27v5.01H3.85zM45.54 176.84h11.27v5.01H45.54zM87.22 176.84h11.27v5.01H87.22zM128.9 176.84h11.27v5.01H128.9zM170.58 176.84h11.27v5.01h-11.27zM212.27 176.84h11.27v5.01h-11.27zM253.95 176.84h11.27v5.01h-11.27z" class="cls-9"/></g><g id="_レイヤー_2" data-name="レイヤー 2"><path d="M184.86 116.68c-.84-.03-1.61.08-2.11.27-2.32.89-8.51 6.74-15.24 8.84-.74-1.31-1.37-2.61-1.89-3.89-1.96-4.86-2.42-9.48-2.15-13.41.21-2.91.8-5.44 1.5-7.44.92-2.64 3.12-4.57 5.62-5.65 2.61-1.12 5.55-1.32 7.63-.41 4.08 1.78 7.18 5.17 13.7 6.28 6.52 1.1 13.47.88 18.89.93 0 0 2.54.84 11.15.07 8.73-.78 14.81 5.19 17.45 11.38 2.66 6.18 4.98 7.4 8.95 13.69-10.53-3.98-30.45 3.68-39.83 5.88-.74.17-1.42.32-2.02.42-.91.15-1.83.23-2.76.26-7.42.27-15.15-2.99-18.79-7.25l.02-.91c.75.02 1.47.03 2.14.06 4.62-7.01.76-9-2.24-9.11Z" class="cls-5"/><path d="M208.54 133.22c9.38-2.21 29.3-9.86 39.83-5.88-3.03.08-13.68 7.08-22.15 12.78-2.57.62-7.39-2.84-12.38-5.13-1.77-.81-3.57-1.48-5.29-1.77Z" class="cls-3"/><path d="M232.58 99.28c3.97 2.06 7.91 11.07 6.84 14.36-2.65-6.19-8.72-12.16-17.45-11.38-8.61.77-11.15-.07-11.15-.07-.56-1.05-1.06-2.01-1.5-2.88 9.42-2.43 19.28-2.09 23.26-.03ZM213.82 134.99c4.99 2.29 9.81 5.75 12.38 5.13-4.18 2.82-7.83 5.32-9.76 6.52-4.53 2.79-10.85 2.47-20.39 1.48s6.47-2.54 10.12-4.53 7.65-8.59 7.65-8.59Z" class="cls-6"/><path d="M213.82 134.99s-4.01 6.6-7.65 8.59-10.12 4.53-10.12 4.53c-1.71-.17-3.54-.38-5.48-.59 5.43-3.05 9.89-6.37 13.16-13.61.93-.03 1.85-.12 2.76-.27.61-.1 1.28-.24 2.02-.42 1.72.29 3.51.95 5.29 1.77Z" class="cls-8"/><path d="m178.2 92.42-.2-19.31.15-1.23c1.06.31 2.3.68 3.72 1.12 4.75 1.44 13.04 7.4 19 12.37 5.46 4.56 3.6 4.38 8.44 13.96.43.87.93 1.83 1.5 2.88-5.42-.04-12.37.17-18.89-.93-6.52-1.11-9.61-4.5-13.7-6.28l-.03-2.57Z" class="cls-5"/><path d="M203.74 133.9c-3.27 7.25-7.74 10.57-13.16 13.62-1.2-.13-2.45-.27-3.74-.4-2.99-1.11-17.68-21.32-17.68-21.32v-.03c3.2-.04 10.4-.13 15.8-.03l-.02.91c3.64 4.26 11.38 7.52 18.79 7.25Z" class="cls-8"/><path d="M184.86 116.68c3 .11 6.86 2.1 2.24 9.11-.67-.03-1.38-.04-2.14-.06-5.4-.1-12.6 0-15.8.03-1.04.02-1.65.03-1.65.03 6.73-2.1 12.92-7.95 15.24-8.84.5-.19 1.27-.3 2.11-.27Z" class="cls-3"/><path d="m178.2 92.42.03 2.57c-2.09-.91-5.02-.72-7.63.41l-.04-.42s-2.43-6.46-3.76-9.78c-.37-.93-1.32-2.57-2.6-4.63l9.21-8.87c.59-.56 1.44-.78 2.22-.55.63.18 1.48.42 2.52.74l-.15 1.23.2 19.31ZM133.83 132.93c-1.01-.71-2.02-1.38-3-1.95l.5-10.58c.9.06 1.41.67 1.85.2.42-.44-.35-1.7-.43-1.85.27.12.52.22.74.3 1.21.44.88-1.21.55-1.6-.34-.39-3.01-1.85-3.01-1.85.94.31 2.43.83 2.84 1.09.61.39 2.38.71 2.38 0s-1.88-2.12-1.88-2.12l.02-.06c.63.17 1.35.22 1.86-.21.33-.28-.59-1.12-1.84-1.94l.08-.12.36-3.57.02-.22.87.07 2.22-31.12h-8.21l.44 30.68.93.08-.03.36.09 2.25c-2.22-.67-7.89.92-11.79 1.63l-.22-.07c.09-.32.16-.63.22-.93l2.06-3.46c3.83-4.64.81-18.86 0-20.55-.8-1.69-14.14-25.85-15.02-26.36v-.14c2.74.15 7.44.42 8.32.14.66-.21 3.02-1 5.24-1.72 2.02 4.19 8.76 14.13 13.95 13.79 3.86-.24 8.51-2.65 12.19-6.04l.36.41c2.98 6.33 16.02 36.15 15.64 41.02 0 .07-.02.13-.03.19-.76 4.14-5.56 16.71-6.23 17.12.49-.15 8.4-2.48 9.76-3.89.52 1.28 1.14 2.59 1.89 3.89 0 0 .61 0 1.65-.03v.03s14.69 20.21 17.68 21.32c-6.74 5.19-24.75 5.41-34.97 6.33-.26 0-.47-.1-.64-.27h-.02c-1.7-1.77.78-11.52-2.24-13.12-1.08-.58-2.85.05-4.87 1.32 0 0-5.08-4.8-10.27-8.44Z" class="cls-5"/><path d="m173.41 71.7-9.21 8.87c-1.01-1.63-2.23-3.5-3.55-5.49 0-3.46-.21-9.82 1.67-9.71.55.03 1.12.22 1.68.51 1.36.68 2.74 1.9 4.07 2.8 1.88 1.27 5.34 3.01 5.34 3.01Z" class="cls-3"/><path d="m170.55 94.97.04.42c-2.5 1.08-4.71 3.01-5.62 5.65-.69 2-1.29 4.53-1.5 7.44h-1.35c.38-4.87-12.66-34.7-15.64-41.03l-.36-.41c1.27-1.17 2.42-2.46 3.38-3.81.55-.21 1.12-.48 1.7-.83.22-.16.46-.34.67-.51 2.49 3.8 5.86 8.75 8.77 13.17 1.32 1.98 2.54 3.86 3.55 5.49 1.28 2.06 2.22 3.7 2.6 4.63 1.32 3.31 3.76 9.78 3.76 9.78Z" class="cls-5"/><path d="M164.09 63.84c.44 1.09-.02 1.65-.09 2.03-.56-.28-1.12-.47-1.68-.5-1.88-.11-1.67 6.25-1.67 9.71-2.92-4.42-6.28-9.37-8.77-13.17a32.16 32.16 0 0 0 3.32-2.89s8.38 3.57 8.89 4.82ZM162.12 108.48h1.35c-.27 3.95.19 8.56 2.15 13.42-1.36 1.4-9.27 3.74-9.76 3.89.67-.41 5.47-12.97 6.23-17.12 0-.06.03-.12.03-.19Z" class="cls-5"/><path d="m145.2 63.72-.04.25c-1.7 1.25-6.48 5.23-9.35 5.16-2.87-.08-8.91-4.05-11.79-11.12l5.55-2.36c2.21.55 5.59-1.8 5.7-4.46-1.7.78-3.38-1.65-3.38-4.64 0-1-.17-2.15.03-2.99.16-.68.57-1.17 1.51-1.22 2.12-.12 3.76 4.26 3.76 4.26l.45.88s1.77-.55 1.98-2.66c.22-2.09 2.6-10.59 3.06-11.6.51-1.14 1.1-2.1 1.39-2.02.29.07 10.27.41 11.38.29 1.04-.1 1.42 1 2.65 1.31l-.02.05c2.84 5.42 1.81 12.49 1.51 18.23-.13 2.52-1.76 5.27-4.4 7.94-.98.98-2.09 1.95-3.32 2.89-.22.17-.45.35-.67.51-.58.35-1.14.62-1.7.83a8.03 8.03 0 0 1-2.99.58c-.45 0-.89-.04-1.31-.11Z" class="cls-1"/><path d="M156.74 29.47c2.43 2.65 1.62 3.38 1.62 3.38l-.26-.05c-1.23-.31-1.61-1.41-2.65-1.31-1.11.11-11.08-.22-11.38-.29-.29-.08-.88.88-1.39 2.02-.46 1-2.84 9.5-3.06 11.6-.22 2.1-1.98 2.66-1.98 2.66l-.45-.88s-1.64-4.38-3.76-4.26c-.94.05-1.35.54-1.51 1.22l-1.64-.39c.75-3.11 2.99-5.31 3.82-5.97 1-.77 1.99-14.14 2.28-17.49-4.72-3.09-9.87-5.75-10.9-9.57 0-3.24-.29-7.81 3.24-9.58 1.72-.38 3.48 1.11 9.42 5.19 5.86 4.03 15.02 11.16 16.05 12.49 1.04 1.32 2.1 8.47 2.54 11.23Z" class="cls-4"/><path d="M148.98 140.05c3.02 1.6.54 11.34 2.24 13.12-2.69-1.85-17.47-1.92-17.47-1.92l-.63-.11c2.87-3.11 7.35-7.48 10.99-9.76 2.02-1.27 3.79-1.9 4.87-1.32Z" class="cls-6"/><path d="M146.51 63.83c.93 0 1.94-.16 2.99-.58-.96 1.35-2.11 2.64-3.38 3.81-3.68 3.39-8.33 5.8-12.19 6.04-5.19.34-11.93-9.61-13.95-13.78 1.75-.58 3.39-1.12 4.04-1.31 2.87 7.07 8.91 11.04 11.79 11.12 2.87.07 7.66-3.9 9.35-5.16l.04-.25c.42.07.86.11 1.31.11ZM133.83 132.93c5.19 3.63 10.27 8.44 10.27 8.44-3.64 2.28-8.12 6.65-10.99 9.76-.42.46-.8.89-1.14 1.28-.05.03-.1.04-.16.07-5.1-5.01-15.03-24.45-15.33-27.24-.05-.48-.1-.99-.16-1.49.35.16 8.63 3.77 14.51 7.23.98.57 1.99 1.24 3 1.95Z" class="cls-5"/><path d="m137.94 77.41-2.21 31.11-.87-.07-1.8-.13.77-30.91h4.11z" class="cls-6"/><path d="M134.4 112.37c1.25.81 2.17 1.66 1.84 1.94-.51.42-1.23.38-1.86.21s-1.18-.48-1.34-.6c-.34-.22-2.54-1.16-3.54-.49l.16 1.98c-.46.05-1.04.12-1.04.12l.1 1.91s.67-.07 1.01-.07c.18 0 1.78.85 3.02 1.38.09.16.85 1.41.43 1.85-.44.47-.95-.14-1.85-.2-.9-.05-2.71-.8-2.71-.8s-.4.16-1 .15c-.57-.02-2.79 1.58-5.52 2.02s-3.76-1.55-5.8-3.05l-.2-.13c1.47-2.24 2.53-4.36 3.05-6.27l.22.07c3.89-.71 9.57-2.29 11.79-1.63.54.16 1.15.42 1.76.74.51.26 1.02.55 1.48.86Z" class="cls-1"/><path d="M136.25 116.69c0 .71-1.77.39-2.38 0-.41-.26-1.9-.78-2.84-1.09-.46-.15-.79-.25-.82-.25s-.27.03-.55.05l-.16-1.98c1-.67 3.2.28 3.54.49.16.11.71.42 1.34.6l-.02.06s1.88 1.42 1.88 2.12Z" class="cls-1"/><path d="m134.86 108.45-.02.22-.36 3.57-.08.12c-.46-.3-.97-.6-1.48-.86l.06-.11.08-3.08 1.8.14Z" class="cls-6"/><path d="M131.89 46.55c0 2.99 1.69 5.42 3.38 4.64-.11 2.66-3.5 5.01-5.7 4.46 0 0 .33-6.52.44-10.6.02-.66.1-1.29.26-1.88l1.64.39c-.2.85-.03 1.99-.03 2.99Z" class="cls-4"/><path d="M132.75 118.75c-1.24-.54-2.84-1.38-3.02-1.38-.34 0-1.01.07-1.01.07l-.1-1.91s.58-.07 1.04-.12c.28-.03.51-.05.55-.05s.36.1.82.25c0 0 2.67 1.46 3.01 1.85.33.39.66 2.04-.55 1.6-.22-.08-.47-.18-.74-.3Z" class="cls-1"/><path d="m133.83 77.41-.77 30.91-1.95-.16-.94-.08-.44-30.67h4.1z" class="cls-6"/><path d="m131.11 108.16 1.96.16-.08 3.08-.06.11c-.61-.31-1.22-.58-1.76-.74l-.09-2.25.03-.36Z" class="cls-6"/><path d="m131.33 120.4-.5 10.58c-5.88-3.46-14.16-7.08-14.51-7.23l-.51-4.7c.11-.16.21-.3.3-.45l.2.13c2.04 1.5 3.07 3.49 5.8 3.05s4.95-2.04 5.52-2.02c.6.02 1-.15 1-.15s1.81.74 2.71.8Z" class="cls-5"/><path d="m108.77 152.25-.07.16c-5.08 5.52-24.45 5.6-31.36 4.14 5.36-3.08 10.64-7.31 13.68-12.83l-.1-.16c.78-.54 1.51-1.07 2.17-1.61 8.93-7.23 17.86-15.69 22.71-22.91l.51 4.7c.05.5.1 1 .16 1.49.3 2.79 10.24 22.23 15.33 27.24-2.55 1.01-10.6 1.97-17.95.96-1.64-.22-3.38-.66-5.09-1.19Z" class="cls-8"/><path d="M121.44 87.38c.81 1.7 3.83 15.91 0 20.55l-2.06 3.46s-.16-1.61-.48-4.02c-.44-3.28-1.19-8.06-2.25-12.18-1.84-7.15-20.84-22.54-22.61-24.01-.24-.2-.58-.39-.99-.57l.1-.23c2.07-5.45 6.71-6.63 8.69-6.78l.3-.22c.59-1.11 1.32-2.58 2.42-2.58.28 0 .96.03 1.85.09v.14c.87.51 14.21 24.67 15.01 26.36Z" class="cls-3"/><path d="M40.26 152.18c.62-4.52 1.75-8.91 3.5-14.49.72-2.29 1.61-4.59 2.65-6.77l.15.07c1.97-.15 6.99-1.52 13.38-4.02l-.12-.33s.12-4.51.32-10.31c.03-1.13.08-2.32.12-3.53.16-4.48.36-9.32.59-13.27.02-.29.03-.56.05-.84.74-9.89 4.34-14.73 8.64-18.2 7.18-6.85 13.7-10.83 15.91-11.53 0 0 5.09.55 7.62 1.64.41.18.74.37.99.57 1.77 1.47 20.77 16.87 22.61 24.01 1.06 4.13 1.81 8.9 2.25 12.18.32 2.41.48 4.02.48 4.02-.06.3-.13.61-.22.93-.52 1.91-1.57 4.03-3.05 6.27-.1.15-.19.29-.3.45-4.85 7.22-13.78 15.67-22.71 22.91-.67.54-1.39 1.07-2.17 1.61-13.64 9.28-43.21 16.9-51.3 18.57 0-3.67.2-6.84.63-9.96Z" class="cls-5"/><path d="m90.92 143.57.1.16c-3.04 5.52-8.32 9.75-13.68 12.83-7.09 4.08-14.3 6.13-16.66 6.46-4.13.59-21.06-.88-21.06-.88 8.08-1.67 37.66-9.28 51.3-18.57Z" class="cls-3"/><path d="M60.89 98.7c-.02.28-.03.55-.05.84-.22 3.95-.42 8.78-.59 13.27-1.1.06-8.18.52-14.29 2.49-4.81 1.54-11.11 11.48-13.56 19.25l-.1-.03s-8.87-5.23-11.97-11.85c17.09-5.16 39.92-24 39.92-24l.64.04Z" class="cls-5"/><path d="M60.25 112.81c-.04 1.21-.09 2.4-.12 3.53h-.17c-5.57 2-10.3 7.8-13.55 14.58a51.621 51.621 0 0 0-2.65 6.77c-1.75 5.58-2.87 9.98-3.5 14.49-1.18-1.07-6.08-5.67-8.29-9.34-1-1.65-.68-4.74.43-8.29 2.45-7.77 8.75-17.71 13.56-19.25 6.11-1.97 13.19-2.43 14.29-2.49Z" class="cls-8"/><path d="M60.13 116.34c-.2 5.8-.32 10.31-.32 10.31l.12.33c-6.39 2.49-11.4 3.87-13.38 4.02l-.15-.07c3.25-6.78 7.98-12.58 13.55-14.59h.17Z" class="cls-8"/><path d="M129.57 55.64c2.21.55 5.59-1.8 5.7-4.46-1.7.78-3.38-1.65-3.38-4.64 0-1-.17-2.15.03-2.99.16-.68.57-1.17 1.51-1.22 2.12-.12 3.76 4.26 3.76 4.26l.45.88s1.77-.55 1.98-2.66c.22-2.09 2.6-10.59 3.06-11.6.51-1.14 1.1-2.1 1.39-2.02.29.07 10.27.41 11.38.29 1.04-.1 1.42 1 2.65 1.31l.26.05s.81-.74-1.62-3.38c-.44-2.76-1.51-9.91-2.54-11.23-1.03-1.32-10.19-8.45-16.05-12.49-5.94-4.08-7.7-5.57-9.42-5.19-3.54 1.77-3.24 6.33-3.24 9.58 1.03 3.82 6.19 6.48 10.9 9.57-.29 3.35-1.29 16.72-2.28 17.49-.83.66-3.07 2.86-3.82 5.97-.16.59-.24 1.22-.26 1.88-.11 4.08-.44 10.6-.44 10.6Z" class="cls-10"/><path d="m137.94 58.37 1.18 1.55s2.35 3.17 6.08 3.8a7.994 7.994 0 0 0 4.3-.47c.55-.21 1.12-.48 1.7-.83.22-.16.46-.34.67-.51a32.16 32.16 0 0 0 3.32-2.89c2.64-2.67 4.27-5.42 4.4-7.94.29-5.75 1.32-12.82-1.51-18.23M143.76 37.9c.52-.15 3.98-.22 5.45.67" class="cls-10"/><path d="M153.93 38.63s3.61-.8 4.49-.29M145.31 43.2s4.59-.64 5.3-.15M155.84 43.64s2.58-.36 3.24-.15M153.85 44.6c0 .66 3.54 5.75 2.87 6.92s-2.58 1.03-3.61 1.03-1.7-.52-1.7-.52M151.35 49.02s-.96 2.51-1.33 2.95M149.5 55.98c-.02.7 4.19.98 4.75.22M129.57 55.64 124.02 58c2.87 7.07 8.91 11.04 11.79 11.12 2.87.07 7.66-3.9 9.35-5.16M124.02 58.01c-.65.19-2.29.73-4.04 1.3-2.22.73-4.58 1.51-5.24 1.72-.88.28-5.58 0-8.32-.14-.89-.05-1.57-.09-1.85-.09-1.1 0-1.83 1.47-2.42 2.58" class="cls-10"/><path d="M106.42 61.03c.88.51 14.22 24.67 15.02 26.36.81 1.7 3.83 15.91 0 20.55l-2.06 3.46s-.16-1.61-.48-4.02c-.44-3.28-1.19-8.06-2.25-12.18-1.84-7.15-20.84-22.54-22.61-24.01-.24-.2-.58-.39-.99-.57-2.54-1.09-7.62-1.64-7.62-1.64-2.22.7-8.73 4.67-15.91 11.53-4.29 3.47-7.9 8.31-8.64 18.2-.02.28-.03.55-.05.84-.22 3.95-.42 8.78-.59 13.27-.04 1.21-.09 2.4-.12 3.53-.2 5.8-.32 10.31-.32 10.31" class="cls-10"/><path d="M101.85 63.6c-1.98.15-6.62 1.32-8.69 6.78M60.25 98.66s-22.83 18.85-39.92 24c3.1 6.63 11.97 11.85 11.97 11.85" class="cls-10"/><path d="M60.39 112.8h-.15c-1.1.06-8.18.52-14.29 2.49-4.81 1.54-11.11 11.48-13.56 19.25-1.12 3.55-1.43 6.64-.43 8.29 2.21 3.67 7.11 8.26 8.29 9.34.16.16.25.23.25.23" class="cls-10"/><path d="M59.95 116.33c-5.57 2.01-10.3 7.81-13.55 14.59a51.621 51.621 0 0 0-2.65 6.77c-1.75 5.58-2.87 9.98-3.5 14.49-.43 3.12-.63 6.29-.63 9.96 8.08-1.67 37.66-9.28 51.3-18.57.78-.54 1.51-1.07 2.17-1.61 8.93-7.23 17.86-15.69 22.71-22.91.11-.16.21-.3.3-.45 1.47-2.24 2.53-4.36 3.05-6.27h0c.09-.32.16-.63.22-.93" class="cls-10"/><path d="M39.63 162.14s16.93 1.47 21.06.88c2.35-.34 9.57-2.39 16.66-6.46 5.36-3.08 10.64-7.31 13.68-12.83M46.55 130.99c1.97-.15 6.99-1.52 13.38-4.02 12.21-4.77 29.42-13.62 39.87-25.81M74.83 82.6l35.52 19.97 8.56 4.81" class="cls-10"/><path d="M95.89 88.49c-.44-.59-9.57-7.22-9.57-7.22l2.28-5.6s13.55 9.73 16.64 14.22c2.92 4.26 5.13 11.15 5.11 12.68 0 .1 0 .16-.03.21M77.35 156.56c6.91 1.45 26.28 1.38 31.36-4.14M96.87 147.12s5.79 3.23 11.91 5.13c1.7.54 3.44.97 5.09 1.19 7.35 1.01 15.39.05 17.95-.96.06-.03.11-.04.16-.07M209.31 99.32c-4.84-9.58-2.98-9.4-8.44-13.96-5.96-4.97-14.25-10.93-19-12.37-1.42-.43-2.67-.8-3.72-1.12-1.04-.31-1.89-.55-2.52-.74-.79-.22-1.64 0-2.22.55l-9.21 8.87M226.22 140.12c8.47-5.7 19.12-12.7 22.15-12.78-3.97-6.29-6.29-7.51-8.95-13.69-2.65-6.19-8.72-12.16-17.45-11.38-8.61.77-11.15-.07-11.15-.07-.56-1.05-1.06-2.01-1.5-2.88" class="cls-10"/><path d="M151.24 153.17c.17.17.38.27.64.27 10.22-.92 28.23-1.13 34.97-6.33 1.29.13 2.54.27 3.74.4 1.94.21 3.76.42 5.48.6 9.54 1 15.85 1.32 20.39-1.48 1.93-1.19 5.58-3.69 9.76-6.52M131.97 152.41c.35-.39.73-.82 1.14-1.28 2.87-3.11 7.35-7.48 10.99-9.76 2.02-1.27 3.79-1.9 4.87-1.32 3.02 1.6.54 11.34 2.24 13.12" class="cls-10"/><path d="M133.75 151.25s14.78.07 17.47 1.92h.02c.03.03.08.05.11.09M131.97 152.64l-.16-.16c-5.1-5.01-15.03-24.45-15.33-27.24-.05-.48-.1-.99-.16-1.49l-.51-4.7" class="cls-10"/><path d="M116.31 123.75h0c.35.16 8.63 3.77 14.51 7.23.98.57 1.99 1.24 3 1.95 5.19 3.63 10.27 8.44 10.27 8.44M155.2 59.02s8.38 3.57 8.89 4.82c.44 1.09-.02 1.65-.09 2.03M160.65 75.08c0-3.46-.21-9.82 1.67-9.71.55.03 1.12.22 1.68.51 1.36.68 2.74 1.9 4.07 2.8 1.88 1.27 5.34 3.01 5.34 3.01" class="cls-10"/><path d="M151.88 61.91c2.49 3.8 5.86 8.75 8.77 13.17 1.32 1.98 2.54 3.86 3.55 5.49 1.28 2.06 2.22 3.7 2.6 4.63 1.32 3.31 3.76 9.78 3.76 9.78M119.98 59.31c2.02 4.18 8.76 14.12 13.95 13.78 3.86-.24 8.51-2.65 12.19-6.04 1.27-1.17 2.42-2.46 3.38-3.81M155.84 125.8h.03c.49-.15 8.4-2.48 9.76-3.89M146.48 67.46c2.98 6.33 16.02 36.15 15.64 41.02 0 .07-.02.13-.03.19-.76 4.14-5.56 16.71-6.23 17.12" class="cls-10"/><path d="M210.81 102.2c-5.42-.04-12.37.17-18.89-.93-6.52-1.11-9.61-4.5-13.7-6.28-2.09-.91-5.02-.72-7.63.41-2.5 1.08-4.71 3.01-5.62 5.65-.69 2-1.29 4.53-1.5 7.44-.27 3.94.19 8.55 2.15 13.41.52 1.28 1.14 2.59 1.89 3.89 6.73-2.1 12.92-7.95 15.24-8.84.5-.19 1.27-.3 2.11-.27 3 .11 6.86 2.1 2.24 9.11-.67-.03-1.38-.04-2.14-.06-5.4-.1-12.6 0-15.8.03-1.04.02-1.65.03-1.65.03" class="cls-10"/><path d="M167.95 103.92c0 1.1 12.22 12.31 16.91 12.76h.09M208.54 133.22c9.38-2.21 29.3-9.86 39.83-5.88M184.95 126.64c3.64 4.26 11.38 7.52 18.79 7.25.93-.03 1.85-.11 2.76-.26.61-.1 1.28-.24 2.02-.42M208.53 133.22h0c1.72.29 3.51.95 5.29 1.77 4.99 2.29 9.81 5.75 12.38 5.13h0" class="cls-10"/><path d="M213.82 134.99s-4.01 6.6-7.65 8.59-10.12 4.53-10.12 4.53M190.58 147.52c5.43-3.05 9.89-6.37 13.16-13.61M169.17 125.8s14.69 20.21 17.68 21.32M178 73.11l.2 19.31.02 2.57" class="cls-10"/><path d="M178 92.54c.06-.03.13-.07.2-.12 3.34-1.99 8.93-10.72 10.85-12.6M119.38 112.4c3.89-.71 9.57-2.29 11.79-1.63.54.16 1.15.42 1.76.74.51.26 1.02.55 1.48.86 1.25.81 2.17 1.66 1.84 1.94-.51.42-1.23.38-1.86.21s-1.18-.48-1.34-.6c-.34-.22-2.54-1.16-3.54-.49M134.37 114.57s1.88 1.42 1.88 2.12-1.77.39-2.38 0c-.41-.26-1.9-.78-2.84-1.09-.46-.15-.79-.25-.82-.25s-.27.03-.55.05c-.46.05-1.04.12-1.04.12" class="cls-10"/><path d="M131.03 115.6s2.67 1.46 3.01 1.85c.33.39.66 2.04-.55 1.6-.22-.08-.47-.18-.74-.3-1.24-.54-2.84-1.38-3.02-1.38-.34 0-1.01.07-1.01.07" class="cls-10"/><path d="M116.31 118.73c2.04 1.5 3.07 3.49 5.8 3.05s4.95-2.04 5.52-2.02c.6.02 1-.15 1-.15s1.81.74 2.71.8c.9.06 1.41.67 1.85.2.42-.44-.35-1.7-.43-1.85-.02 0-.02-.02-.02-.02M134.86 108.45l.87.07 2.21-31.11h-8.21l.44 30.67.94.08 1.95.16 1.8.13z" class="cls-10"/><path d="m133.83 77.41-.77 30.91-.07 3.08M131.33 120.4l-.5 10.59M117.03 62.45c3.97 12.75 11.68 30.32 11.69 34.19.02 3.86-.87 12.59-.87 12.59M134.85 108.67l-.37 3.57M131.08 108.52l.09 2.25M209.31 99.32h0c9.42-2.43 19.28-2.09 23.26-.03 3.97 2.06 7.91 11.07 6.84 14.36M133.83 132.93c1.75-2.61 10.27-3.38 10.27-3.38 3.96-.11 7.49.06 9.27 3.01 1.77 2.95 6.29 12.45 13.47 16.43" class="cls-10"/></g></svg>