<?xml version="1.0" encoding="UTF-8"?>
<svg id="_レイヤー_1" data-name="レイヤー 1" xmlns="http://www.w3.org/2000/svg" viewBox="0 0 266.41 173.67">
  <defs>
    <style>
      .cls-1 {
        fill: #8f7b96;
      }

      .cls-1, .cls-2, .cls-3, .cls-4, .cls-5, .cls-6 {
        stroke-width: 0px;
      }

      .cls-2 {
        fill: #ff662c;
      }

      .cls-3 {
        fill: #fae3ad;
      }

      .cls-7 {
        fill: none;
        stroke: #000;
        stroke-linecap: round;
        stroke-linejoin: round;
      }

      .cls-4 {
        fill: #333;
      }

      .cls-5 {
        fill: #d84e20;
      }

      .cls-6 {
        fill: #eb6625;
      }
    </style>
  </defs>
  <g>
    <path class="cls-6" d="m249.97,129.01s9.96,8.8,15.93,16.93c0,0-5.81,1.49-22.41.99,0,0-8.62-10.17-13.78-15.26h0s12.92-6.32,20.16-6.15l.1,3.49Z"/>
    <path class="cls-6" d="m249.64,117.23l.23,8.3c-7.24-.17-20.16,6.14-20.16,6.14h0c-1.16-1.14-2.15-2.03-2.82-2.49-2.35-1.61-10.22-1.7-18.09-1.62,0,0,8.46-11.83,13.78-11.42,6.96-2.07,20.74-4.4,27.05,1.08Z"/>
    <path class="cls-6" d="m184.38,116.84h0c2.54,3.81,5.55,8.76,5.27,10.34,2.61.24,4.97.37,7.03.43,2.1.05,4.55.04,7.14,0,1.62,0,3.31-.04,4.98-.05,7.87-.08,15.74,0,18.09,1.62.67.46,1.66,1.35,2.82,2.5,5.16,5.09,13.78,15.26,13.78,15.26,0,0,5.81,4.98,7.8,9.79,0,0-12.77,1.33-41.49,3.7-28.72,2.36-39.83-2.04-51.33-5.93-3.66,2.05-7.82,4.26-10.99,5.93-2.94,1.55-5.02,2.61-5.02,2.61,0,0-4.17-7.99-7.4-15.64-.29-.7-.59-1.39-.86-2.09-1.57-3.91-2.76-7.53-2.85-9.66-.19-4.25.59-8.58,1.88-12.01.71-1.92,1.59-3.56,2.54-4.75.56-.7,1.98-1.66,3.95-2.77.13-6.07.64-11.41,1.46-16.13,0,0,20.6-21.61,35.88-26.41h3.49s5.1,6.47,5.1,15.68c0,6.34-2.23,16.32-4.61,22.76,0,0,1.56,2.13,3.34,4.82Z"/>
    <path class="cls-6" d="m209.81,160.42c28.72-2.37,41.49-3.7,41.49-3.7-10.96,9.67-21.78,10.27-51.45,11.21h0c-2.44.07-13.21-.89-24.42-1.98-13.98-1.37-28.65-2.93-28.65-2.93.42-1.53.7-2.61.7-2.61,3.17-1.67,7.33-3.88,10.99-5.93,11.5,3.89,22.61,8.29,51.33,5.93Z"/>
    <path class="cls-6" d="m222.59,116.14c-5.31-.41-13.78,11.42-13.78,11.42-1.68,0-3.36.04-4.98.05h0c-3.93-4.39-8.64-7.06-12.44-8.64,2.86-1.21,19.18-4.04,31.2-2.83Z"/>
    <path class="cls-6" d="m191.38,118.97c3.8,1.58,8.51,4.25,12.44,8.63h0c-2.58.04-5.04.05-7.14,0-2.06-.06-4.42-.19-7.03-.43.28-1.58-2.73-6.52-5.27-10.34.62.11,3.41.65,6.99,2.14Z"/>
    <path class="cls-1" d="m199.85,167.93h0c-.87.03-1.76.06-2.66.09-4.31.66-20.58,5.64-31.37,3.15,0,0,7.12-2.78,9.61-5.21,11.2,1.09,21.98,2.05,24.42,1.97Z"/>
    <path class="cls-2" d="m166.86,62.25c5.47,6.59,10.2,11.33,10.2,11.33-15.28,4.8-35.88,26.41-35.88,26.41,4.82-28.01,20.03-34.01,25.68-37.74Z"/>
    <path class="cls-1" d="m175.43,165.96c-2.5,2.43-9.61,5.21-9.61,5.21,0,0-10.99,2.04-22.57,2,.93-1.02,2.59-6.72,3.54-10.13,0,0,14.67,1.56,28.65,2.93Z"/>
    <path class="cls-6" d="m166.86,55.9s.61,5.72,0,6.35c-5.65,3.73-20.86,9.73-25.68,37.74-.82,4.72-1.34,10.06-1.46,16.13-1.97,1.11-3.39,2.07-3.95,2.77-.95,1.19-1.82,2.83-2.54,4.75l-.26-.1c-.81-5.65-2.67-16.93-.85-24.9s8.8-22.91,12.29-27.56c3.48-4.65,4.9-15.27,4.9-15.27l-.57-.25c.2-.37.39-.76.57-1.15l17.55,1.49Z"/>
    <path class="cls-6" d="m149.31,54.41c-.18.39-.37.78-.57,1.15-6.11,11.62-20.61,15.37-26.81,15.52-6.39.17-10.04-6.81-10.04-6.81l-.41-.31c.52-.67.98-1.25,1.35-1.72l1.75-1.56h0c1.07.59,2.26.88,3.56.77,1.12,3.4,5.1,4.4,8.17,4.07s8.13-4.32,10.46-7.05c2.32-2.74,5.8-7.57,5.69-8.51l6.85,4.45Z"/>
    <path class="cls-6" d="m94.57,88.66c2.2-3.78,4.98-8.04,7.74-12.06,3.47-5.06,6.92-9.74,9.17-12.64l.41.31s3.66,6.97,10.04,6.81c6.19-.16,20.69-3.9,26.81-15.52l.57.25s-1.41,10.62-4.9,15.27c-3.49,4.65-10.46,19.59-12.29,27.56s.04,19.25.85,24.9l.26.1c-1.29,3.43-2.07,7.76-1.88,12.01.09,2.14,1.28,5.75,2.85,9.66h0c-12.2-1.45-25.44-8-25.44-8h-19.29l-8.13-6.64c-14.88,4.63-25.44,7.89-27.22,8.56-2.76-1.19-3.77,4.94-4.32,9.75-.03.22-.06.44-.08.65,2.36,0,7.22,3.35,10.21,6.22,2.94,2.82,4.91,1.66,15.69-.69h0c.2,0,.36-.03.49-.11l-7.57,10.05c-1.7.15-2.82.24-2.82.24h-5.8c-.59,0-1.3-.09-2.1-.24,0,0,0,0-.02,0-.38-.3-6.55-5.17-12.82-13.9-.97-.02-5.1-1.63-10.01-3.81-4.61-2.06-9.91-4.61-13.89-6.85-8.22-4.61-17.76-11.87-17.76-11.87l5.43-2.55-.29-.61c-.31-.74-.31-2.69.66-3.67,1.95-1.95,4.88-4.88,7.8-5.85,5.85-1.95,11.7-4.88,17.55-7.8,5.85-1.95,12.68,0,16.58-3.9,4.88-2.93,7.8-7.8,9.75-13.65,2.87-10.5,14.14-12.34,23.21-13.4.38-.05.76,0,1.11.17l1.05.47,1.59,3.01s4.72,8.44,6.69,7.69l.11.07Z"/>
    <path class="cls-1" d="m147.48,160.42s-.28,1.08-.7,2.61c-.95,3.41-2.61,9.11-3.54,10.13-1.86,0-3.75-.07-5.61-.2,1.67,0,4.83-9.93,4.83-9.93,0,0,2.08-1.06,5.02-2.61Z"/>
    <path class="cls-3" d="m118.14,61.46c-1.3.11-2.49-.18-3.56-.78-1.62-.89-2.99-2.49-4.15-4.52-2.16-3.79-3.57-9.12-4.36-14.2-1.5-9.62,3.73-16.27,6.49-20.61.42-.22.84-.59,1.14-1.04,1.12-1.75,6.85-.25,8.99-.25,9.54-.93,6.64,8.63,7.38,18.43,2.12-.23,4.45-3.62,6.41-1.7.2.64.29,1.35.29,2.04,0,2.48-1.28,4.95-3.97,5.28,3.44,3.42,4.55,4.52,6.91,4.21,0,0,2.61.71,2.74,1.66.12.95-3.36,5.77-5.69,8.51-2.33,2.73-7.39,6.72-10.46,7.05s-7.05-.66-8.17-4.07Zm-5-10.79c4.6,2.67,6.64,2.36,7.36,2.49-3.81-3.79-5.49-5.48-5.18-4.86-1.06-.44-3.43-.44-3.43-.44,0,0-1.55,3.12-2.98,3.42,2.98.2,4.23-.61,4.23-.61Z"/>
    <path class="cls-4" d="m139.72,48.3c-2.36.31-3.47-.79-6.91-4.21,2.69-.32,3.97-2.8,3.97-5.28h1.78c0,1.35,0,2.6.04,3.76,0,.74,1.12,5.72,1.12,5.72Z"/>
    <path class="cls-4" d="m136.36,19.05c2.34,5.88,2.21,13.57,2.2,19.78h-1.78c0-.7-.1-1.4-.29-2.05-1.96-1.92-4.29,1.46-6.41,1.7-.74-9.8,2.16-19.36-7.38-18.43-2.15,0-7.87-1.49-8.99.25-.3.46-.72.82-1.14,1.04-1.15.63-2.28.28-.73-1.54,2.12-2.5,4.11-4.98,2.61-8.09-7.22-1.75-11.08-1.37-14.69-4.49s-4.86-6.72,0-6.72,12.33,1.62,19.42,2.87c7.1,1.24,15.07.37,17.18,4.73,2.12,4.35,3.73,8.08,0,10.95Z"/>
    <path class="cls-6" d="m142.46,163.04s-3.16,9.93-4.83,9.93h-.03c-.56-.04-1.11-.08-1.67-.14,0,0-23.24-1.49-31.37-2.32s-17.59-5.98-19.97-6.31c-1.77-.24-11.23.51-16.05.92l7.57-10.05,13.35-17.75h19.29s13.24,6.54,25.44,8h0c.27.69.57,1.38.86,2.09h0s-9.15,12.81-7.41,13.69c1.75.87,14.82,1.95,14.82,1.95Z"/>
    <path class="cls-5" d="m135.06,147.4c3.23,7.65,7.4,15.64,7.4,15.64,0,0-13.08-1.08-14.82-1.95-1.74-.88,7.41-13.69,7.41-13.69h0Z"/>
    <path class="cls-4" d="m120.5,53.16c-.72-.13-2.76.19-7.36-2.49,0,0-1.25.81-4.23.61,1.43-.3,2.98-3.42,2.98-3.42,0,0,2.37,0,3.43.44-.31-.62,1.37,1.06,5.18,4.86Z"/>
    <path class="cls-6" d="m114.58,60.68h0s-1.75,1.57-1.75,1.57c-.37.47-.83,1.04-1.35,1.72-2.24,2.9-5.69,7.58-9.17,12.64l-4.88-5.52-2.97-3.24c-.53-.7-.55-1.67-.02-2.37,3.22-4.35,8.95-9.87,15.71-9.17l.27-.16c1.16,2.04,2.54,3.64,4.15,4.52Z"/>
    <path class="cls-2" d="m97.44,71.08l4.88,5.52c-2.76,4.02-5.54,8.28-7.74,12.06l-.11-.07c-1.97.75-6.69-7.69-6.69-7.69l-1.59-3.01,8.28-10.04,2.97,3.24Z"/>
    <path class="cls-6" d="m89.46,137.31l-13.35,17.75c-.17.04-.33.07-.49.11h0c-2.5,0-10.32-5.59-15.69-10.39h0c-1.7-1.52-3.15-2.95-4.11-4.12-.63-.76-1.19-1.22-1.7-1.43,1.77-.67,12.34-3.93,27.22-8.56l8.13,6.64Z"/>
    <path class="cls-5" d="m75.62,155.17c-10.78,2.35-12.75,3.51-15.69.69-2.99-2.87-7.85-6.22-10.21-6.22.02-.21.05-.43.08-.65l10.12-4.2h0c5.37,4.8,13.19,10.39,15.69,10.39Z"/>
    <path class="cls-6" d="m54.11,139.23c.51.21,1.06.67,1.7,1.43.96,1.16,2.41,2.59,4.11,4.12l-10.12,4.2c.55-4.81,1.56-10.94,4.32-9.75Z"/>
    <path class="cls-1" d="m44.99,151.21c6.27,8.73,12.44,13.59,12.82,13.9-7.09-1.41-21.71-8.73-31.25-16.15,0,0,7.24.19,8.42-1.56,4.91,2.18,9.05,3.79,10.01,3.81Z"/>
    <path class="cls-6" d="m34.97,147.4c-1.18,1.75-8.42,1.56-8.42,1.56,0,0-2.49-.69-7.47-.03-4.97.66-13.77-13.11-18.59-18.92l2.83-1.33s9.54,7.26,17.76,11.87c3.98,2.23,9.27,4.79,13.89,6.85Z"/>
  </g>
  <g>
    <path class="cls-7" d="m139.72,48.3s-1.12-4.98-1.12-5.72c-.04-1.16-.04-2.42-.04-3.75,0-6.2.14-13.9-2.2-19.78,3.73-2.87,2.12-6.6,0-10.95-2.12-4.36-10.08-3.49-17.18-4.73-7.09-1.25-14.56-2.87-19.42-2.87s-3.61,3.61,0,6.72,7.47,2.74,14.69,4.49c1.49,3.11-.5,5.6-2.61,8.09-1.55,1.82-.42,2.17.73,1.54.42-.22.84-.59,1.14-1.04,1.12-1.75,6.85-.25,8.99-.25,9.54-.93,6.64,8.63,7.38,18.43,2.12-.23,4.45-3.62,6.41-1.7.2.64.29,1.35.29,2.04,0,2.48-1.28,4.95-3.97,5.28,3.44,3.42,4.55,4.52,6.91,4.21Z"/>
    <path class="cls-7" d="m112.56,21.34c-2.76,4.35-8,10.99-6.49,20.61.79,5.08,2.19,10.4,4.36,14.2,1.16,2.04,2.54,3.64,4.15,4.52,1.07.6,2.26.89,3.56.78,6.89-.59,10.76-1.69,10.76-1.69"/>
    <path class="cls-7" d="m107.89,31.67s4.07-.92,5.72-.83"/>
    <path class="cls-7" d="m120.5,30.83s4.24.42,5.15.84"/>
    <line class="cls-7" x1="107.06" y1="37.22" x2="110.75" y2="37.22"/>
    <path class="cls-7" d="m118.14,37.22s5.27.33,5.76.41"/>
    <path class="cls-7" d="m113.62,39.58l-3.29,5.49c-.26.45-.22,1.02.13,1.41.5.56,1.45,1.13,3.16.69"/>
    <path class="cls-7" d="m114.57,44.44c.75.25,1.49,2.9,1.49,2.9"/>
    <path class="cls-7" d="m139.72,48.3s2.61.71,2.74,1.66c.12.95-3.36,5.77-5.69,8.51-2.33,2.73-7.39,6.72-10.46,7.05s-7.05-.66-8.17-4.07"/>
    <path class="cls-7" d="m142.46,49.96l6.85,4.45,17.55,1.49s.61,5.72,0,6.35c5.47,6.59,10.2,11.33,10.2,11.33h3.49s5.1,6.47,5.1,15.68c0,6.34-2.23,16.32-4.61,22.76-1.06,2.92-2.16,5.1-3.1,5.87"/>
    <path class="cls-7" d="m184.39,116.84c2.54,3.81,5.55,8.76,5.27,10.34"/>
    <path class="cls-7" d="m181.04,112.02s1.56,2.13,3.34,4.82"/>
    <path class="cls-7" d="m166.86,62.25c-5.65,3.73-20.86,9.73-25.68,37.74-.82,4.72-1.34,10.06-1.46,16.13v.03"/>
    <path class="cls-7" d="m141.18,99.98s20.6-21.61,35.88-26.41"/>
    <path class="cls-7" d="m111.89,64.27s3.66,6.97,10.04,6.81c6.19-.16,20.69-3.9,26.81-15.52.2-.37.39-.76.57-1.15"/>
    <path class="cls-7" d="m149.31,55.81s-1.41,10.62-4.9,15.27c-3.49,4.65-10.46,19.59-12.29,27.56s.04,19.25.85,24.9"/>
    <path class="cls-7" d="m117.35,75.57s-8.46,8.46-13.12,25.72c-4.64,17.26-4.31,27.39-3.81,28.55s7.47,7.47,7.47,7.47"/>
    <path class="cls-7" d="m59.93,112.02s19.8,2.08,24.67.65"/>
    <path class="cls-7" d="m76.52,92.18s8.41,12.7,11.25,11.65"/>
    <path class="cls-7" d="m114.57,60.69l-1.75,1.56c-.37.47-.83,1.04-1.35,1.72-2.24,2.9-5.69,7.58-9.17,12.64-2.76,4.02-5.54,8.28-7.74,12.06-1.37,2.34-2.5,4.51-3.28,6.32-1.1,2.55-2.32,5.66-3.52,8.85-1.12,2.98-2.22,6.05-3.18,8.83-1.75,5.06-3.03,9.2-3.1,10.2-7.46.5-21.57-5.98-30.2-9.96"/>
    <path class="cls-7" d="m110.16,56.31c-6.76-.7-12.49,4.82-15.71,9.17-.53.7-.51,1.67.02,2.37"/>
    <path class="cls-7" d="m137.63,172.96c1.85.14,3.74.2,5.61.2,11.58.04,22.57-2,22.57-2,10.79,2.49,27.06-2.49,31.37-3.15.91-.03,1.79-.06,2.66-.08,29.67-.95,40.49-1.54,51.45-11.21-1.99-4.81-7.8-9.79-7.8-9.79,16.6.5,22.41-.99,22.41-.99-5.98-8.13-15.93-16.93-15.93-16.93l-.1-3.49-.23-8.3c-6.31-5.48-20.09-3.15-27.05-1.08-12.02-1.21-28.35,1.62-31.2,2.83-.06.03-.12.05-.17.08"/>
    <path class="cls-7" d="m57.83,165.11c.8.16,1.51.24,2.1.24h5.8s1.12-.1,2.82-.24c4.82-.41,14.29-1.16,16.05-.92,2.38.33,11.84,5.48,19.97,6.31s31.37,2.32,31.37,2.32c.56.06,1.11.1,1.67.14"/>
    <path class="cls-7" d="m37.68,112.59l-28.92,13.54-5.43,2.55-2.83,1.33c4.82,5.81,13.61,19.58,18.59,18.92,4.98-.66,7.47.03,7.47.03,9.55,7.42,24.16,14.73,31.25,16.15"/>
    <path class="cls-7" d="m184.27,116.82s.04,0,.12.02h0c.62.11,3.41.65,6.99,2.14,3.8,1.58,8.51,4.25,12.44,8.63"/>
    <path class="cls-7" d="m152.38,118.88c14.61,5.09,27.67,7.41,37.28,8.29,2.61.24,4.97.37,7.03.43,2.1.05,4.55.04,7.14,0,1.62,0,3.31-.04,4.98-.05,7.87-.08,15.74,0,18.09,1.62.67.46,1.66,1.35,2.82,2.5,5.16,5.09,13.78,15.26,13.78,15.26"/>
    <path class="cls-7" d="m229.72,131.67s12.92-6.31,20.16-6.14"/>
    <path class="cls-7" d="m208.81,127.56s8.46-11.83,13.78-11.42"/>
    <path class="cls-7" d="m167.65,102.78c-5.64,2.89-20.58,9.18-27.93,13.33-1.97,1.11-3.39,2.07-3.95,2.77-.95,1.19-1.82,2.83-2.54,4.75-1.29,3.43-2.07,7.76-1.88,12.01.09,2.14,1.28,5.75,2.85,9.66.27.69.57,1.38.86,2.09,3.23,7.65,7.4,15.64,7.4,15.64,0,0,2.08-1.06,5.02-2.61,3.17-1.67,7.33-3.88,10.99-5.93,4.49-2.51,8.2-4.76,8.39-5.4.45-1.66-23.86-14.61-24.4-16.18"/>
    <path class="cls-7" d="m134.19,145.31c-12.2-1.45-25.44-8-25.44-8h-19.29l-8.13-6.64c-14.88,4.63-25.44,7.89-27.22,8.56-.07.03-.13.05-.17.07"/>
    <path class="cls-7" d="m105.81,138s-8.88,18.73-14.69,19.89"/>
    <polyline class="cls-7" points="89.46 137.31 76.11 155.06 68.55 165.11"/>
    <path class="cls-7" d="m75.63,155.17c.2,0,.36-.03.49-.11-.17.04-.33.07-.49.11"/>
    <line class="cls-7" x1="75.63" y1="155.17" x2="75.62" y2="155.17"/>
    <path class="cls-7" d="m59.93,144.78c5.37,4.8,13.19,10.39,15.69,10.39"/>
    <path class="cls-7" d="m75.62,155.17c-10.78,2.35-12.75,3.51-15.69.69-2.99-2.87-7.85-6.22-10.21-6.22.02-.21.05-.43.08-.65.55-4.81,1.56-10.94,4.32-9.75.51.21,1.06.67,1.7,1.43.96,1.16,2.41,2.59,4.11,4.12"/>
    <polyline class="cls-7" points="49.72 149.01 49.79 148.99 59.92 144.78 59.93 144.78"/>
    <path class="cls-7" d="m3.33,128.68s9.54,7.26,17.76,11.87c3.98,2.23,9.27,4.79,13.89,6.85,4.91,2.18,9.05,3.79,10.01,3.81,6.27,8.73,12.44,13.59,12.82,13.9,0,0,.02,0,.02,0"/>
    <path class="cls-7" d="m26.56,148.96s7.24.19,8.42-1.56"/>
    <path class="cls-7" d="m147.48,160.42s-.28,1.08-.7,2.61c-.95,3.41-2.61,9.11-3.54,10.13"/>
    <path class="cls-7" d="m146.78,163.04s14.67,1.56,28.65,2.93c11.2,1.09,21.98,2.05,24.42,1.97"/>
    <path class="cls-7" d="m165.82,171.17s7.12-2.78,9.61-5.21"/>
    <path class="cls-7" d="m158.47,154.5c11.5,3.89,22.61,8.29,51.33,5.93,28.72-2.37,41.49-3.7,41.49-3.7"/>
    <path class="cls-7" d="m135.05,147.4s-9.15,12.81-7.41,13.69c1.75.87,14.82,1.95,14.82,1.95,0,0-3.16,9.93-4.83,9.93h-.03"/>
    <path class="cls-7" d="m94.47,88.59c-1.97.75-6.69-7.69-6.69-7.69l-1.59-3.01,8.28-10.04,2.97,3.24,4.88,5.52"/>
    <path class="cls-7" d="m86.19,77.89l-1.05-.47c-.35-.16-.73-.21-1.11-.17-9.07,1.06-20.34,2.9-23.21,13.4-1.95,5.85-4.88,10.73-9.75,13.65-3.9,3.9-10.73,1.95-16.58,3.9-5.85,2.93-11.7,5.85-17.55,7.8-2.93.98-5.85,3.9-7.8,5.85-.98.98-.98,2.93-.66,3.67"/>
    <path class="cls-7" d="m111.89,47.86s-1.55,3.12-2.98,3.42c2.98.2,4.23-.61,4.23-.61,4.6,2.67,6.64,2.36,7.36,2.49-3.81-3.79-5.49-5.48-5.18-4.86-1.06-.44-3.43-.44-3.43-.44Z"/>
  </g>
</svg>