<svg xmlns="http://www.w3.org/2000/svg" viewBox="0 0 269.64 214.72"><defs><style>.cls-1{stroke-miterlimit:10}.cls-1,.cls-2{fill:none;stroke:#000}.cls-3{fill:#8f7b96}.cls-10,.cls-3,.cls-4,.cls-6,.cls-7,.cls-9{stroke-width:0}.cls-4{fill:#ff662c}.cls-6{fill:#f3edd7}.cls-2{stroke-linecap:round;stroke-linejoin:round}.cls-7{fill:#333}.cls-9{fill:#d84e20}.cls-10{fill:#eb6625}</style></defs><g id="_畳" data-name="畳"><path d="M.24 180.17h3.61v5.01H.24zM269.39 207.67v6.55h-30.37l15.31-8.61c1.03 1.61 3.1 2.71 5.5 2.71s4.61-1.18 5.6-2.87l3.96 2.23ZM269.39 197.14v10.53l-3.96-2.23c.38-.65.59-1.38.59-2.14 0-1.3-.61-2.48-1.61-3.37l4.98-2.8Z" class="cls-6"/><path d="M269.39 185.18v11.96l-4.98 2.8c-1.13-1-2.76-1.64-4.58-1.64s-3.3.58-4.43 1.51l-26.02-14.63h40.01ZM269.39 107.13v5.75H.24v-5.75h269.15zM265.41 180.17h3.98v5.01h-3.98zM266.02 203.31c0 .76-.21 1.49-.59 2.14l-5.4-3.04 4.38-2.47c1 .89 1.61 2.07 1.61 3.37ZM260.03 202.41l5.4 3.04c-1 1.7-3.13 2.87-5.6 2.87s-4.47-1.1-5.5-2.71l5.7-3.2Z" class="cls-6"/><path d="M254.13 180.17h11.27v5.01h-11.27z" class="cls-7"/><path d="m264.41 199.94-4.38 2.47-4.62-2.6c1.13-.93 2.69-1.51 4.43-1.51 1.82 0 3.45.63 4.58 1.64Z" class="cls-6"/><path d="m260.03 202.41-5.7 3.2c-.44-.68-.69-1.47-.69-2.3 0-1.37.68-2.6 1.77-3.5l4.62 2.6Z" class="cls-6"/><path d="m229.38 185.18 26.02 14.63c-1.09.9-1.77 2.13-1.77 3.5 0 .83.25 1.62.69 2.3l-15.31 8.61h-41.37l-15.6-8.77c.38-.65.59-1.38.59-2.14 0-1.3-.61-2.48-1.61-3.36l26.26-14.76h22.09Zm-5.95 18.12c0-2.76-2.24-5.01-5.01-5.01s-5.01 2.24-5.01 5.01 2.24 5.01 5.01 5.01 5.01-2.24 5.01-5.01ZM254.13 185.18h-30.44v-5.01h30.44v5.01z" class="cls-6"/><path d="M212.42 180.17h11.27v5.01h-11.27zM218.43 198.3c2.76 0 5.01 2.24 5.01 5.01s-2.24 5.01-5.01 5.01-5.01-2.24-5.01-5.01 2.24-5.01 5.01-5.01Z" class="cls-7"/><path d="m207.29 185.18-26.26 14.76c-1.13-1.01-2.76-1.65-4.58-1.65s-3.3.58-4.43 1.51L146 185.17h61.29Z" class="cls-6"/><path d="M181.98 185.18v-5.01h30.44v5.01H181.98zM197.66 214.22h-42.02l15.31-8.61c1.03 1.61 3.11 2.71 5.5 2.71s4.61-1.18 5.6-2.87l15.6 8.77ZM182.64 203.31c0 .76-.21 1.49-.59 2.14l-5.4-3.04 4.38-2.46c1 .88 1.61 2.06 1.61 3.36Z" class="cls-6"/><path d="m176.65 202.41 5.4 3.04c-1 1.7-3.13 2.87-5.6 2.87s-4.47-1.1-5.5-2.71l5.7-3.2Z" class="cls-6"/><path d="M170.71 180.17h11.27v5.01h-11.27z" class="cls-7"/><path d="M176.45 198.3c1.82 0 3.45.63 4.58 1.65l-4.38 2.46-4.62-2.6c1.13-.93 2.69-1.51 4.43-1.51Z" class="cls-6"/><path d="m176.65 202.41-5.7 3.2c-.44-.68-.69-1.47-.69-2.3 0-1.37.68-2.6 1.77-3.5l4.62 2.6Z" class="cls-6"/><path d="m146 185.18 26.02 14.63c-1.09.9-1.77 2.13-1.77 3.5 0 .83.25 1.62.69 2.3l-15.31 8.61h-41.37l-15.6-8.77c.38-.65.59-1.38.59-2.14 0-1.3-.61-2.48-1.61-3.36l26.26-14.76h22.09Zm-7 18.12c0-2.76-2.24-5.01-5.01-5.01s-5.01 2.24-5.01 5.01 2.24 5.01 5.01 5.01 5.01-2.24 5.01-5.01ZM170.71 185.18h-30.44v-5.01h30.44v5.01z" class="cls-6"/><path d="M128.99 180.17h11.27v5.01h-11.27zM134 198.3c2.76 0 5.01 2.24 5.01 5.01s-2.24 5.01-5.01 5.01-5.01-2.24-5.01-5.01 2.24-5.01 5.01-5.01Z" class="cls-7"/><path d="m123.91 185.18-26.26 14.76c-1.13-1.01-2.76-1.65-4.58-1.65s-3.3.58-4.43 1.51l-26.02-14.63h61.29Z" class="cls-6"/><path d="M128.99 185.18H98.56v-5.01h30.43v5.01zM114.27 214.22H72.25l15.31-8.61c1.03 1.61 3.1 2.71 5.5 2.71s4.61-1.18 5.6-2.87l15.6 8.77ZM99.26 203.31c0 .76-.21 1.49-.59 2.14l-5.4-3.04 4.38-2.46c1 .88 1.61 2.06 1.61 3.36Z" class="cls-6"/><path d="m93.27 202.41 5.4 3.04c-1 1.7-3.13 2.87-5.6 2.87s-4.47-1.1-5.5-2.71l5.7-3.2Z" class="cls-6"/><path d="M87.28 180.17h11.27v5.01H87.28z" class="cls-7"/><path d="M93.07 198.3c1.82 0 3.45.63 4.58 1.65l-4.38 2.46-4.62-2.6c1.13-.93 2.69-1.51 4.43-1.51Z" class="cls-6"/><path d="m93.27 202.41-5.7 3.2c-.44-.68-.69-1.47-.69-2.3 0-1.37.68-2.6 1.77-3.5l4.62 2.6Z" class="cls-6"/><path d="m62.62 185.18 26.02 14.63c-1.09.9-1.77 2.13-1.77 3.5 0 .83.25 1.62.69 2.3l-15.31 8.61H30.7l-15.6-8.77c.38-.65.59-1.38.59-2.14 0-1.3-.61-2.48-1.61-3.36l26.26-14.76h22.28Zm-8.5 18.12c0-2.76-2.24-5.01-5.01-5.01s-5.01 2.24-5.01 5.01 2.24 5.01 5.01 5.01 5.01-2.24 5.01-5.01ZM87.28 185.18H56.84v-5.01h30.44v5.01z" class="cls-6"/><path d="M45.57 180.17h11.27v5.01H45.57zM49.11 198.3c2.76 0 5.01 2.24 5.01 5.01s-2.24 5.01-5.01 5.01-5.01-2.24-5.01-5.01 2.24-5.01 5.01-5.01Z" class="cls-7"/><path d="M45.57 185.18H15.13v-5.01h30.44v5.01zM30.7 214.22H.24v-6.5l3.75-2.1c1.03 1.61 3.11 2.71 5.5 2.71s4.61-1.18 5.6-2.87l15.6 8.77ZM15.68 203.31c0 .76-.21 1.49-.59 2.14l-5.4-3.04 4.38-2.46c1 .88 1.61 2.06 1.61 3.36Z" class="cls-6"/><path d="M3.86 180.17h11.27v5.01H3.86z" class="cls-7"/><path d="m9.69 202.41 5.4 3.04c-1 1.7-3.13 2.87-5.6 2.87s-4.47-1.1-5.5-2.71l5.7-3.2Z" class="cls-6"/><path d="M9.49 198.3c1.82 0 3.45.63 4.58 1.65l-4.38 2.46-4.62-2.6c1.13-.93 2.69-1.51 4.43-1.51Z" class="cls-6"/><path d="m9.69 202.41-5.7 3.2c-.44-.68-.69-1.47-.69-2.3 0-1.37.68-2.6 1.77-3.5l4.62 2.6Z" class="cls-6"/><path d="m.24 197.1 4.82 2.71c-1.09.9-1.77 2.13-1.77 3.5 0 .83.25 1.62.69 2.3l-3.75 2.1v-10.62Z" class="cls-6"/><path d="M212.42 180.17H.24v-67.29h269.15v67.29h-56.97z" style="fill:#d2d296;stroke-width:0"/><path d="M.24 185.18h40.09l-26.26 14.76c-1.13-1.01-2.76-1.65-4.58-1.65s-3.3.58-4.43 1.51l-4.82-2.71v-11.92Z" class="cls-6"/><path d="M269.39 214.22H.24M.24 107.13h269.15M.24 112.88h269.15M265.41 180.17h3.98M223.69 180.17h30.44M181.98 180.17h30.44M140.27 180.17h30.44M98.56 180.17h30.43M56.84 180.17h30.44M15.13 180.17h30.44M.24 180.17h3.62M265.41 185.18h3.98M223.69 185.18h30.44M181.98 185.18H212.42M140.27 185.18h30.44M98.56 185.18h30.43M56.84 185.18h30.44M15.13 185.18h30.44M.24 185.18h3.62M72.26 214.22l15.31-8.61 5.7-3.2 4.38-2.46 26.26-14.77" class="cls-1"/><path d="m114.27 214.22-15.6-8.77-5.4-3.04-4.63-2.6-26.02-14.63M139 203.31c0 2.77-2.24 5.01-5.01 5.01s-5.01-2.24-5.01-5.01 2.24-5.01 5.01-5.01 5.01 2.24 5.01 5.01ZM223.44 203.31c0 2.77-2.24 5.01-5.01 5.01s-5.01-2.24-5.01-5.01 2.24-5.01 5.01-5.01 5.01 2.24 5.01 5.01Z" class="cls-1"/><path d="M97.65 199.95c1 .88 1.61 2.06 1.61 3.36 0 .76-.21 1.49-.59 2.14-1 1.7-3.13 2.87-5.6 2.87s-4.47-1.1-5.5-2.71c-.44-.68-.69-1.47-.69-2.3 0-1.37.68-2.6 1.77-3.5 1.13-.93 2.69-1.51 4.43-1.51 1.82 0 3.45.63 4.58 1.65ZM.24 207.72l3.75-2.11 5.7-3.2 4.38-2.46 26.27-14.77" class="cls-1"/><path d="m30.7 214.22-15.6-8.77-5.41-3.04-4.62-2.6-4.83-2.71" class="cls-1"/><path d="M14.07 199.95c1 .88 1.61 2.06 1.61 3.36 0 .76-.21 1.49-.59 2.14-1 1.7-3.13 2.87-5.6 2.87s-4.47-1.1-5.5-2.71c-.44-.68-.69-1.47-.69-2.3 0-1.37.68-2.6 1.77-3.5 1.13-.93 2.69-1.51 4.43-1.51 1.82 0 3.45.63 4.58 1.65ZM155.64 214.22l15.31-8.61 5.7-3.2 4.38-2.46 26.26-14.77" class="cls-1"/><path d="m197.66 214.22-15.61-8.77-5.4-3.04-4.63-2.6L146 185.18" class="cls-1"/><path d="M181.03 199.95c1 .88 1.61 2.06 1.61 3.36 0 .76-.21 1.49-.59 2.14-1 1.7-3.13 2.87-5.6 2.87s-4.47-1.1-5.5-2.71c-.44-.68-.69-1.47-.69-2.3 0-1.37.68-2.6 1.77-3.5 1.13-.93 2.69-1.51 4.43-1.51 1.82 0 3.45.63 4.58 1.65ZM239.02 214.22l15.31-8.61 5.7-3.2 4.38-2.47 4.98-2.8" class="cls-1"/><path d="m269.39 207.67-3.96-2.22-5.4-3.04-4.62-2.6-26.03-14.63" class="cls-1"/><path d="M264.41 199.94c1 .89 1.61 2.07 1.61 3.37 0 .76-.21 1.49-.59 2.14-1 1.7-3.13 2.87-5.6 2.87s-4.47-1.1-5.5-2.71c-.44-.68-.69-1.47-.69-2.3 0-1.37.68-2.6 1.77-3.5 1.13-.93 2.69-1.51 4.43-1.51 1.82 0 3.45.63 4.58 1.64ZM54.12 203.31c0 2.77-2.24 5.01-5.01 5.01s-5.01-2.24-5.01-5.01 2.24-5.01 5.01-5.01 5.01 2.24 5.01 5.01ZM3.86 180.17h11.27v5.01H3.86zM45.57 180.17h11.27v5.01H45.57zM87.28 180.17h11.27v5.01H87.28zM128.99 180.17h11.27v5.01h-11.27zM170.71 180.17h11.27v5.01h-11.27zM212.42 180.17h11.27v5.01h-11.27zM254.13 180.17h11.27v5.01h-11.27z" class="cls-1"/></g><g id="_レイヤー_2" data-name="レイヤー 2"><path d="M237.69 114.62s8.85 7.81 14.15 15.03c0 0-5.15 1.32-19.9.88 0 0-7.66-9.03-12.24-13.55 0 0 11.47-5.6 17.9-5.46l.09 3.09Z" class="cls-10"/><path d="m237.39 104.15.21 7.38c-6.43-.15-17.9 5.46-17.9 5.46-1.03-1.02-1.91-1.81-2.5-2.22-2.09-1.42-9.07-1.5-16.06-1.44 0 0 7.52-10.5 12.24-10.13 6.19-1.84 18.42-3.91 24.02.95Z" class="cls-10"/><path d="M139.78 103.18c.11-5.39.57-10.14 1.3-14.33 0 0 18.29-19.19 31.87-23.45h3.09s4.54 5.75 4.54 13.92c0 5.63-1.99 14.5-4.1 20.22s1.39 1.89 2.98 4.28c2.25 3.38 4.93 7.77 4.67 9.18 2.32.21 4.42.32 6.24.37 1.87.05 4.04.03 6.34 0 1.45 0 2.94-.03 4.43-.04 7-.06 13.98.02 16.06 1.44.6.41 1.47 1.2 2.5 2.22 4.58 4.52 12.24 13.55 12.24 13.55s5.16 4.43 6.93 8.7c0 0-11.34 1.18-36.85 3.27-25.49 2.1-35.37-1.8-45.58-5.26-3.25 1.82-6.94 3.79-9.76 5.26-2.62 1.38-4.46 2.32-4.46 2.32s-3.71-7.1-6.57-13.89c-.27-.61-.52-1.24-.76-1.84-1.39-3.46-2.45-6.68-2.53-8.58-.16-3.78.53-7.63 1.67-10.68.63-1.7 1.41-3.15 2.26-4.21.49-.62 1.76-1.47 3.5-2.46Z" class="cls-10"/><path d="M192.88 149.19c-2.64 0-11.83-.82-21.38-1.76-12.42-1.2-25.45-2.6-25.45-2.6.37-1.36.62-2.32.62-2.32 2.81-1.47 6.51-3.45 9.76-5.26 10.21 3.46 20.08 7.36 45.58 5.26 25.5-2.1 36.85-3.27 36.85-3.27-9.77 8.62-19.4 9.12-45.98 9.96ZM213.37 103.2c-4.72-.37-12.24 10.13-12.24 10.13-1.49 0-2.98.03-4.43.04-3.5-3.89-7.67-6.26-11.05-7.66 2.54-1.07 17.03-3.59 27.71-2.51Z" class="cls-10"/><path d="M185.66 105.71c3.38 1.4 7.55 3.78 11.05 7.66-2.29.03-4.47.05-6.34 0a99.31 99.31 0 0 1-6.24-.37c.26-1.41-2.42-5.8-4.67-9.18.55.1 3.02.57 6.2 1.9Z" class="cls-10"/><path d="M192.88 149.19c-.68.03-1.36.04-2.06.07-3.84.59-18.28 5.01-27.86 2.8 0 0 6.31-2.47 8.54-4.62 9.55.94 18.74 1.76 21.38 1.76Z" class="cls-3"/><path d="M163.88 55.33c4.87 5.86 9.07 10.06 9.07 10.06-13.58 4.26-31.87 23.45-31.87 23.45 4.28-24.87 17.79-30.2 22.8-33.51Z" class="cls-4"/><path d="M171.5 147.43c-2.23 2.16-8.54 4.62-8.54 4.62s-9.76 1.81-20.05 1.78c.81-.92 2.29-5.98 3.13-9.01 0 0 13.03 1.39 25.45 2.6Z" class="cls-3"/><path d="M163.88 49.69s.55 5.08 0 5.64c-5.01 3.31-18.52 8.64-22.8 33.51-.73 4.19-1.19 8.95-1.3 14.33-1.74.99-3 1.84-3.5 2.46-.85 1.06-1.63 2.51-2.26 4.21l-.23-.09c-.72-5.01-2.37-15.03-.75-22.11s7.81-20.34 10.91-24.47c3.09-4.12 4.35-13.55 4.35-13.55l-.5-.23c.17-.33.35-.68.5-1.02l15.59 1.32ZM148.29 48.37c-.16.35-.33.69-.5 1.02-5.42 10.32-18.31 13.65-23.8 13.79-5.67.15-8.92-6.04-8.92-6.04l-.36-.29c.46-.6.87-1.11 1.2-1.52l1.55-1.39c.95.53 2.01.78 3.16.68 1 3.02 4.54 3.91 7.26 3.61 2.73-.29 7.23-3.83 9.29-6.26s5.16-6.71 5.05-7.55l6.08 3.94Z" class="cls-10"/><path d="M111.52 121.99H95.16l-7.22-5.9c-13.24 4.13-22.63 7.01-24.19 7.6-2.44-1.03-3.34 4.41-3.83 8.66-.03.2-.05.39-.07.58 2.1 0 6.42 2.99 9.07 5.52 2.61 2.5 4.36 1.47 13.91-.61.19 0 .35-.03.47-.1l-6.72 8.93-2.49.23h-5.16c-.52 0-1.15-.08-1.86-.22s-5.65-4.36-11.4-12.35c-.86-.02-4.53-1.45-8.89-3.39-4.1-1.82-8.8-4.1-12.33-6.08-7.3-4.09-15.77-10.54-15.77-10.54l4.81-2.25-.25-.55c-.28-.67-.28-2.4.59-3.26 1.73-1.73 4.33-4.33 6.93-5.2 5.2-1.73 10.39-4.33 15.59-6.93 5.2-1.73 11.26 0 14.72-3.46 4.33-2.6 6.93-6.93 8.66-12.12 2.55-9.33 12.56-10.95 20.61-11.9.34-.04.68 0 .99.15l.94.42 1.4 2.68s4.19 7.5 5.94 6.84l.1.05c1.96-3.36 4.43-7.14 6.87-10.71 3.09-4.49 6.16-8.65 8.15-11.22l.36.29s3.25 6.18 8.92 6.04c5.5-.14 18.38-3.46 23.8-13.79l.5.23s-1.26 9.43-4.35 13.55c-3.1 4.13-9.29 17.4-10.91 24.47s.03 17.1.75 22.11l.23.09c-1.14 3.05-1.84 6.89-1.67 10.68.08 1.91 1.13 5.12 2.53 8.58-10.84-1.3-22.6-7.11-22.6-7.11h-.76Z" class="cls-10"/><path d="M146.67 142.52s-.25.96-.62 2.32c-.84 3.03-2.32 8.09-3.13 9-1.66 0-3.33-.05-4.99-.17 1.49 0 4.29-8.82 4.29-8.82s1.84-.94 4.46-2.32Z" class="cls-3"/><path d="M120.62 54.63a5.42 5.42 0 0 1-3.16-.69c-1.44-.79-2.66-2.21-3.68-4.01-1.93-3.38-3.18-8.1-3.88-12.62-1.32-8.55 3.32-14.44 5.77-18.3.37-.21.74-.52 1.01-.94 1-1.55 6.08-.22 7.98-.22 8.47-.83 5.9 7.66 6.56 16.37 1.87-.22 3.94-3.21 5.68-1.51.17.57.26 1.19.26 1.8 0 2.21-1.13 4.4-3.52 4.68 3.05 3.04 4.04 4.02 6.13 3.74 0 0 2.32.64 2.43 1.48s-2.99 5.12-5.05 7.55-6.56 5.97-9.29 6.26c-2.72.29-6.26-.59-7.26-3.61Zm-4.44-9.58c4.1 2.37 5.9 2.1 6.55 2.21-3.39-3.37-4.88-4.86-4.61-4.31-.94-.38-3.05-.38-3.05-.38s-1.38 2.76-2.65 3.04c2.66.16 3.76-.55 3.76-.55Z" style="fill:#fae3ad;stroke-width:0"/><path d="M139.78 42.95c-2.1.28-3.08-.7-6.13-3.74 2.38-.29 3.52-2.48 3.52-4.68h1.58c0 1.19 0 2.31.03 3.34 0 .67 1 5.08 1 5.08ZM136.79 16.97c2.09 5.22 1.97 12.05 1.96 17.56h-1.58c0-.62-.09-1.24-.26-1.81-1.74-1.71-3.81 1.29-5.68 1.51-.67-8.71 1.91-17.2-6.56-16.37-1.91 0-6.99-1.33-7.98.22-.27.42-.64.73-1.01.93-1.02.57-2.03.25-.65-1.37 1.88-2.21 3.65-4.43 2.32-7.19-6.41-1.55-9.84-1.21-13.04-3.97-3.2-2.77-4.31-5.98 0-5.98s10.95 1.44 17.25 2.55c6.3 1.11 13.37.33 15.25 4.2s3.32 7.19 0 9.72Z" class="cls-7"/><path d="M142.21 144.84s-2.8 8.82-4.29 8.82h-.03c-.49-.03-.99-.07-1.47-.12 0 0-20.64-1.33-27.86-2.07s-15.63-5.3-17.74-5.59c-1.57-.23-9.98.45-14.25.81s6.72-8.94 6.72-8.94l11.86-15.76h17.12s11.76 5.81 22.6 7.11c.24.61.49 1.23.76 1.84 0 0-8.13 11.39-6.58 12.16 1.54.78 13.15 1.73 13.15 1.73Z" class="cls-10"/><path d="M135.64 130.95c2.87 6.79 6.57 13.89 6.57 13.89s-11.61-.95-13.15-1.73c-1.55-.77 6.58-12.16 6.58-12.16Z" class="cls-9"/><path d="M122.72 47.26c-.65-.1-2.45.16-6.55-2.21 0 0-1.1.72-3.76.55 1.27-.28 2.65-3.04 2.65-3.04s2.1 0 3.05.38c-.28-.55 1.21.94 4.61 4.31Z" class="cls-7"/><path d="m117.46 53.94-1.55 1.39c-.33.42-.74.93-1.2 1.52-1.99 2.57-5.06 6.73-8.15 11.22l-4.32-4.9-2.64-2.87a1.77 1.77 0 0 1-.02-2.11c2.86-3.85 7.95-8.75 13.96-8.13l.24-.14c1.02 1.8 2.24 3.22 3.68 4.01Z" class="cls-10"/><path d="M106.55 68.08c-2.44 3.57-4.91 7.35-6.87 10.71l-.1-.05c-1.75.66-5.94-6.84-5.94-6.84l-1.4-2.68 7.34-8.91 2.64 2.87 4.32 4.9Z" class="cls-4"/><path d="M95.16 121.99 83.3 137.75l-.47.1c-2.24-.03-9.16-4.99-13.91-9.23-1.51-1.34-2.8-2.62-3.65-3.65-.57-.68-1.07-1.09-1.52-1.28 1.56-.59 10.95-3.47 24.19-7.6l7.22 5.9Z" class="cls-10"/><path d="M82.83 137.86c-9.54 2.08-11.3 3.11-13.91.61-2.65-2.54-6.96-5.52-9.07-5.52.02-.19.04-.38.07-.58l9-3.73c4.75 4.24 11.66 9.2 13.91 9.23Z" class="cls-9"/><path d="M63.75 123.7c.45.19.95.6 1.52 1.28.85 1.02 2.14 2.3 3.65 3.65l-9 3.73c.48-4.25 1.39-9.69 3.83-8.66Z" class="cls-10"/><path d="M67.06 146.68c-6.3-1.24-19.28-7.74-27.76-14.35 0 0 6.42.16 7.46-1.39 4.36 1.95 8.04 3.38 8.89 3.39 5.75 7.99 11.4 12.34 11.4 12.34Z" class="cls-3"/><path d="M46.76 130.95c-1.05 1.55-7.46 1.39-7.46 1.39s-2.22-.61-6.63-.02c-4.43.59-12.24-11.65-16.51-16.81l2.51-1.18s8.47 6.45 15.77 10.54c3.53 1.98 8.24 4.26 12.33 6.08Z" class="cls-10"/><path d="M139.78 42.95s-1-4.42-1-5.08c-.03-1.03-.03-2.16-.03-3.33.02-5.51.13-12.34-1.96-17.56 3.32-2.54 1.88-5.85 0-9.72s-8.95-3.09-15.25-4.2C115.24 1.95 108.6.51 104.29.51s-3.2 3.2 0 5.98c3.2 2.76 6.63 2.42 13.04 3.97 1.33 2.76-.44 4.98-2.32 7.19-1.38 1.62-.37 1.94.65 1.37.37-.2.74-.51 1.01-.93 1-1.55 6.08-.22 7.98-.22 8.47-.83 5.9 7.66 6.56 16.37 1.87-.22 3.94-3.21 5.68-1.51.17.57.26 1.19.26 1.8 0 2.21-1.13 4.4-3.52 4.68 3.05 3.04 4.04 4.02 6.13 3.74Z" class="cls-2"/><path d="M115.66 19.01c-2.45 3.85-7.09 9.75-5.77 18.3.7 4.52 1.95 9.24 3.88 12.62 1.02 1.8 2.24 3.22 3.68 4.01.95.54 2.01.79 3.16.69 6.12-.51 9.56-1.49 9.56-1.49" class="cls-2"/><path d="M111.52 28.18s3.61-.81 5.08-.74M122.72 27.43s3.76.37 4.56.74M110.78 33.11h3.28M120.62 33.11s4.68.29 5.13.37M116.6 35.22l-2.91 4.87c-.24.4-.21.91.1 1.26.44.49 1.29 1 2.81.62M117.45 39.53c.67.22 1.32 2.56 1.32 2.56M139.78 42.95s2.32.64 2.43 1.48-2.99 5.12-5.05 7.55-6.56 5.97-9.29 6.26c-2.72.29-6.26-.59-7.26-3.61" class="cls-2"/><path d="m142.21 44.43 6.08 3.94 15.59 1.32s.55 5.08 0 5.64c4.87 5.86 9.07 10.06 9.07 10.06h3.09s4.54 5.75 4.54 13.92c0 5.63-1.99 14.5-4.1 20.22-.95 2.58-1.93 4.52-2.75 5.21M176.48 99.54s1.39 1.89 2.98 4.28c2.25 3.38 4.93 7.77 4.67 9.18" class="cls-2"/><path d="M163.88 55.33c-5.01 3.31-18.52 8.64-22.8 33.51-.73 4.19-1.19 8.95-1.3 14.33v.03" class="cls-2"/><path d="M141.08 88.84s18.29-19.19 31.87-23.45M115.07 57.14s3.25 6.18 8.92 6.04c5.5-.14 18.38-3.46 23.8-13.79.17-.33.35-.68.5-1.02M148.29 49.63s-1.26 9.43-4.35 13.55c-3.1 4.13-9.29 17.4-10.91 24.47s.03 17.1.75 22.11M119.92 67.16S112.4 74.68 108.28 90c-4.13 15.34-3.84 24.32-3.39 25.36s6.63 6.63 6.63 6.63M68.92 99.54s17.58 1.84 21.91.57M83.66 81.93s7.46 11.27 9.99 10.34" class="cls-2"/><path d="m117.45 53.95-1.55 1.39c-.33.42-.74.93-1.2 1.52-1.99 2.57-5.06 6.73-8.15 11.22-2.44 3.57-4.91 7.35-6.87 10.71-1.21 2.09-2.22 4.01-2.91 5.62-.98 2.27-2.06 5.02-3.13 7.85-1 2.65-1.97 5.38-2.82 7.85-1.55 4.49-2.68 8.17-2.75 9.06-6.63.44-19.16-5.31-26.83-8.84M113.53 50.07c-6.01-.62-11.1 4.28-13.96 8.13-.46.63-.45 1.49.02 2.11M137.93 153.66c1.65.12 3.33.17 4.99.18 10.29.03 20.05-1.78 20.05-1.78 9.58 2.22 24.02-2.21 27.86-2.8.7-.03 1.39-.04 2.06-.06 26.58-.84 36.21-1.33 45.98-9.96-1.77-4.28-6.93-8.7-6.93-8.7 14.75.44 19.9-.88 19.9-.88-5.3-7.22-14.15-15.03-14.15-15.03l-.09-3.09-.21-7.38c-5.6-4.86-17.83-2.8-24.02-.95-10.68-1.08-25.17 1.44-27.71 2.51-.05.03-.1.04-.15.07M49.17 100.05l-25.69 12.03-4.81 2.25-2.51 1.18c4.28 5.16 12.09 17.4 16.51 16.81 4.42-.6 6.63.02 6.63.02 8.48 6.61 21.47 13.11 27.76 14.36.71.14 1.34.22 1.86.22h5.16s.99-.09 2.49-.22c4.27-.36 12.69-1.04 14.25-.81 2.11.29 10.52 4.86 17.74 5.59s27.86 2.07 27.86 2.07c.48.05.98.09 1.47.12" class="cls-2"/><path d="M179.35 103.8s.04 0 .11.02c.55.1 3.02.57 6.2 1.9 3.38 1.4 7.55 3.78 11.05 7.66" class="cls-2"/><path d="M151.02 105.64c12.97 4.52 24.58 6.58 33.11 7.36 2.32.21 4.42.32 6.24.37 1.87.05 4.04.03 6.34 0 1.45 0 2.94-.03 4.43-.04 7-.06 13.98.02 16.06 1.44.6.41 1.47 1.2 2.5 2.22 4.58 4.52 12.24 13.55 12.24 13.55" class="cls-2"/><path d="M219.7 116.99s11.47-5.6 17.9-5.46M201.13 113.33s7.52-10.5 12.24-10.13M156.44 137.25c3.98-2.23 7.27-4.22 7.44-4.79.41-1.48-21.19-12.97-21.67-14.37" class="cls-2"/><path d="M164.58 91.34c-5.01 2.55-18.27 8.15-24.8 11.84-1.74.99-3 1.84-3.5 2.46-.85 1.06-1.63 2.51-2.26 4.21-1.14 3.05-1.84 6.89-1.67 10.68.08 1.91 1.13 5.12 2.53 8.58.24.61.49 1.23.76 1.84 2.87 6.79 6.57 13.89 6.57 13.89s1.84-.94 4.46-2.32c2.81-1.47 6.51-3.45 9.76-5.26" class="cls-2"/><path d="M134.88 129.1c-10.84-1.3-22.6-7.11-22.6-7.11H95.16l-7.22-5.9c-13.24 4.13-22.63 7.01-24.19 7.6-.06.03-.1.04-.14.06" class="cls-2"/><path d="M109.66 122.6s-7.89 16.64-13.04 17.67M95.16 121.99 83.3 137.75l-6.72 8.93" class="cls-2"/><path d="M82.83 137.86c-9.54 2.08-11.3 3.11-13.91.61-2.65-2.54-6.96-5.52-9.07-5.52.02-.19.04-.38.07-.58.48-4.25 1.39-9.69 3.83-8.66.45.19.95.6 1.52 1.28.85 1.02 2.14 2.3 3.65 3.65 4.75 4.24 11.66 9.2 13.91 9.23.19 0 .35-.03.47-.1l-.47.1Z" class="cls-2"/><path d="m59.85 132.38.07-.02 9-3.73M18.66 114.33s8.47 6.45 15.77 10.54c3.53 1.98 8.24 4.26 12.33 6.08 4.36 1.95 8.04 3.38 8.89 3.39 5.75 7.99 11.4 12.34 11.4 12.34" class="cls-2"/><path d="M39.3 132.33s6.42.16 7.46-1.39M146.67 142.52s-.25.96-.62 2.32c-.84 3.03-2.32 8.09-3.13 9M146.05 144.84s13.03 1.39 25.45 2.6c9.55.94 18.74 1.76 21.38 1.76h.29" class="cls-2"/><path d="M162.96 152.06s6.31-2.47 8.54-4.62M156.43 137.25h0c10.21 3.46 20.08 7.36 45.58 5.26 25.5-2.1 36.85-3.27 36.85-3.27M135.64 130.95s-8.13 11.39-6.58 12.16c1.54.78 13.15 1.73 13.15 1.73s-2.8 8.82-4.29 8.82h-.03M99.59 78.74c-1.75.66-5.94-6.84-5.94-6.84l-1.4-2.68 7.34-8.91 2.64 2.87 4.32 4.9h0M92.25 69.22l-.94-.42c-.31-.14-.65-.19-.99-.15-8.04.94-18.06 2.57-20.61 11.9-1.73 5.2-4.33 9.53-8.66 12.12-3.46 3.46-9.53 1.73-14.72 3.46-5.2 2.6-10.39 5.2-15.59 6.93-2.6.87-5.2 3.46-6.93 5.2-.87.87-.87 2.6-.59 3.26M115.07 42.57s-1.38 2.76-2.65 3.04c2.66.16 3.76-.55 3.76-.55 4.1 2.37 5.9 2.1 6.55 2.21-3.39-3.37-4.88-4.86-4.61-4.31-.94-.38-3.05-.38-3.05-.38Z" class="cls-2"/></g></svg>