<?xml version="1.0" encoding="UTF-8"?>
<svg id="_レイヤー_1" data-name="レイヤー 1" xmlns="http://www.w3.org/2000/svg" viewBox="0 0 269.29 184.48">
  <defs>
    <style>
      .cls-1 {
        fill: #9bcad0;
      }

      .cls-1, .cls-2, .cls-3, .cls-4, .cls-5, .cls-6, .cls-7, .cls-8 {
        stroke-width: 0px;
      }

      .cls-2 {
        fill: #ff5430;
      }

      .cls-3 {
        fill: #5f6058;
      }

      .cls-9 {
        fill: none;
        stroke: #000;
        stroke-linecap: round;
        stroke-linejoin: round;
      }

      .cls-4 {
        fill: #333;
      }

      .cls-5 {
        fill: #cfaa75;
      }

      .cls-6 {
        fill: #daab05;
      }

      .cls-7 {
        fill: #f2fae3;
      }

      .cls-8 {
        fill: #ffd69e;
      }
    </style>
  </defs>
  <g>
    <path class="cls-7" d="m268.79,117.13s-11.5,21.7-15.44,25.15-11.84,13.45-14.21,14.51-3.95,3.28-9.87,3.28-25.79-.65-26.84-.65-3.15-1.05-2.6-1.71h0c3.09-3.47,4.05-6.42,4.05-9.17,0-.56-.16-1.49-.42-2.68l2.35-.65s8.95-4.21,11.08-5.85c2.13-1.64,12.78-9.5,14.1-10.91,1.32-1.4,1.23-2.19.87-2.98-.26-.59-.77-.88-1.31-.88l.45-2.67c.39.07.82.11,1.29.05,2.63-.26,36.5-4.83,36.5-4.83Z"/>
    <path class="cls-3" d="m194.46,110.47c5.26-2.65,14.77-8.14,23.54-13.3,10.06-5.92,19.16-11.37,19.82-11.57,1.32-.4,3.95-1.33,3.42,0-.53,1.31-.93,3.81-4.35,6.04-1.73,1.13-9.8,6.39-17.73,11.52-7.82,5.07-15.51,10-16.75,10.73-1.63.95-5.49,2.51-7.98,3.48-1.33.52-2.25.86-2.25.86.12-2.52.22-4.89.34-6.83.56-.25,1.2-.57,1.94-.94Z"/>
    <path class="cls-3" d="m231.85,125.47c.36.79.44,1.58-.87,2.98-1.32,1.41-11.97,9.26-14.1,10.91-2.14,1.64-11.08,5.85-11.08,5.85l-2.35.65c-.39-1.72-1.02-3.99-1.77-6.51,0,0,17.45-7.92,19.47-9.15,2.01-1.23,8.16-5.26,8.85-5.53.18-.06.36-.09.54-.09.54,0,1.04.29,1.31.88Z"/>
    <path class="cls-7" d="m231,121.91l-.45,2.67c-.18,0-.36.03-.54.09-.69.26-6.84,4.29-8.85,5.53-2.02,1.23-19.47,9.15-19.47,9.15-2.78-9.3-7.2-21.86-7.2-21.86l-.04-.12c2.48-.98,6.35-2.54,7.98-3.48,1.24-.73,8.93-5.65,16.75-10.73,0,0,8.65,15.91,8.92,16.52.21.51,1.14,1.89,2.92,2.23Z"/>
    <path class="cls-7" d="m216.75,92.57l1.25,4.6c-8.77,5.16-18.27,10.64-23.54,13.3l-.86-10.32c.18-1.68.37-3.56.57-5.51l.32.03s15.97-4.11,17.55-4.55c1.58-.45,4.72,2.44,4.72,2.44Z"/>
    <path class="cls-1" d="m192.19,118.24s.93-.35,2.25-.86l.04.12s4.42,12.57,7.2,21.86c.75,2.52,1.38,4.79,1.77,6.51.26,1.19.42,2.13.42,2.68,0,2.75-.96,5.69-4.05,9.16h0c-1.85,2.07-4.44,4.31-8.05,6.8-3.32,2.29-5.62,3.86-7.52,5.02l-.91-1.47c.68,0,.79-.75-.53-3.37-2.81-5.61-13.16-22.28-13.86-36.32-.69-14.03-.38-50.88,2.26-60.79,2.25-8.44,4.44-17.74,5.57-22.05.2-.76.37-1.36.51-1.78.31-.97.27-2.13.03-3.13-.21-.88-.6-1.65-1.08-2.05,4.86,2.43,14.47,11.91,16.58,15.72,2.11,3.82,3.95,11.19,3.28,19.87-.37,4.85-1.19,13.25-1.94,20.5-.2,1.95-.39,3.82-.57,5.51-.35,3.26-.62,5.86-.78,7.16-.09.79-.2,2.24-.29,4.09-.12,1.94-.22,4.32-.34,6.83Z"/>
    <path class="cls-7" d="m183.35,168.05l.91,1.47c-3.61,2.2-5.73,2.91-10.56,4.28-7.37,2.11-22.8,1.22-32.27,0-6.45-.84-17.54-.45-23.96-.13,0,0-1.22-7.42-.96-9.35.26-1.94,1.24-5.15,3.81-4.29h.01c6.23,4.19,12.15,7.64,14.93,8.01,5.12.66,10.38-.39,14.76-3.02,4.29-2.58,14.07-10.95,14.51-11.32,6.83,7.08,14.01,12.67,15.5,13.07,1.03.28,2.57,1.26,3.34,1.26Z"/>
    <path class="cls-2" d="m164.51,153.71c-1.54-1.61-3.06-3.29-4.51-5.02-.67-.82-1.13-1.8-1.28-2.84-.06-.33-.08-.66-.07-1,.01-.51.02-1.09.04-1.75.18-7.57.65-24.48,1.32-34.21.54-7.75,3.63-25.64,6.61-41.05,1.95-10.05,3.85-19.04,4.94-23.46l.04-.32c2.27.57,4.64,1.33,4.64,1.33l.55.14c-1.13,4.32-3.32,13.61-5.57,22.05-2.64,9.92-2.96,46.76-2.26,60.79.71,14.03,11.05,30.71,13.86,36.32,1.32,2.62,1.21,3.37.53,3.37-.77,0-2.31-.98-3.34-1.26-1.48-.4-8.66-5.99-15.5-13.07Z"/>
    <path class="cls-8" d="m156.92,40.01c-1.16.09-2.81.25-3.52.16-.88-.14-.53-.99,0-1.32.44-.28,1.05-.56,1.71-.68-.07,0-.11.01-.11.01-1.23.05-1.89.15-2.19-.81-.15-.47.18-.92.65-1.09.48-.18,2.89-.55,9.47-.81,1.39-.05,2.69-.18,3.8.16,2.91.89,5.31,2.17,7.59,3.41,1.01.55,2,1.08,2.99,1.58.24,1,.27,2.16-.03,3.13-.14.42-.31,1.02-.51,1.78l-.55-.14s-2.37-.76-4.64-1.33c-1.72-.43-3.37-.75-3.92-.56-2.11.74-5.79.65-7.63.47-1.36.09-2.27,0-2.8,0s-.53-.75-.22-1.09,1.44-.77,1.44-.77h0c-1.44.02-3.06.03-3.42-.09-.73-.25-.6-.83-.56-1.09s1.71-.54,2.45-.72l-.02-.19Z"/>
    <path class="cls-1" d="m144.09,130.87l-4.37,1.51-.59-1.72c-8.39,2.27-21.14.67-27.61-.58-1.56-.31-2.76-.59-3.44-.79-.21-.06-.44-.13-.66-.19h-.01c-3.54-.86-8.46-.86-11.43-.86-3.16,0-13.16-.4-16.32-1.45-2.17-.73-3.85-2.81-4.69-4.05l-.59.4c-2.11,2.27-5.67,3.94-9.75,5.16-8.92,2.68-20.24,3.25-24,3.58-.72.06-4.37.21-8.28-.16-2.04-.18-4.15-.51-5.95-1.06-.31-.08-.59-.18-.87-.28-2.18-.81-7.52-2.98-9.2-1.15l8.07-11.03s.06-.56.15-1.43c.2-2.16.56-6.24.56-8.74,0-3.52,2.11-7.2,3.85-7.73,1.76-.53,12.28-2.45,14.74-3.16,0,0,26.91-1.73,34.69-7,.17-.64.34-1.23.49-1.77.21-.71.52-1.6.88-2.65.88-2.47,2.17-5.79,3.59-9.34,2.07-5.17,4.46-10.83,6.36-15.1,1.12-2.54,2.06-4.58,2.67-5.73,2.63-5,8.6-9.64,11.22-10.65,1.81.45,3.92.99,6.33,1.62.05.53.12,1.04.19,1.55l-.19.03s-5.28.06-6.33,1.44c-.86,4.24.57,9.35,3.8,13.1,4.61,5.34,12.87,7.89,23.38,1.25l-.17-2.79c3.68-.23,9.01-.27,12.47-6.42.54-.95,1.09-2.13,1.66-3.46,4.47,0,12.11,3.91,14.39,7.06s6.14,9.3,6.14,9.3l1.35.26c-2.98,15.41-6.07,33.31-6.61,41.05-.66,9.73-1.14,26.64-1.32,34.21h-.04c-.03-.32-5.59-3.04-10.72-7.62-.42-.36-.84-.75-1.25-1.15-.91-.87-1.77-2.05-2.59-3.46Z"/>
    <path class="cls-1" d="m160.01,148.69c1.44,1.73,2.97,3.41,4.51,5.02-.43.37-10.21,8.74-14.51,11.32-4.38,2.63-9.64,3.68-14.76,3.02-2.78-.37-8.7-3.82-14.93-8.01h-.01c-.56-.38-1.11-.76-1.66-1.14-4.69-3.23-9.43-6.76-12.99-9.59,4.8-1.42,9.57-2.83,12.83-3.79,0,0,.01,1.66,1.74,3.59,2.03,2.28,4.56,1.53,5.75.31,1.06-1.11,1.17-3.32.85-6.25l.55-.06,2.66-.99s3.31,3.87,9.1,3.75,19.44-.06,19.52,0h.07c.16,1.03.61,2.01,1.28,2.83Z"/>
    <path class="cls-1" d="m158.72,145.85h-.07c-.07-.05-13.73-.12-19.52.01s-9.1-3.75-9.1-3.75l17.88-6.62h.01c5.13,4.57,10.68,7.29,10.72,7.61h.04c-.02.65-.03,1.24-.04,1.75-.01.34.01.67.07,1Z"/>
    <path class="cls-8" d="m127.16,60.6l-.07.19c-9.9,1.16-15.53-3.26-16.97-12.73h-.01c-.07-.51-.14-1.02-.19-1.55l5.52-7.23h.05c-.05.36-.07.64-.04.85.13.98,2.31.39,3.42.39.05,0,.13-.02.2-.04-1.92-1.11-1.69-4.89-1.67-6.01.03-1.15.51-2.39,1.34-2.78.84-.4,2.04.17,2.65,1.05.57.8.75,3,1.07,4.82,1.06-1.12,2.05-2.22,2.53-2.69,1.12-1.13,7.89-10.85,8.7-12.24.79-1.38,2.42-.99,3.35-.85.92.14,3.16,1.19,5.2,1.44,2.03.27,6.44.99,8.76,2.77.38,5.05-3.03,17.67-6.24,25.22-.57,1.34-1.13,2.52-1.66,3.46-3.46,6.15-8.79,6.19-12.47,6.42-.09.01-.2.01-.29.02-1.15.08-2.22-.15-3.15-.52Zm22.12-30.46c.15-.58-.2-1.18-.78-1.33l-.71-.18c-.08-.02-.18-.03-.26-.03-.48,0-.93.33-1.05.81-.15.58.2,1.18.78,1.33l.71.18c.08.02.18.03.26.03.48,0,.93-.33,1.05-.81Zm-11.6-2.12c0-.05,0-.11-.01-.16-.09-.59-.64-1-1.23-.92l-1.43.21c-.55.07-.94.55-.94,1.07,0,.05,0,.11.01.16.09.59.64,1,1.23.92l1.43-.21c.55-.07.94-.55.94-1.07Z"/>
    <path class="cls-4" d="m120.23,25.71c.41-.53,7.78-10.19,8.2-11.21.44-1.05-.96-2.01-2.54-1.93s-2.46,1.23-3.16,3.34c-.68,2.04-2.4,9.35-2.51,9.8ZM147.88.53c1.91-.13,3.62.14,2.96,1.39-.65,1.24-7.63,9.07-7.63,9.07l1.19.76,3.33-.17.95,1.42-2.17,1.02s3.48,2.43,3.95,5.33.54,6.64.54,6.64c-2.32-1.78-6.73-2.49-8.76-2.77-2.04-.25-4.28-1.31-5.2-1.44-.93-.14-2.56-.53-3.35.85-.8,1.39-7.58,11.12-8.7,12.24-.47.47-1.46,1.58-2.53,2.69-.33-1.82-.51-4.02-1.07-4.82-.61-.88-1.81-1.45-2.65-1.05-.83.39-1.31,1.63-1.34,2.78-.02,1.12-.24,4.91,1.67,6.01-.07.02-.15.04-.2.04-1.12,0-3.29.59-3.42-.39-.03-.21-.01-.49.04-.84.17-1.28.76-3.28.81-4.42.06-1.45-.2-3.76.46-4.41.65-.65,3.02-3.68,3.02-3.68h-3.52c0-3.56.88-8.82,2.34-12.37,1.44-3.55,7.11-9.34,9.34-10.26,2.24-.93,5.4-1.71,6.13-.79.72.92,1.05,2.63.98,3.29-.06.65.01,1.05.01,1.05,2.96-2.83,10.92-7.04,12.82-7.18Zm-16.95,9.19c.02-.2-.88-2.06-1.17-2.04-.28.03-1.97,2.04-1.97,2.04.06.22,3.12.2,3.14,0Z"/>
    <path class="cls-4" d="m148.5,28.81c.58.15.93.75.78,1.33-.13.48-.57.81-1.05.81-.08,0-.18-.01-.26-.03l-.71-.18c-.58-.15-.93-.75-.78-1.33.13-.48.57-.81,1.05-.81.08,0,.18.01.26.03l.71.18Z"/>
    <path class="cls-3" d="m147.93,135.48h-.01s-17.88,6.63-17.88,6.63l-2.66.99-.55.06c-.11-.89-.23-1.85-.4-2.87,0-.03-.01-.05-.01-.08-.18-1.16-.47-2.13-.84-2.92l.4-.2,13.75-4.72,4.37-1.51c.82,1.41,1.68,2.59,2.59,3.46.41.4.83.79,1.25,1.15Z"/>
    <path class="cls-1" d="m139.13,130.66l.59,1.72-13.75,4.72-.4.2c-1.04-2.24-2.75-3.18-4.68-3.31-2.63-.18-3.86,2.8-3.95,5.31l.02.05c-2.56.77-5.91,1.78-9.55,2.88h0s.48-2.63,1.19-4.39c.68-1.72,2.81-7.45,2.92-7.76,6.47,1.25,19.22,2.85,27.61.58Z"/>
    <path class="cls-4" d="m137.67,27.87c.01.05.01.11.01.16,0,.53-.39,1-.94,1.07l-1.43.21c-.59.08-1.14-.33-1.23-.92-.01-.05-.01-.11-.01-.16,0-.53.39-1,.94-1.07l1.43-.21c.59-.08,1.14.33,1.23.92Z"/>
    <path class="cls-1" d="m130.61,61.1l.17,2.79c-10.51,6.64-18.77,4.08-23.38-1.25-3.23-3.75-4.66-8.85-3.8-13.1,1.04-1.38,6.33-1.44,6.33-1.44l.19-.03h.01c1.44,9.46,7.07,13.88,16.97,12.73l.07-.19c.93.37,2,.6,3.15.52.09-.01.2-.01.29-.02Z"/>
    <path class="cls-6" d="m126.83,143.16c.32,2.94.21,5.15-.85,6.25-1.19,1.22-3.72,1.98-5.75-.31-1.73-1.93-1.74-3.59-1.74-3.59,2.56-.76,4.19-1.24,4.19-1.24.81-.92.92-2.26.65-3.53l3.09-.46c.17,1.02.29,1.98.4,2.87Z"/>
    <path class="cls-6" d="m126.42,140.21s.01.05.01.08l-3.09.46c-.24-1.19-.8-2.31-1.37-2.92,0,0-1.94.58-5,1.51l-.02-.05c.08-2.51,1.32-5.48,3.95-5.31,1.94.13,3.64,1.06,4.68,3.31.37.79.66,1.76.84,2.92Z"/>
    <path class="cls-6" d="m123.33,140.75c.26,1.26.16,2.61-.65,3.53,0,0-1.63.48-4.19,1.24-3.26.96-8.03,2.37-12.83,3.79-8.04,2.38-16.18,4.79-17.58,5.24-1.32.42-2.66.54-3.99.49-1.58-.03-3.14-.28-4.57-.49-2.63-.4-2.37-3.16-1.15-3.56.64-.21,12.72-3.85,24-7.25,1.72-.52,3.41-1.03,5.04-1.52,3.64-1.11,6.99-2.12,9.55-2.88,3.06-.93,5-1.51,5-1.51.57.61,1.13,1.73,1.37,2.92Z"/>
    <path class="cls-7" d="m118.65,158.9c.56.38,1.11.76,1.66,1.14-2.57-.85-3.55,2.36-3.81,4.29-.26,1.93.96,9.35.96,9.35-3.01.15-4.99.29-4.99.29l-1.05-14.41s6.47-.08,7.23-.66Z"/>
    <path class="cls-1" d="m118.65,158.9c-.76.58-7.23.66-7.23.66h-10l-1.16-.02c.21-.83.33-2,.33-2h-.01c.34-.38.61-.86.84-1.45.55-1.41,4.24-6.78,4.24-6.78,3.56,2.83,8.29,6.36,12.99,9.59Z"/>
    <polygon class="cls-7" points="111.42 159.57 112.47 173.98 104.92 183.98 101.42 175.07 101.42 174.16 101.42 159.57 111.42 159.57"/>
    <path class="cls-6" d="m111.52,130.08c-.11.31-2.23,6.04-2.92,7.76-.71,1.76-1.19,4.38-1.19,4.38h0c-1.63.49-3.33,1.01-5.04,1.53,0,0,3.14-14.02,5.03-14.64h.01c.22.06.45.13.66.19.68.2,1.88.48,3.44.79Z"/>
    <path class="cls-1" d="m107.41,129.1c-1.89.62-5.03,14.64-5.03,14.64-11.28,3.4-23.36,7.04-24,7.25-1.22.4-1.48,3.16,1.15,3.56,1.43.21,2.99.46,4.57.49h0s-10.66,2.87-12.77,3.4-7.63,1.58-9.56.88c-1.93-.71-5.71-3.24-5.71-3.24l.02-.14c.61.09,1.19.15,1.74.14h.01c2.16-.04,3.83-1,4.98-3.33,2.64-5.33,2.51-22.11,2.51-22.11,0,0-.19-1.86-.68-2.36h0c4.07-1.23,7.64-2.89,9.75-5.17l.59-.4c.84,1.24,2.53,3.33,4.69,4.05,3.16,1.05,13.16,1.45,16.32,1.45,2.97,0,7.89,0,11.43.86Z"/>
    <path class="cls-6" d="m88.91,157.85c-.54-.35-.87-.74-1.07-1.01-.16-.23-.22-.38-.22-.38l.46-1.91c1.4-.45,9.54-2.86,17.58-5.24,0,0-3.69,5.37-4.24,6.78-.23.59-.51,1.07-.84,1.44-.43.52-.97.82-1.58.89-.11.01-.26.03-.45.04-.46.04-1.16.08-1.97.12-.77.03-1.65.05-2.52.05s-1.68-.02-2.4-.07c-.14-.01-.26-.02-.39-.03-.28-.03-.54-.06-.76-.11-.37-.06-.69-.16-.98-.27-.23-.09-.44-.2-.62-.31Z"/>
    <path class="cls-7" d="m101.42,159.57v14.59l-8.95,8.07-4.32-7.73c4.33-5.12,10.37-12.31,11.95-14.45.06-.14.12-.32.16-.51l1.16.02Z"/>
    <path class="cls-6" d="m100.57,157.53h.01s-.12,1.18-.33,2.01c-.04.19-.09.37-.16.51-1.58,2.15-7.62,9.34-11.95,14.45-2.61,3.09-4.6,5.42-4.6,5.42l-1.6-1.14s1.05-1.25,2.11-2.04c.91-.68,10.87-13.44,13.59-16.93.08-.11.16-.21.24-.31.16-.21.32-.4.44-.57.08-.11.17-.2.23-.28l-.02-.19c.19-.01.35-.03.45-.04.61-.07,1.15-.38,1.58-.89Z"/>
    <path class="cls-6" d="m98.54,158.47l.02.19c-.06.08-.15.18-.23.28-.13.17-.28.36-.44.57-.08.09-.16.2-.24.31-4.12,5.02-16.2,19.26-16.2,19.26l-1.6-1.14s1.05-1.25,2.11-2.04c.87-.65,10.34-11.97,13.56-15.84.67-.8,1.07-1.28,1.07-1.28v-.19c.8-.03,1.49-.07,1.96-.12Z"/>
    <path class="cls-1" d="m97.9,43.57c1.32.26,3.22.72,5.69,1.33-2.62,1.01-8.59,5.65-11.22,10.65-.61,1.15-1.56,3.19-2.67,5.73l-.72-.31-4.59-2.99s-5.08,2.48-6.02,4.65c-.94,2.16,4.97,13.74,4.97,13.74-1.42,3.55-2.71,6.86-3.59,9.34-2.88-.89-10.62-15.06-10.62-15.06l-1.89-1.03c8.5-10.11,16.53-19.66,18.92-22.13,5.26-5.44,9.47-4.39,11.75-3.92Z"/>
    <path class="cls-6" d="m95.31,159.9c-3.96,4.73-16.03,18.18-16.03,18.18l-1.55-1.09c.28-.32.73-.81,1.28-1.43.24-.23.51-.45.77-.65,1.05-.79,14.27-16.13,14.27-16.13v-.14c.86,0,1.75-.02,2.52-.05v.19s-.39.48-1.06,1.28l-.2-.16Z"/>
    <path class="cls-6" d="m79.02,175.56c-.75.68-1.34,1.39-1.34,1.39l.05.04c-.23.26-.36.4-.36.4l-1.6-1.14s1.05-1.25,2.11-2.04,13.77-15.55,13.77-15.55v-.09c.73.05,1.56.07,2.41.07v.14s-13.22,15.34-14.27,16.13c-.26.2-.53.42-.77.65Z"/>
    <path class="cls-6" d="m90.51,158.43c.22.04.47.07.76.11-2.63,3.36-15.37,17.01-15.37,17.01l-1.6-1.14s1.05-1.25,2.11-2.04,13.13-14.21,13.13-14.21c.28.12.61.21.98.27Z"/>
    <path class="cls-1" d="m88.98,60.97l.72.31c-1.89,4.26-4.28,9.93-6.36,15.1,0,0-5.91-11.58-4.97-13.74.94-2.17,6.02-4.65,6.02-4.65l4.59,2.99Z"/>
    <path class="cls-6" d="m87.84,156.84c.2.27.54.66,1.07,1.01-2.64,3.37-14.96,16.65-14.96,16.65l-1.6-1.14s1.05-1.25,2.11-2.04,13.03-14.34,13.03-14.34l.35-.15Z"/>
    <path class="cls-1" d="m79.75,85.71c-.37,1.05-.67,1.95-.88,2.65-.16.54-.33,1.13-.49,1.77-7.78,5.27-34.69,7-34.69,7,2.4-2.31,13.31-15.31,23.55-27.52l1.89,1.03s7.74,14.17,10.62,15.06Z"/>
    <path class="cls-7" d="m57.81,156.09c-.55.01-1.13-.04-1.74-.14-2.51-.42-5.54-1.71-9.05-3.38-2.51.93-13.03-1.71-15.79-2.89-2.77-1.19-5.93-5.26-8.31-8.16l9.39-9.57.02-.24c3.92.37,7.57.22,8.28.16,3.76-.33,15.08-.89,24-3.58h0c.49.51.68,2.37.68,2.37,0,0,.14,16.78-2.51,22.11-1.15,2.33-2.82,3.28-4.98,3.33h-.01Z"/>
    <path class="cls-5" d="m19.37,137.07l7.02-6.41h0c1.8.55,3.91.87,5.95,1.05l-.02.24-9.39,9.57-16.43,16.75c-.75.77-1.96.85-2.81.19l-2.47-1.92c-.91-.69-.96-2.04-.11-2.8l18.26-16.67Z"/>
    <path class="cls-2" d="m26.39,130.65h0s-7.02,6.42-7.02,6.42c-.19-.23-1.75-2.11-2.48-3.05-.79-1-1.44-2.8-1.09-4.07l.24-.33s.01-.02.02-.03l.26-.37c1.68-1.83,7.02.34,9.2,1.15.28.11.57.2.87.28Z"/>
  </g>
  <g>
    <path class="cls-9" d="m130.93,9.72c-.02.2-3.07.22-3.14,0,0,0,1.68-2.01,1.97-2.04.28-.02,1.19,1.84,1.17,2.04Z"/>
    <path class="cls-9" d="m120.23,25.71c.11-.45,1.82-7.76,2.51-9.8.69-2.11,1.58-3.25,3.16-3.34s2.98.87,2.54,1.93c-.42,1.02-7.79,10.68-8.2,11.21Z"/>
    <path class="cls-9" d="m120.23,25.71s-.01.02-.01.02"/>
    <path class="cls-9" d="m115.44,39.29l-5.52,7.23c.05.53.12,1.04.19,1.55h.01c1.44,9.46,7.07,13.88,16.97,12.73"/>
    <path class="cls-9" d="m123.73,58.36s1.37,1.43,3.43,2.24c.93.37,2,.6,3.15.52.09-.01.2-.01.29-.02,3.68-.23,9.01-.27,12.47-6.42.54-.95,1.09-2.13,1.66-3.46,3.21-7.55,6.62-20.17,6.24-25.22"/>
    <path class="cls-9" d="m141.85,37.57s.53,7.28,0,9.39-2.56,3.89-4.47,2.8c-.72-.41-1.14-2.01-1.14-2.01"/>
    <path class="cls-9" d="m134.07,53.95s3.16-.33,3.61,0"/>
    <path class="cls-9" d="m135.25,54.28s.96.8,2.13,0"/>
    <path class="cls-9" d="m133.56,37.57s3.02.11,3.46.28"/>
    <path class="cls-9" d="m144.52,40.71s1.72-.22,2.51,0"/>
    <path class="cls-9" d="m136.74,29.1l-1.43.21c-.59.08-1.14-.33-1.23-.92-.01-.05-.01-.11-.01-.16,0-.53.39-1,.94-1.07l1.43-.21c.59-.08,1.14.33,1.23.92.01.05.01.11.01.16,0,.53-.39,1-.94,1.07Z"/>
    <path class="cls-9" d="m148.5,28.81c.58.15.93.75.78,1.33-.13.48-.57.81-1.05.81-.08,0-.18-.01-.26-.03l-.71-.18c-.58-.15-.93-.75-.78-1.33.13-.48.57-.81,1.05-.81.08,0,.18.01.26.03l.71.18Z"/>
    <path class="cls-9" d="m16.03,129.62l-.24.33c-.35,1.27.31,3.07,1.09,4.07.74.95,2.29,2.82,2.48,3.05l.02.02"/>
    <path class="cls-9" d="m109.92,46.52c-2.41-.63-4.52-1.17-6.33-1.62-2.47-.61-4.38-1.06-5.69-1.33-2.27-.47-6.48-1.53-11.75,3.92-2.39,2.46-10.42,12.02-18.92,22.13-10.24,12.21-21.15,25.21-23.55,27.52-2.45.71-12.98,2.63-14.74,3.16-1.75.53-3.85,4.21-3.85,7.73,0,2.49-.36,6.58-.56,8.74-.08.87-.15,1.43-.15,1.43l-8.07,11.03-.26.37"/>
    <path class="cls-9" d="m26.39,130.66l-7.02,6.41L1.11,153.74c-.85.76-.8,2.11.11,2.8l2.47,1.92c.85.66,2.06.58,2.81-.19l16.43-16.75,9.39-9.57"/>
    <path class="cls-9" d="m57.83,156.09c2.16-.04,3.83-1,4.98-3.33,2.64-5.33,2.51-22.11,2.51-22.11,0,0-.19-1.86-.68-2.36"/>
    <path class="cls-9" d="m22.93,141.52c2.38,2.89,5.54,6.97,8.31,8.16,2.76,1.19,13.28,3.82,15.79,2.89,3.52,1.67,6.55,2.96,9.05,3.38.61.09,1.19.15,1.74.14"/>
    <path class="cls-9" d="m16.03,129.62s.01-.02.02-.03c.07-.14.16-.26.26-.37,1.68-1.83,7.02.34,9.2,1.15.28.11.57.2.87.28,1.8.56,3.91.88,5.95,1.06,3.92.37,7.57.22,8.28.16,3.76-.33,15.08-.89,24-3.58,4.07-1.22,7.64-2.88,9.75-5.16"/>
    <path class="cls-9" d="m56.06,156.09s3.78,2.54,5.71,3.24c1.93.69,7.45-.36,9.56-.88s12.77-3.39,12.77-3.39"/>
    <path class="cls-9" d="m150.99,25.99s-.07-3.75-.54-6.64-3.95-5.33-3.95-5.33l2.17-1.02-.95-1.42-3.33.17-1.19-.76s6.98-7.83,7.63-9.07c.66-1.25-1.05-1.52-2.96-1.39-1.91.14-9.86,4.35-12.82,7.18,0,0-.07-.4-.01-1.05.07-.66-.26-2.38-.98-3.29-.73-.92-3.88-.14-6.13.79-2.23.93-7.89,6.72-9.34,10.26-1.45,3.55-2.34,8.81-2.34,12.37h3.52s-2.37,3.03-3.02,3.68c-.66.65-.4,2.96-.46,4.41-.05,1.14-.64,3.14-.81,4.42-.05.35-.07.63-.04.84.13.98,2.31.39,3.42.39.05,0,.13-.02.2-.04-1.92-1.11-1.69-4.89-1.67-6.01.03-1.15.51-2.39,1.34-2.78.84-.4,2.04.17,2.65,1.05.57.8.75,3,1.07,4.82,1.06-1.12,2.05-2.22,2.53-2.69,1.12-1.13,7.89-10.85,8.7-12.24.79-1.38,2.42-.99,3.35-.85.92.14,3.16,1.19,5.2,1.44,2.03.27,6.44.99,8.76,2.77Z"/>
    <path class="cls-9" d="m144.74,51.21c4.47,0,12.11,3.91,14.39,7.06s6.14,9.3,6.14,9.3"/>
    <path class="cls-9" d="m103.6,44.9c-2.62,1.01-8.59,5.65-11.22,10.65-.61,1.15-1.56,3.19-2.67,5.73-1.89,4.26-4.28,9.93-6.36,15.1-1.42,3.55-2.71,6.86-3.59,9.34-.37,1.05-.67,1.95-.88,2.65-.16.54-.33,1.13-.49,1.77-1.82,6.84-4.22,19.39-3.98,24.81"/>
    <path class="cls-9" d="m155.44,38.13c.88-.09,2.84-.29,3.52-.11"/>
    <path class="cls-9" d="m177.32,40.61c-.99-.49-1.98-1.03-2.99-1.58-2.28-1.24-4.68-2.52-7.59-3.41-1.11-.34-2.41-.21-3.8-.16-6.58.26-8.99.63-9.47.81-.47.18-.8.62-.65,1.09.29.96.96.86,2.19.81,0,0,.03-.01.11-.01"/>
    <path class="cls-9" d="m155.44,38.13l-.25.03s-.05.01-.07.01c-.65.13-1.26.4-1.71.68-.53.33-.88,1.18,0,1.32.71.09,2.36-.06,3.52-.16.32-.02.59-.03.8-.04.98-.03,1.58-.09,1.58-.09"/>
    <path class="cls-9" d="m156.94,40.2c-.75.18-2.41.45-2.45.72s-.17.84.56,1.09c.36.13,1.98.12,3.42.08,1.25-.04,2.37-.09,2.37-.09"/>
    <path class="cls-9" d="m158.47,42.11s-1.14.42-1.44.77-.31,1.09.22,1.09,1.44.09,2.8,0c1.84.18,5.53.26,7.63-.47.55-.19,2.2.13,3.92.56,2.27.57,4.64,1.33,4.64,1.33"/>
    <path class="cls-9" d="m171.56,44.37c-1.08,4.42-2.99,13.41-4.94,23.46-2.98,15.41-6.07,33.31-6.61,41.05-.66,9.73-1.14,26.64-1.32,34.21-.02.65-.03,1.24-.04,1.75-.01.34.01.67.07,1,.16,1.04.61,2.02,1.28,2.84,1.44,1.73,2.97,3.41,4.51,5.02,6.83,7.08,14.01,12.67,15.5,13.07,1.03.28,2.57,1.26,3.34,1.26.68,0,.79-.75-.53-3.37-2.81-5.61-13.16-22.28-13.86-36.32-.69-14.03-.38-50.88,2.26-60.79,2.25-8.44,4.44-17.74,5.57-22.05.2-.76.37-1.36.51-1.78.31-.97.27-2.13.03-3.13-.21-.88-.6-1.65-1.08-2.05-.54-.43-1.19-.42-1.85.38"/>
    <path class="cls-9" d="m176.24,38.56c4.86,2.43,14.47,11.91,16.58,15.72,2.11,3.82,3.95,11.19,3.28,19.87-.37,4.85-1.19,13.25-1.94,20.5-.2,1.95-.39,3.82-.57,5.51-.35,3.26-.62,5.86-.78,7.16-.09.79-.2,2.24-.29,4.09-.12,1.94-.22,4.32-.34,6.83-.37,8.6-.68,18.85-.68,18.85"/>
    <polyline class="cls-9" points="193.6 100.15 194.46 110.47 194.48 110.73"/>
    <path class="cls-9" d="m199.82,157.7c3.09-3.46,4.05-6.41,4.05-9.16,0-.56-.16-1.49-.42-2.68-.39-1.72-1.02-3.99-1.77-6.51-2.78-9.3-7.2-21.86-7.2-21.86"/>
    <path class="cls-9" d="m112.47,173.98s1.98-.15,4.99-.29c6.42-.33,17.51-.72,23.96.13,9.47,1.22,24.91,2.11,32.27,0,4.83-1.38,6.95-2.08,10.56-4.28,1.89-1.16,4.2-2.73,7.52-5.02,3.61-2.49,6.2-4.73,8.05-6.79"/>
    <path class="cls-9" d="m109.92,48.1s-5.28.06-6.33,1.44c-.86,4.24.57,9.35,3.8,13.1,4.61,5.34,12.87,7.89,23.38,1.25"/>
    <path class="cls-9" d="m107.4,62.64c-3.53,5.02-13.35,28.24-14.4,37.52-1.05,9.26-1.05,12.6-1.05,12.6"/>
    <path class="cls-9" d="m135.25,68.89c-1.91,4.74-8.95,19.41-9.8,27.37s-.79,19.03,0,21.23"/>
    <path class="cls-9" d="m139.16,75.6s8.5-10,10.16-9.22c1.52,2.91,3.55,7.24,3.55,7.24-10.58,6.32-16.77,14.21-19.79,20.4-3.03,6.18-4.47,15.13-3.95,20.92s5.26,13.16,6.84,15.13"/>
    <path class="cls-9" d="m135.25,103.16c1.63,7.99,4.71,20.66,8.84,27.71.82,1.41,1.68,2.59,2.59,3.46.41.4.83.79,1.25,1.15,5.13,4.58,10.68,7.31,10.72,7.62"/>
    <path class="cls-9" d="m107.42,129.1c.22.06.45.13.66.19.68.2,1.88.48,3.44.79,6.47,1.25,19.22,2.85,27.61.58"/>
    <path class="cls-9" d="m74.37,121.78s.21.39.59.95c.84,1.24,2.53,3.33,4.69,4.05,3.16,1.05,13.16,1.45,16.32,1.45,2.97,0,7.89,0,11.43.86"/>
    <path class="cls-9" d="m45.84,140.47s7.91,15.03,11.98,15.62h.01"/>
    <path class="cls-9" d="m38.87,144.79s5.79,3.71,8.16,7.79"/>
    <path class="cls-9" d="m24.53,116.76s0-.01.01-.01c.42-.48,9.35-10.79,10.03-13.59"/>
    <path class="cls-9" d="m43.69,97.13s26.91-1.73,34.69-7"/>
    <path class="cls-9" d="m69.13,70.65s7.74,14.17,10.62,15.06"/>
    <path class="cls-9" d="m83.34,76.37s-5.91-11.58-4.97-13.74c.94-2.17,6.02-4.65,6.02-4.65l4.59,2.99"/>
    <polyline class="cls-9" points="144.09 130.87 139.72 132.37 125.97 137.09"/>
    <polyline class="cls-9" points="127.38 143.1 130.04 142.11 147.92 135.49"/>
    <path class="cls-9" d="m116.94,139.29c.08-2.51,1.32-5.48,3.95-5.31,1.94.13,3.64,1.06,4.68,3.31.37.79.66,1.76.84,2.92,0,.03.01.05.01.08.17,1.02.29,1.98.4,2.87.32,2.94.21,5.15-.85,6.25-1.19,1.22-3.72,1.98-5.75-.31-1.73-1.93-1.74-3.59-1.74-3.59"/>
    <path class="cls-9" d="m116.96,139.34c3.06-.93,5-1.51,5-1.51.57.61,1.13,1.73,1.37,2.92.26,1.26.16,2.61-.65,3.53,0,0-1.63.48-4.19,1.24-3.26.96-8.03,2.37-12.83,3.79-8.04,2.38-16.18,4.79-17.58,5.24-1.32.42-2.66.54-3.99.49-1.58-.03-3.14-.28-4.57-.49-2.63-.4-2.37-3.16-1.15-3.56.64-.21,12.72-3.85,24-7.25,1.72-.52,3.41-1.03,5.04-1.52,3.64-1.11,6.99-2.12,9.55-2.88Z"/>
    <path class="cls-9" d="m192.51,111.41h.01c.56-.25,1.2-.57,1.94-.94,5.26-2.65,14.77-8.14,23.54-13.3,10.06-5.92,19.16-11.37,19.82-11.57,1.32-.4,3.95-1.33,3.42,0-.53,1.31-.93,3.81-4.35,6.04-1.73,1.13-9.8,6.39-17.73,11.52-7.82,5.07-15.51,10-16.75,10.73-1.63.95-5.49,2.51-7.98,3.48-1.33.52-2.25.86-2.25.86"/>
    <path class="cls-9" d="m194.48,94.68s15.97-4.11,17.55-4.55c1.58-.45,4.72,2.44,4.72,2.44l1.25,4.6"/>
    <path class="cls-9" d="m219.17,103.16s8.65,15.91,8.92,16.52c.21.51,1.14,1.89,2.92,2.23.39.07.82.11,1.29.05,2.63-.26,36.5-4.83,36.5-4.83,0,0-11.5,21.7-15.44,25.15s-11.84,13.45-14.21,14.51-3.95,3.28-9.87,3.28-25.79-.65-26.84-.65-3.15-1.05-2.6-1.71h0"/>
    <path class="cls-9" d="m201.68,139.35s17.45-7.92,19.47-9.15c2.01-1.23,8.16-5.26,8.85-5.53.18-.06.36-.09.54-.09.54,0,1.04.29,1.31.88.36.79.44,1.58-.87,2.98-1.32,1.41-11.97,9.26-14.1,10.91-2.14,1.64-11.08,5.85-11.08,5.85l-2.35.65"/>
    <path class="cls-9" d="m130.04,142.11s3.31,3.87,9.1,3.75,19.44-.06,19.52,0"/>
    <polygon class="cls-9" points="111.42 159.57 112.47 173.98 104.92 183.98 101.42 175.07 101.42 174.16 101.42 159.57 111.42 159.57"/>
    <path class="cls-9" d="m117.46,173.68s-1.22-7.42-.96-9.35c.26-1.94,1.24-5.15,3.81-4.29"/>
    <path class="cls-9" d="m87.49,156.99s-11.98,13.55-13.03,14.34-2.11,2.04-2.11,2.04l1.6,1.14s12.32-13.28,14.96-16.65c.01,0,.01-.01.01-.01"/>
    <path class="cls-9" d="m89.53,158.15s-12.07,13.42-13.13,14.21-2.11,2.04-2.11,2.04l1.6,1.14s12.74-13.65,15.37-17.01"/>
    <path class="cls-9" d="m97.65,159.82c-2.72,3.48-12.68,16.24-13.59,16.93-1.05.79-2.11,2.04-2.11,2.04l1.6,1.14s1.99-2.33,4.6-5.42c4.33-5.12,10.37-12.31,11.95-14.45.06-.14.12-.32.16-.51.21-.83.33-2,.33-2"/>
    <path class="cls-9" d="m91.65,158.66s-12.72,14.76-13.77,15.55-2.11,2.04-2.11,2.04l1.6,1.14s.13-.14.36-.4c.28-.32.73-.81,1.28-1.43,3.72-4.15,12.62-14.14,14.7-16.78"/>
    <path class="cls-9" d="m94.06,158.78s-13.22,15.34-14.27,16.13c-.26.2-.53.42-.77.65-.75.68-1.34,1.39-1.34,1.39l.05.04,1.55,1.09s12.07-13.45,16.03-18.18c.33-.4.6-.74.81-1"/>
    <path class="cls-9" d="m96.58,158.78s-.4.48-1.07,1.28c-3.22,3.87-12.68,15.19-13.56,15.84-1.05.79-2.11,2.04-2.11,2.04l1.6,1.14s12.08-14.24,16.2-19.26c.08-.11.16-.21.24-.31.16-.21.32-.4.44-.57.08-.11.17-.2.23-.28"/>
    <path class="cls-9" d="m88.08,154.55l-.46,1.91s.06.15.22.38c.2.27.54.66,1.07,1.01.18.11.39.21.62.31.28.12.61.21.98.27.22.04.47.07.76.11.13.01.25.02.39.03.72.05,1.55.07,2.4.07s1.75-.02,2.52-.05c.81-.03,1.51-.07,1.97-.12.19-.01.35-.03.45-.04.61-.07,1.15-.38,1.58-.89.34-.37.61-.85.84-1.44.55-1.41,4.24-6.78,4.24-6.78,3.56,2.83,8.29,6.36,12.99,9.59.56.38,1.11.76,1.66,1.14h.01c6.23,4.19,12.15,7.64,14.93,8.01,5.12.66,10.38-.39,14.76-3.02,4.29-2.58,14.07-10.95,14.51-11.32h.01"/>
    <polyline class="cls-9" points="88.15 174.5 92.47 182.23 101.42 174.16"/>
    <path class="cls-9" d="m111.42,159.57s6.47-.08,7.23-.66"/>
    <path class="cls-9" d="m102.37,143.74s3.14-14.02,5.03-14.64h.01"/>
    <path class="cls-9" d="m111.53,130.07h-.01c-.11.32-2.23,6.05-2.92,7.77-.71,1.76-1.19,4.38-1.19,4.38"/>
  </g>
</svg>