<svg xmlns="http://www.w3.org/2000/svg" viewBox="0 0 269.3 210.32"><defs><style>.cls-1{fill:#c1272d}.cls-1,.cls-2,.cls-4,.cls-5,.cls-6,.cls-7,.cls-9{stroke-width:0}.cls-11{stroke-miterlimit:10}.cls-11,.cls-12{fill:none;stroke:#000}.cls-2{fill:#ff4738}.cls-4{fill:#f3edd7}.cls-5{fill:#fefac1}.cls-6{fill:#fed8a9}.cls-12{stroke-linecap:round;stroke-linejoin:round}.cls-7{fill:#333}.cls-9{fill:#84d6e4}</style></defs><g id="_畳" data-name="畳"><path d="M.24 175.81h3.61v5.01H.24zM269.05 203.28v6.54h-30.33l15.29-8.6c1.03 1.61 3.1 2.71 5.49 2.71s4.6-1.18 5.6-2.87l3.95 2.22Z" class="cls-4"/><path d="M269.05 192.76v10.52l-3.95-2.22c.38-.65.59-1.38.59-2.14 0-1.3-.61-2.47-1.61-3.36l4.97-2.79ZM269.05 180.82v11.94l-4.97 2.79c-1.13-1-2.76-1.63-4.58-1.63s-3.3.58-4.42 1.5l-25.99-14.61h39.96ZM269.05 81.53v5.74H.24v-5.74h268.81z" class="cls-4"/><path d="M265.07 175.81h3.98v5.01h-3.98zM265.69 198.92c0 .76-.21 1.49-.59 2.14l-5.4-3.04 4.38-2.46c.99.89 1.61 2.07 1.61 3.36ZM259.7 198.02l5.4 3.04c-.99 1.7-3.12 2.87-5.6 2.87s-4.46-1.1-5.49-2.71l5.69-3.2Z" class="cls-4"/><path d="M253.81 175.81h11.26v5.01h-11.26z" class="cls-7"/><path d="m264.08 195.56-4.38 2.46-4.62-2.59c1.12-.93 2.69-1.5 4.42-1.5 1.82 0 3.44.63 4.58 1.63Z" class="cls-4"/><path d="m259.7 198.02-5.69 3.2c-.44-.68-.69-1.47-.69-2.3 0-1.37.67-2.59 1.76-3.49l4.62 2.59Z" class="cls-4"/><path d="m229.09 180.82 25.99 14.61c-1.09.9-1.76 2.13-1.76 3.49 0 .83.25 1.62.69 2.3l-15.29 8.6h-41.31l-15.58-8.76c.38-.65.59-1.38.59-2.14 0-1.3-.61-2.47-1.61-3.36l26.23-14.75h22.06Zm-5.94 18.1c0-2.76-2.24-5-5-5s-5.01 2.24-5.01 5 2.24 5.01 5.01 5.01 5-2.24 5-5.01Z" class="cls-4"/><path d="M253.81 180.82h-30.4v-5.01h30.4v5.01z" class="cls-4"/><path d="M212.15 175.81h11.26v5.01h-11.26zM218.15 193.92c2.76 0 5 2.24 5 5s-2.24 5.01-5 5.01-5.01-2.24-5.01-5.01 2.24-5 5.01-5Z" class="cls-7"/><path d="m207.03 180.82-26.23 14.75c-1.13-1.01-2.76-1.64-4.58-1.64s-3.3.58-4.42 1.5l-25.99-14.61h61.21ZM181.75 180.82v-5.01h30.4v5.01H181.75zM197.41 209.82h-41.96l15.29-8.6c1.03 1.61 3.1 2.71 5.49 2.71s4.6-1.18 5.6-2.87l15.58 8.76Z" class="cls-4"/><path d="M182.41 198.92c0 .76-.21 1.49-.59 2.14l-5.4-3.04 4.38-2.46c.99.88 1.61 2.06 1.61 3.36ZM176.42 198.02l5.4 3.04c-.99 1.7-3.12 2.87-5.6 2.87s-4.46-1.1-5.49-2.71l5.69-3.2Z" class="cls-4"/><path d="M170.49 175.81h11.26v5.01h-11.26z" class="cls-7"/><path d="M176.23 193.92c1.82 0 3.44.63 4.58 1.64l-4.38 2.46-4.62-2.59c1.12-.93 2.69-1.5 4.42-1.5ZM176.42 198.02l-5.69 3.2c-.44-.68-.69-1.47-.69-2.3 0-1.37.67-2.59 1.76-3.49l4.62 2.59Z" class="cls-4"/><path d="m145.82 180.82 25.99 14.61c-1.09.9-1.76 2.13-1.76 3.49 0 .83.25 1.62.69 2.3l-15.29 8.6h-41.31l-15.58-8.76c.38-.65.59-1.38.59-2.14 0-1.3-.61-2.47-1.61-3.36l26.23-14.75h22.06Zm-6.99 18.1c0-2.76-2.24-5-5-5s-5.01 2.24-5.01 5 2.24 5.01 5.01 5.01 5-2.24 5-5.01Z" class="cls-4"/><path d="M170.49 180.82H140.09v-5.01h30.4v5.01z" class="cls-4"/><path d="M128.83 175.81h11.26v5.01h-11.26zM133.83 193.92c2.76 0 5 2.24 5 5s-2.24 5.01-5 5.01-5.01-2.24-5.01-5.01 2.24-5 5.01-5Z" class="cls-7"/><path d="m123.75 180.82-26.23 14.75c-1.13-1.01-2.76-1.64-4.58-1.64s-3.3.58-4.42 1.5l-25.99-14.61h61.21ZM128.83 180.82h-30.4v-5.01h30.4v5.01zM114.13 209.82H72.17l15.29-8.6c1.03 1.61 3.1 2.71 5.49 2.71s4.6-1.18 5.6-2.87l15.58 8.76Z" class="cls-4"/><path d="M99.13 198.92c0 .76-.21 1.49-.59 2.14l-5.4-3.04 4.38-2.46c.99.88 1.61 2.06 1.61 3.36Z" class="cls-4"/><path d="m93.15 198.02 5.4 3.04c-.99 1.7-3.12 2.87-5.6 2.87s-4.46-1.1-5.49-2.71l5.69-3.2Z" class="cls-4"/><path d="M87.17 175.81h11.26v5.01H87.17z" class="cls-7"/><path d="M92.95 193.92c1.82 0 3.44.63 4.58 1.64l-4.38 2.46-4.62-2.59c1.12-.93 2.69-1.5 4.42-1.5Z" class="cls-4"/><path d="m93.15 198.02-5.69 3.2c-.44-.68-.69-1.47-.69-2.3 0-1.37.67-2.59 1.76-3.49l4.62 2.59Z" class="cls-4"/><path d="m62.54 180.82 25.99 14.61c-1.09.9-1.76 2.13-1.76 3.49 0 .83.25 1.62.69 2.3l-15.29 8.6H30.66l-15.58-8.76c.38-.65.59-1.38.59-2.14 0-1.3-.61-2.47-1.61-3.36l26.23-14.75h22.25Zm-8.49 18.1c0-2.76-2.24-5-5-5s-5.01 2.24-5.01 5 2.24 5.01 5.01 5.01 5-2.24 5-5.01Z" class="cls-4"/><path d="M87.17 180.82h-30.4v-5.01h30.4v5.01z" class="cls-4"/><path d="M45.51 175.81h11.26v5.01H45.51zM49.05 193.92c2.76 0 5 2.24 5 5s-2.24 5.01-5 5.01-5.01-2.24-5.01-5.01 2.24-5 5.01-5Z" class="cls-7"/><path d="M45.51 180.82h-30.4v-5.01h30.4v5.01zM30.66 209.82H.24v-6.5l3.74-2.1c1.03 1.61 3.1 2.71 5.49 2.71s4.6-1.18 5.6-2.87l15.58 8.76ZM15.67 198.92c0 .76-.21 1.49-.59 2.14l-5.4-3.04 4.38-2.46c.99.88 1.61 2.06 1.61 3.36Z" class="cls-4"/><path d="M3.85 175.81h11.26v5.01H3.85z" class="cls-7"/><path d="m9.68 198.02 5.4 3.04c-.99 1.7-3.12 2.87-5.6 2.87s-4.46-1.1-5.49-2.71l5.69-3.2ZM9.48 193.92c1.82 0 3.44.63 4.58 1.64l-4.38 2.46-4.62-2.59c1.12-.93 2.69-1.5 4.42-1.5Z" class="cls-4"/><path d="m9.68 198.02-5.69 3.2c-.44-.68-.69-1.47-.69-2.3 0-1.37.67-2.59 1.76-3.49l4.62 2.59Z" class="cls-4"/><path d="m.24 192.72 4.82 2.71c-1.09.9-1.76 2.13-1.76 3.49 0 .83.25 1.62.69 2.3l-3.74 2.1v-10.6Z" class="cls-4"/><path d="M212.15 175.81H.24V87.27h268.81v88.54h-56.9z" style="fill:#d2d296;stroke-width:0"/><path d="M.24 180.82h40.04l-26.23 14.75c-1.13-1.01-2.76-1.64-4.58-1.64s-3.3.58-4.42 1.5l-4.82-2.71v-11.9Z" class="cls-4"/><path d="M269.05 209.82H.24M.24 81.53h268.81M.24 87.27h268.81M265.07 175.81h3.98M223.41 175.81h30.4M181.75 175.81h30.4M140.09 175.81h30.4M98.43 175.81h30.4M56.77 175.81h30.4M15.11 175.81h30.4M.24 175.81h3.61M265.07 180.82h3.98M223.41 180.82h30.4M181.75 180.82H212.15M140.09 180.82H170.49M98.43 180.82h30.4M56.77 180.82h30.4M15.11 180.82h30.4M.24 180.82h3.61M72.17 209.82l15.29-8.6 5.69-3.2 4.37-2.45 26.23-14.75" class="cls-11"/><path d="m114.13 209.82-15.59-8.76-5.39-3.04-4.62-2.59-25.99-14.61M138.83 198.92a5.004 5.004 0 1 1-10.01 0c0-2.77 2.24-5 5.01-5s5 2.24 5 5ZM223.15 198.92a5.004 5.004 0 1 1-10.01 0c0-2.77 2.24-5 5.01-5s5 2.24 5 5Z" class="cls-11"/><path d="M97.52 195.57c.99.88 1.61 2.06 1.61 3.36 0 .76-.21 1.49-.59 2.14-.99 1.7-3.12 2.87-5.6 2.87s-4.46-1.1-5.49-2.71c-.44-.68-.69-1.47-.69-2.3 0-1.37.67-2.59 1.76-3.49 1.12-.93 2.69-1.5 4.42-1.5 1.82 0 3.44.63 4.58 1.64ZM.24 203.32l3.75-2.1 5.69-3.2 4.38-2.45 26.23-14.75" class="cls-11"/><path d="m30.66 209.82-15.58-8.76-5.4-3.04-4.62-2.59-4.82-2.71" class="cls-11"/><path d="M14.06 195.57c.99.88 1.61 2.06 1.61 3.36 0 .76-.21 1.49-.59 2.14-.99 1.7-3.12 2.87-5.6 2.87s-4.46-1.1-5.49-2.71c-.44-.68-.69-1.47-.69-2.3 0-1.37.67-2.59 1.76-3.49 1.12-.93 2.69-1.5 4.42-1.5 1.82 0 3.44.63 4.58 1.64ZM155.44 209.82l15.29-8.6 5.69-3.2 4.38-2.45 26.23-14.75" class="cls-11"/><path d="m197.41 209.82-15.59-8.76-5.4-3.04-4.61-2.59-25.99-14.61" class="cls-11"/><path d="M180.8 195.57c.99.88 1.61 2.06 1.61 3.36 0 .76-.21 1.49-.59 2.14-.99 1.7-3.12 2.87-5.6 2.87s-4.46-1.1-5.49-2.71c-.44-.68-.69-1.47-.69-2.3 0-1.37.67-2.59 1.76-3.49 1.12-.93 2.69-1.5 4.42-1.5 1.82 0 3.44.63 4.58 1.64ZM238.72 209.82l15.29-8.6 5.69-3.2 4.38-2.46 4.97-2.8" class="cls-11"/><path d="m269.05 203.28-3.95-2.22-5.4-3.04-4.62-2.59-25.99-14.61" class="cls-11"/><path d="M264.08 195.56c.99.89 1.61 2.07 1.61 3.36 0 .76-.21 1.49-.59 2.14-.99 1.7-3.12 2.87-5.6 2.87s-4.46-1.1-5.49-2.71c-.44-.68-.69-1.47-.69-2.3 0-1.37.67-2.59 1.76-3.49 1.12-.93 2.69-1.5 4.42-1.5 1.82 0 3.44.63 4.58 1.63ZM54.05 198.92a5.004 5.004 0 1 1-10.01 0c0-2.77 2.24-5 5.01-5s5 2.24 5 5ZM3.85 175.81h11.26v5.01H3.85zM45.51 175.81h11.26v5.01H45.51zM87.17 175.81h11.26v5.01H87.17zM128.83 175.81h11.26v5.01h-11.26zM170.49 175.81h11.26v5.01h-11.26zM212.15 175.81h11.26v5.01h-11.26zM253.81 175.81h11.26v5.01h-11.26z" class="cls-11"/></g><g id="_レイヤー_2" data-name="レイヤー 2"><path d="M166.21 45.6c5.07 1.14 11.02 4.08 12.85 6.34 1.8 2.25 7.78 17.2 13.38 29.17 3.06 6.28 15.75 11.27 23.5 13.39 7.76 2.12 20.79 7.67 24.2 14.8 7.28 15.26 4.4 35.94 3.93 39.69-1.09-12.05-11.57-21.34-37.03-17.48-9.77-1.89-18.14-7.59-24.34-13.22-4.87.11-9.21.05-13.04-.13-2.84-.13-5.4-.31-7.66-.53-6.03-.58-10.04-1.38-12.09-1.85s4.43-3.46 8.56-9.37c1.66-2.36 3.26-5.12 4.5-8.23 2.73 1.79 4.91 3.55 5.69 5.16 0 0 6.1-11.28 9.94-15.97h-11.27c-10.81.7-16.93 2.47-18.65 2.07l-.26.08s-.08-.06-.12-.08c0 0-.39-9.08-.12-17.01-1.1 3.82-6.69 12.5-6.93 19.01l.07.25-12.96 3.97-.21-.68c.16 0 .44-.22-.88-2.59-.6-1.06-1.39-5.66-2.15-11.11l1.09-.16c4.11-3.63 7.62-7.29 10.59-10.8a97.53 97.53 0 0 0 6.08-7.98 90.33 90.33 0 0 0 3.51-5.57c3.99-6.86 5.43-11.5 5.43-11.5 1.22.03 2.59-.1 3.98-.57 1.25-.41 2.35-.9 3.31-1.44.21.03 3.32.47 7.08 2.35Z" class="cls-9"/><path d="M244.08 149.01c-11.19.41-20.66-2.88-27.74-7.19-5.15-3.13-9.05-6.79-11.43-9.96.73-.13 1.44-.24 2.13-.34 25.46-3.86 35.95 5.43 37.03 17.48Z" class="cls-2"/><path d="M216.34 141.82s1.02 3.66-6.5 6.49c-7.52 2.82-11.93-4.72-11.93-4.72.3-.7.61-1.47.89-2.33-7.99 1.88-35.73-15.62-35.73-15.62 2.71-2.59 4.82-5.16 5.87-6.51l.73.28s12.45 10.1 35.24 12.46c2.37 3.17 6.28 6.83 11.43 9.96Z" class="cls-9"/><path d="M207.04 131.51c-.7.11-1.41.22-2.13.35-22.79-2.36-35.24-12.46-35.24-12.46l-.73-.28c.47-.6.73-.96.73-.96 3.83.17 8.17.24 13.04.13 6.19 5.63 14.57 11.34 24.34 13.21ZM198.8 141.26c-.29.86-.59 1.63-.89 2.33-2.82 6.4-6.42 6.97-8.84 8.24-.69.36-1.26.44-1.75.28-1.44-.48-2.27-3.01-4.02-6.85-13.16 1.88-25.7-15.17-25.7-15.17 1.97-1.3 3.83-2.87 5.47-4.44 0 0 27.74 17.5 35.73 15.62Z" class="cls-9"/><path d="m187.32 152.11-.03.08c-4.38 3.1-10.88 1.19-10.88 1.19 2.12-1.67 4.59-4.22 6.88-8.12 1.75 3.85 2.59 6.38 4.02 6.85Z" class="cls-9"/><path d="M157.6 130.08s12.54 17.05 25.7 15.17c-2.29 3.9-4.77 6.46-6.88 8.12-3.03 2.37-5.34 2.92-5.34 2.92s-2.26-.16-6.34-5.8c-7.99-.63-16.84-15.9-16.84-15.9 1.42-.53 3.49-1.38 6.51-2.73a21.52 21.52 0 0 0 3.19-1.79Z" class="cls-9"/><path d="M167.32 87.39h11.27c-3.84 4.69-9.94 15.97-9.94 15.97-.47-11.67-1.33-15.97-1.33-15.97Z" class="cls-2"/><path d="M164.74 150.5c4.08 5.64 6.34 5.8 6.34 5.8-3.99 1.06-13.65-1.33-13.65-1.33 2.39-1.21 5.05-2.73 7.31-4.46Z" class="cls-9"/><path d="M169.67 118.17s-.26.36-.73.96c-1.05 1.34-3.17 3.92-5.87 6.51-1.65 1.57-3.51 3.15-5.47 4.44-1.04.69-2.11 1.3-3.19 1.79-3.02 1.35-5.09 2.2-6.51 2.72-2.33.87-2.87.87-2.87.87.24-1.17-.05-2.77-.25-4.83-.08-.85-.55-1.9-1.3-3.08 0 0 2.55.25 4.79-.68.51-.2.99-.48 1.44-.82 2.41-1.89 12.29-8.28 12.29-8.28v-.13c2.27.22 4.83.4 7.67.53Z" class="cls-5"/><path d="M167.32 87.39s.86 4.31 1.33 15.97c-.77-1.61-2.95-3.38-5.69-5.16-2.4-1.57-5.24-3.17-7.9-4.67-2.54-1.44-4.92-2.8-6.65-3.98l.26-.08c1.72.4 7.84-1.37 18.65-2.07Z" class="cls-2"/><path d="M151.83 45.26s-1.44 4.65-5.43 11.51c-5.15-4.39-8.72-9.89-10.95-15.21-1.27-3.04-2.11-6.01-2.54-8.69-.64-3.92-.73-11.04-.2-17.79l.2.02c1.37-2.59 4.96-5.99 9.27-8.25 2.71-1.42 5.69-2.38 8.58-2.43 7.52-.12 14.22 3.28 15.27 9.27.73 4.15.96 7.79.86 11.16l-1.34-.02c-1.29-1.38-3.75-.5-3.75-.5l-1.86.12c.44 2.29.84 4.93.45 5.33-.71.71-1.53.82-2.36 1.06-.08.02-.16.04-.24.04v.15l-2.48-.15s-4.62 4.19-6.05 4.66c2.85-.48 7.46-2.53 7.76-2.82s1-.41 1.45.09c.45.5 3.45 3.38 3.97 3.61.53.24 1.7 0 1.7 0l.87.35c-1.02 2.4-2.78 4.74-5.89 6.49-.97.54-2.06 1.03-3.31 1.44-1.4.47-2.76.6-3.98.56Zm8.36-9.37h.55c-.12-.15-.85-1.05-1.32-1.04-.56.02-1.07.7-1.07.7s-.21-.64-1.18-.66c-.84 0-2.11 1-2.11 1h.94s1.52 1.32 2.25 1.28c.75-.05 1.93-1.28 1.93-1.28Z" class="cls-6"/><path d="m165.56 24.84 1.34.02c-.04 1.5-.14 2.94-.28 4.34-.21 2.12-.45 4.88-1.6 7.57l-.87-.35s-3.2-4.22-3.6-4.87c-.4-.65-2.08-.48-2.08-.48l-.68-.05v-.15c.09 0 .17-.02.25-.04.83-.24 1.65-.35 2.36-1.06.39-.4 0-3.04-.45-5.33l1.86-.12s2.47-.88 3.75.5Z" class="cls-6"/><path d="M164.15 36.42s-1.17.24-1.7 0c-.52-.23-3.52-3.11-3.97-3.61-.45-.51-1.16-.39-1.45-.09s-4.9 2.35-7.76 2.82c1.44-.48 6.05-4.66 6.05-4.66l2.48.15.68.05s1.68-.17 2.08.48c.4.64 3.6 4.87 3.6 4.87Z" style="fill:#1a1a1a;stroke-width:0"/><path d="M162 117.64v.13s-9.89 6.39-12.3 8.28c-.44.34-.93.62-1.44.82l-.18-.49v-11.01h.21s.53.17 1.62.42c2.05.47 6.06 1.27 12.09 1.85Z" class="cls-5"/><path d="M160.74 35.9h-5.68s1.27-1.01 2.11-1c.97.02 1.18.66 1.18.66s.51-.68 1.07-.7c.48 0 1.21.89 1.32 1.04Z" class="cls-1"/><path d="M155.07 93.52c2.67 1.5 5.5 3.1 7.9 4.67-1.24 3.1-2.84 5.86-4.5 8.23l-10.39 2.65V98.2c3.15-1.53 5.78-3.14 6.98-4.68Z" class="cls-5"/><path d="M156 35.9h4.19s-1.19 1.23-1.93 1.28c-.74.04-2.25-1.28-2.25-1.28Z" class="cls-1"/><path d="m148.08 109.07 10.39-2.65c-4.12 5.91-8.56 9.36-8.56 9.36-1.09-.25-1.62-.41-1.62-.41h-.21v-6.29Z" class="cls-5"/><path d="M164.74 150.5c-2.25 1.73-4.91 3.26-7.31 4.46-3.71 1.87-6.79 2.98-6.79 2.98l-3.99-4.87-1.21-.14c2.12-2.19 2.36-4.5 2.64-7.06.49-4.55-5.2-8.38-5.2-8.38 1.36-.36 1.94-1.03 2.13-2.03s.54 0 2.87-.87 8.85 15.28 16.84 15.91Z" class="cls-9"/><path d="M148.41 89.54c1.73 1.19 4.11 2.54 6.65 3.98-1.21 1.55-3.84 3.16-6.98 4.67-2.35 1.14-4.98 2.22-7.51 3.17-5.81 2.2-11.06 3.72-11.06 3.72-.83-2.76-1.93-5.78-3.3-8.75l2.15-.66 12.96-3.97 7.09-2.16Z" class="cls-5"/><path d="M148.29 89.46s.07.06.12.08l-7.09 2.16-.07-.25c.24-6.51 5.82-15.19 6.93-19.01-.27 7.93.12 17.01.12 17.01Z" class="cls-9"/><path d="m140.86 111.36-.29-10c2.53-.95 5.16-2.02 7.51-3.16v28.17l.18.49c-2.25.93-4.79.68-4.79.68-.59-.94-1.35-1.95-2.23-2.99l-.21-7.32-.17-5.87Z" class="cls-5"/><path d="M58.19 149.05c-2.51-1.44-4.9-2.95-7.1-4.48-6.6-4.55-11.53-9.28-12.96-12.71-4.22-10.1 1.18-19.27 9.63-23.97 2.17-1.21 4.82-2.02 7.67-2.42 4.96-.71 10.55-.19 15.37 1.6 3.21 1.19 6.08 2.94 8.2 5.28 2.16 2.39 4.03 4.77 6.1 7.11 3.61 4.12 7.81 8.17 15.24 12.2 2.33 1.27 4.98 2.53 8.02 3.79 18.33 7.6 34.53 2.03 34.53 2.03s5.69 3.84 5.2 8.38c-.28 2.56-.52 4.87-2.64 7.06-1.65 1.71-4.41 3.36-9.21 5.01-8.06 2.76-25.07 8.58-41.36.51-9.77 2.71-24.58-2.48-36.68-9.39Z" style="fill:#d4aab8;stroke-width:0"/><path d="M85.09 119.47c-2.07-2.35-3.94-4.72-6.1-7.11-2.12-2.34-4.99-4.09-8.2-5.28 0-1.7.6-3.59 1.66-5.71 1.02-2.04 2.48-4.32 4.25-6.85 1.67-2.4 3.63-5.03 5.76-7.95 1-1.36 2.03-2.79 3.1-4.28 1.57-2.2 2.85-4.17 3.93-6.03 2.12-3.63 3.44-6.83 4.66-10.46 1.4-4.2 2.66-8.98 4.79-15.69 4.93-15.51 14.1-19.27 25.38-22.38 0 0 .7 12.5 3.52 21.67 2.82 9.16 8.37 20.44 8.37 20.44l.57.48c-2.97 3.51-6.48 7.17-10.59 10.8l-1.09.16c.76 5.46 1.55 10.06 2.15 11.11 1.32 2.37 1.04 2.59.88 2.59l.21.68-2.15.66c1.37 2.97 2.48 5.99 3.3 8.75.94 3.13 1.52 5.91 1.75 7.89.12 1.04.15 1.87.06 2.39 1.18.86 2.42 1.87 3.65 2.94 2.26 1.96 4.5 4.17 6.27 6.26.87 1.04 1.64 2.05 2.23 2.99.75 1.18 1.21 2.24 1.3 3.08.2 2.06.49 3.66.25 4.83-.19 1-.77 1.67-2.13 2.03 0 0-16.2 5.57-34.53-2.03-3.05-1.26-5.7-2.52-8.02-3.79-7.43-4.03-11.63-8.08-15.24-12.19Zm28.73-7.13c-.08 0-.16.02-.24.02.05.04.23.14.24-.02ZM146.4 56.77c-1 1.73-2.17 3.6-3.51 5.57-5.01-8.44-7.43-20.78-7.43-20.78 2.23 5.32 5.8 10.82 10.95 15.21Z" class="cls-9"/><path d="m141.03 117.23.21 7.32c-1.77-2.09-4-4.3-6.27-6.26l6.05-1.07Z" class="cls-5"/><path d="m140.86 111.36.17 5.87-6.05 1.07a54.744 54.744 0 0 0-3.65-2.94c.08-.53.06-1.36-.06-2.4 3-.33 9.39-1.56 9.59-1.6Z" class="cls-5"/><path d="m140.57 101.36.29 10c-.19.04-6.59 1.27-9.59 1.6-.23-1.98-.81-4.76-1.75-7.89 0 0 5.25-1.52 11.06-3.72Z" class="cls-5"/><path d="M135.45.5c3.92 1.88 6.26 5.07 6.73 6.35-4.31 2.26-7.89 5.66-9.27 8.25l-.2-.02c.45-5.93 1.35-11.57 2.73-14.57Z" class="cls-9"/><path d="M135.45 41.56s2.43 12.34 7.43 20.78c-1.72 2.52-3.74 5.2-6.08 7.98l-.57-.48s-5.56-11.27-8.37-20.44c-2.82-9.16-3.52-21.67-3.52-21.67C125.73 14.25 135.15.92 135.45.5c-1.38 3-2.28 8.65-2.73 14.57-.52 6.75-.44 13.88.2 17.79.43 2.68 1.27 5.65 2.54 8.69ZM113.58 112.36c.08 0 .16 0 .24-.02 0 .16-.19.06-.24.02ZM94.15 65.8c-1.21 3.63-2.54 6.83-4.66 10.46-5.82.15-8.24-8.96-8.38-9.52 1.73 3.74 5.76 7.04 13.04-.94Z" class="cls-9"/><path d="M81.12 66.74c.14.56 2.56 9.67 8.38 9.52-1.08 1.86-2.36 3.83-3.93 6.03-1.07 1.49-2.1 2.92-3.1 4.28-1.6.13-11.51-7.01-11.51-7.01 2.01-.32 4.66-5.8 4.66-5.8 3.76-4.86 5.48-7.05 5.48-7.05v.03Z" class="cls-9"/><path d="M70.96 79.56s9.91 7.14 11.51 7.01c-2.13 2.92-4.09 5.55-5.76 7.95-3.76.4-18.51-10.89-18.51-10.89 3.64-2.5 7.25-7.36 7.25-7.36 2.94-5 3.66-6.27 3.74-6.41-.46.85-.24 10.02 1.77 9.71Z" class="cls-9"/><path d="M58.2 83.62s14.75 11.29 18.51 10.89c-1.78 2.53-3.23 4.8-4.25 6.85-10.2-2.55-19.36-8.83-25.45-15.79l2.96-4.32 5.46-7.96s1.32 9.71 2.78 10.33ZM69.2 69.84s4.86 4.39 6.42 3.92c0 0-2.66 5.47-4.66 5.8-2.01.31-2.23-8.86-1.77-9.71Z" class="cls-9"/><path d="M33.24 84.62c2.13-3.24 5.56-7.95 7.66-8.35 1.32 3.05 3.41 6.25 6.09 9.31 6.09 6.96 15.25 13.24 25.45 15.79-1.06 2.13-1.66 4.01-1.66 5.71-4.82-1.79-10.42-2.31-15.37-1.6-8.51-3.25-18.87-12.71-24.07-17.83.07-.14.82-1.39 1.9-3.03ZM55.42 73.29s8.61 3.6 10.03 2.97c0 0-3.61 4.86-7.25 7.36-1.45-.63-2.78-10.33-2.78-10.33Z" class="cls-9"/><path d="M51.08 144.57c2.2 1.53 4.59 3.04 7.1 4.48-.83.16-25.62 4.84-34.55-3.67 0 0 24.2.95 27.45-.81Z" class="cls-2"/><path d="M49.96 81.25 47 85.57c-2.68-3.06-4.77-6.26-6.09-9.31l8.87 4.86.18.13ZM29.94 130.79c-3.73-3.71-5.15-12.85-3.37-23.71s-7.95-1.93-2.94-13.55l4.39-9.27s1.25 1.35 3.33 3.4c5.2 5.12 15.56 14.58 24.07 17.83-2.85.4-5.5 1.21-7.67 2.42-8.46 4.7-13.86 13.87-9.63 23.97 1.44 3.42 6.37 8.15 12.96 12.71-3.25 1.76-27.45.81-27.45.81 2.2-5.6 4.47-10.67 6.31-14.59Z" class="cls-9"/><path d="m28.02 84.25 5.23.37a72.629 72.629 0 0 0-1.9 3.03c-2.08-2.04-3.33-3.4-3.33-3.4Z" class="cls-9"/><path d="M159.12 43.26c-.97.54-2.06 1.03-3.31 1.44-1.4.47-2.76.6-3.98.56-2.99-.1-5.18-1.26-5.18-1.26M132.91 15.1c1.37-2.59 4.96-5.99 9.27-8.25 2.71-1.42 5.69-2.38 8.58-2.43 7.52-.12 14.22 3.28 15.27 9.27.73 4.15.96 7.79.86 11.16-.04 1.5-.14 2.94-.28 4.34-.21 2.12-.45 4.88-1.6 7.57-1.02 2.4-2.78 4.74-5.89 6.49M148.29 17.1h3.65M161.8 17.93h3.76" class="cls-12"/><path d="M149.26 23.92s3.5-.47 5.14 0M161.8 24.34s2.47-.88 3.75.5M159.22 20.98s.38 1.62.73 3.48c.44 2.29.84 4.93.45 5.33-.71.71-1.53.82-2.36 1.06-.08.02-.16.04-.24.04-.73 0-1.4-.89-1.4-1.21M157.79 31.03l-2.48-.15s-4.62 4.19-6.05 4.66c2.85-.48 7.46-2.53 7.76-2.82s1-.41 1.45.09c.45.5 3.45 3.38 3.97 3.61.53.24 1.7 0 1.7 0s-3.2-4.22-3.6-4.87c-.4-.65-2.08-.48-2.08-.48l-.68-.05Z" class="cls-12"/><path d="M155.07 35.9s1.27-1.01 2.11-1c.97.02 1.18.66 1.18.66s.51-.68 1.07-.7c.48 0 1.21.89 1.32 1.04M155.07 35.9h5.67M156 35.9s1.52 1.32 2.25 1.28c.75-.05 1.93-1.28 1.93-1.28M139.6 23.92c-.59-1.77-3.28-4.23-5.05-3.64-1.76.59-1.76 5.4-1.64 7.76.11 2.35 3.05 3.75 4.46 3.63 1.41-.11 2.23-1.41 2.23-1.41M135.45.5c3.92 1.88 6.26 5.07 6.73 6.35" class="cls-12"/><path d="M146.4 56.77c-5.15-4.39-8.72-9.89-10.95-15.21-1.27-3.04-2.11-6.01-2.54-8.69-.64-3.92-.73-11.04-.2-17.79.45-5.93 1.35-11.57 2.73-14.57M72.45 101.36c-1.06 2.13-1.66 4.01-1.66 5.71M94.15 65.8c-1.21 3.63-2.54 6.83-4.66 10.46-1.08 1.86-2.36 3.83-3.93 6.03-1.07 1.49-2.1 2.92-3.1 4.28-2.13 2.92-4.09 5.55-5.76 7.95-1.78 2.53-3.23 4.8-4.25 6.85" class="cls-12"/><path d="M135.45.5h0c-.29.42-9.72 13.76-11.11 27.24-11.28 3.11-20.44 6.86-25.38 22.38-2.13 6.71-3.4 11.49-4.79 15.68" class="cls-12"/><path d="M124.33 27.74s.7 12.5 3.52 21.67c2.82 9.16 8.37 20.44 8.37 20.44" class="cls-12"/><path d="M151.83 45.27s-1.44 4.64-5.43 11.5c-1 1.73-2.17 3.6-3.51 5.57-1.72 2.52-3.74 5.2-6.08 7.98-2.97 3.51-6.48 7.17-10.59 10.8" class="cls-12"/><path d="M135.45 41.56s2.43 12.34 7.43 20.78M148.29 71.96c-.03.16-.07.31-.12.49-1.1 3.82-6.69 12.5-6.93 19.01" class="cls-12"/><path d="M149.26 62.34c-.64 2.03-.96 5.91-1.09 10.1-.27 7.93.12 17.01.12 17.01.04.03.07.06.12.08 1.73 1.19 4.11 2.54 6.65 3.98 2.67 1.5 5.5 3.1 7.9 4.67 2.73 1.79 4.91 3.55 5.69 5.16-.47-11.67-1.33-15.97-1.33-15.97-10.81.7-16.93 2.47-18.65 2.07M166.22 45.61c5.07 1.14 11.02 4.08 12.85 6.34 1.8 2.25 7.78 17.2 13.38 29.17 2.37 5.09 4.69 9.64 6.59 12.45 6.34 9.39 13.16 18.79 13.16 18.79M154.4 51.95s1.41-5.65 6.34-6.68c1.44-.3 3.38-.14 5.47.33" class="cls-12"/><path d="M192.45 81.12c3.06 6.28 15.75 11.27 23.5 13.39 7.76 2.12 20.79 7.67 24.2 14.8 7.28 15.26 4.4 35.94 3.93 39.69" class="cls-12"/><path d="M244.08 149.01c-1.09-12.05-11.57-21.34-37.03-17.48-.7.1-1.41.21-2.13.34 2.37 3.17 6.28 6.83 11.43 9.96 7.08 4.31 16.55 7.6 27.74 7.19M171.08 105.08s4.3 6.56 11.63 13.22c6.19 5.63 14.57 11.34 24.34 13.21M169.67 119.41s12.45 10.1 35.24 12.46M157.6 130.08s12.54 17.05 25.7 15.17c1.75 3.85 2.59 6.38 4.02 6.85.49.17 1.06.08 1.75-.28 2.42-1.27 6.03-1.84 8.84-8.24.3-.7.61-1.47.89-2.33-7.99 1.88-35.73-15.62-35.73-15.62" class="cls-12"/><path d="M197.91 143.59s4.42 7.54 11.93 4.72c7.52-2.82 6.5-6.49 6.5-6.49M147.9 134.6s8.85 15.27 16.84 15.9c4.08 5.64 6.34 5.8 6.34 5.8s2.31-.54 5.34-2.92c2.12-1.67 4.59-4.22 6.88-8.12" class="cls-12"/><path d="M176.41 153.38s6.5 1.91 10.88-1.19M146.65 153.07l3.99 4.87s3.08-1.11 6.79-2.98c2.39-1.21 5.05-2.73 7.31-4.46M157.43 154.96s9.65 2.39 13.65 1.33M58.19 149.05c12.1 6.91 26.9 12.1 36.68 9.4M85.09 119.47c-2.07-2.35-3.94-4.72-6.1-7.11-2.12-2.34-4.99-4.09-8.2-5.28-4.82-1.79-10.42-2.31-15.37-1.6-2.85.4-5.5 1.21-7.67 2.42-8.46 4.7-13.86 13.87-9.63 23.97 1.44 3.42 6.37 8.15 12.96 12.71 2.2 1.53 4.59 3.04 7.1 4.48M78.05 143.6c5.22 7.27 10.97 11.95 16.82 14.84 16.29 8.07 33.3 2.25 41.36-.51 4.8-1.65 7.56-3.29 9.21-5.01 2.12-2.19 2.36-4.5 2.64-7.06.49-4.55-5.2-8.38-5.2-8.38s-16.2 5.57-34.53-2.03c-3.05-1.26-5.7-2.52-8.02-3.79-7.43-4.03-11.63-8.08-15.24-12.19" class="cls-12"/><path d="M70.77 147.37s7.78 10.24 18.34 7.59M85.06 119.41s0 .03.04.06h0c.85 1.49 13.85 24.03 27.02 27.9M100.18 131.51s.05.06.15.16c1.46 1.52 13.75 13.69 33.26 14.21M131.33 115.37c1.18.86 2.42 1.86 3.65 2.94 2.26 1.96 4.5 4.17 6.27 6.26.87 1.04 1.64 2.05 2.23 2.99.75 1.18 1.21 2.24 1.3 3.08.2 2.06.49 3.66.25 4.83-.19 1-.77 1.67-2.13 2.03M113.58 112.36c.08 0 .16 0 .24-.02 4.03-.31 7.63-.47 10.05-.33 1 .06 1.8.17 2.35.35 1.28.41 3.1 1.51 5.12 3M86.51 115.06c2.14.07 16.12-1.85 27.06-2.71" class="cls-12"/><path d="M91.44 89.46s5.26 7.4 11.2 13.16c4.32 4.2 9.65 6.99 10.3 7.99.74 1.13.91 1.58.88 1.74 0 .16-.19.06-.24.02h0M112.12 86.05s-3.4-7.17-5.05-15.15l-6.11 7.05s7.19 14.91 12.87 19.74c5.68 4.8 10.63 11.62 10.04 14.33h0M115.29 63.2s3.99 20.39 9.04 29.43c.67 1.21 1.3 2.45 1.88 3.7 1.37 2.97 2.48 5.99 3.3 8.75.94 3.13 1.52 5.91 1.75 7.89.12 1.04.15 1.87.06 2.39h0M122.45 59.39s1.3 12.27 2.67 21.89c.76 5.46 1.55 10.06 2.15 11.11 1.32 2.37 1.04 2.59.88 2.59h-.06" class="cls-12"/><path d="m126.21 96.33 2.15-.66 12.96-3.97 7.09-2.16.26-.08M167.32 87.39h11.27c-3.84 4.69-9.94 15.97-9.94 15.97M163.68 62.34s3.87 16.98 14.91 25.05M148.08 98.2c3.15-1.52 5.78-3.13 6.98-4.67M129.51 105.08s5.25-1.52 11.06-3.72c2.53-.95 5.16-2.02 7.51-3.16" class="cls-12"/><path d="m140.57 101.36.29 10 .17 5.87.22 7.33M148.08 98.2v28.18M143.47 127.55s2.55.25 4.79-.68c.51-.2.99-.48 1.44-.82 2.41-1.89 12.29-8.28 12.29-8.28M148.29 115.37s.53.17 1.62.42c2.05.47 6.06 1.27 12.09 1.85 2.26.22 4.82.4 7.66.53 3.83.17 8.17.24 13.04.13" class="cls-12"/><path d="M149.91 115.78s4.43-3.45 8.56-9.36c1.66-2.36 3.26-5.12 4.5-8.23M148.08 109.07l10.39-2.65M140.87 111.36h0c-.19.04-6.59 1.27-9.59 1.6M134.98 118.3l6.05-1.07M169.67 118.17s-.26.36-.73.96c-1.05 1.34-3.17 3.92-5.87 6.51-1.65 1.57-3.51 3.15-5.47 4.44-1.04.69-2.11 1.3-3.19 1.79-3.02 1.35-5.09 2.2-6.51 2.72-2.33.87-2.87.87-2.87.87M58.2 149.04h0s0 0 0 0c-.83.16-25.62 4.84-34.55-3.67 2.2-5.6 4.47-10.67 6.31-14.59 2.36-4.99 4.02-8.12 4.02-8.12" class="cls-12"/><path d="M29.94 130.79c-3.73-3.71-5.15-12.85-3.37-23.71.41-2.52.99-5.12 1.76-7.77 5.01 3.43 12.58 9.77 12.58 9.77" class="cls-12"/><path d="M26.56 107.08s-7.95-1.93-2.94-13.55l4.39-9.27s1.25 1.35 3.33 3.4c5.2 5.12 15.56 14.58 24.07 17.83" class="cls-12"/><path d="M31.34 87.65h0c.07-.15.82-1.4 1.9-3.04 2.13-3.24 5.56-7.95 7.66-8.35 1.32 3.05 3.41 6.25 6.09 9.31 6.09 6.96 15.25 13.24 25.45 15.79h0M40.91 76.26l8.87 4.86M81.12 66.74c1.73 3.74 5.76 7.04 13.04-.94h0M69.2 69.84s4.86 4.39 6.42 3.92c3.76-4.86 5.48-7.05 5.48-7.05" class="cls-12"/><path d="m47 85.57 2.96-4.32 5.46-7.96s8.61 3.6 10.03 2.97c2.94-5 3.66-6.27 3.74-6.41M81.11 66.71v.03c.14.56 2.56 9.67 8.38 9.52M69.2 69.84h0c-.46.86-.24 10.03 1.77 9.72 2.01-.32 4.66-5.8 4.66-5.8" class="cls-12"/><path d="M70.96 79.56s9.91 7.14 11.51 7.01M55.42 73.29S56.74 83 58.2 83.62c3.64-2.5 7.25-7.36 7.25-7.36M58.2 83.62s14.75 11.29 18.51 10.89M28.02 84.25l5.22.37.12.01M159.12 43.26h0c.21.03 3.32.47 7.08 2.35 0 0 0 0 0 0M23.63 145.38s24.2.95 27.45-.81" class="cls-12"/></g></svg>