<?xml version="1.0" encoding="UTF-8"?>
<svg xmlns="http://www.w3.org/2000/svg" viewBox="0 0 270.3 193.29">
  <defs>
    <style>
      .cls-1 {
        fill: #ffec8e;
      }

      .cls-1, .cls-2, .cls-3, .cls-4, .cls-5, .cls-6, .cls-7, .cls-8, .cls-9, .cls-10 {
        stroke-width: 0px;
      }

      .cls-2 {
        fill: #c1272d;
      }

      .cls-11 {
        stroke-miterlimit: 10;
      }

      .cls-11, .cls-12 {
        fill: none;
        stroke: #000;
      }

      .cls-4 {
        fill: #f3edd7;
      }

      .cls-12 {
        stroke-linecap: round;
        stroke-linejoin: round;
      }

      .cls-5 {
        fill: #333;
      }

      .cls-6 {
        fill: #f43f2e;
      }

      .cls-7 {
        fill: #f5d3a6;
      }

      .cls-8 {
        fill: #e4e2cd;
      }

      .cls-9 {
        fill: #65b9b9;
      }

      .cls-10 {
        fill: #d2d296;
      }
    </style>
  </defs>
  <g id="_畳" data-name="畳">
    <g>
      <g>
        <rect class="cls-4" x=".24" y="158.65" width="3.62" height="5.03"/>
        <path class="cls-4" d="m270.05,186.23v6.56h-30.44l15.35-8.63c1.03,1.61,3.11,2.72,5.51,2.72s4.62-1.18,5.62-2.88l3.97,2.23Z"/>
        <path class="cls-4" d="m270.05,175.67v10.56l-3.97-2.23c.38-.65.59-1.38.59-2.14,0-1.3-.62-2.48-1.61-3.38l4.99-2.8Z"/>
        <path class="cls-4" d="m270.05,163.68v11.99l-4.99,2.8c-1.14-1.01-2.77-1.64-4.59-1.64s-3.31.58-4.44,1.51l-26.09-14.66h40.11Z"/>
        <polygon class="cls-4" points="270.05 96.42 270.05 102.18 1.13 102.18 .24 102.18 .24 96.42 270.05 96.42"/>
        <rect class="cls-4" x="266.06" y="158.65" width="3.99" height="5.03"/>
        <path class="cls-4" d="m266.68,181.85c0,.76-.21,1.49-.59,2.14l-5.42-3.05,4.39-2.47c1,.89,1.61,2.07,1.61,3.38Z"/>
        <path class="cls-4" d="m260.67,180.95l5.42,3.05c-1,1.7-3.13,2.88-5.62,2.88s-4.48-1.1-5.51-2.72l5.71-3.21Z"/>
        <rect class="cls-5" x="254.76" y="158.65" width="11.3" height="5.03"/>
        <path class="cls-4" d="m265.06,178.47l-4.39,2.47-4.64-2.6c1.13-.93,2.7-1.51,4.44-1.51,1.82,0,3.45.63,4.59,1.64Z"/>
        <path class="cls-4" d="m260.67,180.95l-5.71,3.21c-.44-.69-.69-1.48-.69-2.31,0-1.37.68-2.6,1.77-3.51l4.64,2.6Z"/>
        <path class="cls-4" d="m229.95,163.68l26.09,14.66c-1.09.9-1.77,2.14-1.77,3.51,0,.83.25,1.62.69,2.31l-15.35,8.63h-41.47l-15.64-8.79c.38-.65.59-1.38.59-2.14,0-1.3-.62-2.48-1.61-3.37l26.33-14.8h22.14Zm-5.96,18.17c0-2.77-2.25-5.02-5.02-5.02s-5.03,2.25-5.03,5.02,2.25,5.03,5.03,5.03,5.02-2.25,5.02-5.03Z"/>
        <polygon class="cls-4" points="254.76 163.68 229.95 163.68 224.25 163.68 224.25 158.65 254.76 158.65 254.76 163.68"/>
        <rect class="cls-5" x="212.94" y="158.65" width="11.3" height="5.03"/>
        <path class="cls-5" d="m218.97,176.83c2.77,0,5.02,2.25,5.02,5.02s-2.25,5.03-5.02,5.03-5.03-2.25-5.03-5.03,2.25-5.02,5.03-5.02Z"/>
        <path class="cls-4" d="m207.8,163.68l-26.33,14.8c-1.14-1.02-2.77-1.65-4.59-1.65s-3.31.58-4.44,1.51l-26.09-14.66h61.44Z"/>
        <polygon class="cls-4" points="182.43 163.68 182.43 158.65 212.94 158.65 212.94 163.68 207.8 163.68 182.43 163.68"/>
        <path class="cls-4" d="m198.14,192.79h-42.12l15.35-8.63c1.03,1.61,3.12,2.72,5.51,2.72s4.62-1.18,5.62-2.88l15.64,8.79Z"/>
        <path class="cls-4" d="m183.09,181.85c0,.76-.21,1.49-.59,2.14l-5.42-3.05,4.39-2.47c1,.89,1.61,2.07,1.61,3.37Z"/>
        <path class="cls-4" d="m177.08,180.95l5.42,3.05c-1,1.7-3.13,2.88-5.62,2.88s-4.48-1.1-5.51-2.72l5.71-3.21Z"/>
        <rect class="cls-5" x="171.13" y="158.65" width="11.3" height="5.03"/>
        <path class="cls-4" d="m176.88,176.83c1.82,0,3.45.63,4.59,1.65l-4.39,2.47-4.64-2.6c1.13-.93,2.7-1.51,4.44-1.51Z"/>
        <path class="cls-4" d="m177.08,180.95l-5.71,3.21c-.44-.69-.69-1.48-.69-2.31,0-1.37.68-2.6,1.77-3.51l4.64,2.6Z"/>
        <path class="cls-4" d="m146.36,163.68l26.09,14.66c-1.09.9-1.77,2.14-1.77,3.51,0,.83.25,1.62.69,2.31l-15.35,8.63h-41.47l-15.64-8.79c.38-.65.59-1.38.59-2.14,0-1.3-.62-2.48-1.61-3.37l26.33-14.8h22.14Zm-7.01,18.17c0-2.77-2.25-5.02-5.02-5.02s-5.03,2.25-5.03,5.02,2.25,5.03,5.03,5.03,5.02-2.25,5.02-5.03Z"/>
        <polygon class="cls-4" points="171.13 163.68 146.36 163.68 140.61 163.68 140.61 158.65 171.13 158.65 171.13 163.68"/>
        <rect class="cls-5" x="129.31" y="158.65" width="11.3" height="5.03"/>
        <path class="cls-5" d="m134.33,176.83c2.77,0,5.02,2.25,5.02,5.02s-2.25,5.03-5.02,5.03-5.03-2.25-5.03-5.03,2.25-5.02,5.03-5.02Z"/>
        <path class="cls-4" d="m124.22,163.68l-26.33,14.8c-1.14-1.02-2.77-1.65-4.59-1.65s-3.31.58-4.44,1.51l-26.09-14.66h61.44Z"/>
        <polygon class="cls-4" points="129.31 163.68 124.22 163.68 98.8 163.68 98.8 158.65 129.31 158.65 129.31 163.68"/>
        <path class="cls-4" d="m114.55,192.79h-42.12l15.35-8.63c1.03,1.61,3.11,2.72,5.51,2.72s4.62-1.18,5.62-2.88l15.64,8.79Z"/>
        <path class="cls-4" d="m99.5,181.85c0,.76-.21,1.49-.59,2.14l-5.42-3.05,4.39-2.47c1,.89,1.61,2.07,1.61,3.37Z"/>
        <path class="cls-4" d="m93.49,180.95l5.42,3.05c-1,1.7-3.13,2.88-5.62,2.88s-4.48-1.1-5.51-2.72l5.71-3.21Z"/>
        <rect class="cls-5" x="87.5" y="158.65" width="11.3" height="5.03"/>
        <path class="cls-4" d="m93.3,176.83c1.82,0,3.45.63,4.59,1.65l-4.39,2.47-4.64-2.6c1.13-.93,2.7-1.51,4.44-1.51Z"/>
        <path class="cls-4" d="m93.49,180.95l-5.71,3.21c-.44-.69-.69-1.48-.69-2.31,0-1.37.68-2.6,1.77-3.51l4.64,2.6Z"/>
        <path class="cls-4" d="m62.77,163.68l26.09,14.66c-1.09.9-1.77,2.14-1.77,3.51,0,.83.25,1.62.69,2.31l-15.35,8.63H30.78l-15.64-8.79c.38-.65.59-1.38.59-2.14,0-1.3-.62-2.48-1.61-3.37l26.33-14.8h22.34Zm-8.52,18.17c0-2.77-2.25-5.02-5.02-5.02s-5.03,2.25-5.03,5.02,2.25,5.03,5.03,5.03,5.02-2.25,5.02-5.03Z"/>
        <polygon class="cls-4" points="87.5 163.68 62.77 163.68 56.98 163.68 56.98 158.65 87.5 158.65 87.5 163.68"/>
        <rect class="cls-5" x="45.68" y="158.65" width="11.3" height="5.03"/>
        <path class="cls-5" d="m49.23,176.83c2.77,0,5.02,2.25,5.02,5.02s-2.25,5.03-5.02,5.03-5.03-2.25-5.03-5.03,2.25-5.02,5.03-5.02Z"/>
        <polygon class="cls-4" points="45.68 163.68 40.44 163.68 15.17 163.68 15.17 158.65 45.68 158.65 45.68 163.68"/>
        <path class="cls-4" d="m30.78,192.79H.24v-6.52l3.76-2.11c1.03,1.61,3.12,2.72,5.51,2.72s4.62-1.18,5.62-2.88l15.64,8.79Z"/>
        <path class="cls-4" d="m15.72,181.85c0,.76-.21,1.49-.59,2.14l-5.42-3.05,4.39-2.47c1,.89,1.61,2.07,1.61,3.37Z"/>
        <rect class="cls-5" x="3.86" y="158.65" width="11.3" height="5.03"/>
        <path class="cls-4" d="m9.72,180.95l5.42,3.05c-1,1.7-3.13,2.88-5.62,2.88s-4.48-1.1-5.51-2.72l5.71-3.21Z"/>
        <path class="cls-4" d="m9.52,176.83c1.82,0,3.45.63,4.59,1.65l-4.39,2.47-4.64-2.6c1.13-.93,2.7-1.51,4.44-1.51Z"/>
        <path class="cls-4" d="m9.72,180.95l-5.71,3.21c-.44-.69-.69-1.48-.69-2.31,0-1.37.68-2.6,1.77-3.51l4.64,2.6Z"/>
        <path class="cls-4" d="m.24,175.63l4.84,2.72c-1.09.9-1.77,2.14-1.77,3.51,0,.83.25,1.62.69,2.31l-3.76,2.11v-10.64Z"/>
        <polygon class="cls-10" points="212.94 158.65 182.43 158.65 171.13 158.65 140.61 158.65 129.31 158.65 98.8 158.65 87.5 158.65 56.98 158.65 45.68 158.65 15.17 158.65 3.86 158.65 .24 158.65 .24 102.18 1.13 102.18 270.05 102.18 270.05 158.65 266.06 158.65 254.76 158.65 224.25 158.65 212.94 158.65"/>
        <path class="cls-4" d="m.24,163.68h40.19l-26.33,14.8c-1.14-1.02-2.77-1.65-4.59-1.65s-3.31.58-4.44,1.51l-4.84-2.72v-11.94Z"/>
      </g>
      <g>
        <polyline class="cls-11" points="270.05 192.79 239.61 192.79 198.14 192.79 156.02 192.79 114.55 192.79 72.43 192.79 30.78 192.79 .24 192.79"/>
        <line class="cls-11" x1=".24" y1="96.42" x2="270.05" y2="96.42"/>
        <line class="cls-11" x1=".24" y1="102.18" x2="270.05" y2="102.18"/>
        <line class="cls-11" x1="266.06" y1="158.65" x2="270.05" y2="158.65"/>
        <line class="cls-11" x1="224.25" y1="158.65" x2="254.76" y2="158.65"/>
        <line class="cls-11" x1="182.43" y1="158.65" x2="212.94" y2="158.65"/>
        <line class="cls-11" x1="140.61" y1="158.65" x2="171.13" y2="158.65"/>
        <line class="cls-11" x1="98.8" y1="158.65" x2="129.31" y2="158.65"/>
        <line class="cls-11" x1="56.98" y1="158.65" x2="87.5" y2="158.65"/>
        <line class="cls-11" x1="15.17" y1="158.65" x2="45.68" y2="158.65"/>
        <line class="cls-11" x1=".24" y1="158.65" x2="3.86" y2="158.65"/>
        <line class="cls-11" x1="266.06" y1="163.68" x2="270.05" y2="163.68"/>
        <polyline class="cls-11" points="224.25 163.68 229.95 163.68 254.76 163.68"/>
        <polyline class="cls-11" points="182.43 163.68 207.8 163.68 212.94 163.68"/>
        <polyline class="cls-11" points="140.61 163.68 146.36 163.68 171.13 163.68"/>
        <polyline class="cls-11" points="98.8 163.68 124.22 163.68 129.31 163.68"/>
        <polyline class="cls-11" points="56.98 163.68 62.77 163.68 87.5 163.68"/>
        <polyline class="cls-11" points="15.17 163.68 40.44 163.68 45.68 163.68"/>
        <line class="cls-11" x1=".24" y1="163.68" x2="3.86" y2="163.68"/>
        <polyline class="cls-11" points="72.43 192.79 87.78 184.16 93.49 180.95 97.89 178.48 124.22 163.68"/>
        <polyline class="cls-11" points="114.55 192.79 98.91 183.99 93.49 180.95 88.86 178.34 62.77 163.68"/>
        <path class="cls-11" d="m139.35,181.85c0,2.78-2.25,5.03-5.02,5.03s-5.03-2.25-5.03-5.03,2.25-5.02,5.03-5.02,5.02,2.25,5.02,5.02Z"/>
        <path class="cls-11" d="m223.99,181.85c0,2.78-2.25,5.03-5.02,5.03s-5.03-2.25-5.03-5.03,2.25-5.02,5.03-5.02,5.02,2.25,5.02,5.02Z"/>
        <path class="cls-11" d="m97.89,178.48c1,.89,1.61,2.07,1.61,3.37,0,.76-.21,1.49-.59,2.14-1,1.7-3.13,2.88-5.62,2.88s-4.48-1.1-5.51-2.72c-.44-.69-.69-1.48-.69-2.31,0-1.37.68-2.6,1.77-3.51,1.13-.93,2.7-1.51,4.44-1.51,1.82,0,3.45.63,4.59,1.65Z"/>
        <polyline class="cls-11" points=".24 186.27 4 184.16 9.72 180.95 14.11 178.48 40.44 163.68"/>
        <polyline class="cls-11" points="30.78 192.79 15.13 183.99 9.72 180.95 5.08 178.34 .24 175.63"/>
        <path class="cls-11" d="m14.11,178.48c1,.89,1.61,2.07,1.61,3.37,0,.76-.21,1.49-.59,2.14-1,1.7-3.13,2.88-5.62,2.88s-4.48-1.1-5.51-2.72c-.44-.69-.69-1.48-.69-2.31,0-1.37.68-2.6,1.77-3.51,1.13-.93,2.7-1.51,4.44-1.51,1.82,0,3.45.63,4.59,1.65Z"/>
        <polyline class="cls-11" points="156.02 192.79 171.37 184.16 177.08 180.95 181.48 178.48 207.8 163.68"/>
        <polyline class="cls-11" points="198.14 192.79 182.5 183.99 177.08 180.95 172.45 178.34 146.36 163.68"/>
        <path class="cls-11" d="m181.48,178.48c1,.89,1.61,2.07,1.61,3.37,0,.76-.21,1.49-.59,2.14-1,1.7-3.13,2.88-5.62,2.88s-4.48-1.1-5.51-2.72c-.44-.69-.69-1.48-.69-2.31,0-1.37.68-2.6,1.77-3.51,1.13-.93,2.7-1.51,4.44-1.51,1.82,0,3.45.63,4.59,1.65Z"/>
        <polyline class="cls-11" points="239.61 192.79 254.96 184.16 260.67 180.95 265.06 178.47 270.05 175.67"/>
        <polyline class="cls-11" points="270.05 186.23 266.09 183.99 260.67 180.95 256.03 178.34 229.95 163.68"/>
        <path class="cls-11" d="m265.06,178.47c1,.89,1.61,2.07,1.61,3.38,0,.76-.21,1.49-.59,2.14-1,1.7-3.13,2.88-5.62,2.88s-4.48-1.1-5.51-2.72c-.44-.69-.69-1.48-.69-2.31,0-1.37.68-2.6,1.77-3.51,1.13-.93,2.7-1.51,4.44-1.51,1.82,0,3.45.63,4.59,1.64Z"/>
        <path class="cls-11" d="m54.25,181.85c0,2.78-2.25,5.03-5.02,5.03s-5.03-2.25-5.03-5.03,2.25-5.02,5.03-5.02,5.02,2.25,5.02,5.02Z"/>
        <rect class="cls-11" x="3.86" y="158.65" width="11.3" height="5.03"/>
        <rect class="cls-11" x="45.68" y="158.65" width="11.3" height="5.03"/>
        <rect class="cls-11" x="87.5" y="158.65" width="11.3" height="5.03"/>
        <rect class="cls-11" x="129.31" y="158.65" width="11.3" height="5.03"/>
        <rect class="cls-11" x="171.13" y="158.65" width="11.3" height="5.03"/>
        <rect class="cls-11" x="212.94" y="158.65" width="11.3" height="5.03"/>
        <rect class="cls-11" x="254.76" y="158.65" width="11.3" height="5.03"/>
      </g>
    </g>
  </g>
  <g id="_レイヤー_2" data-name="レイヤー 2">
    <g>
      <path class="cls-1" d="m213.07,69.18c6.9.76,22.89,9.14,25.59,12.16,2.71,3,7.22,19.24,6.47,32.33,0,0-16.99-9.62-36.69-24.06-12.31-9.02-22.2-24.25-27.91-34.42-2.48-4.44-4.17-7.92-4.9-9.49-.28-.59-.42-.91-.42-.91,0,0,6.68.05,12.78.06,4.09,0,7.93,0,9.32-.06,3.46-.15,6.32-1.95,8.43,5.57,1.22,4.35,3.14,10.15,7.32,18.83h0Z"/>
      <path class="cls-6" d="m181.69,63.54c-1.7-4.84-2.69-8.25-2.69-8.25v-.11h1.53c5.71,10.18,15.6,25.41,27.91,34.43,19.7,14.44,36.69,24.06,36.69,24.06-6.19.4-11.52.21-16.16-.43-19.78-2.75-26.85-13.75-33.92-22.27-5.5-6.65-10.46-19.13-13.37-27.41Z"/>
      <path class="cls-9" d="m167.98,104.39c-.05-1.7-.05-3.4-.02-5.05.06-3.6.27-6.9.34-9.06.06-1.83.81-3.14,1.9-4.12,1.06-.95,2.43-1.6,3.78-2.11h0c1.68-.64,3.32-1.07,4.3-1.63.31-.18.56-.37.72-.59,1.43-1.98,2.62-17.53,2.69-18.28,2.91,8.29,7.86,20.76,13.37,27.41,7.07,8.53,14.14,19.52,33.92,22.27,0,0,9.82,6.6,9.81,12.13-.04,9.46-5.64,11.05-9.59,12.29-6.17,1.93-20.42.11-26.54-1.59-8.23,2.45-19.54,4.84-27.85,4.97-7.87.13-11.45-2.21-13.19-5.86-.58-1.22-.96-2.59-1.23-4.06-.34-1.95-.5-4.09-.67-6.32-.36-4.87,1.38-9.59,3.45-13.38h0c1.72-3.15,3.67-5.65,4.81-7.02Z"/>
      <path class="cls-5" d="m200.77,2.98c2.7,1.21,4.59,3.53-.68,5.8-1.78.76-10.75-.92-13.95-1.59-.51-.11-.97.16-1.3.57-1.92,2.39-1.44,3.6-1.25,7.33.08,1.38.96,10.68.12,12.11h-.07c-.26-2.43-.76-4.64-.93-5.72-.38-2.45-2.02-7.07-1.84-8.91-5.34-.34-9.93-1.25-11.24-1.73-3.13,3-7.53,5.07-7.53,5.07,0,0-4.81,0-5.79.9,1.05-1.57,10.65-10.24,11.92-11.05,5.53-3.53,12.48-4.66,15.05-5.19,2.55-.52,15.92,1.71,17.47,2.4Z"/>
      <path class="cls-1" d="m187.99,44.79v.06c-6.1,0-12.78-.06-12.78-.06,0,0,.14.32.42.91-2.2-1.08-3.47-.97-3.93-.87,4.53-1.42,6.61-4.4,9.51-7.89,0,0,5.43,6.49,6.79,7.85Z"/>
      <path class="cls-7" d="m166.12,31.56l-.16-.08c-1.06.45-3.23,1.43-9.63,2.55,1.5.45,5.33,1.14,9.84-.06,0,0,1.03-.12,2.39.26,1.67,1.95,5.5,3.87,9.7,4.17-4.81-1.13-8.25-6.09-8.25-6.09l-4.06-.45c.05-.1.11-.19.16-.3Zm2.13,13.97c-.71.09-1.48.14-2.29.17-7.15.22-11.21-5.57-13.01-8.88-.82-1.5-1.14-2.98-1.25-4.14-.13-1.39.04-2.32.04-2.32.08-1.4.3-2.79.6-4.13-.23,0-.51.03-.87.04-1.63.11-1.42-3.64-.92-4.77.42-.95,2.23-1.21,3.15.27,1.01-2.6,2.12-4.49,2.62-4.96.98-.9,5.79-.9,5.79-.9,0,0,4.4-2.07,7.53-5.07,1.31.49,5.9,1.39,11.24,1.73-.19,1.84,1.46,6.46,1.84,8.91.17,1.08.67,3.29.93,5.72.33,3.12.25,6.61-1.45,8.56-.34.4-.67.79-1,1.18-2.9,3.49-4.97,6.47-9.51,7.89-.05,0-.11.03-.16.04-.04,0-.05.02-.05.02-.95.28-2.02.5-3.23.64Zm1.88-8.13s-2.2-1.17-2.77-.94c-.28.11-1.09.27-1.09.27l-.59-.25-.62-.26c-.63-.27-2.54.52-2.54.52l-.12.04s2.42,2.03,3.14,2.25c.72.21,3.45-.63,4.59-1.64Z"/>
      <path class="cls-1" d="m181.69,63.54c-.06.75-1.25,16.3-2.69,18.28-.16.22-.41.42-.72.59l-.02-.03v-27.22h.73v.12s.99,3.41,2.69,8.25Z"/>
      <path class="cls-7" d="m168.58,51.78h-.59c-1.13,0-1.63-.88-1.64-1.56-.27-.13-.8-.43-1-.85-.27-.56.54-2.15.88-2.53.24-.27,1.39-.95,2.02-1.32,1.21-.13,2.28-.35,3.23-.64.02,0,.04,0,.05-.02.05-.02.11-.04.16-.04.46-.11,1.73-.21,3.93.87.73,1.57,2.42,5.04,4.9,9.49h-1.53s-.73-.02-.73-.02h-.5c-.8.34-2.78-.11-3.33-.18s-1.44-2.65-1.44-2.65l-.79.46.44-.04c.44-.04.08,1.09-.13,1.3-.22.21-.98.3-2.14.1-.19-.04-.34-.09-.46-.17-.26-.16-.34-.39-.33-.62.25-.07.24-.24.1-.46-.23-.34-.8-.81-1.11-1.13Z"/>
      <path class="cls-8" d="m178.27,82.39l.02.03c-.98.57-2.62.99-4.3,1.63-.14-7.62.59-21.43.45-29.05.55.07,2.53.52,3.33.18h.5v27.22Z"/>
      <path class="cls-8" d="m174.44,54.99c.14,7.62-.59,21.43-.45,29.05h0c-1.35.52-2.72,1.17-3.78,2.12l-.05-.05-.22-32.11c.11.08.27.13.46.17,1.16.2,1.92.11,2.14-.1.21-.21.57-1.33.13-1.3l-.44.04.79-.46s.89,2.58,1.44,2.65Z"/>
      <path class="cls-3" d="m178.27,38.4c-4.21-.3-8.03-2.22-9.7-4.17-1.36-.38-2.39-.26-2.39-.26-4.51,1.2-8.34.51-9.84.06,6.4-1.12,8.57-2.1,9.63-2.55l.16.08c-.05.11-.11.2-.16.3l4.06.45s3.44,4.96,8.25,6.09Z"/>
      <path class="cls-1" d="m159.64,102.12c-5.05.19-13.66-.64-13.66-.64.66-3.52,1.24-6.96,1.45-9.84.21-2.82-.64-4.57-2.3-5.53,0,0-.3-14.55-.3-22.82s-8.8-24.89-8.8-24.89l.31-2.41c3.02.74,5.66,1.58,5.66,1.58,2.6,4.88,5.27,9.97,9.65,13.42,3.22,2.54,8.89,2.75,17.72,2.41.09,0,.17,0,.22-.03,0,.23.07.46.33.62l.22,32.11.05.05c-1.09.98-1.84,2.29-1.9,4.12-.07,2.16-.27,5.46-.34,9.06-.57.12-3.44.8-4.86,2.15-.41.39-1.72.57-3.46.64Z"/>
      <path class="cls-1" d="m169.69,52.91c-.05.13-.1.29-.1.46-.05.02-.13.03-.22.03-8.83.34-14.51.12-17.72-2.41-4.38-3.45-7.05-8.54-9.65-13.42-.15-.29.03-.64.34-.69,2.86-.4,5.87-2.54,5.87-2.54,2.63,5.34,2.77,13.45,17.13,15.04.2.42.73.72,1,.85,0,.68.51,1.56,1.64,1.56h.59c.32.32.88.79,1.11,1.13Z"/>
      <path class="cls-1" d="m167.96,99.33c-.04,1.65-.04,3.36.02,5.05-1.14,1.38-3.08,3.88-4.81,7.02h0c-2.85-.25-3.49-5.67-3.53-9.29,1.74-.07,3.06-.26,3.46-.64,1.42-1.35,4.28-2.02,4.86-2.15Z"/>
      <path class="cls-1" d="m168.25,45.53c-.64.36-1.78,1.05-2.02,1.32-.34.38-1.15,1.97-.88,2.53-14.37-1.59-14.5-9.69-17.13-15.04l3.44-1.65h.05c.11,1.16.42,2.63,1.25,4.13,1.8,3.31,5.87,9.1,13.01,8.88.81-.03,1.58-.08,2.29-.17Z"/>
      <path class="cls-2" d="m167.49,36.88c.57-.23,2.77.94,2.77.94-1.15,1.02-3.88,1.86-4.59,1.64-.72-.22-3.14-2.25-3.14-2.25l.12-.04s1.91-.79,2.54-.52l.62.26.59.25s.8-.16,1.09-.27Z"/>
      <path class="cls-1" d="m160.39,131.11c.27,1.48.64,2.84,1.23,4.06,0,0-1.43.59-6.08,1.26-.71.11-1.49.2-2.36.31-10.15,1.47-13.76-6.77-13.76-8.68,0-.57.36-1.78.87-3.22,1.24-3.45,3.32-8.16,3.32-8.16.29,6.4,3.27,14.35,8.44,14.44,6.32.11,8.34,0,8.34,0Z"/>
      <path class="cls-1" d="m159.72,124.79c.17,2.23.33,4.36.67,6.32,0,0-2.02.11-8.34,0-5.17-.09-8.15-8.04-8.44-14.44-.07-1.43,0-2.77.2-3.95.59-3.38,1.44-7.36,2.16-11.25,0,0,8.6.83,13.66.64.04,3.61.67,9.04,3.53,9.29-2.07,3.79-3.81,8.52-3.45,13.38Z"/>
      <path class="cls-9" d="m153.18,136.75c.87-.11,1.65-.2,2.36-.31-2.48,2.65-7.77,5.27-19.73,5.27-4.11,0-8.44-1.25-12.35-2.88-7.49-3.13-13.46-7.68-13.46-7.68,3.29-.47,5.73-1.29,6.75-2.53,0,0,19.98-4.43,23.46-3.81.03,0,.05,0,.08.02-.51,1.44-.87,2.66-.87,3.22,0,1.92,3.61,10.15,13.76,8.68Z"/>
      <path class="cls-1" d="m53.96,119.49c2.62-4.48,5.73-9.32,8.54-13.2.78-1.07,1.62-2.01,2.5-2.81,6.52-6.03,15.17-5.39,15.17-5.39-1.43,3.46-3.23,11.66-3.23,11.66,16.09-5.8,35.71-19.48,40.15-26.62,2.78-3.76,10.9-2.41,11.72,2.97v.08c1.51-.04,3.05-.12,4.51-.26,1.11-.1,2.18-.23,3.16-.39,3.7-.6,6.72-.56,8.65.57,1.65.96,2.51,2.71,2.3,5.53-.21,2.88-.79,6.33-1.45,9.84-.72,3.89-1.57,7.86-2.16,11.25-.2,1.18-.27,2.52-.2,3.95,0,0-2.08,4.72-3.32,8.16-.03,0-.05,0-.08-.02-.51-.11-3.36-.76-5.53-1.31-2.4-.6-12.25-6.99-14.29-8.2-.4-.24-.76-.37-1.1-.42-1.4-.22-2.28.95-2.55,2.16-.34,1.5.11,4.59,0,11.58-1.02,1.24-3.46,2.06-6.75,2.53-4.68.68-11.08.66-17.49.15-.6-.04-1.21-.1-1.81-.15-11.5-1.08-18.04-.04-42.86,1.31,0-1.67,2.64-7.01,6.12-12.97Z"/>
      <path class="cls-1" d="m133.32,85.93c-1.46.13-2.99.21-4.51.26v-.08c-.82-5.38-8.94-6.73-11.72-2.97-4.44,7.14-24.07,20.82-40.15,26.62,0,0,1.8-8.2,3.23-11.66,1.43-3.45,2.85-21.24,2.85-21.24.11-11.5,13.65-28.19,21.32-34.29,2.46.58,5.02,1.83,7.62,3.62,8.01,5.5,16.61,16.19,25.2,28.86,0,0-.45-3.95-2.84-14.55-2.39-10.6-12.39-25.56-12.39-25.56,1.92-.53,4.74-.49,9.02,0,1.61.18,3.56.59,5.38,1.04l-.31,2.41s8.8,16.62,8.8,24.89.3,22.82.3,22.82c-1.93-1.12-4.95-1.17-8.65-.57-.98.16-2.05.29-3.16.39Z"/>
      <path class="cls-6" d="m119.3,114.89c.34.05.7.19,1.1.42,2.03,1.21,11.88,7.6,14.29,8.2,2.17.55,5.02,1.19,5.53,1.31-3.48-.62-23.46,3.81-23.46,3.81.11-7-.34-10.08,0-11.58.27-1.21,1.16-2.38,2.55-2.16Z"/>
      <path class="cls-6" d="m134.33,60.5c2.39,10.6,2.84,14.55,2.84,14.55-8.59-12.67-17.18-23.36-25.2-28.86.34-2.8,6.36-5.19,9.97-11.25,0,0,9.99,14.96,12.39,25.56Z"/>
      <path class="cls-9" d="m110,131.15s5.97,4.55,13.46,7.68c0,0-11.33,4.23-22.39,4.7-11.05.47-20.7-7.09-20.7-7.09,4.22-2.24,9.41-4.56,12.13-5.12h0c6.41.5,12.81.52,17.49-.16Z"/>
      <path class="cls-6" d="m92.5,131.3h0c-2.72.57-7.91,2.89-12.13,5.13-2.43,1.29-4.53,2.56-5.69,3.46-3.16,2.48-4.74,1.81-7.9.34-3.15-1.47-18.95-7.77-18.95-7.77,24.82-1.35,31.35-2.39,42.86-1.31.6.05,1.21.11,1.81.15Z"/>
      <path class="cls-1" d="m83.02,76.86s-1.42,17.78-2.85,21.24c0,0-8.65-.64-15.17,5.39h0c-.67-2.37-11.3-5.63-11.3-5.63v-.02c1.78-.15,4.38-1.63,6.76-4.84,0,0-.52-.66-1.87-1.44,1.09-.6,8.98-4.99,15.27-8.27,6.77-3.53,9.17-6.43,9.17-6.43Z"/>
      <path class="cls-1" d="m65,103.48h0c-.88.81-1.72,1.75-2.5,2.82-2.81,3.88-5.92,8.72-8.54,13.2-.27.03-5.64.59-8.83,1.47-3.27.9-24.25,1.35-27.97,1.75s-2.1-1.98-2.1-1.98c6.84-13.99,25.11-32.03,33.91-31.58.39.02.77.04,1.14.08.07.84.69,7.28,2.01,8.26.38.28.93.41,1.58.34v.02s10.63,3.26,11.3,5.62Z"/>
      <path class="cls-1" d="m58.59,91.56c1.35.78,1.87,1.44,1.87,1.44-2.38,3.21-4.97,4.69-6.76,4.84-.65.06-1.2-.06-1.58-.34-1.33-.98-1.94-7.42-2.01-8.26,4.24.35,6.92,1.41,8.48,2.32Z"/>
    </g>
    <path class="cls-12" d="m156.33,16.82c1.05-1.57,10.65-10.24,11.92-11.05,5.53-3.53,12.48-4.66,15.05-5.19,2.55-.52,15.92,1.71,17.47,2.4,2.7,1.21,4.59,3.53-.68,5.8-1.78.76-10.75-.92-13.95-1.59-.51-.11-.97.16-1.3.57-1.92,2.39-1.44,3.6-1.25,7.33.08,1.38.96,10.68.12,12.11"/>
    <path class="cls-12" d="m167.62,26.28c-.21,1.99-.7,3.76-1.49,5.28-.05.11-.11.2-.16.3l3.7.56c-.15-1.93.41-4.05.89-6.13"/>
    <path class="cls-12" d="m158.75,25.16s4.66-.67,5.79.38"/>
    <path class="cls-12" d="m174,28.73s3.31-.34,5.42,2.07"/>
    <path class="cls-12" d="m176.72,22.53s6.48,1.71,6.58,2.63"/>
    <path class="cls-12" d="m165.96,18.18s-4.66-.53-7.75,0"/>
    <path class="cls-12" d="m162.4,36.94s2.42,2.32,3.14,2.58c.72.24,3.45-.72,4.59-1.88,0,0-2.2-1.33-2.77-1.07-.28.13-1.09.31-1.09.31l-.59-.28-.62-.29c-.63-.3-2.54.6-2.54.6"/>
    <path class="cls-12" d="m163.1,37.11s1.83,1.47,6.6.71"/>
    <path class="cls-12" d="m151.65,32.68l-3.44,1.65c2.63,5.34,2.77,13.45,17.13,15.04"/>
    <path class="cls-12" d="m181.2,36.94s5.43,6.49,6.79,7.85"/>
    <path class="cls-12" d="m213.07,69.18c3.05,6.34,7.32,14.21,13.42,24.18"/>
    <path class="cls-12" d="m213.06,69.18h0c6.9.76,22.89,9.14,25.59,12.16,2.71,3,7.22,19.24,6.47,32.33,0,0-16.99-9.62-36.69-24.06-12.31-9.02-22.2-24.25-27.91-34.42-2.48-4.44-4.17-7.92-4.9-9.49-.28-.59-.42-.91-.42-.91,0,0,6.68.05,12.78.06,4.09,0,7.93,0,9.32-.06,3.46-.15,6.32-1.95,8.43,5.57,1.22,4.35,3.14,10.15,7.32,18.83"/>
    <path class="cls-12" d="m174.44,54.99c.14,7.62-.59,21.43-.45,29.05"/>
    <line class="cls-12" x1="169.92" y1="53.99" x2="170.14" y2="86.11"/>
    <line class="cls-12" x1="178.27" y1="55.17" x2="178.27" y2="82.39"/>
    <path class="cls-12" d="m179,55.29s.99,3.41,2.69,8.25c2.91,8.29,7.86,20.76,13.37,27.41,7.07,8.53,14.14,19.52,33.92,22.27,4.64.64,9.97.83,16.16.43"/>
    <path class="cls-12" d="m173.98,84.05c-1.35.51-2.72,1.16-3.78,2.11-1.09.98-1.84,2.29-1.9,4.12-.07,2.16-.27,5.46-.34,9.06-.04,1.65-.04,3.36.02,5.05.17,5.83.95,11.42,3.36,13.41"/>
    <path class="cls-12" d="m181.69,63.52v.03c-.06.75-1.25,16.3-2.69,18.28-.16.22-.41.42-.72.59-.98.57-2.62.99-4.3,1.63"/>
    <path class="cls-12" d="m163.16,111.41c-2.07,3.79-3.81,8.52-3.45,13.38.17,2.23.33,4.36.67,6.32.27,1.48.64,2.84,1.23,4.06,1.74,3.65,5.32,5.99,13.19,5.86,8.3-.13,19.62-2.53,27.85-4.97,5.65-1.68,9.86-3.37,10.64-4.39"/>
    <path class="cls-12" d="m167.98,104.39c-1.14,1.38-3.08,3.88-4.81,7.02"/>
    <path class="cls-12" d="m202.65,136.06c6.12,1.71,20.37,3.53,26.54,1.59,3.95-1.24,9.55-2.83,9.59-12.29.02-5.53-9.81-12.13-9.81-12.13"/>
    <path class="cls-12" d="m168.68,45.28s-.17.1-.42.25c-.64.36-1.78,1.05-2.02,1.32-.34.38-1.15,1.97-.88,2.53.2.42.73.72,1,.85.09.04.15.06.15.06"/>
    <path class="cls-12" d="m168.18,47.6s-1.5,1.54-1.77,2.2c-.04.11-.07.27-.07.42,0,.68.51,1.56,1.64,1.56.1,0,.2,0,.31-.02"/>
    <path class="cls-12" d="m148.21,34.34s-3,2.15-5.87,2.54c-.32.04-.49.4-.34.69,2.6,4.88,5.27,9.97,9.65,13.42,3.22,2.54,8.89,2.75,17.72,2.41.09,0,.17,0,.22-.03.25-.07.24-.24.1-.46-.23-.34-.8-.81-1.11-1.13-.14-.15-.23-.27-.22-.33.07-.3,1.52-2.87,1.52-2.87"/>
    <path class="cls-12" d="m171.61,49.38s-1.7,3.1-1.83,3.33c-.03.04-.06.11-.09.2-.05.13-.1.29-.1.46,0,.23.07.46.33.62.11.08.27.13.46.17,1.16.2,1.92.11,2.14-.1.21-.21.57-1.33.13-1.3l-.44.04.79-.46s.89,2.58,1.44,2.65,2.53.52,3.33.18h1.24s1.53.02,1.53.02h0"/>
    <path class="cls-12" d="m171.7,44.83c.46-.11,1.73-.21,3.93.87"/>
    <path class="cls-12" d="m171.49,44.89s.02,0,.05-.02"/>
    <path class="cls-12" d="m142,37.57s-2.64-.84-5.66-1.58c-1.82-.45-3.77-.87-5.38-1.04-4.28-.49-7.1-.53-9.02,0-3.61,6.05-9.64,8.45-9.97,11.25"/>
    <path class="cls-12" d="m173.99,84.04h0c-1.13,1.32-2.85,11.9,3.22,22.25"/>
    <path class="cls-12" d="m60.46,93s-.52-.66-1.87-1.44c-1.56-.91-4.24-1.97-8.48-2.32-.37-.04-.75-.06-1.14-.08-8.8-.45-27.07,17.59-33.91,31.58,0,0-1.62,2.38,2.1,1.98s24.7-.85,27.97-1.75c3.19-.87,8.56-1.44,8.83-1.47h0"/>
    <path class="cls-12" d="m50.1,89.15s0,.04,0,.09c.07.84.69,7.28,2.01,8.26.38.28.93.41,1.58.34,1.78-.15,4.38-1.63,6.76-4.84"/>
    <path class="cls-12" d="m58.45,91.64l.13-.08c1.09-.6,8.98-4.99,15.27-8.27,6.77-3.53,9.17-6.43,9.17-6.43.11-11.5,13.65-28.19,21.32-34.29,2.46.58,5.02,1.83,7.62,3.62,8.01,5.5,16.61,16.19,25.2,28.86,0,0-.45-3.95-2.84-14.55-2.39-10.6-12.39-25.56-12.39-25.56"/>
    <path class="cls-12" d="m83.02,76.86s-1.42,17.78-2.85,21.24c-1.43,3.46-3.23,11.66-3.23,11.66,16.09-5.8,35.71-19.48,40.15-26.62,2.78-3.76,10.9-2.41,11.72,2.97"/>
    <path class="cls-12" d="m118.44,86.11s5.01.26,10.37.08c1.51-.04,3.05-.12,4.51-.26,1.11-.1,2.18-.23,3.16-.39,3.7-.6,6.72-.56,8.65.57,1.65.96,2.51,2.71,2.3,5.53-.21,2.88-.79,6.33-1.45,9.84-.72,3.89-1.57,7.86-2.16,11.25-.2,1.18-.27,2.52-.2,3.95.29,6.4,3.27,14.35,8.44,14.44,6.32.11,8.34,0,8.34,0"/>
    <path class="cls-12" d="m143.61,116.67s-2.08,4.72-3.32,8.16c-.51,1.44-.87,2.66-.87,3.22,0,1.92,3.61,10.15,13.76,8.68.87-.11,1.65-.2,2.36-.31,4.65-.67,6.08-1.26,6.08-1.26"/>
    <path class="cls-12" d="m115.73,63.52l-8.57-7.3s-6.99,6.09-6.99,9.7c9.47-.68,19.85,1.78,22.1,3.6s11.04,11.16,11.04,16.41"/>
    <path class="cls-12" d="m136.03,38.4s8.8,16.62,8.8,24.89.3,22.82.3,22.82"/>
    <path class="cls-12" d="m159.67,56.22s4.1,21.77,3.43,28.37c-.67,6.59-3.26,12.46-3.43,15.39-.04.56-.05,1.3-.04,2.15.04,3.61.67,9.04,3.53,9.29h0"/>
    <path class="cls-12" d="m145.98,101.48s8.6.83,13.66.64c1.74-.07,3.06-.26,3.46-.64,1.42-1.35,4.28-2.02,4.86-2.15l.11-.03"/>
    <path class="cls-12" d="m137.16,95.17s-3.42,12.55-17.86,19.72c-.28.15-.57.29-.86.42"/>
    <path class="cls-12" d="m53.7,97.86s10.63,3.26,11.3,5.62"/>
    <path class="cls-12" d="m140.29,124.84s-.05,0-.08-.02c-.51-.11-3.36-.76-5.53-1.31-2.4-.6-12.25-6.99-14.29-8.2-.4-.24-.76-.37-1.1-.42-1.4-.22-2.28.95-2.55,2.16-.34,1.5.11,4.59,0,11.58-1.02,1.24-3.46,2.06-6.75,2.53-4.68.68-11.08.66-17.49.15-.6-.04-1.21-.1-1.81-.15-11.5-1.08-18.04-.04-42.86,1.31,0-1.67,2.64-7.01,6.12-12.97,2.62-4.48,5.73-9.32,8.54-13.2.78-1.07,1.62-2.01,2.5-2.81,6.52-6.03,15.17-5.39,15.17-5.39"/>
    <path class="cls-12" d="m116.75,128.63s19.98-4.43,23.46-3.81"/>
    <path class="cls-12" d="m110,131.15s5.97,4.55,13.46,7.68c3.91,1.63,8.24,2.88,12.35,2.88,11.96,0,17.25-2.62,19.73-5.27"/>
    <path class="cls-12" d="m80.37,136.44s9.65,7.56,20.7,7.09c11.05-.47,22.39-4.7,22.39-4.7"/>
    <path class="cls-12" d="m47.84,132.46s15.8,6.31,18.95,7.77c3.15,1.48,4.74,2.15,7.9-.34,1.16-.9,3.26-2.17,5.69-3.46,4.22-2.24,9.41-4.56,12.13-5.12"/>
    <path class="cls-12" d="m104.34,136.92s6.33,3.55,11.79,4.12"/>
    <path class="cls-12" d="m32.38,112.73s14.13,4.44,16.77,7.4"/>
    <path class="cls-12" d="m183.65,27.21c-.26-2.44-.76-4.65-.93-5.72-.38-2.45-2.02-7.07-1.84-8.91-5.34-.34-9.93-1.25-11.24-1.73-3.13,3-7.53,5.07-7.53,5.07,0,0-4.81,0-5.79.9-.5.47-1.62,2.36-2.62,4.96-.9-1.45-2.73-1.33-3.32.28-.3.81-.39,1.81-.26,2.66.22,1.49,1.06,1.24,2.18,1.6-.14,1.35-.48,2.67-.56,4.04,0,0-.18.94-.04,2.32.11,1.17.42,2.64,1.25,4.14,1.8,3.31,5.87,9.1,13.01,8.88.81-.03,1.58-.08,2.29-.17,1.21-.13,2.28-.35,3.23-.64.02,0,.04,0,.05-.02.05-.02.11-.04.16-.04,4.53-1.42,6.61-4.4,9.51-7.89.33-.39.65-.78,1-1.18,1.7-1.95,1.78-5.44,1.45-8.56Z"/>
  </g>
</svg>