<svg xmlns="http://www.w3.org/2000/svg" viewBox="0 0 270.27 218.83"><defs><style>.cls-1{fill:#ff775a}.cls-1,.cls-2,.cls-3,.cls-5,.cls-6,.cls-7,.cls-9{stroke-width:0}.cls-2{fill:#fce1b4}.cls-3{fill:#c1272d}.cls-10{stroke-miterlimit:10}.cls-10,.cls-11{stroke:#000}.cls-10,.cls-11,.cls-12{fill:none}.cls-5{fill:#f3edd7}.cls-11,.cls-12{stroke-linecap:round;stroke-linejoin:round}.cls-6{fill:#333}.cls-7{fill:#fed39e}.cls-12{stroke:#fff;stroke-width:.5px}.cls-9{fill:#cea3b4}</style></defs><g id="_畳" data-name="畳"><path d="M.24 184.2h3.62v5.03H.24zM270.03 211.77v6.56h-30.44l15.35-8.63c1.03 1.61 3.11 2.72 5.51 2.72s4.62-1.18 5.62-2.88l3.97 2.23Z" class="cls-5"/><path d="M270.03 201.22v10.55l-3.97-2.23c.38-.65.59-1.38.59-2.14 0-1.3-.62-2.48-1.61-3.38l4.99-2.8Z" class="cls-5"/><path d="M270.03 189.23v11.99l-4.99 2.8c-1.14-1.01-2.77-1.64-4.59-1.64s-3.31.58-4.44 1.51l-26.08-14.66h40.1ZM270.03 121.97v5.77H.24v-5.77h269.79zM266.03 184.2h3.99v5.03h-3.99zM266.65 207.4c0 .76-.21 1.49-.59 2.14l-5.42-3.05 4.39-2.47c1 .89 1.61 2.07 1.61 3.38ZM260.64 206.49l5.42 3.05c-1 1.7-3.13 2.88-5.62 2.88s-4.48-1.1-5.51-2.72l5.71-3.21Z" class="cls-5"/><path d="M254.73 184.2h11.3v5.03h-11.3z" class="cls-6"/><path d="m265.04 204.02-4.39 2.47-4.64-2.6c1.13-.93 2.7-1.51 4.44-1.51 1.82 0 3.45.63 4.59 1.64Z" class="cls-5"/><path d="m260.64 206.49-5.71 3.21c-.44-.69-.69-1.48-.69-2.31 0-1.37.68-2.6 1.77-3.51l4.64 2.6Z" class="cls-5"/><path d="m229.93 189.23 26.08 14.66c-1.09.9-1.77 2.14-1.77 3.51 0 .83.25 1.62.69 2.31l-15.35 8.63h-41.46l-15.64-8.79c.38-.65.59-1.38.59-2.14 0-1.3-.62-2.48-1.61-3.37l26.33-14.8h22.14Zm-5.96 18.17c0-2.77-2.25-5.02-5.02-5.02s-5.03 2.25-5.03 5.02 2.25 5.03 5.03 5.03 5.02-2.25 5.02-5.03ZM254.73 189.23h-30.51v-5.03h30.51v5.03z" class="cls-5"/><path d="M212.92 184.2h11.3v5.03h-11.3zM218.95 202.38c2.77 0 5.02 2.25 5.02 5.02s-2.25 5.03-5.02 5.03-5.03-2.25-5.03-5.03 2.25-5.02 5.03-5.02Z" class="cls-6"/><path d="m207.78 189.23-26.33 14.8c-1.14-1.02-2.77-1.65-4.59-1.65s-3.31.58-4.44 1.51l-26.08-14.66h61.44ZM182.41 189.23v-5.03h30.51v5.03h-30.51zM198.12 218.33H156l15.35-8.63c1.03 1.61 3.12 2.72 5.51 2.72s4.62-1.18 5.62-2.88l15.64 8.79Z" class="cls-5"/><path d="M183.07 207.4c0 .76-.21 1.49-.59 2.14l-5.42-3.05 4.39-2.47c1 .89 1.61 2.07 1.61 3.37ZM177.06 206.49l5.42 3.05c-1 1.7-3.13 2.88-5.62 2.88s-4.48-1.1-5.51-2.72l5.71-3.21Z" class="cls-5"/><path d="M171.11 184.2h11.3v5.03h-11.3z" class="cls-6"/><path d="M176.87 202.38c1.82 0 3.45.63 4.59 1.65l-4.39 2.47-4.64-2.6c1.13-.93 2.7-1.51 4.44-1.51Z" class="cls-5"/><path d="m177.06 206.49-5.71 3.21c-.44-.69-.69-1.48-.69-2.31 0-1.37.68-2.6 1.77-3.51l4.64 2.6Z" class="cls-5"/><path d="m146.35 189.23 26.08 14.66c-1.09.9-1.77 2.14-1.77 3.51 0 .83.25 1.62.69 2.31L156 218.34h-41.46l-15.64-8.79c.38-.65.59-1.38.59-2.14 0-1.3-.62-2.48-1.61-3.37l26.33-14.8h22.14Zm-7.01 18.17c0-2.77-2.25-5.02-5.02-5.02s-5.03 2.25-5.03 5.02 2.25 5.03 5.03 5.03 5.02-2.25 5.02-5.03ZM171.11 189.23H140.6v-5.03h30.51v5.03z" class="cls-5"/><path d="M129.3 184.2h11.3v5.03h-11.3zM134.32 202.38c2.77 0 5.02 2.25 5.02 5.02s-2.25 5.03-5.02 5.03-5.03-2.25-5.03-5.03 2.25-5.02 5.03-5.02Z" class="cls-6"/><path d="m124.2 189.23-26.33 14.8c-1.14-1.02-2.77-1.65-4.59-1.65s-3.31.58-4.44 1.51l-26.08-14.66h61.44ZM129.3 189.23H98.79v-5.03h30.51v5.03zM114.54 218.33H72.42l15.35-8.63c1.03 1.61 3.11 2.72 5.51 2.72s4.62-1.18 5.62-2.88l15.64 8.79Z" class="cls-5"/><path d="M99.49 207.4c0 .76-.21 1.49-.59 2.14l-5.42-3.05 4.39-2.47c1 .89 1.61 2.07 1.61 3.37Z" class="cls-5"/><path d="m93.49 206.49 5.42 3.05c-1 1.7-3.13 2.88-5.62 2.88s-4.48-1.1-5.51-2.72l5.71-3.21Z" class="cls-5"/><path d="M87.49 184.2h11.3v5.03h-11.3z" class="cls-6"/><path d="M93.29 202.38c1.82 0 3.45.63 4.59 1.65l-4.39 2.47-4.64-2.6c1.13-.93 2.7-1.51 4.44-1.51Z" class="cls-5"/><path d="m93.49 206.49-5.71 3.21c-.44-.69-.69-1.48-.69-2.31 0-1.37.68-2.6 1.77-3.51l4.64 2.6Z" class="cls-5"/><path d="m62.77 189.23 26.08 14.66c-1.09.9-1.77 2.14-1.77 3.51 0 .83.25 1.62.69 2.31l-15.35 8.63H30.77l-15.64-8.79c.38-.65.59-1.38.59-2.14 0-1.3-.62-2.48-1.61-3.37l26.33-14.8h22.33Zm-8.52 18.17c0-2.77-2.25-5.02-5.02-5.02s-5.03 2.25-5.03 5.02 2.25 5.03 5.03 5.03 5.02-2.25 5.02-5.03ZM87.49 189.23H56.98v-5.03h30.51v5.03z" class="cls-5"/><path d="M45.68 184.2h11.3v5.03h-11.3zM49.23 202.38c2.77 0 5.02 2.25 5.02 5.02s-2.25 5.03-5.02 5.03-5.03-2.25-5.03-5.03 2.25-5.02 5.03-5.02Z" class="cls-6"/><path d="M45.68 189.23H15.17v-5.03h30.51v5.03zM30.77 218.33H.24v-6.52L4 209.7c1.03 1.61 3.12 2.72 5.51 2.72s4.62-1.18 5.62-2.88l15.64 8.79ZM15.72 207.4c0 .76-.21 1.49-.59 2.14l-5.42-3.05 4.39-2.47c1 .89 1.61 2.07 1.61 3.37Z" class="cls-5"/><path d="M3.86 184.2h11.3v5.03H3.86z" class="cls-6"/><path d="m9.71 206.49 5.42 3.05c-1 1.7-3.13 2.88-5.62 2.88s-4.48-1.1-5.51-2.72l5.71-3.21Z" class="cls-5"/><path d="M9.52 202.38c1.82 0 3.45.63 4.59 1.65l-4.39 2.47-4.64-2.6c1.13-.93 2.7-1.51 4.44-1.51Z" class="cls-5"/><path d="M9.71 206.49 4 209.7c-.44-.69-.69-1.48-.69-2.31 0-1.37.68-2.6 1.77-3.51l4.64 2.6Z" class="cls-5"/><path d="m.24 201.17 4.83 2.72c-1.09.9-1.77 2.14-1.77 3.51 0 .83.25 1.62.69 2.31l-3.76 2.11v-10.64Z" class="cls-5"/><path d="M212.92 184.2H.24v-56.46H270.03v56.46h-57.11z" style="fill:#d2d296;stroke-width:0"/><path d="M.24 189.23h40.19l-26.33 14.8c-1.14-1.02-2.77-1.65-4.59-1.65s-3.31.58-4.44 1.51l-4.83-2.72v-11.94Z" class="cls-5"/><path d="M270.03 218.33H.24M.24 121.97h269.79M.24 127.74h269.79M266.03 184.2h4M224.22 184.2h30.51M182.41 184.2h30.51M140.6 184.2h30.51M98.79 184.2h30.51M56.98 184.2h30.51M15.17 184.2h30.51M.24 184.2h3.62M266.03 189.23h4M224.22 189.23h30.51M182.41 189.23h30.51M140.6 189.23h30.51M98.79 189.23H129.3M56.98 189.23H87.49M15.17 189.23h30.51M.24 189.23h3.62M72.43 218.33l15.34-8.62 5.72-3.22 4.39-2.46 26.32-14.8" class="cls-10"/><path d="m114.54 218.33-15.64-8.79-5.41-3.05-4.64-2.6-26.08-14.66M139.33 207.4c0 2.78-2.25 5.03-5.02 5.03s-5.03-2.25-5.03-5.03 2.25-5.02 5.03-5.02 5.02 2.25 5.02 5.02ZM223.96 207.4c0 2.78-2.25 5.03-5.02 5.03s-5.03-2.25-5.03-5.03 2.25-5.02 5.03-5.02 5.02 2.25 5.02 5.02Z" class="cls-10"/><path d="M97.88 204.03c1 .89 1.61 2.07 1.61 3.37 0 .76-.21 1.49-.59 2.14-1 1.7-3.13 2.88-5.62 2.88s-4.48-1.1-5.51-2.72c-.44-.69-.69-1.48-.69-2.31 0-1.37.68-2.6 1.77-3.51 1.13-.93 2.7-1.51 4.44-1.51 1.82 0 3.45.63 4.59 1.65ZM.24 211.81l3.76-2.1 5.71-3.22 4.4-2.46 26.32-14.8" class="cls-10"/><path d="m30.77 218.33-15.64-8.79-5.42-3.05-4.63-2.6-4.84-2.72" class="cls-10"/><path d="M14.11 204.03c1 .89 1.61 2.07 1.61 3.37 0 .76-.21 1.49-.59 2.14-1 1.7-3.13 2.88-5.62 2.88s-4.48-1.1-5.51-2.72c-.44-.69-.69-1.48-.69-2.31 0-1.37.68-2.6 1.77-3.51 1.13-.93 2.7-1.51 4.44-1.51 1.82 0 3.45.63 4.59 1.65ZM156.01 218.33l15.34-8.62 5.71-3.22 4.4-2.46 26.32-14.8" class="cls-10"/><path d="m198.12 218.33-15.64-8.79-5.42-3.05-4.63-2.6-26.08-14.66" class="cls-10"/><path d="M181.46 204.03c1 .89 1.61 2.07 1.61 3.37 0 .76-.21 1.49-.59 2.14-1 1.7-3.13 2.88-5.62 2.88s-4.48-1.1-5.51-2.72c-.44-.69-.69-1.48-.69-2.31 0-1.37.68-2.6 1.77-3.51 1.13-.93 2.7-1.51 4.44-1.51 1.82 0 3.45.63 4.59 1.65ZM239.59 218.33l15.34-8.62 5.71-3.22 4.4-2.47 4.99-2.8" class="cls-10"/><path d="m270.03 211.77-3.97-2.23-5.42-3.05-4.63-2.6-26.08-14.66" class="cls-10"/><path d="M265.04 204.02c1 .89 1.61 2.07 1.61 3.38 0 .76-.21 1.49-.59 2.14-1 1.7-3.13 2.88-5.62 2.88s-4.48-1.1-5.51-2.72c-.44-.69-.69-1.48-.69-2.31 0-1.37.68-2.6 1.77-3.51 1.13-.93 2.7-1.51 4.44-1.51 1.82 0 3.45.63 4.59 1.64ZM54.24 207.4c0 2.78-2.25 5.03-5.02 5.03s-5.03-2.25-5.03-5.03 2.25-5.02 5.03-5.02 5.02 2.25 5.02 5.02ZM3.86 184.2h11.3v5.03H3.86zM45.68 184.2h11.3v5.03h-11.3zM87.49 184.2h11.3v5.03h-11.3zM129.3 184.2h11.3v5.03h-11.3zM171.11 184.2h11.3v5.03h-11.3zM212.92 184.2h11.3v5.03h-11.3zM254.73 184.2h11.3v5.03h-11.3z" class="cls-10"/></g><g id="_レイヤー_2" data-name="レイヤー 2"><path d="M95.19 57.92c1.13.42 2.47.61 4.09.49.28-.02.57-.04.84-.09s4.87 5.42 9.45 3.54c4.59-1.87 12.86-9.35 13.16-11.63.04-.27.06-.52.08-.75.15-1.73-.08-2.43-.08-2.43l3.15-.75 2.48 2.05c1.7 1.31 3.59 1.97 5.53 2.28s-4.25 7.39-11.09 13.34c-4.99 4.34-10.96 6.19-16.17 5.9-1.91-.1-3.72-.5-5.34-1.17-6.02-2.48-6.39-10.08-6.39-10.08l.27-.71Z" class="cls-6"/><path d="M93 56.68c.64.52 1.35.95 2.19 1.25l-.27.71s.37 7.6 6.39 10.08c1.62.66 3.43 1.07 5.34 1.17v.04l-4.21 22.25s-6.39 2.65-8.8 4l-.04.36-.17-.02c-1.32-.85-2.39-1.67-2.91-1.84-.11-.71-3.28-21.45-4.11-27.54-.21-1.53-.37-2.97-.54-4.31L93 56.69Z" class="cls-6"/><path d="M90.27 46.91s-.03-.06-.02-.09c.09-.27.46-5.21.73-9.03l-1.86-.29h-2.41l-1.33.15c-.17-1.33-.27-2.69-.33-4.06-.23-6.09 2.31-10.07 2.31-10.07.03.31.26.6 1.08.6 1.73 0 10.6.3 12.48-2.93.3-1.35 1.2-.6 1.35 0s3.9 10 5.11 10.98c1.2.97 1.72.9 1.72.9h.45c.53-2.4 2.11-5.26 3.31-3.68 1.09 1.43 1.63 5.15.94 7.12-.08.2-.16.39-.26.55-1.06 1.73-2.03 3.45-2.03 3.45l4.91 4.36s4.35 4.93 6.37 4.61c-.02.23-.04.49-.08.75-.3 2.27-8.57 9.75-13.16 11.63-4.58 1.88-9.45-3.53-9.45-3.53-.27.04-.56.06-.84.08-1.62.12-2.96-.06-4.09-.49-.84-.3-1.55-.72-2.19-1.25-2.17-1.78-3.31-4.62-4.48-7.14-.24-.5-.46-1.04-.68-1.6l2.43-1.02Zm4.56 2.61c-.42-.04-.96 1.05-1.83 1.47l1.1-.05c.11.12 1.12 1.24 1.85 1.24.77 0 1.86-1.58 1.86-1.58.51-.09.87-.19.95-.29-.68-.45-2.39-.96-2.76-.78-.38.19-.64.27-.64.27s-.11-.22-.52-.27Z" class="cls-2"/><path d="M87.88 107.34c.65.04 2.34.14 3.89.16l.14 1.77c-.5.96-1.61 1.33-2.46 1.11-.47-.11-.86-.41-1.02-.87l-.56-2.05v-.11Z" class="cls-7"/><path d="M44.87 153.51c-5.79.25-13.29.49-15.29.22-3.38-.45-4.51-1.69-4.07-4.84.44-3.16.12-15.45.02-22.33-.11-6.88.34-8.12 6.54-11.39 6.2-3.28 12.52-12.75 13.98-18.95 1.47-6.2 4.62-10.15 6.54-11.95 1.92-1.81 25.03-16.7 25.03-16.7 1.93 10.08 5.1 24.37 5.84 27.7-.3.04-.56.11-.75.19-.7.29-1.09 1.13-.56 1.93l-1.05 1.15c-.07.35-.39.73.28 1.54.09.11.19.23.27.34 0 0-.1.11-.24.28-.26.34-.66.92-.64 1.3.02.25.14.45.36.63.27.23.66.42 1.14.64-.56-.02-.97.48-.84.98.14.5 1.12 1.62 1.64 1.69.42.05 1 .07 1.26-.09l3.24 1.46s.11 0 .29.02v.11l.55 2.05c.17.47.56.76 1.02.87l-.32 1.13c-.98 0-2.98 2.12-7.31 6.22-5.72 5.42-31.27 22.55-39.09 25.72-7.83 3.15-11.73 5.26-12.63 6.92-.9 1.65 5.87 1.35 5.87 1.35s1.95.15 7.97.02c.3 0 .58-.02.87-.03l.06 1.81Z" class="cls-6"/><path d="M81.38 100.08c-.67-.8-.35-1.18-.28-1.54l1.05-1.15c.52.8.63 1.7 1.04 1.83.05.02.12.02.19 0s.02.55.02.65.52.53.66 1.23c.09.45-.11.69-.39.8-.15.07-.33.11-.49.11-.39.03-.96-.83-1.54-1.58-.09-.11-.19-.24-.27-.34Z" class="cls-2"/><path d="M84.09 102.67c.06.24.19.82-.19 1.01-.3.15-.49.16-.69.08-.22-.09-.47-.27-.92-.48-.48-.22-.87-.42-1.14-.64-.22-.18-.34-.38-.36-.63-.03-.38.38-.95.64-1.3.14-.17.24-.28.24-.28.57.75 1.15 1.61 1.54 1.58.16 0 .34-.04.49-.11 0 0 .35.53.41.78Z" class="cls-2"/><path d="M244.67 121.18c6.47 4.36 8.57 7.22 8.57 7.22s-7.52 5.87-11.42 7.22c-3.91 1.36-22.71 6.47-26.92 8.43l-4.21 1.95s-11.42 6.08-16.61 10.51c1.1-3.77 1.61-8.86 1.61-8.86s-1.35-8.23.91-12.18c2.25-3.94 3.94-8.68 4.28-11.5.34-2.82-2.83-4.28-12.86-4.62 4.96-6.88 7.11-10.49 6.32-12.63-.18-.49-.42-1.02-.7-1.57 5.77.26 22.46.09 29.52-6.07 4.06 8.43 11.28 19.86 21.5 22.11Z" style="fill:#f1ead7;stroke-width:0"/><path d="m170.2 123.3.2-.61s.59-1.21 1.39-3.09c.38-.09 10.52-2.51 16.24-.26 10.04.34 13.2 1.8 12.86 4.62-.34 2.82-2.03 7.56-4.28 11.5-2.26 3.95-.91 12.18-.91 12.18s-.5 5.09-1.61 8.86c-.55 1.88-1.25 3.44-2.11 3.89-2.59 1.35-6.77.22-18.49-2.6-9.03 4.62-33.73 4.11-33.73 4.11s-1.54-.95-3.66-1.85l.8-2.1c1.63.61 3.28 1.18 4.93 1.72 6.31.75 28.57-2.86 28.57-2.86s-6.32-2.4-23.16-8.27c-16.84-5.87-46.01-27.07-52.34-32.62-1.25-.15-1.7.03-1.76.43-.55-1.49-.65-6.49-.67-8.85v-1.25l1.14-9.73.04-.36c2.41-1.35 8.8-4 8.8-4 4.51-1.65 9.43-3.15 10.73 0 .73 1.78 3.86 6.33 7.41 10.72.08-.06 1.27-.83 3.57-1.86 0 0 17.69 11.14 30.61 16.7 5.72 2.46 11.1 4.11 15.44 5.57Z" class="cls-6"/><path d="M194.34 106.71c.8 2.15-1.35 5.75-6.32 12.63-5.72-2.25-15.86.17-16.24.26 2.02-4.72 5.39-13.65 4.19-18.14 2.61 1.55 5.4.12 7.09-.04 2.37-.22 6.2-2.6 7.44-1.13.95 1.12 2.24 3.06 3.14 4.86.28.55.52 1.08.7 1.57Z" class="cls-6"/><path d="M124.15 101.02c-2.3 1.03-3.49 1.8-3.57 1.86-3.55-4.39-6.68-8.95-7.41-10.72-1.3-3.15-6.22-1.65-10.73 0l4.21-22.25v-.04c5.2.29 11.17-1.56 16.17-5.9 6.84-5.95 11.09-13.33 11.09-13.33 3.64.58 7.47-.08 10.71-.05 4.96.04 11.05 9.55 14.43 16.99 3.38 7.45 10.83 23.91 13.98 30.34.9 1.83 1.91 2.92 2.95 3.54 1.2 4.5-2.16 13.43-4.19 18.14-.8 1.88-1.39 3.09-1.39 3.09l-.2.61c-4.34-1.47-9.72-3.11-15.44-5.57-12.92-5.57-30.61-16.7-30.61-16.7Z" class="cls-6"/><path d="M147.24 148.55c16.85 5.87 23.16 8.27 23.16 8.27s-22.26 3.61-28.57 2.86c-1.65-.54-3.29-1.11-4.93-1.72-8.78-3.29-17.23-7.8-24.85-16.17-1.95-2.15-3.88-4.38-5.7-6.59-6.61-7.99-11.9-15.57-12.49-16.86-.39-.85-.79-1.54-.72-1.97.05-.41.51-.58 1.76-.43 6.33 5.56 35.5 26.76 52.34 32.62Z" class="cls-1"/><path d="m136.9 157.95-.8 2.1c-1.27-.54-2.75-1.06-4.23-1.36-20.2-5.26-29.62-12.5-35.5-16.31l.11-.16s8.61-5.25 9.29-6.55l.59-.49c1.82 2.21 3.75 4.44 5.7 6.59 7.61 8.37 16.07 12.89 24.85 16.17ZM128.37 48.35l-2.48-2.05s.15-13.38-1.95-18.05c-1.84-4.07-6.57-13.35-12.32-18.22-.82-.7-1.67-1.3-2.53-1.78-1.99-1.69-3.75-2.59-5.04-.6-1.28 2 0 4.1 0 4.1l6.02-.27.15 2.22-3.9.08.06 1.58c2.89 1.05 5 3.27 6.17 7.59 0 0 .09 4.3.2 4.3 1.7.87 3.37 2.58 3.33 4.91-.04 2.33-.8 4.58-.8 4.58l-1.47-.25c.69-1.97.15-5.69-.94-7.12-1.2-1.58-2.78 1.28-3.31 3.68h-.45s-.52.07-1.72-.9c-1.21-.98-4.96-10.38-5.11-10.98s-1.05-1.35-1.35 0c-1.88 3.23-10.75 2.93-12.48 2.93-.82 0-1.05-.29-1.08-.6-.02-.22.08-.45.14-.59.02-.03.04-.05.04-.08.03-.04.04-.05.04-.05 2.16-3.94 4.02-5.31 4.19-5.79.17-.51 0-1.98 0-1.98l-2.43-1.24.79-2.03s3.05.45 3.45.28.45-2.03.45-2.03-4-4.05-5.35-5.3c-1.36-1.24-.51-3.04.27-3.72.8-.68 3.1-.62 4.29 0 1.18.62 6.37 6.99 6.37 6.99 1.63-2.92 3.38-5.35 6.48-4.62s9.92 4.17 13.65 11.67c3.72 7.5 6.86 14.53 8.62 33.33Z" class="cls-6"/><path d="M118.33 41.14c0 1.01-.35 2.01-1.08 2.84l-.8.9-4.91-4.36s.97-1.72 2.03-3.45c.1-.16.18-.34.26-.55l1.47.25c.43.29.89.62 1.35.96 1.11.85 1.69 2.13 1.69 3.42Z" class="cls-6"/><path d="M131.87 158.7c-19.06 5.53-31.24 3.05-45.79-1.02-2.99-.81-6.05-6.6-6.05-6.6l-.08-.16c5.08-2.64 10.12-5.43 12.26-6.43 1.84-.87 3.9-2.26 3.9-2.26.08.05.17.11.25.16 5.88 3.81 15.3 11.04 35.5 16.31Z" class="cls-9"/><path d="m106.36 135.19-.59.49c-.68 1.3-9.29 6.55-9.29 6.55l-.11.16c-.08-.05-.17-.11-.25-.16 0 0-2.07 1.4-3.9 2.26-2.14 1-7.18 3.79-12.26 6.43-5.57 2.91-11.17 5.63-12.99 5.63-.12 0-.23 0-.32-.04-2.55-.75-9.42-9.45-9.42-9.45 2.99-2.61 7.86-7.08 12.69-11.38 0 0 8 .99 13.14 0 5.13-.98 10.5-6.08 8.84-7.59-1.65-1.5-10.01-3.08-10.01-3.08 5.72-5.86 8.4-11.36 7.91-12.85-.14-.43-.35-.65-.66-.65l.32-1.13c.85.22 1.95-.15 2.46-1.11l-.14-1.77H92.47c.02 2.36.12 7.36.67 8.85-.06.43.34 1.12.72 1.97.59 1.3 5.88 8.87 12.49 16.86Z" class="cls-6"/><path d="M94.1 50.93c-.65.04-1.1.05-1.1.05.87-.42 1.41-1.5 1.83-1.47.42.04.52.27.52.27s.27-.08.64-.27 2.08.33 2.76.78c-.07.11-.43.2-.95.28-1.02.17-2.63.28-3.7.35Z" class="cls-3"/><path d="M97.8 50.58s-1.09 1.59-1.86 1.59c-.72 0-1.73-1.11-1.85-1.24 1.07-.07 2.69-.19 3.7-.35Z" class="cls-3"/><path d="M90.52 94.67c.52.17 1.59.99 2.91 1.84l.17.02-1.14 9.73v1.25H91.77c-1.55-.02-3.23-.11-3.89-.16-.19 0-.29-.02-.29-.02l-3.24-1.46c.07-.04.11-.09.13-.15.11-.32-.12-.9-.4-1.17-.27-.27-.99-.17-.88-.79.2.08.39.07.69-.08.38-.19.26-.77.19-1.01-.05-.25-.41-.78-.41-.78.28-.11.48-.34.39-.8-.14-.7-.66-1.12-.66-1.23s-.02-.64-.02-.64c.48-.11 1.18-.86.75-1.41-.56-.7-.81-1.56-.55-1.91-.03-.11-.07-.32-.14-.63.76-.1 1.83-.1 3.06-.05 1.71.07 3.24-.66 3.88-.58.04 0 .08 0 .12.03Z" class="cls-2"/><path d="M91.9 128.1c1.66 1.51-3.71 6.61-8.84 7.59-5.14.99-13.14 0-13.14 0 2.81-2.52 5.61-4.97 8-6.99 1.46-1.22 2.78-2.46 3.98-3.68 0 0 8.36 1.58 10.01 3.08Z" class="cls-6"/><path d="m89.13 37.51 1.86.29c-.27 3.82-.64 8.75-.73 9.03 0 .03 0 .05.02.09l-2.43 1.02c-1.12-2.91-2-6.46-2.45-10.28l1.33-.15h2.41Z" class="cls-2"/><path d="M90.52 94.67s-.09-.03-.12-.03c-.64-.08-2.16.65-3.88.58-1.23-.04-2.3-.04-3.06.05-.74-3.33-3.9-17.62-5.84-27.7-1-5.24-1.67-9.34-1.49-10.18.56-2.68 4.52-4.55 6.9-2.99 1.8 1.18 2.33 4.28 2.84 8.4.17 1.34.33 2.78.54 4.31.83 6.1 4 26.84 4.11 27.54Z" class="cls-7"/><path d="M89.8 112.16c.49 1.49-2.19 7-7.91 12.85a53.427 53.427 0 0 1-3.98 3.68c-2.39 2.01-5.19 4.47-8 6.99-4.82 4.3-9.7 8.76-12.69 11.38-1.4 1.21-2.39 2.03-2.76 2.23-1.57.86-4.23 2.16-9.66 2.4-.28 0-.57.02-.87.03-6.02.13-7.97-.02-7.97-.02s-6.77.3-5.87-1.35c.9-1.66 4.81-3.76 12.63-6.92 7.82-3.16 33.37-20.3 39.09-25.72 4.33-4.1 6.32-6.22 7.31-6.22.31 0 .52.22.66.65Z" class="cls-1"/><path d="M84.35 105.86c-.27.16-.84.14-1.26.09-.52-.07-1.5-1.18-1.64-1.69-.13-.5.28-1 .84-.98.45.2.7.39.92.48-.11.62.62.52.88.79.27.27.5.85.4 1.17-.02.06-.06.11-.13.15ZM84.14 97.81c.43.56-.27 1.31-.75 1.4-.07.03-.14.03-.19 0-.42-.12-.52-1.02-1.04-1.83-.53-.8-.14-1.64.56-1.93.19-.08.45-.14.75-.19.07.31.11.52.14.63-.27.34 0 1.21.55 1.91Z" class="cls-2"/><path d="M80.03 151.08s3.06 5.79 6.05 6.6c-4.64 2.31-12.58 1.75-19.27 1.35l.15-2.48c1.82 0 7.42-2.72 12.99-5.63l.08.16Z" class="cls-9"/><path d="m66.97 156.55-.15 2.48c-1.78-.11-3.47-.19-4.98-.22-7.22-.11-9.58-2.82-9.81-5.64 0 0-3.17.17-7.16.34l-.06-1.81c5.42-.24 8.08-1.55 9.66-2.4.38-.2 1.37-1.02 2.76-2.23 0 0 6.86 8.7 9.42 9.45.09.03.19.04.32.04Z" class="cls-9"/><path d="M87.51 22.93c-.04.07-.07.15-.11.22" class="cls-11"/><path d="M87.59 22.8s0 .02-.04.05c0 .03-.03.05-.04.08-.06.14-.16.37-.14.59.03.31.26.6 1.08.6 1.73 0 10.6.3 12.48-2.93.3-1.35 1.2-.6 1.35 0s3.9 10 5.11 10.98c1.2.97 1.72.9 1.72.9h.45c.53-2.4 2.11-5.26 3.31-3.68 1.09 1.43 1.63 5.15.94 7.12-.08.2-.16.39-.26.55-1.06 1.73-2.03 3.45-2.03 3.45l4.91 4.36.8-.9a4.293 4.293 0 0 0-.61-6.26c-.46-.34-.92-.67-1.35-.96 0 0 .75-2.25.8-4.58.04-2.33-1.63-4.05-3.33-4.91-.11 0-.2-4.3-.2-4.3-1.17-4.32-3.28-6.54-6.17-7.59l-.06-1.58 3.9-.08-.15-2.22-6.02.27s-1.28-2.1 0-4.1c1.28-1.99 3.05-1.09 5.04.6.86.49 1.7 1.09 2.53 1.78 5.75 4.87 10.49 14.14 12.32 18.22 2.1 4.66 1.95 18.05 1.95 18.05l2.48 2.05c-1.77-18.8-4.9-25.83-8.62-33.33-3.73-7.5-10.55-10.94-13.65-11.67s-4.85 1.7-6.48 4.62c0 0-5.19-6.37-6.37-6.99-1.19-.62-3.5-.68-4.29 0s-1.63 2.48-.27 3.72c1.35 1.25 5.35 5.3 5.35 5.3s-.05 1.86-.45 2.03-3.45-.28-3.45-.28l-.79 2.03 2.43 1.24s.17 1.47 0 1.98c-.17.49-2.02 1.86-4.19 5.79" class="cls-11"/><path d="M87.37 23.52s-2.54 3.98-2.31 10.07c.05 1.38.16 2.74.33 4.06.45 3.83 1.33 7.38 2.45 10.28.22.56.44 1.1.68 1.6 1.17 2.52 2.31 5.35 4.48 7.14.64.52 1.35.95 2.19 1.25 1.13.42 2.47.61 4.09.49.28-.02.57-.04.84-.09 6.42-.7 10.43-3.67 10.43-3.67M86.27 28.71h2.56M96.2 26.61h3.45" class="cls-11"/><path d="M91.3 33.37s-.14 1.99-.32 4.43c-.27 3.82-.64 8.75-.73 9.03 0 .03 0 .05.02.09.29.42 3.7.86 4.2.36" class="cls-11"/><path d="M93.41 43.37c.3 0 2.02 1.73 2.25 2.48M86.72 37.51h2.41M97.78 35.05l3.53-.38M93 50.99c.87-.42 1.41-1.5 1.83-1.47.42.04.52.27.52.27s.27-.08.64-.27 2.08.33 2.76.78M93 50.99l1.1-.05c1.07-.07 2.69-.19 3.7-.35.51-.08.87-.18.95-.28" class="cls-11"/><path d="M94.1 50.92h0c.11.13 1.12 1.25 1.85 1.25.77 0 1.86-1.58 1.86-1.58M93 56.68l-7.13 6.13M77.62 67.58S54.5 82.46 52.59 84.28c-1.92 1.8-5.07 5.75-6.54 11.95-1.47 6.2-7.78 15.67-13.98 18.95-6.2 3.27-6.65 4.51-6.54 11.39.11 6.88.42 19.17-.02 22.33-.43 3.15.69 4.39 4.07 4.84 2.01.27 9.51.03 15.29-.22 3.98-.17 7.16-.34 7.16-.34.22 2.82 2.59 5.52 9.81 5.64 1.51.03 3.21.11 4.98.22 6.69.4 14.63.96 19.27-1.35 14.55 4.06 26.72 6.55 45.79 1.02 1.48.3 2.96.82 4.23 1.36 2.12.9 3.66 1.85 3.66 1.85s24.7.51 33.73-4.11c11.72 2.82 15.9 3.95 18.49 2.6.87-.45 1.56-2.01 2.11-3.89 1.1-3.77 1.61-8.86 1.61-8.86s-1.35-8.23.91-12.18c2.25-3.94 3.94-8.68 4.28-11.5.34-2.82-2.83-4.28-12.86-4.62 4.96-6.88 7.11-10.49 6.32-12.63-.18-.49-.42-1.02-.7-1.57-.89-1.8-2.18-3.74-3.14-4.86-1.24-1.47-5.07.91-7.44 1.13-1.7.17-4.49 1.59-7.09.04-1.04-.62-2.05-1.71-2.95-3.54-3.15-6.42-10.6-22.89-13.98-30.34-3.38-7.44-9.47-16.95-14.43-16.99-3.23-.03-7.07.64-10.71.04-1.94-.31-3.83-.97-5.53-2.28" class="cls-11"/><path d="M100.12 58.33s4.87 5.42 9.45 3.53c4.59-1.87 12.86-9.35 13.16-11.63.04-.27.06-.52.08-.75.15-1.73-.08-2.43-.08-2.43l3.15-.75" class="cls-11"/><path d="M116.44 44.87s4.35 4.93 6.37 4.61" class="cls-11"/><path d="M94.92 58.63s.37 7.6 6.39 10.08c1.62.66 3.43 1.07 5.34 1.17 5.2.29 11.17-1.56 16.17-5.9 6.84-5.95 11.09-13.33 11.09-13.33M124.39 81.26l11.35-24.58 9.1 7.97s-20.44 19.57-25.21 33.23" class="cls-12"/><path d="M83.62 95.99s0-.03-.02-.09c-.03-.11-.07-.32-.14-.63-.74-3.33-3.9-17.62-5.84-27.7-1-5.24-1.67-9.34-1.49-10.18.56-2.68 4.52-4.55 6.9-2.99 1.8 1.18 2.33 4.28 2.84 8.4.17 1.34.33 2.78.54 4.31.83 6.1 4 26.84 4.11 27.54v.02M44.81 151.7c-.28 0-.57.02-.87.03-6.02.13-7.97-.02-7.97-.02s-6.77.3-5.87-1.35c.9-1.66 4.81-3.76 12.63-6.92 7.82-3.16 33.37-20.3 39.09-25.72 4.33-4.1 6.32-6.22 7.31-6.22.31 0 .52.22.66.65.49 1.49-2.19 7-7.91 12.85a53.427 53.427 0 0 1-3.98 3.68c-2.39 2.01-5.19 4.47-8 6.99-4.82 4.3-9.7 8.76-12.69 11.38-1.4 1.21-2.39 2.03-2.76 2.23-1.57.86-4.23 2.16-9.66 2.4ZM93.14 116.36c.05-.41.51-.58 1.76-.43 6.33 5.56 35.5 26.76 52.34 32.62 16.85 5.87 23.16 8.27 23.16 8.27s-22.26 3.61-28.57 2.86c-1.65-.54-3.29-1.11-4.93-1.72-8.78-3.29-17.23-7.8-24.85-16.17-1.95-2.15-3.88-4.38-5.7-6.59-6.61-7.99-11.9-15.57-12.49-16.86-.39-.85-.79-1.54-.72-1.97ZM80.03 151.08s3.06 5.79 6.05 6.6" class="cls-11"/><path d="M57.23 147.06s6.86 8.7 9.42 9.45c.09.03.19.04.32.04 1.82 0 7.42-2.72 12.99-5.63 5.08-2.64 10.12-5.43 12.26-6.43 1.84-.87 3.9-2.26 3.9-2.26.08.05.17.11.25.16 5.88 3.81 15.3 11.04 35.5 16.31M96.47 142.23s8.61-5.25 9.29-6.55" class="cls-11"/><path d="M81.9 125.01s8.36 1.58 10.01 3.08c1.66 1.51-3.71 6.61-8.84 7.59-5.14.99-13.14 0-13.14 0M34.02 121.03s38.86-11.48 47.13-18.39M52.96 92.16s20.02 4.8 28.45 8.55M68.3 81.94s11.79 9.15 11.97 13.82M74.62 80.29s2.1 3.45 1.8 6.62M106.65 69.91l-4.21 22.25s-6.39 2.65-8.8 4l-.04.36-1.14 9.73v1.25c.02 2.36.12 7.36.67 8.85" class="cls-12"/><path d="M102.43 92.16c4.51-1.65 9.43-3.15 10.73 0 .73 1.78 3.86 6.33 7.41 10.72 2.76 3.43 5.79 6.76 8.17 8.62 5.41 4.27 27.67 19.06 27.67 19.06" class="cls-12"/><path d="M120.57 102.88h0c.08-.06 1.27-.83 3.57-1.86 3.34-1.48 9.01-3.51 17.08-4.65 13.83-1.95 21.2-.75 21.2-.75" class="cls-12"/><path d="M124.15 101.02s17.69 11.14 30.61 16.7c5.72 2.46 11.1 4.11 15.44 5.57 5.46 1.84 9.28 3.41 10.12 6.01 1.5 4.66 3.3 28.37 3.3 28.37" class="cls-12"/><path d="M170.4 122.69s.59-1.21 1.39-3.09c2.02-4.72 5.39-13.65 4.19-18.14" class="cls-12"/><path d="M171.78 119.61h0c.38-.1 10.52-2.52 16.24-.27" class="cls-12"/><path d="M93.42 96.51c-1.32-.85-2.39-1.67-2.91-1.84a.301.301 0 0 0-.12-.03c-.64-.08-2.16.65-3.88.58-1.23-.04-2.3-.04-3.06.05-.3.04-.56.11-.75.19-.7.29-1.09 1.13-.56 1.93.52.8.63 1.7 1.04 1.83.05.02.12.02.19 0 .48-.1 1.18-.85.75-1.4-.56-.7-.81-1.56-.55-1.91" class="cls-10"/><path d="m82.15 97.4-1.05 1.15c-.07.35-.39.73.28 1.54.09.11.19.23.27.34.57.75 1.15 1.61 1.54 1.58.16 0 .34-.04.49-.11.28-.11.48-.34.39-.8-.14-.7-.66-1.12-.66-1.23s-.02-.64-.02-.64" class="cls-10"/><path d="M81.66 100.43s-.1.11-.24.28c-.26.34-.66.92-.64 1.3.02.25.14.45.36.63.27.23.66.42 1.14.64.45.2.7.39.92.48.2.08.39.07.69-.08.38-.19.26-.77.19-1.01-.05-.25-.41-.78-.41-.78" class="cls-10"/><path d="M82.28 103.28c-.56-.02-.97.48-.84.98.14.5 1.12 1.62 1.64 1.69.42.05 1 .07 1.26-.09.07-.04.11-.09.13-.15.11-.32-.12-.9-.4-1.17-.27-.27-.99-.17-.88-.79" class="cls-10"/><path d="m84.09 105.75.27.11 3.24 1.46s.11 0 .29.02c.65.04 2.34.14 3.89.16h.56" class="cls-10"/><path d="m87.88 107.45.56 2.05c.17.47.56.76 1.02.87.85.22 1.95-.15 2.46-1.11l-.14-1.77M193.65 105.14c5.77.26 22.46.09 29.52-6.07 4.06 8.43 11.28 19.86 21.5 22.11 6.47 4.36 8.57 7.22 8.57 7.22s-7.52 5.87-11.42 7.22c-3.91 1.36-22.71 6.47-26.92 8.43l-4.21 1.95s-11.42 6.08-16.61 10.51h0" class="cls-11"/><path d="M232.03 112.93s-7.73 4.2-9.01 5.02c-1.28.83-7.67 2.11-9.17 3.23" class="cls-11"/></g></svg>