<?xml version="1.0" encoding="UTF-8"?>
<svg xmlns="http://www.w3.org/2000/svg" viewBox="0 0 270.27 204.78">
  <defs>
    <style>
      .cls-1 {
        fill: #c7b299;
      }

      .cls-1, .cls-2, .cls-3, .cls-4, .cls-5, .cls-6, .cls-7, .cls-8, .cls-9 {
        stroke-width: 0px;
      }

      .cls-2 {
        fill: #c1272d;
      }

      .cls-10 {
        stroke-miterlimit: 10;
      }

      .cls-10, .cls-11 {
        stroke: #000;
      }

      .cls-10, .cls-11, .cls-12 {
        fill: none;
      }

      .cls-3 {
        fill: #f3edd7;
      }

      .cls-11, .cls-12 {
        stroke-linecap: round;
        stroke-linejoin: round;
      }

      .cls-4 {
        fill: #333;
      }

      .cls-5 {
        fill: #d0a8b1;
      }

      .cls-6 {
        fill: #fb7154;
      }

      .cls-7 {
        fill: #d2d296;
      }

      .cls-8 {
        fill: #fff6e6;
      }

      .cls-12 {
        stroke: #fff;
        stroke-width: .5px;
      }

      .cls-9 {
        fill: #ffcf9a;
      }
    </style>
  </defs>
  <g id="_畳" data-name="畳">
    <g>
      <g>
        <rect class="cls-3" x=".24" y="170.15" width="3.62" height="5.03"/>
        <path class="cls-3" d="m270.03,197.72v6.56h-30.44l15.35-8.63c1.03,1.61,3.11,2.72,5.51,2.72s4.62-1.18,5.62-2.88l3.97,2.23Z"/>
        <path class="cls-3" d="m270.03,187.16v10.55l-3.97-2.23c.38-.65.59-1.38.59-2.14,0-1.3-.62-2.48-1.61-3.38l4.99-2.8Z"/>
        <path class="cls-3" d="m270.03,175.18v11.99l-4.99,2.8c-1.14-1.01-2.77-1.64-4.59-1.64s-3.31.58-4.44,1.51l-26.08-14.66h40.1Z"/>
        <polygon class="cls-3" points="270.03 107.92 270.03 113.68 1.13 113.68 .24 113.68 .24 107.92 270.03 107.92"/>
        <rect class="cls-3" x="266.04" y="170.15" width="3.99" height="5.03"/>
        <path class="cls-3" d="m266.65,193.34c0,.76-.21,1.49-.59,2.14l-5.42-3.05,4.39-2.47c1,.89,1.61,2.07,1.61,3.38Z"/>
        <path class="cls-3" d="m260.64,192.44l5.42,3.05c-1,1.7-3.13,2.88-5.62,2.88s-4.48-1.1-5.51-2.72l5.71-3.21Z"/>
        <rect class="cls-4" x="254.73" y="170.15" width="11.3" height="5.03"/>
        <path class="cls-3" d="m265.04,189.97l-4.39,2.47-4.64-2.6c1.13-.93,2.7-1.51,4.44-1.51,1.82,0,3.45.63,4.59,1.64Z"/>
        <path class="cls-3" d="m260.64,192.44l-5.71,3.21c-.44-.69-.69-1.48-.69-2.31,0-1.37.68-2.6,1.77-3.51l4.64,2.6Z"/>
        <path class="cls-3" d="m229.93,175.18l26.08,14.66c-1.09.9-1.77,2.14-1.77,3.51,0,.83.25,1.62.69,2.31l-15.35,8.63h-41.46l-15.64-8.79c.38-.65.59-1.38.59-2.14,0-1.3-.62-2.48-1.61-3.37l26.33-14.8h22.14Zm-5.96,18.17c0-2.77-2.25-5.02-5.02-5.02s-5.03,2.25-5.03,5.02,2.25,5.03,5.03,5.03,5.02-2.25,5.02-5.03Z"/>
        <polygon class="cls-3" points="254.73 175.18 229.93 175.18 224.22 175.18 224.22 170.15 254.73 170.15 254.73 175.18"/>
        <rect class="cls-4" x="212.92" y="170.15" width="11.3" height="5.03"/>
        <path class="cls-4" d="m218.95,188.33c2.77,0,5.02,2.25,5.02,5.02s-2.25,5.03-5.02,5.03-5.03-2.25-5.03-5.03,2.25-5.02,5.03-5.02Z"/>
        <path class="cls-3" d="m207.78,175.18l-26.33,14.8c-1.14-1.02-2.77-1.65-4.59-1.65s-3.31.58-4.44,1.51l-26.08-14.66h61.44Z"/>
        <polygon class="cls-3" points="182.41 175.18 182.41 170.15 212.92 170.15 212.92 175.18 207.78 175.18 182.41 175.18"/>
        <path class="cls-3" d="m198.12,204.28h-42.12l15.35-8.63c1.03,1.61,3.12,2.72,5.51,2.72s4.62-1.18,5.62-2.88l15.64,8.79Z"/>
        <path class="cls-3" d="m183.07,193.34c0,.76-.21,1.49-.59,2.14l-5.42-3.05,4.39-2.47c1,.89,1.61,2.07,1.61,3.37Z"/>
        <path class="cls-3" d="m177.07,192.44l5.42,3.05c-1,1.7-3.13,2.88-5.62,2.88s-4.48-1.1-5.51-2.72l5.71-3.21Z"/>
        <rect class="cls-4" x="171.11" y="170.15" width="11.3" height="5.03"/>
        <path class="cls-3" d="m176.87,188.33c1.82,0,3.45.63,4.59,1.65l-4.39,2.47-4.64-2.6c1.13-.93,2.7-1.51,4.44-1.51Z"/>
        <path class="cls-3" d="m177.07,192.44l-5.71,3.21c-.44-.69-.69-1.48-.69-2.31,0-1.37.68-2.6,1.77-3.51l4.64,2.6Z"/>
        <path class="cls-3" d="m146.35,175.18l26.08,14.66c-1.09.9-1.77,2.14-1.77,3.51,0,.83.25,1.62.69,2.31l-15.35,8.63h-41.46l-15.64-8.79c.38-.65.59-1.38.59-2.14,0-1.3-.62-2.48-1.61-3.37l26.33-14.8h22.14Zm-7.01,18.17c0-2.77-2.25-5.02-5.02-5.02s-5.03,2.25-5.03,5.02,2.25,5.03,5.03,5.03,5.02-2.25,5.02-5.03Z"/>
        <polygon class="cls-3" points="171.11 175.18 146.35 175.18 140.6 175.18 140.6 170.15 171.11 170.15 171.11 175.18"/>
        <rect class="cls-4" x="129.3" y="170.15" width="11.3" height="5.03"/>
        <path class="cls-4" d="m134.32,188.33c2.77,0,5.02,2.25,5.02,5.02s-2.25,5.03-5.02,5.03-5.03-2.25-5.03-5.03,2.25-5.02,5.03-5.02Z"/>
        <path class="cls-3" d="m124.2,175.18l-26.33,14.8c-1.14-1.02-2.77-1.65-4.59-1.65s-3.31.58-4.44,1.51l-26.08-14.66h61.44Z"/>
        <polygon class="cls-3" points="129.3 175.18 124.2 175.18 98.79 175.18 98.79 170.15 129.3 170.15 129.3 175.18"/>
        <path class="cls-3" d="m114.54,204.28h-42.12l15.35-8.63c1.03,1.61,3.11,2.72,5.51,2.72s4.62-1.18,5.62-2.88l15.64,8.79Z"/>
        <path class="cls-3" d="m99.49,193.34c0,.76-.21,1.49-.59,2.14l-5.42-3.05,4.39-2.47c1,.89,1.61,2.07,1.61,3.37Z"/>
        <path class="cls-3" d="m93.49,192.44l5.42,3.05c-1,1.7-3.13,2.88-5.62,2.88s-4.48-1.1-5.51-2.72l5.71-3.21Z"/>
        <rect class="cls-4" x="87.49" y="170.15" width="11.3" height="5.03"/>
        <path class="cls-3" d="m93.29,188.33c1.82,0,3.45.63,4.59,1.65l-4.39,2.47-4.64-2.6c1.13-.93,2.7-1.51,4.44-1.51Z"/>
        <path class="cls-3" d="m93.49,192.44l-5.71,3.21c-.44-.69-.69-1.48-.69-2.31,0-1.37.68-2.6,1.77-3.51l4.64,2.6Z"/>
        <path class="cls-3" d="m62.77,175.18l26.08,14.66c-1.09.9-1.77,2.14-1.77,3.51,0,.83.25,1.62.69,2.31l-15.35,8.63H30.77l-15.64-8.79c.38-.65.59-1.38.59-2.14,0-1.3-.62-2.48-1.61-3.37l26.33-14.8h22.33Zm-8.52,18.17c0-2.77-2.25-5.02-5.02-5.02s-5.03,2.25-5.03,5.02,2.25,5.03,5.03,5.03,5.02-2.25,5.02-5.03Z"/>
        <polygon class="cls-3" points="87.49 175.18 62.77 175.18 56.98 175.18 56.98 170.15 87.49 170.15 87.49 175.18"/>
        <rect class="cls-4" x="45.68" y="170.15" width="11.3" height="5.03"/>
        <path class="cls-4" d="m49.23,188.33c2.77,0,5.02,2.25,5.02,5.02s-2.25,5.03-5.02,5.03-5.03-2.25-5.03-5.03,2.25-5.02,5.03-5.02Z"/>
        <polygon class="cls-3" points="45.68 175.18 40.43 175.18 15.17 175.18 15.17 170.15 45.68 170.15 45.68 175.18"/>
        <path class="cls-3" d="m30.77,204.28H.24v-6.52l3.76-2.11c1.03,1.61,3.12,2.72,5.51,2.72s4.62-1.18,5.62-2.88l15.64,8.79Z"/>
        <path class="cls-3" d="m15.72,193.34c0,.76-.21,1.49-.59,2.14l-5.42-3.05,4.39-2.47c1,.89,1.61,2.07,1.61,3.37Z"/>
        <rect class="cls-4" x="3.86" y="170.15" width="11.3" height="5.03"/>
        <path class="cls-3" d="m9.71,192.44l5.42,3.05c-1,1.7-3.13,2.88-5.62,2.88s-4.48-1.1-5.51-2.72l5.71-3.21Z"/>
        <path class="cls-3" d="m9.52,188.33c1.82,0,3.45.63,4.59,1.65l-4.39,2.47-4.64-2.6c1.13-.93,2.7-1.51,4.44-1.51Z"/>
        <path class="cls-3" d="m9.71,192.44l-5.71,3.21c-.44-.69-.69-1.48-.69-2.31,0-1.37.68-2.6,1.77-3.51l4.64,2.6Z"/>
        <path class="cls-3" d="m.24,187.12l4.83,2.72c-1.09.9-1.77,2.14-1.77,3.51,0,.83.25,1.62.69,2.31l-3.76,2.11v-10.64Z"/>
        <polygon class="cls-7" points="212.92 170.15 182.41 170.15 171.11 170.15 140.6 170.15 129.3 170.15 98.79 170.15 87.49 170.15 56.98 170.15 45.68 170.15 15.17 170.15 3.86 170.15 .24 170.15 .24 113.68 1.13 113.68 270.03 113.68 270.03 170.15 266.04 170.15 254.73 170.15 224.22 170.15 212.92 170.15"/>
        <path class="cls-3" d="m.24,175.18h40.19l-26.33,14.8c-1.14-1.02-2.77-1.65-4.59-1.65s-3.31.58-4.44,1.51l-4.83-2.72v-11.94Z"/>
      </g>
      <g>
        <polyline class="cls-10" points="270.03 204.28 239.59 204.28 198.12 204.28 156.01 204.28 114.54 204.28 72.43 204.28 30.77 204.28 .24 204.28"/>
        <line class="cls-10" x1=".24" y1="107.92" x2="270.03" y2="107.92"/>
        <line class="cls-10" x1=".24" y1="113.68" x2="270.03" y2="113.68"/>
        <line class="cls-10" x1="266.04" y1="170.15" x2="270.03" y2="170.15"/>
        <line class="cls-10" x1="224.22" y1="170.15" x2="254.73" y2="170.15"/>
        <line class="cls-10" x1="182.41" y1="170.15" x2="212.92" y2="170.15"/>
        <line class="cls-10" x1="140.6" y1="170.15" x2="171.11" y2="170.15"/>
        <line class="cls-10" x1="98.79" y1="170.15" x2="129.3" y2="170.15"/>
        <line class="cls-10" x1="56.98" y1="170.15" x2="87.49" y2="170.15"/>
        <line class="cls-10" x1="15.17" y1="170.15" x2="45.68" y2="170.15"/>
        <line class="cls-10" x1=".24" y1="170.15" x2="3.86" y2="170.15"/>
        <line class="cls-10" x1="266.04" y1="175.18" x2="270.03" y2="175.18"/>
        <polyline class="cls-10" points="224.22 175.18 229.93 175.18 254.73 175.18"/>
        <polyline class="cls-10" points="182.41 175.18 207.78 175.18 212.92 175.18"/>
        <polyline class="cls-10" points="140.6 175.18 146.35 175.18 171.11 175.18"/>
        <polyline class="cls-10" points="98.79 175.18 124.2 175.18 129.3 175.18"/>
        <polyline class="cls-10" points="56.98 175.18 62.77 175.18 87.49 175.18"/>
        <polyline class="cls-10" points="15.17 175.18 40.43 175.18 45.68 175.18"/>
        <line class="cls-10" x1=".24" y1="175.18" x2="3.86" y2="175.18"/>
        <polyline class="cls-10" points="72.43 204.28 87.77 195.65 93.49 192.44 97.88 189.97 124.2 175.18"/>
        <polyline class="cls-10" points="114.54 204.28 98.9 195.49 93.49 192.44 88.85 189.84 62.77 175.18"/>
        <path class="cls-10" d="m139.33,193.34c0,2.78-2.25,5.03-5.02,5.03s-5.03-2.25-5.03-5.03,2.25-5.02,5.03-5.02,5.02,2.25,5.02,5.02Z"/>
        <path class="cls-10" d="m223.96,193.34c0,2.78-2.25,5.03-5.02,5.03s-5.03-2.25-5.03-5.03,2.25-5.02,5.03-5.02,5.02,2.25,5.02,5.02Z"/>
        <path class="cls-10" d="m97.88,189.97c1,.89,1.61,2.07,1.61,3.37,0,.76-.21,1.49-.59,2.14-1,1.7-3.13,2.88-5.62,2.88s-4.48-1.1-5.51-2.72c-.44-.69-.69-1.48-.69-2.31,0-1.37.68-2.6,1.77-3.51,1.13-.93,2.7-1.51,4.44-1.51,1.82,0,3.45.63,4.59,1.65Z"/>
        <polyline class="cls-10" points=".24 197.76 4 195.65 9.71 192.44 14.11 189.97 40.43 175.18"/>
        <polyline class="cls-10" points="30.77 204.28 15.13 195.49 9.71 192.44 5.08 189.84 .24 187.12"/>
        <path class="cls-10" d="m14.11,189.97c1,.89,1.61,2.07,1.61,3.37,0,.76-.21,1.49-.59,2.14-1,1.7-3.13,2.88-5.62,2.88s-4.48-1.1-5.51-2.72c-.44-.69-.69-1.48-.69-2.31,0-1.37.68-2.6,1.77-3.51,1.13-.93,2.7-1.51,4.44-1.51,1.82,0,3.45.63,4.59,1.65Z"/>
        <polyline class="cls-10" points="156.01 204.28 171.35 195.65 177.07 192.44 181.46 189.97 207.78 175.18"/>
        <polyline class="cls-10" points="198.12 204.28 182.48 195.49 177.07 192.44 172.43 189.84 146.35 175.18"/>
        <path class="cls-10" d="m181.46,189.97c1,.89,1.61,2.07,1.61,3.37,0,.76-.21,1.49-.59,2.14-1,1.7-3.13,2.88-5.62,2.88s-4.48-1.1-5.51-2.72c-.44-.69-.69-1.48-.69-2.31,0-1.37.68-2.6,1.77-3.51,1.13-.93,2.7-1.51,4.44-1.51,1.82,0,3.45.63,4.59,1.65Z"/>
        <polyline class="cls-10" points="239.59 204.28 254.93 195.65 260.64 192.44 265.04 189.97 270.03 187.16"/>
        <polyline class="cls-10" points="270.03 197.72 266.06 195.49 260.64 192.44 256.01 189.84 229.93 175.18"/>
        <path class="cls-10" d="m265.04,189.97c1,.89,1.61,2.07,1.61,3.38,0,.76-.21,1.49-.59,2.14-1,1.7-3.13,2.88-5.62,2.88s-4.48-1.1-5.51-2.72c-.44-.69-.69-1.48-.69-2.31,0-1.37.68-2.6,1.77-3.51,1.13-.93,2.7-1.51,4.44-1.51,1.82,0,3.45.63,4.59,1.64Z"/>
        <path class="cls-10" d="m54.24,193.34c0,2.78-2.25,5.03-5.02,5.03s-5.03-2.25-5.03-5.03,2.25-5.02,5.03-5.02,5.02,2.25,5.02,5.02Z"/>
        <rect class="cls-10" x="3.86" y="170.15" width="11.3" height="5.03"/>
        <rect class="cls-10" x="45.68" y="170.15" width="11.3" height="5.03"/>
        <rect class="cls-10" x="87.49" y="170.15" width="11.3" height="5.03"/>
        <rect class="cls-10" x="129.3" y="170.15" width="11.3" height="5.03"/>
        <rect class="cls-10" x="171.11" y="170.15" width="11.3" height="5.03"/>
        <rect class="cls-10" x="212.92" y="170.15" width="11.3" height="5.03"/>
        <rect class="cls-10" x="254.73" y="170.15" width="11.3" height="5.03"/>
      </g>
    </g>
  </g>
  <g id="_レイヤー_2" data-name="レイヤー 2">
    <g>
      <g>
        <path class="cls-8" d="m232.94,114.72c2.71,1.5,12.93,6.63,15.95,8.58,3,1.94,4.51,4.36,4.51,4.36,0,0-9.62,7.59-19.85,11.31-10.22,3.73-20.44,4.59-26.46,8.67-6.02,4.08-12.34,7.54-12.34,7.54l-.42-.1c.84-3.51,1.23-7.42,1.23-7.42,0,0-1.35-8.23.91-12.17,2.25-3.95,3.94-8.68,4.28-11.51.34-2.82-2.83-4.28-12.86-4.62,4.96-6.88,7.11-10.49,6.32-12.63-.21-.56-.49-1.17-.8-1.78l.34-.18s22.66-1.12,29.58-7.01c4.81,9.16,6.92,15.49,9.62,16.98Z"/>
        <path class="cls-4" d="m120.43,102.88c.08-.06,1.27-.83,3.57-1.86,0,0,17.69,11.13,30.61,16.7,5.72,2.46,11.1,4.11,15.44,5.57l.2-.61s.59-1.21,1.38-3.08h0c.38-.1,10.52-2.52,16.24-.27,10.04.34,13.2,1.8,12.86,4.62-.34,2.83-2.03,7.56-4.28,11.51-2.26,3.94-.91,12.17-.91,12.17,0,0-.39,3.91-1.23,7.42-.59,2.48-1.41,4.76-2.49,5.33-2.59,1.35-6.77.22-18.49-2.6-9.03,4.63-33.73,4.11-33.73,4.11,0,0-1.54-.95-3.66-1.85l.8-2.1c1.63.61,3.28,1.18,4.93,1.72,6.31.75,28.57-2.85,28.57-2.85,0,0-6.32-2.41-23.16-8.28-16.84-5.86-46.01-27.06-52.34-32.62-2.57-.3-1.78.75-1.03,2.4.59,1.3,5.89,8.88,12.49,16.87l-.59.49c-.68,1.29-9.29,6.54-9.29,6.54l-.11.16c-.08-.05-.17-.11-.25-.16,0,0-2.07,1.4-3.9,2.26-2.14,1.01-7.19,3.79-12.26,6.43-5.57,2.91-11.17,5.63-12.99,5.63-.12,0-.23,0-.32-.04-2.55-.75-9.42-9.45-9.42-9.45,2.99-2.61,7.86-7.07,12.69-11.37,0,0,8,.98,13.14,0,5.13-.99,10.5-6.09,8.84-7.6-1.62-1.47-9.64-3.01-10-3.08,5.71-5.86,8.39-11.36,7.9-12.85-.6-1.8-2.25.15-7.97,5.57-5.72,5.42-31.27,22.55-39.09,25.72-7.83,3.15-11.73,5.26-12.63,6.92-.9,1.65,5.87,1.35,5.87,1.35,0,0,1.95.15,7.97.02.38,0,.74-.02,1.1-.04l.09,1.81c-5.81.25-13.52.51-15.55.24-3.38-.45-4.51-1.7-4.07-4.85.44-3.16.12-15.45.02-22.33-.11-6.88.34-8.12,6.54-11.39,6.2-3.28,12.52-12.75,13.98-18.95s4.62-10.15,6.54-11.95,25.03-16.7,25.03-16.7l.32-.05c1.25,7.02,5.51,24.19,6.31,27.36-.21.03-.39.07-.53.12-.51.21-.79.82-.41,1.4l-.76.84c-.05.26-.28.53.2,1.11.07.08.13.17.19.26,0,0-.65.73-.63,1.14s.46.64,1.09.93c-.41-.02-.71.34-.61.71.11.37.81,1.17,1.19,1.23.31.04.72.05.92-.07h0l2.11.95.14.51.3,1.13c.82,1.33,1.77,1,2.78-.19v-1.05c.89.05,1.71.06,2.02-.06.13-.05.17-.12.1-.23-.69-.95-.81-6.07,0-7.31.06-.1.13-.17.2-.21,2.41-1.35,9.86-3.91,9.86-3.91,4.51-1.65,9.43-3.15,10.73,0,.73,1.78,3.86,6.33,7.41,10.72Z"/>
        <path class="cls-4" d="m194.19,106.71c.8,2.15-1.35,5.75-6.32,12.63-5.72-2.25-15.86.17-16.24.26,2.02-4.72,5.39-13.65,4.19-18.14,2.61,1.55,5.4.12,7.09-.04,2.37-.22,6.2-2.59,7.44-1.12.92,1.08,2.15,2.9,3.04,4.64.31.62.58,1.23.8,1.78Z"/>
        <path class="cls-4" d="m124,101.03c-2.3,1.02-3.49,1.79-3.57,1.86-3.55-4.39-6.68-8.95-7.41-10.72-1.3-3.15-6.22-1.65-10.73,0l4.21-22.25v-.04c5.2.29,11.17-1.56,16.17-5.9,6.84-5.94,11.09-13.33,11.09-13.33h0c3.64.58,7.47-.08,10.71-.05,4.96.04,11.05,9.55,14.43,16.99,3.38,7.45,10.83,23.91,13.98,30.34.9,1.83,1.91,2.92,2.95,3.54,1.2,4.5-2.16,13.43-4.19,18.14h0c-.79,1.88-1.38,3.09-1.38,3.09l-.2.61c-4.34-1.47-9.72-3.11-15.44-5.57-12.92-5.57-30.61-16.7-30.61-16.7Z"/>
        <path class="cls-6" d="m147.09,148.54c16.85,5.87,23.16,8.28,23.16,8.28,0,0-22.26,3.6-28.57,2.85-1.65-.54-3.3-1.11-4.93-1.72-8.78-3.29-17.23-7.8-24.85-16.17-1.95-2.15-3.87-4.38-5.7-6.58-6.6-7.99-11.9-15.57-12.49-16.87-.75-1.65-1.54-2.7,1.03-2.4,6.33,5.57,35.5,26.77,52.34,32.62Z"/>
        <path class="cls-4" d="m136.76,157.95l-.8,2.1c-1.27-.54-2.75-1.06-4.23-1.36-20.2-5.26-29.62-12.5-35.5-16.31l.11-.16s8.61-5.25,9.29-6.54l.59-.49c1.83,2.2,3.75,4.43,5.7,6.58,7.61,8.37,16.07,12.89,24.85,16.17Z"/>
        <path class="cls-4" d="m133.75,50.63h0s-4.25,7.4-11.09,13.34c-4.99,4.34-10.96,6.19-16.17,5.9-1.91-.1-3.72-.5-5.34-1.17-6.02-2.48-6.41-10.89-6.41-10.89,1.19.49,2.62.72,4.38.59.28-.02.57-.04.84-.08,0,0,4.87,5.42,9.45,3.54,4.59-1.88,12.86-9.36,13.16-11.63.04-.27.06-.52.08-.75.15-1.73-.08-2.43-.08-2.43l3.15-.75,2.48,2.05c1.7,1.31,3.59,1.97,5.53,2.28Z"/>
        <path class="cls-4" d="m128.22,48.35l-2.48-2.05s.15-13.38-1.95-18.05c-1.84-4.07-6.57-13.35-12.32-18.21-.82-.7-1.67-1.3-2.53-1.78-1.99-1.7-3.75-2.6-5.04-.61-1.28,2,0,4.1,0,4.1l6.02-.27.15,2.23-3.9.07.06,1.58c2.89,1.05,5,3.27,6.17,7.59,0,0,.09,4.31.2,4.31,1.7.86,3.37,2.57,3.33,4.9-.04,2.33-.8,4.58-.8,4.58l-1.47-.25c.69-1.97.15-5.69-.94-7.12-1.2-1.58-2.78,1.28-3.31,3.68h-.45s-.52.08-1.72-.9c-1.21-.98-4.96-10.38-5.11-10.98s-1.05-1.35-1.35,0c-1.88,3.23-10.75,2.93-12.48,2.93-.82,0-1.05-.29-1.08-.6-.02-.22.08-.45.14-.59.02-.03.04-.05.04-.08.03-.04.04-.05.04-.05,2.16-3.94,4.02-5.31,4.19-5.79.17-.51,0-1.98,0-1.98l-2.43-1.24.79-2.03s3.05.45,3.45.28.45-2.03.45-2.03c0,0-4-4.05-5.35-5.3-1.36-1.24-.51-3.04.27-3.72.8-.67,3.1-.62,4.29,0,1.18.62,6.37,7,6.37,7,1.63-2.93,3.38-5.36,6.48-4.63s9.92,4.18,13.65,11.67c3.72,7.5,6.86,14.53,8.62,33.33Z"/>
        <path class="cls-9" d="m90.12,46.91s-.03-.06-.02-.09c.09-.27.46-5.21.73-9.03l-1.86-.29h-2.41l-1.33.15h0c-.16-1.33-.27-2.68-.32-4.05-.23-6.1,2.31-10.08,2.31-10.08.03.31.26.6,1.08.6,1.73,0,10.6.3,12.48-2.93.3-1.35,1.2-.6,1.35,0s3.9,10,5.11,10.98c1.2.98,1.72.9,1.72.9h.45c.53-2.4,2.11-5.26,3.31-3.68,1.09,1.43,1.63,5.15.94,7.12-.08.2-.16.39-.26.55-1.06,1.73-2.03,3.46-2.03,3.46l4.91,4.36s4.35,4.93,6.37,4.61c-.02.23-.04.49-.08.75-.3,2.27-8.57,9.75-13.16,11.63-4.58,1.87-9.45-3.54-9.45-3.54-.27.04-.56.06-.84.08-1.76.13-3.19-.1-4.38-.59-.72-.29-1.34-.68-1.9-1.13-2.17-1.79-3.31-4.63-4.48-7.15-.24-.5-.46-1.04-.68-1.6l2.43-1.02Zm7.54,3.67c.51-.08.87-.18.95-.29-.68-.45-2.39-.96-2.76-.78-.38.19-.64.27-.64.27,0,0-.11-.22-.52-.27-.42-.04-.96,1.05-1.83,1.47,0,0,.45-.02,1.1-.05.11.12,1.12,1.24,1.85,1.24.77,0,1.86-1.58,1.86-1.58Z"/>
        <path class="cls-4" d="m118.18,41.13c0,1.01-.35,2.01-1.08,2.84l-.8.9-4.91-4.36s.97-1.73,2.03-3.46c.1-.16.18-.34.26-.55l1.47.25c.43.29.89.62,1.35.96,1.11.85,1.69,2.13,1.69,3.42Z"/>
        <path class="cls-5" d="m131.72,158.69c-19.06,5.53-31.24,3.05-45.79-1.02-2.99-.81-6.05-6.59-6.05-6.59l-.08-.17c5.07-2.64,10.12-5.42,12.26-6.43,1.84-.87,3.9-2.26,3.9-2.26.08.05.17.11.25.16,5.88,3.81,15.3,11.04,35.5,16.31Z"/>
        <path class="cls-4" d="m106.5,69.87v.04l-4.21,22.25s-7.45,2.56-9.86,3.91c-.07.04-.14.11-.2.21-1.43-.8-2.65-1.83-3.08-1.88-.04,0-.1,0-.16,0-.18-1.16-2.62-17.2-3.28-21.99-.5-3.72-.71-6.86-1.57-8.75l.77-.16,7.95-6.84c.56.45,1.18.84,1.9,1.13,0,0,.4,8.41,6.41,10.89,1.62.66,3.43,1.07,5.34,1.17Z"/>
        <path class="cls-2" d="m93.96,50.93c-.65.04-1.1.05-1.1.05.87-.42,1.41-1.5,1.83-1.47.42.04.52.27.52.27,0,0,.27-.08.64-.27.37-.19,2.08.33,2.76.78-.07.11-.43.21-.95.29-1.02.17-2.63.28-3.7.34Z"/>
        <path class="cls-2" d="m97.66,50.59s-1.09,1.58-1.86,1.58c-.72,0-1.73-1.11-1.85-1.24,1.07-.06,2.69-.18,3.7-.34Z"/>
        <path class="cls-9" d="m92.23,103.6c.07.11.04.18-.1.23-.31.12-1.13.11-2.02.06-1.41-.09-2.99-.29-2.99-.29l-.23-.11-2.11-.95s.07-.06.09-.11c.08-.23-.1-.64-.29-.85-.19-.19-.72-.08-.64-.53v-.04c.16.05.28.05.5-.05.27-.14.19-.56.14-.74-.04-.18-.25-.57-.25-.57h0c.18-.1.3-.27.24-.57-.11-.5-.49-.8-.49-.88s-.02-.47-.02-.47c.33-.07.81-.58.55-1.02-.3-.5-.45-1.07-.38-1.32l4.77-.91s0-.03,0-.07c.06-.02.11-.02.16,0,.43.05,1.65,1.09,3.08,1.88-.81,1.25-.69,6.36,0,7.31Z"/>
        <path class="cls-4" d="m91.76,128.09c1.66,1.51-3.71,6.61-8.84,7.6-5.14.98-13.14,0-13.14,0,2.81-2.52,5.61-4.97,8-6.99,1.46-1.23,2.79-2.46,3.98-3.69.36.07,8.38,1.62,10,3.08Z"/>
        <path class="cls-9" d="m88.98,37.5l1.86.29c-.27,3.82-.64,8.75-.73,9.03,0,.03,0,.05.02.09l-2.43,1.02c-1.12-2.91-2-6.47-2.45-10.28l1.33-.15h2.41Z"/>
        <path class="cls-1" d="m90.11,104.19v.75c-1.02,1.19-1.96,1.53-2.78.19l-.3-1.13,3.08.19Z"/>
        <path class="cls-6" d="m81.76,125.01c-1.19,1.23-2.53,2.46-3.98,3.69-2.39,2.01-5.19,4.47-8,6.99-4.82,4.3-9.7,8.75-12.69,11.37-1.4,1.21-2.39,2.03-2.76,2.23-1.55.86-4.15,2.13-9.43,2.39-.35.02-.72.03-1.1.04-6.02.13-7.97-.02-7.97-.02,0,0-6.77.3-5.87-1.35.9-1.66,4.81-3.76,12.63-6.92,7.82-3.16,33.37-20.3,39.09-25.72,5.72-5.42,7.37-7.37,7.97-5.57.49,1.49-2.19,7-7.9,12.85Z"/>
        <path class="cls-1" d="m88.98,94.41s0,.07,0,.07l-4.77.91s-.04-.18-.12-.51c.56-.08,1.33-.08,2.23-.04,1.12.04,2.13-.39,2.66-.42Z"/>
        <path class="cls-1" d="m85.71,72.42c.65,4.79,3.1,20.83,3.28,21.99-.53.04-1.54.46-2.66.42-.89-.04-1.67-.04-2.23.04-.8-3.17-5.06-20.34-6.31-27.36-.27-1.49-.39-2.54-.32-2.88.46-2.14,3.63-3.64,5.53-2.39.47.31.84.8,1.13,1.42.87,1.88,1.07,5.03,1.57,8.75Z"/>
        <path class="cls-9" d="m84.57,101.58c.19.2.37.62.29.85-.02.04-.04.08-.09.11h0c-.19.12-.61.11-.92.07-.38-.05-1.09-.86-1.19-1.23-.1-.36.2-.72.61-.71.34.15.51.28.67.34v.04c-.09.45.44.34.64.53Z"/>
        <path class="cls-9" d="m84.6,96.71c.27.44-.22.95-.55,1.02-.05,0-.1,0-.13,0-.31-.09-.38-.75-.76-1.33-.38-.57-.11-1.18.41-1.4.14-.05.32-.1.53-.12.08.34.12.51.12.51-.07.25.08.81.38,1.32Z"/>
        <path class="cls-9" d="m84.57,100.22c.04.19.13.6-.14.74-.22.11-.34.11-.49.05-.16-.06-.34-.19-.67-.34-.63-.29-1.06-.52-1.09-.93s.63-1.14.63-1.14c.42.55.84,1.17,1.12,1.14.13,0,.28-.04.4-.11h0s.21.41.25.58Z"/>
        <path class="cls-9" d="m84.56,99.08c.06.3-.06.47-.24.56-.11.07-.27.1-.4.11-.28.03-.7-.59-1.12-1.14-.06-.09-.12-.18-.19-.26-.49-.58-.26-.86-.2-1.11l.76-.84c.38.58.45,1.25.76,1.33.04,0,.08,0,.13,0,0,0,.02.39.02.47s.38.38.49.88Z"/>
        <path class="cls-5" d="m79.88,151.09s3.06,5.78,6.05,6.59c-4.64,2.31-12.58,1.75-19.27,1.35l.15-2.48c1.82,0,7.42-2.72,12.99-5.63l.08.17Z"/>
        <path class="cls-5" d="m66.82,156.55l-.15,2.48c-1.78-.11-3.47-.19-4.98-.22-7.22-.11-9.58-2.82-9.81-5.64,0,0-3.03.16-6.9.33l-.09-1.81c5.27-.27,7.88-1.54,9.43-2.39.38-.2,1.37-1.02,2.76-2.23,0,0,6.86,8.7,9.42,9.45.09.03.19.04.32.04Z"/>
      </g>
      <g>
        <path class="cls-11" d="m87.37,22.93c-.04.07-.07.15-.11.22"/>
        <path class="cls-11" d="m87.45,22.79s0,.02-.04.05c0,.03-.03.05-.04.08-.06.14-.16.37-.14.59.03.31.26.6,1.08.6,1.73,0,10.6.3,12.48-2.93.3-1.35,1.2-.6,1.35,0s3.9,10,5.11,10.98c1.2.98,1.72.9,1.72.9h.45c.53-2.4,2.11-5.26,3.31-3.68,1.09,1.43,1.63,5.15.94,7.12-.08.2-.16.39-.26.55-1.06,1.73-2.03,3.46-2.03,3.46l4.91,4.36.8-.9c.72-.82,1.08-1.83,1.08-2.84,0-1.29-.57-2.57-1.69-3.42-.46-.34-.92-.67-1.35-.96,0,0,.75-2.25.8-4.58.04-2.33-1.63-4.05-3.33-4.9-.11,0-.2-4.31-.2-4.31-1.17-4.32-3.28-6.54-6.17-7.59l-.06-1.58,3.9-.07-.15-2.23-6.02.27s-1.28-2.1,0-4.1c1.28-1.99,3.05-1.09,5.04.61.86.49,1.7,1.09,2.53,1.78,5.75,4.86,10.49,14.13,12.32,18.21,2.1,4.66,1.95,18.05,1.95,18.05l2.48,2.05c-1.77-18.8-4.9-25.83-8.62-33.33-3.73-7.49-10.55-10.94-13.65-11.67s-4.85,1.7-6.48,4.63c0,0-5.19-6.38-6.37-7-1.19-.62-3.5-.67-4.29,0-.79.68-1.63,2.48-.27,3.72,1.35,1.25,5.35,5.3,5.35,5.3,0,0-.05,1.86-.45,2.03s-3.45-.28-3.45-.28l-.79,2.03,2.43,1.24s.17,1.47,0,1.98c-.17.49-2.02,1.86-4.19,5.79"/>
        <path class="cls-11" d="m87.23,23.52s-2.54,3.98-2.31,10.08c.05,1.38.16,2.73.32,4.05h0c.45,3.82,1.33,7.38,2.45,10.28.22.56.44,1.1.68,1.6,1.17,2.52,2.31,5.35,4.48,7.15.56.45,1.18.84,1.9,1.13,1.19.49,2.62.72,4.38.59.28-.02.57-.04.84-.08,6.42-.7,10.43-3.67,10.43-3.67"/>
        <line class="cls-11" x1="86.12" y1="28.7" x2="88.68" y2="28.7"/>
        <line class="cls-11" x1="96.05" y1="26.6" x2="99.5" y2="26.6"/>
        <path class="cls-11" d="m91.16,33.37s-.14,1.99-.32,4.43c-.27,3.82-.64,8.75-.73,9.03,0,.03,0,.05.02.09.29.43,3.7.86,4.2.37"/>
        <path class="cls-11" d="m93.27,43.37c.3,0,2.02,1.73,2.25,2.48"/>
        <line class="cls-11" x1="86.57" y1="37.5" x2="88.98" y2="37.5"/>
        <line class="cls-11" x1="97.63" y1="35.05" x2="101.17" y2="34.68"/>
        <path class="cls-11" d="m92.85,50.98c.87-.42,1.41-1.5,1.83-1.47.42.04.52.27.52.27,0,0,.27-.08.64-.27.37-.19,2.08.33,2.76.78"/>
        <path class="cls-11" d="m92.85,50.98s.45-.02,1.1-.05c1.07-.06,2.69-.18,3.7-.34.51-.08.87-.18.95-.29"/>
        <path class="cls-11" d="m93.96,50.92h0c.11.13,1.12,1.25,1.85,1.25.77,0,1.86-1.58,1.86-1.58"/>
        <line class="cls-11" x1="92.85" y1="56.68" x2="84.9" y2="63.52"/>
        <path class="cls-11" d="m77.47,67.57s-23.12,14.89-25.03,16.7-5.07,5.75-6.54,11.95-7.78,15.67-13.98,18.95c-6.2,3.27-6.65,4.51-6.54,11.39.11,6.88.42,19.17-.02,22.33-.43,3.15.69,4.4,4.07,4.85,2.03.27,9.73,0,15.55-.24,3.87-.17,6.9-.33,6.9-.33.22,2.82,2.59,5.52,9.81,5.64,1.51.03,3.21.11,4.98.22,6.69.4,14.63.96,19.27-1.35,14.55,4.06,26.72,6.55,45.79,1.02,1.48.3,2.96.82,4.23,1.36,2.12.9,3.66,1.85,3.66,1.85,0,0,24.7.52,33.73-4.11,11.72,2.82,15.9,3.95,18.49,2.6,1.08-.57,1.9-2.84,2.49-5.33.84-3.51,1.23-7.42,1.23-7.42,0,0-1.35-8.23.91-12.17,2.25-3.95,3.94-8.68,4.28-11.51.34-2.82-2.83-4.28-12.86-4.62,4.96-6.88,7.11-10.49,6.32-12.63-.21-.56-.49-1.17-.8-1.78-.89-1.74-2.12-3.56-3.04-4.64-1.24-1.47-5.07.9-7.44,1.12-1.7.17-4.49,1.59-7.09.04-1.04-.62-2.05-1.71-2.95-3.54-3.15-6.42-10.6-22.89-13.98-30.34-3.38-7.44-9.47-16.95-14.43-16.99-3.23-.03-7.07.64-10.71.04-1.94-.31-3.83-.97-5.53-2.28"/>
        <path class="cls-11" d="m99.97,58.32s4.87,5.42,9.45,3.54c4.59-1.88,12.86-9.36,13.16-11.63.04-.27.06-.52.08-.75.15-1.73-.08-2.43-.08-2.43l3.15-.75"/>
        <path class="cls-11" d="m116.3,44.87s4.35,4.93,6.37,4.61"/>
        <path class="cls-12" d="m94.75,57.81s.4,8.41,6.41,10.89c1.62.66,3.43,1.07,5.34,1.17,5.2.29,11.17-1.56,16.17-5.9,6.84-5.94,11.09-13.33,11.09-13.33"/>
        <path class="cls-12" d="m124.24,81.26l11.35-24.58,9.1,7.96s-20.44,19.57-25.21,33.23"/>
        <path class="cls-11" d="m44.89,151.69c-.35.02-.72.03-1.1.04-6.02.13-7.97-.02-7.97-.02,0,0-6.77.3-5.87-1.35.9-1.66,4.81-3.76,12.63-6.92,7.82-3.16,33.37-20.3,39.09-25.72,5.72-5.42,7.37-7.37,7.97-5.57.49,1.49-2.19,7-7.9,12.85-1.19,1.23-2.53,2.46-3.98,3.69-2.39,2.01-5.19,4.47-8,6.99-4.82,4.3-9.7,8.75-12.69,11.37-1.4,1.21-2.39,2.03-2.76,2.23-1.55.86-4.15,2.13-9.43,2.39Z"/>
        <path class="cls-11" d="m106.21,135.2c-6.6-7.99-11.9-15.57-12.49-16.87-.75-1.65-1.54-2.7,1.03-2.4,6.33,5.57,35.5,26.77,52.34,32.62,16.85,5.87,23.16,8.28,23.16,8.28,0,0-22.26,3.6-28.57,2.85-1.65-.54-3.3-1.11-4.93-1.72-8.78-3.29-17.23-7.8-24.85-16.17-1.95-2.15-3.87-4.38-5.7-6.58Z"/>
        <path class="cls-11" d="m79.88,151.09s3.06,5.78,6.05,6.59"/>
        <path class="cls-11" d="m57.08,147.06s6.86,8.7,9.42,9.45c.09.03.19.04.32.04,1.82,0,7.42-2.72,12.99-5.63,5.07-2.64,10.12-5.42,12.26-6.43,1.84-.87,3.9-2.26,3.9-2.26.08.05.17.11.25.16,5.88,3.81,15.3,11.04,35.5,16.31"/>
        <path class="cls-12" d="m96.32,142.23s8.61-5.25,9.29-6.54"/>
        <path class="cls-12" d="m81.75,125.01h0c.36.07,8.38,1.62,10,3.08,1.66,1.51-3.71,6.61-8.84,7.6-5.14.98-13.14,0-13.14,0"/>
        <path class="cls-12" d="m33.87,121.03s39.55-11.87,47.82-18.79"/>
        <path class="cls-12" d="m52.82,92.16s19.66,4.66,28.1,8.43"/>
        <path class="cls-12" d="m68.15,81.94s11.79,9.15,11.97,13.82"/>
        <path class="cls-12" d="m74.47,80.28s2.1,3.45,1.8,6.62"/>
        <path class="cls-12" d="m106.5,69.91l-4.21,22.25s-7.45,2.56-9.86,3.91c-.07.04-.14.11-.2.21"/>
        <path class="cls-12" d="m102.29,92.16c4.51-1.65,9.43-3.15,10.73,0,.73,1.78,3.86,6.33,7.41,10.72,2.76,3.43,5.79,6.76,8.17,8.62,5.41,4.27,27.67,19.06,27.67,19.06"/>
        <path class="cls-12" d="m120.42,102.88h0c.08-.06,1.27-.83,3.57-1.86,3.34-1.49,9.01-3.52,17.08-4.66,13.83-1.95,21.2-.75,21.2-.75"/>
        <path class="cls-12" d="m124,101.03s17.69,11.13,30.61,16.7c5.72,2.46,11.1,4.11,15.44,5.57,5.46,1.84,9.28,3.41,10.12,6.01,1.5,4.66,3.3,28.37,3.3,28.37"/>
        <path class="cls-12" d="m171.64,119.6c2.02-4.72,5.39-13.65,4.19-18.14"/>
        <path class="cls-12" d="m170.25,122.69s.59-1.21,1.38-3.08"/>
        <path class="cls-12" d="m171.63,119.6h0c.38-.1,10.52-2.52,16.24-.27"/>
        <path class="cls-10" d="m84.1,94.88c-.21.03-.39.07-.53.12-.51.21-.79.82-.41,1.4.38.58.45,1.25.76,1.33.04,0,.08,0,.13,0,.33-.07.81-.58.55-1.02-.3-.5-.45-1.07-.38-1.32"/>
        <path class="cls-10" d="m92.43,96.4c-.07-.04-.14-.07-.2-.11-1.43-.8-2.65-1.83-3.08-1.88-.04,0-.1,0-.16,0"/>
        <path class="cls-10" d="m83.16,96.4l-.76.84c-.05.26-.28.53.2,1.11.07.08.13.17.19.26.42.55.84,1.17,1.12,1.14.13,0,.28-.04.4-.11.18-.09.3-.26.24-.56-.11-.5-.49-.8-.49-.88s-.02-.47-.02-.47"/>
        <path class="cls-10" d="m82.8,98.61s-.65.73-.63,1.14.46.64,1.09.93c.34.15.51.28.67.34.15.05.27.05.49-.05.27-.14.19-.56.14-.74-.04-.18-.25-.57-.25-.57"/>
        <path class="cls-10" d="m83.26,100.67c-.41-.02-.71.34-.61.71.11.37.81,1.17,1.19,1.23.31.04.72.05.92-.07"/>
        <path class="cls-11" d="m84.22,95.39s-.04-.18-.12-.51c-.8-3.17-5.06-20.34-6.31-27.36-.27-1.49-.39-2.54-.32-2.88.46-2.14,3.63-3.64,5.53-2.39.47.31.84.8,1.13,1.42.87,1.88,1.07,5.03,1.57,8.75.65,4.79,3.1,20.83,3.28,21.99,0,.04,0,.07,0,.07"/>
        <path class="cls-11" d="m90.11,104.19v.75c-1.02,1.19-1.96,1.53-2.78.19l-.3-1.13,3.08.19Z"/>
        <path class="cls-12" d="m92.13,103.83s5.25,3.28,8.01,3.73"/>
        <path class="cls-11" d="m193.74,104.75s22.66-1.12,29.58-7.01c4.81,9.16,6.92,15.49,9.62,16.98,2.71,1.5,12.93,6.63,15.95,8.58,3,1.94,4.51,4.36,4.51,4.36,0,0-9.62,7.59-19.85,11.31-10.22,3.73-20.44,4.59-26.46,8.67-6.02,4.08-12.34,7.54-12.34,7.54"/>
        <path class="cls-11" d="m215.17,122.17c7.96-4.48,12.96-6.05,17.77-7.45"/>
      </g>
    </g>
  </g>
</svg>