<svg xmlns="http://www.w3.org/2000/svg" viewBox="0 0 269.94 223.66"><defs><style>.cls-1{fill:#c1272d}.cls-1,.cls-2,.cls-3,.cls-4,.cls-5,.cls-6,.cls-7,.cls-8{stroke-width:0}.cls-10{stroke-miterlimit:10}.cls-10,.cls-11,.cls-12{fill:none;stroke:#000}.cls-2{fill:#77a07c}.cls-3{fill:#88c292}.cls-4{fill:#f3edd7}.cls-11,.cls-12{stroke-linecap:round;stroke-linejoin:round}.cls-5{fill:#333}.cls-6{fill:#a97cb7}.cls-7{fill:#f9494b}.cls-12{stroke-width:.25px}.cls-8{fill:#f5d3a6}</style></defs><g id="_畳" data-name="畳"><path d="M.24 189.07h3.62v5.02H.24zM269.69 216.6v6.55h-30.4l15.33-8.62c1.03 1.61 3.1 2.71 5.5 2.71s4.61-1.18 5.61-2.88l3.96 2.23Z" class="cls-4"/><path d="M269.69 206.06v10.54l-3.96-2.23c.38-.65.59-1.38.59-2.14 0-1.3-.62-2.48-1.61-3.37l4.98-2.8Z" class="cls-4"/><path d="M269.69 194.09v11.97l-4.98 2.8c-1.14-1.01-2.77-1.64-4.59-1.64s-3.3.58-4.43 1.51l-26.05-14.64h40.05ZM269.69 116.75v5.75H.24v-5.75h269.45zM265.71 189.07h3.99v5.02h-3.99zM266.32 212.24c0 .76-.21 1.49-.59 2.14l-5.41-3.04 4.39-2.47c1 .89 1.61 2.07 1.61 3.37Z" class="cls-4"/><path d="m260.32 211.33 5.41 3.04c-1 1.7-3.13 2.88-5.61 2.88s-4.47-1.1-5.5-2.71l5.7-3.21Z" class="cls-4"/><path d="M254.42 189.07h11.29v5.02h-11.29z" class="cls-5"/><path d="m264.71 208.86-4.39 2.47-4.63-2.6c1.13-.93 2.7-1.51 4.43-1.51 1.82 0 3.45.63 4.59 1.64Z" class="cls-4"/><path d="m260.32 211.33-5.7 3.21c-.44-.68-.69-1.47-.69-2.31 0-1.37.68-2.6 1.77-3.5l4.63 2.6Z" class="cls-4"/><path d="m229.64 194.09 26.05 14.64c-1.09.9-1.77 2.13-1.77 3.5 0 .83.25 1.62.69 2.31l-15.33 8.62h-41.41l-15.62-8.78c.38-.65.59-1.38.59-2.14 0-1.3-.62-2.48-1.61-3.36l26.29-14.78h22.12Zm-5.96 18.14c0-2.77-2.25-5.01-5.01-5.01s-5.02 2.25-5.02 5.01 2.25 5.02 5.02 5.02 5.01-2.25 5.01-5.02ZM254.42 194.09H223.95v-5.02h30.47v5.02z" class="cls-4"/><path d="M212.66 189.07h11.29v5.02h-11.29zM218.67 207.22c2.77 0 5.01 2.25 5.01 5.01s-2.25 5.02-5.01 5.02-5.02-2.25-5.02-5.02 2.25-5.01 5.02-5.01Z" class="cls-5"/><path d="m207.53 194.09-26.29 14.78c-1.14-1.01-2.77-1.65-4.59-1.65s-3.3.58-4.43 1.51l-26.05-14.64h61.36Z" class="cls-4"/><path d="M182.19 194.09v-5.02h30.47v5.02h-30.47zM197.88 223.16h-42.06l15.33-8.62c1.03 1.61 3.11 2.71 5.5 2.71s4.61-1.18 5.61-2.88l15.62 8.78Z" class="cls-4"/><path d="M182.85 212.24c0 .76-.21 1.49-.59 2.14l-5.41-3.04 4.39-2.46c1 .88 1.61 2.06 1.61 3.36Z" class="cls-4"/><path d="m176.85 211.33 5.41 3.04c-1 1.7-3.13 2.88-5.61 2.88s-4.47-1.1-5.5-2.71l5.7-3.21Z" class="cls-4"/><path d="M170.9 189.07h11.29v5.02H170.9z" class="cls-5"/><path d="M176.65 207.22c1.82 0 3.45.63 4.59 1.65l-4.39 2.46-4.63-2.6c1.13-.93 2.7-1.51 4.43-1.51Z" class="cls-4"/><path d="m176.85 211.33-5.7 3.21c-.44-.68-.69-1.47-.69-2.31 0-1.37.68-2.6 1.77-3.5l4.63 2.6Z" class="cls-4"/><path d="m146.17 194.09 26.05 14.64c-1.09.9-1.77 2.13-1.77 3.5 0 .83.25 1.62.69 2.31l-15.33 8.62H114.4l-15.62-8.78c.38-.65.59-1.38.59-2.14 0-1.3-.62-2.48-1.61-3.36l26.29-14.78h22.12Zm-7 18.14c0-2.77-2.25-5.01-5.01-5.01s-5.02 2.25-5.02 5.01 2.25 5.02 5.02 5.02 5.01-2.25 5.01-5.02ZM170.9 194.09h-30.47v-5.02h30.47v5.02z" class="cls-4"/><path d="M129.14 189.07h11.29v5.02h-11.29zM134.15 207.22c2.77 0 5.01 2.25 5.01 5.01s-2.25 5.02-5.01 5.02-5.02-2.25-5.02-5.02 2.25-5.01 5.02-5.01Z" class="cls-5"/><path d="m124.05 194.09-26.29 14.78c-1.14-1.01-2.77-1.65-4.59-1.65s-3.3.58-4.43 1.51l-26.05-14.64h61.36Z" class="cls-4"/><path d="M129.14 194.09H98.67v-5.02h30.47v5.02zM114.4 223.16H72.34l15.33-8.62c1.03 1.61 3.1 2.71 5.5 2.71s4.61-1.18 5.61-2.88l15.62 8.78Z" class="cls-4"/><path d="M99.37 212.24c0 .76-.21 1.49-.59 2.14l-5.41-3.04 4.39-2.46c1 .88 1.61 2.06 1.61 3.36Z" class="cls-4"/><path d="m93.37 211.33 5.41 3.04c-1 1.7-3.13 2.88-5.61 2.88s-4.47-1.1-5.5-2.71l5.7-3.21Z" class="cls-4"/><path d="M87.38 189.07h11.29v5.02H87.38z" class="cls-5"/><path d="M93.17 207.22c1.82 0 3.45.63 4.59 1.65l-4.39 2.46-4.63-2.6c1.13-.93 2.7-1.51 4.43-1.51Z" class="cls-4"/><path d="m93.37 211.33-5.7 3.21c-.44-.68-.69-1.47-.69-2.31 0-1.37.68-2.6 1.77-3.5l4.63 2.6Z" class="cls-4"/><path d="m62.69 194.09 26.05 14.64c-1.09.9-1.77 2.13-1.77 3.5 0 .83.25 1.62.69 2.31l-15.33 8.62h-41.6l-15.62-8.78c.38-.65.59-1.38.59-2.14 0-1.3-.62-2.48-1.61-3.36l26.29-14.78h22.31Zm-8.51 18.14c0-2.77-2.25-5.01-5.01-5.01s-5.02 2.25-5.02 5.01 2.25 5.02 5.02 5.02 5.01-2.25 5.01-5.02ZM87.38 194.09H56.91v-5.02h30.47v5.02z" class="cls-4"/><path d="M45.62 189.07h11.29v5.02H45.62zM49.17 207.22c2.77 0 5.01 2.25 5.01 5.01s-2.25 5.02-5.01 5.02-5.02-2.25-5.02-5.02 2.25-5.01 5.02-5.01Z" class="cls-5"/><path d="M45.62 194.09H15.15v-5.02h30.47v5.02zM30.73 223.16H.24v-6.51l3.75-2.11c1.03 1.61 3.11 2.71 5.5 2.71s4.61-1.18 5.61-2.88l15.62 8.78Z" class="cls-4"/><path d="M15.7 212.24c0 .76-.21 1.49-.59 2.14l-5.41-3.04 4.39-2.46c1 .88 1.61 2.06 1.61 3.36Z" class="cls-4"/><path d="M3.86 189.07h11.29v5.02H3.86z" class="cls-5"/><path d="m9.7 211.33 5.41 3.04c-1 1.7-3.13 2.88-5.61 2.88s-4.47-1.1-5.5-2.71l5.7-3.21Z" class="cls-4"/><path d="M9.5 207.22c1.82 0 3.45.63 4.59 1.65l-4.39 2.46-4.63-2.6c1.13-.93 2.7-1.51 4.43-1.51Z" class="cls-4"/><path d="M9.7 211.33 4 214.54c-.44-.68-.69-1.47-.69-2.31 0-1.37.68-2.6 1.77-3.5l4.63 2.6Z" class="cls-4"/><path d="m.24 206.02 4.83 2.71c-1.09.9-1.77 2.13-1.77 3.5 0 .83.25 1.62.69 2.31l-3.75 2.11v-10.63Z" class="cls-4"/><path d="M212.66 189.07H.24V122.5h269.45v66.57H212.66z" style="fill:#d2d296;stroke-width:0"/><path d="M.24 194.09h40.14l-26.29 14.78c-1.14-1.01-2.77-1.65-4.59-1.65s-3.3.58-4.43 1.51l-4.83-2.71v-11.93Z" class="cls-4"/><path d="M269.69 223.16H.24M.24 116.75h269.45M.24 122.5h269.45M265.71 189.07h3.98M223.95 189.07h30.47M182.19 189.07h30.47M140.43 189.07h30.47M98.67 189.07h30.47M56.91 189.07h30.47M15.15 189.07h30.47M.24 189.07h3.62M265.71 194.09h3.98M223.95 194.09H254.42M182.19 194.09h30.47M140.43 194.09h30.47M98.67 194.09h30.47M56.91 194.09H87.38M15.15 194.09h30.47M.24 194.09h3.62M72.34 223.16l15.33-8.62 5.7-3.21 4.39-2.46 26.29-14.78" class="cls-10"/><path d="m114.4 223.16-15.62-8.78-5.41-3.05-4.63-2.6-26.05-14.64M139.16 212.24c0 2.77-2.25 5.02-5.01 5.02s-5.02-2.25-5.02-5.02 2.25-5.01 5.02-5.01 5.01 2.25 5.01 5.01ZM223.69 212.24c0 2.77-2.25 5.02-5.01 5.02s-5.02-2.25-5.02-5.02 2.25-5.01 5.02-5.01 5.01 2.25 5.01 5.01Z" class="cls-10"/><path d="M97.76 208.87c1 .88 1.61 2.06 1.61 3.36 0 .76-.21 1.49-.59 2.14-1 1.7-3.13 2.88-5.61 2.88s-4.47-1.1-5.5-2.71c-.44-.68-.69-1.47-.69-2.31 0-1.37.68-2.6 1.77-3.5 1.13-.93 2.7-1.51 4.43-1.51 1.82 0 3.45.63 4.59 1.65ZM.24 216.65 4 214.54l5.7-3.21 4.39-2.46 26.29-14.78" class="cls-10"/><path d="m30.73 223.16-15.62-8.78-5.41-3.05-4.63-2.6-4.83-2.71" class="cls-10"/><path d="M14.09 208.87c1 .88 1.61 2.06 1.61 3.36 0 .76-.21 1.49-.59 2.14-1 1.7-3.13 2.88-5.61 2.88s-4.47-1.1-5.5-2.71c-.44-.68-.69-1.47-.69-2.31 0-1.37.68-2.6 1.77-3.5 1.13-.93 2.7-1.51 4.43-1.51 1.82 0 3.45.63 4.59 1.65ZM155.81 223.16l15.33-8.62 5.71-3.21 4.38-2.46 26.3-14.78" class="cls-10"/><path d="m197.88 223.16-15.62-8.78-5.41-3.05-4.63-2.6-26.05-14.64" class="cls-10"/><path d="M181.23 208.87c1 .88 1.61 2.06 1.61 3.36 0 .76-.21 1.49-.59 2.14-1 1.7-3.13 2.88-5.61 2.88s-4.47-1.1-5.5-2.71c-.44-.68-.69-1.47-.69-2.31 0-1.37.68-2.6 1.77-3.5 1.13-.93 2.7-1.51 4.43-1.51 1.82 0 3.45.63 4.59 1.65ZM239.29 223.16l15.33-8.62 5.7-3.21 4.39-2.47 4.98-2.8" class="cls-10"/><path d="m269.69 216.6-3.96-2.22-5.41-3.05-4.63-2.6-26.05-14.64" class="cls-10"/><path d="M264.71 208.86c1 .89 1.61 2.07 1.61 3.37 0 .76-.21 1.49-.59 2.14-1 1.7-3.13 2.88-5.61 2.88s-4.47-1.1-5.5-2.71c-.44-.68-.69-1.47-.69-2.31 0-1.37.68-2.6 1.77-3.5 1.13-.93 2.7-1.51 4.43-1.51 1.82 0 3.45.63 4.59 1.64ZM54.18 212.24c0 2.77-2.25 5.02-5.01 5.02s-5.02-2.25-5.02-5.02 2.25-5.01 5.02-5.01 5.01 2.25 5.01 5.01ZM3.86 189.07h11.29v5.02H3.86zM45.62 189.07h11.29v5.02H45.62zM87.38 189.07h11.29v5.02H87.38zM129.14 189.07h11.29v5.02h-11.29zM170.9 189.07h11.29v5.02H170.9zM212.66 189.07h11.29v5.02h-11.29zM254.42 189.07h11.29v5.02h-11.29z" class="cls-10"/></g><g id="_レイヤー_2" data-name="レイヤー 2"><path d="M259.52 136.61c.67.68 1.8 1.8-1.69 3.16-3.44 1.33-20.73 9.1-21.28 9.33.93-1.31-.94-9.99-1.99-12.68-1.05-2.71-5.11-8.71-5.11-8.71 4.39-3.94 6.64-7.55 7.44-7.55s2.7 2.03 5.51 3.94 16.45 11.82 17.13 12.5ZM159.72 153.86c-6.71 9.67-17.07 13.34-17.07 13.34s-.11-.19-.29-.51c-1.6-2.75-9.12-15.81-9.91-17.95-.17-.46-.27-1.34-.33-2.46-.26-4.76.33-13.91.33-13.91 1.89-1.53 5.67-3.1 8.85-3.57v-.03c1.05-12.1 3.1-20.36 11.38-26.93 6.59-5.21 14.53-10.89 21.26-13.07.96-.32 1.89-.56 2.79-.71 1.25-.22 2.51.38 3.13 1.48 1.76 3.07 5.33 9.53 6.33 13.06 1.35 4.73 3.83 14.07 4.51 15.77.67 1.69 4.05 7.54 4.05 7.54s6.61 12.47 7.36 14.12c.75 1.66 1.35 1.66 5.11 1.05 9.31-.6 15.77-2.25 19.67-.6 3.9 1.66 9.64 9.32 9.64 9.32v.67c2.48 4.06 5.64 11.15 5.64 11.15-6.08.34-26.12 8.2-33.33 14.41-5.23-.25-9.69-.56-9.69-.56-6.51.98-13.16-.43-18.7-2.48-6.62-2.44-11.62-5.81-12.85-7.08-2.25-2.37-4.83-7.33-4.16-11.34-1.16 0-2.42-.26-3.72-.7Z" class="cls-3"/><path d="M234.55 136.42c1.05 2.69 2.92 11.37 1.99 12.68v.68s-5.74-7.66-9.64-9.32c-3.91-1.65-10.37 0-19.67.6-3.76.61-4.36.61-5.11-1.05-.75-1.65-7.36-14.12-7.36-14.12 4.46-1.5 10.03-6.83 24.89-3.26 0 0 9.12 3.16 9.8 5.07 0 0 4.06 6 5.11 8.71Z" class="cls-6"/><path d="M242.16 161.62c-9.11 9.91-12.95 13.84-18.02 14.52-2.67.36-9.48.15-15.32-.12 7.22-6.21 27.25-14.06 33.33-14.4Z" class="cls-7"/><path d="M215.81 115.77c2.48 3.38 3.83 6.87 3.83 6.87-14.86-3.56-20.42 1.76-24.89 3.26 0 0 9.01-7.54 11.04-8.78 2.03-1.24 7.54-4.74 10.02-1.36Z" class="cls-3"/><path d="M180.45 172.98c5.53 2.05 12.18 3.46 18.7 2.48-7.44 4.28-18.81 9.92-31.31 4.62 0 0 8.68-2.81 12.62-7.1Z" class="cls-6"/><path d="M173.94 88.76c-6.73 2.19-14.67 7.86-21.26 13.08-8.28 6.56-10.33 14.83-11.38 26.93l-4.81-.53c-1.28-2.48.07-12.09 2.11-17.05 2.03-4.95 11.93-16.37 17.12-21.7 2.9-3 6.86-7.23 9.76-10.36 0 0 5.96 5.78 8.47 9.63Z" class="cls-7"/><path d="M156.57 177.72c-12.27.9-17.68.9-17.68.9-.35-2.08-.22-3.94.14-5.55.92-4.01 3.32-6.37 3.32-6.37.19.32.29.5.29.5s18.28 2.48 24.96-1.31c1.23 1.28 6.23 4.64 12.85 7.08-3.93 4.29-12.62 7.1-12.62 7.1-7.89-.11-9.8-1.58-11.27-2.36Z" class="cls-6"/><path d="M168.8 73.85c.34.64.25 1.41-.25 1.94-.7.76-1.79 1.94-3.09 3.34-2.9 3.13-6.86 7.36-9.76 10.36-5.19 5.33-15.09 16.75-17.12 21.7-2.04 4.96-3.39 14.57-2.11 17.05l4.81.53v.03c-3.18.48-6.96 2.05-8.85 3.57 0 0-2.12-.37-2.45-8.14-.34-7.77 1.57-16.56 8.33-25.23s21.62-29.5 21.62-29.5c1.91-.23 5.71-.3 7.1 1.12 1.39 1.43 1.76 3.25 1.76 3.25Z" class="cls-3"/><path d="M167.6 165.89c-6.68 3.79-24.96 1.32-24.96 1.32s10.37-3.68 17.07-13.35c1.31.43 2.57.69 3.72.7-.67 4.01 1.91 8.96 4.16 11.33Z" class="cls-7"/><path d="M151.88 10.87c4.35 2.48 11.26 6.61 9.16 9.69s-7.21 5.63-8.41 7.06c-1.21 1.43-1.28 10.13-1.81 11.33-.52 1.21-1.44 2.86-1.44 2.86-1.07-.19-2.48.5-3.2 1.13-.51-.38-2.12-2.55-1.89-5.26.22-2.7 4.28-3.68 4.73-6.38s-3.68-3.46-7.43-3.46-9.47-1.27-9.47-1.27-.28.11-.75.3c0 0 5.48-6.69 6.91-6.61 1.43.07 7.76.6 8.76 0-9.66-2.71-12.63-3.76-14.6-6.61-1.97-2.86-1.74-6.31-1.74-9.61s2.4-4.21 4.58-3.08c2.17 1.12 12.24 7.43 16.6 9.91Z" class="cls-5"/><path d="M156.12 66.89s1.91 2.81 3.83 2.59c0 0-14.87 20.83-21.62 29.5s-8.67 17.46-8.33 25.23c.34 7.77 2.45 8.14 2.45 8.14s-.58 9.15-.33 13.91h-.06s-18.1.65-21.7.8c-.45.02-1-.04-1.61-.19-4.23-.9-11.5-4.91-11.5-4.91 1.24-1.84 2.22-3.39 2.6-4.22 1.46-3.21 2.19-15.66 2.22-16.31v-.03c.54-1.97 1.71-6.28 2.28-8.44.75-2.85 2.56-9.91 6.01-15.47 3.46-5.56 17.58-22.66 17.58-22.66l.02-.18c8.93.91 16.75-2.05 19.97-3.36.28-.12.52-.22.73-.31 2.7-1.13 5.18-1.58 6.68-6.49l.79 2.36Z" class="cls-3"/><path d="M155.33 64.52c-1.5 4.91-3.98 5.36-6.68 6.49-.21.09-.45.19-.73.31s-1.74-7.79-1.74-7.79c.19-.14.39-.28.57-.42.61-.46 1.18-.93 1.7-1.4.19-.11.4-.18.62-.21 2.32-.35 6.26 3.03 6.26 3.03Z" class="cls-3"/><path d="M128.26 53.03c-1.12-1.02-2.29-2.59-2.29-2.59l-.97-.9v-.9h-1.09c-.29.08-1.46-.13-2.51-.34-.68-.14-1.08-.79-.97-1.4.03-.19.09-.36.2-.53l4.68-6.82-.86-.59H120.34c1.62-5.05 2.78-8.19 4.56-9.16 1.87-1.02 5.03-2.35 6.46-2.93.47-.19.75-.3.75-.3s5.71 1.27 9.47 1.27 7.88.76 7.43 3.46-4.51 3.68-4.73 6.38c-.23 2.71 1.38 4.88 1.89 5.26.72-.63 2.14-1.32 3.2-1.13.36.06.68.23.92.53.97 1.2 1.05 3.83.67 5.33-.34 1.35-1.55 2.52-2.67 2.03a1.38 1.38 0 0 1-.38-.23c-1.23-.97-1.74-.22-1.74-.22s-2.42 3.68-2.27 5.03 1.73 1.43 1.88 2.33c.04.29.17 1.06.3 1.97.08.56.17 1.16.26 1.75.21 1.47.41 2.8.41 2.8-.19.14-.38.28-.57.41-3.52 2.5-8.22 4.51-13.15 4.6-1.85.04-3.33-.13-4.61-.51l.05-.19.81-3.8v-.03c-1.34-.11-2.74-.68-3.99-1.41-.86-.5-1.65-1.09-2.29-1.65-1.76-1.56-2.38-3.9-3.34-6.04l1.55-.73c.31.38 1 1.16 1.68 1.41.91.3 3.08-1.27 3.08-1.27h-.02c-.05 0-.12-.02-.18-.03l2.49-.85Z" class="cls-8"/><path d="M149.08 61.5c-.22.04-.43.1-.62.21-.52.48-1.09.94-1.7 1.4 0 0-.19-1.32-.41-2.8 0 0 2.49.53 2.73 1.18Z" class="cls-2"/><path d="M148.3 49.69s.31 5.41-.38 6.46c-.7 1.05-1.05 2.4-1.74 2.4l-.09.02c-.13-.91-.26-1.68-.3-1.97-.15-.9-1.73-.98-1.88-2.33s2.27-5.03 2.27-5.03.51-.75 1.74.22c.12.1.25.18.38.23Z" class="cls-5"/><path d="M147.92 71.32c-3.22 1.32-11.05 4.28-19.97 3.37-.41-.04-.81-.08-1.23-.14-1.44-.2-2.94-.95-4.45-1.99-.45-2.21 1.64-7.02 1.64-7.02l.07-.41c1.46 1.18 2.8 2.01 4.43 2.5 1.29.38 2.76.55 4.61.51 4.93-.09 9.63-2.1 13.15-4.59l1.74 7.78ZM142.35 166.69s-2.4 2.36-3.32 6.38l-.34-.09c-1.9 1.13-13.53 2.93-20.74 3.56-7.21.62-22.75-2.88-22.75-2.88 5.26-7.66 14.72-24.02 13.52-26.58l.04-.19c.62.14 1.16.2 1.61.19 3.61-.15 21.7-.8 21.7-.8h.06c.05 1.12.16 2 .33 2.46.79 2.14 8.31 15.2 9.91 17.95Z" class="cls-3"/><path d="m138.68 172.98.34.09a14.32 14.32 0 0 0-.14 5.55s-25.22 2.14-33.79 1.01c-8.56-1.13-22.75-4.62-22.75-4.62l-.79-4.16c-.33-1.76-2.5-3.4-2.8-3.63.71.4 12.63 7.02 16.43 6.44 0 0 15.55 3.49 22.75 2.88 7.21-.63 18.85-2.43 20.74-3.56ZM129.28 63.6v.03l-.81 3.8-.05.19c-1.63-.49-2.97-1.31-4.43-2.5-.98-.8-2.01-1.76-3.21-2.88a.699.699 0 0 0-.49-.17c.18-.05 2.36-.73 5.01.11 1.24.73 2.65 1.3 3.99 1.41Z" class="cls-2"/><path d="m128.26 53.03-2.49.85c-1.02-.16-2.47-.95-2.47-.95l-.56.32s-.15-.02-.54-.32c-.19.22-1.15.64-1.15.64s.07.11.15.2l-1.55.73c-.11-.26-.24-.53-.37-.79-1.16-2.26-1.88-4.83-1.32-7.28l2.47.47c-.11.62.29 1.26.97 1.4 1.05.21 2.21.42 2.51.34H125v.9l.97.9s1.17 1.56 2.29 2.59Z" class="cls-8"/><path d="m127.94 74.69-.02.18s-14.12 17.1-17.58 22.66c-3.45 5.56-5.26 12.62-6.01 15.47-.56 2.16-1.74 6.48-2.28 8.44v.03c-.17.62-.27 1-.27 1-3.91-3.61-2.66-5.54-8.97-6.29-.17-.57-.14-1.4.04-2.39 1.01-5.81 6.99-17.3 6.99-17.3l10.51-12.69s6.86-7.04 11.92-11.21v-.03c1.51 1.04 3.01 1.79 4.45 1.99.41.06.82.11 1.23.14Z" class="cls-3"/><path d="M125.95 53.9h.02s-2.17 1.57-3.08 1.27c-.68-.26-1.37-1.03-1.68-1.41-.08-.1-.13-.17-.15-.19.12.06 1.13.56 1.69.58.56.03 2.96-.22 3.2-.25Z" class="cls-1"/><path d="M125.77 53.87c.05 0 .12.02.18.03-.25.03-2.64.27-3.2.25-.56-.03-1.56-.52-1.69-.58s.95-.42 1.15-.64c.39.3.54.32.54.32l.56-.32s1.45.79 2.47.95Z" class="cls-1"/><path d="m125.32 39.55-4.68 6.82c-.11.17-.18.34-.2.53l-2.47-.47c.05-.24.11-.48.19-.71.85-2.53 1.56-4.8 2.2-6.77H124.47l.86.59Z" class="cls-8"/><path d="M120.28 62.07c.19 0 .36.04.49.17 1.2 1.12 2.23 2.07 3.21 2.88l-.07.41s-2.09 4.82-1.64 7.02c-2.89-2-5.8-5.07-8.31-7.4.13-.09.25-.19.35-.3l4.57-2.28c.59-.28 1.05-.49 1.39-.5Z" class="cls-3"/><path d="M122.27 72.55v.03c-5.06 4.16-11.92 11.21-11.92 11.21-.22-.19-2.3-5.5-3.93-9.75-.51-1.33-.98-2.56-1.33-3.49-.37-.96.11-2.03 1.08-2.39l7.39-2.79c.15-.05.28-.12.41-.21 2.51 2.33 5.43 5.4 8.31 7.4Z" class="cls-3"/><path d="M110.35 83.78 99.84 96.47c-2.03-1.24-5.26-11.75-6.67-16.63s2.38-2.81 4.48-3.71 8.75-2.09 8.75-2.09c1.63 4.25 3.71 9.56 3.93 9.75ZM108.7 147.08c1.2 2.56-8.26 18.92-13.52 26.58-3.79.58-15.72-6.04-16.43-6.44s-.03-.02-.03-.02l7.91-11.56v-.09c.31.04.53.06.64.07h.1s6.14-8.16 9.86-13.66c0 0 7.27 4.01 11.5 4.91l-.04.19Z" class="cls-3"/><path d="M70.09 143.06c-8.88 5.44-37.08 6.87-43.99 6.27-6.91-.6-14.6-4.96-14.6-4.96 6.19-5.52 22.75-18.92 25-20.5 2.25-1.58 6.53-1.24 10.02 0 3.49 1.24 2.59.79 2.59.79s9.6-13.58 14.37-19.49c0 0 15.48 6.71 20.42 12.02l.09.31c3.51-1 6.72-1.59 8.81-1.34 6.31.75 5.06 2.68 8.97 6.29 0 0 .11-.38.27-1-.04.65-.76 13.1-2.22 16.31-.38.83-1.36 2.37-2.6 4.22-3.72 5.5-9.86 13.66-9.86 13.66h-.1c-5.28-1.1-13.38-7.25-17.18-12.56Z" class="cls-3"/><path d="M99.84 96.47s-5.97 11.5-6.99 17.3l-.15-.03c-3.81-.91-13.98-23.67-13.98-23.67 4.84-4.72 9.74-9.41 12.19-11.54.71-.61 1.81-.27 2.06.63.06.21.12.43.19.68 1.41 4.88 4.64 15.4 6.67 16.63Z" class="cls-7"/><path d="m92.71 113.75.15.03c-.18.99-.2 1.82-.04 2.39-2.09-.25-5.3.34-8.81 1.34l-.09-.31c-4.95-5.31-20.42-12.02-20.42-12.02.96-1.19 1.73-2.07 2.18-2.47 1.29-1.13 7.14-6.89 13.05-12.63 0 0 10.17 22.76 13.98 23.67Z" class="cls-3"/><path d="M87.27 155.63c-.11 0-.34-.04-.64-.07-3.43-.4-17.78-2.07-22.38-2.47-2.92-.25-6.21.11-10.42 1.47-3.37 1.1-7.32 2.85-12.15 5.47-9.24-.34-22.75-5.63-30.18-15.65 0 0 7.69 4.36 14.6 4.96 6.91.6 35.11-.83 43.99-6.27 3.8 5.31 11.89 11.46 17.18 12.56Z" class="cls-7"/><path d="M86.64 155.56v.09l-7.91 11.56s-13.72-2.4-16.28-5.71c-2.55-3.3-8.61-6.93-8.61-6.93 4.21-1.37 7.5-1.72 10.42-1.47 4.61.4 18.95 2.07 22.38 2.47Z" class="cls-6"/><path d="M78.76 167.22c.3.23 2.47 1.86 2.8 3.63-11.15-.79-23.42-2.03-28.95-3.83-5.51-1.8-10.13-4.51-10.92-6.99 4.83-2.62 8.78-4.37 12.15-5.47 0 0 6.06 3.64 8.61 6.93 2.56 3.31 16.28 5.71 16.28 5.71l.03.02Z" class="cls-6"/><path d="M236.54 149.11v1.35c2.48 4.06 5.64 11.15 5.64 11.15h0c-9.11 9.92-12.95 13.85-18.02 14.53-2.67.36-9.48.15-15.32-.12-5.23-.25-9.69-.56-9.69-.56-7.44 4.28-18.81 9.92-31.31 4.62-7.89-.11-9.8-1.58-11.27-2.36-12.27.9-17.68.9-17.68.9s-25.22 2.14-33.79 1.01c-8.56-1.13-22.75-4.62-22.75-4.62l-.79-4.16c-11.15-.79-23.42-2.03-28.95-3.83-5.51-1.8-10.13-4.51-10.92-6.99-9.24-.34-22.75-5.63-30.18-15.65 6.19-5.52 22.75-18.92 25-20.5 2.25-1.58 6.53-1.24 10.02 0 3.49 1.24 2.59.79 2.59.79s9.6-13.58 14.37-19.49c.96-1.19 1.73-2.07 2.18-2.47 1.29-1.13 7.14-6.89 13.05-12.63 4.84-4.72 9.74-9.41 12.19-11.54.71-.61 1.81-.27 2.06.63.06.21.12.43.19.68 1.41 4.88 4.64 15.4 6.67 16.63l10.51-12.69c-.22-.19-2.3-5.5-3.93-9.75-.51-1.33-.98-2.56-1.33-3.49-.37-.96.11-2.03 1.08-2.39l7.39-2.79c.15-.05.28-.12.41-.21.13-.09.25-.19.35-.3l4.57-2.28c.59-.28 1.05-.49 1.39-.5.19 0 .36.04.49.17 1.2 1.12 2.23 2.07 3.21 2.88 1.46 1.18 2.8 2.01 4.43 2.5 1.29.38 2.76.55 4.61.51 4.93-.09 9.63-2.1 13.15-4.59" class="cls-11"/><path d="M173.94 88.76c.96-.31 1.89-.55 2.79-.71 1.25-.22 2.51.38 3.13 1.48 1.76 3.07 5.33 9.53 6.33 13.06 1.35 4.73 3.83 14.07 4.51 15.77.67 1.69 4.05 7.54 4.05 7.54s9.01-7.54 11.04-8.78c2.03-1.24 7.54-4.74 10.02-1.36s3.83 6.87 3.83 6.87 9.12 3.16 9.8 5.07c4.39-3.94 6.64-7.55 7.44-7.55s2.7 2.03 5.51 3.94 16.45 11.82 17.13 12.5c.67.68 1.8 1.8-1.69 3.16-3.44 1.33-20.73 9.1-21.28 9.33M146.18 63.53c.19-.13.39-.27.57-.41.61-.46 1.18-.93 1.7-1.4.19-.11.4-.18.62-.21 2.32-.35 6.26 3.03 6.26 3.03l.79 2.36s1.91 2.81 3.83 2.59c1.91-.23 5.71-.3 7.1 1.12 1.39 1.43 1.76 3.25 1.76 3.25.34.64.25 1.41-.25 1.94-.7.76-1.79 1.94-3.09 3.34-2.9 3.13-6.86 7.36-9.76 10.36-5.19 5.33-15.09 16.75-17.12 21.7-2.04 4.96-3.39 14.57-2.11 17.05l4.81.53c1.05-12.1 3.1-20.36 11.38-26.93 6.59-5.21 14.53-10.89 21.26-13.07M93.18 79.84s2.38-2.81 4.48-3.71 8.75-2.09 8.75-2.09" class="cls-11"/><path d="M165.47 79.13s5.96 5.78 8.47 9.63h0M110.35 83.78s6.86-7.04 11.92-11.21M99.84 96.47s-5.97 11.5-6.99 17.3c-.18.99-.2 1.82-.04 2.39M78.72 90.07s10.17 22.76 13.98 23.67M63.49 105.18s15.48 6.71 20.42 12.02M113.96 65.15c2.51 2.33 5.43 5.4 8.31 7.4 1.51 1.04 3.01 1.79 4.45 1.99.41.06.82.11 1.23.14 8.93.91 16.75-2.05 19.97-3.36.28-.12.52-.22.73-.31 2.7-1.13 5.18-1.58 6.68-6.49" class="cls-11"/><path d="M123.91 65.53s-2.09 4.82-1.64 7.02v.03M102.07 121.46c-.17.62-.27 1-.27 1-3.91-3.61-2.66-5.54-8.97-6.29-2.09-.25-5.3.34-8.81 1.34-7.08 2-15.35 5.65-17.95 7.35-3.91 2.56-18.63 5.26-19.22 5.26M127.93 74.86s-14.12 17.1-17.58 22.66c-3.45 5.56-5.26 12.62-6.01 15.47-.56 2.16-1.74 6.48-2.28 8.44M87.27 155.63c-5.28-1.1-13.38-7.25-17.18-12.56-1.18-1.65-1.95-3.21-2.09-4.53 5.56-3.02 17.13-7.53 19.37-9.93" class="cls-11"/><path d="M102.07 121.43v.03c-.04.65-.76 13.1-2.22 16.31-.38.83-1.36 2.37-2.6 4.22-3.72 5.5-9.86 13.66-9.86 13.66M11.5 144.38s7.69 4.36 14.6 4.96c6.91.6 35.11-.83 43.99-6.27M41.68 160.03c4.83-2.62 8.78-4.37 12.15-5.47 4.21-1.37 7.5-1.72 10.42-1.47 4.61.4 18.95 2.07 22.38 2.47.3.04.52.06.64.07h.1" class="cls-11"/><path d="m86.63 155.65-7.91 11.56s-13.72-2.4-16.28-5.71c-2.55-3.3-8.61-6.93-8.61-6.93" class="cls-11"/><path d="m78.72 167.2.03.02h0c.71.4 12.63 7.02 16.43 6.44 5.26-7.66 14.72-24.02 13.52-26.58M81.55 170.85c-.33-1.76-2.5-3.4-2.8-3.63M97.24 141.99s7.27 4.01 11.5 4.91c.62.14 1.16.2 1.61.19 3.61-.15 21.7-.8 21.7-.8M159.72 153.86c-6.71 9.67-17.07 13.34-17.07 13.34s-.11-.19-.29-.51c-1.6-2.75-9.12-15.81-9.91-17.95-.17-.46-.27-1.34-.33-2.46-.26-4.76.33-13.91.33-13.91 1.89-1.53 5.67-3.1 8.85-3.57 1.35-.21 2.59-.22 3.53.04.12.04.26.08.4.13.87.31 2.04.88 3.35 1.59 1.17.64 2.47 1.39 3.78 2.14 2.89 1.66 5.88 3.37 7.85 4.1 4.06 1.51 25.98 7.51 36.27 6.24" class="cls-11"/><path d="M142.04 141.99s9.72 9.23 17.67 11.88c1.31.43 2.57.69 3.72.7-.67 4.01 1.91 8.96 4.16 11.33h0c1.23 1.29 6.23 4.65 12.85 7.09 5.53 2.05 12.18 3.46 18.7 2.48" class="cls-11"/><path d="M167.83 180.08s8.68-2.81 12.62-7.1M156.57 177.72s6.99-1.91 9.58-5.19M142.34 166.7s-2.4 2.36-3.32 6.37a14.32 14.32 0 0 0-.14 5.55M95.19 173.66s15.55 3.49 22.75 2.88c7.21-.63 18.85-2.43 20.74-3.56M152.36 132.69s7.05.1 12.66-.55c8.73-1.01 18.11-3.13 23.87-4.73M148.57 130.56h0c.11-1.67 8.42-7.6 12.92-10.52 4.51-2.92 11.34-6.83 11.34-6.83M145.22 128.97s1.25-5.39 4.03-8.92 11.44-11.71 11.44-11.71M132.44 132.36s-2.12-.37-2.45-8.14c-.34-7.77 1.57-16.56 8.33-25.23s21.62-29.5 21.62-29.5M146.18 63.53v.01l1.74 7.78M146.75 63.11s-.19-1.32-.41-2.8c-.09-.58-.18-1.19-.26-1.75-.13-.91-.26-1.68-.3-1.97-.15-.9-1.73-.98-1.88-2.33s2.27-5.03 2.27-5.03.51-.75 1.74.22c.12.1.25.18.38.23 1.12.49 2.34-.68 2.67-2.03.38-1.5.3-4.13-.67-5.33-.24-.3-.56-.47-.92-.53-1.07-.19-2.48.5-3.2 1.13-.51-.38-2.12-2.55-1.89-5.26.22-2.7 4.28-3.68 4.73-6.38s-3.68-3.46-7.43-3.46-9.47-1.27-9.47-1.27-.28.11-.75.3c-1.43.58-4.59 1.91-6.46 2.93-1.78.97-2.94 4.11-4.56 9.15-.64 1.97-1.35 4.23-2.2 6.77-.08.24-.14.48-.19.71-.56 2.44.16 5.02 1.32 7.28.13.26.26.52.37.79.96 2.14 1.58 4.48 3.34 6.04.64.56 1.43 1.15 2.29 1.65 1.24.73 2.65 1.3 3.99 1.41.51.05 1.01.04 1.5-.07 3.68-.77 6.31-2.27 7.44-3.33" class="cls-11"/><path d="m127.18 36.85-1.85 2.69-4.68 6.82c-.11.17-.18.34-.2.53-.11.62.29 1.26.97 1.4 1.05.21 2.21.42 2.51.34M125 46.24V49.54M120.42 38.95h4.05M132.44 40.08s3.89.52 4.64 1.27M134.65 33.03s3.8 1.7 4.61 2.17M123.06 32.05h4.49M125.97 50.44s1.17 1.56 2.29 2.59c.51.47 1.01.82 1.39.87M125.95 53.9c-.05 0-.12-.02-.18-.03-1.02-.16-2.47-.95-2.47-.95l-.56.32s-.15-.02-.54-.32c-.19.22-1.15.64-1.15.64" class="cls-11"/><path d="M121.21 53.76c.31.38 1 1.16 1.68 1.41.91.3 3.08-1.27 3.08-1.27" class="cls-11"/><path d="M121.06 53.57s.07.1.15.19M121.06 53.57c.12.06 1.13.56 1.69.58.56.03 2.96-.22 3.2-.25h.02" class="cls-12"/><path d="M121.05 53.56h0M131.38 26.87s5.48-6.69 6.91-6.61c1.43.07 7.76.6 8.76 0-9.66-2.71-12.63-3.76-14.6-6.61-1.97-2.86-1.74-6.31-1.74-9.61s2.4-4.21 4.58-3.08c2.17 1.12 12.24 7.43 16.6 9.91 4.35 2.48 11.26 6.61 9.16 9.69s-7.21 5.63-8.41 7.06c-1.21 1.43-1.28 10.13-1.81 11.33-.52 1.21-1.44 2.86-1.44 2.86M148.3 49.69s.31 5.41-.38 6.46c-.7 1.05-1.05 2.4-1.74 2.4M236.54 149.79s-5.74-7.66-9.64-9.32c-3.91-1.65-10.37 0-19.67.6-3.76.61-4.36.61-5.11-1.05-.75-1.65-7.36-14.12-7.36-14.12 4.46-1.5 10.03-6.83 24.89-3.26M229.44 127.71s4.06 6 5.11 8.71c1.05 2.69 2.92 11.37 1.99 12.68 0 0 0 0 0 0M129.28 63.62l-.82 3.81M120.27 62.08h0c.18-.06 2.36-.74 5.01.11M146.35 60.31s2.49.53 2.73 1.18" class="cls-11"/><path d="M242.16 161.62c-6.08.34-26.12 8.19-33.33 14.4M142.64 167.21s18.28 2.47 24.96-1.31" class="cls-10"/></g></svg>