<svg xmlns="http://www.w3.org/2000/svg" xml:space="preserve" id="レイヤー_1" x="0" y="0" style="enable-background:new 0 0 270.3 216" version="1.1" viewBox="0 0 270.3 216"><style>.st0{fill:#f3edd7}.st1{fill:#333}.st3{fill:none;stroke:#000;stroke-miterlimit:10}.st4{fill:#cbba62}.st5{fill:#8e69ae}.st6{fill:#fed8ab}.st7{fill:#f73430}.st8,.st9{fill:none;stroke:#000;stroke-linecap:round;stroke-linejoin:round}.st9{stroke:#fff;stroke-width:.5}</style><g id="_畳"><path d="M.2 181.8h3.6v5H.2zM270.1 209.4v6.6h-30.4l15.4-8.6c1 1.6 3.1 2.7 5.5 2.7s4.6-1.2 5.6-2.9l3.9 2.2z" class="st0"/><path d="M270.1 198.9v10.6l-4-2.2c.4-.6.6-1.4.6-2.1 0-1.3-.6-2.5-1.6-3.4l5-2.9zM270.1 186.9v12l-5 2.8c-1.1-1-2.8-1.6-4.6-1.6s-3.3.6-4.4 1.5L230 186.9h40.1zM270.1 119.1v5.8H.2v-5.8zM266.1 181.8h4v5h-4z" class="st0"/><path d="M266.7 205c0 .8-.2 1.5-.6 2.1l-5.4-3.1 4.4-2.5c1 1 1.6 2.2 1.6 3.5zM260.7 204.1l5.4 3.1c-1 1.7-3.1 2.9-5.6 2.9s-4.5-1.1-5.5-2.7l5.7-3.3z" class="st0"/><path d="M254.8 181.8h11.3v5h-11.3z" class="st1"/><path d="m265.1 201.7-4.4 2.5-4.6-2.6c1.1-.9 2.7-1.5 4.4-1.5 1.8-.1 3.4.5 4.6 1.6z" class="st0"/><path d="m260.7 204.1-5.7 3.2c-.4-.7-.7-1.5-.7-2.3 0-1.4.7-2.6 1.8-3.5l4.6 2.6z" class="st0"/><path d="m229.9 186.9 26.1 14.7c-1.1.9-1.8 2.1-1.8 3.5 0 .8.2 1.6.7 2.3l-15.4 8.6H198l-15.6-8.8c.4-.6.6-1.4.6-2.1 0-1.3-.6-2.5-1.6-3.4l26.3-14.8h22.2zM224 205c0-2.8-2.2-5-5-5s-5 2.2-5 5 2.2 5 5 5 5-2.2 5-5z" class="st0"/><path d="M254.8 186.9H224.2v-5.1h30.6z" class="st0"/><path d="M212.9 181.8h11.3v5h-11.3zM219 200c2.8 0 5 2.2 5 5s-2.2 5-5 5-5-2.2-5-5 2.2-5 5-5z" class="st1"/><path d="m207.8 186.9-26.3 14.8c-1.1-1-2.8-1.6-4.6-1.6s-3.3.6-4.4 1.5l-26.1-14.7h61.4zM182.4 186.9v-5.1h30.5v5.1h-5.1zM198.1 216H156l15.4-8.6c1 1.6 3.1 2.7 5.5 2.7s4.6-1.2 5.6-2.9l15.6 8.8z" class="st0"/><path d="M183.1 205c0 .8-.2 1.5-.6 2.1l-5.4-3.1 4.4-2.5c1 1 1.6 2.2 1.6 3.5zM177.1 204.1l5.4 3.1c-1 1.7-3.1 2.9-5.6 2.9s-4.5-1.1-5.5-2.7l5.7-3.3z" class="st0"/><path d="M171.1 181.8h11.3v5h-11.3z" class="st1"/><path d="M176.9 200c1.8 0 3.5.6 4.6 1.6l-4.4 2.5-4.6-2.6c1.1-.9 2.6-1.5 4.4-1.5z" class="st0"/><path d="m177.1 204.1-5.7 3.2c-.4-.7-.7-1.5-.7-2.3 0-1.4.7-2.6 1.8-3.5l4.6 2.6z" class="st0"/><path d="m146.4 186.9 26.1 14.7c-1.1.9-1.8 2.1-1.8 3.5 0 .8.2 1.6.7 2.3L156 216h-41.5l-15.6-8.8c.4-.6.6-1.4.6-2.1 0-1.3-.6-2.5-1.6-3.4l26.3-14.8h22.2zm-7 18.1c0-2.8-2.2-5-5-5s-5 2.2-5 5 2.2 5 5 5 5-2.2 5-5z" class="st0"/><path d="M171.1 186.9h-30.5v-5.1h30.5z" class="st0"/><path d="M129.3 181.8h11.3v5h-11.3zM134.3 200c2.8 0 5 2.2 5 5s-2.2 5-5 5-5-2.2-5-5 2.3-5 5-5z" class="st1"/><path d="m124.2 186.9-26.3 14.8c-1.1-1-2.8-1.6-4.6-1.6s-3.3.6-4.4 1.5l-26.1-14.7h61.4zM129.3 186.9H98.8v-5.1h30.5zM114.6 216H72.4l15.3-8.6c1 1.6 3.1 2.7 5.5 2.7s4.6-1.2 5.6-2.9l15.8 8.8z" class="st0"/><path d="M99.5 205c0 .8-.2 1.5-.6 2.1l-5.4-3.1 4.4-2.5c1 1 1.6 2.2 1.6 3.5zM93.5 204.1l5.4 3.1c-1 1.7-3.1 2.9-5.6 2.9s-4.5-1.1-5.5-2.7c0-.1 5.7-3.3 5.7-3.3z" class="st0"/><path d="M87.5 181.8h11.3v5H87.5z" class="st1"/><path d="M93.3 200c1.8 0 3.5.6 4.6 1.6l-4.4 2.5-4.6-2.6c1.1-.9 2.7-1.5 4.4-1.5z" class="st0"/><path d="m93.5 204.1-5.7 3.2c-.4-.7-.7-1.5-.7-2.3 0-1.4.7-2.6 1.8-3.5l4.6 2.6z" class="st0"/><path d="m62.8 186.9 26.1 14.7c-1.1.9-1.8 2.1-1.8 3.5 0 .8.2 1.6.7 2.3L72.4 216H30.8l-15.6-8.8c.4-.6.6-1.4.6-2.1 0-1.3-.6-2.5-1.6-3.4l26.3-14.8h22.3zM54.2 205c0-2.8-2.2-5-5-5s-5 2.2-5 5 2.2 5 5 5 5-2.2 5-5z" class="st0"/><path d="M87.5 186.9H57v-5.1h30.5z" class="st0"/><path d="M45.7 181.8H57v5H45.7zM49.2 200c2.8 0 5 2.2 5 5s-2.2 5-5 5-5-2.2-5-5 2.3-5 5-5z" class="st1"/><path d="M45.7 186.9H15.2v-5.1h30.5zM30.8 216H.2v-6.5l3.8-2.1c1 1.6 3.1 2.7 5.5 2.7s4.6-1.2 5.6-2.9l15.7 8.8zM15.7 205c0 .8-.2 1.5-.6 2.1L9.7 204l4.4-2.5c1 1 1.6 2.2 1.6 3.5z" class="st0"/><path d="M3.9 181.8h11.3v5H3.9z" class="st1"/><path d="m9.7 204.1 5.4 3.1c-1 1.7-3.1 2.9-5.6 2.9S5 209 4 207.3l5.7-3.2zM9.5 200c1.8 0 3.5.6 4.6 1.6l-4.4 2.5-4.6-2.6c1.1-.9 2.7-1.5 4.4-1.5z" class="st0"/><path d="M9.7 204.1 4 207.3c-.4-.7-.7-1.5-.7-2.3 0-1.4.7-2.6 1.8-3.5l4.6 2.6zM.2 198.8l4.8 2.7c-1.1.9-1.8 2.1-1.8 3.5 0 .8.2 1.6.7 2.3l-3.8 2.1.1-10.6z" class="st0"/><path d="M212.9 181.8H.2v-56.9h269.9v56.9H224.2z" style="fill:#d2d296"/><path d="M.2 186.9h40.2l-26.3 14.8c-1.1-1-2.8-1.6-4.6-1.6s-3.3.6-4.4 1.5l-4.8-2.7-.1-12z" class="st0"/><path d="M270.1 216H.2M.2 119.1h269.9M.2 124.9h269.9M266.1 181.8h4M224.2 181.8h30.6M182.4 181.8h30.5M140.6 181.8h30.5M98.8 181.8h30.5M57 181.8h30.5M15.2 181.8h30.5M.2 181.8h3.7M266.1 186.9h4M224.2 186.9H254.8M182.4 186.9h30.5M140.6 186.9h30.5M98.8 186.9h30.5M57 186.9h30.5M15.2 186.9h30.5M.2 186.9h3.7M72.4 216l15.4-8.7 5.7-3.2 4.4-2.4 26.3-14.8" class="st3"/><path d="m114.6 216-15.7-8.8-5.4-3.1-4.6-2.6-26.1-14.6M139.4 205c0 2.8-2.2 5-5 5s-5-2.2-5-5 2.2-5 5-5 5 2.3 5 5zM224 205c0 2.8-2.2 5-5 5s-5-2.2-5-5 2.2-5 5-5 5 2.3 5 5z" class="st3"/><path d="M97.9 201.7c1 .9 1.6 2.1 1.6 3.4 0 .8-.2 1.5-.6 2.1-1 1.7-3.1 2.9-5.6 2.9s-4.5-1.1-5.5-2.7c-.4-.7-.7-1.5-.7-2.3 0-1.4.7-2.6 1.8-3.5 1.1-.9 2.7-1.5 4.4-1.5 1.8-.1 3.5.5 4.6 1.6zM.2 209.5l3.8-2.2 5.7-3.2 4.4-2.4 26.3-14.8" class="st3"/><path d="m30.8 216-15.7-8.8-5.4-3.1-4.6-2.6-4.9-2.7" class="st3"/><path d="M14.1 201.7c1 .9 1.6 2.1 1.6 3.4 0 .8-.2 1.5-.6 2.1-1 1.7-3.1 2.9-5.6 2.9S5 209 4 207.3c-.4-.7-.7-1.5-.7-2.3 0-1.4.7-2.6 1.8-3.5 1.1-.9 2.7-1.5 4.4-1.5 1.8 0 3.5.6 4.6 1.7zM156 216l15.4-8.7 5.7-3.2 4.4-2.4 26.3-14.8" class="st3"/><path d="m198.1 216-15.6-8.8-5.4-3.1-4.7-2.6-26-14.6" class="st3"/><path d="M181.5 201.7c1 .9 1.6 2.1 1.6 3.4 0 .8-.2 1.5-.6 2.1-1 1.7-3.1 2.9-5.6 2.9s-4.5-1.1-5.5-2.7c-.4-.7-.7-1.5-.7-2.3 0-1.4.7-2.6 1.8-3.5 1.1-.9 2.7-1.5 4.4-1.5 1.8-.1 3.5.5 4.6 1.6zM239.6 216l15.4-8.7 5.7-3.2 4.4-2.4 5-2.8" class="st3"/><path d="m270.1 209.4-4-2.2-5.4-3.1-4.7-2.6-26.1-14.6" class="st3"/><path d="M265.1 201.7c1 .9 1.6 2.1 1.6 3.4 0 .8-.2 1.5-.6 2.1-1 1.7-3.1 2.9-5.6 2.9s-4.5-1.1-5.5-2.7c-.4-.7-.7-1.5-.7-2.3 0-1.4.7-2.6 1.8-3.5 1.1-.9 2.7-1.5 4.4-1.5 1.8-.1 3.4.5 4.6 1.6zM54.2 205c0 2.8-2.2 5-5 5s-5-2.2-5-5 2.2-5 5-5 5 2.3 5 5zM3.9 181.8h11.3v5H3.9zM45.7 181.8H57v5H45.7zM87.5 181.8h11.3v5H87.5zM129.3 181.8h11.3v5h-11.3zM171.1 181.8h11.3v5h-11.3zM212.9 181.8h11.3v5h-11.3zM254.8 181.8h11.3v5h-11.3z" class="st3"/></g><g id="_レイヤー_2"><path d="m189.3 87.9.6 2.2-9.2 3.6c-.1-.8-.3-1.6-.4-2.3l9-3.5zM179.8 88.4l8.8-3.4.1.3c.1.4.6 2.6.6 2.6l-8.9 3.4c-.2-1-.4-1.9-.6-2.9z" class="st4"/><path d="m188.6 82.3.8 2.4-.8.3-8.8 3.4c-.1-.7-.2-1.3-.4-1.9.1 0 9.2-4.2 9.2-4.2zM179.3 84.7l8.7-4.6.7 2.1-9.2 4.2c-.1-.6-.2-1.2-.3-1.7h.1z" class="st4"/><path d="M179.1 84.7c-.2-.8-.4-1.7-.6-2.5l9-4.9 1.1 2.4-.7.4-8.7 4.6h-.1z" class="st4"/><path d="m178.1 80.4 8.3-5.6 1.2 2.5-9 4.9c-.2-.6-.4-1.2-.5-1.8z" class="st4"/><path d="m177.7 78.6 7.8-5.6.1-.1 1.4 1.5-.6.4-8.3 5.6c-.2-.6-.3-1.1-.5-1.7l.1-.1z" class="st4"/><path d="m185.5 73-7.8 5.6-.2.1c-.2-.7-.5-1.3-.7-1.9l7.2-5.5 1.6 1.7h-.1z" class="st4"/><path d="m184.1 71.3-7.2 5.5c-.3-.8-.7-1.6-1.1-2.4l6.8-5.2 1.9 1.8-.4.3zM182.5 69.2l-6.8 5.2c-.3-.5-.6-1-.9-1.4l5.8-5.6.4.4 1.5 1.4z" class="st4"/><path d="M174.8 73c-.4-.6-.9-1-1.3-1.4l5.8-6.3 1.7 1.8-.4.4-5.8 5.5zM171.2 70l6.3-6.7.3.3 1.5 1.6-5.8 6.3c-.2-.2-.5-.4-.7-.6-.6-.3-1.1-.6-1.6-.9z" class="st4"/><path d="m177.8 63-.3.4-6.3 6.7c-.6-.3-1.1-.7-1.6-1l5.8-8.1 2.4 2zM169.6 69c-.6-.4-1.3-.8-1.9-1.1l4.9-7.4-.5-.2.1-.3 1-1 2.2 2-5.8 8z" class="st4"/><path d="M167.7 67.9c-.5-.3-1.1-.6-1.6-.8l4.1-7.8 1.9.9.5.2-4.9 7.5zM170.1 59.2 166 67l-1.5-.6v-.1l3.1-8.3 2.5 1.2z" class="st4"/><path d="M164.6 66.4v.1c-.6-.2-1.1-.3-1.7-.4l2.7-11.3 2.7 1.7-.6 1.6-3.1 8.3zM160.8 65.8l2.6-12.4 2.2 1.3-2.7 11.3c-.7-.1-1.4-.1-2.1-.2z" class="st4"/><path d="M151.7 69.6c1.2-1 2.6-2.1 3.9-3.5.8-.1 1.5-.2 2.1-.2 0 0 .1 2.3-3.8 4.9-6.6 4.6-17.3 5.9-25.7 3.1-8.4-2.8-11.2-12.2-11.6-15.6 2 .1 3.9.2 5.5.4-.1.2 0 .9.3 1.8.6 1.6 1.8 4 3.7 5.6 3 2.6 6.2 4.1 12.7 4.6 6.5.5 7.9 0 7.9 0v-.2c1.9.5 3.5.2 5-.9z" class="st1"/><path d="M112.5 160c3.2.2 10.8 7.6 14 8.8-3.3-.9-6.7-1.9-9.1-2.4-5.8-1.2-17.6 0-20.6.3 6.1-2.8 12.6-6.8 15.7-6.7zM151.4 167c-1.6 0-3.6.8-5.6 1.6 3.2-1.5 18.1-8.4 22.7-6.1 5.1 2.5 8.8 3.3 11.6 3.5-4.6 0-7.1 1-11.8 1.9-6.6 1.2-13.1-.9-16.9-.9zM214.8 147.9c-.6 1.1-1.2 2.2-1.8 3.1-1.6-13.8-15.7-17.1-20.5-19.8-.4-.2-.9-.5-1.6-.8 11.3-2.9 15.9-4 23.8-6.4.8-.2 1.6-.5 2.5-.8v.1c.3.4.6.9.8 1.4.6 1.5.9 3.4.9 5.7 0 1.8-.1 3.8-.5 5.8-.3 2.1-.9 4.3-1.5 6.4-.5 1.8-1.2 3.6-2.1 5.3z" class="st5"/><path d="m229.8 152.9-6.4 5.1c-1.1-4.5-8.5-10.1-8.5-10.1.8-1.7 1.5-3.5 2.1-5.3 0-.1 9.6 3.9 12.8 10.3z" class="st4"/><path d="m234.3 149.3-4.5 3.6c-3.2-6.3-12.8-10.3-12.8-10.3.7-2.1 1.2-4.3 1.5-6.4l8.4 3.7c1.5 1.8 6.4 6.7 7.4 9.4zM218.5 136.1c.3-2 .5-4 .5-5.8 0 0 .9.1 2.3.2 6.2 1.3 12.4 5.1 12.4 5.1l-2.6 5.9-4.2-1.9-8.4-3.5z" class="st4"/><path d="M221.2 130.6c-1.4-.1-2.3-.2-2.3-.2 0-2.2-.3-4.2-.9-5.7h13.8l-.8 7.4c-2.3-.6-6.9-1.2-9.8-1.5.1 0 .1 0 0 0zM231.5 114.9c1.1 0 3-.1 1.8 1.8-1.1 1.7-9.3 4.4-16.1 6.4-.9.3-1.7.5-2.5.8-7.9 2.4-12.6 3.5-23.8 6.4-1.6-.8-4-1.9-6.5-2.9.3-.1 5.4-1.3 11.4-2.8 6.7-1.6 14.5-3.6 18.1-4.7 7.1-2 16.6-5 17.6-5zM125 141.4c-1.3.2-2.9.4-4.6.7h-.1c-.2-1.6-.7-3.1-1.9-3.5l.1-.3c2.9 1.1 5.3 2.2 6.5 3.1z" class="st4"/><path d="M125 141.4c3.6-.6 6.1-.9 8.8-1.6 1.5 1.1 3.2 2.2 4.9 3.4 0 0-3.9 1-10.1 2-1.1.2-5 .9-7.8 1.3 0-.6 0-1.2-.1-1.9v-.3c-.1-.7-.2-1.5-.3-2.2h.1c1.7-.3 3.2-.5 4.5-.7zM120.6 144.6c.1.7.1 1.4.1 1.9 0 2.1-.8 3.4-2 3.9-1.3.5-3.2-.6-3.6-2.8l-.1-.4c1-.2 2-.3 2.9-.5.5-.6.6-1.4.5-2.2l2.1-.1c.1 0 .1.1.1.2zM120.3 142.1c.1.7.2 1.5.3 2.2l-2.1.1c-.1-.6-.3-1.3-.6-1.9-.9.1-1.8.3-2.7.4-.3-2.3 1.2-4.5 2.3-4.5.4 0 .7 0 1 .1 1.2.6 1.6 2 1.8 3.6zM111.7 136.1c-4.2.9-7.6 6-8.6 8.5-1.4.2-2.7.4-3.7.6-3.7.4-5.7.7-6.8.8.6-3.9 5.5-11.6 8.5-12.1 1.5-.1 5.9.9 10.6 2.2z" class="st4"/><path d="M111.7 136.1c2.3.7 4.7 1.4 6.8 2.2l-.1.3c-.3-.1-.6-.2-1-.1-1.1 0-2.7 2.2-2.3 4.5-4.4.7-8.6 1.2-12 1.7 1-2.6 4.4-7.7 8.6-8.6zM118.4 144.5c.1.8 0 1.6-.5 2.2-.9.1-1.9.3-2.9.5-.5.1-1 .2-1.5.2-1.3.2-2.7.4-4.1.6-1.4.2-2.8.4-4.1.7-1.5.2-2.9.4-4.3.7-1.4.2-2.8.4-4 .6-1.4.2-2.6.4-3.5.6-1.1.2-2.1-.8-2.1-2v-.9c0-.8.5-1.4 1.1-1.5 1.1-.1 3.1-.4 6.8-.8 1.1-.2 2.3-.4 3.7-.6 3.4-.5 7.6-1.1 12-1.7.9-.1 1.8-.3 2.7-.4.4.5.6 1.2.7 1.8z" class="st4"/><path d="m109.5 148.5-.1-.5c1.4-.2 2.7-.4 4.1-.6l.1.5-15.8 15.4s-2.9-.2-2.4-1c0 0 .1-.1.2-.3l.2-.2 10.6-10.3c.5-.4.9-.9 1.3-1.2l1.8-1.8zM101.1 149.4c1.3-.2 2.8-.4 4.3-.7l.1.5s-6.5 6.2-10.7 10.3l-.1-.1-5.4 5.3s-2.9-.2-2.4-1c.4-.6 7.6-7.6 11.7-11.6 1.6-1.6 2.7-2.6 2.7-2.6l-.2-.1z" class="st4"/><path d="M101.1 149.5s-1.1 1.1-2.7 2.6l-10.7 10.4s-2.9-.2-2.4-1 11.8-11.4 11.8-11.4v-.1c1.2-.2 2.5-.4 4-.6v.1zM105.3 148.7c1.3-.2 2.7-.4 4.1-.7l.1.5-1.8 1.8c-.4.4-.8.8-1.3 1.2-3.5 3.4-8.9 8.6-10.6 10.3l-.2.2-2.1 2s-2.9-.2-2.4-1c.2-.2 1.6-1.7 3.5-3.6 4.2-4.1 10.7-10.3 10.7-10.3v-.4z" class="st4"/><path d="M125.2 94.3c-.5 0-1.9 0-3.4.1-.4 0-.9-.1-1.3-.3 1.5-.2.8-.7.6-1.2s-1.5-1.3-1.5-1.3c-.4-.5-2.3-.7-2.7-.3-.4.4-3.5 2.1-7.3 3.8-1.3 3.2-3.4 8.1-3.5 9.4l-.2.2c-1.3 1.6-11.2 13.6-21.3 23.1-10.8 10.2-27.6 21-39 26.3 17.1 8.4 32.7-10.7 41.6-18.9s15.1-15 16.8-21.1c.6-2.2 1.8-7.4 2-9.4.4-.1 1.3-.2 1.9-.4.8-.2 3.9.9 4.9.9 1 0 3.7.4 5.4.7 1.7.2 1.8-.3 2.1-.4.3-.1.2-1 .2-1 .2 0 1.1-.8 1.3-1.4.2-.6.9-.5 1.2-.9.4-.4.7-1.7.7-1.7.2-.2.4-.3.4-.3.2 0 .8-.8.9-1.4.1-.6.1-1.4.1-1.4.5-.1 1-.3 1.1-.4.3-.4.6-.7.6-1.2-.1-.6-1.2-1.6-1.6-1.5zm33 45.6c-6.7-2.8-17.5 4.4-17.5 4.4-.7-.4-1.3-.8-2-1.2-1.8-1.1-3.4-2.3-4.9-3.4-2.7.6-5.1 1-8.8 1.6-1.2-.9-3.6-2-6.5-3-2.1-.8-4.5-1.6-6.8-2.2-4.7-1.4-9.1-2.3-10.6-2.1-3.1.4-7.9 8.1-8.5 12.1-.7.1-1.2.8-1.1 1.5v.9c0 1.2 1 2.2 2.1 2 .9-.1 2.1-.3 3.5-.6v.1s-11.3 10.7-11.8 11.4 2.4 1 2.4 1L98.4 152c-4 3.9-11.3 11-11.7 11.6-.5.8 2.4 1 2.4 1v2.4c-3.5 0-7.4 0-10.4-.3-5.9-.4-18-5.4-23.6-7.4-5.6-2-11.9.4-17.4-1.2-5.6-1.6-8-8.7-8.3-14.6-.3-5.9 2.2-11.9 6.3-14.9s13.8-15.5 15.2-17.9c1.3-2.4 6.3-7.1 6.8-10.8.5-3.8-.3-8.6 2.4-10.7C62.8 87.1 73.6 76 76 71.9 78.5 68 89.2 59.1 95.1 59c4.6-.1 14.1-.9 21.6-.7.4 3.3 3.2 12.8 11.6 15.6 8.4 2.8 19.1 1.5 25.7-3.1 3.8-2.7 3.8-4.9 3.8-4.9 1.1-.1 2.1-.1 3.1 0 .7 0 1.4.1 2.1.3.6.1 1.2.2 1.7.4s1 .3 1.5.6c.6.2 1.1.5 1.6.8.6.3 1.3.7 1.9 1.1.5.3 1.1.7 1.6 1 .5.3 1 .6 1.5 1 .3.2.5.3.7.6.5.4.9.9 1.3 1.4.3.4.6.9.9 1.4.4.7.8 1.5 1.1 2.4.2.6.5 1.3.7 1.9.2.5.3 1.1.5 1.7.2.6.3 1.2.5 1.9.2.8.4 1.6.6 2.5.1.6.2 1.2.3 1.7.1.6.2 1.3.4 1.9.2.9.3 1.9.5 2.9.1.8.3 1.6.4 2.3.3 1.9.6 3.9 1 5.7 0 0 7 2.7 10.8 5.6s4.9 12.4 3.3 19.7c-6 1.5-11.1 2.7-11.4 2.8 2.5 1.1 4.9 2.1 6.5 2.9.6.3 1.1.6 1.6.8 4.8 2.7 18.9 6 20.5 19.8-1 1.5-2.1 2.7-3.3 3.6-15.4 2.2-30.2-.7-37-1.4 0 0-15.4-3-20.6-4.7-2-.6-6.8-1.6-11-4-.1-.1-.3-.1-.4-.2 0 0 16.6-.9 19.2-3.4-.6-.4-1.2-.7-1.7-1z" class="st1"/><path d="M160.3 57.4c-1 3.8-2.8 6.5-4.8 8.7-1.3 1.4-2.6 2.5-3.9 3.5-1.4 1.1-3.1 1.4-4.8 1v.2s-1.4.5-7.9 0c-6.6-.5-9.7-2-12.7-4.6-1.9-1.6-3.2-4-3.7-5.6h.2c1.1-.5 2.2-1 3.2-1.8.4-.3.7-.5 1-.9.4-.4 1.9-2.4 3.1-3.8.6-.8 1.1-1.4 1.3-1.5.9-.5 1.9-2 2.4-2.8.5-.8.6-1.7.4-2.6l2.2-.1v.2c.3.5 2.4-.8 4.7-2.5 1.2-.9 2.1-2.5 2.9-4 .4-.8.7-1.6 1.1-2.3 1-2 2.4-6.3 5.3-5.5.5.1.9.4 1.4.7 2.6 1.6 5.6 2.6 8.6 2.9 1.3.1 2.8.2 3.6 1.2.3.3.5.8.6 1.2.3 1.2.2 2.5.1 3.8-.1.9-.2 1.8-.4 2.7-.1.4-.2.8-.3 1.1-.9 3.5-2.6 7.1-3.6 10.8z" class="st6"/><path d="M122.1 58.8c.2-.6 1.9-.5 3.7 0-1 .7-2.1 1.2-3.2 1.8h-.2c-.3-.9-.4-1.6-.3-1.8z" class="st1"/><path d="M133.9 47.2c-.9.5-1.6.3-2.1-.4-.4-.4-.6-1.1-.8-1.8-.4-1.8-.2-3.3.3-4.5.4-1 1.3-1.3 2.5-.9l.6.3c1.5.9 1.6 3.1 1.6 4.3l.1 2.8-2.2.2z" class="st6"/><path d="m113.6 147.9-.1-.5c.5-.1 1-.2 1.5-.2l.1.4c.4 2.2 2.2 3.3 3.6 2.8 1.2-.4 2-1.7 2-3.9 2.8-.4 6.7-1.1 7.8-1.3 6.2-1 10.1-2 10.1-2 .7.4 1.3.8 2 1.2.1.1.3.1.4.2 4.2 2.4 9 3.4 11 4 5.2 1.6 20.6 4.7 20.6 4.7 8.7 12.8 9.2 11.3 15 13.5-3.1-.6-5.5-.8-7.5-.8-2.8-.2-6.5-.9-11.6-3.5-4.6-2.3-19.5 4.6-22.7 6.1-.1 0-.2.1-.3.1-.1.1-.2.1-.3.1h-.1c-2.7 1.2-5.4 2.6-7.2 2.7-1.9.1-6.7-1.3-11.5-2.7-3.2-1.2-10.9-8.7-14-8.8-3.2-.2-9.7 3.9-15.7 6.8-1.5.1-4.4.3-7.7.3v-2.4l5.4-5.3.1.1c-1.9 1.9-3.4 3.3-3.5 3.6-.5.8 2.4 1 2.4 1l2.1-2c-.1.1-.2.2-.2.3-.5.8 2.4 1 2.4 1l15.9-15.5zM133.4 12.9c-1.3 1.6-2.5 3.2-3.3 5.1-1.1 2.7-1.3 5.7-1.3 8.6 0 1 0 1.9.4 2.8.6 1.2 1.7 1.6 3 1.4 3.4-.8 5.2-3.2 5.9-6.3 0-.1.1-.3.1-.4v-.7c0-.1 0-.3-.1-.4-.9-.9-2-1.1-3.1-1.6-.1 0-.3-.1-.3-.2-.4-.5 0-2.1.7-2 1 0 2.2.7 3.1 1 1.2.4 2.5.7 3.8.9 2.5.4 2.7-5.2 2.1-6.8-.6-1.4-1.6-3-3-3.7-1.6-.7-3.6-.7-5.1.1-1.3.4-2.1 1.3-2.9 2.2zm20 9.7c.9.7 4.8.7 4.8.7v2.2H156v1.1c2.3 1.1 3.8 3.1 5.5 5 1 1.1 2.6 3 3.8 5 1.2 2 1.2 4.6 1.2 5.8-.1.9-1.2 3.2-2.4 4.1l-.3-.1c.1-.4.2-.7.3-1.1.2-.9.3-1.8.4-2.7.1-1.2.2-2.5-.1-3.8-.1-.5-.3-.9-.6-1.2-.8-1-2.3-1.1-3.6-1.2-3.1-.3-6-1.3-8.6-2.9-.4-.3-.9-.6-1.4-.7-2.9-.8-4.4 3.6-5.3 5.5-.3.7-.7 1.5-1.1 2.3-.7 1.5-1.6 3.1-2.9 4-2.3 1.7-4.3 3-4.7 2.5v-.2l-.1-2.8c0-1.2-.1-3.4-1.6-4.3l-.6-.3v-4.3c-1.4-.3-2.8-.7-4.1-1.2-1.3-.4-1.8-1-2.7-2.1-.6-.8-.9-1.9-1.1-2.9-1.2-8 2.6-15.4 8.5-20.4.7-.6 1.4-1.1 2.2-1.6 1.8-1.2 4.1-1.4 6.2-1 1.4.3 2.8 1 3.8 2.2 1.4 1.7 1.3 3.8 1.8 5.8 0-.3 2.2-2.3 2.4-2.6.8-.9 1.7-1.8 2.6-2.7 1.7-1.6 3.7-2.6 6.1-2.8 1.1-.1 2.5.1 3 1.3.2.6.2 1.2 0 1.8-.7 2.1-2.5 4.2-3.9 5.9-1.1 1.3-2.2 2.7-3.2 4-.9 1.3-3 2.9-2.1 3.7z" class="st1"/><path d="M120.4 104.5s.1.9-.2 1c-.3.1-.4.7-2.1.4-1.7-.2-4.4-.6-5.4-.7-1 0-4.1-1-4.9-.9-.6.1-1.5.3-1.9.4v-.1c.2-1.3 2.2-6.2 3.5-9.4 3.8-1.8 7-3.5 7.3-3.8.4-.4 2.2-.2 2.7.3 0 0 1.3.9 1.5 1.3s.9 1-.6 1.2c.5.2.9.3 1.3.3 1.5-.1 2.9-.1 3.4-.1s1.5 1 1.6 1.4c0 .5-.2.8-.6 1.2-.1.2-.6.3-1.1.4 0 0 0 .8-.1 1.4-.1.6-.7 1.4-.9 1.4-.1 0-.2.1-.4.3 0 0-.3 1.3-.7 1.7-.4.4-1 .2-1.2.9-.1.6-1 1.4-1.2 1.4z" class="st6"/><path d="M105.7 104.7h.1c-.3 2-1.4 7.3-2 9.4-1.7 6.1-7.9 12.8-16.8 21.1-8.9 8.2-24.5 27.3-41.6 18.9 11.4-5.3 28.3-16.1 39-26.3 10.1-9.5 20-21.5 21.3-23.1zM158.1 140c.6.6 1.2.9 1.7 1-2.6 2.5-19.2 3.4-19.2 3.4s10.9-7.3 17.5-4.4zM214 159.4c3.4 4.6 1.6 7 1.2 7.9-.4.9-2.7-.6-5.4-.4-5.9.3-15.1 1.2-22.1 0-5.7-2.3-6.3-.8-15-13.5 6.9.7 21.6 3.6 37 1.4 0-.2.9-.1 4.3 4.6z" class="st7"/><path d="M133.9 47.2c.2.9.1 1.8-.4 2.6s-1.5 2.4-2.4 2.8c-.1.1-.7.7-1.3 1.5l-.1-.1c-.1-1.1-.7-2.3-.4-3.3.3-1 2.4-4 2.4-4 .7.8 1.4 1 2.2.5z" class="st1"/><path d="M133.8 39.6c-1.2-.5-2.1-.2-2.5.9-.4 1.2-.6 2.7-.3 4.5.1.7.4 1.4.8 1.8.6.7 1.3.9 2.1.4.2.9.1 1.8-.4 2.6s-1.5 2.4-2.4 2.8c-.1.1-.7.7-1.3 1.5-1.2 1.4-2.7 3.4-3.1 3.8-.3.3-.7.6-1 .9-1 .7-2.1 1.2-3.2 1.8M140.4 66.7c2.2 2.1 4.4 3.5 6.4 4 1.8.4 3.4.1 4.8-1 1.2-1 2.6-2.1 3.9-3.5 2-2.1 3.8-4.9 4.8-8.7 1-3.7 2.6-7.2 3.5-10.9.1-.4.2-.7.3-1.1.2-.9.3-1.8.4-2.7.1-1.2.2-2.5-.1-3.8-.1-.5-.3-.9-.6-1.2-.8-1-2.3-1.1-3.6-1.2-3.1-.3-6-1.3-8.6-2.9-.4-.3-.9-.6-1.4-.7-2.9-.8-4.4 3.6-5.3 5.5-.3.7-.7 1.5-1.1 2.3-.7 1.5-1.6 3.1-2.9 4-2.3 1.7-4.3 3-4.7 2.5v-.2l-.1-2.8c0-1.2-.1-3.4-1.6-4.3l-.6-.3" class="st8"/><path d="M131.8 46.8s-2.1 3-2.4 4c-.3 1 .4 2.1.4 3.3M148.4 14.3h0c0-.3 2.2-2.3 2.4-2.6.8-.9 1.7-1.9 2.6-2.7 1.7-1.5 3.7-2.6 6.1-2.8 1.1-.1 2.5.1 3 1.3.2.6.2 1.2 0 1.8-.7 2.2-2.5 4.2-3.9 6-1.1 1.3-2.2 2.7-3.2 4-.8 1-2.9 2.6-2 3.3s4.8.7 4.8.7v2.2H156v1.1c2.3 1.1 3.8 3.1 5.5 5 1 1.1 2.6 3 3.8 5 1.2 2 1.2 4.6 1.2 5.8-.1.9-1.2 3.2-2.4 4.1M133.8 39.6h0v-4.3c-1.4-.3-2.8-.7-4.1-1.2-1.3-.4-1.8-1-2.7-2.1-.6-.8-.9-1.9-1.1-2.9-1.2-8 2.6-15.4 8.5-20.4.7-.6 1.4-1.1 2.2-1.6 1.8-1.2 4.1-1.4 6.2-1 1.4.3 2.8 1 3.8 2.2 1.4 1.7 1.3 3.8 1.8 5.8" class="st8"/><path d="M138.2 24c0 .1 0 .3-.1.4-.7 3.1-2.4 5.6-5.9 6.3-1.3.3-2.4-.1-3-1.4-.4-.9-.4-1.8-.4-2.8 0-2.9.2-5.9 1.3-8.6.8-1.9 2-3.5 3.3-5.1.8-.9 1.6-1.8 2.7-2.4 1.6-.8 3.6-.8 5.1-.1 1.4.6 2.5 2.3 3 3.7.6 1.6.5 7.2-2.1 6.8-1.3-.2-2.5-.5-3.8-.9-.9-.3-2.1-1-3.1-1-.7 0-1.2 1.6-.7 2.1.1.1.2.1.3.2 1.1.4 2.2.7 3.1 1.6.1.1.1.3.1.4.2.3.2.5.2.8h0zM143.8 40.7s5.5-1.2 7 1.2M159.2 44.8c1.9-1 4.3-.5 5 .5M149.2 47.6s2.3-.5 3.4 0M157.7 49.9s2.5-.2 3.1.6M156.1 52.4s.2 5.2-.7 6c-.9.8-1.9.7-2.9.5M151.4 55.9c-.3.7-.8 1.9-.8 2.7M150.2 61.1s2.9.8 3.7.8M157.5 57.8s.7 1 .6 2M125.8 58.8c-1.7-.5-3.5-.6-3.7 0-.1.2 0 .9.3 1.8.6 1.6 1.8 4 3.7 5.6 3 2.6 6.2 4.1 12.7 4.6s7.9 0 7.9 0M213 151c.6-1 1.3-2 1.8-3.1.8-1.7 1.5-3.5 2.1-5.3.7-2.1 1.2-4.3 1.5-6.4.3-2 .5-4 .5-5.8 0-2.2-.3-4.2-.9-5.7-.2-.6-.5-1-.8-1.4M145.6 168.7c.1 0 .2-.1.3-.1 2-.9 4.1-1.6 5.6-1.6 3.8 0 10.2 2.1 17 .9 4.7-.8 7.2-1.9 11.8-1.9 2 0 4.4.3 7.5.8 6.9 1.2 16.2.3 22.1 0 2.8-.1 5 1.3 5.4.4.4-.9 2.2-3.3-1.2-7.9-3.4-4.6-4.3-4.7-4.3-4.7 1.2-.9 2.3-2.2 3.3-3.6M145.2 168.9s.1 0 0 0M126.6 168.9c4.8 1.4 9.6 2.7 11.5 2.7 1.7-.1 4.4-1.4 7.2-2.7" class="st8"/><path d="M122.1 58.8c-1.6-.2-3.5-.4-5.5-.4-7.5-.2-17 .6-21.6.7-5.9.1-16.5 9-19 13.1-2.4 4.1-13.2 15.2-15.9 17.3-2.7 2.1-2 6.9-2.4 10.7-.5 3.8-5.4 8.4-6.8 10.8-1.3 2.4-11.1 14.9-15.2 17.9-4.1 3-6.6 9-6.3 14.9.3 5.9 2.7 12.9 8.3 14.6 5.6 1.7 11.9-.8 17.4 1.2 5.6 1.9 17.8 6.9 23.6 7.4 3 .2 6.9.3 10.4.3 3.3 0 6.2-.1 7.7-.3 3-.3 14.8-1.5 20.6-.3 2.4.5 5.7 1.4 9.1 2.4M195.8 124.7c1.6-7.2.5-16.7-3.3-19.7s-10.8-5.6-10.8-5.6c-.3-1.9-.6-3.8-1-5.7-.1-.8-.3-1.6-.4-2.3-.2-1-.3-1.9-.5-2.9-.1-.7-.2-1.3-.4-1.9-.1-.6-.2-1.2-.3-1.7-.2-.8-.4-1.7-.6-2.5-.1-.6-.3-1.3-.5-1.9-.2-.6-.3-1.1-.5-1.7-.2-.7-.5-1.3-.7-1.9-.3-.8-.7-1.6-1.1-2.4-.3-.5-.6-1-.9-1.4-.4-.6-.9-1-1.3-1.4-.2-.2-.5-.4-.7-.6-.5-.3-1-.7-1.5-1-.6-.3-1.1-.7-1.6-1-.6-.4-1.3-.8-1.9-1.1-.5-.3-1.1-.6-1.6-.8l-1.5-.6c-.6-.2-1.1-.3-1.7-.4-.6-.1-1.4-.2-2.1-.3-.9-.1-1.9 0-3.1 0-.7.1-1.4.1-2.1.2" class="st8"/><path d="M184.4 127.4h0c.3-.1 5.4-1.3 11.4-2.8 6.7-1.6 14.5-3.6 18.1-4.7 7.1-2.1 16.6-5.1 17.6-5.1s3-.1 1.8 1.8c-1.1 1.7-9.3 4.4-16.1 6.4-.9.3-1.7.5-2.5.8-7.9 2.4-12.6 3.5-23.8 6.4M110.6 92.4s-.5 1.2-1.2 2.8c-1.3 3.2-3.4 8.1-3.5 9.4v.1c-.3 2-1.4 7.3-2 9.4-1.7 6.1-7.9 12.8-16.8 21.1-8.9 8.2-24.5 27.3-41.6 18.9 11.4-5.3 28.3-16.1 39-26.3 10-9.5 20-21.5 21.3-23.1l.2-.2" class="st8"/><path d="M43.2 135.2c2-1.3 4-2.7 6-4.1 4.8-3.4 9.5-6.9 14.1-10.6 5.6-4.6 11.1-9.4 16.1-14.6 1.7-1.8 3.3-3.7 4.9-5.6l2.4-3c1.4-1.8 2.9-3.1 5.1-3.9 3.7-1.4 7.6-.8 11.5-.8 2.5 0 4.9-.1 7.4-.2" class="st9"/><path d="M120.4 94.1c1.5-.2.8-.7.6-1.2s-1.5-1.3-1.5-1.3c-.4-.5-2.3-.7-2.7-.3-.4.4-3.5 2.1-7.3 3.8" class="st8"/><path d="M118.1 92.9s1.1.8 2.2 1.3h0c.5.2.9.3 1.3.3 1.5-.1 2.9-.1 3.4-.1s1.5 1 1.6 1.4c0 .5-.2.8-.6 1.2-.1.2-.6.3-1.1.4-1 .2-2.4.4-2.5.6-.2.2-.3.7-.3.7" class="st8"/><path d="M125 97.3s0 .8-.1 1.4c-.1.6-.7 1.4-.9 1.4-.1 0-.2.1-.4.3-.4.3-1.2.8-1.8.6M123.6 100.5s-.3 1.3-.7 1.7c-.4.4-1 .2-1.2.9-.2.5-1.1 1.4-1.3 1.4s-.7.1-.7.1" class="st8"/><path d="M120.4 104.5s.1.9-.2 1c-.3.1-.4.7-2.1.4-1.7-.2-4.4-.6-5.4-.7-1 0-4.1-1-4.9-.9-.6.1-1.5.3-1.9.4h-.2" class="st8"/><path d="M127.9 127.3c1.5-6 4.2-16 10-18.2 1.7-.7 3.7-.9 5.7-.7 1.9.2 3.8.7 5.6 1.5 3.2 1.4 6.2 3.7 8.3 6.8 4.8 6.9 16 20.3 23.7 21.2" class="st9"/><path d="M184.4 127.4c2.5 1.1 4.9 2.1 6.5 2.9.6.3 1.1.6 1.6.8 4.8 2.7 18.9 6 20.5 19.8h0" class="st8"/><path d="M167.5 120.5s9.4 3.7 16.9 6.9M149.2 109.9c7.2.7 22.5.4 29.4 0 6.9-.4 9.8-1.5 12.5.4M143.6 108.4s-.5-8.3 5.6-13.2c6.1-4.9 15.4-11.9 15.4-11.9M152.6 75.1s-8.5 11.6-9.7 14.9c-1.2 3.3-5.1 13.5-5 19.1M130.6 85.3s3.2 4.1 3.2 8.4-2 21.7-2 21.7M118.1 74.3s-1.1 9.3-5.8 13.2M107.4 61.1S99 73.4 97.2 80.2c-1.8 6.8-2.6 11.3-2 12.2M89 67l-3.2 7.4s1.8 10.4 4.6 12.4c0 0 0 0 0 0" class="st9"/><path d="M79.3 80.9c1.5 1.1 3.6 5.7 5.3 5.4 1.3-.2 3.9-.3 6 .4.6.2 1.2.5 1.7.8M61.9 95.2s6.1 3.7 9 1.9c2.9-1.8 12.2-1.7 14.8-1.9" class="st9"/><path d="M209.8 154.6c-15.4 2.2-30.2-.7-37-1.4 8.7 12.8 9.2 11.3 15 13.5M120.4 142.1c1.8-.3 3.3-.5 4.6-.7 3.6-.6 6.1-.9 8.8-1.6M118.4 144.5c.1.8 0 1.6-.5 2.2-.9.1-1.9.3-2.9.5-.5.1-1 .2-1.5.2-1.3.2-2.7.4-4.1.6-1.4.2-2.8.4-4.1.7-1.5.2-2.9.4-4.3.7-1.4.2-2.8.4-4 .6-1.4.2-2.6.4-3.5.6-1.1.2-2.1-.8-2.1-2v-.9c0-.8.5-1.4 1.1-1.5 1.1-.1 3.1-.4 6.8-.8 1.1-.2 2.3-.4 3.7-.6 3.4-.5 7.6-1.1 12-1.7.9-.1 1.8-.3 2.7-.4.4.5.6 1.2.7 1.8h0zM138.7 143.2s-3.9 1-10.1 2c-1.1.2-5 .9-7.8 1.3M97.1 150.1s-11.3 10.7-11.8 11.4 2.4 1 2.4 1l10.7-10.4M107.7 150.3l1.7-1.7M95.8 161.8l10.6-10.3M105.4 149.2s-6.5 6.2-10.7 10.3c-1.9 1.9-3.4 3.3-3.5 3.6-.5.8 2.4 1 2.4 1l2.1-2" class="st8"/><path d="M109.6 148.4h0c-.3.3-1 .9-1.9 1.8-.4.4-.8.8-1.3 1.2-3.5 3.4-8.9 8.6-10.6 10.3l-.2.2c-.1.1-.2.2-.2.3-.5.8 2.4 1 2.4 1l15.8-15.4M101.1 149.5s-1.1 1.1-2.7 2.6c-4 3.9-11.3 11-11.7 11.6-.5.8 2.4 1 2.4 1l5.4-5.3 10.4-10.1" class="st8"/><path d="M116.6 58.3s0 0 0 0c.4 3.4 3.2 12.8 11.6 15.6 8.4 2.8 19.1 1.5 25.7-3.1 3.8-2.7 3.8-4.9 3.8-4.9M122.6 116.1s5.8 8.3 5.3 19.1c0 0 2.4 2.1 5.9 4.6 1.5 1.1 3.2 2.2 4.9 3.4.6.4 1.3.8 2 1.2.1.1.3.1.4.2 4.2 2.4 9 3.4 11 4 5.2 1.6 20.6 4.7 20.6 4.7" class="st9"/><path d="M140.7 144.4s16.6-.9 19.2-3.4c-.5-.1-1.1-.5-1.7-1-5.5-4.8-16-24.5-16-24.5" class="st9"/><path d="M140.7 144.4s10.8-7.2 17.5-4.4c.6.2 1.2.6 1.7 1M115.1 142.9c-.3-2.3 1.2-4.5 2.3-4.5.4 0 .7 0 1 .1 1.2.4 1.6 1.9 1.9 3.5.1.7.2 1.5.3 2.2v.3c.1.7.1 1.4.1 1.9 0 2.1-.8 3.4-2 3.9-1.3.5-3.2-.6-3.6-2.8M145.2 168.9h0s.1 0 0 0c.1-.1.2-.1.3-.2.1 0 .2-.1.3-.1 3.2-1.5 18.1-8.4 22.7-6.1 5.1 2.5 8.8 3.3 11.6 3.5h.1M96.8 166.8c6-2.9 12.5-6.9 15.7-6.8 3.2.2 10.8 7.6 14 8.8 0 0 0 0 0 0" class="st8"/><path d="M111.7 136.1c2.3.7 4.7 1.4 6.8 2.2 2.9 1.1 5.3 2.1 6.5 3h0M92.6 146.1c.6-3.9 5.5-11.6 8.5-12.1 1.4-.2 5.8.7 10.6 2.1" class="st8"/><path d="M111.7 136.1h0c-4.2.9-7.6 6-8.6 8.5M160.8 65.8l2.5-12.4 2.3 1.4 2.7 1.6-.6 1.7h0l-3.1 8.3M165.6 54.8l-2.7 11.3" class="st8"/><path d="m167.7 58.1 2.4 1.1 2 1 .5.2-4.9 7.5M170.1 59.2l-4 7.9" class="st8"/><path d="m172.2 59.9 1-1 2.2 2 2.4 2.1-.3.3-6.3 6.7M175.4 60.9l-5.8 8.1M177.8 63.6l1.5 1.6 1.7 1.9-.4.3-5.8 5.6M173.5 71.5l5.8-6.3M181 67.9l1.5 1.3 1.9 1.8-.3.3-7.2 5.5M182.5 69.2l-6.8 5.2M178.1 80.4l8.3-5.6.6-.4-1.4-1.5-1.5-1.6M185.5 73l-7.8 5.6M188 80.1l-8.7 4.6" class="st8"/><path d="m186.4 74.8 1.2 2.5 1.1 2.5-.7.3M178.6 82.3l9-5M188 80.1h0l.6 2.2.8 2.4-.8.3-8.8 3.4M179.5 86.5l9.1-4.2M188.7 85.3c.1.4.6 2.6.6 2.6l.6 2.2-9.2 3.6h0M180.3 91.3l9-3.4M221.2 130.6c-1.4-.1-2.3-.2-2.3-.2M218.1 124.7h13.8l-.8 7.4c-2.4-.6-7.1-1.2-9.9-1.5" class="st8"/><path d="m218.5 136.1 8.4 3.7 4.2 1.9 2.6-5.9s-6.2-3.8-12.4-5.1c0 0 0 0 0 0-.4-.1-.8-.2-1.2-.2M217 142.5s9.6 4 12.8 10.3" class="st8"/><path d="M214.8 147.9s7.4 5.6 8.5 10.1l6.4-5.1 4.5-3.6c-1-2.7-5.9-7.6-7.4-9.5" class="st8"/></g></svg>