<?xml version="1.0" encoding="UTF-8"?>
<svg xmlns="http://www.w3.org/2000/svg" viewBox="0 0 270.3 226.88">
  <defs>
    <style>
      .cls-1 {
        fill: #8e69ae;
      }

      .cls-1, .cls-2, .cls-3, .cls-4, .cls-5, .cls-6, .cls-7 {
        stroke-width: 0px;
      }

      .cls-2 {
        fill: #fed8ab;
      }

      .cls-8 {
        stroke-miterlimit: 10;
      }

      .cls-8, .cls-9 {
        stroke: #000;
      }

      .cls-8, .cls-9, .cls-10 {
        fill: none;
      }

      .cls-3 {
        fill: #cbba62;
      }

      .cls-4 {
        fill: #f3edd7;
      }

      .cls-9, .cls-10 {
        stroke-linecap: round;
        stroke-linejoin: round;
      }

      .cls-5 {
        fill: #333;
      }

      .cls-6 {
        fill: #d2d296;
      }

      .cls-7 {
        fill: #f73430;
      }

      .cls-10 {
        stroke: #fff;
        stroke-width: .5px;
      }
    </style>
  </defs>
  <g id="_畳" data-name="畳">
    <g>
      <g>
        <rect class="cls-4" x=".24" y="192.25" width="3.62" height="5.03"/>
        <path class="cls-4" d="m270.06,219.82v6.56h-30.44l15.35-8.63c1.03,1.61,3.11,2.72,5.51,2.72s4.62-1.18,5.62-2.88l3.97,2.23Z"/>
        <path class="cls-4" d="m270.06,209.26v10.56l-3.97-2.23c.38-.65.59-1.38.59-2.14,0-1.3-.62-2.48-1.61-3.38l4.99-2.8Z"/>
        <path class="cls-4" d="m270.06,197.27v11.99l-4.99,2.8c-1.14-1.01-2.77-1.64-4.59-1.64s-3.31.58-4.44,1.51l-26.09-14.66h40.11Z"/>
        <polygon class="cls-4" points="270.06 129.51 270.06 135.27 1.13 135.27 .24 135.27 .24 129.51 270.06 129.51"/>
        <rect class="cls-4" x="266.06" y="192.25" width="3.99" height="5.03"/>
        <path class="cls-4" d="m266.68,215.44c0,.76-.21,1.49-.59,2.14l-5.42-3.05,4.39-2.47c1,.89,1.61,2.07,1.61,3.38Z"/>
        <path class="cls-4" d="m260.67,214.54l5.42,3.05c-1,1.7-3.13,2.88-5.62,2.88s-4.48-1.1-5.51-2.72l5.71-3.21Z"/>
        <rect class="cls-5" x="254.76" y="192.25" width="11.3" height="5.03"/>
        <path class="cls-4" d="m265.07,212.06l-4.39,2.47-4.64-2.6c1.13-.93,2.7-1.51,4.44-1.51,1.82,0,3.46.63,4.59,1.64Z"/>
        <path class="cls-4" d="m260.67,214.54l-5.71,3.21c-.44-.69-.69-1.48-.69-2.31,0-1.37.68-2.6,1.77-3.51l4.64,2.6Z"/>
        <path class="cls-4" d="m229.95,197.27l26.09,14.66c-1.09.9-1.77,2.14-1.77,3.51,0,.83.25,1.62.69,2.31l-15.35,8.63h-41.47l-15.64-8.79c.38-.65.59-1.38.59-2.14,0-1.3-.62-2.48-1.61-3.37l26.33-14.8h22.15Zm-5.96,18.17c0-2.77-2.25-5.02-5.02-5.02s-5.03,2.25-5.03,5.02,2.25,5.03,5.03,5.03,5.02-2.25,5.02-5.03Z"/>
        <polygon class="cls-4" points="254.76 197.27 229.95 197.27 224.25 197.27 224.25 192.25 254.76 192.25 254.76 197.27"/>
        <rect class="cls-5" x="212.95" y="192.25" width="11.3" height="5.03"/>
        <path class="cls-5" d="m218.97,210.42c2.77,0,5.02,2.25,5.02,5.02s-2.25,5.03-5.02,5.03-5.03-2.25-5.03-5.03,2.25-5.02,5.03-5.02Z"/>
        <path class="cls-4" d="m207.81,197.27l-26.33,14.8c-1.14-1.02-2.77-1.65-4.59-1.65s-3.31.58-4.44,1.51l-26.09-14.66h61.44Z"/>
        <polygon class="cls-4" points="182.43 197.27 182.43 192.25 212.95 192.25 212.95 197.27 207.81 197.27 182.43 197.27"/>
        <path class="cls-4" d="m198.14,226.38h-42.12l15.35-8.63c1.03,1.61,3.12,2.72,5.51,2.72s4.62-1.18,5.62-2.88l15.64,8.79Z"/>
        <path class="cls-4" d="m183.09,215.44c0,.76-.21,1.49-.59,2.14l-5.42-3.05,4.39-2.47c1,.89,1.61,2.07,1.61,3.37Z"/>
        <path class="cls-4" d="m177.08,214.54l5.42,3.05c-1,1.7-3.13,2.88-5.62,2.88s-4.48-1.1-5.51-2.72l5.71-3.21Z"/>
        <rect class="cls-5" x="171.13" y="192.25" width="11.3" height="5.03"/>
        <path class="cls-4" d="m176.88,210.42c1.82,0,3.46.63,4.59,1.65l-4.39,2.47-4.64-2.6c1.13-.93,2.7-1.51,4.44-1.51Z"/>
        <path class="cls-4" d="m177.08,214.54l-5.71,3.21c-.44-.69-.69-1.48-.69-2.31,0-1.37.68-2.6,1.77-3.51l4.64,2.6Z"/>
        <path class="cls-4" d="m146.36,197.27l26.09,14.66c-1.09.9-1.77,2.14-1.77,3.51,0,.83.25,1.62.69,2.31l-15.35,8.63h-41.47l-15.64-8.79c.38-.65.59-1.38.59-2.14,0-1.3-.62-2.48-1.61-3.37l26.33-14.8h22.15Zm-7.01,18.17c0-2.77-2.25-5.02-5.02-5.02s-5.03,2.25-5.03,5.02,2.25,5.03,5.03,5.03,5.02-2.25,5.02-5.03Z"/>
        <polygon class="cls-4" points="171.13 197.27 146.36 197.27 140.62 197.27 140.62 192.25 171.13 192.25 171.13 197.27"/>
        <rect class="cls-5" x="129.31" y="192.25" width="11.3" height="5.03"/>
        <path class="cls-5" d="m134.33,210.42c2.77,0,5.02,2.25,5.02,5.02s-2.25,5.03-5.02,5.03-5.03-2.25-5.03-5.03,2.25-5.02,5.03-5.02Z"/>
        <path class="cls-4" d="m124.22,197.27l-26.33,14.8c-1.14-1.02-2.77-1.65-4.59-1.65s-3.31.58-4.44,1.51l-26.09-14.66h61.44Z"/>
        <polygon class="cls-4" points="129.31 197.27 124.22 197.27 98.8 197.27 98.8 192.25 129.31 192.25 129.31 197.27"/>
        <path class="cls-4" d="m114.56,226.38h-42.12l15.35-8.63c1.03,1.61,3.11,2.72,5.51,2.72s4.62-1.18,5.62-2.88l15.64,8.79Z"/>
        <path class="cls-4" d="m99.5,215.44c0,.76-.21,1.49-.59,2.14l-5.42-3.05,4.39-2.47c1,.89,1.61,2.07,1.61,3.37Z"/>
        <path class="cls-4" d="m93.5,214.54l5.42,3.05c-1,1.7-3.13,2.88-5.62,2.88s-4.48-1.1-5.51-2.72l5.71-3.21Z"/>
        <rect class="cls-5" x="87.5" y="192.25" width="11.3" height="5.03"/>
        <path class="cls-4" d="m93.3,210.42c1.82,0,3.46.63,4.59,1.65l-4.39,2.47-4.64-2.6c1.13-.93,2.7-1.51,4.44-1.51Z"/>
        <path class="cls-4" d="m93.5,214.54l-5.71,3.21c-.44-.69-.69-1.48-.69-2.31,0-1.37.68-2.6,1.77-3.51l4.64,2.6Z"/>
        <path class="cls-4" d="m62.77,197.27l26.09,14.66c-1.09.9-1.77,2.14-1.77,3.51,0,.83.25,1.62.69,2.31l-15.35,8.63H30.78l-15.64-8.79c.38-.65.59-1.38.59-2.14,0-1.3-.62-2.48-1.61-3.37l26.33-14.8h22.34Zm-8.52,18.17c0-2.77-2.25-5.02-5.02-5.02s-5.03,2.25-5.03,5.02,2.25,5.03,5.03,5.03,5.02-2.25,5.02-5.03Z"/>
        <polygon class="cls-4" points="87.5 197.27 62.77 197.27 56.98 197.27 56.98 192.25 87.5 192.25 87.5 197.27"/>
        <rect class="cls-5" x="45.68" y="192.25" width="11.3" height="5.03"/>
        <path class="cls-5" d="m49.23,210.42c2.77,0,5.02,2.25,5.02,5.02s-2.25,5.03-5.02,5.03-5.03-2.25-5.03-5.03,2.25-5.02,5.03-5.02Z"/>
        <polygon class="cls-4" points="45.68 197.27 40.44 197.27 15.17 197.27 15.17 192.25 45.68 192.25 45.68 197.27"/>
        <path class="cls-4" d="m30.78,226.38H.24v-6.52l3.76-2.11c1.03,1.61,3.12,2.72,5.51,2.72s4.62-1.18,5.62-2.88l15.64,8.79Z"/>
        <path class="cls-4" d="m15.72,215.44c0,.76-.21,1.49-.59,2.14l-5.42-3.05,4.39-2.47c1,.89,1.61,2.07,1.61,3.37Z"/>
        <rect class="cls-5" x="3.86" y="192.25" width="11.3" height="5.03"/>
        <path class="cls-4" d="m9.72,214.54l5.42,3.05c-1,1.7-3.13,2.88-5.62,2.88s-4.48-1.1-5.51-2.72l5.71-3.21Z"/>
        <path class="cls-4" d="m9.52,210.42c1.82,0,3.46.63,4.59,1.65l-4.39,2.47-4.64-2.6c1.13-.93,2.7-1.51,4.44-1.51Z"/>
        <path class="cls-4" d="m9.72,214.54l-5.71,3.21c-.44-.69-.69-1.48-.69-2.31,0-1.37.68-2.6,1.77-3.51l4.64,2.6Z"/>
        <path class="cls-4" d="m.24,209.22l4.84,2.72c-1.09.9-1.77,2.14-1.77,3.51,0,.83.25,1.62.69,2.31l-3.76,2.11v-10.64Z"/>
        <polygon class="cls-6" points="212.95 192.25 182.43 192.25 171.13 192.25 140.62 192.25 129.31 192.25 98.8 192.25 87.5 192.25 56.98 192.25 45.68 192.25 15.17 192.25 3.86 192.25 .24 192.25 .24 135.27 1.13 135.27 270.06 135.27 270.06 192.25 266.06 192.25 254.76 192.25 224.25 192.25 212.95 192.25"/>
        <path class="cls-4" d="m.24,197.27h40.19l-26.33,14.8c-1.14-1.02-2.77-1.65-4.59-1.65s-3.31.58-4.44,1.51l-4.84-2.72v-11.94Z"/>
      </g>
      <g>
        <polyline class="cls-8" points="270.06 226.38 239.61 226.38 198.14 226.38 156.02 226.38 114.56 226.38 72.44 226.38 30.78 226.38 .24 226.38"/>
        <line class="cls-8" x1=".24" y1="129.51" x2="270.06" y2="129.51"/>
        <line class="cls-8" x1=".24" y1="135.27" x2="270.06" y2="135.27"/>
        <line class="cls-8" x1="266.06" y1="192.25" x2="270.06" y2="192.25"/>
        <line class="cls-8" x1="224.25" y1="192.25" x2="254.76" y2="192.25"/>
        <line class="cls-8" x1="182.43" y1="192.25" x2="212.95" y2="192.25"/>
        <line class="cls-8" x1="140.62" y1="192.25" x2="171.13" y2="192.25"/>
        <line class="cls-8" x1="98.8" y1="192.25" x2="129.31" y2="192.25"/>
        <line class="cls-8" x1="56.98" y1="192.25" x2="87.5" y2="192.25"/>
        <line class="cls-8" x1="15.17" y1="192.25" x2="45.68" y2="192.25"/>
        <line class="cls-8" x1=".24" y1="192.25" x2="3.86" y2="192.25"/>
        <line class="cls-8" x1="266.06" y1="197.27" x2="270.06" y2="197.27"/>
        <polyline class="cls-8" points="224.25 197.27 229.95 197.27 254.76 197.27"/>
        <polyline class="cls-8" points="182.43 197.27 207.81 197.27 212.95 197.27"/>
        <polyline class="cls-8" points="140.62 197.27 146.36 197.27 171.13 197.27"/>
        <polyline class="cls-8" points="98.8 197.27 124.22 197.27 129.31 197.27"/>
        <polyline class="cls-8" points="56.98 197.27 62.77 197.27 87.5 197.27"/>
        <polyline class="cls-8" points="15.17 197.27 40.44 197.27 45.68 197.27"/>
        <line class="cls-8" x1=".24" y1="197.27" x2="3.86" y2="197.27"/>
        <polyline class="cls-8" points="72.44 226.38 87.78 217.75 93.5 214.54 97.89 212.07 124.22 197.27"/>
        <polyline class="cls-8" points="114.56 226.38 98.91 217.59 93.5 214.54 88.86 211.93 62.77 197.27"/>
        <path class="cls-8" d="m139.35,215.44c0,2.78-2.25,5.03-5.02,5.03s-5.03-2.25-5.03-5.03,2.25-5.02,5.03-5.02,5.02,2.25,5.02,5.02Z"/>
        <path class="cls-8" d="m223.99,215.44c0,2.78-2.25,5.03-5.02,5.03s-5.03-2.25-5.03-5.03,2.25-5.02,5.03-5.02,5.02,2.25,5.02,5.02Z"/>
        <path class="cls-8" d="m97.89,212.07c1,.89,1.61,2.07,1.61,3.37,0,.76-.21,1.49-.59,2.14-1,1.7-3.13,2.88-5.62,2.88s-4.48-1.1-5.51-2.72c-.44-.69-.69-1.48-.69-2.31,0-1.37.68-2.6,1.77-3.51,1.13-.93,2.7-1.51,4.44-1.51,1.82,0,3.46.63,4.59,1.65Z"/>
        <polyline class="cls-8" points=".24 219.86 4 217.75 9.72 214.54 14.11 212.07 40.44 197.27"/>
        <polyline class="cls-8" points="30.78 226.38 15.13 217.59 9.72 214.54 5.08 211.93 .24 209.22"/>
        <path class="cls-8" d="m14.11,212.07c1,.89,1.61,2.07,1.61,3.37,0,.76-.21,1.49-.59,2.14-1,1.7-3.13,2.88-5.62,2.88s-4.48-1.1-5.51-2.72c-.44-.69-.69-1.48-.69-2.31,0-1.37.68-2.6,1.77-3.51,1.13-.93,2.7-1.51,4.44-1.51,1.82,0,3.46.63,4.59,1.65Z"/>
        <polyline class="cls-8" points="156.02 226.38 171.37 217.75 177.08 214.54 181.48 212.07 207.81 197.27"/>
        <polyline class="cls-8" points="198.14 226.38 182.5 217.59 177.08 214.54 172.45 211.93 146.36 197.27"/>
        <path class="cls-8" d="m181.48,212.07c1,.89,1.61,2.07,1.61,3.37,0,.76-.21,1.49-.59,2.14-1,1.7-3.13,2.88-5.62,2.88s-4.48-1.1-5.51-2.72c-.44-.69-.69-1.48-.69-2.31,0-1.37.68-2.6,1.77-3.51,1.13-.93,2.7-1.51,4.44-1.51,1.82,0,3.46.63,4.59,1.65Z"/>
        <polyline class="cls-8" points="239.61 226.38 254.96 217.75 260.67 214.54 265.07 212.06 270.06 209.26"/>
        <polyline class="cls-8" points="270.06 219.82 266.09 217.59 260.67 214.54 256.04 211.93 229.95 197.27"/>
        <path class="cls-8" d="m265.07,212.06c1,.89,1.61,2.07,1.61,3.38,0,.76-.21,1.49-.59,2.14-1,1.7-3.13,2.88-5.62,2.88s-4.48-1.1-5.51-2.72c-.44-.69-.69-1.48-.69-2.31,0-1.37.68-2.6,1.77-3.51,1.13-.93,2.7-1.51,4.44-1.51,1.82,0,3.46.63,4.59,1.64Z"/>
        <path class="cls-8" d="m54.25,215.44c0,2.78-2.25,5.03-5.02,5.03s-5.03-2.25-5.03-5.03,2.25-5.02,5.03-5.02,5.02,2.25,5.02,5.02Z"/>
        <rect class="cls-8" x="3.86" y="192.25" width="11.3" height="5.03"/>
        <rect class="cls-8" x="45.68" y="192.25" width="11.3" height="5.03"/>
        <rect class="cls-8" x="87.5" y="192.25" width="11.3" height="5.03"/>
        <rect class="cls-8" x="129.31" y="192.25" width="11.3" height="5.03"/>
        <rect class="cls-8" x="171.13" y="192.25" width="11.3" height="5.03"/>
        <rect class="cls-8" x="212.95" y="192.25" width="11.3" height="5.03"/>
        <rect class="cls-8" x="254.76" y="192.25" width="11.3" height="5.03"/>
      </g>
    </g>
  </g>
  <g id="_レイヤー_2" data-name="レイヤー 2">
    <g>
      <g>
        <path class="cls-3" d="m189.26,82.32l.6,2.22-9.16,3.55c-.13-.78-.26-1.55-.39-2.33h0l8.94-3.44Z"/>
        <path class="cls-3" d="m179.82,82.87l8.75-3.39.11.27c.13.45.58,2.56.58,2.56l-8.94,3.44h0c-.16-.97-.32-1.93-.49-2.88Z"/>
        <path class="cls-3" d="m188.65,76.72l.76,2.44-.84.33-8.75,3.39c-.11-.66-.24-1.31-.36-1.95l9.19-4.21Z"/>
        <path class="cls-3" d="m179.28,79.15l8.69-4.58.67,2.14-9.19,4.21c-.11-.58-.22-1.17-.34-1.73l.17-.04Z"/>
        <path class="cls-3" d="m179.12,79.19c-.18-.85-.36-1.67-.56-2.47l9.01-4.91,1.1,2.4-.7.36h0s-8.69,4.59-8.69,4.59l-.17.04Z"/>
        <path class="cls-3" d="m178.06,74.82l8.33-5.56,1.18,2.54-9.01,4.91c-.15-.64-.32-1.28-.49-1.9Z"/>
        <path class="cls-3" d="m177.74,73.09l7.77-5.6.12-.11,1.37,1.48-.6.41-8.33,5.56c-.16-.57-.33-1.13-.5-1.67l.18-.05Z"/>
        <path class="cls-3" d="m185.5,67.49l-7.77,5.6-.18.05c-.22-.67-.46-1.33-.71-1.93l7.23-5.5,1.55,1.66-.12.11Z"/>
        <path class="cls-3" d="m184.08,65.72l-7.23,5.5c-.34-.85-.72-1.64-1.12-2.36l6.79-5.16,1.93,1.75-.36.27Z"/>
        <path class="cls-3" d="m182.52,63.69l-6.79,5.16c-.29-.51-.59-.99-.93-1.41l5.79-5.55.4.42,1.53,1.39Z"/>
        <path class="cls-3" d="m174.8,67.44c-.41-.56-.86-1.03-1.34-1.44l5.82-6.33,1.71,1.84-.4.38-5.79,5.55Z"/>
        <path class="cls-3" d="m171.22,64.47l6.27-6.69.34.32,1.46,1.57-5.82,6.33c-.24-.21-.49-.39-.74-.56-.52-.34-1.02-.65-1.5-.97Z"/>
        <path class="cls-3" d="m177.83,57.42l-.34.36-6.27,6.69c-.56-.35-1.09-.7-1.61-1.02l5.82-8.13,2.39,2.1Z"/>
        <path class="cls-3" d="m169.61,63.45c-.65-.42-1.29-.8-1.93-1.14l4.88-7.43-.5-.25.13-.27,1.01-1.01,2.24,1.97-5.82,8.13Z"/>
        <path class="cls-3" d="m167.68,62.31c-.54-.29-1.07-.56-1.63-.79h0s4.06-7.82,4.06-7.82l1.93.93.5.25-4.88,7.43Z"/>
        <path class="cls-3" d="m170.12,53.7l-4.06,7.81h0c-.49-.21-.98-.4-1.5-.55l.04-.13,3.07-8.31h.02s2.44,1.18,2.44,1.18Z"/>
        <path class="cls-3" d="m164.6,60.83l-.04.13c-.55-.19-1.11-.33-1.71-.43h0s2.69-11.3,2.69-11.3l2.73,1.65-.6,1.63h0l-3.07,8.31Z"/>
        <path class="cls-3" d="m160.76,60.27l2.56-12.39,2.23,1.35-2.69,11.29h0c-.65-.12-1.35-.21-2.09-.25h0Z"/>
        <path class="cls-5" d="m151.66,64.04c1.25-.97,2.6-2.11,3.88-3.51.76-.11,1.47-.18,2.14-.23,0,0,.06,2.27-3.75,4.94-6.65,4.63-17.3,5.87-25.72,3.09-8.39-2.77-11.18-12.2-11.57-15.55,2.02.06,3.9.19,5.49.43-.08.21.03.89.34,1.8.56,1.63,1.78,3.99,3.71,5.64,3.01,2.56,6.17,4.13,12.71,4.59,6.54.46,7.89,0,7.89,0l.04-.17c1.75.39,3.39.11,4.84-1.03Z"/>
        <path class="cls-1" d="m112.53,154.5c3.15.18,10.78,7.59,14,8.84-3.34-.94-6.68-1.89-9.06-2.38-5.84-1.21-17.61,0-20.62.3,6.02-2.86,12.52-6.95,15.68-6.77Z"/>
        <path class="cls-1" d="m151.44,161.41c-1.55,0-3.55.76-5.59,1.65,3.21-1.53,18.1-8.37,22.73-6.09,5.14,2.53,8.83,3.31,11.64,3.48-4.55-.04-7.09,1.02-11.79,1.86-6.77,1.2-13.23-.9-16.99-.9Z"/>
        <path class="cls-1" d="m214.83,142.32c-.56,1.12-1.17,2.17-1.82,3.14-1.59-13.84-15.72-17.13-20.52-19.83-.42-.23-.94-.5-1.55-.8,11.26-2.88,15.88-4,23.81-6.41.8-.25,1.64-.5,2.51-.77l.02.05c.31.4.57.87.8,1.42.61,1.48.9,3.45.92,5.71.02,1.79-.15,3.75-.49,5.77-.34,2.11-.86,4.29-1.53,6.41-.6,1.86-1.32,3.67-2.14,5.33Z"/>
        <path class="cls-3" d="m229.78,147.32l-6.41,5.06c-1.11-4.51-8.54-10.06-8.54-10.06.82-1.66,1.54-3.46,2.14-5.33,0,0,9.58,4,12.81,10.33Z"/>
        <path class="cls-3" d="m234.3,143.75l-4.51,3.57c-3.23-6.33-12.81-10.33-12.81-10.33.67-2.11,1.19-4.29,1.53-6.41h0l8.38,3.68h0c1.47,1.9,6.43,6.8,7.41,9.48Z"/>
        <path class="cls-3" d="m218.5,130.59c.34-2.01.5-3.98.49-5.77,0,0,.91.09,2.26.23,0,0,.03,0,.04,0,6.22,1.3,12.41,5.14,12.41,5.14l-2.56,5.95-4.25-1.87-8.38-3.68h0Z"/>
        <path class="cls-3" d="m221.25,125.05c-1.35-.14-2.26-.23-2.26-.23-.02-2.25-.31-4.23-.92-5.71h13.82l-.75,7.41c-2.42-.6-7.06-1.17-9.85-1.47,0,0-.03,0-.04,0Z"/>
        <path class="cls-3" d="m231.51,109.39c1.05,0,3-.14,1.8,1.81-1.07,1.74-9.29,4.36-16.06,6.44-.87.27-1.71.52-2.51.77-7.92,2.41-12.55,3.53-23.81,6.41-1.65-.81-3.97-1.85-6.5-2.93.26-.06,5.36-1.29,11.39-2.77,6.68-1.64,14.49-3.61,18.09-4.66,7.13-2.08,16.55-5.07,17.6-5.07Z"/>
        <path class="cls-3" d="m125.03,135.84c-1.35.2-2.87.44-4.64.74h-.07c-.25-1.63-.66-3.07-1.89-3.52l.1-.26c2.88,1.06,5.31,2.14,6.5,3.03Z"/>
        <path class="cls-3" d="m125.03,135.84c3.64-.57,6.07-.92,8.75-1.55,1.49,1.08,3.18,2.24,4.94,3.35v.02s-3.91,1.03-10.13,2.03c-1.1.18-4.98.91-7.84,1.32h0c.02-.58-.02-1.23-.11-1.93,0-.09-.03-.18-.04-.27-.09-.73-.16-1.49-.27-2.21h.07c1.77-.31,3.29-.55,4.64-.75Z"/>
        <path class="cls-3" d="m120.62,139.06c.1.71.13,1.35.11,1.93-.04,2.13-.79,3.45-2.01,3.87-1.35.47-3.15-.58-3.6-2.83l-.07-.44c1.01-.16,1.98-.32,2.92-.47.49-.64.6-1.4.47-2.19l2.14-.14c0,.09.03.18.04.27Z"/>
        <path class="cls-3" d="m120.32,136.59c.11.72.18,1.48.27,2.21l-2.14.14c-.1-.62-.34-1.27-.64-1.94-.89.14-1.78.27-2.68.41-.32-2.28,1.22-4.46,2.33-4.49.37,0,.69.04.96.15,1.23.45,1.64,1.89,1.89,3.53Z"/>
        <path class="cls-3" d="m111.7,130.59c-4.18.9-7.57,5.97-8.55,8.53-1.42.2-2.69.39-3.74.57-3.68.43-5.71.69-6.8.84.64-3.93,5.48-11.6,8.54-12.05,1.42-.21,5.84.74,10.55,2.11Z"/>
        <path class="cls-3" d="m111.71,130.59c2.31.67,4.69,1.44,6.82,2.22l-.1.26c-.27-.11-.59-.16-.96-.15-1.11.03-2.65,2.21-2.33,4.49-4.36.66-8.61,1.24-11.99,1.72.98-2.56,4.37-7.63,8.55-8.53h0Z"/>
        <path class="cls-3" d="m118.45,138.94c.13.8.03,1.55-.47,2.19-.94.15-1.91.31-2.92.47-.5.08-1.02.16-1.53.24-1.33.21-2.7.43-4.07.64-1.39.22-2.77.44-4.13.66-1.48.23-2.91.45-4.26.67-1.43.22-2.77.43-3.96.62-1.39.21-2.58.41-3.5.55-1.1.17-2.08-.77-2.11-2.01l-.04-.93c-.02-.76.47-1.41,1.13-1.51,1.1-.15,3.13-.41,6.8-.84,1.05-.18,2.31-.36,3.74-.57,3.37-.49,7.63-1.06,11.99-1.72.89-.13,1.78-.27,2.68-.41.3.67.54,1.33.64,1.94Z"/>
        <path class="cls-3" d="m109.54,142.96l-.08-.48c1.37-.21,2.74-.43,4.07-.64l.07.49-15.83,15.41s-2.93-.22-2.4-.97c.04-.04.11-.14.24-.27l.24-.24,10.58-10.3c.46-.45.89-.87,1.28-1.24.93-.89,1.6-1.54,1.83-1.75Z"/>
        <path class="cls-3" d="m101.08,143.82c1.35-.22,2.78-.44,4.26-.67l.08.48s-6.49,6.2-10.73,10.33l-.06-.07-5.44,5.28s-2.93-.22-2.41-.97c.38-.55,7.62-7.63,11.65-11.58,1.58-1.55,2.68-2.61,2.68-2.61l-.03-.19Z"/>
        <path class="cls-3" d="m101.11,144s-1.1,1.06-2.68,2.61l-10.68,10.37s-2.93-.23-2.4-.98,11.79-11.44,11.79-11.44l-.02-.12c1.19-.19,2.53-.4,3.96-.62l.03.19Z"/>
        <path class="cls-3" d="m105.34,143.14c1.35-.22,2.74-.44,4.13-.66l.08.48c-.23.21-.9.86-1.83,1.75-.39.37-.82.79-1.28,1.24-3.53,3.39-8.94,8.61-10.58,10.3l-.24.24-2.05,2s-2.93-.23-2.4-.98c.16-.24,1.62-1.68,3.53-3.55,4.23-4.13,10.73-10.33,10.73-10.33l-.08-.48Z"/>
        <path class="cls-5" d="m125.16,88.71c-.49,0-1.93.04-3.43.13-.42.03-.88-.08-1.34-.26,1.48-.15.76-.74.57-1.19s-1.52-1.32-1.52-1.32c-.44-.49-2.32-.66-2.69-.3-.36.36-3.51,2.08-7.35,3.84-1.35,3.19-3.38,8.11-3.53,9.38,0,0-.05.06-.15.18-1.3,1.58-11.25,13.6-21.27,23.13-10.75,10.23-27.64,21.02-39.02,26.32,17.14,8.35,32.71-10.72,41.62-18.95,8.91-8.23,15.08-14.99,16.8-21.09.6-2.15,1.75-7.41,2.01-9.44.4-.07,1.31-.25,1.92-.37.8-.15,3.86.86,4.89.89,1.02.04,3.73.44,5.45.69,1.71.25,1.78-.3,2.09-.41.32-.11.19-1.02.19-1.02.15.02,1.1-.85,1.29-1.37.23-.63.87-.51,1.24-.87.37-.36.72-1.69.72-1.69l-.03-.04c.21-.16.36-.28.42-.3.19-.04.81-.84.89-1.43.07-.6.11-1.45.11-1.45.53-.12.96-.27,1.09-.42.35-.42.64-.73.59-1.21-.05-.49-1.07-1.45-1.55-1.45Zm32.99,45.69c-6.67-2.83-17.46,4.41-17.46,4.41-.66-.38-1.33-.78-1.98-1.18-1.76-1.1-3.45-2.27-4.94-3.35-2.68.64-5.11.99-8.75,1.55-1.19-.89-3.62-1.97-6.5-3.03-2.13-.78-4.51-1.55-6.82-2.22h0c-4.71-1.37-9.13-2.32-10.55-2.11-3.07.45-7.91,8.12-8.54,12.05-.66.1-1.15.75-1.13,1.51l.04.93c.04,1.25,1.02,2.18,2.11,2.01.92-.14,2.11-.34,3.5-.55l.02.12s-11.26,10.69-11.79,11.44,2.4.98,2.4.98l10.68-10.37c-4.04,3.95-11.27,11.03-11.65,11.58-.52.75,2.41.97,2.41.97v2.38c-3.47.03-7.37-.04-10.38-.27-5.87-.45-18.05-5.42-23.62-7.37-5.56-1.96-11.87.45-17.44-1.21-5.57-1.65-7.97-8.72-8.27-14.59-.3-5.86,2.25-11.87,6.32-14.89,4.06-3,13.84-15.49,15.19-17.89,1.35-2.41,6.32-7.07,6.77-10.83.45-3.75-.3-8.57,2.4-10.67,2.7-2.11,13.53-13.23,15.94-17.3,2.41-4.06,13.08-12.93,18.95-13.05,4.62-.1,14.09-.9,21.58-.69.39,3.35,3.18,12.78,11.57,15.55,8.42,2.77,19.07,1.54,25.72-3.09,3.82-2.67,3.75-4.94,3.75-4.94,1.13-.08,2.15-.09,3.08-.03.74.04,1.44.12,2.09.26.59.11,1.16.25,1.71.43.52.15,1.02.34,1.5.56.56.23,1.09.49,1.63.79.64.34,1.27.72,1.93,1.14.52.33,1.05.67,1.61,1.02.48.32.98.64,1.5.97.26.17.5.34.74.56.49.41.94.88,1.34,1.44.34.42.64.9.93,1.41.41.72.78,1.51,1.12,2.36.25.61.49,1.26.71,1.93.18.54.34,1.1.5,1.67.18.62.34,1.25.49,1.9.19.8.38,1.63.56,2.47.12.57.24,1.15.34,1.73.12.64.25,1.29.36,1.95.17.95.33,1.91.49,2.88.13.78.26,1.55.39,2.33.31,1.93.63,3.86.96,5.73,0,0,7,2.7,10.83,5.64s4.91,12.44,3.33,19.66h0c-6.03,1.48-11.13,2.71-11.39,2.77,2.54,1.09,4.85,2.12,6.5,2.93.62.3,1.14.57,1.55.8,4.81,2.7,18.93,6,20.52,19.83h0c-.99,1.47-2.08,2.7-3.27,3.62-15.45,2.25-30.18-.68-37.03-1.35,0,0-15.42-3.01-20.65-4.66-2-.63-6.78-1.65-10.97-4.02-.13-.08-.27-.15-.41-.23,0,0,16.55-.85,19.16-3.38-.53-.43-1.1-.78-1.71-1.02Z"/>
        <path class="cls-2" d="m160.34,51.86c-1.02,3.75-2.84,6.53-4.81,8.67-1.28,1.4-2.63,2.54-3.88,3.51-1.45,1.14-3.09,1.42-4.84,1.03l-.04.17s-1.35.46-7.89,0c-6.55-.46-9.7-2.02-12.71-4.59-1.93-1.64-3.15-4-3.71-5.64l.16-.05c1.05-.55,2.2-1.05,3.19-1.75.36-.26.71-.55,1.02-.87.39-.42,1.93-2.39,3.08-3.8.63-.79,1.15-1.39,1.29-1.47.87-.46,1.85-2,2.37-2.84.48-.76.63-1.73.39-2.61l2.25-.09v.17c.34.5,2.38-.85,4.68-2.54,1.25-.92,2.14-2.5,2.88-4.05.39-.8.73-1.61,1.08-2.3.97-1.95,2.42-6.27,5.34-5.52.49.13.92.42,1.36.69,2.6,1.62,5.58,2.61,8.63,2.88,1.3.11,2.79.18,3.62,1.19.29.35.46.8.57,1.25.32,1.22.23,2.51.15,3.76-.06.92-.19,1.83-.38,2.72-.08.38-.16.75-.26,1.12-.9,3.7-2.54,7.24-3.54,10.94Z"/>
        <path class="cls-5" d="m122.11,53.22c.22-.6,1.95-.45,3.69,0-.99.7-2.14,1.2-3.19,1.75l-.16.05c-.32-.91-.42-1.59-.34-1.8Z"/>
        <path class="cls-2" d="m133.95,41.63c-.86.54-1.6.3-2.15-.37-.36-.44-.64-1.09-.79-1.81-.37-1.8-.17-3.3.28-4.51.38-1.03,1.3-1.34,2.5-.86h0c.2.09.42.19.64.33,1.5.9,1.65,3.12,1.65,4.33l.11,2.8-2.25.09Z"/>
        <path class="cls-5" d="m113.61,142.32l-.07-.49c.51-.08,1.02-.16,1.53-.24l.07.44c.44,2.24,2.24,3.3,3.6,2.83,1.22-.42,1.96-1.74,2.01-3.87h0c2.85-.41,6.74-1.14,7.84-1.32,6.22-1,10.12-2.03,10.12-2.03v-.02c.66.41,1.33.8,1.99,1.18.14.08.27.15.41.23,4.2,2.37,8.98,3.39,10.97,4.02,5.23,1.65,20.65,4.66,20.65,4.66,8.68,12.78,9.24,11.27,14.96,13.53-3.1-.55-5.47-.78-7.46-.8-2.82-.17-6.5-.95-11.64-3.48-4.63-2.28-19.52,4.56-22.73,6.09-.1.04-.19.09-.27.12-.11.05-.19.1-.26.12-.03,0-.05.02-.08.04h0c-2.73,1.24-5.45,2.62-7.18,2.67-1.86.05-6.66-1.3-11.49-2.66,0,0-.03,0-.04-.02-3.22-1.25-10.86-8.67-14-8.84-3.16-.19-9.67,3.9-15.68,6.77-1.46.15-4.37.26-7.65.27v-2.38s5.43-5.28,5.43-5.28l.06.07c-1.92,1.87-3.37,3.31-3.53,3.55-.53.75,2.4.98,2.4.98l2.05-2c-.12.13-.2.23-.24.27-.53.75,2.4.97,2.4.97l15.83-15.41Z"/>
        <path class="cls-5" d="m133.4,7.35c-1.31,1.55-2.52,3.2-3.29,5.06-1.12,2.71-1.28,5.72-1.28,8.64,0,.95.03,1.92.42,2.77.57,1.23,1.71,1.63,2.98,1.36,3.44-.75,5.17-3.21,5.85-6.34.04-.14.06-.28.08-.42.04-.24.04-.48.03-.72-.02-.14-.04-.28-.11-.41-.86-.86-1.97-1.13-3.11-1.57-.12-.04-.26-.1-.34-.19-.44-.49.04-2.06.73-2.05.97.02,2.18.69,3.11.97,1.24.38,2.48.72,3.76.9,2.54.36,2.68-5.25,2.07-6.81-.55-1.4-1.62-3.03-3.03-3.66-1.6-.72-3.58-.74-5.15.07-1.08.56-1.93,1.47-2.71,2.39Zm19.96,9.67c.9.73,4.79.73,4.79.73l-.03,2.25h-2.08l.03,1.08c2.33,1.14,3.84,3.09,5.52,4.99,1.02,1.15,2.64,2.96,3.82,4.98,1.18,2.03,1.24,4.61,1.17,5.8-.05.88-1.18,3.16-2.42,4.14l-.26-.07c.1-.37.18-.74.26-1.12.19-.89.32-1.8.38-2.72.08-1.25.17-2.54-.15-3.76-.11-.45-.28-.89-.57-1.25-.83-1.02-2.32-1.08-3.62-1.19-3.05-.27-6.03-1.26-8.63-2.88-.44-.27-.87-.56-1.36-.69-2.92-.75-4.36,3.57-5.34,5.52-.34.69-.69,1.49-1.08,2.3-.74,1.55-1.63,3.13-2.88,4.05-2.31,1.69-4.34,3.04-4.67,2.54v-.17s-.11-2.8-.11-2.8c0-1.21-.15-3.43-1.65-4.33-.22-.13-.44-.24-.64-.32h0c0-1.46,0-2.89,0-4.33-1.4-.28-2.77-.73-4.13-1.19-1.33-.44-1.84-.95-2.69-2.06-.64-.81-.9-1.86-1.05-2.9-1.18-8,2.58-15.42,8.52-20.35.69-.57,1.41-1.11,2.16-1.6,1.8-1.17,4.13-1.4,6.2-.97,1.44.3,2.83,1.02,3.75,2.16,1.35,1.67,1.32,3.84,1.83,5.83,0-.3,2.17-2.3,2.45-2.6.84-.94,1.69-1.85,2.62-2.69,1.72-1.55,3.74-2.61,6.1-2.76,1.09-.07,2.5.12,2.98,1.27.24.57.19,1.24,0,1.83-.69,2.15-2.54,4.19-3.9,5.95-1.05,1.34-2.16,2.66-3.24,3.98-.8.96-2.93,2.6-2.03,3.33Z"/>
        <path class="cls-2" d="m120.4,98.93s.12.9-.19,1.02c-.32.11-.38.65-2.09.41-1.72-.25-4.43-.64-5.45-.69-1.03-.04-4.1-1.04-4.89-.89-.61.12-1.52.3-1.92.37,0-.05,0-.1.02-.14.15-1.27,2.18-6.19,3.53-9.38,3.84-1.77,6.99-3.48,7.35-3.84.37-.36,2.25-.19,2.69.3,0,0,1.33.87,1.52,1.32s.91,1.04-.57,1.19c.46.18.93.28,1.34.26,1.49-.1,2.94-.14,3.43-.13.49,0,1.5.96,1.55,1.45.04.48-.24.79-.59,1.21-.12.15-.56.29-1.09.42,0,0-.04.85-.11,1.45-.08.59-.71,1.4-.89,1.43-.06.02-.21.14-.42.3l.03.04s-.34,1.33-.72,1.69c-.36.36-1.01.25-1.24.87-.19.52-1.14,1.39-1.29,1.37Z"/>
        <path class="cls-7" d="m105.72,99.18s.08-.02.13-.04c-.26,2.03-1.4,7.3-2.01,9.44-1.72,6.1-7.9,12.85-16.8,21.09-8.91,8.23-24.48,27.3-41.62,18.95,11.39-5.3,28.27-16.09,39.02-26.32,10.03-9.53,19.98-21.55,21.27-23.13Z"/>
        <path class="cls-7" d="m158.15,134.41c.64.57,1.23.93,1.71,1.02-2.62,2.54-19.16,3.38-19.16,3.38,0,0,10.79-7.24,17.46-4.41Z"/>
        <path class="cls-7" d="m214.03,153.82c3.38,4.63,1.56,7.02,1.17,7.9-.41.87-2.68-.59-5.45-.45-5.85.29-15.13,1.22-22.07,0-5.72-2.26-6.27-.76-14.96-13.53,6.85.67,21.57,3.6,37.03,1.35,0,0,.9.11,4.28,4.74Z"/>
        <path class="cls-5" d="m133.95,41.63c.24.87.09,1.85-.39,2.61-.52.84-1.5,2.38-2.37,2.84-.14.08-.66.68-1.29,1.47l-.07-.06c-.05-1.12-.73-2.31-.45-3.26.28-.96,2.42-3.96,2.42-3.96.55.67,1.29.91,2.15.37Z"/>
      </g>
      <g>
        <path class="cls-9" d="m133.8,34.09c-1.2-.49-2.12-.18-2.5.86-.45,1.2-.65,2.7-.28,4.51.15.72.42,1.37.79,1.81.55.67,1.29.91,2.15.37.24.87.09,1.85-.39,2.61-.52.84-1.5,2.38-2.37,2.84-.14.08-.66.68-1.29,1.47-1.16,1.4-2.69,3.38-3.08,3.8-.31.33-.65.62-1.02.87-.99.7-2.14,1.2-3.19,1.75"/>
        <path class="cls-9" d="m140.38,61.11c2.19,2.08,4.38,3.48,6.43,3.96,1.75.39,3.39.11,4.84-1.03,1.25-.97,2.6-2.11,3.88-3.51,1.97-2.14,3.78-4.91,4.81-8.67,1.01-3.69,2.64-7.24,3.54-10.94.1-.37.18-.74.26-1.12.19-.89.32-1.8.38-2.72.08-1.25.17-2.54-.15-3.76-.11-.45-.28-.89-.57-1.25-.83-1.02-2.32-1.08-3.62-1.19-3.05-.27-6.03-1.26-8.63-2.88-.44-.27-.87-.56-1.36-.69-2.92-.75-4.36,3.57-5.34,5.52-.34.69-.69,1.49-1.08,2.3-.74,1.55-1.63,3.13-2.88,4.05-2.31,1.69-4.34,3.04-4.67,2.54v-.17s-.11-2.8-.11-2.8c0-1.21-.15-3.43-1.65-4.33-.22-.13-.44-.24-.64-.32"/>
        <path class="cls-9" d="m131.81,41.26s-2.14,2.99-2.42,3.96c-.28.95.4,2.14.45,3.26"/>
        <path class="cls-9" d="m148.39,8.71h0c0-.31,2.17-2.31,2.45-2.61.84-.94,1.69-1.85,2.62-2.69,1.72-1.55,3.74-2.61,6.1-2.76,1.09-.07,2.5.12,2.98,1.27.24.57.19,1.24,0,1.83-.69,2.15-2.54,4.19-3.9,5.95-1.05,1.34-2.16,2.66-3.24,3.98-.8.96-2.93,2.6-2.03,3.33s4.79.73,4.79.73l-.03,2.25h-2.08l.03,1.08c2.33,1.14,3.84,3.09,5.52,4.99,1.02,1.15,2.64,2.96,3.82,4.98,1.18,2.03,1.24,4.61,1.17,5.8-.05.88-1.18,3.16-2.42,4.14"/>
        <path class="cls-9" d="m133.8,34.1h0c0-1.46,0-2.89,0-4.33-1.4-.28-2.77-.73-4.13-1.19-1.33-.44-1.84-.95-2.69-2.06-.64-.81-.9-1.86-1.05-2.9-1.18-8,2.58-15.42,8.52-20.35.69-.57,1.41-1.11,2.16-1.6,1.8-1.17,4.13-1.4,6.2-.97,1.44.3,2.83,1.02,3.75,2.16,1.35,1.67,1.32,3.84,1.83,5.83"/>
        <path class="cls-9" d="m138.16,18.42c-.02.13-.04.27-.08.42-.68,3.14-2.41,5.59-5.85,6.34-1.26.27-2.41-.13-2.98-1.36-.4-.86-.42-1.83-.42-2.77,0-2.92.16-5.93,1.28-8.64.77-1.86,1.98-3.52,3.29-5.06.79-.92,1.63-1.83,2.71-2.39,1.57-.81,3.55-.79,5.15-.07,1.41.63,2.48,2.26,3.03,3.66.61,1.56.48,7.17-2.07,6.81-1.28-.19-2.53-.52-3.76-.9-.93-.28-2.14-.95-3.11-.97-.69,0-1.18,1.56-.73,2.05.09.1.22.15.34.19,1.14.44,2.25.72,3.11,1.57.07.12.1.27.11.41.02.24,0,.48-.03.72Z"/>
        <path class="cls-9" d="m143.77,35.13s5.49-1.17,6.99,1.17"/>
        <path class="cls-9" d="m159.18,39.3c1.87-1.05,4.34-.48,4.96.5"/>
        <path class="cls-9" d="m149.21,42.08s2.3-.52,3.36,0"/>
        <path class="cls-9" d="m157.67,44.35s2.48-.23,3.08.6"/>
        <path class="cls-9" d="m156.1,46.83s.22,5.19-.68,6.01c-.9.83-1.88.68-2.85.45"/>
        <path class="cls-9" d="m151.37,50.39c-.3.66-.83,1.93-.75,2.69"/>
        <path class="cls-9" d="m150.24,55.55s2.85.75,3.68.75"/>
        <path class="cls-9" d="m157.51,52.23s.67.95.6,1.98"/>
        <path class="cls-9" d="m125.81,53.22c-1.74-.45-3.47-.6-3.69,0-.08.21.03.89.34,1.8.56,1.63,1.78,3.99,3.71,5.64,3.01,2.56,6.17,4.13,12.71,4.59,6.54.46,7.89,0,7.89,0"/>
        <path class="cls-9" d="m213.01,145.46c.65-.96,1.26-2.01,1.82-3.14.82-1.66,1.54-3.46,2.14-5.33.67-2.11,1.19-4.29,1.53-6.41.34-2.01.5-3.98.49-5.77-.02-2.25-.31-4.23-.92-5.71-.22-.55-.49-1.02-.8-1.42"/>
        <path class="cls-9" d="m145.58,163.19c.09-.04.18-.07.27-.12,2.04-.89,4.05-1.65,5.59-1.65,3.75,0,10.22,2.1,16.99.9,4.71-.84,7.24-1.9,11.79-1.86,1.99.03,4.36.26,7.46.8,6.94,1.22,16.22.29,22.07,0,2.77-.14,5.04,1.32,5.45.45.4-.87,2.22-3.27-1.17-7.9-3.38-4.62-4.28-4.74-4.28-4.74,1.18-.92,2.28-2.16,3.27-3.61"/>
        <path class="cls-9" d="m145.24,163.35s.05-.03.08-.04"/>
        <path class="cls-9" d="m126.57,163.36c4.82,1.36,9.62,2.71,11.49,2.66,1.73-.05,4.45-1.43,7.18-2.66"/>
        <path class="cls-9" d="m122.11,53.22c-1.59-.24-3.46-.37-5.49-.43-7.49-.21-16.96.59-21.58.69-5.87.11-16.54,8.99-18.95,13.05-2.4,4.06-13.23,15.19-15.94,17.3-2.7,2.1-1.95,6.92-2.4,10.67-.45,3.76-5.42,8.42-6.77,10.83-1.35,2.4-11.13,14.89-15.19,17.89-4.06,3.01-6.62,9.03-6.32,14.89.3,5.87,2.7,12.93,8.27,14.59,5.57,1.66,11.88-.75,17.44,1.21,5.57,1.95,17.75,6.92,23.62,7.37,3.01.23,6.91.3,10.39.27,3.28-.02,6.19-.12,7.65-.27,3.01-.3,14.78-1.51,20.62-.3,2.39.49,5.72,1.44,9.06,2.38"/>
        <path class="cls-9" d="m195.82,119.11c1.58-7.22.5-16.72-3.33-19.66s-10.83-5.64-10.83-5.64c-.34-1.87-.65-3.8-.96-5.73-.13-.78-.26-1.55-.39-2.33-.16-.97-.32-1.93-.49-2.88-.11-.66-.24-1.31-.36-1.95-.11-.58-.22-1.17-.34-1.73-.18-.85-.36-1.67-.56-2.47-.15-.64-.32-1.28-.49-1.9-.16-.57-.33-1.13-.5-1.67-.22-.67-.46-1.33-.71-1.93-.34-.85-.72-1.64-1.12-2.36-.29-.51-.59-.99-.93-1.41-.41-.56-.86-1.03-1.34-1.44-.24-.21-.49-.39-.74-.56-.52-.34-1.02-.65-1.5-.97-.56-.35-1.09-.7-1.61-1.02-.65-.42-1.29-.8-1.93-1.14-.54-.29-1.07-.56-1.63-.79-.49-.22-.98-.41-1.5-.56-.55-.19-1.11-.33-1.71-.43-.65-.13-1.35-.22-2.09-.26-.94-.06-1.95-.05-3.08.03-.67.05-1.38.12-2.14.23"/>
        <path class="cls-9" d="m184.43,121.89h0c.26-.06,5.36-1.29,11.39-2.77,6.68-1.64,14.49-3.61,18.09-4.66,7.13-2.08,16.55-5.07,17.6-5.07s3-.14,1.8,1.81c-1.07,1.74-9.29,4.36-16.06,6.44-.87.27-1.71.52-2.51.77-7.92,2.41-12.55,3.53-23.81,6.41"/>
        <path class="cls-9" d="m110.61,86.82s-.52,1.18-1.21,2.8c-1.35,3.19-3.38,8.11-3.53,9.38,0,.04,0,.09-.02.14-.26,2.03-1.4,7.3-2.01,9.44-1.72,6.1-7.9,12.85-16.8,21.09-8.91,8.23-24.48,27.3-41.62,18.95,11.39-5.3,28.27-16.09,39.02-26.32,10.03-9.53,19.98-21.55,21.27-23.13.1-.11.15-.18.15-.18"/>
        <path class="cls-10" d="m43.17,129.68c2.04-1.33,4.05-2.71,6.04-4.12,4.81-3.38,9.52-6.94,14.08-10.65,5.62-4.57,11.06-9.39,16.06-14.64,1.71-1.8,3.33-3.69,4.89-5.62.8-.98,1.6-1.98,2.38-2.98,1.4-1.83,2.9-3.1,5.11-3.93,3.71-1.4,7.63-.75,11.49-.78,2.46-.02,4.9-.07,7.39-.15"/>
        <path class="cls-9" d="m120.39,88.59c1.48-.15.76-.74.57-1.19s-1.52-1.32-1.52-1.32c-.44-.49-2.32-.66-2.69-.3-.36.36-3.51,2.08-7.35,3.84"/>
        <path class="cls-9" d="m118.13,87.31s1.09.84,2.25,1.28h0c.46.18.93.28,1.34.26,1.49-.1,2.94-.14,3.43-.13.49,0,1.5.96,1.55,1.45.04.48-.24.79-.59,1.21-.12.15-.56.29-1.09.42-1.02.25-2.39.45-2.51.6-.2.23-.3.74-.3.74"/>
        <path class="cls-9" d="m125.04,91.79s-.04.85-.11,1.45c-.08.59-.71,1.4-.89,1.43-.06.02-.21.14-.42.3-.44.34-1.16.82-1.76.63"/>
        <path class="cls-9" d="m123.64,95s-.34,1.33-.72,1.69c-.36.36-1.01.25-1.24.87-.19.52-1.14,1.39-1.29,1.37s-.65.13-.65.13"/>
        <path class="cls-9" d="m120.4,98.93s.12.9-.19,1.02c-.32.11-.38.65-2.09.41-1.72-.25-4.43-.64-5.45-.69-1.03-.04-4.1-1.04-4.89-.89-.61.12-1.52.3-1.92.37-.05.02-.11.03-.13.04-.04,0-.06,0-.06,0"/>
        <path class="cls-10" d="m127.88,121.74c1.55-6.01,4.15-15.96,10.02-18.22,1.71-.65,3.67-.87,5.71-.67,1.85.18,3.75.69,5.6,1.51,3.17,1.4,6.16,3.73,8.3,6.83,4.75,6.92,16.04,20.26,23.7,21.2"/>
        <path class="cls-9" d="m184.43,121.89c2.54,1.09,4.85,2.12,6.5,2.93.62.3,1.14.57,1.55.8,4.81,2.7,18.93,6,20.52,19.83h0"/>
        <path class="cls-10" d="m167.52,114.94s9.41,3.72,16.91,6.94"/>
        <path class="cls-10" d="m149.21,104.36c7.19.66,22.53.4,29.45,0,6.92-.39,9.77-1.51,12.48.41"/>
        <path class="cls-10" d="m143.61,102.85s-.53-8.31,5.6-13.23c6.13-4.9,15.39-11.95,15.39-11.95"/>
        <path class="cls-10" d="m152.57,69.53s-8.5,11.57-9.7,14.89c-1.2,3.3-5.12,13.53-4.97,19.1"/>
        <path class="cls-10" d="m130.59,79.75s3.25,4.06,3.25,8.42-2.03,21.69-2.03,21.69"/>
        <path class="cls-10" d="m118.13,68.78s-1.13,9.32-5.8,13.23"/>
        <path class="cls-10" d="m107.38,55.55s-8.43,12.32-10.23,19.09c-1.8,6.77-2.63,11.32-2.03,12.18"/>
        <path class="cls-10" d="m89.03,61.41l-3.15,7.37s1.79,10.42,4.64,12.42c0,0,0,0,.02,0"/>
        <path class="cls-10" d="m79.26,75.4c1.5,1.05,3.6,5.71,5.26,5.41,1.28-.23,3.9-.28,6,.4.62.19,1.19.46,1.68.8"/>
        <path class="cls-10" d="m61.89,89.62s6.09,3.73,9.02,1.93c2.93-1.78,12.25-1.68,14.82-1.93"/>
        <path class="cls-9" d="m209.75,149.08c-15.45,2.25-30.18-.68-37.03-1.35,8.68,12.78,9.24,11.27,14.96,13.53"/>
        <path class="cls-9" d="m120.39,136.58c1.77-.3,3.29-.54,4.64-.74,3.64-.57,6.07-.92,8.75-1.55"/>
        <path class="cls-9" d="m118.45,138.94c.13.8.03,1.55-.47,2.19-.94.15-1.91.31-2.92.47-.5.08-1.02.16-1.53.24-1.33.21-2.7.43-4.07.64-1.39.22-2.77.44-4.13.66-1.48.23-2.91.45-4.26.67-1.43.22-2.77.43-3.96.62-1.39.21-2.58.41-3.5.55-1.1.17-2.08-.77-2.11-2.01l-.04-.93c-.02-.76.47-1.41,1.13-1.51,1.1-.15,3.13-.41,6.8-.84,1.05-.18,2.31-.36,3.74-.57,3.37-.49,7.63-1.06,11.99-1.72.89-.13,1.78-.27,2.68-.41.3.67.54,1.33.64,1.94Z"/>
        <path class="cls-9" d="m138.71,137.65s-3.9,1.03-10.12,2.03c-1.1.18-4.98.91-7.84,1.32"/>
        <path class="cls-9" d="m97.14,144.56s-11.26,10.69-11.79,11.44,2.4.98,2.4.98l10.68-10.37"/>
        <line class="cls-9" x1="107.71" y1="144.71" x2="109.39" y2="143.06"/>
        <line class="cls-9" x1="95.85" y1="156.25" x2="106.43" y2="145.94"/>
        <path class="cls-9" d="m105.42,143.62s-6.49,6.2-10.73,10.33c-1.92,1.87-3.37,3.31-3.53,3.55-.53.75,2.4.98,2.4.98l2.05-2"/>
        <path class="cls-9" d="m109.63,142.87l-.09.09c-.23.21-.9.86-1.83,1.75-.39.37-.82.79-1.28,1.24-3.53,3.39-8.94,8.61-10.58,10.3l-.24.24c-.12.13-.2.23-.24.27-.53.75,2.4.97,2.4.97l15.83-15.41"/>
        <path class="cls-9" d="m101.11,144s-1.1,1.06-2.68,2.61c-4.04,3.95-11.27,11.03-11.65,11.58-.52.75,2.41.97,2.41.97l5.44-5.28,10.42-10.12"/>
        <path class="cls-10" d="m116.62,52.75s0,.03,0,.04c.39,3.35,3.18,12.78,11.57,15.55,8.42,2.77,19.07,1.54,25.72-3.09,3.82-2.67,3.75-4.94,3.75-4.94"/>
        <path class="cls-10" d="m122.62,110.59s5.78,8.27,5.27,19.09c0,0,2.44,2.1,5.89,4.6,1.49,1.08,3.18,2.24,4.94,3.35.65.41,1.32.8,1.98,1.18.14.08.27.15.41.23,4.2,2.37,8.98,3.39,10.97,4.02,5.23,1.65,20.65,4.66,20.65,4.66"/>
        <path class="cls-10" d="m140.69,138.82s16.55-.85,19.16-3.38c-.48-.1-1.06-.46-1.71-1.02-5.48-4.82-15.96-24.54-15.96-24.54"/>
        <path class="cls-9" d="m140.69,138.82s10.79-7.24,17.46-4.41c.61.25,1.18.59,1.71,1.02"/>
        <path class="cls-9" d="m115.13,137.4c-.32-2.28,1.22-4.46,2.33-4.49.37,0,.69.04.96.15,1.23.45,1.64,1.89,1.89,3.53.11.72.18,1.48.27,2.21,0,.09.03.18.04.27.1.71.13,1.35.11,1.93-.04,2.13-.79,3.45-2.01,3.87-1.35.47-3.15-.58-3.6-2.83"/>
        <path class="cls-9" d="m145.23,163.36h0s.04-.03.08-.04c.06-.03.15-.07.26-.12.08-.04.17-.08.27-.12,3.21-1.53,18.1-8.37,22.73-6.09,5.14,2.53,8.83,3.31,11.64,3.48.03,0,.06,0,.09,0"/>
        <path class="cls-9" d="m96.85,161.26c6.02-2.86,12.52-6.95,15.68-6.77,3.15.18,10.78,7.59,14,8.84,0,0,.03.02.04.02"/>
        <path class="cls-9" d="m111.71,130.59c2.31.67,4.69,1.44,6.82,2.22,2.88,1.06,5.31,2.14,6.5,3.03h0"/>
        <path class="cls-9" d="m92.61,140.53c.64-3.93,5.48-11.6,8.54-12.05,1.42-.21,5.84.74,10.55,2.11"/>
        <path class="cls-9" d="m111.71,130.59h0c-4.18.9-7.57,5.97-8.55,8.53"/>
        <polyline class="cls-9" points="160.76 60.27 163.32 47.88 165.55 49.23 168.28 50.88 167.67 52.52 167.67 52.52 164.6 60.83"/>
        <line class="cls-9" x1="165.55" y1="49.23" x2="162.85" y2="60.52"/>
        <polyline class="cls-9" points="167.68 52.53 170.12 53.7 172.06 54.63 172.56 54.88 167.68 62.31"/>
        <line class="cls-9" x1="170.12" y1="53.7" x2="166.07" y2="61.51"/>
        <polyline class="cls-9" points="172.19 54.35 173.2 53.35 175.43 55.32 177.83 57.42 177.49 57.78 171.22 64.47"/>
        <line class="cls-9" x1="175.43" y1="55.32" x2="169.61" y2="63.45"/>
        <polyline class="cls-9" points="177.83 58.1 179.28 59.67 180.99 61.51 180.59 61.89 174.8 67.44"/>
        <line class="cls-9" x1="173.46" y1="66" x2="179.28" y2="59.67"/>
        <polyline class="cls-9" points="180.99 62.31 182.52 63.69 184.44 65.44 184.08 65.72 176.85 71.21"/>
        <line class="cls-9" x1="182.52" y1="63.69" x2="175.73" y2="68.85"/>
        <polyline class="cls-9" points="178.06 74.82 186.4 69.26 187 68.85 185.63 67.38 184.08 65.72"/>
        <line class="cls-9" x1="185.5" y1="67.49" x2="177.74" y2="73.09"/>
        <line class="cls-9" x1="187.98" y1="74.58" x2="179.28" y2="79.15"/>
        <polyline class="cls-9" points="186.4 69.26 187.57 71.8 188.68 74.21 187.98 74.57"/>
        <line class="cls-9" x1="178.56" y1="76.72" x2="187.57" y2="71.8"/>
        <polyline class="cls-9" points="187.98 74.57 187.98 74.58 188.65 76.72 189.41 79.15 188.57 79.48 179.82 82.87"/>
        <line class="cls-9" x1="179.46" y1="80.92" x2="188.65" y2="76.72"/>
        <path class="cls-9" d="m188.68,79.75c.13.45.58,2.56.58,2.56l.6,2.22-9.16,3.55-.04.02"/>
        <line class="cls-9" x1="180.32" y1="85.75" x2="189.26" y2="82.32"/>
        <path class="cls-9" d="m221.25,125.05c-1.35-.14-2.26-.23-2.26-.23"/>
        <path class="cls-9" d="m218.07,119.11h13.82l-.75,7.41c-2.42-.6-7.06-1.17-9.85-1.47"/>
        <path class="cls-9" d="m218.51,130.59l8.38,3.68,4.25,1.87,2.56-5.95s-6.19-3.84-12.41-5.14c0,0-.03,0-.04,0-.42-.09-.83-.17-1.24-.23"/>
        <path class="cls-9" d="m216.97,137s9.58,4,12.81,10.33"/>
        <path class="cls-9" d="m214.83,142.32s7.43,5.56,8.54,10.06l6.41-5.06,4.51-3.57c-.98-2.68-5.95-7.58-7.41-9.47"/>
      </g>
    </g>
  </g>
</svg>