<?xml version="1.0" encoding="UTF-8"?>
<svg xmlns="http://www.w3.org/2000/svg" viewBox="0 0 270.27 186.84">
  <defs>
    <style>
      .cls-1 {
        stroke-miterlimit: 10;
      }

      .cls-1, .cls-2 {
        fill: none;
        stroke: #000;
      }

      .cls-3 {
        fill: #f3edd7;
      }

      .cls-3, .cls-4, .cls-5, .cls-6, .cls-7, .cls-8, .cls-9, .cls-10 {
        stroke-width: 0px;
      }

      .cls-2 {
        stroke-linecap: round;
        stroke-linejoin: round;
      }

      .cls-4 {
        fill: #f8dd8c;
      }

      .cls-5 {
        fill: #faead1;
      }

      .cls-6 {
        fill: #333;
      }

      .cls-7 {
        fill: #c994ae;
      }

      .cls-8 {
        fill: #d2d296;
      }

      .cls-9 {
        fill: #fef1d1;
      }

      .cls-10 {
        fill: #fe462e;
      }
    </style>
  </defs>
  <g id="_畳" data-name="畳">
    <g>
      <g>
        <rect class="cls-3" x=".24" y="152.21" width="3.62" height="5.03"/>
        <path class="cls-3" d="m270.03,179.77v6.56h-30.44l15.35-8.63c1.03,1.61,3.11,2.72,5.51,2.72s4.62-1.18,5.62-2.88l3.97,2.23Z"/>
        <path class="cls-3" d="m270.03,169.22v10.55l-3.97-2.23c.38-.65.59-1.38.59-2.14,0-1.3-.62-2.48-1.61-3.38l4.99-2.8Z"/>
        <path class="cls-3" d="m270.03,157.23v11.99l-4.99,2.8c-1.14-1.01-2.77-1.64-4.59-1.64s-3.31.58-4.44,1.51l-26.08-14.66h40.1Z"/>
        <polygon class="cls-3" points="270.03 89.47 270.03 95.24 1.13 95.24 .24 95.24 .24 89.47 270.03 89.47"/>
        <rect class="cls-3" x="266.04" y="152.21" width="3.99" height="5.03"/>
        <path class="cls-3" d="m266.65,175.4c0,.76-.21,1.49-.59,2.14l-5.42-3.05,4.39-2.47c1,.89,1.61,2.07,1.61,3.38Z"/>
        <path class="cls-3" d="m260.65,174.5l5.42,3.05c-1,1.7-3.13,2.88-5.62,2.88s-4.48-1.1-5.51-2.72l5.71-3.21Z"/>
        <rect class="cls-6" x="254.73" y="152.21" width="11.3" height="5.03"/>
        <path class="cls-3" d="m265.04,172.02l-4.39,2.47-4.64-2.6c1.13-.93,2.7-1.51,4.44-1.51,1.82,0,3.45.63,4.59,1.64Z"/>
        <path class="cls-3" d="m260.65,174.5l-5.71,3.21c-.44-.69-.69-1.48-.69-2.31,0-1.37.68-2.6,1.77-3.51l4.64,2.6Z"/>
        <path class="cls-3" d="m229.93,157.23l26.08,14.66c-1.09.9-1.77,2.14-1.77,3.51,0,.83.25,1.62.69,2.31l-15.35,8.63h-41.46l-15.64-8.79c.38-.65.59-1.38.59-2.14,0-1.3-.62-2.48-1.61-3.37l26.33-14.8h22.14Zm-5.96,18.17c0-2.77-2.25-5.02-5.02-5.02s-5.03,2.25-5.03,5.02,2.25,5.03,5.03,5.03,5.02-2.25,5.02-5.03Z"/>
        <polygon class="cls-3" points="254.73 157.23 229.93 157.23 224.22 157.23 224.22 152.21 254.73 152.21 254.73 157.23"/>
        <rect class="cls-6" x="212.92" y="152.21" width="11.3" height="5.03"/>
        <path class="cls-6" d="m218.95,170.38c2.77,0,5.02,2.25,5.02,5.02s-2.25,5.03-5.02,5.03-5.03-2.25-5.03-5.03,2.25-5.02,5.03-5.02Z"/>
        <path class="cls-3" d="m207.78,157.23l-26.33,14.8c-1.14-1.02-2.77-1.65-4.59-1.65s-3.31.58-4.44,1.51l-26.08-14.66h61.44Z"/>
        <polygon class="cls-3" points="182.41 157.23 182.41 152.21 212.92 152.21 212.92 157.23 207.78 157.23 182.41 157.23"/>
        <path class="cls-3" d="m198.12,186.34h-42.12l15.35-8.63c1.03,1.61,3.12,2.72,5.51,2.72s4.62-1.18,5.62-2.88l15.64,8.79Z"/>
        <path class="cls-3" d="m183.07,175.4c0,.76-.21,1.49-.59,2.14l-5.42-3.05,4.39-2.47c1,.89,1.61,2.07,1.61,3.37Z"/>
        <path class="cls-3" d="m177.07,174.5l5.42,3.05c-1,1.7-3.13,2.88-5.62,2.88s-4.48-1.1-5.51-2.72l5.71-3.21Z"/>
        <rect class="cls-6" x="171.11" y="152.21" width="11.3" height="5.03"/>
        <path class="cls-3" d="m176.87,170.38c1.82,0,3.45.63,4.59,1.65l-4.39,2.47-4.64-2.6c1.13-.93,2.7-1.51,4.44-1.51Z"/>
        <path class="cls-3" d="m177.07,174.5l-5.71,3.21c-.44-.69-.69-1.48-.69-2.31,0-1.37.68-2.6,1.77-3.51l4.64,2.6Z"/>
        <path class="cls-3" d="m146.35,157.23l26.08,14.66c-1.09.9-1.77,2.14-1.77,3.51,0,.83.25,1.62.69,2.31l-15.35,8.63h-41.46l-15.64-8.79c.38-.65.59-1.38.59-2.14,0-1.3-.62-2.48-1.61-3.37l26.33-14.8h22.14Zm-7.01,18.17c0-2.77-2.25-5.02-5.02-5.02s-5.03,2.25-5.03,5.02,2.25,5.03,5.03,5.03,5.02-2.25,5.02-5.03Z"/>
        <polygon class="cls-3" points="171.11 157.23 146.35 157.23 140.6 157.23 140.6 152.21 171.11 152.21 171.11 157.23"/>
        <rect class="cls-6" x="129.3" y="152.21" width="11.3" height="5.03"/>
        <path class="cls-6" d="m134.32,170.38c2.77,0,5.02,2.25,5.02,5.02s-2.25,5.03-5.02,5.03-5.03-2.25-5.03-5.03,2.25-5.02,5.03-5.02Z"/>
        <path class="cls-3" d="m124.2,157.23l-26.33,14.8c-1.14-1.02-2.77-1.65-4.59-1.65s-3.31.58-4.44,1.51l-26.08-14.66h61.44Z"/>
        <polygon class="cls-3" points="129.3 157.23 124.2 157.23 98.79 157.23 98.79 152.21 129.3 152.21 129.3 157.23"/>
        <path class="cls-3" d="m114.54,186.34h-42.12l15.35-8.63c1.03,1.61,3.11,2.72,5.51,2.72s4.62-1.18,5.62-2.88l15.64,8.79Z"/>
        <path class="cls-3" d="m99.49,175.4c0,.76-.21,1.49-.59,2.14l-5.42-3.05,4.39-2.47c1,.89,1.61,2.07,1.61,3.37Z"/>
        <path class="cls-3" d="m93.49,174.5l5.42,3.05c-1,1.7-3.13,2.88-5.62,2.88s-4.48-1.1-5.51-2.72l5.71-3.21Z"/>
        <rect class="cls-6" x="87.49" y="152.21" width="11.3" height="5.03"/>
        <path class="cls-3" d="m93.29,170.38c1.82,0,3.45.63,4.59,1.65l-4.39,2.47-4.64-2.6c1.13-.93,2.7-1.51,4.44-1.51Z"/>
        <path class="cls-3" d="m93.49,174.5l-5.71,3.21c-.44-.69-.69-1.48-.69-2.31,0-1.37.68-2.6,1.77-3.51l4.64,2.6Z"/>
        <path class="cls-3" d="m62.77,157.23l26.08,14.66c-1.09.9-1.77,2.14-1.77,3.51,0,.83.25,1.62.69,2.31l-15.35,8.63H30.77l-15.64-8.79c.38-.65.59-1.38.59-2.14,0-1.3-.62-2.48-1.61-3.37l26.33-14.8h22.33Zm-8.52,18.17c0-2.77-2.25-5.02-5.02-5.02s-5.03,2.25-5.03,5.02,2.25,5.03,5.03,5.03,5.02-2.25,5.02-5.03Z"/>
        <polygon class="cls-3" points="87.49 157.23 62.77 157.23 56.98 157.23 56.98 152.21 87.49 152.21 87.49 157.23"/>
        <rect class="cls-6" x="45.68" y="152.21" width="11.3" height="5.03"/>
        <path class="cls-6" d="m49.23,170.38c2.77,0,5.02,2.25,5.02,5.02s-2.25,5.03-5.02,5.03-5.03-2.25-5.03-5.03,2.25-5.02,5.03-5.02Z"/>
        <polygon class="cls-3" points="45.68 157.23 40.43 157.23 15.17 157.23 15.17 152.21 45.68 152.21 45.68 157.23"/>
        <path class="cls-3" d="m30.77,186.34H.24v-6.52l3.76-2.11c1.03,1.61,3.12,2.72,5.51,2.72s4.62-1.18,5.62-2.88l15.64,8.79Z"/>
        <path class="cls-3" d="m15.72,175.4c0,.76-.21,1.49-.59,2.14l-5.42-3.05,4.39-2.47c1,.89,1.61,2.07,1.61,3.37Z"/>
        <rect class="cls-6" x="3.86" y="152.21" width="11.3" height="5.03"/>
        <path class="cls-3" d="m9.71,174.5l5.42,3.05c-1,1.7-3.13,2.88-5.62,2.88s-4.48-1.1-5.51-2.72l5.71-3.21Z"/>
        <path class="cls-3" d="m9.52,170.38c1.82,0,3.45.63,4.59,1.65l-4.39,2.47-4.64-2.6c1.13-.93,2.7-1.51,4.44-1.51Z"/>
        <path class="cls-3" d="m9.71,174.5l-5.71,3.21c-.44-.69-.69-1.48-.69-2.31,0-1.37.68-2.6,1.77-3.51l4.64,2.6Z"/>
        <path class="cls-3" d="m.24,169.17l4.83,2.72c-1.09.9-1.77,2.14-1.77,3.51,0,.83.25,1.62.69,2.31l-3.76,2.11v-10.64Z"/>
        <polygon class="cls-8" points="212.92 152.21 182.41 152.21 171.11 152.21 140.6 152.21 129.3 152.21 98.79 152.21 87.49 152.21 56.98 152.21 45.68 152.21 15.17 152.21 3.86 152.21 .24 152.21 .24 95.24 1.13 95.24 270.03 95.24 270.03 152.21 266.04 152.21 254.73 152.21 224.22 152.21 212.92 152.21"/>
        <path class="cls-3" d="m.24,157.23h40.19l-26.33,14.8c-1.14-1.02-2.77-1.65-4.59-1.65s-3.31.58-4.44,1.51l-4.83-2.72v-11.94Z"/>
      </g>
      <g>
        <polyline class="cls-1" points="270.03 186.34 239.59 186.34 198.12 186.34 156.01 186.34 114.54 186.34 72.43 186.34 30.77 186.34 .24 186.34"/>
        <line class="cls-1" x1=".24" y1="89.47" x2="270.03" y2="89.47"/>
        <line class="cls-1" x1=".24" y1="95.24" x2="270.03" y2="95.24"/>
        <line class="cls-1" x1="266.04" y1="152.21" x2="270.03" y2="152.21"/>
        <line class="cls-1" x1="224.22" y1="152.21" x2="254.73" y2="152.21"/>
        <line class="cls-1" x1="182.41" y1="152.21" x2="212.92" y2="152.21"/>
        <line class="cls-1" x1="140.6" y1="152.21" x2="171.11" y2="152.21"/>
        <line class="cls-1" x1="98.79" y1="152.21" x2="129.3" y2="152.21"/>
        <line class="cls-1" x1="56.98" y1="152.21" x2="87.49" y2="152.21"/>
        <line class="cls-1" x1="15.17" y1="152.21" x2="45.68" y2="152.21"/>
        <line class="cls-1" x1=".24" y1="152.21" x2="3.86" y2="152.21"/>
        <line class="cls-1" x1="266.04" y1="157.23" x2="270.03" y2="157.23"/>
        <polyline class="cls-1" points="224.22 157.23 229.93 157.23 254.73 157.23"/>
        <polyline class="cls-1" points="182.41 157.23 207.78 157.23 212.92 157.23"/>
        <polyline class="cls-1" points="140.6 157.23 146.35 157.23 171.11 157.23"/>
        <polyline class="cls-1" points="98.79 157.23 124.2 157.23 129.3 157.23"/>
        <polyline class="cls-1" points="56.98 157.23 62.77 157.23 87.49 157.23"/>
        <polyline class="cls-1" points="15.17 157.23 40.43 157.23 45.68 157.23"/>
        <line class="cls-1" x1=".24" y1="157.23" x2="3.86" y2="157.23"/>
        <polyline class="cls-1" points="72.43 186.34 87.77 177.71 93.49 174.5 97.88 172.03 124.2 157.23"/>
        <polyline class="cls-1" points="114.54 186.34 98.9 177.54 93.49 174.5 88.85 171.89 62.77 157.23"/>
        <path class="cls-1" d="m139.33,175.4c0,2.78-2.25,5.03-5.02,5.03s-5.03-2.25-5.03-5.03,2.25-5.02,5.03-5.02,5.02,2.25,5.02,5.02Z"/>
        <path class="cls-1" d="m223.96,175.4c0,2.78-2.25,5.03-5.02,5.03s-5.03-2.25-5.03-5.03,2.25-5.02,5.03-5.02,5.02,2.25,5.02,5.02Z"/>
        <path class="cls-1" d="m97.88,172.03c1,.89,1.61,2.07,1.61,3.37,0,.76-.21,1.49-.59,2.14-1,1.7-3.13,2.88-5.62,2.88s-4.48-1.1-5.51-2.72c-.44-.69-.69-1.48-.69-2.31,0-1.37.68-2.6,1.77-3.51,1.13-.93,2.7-1.51,4.44-1.51,1.82,0,3.45.63,4.59,1.65Z"/>
        <polyline class="cls-1" points=".24 179.82 4 177.71 9.71 174.5 14.11 172.03 40.43 157.23"/>
        <polyline class="cls-1" points="30.77 186.34 15.13 177.54 9.71 174.5 5.08 171.89 .24 169.17"/>
        <path class="cls-1" d="m14.11,172.03c1,.89,1.61,2.07,1.61,3.37,0,.76-.21,1.49-.59,2.14-1,1.7-3.13,2.88-5.62,2.88s-4.48-1.1-5.51-2.72c-.44-.69-.69-1.48-.69-2.31,0-1.37.68-2.6,1.77-3.51,1.13-.93,2.7-1.51,4.44-1.51,1.82,0,3.45.63,4.59,1.65Z"/>
        <polyline class="cls-1" points="156.01 186.34 171.35 177.71 177.07 174.5 181.46 172.03 207.78 157.23"/>
        <polyline class="cls-1" points="198.12 186.34 182.48 177.54 177.07 174.5 172.43 171.89 146.35 157.23"/>
        <path class="cls-1" d="m181.46,172.03c1,.89,1.61,2.07,1.61,3.37,0,.76-.21,1.49-.59,2.14-1,1.7-3.13,2.88-5.62,2.88s-4.48-1.1-5.51-2.72c-.44-.69-.69-1.48-.69-2.31,0-1.37.68-2.6,1.77-3.51,1.13-.93,2.7-1.51,4.44-1.51,1.82,0,3.45.63,4.59,1.65Z"/>
        <polyline class="cls-1" points="239.59 186.34 254.93 177.71 260.65 174.5 265.04 172.02 270.03 169.22"/>
        <polyline class="cls-1" points="270.03 179.77 266.06 177.54 260.65 174.5 256.01 171.89 229.93 157.23"/>
        <path class="cls-1" d="m265.04,172.02c1,.89,1.61,2.07,1.61,3.38,0,.76-.21,1.49-.59,2.14-1,1.7-3.13,2.88-5.62,2.88s-4.48-1.1-5.51-2.72c-.44-.69-.69-1.48-.69-2.31,0-1.37.68-2.6,1.77-3.51,1.13-.93,2.7-1.51,4.44-1.51,1.82,0,3.45.63,4.59,1.64Z"/>
        <path class="cls-1" d="m54.24,175.4c0,2.78-2.25,5.03-5.02,5.03s-5.03-2.25-5.03-5.03,2.25-5.02,5.03-5.02,5.02,2.25,5.02,5.02Z"/>
        <rect class="cls-1" x="3.86" y="152.21" width="11.3" height="5.03"/>
        <rect class="cls-1" x="45.68" y="152.21" width="11.3" height="5.03"/>
        <rect class="cls-1" x="87.49" y="152.21" width="11.3" height="5.03"/>
        <rect class="cls-1" x="129.3" y="152.21" width="11.3" height="5.03"/>
        <rect class="cls-1" x="171.11" y="152.21" width="11.3" height="5.03"/>
        <rect class="cls-1" x="212.92" y="152.21" width="11.3" height="5.03"/>
        <rect class="cls-1" x="254.73" y="152.21" width="11.3" height="5.03"/>
      </g>
    </g>
  </g>
  <g id="_レイヤー_2" data-name="レイヤー 2">
    <g>
      <g>
        <path class="cls-4" d="m269.11,113.33c.05,1.48.09,2.99.08,4.33-1.82-1-19.09-6.93-25.5-8.64-6.43-1.71-21.77-4.95-26.05-7.08-4.28-2.15-9.01-5.3-9.01-5.3l-.07-.03c.55-1.42,1.05-2.93,1.19-3.88h.04s4.73,3.17,9.01,5.31c4.28,2.15,19.62,5.38,26.05,7.09,6.33,1.68,22.11,7.1,24.26,8.2Z"/>
        <path class="cls-4" d="m268.92,109.04c.06,1.23.13,2.74.19,4.28-2.15-1.1-17.92-6.52-24.26-8.2-6.43-1.71-21.77-4.95-26.05-7.09-4.28-2.14-9.01-5.3-9.01-5.3h-.04c.08-.48.06-.81-.08-.94-.8-.72-5.52-.85-5.52-.85.36-.11.63-.23.78-.35-1.25-1.38-2.99-3.28-4.87-5.43,6.18,2.99,19.42,9.75,28.75,12.31,9.32,2.55,33.66,8.92,39.99,11.57h.13Z"/>
        <path class="cls-7" d="m244.58,82.39c1.39.24,2.82.45,4.14.59,1.51.16,2.87.22,3.83.08.71.39,3.69,2.13,4.92,4.64,1.4,2.86,11.32,17.6,11.32,18.5,0,.24.06,1.33.13,2.84h-.13c-6.33-2.64-30.67-9.01-39.99-11.56-9.33-2.56-22.56-9.33-28.75-12.31-.36-.41-.72-.81-1.08-1.24h0c-.96-1.12-1.95-2.3-2.92-3.49-.95-1.17-1.9-2.37-2.77-3.54-6.25,2.2-18.45-1.3-23.23-3.44h0c-.1-.84-.18-1.67-.22-2.46-.1-1.51-.1-2.89.04-4.05.59-4.84,3.08-11.92,8.98-14.77,1.16-.57,2.46-.97,3.89-1.16,1.8-.22,3.4-.35,4.84-.38,1.03-.03,1.98,0,2.84.06,3.63.27,5.82,1.34,7.06,3.01.19.26.54.69,1.03,1.27,1.59,1.89,4.64,5.35,8.48,9.46,1.73,1.86,3.63,3.87,5.64,5.92,1.25,1.3,2.56,2.62,3.89,3.93,1.8,1.81,3.66,3.6,5.5,5.34,0,0,14.3,1.24,18.04,1.92.03,0,.05,0,.08.02,1.23.23,2.81.53,4.48.81Z"/>
        <path class="cls-4" d="m269.19,117.66c0,2.16-.11,3.89-.4,4.33-.12.19-.42.41-.84.66-2.95-2.65-14.5-6.83-23.22-8.78-6.43-1.44-11.48-1.57-14.89-1.61-1.21,0-2.22,0-3.01-.04-1.7-.09-5.58-1.22-9.32-2.52-2.91-1.01-5.72-2.11-7.37-2.9-1.57-.75-3.28-2.75-4.94-5.12-.19-.27-.38-.54-.57-.82,0,0,1.86.11,2.25-.44.19-.27.95-1.97,1.65-3.81l.07.03s4.73,3.15,9.01,5.3c4.28,2.14,19.62,5.37,26.05,7.08,6.41,1.7,23.68,7.64,25.5,8.64Z"/>
        <path class="cls-10" d="m267.95,122.65c-1.63.96-5.3,2.31-9.3,3.31h0c-11.78-4.9-17.01-2.75-17.01-2.75-2.4-1.7-4.75-3.71-6.71-5.55-2.61-2.43-4.54-4.56-5.07-5.3v-.11c3.41.04,8.45.17,14.89,1.61,8.72,1.95,20.26,6.13,23.22,8.78Z"/>
        <path class="cls-10" d="m257.7,65.77c.52,4.39.6,9.62-.9,13.23-.72-3.9-6.8-19.12-12.15-24.75-5.34-5.64-14.43-11.28-27.14-16.62,1.88-3.38,11.77-7.52,13.18-8.05,6.87.06,12.97.4,16.74,6.15,3.78,5.75,6.44,10.86,7.33,13.82.9,2.96,2.15,9.55,2.93,16.22Z"/>
        <path class="cls-10" d="m256.8,79h0c-.68,1.64-1.68,2.94-3.11,3.68-.18-1.2-6.37-13.17-13.59-20.95-4.08-4.42-13.22-8.37-13.59-8.52-1.91-2.41-3.83-4.61-4.84-5.76-.47-.53-.74-.83-.74-.83-.22-.79-.79-1.35-.79-1.35,0,0-15.44-14.2-22.7-21.1,0,0,8.83-3.98,10.92-4.5,1.75-.42,6.82-1.12,10.41.05,0,0-1.63,15.88-1.25,17.92,12.7,5.34,21.8,10.98,27.14,16.62,5.34,5.64,11.42,20.86,12.15,24.75Z"/>
        <path class="cls-4" d="m252.55,83.06c-.95.14-2.31.08-3.83-.08-.18-1.3-3.54-9.98-6.25-13.7-2.62-3.6-12.02-11.03-12.61-11.49l-.03-.03c-.95-1.46-2.15-3.05-3.33-4.56.37.16,9.51,4.11,13.59,8.52,7.22,7.78,13.41,19.75,13.59,20.95-.21.11-.43.21-.67.3-.14.04-.3.06-.47.08Z"/>
        <path class="cls-10" d="m249.51,127.14c-2.39-.47-5.16-2-7.87-3.92,0,0,5.22-2.16,17.01,2.75-2.43.61-4.99,1.1-7.29,1.29-.58.05-1.19,0-1.85-.11Z"/>
        <path class="cls-4" d="m242.48,69.28c2.7,3.72,6.07,12.4,6.25,13.7-1.33-.14-2.76-.35-4.14-.59-.72-6.63-7.23-15.84-11.12-17.82-.17-.34-.34-.68-.5-1.01-.64-1.26-1.2-2.39-1.64-3.3-.36-.75-.86-1.59-1.44-2.47.58.46,9.98,7.89,12.61,11.49Z"/>
        <path class="cls-9" d="m246.42,145.35l-4.45,3.77-3.78-3.77-16.83-19.56c1.5.03,3.05.02,4.64-.04l12.51,12,7.92,7.6Z"/>
        <path class="cls-10" d="m249.51,127.14c-6.63,2.11-11.98-2.03-15.07-5.52.11-2.98.49-3.95.49-3.95,1.96,1.84,4.31,3.84,6.71,5.55,2.71,1.93,5.49,3.45,7.87,3.92Z"/>
        <path class="cls-9" d="m241.63,134.8l-3.13,2.95-12.51-12c.18,0,.34,0,.52-.02,1.57-.06,3.18-.16,4.82-.31l10.29,9.37Z"/>
        <path class="cls-4" d="m233.46,64.57c3.89,1.98,10.4,11.18,11.12,17.82-1.67-.28-3.25-.58-4.48-.81-.03,0-.05,0-.08-.02l.08-.49c-.42-3.75-3.94-11.08-6.64-16.49Z"/>
        <path class="cls-7" d="m231.04,64.54l1.92-.97c.17.33.34.66.5,1.01,2.7,5.42,6.23,12.74,6.64,16.49l-.08.49c-3.74-.68-18.04-1.92-18.04-1.92-1.85-1.74-3.7-3.53-5.5-5.34,0,0,12.63-9.76,14.56-9.76Z"/>
        <path class="cls-9" d="m221.36,125.79l16.83,19.56-4.73,3.77-12.53-15.18-7.14-8.65c.88.11,1.78.19,2.69.27,1.58.12,3.21.2,4.88.23Z"/>
        <path class="cls-4" d="m231.34,125.43c-1.64.15-3.25.25-4.82.31v-.18s.32-13.35.32-13.35c.8.04,1.8.04,3.01.04v.11c.53.74,2.46,2.87,5.07,5.3,0,0-.38.97-.49,3.95-.04.95-.05,2.1,0,3.49-1.04.12-2.07.23-3.08.33Z"/>
        <path class="cls-7" d="m226.52,53.21c1.18,1.51,2.38,3.1,3.33,4.56l.03.03c.58.88,1.08,1.72,1.44,2.47.44.91,1.01,2.04,1.64,3.3l-1.92.97c-1.93,0-14.56,9.76-14.56,9.76-1.33-1.31-2.63-2.63-3.89-3.93-2.01-2.05-3.9-4.05-5.64-5.92-3.84-4.11-6.89-7.57-8.48-9.46.21-3.08,2.78-15.79,2.78-15.79,6.91,2.79,18.23,7.53,19.67,7.42,0,0,.27.3.74.83,1.02,1.15,2.93,3.35,4.84,5.76Z"/>
        <path class="cls-4" d="m226.84,112.22l-.33,13.35v.18c-.17,0-.34.02-.51.02-1.59.05-3.14.06-4.64.04-1.67-.03-3.3-.11-4.88-.23l1.03-15.87c3.74,1.3,7.62,2.43,9.32,2.52Z"/>
        <path class="cls-10" d="m220.65,20.63c3.38,2.37,8.75,5.52,10.04,8.96-1.41.53-11.3,4.66-13.18,8.05-.38-2.03,1.25-17.92,1.25-17.92.69.23,1.33.53,1.88.91Z"/>
        <path class="cls-10" d="m213.8,125.3l7.14,8.65s-8.23,2.55-13.98,3.27-12.75,4.47-15.6,6.95-10.89-1.2-10.89-1.2c1.29-.69,3.06-1.65,5.07-2.8.95-.54,1.95-1.12,2.99-1.73,1.37-.8,2.79-1.67,4.21-2.56,6.15-3.85,12.31-8.3,14.21-11.66,2.18.45,4.46.82,6.84,1.09Z"/>
        <path class="cls-6" d="m220.94,46.62c-1.44.11-12.76-4.63-19.67-7.42-.63-.25-1.21-.49-1.75-.7-1.69-.67-3.57-1.88-5.48-3.34-5.47-4.17-11.1-10.36-12.84-11.69-3.67-2.8-16.09-12.23-16.46-12.61-.38-.37-2.03-.52-2.41,0-.37.53-6.17,5.49-7.07,5.87-.45.08-.75,1.43-.75,2.41l-1.08.2c-.5-2.44-.49-5.73.8-8.98,1.13-2.82,8.32-9.06,12.13-9.75,3.99-.73,9.36,2.37,12.62,5.3,3.28,2.93,11.73,11.5,15.23,15.11.6.62,1.74,1.72,3.23,3.14,7.26,6.91,22.7,21.1,22.7,21.1,0,0,.57.57.79,1.35Z"/>
        <path class="cls-4" d="m217.52,109.7l-1.03,15.87c-.91-.07-1.8-.16-2.69-.27-2.38-.27-4.66-.64-6.84-1.09l3.19-17.41c1.64.79,4.46,1.89,7.37,2.9Z"/>
        <path class="cls-4" d="m210.15,106.8l-3.19,17.41c-2.42-.5-4.72-1.11-6.91-1.81l5.16-20.72c1.66,2.38,3.37,4.37,4.94,5.12Z"/>
        <path class="cls-10" d="m209.66,91.8c.14.12.16.46.08.93-.14.95-.64,2.46-1.19,3.88-.7,1.84-1.47,3.54-1.65,3.81-.4.56-2.25.44-2.25.44-1.18-1.76-2.33-3.67-3.38-5.41-.83-1.37-1.6-2.63-2.29-3.65,2.23-.24,4.11-.52,5.17-.85,0,0,4.73.13,5.52.85Z"/>
        <path class="cls-4" d="m205.21,101.68l-5.16,20.72c-3.19-1.01-6.14-2.2-8.88-3.52-.54-.26-1.06-.51-1.58-.78l11.67-22.66c1.05,1.74,2.2,3.65,3.38,5.41.19.28.37.56.57.82Z"/>
        <path class="cls-4" d="m204.92,90.6c-.15.12-.42.24-.78.35-1.06.33-2.94.61-5.17.85-2.35.25-5.07.44-7.61.59-3.98.23-7.51.34-8.43.34-.58,0-1.47-.12-2.46-.34-1.53-.32-3.31-.85-4.71-1.45-1.17-.5-2.07-1.06-2.3-1.6-.41-1.28-1.05-3.58-1.68-6.29l.32-.08c3.61,1.02,23.72,2.4,26.86.95h0c.35.42.72.83,1.08,1.24,1.87,2.16,3.61,4.05,4.87,5.43Z"/>
        <path class="cls-4" d="m201.26,95.45l-11.67,22.66c-2.89-1.47-5.52-3.07-7.94-4.71l17.32-21.6c.69,1.02,1.46,2.28,2.29,3.65Z"/>
        <path class="cls-7" d="m201.26,39.2l-10.87,11.51c-.86-.07-1.8-.09-2.84-.06v-.03c.32,0,.69-.11,1.1-.43l5.34-14.97.04-.05c1.91,1.46,3.79,2.67,5.48,3.34.54.21,1.12.45,1.75.7Z"/>
        <path class="cls-7" d="m190.39,50.71l10.87-11.51s-2.57,12.71-2.78,15.79c-.49-.58-.84-1.02-1.03-1.27-1.24-1.67-3.43-2.74-7.06-3.01Z"/>
        <path class="cls-7" d="m200.05,122.4c2.19.7,4.49,1.31,6.91,1.81-1.9,3.36-8.07,7.81-14.21,11.66-1.02-4.81-6.32-12.34-8.44-14.27,3.14-1.08,6.86-2.72,6.86-2.72,2.74,1.32,5.69,2.51,8.88,3.52Z"/>
        <path class="cls-4" d="m198.98,91.8l-17.32,21.6c-2.4-1.63-4.59-3.3-6.59-4.92h0s16.29-16.09,16.29-16.09c2.54-.15,5.26-.34,7.61-.59Z"/>
        <path class="cls-4" d="m196.04,80.44c.97,1.19,1.96,2.37,2.92,3.49-3.14,1.46-23.25.07-26.86-.95l-.32.08c-.18-.76-.35-1.55-.53-2.37-.17-.8-.33-1.6-.49-2.42l.3-.05c4.17,1.56,20.19,3.99,24.97,2.22Z"/>
        <path class="cls-4" d="m193.27,76.9c.87,1.17,1.82,2.37,2.77,3.54-4.78,1.78-20.8-.65-24.97-2.22l-.3.05c-.14-.81-.28-1.64-.42-2.46-.12-.8-.23-1.59-.33-2.36h0c4.78,2.14,16.99,5.64,23.23,3.44Z"/>
        <path class="cls-5" d="m180.41,41.94c-2.28,1-5.03,1.43-7.54,1.42-1.95,0-3.76-.28-5.11-.77,0-.03,0-.04,0-.05,0,0-.03,0-.05.04-1.92-.72-4.02-3.54-6-7.07l2.13-.36c-.33-.58-.97-4.77-1.39-8.07l-1.09.1c-.3.08-2.41.98-2.41.98l-.72.31c-1.62-3.66-2.94-7.16-3.72-9.33,0-.98.3-2.33.75-2.41.9-.37,6.7-5.34,7.07-5.87.38-.52,2.03-.37,2.41,0,.37.38,12.79,9.81,16.46,12.61,1.74,1.33,7.37,7.52,12.84,11.69l-.04.05-5.34,14.97c-.41.33-.78.43-1.1.43-.5,0-.91-.27-1.24-.43l-5.85-8.09-.06-.15Zm-15.31-25.09c.72-.31,1.16-.87.99-1.25-.16-.39-.87-.45-1.59-.15-.72.31-1.17.87-1,1.25.17.39.88.46,1.6.15Zm-6.78,3.2c.61-.49.9-1.14.64-1.47-.26-.34-.96-.21-1.58.27-.61.49-.89,1.14-.64,1.48.26.33.96.2,1.58-.27Z"/>
        <path class="cls-4" d="m192.75,135.87c-1.42.89-2.84,1.76-4.21,2.56-.39-4.27-5.94-12.76-8.75-15.79.73-.05,1.36-.13,1.86-.25.73-.17,1.67-.45,2.66-.8,2.12,1.93,7.42,9.46,8.44,14.27Z"/>
        <path class="cls-4" d="m191.36,92.39l-16.29,16.08h0c-2.31-1.89-4.37-3.74-6.23-5.41l6.93-6.34,4.71-4.31h0c1,.2,1.88.33,2.46.33.92,0,4.45-.11,8.43-.34Z"/>
        <path class="cls-7" d="m163.33,122.75h0c-.26,0-.56.13-.93.42l-.22-.42c-2.85.02-12.74-8.08-19.49-13.05-5.39-3.98-13.37-12.53-13.73-12.92,2.98.15,7.21.4,11.55.65,7.05.42,14.36.83,16.93.83,5.19,0,18.31-2.82,18.31-2.82v1.27l-6.93,6.34c1.86,1.67,3.91,3.52,6.23,5.42,2,1.63,4.19,3.3,6.59,4.92,2.42,1.64,5.05,3.24,7.94,4.71.52.27,1.04.52,1.58.78,0,0-3.73,1.64-6.86,2.72-.99.34-1.93.63-2.66.8-.5.11-1.13.19-1.86.25-1.29.11-2.9.13-4.72.13-3.41,0-7.56-.11-11.74-.04Z"/>
        <path class="cls-7" d="m187.55,50.62v.03c-1.44.03-3.04.16-4.84.38-1.43.19-2.73.59-3.89,1.16-1.07-3.01-5.96-8.58-5.96-8.58v-.24c2.52,0,5.26-.42,7.54-1.42l.06.15,5.85,8.09c.33.16.73.43,1.24.43Z"/>
        <path class="cls-4" d="m188.53,138.43c-1.04.61-2.04,1.19-2.99,1.73.67-4.34-6.89-13.37-10.47-17.38,1.82,0,3.43-.03,4.72-.13,2.81,3.02,8.36,11.52,8.75,15.79Z"/>
        <path class="cls-4" d="m175.07,122.78c3.58,4.02,11.14,13.05,10.47,17.38-2.01,1.15-3.78,2.11-5.07,2.8-1.41.76-2.27,1.2-2.27,1.2-.94-2.92-3.77-7.4-6.58-11.37-2.95-4.18-5.87-7.79-6.5-8.45-.67-.7-1.08-1.6-1.78-1.6h0c4.18-.08,8.33.03,11.74.03Z"/>
        <path class="cls-7" d="m180.47,92.4h0s-4.71,4.32-4.71,4.32v-5.77c1.4.6,3.18,1.13,4.71,1.45Z"/>
        <path class="cls-10" d="m178.2,144.17c-.57.29-2.03,1.12-3.13.86-1.1-.27-7.14-2.55-9.84-3.12-2.22-2.47-7.74-7.02-7.74-7.02l-.07-.29c4.66-1.15,11.43-2.56,14.2-1.79,2.81,3.97,5.64,8.45,6.58,11.37Z"/>
        <path class="cls-7" d="m154.67,83.83c.05-.03.1-.04.15-.06-.04-.04-.07-.08-.11-.12.56-2.71,1.23-5.57,1.9-8.24.25-.97.49-1.92.73-2.82l.14.04s8.1,8.28,13.76,8.07c.18.81.35,1.61.53,2.37.63,2.71,1.27,5.01,1.68,6.29.23.54,1.12,1.1,2.3,1.6v4.5s-13.13,2.82-18.31,2.82c-2.57,0-9.89-.42-16.93-.83l.02-.33s.35-.46.98-1.2c1.37-1.66,4.04-4.77,6.89-7.47,2.14-2.02,4.38-3.82,6.27-4.6Z"/>
        <path class="cls-7" d="m172.86,43.6s4.89,5.57,5.96,8.58c-5.89,2.85-8.38,9.93-8.98,14.77-.14,1.17-.14,2.54-.04,4.05h-.07c-3.27.16-10.79-3.85-10.79-3.85l-.09-.03c.34-1.16.64-2.08.84-2.68,2.08-6.05,2.48-8.07,3.68-12.27.48-1.67,1.11-3.31,1.76-4.76h0c.34-.75.66-1.44.97-2.05.77-1.52,1.4-2.57,1.59-2.79.02,0,.03,0,.04.02,1.35.49,3.16.76,5.11.77v.24Z"/>
        <path class="cls-10" d="m165.12,124.35c.64.65,3.55,4.27,6.5,8.45-2.76-.77-9.54.64-14.2,1.79-2.76.69-4.79,1.28-4.79,1.28.49-.63.99-1.27,1.49-1.93,2.54-3.26,5.14-6.72,6.48-8.65.39-.56.72-1,1.02-1.35h0c.28-.34.54-.59.77-.78.37-.29.67-.42.93-.42.71,0,1.11.9,1.78,1.6Z"/>
        <path class="cls-4" d="m171.26,80.7c-5.66.2-13.76-8.07-13.76-8.07l-.14-.04c.3-1.14.59-2.22.87-3.2l.12.04s5.75,5.04,12.01,6.4c.13.81.27,1.64.42,2.46.16.82.32,1.63.49,2.42Z"/>
        <path class="cls-4" d="m170.03,73.46c.1.77.2,1.56.33,2.36-6.26-1.36-12.01-6.4-12.01-6.4l-.12-.04c.23-.82.45-1.58.64-2.26l.09.03s7.52,4.01,10.79,3.86h.07c.04.78.12,1.61.22,2.45Z"/>
        <path class="cls-6" d="m167.7,42.58c-.19.22-.82,1.27-1.59,2.79l-1.77-1.01c-1.77-1.01-6.33-8.12-7.6-13.65,0,0-.77-2.48-1.55-5.14h0c-.74-2.47-1.51-5.11-1.71-6.05,0-.06-.03-.11-.04-.18l1.08-.2c.78,2.16,2.1,5.67,3.72,9.33,1.06,2.39,2.24,4.85,3.47,7.04,1.98,3.52,4.08,6.34,6,7.07Z"/>
        <path class="cls-6" d="m166.09,15.6c.17.38-.27.95-.99,1.25s-1.43.24-1.6-.15c-.17-.38.28-.95,1-1.25.72-.3,1.43-.24,1.59.15Z"/>
        <path class="cls-10" d="m164.35,44.36l1.77,1.01c-.31.61-.64,1.3-.97,2.04-1.1-3.89-29.88-22.87-45.66-30.98,9.02-2.85,21.35-.27,21.35-.27l14.35,9.42h0c.79,2.66,1.55,5.14,1.55,5.14,1.26,5.53,5.83,12.64,7.6,13.65Z"/>
        <path class="cls-7" d="m165.14,47.41h0c-.64,1.46-1.28,3.1-1.76,4.77-1.2,4.2-1.6,6.22-3.68,12.27-.2.6-.49,1.52-.84,2.68-.19.68-.42,1.44-.64,2.26-.27.98-.57,2.06-.87,3.2-.24.9-.49,1.85-.73,2.82-1.3-1.26-12.03-11.58-22.17-18.98-10.83-7.9-37.67-17.23-37.67-17.23,0,0,4.18-4.37,7.92-8.93,1.32-1.62,2.58-3.26,3.59-4.73,3.83-5.64,11.2-9.1,11.2-9.1,15.78,8.11,44.57,27.09,45.66,30.98Z"/>
        <path class="cls-10" d="m165.23,141.91c-2.71-.56-7.9.8-12.4,1.7-4.51.9-5.87-.57-5.15-1.7.34-.28,1.45-1.63,2.92-3.46,0,0,0,0,0,0,.62-.78,1.31-1.65,2.02-2.56,0,0,2.02-.59,4.79-1.28l.07.29s5.52,4.55,7.74,7.02Z"/>
        <path class="cls-5" d="m163.83,35.15l-2.13.36c-1.23-2.19-2.41-4.65-3.47-7.04l.72-.31s2.11-.9,2.41-.98l1.09-.1c.42,3.3,1.06,7.48,1.39,8.07Z"/>
        <path class="cls-4" d="m162.18,122.75l.22.42c-.23.19-.49.44-.77.78h0c-5.96,0-19.14-9.48-22.87-12.31-3.74-2.84-15.45-14.86-15.45-14.86.83-.09,1.44-.13,1.78-.14.54,0,1.94.04,3.89.15.36.39,8.34,8.94,13.73,12.92,6.75,4.96,16.63,13.07,19.49,13.05Z"/>
        <path class="cls-4" d="m161.63,123.95c-.3.35-.64.8-1.02,1.35-8.49,2.57-22.92-9.63-25.64-11.92-2.7-2.3-18.07-15.77-18.07-15.77,1.27-.19,2.48-.35,3.56-.49,1.1-.14,2.07-.26,2.84-.34,0,0,11.71,12.02,15.45,14.86,3.73,2.84,16.91,12.31,22.87,12.31Z"/>
        <path class="cls-6" d="m158.96,18.59c.27.33-.03.98-.64,1.47-.62.48-1.33.6-1.58.27-.26-.34.03-.99.64-1.48.62-.48,1.33-.6,1.58-.27Z"/>
        <path class="cls-7" d="m134.97,113.38c2.71,2.29,17.15,14.49,25.64,11.92-1.33,1.93-3.94,5.39-6.48,8.65-1.67.54-5.44-.31-8.42-1.15-2.34-.66-4.2-1.33-4.2-1.33-9.89-7.27-15.08-14.04-19.25-18.09-4.17-4.06-10.26-9.48-15.11-10.32-4.85-.85-7.77-1.39-7.77-1.39.36-.47,1.8-.98,3.83-1.51,3.61-.93,9.09-1.87,13.69-2.55,0,0,15.36,13.47,18.07,15.77Z"/>
        <path class="cls-9" d="m156.62,75.41c-.67,2.68-1.34,5.53-1.9,8.24-7.97-9-27.85-30.21-58.13-44.05l.19-.41s26.84,9.34,37.67,17.23c10.14,7.39,20.87,17.71,22.17,18.98Z"/>
        <path class="cls-9" d="m154.72,83.65c-.02.06-.03.12-.04.19-1.89.79-4.13,2.58-6.27,4.6-1.48-2.23-26.97-21.18-41.4-27.2-14.43-6.01-33.07-11.72-46.4-15.7.96-.67,1.84-1.63,2.35-2.19.62-.69,1.78-2.63,3.13-4.89,1.62-2.68,3.51-5.79,5.14-7.75,3.79.94,7.46,2.01,11.02,3.21,5.02,1.68,9.81,3.6,14.36,5.68,30.27,13.83,50.16,35.04,58.13,44.05Z"/>
        <path class="cls-4" d="m60.56,114.19c3.18.1,7.19,0,10.78-.42.37.45,12.21,14.85,18.22,19.02,6.65,4.6,18.14,8.66,27.34,8.89,9.2.22,24.73-5.37,28.81-8.89,2.98.84,6.75,1.69,8.42,1.15-.5.65-1.01,1.3-1.49,1.93-.72.91-1.4,1.78-2.02,2.56,0,0,0,0,0,0-2.86,1.55-12.94,5.95-27.3,9.56-9.03,2.27-17.79.19-25.48-2.92-4.54-1.85-8.7-4.05-12.33-5.95-4.3-2.25-9.63-6.28-14.43-10.45-5.7-4.95-10.67-10.1-12.41-12.76-.86-1.31-1.52-1.87-2.04-1.99,1.02.12,2.39.21,3.94.27Z"/>
        <path class="cls-9" d="m148.4,88.43c-2.85,2.7-5.52,5.81-6.89,7.47-1.73-2.02-31.65-20.31-44.73-25.54-13.08-5.22-36.77-7.85-53.52-10.56,1.46-.94,2.55-3.89,3.3-5.95.43-1.19,1.17-3.07,2.17-5.29,1.77-3.9,4.38-8.93,7.74-13.35-.09.21-1.14,2.93,0,8.27.74,3.45,2.54,3.14,4.12,2.04,13.33,3.98,31.97,9.69,46.4,15.7,14.43,6.02,39.93,24.96,41.4,27.2Z"/>
        <path class="cls-4" d="m141.51,131.47s1.86.66,4.2,1.33c-4.07,3.52-19.61,9.11-28.81,8.89-9.2-.23-20.69-4.28-27.34-8.89-6.02-4.17-17.85-18.57-18.22-19.02.89-.11,1.77-.25,2.59-.4.63-.11,1.42-.28,2.36-.48,2.2,2.2,9.71,11.65,14.82,15.49,5.74,4.32,15.28,8.13,23.15,9.19,10.71,1.44,21.77-2.24,27.25-6.11Z"/>
        <path class="cls-9" d="m128.97,96.78c-1.94-.11-3.35-.16-3.89-.15-.34,0-.95.05-1.78.14-.78.09-1.75.2-2.84.34h0c-8.12-9.85-25.26-15.43-38.87-20.39-13.6-4.96-33.98-7.67-59.4-10.96.94-.62,1.86-1.81,2.71-2.87,1.15-1.46,2.06-3.46,3.04-6.19.94-2.62,1.95-5.94,3.28-10.09,0,0,6.02,8.01,9.02,12.07,1.13,1.53,2.14,1.7,3.01,1.13,16.76,2.7,40.44,5.34,53.52,10.56,13.08,5.23,43,23.52,44.73,25.54-.63.74-.98,1.2-.98,1.2l-.02.33c-4.34-.26-8.57-.5-11.55-.65Z"/>
        <path class="cls-10" d="m141.51,131.47c-.6.27-2.47.23-4.94,0-6.51-.61-17.15-2.62-19.28-4.34-2.93-2.37-11.95-12.52-14.2-16.12-.79-1.26-1.53-2.56-2.14-3.79-1.12-2.27-1.8-4.32-1.58-5.55,0,0,2.92.54,7.77,1.39,4.85.84,10.95,6.25,15.11,10.32,4.17,4.05,9.36,10.82,19.25,18.09Z"/>
        <path class="cls-4" d="m136.57,131.47c2.46.23,4.34.27,4.94,0-5.49,3.87-16.55,7.55-27.25,6.11-7.87-1.06-17.41-4.87-23.15-9.19-5.11-3.84-12.62-13.29-14.82-15.49,1.15-.24,2.51-.54,3.98-.87,9.52,9.58,16.74,17.73,28.92,20.76,12.18,3.02,20.5,2.9,27.39-1.33Z"/>
        <path class="cls-7" d="m136.57,131.47c-6.89,4.22-15.21,4.35-27.39,1.33-12.18-3.03-19.4-11.18-28.92-20.76,8.45-1.88,20.7-4.81,20.7-4.81.61,1.23,1.35,2.53,2.14,3.79,2.25,3.6,11.27,13.75,14.2,16.12,2.13,1.71,12.76,3.73,19.28,4.34Z"/>
        <path class="cls-9" d="m120.46,97.11h0c-1.08.15-2.29.32-3.56.5-4.6.68-10.08,1.63-13.69,2.55l-.11-.43s-10.92-4.61-21.56-8.72c-2.34-.9-4.66-1.78-6.86-2.58-9.19-3.34-64.19-11.1-70.87-10.66,3.93-.88,11.91-9.55,13.13-19.26.08-.6.13-1.2.15-1.81,0,0,.15,1.53.6,3.93,1.32,5.57,2.93,6.17,4.51,5.13,25.41,3.3,45.79,6,59.4,10.96,13.6,4.96,30.75,10.54,38.87,20.38Z"/>
        <path class="cls-9" d="m104.68,30.26h0c-3.74,4.57-7.92,8.94-7.92,8.94l-1.43-10.79-.37-2.76c2.93-.11,9.71,4.61,9.71,4.61Z"/>
        <path class="cls-7" d="m71.34,113.78c-3.59.42-7.6.51-10.78.42-12.52-10.64-17.16-27.18-17.3-27.7,12.99,1.63,28.6,3.57,38.27,4.52,10.64,4.11,21.56,8.72,21.56,8.72l.11.43c-2.03.53-3.47,1.04-3.83,1.51-.22,1.23.46,3.28,1.58,5.55,0,0-12.25,2.93-20.7,4.81-1.47.33-2.83.63-3.98.87-.94.19-1.73.36-2.36.48-.82.15-1.7.28-2.59.4Z"/>
        <path class="cls-7" d="m95.35,28.41l1.43,10.79-.19.41c-4.56-2.08-9.35-4-14.36-5.68v-.02c2.83-3.72,6.65-4.77,12.75-5.44l.37-.05Z"/>
        <path class="cls-10" d="m97.83,145.08s-13.98.36-23.6.96c-9.63.61-14.73,4.89-18.59,5.19-1.8.14-4.02-1.17-6.31-2.74-.81-.55-5.49-17.54-7.21-19.73,1.41.09,3.98.25,7.07.38,6.93.29,16.53.47,21.88-.47,4.8,4.17,10.12,8.2,14.43,10.45,3.63,1.9,7.79,4.11,12.33,5.95Z"/>
        <path class="cls-9" d="m43.26,86.49c-1.5-.19-2.97-.37-4.38-.55h0c-1.91-.25-3.73-.47-5.43-.69-6.91-.86-11.85-1.46-12.67-1.48-.93-.02-1.6.26-2.16.75,0,0-.02,0-.03.02-.94.83-1.56,2.25-2.54,3.9-.28.48-.63,1-1.01,1.55l-.24-.17-12.26-1.25c2.94-.8.72-10.71.72-10.71.18,0,.36-.04.56-.09,6.68-.43,61.68,7.32,70.87,10.66,2.19.8,4.51,1.68,6.86,2.58-9.67-.95-25.28-2.89-38.27-4.52Z"/>
        <path class="cls-10" d="m58.66,115.92c1.74,2.66,6.71,7.81,12.41,12.76-5.35.94-14.95.76-21.88.47l.05-1.04c2.34-3.3,3.96-7.93,4.87-10.26.19-.49.35-.89.49-1.15.26-.49.57-2.18,1.37-2.66.13-.08.28-.12.44-.12l.21.03c.52.11,1.18.68,2.04,1.99Z"/>
        <path class="cls-9" d="m56.48,35.21s7.46,3.77,9.59,3.25c-1.35,2.25-2.51,4.2-3.13,4.89-.51.57-1.39,1.52-2.35,2.19-1.58,1.1-3.37,1.41-4.12-2.04-1.15-5.34-.1-8.06,0-8.27,0,0,0-.02,0-.02Z"/>
        <path class="cls-4" d="m60.56,114.19c-1.55-.05-2.92-.14-3.94-.27l-.21-.03c-.16,0-.31.04-.44.12-11.98-10.2-16.93-27.54-17.08-28.08,1.41.18,2.88.36,4.38.55.13.52,4.78,17.07,17.3,27.7Z"/>
        <path class="cls-4" d="m55.96,114.03c-.8.48-1.11,2.16-1.37,2.66-.13.26-.29.65-.49,1.15-7.63-5.2-18.6-25.7-20.67-32.58,1.7.22,3.52.44,5.43.68h0c.15.56,5.11,17.89,17.08,28.09Z"/>
        <path class="cls-4" d="m54.11,117.83c-.91,2.33-2.53,6.97-4.87,10.26-.73-.49-9.77-12.27-14.1-18.34-.96-1.37-1.7-2.45-2.05-3.04-.73-1.25-1.79-2.92-2.98-4.76-3.02-4.71-6.84-10.54-7.92-13.52-1.48-4.08-3.09-4.23-3.59-3.91.57-.49,1.24-.77,2.16-.75.82.03,5.76.63,12.67,1.48,2.07,6.88,13.04,27.38,20.67,32.58Z"/>
        <path class="cls-10" d="m49.24,128.1l-.05,1.04c-3.09-.13-5.65-.29-7.07-.38-.03-.03-.05-.06-.08-.09-1.65-1.73-5.87,3.08-9.55,11.96-1.63-1.15-2.74-3.43-3.08-4.66-.21-.77-.95-1.89-1.98-3.17-.61-.79-.72-13.22-1.17-19.89-.45-6.65-2.69-5.36-4.05-5.13,3.35-1.5,9.26.19,12.93,1.99,4.33,6.07,13.37,17.84,14.1,18.34Z"/>
        <path class="cls-9" d="m31.22,46.62s15.63,2.38,17.51,1.96c-1.01,2.23-1.74,4.1-2.17,5.29-.75,2.06-1.85,5.01-3.3,5.95-.87.57-1.88.4-3.01-1.13-3-4.05-9.02-12.07-9.02-12.07Z"/>
        <path class="cls-10" d="m42.12,128.76c1.72,2.19,6.4,19.19,7.21,19.73-2.6-1.78-5.27-3.88-7.51-4.56-2.63-.8-6.6-1.4-9.33-3.3,3.68-8.88,7.9-13.69,9.55-11.96.03.03.05.06.08.09Z"/>
        <path class="cls-10" d="m30.12,101.96h-.49s-13.37-.42-16.52-.28c-3.16.13-5.19.09-4.74-1.94.39-1.76,4.27-6.27,6.67-9.75.38-.55.72-1.07,1.01-1.55.98-1.64,1.61-3.07,2.54-3.9,0,0,.02,0,.03-.02.49-.32,2.1-.17,3.59,3.91,1.09,2.99,4.9,8.82,7.92,13.52Z"/>
        <path class="cls-9" d="m27.94,56.7c-.98,2.73-1.89,4.73-3.04,6.19-.85,1.06-1.78,2.25-2.71,2.87-1.57,1.03-3.19.43-4.51-5.13-.45-2.4-.6-3.93-.6-3.93,0,0,8.04,1.33,10.86,0Z"/>
        <path class="cls-10" d="m26.26,112.9c.45,6.68.57,19.11,1.17,19.89-3.4-4.23-9.98-10.23-11.25-11.26-1.66-1.35-3.31-1.95-2.56-3,.75-1.06,4.43-7,7.28-9.88.36-.37.8-.66,1.29-.88h.02c1.36-.23,3.6-1.52,4.05,5.13Z"/>
        <path class="cls-9" d="m16.43,58.46l.5.05c-1.22,9.71-9.2,18.37-13.13,19.26-.26.02-.45.04-.56.09,0,0,12.54-14.95,13.18-19.4Z"/>
      </g>
      <g>
        <path class="cls-2" d="m155.2,25.57c.79,2.66,1.55,5.14,1.55,5.14,1.26,5.53,5.83,12.64,7.6,13.65l1.77,1.01"/>
        <path class="cls-2" d="m182.86,40.49c-.72.57-1.55,1.06-2.46,1.45-2.28,1-5.03,1.43-7.54,1.42-1.95,0-3.76-.28-5.11-.77-.02,0-.03,0-.04-.02-1.92-.72-4.02-3.54-6-7.07-1.23-2.19-2.41-4.65-3.47-7.04-1.62-3.66-2.94-7.16-3.72-9.33,0-.98.3-2.33.75-2.41.9-.37,6.7-5.34,7.07-5.87.38-.52,2.03-.37,2.41,0,.37.38,12.79,9.81,16.46,12.61,1.74,1.33,7.37,7.52,12.84,11.69,1.91,1.46,3.79,2.67,5.48,3.34.54.21,1.12.45,1.75.7,6.91,2.79,18.23,7.53,19.67,7.42-.22-.79-.79-1.35-.79-1.35,0,0-15.44-14.2-22.7-21.1-1.49-1.42-2.63-2.53-3.23-3.14-3.5-3.6-11.95-12.17-15.23-15.11-3.27-2.93-8.63-6.03-12.62-5.3-3.81.69-11,6.93-12.13,9.75-1.29,3.25-1.3,6.55-.8,8.98,0,.06.03.11.04.18.2.95.97,3.58,1.71,6.05"/>
        <path class="cls-2" d="m180.47,42.09l5.85,8.09c.33.16.73.43,1.24.43.32,0,.69-.11,1.1-.43l5.34-14.97"/>
        <path class="cls-2" d="m218.77,19.72s-1.63,15.88-1.25,17.92c12.7,5.34,21.8,10.98,27.14,16.62,5.34,5.64,11.42,20.86,12.15,24.75"/>
        <path class="cls-2" d="m217.52,37.63c1.88-3.38,11.77-7.52,13.18-8.05"/>
        <path class="cls-2" d="m198.97,83.93c-.96-1.12-1.95-2.3-2.92-3.49-.95-1.17-1.9-2.37-2.77-3.54-2.82-3.75-5.04-7.32-5.37-9.65"/>
        <path class="cls-2" d="m232.78,88.98c-3.37-2.58-7.08-5.84-10.79-9.34-1.85-1.74-3.7-3.53-5.5-5.34-1.33-1.31-2.63-2.63-3.89-3.93-2.01-2.05-3.9-4.05-5.64-5.92-3.84-4.11-6.89-7.57-8.48-9.46-.49-.58-.84-1.02-1.03-1.27-1.24-1.67-3.43-2.74-7.06-3.01-.86-.07-1.8-.09-2.84-.06-1.44.03-3.04.16-4.84.38-1.43.19-2.73.59-3.89,1.16-5.89,2.85-8.38,9.93-8.98,14.77-.14,1.17-.14,2.54-.04,4.05.04.79.12,1.62.22,2.46.1.77.2,1.56.33,2.36.13.81.27,1.64.42,2.46.16.82.32,1.63.49,2.42.18.81.35,1.61.53,2.37.63,2.71,1.27,5.01,1.68,6.29.23.54,1.12,1.1,2.3,1.6,1.4.6,3.18,1.13,4.71,1.45,1,.21,1.88.34,2.46.34.92,0,4.45-.11,8.43-.34,2.54-.15,5.26-.34,7.61-.59,2.23-.24,4.11-.52,5.17-.85.36-.11.63-.23.78-.35-1.25-1.38-2.99-3.28-4.87-5.43-.36-.41-.72-.81-1.08-1.24"/>
        <path class="cls-2" d="m170.04,73.46c4.78,2.14,16.99,5.64,23.23,3.44"/>
        <path class="cls-2" d="m171.07,78.22c4.17,1.56,20.19,3.99,24.97,2.22l.08-.03"/>
        <path class="cls-2" d="m172.1,82.98c3.61,1.02,23.72,2.4,26.86.95h0"/>
        <path class="cls-2" d="m200.05,85.17c6.18,2.99,19.42,9.75,28.75,12.31,9.32,2.55,33.66,8.92,39.99,11.57"/>
        <path class="cls-2" d="m258.64,125.96c-2.43.61-4.99,1.1-7.29,1.29-.58.05-1.19,0-1.85-.11-2.39-.47-5.16-2-7.87-3.92-2.4-1.7-4.75-3.71-6.71-5.55-2.61-2.43-4.54-4.56-5.07-5.3"/>
        <path class="cls-2" d="m252.4,82.98s.05.03.15.08c.71.39,3.69,2.13,4.92,4.64,1.4,2.86,11.32,17.6,11.32,18.5,0,.24.06,1.33.13,2.84.06,1.23.13,2.74.19,4.28.05,1.48.09,2.99.08,4.33,0,2.16-.11,3.89-.4,4.33-.12.19-.42.41-.84.66-1.63.96-5.3,2.31-9.3,3.31"/>
        <path class="cls-2" d="m267.95,122.65c-2.95-2.65-14.5-6.83-23.22-8.78-6.43-1.44-11.48-1.57-14.89-1.61-1.21,0-2.22,0-3.01-.04-1.7-.09-5.58-1.22-9.32-2.52-2.91-1.01-5.72-2.11-7.37-2.9-1.57-.75-3.28-2.75-4.94-5.12-.19-.27-.38-.54-.57-.82-1.18-1.76-2.33-3.67-3.38-5.41-.83-1.37-1.6-2.63-2.29-3.65l-17.32,21.6"/>
        <path class="cls-2" d="m241.63,123.21s5.22-2.16,17.01,2.75h0"/>
        <path class="cls-2" d="m204.14,90.95s4.73.13,5.52.85c.14.12.16.46.08.93-.14.95-.64,2.46-1.19,3.88-.7,1.84-1.47,3.54-1.65,3.81-.4.56-2.25.44-2.25.44"/>
        <path class="cls-2" d="m209.79,92.74s4.73,3.16,9.01,5.3c4.28,2.15,19.62,5.38,26.05,7.09,6.33,1.68,22.11,7.1,24.26,8.2.04.03.06.04.09.05"/>
        <path class="cls-2" d="m208.62,96.63s4.73,3.15,9.01,5.3c4.28,2.14,19.62,5.37,26.05,7.08,6.41,1.7,23.68,7.64,25.5,8.64h0"/>
        <path class="cls-2" d="m229.88,57.79c.58.88,1.08,1.72,1.44,2.47.44.91,1.01,2.04,1.64,3.3.17.33.34.66.5,1.01,2.7,5.42,6.23,12.74,6.64,16.49"/>
        <path class="cls-2" d="m220.94,46.62s.27.3.74.83c1.02,1.15,2.93,3.35,4.84,5.76,1.18,1.51,2.38,3.1,3.33,4.56"/>
        <path class="cls-2" d="m221.99,79.65s14.3,1.24,18.04,1.92c.03,0,.05,0,.08.02,1.23.23,2.81.53,4.48.81,1.39.24,2.82.45,4.14.59,1.51.16,2.87.22,3.83.08.17-.02.33-.04.47-.08.24-.09.46-.19.67-.3,1.43-.74,2.43-2.04,3.11-3.67h0c1.5-3.62,1.42-8.85.9-13.24-.79-6.67-2.03-13.26-2.93-16.22-.89-2.96-3.55-8.07-7.33-13.82-3.77-5.75-9.87-6.09-16.74-6.15-1.3-3.44-6.66-6.59-10.04-8.96-.55-.38-1.19-.68-1.88-.91-3.59-1.17-8.66-.48-10.41-.05-2.08.51-10.92,4.5-10.92,4.5"/>
        <path class="cls-2" d="m226.51,53.21h0c.37.16,9.51,4.11,13.59,8.52,7.22,7.78,13.41,19.75,13.59,20.95"/>
        <path class="cls-2" d="m229.85,57.76l.03.03c.58.46,9.98,7.89,12.61,11.49,2.7,3.72,6.07,12.4,6.25,13.7"/>
        <path class="cls-2" d="m233.46,64.57c3.89,1.98,10.4,11.18,11.12,17.82.02.1.03.19.04.29"/>
        <path class="cls-2" d="m216.48,74.3s12.63-9.76,14.56-9.76c.06,0,.11,0,.16.04"/>
        <path class="cls-2" d="m212.6,70.37s10.79-13.04,12.74-13.94"/>
        <line class="cls-2" x1="210.9" y1="61.24" x2="221.68" y2="47.45"/>
        <path class="cls-2" d="m208.62,45.54s-2.44,12.5-1.66,18.91"/>
        <path class="cls-2" d="m165.14,47.41c-1.1-3.89-29.88-22.87-45.66-30.98,9.02-2.85,21.35-.27,21.35-.27l14.35,9.42h0"/>
        <path class="cls-2" d="m167.76,42.53h0s-.03.02-.05.04c-.19.22-.82,1.27-1.59,2.79-.31.61-.64,1.3-.97,2.04h0c-.64,1.46-1.28,3.1-1.76,4.77-1.2,4.2-1.6,6.22-3.68,12.27-.2.6-.49,1.52-.84,2.68-.19.68-.42,1.44-.64,2.26-.27.98-.57,2.06-.87,3.2-.24.9-.49,1.85-.73,2.82-.67,2.68-1.34,5.53-1.9,8.24-.02.06-.03.12-.04.19-.88,4.3-1.48,8.23-1.37,10.49"/>
        <path class="cls-2" d="m167.75,42.6s0-.04,0-.05"/>
        <path class="cls-2" d="m119.48,16.43s-7.37,3.46-11.2,9.1c-1.01,1.48-2.27,3.12-3.59,4.73-3.74,4.56-7.92,8.93-7.92,8.93,0,0,26.84,9.34,37.67,17.23,10.14,7.39,20.87,17.71,22.17,18.98.09.08.13.12.13.12"/>
        <path class="cls-2" d="m104.68,30.26s-6.78-4.73-9.71-4.61l.37,2.76,1.43,10.79"/>
        <path class="cls-2" d="m94.98,28.46c-6.1.67-9.92,1.72-12.74,5.44"/>
        <path class="cls-2" d="m56.48,35.21s0,0,0,.02c-3.36,4.42-5.97,9.44-7.74,13.35-1.01,2.23-1.74,4.1-2.17,5.29-.75,2.06-1.85,5.01-3.3,5.95-.87.57-1.88.4-3.01-1.13-3-4.05-9.02-12.07-9.02-12.07-1.33,4.15-2.34,7.46-3.28,10.09-.98,2.73-1.89,4.73-3.04,6.19-.85,1.06-1.78,2.25-2.71,2.87-1.57,1.03-3.19.43-4.51-5.13-.45-2.4-.6-3.93-.6-3.93-.02.61-.07,1.21-.15,1.81-1.22,9.71-9.2,18.37-13.13,19.26-.19.05-.38.08-.56.09.11-.04.3-.07.56-.09,6.68-.43,61.68,7.32,70.87,10.66,2.19.8,4.51,1.68,6.86,2.58,10.64,4.11,21.56,8.72,21.56,8.72"/>
        <path class="cls-2" d="m154.82,83.77s-.07-.08-.11-.12c-7.97-9-27.85-30.21-58.13-44.05-4.56-2.08-9.35-4-14.36-5.68-3.56-1.19-7.23-2.27-11.02-3.21-1.63,1.96-3.52,5.07-5.14,7.75-1.35,2.25-2.51,4.2-3.13,4.89-.51.57-1.39,1.52-2.35,2.19-1.58,1.1-3.37,1.41-4.12-2.04-1.15-5.34-.1-8.06,0-8.27"/>
        <path class="cls-2" d="m60.59,45.54c13.33,3.98,31.97,9.69,46.4,15.7,14.43,6.02,39.93,24.96,41.4,27.2"/>
        <path class="cls-2" d="m140.53,97.11s.35-.46.98-1.2c1.37-1.66,4.04-4.77,6.89-7.47,2.14-2.02,4.38-3.82,6.27-4.6.05-.03.1-.04.15-.06"/>
        <path class="cls-2" d="m43.25,59.81c16.76,2.7,40.44,5.34,53.52,10.56,13.08,5.23,43,23.52,44.73,25.54"/>
        <path class="cls-2" d="m22.19,65.77c25.41,3.3,45.79,6,59.4,10.96,13.6,4.96,30.75,10.54,38.87,20.38"/>
        <path class="cls-2" d="m180.47,92.41l-4.71,4.31-6.93,6.34c1.86,1.67,3.91,3.52,6.23,5.42,2,1.63,4.19,3.3,6.59,4.92,2.42,1.64,5.05,3.24,7.94,4.71.52.27,1.04.52,1.58.78,2.74,1.32,5.69,2.51,8.88,3.52,2.19.7,4.49,1.31,6.91,1.81,2.18.45,4.46.82,6.84,1.09.88.11,1.78.19,2.69.27,1.58.12,3.21.2,4.88.23,1.5.03,3.05.02,4.64-.04.18,0,.34,0,.52-.02,1.57-.06,3.18-.16,4.82-.31,1.02-.1,2.04-.2,3.08-.33-.04-1.39-.04-2.54,0-3.49.11-2.98.49-3.95.49-3.95"/>
        <line class="cls-2" x1="175.07" y1="108.47" x2="191.36" y2="92.39"/>
        <line class="cls-2" x1="189.59" y1="118.11" x2="201.26" y2="95.45"/>
        <line class="cls-2" x1="205.21" y1="101.68" x2="200.05" y2="122.4"/>
        <line class="cls-2" x1="216.48" y1="125.56" x2="217.52" y2="109.7"/>
        <line class="cls-2" x1="226.51" y1="125.56" x2="226.84" y2="112.22"/>
        <path class="cls-2" d="m234.43,121.61h0c3.09,3.5,8.44,7.64,15.07,5.53t.02,0"/>
        <polyline class="cls-2" points="213.8 125.3 220.94 133.95 233.46 149.12 238.19 145.35 221.36 125.79"/>
        <polyline class="cls-2" points="238.19 145.35 241.97 149.12 246.42 145.35 238.51 137.75 226 125.76"/>
        <polyline class="cls-2" points="238.51 137.75 241.63 134.8 231.34 125.43 231.2 125.3"/>
        <path class="cls-2" d="m150.6,138.44c-1.48,1.84-2.59,3.18-2.92,3.46-.72,1.13.64,2.6,5.15,1.7,4.51-.9,9.69-2.25,12.4-1.7,2.7.57,8.74,2.85,9.84,3.12,1.1.27,2.56-.57,3.13-.86"/>
        <path class="cls-2" d="m161.63,123.95c-.3.35-.64.8-1.02,1.35-1.33,1.93-3.94,5.39-6.48,8.65-.5.65-1.01,1.3-1.49,1.93-.72.91-1.4,1.78-2.02,2.56"/>
        <path class="cls-2" d="m210.15,106.8l-3.19,17.41c-1.9,3.36-8.07,7.81-14.21,11.66-1.42.89-2.84,1.76-4.21,2.56-1.04.61-2.04,1.19-2.99,1.73-2.01,1.15-3.78,2.11-5.07,2.8-1.41.76-2.27,1.2-2.27,1.2-.94-2.92-3.77-7.4-6.58-11.37-2.95-4.18-5.87-7.79-6.5-8.45-.67-.7-1.08-1.6-1.78-1.6-.26,0-.56.12-.93.42-.23.19-.49.44-.77.78"/>
        <path class="cls-2" d="m180.47,142.97s8.04,3.68,10.89,1.2,9.86-6.24,15.6-6.95,13.98-3.27,13.98-3.27"/>
        <path class="cls-2" d="m163.31,122.75h.02c4.18-.07,8.33.04,11.74.04,1.82,0,3.43-.03,4.72-.13.73-.05,1.36-.13,1.86-.25.73-.17,1.67-.45,2.66-.8,3.14-1.08,6.86-2.72,6.86-2.72"/>
        <path class="cls-2" d="m184.31,121.61c2.12,1.93,7.42,9.46,8.44,14.27"/>
        <path class="cls-2" d="m179.79,122.65c2.81,3.02,8.36,11.52,8.75,15.79"/>
        <path class="cls-2" d="m175.07,122.78c3.58,4.02,11.14,13.05,10.47,17.38"/>
        <polyline class="cls-2" points="175.76 90.95 175.76 95.45 175.76 96.72"/>
        <path class="cls-2" d="m175.76,95.45s-13.13,2.82-18.31,2.82c-2.57,0-9.89-.42-16.93-.83-4.34-.26-8.57-.5-11.55-.65-1.94-.11-3.35-.16-3.89-.15-.34,0-.95.05-1.78.14-.78.09-1.75.2-2.84.34-1.08.14-2.29.31-3.56.49-4.6.68-10.08,1.63-13.69,2.55-2.03.53-3.47,1.04-3.83,1.51-.22,1.23.46,3.28,1.58,5.55.61,1.23,1.35,2.53,2.14,3.79,2.25,3.6,11.27,13.75,14.2,16.12,2.13,1.71,12.76,3.73,19.28,4.34,2.46.23,4.34.27,4.94,0-9.89-7.27-15.08-14.04-19.25-18.09-4.17-4.06-10.26-9.48-15.11-10.32-4.85-.85-7.77-1.39-7.77-1.39"/>
        <path class="cls-2" d="m141.51,131.47s1.86.66,4.2,1.33c2.98.84,6.75,1.69,8.42,1.15"/>
        <path class="cls-2" d="m128.96,96.77s0,0,0,0c.36.39,8.34,8.94,13.73,12.92,6.75,4.96,16.63,13.07,19.49,13.05"/>
        <path class="cls-2" d="m116.9,97.61s15.36,13.47,18.07,15.77c2.71,2.29,17.15,14.49,25.64,11.92"/>
        <path class="cls-2" d="m123.31,96.77s11.71,12.02,15.45,14.86c3.73,2.84,16.91,12.31,22.87,12.31h0"/>
        <path class="cls-2" d="m18.58,84.54c-.94.83-1.56,2.25-2.54,3.9-.28.48-.63,1-1.01,1.55-2.4,3.48-6.28,7.99-6.67,9.75-.45,2.03,1.58,2.08,4.74,1.94,3.15-.14,16.52.29,16.52.29"/>
        <path class="cls-2" d="m38.87,85.93c-1.91-.24-3.73-.46-5.43-.68-6.91-.86-11.85-1.46-12.67-1.48-.93-.02-1.6.26-2.16.75"/>
        <path class="cls-2" d="m81.53,91.01c-9.67-.95-25.28-2.89-38.27-4.52-1.5-.19-2.97-.37-4.38-.55"/>
        <path class="cls-2" d="m56.62,113.93c.52.11,1.18.68,2.04,1.99,1.74,2.66,6.71,7.81,12.41,12.76,4.8,4.17,10.12,8.2,14.43,10.45,3.63,1.9,7.79,4.11,12.33,5.95,7.69,3.12,16.45,5.19,25.48,2.92,14.35-3.61,24.43-8,27.3-9.56,0,0,0,0,0,0"/>
        <path class="cls-2" d="m18.58,84.54s.02,0,.03-.02c.49-.32,2.1-.17,3.59,3.91,1.09,2.99,4.9,8.82,7.92,13.52,1.18,1.84,2.24,3.51,2.98,4.76.34.59,1.09,1.67,2.05,3.04,4.33,6.07,13.37,17.84,14.1,18.34,2.34-3.3,3.96-7.93,4.87-10.26.19-.49.35-.89.49-1.15.26-.49.57-2.18,1.37-2.66.13-.08.28-.12.44-.12"/>
        <path class="cls-2" d="m100.96,107.22s-12.25,2.93-20.7,4.81c-1.47.33-2.83.63-3.98.87-.94.19-1.73.36-2.36.48-.82.15-1.7.28-2.59.4-3.59.42-7.6.51-10.78.42-1.55-.05-2.92-.14-3.94-.27l-.21-.03"/>
        <path class="cls-2" d="m80.26,112.04c9.52,9.58,16.74,17.73,28.92,20.76,12.18,3.02,20.5,2.9,27.39-1.33"/>
        <path class="cls-2" d="m76.28,112.9c2.2,2.2,9.71,11.65,14.82,15.49,5.74,4.32,15.28,8.13,23.15,9.19,10.71,1.44,21.77-2.24,27.25-6.11"/>
        <path class="cls-2" d="m71.33,113.77h0c.37.46,12.21,14.86,18.22,19.03,6.65,4.6,18.14,8.66,27.34,8.89,9.2.22,24.73-5.37,28.81-8.89"/>
        <path class="cls-2" d="m33.44,85.25c2.07,6.88,13.04,27.38,20.67,32.58"/>
        <path class="cls-2" d="m38.87,85.93h0c.15.56,5.11,17.89,17.08,28.09"/>
        <path class="cls-2" d="m43.25,86.48h0c.13.53,4.78,17.08,17.3,27.71,0,0,.03.02.04.03"/>
        <path class="cls-2" d="m22.19,107.77c-.49.22-.93.51-1.29.88-2.85,2.88-6.53,8.82-7.28,9.88-.75,1.05.9,1.65,2.56,3,1.26,1.03,7.84,7.03,11.25,11.26,1.03,1.28,1.77,2.4,1.98,3.17.34,1.24,1.45,3.52,3.08,4.66,2.73,1.91,6.7,2.51,9.33,3.3,2.23.68,4.91,2.78,7.51,4.56,2.29,1.57,4.51,2.88,6.31,2.74,3.85-.3,8.96-4.58,18.59-5.19,9.62-.6,23.6-.96,23.6-.96"/>
        <path class="cls-2" d="m35.14,109.76c-3.67-1.79-9.58-3.49-12.93-1.99"/>
        <path class="cls-2" d="m32.49,140.63c3.68-8.88,7.9-13.69,9.55-11.96.03.03.05.06.08.09,1.72,2.19,6.4,19.19,7.21,19.73"/>
        <path class="cls-2" d="m40.91,128.67s.43.04,1.21.09c1.41.09,3.98.25,7.07.38,6.93.29,16.53.47,21.88-.47"/>
        <path class="cls-2" d="m22.19,107.77h.02c1.36-.23,3.6-1.52,4.05,5.13.45,6.68.57,19.11,1.17,19.89"/>
        <path class="cls-2" d="m157.49,134.88s5.52,4.55,7.74,7.02"/>
        <path class="cls-2" d="m152.63,135.87s2.02-.59,4.79-1.28c4.66-1.15,11.43-2.56,14.2-1.79"/>
        <path class="cls-2" d="m162.07,23.47c.04.68.19,2.04.38,3.61.42,3.3,1.06,7.48,1.39,8.07.02.04.03.05.04.06.45.35,3.37-.21,3.88-.66"/>
        <line class="cls-2" x1="167.76" y1="31.17" x2="169.74" y2="33.61"/>
        <path class="cls-2" d="m169.46,38.5s1.22.15,1.79-.87"/>
        <path class="cls-2" d="m168.75,24.33s3.37-1.43,4.12-1.5"/>
        <path class="cls-2" d="m158.95,28.16s2.11-.9,2.41-.98"/>
        <path class="cls-2" d="m166.09,15.6c.17.38-.27.95-.99,1.25s-1.43.24-1.6-.15c-.17-.38.28-.95,1-1.25.72-.3,1.43-.24,1.59.15Z"/>
        <path class="cls-2" d="m158.96,18.59c.27.33-.03.98-.64,1.47-.62.48-1.33.6-1.58.27-.26-.34.03-.99.64-1.48.62-.48,1.33-.6,1.58-.27Z"/>
        <path class="cls-2" d="m172.86,43.6s4.89,5.57,5.96,8.58"/>
        <path class="cls-2" d="m190.39,50.71l10.87-11.51s-2.57,12.71-2.78,15.79"/>
        <path class="cls-2" d="m158.95,67.15s7.52,4.01,10.79,3.86"/>
        <path class="cls-2" d="m157.49,72.62s8.1,8.28,13.76,8.07"/>
        <path class="cls-2" d="m158.34,69.42s5.75,5.04,12.01,6.4"/>
        <path class="cls-2" d="m2.53,88.57c2.94-.8.72-10.71.72-10.71,0,0,12.54-14.95,13.18-19.4"/>
        <path class="cls-2" d="m2.53,88.57l-1.31-.13c.52.2.95.24,1.31.13Z"/>
        <line class="cls-2" x1="14.79" y1="89.81" x2="2.53" y2="88.57"/>
        <path class="cls-2" d="m17.09,56.7s8.04,1.33,10.86,0"/>
        <path class="cls-2" d="m31.22,46.62s15.63,2.38,17.51,1.96"/>
        <path class="cls-2" d="m56.48,35.21s7.46,3.77,9.59,3.25"/>
      </g>
    </g>
  </g>
</svg>