<?xml version="1.0" encoding="UTF-8"?>
<svg xmlns="http://www.w3.org/2000/svg" xmlns:xlink="http://www.w3.org/1999/xlink" viewBox="0 0 273.5 199.49">
  <defs>
    <style>
      .cls-1 {
        stroke-miterlimit: 10;
      }

      .cls-1, .cls-2, .cls-3 {
        fill: none;
      }

      .cls-1, .cls-3 {
        stroke: #000;
      }

      .cls-4 {
        fill: #f3edd7;
      }

      .cls-4, .cls-2, .cls-5, .cls-6, .cls-7, .cls-8, .cls-9, .cls-10, .cls-11 {
        stroke-width: 0px;
      }

      .cls-3 {
        stroke-linecap: round;
        stroke-linejoin: round;
      }

      .cls-5 {
        fill: #f8dd8c;
      }

      .cls-6 {
        fill: #faead1;
      }

      .cls-7 {
        fill: #333;
      }

      .cls-12 {
        clip-path: url(#clippath);
      }

      .cls-8 {
        fill: #d2d296;
      }

      .cls-9 {
        fill: #fef1d1;
      }

      .cls-10 {
        fill: #fe462e;
      }

      .cls-11 {
        fill: #d7b5b6;
      }
    </style>
    <clipPath id="clippath">
      <rect class="cls-2" x="1.32" width="262.54" height="163.88"/>
    </clipPath>
  </defs>
  <g id="_畳" data-name="畳">
    <g>
      <g>
        <rect class="cls-4" x="3.37" y="164.85" width="3.62" height="5.03"/>
        <path class="cls-4" d="m273.25,192.43v6.56h-30.45l15.35-8.63c1.03,1.62,3.11,2.72,5.51,2.72s4.62-1.18,5.62-2.88l3.97,2.23Z"/>
        <path class="cls-4" d="m273.25,181.87v10.56l-3.97-2.23c.38-.65.59-1.38.59-2.14,0-1.3-.62-2.48-1.62-3.38l4.99-2.8Z"/>
        <path class="cls-4" d="m273.25,169.88v11.99l-4.99,2.8c-1.14-1.01-2.77-1.64-4.59-1.64s-3.31.58-4.44,1.51l-26.09-14.67h40.12Z"/>
        <polygon class="cls-4" points="273.25 102.1 273.25 107.86 4.26 107.86 3.37 107.86 3.37 102.1 273.25 102.1"/>
        <rect class="cls-4" x="269.26" y="164.85" width="3.99" height="5.03"/>
        <path class="cls-4" d="m269.87,188.05c0,.76-.21,1.49-.59,2.14l-5.42-3.05,4.39-2.47c1,.89,1.62,2.08,1.62,3.38Z"/>
        <path class="cls-4" d="m263.87,187.15l5.42,3.05c-1,1.7-3.13,2.88-5.62,2.88s-4.48-1.1-5.51-2.72l5.71-3.21Z"/>
        <rect class="cls-7" x="257.95" y="164.85" width="11.31" height="5.03"/>
        <path class="cls-4" d="m268.26,184.67l-4.39,2.47-4.64-2.6c1.13-.93,2.7-1.51,4.44-1.51,1.82,0,3.46.63,4.59,1.64Z"/>
        <path class="cls-4" d="m263.87,187.15l-5.71,3.21c-.44-.69-.69-1.48-.69-2.31,0-1.37.68-2.6,1.77-3.51l4.64,2.6Z"/>
        <path class="cls-4" d="m233.14,169.88l26.09,14.67c-1.09.9-1.77,2.14-1.77,3.51,0,.83.25,1.62.69,2.31l-15.35,8.63h-41.48l-15.65-8.8c.38-.65.59-1.38.59-2.14,0-1.3-.62-2.48-1.62-3.37l26.34-14.8h22.15Zm-5.97,18.17c0-2.77-2.25-5.02-5.02-5.02s-5.03,2.25-5.03,5.02,2.25,5.03,5.03,5.03,5.02-2.25,5.02-5.03Z"/>
        <polygon class="cls-4" points="257.95 169.88 233.14 169.88 227.43 169.88 227.43 164.85 257.95 164.85 257.95 169.88"/>
        <rect class="cls-7" x="216.13" y="164.85" width="11.31" height="5.03"/>
        <path class="cls-7" d="m222.15,183.03c2.77,0,5.02,2.25,5.02,5.02s-2.25,5.03-5.02,5.03-5.03-2.25-5.03-5.03,2.25-5.02,5.03-5.02Z"/>
        <path class="cls-4" d="m210.99,169.88l-26.34,14.8c-1.14-1.02-2.77-1.65-4.59-1.65s-3.31.58-4.44,1.51l-26.09-14.67h61.46Z"/>
        <polygon class="cls-4" points="185.61 169.88 185.61 164.85 216.13 164.85 216.13 169.88 210.99 169.88 185.61 169.88"/>
        <path class="cls-4" d="m201.32,198.99h-42.13l15.35-8.63c1.03,1.62,3.12,2.72,5.51,2.72s4.62-1.18,5.62-2.88l15.65,8.8Z"/>
        <path class="cls-4" d="m186.27,188.05c0,.76-.21,1.49-.59,2.14l-5.42-3.05,4.39-2.47c1,.89,1.62,2.07,1.62,3.37Z"/>
        <path class="cls-4" d="m180.26,187.15l5.42,3.05c-1,1.7-3.13,2.88-5.62,2.88s-4.48-1.1-5.51-2.72l5.71-3.21Z"/>
        <rect class="cls-7" x="174.3" y="164.85" width="11.31" height="5.03"/>
        <path class="cls-4" d="m180.06,183.03c1.82,0,3.46.63,4.59,1.65l-4.39,2.47-4.64-2.6c1.13-.93,2.7-1.51,4.44-1.51Z"/>
        <path class="cls-4" d="m180.26,187.15l-5.71,3.21c-.44-.69-.69-1.48-.69-2.31,0-1.37.68-2.6,1.77-3.51l4.64,2.6Z"/>
        <path class="cls-4" d="m149.53,169.88l26.09,14.67c-1.09.9-1.77,2.14-1.77,3.51,0,.83.25,1.62.69,2.31l-15.35,8.63h-41.48l-15.65-8.8c.38-.65.59-1.38.59-2.14,0-1.3-.62-2.48-1.62-3.37l26.34-14.8h22.15Zm-7.02,18.17c0-2.77-2.25-5.02-5.02-5.02s-5.03,2.25-5.03,5.02,2.25,5.03,5.03,5.03,5.02-2.25,5.02-5.03Z"/>
        <polygon class="cls-4" points="174.3 169.88 149.53 169.88 143.78 169.88 143.78 164.85 174.3 164.85 174.3 169.88"/>
        <rect class="cls-7" x="132.47" y="164.85" width="11.31" height="5.03"/>
        <path class="cls-7" d="m137.49,183.03c2.77,0,5.02,2.25,5.02,5.02s-2.25,5.03-5.02,5.03-5.03-2.25-5.03-5.03,2.25-5.02,5.03-5.02Z"/>
        <path class="cls-4" d="m127.38,169.88l-26.34,14.8c-1.14-1.02-2.77-1.65-4.59-1.65s-3.31.58-4.44,1.51l-26.09-14.67h61.46Z"/>
        <polygon class="cls-4" points="132.47 169.88 127.38 169.88 101.95 169.88 101.95 164.85 132.47 164.85 132.47 169.88"/>
        <path class="cls-4" d="m117.71,198.99h-42.13l15.35-8.63c1.03,1.62,3.11,2.72,5.51,2.72s4.62-1.18,5.62-2.88l15.65,8.8Z"/>
        <path class="cls-4" d="m102.66,188.05c0,.76-.21,1.49-.59,2.14l-5.42-3.05,4.39-2.47c1,.89,1.62,2.07,1.62,3.37Z"/>
        <path class="cls-4" d="m96.65,187.15l5.42,3.05c-1,1.7-3.13,2.88-5.62,2.88s-4.48-1.1-5.51-2.72l5.71-3.21Z"/>
        <rect class="cls-7" x="90.65" y="164.85" width="11.31" height="5.03"/>
        <path class="cls-4" d="m96.45,183.03c1.82,0,3.46.63,4.59,1.65l-4.39,2.47-4.64-2.6c1.13-.93,2.7-1.51,4.44-1.51Z"/>
        <path class="cls-4" d="m96.65,187.15l-5.71,3.21c-.44-.69-.69-1.48-.69-2.31,0-1.37.68-2.6,1.77-3.51l4.64,2.6Z"/>
        <path class="cls-4" d="m65.92,169.88l26.09,14.67c-1.09.9-1.77,2.14-1.77,3.51,0,.83.25,1.62.69,2.31l-15.35,8.63h-41.67l-15.65-8.8c.38-.65.59-1.38.59-2.14,0-1.3-.62-2.48-1.62-3.37l26.34-14.8h22.34Zm-8.53,18.17c0-2.77-2.25-5.02-5.02-5.02s-5.03,2.25-5.03,5.02,2.25,5.03,5.03,5.03,5.02-2.25,5.02-5.03Z"/>
        <polygon class="cls-4" points="90.65 169.88 65.92 169.88 60.13 169.88 60.13 164.85 90.65 164.85 90.65 169.88"/>
        <rect class="cls-7" x="48.82" y="164.85" width="11.31" height="5.03"/>
        <path class="cls-7" d="m52.37,183.03c2.77,0,5.02,2.25,5.02,5.02s-2.25,5.03-5.02,5.03-5.03-2.25-5.03-5.03,2.25-5.02,5.03-5.02Z"/>
        <polygon class="cls-4" points="48.82 169.88 43.58 169.88 18.3 169.88 18.3 164.85 48.82 164.85 48.82 169.88"/>
        <path class="cls-4" d="m33.91,198.99H3.37v-6.52l3.76-2.11c1.03,1.62,3.12,2.72,5.51,2.72s4.62-1.18,5.62-2.88l15.65,8.8Z"/>
        <path class="cls-4" d="m18.86,188.05c0,.76-.21,1.49-.59,2.14l-5.42-3.05,4.39-2.47c1,.89,1.62,2.07,1.62,3.37Z"/>
        <rect class="cls-7" x="7" y="164.85" width="11.31" height="5.03"/>
        <path class="cls-4" d="m12.85,187.15l5.42,3.05c-1,1.7-3.13,2.88-5.62,2.88s-4.48-1.1-5.51-2.72l5.71-3.21Z"/>
        <path class="cls-4" d="m12.65,183.03c1.82,0,3.46.63,4.59,1.65l-4.39,2.47-4.64-2.6c1.13-.93,2.7-1.51,4.44-1.51Z"/>
        <path class="cls-4" d="m12.85,187.15l-5.71,3.21c-.44-.69-.69-1.48-.69-2.31,0-1.37.68-2.6,1.77-3.51l4.64,2.6Z"/>
        <path class="cls-4" d="m3.37,181.83l4.84,2.72c-1.09.9-1.77,2.14-1.77,3.51,0,.83.25,1.62.69,2.31l-3.76,2.11v-10.65Z"/>
        <polygon class="cls-8" points="216.13 164.85 185.61 164.85 174.3 164.85 143.78 164.85 132.47 164.85 101.95 164.85 90.65 164.85 60.13 164.85 48.82 164.85 18.3 164.85 7 164.85 3.37 164.85 3.37 107.86 4.26 107.86 273.25 107.86 273.25 164.85 269.26 164.85 257.95 164.85 227.43 164.85 216.13 164.85"/>
        <path class="cls-4" d="m3.37,169.88h40.2l-26.34,14.8c-1.14-1.02-2.77-1.65-4.59-1.65s-3.31.58-4.44,1.51l-4.84-2.72v-11.95Z"/>
      </g>
      <g>
        <polyline class="cls-1" points="273.25 198.99 242.8 198.99 201.32 198.99 159.19 198.99 117.71 198.99 75.58 198.99 33.91 198.99 3.37 198.99"/>
        <line class="cls-1" x1="3.37" y1="102.1" x2="273.25" y2="102.1"/>
        <line class="cls-1" x1="3.37" y1="107.86" x2="273.25" y2="107.86"/>
        <line class="cls-1" x1="269.26" y1="164.85" x2="273.25" y2="164.85"/>
        <line class="cls-1" x1="227.43" y1="164.85" x2="257.95" y2="164.85"/>
        <line class="cls-1" x1="185.61" y1="164.85" x2="216.13" y2="164.85"/>
        <line class="cls-1" x1="143.78" y1="164.85" x2="174.3" y2="164.85"/>
        <line class="cls-1" x1="101.95" y1="164.85" x2="132.47" y2="164.85"/>
        <line class="cls-1" x1="60.13" y1="164.85" x2="90.65" y2="164.85"/>
        <line class="cls-1" x1="18.3" y1="164.85" x2="48.82" y2="164.85"/>
        <line class="cls-1" x1="3.37" y1="164.85" x2="7" y2="164.85"/>
        <line class="cls-1" x1="269.26" y1="169.88" x2="273.25" y2="169.88"/>
        <polyline class="cls-1" points="227.43 169.88 233.14 169.88 257.95 169.88"/>
        <polyline class="cls-1" points="185.61 169.88 210.99 169.88 216.13 169.88"/>
        <polyline class="cls-1" points="143.78 169.88 149.53 169.88 174.3 169.88"/>
        <polyline class="cls-1" points="101.95 169.88 127.38 169.88 132.47 169.88"/>
        <polyline class="cls-1" points="60.13 169.88 65.92 169.88 90.65 169.88"/>
        <polyline class="cls-1" points="18.3 169.88 43.58 169.88 48.82 169.88"/>
        <line class="cls-1" x1="3.37" y1="169.88" x2="7" y2="169.88"/>
        <polyline class="cls-1" points="75.58 198.99 90.93 190.36 96.65 187.15 101.04 184.68 127.38 169.88"/>
        <polyline class="cls-1" points="117.71 198.99 102.07 190.2 96.65 187.15 92.01 184.54 65.92 169.88"/>
        <path class="cls-1" d="m142.51,188.05c0,2.78-2.25,5.03-5.02,5.03s-5.03-2.25-5.03-5.03,2.25-5.02,5.03-5.02,5.02,2.25,5.02,5.02Z"/>
        <path class="cls-1" d="m227.17,188.05c0,2.78-2.25,5.03-5.02,5.03s-5.03-2.25-5.03-5.03,2.25-5.02,5.03-5.02,5.02,2.25,5.02,5.02Z"/>
        <path class="cls-1" d="m101.04,184.68c1,.89,1.62,2.07,1.62,3.37,0,.76-.21,1.49-.59,2.14-1,1.7-3.13,2.88-5.62,2.88s-4.48-1.1-5.51-2.72c-.44-.69-.69-1.48-.69-2.31,0-1.37.68-2.6,1.77-3.51,1.13-.93,2.7-1.51,4.44-1.51,1.82,0,3.46.63,4.59,1.65Z"/>
        <polyline class="cls-1" points="3.37 192.47 7.13 190.36 12.85 187.15 17.24 184.68 43.58 169.88"/>
        <polyline class="cls-1" points="33.91 198.99 18.27 190.2 12.85 187.15 8.21 184.54 3.37 181.83"/>
        <path class="cls-1" d="m17.24,184.68c1,.89,1.62,2.07,1.62,3.37,0,.76-.21,1.49-.59,2.14-1,1.7-3.13,2.88-5.62,2.88s-4.48-1.1-5.51-2.72c-.44-.69-.69-1.48-.69-2.31,0-1.37.68-2.6,1.77-3.51,1.13-.93,2.7-1.51,4.44-1.51,1.82,0,3.46.63,4.59,1.65Z"/>
        <polyline class="cls-1" points="159.19 198.99 174.54 190.36 180.26 187.15 184.65 184.68 210.99 169.88"/>
        <polyline class="cls-1" points="201.32 198.99 185.67 190.2 180.26 187.15 175.62 184.54 149.53 169.88"/>
        <path class="cls-1" d="m184.65,184.68c1,.89,1.62,2.07,1.62,3.37,0,.76-.21,1.49-.59,2.14-1,1.7-3.13,2.88-5.62,2.88s-4.48-1.1-5.51-2.72c-.44-.69-.69-1.48-.69-2.31,0-1.37.68-2.6,1.77-3.51,1.13-.93,2.7-1.51,4.44-1.51,1.82,0,3.46.63,4.59,1.65Z"/>
        <polyline class="cls-1" points="242.8 198.99 258.15 190.36 263.87 187.15 268.26 184.67 273.25 181.87"/>
        <polyline class="cls-1" points="273.25 192.43 269.28 190.2 263.87 187.15 259.23 184.54 233.14 169.88"/>
        <path class="cls-1" d="m268.26,184.67c1,.89,1.62,2.08,1.62,3.38,0,.76-.21,1.49-.59,2.14-1,1.7-3.13,2.88-5.62,2.88s-4.48-1.1-5.51-2.72c-.44-.69-.69-1.48-.69-2.31,0-1.37.68-2.6,1.77-3.51,1.13-.93,2.7-1.51,4.44-1.51,1.82,0,3.46.63,4.59,1.64Z"/>
        <path class="cls-1" d="m57.39,188.05c0,2.78-2.25,5.03-5.02,5.03s-5.03-2.25-5.03-5.03,2.25-5.02,5.03-5.02,5.02,2.25,5.02,5.02Z"/>
        <rect class="cls-1" x="7" y="164.85" width="11.31" height="5.03"/>
        <rect class="cls-1" x="48.82" y="164.85" width="11.31" height="5.03"/>
        <rect class="cls-1" x="90.65" y="164.85" width="11.31" height="5.03"/>
        <rect class="cls-1" x="132.47" y="164.85" width="11.31" height="5.03"/>
        <rect class="cls-1" x="174.3" y="164.85" width="11.31" height="5.03"/>
        <rect class="cls-1" x="216.13" y="164.85" width="11.31" height="5.03"/>
        <rect class="cls-1" x="257.95" y="164.85" width="11.31" height="5.03"/>
      </g>
    </g>
  </g>
  <g id="_レイヤー_2" data-name="レイヤー 2">
    <g class="cls-12">
      <g>
        <g>
          <path class="cls-9" d="m14.33,78.38c-1.57,1.03-3.18.42-4.51-5.13-.45-2.4-.6-3.94-.6-3.94,5.27-.68,9.45-2.37,12.54-5.04-1.74,5.48-2.95,9-4.72,11.23-.84,1.07-1.77,2.27-2.71,2.87Z"/>
          <path class="cls-10" d="m222.91,42.19c6.88.06,12.97.4,16.75,6.15s6.43,10.86,7.33,13.82c.89,2.96,2.14,9.55,2.93,16.22.51,4.38.59,9.61-.9,13.23-.74-3.91-6.82-19.12-12.15-24.75-5.34-5.65-14.44-11.28-27.15-16.62,1.87-3.38,11.77-7.52,13.18-8.05Z"/>
          <path class="cls-10" d="m233.86,135.85s5.21-2.16,17.02,2.74c-2.44.62-5,1.1-7.31,1.3-.58.05-1.2,0-1.85-.11-2.38-.46-5.15-2-7.86-3.91h0Z"/>
          <path class="cls-10" d="m233.86,135.86c2.71,1.92,5.49,3.46,7.86,3.91-6.64,2.11-11.98-2.03-15.08-5.52.1-2.81.44-3.84.49-3.95,1.97,1.84,4.32,3.85,6.72,5.56Z"/>
          <path class="cls-5" d="m225.68,77.19c3.89,1.97,10.4,11.19,11.13,17.82-1.67-.28-3.25-.59-4.48-.82-.03,0-.05,0-.08-.02l.08-.49c-.42-3.76-3.95-11.08-6.65-16.5Z"/>
          <path class="cls-11" d="m223.26,77.16l1.91-.97c.17.33.34.66.51,1.01,2.7,5.42,6.23,12.74,6.65,16.5l-.08.49c-3.74-.67-18.04-1.91-18.04-1.91h0c-1.85-1.74-3.69-3.54-5.51-5.35,0,0,12.64-9.76,14.57-9.76Z"/>
          <path class="cls-5" d="m222.06,124.99c.53.74,2.47,2.88,5.07,5.31-.04.11-.39,1.14-.49,3.95-.04.95-.05,2.1,0,3.49-1.04.12-2.06.23-3.08.33-1.64.14-3.25.25-4.82.31v-.19s.32-13.35.32-13.35c.79.04,1.79.04,3,.04v.11Z"/>
          <path class="cls-10" d="m236.95,126.5c8.73,1.95,20.28,6.13,23.23,8.78-1.63.96-5.3,2.31-9.31,3.3-11.81-4.9-17.02-2.74-17.02-2.74h0c-2.4-1.7-4.75-3.71-6.72-5.55-2.6-2.43-4.54-4.57-5.07-5.31v-.11c3.4.04,8.45.17,14.89,1.62Z"/>
          <path class="cls-5" d="m234.7,81.9c2.71,3.72,6.08,12.41,6.26,13.71-1.32-.14-2.76-.35-4.14-.59-.72-6.64-7.24-15.85-11.13-17.82-.18-.34-.34-.68-.51-1.01-.63-1.26-1.2-2.39-1.64-3.3-.37-.75-.87-1.59-1.45-2.48.47.36,9.99,7.87,12.62,11.51Z"/>
          <path class="cls-5" d="m218.73,65.82s9.42,4.02,13.6,8.53c7.22,7.78,13.41,19.76,13.59,20.96-.21.11-.43.21-.67.3-.14.04-.3.06-.47.08-.95.14-2.32.08-3.83-.08-.18-1.3-3.54-9.99-6.26-13.71-2.63-3.63-12.15-11.14-12.62-11.51,0-.02-.02-.03-.02-.03-.96-1.46-2.15-3.05-3.33-4.55Z"/>
          <path class="cls-9" d="m230.73,150.4l-12.52-12c.18,0,.35,0,.53-.02,1.57-.06,3.18-.17,4.82-.31l10.29,9.38-3.13,2.95Z"/>
          <path class="cls-9" d="m213.57,138.43c1.5.03,3.05.02,4.63-.04l12.52,12,7.92,7.59-4.45,3.78-3.78-3.78-16.83-19.56Z"/>
          <path class="cls-11" d="m199.17,77.07c1.73,1.86,3.63,3.87,5.64,5.92,1.25,1.3,2.55,2.62,3.88,3.93,1.81,1.8,3.66,3.61,5.51,5.36h0s14.31,1.23,18.04,1.9c.03,0,.05,0,.08.02,1.23.23,2.81.54,4.48.82,1.39.24,2.83.45,4.14.59,1.51.16,2.87.22,3.83.08.71.39,3.69,2.13,4.92,4.64,1.39,2.85,11.32,17.59,11.32,18.5,0,.24.06,1.33.13,2.85h-.13c-6.34-2.64-30.68-9.01-40.01-11.58-9.32-2.55-22.56-9.32-28.75-12.31-.35-.41-.72-.81-1.08-1.24-.96-1.12-1.95-2.3-2.93-3.49-.96-1.18-1.91-2.37-2.79-3.54-6.24,2.2-18.45-1.3-23.24-3.44-.1-.85-.18-1.67-.23-2.46-.09-1.51-.09-2.9.05-4.06.59-4.84,3.08-11.91,8.97-14.78,1.16-.57,2.45-.97,3.89-1.16,1.79-.22,3.4-.35,4.84-.38,1.03-.03,1.98,0,2.85.06,3.62.27,5.81,1.34,7.05,3.01.19.26.55.7,1.03,1.28,1.6,1.89,4.66,5.35,8.49,9.46Z"/>
          <path class="cls-10" d="m236.88,66.86c5.33,5.63,11.41,20.84,12.15,24.75-.67,1.64-1.68,2.95-3.11,3.69-.18-1.2-6.37-13.18-13.59-20.96-4.18-4.51-13.6-8.53-13.6-8.53-1.9-2.41-3.82-4.61-4.83-5.76-.47-.53-.74-.83-.74-.83-.23-.79-.8-1.35-.8-1.35,0,0-15.45-14.2-22.71-21.11,0,0,8.84-3.99,10.92-4.5,1.76-.43,6.83-1.13,10.42.04h0s-1.63,15.9-1.25,17.93c12.71,5.34,21.81,10.98,27.15,16.62Z"/>
          <path class="cls-5" d="m209.73,122.33c3.75,1.29,7.64,2.42,9.32,2.51l-.33,13.35v.19c-.17,0-.34.02-.52.02-1.58.05-3.13.06-4.63.04-1.68-.03-3.3-.11-4.89-.23h0s1.04-15.87,1.04-15.87Z"/>
          <path class="cls-10" d="m222.91,42.19c-1.41.53-11.3,4.67-13.18,8.05-.38-2.03,1.25-17.92,1.25-17.92h0c.7.22,1.33.52,1.88.9,3.38,2.37,8.74,5.53,10.04,8.97Z"/>
          <path class="cls-9" d="m208.69,138.2c1.58.12,3.21.2,4.89.23l16.83,19.56-4.73,3.78-12.53-15.18-7.14-8.64c.87.1,1.77.19,2.68.26Z"/>
          <path class="cls-10" d="m177.74,152.8c.95-.54,1.95-1.12,2.99-1.72,1.37-.81,2.8-1.68,4.22-2.57,6.14-3.84,12.31-8.31,14.22-11.66,2.18.45,4.45.82,6.84,1.09h0s7.14,8.65,7.14,8.65c0,0-8.24,2.55-13.98,3.27-5.74.72-12.76,4.47-15.61,6.95-2.85,2.48-10.9-1.19-10.9-1.19,1.3-.7,3.07-1.66,5.08-2.81Z"/>
          <path class="cls-5" d="m202.36,119.43c1.64.79,4.46,1.89,7.37,2.9l-1.04,15.86h0c-.91-.06-1.8-.15-2.68-.25h0c-2.39-.27-4.66-.65-6.84-1.1l3.19-17.42Z"/>
          <path class="cls-5" d="m202.36,119.43l-3.19,17.42c-2.42-.5-4.72-1.11-6.91-1.81l5.16-20.73c1.66,2.38,3.37,4.37,4.94,5.13Z"/>
          <path class="cls-5" d="m202,105.36s4.72,3.16,9,5.3c4.29,2.15,19.64,5.38,26.06,7.09,6.34,1.69,22.15,7.11,24.27,8.21.05,1.48.09,2.99.08,4.33-1.77-.99-19.09-6.94-25.52-8.64-6.42-1.71-21.77-4.95-26.06-7.1-4.29-2.14-9-5.3-9-5.3l-.07-.03c.55-1.42,1.05-2.93,1.19-3.87h.04Z"/>
          <path class="cls-11" d="m176.51,134.24c3.15-1.09,6.86-2.72,6.86-2.72,2.74,1.32,5.7,2.51,8.89,3.52,2.19.7,4.49,1.31,6.91,1.81-1.91,3.35-8.08,7.81-14.22,11.66-1.02-4.8-6.33-12.35-8.44-14.26Z"/>
          <path class="cls-5" d="m209.84,114.55c4.29,2.15,19.64,5.38,26.06,7.1,6.43,1.71,23.75,7.65,25.52,8.64,0,2.17-.11,3.89-.4,4.33-.12.19-.42.41-.84.66-2.95-2.65-14.5-6.83-23.23-8.78-6.44-1.45-11.49-1.58-14.89-1.62-1.21,0-2.22,0-3-.04-1.69-.09-5.58-1.22-9.32-2.51-2.91-1.01-5.73-2.11-7.37-2.9-1.57-.76-3.28-2.75-4.94-5.13-.19-.27-.37-.54-.56-.82.15,0,1.86.09,2.24-.45.19-.27.95-1.97,1.65-3.81l.07.03s4.72,3.16,9,5.3Z"/>
          <path class="cls-5" d="m183.37,131.52c-.54-.26-1.06-.51-1.58-.78l11.67-22.67c1.06,1.74,2.21,3.65,3.39,5.41h0c.19.28.37.56.56.82l-5.16,20.73c-3.19-1.01-6.15-2.2-8.89-3.52Z"/>
          <path class="cls-10" d="m201.87,104.43c.14.12.16.46.09.93-.14.95-.65,2.45-1.19,3.87-.7,1.84-1.47,3.54-1.65,3.81-.38.54-2.09.46-2.24.45h0c-1.18-1.76-2.33-3.67-3.39-5.41-.83-1.37-1.6-2.63-2.28-3.65,2.22-.24,4.1-.52,5.16-.86h.02c.33,0,4.75.16,5.51.86Z"/>
          <path class="cls-11" d="m204.81,82.99c-2.01-2.05-3.91-4.06-5.64-5.92-3.84-4.11-6.89-7.56-8.49-9.46h0c.2-3.09,2.77-15.81,2.77-15.81,6.92,2.78,18.24,7.53,19.69,7.42,0,0,.27.3.74.83,1.02,1.15,2.93,3.35,4.83,5.76,1.18,1.5,2.37,3.09,3.33,4.55,0,0,0,0,.02.03.58.89,1.08,1.73,1.45,2.48.44.91,1.02,2.04,1.64,3.3l-1.91.97c-1.94,0-14.57,9.76-14.57,9.76-1.33-1.32-2.62-2.63-3.88-3.93Z"/>
          <path class="cls-5" d="m192.26,97.79c6.19,2.99,19.42,9.76,28.75,12.31,9.33,2.56,33.67,8.93,40.01,11.59h.13c.06,1.22.13,2.73.19,4.28-2.12-1.1-17.93-6.52-24.27-8.21-6.42-1.71-21.77-4.94-26.06-7.09-4.29-2.14-9-5.3-9-5.3h-.04c.07-.48.05-.81-.09-.94-.76-.7-5.18-.85-5.51-.86.35-.11.62-.22.77-.34-1.25-1.38-2.99-3.28-4.87-5.43Z"/>
          <path class="cls-5" d="m181.79,130.74c-2.89-1.47-5.52-3.07-7.94-4.71l17.34-21.61c.68,1.02,1.45,2.28,2.28,3.65l-11.67,22.67Z"/>
          <path class="cls-5" d="m191.18,104.43l-17.34,21.61c-2.39-1.63-4.59-3.3-6.58-4.93l16.3-16.08c2.54-.15,5.27-.34,7.62-.59Z"/>
          <path class="cls-11" d="m182.59,63.32l10.87-11.51s-2.57,12.72-2.77,15.8h0c-.49-.57-.84-1.02-1.03-1.27-1.24-1.67-3.43-2.74-7.05-3.01Z"/>
          <path class="cls-5" d="m171.99,135.29c.72-.05,1.35-.13,1.86-.25.74-.17,1.68-.45,2.67-.8,2.11,1.92,7.42,9.46,8.44,14.26-1.42.89-2.85,1.76-4.22,2.57-.38-4.27-5.94-12.77-8.74-15.79Z"/>
          <path class="cls-11" d="m182.59,63.32c-.87-.07-1.81-.09-2.85-.06v-.03c.33,0,.69-.11,1.1-.43l5.35-14.98.04-.04c1.91,1.45,3.79,2.66,5.48,3.33.54.21,1.13.45,1.75.7l-10.87,11.51Z"/>
          <path class="cls-5" d="m171.99,135.29c2.8,3.02,8.36,11.52,8.74,15.79-1.03.6-2.04,1.18-2.99,1.72.66-4.35-6.89-13.36-10.48-17.38,1.82,0,3.44-.03,4.73-.13Z"/>
          <path class="cls-5" d="m172.66,105.03c1,.21,1.88.34,2.47.34.92,0,4.44-.11,8.43-.34l-16.3,16.08c-2.32-1.9-4.37-3.75-6.23-5.42l6.92-6.34h0s4.71-4.32,4.71-4.32Z"/>
          <path class="cls-11" d="m172.66,105.03l-4.71,4.31v-5.77c1.4.61,3.18,1.14,4.71,1.46Z"/>
          <path class="cls-11" d="m172.6,54.55l.06.15,5.86,8.09c.32.16.72.43,1.23.43v.03c-1.44.03-3.05.16-4.84.38-1.44.19-2.73.59-3.89,1.16h0c-1.06-3.02-5.96-8.58-5.96-8.58v-.24c2.52,0,5.27-.42,7.55-1.42Z"/>
          <path class="cls-5" d="m175.13,105.36c-.59,0-1.48-.12-2.47-.34-1.53-.32-3.31-.85-4.71-1.46-1.18-.49-2.07-1.05-2.3-1.59-.42-1.28-1.05-3.59-1.68-6.3l.32-.07c3.62,1.02,23.76,2.4,26.89.95.36.42.72.83,1.08,1.24,1.88,2.16,3.61,4.06,4.87,5.43-.15.12-.42.24-.77.34h-.02c-1.06.34-2.94.62-5.16.86-2.35.25-5.08.44-7.62.59-3.99.23-7.51.34-8.43.34Z"/>
          <path class="cls-5" d="m163.26,90.85c4.19,1.56,20.23,3.99,25,2.22.97,1.19,1.96,2.37,2.93,3.49-3.13,1.46-23.27.07-26.89-.95l-.32.07c-.18-.76-.35-1.56-.52-2.37-.17-.79-.34-1.6-.49-2.41l.29-.05Z"/>
          <path class="cls-5" d="m162.22,86.08c4.79,2.14,17,5.64,23.24,3.44.88,1.18,1.83,2.37,2.79,3.54-4.77,1.78-20.81-.65-25-2.22l-.29.05c-.15-.82-.29-1.64-.42-2.46-.12-.8-.23-1.59-.33-2.36Z"/>
          <path class="cls-10" d="m157.42,154.55c-2.22-2.48-7.73-7.03-7.73-7.03l-.07-.29c4.66-1.15,11.43-2.56,14.2-1.79,2.8,3.98,5.66,8.46,6.58,11.37-.57.3-2.03,1.13-3.14.87-1.1-.27-7.13-2.55-9.84-3.12Z"/>
          <path class="cls-5" d="m151.14,79.77s7.52,4.01,10.79,3.86h.06c.05.78.13,1.6.23,2.45.1.77.2,1.56.33,2.36-6.27-1.36-12.03-6.39-12.03-6.39h0c.23-.86.43-1.62.62-2.28Z"/>
          <path class="cls-7" d="m157.28,29.46c-.72.3-1.42.24-1.59-.15-.17-.38.27-.95.99-1.25s1.43-.24,1.6.14c.17.39-.28.95-1,1.26Z"/>
          <path class="cls-5" d="m177.74,152.8c-2.01,1.15-3.78,2.11-5.08,2.81-1.41.76-2.26,1.19-2.26,1.19-.93-2.92-3.78-7.4-6.58-11.37-2.95-4.17-5.87-7.79-6.5-8.45-.68-.69-1.09-1.59-1.79-1.59v-.02c4.18-.06,8.33.04,11.74.04,3.59,4.02,11.14,13.03,10.48,17.38Z"/>
          <path class="cls-10" d="m158.11,59.42c-1.05-3.87-30.66-22.27-46.45-30.39,9.02-2.86,21.21-1.5,21.21-1.5l17.13,12.57c2.81,6.52,6.63,13.87,9.91,15.08-.2.27-1.08,1.94-1.79,4.23h0Z"/>
          <path class="cls-5" d="m163.45,93.31c-5.67.21-13.77-8.07-13.77-8.07.3-1.15.58-2.22.84-3.19,0,0,5.76,5.03,12.03,6.39.12.81.27,1.63.42,2.46.15.81.32,1.63.49,2.41Z"/>
          <path class="cls-10" d="m157.42,154.55c-2.7-.57-7.89.8-12.41,1.7-4.51.9-5.87-.57-5.14-1.7.33-.28,1.45-1.63,2.93-3.46,0,0,0,0,0,0,.62-.79,1.31-1.65,2.02-2.57,0,0,2.02-.59,4.79-1.28l.07.29s5.51,4.55,7.73,7.03Z"/>
          <path class="cls-7" d="m148.93,32.92c-.27-.33.03-.99.64-1.47s1.32-.6,1.58-.27c.26.34-.03.99-.65,1.48-.61.48-1.32.6-1.57.27Z"/>
          <path class="cls-6" d="m155.97,29.23c.17.39.87.45,1.59.15.72-.31,1.17-.87,1-1.26-.17-.38-.88-.45-1.6-.14s-1.16.87-.99,1.25Zm-6.76,3.61c.26.34.96.21,1.57-.27.62-.49.9-1.14.65-1.48-.27-.33-.97-.2-1.58.27s-.9,1.14-.64,1.47Zm.2,5.15c-1.03-2.52-1.87-4.77-2.43-6.34,0-.97.3-2.33.75-2.4.9-.38,6.69-5.34,7.07-5.87.37-.52,2.03-.37,2.4,0s12.8,9.8,16.47,12.61c1.74,1.33,7.37,7.52,12.83,11.7l-.04.04-5.35,14.98c-.42.33-.78.43-1.1.43-.5,0-.91-.27-1.23-.43l-5.86-8.09-.06-.15c-2.28,1-5.03,1.43-7.55,1.42-1.95,0-3.76-.28-5.11-.77,0-.03,0-.04,0-.05,0,0-.02,0-.04.04-3.28-1.22-7.1-8.56-9.91-15.08-.29-.69-.58-1.36-.86-2.02h0Z"/>
          <path class="cls-7" d="m189.64,36.76c7.26,6.91,22.71,21.11,22.71,21.11,0,0,.57.57.8,1.35-1.45.11-12.77-4.64-19.69-7.42-.62-.25-1.21-.49-1.75-.7-1.69-.67-3.57-1.88-5.48-3.33-5.46-4.18-11.09-10.37-12.83-11.7-3.67-2.81-16.09-12.23-16.47-12.61s-2.03-.52-2.4,0c-.38.53-6.17,5.49-7.07,5.87-.45.07-.75,1.43-.75,2.4.56,1.56,1.41,3.82,2.43,6.34-.18-.24-3.06-4.05-3.47-5.95-.54-2.46-.57-5.84.76-9.16,1.12-2.82,8.32-9.07,12.12-9.76,4-.73,9.37,2.37,12.64,5.3,3.27,2.93,11.74,11.51,15.23,15.12.6.62,1.74,1.72,3.23,3.15Z"/>
          <path class="cls-10" d="m149.61,147.22c-2.77.69-4.79,1.28-4.79,1.28.49-.62.99-1.26,1.49-1.92,2.53-3.26,5.13-6.72,6.48-8.65.39-.56.72-1,1.03-1.35h0c.28-.34.54-.59.77-.78.36-.3.66-.42.92-.42.71,0,1.11.9,1.79,1.59.64.65,3.55,4.28,6.5,8.45-2.77-.77-9.54.65-14.2,1.79Z"/>
          <path class="cls-5" d="m83.28,141.03c5.74,4.32,15.29,8.13,23.15,9.19,10.72,1.45,21.78-2.24,27.26-6.11,0,0,1.86.66,4.19,1.33-4.08,3.52-19.61,9.11-28.8,8.89-9.2-.23-20.7-4.29-27.35-8.9-6.03-4.17-17.87-18.58-18.24-19.03.89-.11,1.77-.25,2.59-.4.63-.11,1.43-.27,2.37-.48,2.19,2.21,9.71,11.66,14.83,15.5Z"/>
          <path class="cls-11" d="m149.64,110.9c-2.57,0-9.89-.42-16.94-.83l.02-.33s.35-.46.97-1.2c1.38-1.66,4.04-4.77,6.9-7.48,2.18-2.08,4.49-3.91,6.42-4.67.58-2.71,1.27-5.58,1.94-8.24.26-1.01.5-1.98.74-2.91,0,0,8.09,8.28,13.77,8.07.17.81.34,1.61.52,2.37.63,2.71,1.26,5.02,1.68,6.3.23.54,1.12,1.1,2.3,1.59v4.51s-13.12,2.82-18.31,2.82Z"/>
          <path class="cls-9" d="m88.76,52.2c30.41,13.91,50.35,35.26,58.24,44.19-1.93.76-4.23,2.59-6.42,4.67-1.48-2.24-26.98-21.19-41.42-27.21-14.44-6.02-33.09-11.73-46.42-15.7.96-.67,1.84-1.63,2.35-2.19,1.03-1.14,3.51-5.73,5.96-9.45.8-1.2,1.58-2.32,2.32-3.19,3.79.94,7.46,2.01,11.02,3.21,5.02,1.68,9.81,3.6,14.37,5.67Z"/>
          <path class="cls-11" d="m132.7,110.07c7.05.42,14.37.83,16.94.83,5.19,0,18.31-2.82,18.31-2.82v1.26h0s-6.92,6.34-6.92,6.34c1.86,1.67,3.91,3.52,6.23,5.42,2,1.63,4.19,3.3,6.58,4.93,2.42,1.64,5.05,3.24,7.94,4.71.52.27,1.04.52,1.58.78,0,0-3.71,1.63-6.86,2.72-.99.34-1.93.63-2.67.8-.5.11-1.13.19-1.86.25-1.29.11-2.91.13-4.73.13-3.41,0-7.56-.11-11.74-.04v.02c-.26,0-.56.11-.92.42l-.22-.43c-2.85.02-12.74-8.08-19.49-13.04-5.51-4.06-13.74-12.93-13.74-12.93,2.98.15,7.22.41,11.56.66Z"/>
          <path class="cls-11" d="m72.41,124.67c8.45-1.88,20.71-4.82,20.71-4.82.61,1.23,1.34,2.52,2.13,3.78,2.26,3.61,11.28,13.77,14.22,16.14,2.13,1.71,12.76,3.73,19.27,4.34-6.89,4.22-15.21,4.35-27.39,1.32-12.19-3.02-19.41-11.19-28.94-20.76Z"/>
          <path class="cls-5" d="m153.82,136.58c-5.96,0-19.15-9.48-22.89-12.32-3.73-2.84-15.45-14.86-15.45-14.86h0c.83-.09,1.44-.14,1.78-.15.54,0,1.94.04,3.88.15,0,0,8.23,8.86,13.74,12.93,6.75,4.97,16.64,13.06,19.49,13.04l.22.43c-.23.19-.49.44-.77.78h0Z"/>
          <path class="cls-5" d="m72.41,124.67c9.53,9.57,16.75,17.74,28.94,20.76,12.19,3.03,20.5,2.91,27.39-1.32,2.47.23,4.34.27,4.94,0-5.48,3.87-16.54,7.56-27.26,6.11-7.86-1.06-17.42-4.87-23.15-9.19-5.12-3.84-12.64-13.29-14.83-15.5,1.15-.24,2.5-.53,3.97-.86Z"/>
          <path class="cls-5" d="m130.93,124.27c3.74,2.84,16.92,12.32,22.89,12.32-.3.35-.64.8-1.03,1.35-8.49,2.56-22.94-9.63-25.64-11.93-2.7-2.29-18.07-15.77-18.07-15.77,1.27-.19,2.47-.35,3.55-.49,1.1-.15,2.08-.27,2.85-.35h0s11.72,12.04,15.45,14.87Z"/>
          <path class="cls-11" d="m111.66,29.03c15.79,8.12,45.4,26.52,46.45,30.39h0c.72-2.3,1.59-3.96,1.79-4.23,0,0,.03.02.04.02,1.35.49,3.15.76,5.11.77v.24s4.9,5.56,5.96,8.57h0c-5.89,2.87-8.38,9.94-8.97,14.78-.14,1.16-.14,2.55-.05,4.06h-.06c-3.27.16-10.79-3.85-10.79-3.85-.19.66-.39,1.42-.62,2.27h0c-.26.98-.54,2.05-.84,3.2-.24.93-.49,1.9-.74,2.91,0,0-11.49-11.21-22.32-19.11-10.83-7.9-37.67-17.24-37.67-17.24,0,0,4.19-4.38,7.91-8.94,1.33-1.62,2.6-3.25,3.6-4.73,3.84-5.65,11.21-9.1,11.21-9.1Z"/>
          <path class="cls-11" d="m99.32,115.69c-4.85-.84-7.79-1.38-7.79-1.38.37-.47,1.83-.99,3.89-1.52,3.61-.93,9.07-1.87,13.65-2.55,0,0,15.37,13.48,18.07,15.77,2.7,2.3,17.15,14.49,25.64,11.93-1.34,1.93-3.95,5.39-6.48,8.65-1.67.54-5.45-.31-8.44-1.15-2.33-.66-4.19-1.33-4.19-1.33-9.89-7.27-15.08-14.04-19.25-18.11-4.18-4.06-10.27-9.47-15.12-10.32Z"/>
          <path class="cls-10" d="m91.54,114.31s2.93.54,7.79,1.38c4.85.85,10.94,6.27,15.12,10.32,4.17,4.06,9.36,10.83,19.25,18.11-.6.27-2.47.23-4.94,0-6.51-.61-17.14-2.62-19.27-4.34-2.93-2.37-11.96-12.52-14.22-16.14-.79-1.26-1.52-2.55-2.13-3.78-1.12-2.27-1.81-4.32-1.59-5.55Z"/>
          <path class="cls-9" d="m96.86,42.86c-3.72,4.56-7.91,8.94-7.91,8.94l-1.44-10.79-.37-2.77c2.93-.11,9.72,4.62,9.72,4.62Z"/>
          <path class="cls-9" d="m147.01,96.39c-7.89-8.93-27.84-30.28-58.24-44.19l.19-.4s26.85,9.34,37.67,17.24c10.83,7.89,22.32,19.11,22.32,19.11-.66,2.67-1.35,5.53-1.94,8.24Z"/>
          <path class="cls-11" d="m88.95,51.8l-.19.4c-4.56-2.08-9.35-3.99-14.37-5.67v-.02c2.83-3.72,6.65-4.77,12.74-5.44l.37-.05,1.44,10.79Z"/>
          <path class="cls-9" d="m52.75,58.15c13.33,3.98,31.98,9.69,46.42,15.7,14.44,6.02,39.93,24.97,41.42,27.21-2.86,2.7-5.52,5.81-6.9,7.48-1.73-2.02-31.66-20.32-44.74-25.55-13.09-5.22-36.78-7.86-53.54-10.56h0c1.45-.94,2.55-3.87,3.3-5.95.94-2.55,3.21-8.17,6.63-13.78,1.01-1.65,2.1-3.3,3.3-4.87-.09.21-1.14,2.93,0,8.27.74,3.46,2.54,3.15,4.12,2.04Z"/>
          <path class="cls-5" d="m81.73,145.43c6.65,4.61,18.15,8.67,27.35,8.9,9.19.22,24.72-5.37,28.8-8.89,2.99.84,6.77,1.69,8.44,1.15-.5.65-1.01,1.3-1.49,1.92-.72.92-1.41,1.79-2.02,2.57,0,0,0,0,0,0-2.87,1.56-12.95,5.95-27.31,9.56-9.03,2.27-17.8.19-25.49-2.93-4.54-1.85-8.7-4.06-12.34-5.96-4.3-2.25-9.62-6.27-14.43-10.45-5.7-4.95-10.67-10.1-12.42-12.76-.86-1.31-1.52-1.87-2.04-1.99,1.02.11,2.38.2,3.93.26,3.18.1,7.18,0,10.78-.42.37.45,12.21,14.85,18.24,19.03Z"/>
          <path class="cls-9" d="m52.75,58.15c-1.58,1.1-3.38,1.41-4.12-2.04-1.15-5.34-.1-8.06,0-8.27,2.81,2.7,7.55.87,12.43-1.33-2.45,3.72-4.93,8.31-5.96,9.45-.51.57-1.39,1.52-2.35,2.19Z"/>
          <path class="cls-10" d="m50.82,128.55c1.74,2.66,6.72,7.81,12.42,12.76-5.36.94-14.95.76-21.89.47l.05-1.05c2.34-3.3,3.96-7.93,4.87-10.26.19-.49.35-.89.49-1.15.26-.49.57-2.18,1.37-2.65.13-.09.27-.13.43-.13h0l.21.03c.52.11,1.18.68,2.04,1.99Z"/>
          <path class="cls-5" d="m35.41,99.11s4.58,16.9,17.3,27.71c-1.56-.05-2.92-.14-3.93-.26l-.21-.03h0c-.16,0-.3.04-.43.13h0c-12.18-10.37-17.09-28.11-17.09-28.11,1.41.18,2.88.36,4.38.55Z"/>
          <path class="cls-5" d="m31.02,98.56s4.91,17.74,17.09,28.1h0c-.8.48-1.11,2.17-1.37,2.66-.13.26-.29.65-.49,1.15-7.64-5.2-18.62-25.71-20.68-32.59,1.7.21,3.53.44,5.43.68Z"/>
          <path class="cls-9" d="m.5,90.4c22.11.75,55.73,6.58,66.33,10.66,1.94.75,4.14,1.61,6.42,2.51-9.63-.95-25-2.85-37.84-4.46-1.5-.19-2.97-.37-4.38-.55-1.91-.24-3.74-.47-5.43-.68-6.91-.87-11.86-1.47-12.68-1.48-.94-.02-1.62.27-2.18.77-.94.82-1.56,2.24-2.55,3.9-.28.48-.63.99-1,1.54l-.24-.17H.5v-12.03Z"/>
          <path class="cls-11" d="m73.25,103.57c10.14,3.99,22.01,8.79,22.01,8.79l.17.42c-2.06.53-3.52,1.05-3.89,1.52-.22,1.23.47,3.28,1.59,5.55,0,0-12.27,2.93-20.71,4.82-1.47.33-2.82.62-3.97.86-.94.2-1.74.36-2.37.48-.82.15-1.7.28-2.59.4-3.6.42-7.6.51-10.78.42-12.73-10.82-17.3-27.71-17.3-27.71,12.84,1.61,28.21,3.51,37.84,4.46Z"/>
          <path class="cls-10" d="m34.27,141.4c1.41.09,3.98.25,7.07.38,6.94.29,16.53.47,21.89-.47,4.81,4.18,10.13,8.2,14.43,10.45,3.63,1.9,7.79,4.11,12.34,5.96,0,0-13.99.36-23.62.96-9.62.6-14.74,4.89-18.59,5.19-1.8.14-4.02-1.17-6.3-2.73,0,0-.03-.02-.04-.04-.92-1.04-5.47-17.55-7.17-19.71Z"/>
          <path class="cls-10" d="m41.44,161.11c-2.58-1.77-5.24-3.85-7.48-4.52-2.63-.8-6.59-1.4-9.32-3.31,3.68-8.87,7.9-13.69,9.55-11.96.03.03.05.06.08.09,1.7,2.16,6.25,18.66,7.17,19.71Z"/>
          <path class="cls-9" d="m45.33,52.71c-3.42,5.61-5.69,11.22-6.63,13.78-.75,2.08-1.86,5.01-3.3,5.94-.87.57-1.87.4-3-1.12-3.01-4.06-9.03-12.07-9.03-12.07,8.78.27,15.61-2.74,21.97-6.52Z"/>
          <path class="cls-9" d="m35.41,72.43c16.76,2.7,40.46,5.34,53.54,10.56,13.08,5.23,43.01,23.52,44.74,25.55-.62.74-.97,1.2-.97,1.2l-.02.33c-4.34-.26-8.58-.51-11.56-.66-1.94-.11-3.34-.16-3.88-.15-.34,0-.95.06-1.78.14-.78.09-1.75.2-2.85.35h0c-8.12-9.85-25.26-15.44-38.87-20.4-13.61-4.96-34-7.67-59.43-10.96h0c.95-.61,1.87-1.81,2.71-2.88,1.77-2.24,2.98-5.75,4.72-11.23.49-1.53,1.01-3.2,1.6-5.05,0,0,6.02,8.01,9.03,12.07,1.13,1.52,2.13,1.69,3,1.12h0Z"/>
          <path class="cls-10" d="m18.4,125.53c.45,6.68.57,19.12,1.18,19.9h0c-3.39-4.22-9.98-10.22-11.25-11.26-1.65-1.35-3.3-1.96-2.55-3.01s4.43-6.99,7.27-9.88c.36-.36.8-.65,1.29-.87h.02c1.36-.24,3.6-1.52,4.06,5.13Z"/>
          <path class="cls-10" d="m41.4,140.73l-.05,1.05c-3.09-.13-5.66-.29-7.07-.38-.03-.03-.05-.06-.08-.09-1.65-1.73-5.87,3.08-9.55,11.96-1.63-1.14-2.75-3.42-3.08-4.66-.21-.77-.95-1.89-1.99-3.17h0c-.61-.79-.72-13.23-1.18-19.91-.46-6.65-2.7-5.36-4.06-5.13,3.35-1.51,9.26.19,12.95,1.99,4.33,6.07,13.37,17.85,14.1,18.34Z"/>
          <path class="cls-10" d="m14.33,101.06c1.09,2.99,4.9,8.82,7.94,13.53l.73-.31s-13.37-.43-16.53-.29c-3.15.13-5.19.08-4.74-1.94.39-1.76,3.45-6.73,5.86-10.21.37-.55.72-1.06,1-1.54.99-1.65,1.65-2.64,2.59-3.46.46-.34,1.65.08,3.16,4.23Z"/>
          <path class="cls-5" d="m46.27,130.47c-.91,2.33-2.53,6.96-4.87,10.26-.73-.49-9.77-12.27-14.1-18.34-.97-1.37-1.71-2.45-2.05-3.04-.73-1.25-1.79-2.93-2.98-4.76-3.03-4.71-6.85-10.54-7.94-13.53-1.51-4.15-3.15-4.23-3.61-3.9.57-.5,1.25-.79,2.18-.77.82.02,5.77.62,12.68,1.48,2.06,6.88,13.04,27.39,20.68,32.59Z"/>
          <path class="cls-9" d="m73.76,89.34c13.61,4.97,30.75,10.55,38.87,20.4h0c-1.08.15-2.28.32-3.55.5-4.59.67-10.04,1.62-13.65,2.55l-.17-.42s-11.88-4.81-22.01-8.79c-2.28-.9-4.47-1.76-6.42-2.51-10.6-4.07-44.22-9.91-66.33-10.66v-6.32s5.72-9.93,8.72-14.78c0,0,.15,1.54.6,3.94,1.33,5.55,2.93,6.16,4.51,5.13h0c25.43,3.3,45.82,6.01,59.43,10.97Z"/>
        </g>
        <g>
          <path class="cls-3" d="m9.22,69.31c5.27-.68,9.45-2.37,12.54-5.04"/>
          <path class="cls-3" d="m149.14,38.07c-1.03-2.52-1.87-4.77-2.43-6.34,0-.97.3-2.33.75-2.4.9-.38,6.69-5.34,7.07-5.87.37-.52,2.03-.37,2.4,0s12.8,9.8,16.47,12.61c1.74,1.33,7.37,7.52,12.83,11.7,1.91,1.45,3.79,2.66,5.48,3.33.54.21,1.13.45,1.75.7,6.92,2.78,18.24,7.53,19.69,7.42-.23-.79-.8-1.35-.8-1.35,0,0-15.45-14.2-22.71-21.11-1.49-1.42-2.63-2.53-3.23-3.15-3.49-3.61-11.96-12.19-15.23-15.12-3.27-2.93-8.63-6.04-12.64-5.3-3.8.7-11,6.95-12.12,9.76-1.33,3.32-1.3,6.71-.76,9.16.42,1.9,3.3,5.71,3.47,5.95"/>
          <line class="cls-3" x1="149.14" y1="38.07" x2="149.15" y2="38.08"/>
          <path class="cls-3" d="m175.05,51.8c-.72.58-1.55,2.36-2.46,2.75-2.28,1-5.03,1.43-7.55,1.42-1.95,0-5.13-1.14-5.14-1.15-3.28-1.22-7.1-8.2-9.91-14.72-.29-.69-.58-1.36-.86-2.02"/>
          <path class="cls-3" d="m172.66,54.7l5.86,8.09c.32.16.72.43,1.23.43.33,0,.69-.11,1.1-.43l5.35-14.98"/>
          <path class="cls-3" d="m210.99,32.32s-1.63,15.89-1.25,17.92c12.71,5.34,21.81,10.98,27.15,16.62,5.33,5.63,11.41,20.84,12.15,24.75v.02"/>
          <path class="cls-3" d="m209.73,50.24c1.87-3.38,11.77-7.52,13.18-8.05"/>
          <path class="cls-3" d="m196.36,103.57c.35-.11.62-.22.77-.34-1.25-1.38-2.99-3.28-4.87-5.43-.35-.41-.72-.81-1.08-1.24-.96-1.12-1.95-2.3-2.93-3.49-.96-1.18-1.91-2.37-2.79-3.54-2.82-3.76-5.04-7.33-5.37-9.65"/>
          <path class="cls-3" d="m224.99,101.61c-3.37-2.58-7.08-5.84-10.8-9.33-1.85-1.75-3.69-3.55-5.51-5.36-1.33-1.32-2.62-2.63-3.88-3.93-2.01-2.05-3.91-4.06-5.64-5.92-3.84-4.11-6.89-7.56-8.49-9.46-.49-.58-.84-1.03-1.03-1.28-1.24-1.67-3.43-2.74-7.05-3.01-.87-.07-1.81-.09-2.85-.06-1.44.03-3.05.16-4.84.38-1.44.19-2.73.59-3.89,1.16-5.89,2.86-8.38,9.93-8.97,14.78-.14,1.16-.14,2.55-.05,4.06.05.79.13,1.61.23,2.46.1.77.2,1.56.33,2.36.12.81.27,1.63.42,2.46.15.81.32,1.63.49,2.41.17.81.34,1.61.52,2.37.63,2.71,1.26,5.02,1.68,6.3.23.54,1.12,1.1,2.3,1.59,1.4.61,3.18,1.14,4.71,1.46,1,.21,1.88.34,2.47.34.92,0,4.44-.11,8.43-.34,2.54-.15,5.27-.34,7.62-.59,2.22-.24,4.1-.52,5.16-.86"/>
          <path class="cls-3" d="m162.22,86.08c4.79,2.14,17,5.64,23.24,3.44"/>
          <path class="cls-3" d="m163.26,90.85c4.19,1.56,20.23,3.99,25,2.22.03,0,.05-.02.07-.03"/>
          <path class="cls-3" d="m164.29,95.61c3.62,1.02,23.76,2.4,26.89.95"/>
          <path class="cls-3" d="m192.26,97.79c6.19,2.99,19.42,9.76,28.75,12.31,9.33,2.56,33.67,8.93,40.01,11.59"/>
          <path class="cls-3" d="m244.63,95.61s.05.03.15.08c.71.39,3.69,2.13,4.92,4.64,1.39,2.85,11.32,17.59,11.32,18.5,0,.24.06,1.33.13,2.85.06,1.23.13,2.74.19,4.29.05,1.48.09,2.99.08,4.33,0,2.17-.11,3.89-.4,4.33-.12.19-.42.41-.84.66-1.63.96-5.3,2.31-9.31,3.3-2.44.62-5,1.1-7.31,1.3-.58.05-1.2,0-1.85-.11-2.38-.46-5.15-2-7.86-3.91-2.4-1.71-4.75-3.72-6.72-5.56-2.6-2.43-4.54-4.57-5.07-5.31"/>
          <path class="cls-3" d="m196.86,113.49c-1.18-1.76-2.33-3.67-3.39-5.41-.83-1.37-1.6-2.63-2.28-3.65l-17.34,21.61"/>
          <path class="cls-3" d="m260.18,135.29c-2.95-2.65-14.5-6.83-23.23-8.78-6.44-1.45-11.49-1.58-14.89-1.62-1.21,0-2.22,0-3-.04-1.69-.09-5.58-1.22-9.32-2.51-2.91-1.01-5.73-2.11-7.37-2.9-1.57-.76-3.28-2.75-4.94-5.13-.19-.27-.37-.54-.56-.82"/>
          <path class="cls-3" d="m233.86,135.85s5.21-2.16,17.02,2.74"/>
          <path class="cls-3" d="m196.34,103.57h.02c.33,0,4.75.16,5.51.86.14.12.16.46.09.93-.14.95-.65,2.45-1.19,3.87-.7,1.84-1.47,3.54-1.65,3.81-.38.54-2.09.46-2.24.45h0"/>
          <path class="cls-3" d="m202,105.36s4.72,3.16,9,5.3c4.29,2.15,19.64,5.38,26.06,7.09,6.34,1.69,22.15,7.11,24.27,8.21.03.02.05.03.08.04"/>
          <path class="cls-3" d="m200.83,109.25s4.72,3.16,9,5.3c4.29,2.15,19.64,5.38,26.06,7.1,6.43,1.71,23.75,7.65,25.52,8.64"/>
          <path class="cls-3" d="m222.08,70.4c.58.89,1.08,1.73,1.45,2.48.44.91,1.02,2.04,1.64,3.3.17.33.34.66.51,1.01,2.7,5.42,6.23,12.74,6.65,16.5"/>
          <path class="cls-3" d="m213.15,59.23s.27.3.74.83c1.02,1.15,2.93,3.35,4.83,5.76,1.18,1.5,2.37,3.09,3.33,4.55"/>
          <path class="cls-3" d="m214.2,92.27s14.31,1.24,18.04,1.91c.03,0,.05,0,.08.02,1.23.23,2.81.54,4.48.82,1.39.24,2.83.45,4.14.59,1.51.16,2.87.22,3.83.08.17-.02.33-.04.47-.08.24-.09.46-.19.67-.3,1.43-.74,2.44-2.05,3.11-3.69,1.49-3.61,1.41-8.85.9-13.23-.8-6.67-2.04-13.26-2.93-16.22-.9-2.96-3.55-8.07-7.33-13.82s-9.87-6.09-16.75-6.15c-1.3-3.44-6.65-6.6-10.04-8.97-.55-.38-1.18-.68-1.88-.91-3.59-1.18-8.66-.48-10.42-.04-2.09.5-10.92,4.5-10.92,4.5"/>
          <path class="cls-3" d="m218.73,65.82s9.42,4.02,13.6,8.53c7.22,7.78,13.41,19.76,13.59,20.96"/>
          <path class="cls-3" d="m222.06,70.37s0,0,.02.03c.47.36,9.99,7.87,12.62,11.51,2.71,3.72,6.08,12.41,6.26,13.71"/>
          <path class="cls-3" d="m225.68,77.19c3.89,1.97,10.4,11.19,11.13,17.82.02.1.03.19.04.29"/>
          <path class="cls-3" d="m208.69,86.92s12.64-9.76,14.57-9.76c.06,0,.11,0,.16.04"/>
          <path class="cls-3" d="m204.81,82.99s10.78-13.04,12.74-13.94"/>
          <line class="cls-3" x1="203.11" y1="73.85" x2="213.89" y2="60.06"/>
          <path class="cls-3" d="m200.83,58.15s-2.44,12.5-1.66,18.92"/>
          <path class="cls-3" d="m150,40.1l-17.13-12.57s-12.19-1.36-21.21,1.5c15.79,8.12,45.4,26.52,46.45,30.39"/>
          <path class="cls-3" d="m159.94,55.21s0-.04,0-.05"/>
          <path class="cls-3" d="m111.66,29.03s-7.37,3.46-11.21,9.1c-1,1.48-2.27,3.11-3.6,4.73-3.72,4.56-7.91,8.94-7.91,8.94,0,0,26.85,9.34,37.67,17.24,10.83,7.89,22.32,19.11,22.32,19.11"/>
          <path class="cls-3" d="m96.86,42.86s-6.79-4.73-9.72-4.62l.37,2.77,1.44,10.79"/>
          <path class="cls-3" d="m87.14,41.07c-6.09.67-9.91,1.72-12.73,5.44"/>
          <path class="cls-3" d="m48.63,47.82s0,0,0,.02c-1.19,1.57-2.29,3.22-3.3,4.87-3.42,5.61-5.69,11.22-6.63,13.78-.75,2.08-1.86,5.01-3.3,5.94-.87.57-1.87.4-3-1.12-3.01-4.06-9.03-12.07-9.03-12.07-.59,1.85-1.11,3.52-1.6,5.05-1.74,5.48-2.95,9-4.72,11.23-.84,1.07-1.77,2.27-2.71,2.87-1.57,1.03-3.18.42-4.51-5.13-.45-2.4-.6-3.94-.6-3.94-3,4.84-8.72,14.78-8.72,14.78v18.35h6.43"/>
          <path class="cls-3" d="m48.63,47.84c-.09.21-1.14,2.93,0,8.27.74,3.46,2.54,3.15,4.12,2.04.96-.67,1.84-1.63,2.35-2.19,1.03-1.14,3.51-5.73,5.96-9.45.8-1.2,1.58-2.32,2.32-3.19,3.79.94,7.46,2.01,11.02,3.21,5.02,1.68,9.81,3.6,14.37,5.67,30.41,13.91,50.35,35.26,58.24,44.19"/>
          <path class="cls-3" d="m23.36,59.23c8.78.27,15.61-2.74,21.97-6.52"/>
          <path class="cls-3" d="m52.75,58.15c13.33,3.98,31.98,9.69,46.42,15.7,14.44,6.02,39.93,24.97,41.42,27.21"/>
          <path class="cls-3" d="m150.52,82.05c-.26.97-.54,2.04-.84,3.19-.24.93-.49,1.9-.74,2.91-.66,2.67-1.35,5.53-1.94,8.24-.95,4.43-1.63,8.45-1.52,10.55"/>
          <path class="cls-3" d="m150.52,82.04c.23-.85.43-1.61.62-2.27.46-1.68.75-2.7.75-2.7,0,0,3.68-10.47,4.22-12.27.98-2.03,1.48-3.76,2-5.37.72-2.3,1.59-3.96,1.79-4.23.03-.03.04-.04.04-.04h0"/>
          <path class="cls-3" d="m132.72,109.74s.35-.46.97-1.2c1.38-1.66,4.04-4.77,6.9-7.48,2.18-2.08,4.49-3.91,6.42-4.67"/>
          <path class="cls-3" d="m35.41,72.43c16.76,2.7,40.46,5.34,53.54,10.56,13.08,5.23,43.01,23.52,44.74,25.55"/>
          <path class="cls-3" d="m14.33,78.39c25.43,3.29,45.82,6,59.43,10.96,13.61,4.97,30.75,10.55,38.87,20.4"/>
          <path class="cls-3" d="m.5,90.4c22.11.75,55.73,6.58,66.33,10.66,1.94.75,4.14,1.61,6.42,2.51,10.14,3.99,22.01,8.79,22.01,8.79"/>
          <path class="cls-3" d="m206.01,137.95c.87.1,1.77.19,2.68.26,1.58.12,3.21.2,4.89.23,1.5.03,3.05.02,4.63-.04.18,0,.35,0,.53-.02,1.57-.06,3.18-.17,4.82-.31,1.02-.1,2.03-.2,3.08-.33-.04-1.39-.04-2.55,0-3.49.1-2.81.44-3.84.49-3.95h0"/>
          <path class="cls-3" d="m167.95,109.35l-6.92,6.34c1.86,1.67,3.91,3.52,6.23,5.42,2,1.63,4.19,3.3,6.58,4.93,2.42,1.64,5.05,3.24,7.94,4.71.52.27,1.04.52,1.58.78,2.74,1.32,5.7,2.51,8.89,3.52,2.19.7,4.49,1.31,6.91,1.81,2.18.45,4.45.82,6.84,1.09"/>
          <line class="cls-3" x1="172.66" y1="105.03" x2="167.95" y2="109.34"/>
          <line class="cls-3" x1="167.26" y1="121.1" x2="183.56" y2="105.02"/>
          <line class="cls-3" x1="181.79" y1="130.74" x2="193.46" y2="108.08"/>
          <line class="cls-3" x1="197.42" y1="114.31" x2="192.26" y2="135.04"/>
          <line class="cls-3" x1="208.69" y1="138.19" x2="209.73" y2="122.33"/>
          <line class="cls-3" x1="218.73" y1="138.19" x2="219.05" y2="124.84"/>
          <path class="cls-3" d="m226.64,134.24h0c3.09,3.5,8.44,7.64,15.08,5.53t.02,0"/>
          <polyline class="cls-3" points="206.01 137.94 206.01 137.95 213.15 146.59 225.68 161.77 230.41 157.99 213.57 138.43"/>
          <polyline class="cls-3" points="230.41 157.99 234.19 161.77 238.65 157.99 230.73 150.4 218.21 138.4"/>
          <polyline class="cls-3" points="230.73 150.4 233.86 147.45 223.56 138.07 223.42 137.94"/>
          <path class="cls-3" d="m142.79,151.09c-1.48,1.84-2.6,3.18-2.93,3.46-.72,1.13.64,2.6,5.14,1.7,4.52-.9,9.7-2.26,12.41-1.7,2.71.57,8.74,2.85,9.84,3.12,1.1.27,2.57-.57,3.14-.87"/>
          <path class="cls-3" d="m153.82,136.58c-.3.35-.64.8-1.03,1.35-1.34,1.93-3.95,5.39-6.48,8.65-.5.65-1.01,1.3-1.49,1.92-.72.92-1.41,1.79-2.02,2.57"/>
          <path class="cls-3" d="m202.36,119.43l-3.19,17.42c-1.91,3.35-8.08,7.81-14.22,11.66-1.42.89-2.85,1.76-4.22,2.57-1.03.6-2.04,1.18-2.99,1.72-2.01,1.15-3.78,2.11-5.08,2.81-1.41.76-2.26,1.19-2.26,1.19-.93-2.92-3.78-7.4-6.58-11.37-2.95-4.17-5.87-7.79-6.5-8.45-.68-.69-1.09-1.59-1.79-1.59-.26,0-.56.11-.92.42-.23.19-.49.44-.77.78"/>
          <path class="cls-3" d="m172.66,155.61s8.05,3.68,10.9,1.19c2.85-2.47,9.86-6.23,15.61-6.95,5.74-.72,13.98-3.27,13.98-3.27"/>
          <path class="cls-3" d="m155.5,135.37h.02c4.18-.06,8.33.04,11.74.04,1.82,0,3.44-.03,4.73-.13.72-.05,1.35-.13,1.86-.25.74-.17,1.68-.45,2.67-.8,3.15-1.09,6.86-2.72,6.86-2.72"/>
          <path class="cls-3" d="m176.51,134.24c2.11,1.92,7.42,9.46,8.44,14.26"/>
          <path class="cls-3" d="m171.99,135.29c2.8,3.02,8.36,11.52,8.74,15.79"/>
          <path class="cls-3" d="m167.26,135.42c3.59,4.02,11.14,13.03,10.48,17.38h0"/>
          <polyline class="cls-3" points="167.95 103.57 167.95 108.08 167.95 109.34 167.95 109.35"/>
          <path class="cls-3" d="m167.95,108.08s-13.12,2.82-18.31,2.82c-2.57,0-9.89-.42-16.94-.83-4.34-.26-8.58-.51-11.56-.66-1.94-.11-3.34-.16-3.88-.15-.34,0-.95.06-1.78.14-.78.09-1.75.2-2.85.35-1.08.14-2.28.31-3.55.49-4.59.67-10.04,1.62-13.65,2.55-2.06.53-3.52,1.05-3.89,1.52-.22,1.23.47,3.28,1.59,5.55.61,1.23,1.34,2.52,2.13,3.78,2.26,3.61,11.28,13.77,14.22,16.14,2.13,1.71,12.76,3.73,19.27,4.34,2.47.23,4.34.27,4.94,0-9.89-7.27-15.08-14.04-19.25-18.11-4.18-4.06-10.27-9.47-15.12-10.32-4.85-.84-7.79-1.38-7.79-1.38"/>
          <path class="cls-3" d="m133.69,144.11s1.86.66,4.19,1.33c2.99.84,6.77,1.69,8.44,1.15"/>
          <path class="cls-3" d="m121.14,109.4s8.23,8.86,13.74,12.93c6.75,4.97,16.64,13.06,19.49,13.04"/>
          <path class="cls-3" d="m109.08,110.24s15.37,13.48,18.07,15.77c2.7,2.3,17.15,14.49,25.64,11.93"/>
          <path class="cls-3" d="m115.49,109.4s11.72,12.03,15.45,14.86c3.74,2.84,16.92,12.32,22.89,12.32h0"/>
          <path class="cls-3" d="m73.28,103.57h-.04c-9.63-.95-25-2.85-37.84-4.46-1.5-.19-2.97-.37-4.38-.55-1.91-.24-3.74-.47-5.43-.68-6.91-.87-11.86-1.47-12.68-1.48-.94-.02-1.62.27-2.18.77-.94.82-1.56,2.24-2.55,3.9-.28.48-.63.99-1,1.54-2.4,3.48-4.95,8.01-5.34,9.76-.45,2.02.25,2.08,3.41,1.94,3.16-.14,16.53.29,16.53.29"/>
          <path class="cls-3" d="m48.78,126.56c.52.11,1.18.68,2.04,1.99,1.74,2.66,6.72,7.81,12.42,12.76,4.81,4.18,10.13,8.2,14.43,10.45,3.63,1.9,7.79,4.11,12.34,5.96,7.69,3.12,16.45,5.2,25.49,2.93,14.35-3.61,24.43-8.01,27.31-9.56,0,0,0,0,0,0"/>
          <path class="cls-3" d="m10.72,97.16c.46-.34,2.09-.26,3.61,3.9,1.09,2.99,4.9,8.82,7.94,13.53,1.18,1.84,2.24,3.51,2.98,4.76.34.59,1.08,1.67,2.05,3.04,4.33,6.07,13.37,17.85,14.1,18.34,2.34-3.3,3.96-7.93,4.87-10.26.19-.49.35-.89.49-1.15.26-.49.57-2.18,1.37-2.65.13-.09.27-.13.43-.13"/>
          <path class="cls-3" d="m93.13,119.86s-12.27,2.93-20.71,4.82c-1.47.33-2.82.62-3.97.86-.94.2-1.74.36-2.37.48-.82.15-1.7.28-2.59.4-3.6.42-7.6.51-10.78.42-1.56-.05-2.92-.14-3.93-.26l-.21-.03h0"/>
          <path class="cls-3" d="m72.41,124.67c9.53,9.57,16.75,17.74,28.94,20.76,12.19,3.03,20.5,2.91,27.39-1.32"/>
          <path class="cls-3" d="m68.45,125.53c2.19,2.21,9.71,11.66,14.83,15.5,5.74,4.32,15.29,8.13,23.15,9.19,10.72,1.45,21.78-2.24,27.26-6.11"/>
          <path class="cls-3" d="m63.48,126.4h0c.37.46,12.21,14.86,18.24,19.03,6.65,4.61,18.15,8.67,27.35,8.9,9.19.22,24.72-5.37,28.8-8.89h0"/>
          <path class="cls-3" d="m25.59,97.88c2.06,6.88,13.04,27.39,20.68,32.59"/>
          <path class="cls-3" d="m31.02,98.56s4.91,17.74,17.09,28.1"/>
          <path class="cls-3" d="m35.41,99.11s4.58,16.9,17.3,27.71c.02,0,.03.03.04.04"/>
          <path class="cls-3" d="m41.49,161.14c2.28,1.56,4.5,2.87,6.3,2.73,3.85-.3,8.97-4.59,18.59-5.19,9.63-.6,23.62-.96,23.62-.96"/>
          <path class="cls-3" d="m14.33,120.4c-.49.22-.93.51-1.29.87-2.85,2.89-6.52,8.83-7.27,9.88s.9,1.66,2.55,3.01c1.27,1.03,7.86,7.03,11.25,11.27,1.04,1.28,1.78,2.4,1.99,3.17.34,1.24,1.45,3.52,3.08,4.66,2.73,1.92,6.69,2.52,9.32,3.31,2.24.67,4.9,2.76,7.48,4.52"/>
          <path class="cls-3" d="m27.29,122.39c-3.68-1.79-9.6-3.5-12.95-1.99"/>
          <path class="cls-3" d="m24.64,153.27c3.68-8.87,7.9-13.69,9.55-11.96.03.03.05.06.08.09,1.7,2.16,6.25,18.66,7.17,19.71.02.02.04.03.04.04"/>
          <path class="cls-3" d="m33.06,141.31s.43.04,1.21.09c1.41.09,3.98.25,7.07.38,6.94.29,16.53.47,21.89-.47"/>
          <path class="cls-3" d="m14.33,120.4h.02c1.36-.24,3.6-1.52,4.06,5.13.45,6.68.57,19.12,1.18,19.9"/>
          <path class="cls-3" d="m149.68,147.52s5.51,4.55,7.73,7.03"/>
          <path class="cls-3" d="m144.82,148.51s2.02-.59,4.79-1.28c4.66-1.15,11.43-2.56,14.2-1.79"/>
          <path class="cls-3" d="m154.26,36.07c.11,2.17,1.35,11.39,1.8,11.74s3.38-.21,3.89-.66"/>
          <line class="cls-3" x1="159.95" y1="43.77" x2="161.93" y2="46.22"/>
          <path class="cls-3" d="m163,50.37s-.41.53-1.42.6"/>
          <path class="cls-3" d="m160.89,37.28s3.01-1.97,3.55-2.54"/>
          <path class="cls-3" d="m151.14,40.77s2.1-.65,2.4-.72"/>
          <path class="cls-3" d="m155.69,29.3c-.17-.38.27-.95.99-1.25s1.43-.24,1.6.14c.17.39-.28.95-1,1.26-.72.3-1.42.24-1.59-.15Z"/>
          <path class="cls-3" d="m151.15,31.18c.26.34-.03.99-.65,1.48-.61.48-1.32.6-1.57.27-.27-.33.03-.99.64-1.47s1.32-.6,1.58-.27Z"/>
          <path class="cls-3" d="m165.05,56.21s4.9,5.56,5.96,8.57"/>
          <path class="cls-3" d="m182.59,63.32l10.87-11.51s-2.57,12.72-2.77,15.8"/>
          <path class="cls-3" d="m151.14,79.77s7.52,4.01,10.79,3.86"/>
          <path class="cls-3" d="m149.68,85.24s8.09,8.28,13.77,8.07"/>
          <path class="cls-3" d="m150.52,82.04h0s5.76,5.04,12.03,6.4"/>
          <path class="cls-3" d="m48.63,47.84c2.81,2.7,7.55.87,12.43-1.33"/>
        </g>
      </g>
    </g>
  </g>
</svg>