<svg xmlns="http://www.w3.org/2000/svg" xml:space="preserve" id="レイヤー_1" x="0" y="0" style="enable-background:new 0 0 270.3 186.8" version="1.1" viewBox="0 0 270.3 186.8"><style>.st0{fill:#f3edd7}.st1{fill:#333}.st3{fill:none;stroke:#000;stroke-miterlimit:10}.st4{fill:#f8dd8c}.st5{fill:#c994ae}.st6{fill:#fe462e}.st7{fill:#fef1d1}.st8{fill:#faead1}.st9{fill:none;stroke:#000;stroke-linecap:round;stroke-linejoin:round}</style><g id="_畳"><path d="M.2 152.2h3.6v5H.2zM270 179.8v6.6h-30.4l15.4-8.6c1 1.6 3.1 2.7 5.5 2.7s4.6-1.2 5.6-2.9l3.9 2.2z" class="st0"/><path d="M270 169.2v10.6l-4-2.2c.4-.6.6-1.4.6-2.1 0-1.3-.6-2.5-1.6-3.4l5-2.9zm0-12v12l-5 2.8c-1.1-1-2.8-1.6-4.6-1.6s-3.3.6-4.4 1.5l-26.1-14.7H270zm0-67.7v5.7H.2v-5.7zm-4 62.7h4v5h-4z" class="st0"/><path d="M266.6 175.4c0 .8-.2 1.5-.6 2.1l-5.4-3.1 4.4-2.5c1 1 1.6 2.2 1.6 3.5zm-6-.9 5.4 3.1c-1 1.7-3.1 2.9-5.6 2.9s-4.5-1.1-5.5-2.7l5.7-3.3z" class="st0"/><path d="M254.7 152.2H266v5h-11.3z" class="st1"/><path d="m265 172-4.4 2.5-4.6-2.6c1.1-.9 2.7-1.5 4.4-1.5 1.9 0 3.5.6 4.6 1.6z" class="st0"/><path d="m260.6 174.5-5.7 3.2c-.4-.7-.7-1.5-.7-2.3 0-1.4.7-2.6 1.8-3.5l4.6 2.6z" class="st0"/><path d="m229.9 157.2 26.1 14.7c-1.1.9-1.8 2.1-1.8 3.5 0 .8.2 1.6.7 2.3l-15.4 8.6H198l-15.6-8.8c.4-.6.6-1.4.6-2.1 0-1.3-.6-2.5-1.6-3.4l26.3-14.8h22.2zm-5.9 18.2c0-2.8-2.2-5-5-5s-5 2.2-5 5 2.2 5 5 5 5-2.2 5-5z" class="st0"/><path d="M254.7 157.2h-30.5v-5h30.5z" class="st0"/><path d="M212.9 152.2h11.3v5h-11.3zm6 18.2c2.8 0 5 2.2 5 5s-2.2 5-5 5-5-2.2-5-5 2.3-5 5-5z" class="st1"/><path d="M207.8 157.2 181.4 172c-1.1-1-2.8-1.6-4.6-1.6s-3.3.6-4.4 1.5l-26.1-14.7h61.5zm-25.4 0v-5h30.5v5h-5.1zm15.7 29.1H156l15.4-8.6c1 1.6 3.1 2.7 5.5 2.7s4.6-1.2 5.6-2.9l15.6 8.8z" class="st0"/><path d="M183.1 175.4c0 .8-.2 1.5-.6 2.1l-5.4-3.1 4.4-2.5c1 1 1.6 2.2 1.6 3.5zm-6-.9 5.4 3.1c-1 1.7-3.1 2.9-5.6 2.9s-4.5-1.1-5.5-2.7l5.7-3.3z" class="st0"/><path d="M171.1 152.2h11.3v5h-11.3z" class="st1"/><path d="M176.9 170.4c1.8 0 3.4.6 4.6 1.6l-4.4 2.5-4.6-2.6c1.1-.9 2.6-1.5 4.4-1.5z" class="st0"/><path d="m177.1 174.5-5.7 3.2c-.4-.7-.7-1.5-.7-2.3 0-1.4.7-2.6 1.8-3.5l4.6 2.6z" class="st0"/><path d="m146.4 157.2 26.1 14.7c-1.1.9-1.8 2.1-1.8 3.5 0 .8.2 1.6.7 2.3l-15.4 8.6h-41.5l-15.6-8.8c.4-.6.6-1.4.6-2.1 0-1.3-.6-2.5-1.6-3.4l26.3-14.8h22.2zm-7.1 18.2c0-2.8-2.2-5-5-5s-5 2.2-5 5 2.2 5 5 5 5-2.2 5-5z" class="st0"/><path d="M171.1 157.2h-30.5v-5h30.5z" class="st0"/><path d="M129.3 152.2h11.3v5h-11.3zm5 18.2c2.8 0 5 2.2 5 5s-2.2 5-5 5-5-2.2-5-5 2.2-5 5-5z" class="st1"/><path d="M124.2 157.2 97.9 172c-1.1-1-2.8-1.6-4.6-1.6s-3.3.6-4.4 1.5l-26.1-14.7h61.4zm5.1 0H98.8v-5h30.5zm-14.8 29.1H72.4l15.3-8.6c1 1.6 3.1 2.7 5.5 2.7s4.6-1.2 5.6-2.9l15.7 8.8z" class="st0"/><path d="M99.5 175.4c0 .8-.2 1.5-.6 2.1l-5.4-3.1 4.4-2.5c1 1 1.6 2.2 1.6 3.5zm-6-.9 5.4 3.1c-1 1.7-3.1 2.9-5.6 2.9s-4.5-1.1-5.5-2.7c0-.1 5.7-3.3 5.7-3.3z" class="st0"/><path d="M87.5 152.2h11.3v5H87.5z" class="st1"/><path d="M93.3 170.4c1.8 0 3.4.6 4.6 1.6l-4.4 2.5-4.6-2.6c1.1-.9 2.7-1.5 4.4-1.5z" class="st0"/><path d="m93.5 174.5-5.7 3.2c-.4-.7-.7-1.5-.7-2.3 0-1.4.7-2.6 1.8-3.5l4.6 2.6z" class="st0"/><path d="m62.8 157.2 26.1 14.7c-1.1.9-1.8 2.1-1.8 3.5 0 .8.2 1.6.7 2.3l-15.3 8.6H30.8l-15.6-8.8c.4-.6.6-1.4.6-2.1 0-1.3-.6-2.5-1.6-3.4l26.3-14.8h22.3zm-8.6 18.2c0-2.8-2.2-5-5-5s-5 2.2-5 5 2.2 5 5 5 5-2.2 5-5z" class="st0"/><path d="M87.5 157.2H57v-5h30.5z" class="st0"/><path d="M45.7 152.2H57v5H45.7zm3.5 18.2c2.8 0 5 2.2 5 5s-2.2 5-5 5-5-2.2-5-5 2.3-5 5-5z" class="st1"/><path d="M45.7 157.2H15.2v-5h30.5zm-14.9 29.1H.2v-6.5l3.8-2.1c1 1.6 3.1 2.7 5.5 2.7s4.6-1.2 5.6-2.9l15.7 8.8zm-15.1-10.9c0 .8-.2 1.5-.6 2.1l-5.4-3.1 4.4-2.5c1 1 1.6 2.2 1.6 3.5z" class="st0"/><path d="M3.9 152.2h11.3v5H3.9z" class="st1"/><path d="m9.7 174.5 5.4 3.1c-1 1.7-3.1 2.9-5.6 2.9S5 179.3 4 177.7l5.7-3.2zm-.2-4.1c1.8 0 3.4.6 4.6 1.6l-4.4 2.5-4.6-2.6c1.1-.9 2.7-1.5 4.4-1.5z" class="st0"/><path d="M9.7 174.5 4 177.7c-.4-.7-.7-1.5-.7-2.3 0-1.4.7-2.6 1.8-3.5l4.6 2.6zm-9.5-5.3 4.8 2.7c-1.1.9-1.8 2.1-1.8 3.5 0 .8.2 1.6.7 2.3l-3.8 2.1.1-10.6z" class="st0"/><path d="M212.9 152.2H.2v-57H270v57h-45.8z" style="fill:#d2d296"/><path d="M.2 157.2h40.2L14.1 172c-1.1-1-2.8-1.6-4.6-1.6s-3.3.6-4.4 1.5l-4.8-2.7c-.1 0-.1-12-.1-12z" class="st0"/><path d="M270 186.3H.2m0-96.8H270M.2 95.2H270m-4 57h4m-45.8 0h30.5m-72.3 0h30.5m-72.3 0h30.5m-72.3 0h30.5m-72.3 0h30.5m-72.3 0h30.5m-45.5 0h3.7m262.1 5h4m-45.8 0h30.5m-72.3 0h30.5m-72.3 0h30.5m-72.3 0h30.5m-72.3 0h30.5m-72.3 0h30.5m-45.5 0h3.7m68.5 29.1 15.4-8.6 5.7-3.2 4.4-2.5 26.3-14.8" class="st3"/><path d="m114.5 186.3-15.6-8.8-5.4-3-4.7-2.6-26-14.7m76.5 18.2c0 2.8-2.2 5-5 5s-5-2.2-5-5 2.2-5 5-5 5 2.2 5 5zm84.7 0c0 2.8-2.2 5-5 5s-5-2.2-5-5 2.2-5 5-5 5 2.2 5 5z" class="st3"/><path d="M97.9 172c1 .9 1.6 2.1 1.6 3.4 0 .8-.2 1.5-.6 2.1-1 1.7-3.1 2.9-5.6 2.9s-4.5-1.1-5.5-2.7c-.4-.7-.7-1.5-.7-2.3 0-1.4.7-2.6 1.8-3.5 1.1-.9 2.7-1.5 4.4-1.5 1.8 0 3.4.6 4.6 1.6zM.2 179.8l3.8-2.1 5.7-3.2 4.4-2.5 26.3-14.8" class="st3"/><path d="m30.8 186.3-15.7-8.8-5.4-3-4.6-2.6-4.9-2.7" class="st3"/><path d="M14.1 172c1 .9 1.6 2.1 1.6 3.4 0 .8-.2 1.5-.6 2.1-1 1.7-3.1 2.9-5.6 2.9S5 179.3 4 177.7c-.4-.7-.7-1.5-.7-2.3 0-1.4.7-2.6 1.8-3.5 1.1-.9 2.7-1.5 4.4-1.5 1.8 0 3.5.6 4.6 1.6zM156 186.3l15.4-8.6 5.7-3.2 4.4-2.5 26.3-14.8" class="st3"/><path d="m198.1 186.3-15.6-8.8-5.4-3-4.7-2.6-26-14.7" class="st3"/><path d="M181.5 172c1 .9 1.6 2.1 1.6 3.4 0 .8-.2 1.5-.6 2.1-1 1.7-3.1 2.9-5.6 2.9s-4.5-1.1-5.5-2.7c-.4-.7-.7-1.5-.7-2.3 0-1.4.7-2.6 1.8-3.5 1.1-.9 2.7-1.5 4.4-1.5 1.8 0 3.4.6 4.6 1.6zm58.1 14.3 15.3-8.6 5.7-3.2 4.4-2.5 5-2.8" class="st3"/><path d="m270 179.8-3.9-2.3-5.5-3-4.6-2.6-26.1-14.7" class="st3"/><path d="M265 172c1 .9 1.6 2.1 1.6 3.4 0 .8-.2 1.5-.6 2.1-1 1.7-3.1 2.9-5.6 2.9s-4.5-1.1-5.5-2.7c-.4-.7-.7-1.5-.7-2.3 0-1.4.7-2.6 1.8-3.5 1.1-.9 2.7-1.5 4.4-1.5 1.9 0 3.5.6 4.6 1.6zm-210.8 3.4c0 2.8-2.2 5-5 5s-5-2.2-5-5 2.2-5 5-5 5 2.2 5 5zM3.9 152.2h11.3v5H3.9zm41.8 0H57v5H45.7zm41.8 0h11.3v5H87.5zm41.8 0h11.3v5h-11.3zm41.8 0h11.3v5h-11.3zm41.8 0h11.3v5h-11.3zm41.8 0H266v5h-11.3z" class="st3"/></g><g id="_レイヤー_2"><path d="M269.2 117.7c0 1.3.1 2.7.1 3.8-1.6-.9-16.9-6.1-22.6-7.7-5.7-1.5-19.3-4.4-23.1-6.3-3.8-1.9-8-4.7-8-4.7h-.1c.5-1.3.9-2.6 1.1-3.4 0 0 4.2 2.8 8 4.7 3.8 1.9 17.4 4.8 23.1 6.3 5.6 1.5 19.6 6.3 21.5 7.3z" class="st4"/><path d="M269 113.9c.1 1.1.1 2.4.2 3.8-1.9-1-15.9-5.8-21.5-7.3-5.7-1.5-19.3-4.4-23.1-6.3-3.8-1.9-8-4.7-8-4.7.1-.4.1-.7-.1-.8-.7-.6-4.9-.8-4.9-.8.3-.1.6-.2.7-.3-1.1-1.2-2.7-2.9-4.3-4.8 5.5 2.7 17.2 8.6 25.5 10.9 8.3 2.3 29.9 7.9 35.5 10.3z" class="st4"/><path d="M247.4 90.2c1.2.2 2.5.4 3.7.5 1.3.1 2.5.2 3.4.1.6.3 3.3 1.9 4.4 4.1 1.2 2.5 10 15.6 10 16.4 0 .2.1 1.2.1 2.5h-.1c-5.6-2.3-27.2-8-35.5-10.3-8.3-2.3-20-8.3-25.5-10.9-.3-.4-.6-.7-1-1.1-.9-1-1.7-2-2.6-3.1-.8-1-1.7-2.1-2.5-3.1-5.5 2-16.4-1.2-20.6-3.1-.1-.7-.2-1.5-.2-2.2-.1-1.3-.1-2.6 0-3.6.5-4.3 2.7-10.6 8-13.1 1-.5 2.2-.9 3.4-1 1.6-.2 3-.3 4.3-.3.9 0 1.8 0 2.5.1 3.2.2 5.2 1.2 6.3 2.7.2.2.5.6.9 1.1 1.4 1.7 4.1 4.7 7.5 8.4 1.5 1.6 3.2 3.4 5 5.2 1.1 1.2 2.3 2.3 3.4 3.5 1.6 1.6 3.2 3.2 4.9 4.7 0 0 12.7 1.1 16 1.7h.1c1.3.3 2.7.6 4.1.8z" class="st5"/><path d="M269.2 121.5c0 1.9-.1 3.4-.4 3.8-.1.2-.4.4-.7.6-2.6-2.4-12.9-6.1-20.6-7.8-5.7-1.3-10.2-1.4-13.2-1.4h-2.7c-1.5-.1-4.9-1.1-8.3-2.2-2.6-.9-5.1-1.9-6.5-2.6-1.4-.7-2.9-2.4-4.4-4.5-.2-.2-.3-.5-.5-.7 0 0 1.6.1 2-.4.2-.2.8-1.7 1.5-3.4h.1s4.2 2.8 8 4.7c3.8 1.9 17.4 4.8 23.1 6.3 5.7 1.5 21 6.7 22.6 7.6z" class="st4"/><path d="M268.1 125.9c-1.4.9-4.7 2-8.2 2.9-10.4-4.3-15.1-2.4-15.1-2.4-2.1-1.5-4.2-3.3-6-4.9-2.3-2.2-4-4-4.5-4.7v-.1c3 0 7.5.2 13.2 1.4 7.8 1.8 18 5.5 20.6 7.8zM259 75.5c.5 3.9.5 8.5-.8 11.7-.6-3.5-6-17-10.8-21.9-4.7-5-12.8-10-24.1-14.7 1.7-3 10.4-6.7 11.7-7.1 6.1.1 11.5.4 14.8 5.5 3.4 5.1 5.7 9.6 6.5 12.3.9 2.4 2 8.3 2.7 14.2z" class="st6"/><path d="M258.3 87.2c-.6 1.5-1.5 2.6-2.8 3.3-.2-1.1-5.6-11.7-12.1-18.6-3.6-3.9-11.7-7.4-12.1-7.6-1.7-2.1-3.4-4.1-4.3-5.1-.4-.5-.7-.7-.7-.7-.2-.7-.7-1.2-.7-1.2s-13.6-12.6-20-18.7c0 0 7.8-3.5 9.7-4 1.6-.4 6-1 9.2 0 0 0-1.4 14.1-1.1 15.9 11.3 4.7 19.3 9.7 24.1 14.7s10.1 18.6 10.8 22z" class="st6"/><path d="M254.5 90.8c-.8.1-2 .1-3.4-.1-.2-1.2-3.1-8.9-5.5-12.1-2.3-3.2-10.7-9.8-11.2-10.2-.8-1.3-1.9-2.7-3-4 .3.1 8.4 3.6 12.1 7.6 6.4 6.9 11.9 17.5 12.1 18.6l-.6.3c-.2-.1-.4-.1-.5-.1z" class="st4"/><path d="M251.8 129.9c-2.1-.4-4.6-1.8-7-3.5 0 0 4.6-1.9 15.1 2.4-2.2.5-4.4 1-6.5 1.1-.5.2-1 .1-1.6 0z" class="st6"/><path d="M245.6 78.6c2.4 3.3 5.4 11 5.5 12.1-1.2-.1-2.4-.3-3.7-.5-.6-5.9-6.4-14-9.9-15.8-.2-.3-.3-.6-.4-.9-.6-1.1-1.1-2.1-1.5-2.9-.3-.7-.8-1.4-1.3-2.2.6.4 8.9 7 11.3 10.2z" class="st4"/><path d="m249 146.1-3.9 3.3-3.4-3.3-14.9-17.3h4.1l11.1 10.6 7 6.7z" class="st7"/><path d="M251.8 129.9c-5.9 1.9-10.6-1.8-13.4-4.9.1-2.6.4-3.5.4-3.5 1.7 1.6 3.8 3.4 6 4.9 2.4 1.7 4.9 3.1 7 3.5z" class="st6"/><path d="m244.8 136.7-2.8 2.6-11.1-10.6h.5c1.4-.1 2.8-.1 4.3-.3l9.1 8.3z" class="st7"/><path d="M237.6 74.4c3.4 1.8 9.2 9.9 9.9 15.8-1.5-.2-2.9-.5-4-.7h-.1l.1-.4c-.4-3.4-3.6-9.9-5.9-14.7z" class="st4"/><path d="m235.4 74.4 1.7-.9c.2.3.3.6.4.9 2.4 4.8 5.5 11.3 5.9 14.6l-.1.4c-3.3-.6-16-1.7-16-1.7-1.6-1.5-3.3-3.1-4.9-4.7.1.1 11.3-8.6 13-8.6z" class="st5"/><path d="m226.8 128.7 14.9 17.3-4.2 3.3-11.1-13.5-6.3-7.7c.8.1 1.6.2 2.4.2 1.4.3 2.8.4 4.3.4z" class="st7"/><path d="M235.7 128.4c-1.5.1-2.9.2-4.3.3v-.2l.3-11.8h2.7v.1c.5.7 2.2 2.5 4.5 4.7 0 0-.3.9-.4 3.5v3.1c-1 .1-1.9.2-2.8.3z" class="st4"/><path d="M231.4 64.4c1 1.3 2.1 2.7 3 4 .5.8 1 1.5 1.3 2.2.4.8.9 1.8 1.5 2.9l-1.7.9c-1.7 0-12.9 8.7-12.9 8.7-1.2-1.2-2.3-2.3-3.4-3.5-1.8-1.8-3.5-3.6-5-5.2-3.4-3.6-6.1-6.7-7.5-8.4.2-2.7 2.5-14 2.5-14 6.1 2.5 16.2 6.7 17.4 6.6 0 0 .2.3.7.7.7 1 2.4 2.9 4.1 5.1z" class="st5"/><path d="m231.7 116.7-.3 11.8v.2h-.5c-1.4 0-2.8.1-4.1 0-1.5 0-2.9-.1-4.3-.2l.9-14.1c3.3 1.2 6.8 2.2 8.3 2.3z" class="st4"/><path d="M226.2 35.5c3 2.1 7.8 4.9 8.9 7.9-1.3.5-10 4.1-11.7 7.1-.3-1.8 1.1-15.9 1.1-15.9.6.3 1.2.5 1.7.9zm-6.1 92.8 6.3 7.7s-7.3 2.3-12.4 2.9c-5.1.6-11.3 4-13.8 6.2s-9.7-1.1-9.7-1.1c1.1-.6 2.7-1.5 4.5-2.5.8-.5 1.7-1 2.7-1.5 1.2-.7 2.5-1.5 3.7-2.3 5.5-3.4 10.9-7.4 12.6-10.3 2 .3 4 .7 6.1.9z" class="st6"/><path d="M226.5 58.5c-1.3.1-11.3-4.1-17.4-6.6-.6-.2-1.1-.4-1.6-.6-1.5-.6-3.2-1.7-4.9-3-4.9-3.7-9.8-9.2-11.4-10.4-3.3-2.5-14.3-10.8-14.6-11.2-.3-.3-1.8-.5-2.1 0-.3.5-5.5 4.9-6.3 5.2-.4.1-.7 1.3-.7 2.1l-1 .2c-.4-2.2-.4-5.1.7-8 1-2.5 7.4-8 10.8-8.6 3.5-.6 8.3 2.1 11.2 4.7 2.9 2.6 10.4 10.2 13.5 13.4.5.5 1.5 1.5 2.9 2.8 6.4 6.1 20.1 18.7 20.1 18.7s.5.6.8 1.3z" class="st1"/><path d="m223.4 114.4-.9 14.1c-.8-.1-1.6-.1-2.4-.2-2.1-.2-4.1-.6-6.1-1l2.8-15.4c1.5.7 4 1.7 6.6 2.5z" class="st4"/><path d="m216.9 111.9-2.8 15.4c-2.1-.4-4.2-1-6.1-1.6l4.6-18.4c1.4 2.1 2.9 3.9 4.3 4.6z" class="st4"/><path d="M216.4 98.6c.1.1.1.4.1.8-.1.8-.6 2.2-1.1 3.4-.6 1.6-1.3 3.1-1.5 3.4-.4.5-2 .4-2 .4-1-1.6-2.1-3.3-3-4.8-.7-1.2-1.4-2.3-2-3.2 2-.2 3.6-.5 4.6-.8.1 0 4.3.1 4.9.8z" class="st6"/><path d="m212.5 107.3-4.6 18.4c-2.8-.9-5.4-2-7.9-3.1-.5-.2-.9-.5-1.4-.7l10.3-20.1c.9 1.5 2 3.2 3 4.8.3.2.4.5.6.7zm-.3-9.8c-.1.1-.4.2-.7.3-.9.3-2.6.5-4.6.8-2.1.2-4.5.4-6.7.5-3.5.2-6.7.3-7.5.3-.5 0-1.3-.1-2.2-.3-1.4-.3-2.9-.8-4.2-1.3-1-.4-1.8-.9-2-1.4-.4-1.1-.9-3.2-1.5-5.6l.3-.1c3.2.9 21 2.1 23.8.8.3.4.6.7 1 1.1 1.7 2 3.2 3.7 4.3 4.9z" class="st4"/><path d="m209 101.8-10.3 20.1c-2.6-1.3-4.9-2.7-7-4.2L207 98.6c.6.9 1.3 2 2 3.2z" class="st4"/><path d="m209 51.9-9.6 10.2c-.8-.1-1.6-.1-2.5-.1.3 0 .6-.1 1-.4l4.7-13.3c1.7 1.3 3.4 2.4 4.9 3 .4.2.9.4 1.5.6zm-9.6 10.2 9.6-10.2s-2.3 11.3-2.5 14c-.4-.5-.7-.9-.9-1.1-1.1-1.5-3-2.4-6.2-2.7zm8.5 63.6c1.9.6 4 1.2 6.1 1.6-1.7 3-7.2 6.9-12.6 10.3-.9-4.3-5.6-10.9-7.5-12.7 2.8-1 6.1-2.4 6.1-2.4 2.5 1.3 5.1 2.3 7.9 3.2z" class="st5"/><path d="m207 98.6-15.4 19.2c-2.1-1.4-4.1-2.9-5.8-4.4l14.4-14.3c2.3-.1 4.7-.3 6.8-.5zm-2.6-10.1c.9 1.1 1.7 2.1 2.6 3.1-2.8 1.3-20.6.1-23.8-.8l-.3.1c-.2-.7-.3-1.4-.5-2.1-.2-.7-.3-1.4-.4-2.1h.3c3.6 1.2 17.8 3.4 22.1 1.8z" class="st4"/><path d="M201.9 85.4c.8 1 1.6 2.1 2.5 3.1-4.2 1.6-18.4-.6-22.1-2h-.3c-.1-.7-.2-1.5-.4-2.2l-.3-2.1c4.2 2 15.1 5.1 20.6 3.2z" class="st4"/><path d="M190.5 54.4c-2 .9-4.5 1.3-6.7 1.3-1.7 0-3.3-.2-4.5-.7-1.7-.6-3.6-3.1-5.3-6.3l1.9-.3c-.3-.5-.9-4.2-1.2-7.2l-1 .1c-.3.1-2.1.9-2.1.9l-.6.3c-1.4-3.2-2.6-6.3-3.3-8.3 0-.9.3-2.1.7-2.1.8-.3 5.9-4.7 6.3-5.2.3-.5 1.8-.3 2.1 0 .3.3 11.3 8.7 14.6 11.2 1.5 1.2 6.5 6.7 11.4 10.4l-4.7 13.3c-.4.3-.7.4-1 .4-.4 0-.8-.2-1.1-.4l-5.2-7.2c-.2-.1-.3-.2-.3-.2zm-13.6-22.3c.6-.3 1-.8.9-1.1-.1-.3-.8-.4-1.4-.1-.6.3-1 .8-.9 1.1.2.3.8.4 1.4.1zm-6 2.8c.5-.4.8-1 .6-1.3-.2-.3-.9-.2-1.4.2-.5.4-.8 1-.6 1.3.2.4.9.3 1.4-.2z" class="st8"/><path d="M201.5 137.7c-1.3.8-2.5 1.6-3.7 2.3-.3-3.8-5.3-11.3-7.8-14 .6 0 1.2-.1 1.6-.2.6-.2 1.5-.4 2.4-.7 1.8 1.6 6.5 8.3 7.5 12.6zm-1.3-38.6-14.4 14.3c-2-1.7-3.9-3.3-5.5-4.8l6.1-5.6 4.2-3.8c.9.2 1.7.3 2.2.3.8-.1 3.9-.2 7.4-.4z" class="st4"/><path d="M175.4 126c-.2 0-.5.1-.8.4l-.2-.4c-2.5 0-11.3-7.2-17.3-11.6-4.8-3.5-11.9-11.1-12.2-11.5 2.6.1 6.4.4 10.2.6 6.3.4 12.7.7 15 .7 4.6 0 16.2-2.5 16.2-2.5v1.1l-6.1 5.6c1.6 1.5 3.5 3.1 5.5 4.8 1.8 1.4 3.7 2.9 5.8 4.4 2.1 1.5 4.5 2.9 7 4.2.5.2.9.5 1.4.7 0 0-3.3 1.5-6.1 2.4-.9.3-1.7.6-2.4.7-.4.1-1 .2-1.6.2-1.1.1-2.6.1-4.2.1-2.9.1-6.5.1-10.2.1zm21.4-63.9c-1.3.1-2.7.2-4.3.4-1.3.2-2.4.5-3.4 1-.9-2.7-5.3-7.6-5.3-7.6v-.2c2.2 0 4.7-.4 6.7-1.3l.1.1 5.2 7.2c.2.1.6.4 1 .4z" class="st5"/><path d="M197.7 139.9c-.9.5-1.8 1.1-2.7 1.5.6-3.8-6.1-11.9-9.3-15.4 1.6 0 3 0 4.2-.1 2.5 2.7 7.5 10.2 7.8 14z" class="st4"/><path d="M185.8 126c3.2 3.6 9.9 11.6 9.3 15.4-1.8 1-3.4 1.9-4.5 2.5-1.3.7-2 1.1-2 1.1-.8-2.6-3.3-6.6-5.8-10.1-2.6-3.7-5.2-6.9-5.8-7.5-.6-.6-1-1.4-1.6-1.4 3.7-.1 7.4 0 10.4 0z" class="st4"/><path d="m190.6 99.1-4.2 3.8v-5.1c1.2.6 2.8 1 4.2 1.3z" class="st5"/><path d="M188.5 145c-.5.3-1.8 1-2.8.8-1-.2-6.3-2.3-8.7-2.8-2-2.2-6.9-6.2-6.9-6.2l-.1-.3c4.1-1 10.1-2.3 12.6-1.6 2.6 3.6 5.1 7.5 5.9 10.1z" class="st6"/><path d="M167.7 91.5s.1 0 .1-.1l-.1-.1c.5-2.4 1.1-4.9 1.7-7.3.2-.9.4-1.7.6-2.5h.1s7.2 7.3 12.2 7.2c.2.7.3 1.4.5 2.1.6 2.4 1.1 4.4 1.5 5.6.2.5 1 1 2 1.4v4s-11.6 2.5-16.2 2.5c-2.3 0-8.8-.4-15-.7v-.3s.3-.4.9-1.1c1.2-1.5 3.6-4.2 6.1-6.6 1.9-1.8 3.9-3.4 5.6-4.1zm16.1-35.7s4.3 4.9 5.3 7.6c-5.2 2.5-7.4 8.8-8 13.1-.1 1-.1 2.3 0 3.6h-.1c-2.9.1-9.6-3.4-9.6-3.4h-.1c.3-1 .6-1.8.7-2.4 1.8-5.4 2.2-7.2 3.3-10.9.4-1.5 1-2.9 1.6-4.2.3-.7.6-1.3.9-1.8.7-1.3 1.2-2.3 1.4-2.5 1.2.4 2.8.7 4.5.7l.1.2z" class="st5"/><path d="M176.9 127.4c.6.6 3.1 3.8 5.8 7.5-2.4-.7-8.5.6-12.6 1.6-2.4.6-4.2 1.1-4.2 1.1.4-.6.9-1.1 1.3-1.7 2.3-2.9 4.6-6 5.7-7.7.3-.5.6-.9.9-1.2.2-.3.5-.5.7-.7.3-.3.6-.4.8-.4.7.1 1 .9 1.6 1.5z" class="st6"/><path d="M182.4 88.7c-5 .2-12.2-7.2-12.2-7.2h-.1c.3-1 .5-2 .8-2.8h.1s5.1 4.5 10.7 5.7c.1.7.2 1.5.4 2.2 0 .7.2 1.4.3 2.1z" class="st4"/><path d="m181.3 82.3.3 2.1c-5.6-1.2-10.7-5.7-10.7-5.7h-.1c.2-.7.4-1.4.6-2h.1s6.7 3.6 9.6 3.4h.1c0 .7 0 1.5.1 2.2z" class="st4"/><path d="M179.2 54.9c-.2.2-.7 1.1-1.4 2.5l-1.6-.9c-1.6-.9-5.6-7.2-6.7-12.1 0 0-.7-2.2-1.4-4.6-.7-2.2-1.3-4.5-1.5-5.4v-.2l1-.2c.7 1.9 1.9 5 3.3 8.3.9 2.1 2 4.3 3.1 6.2 1.7 3.3 3.5 5.8 5.2 6.4zM177.8 31c.2.3-.2.8-.9 1.1-.6.3-1.3.2-1.4-.1-.2-.3.2-.8.9-1.1.6-.3 1.3-.2 1.4.1z" class="st1"/><path d="m176.3 56.5 1.6.9c-.3.5-.6 1.2-.9 1.8-1-3.4-26.5-20.3-40.5-27.5 8-2.5 18.9-.2 18.9-.2l12.7 8.4c.7 2.4 1.4 4.6 1.4 4.6 1.1 4.8 5.2 11.1 6.8 12z" class="st6"/><path d="M177 59.2c-.6 1.3-1.1 2.7-1.6 4.2-1.1 3.7-1.4 5.5-3.3 10.9-.2.5-.4 1.3-.7 2.4-.2.6-.4 1.3-.6 2-.2.9-.5 1.8-.8 2.8-.2.8-.4 1.6-.6 2.5-1.2-1.1-10.7-10.3-19.7-16.8-9.6-7-33.4-15.3-33.4-15.3s3.7-3.9 7-7.9c1.2-1.4 2.3-2.9 3.2-4.2 3.4-5 9.9-8.1 9.9-8.1 14.1 7.2 39.6 24.1 40.6 27.5z" class="st5"/><path d="M177 143c-2.4-.5-7 .7-11 1.5s-5.2-.5-4.6-1.5c.3-.2 1.3-1.4 2.6-3.1.5-.7 1.2-1.5 1.8-2.3 0 0 1.8-.5 4.2-1.1l.1.3c.1 0 5 4 6.9 6.2z" class="st6"/><path d="m175.8 48.3-1.9.3c-1.1-1.9-2.1-4.1-3.1-6.2l.6-.3s1.9-.8 2.1-.9l1-.1c.5 3 1 6.7 1.3 7.2z" class="st8"/><path d="m174.3 126 .2.4-.7.7c-5.3 0-17-8.4-20.3-10.9-3.3-2.5-13.7-13.2-13.7-13.2.7-.1 1.3-.1 1.6-.1.5 0 1.7 0 3.4.1.3.3 7.4 7.9 12.2 11.5 6.1 4.4 14.8 11.5 17.3 11.5z" class="st4"/><path d="M173.9 127.1c-.3.3-.6.7-.9 1.2-7.5 2.3-20.3-8.5-22.7-10.6-2.4-2-16-14-16-14 1.1-.2 2.2-.3 3.2-.4 1-.1 1.8-.2 2.5-.3 0 0 10.4 10.7 13.7 13.2 3.2 2.5 14.9 10.9 20.2 10.9z" class="st4"/><path d="M171.5 33.7c.2.3 0 .9-.6 1.3-.5.4-1.2.5-1.4.2-.2-.3 0-.9.6-1.3.5-.4 1.2-.6 1.4-.2z" class="st1"/><path d="M150.2 117.7c2.4 2 15.2 12.8 22.7 10.6-1.2 1.7-3.5 4.8-5.7 7.7-1.5.5-4.8-.3-7.5-1-2.1-.6-3.7-1.2-3.7-1.2-8.8-6.4-13.4-12.5-17.1-16-3.7-3.6-9.1-8.4-13.4-9.2-4.3-.8-6.9-1.2-6.9-1.2.3-.4 1.6-.9 3.4-1.3 3.2-.8 8.1-1.7 12.1-2.3.1-.1 13.7 11.9 16.1 13.9z" class="st5"/><path d="M169.4 84c-.6 2.4-1.2 4.9-1.7 7.3-7.1-8-24.7-26.8-51.6-39.1l.2-.4s23.8 8.3 33.4 15.3c9 6.7 18.6 15.8 19.7 16.9z" class="st7"/><path d="M167.7 91.3v.2c-1.7.7-3.7 2.3-5.6 4.1-1.3-2-23.9-18.8-36.7-24.1-12.8-5.3-29.3-10.4-41.1-13.9.9-.6 1.6-1.4 2.1-1.9.5-.6 1.6-2.3 2.8-4.3 1.4-2.4 3.1-5.1 4.6-6.9 3.4.8 6.6 1.8 9.8 2.8 4.5 1.5 8.7 3.2 12.7 5 26.7 12.2 44.4 31.1 51.4 39z" class="st7"/><path d="M84.2 118.4c2.8.1 6.4 0 9.6-.4.3.4 10.8 13.2 16.2 16.9 5.9 4.1 16.1 7.7 24.2 7.9 8.2.2 21.9-4.8 25.5-7.9 2.6.7 6 1.5 7.5 1-.4.6-.9 1.2-1.3 1.7-.6.8-1.2 1.6-1.8 2.3-2.5 1.4-11.5 5.3-24.2 8.5-8 2-15.8.2-22.6-2.6-4-1.6-7.7-3.6-10.9-5.3-3.8-2-8.5-5.6-12.8-9.3-5.1-4.4-9.5-9-11-11.3-.8-1.2-1.3-1.7-1.8-1.8.8.2 2.1.3 3.4.3z" class="st4"/><path d="M162.1 95.6c-2.5 2.4-4.9 5.2-6.1 6.6-1.5-1.8-28.1-18-39.7-22.6-11.6-4.6-32.6-7-47.5-9.4 1.3-.8 2.3-3.4 2.9-5.3.4-1.1 1-2.7 1.9-4.7 1.6-3.5 3.9-7.9 6.9-11.8-.1.2-1 2.6 0 7.3.7 3.1 2.3 2.8 3.7 1.8 11.8 3.5 28.4 8.6 41.1 13.9 12.9 5.4 35.5 22.2 36.8 24.2z" class="st7"/><path d="M156 133.8s1.6.6 3.7 1.2c-3.6 3.1-17.4 8.1-25.5 7.9-8.2-.2-18.3-3.8-24.2-7.9-5.3-3.7-15.8-16.5-16.2-16.9.8-.1 1.6-.2 2.3-.4.6-.1 1.3-.2 2.1-.4 2 2 8.6 10.3 13.1 13.7 5.1 3.8 13.6 7.2 20.5 8.1 9.5 1.3 19.4-1.9 24.2-5.3z" class="st4"/><path d="M144.9 103c-1.7-.1-3-.1-3.4-.1-.3 0-.8 0-1.6.1-.7.1-1.6.2-2.5.3-7.2-8.7-22.4-13.7-34.5-18.1-12.1-4.4-30.1-6.8-52.7-9.7.8-.5 1.6-1.6 2.4-2.5 1-1.3 1.8-3.1 2.7-5.5.8-2.3 1.7-5.3 2.9-8.9 0 0 5.3 7.1 8 10.7 1 1.4 1.9 1.5 2.7 1 14.9 2.4 35.9 4.7 47.5 9.4 11.6 4.6 38.1 20.9 39.7 22.6-.6.7-.9 1.1-.9 1.1v.3c-3.9-.4-7.7-.6-10.3-.7z" class="st7"/><path d="M156 133.8c-.5.2-2.2.2-4.4 0-5.8-.5-15.2-2.3-17.1-3.8-2.6-2.1-10.6-11.1-12.6-14.3-.7-1.1-1.4-2.3-1.9-3.4-1-2-1.6-3.8-1.4-4.9 0 0 2.6.5 6.9 1.2 4.3.7 9.7 5.5 13.4 9.2 3.7 3.5 8.3 9.5 17.1 16z" class="st6"/><path d="M151.6 133.8c2.2.2 3.8.2 4.4 0-4.9 3.4-14.7 6.7-24.2 5.4-7-.9-15.4-4.3-20.5-8.1-4.5-3.4-11.2-11.8-13.1-13.7 1-.2 2.2-.5 3.5-.8 8.4 8.5 14.8 15.7 25.6 18.4 10.9 2.6 18.2 2.5 24.3-1.2z" class="st4"/><path d="M151.6 133.8c-6.1 3.7-13.5 3.9-24.3 1.2s-17.2-9.9-25.6-18.4c7.5-1.7 18.4-4.3 18.4-4.3.5 1.1 1.2 2.2 1.9 3.4 2 3.2 10 12.2 12.6 14.3 1.8 1.4 11.3 3.2 17 3.8z" class="st5"/><path d="M137.3 103.3c-1 .1-2 .3-3.2.4-4.1.6-8.9 1.4-12.1 2.3l-.1-.4s-9.7-4.1-19.1-7.7c-2.1-.8-4.1-1.6-6.1-2.3-8.1-3-56.9-9.8-62.8-9.5 3.5-.8 10.6-8.5 11.6-17.1.1-.5.1-1.1.1-1.6 0 0 .1 1.4.5 3.5 1.2 4.9 2.6 5.5 4 4.5 22.5 2.9 40.6 5.3 52.7 9.7 12.1 4.5 27.4 9.4 34.5 18.2zm-14-59.3c-3.3 4.1-7 7.9-7 7.9l-1.3-9.6-.3-2.4c2.6-.1 8.6 4.1 8.6 4.1z" class="st7"/><path d="M93.8 118.1c-3.2.4-6.7.5-9.6.4C73.1 109 69 94.3 68.9 93.9c11.5 1.4 25.4 3.2 33.9 4 9.4 3.6 19.1 7.7 19.1 7.7l.1.4c-1.8.5-3.1.9-3.4 1.3-.2 1.1.4 2.9 1.4 4.9 0 0-10.9 2.6-18.4 4.3-1.3.3-2.5.6-3.5.8-.8.2-1.5.3-2.1.4-.7.2-1.4.3-2.2.4zm21.3-75.7 1.3 9.6-.2.4c-4-1.8-8.3-3.5-12.7-5 2.5-3.3 5.9-4.2 11.3-4.8l.3-.2z" class="st5"/><path d="M117.3 145.8s-12.4.3-20.9.9c-8.5.5-13.1 4.3-16.5 4.6-1.6.1-3.6-1-5.6-2.4-.7-.5-4.9-15.6-6.4-17.5 1.3.1 3.5.2 6.3.3 6.1.3 14.7.4 19.4-.4 4.3 3.7 9 7.3 12.8 9.3 3.2 1.6 6.8 3.6 10.9 5.2z" class="st6"/><path d="M68.9 93.9c-1.3-.2-2.6-.3-3.9-.5-1.7-.2-3.3-.4-4.8-.6-6.1-.8-10.5-1.3-11.2-1.3-.8 0-1.4.2-1.9.7-.8.7-1.4 2-2.3 3.5-.2.4-.6.9-.9 1.4l-.2-.2-10.9-1.1c2.6-.7.6-9.5.6-9.5.2 0 .3 0 .5-.1 5.9-.4 54.7 6.5 62.8 9.5 1.9.7 4 1.5 6.1 2.3-8.5-1-22.4-2.7-33.9-4.1z" class="st7"/><path d="M82.5 120c1.5 2.4 6 6.9 11 11.3-4.7.8-13.3.7-19.4.4v-.9c2.1-2.9 3.5-7 4.3-9.1.2-.4.3-.8.4-1 .2-.4.5-1.9 1.2-2.4.1-.1.2-.1.4-.1h.2c.6.1 1.2.6 1.9 1.8z" class="st6"/><path d="M80.6 48.4s6.6 3.3 8.5 2.9c-1.2 2-2.2 3.7-2.8 4.3-.5.5-1.2 1.3-2.1 1.9-1.4 1-3 1.3-3.7-1.8-.9-4.7 0-7.1.1-7.3z" class="st7"/><path d="M84.2 118.4c-1.4 0-2.6-.1-3.5-.2h-.2c-.1 0-.3 0-.4.1-10.6-9-15-24.4-15.1-24.9 1.3.2 2.6.3 3.9.5.1.4 4.2 15.1 15.3 24.5z" class="st4"/><path d="M80.1 118.3c-.7.4-1 1.9-1.2 2.4-.1.2-.3.6-.4 1-6.8-4.6-16.5-22.8-18.3-28.9 1.5.2 3.1.4 4.8.6.1.5 4.5 15.8 15.1 24.9z" class="st4"/><path d="M78.5 121.7c-.8 2.1-2.2 6.2-4.3 9.1-.6-.4-8.7-10.9-12.5-16.3-.9-1.2-1.5-2.2-1.8-2.7-.6-1.1-1.6-2.6-2.6-4.2-2.7-4.2-6.1-9.3-7-12-1.3-3.6-2.7-3.8-3.2-3.5.5-.4 1.1-.7 1.9-.7.7 0 5.1.6 11.2 1.3 1.8 6.2 11.5 24.3 18.3 29z" class="st4"/><path d="M74.2 130.8v.9c-2.7-.1-5-.3-6.3-.3 0 0 0-.1-.1-.1-1.5-1.5-5.2 2.7-8.5 10.6-1.4-1-2.4-3-2.7-4.1-.2-.7-.8-1.7-1.8-2.8-.5-.7-.6-11.7-1-17.6-.4-5.9-2.4-4.8-3.6-4.5 3-1.3 8.2.2 11.5 1.8 3.8 5.2 11.8 15.6 12.5 16.1z" class="st6"/><path d="M58.2 58.5s13.9 2.1 15.5 1.7c-.9 2-1.5 3.6-1.9 4.7-.7 1.8-1.6 4.4-2.9 5.3-.8.5-1.7.4-2.7-1-2.6-3.6-8-10.7-8-10.7z" class="st7"/><path d="M67.9 131.4c1.5 1.9 5.7 17 6.4 17.5-2.3-1.6-4.7-3.4-6.7-4-2.3-.7-5.9-1.2-8.3-2.9 3.3-8 7-12.3 8.6-10.6-.1-.1-.1-.1 0 0zm-10.7-23.8h-.4s-11.9-.4-14.7-.2c-2.8.1-4.6.1-4.2-1.7.3-1.6 3.8-5.6 5.9-8.6.3-.5.6-.9.9-1.4.9-1.5 1.4-2.7 2.3-3.5.4-.3 1.9-.2 3.2 3.5 1 2.5 4.4 7.7 7 11.9z" class="st6"/><path d="M55.3 67.4c-.9 2.4-1.7 4.2-2.7 5.5-.8.9-1.6 2-2.4 2.5-1.4.9-2.8.4-4-4.5-.4-2.1-.5-3.5-.5-3.5s7.1 1.2 9.6 0z" class="st7"/><path d="M53.8 117.3c.4 5.9.5 16.9 1 17.6-3-3.8-8.9-9.1-10-10-1.5-1.2-2.9-1.7-2.3-2.7.7-.9 3.9-6.2 6.5-8.8.3-.3.7-.6 1.1-.8 1.3-.1 3.3-1.2 3.7 4.7z" class="st6"/><path d="M45.1 69h.4c-1.1 8.6-8.2 16.3-11.6 17.1-.2 0-.4 0-.5.1 0 0 11.1-13.2 11.7-17.2z" class="st7"/><path d="M168.2 39.8c.7 2.4 1.4 4.6 1.4 4.6 1.1 4.9 5.2 11.2 6.7 12.1l1.6.9" class="st9"/><path d="M192.7 53.1c-.6.5-1.4.9-2.2 1.3-2 .9-4.5 1.3-6.7 1.3-1.7 0-3.3-.2-4.5-.7 0 0 0 0 0 0-1.7-.6-3.6-3.1-5.3-6.3-1.1-1.9-2.1-4.1-3.1-6.2-1.4-3.2-2.6-6.3-3.3-8.3 0-.9.3-2.1.7-2.1.8-.3 5.9-4.7 6.3-5.2.3-.5 1.8-.3 2.1 0 .3.3 11.3 8.7 14.6 11.2 1.5 1.2 6.5 6.7 11.4 10.4 1.7 1.3 3.4 2.4 4.9 3 .5.2 1 .4 1.6.6 6.1 2.5 16.2 6.7 17.4 6.6-.2-.7-.7-1.2-.7-1.2s-13.7-12.6-20.1-18.7c-1.3-1.3-2.3-2.2-2.9-2.8-3.1-3.2-10.6-10.8-13.5-13.4-2.9-2.6-7.7-5.3-11.2-4.7-3.4.6-9.8 6.1-10.8 8.6-1.1 2.9-1.2 5.8-.7 8v.2c.2.8.9 3.2 1.5 5.4" class="st9"/><path d="m190.6 54.5 5.2 7.2c.3.1.6.4 1.1.4.3 0 .6-.1 1-.4l4.7-13.3m21.9-13.7s-1.4 14.1-1.1 15.9c11.3 4.7 19.3 9.7 24.1 14.7s10.1 18.5 10.8 21.9" class="st9"/><path d="M223.4 50.5c1.7-3 10.4-6.7 11.7-7.1M207 91.6c-.9-1-1.7-2-2.6-3.1-.8-1-1.7-2.1-2.5-3.1-2.5-3.3-4.5-6.5-4.8-8.6" class="st9"/><path d="M237 96.1c-3-2.3-6.3-5.2-9.6-8.3-1.6-1.5-3.3-3.1-4.9-4.7-1.2-1.2-2.3-2.3-3.4-3.5-1.8-1.8-3.5-3.6-5-5.2-3.4-3.6-6.1-6.7-7.5-8.4-.4-.5-.7-.9-.9-1.1-1.1-1.5-3-2.4-6.3-2.7-.8-.1-1.6-.1-2.5-.1-1.3 0-2.7.1-4.3.3-1.3.2-2.4.5-3.4 1-5.2 2.5-7.4 8.8-8 13.1-.1 1-.1 2.3 0 3.6 0 .7.1 1.4.2 2.2l.3 2.1c.1.7.2 1.5.4 2.2.1.7.3 1.4.4 2.1.2.7.3 1.4.5 2.1.6 2.4 1.1 4.4 1.5 5.6.2.5 1 1 2 1.4 1.2.5 2.8 1 4.2 1.3.9.2 1.7.3 2.2.3.8 0 3.9-.1 7.5-.3 2.3-.1 4.7-.3 6.7-.5s3.6-.5 4.6-.8c.3-.1.6-.2.7-.3-1.1-1.2-2.7-2.9-4.3-4.8-.3-.4-.6-.7-1-1.1" class="st9"/><path d="M181.3 82.3c4.2 1.9 15.1 5 20.6 3.1m-19.7 1.1c3.7 1.4 17.9 3.5 22.1 2h.1m-21.3 2.3c3.2.9 21 2.1 23.8.8h0m1 1.1c5.5 2.7 17.2 8.6 25.5 10.9 8.3 2.3 29.9 7.9 35.5 10.3m-9 15c-2.2.5-4.4 1-6.5 1.1-.5 0-1.1 0-1.6-.1-2.1-.4-4.6-1.8-7-3.5-2.1-1.5-4.2-3.3-6-4.9-2.3-2.2-4-4-4.5-4.7" class="st9"/><path d="m254.3 90.8.1.1c.6.3 3.3 1.9 4.4 4.1 1.2 2.5 10 15.6 10 16.4 0 .2.1 1.2.1 2.5.1 1.1.1 2.4.2 3.8 0 1.3.1 2.7.1 3.8 0 1.9-.1 3.4-.4 3.8-.1.2-.4.4-.7.6-1.4.9-4.7 2-8.2 2.9" class="st9"/><path d="M268.1 125.9c-2.6-2.4-12.9-6.1-20.6-7.8-5.7-1.3-10.2-1.4-13.2-1.4h-2.7c-1.5-.1-4.9-1.1-8.3-2.2-2.6-.9-5.1-1.9-6.5-2.6-1.4-.7-2.9-2.4-4.4-4.5-.2-.2-.3-.5-.5-.7-1-1.6-2.1-3.3-3-4.8-.7-1.2-1.4-2.3-2-3.2l-15.4 19.2m53.3 8.5s4.6-1.9 15.1 2.4h0" class="st9"/><path d="M211.6 97.8s4.2.1 4.9.8c.1.1.1.4.1.8-.1.8-.6 2.2-1.1 3.4-.6 1.6-1.3 3.1-1.5 3.4-.4.5-2 .4-2 .4m4.6-7.2s4.2 2.8 8 4.7c3.8 1.9 17.4 4.8 23.1 6.3 5.6 1.5 19.6 6.3 21.5 7.3h.1m-53.8-14.8s4.2 2.8 8 4.7c3.8 1.9 17.4 4.8 23.1 6.3 5.7 1.5 21 6.8 22.6 7.7h0m-34.8-53.2c.5.8 1 1.5 1.3 2.2.4.8.9 1.8 1.5 2.9.2.3.3.6.4.9 2.4 4.8 5.5 11.3 5.9 14.6m-17-30.5s.2.3.7.7c.9 1 2.6 3 4.3 5.1 1 1.3 2.1 2.7 3 4" class="st9"/><path d="M227.4 87.8s12.7 1.1 16 1.7h.1c1.1.2 2.5.5 4 .7 1.2.2 2.5.4 3.7.5 1.3.1 2.5.2 3.4.1.2 0 .3 0 .4-.1l.6-.3c1.3-.7 2.2-1.8 2.8-3.3h0c1.3-3.2 1.3-7.8.8-11.7-.7-5.9-1.8-11.8-2.6-14.4-.8-2.6-3.1-7.2-6.5-12.3-3.3-5.1-8.8-5.4-14.8-5.5-1.2-3.1-5.9-5.8-8.9-7.9-.5-.3-1.1-.6-1.7-.8-3.2-1-7.7-.4-9.2 0-1.8.5-9.7 4-9.7 4" class="st9"/><path d="M231.4 64.4h0c.3.1 8.4 3.6 12.1 7.6 6.4 6.9 11.9 17.5 12.1 18.6" class="st9"/><path d="M234.4 68.4h0c.5.4 8.9 7 11.2 10.2 2.4 3.3 5.4 11 5.5 12.1" class="st9"/><path d="M237.6 74.4c3.4 1.8 9.2 9.9 9.9 15.8m-25-7.1s11.2-8.7 12.9-8.7h.1m-16.4 5.2s9.6-11.6 11.3-12.4m-12.9 4.3 9.6-12.3m-11.6-1.6s-2.2 11.1-1.5 16.8m-37-15.2c-1-3.4-26.5-20.3-40.5-27.5 8-2.5 18.9-.2 18.9-.2l12.7 8.4h0" class="st9"/><path d="M179.3 54.9h0s0 0 0 0c-.2.2-.8 1.2-1.5 2.5-.3.5-.6 1.2-.9 1.8h0c-.6 1.3-1.1 2.7-1.6 4.2-1.1 3.7-1.4 5.5-3.3 10.9-.2.5-.4 1.3-.7 2.4-.2.6-.4 1.3-.6 2-.2.9-.5 1.8-.8 2.8-.2.8-.4 1.6-.6 2.5-.6 2.4-1.2 4.9-1.7 7.3v.2c-.8 3.8-1.3 7.3-1.2 9.3m12.9-45.9s0 0 0 0" class="st9"/><path d="M136.5 31.7s-6.5 3.1-9.9 8.1c-.9 1.3-2 2.8-3.2 4.2-3.3 4-7 7.9-7 7.9s23.8 8.3 33.4 15.3c9 6.6 18.5 15.7 19.7 16.8l.1.1" class="st9"/><path d="M123.3 44s-6-4.2-8.6-4.1l.3 2.4 1.3 9.6m-1.6-9.5c-5.4.6-8.8 1.5-11.3 4.8m-22.8 1.2s0 0 0 0c-3 3.9-5.3 8.4-6.9 11.9-.9 2-1.5 3.6-1.9 4.7-.7 1.8-1.6 4.4-2.9 5.3-.8.5-1.7.4-2.7-1-2.7-3.6-8-10.7-8-10.7-1.2 3.7-2.1 6.6-2.9 8.9-.9 2.4-1.7 4.2-2.7 5.5-.8.9-1.6 2-2.4 2.5-1.4.9-2.8.4-4-4.5-.4-2.1-.5-3.5-.5-3.5 0 .5-.1 1.1-.1 1.6-1.1 8.6-8.2 16.3-11.6 17.1-.2 0-.3.1-.5.1.1 0 .3-.1.5-.1 5.9-.4 54.7 6.5 62.8 9.5 1.9.7 4 1.5 6.1 2.3 9.4 3.6 19.1 7.7 19.1 7.7" class="st9"/><path d="m167.8 91.5-.1-.1c-7.1-8-24.7-26.8-51.6-39.1-4-1.8-8.3-3.5-12.7-5-3.2-1.1-6.4-2-9.8-2.8-1.4 1.7-3.1 4.5-4.6 6.9-1.2 2-2.2 3.7-2.8 4.3-.5.5-1.2 1.3-2.1 1.9-1.4 1-3 1.3-3.7-1.8-1-4.7-.1-7.1 0-7.3" class="st9"/><path d="M84.3 57.6c11.8 3.5 28.4 8.6 41.1 13.9 12.8 5.3 35.4 22.1 36.7 24.1" class="st9"/><path d="M155.1 103.3s.3-.4.9-1.1c1.2-1.5 3.6-4.2 6.1-6.6 1.9-1.8 3.9-3.4 5.6-4.1 0 0 .1 0 .1-.1" class="st9"/><path d="M68.9 70.2c14.9 2.4 35.9 4.7 47.5 9.4 11.6 4.6 38.1 20.9 39.7 22.6M50.2 75.5c22.5 2.9 40.6 5.3 52.7 9.7 12.1 4.4 27.3 9.3 34.5 18.1m53.2-4.2-4.2 3.8-6.1 5.6c1.6 1.5 3.5 3.1 5.5 4.8 1.8 1.4 3.7 2.9 5.8 4.4 2.1 1.5 4.5 2.9 7 4.2.5.2.9.5 1.4.7 2.4 1.2 5 2.2 7.9 3.1 1.9.6 4 1.2 6.1 1.6 1.9.4 4 .7 6.1 1 .8.1 1.6.2 2.4.2 1.4.1 2.8.2 4.3.2h4.6c1.4-.1 2.8-.1 4.3-.3l2.7-.3V125c.1-2.6.4-3.5.4-3.5m-53-8.1 14.4-14.3m-1.6 22.8 10.4-20.1m3.5 5.5-4.6 18.4m14.6 2.8.9-14.1m8 14.1.3-11.8" class="st9"/><path d="M238.4 125h0c2.7 3.1 7.5 6.8 13.4 4.9 3.9-1.2 3.9-1.2 0 0m-31.7-1.6 6.4 7.7 11.1 13.4 4.1-3.3-14.9-17.4m14.9 17.4 3.4 3.3 3.9-3.3-7-6.8-11.1-10.6" class="st9"/><path d="m242 139.3 2.8-2.6-9.1-8.3-.2-.1m-71.4 11.6c-1.3 1.6-2.3 2.8-2.6 3.1-.6 1 .6 2.3 4.6 1.5 4-.8 8.6-2 11-1.5 2.4.5 7.8 2.5 8.7 2.8 1 .2 2.3-.5 2.8-.8" class="st9"/><path d="M173.9 127.1c-.3.3-.6.7-.9 1.2-1.2 1.7-3.5 4.8-5.7 7.7-.4.6-.9 1.2-1.3 1.7-.6.8-1.2 1.6-1.8 2.3m52.7-28.1-2.8 15.4c-1.7 3-7.2 6.9-12.6 10.3-1.3.8-2.5 1.6-3.7 2.3-.9.5-1.8 1.1-2.7 1.5-1.8 1-3.4 1.9-4.5 2.5-1.3.7-2 1.1-2 1.1-.8-2.6-3.3-6.6-5.8-10.1-2.6-3.7-5.2-6.9-5.8-7.5-.6-.6-1-1.4-1.6-1.4-.2 0-.5.1-.8.4l-.7.7m16.7 16.9s7.1 3.3 9.7 1.1c2.5-2.2 8.7-5.5 13.8-6.2 5.1-.6 12.4-2.9 12.4-2.9" class="st9"/><path d="M175.3 126h0c3.7-.1 7.4 0 10.4 0 1.6 0 3 0 4.2-.1.6 0 1.2-.1 1.6-.2.6-.2 1.5-.4 2.4-.7 2.8-1 6.1-2.4 6.1-2.4m-6 2.4c1.9 1.7 6.6 8.4 7.5 12.7" class="st9"/><path d="M190 125.9c2.5 2.7 7.4 10.2 7.8 14m-12-13.9c3.2 3.6 9.9 11.6 9.3 15.4m-8.7-43.6v5.1m0-1.1s-11.6 2.5-16.2 2.5c-2.3 0-8.8-.4-15-.7-3.8-.2-7.6-.4-10.2-.6-1.7-.1-3-.1-3.4-.1-.3 0-.8 0-1.6.1-.7.1-1.6.2-2.5.3-1 .1-2 .3-3.2.4-4.1.6-8.9 1.4-12.1 2.3-1.8.5-3.1.9-3.4 1.3-.2 1.1.4 2.9 1.4 4.9.5 1.1 1.2 2.2 1.9 3.4 2 3.2 10 12.2 12.6 14.3 1.9 1.5 11.3 3.3 17.1 3.8 2.2.2 3.8.2 4.4 0-8.8-6.4-13.4-12.5-17.1-16-3.7-3.6-9.1-8.4-13.4-9.2-4.3-.8-6.9-1.2-6.9-1.2m37.2 26.5s1.6.6 3.7 1.2c2.6.7 6 1.5 7.5 1" class="st9"/><path d="M144.9 103h0c.3.3 7.4 7.9 12.2 11.5 6 4.4 14.7 11.6 17.3 11.6m-40.2-22.4 16 14c2.4 2 15.2 12.8 22.7 10.6" class="st9"/><path d="M139.9 103s10.4 10.7 13.7 13.2c3.3 2.5 15 10.9 20.3 10.9h0M47 92.1c-.8.7-1.4 2-2.3 3.5-.2.4-.6.9-.9 1.4-2.1 3.1-5.6 7.1-5.9 8.6-.4 1.8 1.4 1.8 4.2 1.7 2.8-.1 14.7.3 14.7.3" class="st9"/><path d="M65 93.4c-1.7-.2-3.3-.4-4.8-.6-6.2-.8-10.5-1.3-11.3-1.3-.8 0-1.4.2-1.9.7m55.8 5.7c-8.6-.8-22.4-2.6-33.9-4-1.3-.2-2.6-.3-3.9-.5m15.7 24.8c.5.1 1 .6 1.8 1.8 1.5 2.4 6 6.9 11 11.3 4.3 3.7 9 7.3 12.8 9.3 3.2 1.7 6.9 3.6 10.9 5.3 6.8 2.8 14.6 4.6 22.6 2.6 12.7-3.2 21.7-7.1 24.2-8.5h0" class="st9"/><path d="M47 92.1s0 0 0 0c.5-.3 1.9-.2 3.2 3.4 1 2.7 4.3 7.8 7 12 1 1.6 2 3.1 2.6 4.2.3.5 1 1.5 1.8 2.7 3.8 5.4 11.9 15.8 12.5 16.3 2.1-2.9 3.5-7 4.3-9.1.2-.4.3-.8.4-1 .2-.4.5-1.9 1.2-2.4.1-.1.2-.1.4-.1m39.7-5.9s-10.9 2.6-18.4 4.3c-1.3.3-2.5.6-3.5.8-.8.2-1.5.3-2.1.4-.7.1-1.5.2-2.3.4-3.2.4-6.7.5-9.6.4-1.4 0-2.6-.1-3.5-.2h-.2" class="st9"/><path d="M101.7 116.5c8.4 8.5 14.8 15.7 25.6 18.4 10.8 2.7 18.2 2.6 24.3-1.2" class="st9"/><path d="M98.2 117.3c2 2 8.6 10.3 13.1 13.7 5.1 3.8 13.6 7.2 20.5 8.1 9.5 1.3 19.3-2 24.2-5.4" class="st9"/><path d="M93.8 118.1h0c.3.4 10.8 13.2 16.2 16.9 5.9 4.1 16.1 7.7 24.2 7.9 8.2.2 21.9-4.8 25.5-7.9M60.2 92.8c1.8 6.1 11.6 24.3 18.3 28.9M65 93.4h0c.1.5 4.5 15.9 15.1 24.9M68.9 93.9h0c.1.5 4.2 15.1 15.3 24.6 0 0 0 0 0 0m-34-5.8c-.4.2-.8.5-1.1.8-2.5 2.6-5.8 7.8-6.5 8.8-.7.9.8 1.5 2.3 2.7 1.1.9 7 6.2 10 10 .9 1.1 1.6 2.1 1.8 2.8.3 1.1 1.3 3.1 2.7 4.1 2.4 1.7 5.9 2.2 8.3 2.9 2 .6 4.4 2.5 6.7 4 2 1.4 4 2.6 5.6 2.4 3.4-.3 7.9-4.1 16.5-4.6 8.5-.5 20.9-.9 20.9-.9m-55.7-31.2c-3.3-1.6-8.5-3.1-11.5-1.8" class="st9"/><path d="M59.3 141.9c3.3-7.9 7-12.1 8.5-10.6 0 0 0 .1.1.1 1.5 1.9 5.7 17 6.4 17.5" class="st9"/><path d="M66.8 131.3s.4 0 1.1.1c1.3.1 3.5.2 6.3.3 6.1.3 14.7.4 19.4-.4m-43.4-18.6h0c1.2-.2 3.2-1.3 3.6 4.5.4 5.9.5 16.9 1 17.6m115.4 2s4.9 4 6.9 6.2" class="st9"/><path d="M165.9 137.7s1.8-.5 4.2-1.1c4.1-1 10.1-2.3 12.6-1.6m-8.5-97c0 .6.2 1.8.3 3.2.4 2.9.9 6.6 1.2 7.2v.1c.4.3 3-.2 3.4-.6m.2-3.1L181 47m-.2 4.3s1.1.1 1.6-.8m-2.2-11.8s3-1.3 3.7-1.3m-12.4 4.7s1.9-.8 2.1-.9m4.2-10.2c.2.3-.2.8-.9 1.1-.6.3-1.3.2-1.4-.1-.2-.3.2-.8.9-1.1.6-.3 1.3-.2 1.4.1h0zm-6.3 2.7c.2.3 0 .9-.6 1.3-.5.4-1.2.5-1.4.2-.2-.3 0-.9.6-1.3.5-.4 1.2-.6 1.4-.2h0zm12.3 22.1s4.3 4.9 5.3 7.6m10.3-1.3 9.6-10.2s-2.3 11.3-2.5 14m-35 10.8s6.7 3.6 9.6 3.4m-10.9 1.5s7.2 7.3 12.2 7.2m-11.5-10.1s5.1 4.5 10.7 5.7M32.8 95.7c2.6-.7.6-9.5.6-9.5S44.5 73 45.1 69m-1.5 27.8-10.8-1.1m12.9-28.3s7.1 1.2 9.6 0m2.9-8.9s13.9 2.1 15.5 1.7m6.9-11.8s6.6 3.3 8.5 2.9" class="st9"/></g></svg>