<?xml version="1.0" encoding="utf-8"?>
<!-- Generator: Adobe Illustrator 27.9.0, SVG Export Plug-In . SVG Version: 6.00 Build 0)  -->
<svg version="1.1" id="レイヤー_1" xmlns="http://www.w3.org/2000/svg" xmlns:xlink="http://www.w3.org/1999/xlink" x="0px"
	 y="0px" viewBox="0 0 270.3 186.8" style="enable-background:new 0 0 270.3 186.8;" xml:space="preserve">
<style type="text/css">
	.st0{fill:#F3EDD7;}
	.st1{fill:#333333;}
	.st2{fill:#D2D296;}
	.st3{fill:none;stroke:#000000;stroke-miterlimit:10;}
	.st4{fill:#F8DD8C;}
	.st5{fill:#C994AE;}
	.st6{fill:#FE462E;}
	.st7{fill:#FEF1D1;}
	.st8{fill:#FAEAD1;}
	.st9{fill:none;stroke:#000000;stroke-linecap:round;stroke-linejoin:round;}
</style>
<g id="_畳">
	<g>
		<g>
			<rect x="0.2" y="152.2" class="st0" width="3.6" height="5"/>
			<path class="st0" d="M270,179.8v6.6h-30.4l15.4-8.6c1,1.6,3.1,2.7,5.5,2.7s4.6-1.2,5.6-2.9L270,179.8L270,179.8z"/>
			<path class="st0" d="M270,169.2v10.6l-4-2.2c0.4-0.6,0.6-1.4,0.6-2.1c0-1.3-0.6-2.5-1.6-3.4L270,169.2z"/>
			<path class="st0" d="M270,157.2v12l-5,2.8c-1.1-1-2.8-1.6-4.6-1.6s-3.3,0.6-4.4,1.5l-26.1-14.7H270z"/>
			<polygon class="st0" points="270,89.5 270,95.2 1.1,95.2 0.2,95.2 0.2,89.5 			"/>
			<rect x="266" y="152.2" class="st0" width="4" height="5"/>
			<path class="st0" d="M266.6,175.4c0,0.8-0.2,1.5-0.6,2.1l-5.4-3.1l4.4-2.5C266,172.9,266.6,174.1,266.6,175.4L266.6,175.4z"/>
			<path class="st0" d="M260.6,174.5l5.4,3.1c-1,1.7-3.1,2.9-5.6,2.9s-4.5-1.1-5.5-2.7L260.6,174.5L260.6,174.5z"/>
			<rect x="254.7" y="152.2" class="st1" width="11.3" height="5"/>
			<path class="st0" d="M265,172l-4.4,2.5l-4.6-2.6c1.1-0.9,2.7-1.5,4.4-1.5C262.3,170.4,263.9,171,265,172L265,172z"/>
			<path class="st0" d="M260.6,174.5l-5.7,3.2c-0.4-0.7-0.7-1.5-0.7-2.3c0-1.4,0.7-2.6,1.8-3.5L260.6,174.5L260.6,174.5z"/>
			<path class="st0" d="M229.9,157.2l26.1,14.7c-1.1,0.9-1.8,2.1-1.8,3.5c0,0.8,0.2,1.6,0.7,2.3l-15.4,8.6h-41.5l-15.6-8.8
				c0.4-0.6,0.6-1.4,0.6-2.1c0-1.3-0.6-2.5-1.6-3.4l26.3-14.8L229.9,157.2L229.9,157.2z M224,175.4c0-2.8-2.2-5-5-5s-5,2.2-5,5
				s2.2,5,5,5S224,178.2,224,175.4z"/>
			<polygon class="st0" points="254.7,157.2 229.9,157.2 224.2,157.2 224.2,152.2 254.7,152.2 			"/>
			<rect x="212.9" y="152.2" class="st1" width="11.3" height="5"/>
			<path class="st1" d="M218.9,170.4c2.8,0,5,2.2,5,5s-2.2,5-5,5s-5-2.2-5-5S216.2,170.4,218.9,170.4z"/>
			<path class="st0" d="M207.8,157.2L181.4,172c-1.1-1-2.8-1.6-4.6-1.6s-3.3,0.6-4.4,1.5l-26.1-14.7H207.8z"/>
			<polygon class="st0" points="182.4,157.2 182.4,152.2 212.9,152.2 212.9,157.2 207.8,157.2 			"/>
			<path class="st0" d="M198.1,186.3H156l15.4-8.6c1,1.6,3.1,2.7,5.5,2.7s4.6-1.2,5.6-2.9L198.1,186.3L198.1,186.3z"/>
			<path class="st0" d="M183.1,175.4c0,0.8-0.2,1.5-0.6,2.1l-5.4-3.1l4.4-2.5C182.5,172.9,183.1,174.1,183.1,175.4L183.1,175.4z"/>
			<path class="st0" d="M177.1,174.5l5.4,3.1c-1,1.7-3.1,2.9-5.6,2.9s-4.5-1.1-5.5-2.7L177.1,174.5L177.1,174.5z"/>
			<rect x="171.1" y="152.2" class="st1" width="11.3" height="5"/>
			<path class="st0" d="M176.9,170.4c1.8,0,3.4,0.6,4.6,1.6l-4.4,2.5l-4.6-2.6C173.6,171,175.1,170.4,176.9,170.4L176.9,170.4z"/>
			<path class="st0" d="M177.1,174.5l-5.7,3.2c-0.4-0.7-0.7-1.5-0.7-2.3c0-1.4,0.7-2.6,1.8-3.5L177.1,174.5L177.1,174.5z"/>
			<path class="st0" d="M146.4,157.2l26.1,14.7c-1.1,0.9-1.8,2.1-1.8,3.5c0,0.8,0.2,1.6,0.7,2.3l-15.4,8.6h-41.5l-15.6-8.8
				c0.4-0.6,0.6-1.4,0.6-2.1c0-1.3-0.6-2.5-1.6-3.4l26.3-14.8L146.4,157.2L146.4,157.2z M139.3,175.4c0-2.8-2.2-5-5-5s-5,2.2-5,5
				s2.2,5,5,5S139.3,178.2,139.3,175.4z"/>
			<polygon class="st0" points="171.1,157.2 146.4,157.2 140.6,157.2 140.6,152.2 171.1,152.2 			"/>
			<rect x="129.3" y="152.2" class="st1" width="11.3" height="5"/>
			<path class="st1" d="M134.3,170.4c2.8,0,5,2.2,5,5s-2.2,5-5,5s-5-2.2-5-5S131.5,170.4,134.3,170.4z"/>
			<path class="st0" d="M124.2,157.2L97.9,172c-1.1-1-2.8-1.6-4.6-1.6s-3.3,0.6-4.4,1.5l-26.1-14.7H124.2z"/>
			<polygon class="st0" points="129.3,157.2 124.2,157.2 98.8,157.2 98.8,152.2 129.3,152.2 			"/>
			<path class="st0" d="M114.5,186.3H72.4l15.3-8.6c1,1.6,3.1,2.7,5.5,2.7s4.6-1.2,5.6-2.9L114.5,186.3L114.5,186.3z"/>
			<path class="st0" d="M99.5,175.4c0,0.8-0.2,1.5-0.6,2.1l-5.4-3.1l4.4-2.5C98.9,172.9,99.5,174.1,99.5,175.4L99.5,175.4z"/>
			<path class="st0" d="M93.5,174.5l5.4,3.1c-1,1.7-3.1,2.9-5.6,2.9s-4.5-1.1-5.5-2.7C87.8,177.7,93.5,174.5,93.5,174.5z"/>
			<rect x="87.5" y="152.2" class="st1" width="11.3" height="5"/>
			<path class="st0" d="M93.3,170.4c1.8,0,3.4,0.6,4.6,1.6l-4.4,2.5l-4.6-2.6C90,171,91.6,170.4,93.3,170.4L93.3,170.4z"/>
			<path class="st0" d="M93.5,174.5l-5.7,3.2c-0.4-0.7-0.7-1.5-0.7-2.3c0-1.4,0.7-2.6,1.8-3.5L93.5,174.5L93.5,174.5z"/>
			<path class="st0" d="M62.8,157.2l26.1,14.7c-1.1,0.9-1.8,2.1-1.8,3.5c0,0.8,0.2,1.6,0.7,2.3l-15.3,8.6H30.8l-15.6-8.8
				c0.4-0.6,0.6-1.4,0.6-2.1c0-1.3-0.6-2.5-1.6-3.4l26.3-14.8L62.8,157.2L62.8,157.2z M54.2,175.4c0-2.8-2.2-5-5-5s-5,2.2-5,5
				s2.2,5,5,5S54.2,178.2,54.2,175.4z"/>
			<polygon class="st0" points="87.5,157.2 62.8,157.2 57,157.2 57,152.2 87.5,152.2 			"/>
			<rect x="45.7" y="152.2" class="st1" width="11.3" height="5"/>
			<path class="st1" d="M49.2,170.4c2.8,0,5,2.2,5,5s-2.2,5-5,5s-5-2.2-5-5S46.5,170.4,49.2,170.4z"/>
			<polygon class="st0" points="45.7,157.2 40.4,157.2 15.2,157.2 15.2,152.2 45.7,152.2 			"/>
			<path class="st0" d="M30.8,186.3H0.2v-6.5l3.8-2.1c1,1.6,3.1,2.7,5.5,2.7s4.6-1.2,5.6-2.9L30.8,186.3L30.8,186.3z"/>
			<path class="st0" d="M15.7,175.4c0,0.8-0.2,1.5-0.6,2.1l-5.4-3.1l4.4-2.5C15.1,172.9,15.7,174.1,15.7,175.4L15.7,175.4z"/>
			<rect x="3.9" y="152.2" class="st1" width="11.3" height="5"/>
			<path class="st0" d="M9.7,174.5l5.4,3.1c-1,1.7-3.1,2.9-5.6,2.9S5,179.3,4,177.7L9.7,174.5z"/>
			<path class="st0" d="M9.5,170.4c1.8,0,3.4,0.6,4.6,1.6l-4.4,2.5l-4.6-2.6C6.2,171,7.8,170.4,9.5,170.4L9.5,170.4z"/>
			<path class="st0" d="M9.7,174.5L4,177.7c-0.4-0.7-0.7-1.5-0.7-2.3c0-1.4,0.7-2.6,1.8-3.5L9.7,174.5L9.7,174.5z"/>
			<path class="st0" d="M0.2,169.2l4.8,2.7c-1.1,0.9-1.8,2.1-1.8,3.5c0,0.8,0.2,1.6,0.7,2.3l-3.8,2.1L0.2,169.2L0.2,169.2z"/>
			<polygon class="st2" points="212.9,152.2 182.4,152.2 171.1,152.2 140.6,152.2 129.3,152.2 98.8,152.2 87.5,152.2 57,152.2 
				45.7,152.2 15.2,152.2 3.9,152.2 0.2,152.2 0.2,95.2 1.1,95.2 270,95.2 270,152.2 266,152.2 254.7,152.2 224.2,152.2 			"/>
			<path class="st0" d="M0.2,157.2h40.2L14.1,172c-1.1-1-2.8-1.6-4.6-1.6s-3.3,0.6-4.4,1.5l-4.8-2.7C0.2,169.2,0.2,157.2,0.2,157.2z
				"/>
		</g>
		<g>
			<polyline class="st3" points="270,186.3 239.6,186.3 198.1,186.3 156,186.3 114.5,186.3 72.4,186.3 30.8,186.3 0.2,186.3 			"/>
			<line class="st3" x1="0.2" y1="89.5" x2="270" y2="89.5"/>
			<line class="st3" x1="0.2" y1="95.2" x2="270" y2="95.2"/>
			<line class="st3" x1="266" y1="152.2" x2="270" y2="152.2"/>
			<line class="st3" x1="224.2" y1="152.2" x2="254.7" y2="152.2"/>
			<line class="st3" x1="182.4" y1="152.2" x2="212.9" y2="152.2"/>
			<line class="st3" x1="140.6" y1="152.2" x2="171.1" y2="152.2"/>
			<line class="st3" x1="98.8" y1="152.2" x2="129.3" y2="152.2"/>
			<line class="st3" x1="57" y1="152.2" x2="87.5" y2="152.2"/>
			<line class="st3" x1="15.2" y1="152.2" x2="45.7" y2="152.2"/>
			<line class="st3" x1="0.2" y1="152.2" x2="3.9" y2="152.2"/>
			<line class="st3" x1="266" y1="157.2" x2="270" y2="157.2"/>
			<polyline class="st3" points="224.2,157.2 229.9,157.2 254.7,157.2 			"/>
			<polyline class="st3" points="182.4,157.2 207.8,157.2 212.9,157.2 			"/>
			<polyline class="st3" points="140.6,157.2 146.4,157.2 171.1,157.2 			"/>
			<polyline class="st3" points="98.8,157.2 124.2,157.2 129.3,157.2 			"/>
			<polyline class="st3" points="57,157.2 62.8,157.2 87.5,157.2 			"/>
			<polyline class="st3" points="15.2,157.2 40.4,157.2 45.7,157.2 			"/>
			<line class="st3" x1="0.2" y1="157.2" x2="3.9" y2="157.2"/>
			<polyline class="st3" points="72.4,186.3 87.8,177.7 93.5,174.5 97.9,172 124.2,157.2 			"/>
			<polyline class="st3" points="114.5,186.3 98.9,177.5 93.5,174.5 88.8,171.9 62.8,157.2 			"/>
			<path class="st3" d="M139.3,175.4c0,2.8-2.2,5-5,5s-5-2.2-5-5s2.2-5,5-5S139.3,172.6,139.3,175.4z"/>
			<path class="st3" d="M224,175.4c0,2.8-2.2,5-5,5s-5-2.2-5-5s2.2-5,5-5S224,172.6,224,175.4z"/>
			<path class="st3" d="M97.9,172c1,0.9,1.6,2.1,1.6,3.4c0,0.8-0.2,1.5-0.6,2.1c-1,1.7-3.1,2.9-5.6,2.9s-4.5-1.1-5.5-2.7
				c-0.4-0.7-0.7-1.5-0.7-2.3c0-1.4,0.7-2.6,1.8-3.5c1.1-0.9,2.7-1.5,4.4-1.5C95.1,170.4,96.7,171,97.9,172L97.9,172z"/>
			<polyline class="st3" points="0.2,179.8 4,177.7 9.7,174.5 14.1,172 40.4,157.2 			"/>
			<polyline class="st3" points="30.8,186.3 15.1,177.5 9.7,174.5 5.1,171.9 0.2,169.2 			"/>
			<path class="st3" d="M14.1,172c1,0.9,1.6,2.1,1.6,3.4c0,0.8-0.2,1.5-0.6,2.1c-1,1.7-3.1,2.9-5.6,2.9S5,179.3,4,177.7
				c-0.4-0.7-0.7-1.5-0.7-2.3c0-1.4,0.7-2.6,1.8-3.5c1.1-0.9,2.7-1.5,4.4-1.5C11.3,170.4,13,171,14.1,172L14.1,172z"/>
			<polyline class="st3" points="156,186.3 171.4,177.7 177.1,174.5 181.5,172 207.8,157.2 			"/>
			<polyline class="st3" points="198.1,186.3 182.5,177.5 177.1,174.5 172.4,171.9 146.4,157.2 			"/>
			<path class="st3" d="M181.5,172c1,0.9,1.6,2.1,1.6,3.4c0,0.8-0.2,1.5-0.6,2.1c-1,1.7-3.1,2.9-5.6,2.9s-4.5-1.1-5.5-2.7
				c-0.4-0.7-0.7-1.5-0.7-2.3c0-1.4,0.7-2.6,1.8-3.5c1.1-0.9,2.7-1.5,4.4-1.5C178.7,170.4,180.3,171,181.5,172L181.5,172z"/>
			<polyline class="st3" points="239.6,186.3 254.9,177.7 260.6,174.5 265,172 270,169.2 			"/>
			<polyline class="st3" points="270,179.8 266.1,177.5 260.6,174.5 256,171.9 229.9,157.2 			"/>
			<path class="st3" d="M265,172c1,0.9,1.6,2.1,1.6,3.4c0,0.8-0.2,1.5-0.6,2.1c-1,1.7-3.1,2.9-5.6,2.9s-4.5-1.1-5.5-2.7
				c-0.4-0.7-0.7-1.5-0.7-2.3c0-1.4,0.7-2.6,1.8-3.5c1.1-0.9,2.7-1.5,4.4-1.5C262.3,170.4,263.9,171,265,172L265,172z"/>
			<path class="st3" d="M54.2,175.4c0,2.8-2.2,5-5,5s-5-2.2-5-5s2.2-5,5-5S54.2,172.6,54.2,175.4z"/>
			<rect x="3.9" y="152.2" class="st3" width="11.3" height="5"/>
			<rect x="45.7" y="152.2" class="st3" width="11.3" height="5"/>
			<rect x="87.5" y="152.2" class="st3" width="11.3" height="5"/>
			<rect x="129.3" y="152.2" class="st3" width="11.3" height="5"/>
			<rect x="171.1" y="152.2" class="st3" width="11.3" height="5"/>
			<rect x="212.9" y="152.2" class="st3" width="11.3" height="5"/>
			<rect x="254.7" y="152.2" class="st3" width="11.3" height="5"/>
		</g>
	</g>
</g>
<g id="_レイヤー_2">
	<g>
		<g>
			<path class="st4" d="M269.2,117.7c0,1.3,0.1,2.7,0.1,3.8c-1.6-0.9-16.9-6.1-22.6-7.7c-5.7-1.5-19.3-4.4-23.1-6.3
				c-3.8-1.9-8-4.7-8-4.7l-0.1,0c0.5-1.3,0.9-2.6,1.1-3.4h0c0,0,4.2,2.8,8,4.7c3.8,1.9,17.4,4.8,23.1,6.3
				C253.3,111.9,267.3,116.7,269.2,117.7L269.2,117.7z"/>
			<path class="st4" d="M269,113.9c0.1,1.1,0.1,2.4,0.2,3.8c-1.9-1-15.9-5.8-21.5-7.3c-5.7-1.5-19.3-4.4-23.1-6.3
				c-3.8-1.9-8-4.7-8-4.7h0c0.1-0.4,0.1-0.7-0.1-0.8c-0.7-0.6-4.9-0.8-4.9-0.8c0.3-0.1,0.6-0.2,0.7-0.3c-1.1-1.2-2.7-2.9-4.3-4.8
				c5.5,2.7,17.2,8.6,25.5,10.9c8.3,2.3,29.9,7.9,35.5,10.3L269,113.9L269,113.9z"/>
			<path class="st5" d="M247.4,90.2c1.2,0.2,2.5,0.4,3.7,0.5c1.3,0.1,2.5,0.2,3.4,0.1c0.6,0.3,3.3,1.9,4.4,4.1
				c1.2,2.5,10,15.6,10,16.4c0,0.2,0.1,1.2,0.1,2.5h-0.1c-5.6-2.3-27.2-8-35.5-10.3c-8.3-2.3-20-8.3-25.5-10.9
				c-0.3-0.4-0.6-0.7-1-1.1l0,0c-0.9-1-1.7-2-2.6-3.1c-0.8-1-1.7-2.1-2.5-3.1c-5.5,2-16.4-1.2-20.6-3.1l0,0
				c-0.1-0.7-0.2-1.5-0.2-2.2c-0.1-1.3-0.1-2.6,0-3.6c0.5-4.3,2.7-10.6,8-13.1c1-0.5,2.2-0.9,3.4-1c1.6-0.2,3-0.3,4.3-0.3
				c0.9,0,1.8,0,2.5,0.1c3.2,0.2,5.2,1.2,6.3,2.7c0.2,0.2,0.5,0.6,0.9,1.1c1.4,1.7,4.1,4.7,7.5,8.4c1.5,1.6,3.2,3.4,5,5.2
				c1.1,1.2,2.3,2.3,3.4,3.5c1.6,1.6,3.2,3.2,4.9,4.7c0,0,12.7,1.1,16,1.7c0,0,0,0,0.1,0C244.6,89.7,246,90,247.4,90.2L247.4,90.2z"
				/>
			<path class="st4" d="M269.2,121.5c0,1.9-0.1,3.4-0.4,3.8c-0.1,0.2-0.4,0.4-0.7,0.6c-2.6-2.4-12.9-6.1-20.6-7.8
				c-5.7-1.3-10.2-1.4-13.2-1.4c-1.1,0-2,0-2.7,0c-1.5-0.1-4.9-1.1-8.3-2.2c-2.6-0.9-5.1-1.9-6.5-2.6c-1.4-0.7-2.9-2.4-4.4-4.5
				c-0.2-0.2-0.3-0.5-0.5-0.7c0,0,1.6,0.1,2-0.4c0.2-0.2,0.8-1.7,1.5-3.4l0.1,0c0,0,4.2,2.8,8,4.7c3.8,1.9,17.4,4.8,23.1,6.3
				C252.3,115.4,267.6,120.6,269.2,121.5L269.2,121.5z"/>
			<path class="st6" d="M268.1,125.9c-1.4,0.9-4.7,2-8.2,2.9l0,0c-10.4-4.3-15.1-2.4-15.1-2.4c-2.1-1.5-4.2-3.3-6-4.9
				c-2.3-2.2-4-4-4.5-4.7v-0.1c3,0,7.5,0.2,13.2,1.4C255.3,119.9,265.5,123.6,268.1,125.9L268.1,125.9z"/>
			<path class="st6" d="M259,75.5c0.5,3.9,0.5,8.5-0.8,11.7c-0.6-3.5-6-17-10.8-21.9c-4.7-5-12.8-10-24.1-14.7
				c1.7-3,10.4-6.7,11.7-7.1c6.1,0.1,11.5,0.4,14.8,5.5c3.4,5.1,5.7,9.6,6.5,12.3C257.2,63.7,258.3,69.6,259,75.5L259,75.5z"/>
			<path class="st6" d="M258.3,87.2L258.3,87.2c-0.6,1.5-1.5,2.6-2.8,3.3c-0.2-1.1-5.6-11.7-12.1-18.6c-3.6-3.9-11.7-7.4-12.1-7.6
				c-1.7-2.1-3.4-4.1-4.3-5.1c-0.4-0.5-0.7-0.7-0.7-0.7c-0.2-0.7-0.7-1.2-0.7-1.2S212,44.7,205.6,38.6c0,0,7.8-3.5,9.7-4
				c1.6-0.4,6-1,9.2,0c0,0-1.4,14.1-1.1,15.9c11.3,4.7,19.3,9.7,24.1,14.7S257.6,83.8,258.3,87.2L258.3,87.2z"/>
			<path class="st4" d="M254.5,90.8c-0.8,0.1-2,0.1-3.4-0.1c-0.2-1.2-3.1-8.9-5.5-12.1c-2.3-3.2-10.7-9.8-11.2-10.2l0,0
				c-0.8-1.3-1.9-2.7-3-4c0.3,0.1,8.4,3.6,12.1,7.6c6.4,6.9,11.9,17.5,12.1,18.6c-0.2,0.1-0.4,0.2-0.6,0.3
				C254.8,90.8,254.6,90.8,254.5,90.8L254.5,90.8z"/>
			<path class="st6" d="M251.8,129.9c-2.1-0.4-4.6-1.8-7-3.5c0,0,4.6-1.9,15.1,2.4c-2.2,0.5-4.4,1-6.5,1.1
				C252.9,130.1,252.4,130,251.8,129.9L251.8,129.9z"/>
			<path class="st4" d="M245.6,78.6c2.4,3.3,5.4,11,5.5,12.1c-1.2-0.1-2.4-0.3-3.7-0.5c-0.6-5.9-6.4-14-9.9-15.8
				c-0.2-0.3-0.3-0.6-0.4-0.9c-0.6-1.1-1.1-2.1-1.5-2.9c-0.3-0.7-0.8-1.4-1.3-2.2C234.9,68.8,243.2,75.4,245.6,78.6L245.6,78.6z"/>
			<path class="st7" d="M249,146.1l-3.9,3.3l-3.4-3.3l-14.9-17.3c1.3,0,2.7,0,4.1,0l11.1,10.6L249,146.1L249,146.1z"/>
			<path class="st6" d="M251.8,129.9c-5.9,1.9-10.6-1.8-13.4-4.9c0.1-2.6,0.4-3.5,0.4-3.5c1.7,1.6,3.8,3.4,6,4.9
				C247.2,128.1,249.7,129.5,251.8,129.9L251.8,129.9z"/>
			<path class="st7" d="M244.8,136.7l-2.8,2.6l-11.1-10.6c0.2,0,0.3,0,0.5,0c1.4-0.1,2.8-0.1,4.3-0.3L244.8,136.7L244.8,136.7z"/>
			<path class="st4" d="M237.6,74.4c3.4,1.8,9.2,9.9,9.9,15.8c-1.5-0.2-2.9-0.5-4-0.7c0,0,0,0-0.1,0l0.1-0.4
				C243.1,85.7,239.9,79.2,237.6,74.4L237.6,74.4z"/>
			<path class="st5" d="M235.4,74.4l1.7-0.9c0.2,0.3,0.3,0.6,0.4,0.9c2.4,4.8,5.5,11.3,5.9,14.6l-0.1,0.4c-3.3-0.6-16-1.7-16-1.7
				c-1.6-1.5-3.3-3.1-4.9-4.7C222.5,83.1,233.7,74.4,235.4,74.4L235.4,74.4z"/>
			<path class="st7" d="M226.8,128.7l14.9,17.3l-4.2,3.3l-11.1-13.5l-6.3-7.7c0.8,0.1,1.6,0.2,2.4,0.2
				C223.9,128.6,225.3,128.7,226.8,128.7L226.8,128.7z"/>
			<path class="st4" d="M235.7,128.4c-1.5,0.1-2.9,0.2-4.3,0.3v-0.2l0.3-11.8c0.7,0,1.6,0,2.7,0v0.1c0.5,0.7,2.2,2.5,4.5,4.7
				c0,0-0.3,0.9-0.4,3.5c0,0.8,0,1.9,0,3.1C237.5,128.2,236.6,128.3,235.7,128.4L235.7,128.4z"/>
			<path class="st5" d="M231.4,64.4c1,1.3,2.1,2.7,3,4l0,0c0.5,0.8,1,1.5,1.3,2.2c0.4,0.8,0.9,1.8,1.5,2.9l-1.7,0.9
				c-1.7,0-12.9,8.7-12.9,8.7c-1.2-1.2-2.3-2.3-3.4-3.5c-1.8-1.8-3.5-3.6-5-5.2c-3.4-3.6-6.1-6.7-7.5-8.4c0.2-2.7,2.5-14,2.5-14
				c6.1,2.5,16.2,6.7,17.4,6.6c0,0,0.2,0.3,0.7,0.7C228,60.3,229.7,62.2,231.4,64.4L231.4,64.4z"/>
			<path class="st4" d="M231.7,116.7l-0.3,11.8v0.2c-0.2,0-0.3,0-0.5,0c-1.4,0-2.8,0.1-4.1,0c-1.5,0-2.9-0.1-4.3-0.2l0.9-14.1
				C226.7,115.6,230.2,116.6,231.7,116.7L231.7,116.7z"/>
			<path class="st6" d="M226.2,35.5c3,2.1,7.8,4.9,8.9,7.9c-1.3,0.5-10,4.1-11.7,7.1c-0.3-1.8,1.1-15.9,1.1-15.9
				C225.1,34.9,225.7,35.1,226.2,35.5L226.2,35.5z"/>
			<path class="st6" d="M220.1,128.3l6.3,7.7c0,0-7.3,2.3-12.4,2.9c-5.1,0.6-11.3,4-13.8,6.2c-2.5,2.2-9.7-1.1-9.7-1.1
				c1.1-0.6,2.7-1.5,4.5-2.5c0.8-0.5,1.7-1,2.7-1.5c1.2-0.7,2.5-1.5,3.7-2.3c5.5-3.4,10.9-7.4,12.6-10.3
				C216,127.7,218,128.1,220.1,128.3L220.1,128.3z"/>
			<path class="st1" d="M226.5,58.5c-1.3,0.1-11.3-4.1-17.4-6.6c-0.6-0.2-1.1-0.4-1.6-0.6c-1.5-0.6-3.2-1.7-4.9-3
				c-4.9-3.7-9.8-9.2-11.4-10.4c-3.3-2.5-14.3-10.8-14.6-11.2c-0.3-0.3-1.8-0.5-2.1,0c-0.3,0.5-5.5,4.9-6.3,5.2
				c-0.4,0.1-0.7,1.3-0.7,2.1l-1,0.2c-0.4-2.2-0.4-5.1,0.7-8c1-2.5,7.4-8,10.8-8.6c3.5-0.6,8.3,2.1,11.2,4.7
				c2.9,2.6,10.4,10.2,13.5,13.4c0.5,0.5,1.5,1.5,2.9,2.8c6.4,6.1,20.1,18.7,20.1,18.7S226.2,57.8,226.5,58.5L226.5,58.5z"/>
			<path class="st4" d="M223.4,114.4l-0.9,14.1c-0.8-0.1-1.6-0.1-2.4-0.2c-2.1-0.2-4.1-0.6-6.1-1l2.8-15.4
				C218.3,112.6,220.8,113.6,223.4,114.4z"/>
			<path class="st4" d="M216.9,111.9l-2.8,15.4c-2.1-0.4-4.2-1-6.1-1.6l4.6-18.4C214,109.4,215.5,111.2,216.9,111.9z"/>
			<path class="st6" d="M216.4,98.6c0.1,0.1,0.1,0.4,0.1,0.8c-0.1,0.8-0.6,2.2-1.1,3.4c-0.6,1.6-1.3,3.1-1.5,3.4
				c-0.4,0.5-2,0.4-2,0.4c-1-1.6-2.1-3.3-3-4.8c-0.7-1.2-1.4-2.3-2-3.2c2-0.2,3.6-0.5,4.6-0.8C211.6,97.8,215.8,97.9,216.4,98.6
				L216.4,98.6z"/>
			<path class="st4" d="M212.5,107.3l-4.6,18.4c-2.8-0.9-5.4-2-7.9-3.1c-0.5-0.2-0.9-0.5-1.4-0.7l10.3-20.1c0.9,1.5,2,3.2,3,4.8
				C212.2,106.8,212.3,107.1,212.5,107.3L212.5,107.3z"/>
			<path class="st4" d="M212.2,97.5c-0.1,0.1-0.4,0.2-0.7,0.3c-0.9,0.3-2.6,0.5-4.6,0.8c-2.1,0.2-4.5,0.4-6.7,0.5
				c-3.5,0.2-6.7,0.3-7.5,0.3c-0.5,0-1.3-0.1-2.2-0.3c-1.4-0.3-2.9-0.8-4.2-1.3c-1-0.4-1.8-0.9-2-1.4c-0.4-1.1-0.9-3.2-1.5-5.6
				l0.3-0.1c3.2,0.9,21,2.1,23.8,0.8l0,0c0.3,0.4,0.6,0.7,1,1.1C209.6,94.6,211.1,96.3,212.2,97.5L212.2,97.5z"/>
			<path class="st4" d="M209,101.8l-10.3,20.1c-2.6-1.3-4.9-2.7-7-4.2L207,98.6C207.6,99.5,208.3,100.6,209,101.8z"/>
			<path class="st5" d="M209,51.9l-9.6,10.2c-0.8-0.1-1.6-0.1-2.5-0.1v0c0.3,0,0.6-0.1,1-0.4l4.7-13.3l0,0c1.7,1.3,3.4,2.4,4.9,3
				C207.9,51.5,208.4,51.7,209,51.9L209,51.9z"/>
			<path class="st5" d="M199.4,62.1l9.6-10.2c0,0-2.3,11.3-2.5,14c-0.4-0.5-0.7-0.9-0.9-1.1C204.5,63.3,202.6,62.4,199.4,62.1z"/>
			<path class="st5" d="M207.9,125.7c1.9,0.6,4,1.2,6.1,1.6c-1.7,3-7.2,6.9-12.6,10.3c-0.9-4.3-5.6-10.9-7.5-12.7
				c2.8-1,6.1-2.4,6.1-2.4C202.5,123.8,205.1,124.8,207.9,125.7L207.9,125.7z"/>
			<path class="st4" d="M207,98.6l-15.4,19.2c-2.1-1.4-4.1-2.9-5.8-4.4l0,0l14.4-14.3C202.5,99,204.9,98.8,207,98.6L207,98.6z"/>
			<path class="st4" d="M204.4,88.5c0.9,1.1,1.7,2.1,2.6,3.1c-2.8,1.3-20.6,0.1-23.8-0.8l-0.3,0.1c-0.2-0.7-0.3-1.4-0.5-2.1
				c-0.2-0.7-0.3-1.4-0.4-2.1l0.3,0C185.9,87.9,200.1,90.1,204.4,88.5L204.4,88.5z"/>
			<path class="st4" d="M201.9,85.4c0.8,1,1.6,2.1,2.5,3.1c-4.2,1.6-18.4-0.6-22.1-2l-0.3,0c-0.1-0.7-0.2-1.5-0.4-2.2
				c-0.1-0.7-0.2-1.4-0.3-2.1l0,0C185.5,84.2,196.4,87.3,201.9,85.4L201.9,85.4z"/>
			<path class="st8" d="M190.5,54.4c-2,0.9-4.5,1.3-6.7,1.3c-1.7,0-3.3-0.2-4.5-0.7c0,0,0,0,0,0c0,0,0,0,0,0
				c-1.7-0.6-3.6-3.1-5.3-6.3l1.9-0.3c-0.3-0.5-0.9-4.2-1.2-7.2l-1,0.1c-0.3,0.1-2.1,0.9-2.1,0.9l-0.6,0.3c-1.4-3.2-2.6-6.3-3.3-8.3
				c0-0.9,0.3-2.1,0.7-2.1c0.8-0.3,5.9-4.7,6.3-5.2c0.3-0.5,1.8-0.3,2.1,0c0.3,0.3,11.3,8.7,14.6,11.2c1.5,1.2,6.5,6.7,11.4,10.4
				l0,0l-4.7,13.3c-0.4,0.3-0.7,0.4-1,0.4c-0.4,0-0.8-0.2-1.1-0.4l-5.2-7.2C190.6,54.5,190.5,54.4,190.5,54.4z M176.9,32.1
				c0.6-0.3,1-0.8,0.9-1.1c-0.1-0.3-0.8-0.4-1.4-0.1c-0.6,0.3-1,0.8-0.9,1.1C175.7,32.3,176.3,32.4,176.9,32.1L176.9,32.1z
				 M170.9,34.9c0.5-0.4,0.8-1,0.6-1.3c-0.2-0.3-0.9-0.2-1.4,0.2c-0.5,0.4-0.8,1-0.6,1.3C169.7,35.5,170.4,35.4,170.9,34.9
				L170.9,34.9z"/>
			<path class="st4" d="M201.5,137.7c-1.3,0.8-2.5,1.6-3.7,2.3c-0.3-3.8-5.3-11.3-7.8-14c0.6,0,1.2-0.1,1.6-0.2
				c0.6-0.2,1.5-0.4,2.4-0.7C195.8,126.7,200.5,133.4,201.5,137.7L201.5,137.7z"/>
			<path class="st4" d="M200.2,99.1l-14.4,14.3l0,0c-2-1.7-3.9-3.3-5.5-4.8l6.1-5.6l4.2-3.8l0,0c0.9,0.2,1.7,0.3,2.2,0.3
				C193.6,99.4,196.7,99.3,200.2,99.1L200.2,99.1z"/>
			<path class="st5" d="M175.4,126L175.4,126c-0.2,0-0.5,0.1-0.8,0.4l-0.2-0.4c-2.5,0-11.3-7.2-17.3-11.6
				c-4.8-3.5-11.9-11.1-12.2-11.5c2.6,0.1,6.4,0.4,10.2,0.6c6.3,0.4,12.7,0.7,15,0.7c4.6,0,16.2-2.5,16.2-2.5v1.1l-6.1,5.6
				c1.6,1.5,3.5,3.1,5.5,4.8c1.8,1.4,3.7,2.9,5.8,4.4c2.1,1.5,4.5,2.9,7,4.2c0.5,0.2,0.9,0.5,1.4,0.7c0,0-3.3,1.5-6.1,2.4
				c-0.9,0.3-1.7,0.6-2.4,0.7c-0.4,0.1-1,0.2-1.6,0.2c-1.1,0.1-2.6,0.1-4.2,0.1C182.7,126,179.1,126,175.4,126L175.4,126z"/>
			<path class="st5" d="M196.8,62.1L196.8,62.1c-1.3,0.1-2.7,0.2-4.3,0.4c-1.3,0.2-2.4,0.5-3.4,1c-0.9-2.7-5.3-7.6-5.3-7.6v-0.2
				c2.2,0,4.7-0.4,6.7-1.3l0.1,0.1l5.2,7.2C196,61.8,196.4,62.1,196.8,62.1z"/>
			<path class="st4" d="M197.7,139.9c-0.9,0.5-1.8,1.1-2.7,1.5c0.6-3.8-6.1-11.9-9.3-15.4c1.6,0,3,0,4.2-0.1
				C192.4,128.6,197.4,136.1,197.7,139.9L197.7,139.9z"/>
			<path class="st4" d="M185.8,126c3.2,3.6,9.9,11.6,9.3,15.4c-1.8,1-3.4,1.9-4.5,2.5c-1.3,0.7-2,1.1-2,1.1
				c-0.8-2.6-3.3-6.6-5.8-10.1c-2.6-3.7-5.2-6.9-5.8-7.5c-0.6-0.6-1-1.4-1.6-1.4l0,0C179.1,125.9,182.8,126,185.8,126L185.8,126z"/>
			<path class="st5" d="M190.6,99.1L190.6,99.1l-4.2,3.8v-5.1C187.6,98.4,189.2,98.8,190.6,99.1z"/>
			<path class="st6" d="M188.5,145c-0.5,0.3-1.8,1-2.8,0.8c-1-0.2-6.3-2.3-8.7-2.8c-2-2.2-6.9-6.2-6.9-6.2l-0.1-0.3
				c4.1-1,10.1-2.3,12.6-1.6C185.2,138.5,187.7,142.4,188.5,145L188.5,145z"/>
			<path class="st5" d="M167.7,91.5c0,0,0.1,0,0.1-0.1c0,0-0.1-0.1-0.1-0.1c0.5-2.4,1.1-4.9,1.7-7.3c0.2-0.9,0.4-1.7,0.6-2.5l0.1,0
				c0,0,7.2,7.3,12.2,7.2c0.2,0.7,0.3,1.4,0.5,2.1c0.6,2.4,1.1,4.4,1.5,5.6c0.2,0.5,1,1,2,1.4v4c0,0-11.6,2.5-16.2,2.5
				c-2.3,0-8.8-0.4-15-0.7l0-0.3c0,0,0.3-0.4,0.9-1.1c1.2-1.5,3.6-4.2,6.1-6.6C164,93.8,166,92.2,167.7,91.5L167.7,91.5z"/>
			<path class="st5" d="M183.8,55.8c0,0,4.3,4.9,5.3,7.6c-5.2,2.5-7.4,8.8-8,13.1c-0.1,1-0.1,2.3,0,3.6H181
				c-2.9,0.1-9.6-3.4-9.6-3.4l-0.1,0c0.3-1,0.6-1.8,0.7-2.4c1.8-5.4,2.2-7.2,3.3-10.9c0.4-1.5,1-2.9,1.6-4.2l0,0
				c0.3-0.7,0.6-1.3,0.9-1.8c0.7-1.3,1.2-2.3,1.4-2.5c0,0,0,0,0,0c1.2,0.4,2.8,0.7,4.5,0.7L183.8,55.8L183.8,55.8z"/>
			<path class="st6" d="M176.9,127.4c0.6,0.6,3.1,3.8,5.8,7.5c-2.4-0.7-8.5,0.6-12.6,1.6c-2.4,0.6-4.2,1.1-4.2,1.1
				c0.4-0.6,0.9-1.1,1.3-1.7c2.3-2.9,4.6-6,5.7-7.7c0.3-0.5,0.6-0.9,0.9-1.2l0,0c0.2-0.3,0.5-0.5,0.7-0.7c0.3-0.3,0.6-0.4,0.8-0.4
				C176,126,176.3,126.8,176.9,127.4L176.9,127.4z"/>
			<path class="st4" d="M182.4,88.7c-5,0.2-12.2-7.2-12.2-7.2l-0.1,0c0.3-1,0.5-2,0.8-2.8l0.1,0c0,0,5.1,4.5,10.7,5.7
				c0.1,0.7,0.2,1.5,0.4,2.2C182.1,87.3,182.3,88,182.4,88.7L182.4,88.7z"/>
			<path class="st4" d="M181.3,82.3c0.1,0.7,0.2,1.4,0.3,2.1c-5.6-1.2-10.7-5.7-10.7-5.7l-0.1,0c0.2-0.7,0.4-1.4,0.6-2l0.1,0
				c0,0,6.7,3.6,9.6,3.4h0.1C181.2,80.8,181.2,81.6,181.3,82.3L181.3,82.3z"/>
			<path class="st1" d="M179.2,54.9c-0.2,0.2-0.7,1.1-1.4,2.5l-1.6-0.9c-1.6-0.9-5.6-7.2-6.7-12.1c0,0-0.7-2.2-1.4-4.6l0,0
				c-0.7-2.2-1.3-4.5-1.5-5.4c0-0.1,0-0.1,0-0.2l1-0.2c0.7,1.9,1.9,5,3.3,8.3c0.9,2.1,2,4.3,3.1,6.2
				C175.7,51.8,177.5,54.3,179.2,54.9L179.2,54.9z"/>
			<path class="st1" d="M177.8,31c0.2,0.3-0.2,0.8-0.9,1.1c-0.6,0.3-1.3,0.2-1.4-0.1c-0.2-0.3,0.2-0.8,0.9-1.1
				C177,30.6,177.7,30.7,177.8,31L177.8,31z"/>
			<path class="st6" d="M176.3,56.5l1.6,0.9c-0.3,0.5-0.6,1.2-0.9,1.8c-1-3.4-26.5-20.3-40.5-27.5c8-2.5,18.9-0.2,18.9-0.2l12.7,8.4
				l0,0c0.7,2.4,1.4,4.6,1.4,4.6C170.6,49.3,174.7,55.6,176.3,56.5L176.3,56.5z"/>
			<path class="st5" d="M177,59.2L177,59.2c-0.6,1.3-1.1,2.7-1.6,4.2c-1.1,3.7-1.4,5.5-3.3,10.9c-0.2,0.5-0.4,1.3-0.7,2.4
				c-0.2,0.6-0.4,1.3-0.6,2c-0.2,0.9-0.5,1.8-0.8,2.8c-0.2,0.8-0.4,1.6-0.6,2.5c-1.2-1.1-10.7-10.3-19.7-16.8
				c-9.6-7-33.4-15.3-33.4-15.3s3.7-3.9,7-7.9c1.2-1.4,2.3-2.9,3.2-4.2c3.4-5,9.9-8.1,9.9-8.1C150.5,38.9,176,55.8,177,59.2
				L177,59.2z"/>
			<path class="st6" d="M177,143c-2.4-0.5-7,0.7-11,1.5c-4,0.8-5.2-0.5-4.6-1.5c0.3-0.2,1.3-1.4,2.6-3.1l0,0
				c0.5-0.7,1.2-1.5,1.8-2.3c0,0,1.8-0.5,4.2-1.1l0.1,0.3C170.2,136.8,175.1,140.8,177,143L177,143z"/>
			<path class="st8" d="M175.8,48.3l-1.9,0.3c-1.1-1.9-2.1-4.1-3.1-6.2l0.6-0.3c0,0,1.9-0.8,2.1-0.9l1-0.1
				C175,44.1,175.5,47.8,175.8,48.3L175.8,48.3z"/>
			<path class="st4" d="M174.3,126l0.2,0.4c-0.2,0.2-0.4,0.4-0.7,0.7l0,0c-5.3,0-17-8.4-20.3-10.9c-3.3-2.5-13.7-13.2-13.7-13.2
				c0.7-0.1,1.3-0.1,1.6-0.1c0.5,0,1.7,0,3.4,0.1c0.3,0.3,7.4,7.9,12.2,11.5C163.1,118.9,171.8,126,174.3,126L174.3,126z"/>
			<path class="st4" d="M173.9,127.1c-0.3,0.3-0.6,0.7-0.9,1.2c-7.5,2.3-20.3-8.5-22.7-10.6c-2.4-2-16-14-16-14
				c1.1-0.2,2.2-0.3,3.2-0.4c1-0.1,1.8-0.2,2.5-0.3c0,0,10.4,10.7,13.7,13.2C156.9,118.7,168.6,127.1,173.9,127.1L173.9,127.1z"/>
			<path class="st1" d="M171.5,33.7c0.2,0.3,0,0.9-0.6,1.3c-0.5,0.4-1.2,0.5-1.4,0.2c-0.2-0.3,0-0.9,0.6-1.3
				C170.6,33.5,171.3,33.3,171.5,33.7L171.5,33.7z"/>
			<path class="st5" d="M150.2,117.7c2.4,2,15.2,12.8,22.7,10.6c-1.2,1.7-3.5,4.8-5.7,7.7c-1.5,0.5-4.8-0.3-7.5-1
				c-2.1-0.6-3.7-1.2-3.7-1.2c-8.8-6.4-13.4-12.5-17.1-16c-3.7-3.6-9.1-8.4-13.4-9.2c-4.3-0.8-6.9-1.2-6.9-1.2
				c0.3-0.4,1.6-0.9,3.4-1.3c3.2-0.8,8.1-1.7,12.1-2.3C134.2,103.7,147.8,115.7,150.2,117.7L150.2,117.7z"/>
			<path class="st7" d="M169.4,84c-0.6,2.4-1.2,4.9-1.7,7.3c-7.1-8-24.7-26.8-51.6-39.1l0.2-0.4c0,0,23.8,8.3,33.4,15.3
				C158.7,73.8,168.3,82.9,169.4,84L169.4,84z"/>
			<path class="st7" d="M167.7,91.3c0,0.1,0,0.1,0,0.2c-1.7,0.7-3.7,2.3-5.6,4.1c-1.3-2-23.9-18.8-36.7-24.1
				c-12.8-5.3-29.3-10.4-41.1-13.9c0.9-0.6,1.6-1.4,2.1-1.9c0.5-0.6,1.6-2.3,2.8-4.3c1.4-2.4,3.1-5.1,4.6-6.9
				c3.4,0.8,6.6,1.8,9.8,2.8c4.5,1.5,8.7,3.2,12.7,5C143,64.5,160.7,83.4,167.7,91.3L167.7,91.3z"/>
			<path class="st4" d="M84.2,118.4c2.8,0.1,6.4,0,9.6-0.4c0.3,0.4,10.8,13.2,16.2,16.9c5.9,4.1,16.1,7.7,24.2,7.9
				c8.2,0.2,21.9-4.8,25.5-7.9c2.6,0.7,6,1.5,7.5,1c-0.4,0.6-0.9,1.2-1.3,1.7c-0.6,0.8-1.2,1.6-1.8,2.3l0,0
				c-2.5,1.4-11.5,5.3-24.2,8.5c-8,2-15.8,0.2-22.6-2.6c-4-1.6-7.7-3.6-10.9-5.3c-3.8-2-8.5-5.6-12.8-9.3c-5.1-4.4-9.5-9-11-11.3
				c-0.8-1.2-1.3-1.7-1.8-1.8C81.6,118.3,82.9,118.4,84.2,118.4L84.2,118.4z"/>
			<path class="st7" d="M162.1,95.6c-2.5,2.4-4.9,5.2-6.1,6.6c-1.5-1.8-28.1-18-39.7-22.6c-11.6-4.6-32.6-7-47.5-9.4
				c1.3-0.8,2.3-3.4,2.9-5.3c0.4-1.1,1-2.7,1.9-4.7c1.6-3.5,3.9-7.9,6.9-11.8c-0.1,0.2-1,2.6,0,7.3c0.7,3.1,2.3,2.8,3.7,1.8
				c11.8,3.5,28.4,8.6,41.1,13.9C138.2,76.8,160.8,93.6,162.1,95.6L162.1,95.6z"/>
			<path class="st4" d="M156,133.8c0,0,1.6,0.6,3.7,1.2c-3.6,3.1-17.4,8.1-25.5,7.9c-8.2-0.2-18.3-3.8-24.2-7.9
				c-5.3-3.7-15.8-16.5-16.2-16.9c0.8-0.1,1.6-0.2,2.3-0.4c0.6-0.1,1.3-0.2,2.1-0.4c2,2,8.6,10.3,13.1,13.7
				c5.1,3.8,13.6,7.2,20.5,8.1C141.3,140.4,151.2,137.2,156,133.8z"/>
			<path class="st7" d="M144.9,103c-1.7-0.1-3-0.1-3.4-0.1c-0.3,0-0.8,0-1.6,0.1c-0.7,0.1-1.6,0.2-2.5,0.3l0,0
				c-7.2-8.7-22.4-13.7-34.5-18.1c-12.1-4.4-30.1-6.8-52.7-9.7c0.8-0.5,1.6-1.6,2.4-2.5c1-1.3,1.8-3.1,2.7-5.5
				c0.8-2.3,1.7-5.3,2.9-8.9c0,0,5.3,7.1,8,10.7c1,1.4,1.9,1.5,2.7,1c14.9,2.4,35.9,4.7,47.5,9.4c11.6,4.6,38.1,20.9,39.7,22.6
				c-0.6,0.7-0.9,1.1-0.9,1.1l0,0.3C151.3,103.3,147.5,103.1,144.9,103L144.9,103z"/>
			<path class="st6" d="M156,133.8c-0.5,0.2-2.2,0.2-4.4,0c-5.8-0.5-15.2-2.3-17.1-3.8c-2.6-2.1-10.6-11.1-12.6-14.3
				c-0.7-1.1-1.4-2.3-1.9-3.4c-1-2-1.6-3.8-1.4-4.9c0,0,2.6,0.5,6.9,1.2c4.3,0.7,9.7,5.5,13.4,9.2
				C142.6,121.3,147.2,127.3,156,133.8L156,133.8z"/>
			<path class="st4" d="M151.6,133.8c2.2,0.2,3.8,0.2,4.4,0c-4.9,3.4-14.7,6.7-24.2,5.4c-7-0.9-15.4-4.3-20.5-8.1
				c-4.5-3.4-11.2-11.8-13.1-13.7c1-0.2,2.2-0.5,3.5-0.8c8.4,8.5,14.8,15.7,25.6,18.4C138.2,137.6,145.5,137.5,151.6,133.8
				L151.6,133.8z"/>
			<path class="st5" d="M151.6,133.8c-6.1,3.7-13.5,3.9-24.3,1.2c-10.8-2.7-17.2-9.9-25.6-18.4c7.5-1.7,18.4-4.3,18.4-4.3
				c0.5,1.1,1.2,2.2,1.9,3.4c2,3.2,10,12.2,12.6,14.3C136.4,131.4,145.9,133.2,151.6,133.8L151.6,133.8z"/>
			<path class="st7" d="M137.3,103.3L137.3,103.3c-1,0.1-2,0.3-3.2,0.4c-4.1,0.6-8.9,1.4-12.1,2.3l-0.1-0.4c0,0-9.7-4.1-19.1-7.7
				c-2.1-0.8-4.1-1.6-6.1-2.3c-8.1-3-56.9-9.8-62.8-9.5c3.5-0.8,10.6-8.5,11.6-17.1c0.1-0.5,0.1-1.1,0.1-1.6c0,0,0.1,1.4,0.5,3.5
				c1.2,4.9,2.6,5.5,4,4.5c22.5,2.9,40.6,5.3,52.7,9.7C114.9,89.6,130.2,94.5,137.3,103.3L137.3,103.3z"/>
			<path class="st7" d="M123.3,44L123.3,44c-3.3,4.1-7,7.9-7,7.9l-1.3-9.6l-0.3-2.4C117.3,39.8,123.3,44,123.3,44L123.3,44z"/>
			<path class="st5" d="M93.8,118.1c-3.2,0.4-6.7,0.5-9.6,0.4C73.1,109,69,94.3,68.9,93.9c11.5,1.4,25.4,3.2,33.9,4
				c9.4,3.6,19.1,7.7,19.1,7.7l0.1,0.4c-1.8,0.5-3.1,0.9-3.4,1.3c-0.2,1.1,0.4,2.9,1.4,4.9c0,0-10.9,2.6-18.4,4.3
				c-1.3,0.3-2.5,0.6-3.5,0.8c-0.8,0.2-1.5,0.3-2.1,0.4C95.3,117.9,94.6,118,93.8,118.1L93.8,118.1z"/>
			<path class="st5" d="M115.1,42.4l1.3,9.6l-0.2,0.4c-4-1.8-8.3-3.5-12.7-5v0c2.5-3.3,5.9-4.2,11.3-4.8L115.1,42.4L115.1,42.4z"/>
			<path class="st6" d="M117.3,145.8c0,0-12.4,0.3-20.9,0.9c-8.5,0.5-13.1,4.3-16.5,4.6c-1.6,0.1-3.6-1-5.6-2.4
				c-0.7-0.5-4.9-15.6-6.4-17.5c1.3,0.1,3.5,0.2,6.3,0.3c6.1,0.3,14.7,0.4,19.4-0.4c4.3,3.7,9,7.3,12.8,9.3
				C109.6,142.2,113.2,144.2,117.3,145.8L117.3,145.8z"/>
			<path class="st7" d="M68.9,93.9c-1.3-0.2-2.6-0.3-3.9-0.5l0,0c-1.7-0.2-3.3-0.4-4.8-0.6c-6.1-0.8-10.5-1.3-11.2-1.3
				c-0.8,0-1.4,0.2-1.9,0.7c0,0,0,0,0,0c-0.8,0.7-1.4,2-2.3,3.5c-0.2,0.4-0.6,0.9-0.9,1.4l-0.2-0.2l-10.9-1.1
				c2.6-0.7,0.6-9.5,0.6-9.5c0.2,0,0.3,0,0.5-0.1c5.9-0.4,54.7,6.5,62.8,9.5c1.9,0.7,4,1.5,6.1,2.3C94.3,97,80.4,95.3,68.9,93.9
				L68.9,93.9z"/>
			<path class="st6" d="M82.5,120c1.5,2.4,6,6.9,11,11.3c-4.7,0.8-13.3,0.7-19.4,0.4l0-0.9c2.1-2.9,3.5-7,4.3-9.1
				c0.2-0.4,0.3-0.8,0.4-1c0.2-0.4,0.5-1.9,1.2-2.4c0.1-0.1,0.2-0.1,0.4-0.1l0.2,0C81.2,118.3,81.8,118.8,82.5,120L82.5,120z"/>
			<path class="st7" d="M80.6,48.4c0,0,6.6,3.3,8.5,2.9c-1.2,2-2.2,3.7-2.8,4.3c-0.5,0.5-1.2,1.3-2.1,1.9c-1.4,1-3,1.3-3.7-1.8
				C79.6,51,80.5,48.6,80.6,48.4L80.6,48.4L80.6,48.4z"/>
			<path class="st4" d="M84.2,118.4c-1.4,0-2.6-0.1-3.5-0.2l-0.2,0c-0.1,0-0.3,0-0.4,0.1c-10.6-9-15-24.4-15.1-24.9
				c1.3,0.2,2.6,0.3,3.9,0.5C69,94.3,73.1,109,84.2,118.4L84.2,118.4z"/>
			<path class="st4" d="M80.1,118.3c-0.7,0.4-1,1.9-1.2,2.4c-0.1,0.2-0.3,0.6-0.4,1c-6.8-4.6-16.5-22.8-18.3-28.9
				c1.5,0.2,3.1,0.4,4.8,0.6l0,0C65.1,93.9,69.5,109.2,80.1,118.3L80.1,118.3z"/>
			<path class="st4" d="M78.5,121.7c-0.8,2.1-2.2,6.2-4.3,9.1c-0.6-0.4-8.7-10.9-12.5-16.3c-0.9-1.2-1.5-2.2-1.8-2.7
				c-0.6-1.1-1.6-2.6-2.6-4.2c-2.7-4.2-6.1-9.3-7-12c-1.3-3.6-2.7-3.8-3.2-3.5c0.5-0.4,1.1-0.7,1.9-0.7c0.7,0,5.1,0.6,11.2,1.3
				C62,98.9,71.7,117,78.5,121.7L78.5,121.7z"/>
			<path class="st6" d="M74.2,130.8l0,0.9c-2.7-0.1-5-0.3-6.3-0.3c0,0,0-0.1-0.1-0.1c-1.5-1.5-5.2,2.7-8.5,10.6
				c-1.4-1-2.4-3-2.7-4.1c-0.2-0.7-0.8-1.7-1.8-2.8c-0.5-0.7-0.6-11.7-1-17.6c-0.4-5.9-2.4-4.8-3.6-4.5c3-1.3,8.2,0.2,11.5,1.8
				C65.5,119.9,73.5,130.3,74.2,130.8L74.2,130.8z"/>
			<path class="st7" d="M58.2,58.5c0,0,13.9,2.1,15.5,1.7c-0.9,2-1.5,3.6-1.9,4.7c-0.7,1.8-1.6,4.4-2.9,5.3c-0.8,0.5-1.7,0.4-2.7-1
				C63.6,65.6,58.2,58.5,58.2,58.5L58.2,58.5z"/>
			<path class="st6" d="M67.9,131.4c1.5,1.9,5.7,17,6.4,17.5c-2.3-1.6-4.7-3.4-6.7-4c-2.3-0.7-5.9-1.2-8.3-2.9
				C62.6,134,66.3,129.7,67.9,131.4C67.8,131.3,67.8,131.3,67.9,131.4L67.9,131.4z"/>
			<path class="st6" d="M57.2,107.6h-0.4c0,0-11.9-0.4-14.7-0.2c-2.8,0.1-4.6,0.1-4.2-1.7c0.3-1.6,3.8-5.6,5.9-8.6
				c0.3-0.5,0.6-0.9,0.9-1.4c0.9-1.5,1.4-2.7,2.3-3.5c0,0,0,0,0,0c0.4-0.3,1.9-0.2,3.2,3.5C51.2,98.2,54.6,103.4,57.2,107.6
				L57.2,107.6z"/>
			<path class="st7" d="M55.3,67.4c-0.9,2.4-1.7,4.2-2.7,5.5c-0.8,0.9-1.6,2-2.4,2.5c-1.4,0.9-2.8,0.4-4-4.5
				c-0.4-2.1-0.5-3.5-0.5-3.5S52.8,68.6,55.3,67.4z"/>
			<path class="st6" d="M53.8,117.3c0.4,5.9,0.5,16.9,1,17.6c-3-3.8-8.9-9.1-10-10c-1.5-1.2-2.9-1.7-2.3-2.7
				c0.7-0.9,3.9-6.2,6.5-8.8c0.3-0.3,0.7-0.6,1.1-0.8h0C51.4,112.5,53.4,111.4,53.8,117.3z"/>
			<path class="st7" d="M45.1,69l0.4,0c-1.1,8.6-8.2,16.3-11.6,17.1c-0.2,0-0.4,0-0.5,0.1C33.4,86.2,44.5,73,45.1,69L45.1,69z"/>
		</g>
		<g>
			<path class="st9" d="M168.2,39.8c0.7,2.4,1.4,4.6,1.4,4.6c1.1,4.9,5.2,11.2,6.7,12.1l1.6,0.9"/>
			<path class="st9" d="M192.7,53.1c-0.6,0.5-1.4,0.9-2.2,1.3c-2,0.9-4.5,1.3-6.7,1.3c-1.7,0-3.3-0.2-4.5-0.7c0,0,0,0,0,0
				c-1.7-0.6-3.6-3.1-5.3-6.3c-1.1-1.9-2.1-4.1-3.1-6.2c-1.4-3.2-2.6-6.3-3.3-8.3c0-0.9,0.3-2.1,0.7-2.1c0.8-0.3,5.9-4.7,6.3-5.2
				c0.3-0.5,1.8-0.3,2.1,0c0.3,0.3,11.3,8.7,14.6,11.2c1.5,1.2,6.5,6.7,11.4,10.4c1.7,1.3,3.4,2.4,4.9,3c0.5,0.2,1,0.4,1.6,0.6
				c6.1,2.5,16.2,6.7,17.4,6.6c-0.2-0.7-0.7-1.2-0.7-1.2s-13.7-12.6-20.1-18.7c-1.3-1.3-2.3-2.2-2.9-2.8
				c-3.1-3.2-10.6-10.8-13.5-13.4c-2.9-2.6-7.7-5.3-11.2-4.7c-3.4,0.6-9.8,6.1-10.8,8.6c-1.1,2.9-1.2,5.8-0.7,8c0,0.1,0,0.1,0,0.2
				c0.2,0.8,0.9,3.2,1.5,5.4"/>
			<path class="st9" d="M190.6,54.5l5.2,7.2c0.3,0.1,0.6,0.4,1.1,0.4c0.3,0,0.6-0.1,1-0.4l4.7-13.3"/>
			<path class="st9" d="M224.5,34.7c0,0-1.4,14.1-1.1,15.9c11.3,4.7,19.3,9.7,24.1,14.7s10.1,18.5,10.8,21.9"/>
			<path class="st9" d="M223.4,50.5c1.7-3,10.4-6.7,11.7-7.1"/>
			<path class="st9" d="M207,91.6c-0.9-1-1.7-2-2.6-3.1c-0.8-1-1.7-2.1-2.5-3.1c-2.5-3.3-4.5-6.5-4.8-8.6"/>
			<path class="st9" d="M237,96.1c-3-2.3-6.3-5.2-9.6-8.3c-1.6-1.5-3.3-3.1-4.9-4.7c-1.2-1.2-2.3-2.3-3.4-3.5
				c-1.8-1.8-3.5-3.6-5-5.2c-3.4-3.6-6.1-6.7-7.5-8.4c-0.4-0.5-0.7-0.9-0.9-1.1c-1.1-1.5-3-2.4-6.3-2.7c-0.8-0.1-1.6-0.1-2.5-0.1
				c-1.3,0-2.7,0.1-4.3,0.3c-1.3,0.2-2.4,0.5-3.4,1c-5.2,2.5-7.4,8.8-8,13.1c-0.1,1-0.1,2.3,0,3.6c0,0.7,0.1,1.4,0.2,2.2
				c0.1,0.7,0.2,1.4,0.3,2.1c0.1,0.7,0.2,1.5,0.4,2.2c0.1,0.7,0.3,1.4,0.4,2.1c0.2,0.7,0.3,1.4,0.5,2.1c0.6,2.4,1.1,4.4,1.5,5.6
				c0.2,0.5,1,1,2,1.4c1.2,0.5,2.8,1,4.2,1.3c0.9,0.2,1.7,0.3,2.2,0.3c0.8,0,3.9-0.1,7.5-0.3c2.3-0.1,4.7-0.3,6.7-0.5
				c2-0.2,3.6-0.5,4.6-0.8c0.3-0.1,0.6-0.2,0.7-0.3c-1.1-1.2-2.7-2.9-4.3-4.8c-0.3-0.4-0.6-0.7-1-1.1"/>
			<path class="st9" d="M181.3,82.3c4.2,1.9,15.1,5,20.6,3.1"/>
			<path class="st9" d="M182.2,86.5c3.7,1.4,17.9,3.5,22.1,2l0.1,0"/>
			<path class="st9" d="M183.1,90.8c3.2,0.9,21,2.1,23.8,0.8l0,0"/>
			<path class="st9" d="M207.9,92.7c5.5,2.7,17.2,8.6,25.5,10.9c8.3,2.3,29.9,7.9,35.5,10.3"/>
			<path class="st9" d="M259.9,128.9c-2.2,0.5-4.4,1-6.5,1.1c-0.5,0-1.1,0-1.6-0.1c-2.1-0.4-4.6-1.8-7-3.5c-2.1-1.5-4.2-3.3-6-4.9
				c-2.3-2.2-4-4-4.5-4.7"/>
			<path class="st9" d="M254.3,90.8c0,0,0,0,0.1,0.1c0.6,0.3,3.3,1.9,4.4,4.1c1.2,2.5,10,15.6,10,16.4c0,0.2,0.1,1.2,0.1,2.5
				c0.1,1.1,0.1,2.4,0.2,3.8c0,1.3,0.1,2.7,0.1,3.8c0,1.9-0.1,3.4-0.4,3.8c-0.1,0.2-0.4,0.4-0.7,0.6c-1.4,0.9-4.7,2-8.2,2.9"/>
			<path class="st9" d="M268.1,125.9c-2.6-2.4-12.9-6.1-20.6-7.8c-5.7-1.3-10.2-1.4-13.2-1.4c-1.1,0-2,0-2.7,0
				c-1.5-0.1-4.9-1.1-8.3-2.2c-2.6-0.9-5.1-1.9-6.5-2.6c-1.4-0.7-2.9-2.4-4.4-4.5c-0.2-0.2-0.3-0.5-0.5-0.7c-1-1.6-2.1-3.3-3-4.8
				c-0.7-1.2-1.4-2.3-2-3.2l-15.4,19.2"/>
			<path class="st9" d="M244.8,126.4c0,0,4.6-1.9,15.1,2.4l0,0"/>
			<path class="st9" d="M211.6,97.8c0,0,4.2,0.1,4.9,0.8c0.1,0.1,0.1,0.4,0.1,0.8c-0.1,0.8-0.6,2.2-1.1,3.4
				c-0.6,1.6-1.3,3.1-1.5,3.4c-0.4,0.5-2,0.4-2,0.4"/>
			<path class="st9" d="M216.6,99.4c0,0,4.2,2.8,8,4.7c3.8,1.9,17.4,4.8,23.1,6.3c5.6,1.5,19.6,6.3,21.5,7.3c0,0,0.1,0,0.1,0"/>
			<path class="st9" d="M215.5,102.9c0,0,4.2,2.8,8,4.7c3.8,1.9,17.4,4.8,23.1,6.3c5.7,1.5,21,6.8,22.6,7.7l0,0"/>
			<path class="st9" d="M234.4,68.4c0.5,0.8,1,1.5,1.3,2.2c0.4,0.8,0.9,1.8,1.5,2.9c0.2,0.3,0.3,0.6,0.4,0.9
				c2.4,4.8,5.5,11.3,5.9,14.6"/>
			<path class="st9" d="M226.5,58.5c0,0,0.2,0.3,0.7,0.7c0.9,1,2.6,3,4.3,5.1c1,1.3,2.1,2.7,3,4"/>
			<path class="st9" d="M227.4,87.8c0,0,12.7,1.1,16,1.7c0,0,0,0,0.1,0c1.1,0.2,2.5,0.5,4,0.7c1.2,0.2,2.5,0.4,3.7,0.5
				c1.3,0.1,2.5,0.2,3.4,0.1c0.2,0,0.3,0,0.4-0.1c0.2-0.1,0.4-0.2,0.6-0.3c1.3-0.7,2.2-1.8,2.8-3.3l0,0c1.3-3.2,1.3-7.8,0.8-11.7
				c-0.7-5.9-1.8-11.8-2.6-14.4c-0.8-2.6-3.1-7.2-6.5-12.3c-3.3-5.1-8.8-5.4-14.8-5.5c-1.2-3.1-5.9-5.8-8.9-7.9
				c-0.5-0.3-1.1-0.6-1.7-0.8c-3.2-1-7.7-0.4-9.2,0c-1.8,0.5-9.7,4-9.7,4"/>
			<path class="st9" d="M231.4,64.4L231.4,64.4c0.3,0.1,8.4,3.6,12.1,7.6c6.4,6.9,11.9,17.5,12.1,18.6"/>
			<path class="st9" d="M234.4,68.4L234.4,68.4c0.5,0.4,8.9,7,11.2,10.2c2.4,3.3,5.4,11,5.5,12.1"/>
			<path class="st9" d="M237.6,74.4c3.4,1.8,9.2,9.9,9.9,15.8"/>
			<path class="st9" d="M222.5,83.1c0,0,11.2-8.7,12.9-8.7c0.1,0,0.1,0,0.1,0"/>
			<path class="st9" d="M219.1,79.6c0,0,9.6-11.6,11.3-12.4"/>
			<line class="st9" x1="217.5" y1="71.5" x2="227.1" y2="59.2"/>
			<path class="st9" d="M215.5,57.6c0,0-2.2,11.1-1.5,16.8"/>
			<path class="st9" d="M177,59.2c-1-3.4-26.5-20.3-40.5-27.5c8-2.5,18.9-0.2,18.9-0.2l12.7,8.4l0,0"/>
			<path class="st9" d="M179.3,54.9L179.3,54.9C179.3,54.9,179.3,54.9,179.3,54.9c-0.2,0.2-0.8,1.2-1.5,2.5
				c-0.3,0.5-0.6,1.2-0.9,1.8l0,0c-0.6,1.3-1.1,2.7-1.6,4.2c-1.1,3.7-1.4,5.5-3.3,10.9c-0.2,0.5-0.4,1.3-0.7,2.4
				c-0.2,0.6-0.4,1.3-0.6,2c-0.2,0.9-0.5,1.8-0.8,2.8c-0.2,0.8-0.4,1.6-0.6,2.5c-0.6,2.4-1.2,4.9-1.7,7.3c0,0.1,0,0.1,0,0.2
				c-0.8,3.8-1.3,7.3-1.2,9.3"/>
			<path class="st9" d="M179.3,54.9C179.3,54.9,179.3,54.9,179.3,54.9"/>
			<path class="st9" d="M136.5,31.7c0,0-6.5,3.1-9.9,8.1c-0.9,1.3-2,2.8-3.2,4.2c-3.3,4-7,7.9-7,7.9s23.8,8.3,33.4,15.3
				c9,6.6,18.5,15.7,19.7,16.8c0.1,0.1,0.1,0.1,0.1,0.1"/>
			<path class="st9" d="M123.3,44c0,0-6-4.2-8.6-4.1l0.3,2.4l1.3,9.6"/>
			<path class="st9" d="M114.7,42.4c-5.4,0.6-8.8,1.5-11.3,4.8"/>
			<path class="st9" d="M80.6,48.4C80.6,48.4,80.6,48.4,80.6,48.4c-3,3.9-5.3,8.4-6.9,11.9c-0.9,2-1.5,3.6-1.9,4.7
				c-0.7,1.8-1.6,4.4-2.9,5.3c-0.8,0.5-1.7,0.4-2.7-1c-2.7-3.6-8-10.7-8-10.7c-1.2,3.7-2.1,6.6-2.9,8.9c-0.9,2.4-1.7,4.2-2.7,5.5
				c-0.8,0.9-1.6,2-2.4,2.5c-1.4,0.9-2.8,0.4-4-4.5c-0.4-2.1-0.5-3.5-0.5-3.5c0,0.5-0.1,1.1-0.1,1.6c-1.1,8.6-8.2,16.3-11.6,17.1
				c-0.2,0-0.3,0.1-0.5,0.1c0.1,0,0.3-0.1,0.5-0.1c5.9-0.4,54.7,6.5,62.8,9.5c1.9,0.7,4,1.5,6.1,2.3c9.4,3.6,19.1,7.7,19.1,7.7"/>
			<path class="st9" d="M167.8,91.5c0,0-0.1-0.1-0.1-0.1c-7.1-8-24.7-26.8-51.6-39.1c-4-1.8-8.3-3.5-12.7-5c-3.2-1.1-6.4-2-9.8-2.8
				c-1.4,1.7-3.1,4.5-4.6,6.9c-1.2,2-2.2,3.7-2.8,4.3c-0.5,0.5-1.2,1.3-2.1,1.9c-1.4,1-3,1.3-3.7-1.8c-1-4.7-0.1-7.1,0-7.3"/>
			<path class="st9" d="M84.3,57.6c11.8,3.5,28.4,8.6,41.1,13.9c12.8,5.3,35.4,22.1,36.7,24.1"/>
			<path class="st9" d="M155.1,103.3c0,0,0.3-0.4,0.9-1.1c1.2-1.5,3.6-4.2,6.1-6.6c1.9-1.8,3.9-3.4,5.6-4.1c0,0,0.1,0,0.1-0.1"/>
			<path class="st9" d="M68.9,70.2c14.9,2.4,35.9,4.7,47.5,9.4c11.6,4.6,38.1,20.9,39.7,22.6"/>
			<path class="st9" d="M50.2,75.5c22.5,2.9,40.6,5.3,52.7,9.7c12.1,4.4,27.3,9.3,34.5,18.1"/>
			<path class="st9" d="M190.6,99.1l-4.2,3.8l-6.1,5.6c1.6,1.5,3.5,3.1,5.5,4.8c1.8,1.4,3.7,2.9,5.8,4.4c2.1,1.5,4.5,2.9,7,4.2
				c0.5,0.2,0.9,0.5,1.4,0.7c2.4,1.2,5,2.2,7.9,3.1c1.9,0.6,4,1.2,6.1,1.6c1.9,0.4,4,0.7,6.1,1c0.8,0.1,1.6,0.2,2.4,0.2
				c1.4,0.1,2.8,0.2,4.3,0.2c1.3,0,2.7,0,4.1,0c0.2,0,0.3,0,0.5,0c1.4-0.1,2.8-0.1,4.3-0.3c0.9-0.1,1.8-0.2,2.7-0.3
				c0-1.2,0-2.3,0-3.1c0.1-2.6,0.4-3.5,0.4-3.5"/>
			<line class="st9" x1="185.8" y1="113.4" x2="200.2" y2="99.1"/>
			<line class="st9" x1="198.6" y1="121.9" x2="209" y2="101.8"/>
			<line class="st9" x1="212.5" y1="107.3" x2="207.9" y2="125.7"/>
			<line class="st9" x1="222.5" y1="128.5" x2="223.4" y2="114.4"/>
			<line class="st9" x1="231.4" y1="128.5" x2="231.7" y2="116.7"/>
			<path class="st9" d="M238.4,125L238.4,125c2.7,3.1,7.5,6.8,13.4,4.9c3.9-1.2,3.9-1.2,0,0"/>
			<polyline class="st9" points="220.1,128.3 226.5,136 237.6,149.4 241.7,146.1 226.8,128.7 			"/>
			<polyline class="st9" points="241.7,146.1 245.1,149.4 249,146.1 242,139.3 230.9,128.7 			"/>
			<polyline class="st9" points="242,139.3 244.8,136.7 235.7,128.4 235.5,128.3 			"/>
			<path class="st9" d="M164.1,139.9c-1.3,1.6-2.3,2.8-2.6,3.1c-0.6,1,0.6,2.3,4.6,1.5c4-0.8,8.6-2,11-1.5c2.4,0.5,7.8,2.5,8.7,2.8
				c1,0.2,2.3-0.5,2.8-0.8"/>
			<path class="st9" d="M173.9,127.1c-0.3,0.3-0.6,0.7-0.9,1.2c-1.2,1.7-3.5,4.8-5.7,7.7c-0.4,0.6-0.9,1.2-1.3,1.7
				c-0.6,0.8-1.2,1.6-1.8,2.3"/>
			<path class="st9" d="M216.9,111.9l-2.8,15.4c-1.7,3-7.2,6.9-12.6,10.3c-1.3,0.8-2.5,1.6-3.7,2.3c-0.9,0.5-1.8,1.1-2.7,1.5
				c-1.8,1-3.4,1.9-4.5,2.5c-1.3,0.7-2,1.1-2,1.1c-0.8-2.6-3.3-6.6-5.8-10.1c-2.6-3.7-5.2-6.9-5.8-7.5c-0.6-0.6-1-1.4-1.6-1.4
				c-0.2,0-0.5,0.1-0.8,0.4c-0.2,0.2-0.4,0.4-0.7,0.7"/>
			<path class="st9" d="M190.6,144c0,0,7.1,3.3,9.7,1.1c2.5-2.2,8.7-5.5,13.8-6.2c5.1-0.6,12.4-2.9,12.4-2.9"/>
			<path class="st9" d="M175.3,126L175.3,126c3.7-0.1,7.4,0,10.4,0c1.6,0,3,0,4.2-0.1c0.6,0,1.2-0.1,1.6-0.2
				c0.6-0.2,1.5-0.4,2.4-0.7c2.8-1,6.1-2.4,6.1-2.4"/>
			<path class="st9" d="M194,125c1.9,1.7,6.6,8.4,7.5,12.7"/>
			<path class="st9" d="M190,125.9c2.5,2.7,7.4,10.2,7.8,14"/>
			<path class="st9" d="M185.8,126c3.2,3.6,9.9,11.6,9.3,15.4"/>
			<polyline class="st9" points="186.4,97.8 186.4,101.8 186.4,102.9 			"/>
			<path class="st9" d="M186.4,101.8c0,0-11.6,2.5-16.2,2.5c-2.3,0-8.8-0.4-15-0.7c-3.8-0.2-7.6-0.4-10.2-0.6
				c-1.7-0.1-3-0.1-3.4-0.1c-0.3,0-0.8,0-1.6,0.1c-0.7,0.1-1.6,0.2-2.5,0.3c-1,0.1-2,0.3-3.2,0.4c-4.1,0.6-8.9,1.4-12.1,2.3
				c-1.8,0.5-3.1,0.9-3.4,1.3c-0.2,1.1,0.4,2.9,1.4,4.9c0.5,1.1,1.2,2.2,1.9,3.4c2,3.2,10,12.2,12.6,14.3c1.9,1.5,11.3,3.3,17.1,3.8
				c2.2,0.2,3.8,0.2,4.4,0c-8.8-6.4-13.4-12.5-17.1-16c-3.7-3.6-9.1-8.4-13.4-9.2c-4.3-0.8-6.9-1.2-6.9-1.2"/>
			<path class="st9" d="M156,133.8c0,0,1.6,0.6,3.7,1.2c2.6,0.7,6,1.5,7.5,1"/>
			<path class="st9" d="M144.9,103L144.9,103c0.3,0.3,7.4,7.9,12.2,11.5c6,4.4,14.7,11.6,17.3,11.6"/>
			<path class="st9" d="M134.2,103.7c0,0,13.6,11.9,16,14c2.4,2,15.2,12.8,22.7,10.6"/>
			<path class="st9" d="M139.9,103c0,0,10.4,10.7,13.7,13.2c3.3,2.5,15,10.9,20.3,10.9l0,0"/>
			<path class="st9" d="M47,92.1c-0.8,0.7-1.4,2-2.3,3.5c-0.2,0.4-0.6,0.9-0.9,1.4c-2.1,3.1-5.6,7.1-5.9,8.6
				c-0.4,1.8,1.4,1.8,4.2,1.7c2.8-0.1,14.7,0.3,14.7,0.3"/>
			<path class="st9" d="M65,93.4c-1.7-0.2-3.3-0.4-4.8-0.6C54,92,49.7,91.5,48.9,91.5c-0.8,0-1.4,0.2-1.9,0.7"/>
			<path class="st9" d="M102.8,97.9c-8.6-0.8-22.4-2.6-33.9-4c-1.3-0.2-2.6-0.3-3.9-0.5"/>
			<path class="st9" d="M80.7,118.2c0.5,0.1,1,0.6,1.8,1.8c1.5,2.4,6,6.9,11,11.3c4.3,3.7,9,7.3,12.8,9.3c3.2,1.7,6.9,3.6,10.9,5.3
				c6.8,2.8,14.6,4.6,22.6,2.6c12.7-3.2,21.7-7.1,24.2-8.5l0,0"/>
			<path class="st9" d="M47,92.1C47,92.1,47,92.1,47,92.1c0.5-0.3,1.9-0.2,3.2,3.4c1,2.7,4.3,7.8,7,12c1,1.6,2,3.1,2.6,4.2
				c0.3,0.5,1,1.5,1.8,2.7c3.8,5.4,11.9,15.8,12.5,16.3c2.1-2.9,3.5-7,4.3-9.1c0.2-0.4,0.3-0.8,0.4-1c0.2-0.4,0.5-1.9,1.2-2.4
				c0.1-0.1,0.2-0.1,0.4-0.1"/>
			<path class="st9" d="M120.1,112.2c0,0-10.9,2.6-18.4,4.3c-1.3,0.3-2.5,0.6-3.5,0.8c-0.8,0.2-1.5,0.3-2.1,0.4
				c-0.7,0.1-1.5,0.2-2.3,0.4c-3.2,0.4-6.7,0.5-9.6,0.4c-1.4,0-2.6-0.1-3.5-0.2l-0.2,0"/>
			<path class="st9" d="M101.7,116.5c8.4,8.5,14.8,15.7,25.6,18.4c10.8,2.7,18.2,2.6,24.3-1.2"/>
			<path class="st9" d="M98.2,117.3c2,2,8.6,10.3,13.1,13.7c5.1,3.8,13.6,7.2,20.5,8.1c9.5,1.3,19.3-2,24.2-5.4"/>
			<path class="st9" d="M93.8,118.1L93.8,118.1c0.3,0.4,10.8,13.2,16.2,16.9c5.9,4.1,16.1,7.7,24.2,7.9c8.2,0.2,21.9-4.8,25.5-7.9"
				/>
			<path class="st9" d="M60.2,92.8c1.8,6.1,11.6,24.3,18.3,28.9"/>
			<path class="st9" d="M65,93.4L65,93.4c0.1,0.5,4.5,15.9,15.1,24.9"/>
			<path class="st9" d="M68.9,93.9L68.9,93.9c0.1,0.5,4.2,15.1,15.3,24.6c0,0,0,0,0,0"/>
			<path class="st9" d="M50.2,112.7c-0.4,0.2-0.8,0.5-1.1,0.8c-2.5,2.6-5.8,7.8-6.5,8.8c-0.7,0.9,0.8,1.5,2.3,2.7
				c1.1,0.9,7,6.2,10,10c0.9,1.1,1.6,2.1,1.8,2.8c0.3,1.1,1.3,3.1,2.7,4.1c2.4,1.7,5.9,2.2,8.3,2.9c2,0.6,4.4,2.5,6.7,4
				c2,1.4,4,2.6,5.6,2.4c3.4-0.3,7.9-4.1,16.5-4.6c8.5-0.5,20.9-0.9,20.9-0.9"/>
			<path class="st9" d="M61.7,114.5c-3.3-1.6-8.5-3.1-11.5-1.8"/>
			<path class="st9" d="M59.3,141.9c3.3-7.9,7-12.1,8.5-10.6c0,0,0,0.1,0.1,0.1c1.5,1.9,5.7,17,6.4,17.5"/>
			<path class="st9" d="M66.8,131.3c0,0,0.4,0,1.1,0.1c1.3,0.1,3.5,0.2,6.3,0.3c6.1,0.3,14.7,0.4,19.4-0.4"/>
			<path class="st9" d="M50.2,112.7L50.2,112.7c1.2-0.2,3.2-1.3,3.6,4.5c0.4,5.9,0.5,16.9,1,17.6"/>
			<path class="st9" d="M170.2,136.8c0,0,4.9,4,6.9,6.2"/>
			<path class="st9" d="M165.9,137.7c0,0,1.8-0.5,4.2-1.1c4.1-1,10.1-2.3,12.6-1.6"/>
			<path class="st9" d="M174.2,38c0,0.6,0.2,1.8,0.3,3.2c0.4,2.9,0.9,6.6,1.2,7.2c0,0,0,0,0,0.1c0.4,0.3,3-0.2,3.4-0.6"/>
			<line class="st9" x1="179.3" y1="44.8" x2="181" y2="47"/>
			<path class="st9" d="M180.8,51.3c0,0,1.1,0.1,1.6-0.8"/>
			<path class="st9" d="M180.2,38.7c0,0,3-1.3,3.7-1.3"/>
			<path class="st9" d="M171.5,42.1c0,0,1.9-0.8,2.1-0.9"/>
			<path class="st9" d="M177.8,31c0.2,0.3-0.2,0.8-0.9,1.1c-0.6,0.3-1.3,0.2-1.4-0.1c-0.2-0.3,0.2-0.8,0.9-1.1
				C177,30.6,177.7,30.7,177.8,31L177.8,31z"/>
			<path class="st9" d="M171.5,33.7c0.2,0.3,0,0.9-0.6,1.3c-0.5,0.4-1.2,0.5-1.4,0.2c-0.2-0.3,0-0.9,0.6-1.3
				C170.6,33.5,171.3,33.3,171.5,33.7L171.5,33.7z"/>
			<path class="st9" d="M183.8,55.8c0,0,4.3,4.9,5.3,7.6"/>
			<path class="st9" d="M199.4,62.1l9.6-10.2c0,0-2.3,11.3-2.5,14"/>
			<path class="st9" d="M171.5,76.7c0,0,6.7,3.6,9.6,3.4"/>
			<path class="st9" d="M170.2,81.6c0,0,7.2,7.3,12.2,7.2"/>
			<path class="st9" d="M170.9,78.7c0,0,5.1,4.5,10.7,5.7"/>
			<path class="st9" d="M32.8,95.7c2.6-0.7,0.6-9.5,0.6-9.5S44.5,73,45.1,69"/>
			<line class="st9" x1="43.6" y1="96.8" x2="32.8" y2="95.7"/>
			<path class="st9" d="M45.7,67.4c0,0,7.1,1.2,9.6,0"/>
			<path class="st9" d="M58.2,58.5c0,0,13.9,2.1,15.5,1.7"/>
			<path class="st9" d="M80.6,48.4c0,0,6.6,3.3,8.5,2.9"/>
		</g>
	</g>
</g>
</svg>
