<?xml version="1.0" encoding="utf-8"?>
<!-- Generator: Adobe Illustrator 27.9.0, SVG Export Plug-In . SVG Version: 6.00 Build 0)  -->
<svg version="1.1" id="レイヤー_1" xmlns="http://www.w3.org/2000/svg" xmlns:xlink="http://www.w3.org/1999/xlink" x="0px"
	 y="0px" viewBox="0 0 273.9 184.2" style="enable-background:new 0 0 273.9 184.2;" xml:space="preserve">
<style type="text/css">
	.st0{fill:#F3EDD7;}
	.st1{fill:#333333;}
	.st2{fill:#D2D296;}
	.st3{fill:none;stroke:#000000;stroke-miterlimit:10;}
	.st4{clip-path:url(#SVGID_00000026134805966335273750000002747081602420013503_);}
	.st5{fill:#FE483D;}
	.st6{fill:#E4C95E;}
	.st7{fill:#CCA4BE;}
	.st8{fill:#E9DBD0;}
	.st9{fill:#FFF4DD;}
	.st10{fill:none;stroke:#000000;stroke-linecap:round;stroke-linejoin:round;}
</style>
<g id="_畳">
	<g>
		<g>
			<rect x="0.2" y="149.1" class="st0" width="3.7" height="5.1"/>
			<path class="st0" d="M273.7,177v6.6h-30.8l15.6-8.7c1,1.6,3.2,2.8,5.6,2.8c2.4,0,4.7-1.2,5.7-2.9L273.7,177L273.7,177z"/>
			<path class="st0" d="M273.7,166.3V177l-4-2.3c0.4-0.7,0.6-1.4,0.6-2.2c0-1.3-0.6-2.5-1.6-3.4L273.7,166.3L273.7,166.3z"/>
			<path class="st0" d="M273.7,154.2v12.2l-5.1,2.8c-1.2-1-2.8-1.7-4.7-1.7s-3.4,0.6-4.5,1.5L233,154.2H273.7z"/>
			<polygon class="st0" points="273.7,68.3 273.7,74.1 1.1,74.1 0.2,74.1 0.2,68.3 			"/>
			<rect x="269.6" y="149.1" class="st0" width="4" height="5.1"/>
			<path class="st0" d="M270.3,172.6c0,0.8-0.2,1.5-0.6,2.2l-5.5-3.1l4.4-2.5C269.6,170.1,270.3,171.3,270.3,172.6L270.3,172.6z"/>
			<path class="st0" d="M264.2,171.7l5.5,3.1c-1,1.7-3.2,2.9-5.7,2.9c-2.5,0-4.5-1.1-5.6-2.8L264.2,171.7L264.2,171.7z"/>
			<rect x="258.2" y="149.1" class="st1" width="11.5" height="5.1"/>
			<path class="st0" d="M268.6,169.2l-4.4,2.5l-4.7-2.6c1.1-0.9,2.7-1.5,4.5-1.5C265.8,167.5,267.5,168.1,268.6,169.2L268.6,169.2z"
				/>
			<path class="st0" d="M264.2,171.7l-5.8,3.3c-0.4-0.7-0.7-1.5-0.7-2.3c0-1.4,0.7-2.6,1.8-3.6L264.2,171.7L264.2,171.7z"/>
			<path class="st0" d="M233.1,154.2l26.4,14.9c-1.1,0.9-1.8,2.2-1.8,3.6c0,0.8,0.3,1.6,0.7,2.3l-15.6,8.7h-42l-15.9-8.9
				c0.4-0.7,0.6-1.4,0.6-2.2c0-1.3-0.6-2.5-1.6-3.4l26.7-15L233.1,154.2L233.1,154.2z M227,172.6c0-2.8-2.3-5.1-5.1-5.1
				s-5.1,2.3-5.1,5.1s2.3,5.1,5.1,5.1S227,175.4,227,172.6z"/>
			<polygon class="st0" points="258.2,154.2 233.1,154.2 227.3,154.2 227.3,149.1 258.2,149.1 			"/>
			<rect x="215.8" y="149.1" class="st1" width="11.5" height="5.1"/>
			<path class="st1" d="M221.9,167.5c2.8,0,5.1,2.3,5.1,5.1s-2.3,5.1-5.1,5.1s-5.1-2.3-5.1-5.1S219.1,167.5,221.9,167.5z"/>
			<path class="st0" d="M210.6,154.2l-26.7,15c-1.2-1-2.8-1.7-4.7-1.7c-1.8,0-3.4,0.6-4.5,1.5l-26.4-14.9H210.6z"/>
			<polygon class="st0" points="184.9,154.2 184.9,149.1 215.8,149.1 215.8,154.2 210.6,154.2 			"/>
			<path class="st0" d="M200.8,183.7h-42.7l15.6-8.7c1,1.6,3.2,2.8,5.6,2.8c2.4,0,4.7-1.2,5.7-2.9L200.8,183.7L200.8,183.7z"/>
			<path class="st0" d="M185.6,172.6c0,0.8-0.2,1.5-0.6,2.2l-5.5-3.1l4.4-2.5C184.9,170.1,185.6,171.3,185.6,172.6L185.6,172.6z"/>
			<path class="st0" d="M179.5,171.7l5.5,3.1c-1,1.7-3.2,2.9-5.7,2.9c-2.5,0-4.5-1.1-5.6-2.8L179.5,171.7L179.5,171.7z"/>
			<rect x="173.4" y="149.1" class="st1" width="11.5" height="5.1"/>
			<path class="st0" d="M179.3,167.5c1.8,0,3.5,0.6,4.7,1.7l-4.4,2.5l-4.7-2.6C175.9,168.1,177.5,167.5,179.3,167.5L179.3,167.5z"/>
			<path class="st0" d="M179.5,171.7l-5.8,3.3c-0.4-0.7-0.7-1.5-0.7-2.3c0-1.4,0.7-2.6,1.8-3.6L179.5,171.7L179.5,171.7z"/>
			<path class="st0" d="M148.3,154.2l26.4,14.9c-1.1,0.9-1.8,2.2-1.8,3.6c0,0.8,0.3,1.6,0.7,2.3l-15.6,8.7h-42l-15.9-8.9
				c0.4-0.7,0.6-1.4,0.6-2.2c0-1.3-0.6-2.5-1.6-3.4l26.7-15L148.3,154.2L148.3,154.2z M141.2,172.6c0-2.8-2.3-5.1-5.1-5.1
				s-5.1,2.3-5.1,5.1s2.3,5.1,5.1,5.1S141.2,175.4,141.2,172.6z"/>
			<polygon class="st0" points="173.4,154.2 148.3,154.2 142.5,154.2 142.5,149.1 173.4,149.1 			"/>
			<rect x="131.1" y="149.1" class="st1" width="11.5" height="5.1"/>
			<path class="st1" d="M136.1,167.5c2.8,0,5.1,2.3,5.1,5.1s-2.3,5.1-5.1,5.1s-5.1-2.3-5.1-5.1S133.3,167.5,136.1,167.5z"/>
			<path class="st0" d="M125.9,154.2l-26.7,15c-1.2-1-2.8-1.7-4.7-1.7c-1.8,0-3.4,0.6-4.5,1.5l-26.4-14.9H125.9z"/>
			<polygon class="st0" points="131.1,154.2 125.9,154.2 100.1,154.2 100.1,149.1 131.1,149.1 			"/>
			<path class="st0" d="M116.1,183.7H73.4l15.6-8.7c1,1.6,3.2,2.8,5.6,2.8c2.4,0,4.7-1.2,5.7-2.9L116.1,183.7L116.1,183.7z"/>
			<path class="st0" d="M100.8,172.6c0,0.8-0.2,1.5-0.6,2.2l-5.5-3.1l4.4-2.5C100.2,170.1,100.8,171.3,100.8,172.6L100.8,172.6z"/>
			<path class="st0" d="M94.8,171.7l5.5,3.1c-1,1.7-3.2,2.9-5.7,2.9c-2.5,0-4.5-1.1-5.6-2.8C89,174.9,94.8,171.7,94.8,171.7z"/>
			<rect x="88.7" y="149.1" class="st1" width="11.5" height="5.1"/>
			<path class="st0" d="M94.6,167.5c1.8,0,3.5,0.6,4.7,1.7l-4.4,2.5l-4.7-2.6C91.2,168.1,92.8,167.5,94.6,167.5L94.6,167.5z"/>
			<path class="st0" d="M94.8,171.7l-5.8,3.3c-0.4-0.7-0.7-1.5-0.7-2.3c0-1.4,0.7-2.6,1.8-3.6L94.8,171.7L94.8,171.7z"/>
			<path class="st0" d="M63.6,154.2L90.1,169c-1.1,0.9-1.8,2.2-1.8,3.6c0,0.8,0.3,1.6,0.7,2.3l-15.6,8.7H31.2l-15.9-8.9
				c0.4-0.7,0.6-1.4,0.6-2.2c0-1.3-0.6-2.5-1.6-3.4l26.7-15L63.6,154.2L63.6,154.2z M55,172.6c0-2.8-2.3-5.1-5.1-5.1
				c-2.8,0-5.1,2.3-5.1,5.1s2.3,5.1,5.1,5.1C52.7,177.7,55,175.4,55,172.6z"/>
			<polygon class="st0" points="88.7,154.2 63.6,154.2 57.8,154.2 57.8,149.1 88.7,149.1 			"/>
			<rect x="46.3" y="149.1" class="st1" width="11.5" height="5.1"/>
			<path class="st1" d="M49.9,167.5c2.8,0,5.1,2.3,5.1,5.1s-2.3,5.1-5.1,5.1s-5.1-2.3-5.1-5.1S47.1,167.5,49.9,167.5z"/>
			<polygon class="st0" points="46.3,154.2 41,154.2 15.4,154.2 15.4,149.1 46.3,149.1 			"/>
			<path class="st0" d="M31.2,183.7h-31v-6.6l3.8-2.1c1,1.6,3.2,2.8,5.6,2.8s4.7-1.2,5.7-2.9L31.2,183.7L31.2,183.7z"/>
			<path class="st0" d="M15.9,172.6c0,0.8-0.2,1.5-0.6,2.2l-5.5-3.1l4.4-2.5C15.3,170.1,15.9,171.3,15.9,172.6L15.9,172.6z"/>
			<rect x="3.9" y="149.1" class="st1" width="11.5" height="5.1"/>
			<path class="st0" d="M9.9,171.7l5.5,3.1c-1,1.7-3.2,2.9-5.7,2.9s-4.5-1.1-5.6-2.8L9.9,171.7z"/>
			<path class="st0" d="M9.6,167.5c1.8,0,3.5,0.6,4.7,1.7l-4.4,2.5L5.1,169C6.3,168.1,7.9,167.5,9.6,167.5L9.6,167.5z"/>
			<path class="st0" d="M9.9,171.7l-5.8,3.3c-0.4-0.7-0.7-1.5-0.7-2.3c0-1.4,0.7-2.6,1.8-3.6L9.9,171.7L9.9,171.7z"/>
			<path class="st0" d="M0.2,166.3l4.9,2.8c-1.1,0.9-1.8,2.2-1.8,3.6c0,0.8,0.3,1.6,0.7,2.3l-3.8,2.1L0.2,166.3L0.2,166.3z"/>
			<polygon class="st2" points="215.8,149.1 184.9,149.1 173.4,149.1 142.5,149.1 131.1,149.1 100.1,149.1 88.7,149.1 57.8,149.1 
				46.3,149.1 15.4,149.1 3.9,149.1 0.2,149.1 0.2,74.1 1.1,74.1 273.7,74.1 273.7,149.1 269.6,149.1 258.2,149.1 227.3,149.1 			
				"/>
			<path class="st0" d="M0.2,154.2H41l-26.7,15c-1.2-1-2.8-1.7-4.7-1.7s-3.4,0.6-4.5,1.5l-4.9-2.8L0.2,154.2L0.2,154.2z"/>
		</g>
		<g>
			<polyline class="st3" points="273.7,183.7 242.8,183.7 200.8,183.7 158.1,183.7 116.1,183.7 73.4,183.7 31.2,183.7 0.2,183.7 			
				"/>
			<line class="st3" x1="0.2" y1="68.3" x2="273.7" y2="68.3"/>
			<line class="st3" x1="0.2" y1="74.1" x2="273.7" y2="74.1"/>
			<line class="st3" x1="269.6" y1="149.1" x2="273.7" y2="149.1"/>
			<line class="st3" x1="227.3" y1="149.1" x2="258.2" y2="149.1"/>
			<line class="st3" x1="184.9" y1="149.1" x2="215.8" y2="149.1"/>
			<line class="st3" x1="142.5" y1="149.1" x2="173.4" y2="149.1"/>
			<line class="st3" x1="100.1" y1="149.1" x2="131.1" y2="149.1"/>
			<line class="st3" x1="57.8" y1="149.1" x2="88.7" y2="149.1"/>
			<line class="st3" x1="15.4" y1="149.1" x2="46.3" y2="149.1"/>
			<line class="st3" x1="0.2" y1="149.1" x2="3.9" y2="149.1"/>
			<line class="st3" x1="269.6" y1="154.2" x2="273.7" y2="154.2"/>
			<polyline class="st3" points="227.3,154.2 233.1,154.2 258.2,154.2 			"/>
			<polyline class="st3" points="184.9,154.2 210.6,154.2 215.8,154.2 			"/>
			<polyline class="st3" points="142.5,154.2 148.3,154.2 173.4,154.2 			"/>
			<polyline class="st3" points="100.1,154.2 125.9,154.2 131.1,154.2 			"/>
			<polyline class="st3" points="57.8,154.2 63.6,154.2 88.7,154.2 			"/>
			<polyline class="st3" points="15.4,154.2 41,154.2 46.3,154.2 			"/>
			<line class="st3" x1="0.2" y1="154.2" x2="3.9" y2="154.2"/>
			<polyline class="st3" points="73.4,183.7 89,174.9 94.8,171.7 99.2,169.2 125.9,154.2 			"/>
			<polyline class="st3" points="116.1,183.7 100.3,174.8 94.8,171.7 90.1,169 63.6,154.2 			"/>
			<path class="st3" d="M141.2,172.6c0,2.8-2.3,5.1-5.1,5.1s-5.1-2.3-5.1-5.1s2.3-5.1,5.1-5.1S141.2,169.8,141.2,172.6z"/>
			<path class="st3" d="M227,172.6c0,2.8-2.3,5.1-5.1,5.1s-5.1-2.3-5.1-5.1s2.3-5.1,5.1-5.1S227,169.8,227,172.6z"/>
			<path class="st3" d="M99.2,169.2c1,0.9,1.6,2.1,1.6,3.4c0,0.8-0.2,1.5-0.6,2.2c-1,1.7-3.2,2.9-5.7,2.9c-2.5,0-4.5-1.1-5.6-2.8
				c-0.4-0.7-0.7-1.5-0.7-2.3c0-1.4,0.7-2.6,1.8-3.6c1.1-0.9,2.7-1.5,4.5-1.5C96.4,167.5,98.1,168.1,99.2,169.2L99.2,169.2z"/>
			<polyline class="st3" points="0.2,177.1 4.1,174.9 9.9,171.7 14.3,169.2 41,154.2 			"/>
			<polyline class="st3" points="31.2,183.7 15.3,174.8 9.9,171.7 5.1,169 0.2,166.3 			"/>
			<path class="st3" d="M14.3,169.2c1,0.9,1.6,2.1,1.6,3.4c0,0.8-0.2,1.5-0.6,2.2c-1,1.7-3.2,2.9-5.7,2.9s-4.5-1.1-5.6-2.8
				c-0.4-0.7-0.7-1.5-0.7-2.3c0-1.4,0.7-2.6,1.8-3.6c1.1-0.9,2.7-1.5,4.5-1.5C11.5,167.5,13.2,168.1,14.3,169.2L14.3,169.2z"/>
			<polyline class="st3" points="158.1,183.7 173.7,174.9 179.5,171.7 183.9,169.2 210.6,154.2 			"/>
			<polyline class="st3" points="200.8,183.7 185,174.8 179.5,171.7 174.8,169 148.3,154.2 			"/>
			<path class="st3" d="M183.9,169.2c1,0.9,1.6,2.1,1.6,3.4c0,0.8-0.2,1.5-0.6,2.2c-1,1.7-3.2,2.9-5.7,2.9c-2.5,0-4.5-1.1-5.6-2.8
				c-0.4-0.7-0.7-1.5-0.7-2.3c0-1.4,0.7-2.6,1.8-3.6c1.1-0.9,2.7-1.5,4.5-1.5C181.1,167.5,182.8,168.1,183.9,169.2L183.9,169.2z"/>
			<polyline class="st3" points="242.8,183.7 258.4,174.9 264.2,171.7 268.6,169.2 273.7,166.3 			"/>
			<polyline class="st3" points="273.7,177 269.7,174.8 264.2,171.7 259.5,169 233.1,154.2 			"/>
			<path class="st3" d="M268.6,169.2c1,0.9,1.6,2.1,1.6,3.4c0,0.8-0.2,1.5-0.6,2.2c-1,1.7-3.2,2.9-5.7,2.9s-4.5-1.1-5.6-2.8
				c-0.4-0.7-0.7-1.5-0.7-2.3c0-1.4,0.7-2.6,1.8-3.6c1.1-0.9,2.7-1.5,4.5-1.5C265.8,167.5,267.5,168.1,268.6,169.2L268.6,169.2z"/>
			<path class="st3" d="M55,172.6c0,2.8-2.3,5.1-5.1,5.1s-5.1-2.3-5.1-5.1s2.3-5.1,5.1-5.1S55,169.8,55,172.6z"/>
			<rect x="3.9" y="149.1" class="st3" width="11.5" height="5.1"/>
			<rect x="46.3" y="149.1" class="st3" width="11.5" height="5.1"/>
			<rect x="88.7" y="149.1" class="st3" width="11.5" height="5.1"/>
			<rect x="131.1" y="149.1" class="st3" width="11.5" height="5.1"/>
			<rect x="173.4" y="149.1" class="st3" width="11.5" height="5.1"/>
			<rect x="215.8" y="149.1" class="st3" width="11.5" height="5.1"/>
			<rect x="258.2" y="149.1" class="st3" width="11.5" height="5.1"/>
		</g>
	</g>
</g>
<g id="_レイヤー_2">
	<g>
		<defs>
			<rect id="SVGID_1_" x="34.2" y="-2.5" width="239.5" height="163.3"/>
		</defs>
		<clipPath id="SVGID_00000062890783219182977230000015329962356178892682_">
			<use xlink:href="#SVGID_1_"  style="overflow:visible;"/>
		</clipPath>
		<g style="clip-path:url(#SVGID_00000062890783219182977230000015329962356178892682_);">
			<g>
				<g>
					<path class="st5" d="M244.9,136.8c-3.1,4.4-6.6,9.1-7.6,9.6c-1.8,0.8-10.2,1.3-15.1-3.4l-0.3-2c1.6-0.3,3.4-0.7,5.2-1.3
						c1.4,0.8,4.7,2.8,10.2-2.6c5.4-5.3,21.3-22.8,21.8-23.4c0.8,1.3,1.4,3,2,4.7c0.4,1.2,0.7,2.5,1,3.6c0.4,1.4,0.7,2.7,0.9,3.7
						c0.4,1.6,0.7,2.6,1.1,2.7c1.1,0.5,4,0.5,6.7-1.4c2.7-1.9,6.3-5.7,6.3-5.7v14.1c0,0-10.2,7.3-14.1,9.1c-1.8,0.8-2.9,1.1-3.6,1
						l0,0c-0.3-0.1-0.6-0.2-1-0.4l0,0c-0.3-0.3-0.6-0.6-0.9-1.1c-1-1.4-1.6-6.3-2.8-12.9c-1.2-6.7-3.2-2.5-4.5-1.6
						C249.7,130,247.4,133.3,244.9,136.8L244.9,136.8z"/>
					<path class="st6" d="M277.1,116.5v4.9c0,0-3.6,3.8-6.3,5.7c-2.7,1.9-5.6,1.9-6.7,1.4c-0.3-0.1-0.7-1.2-1.1-2.7
						C263.1,125.8,274.6,120.1,277.1,116.5L277.1,116.5z"/>
					<path class="st6" d="M277.1,112v4.5c-2.5,3.6-14.1,9.3-14.1,9.3c-0.3-1.1-0.6-2.4-0.9-3.7C264.8,121,275.7,114.7,277.1,112
						L277.1,112z"/>
					<path class="st6" d="M277.1,107.1v4.9c-1.4,2.7-12.3,8.9-15,10c-0.3-1.2-0.6-2.4-1-3.6C263.2,118.1,275.2,110.4,277.1,107.1z"
						/>
					<path class="st7" d="M259.1,113.7c-0.3-0.5-0.5-0.9-0.8-1.2c-1-1.2-2.7-2.1-4.9-2.8c-1.4-0.4-3.1-0.8-4.8-1
						c-1.3-0.2-2.7-0.3-4.1-0.4c-11.5-0.8-25.6,0.9-25.6,0.9c-3.3-2.3-6.5-4.4-8.3-5.5c-3.3-1.9-5.4-2-7.7-1.6c0,0,29.8-15.7,74.2-3
						v8c-1.9,3.3-14,11-16,11.3C260.5,116.7,259.9,115,259.1,113.7L259.1,113.7z"/>
					<path class="st8" d="M277.1,91.6V99c-44.5-12.7-74.2,3-74.2,3c-1,0.2-2,0.4-3.1,0.6c-3.6,0.7-21.4,4.8-29,6.5
						c-1.2,0.3-2.7,0.5-4.4,0.7l-0.1-0.7c0,0-0.9-2.4-2.7-6.2C163.7,102.9,219.5,79.3,277.1,91.6L277.1,91.6z"/>
					<path class="st8" d="M277.1,77.4v14.2c-57.7-12.3-113.5,11.3-113.5,11.3c-0.8-1.7-1.8-3.7-3.1-5.8
						C160.6,97,200.7,70.1,277.1,77.4L277.1,77.4z"/>
					<path class="st8" d="M277.1,63.6v13.8c-76.4-7.3-116.5,19.6-116.5,19.6c-1.3-2.4-2.9-5-4.7-7.7c0,0,54.8-32.5,120.3-25.7
						L277.1,63.6L277.1,63.6z"/>
					<path class="st8" d="M240,50.2c1.5-0.2,3-0.3,4.6-0.5c1.8-0.2,3.6-0.4,5.4-0.6c1.2-0.1,2.4-0.2,3.6-0.4
						c10.1-1,19.7-1.8,23.6-1.5v16.4h-0.9c-65.5-6.8-120.3,25.7-120.3,25.7c-0.5-0.7-1-1.5-1.6-2.3c-0.6-0.8-1.1-1.6-1.8-2.4l0,0
						c19.2-12.5,46.7-27.3,62.3-29.2l6.4-1.8v-1.3C221.3,52.4,229.6,51.4,240,50.2L240,50.2z"/>
					<path class="st5" d="M258.4,145.2c0.3,0.2,0.6,0.4,1,0.4c-0.9,0.3-22.1,0.8-22.1,0.8c1-0.4,4.5-5.2,7.6-9.6
						C245.2,137,253.9,143.1,258.4,145.2L258.4,145.2L258.4,145.2z"/>
					<path class="st6" d="M258.3,112.5c0.3,0.4,0.6,0.7,0.8,1.2c-0.5,0.5-16.4,18.1-21.8,23.4c-5.5,5.4-8.7,3.4-10.2,2.6
						c-1.4-0.8-8.5-8.5-8.5-8.5c2.1-1.5,3.9-2.9,5.1-4l0,0c0.3,0.2,4.7,3.9,5.6,4.6c1,0.7,3.1,0.3,5.7-2.3
						c2.6-2.6,15.8-14.6,18.3-19.8l0,0C255.6,110.3,257.3,111.2,258.3,112.5L258.3,112.5z"/>
					<path class="st5" d="M257.5,144.1c0.3,0.4,0.5,0.8,0.9,1.1c-4.4-2-13.1-8.1-13.5-8.4c2.5-3.5,4.8-6.7,5.4-7.2
						c1.2-0.9,3.3-5.1,4.5,1.6C256,137.9,256.5,142.7,257.5,144.1L257.5,144.1z"/>
					<path class="st6" d="M253.5,48.8c-1.2,0.1-2.4,0.2-3.6,0.4c-9.8-9.3-21.3-12.2-28.6-12.2v-3.8
						C229.7,33.5,250.1,40.7,253.5,48.8L253.5,48.8z"/>
					<path class="st6" d="M253.4,109.7L253.4,109.7c-2.6,5.3-15.8,17.2-18.3,19.8c-2.6,2.6-4.7,3-5.7,2.3c-1-0.6-5.4-4.4-5.6-4.6
						c0.6-0.5,1.1-0.9,1.4-1.2c0.3-0.3,0.6-0.6,0.9-1c0,0,3,2,4.5,2.2c1.4,0.2,14.1-11,18.1-18.5l0,0
						C250.3,108.9,251.9,109.2,253.4,109.7L253.4,109.7z"/>
					<path class="st6" d="M248.6,108.7L248.6,108.7c-4,7.6-16.6,18.8-18.1,18.6C229,127,226,125,226,125c0.6-0.7,1.2-1.5,1.7-2.3
						c0,0,0.9,2.7,4,0c3.1-2.7,12.7-14.5,12.7-14.5C245.9,108.3,247.2,108.5,248.6,108.7L248.6,108.7z"/>
					<path class="st6" d="M249.9,49.1c-1.8,0.2-3.6,0.4-5.4,0.6c-10.6-8.5-19.9-8.6-23.2-8.7v-4C228.7,37,240.1,39.8,249.9,49.1z"/>
					<path class="st6" d="M244.6,49.7c-1.6,0.2-3.1,0.3-4.6,0.5c-4.8-3-14.2-4.9-18.7-4.9V41C224.7,41.1,234,41.2,244.6,49.7
						L244.6,49.7z"/>
					<path class="st7" d="M244.4,108.2c0,0-9.6,11.8-12.7,14.5c-3.1,2.7-4,0-4,0c1.3-2.2,1.9-4.3,1.7-5.3c-0.1-0.5-1.8-2-4.2-3.8
						c-0.9-0.7-1.9-1.4-2.9-2.2l0,0c-0.7-0.5-1.4-1-2.1-1.5c-0.4-0.3-0.9-0.6-1.3-0.9C218.9,109.1,232.9,107.4,244.4,108.2
						L244.4,108.2z"/>
					<path class="st7" d="M221.3,45.3c4.4,0,13.9,2,18.7,4.9c-10.3,1.2-18.7,2.2-18.7,2.2S221.3,45.3,221.3,45.3z"/>
					<path class="st5" d="M229.3,117.5c0.2,1-0.4,3.1-1.7,5.3c-0.5,0.8-1,1.5-1.7,2.3c-0.3,0.3-0.6,0.7-0.9,1s-0.8,0.7-1.4,1.2l0,0
						c-1.2,1-3,2.4-5.1,4c-3.4,2.5-7.5,5.4-11.3,7.8c-1.9,1.2-3.8,2.4-5.4,3.2c-1.7,0.9-3.1,1.6-4.1,1.9c-1.9,0.6-4.8,1.1-7.9,1.5
						c-3.7-2.6-11-5.3-15.3-5.4l0,0c11.1-2.6,27.1-8,30.8-10.1C210.3,127.3,222.7,121.3,229.3,117.5L229.3,117.5z"/>
					<path class="st6" d="M225.1,113.7c2.4,1.8,4.1,3.3,4.2,3.8c-6.6,3.8-19,9.8-24,12.6c-3.7,2.1-19.6,7.5-30.8,10.1
						c-3.7,0.9-6.8,1.4-8.8,1.5c0.7-1.2,1.1-2.7,0.6-3.8C175.9,137.1,207.3,129.6,225.1,113.7z"/>
					<path class="st6" d="M222.2,111.5c1,0.7,2,1.5,2.9,2.2c-17.8,15.9-49.2,23.5-58.7,24.2c-0.4-0.8-1.1-2.1-1.8-3.3
						C175.5,133.2,205.2,127.6,222.2,111.5L222.2,111.5L222.2,111.5z"/>
					<path class="st5" d="M218.6,131.2c0,0,7.1,7.7,8.5,8.5c-1.9,0.6-3.6,1-5.2,1.3c-9.7,1.6-14.6-1.9-14.6-1.9
						C211.1,136.5,215.2,133.6,218.6,131.2L218.6,131.2z"/>
					<path class="st5" d="M221.9,140.9l0.3,2c-4.9,3.3-13.3,4.1-20.3-0.7c1.6-0.9,3.4-2,5.4-3.2C207.2,139,212.2,142.5,221.9,140.9z
						"/>
					<path class="st5" d="M221.3,52.4v1.3l-6.4,1.8c-1.4-2.2-2.9-5.1-4.4-8.3c1.8,0.6,8.7-3.7,10.8-7.9L221.3,52.4L221.3,52.4z"/>
					<path class="st5" d="M221.3,37v2.4c-2.1,4.2-8.9,8.5-10.8,7.9c-1.1-2.5-2.2-5.2-3.1-7.9c0.9-0.4,2.3-0.7,3.7-1.2
						c2.5-0.9,5.2-2.3,6.5-4.9h3.7L221.3,37L221.3,37z"/>
					<path class="st6" d="M220.1,110c0.7,0.5,1.4,1,2.1,1.5c-17,16.1-46.7,21.7-57.6,23l0,0c-1-1.7-2.1-3.2-2.6-3.4c0,0,0,0,0,0
						l0-0.2c1.9,0.2,3.8,0.2,5.4,0C178,129.7,212.6,119.4,220.1,110L220.1,110z"/>
					<path class="st7" d="M218.8,109.1c0.4,0.3,0.9,0.6,1.3,0.9c-7.5,9.4-42.2,19.7-52.7,21c-1.6,0.2-3.4,0.2-5.4,0
						c-2.1-0.2-4.4-0.7-6.7-1.3c-1.4-0.4-2.7-0.7-4.1-1.2l0,0c-1.3-0.4-2.6-0.9-3.9-1.4c-1.5-0.6-3-1.2-4.4-1.9
						c-4.9-2.2-9.1-4.7-11.6-7c3.1-0.8,6-1.9,8.3-3.2l0,0c1.2-0.6,2.2-1.2,3-1.9l0,0c1.3-1,2.1-2,2.3-2.8c0,0,13,0.2,21.6-0.7
						c1.7-0.2,3.2-0.4,4.4-0.7c7.6-1.7,25.4-5.8,29-6.5c1.1-0.2,2.1-0.5,3.1-0.6c2.2-0.4,4.4-0.3,7.7,1.6
						C212.4,104.7,215.6,106.8,218.8,109.1L218.8,109.1z"/>
					<path class="st5" d="M217.6,25.8c0,2.5,0,7.4,0,7.4s-4.4-4.2-9.1-8.6c0,0,6.3-2.3,7.1-2.3C216.5,22.3,217.6,23.5,217.6,25.8z"
						/>
					<path class="st5" d="M204.7,29.9c-0.3-1.5-0.5-2.9-0.7-4.2c-0.2-2-0.2-3.8,0-5.3c1.4,1.3,3,2.8,4.5,4.2
						c4.7,4.4,9.1,8.6,9.1,8.6c-1.2,2.7-4,4-6.5,4.9l-0.1-0.2l-5.5-4.7C205.2,32.1,205,30.9,204.7,29.9L204.7,29.9z"/>
					<path class="st5" d="M211.1,37.9l0.1,0.2c-1.4,0.5-2.7,0.9-3.7,1.2c-0.7-2-1.4-4.1-1.9-6.1L211.1,37.9L211.1,37.9z"/>
					<path class="st7" d="M210.5,47.2c1.4,3.2,2.9,6.1,4.4,8.3c-15.6,1.9-43.2,16.7-62.3,29.2l0,0c-5.4-7-11.9-12.7-15.7-15.8
						c8.5-7.7,32.4-30,67.8-39.1c0.2,1.1,0.5,2.2,0.8,3.4c0.5,2,1.2,4.1,1.9,6.1C208.4,42.1,209.4,44.7,210.5,47.2L210.5,47.2z"/>
					<path class="st7" d="M204,25.7c0.1,1.3,0.4,2.7,0.7,4.2c-35.5,9.1-59.3,31.4-67.8,39.1c-1.9-1.6-3.2-2.5-3.2-2.5
						C142.7,59.3,166.6,37.3,204,25.7L204,25.7z"/>
					<path class="st7" d="M204,20.4L204,20.4c-0.2,1.5-0.2,3.3,0,5.3c-37.4,11.6-61.3,33.7-70.3,40.8c0.9-0.9-0.4-3.3-0.9-4.3
						c2.6-3.8,19.6-16.2,36-25.5c8.9-5,17.6-9,24.4-11.9C197.9,22.9,201.7,21.4,204,20.4L204,20.4L204,20.4z"/>
					<path class="st5" d="M197.5,14.4c0.6,0.4,3.3,2.9,6.5,6c-2.3,1-6.1,2.5-10.7,4.4c0.4-2.6-4.4-5.9-4.4-5.9l4.5-5
						C195.5,13.6,196.3,13.6,197.5,14.4L197.5,14.4z"/>
					<path class="st5" d="M193.3,13.9l-4.5,5l-16.2,5.9c1-0.6,1.8-1.1,2.5-1.5c0,0,4.2-3.2,8.4-5.8c2.5-1.5,5-2.8,6.8-3.1
						C191.6,14.2,192.5,14.1,193.3,13.9z"/>
					<path class="st5" d="M158.4,34.8c5.7-4.2,10.9-7.9,14.3-10l16.2-5.9c0,0,4.8,3.3,4.4,5.9c-6.8,2.9-15.5,6.9-24.4,11.9
						c-16.4,9.3-33.4,21.6-36,25.5c-0.9-1.7-1.9-3.4-3.1-4.9C134.4,53,147.3,43,158.4,34.8L158.4,34.8z"/>
					<path class="st5" d="M174.6,140.2c4.2,0,11.5,2.8,15.3,5.4c-6.1,0.8-13.3,1.2-17.1,1.2h-13.9c0,0,4.1-2.2,5.3-3.1
						c0.5-0.4,1.1-1.1,1.6-2l0,0C167.8,141.6,170.9,141.1,174.6,140.2L174.6,140.2L174.6,140.2z"/>
					<path class="st5" d="M183.6,17.5c-4.2,2.6-8.4,5.8-8.4,5.8s-4.7-9.5-6.5-12.4c-0.3-0.5-0.7-0.9-1.3-1.2
						C168.9,10.4,181.1,15.9,183.6,17.5L183.6,17.5z"/>
					<path class="st5" d="M158.4,34.8c-11.1,8.1-24,18.1-28.7,22.4c-1.3-1.6-2.6-3.2-4-4.6c-1.9-2-3.9-3.9-6.2-5.4
						c-1.6-1.1-3.8-2.5-6.2-4.2c5.9-3.7,20-9.8,23.6-12.7c3.6-2.9,19.4-17.7,22-19.5c2.1-1.4,6-2.4,8.3-1.3c0,0,0,0,0.1,0
						c0,0,0,0,0.1,0c0.5,0.3,0.9,0.7,1.3,1.2c1.8,2.9,6.5,12.4,6.5,12.4c-0.6,0.3-1.4,0.8-2.5,1.5C169.4,27,164.1,30.7,158.4,34.8
						L158.4,34.8z"/>
					<path class="st5" d="M166.4,137.9c0.5,1.1,0.1,2.6-0.6,3.8l0,0c-0.5,0.9-1.1,1.6-1.6,2c-1.2,0.9-5.3,3.1-5.3,3.1
						c-2.5,1.2-6.1,2.1-8.8,2.5c-0.1,0-0.2,0-0.3,0c-2.2,0,0.4-5.5,1.9-7.4c1.6-1.9,9.2-10.7,10.2-10.7c0,0,0,0,0,0
						c0.5,0.2,1.6,1.7,2.6,3.4l0,0C165.3,135.8,166,137.1,166.4,137.9L166.4,137.9z"/>
					<path class="st7" d="M142.1,104.9c-1.3-1.5-3.2-3.1-5.3-4.8c-0.6-0.4-1.2-0.9-1.8-1.3l0,0l-0.3-0.2
						c-5.4-3.9-10.3-9.1-18.5-10.5l0.1-0.4c0,0,6.1-13.4,16.7-20.7c0.3-0.1,0.5-0.3,0.7-0.5c0,0,1.2,0.9,3.2,2.5
						c3.8,3.1,10.3,8.8,15.7,15.8c0.6,0.8,1.2,1.6,1.8,2.4c0.5,0.8,1.1,1.5,1.6,2.3c1.8,2.7,3.4,5.3,4.7,7.7
						c1.2,2.2,2.2,4.1,3.1,5.8c1.9,3.8,2.7,6.2,2.7,6.2l0.1,0.7c-8.7,0.9-21.6,0.7-21.6,0.7C145.1,109,144.1,107.1,142.1,104.9
						L142.1,104.9z"/>
					<path class="st6" d="M162,131l0,0.2c-1.1,0-8.6,8.8-10.2,10.7c-1.6,1.9-4.2,7.4-1.9,7.4c-1.4,0.2-2.6,0.2-3.2,0
						c-1.8-0.6-3-1.1-3-1.1l-4.4-3.8c3.7-3.5,16-14.6,16-14.6C157.6,130.3,159.8,130.8,162,131L162,131z"/>
					<path class="st6" d="M151.1,128.5c1.4,0.5,2.7,0.9,4.1,1.2c0,0-12.3,11.1-16,14.6l-3-2.6L151.1,128.5L151.1,128.5L151.1,128.5z
						"/>
					<path class="st6" d="M151.1,128.5l-14.9,13.2l0,0l-2.5-2.1l13.5-12.4C148.5,127.6,149.8,128.1,151.1,128.5L151.1,128.5z"/>
					<path class="st6" d="M147.2,127.1l-13.5,12.4l-5.1-4.4c0,0,12.3-7.6,14.3-9.9C144.3,125.9,145.7,126.5,147.2,127.1L147.2,127.1
						z"/>
					<path class="st7" d="M142.1,104.9c2,2.2,3,4.1,2.7,5.6c-0.2,0.9-1,1.8-2.3,2.8c0.5-3.7-8.8-13-13.6-15.4l0,0
						c2.6,0,5.3,0.6,7.9,2.2C139,101.7,140.8,103.3,142.1,104.9L142.1,104.9z"/>
					<path class="st8" d="M139.2,144.4l4.4,3.8c-1.9,0.3-4.5,0.3-7.4,1l-0.1-0.2c0,0-0.3-1.7-2.2-3.5c-0.6-0.6-1.3-1.1-2.3-1.7
						c-4-2.3-4.8-6.8-4.5-9.8l1.3,1.1l5.1,4.4l2.5,2.1l0,0L139.2,144.4L139.2,144.4z"/>
					<path class="st7" d="M128.9,97.8c4.8,2.5,14.1,11.7,13.6,15.4l0,0c-0.8,0.6-1.9,1.3-3,1.9c1.1-5.4-12-15.6-15.7-16.7
						C125.5,98.1,127.2,97.8,128.9,97.8C128.9,97.8,128.9,97.8,128.9,97.8z"/>
					<path class="st6" d="M112.9,119.6c-1,0-2-0.1-2.9-0.2c-0.8-0.1-1.6-0.1-2.4-0.2c-2.1-0.2-3.8-0.3-4.9-0.5
						c-1.4-0.2-3.8-0.3-6.8-0.5c-1.9-0.1-3.9-0.2-6-0.4c-2-0.1-4-0.3-6-0.5c0.7-0.4,23.8-12.4,29.5-15c2.8-1.3,6.5-3.1,10.5-4.1
						c3.7,1.1,16.7,11.2,15.7,16.7l0,0c-2.3,1.2-5.2,2.4-8.3,3.2c-2.1,0.5-2.1,0.5,0,0v0c-0.7,0.2-1.5,0.4-2.2,0.5
						c-3.6,0.7-8.4,0.9-13,0.9C114.9,119.7,113.9,119.7,112.9,119.6L112.9,119.6z"/>
					<path class="st7" d="M131.2,118.3c2.6,2.2,6.8,4.7,11.6,7c-2,2.3-14.3,9.9-14.3,9.9l-1.3-1.1c-1.1-1.5-1-3,0-5.5
						c0.3-0.8,1-1.6,1.7-2.4C130.5,124.3,132.2,122,131.2,118.3C131.2,118.3,131.2,118.3,131.2,118.3L131.2,118.3z"/>
					<path class="st6" d="M136.2,148.9l0.1,0.2c0,0,0,0-0.1,0c-6.5,1.7-14.2,2.5-21.1,1.8c-0.1,0-0.2,0-0.2,0c0-0.3,0.1-1.9,0.3-3.7
						c4.7,2,15.5,1.2,18.8-1.7C135.9,147.3,136.2,148.9,136.2,148.9L136.2,148.9z"/>
					<path class="st7" d="M97.5,88.9c2-0.3,4-0.5,6.1-0.7c2.3-0.2,4.7-0.4,7-0.5c1.1,0,2.1,0,3.1,0.1c0.8,0.1,1.6,0.2,2.4,0.3
						c8.2,1.4,13.1,6.6,18.5,10.5c0.1,0.1,0.2,0.2,0.3,0.2l0,0c0.6,0.5,1.2,0.9,1.8,1.3c-2.6-1.6-5.3-2.2-7.9-2.2
						c-1.7,0-3.5,0.2-5.1,0.6c-4,1-7.7,2.8-10.5,4.1c-5.7,2.5-28.8,14.6-29.5,15c-3.1-0.3-6.1-0.7-8.5-1.2c-2.3-0.5-3.8-1.7-4.8-3.3
						c-2.6-4-1.7-10.2-0.9-13.5c0.6-2.1,2-4.9,3.5-7.5c0.4-0.6,0.7-1.2,1.1-1.8c1.5-2.4,2.9-4.6,3.7-5.6c0.5-0.7,0.8-1.6,1-2.7
						C78.8,81.8,90.3,82.8,97.5,88.9L97.5,88.9z"/>
					<path class="st1" d="M108.9,50c-5.4-5.5-11.6-11.4-13.8-12.9c-2.8-2-12.6-6.4-16.6-7.5c-4-1-5.6-1-7.8,0
						c-2.2,1-5.7,4.6-6.2,5.8c-0.4,1.1-0.3,2.9,1.5,5c1.4,1.7,6.1,8.1,9.4,11.8c0.5,0.5,0.9,1,1.3,1.4c-2.5-2.2-8.4-7.4-8.4-7.4
						c-3.3-2.9-6.5-7.8-6.1-12.4c0.3-3.2,3.3-6.4,5.8-8.1c2.6-1.8,6.7-2.9,9.7-2.2c3.7,0.7,7,2.7,10.3,4.4c3.6,1.9,7.1,3.9,10.7,6
						c5,2.9,10.2,6.3,14.6,9.2c2.5,1.6,4.6,3.1,6.2,4.2c2.3,1.5,4.3,3.5,6.2,5.4c1.4,1.4,2.8,3,4,4.6c1.2,1.5,2.3,3.2,3.1,4.9
						c0.5,1,1.7,3.4,0.9,4.3c-0.2,0.2-0.5,0.3-0.7,0.5c-1.7,0.8-4.3,0-5.8-0.5c-2.5-0.9-4.6-2.5-6.5-4.3c-2.1-1.8-4-3.7-5.8-5.8
						c-0.4-0.4-0.7-0.8-1.1-1.2c-0.2-0.2-0.4-0.4-0.5-0.6C112,53.2,110.5,51.6,108.9,50L108.9,50z"/>
					<path class="st6" d="M131.7,143.8c0.9,0.5,1.7,1.1,2.3,1.7c-3.4,2.9-14.1,3.7-18.8,1.7c0.1-0.7,0.2-1.4,0.3-2
						c0.5-2.5,3-3.8,3.8-5c0.8-1.2,1-7.8-0.5-10c-0.7-1-1.7-2.1-2.7-3.3l2.4-0.6c0.5,0.6,1.1,1.2,1.8,1.6c-1.4-1.4-1-5.3,1.7-5.3
						c2.7,0,3.1,2.1,2.5,4.9c0.8-0.6,1.5-1.2,2-1.8l2.3,0.5c-0.7,0.9-1.4,1.6-1.7,2.4c-1,2.4-1.1,3.9,0,5.5
						C126.9,137,127.8,141.5,131.7,143.8L131.7,143.8z"/>
					<path class="st7" d="M127.2,66.4c1.4,0.5,4.1,1.3,5.8,0.5c-10.6,7.3-16.7,20.7-16.7,20.7l-0.1,0.4c-0.8-0.1-1.6-0.2-2.4-0.3
						v-0.1c-0.6-2.4,1-31.2,1-31.2c1.8,2,3.8,4,5.8,5.8C122.7,63.9,124.7,65.6,127.2,66.4L127.2,66.4z"/>
					<path class="st6" d="M131.2,118.3c1.1,3.7-0.7,5.9-2.2,7.8l-2.3-0.5c2.4-2.8,2.3-6,2.3-6.8
						C129.7,118.7,130.4,118.5,131.2,118.3z"/>
					<path class="st7" d="M128.9,118.8c0,0.8,0,4-2.3,6.8c-0.5,0.6-1.2,1.3-2,1.8c0.6-2.7,0.2-4.9-2.5-4.9c-2.7,0-3.1,3.9-1.7,5.3
						c-0.7-0.4-1.3-0.9-1.8-1.6c-1.8-2.3-2.4-5.7-2.6-6.5C120.5,119.8,125.4,119.6,128.9,118.8L128.9,118.8z"/>
					<path class="st8" d="M118.8,130.2c1.5,2.2,1.3,8.9,0.5,10c-0.8,1.2-3.3,2.4-3.8,5c-0.1,0.6-0.2,1.3-0.3,2
						c-0.2,1.8-0.3,3.4-0.3,3.7c-1-0.1-2-0.1-3-0.1c0-1.2,0.7-7.4,2.4-10c1.7-2.6,0.4-7.4-1.4-10.7c-1.2-2-2.2-4.4-2.6-6.7
						c-0.3-1.4-0.4-2.7-0.3-4c0.9,0.1,1.9,0.1,2.9,0.2c-0.3,2.7,1.4,5.1,3.2,7.3C117.1,128.1,118.1,129.2,118.8,130.2L118.8,130.2z"
						/>
					<path class="st6" d="M118.5,126.3l-2.4,0.6c-1.8-2.1-3.5-4.6-3.2-7.3c1,0,2,0.1,3,0.1C116,120.5,116.7,124,118.5,126.3z"/>
					<path class="st7" d="M113.8,55.2c0.4,0.4,0.7,0.8,1.1,1.2c0,0-1.6,28.8-1,31.2v0.1c-1-0.1-2-0.1-3.1-0.1
						c-2.4,0.1-4.7,0.3-7,0.5l0-0.4c0,0,0-0.9,0-2.4c0-0.7,0-1.4,0.1-2.2c0.1-2,0.4-4.4,0.8-6.3c1-4.4,7.4-21.3,8.7-22.3
						C113.5,54.8,113.6,55,113.8,55.2L113.8,55.2z"/>
					<path class="st8" d="M112.8,130.2c1.9,3.3,3.2,8.1,1.4,10.7c-1.7,2.5-2.4,8.8-2.4,10c-1,0-2,0.1-2.9,0
						c-2.2-0.2-2.2-1.5-2.2-1.5C109.4,148.3,112.8,130.2,112.8,130.2L112.8,130.2z"/>
					<path class="st8" d="M112.8,130.2c0,0-3.4,18.1-6.1,19.2c0,0-2.2,0.1-5.3,0.3c0,0,1.5-3.1,3.1-6.4l0,0c0.8-1.7,1.6-3.5,2.2-5
						c0.2-0.4,0.4-0.9,0.5-1.5c1.6-4.9,2.9-13.3,2.9-13.3C110.7,125.8,111.7,128.1,112.8,130.2L112.8,130.2z"/>
					<path class="st5" d="M110,119.5c-0.1,1.3,0,2.7,0.3,4c0,0-1.3,8.4-2.9,13.3l0,0l-7.8-0.7c2.7-6.3,5.6-14.3,5.8-14.6l0,0
						c1-0.9,1.8-1.6,2.3-2.1C108.3,119.4,109.1,119.4,110,119.5L110,119.5z"/>
					<path class="st7" d="M108.9,50c1.6,1.6,3.1,3.2,4.4,4.6c-1.3,1-7.7,17.9-8.7,22.3c-0.4,1.9-0.7,4.3-0.8,6.3h-0.1l-5.4-8.9
						l1.8-3.8l0.9-2.1L108.9,50L108.9,50z"/>
					<path class="st9" d="M95.6,59c-0.5,0.2-1.2,0.4-1.8,0.6c-1.2,0.4-2.5,0.4-3.9,0.3c-1.3-0.1-2.6-0.5-3.9-0.9
						c-0.8-0.3-1.6-0.6-2.4-1c-1-0.5-2-1-2.9-1.5c-1-0.6-2-1.2-2.8-1.9c0,0,0,0-0.1-0.1c-0.2-0.1-0.5-0.4-1-0.9l0,0
						c-0.4-0.4-0.8-0.9-1.3-1.4c-3.3-3.7-8-10.2-9.4-11.8c-1.9-2.2-1.9-4-1.5-5c0.5-1.2,3.9-4.7,6.2-5.8c2.2-1,3.8-1,7.8,0
						c4,1,13.8,5.5,16.6,7.5c2.1,1.5,8.4,7.3,13.8,12.9l-7.9,18.3L95.6,59L95.6,59z M74,32.1c0.7-0.5,1-1.2,0.7-1.5
						c-0.3-0.4-1-0.3-1.7,0.2c-0.7,0.5-1,1.2-0.7,1.5C72.6,32.7,73.3,32.6,74,32.1z M67.7,37.7c0.4-0.7,0.5-1.4,0.1-1.7
						c-0.4-0.2-1.1,0.1-1.5,0.8c-0.4,0.7-0.5,1.4-0.1,1.7C66.5,38.7,67.2,38.4,67.7,37.7z"/>
					<path class="st5" d="M107.3,136.8L107.3,136.8c-0.2,0.5-0.4,1.1-0.5,1.5c-0.6,1.5-1.4,3.3-2.2,5l0,0l-8.2-0.9
						c0.1-0.2,0.2-0.4,0.4-0.6c0.8-1.4,1.8-3.4,2.8-5.7L107.3,136.8L107.3,136.8z"/>
					<path class="st5" d="M89.8,132.8c-1.1,0.8-2.3,1.6-3.5,2.3l0,0c-6.5,4.3-12.9,8.3-16.8,10.1c-2.6,1.2-5.3,2.4-8,3.5
						c-7.4,3-14.4,5.4-15.8,5.9c-1.8,0.6-2.7,2.4-1.4,3.4c-1.6-1.2-1-3.2-1-4.8c0-0.6,0-2.2-0.1-4.3c16.8-3.8,46.7-17.7,59.4-30.1
						c1.1,0.1,2.8,0.3,4.9,0.5c-0.5,0.5-1.3,1.2-2.3,2.1l0,0c-0.9,0.7-1.9,1.6-3.1,2.5c0,0,0,0,0,0
						C98.9,126.5,94.4,129.6,89.8,132.8L89.8,132.8z"/>
					<path class="st5" d="M96.4,142.3l8.2,0.9c-1.6,3.3-3.1,6.4-3.1,6.4c-3.1,0.2-7,0.3-10.7,0.4C92,149.2,93.5,147.1,96.4,142.3
						L96.4,142.3z"/>
					<path class="st7" d="M103.7,83.2h0.1c-0.1,0.8-0.1,1.6-0.1,2.2C94,78.7,79.4,74.5,79.4,74.5c0-1.2,0-2.4,0-3.7
						c0-0.3,0-0.6,0-0.9c0.1-6.7,4.1-7.8,6.5-11c1.3,0.5,2.6,0.8,3.9,0.9l0,0.2l8.5,14.1L103.7,83.2L103.7,83.2z"/>
					<path class="st7" d="M103.6,87.8l0,0.4c-2.1,0.2-4.2,0.5-6.1,0.7c-7.3-6-18.7-7.1-18.7-7.1c0.4-1.9,0.5-4.4,0.5-7.2
						c0,0,14.7,4.2,24.3,10.9C103.6,86.8,103.6,87.8,103.6,87.8L103.6,87.8z"/>
					<path class="st5" d="M105.3,121.4c-0.1,0.3-3,8.4-5.8,14.6c-1,2.3-2,4.3-2.8,5.7c-0.1,0.2-0.3,0.4-0.4,0.6
						c-2.9,4.8-4.4,6.9-5.6,7.8c-5.7,0.2-10.9,0.1-11.4-0.4c0,0,6.2-0.3,9.6-3c1.4-1.1,4.4-6.2,7.2-11.3c3.1-5.6,5.9-11.2,6-11.5v0
						C103.4,123,104.4,122.1,105.3,121.4L105.3,121.4z"/>
					<path class="st7" d="M95.6,59l5.5,9.3l-0.9,2.1l-1.8,3.8l-8.5-14.1l0-0.2c1.4,0.2,2.7,0.1,3.9-0.3C94.4,59.4,95,59.2,95.6,59z"
						/>
					<path class="st5" d="M102.2,123.9c-0.2,0.3-3,5.9-6,11.5c-2.5-0.3-6.1-2.5-6.3-2.6C94.4,129.6,98.8,126.4,102.2,123.9
						L102.2,123.9z"/>
					<path class="st6" d="M95.8,118.3c3,0.2,5.5,0.3,6.8,0.5c-12.7,12.4-42.6,26.3-59.4,30.1c0-1.4-0.1-3-0.1-4.6h0.1
						C60.8,140.2,86.9,129.1,95.8,118.3L95.8,118.3z"/>
					<path class="st5" d="M89.8,132.8c0.2,0.1,3.8,2.3,6.3,2.6c-2.8,5.1-5.8,10.2-7.2,11.3c-3.4,2.7-9.6,3-9.6,3l7-14.5l0,0
						C87.5,134.4,88.7,133.6,89.8,132.8z"/>
					<path class="st6" d="M89.8,118c2.1,0.2,4.2,0.3,6,0.4c-8.9,10.7-35.1,21.9-52.6,26h-0.1c0-1.4-0.1-2.8-0.1-4.1
						C57.3,137.9,84.4,127.1,89.8,118L89.8,118L89.8,118z"/>
					<path class="st7" d="M83.8,117.5c2,0.2,4,0.4,6,0.5l0,0c-5.4,9.2-32.5,19.9-46.8,22.3c0-3.7,0-6.9,0.2-7.9
						c0.5-2.4,4.4-5.2,5.8-6.3c1.3-1,9.1-6.4,9.1-6.4c3.4-2.3,8.3-6.5,12.3-6.7c1,1.6,2.6,2.7,4.8,3.3
						C77.7,116.8,80.7,117.2,83.8,117.5L83.8,117.5z"/>
					<path class="st5" d="M86.4,135.1l-7,14.5c-1.1,0.5-2.4,1-3.7,1.4h0c-5,0.9-14.2-2.4-14.2-2.4c2.7-1.1,5.4-2.3,8-3.5
						C73.5,143.4,79.9,139.4,86.4,135.1L86.4,135.1z"/>
					<path class="st5" d="M83.5,58c0.8,0.4,1.6,0.7,2.4,1c-2.4,3.2-6.4,4.3-6.5,11c0,0.3,0,0.6,0,0.9l0,0
						c-2.5,2.2-5.6,14.7-5.8,19.1l0.6,0.2c-0.4,0.6-0.7,1.2-1.1,1.8c-1.3,0.1-2.5-0.1-3.7-0.3l0,0C70.5,77.9,75.9,62.2,83.5,58
						L83.5,58z"/>
					<path class="st5" d="M80.6,56.5c0.9,0.5,1.9,1.1,2.9,1.5C75.9,62.2,70.5,78,69.4,91.6l0,0c-1.7-0.4-3.2-1-4.6-1.7
						C65.5,79.3,69.6,65.4,80.6,56.5z"/>
					<path class="st5" d="M79.4,70.8L79.4,70.8c0,1.3,0,2.5,0,3.7c0,2.9-0.1,5.3-0.5,7.2c-0.2,1.1-0.5,2-1,2.7
						c-0.7,1.1-2.2,3.2-3.7,5.6l-0.6-0.2C73.7,85.6,76.9,73.1,79.4,70.8z"/>
					<path class="st5" d="M77.8,54.6c0.8,0.6,1.8,1.3,2.8,1.9c-11,8.9-15.1,22.8-15.9,33.5c-3.5-1.8-5.9-4-5.9-4
						c3.6-10.9,4.9-18.2,18-32.2l0,0C77.2,54.1,77.5,54.4,77.8,54.6C77.8,54.6,77.8,54.6,77.8,54.6z"/>
					<path class="st1" d="M74.7,30.6c0.3,0.4-0.1,1.1-0.7,1.5c-0.7,0.5-1.4,0.6-1.7,0.2C72,32,72.4,31.3,73,30.8
						C73.7,30.3,74.4,30.2,74.7,30.6z"/>
					<path class="st5" d="M61.5,148.7c0,0,9.2,3.4,14.2,2.4c-9.4,3.6-22.1,7.8-27.4,7.8c-1.8,0-2.9-0.3-3.7-0.8
						c-0.1,0-0.1-0.1-0.2-0.1c-1.3-1-0.4-2.7,1.4-3.4C47.1,154.1,54.1,151.7,61.5,148.7L61.5,148.7z"/>
					<path class="st6" d="M69.4,91.6c1.2,0.3,2.4,0.4,3.7,0.3c-1.5,2.6-3,5.4-3.5,7.5c-0.9,3.3-1.7,9.6,0.9,13.5c0,0-11.5,0-17.9-3
						c-7-3.9-12.8-8-12.8-13S43.3,84.8,52,83.9c5.1-0.1,6.9,2,6.9,2s2.4,2.3,5.9,4C66.2,90.6,67.7,91.2,69.4,91.6L69.4,91.6z"/>
					<path class="st1" d="M67.8,36c0.4,0.2,0.3,1-0.1,1.7c-0.4,0.7-1.1,1-1.5,0.8c-0.4-0.2-0.3-1,0.1-1.7
						C66.7,36.1,67.4,35.7,67.8,36z"/>
					<path class="st6" d="M52.6,110c6.4,3,17.9,3,17.9,3c-4.1,0.2-8.9,4.4-12.3,6.7C55.9,115.8,52.4,111.6,52.6,110z"/>
				</g>
				<g>
					<path class="st10" d="M77.8,54.6c0.8,0.6,1.8,1.3,2.8,1.9c0.9,0.5,1.9,1.1,2.9,1.5c0.8,0.4,1.6,0.7,2.4,1
						c1.3,0.5,2.6,0.8,3.9,0.9c1.4,0.2,2.7,0.1,3.9-0.3c0.7-0.2,1.3-0.4,1.8-0.6c3.5-1.4,4.6-2.9,4.6-2.9"/>
					<path class="st10" d="M74.5,44.1c1.8,2.5,4.7,7,5.1,7.9c0.5,0.9,1.6,0.2,2.2-0.4"/>
					<path class="st10" d="M80.6,40.6c0,0,1.7-1.7,2.9-2"/>
					<path class="st10" d="M72.8,48c0,0,1.2-1.4,1.6-1.4"/>
					<path class="st10" d="M82.8,49.3c0,0,1.7,0.5,2,0.9"/>
					<path class="st10" d="M84.8,55.5c0.8,0.2,2.1-0.8,2.1-1.4"/>
					<line class="st10" x1="95.6" y1="59" x2="101" y2="68.3"/>
					<polyline class="st10" points="109,49.8 108.9,50 101,68.3 100.1,70.4 98.3,74.2 					"/>
					<polyline class="st10" points="89.8,60.1 98.3,74.2 103.7,83.2 					"/>
					<path class="st10" d="M103.6,87.8c0,0,0-0.9,0-2.4c0-0.7,0-1.4,0.1-2.2c0.1-2,0.4-4.4,0.8-6.3c1-4.4,7.4-21.3,8.7-22.3"/>
					<path class="st10" d="M114.9,56.4c0,0-1.6,28.8-1,31.2"/>
					<path class="st10" d="M116.3,87.6c0,0,6.1-13.4,16.7-20.7c0.2-0.2,0.5-0.3,0.7-0.5"/>
					<path class="st10" d="M135.1,98.7c-0.1-0.1-0.2-0.2-0.3-0.2c-5.4-3.9-10.3-9.1-18.5-10.5c-0.8-0.1-1.6-0.2-2.4-0.3
						c-1-0.1-2-0.1-3.1-0.1c-2.4,0.1-4.7,0.3-7,0.5c-2.1,0.2-4.2,0.5-6.1,0.7c-6.6,0.9-12.2,1.8-14.8,1.7"/>
					<path class="st10" d="M142.5,113.3c1.3-1,2.1-1.9,2.3-2.8c0.3-1.5-0.7-3.4-2.7-5.6c-1.3-1.5-3.2-3.1-5.3-4.8
						c-0.6-0.4-1.2-0.9-1.8-1.3"/>
					<path class="st10" d="M139.5,115.1c1.2-0.6,2.2-1.2,3-1.9"/>
					<path class="st10" d="M85.9,59c-2.4,3.2-6.4,4.3-6.5,11c0,0.3,0,0.6,0,0.9c0,1.3,0,2.5,0,3.7c0,2.9-0.1,5.3-0.5,7.2
						c-0.2,1.1-0.5,2-1,2.7c-0.7,1.1-2.2,3.2-3.7,5.6c-0.4,0.6-0.7,1.2-1.1,1.8c-1.5,2.6-3,5.4-3.5,7.5c-0.9,3.3-1.7,9.6,0.9,13.5
						c1,1.6,2.6,2.7,4.8,3.3c2.4,0.5,5.4,0.9,8.5,1.2c2,0.2,4,0.4,6,0.5c2.1,0.2,4.2,0.3,6,0.4c3,0.2,5.5,0.3,6.8,0.5
						c1.1,0.1,2.8,0.3,4.9,0.5c0.7,0.1,1.5,0.1,2.4,0.2c0.9,0.1,1.9,0.1,2.9,0.2c1,0,2,0.1,3,0.1c4.6,0.1,9.4-0.1,13-0.9
						c0.7-0.2,1.5-0.3,2.2-0.5c0,0,0,0,0,0c3.1-0.8,6-1.9,8.3-3.2"/>
					<path class="st10" d="M83.8,117.5C83.8,117.5,83.8,117.5,83.8,117.5c0.7-0.4,23.8-12.4,29.5-15c2.8-1.3,6.5-3.1,10.5-4.1
						c1.7-0.4,3.4-0.6,5.1-0.6c2.6,0,5.3,0.6,7.9,2.2l0.1,0"/>
					<path class="st10" d="M79.4,74.6c0,0,14.7,4.2,24.3,10.9"/>
					<path class="st10" d="M78.9,81.8c0,0,11.4,1.1,18.7,7.1"/>
					<path class="st10" d="M133.7,66.4c0,0,1.2,0.9,3.2,2.5c3.8,3.1,10.3,8.8,15.7,15.8c0.6,0.8,1.2,1.6,1.8,2.4
						c0.5,0.8,1.1,1.5,1.6,2.3c1.8,2.7,3.4,5.3,4.7,7.7c1.2,2.2,2.2,4.1,3.1,5.8c1.9,3.8,2.7,6.2,2.7,6.2"/>
					<path class="st10" d="M44.4,158c-1.6-1.2-1-3.2-1-4.8c0-0.6,0-2.2-0.1-4.3c0-1.4-0.1-3-0.1-4.6c0-1.4-0.1-2.8-0.1-4.1
						c0-3.7,0-6.9,0.2-7.9c0.5-2.4,4.4-5.2,5.8-6.3c1.3-1,9.1-6.4,9.1-6.4c-2.2-3.9-5.7-8.1-5.5-9.7c-7-3.9-12.8-8-12.8-13
						c0-4.9,3.6-12.2,12.2-13.1c5.1-0.1,6.9,2,6.9,2c3.6-10.9,4.9-18.2,18-32.2"/>
					<path class="st10" d="M75.7,151.1c-9.4,3.6-22.1,7.8-27.4,7.8c-1.8,0-2.9-0.3-3.7-0.8"/>
					<path class="st10" d="M149.8,149.3c-1.4,0.2-2.6,0.2-3.2,0c-1.8-0.6-3-1.1-3-1.1c-1.9,0.3-4.5,0.3-7.4,1c0,0,0,0-0.1,0
						c-6.5,1.7-14.2,2.5-21.1,1.8c-0.1,0-0.2,0-0.2,0c-1-0.1-2-0.1-3-0.1c-1,0-2,0.1-2.9,0c-2.2-0.2-2.2-1.5-2.2-1.5
						s-2.2,0.1-5.3,0.3c-3.1,0.2-7,0.3-10.7,0.4c-5.7,0.2-10.9,0.1-11.4-0.4c-1.1,0.5-2.4,1-3.7,1.4"/>
					<path class="st10" d="M223.7,127.2c-1.2,1-3,2.4-5.1,4c-3.4,2.5-7.5,5.4-11.3,7.8c-1.9,1.2-3.8,2.4-5.4,3.2
						c-1.7,0.9-3.1,1.6-4.1,1.9c-1.9,0.6-4.8,1.1-7.9,1.5c-6.1,0.8-13.3,1.2-17.1,1.2h-13.9c-2.5,1.2-6.1,2.1-8.8,2.5"/>
					<path class="st10" d="M222.2,111.5c1,0.7,2,1.5,2.9,2.2c2.4,1.8,4.1,3.3,4.2,3.8c0.2,1-0.4,3.1-1.7,5.3c-0.5,0.8-1,1.5-1.7,2.3
						c-0.3,0.3-0.6,0.7-0.9,1c-0.3,0.3-0.8,0.7-1.4,1.2"/>
					<path class="st10" d="M144.8,110.4c0,0,13,0.2,21.6-0.7c1.7-0.2,3.2-0.4,4.4-0.7c7.6-1.7,25.4-5.8,29-6.5
						c1.1-0.2,2.1-0.5,3.1-0.6c2.2-0.4,4.4-0.3,7.7,1.6c1.8,1.1,5,3.2,8.3,5.5c0.4,0.3,0.9,0.6,1.3,0.9c0.7,0.5,1.4,1,2.1,1.5"/>
					<path class="st10" d="M58.8,85.9c0,0,2.4,2.3,5.9,4c1.4,0.7,3,1.3,4.6,1.7c1.2,0.3,2.4,0.4,3.7,0.3"/>
					<path class="st10" d="M64.8,89.9c0.8-10.6,4.9-24.5,15.9-33.5"/>
					<path class="st10" d="M69.4,91.6C70.5,78,75.9,62.2,83.5,58"/>
					<path class="st10" d="M73.5,89.9c0.2-4.4,3.4-16.9,5.8-19.1"/>
					<path class="st10" d="M58.1,119.7c3.4-2.3,8.3-6.5,12.3-6.7c0,0-11.5,0-17.9-3"/>
					<path class="st10" d="M165.8,141.7c-0.5,0.9-1.1,1.6-1.6,2c-1.2,0.9-5.3,3.1-5.3,3.1"/>
					<path class="st10" d="M164.6,134.6c0.7,1.2,1.4,2.5,1.8,3.3c0.5,1.1,0.1,2.6-0.6,3.8"/>
					<path class="st10" d="M150.1,149.2c-0.1,0-0.2,0-0.3,0c-2.2,0,0.4-5.5,1.9-7.4c1.6-1.9,9.2-10.7,10.2-10.7c0,0,0,0,0,0
						c0.5,0.2,1.6,1.7,2.6,3.4"/>
					<path class="st10" d="M165.8,141.7L165.8,141.7c2-0.1,5.2-0.6,8.8-1.5c11.1-2.6,27.1-8,30.8-10.1c4.9-2.8,17.4-8.9,24-12.6"/>
					<path class="st10" d="M174.6,140.2c4.2,0,11.5,2.8,15.3,5.4"/>
					<path class="st10" d="M166.4,137.9c9.5-0.7,40.9-8.3,58.7-24.2"/>
					<path class="st10" d="M164.6,134.6L164.6,134.6c10.9-1.4,40.6-6.9,57.6-23l0,0"/>
					<path class="st10" d="M151.1,128.5c1.4,0.5,2.7,0.9,4.1,1.2c2.3,0.6,4.6,1.1,6.7,1.3c1.9,0.2,3.8,0.2,5.4,0
						c10.6-1.3,45.3-11.6,52.7-21"/>
					<path class="st10" d="M136.2,141.7l-2.5-2.1l-5.1-4.4l-1.3-1.1c-1.1-1.5-1-3,0-5.5c0.3-0.8,1-1.6,1.7-2.4
						c1.5-1.8,3.3-4.1,2.2-7.8v0c0,0,0,0,0,0c2.6,2.2,6.8,4.7,11.6,7c1.4,0.6,2.9,1.3,4.4,1.9c1.3,0.5,2.6,1,3.9,1.4"/>
					<polyline class="st10" points="143.6,148.1 139.2,144.4 136.2,141.7 					"/>
					<path class="st10" d="M139.2,144.4c3.7-3.5,16-14.6,16-14.6"/>
					<polyline class="st10" points="136.2,141.7 136.2,141.7 151.1,128.5 151.1,128.5 					"/>
					<line class="st10" x1="133.7" y1="139.6" x2="147.2" y2="127.1"/>
					<path class="st10" d="M128.6,135.1c0,0,12.3-7.6,14.3-9.9"/>
					<path class="st10" d="M43,140.2c14.3-2.3,41.4-13.1,46.8-22.2"/>
					<path class="st10" d="M43.2,148.9L43.2,148.9c16.8-3.8,46.7-17.7,59.4-30.1"/>
					<path class="st10" d="M43.2,144.4c17.6-4.1,43.7-15.3,52.6-26"/>
					<path class="st10" d="M86.4,135.1c-6.5,4.3-12.9,8.3-16.8,10.1c-2.6,1.2-5.3,2.4-8,3.5c-7.4,3-14.4,5.4-15.8,5.9
						c-1.8,0.6-2.7,2.4-1.4,3.4c0.1,0.1,0.1,0.1,0.2,0.1"/>
					<path class="st10" d="M102.2,123.9c-3.3,2.6-7.8,5.7-12.4,8.9c-1.1,0.8-2.3,1.6-3.5,2.3"/>
					<path class="st10" d="M105.3,121.4c-0.9,0.7-1.9,1.6-3.1,2.5"/>
					<path class="st10" d="M107.6,119.3c-0.5,0.5-1.3,1.2-2.3,2.1"/>
					<path class="st10" d="M105.3,121.4L105.3,121.4c-0.1,0.4-3,8.4-5.8,14.6c-1,2.3-2,4.3-2.8,5.7c-0.1,0.2-0.3,0.4-0.4,0.6
						c-2.9,4.8-4.4,6.9-5.6,7.8"/>
					<path class="st10" d="M77.8,54.6C77.8,54.6,77.8,54.6,77.8,54.6c-0.2-0.2-0.6-0.5-1-0.9C77.2,54.1,77.5,54.4,77.8,54.6"/>
					<path class="st10" d="M113.3,54.6c0.2,0.2,0.4,0.4,0.5,0.6c0.4,0.4,0.7,0.8,1.1,1.2c1.8,2,3.8,4,5.8,5.8c2,1.7,4,3.4,6.5,4.3
						c1.4,0.5,4.1,1.3,5.8,0.5c0.3-0.1,0.5-0.3,0.7-0.5c0.9-0.9-0.4-3.3-0.9-4.3c-0.9-1.7-1.9-3.4-3.1-4.9c-1.3-1.6-2.6-3.2-4-4.6
						c-1.9-2-3.9-3.9-6.2-5.4c-1.6-1.1-3.8-2.5-6.2-4.2c-4.3-2.8-9.6-6.2-14.6-9.2c-3.5-2.1-7-4.1-10.7-6c-3.3-1.7-6.6-3.6-10.3-4.4
						c-3.1-0.6-7.1,0.5-9.7,2.2c-2.5,1.7-5.5,5-5.8,8.1c-0.4,4.6,2.8,9.5,6.1,12.4c0,0,5.9,5.2,8.4,7.4"/>
					<path class="st10" d="M76.8,53.7L76.8,53.7c-0.4-0.4-0.8-0.9-1.3-1.4c-3.3-3.7-8-10.2-9.4-11.8c-1.9-2.2-1.9-4-1.5-5
						c0.5-1.2,3.9-4.7,6.2-5.8c2.2-1,3.8-1,7.8,0c4,1,13.8,5.5,16.6,7.5c2.1,1.5,8.4,7.3,13.8,12.9"/>
					<path class="st10" d="M131.2,43.1c0,0,13.3-8.7,27.3-8.2h0.1"/>
					<path class="st10" d="M167.2,9.7c-2.4-1.2-6.2-0.2-8.3,1.3c-2.6,1.8-18.4,16.5-22,19.5c-3.6,2.9-17.7,8.9-23.6,12.7"/>
					<path class="st10" d="M129.7,57.3c4.7-4.3,17.6-14.3,28.7-22.4c5.7-4.2,10.9-7.9,14.3-10c1-0.6,1.8-1.1,2.5-1.5
						c0,0-4.7-9.5-6.5-12.4c-0.3-0.5-0.7-0.9-1.3-1.2"/>
					<path class="st10" d="M167.2,9.7C167.2,9.7,167.2,9.7,167.2,9.7c0.1,0,0.1,0.1,0.2,0.1c1.5,0.7,13.7,6.1,16.2,7.8"/>
					<path class="st10" d="M204,20.4c-2.3,1-6.1,2.5-10.7,4.4c-6.8,2.9-15.5,6.9-24.4,11.9c-16.4,9.3-33.4,21.6-36,25.5"/>
					<path class="st10" d="M204,20.4c1.4,1.3,3,2.8,4.5,4.2c4.7,4.4,9.1,8.6,9.1,8.6h3.7v20.5l-6.4,1.8c-1.4-2.2-2.9-5.1-4.4-8.3
						c-1.1-2.5-2.2-5.2-3.1-7.9c-0.7-2-1.4-4.1-1.9-6.1c-0.3-1.1-0.6-2.3-0.8-3.4c-0.3-1.5-0.5-2.9-0.7-4.2
						C203.8,23.7,203.8,21.9,204,20.4"/>
					<path class="st10" d="M204,20.4L204,20.4"/>
					<path class="st10" d="M175.1,23.4c0,0,4.2-3.2,8.4-5.8c2.5-1.5,5-2.8,6.8-3.1c1.2-0.2,2.2-0.4,3-0.5c2.2-0.4,3-0.4,4.2,0.5
						c0.6,0.4,3.3,2.9,6.5,6"/>
					<line class="st10" x1="205.5" y1="33.2" x2="211.1" y2="37.9"/>
					<path class="st10" d="M208.5,24.6c0,0,6.3-2.3,7.1-2.3c0.9,0,1.9,1.2,2,3.4c0,2.5,0,7.4,0,7.4c-1.2,2.7-4,4-6.5,4.9
						c-1.4,0.5-2.7,0.9-3.7,1.2"/>
					<path class="st10" d="M152.6,84.7c19.2-12.5,46.7-27.3,62.3-29.2"/>
					<path class="st10" d="M258.4,145.2c-0.3-0.3-0.6-0.6-0.9-1.1c-1-1.4-1.6-6.3-2.8-12.9c-1.2-6.7-3.2-2.5-4.5-1.6
						c-0.5,0.4-2.8,3.6-5.4,7.2c-3.1,4.4-6.6,9.1-7.6,9.6c-1.8,0.8-10.2,1.3-15.1-3.4c-4.9,3.3-13.3,4.1-20.4-0.7"/>
					<path class="st10" d="M259.4,145.6c-0.4,0-0.7-0.2-1-0.4"/>
					<path class="st10" d="M221.3,52.4c0,0,8.3-1.1,18.7-2.2c1.5-0.2,3-0.3,4.6-0.5c1.8-0.2,3.6-0.4,5.4-0.6
						c1.2-0.1,2.4-0.2,3.6-0.4c10.1-1,19.7-1.8,23.6-1.5v74.2"/>
					<path class="st10" d="M155.9,89.4c0,0,54.8-32.5,120.3-25.7"/>
					<path class="st10" d="M160.6,97.1c0,0,40.1-26.9,116.5-19.6"/>
					<path class="st10" d="M163.6,102.9c0,0,55.8-23.6,113.5-11.3"/>
					<path class="st10" d="M202.9,102c0,0,29.8-15.7,74.2-3"/>
					<path class="st10" d="M218.8,109.1c0,0,14.1-1.7,25.6-0.9c1.4,0.1,2.8,0.2,4.1,0.4c1.8,0.3,3.4,0.6,4.8,1
						c2.2,0.7,3.9,1.6,4.9,2.8c0.3,0.4,0.6,0.7,0.8,1.2c0.8,1.3,1.4,3,2,4.7c0.4,1.2,0.7,2.5,1,3.6c0.4,1.4,0.7,2.7,0.9,3.7
						c0.4,1.6,0.7,2.6,1.1,2.7c1.1,0.5,4,0.5,6.7-1.4c2.7-1.9,6.3-5.7,6.3-5.7"/>
					<path class="st10" d="M227.6,122.7c0,0,0.9,2.7,4,0c3.1-2.7,12.7-14.5,12.7-14.5"/>
					<path class="st10" d="M226,125c0,0,3,2,4.5,2.2c1.4,0.2,14.1-11,18.1-18.5"/>
					<path class="st10" d="M223.7,127.2L223.7,127.2c0.3,0.2,4.7,3.9,5.6,4.6c1,0.7,3.1,0.3,5.7-2.3c2.6-2.6,15.8-14.6,18.3-19.8"/>
					<path class="st10" d="M218.6,131.2c0,0,7.1,7.7,8.5,8.5c1.5,0.8,4.7,2.8,10.2-2.6c5.4-5.3,21.3-22.8,21.8-23.4l0,0"/>
					<path class="st10" d="M277.1,121.4v14.1c0,0-10.2,7.3-14.1,9.1c-1.8,0.8-2.9,1.1-3.6,1l0,0c-0.9,0.3-22.1,0.8-22.1,0.8"/>
					<path class="st10" d="M244.9,136.8L244.9,136.8c0.4,0.3,9.1,6.4,13.5,8.4l0,0c0.4,0.2,0.7,0.3,1,0.4"/>
					<path class="st10" d="M227.1,139.6c-1.9,0.6-3.6,1-5.2,1.3c-9.7,1.6-14.6-1.9-14.6-1.9"/>
					<path class="st10" d="M112.9,119.6L112.9,119.6c-0.3,2.7,1.4,5.1,3.2,7.3c1,1.2,2,2.3,2.7,3.3c1.5,2.2,1.3,8.9,0.5,10
						c-0.8,1.2-3.3,2.4-3.8,5c-0.1,0.6-0.2,1.3-0.3,2c-0.2,1.8-0.3,3.4-0.3,3.7v0"/>
					<path class="st10" d="M127.3,134c-0.4,3,0.5,7.5,4.5,9.8c0.9,0.5,1.7,1.1,2.3,1.7c1.9,1.8,2.2,3.5,2.2,3.5"/>
					<path class="st10" d="M115.2,147.2c4.7,2,15.5,1.2,18.8-1.7"/>
					<path class="st10" d="M110,119.5c-0.1,1.3,0,2.7,0.3,4c0.5,2.3,1.4,4.6,2.6,6.7c1.9,3.3,3.2,8.1,1.4,10.7
						c-1.7,2.5-2.4,8.8-2.4,10c0,0,0,0.1,0,0.1"/>
					<path class="st10" d="M112.8,130.2c0,0-3.4,18.1-6.1,19.2"/>
					<path class="st10" d="M104.6,143.3c-1.6,3.3-3.1,6.4-3.1,6.4"/>
					<path class="st10" d="M110.2,123.5c0,0-1.3,8.4-2.9,13.3c-0.2,0.5-0.4,1.1-0.5,1.5c-0.6,1.5-1.4,3.3-2.2,5"/>
					<polyline class="st10" points="96.4,142.3 104.6,143.3 104.6,143.3 					"/>
					<line class="st10" x1="99.5" y1="136" x2="107.3" y2="136.8"/>
					<path class="st10" d="M135.7,87.6c0,0,3.2-8.4,3.5-8.8c2.1,3,4.7,7.8,4.7,7.8c-3.9,2.2-9.1,10.3-8.9,12.1l0,0"/>
					<path class="st10" d="M151.9,97.1c0,0-9.3,5.8-9.7,7.8"/>
					<path class="st10" d="M221.3,33.2c8.4,0.3,28.8,7.5,32.2,15.5"/>
					<path class="st10" d="M221.3,45.3c4.4,0,13.9,2,18.7,4.9l0,0"/>
					<path class="st10" d="M221.3,41c3.3,0.1,12.6,0.2,23.2,8.7"/>
					<path class="st10" d="M221.3,37c7.3,0,18.8,2.8,28.6,12.2"/>
					<path class="st10" d="M115.9,119.7c0.1,0.8,0.7,4.3,2.6,6.5c0.5,0.6,1.1,1.2,1.8,1.6c-1.4-1.4-1-5.3,1.7-5.3
						c2.7,0,3.1,2.1,2.5,4.9c0.8-0.6,1.5-1.2,2-1.8c2.4-2.8,2.3-6,2.3-6.8"/>
					<path class="st10" d="M86.4,135.1L86.4,135.1l-7,14.5c0,0,6.2-0.3,9.6-3c1.4-1.1,4.4-6.2,7.2-11.3c3.1-5.6,5.9-11.2,6-11.5v0"
						/>
					<path class="st10" d="M61.5,148.7c0,0,9.2,3.4,14.2,2.4h0"/>
					<path class="st10" d="M89.8,132.8L89.8,132.8c0.2,0.1,3.8,2.3,6.3,2.6"/>
					<path class="st10" d="M136.9,68.9c8.5-7.7,32.4-30,67.8-39.1l0,0"/>
					<path class="st10" d="M133.7,66.4c9-7.1,32.9-29.2,70.3-40.8"/>
					<path class="st10" d="M172.7,24.8l16.2-5.9c0,0,4.8,3.3,4.4,5.9"/>
					<line class="st10" x1="193.3" y1="13.9" x2="188.9" y2="18.9"/>
					<path class="st10" d="M210.5,47.2c1.8,0.6,8.7-3.7,10.8-7.9"/>
					<path class="st10" d="M261.1,118.4c2.1-0.3,14.1-8,16-11.3"/>
					<path class="st10" d="M262.1,122c2.7-1.1,13.6-7.3,15-10"/>
					<path class="st10" d="M263,125.8c0,0,11.6-5.7,14.1-9.3"/>
					<path class="st10" d="M74.7,30.6c0.3,0.4-0.1,1.1-0.7,1.5c-0.7,0.5-1.4,0.6-1.7,0.2C72,32,72.4,31.3,73,30.8
						C73.7,30.3,74.4,30.2,74.7,30.6z"/>
					<path class="st10" d="M67.8,36c0.4,0.2,0.3,1-0.1,1.7c-0.4,0.7-1.1,1-1.5,0.8c-0.4-0.2-0.3-1,0.1-1.7
						C66.7,36.1,67.4,35.7,67.8,36z"/>
					<path class="st10" d="M123.8,98.5c3.7,1.1,16.7,11.2,15.7,16.7l0,0"/>
					<path class="st10" d="M128.9,97.8c4.8,2.5,14.1,11.7,13.6,15.4l0,0"/>
				</g>
			</g>
		</g>
	</g>
</g>
</svg>
