<?xml version="1.0" encoding="UTF-8"?>
<svg xmlns="http://www.w3.org/2000/svg" xmlns:xlink="http://www.w3.org/1999/xlink" viewBox="0 0 274.39 205.95">
  <defs>
    <style>
      .cls-1 {
        stroke-miterlimit: 10;
      }

      .cls-1, .cls-2, .cls-3 {
        fill: none;
      }

      .cls-1, .cls-3 {
        stroke: #000;
      }

      .cls-4 {
        fill: #f3edd7;
      }

      .cls-4, .cls-2, .cls-5, .cls-6, .cls-7, .cls-8, .cls-9, .cls-10, .cls-11 {
        stroke-width: 0px;
      }

      .cls-3 {
        stroke-linecap: round;
        stroke-linejoin: round;
      }

      .cls-5 {
        fill: #e9dbd0;
      }

      .cls-6 {
        fill: #e4c95e;
      }

      .cls-7 {
        fill: #333;
      }

      .cls-8 {
        fill: #cca4be;
      }

      .cls-9 {
        fill: #fff4dd;
      }

      .cls-12 {
        clip-path: url(#clippath);
      }

      .cls-10 {
        fill: #d2d296;
      }

      .cls-11 {
        fill: #fe483d;
      }
    </style>
    <clipPath id="clippath">
      <rect class="cls-2" x="1.81" width="268.26" height="182.87"/>
    </clipPath>
  </defs>
  <g id="_畳" data-name="畳">
    <g>
      <g>
        <rect class="cls-4" x=".24" y="171.31" width="3.62" height="5.03"/>
        <path class="cls-4" d="m270.06,198.89v6.56h-30.44l15.35-8.63c1.03,1.61,3.11,2.72,5.51,2.72s4.62-1.18,5.62-2.88l3.97,2.23Z"/>
        <path class="cls-4" d="m270.06,188.33v10.56l-3.97-2.23c.38-.65.59-1.38.59-2.14,0-1.3-.62-2.48-1.61-3.38l4.99-2.8Z"/>
        <path class="cls-4" d="m270.06,176.34v11.99l-4.99,2.8c-1.14-1.01-2.77-1.64-4.59-1.64s-3.31.58-4.44,1.51l-26.09-14.66h40.11Z"/>
        <polygon class="cls-4" points="270.06 91.58 270.06 97.35 1.13 97.35 .24 97.35 .24 91.58 270.06 91.58"/>
        <rect class="cls-4" x="266.07" y="171.31" width="3.99" height="5.03"/>
        <path class="cls-4" d="m266.69,194.51c0,.76-.21,1.49-.59,2.14l-5.42-3.05,4.39-2.47c1,.89,1.61,2.07,1.61,3.38Z"/>
        <path class="cls-4" d="m260.68,193.61l5.42,3.05c-1,1.7-3.13,2.88-5.62,2.88s-4.48-1.1-5.51-2.72l5.71-3.21Z"/>
        <rect class="cls-7" x="254.77" y="171.31" width="11.3" height="5.03"/>
        <path class="cls-4" d="m265.07,191.13l-4.39,2.47-4.64-2.6c1.13-.93,2.7-1.51,4.44-1.51,1.82,0,3.46.63,4.59,1.64Z"/>
        <path class="cls-4" d="m260.68,193.61l-5.71,3.21c-.44-.69-.69-1.48-.69-2.31,0-1.37.68-2.6,1.77-3.51l4.64,2.6Z"/>
        <path class="cls-4" d="m229.96,176.34l26.09,14.66c-1.09.9-1.77,2.14-1.77,3.51,0,.83.25,1.62.69,2.31l-15.35,8.63h-41.47l-15.64-8.79c.38-.65.59-1.38.59-2.14,0-1.3-.62-2.48-1.61-3.37l26.33-14.8h22.15Zm-5.96,18.17c0-2.77-2.25-5.02-5.02-5.02s-5.03,2.25-5.03,5.02,2.25,5.03,5.03,5.03,5.02-2.25,5.02-5.03Z"/>
        <polygon class="cls-4" points="254.77 176.34 229.96 176.34 224.25 176.34 224.25 171.31 254.77 171.31 254.77 176.34"/>
        <rect class="cls-7" x="212.95" y="171.31" width="11.3" height="5.03"/>
        <path class="cls-7" d="m218.98,189.49c2.77,0,5.02,2.25,5.02,5.02s-2.25,5.03-5.02,5.03-5.03-2.25-5.03-5.03,2.25-5.02,5.03-5.02Z"/>
        <path class="cls-4" d="m207.81,176.34l-26.33,14.8c-1.14-1.02-2.77-1.65-4.59-1.65s-3.31.58-4.44,1.51l-26.09-14.66h61.45Z"/>
        <polygon class="cls-4" points="182.44 176.34 182.44 171.31 212.95 171.31 212.95 176.34 207.81 176.34 182.44 176.34"/>
        <path class="cls-4" d="m198.15,205.45h-42.12l15.35-8.63c1.03,1.61,3.12,2.72,5.51,2.72s4.62-1.18,5.62-2.88l15.64,8.79Z"/>
        <path class="cls-4" d="m183.1,194.51c0,.76-.21,1.49-.59,2.14l-5.42-3.05,4.39-2.47c1,.89,1.61,2.07,1.61,3.37Z"/>
        <path class="cls-4" d="m177.09,193.61l5.42,3.05c-1,1.7-3.13,2.88-5.62,2.88s-4.48-1.1-5.51-2.72l5.71-3.21Z"/>
        <rect class="cls-7" x="171.13" y="171.31" width="11.3" height="5.03"/>
        <path class="cls-4" d="m176.89,189.49c1.82,0,3.46.63,4.59,1.65l-4.39,2.47-4.64-2.6c1.13-.93,2.7-1.51,4.44-1.51Z"/>
        <path class="cls-4" d="m177.09,193.61l-5.71,3.21c-.44-.69-.69-1.48-.69-2.31,0-1.37.68-2.6,1.77-3.51l4.64,2.6Z"/>
        <path class="cls-4" d="m146.37,176.34l26.09,14.66c-1.09.9-1.77,2.14-1.77,3.51,0,.83.25,1.62.69,2.31l-15.35,8.63h-41.47l-15.64-8.79c.38-.65.59-1.38.59-2.14,0-1.3-.62-2.48-1.61-3.37l26.33-14.8h22.15Zm-7.01,18.17c0-2.77-2.25-5.02-5.02-5.02s-5.03,2.25-5.03,5.02,2.25,5.03,5.03,5.03,5.02-2.25,5.02-5.03Z"/>
        <polygon class="cls-4" points="171.13 176.34 146.37 176.34 140.62 176.34 140.62 171.31 171.13 171.31 171.13 176.34"/>
        <rect class="cls-7" x="129.32" y="171.31" width="11.3" height="5.03"/>
        <path class="cls-7" d="m134.33,189.49c2.77,0,5.02,2.25,5.02,5.02s-2.25,5.03-5.02,5.03-5.03-2.25-5.03-5.03,2.25-5.02,5.03-5.02Z"/>
        <path class="cls-4" d="m124.22,176.34l-26.33,14.8c-1.14-1.02-2.77-1.65-4.59-1.65s-3.31.58-4.44,1.51l-26.09-14.66h61.45Z"/>
        <polygon class="cls-4" points="129.32 176.34 124.22 176.34 98.8 176.34 98.8 171.31 129.32 171.31 129.32 176.34"/>
        <path class="cls-4" d="m114.56,205.45h-42.12l15.35-8.63c1.03,1.61,3.11,2.72,5.51,2.72s4.62-1.18,5.62-2.88l15.64,8.79Z"/>
        <path class="cls-4" d="m99.51,194.51c0,.76-.21,1.49-.59,2.14l-5.42-3.05,4.39-2.47c1,.89,1.61,2.07,1.61,3.37Z"/>
        <path class="cls-4" d="m93.5,193.61l5.42,3.05c-1,1.7-3.13,2.88-5.62,2.88s-4.48-1.1-5.51-2.72l5.71-3.21Z"/>
        <rect class="cls-7" x="87.5" y="171.31" width="11.3" height="5.03"/>
        <path class="cls-4" d="m93.3,189.49c1.82,0,3.46.63,4.59,1.65l-4.39,2.47-4.64-2.6c1.13-.93,2.7-1.51,4.44-1.51Z"/>
        <path class="cls-4" d="m93.5,193.61l-5.71,3.21c-.44-.69-.69-1.48-.69-2.31,0-1.37.68-2.6,1.77-3.51l4.64,2.6Z"/>
        <path class="cls-4" d="m62.78,176.34l26.09,14.66c-1.09.9-1.77,2.14-1.77,3.51,0,.83.25,1.62.69,2.31l-15.35,8.63H30.78l-15.64-8.79c.38-.65.59-1.38.59-2.14,0-1.3-.62-2.48-1.61-3.37l26.33-14.8h22.34Zm-8.52,18.17c0-2.77-2.25-5.02-5.02-5.02s-5.03,2.25-5.03,5.02,2.25,5.03,5.03,5.03,5.02-2.25,5.02-5.03Z"/>
        <polygon class="cls-4" points="87.5 176.34 62.78 176.34 56.99 176.34 56.99 171.31 87.5 171.31 87.5 176.34"/>
        <rect class="cls-7" x="45.68" y="171.31" width="11.3" height="5.03"/>
        <path class="cls-7" d="m49.23,189.49c2.77,0,5.02,2.25,5.02,5.02s-2.25,5.03-5.02,5.03-5.03-2.25-5.03-5.03,2.25-5.02,5.03-5.02Z"/>
        <polygon class="cls-4" points="45.68 176.34 40.44 176.34 15.17 176.34 15.17 171.31 45.68 171.31 45.68 176.34"/>
        <path class="cls-4" d="m30.78,205.45H.24v-6.52l3.76-2.11c1.03,1.61,3.12,2.72,5.51,2.72s4.62-1.18,5.62-2.88l15.64,8.79Z"/>
        <path class="cls-4" d="m15.72,194.51c0,.76-.21,1.49-.59,2.14l-5.42-3.05,4.39-2.47c1,.89,1.61,2.07,1.61,3.37Z"/>
        <rect class="cls-7" x="3.86" y="171.31" width="11.3" height="5.03"/>
        <path class="cls-4" d="m9.72,193.61l5.42,3.05c-1,1.7-3.13,2.88-5.62,2.88s-4.48-1.1-5.51-2.72l5.71-3.21Z"/>
        <path class="cls-4" d="m9.52,189.49c1.82,0,3.46.63,4.59,1.65l-4.39,2.47-4.64-2.6c1.13-.93,2.7-1.51,4.44-1.51Z"/>
        <path class="cls-4" d="m9.72,193.61l-5.71,3.21c-.44-.69-.69-1.48-.69-2.31,0-1.37.68-2.6,1.77-3.51l4.64,2.6Z"/>
        <path class="cls-4" d="m.24,188.29l4.84,2.72c-1.09.9-1.77,2.14-1.77,3.51,0,.83.25,1.62.69,2.31l-3.76,2.11v-10.64Z"/>
        <polygon class="cls-10" points="212.95 171.31 182.44 171.31 171.13 171.31 140.62 171.31 129.32 171.31 98.8 171.31 87.5 171.31 56.99 171.31 45.68 171.31 15.17 171.31 3.86 171.31 .24 171.31 .24 97.35 1.13 97.35 270.06 97.35 270.06 171.31 266.07 171.31 254.77 171.31 224.25 171.31 212.95 171.31"/>
        <path class="cls-4" d="m.24,176.34h40.19l-26.33,14.8c-1.14-1.02-2.77-1.65-4.59-1.65s-3.31.58-4.44,1.51l-4.84-2.72v-11.95Z"/>
      </g>
      <g>
        <polyline class="cls-1" points="270.06 205.45 239.62 205.45 198.15 205.45 156.03 205.45 114.56 205.45 72.44 205.45 30.78 205.45 .24 205.45"/>
        <line class="cls-1" x1=".24" y1="91.58" x2="270.06" y2="91.58"/>
        <line class="cls-1" x1=".24" y1="97.35" x2="270.06" y2="97.35"/>
        <line class="cls-1" x1="266.07" y1="171.31" x2="270.06" y2="171.31"/>
        <line class="cls-1" x1="224.25" y1="171.31" x2="254.77" y2="171.31"/>
        <line class="cls-1" x1="182.44" y1="171.31" x2="212.95" y2="171.31"/>
        <line class="cls-1" x1="140.62" y1="171.31" x2="171.13" y2="171.31"/>
        <line class="cls-1" x1="98.8" y1="171.31" x2="129.32" y2="171.31"/>
        <line class="cls-1" x1="56.99" y1="171.31" x2="87.5" y2="171.31"/>
        <line class="cls-1" x1="15.17" y1="171.31" x2="45.68" y2="171.31"/>
        <line class="cls-1" x1=".24" y1="171.31" x2="3.86" y2="171.31"/>
        <line class="cls-1" x1="266.07" y1="176.34" x2="270.06" y2="176.34"/>
        <polyline class="cls-1" points="224.25 176.34 229.96 176.34 254.77 176.34"/>
        <polyline class="cls-1" points="182.44 176.34 207.81 176.34 212.95 176.34"/>
        <polyline class="cls-1" points="140.62 176.34 146.37 176.34 171.13 176.34"/>
        <polyline class="cls-1" points="98.8 176.34 124.22 176.34 129.32 176.34"/>
        <polyline class="cls-1" points="56.99 176.34 62.78 176.34 87.5 176.34"/>
        <polyline class="cls-1" points="15.17 176.34 40.44 176.34 45.68 176.34"/>
        <line class="cls-1" x1=".24" y1="176.34" x2="3.86" y2="176.34"/>
        <polyline class="cls-1" points="72.44 205.45 87.79 196.82 93.5 193.61 97.89 191.14 124.22 176.34"/>
        <polyline class="cls-1" points="114.56 205.45 98.92 196.65 93.5 193.61 88.86 191 62.78 176.34"/>
        <path class="cls-1" d="m139.35,194.51c0,2.78-2.25,5.03-5.02,5.03s-5.03-2.25-5.03-5.03,2.25-5.02,5.03-5.02,5.02,2.25,5.02,5.02Z"/>
        <path class="cls-1" d="m223.99,194.51c0,2.78-2.25,5.03-5.02,5.03s-5.03-2.25-5.03-5.03,2.25-5.02,5.03-5.02,5.02,2.25,5.02,5.02Z"/>
        <path class="cls-1" d="m97.89,191.14c1,.89,1.61,2.07,1.61,3.37,0,.76-.21,1.49-.59,2.14-1,1.7-3.13,2.88-5.62,2.88s-4.48-1.1-5.51-2.72c-.44-.69-.69-1.48-.69-2.31,0-1.37.68-2.6,1.77-3.51,1.13-.93,2.7-1.51,4.44-1.51,1.82,0,3.46.63,4.59,1.65Z"/>
        <polyline class="cls-1" points=".24 198.93 4 196.82 9.72 193.61 14.11 191.14 40.44 176.34"/>
        <polyline class="cls-1" points="30.78 205.45 15.13 196.65 9.72 193.61 5.08 191 .24 188.29"/>
        <path class="cls-1" d="m14.11,191.14c1,.89,1.61,2.07,1.61,3.37,0,.76-.21,1.49-.59,2.14-1,1.7-3.13,2.88-5.62,2.88s-4.48-1.1-5.51-2.72c-.44-.69-.69-1.48-.69-2.31,0-1.37.68-2.6,1.77-3.51,1.13-.93,2.7-1.51,4.44-1.51,1.82,0,3.46.63,4.59,1.65Z"/>
        <polyline class="cls-1" points="156.03 205.45 171.38 196.82 177.09 193.61 181.48 191.14 207.81 176.34"/>
        <polyline class="cls-1" points="198.15 205.45 182.51 196.65 177.09 193.61 172.45 191 146.37 176.34"/>
        <path class="cls-1" d="m181.48,191.14c1,.89,1.61,2.07,1.61,3.37,0,.76-.21,1.49-.59,2.14-1,1.7-3.13,2.88-5.62,2.88s-4.48-1.1-5.51-2.72c-.44-.69-.69-1.48-.69-2.31,0-1.37.68-2.6,1.77-3.51,1.13-.93,2.7-1.51,4.44-1.51,1.82,0,3.46.63,4.59,1.65Z"/>
        <polyline class="cls-1" points="239.62 205.45 254.97 196.82 260.68 193.61 265.07 191.13 270.06 188.33"/>
        <polyline class="cls-1" points="270.06 198.89 266.1 196.65 260.68 193.61 256.04 191 229.96 176.34"/>
        <path class="cls-1" d="m265.07,191.13c1,.89,1.61,2.07,1.61,3.38,0,.76-.21,1.49-.59,2.14-1,1.7-3.13,2.88-5.62,2.88s-4.48-1.1-5.51-2.72c-.44-.69-.69-1.48-.69-2.31,0-1.37.68-2.6,1.77-3.51,1.13-.93,2.7-1.51,4.44-1.51,1.82,0,3.46.63,4.59,1.64Z"/>
        <path class="cls-1" d="m54.25,194.51c0,2.78-2.25,5.03-5.02,5.03s-5.03-2.25-5.03-5.03,2.25-5.02,5.03-5.02,5.02,2.25,5.02,5.02Z"/>
        <rect class="cls-1" x="3.86" y="171.31" width="11.3" height="5.03"/>
        <rect class="cls-1" x="45.68" y="171.31" width="11.3" height="5.03"/>
        <rect class="cls-1" x="87.5" y="171.31" width="11.3" height="5.03"/>
        <rect class="cls-1" x="129.32" y="171.31" width="11.3" height="5.03"/>
        <rect class="cls-1" x="171.13" y="171.31" width="11.3" height="5.03"/>
        <rect class="cls-1" x="212.95" y="171.31" width="11.3" height="5.03"/>
        <rect class="cls-1" x="254.77" y="171.31" width="11.3" height="5.03"/>
      </g>
    </g>
  </g>
  <g id="_レイヤー_2" data-name="レイヤー 2">
    <g class="cls-12">
      <g>
        <g>
          <path class="cls-11" d="m237.79,155.97c-3.5,4.88-7.42,10.24-8.53,10.72-2.02.87-11.44,1.46-16.87-3.86l-.37-2.25c1.81-.29,3.76-.75,5.86-1.41,1.63.87,5.24,3.1,11.39-2.89,6.04-5.9,23.91-25.57,24.47-26.18.85,1.46,1.57,3.34,2.2,5.31.42,1.35.8,2.75,1.15,4.07.39,1.54.74,2.99,1.05,4.18.45,1.74.84,2.92,1.2,3.08,1.26.54,4.51.57,7.51-1.57,3.01-2.15,7.05-6.42,7.05-6.42v15.79s-11.44,8.14-15.81,10.14c-1.98.9-3.2,1.23-4.04,1.14h0c-.33-.12-.71-.27-1.11-.45,0,0,0,0,0,0-.35-.29-.64-.7-.97-1.18-1.13-1.63-1.76-7.01-3.13-14.49-1.37-7.48-3.63-2.8-5.01-1.76-.62.46-3.18,4.08-6,8.02Z"/>
          <path class="cls-6" d="m273.89,133.26v5.49s-4.04,4.27-7.05,6.42c-3,2.14-6.26,2.11-7.51,1.57-.35-.16-.75-1.34-1.2-3.08,0,0,12.97-6.4,15.76-10.4Z"/>
          <path class="cls-6" d="m273.89,128.24v5.01c-2.8,4-15.76,10.4-15.76,10.4-.31-1.19-.66-2.64-1.05-4.18,3-1.22,15.22-8.23,16.81-11.23Z"/>
          <path class="cls-6" d="m273.89,122.73v5.51c-1.6,3-13.81,10.02-16.81,11.23-.34-1.32-.73-2.72-1.15-4.07,2.32-.31,15.83-9,17.96-12.67Z"/>
          <path class="cls-8" d="m253.73,130.1c-.28-.51-.6-.96-.92-1.35-1.11-1.36-3.05-2.37-5.51-3.12-1.61-.48-3.43-.85-5.4-1.14-1.47-.21-3.02-.36-4.62-.47-12.91-.93-28.67.97-28.67.97-3.64-2.54-7.23-4.91-9.28-6.14-3.65-2.17-6.09-2.23-8.58-1.81,0,0,33.34-17.59,83.14-3.32v9.02c-2.13,3.68-15.65,12.36-17.96,12.67-.63-1.97-1.34-3.85-2.2-5.31Z"/>
          <path class="cls-5" d="m273.89,105.39v8.32c-49.8-14.27-83.14,3.32-83.14,3.32-1.1.19-2.21.47-3.43.7-4.01.75-23.92,5.39-32.44,7.26-1.37.3-3.06.55-4.92.75l-.08-.75s-.99-2.7-3.08-6.98c0,0,62.52-26.44,127.1-12.62Z"/>
          <path class="cls-5" d="m273.89,89.52v15.87c-64.58-13.82-127.1,12.62-127.1,12.62-.92-1.89-2.06-4.1-3.41-6.52,0,0,44.9-30.13,130.51-21.96Z"/>
          <path class="cls-5" d="m273.89,74.05v15.47c-85.61-8.16-130.51,21.96-130.51,21.96-1.49-2.66-3.25-5.58-5.29-8.63,0,0,61.37-36.41,134.76-28.8h1.04Z"/>
          <path class="cls-5" d="m232.32,59.01c1.67-.19,3.38-.37,5.12-.56,1.98-.22,3.98-.43,5.99-.64,1.34-.14,2.68-.27,4.01-.41,11.31-1.12,22.01-1.97,26.45-1.72v18.36h-1.04c-73.39-7.6-134.76,28.8-134.76,28.8-.56-.83-1.14-1.69-1.75-2.54-.64-.89-1.29-1.78-1.96-2.64h0c21.49-14.02,52.3-30.59,69.83-32.7l7.18-2.06v-1.42s9.34-1.18,20.92-2.48Z"/>
          <path class="cls-11" d="m252.92,165.37c.29.26.65.41,1.11.45-1.03.3-24.76.86-24.76.86,1.11-.48,5.02-5.85,8.53-10.72.39.27,10.13,7.14,15.12,9.4,0,0,0,0,0,0Z"/>
          <path class="cls-6" d="m252.81,128.74c.32.39.64.84.92,1.35-.56.62-18.42,20.29-24.47,26.18-6.15,5.99-9.76,3.77-11.39,2.89s-9.56-9.48-9.56-9.48c2.33-1.72,4.35-3.26,5.74-4.42h0c.28.25,5.21,4.4,6.31,5.13,1.13.76,3.51.38,6.39-2.56,2.88-2.94,17.65-16.31,20.53-22.21h0c2.46.74,4.4,1.75,5.51,3.11Z"/>
          <path class="cls-11" d="m251.94,164.19c.33.48.62.88.97,1.18-4.98-2.26-14.73-9.12-15.12-9.4,2.83-3.94,5.39-7.56,6-8.02,1.38-1.04,3.64-5.72,5.01,1.76,1.37,7.48,2,12.86,3.13,14.49Z"/>
          <path class="cls-6" d="m247.45,57.4c-1.33.14-2.67.27-4.01.41-11.02-10.44-23.81-13.61-32.03-13.61v-4.22c9.35.33,32.23,8.43,36.04,17.41Z"/>
          <path class="cls-6" d="m247.3,125.62h0c-2.88,5.91-17.65,19.28-20.53,22.22-2.87,2.94-5.26,3.32-6.39,2.56-1.1-.73-6.02-4.89-6.31-5.13.67-.56,1.2-1.02,1.55-1.37s.69-.72,1-1.09c0,0,3.38,2.22,5.01,2.46,1.63.26,15.76-12.3,20.27-20.78h0c1.96.27,3.79.65,5.4,1.13Z"/>
          <path class="cls-6" d="m241.9,124.49h0c-4.5,8.49-18.64,21.04-20.27,20.79-1.63-.25-5.01-2.46-5.01-2.46.72-.83,1.33-1.7,1.85-2.55,0,0,1.03,3.01,4.53,0,3.51-3,14.27-16.25,14.27-16.25,1.6.11,3.15.26,4.62.47Z"/>
          <path class="cls-6" d="m243.43,57.82c-2.01.21-4.01.42-5.99.64-11.88-9.55-22.32-9.61-26.04-9.75v-4.49c8.22,0,21.01,3.17,32.03,13.61Z"/>
          <path class="cls-6" d="m237.44,58.45c-1.74.19-3.45.37-5.12.56-5.34-3.35-15.94-5.53-20.92-5.53v-4.78c3.72.14,14.16.21,26.04,9.75Z"/>
          <path class="cls-8" d="m237.28,124.01s-10.76,13.24-14.27,16.25c-3.5,3.01-4.53,0-4.53,0,1.5-2.47,2.15-4.8,1.9-5.89-.13-.56-2.06-2.23-4.75-4.29-.99-.76-2.09-1.57-3.24-2.41h0c-.77-.56-1.55-1.12-2.34-1.69-.47-.33-.95-.67-1.42-1,0,0,15.76-1.9,28.67-.97Z"/>
          <path class="cls-8" d="m211.4,53.48c4.97,0,15.58,2.19,20.92,5.53-11.58,1.3-20.92,2.48-20.92,2.48v-8.01Z"/>
          <path class="cls-11" d="m220.38,134.37c.25,1.09-.4,3.41-1.9,5.89-.52.85-1.14,1.72-1.85,2.55-.31.37-.65.74-1,1.09s-.88.81-1.55,1.37h0c-1.39,1.17-3.4,2.71-5.74,4.42-3.79,2.79-8.44,6.01-12.69,8.73-2.17,1.38-4.23,2.64-6.02,3.63-1.86,1.04-3.44,1.8-4.54,2.13-2.12.65-5.33,1.21-8.9,1.66-4.18-2.89-12.35-5.96-17.08-6.01h0c12.47-2.94,30.3-8.92,34.45-11.3,5.51-3.17,19.45-9.95,26.84-14.16Z"/>
          <path class="cls-6" d="m215.63,130.09c2.69,2.06,4.62,3.73,4.75,4.29-7.39,4.21-21.33,10.99-26.84,14.16-4.15,2.38-21.98,8.36-34.45,11.29-4.11.97-7.64,1.61-9.91,1.69.78-1.38,1.29-3.07.7-4.3,10.6-.83,45.77-9.33,65.76-27.13Z"/>
          <path class="cls-6" d="m212.39,127.67c1.15.84,2.25,1.66,3.24,2.41-19.98,17.8-55.15,26.29-65.76,27.13-.42-.89-1.21-2.34-2.04-3.73,12.22-1.53,45.5-7.75,64.55-25.81h0Z"/>
          <path class="cls-11" d="m208.32,149.7s7.93,8.6,9.56,9.48c-2.1.67-4.05,1.12-5.86,1.41-10.82,1.79-16.39-2.16-16.39-2.16,4.26-2.72,8.91-5.94,12.69-8.73Z"/>
          <path class="cls-11" d="m212.02,160.59l.37,2.25c-5.48,3.66-14.85,4.56-22.79-.78,1.8-.99,3.86-2.25,6.02-3.63,0,0,5.57,3.94,16.39,2.16Z"/>
          <path class="cls-11" d="m211.4,61.49v1.42l-7.18,2.06c-1.61-2.5-3.31-5.74-4.91-9.33,2.07.71,9.75-4.1,12.09-8.8v14.65Z"/>
          <path class="cls-11" d="m211.4,44.21v2.64c-2.33,4.7-10.02,9.51-12.09,8.8-1.26-2.79-2.44-5.78-3.49-8.8,1.06-.39,2.56-.78,4.14-1.34,2.8-1,5.88-2.53,7.27-5.51h4.17v4.22Z"/>
          <path class="cls-6" d="m210.04,125.99c.79.57,1.58,1.13,2.34,1.69-19.05,18.06-52.33,24.28-64.55,25.81h0c-1.1-1.85-2.32-3.62-2.87-3.79,0,0-.03,0-.05,0l.02-.17c2.18.22,4.21.25,6.03,0,11.86-1.5,50.68-13.04,59.09-23.54Z"/>
          <path class="cls-8" d="m208.62,124.99c.47.33.95.67,1.42,1-8.41,10.51-47.23,22.04-59.09,23.54-1.82.24-3.86.21-6.03,0-2.39-.26-4.94-.75-7.55-1.43-1.52-.39-3.05-.84-4.59-1.35h0c-1.46-.48-2.91-1.01-4.36-1.57-1.69-.66-3.34-1.36-4.93-2.09-5.43-2.49-10.17-5.32-13.05-7.79,3.45-.93,6.71-2.19,9.31-3.54h0c1.31-.69,2.46-1.39,3.39-2.1h0c1.45-1.1,2.37-2.19,2.57-3.16,0,0,14.54.26,24.25-.76,1.86-.2,3.55-.44,4.92-.75,8.53-1.87,28.43-6.51,32.44-7.26,1.23-.23,2.33-.51,3.43-.7,2.49-.41,4.93-.35,8.58,1.81,2.05,1.23,5.64,3.6,9.28,6.14Z"/>
          <path class="cls-11" d="m207.23,31.64c.04,2.8,0,8.35,0,8.35,0,0-4.94-4.7-10.2-9.65,0,0,7-2.53,8.01-2.53s2.16,1.31,2.2,3.84Z"/>
          <path class="cls-11" d="m192.79,36.21c-.34-1.64-.61-3.21-.77-4.68-.26-2.25-.27-4.25,0-5.9,1.6,1.49,3.32,3.11,5,4.7,5.26,4.95,10.2,9.65,10.2,9.65-1.39,2.98-4.47,4.51-7.27,5.51l-.08-.23-6.18-5.29c-.35-1.29-.66-2.55-.91-3.78Z"/>
          <path class="cls-11" d="m199.89,45.28l.08.23c-1.58.56-3.08.95-4.14,1.34-.8-2.3-1.52-4.61-2.12-6.86l6.18,5.29Z"/>
          <path class="cls-8" d="m199.32,55.65c1.6,3.59,3.3,6.83,4.91,9.33-17.53,2.11-48.33,18.68-69.83,32.69h0c-6.02-7.8-13.31-14.22-17.56-17.7,9.51-8.58,36.25-33.58,75.97-43.75.26,1.23.56,2.49.91,3.78.6,2.25,1.31,4.56,2.12,6.86,1.05,3.02,2.24,6.01,3.49,8.8Z"/>
          <path class="cls-8" d="m192.03,31.53c.16,1.47.42,3.04.77,4.68-39.72,10.17-66.46,35.17-75.97,43.75-2.18-1.77-3.56-2.77-3.56-2.77,10.06-7.95,36.89-32.66,78.77-45.67Z"/>
          <path class="cls-8" d="m192.03,25.63h0c-.27,1.66-.26,3.66,0,5.91-41.88,13.01-68.71,37.72-78.77,45.67.99-1-.42-3.66-.96-4.77,2.92-4.3,21.96-18.16,40.34-28.52,10.01-5.64,19.75-10.08,27.36-13.31,5.19-2.21,9.4-3.88,12.02-4.97h0Z"/>
          <path class="cls-11" d="m184.69,18.95c.65.48,3.68,3.28,7.33,6.68-2.62,1.1-6.83,2.77-12.02,4.97.44-2.96-4.96-6.63-4.96-6.63l4.99-5.59c2.41-.4,3.32-.41,4.66.57Z"/>
          <path class="cls-11" d="m180.03,18.38l-4.99,5.59-18.12,6.63c1.12-.72,2.04-1.28,2.75-1.66,0,0,4.68-3.62,9.44-6.51,2.81-1.71,5.65-3.17,7.57-3.48,1.38-.23,2.47-.42,3.36-.57Z"/>
          <path class="cls-11" d="m140.93,41.8c6.4-4.68,12.24-8.81,15.99-11.2l18.12-6.63s5.41,3.67,4.96,6.63c-7.61,3.24-17.35,7.67-27.36,13.31-18.37,10.36-37.42,24.22-40.34,28.52-.95-1.93-2.16-3.76-3.49-5.48,5.25-4.85,19.72-16.05,32.12-25.14Z"/>
          <path class="cls-11" d="m159.09,159.83c4.73.05,12.9,3.12,17.08,6.01-6.8.86-14.89,1.34-19.16,1.34h-15.55s4.57-2.46,5.92-3.46c.55-.41,1.25-1.24,1.8-2.22h0c2.27-.08,5.8-.72,9.91-1.69h0Z"/>
          <path class="cls-11" d="m169.1,22.43c-4.76,2.89-9.44,6.51-9.44,6.51,0,0-5.29-10.66-7.29-13.92-.35-.58-.84-1.02-1.41-1.33,1.69.76,15.31,6.87,18.14,8.74Z"/>
          <path class="cls-11" d="m140.93,41.8c-12.4,9.09-26.87,20.3-32.12,25.14-1.4-1.82-2.96-3.54-4.53-5.17-2.12-2.19-4.39-4.38-6.92-6.09-1.8-1.22-4.21-2.84-6.98-4.67,6.65-4.18,22.45-10.94,26.45-14.2,3.99-3.26,21.74-19.79,24.63-21.8,2.33-1.61,6.67-2.73,9.33-1.41,0,0,.03.02.1.04.02,0,.05.03.08.04.57.31,1.06.76,1.41,1.33,2,3.26,7.29,13.92,7.29,13.92-.71.38-1.63.94-2.75,1.66-3.75,2.39-9.59,6.52-15.99,11.2Z"/>
          <path class="cls-11" d="m149.87,157.21c.59,1.23.08,2.91-.7,4.3h0c-.55.98-1.25,1.81-1.8,2.22-1.34,1-5.92,3.46-5.92,3.46-2.85,1.35-6.85,2.36-9.89,2.75-.12.02-.23.03-.32.03-2.5,0,.41-6.16,2.18-8.24,1.81-2.15,10.29-12.04,11.48-12.04.02,0,.04,0,.05,0,.56.17,1.78,1.93,2.87,3.79h0c.83,1.38,1.62,2.84,2.04,3.73Z"/>
          <path class="cls-8" d="m114.78,113.34c-.12-.08-.24-.17-.35-.26-6-4.36-11.6-10.16-20.73-11.74l.07-.4s6.8-14.99,18.72-23.21c.29-.13.55-.3.78-.53,0,0,1.38,1,3.56,2.77,4.25,3.47,11.54,9.9,17.56,17.71.68.86,1.32,1.75,1.96,2.64.61.85,1.19,1.71,1.75,2.54,2.04,3.05,3.8,5.97,5.29,8.63,1.35,2.42,2.49,4.63,3.41,6.52,2.09,4.28,3.08,6.98,3.08,6.98l.08.75c-9.71,1.02-24.25.76-24.25.76.33-1.65-.79-3.82-3-6.26-1.51-1.69-3.53-3.51-5.94-5.38-.63-.5-1.29-1-1.98-1.5h0Z"/>
          <path class="cls-6" d="m144.92,149.52l-.02.17c-1.19,0-9.67,9.89-11.48,12.04-1.77,2.08-4.68,8.24-2.18,8.24-1.57.19-2.86.2-3.54-.02-2-.63-3.37-1.26-3.37-1.26l-4.89-4.23c4.13-3.9,17.92-16.37,17.92-16.37,2.61.69,5.16,1.18,7.55,1.43Z"/>
          <path class="cls-6" d="m132.78,146.73c1.54.51,3.07.96,4.59,1.35,0,0-13.79,12.47-17.92,16.37l-3.4-2.95,16.73-14.77h0Z"/>
          <path class="cls-6" d="m132.77,146.73l-16.73,14.77h0l-2.77-2.4,15.15-13.94c1.44.56,2.89,1.09,4.36,1.57Z"/>
          <path class="cls-6" d="m128.41,145.16l-15.15,13.94-5.76-4.98s13.75-8.49,15.97-11.05c1.6.73,3.25,1.43,4.93,2.09Z"/>
          <path class="cls-8" d="m122.7,120.23c2.21,2.44,3.34,4.61,3,6.26-.2.97-1.12,2.06-2.57,3.15.62-4.14-9.87-14.54-15.22-17.29h0c2.96,0,5.95.72,8.85,2.5,2.4,1.86,4.42,3.69,5.94,5.38Z"/>
          <path class="cls-5" d="m119.44,164.46l4.89,4.23c-2.1.31-5.03.31-8.24,1.16l-.06-.25s-.32-1.86-2.43-3.89c-.66-.63-1.49-1.29-2.55-1.9-4.42-2.58-5.43-7.59-5-10.96l1.46,1.28,5.76,4.98,2.77,2.4h0l3.4,2.95Z"/>
          <path class="cls-8" d="m107.92,112.35c5.35,2.75,15.83,13.15,15.22,17.29h0c-.93.72-2.08,1.42-3.39,2.1,1.19-6.09-13.4-17.43-17.56-18.68,1.86-.45,3.8-.73,5.74-.72h0Z"/>
          <path class="cls-6" d="m89.92,136.77c-1.12-.05-2.22-.11-3.26-.17-.93-.06-1.82-.12-2.66-.18-2.36-.18-4.31-.38-5.52-.54-1.52-.2-4.29-.36-7.64-.56-2.08-.12-4.39-.26-6.76-.42-2.23-.15-4.52-.32-6.74-.54.8-.42,26.61-13.94,33.03-16.77,3.18-1.4,7.31-3.47,11.8-4.54,4.16,1.25,18.75,12.59,17.56,18.68h0c-2.6,1.36-5.86,2.62-9.31,3.55t-.02,0v.02c-.82.22-1.66.41-2.49.59-4,.84-9.42,1.05-14.59.97-1.15-.02-2.3-.05-3.4-.09Z"/>
          <path class="cls-8" d="m110.43,135.29c2.87,2.47,7.61,5.3,13.05,7.79-2.22,2.56-15.97,11.05-15.97,11.05l-1.46-1.28c-1.26-1.73-1.09-3.4,0-6.11,1.08-2.72,6.14-5.41,4.37-11.44,0,0,0,0,.02,0Z"/>
          <path class="cls-6" d="m116.03,169.6l.06.25s-.05,0-.07.02c-7.27,1.93-15.89,2.8-23.59,1.96-.09,0-.17-.02-.26-.03,0-.32.07-2.16.32-4.15,5.27,2.2,17.31,1.32,21.1-1.94,2.11,2.03,2.43,3.89,2.43,3.89Z"/>
          <path class="cls-8" d="m72.75,102.3c2.21-.28,4.52-.57,6.88-.8,2.6-.26,5.25-.46,7.88-.56,1.22-.05,2.38-.02,3.5.06.93.08,1.83.19,2.7.34,9.13,1.58,14.73,7.39,20.73,11.74.12.09.24.18.35.26h0c.69.51,1.35,1.01,1.98,1.51-2.89-1.79-5.89-2.49-8.85-2.51-1.94,0-3.88.26-5.74.72-4.49,1.07-8.62,3.14-11.8,4.54-6.43,2.83-32.23,16.34-33.03,16.77-3.52-.33-6.87-.78-9.54-1.36-2.55-.57-4.29-1.9-5.43-3.65-2.88-4.42-1.95-11.45-.96-15.14.63-2.34,2.22-5.47,3.94-8.44.4-.7.81-1.37,1.22-2.03,1.67-2.74,3.29-5.11,4.1-6.32.53-.78.89-1.81,1.14-3.07,0,0,12.79,1.18,20.93,7.95Z"/>
          <path class="cls-7" d="m85.47,58.78c-6.03-6.2-13.04-12.74-15.43-14.43-3.19-2.24-14.13-7.2-18.6-8.36-4.51-1.17-6.27-1.17-8.77,0s-6.35,5.09-6.89,6.46c-.46,1.18-.37,3.22,1.72,5.64,1.62,1.88,6.86,9.1,10.55,13.25.52.6,1.01,1.12,1.46,1.57-2.77-2.43-9.43-8.31-9.43-8.31-3.66-3.23-7.28-8.78-6.85-13.87.3-3.54,3.71-7.15,6.51-9.09,2.86-1.98,7.46-3.2,10.87-2.5,4.13.84,7.82,2.97,11.52,4.88,4.05,2.09,8.01,4.4,11.93,6.73,5.57,3.29,11.48,7.08,16.31,10.27,2.78,1.82,5.19,3.45,6.98,4.67,2.53,1.72,4.8,3.9,6.92,6.09,1.57,1.63,3.13,3.35,4.53,5.17,1.33,1.73,2.54,3.55,3.49,5.48.54,1.11,1.95,3.77.96,4.77-.26.17-.52.34-.78.53-1.86.87-4.87,0-6.49-.56-2.82-.96-5.09-2.84-7.31-4.77-2.31-1.99-4.45-4.19-6.51-6.45-.4-.44-.8-.88-1.2-1.33-.2-.22-.39-.44-.6-.67-1.46-1.61-3.14-3.38-4.91-5.18Z"/>
          <path class="cls-6" d="m111.05,163.8c1.06.62,1.89,1.28,2.55,1.9-3.79,3.27-15.83,4.14-21.1,1.94.09-.76.21-1.53.35-2.26.59-2.84,3.34-4.26,4.26-5.56.92-1.31,1.08-8.74-.58-11.23-.76-1.13-1.88-2.36-2.98-3.7l2.67-.71c.57.72,1.26,1.34,2.06,1.77-1.56-1.56-1.13-5.89,1.94-5.89s3.51,2.38,2.82,5.45c4.97-3.41,4.83-8.58,4.89-9.64.83-.18,1.67-.37,2.49-.59,1.78,6.03-3.29,8.72-4.37,11.44-1.09,2.71-1.26,4.39,0,6.11-.42,3.36.58,8.38,5,10.96Z"/>
          <path class="cls-8" d="m105.99,77.17c1.63.56,4.63,1.43,6.49.56-11.92,8.22-18.72,23.21-18.72,23.21l-.07.4c-.86-.16-1.77-.26-2.7-.34v-.06c-.68-2.74,1.17-34.98,1.17-34.98,2.06,2.26,4.21,4.45,6.51,6.45,2.22,1.92,4.49,3.81,7.31,4.77Z"/>
          <path class="cls-8" d="m107.92,135.88c-.06,1.06.09,6.23-4.89,9.64.7-3.07.26-5.45-2.82-5.45s-3.5,4.33-1.94,5.89c-.8-.42-1.49-1.05-2.06-1.77-2.05-2.57-2.74-6.44-2.88-7.34,5.17.08,10.59-.13,14.59-.97Z"/>
          <path class="cls-5" d="m96.53,148.6c1.66,2.49,1.5,9.92.58,11.23-.92,1.3-3.67,2.73-4.26,5.56-.15.73-.26,1.5-.35,2.26-.26,1.99-.31,3.83-.32,4.15-1.13-.1-2.25-.09-3.35-.07-.02-1.35.82-8.35,2.69-11.17,1.92-2.92.5-8.27-1.62-11.96-1.32-2.3-2.41-4.91-2.94-7.49-.32-1.54-.44-3.07-.28-4.51,1.04.06,2.14.12,3.26.17-.31,3,1.63,5.73,3.62,8.13,1.1,1.33,2.23,2.57,2.98,3.7Z"/>
          <path class="cls-6" d="m96.21,144.19l-2.67.71c-1.99-2.4-3.93-5.13-3.62-8.13,1.11.04,2.26.07,3.4.09.15.9.83,4.77,2.88,7.34Z"/>
          <path class="cls-8" d="m90.97,64.62c.39.45.79.89,1.2,1.33,0,0-1.84,32.25-1.16,34.98v.06c-1.13-.08-2.3-.11-3.51-.06-2.63.1-5.28.3-7.88.56l-.04-.41s-.02-1.06.03-2.64c.02-.74.05-1.6.11-2.51.13-2.26.39-4.88.89-7.02,1.13-4.88,8.25-23.88,9.76-24.96.21.23.4.45.6.67Z"/>
          <path class="cls-5" d="m89.9,148.6c2.12,3.69,3.54,9.04,1.62,11.96-1.86,2.83-2.71,9.82-2.69,11.17-1.1.03-2.19.06-3.25,0-2.41-.17-2.47-1.67-2.47-1.67,2.94-1.17,6.79-21.47,6.79-21.47Z"/>
          <path class="cls-5" d="m89.9,148.6s-3.85,20.31-6.79,21.47c0,0-2.43.16-5.94.33,0,0,1.7-3.41,3.43-7.16h0c.89-1.92,1.8-3.93,2.49-5.61.21-.5.41-1.06.61-1.68,1.77-5.46,3.24-14.84,3.24-14.84.53,2.57,1.62,5.19,2.94,7.49Z"/>
          <path class="cls-11" d="m86.67,136.6c-.16,1.44-.04,2.97.28,4.51,0,0-1.47,9.38-3.24,14.84h0l-8.72-.81c3.08-7.02,6.32-16,6.45-16.38h0c1.17-.97,2.04-1.77,2.57-2.33.83.06,1.73.12,2.66.18Z"/>
          <path class="cls-8" d="m85.47,58.78c1.77,1.8,3.44,3.57,4.91,5.18-1.51,1.08-8.63,20.08-9.76,24.96-.5,2.15-.77,4.77-.89,7.02h-.11s-6.01-10.02-6.01-10.02l2.05-4.27,1.02-2.38,8.8-20.49Z"/>
          <path class="cls-9" d="m70.53,68.83c-.62.25-1.3.49-2.06.72-1.35.41-2.84.49-4.37.31-1.44-.15-2.93-.52-4.4-1.03-.88-.31-1.77-.68-2.63-1.08-1.14-.52-2.23-1.1-3.26-1.72-1.15-.68-2.2-1.38-3.13-2.08-.03-.02-.05-.04-.08-.07-.17-.15-.55-.49-1.09-.97h0c-.45-.45-.94-.97-1.46-1.57-3.69-4.15-8.93-11.37-10.55-13.25-2.09-2.42-2.18-4.46-1.72-5.64.54-1.37,4.39-5.3,6.89-6.46s4.26-1.17,8.77,0c4.47,1.16,15.41,6.12,18.6,8.36,2.39,1.69,9.4,8.23,15.43,14.43l-8.8,20.49-6.14-10.44Zm-24.14-30.05c.74-.55,1.1-1.31.8-1.73-.3-.41-1.15-.3-1.89.25-.75.54-1.11,1.31-.8,1.73.29.4,1.15.29,1.89-.25Zm-7.09,6.19c.5-.77.57-1.62.15-1.89-.43-.28-1.18.12-1.69.89-.5.78-.56,1.63-.14,1.9s1.18-.13,1.68-.9Z"/>
          <path class="cls-11" d="m83.7,155.96h0c-.2.62-.4,1.18-.61,1.68-.7,1.68-1.6,3.69-2.49,5.61h0l-9.17-1.04c.14-.23.27-.46.42-.7.92-1.53,2.01-3.82,3.13-6.37l8.72.81Z"/>
          <path class="cls-11" d="m64.09,151.51c-1.29.87-2.58,1.76-3.88,2.61h0c-7.26,4.85-14.44,9.27-18.86,11.31-2.88,1.33-5.96,2.65-8.98,3.88-8.31,3.38-16.09,6.09-17.65,6.65-2.03.72-2.97,2.64-1.56,3.79-1.77-1.29-1.15-3.63-1.15-5.34,0-.67-.05-2.47-.11-4.81,18.85-4.24,52.29-19.82,66.56-33.72,1.22.16,3.16.36,5.52.54-.53.57-1.4,1.36-2.57,2.33h0c-.97.81-2.15,1.75-3.48,2.77,0,0,0,0,0,.02-3.74,2.86-8.68,6.44-13.84,9.98Z"/>
          <path class="cls-11" d="m71.43,162.21l9.17,1.04c-1.74,3.75-3.43,7.16-3.43,7.16-3.41.18-7.84.38-12.01.49,1.39-1,3.03-3.34,6.27-8.69Z"/>
          <path class="cls-8" d="m79.61,95.93h.11c-.06.92-.09,1.79-.11,2.52-10.77-7.51-27.23-12.16-27.23-12.16.02-1.3.03-2.7.05-4.15,0-.32,0-.65,0-.98.13-7.53,4.63-8.77,7.26-12.32,1.47.51,2.96.88,4.4,1.03l-.02.23,9.52,15.83,6.01,10.01Z"/>
          <path class="cls-8" d="m79.58,101.09l.04.41c-2.35.24-4.67.52-6.88.8-8.13-6.77-20.93-7.95-20.93-7.95.42-2.12.51-4.88.56-8.07,0,0,16.46,4.65,27.23,12.16-.05,1.58-.03,2.64-.03,2.64Z"/>
          <path class="cls-11" d="m81.43,138.76c-.13.38-3.36,9.36-6.45,16.38-1.12,2.55-2.21,4.84-3.13,6.37-.15.24-.28.47-.42.7-3.24,5.36-4.88,7.69-6.27,8.69-6.39.19-12.16.16-12.78-.49,0,0,6.98-.36,10.79-3.35,1.57-1.23,4.91-6.92,8.02-12.63,3.42-6.27,6.56-12.54,6.74-12.9,0,0,0-.02,0-.02,1.33-1.02,2.51-1.95,3.48-2.76Z"/>
          <path class="cls-8" d="m70.53,68.83l6.14,10.44-1.02,2.38-2.05,4.27-9.52-15.83.02-.23c1.53.18,3.01.1,4.37-.31.76-.23,1.44-.47,2.06-.72Z"/>
          <path class="cls-11" d="m77.94,141.54c-.18.36-3.32,6.63-6.74,12.9-2.81-.34-6.85-2.78-7.1-2.92,5.16-3.54,10.1-7.11,13.84-9.98Z"/>
          <path class="cls-6" d="m70.84,135.33c3.36.2,6.12.36,7.64.56-14.27,13.9-47.72,29.48-66.56,33.72-.05-1.54-.1-3.32-.14-5.14h.11c19.67-4.63,48.93-17.12,58.95-29.14Z"/>
          <path class="cls-11" d="m64.09,151.51c.26.15,4.3,2.58,7.1,2.92-3.11,5.71-6.46,11.4-8.02,12.63-3.82,2.98-10.79,3.35-10.79,3.35l7.84-16.28h0c1.29-.86,2.59-1.75,3.88-2.62Z"/>
          <path class="cls-6" d="m64.08,134.9c2.37.17,4.68.3,6.76.42-10.02,12.02-39.28,24.51-58.95,29.14h-.11c-.04-1.54-.07-3.12-.09-4.63,16.03-2.62,46.34-14.67,52.39-24.92h0Z"/>
          <path class="cls-8" d="m57.34,134.36c2.22.22,4.51.39,6.74.54h0c-6.04,10.26-36.36,22.31-52.39,24.93-.05-4.1-.02-7.72.23-8.8.61-2.67,4.94-5.84,6.46-7.01,1.5-1.17,10.18-7.14,10.18-7.14,3.84-2.54,9.28-7.34,13.82-7.52,1.14,1.75,2.87,3.08,5.43,3.65,2.67.59,6.01,1.03,9.54,1.36Z"/>
          <path class="cls-11" d="m60.22,154.13l-7.84,16.28c-1.28.52-2.66,1.07-4.1,1.63h-.02c-5.57,1.04-15.87-2.73-15.87-2.73,3.01-1.23,6.09-2.54,8.98-3.88,4.41-2.04,11.6-6.46,18.86-11.3Z"/>
          <path class="cls-11" d="m57.07,67.75c.86.4,1.75.77,2.63,1.08-2.63,3.55-7.13,4.79-7.26,12.32,0,.33,0,.66,0,.98h0c-2.78,2.48-6.33,16.47-6.55,21.38l.72.24c-.4.66-.81,1.33-1.22,2.03-1.41.07-2.81-.08-4.14-.37h0c1.2-15.31,7.29-32.92,15.84-37.65Z"/>
          <path class="cls-11" d="m53.81,66.04c1.03.62,2.12,1.2,3.26,1.72-8.55,4.73-14.65,22.34-15.84,37.64h0c-1.86-.4-3.63-1.1-5.19-1.88.87-11.92,5.46-27.47,17.78-37.47Z"/>
          <path class="cls-11" d="m52.42,82.13h0c-.02,1.45-.03,2.84-.05,4.15-.05,3.2-.14,5.95-.56,8.07-.25,1.26-.61,2.3-1.14,3.07-.81,1.21-2.43,3.58-4.1,6.32l-.72-.24c.23-4.91,3.78-18.89,6.55-21.38Z"/>
          <path class="cls-11" d="m50.68,63.96c.93.7,1.98,1.4,3.13,2.08-12.31,10.01-16.9,25.56-17.78,37.47-3.94-1.96-6.64-4.49-6.64-4.49,4-12.18,5.49-20.36,20.11-36.1h0c.41.41.78.75,1.09.97.03.03.05.05.08.07Z"/>
          <path class="cls-7" d="m47.19,37.06c.29.41-.07,1.18-.8,1.73-.75.54-1.6.65-1.89.25-.3-.41.06-1.19.8-1.73.75-.55,1.59-.66,1.89-.25Z"/>
          <path class="cls-11" d="m32.39,169.31s10.3,3.77,15.87,2.73c-10.56,4.07-24.7,8.72-30.73,8.72-2,0-3.3-.32-4.14-.85-.08-.05-.15-.1-.22-.16-1.41-1.15-.47-3.07,1.56-3.79,1.56-.56,9.34-3.27,17.65-6.65Z"/>
          <path class="cls-6" d="m41.23,105.4c1.33.29,2.73.44,4.14.37-1.73,2.96-3.32,6.09-3.94,8.44-.99,3.69-1.92,10.71.96,15.14,0,0-12.82-.02-20-3.36-7.85-4.34-14.36-9.02-14.36-14.53s4.01-13.69,13.69-14.7c5.76-.08,7.68,2.26,7.68,2.26,0,0,2.7,2.53,6.64,4.49,1.56.78,3.33,1.48,5.19,1.89Z"/>
          <path class="cls-7" d="m39.44,43.08c.42.27.35,1.13-.15,1.89-.5.78-1.26,1.18-1.68.9s-.36-1.13.14-1.9c.51-.78,1.26-1.18,1.69-.89Z"/>
          <path class="cls-6" d="m22.38,125.99c7.18,3.35,20,3.36,20,3.36-4.54.19-9.99,4.98-13.82,7.52-2.5-4.38-6.35-9.05-6.18-10.89Z"/>
        </g>
        <g>
          <path class="cls-3" d="m50.68,63.96c.93.7,1.98,1.4,3.13,2.08,1.03.62,2.12,1.2,3.26,1.72.86.4,1.75.77,2.63,1.08,1.47.51,2.96.88,4.4,1.03,1.53.18,3.01.1,4.37-.31.76-.23,1.44-.47,2.06-.72,3.88-1.55,5.12-3.3,5.12-3.3"/>
          <path class="cls-3" d="m46.93,52.18c2,2.84,5.26,7.85,5.76,8.85.51,1,1.76.17,2.42-.42"/>
          <path class="cls-3" d="m53.81,48.21s1.88-1.87,3.26-2.25"/>
          <path class="cls-3" d="m44.98,56.5s1.38-1.63,1.76-1.63"/>
          <path class="cls-3" d="m56.2,58.02s1.92.59,2.26,1.01"/>
          <path class="cls-3" d="m58.45,64.94c.91.26,2.37-.9,2.37-1.57"/>
          <line class="cls-3" x1="70.53" y1="68.83" x2="76.67" y2="79.27"/>
          <polyline class="cls-3" points="85.58 58.53 85.47 58.78 76.67 79.27 75.65 81.65 73.6 85.92"/>
          <polyline class="cls-3" points="64.08 70.09 73.6 85.92 79.61 95.93"/>
          <path class="cls-3" d="m79.58,101.09s-.02-1.06.03-2.64c.02-.74.05-1.6.11-2.51.13-2.26.39-4.88.89-7.02,1.13-4.88,8.25-23.88,9.76-24.96"/>
          <path class="cls-3" d="m92.17,65.96s-1.84,32.25-1.16,34.98"/>
          <path class="cls-3" d="m93.77,100.94s6.8-14.99,18.72-23.21c.26-.19.51-.36.78-.53"/>
          <path class="cls-3" d="m114.78,113.34c-.12-.08-.24-.17-.35-.26-6-4.36-11.6-10.16-20.73-11.74-.86-.16-1.77-.26-2.7-.34-1.12-.08-2.29-.11-3.5-.06-2.63.1-5.28.3-7.88.56-2.35.24-4.67.52-6.88.8-7.4.97-13.63,2.04-16.55,1.89"/>
          <path class="cls-3" d="m123.13,129.64c1.45-1.09,2.37-2.18,2.57-3.15.33-1.65-.79-3.82-3-6.26-1.51-1.69-3.53-3.51-5.94-5.38-.63-.5-1.29-1-1.98-1.5"/>
          <path class="cls-3" d="m119.74,131.73c1.31-.68,2.46-1.38,3.39-2.09"/>
          <path class="cls-3" d="m59.7,68.83c-2.63,3.55-7.13,4.79-7.26,12.32,0,.33,0,.66,0,.98-.02,1.45-.03,2.84-.05,4.15-.05,3.2-.14,5.95-.56,8.07-.25,1.26-.61,2.3-1.14,3.07-.81,1.21-2.43,3.58-4.1,6.32-.4.66-.81,1.33-1.22,2.03-1.73,2.96-3.32,6.09-3.94,8.44-.99,3.69-1.92,10.71.96,15.14,1.14,1.75,2.87,3.08,5.43,3.65,2.67.59,6.01,1.03,9.54,1.36,2.22.22,4.51.39,6.74.54,2.37.17,4.68.3,6.76.42,3.36.2,6.12.36,7.64.56,1.22.16,3.16.36,5.52.54.83.06,1.73.12,2.66.18,1.04.06,2.14.12,3.26.17,1.11.04,2.26.07,3.4.09,5.17.08,10.59-.13,14.59-.97.83-.18,1.67-.37,2.49-.59,0,0,0,0,.02,0,3.45-.93,6.71-2.19,9.31-3.54"/>
          <path class="cls-3" d="m57.33,134.37s0,0,.02,0c.8-.42,26.61-13.94,33.03-16.77,3.18-1.4,7.31-3.47,11.8-4.54,1.86-.45,3.8-.73,5.74-.72,2.96.02,5.95.73,8.85,2.51l.06.03"/>
          <path class="cls-3" d="m52.38,86.28s16.46,4.65,27.23,12.16"/>
          <path class="cls-3" d="m51.82,94.36s12.79,1.18,20.93,7.95"/>
          <path class="cls-3" d="m113.26,77.2s1.38,1,3.56,2.77c4.25,3.47,11.54,9.9,17.56,17.71.68.86,1.32,1.75,1.96,2.64.61.85,1.19,1.71,1.75,2.54,2.04,3.05,3.8,5.97,5.29,8.63,1.35,2.42,2.49,4.63,3.41,6.52,2.09,4.28,3.08,6.98,3.08,6.98"/>
          <path class="cls-3" d="m13.18,179.75c-1.77-1.29-1.15-3.63-1.15-5.34,0-.67-.05-2.47-.11-4.81-.05-1.54-.1-3.32-.14-5.14-.04-1.54-.07-3.12-.09-4.63-.05-4.1-.02-7.72.23-8.8.61-2.67,4.94-5.84,6.46-7.01,1.5-1.17,10.18-7.14,10.18-7.14-2.5-4.38-6.35-9.05-6.18-10.89-7.85-4.34-14.36-9.02-14.36-14.53s4.01-13.69,13.69-14.7c5.76-.08,7.68,2.26,7.68,2.26,4-12.18,5.49-20.36,20.11-36.1"/>
          <path class="cls-3" d="m48.26,172.03c-10.56,4.07-24.7,8.72-30.73,8.72-2,0-3.3-.32-4.14-.85"/>
          <path class="cls-3" d="m131.24,169.96c-1.57.19-2.86.2-3.54-.02-2-.63-3.37-1.26-3.37-1.26-2.1.31-5.03.31-8.24,1.16-.02,0-.05,0-.07.02-7.27,1.93-15.89,2.8-23.59,1.96-.09,0-.17-.02-.26-.03-1.13-.1-2.25-.09-3.35-.07-1.1.03-2.19.06-3.25,0-2.41-.17-2.47-1.67-2.47-1.67,0,0-2.43.16-5.94.33-3.41.18-7.84.38-12.01.49-6.39.19-12.16.16-12.78-.49-1.28.52-2.66,1.07-4.1,1.63"/>
          <path class="cls-3" d="m214.06,145.27c-1.39,1.17-3.4,2.71-5.74,4.42-3.79,2.79-8.44,6.01-12.69,8.73-2.17,1.38-4.23,2.64-6.02,3.63-1.86,1.04-3.44,1.8-4.54,2.13-2.12.65-5.33,1.21-8.9,1.66-6.8.86-14.89,1.34-19.16,1.34h-15.55c-2.85,1.35-6.85,2.36-9.89,2.75"/>
          <path class="cls-3" d="m212.39,127.67c1.15.84,2.25,1.66,3.24,2.41,2.69,2.06,4.62,3.73,4.75,4.29.25,1.09-.4,3.41-1.9,5.89-.52.85-1.14,1.72-1.85,2.55-.31.37-.65.74-1,1.09s-.88.81-1.55,1.37"/>
          <path class="cls-3" d="m125.7,126.49s14.54.26,24.25-.76c1.86-.2,3.55-.44,4.92-.75,8.53-1.87,28.43-6.51,32.44-7.26,1.23-.23,2.33-.51,3.43-.7,2.49-.41,4.93-.35,8.58,1.81,2.05,1.23,5.64,3.6,9.28,6.14.47.33.95.67,1.42,1,.79.57,1.58,1.13,2.34,1.69"/>
          <path class="cls-3" d="m29.4,99.02s2.7,2.53,6.64,4.49c1.56.78,3.33,1.48,5.19,1.89,1.33.29,2.73.44,4.14.37"/>
          <path class="cls-3" d="m36.04,103.51c.87-11.92,5.46-27.47,17.78-37.47"/>
          <path class="cls-3" d="m41.23,105.39c1.2-15.3,7.29-32.91,15.84-37.64"/>
          <path class="cls-3" d="m45.87,103.51c.23-4.91,3.78-18.89,6.55-21.38"/>
          <path class="cls-3" d="m28.56,136.88c3.84-2.54,9.28-7.34,13.82-7.52,0,0-12.82-.02-20-3.36"/>
          <path class="cls-3" d="m149.17,161.51c-.55.98-1.25,1.81-1.8,2.22-1.34,1-5.92,3.46-5.92,3.46"/>
          <path class="cls-3" d="m147.83,153.48c.83,1.38,1.62,2.84,2.04,3.73.59,1.23.08,2.91-.7,4.3"/>
          <path class="cls-3" d="m131.57,169.94c-.12.02-.23.03-.32.03-2.5,0,.41-6.16,2.18-8.24,1.81-2.15,10.29-12.04,11.48-12.04.02,0,.04,0,.05,0,.56.17,1.78,1.93,2.87,3.79"/>
          <path class="cls-3" d="m149.17,161.51h0c2.27-.08,5.8-.72,9.91-1.69,12.47-2.93,30.3-8.91,34.45-11.29,5.51-3.17,19.45-9.95,26.84-14.16"/>
          <path class="cls-3" d="m159.09,159.83c4.73.05,12.9,3.12,17.08,6.01"/>
          <path class="cls-3" d="m149.87,157.21c10.6-.83,45.77-9.33,65.76-27.13"/>
          <path class="cls-3" d="m147.82,153.48h0c12.22-1.53,45.5-7.75,64.55-25.81h0"/>
          <path class="cls-3" d="m132.78,146.73c1.54.51,3.07.96,4.59,1.35,2.61.69,5.16,1.18,7.55,1.43,2.18.22,4.21.25,6.03,0,11.86-1.5,50.68-13.04,59.09-23.54"/>
          <path class="cls-3" d="m116.03,161.51l-2.77-2.4-5.76-4.98-1.46-1.28c-1.26-1.73-1.09-3.4,0-6.11,1.08-2.72,6.14-5.41,4.37-11.44v-.02s0,0,.02,0c2.87,2.47,7.61,5.3,13.05,7.79,1.6.73,3.25,1.43,4.93,2.09,1.44.56,2.89,1.09,4.36,1.57"/>
          <polyline class="cls-3" points="124.33 168.69 119.44 164.46 116.04 161.51"/>
          <path class="cls-3" d="m119.44,164.46c4.13-3.9,17.92-16.37,17.92-16.37"/>
          <polyline class="cls-3" points="116.03 161.51 116.04 161.51 132.77 146.73 132.78 146.73"/>
          <line class="cls-3" x1="113.26" y1="159.11" x2="128.41" y2="145.16"/>
          <path class="cls-3" d="m107.5,154.12s13.75-8.49,15.97-11.05"/>
          <path class="cls-3" d="m11.7,159.83c16.03-2.62,46.34-14.67,52.39-24.92"/>
          <path class="cls-3" d="m11.91,169.6h0c18.85-4.24,52.29-19.82,66.56-33.72"/>
          <path class="cls-3" d="m11.89,164.46c19.67-4.63,48.93-17.12,58.95-29.14"/>
          <path class="cls-3" d="m60.22,154.13c-7.26,4.84-14.44,9.26-18.86,11.3-2.88,1.33-5.96,2.65-8.98,3.88-8.31,3.38-16.09,6.09-17.65,6.65-2.03.72-2.97,2.64-1.56,3.79.07.06.14.11.22.16"/>
          <path class="cls-3" d="m77.94,141.54c-3.74,2.86-8.68,6.44-13.84,9.98-1.29.87-2.58,1.76-3.88,2.61"/>
          <path class="cls-3" d="m81.43,138.76c-.97.8-2.15,1.74-3.48,2.76"/>
          <path class="cls-3" d="m84.01,136.42c-.53.57-1.4,1.36-2.57,2.33"/>
          <path class="cls-3" d="m81.44,138.75h0c-.13.39-3.36,9.37-6.45,16.39-1.12,2.55-2.21,4.84-3.13,6.37-.15.24-.28.47-.42.7-3.24,5.36-4.88,7.69-6.27,8.69"/>
          <path class="cls-3" d="m50.68,63.96s-.05-.04-.08-.07c-.17-.15-.55-.49-1.09-.97.41.41.78.75,1.09.97"/>
          <path class="cls-3" d="m90.38,63.96c.21.23.4.45.6.67.39.45.79.89,1.2,1.33,2.06,2.26,4.21,4.45,6.51,6.45,2.22,1.92,4.49,3.81,7.31,4.77,1.63.56,4.63,1.43,6.49.56.29-.13.55-.3.78-.53.99-1-.42-3.66-.96-4.77-.95-1.93-2.16-3.76-3.49-5.48-1.4-1.82-2.96-3.54-4.53-5.17-2.12-2.19-4.39-4.38-6.92-6.09-1.8-1.22-4.21-2.84-6.98-4.67-4.84-3.19-10.74-6.98-16.31-10.27-3.92-2.33-7.88-4.64-11.93-6.73-3.7-1.9-7.39-4.03-11.52-4.88-3.41-.7-8.01.52-10.87,2.5-2.81,1.94-6.21,5.55-6.51,9.09-.43,5.09,3.19,10.64,6.85,13.87,0,0,6.66,5.88,9.43,8.31"/>
          <path class="cls-3" d="m49.52,62.92h0c-.45-.45-.94-.97-1.46-1.57-3.69-4.15-8.93-11.37-10.55-13.25-2.09-2.42-2.18-4.46-1.72-5.64.54-1.37,4.39-5.3,6.89-6.46s4.26-1.17,8.77,0c4.47,1.16,15.41,6.12,18.6,8.36,2.39,1.69,9.4,8.23,15.43,14.43"/>
          <path class="cls-3" d="m110.41,51.02s14.86-9.69,30.52-9.21h.06"/>
          <path class="cls-3" d="m150.79,13.61c-2.66-1.31-6.99-.2-9.33,1.41-2.89,2.01-20.64,18.54-24.63,21.8-4,3.26-19.8,10.02-26.45,14.2"/>
          <path class="cls-3" d="m108.81,66.95c5.25-4.85,19.72-16.05,32.12-25.14,6.4-4.68,12.24-8.81,15.99-11.2,1.12-.72,2.04-1.28,2.75-1.66,0,0-5.29-10.66-7.29-13.92-.35-.58-.84-1.02-1.41-1.33"/>
          <path class="cls-3" d="m150.79,13.61s.03.02.1.04c.02,0,.05.03.08.04,1.69.76,15.31,6.87,18.14,8.74"/>
          <path class="cls-3" d="m192.02,25.63c-2.62,1.1-6.83,2.77-12.02,4.97-7.61,3.24-17.35,7.67-27.36,13.31-18.37,10.36-37.42,24.22-40.34,28.52"/>
          <path class="cls-3" d="m192.03,25.64c1.6,1.49,3.32,3.11,5,4.7,5.26,4.95,10.2,9.65,10.2,9.65h4.17v22.93l-7.18,2.06c-1.61-2.5-3.31-5.74-4.91-9.33-1.26-2.79-2.44-5.78-3.49-8.8-.8-2.3-1.52-4.61-2.12-6.86-.35-1.29-.66-2.55-.91-3.78-.34-1.64-.61-3.21-.77-4.68-.26-2.25-.27-4.25,0-5.9"/>
          <path class="cls-3" d="m192.03,25.64h0"/>
          <path class="cls-3" d="m159.66,28.94s4.68-3.62,9.44-6.51c2.81-1.71,5.65-3.17,7.57-3.48,1.38-.23,2.47-.42,3.36-.57,2.41-.4,3.32-.41,4.66.57.65.48,3.68,3.28,7.33,6.68"/>
          <line class="cls-3" x1="193.71" y1="39.99" x2="199.89" y2="45.28"/>
          <path class="cls-3" d="m197.03,30.34s7-2.53,8.01-2.53,2.16,1.31,2.2,3.84c.04,2.8,0,8.35,0,8.35-1.39,2.98-4.47,4.51-7.27,5.51-1.58.56-3.08.95-4.14,1.34"/>
          <path class="cls-3" d="m134.39,97.66c21.49-14.01,52.3-30.58,69.83-32.69"/>
          <path class="cls-3" d="m252.91,165.36c-.35-.29-.64-.7-.97-1.18-1.13-1.63-1.76-7.01-3.13-14.49-1.37-7.48-3.63-2.8-5.01-1.76-.62.46-3.18,4.08-6,8.02-3.5,4.88-7.42,10.24-8.53,10.72-2.02.87-11.44,1.46-16.87-3.86-5.48,3.66-14.85,4.56-22.79-.78"/>
          <path class="cls-3" d="m254.03,165.83c-.46-.04-.81-.2-1.11-.45"/>
          <path class="cls-3" d="m211.4,61.49s9.34-1.18,20.92-2.48c1.67-.19,3.38-.37,5.12-.56,1.98-.22,3.98-.43,5.99-.64,1.34-.14,2.68-.27,4.01-.41,11.31-1.12,22.01-1.97,26.45-1.72v83.06"/>
          <path class="cls-3" d="m138.09,102.85s61.37-36.41,134.76-28.8"/>
          <path class="cls-3" d="m143.38,111.49s44.9-30.13,130.51-21.96"/>
          <path class="cls-3" d="m146.79,118.01s62.52-26.44,127.1-12.62"/>
          <path class="cls-3" d="m190.75,117.03s33.34-17.59,83.14-3.32"/>
          <path class="cls-3" d="m208.62,124.99s15.76-1.9,28.67-.97c1.6.11,3.15.26,4.62.47,1.96.28,3.79.66,5.4,1.14,2.46.75,4.4,1.76,5.51,3.12.32.39.64.84.92,1.35.85,1.46,1.57,3.34,2.2,5.31.42,1.35.8,2.75,1.15,4.07.39,1.54.74,2.99,1.05,4.18.45,1.74.84,2.92,1.2,3.08,1.26.54,4.51.57,7.51-1.57,3.01-2.15,7.05-6.42,7.05-6.42"/>
          <path class="cls-3" d="m218.48,140.26s1.03,3.01,4.53,0c3.51-3,14.27-16.25,14.27-16.25"/>
          <path class="cls-3" d="m216.62,142.81s3.38,2.22,5.01,2.46c1.63.26,15.76-12.3,20.27-20.78"/>
          <path class="cls-3" d="m214.06,145.27h0c.28.25,5.21,4.4,6.31,5.13,1.13.76,3.51.38,6.39-2.56,2.88-2.94,17.65-16.31,20.53-22.21"/>
          <path class="cls-3" d="m208.32,149.7s7.93,8.6,9.56,9.48,5.24,3.1,11.39-2.89c6.04-5.9,23.91-25.57,24.47-26.18,0,0,0,0,0,0"/>
          <path class="cls-3" d="m273.89,138.75v15.79s-11.44,8.14-15.81,10.14c-1.98.9-3.2,1.23-4.04,1.14h0c-1.03.3-24.76.86-24.76.86"/>
          <path class="cls-3" d="m237.78,155.96h0c.39.28,10.13,7.15,15.12,9.41,0,0,0,0,0,0,.4.18.78.33,1.11.45"/>
          <path class="cls-3" d="m217.88,159.17c-2.1.67-4.05,1.12-5.86,1.41-10.82,1.79-16.39-2.16-16.39-2.16"/>
          <path class="cls-3" d="m89.92,136.76h0c-.31,3.01,1.63,5.74,3.62,8.14,1.1,1.33,2.23,2.57,2.98,3.7,1.66,2.49,1.5,9.92.58,11.23-.92,1.3-3.67,2.73-4.26,5.56-.15.73-.26,1.5-.35,2.26-.26,1.99-.31,3.83-.32,4.15v.05"/>
          <path class="cls-3" d="m106.04,152.85c-.42,3.36.58,8.38,5,10.96,1.06.62,1.89,1.28,2.55,1.9,2.11,2.03,2.43,3.89,2.43,3.89"/>
          <path class="cls-3" d="m92.49,167.65c5.27,2.2,17.31,1.32,21.1-1.94"/>
          <path class="cls-3" d="m86.67,136.6c-.16,1.44-.04,2.97.28,4.51.53,2.57,1.62,5.19,2.94,7.49,2.12,3.69,3.54,9.04,1.62,11.96-1.86,2.83-2.71,9.82-2.69,11.17,0,.04,0,.08,0,.11"/>
          <path class="cls-3" d="m89.9,148.6s-3.85,20.31-6.79,21.47"/>
          <path class="cls-3" d="m80.6,163.24c-1.74,3.75-3.43,7.16-3.43,7.16"/>
          <path class="cls-3" d="m86.95,141.11s-1.47,9.38-3.24,14.84c-.2.62-.4,1.18-.61,1.68-.7,1.68-1.6,3.69-2.49,5.61"/>
          <polyline class="cls-3" points="71.43 162.21 80.6 163.24 80.61 163.24"/>
          <line class="cls-3" x1="74.98" y1="155.14" x2="83.7" y2="155.96"/>
          <path class="cls-3" d="m115.49,100.94s3.59-9.4,3.95-9.83c2.37,3.32,5.32,8.69,5.32,8.69-4.38,2.51-10.16,11.59-9.98,13.54h0"/>
          <path class="cls-3" d="m133.59,111.49s-10.38,6.54-10.89,8.74"/>
          <path class="cls-3" d="m211.4,39.99c9.35.33,32.23,8.43,36.04,17.41"/>
          <path class="cls-3" d="m211.4,53.48c4.97,0,15.58,2.19,20.92,5.53,0,0,0,0,0,0"/>
          <path class="cls-3" d="m211.4,48.7c3.72.14,14.16.21,26.04,9.75"/>
          <path class="cls-3" d="m211.4,44.21c8.22,0,21.01,3.17,32.03,13.61"/>
          <path class="cls-3" d="m93.33,136.86c.15.9.83,4.77,2.88,7.34.57.72,1.26,1.34,2.06,1.77-1.56-1.56-1.13-5.89,1.94-5.89s3.51,2.38,2.82,5.45c4.97-3.41,4.83-8.58,4.89-9.64"/>
          <path class="cls-3" d="m60.22,154.12h0s-7.84,16.28-7.84,16.28c0,0,6.98-.36,10.79-3.35,1.57-1.23,4.91-6.92,8.02-12.63,3.42-6.27,6.56-12.54,6.74-12.9,0,0,0-.02,0-.02"/>
          <path class="cls-3" d="m32.39,169.31s10.3,3.77,15.87,2.73h.02"/>
          <path class="cls-3" d="m64.08,151.5h0c.26.16,4.3,2.59,7.1,2.93"/>
          <path class="cls-3" d="m116.82,79.97c9.51-8.58,36.25-33.58,75.97-43.75h0"/>
          <path class="cls-3" d="m113.26,77.2c10.06-7.95,36.89-32.66,78.77-45.67"/>
          <path class="cls-3" d="m156.92,30.6l18.12-6.63s5.41,3.67,4.96,6.63"/>
          <line class="cls-3" x1="180.03" y1="18.38" x2="175.04" y2="23.97"/>
          <path class="cls-3" d="m199.32,55.65c2.07.71,9.75-4.1,12.09-8.8"/>
          <path class="cls-3" d="m255.93,135.4c2.32-.31,15.83-9,17.96-12.67"/>
          <path class="cls-3" d="m257.08,139.47c3-1.22,15.22-8.23,16.81-11.23"/>
          <path class="cls-3" d="m258.13,143.65s12.97-6.4,15.76-10.4"/>
          <path class="cls-3" d="m47.19,37.06c.29.41-.07,1.18-.8,1.73-.75.54-1.6.65-1.89.25-.3-.41.06-1.19.8-1.73.75-.55,1.59-.66,1.89-.25Z"/>
          <path class="cls-3" d="m39.44,43.08c.42.27.35,1.13-.15,1.89-.5.78-1.26,1.18-1.68.9s-.36-1.13.14-1.9c.51-.78,1.26-1.18,1.69-.89Z"/>
          <line class="cls-3" x1="119.74" y1="131.73" x2="119.74" y2="131.74"/>
          <path class="cls-1" d="m102.18,113.06c4.16,1.25,18.75,12.59,17.56,18.68"/>
          <line class="cls-3" x1="123.13" y1="129.64" x2="123.13" y2="129.65"/>
          <path class="cls-1" d="m107.92,112.35c5.35,2.75,15.83,13.15,15.22,17.29"/>
        </g>
      </g>
    </g>
  </g>
</svg>