<?xml version="1.0" encoding="UTF-8"?>
<svg xmlns="http://www.w3.org/2000/svg" viewBox="0 0 270.31 212.79">
  <defs>
    <style>
      .cls-1 {
        stroke-miterlimit: 10;
      }

      .cls-1, .cls-2 {
        fill: none;
        stroke: #000;
      }

      .cls-3 {
        fill: #e76941;
      }

      .cls-3, .cls-4, .cls-5, .cls-6, .cls-7, .cls-8, .cls-9 {
        stroke-width: 0px;
      }

      .cls-4 {
        fill: #f3edd7;
      }

      .cls-2 {
        stroke-linecap: round;
        stroke-linejoin: round;
      }

      .cls-5 {
        fill: #333;
      }

      .cls-6 {
        fill: #f7d6a9;
      }

      .cls-7 {
        fill: #d2d296;
      }

      .cls-8 {
        fill: #a075c5;
      }

      .cls-9 {
        fill: #f1d37b;
      }
    </style>
  </defs>
  <g id="_畳" data-name="畳">
    <g>
      <g>
        <rect class="cls-4" x=".24" y="178.15" width="3.62" height="5.03"/>
        <path class="cls-4" d="m270.06,205.73v6.56h-30.44l15.35-8.63c1.03,1.61,3.11,2.72,5.51,2.72s4.62-1.18,5.62-2.88l3.97,2.23Z"/>
        <path class="cls-4" d="m270.06,195.17v10.56l-3.97-2.23c.38-.65.59-1.38.59-2.14,0-1.3-.62-2.48-1.61-3.38l4.99-2.8Z"/>
        <path class="cls-4" d="m270.06,183.18v11.99l-4.99,2.8c-1.14-1.01-2.77-1.64-4.59-1.64s-3.31.58-4.44,1.51l-26.09-14.66h40.11Z"/>
        <polygon class="cls-4" points="270.06 98.57 270.06 104.33 1.13 104.33 .24 104.33 .24 98.57 270.06 98.57"/>
        <rect class="cls-4" x="266.07" y="178.15" width="3.99" height="5.03"/>
        <path class="cls-4" d="m266.69,201.35c0,.76-.21,1.49-.59,2.14l-5.42-3.05,4.39-2.47c1,.89,1.61,2.07,1.61,3.38Z"/>
        <path class="cls-4" d="m260.68,200.45l5.42,3.05c-1,1.7-3.13,2.88-5.62,2.88s-4.48-1.1-5.51-2.72l5.71-3.21Z"/>
        <rect class="cls-5" x="254.77" y="178.15" width="11.3" height="5.03"/>
        <path class="cls-4" d="m265.07,197.97l-4.39,2.47-4.64-2.6c1.13-.93,2.7-1.51,4.44-1.51,1.82,0,3.46.63,4.59,1.64Z"/>
        <path class="cls-4" d="m260.68,200.45l-5.71,3.21c-.44-.69-.69-1.48-.69-2.31,0-1.37.68-2.6,1.77-3.51l4.64,2.6Z"/>
        <path class="cls-4" d="m229.96,183.18l26.09,14.66c-1.09.9-1.77,2.14-1.77,3.51,0,.83.25,1.62.69,2.31l-15.35,8.63h-41.47l-15.64-8.79c.38-.65.59-1.38.59-2.14,0-1.3-.62-2.48-1.61-3.37l26.33-14.8h22.15Zm-5.96,18.17c0-2.77-2.25-5.02-5.02-5.02s-5.03,2.25-5.03,5.02,2.25,5.03,5.03,5.03,5.02-2.25,5.02-5.03Z"/>
        <polygon class="cls-4" points="254.77 183.18 229.96 183.18 224.25 183.18 224.25 178.15 254.77 178.15 254.77 183.18"/>
        <rect class="cls-5" x="212.95" y="178.15" width="11.3" height="5.03"/>
        <path class="cls-5" d="m218.98,196.33c2.77,0,5.02,2.25,5.02,5.02s-2.25,5.03-5.02,5.03-5.03-2.25-5.03-5.03,2.25-5.02,5.03-5.02Z"/>
        <path class="cls-4" d="m207.81,183.18l-26.33,14.8c-1.14-1.02-2.77-1.65-4.59-1.65s-3.31.58-4.44,1.51l-26.09-14.66h61.45Z"/>
        <polygon class="cls-4" points="182.44 183.18 182.44 178.15 212.95 178.15 212.95 183.18 207.81 183.18 182.44 183.18"/>
        <path class="cls-4" d="m198.15,212.29h-42.12l15.35-8.63c1.03,1.61,3.12,2.72,5.51,2.72s4.62-1.18,5.62-2.88l15.64,8.79Z"/>
        <path class="cls-4" d="m183.1,201.35c0,.76-.21,1.49-.59,2.14l-5.42-3.05,4.39-2.47c1,.89,1.61,2.07,1.61,3.37Z"/>
        <path class="cls-4" d="m177.09,200.45l5.42,3.05c-1,1.7-3.13,2.88-5.62,2.88s-4.48-1.1-5.51-2.72l5.71-3.21Z"/>
        <rect class="cls-5" x="171.13" y="178.15" width="11.3" height="5.03"/>
        <path class="cls-4" d="m176.89,196.33c1.82,0,3.46.63,4.59,1.65l-4.39,2.47-4.64-2.6c1.13-.93,2.7-1.51,4.44-1.51Z"/>
        <path class="cls-4" d="m177.09,200.45l-5.71,3.21c-.44-.69-.69-1.48-.69-2.31,0-1.37.68-2.6,1.77-3.51l4.64,2.6Z"/>
        <path class="cls-4" d="m146.37,183.18l26.09,14.66c-1.09.9-1.77,2.14-1.77,3.51,0,.83.25,1.62.69,2.31l-15.35,8.63h-41.47l-15.64-8.79c.38-.65.59-1.38.59-2.14,0-1.3-.62-2.48-1.61-3.37l26.33-14.8h22.15Zm-7.01,18.17c0-2.77-2.25-5.02-5.02-5.02s-5.03,2.25-5.03,5.02,2.25,5.03,5.03,5.03,5.02-2.25,5.02-5.03Z"/>
        <polygon class="cls-4" points="171.13 183.18 146.37 183.18 140.62 183.18 140.62 178.15 171.13 178.15 171.13 183.18"/>
        <rect class="cls-5" x="129.32" y="178.15" width="11.3" height="5.03"/>
        <path class="cls-5" d="m134.33,196.33c2.77,0,5.02,2.25,5.02,5.02s-2.25,5.03-5.02,5.03-5.03-2.25-5.03-5.03,2.25-5.02,5.03-5.02Z"/>
        <path class="cls-4" d="m124.22,183.18l-26.33,14.8c-1.14-1.02-2.77-1.65-4.59-1.65s-3.31.58-4.44,1.51l-26.09-14.66h61.45Z"/>
        <polygon class="cls-4" points="129.32 183.18 124.22 183.18 98.8 183.18 98.8 178.15 129.32 178.15 129.32 183.18"/>
        <path class="cls-4" d="m114.56,212.29h-42.12l15.35-8.63c1.03,1.61,3.11,2.72,5.51,2.72s4.62-1.18,5.62-2.88l15.64,8.79Z"/>
        <path class="cls-4" d="m99.51,201.35c0,.76-.21,1.49-.59,2.14l-5.42-3.05,4.39-2.47c1,.89,1.61,2.07,1.61,3.37Z"/>
        <path class="cls-4" d="m93.5,200.45l5.42,3.05c-1,1.7-3.13,2.88-5.62,2.88s-4.48-1.1-5.51-2.72l5.71-3.21Z"/>
        <rect class="cls-5" x="87.5" y="178.15" width="11.3" height="5.03"/>
        <path class="cls-4" d="m93.3,196.33c1.82,0,3.46.63,4.59,1.65l-4.39,2.47-4.64-2.6c1.13-.93,2.7-1.51,4.44-1.51Z"/>
        <path class="cls-4" d="m93.5,200.45l-5.71,3.21c-.44-.69-.69-1.48-.69-2.31,0-1.37.68-2.6,1.77-3.51l4.64,2.6Z"/>
        <path class="cls-4" d="m62.78,183.18l26.09,14.66c-1.09.9-1.77,2.14-1.77,3.51,0,.83.25,1.62.69,2.31l-15.35,8.63H30.78l-15.64-8.79c.38-.65.59-1.38.59-2.14,0-1.3-.62-2.48-1.61-3.37l26.33-14.8h22.34Zm-8.52,18.17c0-2.77-2.25-5.02-5.02-5.02s-5.03,2.25-5.03,5.02,2.25,5.03,5.03,5.03,5.02-2.25,5.02-5.03Z"/>
        <polygon class="cls-4" points="87.5 183.18 62.78 183.18 56.99 183.18 56.99 178.15 87.5 178.15 87.5 183.18"/>
        <rect class="cls-5" x="45.68" y="178.15" width="11.3" height="5.03"/>
        <path class="cls-5" d="m49.23,196.33c2.77,0,5.02,2.25,5.02,5.02s-2.25,5.03-5.02,5.03-5.03-2.25-5.03-5.03,2.25-5.02,5.03-5.02Z"/>
        <polygon class="cls-4" points="45.68 183.18 40.44 183.18 15.17 183.18 15.17 178.15 45.68 178.15 45.68 183.18"/>
        <path class="cls-4" d="m30.78,212.29H.24v-6.52l3.76-2.11c1.03,1.61,3.12,2.72,5.51,2.72s4.62-1.18,5.62-2.88l15.64,8.79Z"/>
        <path class="cls-4" d="m15.72,201.35c0,.76-.21,1.49-.59,2.14l-5.42-3.05,4.39-2.47c1,.89,1.61,2.07,1.61,3.37Z"/>
        <rect class="cls-5" x="3.86" y="178.15" width="11.3" height="5.03"/>
        <path class="cls-4" d="m9.72,200.45l5.42,3.05c-1,1.7-3.13,2.88-5.62,2.88s-4.48-1.1-5.51-2.72l5.71-3.21Z"/>
        <path class="cls-4" d="m9.52,196.33c1.82,0,3.46.63,4.59,1.65l-4.39,2.47-4.64-2.6c1.13-.93,2.7-1.51,4.44-1.51Z"/>
        <path class="cls-4" d="m9.72,200.45l-5.71,3.21c-.44-.69-.69-1.48-.69-2.31,0-1.37.68-2.6,1.77-3.51l4.64,2.6Z"/>
        <path class="cls-4" d="m.24,195.13l4.84,2.72c-1.09.9-1.77,2.14-1.77,3.51,0,.83.25,1.62.69,2.31l-3.76,2.11v-10.64Z"/>
        <polygon class="cls-7" points="212.95 178.15 182.44 178.15 171.13 178.15 140.62 178.15 129.32 178.15 98.8 178.15 87.5 178.15 56.99 178.15 45.68 178.15 15.17 178.15 3.86 178.15 .24 178.15 .24 104.33 1.13 104.33 270.06 104.33 270.06 178.15 266.07 178.15 254.77 178.15 224.25 178.15 212.95 178.15"/>
        <path class="cls-4" d="m.24,183.18h40.19l-26.33,14.8c-1.14-1.02-2.77-1.65-4.59-1.65s-3.31.58-4.44,1.51l-4.84-2.72v-11.95Z"/>
      </g>
      <g>
        <polyline class="cls-1" points="270.06 212.29 239.62 212.29 198.15 212.29 156.03 212.29 114.56 212.29 72.44 212.29 30.78 212.29 .24 212.29"/>
        <line class="cls-1" x1=".24" y1="98.57" x2="270.06" y2="98.57"/>
        <line class="cls-1" x1=".24" y1="104.33" x2="270.06" y2="104.33"/>
        <line class="cls-1" x1="266.07" y1="178.15" x2="270.06" y2="178.15"/>
        <line class="cls-1" x1="224.25" y1="178.15" x2="254.77" y2="178.15"/>
        <line class="cls-1" x1="182.44" y1="178.15" x2="212.95" y2="178.15"/>
        <line class="cls-1" x1="140.62" y1="178.15" x2="171.13" y2="178.15"/>
        <line class="cls-1" x1="98.8" y1="178.15" x2="129.32" y2="178.15"/>
        <line class="cls-1" x1="56.99" y1="178.15" x2="87.5" y2="178.15"/>
        <line class="cls-1" x1="15.17" y1="178.15" x2="45.68" y2="178.15"/>
        <line class="cls-1" x1=".24" y1="178.15" x2="3.86" y2="178.15"/>
        <line class="cls-1" x1="266.07" y1="183.18" x2="270.06" y2="183.18"/>
        <polyline class="cls-1" points="224.25 183.18 229.96 183.18 254.77 183.18"/>
        <polyline class="cls-1" points="182.44 183.18 207.81 183.18 212.95 183.18"/>
        <polyline class="cls-1" points="140.62 183.18 146.37 183.18 171.13 183.18"/>
        <polyline class="cls-1" points="98.8 183.18 124.22 183.18 129.32 183.18"/>
        <polyline class="cls-1" points="56.99 183.18 62.78 183.18 87.5 183.18"/>
        <polyline class="cls-1" points="15.17 183.18 40.44 183.18 45.68 183.18"/>
        <line class="cls-1" x1=".24" y1="183.18" x2="3.86" y2="183.18"/>
        <polyline class="cls-1" points="72.44 212.29 87.79 203.66 93.5 200.45 97.89 197.98 124.22 183.18"/>
        <polyline class="cls-1" points="114.56 212.29 98.92 203.49 93.5 200.45 88.86 197.84 62.78 183.18"/>
        <path class="cls-1" d="m139.35,201.35c0,2.78-2.25,5.03-5.02,5.03s-5.03-2.25-5.03-5.03,2.25-5.02,5.03-5.02,5.02,2.25,5.02,5.02Z"/>
        <path class="cls-1" d="m223.99,201.35c0,2.78-2.25,5.03-5.02,5.03s-5.03-2.25-5.03-5.03,2.25-5.02,5.03-5.02,5.02,2.25,5.02,5.02Z"/>
        <path class="cls-1" d="m97.89,197.98c1,.89,1.61,2.07,1.61,3.37,0,.76-.21,1.49-.59,2.14-1,1.7-3.13,2.88-5.62,2.88s-4.48-1.1-5.51-2.72c-.44-.69-.69-1.48-.69-2.31,0-1.37.68-2.6,1.77-3.51,1.13-.93,2.7-1.51,4.44-1.51,1.82,0,3.46.63,4.59,1.65Z"/>
        <polyline class="cls-1" points=".24 205.77 4 203.66 9.72 200.45 14.11 197.98 40.44 183.18"/>
        <polyline class="cls-1" points="30.78 212.29 15.13 203.49 9.72 200.45 5.08 197.84 .24 195.13"/>
        <path class="cls-1" d="m14.11,197.98c1,.89,1.61,2.07,1.61,3.37,0,.76-.21,1.49-.59,2.14-1,1.7-3.13,2.88-5.62,2.88s-4.48-1.1-5.51-2.72c-.44-.69-.69-1.48-.69-2.31,0-1.37.68-2.6,1.77-3.51,1.13-.93,2.7-1.51,4.44-1.51,1.82,0,3.46.63,4.59,1.65Z"/>
        <polyline class="cls-1" points="156.03 212.29 171.38 203.66 177.09 200.45 181.48 197.98 207.81 183.18"/>
        <polyline class="cls-1" points="198.15 212.29 182.51 203.49 177.09 200.45 172.45 197.84 146.37 183.18"/>
        <path class="cls-1" d="m181.48,197.98c1,.89,1.61,2.07,1.61,3.37,0,.76-.21,1.49-.59,2.14-1,1.7-3.13,2.88-5.62,2.88s-4.48-1.1-5.51-2.72c-.44-.69-.69-1.48-.69-2.31,0-1.37.68-2.6,1.77-3.51,1.13-.93,2.7-1.51,4.44-1.51,1.82,0,3.46.63,4.59,1.65Z"/>
        <polyline class="cls-1" points="239.62 212.29 254.97 203.66 260.68 200.45 265.07 197.97 270.06 195.17"/>
        <polyline class="cls-1" points="270.06 205.73 266.1 203.49 260.68 200.45 256.04 197.84 229.96 183.18"/>
        <path class="cls-1" d="m265.07,197.97c1,.89,1.61,2.07,1.61,3.38,0,.76-.21,1.49-.59,2.14-1,1.7-3.13,2.88-5.62,2.88s-4.48-1.1-5.51-2.72c-.44-.69-.69-1.48-.69-2.31,0-1.37.68-2.6,1.77-3.51,1.13-.93,2.7-1.51,4.44-1.51,1.82,0,3.46.63,4.59,1.64Z"/>
        <path class="cls-1" d="m54.25,201.35c0,2.78-2.25,5.03-5.02,5.03s-5.03-2.25-5.03-5.03,2.25-5.02,5.03-5.02,5.02,2.25,5.02,5.02Z"/>
        <rect class="cls-1" x="3.86" y="178.15" width="11.3" height="5.03"/>
        <rect class="cls-1" x="45.68" y="178.15" width="11.3" height="5.03"/>
        <rect class="cls-1" x="87.5" y="178.15" width="11.3" height="5.03"/>
        <rect class="cls-1" x="129.32" y="178.15" width="11.3" height="5.03"/>
        <rect class="cls-1" x="171.13" y="178.15" width="11.3" height="5.03"/>
        <rect class="cls-1" x="212.95" y="178.15" width="11.3" height="5.03"/>
        <rect class="cls-1" x="254.77" y="178.15" width="11.3" height="5.03"/>
      </g>
    </g>
    <g>
      <g>
        <rect class="cls-4" x=".24" y="178.15" width="3.62" height="5.03"/>
        <path class="cls-4" d="m270.06,205.73v6.56h-30.44l15.35-8.63c1.03,1.61,3.11,2.72,5.51,2.72s4.62-1.18,5.62-2.88l3.97,2.23Z"/>
        <path class="cls-4" d="m270.06,195.17v10.56l-3.97-2.23c.38-.65.59-1.38.59-2.14,0-1.3-.62-2.48-1.61-3.38l4.99-2.8Z"/>
        <path class="cls-4" d="m270.06,183.18v11.99l-4.99,2.8c-1.14-1.01-2.77-1.64-4.59-1.64s-3.31.58-4.44,1.51l-26.09-14.66h40.11Z"/>
        <polygon class="cls-4" points="270.06 98.57 270.06 104.33 1.13 104.33 .24 104.33 .24 98.57 270.06 98.57"/>
        <rect class="cls-4" x="266.07" y="178.15" width="3.99" height="5.03"/>
        <path class="cls-4" d="m266.69,201.35c0,.76-.21,1.49-.59,2.14l-5.42-3.05,4.39-2.47c1,.89,1.61,2.07,1.61,3.38Z"/>
        <path class="cls-4" d="m260.68,200.45l5.42,3.05c-1,1.7-3.13,2.88-5.62,2.88s-4.48-1.1-5.51-2.72l5.71-3.21Z"/>
        <rect class="cls-5" x="254.77" y="178.15" width="11.3" height="5.03"/>
        <path class="cls-4" d="m265.07,197.97l-4.39,2.47-4.64-2.6c1.13-.93,2.7-1.51,4.44-1.51,1.82,0,3.46.63,4.59,1.64Z"/>
        <path class="cls-4" d="m260.68,200.45l-5.71,3.21c-.44-.69-.69-1.48-.69-2.31,0-1.37.68-2.6,1.77-3.51l4.64,2.6Z"/>
        <path class="cls-4" d="m229.96,183.18l26.09,14.66c-1.09.9-1.77,2.14-1.77,3.51,0,.83.25,1.62.69,2.31l-15.35,8.63h-41.47l-15.64-8.79c.38-.65.59-1.38.59-2.14,0-1.3-.62-2.48-1.61-3.37l26.33-14.8h22.15Zm-5.96,18.17c0-2.77-2.25-5.02-5.02-5.02s-5.03,2.25-5.03,5.02,2.25,5.03,5.03,5.03,5.02-2.25,5.02-5.03Z"/>
        <polygon class="cls-4" points="254.77 183.18 229.96 183.18 224.25 183.18 224.25 178.15 254.77 178.15 254.77 183.18"/>
        <rect class="cls-5" x="212.95" y="178.15" width="11.3" height="5.03"/>
        <path class="cls-5" d="m218.98,196.33c2.77,0,5.02,2.25,5.02,5.02s-2.25,5.03-5.02,5.03-5.03-2.25-5.03-5.03,2.25-5.02,5.03-5.02Z"/>
        <path class="cls-4" d="m207.81,183.18l-26.33,14.8c-1.14-1.02-2.77-1.65-4.59-1.65s-3.31.58-4.44,1.51l-26.09-14.66h61.45Z"/>
        <polygon class="cls-4" points="182.44 183.18 182.44 178.15 212.95 178.15 212.95 183.18 207.81 183.18 182.44 183.18"/>
        <path class="cls-4" d="m198.15,212.29h-42.12l15.35-8.63c1.03,1.61,3.12,2.72,5.51,2.72s4.62-1.18,5.62-2.88l15.64,8.79Z"/>
        <path class="cls-4" d="m183.1,201.35c0,.76-.21,1.49-.59,2.14l-5.42-3.05,4.39-2.47c1,.89,1.61,2.07,1.61,3.37Z"/>
        <path class="cls-4" d="m177.09,200.45l5.42,3.05c-1,1.7-3.13,2.88-5.62,2.88s-4.48-1.1-5.51-2.72l5.71-3.21Z"/>
        <rect class="cls-5" x="171.13" y="178.15" width="11.3" height="5.03"/>
        <path class="cls-4" d="m176.89,196.33c1.82,0,3.46.63,4.59,1.65l-4.39,2.47-4.64-2.6c1.13-.93,2.7-1.51,4.44-1.51Z"/>
        <path class="cls-4" d="m177.09,200.45l-5.71,3.21c-.44-.69-.69-1.48-.69-2.31,0-1.37.68-2.6,1.77-3.51l4.64,2.6Z"/>
        <path class="cls-4" d="m146.37,183.18l26.09,14.66c-1.09.9-1.77,2.14-1.77,3.51,0,.83.25,1.62.69,2.31l-15.35,8.63h-41.47l-15.64-8.79c.38-.65.59-1.38.59-2.14,0-1.3-.62-2.48-1.61-3.37l26.33-14.8h22.15Zm-7.01,18.17c0-2.77-2.25-5.02-5.02-5.02s-5.03,2.25-5.03,5.02,2.25,5.03,5.03,5.03,5.02-2.25,5.02-5.03Z"/>
        <polygon class="cls-4" points="171.13 183.18 146.37 183.18 140.62 183.18 140.62 178.15 171.13 178.15 171.13 183.18"/>
        <rect class="cls-5" x="129.32" y="178.15" width="11.3" height="5.03"/>
        <path class="cls-5" d="m134.33,196.33c2.77,0,5.02,2.25,5.02,5.02s-2.25,5.03-5.02,5.03-5.03-2.25-5.03-5.03,2.25-5.02,5.03-5.02Z"/>
        <path class="cls-4" d="m124.22,183.18l-26.33,14.8c-1.14-1.02-2.77-1.65-4.59-1.65s-3.31.58-4.44,1.51l-26.09-14.66h61.45Z"/>
        <polygon class="cls-4" points="129.32 183.18 124.22 183.18 98.8 183.18 98.8 178.15 129.32 178.15 129.32 183.18"/>
        <path class="cls-4" d="m114.56,212.29h-42.12l15.35-8.63c1.03,1.61,3.11,2.72,5.51,2.72s4.62-1.18,5.62-2.88l15.64,8.79Z"/>
        <path class="cls-4" d="m99.51,201.35c0,.76-.21,1.49-.59,2.14l-5.42-3.05,4.39-2.47c1,.89,1.61,2.07,1.61,3.37Z"/>
        <path class="cls-4" d="m93.5,200.45l5.42,3.05c-1,1.7-3.13,2.88-5.62,2.88s-4.48-1.1-5.51-2.72l5.71-3.21Z"/>
        <rect class="cls-5" x="87.5" y="178.15" width="11.3" height="5.03"/>
        <path class="cls-4" d="m93.3,196.33c1.82,0,3.46.63,4.59,1.65l-4.39,2.47-4.64-2.6c1.13-.93,2.7-1.51,4.44-1.51Z"/>
        <path class="cls-4" d="m93.5,200.45l-5.71,3.21c-.44-.69-.69-1.48-.69-2.31,0-1.37.68-2.6,1.77-3.51l4.64,2.6Z"/>
        <path class="cls-4" d="m62.78,183.18l26.09,14.66c-1.09.9-1.77,2.14-1.77,3.51,0,.83.25,1.62.69,2.31l-15.35,8.63H30.78l-15.64-8.79c.38-.65.59-1.38.59-2.14,0-1.3-.62-2.48-1.61-3.37l26.33-14.8h22.34Zm-8.52,18.17c0-2.77-2.25-5.02-5.02-5.02s-5.03,2.25-5.03,5.02,2.25,5.03,5.03,5.03,5.02-2.25,5.02-5.03Z"/>
        <polygon class="cls-4" points="87.5 183.18 62.78 183.18 56.99 183.18 56.99 178.15 87.5 178.15 87.5 183.18"/>
        <rect class="cls-5" x="45.68" y="178.15" width="11.3" height="5.03"/>
        <path class="cls-5" d="m49.23,196.33c2.77,0,5.02,2.25,5.02,5.02s-2.25,5.03-5.02,5.03-5.03-2.25-5.03-5.03,2.25-5.02,5.03-5.02Z"/>
        <polygon class="cls-4" points="45.68 183.18 40.44 183.18 15.17 183.18 15.17 178.15 45.68 178.15 45.68 183.18"/>
        <path class="cls-4" d="m30.78,212.29H.24v-6.52l3.76-2.11c1.03,1.61,3.12,2.72,5.51,2.72s4.62-1.18,5.62-2.88l15.64,8.79Z"/>
        <path class="cls-4" d="m15.72,201.35c0,.76-.21,1.49-.59,2.14l-5.42-3.05,4.39-2.47c1,.89,1.61,2.07,1.61,3.37Z"/>
        <rect class="cls-5" x="3.86" y="178.15" width="11.3" height="5.03"/>
        <path class="cls-4" d="m9.72,200.45l5.42,3.05c-1,1.7-3.13,2.88-5.62,2.88s-4.48-1.1-5.51-2.72l5.71-3.21Z"/>
        <path class="cls-4" d="m9.52,196.33c1.82,0,3.46.63,4.59,1.65l-4.39,2.47-4.64-2.6c1.13-.93,2.7-1.51,4.44-1.51Z"/>
        <path class="cls-4" d="m9.72,200.45l-5.71,3.21c-.44-.69-.69-1.48-.69-2.31,0-1.37.68-2.6,1.77-3.51l4.64,2.6Z"/>
        <path class="cls-4" d="m.24,195.13l4.84,2.72c-1.09.9-1.77,2.14-1.77,3.51,0,.83.25,1.62.69,2.31l-3.76,2.11v-10.64Z"/>
        <polygon class="cls-7" points="212.95 178.15 182.44 178.15 171.13 178.15 140.62 178.15 129.32 178.15 98.8 178.15 87.5 178.15 56.99 178.15 45.68 178.15 15.17 178.15 3.86 178.15 .24 178.15 .24 104.33 1.13 104.33 270.06 104.33 270.06 178.15 266.07 178.15 254.77 178.15 224.25 178.15 212.95 178.15"/>
        <path class="cls-4" d="m.24,183.18h40.19l-26.33,14.8c-1.14-1.02-2.77-1.65-4.59-1.65s-3.31.58-4.44,1.51l-4.84-2.72v-11.95Z"/>
      </g>
      <g>
        <polyline class="cls-1" points="270.06 212.29 239.62 212.29 198.15 212.29 156.03 212.29 114.56 212.29 72.44 212.29 30.78 212.29 .24 212.29"/>
        <line class="cls-1" x1=".24" y1="98.57" x2="270.06" y2="98.57"/>
        <line class="cls-1" x1=".24" y1="104.33" x2="270.06" y2="104.33"/>
        <line class="cls-1" x1="266.07" y1="178.15" x2="270.06" y2="178.15"/>
        <line class="cls-1" x1="224.25" y1="178.15" x2="254.77" y2="178.15"/>
        <line class="cls-1" x1="182.44" y1="178.15" x2="212.95" y2="178.15"/>
        <line class="cls-1" x1="140.62" y1="178.15" x2="171.13" y2="178.15"/>
        <line class="cls-1" x1="98.8" y1="178.15" x2="129.32" y2="178.15"/>
        <line class="cls-1" x1="56.99" y1="178.15" x2="87.5" y2="178.15"/>
        <line class="cls-1" x1="15.17" y1="178.15" x2="45.68" y2="178.15"/>
        <line class="cls-1" x1=".24" y1="178.15" x2="3.86" y2="178.15"/>
        <line class="cls-1" x1="266.07" y1="183.18" x2="270.06" y2="183.18"/>
        <polyline class="cls-1" points="224.25 183.18 229.96 183.18 254.77 183.18"/>
        <polyline class="cls-1" points="182.44 183.18 207.81 183.18 212.95 183.18"/>
        <polyline class="cls-1" points="140.62 183.18 146.37 183.18 171.13 183.18"/>
        <polyline class="cls-1" points="98.8 183.18 124.22 183.18 129.32 183.18"/>
        <polyline class="cls-1" points="56.99 183.18 62.78 183.18 87.5 183.18"/>
        <polyline class="cls-1" points="15.17 183.18 40.44 183.18 45.68 183.18"/>
        <line class="cls-1" x1=".24" y1="183.18" x2="3.86" y2="183.18"/>
        <polyline class="cls-1" points="72.44 212.29 87.79 203.66 93.5 200.45 97.89 197.98 124.22 183.18"/>
        <polyline class="cls-1" points="114.56 212.29 98.92 203.49 93.5 200.45 88.86 197.84 62.78 183.18"/>
        <path class="cls-1" d="m139.35,201.35c0,2.78-2.25,5.03-5.02,5.03s-5.03-2.25-5.03-5.03,2.25-5.02,5.03-5.02,5.02,2.25,5.02,5.02Z"/>
        <path class="cls-1" d="m223.99,201.35c0,2.78-2.25,5.03-5.02,5.03s-5.03-2.25-5.03-5.03,2.25-5.02,5.03-5.02,5.02,2.25,5.02,5.02Z"/>
        <path class="cls-1" d="m97.89,197.98c1,.89,1.61,2.07,1.61,3.37,0,.76-.21,1.49-.59,2.14-1,1.7-3.13,2.88-5.62,2.88s-4.48-1.1-5.51-2.72c-.44-.69-.69-1.48-.69-2.31,0-1.37.68-2.6,1.77-3.51,1.13-.93,2.7-1.51,4.44-1.51,1.82,0,3.46.63,4.59,1.65Z"/>
        <polyline class="cls-1" points=".24 205.77 4 203.66 9.72 200.45 14.11 197.98 40.44 183.18"/>
        <polyline class="cls-1" points="30.78 212.29 15.13 203.49 9.72 200.45 5.08 197.84 .24 195.13"/>
        <path class="cls-1" d="m14.11,197.98c1,.89,1.61,2.07,1.61,3.37,0,.76-.21,1.49-.59,2.14-1,1.7-3.13,2.88-5.62,2.88s-4.48-1.1-5.51-2.72c-.44-.69-.69-1.48-.69-2.31,0-1.37.68-2.6,1.77-3.51,1.13-.93,2.7-1.51,4.44-1.51,1.82,0,3.46.63,4.59,1.65Z"/>
        <polyline class="cls-1" points="156.03 212.29 171.38 203.66 177.09 200.45 181.48 197.98 207.81 183.18"/>
        <polyline class="cls-1" points="198.15 212.29 182.51 203.49 177.09 200.45 172.45 197.84 146.37 183.18"/>
        <path class="cls-1" d="m181.48,197.98c1,.89,1.61,2.07,1.61,3.37,0,.76-.21,1.49-.59,2.14-1,1.7-3.13,2.88-5.62,2.88s-4.48-1.1-5.51-2.72c-.44-.69-.69-1.48-.69-2.31,0-1.37.68-2.6,1.77-3.51,1.13-.93,2.7-1.51,4.44-1.51,1.82,0,3.46.63,4.59,1.65Z"/>
        <polyline class="cls-1" points="239.62 212.29 254.97 203.66 260.68 200.45 265.07 197.97 270.06 195.17"/>
        <polyline class="cls-1" points="270.06 205.73 266.1 203.49 260.68 200.45 256.04 197.84 229.96 183.18"/>
        <path class="cls-1" d="m265.07,197.97c1,.89,1.61,2.07,1.61,3.38,0,.76-.21,1.49-.59,2.14-1,1.7-3.13,2.88-5.62,2.88s-4.48-1.1-5.51-2.72c-.44-.69-.69-1.48-.69-2.31,0-1.37.68-2.6,1.77-3.51,1.13-.93,2.7-1.51,4.44-1.51,1.82,0,3.46.63,4.59,1.64Z"/>
        <path class="cls-1" d="m54.25,201.35c0,2.78-2.25,5.03-5.02,5.03s-5.03-2.25-5.03-5.03,2.25-5.02,5.03-5.02,5.02,2.25,5.02,5.02Z"/>
        <rect class="cls-1" x="3.86" y="178.15" width="11.3" height="5.03"/>
        <rect class="cls-1" x="45.68" y="178.15" width="11.3" height="5.03"/>
        <rect class="cls-1" x="87.5" y="178.15" width="11.3" height="5.03"/>
        <rect class="cls-1" x="129.32" y="178.15" width="11.3" height="5.03"/>
        <rect class="cls-1" x="171.13" y="178.15" width="11.3" height="5.03"/>
        <rect class="cls-1" x="212.95" y="178.15" width="11.3" height="5.03"/>
        <rect class="cls-1" x="254.77" y="178.15" width="11.3" height="5.03"/>
      </g>
    </g>
  </g>
  <g id="_レイヤー_2" data-name="レイヤー 2">
    <g>
      <g>
        <path class="cls-3" d="m229.57,150.75c.04.3.06.53.06.68-.05.21-.11.43-.21.66-.83,1.29-4.05,2.1-7.1,2.01-6.31,0-18.83,1.24-27.36,3.13h0c-1.17-2.17-1.3-7.86-1.3-7.86,1.46-.16,2.73-.28,3.65-.33,5.03-.3,24.45.15,27.67.59,2.52.35,4.17.46,4.59,1.13Z"/>
        <path class="cls-9" d="m157.39,139.32c-1.31-.45-3.37-.1-4.78.84-.49.33-1.85,1.06-3.6,1.95-5.28,2.73-14.2,7.06-14.2,7.06,0,0,0,0,0-.02-.23-.68-6.27-18.05-9.12-26.19-.29-.81-.54-1.53-.76-2.13-.34-.96-.57-1.62-.68-1.89-.71-1.87,1.65-4.82,4.89-7.74.49-.45,1.01-.89,1.54-1.34.44-.37.89-.7,1.35-.99h0c3.65-2.38,7.73-2.44,11.84-1.55,4.61.99,13.85,7.57,27.29,11.62,10.1,3.05,23.27,3.73,31.84,3.94,2.84.08,5.18.1,6.73.13,6.21.15,10.63,3.7,15.25,7.02,1.72,6.96,4.18,17.62,4.59,20.7-.43-.67-2.07-.78-4.59-1.13-3.21-.44-22.64-.89-27.67-.59-.93.05-2.2.17-3.65.33-4.54.5-10.99,1.38-15.25,1.8-1.74.17-3.12.27-3.85.23-3.11-.15-15.06-2.21-15.06-2.21,0,0-.3-7.24-.95-8.86-.18-.46-.57-.78-1.09-.96l-.05-.03Z"/>
        <path class="cls-8" d="m231.18,114.42c-2.1,6.2-6.21,15.63-6.21,15.63-4.62-3.32-9.05-6.88-15.25-7.02-1.55-.03-3.89-.05-6.73-.13.3-2.64-6.87-15.68-9.91-20.12.23.18.45.3.63.34,18.73.44,36.13,8.32,37.46,11.31Z"/>
        <path class="cls-9" d="m132.01,108.87h0c-.46.3-.91.63-1.35,1-.53.44-1.04.89-1.54,1.34h0c-2.55-5.76-3.55-12.41-3.99-22.28-.44-9.86,7.09-18.4,10.64-24.49,0,0,.22-2.44-1.22-4.44-1.44.78-10.42,3.66-16.51,0-2.39-1.42-4.26-4.28-5.76-7.64-1.83-4.11-3.09-8.99-4-12.88-.25-1.04-.47-2.01-.67-2.88,3.76-.95,6.59-1.52,7.43-1.47.16,0,.25.03.26.09,0,0,.13,1.68.32,3.69.2,2.07.48,4.51.76,5.92.55,2.77,3.49,14.27,17.73,10.78,2.37.57,4.93.69,6.43.74,2.42.08,6.63-2.69,9.68-6.07,5.5,2.19,14.37,4.74,19.13,13.5,4.53,8.32,19.16,35.54,23.74,39,3.04,4.44,10.2,17.48,9.91,20.12-8.57-.21-21.75-.89-31.84-3.94-13.45-4.05-22.68-10.63-27.29-11.62-4.11-.89-8.19-.82-11.84,1.55Z"/>
        <path class="cls-3" d="m194.95,157.21h0c-.3.07-.6.14-.89.21-.43.1-.88.2-1.34.3-2.97-3.13-14.32-6.56-14.32-6.56,4.26-.42,10.71-1.29,15.25-1.8,0,0,.13,5.69,1.3,7.85Z"/>
        <path class="cls-3" d="m178.4,151.16s11.35,3.43,14.32,6.56c-8.5,1.87-20.44,3.44-23.38,3.02,3.66-.79,9.05-9.58,9.05-9.58Z"/>
        <path class="cls-9" d="m178.4,151.16s-5.39,8.79-9.05,9.58c-5.21,1.55-10.09,1.47-14.41.07-2.74-.89-5.79-1.39-7.66-1.64h-.02c-.52-.08-.95-.12-1.24-.16,0,0-.03,0-.03,0-4.89-1.06-14.18-7.47-22.95-14.35,3.36-2.5,5.69-4.42,5.97-4.65.67-.55,1.44,1.97,2.77,3.99,1.74,2.63,2.91,4.93,3.02,5.16,0,0,0,.02,0,.02,0,0,14.65.18,17.64,0,1.52-.1,3.31-.09,4.71-.07,1.35.03,2.34.07,2.34.07,0,0,11.95,2.07,15.06,2.21.74.03,2.11-.06,3.85-.23Z"/>
        <path class="cls-3" d="m158.54,140.31c.65,1.62.95,8.86.95,8.86,0,0-.98-.04-2.34-.07v-.02c-2.86-.17-8.14-6.97-8.14-6.97,1.75-.89,3.11-1.62,3.6-1.95,1.42-.95,3.47-1.29,4.78-.84l.05.03c.52.18.91.5,1.09.96Z"/>
        <path class="cls-5" d="m157.41,2.81c1.26.74,1.48,2.52.59,3.85s-3.69,4.72-3.69,4.72c0,0,3.1,1.78,3.39,2.37s0,1.62-.89,1.7l-.89.07c1.18,3.99,1.03,7.27.74,8.91-.3,1.62-5.83.84-7.54-.49s-5.5-5.13-5.5-5.13c-2.07,4.36-10.3,12.96-10.3,12.96-1.41-2.51-.82-5.83-3.26-4.95s-2.44,5.84-2.59,6.65c-.15.82.45,1.77,1.55,2.07.21.05.36.09.46.1-.67,1.22-1.74,2.27-2.9,2.34-1.18.08-5.02-1.99-6.35-1.18-1.33.82-3.87,2.03-3.87,2.03v-2.05s3.54-2.33,5.43-2.38c1.88-.06,3.44-.28,3.44-.28-.23-2.83-.83-6.65.66-8.48,1.5-1.83,7.6-7.65,8.71-8.86,1.1-1.22,2.6-1.72,2.49-4.11-.11-2.38-.43-3.43-.55-3.93-.12-.49-.78-.49-1.94.56s-15.96,13.74-19.23,24.99c-.06.26-.18.34-.31.34-.23,0-.5-.27-.5-.27,3.7-12.86,18.92-32.06,25.71-33.69,4.72-1.33,5.91,5.62,5.91,5.62,0,0,1.84-.07,2.73-.66.89-.59,2.8-2.88,3.39-3.18s3.85-.37,5.1.36Zm-16.27,5.43c.22-.5-.06-2.88-.44-2.94-.39-.05-1.16.56-2.05,1.34,0,0,2.27,2.1,2.49,1.61Z"/>
        <path class="cls-3" d="m157.15,149.09v.02c-1.4-.02-3.19-.03-4.71.07-3,.18-17.64,0-17.64,0,0,0,8.92-4.33,14.2-7.06,0,0,5.29,6.8,8.14,6.97Z"/>
        <path class="cls-6" d="m134.1,55.6c-14.24,3.49-17.18-8.01-17.73-10.78-.28-1.41-.56-3.85-.76-5.92l.76-.07s2.54-1.22,3.87-2.03c1.34-.81,5.17,1.26,6.35,1.18,1.15-.07,2.23-1.12,2.9-2.34.45.09.06-.1.06-.1-.02.03-.03.07-.06.1-.1-.02-.25-.05-.46-.1-1.1-.3-1.7-1.25-1.55-2.07.15-.81.15-5.76,2.59-6.65s1.85,2.44,3.26,4.95c0,0,8.24-8.6,10.3-12.96,0,0,3.8,3.8,5.5,5.13s7.24,2.11,7.54.49c.38,1.15.21,4.11-.26,7.55-.66,4.89-1.93,10.7-3.03,13.5-.63,1.58-1.78,3.26-3.17,4.79-3.05,3.38-7.26,6.15-9.68,6.07-1.5-.04-4.06-.16-6.43-.74Z"/>
        <path class="cls-8" d="m145.98,159.01c-.3-.03-.47-.05-.47-.05-7.42.78-16.29-.44-23.16-1.55-6.88-1.11-15.74-2.22-15.74-2.22,5.69-2.85,11.96-7.21,16.42-10.53,8.78,6.88,18.07,13.29,22.95,14.35Z"/>
        <path class="cls-9" d="m134.54,60c1.44,2,1.22,4.44,1.22,4.44-3.55,6.09-11.09,14.63-10.64,24.49.44,9.87,1.44,16.52,3.99,22.28h0c-3.24,2.93-5.6,5.89-4.89,7.75.1.27.34.93.68,1.89-7.56-.23-12.75-1.22-16.59-2.61-5.68-2.05-8.39-4.94-11.41-7.42,1.35-1.13,2.44-2.07,3.16-2.71,4.98-4.44,11.75-10.81,11.75-10.81.3.02.59.04.88.06,1.34-3.32,1.55-25.03-1.88-28.24-1.32-1.24-3.45-1.81-5.87-1.84,0-1.6,4.32-12.26,7.32-14.91,1.49,3.36,3.37,6.22,5.76,7.64,6.09,3.66,15.07.78,16.51,0Z"/>
        <path class="cls-9" d="m134.79,149.16c-.11-.23-1.28-2.53-3.02-5.16-1.33-2.02-2.1-4.54-2.77-3.99-.29.23-2.61,2.15-5.97,4.65-4.45,3.32-10.72,7.68-16.42,10.53-6.87.44-10.75,1.55-15.18-4.43-2.01-2.33-8.86-16.32-11.16-16.95,5.89-.03,17.88-1.04,26.23-3.72,8.5-2.72,19.17-7.13,19.17-7.13,2.86,8.14,8.89,25.51,9.12,26.19Z"/>
        <path class="cls-9" d="m124.91,120.84c.22.6.47,1.32.76,2.13,0,0-10.67,4.41-19.17,7.13-8.34,2.67-20.33,3.68-26.23,3.72-.11-.03-.22-.03-.3,0-1.58.6-6.27,8.64-11.26,12.08-11.19-2.21-20.61-7.87-20.61-7.87,6.21-.34,17.18-3.32,20.95-5.32,2.31-1.22,11.6-8.54,19.58-15.04h0c.36.08,10.7,2.32,19.64.71l.05-.14c3.84,1.39,9.03,2.39,16.59,2.61Z"/>
        <path class="cls-9" d="m84.01,95.8s5.98,5.32,7.76,5.65l.47.53c-3.79,4.85-10.89,11.91-22.86,17.31-20.18,9.09-35.91,17.18-35.91,17.18-2.11-4.54-1-13.41-1-13.41.33-5.21,2.47-19.12,15.07-35.24,2.11-2.11,3.99-5.88,3.54-8.2-.44-2.33,1.55-5.21,3-7.42.35-.53,1.68-2.04,3.57-4.08,0,0,4.19,6.41,6.08,7.62,1.88,1.22,19.17,2.8,21.83,1.93.09.02.12.02.12,0l.47.4c2.75-3.23,5.17-5.93,6.83-7.07,3.47-2.38,8.11-3.76,11.97-3.72,2.42.03,4.55.6,5.87,1.84,3.44,3.21,3.22,24.91,1.88,28.24-.29-.02-.58-.04-.88-.06-4.53-.3-10.63-.63-15.96-.9-6.5-.34-11.86-.59-11.86-.59Z"/>
        <path class="cls-9" d="m108.27,39.47c.91,3.9,2.17,8.77,4,12.88-3,2.66-7.32,13.32-7.32,14.91-3.86-.03-8.5,1.35-11.97,3.72-1.66,1.14-4.08,3.84-6.83,7.07l-.47-.4s-.03-.03-.1-.07c.1-.48.72-3.39,1.41-6.6.62-2.85,1.28-5.95,1.68-7.78.89-4.11,11.86-17.07,19.61-23.74Z"/>
        <path class="cls-9" d="m108.32,118.23l-.05.14c-8.93,1.61-19.27-.63-19.64-.71,3.13-2.55,6.06-4.97,8.28-6.85,3.01,2.48,5.73,5.37,11.41,7.42Z"/>
        <path class="cls-3" d="m111.83,97.29s-6.77,6.37-11.75,10.81c-.72.64-1.81,1.58-3.16,2.71-2.22,1.88-5.15,4.3-8.28,6.85h0c-7.98,6.5-17.27,13.82-19.58,15.04-3.77,2-14.74,4.98-20.95,5.32-10.3-.44-14.63-1.55-14.63-1.55,0,0,15.73-8.09,35.91-17.18,11.97-5.4,19.06-12.46,22.86-17.31,2.59-3.31,3.63-5.59,3.63-5.59,5.33.28,11.43.61,15.96.9Z"/>
        <path class="cls-9" d="m86.99,71c-.69,3.21-1.3,6.12-1.41,6.6-.74-.36-5.17-1.96-7.78-3.19-3-1.42-12.76-14.1-12.76-14.1,5.4-5.61,11.14-11.43,13.09-13.27,3.08-2.9,19.52-7.95,29.47-10.44.2.87.42,1.84.67,2.88-7.75,6.68-18.73,19.64-19.61,23.74-.4,1.83-1.06,4.93-1.68,7.78Z"/>
        <path class="cls-3" d="m84.01,95.8s5.36.25,11.86.59c0,0-1.04,2.28-3.63,5.59l-.47-.53c-1.78-.33-7.76-5.65-7.76-5.65Z"/>
        <path class="cls-9" d="m85.58,77.59s-.02.07-.02.07c-2.67.87-19.95-.7-21.83-1.93-1.88-1.22-6.08-7.62-6.08-7.62,2.01-2.18,4.65-4.97,7.39-7.8,0,0,9.76,12.68,12.76,14.1,2.6,1.22,7.04,2.82,7.78,3.19Z"/>
        <path class="cls-3" d="m80.28,133.81c2.29.63,9.14,14.63,11.16,16.95-8.53-.78-18.4-4.11-22.72-4.88,4.99-3.44,9.68-11.48,11.26-12.08h.3Z"/>
        <path class="cls-8" d="m47.55,87.82c-12.6,16.12-14.74,30.03-15.07,35.24-4.21-5.31-7.65-13.63-6.76-18.51.89-4.87,3.65-15.51,21.83-16.73Z"/>
      </g>
      <g>
        <path class="cls-2" d="m129.5,35.65c-.67,1.22-1.74,2.27-2.9,2.34-1.18.08-5.02-1.99-6.35-1.18-1.33.82-3.87,2.03-3.87,2.03v-2.05s3.54-2.33,5.43-2.38c1.88-.06,3.44-.28,3.44-.28-.23-2.83-.83-6.65.66-8.48,1.5-1.83,7.6-7.65,8.71-8.86,1.1-1.22,2.6-1.72,2.49-4.11-.11-2.38-.43-3.43-.55-3.93-.12-.49-.78-.49-1.94.56s-15.96,13.74-19.23,24.99c-.06.26-.18.34-.31.34-.23,0-.5-.27-.5-.27,3.7-12.86,18.92-32.06,25.71-33.69,4.72-1.33,5.91,5.62,5.91,5.62,0,0,1.84-.07,2.73-.66.89-.59,2.8-2.88,3.39-3.18s3.85-.37,5.1.36c1.26.74,1.48,2.52.59,3.85s-3.69,4.72-3.69,4.72c0,0,3.1,1.78,3.39,2.37s0,1.62-.89,1.7l-.89.07c1.18,3.99,1.03,7.27.74,8.91-.3,1.62-5.83.84-7.54-.49s-5.5-5.13-5.5-5.13c-2.07,4.36-10.3,12.96-10.3,12.96-1.41-2.51-.82-5.83-3.26-4.95s-2.44,5.84-2.59,6.65c-.15.82.45,1.77,1.55,2.07.21.05.36.09.46.1"/>
        <path class="cls-2" d="m129.5,35.65c.45.09.06-.1.06-.1-.02.03-.03.07-.06.1Z"/>
        <path class="cls-2" d="m156.67,24.43c.38,1.15.21,4.11-.26,7.55-.66,4.89-1.93,10.7-3.03,13.5-.63,1.58-1.78,3.26-3.17,4.79-3.05,3.38-7.26,6.15-9.68,6.07-1.5-.04-4.06-.16-6.43-.74-2.1-.49-4.05-1.35-4.98-2.8"/>
        <path class="cls-2" d="m136.55,34.85s4.59.22,6.45,2.1"/>
        <path class="cls-2" d="m149.61,38.06s4.06.21,4.77.77"/>
        <path class="cls-2" d="m149.61,34.85s-.44,10.86-.77,11.19-4.1,0-4.98,0"/>
        <path class="cls-2" d="m139.56,51.02s.42,1.11,1.74,1.34"/>
        <path class="cls-2" d="m139.56,28.3s5.07.23,6.07.89"/>
        <path class="cls-2" d="m152.61,31.41s3.8.32,3.8.57"/>
        <path class="cls-2" d="m145.98,159.01c-.3-.03-.47-.05-.47-.05-7.42.78-16.29-.44-23.16-1.55-6.88-1.11-15.74-2.22-15.74-2.22-6.87.44-10.75,1.55-15.18-4.43-8.53-.78-18.4-4.11-22.72-4.88-11.19-2.21-20.61-7.87-20.61-7.87-10.3-.44-14.63-1.55-14.63-1.55-2.11-4.54-1-13.41-1-13.41-4.21-5.31-7.65-13.63-6.76-18.51.89-4.87,3.65-15.51,21.83-16.73,2.11-2.11,3.99-5.88,3.54-8.2-.44-2.33,1.55-5.21,3-7.42.35-.53,1.68-2.04,3.57-4.08,2.01-2.18,4.65-4.97,7.39-7.8,5.4-5.61,11.14-11.43,13.09-13.27,3.08-2.9,19.52-7.95,29.47-10.44,3.76-.95,6.59-1.52,7.43-1.47.16,0,.25.03.26.09,0,0,.13,1.68.32,3.69.2,2.07.48,4.51.76,5.92.55,2.77,3.49,14.27,17.73,10.78h.02"/>
        <path class="cls-2" d="m147.26,159.17c-.52-.08-.95-.12-1.24-.16"/>
        <path class="cls-2" d="m150.21,50.27c5.5,2.19,14.37,4.74,19.13,13.5,4.53,8.32,19.16,35.54,23.74,39,.23.18.45.3.63.34,18.73.44,36.13,8.32,37.46,11.31-2.1,6.2-6.21,15.63-6.21,15.63,1.72,6.96,4.18,17.62,4.59,20.7.04.3.06.53.06.68,0,.23-.07.45-.21.66-.83,1.29-4.05,2.1-7.1,2.01-6.31,0-18.83,1.24-27.36,3.13-.3.06-.6.13-.89.2-.43.1-.88.2-1.34.3-8.5,1.87-20.44,3.44-23.38,3.02-5.21,1.55-10.09,1.47-14.41.07-2.74-.89-5.79-1.39-7.66-1.64"/>
        <path class="cls-2" d="m107.6,36.59c.2.87.42,1.84.67,2.88.91,3.9,2.17,8.77,4,12.88,1.49,3.36,3.37,6.22,5.76,7.64,6.09,3.66,15.07.78,16.51,0,1.44,2,1.22,4.44,1.22,4.44-3.55,6.09-11.09,14.63-10.64,24.49.44,9.87,1.44,16.52,3.99,22.28"/>
        <path class="cls-2" d="m132.01,108.88c.03.15.06.3.09.43"/>
        <path class="cls-2" d="m153.72,56.34s-14.3,17.62-18.18,29.37c-3.75,11.35-4.26,18.86-3.52,23.16"/>
        <path class="cls-2" d="m143.86,79.84l8.14-9.87,1.16,9.31c-6.65,2.1-16.38,9.75-16.62,17.73-.23,7.98,0,9.42,0,9.42"/>
        <path class="cls-2" d="m143.86,99.12s5.31-12.08,20.17-18.07"/>
        <path class="cls-2" d="m65.04,60.31s9.76,12.68,12.76,14.1c2.6,1.22,7.04,2.82,7.78,3.19.07.03.1.06.1.07,0,.02-.03.02-.12,0-2.67.87-19.95-.7-21.83-1.93-1.88-1.22-6.08-7.62-6.08-7.62"/>
        <path class="cls-2" d="m85.22,55.79l1.34-6.75h-1.78l-7.31,7.31s8.85,12.33,9.51,14.65"/>
        <path class="cls-2" d="m108.27,39.47c-7.75,6.68-18.73,19.64-19.61,23.74-.4,1.83-1.06,4.93-1.68,7.78-.69,3.21-1.3,6.12-1.41,6.6,0,.04-.02.07-.02.07"/>
        <path class="cls-2" d="m40.78,107.33c7.09-1.34,23.64-7.87,30.88-13.64,4.51-3.59,9.96-10.32,14.49-15.63,2.75-3.23,5.17-5.93,6.83-7.07,3.47-2.38,8.11-3.76,11.97-3.72,2.42.03,4.55.6,5.87,1.84,3.44,3.21,3.22,24.91,1.88,28.24-.29-.02-.58-.04-.88-.06-4.53-.3-10.63-.63-15.96-.9-6.5-.34-11.86-.59-11.86-.59,7.21-6.65,16.74-16.18,17.74-20.72"/>
        <path class="cls-2" d="m112.27,52.36c-3,2.66-7.32,13.32-7.32,14.91"/>
        <path class="cls-2" d="m84.01,95.8s5.98,5.32,7.76,5.65"/>
        <path class="cls-2" d="m95.87,96.39s-1.04,2.28-3.63,5.59c-3.79,4.85-10.89,11.91-22.86,17.31-20.18,9.09-35.91,17.18-35.91,17.18"/>
        <path class="cls-2" d="m88.64,117.66c3.13-2.55,6.06-4.97,8.28-6.85,1.35-1.13,2.44-2.07,3.16-2.71,4.98-4.44,11.75-10.81,11.75-10.81"/>
        <path class="cls-2" d="m48.1,138.02c6.21-.34,17.18-3.32,20.95-5.32,2.31-1.22,11.6-8.54,19.58-15.04"/>
        <path class="cls-2" d="m96.92,110.81c3.01,2.48,5.73,5.37,11.41,7.42,3.84,1.39,9.03,2.39,16.59,2.61"/>
        <path class="cls-2" d="m88.63,117.66h0c.36.08,10.7,2.32,19.64.71"/>
        <path class="cls-2" d="m157.44,139.35c.52.18.91.5,1.09.96.65,1.62.95,8.86.95,8.86,0,0,11.95,2.07,15.06,2.21.74.03,2.11-.06,3.85-.23,4.26-.42,10.71-1.29,15.25-1.8,1.46-.16,2.73-.28,3.65-.33,5.03-.3,24.45.15,27.67.59,2.52.35,4.17.46,4.59,1.13.11.17.14.4.06.68-.05.21-.11.43-.21.66-.44,1.09-1.69,2.27-7.1,2.01"/>
        <path class="cls-2" d="m134.8,149.18s8.92-4.33,14.2-7.06c1.75-.89,3.11-1.62,3.6-1.95,1.42-.95,3.47-1.29,4.78-.84"/>
        <path class="cls-2" d="m224.97,130.04c-4.62-3.32-9.05-6.88-15.25-7.02-1.55-.03-3.89-.05-6.73-.13-8.57-.21-21.75-.89-31.84-3.94-13.45-4.05-22.68-10.63-27.29-11.62-4.11-.89-8.19-.82-11.84,1.55h0c-.46.3-.91.63-1.35,1-.53.44-1.04.89-1.54,1.34-3.24,2.93-5.6,5.88-4.89,7.74.1.27.34.93.68,1.89.22.6.47,1.32.76,2.13,2.86,8.14,8.89,25.51,9.12,26.19"/>
        <path class="cls-2" d="m178.4,151.16s-5.39,8.79-9.05,9.58"/>
        <path class="cls-2" d="m178.4,151.16s11.35,3.43,14.32,6.56"/>
        <path class="cls-2" d="m193.65,149.36s.13,5.69,1.3,7.85"/>
        <path class="cls-2" d="m149,142.12s5.29,6.8,8.14,6.97"/>
        <path class="cls-2" d="m130.56,120.84s10.01,10.3,18.45,14.41c6.86,3.32,8.14,3.95,8.39,4.07l.05.03"/>
        <path class="cls-2" d="m162.5,115.82c8.06-.42,20.03-.42,27.56-1.74"/>
        <path class="cls-2" d="m193.09,102.77c3.04,4.44,10.2,17.48,9.91,20.12"/>
        <path class="cls-2" d="m68.71,145.89c4.99-3.44,9.68-11.48,11.26-12.08.09-.03.19-.03.3,0,2.29.63,9.14,14.63,11.16,16.95"/>
        <path class="cls-2" d="m79.97,133.81h.3c5.89-.03,17.88-1.04,26.23-3.72,8.5-2.72,19.17-7.13,19.17-7.13"/>
        <path class="cls-2" d="m106.61,155.19c5.69-2.85,11.96-7.21,16.42-10.53,3.36-2.5,5.69-4.42,5.97-4.65.67-.55,1.44,1.97,2.77,3.99,1.74,2.63,2.91,4.93,3.02,5.16,0,0,0,.02,0,.02,0,0,14.65.18,17.64,0,1.52-.1,3.31-.09,4.71-.07,1.35.03,2.34.07,2.34.07"/>
        <path class="cls-2" d="m123.03,144.66c8.78,6.88,18.07,13.29,22.95,14.35,0,0,.03,0,.03,0,.45.1.87.16,1.24.16h.02"/>
        <path class="cls-2" d="m32.48,123.06c.33-5.21,2.47-19.12,15.07-35.24"/>
        <path class="cls-2" d="m138.65,6.64c.89-.78,1.66-1.39,2.05-1.34.38.06.66,2.44.44,2.94-.23.49-2.49-1.61-2.49-1.61Z"/>
      </g>
    </g>
  </g>
</svg>