<?xml version="1.0" encoding="UTF-8"?>
<svg id="_レイヤー_2" data-name="レイヤー 2" xmlns="http://www.w3.org/2000/svg" xmlns:xlink="http://www.w3.org/1999/xlink" viewBox="0 0 271.81 192.4">
  <defs>
    <style>
      .cls-1 {
        stroke-miterlimit: 10;
      }

      .cls-1, .cls-2, .cls-3 {
        fill: none;
      }

      .cls-1, .cls-3 {
        stroke: #000;
      }

      .cls-4 {
        fill: #f3edd7;
      }

      .cls-4, .cls-2, .cls-5, .cls-6, .cls-7, .cls-8, .cls-9, .cls-10, .cls-11, .cls-12 {
        stroke-width: 0px;
      }

      .cls-3 {
        stroke-linecap: round;
        stroke-linejoin: round;
      }

      .cls-5 {
        fill: #333;
      }

      .cls-6 {
        fill: #fffcd6;
      }

      .cls-13 {
        clip-path: url(#clippath);
      }

      .cls-7 {
        fill: #fdfcde;
      }

      .cls-8 {
        fill: #d2d296;
      }

      .cls-9 {
        fill: #fe3928;
      }

      .cls-10 {
        fill: #daace5;
      }

      .cls-11 {
        fill: #feffd7;
      }

      .cls-12 {
        fill: #dccd4e;
      }
    </style>
    <clipPath id="clippath">
      <rect class="cls-2" x=".24" width="269.84" height="191.9"/>
    </clipPath>
  </defs>
  <g class="cls-13">
    <g>
      <g>
        <rect class="cls-4" x=".24" y="157.76" width="3.62" height="5.03"/>
        <path class="cls-4" d="m270.08,185.34v6.56h-30.45l15.35-8.63c1.03,1.61,3.11,2.72,5.51,2.72s4.62-1.18,5.62-2.88l3.97,2.23Z"/>
        <path class="cls-4" d="m270.08,174.78v10.56l-3.97-2.23c.38-.65.59-1.38.59-2.14,0-1.3-.62-2.48-1.61-3.38l4.99-2.8Z"/>
        <path class="cls-4" d="m270.08,162.79v11.99l-4.99,2.8c-1.14-1.01-2.77-1.64-4.59-1.64s-3.31.58-4.44,1.51l-26.09-14.66h40.11Z"/>
        <polygon class="cls-4" points="270.08 83.95 270.08 89.72 1.13 89.72 .24 89.72 .24 83.95 270.08 83.95"/>
        <rect class="cls-4" x="266.09" y="157.76" width="3.99" height="5.03"/>
        <path class="cls-4" d="m266.71,180.96c0,.76-.21,1.49-.59,2.14l-5.42-3.05,4.39-2.47c1,.89,1.61,2.07,1.61,3.38Z"/>
        <path class="cls-4" d="m260.7,180.06l5.42,3.05c-1,1.7-3.13,2.88-5.62,2.88s-4.48-1.1-5.51-2.72l5.71-3.21Z"/>
        <rect class="cls-5" x="254.79" y="157.76" width="11.3" height="5.03"/>
        <path class="cls-4" d="m265.09,177.58l-4.39,2.47-4.64-2.6c1.13-.93,2.7-1.51,4.44-1.51,1.82,0,3.46.63,4.59,1.64Z"/>
        <path class="cls-4" d="m260.7,180.06l-5.71,3.21c-.44-.69-.69-1.48-.69-2.31,0-1.37.68-2.6,1.77-3.51l4.64,2.6Z"/>
        <path class="cls-4" d="m229.97,162.79l26.09,14.66c-1.09.9-1.77,2.14-1.77,3.51,0,.83.25,1.62.69,2.31l-15.35,8.63h-41.47l-15.64-8.79c.38-.65.59-1.38.59-2.14,0-1.3-.62-2.48-1.61-3.37l26.33-14.8h22.15Zm-5.96,18.17c0-2.77-2.25-5.02-5.02-5.02s-5.03,2.25-5.03,5.02,2.25,5.03,5.03,5.03,5.02-2.25,5.02-5.03Z"/>
        <polygon class="cls-4" points="254.79 162.79 229.97 162.79 224.27 162.79 224.27 157.76 254.79 157.76 254.79 162.79"/>
        <rect class="cls-5" x="212.97" y="157.76" width="11.3" height="5.03"/>
        <path class="cls-5" d="m218.99,175.94c2.77,0,5.02,2.25,5.02,5.02s-2.25,5.03-5.02,5.03-5.03-2.25-5.03-5.03,2.25-5.02,5.03-5.02Z"/>
        <path class="cls-4" d="m207.83,162.79l-26.33,14.8c-1.14-1.02-2.77-1.65-4.59-1.65s-3.31.58-4.44,1.51l-26.09-14.66h61.45Z"/>
        <polygon class="cls-4" points="182.45 162.79 182.45 157.76 212.97 157.76 212.97 162.79 207.83 162.79 182.45 162.79"/>
        <path class="cls-4" d="m198.16,191.9h-42.12l15.35-8.63c1.03,1.61,3.12,2.72,5.51,2.72s4.62-1.18,5.62-2.88l15.64,8.79Z"/>
        <path class="cls-4" d="m183.11,180.96c0,.76-.21,1.49-.59,2.14l-5.42-3.05,4.39-2.47c1,.89,1.61,2.07,1.61,3.37Z"/>
        <path class="cls-4" d="m177.1,180.06l5.42,3.05c-1,1.7-3.13,2.88-5.62,2.88s-4.48-1.1-5.51-2.72l5.71-3.21Z"/>
        <rect class="cls-5" x="171.15" y="157.76" width="11.3" height="5.03"/>
        <path class="cls-4" d="m176.9,175.94c1.82,0,3.46.63,4.59,1.65l-4.39,2.47-4.64-2.6c1.13-.93,2.7-1.51,4.44-1.51Z"/>
        <path class="cls-4" d="m177.1,180.06l-5.71,3.21c-.44-.69-.69-1.48-.69-2.31,0-1.37.68-2.6,1.77-3.51l4.64,2.6Z"/>
        <path class="cls-4" d="m146.38,162.79l26.09,14.66c-1.09.9-1.77,2.14-1.77,3.51,0,.83.25,1.62.69,2.31l-15.35,8.63h-41.47l-15.64-8.79c.38-.65.59-1.38.59-2.14,0-1.3-.62-2.48-1.61-3.37l26.33-14.8h22.15Zm-7.01,18.17c0-2.77-2.25-5.02-5.02-5.02s-5.03,2.25-5.03,5.02,2.25,5.03,5.03,5.03,5.02-2.25,5.02-5.03Z"/>
        <polygon class="cls-4" points="171.15 162.79 146.38 162.79 140.63 162.79 140.63 157.76 171.15 157.76 171.15 162.79"/>
        <rect class="cls-5" x="129.33" y="157.76" width="11.3" height="5.03"/>
        <path class="cls-5" d="m134.34,175.94c2.77,0,5.02,2.25,5.02,5.02s-2.25,5.03-5.02,5.03-5.03-2.25-5.03-5.03,2.25-5.02,5.03-5.02Z"/>
        <path class="cls-4" d="m124.23,162.79l-26.33,14.8c-1.14-1.02-2.77-1.65-4.59-1.65s-3.31.58-4.44,1.51l-26.09-14.66h61.45Z"/>
        <polygon class="cls-4" points="129.33 162.79 124.23 162.79 98.81 162.79 98.81 157.76 129.33 157.76 129.33 162.79"/>
        <path class="cls-4" d="m114.57,191.9h-42.12l15.35-8.63c1.03,1.61,3.11,2.72,5.51,2.72s4.62-1.18,5.62-2.88l15.64,8.79Z"/>
        <path class="cls-4" d="m99.51,180.96c0,.76-.21,1.49-.59,2.14l-5.42-3.05,4.39-2.47c1,.89,1.61,2.07,1.61,3.37Z"/>
        <path class="cls-4" d="m93.51,180.06l5.42,3.05c-1,1.7-3.13,2.88-5.62,2.88s-4.48-1.1-5.51-2.72l5.71-3.21Z"/>
        <rect class="cls-5" x="87.51" y="157.76" width="11.3" height="5.03"/>
        <path class="cls-4" d="m93.31,175.94c1.82,0,3.46.63,4.59,1.65l-4.39,2.47-4.64-2.6c1.13-.93,2.7-1.51,4.44-1.51Z"/>
        <path class="cls-4" d="m93.51,180.06l-5.71,3.21c-.44-.69-.69-1.48-.69-2.31,0-1.37.68-2.6,1.77-3.51l4.64,2.6Z"/>
        <path class="cls-4" d="m62.78,162.79l26.09,14.66c-1.09.9-1.77,2.14-1.77,3.51,0,.83.25,1.62.69,2.31l-15.35,8.63H30.78l-15.64-8.79c.38-.65.59-1.38.59-2.14,0-1.3-.62-2.48-1.61-3.37l26.33-14.8h22.34Zm-8.53,18.17c0-2.77-2.25-5.02-5.02-5.02s-5.03,2.25-5.03,5.02,2.25,5.03,5.03,5.03,5.02-2.25,5.02-5.03Z"/>
        <polygon class="cls-4" points="87.51 162.79 62.78 162.79 56.99 162.79 56.99 157.76 87.51 157.76 87.51 162.79"/>
        <rect class="cls-5" x="45.69" y="157.76" width="11.3" height="5.03"/>
        <path class="cls-5" d="m49.24,175.94c2.77,0,5.02,2.25,5.02,5.02s-2.25,5.03-5.02,5.03-5.03-2.25-5.03-5.03,2.25-5.02,5.03-5.02Z"/>
        <polygon class="cls-4" points="45.69 162.79 40.44 162.79 15.17 162.79 15.17 157.76 45.69 157.76 45.69 162.79"/>
        <path class="cls-4" d="m30.78,191.9H.24v-6.52l3.76-2.11c1.03,1.61,3.12,2.72,5.51,2.72s4.62-1.18,5.62-2.88l15.64,8.79Z"/>
        <path class="cls-4" d="m15.72,180.96c0,.76-.21,1.49-.59,2.14l-5.42-3.05,4.39-2.47c1,.89,1.61,2.07,1.61,3.37Z"/>
        <rect class="cls-5" x="3.87" y="157.76" width="11.3" height="5.03"/>
        <path class="cls-4" d="m9.72,180.06l5.42,3.05c-1,1.7-3.13,2.88-5.62,2.88s-4.48-1.1-5.51-2.72l5.71-3.21Z"/>
        <path class="cls-4" d="m9.52,175.94c1.82,0,3.46.63,4.59,1.65l-4.39,2.47-4.64-2.6c1.13-.93,2.7-1.51,4.44-1.51Z"/>
        <path class="cls-4" d="m9.72,180.06l-5.71,3.21c-.44-.69-.69-1.48-.69-2.31,0-1.37.68-2.6,1.77-3.51l4.64,2.6Z"/>
        <path class="cls-4" d="m.24,174.74l4.84,2.72c-1.09.9-1.77,2.14-1.77,3.51,0,.83.25,1.62.69,2.31l-3.76,2.11v-10.64Z"/>
        <polygon class="cls-8" points="212.97 157.76 182.45 157.76 171.15 157.76 140.63 157.76 129.33 157.76 98.81 157.76 87.51 157.76 56.99 157.76 45.69 157.76 15.17 157.76 3.87 157.76 .24 157.76 .24 89.72 1.13 89.72 270.08 89.72 270.08 157.76 266.09 157.76 254.79 157.76 224.27 157.76 212.97 157.76"/>
        <path class="cls-4" d="m.24,162.79h40.2l-26.33,14.8c-1.14-1.02-2.77-1.65-4.59-1.65s-3.31.58-4.44,1.51l-4.84-2.72v-11.95Z"/>
      </g>
      <g>
        <polyline class="cls-1" points="270.08 191.9 239.64 191.9 198.16 191.9 156.04 191.9 114.57 191.9 72.44 191.9 30.78 191.9 .24 191.9"/>
        <line class="cls-1" x1=".24" y1="83.95" x2="270.08" y2="83.95"/>
        <line class="cls-1" x1=".24" y1="89.72" x2="270.08" y2="89.72"/>
        <line class="cls-1" x1="266.09" y1="157.76" x2="270.08" y2="157.76"/>
        <line class="cls-1" x1="224.27" y1="157.76" x2="254.79" y2="157.76"/>
        <line class="cls-1" x1="182.45" y1="157.76" x2="212.97" y2="157.76"/>
        <line class="cls-1" x1="140.63" y1="157.76" x2="171.15" y2="157.76"/>
        <line class="cls-1" x1="98.81" y1="157.76" x2="129.33" y2="157.76"/>
        <line class="cls-1" x1="56.99" y1="157.76" x2="87.51" y2="157.76"/>
        <line class="cls-1" x1="15.17" y1="157.76" x2="45.69" y2="157.76"/>
        <line class="cls-1" x1=".24" y1="157.76" x2="3.87" y2="157.76"/>
        <line class="cls-1" x1="266.09" y1="162.79" x2="270.08" y2="162.79"/>
        <polyline class="cls-1" points="224.27 162.79 229.97 162.79 254.79 162.79"/>
        <polyline class="cls-1" points="182.45 162.79 207.83 162.79 212.97 162.79"/>
        <polyline class="cls-1" points="140.63 162.79 146.38 162.79 171.15 162.79"/>
        <polyline class="cls-1" points="98.81 162.79 124.23 162.79 129.33 162.79"/>
        <polyline class="cls-1" points="56.99 162.79 62.78 162.79 87.51 162.79"/>
        <polyline class="cls-1" points="15.17 162.79 40.44 162.79 45.69 162.79"/>
        <line class="cls-1" x1=".24" y1="162.79" x2="3.87" y2="162.79"/>
        <polyline class="cls-1" points="72.44 191.9 87.79 183.27 93.51 180.06 97.9 177.59 124.23 162.79"/>
        <polyline class="cls-1" points="114.57 191.9 98.92 183.11 93.51 180.06 88.87 177.45 62.78 162.79"/>
        <path class="cls-1" d="m139.36,180.96c0,2.78-2.25,5.03-5.02,5.03s-5.03-2.25-5.03-5.03,2.25-5.02,5.03-5.02,5.02,2.25,5.02,5.02Z"/>
        <path class="cls-1" d="m224.01,180.96c0,2.78-2.25,5.03-5.02,5.03s-5.03-2.25-5.03-5.03,2.25-5.02,5.03-5.02,5.02,2.25,5.02,5.02Z"/>
        <path class="cls-1" d="m97.9,177.59c1,.89,1.61,2.07,1.61,3.37,0,.76-.21,1.49-.59,2.14-1,1.7-3.13,2.88-5.62,2.88s-4.48-1.1-5.51-2.72c-.44-.69-.69-1.48-.69-2.31,0-1.37.68-2.6,1.77-3.51,1.13-.93,2.7-1.51,4.44-1.51,1.82,0,3.46.63,4.59,1.65Z"/>
        <polyline class="cls-1" points=".24 185.38 4 183.27 9.72 180.06 14.11 177.59 40.44 162.79"/>
        <polyline class="cls-1" points="30.78 191.9 15.13 183.11 9.72 180.06 5.08 177.45 .24 174.74"/>
        <path class="cls-1" d="m14.11,177.59c1,.89,1.61,2.07,1.61,3.37,0,.76-.21,1.49-.59,2.14-1,1.7-3.13,2.88-5.62,2.88s-4.48-1.1-5.51-2.72c-.44-.69-.69-1.48-.69-2.31,0-1.37.68-2.6,1.77-3.51,1.13-.93,2.7-1.51,4.44-1.51,1.82,0,3.46.63,4.59,1.65Z"/>
        <polyline class="cls-1" points="156.04 191.9 171.39 183.27 177.1 180.06 181.5 177.59 207.83 162.79"/>
        <polyline class="cls-1" points="198.16 191.9 182.52 183.11 177.1 180.06 172.47 177.45 146.38 162.79"/>
        <path class="cls-1" d="m181.5,177.59c1,.89,1.61,2.07,1.61,3.37,0,.76-.21,1.49-.59,2.14-1,1.7-3.13,2.88-5.62,2.88s-4.48-1.1-5.51-2.72c-.44-.69-.69-1.48-.69-2.31,0-1.37.68-2.6,1.77-3.51,1.13-.93,2.7-1.51,4.44-1.51,1.82,0,3.46.63,4.59,1.65Z"/>
        <polyline class="cls-1" points="239.64 191.9 254.99 183.27 260.7 180.06 265.09 177.58 270.08 174.78"/>
        <polyline class="cls-1" points="270.08 185.34 266.12 183.11 260.7 180.06 256.06 177.45 229.97 162.79"/>
        <path class="cls-1" d="m265.09,177.58c1,.89,1.61,2.07,1.61,3.38,0,.76-.21,1.49-.59,2.14-1,1.7-3.13,2.88-5.62,2.88s-4.48-1.1-5.51-2.72c-.44-.69-.69-1.48-.69-2.31,0-1.37.68-2.6,1.77-3.51,1.13-.93,2.7-1.51,4.44-1.51,1.82,0,3.46.63,4.59,1.64Z"/>
        <path class="cls-1" d="m54.25,180.96c0,2.78-2.25,5.03-5.02,5.03s-5.03-2.25-5.03-5.03,2.25-5.02,5.03-5.02,5.02,2.25,5.02,5.02Z"/>
        <rect class="cls-1" x="3.87" y="157.76" width="11.3" height="5.03"/>
        <rect class="cls-1" x="45.69" y="157.76" width="11.3" height="5.03"/>
        <rect class="cls-1" x="87.51" y="157.76" width="11.3" height="5.03"/>
        <rect class="cls-1" x="129.33" y="157.76" width="11.3" height="5.03"/>
        <rect class="cls-1" x="171.15" y="157.76" width="11.3" height="5.03"/>
        <rect class="cls-1" x="212.97" y="157.76" width="11.3" height="5.03"/>
        <rect class="cls-1" x="254.79" y="157.76" width="11.3" height="5.03"/>
      </g>
    </g>
    <g>
      <g>
        <path class="cls-10" d="m73.3,126.54c.56.41,1.31.83,2.24,1.26,0,0-8.96,5.41-15.25,7.56-6.3,2.13-9.35-.11-10.34-1.24-1.01-1.12-2.03-6.67-2.03-6.67,2.59-.83,4.81-1.63,6.08-2.2,2.65.59,5.64,1.06,9.1,1.3,3.75.26,10.2,0,10.2,0Z"/>
        <path class="cls-6" d="m93.2,131.61v.08c-.48,3.43-1.57,6.68-2.88,9.59-3.28,7.25-7.96,12.31-7.96,12.31,0,0-2.48-2.03-4.62-4.61,1.79-.99,4.17-4.23,6.32-7.68h0c2.93-4.67,5.46-9.7,5.59-9.97,1.15.12,2.33.22,3.54.28Z"/>
        <path class="cls-6" d="m70.95,140.37c5.41-4.26,11.4-10.3,11.4-10.3,1.29.31,2.66.59,4.13.83-1.24,2.28-4.87,6.29-8.68,10.02-3.59,3.5-7.34,6.76-9.41,8.07,0,0-1.91-2.03-3.94-4.62,1.6-.43,3.99-2.02,6.5-3.99Z"/>
        <path class="cls-9" d="m193.07,20.66c10.73,4.66,19.89,15.42,19.89,15.42l.07.23c-1.01.33-2.08.71-3.19,1.12,0,0-2.06-2.21-7.84-5.4-9.38-5.37-27.54-5.74-35.73-5.52l-2.02-5.33c6.52-3.38,25.6-1.92,28.81-.53Z"/>
        <path class="cls-11" d="m143.67,13.09c-.73-.34-1.5-.23-1.72.24s.19,1.13.93,1.46c.73.34,1.5.24,1.72-.23.22-.48-.2-1.13-.93-1.47Zm7.28,4.06c.22-.47-.2-1.13-.93-1.47-.73-.34-1.5-.23-1.72.24s.19,1.13.93,1.46c.73.34,1.5.24,1.72-.23Zm3.16-3.1c-.96,2.28-2.74,5.1-4.25,8.04-.83,1.62-1.6,3.71-2.37,5.87h0c-.48,1.36-.97,2.75-1.45,4.07-1.16,3.12-2.35,5.84-3.69,6.86-.6.46-1.36.81-2.21,1.08-1.89.59-4.24.72-6.42.55-1.43-.11-2.78-.36-3.86-.71-.35-.11-.7-.26-1.03-.41l-11.52,12.27-.18-.16-1.18-14.48c4.34-4.01,12.28-12.23,20.25-22.73,1.06-1.08,1.91-2.04,2.24-2.64,1.21-.75,2.33-1.43,3.38-1.28,1.06.15,9.76,4.06,12.29,3.67h0Z"/>
        <path class="cls-9" d="m271.11,126.69s.45,4.06,0,10.35c-7.71,5.85-11.8,7.1-13.99,6.19-2.6-1.05-2.58-5.08-2.85-8.02,5.48-1.03,10.17-2.74,11.74-3.56,3.76-1.96,5.11-4.36,5.11-4.36v-.6Z"/>
        <path class="cls-12" d="m106.8,123.46c-.25.26-.48.51-.72.75h0c-14.74-3.26-18.74-11.89-19.79-13.86,1.28-.56,2.59-1.14,3.9-1.72.1.36,2.43,8.24,18.85,12.53-.75.78-1.5,1.55-2.22,2.3Z"/>
        <path class="cls-9" d="m121.92,146.72s-1.19.45-10.54-2.93c-9.05-3.27-13.14-8.36-13.38-8.67,0,0,0-.02,0-.02-1.15-2.02-1.83-3.42-1.83-3.42.85,0,1.71,0,2.57-.04,0,0,1.8-1.8,4.37-4.42.91-.92,1.91-1.94,2.96-3.02.24-.24.48-.49.72-.75,1.29,3.98,3.86,7.29,7.97,11.65.84.89,1.75,1.83,2.72,2.82,1.04,1.06,2.16,2.2,3.36,3.41,0,0-.11,1,1.08,5.39Z"/>
        <path class="cls-9" d="m254.27,135.21c.26,2.94.25,6.97,2.85,8.02,0,0-.39.39-1.46,1.13-2.3.9-10.82-2.15-10.82-2.15h0c2.13-2.98,4.44-5.65,6.02-6.46,1.16-.14,2.31-.33,3.42-.54Z"/>
        <path class="cls-12" d="m155.84,46.09c-2.24-3.14-13.67-6.38-15.42-5.09-.19-.64-.29-1.03-.29-1.03.86-.26,1.61-.62,2.21-1.08,1.34-1.02,2.53-3.74,3.69-6.86,4.65,2.36,13.71,6.28,15.92,9.49-1.36.87-3.55,2.57-6.11,4.57Z"/>
        <path class="cls-12" d="m237.92,134.66h0c-1.1-.57-1.98-1.42-2.66-2.47h.02s24.44-1.91,35.84-8.74v3.84s-1.35,2.4-5.11,4.36c-1.57.82-6.26,2.53-11.74,3.56-1.11.21-2.27.4-3.42.54-4.08.49-8.32.48-11.85-.64-.38-.12-.74-.26-1.08-.44Z"/>
        <path class="cls-6" d="m271.11,108.62v14.84c-.93-.86-2.03-1.66-3.23-2.41-1.14-.71-2.38-1.37-3.69-1.98-9.07-4.28-21.72-6.53-28.66-8.22.34-1.14.71-2.25,1.09-3.32,9.05-.41,32.46.13,34.48,1.09Z"/>
        <path class="cls-6" d="m271.11,98.46v10.16c-2.03-.96-25.44-1.51-34.48-1.09.73-2.03,1.53-3.93,2.37-5.6l-7.03,2.34-.26-.76c-1.15-1.09-2.16-1.85-3.12-2.32,10.55-2.64,29.69-6.87,42.52-2.72Z"/>
        <path class="cls-6" d="m271.11,89.99v8.47c-12.83-4.14-31.96.09-42.52,2.72-1.35-.66-2.58-.77-3.87-.49l-.06-.26c-5.14-4.55-13.33.2-13.68.41-1.08-1.06-2.18-2.13-3.21-3.16-1.1-1.09-2.14-2.12-3.02-3,15.49-4.9,52.19-9.88,66.37-4.69Z"/>
        <path class="cls-6" d="m271.11,77.02v12.97c-14.18-5.18-50.87-.21-66.37,4.69-1.3-1.3-2.27-2.27-2.63-2.65-1.69-1.8-7.77-5.96-12.78-4.73,6.51-2.08,12.95-3.85,18.22-4.73,18.08-3.01,50.5-6.6,63.55-5.55Z"/>
        <path class="cls-6" d="m271.11,61.71v15.31c-13.06-1.04-45.47,2.55-63.55,5.55-5.26.87-11.71,2.65-18.22,4.73-.02,0-.04,0-.04,0-.28.07-.63.19-1.02.34-.04,0-.06.02-.09.04-15.47,5.02-30.83,11.55-30.83,11.55l-2.55-5.4s21.61-11.25,37.52-17.1c14.53-5.35,49.6-11.2,72.6-14.22,2.18-.29,4.25-.56,6.19-.78Z"/>
        <path class="cls-6" d="m271.11,57.78v1.38c-2.9,1.7-4.89,2.46-6.29,2.62-3.17.37-3.24-2.32-3.84-3.82,5.4-.07,10.12-.19,10.12-.19Z"/>
        <path class="cls-12" d="m267.88,121.05c1.2.75,2.29,1.55,3.23,2.41-11.4,6.82-35.84,8.73-35.84,8.73h-.02c-.66-1.03-1.14-2.28-1.44-3.69h0c8.62-.31,18.72.11,34.06-7.45Z"/>
        <path class="cls-6" d="m264.82,61.78l.1.71c-23,3.02-58.07,8.87-72.6,14.22-15.91,5.85-37.52,17.1-37.52,17.1-.56-.64-1.95-3.61-3.5-7.33,22.66-10.79,47.7-24.19,69.68-26.74,16.86-2.03,19.8-2.1,23.93-1.91.76.04,1.55.07,2.49.11,2.9.12,8.54.09,13.59,0,.6,1.5.67,4.19,3.84,3.82Z"/>
        <path class="cls-12" d="m264.18,119.06c1.31.62,2.56,1.28,3.69,1.98-15.34,7.56-25.44,7.14-34.06,7.45h0c-.24-1.08-.37-2.27-.42-3.51,8.31.5,24.86-1.02,30.61-5.52l.19-.41Z"/>
        <path class="cls-10" d="m264.18,119.06l-.19.41c-5.76,4.5-22.31,6.02-30.61,5.52-.17-4.32.73-9.41,2.14-14.14,6.94,1.68,19.58,3.94,28.66,8.22Z"/>
        <path class="cls-6" d="m260.9,57.78l.08.19c-5.04.08-10.69.11-13.59,0-.93-.04-1.73-.08-2.49-.11l.05-1.21c.7,0,1.49-.51,2.43-1.98,2.7-4.21,4.66-6.9,6.75-7.8.32-.14.63-.23.91-.26,1.59-.21,2.63,1.12,3.14,3.4.6,2.7,2.71,7.78,2.71,7.78Z"/>
        <path class="cls-9" d="m255.65,144.36c-1.11.76-2.95,1.89-5.85,3.33-2.96,1.47-6.74,2.59-10.19,3.38h0c.78-1.99,2.9-5.61,5.22-8.86h0s8.52,3.05,10.82,2.15Z"/>
        <path class="cls-6" d="m255.05,46.55v.04c-.27.03-.58.11-.9.26-2.1.9-4.06,3.6-6.75,7.8-.94,1.46-1.74,1.98-2.43,1.98-1.28,0-2.19-1.79-2.97-2.57-.72-.73-1.29-4.18-1.59-7.5h14.65Z"/>
        <path class="cls-9" d="m238.99,135.1c3.53,1.12,7.77,1.14,11.85.64-1.58.81-3.89,3.48-6.02,6.46-2.32,3.25-4.44,6.87-5.22,8.85h0c-3.2.72-6.12,1.16-7.89,1.3-3.63.3-34.84-10.65-35.57-10.91,4.51-1.53,8.5-3.32,11.41-5.4-1.79-.86-3.55-1.62-5.03-2.26,0,0,30.22,1.93,35.39.86h0c.34.18.7.32,1.08.44Z"/>
        <path class="cls-6" d="m244.96,56.63l-.05,1.21c-4.13-.19-7.07-.11-23.93,1.91-21.98,2.55-47.02,15.95-69.68,26.74-.95-2.27-1.96-4.81-2.87-7.27l.13-.05c10.13-5.55,41.35-27.07,72.26-29.47,3.31,2.25,4.81,1.95,6.9-1.2,2.1-3.16,7.5-8.4,8.55-8.85s4.06-1.96,3.91,1.35c-.06,1.3.02,3.4.21,5.55.3,3.32.86,6.77,1.59,7.5.78.78,1.69,2.57,2.97,2.57Z"/>
        <path class="cls-9" d="m231.97,104.26l7.03-2.34c-.84,1.67-1.64,3.57-2.37,5.6-.39,1.08-.76,2.19-1.09,3.32-1.41,4.73-2.31,9.82-2.14,14.14.05,1.24.19,2.42.42,3.51.3,1.4.78,2.65,1.44,3.69.68,1.05,1.56,1.9,2.66,2.47-5.17,1.07-35.39-.86-35.39-.86-2.29-.98-3.9-1.61-3.9-1.61l-.09-.12c1.7-1.23,3.25-2.47,4.59-3.56,4.5-3.68,14.26-14.42,15.76-19.88l13.08-4.36Z"/>
        <path class="cls-6" d="m236.29,39.65c-1.05.45-6.45,5.7-8.55,8.85-2.1,3.15-3.6,3.45-6.9,1.2-.84-1.4-1.28-3.85-1.74-7.34,0,0,15.52-2.09,17.19-2.71Z"/>
        <path class="cls-9" d="m231.71,103.5l.26.76-13.08,4.36s-1.45-1.41-3.49-3.42c4.16-2.05,6.85-3.99,9.33-4.51,1.29-.27,2.52-.17,3.87.49.96.47,1.98,1.23,3.12,2.32Z"/>
        <path class="cls-9" d="m224.66,100.43l.06.26c-2.48.52-5.17,2.45-9.33,4.51-.36-.36-.75-.74-1.15-1.13-1.02-1.01-2.14-2.12-3.27-3.24.35-.2,8.54-4.96,13.68-.41Z"/>
        <path class="cls-6" d="m219.09,42.36c.46,3.49.9,5.94,1.74,7.34-30.91,2.4-62.13,23.91-72.26,29.47l-.13.05c-1.21-3.27-2.24-6.39-2.72-8.51,7.53-4.63,29.06-17.14,47.76-26.16h0c1.36-.65,2.71-1.3,4.03-1.9h0c1.82-.85,3.59-1.65,5.31-2.39,2.47-1.07,4.82-2.03,7-2.83,1.11-.41,2.18-.79,3.19-1.12,1.89-.62,3.61-1.09,5.11-1.39.39,2.86.69,5.34.96,7.44Z"/>
        <path class="cls-12" d="m173.46,133.11c-2.48,1.69-5.48,3.38-9.01,4.63-1.06.38-2.16.71-3.31,1l-.04.34-3.12-.34c-.41-.14-.9-1.03-1.41-2.25-.69-1.66-1.4-3.92-1.91-5.75l.38-.11c7.2-1.5,16.16-3.33,21.36-7.07,5.2-3.74,16.61-9.87,18.86-11s17.6-7.78,17.6-7.78c0,0,.52-.32,1.38-.71.4.39.78.77,1.15,1.13,2.05,2.01,3.49,3.42,3.49,3.42,0,0-9.8,4.9-15.99,7.27-6.19,2.36-20.83,10.36-24.31,13.29-1.37,1.15-3.07,2.54-5.13,3.94Z"/>
        <path class="cls-9" d="m202.9,115.88c6.19-2.36,15.99-7.27,15.99-7.27-1.5,5.47-11.26,16.21-15.76,19.88-1.34,1.09-2.89,2.34-4.59,3.56-2.76,2-5.92,3.99-9.2,5.32-2.87,0-3.21-.11-4.9-4.27-4.4,1.67-10.7.07-10.98,0,2.06-1.4,3.76-2.79,5.13-3.94,3.48-2.93,18.12-10.92,24.31-13.29Z"/>
        <path class="cls-12" d="m214.24,104.07c-.86.4-1.38.71-1.38.71,0,0-15.35,6.64-17.6,7.78s-13.66,7.27-18.86,11c-5.2,3.74-14.16,5.57-21.36,7.07l-.38.11c-.27-.95-.48-1.79-.61-2.36-.18-.75-.49-1.31-.91-1.68,7.21-1.5,16.16-3.33,21.36-7.07s16.61-9.87,18.86-11c2.26-1.14,17.6-7.78,17.6-7.78h0c1.13,1.11,2.25,2.21,3.27,3.23Z"/>
        <path class="cls-12" d="m210.97,100.83h0s-15.34,6.65-17.6,7.79c-2.25,1.14-13.66,7.27-18.86,11s-14.15,5.57-21.36,7.07c-.35-.32-.78-.49-1.23-.53h0c-2.06-.34-4.05-.73-5.94-1.17-1.55-.36-3.05-.75-4.49-1.17,9.43-.43,15.2-.17,19.94-1.91,4.73-1.74,24.91-12.48,28.58-14.72s16.06-8.63,17.56-9.3l.21-.2c1.03,1.02,2.12,2.1,3.21,3.16Z"/>
        <path class="cls-12" d="m202,32.03c5.78,3.18,7.84,5.4,7.84,5.4-2.18.8-4.53,1.76-7,2.83-1.56-.88-12.7-4.81-17.19-5.34-4.51-.52-19.37-1.05-19.37-1.05v-7.35c8.19-.22,26.35.15,35.73,5.52Z"/>
        <path class="cls-10" d="m111.29,66.57c8.26-9.55,22.39-25.65,22.39-25.65l.04-.41c2.18.18,4.53.04,6.42-.55,0,0,.11.39.29,1.03.22.78.56,1.94.93,3.26.37,1.27.78,2.69,1.2,4.06.95,3.16,1.89,6.07,2.19,6.34,1.64-1.2,3.39-2.53,5.12-3.88,1.06-.82,2.12-1.65,3.15-2.46.98-.77,1.93-1.52,2.83-2.23,2.56-2,4.75-3.69,6.11-4.57.48-.31.85-.51,1.1-.6.41-.14,1.56-.26,3.22-.31,6.26-.23,19.71.41,27.21,3.94-18.7,9.02-40.23,21.53-47.76,26.16.48,2.12,1.51,5.24,2.72,8.51.91,2.46,1.91,5,2.87,7.27,1.55,3.71,2.94,6.68,3.5,7.33l2.55,5.4s15.37-6.53,30.83-11.55c.03-.02.05-.03.09-.04.34-.11.68-.22,1.02-.34,0,0,.03,0,.04,0,5.01-1.23,11.08,2.93,12.78,4.73.36.38,1.33,1.36,2.63,2.65.88.88,1.92,1.9,3.02,3l-.21.2c-1.51.67-13.89,7.05-17.56,9.3s-23.86,12.99-28.58,14.72c-4.73,1.75-10.51,1.48-19.94,1.91-.53-.15-1.05-.31-1.57-.47-1.61-.5-3.15-1.03-4.6-1.57-10.02-3.76-16.14-8.28-17.81-9.77l-.03-.03c.88-1.02,1.64-1.94,2.22-2.71,4.65-6.15,1.65-12.75-5.25-16.06-1.61-.78-4.54-1.38-8.25-1.88v-2.32c-.67-4.88-1.96-9.49-3.51-13.66l.39-28.2c3.47-2.23,6.3-4.43,8.46-6.25l-.3,16.3-.17,9.13.24.21Z"/>
        <path class="cls-9" d="m196.14,141.45c-14.26,4.82-33.8,6.93-41.33,6.24l10.37-8.17-4.08-.44.04-.34c1.15-.28,2.25-.62,3.31-1,0,0,13.46,2.27,20.37,1,1.52-.28,3.03-.75,4.52-1.36,3.28-1.33,6.44-3.32,9.2-5.32l.09.12s1.6.63,3.9,1.61c1.48.63,3.24,1.4,5.03,2.26-2.91,2.07-6.89,3.87-11.41,5.4Z"/>
        <path class="cls-12" d="m202.84,40.26c-1.72.74-3.49,1.54-5.31,2.39h0c-2.52-1.22-9.49-3.45-14.25-4.06-4.76-.6-17-.9-17-.9v-3.83s14.87.53,19.37,1.05c4.5.53,15.63,4.46,17.19,5.34Z"/>
        <path class="cls-12" d="m197.52,42.65c-1.32.61-2.67,1.25-4.03,1.9h0c-7.49-3.54-20.95-4.17-27.21-3.94h0v-2.92s12.24.3,17,.9c4.76.61,11.73,2.84,14.25,4.06Z"/>
        <path class="cls-9" d="m184.43,133.11c1.69,4.16,2.03,4.26,4.9,4.27-1.49.61-3.01,1.08-4.52,1.36-6.9,1.27-20.37-1-20.37-1,3.54-1.25,6.53-2.94,9.01-4.63.27.07,6.58,1.67,10.98,0Z"/>
        <path class="cls-9" d="m166.27,40.6h0c-1.66.06-2.81.18-3.22.32-.26.09-.63.29-1.1.6-2.21-3.21-11.28-7.12-15.92-9.49.48-1.32.97-2.72,1.45-4.07h0l16.76-6.77,2.02,5.33v14.09Z"/>
        <path class="cls-10" d="m154.82,147.69l-2.91,2.29-5.5-6.95c4.31-1.38,8.54-3.02,11.58-4.3l3.12.34,4.08.44-10.37,8.17Z"/>
        <path class="cls-9" d="m164.25,21.19l-16.76,6.77c.77-2.16,1.54-4.25,2.37-5.87,1.51-2.94,3.29-5.76,4.25-8.04.69-1.65.95-3.02.39-3.97,2.85.76,7.45,8.22,9.75,11.11Z"/>
        <path class="cls-9" d="m156.57,136.49c.51,1.22,1.01,2.11,1.41,2.25-3.03,1.28-7.27,2.93-11.58,4.3-1.04.34-2.09.64-3.12.93-1.6.45-3.17.84-4.65,1.14-2.01.4-3.86.63-5.41.6-1.56-.26-3.14-.69-4.63-1.17,2.87-2.17,6.97-5.56,10.8-8.79l17.18.74Z"/>
        <path class="cls-9" d="m156.57,136.49l-17.18-.74c4.61-3.9,8.82-7.55,9.92-8.52.89-.78,1.8-1.13,2.58-1.07h0c.46.04.88.21,1.23.53.41.37.73.93.91,1.68.12.57.34,1.41.61,2.36.51,1.83,1.23,4.09,1.91,5.75Z"/>
        <path class="cls-5" d="m154.5,10.08c.56.94.3,2.32-.39,3.97h0c-2.53.39-11.23-3.52-12.29-3.67-1.05-.15-2.17.53-3.38,1.28-.33.6-1.18,1.56-2.24,2.64-1.29,1.3-2.88,2.77-4.21,4,0,0-.02.03-.04.04-.85.78-1.58,1.47-2.06,1.96-1.88,1.88-18.38,15.99-24.46,19.96-6.08,3.98-17.63,10.35-24.32,11.25.63-1.04,1.68-2.5,3.01-4.19h0c4.03-5.1,10.73-12.33,16.77-16.89,2.03-1.54,3.98-2.78,5.73-3.53,8.7-3.76,23.71-13.06,28.06-16.21,4.35-3.15,11.86-4.8,14.41-3.9s4.51,2.29,5.4,3.3Z"/>
        <path class="cls-12" d="m155.84,46.09c-.9.71-1.85,1.46-2.83,2.23-3.84-3.19-11.66-4.06-11.66-4.06-.38-1.32-.71-2.49-.93-3.26,1.75-1.3,13.18,1.95,15.42,5.09Z"/>
        <path class="cls-6" d="m146.41,143.04l5.5,6.95-3.76,1.41-4.86-7.42h0c1.03-.3,2.08-.61,3.12-.94Z"/>
        <path class="cls-12" d="m151.9,126.16c-.78-.06-1.69.29-2.58,1.07-1.1.97-5.31,4.62-9.92,8.52-3.83,3.23-7.93,6.62-10.8,8.79-4.24-1.37-7.75-3.2-7.75-3.2,4.39-2.15,23.16-14.18,25.11-16.35,1.9.44,3.88.84,5.94,1.17Z"/>
        <path class="cls-5" d="m150.02,15.68c.73.34,1.16,1.01.93,1.47s-.99.57-1.72.23c-.74-.34-1.16-1-.93-1.46s.99-.57,1.72-.24Z"/>
        <path class="cls-12" d="m153.01,48.32c-1.03.81-2.09,1.64-3.15,2.46-3.51-2.87-7.31-2.46-7.31-2.46-.41-1.37-.83-2.79-1.2-4.06,0,0,7.81.86,11.66,4.06Z"/>
        <path class="cls-6" d="m148.14,151.4h0s-4.27,1.6-4.27,1.6l-5.24-7.89c1.48-.3,3.05-.69,4.65-1.14h0s4.86,7.42,4.86,7.42Z"/>
        <path class="cls-12" d="m149.86,50.78c-1.74,1.35-3.48,2.68-5.12,3.88-.3-.26-1.23-3.18-2.19-6.34,0,0,3.8-.41,7.31,2.46Z"/>
        <path class="cls-5" d="m143.67,13.09c.73.34,1.16,1,.93,1.47-.22.47-.99.57-1.72.23-.74-.34-1.16-1-.93-1.46s.99-.57,1.72-.24Z"/>
        <path class="cls-6" d="m138.64,145.11l5.24,7.89-4.58,1.72-1.68-2.36-4.39-6.65c1.55.03,3.4-.2,5.41-.6Z"/>
        <path class="cls-12" d="m141.47,123.82c1.44.42,2.94.81,4.49,1.17-1.95,2.17-20.72,14.2-25.11,16.35-1.2-1.22-2.32-2.35-3.36-3.41,5.38-1.44,20.35-11.85,22.38-14.47l.04-.11c.52.16,1.04.32,1.57.47Z"/>
        <path class="cls-12" d="m139.9,123.35l-.04.11c-2.03,2.62-17,13.03-22.38,14.47-.97-1-1.88-1.93-2.72-2.82,3.6-1.44,8.27-2.72,20.48-13.2l.04-.12c1.45.54,2.99,1.07,4.6,1.57Z"/>
        <path class="cls-6" d="m128.6,144.54c1.49.48,3.07.91,4.63,1.17l4.39,6.65-8.78,2.36-6.91-8c-1.19-4.39-1.08-5.39-1.08-5.39,0,0,3.51,1.83,7.75,3.2Z"/>
        <path class="cls-10" d="m135.3,121.78l-.04.12c-12.21,10.47-16.88,11.76-20.48,13.2-4.11-4.36-6.68-7.67-7.97-11.65.72-.75,1.47-1.52,2.22-2.3,3.03-3.18,6.15-6.52,8.44-9.17l.03.03c1.68,1.49,7.79,6.01,17.81,9.77Z"/>
        <path class="cls-10" d="m83.96,55.93l.61,2.03c3.3,4.51,8.1,10.06,9.9,12.76s7.03,13.96,7.33,20.11v.03c-12.25-1.19-29.5-1.5-38.99-1.98-.55-.03-1.44.04-2.56.18h0c-5.1-2.54-12.34-17.06-14.33-21.04,3.39-1.9,7.89-4.25,12.64-6.52,8.05-3.86,16.8-7.54,21.95-8.53.38-.93.6-1.47.6-1.47,6.68-.9,18.23-7.27,24.32-11.25,6.07-3.98,22.58-18.08,24.46-19.96.48-.48,1.22-1.17,2.06-1.96.02,0,.03-.03.04-.04,1.33-1.23,2.93-2.71,4.21-4-7.97,10.5-15.91,18.72-20.25,22.73-.34.32-.66.6-.95.86-.86.77-2.03,1.82-3.47,3.03-2.17,1.82-4.99,4.02-8.46,6.25-3.71,2.39-8.16,4.81-13.36,6.82-1.83.71-3.74,1.36-5.74,1.94Z"/>
        <path class="cls-7" d="m133.71,40.51l-.04.41s-14.12,16.1-22.39,25.65l-.24-.21.17-9.13.85.02,5.24-5.58,11.52-12.27c.34.16.68.3,1.03.41,1.08.35,2.43.6,3.86.71Z"/>
        <path class="cls-10" d="m90.17,108.63c-1.3.58-2.62,1.16-3.9,1.72-1.38.6-2.7,1.16-3.92,1.67-2.08.86-3.88,1.54-5.14,1.92l-.86,2.77h0s-10.99-.63-18.35-2.32c-5.59-1.29-11.26-3.96-16.06-5.77-4.81-1.8-14.35-3.84-14.35-3.84,4.04-3.33,8.38-6.76,11.38-8.93,1.17-.85,2.14-1.5,2.82-1.88.78-.44,1.78-.87,2.93-1.29,1.83-.68,4.03-1.31,6.26-1.86,1.44-.35,2.89-.68,4.28-.95,1.87-.37,3.61-.65,4.99-.82,1.12-.14,2.01-.2,2.56-.18,9.49.48,26.74.78,38.99,1.98,1.55.15,3.02.32,4.38.49,3.71.49,6.64,1.1,8.25,1.88,6.9,3.31,9.9,9.91,5.25,16.06-.58.77-1.34,1.68-2.22,2.71-2.28,2.65-5.4,5.99-8.44,9.17-16.42-4.29-18.75-12.17-18.85-12.53Z"/>
        <path class="cls-7" d="m117.3,51.66l-5.24,5.58-.85-.02.3-16.3c1.45-1.22,2.61-2.27,3.47-3.03.29-.26.61-.55.95-.86l1.18,14.48.18.16Z"/>
        <path class="cls-10" d="m106.17,89.03v2.32c-1.37-.18-2.83-.34-4.38-.49v-.03c-.3-6.15-5.53-17.41-7.33-20.11s-6.6-8.25-9.9-12.76l-.61-2.03c2-.58,3.91-1.23,5.74-1.94l1.62.67c1.61,2.27,7.36,10.04,11.35,20.71,1.55,4.17,2.84,8.77,3.51,13.66Z"/>
        <path class="cls-12" d="m106.07,124.2h0c-1.05,1.09-2.05,2.12-2.96,3.03-12.81-2.15-18.7-11.35-20.76-15.22,1.23-.5,2.55-1.07,3.92-1.67,1.05,1.98,5.05,10.6,19.79,13.85Z"/>
        <path class="cls-10" d="m103.05,47.17l-.39,28.2c-3.99-10.67-9.73-18.45-11.35-20.71l-1.62-.67c5.19-2.01,9.65-4.43,13.36-6.82Z"/>
        <path class="cls-9" d="m58.45,61.27c4.66-17.01,38.42-31.38,42.45-30.85-6.04,4.57-12.74,11.8-16.77,16.89h0c-19.34,5.82-25.67,13.96-25.67,13.96Z"/>
        <path class="cls-6" d="m103.12,127.23c-2.57,2.62-4.37,4.42-4.37,4.42-5.03-1.51-22.13-8.86-21.53-17.71,1.26-.38,3.06-1.07,5.14-1.92,2.06,3.87,7.95,13.07,20.76,15.22Z"/>
        <path class="cls-9" d="m98,135.13c.72,1.28,1.64,2.81,2.7,4.39-1.88,1.08-5.75,1.6-10.39,1.76,1.31-2.91,2.41-6.16,2.87-9.59v-.08c.98.04,1.97.07,2.98.08,0,0,.68,1.4,1.83,3.42,0,0,0,0,0,.02Z"/>
        <path class="cls-9" d="m89.65,131.33c-1.09-.12-2.15-.26-3.17-.43-1.46-.24-2.84-.52-4.13-.83-1.51-.36-2.87-.76-4.09-1.18-1.02-.35-1.93-.72-2.72-1.08-.93-.43-1.68-.86-2.24-1.26l1.44-4.64.8-2.6.81-2.6.86-2.77c-.6,8.85,16.51,16.21,21.53,17.71-.86.04-1.73.04-2.57.04-1.01,0-2-.04-2.97-.08-1.22-.06-2.4-.16-3.54-.28Z"/>
        <path class="cls-9" d="m86.48,130.9c1.02.17,2.08.31,3.17.43-.13.27-2.66,5.3-5.59,9.97h0c-2.05-.05-4.13-.16-6.17-.3l-.08-.09c3.81-3.73,7.43-7.73,8.68-10.02Z"/>
        <path class="cls-7" d="m84.11,47.31c-1.33,1.69-2.38,3.15-3.01,4.19,0,0-.22.55-.6,1.47-5.15.99-13.9,4.66-21.95,8.53l-.11-.23s6.33-8.14,25.67-13.96Z"/>
        <path class="cls-9" d="m78.26,128.89c1.22.42,2.58.82,4.09,1.18,0,0-5.99,6.04-11.4,10.3-4.87-.57-8.8-1.33-10.32-2.08l17.63-9.4Z"/>
        <path class="cls-12" d="m76.36,116.7l-.81,2.6s-10.11-.57-15.82-1.53c-4.81-.81-13.59-4.24-18.76-6.27s-14.83-3.87-16.62-3.98l-.02-.02c1.04-.88,2.14-1.8,3.26-2.72,0,0,9.55,2.04,14.35,3.84,4.8,1.81,10.47,4.48,16.06,5.77,7.35,1.69,18.35,2.32,18.35,2.32h0Z"/>
        <path class="cls-12" d="m75.54,119.3l-.8,2.6s-9.24-.47-13.3-.75c-4.05-.29-15.91-4.51-21.46-6.77-5.55-2.25-15.31-3.9-18.89-4.13.97-.85,2.06-1.77,3.23-2.75l.02.02c1.79.11,11.44,1.95,16.62,3.98s13.95,5.46,18.76,6.27c5.7.96,15.82,1.53,15.82,1.53Z"/>
        <path class="cls-12" d="m74.74,121.9l-1.44,4.64s-6.45.26-10.2,0c-3.46-.24-6.45-.71-9.1-1.3-7.33-1.63-11.92-4.17-16.12-5.16-5.7-1.35-15.9-2.4-21.15-5.7h0c.09-.31,1.83-1.92,4.37-4.14,3.58.23,13.34,1.88,18.89,4.13,5.55,2.26,17.41,6.48,21.46,6.77,4.06.28,13.3.75,13.3.75Z"/>
        <path class="cls-12" d="m55.26,89.86c-1.1,0-5.38-4.6-7.34-8.98-1.15-2.57-5.13-11.05-5.13-11.05.87-.54,1.93-1.16,3.13-1.82,1.98,3.98,9.23,18.5,14.33,21.03h0c-1.38.18-3.12.46-4.99.83h0Z"/>
        <path class="cls-12" d="m55.26,89.86h0c-1.38.28-2.84.61-4.28.96-1.97-1.19-5.86-6.06-8.45-10.98-1.52-2.87-2.57-5.75-2.55-7.94.04-.27,1.08-1.03,2.8-2.08,0,0,3.99,8.48,5.13,11.05,1.96,4.38,6.23,8.98,7.34,8.98Z"/>
        <path class="cls-9" d="m37.89,120.09c4.2.99,8.79,3.53,16.12,5.16-1.27.56-3.49,1.37-6.08,2.2-5.31,1.7-12.16,3.49-15.59,3.46-5.02-.06-15.28-16-15.6-16.51,5.25,3.3,15.45,4.35,21.15,5.7Z"/>
        <path class="cls-6" d="m50.98,90.82c-2.23.55-4.43,1.18-6.26,1.86-.15-1.08-5.4-5.32-6.8-6.13,1.3-2.32,2.87-4.7,4.61-6.71,2.58,4.92,6.48,9.79,8.45,10.98Z"/>
        <path class="cls-9" d="m44.72,92.68c-1.15.41-2.15.85-2.93,1.29-.68.38-1.65,1.03-2.82,1.88,0,0-2.43.23-4.91,0,0-1.16,1.49-5.11,3.86-9.29,1.39.81,6.65,5.05,6.8,6.13Z"/>
      </g>
      <g>
        <path class="cls-3" d="m131.98,18.3c1.33-1.23,2.93-2.71,4.21-4,1.06-1.08,1.91-2.04,2.24-2.64,1.21-.75,2.33-1.43,3.38-1.28,1.06.15,9.76,4.06,12.29,3.67"/>
        <path class="cls-3" d="m84.11,47.31c-1.33,1.69-2.38,3.15-3.01,4.19,6.68-.9,18.23-7.27,24.32-11.25,6.07-3.98,22.58-18.08,24.46-19.96.48-.48,1.22-1.17,2.06-1.96"/>
        <path class="cls-3" d="m147.49,27.96c.77-2.16,1.54-4.25,2.37-5.87,1.51-2.94,3.29-5.76,4.25-8.04.69-1.65.95-3.02.39-3.97-.9-1.01-2.86-2.4-5.4-3.3s-10.06.75-14.41,3.9c-4.36,3.16-19.36,12.46-28.06,16.21-1.75.75-3.7,1.98-5.73,3.53-6.04,4.57-12.74,11.8-16.77,16.89"/>
        <path class="cls-3" d="m123.43,35.07s2.37,2.92,5.39,4.32c.34.16.68.3,1.03.41,1.08.35,2.43.6,3.86.71,2.18.18,4.53.04,6.42-.55.86-.26,1.61-.62,2.21-1.08,1.34-1.02,2.53-3.74,3.69-6.86.48-1.32.97-2.72,1.45-4.07"/>
        <path class="cls-3" d="m144.74,23.89c-.15,2.56-.97,5.03-1.42,6.45-.45,1.43-1.66,2.11-3.68,1.43"/>
        <path class="cls-3" d="m138.44,20.66c1.88.6,3.38,1.06,3.38,1.06"/>
        <line class="cls-3" x1="146.4" y1="23.89" x2="148.12" y2="23.89"/>
        <path class="cls-3" d="m138.44,30.42s-.6.45-.75.97"/>
        <path class="cls-3" d="m137.02,34.92s.82.83,1.42.83"/>
        <path class="cls-3" d="m144.61,14.57c-.22.47-.99.57-1.72.23-.74-.34-1.16-1-.93-1.46s.99-.57,1.72-.24c.73.34,1.16,1,.93,1.47Z"/>
        <path class="cls-3" d="m150.96,17.15c-.22.47-.99.57-1.72.23-.74-.34-1.16-1-.93-1.46s.99-.57,1.72-.24c.73.34,1.16,1.01.93,1.47Z"/>
        <path class="cls-3" d="m81.11,51.5s-.22.55-.6,1.47c-1.75,4.35-6.83,16.96-7.2,18.94"/>
        <path class="cls-3" d="m78.26,68.01s12.31,9.6,15.46,14.71"/>
        <path class="cls-3" d="m84.56,57.95c3.3,4.51,8.1,10.06,9.9,12.76s7.03,13.96,7.33,20.11"/>
        <path class="cls-3" d="m91.32,54.66c1.61,2.27,7.36,10.04,11.35,20.71,1.55,4.17,2.84,8.77,3.51,13.66v2.32"/>
        <path class="cls-3" d="m16.73,114.39c5.25,3.3,15.45,4.35,21.15,5.7,4.2.99,8.79,3.53,16.12,5.16,2.65.59,5.64,1.06,9.1,1.3,3.75.26,10.2,0,10.2,0"/>
        <path class="cls-3" d="m90.17,108.63c-1.3.58-2.62,1.16-3.9,1.72-1.38.6-2.7,1.16-3.92,1.67-2.08.86-3.88,1.54-5.14,1.92-.6,8.85,16.51,16.21,21.53,17.71,0,0,1.8-1.8,4.37-4.42.91-.92,1.91-1.94,2.96-3.02.24-.24.48-.49.72-.75.72-.75,1.47-1.52,2.22-2.3,3.03-3.18,6.15-6.52,8.44-9.17.88-1.02,1.64-1.94,2.22-2.71,4.65-6.15,1.65-12.75-5.25-16.06-1.61-.78-4.54-1.38-8.25-1.88-1.37-.18-2.83-.34-4.38-.49-12.25-1.19-29.5-1.5-38.99-1.98-.55-.03-1.44.04-2.56.18-1.38.17-3.12.45-4.99.82-1.38.27-2.84.6-4.28.95-2.23.55-4.43,1.18-6.26,1.86-1.15.41-2.15.85-2.93,1.29-.68.38-1.65,1.03-2.82,1.88-3.01,2.17-7.34,5.6-11.38,8.93-1.12.93-2.22,1.84-3.26,2.72-1.16.98-2.26,1.9-3.23,2.75-2.55,2.21-4.29,3.83-4.37,4.13"/>
        <path class="cls-3" d="m104.23,102.07s-4.01,1.93-9.05,4.26c-1.6.74-3.3,1.52-5.01,2.28"/>
        <path class="cls-3" d="m87.41,101.77s7.44,1.76,7.77,4.56"/>
        <path class="cls-3" d="m16.73,114.38h0c.32.51,10.58,16.45,15.6,16.51,3.43.04,10.28-1.75,15.59-3.46,2.59-.83,4.81-1.63,6.08-2.2"/>
        <path class="cls-3" d="m77.21,113.93l-.86,2.77-.81,2.6-.8,2.6-1.44,4.64c.56.41,1.31.83,2.24,1.26.78.36,1.69.73,2.72,1.08,1.22.42,2.58.82,4.09,1.18,1.29.31,2.66.59,4.13.83,1.02.17,2.08.31,3.17.43,1.15.12,2.33.22,3.54.28.97.04,1.96.07,2.97.08.85,0,1.71,0,2.57-.04"/>
        <path class="cls-3" d="m82.35,112.01c2.06,3.87,7.95,13.07,20.76,15.22"/>
        <path class="cls-3" d="m86.26,110.32s0,.02.02.03c1.05,1.98,5.05,10.6,19.79,13.85"/>
        <path class="cls-3" d="m90.17,108.62h0c.1.37,2.43,8.25,18.85,12.54"/>
        <path class="cls-3" d="m21.1,110.26c3.58.23,13.34,1.88,18.89,4.13,5.55,2.26,17.41,6.48,21.46,6.77,4.06.28,13.3.75,13.3.75"/>
        <path class="cls-3" d="m24.34,107.52c1.79.11,11.44,1.95,16.62,3.98s13.95,5.46,18.76,6.27c5.7.96,15.82,1.53,15.82,1.53"/>
        <path class="cls-3" d="m27.59,104.78s9.55,2.04,14.35,3.84c4.8,1.81,10.47,4.48,16.06,5.77,7.35,1.69,18.35,2.32,18.35,2.32"/>
        <path class="cls-3" d="m47.92,127.44s1.02,5.55,2.03,6.67c1,1.13,4.04,3.38,10.34,1.24,6.3-2.14,15.25-7.56,15.25-7.56"/>
        <path class="cls-3" d="m97.99,135.11c-1.15-2.02-1.83-3.42-1.83-3.42"/>
        <path class="cls-3" d="m90.31,141.28c4.64-.16,8.51-.69,10.39-1.76-1.06-1.58-1.98-3.11-2.7-4.39"/>
        <path class="cls-3" d="m77.88,141c2.05.14,4.13.25,6.17.3"/>
        <path class="cls-3" d="m78.26,128.89l-17.63,9.4c1.53.75,5.46,1.51,10.32,2.08h0"/>
        <path class="cls-3" d="m97.99,135.11s0,0,0,.02c.25.31,4.34,5.4,13.38,8.67,9.35,3.38,10.54,2.93,10.54,2.93-1.19-4.39-1.08-5.39-1.08-5.39-1.2-1.22-2.32-2.35-3.36-3.41-.97-1-1.88-1.93-2.72-2.82-4.11-4.36-6.68-7.67-7.97-11.65"/>
        <path class="cls-3" d="m89.66,131.32h0c-.13.28-2.66,5.31-5.59,9.98h0c-2.15,3.45-4.53,6.69-6.32,7.68,2.14,2.58,4.62,4.61,4.62,4.61,0,0,4.68-5.06,7.96-12.31,1.31-2.91,2.41-6.16,2.87-9.59"/>
        <path class="cls-3" d="m82.35,130.07s-5.99,6.04-11.4,10.3c-2.5,1.98-4.89,3.56-6.5,3.99,2.03,2.59,3.94,4.62,3.94,4.62,2.07-1.3,5.82-4.57,9.41-8.07,3.81-3.73,7.43-7.73,8.68-10.02"/>
        <path class="cls-3" d="m121.92,146.72l6.91,8,8.78-2.36-4.39-6.65c-1.56-.26-3.14-.69-4.63-1.17-4.24-1.37-7.75-3.2-7.75-3.2,4.39-2.15,23.16-14.18,25.11-16.35"/>
        <path class="cls-3" d="m151.91,126.16c.46.04.88.21,1.23.53.41.37.73.93.91,1.68.12.57.34,1.41.61,2.36.51,1.83,1.23,4.09,1.91,5.75.51,1.22,1.01,2.11,1.41,2.25-3.03,1.28-7.27,2.93-11.58,4.3-1.04.34-2.09.64-3.12.93-1.6.45-3.17.84-4.65,1.14-2.01.4-3.86.63-5.41.6"/>
        <path class="cls-3" d="m128.59,144.55s0,0,0,0c2.87-2.17,6.97-5.56,10.8-8.79,4.61-3.9,8.82-7.55,9.92-8.52.89-.78,1.8-1.13,2.58-1.07"/>
        <polyline class="cls-3" points="146.41 143.04 151.91 149.99 154.82 147.69 165.19 139.52 161.1 139.08 157.98 138.74"/>
        <line class="cls-3" x1="148.14" y1="151.4" x2="151.91" y2="149.99"/>
        <polyline class="cls-3" points="137.62 152.36 139.3 154.72 143.88 153 148.14 151.41"/>
        <line class="cls-3" x1="138.64" y1="145.11" x2="143.88" y2="153"/>
        <polyline class="cls-3" points="143.29 143.98 148.14 151.4 148.14 151.41"/>
        <path class="cls-3" d="m114.77,135.1c3.6-1.44,8.27-2.72,20.48-13.2"/>
        <path class="cls-3" d="m117.49,137.92c5.38-1.44,20.35-11.85,22.38-14.47"/>
        <path class="cls-3" d="m117.49,112.01c1.68,1.49,7.79,6.01,17.81,9.77,1.45.54,2.99,1.07,4.6,1.57.52.16,1.04.32,1.57.47,1.44.42,2.94.81,4.49,1.17,1.9.44,3.88.84,5.94,1.17h0"/>
        <path class="cls-3" d="m141.47,123.82c9.43-.43,15.2-.17,19.94-1.91,4.73-1.74,24.91-12.48,28.58-14.72s16.06-8.63,17.56-9.3"/>
        <path class="cls-3" d="m188.18,87.68c-6.82,2.6-28.39,15.26-28.39,15.26"/>
        <path class="cls-3" d="m189.29,87.31c-.28.07-.63.19-1.02.34"/>
        <path class="cls-3" d="m161.14,138.74c1.15-.28,2.25-.62,3.31-1,3.54-1.25,6.53-2.94,9.01-4.63,2.06-1.4,3.76-2.79,5.13-3.94,3.48-2.93,18.12-10.92,24.31-13.29,6.19-2.36,15.99-7.27,15.99-7.27,0,0-1.45-1.41-3.49-3.42-.36-.36-.75-.74-1.15-1.13-1.02-1.01-2.14-2.12-3.27-3.24-1.08-1.06-2.18-2.13-3.21-3.16-1.1-1.09-2.14-2.12-3.02-3-1.3-1.3-2.27-2.27-2.63-2.65-1.69-1.8-7.77-5.96-12.78-4.73"/>
        <path class="cls-3" d="m154.8,93.82l2.55,5.4s15.37-6.53,30.83-11.55c.03-.02.05-.03.09-.04.34-.11.68-.22,1.02-.34,0,0,.03,0,.04,0,6.51-2.08,12.95-3.85,18.22-4.73,18.08-3.01,50.5-6.6,63.55-5.55v-15.31c-1.94.23-4.01.49-6.19.78-23,3.02-58.07,8.87-72.6,14.22-15.91,5.85-37.52,17.1-37.52,17.1Z"/>
        <path class="cls-3" d="m148.57,79.17c10.13-5.55,41.35-27.07,72.26-29.47,3.31,2.25,4.81,1.95,6.9-1.2,2.1-3.16,7.5-8.4,8.55-8.85s4.06-1.96,3.91,1.35c-.06,1.3.02,3.4.21,5.55.3,3.32.86,6.77,1.59,7.5.78.78,1.69,2.57,2.97,2.57.7,0,1.49-.51,2.43-1.98,2.7-4.21,4.66-6.9,6.75-7.8.32-.14.63-.23.91-.26,1.59-.21,2.63,1.12,3.14,3.4.6,2.7,2.71,7.78,2.71,7.78l.08.19c.6,1.5.67,4.19,3.84,3.82,1.39-.16,3.39-.92,6.29-2.62v-1.38s-4.73.11-10.12.19c-5.04.08-10.69.11-13.59,0-.93-.04-1.73-.08-2.49-.11-4.13-.19-7.07-.11-23.93,1.91-21.98,2.55-47.02,15.95-69.68,26.74-.09.04-.17.08-.26.12"/>
        <line class="cls-3" x1="240.4" y1="46.55" x2="255.05" y2="46.55"/>
        <path class="cls-3" d="m193.48,44.55c-18.7,9.02-40.23,21.53-47.76,26.16.48,2.12,1.51,5.24,2.72,8.51.91,2.46,1.91,5,2.87,7.27,1.55,3.71,2.94,6.68,3.5,7.33"/>
        <path class="cls-3" d="m197.52,42.65c-1.32.61-2.67,1.25-4.03,1.9"/>
        <path class="cls-3" d="m220.83,49.7c-.84-1.4-1.28-3.85-1.74-7.34-.27-2.1-.57-4.58-.96-7.44-1.5.3-3.22.78-5.11,1.39-1.01.33-2.08.71-3.19,1.12-2.18.8-4.53,1.76-7,2.83-1.72.74-3.49,1.54-5.31,2.39"/>
        <path class="cls-3" d="m219.09,42.36s15.52-2.09,17.19-2.71"/>
        <path class="cls-3" d="m271.11,77.02v12.97c-14.18-5.18-50.87-.21-66.37,4.69"/>
        <path class="cls-3" d="m215.39,105.2c4.16-2.05,6.85-3.99,9.33-4.51,1.29-.27,2.52-.17,3.87.49.96.47,1.98,1.23,3.12,2.32"/>
        <path class="cls-3" d="m237.91,134.66c-1.1-.57-1.98-1.42-2.66-2.47-.66-1.04-1.14-2.29-1.44-3.69-.24-1.08-.37-2.27-.42-3.51-.17-4.32.73-9.41,2.14-14.14.34-1.14.71-2.25,1.09-3.32.73-2.03,1.53-3.93,2.37-5.6l-7.03,2.34-13.08,4.36c-1.5,5.47-11.26,16.21-15.76,19.88-1.34,1.09-2.89,2.34-4.59,3.56-2.76,2-5.92,3.99-9.2,5.32-1.49.61-3.01,1.08-4.52,1.36-6.9,1.27-20.37-1-20.37-1"/>
        <path class="cls-3" d="m271.11,123.46v3.84s-1.35,2.4-5.11,4.36c-1.57.82-6.26,2.53-11.74,3.56-1.11.21-2.27.4-3.42.54-4.08.49-8.32.48-11.85-.64-.38-.12-.74-.26-1.08-.44"/>
        <path class="cls-3" d="m233.39,124.99c8.31.5,24.86-1.02,30.61-5.52"/>
        <path class="cls-3" d="m235.26,132.18s24.44-1.9,35.84-8.73c-.93-.86-2.03-1.66-3.23-2.41-1.14-.71-2.38-1.37-3.69-1.98-9.07-4.28-21.72-6.53-28.66-8.22"/>
        <path class="cls-3" d="m233.82,128.5c8.62-.31,18.72.11,34.06-7.45"/>
        <path class="cls-3" d="m254.27,135.21c.26,2.94.25,6.97,2.85,8.02,2.2.91,6.28-.34,13.99-6.19.45-6.3,0-10.35,0-10.35"/>
        <path class="cls-3" d="m154.8,147.69h.02c7.53.69,27.07-1.42,41.33-6.24,4.51-1.53,8.5-3.32,11.41-5.4-1.79-.86-3.55-1.62-5.03-2.26-2.29-.98-3.9-1.61-3.9-1.61"/>
        <path class="cls-3" d="m202.52,133.8s30.22,1.93,35.39.86h.02"/>
        <path class="cls-3" d="m196.13,141.45h0c.72.26,31.94,11.21,35.57,10.91,1.77-.14,4.69-.57,7.89-1.29,3.46-.78,7.23-1.9,10.19-3.38,2.9-1.45,4.74-2.57,5.85-3.33,1.08-.74,1.46-1.13,1.46-1.13"/>
        <path class="cls-3" d="m239.6,151.06c.78-1.98,2.9-5.6,5.22-8.85,2.13-2.98,4.44-5.65,6.02-6.46"/>
        <path class="cls-3" d="m244.83,142.21s8.52,3.05,10.82,2.15"/>
        <path class="cls-3" d="m173.45,133.11h0c.27.07,6.58,1.67,10.98,0,1.69,4.16,2.03,4.26,4.9,4.27"/>
        <polyline class="cls-3" points="139.4 135.75 156.57 136.49 156.58 136.49"/>
        <path class="cls-3" d="m153.14,126.69c7.21-1.5,16.16-3.33,21.36-7.07s16.61-9.87,18.86-11c2.26-1.14,17.6-7.78,17.6-7.78h0c.35-.21,8.54-4.96,13.68-.41"/>
        <path class="cls-3" d="m155.04,130.63c7.2-1.5,16.16-3.33,21.36-7.07,5.2-3.74,16.61-9.87,18.86-11s17.6-7.78,17.6-7.78c0,0,.52-.32,1.38-.71"/>
        <path class="cls-3" d="m125.01,101.92c7.65.45,16.66,3.18,26.12,4.41,9.45,1.23,25.21,1.19,25.21,1.19"/>
        <path class="cls-3" d="m123.88,94.68s15.27-5.75,21.84-5.81"/>
        <path class="cls-3" d="m113.98,89.99s21.16-12.82,31.74-14.62"/>
        <path class="cls-3" d="m107.67,87.67s.42-.68,1.16-1.82c3.09-4.79,11.75-17.63,18.06-21.48,7.8-4.77,14.58-9.12,14.58-9.12"/>
        <path class="cls-3" d="m108.83,85.85c6.65-4.18,22.55-13.64,30.82-15.29"/>
        <path class="cls-3" d="m131.98,18.3s-.02.03-.04.04c-8.31,9.45-19.42,19.37-26.84,24.42-7.43,5.06-20.74,10.55-22.42,11.11"/>
        <path class="cls-3" d="m136.2,14.29c-7.97,10.5-15.91,18.72-20.25,22.73-.34.32-.66.6-.95.86-.86.77-2.03,1.82-3.47,3.03-2.17,1.82-4.99,4.02-8.46,6.25-3.71,2.39-8.16,4.81-13.36,6.82-1.83.71-3.74,1.36-5.74,1.94-.08.03-.17.05-.26.08"/>
        <line class="cls-3" x1="115.94" y1="37.02" x2="117.13" y2="51.5"/>
        <polyline class="cls-3" points="128.82 39.39 117.3 51.66 112.06 57.24"/>
        <polyline class="cls-3" points="111.52 40.92 111.22 57.22 111.05 66.36"/>
        <path class="cls-3" d="m133.67,40.92s-14.12,16.1-22.39,25.65c-3.07,3.54-5.33,6.19-5.76,6.77"/>
        <line class="cls-3" x1="103.05" y1="47.17" x2="102.67" y2="75.37"/>
        <path class="cls-3" d="m140.13,39.97s.11.39.29,1.03c.22.78.56,1.94.93,3.26.37,1.27.78,2.69,1.2,4.06.95,3.16,1.89,6.07,2.19,6.34,1.64-1.2,3.39-2.53,5.12-3.88,1.06-.82,2.12-1.65,3.15-2.46.98-.77,1.93-1.52,2.83-2.23,2.56-2,4.75-3.69,6.11-4.57.48-.31.85-.51,1.1-.6.41-.14,1.56-.26,3.22-.31,6.26-.23,19.71.41,27.21,3.94h0"/>
        <path class="cls-3" d="m166.27,40.6v-14.09c8.19-.22,26.35.15,35.73,5.52,5.78,3.18,7.84,5.4,7.84,5.4"/>
        <path class="cls-3" d="m166.27,33.87s14.87.53,19.37,1.05c4.5.53,15.63,4.46,17.19,5.34"/>
        <path class="cls-3" d="m166.27,37.69s12.24.3,17,.9c4.76.61,11.73,2.84,14.25,4.06h0"/>
        <path class="cls-3" d="m146.03,32.03c4.65,2.36,13.71,6.28,15.92,9.49"/>
        <path class="cls-3" d="m140.42,41c1.75-1.3,13.18,1.95,15.42,5.09"/>
        <path class="cls-3" d="m141.35,44.26s7.81.86,11.66,4.06"/>
        <path class="cls-3" d="m142.55,48.32s3.8-.41,7.31,2.46"/>
        <polyline class="cls-3" points="147.48 27.96 147.49 27.96 164.25 21.19 166.27 26.51"/>
        <path class="cls-3" d="m154.5,10.08c2.85.76,7.45,8.22,9.75,11.11,6.52-3.38,25.6-1.92,28.81-.53,10.73,4.66,19.89,15.42,19.89,15.42"/>
        <path class="cls-3" d="m100.89,30.42c-4.02-.53-37.79,13.84-42.45,30.85"/>
        <path class="cls-3" d="m80.51,52.97c-5.15.99-13.9,4.66-21.95,8.53-4.75,2.27-9.26,4.61-12.64,6.52-1.2.66-2.26,1.28-3.13,1.82-1.73,1.05-2.77,1.81-2.8,2.08-.03,2.19,1.03,5.07,2.55,7.94,2.58,4.92,6.48,9.79,8.45,10.98"/>
        <path class="cls-3" d="m58.45,61.27s6.33-8.14,25.67-13.96h0"/>
        <path class="cls-3" d="m42.79,69.83s3.99,8.48,5.13,11.05c1.96,4.38,6.23,8.98,7.34,8.98.04,0,.08,0,.11-.02"/>
        <path class="cls-3" d="m45.92,68.01c1.98,3.98,9.23,18.5,14.33,21.03"/>
        <path class="cls-3" d="m42.53,79.85c-1.74,2.01-3.31,4.39-4.61,6.71-2.37,4.18-3.86,8.14-3.86,9.29,2.48.23,4.91,0,4.91,0"/>
        <path class="cls-3" d="m37.92,86.56c1.39.81,6.65,5.05,6.8,6.13"/>
        <path class="cls-3" d="m271.11,89.99v8.47c-12.83-4.14-31.96.09-42.52,2.72"/>
        <path class="cls-3" d="m271.11,98.46v10.16c-2.03-.96-25.44-1.51-34.48-1.09"/>
        <line class="cls-3" x1="271.11" y1="108.62" x2="271.11" y2="123.46"/>
      </g>
    </g>
  </g>
</svg>