<svg xmlns="http://www.w3.org/2000/svg" xmlns:xlink="http://www.w3.org/1999/xlink" xml:space="preserve" id="_レイヤー_2" x="0" y="0" style="enable-background:new 0 0 271.8 192.4" version="1.1" viewBox="0 0 271.8 192.4"><style>.st1{fill:#f3edd7}.st2{fill:#333}.st4{fill:none;stroke:#000;stroke-miterlimit:10}.st5{fill:#daace5}.st6{fill:#fffcd6}.st7{fill:#fe3928}.st9{fill:#dccd4e}.st10{fill:#fdfcde}.st11{fill:none;stroke:#000;stroke-linecap:round;stroke-linejoin:round}</style><defs><path id="SVGID_1_" d="M.2 0H270v191.9H.2z"/></defs><clipPath id="SVGID_00000068654404015197252880000015795971300814630280_"><use xlink:href="#SVGID_1_" style="overflow:visible"/></clipPath><g style="clip-path:url(#SVGID_00000068654404015197252880000015795971300814630280_)"><path d="M.2 157.8h3.6v5H.2zm269.9 27.5v6.6h-30.4l15.4-8.6c1 1.6 3.1 2.7 5.5 2.7s4.6-1.2 5.6-2.9l3.9 2.2z" class="st1"/><path d="M270.1 174.8v10.6l-4-2.2c.4-.6.6-1.4.6-2.1 0-1.3-.6-2.5-1.6-3.4l5-2.9zm0-12v12l-5 2.8c-1.1-1-2.8-1.6-4.6-1.6s-3.3.6-4.4 1.5L230 162.8h40.1zm0-78.9v5.8H.2v-5.8zm-4 73.9h4v5h-4z" class="st1"/><path d="M266.7 181c0 .8-.2 1.5-.6 2.1l-5.4-3.1 4.4-2.5c1 1 1.6 2.2 1.6 3.5zm-6-.9 5.4 3.1c-1 1.7-3.1 2.9-5.6 2.9s-4.5-1.1-5.5-2.7l5.7-3.3z" class="st1"/><path d="M254.8 157.8h11.3v5h-11.3z" class="st2"/><path d="m265.1 177.6-4.4 2.5-4.6-2.6c1.1-.9 2.7-1.5 4.4-1.5 1.8-.1 3.5.6 4.6 1.6z" class="st1"/><path d="m260.7 180.1-5.7 3.2c-.4-.7-.7-1.5-.7-2.3 0-1.4.7-2.6 1.8-3.5l4.6 2.6z" class="st1"/><path d="m230 162.8 26.1 14.7c-1.1.9-1.8 2.1-1.8 3.5 0 .8.2 1.6.7 2.3l-15.4 8.6h-41.5l-15.6-8.8c.4-.6.6-1.4.6-2.1 0-1.3-.6-2.5-1.6-3.4l26.3-14.8H230zm-6 18.2c0-2.8-2.2-5-5-5s-5 2.2-5 5 2.2 5 5 5 5-2.3 5-5z" class="st1"/><path d="M254.8 162.8h-30.5v-5h30.5z" class="st1"/><path d="M213 157.8h11.3v5H213zm6 18.1c2.8 0 5 2.2 5 5s-2.2 5-5 5-5-2.2-5-5 2.2-5 5-5z" class="st2"/><path d="m207.8 162.8-26.3 14.8c-1.1-1-2.8-1.6-4.6-1.6s-3.3.6-4.4 1.5l-26.1-14.7h61.4zm-25.4 0v-5H213v5h-5.2zm15.8 29.1H156l15.4-8.6c1 1.6 3.1 2.7 5.5 2.7s4.6-1.2 5.6-2.9l15.7 8.8z" class="st1"/><path d="M183.1 181c0 .8-.2 1.5-.6 2.1l-5.4-3.1 4.4-2.5c1 1 1.6 2.2 1.6 3.5zm-6-.9 5.4 3.1c-1 1.7-3.1 2.9-5.6 2.9s-4.5-1.1-5.5-2.7l5.7-3.3z" class="st1"/><path d="M171.1 157.8h11.3v5h-11.3z" class="st2"/><path d="M176.9 175.9c1.8 0 3.5.6 4.6 1.6l-4.4 2.5-4.6-2.6c1.1-.9 2.7-1.5 4.4-1.5zm.2 4.2-5.7 3.2c-.4-.7-.7-1.5-.7-2.3 0-1.4.7-2.6 1.8-3.5l4.6 2.6z" class="st1"/><path d="m146.4 162.8 26.1 14.7c-1.1.9-1.8 2.1-1.8 3.5 0 .8.2 1.6.7 2.3l-15.4 8.6h-41.5l-15.6-8.8c.4-.6.6-1.4.6-2.1 0-1.3-.6-2.5-1.6-3.4l26.3-14.8h22.2zm-7 18.2c0-2.8-2.2-5-5-5s-5 2.2-5 5 2.2 5 5 5 5-2.3 5-5z" class="st1"/><path d="M171.1 162.8h-30.5v-5h30.5z" class="st1"/><path d="M129.3 157.8h11.3v5h-11.3zm5 18.1c2.8 0 5 2.2 5 5s-2.2 5-5 5-5-2.2-5-5 2.3-5 5-5z" class="st2"/><path d="m124.2 162.8-26.3 14.8c-1.1-1-2.8-1.6-4.6-1.6s-3.3.6-4.4 1.5l-26.1-14.7h61.4zm5.1 0H98.8v-5h30.5zm-14.7 29.1H72.4l15.3-8.6c1 1.6 3.1 2.7 5.5 2.7s4.6-1.2 5.6-2.9l15.8 8.8z" class="st1"/><path d="M99.5 181c0 .8-.2 1.5-.6 2.1l-5.4-3.1 4.4-2.5c1 1 1.6 2.2 1.6 3.5zm-6-.9 5.4 3.1c-1 1.7-3.1 2.9-5.6 2.9s-4.5-1.1-5.5-2.7c0-.1 5.7-3.3 5.7-3.3z" class="st1"/><path d="M87.5 157.8h11.3v5H87.5z" class="st2"/><path d="M93.3 175.9c1.8 0 3.5.6 4.6 1.6l-4.4 2.5-4.6-2.6c1.1-.9 2.7-1.5 4.4-1.5zm.2 4.2-5.7 3.2c-.4-.7-.7-1.5-.7-2.3 0-1.4.7-2.6 1.8-3.5l4.6 2.6z" class="st1"/><path d="m62.8 162.8 26.1 14.7c-1.1.9-1.8 2.1-1.8 3.5 0 .8.2 1.6.7 2.3l-15.3 8.6H30.8l-15.6-8.8c.4-.6.6-1.4.6-2.1 0-1.3-.6-2.5-1.6-3.4l26.3-14.8h22.3zM54.2 181c0-2.8-2.2-5-5-5s-5 2.2-5 5 2.2 5 5 5 5-2.3 5-5z" class="st1"/><path d="M87.5 162.8H57v-5h30.5z" class="st1"/><path d="M45.7 157.8H57v5H45.7zm3.5 18.1c2.8 0 5 2.2 5 5s-2.2 5-5 5-5-2.2-5-5 2.3-5 5-5z" class="st2"/><path d="M45.7 162.8H15.2v-5h30.5zm-14.9 29.1H.2v-6.5l3.8-2.1c1 1.6 3.1 2.7 5.5 2.7s4.6-1.2 5.6-2.9l15.7 8.8zM15.7 181c0 .8-.2 1.5-.6 2.1L9.7 180l4.4-2.5c1 1 1.6 2.2 1.6 3.5z" class="st1"/><path d="M3.9 157.8h11.3v5H3.9z" class="st2"/><path d="m9.7 180.1 5.4 3.1c-1 1.7-3.1 2.9-5.6 2.9S5 184.9 4 183.3l5.7-3.2zm-.2-4.2c1.8 0 3.5.6 4.6 1.6L9.7 180l-4.6-2.6c1.1-.9 2.7-1.5 4.4-1.5z" class="st1"/><path d="M9.7 180.1 4 183.3c-.4-.7-.7-1.5-.7-2.3 0-1.4.7-2.6 1.8-3.5l4.6 2.6zm-9.5-5.4 4.8 2.7c-1.1.9-1.8 2.1-1.8 3.5 0 .8.2 1.6.7 2.3l-3.8 2.1.1-10.6z" class="st1"/><path d="M213 157.8H.2V89.7h269.9v68.1h-45.8z" style="fill:#d2d296"/><path d="M.2 162.8h40.2l-26.3 14.8c-1.1-1-2.8-1.6-4.6-1.6s-3.3.6-4.4 1.5l-4.8-2.7-.1-12z" class="st1"/><path d="M270.1 191.9H.2m0-108h269.9M.2 89.7h269.9m-4 68.1h4m-45.8 0h30.5m-72.4 0H213m-72.4 0h30.5m-72.3 0h30.5m-72.3 0h30.5m-72.3 0h30.5m-45.5 0h3.7m262.2 5h4m-45.8 0h30.5m-72.4 0H213m-72.4 0h30.5m-72.3 0h30.5m-72.3 0h30.5m-72.3 0h30.5m-45.5 0h3.7m68.5 29.1 15.4-8.6 5.7-3.2 4.4-2.5 26.3-14.8" class="st4"/><path d="m114.6 191.9-15.7-8.8-5.4-3-4.6-2.7-26.1-14.6m76.6 18.2c0 2.8-2.2 5-5 5s-5-2.2-5-5 2.2-5 5-5 5 2.2 5 5zm84.6 0c0 2.8-2.2 5-5 5s-5-2.2-5-5 2.2-5 5-5 5 2.2 5 5z" class="st4"/><path d="M97.9 177.6c1 .9 1.6 2.1 1.6 3.4 0 .8-.2 1.5-.6 2.1-1 1.7-3.1 2.9-5.6 2.9s-4.5-1.1-5.5-2.7c-.4-.7-.7-1.5-.7-2.3 0-1.4.7-2.6 1.8-3.5 1.1-.9 2.7-1.5 4.4-1.5 1.8-.1 3.5.6 4.6 1.6zM.2 185.4l3.8-2.1 5.7-3.2 4.4-2.5 26.3-14.8" class="st4"/><path d="m30.8 191.9-15.7-8.8-5.4-3-4.6-2.7-4.9-2.7" class="st4"/><path d="M14.1 177.6c1 .9 1.6 2.1 1.6 3.4 0 .8-.2 1.5-.6 2.1-1 1.7-3.1 2.9-5.6 2.9S5 184.9 4 183.3c-.4-.7-.7-1.5-.7-2.3 0-1.4.7-2.6 1.8-3.5 1.1-.9 2.7-1.5 4.4-1.5 1.8-.1 3.5.6 4.6 1.6zM156 191.9l15.4-8.6 5.7-3.2 4.4-2.5 26.3-14.8" class="st4"/><path d="m198.2 191.9-15.7-8.8-5.4-3-4.6-2.7-26.1-14.6" class="st4"/><path d="M181.5 177.6c1 .9 1.6 2.1 1.6 3.4 0 .8-.2 1.5-.6 2.1-1 1.7-3.1 2.9-5.6 2.9s-4.5-1.1-5.5-2.7c-.4-.7-.7-1.5-.7-2.3 0-1.4.7-2.6 1.8-3.5 1.1-.9 2.7-1.5 4.4-1.5 1.8-.1 3.5.6 4.6 1.6zm58.1 14.3 15.4-8.6 5.7-3.2 4.4-2.5 5-2.8" class="st4"/><path d="m270.1 185.3-4-2.2-5.4-3-4.6-2.7-26.1-14.6" class="st4"/><path d="M265.1 177.6c1 .9 1.6 2.1 1.6 3.4 0 .8-.2 1.5-.6 2.1-1 1.7-3.1 2.9-5.6 2.9s-4.5-1.1-5.5-2.7c-.4-.7-.7-1.5-.7-2.3 0-1.4.7-2.6 1.8-3.5 1.1-.9 2.7-1.5 4.4-1.5 1.8-.1 3.5.6 4.6 1.6zM54.2 181c0 2.8-2.2 5-5 5s-5-2.2-5-5 2.2-5 5-5 5 2.2 5 5zM3.9 157.8h11.3v5H3.9zm41.8 0H57v5H45.7zm41.8 0h11.3v5H87.5zm41.8 0h11.3v5h-11.3zm41.8 0h11.3v5h-11.3zm41.9 0h11.3v5H213zm41.8 0h11.3v5h-11.3z" class="st4"/><path d="M73.3 126.5c.6.4 1.3.8 2.2 1.3 0 0-9 5.4-15.2 7.6-6.3 2.1-9.3-.1-10.3-1.2-1-1.1-2-6.7-2-6.7 2.6-.8 4.8-1.6 6.1-2.2 2.7.6 5.6 1.1 9.1 1.3 3.6.2 10.1 0 10.1-.1z" class="st5"/><path d="M93.2 131.6c-.5 3.5-1.6 6.8-2.9 9.7-3.3 7.2-8 12.3-8 12.3s-2.5-2-4.6-4.6c1.8-1 4.2-4.2 6.3-7.7 2.9-4.7 5.5-9.7 5.6-10 1.2.1 2.4.3 3.6.3zm-22.3 8.8c5.4-4.3 11.4-10.3 11.4-10.3 1.3.3 2.7.6 4.1.8-1.2 2.3-4.9 6.3-8.7 10-3.6 3.5-7.3 6.8-9.4 8.1 0 0-1.9-2-3.9-4.6 1.6-.5 4-2.1 6.5-4z" class="st6"/><path d="M193.1 20.7c10.7 4.7 19.9 15.4 19.9 15.4l.1.2c-1 .3-2.1.7-3.2 1.1 0 0-2.1-2.2-7.8-5.4-9.4-5.4-27.5-5.7-35.7-5.5l-2-5.3c6.4-3.4 25.5-1.9 28.7-.5z" class="st7"/><path d="M143.7 13.1c-.7-.3-1.5-.2-1.7.2s.2 1.1.9 1.5c.7.3 1.5.2 1.7-.2.2-.5-.2-1.2-.9-1.5zm7.2 4c.2-.5-.2-1.1-.9-1.5-.7-.3-1.5-.2-1.7.2-.2.5.2 1.1.9 1.5.8.4 1.5.3 1.7-.2zm3.2-3.1c-1 2.3-2.7 5.1-4.2 8-.8 1.6-1.6 3.7-2.4 5.9-.5 1.4-1 2.8-1.4 4.1-1.2 3.1-2.4 5.8-3.7 6.9-.6.5-1.4.8-2.2 1.1-1.9.6-4.2.7-6.4.5-1.4-.1-2.8-.4-3.9-.7-.4-.1-.7-.3-1-.4l-11.5 12.3-.2-.2-1.3-14.5c4.3-4 12.3-12.2 20.2-22.7 1.1-1.1 1.9-2 2.2-2.6 1.2-.8 2.3-1.4 3.4-1.3 1.2.1 9.9 4 12.4 3.6 0 .1 0 .1 0 0z" style="fill:#f8dab8"/><path d="M271.1 126.7s.5 4.1 0 10.4c-7.7 5.9-11.8 7.1-14 6.2-2.6-1.1-2.6-5.1-2.9-8 5.5-1 10.2-2.7 11.7-3.6 3.8-2 5.1-4.4 5.1-4.4l.1-.6z" class="st7"/><path d="M106.8 123.5c-.2.3-.5.5-.7.8-14.7-3.3-18.7-11.9-19.8-13.9 1.3-.6 2.6-1.1 3.9-1.7.1.4 2.4 8.2 18.8 12.5-.7.7-1.5 1.5-2.2 2.3z" class="st9"/><path d="M121.9 146.7s-1.2.4-10.5-2.9c-9.1-3.3-13.1-8.4-13.4-8.7-1.2-2-1.8-3.4-1.8-3.4h2.6l4.4-4.4 3-3c.2-.2.5-.5.7-.8 1.3 4 3.9 7.3 8 11.7.8.9 1.8 1.8 2.7 2.8 1 1.1 2.2 2.2 3.4 3.4-.2-.1-.3.9.9 5.3zm132.4-11.5c.3 2.9.2 7 2.8 8 0 0-.4.4-1.5 1.1-2.3.9-10.8-2.1-10.8-2.1 2.1-3 4.4-5.6 6-6.5 1.2-.1 2.4-.3 3.5-.5z" class="st7"/><path d="M155.8 46.1c-2.2-3.1-13.7-6.4-15.4-5.1-.2-.6-.3-1-.3-1 .9-.3 1.6-.6 2.2-1.1 1.3-1 2.5-3.7 3.7-6.9 4.6 2.4 13.7 6.3 15.9 9.5-1.3.9-3.5 2.6-6.1 4.6zm82.1 88.6c-1.1-.6-2-1.4-2.7-2.5 0 0 24.4-1.9 35.8-8.7v3.8s-1.4 2.4-5.1 4.4c-1.6.8-6.3 2.5-11.7 3.6-1.1.2-2.3.4-3.4.5-4.1.5-8.3.5-11.9-.6-.3-.2-.6-.4-1-.5z" class="st9"/><path d="M271.1 108.6v14.8c-.9-.9-2-1.7-3.2-2.4-1.1-.7-2.4-1.4-3.7-2-9.1-4.3-21.7-6.5-28.7-8.2.3-1.1.7-2.2 1.1-3.3 9.1-.4 32.5.2 34.5 1.1z" class="st6"/><path d="M271.1 98.5v10.2c-2-1-25.4-1.5-34.5-1.1.7-2 1.5-3.9 2.4-5.6l-7 2.3-.3-.8c-1.1-1.1-2.2-1.8-3.1-2.3 10.5-2.7 29.7-6.9 42.5-2.7z" class="st6"/><path d="M271.1 90v8.5c-12.8-4.1-32 .1-42.5 2.7-1.4-.7-2.6-.8-3.9-.5l-.1-.3c-5.1-4.6-13.3.2-13.7.4-1.1-1.1-2.2-2.1-3.2-3.2l-3-3c15.5-4.8 52.2-9.8 66.4-4.6z" class="st6"/><path d="M271.1 77v13c-14.2-5.2-50.9-.2-66.4 4.7-1.3-1.3-2.3-2.3-2.6-2.7-1.7-1.8-7.8-6-12.8-4.7 6.5-2.1 12.9-3.8 18.2-4.7 18.1-3 50.5-6.6 63.6-5.6z" class="st6"/><path d="M271.1 61.7V77c-13.1-1-45.5 2.6-63.6 5.6-5.3.9-11.7 2.7-18.2 4.7-.3.1-.6.2-1 .3h-.1c-15.5 5-30.8 11.6-30.8 11.6l-2.6-5.4s21.6-11.2 37.5-17.1c14.5-5.3 49.6-11.2 72.6-14.2 2.2-.3 4.3-.5 6.2-.8zm0-3.9v1.4c-2.9 1.7-4.9 2.5-6.3 2.6-3.2.4-3.2-2.3-3.8-3.8 5.4-.1 10.1-.2 10.1-.2z" class="st6"/><path d="M267.9 121.1c1.2.8 2.3 1.6 3.2 2.4-11.4 6.8-35.8 8.7-35.8 8.7-.7-1-1.1-2.3-1.4-3.7 8.5-.3 18.6.1 34-7.4z" class="st9"/><path d="m264.8 61.8.1.7c-23 3-58.1 8.9-72.6 14.2-15.9 5.8-37.5 17.1-37.5 17.1-.6-.6-1.9-3.6-3.5-7.3C174 75.7 199 62.3 221 59.7c16.9-2 19.8-2.1 23.9-1.9.8 0 1.6.1 2.5.1 2.9.1 8.5.1 13.6 0 .6 1.5.7 4.2 3.8 3.9z" class="st6"/><path d="M264.2 119.1c1.3.6 2.6 1.3 3.7 2-15.3 7.6-25.4 7.1-34.1 7.5-.2-1.1-.4-2.3-.4-3.5 8.3.5 24.9-1 30.6-5.5l.2-.5z" class="st9"/><path d="m264.2 119.1-.2.4c-5.8 4.5-22.3 6-30.6 5.5-.2-4.3.7-9.4 2.1-14.1 7 1.6 19.6 3.9 28.7 8.2z" class="st5"/><path d="m260.9 57.8.1.2c-5 .1-10.7.1-13.6 0-.9 0-1.7-.1-2.5-.1l.1-1.2c.7 0 1.5-.5 2.4-2 2.7-4.2 4.7-6.9 6.8-7.8l.9-.3c1.6-.2 2.6 1.1 3.1 3.4.6 2.7 2.7 7.8 2.7 7.8z" class="st6"/><path d="M255.6 144.4c-1.1.8-2.9 1.9-5.9 3.3-3 1.5-6.7 2.6-10.2 3.4.8-2 2.9-5.6 5.2-8.9.1 0 8.6 3.1 10.9 2.2z" class="st7"/><path d="m255.1 46.5-.9.3c-2.1.9-4.1 3.6-6.8 7.8-.9 1.5-1.7 2-2.4 2-1.3 0-2.2-1.8-3-2.6-.7-.7-1.3-4.2-1.6-7.5h14.7z" class="st6"/><path d="M239 135.1c3.5 1.1 7.8 1.1 11.9.6-1.6.8-3.9 3.5-6 6.5-2.3 3.2-4.4 6.9-5.2 8.9-3.2.7-6.1 1.2-7.9 1.3-3.6.3-34.8-10.6-35.6-10.9 4.5-1.5 8.5-3.3 11.4-5.4-1.8-.9-3.6-1.6-5-2.3 0 0 30.2 1.9 35.4.9.3.1.6.3 1 .4z" class="st7"/><path d="m245 56.6-.1 1.2c-4.1-.2-7.1-.1-23.9 1.9-22 2.5-47 15.9-69.7 26.7-.9-2.3-2-4.8-2.9-7.3l.1-.1c10.1-5.6 41.4-27.1 72.3-29.5 3.3 2.2 4.8 2 6.9-1.2 2.1-3.2 7.5-8.4 8.6-8.9s4.1-2 3.9 1.3c-.1 1.3 0 3.4.2 5.5.3 3.3.9 6.8 1.6 7.5.8 1.1 1.7 2.9 3 2.9z" class="st6"/><path d="m232 104.3 7-2.3c-.8 1.7-1.6 3.6-2.4 5.6-.4 1.1-.8 2.2-1.1 3.3-1.4 4.7-2.3 9.8-2.1 14.1.1 1.2.2 2.4.4 3.5.3 1.4.8 2.6 1.4 3.7.7 1.1 1.6 1.9 2.7 2.5-5.2 1.1-35.4-.9-35.4-.9-2.3-1-3.9-1.6-3.9-1.6l-.1-.1c1.7-1.2 3.2-2.5 4.6-3.6 4.5-3.7 14.3-14.4 15.8-19.9l13.1-4.3z" class="st7"/><path d="M236.3 39.7c-1.1.5-6.4 5.7-8.6 8.8-2.1 3.2-3.6 3.5-6.9 1.2-.8-1.4-1.3-3.8-1.7-7.3 0 0 15.5-2.1 17.2-2.7z" class="st6"/><path d="m231.7 103.5.3.8-13.1 4.4s-1.4-1.4-3.5-3.4c4.2-2.1 6.9-4 9.3-4.5 1.3-.3 2.5-.2 3.9.5 1 .4 2 1.1 3.1 2.2z" class="st7"/><path d="m224.7 100.4.1.3c-2.5.5-5.2 2.4-9.3 4.5-.4-.4-.8-.7-1.1-1.1-1-1-2.1-2.1-3.3-3.2.2-.3 8.4-5 13.6-.5z" class="st7"/><path d="M219.1 42.4c.5 3.5.9 5.9 1.7 7.3-30.9 2.4-62.1 23.9-72.3 29.5l-.1.1c-1.2-3.3-2.2-6.4-2.7-8.5 7.5-4.6 29.1-17.1 47.8-26.2 1.4-.7 2.7-1.3 4-1.9 1.8-.8 3.6-1.7 5.3-2.4 2.5-1.1 4.8-2 7-2.8 1.1-.4 2.2-.8 3.2-1.1 1.9-.6 3.6-1.1 5.1-1.4.4 2.8.7 5.3 1 7.4z" class="st6"/><path d="M173.5 133.1c-2.5 1.7-5.5 3.4-9 4.6-1.1.4-2.2.7-3.3 1v.3l-3.1-.3c-.4-.1-.9-1-1.4-2.2-.7-1.7-1.4-3.9-1.9-5.8l.4-.1c7.2-1.5 16.2-3.3 21.4-7.1s16.6-9.9 18.9-11 17.6-7.8 17.6-7.8.5-.3 1.4-.7l1.1 1.1c2.1 2 3.5 3.4 3.5 3.4s-9.8 4.9-16 7.3c-6.2 2.4-20.8 10.4-24.3 13.3-1.6 1.2-3.3 2.6-5.3 4z" class="st9"/><path d="M202.9 115.9c6.2-2.4 16-7.3 16-7.3-1.5 5.5-11.3 16.2-15.8 19.9-1.3 1.1-2.9 2.3-4.6 3.6-2.8 2-5.9 4-9.2 5.3-2.9 0-3.2-.1-4.9-4.3-4.4 1.7-10.7.1-11 0 2.1-1.4 3.8-2.8 5.1-3.9 3.6-3 18.2-11 24.4-13.3z" class="st7"/><path d="M214.2 104.1c-.9.4-1.4.7-1.4.7s-15.4 6.6-17.6 7.8-13.7 7.3-18.9 11c-5.2 3.7-14.2 5.6-21.4 7.1l-.4.1c-.3-.9-.5-1.8-.6-2.4-.2-.8-.5-1.3-.9-1.7 7.2-1.5 16.2-3.3 21.4-7.1s16.6-9.9 18.9-11c2.3-1.1 17.6-7.8 17.6-7.8l3.3 3.3z" class="st9"/><path d="M211 100.8s-15.3 6.7-17.6 7.8c-2.2 1.1-13.7 7.3-18.9 11s-14.1 5.6-21.4 7.1c-.4-.3-.8-.5-1.2-.5-2.1-.3-4.1-.7-5.9-1.2-1.6-.4-3.1-.8-4.5-1.2 9.4-.4 15.2-.2 19.9-1.9 4.7-1.7 24.9-12.5 28.6-14.7s16.1-8.6 17.6-9.3l.2-.2c1 1 2.1 2.1 3.2 3.1zM202 32c5.8 3.2 7.8 5.4 7.8 5.4-2.2.8-4.5 1.8-7 2.8-1.6-.9-12.7-4.8-17.2-5.3s-19.4-1-19.4-1v-7.4c8.3-.2 26.4.2 35.8 5.5z" class="st9"/><path d="M111.3 66.6c8.3-9.5 22.4-25.7 22.4-25.7v-.4c2.2.2 4.5 0 6.4-.5 0 0 .1.4.3 1 .2.8.6 1.9.9 3.3.4 1.3.8 2.7 1.2 4.1.9 3.2 1.9 6.1 2.2 6.3 1.6-1.2 3.4-2.5 5.1-3.9 1.1-.8 2.1-1.7 3.1-2.5s1.9-1.5 2.8-2.2c2.6-2 4.8-3.7 6.1-4.6.5-.3.9-.5 1.1-.6.4-.1 1.6-.3 3.2-.3 6.3-.2 19.7.4 27.2 3.9-18.7 9-40.2 21.5-47.8 26.2.5 2.1 1.5 5.2 2.7 8.5.9 2.5 1.9 5 2.9 7.3 1.6 3.7 2.9 6.7 3.5 7.3l2.6 5.4s15.4-6.5 30.8-11.6h.1c.3-.1.7-.2 1-.3 5-1.2 11.1 2.9 12.8 4.7.4.4 1.3 1.4 2.6 2.7l3 3-.2.2c-1.5.7-13.9 7.1-17.6 9.3s-23.9 13-28.6 14.7c-4.7 1.8-10.5 1.5-19.9 1.9-.5-.2-1.1-.3-1.6-.5-1.6-.5-3.1-1-4.6-1.6-10-3.8-16.1-8.3-17.8-9.8.9-1 1.6-1.9 2.2-2.7 4.7-6.2 1.7-12.8-5.2-16.1-1.6-.8-4.5-1.4-8.2-1.9V89c-.7-4.9-2-9.5-3.5-13.7l.4-28.2c3.5-2.2 6.3-4.4 8.5-6.2l-.3 16.3-.2 9.1.4.3z" class="st5"/><path d="M196.1 141.4c-14.3 4.8-33.8 6.9-41.3 6.2l10.4-8.2-4.1-.4v-.3c1.1-.3 2.2-.6 3.3-1 0 0 13.5 2.3 20.4 1 1.5-.3 3-.8 4.5-1.4 3.3-1.3 6.4-3.3 9.2-5.3l.1.1s1.6.6 3.9 1.6c1.5.6 3.2 1.4 5 2.3-2.9 2.1-6.8 3.9-11.4 5.4z" class="st7"/><path d="M202.8 40.3c-1.7.7-3.5 1.5-5.3 2.4-2.5-1.2-9.5-3.5-14.2-4.1-4.8-.6-17-.9-17-.9v-3.8s14.9.5 19.4 1c4.4.5 15.6 4.5 17.1 5.4z" class="st9"/><path d="M197.5 42.7c-1.3.6-2.7 1.2-4 1.9-7.5-3.5-20.9-4.2-27.2-3.9v-2.9s12.2.3 17 .9c4.7.5 11.7 2.7 14.2 4z" class="st9"/><path d="M184.4 133.1c1.7 4.2 2 4.3 4.9 4.3-1.5.6-3 1.1-4.5 1.4-6.9 1.3-20.4-1-20.4-1 3.5-1.2 6.5-2.9 9-4.6.3 0 6.6 1.6 11-.1zm-18.1-92.5c-1.7.1-2.8.2-3.2.3-.3.1-.6.3-1.1.6-2.2-3.2-11.3-7.1-15.9-9.5.5-1.3 1-2.7 1.4-4.1l16.8-6.8 2 5.3v14.2z" class="st7"/><path d="m154.8 147.7-2.9 2.3-5.5-6.9c4.3-1.4 8.5-3 11.6-4.3l3.1.3 4.1.4-10.4 8.2z" class="st5"/><path d="M164.2 21.2 147.5 28c.8-2.2 1.5-4.2 2.4-5.9 1.5-2.9 3.3-5.8 4.2-8 .7-1.6.9-3 .4-4 2.9.7 7.4 8.2 9.7 11.1zm-7.6 115.3c.5 1.2 1 2.1 1.4 2.2-3 1.3-7.3 2.9-11.6 4.3-1 .3-2.1.6-3.1.9-1.6.4-3.2.8-4.6 1.1-2 .4-3.9.6-5.4.6-1.6-.3-3.1-.7-4.6-1.2 2.9-2.2 7-5.6 10.8-8.8l17.1.9z" class="st7"/><path d="m156.6 136.5-17.2-.7c4.6-3.9 8.8-7.6 9.9-8.5.9-.8 1.8-1.1 2.6-1.1.5 0 .9.2 1.2.5.4.4.7.9.9 1.7.1.6.3 1.4.6 2.4.6 1.8 1.3 4 2 5.7z" class="st7"/><path d="M154.5 10.1c.6.9.3 2.3-.4 4-2.5.4-11.2-3.5-12.3-3.7-1.1-.1-2.2.5-3.4 1.3-.3.6-1.2 1.6-2.2 2.6-1.3 1.3-2.9 2.8-4.2 4-.9.8-1.6 1.5-2.1 2-1.9 1.9-18.4 16-24.5 20-6.1 4-17.6 10.4-24.3 11.2.6-1 1.7-2.5 3-4.2 4-5.1 10.7-12.3 16.8-16.9 2-1.5 4-2.8 5.7-3.5 8.7-3.8 23.7-13.1 28.1-16.2s11.9-4.8 14.4-3.9 4.5 2.3 5.4 3.3z" class="st2"/><path d="M155.8 46.1c-.9.7-1.9 1.5-2.8 2.2-3.8-3.2-11.7-4.1-11.7-4.1-.4-1.3-.7-2.5-.9-3.3 1.8-1.2 13.2 2.1 15.4 5.2z" class="st9"/><path d="m146.4 143 5.5 6.9-3.8 1.4-4.9-7.4c1.1-.2 2.2-.5 3.2-.9z" class="st6"/><path d="M151.9 126.2c-.8-.1-1.7.3-2.6 1.1-1.1 1-5.3 4.6-9.9 8.5-3.8 3.2-7.9 6.6-10.8 8.8-4.2-1.4-7.8-3.2-7.8-3.2 4.4-2.1 23.2-14.2 25.1-16.3 2 .3 3.9.7 6 1.1z" class="st9"/><path d="M150 15.7c.7.3 1.2 1 .9 1.5s-1 .6-1.7.2c-.7-.3-1.2-1-.9-1.5s1-.6 1.7-.2z" class="st2"/><path d="M153 48.3c-1 .8-2.1 1.6-3.1 2.5-3.5-2.9-7.3-2.5-7.3-2.5-.4-1.4-.8-2.8-1.2-4.1 0 .1 7.8.9 11.6 4.1z" class="st9"/><path d="m148.1 151.4-4.3 1.6-5.2-7.9c1.5-.3 3.1-.7 4.6-1.1l4.9 7.4z" class="st6"/><path d="M149.9 50.8c-1.7 1.3-3.5 2.7-5.1 3.9-.3-.3-1.2-3.2-2.2-6.3 0-.1 3.8-.5 7.3 2.4z" class="st9"/><path d="M143.7 13.1c.7.3 1.2 1 .9 1.5-.2.5-1 .6-1.7.2-.7-.3-1.2-1-.9-1.5s.9-.5 1.7-.2z" class="st2"/><path d="m138.6 145.1 5.2 7.9-4.6 1.7-1.7-2.4-4.4-6.6c1.7 0 3.5-.2 5.5-.6z" class="st6"/><path d="M141.5 123.8c1.4.4 2.9.8 4.5 1.2-1.9 2.2-20.7 14.2-25.1 16.3-1.2-1.2-2.3-2.4-3.4-3.4 5.4-1.4 20.4-11.8 22.4-14.5v-.1c.5.2 1 .4 1.6.5z" class="st9"/><path d="M139.9 123.3v.1c-2 2.6-17 13-22.4 14.5-1-1-1.9-1.9-2.7-2.8 3.6-1.4 8.3-2.7 20.5-13.2v-.1c1.4.5 3 1.1 4.6 1.5z" class="st9"/><path d="M128.6 144.5c1.5.5 3.1.9 4.6 1.2l4.4 6.6-8.8 2.4-6.9-8c-1.2-4.4-1.1-5.4-1.1-5.4s3.6 1.9 7.8 3.2z" class="st6"/><path d="M135.3 121.8v.1c-12.2 10.5-16.9 11.8-20.5 13.2-4.1-4.4-6.7-7.7-8-11.7.7-.8 1.5-1.5 2.2-2.3 3-3.2 6.2-6.5 8.4-9.2 1.8 1.6 7.9 6.1 17.9 9.9zM84 55.9l.6 2c3.3 4.5 8.1 10.1 9.9 12.8s7 14 7.3 20.1c-12.2-1.2-29.5-1.5-39-2-.5 0-1.4 0-2.6.2-5-2.5-12.3-17-14.3-21 3.4-1.9 7.9-4.2 12.6-6.5 8.1-3.9 16.8-7.5 21.9-8.5.4-.9.6-1.5.6-1.5 6.7-.9 18.2-7.3 24.3-11.2 6.1-4 22.6-18.1 24.5-20 .5-.5 1.2-1.2 2.1-2 1.3-1.2 2.9-2.7 4.2-4-8 10.5-15.9 18.7-20.2 22.7-.3.3-.7.6-.9.9-.9.8-2 1.8-3.5 3-2.2 1.8-5 4-8.5 6.2-3.7 2.4-8.2 4.8-13.4 6.8-1.7.8-3.6 1.4-5.6 2z" class="st5"/><path d="M133.7 40.5v.4S119.6 57 111.3 66.6l-.2-.2.2-9.1h.8l5.2-5.6 11.5-12.3c.3.2.7.3 1 .4 1.1.4 2.5.6 3.9.7z" class="st10"/><path d="M90.2 108.6c-1.3.6-2.6 1.2-3.9 1.7-1.4.6-2.7 1.2-3.9 1.7-2.1.9-3.9 1.5-5.1 1.9l-.9 2.8s-11-.6-18.3-2.3c-5.6-1.3-11.3-4-16.1-5.8-4.8-1.8-14.4-3.8-14.4-3.8 4-3.3 8.4-6.8 11.4-8.9 1.2-.8 2.1-1.5 2.8-1.9.8-.4 1.8-.9 2.9-1.3 1.8-.7 4-1.3 6.3-1.9 1.4-.3 2.9-.7 4.3-.9 1.9-.4 3.6-.7 5-.8 1.1-.1 2-.2 2.6-.2 9.5.5 26.7.8 39 2 1.6.2 3 .3 4.4.5 3.7.5 6.6 1.1 8.2 1.9 6.9 3.3 9.9 9.9 5.2 16.1-.6.8-1.3 1.7-2.2 2.7-2.3 2.7-5.4 6-8.4 9.2-16.5-4.4-18.8-12.3-18.9-12.7z" class="st5"/><path d="m117.3 51.7-5.2 5.6h-.8l.3-16.3c1.4-1.2 2.6-2.3 3.5-3 .3-.3.6-.5.9-.9l1.2 14.5.1.1z" class="st10"/><path d="M106.2 89v2.3c-1.4-.2-2.8-.3-4.4-.5-.3-6.2-5.5-17.4-7.3-20.1s-6.6-8.2-9.9-12.8l-.6-2c2-.6 3.9-1.2 5.7-1.9l1.6.7c1.6 2.3 7.4 10 11.3 20.7 1.6 4.1 2.9 8.7 3.6 13.6z" class="st5"/><path d="m106.1 124.2-3 3C90.3 125 84.4 115.9 82.3 112c1.2-.5 2.6-1.1 3.9-1.7 1.1 2 5.1 10.6 19.9 13.9z" class="st9"/><path d="m103.1 47.2-.4 28.2c-4-10.7-9.7-18.5-11.3-20.7l-1.7-.7c5.2-2 9.6-4.4 13.4-6.8z" class="st5"/><path d="M58.5 61.3c4.7-17 38.4-31.4 42.5-30.9-6 4.6-12.7 11.8-16.8 16.9-19.4 5.8-25.7 14-25.7 14z" class="st7"/><path d="m103.1 127.2-4.4 4.4c-5-1.5-22.1-8.9-21.5-17.7 1.3-.4 3.1-1.1 5.1-1.9 2.1 3.9 8 13.1 20.8 15.2z" class="st6"/><path d="M98 135.1c.7 1.3 1.6 2.8 2.7 4.4-1.9 1.1-5.8 1.6-10.4 1.8 1.3-2.9 2.4-6.2 2.9-9.6v-.1c1 0 2 .1 3 .1 0 0 .6 1.4 1.8 3.4zm-8.3-3.8c-1.1-.1-2.2-.3-3.2-.4-1.5-.2-2.8-.5-4.1-.8-1.5-.4-2.9-.8-4.1-1.2-1-.4-1.9-.7-2.7-1.1-.9-.4-1.7-.9-2.2-1.3l1.4-4.6.8-2.6.8-2.6.9-2.8c-.6 8.8 16.5 16.2 21.5 17.7h-2.6c-1 0-2 0-3-.1-1.2.1-2.4 0-3.5-.2zM86.5 130.9c1 .2 2.1.3 3.2.4-.1.3-2.7 5.3-5.6 10-2.1-.1-4.1-.2-6.2-.3l-.1-.1c3.8-3.7 7.4-7.7 8.7-10z" class="st7"/><path d="M84.1 47.3c-1.3 1.7-2.4 3.2-3 4.2l-.6 1.5c-5.2 1-13.9 4.7-22 8.5l-.1-.2s6.4-8.2 25.7-14z" class="st10"/><path d="M78.3 128.9c1.2.4 2.6.8 4.1 1.2 0 0-6 6-11.4 10.3-4.9-.6-8.8-1.3-10.3-2.1l17.6-9.4z" class="st7"/><path d="m76.4 116.7-.8 2.6s-10.1-.6-15.8-1.5c-4.8-.8-13.6-4.2-18.8-6.3s-14.8-3.9-16.6-4c1-.9 2.1-1.8 3.3-2.7 0 0 9.5 2 14.4 3.8 4.8 1.8 10.5 4.5 16.1 5.8 7.1 1.7 18.1 2.3 18.2 2.3z" class="st9"/><path d="m75.5 119.3-.8 2.6s-9.2-.5-13.3-.8c-4-.3-15.9-4.5-21.5-6.8-5.5-2.2-15.3-3.9-18.9-4.1 1-.8 2.1-1.8 3.2-2.8 1.8.1 11.4 1.9 16.6 4s14 5.5 18.8 6.3c5.8 1 15.9 1.6 15.9 1.6z" class="st9"/><path d="m74.7 121.9-1.4 4.6s-6.4.3-10.2 0c-3.5-.2-6.5-.7-9.1-1.3-7.3-1.6-11.9-4.2-16.1-5.2-5.7-1.3-15.9-2.4-21.1-5.7.1-.3 1.8-1.9 4.4-4.1 3.6.2 13.3 1.9 18.9 4.1 5.5 2.3 17.4 6.5 21.5 6.8 3.9.3 13.1.8 13.1.8zm-19.4-32c-1.1 0-5.4-4.6-7.3-9-1.2-2.6-5.1-11.1-5.1-11.1.9-.5 1.9-1.2 3.1-1.8 2 4 9.2 18.5 14.3 21-1.4.2-3.2.5-5 .9z" class="st9"/><path d="M55.3 89.9c-1.4.3-2.8.6-4.3 1-2-1.2-5.9-6.1-8.5-11-1.5-2.9-2.5-5.8-2.5-8 0-.3 1.1-1 2.8-2.1 0 0 4 8.5 5.1 11.1 2 4.3 6.2 8.9 7.4 9z" class="st9"/><path d="M37.9 120.1c4.2 1 8.8 3.5 16.1 5.2-1.3.6-3.5 1.4-6.1 2.2-5.3 1.7-12.2 3.5-15.6 3.5-5-.1-15.3-16-15.6-16.5 5.3 3.2 15.5 4.3 21.2 5.6z" class="st7"/><path d="M51 90.8c-2.2.6-4.4 1.2-6.3 1.9-.2-1.1-5.4-5.3-6.8-6.1 1.3-2.3 2.9-4.7 4.6-6.7 2.6 4.9 6.5 9.7 8.5 10.9z" class="st6"/><path d="M44.7 92.7c-1.2.4-2.2.8-2.9 1.3-.7.4-1.7 1-2.8 1.9 0 0-2.4.2-4.9 0 0-1.2 1.5-5.1 3.9-9.3 1.3.8 6.6 5 6.7 6.1z" class="st7"/><path d="M132 18.3c1.3-1.2 2.9-2.7 4.2-4 1.1-1.1 1.9-2 2.2-2.6 1.2-.8 2.3-1.4 3.4-1.3 1.1.1 9.8 4.1 12.3 3.7m-70 33.2c-1.3 1.7-2.4 3.2-3 4.2 6.7-.9 18.2-7.3 24.3-11.2 6.1-4 22.6-18.1 24.5-20 .5-.5 1.2-1.2 2.1-2" class="st11"/><path d="M147.5 28c.8-2.2 1.5-4.2 2.4-5.9 1.5-2.9 3.3-5.8 4.2-8 .7-1.6.9-3 .4-4-.9-1-2.9-2.4-5.4-3.3s-10.1.8-14.4 3.9c-4.4 3.2-19.4 12.5-28.1 16.2-1.8.8-3.7 2-5.7 3.5-6 4.6-12.7 11.8-16.8 16.9" class="st11"/><path d="M123.4 35.1s2.4 2.9 5.4 4.3c.3.2.7.3 1 .4 1.1.3 2.4.6 3.9.7 2.2.2 4.5 0 6.4-.5.9-.3 1.6-.6 2.2-1.1 1.3-1 2.5-3.7 3.7-6.9.5-1.3 1-2.7 1.4-4.1" class="st11"/><path d="M144.7 23.9c-.1 2.6-1 5-1.4 6.5-.4 1.4-1.7 2.1-3.7 1.4m-.6-10.9c1.8.3 2.6.6 2.6.6m4.9 1.8c.5.2 1.1.5 1.6.9" class="st11"/><path d="M138.4 30.4s-.6.5-.8 1" style="fill:none;stroke:#000;stroke-width:.75;stroke-linecap:round;stroke-linejoin:round"/><path d="M137 34.9s.9.7 1.5.6m6.1-20.9c-.2.5-1 .6-1.7.2-.7-.3-1.2-1-.9-1.5s1-.6 1.7-.2c.7.3 1.1 1 .9 1.5zm6.4 2.5c-.2.5-1 .6-1.7.2-.7-.3-1.2-1-.9-1.5s1-.6 1.7-.2c.7.4 1.1 1.1.9 1.5zM81.1 51.5l-.6 1.5c-1.8 4.3-6.8 17-7.2 18.9m5-3.9s12.3 9.6 15.5 14.7M84.6 58c3.3 4.5 8.1 10.1 9.9 12.8s7 14 7.3 20.1M91.3 54.7c1.6 2.3 7.4 10 11.3 20.7 1.6 4.2 2.8 8.8 3.5 13.7v2.3m-89.4 23c5.2 3.3 15.5 4.3 21.1 5.7 4.2 1 8.8 3.5 16.1 5.2 2.7.6 5.6 1.1 9.1 1.3 3.8.3 10.2 0 10.2 0" class="st11"/><path d="M90.2 108.6c-1.3.6-2.6 1.2-3.9 1.7-1.4.6-2.7 1.2-3.9 1.7-2.1.9-3.9 1.5-5.1 1.9-.6 8.8 16.5 16.2 21.5 17.7l4.4-4.4 3-3c.2-.2.5-.5.7-.8.7-.8 1.5-1.5 2.2-2.3 3-3.2 6.2-6.5 8.4-9.2.9-1 1.6-1.9 2.2-2.7 4.7-6.2 1.7-12.8-5.2-16.1-1.6-.8-4.5-1.4-8.2-1.9-1.4-.2-2.8-.3-4.4-.5-12.2-1.2-29.5-1.5-39-2-.5 0-1.4 0-2.6.2-1.4.2-3.1.4-5 .8-1.4.3-2.8.6-4.3.9-2.2.6-4.4 1.2-6.3 1.9-1.2.4-2.2.8-2.9 1.3-.7.4-1.7 1-2.8 1.9-3 2.2-7.3 5.6-11.4 8.9l-3.3 2.7c-1.2 1-2.3 1.9-3.2 2.8-2.5 2.2-4.3 3.8-4.4 4.1" class="st11"/><path d="M104.2 102.1s-4 1.9-9.1 4.3c-1.6.7-3.3 1.5-5 2.3" class="st11"/><path d="M87.4 101.8s7.4 1.8 7.8 4.6m-78.5 8h0c.3.5 10.6 16.5 15.6 16.5 3.4 0 10.3-1.8 15.6-3.5 2.6-.8 4.8-1.6 6.1-2.2m23.2-11.3-.9 2.8-.8 2.6-.8 2.6-1.4 4.6c.6.4 1.3.8 2.2 1.3.8.4 1.7.7 2.7 1.1 1.2.4 2.6.8 4.1 1.2 1.3.3 2.7.6 4.1.8 1 .2 2.1.3 3.2.4 1.2.1 2.3.2 3.5.3 1 0 2 .1 3 .1h2.6M82.3 112c2.1 3.9 7.9 13.1 20.8 15.2m-16.8-16.9s0 0 0 0c1.1 2 5.1 10.6 19.8 13.9m-15.9-15.6h0c.1.4 2.4 8.2 18.8 12.5" class="st11"/><path d="M21.1 110.3c3.6.2 13.3 1.9 18.9 4.1 5.5 2.3 17.4 6.5 21.5 6.8 4.1.3 13.3.8 13.3.8m-50.5-14.5c1.8.1 11.4 1.9 16.6 4s14 5.5 18.8 6.3c5.7 1 15.8 1.5 15.8 1.5m-47.9-14.5s9.5 2 14.4 3.8c4.8 1.8 10.5 4.5 16.1 5.8 7.3 1.7 18.3 2.3 18.3 2.3m-28.5 10.7s1 5.6 2 6.7c1 1.1 4 3.4 10.3 1.2s15.2-7.6 15.2-7.6m22.6 7.4c-1.2-2-1.8-3.4-1.8-3.4m-5.9 9.6c4.6-.2 8.5-.7 10.4-1.8-1.1-1.6-2-3.1-2.7-4.4M77.9 141c2.1.1 4.1.2 6.2.3m-5.8-12.4-17.6 9.4c1.5.8 5.5 1.5 10.3 2.1h0m27-5.3s0 0 0 0c.2.3 4.3 5.4 13.4 8.7 9.3 3.4 10.5 2.9 10.5 2.9-1.2-4.4-1.1-5.4-1.1-5.4-1.2-1.2-2.3-2.4-3.4-3.4-1-1-1.9-1.9-2.7-2.8-4.1-4.4-6.7-7.7-8-11.7" class="st11"/><path d="M89.7 131.3h0c-.1.3-2.7 5.3-5.6 10h0c-2.2 3.4-4.5 6.7-6.3 7.7 2.1 2.6 4.6 4.6 4.6 4.6s4.7-5.1 8-12.3c1.3-2.9 2.4-6.2 2.9-9.6m-11-1.6s-6 6-11.4 10.3c-2.5 2-4.9 3.6-6.5 4 2 2.6 3.9 4.6 3.9 4.6 2.1-1.3 5.8-4.6 9.4-8.1 3.8-3.7 7.4-7.7 8.7-10m35.5 15.8 6.9 8 8.8-2.4-4.4-6.6c-1.6-.3-3.1-.7-4.6-1.2-4.2-1.4-7.8-3.2-7.8-3.2 4.4-2.1 23.2-14.2 25.1-16.3" class="st11"/><path d="M151.9 126.2c.5 0 .9.2 1.2.5.4.4.7.9.9 1.7.1.6.3 1.4.6 2.4.5 1.8 1.2 4.1 1.9 5.8.5 1.2 1 2.1 1.4 2.2-3 1.3-7.3 2.9-11.6 4.3-1 .3-2.1.6-3.1.9-1.6.4-3.2.8-4.6 1.1-2 .4-3.9.6-5.4.6m-4.6-1.1h0c2.9-2.2 7-5.6 10.8-8.8 4.6-3.9 8.8-7.6 9.9-8.5.9-.8 1.8-1.1 2.6-1.1" class="st11"/><path d="m146.4 143 5.5 7 2.9-2.3 10.4-8.2-4.1-.4-3.1-.4m-9.9 12.7 3.8-1.4m-14.3 2.4 1.7 2.3 4.6-1.7 4.2-1.6m-9.5-6.3 5.3 7.9m-.6-9 4.8 7.4h0m-33.3-16.3c3.6-1.4 8.3-2.7 20.5-13.2m-17.8 16c5.4-1.4 20.3-11.8 22.4-14.5" class="st11"/><path d="M117.5 112c1.7 1.5 7.8 6 17.8 9.8 1.4.5 3 1.1 4.6 1.6.5.2 1 .3 1.6.5 1.4.4 2.9.8 4.5 1.2 1.9.4 3.9.8 5.9 1.2h0" class="st11"/><path d="M141.5 123.8c9.4-.4 15.2-.2 19.9-1.9 4.7-1.7 24.9-12.5 28.6-14.7s16.1-8.6 17.6-9.3m-19.4-10.2c-6.8 2.6-28.4 15.3-28.4 15.3m29.5-15.7c-.3.1-.6.2-1 .3" class="st11"/><path d="M161.1 138.7c1.1-.3 2.2-.6 3.3-1 3.5-1.2 6.5-2.9 9-4.6 2.1-1.4 3.8-2.8 5.1-3.9 3.5-2.9 18.1-10.9 24.3-13.3 6.2-2.4 16-7.3 16-7.3s-1.4-1.4-3.5-3.4c-.4-.4-.8-.7-1.1-1.1-1-1-2.1-2.1-3.3-3.2-1.1-1.1-2.2-2.1-3.2-3.2l-3-3c-1.3-1.3-2.3-2.3-2.6-2.7-1.7-1.8-7.8-6-12.8-4.7" class="st11"/><path d="m154.8 93.8 2.6 5.4s15.4-6.5 30.8-11.6h.1c.3-.1.7-.2 1-.3 0 0 0 0 0 0 6.5-2.1 12.9-3.8 18.2-4.7 18.1-3 50.5-6.6 63.6-5.6V61.7c-1.9.2-4 .5-6.2.8-23 3-58.1 8.9-72.6 14.2-15.9 5.8-37.5 17.1-37.5 17.1h0z" class="st11"/><path d="M148.6 79.2c10.1-5.6 41.4-27.1 72.3-29.5 3.3 2.2 4.8 2 6.9-1.2 2.1-3.2 7.5-8.4 8.6-8.9s4.1-2 3.9 1.3c-.1 1.3 0 3.4.2 5.5.3 3.3.9 6.8 1.6 7.5.8.8 1.7 2.6 3 2.6.7 0 1.5-.5 2.4-2 2.7-4.2 4.7-6.9 6.8-7.8l.9-.3c1.6-.2 2.6 1.1 3.1 3.4.6 2.7 2.7 7.8 2.7 7.8l.1.2c.6 1.5.7 4.2 3.8 3.8 1.4-.2 3.4-.9 6.3-2.6v-1.4s-4.7.1-10.1.2c-5 .1-10.7.1-13.6 0-.9 0-1.7-.1-2.5-.1-4.1-.2-7.1-.1-23.9 1.9-22 2.5-47 16-69.7 26.7-.1 0-.2.1-.3.1m89.3-39.9h14.7" class="st11"/><path d="M193.5 44.5c-18.7 9-40.2 21.5-47.8 26.2.5 2.1 1.5 5.2 2.7 8.5.9 2.5 1.9 5 2.9 7.3 1.6 3.7 2.9 6.7 3.5 7.3m42.7-51.1c-1.3.6-2.7 1.2-4 1.9m27.3 5.1c-.8-1.4-1.3-3.8-1.7-7.3-.3-2.1-.6-4.6-1-7.4-1.5.3-3.2.8-5.1 1.4-1 .3-2.1.7-3.2 1.1-2.2.8-4.5 1.8-7 2.8-1.7.7-3.5 1.5-5.3 2.4" class="st11"/><path d="M219.1 42.4s15.5-2.1 17.2-2.7M271.1 77v13c-14.2-5.2-50.9-.2-66.4 4.7m10.7 10.5c4.2-2.1 6.9-4 9.3-4.5 1.3-.3 2.5-.2 3.9.5 1 .5 2 1.2 3.1 2.3m6.2 31.2c-1.1-.6-2-1.4-2.7-2.5-.7-1-1.1-2.3-1.4-3.7-.2-1.1-.4-2.3-.4-3.5-.2-4.3.7-9.4 2.1-14.1.3-1.1.7-2.2 1.1-3.3.7-2 1.5-3.9 2.4-5.6l-7 2.3-13.1 4.4c-1.5 5.5-11.3 16.2-15.8 19.9-1.3 1.1-2.9 2.3-4.6 3.6-2.8 2-5.9 4-9.2 5.3-1.5.6-3 1.1-4.5 1.4-6.9 1.3-20.4-1-20.4-1m106.7-14.4v3.8s-1.4 2.4-5.1 4.4c-1.6.8-6.3 2.5-11.7 3.6-1.1.2-2.3.4-3.4.5-4.1.5-8.3.5-11.9-.6-.4-.1-.7-.3-1.1-.4" class="st11"/><path d="M233.4 125c8.3.5 24.9-1 30.6-5.5" class="st11"/><path d="M235.3 132.2s24.4-1.9 35.8-8.7c-.9-.9-2-1.7-3.2-2.4-1.1-.7-2.4-1.4-3.7-2-9.1-4.3-21.7-6.5-28.7-8.2" class="st11"/><path d="M233.8 128.5c8.6-.3 18.7.1 34.1-7.4m-13.6 14.1c.3 2.9.2 7 2.8 8 2.2.9 6.3-.3 14-6.2.5-6.3 0-10.3 0-10.3m-116.3 21h0c7.6.7 27.1-1.4 41.4-6.2 4.5-1.5 8.5-3.3 11.4-5.4-1.8-.9-3.6-1.6-5-2.3-2.3-1-3.9-1.6-3.9-1.6" class="st11"/><path d="M202.5 133.8s30.2 1.9 35.4.9h0m-41.8 6.7h0c.7.3 31.9 11.2 35.6 10.9 1.8-.1 4.7-.6 7.9-1.3 3.5-.8 7.2-1.9 10.2-3.4 2.9-1.4 4.7-2.6 5.9-3.3 1.1-.7 1.5-1.1 1.5-1.1" class="st11"/><path d="M239.6 151.1c.8-2 2.9-5.6 5.2-8.9 2.1-3 4.4-5.6 6-6.5" class="st11"/><path d="M244.8 142.2s8.5 3.1 10.8 2.1m-82.2-11.2h0c.3.1 6.6 1.7 11 0 1.7 4.2 2 4.3 4.9 4.3m-49.9-1.6 17.2.7h0m-3.5-9.8c7.2-1.5 16.2-3.3 21.4-7.1s16.6-9.9 18.9-11c2.3-1.1 17.6-7.8 17.6-7.8h0c.4-.2 8.5-5 13.7-.4" class="st11"/><path d="M155 130.6c7.2-1.5 16.2-3.3 21.4-7.1s16.6-9.9 18.9-11 17.6-7.8 17.6-7.8.5-.3 1.4-.7m-89.3-2.1c7.7.4 16.7 3.2 26.1 4.4 9.4 1.2 25.2 1.2 25.2 1.2m-52.4-12.8s15.3-5.8 21.8-5.8M114 90s21.2-12.8 31.7-14.6m-38 12.3s.4-.7 1.2-1.8c3.1-4.8 11.8-17.6 18.1-21.5 7.8-4.8 14.6-9.1 14.6-9.1" class="st11"/><path d="M108.8 85.8c6.7-4.2 22.6-13.6 30.8-15.3M132 18.3s0 0 0 0c-8.3 9.5-19.5 19.4-26.9 24.5-7.4 5.1-20.7 10.5-22.4 11.1" class="st11"/><path d="M136.2 14.3C128.2 24.8 120.3 33 116 37c-.3.3-.7.6-.9.9-.9.8-2 1.8-3.5 3-2.2 1.8-5 4-8.5 6.2-3.7 2.4-8.2 4.8-13.4 6.8-1.8.7-3.7 1.4-5.7 1.9-.1 0-.2 0-.3.1M115.9 37l1.2 14.5m11.7-12.1-11.5 12.3-5.2 5.5" class="st11"/><path d="m111.5 40.9-.3 16.3-.1 9.2m22.6-25.5S119.6 57 111.3 66.6c-3.1 3.5-5.3 6.2-5.8 6.8m-2.4-26.2-.4 28.2M140.1 40s.1.4.3 1c.2.8.6 1.9.9 3.3.4 1.3.8 2.7 1.2 4.1.9 3.2 1.9 6.1 2.2 6.3 1.6-1.2 3.4-2.5 5.1-3.9 1.1-.8 2.1-1.7 3.1-2.5s1.9-1.5 2.8-2.2c2.6-2 4.8-3.7 6.1-4.6.5-.3.9-.5 1.1-.6.4-.1 1.6-.3 3.2-.3 6.3-.2 19.7.4 27.2 3.9h0" class="st11"/><path d="M166.3 40.6V26.5c8.2-.2 26.4.1 35.7 5.5 5.8 3.2 7.8 5.4 7.8 5.4" class="st11"/><path d="M166.3 33.9s14.9.5 19.4 1c4.5.5 15.6 4.5 17.2 5.3m-36.6-2.5s12.2.3 17 .9c4.8.6 11.7 2.8 14.2 4.1h0M146 32c4.6 2.4 13.7 6.3 15.9 9.5m-21.5-.5c1.8-1.3 13.2 2 15.4 5.1m-14.4-1.8s7.8.9 11.7 4.1m-10.5-.1s3.8-.4 7.3 2.5M147.5 28h0l16.7-6.8 2.1 5.3m-11.8-16.4c2.9.8 7.4 8.2 9.8 11.1 6.5-3.4 25.6-1.9 28.8-.5 10.7 4.7 19.9 15.4 19.9 15.4m-112.1-5.7c-4-.5-37.8 13.8-42.5 30.9M80.5 53c-5.2 1-13.9 4.7-22 8.5-4.8 2.3-9.3 4.6-12.6 6.5-1.2.7-2.3 1.3-3.1 1.8-1.7 1.1-2.8 1.8-2.8 2.1 0 2.2 1 5.1 2.5 7.9 2.6 4.9 6.5 9.8 8.5 11" class="st11"/><path d="M58.5 61.3s6.3-8.1 25.7-14h0M42.8 69.8s4 8.5 5.1 11.1c2 4.4 6.2 9 7.3 9h.1M45.9 68c2 4 9.2 18.5 14.3 21m-17.7-9.2c-1.7 2-3.3 4.4-4.6 6.7-2.4 4.2-3.9 8.1-3.9 9.3 2.5.2 4.9 0 4.9 0" class="st11"/><path d="M37.9 86.6c1.4.8 6.7 5.1 6.8 6.1M271.1 90v8.5c-12.8-4.1-32 .1-42.5 2.7m42.5-2.7v10.2c-2-1-25.4-1.5-34.5-1.1m34.5 1v14.9" class="st11"/></g></svg>