<?xml version="1.0" encoding="utf-8"?>
<!-- Generator: Adobe Illustrator 28.0.0, SVG Export Plug-In . SVG Version: 6.00 Build 0)  -->
<svg version="1.1" id="_レイヤー_2" xmlns="http://www.w3.org/2000/svg" xmlns:xlink="http://www.w3.org/1999/xlink" x="0px"
	 y="0px" viewBox="0 0 271.8 192.4" style="enable-background:new 0 0 271.8 192.4;" xml:space="preserve">
<style type="text/css">
	.st0{clip-path:url(#SVGID_00000026853516707896297960000003341819435859985832_);}
	.st1{fill:#F3EDD7;}
	.st2{fill:#333333;}
	.st3{fill:#D2D296;}
	.st4{fill:none;stroke:#000000;stroke-miterlimit:10;}
	.st5{fill:#DAACE5;}
	.st6{fill:#FFFCD6;}
	.st7{fill:#FE3928;}
	.st8{fill:#F8DAB8;}
	.st9{fill:#DCCD4E;}
	.st10{fill:#FDFCDE;}
	.st11{fill:none;stroke:#000000;stroke-linecap:round;stroke-linejoin:round;}
	.st12{fill:none;stroke:#000000;stroke-width:0.75;stroke-linecap:round;stroke-linejoin:round;}
</style>
<g>
	<defs>
		<rect id="SVGID_1_" x="0.2" width="269.8" height="191.9"/>
	</defs>
	<clipPath id="SVGID_00000068654404015197252880000015795971300814630280_">
		<use xlink:href="#SVGID_1_"  style="overflow:visible;"/>
	</clipPath>
	<g style="clip-path:url(#SVGID_00000068654404015197252880000015795971300814630280_);">
		<g>
			<g>
				<rect x="0.2" y="157.8" class="st1" width="3.6" height="5"/>
				<path class="st1" d="M270.1,185.3v6.6h-30.4l15.4-8.6c1,1.6,3.1,2.7,5.5,2.7s4.6-1.2,5.6-2.9L270.1,185.3L270.1,185.3z"/>
				<path class="st1" d="M270.1,174.8v10.6l-4-2.2c0.4-0.6,0.6-1.4,0.6-2.1c0-1.3-0.6-2.5-1.6-3.4L270.1,174.8L270.1,174.8z"/>
				<path class="st1" d="M270.1,162.8v12l-5,2.8c-1.1-1-2.8-1.6-4.6-1.6s-3.3,0.6-4.4,1.5L230,162.8H270.1L270.1,162.8z"/>
				<polygon class="st1" points="270.1,83.9 270.1,89.7 1.1,89.7 0.2,89.7 0.2,83.9 				"/>
				<rect x="266.1" y="157.8" class="st1" width="4" height="5"/>
				<path class="st1" d="M266.7,181c0,0.8-0.2,1.5-0.6,2.1l-5.4-3.1l4.4-2.5C266.1,178.5,266.7,179.7,266.7,181L266.7,181z"/>
				<path class="st1" d="M260.7,180.1l5.4,3.1c-1,1.7-3.1,2.9-5.6,2.9s-4.5-1.1-5.5-2.7L260.7,180.1L260.7,180.1z"/>
				<rect x="254.8" y="157.8" class="st2" width="11.3" height="5"/>
				<path class="st1" d="M265.1,177.6l-4.4,2.5l-4.6-2.6c1.1-0.9,2.7-1.5,4.4-1.5C262.3,175.9,264,176.6,265.1,177.6L265.1,177.6z"
					/>
				<path class="st1" d="M260.7,180.1l-5.7,3.2c-0.4-0.7-0.7-1.5-0.7-2.3c0-1.4,0.7-2.6,1.8-3.5L260.7,180.1L260.7,180.1z"/>
				<path class="st1" d="M230,162.8l26.1,14.7c-1.1,0.9-1.8,2.1-1.8,3.5c0,0.8,0.2,1.6,0.7,2.3l-15.4,8.6h-41.5l-15.6-8.8
					c0.4-0.6,0.6-1.4,0.6-2.1c0-1.3-0.6-2.5-1.6-3.4l26.3-14.8L230,162.8L230,162.8z M224,181c0-2.8-2.2-5-5-5s-5,2.2-5,5s2.2,5,5,5
					S224,183.7,224,181z"/>
				<polygon class="st1" points="254.8,162.8 230,162.8 224.3,162.8 224.3,157.8 254.8,157.8 				"/>
				<rect x="213" y="157.8" class="st2" width="11.3" height="5"/>
				<path class="st2" d="M219,175.9c2.8,0,5,2.2,5,5s-2.2,5-5,5s-5-2.2-5-5S216.2,175.9,219,175.9z"/>
				<path class="st1" d="M207.8,162.8l-26.3,14.8c-1.1-1-2.8-1.6-4.6-1.6s-3.3,0.6-4.4,1.5l-26.1-14.7H207.8z"/>
				<polygon class="st1" points="182.4,162.8 182.4,157.8 213,157.8 213,162.8 207.8,162.8 				"/>
				<path class="st1" d="M198.2,191.9H156l15.4-8.6c1,1.6,3.1,2.7,5.5,2.7s4.6-1.2,5.6-2.9L198.2,191.9L198.2,191.9z"/>
				<path class="st1" d="M183.1,181c0,0.8-0.2,1.5-0.6,2.1l-5.4-3.1l4.4-2.5C182.5,178.5,183.1,179.7,183.1,181L183.1,181z"/>
				<path class="st1" d="M177.1,180.1l5.4,3.1c-1,1.7-3.1,2.9-5.6,2.9s-4.5-1.1-5.5-2.7L177.1,180.1L177.1,180.1z"/>
				<rect x="171.1" y="157.8" class="st2" width="11.3" height="5"/>
				<path class="st1" d="M176.9,175.9c1.8,0,3.5,0.6,4.6,1.6l-4.4,2.5l-4.6-2.6C173.6,176.5,175.2,175.9,176.9,175.9L176.9,175.9z"
					/>
				<path class="st1" d="M177.1,180.1l-5.7,3.2c-0.4-0.7-0.7-1.5-0.7-2.3c0-1.4,0.7-2.6,1.8-3.5L177.1,180.1L177.1,180.1z"/>
				<path class="st1" d="M146.4,162.8l26.1,14.7c-1.1,0.9-1.8,2.1-1.8,3.5c0,0.8,0.2,1.6,0.7,2.3l-15.4,8.6h-41.5l-15.6-8.8
					c0.4-0.6,0.6-1.4,0.6-2.1c0-1.3-0.6-2.5-1.6-3.4l26.3-14.8L146.4,162.8L146.4,162.8z M139.4,181c0-2.8-2.2-5-5-5s-5,2.2-5,5
					s2.2,5,5,5S139.4,183.7,139.4,181z"/>
				<polygon class="st1" points="171.1,162.8 146.4,162.8 140.6,162.8 140.6,157.8 171.1,157.8 				"/>
				<rect x="129.3" y="157.8" class="st2" width="11.3" height="5"/>
				<path class="st2" d="M134.3,175.9c2.8,0,5,2.2,5,5s-2.2,5-5,5s-5-2.2-5-5S131.6,175.9,134.3,175.9z"/>
				<path class="st1" d="M124.2,162.8l-26.3,14.8c-1.1-1-2.8-1.6-4.6-1.6s-3.3,0.6-4.4,1.5l-26.1-14.7
					C62.8,162.8,124.2,162.8,124.2,162.8z"/>
				<polygon class="st1" points="129.3,162.8 124.2,162.8 98.8,162.8 98.8,157.8 129.3,157.8 				"/>
				<path class="st1" d="M114.6,191.9H72.4l15.3-8.6c1,1.6,3.1,2.7,5.5,2.7s4.6-1.2,5.6-2.9L114.6,191.9L114.6,191.9z"/>
				<path class="st1" d="M99.5,181c0,0.8-0.2,1.5-0.6,2.1l-5.4-3.1l4.4-2.5C98.9,178.5,99.5,179.7,99.5,181L99.5,181z"/>
				<path class="st1" d="M93.5,180.1l5.4,3.1c-1,1.7-3.1,2.9-5.6,2.9s-4.5-1.1-5.5-2.7C87.8,183.3,93.5,180.1,93.5,180.1z"/>
				<rect x="87.5" y="157.8" class="st2" width="11.3" height="5"/>
				<path class="st1" d="M93.3,175.9c1.8,0,3.5,0.6,4.6,1.6l-4.4,2.5l-4.6-2.6C90,176.5,91.6,175.9,93.3,175.9L93.3,175.9z"/>
				<path class="st1" d="M93.5,180.1l-5.7,3.2c-0.4-0.7-0.7-1.5-0.7-2.3c0-1.4,0.7-2.6,1.8-3.5L93.5,180.1L93.5,180.1z"/>
				<path class="st1" d="M62.8,162.8l26.1,14.7c-1.1,0.9-1.8,2.1-1.8,3.5c0,0.8,0.2,1.6,0.7,2.3l-15.3,8.6H30.8l-15.6-8.8
					c0.4-0.6,0.6-1.4,0.6-2.1c0-1.3-0.6-2.5-1.6-3.4l26.3-14.8L62.8,162.8L62.8,162.8z M54.2,181c0-2.8-2.2-5-5-5s-5,2.2-5,5
					s2.2,5,5,5S54.2,183.7,54.2,181z"/>
				<polygon class="st1" points="87.5,162.8 62.8,162.8 57,162.8 57,157.8 87.5,157.8 				"/>
				<rect x="45.7" y="157.8" class="st2" width="11.3" height="5"/>
				<path class="st2" d="M49.2,175.9c2.8,0,5,2.2,5,5s-2.2,5-5,5s-5-2.2-5-5S46.5,175.9,49.2,175.9z"/>
				<polygon class="st1" points="45.7,162.8 40.4,162.8 15.2,162.8 15.2,157.8 45.7,157.8 				"/>
				<path class="st1" d="M30.8,191.9H0.2v-6.5l3.8-2.1c1,1.6,3.1,2.7,5.5,2.7s4.6-1.2,5.6-2.9L30.8,191.9L30.8,191.9z"/>
				<path class="st1" d="M15.7,181c0,0.8-0.2,1.5-0.6,2.1l-5.4-3.1l4.4-2.5C15.1,178.5,15.7,179.7,15.7,181L15.7,181z"/>
				<rect x="3.9" y="157.8" class="st2" width="11.3" height="5"/>
				<path class="st1" d="M9.7,180.1l5.4,3.1c-1,1.7-3.1,2.9-5.6,2.9S5,184.9,4,183.3L9.7,180.1z"/>
				<path class="st1" d="M9.5,175.9c1.8,0,3.5,0.6,4.6,1.6l-4.4,2.5l-4.6-2.6C6.2,176.5,7.8,175.9,9.5,175.9L9.5,175.9z"/>
				<path class="st1" d="M9.7,180.1L4,183.3c-0.4-0.7-0.7-1.5-0.7-2.3c0-1.4,0.7-2.6,1.8-3.5L9.7,180.1L9.7,180.1z"/>
				<path class="st1" d="M0.2,174.7l4.8,2.7c-1.1,0.9-1.8,2.1-1.8,3.5c0,0.8,0.2,1.6,0.7,2.3l-3.8,2.1L0.2,174.7L0.2,174.7z"/>
				<polygon class="st3" points="213,157.8 182.4,157.8 171.1,157.8 140.6,157.8 129.3,157.8 98.8,157.8 87.5,157.8 57,157.8 
					45.7,157.8 15.2,157.8 3.9,157.8 0.2,157.8 0.2,89.7 1.1,89.7 270.1,89.7 270.1,157.8 266.1,157.8 254.8,157.8 224.3,157.8 				
					"/>
				<path class="st1" d="M0.2,162.8h40.2l-26.3,14.8c-1.1-1-2.8-1.6-4.6-1.6s-3.3,0.6-4.4,1.5l-4.8-2.7L0.2,162.8L0.2,162.8z"/>
			</g>
			<g>
				<polyline class="st4" points="270.1,191.9 239.6,191.9 198.2,191.9 156,191.9 114.6,191.9 72.4,191.9 30.8,191.9 0.2,191.9 				
					"/>
				<line class="st4" x1="0.2" y1="83.9" x2="270.1" y2="83.9"/>
				<line class="st4" x1="0.2" y1="89.7" x2="270.1" y2="89.7"/>
				<line class="st4" x1="266.1" y1="157.8" x2="270.1" y2="157.8"/>
				<line class="st4" x1="224.3" y1="157.8" x2="254.8" y2="157.8"/>
				<line class="st4" x1="182.4" y1="157.8" x2="213" y2="157.8"/>
				<line class="st4" x1="140.6" y1="157.8" x2="171.1" y2="157.8"/>
				<line class="st4" x1="98.8" y1="157.8" x2="129.3" y2="157.8"/>
				<line class="st4" x1="57" y1="157.8" x2="87.5" y2="157.8"/>
				<line class="st4" x1="15.2" y1="157.8" x2="45.7" y2="157.8"/>
				<line class="st4" x1="0.2" y1="157.8" x2="3.9" y2="157.8"/>
				<line class="st4" x1="266.1" y1="162.8" x2="270.1" y2="162.8"/>
				<polyline class="st4" points="224.3,162.8 230,162.8 254.8,162.8 				"/>
				<polyline class="st4" points="182.4,162.8 207.8,162.8 213,162.8 				"/>
				<polyline class="st4" points="140.6,162.8 146.4,162.8 171.1,162.8 				"/>
				<polyline class="st4" points="98.8,162.8 124.2,162.8 129.3,162.8 				"/>
				<polyline class="st4" points="57,162.8 62.8,162.8 87.5,162.8 				"/>
				<polyline class="st4" points="15.2,162.8 40.4,162.8 45.7,162.8 				"/>
				<line class="st4" x1="0.2" y1="162.8" x2="3.9" y2="162.8"/>
				<polyline class="st4" points="72.4,191.9 87.8,183.3 93.5,180.1 97.9,177.6 124.2,162.8 				"/>
				<polyline class="st4" points="114.6,191.9 98.9,183.1 93.5,180.1 88.9,177.4 62.8,162.8 				"/>
				<path class="st4" d="M139.4,181c0,2.8-2.2,5-5,5s-5-2.2-5-5s2.2-5,5-5S139.4,178.2,139.4,181z"/>
				<path class="st4" d="M224,181c0,2.8-2.2,5-5,5s-5-2.2-5-5s2.2-5,5-5S224,178.2,224,181z"/>
				<path class="st4" d="M97.9,177.6c1,0.9,1.6,2.1,1.6,3.4c0,0.8-0.2,1.5-0.6,2.1c-1,1.7-3.1,2.9-5.6,2.9s-4.5-1.1-5.5-2.7
					c-0.4-0.7-0.7-1.5-0.7-2.3c0-1.4,0.7-2.6,1.8-3.5c1.1-0.9,2.7-1.5,4.4-1.5C95.1,175.9,96.8,176.6,97.9,177.6L97.9,177.6z"/>
				<polyline class="st4" points="0.2,185.4 4,183.3 9.7,180.1 14.1,177.6 40.4,162.8 				"/>
				<polyline class="st4" points="30.8,191.9 15.1,183.1 9.7,180.1 5.1,177.4 0.2,174.7 				"/>
				<path class="st4" d="M14.1,177.6c1,0.9,1.6,2.1,1.6,3.4c0,0.8-0.2,1.5-0.6,2.1c-1,1.7-3.1,2.9-5.6,2.9S5,184.9,4,183.3
					c-0.4-0.7-0.7-1.5-0.7-2.3c0-1.4,0.7-2.6,1.8-3.5c1.1-0.9,2.7-1.5,4.4-1.5C11.3,175.9,13,176.6,14.1,177.6L14.1,177.6z"/>
				<polyline class="st4" points="156,191.9 171.4,183.3 177.1,180.1 181.5,177.6 207.8,162.8 				"/>
				<polyline class="st4" points="198.2,191.9 182.5,183.1 177.1,180.1 172.5,177.4 146.4,162.8 				"/>
				<path class="st4" d="M181.5,177.6c1,0.9,1.6,2.1,1.6,3.4c0,0.8-0.2,1.5-0.6,2.1c-1,1.7-3.1,2.9-5.6,2.9s-4.5-1.1-5.5-2.7
					c-0.4-0.7-0.7-1.5-0.7-2.3c0-1.4,0.7-2.6,1.8-3.5c1.1-0.9,2.7-1.5,4.4-1.5C178.7,175.9,180.4,176.6,181.5,177.6L181.5,177.6z"/>
				<polyline class="st4" points="239.6,191.9 255,183.3 260.7,180.1 265.1,177.6 270.1,174.8 				"/>
				<polyline class="st4" points="270.1,185.3 266.1,183.1 260.7,180.1 256.1,177.4 230,162.8 				"/>
				<path class="st4" d="M265.1,177.6c1,0.9,1.6,2.1,1.6,3.4c0,0.8-0.2,1.5-0.6,2.1c-1,1.7-3.1,2.9-5.6,2.9s-4.5-1.1-5.5-2.7
					c-0.4-0.7-0.7-1.5-0.7-2.3c0-1.4,0.7-2.6,1.8-3.5c1.1-0.9,2.7-1.5,4.4-1.5C262.3,175.9,264,176.6,265.1,177.6L265.1,177.6z"/>
				<path class="st4" d="M54.2,181c0,2.8-2.2,5-5,5s-5-2.2-5-5s2.2-5,5-5S54.2,178.2,54.2,181z"/>
				<rect x="3.9" y="157.8" class="st4" width="11.3" height="5"/>
				<rect x="45.7" y="157.8" class="st4" width="11.3" height="5"/>
				<rect x="87.5" y="157.8" class="st4" width="11.3" height="5"/>
				<rect x="129.3" y="157.8" class="st4" width="11.3" height="5"/>
				<rect x="171.1" y="157.8" class="st4" width="11.3" height="5"/>
				<rect x="213" y="157.8" class="st4" width="11.3" height="5"/>
				<rect x="254.8" y="157.8" class="st4" width="11.3" height="5"/>
			</g>
		</g>
		<g>
			<g>
				<path class="st5" d="M73.3,126.5c0.6,0.4,1.3,0.8,2.2,1.3c0,0-9,5.4-15.2,7.6c-6.3,2.1-9.3-0.1-10.3-1.2c-1-1.1-2-6.7-2-6.7
					c2.6-0.8,4.8-1.6,6.1-2.2c2.7,0.6,5.6,1.1,9.1,1.3C66.8,126.8,73.3,126.6,73.3,126.5L73.3,126.5z"/>
				<path class="st6" d="M93.2,131.6L93.2,131.6c-0.5,3.5-1.6,6.8-2.9,9.7c-3.3,7.2-8,12.3-8,12.3s-2.5-2-4.6-4.6
					c1.8-1,4.2-4.2,6.3-7.7l0,0c2.9-4.7,5.5-9.7,5.6-10C90.8,131.4,92,131.6,93.2,131.6L93.2,131.6z"/>
				<path class="st6" d="M70.9,140.4c5.4-4.3,11.4-10.3,11.4-10.3c1.3,0.3,2.7,0.6,4.1,0.8c-1.2,2.3-4.9,6.3-8.7,10
					c-3.6,3.5-7.3,6.8-9.4,8.1c0,0-1.9-2-3.9-4.6C66,143.9,68.4,142.3,70.9,140.4L70.9,140.4z"/>
				<path class="st7" d="M193.1,20.7c10.7,4.7,19.9,15.4,19.9,15.4l0.1,0.2c-1,0.3-2.1,0.7-3.2,1.1c0,0-2.1-2.2-7.8-5.4
					c-9.4-5.4-27.5-5.7-35.7-5.5l-2-5.3C170.8,17.8,189.9,19.3,193.1,20.7L193.1,20.7z"/>
				<path class="st8" d="M143.7,13.1c-0.7-0.3-1.5-0.2-1.7,0.2s0.2,1.1,0.9,1.5c0.7,0.3,1.5,0.2,1.7-0.2
					C144.8,14.1,144.4,13.4,143.7,13.1z M150.9,17.1c0.2-0.5-0.2-1.1-0.9-1.5c-0.7-0.3-1.5-0.2-1.7,0.2c-0.2,0.5,0.2,1.1,0.9,1.5
					C150,17.7,150.7,17.6,150.9,17.1z M154.1,14c-1,2.3-2.7,5.1-4.2,8c-0.8,1.6-1.6,3.7-2.4,5.9l0,0c-0.5,1.4-1,2.8-1.4,4.1
					c-1.2,3.1-2.4,5.8-3.7,6.9c-0.6,0.5-1.4,0.8-2.2,1.1c-1.9,0.6-4.2,0.7-6.4,0.5c-1.4-0.1-2.8-0.4-3.9-0.7c-0.4-0.1-0.7-0.3-1-0.4
					l-11.5,12.3l-0.2-0.2L115.9,37c4.3-4,12.3-12.2,20.2-22.7c1.1-1.1,1.9-2,2.2-2.6c1.2-0.8,2.3-1.4,3.4-1.3
					C142.9,10.5,151.6,14.4,154.1,14C154.1,14.1,154.1,14.1,154.1,14z"/>
				<path class="st7" d="M271.1,126.7c0,0,0.5,4.1,0,10.4c-7.7,5.9-11.8,7.1-14,6.2c-2.6-1.1-2.6-5.1-2.9-8c5.5-1,10.2-2.7,11.7-3.6
					c3.8-2,5.1-4.4,5.1-4.4L271.1,126.7L271.1,126.7z"/>
				<path class="st9" d="M106.8,123.5c-0.2,0.3-0.5,0.5-0.7,0.8l0,0c-14.7-3.3-18.7-11.9-19.8-13.9c1.3-0.6,2.6-1.1,3.9-1.7
					c0.1,0.4,2.4,8.2,18.8,12.5C108.3,121.9,107.5,122.7,106.8,123.5L106.8,123.5z"/>
				<path class="st7" d="M121.9,146.7c0,0-1.2,0.4-10.5-2.9c-9.1-3.3-13.1-8.4-13.4-8.7v0c-1.2-2-1.8-3.4-1.8-3.4c0.8,0,1.7,0,2.6,0
					c0,0,1.8-1.8,4.4-4.4c0.9-0.9,1.9-1.9,3-3c0.2-0.2,0.5-0.5,0.7-0.8c1.3,4,3.9,7.3,8,11.7c0.8,0.9,1.8,1.8,2.7,2.8
					c1,1.1,2.2,2.2,3.4,3.4C120.8,141.3,120.7,142.3,121.9,146.7L121.9,146.7z"/>
				<path class="st7" d="M254.3,135.2c0.3,2.9,0.2,7,2.8,8c0,0-0.4,0.4-1.5,1.1c-2.3,0.9-10.8-2.1-10.8-2.1l0,0c2.1-3,4.4-5.6,6-6.5
					C252,135.6,253.2,135.4,254.3,135.2L254.3,135.2z"/>
				<path class="st9" d="M155.8,46.1c-2.2-3.1-13.7-6.4-15.4-5.1c-0.2-0.6-0.3-1-0.3-1c0.9-0.3,1.6-0.6,2.2-1.1
					c1.3-1,2.5-3.7,3.7-6.9c4.6,2.4,13.7,6.3,15.9,9.5C160.6,42.4,158.4,44.1,155.8,46.1L155.8,46.1z"/>
				<path class="st9" d="M237.9,134.7L237.9,134.7c-1.1-0.6-2-1.4-2.7-2.5h0c0,0,24.4-1.9,35.8-8.7v3.8c0,0-1.4,2.4-5.1,4.4
					c-1.6,0.8-6.3,2.5-11.7,3.6c-1.1,0.2-2.3,0.4-3.4,0.5c-4.1,0.5-8.3,0.5-11.9-0.6C238.6,135,238.3,134.8,237.9,134.7L237.9,134.7
					z"/>
				<path class="st6" d="M271.1,108.6v14.8c-0.9-0.9-2-1.7-3.2-2.4c-1.1-0.7-2.4-1.4-3.7-2c-9.1-4.3-21.7-6.5-28.7-8.2
					c0.3-1.1,0.7-2.2,1.1-3.3C245.7,107.1,269.1,107.7,271.1,108.6L271.1,108.6z"/>
				<path class="st6" d="M271.1,98.5v10.2c-2-1-25.4-1.5-34.5-1.1c0.7-2,1.5-3.9,2.4-5.6l-7,2.3l-0.3-0.8c-1.1-1.1-2.2-1.8-3.1-2.3
					C239.1,98.5,258.3,94.3,271.1,98.5L271.1,98.5z"/>
				<path class="st6" d="M271.1,90v8.5c-12.8-4.1-32,0.1-42.5,2.7c-1.4-0.7-2.6-0.8-3.9-0.5l-0.1-0.3c-5.1-4.6-13.3,0.2-13.7,0.4
					c-1.1-1.1-2.2-2.1-3.2-3.2c-1.1-1.1-2.1-2.1-3-3C220.2,89.8,256.9,84.8,271.1,90L271.1,90z"/>
				<path class="st6" d="M271.1,77v13c-14.2-5.2-50.9-0.2-66.4,4.7c-1.3-1.3-2.3-2.3-2.6-2.7c-1.7-1.8-7.8-6-12.8-4.7
					c6.5-2.1,12.9-3.8,18.2-4.7C225.6,79.6,258,76,271.1,77L271.1,77z"/>
				<path class="st6" d="M271.1,61.7V77c-13.1-1-45.5,2.6-63.6,5.6c-5.3,0.9-11.7,2.7-18.2,4.7c0,0,0,0,0,0c-0.3,0.1-0.6,0.2-1,0.3
					c0,0-0.1,0-0.1,0c-15.5,5-30.8,11.6-30.8,11.6l-2.6-5.4c0,0,21.6-11.2,37.5-17.1c14.5-5.3,49.6-11.2,72.6-14.2
					C267.1,62.2,269.2,62,271.1,61.7L271.1,61.7z"/>
				<path class="st6" d="M271.1,57.8v1.4c-2.9,1.7-4.9,2.5-6.3,2.6c-3.2,0.4-3.2-2.3-3.8-3.8C266.4,57.9,271.1,57.8,271.1,57.8
					L271.1,57.8z"/>
				<path class="st9" d="M267.9,121.1c1.2,0.8,2.3,1.6,3.2,2.4c-11.4,6.8-35.8,8.7-35.8,8.7h0c-0.7-1-1.1-2.3-1.4-3.7l0,0
					C242.4,128.2,252.5,128.6,267.9,121.1L267.9,121.1z"/>
				<path class="st6" d="M264.8,61.8l0.1,0.7c-23,3-58.1,8.9-72.6,14.2c-15.9,5.8-37.5,17.1-37.5,17.1c-0.6-0.6-1.9-3.6-3.5-7.3
					C174,75.7,199,62.3,221,59.7c16.9-2,19.8-2.1,23.9-1.9c0.8,0,1.6,0.1,2.5,0.1c2.9,0.1,8.5,0.1,13.6,0
					C261.6,59.4,261.7,62.1,264.8,61.8L264.8,61.8z"/>
				<path class="st9" d="M264.2,119.1c1.3,0.6,2.6,1.3,3.7,2c-15.3,7.6-25.4,7.1-34.1,7.5l0,0c-0.2-1.1-0.4-2.3-0.4-3.5
					c8.3,0.5,24.9-1,30.6-5.5L264.2,119.1L264.2,119.1z"/>
				<path class="st5" d="M264.2,119.1l-0.2,0.4c-5.8,4.5-22.3,6-30.6,5.5c-0.2-4.3,0.7-9.4,2.1-14.1
					C242.5,112.5,255.1,114.8,264.2,119.1L264.2,119.1z"/>
				<path class="st6" d="M260.9,57.8L261,58c-5,0.1-10.7,0.1-13.6,0c-0.9,0-1.7-0.1-2.5-0.1l0.1-1.2c0.7,0,1.5-0.5,2.4-2
					c2.7-4.2,4.7-6.9,6.8-7.8c0.3-0.1,0.6-0.2,0.9-0.3c1.6-0.2,2.6,1.1,3.1,3.4C258.8,52.7,260.9,57.8,260.9,57.8L260.9,57.8z"/>
				<path class="st7" d="M255.6,144.4c-1.1,0.8-2.9,1.9-5.9,3.3c-3,1.5-6.7,2.6-10.2,3.4l0,0c0.8-2,2.9-5.6,5.2-8.9l0,0
					C244.8,142.2,253.3,145.3,255.6,144.4z"/>
				<path class="st6" d="M255.1,46.5L255.1,46.5c-0.3,0.1-0.6,0.2-0.9,0.3c-2.1,0.9-4.1,3.6-6.8,7.8c-0.9,1.5-1.7,2-2.4,2
					c-1.3,0-2.2-1.8-3-2.6c-0.7-0.7-1.3-4.2-1.6-7.5L255.1,46.5L255.1,46.5z"/>
				<path class="st7" d="M239,135.1c3.5,1.1,7.8,1.1,11.9,0.6c-1.6,0.8-3.9,3.5-6,6.5c-2.3,3.2-4.4,6.9-5.2,8.9l0,0
					c-3.2,0.7-6.1,1.2-7.9,1.3c-3.6,0.3-34.8-10.6-35.6-10.9c4.5-1.5,8.5-3.3,11.4-5.4c-1.8-0.9-3.6-1.6-5-2.3
					c0,0,30.2,1.9,35.4,0.9l0,0C238.3,134.8,238.6,135,239,135.1L239,135.1z"/>
				<path class="st6" d="M245,56.6l-0.1,1.2c-4.1-0.2-7.1-0.1-23.9,1.9c-22,2.5-47,15.9-69.7,26.7c-0.9-2.3-2-4.8-2.9-7.3l0.1-0.1
					c10.1-5.6,41.4-27.1,72.3-29.5c3.3,2.2,4.8,2,6.9-1.2c2.1-3.2,7.5-8.4,8.6-8.9s4.1-2,3.9,1.3c-0.1,1.3,0,3.4,0.2,5.5
					c0.3,3.3,0.9,6.8,1.6,7.5C242.8,54.8,243.7,56.6,245,56.6L245,56.6z"/>
				<path class="st7" d="M232,104.3l7-2.3c-0.8,1.7-1.6,3.6-2.4,5.6c-0.4,1.1-0.8,2.2-1.1,3.3c-1.4,4.7-2.3,9.8-2.1,14.1
					c0.1,1.2,0.2,2.4,0.4,3.5c0.3,1.4,0.8,2.6,1.4,3.7c0.7,1.1,1.6,1.9,2.7,2.5c-5.2,1.1-35.4-0.9-35.4-0.9c-2.3-1-3.9-1.6-3.9-1.6
					l-0.1-0.1c1.7-1.2,3.2-2.5,4.6-3.6c4.5-3.7,14.3-14.4,15.8-19.9L232,104.3L232,104.3z"/>
				<path class="st6" d="M236.3,39.7c-1.1,0.5-6.4,5.7-8.6,8.8c-2.1,3.2-3.6,3.5-6.9,1.2c-0.8-1.4-1.3-3.8-1.7-7.3
					C219.1,42.4,234.6,40.3,236.3,39.7z"/>
				<path class="st7" d="M231.7,103.5l0.3,0.8l-13.1,4.4c0,0-1.4-1.4-3.5-3.4c4.2-2.1,6.9-4,9.3-4.5c1.3-0.3,2.5-0.2,3.9,0.5
					C229.6,101.7,230.6,102.4,231.7,103.5L231.7,103.5z"/>
				<path class="st7" d="M224.7,100.4l0.1,0.3c-2.5,0.5-5.2,2.4-9.3,4.5c-0.4-0.4-0.8-0.7-1.1-1.1c-1-1-2.1-2.1-3.3-3.2
					C211.3,100.6,219.5,95.9,224.7,100.4L224.7,100.4z"/>
				<path class="st6" d="M219.1,42.4c0.5,3.5,0.9,5.9,1.7,7.3c-30.9,2.4-62.1,23.9-72.3,29.5l-0.1,0.1c-1.2-3.3-2.2-6.4-2.7-8.5
					c7.5-4.6,29.1-17.1,47.8-26.2l0,0c1.4-0.7,2.7-1.3,4-1.9l0,0c1.8-0.8,3.6-1.7,5.3-2.4c2.5-1.1,4.8-2,7-2.8
					c1.1-0.4,2.2-0.8,3.2-1.1c1.9-0.6,3.6-1.1,5.1-1.4C218.5,37.8,218.8,40.3,219.1,42.4L219.1,42.4z"/>
				<path class="st9" d="M173.5,133.1c-2.5,1.7-5.5,3.4-9,4.6c-1.1,0.4-2.2,0.7-3.3,1l0,0.3l-3.1-0.3c-0.4-0.1-0.9-1-1.4-2.2
					c-0.7-1.7-1.4-3.9-1.9-5.8l0.4-0.1c7.2-1.5,16.2-3.3,21.4-7.1s16.6-9.9,18.9-11s17.6-7.8,17.6-7.8s0.5-0.3,1.4-0.7
					c0.4,0.4,0.8,0.8,1.1,1.1c2.1,2,3.5,3.4,3.5,3.4s-9.8,4.9-16,7.3c-6.2,2.4-20.8,10.4-24.3,13.3
					C177.2,130.3,175.5,131.7,173.5,133.1L173.5,133.1z"/>
				<path class="st7" d="M202.9,115.9c6.2-2.4,16-7.3,16-7.3c-1.5,5.5-11.3,16.2-15.8,19.9c-1.3,1.1-2.9,2.3-4.6,3.6
					c-2.8,2-5.9,4-9.2,5.3c-2.9,0-3.2-0.1-4.9-4.3c-4.4,1.7-10.7,0.1-11,0c2.1-1.4,3.8-2.8,5.1-3.9
					C182.1,126.2,196.7,118.2,202.9,115.9L202.9,115.9z"/>
				<path class="st9" d="M214.2,104.1c-0.9,0.4-1.4,0.7-1.4,0.7s-15.4,6.6-17.6,7.8s-13.7,7.3-18.9,11c-5.2,3.7-14.2,5.6-21.4,7.1
					l-0.4,0.1c-0.3-0.9-0.5-1.8-0.6-2.4c-0.2-0.8-0.5-1.3-0.9-1.7c7.2-1.5,16.2-3.3,21.4-7.1s16.6-9.9,18.9-11
					c2.3-1.1,17.6-7.8,17.6-7.8l0,0C212.1,102,213.2,103.1,214.2,104.1L214.2,104.1z"/>
				<path class="st9" d="M211,100.8L211,100.8c0,0-15.3,6.7-17.6,7.8c-2.2,1.1-13.7,7.3-18.9,11s-14.1,5.6-21.4,7.1
					c-0.4-0.3-0.8-0.5-1.2-0.5l0,0c-2.1-0.3-4.1-0.7-5.9-1.2c-1.6-0.4-3.1-0.8-4.5-1.2c9.4-0.4,15.2-0.2,19.9-1.9
					c4.7-1.7,24.9-12.5,28.6-14.7s16.1-8.6,17.6-9.3l0.2-0.2C208.8,98.7,209.9,99.8,211,100.8L211,100.8z"/>
				<path class="st9" d="M202,32c5.8,3.2,7.8,5.4,7.8,5.4c-2.2,0.8-4.5,1.8-7,2.8c-1.6-0.9-12.7-4.8-17.2-5.3
					c-4.5-0.5-19.4-1-19.4-1v-7.4C174.5,26.3,192.6,26.7,202,32L202,32z"/>
				<path class="st5" d="M111.3,66.6c8.3-9.5,22.4-25.7,22.4-25.7l0-0.4c2.2,0.2,4.5,0,6.4-0.5c0,0,0.1,0.4,0.3,1
					c0.2,0.8,0.6,1.9,0.9,3.3c0.4,1.3,0.8,2.7,1.2,4.1c0.9,3.2,1.9,6.1,2.2,6.3c1.6-1.2,3.4-2.5,5.1-3.9c1.1-0.8,2.1-1.7,3.1-2.5
					c1-0.8,1.9-1.5,2.8-2.2c2.6-2,4.8-3.7,6.1-4.6c0.5-0.3,0.9-0.5,1.1-0.6c0.4-0.1,1.6-0.3,3.2-0.3c6.3-0.2,19.7,0.4,27.2,3.9
					c-18.7,9-40.2,21.5-47.8,26.2c0.5,2.1,1.5,5.2,2.7,8.5c0.9,2.5,1.9,5,2.9,7.3c1.6,3.7,2.9,6.7,3.5,7.3l2.6,5.4
					c0,0,15.4-6.5,30.8-11.6c0,0,0.1,0,0.1,0c0.3-0.1,0.7-0.2,1-0.3c0,0,0,0,0,0c5-1.2,11.1,2.9,12.8,4.7c0.4,0.4,1.3,1.4,2.6,2.7
					c0.9,0.9,1.9,1.9,3,3l-0.2,0.2c-1.5,0.7-13.9,7.1-17.6,9.3s-23.9,13-28.6,14.7c-4.7,1.8-10.5,1.5-19.9,1.9
					c-0.5-0.2-1.1-0.3-1.6-0.5c-1.6-0.5-3.1-1-4.6-1.6c-10-3.8-16.1-8.3-17.8-9.8l0,0c0.9-1,1.6-1.9,2.2-2.7
					c4.7-6.2,1.7-12.8-5.2-16.1c-1.6-0.8-4.5-1.4-8.2-1.9V89c-0.7-4.9-2-9.5-3.5-13.7l0.4-28.2c3.5-2.2,6.3-4.4,8.5-6.2l-0.3,16.3
					l-0.2,9.1L111.3,66.6L111.3,66.6z"/>
				<path class="st7" d="M196.1,141.4c-14.3,4.8-33.8,6.9-41.3,6.2l10.4-8.2l-4.1-0.4l0-0.3c1.1-0.3,2.2-0.6,3.3-1
					c0,0,13.5,2.3,20.4,1c1.5-0.3,3-0.8,4.5-1.4c3.3-1.3,6.4-3.3,9.2-5.3l0.1,0.1c0,0,1.6,0.6,3.9,1.6c1.5,0.6,3.2,1.4,5,2.3
					C204.6,138.1,200.7,139.9,196.1,141.4L196.1,141.4z"/>
				<path class="st9" d="M202.8,40.3c-1.7,0.7-3.5,1.5-5.3,2.4l0,0c-2.5-1.2-9.5-3.5-14.2-4.1c-4.8-0.6-17-0.9-17-0.9v-3.8
					c0,0,14.9,0.5,19.4,1C190.1,35.4,201.3,39.4,202.8,40.3L202.8,40.3z"/>
				<path class="st9" d="M197.5,42.7c-1.3,0.6-2.7,1.2-4,1.9l0,0c-7.5-3.5-20.9-4.2-27.2-3.9l0,0v-2.9c0,0,12.2,0.3,17,0.9
					C188,39.2,195,41.4,197.5,42.7L197.5,42.7z"/>
				<path class="st7" d="M184.4,133.1c1.7,4.2,2,4.3,4.9,4.3c-1.5,0.6-3,1.1-4.5,1.4c-6.9,1.3-20.4-1-20.4-1c3.5-1.2,6.5-2.9,9-4.6
					C173.7,133.2,180,134.8,184.4,133.1L184.4,133.1z"/>
				<path class="st7" d="M166.3,40.6L166.3,40.6c-1.7,0.1-2.8,0.2-3.2,0.3c-0.3,0.1-0.6,0.3-1.1,0.6c-2.2-3.2-11.3-7.1-15.9-9.5
					c0.5-1.3,1-2.7,1.4-4.1l0,0l16.8-6.8l2,5.3L166.3,40.6L166.3,40.6z"/>
				<path class="st5" d="M154.8,147.7l-2.9,2.3l-5.5-6.9c4.3-1.4,8.5-3,11.6-4.3l3.1,0.3l4.1,0.4L154.8,147.7L154.8,147.7z"/>
				<path class="st7" d="M164.2,21.2L147.5,28c0.8-2.2,1.5-4.2,2.4-5.9c1.5-2.9,3.3-5.8,4.2-8c0.7-1.6,0.9-3,0.4-4
					C157.4,10.8,161.9,18.3,164.2,21.2z"/>
				<path class="st7" d="M156.6,136.5c0.5,1.2,1,2.1,1.4,2.2c-3,1.3-7.3,2.9-11.6,4.3c-1,0.3-2.1,0.6-3.1,0.9
					c-1.6,0.4-3.2,0.8-4.6,1.1c-2,0.4-3.9,0.6-5.4,0.6c-1.6-0.3-3.1-0.7-4.6-1.2c2.9-2.2,7-5.6,10.8-8.8L156.6,136.5L156.6,136.5z"
					/>
				<path class="st7" d="M156.6,136.5l-17.2-0.7c4.6-3.9,8.8-7.6,9.9-8.5c0.9-0.8,1.8-1.1,2.6-1.1l0,0c0.5,0,0.9,0.2,1.2,0.5
					c0.4,0.4,0.7,0.9,0.9,1.7c0.1,0.6,0.3,1.4,0.6,2.4C155.2,132.6,155.9,134.8,156.6,136.5L156.6,136.5z"/>
				<path class="st2" d="M154.5,10.1c0.6,0.9,0.3,2.3-0.4,4l0,0c-2.5,0.4-11.2-3.5-12.3-3.7c-1.1-0.1-2.2,0.5-3.4,1.3
					c-0.3,0.6-1.2,1.6-2.2,2.6c-1.3,1.3-2.9,2.8-4.2,4c0,0,0,0,0,0c-0.9,0.8-1.6,1.5-2.1,2c-1.9,1.9-18.4,16-24.5,20
					c-6.1,4-17.6,10.4-24.3,11.2c0.6-1,1.7-2.5,3-4.2l0,0c4-5.1,10.7-12.3,16.8-16.9c2-1.5,4-2.8,5.7-3.5
					c8.7-3.8,23.7-13.1,28.1-16.2s11.9-4.8,14.4-3.9S153.6,9.1,154.5,10.1L154.5,10.1z"/>
				<path class="st9" d="M155.8,46.1c-0.9,0.7-1.9,1.5-2.8,2.2c-3.8-3.2-11.7-4.1-11.7-4.1c-0.4-1.3-0.7-2.5-0.9-3.3
					C142.2,39.7,153.6,43,155.8,46.1z"/>
				<path class="st6" d="M146.4,143l5.5,6.9l-3.8,1.4l-4.9-7.4l0,0C144.3,143.7,145.4,143.4,146.4,143z"/>
				<path class="st9" d="M151.9,126.2c-0.8-0.1-1.7,0.3-2.6,1.1c-1.1,1-5.3,4.6-9.9,8.5c-3.8,3.2-7.9,6.6-10.8,8.8
					c-4.2-1.4-7.8-3.2-7.8-3.2c4.4-2.1,23.2-14.2,25.1-16.3C147.9,125.4,149.8,125.8,151.9,126.2z"/>
				<path class="st2" d="M150,15.7c0.7,0.3,1.2,1,0.9,1.5s-1,0.6-1.7,0.2c-0.7-0.3-1.2-1-0.9-1.5S149.3,15.3,150,15.7z"/>
				<path class="st9" d="M153,48.3c-1,0.8-2.1,1.6-3.1,2.5c-3.5-2.9-7.3-2.5-7.3-2.5c-0.4-1.4-0.8-2.8-1.2-4.1
					C141.4,44.3,149.2,45.1,153,48.3L153,48.3z"/>
				<path class="st6" d="M148.1,151.4L148.1,151.4l-4.3,1.6l-5.2-7.9c1.5-0.3,3.1-0.7,4.6-1.1l0,0L148.1,151.4L148.1,151.4z"/>
				<path class="st9" d="M149.9,50.8c-1.7,1.3-3.5,2.7-5.1,3.9c-0.3-0.3-1.2-3.2-2.2-6.3C142.6,48.3,146.4,47.9,149.9,50.8z"/>
				<path class="st2" d="M143.7,13.1c0.7,0.3,1.2,1,0.9,1.5c-0.2,0.5-1,0.6-1.7,0.2c-0.7-0.3-1.2-1-0.9-1.5S142.9,12.8,143.7,13.1z"
					/>
				<path class="st6" d="M138.6,145.1l5.2,7.9l-4.6,1.7l-1.7-2.4l-4.4-6.6C134.8,145.7,136.6,145.5,138.6,145.1L138.6,145.1z"/>
				<path class="st9" d="M141.5,123.8c1.4,0.4,2.9,0.8,4.5,1.2c-1.9,2.2-20.7,14.2-25.1,16.3c-1.2-1.2-2.3-2.4-3.4-3.4
					c5.4-1.4,20.4-11.8,22.4-14.5l0-0.1C140.4,123.5,140.9,123.7,141.5,123.8L141.5,123.8z"/>
				<path class="st9" d="M139.9,123.3l0,0.1c-2,2.6-17,13-22.4,14.5c-1-1-1.9-1.9-2.7-2.8c3.6-1.4,8.3-2.7,20.5-13.2l0-0.1
					C136.7,122.3,138.3,122.9,139.9,123.3L139.9,123.3z"/>
				<path class="st6" d="M128.6,144.5c1.5,0.5,3.1,0.9,4.6,1.2l4.4,6.6l-8.8,2.4l-6.9-8c-1.2-4.4-1.1-5.4-1.1-5.4
					S124.4,143.2,128.6,144.5L128.6,144.5z"/>
				<path class="st5" d="M135.3,121.8l0,0.1c-12.2,10.5-16.9,11.8-20.5,13.2c-4.1-4.4-6.7-7.7-8-11.7c0.7-0.8,1.5-1.5,2.2-2.3
					c3-3.2,6.2-6.5,8.4-9.2l0,0C119.2,113.5,125.3,118,135.3,121.8L135.3,121.8z"/>
				<path class="st5" d="M84,55.9l0.6,2c3.3,4.5,8.1,10.1,9.9,12.8s7,14,7.3,20.1v0c-12.2-1.2-29.5-1.5-39-2c-0.5,0-1.4,0-2.6,0.2
					l0,0C55.2,86.5,47.9,72,45.9,68c3.4-1.9,7.9-4.2,12.6-6.5c8.1-3.9,16.8-7.5,21.9-8.5c0.4-0.9,0.6-1.5,0.6-1.5
					c6.7-0.9,18.2-7.3,24.3-11.2c6.1-4,22.6-18.1,24.5-20c0.5-0.5,1.2-1.2,2.1-2c0,0,0,0,0,0c1.3-1.2,2.9-2.7,4.2-4
					c-8,10.5-15.9,18.7-20.2,22.7c-0.3,0.3-0.7,0.6-0.9,0.9c-0.9,0.8-2,1.8-3.5,3c-2.2,1.8-5,4-8.5,6.2c-3.7,2.4-8.2,4.8-13.4,6.8
					C87.9,54.7,86,55.3,84,55.9L84,55.9z"/>
				<path class="st10" d="M133.7,40.5l0,0.4c0,0-14.1,16.1-22.4,25.7l-0.2-0.2l0.2-9.1l0.8,0l5.2-5.6l11.5-12.3
					c0.3,0.2,0.7,0.3,1,0.4C130.9,40.2,132.3,40.4,133.7,40.5L133.7,40.5z"/>
				<path class="st5" d="M90.2,108.6c-1.3,0.6-2.6,1.2-3.9,1.7c-1.4,0.6-2.7,1.2-3.9,1.7c-2.1,0.9-3.9,1.5-5.1,1.9l-0.9,2.8l0,0
					c0,0-11-0.6-18.3-2.3c-5.6-1.3-11.3-4-16.1-5.8c-4.8-1.8-14.4-3.8-14.4-3.8c4-3.3,8.4-6.8,11.4-8.9c1.2-0.8,2.1-1.5,2.8-1.9
					c0.8-0.4,1.8-0.9,2.9-1.3c1.8-0.7,4-1.3,6.3-1.9c1.4-0.3,2.9-0.7,4.3-0.9c1.9-0.4,3.6-0.7,5-0.8c1.1-0.1,2-0.2,2.6-0.2
					c9.5,0.5,26.7,0.8,39,2c1.6,0.2,3,0.3,4.4,0.5c3.7,0.5,6.6,1.1,8.2,1.9c6.9,3.3,9.9,9.9,5.2,16.1c-0.6,0.8-1.3,1.7-2.2,2.7
					c-2.3,2.7-5.4,6-8.4,9.2C92.6,116.9,90.3,109,90.2,108.6z"/>
				<path class="st10" d="M117.3,51.7l-5.2,5.6l-0.8,0l0.3-16.3c1.4-1.2,2.6-2.3,3.5-3c0.3-0.3,0.6-0.5,0.9-0.9l1.2,14.5L117.3,51.7
					L117.3,51.7z"/>
				<path class="st5" d="M106.2,89v2.3c-1.4-0.2-2.8-0.3-4.4-0.5v0c-0.3-6.2-5.5-17.4-7.3-20.1s-6.6-8.2-9.9-12.8l-0.6-2
					c2-0.6,3.9-1.2,5.7-1.9l1.6,0.7c1.6,2.3,7.4,10,11.3,20.7C104.2,79.5,105.5,84.1,106.2,89z"/>
				<path class="st9" d="M106.1,124.2L106.1,124.2c-1.1,1.1-2.1,2.1-3,3c-12.8-2.2-18.7-11.3-20.8-15.2c1.2-0.5,2.6-1.1,3.9-1.7
					C87.3,112.3,91.3,120.9,106.1,124.2L106.1,124.2z"/>
				<path class="st5" d="M103.1,47.2l-0.4,28.2c-4-10.7-9.7-18.5-11.3-20.7L89.7,54C94.9,52,99.3,49.6,103.1,47.2z"/>
				<path class="st7" d="M58.5,61.3c4.7-17,38.4-31.4,42.5-30.9c-6,4.6-12.7,11.8-16.8,16.9l0,0C64.8,53.1,58.5,61.3,58.5,61.3
					L58.5,61.3z"/>
				<path class="st6" d="M103.1,127.2c-2.6,2.6-4.4,4.4-4.4,4.4c-5-1.5-22.1-8.9-21.5-17.7c1.3-0.4,3.1-1.1,5.1-1.9
					C84.4,115.9,90.3,125.1,103.1,127.2L103.1,127.2z"/>
				<path class="st7" d="M98,135.1c0.7,1.3,1.6,2.8,2.7,4.4c-1.9,1.1-5.8,1.6-10.4,1.8c1.3-2.9,2.4-6.2,2.9-9.6v-0.1
					c1,0,2,0.1,3,0.1C96.2,131.7,96.8,133.1,98,135.1C98,135.1,98,135.1,98,135.1L98,135.1z"/>
				<path class="st7" d="M89.7,131.3c-1.1-0.1-2.2-0.3-3.2-0.4c-1.5-0.2-2.8-0.5-4.1-0.8c-1.5-0.4-2.9-0.8-4.1-1.2
					c-1-0.4-1.9-0.7-2.7-1.1c-0.9-0.4-1.7-0.9-2.2-1.3l1.4-4.6l0.8-2.6l0.8-2.6l0.9-2.8c-0.6,8.8,16.5,16.2,21.5,17.7
					c-0.9,0-1.7,0-2.6,0c-1,0-2,0-3-0.1C92,131.6,90.8,131.5,89.7,131.3L89.7,131.3z"/>
				<path class="st7" d="M86.5,130.9c1,0.2,2.1,0.3,3.2,0.4c-0.1,0.3-2.7,5.3-5.6,10l0,0c-2.1-0.1-4.1-0.2-6.2-0.3l-0.1-0.1
					C81.6,137.2,85.2,133.2,86.5,130.9L86.5,130.9z"/>
				<path class="st10" d="M84.1,47.3c-1.3,1.7-2.4,3.2-3,4.2c0,0-0.2,0.5-0.6,1.5c-5.2,1-13.9,4.7-22,8.5l-0.1-0.2
					C58.4,61.3,64.8,53.1,84.1,47.3z"/>
				<path class="st7" d="M78.3,128.9c1.2,0.4,2.6,0.8,4.1,1.2c0,0-6,6-11.4,10.3c-4.9-0.6-8.8-1.3-10.3-2.1L78.3,128.9z"/>
				<path class="st9" d="M76.4,116.7l-0.8,2.6c0,0-10.1-0.6-15.8-1.5c-4.8-0.8-13.6-4.2-18.8-6.3s-14.8-3.9-16.6-4l0,0
					c1-0.9,2.1-1.8,3.3-2.7c0,0,9.5,2,14.4,3.8c4.8,1.8,10.5,4.5,16.1,5.8C65.3,116.1,76.3,116.7,76.4,116.7L76.4,116.7L76.4,116.7z
					"/>
				<path class="st9" d="M75.5,119.3l-0.8,2.6c0,0-9.2-0.5-13.3-0.8c-4-0.3-15.9-4.5-21.5-6.8c-5.5-2.2-15.3-3.9-18.9-4.1
					c1-0.8,2.1-1.8,3.2-2.8l0,0c1.8,0.1,11.4,1.9,16.6,4s14,5.5,18.8,6.3C65.4,118.7,75.5,119.3,75.5,119.3z"/>
				<path class="st9" d="M74.7,121.9l-1.4,4.6c0,0-6.4,0.3-10.2,0c-3.5-0.2-6.5-0.7-9.1-1.3c-7.3-1.6-11.9-4.2-16.1-5.2
					c-5.7-1.3-15.9-2.4-21.1-5.7l0,0c0.1-0.3,1.8-1.9,4.4-4.1c3.6,0.2,13.3,1.9,18.9,4.1c5.5,2.3,17.4,6.5,21.5,6.8
					C65.5,121.4,74.7,121.9,74.7,121.9L74.7,121.9z"/>
				<path class="st9" d="M55.3,89.9c-1.1,0-5.4-4.6-7.3-9c-1.2-2.6-5.1-11.1-5.1-11.1c0.9-0.5,1.9-1.2,3.1-1.8c2,4,9.2,18.5,14.3,21
					l0,0C58.9,89.2,57.1,89.5,55.3,89.9L55.3,89.9L55.3,89.9z"/>
				<path class="st9" d="M55.3,89.9L55.3,89.9c-1.4,0.3-2.8,0.6-4.3,1c-2-1.2-5.9-6.1-8.5-11C41,77,40,74.1,40,71.9
					c0-0.3,1.1-1,2.8-2.1c0,0,4,8.5,5.1,11.1C49.9,85.2,54.1,89.8,55.3,89.9L55.3,89.9z"/>
				<path class="st7" d="M37.9,120.1c4.2,1,8.8,3.5,16.1,5.2c-1.3,0.6-3.5,1.4-6.1,2.2c-5.3,1.7-12.2,3.5-15.6,3.5
					c-5-0.1-15.3-16-15.6-16.5C22,117.7,32.2,118.8,37.9,120.1L37.9,120.1z"/>
				<path class="st6" d="M51,90.8c-2.2,0.6-4.4,1.2-6.3,1.9c-0.2-1.1-5.4-5.3-6.8-6.1c1.3-2.3,2.9-4.7,4.6-6.7
					C45.1,84.8,49,89.6,51,90.8z"/>
				<path class="st7" d="M44.7,92.7c-1.2,0.4-2.2,0.8-2.9,1.3c-0.7,0.4-1.7,1-2.8,1.9c0,0-2.4,0.2-4.9,0c0-1.2,1.5-5.1,3.9-9.3
					C39.3,87.4,44.6,91.6,44.7,92.7L44.7,92.7z"/>
			</g>
			<g>
				<path class="st11" d="M132,18.3c1.3-1.2,2.9-2.7,4.2-4c1.1-1.1,1.9-2,2.2-2.6c1.2-0.8,2.3-1.4,3.4-1.3c1.1,0.1,9.8,4.1,12.3,3.7
					"/>
				<path class="st11" d="M84.1,47.3c-1.3,1.7-2.4,3.2-3,4.2c6.7-0.9,18.2-7.3,24.3-11.2c6.1-4,22.6-18.1,24.5-20
					c0.5-0.5,1.2-1.2,2.1-2"/>
				<path class="st11" d="M147.5,28c0.8-2.2,1.5-4.2,2.4-5.9c1.5-2.9,3.3-5.8,4.2-8c0.7-1.6,0.9-3,0.4-4c-0.9-1-2.9-2.4-5.4-3.3
					s-10.1,0.8-14.4,3.9c-4.4,3.2-19.4,12.5-28.1,16.2c-1.8,0.8-3.7,2-5.7,3.5c-6,4.6-12.7,11.8-16.8,16.9"/>
				<path class="st11" d="M123.4,35.1c0,0,2.4,2.9,5.4,4.3c0.3,0.2,0.7,0.3,1,0.4c1.1,0.3,2.4,0.6,3.9,0.7c2.2,0.2,4.5,0,6.4-0.5
					c0.9-0.3,1.6-0.6,2.2-1.1c1.3-1,2.5-3.7,3.7-6.9c0.5-1.3,1-2.7,1.4-4.1"/>
				<path class="st11" d="M144.7,23.9c-0.1,2.6-1,5-1.4,6.5c-0.4,1.4-1.7,2.1-3.7,1.4"/>
				<path class="st11" d="M139,20.9c1.8,0.3,2.6,0.6,2.6,0.6"/>
				<path class="st11" d="M146.5,23.3c0.5,0.2,1.1,0.5,1.6,0.9"/>
				<path class="st12" d="M138.4,30.4c0,0-0.6,0.5-0.8,1"/>
				<path class="st11" d="M137,34.9c0,0,0.9,0.7,1.5,0.6"/>
				<path class="st11" d="M144.6,14.6c-0.2,0.5-1,0.6-1.7,0.2c-0.7-0.3-1.2-1-0.9-1.5s1-0.6,1.7-0.2
					C144.4,13.4,144.8,14.1,144.6,14.6z"/>
				<path class="st11" d="M151,17.1c-0.2,0.5-1,0.6-1.7,0.2c-0.7-0.3-1.2-1-0.9-1.5s1-0.6,1.7-0.2C150.8,16,151.2,16.7,151,17.1z"/>
				<path class="st11" d="M81.1,51.5c0,0-0.2,0.5-0.6,1.5c-1.8,4.3-6.8,17-7.2,18.9"/>
				<path class="st11" d="M78.3,68c0,0,12.3,9.6,15.5,14.7"/>
				<path class="st11" d="M84.6,58c3.3,4.5,8.1,10.1,9.9,12.8s7,14,7.3,20.1"/>
				<path class="st11" d="M91.3,54.7c1.6,2.3,7.4,10,11.3,20.7c1.6,4.2,2.8,8.8,3.5,13.7v2.3"/>
				<path class="st11" d="M16.7,114.4c5.2,3.3,15.5,4.3,21.1,5.7c4.2,1,8.8,3.5,16.1,5.2c2.7,0.6,5.6,1.1,9.1,1.3
					c3.8,0.3,10.2,0,10.2,0"/>
				<path class="st11" d="M90.2,108.6c-1.3,0.6-2.6,1.2-3.9,1.7c-1.4,0.6-2.7,1.2-3.9,1.7c-2.1,0.9-3.9,1.5-5.1,1.9
					c-0.6,8.8,16.5,16.2,21.5,17.7c0,0,1.8-1.8,4.4-4.4c0.9-0.9,1.9-1.9,3-3c0.2-0.2,0.5-0.5,0.7-0.8c0.7-0.8,1.5-1.5,2.2-2.3
					c3-3.2,6.2-6.5,8.4-9.2c0.9-1,1.6-1.9,2.2-2.7c4.7-6.2,1.7-12.8-5.2-16.1c-1.6-0.8-4.5-1.4-8.2-1.9c-1.4-0.2-2.8-0.3-4.4-0.5
					c-12.2-1.2-29.5-1.5-39-2c-0.5,0-1.4,0-2.6,0.2c-1.4,0.2-3.1,0.4-5,0.8c-1.4,0.3-2.8,0.6-4.3,0.9c-2.2,0.6-4.4,1.2-6.3,1.9
					c-1.2,0.4-2.2,0.8-2.9,1.3c-0.7,0.4-1.7,1-2.8,1.9c-3,2.2-7.3,5.6-11.4,8.9c-1.1,0.9-2.2,1.8-3.3,2.7c-1.2,1-2.3,1.9-3.2,2.8
					c-2.5,2.2-4.3,3.8-4.4,4.1"/>
				<path class="st11" d="M104.2,102.1c0,0-4,1.9-9.1,4.3c-1.6,0.7-3.3,1.5-5,2.3"/>
				<path class="st11" d="M87.4,101.8c0,0,7.4,1.8,7.8,4.6"/>
				<path class="st11" d="M16.7,114.4L16.7,114.4c0.3,0.5,10.6,16.5,15.6,16.5c3.4,0,10.3-1.8,15.6-3.5c2.6-0.8,4.8-1.6,6.1-2.2"/>
				<path class="st11" d="M77.2,113.9l-0.9,2.8l-0.8,2.6l-0.8,2.6l-1.4,4.6c0.6,0.4,1.3,0.8,2.2,1.3c0.8,0.4,1.7,0.7,2.7,1.1
					c1.2,0.4,2.6,0.8,4.1,1.2c1.3,0.3,2.7,0.6,4.1,0.8c1,0.2,2.1,0.3,3.2,0.4c1.2,0.1,2.3,0.2,3.5,0.3c1,0,2,0.1,3,0.1
					c0.8,0,1.7,0,2.6,0"/>
				<path class="st11" d="M82.3,112c2.1,3.9,7.9,13.1,20.8,15.2"/>
				<path class="st11" d="M86.3,110.3C86.3,110.3,86.3,110.3,86.3,110.3c1.1,2,5.1,10.6,19.8,13.9"/>
				<path class="st11" d="M90.2,108.6L90.2,108.6c0.1,0.4,2.4,8.2,18.8,12.5"/>
				<path class="st11" d="M21.1,110.3c3.6,0.2,13.3,1.9,18.9,4.1c5.5,2.3,17.4,6.5,21.5,6.8c4.1,0.3,13.3,0.8,13.3,0.8"/>
				<path class="st11" d="M24.3,107.5c1.8,0.1,11.4,1.9,16.6,4s14,5.5,18.8,6.3c5.7,1,15.8,1.5,15.8,1.5"/>
				<path class="st11" d="M27.6,104.8c0,0,9.5,2,14.4,3.8c4.8,1.8,10.5,4.5,16.1,5.8c7.3,1.7,18.3,2.3,18.3,2.3"/>
				<path class="st11" d="M47.9,127.4c0,0,1,5.6,2,6.7c1,1.1,4,3.4,10.3,1.2s15.2-7.6,15.2-7.6"/>
				<path class="st11" d="M98,135.1c-1.2-2-1.8-3.4-1.8-3.4"/>
				<path class="st11" d="M90.3,141.3c4.6-0.2,8.5-0.7,10.4-1.8c-1.1-1.6-2-3.1-2.7-4.4"/>
				<path class="st11" d="M77.9,141c2.1,0.1,4.1,0.2,6.2,0.3"/>
				<path class="st11" d="M78.3,128.9l-17.6,9.4c1.5,0.8,5.5,1.5,10.3,2.1l0,0"/>
				<path class="st11" d="M98,135.1C98,135.1,98,135.1,98,135.1c0.2,0.3,4.3,5.4,13.4,8.7c9.3,3.4,10.5,2.9,10.5,2.9
					c-1.2-4.4-1.1-5.4-1.1-5.4c-1.2-1.2-2.3-2.4-3.4-3.4c-1-1-1.9-1.9-2.7-2.8c-4.1-4.4-6.7-7.7-8-11.7"/>
				<path class="st11" d="M89.7,131.3L89.7,131.3c-0.1,0.3-2.7,5.3-5.6,10l0,0c-2.2,3.4-4.5,6.7-6.3,7.7c2.1,2.6,4.6,4.6,4.6,4.6
					s4.7-5.1,8-12.3c1.3-2.9,2.4-6.2,2.9-9.6"/>
				<path class="st11" d="M82.3,130.1c0,0-6,6-11.4,10.3c-2.5,2-4.9,3.6-6.5,4c2,2.6,3.9,4.6,3.9,4.6c2.1-1.3,5.8-4.6,9.4-8.1
					c3.8-3.7,7.4-7.7,8.7-10"/>
				<path class="st11" d="M121.9,146.7l6.9,8l8.8-2.4l-4.4-6.6c-1.6-0.3-3.1-0.7-4.6-1.2c-4.2-1.4-7.8-3.2-7.8-3.2
					c4.4-2.1,23.2-14.2,25.1-16.3"/>
				<path class="st11" d="M151.9,126.2c0.5,0,0.9,0.2,1.2,0.5c0.4,0.4,0.7,0.9,0.9,1.7c0.1,0.6,0.3,1.4,0.6,2.4
					c0.5,1.8,1.2,4.1,1.9,5.8c0.5,1.2,1,2.1,1.4,2.2c-3,1.3-7.3,2.9-11.6,4.3c-1,0.3-2.1,0.6-3.1,0.9c-1.6,0.4-3.2,0.8-4.6,1.1
					c-2,0.4-3.9,0.6-5.4,0.6"/>
				<path class="st11" d="M128.6,144.6L128.6,144.6c2.9-2.2,7-5.6,10.8-8.8c4.6-3.9,8.8-7.6,9.9-8.5c0.9-0.8,1.8-1.1,2.6-1.1"/>
				<polyline class="st11" points="146.4,143 151.9,150 154.8,147.7 165.2,139.5 161.1,139.1 158,138.7 				"/>
				<line class="st11" x1="148.1" y1="151.4" x2="151.9" y2="150"/>
				<polyline class="st11" points="137.6,152.4 139.3,154.7 143.9,153 148.1,151.4 				"/>
				<line class="st11" x1="138.6" y1="145.1" x2="143.9" y2="153"/>
				<polyline class="st11" points="143.3,144 148.1,151.4 148.1,151.4 				"/>
				<path class="st11" d="M114.8,135.1c3.6-1.4,8.3-2.7,20.5-13.2"/>
				<path class="st11" d="M117.5,137.9c5.4-1.4,20.3-11.8,22.4-14.5"/>
				<path class="st11" d="M117.5,112c1.7,1.5,7.8,6,17.8,9.8c1.4,0.5,3,1.1,4.6,1.6c0.5,0.2,1,0.3,1.6,0.5c1.4,0.4,2.9,0.8,4.5,1.2
					c1.9,0.4,3.9,0.8,5.9,1.2l0,0"/>
				<path class="st11" d="M141.5,123.8c9.4-0.4,15.2-0.2,19.9-1.9c4.7-1.7,24.9-12.5,28.6-14.7s16.1-8.6,17.6-9.3"/>
				<path class="st11" d="M188.2,87.7c-6.8,2.6-28.4,15.3-28.4,15.3"/>
				<path class="st11" d="M189.3,87.3c-0.3,0.1-0.6,0.2-1,0.3"/>
				<path class="st11" d="M161.1,138.7c1.1-0.3,2.2-0.6,3.3-1c3.5-1.2,6.5-2.9,9-4.6c2.1-1.4,3.8-2.8,5.1-3.9
					c3.5-2.9,18.1-10.9,24.3-13.3c6.2-2.4,16-7.3,16-7.3s-1.4-1.4-3.5-3.4c-0.4-0.4-0.8-0.7-1.1-1.1c-1-1-2.1-2.1-3.3-3.2
					c-1.1-1.1-2.2-2.1-3.2-3.2c-1.1-1.1-2.1-2.1-3-3c-1.3-1.3-2.3-2.3-2.6-2.7c-1.7-1.8-7.8-6-12.8-4.7"/>
				<path class="st11" d="M154.8,93.8l2.6,5.4c0,0,15.4-6.5,30.8-11.6c0,0,0.1,0,0.1,0c0.3-0.1,0.7-0.2,1-0.3c0,0,0,0,0,0
					c6.5-2.1,12.9-3.8,18.2-4.7c18.1-3,50.5-6.6,63.6-5.6V61.7c-1.9,0.2-4,0.5-6.2,0.8c-23,3-58.1,8.9-72.6,14.2
					C176.4,82.5,154.8,93.8,154.8,93.8L154.8,93.8z"/>
				<path class="st11" d="M148.6,79.2c10.1-5.6,41.4-27.1,72.3-29.5c3.3,2.2,4.8,2,6.9-1.2c2.1-3.2,7.5-8.4,8.6-8.9s4.1-2,3.9,1.3
					c-0.1,1.3,0,3.4,0.2,5.5c0.3,3.3,0.9,6.8,1.6,7.5c0.8,0.8,1.7,2.6,3,2.6c0.7,0,1.5-0.5,2.4-2c2.7-4.2,4.7-6.9,6.8-7.8
					c0.3-0.1,0.6-0.2,0.9-0.3c1.6-0.2,2.6,1.1,3.1,3.4c0.6,2.7,2.7,7.8,2.7,7.8l0.1,0.2c0.6,1.5,0.7,4.2,3.8,3.8
					c1.4-0.2,3.4-0.9,6.3-2.6v-1.4c0,0-4.7,0.1-10.1,0.2c-5,0.1-10.7,0.1-13.6,0c-0.9,0-1.7-0.1-2.5-0.1c-4.1-0.2-7.1-0.1-23.9,1.9
					c-22,2.5-47,16-69.7,26.7c-0.1,0-0.2,0.1-0.3,0.1"/>
				<line class="st11" x1="240.4" y1="46.5" x2="255.1" y2="46.5"/>
				<path class="st11" d="M193.5,44.5c-18.7,9-40.2,21.5-47.8,26.2c0.5,2.1,1.5,5.2,2.7,8.5c0.9,2.5,1.9,5,2.9,7.3
					c1.6,3.7,2.9,6.7,3.5,7.3"/>
				<path class="st11" d="M197.5,42.7c-1.3,0.6-2.7,1.2-4,1.9"/>
				<path class="st11" d="M220.8,49.7c-0.8-1.4-1.3-3.8-1.7-7.3c-0.3-2.1-0.6-4.6-1-7.4c-1.5,0.3-3.2,0.8-5.1,1.4
					c-1,0.3-2.1,0.7-3.2,1.1c-2.2,0.8-4.5,1.8-7,2.8c-1.7,0.7-3.5,1.5-5.3,2.4"/>
				<path class="st11" d="M219.1,42.4c0,0,15.5-2.1,17.2-2.7"/>
				<path class="st11" d="M271.1,77v13c-14.2-5.2-50.9-0.2-66.4,4.7"/>
				<path class="st11" d="M215.4,105.2c4.2-2.1,6.9-4,9.3-4.5c1.3-0.3,2.5-0.2,3.9,0.5c1,0.5,2,1.2,3.1,2.3"/>
				<path class="st11" d="M237.9,134.7c-1.1-0.6-2-1.4-2.7-2.5c-0.7-1-1.1-2.3-1.4-3.7c-0.2-1.1-0.4-2.3-0.4-3.5
					c-0.2-4.3,0.7-9.4,2.1-14.1c0.3-1.1,0.7-2.2,1.1-3.3c0.7-2,1.5-3.9,2.4-5.6l-7,2.3l-13.1,4.4c-1.5,5.5-11.3,16.2-15.8,19.9
					c-1.3,1.1-2.9,2.3-4.6,3.6c-2.8,2-5.9,4-9.2,5.3c-1.5,0.6-3,1.1-4.5,1.4c-6.9,1.3-20.4-1-20.4-1"/>
				<path class="st11" d="M271.1,123.5v3.8c0,0-1.4,2.4-5.1,4.4c-1.6,0.8-6.3,2.5-11.7,3.6c-1.1,0.2-2.3,0.4-3.4,0.5
					c-4.1,0.5-8.3,0.5-11.9-0.6c-0.4-0.1-0.7-0.3-1.1-0.4"/>
				<path class="st11" d="M233.4,125c8.3,0.5,24.9-1,30.6-5.5"/>
				<path class="st11" d="M235.3,132.2c0,0,24.4-1.9,35.8-8.7c-0.9-0.9-2-1.7-3.2-2.4c-1.1-0.7-2.4-1.4-3.7-2
					c-9.1-4.3-21.7-6.5-28.7-8.2"/>
				<path class="st11" d="M233.8,128.5c8.6-0.3,18.7,0.1,34.1-7.4"/>
				<path class="st11" d="M254.3,135.2c0.3,2.9,0.2,7,2.8,8c2.2,0.9,6.3-0.3,14-6.2c0.5-6.3,0-10.3,0-10.3"/>
				<path class="st11" d="M154.8,147.7L154.8,147.7c7.6,0.7,27.1-1.4,41.4-6.2c4.5-1.5,8.5-3.3,11.4-5.4c-1.8-0.9-3.6-1.6-5-2.3
					c-2.3-1-3.9-1.6-3.9-1.6"/>
				<path class="st11" d="M202.5,133.8c0,0,30.2,1.9,35.4,0.9h0"/>
				<path class="st11" d="M196.1,141.4L196.1,141.4c0.7,0.3,31.9,11.2,35.6,10.9c1.8-0.1,4.7-0.6,7.9-1.3c3.5-0.8,7.2-1.9,10.2-3.4
					c2.9-1.4,4.7-2.6,5.9-3.3c1.1-0.7,1.5-1.1,1.5-1.1"/>
				<path class="st11" d="M239.6,151.1c0.8-2,2.9-5.6,5.2-8.9c2.1-3,4.4-5.6,6-6.5"/>
				<path class="st11" d="M244.8,142.2c0,0,8.5,3.1,10.8,2.1"/>
				<path class="st11" d="M173.4,133.1L173.4,133.1c0.3,0.1,6.6,1.7,11,0c1.7,4.2,2,4.3,4.9,4.3"/>
				<polyline class="st11" points="139.4,135.8 156.6,136.5 156.6,136.5 				"/>
				<path class="st11" d="M153.1,126.7c7.2-1.5,16.2-3.3,21.4-7.1s16.6-9.9,18.9-11c2.3-1.1,17.6-7.8,17.6-7.8l0,0
					c0.4-0.2,8.5-5,13.7-0.4"/>
				<path class="st11" d="M155,130.6c7.2-1.5,16.2-3.3,21.4-7.1s16.6-9.9,18.9-11s17.6-7.8,17.6-7.8s0.5-0.3,1.4-0.7"/>
				<path class="st11" d="M125,101.9c7.7,0.4,16.7,3.2,26.1,4.4c9.4,1.2,25.2,1.2,25.2,1.2"/>
				<path class="st11" d="M123.9,94.7c0,0,15.3-5.8,21.8-5.8"/>
				<path class="st11" d="M114,90c0,0,21.2-12.8,31.7-14.6"/>
				<path class="st11" d="M107.7,87.7c0,0,0.4-0.7,1.2-1.8c3.1-4.8,11.8-17.6,18.1-21.5c7.8-4.8,14.6-9.1,14.6-9.1"/>
				<path class="st11" d="M108.8,85.8c6.7-4.2,22.6-13.6,30.8-15.3"/>
				<path class="st11" d="M132,18.3C132,18.3,132,18.3,132,18.3c-8.3,9.5-19.5,19.4-26.9,24.5c-7.4,5.1-20.7,10.5-22.4,11.1"/>
				<path class="st11" d="M136.2,14.3c-8,10.5-15.9,18.7-20.2,22.7c-0.3,0.3-0.7,0.6-0.9,0.9c-0.9,0.8-2,1.8-3.5,3
					c-2.2,1.8-5,4-8.5,6.2c-3.7,2.4-8.2,4.8-13.4,6.8c-1.8,0.7-3.7,1.4-5.7,1.9c-0.1,0-0.2,0-0.3,0.1"/>
				<line class="st11" x1="115.9" y1="37" x2="117.1" y2="51.5"/>
				<polyline class="st11" points="128.8,39.4 117.3,51.7 112.1,57.2 				"/>
				<polyline class="st11" points="111.5,40.9 111.2,57.2 111.1,66.4 				"/>
				<path class="st11" d="M133.7,40.9c0,0-14.1,16.1-22.4,25.7c-3.1,3.5-5.3,6.2-5.8,6.8"/>
				<line class="st11" x1="103.1" y1="47.2" x2="102.7" y2="75.4"/>
				<path class="st11" d="M140.1,40c0,0,0.1,0.4,0.3,1c0.2,0.8,0.6,1.9,0.9,3.3c0.4,1.3,0.8,2.7,1.2,4.1c0.9,3.2,1.9,6.1,2.2,6.3
					c1.6-1.2,3.4-2.5,5.1-3.9c1.1-0.8,2.1-1.7,3.1-2.5c1-0.8,1.9-1.5,2.8-2.2c2.6-2,4.8-3.7,6.1-4.6c0.5-0.3,0.9-0.5,1.1-0.6
					c0.4-0.1,1.6-0.3,3.2-0.3c6.3-0.2,19.7,0.4,27.2,3.9l0,0"/>
				<path class="st11" d="M166.3,40.6V26.5c8.2-0.2,26.4,0.1,35.7,5.5c5.8,3.2,7.8,5.4,7.8,5.4"/>
				<path class="st11" d="M166.3,33.9c0,0,14.9,0.5,19.4,1c4.5,0.5,15.6,4.5,17.2,5.3"/>
				<path class="st11" d="M166.3,37.7c0,0,12.2,0.3,17,0.9c4.8,0.6,11.7,2.8,14.2,4.1l0,0"/>
				<path class="st11" d="M146,32c4.6,2.4,13.7,6.3,15.9,9.5"/>
				<path class="st11" d="M140.4,41c1.8-1.3,13.2,2,15.4,5.1"/>
				<path class="st11" d="M141.4,44.3c0,0,7.8,0.9,11.7,4.1"/>
				<path class="st11" d="M142.6,48.3c0,0,3.8-0.4,7.3,2.5"/>
				<polyline class="st11" points="147.5,28 147.5,28 164.2,21.2 166.3,26.5 				"/>
				<path class="st11" d="M154.5,10.1c2.9,0.8,7.4,8.2,9.8,11.1c6.5-3.4,25.6-1.9,28.8-0.5c10.7,4.7,19.9,15.4,19.9,15.4"/>
				<path class="st11" d="M100.9,30.4c-4-0.5-37.8,13.8-42.5,30.9"/>
				<path class="st11" d="M80.5,53c-5.2,1-13.9,4.7-22,8.5c-4.8,2.3-9.3,4.6-12.6,6.5c-1.2,0.7-2.3,1.3-3.1,1.8
					c-1.7,1.1-2.8,1.8-2.8,2.1c0,2.2,1,5.1,2.5,7.9c2.6,4.9,6.5,9.8,8.5,11"/>
				<path class="st11" d="M58.5,61.3c0,0,6.3-8.1,25.7-14l0,0"/>
				<path class="st11" d="M42.8,69.8c0,0,4,8.5,5.1,11.1c2,4.4,6.2,9,7.3,9c0,0,0.1,0,0.1,0"/>
				<path class="st11" d="M45.9,68c2,4,9.2,18.5,14.3,21"/>
				<path class="st11" d="M42.5,79.8c-1.7,2-3.3,4.4-4.6,6.7c-2.4,4.2-3.9,8.1-3.9,9.3c2.5,0.2,4.9,0,4.9,0"/>
				<path class="st11" d="M37.9,86.6c1.4,0.8,6.7,5.1,6.8,6.1"/>
				<path class="st11" d="M271.1,90v8.5c-12.8-4.1-32,0.1-42.5,2.7"/>
				<path class="st11" d="M271.1,98.5v10.2c-2-1-25.4-1.5-34.5-1.1"/>
				<line class="st11" x1="271.1" y1="108.6" x2="271.1" y2="123.5"/>
			</g>
		</g>
	</g>
</g>
</svg>
