<?xml version="1.0" encoding="utf-8"?>
<!-- Generator: Adobe Illustrator 27.9.0, SVG Export Plug-In . SVG Version: 6.00 Build 0)  -->
<svg version="1.1" id="レイヤー_1" xmlns="http://www.w3.org/2000/svg" xmlns:xlink="http://www.w3.org/1999/xlink" x="0px"
	 y="0px" viewBox="0 0 272.9 183.6" style="enable-background:new 0 0 272.9 183.6;" xml:space="preserve">
<style type="text/css">
	.st0{fill:#F3EDD7;}
	.st1{fill:#333333;}
	.st2{fill:#D2D296;}
	.st3{fill:none;stroke:#000000;stroke-miterlimit:10;}
	.st4{clip-path:url(#SVGID_00000062153098581010714160000010306792235365187254_);}
	.st5{fill:#F6342A;}
	.st6{fill:#F9EDD3;}
	.st7{fill:#F3D386;}
	.st8{fill:#A986A7;}
	.st9{fill:#F7F1D7;}
	.st10{fill:none;stroke:#000000;stroke-linecap:round;stroke-linejoin:round;}
	.st11{fill:none;stroke:#000000;stroke-width:0.5;stroke-linecap:round;stroke-linejoin:round;}
</style>
<g id="_畳">
	<g>
		<g>
			<rect x="0.2" y="149" class="st0" width="3.6" height="5"/>
			<path class="st0" d="M270,176.5v6.6h-30.4l15.4-8.6c1,1.6,3.1,2.7,5.5,2.7s4.6-1.2,5.6-2.9L270,176.5L270,176.5z"/>
			<path class="st0" d="M270,166v10.6l-4-2.2c0.4-0.6,0.6-1.4,0.6-2.1c0-1.3-0.6-2.5-1.6-3.4L270,166L270,166z"/>
			<path class="st0" d="M270,154v12l-5,2.8c-1.1-1-2.8-1.6-4.6-1.6s-3.3,0.6-4.4,1.5L229.9,154H270L270,154z"/>
			<polygon class="st0" points="270,75.2 270,80.9 1.1,80.9 0.2,80.9 0.2,75.2 			"/>
			<rect x="266.1" y="149" class="st0" width="4" height="5"/>
			<path class="st0" d="M266.7,172.2c0,0.8-0.2,1.5-0.6,2.1l-5.4-3.1l4.4-2.5C266.1,169.7,266.7,170.9,266.7,172.2L266.7,172.2z"/>
			<path class="st0" d="M260.7,171.3l5.4,3.1c-1,1.7-3.1,2.9-5.6,2.9s-4.5-1.1-5.5-2.7L260.7,171.3L260.7,171.3z"/>
			<rect x="254.8" y="149" class="st1" width="11.3" height="5"/>
			<path class="st0" d="M265.1,168.8l-4.4,2.5l-4.6-2.6c1.1-0.9,2.7-1.5,4.4-1.5C262.3,167.2,263.9,167.8,265.1,168.8L265.1,168.8z"
				/>
			<path class="st0" d="M260.7,171.3l-5.7,3.2c-0.4-0.7-0.7-1.5-0.7-2.3c0-1.4,0.7-2.6,1.8-3.5L260.7,171.3L260.7,171.3z"/>
			<path class="st0" d="M229.9,154l26.1,14.7c-1.1,0.9-1.8,2.1-1.8,3.5c0,0.8,0.2,1.6,0.7,2.3l-15.4,8.6h-41.5l-15.6-8.8
				c0.4-0.6,0.6-1.4,0.6-2.1c0-1.3-0.6-2.5-1.6-3.4l26.3-14.8L229.9,154L229.9,154z M224,172.2c0-2.8-2.2-5-5-5s-5,2.2-5,5
				s2.2,5,5,5S224,174.9,224,172.2z"/>
			<polygon class="st0" points="254.8,154 229.9,154 224.2,154 224.2,149 254.8,149 			"/>
			<rect x="212.9" y="149" class="st1" width="11.3" height="5"/>
			<path class="st1" d="M219,167.1c2.8,0,5,2.2,5,5s-2.2,5-5,5s-5-2.2-5-5S216.2,167.1,219,167.1z"/>
			<path class="st0" d="M207.8,154l-26.3,14.8c-1.1-1-2.8-1.6-4.6-1.6s-3.3,0.6-4.4,1.5L146.4,154H207.8L207.8,154z"/>
			<polygon class="st0" points="182.4,154 182.4,149 212.9,149 212.9,154 207.8,154 			"/>
			<path class="st0" d="M198.1,183.1H156l15.4-8.6c1,1.6,3.1,2.7,5.5,2.7s4.6-1.2,5.6-2.9L198.1,183.1L198.1,183.1z"/>
			<path class="st0" d="M183.1,172.2c0,0.8-0.2,1.5-0.6,2.1l-5.4-3.1l4.4-2.5C182.5,169.7,183.1,170.9,183.1,172.2L183.1,172.2z"/>
			<path class="st0" d="M177.1,171.3l5.4,3.1c-1,1.7-3.1,2.9-5.6,2.9s-4.5-1.1-5.5-2.7L177.1,171.3L177.1,171.3z"/>
			<rect x="171.1" y="149" class="st1" width="11.3" height="5"/>
			<path class="st0" d="M176.9,167.1c1.8,0,3.4,0.6,4.6,1.6l-4.4,2.5l-4.6-2.6C173.6,167.7,175.1,167.2,176.9,167.1L176.9,167.1z"/>
			<path class="st0" d="M177.1,171.3l-5.7,3.2c-0.4-0.7-0.7-1.5-0.7-2.3c0-1.4,0.7-2.6,1.8-3.5L177.1,171.3L177.1,171.3z"/>
			<path class="st0" d="M146.4,154l26.1,14.7c-1.1,0.9-1.8,2.1-1.8,3.5c0,0.8,0.2,1.6,0.7,2.3l-15.4,8.6h-41.5l-15.6-8.8
				c0.4-0.6,0.6-1.4,0.6-2.1c0-1.3-0.6-2.5-1.6-3.4l26.3-14.8L146.4,154L146.4,154z M139.4,172.2c0-2.8-2.2-5-5-5s-5,2.2-5,5
				s2.2,5,5,5S139.4,174.9,139.4,172.2z"/>
			<polygon class="st0" points="171.1,154 146.4,154 140.6,154 140.6,149 171.1,149 			"/>
			<rect x="129.3" y="149" class="st1" width="11.3" height="5"/>
			<path class="st1" d="M134.3,167.1c2.8,0,5,2.2,5,5s-2.2,5-5,5s-5-2.2-5-5S131.6,167.1,134.3,167.1z"/>
			<path class="st0" d="M124.2,154l-26.3,14.8c-1.1-1-2.8-1.6-4.6-1.6s-3.3,0.6-4.4,1.5L62.8,154H124.2L124.2,154z"/>
			<polygon class="st0" points="129.3,154 124.2,154 98.8,154 98.8,149 129.3,149 			"/>
			<path class="st0" d="M114.6,183.1H72.4l15.3-8.6c1,1.6,3.1,2.7,5.5,2.7s4.6-1.2,5.6-2.9L114.6,183.1L114.6,183.1z"/>
			<path class="st0" d="M99.5,172.2c0,0.8-0.2,1.5-0.6,2.1l-5.4-3.1l4.4-2.5C98.9,169.7,99.5,170.9,99.5,172.2L99.5,172.2z"/>
			<path class="st0" d="M93.5,171.3l5.4,3.1c-1,1.7-3.1,2.9-5.6,2.9s-4.5-1.1-5.5-2.7C87.8,174.5,93.5,171.3,93.5,171.3z"/>
			<rect x="87.5" y="149" class="st1" width="11.3" height="5"/>
			<path class="st0" d="M93.3,167.1c1.8,0,3.4,0.6,4.6,1.6l-4.4,2.5l-4.6-2.6C90,167.7,91.6,167.2,93.3,167.1L93.3,167.1z"/>
			<path class="st0" d="M93.5,171.3l-5.7,3.2c-0.4-0.7-0.7-1.5-0.7-2.3c0-1.4,0.7-2.6,1.8-3.5L93.5,171.3L93.5,171.3z"/>
			<path class="st0" d="M62.8,154l26.1,14.7c-1.1,0.9-1.8,2.1-1.8,3.5c0,0.8,0.2,1.6,0.7,2.3l-15.3,8.6H30.8l-15.6-8.8
				c0.4-0.6,0.6-1.4,0.6-2.1c0-1.3-0.6-2.5-1.6-3.4L40.4,154L62.8,154L62.8,154z M54.2,172.2c0-2.8-2.2-5-5-5s-5,2.2-5,5s2.2,5,5,5
				S54.2,174.9,54.2,172.2z"/>
			<polygon class="st0" points="87.5,154 62.8,154 57,154 57,149 87.5,149 			"/>
			<rect x="45.7" y="149" class="st1" width="11.3" height="5"/>
			<path class="st1" d="M49.2,167.1c2.8,0,5,2.2,5,5s-2.2,5-5,5s-5-2.2-5-5S46.5,167.1,49.2,167.1z"/>
			<polygon class="st0" points="45.7,154 40.4,154 15.2,154 15.2,149 45.7,149 			"/>
			<path class="st0" d="M30.8,183.1H0.2v-6.5l3.8-2.1c1,1.6,3.1,2.7,5.5,2.7s4.6-1.2,5.6-2.9L30.8,183.1L30.8,183.1z"/>
			<path class="st0" d="M15.7,172.2c0,0.8-0.2,1.5-0.6,2.1l-5.4-3.1l4.4-2.5C15.1,169.7,15.7,170.9,15.7,172.2L15.7,172.2z"/>
			<rect x="3.9" y="149" class="st1" width="11.3" height="5"/>
			<path class="st0" d="M9.7,171.3l5.4,3.1c-1,1.7-3.1,2.9-5.6,2.9S5,176.1,4,174.5L9.7,171.3z"/>
			<path class="st0" d="M9.5,167.1c1.8,0,3.4,0.6,4.6,1.6l-4.4,2.5l-4.6-2.6C6.2,167.7,7.8,167.2,9.5,167.1L9.5,167.1z"/>
			<path class="st0" d="M9.7,171.3L4,174.5c-0.4-0.7-0.7-1.5-0.7-2.3c0-1.4,0.7-2.6,1.8-3.5L9.7,171.3L9.7,171.3z"/>
			<path class="st0" d="M0.2,165.9l4.8,2.7c-1.1,0.9-1.8,2.1-1.8,3.5c0,0.8,0.2,1.6,0.7,2.3l-3.8,2.1L0.2,165.9L0.2,165.9z"/>
			<polygon class="st2" points="212.9,149 182.4,149 171.1,149 140.6,149 129.3,149 98.8,149 87.5,149 57,149 45.7,149 15.2,149 
				3.9,149 0.2,149 0.2,80.9 1.1,80.9 270,80.9 270,149 266.1,149 254.8,149 224.2,149 			"/>
			<path class="st0" d="M0.2,154h40.2l-26.3,14.8c-1.1-1-2.8-1.6-4.6-1.6s-3.3,0.6-4.4,1.5l-4.8-2.7L0.2,154L0.2,154z"/>
		</g>
		<g>
			<polyline class="st3" points="270,183.1 239.6,183.1 198.1,183.1 156,183.1 114.6,183.1 72.4,183.1 30.8,183.1 0.2,183.1 			"/>
			<line class="st3" x1="0.2" y1="75.2" x2="270" y2="75.2"/>
			<line class="st3" x1="0.2" y1="80.9" x2="270" y2="80.9"/>
			<line class="st3" x1="266.1" y1="149" x2="270" y2="149"/>
			<line class="st3" x1="224.2" y1="149" x2="254.8" y2="149"/>
			<line class="st3" x1="182.4" y1="149" x2="212.9" y2="149"/>
			<line class="st3" x1="140.6" y1="149" x2="171.1" y2="149"/>
			<line class="st3" x1="98.8" y1="149" x2="129.3" y2="149"/>
			<line class="st3" x1="57" y1="149" x2="87.5" y2="149"/>
			<line class="st3" x1="15.2" y1="149" x2="45.7" y2="149"/>
			<line class="st3" x1="0.2" y1="149" x2="3.9" y2="149"/>
			<line class="st3" x1="266.1" y1="154" x2="270" y2="154"/>
			<polyline class="st3" points="224.2,154 229.9,154 254.8,154 			"/>
			<polyline class="st3" points="182.4,154 207.8,154 212.9,154 			"/>
			<polyline class="st3" points="140.6,154 146.4,154 171.1,154 			"/>
			<polyline class="st3" points="98.8,154 124.2,154 129.3,154 			"/>
			<polyline class="st3" points="57,154 62.8,154 87.5,154 			"/>
			<polyline class="st3" points="15.2,154 40.4,154 45.7,154 			"/>
			<line class="st3" x1="0.2" y1="154" x2="3.9" y2="154"/>
			<polyline class="st3" points="72.4,183.1 87.8,174.5 93.5,171.3 97.9,168.8 124.2,154 			"/>
			<polyline class="st3" points="114.6,183.1 98.9,174.3 93.5,171.3 88.9,168.7 62.8,154 			"/>
			<path class="st3" d="M139.3,172.2c0,2.8-2.2,5-5,5s-5-2.2-5-5s2.2-5,5-5S139.3,169.4,139.3,172.2z"/>
			<path class="st3" d="M224,172.2c0,2.8-2.2,5-5,5s-5-2.2-5-5s2.2-5,5-5S224,169.4,224,172.2z"/>
			<path class="st3" d="M97.9,168.8c1,0.9,1.6,2.1,1.6,3.4c0,0.8-0.2,1.5-0.6,2.1c-1,1.7-3.1,2.9-5.6,2.9s-4.5-1.1-5.5-2.7
				c-0.4-0.7-0.7-1.5-0.7-2.3c0-1.4,0.7-2.6,1.8-3.5c1.1-0.9,2.7-1.5,4.4-1.5C95.1,167.1,96.7,167.8,97.9,168.8L97.9,168.8z"/>
			<polyline class="st3" points="0.2,176.6 4,174.5 9.7,171.3 14.1,168.8 40.4,154 			"/>
			<polyline class="st3" points="30.8,183.1 15.1,174.3 9.7,171.3 5.1,168.7 0.2,165.9 			"/>
			<path class="st3" d="M14.1,168.8c1,0.9,1.6,2.1,1.6,3.4c0,0.8-0.2,1.5-0.6,2.1c-1,1.7-3.1,2.9-5.6,2.9S5,176.1,4,174.5
				c-0.4-0.7-0.7-1.5-0.7-2.3c0-1.4,0.7-2.6,1.8-3.5c1.1-0.9,2.7-1.5,4.4-1.5C11.3,167.1,13,167.8,14.1,168.8L14.1,168.8z"/>
			<polyline class="st3" points="156,183.1 171.4,174.5 177.1,171.3 181.5,168.8 207.8,154 			"/>
			<polyline class="st3" points="198.1,183.1 182.5,174.3 177.1,171.3 172.4,168.7 146.4,154 			"/>
			<path class="st3" d="M181.5,168.8c1,0.9,1.6,2.1,1.6,3.4c0,0.8-0.2,1.5-0.6,2.1c-1,1.7-3.1,2.9-5.6,2.9s-4.5-1.1-5.5-2.7
				c-0.4-0.7-0.7-1.5-0.7-2.3c0-1.4,0.7-2.6,1.8-3.5c1.1-0.9,2.7-1.5,4.4-1.5C178.7,167.1,180.3,167.8,181.5,168.8L181.5,168.8z"/>
			<polyline class="st3" points="239.6,183.1 254.9,174.5 260.7,171.3 265.1,168.8 270,166 			"/>
			<polyline class="st3" points="270,176.5 266.1,174.3 260.7,171.3 256,168.7 229.9,154 			"/>
			<path class="st3" d="M265.1,168.8c1,0.9,1.6,2.1,1.6,3.4c0,0.8-0.2,1.5-0.6,2.1c-1,1.7-3.1,2.9-5.6,2.9s-4.5-1.1-5.5-2.7
				c-0.4-0.7-0.7-1.5-0.7-2.3c0-1.4,0.7-2.6,1.8-3.5c1.1-0.9,2.7-1.5,4.4-1.5C262.3,167.1,263.9,167.8,265.1,168.8L265.1,168.8z"/>
			<path class="st3" d="M54.2,172.2c0,2.8-2.2,5-5,5s-5-2.2-5-5s2.2-5,5-5S54.2,169.4,54.2,172.2z"/>
			<rect x="3.9" y="149" class="st3" width="11.3" height="5"/>
			<rect x="45.7" y="149" class="st3" width="11.3" height="5"/>
			<rect x="87.5" y="149" class="st3" width="11.3" height="5"/>
			<rect x="129.3" y="149" class="st3" width="11.3" height="5"/>
			<rect x="171.1" y="149" class="st3" width="11.3" height="5"/>
			<rect x="212.9" y="149" class="st3" width="11.3" height="5"/>
			<rect x="254.8" y="149" class="st3" width="11.3" height="5"/>
		</g>
	</g>
</g>
<g id="_レイヤー_2">
	<g>
		<defs>
			<polygon id="SVGID_1_" points="270.4,161.4 14.4,161.4 12,0 270,0 			"/>
		</defs>
		<clipPath id="SVGID_00000079470473843974742290000006608830118235830970_">
			<use xlink:href="#SVGID_1_"  style="overflow:visible;"/>
		</clipPath>
		<g style="clip-path:url(#SVGID_00000079470473843974742290000006608830118235830970_);">
			<g>
				<g>
					<path class="st5" d="M272.5,123.7v7.1c0,0-9.1,6.4-11.3,7c-0.9,0.2-2.1-0.3-3.3-1.3l0,0c-1.9-1.6-3.9-4.5-4.4-7.9
						c-0.4-1,0.3-3.7-6.4,0.2c-2.3,1.4-4.6,3.5-6.6,5.8c-3.2,3.6-6,7.6-7.8,9.9c-0.3,0.4-0.6,0.8-0.9,1.1c-2.6,2.9-5.5,7-7.2,7
						s-4.4-2.1-7.2-3.9c-0.5-0.3-1-0.5-1.4-0.7c2.6-1.3,1.2-13.5,1.2-13.5l0,0c11.1-3.6,32.2-12,36.6-12.6c5.4-0.7,13.3-0.4,16,0.7
						L272.5,123.7L272.5,123.7z"/>
					<path class="st6" d="M271.4,108.7l1.1,15l-2.7-1.1c-2.7-1.1-10.6-1.5-16-0.7c-4.3,0.6-25.4,9-36.6,12.6
						c-2.7,0.9-4.8,1.5-5.9,1.6c-0.9,0.1-1.9,0.2-2.9,0.2V136c-3.1-1.1-5.1-5.9-6.5-11.2c7.3,0.3,11.4,1.4,18.6-1
						c7.2-2.4,22.9-8.6,29.1-10.7c6.2-2.1,20.2-4.4,20.2-4.4L271.4,108.7L271.4,108.7z"/>
					<path class="st7" d="M271.4,105.2v3.5h-1.6c0,0-13.9,2.4-20.2,4.4c-6.2,2.1-21.9,8.3-29.1,10.7c-7.2,2.4-11.3,1.3-18.6,1
						c-0.3-1.4-0.7-2.8-0.9-4.2l0,0c0,0,5.3,0.7,9.6,0.2c4.3-0.5,15.3-2,20.9-4.6c5.6-2.6,17.8-8.2,24.5-9.2
						C262.7,106.1,271.3,105.2,271.4,105.2L271.4,105.2z"/>
					<path class="st7" d="M271.4,102.1v3.1c0,0-8.7,0.9-15.4,1.9c-6.7,1-18.9,6.7-24.5,9.2c-5.6,2.6-16.6,4-20.9,4.6
						c-4.3,0.5-9.6-0.2-9.6-0.2l0,0c-0.3-1.6-0.5-3.1-0.7-4.5c0,0,9.4,1,15.7,0s19.2-4.8,28-9C252.8,102.9,269.4,102,271.4,102.1
						L271.4,102.1z"/>
					<path class="st8" d="M271.4,100.9v1.2c-2-0.1-18.6,0.7-27.4,5c-8.8,4.2-21.7,8-28,9c-6.3,1-15.7,0-15.7,0
						c-0.4-3-0.6-5.5-0.7-6.8c0-0.5-0.1-0.9-0.1-1.3l0,0c0,0,18.2-5.9,27.3-6.5C235.8,101,262,99.1,271.4,100.9L271.4,100.9z"/>
					<path class="st6" d="M271.4,93.7v7.2c-9.3-1.8-35.6,0.1-44.6,0.7c-9.1,0.6-27.3,6.5-27.3,6.5l0,0c-0.3-2.8-1-4.3-3-5.1
						c1.6-1.2,16.7-5.8,27.8-7.2C235.4,94.3,263.9,92.6,271.4,93.7L271.4,93.7z"/>
					<path class="st6" d="M271.4,82.2v11.5c-7.5-1.1-35.9,0.6-47.1,2.1c-11.1,1.5-26.2,6-27.8,7.2c-0.6-0.2-1.3-0.4-2.1-0.5
						c-1-0.1-2-0.3-3.2-0.4c-3.2-0.3-7.4-0.6-15.9-0.5c-0.7-0.7-1.5-1.3-2.2-1.9c14.9-6.6,35.4-13.7,56.2-16.6
						C250.2,80.2,270,81.2,271.4,82.2L271.4,82.2z"/>
					<path class="st6" d="M271.4,66.8v15.4c-1.4-1-21.1-2-41.9,1c-20.8,2.9-41.4,10-56.2,16.6l0,0c-2.3-1.9-4.8-3.2-9.3-3.7
						c15.4-8,38.1-17.5,60.9-22.7C247.5,68.3,271.4,66.8,271.4,66.8z"/>
					<path class="st6" d="M271.4,45.3v21.5c0,0-23.8,1.5-46.6,6.6c-22.8,5.1-45.5,14.7-60.9,22.7c-1.7-0.2-3.7-0.3-6-0.3
						c-4,0.1-8.9,0.6-13.7,1.2c0,0-0.4-0.5-1-1.2c19.4-10,34.2-19.3,48.8-24.3c14.5-5.1,48.5-12.1,59.1-11.7c3.4-2.3,4.6-3,4.9-3.2
						c0.1-0.1,0.1-0.1,0.1-0.1c0.3-0.2,0.6-0.4,1-0.8C260.4,52.4,268.5,45.7,271.4,45.3L271.4,45.3z"/>
					<path class="st5" d="M252.6,137.3c-5.8-0.1-12.1-2.7-12.1-2.7c2.1-2.3,4.3-4.4,6.6-5.8c6.6-3.9,6-1.2,6.4-0.2
						c0.5,3.4,2.5,6.3,4.4,7.9C256.4,137.2,254.5,137.4,252.6,137.3L252.6,137.3z"/>
					<path class="st6" d="M254.1,49.3c0.3,3.5-0.3,8.2,1.8,7.2c-0.3,0.2-1.5,0.9-4.9,3.2c-10.6-0.3-44.5,6.7-59.1,11.7
						c-14.5,5.1-29.4,14.3-48.8,24.3c-1.2-1.5-3.1-4-4.4-6c0,0,13.9-10.4,25.9-16.9c12.1-6.5,38.3-18.2,52.4-20.5
						c14-2.3,22.3-2.3,22.3-2.3c3.4-2.6,4.4-5.5,8.8-7.3c1.3-0.4,2.2-0.7,2.6-0.7C252.3,41.9,253.7,45.2,254.1,49.3L254.1,49.3z"/>
					<path class="st5" d="M240.5,134.6c0,0,6.3,2.6,12.1,2.7c-6.9,6.4-19.9,7.2-19.9,7.2C234.6,142.2,237.3,138.2,240.5,134.6z"/>
					<path class="st6" d="M238.5,45.3c2.7-0.4,6.9-1.7,9.7-2.5c-4.4,1.8-5.4,4.7-8.8,7.3L238.5,45.3L238.5,45.3z"/>
					<path class="st6" d="M238.5,45.3l0.9,4.8c0,0-8.3,0-22.3,2.3c-14,2.3-40.3,14-52.4,20.5s-25.9,16.9-25.9,16.9
						c-0.4-0.6-0.8-1.2-1-1.7c-1.3-2.7-3.5-9.1-3.6-9.5c0,0,0,0,0,0s11.2-6.4,17.6-10.8c4.4-3,25.4-18.8,48.9-30.1
						c2.4-1.1,4.8-2.2,7.3-3.3c2.2-0.9,4.3-1.8,6.5-2.6c3.6-1.3,7.3-2.5,10.8-3.4c2.3-0.6,4.6-1.1,6.8-1.5
						c1.8,11.8,2.3,17.4,4.2,18.3C236.7,45.5,237.5,45.5,238.5,45.3L238.5,45.3z"/>
					<path class="st7" d="M221,27.2c2.6,0.8,4.2,1.3,4.2,1.3c-3.6,0.9-7.2,2.1-10.8,3.4c-2.7-1.7-18.7-5.8-29.5-6.3
						c-10.8-0.6-29.4,4.1-29.4,4.1c-0.5-1.3-0.8-2.2-0.8-2.2c0.9-1.3,1.8-2.5,2.6-3.7c10.8-3.6,23-6.6,37.1-3.6
						C204.1,22.2,215.1,25.4,221,27.2L221,27.2z"/>
					<path class="st5" d="M217.2,134.5c0,0,1.4,12.3-1.2,13.5c-2.2-0.6-4.6,0.6-10.2-0.1c-6.7-0.9-26-4.4-31.6-8.9
						c4.1-1.8,8-3.7,11-5.5c9.3,1.3,17.3,2.7,23.2,2.6c1.1,0,2-0.1,2.9-0.2C212.5,135.9,214.6,135.3,217.2,134.5L217.2,134.5
						L217.2,134.5z"/>
					<path class="st5" d="M200.6,12.6c7,4.4,13.6,9.7,20.3,14.5c-5.9-1.8-16.9-4.9-26.6-7.1c-14-3.1-26.3,0-37.1,3.6
						c0.9-1.5,1.7-2.8,2.1-3.8c-2.4-0.2-22,4.4-22,4.4c0.8-2.3,1.6-5,1.5-6.5h-0.2c0.4-0.4,0.8-1,1-1.7c5.7-2.3,11.4-4.4,17.2-6.5
						C170.3,4.9,188.4,4.8,200.6,12.6L200.6,12.6z"/>
					<path class="st7" d="M214.4,31.9c-2.2,0.8-4.3,1.7-6.5,2.6l-0.1-0.3c-2.3-0.6-15.7-3.6-22.8-3.6c-7.1,0-14.9,0.8-27.9,3.6l0,0
						c-0.5-1.5-1.1-3.2-1.6-4.5c0,0,18.6-4.6,29.4-4.1C195.7,26.1,211.7,30.1,214.4,31.9z"/>
					<path class="st6" d="M208.4,136v0.2c-5.9,0.1-13.9-1.4-23.2-2.6c0,0-4.1-1.1-9.8-3.1c6-3.1,11.8-7.2,12.3-12.1
						c0,0-1.2-1.9-3-4.6c-0.5-0.8-1.1-1.6-1.6-2.4c-0.1-0.2-0.3-0.4-0.5-0.7c0,0,8.6-7.4,8.6-8.7c1.1,0.1,2.2,0.2,3.2,0.4
						c0.8,0.1,1.5,0.3,2.1,0.5c1.9,0.8,2.6,2.3,3,5.1c0.1,0.4,0.1,0.8,0.1,1.3c0.1,1.3,0.3,3.8,0.7,6.8c0.2,1.4,0.4,3,0.7,4.5
						c0.3,1.4,0.6,2.8,0.9,4.2C203.2,130.2,205.3,135,208.4,136L208.4,136z"/>
					<path class="st7" d="M207.7,34.1l0.1,0.3c-2.4,1-4.9,2.1-7.3,3.3c-10.4-0.6-22.4-1-29.3-0.9c-5,0.1-9.1,0.2-13.3,1.2l-0.1-0.3
						c0.1-0.5-0.3-1.9-0.9-3.6l0,0c13-2.8,20.7-3.6,27.9-3.6C192.1,30.5,205.5,33.5,207.7,34.1L207.7,34.1z"/>
					<path class="st6" d="M191.3,102.2c0,1.3-8.6,8.7-8.6,8.7c-0.5-0.7-1-1.4-1.5-2.1c-2.1-2.9-4.2-5.7-5.8-7.1
						C183.9,101.6,188.1,101.8,191.3,102.2L191.3,102.2z"/>
					<path class="st5" d="M187.7,118.4c-0.5,4.9-6.3,9-12.3,12.1c0,0-2.5,0.7-6.7,1.8c-1.5,0.4-3.1,0.4-4.7,0.1
						c-0.6-0.1-1.3-0.3-1.9-0.5l0,0c-2.5-0.9-5.2-2.6-7.9-5c5.4-1.8,12.2-3.6,16-4.1C175.1,122.2,187.7,118.4,187.7,118.4
						L187.7,118.4z"/>
					<path class="st7" d="M142.6,130.6c-0.3,0.1-0.6,0.1-0.9,0.1c-5.1,0.7-10.7,0.8-13.1,0.4c0,0,0.1-1.3,0-3.1
						c0-0.2-0.1-0.4-0.2-0.6c8.8-0.6,17.4-2.3,24-4.7c6.7-2.4,14.9-5.5,19.6-6.5c4.7-1,12.8-2.4,12.8-2.4c1.7,2.6,3,4.6,3,4.6
						s-12.6,3.8-17.6,4.4c-3.7,0.5-10.6,2.2-16,4.1c-1.9,0.7-3.6,1.3-4.9,1.9C147.5,129.6,145.1,130.2,142.6,130.6L142.6,130.6z"/>
					<path class="st7" d="M183.1,111.5c0.6,0.8,1.1,1.7,1.6,2.4c0,0-8.1,1.4-12.8,2.4s-13,4.1-19.6,6.5c-6.7,2.4-15.2,4.1-24,4.7
						c-1.1-1.6-6-3.4-7.6-4c-0.1,0-0.2-0.1-0.2-0.1l0,0c0,0,6.6,1.1,17,0c10.4-1.1,23.6-6.6,27.6-8.1
						C169,113.8,180.4,111.3,183.1,111.5L183.1,111.5z"/>
					<path class="st8" d="M181.1,108.7c0.5,0.7,1,1.4,1.5,2.1c0.2,0.2,0.3,0.4,0.5,0.7c-2.7-0.2-14.1,2.3-18.1,3.8
						c-4,1.5-17.2,7-27.6,8.1c-10.4,1.1-17,0-17,0l0,0c-0.5-0.2-0.9-0.2-1.4-0.1c-0.1,0-0.1,0-0.2,0c0,0,0,0,0,0
						c-1.1,0.2-3.6,0-5.8-0.2c-2.2-0.2-4.2-0.5-4.2-0.5S97.3,136,95.6,136c-0.4-0.3-0.8-0.5-1.2-0.8c-2.4-1.6-4.4-3.5-5.9-5.1
						c-1.5-1.6-2.5-3-3-4c-1.3-2.4-2.8-6.7-3.5-10.4c-0.3-1.3-0.4-2.6-0.4-3.6c0-2,0.2-4.6,0.9-7.1l0,0c0.4-1.4,0.9-2.8,1.7-4.1l0,0
						c0.7-1.2,1.6-2.2,2.7-3c0.6-0.4,1.5-1,2.6-1.8c2.7-1.8,6.8-4.5,10.8-7.1c0.5-4.6,5.9-17.2,5.9-17.2c0.6-0.4,1.2-0.8,1.6-1.1
						c5.8-3.8,16.8-8.2,20.7-9.9c1.6-0.7,2.7-1.3,3.4-1.8c0,0,0.7,5.4,1.4,11.4c0.3,2.8,0.6,5.8,0.9,8.3c0,0,0,0,0,0
						c0.2,2.4,0.4,4.5,0.4,5.8c0,5.6-0.1,13.7-0.1,13.9c3.1-0.4,6.4-0.9,9.7-1.3c4.9-0.6,9.7-1.1,13.7-1.2c2.4,0,4.3,0.1,6,0.3
						c4.5,0.5,7,1.8,9.3,3.7l0,0c0.7,0.6,1.4,1.2,2.2,1.9C176.9,103.1,179.1,105.8,181.1,108.7L181.1,108.7z"/>
					<path class="st5" d="M175.4,130.5c5.8,2,9.8,3.1,9.8,3.1c-3,1.7-6.9,3.7-11,5.5c-6.7,2.9-14.1,5.5-20,6.4
						c-9.5,1.5-20.6,0-20.6,0l0,0c1.3-2,2.6-4.2,3.7-6.2c0,0,10.7,0.1,14.9-1.4s9.6-2.8,11.6-5.6c1.7,0.3,3.2,0.3,4.7-0.1
						C172.9,131.2,175.4,130.5,175.4,130.5L175.4,130.5z"/>
					<path class="st8" d="M171.4,36.8c6.8-0.1,18.9,0.3,29.3,0.9c-23.5,11.2-44.4,27.1-48.9,30.1c-6.4,4.3-17.6,10.8-17.6,10.8
						c-0.2-2.6-0.5-5.5-0.9-8.3l0.1,0c0.6-1.9,5.2-7.3,9.7-13.8l3.9,2.4l3.9-7.4l2.3-4.3l3-5.7c-1.3-0.5-2.7-1-4.2-1.5l1.1-0.4
						c1.6-0.6,3.2-1.1,4.8-1.5C162.2,37.1,166.4,36.9,171.4,36.8L171.4,36.8z"/>
					<path class="st5" d="M162,131.9c0.7,0.2,1.3,0.4,1.9,0.5c-2,2.8-7.4,4.2-11.6,5.6c-4.3,1.5-14.9,1.4-14.9,1.4
						c2.5-4.6,4.3-8.6,4.3-8.6c0.3,0,0.6-0.1,0.9-0.1c0.1,0.1,3.4,2.9,8.3,3C155.2,133.7,161.7,131.9,162,131.9L162,131.9L162,131.9
						z"/>
					<path class="st5" d="M157.3,23.7c-0.8,1.2-1.7,2.4-2.6,3.7c-3.6,4.9-8,9.9-9.4,10.3c-5-1.4-9.7-2.4-11.9-2.2
						c1-2.7,2.1-5.4,3-8.1c0.2-0.7,0.7-1.8,1.1-3.1c0,0,19.6-4.6,22-4.4C159,20.9,158.2,22.2,157.3,23.7L157.3,23.7z"/>
					<path class="st5" d="M154.1,126.9c2.7,2.4,5.4,4.1,7.9,5c-0.2,0.1-6.8,1.8-11.1,1.8c-4.9-0.1-8.2-2.8-8.3-3
						c2.6-0.4,5-1,6.6-1.8C150.5,128.2,152.2,127.5,154.1,126.9L154.1,126.9z"/>
					<path class="st5" d="M158,37.7l0.1,0.3c-1.6,0.4-3.1,0.8-4.8,1.5l-1.1,0.4c-2.2-0.8-4.6-1.5-6.9-2.2c1.4-0.5,5.8-5.5,9.4-10.3
						c0,0,0.3,0.9,0.8,2.2c0.5,1.3,1.1,3,1.6,4.5C157.6,35.8,158,37.3,158,37.7L158,37.7z"/>
					<path class="st7" d="M156.4,41.4l-3,5.7c0,0-7.4-2.7-10.7-3.8c-3.3-1.1-11.6-2.3-11.8-2.4c0.9-1.6,1.8-3.2,2.4-4.9
						c0.1-0.2,0.1-0.4,0.2-0.6c2.2-0.2,6.9,0.8,11.9,2.2c2.3,0.7,4.7,1.4,6.9,2.2C153.7,40.4,155.1,40.9,156.4,41.4L156.4,41.4z"/>
					<path class="st7" d="M153.3,47.1l-2.3,4.3c-7.1-4-21-6.3-22.3-6.5c0.6-1.4,1.3-2.7,2.1-4.1l0,0c0.2,0,8.5,1.2,11.8,2.4
						C145.9,44.5,153.3,47.1,153.3,47.1L153.3,47.1z"/>
					<path class="st7" d="M151,51.5l-3.9,7.4l-3.9-2.4c0.7-1,1.4-2,2.1-3.1c0.5-0.2-14.5-2.2-14.5-2.2l-0.1,0
						c-0.2-0.6-0.5-1.5-1-2.8c-0.2-0.5-0.8-2.2-1.1-3.1c0-0.1,0.1-0.1,0.1-0.2C129.9,45.2,143.8,47.5,151,51.5L151,51.5z"/>
					<path class="st8" d="M130.8,51.1c0,0,15,2.1,14.5,2.2c-0.7,1-1.4,2.1-2.1,3.1c-4.6,6.5-9.1,11.9-9.7,13.8l-0.1,0
						c-0.7-6-1.4-11.4-1.4-11.4c1-0.7,1.2-1.3,1.4-1.9c0.4-1,0-2.8-0.8-4.1c-0.2-0.4-0.5-0.6-1.4-0.4l0-0.1
						C131.1,52.3,131,52,130.8,51.1L130.8,51.1L130.8,51.1z"/>
					<path class="st8" d="M143.2,95.8c0.6,0.7,1,1.2,1,1.2c-3.3,0.4-6.6,0.9-9.7,1.3c0-0.3,0.1-8.3,0.1-13.9c0-1.3-0.1-3.4-0.4-5.8
						c0.1,0.4,2.4,6.8,3.6,9.5c0.2,0.5,0.6,1.1,1,1.7C140,91.8,142,94.3,143.2,95.8L143.2,95.8z"/>
					<path class="st8" d="M141.6,130.8c0,0-1.7,4-4.3,8.6c-1.1,2-2.4,4.2-3.7,6.2c-2.6,3.9-5.5,7.3-8.1,8.1
						c-2.5-0.1-3.6,0.1-4.8-0.8c-0.4-0.3-0.8-0.7-1.2-1.2c-2-2.3-8.8-11.7-8.8-11.7c7.2-1,14.3-6.4,17.8-8.9
						C130.9,131.6,136.5,131.5,141.6,130.8L141.6,130.8z"/>
					<path class="st1" d="M92.2,39.9v-3.7l0,0c-1.9,1.4-3.8,2.8-5.4,3.9c-2.3,1.6-4.1,2.8-4.9,3.2c-0.2-0.2-0.4-0.5-0.6-0.7
						c-2-2-3.8-4.2-6-5.5l0-0.1c2.3,1.1,43.6-28,48-31.9c3.8-3.4,9.7-3.2,13-1.2c3.3,2,4,6.6,4,9.5c0,0.7-0.2,1.7-0.6,2.7
						c-0.3,0.7-0.6,1.3-1,1.7c-0.6-0.2,0.2-2.9-0.2-2.8c-0.4,0.1-2.1-0.3-3.7-1.3c-1.6-1-2.8-2.7-3.6-4c-0.9-1.3-1.7-1.7-2.7-0.7
						c-1,1-3.2,1.7-3.7,2.3c-0.4,0.6-6.2,8.2-8.7,11.9l-0.7-0.3c-3.8,4.7-18.9,16.8-23.1,20.1L92.2,39.9L92.2,39.9z"/>
					<path class="st1" d="M128.7,45c0,0.1-0.1,0.1-0.1,0.2c-0.2,0.5-0.4,0.9-0.5,1.4c-1.4-1.8-2.8-3.7-3.1-6
						c-0.1-1.3,0.5-2.5,1.3-3.7c0.6-0.9,1.3-1.8,1.8-2.6l0,0c0.9-0.5,1.7-1.1,2.5-1.6c3.9-2.8,8.2-15,8.2-15h0.2
						c0.1,1.4-0.7,4.2-1.5,6.5c-0.4,1.3-0.8,2.4-1.1,3.1c-0.9,2.7-2,5.4-3,8.1c-0.1,0.2-0.2,0.4-0.2,0.6c-0.6,1.7-1.5,3.3-2.4,4.9
						l0,0C130,42.3,129.3,43.6,128.7,45L128.7,45z"/>
					<path class="st9" d="M135,24.5c0,0-0.1,0-0.1,0c-0.2,0-0.4,0.2-0.4,0.4s0.2,0.4,0.4,0.4s0.4-0.2,0.4-0.4
						C135.2,24.8,135.1,24.7,135,24.5C135,24.6,135,24.6,135,24.5L135,24.5z M126.6,20.1c-0.2,0-0.4,0.2-0.4,0.4s0.2,0.4,0.4,0.4
						c0.2,0,0.4-0.2,0.4-0.4c0-0.1-0.1-0.2-0.2-0.3l0,0C126.8,20.1,126.7,20.1,126.6,20.1L126.6,20.1L126.6,20.1z M115.9,36.6
						l-0.1,0.2c0,0-8.4,8.2-15.6,14.3L99,39.5l0,0c6.4-5.3,15-13.2,16.4-15.3c0.2-0.3,0.4-0.6,0.7-1c2.5-3.6,8.3-11.3,8.7-11.9
						c0.5-0.6,2.7-1.3,3.7-2.3c1-1,1.8-0.6,2.7,0.7c0.9,1.3,2,3.1,3.6,4c1.6,1,3.3,1.3,3.7,1.3c0.4-0.1-0.4,2.6,0.2,2.8
						c0,0-4.2,12.2-8.2,15c-0.7,0.5-1.6,1.1-2.5,1.6l0,0c-0.7,0.4-1.4,0.8-2.2,1.1c-1.4,0.6-3,1.1-4.6,1.3h0
						C119.6,37,117.8,37,115.9,36.6L115.9,36.6z M137.4,19.3c0.1-0.3-0.2-0.7-0.8-1c-0.6-0.3-1.2-0.3-1.3-0.1
						c-0.1,0.3,0.2,0.7,0.8,1C136.7,19.6,137.3,19.6,137.4,19.3z M130.1,15.5c0.1-0.3-0.3-0.7-0.9-1s-1.2-0.3-1.3,0
						c-0.1,0.3,0.3,0.7,0.9,1C129.4,15.8,130,15.8,130.1,15.5L130.1,15.5z M126.2,33.3l-0.7-0.7l-0.5-0.2c0,0,0-0.3-0.3-0.4
						c-0.3-0.2-2.5,0-2.5,0c0,0.1,0,0.2,0,0.3c0.2,1.3,0.8,2.7,3.2,1.5C125.7,33.6,126,33.4,126.2,33.3L126.2,33.3z"/>
					<path class="st1" d="M136.6,18.3c0.6,0.3,0.9,0.8,0.8,1c-0.1,0.3-0.7,0.3-1.3-0.1c-0.6-0.3-0.9-0.8-0.8-1
						C135.4,18,136,18,136.6,18.3z"/>
					<path d="M135.1,24.6c0.1,0.1,0.2,0.2,0.2,0.3c0,0.2-0.2,0.4-0.4,0.4c-0.2,0-0.4-0.2-0.4-0.4s0.2-0.4,0.4-0.4
						C134.9,24.5,134.9,24.5,135.1,24.6C135,24.5,135,24.6,135.1,24.6L135.1,24.6z"/>
					<path class="st6" d="M132.5,52.9c0.8,1.3,1.2,3.1,0.8,4.1c-0.2,0.6-0.5,1.2-1.4,1.9c-0.7,0.5-1.7,1.1-3.4,1.8
						c-3.9,1.7-14.9,6.1-20.7,9.9c-0.5,0.3-1,0.7-1.6,1.1c-5.6,3.7-17,11.5-17,11.5c-1.9-0.9-2.3-2.4-2.3-3.5c0-0.3,0-0.6,0.1-0.8
						c0,0,0.3-0.3,0.9-0.8c2.4-2.2,9.6-8.3,18.7-13.9c4.6-2.9,9.8-5.8,14.9-7.9c5.7-2.6,8.3-3.6,9.6-3.8
						C132,52.3,132.2,52.5,132.5,52.9L132.5,52.9z"/>
					<path class="st8" d="M131.1,52.3l0,0.1c-1.3,0.2-3.9,1.3-9.6,3.8c-5.1,2.1-10.3,5-14.9,7.9C97.5,69.8,90.3,76,87.9,78.1
						c-0.2-0.8-1.3-3.6-2.8-6.6l0.5,0c8.9-6.3,38.1-34.6,35.8-34.6c1.6-0.2,3.2-0.7,4.6-1.3c0,0,0.1,0.3,0.4,1.5
						c-0.8,1.2-1.4,2.4-1.3,3.7c0.2,2.3,1.7,4.2,3.1,6c0.1-0.5,0.3-1,0.5-1.4c0.3,0.9,0.9,2.7,1.1,3.1c0.4,1.3,0.7,2.2,1,2.8
						C130.9,52,131,52.3,131.1,52.3L131.1,52.3z"/>
					<path class="st1" d="M129.3,14.5c0.6,0.3,1,0.7,0.9,1c-0.1,0.3-0.7,0.3-1.3,0c-0.6-0.3-1-0.7-0.9-1
						C128.1,14.2,128.7,14.2,129.3,14.5L129.3,14.5z"/>
					<path class="st5" d="M128.5,128.1c0.1,1.8,0,3.1,0,3.1c-6.3,0.5-14.4-2.3-14.4-2.3l-0.2-0.1c1.4-2,2.4-3.5,2.8-3.9
						c0.8-0.9,1.5-1.3,2.1-1.5c0,0,0,0,0,0c0.1,0,0.1,0,0.2,0c0.5-0.1,0.9,0,1.4,0.1c0.1,0,0.2,0.1,0.2,0.1c1.6,0.7,6.5,2.4,7.6,4
						C128.4,127.7,128.5,127.8,128.5,128.1L128.5,128.1z"/>
					<path class="st5" d="M106.7,140.1c-0.5-0.1-1-0.1-1.4-0.3c2.6-2.7,6.2-7.7,8.6-11.2l0.2,0.1c0,0,8.1,2.8,14.4,2.3
						c-3.5,2.5-10.6,7.9-17.8,8.9C109.3,140.2,108,140.3,106.7,140.1L106.7,140.1z"/>
					<path d="M126.8,20.2c0.1,0.1,0.2,0.2,0.2,0.3c0,0.2-0.2,0.4-0.4,0.4s-0.4-0.2-0.4-0.4s0.2-0.4,0.4-0.4l0,0
						C126.7,20.1,126.7,20.2,126.8,20.2L126.8,20.2L126.8,20.2z"/>
					<path d="M126.8,20.2c-0.1,0-0.1-0.1-0.2-0.1C126.7,20.1,126.8,20.1,126.8,20.2z"/>
					<path class="st5" d="M125.5,32.6l0.7,0.7c-0.2,0.1-0.5,0.3-0.7,0.4v-0.3l-3.2-1.2c0-0.1,0-0.2,0-0.3c0,0,2.2-0.2,2.5,0
						c0.3,0.2,0.3,0.4,0.3,0.4L125.5,32.6L125.5,32.6z"/>
					<path class="st5" d="M125.5,33.4v0.3c-2.4,1.2-3-0.2-3.2-1.5L125.5,33.4L125.5,33.4z"/>
					<path class="st6" d="M92.2,56.9c2-1,4.9-3.2,8-5.8c7.3-6.1,15.6-14.3,15.6-14.3l0.1-0.2c1.8,0.4,3.6,0.5,5.3,0.2h0
						c2.4,0-26.9,28.3-35.8,34.6l-0.5,0c-1.8-3.7-4.2-7.7-5.9-9.2c1.5-4.4,2.9-8.3,3.6-11.6c0,0,1-0.7,2.5-1.6
						c1.3-0.8,2.8-1.8,4.2-2.7c1.1-0.7,2.1-1.4,2.8-1.9L92.2,56.9L92.2,56.9z"/>
					<path class="st6" d="M120.7,152.9l-4.2,2.1l-2-2.9l-7.9-11.9c1.3,0.2,2.7,0.1,4-0.1c0,0,6.8,9.4,8.8,11.7
						C119.9,152.2,120.3,152.6,120.7,152.9L120.7,152.9z"/>
					<path class="st7" d="M113,123c2.2,0.2,4.7,0.4,5.8,0.2c-0.7,0.2-1.3,0.7-2.1,1.5c-0.4,0.4-1.4,1.9-2.8,3.9
						c-2.5,3.5-6,8.4-8.6,11.2c-0.7-0.1-1.4-0.3-2.1-0.5c-1.3-0.4-2.6-0.8-3.8-1.4C106.2,132.7,113,123,113,123L113,123z"/>
					<path class="st1" d="M115.3,22.9l0.7,0.3c-0.3,0.4-0.5,0.7-0.7,1c-1.4,2.1-10,10-16.4,15.3c-2.5,2.1-4.7,3.8-5.9,4.6
						c-0.1,0.1-0.4,0.3-0.8,0.6V43C96.4,39.7,111.5,27.5,115.3,22.9z"/>
					<path class="st6" d="M106.7,140.1l7.9,11.9l-5.2,2.9l-6.2-15.6c0.7,0.2,1.4,0.4,2.1,0.5C105.7,140,106.2,140.1,106.7,140.1z"/>
					<path class="st7" d="M108.9,122.5c0,0,1.9,0.3,4.2,0.5c0,0-6.8,9.7-13.7,15c-1.3-0.6-2.6-1.2-3.7-2
						C97.3,136,108.9,122.5,108.9,122.5L108.9,122.5z"/>
					<path class="st6" d="M103.1,139.4l6.2,15.6c-0.4-0.2-0.7-0.4-1.1-0.6c-6.1-3.8-11.9-14.3-13.9-19.1c0.4,0.3,0.8,0.5,1.2,0.8
						c1.1,0.7,2.4,1.4,3.7,2C100.5,138.5,101.8,139,103.1,139.4L103.1,139.4z"/>
					<path class="st6" d="M108.3,154.4l0.6,2.4c0,0-2.3,0.7-5.7,1.4c-2.6-0.8-6.2-7.2-9.2-14l0,0c-2.3-5.3-4.4-10.8-5.4-14
						c1.5,1.7,3.5,3.5,5.9,5.1C96.4,140.1,102.2,150.6,108.3,154.4z"/>
					<path class="st8" d="M106.2,71.7c0,0-5.4,12.6-5.9,17.2c-4,2.6-8.1,5.3-10.8,7.1c0.3-4.8,0.7-8.8-0.2-12.7h0
						c0-0.1-0.1-0.2-0.1-0.2C89.2,83.2,100.6,75.4,106.2,71.7L106.2,71.7z"/>
					<path class="st6" d="M99,39.5l1.3,11.6c-3.1,2.6-6.1,4.8-8,5.8V44.6c0.4-0.3,0.7-0.5,0.8-0.6C94.3,43.3,96.5,41.5,99,39.5
						C99,39.4,99,39.5,99,39.5z"/>
					<path class="st8" d="M93.9,144.1c-0.5,0-1,0.1-1.5,0.1c-3.1-8.4-8.6-13-14.8-18.6c0.4-1.7,0.6-2.8,0.6-2.8c1.8-3,3.1-5.5,3.8-7
						l0,0c0.7,3.8,2.2,8.1,3.5,10.4c0.5,1,1.5,2.4,3,4C89.5,133.4,91.6,138.9,93.9,144.1L93.9,144.1z"/>
					<path class="st1" d="M92.2,43v1.6c-0.7,0.5-1.7,1.1-2.8,1.9l0.5-4.8l-0.1-0.1c0.7-0.5,1.5-1.1,2.4-1.7V43L92.2,43z"/>
					<path class="st1" d="M92.2,36.2v3.7c-0.9,0.7-1.7,1.2-2.4,1.7c-1.8,1.3-2.9,2-2.9,2l-0.7-0.1l0.6-3.4l0,0
						C88.4,39,90.3,37.6,92.2,36.2L92.2,36.2L92.2,36.2z"/>
					<path class="st5" d="M92.4,144.2c-10.9,0.3-18.2-2.7-18.7-2.9c1.7-5.5,3.2-12.1,3.9-15.7C83.7,131.2,89.3,135.8,92.4,144.2
						L92.4,144.2z"/>
					<path class="st1" d="M89.8,41.6l0.1,0.1l-0.5,4.8c-1.4,0.9-2.9,1.9-4.2,2.7l1-5.7l0.7,0.1C86.9,43.6,88,42.9,89.8,41.6
						L89.8,41.6z"/>
					<path class="st8" d="M89.3,83.4c0.9,3.9,0.5,7.9,0.2,12.7c-1.1,0.8-2,1.4-2.6,1.8c-1.1,0.8-2,1.8-2.7,3c1-2.1,0.4-8.5,0.4-8.5
						c0.7-1.3,1.6-3,2.3-4C88.5,87.3,89.5,84.2,89.3,83.4L89.3,83.4L89.3,83.4z"/>
					<path class="st6" d="M89.3,83.4c0.1,0.9-0.8,3.9-2.4,4.9c-0.3,0.2-0.6,0.3-0.9,0.4c-0.1,0-0.3,0-0.4,0c-0.1,0-0.2,0-0.3-0.1
						c-0.1,0-0.2-0.1-0.3-0.1c-0.2-0.1-0.4-0.3-0.6-0.4c-0.2-0.2-0.3-0.3-0.4-0.5c-0.4-0.6-0.6-1.3-0.7-1.8c0-0.1-0.1-0.3-0.1-0.4
						c-0.3-1.4,2.2-5.3,3.8-5.6l0,0c0,1.1,0.4,2.6,2.3,3.5C89.3,83.2,89.3,83.3,89.3,83.4L89.3,83.4z"/>
					<path class="st8" d="M85.1,71.5c1.5,3,2.7,5.8,2.8,6.6c-0.6,0.5-0.9,0.8-0.9,0.8c-0.1,0.2-0.1,0.5-0.1,0.8l0,0
						c-1.6,0.4-4.1,4.3-3.8,5.6c-1.1-2.9-6.6-13.9-6.6-13.9c1.1-3.6,2.1-6.8,2.6-9.1C80.9,63.8,83.3,67.8,85.1,71.5L85.1,71.5z"/>
					<path class="st1" d="M86.8,40.1L86.8,40.1l-0.6,3.4l-1,5.7c-1.4,0.9-2.5,1.6-2.5,1.6c0.6-3.1,0.5-5.6-0.9-7.5
						C82.7,42.9,84.5,41.7,86.8,40.1L86.8,40.1z"/>
					<path class="st6" d="M86,88.7c0.3,0,0.6-0.2,0.9-0.4c-0.7,1-1.6,2.7-2.3,4c-0.5,1-0.9,1.8-0.9,1.8l-1.2-0.7
						C83.9,91,85,89.5,86,88.7L86,88.7L86,88.7z"/>
					<path class="st6" d="M85.2,88.7L85.2,88.7c0.1,0,0.2,0,0.3,0c0.1,0,0.3,0,0.4,0l0,0c-1,0.8-2,2.3-3.4,4.8L81.6,93
						C81.4,92.7,84.7,88.6,85.2,88.7L85.2,88.7z"/>
					<path class="st6" d="M85.2,88.6L85.2,88.6c-0.5,0-3.8,4.1-3.6,4.4l-1.1-0.5c0.4-0.6,1.5-2.1,4.2-3.9l0.2-0.1
						C85.1,88.6,85.2,88.6,85.2,88.6L85.2,88.6z"/>
					<path class="st6" d="M80.6,92.5c-0.1,0.2-0.2,0.3-0.2,0.3l-0.9-0.6l0.5-0.6c0,0,3.2-3.2,4.2-3.3l0.1-0.1
						c0.2,0.2,0.4,0.3,0.6,0.4l-0.2,0.1C82.1,90.4,81,91.9,80.6,92.5L80.6,92.5z"/>
					<path class="st8" d="M84.6,92.4c0,0,0.7,6.4-0.4,8.5l0,0c-0.8,1.3-1.3,2.7-1.7,4.1c-0.6-2.9-2.5-7.8-4.3-12.4l1.3-0.5l0.9,0.6
						c0,0,0.1-0.1,0.2-0.3l1.1,0.5l0.9,0.5l1.2,0.7C83.7,94.2,84.1,93.4,84.6,92.4L84.6,92.4z"/>
					<path class="st6" d="M84.4,88.1l-0.1,0.1c-1.1,0.1-4.2,3.3-4.2,3.3l-0.7-0.7c0,0,3.4-3.1,4.4-3.2l0.2-0.1
						C84.1,87.8,84.2,87.9,84.4,88.1L84.4,88.1z"/>
					<path class="st6" d="M79.3,89.5l-0.4-0.8l4.2-2.9l0.1,0c0.1,0.5,0.4,1.2,0.7,1.8l-0.2,0.1c-1,0.1-4.4,3.2-4.4,3.2l-0.4-0.7
						L79.3,89.5L79.3,89.5z"/>
					<path class="st8" d="M83.2,85.7l-0.1,0l-4.2,2.9l0.4,0.8l-0.4,0.6l0.4,0.7l0.7,0.7l-0.5,0.6l-1.3,0.5
						c-2.4-5.9-4.9-11.4-4.9-11.4l0,0c1.1-3.2,2.2-6.6,3.2-9.8c0,0,5.4,11,6.6,13.9C83.2,85.5,83.2,85.6,83.2,85.7L83.2,85.7z"/>
					<path class="st8" d="M73.3,81.2L73.3,81.2c0,0,2.5,5.4,4.9,11.4c1.9,4.6,3.7,9.5,4.3,12.4l0,0c-0.7,2.5-0.9,5.1-0.9,7.1
						c0,1.1,0.1,2.3,0.4,3.6l0,0c-0.7,1.5-2,4-3.8,7c-1.9,3.2-4.4,6.9-7.3,10.5c-0.8,0.9-1.6,1.9-2.4,2.8
						c-11.2-5.6-21.5-18.6-26.8-31.2c-4.9-11.6-5.4-23.2-3.6-29.7c2.8-0.6,5.4-1.4,5.9-1.8c1.3-1.4,3.3-3.8,5.5-6.6
						c0.6-0.8,1.2-1.6,1.9-2.4c-7.2-5.3-13.3-18-13.3-18c2-0.4,3.8-0.8,5-1.1c4.9-1.2,17.6-6,24.5-8.5c3.2-1.2,5.6-0.8,7.5,0.3
						c2.2,1.3,4,3.5,6,5.5c0.2,0.2,0.4,0.5,0.6,0.7c1.4,1.9,1.5,4.4,0.9,7.5c-0.6,3.3-2.1,7.1-3.6,11.6c-0.5,2.3-1.5,5.6-2.6,9.1
						C75.6,74.6,74.4,78,73.3,81.2L73.3,81.2z"/>
					<path class="st6" d="M73.7,141.3c-1.4,4.6-3,8.6-4.4,9.6c-3.7,0.2-8.2-0.9-8.2-0.9c4.6-5.9,7.9-8.9,9.9-16.8
						c2.9-3.6,5.4-7.3,7.3-10.5c0,0-0.2,1.1-0.6,2.8C76.9,129.2,75.4,135.7,73.7,141.3L73.7,141.3z"/>
					<path class="st6" d="M68.6,136c0.8-0.9,1.6-1.9,2.4-2.8c-2,7.8-5.2,10.9-9.9,16.8l-0.6,0.8c0,0-2.7-1.3-4.9-2.5l2.8-2.8
						l0.1-0.1l6.8-6.9l0,0C67.2,137.1,68.6,136,68.6,136z"/>
					<path class="st7" d="M68.6,136c0,0-1.3,1.1-3.4,2.5c-0.2,0.1-0.3,0.2-0.5,0.4c-8.5-6.1-18.2-16.9-24.7-26.8
						c-6.5-9.9-7.1-24.7-5.9-36.1c1.3-0.2,2.8-0.5,4.3-0.8c-1.8,6.6-1.3,18.2,3.6,29.7C47.1,117.5,57.4,130.4,68.6,136z"/>
					<path class="st6" d="M65.1,138.5L65.1,138.5l-6.8,6.9l-0.1,0.1c-0.6,0.6-3.4,2.9-3.4,2.9l-2.4-2.5l4.4-3.4l0.2-0.1l2-1.6
						l0.2-0.4c0.4,0.3,0.9,0.6,1.3,0.8c1.4-0.8,2.7-1.6,3.9-2.4C64.8,138.8,65,138.7,65.1,138.5L65.1,138.5z"/>
					<path class="st7" d="M64.6,138.9c-1.1,0.8-2.4,1.6-3.9,2.4c-0.4-0.3-0.9-0.5-1.3-0.8c-1.2-0.8-2.4-1.6-3.6-2.5
						C45.7,130,38,118,33.5,110.9c-5.2-8.2-5.1-16-5.7-30.2l-0.1-0.1c1.1-1.7,2.3-3.2,3.7-4.5c0.6,0,1.5-0.1,2.6-0.2
						c-1.2,11.4-0.7,26.2,5.9,36.1C46.4,122,56.1,132.8,64.6,138.9L64.6,138.9z"/>
					<path class="st6" d="M59.4,140.5l-0.2,0.4l-2,1.6l-0.2,0.1c-1.8,1.3-5.6,3-7.9,4.1L46,143l8-4.1l1.9-1
						C57,138.8,58.2,139.7,59.4,140.5z"/>
					<path class="st6" d="M55.9,137.9l-1.9,1l-10.5,3.8l-1.4-3.8l7-4l0.1-0.1c0.8,0.7,1.7,1.3,2.6,1.7
						C54.9,137.8,55.9,137.9,55.9,137.9L55.9,137.9z"/>
					<path class="st5" d="M55.9,137.9c0,0-1-0.1-4.1-1.4c-0.9-0.4-1.8-1-2.6-1.7c-1.1-0.9-2.1-2-3-2.9c-3-2.9-6-5.9-8.9-8.9
						c-5.7-6-13.4-12.8-15-21.3c-0.5-2.4-0.4-4.9,0-7.3c0.6-4.5,2.7-9.6,5.4-13.8l0,0l0.1,0.1c0.6,14.2,0.4,22,5.7,30.2
						C38,118,45.7,130,55.9,137.9L55.9,137.9z"/>
					<path class="st7" d="M51.5,64.4c-0.6,0.8-1.3,1.6-1.9,2.4C40.8,59.2,35.4,47,35.4,47c1-0.2,1.9-0.4,2.9-0.6
						C38.2,46.4,44.4,59.1,51.5,64.4L51.5,64.4z"/>
					<path class="st7" d="M49.7,66.8c-2.2,2.8-4.2,5.2-5.5,6.6c0,0-2.7-2.5-4.6-3.7c-0.7-0.4-2.3-2-4.2-4.4c-3.4-4-8-10.1-11.5-16.1
						c0,0,5.9-1.1,11.5-2.2C35.4,47,40.8,59.2,49.7,66.8L49.7,66.8z"/>
					<path class="st5" d="M38.2,75.2c-1.5,0.3-3,0.6-4.3,0.8c-1.1,0.2-2,0.3-2.6,0.2c0,0-0.1-0.2-0.3-0.7c0,0,3-10.6,4.3-10.2
						c2,2.4,3.5,4,4.2,4.4c1.9,1.1,4.6,3.7,4.6,3.7C43.6,73.8,41,74.5,38.2,75.2L38.2,75.2z"/>
					<path class="st5" d="M35.4,65.3C34,64.9,31,75.5,31,75.5c-1-1.9-4-7.7-5-11.6c-1.3-4.7-2.8-9.8-2.1-14.7
						C27.4,55.2,32,61.3,35.4,65.3z"/>
				</g>
				<g>
					<path class="st10" d="M132.5,21.5c0,0-0.4,3-1.1,4.7c-0.7,1.7-1.3,2.4-2.2,3.1c-0.9,0.7-2.9,0-2.9,0"/>
					<path class="st11" d="M127.2,27.9c-0.7-0.1-1.1,0-1.5,0.4"/>
					<path class="st10" d="M125.5,33.7c0.2-0.1,0.4-0.2,0.7-0.4l-0.7-0.7l-0.5-0.2c0,0,0-0.3-0.3-0.4c-0.3-0.2-2.5,0-2.5,0
						c0,0.1,0,0.2,0,0.3C122.5,33.5,123.1,34.9,125.5,33.7L125.5,33.7z"/>
					<line class="st10" x1="122.3" y1="32.2" x2="125.5" y2="33.4"/>
					<path class="st10" d="M121.3,36.8c-1.7,0.2-3.5,0.2-5.3-0.2c-0.6-0.1-1.3-0.3-1.9-0.6"/>
					<path class="st10" d="M128.1,34.4c-0.7,0.4-1.4,0.8-2.2,1.1c-1.4,0.6-3,1.1-4.6,1.3"/>
					<path class="st10" d="M138.7,17.8c0,0-4.2,12.2-8.2,15c-0.7,0.5-1.6,1.1-2.5,1.6"/>
					<path class="st10" d="M126.8,20.2c0.3,0.1,0.5,0.2,0.7,0.3"/>
					<path class="st10" d="M124.3,19.2c0,0,1.3,0.5,2.3,0.9"/>
					<line class="st10" x1="135.1" y1="24.6" x2="135.5" y2="24.8"/>
					<line class="st10" x1="133.5" y1="23.7" x2="135" y2="24.5"/>
					<path class="st10" d="M130.1,15.5c-0.1,0.3-0.7,0.3-1.3,0c-0.6-0.3-1-0.7-0.9-1c0.1-0.3,0.7-0.3,1.3,0
						C129.9,14.8,130.3,15.2,130.1,15.5L130.1,15.5z"/>
					<path class="st10" d="M137.4,19.3c-0.1,0.3-0.7,0.3-1.3-0.1c-0.6-0.3-0.9-0.8-0.8-1c0.1-0.3,0.7-0.3,1.3,0.1
						C137.2,18.6,137.5,19.1,137.4,19.3z"/>
					<path class="st10" d="M75.3,37C75.3,37,75.3,37,75.3,37c2.4,1.2,43.7-27.9,48.1-31.8c3.8-3.4,9.7-3.2,13-1.2c3.3,2,4,6.6,4,9.5
						c0,0.7-0.2,1.7-0.6,2.7c-0.3,0.7-0.6,1.3-1,1.7c-0.6-0.2,0.2-2.9-0.2-2.8c-0.4,0.1-2.1-0.3-3.7-1.3c-1.6-1-2.8-2.7-3.6-4
						c-0.9-1.3-1.7-1.7-2.7-0.7c-1,1-3.2,1.7-3.7,2.3c-0.4,0.6-6.2,8.2-8.7,11.9c-0.3,0.4-0.5,0.7-0.7,1c-1.4,2.1-10,10-16.4,15.3
						c-2.5,2.1-4.7,3.8-5.9,4.6c-0.1,0.1-0.4,0.3-0.8,0.6c-0.7,0.5-1.7,1.1-2.8,1.9c-1.4,0.9-2.9,1.9-4.2,2.7
						c-1.4,0.9-2.5,1.6-2.5,1.6"/>
					<path class="st10" d="M128.6,45.2C128.6,45.2,128.6,45.2,128.6,45.2c0.3,0.9,1,2.7,1.1,3.2c0.4,1.3,0.7,2.2,1,2.8
						c0.3,0.9,0.4,1.2,0.4,1.2"/>
					<path class="st10" d="M125.9,35.5c0,0,0.1,0.3,0.4,1.5"/>
					<path class="st10" d="M89.2,83.2c0,0,11.4-7.8,17-11.5c0.6-0.4,1.2-0.8,1.6-1.1c5.8-3.8,16.8-8.2,20.7-9.9
						c1.6-0.7,2.7-1.3,3.4-1.8c1-0.7,1.2-1.3,1.4-1.9c0.4-1,0-2.8-0.8-4.1c-0.2-0.4-0.5-0.6-1.4-0.4c-1.3,0.2-3.9,1.3-9.6,3.8
						c-5.1,2.1-10.3,5-14.9,7.9C97.5,69.8,90.3,76,87.9,78.1c-0.6,0.5-0.9,0.8-0.9,0.8c-0.1,0.2-0.1,0.5-0.1,0.8
						C86.9,80.8,87.3,82.3,89.2,83.2L89.2,83.2z"/>
					<path class="st10" d="M121.3,36.8L121.3,36.8c2.4,0-26.9,28.3-35.7,34.6"/>
					<path class="st10" d="M115.9,36.8c0,0-8.4,8.2-15.6,14.3c-3.1,2.6-6.1,4.8-8,5.8"/>
					<line class="st10" x1="99" y1="39.5" x2="100.3" y2="51.1"/>
					<path class="st10" d="M55.9,137.9c0,0-1-0.1-4.1-1.4c-0.9-0.4-1.8-1-2.6-1.7c-1.1-0.9-2.1-2-3-2.9c-3-2.9-6-5.9-8.9-8.9
						c-5.7-6-13.4-12.8-15-21.3c-0.5-2.4-0.4-4.9,0-7.3c0.6-4.5,2.7-9.6,5.4-13.8l0,0c1.1-1.7,2.3-3.2,3.7-4.5c0,0-0.1-0.2-0.3-0.7
						c-1-1.9-4-7.7-5-11.6c-1.3-4.7-2.8-9.8-2.1-14.7c0,0,5.9-1.1,11.5-2.2c1-0.2,1.9-0.4,2.9-0.6c2-0.4,3.8-0.8,5-1.1
						c4.9-1.2,17.6-6,24.5-8.5c3.2-1.2,5.6-0.8,7.5,0.3c2.2,1.3,4,3.5,6,5.5c0.2,0.2,0.4,0.5,0.6,0.7c1.4,1.9,1.5,4.4,0.9,7.5
						c-0.6,3.3-2.1,7.1-3.6,11.6c-0.5,2.3-1.5,5.6-2.6,9.1c-1,3.2-2.2,6.6-3.2,9.8c-1.8,5.5-3.5,10.4-3.9,12.6
						c-1,4.7-2.6,16-2.6,19.9"/>
					<path class="st10" d="M27.8,80.7c0.6,14.2,0.4,22,5.7,30.2c4.5,7.1,12.2,19,22.4,27c1.2,0.9,2.3,1.8,3.6,2.5
						c0.4,0.3,0.9,0.6,1.3,0.8c1.4-0.8,2.7-1.6,3.9-2.4c0.2-0.1,0.4-0.2,0.5-0.4c2.1-1.4,3.4-2.5,3.4-2.5
						c-11.2-5.6-21.5-18.6-26.8-31.2c-4.9-11.6-5.4-23.2-3.6-29.7l0,0"/>
					<path class="st10" d="M31.4,76.2c0.6,0,1.5-0.1,2.6-0.2c1.3-0.2,2.8-0.5,4.3-0.8c2.8-0.6,5.4-1.4,5.9-1.8
						c1.3-1.4,3.3-3.8,5.5-6.6c0.6-0.8,1.2-1.6,1.9-2.4c5.7-7.3,12-15.7,12-15.7"/>
					<path class="st10" d="M23.9,49.2c3.5,6,8.1,12.1,11.5,16.1c2,2.4,3.5,4,4.2,4.4c1.9,1.1,4.6,3.7,4.6,3.7"/>
					<path class="st10" d="M35.4,47c0,0,5.4,12.3,14.3,19.8"/>
					<path class="st10" d="M38.2,46.4c0,0,6.1,12.7,13.3,18"/>
					<path class="st10" d="M31,75.5c0,0,3-10.6,4.3-10.2"/>
					<path class="st10" d="M34,76c-1.2,11.4-0.7,26.2,5.9,36.1c6.5,10,16.2,20.7,24.7,26.8"/>
					<path class="st10" d="M68.6,136c0.8-0.9,1.6-1.9,2.4-2.8c2.9-3.6,5.4-7.3,7.3-10.5c1.8-3,3.1-5.5,3.8-7"/>
					<path class="st10" d="M118.8,123.3c0.1,0,0.1,0,0.2,0c0.5-0.1,0.9,0,1.4,0.1c0.1,0,0.2,0.1,0.2,0.1c1.6,0.7,6.5,2.4,7.6,4
						c0.1,0.2,0.2,0.4,0.2,0.6c0.1,1.8,0,3.1,0,3.1c-3.5,2.5-10.6,7.9-17.8,8.9c-1.3,0.2-2.7,0.2-4,0.1c-0.5-0.1-1-0.1-1.4-0.3"/>
					<path class="st10" d="M82.6,105c-0.7,2.5-0.9,5.1-0.9,7.1c0,1.1,0.1,2.3,0.4,3.6c0.7,3.8,2.2,8.1,3.5,10.4c0.5,1,1.5,2.4,3,4
						c1.5,1.7,3.5,3.5,5.9,5.1c0.4,0.3,0.8,0.5,1.2,0.8c1.1,0.7,2.4,1.4,3.7,2c1.2,0.5,2.5,1,3.8,1.4c0.7,0.2,1.4,0.4,2.1,0.5
						c2.6-2.7,6.2-7.7,8.6-11.2c1.4-2,2.4-3.5,2.8-3.9c0.8-0.9,1.5-1.3,2.1-1.5"/>
					<path class="st10" d="M84.2,100.9c-0.8,1.3-1.3,2.7-1.7,4.1"/>
					<path class="st10" d="M114.1,80c0,0-6.9,4.4-13.8,8.9c-4,2.6-8.1,5.3-10.8,7.1c-1.1,0.8-2,1.4-2.6,1.8c-1.1,0.8-2,1.8-2.7,3"/>
					<path class="st10" d="M114.1,128.8c0,0,8.1,2.8,14.4,2.3c2.4,0.4,8.1,0.3,13.1-0.4c0.3,0,0.6-0.1,0.9-0.1c2.6-0.4,5-1,6.6-1.8
						c1.3-0.6,3-1.3,4.9-1.9c5.4-1.8,12.2-3.6,16-4.1c5.1-0.7,17.6-4.4,17.6-4.4c-0.5,4.9-6.3,9-12.3,12.1c5.8,2,9.8,3.1,9.8,3.1
						c-3,1.7-6.9,3.7-11,5.5c-6.7,2.9-14.1,5.5-20,6.4c-9.5,1.5-20.6,0-20.6,0"/>
					<path class="st10" d="M141.6,130.8c0,0-1.7,4-4.3,8.6c-1.1,2-2.4,4.2-3.7,6.2c-2.6,3.9-5.5,7.3-8.1,8.1
						c-2.5-0.1-3.6,0.1-4.8-0.8c-0.4-0.3-0.8-0.7-1.2-1.2c-2-2.3-8.8-11.7-8.8-11.7"/>
					<polyline class="st10" points="106.7,140.1 106.7,140.1 114.6,152 116.5,155 120.7,152.9 					"/>
					<polyline class="st10" points="103.1,139.4 109.4,155 114.6,152 					"/>
					<path class="st10" d="M94.4,135.2c2,4.8,7.8,15.3,13.9,19.1c0.4,0.2,0.7,0.4,1.1,0.6"/>
					<path class="st10" d="M93.9,144.1c3,6.8,6.6,13.2,9.2,14c3.5-0.7,5.7-1.4,5.7-1.4l-0.6-2.4"/>
					<path class="st10" d="M88.5,130.1c1,3.2,3,8.7,5.4,14"/>
					<path class="st10" d="M73.7,141.3L73.7,141.3c0.5,0.2,7.8,3.2,18.7,2.9c0.5,0,1,0,1.5-0.1l0,0"/>
					<path class="st10" d="M78.2,122.8c0,0-0.2,1.1-0.6,2.8c-0.8,3.6-2.2,10.2-3.9,15.7c-1.4,4.6-3,8.6-4.4,9.6
						c-3.7,0.2-8.2-0.9-8.2-0.9c4.6-5.9,7.9-8.9,9.9-16.8"/>
					<path class="st10" d="M58.3,145.5l-2.8,2.8c2.2,1.2,4.9,2.5,4.9,2.5l0.6-0.8"/>
					<line class="st10" x1="65.1" y1="138.6" x2="58.4" y2="145.4"/>
					<path class="st10" d="M57,142.5l-4.4,3.4l2.4,2.5c0,0,2.7-2.3,3.4-2.9l0.1-0.1"/>
					<line class="st10" x1="59.2" y1="140.8" x2="57.2" y2="142.4"/>
					<path class="st10" d="M55.9,137.9l-1.9,1l-8,4.1l3.1,3.6c2.3-1.1,6.1-2.8,7.9-4.1l0.2-0.1"/>
					<polyline class="st10" points="49.1,134.9 42.1,138.9 43.5,142.8 53.9,138.9 					"/>
					<path class="st10" d="M77.6,125.6c6.1,5.6,11.6,10.2,14.8,18.6c0,0,0,0,0,0"/>
					<path class="st10" d="M93,114.7c4,2,4.8,6.6,19.8,6.2c15.1-0.4,27.8-0.1,36.2-3.1c8.4-3,29.4-9.2,32.1-9.1"/>
					<path class="st10" d="M173.2,99.8c-2.3-1.9-4.8-3.2-9.3-3.7c-1.7-0.2-3.7-0.3-6-0.3c-4,0.1-8.9,0.6-13.7,1.2
						c-3.3,0.4-6.6,0.9-9.7,1.3c-4.5,0.6-8.5,1.1-11.2,1.1c-7.2,0-13.7,0.7-15.4-0.1"/>
					<path class="st10" d="M187.7,118.4c0,0-1.2-1.9-3-4.6c-0.5-0.8-1.1-1.6-1.6-2.4c-0.1-0.2-0.3-0.4-0.5-0.7
						c-0.5-0.7-1-1.4-1.5-2.1c-2.1-2.9-4.2-5.7-5.8-7.1c-0.7-0.7-1.5-1.3-2.2-1.9"/>
					<path class="st10" d="M120.4,123.4c0,0,6.6,1.1,17,0c10.4-1.1,23.6-6.6,27.6-8.1c4-1.5,15.4-4,18.1-3.8"/>
					<path class="st10" d="M128.3,127.5c8.8-0.6,17.4-2.3,24-4.7c6.7-2.4,14.9-5.5,19.6-6.5s12.8-2.4,12.8-2.4"/>
					<path class="st10" d="M95.6,136c1.7-0.1,13.2-13.5,13.2-13.5s1.9,0.3,4.2,0.5c2.2,0.2,4.7,0.4,5.8,0.2c0,0,0,0,0,0
						c0.1,0,0.1,0,0.2,0"/>
					<path class="st10" d="M113,123c0,0-6.8,9.7-13.7,15"/>
					<path class="st10" d="M134.1,78.6c0.2,2.4,0.4,4.5,0.4,5.8c0,5.6-0.1,13.7-0.1,13.9l0,0"/>
					<path class="st10" d="M131.8,58.8c0,0,0.7,5.4,1.4,11.4c0.3,2.8,0.6,5.8,0.9,8.3"/>
					<path class="st10" d="M256,56.4c0.3-0.2,0.6-0.4,1-0.8c3.4-3.3,11.5-9.9,14.4-10.3v63.4h-1.6c0,0-13.9,2.4-20.2,4.4
						c-6.2,2.1-21.9,8.3-29.1,10.7c-7.2,2.4-11.3,1.3-18.6,1"/>
					<path class="st10" d="M144.1,97c0,0-0.4-0.5-1-1.2c-1.2-1.5-3.1-4-4.4-6c-0.4-0.6-0.8-1.2-1-1.7c-1.3-2.7-3.5-9.1-3.6-9.5
						c0,0,0,0,0,0s11.2-6.4,17.6-10.8c4.4-3,25.4-18.8,48.9-30.1c2.4-1.1,4.8-2.2,7.3-3.3c2.2-0.9,4.3-1.8,6.5-2.6
						c3.6-1.3,7.3-2.5,10.8-3.4c2.3-0.6,4.6-1.1,6.8-1.5c1.8,11.8,2.3,17.4,4.2,18.3c0.4,0.2,1.2,0.2,2.2,0c2.7-0.4,6.9-1.7,9.7-2.5
						c1.3-0.4,2.2-0.7,2.6-0.7c1.5-0.2,2.9,3.1,3.3,7.2c0.3,3.5-0.3,8.2,1.8,7.2"/>
					<path class="st10" d="M138.7,89.8c0,0,13.9-10.4,25.9-16.9c12.1-6.5,38.3-18.2,52.4-20.5c14-2.3,22.3-2.3,22.3-2.3
						c3.4-2.6,4.4-5.5,8.8-7.3"/>
					<line class="st10" x1="238.5" y1="45.3" x2="239.4" y2="50.1"/>
					<path class="st10" d="M143.2,95.8c19.4-10,34.2-19.3,48.8-24.3c14.5-5.1,48.5-12.1,59.1-11.7c3.4-2.3,4.6-3,4.9-3.2
						c0.1-0.1,0.1-0.1,0.1-0.1"/>
					<path class="st10" d="M163.9,96.1c15.4-8,38.1-17.5,60.9-22.7c22.8-5.1,46.6-6.6,46.6-6.6"/>
					<path class="st10" d="M173.2,99.8L173.2,99.8c14.9-6.6,35.4-13.7,56.2-16.6c20.8-2.9,40.5-2,41.9-1"/>
					<path class="st10" d="M175.4,101.7c8.5-0.1,12.7,0.2,15.9,0.5c1.1,0.1,2.2,0.2,3.2,0.4c0.8,0.1,1.5,0.3,2.1,0.5
						c1.9,0.8,2.6,2.3,3,5.1c0.1,0.4,0.1,0.8,0.1,1.3c0.1,1.3,0.3,3.8,0.7,6.8c0.2,1.4,0.4,3,0.7,4.5c0.3,1.4,0.6,2.8,0.9,4.2
						c1.3,5.3,3.4,10.1,6.5,11.2"/>
					<path class="st10" d="M258,136.5c-1.9-1.6-3.9-4.5-4.4-7.9c-0.4-1,0.3-3.7-6.4,0.2c-2.3,1.4-4.6,3.5-6.6,5.8
						c-3.2,3.6-6,7.6-7.8,9.9c-0.3,0.4-0.6,0.8-0.9,1.1c-2.6,2.9-5.5,7-7.2,7c-1.7,0-4.4-2.1-7.2-3.9c-0.5-0.3-1-0.5-1.4-0.7
						c-2.2-0.6-4.6,0.6-10.2-0.1c-6.7-0.9-26-4.4-31.6-8.9"/>
					<path class="st10" d="M185.2,133.6c9.3,1.3,17.3,2.7,23.2,2.6c1.1,0,2-0.1,2.9-0.2c1.2-0.1,3.2-0.7,5.9-1.6
						c11.1-3.6,32.2-12,36.6-12.6c5.4-0.7,13.3-0.4,16,0.7l2.7,1.1v7.1c0,0-9.1,6.4-11.3,7c-0.9,0.2-2.1-0.3-3.3-1.3"/>
					<path class="st10" d="M240.5,134.6c0,0,6.3,2.6,12.1,2.7c1.9,0.1,3.7-0.2,5.3-0.8l0,0"/>
					<path class="st10" d="M232.8,144.5c0,0,13-0.8,19.9-7.2c0,0,0,0,0,0"/>
					<path class="st10" d="M217.2,134.5c0,0,1.4,12.3-1.2,13.5l0,0"/>
					<path class="st10" d="M201,120.7c0,0,5.3,0.7,9.6,0.2c4.3-0.5,15.3-2,20.9-4.6c5.6-2.6,17.8-8.2,24.5-9.2
						c6.7-1,15.4-1.9,15.4-1.9"/>
					<path class="st10" d="M200.3,116.2c0,0,9.4,1,15.7,0s19.2-4.8,28-9c8.8-4.2,25.4-5.1,27.4-5"/>
					<path class="st10" d="M199.5,108.1c0,0,18.2-5.9,27.3-6.5c9.1-0.6,35.3-2.6,44.6-0.7"/>
					<path class="st10" d="M196.5,103c1.6-1.2,16.7-5.8,27.8-7.2c11.1-1.5,39.6-3.2,47.1-2.1"/>
					<path class="st10" d="M86.9,79.7c-1.6,0.4-4.1,4.3-3.8,5.6c0,0.1,0.1,0.3,0.1,0.4c0.1,0.5,0.4,1.2,0.7,1.8
						c0.1,0.2,0.3,0.4,0.4,0.5c0.2,0.2,0.4,0.3,0.6,0.4c0.1,0,0.2,0.1,0.3,0.1c0.1,0,0.2,0.1,0.3,0.1c0.1,0,0.3,0,0.4,0
						c0.3,0,0.6-0.2,0.9-0.4c1.6-1.1,2.6-4.1,2.4-4.9c0-0.1-0.1-0.2-0.1-0.2"/>
					<polyline class="st10" points="83.1,85.8 78.9,88.7 79.3,89.5 83.1,86.9 					"/>
					<path class="st10" d="M79.3,89.5l-0.4,0.6l0.4,0.7c0,0,3.4-3.1,4.4-3.2"/>
					<path class="st10" d="M79.3,90.8l0.7,0.7c0,0,3.2-3.2,4.2-3.3"/>
					<path class="st10" d="M80,91.5l-0.5,0.6l0.9,0.6c0,0,0.1-0.1,0.2-0.3c0.4-0.6,1.5-2.1,4.2-3.9"/>
					<path class="st10" d="M80.6,92.5L80.6,92.5l1.1,0.5c-0.2-0.3,3.1-4.4,3.6-4.3c0,0,0,0,0,0"/>
					<path class="st10" d="M81.6,93l0.9,0.5c1.4-2.5,2.4-4,3.4-4.8"/>
					<path class="st10" d="M82.6,93.5l1.2,0.7c0,0,0.4-0.8,0.9-1.8c0.7-1.3,1.6-3,2.3-4"/>
					<path class="st10" d="M79.2,62.3c1.7,1.5,4.1,5.5,5.9,9.2c1.5,3,2.7,5.8,2.8,6.6"/>
					<path class="st10" d="M76.6,71.5c0,0,5.4,11,6.6,13.9"/>
					<path class="st10" d="M73.3,81.2c0,0,2.5,5.4,4.9,11.4c1.9,4.6,3.7,9.5,4.3,12.4l0,0"/>
					<path class="st10" d="M84.6,92.4c0,0,0.7,6.4-0.4,8.5l0,0"/>
					<path class="st10" d="M89.3,83.4c0.9,3.9,0.5,7.9,0.2,12.7"/>
					<path class="st10" d="M106.2,71.7c0,0-5.4,12.6-5.9,17.2c0,0.1,0,0.2,0,0.3"/>
					<path class="st10" d="M162,131.9c0.7,0.2,1.3,0.4,1.9,0.5c1.7,0.3,3.2,0.3,4.7-0.1c4.3-1.1,6.7-1.8,6.7-1.8"/>
					<path class="st10" d="M154.1,126.9c2.7,2.4,5.4,4.1,7.9,5"/>
					<path class="st10" d="M142.6,130.6L142.6,130.6c0.1,0.1,3.4,2.9,8.3,3c4.3,0.1,10.9-1.7,11.1-1.8l0,0"/>
					<path class="st10" d="M137.3,139.4c0,0,10.7,0.1,14.9-1.4s9.6-2.8,11.6-5.6"/>
					<path class="st10" d="M182.6,110.8c0,0,8.6-7.4,8.6-8.7"/>
					<path class="st10" d="M130.8,51.1c0,0,15,2.1,14.5,2.2c-0.7,1-1.4,2.1-2.1,3.1c-4.6,6.5-9.1,11.9-9.7,13.8"/>
					<path class="st10" d="M130.8,41c0.9-1.6,1.8-3.2,2.4-4.9c0.1-0.2,0.1-0.4,0.2-0.6c1-2.7,2.1-5.4,3-8.1c0.2-0.7,0.7-1.8,1.1-3.1
						c0.8-2.3,1.6-5,1.5-6.5"/>
					<path class="st10" d="M128.1,34.4L128.1,34.4c-0.5,0.8-1.2,1.7-1.8,2.6c-0.8,1.2-1.4,2.4-1.3,3.7c0.2,2.3,1.7,4.2,3.1,6
						c0.1-0.5,0.3-1,0.5-1.4c0-0.1,0.1-0.1,0.1-0.2c0.6-1.4,1.3-2.7,2.1-4.1"/>
					<path class="st10" d="M143.2,56.4l3.9,2.4l3.9-7.4l2.3-4.3l3-5.7c-1.3-0.5-2.7-1-4.2-1.5c-2.2-0.8-4.6-1.5-6.9-2.2
						c-5-1.4-9.7-2.4-11.9-2.2"/>
					<path class="st10" d="M130.8,41L130.8,41c0.2,0,8.5,1.2,11.8,2.4c3.3,1.1,10.7,3.8,10.7,3.8"/>
					<path class="st10" d="M128.6,45C128.6,45,128.6,45,128.6,45c1.4,0.2,15.3,2.4,22.4,6.5"/>
					<path class="st10" d="M137.4,24.3c0,0,19.6-4.6,22-4.4c-0.4,1-1.2,2.3-2.1,3.8c-0.8,1.2-1.7,2.4-2.6,3.7
						c-3.6,4.9-8,9.9-9.4,10.3"/>
					<path class="st10" d="M154.7,27.4c0,0,0.3,0.9,0.8,2.2c0.5,1.3,1.1,3,1.6,4.5c0.5,1.7,1,3.2,0.9,3.6"/>
					<path class="st10" d="M153.3,39.5c1.6-0.6,3.2-1.1,4.8-1.5c4.2-1,8.3-1.1,13.3-1.2c6.8-0.1,18.9,0.3,29.3,0.9"/>
					<path class="st10" d="M157.3,23.7L157.3,23.7c10.8-3.6,23-6.6,37.1-3.6c9.7,2.1,20.7,5.3,26.6,7.1c2.6,0.8,4.2,1.3,4.2,1.3"/>
					<path class="st10" d="M155.5,29.6c0,0,18.6-4.6,29.4-4.1c10.8,0.6,26.8,4.6,29.5,6.3"/>
					<path class="st10" d="M157.1,34.1c13-2.8,20.7-3.6,27.9-3.6c7.1,0,20.5,3,22.8,3.6"/>
					<path class="st10" d="M139.8,16.1c5.7-2.3,11.4-4.4,17.2-6.5c13.3-4.7,31.4-4.8,43.7,3c7,4.4,13.6,9.7,20.3,14.5"/>
					<polyline class="st10" points="92.2,36.2 92.2,39.9 92.2,43 92.2,44.6 92.2,56.9 92.2,63.3 					"/>
					<polyline class="st10" points="89.9,41.7 89.4,46.5 87.9,62.3 					"/>
					<polyline class="st10" points="86.8,40.1 86.2,43.5 85.2,49.2 82.9,62.4 					"/>
					<path class="st10" d="M86.9,43.6c0,0,1.1-0.8,2.9-2c0.7-0.5,1.5-1.1,2.4-1.7c5.6-4.1,14.3-10.7,18.4-15.6"/>
					<path class="st10" d="M91.1,43.9c0,0,0.4-0.3,1.1-0.9c4.2-3.3,19.3-15.5,23.1-20.1c0.2-0.3,0.4-0.5,0.5-0.7"/>
					<path class="st10" d="M106.6,25.3c0,0-7.5,5.8-14.4,10.9c-1.9,1.4-3.8,2.8-5.4,3.9c-2.3,1.6-4.1,2.8-4.9,3.2l0,0"/>
					<line class="st10" x1="271.4" y1="108.7" x2="272.5" y2="123.7"/>
				</g>
			</g>
		</g>
	</g>
</g>
</svg>
