<?xml version="1.0" encoding="utf-8"?>
<!-- Generator: Adobe Illustrator 27.9.0, SVG Export Plug-In . SVG Version: 6.00 Build 0)  -->
<svg version="1.1" id="レイヤー_1" xmlns="http://www.w3.org/2000/svg" xmlns:xlink="http://www.w3.org/1999/xlink" x="0px"
	 y="0px" viewBox="0 0 272.9 183.6" style="enable-background:new 0 0 272.9 183.6;" xml:space="preserve">
<style type="text/css">
	.st0{fill:#F3EDD7;}
	.st1{fill:#333333;}
	.st2{fill:#D2D296;}
	.st3{fill:none;stroke:#000000;stroke-miterlimit:10;}
	.st4{clip-path:url(#SVGID_00000133528859827218274660000012030974792670508441_);}
	.st5{fill:#F6342A;}
	.st6{fill:#F9EDD3;}
	.st7{fill:#F3D386;}
	.st8{fill:#A986A7;}
	.st9{fill:#F7F1D7;}
	.st10{fill:none;stroke:#000000;stroke-linecap:round;stroke-linejoin:round;}
	.st11{fill:none;stroke:#000000;stroke-width:0.5;stroke-linecap:round;stroke-linejoin:round;}
	.st12{fill:none;stroke:#000000;stroke-width:0.75;stroke-linecap:round;stroke-linejoin:round;}
</style>
<g id="_畳">
	<g>
		<g>
			<rect x="0.2" y="148.6" class="st0" width="3.6" height="5.1"/>
			<path class="st0" d="M272.9,176.4v6.7h-30.7l15.6-8.7c1,1.6,3.1,2.7,5.6,2.7c2.4,0,4.6-1.2,5.7-2.9L272.9,176.4L272.9,176.4z"/>
			<path class="st0" d="M272.9,165.8v10.7l-4-2.2c0.4-0.6,0.6-1.4,0.6-2.1c0-1.3-0.6-2.5-1.6-3.4L272.9,165.8L272.9,165.8z"/>
			<path class="st0" d="M272.9,153.7v12.1l-5.1,2.8c-1.1-1-2.8-1.6-4.6-1.6s-3.3,0.6-4.4,1.5l-26.4-14.9L272.9,153.7L272.9,153.7z"
				/>
			<polygon class="st0" points="272.9,74 272.9,79.8 1.1,79.8 0.2,79.8 0.2,74 			"/>
			<rect x="269" y="148.6" class="st0" width="4" height="5.1"/>
			<path class="st0" d="M269.6,172.1c0,0.8-0.2,1.5-0.6,2.1l-5.5-3.1l4.4-2.5C269,169.6,269.6,170.8,269.6,172.1L269.6,172.1z"/>
			<path class="st0" d="M263.5,171.2l5.5,3.1c-1,1.7-3.1,2.9-5.7,2.9c-2.5,0-4.5-1.1-5.6-2.7L263.5,171.2L263.5,171.2z"/>
			<rect x="257.5" y="148.6" class="st1" width="11.4" height="5.1"/>
			<path class="st0" d="M267.9,168.6l-4.4,2.5l-4.6-2.6c1.1-0.9,2.7-1.5,4.4-1.5C265.1,167,266.7,167.6,267.9,168.6L267.9,168.6z"/>
			<path class="st0" d="M263.5,171.2l-5.8,3.2c-0.4-0.7-0.7-1.5-0.7-2.3c0-1.4,0.7-2.6,1.8-3.5L263.5,171.2L263.5,171.2z"/>
			<path class="st0" d="M232.4,153.7l26.4,14.9c-1.1,0.9-1.8,2.1-1.8,3.5c0,0.8,0.2,1.6,0.7,2.3l-15.6,8.7h-41.9l-15.8-8.9
				c0.4-0.6,0.6-1.4,0.6-2.1c0-1.3-0.6-2.5-1.6-3.4l26.6-15H232.4L232.4,153.7z M226.4,172.1c0-2.8-2.2-5.1-5.1-5.1
				s-5.1,2.2-5.1,5.1s2.2,5.1,5.1,5.1S226.4,174.8,226.4,172.1z"/>
			<polygon class="st0" points="257.5,153.7 232.4,153.7 226.6,153.7 226.6,148.6 257.5,148.6 			"/>
			<rect x="215.2" y="148.6" class="st1" width="11.4" height="5.1"/>
			<path class="st1" d="M221.3,166.9c2.8,0,5.1,2.2,5.1,5.1s-2.2,5.1-5.1,5.1s-5.1-2.2-5.1-5.1S218.5,166.9,221.3,166.9z"/>
			<path class="st0" d="M210,153.7l-26.6,15c-1.1-1-2.8-1.6-4.6-1.6s-3.3,0.6-4.4,1.5L148,153.7H210L210,153.7z"/>
			<polygon class="st0" points="184.4,153.7 184.4,148.6 215.2,148.6 215.2,153.7 210,153.7 			"/>
			<path class="st0" d="M200.2,183.1h-42.6l15.6-8.7c1,1.6,3.1,2.7,5.6,2.7c2.4,0,4.6-1.2,5.7-2.9L200.2,183.1L200.2,183.1z"/>
			<path class="st0" d="M185.1,172.1c0,0.8-0.2,1.5-0.6,2.1l-5.5-3.1l4.4-2.5C184.5,169.6,185.1,170.8,185.1,172.1L185.1,172.1z"/>
			<path class="st0" d="M179,171.2l5.5,3.1c-1,1.7-3.1,2.9-5.7,2.9c-2.5,0-4.5-1.1-5.6-2.7L179,171.2L179,171.2z"/>
			<rect x="172.9" y="148.6" class="st1" width="11.4" height="5.1"/>
			<path class="st0" d="M178.8,166.9c1.8,0,3.4,0.6,4.6,1.6L179,171l-4.6-2.6C175.5,167.5,177,167,178.8,166.9L178.8,166.9z"/>
			<path class="st0" d="M179,171.2l-5.8,3.2c-0.4-0.7-0.7-1.5-0.7-2.3c0-1.4,0.7-2.6,1.8-3.5L179,171.2L179,171.2z"/>
			<path class="st0" d="M148,153.7l26.4,14.9c-1.1,0.9-1.8,2.1-1.8,3.5c0,0.8,0.2,1.6,0.7,2.3l-15.6,8.7h-41.9l-15.8-8.9
				c0.4-0.6,0.6-1.4,0.6-2.1c0-1.3-0.6-2.5-1.6-3.4l26.6-15H148L148,153.7z M140.9,172.1c0-2.8-2.2-5.1-5.1-5.1
				c-2.8,0-5.1,2.2-5.1,5.1s2.2,5.1,5.1,5.1C138.7,177.1,140.9,174.8,140.9,172.1z"/>
			<polygon class="st0" points="172.9,153.7 148,153.7 142.1,153.7 142.1,148.6 172.9,148.6 			"/>
			<rect x="130.7" y="148.6" class="st1" width="11.4" height="5.1"/>
			<path class="st1" d="M135.7,166.9c2.8,0,5.1,2.2,5.1,5.1s-2.2,5.1-5.1,5.1c-2.8,0-5.1-2.2-5.1-5.1S133,166.9,135.7,166.9z"/>
			<path class="st0" d="M125.5,153.7l-26.6,15c-1.1-1-2.8-1.6-4.6-1.6s-3.3,0.6-4.4,1.5l-26.4-14.9H125.5L125.5,153.7z"/>
			<polygon class="st0" points="130.7,153.7 125.5,153.7 99.9,153.7 99.9,148.6 130.7,148.6 			"/>
			<path class="st0" d="M115.8,183.1H73.2l15.5-8.7c1,1.6,3.1,2.7,5.6,2.7s4.6-1.2,5.7-2.9L115.8,183.1L115.8,183.1z"/>
			<path class="st0" d="M100.6,172.1c0,0.8-0.2,1.5-0.6,2.1l-5.5-3.1l4.4-2.5C100,169.6,100.6,170.8,100.6,172.1L100.6,172.1z"/>
			<path class="st0" d="M94.5,171.2l5.5,3.1c-1,1.7-3.1,2.9-5.7,2.9c-2.5,0-4.5-1.1-5.6-2.7C88.7,174.4,94.5,171.2,94.5,171.2z"/>
			<rect x="88.4" y="148.6" class="st1" width="11.4" height="5.1"/>
			<path class="st0" d="M94.3,166.9c1.8,0,3.4,0.6,4.6,1.6l-4.4,2.5l-4.6-2.6C91,167.5,92.6,167,94.3,166.9L94.3,166.9z"/>
			<path class="st0" d="M94.5,171.2l-5.8,3.2c-0.4-0.7-0.7-1.5-0.7-2.3c0-1.4,0.7-2.6,1.8-3.5L94.5,171.2L94.5,171.2z"/>
			<path class="st0" d="M63.5,153.7l26.4,14.9c-1.1,0.9-1.8,2.1-1.8,3.5c0,0.8,0.2,1.6,0.7,2.3l-15.5,8.7H31.1l-15.8-8.9
				c0.4-0.6,0.6-1.4,0.6-2.1c0-1.3-0.6-2.5-1.6-3.4l26.5-15H63.5L63.5,153.7z M54.8,172.1c0-2.8-2.2-5.1-5.1-5.1s-5.1,2.2-5.1,5.1
				s2.2,5.1,5.1,5.1S54.8,174.8,54.8,172.1z"/>
			<polygon class="st0" points="88.4,153.7 63.5,153.7 57.6,153.7 57.6,148.6 88.4,148.6 			"/>
			<rect x="46.2" y="148.6" class="st1" width="11.4" height="5.1"/>
			<path class="st1" d="M49.7,166.9c2.8,0,5.1,2.2,5.1,5.1s-2.2,5.1-5.1,5.1s-5.1-2.2-5.1-5.1S47,166.9,49.7,166.9z"/>
			<polygon class="st0" points="46.2,153.7 40.8,153.7 15.4,153.7 15.4,148.6 46.2,148.6 			"/>
			<path class="st0" d="M31.1,183.1H0.2v-6.6l3.8-2.1c1,1.6,3.1,2.7,5.6,2.7s4.6-1.2,5.7-2.9L31.1,183.1L31.1,183.1z"/>
			<path class="st0" d="M15.9,172.1c0,0.8-0.2,1.5-0.6,2.1l-5.5-3.1l4.4-2.5C15.3,169.6,15.9,170.8,15.9,172.1L15.9,172.1z"/>
			<rect x="3.9" y="148.6" class="st1" width="11.4" height="5.1"/>
			<path class="st0" d="M9.8,171.2l5.5,3.1c-1,1.7-3.1,2.9-5.7,2.9S5.1,176,4,174.4L9.8,171.2z"/>
			<path class="st0" d="M9.6,166.9c1.8,0,3.4,0.6,4.6,1.6L9.8,171l-4.6-2.6C6.3,167.5,7.9,167,9.6,166.9L9.6,166.9z"/>
			<path class="st0" d="M9.8,171.2L4,174.4c-0.4-0.7-0.7-1.5-0.7-2.3c0-1.4,0.7-2.6,1.8-3.5L9.8,171.2L9.8,171.2z"/>
			<path class="st0" d="M0.2,165.7l4.9,2.7c-1.1,0.9-1.8,2.1-1.8,3.5c0,0.8,0.2,1.6,0.7,2.3l-3.8,2.1L0.2,165.7L0.2,165.7z"/>
			<polygon class="st2" points="215.2,148.6 184.4,148.6 172.9,148.6 142.1,148.6 130.7,148.6 99.9,148.6 88.4,148.6 57.6,148.6 
				46.2,148.6 15.4,148.6 3.9,148.6 0.2,148.6 0.2,79.8 1.1,79.8 272.9,79.8 272.9,148.6 269,148.6 257.5,148.6 226.6,148.6 			"/>
			<path class="st0" d="M0.2,153.7h40.6l-26.6,15c-1.1-1-2.8-1.6-4.6-1.6s-3.3,0.6-4.4,1.5l-4.9-2.7L0.2,153.7L0.2,153.7z"/>
		</g>
		<g>
			<polyline class="st3" points="272.9,183.1 242.2,183.1 200.2,183.1 157.7,183.1 115.8,183.1 73.2,183.1 31.1,183.1 0.2,183.1 			
				"/>
			<line class="st3" x1="0.2" y1="74" x2="272.9" y2="74"/>
			<line class="st3" x1="0.2" y1="79.8" x2="272.9" y2="79.8"/>
			<line class="st3" x1="269" y1="148.6" x2="272.9" y2="148.6"/>
			<line class="st3" x1="226.6" y1="148.6" x2="257.5" y2="148.6"/>
			<line class="st3" x1="184.4" y1="148.6" x2="215.2" y2="148.6"/>
			<line class="st3" x1="142.1" y1="148.6" x2="172.9" y2="148.6"/>
			<line class="st3" x1="99.9" y1="148.6" x2="130.7" y2="148.6"/>
			<line class="st3" x1="57.6" y1="148.6" x2="88.4" y2="148.6"/>
			<line class="st3" x1="15.4" y1="148.6" x2="46.2" y2="148.6"/>
			<line class="st3" x1="0.2" y1="148.6" x2="3.9" y2="148.6"/>
			<line class="st3" x1="269" y1="153.7" x2="272.9" y2="153.7"/>
			<polyline class="st3" points="226.6,153.7 232.4,153.7 257.5,153.7 			"/>
			<polyline class="st3" points="184.4,153.7 210,153.7 215.2,153.7 			"/>
			<polyline class="st3" points="142.1,153.7 148,153.7 172.9,153.7 			"/>
			<polyline class="st3" points="99.9,153.7 125.5,153.7 130.7,153.7 			"/>
			<polyline class="st3" points="57.6,153.7 63.5,153.7 88.4,153.7 			"/>
			<polyline class="st3" points="15.4,153.7 40.8,153.7 46.2,153.7 			"/>
			<line class="st3" x1="0.2" y1="153.7" x2="3.9" y2="153.7"/>
			<polyline class="st3" points="73.2,183.1 88.7,174.4 94.5,171.2 98.9,168.6 125.5,153.7 			"/>
			<polyline class="st3" points="115.8,183.1 100,174.2 94.5,171.2 89.9,168.5 63.5,153.7 			"/>
			<path class="st3" d="M140.8,172.1c0,2.8-2.2,5.1-5.1,5.1c-2.8,0-5.1-2.2-5.1-5.1s2.2-5.1,5.1-5.1S140.8,169.2,140.8,172.1z"/>
			<path class="st3" d="M226.4,172.1c0,2.8-2.2,5.1-5.1,5.1s-5.1-2.2-5.1-5.1s2.2-5.1,5.1-5.1S226.4,169.2,226.4,172.1z"/>
			<path class="st3" d="M98.9,168.6c1,0.9,1.6,2.1,1.6,3.4c0,0.8-0.2,1.5-0.6,2.1c-1,1.7-3.1,2.9-5.7,2.9c-2.5,0-4.5-1.1-5.6-2.7
				c-0.4-0.7-0.7-1.5-0.7-2.3c0-1.4,0.7-2.6,1.8-3.5c1.1-0.9,2.7-1.5,4.4-1.5C96.1,166.9,97.7,167.6,98.9,168.6L98.9,168.6z"/>
			<polyline class="st3" points="0.2,176.5 4,174.4 9.8,171.2 14.3,168.6 40.8,153.7 			"/>
			<polyline class="st3" points="31.1,183.1 15.3,174.2 9.8,171.2 5.2,168.5 0.2,165.7 			"/>
			<path class="st3" d="M14.3,168.6c1,0.9,1.6,2.1,1.6,3.4c0,0.8-0.2,1.5-0.6,2.1c-1,1.7-3.1,2.9-5.7,2.9s-4.5-1-5.6-2.6
				c-0.4-0.7-0.7-1.5-0.7-2.3c0-1.4,0.7-2.6,1.8-3.5s2.7-1.5,4.4-1.5C11.4,166.9,13.1,167.6,14.3,168.6L14.3,168.6z"/>
			<polyline class="st3" points="157.7,183.1 173.2,174.4 179,171.2 183.4,168.6 210,153.7 			"/>
			<polyline class="st3" points="200.2,183.1 184.5,174.2 179,171.2 174.2,168.5 148,153.7 			"/>
			<path class="st3" d="M183.4,168.6c1,0.9,1.6,2.1,1.6,3.4c0,0.8-0.2,1.5-0.6,2.1c-1,1.7-3.1,2.9-5.7,2.9c-2.5,0-4.5-1.1-5.6-2.7
				c-0.4-0.7-0.7-1.5-0.7-2.3c0-1.4,0.7-2.6,1.8-3.5s2.7-1.5,4.4-1.5C180.6,166.9,182.2,167.6,183.4,168.6L183.4,168.6z"/>
			<polyline class="st3" points="242.2,183.1 257.6,174.4 263.5,171.2 267.9,168.6 272.9,165.8 			"/>
			<polyline class="st3" points="272.9,176.4 269,174.2 263.5,171.2 258.7,168.5 232.4,153.7 			"/>
			<path class="st3" d="M267.9,168.6c1,0.9,1.6,2.1,1.6,3.4c0,0.8-0.2,1.5-0.6,2.1c-1,1.7-3.1,2.9-5.7,2.9c-2.5,0-4.5-1.1-5.6-2.7
				c-0.4-0.7-0.7-1.5-0.7-2.3c0-1.4,0.7-2.6,1.8-3.5s2.7-1.5,4.4-1.5C265.1,166.9,266.7,167.6,267.9,168.6L267.9,168.6z"/>
			<path class="st3" d="M54.8,172.1c0,2.8-2.2,5.1-5.1,5.1s-5.1-2.2-5.1-5.1s2.2-5.1,5.1-5.1S54.8,169.2,54.8,172.1z"/>
			<rect x="3.9" y="148.6" class="st3" width="11.4" height="5.1"/>
			<rect x="46.2" y="148.6" class="st3" width="11.4" height="5.1"/>
			<rect x="88.4" y="148.6" class="st3" width="11.4" height="5.1"/>
			<rect x="130.7" y="148.6" class="st3" width="11.4" height="5.1"/>
			<rect x="172.9" y="148.6" class="st3" width="11.4" height="5.1"/>
			<rect x="215.2" y="148.6" class="st3" width="11.4" height="5.1"/>
			<rect x="257.5" y="148.6" class="st3" width="11.4" height="5.1"/>
		</g>
	</g>
</g>
<g id="_レイヤー_2">
	<g>
		<g>
			<g>
				<defs>
					<polygon id="SVGID_1_" points="273.3,162.2 14.6,162.2 12.1,-1 272.9,-1 					"/>
				</defs>
				<clipPath id="SVGID_00000128477024916461529240000013964807609553857708_">
					<use xlink:href="#SVGID_1_"  style="overflow:visible;"/>
				</clipPath>
				<g style="clip-path:url(#SVGID_00000128477024916461529240000013964807609553857708_);">
					<g>
						<g>
							<path class="st5" d="M275.4,124.1v7.2c0,0-9.2,6.5-11.4,7.1c-0.9,0.2-2.1-0.3-3.3-1.3l0,0c-1.9-1.6-3.9-4.5-4.4-8
								c-0.4-1,0.3-3.7-6.5,0.2c-2.3,1.4-4.6,3.5-6.7,5.9c-3.2,3.6-6.1,7.7-7.9,10c-0.3,0.4-0.6,0.8-0.9,1.1
								c-2.6,2.9-5.6,7.1-7.3,7.1s-4.4-2.1-7.3-3.9c-0.5-0.3-1-0.5-1.4-0.7c2.6-1.3,1.2-13.6,1.2-13.6l0,0
								c11.2-3.6,32.5-12.1,37-12.7c5.5-0.7,13.4-0.4,16.2,0.7L275.4,124.1L275.4,124.1z"/>
							<path class="st6" d="M274.3,108.9l1.1,15.2l-2.7-1.1c-2.7-1.1-10.7-1.5-16.2-0.7c-4.3,0.6-25.7,9.1-37,12.7
								c-2.7,0.9-4.9,1.5-6,1.6c-0.9,0.1-1.9,0.2-2.9,0.2v-0.3c-3.1-1.1-5.2-6-6.6-11.3c7.4,0.3,11.5,1.4,18.8-1s23.1-8.7,29.4-10.8
								c6.3-2.1,20.4-4.4,20.4-4.4L274.3,108.9L274.3,108.9z"/>
							<path class="st7" d="M274.3,105.4v3.5h-1.6c0,0-14,2.4-20.4,4.4c-6.3,2.1-22.1,8.4-29.4,10.8c-7.3,2.4-11.4,1.3-18.8,1
								c-0.3-1.4-0.7-2.8-0.9-4.2l0,0c0,0,5.4,0.7,9.7,0.2s15.5-2,21.1-4.6c5.7-2.6,18-8.3,24.8-9.3
								C265.5,106.3,274.2,105.4,274.3,105.4L274.3,105.4z"/>
							<path class="st7" d="M274.3,102.2v3.1c0,0-8.8,0.9-15.6,1.9c-6.8,1-19.1,6.8-24.8,9.3c-5.7,2.6-16.8,4-21.1,4.6
								c-4.3,0.5-9.7-0.2-9.7-0.2l0,0c-0.3-1.6-0.5-3.1-0.7-4.5c0,0,9.5,1,15.9,0s19.4-4.9,28.3-9.1
								C255.5,103,272.3,102.1,274.3,102.2L274.3,102.2z"/>
							<path class="st8" d="M274.3,101v1.2c-2-0.1-18.8,0.7-27.7,5.1c-8.9,4.2-21.9,8.1-28.3,9.1c-6.4,1-15.9,0-15.9,0
								c-0.4-3-0.6-5.6-0.7-6.9c0-0.5-0.1-0.9-0.1-1.3l0,0c0,0,18.4-6,27.6-6.6C238.3,101.1,264.8,99.2,274.3,101L274.3,101z"/>
							<path class="st6" d="M274.3,93.7v7.3c-9.4-1.8-36,0.1-45.1,0.7c-9.2,0.6-27.6,6.6-27.6,6.6l0,0c-0.3-2.8-1-4.3-3-5.2
								c1.6-1.2,16.9-5.9,28.1-7.3C237.9,94.3,266.7,92.6,274.3,93.7L274.3,93.7z"/>
							<path class="st6" d="M274.3,82.1v11.6c-7.6-1.1-36.3,0.6-47.6,2.1c-11.2,1.5-26.5,6.1-28.1,7.3c-0.6-0.2-1.3-0.4-2.1-0.5
								c-1-0.1-2-0.3-3.2-0.4c-3.2-0.3-7.5-0.6-16.1-0.5c-0.7-0.7-1.5-1.3-2.2-1.9c15-6.7,35.7-13.8,56.8-16.8
								C252.9,80.1,272.9,81.1,274.3,82.1L274.3,82.1z"/>
							<path class="st6" d="M274.3,66.5v15.6c-1.4-1-21.3-2-42.3,1c-21,2.9-41.8,10.1-56.8,16.8l0,0c-2.3-1.9-4.9-3.2-9.4-3.7
								c15.6-8.1,38.5-17.7,61.6-22.9C250.2,68.1,274.3,66.5,274.3,66.5z"/>
							<path class="st6" d="M274.3,44.8v21.7c0,0-24.1,1.5-47.1,6.7s-46,14.9-61.6,22.9c-1.7-0.2-3.7-0.3-6.1-0.3
								c-4,0.1-9,0.6-13.8,1.2c0,0-0.4-0.5-1-1.2c19.6-10.1,34.6-19.5,49.3-24.6c14.7-5.2,49-12.2,59.7-11.8c3.4-2.3,4.6-3,5-3.2
								c0.1-0.1,0.1-0.1,0.1-0.1c0.3-0.2,0.6-0.4,1-0.8C263.2,52,271.4,45.2,274.3,44.8L274.3,44.8z"/>
							<path class="st5" d="M255.3,137.8c-5.9-0.1-12.2-2.7-12.2-2.7c2.1-2.3,4.3-4.4,6.7-5.9c6.7-3.9,6.1-1.2,6.5-0.2
								c0.5,3.4,2.5,6.4,4.4,8C259.1,137.7,257.2,137.9,255.3,137.8L255.3,137.8z"/>
							<path class="st6" d="M256.8,48.9c0.3,3.5-0.3,8.3,1.8,7.3c-0.3,0.2-1.5,0.9-5,3.2c-10.7-0.3-45,6.8-59.7,11.8
								c-14.7,5.2-29.7,14.5-49.3,24.6c-1.2-1.5-3.1-4-4.4-6.1c0,0,14-10.5,26.2-17.1s38.7-18.4,53-20.7c14.2-2.3,22.5-2.3,22.5-2.3
								c3.4-2.6,4.4-5.6,8.9-7.4c1.3-0.4,2.2-0.7,2.6-0.7C255,41.4,256.4,44.7,256.8,48.9L256.8,48.9z"/>
							<path class="st5" d="M243.1,135.1c0,0,6.4,2.6,12.2,2.7c-7,6.5-20.1,7.3-20.1,7.3C237.1,142.8,239.8,138.7,243.1,135.1z"/>
							<path class="st6" d="M241.1,44.8c2.7-0.4,7-1.7,9.8-2.5c-4.4,1.8-5.5,4.8-8.9,7.4L241.1,44.8L241.1,44.8z"/>
							<path class="st6" d="M241.1,44.8l0.9,4.9c0,0-8.4,0-22.5,2.3c-14.2,2.3-40.7,14.2-53,20.7s-26.2,17.1-26.2,17.1
								c-0.4-0.6-0.8-1.2-1-1.7c-1.3-2.7-3.5-9.2-3.6-9.6l0,0c0,0,11.3-6.5,17.8-10.9c4.4-3,25.7-19,49.4-30.4
								c2.4-1.1,4.9-2.2,7.4-3.3c2.2-0.9,4.3-1.8,6.6-2.6c3.6-1.3,7.4-2.5,10.9-3.4c2.3-0.6,4.6-1.1,6.9-1.5
								c1.8,11.9,2.3,17.6,4.2,18.5C239.2,45,240,45,241.1,44.8L241.1,44.8z"/>
							<path class="st7" d="M223.4,26.5c2.6,0.8,4.2,1.3,4.2,1.3c-3.6,0.9-7.3,2.1-10.9,3.4c-2.7-1.7-18.9-5.9-29.8-6.4
								c-10.9-0.6-29.7,4.1-29.7,4.1c-0.5-1.3-0.8-2.2-0.8-2.2c0.9-1.3,1.8-2.5,2.6-3.7c10.9-3.6,23.2-6.7,37.5-3.6
								C206.3,21.5,217.4,24.7,223.4,26.5L223.4,26.5z"/>
							<path class="st5" d="M219.5,135c0,0,1.4,12.4-1.2,13.6c-2.2-0.6-4.6,0.6-10.3-0.1c-6.8-0.9-26.3-4.4-31.9-9
								c4.1-1.8,8.1-3.7,11.1-5.6c9.4,1.3,17.5,2.7,23.4,2.6c1.1,0,2-0.1,2.9-0.2C214.8,136.4,216.9,135.8,219.5,135L219.5,135
								L219.5,135z"/>
							<path class="st5" d="M202.7,11.8c7.1,4.4,13.7,9.8,20.5,14.7c-6-1.8-17.1-5-26.9-7.2c-14.2-3.1-26.6,0-37.5,3.6
								c0.9-1.5,1.7-2.8,2.1-3.8c-2.4-0.2-22.2,4.4-22.2,4.4c0.8-2.3,1.6-5.1,1.5-6.6H140c0.4-0.4,0.8-1,1-1.7
								c5.8-2.3,11.5-4.4,17.4-6.6C172.1,4,190.4,3.9,202.7,11.8L202.7,11.8z"/>
							<path class="st7" d="M216.7,31.3c-2.2,0.8-4.3,1.7-6.6,2.6l-0.1-0.3c-2.3-0.6-15.9-3.6-23-3.6s-15.1,0.8-28.2,3.6l0,0
								c-0.5-1.5-1.1-3.2-1.6-4.5c0,0,18.8-4.6,29.7-4.1C197.8,25.4,214,29.5,216.7,31.3z"/>
							<path class="st6" d="M210.6,136.5v0.2c-6,0.1-14-1.4-23.4-2.6c0,0-4.1-1.1-9.9-3.1c6.1-3.1,11.9-7.3,12.4-12.2
								c0,0-1.2-1.9-3-4.6c-0.5-0.8-1.1-1.6-1.6-2.4c-0.1-0.2-0.3-0.4-0.5-0.7c0,0,8.7-7.5,8.7-8.8c1.1,0.1,2.2,0.2,3.2,0.4
								c0.8,0.1,1.5,0.3,2.1,0.5c1.9,0.8,2.6,2.3,3,5.2c0.1,0.4,0.1,0.8,0.1,1.3c0.1,1.3,0.3,3.8,0.7,6.9c0.2,1.4,0.4,3,0.7,4.5
								c0.3,1.4,0.6,2.8,0.9,4.2C205.4,130.6,207.5,135.5,210.6,136.5L210.6,136.5z"/>
							<path class="st7" d="M209.9,33.5l0.1,0.3c-2.4,1-5,2.1-7.4,3.3c-10.5-0.6-22.6-1-29.6-0.9c-5.1,0.1-9.2,0.2-13.4,1.2
								l-0.1-0.3c0.1-0.5-0.3-1.9-0.9-3.6l0,0c13.1-2.8,20.9-3.6,28.2-3.6C194.2,29.9,207.7,32.9,209.9,33.5L209.9,33.5z"/>
							<path class="st6" d="M193.4,102.3c0,1.3-8.7,8.8-8.7,8.8c-0.5-0.7-1-1.4-1.5-2.1c-2.1-2.9-4.2-5.8-5.9-7.2
								C185.9,101.7,190.1,101.9,193.4,102.3L193.4,102.3z"/>
							<path class="st5" d="M189.7,118.7c-0.5,5-6.4,9.1-12.4,12.2c0,0-2.5,0.7-6.8,1.8c-1.5,0.4-3.1,0.4-4.8,0.1
								c-0.6-0.1-1.3-0.3-1.9-0.5l0,0c-2.5-0.9-5.3-2.6-8-5.1c5.5-1.8,12.3-3.6,16.2-4.1C177,122.5,189.7,118.7,189.7,118.7
								L189.7,118.7z"/>
							<path class="st7" d="M144.1,131c-0.3,0.1-0.6,0.1-0.9,0.1c-5.2,0.7-10.8,0.8-13.2,0.4c0,0,0.1-1.3,0-3.1
								c0-0.2-0.1-0.4-0.2-0.6c8.9-0.6,17.6-2.3,24.3-4.8c6.8-2.4,15.1-5.6,19.8-6.6c4.8-1,12.9-2.4,12.9-2.4c1.7,2.6,3,4.6,3,4.6
								s-12.7,3.8-17.8,4.4c-3.7,0.5-10.7,2.2-16.2,4.1c-1.9,0.7-3.6,1.3-5,1.9C149.1,130,146.7,130.6,144.1,131L144.1,131z"/>
							<path class="st7" d="M185.1,111.7c0.6,0.8,1.1,1.7,1.6,2.4c0,0-8.2,1.4-12.9,2.4c-4.8,1-13.1,4.1-19.8,6.6
								c-6.8,2.4-15.4,4.1-24.3,4.8c-1.1-1.6-6.1-3.4-7.7-4c-0.1,0-0.2-0.1-0.2-0.1l0,0c0,0,6.7,1.1,17.2,0s23.9-6.7,27.9-8.2
								C170.8,114.1,182.3,111.5,185.1,111.7L185.1,111.7z"/>
							<path class="st8" d="M183,108.9c0.5,0.7,1,1.4,1.5,2.1c0.2,0.2,0.3,0.4,0.5,0.7c-2.7-0.2-14.3,2.3-18.3,3.8
								s-17.4,7.1-27.9,8.2s-17.2,0-17.2,0l0,0c-0.5-0.2-0.9-0.2-1.4-0.1c-0.1,0-0.1,0-0.2,0l0,0c-1.1,0.2-3.6,0-5.9-0.2
								c-2.2-0.2-4.2-0.5-4.2-0.5s-11.6,13.5-13.3,13.5c-0.4-0.3-0.8-0.5-1.2-0.8c-2.4-1.6-4.4-3.5-6-5.2c-1.5-1.6-2.5-3-3-4
								c-1.3-2.4-2.8-6.8-3.5-10.5c-0.3-1.3-0.4-2.6-0.4-3.6c0-2,0.2-4.6,0.9-7.2l0,0c0.4-1.4,0.9-2.8,1.7-4.1l0,0
								c0.7-1.2,1.6-2.2,2.7-3c0.6-0.4,1.5-1,2.6-1.8c2.7-1.8,6.9-4.5,10.9-7.2c0.5-4.6,6-17.4,6-17.4c0.6-0.4,1.2-0.8,1.6-1.1
								c5.9-3.8,17-8.3,20.9-10c1.6-0.7,2.7-1.3,3.4-1.8c0,0,0.7,5.5,1.4,11.5c0.3,2.8,0.6,5.9,0.9,8.4l0,0c0.2,2.4,0.4,4.5,0.4,5.9
								c0,5.7-0.1,13.8-0.1,14c3.1-0.4,6.5-0.9,9.8-1.3c5-0.6,9.8-1.1,13.8-1.2c2.4,0,4.3,0.1,6.1,0.3c4.5,0.5,7.1,1.8,9.4,3.7l0,0
								c0.7,0.6,1.4,1.2,2.2,1.9C178.8,103.2,181,106,183,108.9L183,108.9z"/>
							<path class="st5" d="M177.3,130.9c5.9,2,9.9,3.1,9.9,3.1c-3,1.7-7,3.7-11.1,5.6c-6.8,2.9-14.3,5.6-20.2,6.5
								c-9.6,1.5-20.8,0-20.8,0l0,0c1.3-2,2.6-4.2,3.7-6.3c0,0,10.8,0.1,15.1-1.4c4.2-1.5,9.7-2.8,11.7-5.7c1.7,0.3,3.2,0.3,4.8-0.1
								C174.8,131.6,177.3,130.9,177.3,130.9L177.3,130.9z"/>
							<path class="st8" d="M173.2,36.2c6.9-0.1,19.1,0.3,29.6,0.9c-23.8,11.3-44.9,27.4-49.4,30.4c-6.5,4.3-17.8,10.9-17.8,10.9
								c-0.2-2.6-0.5-5.6-0.9-8.4h0.1c0.6-1.9,5.3-7.4,9.8-13.9l3.9,2.4l3.9-7.5l2.3-4.3l3-5.8c-1.3-0.5-2.7-1-4.2-1.5l1.1-0.4
								c1.6-0.6,3.2-1.1,4.9-1.5C163.9,36.5,168.2,36.3,173.2,36.2L173.2,36.2z"/>
							<path class="st5" d="M163.7,132.3c0.7,0.2,1.3,0.4,1.9,0.5c-2,2.8-7.5,4.2-11.7,5.7c-4.3,1.5-15.1,1.4-15.1,1.4
								c2.5-4.6,4.3-8.7,4.3-8.7c0.3,0,0.6-0.1,0.9-0.1c0.1,0.1,3.4,2.9,8.4,3C156.9,134.2,163.4,132.3,163.7,132.3L163.7,132.3
								L163.7,132.3z"/>
							<path class="st5" d="M159,23c-0.8,1.2-1.7,2.4-2.6,3.7c-3.6,5-8.1,10-9.5,10.4c-5.1-1.4-9.8-2.4-12-2.2c1-2.7,2.1-5.5,3-8.2
								c0.2-0.7,0.7-1.8,1.1-3.1c0,0,19.8-4.6,22.2-4.4C160.7,20.2,159.9,21.5,159,23L159,23z"/>
							<path class="st5" d="M155.8,127.3c2.7,2.4,5.5,4.1,8,5.1c-0.2,0.1-6.9,1.8-11.2,1.8c-5-0.1-8.3-2.8-8.4-3
								c2.6-0.4,5.1-1,6.7-1.8C152.1,128.6,153.8,127.9,155.8,127.3L155.8,127.3z"/>
							<path class="st5" d="M159.7,37.1l0.1,0.3c-1.6,0.4-3.1,0.8-4.9,1.5l-1.1,0.4c-2.2-0.8-4.6-1.5-7-2.2
								c1.4-0.5,5.9-5.6,9.5-10.4c0,0,0.3,0.9,0.8,2.2s1.1,3,1.6,4.5C159.3,35.2,159.7,36.7,159.7,37.1L159.7,37.1z"/>
							<path class="st7" d="M158.1,40.9l-3,5.8c0,0-7.5-2.7-10.8-3.8s-11.7-2.3-11.9-2.4c0.9-1.6,1.8-3.2,2.4-5
								c0.1-0.2,0.1-0.4,0.2-0.6c2.2-0.2,7,0.8,12,2.2c2.3,0.7,4.8,1.4,7,2.2C155.3,39.9,156.8,40.4,158.1,40.9L158.1,40.9z"/>
							<path class="st7" d="M154.9,46.6l-2.3,4.3c-7.2-4-21.2-6.4-22.5-6.6c0.6-1.4,1.3-2.7,2.1-4.1l0,0c0.2,0,8.6,1.2,11.9,2.4
								C147.5,44,154.9,46.6,154.9,46.6L154.9,46.6z"/>
							<path class="st7" d="M152.6,51.1l-3.9,7.5l-3.9-2.4c0.7-1,1.4-2,2.1-3.1c0.5-0.2-14.7-2.2-14.7-2.2h-0.1
								c-0.2-0.6-0.5-1.5-1-2.8c-0.2-0.5-0.8-2.2-1.1-3.1c0-0.1,0.1-0.1,0.1-0.2C131.3,44.7,145.3,47,152.6,51.1L152.6,51.1z"/>
							<path class="st8" d="M132.2,50.7c0,0,15.2,2.1,14.7,2.2c-0.7,1-1.4,2.1-2.1,3.1c-4.6,6.6-9.2,12-9.8,13.9h-0.1
								c-0.7-6.1-1.4-11.5-1.4-11.5c1-0.7,1.2-1.3,1.4-1.9c0.4-1,0-2.8-0.8-4.1c-0.2-0.4-0.5-0.6-1.4-0.4v-0.1
								C132.5,51.9,132.4,51.6,132.2,50.7L132.2,50.7L132.2,50.7z"/>
							<path class="st8" d="M144.7,95.9c0.6,0.7,1,1.2,1,1.2c-3.3,0.4-6.7,0.9-9.8,1.3c0-0.3,0.1-8.4,0.1-14c0-1.3-0.1-3.4-0.4-5.9
								c0.1,0.4,2.4,6.9,3.6,9.6c0.2,0.5,0.6,1.1,1,1.7C141.5,91.8,143.5,94.3,144.7,95.9L144.7,95.9z"/>
							<path class="st8" d="M143.1,131.2c0,0-1.7,4-4.3,8.7c-1.1,2-2.4,4.2-3.7,6.3c-2.6,3.9-5.6,7.4-8.2,8.2
								c-2.5-0.1-3.6,0.1-4.9-0.8c-0.4-0.3-0.8-0.7-1.2-1.2c-2-2.3-8.9-11.8-8.9-11.8c7.3-1,14.5-6.5,18-9
								C132.3,132,138,131.9,143.1,131.2L143.1,131.2z"/>
							<path class="st1" d="M93.2,39.4v-3.7l0,0c-1.9,1.4-3.8,2.8-5.5,3.9c-2.3,1.6-4.1,2.8-5,3.2c-0.2-0.2-0.4-0.5-0.6-0.7
								c-2-2-3.8-4.2-6.1-5.6v-0.1c2.3,1.1,44.1-28.3,48.5-32.2c3.8-3.4,9.8-3.2,13.1-1.2s4,6.7,4,9.6c0,0.7-0.2,1.7-0.6,2.7
								c-0.3,0.7-0.6,1.3-1,1.7c-0.6-0.2,0.2-2.9-0.2-2.8c-0.4,0.1-2.1-0.3-3.7-1.3c-1.6-1-2.8-2.7-3.6-4c-0.9-1.3-1.7-1.7-2.7-0.7
								s-3.2,1.7-3.7,2.3c-0.4,0.6-6.3,8.3-8.8,12l-0.7-0.3c-3.8,4.8-19.1,17-23.3,20.3L93.2,39.4L93.2,39.4z"/>
							<path class="st1" d="M130.1,44.5c0,0.1-0.1,0.1-0.1,0.2c-0.2,0.5-0.4,0.9-0.5,1.4c-1.4-1.8-2.8-3.7-3.1-6.1
								c-0.1-1.3,0.5-2.5,1.3-3.7c0.6-0.9,1.3-1.8,1.8-2.6l0,0c0.9-0.5,1.7-1.1,2.5-1.6c3.9-2.8,8.3-15.2,8.3-15.2h0.2
								c0.1,1.4-0.7,4.2-1.5,6.6c-0.4,1.3-0.8,2.4-1.1,3.1c-0.9,2.7-2,5.5-3,8.2c-0.1,0.2-0.2,0.4-0.2,0.6c-0.6,1.7-1.5,3.3-2.4,5
								l0,0C131.4,41.8,130.7,43.1,130.1,44.5L130.1,44.5z"/>
							<path class="st9" d="M117.1,36l-0.1,0.2c0,0-8.5,8.3-15.8,14.5L100.1,39l0,0c6.5-5.4,15.2-13.3,16.6-15.5
								c0.2-0.3,0.4-0.6,0.7-1c2.5-3.6,8.4-11.4,8.8-12c0.5-0.6,2.7-1.3,3.7-2.3s1.8-0.6,2.7,0.7s2,3.1,3.6,4c1.6,1,3.3,1.3,3.7,1.3
								c0.4-0.1-0.4,2.6,0.2,2.8c0,0-4.2,12.3-8.3,15.2c-0.7,0.5-1.6,1.1-2.5,1.6l0,0c-0.7,0.4-1.4,0.8-2.2,1.1
								c-1.4,0.6-3,1.1-4.6,1.3l0,0C120.9,36.4,119.1,36.4,117.1,36L117.1,36z M138.9,18.5c0.1-0.3-0.2-0.7-0.8-1s-1.2-0.3-1.3-0.1
								c-0.1,0.3,0.2,0.7,0.8,1C138.2,18.8,138.8,18.8,138.9,18.5z M131.5,14.7c0.1-0.3-0.3-0.7-0.9-1s-1.2-0.3-1.3,0s0.3,0.7,0.9,1
								C130.8,15,131.4,15,131.5,14.7L131.5,14.7z M127.6,32.7l-0.7-0.7l-0.5-0.2c0,0,0-0.3-0.3-0.4c-0.3-0.2-2.5,0-2.5,0
								c0,0.1,0,0.2,0,0.3c0.2,1.3,0.8,2.7,3.2,1.5C127,33,127.4,32.8,127.6,32.7L127.6,32.7z"/>
							<path class="st1" d="M138.1,17.5c0.6,0.3,0.9,0.8,0.8,1c-0.1,0.3-0.7,0.3-1.3-0.1c-0.6-0.3-0.9-0.8-0.8-1
								C136.9,17.2,137.5,17.2,138.1,17.5z"/>
							<path d="M136.2,24.1c0.1,0.1,0.2,0.2,0.2,0.3c0,0.2-0.2,0.4-0.4,0.4s-0.4-0.2-0.4-0.4c0-0.2,0.2-0.4,0.4-0.4
								C136,24,136,24,136.2,24.1C136.1,24,136.1,24.1,136.2,24.1L136.2,24.1z"/>
							<path class="st6" d="M133.9,52.5c0.8,1.3,1.2,3.1,0.8,4.1c-0.2,0.6-0.5,1.2-1.4,1.9c-0.7,0.5-1.7,1.1-3.4,1.8
								c-3.9,1.7-15.1,6.2-20.9,10c-0.5,0.3-1,0.7-1.6,1.1C101.7,75.1,90.2,83,90.2,83c-1.9-0.9-2.3-2.4-2.3-3.5
								c0-0.3,0-0.6,0.1-0.8c0,0,0.3-0.3,0.9-0.8c2.4-2.2,9.7-8.4,18.9-14c4.6-2.9,9.9-5.9,15.1-8c5.8-2.6,8.4-3.6,9.7-3.8
								C133.4,51.9,133.6,52.1,133.9,52.5L133.9,52.5z"/>
							<path class="st8" d="M132.5,51.9L132.5,51.9c-1.3,0.3-3.9,1.4-9.7,3.9c-5.2,2.1-10.4,5.1-15.1,8c-9.2,5.8-16.5,12-18.9,14.2
								c-0.2-0.8-1.3-3.6-2.8-6.7h0.5c9-6.4,38.5-35,36.2-35c1.6-0.2,3.2-0.7,4.6-1.3c0,0,0.1,0.3,0.4,1.5c-0.8,1.2-1.4,2.4-1.3,3.7
								c0.2,2.3,1.7,4.2,3.1,6.1c0.1-0.5,0.3-1,0.5-1.4c0.3,0.9,0.9,2.7,1.1,3.1c0.4,1.3,0.7,2.2,1,2.8
								C132.3,51.6,132.4,51.9,132.5,51.9L132.5,51.9z"/>
							<path class="st1" d="M130.7,13.7c0.6,0.3,1,0.7,0.9,1s-0.7,0.3-1.3,0s-1-0.7-0.9-1S130.1,13.4,130.7,13.7L130.7,13.7z"/>
							<path class="st5" d="M129.9,128.5c0.1,1.8,0,3.1,0,3.1c-6.4,0.5-14.6-2.3-14.6-2.3l-0.2-0.1c1.4-2,2.4-3.5,2.8-3.9
								c0.8-0.9,1.5-1.3,2.1-1.5l0,0c0.1,0,0.1,0,0.2,0c0.5-0.1,0.9,0,1.4,0.1c0.1,0,0.2,0.1,0.2,0.1c1.6,0.7,6.6,2.4,7.7,4
								C129.8,128.1,129.9,128.2,129.9,128.5L129.9,128.5z"/>
							<path class="st5" d="M107.8,140.6c-0.5-0.1-1-0.1-1.4-0.3c2.6-2.7,6.3-7.8,8.7-11.3l0.2,0.1c0,0,8.2,2.8,14.6,2.3
								c-3.5,2.5-10.7,8-18,9C110.5,140.7,109.2,140.8,107.8,140.6L107.8,140.6z"/>
							<path d="M128.4,19.8c0.1,0.1,0.2,0.2,0.2,0.3c0,0.2-0.2,0.4-0.4,0.4s-0.4-0.2-0.4-0.4c0-0.2,0.2-0.4,0.4-0.4l0,0
								C128.3,19.7,128.3,19.8,128.4,19.8L128.4,19.8L128.4,19.8z"/>
							<path d="M128.2,19.4c-0.1,0-0.1-0.1-0.2-0.1C128.1,19.3,128.2,19.3,128.2,19.4z"/>
							<path class="st5" d="M126.8,32l0.7,0.7c-0.2,0.1-0.5,0.3-0.7,0.4v-0.3c-1.2-0.1-2.2-0.5-3.2-1.2c0-0.1,0-0.2,0-0.3
								c0,0,2.2-0.2,2.5,0s0.3,0.4,0.3,0.4L126.8,32L126.8,32z"/>
							<path class="st5" d="M126.8,32.8v0.3c-2.4,1.2-3-0.2-3.2-1.5L126.8,32.8L126.8,32.8z"/>
							<path class="st6" d="M93.2,56.5c2-1,5-3.2,8.1-5.9c7.4-6.2,15.8-14.5,15.8-14.5l0.1-0.2c1.8,0.4,3.6,0.5,5.4,0.2l0,0
								c2.4,0-27.2,28.6-36.2,35h-0.5c-1.8-3.7-4.2-7.8-6-9.3c1.5-4.4,2.9-8.4,3.6-11.7c0,0,1-0.7,2.5-1.6c1.3-0.8,2.8-1.8,4.2-2.7
								c1.1-0.7,2.1-1.4,2.8-1.9L93.2,56.5L93.2,56.5z"/>
							<path class="st6" d="M122,153.6l-4.2,2.1l-2-2.9l-8-12c1.3,0.2,2.7,0.1,4-0.1c0,0,6.9,9.5,8.9,11.8
								C121.2,152.9,121.6,153.3,122,153.6L122,153.6z"/>
							<path class="st7" d="M114.2,123.4c2.2,0.2,4.8,0.4,5.9,0.2c-0.7,0.2-1.3,0.7-2.1,1.5c-0.4,0.4-1.4,1.9-2.8,3.9
								c-2.5,3.5-6.1,8.5-8.7,11.3c-0.7-0.1-1.4-0.3-2.1-0.5c-1.3-0.4-2.6-0.8-3.8-1.4C107.3,133.2,114.2,123.4,114.2,123.4
								L114.2,123.4z"/>
							<path class="st1" d="M116.5,22.2l0.7,0.3c-0.3,0.4-0.5,0.7-0.7,1c-1.4,2.1-10.1,10.1-16.6,15.5c-2.5,2.1-4.8,3.8-6,4.6
								c-0.1,0.1-0.4,0.3-0.8,0.6v-1.7C97.4,39.2,112.7,26.8,116.5,22.2z"/>
							<path class="st6" d="M107.8,140.6l8,12l-5.3,2.9l-6.3-15.8c0.7,0.2,1.4,0.4,2.1,0.5C106.8,140.5,107.3,140.6,107.8,140.6z"/>
							<path class="st7" d="M110.1,122.8c0,0,1.9,0.3,4.2,0.5c0,0-6.9,9.8-13.8,15.2c-1.3-0.6-2.6-1.2-3.7-2
								C98.3,136.5,110.1,122.8,110.1,122.8L110.1,122.8z"/>
							<path class="st6" d="M104.2,139.9l6.3,15.8c-0.4-0.2-0.7-0.4-1.1-0.6c-6.2-3.8-12-14.5-14-19.3c0.4,0.3,0.8,0.5,1.2,0.8
								c1.1,0.7,2.4,1.4,3.7,2C101.6,139,102.9,139.5,104.2,139.9L104.2,139.9z"/>
							<path class="st6" d="M109.5,155.1l0.6,2.4c0,0-2.3,0.7-5.8,1.4c-2.6-0.8-6.3-7.3-9.3-14.2l0,0c-2.3-5.4-4.4-10.9-5.5-14.2
								c1.5,1.7,3.5,3.5,6,5.2C97.4,140.6,103.3,151.2,109.5,155.1z"/>
							<path class="st8" d="M107.3,71.5c0,0-5.5,12.7-6,17.4c-4,2.6-8.2,5.4-10.9,7.2c0.3-4.9,0.7-8.9-0.2-12.8l0,0
								c0-0.1-0.1-0.2-0.1-0.2C90.2,83.1,101.7,75.2,107.3,71.5L107.3,71.5z"/>
							<path class="st6" d="M100.1,39l1.3,11.7c-3.1,2.6-6.2,4.9-8.1,5.9V44.1c0.4-0.3,0.7-0.5,0.8-0.6C95.3,42.8,97.5,41,100.1,39
								C100.1,38.9,100.1,39,100.1,39z"/>
							<path class="st8" d="M94.9,144.7c-0.5,0-1,0.1-1.5,0.1c-3.1-8.5-8.7-13.1-15-18.8c0.4-1.7,0.6-2.8,0.6-2.8
								c1.8-3,3.1-5.6,3.8-7.1l0,0c0.7,3.8,2.2,8.2,3.5,10.5c0.5,1,1.5,2.4,3,4C90.5,133.9,92.6,139.4,94.9,144.7L94.9,144.7z"/>
							<path class="st1" d="M93.2,42.5v1.6c-0.7,0.5-1.7,1.1-2.8,1.9l0.5-4.9L90.8,41c0.7-0.5,1.5-1.1,2.4-1.7V42.5L93.2,42.5z"/>
							<path class="st1" d="M93.2,35.6v3.7c-0.9,0.7-1.7,1.2-2.4,1.7c-1.8,1.3-2.9,2-2.9,2h-0.8l0.6-3.4l0,0
								C89.3,38.5,91.3,37,93.2,35.6L93.2,35.6L93.2,35.6z"/>
							<path class="st5" d="M93.4,144.8c-11,0.3-18.4-2.7-18.9-2.9c1.7-5.6,3.2-12.2,3.9-15.9C84.6,131.6,90.3,136.3,93.4,144.8
								L93.4,144.8z"/>
							<path class="st1" d="M90.8,41.1L90.8,41.1L90.4,46c-1.4,0.9-2.9,1.9-4.2,2.7l1-5.8l0.7,0.1C87.8,43.1,88.9,42.4,90.8,41.1
								L90.8,41.1z"/>
							<path class="st8" d="M90.3,83.3c0.9,3.9,0.5,8,0.2,12.8c-1.1,0.8-2,1.4-2.6,1.8c-1.1,0.8-2,1.8-2.7,3c1-2.1,0.4-8.6,0.4-8.6
								c0.7-1.3,1.6-3,2.3-4C89.4,87.3,90.5,84.1,90.3,83.3L90.3,83.3L90.3,83.3z"/>
							<path class="st6" d="M90.3,83.3c0.1,0.9-0.8,3.9-2.4,5c-0.3,0.2-0.6,0.3-0.9,0.4c-0.1,0-0.3,0-0.4,0s-0.2,0-0.3-0.1
								c-0.1,0-0.2-0.1-0.3-0.1c-0.2-0.1-0.4-0.3-0.6-0.4c-0.2-0.2-0.3-0.3-0.4-0.5c-0.4-0.6-0.6-1.3-0.7-1.8c0-0.1-0.1-0.3-0.1-0.4
								C83.9,84,86.4,80,88,79.7l0,0C88,80.8,88.4,82.3,90.3,83.3C90.3,83.1,90.3,83.2,90.3,83.3L90.3,83.3z"/>
							<path class="st8" d="M86,71.3c1.5,3,2.7,5.9,2.8,6.7c-0.6,0.5-0.9,0.8-0.9,0.8c-0.1,0.2-0.1,0.5-0.1,0.8l0,0
								c-1.6,0.4-4.1,4.3-3.8,5.7c-1.1-2.9-6.7-14-6.7-14c1.1-3.6,2.1-6.9,2.6-9.2C81.8,63.5,84.2,67.6,86,71.3L86,71.3z"/>
							<path class="st1" d="M87.7,39.6L87.7,39.6L87.1,43l-1,5.8c-1.4,0.9-2.5,1.6-2.5,1.6c0.6-3.1,0.5-5.7-0.9-7.6
								C83.6,42.4,85.4,41.2,87.7,39.6L87.7,39.6z"/>
							<path class="st6" d="M86.9,88.7c0.3,0,0.6-0.2,0.9-0.4c-0.7,1-1.6,2.7-2.3,4c-0.5,1-0.9,1.8-0.9,1.8l-1.2-0.7
								C84.8,91,85.9,89.5,86.9,88.7L86.9,88.7L86.9,88.7z"/>
							<path class="st6" d="M86.1,88.7L86.1,88.7c0.1,0,0.2,0,0.3,0c0.1,0,0.3,0,0.4,0l0,0c-1,0.8-2,2.3-3.4,4.9L82.5,93
								C82.3,92.7,85.6,88.6,86.1,88.7L86.1,88.7z"/>
							<path class="st6" d="M86.1,88.6L86.1,88.6c-0.5,0-3.8,4.1-3.6,4.4l-1.1-0.5c0.4-0.6,1.5-2.1,4.2-3.9l0.2-0.1
								C86,88.6,86.1,88.6,86.1,88.6L86.1,88.6z"/>
							<path class="st6" d="M81.5,92.5c-0.1,0.2-0.2,0.3-0.2,0.3l-0.9-0.6l0.5-0.6c0,0,3.2-3.2,4.2-3.3l0.1-0.1
								c0.2,0.2,0.4,0.3,0.6,0.4l-0.2,0.1C83,90.4,81.9,91.9,81.5,92.5L81.5,92.5z"/>
							<path class="st8" d="M85.5,92.4c0,0,0.7,6.5-0.4,8.6l0,0c-0.8,1.3-1.3,2.7-1.7,4.1c-0.6-2.9-2.5-7.9-4.3-12.5l1.3-0.5
								l0.9,0.6c0,0,0.1-0.1,0.2-0.3l1.1,0.5l0.9,0.5l1.2,0.7C84.6,94.2,85,93.4,85.5,92.4L85.5,92.4z"/>
							<path class="st6" d="M85.3,88.1L85.3,88.1c-1.2,0.2-4.3,3.4-4.3,3.4l-0.7-0.7c0,0,3.4-3.1,4.4-3.2l0.2-0.1
								C85,87.8,85.1,87.9,85.3,88.1L85.3,88.1z"/>
							<path class="st6" d="M80.2,89.5l-0.4-0.8l4.2-2.9h0.1c0.1,0.5,0.4,1.2,0.7,1.8l-0.2,0.1c-1,0.1-4.4,3.2-4.4,3.2l-0.4-0.7
								L80.2,89.5L80.2,89.5z"/>
							<path class="st8" d="M84.1,85.7L84.1,85.7l-4.3,2.9l0.4,0.8L79.7,90l0.4,0.7l0.7,0.7L80.4,92L79,92.5c-2.4-6-5-11.5-5-11.5
								l0,0c1.1-3.2,2.2-6.7,3.2-9.9c0,0,5.5,11.1,6.7,14C84.1,85.4,84.1,85.5,84.1,85.7L84.1,85.7z"/>
							<path class="st8" d="M74.1,81.1L74.1,81.1c0,0,2.5,5.5,5,11.5c1.9,4.6,3.7,9.6,4.3,12.5l0,0c-0.7,2.5-0.9,5.2-0.9,7.2
								c0,1.1,0.1,2.3,0.4,3.6l0,0c-0.7,1.5-2,4-3.8,7.1c-1.9,3.2-4.4,7-7.4,10.6c-0.8,0.9-1.6,1.9-2.4,2.8
								c-11.3-5.7-21.7-18.8-27.1-31.5c-5-11.7-5.5-23.4-3.6-30c2.8-0.6,5.5-1.4,6-1.8c1.3-1.4,3.3-3.8,5.6-6.7
								c0.6-0.8,1.2-1.6,1.9-2.4c-7.3-5.4-13.4-18.2-13.4-18.2c2-0.4,3.8-0.8,5.1-1.1c5-1.2,17.8-6.1,24.8-8.6
								c3.2-1.2,5.7-0.8,7.6,0.3c2.2,1.3,4,3.5,6.1,5.6c0.2,0.2,0.4,0.5,0.6,0.7c1.4,1.9,1.5,4.4,0.9,7.6c-0.6,3.3-2.1,7.2-3.6,11.7
								c-0.5,2.3-1.5,5.7-2.6,9.2C76.4,74.4,75.2,77.9,74.1,81.1L74.1,81.1z"/>
							<path class="st6" d="M74.5,141.8c-1.4,4.6-3,8.7-4.4,9.7c-3.7,0.2-8.3-0.9-8.3-0.9c4.6-6,8-9,10-17c2.9-3.6,5.5-7.4,7.4-10.6
								c0,0-0.2,1.1-0.6,2.8C77.7,129.6,76.2,136.2,74.5,141.8L74.5,141.8z"/>
							<path class="st6" d="M69.3,136.5c0.8-0.9,1.6-1.9,2.4-2.8c-2,7.9-5.3,11-10,17l-0.6,0.8c0,0-2.7-1.3-5-2.5l2.8-2.8l0.1-0.1
								l6.9-7l0,0C67.9,137.6,69.3,136.5,69.3,136.5z"/>
							<path class="st7" d="M69.3,136.5c0,0-1.3,1.1-3.4,2.5c-0.2,0.1-0.3,0.2-0.5,0.4c-8.6-6.2-18.4-17.1-25-27.1s-7.2-25-6-36.5
								c1.3-0.2,2.8-0.5,4.3-0.8c-1.8,6.7-1.3,18.4,3.6,30C47.6,117.8,58,130.8,69.3,136.5z"/>
							<path class="st6" d="M65.8,139L65.8,139l-6.9,7l-0.1,0.1c-0.6,0.6-3.4,2.9-3.4,2.9l-2.4-2.5l4.4-3.4l0.2-0.1l2-1.6l0.2-0.4
								c0.4,0.3,0.9,0.6,1.3,0.8c1.4-0.8,2.7-1.6,3.9-2.4C65.5,139.3,65.7,139.2,65.8,139L65.8,139z"/>
							<path class="st7" d="M65.3,139.4c-1.1,0.8-2.4,1.6-3.9,2.4c-0.4-0.3-0.9-0.5-1.3-0.8c-1.2-0.8-2.4-1.6-3.6-2.5
								c-10.2-8.1-18-20.2-22.5-27.4c-5.3-8.3-5.2-16.2-5.8-30.5L28,80.5c1.1-1.7,2.3-3.2,3.7-4.5c0.6,0,1.5-0.1,2.6-0.2
								c-1.2,11.5-0.7,26.5,6,36.5C46.9,122.3,56.7,133.3,65.3,139.4L65.3,139.4z"/>
							<path class="st6" d="M60,141l-0.2,0.4l-2,1.6l-0.2,0.1c-1.8,1.3-5.7,3-8,4.1l-3.1-3.7l8.1-4.1l1.9-1
								C57.6,139.3,58.8,140.2,60,141z"/>
							<path class="st6" d="M56.5,138.4l-1.9,1L44,143.3l-1.4-3.8l7.1-4l0.1-0.1c0.8,0.7,1.7,1.3,2.6,1.7
								C55.5,138.3,56.5,138.4,56.5,138.4L56.5,138.4z"/>
							<path class="st5" d="M56.5,138.4c0,0-1-0.1-4.1-1.4c-0.9-0.4-1.8-1-2.6-1.7c-1.1-0.9-2.1-2-3-2.9c-3-2.9-6.1-6-9-9
								c-5.8-6.1-13.5-12.9-15.2-21.5c-0.5-2.4-0.4-5,0-7.4c0.6-4.5,2.7-9.7,5.5-13.9l0,0l0.1,0.1c0.6,14.4,0.4,22.2,5.8,30.5
								C38.4,118.3,46.2,130.4,56.5,138.4L56.5,138.4z"/>
							<path class="st7" d="M52.1,64.1c-0.6,0.8-1.3,1.6-1.9,2.4c-8.9-7.7-14.4-20-14.4-20c1-0.2,1.9-0.4,2.9-0.6
								C38.6,45.9,44.9,58.8,52.1,64.1L52.1,64.1z"/>
							<path class="st7" d="M50.2,66.5c-2.2,2.8-4.2,5.3-5.6,6.7c0,0-2.7-2.5-4.6-3.7c-0.7-0.4-2.3-2-4.2-4.4
								c-3.4-4-8.1-10.2-11.6-16.3c0,0,6-1.1,11.6-2.2C35.8,46.5,41.2,58.9,50.2,66.5L50.2,66.5z"/>
							<path class="st5" d="M38.6,75c-1.5,0.3-3,0.6-4.3,0.8c-1.1,0.2-2,0.3-2.6,0.2c0,0-0.1-0.2-0.3-0.7c0,0,3-10.7,4.3-10.3
								c2,2.4,3.5,4,4.2,4.4c1.9,1.1,4.6,3.7,4.6,3.7C44.1,73.6,41.4,74.3,38.6,75L38.6,75z"/>
							<path class="st5" d="M35.8,65c-1.4-0.4-4.4,10.3-4.4,10.3c-1-1.9-4-7.8-5.1-11.7c-1.3-4.8-2.8-9.9-2.1-14.9
								C27.7,54.8,32.3,61,35.8,65z"/>
						</g>
						<g>
							<path class="st10" d="M133.9,20.8c0,0-0.4,3-1.1,4.8c-0.7,1.7-1.3,2.4-2.2,3.1s-2.9,0-2.9,0"/>
							<path class="st11" d="M128.6,27.2c-0.7-0.1-1.1,0-1.5,0.4"/>
							<path class="st12" d="M126.8,33.1c0.2-0.1,0.4-0.2,0.7-0.4l-0.7-0.7l-0.5-0.2c0,0,0-0.3-0.3-0.4c-0.3-0.2-2.5,0-2.5,0
								c0,0.1,0,0.2,0,0.3C123.8,32.9,124.4,34.3,126.8,33.1L126.8,33.1z"/>
							<path class="st11" d="M123.6,31.6c1,0.7,2,1.1,3.2,1.2"/>
							<path class="st10" d="M122.6,36.2c-1.7,0.2-3.5,0.2-5.4-0.2c-0.6-0.1-1.3-0.3-1.9-0.6"/>
							<path class="st10" d="M129.5,33.8c-0.7,0.4-1.4,0.8-2.2,1.1c-1.4,0.6-3,1.1-4.6,1.3"/>
							<path class="st10" d="M140.2,17c0,0-4.2,12.3-8.3,15.2c-0.7,0.5-1.6,1.1-2.5,1.6"/>
							<path class="st10" d="M128.2,19.4c0.3,0.1,0.5,0.2,0.7,0.3"/>
							<path class="st10" d="M125.6,18.4c0,0,1.3,0.5,2.3,0.9"/>
							<line class="st10" x1="136.5" y1="23.9" x2="137" y2="24.1"/>
							<line class="st10" x1="134.9" y1="23" x2="136.4" y2="23.8"/>
							<path class="st10" d="M131.5,14.7c-0.1,0.3-0.7,0.3-1.3,0s-1-0.7-0.9-1s0.7-0.3,1.3,0C131.3,14,131.7,14.4,131.5,14.7
								L131.5,14.7z"/>
							<path class="st10" d="M138.9,18.5c-0.1,0.3-0.7,0.3-1.3-0.1c-0.6-0.3-0.9-0.8-0.8-1c0.1-0.3,0.7-0.3,1.3,0.1
								C138.7,17.8,139,18.3,138.9,18.5z"/>
							<path class="st10" d="M76.1,36.4L76.1,36.4c2.4,1.2,44.2-28.2,48.6-32.1c3.8-3.4,9.8-3.2,13.1-1.2s4,6.7,4,9.6
								c0,0.7-0.2,1.7-0.6,2.7c-0.3,0.7-0.6,1.3-1,1.7c-0.6-0.2,0.2-2.9-0.2-2.8s-2-0.3-3.7-1.3c-1.6-1-2.8-2.7-3.6-4
								c-0.9-1.3-1.7-1.7-2.7-0.7s-3.2,1.7-3.7,2.3c-0.4,0.6-6.3,8.3-8.8,12c-0.3,0.4-0.5,0.7-0.7,1c-1.4,2.1-10.1,10.1-16.6,15.5
								c-2.5,2.1-4.8,3.8-6,4.6c-0.1,0.1-0.4,0.3-0.8,0.6c-0.7,0.5-1.7,1.1-2.8,1.9c-1.4,0.9-2.9,1.9-4.2,2.7
								c-1.4,0.9-2.5,1.6-2.5,1.6"/>
							<path class="st10" d="M130,44.7L130,44.7c0.3,0.9,1,2.7,1.1,3.2c0.4,1.3,0.7,2.2,1,2.8c0.3,0.9,0.4,1.2,0.4,1.2"/>
							<path class="st10" d="M127.2,34.9c0,0,0.1,0.3,0.4,1.5"/>
							<path class="st10" d="M90.2,83.1c0,0,11.5-7.9,17.2-11.6c0.6-0.4,1.2-0.8,1.6-1.1c5.9-3.8,17-8.3,20.9-10
								c1.6-0.7,2.7-1.3,3.4-1.8c1-0.7,1.2-1.3,1.4-1.9c0.4-1,0-2.8-0.8-4.1c-0.2-0.4-0.5-0.6-1.4-0.4c-1.3,0.2-3.9,1.3-9.7,3.8
								c-5.2,2.1-10.4,5.1-15.1,8c-9.2,5.7-16.5,11.9-18.9,14c-0.6,0.5-0.9,0.8-0.9,0.8c-0.1,0.2-0.1,0.5-0.1,0.8
								C87.8,80.7,88.2,82.2,90.2,83.1L90.2,83.1z"/>
							<path class="st10" d="M122.6,36.2L122.6,36.2c2.4,0-27.2,28.6-36.1,35"/>
							<path class="st10" d="M117.1,36.2c0,0-8.5,8.3-15.8,14.5c-3.1,2.6-6.2,4.9-8.1,5.9"/>
							<line class="st10" x1="100.1" y1="39" x2="101.4" y2="50.7"/>
							<path class="st10" d="M56.5,138.4c0,0-1-0.1-4.1-1.4c-0.9-0.4-1.8-1-2.6-1.7c-1.1-0.9-2.1-2-3-2.9c-3-2.9-6.1-6-9-9
								c-5.8-6.1-13.5-12.9-15.2-21.5c-0.5-2.4-0.4-5,0-7.4c0.6-4.5,2.7-9.7,5.5-13.9l0,0c1.1-1.7,2.3-3.2,3.7-4.5
								c0,0-0.1-0.2-0.3-0.7c-1-1.9-4-7.8-5.1-11.7c-1.3-4.8-2.8-9.9-2.1-14.9c0,0,6-1.1,11.6-2.2c1-0.2,1.9-0.4,2.9-0.6
								c2-0.4,3.8-0.8,5.1-1.1c5-1.2,17.8-6.1,24.8-8.6c3.2-1.2,5.7-0.8,7.6,0.3c2.2,1.3,4,3.5,6.1,5.6c0.2,0.2,0.4,0.5,0.6,0.7
								c1.4,1.9,1.5,4.4,0.9,7.6c-0.6,3.3-2.1,7.2-3.6,11.7c-0.5,2.3-1.5,5.7-2.6,9.2c-1,3.2-2.2,6.7-3.2,9.9
								C72.7,86.9,71,91.8,70.6,94c-1,4.8-2.6,16.2-2.6,20.1"/>
							<path class="st10" d="M28.1,80.6c0.6,14.4,0.4,22.2,5.8,30.5c4.5,7.2,12.3,19.2,22.6,27.3c1.2,0.9,2.3,1.8,3.6,2.5
								c0.4,0.3,0.9,0.6,1.3,0.8c1.4-0.8,2.7-1.6,3.9-2.4c0.2-0.1,0.4-0.2,0.5-0.4c2.1-1.4,3.4-2.5,3.4-2.5
								c-11.3-5.7-21.7-18.8-27.1-31.5c-5-11.7-5.5-23.4-3.6-30l0,0"/>
							<path class="st10" d="M31.7,76c0.6,0,1.5-0.1,2.6-0.2c1.3-0.2,2.8-0.5,4.3-0.8c2.8-0.6,5.5-1.4,6-1.8
								c1.3-1.4,3.3-3.8,5.6-6.7c0.6-0.8,1.2-1.6,1.9-2.4c5.8-7.4,12.1-15.9,12.1-15.9"/>
							<path class="st10" d="M24.2,48.8c3.5,6,8.1,12.2,11.6,16.2c2,2.4,3.5,4,4.2,4.4c1.9,1.1,4.6,3.7,4.6,3.7"/>
							<path class="st10" d="M35.8,46.5c0,0,5.5,12.4,14.5,20"/>
							<path class="st10" d="M38.6,45.9c0,0,6.2,12.8,13.4,18.2"/>
							<path class="st10" d="M31.3,75.3c0,0,3-10.7,4.3-10.3"/>
							<path class="st10" d="M34.4,75.8c-1.2,11.5-0.7,26.5,6,36.5c6.6,10.1,16.4,20.9,25,27.1"/>
							<path class="st10" d="M69.3,136.5c0.8-0.9,1.6-1.9,2.4-2.8c2.9-3.6,5.5-7.4,7.4-10.6c1.8-3,3.1-5.6,3.8-7.1"/>
							<path class="st10" d="M120.1,123.7c0.1,0,0.1,0,0.2,0c0.5-0.1,0.9,0,1.4,0.1c0.1,0,0.2,0.1,0.2,0.1c1.6,0.7,6.6,2.4,7.7,4
								c0.1,0.2,0.2,0.4,0.2,0.6c0.1,1.8,0,3.1,0,3.1c-3.5,2.5-10.7,8-18,9c-1.3,0.2-2.7,0.2-4,0.1c-0.5-0.1-1-0.1-1.4-0.3"/>
							<path class="st10" d="M83.5,105.2c-0.7,2.5-0.9,5.2-0.9,7.2c0,1.1,0.1,2.3,0.4,3.6c0.7,3.8,2.2,8.2,3.5,10.5
								c0.5,1,1.5,2.4,3,4c1.5,1.7,3.5,3.5,6,5.2c0.4,0.3,0.8,0.5,1.2,0.8c1.1,0.7,2.4,1.4,3.7,2c1.2,0.5,2.5,1,3.8,1.4
								c0.7,0.2,1.4,0.4,2.1,0.5c2.6-2.7,6.3-7.8,8.7-11.3c1.4-2,2.4-3.5,2.8-3.9c0.8-0.9,1.5-1.3,2.1-1.5"/>
							<path class="st10" d="M85.1,101c-0.8,1.3-1.3,2.7-1.7,4.1"/>
							<path class="st10" d="M115.3,79.9c0,0-7,4.4-13.9,9c-4,2.6-8.2,5.4-10.9,7.2c-1.1,0.8-2,1.4-2.6,1.8c-1.1,0.8-2,1.8-2.7,3"/>
							<path class="st10" d="M115.3,129.2c0,0,8.2,2.8,14.6,2.3c2.4,0.4,8.2,0.3,13.2-0.4c0.3,0,0.6-0.1,0.9-0.1
								c2.6-0.4,5.1-1,6.7-1.8c1.3-0.6,3-1.3,5-1.9c5.5-1.8,12.3-3.6,16.2-4.1c5.2-0.7,17.8-4.4,17.8-4.4c-0.5,5-6.4,9.1-12.4,12.2
								c5.9,2,9.9,3.1,9.9,3.1c-3,1.7-7,3.7-11.1,5.6c-6.8,2.9-14.3,5.6-20.2,6.5c-9.6,1.5-20.8,0-20.8,0"/>
							<path class="st10" d="M143.1,131.2c0,0-1.7,4-4.3,8.7c-1.1,2-2.4,4.2-3.7,6.3c-2.6,3.9-5.6,7.4-8.2,8.2
								c-2.5-0.1-3.6,0.1-4.9-0.8c-0.4-0.3-0.8-0.7-1.2-1.2c-2-2.3-8.9-11.8-8.9-11.8"/>
							<polyline class="st10" points="107.8,140.6 107.8,140.6 115.8,152.7 117.7,155.7 122,153.6 							"/>
							<polyline class="st10" points="104.2,139.9 110.6,155.7 115.8,152.7 							"/>
							<path class="st10" d="M95.4,135.7c2,4.9,7.9,15.5,14,19.3c0.4,0.2,0.7,0.4,1.1,0.6"/>
							<path class="st10" d="M94.9,144.7c3,6.9,6.7,13.3,9.3,14.2c3.5-0.7,5.8-1.4,5.8-1.4l-0.6-2.4"/>
							<path class="st10" d="M89.4,130.5c1,3.2,3,8.8,5.5,14.2"/>
							<path class="st10" d="M74.5,141.8L74.5,141.8c0.5,0.2,7.9,3.2,18.9,2.9c0.5,0,1,0,1.5-0.1l0,0"/>
							<path class="st10" d="M79,123.1c0,0-0.2,1.1-0.6,2.8c-0.8,3.6-2.2,10.3-3.9,15.9c-1.4,4.6-3,8.7-4.4,9.7
								c-3.7,0.2-8.3-0.9-8.3-0.9c4.6-6,8-9,10-17"/>
							<path class="st10" d="M58.9,146.1l-2.8,2.8c2.2,1.2,5,2.5,5,2.5l0.6-0.8"/>
							<line class="st10" x1="65.8" y1="139.1" x2="59" y2="146"/>
							<path class="st10" d="M57.6,143.1l-4.4,3.4l2.4,2.5c0,0,2.7-2.3,3.4-2.9l0.1-0.1"/>
							<line class="st10" x1="59.8" y1="141.3" x2="57.8" y2="143"/>
							<path class="st10" d="M56.5,138.4l-1.9,1l-8.1,4.1l3.1,3.6c2.3-1.1,6.2-2.8,8-4.1l0.2-0.1"/>
							<polyline class="st10" points="49.6,135.4 42.6,139.4 44,143.4 54.5,139.4 							"/>
							<path class="st10" d="M78.4,126c6.2,5.7,11.7,10.3,15,18.8l0,0"/>
							<path class="st10" d="M94,115c4,2,4.9,6.7,20,6.3c15.3-0.4,28.1-0.1,36.6-3.1s29.7-9.3,32.4-9.2"/>
							<path class="st10" d="M175.1,99.9c-2.3-1.9-4.9-3.2-9.4-3.7c-1.7-0.2-3.7-0.3-6.1-0.3c-4,0.1-9,0.6-13.8,1.2
								c-3.3,0.4-6.7,0.9-9.8,1.3c-4.5,0.6-8.6,1.1-11.3,1.1c-7.3,0-13.8,0.7-15.6-0.1"/>
							<path class="st10" d="M189.7,118.7c0,0-1.2-1.9-3-4.6c-0.5-0.8-1.1-1.6-1.6-2.4c-0.1-0.2-0.3-0.4-0.5-0.7
								c-0.5-0.7-1-1.4-1.5-2.1c-2.1-2.9-4.2-5.8-5.9-7.2c-0.7-0.7-1.5-1.3-2.2-1.9"/>
							<path class="st10" d="M121.7,123.8c0,0,6.7,1.1,17.2,0s23.9-6.7,27.9-8.2s15.6-4,18.3-3.8"/>
							<path class="st10" d="M129.7,127.9c8.9-0.6,17.6-2.3,24.3-4.8c6.8-2.4,15.1-5.6,19.8-6.6c4.8-1,12.9-2.4,12.9-2.4"/>
							<path class="st10" d="M96.6,136.5c1.7-0.1,13.3-13.6,13.3-13.6s1.9,0.3,4.2,0.5c2.2,0.2,4.8,0.4,5.9,0.2l0,0
								c0.1,0,0.1,0,0.2,0"/>
							<path class="st10" d="M114.2,123.4c0,0-6.9,9.8-13.8,15.2"/>
							<path class="st10" d="M135.5,78.5c0.2,2.4,0.4,4.5,0.4,5.9c0,5.7-0.1,13.8-0.1,14l0,0"/>
							<path class="st10" d="M133.2,58.5c0,0,0.7,5.5,1.4,11.5c0.3,2.8,0.6,5.9,0.9,8.4"/>
							<path class="st10" d="M258.7,56c0.3-0.2,0.6-0.4,1-0.8c3.4-3.3,11.6-10,14.6-10.4v64.1h-1.6c0,0-14,2.4-20.4,4.4
								c-6.3,2.1-22.1,8.4-29.4,10.8c-7.3,2.4-11.4,1.3-18.8,1"/>
							<path class="st10" d="M145.6,97.1c0,0-0.4-0.5-1-1.2c-1.2-1.5-3.1-4-4.4-6.1c-0.4-0.6-0.8-1.2-1-1.7
								c-1.3-2.7-3.5-9.2-3.6-9.6l0,0c0,0,11.3-6.5,17.8-10.9c4.4-3,25.7-19,49.4-30.4c2.4-1.1,4.9-2.2,7.4-3.3
								c2.2-0.9,4.3-1.8,6.6-2.6c3.6-1.3,7.4-2.5,10.9-3.4c2.3-0.6,4.6-1.1,6.9-1.5c1.8,11.9,2.3,17.6,4.2,18.5
								c0.4,0.2,1.2,0.2,2.2,0c2.7-0.4,7-1.7,9.8-2.5c1.3-0.4,2.2-0.7,2.6-0.7c1.5-0.2,2.9,3.1,3.3,7.3c0.3,3.5-0.3,8.3,1.8,7.3"/>
							<path class="st10" d="M140.2,89.8c0,0,14-10.5,26.2-17.1s38.7-18.4,53-20.7c14.2-2.3,22.5-2.3,22.5-2.3
								c3.4-2.6,4.4-5.6,8.9-7.4"/>
							<line class="st10" x1="241.1" y1="44.8" x2="242" y2="49.7"/>
							<path class="st10" d="M144.7,95.9c19.6-10.1,34.6-19.5,49.3-24.6c14.7-5.2,49-12.2,59.7-11.8c3.4-2.3,4.6-3,5-3.2
								c0.1-0.1,0.1-0.1,0.1-0.1"/>
							<path class="st10" d="M165.7,96.2c15.6-8.1,38.5-17.7,61.6-22.9c23-5.2,47.1-6.7,47.1-6.7"/>
							<path class="st10" d="M175.1,99.9L175.1,99.9c15.1-6.7,35.8-13.8,56.8-16.8s40.9-2,42.3-1"/>
							<path class="st10" d="M177.3,101.8c8.6-0.1,12.8,0.2,16.1,0.5c1.1,0.1,2.2,0.2,3.2,0.4c0.8,0.1,1.5,0.3,2.1,0.5
								c1.9,0.8,2.6,2.3,3,5.2c0.1,0.4,0.1,0.8,0.1,1.3c0.1,1.3,0.3,3.8,0.7,6.9c0.2,1.4,0.4,3,0.7,4.5c0.3,1.4,0.6,2.8,0.9,4.2
								c1.3,5.4,3.4,10.2,6.6,11.3"/>
							<path class="st10" d="M260.8,137c-1.9-1.6-3.9-4.5-4.4-8c-0.4-1,0.3-3.7-6.5,0.2c-2.3,1.4-4.6,3.5-6.7,5.9
								c-3.2,3.6-6.1,7.7-7.9,10c-0.3,0.4-0.6,0.8-0.9,1.1c-2.6,2.9-5.6,7.1-7.3,7.1s-4.4-2.1-7.3-3.9c-0.5-0.3-1-0.5-1.4-0.7
								c-2.2-0.6-4.6,0.6-10.3-0.1c-6.8-0.9-26.3-4.4-31.9-9"/>
							<path class="st10" d="M187.2,134.1c9.4,1.3,17.5,2.7,23.4,2.6c1.1,0,2-0.1,2.9-0.2c1.2-0.1,3.2-0.7,6-1.6
								c11.2-3.6,32.5-12.1,37-12.7c5.5-0.7,13.4-0.4,16.2,0.7l2.7,1.1v7.2c0,0-9.2,6.5-11.4,7.1c-0.9,0.2-2.1-0.3-3.3-1.3"/>
							<path class="st10" d="M243.1,135.1c0,0,6.4,2.6,12.2,2.7c1.9,0.1,3.7-0.2,5.4-0.8l0,0"/>
							<path class="st10" d="M235.3,145.1c0,0,13.1-0.8,20.1-7.3l0,0"/>
							<path class="st10" d="M219.5,135c0,0,1.4,12.4-1.2,13.6l0,0"/>
							<path class="st10" d="M203.2,121c0,0,5.4,0.7,9.7,0.2s15.5-2,21.1-4.6c5.7-2.6,18-8.3,24.8-9.3s15.6-1.9,15.6-1.9"/>
							<path class="st10" d="M202.4,116.5c0,0,9.5,1,15.9,0s19.4-4.9,28.3-9.1c8.9-4.2,25.7-5.2,27.7-5.1"/>
							<path class="st10" d="M201.6,108.3c0,0,18.4-6,27.6-6.6c9.2-0.6,35.7-2.6,45.1-0.7"/>
							<path class="st10" d="M198.6,103.1c1.6-1.2,16.9-5.9,28.1-7.3c11.2-1.5,40-3.2,47.6-2.1"/>
							<path class="st10" d="M87.8,79.6c-1.6,0.4-4.1,4.3-3.8,5.7c0,0.1,0.1,0.3,0.1,0.4c0.1,0.5,0.4,1.2,0.7,1.8
								c0.1,0.2,0.3,0.4,0.4,0.5c0.2,0.2,0.4,0.3,0.6,0.4c0.1,0,0.2,0.1,0.3,0.1s0.2,0.1,0.3,0.1c0.1,0,0.3,0,0.4,0
								c0.3,0,0.6-0.2,0.9-0.4c1.6-1.1,2.6-4.1,2.4-5c0-0.1-0.1-0.2-0.1-0.2"/>
							<polyline class="st10" points="84,85.8 79.7,88.7 80.2,89.5 84,86.9 							"/>
							<path class="st10" d="M80.2,89.5l-0.4,0.6l0.4,0.7c0,0,3.4-3.1,4.4-3.2"/>
							<path class="st10" d="M80.2,90.8l0.7,0.7c0,0,3.2-3.2,4.2-3.3"/>
							<path class="st10" d="M80.9,91.5l-0.5,0.6l0.9,0.6c0,0,0.1-0.1,0.2-0.3c0.4-0.6,1.5-2.1,4.2-3.9"/>
							<path class="st10" d="M81.5,92.5L81.5,92.5l1.1,0.5c-0.2-0.3,3.1-4.4,3.6-4.3l0,0"/>
							<path class="st10" d="M82.5,93l0.9,0.5c1.4-2.5,2.4-4,3.4-4.9"/>
							<path class="st10" d="M83.5,93.5l1.2,0.7c0,0,0.4-0.8,0.9-1.8c0.7-1.3,1.6-3,2.3-4"/>
							<path class="st10" d="M80,62c1.7,1.5,4.1,5.6,6,9.3c1.5,3,2.7,5.9,2.8,6.7"/>
							<path class="st10" d="M77.4,71.3c0,0,5.5,11.1,6.7,14"/>
							<path class="st10" d="M74.1,81.1c0,0,2.5,5.5,5,11.5c1.9,4.6,3.7,9.6,4.3,12.5l0,0"/>
							<path class="st10" d="M85.5,92.4c0,0,0.7,6.5-0.4,8.6l0,0"/>
							<path class="st10" d="M90.3,83.3c0.9,3.9,0.5,8,0.2,12.8"/>
							<path class="st10" d="M107.3,71.5c0,0-5.5,12.7-6,17.4c0,0.1,0,0.2,0,0.3"/>
							<path class="st10" d="M163.7,132.3c0.7,0.2,1.3,0.4,1.9,0.5c1.7,0.3,3.2,0.3,4.8-0.1c4.3-1.1,6.8-1.8,6.8-1.8"/>
							<path class="st10" d="M155.8,127.3c2.7,2.4,5.5,4.1,8,5.1"/>
							<path class="st10" d="M144.1,131L144.1,131c0.1,0.1,3.4,2.9,8.4,3c4.3,0.1,11-1.7,11.2-1.8l0,0"/>
							<path class="st10" d="M138.8,139.9c0,0,10.8,0.1,15.1-1.4c4.2-1.5,9.7-2.8,11.7-5.7"/>
							<path class="st10" d="M184.6,111c0,0,8.7-7.5,8.7-8.8"/>
							<path class="st10" d="M132.2,50.7c0,0,15.2,2.1,14.7,2.2c-0.7,1-1.4,2.1-2.1,3.1c-4.6,6.6-9.2,12-9.8,13.9"/>
							<path class="st10" d="M132.2,40.5c0.9-1.6,1.8-3.2,2.4-5c0.1-0.2,0.1-0.4,0.2-0.6c1-2.7,2.1-5.5,3-8.2
								c0.2-0.7,0.7-1.8,1.1-3.1c0.8-2.3,1.6-5.1,1.5-6.6"/>
							<path class="st10" d="M129.5,33.8L129.5,33.8c-0.5,0.8-1.2,1.7-1.8,2.6c-0.8,1.2-1.4,2.4-1.3,3.7c0.2,2.3,1.7,4.2,3.1,6.1
								c0.1-0.5,0.3-1,0.5-1.4c0-0.1,0.1-0.1,0.1-0.2c0.6-1.4,1.3-2.7,2.1-4.1"/>
							<path class="st10" d="M144.7,56l3.9,2.4l3.9-7.5l2.3-4.3l3-5.8c-1.3-0.5-2.7-1-4.2-1.5c-2.2-0.8-4.6-1.5-7-2.2
								c-5.1-1.4-9.8-2.4-12-2.2"/>
							<path class="st10" d="M132.2,40.5L132.2,40.5c0.2,0,8.6,1.2,11.9,2.4c3.3,1.1,10.8,3.8,10.8,3.8"/>
							<path class="st10" d="M130,44.5L130,44.5c1.4,0.2,15.5,2.4,22.6,6.6"/>
							<path class="st10" d="M138.9,23.6c0,0,19.8-4.6,22.2-4.4c-0.4,1-1.2,2.3-2.1,3.8c-0.8,1.2-1.7,2.4-2.6,3.7
								c-3.6,5-8.1,10-9.5,10.4"/>
							<path class="st10" d="M156.4,26.7c0,0,0.3,0.9,0.8,2.2s1.1,3,1.6,4.5c0.5,1.7,1,3.2,0.9,3.6"/>
							<path class="st10" d="M154.9,39c1.6-0.6,3.2-1.1,4.9-1.5c4.2-1,8.4-1.1,13.4-1.2c6.9-0.1,19.1,0.3,29.6,0.9"/>
							<path class="st10" d="M159,23L159,23c10.9-3.6,23.2-6.7,37.5-3.6c9.8,2.1,20.9,5.4,26.9,7.2c2.6,0.8,4.2,1.3,4.2,1.3"/>
							<path class="st10" d="M157.2,28.9c0,0,18.8-4.6,29.7-4.1c10.9,0.6,27.1,4.6,29.8,6.4"/>
							<path class="st10" d="M158.8,33.5c13.1-2.8,20.9-3.6,28.2-3.6c7.2,0,20.7,3,23,3.6"/>
							<path class="st10" d="M141.3,15.3c5.8-2.3,11.5-4.4,17.4-6.6c13.4-4.8,31.7-4.9,44.2,3c7.1,4.4,13.7,9.8,20.5,14.7"/>
							<polyline class="st10" points="93.2,35.6 93.2,39.4 93.2,42.5 93.2,44.1 93.2,56.5 93.2,63 							"/>
							<polyline class="st10" points="90.9,41.2 90.4,46 88.8,62 							"/>
							<polyline class="st10" points="87.7,39.6 87.1,43 86.1,48.8 83.8,62.1 							"/>
							<path class="st10" d="M87.8,43.1c0,0,1.1-0.8,2.9-2c0.7-0.5,1.5-1.1,2.4-1.7c5.7-4.1,14.5-10.8,18.6-15.8"/>
							<path class="st10" d="M92.1,43.4c0,0,0.4-0.3,1.1-0.9c4.2-3.3,19.5-15.7,23.3-20.3c0.2-0.3,0.4-0.5,0.5-0.7"/>
							<path class="st10" d="M107.7,24.6c0,0-7.6,5.9-14.6,11c-1.9,1.4-3.8,2.8-5.5,3.9c-2.3,1.6-4.1,2.8-5,3.2l0,0"/>
							<line class="st10" x1="274.3" y1="108.9" x2="275.4" y2="124.1"/>
						</g>
					</g>
				</g>
			</g>
		</g>
	</g>
</g>
</svg>
