<?xml version="1.0" encoding="utf-8"?>
<!-- Generator: Adobe Illustrator 27.9.0, SVG Export Plug-In . SVG Version: 6.00 Build 0)  -->
<svg version="1.1" id="レイヤー_1" xmlns="http://www.w3.org/2000/svg" xmlns:xlink="http://www.w3.org/1999/xlink" x="0px"
	 y="0px" viewBox="0 0 272.9 175.8" style="enable-background:new 0 0 272.9 175.8;" xml:space="preserve">
<style type="text/css">
	.st0{fill:#F3EDD7;}
	.st1{fill:#333333;}
	.st2{fill:#D2D296;}
	.st3{fill:none;stroke:#000000;stroke-miterlimit:10;}
	.st4{clip-path:url(#SVGID_00000152260562565307696850000015114690518190665109_);}
	.st5{fill:#F6342A;}
	.st6{fill:#F9EDD3;}
	.st7{fill:#F3D386;}
	.st8{fill:#A986A7;}
	.st9{fill:#F7F1D7;}
	.st10{fill:none;stroke:#000000;stroke-linecap:round;stroke-linejoin:round;}
	.st11{fill:none;stroke:#000000;stroke-width:0.5;stroke-linecap:round;stroke-linejoin:round;}
</style>
<g id="_畳">
	<g>
		<g>
			<rect x="0.2" y="141.1" class="st0" width="3.6" height="5"/>
			<path class="st0" d="M270,168.7v6.6h-30.4l15.4-8.6c1,1.6,3.1,2.7,5.5,2.7s4.6-1.2,5.6-2.9L270,168.7L270,168.7z"/>
			<path class="st0" d="M270,158.1v10.6l-4-2.2c0.4-0.6,0.6-1.4,0.6-2.1c0-1.3-0.6-2.5-1.6-3.4L270,158.1L270,158.1z"/>
			<path class="st0" d="M270,146.1v12l-5,2.8c-1.1-1-2.8-1.6-4.6-1.6s-3.3,0.6-4.4,1.5l-26.1-14.7H270L270,146.1z"/>
			<polygon class="st0" points="270,67.3 270,73.1 1.1,73.1 0.2,73.1 0.2,67.3 			"/>
			<rect x="266.1" y="141.1" class="st0" width="4" height="5"/>
			<path class="st0" d="M266.7,164.3c0,0.8-0.2,1.5-0.6,2.1l-5.4-3.1l4.4-2.5C266.1,161.8,266.7,163,266.7,164.3L266.7,164.3z"/>
			<path class="st0" d="M260.7,163.4l5.4,3.1c-1,1.7-3.1,2.9-5.6,2.9s-4.5-1.1-5.5-2.7L260.7,163.4L260.7,163.4z"/>
			<rect x="254.8" y="141.1" class="st1" width="11.3" height="5"/>
			<path class="st0" d="M265.1,160.9l-4.4,2.5l-4.6-2.6c1.1-0.9,2.7-1.5,4.4-1.5C262.3,159.3,263.9,159.9,265.1,160.9L265.1,160.9z"
				/>
			<path class="st0" d="M260.7,163.4l-5.7,3.2c-0.4-0.7-0.7-1.5-0.7-2.3c0-1.4,0.7-2.6,1.8-3.5L260.7,163.4L260.7,163.4z"/>
			<path class="st0" d="M229.9,146.1l26.1,14.7c-1.1,0.9-1.8,2.1-1.8,3.5c0,0.8,0.2,1.6,0.7,2.3l-15.4,8.6h-41.5l-15.6-8.8
				c0.4-0.6,0.6-1.4,0.6-2.1c0-1.3-0.6-2.5-1.6-3.4l26.3-14.8L229.9,146.1L229.9,146.1z M224,164.3c0-2.8-2.2-5-5-5s-5,2.2-5,5
				s2.2,5,5,5S224,167.1,224,164.3z"/>
			<polygon class="st0" points="254.8,146.1 229.9,146.1 224.2,146.1 224.2,141.1 254.8,141.1 			"/>
			<rect x="212.9" y="141.1" class="st1" width="11.3" height="5"/>
			<path class="st1" d="M219,159.3c2.8,0,5,2.2,5,5s-2.2,5-5,5s-5-2.2-5-5S216.2,159.3,219,159.3z"/>
			<path class="st0" d="M207.8,146.1l-26.3,14.8c-1.1-1-2.8-1.6-4.6-1.6s-3.3,0.6-4.4,1.5l-26.1-14.7H207.8L207.8,146.1z"/>
			<polygon class="st0" points="182.4,146.1 182.4,141.1 212.9,141.1 212.9,146.1 207.8,146.1 			"/>
			<path class="st0" d="M198.1,175.2H156l15.4-8.6c1,1.6,3.1,2.7,5.5,2.7s4.6-1.2,5.6-2.9L198.1,175.2L198.1,175.2z"/>
			<path class="st0" d="M183.1,164.3c0,0.8-0.2,1.5-0.6,2.1l-5.4-3.1l4.4-2.5C182.5,161.8,183.1,163,183.1,164.3L183.1,164.3z"/>
			<path class="st0" d="M177.1,163.4l5.4,3.1c-1,1.7-3.1,2.9-5.6,2.9s-4.5-1.1-5.5-2.7L177.1,163.4L177.1,163.4z"/>
			<rect x="171.1" y="141.1" class="st1" width="11.3" height="5"/>
			<path class="st0" d="M176.9,159.3c1.8,0,3.4,0.6,4.6,1.6l-4.4,2.5l-4.6-2.6C173.6,159.9,175.1,159.3,176.9,159.3L176.9,159.3z"/>
			<path class="st0" d="M177.1,163.4l-5.7,3.2c-0.4-0.7-0.7-1.5-0.7-2.3c0-1.4,0.7-2.6,1.8-3.5L177.1,163.4L177.1,163.4z"/>
			<path class="st0" d="M146.4,146.1l26.1,14.7c-1.1,0.9-1.8,2.1-1.8,3.5c0,0.8,0.2,1.6,0.7,2.3l-15.4,8.6h-41.5l-15.6-8.8
				c0.4-0.6,0.6-1.4,0.6-2.1c0-1.3-0.6-2.5-1.6-3.4l26.3-14.8L146.4,146.1L146.4,146.1z M139.4,164.3c0-2.8-2.2-5-5-5s-5,2.2-5,5
				s2.2,5,5,5S139.4,167.1,139.4,164.3z"/>
			<polygon class="st0" points="171.1,146.1 146.4,146.1 140.6,146.1 140.6,141.1 171.1,141.1 			"/>
			<rect x="129.3" y="141.1" class="st1" width="11.3" height="5"/>
			<path class="st1" d="M134.3,159.3c2.8,0,5,2.2,5,5s-2.2,5-5,5s-5-2.2-5-5S131.6,159.3,134.3,159.3z"/>
			<path class="st0" d="M124.2,146.1l-26.3,14.8c-1.1-1-2.8-1.6-4.6-1.6s-3.3,0.6-4.4,1.5l-26.1-14.7H124.2L124.2,146.1z"/>
			<polygon class="st0" points="129.3,146.1 124.2,146.1 98.8,146.1 98.8,141.1 129.3,141.1 			"/>
			<path class="st0" d="M114.6,175.2H72.4l15.3-8.6c1,1.6,3.1,2.7,5.5,2.7s4.6-1.2,5.6-2.9L114.6,175.2L114.6,175.2z"/>
			<path class="st0" d="M99.5,164.3c0,0.8-0.2,1.5-0.6,2.1l-5.4-3.1l4.4-2.5C98.9,161.8,99.5,163,99.5,164.3L99.5,164.3z"/>
			<path class="st0" d="M93.5,163.4l5.4,3.1c-1,1.7-3.1,2.9-5.6,2.9s-4.5-1.1-5.5-2.7C87.8,166.6,93.5,163.4,93.5,163.4z"/>
			<rect x="87.5" y="141.1" class="st1" width="11.3" height="5"/>
			<path class="st0" d="M93.3,159.3c1.8,0,3.4,0.6,4.6,1.6l-4.4,2.5l-4.6-2.6C90,159.9,91.6,159.3,93.3,159.3L93.3,159.3z"/>
			<path class="st0" d="M93.5,163.4l-5.7,3.2c-0.4-0.7-0.7-1.5-0.7-2.3c0-1.4,0.7-2.6,1.8-3.5L93.5,163.4L93.5,163.4z"/>
			<path class="st0" d="M62.8,146.1l26.1,14.7c-1.1,0.9-1.8,2.1-1.8,3.5c0,0.8,0.2,1.6,0.7,2.3l-15.3,8.6H30.8l-15.6-8.8
				c0.4-0.6,0.6-1.4,0.6-2.1c0-1.3-0.6-2.5-1.6-3.4l26.3-14.8L62.8,146.1L62.8,146.1z M54.2,164.3c0-2.8-2.2-5-5-5s-5,2.2-5,5
				s2.2,5,5,5S54.2,167.1,54.2,164.3z"/>
			<polygon class="st0" points="87.5,146.1 62.8,146.1 57,146.1 57,141.1 87.5,141.1 			"/>
			<rect x="45.7" y="141.1" class="st1" width="11.3" height="5"/>
			<path class="st1" d="M49.2,159.3c2.8,0,5,2.2,5,5s-2.2,5-5,5s-5-2.2-5-5S46.5,159.3,49.2,159.3z"/>
			<polygon class="st0" points="45.7,146.1 40.4,146.1 15.2,146.1 15.2,141.1 45.7,141.1 			"/>
			<path class="st0" d="M30.8,175.2H0.2v-6.5l3.8-2.1c1,1.6,3.1,2.7,5.5,2.7s4.6-1.2,5.6-2.9L30.8,175.2L30.8,175.2z"/>
			<path class="st0" d="M15.7,164.3c0,0.8-0.2,1.5-0.6,2.1l-5.4-3.1l4.4-2.5C15.1,161.8,15.7,163,15.7,164.3L15.7,164.3z"/>
			<rect x="3.9" y="141.1" class="st1" width="11.3" height="5"/>
			<path class="st0" d="M9.7,163.4l5.4,3.1c-1,1.7-3.1,2.9-5.6,2.9S5,168.2,4,166.6L9.7,163.4z"/>
			<path class="st0" d="M9.5,159.3c1.8,0,3.4,0.6,4.6,1.6l-4.4,2.5l-4.6-2.6C6.2,159.9,7.8,159.3,9.5,159.3L9.5,159.3z"/>
			<path class="st0" d="M9.7,163.4L4,166.6c-0.4-0.7-0.7-1.5-0.7-2.3c0-1.4,0.7-2.6,1.8-3.5L9.7,163.4L9.7,163.4z"/>
			<path class="st0" d="M0.2,158.1l4.8,2.7c-1.1,0.9-1.8,2.1-1.8,3.5c0,0.8,0.2,1.6,0.7,2.3l-3.8,2.1L0.2,158.1L0.2,158.1z"/>
			<polygon class="st2" points="212.9,141.1 182.4,141.1 171.1,141.1 140.6,141.1 129.3,141.1 98.8,141.1 87.5,141.1 57,141.1 
				45.7,141.1 15.2,141.1 3.9,141.1 0.2,141.1 0.2,73.1 1.1,73.1 270,73.1 270,141.1 266.1,141.1 254.8,141.1 224.2,141.1 			"/>
			<path class="st0" d="M0.2,146.1h40.2l-26.3,14.8c-1.1-1-2.8-1.6-4.6-1.6s-3.3,0.6-4.4,1.5l-4.8-2.7L0.2,146.1L0.2,146.1z"/>
		</g>
		<g>
			<polyline class="st3" points="270,175.2 239.6,175.2 198.1,175.2 156,175.2 114.6,175.2 72.4,175.2 30.8,175.2 0.2,175.2 			"/>
			<line class="st3" x1="0.2" y1="67.3" x2="270" y2="67.3"/>
			<line class="st3" x1="0.2" y1="73.1" x2="270" y2="73.1"/>
			<line class="st3" x1="266.1" y1="141.1" x2="270" y2="141.1"/>
			<line class="st3" x1="224.2" y1="141.1" x2="254.8" y2="141.1"/>
			<line class="st3" x1="182.4" y1="141.1" x2="212.9" y2="141.1"/>
			<line class="st3" x1="140.6" y1="141.1" x2="171.1" y2="141.1"/>
			<line class="st3" x1="98.8" y1="141.1" x2="129.3" y2="141.1"/>
			<line class="st3" x1="57" y1="141.1" x2="87.5" y2="141.1"/>
			<line class="st3" x1="15.2" y1="141.1" x2="45.7" y2="141.1"/>
			<line class="st3" x1="0.2" y1="141.1" x2="3.9" y2="141.1"/>
			<line class="st3" x1="266.1" y1="146.1" x2="270" y2="146.1"/>
			<polyline class="st3" points="224.2,146.1 229.9,146.1 254.8,146.1 			"/>
			<polyline class="st3" points="182.4,146.1 207.8,146.1 212.9,146.1 			"/>
			<polyline class="st3" points="140.6,146.1 146.4,146.1 171.1,146.1 			"/>
			<polyline class="st3" points="98.8,146.1 124.2,146.1 129.3,146.1 			"/>
			<polyline class="st3" points="57,146.1 62.8,146.1 87.5,146.1 			"/>
			<polyline class="st3" points="15.2,146.1 40.4,146.1 45.7,146.1 			"/>
			<line class="st3" x1="0.2" y1="146.1" x2="3.9" y2="146.1"/>
			<polyline class="st3" points="72.4,175.2 87.8,166.6 93.5,163.4 97.9,160.9 124.2,146.1 			"/>
			<polyline class="st3" points="114.6,175.2 98.9,166.5 93.5,163.4 88.9,160.8 62.8,146.1 			"/>
			<path class="st3" d="M139.3,164.3c0,2.8-2.2,5-5,5s-5-2.2-5-5s2.2-5,5-5S139.3,161.5,139.3,164.3z"/>
			<path class="st3" d="M224,164.3c0,2.8-2.2,5-5,5s-5-2.2-5-5s2.2-5,5-5S224,161.5,224,164.3z"/>
			<path class="st3" d="M97.9,160.9c1,0.9,1.6,2.1,1.6,3.4c0,0.8-0.2,1.5-0.6,2.1c-1,1.7-3.1,2.9-5.6,2.9s-4.5-1.1-5.5-2.7
				c-0.4-0.7-0.7-1.5-0.7-2.3c0-1.4,0.7-2.6,1.8-3.5c1.1-0.9,2.7-1.5,4.4-1.5C95.1,159.3,96.7,159.9,97.9,160.9L97.9,160.9z"/>
			<polyline class="st3" points="0.2,168.7 4,166.6 9.7,163.4 14.1,160.9 40.4,146.1 			"/>
			<polyline class="st3" points="30.8,175.2 15.1,166.5 9.7,163.4 5.1,160.8 0.2,158.1 			"/>
			<path class="st3" d="M14.1,160.9c1,0.9,1.6,2.1,1.6,3.4c0,0.8-0.2,1.5-0.6,2.1c-1,1.7-3.1,2.9-5.6,2.9S5,168.2,4,166.6
				c-0.4-0.7-0.7-1.5-0.7-2.3c0-1.4,0.7-2.6,1.8-3.5c1.1-0.9,2.7-1.5,4.4-1.5C11.3,159.3,13,159.9,14.1,160.9L14.1,160.9z"/>
			<polyline class="st3" points="156,175.2 171.4,166.6 177.1,163.4 181.5,160.9 207.8,146.1 			"/>
			<polyline class="st3" points="198.1,175.2 182.5,166.5 177.1,163.4 172.4,160.8 146.4,146.1 			"/>
			<path class="st3" d="M181.5,160.9c1,0.9,1.6,2.1,1.6,3.4c0,0.8-0.2,1.5-0.6,2.1c-1,1.7-3.1,2.9-5.6,2.9s-4.5-1.1-5.5-2.7
				c-0.4-0.7-0.7-1.5-0.7-2.3c0-1.4,0.7-2.6,1.8-3.5c1.1-0.9,2.7-1.5,4.4-1.5C178.7,159.3,180.3,159.9,181.5,160.9L181.5,160.9z"/>
			<polyline class="st3" points="239.6,175.2 254.9,166.6 260.7,163.4 265.1,160.9 270,158.1 			"/>
			<polyline class="st3" points="270,168.7 266.1,166.5 260.7,163.4 256,160.8 229.9,146.1 			"/>
			<path class="st3" d="M265.1,160.9c1,0.9,1.6,2.1,1.6,3.4c0,0.8-0.2,1.5-0.6,2.1c-1,1.7-3.1,2.9-5.6,2.9s-4.5-1.1-5.5-2.7
				c-0.4-0.7-0.7-1.5-0.7-2.3c0-1.4,0.7-2.6,1.8-3.5c1.1-0.9,2.7-1.5,4.4-1.5C262.3,159.3,263.9,159.9,265.1,160.9L265.1,160.9z"/>
			<path class="st3" d="M54.2,164.3c0,2.8-2.2,5-5,5s-5-2.2-5-5s2.2-5,5-5S54.2,161.5,54.2,164.3z"/>
			<rect x="3.9" y="141.1" class="st3" width="11.3" height="5"/>
			<rect x="45.7" y="141.1" class="st3" width="11.3" height="5"/>
			<rect x="87.5" y="141.1" class="st3" width="11.3" height="5"/>
			<rect x="129.3" y="141.1" class="st3" width="11.3" height="5"/>
			<rect x="171.1" y="141.1" class="st3" width="11.3" height="5"/>
			<rect x="212.9" y="141.1" class="st3" width="11.3" height="5"/>
			<rect x="254.8" y="141.1" class="st3" width="11.3" height="5"/>
		</g>
	</g>
</g>
<g id="_レイヤー_2">
	<g>
		<defs>
			<polygon id="SVGID_1_" points="270.4,153.5 14.4,153.5 12,-7.9 270,-7.9 			"/>
		</defs>
		<clipPath id="SVGID_00000044142097055455271560000014484908943172223396_">
			<use xlink:href="#SVGID_1_"  style="overflow:visible;"/>
		</clipPath>
		<g style="clip-path:url(#SVGID_00000044142097055455271560000014484908943172223396_);">
			<g>
				<g>
					<path class="st5" d="M272.5,115.8v7.1c0,0-9.1,6.4-11.3,7c-0.9,0.2-2.1-0.3-3.3-1.3l0,0c-1.9-1.6-3.9-4.5-4.4-7.9
						c-0.4-1,0.3-3.7-6.4,0.2c-2.3,1.4-4.6,3.5-6.6,5.8c-3.2,3.6-6,7.6-7.8,9.9c-0.3,0.4-0.6,0.8-0.9,1.1c-2.6,2.9-5.5,7-7.2,7
						s-4.4-2.1-7.2-3.9c-0.5-0.3-1-0.5-1.4-0.7c2.6-1.3,1.2-13.5,1.2-13.5l0,0c11.1-3.6,32.2-12,36.6-12.6c5.4-0.7,13.3-0.4,16,0.7
						L272.5,115.8L272.5,115.8z"/>
					<path class="st6" d="M271.4,100.9l1.1,15l-2.7-1.1c-2.7-1.1-10.6-1.5-16-0.7c-4.3,0.6-25.4,9-36.6,12.6
						c-2.7,0.9-4.8,1.5-5.9,1.6c-0.9,0.1-1.9,0.2-2.9,0.2v-0.2c-3.1-1.1-5.1-5.9-6.5-11.2c7.3,0.3,11.4,1.4,18.6-1
						c7.2-2.4,22.9-8.6,29.1-10.7c6.2-2.1,20.2-4.4,20.2-4.4L271.4,100.9L271.4,100.9z"/>
					<path class="st7" d="M271.4,97.4v3.5h-1.6c0,0-13.9,2.4-20.2,4.4c-6.2,2.1-21.9,8.3-29.1,10.7c-7.2,2.4-11.3,1.3-18.6,1
						c-0.3-1.4-0.7-2.8-0.9-4.2l0,0c0,0,5.3,0.7,9.6,0.2c4.3-0.5,15.3-2,20.9-4.6c5.6-2.6,17.8-8.2,24.5-9.2
						C262.7,98.2,271.3,97.4,271.4,97.4L271.4,97.4z"/>
					<path class="st7" d="M271.4,94.3v3.1c0,0-8.7,0.9-15.4,1.9c-6.7,1-18.9,6.7-24.5,9.2c-5.6,2.6-16.6,4-20.9,4.6
						c-4.3,0.5-9.6-0.2-9.6-0.2l0,0c-0.3-1.6-0.5-3.1-0.7-4.5c0,0,9.4,1,15.7,0s19.2-4.8,28-9C252.8,95,269.4,94.2,271.4,94.3
						L271.4,94.3z"/>
					<path class="st8" d="M271.4,93.1v1.2c-2-0.1-18.6,0.7-27.4,5s-21.7,8-28,9c-6.3,1-15.7,0-15.7,0c-0.4-3-0.6-5.5-0.7-6.8
						c0-0.5-0.1-0.9-0.1-1.3l0,0c0,0,18.2-5.9,27.3-6.5C235.8,93.2,262,91.2,271.4,93.1L271.4,93.1z"/>
					<path class="st6" d="M271.4,85.9v7.2c-9.3-1.8-35.6,0.1-44.6,0.7c-9.1,0.6-27.3,6.5-27.3,6.5l0,0c-0.3-2.8-1-4.3-3-5.1
						c1.6-1.2,16.7-5.8,27.8-7.2C235.4,86.5,263.9,84.8,271.4,85.9L271.4,85.9z"/>
					<path class="st6" d="M271.4,74.4v11.5c-7.5-1.1-35.9,0.6-47.1,2.1c-11.1,1.5-26.2,6-27.8,7.2c-0.6-0.2-1.3-0.4-2.1-0.5
						c-1-0.1-2-0.3-3.2-0.4c-3.2-0.3-7.4-0.6-15.9-0.5c-0.7-0.7-1.5-1.3-2.2-1.9c14.9-6.6,35.4-13.7,56.2-16.6S270,73.4,271.4,74.4
						L271.4,74.4z"/>
					<path class="st6" d="M271.4,58.9v15.4c-1.4-1-21.1-2-41.9,1s-41.4,10-56.2,16.6l0,0c-2.3-1.9-4.8-3.2-9.3-3.7
						c15.4-8,38.1-17.5,60.9-22.7C247.5,60.4,271.4,58.9,271.4,58.9z"/>
					<path class="st6" d="M271.4,37.4v21.5c0,0-23.8,1.5-46.6,6.6c-22.8,5.1-45.5,14.7-60.9,22.7c-1.7-0.2-3.7-0.3-6-0.3
						c-4,0.1-8.9,0.6-13.7,1.2c0,0-0.4-0.5-1-1.2c19.4-10,34.2-19.3,48.8-24.3c14.5-5.1,48.5-12.1,59.1-11.7c3.4-2.3,4.6-3,4.9-3.2
						c0.1-0.1,0.1-0.1,0.1-0.1c0.3-0.2,0.6-0.4,1-0.8C260.4,44.5,268.5,37.9,271.4,37.4L271.4,37.4z"/>
					<path class="st5" d="M252.6,129.5c-5.8-0.1-12.1-2.7-12.1-2.7c2.1-2.3,4.3-4.4,6.6-5.8c6.6-3.9,6-1.2,6.4-0.2
						c0.5,3.4,2.5,6.3,4.4,7.9C256.4,129.3,254.5,129.5,252.6,129.5L252.6,129.5z"/>
					<path class="st6" d="M254.1,41.4c0.3,3.5-0.3,8.2,1.8,7.2c-0.3,0.2-1.5,0.9-4.9,3.2c-10.6-0.3-44.5,6.7-59.1,11.7
						c-14.5,5.1-29.4,14.3-48.8,24.3c-1.2-1.5-3.1-4-4.4-6c0,0,13.9-10.4,25.9-16.9c12.1-6.5,38.3-18.2,52.4-20.5
						c14-2.3,22.3-2.3,22.3-2.3c3.4-2.6,4.4-5.5,8.8-7.3c1.3-0.4,2.2-0.7,2.6-0.7C252.3,34.1,253.7,37.3,254.1,41.4L254.1,41.4z"/>
					<path class="st5" d="M240.5,126.7c0,0,6.3,2.6,12.1,2.7c-6.9,6.4-19.9,7.2-19.9,7.2C234.6,134.3,237.3,130.3,240.5,126.7z"/>
					<path class="st6" d="M238.5,37.4c2.7-0.4,6.9-1.7,9.7-2.5c-4.4,1.8-5.4,4.7-8.8,7.3L238.5,37.4L238.5,37.4z"/>
					<path class="st6" d="M238.5,37.4l0.9,4.8c0,0-8.3,0-22.3,2.3c-14,2.3-40.3,14-52.4,20.5C152.6,71.6,138.7,82,138.7,82
						c-0.4-0.6-0.8-1.2-1-1.7c-1.3-2.7-3.5-9.1-3.6-9.5c0,0,0,0,0,0s11.2-6.4,17.6-10.8c4.4-3,25.4-18.8,48.9-30.1
						c2.4-1.1,4.8-2.2,7.3-3.3c2.2-0.9,4.3-1.8,6.5-2.6c3.6-1.3,7.3-2.5,10.8-3.4c2.3-0.6,4.6-1.1,6.8-1.5
						c1.8,11.8,2.3,17.4,4.2,18.3C236.7,37.6,237.5,37.6,238.5,37.4L238.5,37.4z"/>
					<path class="st7" d="M221,19.3c2.6,0.8,4.2,1.3,4.2,1.3c-3.6,0.9-7.2,2.1-10.8,3.4c-2.7-1.7-18.7-5.8-29.5-6.3
						c-10.8-0.6-29.4,4.1-29.4,4.1c-0.5-1.3-0.8-2.2-0.8-2.2c0.9-1.3,1.8-2.5,2.6-3.7c10.8-3.6,23-6.6,37.1-3.6
						C204.1,14.4,215.1,17.6,221,19.3L221,19.3z"/>
					<path class="st5" d="M217.2,126.6c0,0,1.4,12.3-1.2,13.5c-2.2-0.6-4.6,0.6-10.2-0.1c-6.7-0.9-26-4.4-31.6-8.9
						c4.1-1.8,8-3.7,11-5.5c9.3,1.3,17.3,2.7,23.2,2.6c1.1,0,2-0.1,2.9-0.2C212.5,128.1,214.6,127.5,217.2,126.6L217.2,126.6
						L217.2,126.6z"/>
					<path class="st5" d="M200.6,4.8c7,4.4,13.6,9.7,20.3,14.5c-5.9-1.8-16.9-4.9-26.6-7.1c-14-3.1-26.3,0-37.1,3.6
						c0.9-1.5,1.7-2.8,2.1-3.8c-2.4-0.2-22,4.4-22,4.4c0.8-2.3,1.6-5,1.5-6.5h-0.2c0.4-0.4,0.8-1,1-1.7c5.7-2.3,11.4-4.4,17.2-6.5
						C170.3-2.9,188.4-3,200.6,4.8L200.6,4.8z"/>
					<path class="st7" d="M214.4,24c-2.2,0.8-4.3,1.7-6.5,2.6l-0.1-0.3c-2.3-0.6-15.7-3.6-22.8-3.6c-7.1,0-14.9,0.8-27.9,3.6l0,0
						c-0.5-1.5-1.1-3.2-1.6-4.5c0,0,18.6-4.6,29.4-4.1C195.7,18.2,211.7,22.3,214.4,24z"/>
					<path class="st6" d="M208.4,128.2v0.2c-5.9,0.1-13.9-1.4-23.2-2.6c0,0-4.1-1.1-9.8-3.1c6-3.1,11.8-7.2,12.3-12.1
						c0,0-1.2-1.9-3-4.6c-0.5-0.8-1.1-1.6-1.6-2.4c-0.1-0.2-0.3-0.4-0.5-0.7c0,0,8.6-7.4,8.6-8.7c1.1,0.1,2.2,0.2,3.2,0.4
						c0.8,0.1,1.5,0.3,2.1,0.5c1.9,0.8,2.6,2.3,3,5.1c0.1,0.4,0.1,0.8,0.1,1.3c0.1,1.3,0.3,3.8,0.7,6.8c0.2,1.4,0.4,3,0.7,4.5
						c0.3,1.4,0.6,2.8,0.9,4.2C203.2,122.3,205.3,127.1,208.4,128.2L208.4,128.2z"/>
					<path class="st7" d="M207.7,26.3l0.1,0.3c-2.4,1-4.9,2.1-7.3,3.3c-10.4-0.6-22.4-1-29.3-0.9c-5,0.1-9.1,0.2-13.3,1.2l-0.1-0.3
						c0.1-0.5-0.3-1.9-0.9-3.6l0,0c13-2.8,20.7-3.6,27.9-3.6C192.1,22.7,205.5,25.6,207.7,26.3L207.7,26.3z"/>
					<path class="st6" d="M191.3,94.3c0,1.3-8.6,8.7-8.6,8.7c-0.5-0.7-1-1.4-1.5-2.1c-2.1-2.9-4.2-5.7-5.8-7.1
						C183.9,93.7,188.1,94,191.3,94.3L191.3,94.3z"/>
					<path class="st5" d="M187.7,110.6c-0.5,4.9-6.3,9-12.3,12.1c0,0-2.5,0.7-6.7,1.8c-1.5,0.4-3.1,0.4-4.7,0.1
						c-0.6-0.1-1.3-0.3-1.9-0.5l0,0c-2.5-0.9-5.2-2.6-7.9-5c5.4-1.8,12.2-3.6,16-4.1C175.1,114.3,187.7,110.6,187.7,110.6
						L187.7,110.6z"/>
					<path class="st7" d="M142.6,122.8c-0.3,0.1-0.6,0.1-0.9,0.1c-5.1,0.7-10.7,0.8-13.1,0.4c0,0,0.1-1.3,0-3.1
						c0-0.2-0.1-0.4-0.2-0.6c8.8-0.6,17.4-2.3,24-4.7c6.7-2.4,14.9-5.5,19.6-6.5s12.8-2.4,12.8-2.4c1.7,2.6,3,4.6,3,4.6
						s-12.6,3.8-17.6,4.4c-3.7,0.5-10.6,2.2-16,4.1c-1.9,0.7-3.6,1.3-4.9,1.9C147.5,121.8,145.1,122.3,142.6,122.8L142.6,122.8z"/>
					<path class="st7" d="M183.1,103.6c0.6,0.8,1.1,1.7,1.6,2.4c0,0-8.1,1.4-12.8,2.4s-13,4.1-19.6,6.5c-6.7,2.4-15.2,4.1-24,4.7
						c-1.1-1.6-6-3.4-7.6-4c-0.1,0-0.2-0.1-0.2-0.1l0,0c0,0,6.6,1.1,17,0c10.4-1.1,23.6-6.6,27.6-8.1
						C169,105.9,180.4,103.4,183.1,103.6L183.1,103.6z"/>
					<path class="st8" d="M181.1,100.9c0.5,0.7,1,1.4,1.5,2.1c0.2,0.2,0.3,0.4,0.5,0.7c-2.7-0.2-14.1,2.3-18.1,3.8
						c-4,1.5-17.2,7-27.6,8.1c-10.4,1.1-17,0-17,0l0,0c-0.5-0.2-0.9-0.2-1.4-0.1c-0.1,0-0.1,0-0.2,0c0,0,0,0,0,0
						c-1.1,0.2-3.6,0-5.8-0.2c-2.2-0.2-4.2-0.5-4.2-0.5s-11.5,13.5-13.2,13.5c-0.4-0.3-0.8-0.5-1.2-0.8c-2.4-1.6-4.4-3.5-5.9-5.1
						c-1.5-1.6-2.5-3-3-4c-1.3-2.4-2.8-6.7-3.5-10.4c-0.3-1.3-0.4-2.6-0.4-3.6c0-2,0.2-4.6,0.9-7.1l0,0c0.4-1.4,0.9-2.8,1.7-4.1l0,0
						c0.7-1.2,1.6-2.2,2.7-3c0.6-0.4,1.5-1,2.6-1.8c2.7-1.8,6.8-4.5,10.8-7.1c0.5-4.6,5.9-17.2,5.9-17.2c0.6-0.4,1.2-0.8,1.6-1.1
						c5.8-3.8,16.8-8.2,20.7-9.9c1.6-0.7,2.7-1.3,3.4-1.8c0,0,0.7,5.4,1.4,11.4c0.3,2.8,0.6,5.8,0.9,8.3c0,0,0,0,0,0
						c0.2,2.4,0.4,4.5,0.4,5.8c0,5.6-0.1,13.7-0.1,13.9c3.1-0.4,6.4-0.9,9.7-1.3c4.9-0.6,9.7-1.1,13.7-1.2c2.4,0,4.3,0.1,6,0.3
						c4.5,0.5,7,1.8,9.3,3.7l0,0c0.7,0.6,1.4,1.2,2.2,1.9C176.9,95.2,179.1,98,181.1,100.9L181.1,100.9z"/>
					<path class="st5" d="M175.4,122.7c5.8,2,9.8,3.1,9.8,3.1c-3,1.7-6.9,3.7-11,5.5c-6.7,2.9-14.1,5.5-20,6.4
						c-9.5,1.5-20.6,0-20.6,0l0,0c1.3-2,2.6-4.2,3.7-6.2c0,0,10.7,0.1,14.9-1.4s9.6-2.8,11.6-5.6c1.7,0.3,3.2,0.3,4.7-0.1
						C172.9,123.3,175.4,122.7,175.4,122.7L175.4,122.7z"/>
					<path class="st8" d="M171.4,29c6.8-0.1,18.9,0.3,29.3,0.9c-23.5,11.2-44.4,27.1-48.9,30.1c-6.4,4.3-17.6,10.8-17.6,10.8
						c-0.2-2.6-0.5-5.5-0.9-8.3l0.1,0c0.6-1.9,5.2-7.3,9.7-13.8L147,51l3.9-7.4l2.3-4.3l3-5.7c-1.3-0.5-2.7-1-4.2-1.5l1.1-0.4
						c1.6-0.6,3.2-1.1,4.8-1.5C162.2,29.2,166.4,29,171.4,29L171.4,29z"/>
					<path class="st5" d="M162,124c0.7,0.2,1.3,0.4,1.9,0.5c-2,2.8-7.4,4.2-11.6,5.6c-4.3,1.5-14.9,1.4-14.9,1.4
						c2.5-4.6,4.3-8.6,4.3-8.6c0.3,0,0.6-0.1,0.9-0.1c0.1,0.1,3.4,2.9,8.3,3C155.2,125.9,161.7,124.1,162,124L162,124L162,124z"/>
					<path class="st5" d="M157.3,15.8c-0.8,1.2-1.7,2.4-2.6,3.7c-3.6,4.9-8,9.9-9.4,10.3c-5-1.4-9.7-2.4-11.9-2.2
						c1-2.7,2.1-5.4,3-8.1c0.2-0.7,0.7-1.8,1.1-3.1c0,0,19.6-4.6,22-4.4C159,13,158.2,14.3,157.3,15.8L157.3,15.8z"/>
					<path class="st5" d="M154.1,119.1c2.7,2.4,5.4,4.1,7.9,5c-0.2,0.1-6.8,1.8-11.1,1.8c-4.9-0.1-8.2-2.8-8.3-3
						c2.6-0.4,5-1,6.6-1.8C150.5,120.4,152.2,119.7,154.1,119.1L154.1,119.1z"/>
					<path class="st5" d="M158,29.9l0.1,0.3c-1.6,0.4-3.1,0.8-4.8,1.5l-1.1,0.4c-2.2-0.8-4.6-1.5-6.9-2.2c1.4-0.5,5.8-5.5,9.4-10.3
						c0,0,0.3,0.9,0.8,2.2c0.5,1.3,1.1,3,1.6,4.5C157.6,27.9,158,29.4,158,29.9L158,29.9z"/>
					<path class="st7" d="M156.4,33.6l-3,5.7c0,0-7.4-2.7-10.7-3.8c-3.3-1.1-11.6-2.3-11.8-2.4c0.9-1.6,1.8-3.2,2.4-4.9
						c0.1-0.2,0.1-0.4,0.2-0.6c2.2-0.2,6.9,0.8,11.9,2.2c2.3,0.7,4.7,1.4,6.9,2.2C153.7,32.6,155.1,33.1,156.4,33.6L156.4,33.6z"/>
					<path class="st7" d="M153.3,39.3l-2.3,4.3c-7.1-4-21-6.3-22.3-6.5c0.6-1.4,1.3-2.7,2.1-4.1l0,0c0.2,0,8.5,1.2,11.8,2.4
						C145.9,36.6,153.3,39.3,153.3,39.3L153.3,39.3z"/>
					<path class="st7" d="M151,43.6l-3.9,7.4l-3.9-2.4c0.7-1,1.4-2,2.1-3.1c0.5-0.2-14.5-2.2-14.5-2.2l-0.1,0
						c-0.2-0.6-0.5-1.5-1-2.8c-0.2-0.5-0.8-2.2-1.1-3.1c0-0.1,0.1-0.1,0.1-0.2C129.9,37.4,143.8,39.6,151,43.6L151,43.6z"/>
					<path class="st8" d="M130.8,43.3c0,0,15,2.1,14.5,2.2c-0.7,1-1.4,2.1-2.1,3.1c-4.6,6.5-9.1,11.9-9.7,13.8l-0.1,0
						c-0.7-6-1.4-11.4-1.4-11.4c1-0.7,1.2-1.3,1.4-1.9c0.4-1,0-2.8-0.8-4.1c-0.2-0.4-0.5-0.6-1.4-0.4l0-0.1
						C131.1,44.5,131,44.1,130.8,43.3L130.8,43.3L130.8,43.3z"/>
					<path class="st8" d="M143.2,87.9c0.6,0.7,1,1.2,1,1.2c-3.3,0.4-6.6,0.9-9.7,1.3c0-0.3,0.1-8.3,0.1-13.9c0-1.3-0.1-3.4-0.4-5.8
						c0.1,0.4,2.4,6.8,3.6,9.5c0.2,0.5,0.6,1.1,1,1.7C140,84,142,86.5,143.2,87.9L143.2,87.9z"/>
					<path class="st8" d="M141.6,122.9c0,0-1.7,4-4.3,8.6c-1.1,2-2.4,4.2-3.7,6.2c-2.6,3.9-5.5,7.3-8.1,8.1
						c-2.5-0.1-3.6,0.1-4.8-0.8c-0.4-0.3-0.8-0.7-1.2-1.2c-2-2.3-8.8-11.7-8.8-11.7c7.2-1,14.3-6.4,17.8-8.9
						C130.9,123.7,136.5,123.6,141.6,122.9L141.6,122.9z"/>
					<path class="st1" d="M92.2,32v-3.7l0,0c-1.9,1.4-3.8,2.8-5.4,3.9c-2.3,1.6-4.1,2.8-4.9,3.2c-0.2-0.2-0.4-0.5-0.6-0.7
						c-2-2-3.8-4.2-6-5.5l0-0.1c2.3,1.1,43.6-28,48-31.9c3.8-3.4,9.7-3.2,13-1.2c3.3,2,4,6.6,4,9.5c0,0.7-0.2,1.7-0.6,2.7
						c-0.3,0.7-0.6,1.3-1,1.7c-0.6-0.2,0.2-2.9-0.2-2.8c-0.4,0.1-2.1-0.3-3.7-1.3c-1.6-1-2.8-2.7-3.6-4c-0.9-1.3-1.7-1.7-2.7-0.7
						c-1,1-3.2,1.7-3.7,2.3c-0.4,0.6-6.2,8.2-8.7,11.9l-0.7-0.3c-3.8,4.7-18.9,16.8-23.1,20.1L92.2,32L92.2,32z"/>
					<path class="st1" d="M128.7,37.2c0,0.1-0.1,0.1-0.1,0.2c-0.2,0.5-0.4,0.9-0.5,1.4c-1.4-1.8-2.8-3.7-3.1-6
						c-0.1-1.3,0.5-2.5,1.3-3.7c0.6-0.9,1.3-1.8,1.8-2.6l0,0c0.9-0.5,1.7-1.1,2.5-1.6c3.9-2.8,8.2-15,8.2-15h0.2
						c0.1,1.4-0.7,4.2-1.5,6.5c-0.4,1.3-0.8,2.4-1.1,3.1c-0.9,2.7-2,5.4-3,8.1c-0.1,0.2-0.2,0.4-0.2,0.6c-0.6,1.7-1.5,3.3-2.4,4.9
						l0,0C130,34.4,129.3,35.8,128.7,37.2L128.7,37.2z"/>
					<path class="st9" d="M135,16.7c0,0-0.1,0-0.1,0c-0.2,0-0.4,0.2-0.4,0.4s0.2,0.4,0.4,0.4s0.4-0.2,0.4-0.4
						C135.2,16.9,135.1,16.8,135,16.7C135,16.7,135,16.7,135,16.7L135,16.7z M126.6,12.3c-0.2,0-0.4,0.2-0.4,0.4s0.2,0.4,0.4,0.4
						c0.2,0,0.4-0.2,0.4-0.4c0-0.1-0.1-0.2-0.2-0.3l0,0C126.8,12.3,126.7,12.3,126.6,12.3L126.6,12.3L126.6,12.3z M115.9,28.7
						l-0.1,0.2c0,0-8.4,8.2-15.6,14.3L99,31.6l0,0c6.4-5.3,15-13.2,16.4-15.3c0.2-0.3,0.4-0.6,0.7-1c2.5-3.6,8.3-11.3,8.7-11.9
						c0.5-0.6,2.7-1.3,3.7-2.3c1-1,1.8-0.6,2.7,0.7c0.9,1.3,2,3.1,3.6,4c1.6,1,3.3,1.3,3.7,1.3c0.4-0.1-0.4,2.6,0.2,2.8
						c0,0-4.2,12.2-8.2,15c-0.7,0.5-1.6,1.1-2.5,1.6l0,0c-0.7,0.4-1.4,0.8-2.2,1.1c-1.4,0.6-3,1.1-4.6,1.3h0
						C119.6,29.2,117.8,29.1,115.9,28.7L115.9,28.7z M137.4,11.5c0.1-0.3-0.2-0.7-0.8-1c-0.6-0.3-1.2-0.3-1.3-0.1
						c-0.1,0.3,0.2,0.7,0.8,1C136.7,11.7,137.3,11.7,137.4,11.5z M130.1,7.6c0.1-0.3-0.3-0.7-0.9-1c-0.6-0.3-1.2-0.3-1.3,0
						c-0.1,0.3,0.3,0.7,0.9,1C129.4,7.9,130,7.9,130.1,7.6L130.1,7.6z M126.2,25.4l-0.7-0.7l-0.5-0.2c0,0,0-0.3-0.3-0.4
						c-0.3-0.2-2.5,0-2.5,0c0,0.1,0,0.2,0,0.3c0.2,1.3,0.8,2.7,3.2,1.5C125.7,25.7,126,25.6,126.2,25.4L126.2,25.4z"/>
					<path class="st1" d="M136.6,10.5c0.6,0.3,0.9,0.8,0.8,1c-0.1,0.3-0.7,0.3-1.3-0.1c-0.6-0.3-0.9-0.8-0.8-1
						C135.4,10.1,136,10.2,136.6,10.5z"/>
					<path d="M135.1,16.7c0.1,0.1,0.2,0.2,0.2,0.3c0,0.2-0.2,0.4-0.4,0.4c-0.2,0-0.4-0.2-0.4-0.4s0.2-0.4,0.4-0.4
						C134.9,16.7,134.9,16.7,135.1,16.7C135,16.7,135,16.7,135.1,16.7L135.1,16.7z"/>
					<path class="st6" d="M132.5,45c0.8,1.3,1.2,3.1,0.8,4.1c-0.2,0.6-0.5,1.2-1.4,1.9c-0.7,0.5-1.7,1.1-3.4,1.8
						c-3.9,1.7-14.9,6.1-20.7,9.9c-0.5,0.3-1,0.7-1.6,1.1c-5.6,3.7-17,11.5-17,11.5c-1.9-0.9-2.3-2.4-2.3-3.5c0-0.3,0-0.6,0.1-0.8
						c0,0,0.3-0.3,0.9-0.8c2.4-2.2,9.6-8.3,18.7-13.9c4.6-2.9,9.8-5.8,14.9-7.9c5.7-2.6,8.3-3.6,9.6-3.8
						C132,44.4,132.2,44.6,132.5,45L132.5,45z"/>
					<path class="st8" d="M131.1,44.5l0,0.1c-1.3,0.2-3.9,1.3-9.6,3.8c-5.1,2.1-10.3,5-14.9,7.9C97.5,62,90.3,68.1,87.9,70.3
						c-0.2-0.8-1.3-3.6-2.8-6.6l0.5,0c8.9-6.3,38.1-34.6,35.8-34.6c1.6-0.2,3.2-0.7,4.6-1.3c0,0,0.1,0.3,0.4,1.5
						c-0.8,1.2-1.4,2.4-1.3,3.7c0.2,2.3,1.7,4.2,3.1,6c0.1-0.5,0.3-1,0.5-1.4c0.3,0.9,0.9,2.7,1.1,3.1c0.4,1.3,0.7,2.2,1,2.8
						C130.9,44.1,131,44.5,131.1,44.5L131.1,44.5z"/>
					<path class="st1" d="M129.3,6.6c0.6,0.3,1,0.7,0.9,1c-0.1,0.3-0.7,0.3-1.3,0c-0.6-0.3-1-0.7-0.9-1
						C128.1,6.4,128.7,6.4,129.3,6.6L129.3,6.6z"/>
					<path class="st5" d="M128.5,120.2c0.1,1.8,0,3.1,0,3.1c-6.3,0.5-14.4-2.3-14.4-2.3l-0.2-0.1c1.4-2,2.4-3.5,2.8-3.9
						c0.8-0.9,1.5-1.3,2.1-1.5c0,0,0,0,0,0c0.1,0,0.1,0,0.2,0c0.5-0.1,0.9,0,1.4,0.1c0.1,0,0.2,0.1,0.2,0.1c1.6,0.7,6.5,2.4,7.6,4
						C128.4,119.8,128.5,120,128.5,120.2L128.5,120.2z"/>
					<path class="st5" d="M106.7,132.3c-0.5-0.1-1-0.1-1.4-0.3c2.6-2.7,6.2-7.7,8.6-11.2l0.2,0.1c0,0,8.1,2.8,14.4,2.3
						c-3.5,2.5-10.6,7.9-17.8,8.9C109.3,132.4,108,132.4,106.7,132.3L106.7,132.3z"/>
					<path d="M126.8,12.3c0.1,0.1,0.2,0.2,0.2,0.3c0,0.2-0.2,0.4-0.4,0.4s-0.4-0.2-0.4-0.4s0.2-0.4,0.4-0.4l0,0
						C126.7,12.3,126.7,12.3,126.8,12.3L126.8,12.3L126.8,12.3z"/>
					<path d="M126.8,12.3c-0.1,0-0.1-0.1-0.2-0.1C126.7,12.3,126.8,12.3,126.8,12.3z"/>
					<path class="st5" d="M125.5,24.8l0.7,0.7c-0.2,0.1-0.5,0.3-0.7,0.4v-0.3l-3.2-1.2c0-0.1,0-0.2,0-0.3c0,0,2.2-0.2,2.5,0
						c0.3,0.2,0.3,0.4,0.3,0.4L125.5,24.8L125.5,24.8z"/>
					<path class="st5" d="M125.5,25.6v0.3c-2.4,1.2-3-0.2-3.2-1.5L125.5,25.6L125.5,25.6z"/>
					<path class="st6" d="M92.2,49.1c2-1,4.9-3.2,8-5.8c7.3-6.1,15.6-14.3,15.6-14.3l0.1-0.2c1.8,0.4,3.6,0.5,5.3,0.2h0
						c2.4,0-26.9,28.3-35.8,34.6l-0.5,0c-1.8-3.7-4.2-7.7-5.9-9.2c1.5-4.4,2.9-8.3,3.6-11.6c0,0,1-0.7,2.5-1.6
						c1.3-0.8,2.8-1.8,4.2-2.7c1.1-0.7,2.1-1.4,2.8-1.9L92.2,49.1L92.2,49.1z"/>
					<path class="st6" d="M120.7,145.1l-4.2,2.1l-2-2.9l-7.9-11.9c1.3,0.2,2.7,0.1,4-0.1c0,0,6.8,9.4,8.8,11.7
						C119.9,144.4,120.3,144.8,120.7,145.1L120.7,145.1z"/>
					<path class="st7" d="M113,115.2c2.2,0.2,4.7,0.4,5.8,0.2c-0.7,0.2-1.3,0.7-2.1,1.5c-0.4,0.4-1.4,1.9-2.8,3.9
						c-2.5,3.5-6,8.4-8.6,11.2c-0.7-0.1-1.4-0.3-2.1-0.5c-1.3-0.4-2.6-0.8-3.8-1.4C106.2,124.9,113,115.2,113,115.2L113,115.2z"/>
					<path class="st1" d="M115.3,15l0.7,0.3c-0.3,0.4-0.5,0.7-0.7,1c-1.4,2.1-10,10-16.4,15.3c-2.5,2.1-4.7,3.8-5.9,4.6
						c-0.1,0.1-0.4,0.3-0.8,0.6v-1.6C96.4,31.8,111.5,19.7,115.3,15z"/>
					<path class="st6" d="M106.7,132.3l7.9,11.9l-5.2,2.9l-6.2-15.6c0.7,0.2,1.4,0.4,2.1,0.5C105.7,132.1,106.2,132.2,106.7,132.3z"
						/>
					<path class="st7" d="M108.9,114.7c0,0,1.9,0.3,4.2,0.5c0,0-6.8,9.7-13.7,15c-1.3-0.6-2.6-1.2-3.7-2
						C97.3,128.1,108.9,114.7,108.9,114.7L108.9,114.7z"/>
					<path class="st6" d="M103.1,131.5l6.2,15.6c-0.4-0.2-0.7-0.4-1.1-0.6c-6.1-3.8-11.9-14.3-13.9-19.1c0.4,0.3,0.8,0.5,1.2,0.8
						c1.1,0.7,2.4,1.4,3.7,2C100.5,130.7,101.8,131.1,103.1,131.5L103.1,131.5z"/>
					<path class="st6" d="M108.3,146.5l0.6,2.4c0,0-2.3,0.7-5.7,1.4c-2.6-0.8-6.2-7.2-9.2-14l0,0c-2.3-5.3-4.4-10.8-5.4-14
						c1.5,1.7,3.5,3.5,5.9,5.1C96.4,132.2,102.2,142.7,108.3,146.5z"/>
					<path class="st8" d="M106.2,63.8c0,0-5.4,12.6-5.9,17.2c-4,2.6-8.1,5.3-10.8,7.1c0.3-4.8,0.7-8.8-0.2-12.7h0
						c0-0.1-0.1-0.2-0.1-0.2C89.2,75.4,100.6,67.6,106.2,63.8L106.2,63.8z"/>
					<path class="st6" d="M99,31.6l1.3,11.6c-3.1,2.6-6.1,4.8-8,5.8V36.8c0.4-0.3,0.7-0.5,0.8-0.6C94.3,35.4,96.5,33.7,99,31.6
						C99,31.6,99,31.6,99,31.6z"/>
					<path class="st8" d="M93.9,136.3c-0.5,0-1,0.1-1.5,0.1c-3.1-8.4-8.6-13-14.8-18.6c0.4-1.7,0.6-2.8,0.6-2.8c1.8-3,3.1-5.5,3.8-7
						l0,0c0.7,3.8,2.2,8.1,3.5,10.4c0.5,1,1.5,2.4,3,4C89.5,125.5,91.6,131,93.9,136.3L93.9,136.3z"/>
					<path class="st1" d="M92.2,35.1v1.6c-0.7,0.5-1.7,1.1-2.8,1.9l0.5-4.8l-0.1-0.1c0.7-0.5,1.5-1.1,2.4-1.7V35.1L92.2,35.1z"/>
					<path class="st1" d="M92.2,28.3V32c-0.9,0.7-1.7,1.2-2.4,1.7c-1.8,1.3-2.9,2-2.9,2l-0.7-0.1l0.6-3.4l0,0
						C88.4,31.1,90.3,29.8,92.2,28.3L92.2,28.3L92.2,28.3z"/>
					<path class="st5" d="M92.4,136.4c-10.9,0.3-18.2-2.7-18.7-2.9c1.7-5.5,3.2-12.1,3.9-15.7C83.7,123.3,89.3,128,92.4,136.4
						L92.4,136.4z"/>
					<path class="st1" d="M89.8,33.8l0.1,0.1l-0.5,4.8c-1.4,0.9-2.9,1.9-4.2,2.7l1-5.7l0.7,0.1C86.9,35.8,88,35,89.8,33.8L89.8,33.8
						z"/>
					<path class="st8" d="M89.3,75.5c0.9,3.9,0.5,7.9,0.2,12.7c-1.1,0.8-2,1.4-2.6,1.8c-1.1,0.8-2,1.8-2.7,3c1-2.1,0.4-8.5,0.4-8.5
						c0.7-1.3,1.6-3,2.3-4C88.5,79.4,89.5,76.4,89.3,75.5L89.3,75.5L89.3,75.5z"/>
					<path class="st6" d="M89.3,75.6c0.1,0.9-0.8,3.9-2.4,4.9c-0.3,0.2-0.6,0.3-0.9,0.4c-0.1,0-0.3,0-0.4,0c-0.1,0-0.2,0-0.3-0.1
						c-0.1,0-0.2-0.1-0.3-0.1c-0.2-0.1-0.4-0.3-0.6-0.4c-0.2-0.2-0.3-0.3-0.4-0.5c-0.4-0.6-0.6-1.3-0.7-1.8c0-0.1-0.1-0.3-0.1-0.4
						c-0.3-1.4,2.2-5.3,3.8-5.6l0,0c0,1.1,0.4,2.6,2.3,3.5C89.3,75.4,89.3,75.5,89.3,75.6L89.3,75.6z"/>
					<path class="st8" d="M85.1,63.6c1.5,3,2.7,5.8,2.8,6.6c-0.6,0.5-0.9,0.8-0.9,0.8c-0.1,0.2-0.1,0.5-0.1,0.8l0,0
						c-1.6,0.4-4.1,4.3-3.8,5.6c-1.1-2.9-6.6-13.9-6.6-13.9c1.1-3.6,2.1-6.8,2.6-9.1C80.9,55.9,83.3,60,85.1,63.6L85.1,63.6z"/>
					<path class="st1" d="M86.8,32.3L86.8,32.3l-0.6,3.4l-1,5.7c-1.4,0.9-2.5,1.6-2.5,1.6c0.6-3.1,0.5-5.6-0.9-7.5
						C82.7,35.1,84.5,33.9,86.8,32.3L86.8,32.3z"/>
					<path class="st6" d="M86,80.9c0.3,0,0.6-0.2,0.9-0.4c-0.7,1-1.6,2.7-2.3,4c-0.5,1-0.9,1.8-0.9,1.8l-1.2-0.7
						C83.9,83.1,85,81.6,86,80.9L86,80.9L86,80.9z"/>
					<path class="st6" d="M85.2,80.9L85.2,80.9c0.1,0,0.2,0,0.3,0c0.1,0,0.3,0,0.4,0l0,0c-1,0.8-2,2.3-3.4,4.8l-0.9-0.5
						C81.4,84.9,84.7,80.7,85.2,80.9L85.2,80.9z"/>
					<path class="st6" d="M85.2,80.8L85.2,80.8c-0.5,0-3.8,4.1-3.6,4.4l-1.1-0.5c0.4-0.6,1.5-2.1,4.2-3.9l0.2-0.1
						C85.1,80.7,85.2,80.7,85.2,80.8L85.2,80.8z"/>
					<path class="st6" d="M80.6,84.6c-0.1,0.2-0.2,0.3-0.2,0.3l-0.9-0.6l0.5-0.6c0,0,3.2-3.2,4.2-3.3l0.1-0.1
						c0.2,0.2,0.4,0.3,0.6,0.4l-0.2,0.1C82.1,82.5,81,84,80.6,84.6L80.6,84.6z"/>
					<path class="st8" d="M84.6,84.5c0,0,0.7,6.4-0.4,8.5l0,0c-0.8,1.3-1.3,2.7-1.7,4.1c-0.6-2.9-2.5-7.8-4.3-12.4l1.3-0.5l0.9,0.6
						c0,0,0.1-0.1,0.2-0.3l1.1,0.5l0.9,0.5l1.2,0.7C83.7,86.4,84.1,85.6,84.6,84.5L84.6,84.5z"/>
					<path class="st6" d="M84.4,80.3l-0.1,0.1c-1.1,0.1-4.2,3.3-4.2,3.3L79.3,83c0,0,3.4-3.1,4.4-3.2l0.2-0.1
						C84.1,79.9,84.2,80.1,84.4,80.3L84.4,80.3z"/>
					<path class="st6" d="M79.3,81.7l-0.4-0.8l4.2-2.9l0.1,0c0.1,0.5,0.4,1.2,0.7,1.8l-0.2,0.1c-1,0.1-4.4,3.2-4.4,3.2l-0.4-0.7
						L79.3,81.7L79.3,81.7z"/>
					<path class="st8" d="M83.2,77.9l-0.1,0l-4.2,2.9l0.4,0.8l-0.4,0.6l0.4,0.7l0.7,0.7l-0.5,0.6l-1.3,0.5
						c-2.4-5.9-4.9-11.4-4.9-11.4l0,0c1.1-3.2,2.2-6.6,3.2-9.8c0,0,5.4,11,6.6,13.9C83.2,77.6,83.2,77.7,83.2,77.9L83.2,77.9z"/>
					<path class="st8" d="M73.3,73.4L73.3,73.4c0,0,2.5,5.4,4.9,11.4c1.9,4.6,3.7,9.5,4.3,12.4l0,0c-0.7,2.5-0.9,5.1-0.9,7.1
						c0,1.1,0.1,2.3,0.4,3.6l0,0c-0.7,1.5-2,4-3.8,7c-1.9,3.2-4.4,6.9-7.3,10.5c-0.8,0.9-1.6,1.9-2.4,2.8
						c-11.2-5.6-21.5-18.6-26.8-31.2c-4.9-11.6-5.4-23.2-3.6-29.7c2.8-0.6,5.4-1.4,5.9-1.8c1.3-1.4,3.3-3.8,5.5-6.6
						c0.6-0.8,1.2-1.6,1.9-2.4c-7.2-5.3-13.3-18-13.3-18c2-0.4,3.8-0.8,5-1.1c4.9-1.2,17.6-6,24.5-8.5c3.2-1.2,5.6-0.8,7.5,0.3
						c2.2,1.3,4,3.5,6,5.5c0.2,0.2,0.4,0.5,0.6,0.7c1.4,1.9,1.5,4.4,0.9,7.5c-0.6,3.3-2.1,7.1-3.6,11.6c-0.5,2.3-1.5,5.6-2.6,9.1
						C75.6,66.8,74.4,70.2,73.3,73.4L73.3,73.4z"/>
					<path class="st6" d="M73.7,133.4c-1.4,4.6-3,8.6-4.4,9.6c-3.7,0.2-8.2-0.9-8.2-0.9c4.6-5.9,7.9-8.9,9.9-16.8
						c2.9-3.6,5.4-7.3,7.3-10.5c0,0-0.2,1.1-0.6,2.8C76.9,121.4,75.4,127.9,73.7,133.4L73.7,133.4z"/>
					<path class="st6" d="M68.6,128.2c0.8-0.9,1.6-1.9,2.4-2.8c-2,7.8-5.2,10.9-9.9,16.8l-0.6,0.8c0,0-2.7-1.3-4.9-2.5l2.8-2.8
						l0.1-0.1l6.8-6.9l0,0C67.2,129.3,68.6,128.2,68.6,128.2z"/>
					<path class="st7" d="M68.6,128.2c0,0-1.3,1.1-3.4,2.5c-0.2,0.1-0.3,0.2-0.5,0.4c-8.5-6.1-18.2-16.9-24.7-26.8
						c-6.5-9.9-7.1-24.7-5.9-36.1c1.3-0.2,2.8-0.5,4.3-0.8C36.5,73.9,37,85.5,41.8,97C47.1,109.6,57.4,122.6,68.6,128.2z"/>
					<path class="st6" d="M65.1,130.7L65.1,130.7l-6.8,6.9l-0.1,0.1c-0.6,0.6-3.4,2.9-3.4,2.9l-2.4-2.5l4.4-3.4l0.2-0.1l2-1.6
						l0.2-0.4c0.4,0.3,0.9,0.6,1.3,0.8c1.4-0.8,2.7-1.6,3.9-2.4C64.8,131,65,130.8,65.1,130.7L65.1,130.7z"/>
					<path class="st7" d="M64.6,131.1c-1.1,0.8-2.4,1.6-3.9,2.4c-0.4-0.3-0.9-0.5-1.3-0.8c-1.2-0.8-2.4-1.6-3.6-2.5
						c-10.2-7.9-17.9-19.9-22.4-27c-5.2-8.2-5.1-16-5.7-30.2l-0.1-0.1c1.1-1.7,2.3-3.2,3.7-4.5c0.6,0,1.5-0.1,2.6-0.2
						c-1.2,11.4-0.7,26.2,5.9,36.1C46.4,114.2,56.1,124.9,64.6,131.1L64.6,131.1z"/>
					<path class="st6" d="M59.4,132.6l-0.2,0.4l-2,1.6l-0.2,0.1c-1.8,1.3-5.6,3-7.9,4.1l-3.1-3.6l8-4.1l1.9-1
						C57,131,58.2,131.8,59.4,132.6z"/>
					<path class="st6" d="M55.9,130.1l-1.9,1l-10.5,3.8l-1.4-3.8l7-4l0.1-0.1c0.8,0.7,1.7,1.3,2.6,1.7C54.9,130,55.9,130,55.9,130.1
						L55.9,130.1z"/>
					<path class="st5" d="M55.9,130.1c0,0-1-0.1-4.1-1.4c-0.9-0.4-1.8-1-2.6-1.7c-1.1-0.9-2.1-2-3-2.9c-3-2.9-6-5.9-8.9-8.9
						c-5.7-6-13.4-12.8-15-21.3c-0.5-2.4-0.4-4.9,0-7.3c0.6-4.5,2.7-9.6,5.4-13.8l0,0l0.1,0.1c0.6,14.2,0.4,22,5.7,30.2
						C38,110.1,45.7,122.1,55.9,130.1L55.9,130.1z"/>
					<path class="st7" d="M51.5,56.6c-0.6,0.8-1.3,1.6-1.9,2.4c-8.9-7.5-14.3-19.8-14.3-19.8c1-0.2,1.9-0.4,2.9-0.6
						C38.2,38.6,44.4,51.3,51.5,56.6L51.5,56.6z"/>
					<path class="st7" d="M49.7,58.9c-2.2,2.8-4.2,5.2-5.5,6.6c0,0-2.7-2.5-4.6-3.7c-0.7-0.4-2.3-2-4.2-4.4c-3.4-4-8-10.1-11.5-16.1
						c0,0,5.9-1.1,11.5-2.2C35.4,39.1,40.8,51.4,49.7,58.9L49.7,58.9z"/>
					<path class="st5" d="M38.2,67.3c-1.5,0.3-3,0.6-4.3,0.8c-1.1,0.2-2,0.3-2.6,0.2c0,0-0.1-0.2-0.3-0.7c0,0,3-10.6,4.3-10.2
						c2,2.4,3.5,4,4.2,4.4c1.9,1.1,4.6,3.7,4.6,3.7C43.6,65.9,41,66.7,38.2,67.3L38.2,67.3z"/>
					<path class="st5" d="M35.4,57.5C34,57.1,31,67.7,31,67.7c-1-1.9-4-7.7-5-11.6c-1.3-4.7-2.8-9.8-2.1-14.7
						C27.4,47.4,32,53.5,35.4,57.5z"/>
				</g>
				<g>
					<path class="st10" d="M132.5,13.6c0,0-0.4,3-1.1,4.7c-0.7,1.7-1.3,2.4-2.2,3.1c-0.9,0.7-2.9,0-2.9,0"/>
					<path class="st11" d="M127.2,20c-0.7-0.1-1.1,0-1.5,0.4"/>
					<path class="st10" d="M125.5,25.8c0.2-0.1,0.4-0.2,0.7-0.4l-0.7-0.7l-0.5-0.2c0,0,0-0.3-0.3-0.4c-0.3-0.2-2.5,0-2.5,0
						c0,0.1,0,0.2,0,0.3C122.5,25.6,123.1,27,125.5,25.8L125.5,25.8z"/>
					<line class="st10" x1="122.3" y1="24.3" x2="125.5" y2="25.6"/>
					<path class="st10" d="M121.3,29c-1.7,0.2-3.5,0.2-5.3-0.2c-0.6-0.1-1.3-0.3-1.9-0.6"/>
					<path class="st10" d="M128.1,26.5c-0.7,0.4-1.4,0.8-2.2,1.1c-1.4,0.6-3,1.1-4.6,1.3"/>
					<path class="st10" d="M138.7,10c0,0-4.2,12.2-8.2,15c-0.7,0.5-1.6,1.1-2.5,1.6"/>
					<path class="st10" d="M126.8,12.3c0.3,0.1,0.5,0.2,0.7,0.3"/>
					<path class="st10" d="M124.3,11.4c0,0,1.3,0.5,2.3,0.9"/>
					<line class="st10" x1="135.1" y1="16.7" x2="135.5" y2="17"/>
					<line class="st10" x1="133.5" y1="15.8" x2="135" y2="16.7"/>
					<path class="st10" d="M130.1,7.6c-0.1,0.3-0.7,0.3-1.3,0c-0.6-0.3-1-0.7-0.9-1c0.1-0.3,0.7-0.3,1.3,0
						C129.9,6.9,130.3,7.3,130.1,7.6L130.1,7.6z"/>
					<path class="st10" d="M137.4,11.5c-0.1,0.3-0.7,0.3-1.3-0.1c-0.6-0.3-0.9-0.8-0.8-1c0.1-0.3,0.7-0.3,1.3,0.1
						C137.2,10.8,137.5,11.2,137.4,11.5z"/>
					<path class="st10" d="M75.3,29.1C75.3,29.1,75.3,29.2,75.3,29.1c2.4,1.2,43.7-27.9,48.1-31.8c3.8-3.4,9.7-3.2,13-1.2
						c3.3,2,4,6.6,4,9.5c0,0.7-0.2,1.7-0.6,2.7c-0.3,0.7-0.6,1.3-1,1.7c-0.6-0.2,0.2-2.9-0.2-2.8c-0.4,0.1-2.1-0.3-3.7-1.3
						c-1.6-1-2.8-2.7-3.6-4c-0.9-1.3-1.7-1.7-2.7-0.7c-1,1-3.2,1.7-3.7,2.3c-0.4,0.6-6.2,8.2-8.7,11.9c-0.3,0.4-0.5,0.7-0.7,1
						c-1.4,2.1-10,10-16.4,15.3c-2.5,2.1-4.7,3.8-5.9,4.6c-0.1,0.1-0.4,0.3-0.8,0.6c-0.7,0.5-1.7,1.1-2.8,1.9
						c-1.4,0.9-2.9,1.9-4.2,2.7c-1.4,0.9-2.5,1.6-2.5,1.6"/>
					<path class="st10" d="M128.6,37.3C128.6,37.3,128.6,37.3,128.6,37.3c0.3,0.9,1,2.7,1.1,3.2c0.4,1.3,0.7,2.2,1,2.8
						c0.3,0.9,0.4,1.2,0.4,1.2"/>
					<path class="st10" d="M125.9,27.6c0,0,0.1,0.3,0.4,1.5"/>
					<path class="st10" d="M89.2,75.3c0,0,11.4-7.8,17-11.5c0.6-0.4,1.2-0.8,1.6-1.1c5.8-3.8,16.8-8.2,20.7-9.9
						c1.6-0.7,2.7-1.3,3.4-1.8c1-0.7,1.2-1.3,1.4-1.9c0.4-1,0-2.8-0.8-4.1c-0.2-0.4-0.5-0.6-1.4-0.4c-1.3,0.2-3.9,1.3-9.6,3.8
						c-5.1,2.1-10.3,5-14.9,7.9C97.5,62,90.3,68.1,87.9,70.3c-0.6,0.5-0.9,0.8-0.9,0.8c-0.1,0.2-0.1,0.5-0.1,0.8
						C86.9,72.9,87.3,74.5,89.2,75.3L89.2,75.3z"/>
					<path class="st10" d="M121.3,29L121.3,29c2.4,0-26.9,28.3-35.7,34.6"/>
					<path class="st10" d="M115.9,29c0,0-8.4,8.2-15.6,14.3c-3.1,2.6-6.1,4.8-8,5.8"/>
					<line class="st10" x1="99" y1="31.6" x2="100.3" y2="43.3"/>
					<path class="st10" d="M55.9,130.1c0,0-1-0.1-4.1-1.4c-0.9-0.4-1.8-1-2.6-1.7c-1.1-0.9-2.1-2-3-2.9c-3-2.9-6-5.9-8.9-8.9
						c-5.7-6-13.4-12.8-15-21.3c-0.5-2.4-0.4-4.9,0-7.3c0.6-4.5,2.7-9.6,5.4-13.8l0,0c1.1-1.7,2.3-3.2,3.7-4.5c0,0-0.1-0.2-0.3-0.7
						c-1-1.9-4-7.7-5-11.6c-1.3-4.7-2.8-9.8-2.1-14.7c0,0,5.9-1.1,11.5-2.2c1-0.2,1.9-0.4,2.9-0.6c2-0.4,3.8-0.8,5-1.1
						c4.9-1.2,17.6-6,24.5-8.5c3.2-1.2,5.6-0.8,7.5,0.3c2.2,1.3,4,3.5,6,5.5c0.2,0.2,0.4,0.5,0.6,0.7c1.4,1.9,1.5,4.4,0.9,7.5
						c-0.6,3.3-2.1,7.1-3.6,11.6c-0.5,2.3-1.5,5.6-2.6,9.1c-1,3.2-2.2,6.6-3.2,9.8c-1.8,5.5-3.5,10.4-3.9,12.6
						c-1,4.7-2.6,16-2.6,19.9"/>
					<path class="st10" d="M27.8,72.9c0.6,14.2,0.4,22,5.7,30.2c4.5,7.1,12.2,19,22.4,27c1.2,0.9,2.3,1.8,3.6,2.5
						c0.4,0.3,0.9,0.6,1.3,0.8c1.4-0.8,2.7-1.6,3.9-2.4c0.2-0.1,0.4-0.2,0.5-0.4c2.1-1.4,3.4-2.5,3.4-2.5
						c-11.2-5.6-21.5-18.6-26.8-31.2c-4.9-11.6-5.4-23.2-3.6-29.7l0,0"/>
					<path class="st10" d="M31.4,68.3c0.6,0,1.5-0.1,2.6-0.2c1.3-0.2,2.8-0.5,4.3-0.8c2.8-0.6,5.4-1.4,5.9-1.8
						c1.3-1.4,3.3-3.8,5.5-6.6c0.6-0.8,1.2-1.6,1.9-2.4c5.7-7.3,12-15.7,12-15.7"/>
					<path class="st10" d="M23.9,41.4c3.5,6,8.1,12.1,11.5,16.1c2,2.4,3.5,4,4.2,4.4c1.9,1.1,4.6,3.7,4.6,3.7"/>
					<path class="st10" d="M35.4,39.1c0,0,5.4,12.3,14.3,19.8"/>
					<path class="st10" d="M38.2,38.5c0,0,6.1,12.7,13.3,18"/>
					<path class="st10" d="M31,67.7c0,0,3-10.6,4.3-10.2"/>
					<path class="st10" d="M34,68.1c-1.2,11.4-0.7,26.2,5.9,36.1c6.5,10,16.2,20.7,24.7,26.8"/>
					<path class="st10" d="M68.6,128.2c0.8-0.9,1.6-1.9,2.4-2.8c2.9-3.6,5.4-7.3,7.3-10.5c1.8-3,3.1-5.5,3.8-7"/>
					<path class="st10" d="M118.8,115.4c0.1,0,0.1,0,0.2,0c0.5-0.1,0.9,0,1.4,0.1c0.1,0,0.2,0.1,0.2,0.1c1.6,0.7,6.5,2.4,7.6,4
						c0.1,0.2,0.2,0.4,0.2,0.6c0.1,1.8,0,3.1,0,3.1c-3.5,2.5-10.6,7.9-17.8,8.9c-1.3,0.2-2.7,0.2-4,0.1c-0.5-0.1-1-0.1-1.4-0.3"/>
					<path class="st10" d="M82.6,97.2c-0.7,2.5-0.9,5.1-0.9,7.1c0,1.1,0.1,2.3,0.4,3.6c0.7,3.8,2.2,8.1,3.5,10.4c0.5,1,1.5,2.4,3,4
						c1.5,1.7,3.5,3.5,5.9,5.1c0.4,0.3,0.8,0.5,1.2,0.8c1.1,0.7,2.4,1.4,3.7,2c1.2,0.5,2.5,1,3.8,1.4c0.7,0.2,1.4,0.4,2.1,0.5
						c2.6-2.7,6.2-7.7,8.6-11.2c1.4-2,2.4-3.5,2.8-3.9c0.8-0.9,1.5-1.3,2.1-1.5"/>
					<path class="st10" d="M84.2,93c-0.8,1.3-1.3,2.7-1.7,4.1"/>
					<path class="st10" d="M114.1,72.2c0,0-6.9,4.4-13.8,8.9c-4,2.6-8.1,5.3-10.8,7.1c-1.1,0.8-2,1.4-2.6,1.8c-1.1,0.8-2,1.8-2.7,3"
						/>
					<path class="st10" d="M114.1,121c0,0,8.1,2.8,14.4,2.3c2.4,0.4,8.1,0.3,13.1-0.4c0.3,0,0.6-0.1,0.9-0.1c2.6-0.4,5-1,6.6-1.8
						c1.3-0.6,3-1.3,4.9-1.9c5.4-1.8,12.2-3.6,16-4.1c5.1-0.7,17.6-4.4,17.6-4.4c-0.5,4.9-6.3,9-12.3,12.1c5.8,2,9.8,3.1,9.8,3.1
						c-3,1.7-6.9,3.7-11,5.5c-6.7,2.9-14.1,5.5-20,6.4c-9.5,1.5-20.6,0-20.6,0"/>
					<path class="st10" d="M141.6,122.9c0,0-1.7,4-4.3,8.6c-1.1,2-2.4,4.2-3.7,6.2c-2.6,3.9-5.5,7.3-8.1,8.1
						c-2.5-0.1-3.6,0.1-4.8-0.8c-0.4-0.3-0.8-0.7-1.2-1.2c-2-2.3-8.8-11.7-8.8-11.7"/>
					<polyline class="st10" points="106.7,132.2 106.7,132.3 114.6,144.2 116.5,147.1 120.7,145.1 					"/>
					<polyline class="st10" points="103.1,131.5 109.4,147.1 114.6,144.2 					"/>
					<path class="st10" d="M94.4,127.4c2,4.8,7.8,15.3,13.9,19.1c0.4,0.2,0.7,0.4,1.1,0.6"/>
					<path class="st10" d="M93.9,136.3c3,6.8,6.6,13.2,9.2,14c3.5-0.7,5.7-1.4,5.7-1.4l-0.6-2.4"/>
					<path class="st10" d="M88.5,122.3c1,3.2,3,8.7,5.4,14"/>
					<path class="st10" d="M73.7,133.4L73.7,133.4c0.5,0.2,7.8,3.2,18.7,2.9c0.5,0,1,0,1.5-0.1l0,0"/>
					<path class="st10" d="M78.2,114.9c0,0-0.2,1.1-0.6,2.8c-0.8,3.6-2.2,10.2-3.9,15.7c-1.4,4.6-3,8.6-4.4,9.6
						c-3.7,0.2-8.2-0.9-8.2-0.9c4.6-5.9,7.9-8.9,9.9-16.8"/>
					<path class="st10" d="M58.3,137.6l-2.8,2.8c2.2,1.2,4.9,2.5,4.9,2.5l0.6-0.8"/>
					<line class="st10" x1="65.1" y1="130.7" x2="58.4" y2="137.6"/>
					<path class="st10" d="M57,134.7l-4.4,3.4l2.4,2.5c0,0,2.7-2.3,3.4-2.9l0.1-0.1"/>
					<line class="st10" x1="59.2" y1="133" x2="57.2" y2="134.5"/>
					<path class="st10" d="M55.9,130.1l-1.9,1l-8,4.1l3.1,3.6c2.3-1.1,6.1-2.8,7.9-4.1l0.2-0.1"/>
					<polyline class="st10" points="49.1,127.1 42.1,131.1 43.5,134.9 53.9,131.1 					"/>
					<path class="st10" d="M77.6,117.7c6.1,5.6,11.6,10.2,14.8,18.6c0,0,0,0,0,0"/>
					<path class="st10" d="M93,106.8c4,2,4.8,6.6,19.8,6.2c15.1-0.4,27.8-0.1,36.2-3.1c8.4-3,29.4-9.2,32.1-9.1"/>
					<path class="st10" d="M173.2,91.9c-2.3-1.9-4.8-3.2-9.3-3.7c-1.7-0.2-3.7-0.3-6-0.3c-4,0.1-8.9,0.6-13.7,1.2
						c-3.3,0.4-6.6,0.9-9.7,1.3c-4.5,0.6-8.5,1.1-11.2,1.1c-7.2,0-13.7,0.7-15.4-0.1"/>
					<path class="st10" d="M187.7,110.6c0,0-1.2-1.9-3-4.6c-0.5-0.8-1.1-1.6-1.6-2.4c-0.1-0.2-0.3-0.4-0.5-0.7
						c-0.5-0.7-1-1.4-1.5-2.1c-2.1-2.9-4.2-5.7-5.8-7.1c-0.7-0.7-1.5-1.3-2.2-1.9"/>
					<path class="st10" d="M120.4,115.5c0,0,6.6,1.1,17,0c10.4-1.1,23.6-6.6,27.6-8.1c4-1.5,15.4-4,18.1-3.8"/>
					<path class="st10" d="M128.3,119.6c8.8-0.6,17.4-2.3,24-4.7c6.7-2.4,14.9-5.5,19.6-6.5s12.8-2.4,12.8-2.4"/>
					<path class="st10" d="M95.6,128.2c1.7-0.1,13.2-13.5,13.2-13.5s1.9,0.3,4.2,0.5c2.2,0.2,4.7,0.4,5.8,0.2c0,0,0,0,0,0
						c0.1,0,0.1,0,0.2,0"/>
					<path class="st10" d="M113,115.2c0,0-6.8,9.7-13.7,15"/>
					<path class="st10" d="M134.1,70.7c0.2,2.4,0.4,4.5,0.4,5.8c0,5.6-0.1,13.7-0.1,13.9l0,0"/>
					<path class="st10" d="M131.8,51c0,0,0.7,5.4,1.4,11.4c0.3,2.8,0.6,5.8,0.9,8.3"/>
					<path class="st10" d="M256,48.6c0.3-0.2,0.6-0.4,1-0.8c3.4-3.3,11.5-9.9,14.4-10.3v63.4h-1.6c0,0-13.9,2.4-20.2,4.4
						c-6.2,2.1-21.9,8.3-29.1,10.7c-7.2,2.4-11.3,1.3-18.6,1"/>
					<path class="st10" d="M144.1,89.1c0,0-0.4-0.5-1-1.2c-1.2-1.5-3.1-4-4.4-6c-0.4-0.6-0.8-1.2-1-1.7c-1.3-2.7-3.5-9.1-3.6-9.5
						c0,0,0,0,0,0s11.2-6.4,17.6-10.8c4.4-3,25.4-18.8,48.9-30.1c2.4-1.1,4.8-2.2,7.3-3.3c2.2-0.9,4.3-1.8,6.5-2.6
						c3.6-1.3,7.3-2.5,10.8-3.4c2.3-0.6,4.6-1.1,6.8-1.5c1.8,11.8,2.3,17.4,4.2,18.3c0.4,0.2,1.2,0.2,2.2,0c2.7-0.4,6.9-1.7,9.7-2.5
						c1.3-0.4,2.2-0.7,2.6-0.7c1.5-0.2,2.9,3.1,3.3,7.2c0.3,3.5-0.3,8.2,1.8,7.2"/>
					<path class="st10" d="M138.7,82c0,0,13.9-10.4,25.9-16.9c12.1-6.5,38.3-18.2,52.4-20.5c14-2.3,22.3-2.3,22.3-2.3
						c3.4-2.6,4.4-5.5,8.8-7.3"/>
					<line class="st10" x1="238.5" y1="37.4" x2="239.4" y2="42.2"/>
					<path class="st10" d="M143.2,87.9c19.4-10,34.2-19.3,48.8-24.3c14.5-5.1,48.5-12.1,59.1-11.7c3.4-2.3,4.6-3,4.9-3.2
						c0.1-0.1,0.1-0.1,0.1-0.1"/>
					<path class="st10" d="M163.9,88.2c15.4-8,38.1-17.5,60.9-22.7c22.8-5.1,46.6-6.6,46.6-6.6"/>
					<path class="st10" d="M173.2,91.9L173.2,91.9c14.9-6.6,35.4-13.7,56.2-16.6s40.5-2,41.9-1"/>
					<path class="st10" d="M175.4,93.8c8.5-0.1,12.7,0.2,15.9,0.5c1.1,0.1,2.2,0.2,3.2,0.4c0.8,0.1,1.5,0.3,2.1,0.5
						c1.9,0.8,2.6,2.3,3,5.1c0.1,0.4,0.1,0.8,0.1,1.3c0.1,1.3,0.3,3.8,0.7,6.8c0.2,1.4,0.4,3,0.7,4.5c0.3,1.4,0.6,2.8,0.9,4.2
						c1.3,5.3,3.4,10.1,6.5,11.2"/>
					<path class="st10" d="M258,128.6c-1.9-1.6-3.9-4.5-4.4-7.9c-0.4-1,0.3-3.7-6.4,0.2c-2.3,1.4-4.6,3.5-6.6,5.8
						c-3.2,3.6-6,7.6-7.8,9.9c-0.3,0.4-0.6,0.8-0.9,1.1c-2.6,2.9-5.5,7-7.2,7c-1.7,0-4.4-2.1-7.2-3.9c-0.5-0.3-1-0.5-1.4-0.7
						c-2.2-0.6-4.6,0.6-10.2-0.1c-6.7-0.9-26-4.4-31.6-8.9"/>
					<path class="st10" d="M185.2,125.8c9.3,1.3,17.3,2.7,23.2,2.6c1.1,0,2-0.1,2.9-0.2c1.2-0.1,3.2-0.7,5.9-1.6
						c11.1-3.6,32.2-12,36.6-12.6c5.4-0.7,13.3-0.4,16,0.7l2.7,1.1v7.1c0,0-9.1,6.4-11.3,7c-0.9,0.2-2.1-0.3-3.3-1.3"/>
					<path class="st10" d="M240.5,126.7c0,0,6.3,2.6,12.1,2.7c1.9,0.1,3.7-0.2,5.3-0.8l0,0"/>
					<path class="st10" d="M232.8,136.6c0,0,13-0.8,19.9-7.2c0,0,0,0,0,0"/>
					<path class="st10" d="M217.2,126.6c0,0,1.4,12.3-1.2,13.5l0,0"/>
					<path class="st10" d="M201,112.8c0,0,5.3,0.7,9.6,0.2c4.3-0.5,15.3-2,20.9-4.6c5.6-2.6,17.8-8.2,24.5-9.2
						c6.7-1,15.4-1.9,15.4-1.9"/>
					<path class="st10" d="M200.3,108.3c0,0,9.4,1,15.7,0s19.2-4.8,28-9c8.8-4.2,25.4-5.1,27.4-5"/>
					<path class="st10" d="M199.5,100.3c0,0,18.2-5.9,27.3-6.5c9.1-0.6,35.3-2.6,44.6-0.7"/>
					<path class="st10" d="M196.5,95.2c1.6-1.2,16.7-5.8,27.8-7.2c11.1-1.5,39.6-3.2,47.1-2.1"/>
					<path class="st10" d="M86.9,71.9c-1.6,0.4-4.1,4.3-3.8,5.6c0,0.1,0.1,0.3,0.1,0.4c0.1,0.5,0.4,1.2,0.7,1.8
						c0.1,0.2,0.3,0.4,0.4,0.5c0.2,0.2,0.4,0.3,0.6,0.4c0.1,0,0.2,0.1,0.3,0.1c0.1,0,0.2,0.1,0.3,0.1c0.1,0,0.3,0,0.4,0
						c0.3,0,0.6-0.2,0.9-0.4c1.6-1.1,2.6-4.1,2.4-4.9c0-0.1-0.1-0.2-0.1-0.2"/>
					<polyline class="st10" points="83.1,77.9 78.9,80.9 79.3,81.7 83.1,79 					"/>
					<path class="st10" d="M79.3,81.7l-0.4,0.6l0.4,0.7c0,0,3.4-3.1,4.4-3.2"/>
					<path class="st10" d="M79.3,83l0.7,0.7c0,0,3.2-3.2,4.2-3.3"/>
					<path class="st10" d="M80,83.7l-0.5,0.6l0.9,0.6c0,0,0.1-0.1,0.2-0.3c0.4-0.6,1.5-2.1,4.2-3.9"/>
					<path class="st10" d="M80.6,84.6L80.6,84.6l1.1,0.5c-0.2-0.3,3.1-4.4,3.6-4.3c0,0,0,0,0,0"/>
					<path class="st10" d="M81.6,85.1l0.9,0.5c1.4-2.5,2.4-4,3.4-4.8"/>
					<path class="st10" d="M82.6,85.6l1.2,0.7c0,0,0.4-0.8,0.9-1.8c0.7-1.3,1.6-3,2.3-4"/>
					<path class="st10" d="M79.2,54.5c1.7,1.5,4.1,5.5,5.9,9.2c1.5,3,2.7,5.8,2.8,6.6"/>
					<path class="st10" d="M76.6,63.6c0,0,5.4,11,6.6,13.9"/>
					<path class="st10" d="M73.3,73.4c0,0,2.5,5.4,4.9,11.4c1.9,4.6,3.7,9.5,4.3,12.4l0,0"/>
					<path class="st10" d="M84.6,84.5c0,0,0.7,6.4-0.4,8.5l0,0"/>
					<path class="st10" d="M89.3,75.5c0.9,3.9,0.5,7.9,0.2,12.7"/>
					<path class="st10" d="M106.2,63.8c0,0-5.4,12.6-5.9,17.2c0,0.1,0,0.2,0,0.3"/>
					<path class="st10" d="M162,124c0.7,0.2,1.3,0.4,1.9,0.5c1.7,0.3,3.2,0.3,4.7-0.1c4.3-1.1,6.7-1.8,6.7-1.8"/>
					<path class="st10" d="M154.1,119.1c2.7,2.4,5.4,4.1,7.9,5"/>
					<path class="st10" d="M142.6,122.8L142.6,122.8c0.1,0.1,3.4,2.9,8.3,3c4.3,0.1,10.9-1.7,11.1-1.8l0,0"/>
					<path class="st10" d="M137.3,131.5c0,0,10.7,0.1,14.9-1.4s9.6-2.8,11.6-5.6"/>
					<path class="st10" d="M182.6,103c0,0,8.6-7.4,8.6-8.7"/>
					<path class="st10" d="M130.8,43.3c0,0,15,2.1,14.5,2.2c-0.7,1-1.4,2.1-2.1,3.1c-4.6,6.5-9.1,11.9-9.7,13.8"/>
					<path class="st10" d="M130.8,33.1c0.9-1.6,1.8-3.2,2.4-4.9c0.1-0.2,0.1-0.4,0.2-0.6c1-2.7,2.1-5.4,3-8.1
						c0.2-0.7,0.7-1.8,1.1-3.1c0.8-2.3,1.6-5,1.5-6.5"/>
					<path class="st10" d="M128.1,26.5L128.1,26.5c-0.5,0.8-1.2,1.7-1.8,2.6c-0.8,1.2-1.4,2.4-1.3,3.7c0.2,2.3,1.7,4.2,3.1,6
						c0.1-0.5,0.3-1,0.5-1.4c0-0.1,0.1-0.1,0.1-0.2c0.6-1.4,1.3-2.7,2.1-4.1"/>
					<path class="st10" d="M143.2,48.6l3.9,2.4l3.9-7.4l2.3-4.3l3-5.7c-1.3-0.5-2.7-1-4.2-1.5c-2.2-0.8-4.6-1.5-6.9-2.2
						c-5-1.4-9.7-2.4-11.9-2.2"/>
					<path class="st10" d="M130.8,33.1L130.8,33.1c0.2,0,8.5,1.2,11.8,2.4c3.3,1.1,10.7,3.8,10.7,3.8"/>
					<path class="st10" d="M128.6,37.2C128.6,37.2,128.6,37.2,128.6,37.2c1.4,0.2,15.3,2.4,22.4,6.5"/>
					<path class="st10" d="M137.4,16.4c0,0,19.6-4.6,22-4.4c-0.4,1-1.2,2.3-2.1,3.8c-0.8,1.2-1.7,2.4-2.6,3.7
						c-3.6,4.9-8,9.9-9.4,10.3"/>
					<path class="st10" d="M154.7,19.5c0,0,0.3,0.9,0.8,2.2c0.5,1.3,1.1,3,1.6,4.5c0.5,1.7,1,3.2,0.9,3.6"/>
					<path class="st10" d="M153.3,31.6c1.6-0.6,3.2-1.1,4.8-1.5c4.2-1,8.3-1.1,13.3-1.2c6.8-0.1,18.9,0.3,29.3,0.9"/>
					<path class="st10" d="M157.3,15.8L157.3,15.8c10.8-3.6,23-6.6,37.1-3.6c9.7,2.1,20.7,5.3,26.6,7.1c2.6,0.8,4.2,1.3,4.2,1.3"/>
					<path class="st10" d="M155.5,21.7c0,0,18.6-4.6,29.4-4.1c10.8,0.6,26.8,4.6,29.5,6.3"/>
					<path class="st10" d="M157.1,26.3c13-2.8,20.7-3.6,27.9-3.6c7.1,0,20.5,3,22.8,3.6"/>
					<path class="st10" d="M139.8,8.3c5.7-2.3,11.4-4.4,17.2-6.5c13.3-4.7,31.4-4.8,43.7,3c7,4.4,13.6,9.7,20.3,14.5"/>
					<polyline class="st10" points="92.2,28.3 92.2,32 92.2,35.1 92.2,36.8 92.2,49.1 92.2,55.4 					"/>
					<polyline class="st10" points="89.9,33.9 89.4,38.7 87.9,54.5 					"/>
					<polyline class="st10" points="86.8,32.3 86.2,35.6 85.2,41.3 82.9,54.6 					"/>
					<path class="st10" d="M86.9,35.8c0,0,1.1-0.8,2.9-2c0.7-0.5,1.5-1.1,2.4-1.7c5.6-4.1,14.3-10.7,18.4-15.6"/>
					<path class="st10" d="M91.1,36c0,0,0.4-0.3,1.1-0.9c4.2-3.3,19.3-15.5,23.1-20.1c0.2-0.3,0.4-0.5,0.5-0.7"/>
					<path class="st10" d="M106.6,17.4c0,0-7.5,5.8-14.4,10.9c-1.9,1.4-3.8,2.8-5.4,3.9c-2.3,1.6-4.1,2.8-4.9,3.2l0,0"/>
					<line class="st10" x1="271.4" y1="100.9" x2="272.5" y2="115.8"/>
				</g>
			</g>
		</g>
	</g>
</g>
</svg>
