<svg xmlns="http://www.w3.org/2000/svg" xmlns:xlink="http://www.w3.org/1999/xlink" xml:space="preserve" id="レイヤー_1" x="0" y="0" style="enable-background:new 0 0 272.9 183.6" version="1.1" viewBox="0 0 272.9 183.6"><style>.st0{fill:#f3edd7}.st1{fill:#333}.st3{fill:none;stroke:#000;stroke-miterlimit:10}.st5{fill:#f6342a}.st6{fill:#f9edd3}.st7{fill:#f3d386}.st8{fill:#a986a7}.st10,.st11{fill:none;stroke:#000;stroke-linecap:round;stroke-linejoin:round}.st11{stroke-width:.5}</style><g id="_畳"><path d="M.2 148.6h3.6v5.1H.2zm272.7 27.8v6.7h-30.7l15.6-8.7c1 1.6 3.1 2.7 5.6 2.7 2.4 0 4.6-1.2 5.7-2.9l3.8 2.2z" class="st0"/><path d="M272.9 165.8v10.7l-4-2.2c.4-.6.6-1.4.6-2.1 0-1.3-.6-2.5-1.6-3.4l5-3zm0-12.1v12.1l-5.1 2.8c-1.1-1-2.8-1.6-4.6-1.6s-3.3.6-4.4 1.5l-26.4-14.9 40.5.1zm0-79.7v5.8H.2V74z" class="st0"/><path d="M269 148.6h4v5.1h-4zm.6 23.5c0 .8-.2 1.5-.6 2.1l-5.5-3.1 4.4-2.5c1.1 1 1.7 2.2 1.7 3.5zm-6.1-.9 5.5 3.1c-1 1.7-3.1 2.9-5.7 2.9-2.5 0-4.5-1.1-5.6-2.7l5.8-3.3z" class="st0"/><path d="M257.5 148.6h11.4v5.1h-11.4z" class="st1"/><path d="m267.9 168.6-4.4 2.5-4.6-2.6c1.1-.9 2.7-1.5 4.4-1.5 1.8 0 3.4.6 4.6 1.6zm-4.4 2.6-5.8 3.2c-.4-.7-.7-1.5-.7-2.3 0-1.4.7-2.6 1.8-3.5l4.7 2.6z" class="st0"/><path d="m232.4 153.7 26.4 14.9c-1.1.9-1.8 2.1-1.8 3.5 0 .8.2 1.6.7 2.3l-15.6 8.7h-41.9l-15.8-8.9c.4-.6.6-1.4.6-2.1 0-1.3-.6-2.5-1.6-3.4l26.6-15h22.4zm-6 18.4c0-2.8-2.2-5.1-5.1-5.1s-5.1 2.2-5.1 5.1 2.2 5.1 5.1 5.1 5.1-2.4 5.1-5.1zm31.1-18.4h-30.9v-5.1h30.9z" class="st0"/><path d="M215.2 148.6h11.4v5.1h-11.4zm6.1 18.3c2.8 0 5.1 2.2 5.1 5.1s-2.2 5.1-5.1 5.1-5.1-2.2-5.1-5.1 2.3-5.1 5.1-5.1z" class="st1"/><path d="m210 153.7-26.6 15c-1.1-1-2.8-1.6-4.6-1.6s-3.3.6-4.4 1.5L148 153.7h62zm-25.6 0v-5.1h30.8v5.1H210zm15.8 29.4h-42.6l15.6-8.7c1 1.6 3.1 2.7 5.6 2.7 2.4 0 4.6-1.2 5.7-2.9l15.7 8.9z" class="st0"/><path d="M185.1 172.1c0 .8-.2 1.5-.6 2.1l-5.5-3.1 4.4-2.5c1.1 1 1.7 2.2 1.7 3.5zm-6.1-.9 5.5 3.1c-1 1.7-3.1 2.9-5.7 2.9-2.5 0-4.5-1.1-5.6-2.7l5.8-3.3z" class="st0"/><path d="M172.9 148.6h11.4v5.1h-11.4z" class="st1"/><path d="M178.8 166.9c1.8 0 3.4.6 4.6 1.6L179 171l-4.6-2.6c1.1-.9 2.6-1.4 4.4-1.5zm.2 4.3-5.8 3.2c-.4-.7-.7-1.5-.7-2.3 0-1.4.7-2.6 1.8-3.5l4.7 2.6z" class="st0"/><path d="m148 153.7 26.4 14.9c-1.1.9-1.8 2.1-1.8 3.5 0 .8.2 1.6.7 2.3l-15.6 8.7h-41.9l-15.8-8.9c.4-.6.6-1.4.6-2.1 0-1.3-.6-2.5-1.6-3.4l26.6-15H148zm-7.1 18.4c0-2.8-2.2-5.1-5.1-5.1-2.8 0-5.1 2.2-5.1 5.1s2.2 5.1 5.1 5.1c2.9-.1 5.1-2.4 5.1-5.1zm32-18.4h-30.8v-5.1h30.8z" class="st0"/><path d="M130.7 148.6h11.4v5.1h-11.4zm5 18.3c2.8 0 5.1 2.2 5.1 5.1s-2.2 5.1-5.1 5.1c-2.8 0-5.1-2.2-5.1-5.1s2.4-5.1 5.1-5.1z" class="st1"/><path d="m125.5 153.7-26.6 15c-1.1-1-2.8-1.6-4.6-1.6s-3.3.6-4.4 1.5l-26.4-14.9h62zm5.2 0H99.9v-5.1h30.8zm-14.9 29.4H73.2l15.5-8.7c1 1.6 3.1 2.7 5.6 2.7s4.6-1.2 5.7-2.9l15.8 8.9z" class="st0"/><path d="M100.6 172.1c0 .8-.2 1.5-.6 2.1l-5.5-3.1 4.4-2.5c1.1 1 1.7 2.2 1.7 3.5zm-6.1-.9 5.5 3.1c-1 1.7-3.1 2.9-5.7 2.9-2.5 0-4.5-1.1-5.6-2.7 0-.1 5.8-3.3 5.8-3.3z" class="st0"/><path d="M88.4 148.6h11.4v5.1H88.4z" class="st1"/><path d="M94.3 166.9c1.8 0 3.4.6 4.6 1.6l-4.4 2.5-4.6-2.6c1.1-.9 2.7-1.4 4.4-1.5zm.2 4.3-5.8 3.2c-.4-.7-.7-1.5-.7-2.3 0-1.4.7-2.6 1.8-3.5l4.7 2.6z" class="st0"/><path d="m63.5 153.7 26.4 14.9c-1.1.9-1.8 2.1-1.8 3.5 0 .8.2 1.6.7 2.3l-15.5 8.7H31.1l-15.8-8.9c.4-.6.6-1.4.6-2.1 0-1.3-.6-2.5-1.6-3.4l26.5-15h22.7zm-8.7 18.4c0-2.8-2.2-5.1-5.1-5.1s-5.1 2.2-5.1 5.1 2.2 5.1 5.1 5.1 5.1-2.4 5.1-5.1zm33.6-18.4H57.6v-5.1h30.8z" class="st0"/><path d="M46.2 148.6h11.4v5.1H46.2zm3.5 18.3c2.8 0 5.1 2.2 5.1 5.1s-2.2 5.1-5.1 5.1-5.1-2.2-5.1-5.1 2.4-5.1 5.1-5.1z" class="st1"/><path d="M46.2 153.7H15.4v-5.1h30.8zm-15.1 29.4H.2v-6.6l3.8-2.1c1 1.6 3.1 2.7 5.6 2.7s4.6-1.2 5.7-2.9l15.8 8.9zm-15.2-11c0 .8-.2 1.5-.6 2.1l-5.5-3.1 4.4-2.5c1.1 1 1.7 2.2 1.7 3.5z" class="st0"/><path d="M3.9 148.6h11.4v5.1H3.9z" class="st1"/><path d="m9.8 171.2 5.5 3.1c-1 1.7-3.1 2.9-5.7 2.9S5.1 176 4 174.4l5.8-3.2zm-.2-4.3c1.8 0 3.4.6 4.6 1.6L9.8 171l-4.6-2.6c1.1-.9 2.7-1.4 4.4-1.5z" class="st0"/><path d="M9.8 171.2 4 174.4c-.4-.7-.7-1.5-.7-2.3 0-1.4.7-2.6 1.8-3.5l4.7 2.6z" class="st0"/><path d="m.2 165.7 4.9 2.7c-1.1.9-1.8 2.1-1.8 3.5 0 .8.2 1.6.7 2.3l-3.8 2.1v-10.6z" class="st0"/><path d="M215.2 148.6H.2V79.8h272.7v68.8h-46.3z" style="fill:#d2d296"/><path d="M.2 153.7h40.6l-26.6 15c-1.1-1-2.8-1.6-4.6-1.6s-3.3.6-4.4 1.5l-4.9-2.7-.1-12.2z" class="st0"/><path d="M272.9 183.1H.2M.2 74h272.7M.2 79.8h272.7m-3.9 68.8h3.9m-46.3 0h30.9m-73.1 0h30.8m-73.1 0h30.8m-73 0h30.8m-73.1 0h30.8m-73 0h30.8m-46 0h3.7m265.1 5.1h3.9m-46.3 0h30.9m-73.1 0h30.8m-73.1 0h30.8m-73 0h30.8m-73.1 0h30.8m-73 0h30.8m-46 0h3.7m69.3 29.4 15.5-8.7 5.8-3.2 4.4-2.6 26.6-14.9" class="st3"/><path d="m115.8 183.1-15.8-8.9-5.5-3-4.6-2.7-26.4-14.8m77.3 18.4c0 2.8-2.2 5.1-5.1 5.1-2.8 0-5.1-2.2-5.1-5.1s2.2-5.1 5.1-5.1 5.1 2.2 5.1 5.1zm85.6 0c0 2.8-2.2 5.1-5.1 5.1s-5.1-2.2-5.1-5.1 2.2-5.1 5.1-5.1 5.1 2.2 5.1 5.1z" class="st3"/><path d="M98.9 168.6c1 .9 1.6 2.1 1.6 3.4 0 .8-.2 1.5-.6 2.1-1 1.7-3.1 2.9-5.7 2.9-2.5 0-4.5-1.1-5.6-2.7-.4-.7-.7-1.5-.7-2.3 0-1.4.7-2.6 1.8-3.5 1.1-.9 2.7-1.5 4.4-1.5 2-.1 3.6.6 4.8 1.6zM.2 176.5l3.8-2.1 5.8-3.2 4.5-2.6 26.5-14.9" class="st3"/><path d="m31.1 183.1-15.8-8.9-5.5-3-4.6-2.7-5-2.8" class="st3"/><path d="M14.3 168.6c1 .9 1.6 2.1 1.6 3.4 0 .8-.2 1.5-.6 2.1-1 1.7-3.1 2.9-5.7 2.9s-4.5-1-5.6-2.6c-.4-.7-.7-1.5-.7-2.3 0-1.4.7-2.6 1.8-3.5s2.7-1.5 4.4-1.5c1.9-.2 3.6.5 4.8 1.5zm143.4 14.5 15.5-8.7 5.8-3.2 4.4-2.6 26.6-14.9" class="st3"/><path d="m200.2 183.1-15.7-8.9-5.5-3-4.8-2.7-26.2-14.8" class="st3"/><path d="M183.4 168.6c1 .9 1.6 2.1 1.6 3.4 0 .8-.2 1.5-.6 2.1-1 1.7-3.1 2.9-5.7 2.9-2.5 0-4.5-1.1-5.6-2.7-.4-.7-.7-1.5-.7-2.3 0-1.4.7-2.6 1.8-3.5s2.7-1.5 4.4-1.5c2-.1 3.6.6 4.8 1.6zm58.8 14.5 15.4-8.7 5.9-3.2 4.4-2.6 5-2.8" class="st3"/><path d="m272.9 176.4-3.9-2.2-5.5-3-4.8-2.7-26.3-14.8" class="st3"/><path d="M267.9 168.6c1 .9 1.6 2.1 1.6 3.4 0 .8-.2 1.5-.6 2.1-1 1.7-3.1 2.9-5.7 2.9-2.5 0-4.5-1.1-5.6-2.7-.4-.7-.7-1.5-.7-2.3 0-1.4.7-2.6 1.8-3.5s2.7-1.5 4.4-1.5c2-.1 3.6.6 4.8 1.6zm-213.1 3.5c0 2.8-2.2 5.1-5.1 5.1s-5.1-2.2-5.1-5.1 2.2-5.1 5.1-5.1 5.1 2.2 5.1 5.1zM3.9 148.6h11.4v5.1H3.9zm42.3 0h11.4v5.1H46.2zm42.2 0h11.4v5.1H88.4zm42.3 0h11.4v5.1h-11.4zm42.2 0h11.4v5.1h-11.4zm42.3 0h11.4v5.1h-11.4zm42.3 0h11.4v5.1h-11.4z" class="st3"/></g><g id="_レイヤー_2"><defs><path id="SVGID_1_" d="M273.3 162.2H14.6L12.1-1h260.8z"/></defs><clipPath id="SVGID_00000128477024916461529240000013964807609553857708_"><use xlink:href="#SVGID_1_" style="overflow:visible"/></clipPath><g style="clip-path:url(#SVGID_00000128477024916461529240000013964807609553857708_)"><path d="M275.4 124.1v7.2s-9.2 6.5-11.4 7.1c-.9.2-2.1-.3-3.3-1.3-1.9-1.6-3.9-4.5-4.4-8-.4-1 .3-3.7-6.5.2-2.3 1.4-4.6 3.5-6.7 5.9-3.2 3.6-6.1 7.7-7.9 10-.3.4-.6.8-.9 1.1-2.6 2.9-5.6 7.1-7.3 7.1s-4.4-2.1-7.3-3.9c-.5-.3-1-.5-1.4-.7 2.6-1.3 1.2-13.6 1.2-13.6 11.2-3.6 32.5-12.1 37-12.7 5.5-.7 13.4-.4 16.2.7l2.7.9z" class="st5"/><path d="m274.3 108.9 1.1 15.2-2.7-1.1c-2.7-1.1-10.7-1.5-16.2-.7-4.3.6-25.7 9.1-37 12.7-2.7.9-4.9 1.5-6 1.6-.9.1-1.9.2-2.9.2v-.3c-3.1-1.1-5.2-6-6.6-11.3 7.4.3 11.5 1.4 18.8-1s23.1-8.7 29.4-10.8c6.3-2.1 20.4-4.4 20.4-4.4l1.7-.1z" class="st6"/><path d="M274.3 105.4v3.5h-1.6s-14 2.4-20.4 4.4c-6.3 2.1-22.1 8.4-29.4 10.8-7.3 2.4-11.4 1.3-18.8 1-.3-1.4-.7-2.8-.9-4.2 0 0 5.4.7 9.7.2s15.5-2 21.1-4.6c5.7-2.6 18-8.3 24.8-9.3 6.7-.9 15.4-1.8 15.5-1.8z" class="st7"/><path d="M274.3 102.2v3.1s-8.8.9-15.6 1.9c-6.8 1-19.1 6.8-24.8 9.3-5.7 2.6-16.8 4-21.1 4.6-4.3.5-9.7-.2-9.7-.2-.3-1.6-.5-3.1-.7-4.5 0 0 9.5 1 15.9 0s19.4-4.9 28.3-9.1c8.9-4.3 25.7-5.2 27.7-5.1z" class="st7"/><path d="M274.3 101v1.2c-2-.1-18.8.7-27.7 5.1-8.9 4.2-21.9 8.1-28.3 9.1-6.4 1-15.9 0-15.9 0-.4-3-.6-5.6-.7-6.9 0-.5-.1-.9-.1-1.3 0 0 18.4-6 27.6-6.6 9.1-.5 35.6-2.4 45.1-.6z" class="st8"/><path d="M274.3 93.7v7.3c-9.4-1.8-36 .1-45.1.7-9.2.6-27.6 6.6-27.6 6.6-.3-2.8-1-4.3-3-5.2 1.6-1.2 16.9-5.9 28.1-7.3 11.2-1.5 40-3.2 47.6-2.1z" class="st6"/><path d="M274.3 82.1v11.6c-7.6-1.1-36.3.6-47.6 2.1-11.2 1.5-26.5 6.1-28.1 7.3-.6-.2-1.3-.4-2.1-.5-1-.1-2-.3-3.2-.4-3.2-.3-7.5-.6-16.1-.5-.7-.7-1.5-1.3-2.2-1.9 15-6.7 35.7-13.8 56.8-16.8 21.1-2.9 41.1-1.9 42.5-.9z" class="st6"/><path d="M274.3 66.5v15.6c-1.4-1-21.3-2-42.3 1-21 2.9-41.8 10.1-56.8 16.8-2.3-1.9-4.9-3.2-9.4-3.7 15.6-8.1 38.5-17.7 61.6-22.9 22.8-5.2 46.9-6.8 46.9-6.8z" class="st6"/><path d="M274.3 44.8v21.7s-24.1 1.5-47.1 6.7-46 14.9-61.6 22.9c-1.7-.2-3.7-.3-6.1-.3-4 .1-9 .6-13.8 1.2 0 0-.4-.5-1-1.2 19.6-10.1 34.6-19.5 49.3-24.6 14.7-5.2 49-12.2 59.7-11.8 3.4-2.3 4.6-3 5-3.2l.1-.1c.3-.2.6-.4 1-.8 3.4-3.3 11.6-10.1 14.5-10.5z" class="st6"/><path d="M255.3 137.8c-5.9-.1-12.2-2.7-12.2-2.7 2.1-2.3 4.3-4.4 6.7-5.9 6.7-3.9 6.1-1.2 6.5-.2.5 3.4 2.5 6.4 4.4 8-1.6.7-3.5.9-5.4.8z" class="st5"/><path d="M256.8 48.9c.3 3.5-.3 8.3 1.8 7.3-.3.2-1.5.9-5 3.2-10.7-.3-45 6.8-59.7 11.8-14.7 5.2-29.7 14.5-49.3 24.6-1.2-1.5-3.1-4-4.4-6.1 0 0 14-10.5 26.2-17.1s38.7-18.4 53-20.7c14.2-2.3 22.5-2.3 22.5-2.3 3.4-2.6 4.4-5.6 8.9-7.4 1.3-.4 2.2-.7 2.6-.7 1.6-.1 3 3.2 3.4 7.4z" class="st6"/><path d="M243.1 135.1s6.4 2.6 12.2 2.7c-7 6.5-20.1 7.3-20.1 7.3 1.9-2.3 4.6-6.4 7.9-10z" class="st5"/><path d="M241.1 44.8c2.7-.4 7-1.7 9.8-2.5-4.4 1.8-5.5 4.8-8.9 7.4l-.9-4.9z" class="st6"/><path d="m241.1 44.8.9 4.9s-8.4 0-22.5 2.3c-14.2 2.3-40.7 14.2-53 20.7s-26.2 17.1-26.2 17.1c-.4-.6-.8-1.2-1-1.7-1.3-2.7-3.5-9.2-3.6-9.6 0 0 11.3-6.5 17.8-10.9 4.4-3 25.7-19 49.4-30.4 2.4-1.1 4.9-2.2 7.4-3.3 2.2-.9 4.3-1.8 6.6-2.6 3.6-1.3 7.4-2.5 10.9-3.4 2.3-.6 4.6-1.1 6.9-1.5 1.8 11.9 2.3 17.6 4.2 18.5.3.1 1.1.1 2.2-.1z" class="st6"/><path d="M223.4 26.5c2.6.8 4.2 1.3 4.2 1.3-3.6.9-7.3 2.1-10.9 3.4-2.7-1.7-18.9-5.9-29.8-6.4-10.9-.6-29.7 4.1-29.7 4.1-.5-1.3-.8-2.2-.8-2.2.9-1.3 1.8-2.5 2.6-3.7 10.9-3.6 23.2-6.7 37.5-3.6 9.8 2.1 20.9 5.3 26.9 7.1z" class="st7"/><path d="M219.5 135s1.4 12.4-1.2 13.6c-2.2-.6-4.6.6-10.3-.1-6.8-.9-26.3-4.4-31.9-9 4.1-1.8 8.1-3.7 11.1-5.6 9.4 1.3 17.5 2.7 23.4 2.6 1.1 0 2-.1 2.9-.2 1.3.1 3.4-.5 6-1.3zM202.7 11.8c7.1 4.4 13.7 9.8 20.5 14.7-6-1.8-17.1-5-26.9-7.2-14.2-3.1-26.6 0-37.5 3.6.9-1.5 1.7-2.8 2.1-3.8-2.4-.2-22.2 4.4-22.2 4.4.8-2.3 1.6-5.1 1.5-6.6h-.2c.4-.4.8-1 1-1.7 5.8-2.3 11.5-4.4 17.4-6.6 13.7-4.6 32-4.7 44.3 3.2z" class="st5"/><path d="M216.7 31.3c-2.2.8-4.3 1.7-6.6 2.6l-.1-.3c-2.3-.6-15.9-3.6-23-3.6s-15.1.8-28.2 3.6c-.5-1.5-1.1-3.2-1.6-4.5 0 0 18.8-4.6 29.7-4.1 10.9.4 27.1 4.5 29.8 6.3z" class="st7"/><path d="M210.6 136.5v.2c-6 .1-14-1.4-23.4-2.6 0 0-4.1-1.1-9.9-3.1 6.1-3.1 11.9-7.3 12.4-12.2 0 0-1.2-1.9-3-4.6-.5-.8-1.1-1.6-1.6-2.4-.1-.2-.3-.4-.5-.7 0 0 8.7-7.5 8.7-8.8 1.1.1 2.2.2 3.2.4.8.1 1.5.3 2.1.5 1.9.8 2.6 2.3 3 5.2.1.4.1.8.1 1.3.1 1.3.3 3.8.7 6.9.2 1.4.4 3 .7 4.5l.9 4.2c1.4 5.3 3.5 10.2 6.6 11.2z" class="st6"/><path d="m209.9 33.5.1.3c-2.4 1-5 2.1-7.4 3.3-10.5-.6-22.6-1-29.6-.9-5.1.1-9.2.2-13.4 1.2l-.1-.3c.1-.5-.3-1.9-.9-3.6 13.1-2.8 20.9-3.6 28.2-3.6 7.4 0 20.9 3 23.1 3.6z" class="st7"/><path d="M193.4 102.3c0 1.3-8.7 8.8-8.7 8.8l-1.5-2.1c-2.1-2.9-4.2-5.8-5.9-7.2 8.6-.1 12.8.1 16.1.5z" class="st6"/><path d="M189.7 118.7c-.5 5-6.4 9.1-12.4 12.2 0 0-2.5.7-6.8 1.8-1.5.4-3.1.4-4.8.1-.6-.1-1.3-.3-1.9-.5-2.5-.9-5.3-2.6-8-5.1 5.5-1.8 12.3-3.6 16.2-4.1 5-.6 17.7-4.4 17.7-4.4z" class="st5"/><path d="M144.1 131c-.3.1-.6.1-.9.1-5.2.7-10.8.8-13.2.4 0 0 .1-1.3 0-3.1 0-.2-.1-.4-.2-.6 8.9-.6 17.6-2.3 24.3-4.8 6.8-2.4 15.1-5.6 19.8-6.6 4.8-1 12.9-2.4 12.9-2.4 1.7 2.6 3 4.6 3 4.6s-12.7 3.8-17.8 4.4c-3.7.5-10.7 2.2-16.2 4.1-1.9.7-3.6 1.3-5 1.9-1.7 1-4.1 1.6-6.7 2z" class="st7"/><path d="M185.1 111.7c.6.8 1.1 1.7 1.6 2.4 0 0-8.2 1.4-12.9 2.4-4.8 1-13.1 4.1-19.8 6.6-6.8 2.4-15.4 4.1-24.3 4.8-1.1-1.6-6.1-3.4-7.7-4-.1 0-.2-.1-.2-.1s6.7 1.1 17.2 0 23.9-6.7 27.9-8.2c3.9-1.5 15.4-4.1 18.2-3.9z" class="st7"/><path d="m183 108.9 1.5 2.1c.2.2.3.4.5.7-2.7-.2-14.3 2.3-18.3 3.8s-17.4 7.1-27.9 8.2-17.2 0-17.2 0c-.5-.2-.9-.2-1.4-.1h-.2c-1.1.2-3.6 0-5.9-.2-2.2-.2-4.2-.5-4.2-.5s-11.6 13.5-13.3 13.5c-.4-.3-.8-.5-1.2-.8-2.4-1.6-4.4-3.5-6-5.2-1.5-1.6-2.5-3-3-4-1.3-2.4-2.8-6.8-3.5-10.5-.3-1.3-.4-2.6-.4-3.6 0-2 .2-4.6.9-7.2.4-1.4.9-2.8 1.7-4.1.7-1.2 1.6-2.2 2.7-3 .6-.4 1.5-1 2.6-1.8 2.7-1.8 6.9-4.5 10.9-7.2.5-4.6 6-17.4 6-17.4.6-.4 1.2-.8 1.6-1.1 5.9-3.8 17-8.3 20.9-10 1.6-.7 2.7-1.3 3.4-1.8 0 0 .7 5.5 1.4 11.5.3 2.8.6 5.9.9 8.4.2 2.4.4 4.5.4 5.9 0 5.7-.1 13.8-.1 14 3.1-.4 6.5-.9 9.8-1.3 5-.6 9.8-1.1 13.8-1.2 2.4 0 4.3.1 6.1.3 4.5.5 7.1 1.8 9.4 3.7.7.6 1.4 1.2 2.2 1.9 1.7 1.3 3.9 4.1 5.9 7z" class="st8"/><path d="M177.3 130.9c5.9 2 9.9 3.1 9.9 3.1-3 1.7-7 3.7-11.1 5.6-6.8 2.9-14.3 5.6-20.2 6.5-9.6 1.5-20.8 0-20.8 0 1.3-2 2.6-4.2 3.7-6.3 0 0 10.8.1 15.1-1.4 4.2-1.5 9.7-2.8 11.7-5.7 1.7.3 3.2.3 4.8-.1 4.4-1 6.9-1.7 6.9-1.7z" class="st5"/><path d="M173.2 36.2c6.9-.1 19.1.3 29.6.9-23.8 11.3-44.9 27.4-49.4 30.4-6.5 4.3-17.8 10.9-17.8 10.9-.2-2.6-.5-5.6-.9-8.4h.1c.6-1.9 5.3-7.4 9.8-13.9l3.9 2.4 3.9-7.5 2.3-4.3 3-5.8c-1.3-.5-2.7-1-4.2-1.5l1.1-.4c1.6-.6 3.2-1.1 4.9-1.5 4.4-1 8.7-1.2 13.7-1.3z" class="st8"/><path d="M163.7 132.3c.7.2 1.3.4 1.9.5-2 2.8-7.5 4.2-11.7 5.7-4.3 1.5-15.1 1.4-15.1 1.4 2.5-4.6 4.3-8.7 4.3-8.7.3 0 .6-.1.9-.1.1.1 3.4 2.9 8.4 3 4.5.1 11-1.8 11.3-1.8zM159 23c-.8 1.2-1.7 2.4-2.6 3.7-3.6 5-8.1 10-9.5 10.4-5.1-1.4-9.8-2.4-12-2.2 1-2.7 2.1-5.5 3-8.2.2-.7.7-1.8 1.1-3.1 0 0 19.8-4.6 22.2-4.4-.5 1-1.3 2.3-2.2 3.8z" class="st5"/><path d="M155.8 127.3c2.7 2.4 5.5 4.1 8 5.1-.2.1-6.9 1.8-11.2 1.8-5-.1-8.3-2.8-8.4-3 2.6-.4 5.1-1 6.7-1.8 1.2-.8 2.9-1.5 4.9-2.1zm3.9-90.2.1.3c-1.6.4-3.1.8-4.9 1.5l-1.1.4c-2.2-.8-4.6-1.5-7-2.2 1.4-.5 5.9-5.6 9.5-10.4 0 0 .3.9.8 2.2s1.1 3 1.6 4.5c.6 1.8 1 3.3 1 3.7z" class="st5"/><path d="m158.1 40.9-3 5.8s-7.5-2.7-10.8-3.8-11.7-2.3-11.9-2.4c.9-1.6 1.8-3.2 2.4-5 .1-.2.1-.4.2-.6 2.2-.2 7 .8 12 2.2 2.3.7 4.8 1.4 7 2.2 1.3.6 2.8 1.1 4.1 1.6z" class="st7"/><path d="m154.9 46.6-2.3 4.3c-7.2-4-21.2-6.4-22.5-6.6.6-1.4 1.3-2.7 2.1-4.1.2 0 8.6 1.2 11.9 2.4 3.4 1.4 10.8 4 10.8 4z" class="st7"/><path d="m152.6 51.1-3.9 7.5-3.9-2.4c.7-1 1.4-2 2.1-3.1.5-.2-14.7-2.2-14.7-2.2h-.1c-.2-.6-.5-1.5-1-2.8-.2-.5-.8-2.2-1.1-3.1 0-.1.1-.1.1-.2 1.2-.1 15.2 2.2 22.5 6.3z" class="st7"/><path d="M132.2 50.7s15.2 2.1 14.7 2.2c-.7 1-1.4 2.1-2.1 3.1-4.6 6.6-9.2 12-9.8 13.9h-.1c-.7-6.1-1.4-11.5-1.4-11.5 1-.7 1.2-1.3 1.4-1.9.4-1 0-2.8-.8-4.1-.2-.4-.5-.6-1.4-.4v-.1c-.2 0-.3-.3-.5-1.2zm12.5 45.2c.6.7 1 1.2 1 1.2-3.3.4-6.7.9-9.8 1.3 0-.3.1-8.4.1-14 0-1.3-.1-3.4-.4-5.9.1.4 2.4 6.9 3.6 9.6.2.5.6 1.1 1 1.7 1.3 2 3.3 4.5 4.5 6.1zm-1.6 35.3s-1.7 4-4.3 8.7c-1.1 2-2.4 4.2-3.7 6.3-2.6 3.9-5.6 7.4-8.2 8.2-2.5-.1-3.6.1-4.9-.8-.4-.3-.8-.7-1.2-1.2-2-2.3-8.9-11.8-8.9-11.8 7.3-1 14.5-6.5 18-9 2.4.4 8.1.3 13.2-.4z" class="st8"/><path d="M93.2 39.4v-3.7c-1.9 1.4-3.8 2.8-5.5 3.9-2.3 1.6-4.1 2.8-5 3.2-.2-.2-.4-.5-.6-.7-2-2-3.8-4.2-6.1-5.6v-.1c2.3 1.1 44.1-28.3 48.5-32.2C128.3.8 134.3 1 137.6 3s4 6.7 4 9.6c0 .7-.2 1.7-.6 2.7-.3.7-.6 1.3-1 1.7-.6-.2.2-2.9-.2-2.8-.4.1-2.1-.3-3.7-1.3s-2.8-2.7-3.6-4c-.9-1.3-1.7-1.7-2.7-.7s-3.2 1.7-3.7 2.3c-.4.6-6.3 8.3-8.8 12l-.7-.3c-3.8 4.8-19.1 17-23.3 20.3l-.1-3.1zm36.9 5.1c0 .1-.1.1-.1.2-.2.5-.4.9-.5 1.4-1.4-1.8-2.8-3.7-3.1-6.1-.1-1.3.5-2.5 1.3-3.7.6-.9 1.3-1.8 1.8-2.6.9-.5 1.7-1.1 2.5-1.6 3.9-2.8 8.3-15.2 8.3-15.2h.2c.1 1.4-.7 4.2-1.5 6.6-.4 1.3-.8 2.4-1.1 3.1-.9 2.7-2 5.5-3 8.2-.1.2-.2.4-.2.6-.6 1.7-1.5 3.3-2.4 5-.9 1.4-1.6 2.7-2.2 4.1z" class="st1"/><path d="m117.1 36-.1.2s-8.5 8.3-15.8 14.5L100.1 39c6.5-5.4 15.2-13.3 16.6-15.5.2-.3.4-.6.7-1 2.5-3.6 8.4-11.4 8.8-12 .5-.6 2.7-1.3 3.7-2.3s1.8-.6 2.7.7 2 3.1 3.6 4c1.6 1 3.3 1.3 3.7 1.3.4-.1-.4 2.6.2 2.8 0 0-4.2 12.3-8.3 15.2-.7.5-1.6 1.1-2.5 1.6-.7.4-1.4.8-2.2 1.1-1.4.6-3 1.1-4.6 1.3-1.6.2-3.4.2-5.4-.2zm21.8-17.5c.1-.3-.2-.7-.8-1s-1.2-.3-1.3-.1c-.1.3.2.7.8 1 .6.4 1.2.4 1.3.1zm-7.4-3.8c.1-.3-.3-.7-.9-1s-1.2-.3-1.3 0 .3.7.9 1c.6.3 1.2.3 1.3 0zm-3.9 18-.7-.7-.5-.2s0-.3-.3-.4c-.3-.2-2.5 0-2.5 0v.3c.2 1.3.8 2.7 3.2 1.5.2-.2.6-.4.8-.5z" style="fill:#f7f1d7"/><path d="M138.1 17.5c.6.3.9.8.8 1-.1.3-.7.3-1.3-.1-.6-.3-.9-.8-.8-1 .1-.2.7-.2 1.3.1z" class="st1"/><path d="M136.2 24.1c.1.1.2.2.2.3 0 .2-.2.4-.4.4s-.4-.2-.4-.4.2-.4.4-.4l.2.1c-.1-.1-.1 0 0 0z"/><path d="M133.9 52.5c.8 1.3 1.2 3.1.8 4.1-.2.6-.5 1.2-1.4 1.9-.7.5-1.7 1.1-3.4 1.8-3.9 1.7-15.1 6.2-20.9 10-.5.3-1 .7-1.6 1.1C101.7 75.1 90.2 83 90.2 83c-1.9-.9-2.3-2.4-2.3-3.5 0-.3 0-.6.1-.8 0 0 .3-.3.9-.8 2.4-2.2 9.7-8.4 18.9-14 4.6-2.9 9.9-5.9 15.1-8 5.8-2.6 8.4-3.6 9.7-3.8.8-.2 1 0 1.3.4z" class="st6"/><path d="M132.5 51.9c-1.3.3-3.9 1.4-9.7 3.9-5.2 2.1-10.4 5.1-15.1 8-9.2 5.8-16.5 12-18.9 14.2-.2-.8-1.3-3.6-2.8-6.7h.5c9-6.4 38.5-35 36.2-35 1.6-.2 3.2-.7 4.6-1.3 0 0 .1.3.4 1.5-.8 1.2-1.4 2.4-1.3 3.7.2 2.3 1.7 4.2 3.1 6.1.1-.5.3-1 .5-1.4.3.9.9 2.7 1.1 3.1.4 1.3.7 2.2 1 2.8.2.8.3 1.1.4 1.1z" class="st8"/><path d="M130.7 13.7c.6.3 1 .7.9 1s-.7.3-1.3 0-1-.7-.9-1 .7-.3 1.3 0z" class="st1"/><path d="M129.9 128.5c.1 1.8 0 3.1 0 3.1-6.4.5-14.6-2.3-14.6-2.3l-.2-.1c1.4-2 2.4-3.5 2.8-3.9.8-.9 1.5-1.3 2.1-1.5h.2c.5-.1.9 0 1.4.1.1 0 .2.1.2.1 1.6.7 6.6 2.4 7.7 4 .3.1.4.2.4.5z" class="st5"/><path d="M107.8 140.6c-.5-.1-1-.1-1.4-.3 2.6-2.7 6.3-7.8 8.7-11.3l.2.1s8.2 2.8 14.6 2.3c-3.5 2.5-10.7 8-18 9-1.4.3-2.7.4-4.1.2z" class="st5"/><path d="M128.4 19.8c.1.1.2.2.2.3 0 .2-.2.4-.4.4s-.4-.2-.4-.4.2-.4.4-.4c.1 0 .1.1.2.1zm-.2-.4c-.1 0-.1-.1-.2-.1.1 0 .2 0 .2.1z"/><path d="m126.8 32 .7.7c-.2.1-.5.3-.7.4v-.3c-1.2-.1-2.2-.5-3.2-1.2v-.3s2.2-.2 2.5 0 .3.4.3.4l.4.3z" class="st5"/><path d="M126.8 32.8v.3c-2.4 1.2-3-.2-3.2-1.5l3.2 1.2z" class="st5"/><path d="M93.2 56.5c2-1 5-3.2 8.1-5.9 7.4-6.2 15.8-14.5 15.8-14.5l.1-.2c1.8.4 3.6.5 5.4.2 2.4 0-27.2 28.6-36.2 35h-.5c-1.8-3.7-4.2-7.8-6-9.3 1.5-4.4 2.9-8.4 3.6-11.7 0 0 1-.7 2.5-1.6 1.3-.8 2.8-1.8 4.2-2.7 1.1-.7 2.1-1.4 2.8-1.9l.2 12.6zm28.8 97.1-4.2 2.1-2-2.9-8-12c1.3.2 2.7.1 4-.1 0 0 6.9 9.5 8.9 11.8.5.4.9.8 1.3 1.1z" class="st6"/><path d="M114.2 123.4c2.2.2 4.8.4 5.9.2-.7.2-1.3.7-2.1 1.5-.4.4-1.4 1.9-2.8 3.9-2.5 3.5-6.1 8.5-8.7 11.3-.7-.1-1.4-.3-2.1-.5-1.3-.4-2.6-.8-3.8-1.4 6.7-5.2 13.6-15 13.6-15z" class="st7"/><path d="m116.5 22.2.7.3c-.3.4-.5.7-.7 1-1.4 2.1-10.1 10.1-16.6 15.5-2.5 2.1-4.8 3.8-6 4.6-.1.1-.4.3-.8.6v-1.7c4.3-3.3 19.6-15.7 23.4-20.3z" class="st1"/><path d="m107.8 140.6 8 12-5.3 2.9-6.3-15.8c.7.2 1.4.4 2.1.5.5.3 1 .4 1.5.4z" class="st6"/><path d="M110.1 122.8s1.9.3 4.2.5c0 0-6.9 9.8-13.8 15.2-1.3-.6-2.6-1.2-3.7-2 1.5 0 13.3-13.7 13.3-13.7z" class="st7"/><path d="m104.2 139.9 6.3 15.8c-.4-.2-.7-.4-1.1-.6-6.2-3.8-12-14.5-14-19.3.4.3.8.5 1.2.8 1.1.7 2.4 1.4 3.7 2 1.3.4 2.6.9 3.9 1.3z" class="st6"/><path d="m109.5 155.1.6 2.4s-2.3.7-5.8 1.4c-2.6-.8-6.3-7.3-9.3-14.2-2.3-5.4-4.4-10.9-5.5-14.2 1.5 1.7 3.5 3.5 6 5.2 1.9 4.9 7.8 15.5 14 19.4z" class="st6"/><path d="M107.3 71.5s-5.5 12.7-6 17.4c-4 2.6-8.2 5.4-10.9 7.2.3-4.9.7-8.9-.2-12.8 0-.1-.1-.2-.1-.2.1 0 11.6-7.9 17.2-11.6z" class="st8"/><path d="m100.1 39 1.3 11.7c-3.1 2.6-6.2 4.9-8.1 5.9V44.1c.4-.3.7-.5.8-.6 1.2-.7 3.4-2.5 6-4.5 0-.1 0 0 0 0z" class="st6"/><path d="M94.9 144.7c-.5 0-1 .1-1.5.1-3.1-8.5-8.7-13.1-15-18.8.4-1.7.6-2.8.6-2.8 1.8-3 3.1-5.6 3.8-7.1.7 3.8 2.2 8.2 3.5 10.5.5 1 1.5 2.4 3 4 1.2 3.3 3.3 8.8 5.6 14.1z" class="st8"/><path d="M93.2 42.5v1.6c-.7.5-1.7 1.1-2.8 1.9l.5-4.9-.1-.1c.7-.5 1.5-1.1 2.4-1.7v3.2z" class="st1"/><path d="M93.2 35.6v3.7c-.9.7-1.7 1.2-2.4 1.7-1.8 1.3-2.9 2-2.9 2h-.8l.6-3.4c1.6-1.1 3.6-2.6 5.5-4z" class="st1"/><path d="M93.4 144.8c-11 .3-18.4-2.7-18.9-2.9 1.7-5.6 3.2-12.2 3.9-15.9 6.2 5.6 11.9 10.3 15 18.8z" class="st5"/><path d="m90.8 41.1-.4 4.9c-1.4.9-2.9 1.9-4.2 2.7l1-5.8.7.1c-.1.1 1-.6 2.9-1.9z" class="st1"/><path d="M90.3 83.3c.9 3.9.5 8 .2 12.8-1.1.8-2 1.4-2.6 1.8-1.1.8-2 1.8-2.7 3 1-2.1.4-8.6.4-8.6.7-1.3 1.6-3 2.3-4 1.5-1 2.6-4.2 2.4-5z" class="st8"/><path d="M90.3 83.3c.1.9-.8 3.9-2.4 5-.3.2-.6.3-.9.4h-.4c-.1 0-.2 0-.3-.1-.1 0-.2-.1-.3-.1-.2-.1-.4-.3-.6-.4-.2-.2-.3-.3-.4-.5-.4-.6-.6-1.3-.7-1.8 0-.1-.1-.3-.1-.4-.3-1.4 2.2-5.4 3.8-5.7 0 1.1.4 2.6 2.3 3.6 0-.2 0-.1 0 0z" class="st6"/><path d="M86 71.3c1.5 3 2.7 5.9 2.8 6.7-.6.5-.9.8-.9.8-.1.2-.1.5-.1.8-1.6.4-4.1 4.3-3.8 5.7-1.1-2.9-6.7-14-6.7-14 1.1-3.6 2.1-6.9 2.6-9.2 1.9 1.4 4.3 5.5 6.1 9.2z" class="st8"/><path d="m87.7 39.6-.6 3.4-1 5.8c-1.4.9-2.5 1.6-2.5 1.6.6-3.1.5-5.7-.9-7.6.9-.4 2.7-1.6 5-3.2z" class="st1"/><path d="M86.9 88.7c.3 0 .6-.2.9-.4-.7 1-1.6 2.7-2.3 4l-.9 1.8-1.2-.7c1.4-2.4 2.5-3.9 3.5-4.7z" class="st6"/><path d="M86.1 88.7h.7c-1 .8-2 2.3-3.4 4.9l-.9-.6c-.2-.3 3.1-4.4 3.6-4.3z" class="st6"/><path d="M86.1 88.6c-.5 0-3.8 4.1-3.6 4.4l-1.1-.5c.4-.6 1.5-2.1 4.2-3.9l.2-.1c.2.1.3.1.3.1z" class="st6"/><path d="M81.5 92.5c-.1.2-.2.3-.2.3l-.9-.6.5-.6s3.2-3.2 4.2-3.3l.1-.1c.2.2.4.3.6.4l-.2.1c-2.6 1.7-3.7 3.2-4.1 3.8z" class="st6"/><path d="M85.5 92.4s.7 6.5-.4 8.6c-.8 1.3-1.3 2.7-1.7 4.1-.6-2.9-2.5-7.9-4.3-12.5l1.3-.5.9.6s.1-.1.2-.3l1.1.5.9.5 1.2.7c-.1.1.3-.7.8-1.7z" class="st8"/><path d="M85.3 88.1c-1.2.2-4.3 3.4-4.3 3.4l-.7-.7s3.4-3.1 4.4-3.2l.2-.1c.1.3.2.4.4.6z" class="st6"/><path d="m80.2 89.5-.4-.8 4.2-2.9h.1c.1.5.4 1.2.7 1.8l-.2.1c-1 .1-4.4 3.2-4.4 3.2l-.4-.7.4-.7z" class="st6"/><path d="m84.1 85.7-4.3 2.9.4.8-.5.6.4.7.7.7-.4.6-1.4.5c-2.4-6-5-11.5-5-11.5 1.1-3.2 2.2-6.7 3.2-9.9 0 0 5.5 11.1 6.7 14 .2.3.2.4.2.6z" class="st8"/><path d="M74.1 81.1s2.5 5.5 5 11.5c1.9 4.6 3.7 9.6 4.3 12.5-.7 2.5-.9 5.2-.9 7.2 0 1.1.1 2.3.4 3.6-.7 1.5-2 4-3.8 7.1-1.9 3.2-4.4 7-7.4 10.6-.8.9-1.6 1.9-2.4 2.8-11.3-5.7-21.7-18.8-27.1-31.5-5-11.7-5.5-23.4-3.6-30 2.8-.6 5.5-1.4 6-1.8 1.3-1.4 3.3-3.8 5.6-6.7.6-.8 1.2-1.6 1.9-2.4-7.3-5.4-13.4-18.2-13.4-18.2 2-.4 3.8-.8 5.1-1.1 5-1.2 17.8-6.1 24.8-8.6 3.2-1.2 5.7-.8 7.6.3 2.2 1.3 4 3.5 6.1 5.6.2.2.4.5.6.7 1.4 1.9 1.5 4.4.9 7.6-.6 3.3-2.1 7.2-3.6 11.7-.5 2.3-1.5 5.7-2.6 9.2-1.2 3.2-2.4 6.7-3.5 9.9z" class="st8"/><path d="M74.5 141.8c-1.4 4.6-3 8.7-4.4 9.7-3.7.2-8.3-.9-8.3-.9 4.6-6 8-9 10-17 2.9-3.6 5.5-7.4 7.4-10.6 0 0-.2 1.1-.6 2.8-.9 3.8-2.4 10.4-4.1 16z" class="st6"/><path d="M69.3 136.5c.8-.9 1.6-1.9 2.4-2.8-2 7.9-5.3 11-10 17l-.6.8s-2.7-1.3-5-2.5l2.8-2.8.1-.1 6.9-7c2-1.5 3.4-2.6 3.4-2.6z" class="st6"/><path d="M69.3 136.5s-1.3 1.1-3.4 2.5c-.2.1-.3.2-.5.4-8.6-6.2-18.4-17.1-25-27.1s-7.2-25-6-36.5c1.3-.2 2.8-.5 4.3-.8-1.8 6.7-1.3 18.4 3.6 30 5.3 12.8 15.7 25.8 27 31.5z" class="st7"/><path d="m65.8 139-6.9 7-.1.1c-.6.6-3.4 2.9-3.4 2.9l-2.4-2.5 4.4-3.4.2-.1 2-1.6.2-.4c.4.3.9.6 1.3.8 1.4-.8 2.7-1.6 3.9-2.4.5-.1.7-.2.8-.4z" class="st6"/><path d="M65.3 139.4c-1.1.8-2.4 1.6-3.9 2.4-.4-.3-.9-.5-1.3-.8-1.2-.8-2.4-1.6-3.6-2.5-10.2-8.1-18-20.2-22.5-27.4-5.3-8.3-5.2-16.2-5.8-30.5l-.2-.1c1.1-1.7 2.3-3.2 3.7-4.5.6 0 1.5-.1 2.6-.2-1.2 11.5-.7 26.5 6 36.5 6.6 10 16.4 21 25 27.1z" class="st7"/><path d="m60 141-.2.4-2 1.6-.2.1c-1.8 1.3-5.7 3-8 4.1l-3.1-3.7 8.1-4.1 1.9-1c1.1.9 2.3 1.8 3.5 2.6z" class="st6"/><path d="m56.5 138.4-1.9 1-10.6 3.9-1.4-3.8 7.1-4 .1-.1c.8.7 1.7 1.3 2.6 1.7 3.1 1.2 4.1 1.3 4.1 1.3z" class="st6"/><path d="M56.5 138.4s-1-.1-4.1-1.4c-.9-.4-1.8-1-2.6-1.7-1.1-.9-2.1-2-3-2.9-3-2.9-6.1-6-9-9-5.8-6.1-13.5-12.9-15.2-21.5-.5-2.4-.4-5 0-7.4.6-4.5 2.7-9.7 5.5-13.9l.1.1c.6 14.4.4 22.2 5.8 30.5 4.4 7.1 12.2 19.2 22.5 27.2z" class="st5"/><path d="M52.1 64.1c-.6.8-1.3 1.6-1.9 2.4-8.9-7.7-14.4-20-14.4-20 1-.2 1.9-.4 2.9-.6-.1 0 6.2 12.9 13.4 18.2z" class="st7"/><path d="M50.2 66.5c-2.2 2.8-4.2 5.3-5.6 6.7 0 0-2.7-2.5-4.6-3.7-.7-.4-2.3-2-4.2-4.4-3.4-4-8.1-10.2-11.6-16.3 0 0 6-1.1 11.6-2.2 0-.1 5.4 12.3 14.4 19.9z" class="st7"/><path d="M38.6 75c-1.5.3-3 .6-4.3.8-1.1.2-2 .3-2.6.2 0 0-.1-.2-.3-.7 0 0 3-10.7 4.3-10.3 2 2.4 3.5 4 4.2 4.4 1.9 1.1 4.6 3.7 4.6 3.7-.4.5-3.1 1.2-5.9 1.9z" class="st5"/><path d="M35.8 65c-1.4-.4-4.4 10.3-4.4 10.3-1-1.9-4-7.8-5.1-11.7-1.3-4.8-2.8-9.9-2.1-14.9C27.7 54.8 32.3 61 35.8 65z" class="st5"/><path d="M133.9 20.8s-.4 3-1.1 4.8c-.7 1.7-1.3 2.4-2.2 3.1s-2.9 0-2.9 0" class="st10"/><path d="M128.6 27.2c-.7-.1-1.1 0-1.5.4" class="st11"/><path d="M126.8 33.1c.2-.1.4-.2.7-.4l-.7-.7-.5-.2s0-.3-.3-.4c-.3-.2-2.5 0-2.5 0v.3c.3 1.2.9 2.6 3.3 1.4h0z" style="fill:none;stroke:#000;stroke-width:.75;stroke-linecap:round;stroke-linejoin:round"/><path d="M123.6 31.6c1 .7 2 1.1 3.2 1.2" class="st11"/><path d="M122.6 36.2c-1.7.2-3.5.2-5.4-.2-.6-.1-1.3-.3-1.9-.6m14.2-1.6c-.7.4-1.4.8-2.2 1.1-1.4.6-3 1.1-4.6 1.3M140.2 17s-4.2 12.3-8.3 15.2c-.7.5-1.6 1.1-2.5 1.6m-1.2-14.4c.3.1.5.2.7.3m-3.3-1.3s1.3.5 2.3.9m8.6 4.6.5.2m-2.1-1.1 1.5.8m-4.9-9.1c-.1.3-.7.3-1.3 0s-1-.7-.9-1 .7-.3 1.3 0c.7.3 1.1.7.9 1h0zm7.4 3.8c-.1.3-.7.3-1.3-.1-.6-.3-.9-.8-.8-1 .1-.3.7-.3 1.3.1.6.3.9.8.8 1z" class="st10"/><path d="M76.1 36.4h0c2.4 1.2 44.2-28.2 48.6-32.1 3.8-3.4 9.8-3.2 13.1-1.2s4 6.7 4 9.6c0 .7-.2 1.7-.6 2.7-.3.7-.6 1.3-1 1.7-.6-.2.2-2.9-.2-2.8s-2-.3-3.7-1.3c-1.6-1-2.8-2.7-3.6-4-.9-1.3-1.7-1.7-2.7-.7s-3.2 1.7-3.7 2.3c-.4.6-6.3 8.3-8.8 12-.3.4-.5.7-.7 1-1.4 2.1-10.1 10.1-16.6 15.5-2.5 2.1-4.8 3.8-6 4.6-.1.1-.4.3-.8.6-.7.5-1.7 1.1-2.8 1.9-1.4.9-2.9 1.9-4.2 2.7-1.4.9-2.5 1.6-2.5 1.6m46.1-5.8h0c.3.9 1 2.7 1.1 3.2.4 1.3.7 2.2 1 2.8l.4 1.2m-5.3-17s.1.3.4 1.5M90.2 83.1s11.5-7.9 17.2-11.6c.6-.4 1.2-.8 1.6-1.1 5.9-3.8 17-8.3 20.9-10 1.6-.7 2.7-1.3 3.4-1.8 1-.7 1.2-1.3 1.4-1.9.4-1 0-2.8-.8-4.1-.2-.4-.5-.6-1.4-.4-1.3.2-3.9 1.3-9.7 3.8-5.2 2.1-10.4 5.1-15.1 8-9.2 5.7-16.5 11.9-18.9 14-.6.5-.9.8-.9.8-.1.2-.1.5-.1.8 0 1.1.4 2.6 2.4 3.5h0zm32.4-46.9h0c2.4 0-27.2 28.6-36.1 35m30.6-35s-8.5 8.3-15.8 14.5c-3.1 2.6-6.2 4.9-8.1 5.9m6.9-17.6 1.3 11.7" class="st10"/><path d="M56.5 138.4s-1-.1-4.1-1.4c-.9-.4-1.8-1-2.6-1.7-1.1-.9-2.1-2-3-2.9-3-2.9-6.1-6-9-9-5.8-6.1-13.5-12.9-15.2-21.5-.5-2.4-.4-5 0-7.4.6-4.5 2.7-9.7 5.5-13.9h0c1.1-1.7 2.3-3.2 3.7-4.5 0 0-.1-.2-.3-.7-1-1.9-4-7.8-5.1-11.7-1.3-4.8-2.8-9.9-2.1-14.9 0 0 6-1.1 11.6-2.2 1-.2 1.9-.4 2.9-.6 2-.4 3.8-.8 5.1-1.1 5-1.2 17.8-6.1 24.8-8.6 3.2-1.2 5.7-.8 7.6.3 2.2 1.3 4 3.5 6.1 5.6.2.2.4.5.6.7 1.4 1.9 1.5 4.4.9 7.6-.6 3.3-2.1 7.2-3.6 11.7-.5 2.3-1.5 5.7-2.6 9.2-1 3.2-2.2 6.7-3.2 9.9-1.8 5.6-3.5 10.5-3.9 12.7-1 4.8-2.6 16.2-2.6 20.1" class="st10"/><path d="M28.1 80.6c.6 14.4.4 22.2 5.8 30.5 4.5 7.2 12.3 19.2 22.6 27.3 1.2.9 2.3 1.8 3.6 2.5.4.3.9.6 1.3.8 1.4-.8 2.7-1.6 3.9-2.4.2-.1.4-.2.5-.4 2.1-1.4 3.4-2.5 3.4-2.5-11.3-5.7-21.7-18.8-27.1-31.5-5-11.7-5.5-23.4-3.6-30h0" class="st10"/><path d="M31.7 76c.6 0 1.5-.1 2.6-.2 1.3-.2 2.8-.5 4.3-.8 2.8-.6 5.5-1.4 6-1.8 1.3-1.4 3.3-3.8 5.6-6.7.6-.8 1.2-1.6 1.9-2.4 5.8-7.4 12.1-15.9 12.1-15.9" class="st10"/><path d="M24.2 48.8c3.5 6 8.1 12.2 11.6 16.2 2 2.4 3.5 4 4.2 4.4 1.9 1.1 4.6 3.7 4.6 3.7m-8.8-26.6s5.5 12.4 14.5 20M38.6 45.9S44.8 58.7 52 64.1M31.3 75.3s3-10.7 4.3-10.3m-1.2 10.8c-1.2 11.5-.7 26.5 6 36.5 6.6 10.1 16.4 20.9 25 27.1m3.9-2.9c.8-.9 1.6-1.9 2.4-2.8 2.9-3.6 5.5-7.4 7.4-10.6 1.8-3 3.1-5.6 3.8-7.1m37.2 7.7h.2c.5-.1.9 0 1.4.1.1 0 .2.1.2.1 1.6.7 6.6 2.4 7.7 4 .1.2.2.4.2.6.1 1.8 0 3.1 0 3.1-3.5 2.5-10.7 8-18 9-1.3.2-2.7.2-4 .1-.5-.1-1-.1-1.4-.3" class="st10"/><path d="M83.5 105.2c-.7 2.5-.9 5.2-.9 7.2 0 1.1.1 2.3.4 3.6.7 3.8 2.2 8.2 3.5 10.5.5 1 1.5 2.4 3 4 1.5 1.7 3.5 3.5 6 5.2.4.3.8.5 1.2.8 1.1.7 2.4 1.4 3.7 2 1.2.5 2.5 1 3.8 1.4.7.2 1.4.4 2.1.5 2.6-2.7 6.3-7.8 8.7-11.3 1.4-2 2.4-3.5 2.8-3.9.8-.9 1.5-1.3 2.1-1.5M85.1 101c-.8 1.3-1.3 2.7-1.7 4.1m31.9-25.2s-7 4.4-13.9 9c-4 2.6-8.2 5.4-10.9 7.2-1.1.8-2 1.4-2.6 1.8-1.1.8-2 1.8-2.7 3" class="st10"/><path d="M115.3 129.2s8.2 2.8 14.6 2.3c2.4.4 8.2.3 13.2-.4.3 0 .6-.1.9-.1 2.6-.4 5.1-1 6.7-1.8 1.3-.6 3-1.3 5-1.9 5.5-1.8 12.3-3.6 16.2-4.1 5.2-.7 17.8-4.4 17.8-4.4-.5 5-6.4 9.1-12.4 12.2 5.9 2 9.9 3.1 9.9 3.1-3 1.7-7 3.7-11.1 5.6-6.8 2.9-14.3 5.6-20.2 6.5-9.6 1.5-20.8 0-20.8 0" class="st10"/><path d="M143.1 131.2s-1.7 4-4.3 8.7c-1.1 2-2.4 4.2-3.7 6.3-2.6 3.9-5.6 7.4-8.2 8.2-2.5-.1-3.6.1-4.9-.8-.4-.3-.8-.7-1.2-1.2-2-2.3-8.9-11.8-8.9-11.8" class="st10"/><path d="M107.8 140.6h0l8 12.1 1.9 3 4.3-2.1" class="st10"/><path d="m104.2 139.9 6.4 15.8 5.2-3m-20.4-17c2 4.9 7.9 15.5 14 19.3.4.2.7.4 1.1.6" class="st10"/><path d="M94.9 144.7c3 6.9 6.7 13.3 9.3 14.2 3.5-.7 5.8-1.4 5.8-1.4l-.6-2.4m-20-24.6c1 3.2 3 8.8 5.5 14.2" class="st10"/><path d="M74.5 141.8h0c.5.2 7.9 3.2 18.9 2.9.5 0 1 0 1.5-.1h0M79 123.1s-.2 1.1-.6 2.8c-.8 3.6-2.2 10.3-3.9 15.9-1.4 4.6-3 8.7-4.4 9.7-3.7.2-8.3-.9-8.3-.9 4.6-6 8-9 10-17m-12.9 12.5-2.8 2.8c2.2 1.2 5 2.5 5 2.5l.6-.8m4.1-11.5L59 146" class="st10"/><path d="m57.6 143.1-4.4 3.4 2.4 2.5s2.7-2.3 3.4-2.9l.1-.1m.7-4.7-2 1.7m-1.3-4.6-1.9 1-8.1 4.1 3.1 3.6c2.3-1.1 6.2-2.8 8-4.1l.2-.1m-8.2-7.5-7 4 1.4 4 10.5-4M78.4 126c6.2 5.7 11.7 10.3 15 18.8h0M94 115c4 2 4.9 6.7 20 6.3 15.3-.4 28.1-.1 36.6-3.1s29.7-9.3 32.4-9.2m-7.9-9.1c-2.3-1.9-4.9-3.2-9.4-3.7-1.7-.2-3.7-.3-6.1-.3-4 .1-9 .6-13.8 1.2-3.3.4-6.7.9-9.8 1.3-4.5.6-8.6 1.1-11.3 1.1-7.3 0-13.8.7-15.6-.1" class="st10"/><path d="M189.7 118.7s-1.2-1.9-3-4.6c-.5-.8-1.1-1.6-1.6-2.4-.1-.2-.3-.4-.5-.7l-1.5-2.1c-2.1-2.9-4.2-5.8-5.9-7.2-.7-.7-1.5-1.3-2.2-1.9" class="st10"/><path d="M121.7 123.8s6.7 1.1 17.2 0 23.9-6.7 27.9-8.2 15.6-4 18.3-3.8m-55.4 16.1c8.9-.6 17.6-2.3 24.3-4.8 6.8-2.4 15.1-5.6 19.8-6.6 4.8-1 12.9-2.4 12.9-2.4m-90.1 22.4c1.7-.1 13.3-13.6 13.3-13.6s1.9.3 4.2.5c2.2.2 4.8.4 5.9.2h.2" class="st10"/><path d="M114.2 123.4s-6.9 9.8-13.8 15.2m35.1-60.1c.2 2.4.4 4.5.4 5.9 0 5.7-.1 13.8-.1 14h0m-2.6-39.9s.7 5.5 1.4 11.5c.3 2.8.6 5.9.9 8.4M258.7 56c.3-.2.6-.4 1-.8 3.4-3.3 11.6-10 14.6-10.4v64.1h-1.6s-14 2.4-20.4 4.4c-6.3 2.1-22.1 8.4-29.4 10.8-7.3 2.4-11.4 1.3-18.8 1" class="st10"/><path d="M145.6 97.1s-.4-.5-1-1.2c-1.2-1.5-3.1-4-4.4-6.1-.4-.6-.8-1.2-1-1.7-1.3-2.7-3.5-9.2-3.6-9.6h0s11.3-6.5 17.8-10.9c4.4-3 25.7-19 49.4-30.4 2.4-1.1 4.9-2.2 7.4-3.3 2.2-.9 4.3-1.8 6.6-2.6 3.6-1.3 7.4-2.5 10.9-3.4 2.3-.6 4.6-1.1 6.9-1.5 1.8 11.9 2.3 17.6 4.2 18.5.4.2 1.2.2 2.2 0 2.7-.4 7-1.7 9.8-2.5 1.3-.4 2.2-.7 2.6-.7 1.5-.2 2.9 3.1 3.3 7.3.3 3.5-.3 8.3 1.8 7.3" class="st10"/><path d="M140.2 89.8s14-10.5 26.2-17.1 38.7-18.4 53-20.7c14.2-2.3 22.5-2.3 22.5-2.3 3.4-2.6 4.4-5.6 8.9-7.4m-9.7 2.5.9 4.9m-97.3 46.2c19.6-10.1 34.6-19.5 49.3-24.6 14.7-5.2 49-12.2 59.7-11.8 3.4-2.3 4.6-3 5-3.2l.1-.1m-93.1 40c15.6-8.1 38.5-17.7 61.6-22.9 23-5.2 47.1-6.7 47.1-6.7m-99.3 33.3h0c15.1-6.7 35.8-13.8 56.8-16.8s40.9-2 42.3-1m-96.9 19.7c8.6-.1 12.8.2 16.1.5 1.1.1 2.2.2 3.2.4.8.1 1.5.3 2.1.5 1.9.8 2.6 2.3 3 5.2.1.4.1.8.1 1.3.1 1.3.3 3.8.7 6.9.2 1.4.4 3 .7 4.5l.9 4.2c1.3 5.4 3.4 10.2 6.6 11.3" class="st10"/><path d="M260.8 137c-1.9-1.6-3.9-4.5-4.4-8-.4-1 .3-3.7-6.5.2-2.3 1.4-4.6 3.5-6.7 5.9-3.2 3.6-6.1 7.7-7.9 10-.3.4-.6.8-.9 1.1-2.6 2.9-5.6 7.1-7.3 7.1s-4.4-2.1-7.3-3.9c-.5-.3-1-.5-1.4-.7-2.2-.6-4.6.6-10.3-.1-6.8-.9-26.3-4.4-31.9-9" class="st10"/><path d="M187.2 134.1c9.4 1.3 17.5 2.7 23.4 2.6 1.1 0 2-.1 2.9-.2 1.2-.1 3.2-.7 6-1.6 11.2-3.6 32.5-12.1 37-12.7 5.5-.7 13.4-.4 16.2.7l2.7 1.1v7.2s-9.2 6.5-11.4 7.1c-.9.2-2.1-.3-3.3-1.3" class="st10"/><path d="M243.1 135.1s6.4 2.6 12.2 2.7c1.9.1 3.7-.2 5.4-.8h0" class="st10"/><path d="M235.3 145.1s13.1-.8 20.1-7.3h0m-35.9-2.8s1.4 12.4-1.2 13.6h0M203.2 121s5.4.7 9.7.2 15.5-2 21.1-4.6c5.7-2.6 18-8.3 24.8-9.3s15.6-1.9 15.6-1.9m-72 11.1s9.5 1 15.9 0 19.4-4.9 28.3-9.1c8.9-4.2 25.7-5.2 27.7-5.1m-72.7 6s18.4-6 27.6-6.6c9.2-.6 35.7-2.6 45.1-.7m-75.7 2.1c1.6-1.2 16.9-5.9 28.1-7.3 11.2-1.5 40-3.2 47.6-2.1M87.8 79.6c-1.6.4-4.1 4.3-3.8 5.7 0 .1.1.3.1.4.1.5.4 1.2.7 1.8.1.2.3.4.4.5.2.2.4.3.6.4.1 0 .2.1.3.1s.2.1.3.1h.4c.3 0 .6-.2.9-.4 1.6-1.1 2.6-4.1 2.4-5 0-.1-.1-.2-.1-.2m-6 2.8-4.3 2.9.5.8 3.8-2.6m-3.8 2.6-.4.6.4.7s3.4-3.1 4.4-3.2m-4.4 3.2.7.7s3.2-3.2 4.2-3.3m-4.2 3.3-.5.6.9.6s.1-.1.2-.3c.4-.6 1.5-2.1 4.2-3.9" class="st10"/><path d="M81.5 92.5h0l1.1.5c-.2-.3 3.1-4.4 3.6-4.3h0" class="st10"/><path d="m82.5 93 .9.5c1.4-2.5 2.4-4 3.4-4.9m-3.3 4.9 1.2.7.9-1.8c.7-1.3 1.6-3 2.3-4M80 62c1.7 1.5 4.1 5.6 6 9.3 1.5 3 2.7 5.9 2.8 6.7m-11.4-6.7s5.5 11.1 6.7 14m-10-4.2s2.5 5.5 5 11.5c1.9 4.6 3.7 9.6 4.3 12.5h0" class="st10"/><path d="M85.5 92.4s.7 6.5-.4 8.6h0m5.2-17.7c.9 3.9.5 8 .2 12.8m16.8-24.6s-5.5 12.7-6 17.4v.3m62.4 43.1c.7.2 1.3.4 1.9.5 1.7.3 3.2.3 4.8-.1 4.3-1.1 6.8-1.8 6.8-1.8m-21.4-3.6c2.7 2.4 5.5 4.1 8 5.1" class="st10"/><path d="M144.1 131h0c.1.1 3.4 2.9 8.4 3 4.3.1 11-1.7 11.2-1.8h0m-24.9 7.7s10.8.1 15.1-1.4c4.2-1.5 9.7-2.8 11.7-5.7m19-21.8s8.7-7.5 8.7-8.8m-61.1-51.5s15.2 2.1 14.7 2.2c-.7 1-1.4 2.1-2.1 3.1-4.6 6.6-9.2 12-9.8 13.9m-2.8-29.4c.9-1.6 1.8-3.2 2.4-5 .1-.2.1-.4.2-.6 1-2.7 2.1-5.5 3-8.2.2-.7.7-1.8 1.1-3.1.8-2.3 1.6-5.1 1.5-6.6m-10.9 16.8h0c-.5.8-1.2 1.7-1.8 2.6-.8 1.2-1.4 2.4-1.3 3.7.2 2.3 1.7 4.2 3.1 6.1.1-.5.3-1 .5-1.4 0-.1.1-.1.1-.2.6-1.4 1.3-2.7 2.1-4.1" class="st10"/><path d="m144.7 56 3.9 2.4 3.9-7.5 2.3-4.3 3-5.8c-1.3-.5-2.7-1-4.2-1.5-2.2-.8-4.6-1.5-7-2.2-5.1-1.4-9.8-2.4-12-2.2" class="st10"/><path d="M132.2 40.5h0c.2 0 8.6 1.2 11.9 2.4 3.3 1.1 10.8 3.8 10.8 3.8M130 44.5h0c1.4.2 15.5 2.4 22.6 6.6m-13.7-27.5s19.8-4.6 22.2-4.4c-.4 1-1.2 2.3-2.1 3.8-.8 1.2-1.7 2.4-2.6 3.7-3.6 5-8.1 10-9.5 10.4" class="st10"/><path d="M156.4 26.7s.3.9.8 2.2 1.1 3 1.6 4.5c.5 1.7 1 3.2.9 3.6m-4.8 2c1.6-.6 3.2-1.1 4.9-1.5 4.2-1 8.4-1.1 13.4-1.2 6.9-.1 19.1.3 29.6.9M159 23h0c10.9-3.6 23.2-6.7 37.5-3.6 9.8 2.1 20.9 5.4 26.9 7.2 2.6.8 4.2 1.3 4.2 1.3" class="st10"/><path d="M157.2 28.9s18.8-4.6 29.7-4.1c10.9.6 27.1 4.6 29.8 6.4" class="st10"/><path d="M158.8 33.5c13.1-2.8 20.9-3.6 28.2-3.6 7.2 0 20.7 3 23 3.6m-68.7-18.2c5.8-2.3 11.5-4.4 17.4-6.6 13.4-4.8 31.7-4.9 44.2 3 7.1 4.4 13.7 9.8 20.5 14.7M93.2 35.6V63m-2.3-21.8-.5 4.8-1.6 16m-1.1-22.4-.6 3.4-1 5.8-2.3 13.3m4-19s1.1-.8 2.9-2c.7-.5 1.5-1.1 2.4-1.7 5.7-4.1 14.5-10.8 18.6-15.8M92.1 43.4s.4-.3 1.1-.9c4.2-3.3 19.5-15.7 23.3-20.3.2-.3.4-.5.5-.7m-9.3 3.1s-7.6 5.9-14.6 11c-1.9 1.4-3.8 2.8-5.5 3.9-2.3 1.6-4.1 2.8-5 3.2h0m191.7 66.2 1.1 15.2" class="st10"/></g></g></svg>