<?xml version="1.0" encoding="UTF-8"?>
<svg xmlns="http://www.w3.org/2000/svg" xmlns:xlink="http://www.w3.org/1999/xlink" viewBox="0 0 269.93 186.22">
  <defs>
    <style>
      .cls-1 {
        stroke-miterlimit: 10;
      }

      .cls-1, .cls-2, .cls-3 {
        fill: none;
      }

      .cls-1, .cls-4, .cls-3 {
        stroke: #000;
      }

      .cls-5 {
        fill: #f3edd7;
      }

      .cls-5, .cls-2, .cls-6, .cls-7, .cls-8, .cls-9, .cls-10, .cls-11, .cls-12 {
        stroke-width: 0px;
      }

      .cls-4, .cls-3 {
        stroke-linecap: round;
        stroke-linejoin: round;
      }

      .cls-4, .cls-7 {
        fill: #333;
      }

      .cls-6 {
        fill: #ad7dbb;
      }

      .cls-8 {
        fill: #fe523e;
      }

      .cls-9 {
        fill: #f7f0a0;
      }

      .cls-13 {
        clip-path: url(#clippath);
      }

      .cls-10 {
        fill: #d2d296;
      }

      .cls-11 {
        fill: #fce7c8;
      }

      .cls-12 {
        fill: #fbeedd;
      }
    </style>
    <clipPath id="clippath">
      <rect class="cls-2" x="14.09" width="255.59" height="148.12"/>
    </clipPath>
  </defs>
  <g id="_畳" data-name="畳">
    <g>
      <g>
        <rect class="cls-5" x=".24" y="151.63" width="3.61" height="5.02"/>
        <path class="cls-5" d="m269.68,179.17v6.55h-30.4l15.33-8.62c1.03,1.61,3.1,2.71,5.5,2.71s4.61-1.18,5.61-2.88l3.96,2.23Z"/>
        <path class="cls-5" d="m269.68,168.62v10.54l-3.96-2.23c.38-.65.59-1.38.59-2.14,0-1.3-.62-2.48-1.61-3.37l4.98-2.8Z"/>
        <path class="cls-5" d="m269.68,156.65v11.97l-4.98,2.8c-1.14-1.01-2.77-1.64-4.59-1.64s-3.3.58-4.43,1.51l-26.05-14.64h40.05Z"/>
        <polygon class="cls-5" points="269.68 77.93 269.68 83.69 1.13 83.69 .24 83.69 .24 77.93 269.68 77.93"/>
        <rect class="cls-5" x="265.69" y="151.63" width="3.99" height="5.02"/>
        <path class="cls-5" d="m266.31,174.8c0,.76-.21,1.49-.59,2.14l-5.41-3.04,4.39-2.47c1,.89,1.61,2.07,1.61,3.37Z"/>
        <path class="cls-5" d="m260.31,173.89l5.41,3.04c-1,1.7-3.13,2.88-5.61,2.88s-4.47-1.1-5.5-2.71l5.7-3.21Z"/>
        <rect class="cls-7" x="254.41" y="151.63" width="11.29" height="5.02"/>
        <path class="cls-5" d="m264.7,171.42l-4.39,2.47-4.63-2.6c1.13-.93,2.7-1.51,4.43-1.51,1.82,0,3.45.63,4.59,1.64Z"/>
        <path class="cls-5" d="m260.31,173.89l-5.7,3.21c-.44-.68-.69-1.47-.69-2.31,0-1.37.68-2.6,1.77-3.5l4.63,2.6Z"/>
        <path class="cls-5" d="m229.63,156.65l26.05,14.64c-1.09.9-1.77,2.13-1.77,3.5,0,.83.25,1.62.69,2.31l-15.33,8.62h-41.41l-15.62-8.78c.38-.65.59-1.38.59-2.14,0-1.3-.62-2.48-1.61-3.36l26.29-14.78h22.11Zm-5.96,18.14c0-2.77-2.25-5.01-5.01-5.01s-5.02,2.25-5.02,5.01,2.25,5.02,5.02,5.02,5.01-2.25,5.01-5.02Z"/>
        <polygon class="cls-5" points="254.41 156.65 229.63 156.65 223.94 156.65 223.94 151.63 254.41 151.63 254.41 156.65"/>
        <rect class="cls-7" x="212.65" y="151.63" width="11.29" height="5.02"/>
        <path class="cls-7" d="m218.67,169.79c2.77,0,5.01,2.25,5.01,5.01s-2.25,5.02-5.01,5.02-5.02-2.25-5.02-5.02,2.25-5.01,5.02-5.01Z"/>
        <path class="cls-5" d="m207.52,156.65l-26.29,14.78c-1.14-1.01-2.77-1.65-4.59-1.65s-3.3.58-4.43,1.51l-26.05-14.64h61.36Z"/>
        <polygon class="cls-5" points="182.18 156.65 182.18 151.63 212.65 151.63 212.65 156.65 207.52 156.65 182.18 156.65"/>
        <path class="cls-5" d="m197.87,185.72h-42.06l15.33-8.62c1.03,1.61,3.11,2.71,5.5,2.71s4.61-1.18,5.61-2.88l15.62,8.78Z"/>
        <path class="cls-5" d="m182.84,174.8c0,.76-.21,1.49-.59,2.14l-5.41-3.04,4.39-2.46c1,.88,1.61,2.06,1.61,3.36Z"/>
        <path class="cls-5" d="m176.84,173.89l5.41,3.04c-1,1.7-3.13,2.88-5.61,2.88s-4.47-1.1-5.5-2.71l5.7-3.21Z"/>
        <rect class="cls-7" x="170.89" y="151.63" width="11.29" height="5.02"/>
        <path class="cls-5" d="m176.64,169.79c1.82,0,3.45.63,4.59,1.65l-4.39,2.46-4.63-2.6c1.13-.93,2.7-1.51,4.43-1.51Z"/>
        <path class="cls-5" d="m176.84,173.89l-5.7,3.21c-.44-.68-.69-1.47-.69-2.31,0-1.37.68-2.6,1.77-3.5l4.63,2.6Z"/>
        <path class="cls-5" d="m146.16,156.65l26.05,14.64c-1.09.9-1.77,2.13-1.77,3.5,0,.83.25,1.62.69,2.31l-15.33,8.62h-41.41l-15.62-8.78c.38-.65.59-1.38.59-2.14,0-1.3-.62-2.48-1.61-3.36l26.29-14.78h22.11Zm-7,18.14c0-2.77-2.25-5.01-5.01-5.01s-5.02,2.25-5.02,5.01,2.25,5.02,5.02,5.02,5.01-2.25,5.01-5.02Z"/>
        <polygon class="cls-5" points="170.89 156.65 146.16 156.65 140.42 156.65 140.42 151.63 170.89 151.63 170.89 156.65"/>
        <rect class="cls-7" x="129.13" y="151.63" width="11.29" height="5.02"/>
        <path class="cls-7" d="m134.14,169.79c2.77,0,5.01,2.25,5.01,5.01s-2.25,5.02-5.01,5.02-5.02-2.25-5.02-5.02,2.25-5.01,5.02-5.01Z"/>
        <path class="cls-5" d="m124.04,156.65l-26.29,14.78c-1.14-1.01-2.77-1.65-4.59-1.65s-3.3.58-4.43,1.51l-26.05-14.64h61.36Z"/>
        <polygon class="cls-5" points="129.13 156.65 124.04 156.65 98.66 156.65 98.66 151.63 129.13 151.63 129.13 156.65"/>
        <path class="cls-5" d="m114.4,185.72h-42.06l15.33-8.62c1.03,1.61,3.1,2.71,5.5,2.71s4.61-1.18,5.61-2.88l15.62,8.78Z"/>
        <path class="cls-5" d="m99.36,174.8c0,.76-.21,1.49-.59,2.14l-5.41-3.04,4.39-2.46c1,.88,1.61,2.06,1.61,3.36Z"/>
        <path class="cls-5" d="m93.37,173.89l5.41,3.04c-1,1.7-3.13,2.88-5.61,2.88s-4.47-1.1-5.5-2.71l5.7-3.21Z"/>
        <rect class="cls-7" x="87.38" y="151.63" width="11.29" height="5.02"/>
        <path class="cls-5" d="m93.17,169.79c1.82,0,3.45.63,4.59,1.65l-4.39,2.46-4.63-2.6c1.13-.93,2.7-1.51,4.43-1.51Z"/>
        <path class="cls-5" d="m93.37,173.89l-5.7,3.21c-.44-.68-.69-1.47-.69-2.31,0-1.37.68-2.6,1.77-3.5l4.63,2.6Z"/>
        <path class="cls-5" d="m62.69,156.65l26.05,14.64c-1.09.9-1.77,2.13-1.77,3.5,0,.83.25,1.62.69,2.31l-15.33,8.62H30.73l-15.62-8.78c.38-.65.59-1.38.59-2.14,0-1.3-.62-2.48-1.61-3.36l26.29-14.78h22.3Zm-8.51,18.14c0-2.77-2.25-5.01-5.01-5.01s-5.02,2.25-5.02,5.01,2.25,5.02,5.02,5.02,5.01-2.25,5.01-5.02Z"/>
        <polygon class="cls-5" points="87.38 156.65 62.69 156.65 56.9 156.65 56.9 151.63 87.38 151.63 87.38 156.65"/>
        <rect class="cls-7" x="45.62" y="151.63" width="11.29" height="5.02"/>
        <path class="cls-7" d="m49.16,169.79c2.77,0,5.01,2.25,5.01,5.01s-2.25,5.02-5.01,5.02-5.02-2.25-5.02-5.02,2.25-5.01,5.02-5.01Z"/>
        <polygon class="cls-5" points="45.62 156.65 40.38 156.65 15.15 156.65 15.15 151.63 45.62 151.63 45.62 156.65"/>
        <path class="cls-5" d="m30.73,185.72H.24v-6.51l3.75-2.11c1.03,1.61,3.11,2.71,5.5,2.71s4.61-1.18,5.61-2.88l15.62,8.78Z"/>
        <path class="cls-5" d="m15.7,174.8c0,.76-.21,1.49-.59,2.14l-5.41-3.04,4.39-2.46c1,.88,1.61,2.06,1.61,3.36Z"/>
        <rect class="cls-7" x="3.86" y="151.63" width="11.29" height="5.02"/>
        <path class="cls-5" d="m9.7,173.89l5.41,3.04c-1,1.7-3.13,2.88-5.61,2.88s-4.47-1.1-5.5-2.71l5.7-3.21Z"/>
        <path class="cls-5" d="m9.5,169.79c1.82,0,3.45.63,4.59,1.65l-4.39,2.46-4.63-2.6c1.13-.93,2.7-1.51,4.43-1.51Z"/>
        <path class="cls-5" d="m9.7,173.89l-5.7,3.21c-.44-.68-.69-1.47-.69-2.31,0-1.37.68-2.6,1.77-3.5l4.63,2.6Z"/>
        <path class="cls-5" d="m.24,168.58l4.83,2.71c-1.09.9-1.77,2.13-1.77,3.5,0,.83.25,1.62.69,2.31l-3.75,2.11v-10.63Z"/>
        <polygon class="cls-10" points="212.65 151.63 182.18 151.63 170.89 151.63 140.42 151.63 129.13 151.63 98.66 151.63 87.38 151.63 56.9 151.63 45.62 151.63 15.15 151.63 3.86 151.63 .24 151.63 .24 83.69 1.13 83.69 269.68 83.69 269.68 151.63 265.69 151.63 254.41 151.63 223.94 151.63 212.65 151.63"/>
        <path class="cls-5" d="m.24,156.65h40.14l-26.29,14.78c-1.14-1.01-2.77-1.65-4.59-1.65s-3.3.58-4.43,1.51l-4.83-2.71v-11.93Z"/>
      </g>
      <g>
        <polyline class="cls-1" points="269.68 185.72 239.28 185.72 197.87 185.72 155.81 185.72 114.4 185.72 72.34 185.72 30.73 185.72 .24 185.72"/>
        <line class="cls-1" x1=".24" y1="77.93" x2="269.68" y2="77.93"/>
        <line class="cls-1" x1=".24" y1="83.69" x2="269.68" y2="83.69"/>
        <line class="cls-1" x1="265.69" y1="151.63" x2="269.68" y2="151.63"/>
        <line class="cls-1" x1="223.94" y1="151.63" x2="254.41" y2="151.63"/>
        <line class="cls-1" x1="182.18" y1="151.63" x2="212.65" y2="151.63"/>
        <line class="cls-1" x1="140.42" y1="151.63" x2="170.89" y2="151.63"/>
        <line class="cls-1" x1="98.66" y1="151.63" x2="129.13" y2="151.63"/>
        <line class="cls-1" x1="56.9" y1="151.63" x2="87.38" y2="151.63"/>
        <line class="cls-1" x1="15.15" y1="151.63" x2="45.62" y2="151.63"/>
        <line class="cls-1" x1=".24" y1="151.63" x2="3.86" y2="151.63"/>
        <line class="cls-1" x1="265.69" y1="156.65" x2="269.68" y2="156.65"/>
        <polyline class="cls-1" points="223.94 156.65 229.63 156.65 254.41 156.65"/>
        <polyline class="cls-1" points="182.18 156.65 207.52 156.65 212.65 156.65"/>
        <polyline class="cls-1" points="140.42 156.65 146.16 156.65 170.89 156.65"/>
        <polyline class="cls-1" points="98.66 156.65 124.04 156.65 129.13 156.65"/>
        <polyline class="cls-1" points="56.9 156.65 62.69 156.65 87.38 156.65"/>
        <polyline class="cls-1" points="15.15 156.65 40.38 156.65 45.62 156.65"/>
        <line class="cls-1" x1=".24" y1="156.65" x2="3.86" y2="156.65"/>
        <polyline class="cls-1" points="72.34 185.72 87.66 177.1 93.37 173.89 97.75 171.43 124.04 156.65"/>
        <polyline class="cls-1" points="114.4 185.72 98.78 176.94 93.37 173.89 88.74 171.29 62.69 156.65"/>
        <path class="cls-1" d="m139.15,174.8c0,2.77-2.25,5.02-5.01,5.02s-5.02-2.25-5.02-5.02,2.25-5.01,5.02-5.01,5.01,2.25,5.01,5.01Z"/>
        <path class="cls-1" d="m223.68,174.8c0,2.77-2.25,5.02-5.01,5.02s-5.02-2.25-5.02-5.02,2.25-5.01,5.02-5.01,5.01,2.25,5.01,5.01Z"/>
        <path class="cls-1" d="m97.75,171.43c1,.88,1.61,2.06,1.61,3.36,0,.76-.21,1.49-.59,2.14-1,1.7-3.13,2.88-5.61,2.88s-4.47-1.1-5.5-2.71c-.44-.68-.69-1.47-.69-2.31,0-1.37.68-2.6,1.77-3.5,1.13-.93,2.7-1.51,4.43-1.51,1.82,0,3.45.63,4.59,1.65Z"/>
        <polyline class="cls-1" points=".24 179.21 4 177.1 9.7 173.89 14.09 171.43 40.38 156.65"/>
        <polyline class="cls-1" points="30.73 185.72 15.11 176.94 9.7 173.89 5.07 171.29 .24 168.58"/>
        <path class="cls-1" d="m14.09,171.43c1,.88,1.61,2.06,1.61,3.36,0,.76-.21,1.49-.59,2.14-1,1.7-3.13,2.88-5.61,2.88s-4.47-1.1-5.5-2.71c-.44-.68-.69-1.47-.69-2.31,0-1.37.68-2.6,1.77-3.5,1.13-.93,2.7-1.51,4.43-1.51,1.82,0,3.45.63,4.59,1.65Z"/>
        <polyline class="cls-1" points="155.81 185.72 171.13 177.1 176.84 173.89 181.22 171.43 207.52 156.65"/>
        <polyline class="cls-1" points="197.87 185.72 182.25 176.94 176.84 173.89 172.21 171.29 146.16 156.65"/>
        <path class="cls-1" d="m181.22,171.43c1,.88,1.61,2.06,1.61,3.36,0,.76-.21,1.49-.59,2.14-1,1.7-3.13,2.88-5.61,2.88s-4.47-1.1-5.5-2.71c-.44-.68-.69-1.47-.69-2.31,0-1.37.68-2.6,1.77-3.5,1.13-.93,2.7-1.51,4.43-1.51,1.82,0,3.45.63,4.59,1.65Z"/>
        <polyline class="cls-1" points="239.28 185.72 254.61 177.1 260.31 173.89 264.7 171.42 269.68 168.62"/>
        <polyline class="cls-1" points="269.68 179.17 265.72 176.94 260.31 173.89 255.68 171.29 229.63 156.65"/>
        <path class="cls-1" d="m264.7,171.42c1,.89,1.61,2.07,1.61,3.37,0,.76-.21,1.49-.59,2.14-1,1.7-3.13,2.88-5.61,2.88s-4.47-1.1-5.5-2.71c-.44-.68-.69-1.47-.69-2.31,0-1.37.68-2.6,1.77-3.5,1.13-.93,2.7-1.51,4.43-1.51,1.82,0,3.45.63,4.59,1.64Z"/>
        <path class="cls-1" d="m54.17,174.8c0,2.77-2.25,5.02-5.01,5.02s-5.02-2.25-5.02-5.02,2.25-5.01,5.02-5.01,5.01,2.25,5.01,5.01Z"/>
        <rect class="cls-1" x="3.86" y="151.63" width="11.29" height="5.02"/>
        <rect class="cls-1" x="45.62" y="151.63" width="11.29" height="5.02"/>
        <rect class="cls-1" x="87.38" y="151.63" width="11.29" height="5.02"/>
        <rect class="cls-1" x="129.13" y="151.63" width="11.29" height="5.02"/>
        <rect class="cls-1" x="170.89" y="151.63" width="11.29" height="5.02"/>
        <rect class="cls-1" x="212.65" y="151.63" width="11.29" height="5.02"/>
        <rect class="cls-1" x="254.41" y="151.63" width="11.29" height="5.02"/>
      </g>
    </g>
  </g>
  <g id="_レイヤー_2" data-name="レイヤー 2">
    <g class="cls-13">
      <g>
        <g>
          <path class="cls-8" d="m23.26,80.74c-.36-3.7-.5-7.11-.5-7.11,1.81.64,3.53,1.23,5.14,1.79,1.77.6,3.41,1.17,4.94,1.69,1.5.51,2.88.99,4.15,1.44,4.41,1.54,7.52,2.74,9.48,3.94l-.08.14c-1.93,1.86-12.85,5.84-20.66,8.04l-.19-.69c-1.14-.38-1.85-5.01-2.27-9.24Z"/>
          <path class="cls-9" d="m59.46,55.92c.99-.02,1.98-.22,2.96-.58-.38.71-.79,1.43-1.22,2.17-5.9-.74-21.14,15.1-24.15,20.86l-.06.18c-1.27-.45-2.66-.93-4.15-1.44,4.51-6.25,12.48-18.12,26.32-24.61-.08,1.2,0,2.36.3,3.42Z"/>
          <path class="cls-6" d="m57.93,63.12c-3.7,6.36-7.68,13.53-9.59,20.78l-.1-.03c-.43-.48-1.01-.94-1.77-1.4-1.96-1.2-5.07-2.4-9.48-3.94l.06-.18c3.01-5.75,18.25-21.6,24.15-20.86-1.02,1.78-2.13,3.65-3.27,5.61Z"/>
          <path class="cls-7" d="m111.55,38.42c2.22-.53,4.2-1.51,5.64-3.1.71-.79,2.81-4.82,4.16-9.5.3-1.04.56-2.12.79-3.18l1.32.28c-.13.56-.24,1.25-.33,1.99-.37,2.89-.53,6.72-1.46,7.74-1.43,1.55-4.2,4.51-6.66,7.01-.64.63-1.26,1.25-1.87,1.9-1.4,1.45-2.72,2.94-3.97,4.41l-.15.17s.17-2.28,0-2.81c-.16-.53,2.52-4.91,2.52-4.91Z"/>
          <path class="cls-12" d="m230.03,32.51s3.52,8.39,4.37,8.61c-8.25,1.56-76.16,27.54-90.41,37.9-.94-3.66-1.73-6.43-1.73-6.43,2.58-1.58,5.28-3.64,8.02-6.33,8.83-5.42,29.81-17.7,49.6-25.86,1.01-.42,2.01-.83,3.02-1.22,3.03-1.19,6.03-2.27,8.93-3.19,6.8-2.17,13.07-3.5,18.21-3.48Z"/>
          <path class="cls-6" d="m111.47,108.52c-.62-2.99.08-16.33.08-16.33l.99-.67c-3.83-5.73-7.47-11.18-9.48-14.27-2.12-3.26-3.34-7.83-3.26-12.47,0-1.33.13-2.67.37-3.98.59-3.29,1.9-6.42,4.04-8.94,1.47-1.73,3.08-3.7,4.81-5.73l.15-.17,3.97-4.41c.58-.58,1.22-1.22,1.87-1.9,4-3.87,8.45-7.18,13.27-8.46,6.49-1.74,10.21,1.3,12.1,4.46h0c.33.54.59,1.08.81,1.6.43,1.01.67,1.94.76,2.64.24,1.85,2.98,10.34,5.24,17.19-8.48,5.02-16.7,5.77-24.78,4.08-.32,1-.61,2.01-.88,3.03-.23.86-.43,1.72-.59,2.57-.36,1.73-.59,3.43-.65,5.04,0,0,1.28,3.31,3.13,5.3.56.6,2.29,1.76,4.91,3.6v.02s18.67,49.21,18.67,49.21h0c-.74.22-1.5.37-2.27.46-.41-.08-.94-.02-1.59.15-4.45,1.2-13.62,7.77-16.18,9.65-.44.33-.69.51-.69.51-.65-.08-1.64-.6-2.88-1.48-8.46-5.99-28.59-28.4-33.55-34.26-.53-.63-1.02-1.25-1.46-1.85-4.27-5.8-4.51-10.23-4.51-13.15l-.06-.11c.45-.19.77-.64.77-1.16v-1.49c4.46,8.1,18.19,19.14,24.58,21.9l2.31-.6Z"/>
          <path class="cls-9" d="m157.07,105.34l.1.13c-2.74,1.95-4.36,4.71-5.73,8.92l-13.2-26.33c2.74,2.18,5.75,4.7,8.94,7.61.33.28.66.59.99.9,2.85,2.62,5.83,5.53,8.89,8.77Z"/>
          <path class="cls-7" d="m59.16,52.5c.13-1.73.62-3.57,1.31-5.4,2.72-7.2,8.63-14.38,8.92-14.93.43-.79,7.46-6.08,10.88-7.26,3.41-1.17,10.77-4.64,16.75-9.55s15-10.57,20.17-10.88c1.86-.12,3.67-.13,5.22.08,2.75.38,4.68,1.48,4.68,4,0,3.95-2.01,11.6-3.18,13.21-.18.25-.33.65-.45,1.15l-1.32-.28c.92-4.3,1.25-8.45,1.03-9.62-.43-2.24-5.61-4.92-8.29-4.48-4.54,3.2-10.71,12.91-13.58,15.05-1.6,1.19-5.71,3.62-9.37,5.6-1.45.78-2.83,1.49-3.95,2.02-1.15.54-2.04.9-2.47.96-1.91.27-4.91,7.21-7.79,9.55-2.51,2.05-8.66,11.22-15.29,13.62-.98.36-1.97.56-2.96.58-.3-1.06-.38-2.22-.3-3.42Z"/>
          <path class="cls-12" d="m147.19,95.67c-3.19-2.91-6.2-5.43-8.94-7.61-1.37-1.08-2.67-2.08-3.9-2.99h0c-1.19-.89-2.3-1.71-3.32-2.44h0c-.99-.71-1.89-1.35-2.71-1.91-2.62-1.84-4.35-3-4.91-3.6,1.79.56,9.54,1.16,18.84-4.52,0,0,.79,2.77,1.73,6.43.76,2.93,1.62,6.44,2.27,9.56.62,3.03,1.04,5.68.94,7.08h0Z"/>
          <path class="cls-9" d="m17.17,91.73c.16.25.45.41.89.47,1.09.13,4.04-.5,7.67-1.53,7.82-2.2,18.73-6.19,20.66-8.04l.08-.14c.76.46,1.35.92,1.77,1.4l.1.03c-.35,1.34-.64,2.68-.83,4.03-.03.22-.06.43-.09.65-5,3.85-26.72,9.81-26.72,9.81-1.95-3.54-3.28-6.15-3.54-6.66Z"/>
          <path class="cls-6" d="m164.97,102.3c9.53-2.27,29.73-13.37,32.87-12.24.89.33,5.24,2.05,11.03,4.41,7.63,3.11,17.75,7.32,25.75,10.88-16.85,8.74-48.91,21.98-48.91,21.98-3.88-2.48-3.85-2.17-6.23-2.69-.44-.09-1.04-.13-1.76-.09-6.74-6.31-9.19-8.75-12.82-10.15-3.63-1.39-5.33,1.48-7.15,4.85s-5.44,11.17-5.6,13.78c-.53-.59-1.05-1.4-1.5-2.44-.23-.54-.44-1.15-.62-1.81-.13-.45-.23-.93-.31-1.44h0c-.34-2.1-.33-4.66.31-7.71.07-.36.16-.73.25-1.1.38-1.51.77-2.88,1.17-4.12,1.37-4.2,2.98-6.97,5.73-8.92,1.94-1.39,4.43-2.37,7.8-3.18Z"/>
          <path class="cls-8" d="m128.29,31.21c-4.82,1.28-9.28,4.59-13.27,8.46,2.46-2.5,5.23-5.46,6.66-7.01.94-1.02,1.1-4.85,1.46-7.74.25-.08,10.39-2.95,16.28-1.45.66.8,1.27,1.3,1.78,1.37-7.31,3.57-12.91,6.38-12.91,6.38Z"/>
          <path class="cls-8" d="m202.89,39.18c-1,.39-2.01.8-3.02,1.22,0-1.2-1.01-3.91-2.37-6.77,4.63-.44,8.69-1.95,10.28-1.46-1.81,1.13-4.67,4.26-4.9,7.01Z"/>
          <path class="cls-8" d="m25.72,90.67c-3.63,1.03-6.58,1.66-7.67,1.53-.43-.06-.73-.22-.89-.47-.03-.06-.04-.09-.04-.09-.89-1.81,3.68-7.46,6.13-10.89.43,4.23,1.14,8.85,2.27,9.24l.19.69Z"/>
          <path class="cls-8" d="m270.75,125.5v6.5c-1.91,3.21-8.75,5.6-8.75,5.6.05-1.5-1.15-4.45-2.86-7.65-.71-1.33-1.5-2.7-2.33-4.04.21-.11,3.93-1.9,8.18-1.17,4.37.74,5.76.75,5.76.75Z"/>
          <path class="cls-9" d="m270.75,109.48v16.02s-1.39,0-5.76-.75c-4.25-.73-7.97,1.06-8.18,1.17h0c-1.59-2.56-3.3-4.97-4.75-6.6,0,0,14.22-5.34,18.7-9.83Z"/>
          <path class="cls-9" d="m270.75,105.77v3.71c-4.48,4.49-18.7,9.83-18.7,9.83-.53-.59-1.02-1.1-1.45-1.45,0,0,18.58-8.24,20.15-12.09Z"/>
          <path class="cls-9" d="m270.75,100.13v5.64c-1.57,3.85-20.15,12.09-20.15,12.09-.37-.31-.7-.52-.98-.62-.33-.13-.66-.23-.98-.33-.52-.18-1.01-.33-1.48-.44,6.39-1.13,14.2-5.91,18.79-8.69,4.58-2.78,4.8-5.73,4.8-7.65Z"/>
          <path class="cls-12" d="m270.75,76.01v24.12c-10.77-3.84-47.26-7.22-61.88-5.66-5.79-2.36-10.14-4.08-11.03-4.41,12.73-5.33,39.84-14.26,72.92-14.05Z"/>
          <path class="cls-12" d="m270.75,61.14v14.87c-33.08-.21-60.19,8.72-72.92,14.05-3.13-1.14-23.34,9.96-32.87,12.24-3.37.8-5.86,1.79-7.8,3.18l-.1-.13c-3.05-3.23-6.04-6.15-8.89-8.77h0c13.07-6.94,74.54-34.38,122.56-35.43Z"/>
          <path class="cls-12" d="m270.75,49.09v12.05c-48.02,1.05-109.49,28.5-122.56,35.43h0c-.33-.31-.67-.61-.99-.89h0c.09-1.41-.33-4.06-.94-7.09,17.58-8.98,52.79-22.69,63.91-26.39,19.72-6.55,34.34-8.18,41-10.44,4.06-2.24,8.81-5.66,9.45-5.66,2.35,1.07,10.14,2.99,10.14,2.99Z"/>
          <path class="cls-6" d="m270.75,100.13c0,1.92-.22,4.87-4.8,7.65-4.59,2.78-12.4,7.56-18.79,8.69-1.87-.48-3.36-.57-4.74-.25,3.33-2.01,5.41-3.55,5.21-4.14-.22-.63-3.37-2.3-8-4.46-.8-.37-1.65-.76-2.53-1.16-.79-.36-1.63-.74-2.48-1.11-7.99-3.55-18.11-7.77-25.75-10.88,14.62-1.56,51.11,1.82,61.88,5.66Z"/>
          <path class="cls-8" d="m259.14,129.95c1.71,3.2,2.91,6.14,2.86,7.65-2.03.55-9.93,1.35-17.04,1.92,0,0,11.61-8.94,14.19-9.57Z"/>
          <path class="cls-8" d="m256.81,125.92c.83,1.34,1.62,2.71,2.33,4.04-2.57.63-14.19,9.57-14.19,9.57-5.85.47-11.18.79-12.26.69-.19-.02-.48-.03-.85-.02v-13.42c-3.41-1.08-6.32,2.72-8.82,7.03-1.42,2.45-2.71,5.07-3.89,7.06-4.8.21-9.76.29-12.91-.14-7.26-1-20.35-1.71-25.19-3.85-1.07-.47-2.06-.82-2.98-1.08,3.06-.34,13.43-2.32,18.73-1.47h0c6.22,3.17,7.41,1.15,9.29.56,1.57-.49,21.31-10.06,33.01-16.72,0,0,4.33,7.75,5.86,7.18,0,0,8.07,1.98,11.84.57h0Z"/>
          <path class="cls-8" d="m256.8,125.92c-3.78,1.41-11.84-.57-11.84-.57,1.54-.57,2.71-8.79,3.69-8.44.32.1.64.21.98.33.28.1.61.31.98.62.43.36.93.86,1.45,1.45,1.45,1.64,3.16,4.05,4.75,6.6Z"/>
          <path class="cls-12" d="m247.91,41.19c2.73,3.69,3.25,10.57,3.25,10.57-6.66,2.26-21.28,3.89-41,10.44-11.13,3.69-46.33,17.41-63.91,26.39-.64-3.12-1.5-6.63-2.27-9.56,14.93-6.24,44.33-18.59,51.93-21.12,16.72-5.55,39.73-11.38,42.19-12.13,2.45-.74,5.93-2.68,7.92-5.66h0c.74.09,1.4.41,1.89,1.07Z"/>
          <path class="cls-8" d="m248.64,116.91c-.98-.34-2.15,7.87-3.69,8.44-1.53.57-5.86-7.18-5.86-7.18,1.2-.69,2.32-1.34,3.33-1.96,1.38-.32,2.87-.23,4.74.25.47.12.96.27,1.48.44Z"/>
          <path class="cls-6" d="m242.42,116.21c-1,.62-2.12,1.27-3.33,1.96-11.7,6.65-31.44,16.22-33.01,16.72-1.87.59-3.07,2.61-9.29-.57-1.35-.68-2.93-1.61-4.8-2.85-.31-.21-.61-.41-.9-.59,0,0,26.14-7.73,48.53-23.25,4.63,2.16,7.78,3.83,8,4.46.2.59-1.88,2.12-5.21,4.14Z"/>
          <path class="cls-12" d="m246.03,40.11h0c-2,2.98-5.48,4.92-7.92,5.67-2.46.75-25.47,6.58-42.19,12.13-7.6,2.52-37,14.87-51.93,21.12,14.25-10.36,82.16-36.34,90.41-37.9.85.21,3.99.43,5.98.07,1.42-.25,3.8-1.34,5.65-1.08Z"/>
          <path class="cls-9" d="m237.1,106.46c.89.4,1.73.79,2.53,1.16-22.39,15.52-48.53,23.25-48.53,23.25-1.12-.74-2.1-1.4-2.95-1.95,0,0,35.86-13.05,48.95-22.47Z"/>
          <path class="cls-9" d="m234.62,105.34c.85.38,1.69.75,2.48,1.11-13.09,9.42-48.95,22.47-48.95,22.47-.96-.64-1.76-1.16-2.44-1.6,0,0,32.06-13.25,48.91-21.98Z"/>
          <path class="cls-8" d="m231.84,126.78v13.42c-.52,0-1.2.03-2.01.08h0s-6.81-6.46-6.81-6.46c2.5-4.31,5.41-8.11,8.82-7.03Z"/>
          <path class="cls-8" d="m229.83,140.26h0c-2.63.14-6.61.42-10.7.6,1.18-1.98,2.47-4.61,3.89-7.06l6.81,6.45Z"/>
          <path class="cls-8" d="m207.79,32.17c1.6.48,4.03,3.82,4.03,3.82-2.9.93-5.89,2.01-8.93,3.19.23-2.75,3.08-5.88,4.9-7.01Z"/>
          <path class="cls-8" d="m197.51,33.63c1.35,2.86,2.36,5.58,2.37,6.77-19.79,8.16-40.78,20.45-49.6,25.86,0,0-.55-1.62-1.37-4.07-.23-.65-.46-1.36-.71-2.12-.32-.94-.64-1.94-.99-2.98-2.27-6.85-5-15.34-5.24-17.19,12.05-5.55,41.08-16.33,49.94-15,1.55,1.17,3.88,5.06,5.62,8.72Z"/>
          <path class="cls-8" d="m196.8,134.32h0c-5.3-.84-15.67,1.14-18.73,1.48-3.29-.93-5.78-.69-8.12-.4-2.98.37-16.07-1.22-16.07-1.22,1.71.14-.71-4.22,5.41-5.83,4.38-1.17,13.84-3.62,18.44-3.8.72-.03,1.32,0,1.76.09,2.38.52,2.35.21,6.23,2.69.68.43,1.48.96,2.44,1.6.85.55,1.83,1.2,2.95,1.95.29.18.59.38.9.59,1.87,1.24,3.45,2.17,4.8,2.85Z"/>
          <path class="cls-9" d="m191.89,24.91c-8.86-1.33-37.88,9.45-49.94,15-.09-.7-.33-1.63-.76-2.64,13.67-5.68,40.62-17.66,46.78-16.74,1.85,1.04,3.39,2.46,3.92,4.39Z"/>
          <path class="cls-9" d="m187.97,20.53c-6.16-.92-33.11,11.06-46.78,16.74-.22-.52-.48-1.05-.81-1.59h0c.56-1.08,23.37-10.83,38.06-17.86,0,0,5.51.45,9.53,2.71Z"/>
          <path class="cls-9" d="m174.71,10.03c3.63,4.15,3.73,7.78,3.73,7.78-14.69,7.03-37.5,16.79-38.06,17.85-1.88-3.17-5.61-6.2-12.1-4.46,0,0,5.59-2.81,12.91-6.38,8.86-4.32,20.25-9.76,27.33-12.69,3.02-1.25,5.26-2.05,6.19-2.11Z"/>
          <path class="cls-6" d="m164.89,114.4c3.63,1.4,6.09,3.84,12.82,10.15-4.6.18-14.06,2.62-18.44,3.8-6.12,1.61-3.7,5.98-5.41,5.83-.44-.03-1.08-.42-1.72-1.15.16-2.61,3.79-10.41,5.6-13.78s3.52-6.24,7.15-4.85Z"/>
          <path class="cls-8" d="m141.19,24.83c-.51-.07-1.12-.57-1.78-1.37-1.97-2.37-4.44-7.45-6.39-11.89l6.39-3.48-2.91-4.85c9.72.07,21.97,2.03,32.02,8.89h0c-7.09,2.93-18.47,8.38-27.33,12.7Z"/>
          <path class="cls-9" d="m138.24,88.07l13.2,26.33c-.4,1.24-.79,2.61-1.17,4.12-.09.38-.18.74-.25,1.1l-15.67-34.55c1.23.91,2.52,1.91,3.9,2.99Z"/>
          <path class="cls-8" d="m144.72,130.41c.77-.09,1.53-.24,2.27-.45h0c1.05-.28,2.06-.69,3.03-1.19.18.67.38,1.27.62,1.81,0,0-1.9,4.16-5.45,5.48-3.56,1.32-18.24,4.15-18.24,4.15,2.57-1.88,11.74-8.45,16.18-9.65.53-.03,1.07-.07,1.59-.15Z"/>
          <path class="cls-9" d="m134.35,85.07l15.67,34.55c-.64,3.04-.65,5.61-.31,7.7l-18.68-44.69c1.02.74,2.13,1.55,3.32,2.43h0Z"/>
          <path class="cls-9" d="m149.71,127.33c.08.51.18.99.31,1.44-.97.5-1.98.9-3.03,1.18l-18.67-49.21v-.02c.83.57,1.73,1.2,2.72,1.91h0s18.68,44.7,18.68,44.7h0Z"/>
          <path class="cls-9" d="m148.9,62.2c.82,2.45,1.37,4.07,1.37,4.07-9.92,4.59-15.68,6.94-29.98,5.55.06-1.61.29-3.31.65-5.04,10.82,1.52,20.25.18,27.96-4.58Z"/>
          <path class="cls-9" d="m148.19,60.07c.25.76.48,1.47.71,2.12-7.72,4.76-17.14,6.1-27.96,4.58.17-.85.37-1.71.59-2.57,8.51,1.35,17.33.47,26.66-4.13Z"/>
          <path class="cls-9" d="m147.2,57.1c.35,1.04.68,2.04.99,2.98-9.33,4.6-18.15,5.48-26.66,4.13.27-1.01.56-2.02.88-3.03,8.08,1.69,16.31.94,24.78-4.08Z"/>
          <path class="cls-9" d="m150.27,66.27c-2.73,2.68-5.43,4.75-8.02,6.33-9.3,5.68-17.05,5.08-18.84,4.52-1.85-1.99-3.13-5.3-3.13-5.3,14.3,1.39,20.06-.96,29.98-5.55Z"/>
          <path class="cls-8" d="m136.51,3.25l2.91,4.85-6.39,3.48c-1.92-4.34-3.35-8.07-3.35-8.07,2.06-.18,4.36-.28,6.83-.25Z"/>
          <path class="cls-8" d="m133.03,11.57c1.95,4.44,4.41,9.51,6.39,11.89-5.88-1.5-16.02,1.38-16.28,1.45.08-.74.19-1.43.33-1.99.13-.5.27-.9.45-1.15,1.17-1.6,3.18-9.25,3.18-13.21,0-2.52-1.93-3.62-4.68-4,1.76-.41,4.25-.82,7.26-1.07,0,0,1.43,3.74,3.35,8.07Z"/>
          <path class="cls-11" d="m101.6,37.27s-4.25,4.32-8.04,8.34l-.28-.26-1.35-16.17c3.66-1.98,7.77-4.41,9.37-5.6,2.88-2.13,9.04-11.84,13.58-15.05,2.68-.44,7.87,2.24,8.29,4.48.22,1.17-.11,5.32-1.03,9.62-.23,1.06-.48,2.14-.79,3.18-1.35,4.67-3.45,8.71-4.16,9.5-1.44,1.59-3.42,2.57-5.64,3.1-1.39.33-2.88.49-4.39.53-.55,0-1.07-.02-1.56-.08-1.66-.22-2.97-.83-4-1.6Z"/>
          <path class="cls-12" d="m123.39,139.24c-.79,1.11-5.29,1.48-5.29,1.48-7.23-7.56-21.57-25.38-30.51-36.89l.79-.7c.44.6.93,1.22,1.46,1.85,4.97,5.86,25.09,28.27,33.55,34.26Z"/>
          <path class="cls-12" d="m118.1,140.72c-.59.18-2.16.44-4.88-.34-.96-.28-4.19-2.22-4.19-2.22-8.94-12.66-29.86-38.83-29.86-38.83h-.07c.23-2.22.43-4.14.6-5.66.08-.17.12-.25.12-.25.33.68,3.4,4.79,7.77,10.42,8.94,11.51,23.28,29.33,30.51,36.89Z"/>
          <path class="cls-6" d="m112.55,91.53l-.99.67s-.7,13.33-.08,16.33l-2.31.6c-6.39-2.76-20.13-13.8-24.58-21.9v-3.32c0-.7-.58-1.28-1.28-1.28,2.48-5.29,11.88-16.87,16.5-17.84h0c-.08,4.64,1.14,9.21,3.26,12.47,2.01,3.08,5.65,8.54,9.48,14.27Z"/>
          <path class="cls-6" d="m109.03,43.33c.16.53,0,2.81,0,2.81-1.73,2.02-3.34,4-4.81,5.73-2.14,2.52-3.44,5.66-4.04,8.94-1.06.23-2.09.59-3.09,1.04h0c-4.47.62-15.1,7.2-17.56,15.61l-4.29-12.08c-1.25-2.78-4.06-9.19-5.27-9.67,5.82-4.61,10.59-9.85,13.75-13.7l.7,22.48,3.85-4.66,17.35-20.96c.49.07,1.01.09,1.56.08,1.51-.03,3-.19,4.39-.53,0,0-2.68,4.37-2.52,4.91Z"/>
          <path class="cls-12" d="m92.91,128.82c-6.04-9.18-14.51-22.36-14.51-22.36h-.04c.27-2.57.52-4.99.74-7.14h.07s20.91,26.17,29.86,38.84c0,0-9.09.28-10.22-.71-.38-.33-2.83-3.96-5.89-8.63Z"/>
          <path class="cls-12" d="m105.6,38.86l-17.35,20.96-.28-7.97c.73-1.03,3.06-3.58,5.58-6.25,3.8-4.02,8.04-8.34,8.04-8.34,1.04.77,2.35,1.38,4,1.6Z"/>
          <path class="cls-12" d="m100.18,60.81c-.23,1.31-.36,2.65-.37,3.98h0c-4.62.97-14.02,12.55-16.5,17.84h-3.2c1.66-5.27,8.07-16.82,16.99-20.78,1-.45,2.03-.8,3.09-1.04Z"/>
          <path class="cls-12" d="m97.08,61.84h0c-8.91,3.97-15.32,15.52-16.99,20.79h-1.7c-.05-6.51-7.87-18.52-12.05-24.17l-.05-.05c1.26-.87,2.48-1.77,3.66-2.7,1.21.48,4.02,6.9,5.27,9.67l4.29,12.08c2.46-8.42,13.09-15,17.56-15.62Z"/>
          <path class="cls-12" d="m93.28,45.35l.28.26c-2.52,2.67-4.86,5.22-5.58,6.25v-20.66c1.13-.53,2.5-1.25,3.95-2.02l1.35,16.17Z"/>
          <path class="cls-8" d="m92.91,128.82l-16.28-4.92c.55-5.78,1.17-11.96,1.73-17.44h.04s8.47,13.18,14.51,22.36Z"/>
          <path class="cls-12" d="m88.37,103.13l-.79.7c-4.36-5.63-7.44-9.74-7.77-10.42,0,0-.04.08-.12.25.24-2.32.39-3.69.39-3.69h3.2c.18,0,.36-.04.51-.11l.06.11c0,2.92.23,7.35,4.51,13.15Z"/>
          <path class="cls-12" d="m88.26,59.83l-3.85,4.66-.7-22.48c2.73-3.32,4.26-5.62,4.26-5.62v15.47l.28,7.97Z"/>
          <path class="cls-12" d="m87.97,31.21v5.18s-1.54,2.3-4.26,5.62c-3.16,3.85-7.93,9.09-13.75,13.7-1.18.93-2.4,1.83-3.66,2.7-1.1.75-2.24,1.48-3.4,2.16-1.6.94-3.26,1.81-4.97,2.55,1.14-1.96,2.25-3.83,3.27-5.61.43-.74.84-1.46,1.22-2.17,6.63-2.4,12.78-11.57,15.29-13.62,2.88-2.35,5.88-9.29,7.79-9.55.43-.06,1.32-.42,2.47-.96Z"/>
          <path class="cls-12" d="m61.15,125.68c-2.32,2.98-4.54,5.27-6.45,6.28-2.27-.92-6.55-3.03-6.55-3.03,9.96-8.27,29.42-34.38,30.52-38.94h1.43s-.15,1.37-.39,3.69c-.38.8-1.67,3.46-3.53,7.05,0,0,0,.02,0,.03-3.69,7.16-9.61,17.96-15.02,24.94Z"/>
          <path class="cls-12" d="m79.71,93.67c-.17,1.52-.37,3.44-.6,5.65-.23,2.15-.48,4.56-.74,7.14-.56,5.48-1.18,11.65-1.73,17.44-.27,2.8-.52,5.51-.74,8,0,0-2.7.14-9.1,0,1.29-.63,2.62-3.54,3.87-7.35,2.95-9.05,5.41-23.19,5.51-23.81,0,0,0-.02,0-.03,1.86-3.59,3.14-6.24,3.53-7.05Z"/>
          <path class="cls-12" d="m76.89,89.98h1.78c-1.1,4.56-20.55,30.68-30.52,38.94l-3.25,3.03s-1.01-.49-4.43-2.01c.23-.11.61-.43,1.1-.89.03-.03.05-.04.05-.04,2.43-2.34,7.29-8.13,7.69-8.61.02-.03.03-.03.03-.03,5.54-4.25,10.89-11.19,13.33-13.93,3.99-4.44,13.17-17.03,13.17-17.03.23.33.62.55,1.05.55Z"/>
          <path class="cls-12" d="m78.4,82.62h-1.51c-.26,0-.49.08-.69.21-.26-1.4-7.26-15.64-13.29-22.25h0c1.16-.69,2.3-1.42,3.4-2.17l.05.05c4.18,5.64,12,17.65,12.05,24.17Z"/>
          <path class="cls-6" d="m46.59,97.49c.07-1.3.16-2.63.28-4,.14-1.6.33-3.25.55-4.9.03-.22.06-.43.09-.65.19-1.35.48-2.69.83-4.03,1.91-7.25,5.88-14.42,9.59-20.78,1.71-.74,3.36-1.6,4.97-2.55h0c6.04,6.62,13.03,20.86,13.29,22.26-.35.23-.59.63-.59,1.07v4.81c0,.27.08.52.23.72,0,0-9.19,12.59-13.17,17.03-2.44,2.73-7.79,9.67-13.33,13.93,0,0,0,0-.03.03-2.62,2-5.27,3.4-7.69,3.49-.79.03-1.55-.08-2.28-.36-4.03-1.55-9.95-10.26-14.66-18.19,0,0,14.18-3.04,21.93-7.86Z"/>
          <path class="cls-8" d="m76.17,100.74c-.1.62-2.56,14.75-5.51,23.81l-.09-.03-9.42,1.16c5.41-6.98,11.33-17.79,15.02-24.94Z"/>
          <path class="cls-9" d="m69.39,32.17c-.29.55-6.2,7.73-8.92,14.93-17.91,9.62-22.28,14.94-32.58,28.32-1.61-.56-3.33-1.15-5.14-1.79,6.4-20.06,30.3-35.64,46.64-41.46Z"/>
          <path class="cls-9" d="m60.47,47.1c-.69,1.83-1.18,3.67-1.31,5.4-13.84,6.49-21.82,18.36-26.32,24.61-1.53-.52-3.17-1.09-4.94-1.69,10.3-13.38,14.66-18.7,32.58-28.32Z"/>
          <path class="cls-9" d="m47.42,88.58c-.23,1.65-.41,3.29-.55,4.9-6.4,3.31-24.12,8.57-24.12,8.57-.74-1.29-1.43-2.52-2.05-3.66,0,0,21.72-5.96,26.72-9.81Z"/>
          <path class="cls-9" d="m46.87,93.48c-.12,1.37-.21,2.71-.28,4-7.75,4.81-21.93,7.86-21.93,7.86-.67-1.12-1.31-2.22-1.91-3.29,0,0,17.71-5.26,24.12-8.57Z"/>
          <path class="cls-12" d="m49.3,120.41c-.4.48-5.26,6.27-7.69,8.61,0,0-.02.02-.05.04-.24.18-1.31.97-2.87,1.52,0,0-.5-.68-2.93-1.66,1.42-.56,5.84-5.03,5.84-5.03,2.42-.08,5.07-1.49,7.69-3.49Z"/>
        </g>
        <g>
          <line class="cls-3" x1="109.51" y1="19.74" x2="113.14" y2="21.77"/>
          <line class="cls-3" x1="117.2" y1="24.01" x2="119.01" y2="25.82"/>
          <path class="cls-3" d="m112.57,28.63l-.96,2.1c-.15.35,0,.76.37.89l1.29.49c.38.15.82-.07.93-.47l.69-2.62"/>
          <path class="cls-3" d="m109.03,33.96c.28.44.69.78,1.31.94"/>
          <line class="cls-3" x1="91.93" y1="29.19" x2="93.28" y2="45.35"/>
          <polyline class="cls-3" points="87.97 31.21 87.97 36.39 87.97 51.86"/>
          <path class="cls-3" d="m88.26,59.83l-.28-7.97c.73-1.03,3.06-3.58,5.58-6.25,3.8-4.02,8.04-8.34,8.04-8.34"/>
          <polyline class="cls-3" points="105.6 38.86 88.26 59.83 84.41 64.49"/>
          <path class="cls-3" d="m140.38,35.68c.33.53.59,1.07.81,1.59.43,1.01.67,1.94.76,2.64.24,1.85,2.98,10.34,5.24,17.19.35,1.04.68,2.04.99,2.98.25.76.48,1.47.71,2.12.82,2.45,1.37,4.07,1.37,4.07-9.92,4.59-15.68,6.94-29.98,5.55.06-1.61.29-3.31.65-5.04.17-.85.37-1.71.59-2.57.27-1.01.56-2.02.88-3.03,2.61-8.28,6.7-16.07,6.84-17.85"/>
          <path class="cls-3" d="m109.17,45.97c1.25-1.46,2.57-2.96,3.97-4.41.61-.64,1.24-1.27,1.87-1.9,4-3.87,8.45-7.18,13.27-8.46,6.49-1.74,10.21,1.3,12.1,4.46"/>
          <path class="cls-3" d="m124.13,108.85c-2.72-4.07-7.26-10.86-11.59-17.32-3.83-5.73-7.47-11.18-9.48-14.27-2.12-3.26-3.34-7.83-3.26-12.47,0-1.33.13-2.67.37-3.98.59-3.29,1.9-6.42,4.04-8.94,1.47-1.73,3.08-3.7,4.81-5.73"/>
          <path class="cls-3" d="m122.41,61.18c8.08,1.69,16.31.94,24.78-4.08"/>
          <path class="cls-3" d="m120.94,66.78c10.82,1.52,20.25.18,27.96-4.58"/>
          <path class="cls-3" d="m121.53,64.2c8.51,1.35,17.33.47,26.66-4.13"/>
          <path class="cls-3" d="m111.55,38.42s-2.68,4.37-2.52,4.91c.16.53,0,2.81,0,2.81l.15-.17,3.97-4.41c.58-.58,1.22-1.22,1.87-1.9,2.46-2.5,5.23-5.46,6.66-7.01.94-1.02,1.1-4.85,1.46-7.74.08-.74.19-1.43.33-1.99.13-.5.27-.9.45-1.15,1.17-1.6,3.18-9.25,3.18-13.21,0-2.52-1.93-3.62-4.68-4-1.55-.22-3.35-.2-5.22-.08-5.17.32-14.19,5.98-20.17,10.88s-13.34,8.38-16.75,9.55c-3.42,1.18-10.46,6.46-10.88,7.26-.29.55-6.2,7.73-8.92,14.93-.69,1.83-1.18,3.67-1.31,5.4-.08,1.2,0,2.36.3,3.42.99-.02,1.98-.22,2.96-.58,6.63-2.4,12.78-11.57,15.29-13.62,2.88-2.35,5.88-9.29,7.79-9.55.43-.06,1.32-.42,2.47-.96,1.13-.53,2.5-1.25,3.95-2.02,3.66-1.98,7.77-4.41,9.37-5.6,2.88-2.13,9.04-11.84,13.58-15.05,2.68-.44,7.87,2.24,8.29,4.48.22,1.17-.11,5.32-1.03,9.62-.23,1.06-.48,2.14-.79,3.18-1.35,4.67-3.45,8.71-4.16,9.5-1.44,1.59-3.42,2.57-5.64,3.1-1.39.33-2.88.49-4.39.53-.55,0-1.07-.02-1.56-.08-1.66-.22-2.97-.83-4-1.6-2.7-2.01-3.5-5.1-3.5-5.1"/>
          <path class="cls-3" d="m62.42,55.34c-.38.71-.79,1.43-1.22,2.17-1.02,1.78-2.13,3.65-3.27,5.61-3.7,6.36-7.68,13.53-9.59,20.78-.35,1.34-.64,2.68-.83,4.03-.03.22-.06.43-.09.65-.23,1.65-.41,3.29-.55,4.9-.12,1.37-.21,2.71-.28,4-.43,7.87-.04,14.12-.04,14.34"/>
          <path class="cls-3" d="m146.99,129.95c-.74.21-1.5.36-2.27.45-.52.08-1.05.13-1.59.15-2.43.13-5-.21-7.62-.94-8.25-2.27-20.54-9.67-22.29-16.51"/>
          <path class="cls-3" d="m150.02,128.77c-.97.5-1.98.9-3.03,1.18"/>
          <path class="cls-3" d="m134.35,85.07c1.23.91,2.52,1.91,3.9,2.99,2.74,2.18,5.75,4.7,8.94,7.61.33.28.66.59.99.9,2.85,2.62,5.83,5.53,8.89,8.77"/>
          <path class="cls-3" d="m131.03,82.63c1.02.74,2.13,1.55,3.32,2.43"/>
          <path class="cls-3" d="m120.29,71.82s1.28,3.31,3.13,5.3c.56.6,2.29,1.76,4.91,3.6.82.57,1.72,1.2,2.71,1.91"/>
          <polyline class="cls-3" points="128.31 80.74 146.99 129.95 146.99 129.95"/>
          <path class="cls-3" d="m111.55,92.2s-.7,13.33-.08,16.33c.03.13.05.23.08.33"/>
          <path class="cls-3" d="m110.34,109.56c-.36-.11-.75-.25-1.18-.43-6.39-2.76-20.13-13.8-24.58-21.9"/>
          <path class="cls-3" d="m149.71,127.32c-.34-2.09-.33-4.66.31-7.7.07-.36.16-.73.25-1.1.38-1.51.77-2.88,1.17-4.12,1.37-4.2,2.98-6.97,5.73-8.92,1.94-1.39,4.43-2.37,7.8-3.18,9.53-2.27,29.73-13.37,32.87-12.24.89.33,5.24,2.05,11.03,4.41,7.63,3.11,17.75,7.32,25.75,10.88.85.38,1.69.75,2.48,1.11.89.4,1.73.79,2.53,1.16,4.63,2.16,7.78,3.83,8,4.46.2.59-1.88,2.12-5.21,4.14-1,.62-2.12,1.27-3.33,1.96-11.7,6.65-31.44,16.22-33.01,16.72-1.87.59-3.07,2.61-9.29-.57-1.35-.68-2.93-1.61-4.8-2.85-.31-.21-.61-.41-.9-.59-1.12-.74-2.1-1.4-2.95-1.95-.96-.64-1.76-1.16-2.44-1.6-3.88-2.48-3.85-2.17-6.23-2.69-.44-.09-1.04-.13-1.76-.09-4.6.18-14.06,2.62-18.44,3.8-6.12,1.61-3.7,5.98-5.41,5.83-.44-.03-1.08-.42-1.72-1.15-.53-.59-1.05-1.4-1.5-2.44-.23-.54-.44-1.15-.62-1.81-.13-.45-.23-.93-.31-1.44"/>
          <path class="cls-3" d="m126.95,140.21s14.68-2.83,18.24-4.15c3.55-1.32,5.45-5.48,5.45-5.48"/>
          <path class="cls-3" d="m256.8,125.92c-1.59-2.56-3.3-4.97-4.75-6.6-.53-.59-1.02-1.1-1.45-1.45-.37-.31-.7-.52-.98-.62-.33-.13-.66-.23-.98-.33-.52-.18-1.01-.33-1.48-.44-1.87-.48-3.36-.57-4.74-.25t-.02,0"/>
          <path class="cls-3" d="m153.87,134.17s13.09,1.59,16.07,1.22c2.33-.28,4.83-.53,8.12.4.93.26,1.91.61,2.98,1.08,4.84,2.13,17.93,2.84,25.19,3.85,3.15.43,8.11.35,12.91.14,4.09-.18,8.07-.46,10.7-.59.8-.04,1.49-.07,2.01-.08.37,0,.66,0,.85.02,1.09.1,6.41-.22,12.26-.69,7.11-.57,15.01-1.37,17.04-1.92.05-1.5-1.15-4.45-2.86-7.65-.71-1.33-1.5-2.7-2.33-4.04"/>
          <path class="cls-3" d="m219.03,141.03c.03-.05.07-.11.1-.17,1.18-1.98,2.47-4.61,3.89-7.06,2.5-4.31,5.41-8.11,8.82-7.03v13.42"/>
          <line class="cls-3" x1="223.02" y1="133.81" x2="229.83" y2="140.26"/>
          <path class="cls-3" d="m244.96,139.52s11.61-8.94,14.19-9.57"/>
          <path class="cls-3" d="m239.1,118.17s4.33,7.75,5.86,7.18c1.54-.57,2.71-8.79,3.69-8.44"/>
          <path class="cls-3" d="m185.71,127.33s32.06-13.25,48.91-21.98"/>
          <path class="cls-3" d="m188.15,128.93s35.86-13.05,48.95-22.47"/>
          <path class="cls-3" d="m191.1,130.87s26.14-7.73,48.53-23.25"/>
          <path class="cls-3" d="m197.84,90.06c12.73-5.33,39.84-14.26,72.92-14.05v24.12c-10.77-3.84-47.26-7.22-61.88-5.66"/>
          <path class="cls-3" d="m270.75,100.13c0,1.92-.22,4.87-4.8,7.65-4.59,2.78-12.4,7.56-18.79,8.69"/>
          <path class="cls-3" d="m250.6,117.86s18.58-8.24,20.15-12.09"/>
          <path class="cls-3" d="m252.05,119.31s14.22-5.34,18.7-9.83"/>
          <path class="cls-3" d="m262,137.6s6.85-2.39,8.75-5.6v-6.5s-1.39,0-5.76-.75c-4.25-.73-7.97,1.06-8.18,1.17h0c-3.78,1.41-11.84-.57-11.84-.57"/>
          <path class="cls-3" d="m123.41,77.12c1.79.56,9.54,1.16,18.84-4.52,2.58-1.58,5.28-3.64,8.02-6.33,8.83-5.42,29.81-17.7,49.6-25.86,1.01-.42,2.01-.83,3.02-1.22,3.03-1.19,6.03-2.27,8.93-3.19,6.8-2.17,13.07-3.5,18.21-3.48,0,0,3.52,8.39,4.37,8.61.85.21,3.99.43,5.98.07,1.42-.25,3.8-1.34,5.65-1.08.74.1,1.4.42,1.89,1.08,2.73,3.69,3.25,10.57,3.25,10.57,4.06-2.24,8.81-5.66,9.45-5.66,2.35,1.07,10.14,2.99,10.14,2.99v26.92"/>
          <path class="cls-3" d="m142.26,72.59s.79,2.77,1.73,6.43c.76,2.93,1.62,6.44,2.27,9.56.62,3.03,1.04,5.68.94,7.08"/>
          <path class="cls-3" d="m143.99,79.02c14.93-6.24,44.33-18.59,51.93-21.12,16.72-5.55,39.73-11.38,42.19-12.13,2.45-.74,5.93-2.68,7.92-5.66"/>
          <path class="cls-3" d="m146.25,88.58c17.58-8.98,52.79-22.69,63.91-26.39,19.72-6.55,34.34-8.18,41-10.44"/>
          <path class="cls-3" d="m148.19,96.57c13.07-6.93,74.54-34.37,122.56-35.43"/>
          <path class="cls-3" d="m234.4,41.12c-8.25,1.56-76.16,27.54-90.41,37.9"/>
          <path class="cls-3" d="m177.72,124.55c-6.74-6.31-9.19-8.75-12.82-10.15-3.63-1.39-5.33,1.48-7.15,4.85s-5.44,11.17-5.6,13.78"/>
          <line class="cls-3" x1="138.24" y1="88.07" x2="151.44" y2="114.4"/>
          <polyline class="cls-3" points="134.35 85.07 134.35 85.07 150.02 119.62"/>
          <polyline class="cls-3" points="149.71 127.33 149.71 127.32 131.03 82.63 131.03 82.62"/>
          <path class="cls-3" d="m141.96,39.91c12.05-5.55,41.08-16.33,49.94-15,1.55,1.17,3.88,5.06,5.62,8.72,1.35,2.86,2.36,5.58,2.37,6.77"/>
          <path class="cls-3" d="m197.51,33.63c4.63-.44,8.69-1.95,10.28-1.46,1.6.48,4.03,3.82,4.03,3.82"/>
          <path class="cls-3" d="m207.79,32.17c-1.81,1.13-4.67,4.26-4.9,7.01"/>
          <path class="cls-3" d="m128.29,31.21s5.59-2.81,12.91-6.38c8.86-4.32,20.25-9.76,27.33-12.69,3.02-1.25,5.26-2.05,6.19-2.11,3.63,4.15,3.73,7.78,3.73,7.78-14.69,7.03-37.5,16.79-38.06,17.85h0"/>
          <path class="cls-3" d="m178.44,17.82s5.51.45,9.53,2.71c1.85,1.04,3.39,2.46,3.92,4.39"/>
          <path class="cls-3" d="m141.19,37.27c13.67-5.68,40.62-17.66,46.78-16.74"/>
          <path class="cls-3" d="m122.41,4.57c1.76-.41,4.25-.82,7.26-1.07,2.06-.18,4.36-.28,6.83-.25,9.72.07,21.97,2.03,32.02,8.89"/>
          <path class="cls-3" d="m129.68,3.5s1.43,3.74,3.35,8.07c1.95,4.44,4.41,9.51,6.39,11.89.66.8,1.27,1.3,1.78,1.37,3.43-9.57,6-18,6-18"/>
          <path class="cls-3" d="m123.13,24.91h0c.25-.08,10.39-2.95,16.28-1.45"/>
          <polyline class="cls-3" points="133.02 11.57 133.03 11.57 139.41 8.1 136.51 3.25 136.51 3.24"/>
          <path class="cls-3" d="m69.39,32.17c-16.33,5.82-40.23,21.4-46.64,41.46,1.81.64,3.53,1.23,5.14,1.79,1.77.6,3.41,1.17,4.94,1.69,1.5.51,2.88.99,4.15,1.44,4.41,1.54,7.52,2.74,9.48,3.94.76.46,1.35.92,1.77,1.4"/>
          <path class="cls-3" d="m22.75,73.63s.14,3.41.5,7.11c.43,4.23,1.14,8.85,2.27,9.24"/>
          <path class="cls-3" d="m17.17,91.73c.16.25.45.41.89.47,1.09.13,4.04-.5,7.67-1.53,7.82-2.2,18.73-6.19,20.66-8.04"/>
          <path class="cls-3" d="m23.26,80.74s0,0,0,0c-2.45,3.43-7.02,9.08-6.13,10.89"/>
          <path class="cls-3" d="m49.33,120.38c5.54-4.25,10.89-11.19,13.33-13.93,3.99-4.44,13.17-17.03,13.17-17.03"/>
          <path class="cls-3" d="m17.13,91.64s.02.03.04.09c.26.51,1.59,3.13,3.54,6.66.62,1.14,1.3,2.37,2.05,3.66.6,1.07,1.25,2.17,1.91,3.29,4.71,7.92,10.63,16.63,14.66,18.19.73.28,1.49.39,2.28.36,2.42-.08,5.07-1.49,7.69-3.49"/>
          <path class="cls-3" d="m20.71,98.39s21.72-5.96,26.72-9.81"/>
          <path class="cls-3" d="m22.75,102.05s17.71-5.26,24.12-8.57"/>
          <path class="cls-3" d="m24.67,105.34s14.18-3.04,21.93-7.86c.09-.05.18-.11.28-.17"/>
          <path class="cls-3" d="m27.9,75.42c10.3-13.38,14.66-18.7,32.58-28.32"/>
          <path class="cls-3" d="m32.84,77.11c4.51-6.25,12.48-18.12,26.32-24.61h0"/>
          <path class="cls-3" d="m37.05,78.37c3.01-5.75,18.25-21.6,24.15-20.86"/>
          <path class="cls-3" d="m76.17,100.74c-.1.62-2.56,14.75-5.51,23.81-1.25,3.81-2.58,6.72-3.87,7.35,6.4.14,9.1,0,9.1,0,.22-2.49.47-5.2.74-8,.55-5.78,1.17-11.96,1.73-17.44.27-2.57.52-4.99.74-7.14.23-2.21.43-4.13.6-5.65.24-2.32.39-3.69.39-3.69"/>
          <path class="cls-3" d="m79.82,93.42s-.04.08-.12.25c-.38.8-1.67,3.46-3.53,7.05,0,0,0,.02,0,.03-3.69,7.16-9.61,17.96-15.02,24.94-2.32,2.98-4.54,5.27-6.45,6.28-2.27-.92-6.55-3.03-6.55-3.03,9.96-8.27,29.42-34.38,30.52-38.94"/>
          <path class="cls-3" d="m41.56,129.06c-.48.47-.87.79-1.1.89,3.42,1.51,4.43,2.01,4.43,2.01l3.25-3.03"/>
          <path class="cls-3" d="m49.33,120.37h0s0,0-.03.03c-.4.48-5.26,6.27-7.69,8.61"/>
          <path class="cls-3" d="m41.61,123.89s-4.42,4.47-5.84,5.03c2.42.98,2.93,1.66,2.93,1.66,1.55-.55,2.62-1.34,2.87-1.52.03-.03.05-.04.05-.04"/>
          <polyline class="cls-3" points="61.11 125.68 61.15 125.68 70.57 124.52"/>
          <polyline class="cls-3" points="76.63 123.89 92.91 128.82 93.28 128.93"/>
          <path class="cls-3" d="m78.4,106.46s8.47,13.18,14.51,22.36c3.07,4.66,5.51,8.29,5.89,8.63,1.14.99,10.22.71,10.22.71-8.94-12.66-29.86-38.83-29.86-38.83"/>
          <path class="cls-3" d="m109.03,138.15s3.23,1.95,4.19,2.22c2.72.79,4.3.53,4.88.34-7.23-7.56-21.57-25.38-30.51-36.89-4.36-5.63-7.44-9.74-7.77-10.42"/>
          <path class="cls-3" d="m83.87,89.98c0,2.92.23,7.35,4.51,13.15.44.6.93,1.22,1.46,1.85,4.97,5.86,25.09,28.27,33.55,34.26,1.24.88,2.22,1.4,2.88,1.48,0,0,.24-.18.69-.51,2.57-1.88,11.74-8.45,16.18-9.65.64-.17,1.18-.23,1.59-.15,0,0,.03,0,.03,0"/>
          <path class="cls-3" d="m118.1,140.72s4.51-.37,5.29-1.48"/>
          <path class="cls-3" d="m83.81,89.87c-.15.07-.33.11-.51.11h-6.41c-.43,0-.82-.22-1.05-.55-.14-.2-.23-.45-.23-.72v-4.81c0-.44.23-.84.59-1.07.2-.13.43-.21.69-.21h6.41c.7,0,1.28.58,1.28,1.28v4.81c0,.52-.32.97-.77,1.16Z"/>
          <path class="cls-3" d="m83.3,82.62c2.48-5.29,11.88-16.87,16.5-17.84"/>
          <path class="cls-3" d="m80.1,82.62c1.66-5.27,8.07-16.82,16.99-20.78,1-.45,2.03-.8,3.09-1.04"/>
          <path class="cls-3" d="m97.08,61.84c-4.47.63-15.1,7.21-17.56,15.62l-4.29-12.08c-1.25-2.78-4.06-9.19-5.27-9.67"/>
          <path class="cls-3" d="m87.97,36.39s-1.54,2.3-4.26,5.62c-3.16,3.85-7.93,9.09-13.75,13.7-1.18.93-2.4,1.83-3.66,2.7-1.1.75-2.24,1.48-3.4,2.16-1.6.94-3.26,1.81-4.97,2.55-.03.02-.08.03-.11.05"/>
          <path class="cls-3" d="m66.35,58.46c4.18,5.64,12,17.65,12.05,24.17"/>
          <path class="cls-3" d="m62.9,60.58c6.04,6.61,13.03,20.86,13.29,22.25"/>
          <line class="cls-3" x1="83.71" y1="42.01" x2="84.41" y2="64.49"/>
          <path class="cls-3" d="m178.06,135.8c3.06-.34,13.43-2.32,18.73-1.47"/>
        </g>
      </g>
    </g>
    <path class="cls-4" d="m116.99,12.59c-.18.46-1.13.52-2.14.12-1-.39-1.66-1.07-1.48-1.54.18-.46,1.13-.52,2.13-.13,1,.4,1.66,1.08,1.49,1.55Z"/>
    <path class="cls-4" d="m122.35,15.5c-.27.41-1.21.29-2.12-.28-.91-.57-1.43-1.37-1.16-1.79.26-.42,1.21-.29,2.11.27.91.58,1.43,1.37,1.17,1.8Z"/>
  </g>
</svg>