<?xml version="1.0" encoding="UTF-8"?>
<svg xmlns="http://www.w3.org/2000/svg" xmlns:xlink="http://www.w3.org/1999/xlink" viewBox="0 0 271.54 197.09">
  <defs>
    <style>
      .cls-1 {
        stroke-miterlimit: 10;
      }

      .cls-1, .cls-2, .cls-3 {
        fill: none;
      }

      .cls-1, .cls-4, .cls-3 {
        stroke: #000;
      }

      .cls-5 {
        fill: #f3edd7;
      }

      .cls-5, .cls-2, .cls-6, .cls-7, .cls-8, .cls-9, .cls-10, .cls-11, .cls-12 {
        stroke-width: 0px;
      }

      .cls-4, .cls-3 {
        stroke-linecap: round;
        stroke-linejoin: round;
      }

      .cls-4, .cls-7 {
        fill: #333;
      }

      .cls-6 {
        fill: #ad7dbb;
      }

      .cls-8 {
        fill: #fe523e;
      }

      .cls-9 {
        fill: #f4f1de;
      }

      .cls-10 {
        fill: #f7f0a0;
      }

      .cls-13 {
        clip-path: url(#clippath);
      }

      .cls-11 {
        fill: #d2d296;
      }

      .cls-12 {
        fill: #fbeedd;
      }
    </style>
    <clipPath id="clippath">
      <rect class="cls-2" x="15.73" width="254.42" height="142.82"/>
    </clipPath>
  </defs>
  <g id="_畳" data-name="畳">
    <g>
      <g>
        <rect class="cls-5" x=".24" y="162.45" width="3.62" height="5.03"/>
        <path class="cls-5" d="m270.15,190.03v6.57h-30.45l15.35-8.63c1.03,1.62,3.11,2.72,5.51,2.72s4.62-1.18,5.62-2.88l3.97,2.23Z"/>
        <path class="cls-5" d="m270.15,179.47v10.56l-3.97-2.23c.38-.65.59-1.38.59-2.14,0-1.3-.62-2.48-1.62-3.38l4.99-2.8Z"/>
        <path class="cls-5" d="m270.15,167.47v11.99l-4.99,2.8c-1.14-1.01-2.77-1.64-4.59-1.64s-3.31.58-4.44,1.51l-26.1-14.67h40.12Z"/>
        <polygon class="cls-5" points="270.15 88.62 270.15 94.38 1.13 94.38 .24 94.38 .24 88.62 270.15 88.62"/>
        <rect class="cls-5" x="266.16" y="162.45" width="3.99" height="5.03"/>
        <path class="cls-5" d="m266.78,185.65c0,.76-.21,1.49-.59,2.14l-5.42-3.05,4.39-2.47c1,.89,1.62,2.08,1.62,3.38Z"/>
        <path class="cls-5" d="m260.77,184.75l5.42,3.05c-1,1.7-3.13,2.88-5.62,2.88s-4.48-1.1-5.51-2.72l5.71-3.21Z"/>
        <rect class="cls-7" x="254.85" y="162.45" width="11.31" height="5.03"/>
        <path class="cls-5" d="m265.16,182.27l-4.39,2.47-4.64-2.61c1.13-.93,2.7-1.51,4.44-1.51,1.82,0,3.46.63,4.59,1.64Z"/>
        <path class="cls-5" d="m260.77,184.75l-5.71,3.21c-.44-.69-.69-1.48-.69-2.31,0-1.37.68-2.61,1.77-3.51l4.64,2.61Z"/>
        <path class="cls-5" d="m230.03,167.47l26.1,14.67c-1.09.9-1.77,2.14-1.77,3.51,0,.83.25,1.62.69,2.31l-15.35,8.63h-41.48l-15.65-8.8c.38-.65.59-1.38.59-2.14,0-1.3-.62-2.48-1.62-3.37l26.34-14.81h22.15Zm-5.97,18.18c0-2.77-2.25-5.02-5.02-5.02s-5.03,2.25-5.03,5.02,2.25,5.03,5.03,5.03,5.02-2.25,5.02-5.03Z"/>
        <polygon class="cls-5" points="254.85 167.47 230.03 167.47 224.33 167.47 224.33 162.45 254.85 162.45 254.85 167.47"/>
        <rect class="cls-7" x="213.02" y="162.45" width="11.31" height="5.03"/>
        <path class="cls-7" d="m219.05,180.63c2.77,0,5.02,2.25,5.02,5.02s-2.25,5.03-5.02,5.03-5.03-2.25-5.03-5.03,2.25-5.02,5.03-5.02Z"/>
        <path class="cls-5" d="m207.88,167.47l-26.34,14.81c-1.14-1.02-2.77-1.65-4.59-1.65s-3.31.58-4.44,1.51l-26.1-14.67h61.47Z"/>
        <polygon class="cls-5" points="182.5 167.47 182.5 162.45 213.02 162.45 213.02 167.47 207.88 167.47 182.5 167.47"/>
        <path class="cls-5" d="m198.21,196.59h-42.13l15.35-8.63c1.03,1.62,3.12,2.72,5.51,2.72s4.62-1.18,5.62-2.88l15.65,8.8Z"/>
        <path class="cls-5" d="m183.16,185.65c0,.76-.21,1.49-.59,2.14l-5.42-3.05,4.39-2.47c1,.89,1.62,2.07,1.62,3.37Z"/>
        <path class="cls-5" d="m177.15,184.75l5.42,3.05c-1,1.7-3.13,2.88-5.62,2.88s-4.48-1.1-5.51-2.72l5.71-3.21Z"/>
        <rect class="cls-7" x="171.19" y="162.45" width="11.31" height="5.03"/>
        <path class="cls-5" d="m176.95,180.63c1.82,0,3.46.63,4.59,1.65l-4.39,2.47-4.64-2.61c1.13-.93,2.7-1.51,4.44-1.51Z"/>
        <path class="cls-5" d="m177.15,184.75l-5.71,3.21c-.44-.69-.69-1.48-.69-2.31,0-1.37.68-2.61,1.77-3.51l4.64,2.61Z"/>
        <path class="cls-5" d="m146.41,167.47l26.1,14.67c-1.09.9-1.77,2.14-1.77,3.51,0,.83.25,1.62.69,2.31l-15.35,8.63h-41.48l-15.65-8.8c.38-.65.59-1.38.59-2.14,0-1.3-.62-2.48-1.62-3.37l26.34-14.81h22.15Zm-7.02,18.18c0-2.77-2.25-5.02-5.02-5.02s-5.03,2.25-5.03,5.02,2.25,5.03,5.03,5.03,5.02-2.25,5.02-5.03Z"/>
        <polygon class="cls-5" points="171.19 167.47 146.41 167.47 140.67 167.47 140.67 162.45 171.19 162.45 171.19 167.47"/>
        <rect class="cls-7" x="129.36" y="162.45" width="11.31" height="5.03"/>
        <path class="cls-7" d="m134.38,180.63c2.77,0,5.02,2.25,5.02,5.02s-2.25,5.03-5.02,5.03-5.03-2.25-5.03-5.03,2.25-5.02,5.03-5.02Z"/>
        <path class="cls-5" d="m124.26,167.47l-26.34,14.81c-1.14-1.02-2.77-1.65-4.59-1.65s-3.31.58-4.44,1.51l-26.1-14.67h61.47Z"/>
        <polygon class="cls-5" points="129.36 167.47 124.26 167.47 98.83 167.47 98.83 162.45 129.36 162.45 129.36 167.47"/>
        <path class="cls-5" d="m114.6,196.59h-42.13l15.35-8.63c1.03,1.62,3.11,2.72,5.51,2.72s4.62-1.18,5.62-2.88l15.65,8.8Z"/>
        <path class="cls-5" d="m99.54,185.65c0,.76-.21,1.49-.59,2.14l-5.42-3.05,4.39-2.47c1,.89,1.62,2.07,1.62,3.37Z"/>
        <path class="cls-5" d="m93.53,184.75l5.42,3.05c-1,1.7-3.13,2.88-5.62,2.88s-4.48-1.1-5.51-2.72l5.71-3.21Z"/>
        <rect class="cls-7" x="87.53" y="162.45" width="11.31" height="5.03"/>
        <path class="cls-5" d="m93.33,180.63c1.82,0,3.46.63,4.59,1.65l-4.39,2.47-4.64-2.61c1.13-.93,2.7-1.51,4.44-1.51Z"/>
        <path class="cls-5" d="m93.53,184.75l-5.71,3.21c-.44-.69-.69-1.48-.69-2.31,0-1.37.68-2.61,1.77-3.51l4.64,2.61Z"/>
        <path class="cls-5" d="m62.8,167.47l26.1,14.67c-1.09.9-1.77,2.14-1.77,3.51,0,.83.25,1.62.69,2.31l-15.35,8.63H30.79l-15.65-8.8c.38-.65.59-1.38.59-2.14,0-1.3-.62-2.48-1.62-3.37l26.34-14.81h22.34Zm-8.53,18.18c0-2.77-2.25-5.02-5.02-5.02s-5.03,2.25-5.03,5.02,2.25,5.03,5.03,5.03,5.02-2.25,5.02-5.03Z"/>
        <polygon class="cls-5" points="87.53 167.47 62.8 167.47 57 167.47 57 162.45 87.53 162.45 87.53 167.47"/>
        <rect class="cls-7" x="45.7" y="162.45" width="11.31" height="5.03"/>
        <path class="cls-7" d="m49.25,180.63c2.77,0,5.02,2.25,5.02,5.02s-2.25,5.03-5.02,5.03-5.03-2.25-5.03-5.03,2.25-5.02,5.03-5.02Z"/>
        <polygon class="cls-5" points="45.7 167.47 40.45 167.47 15.17 167.47 15.17 162.45 45.7 162.45 45.7 167.47"/>
        <path class="cls-5" d="m30.79,196.59H.24v-6.52l3.76-2.11c1.03,1.62,3.12,2.72,5.51,2.72s4.62-1.18,5.62-2.88l15.65,8.8Z"/>
        <path class="cls-5" d="m15.73,185.65c0,.76-.21,1.49-.59,2.14l-5.42-3.05,4.39-2.47c1,.89,1.62,2.07,1.62,3.37Z"/>
        <rect class="cls-7" x="3.87" y="162.45" width="11.31" height="5.03"/>
        <path class="cls-5" d="m9.72,184.75l5.42,3.05c-1,1.7-3.13,2.88-5.62,2.88s-4.48-1.1-5.51-2.72l5.71-3.21Z"/>
        <path class="cls-5" d="m9.52,180.63c1.82,0,3.46.63,4.59,1.65l-4.39,2.47-4.64-2.61c1.13-.93,2.7-1.51,4.44-1.51Z"/>
        <path class="cls-5" d="m9.72,184.75l-5.71,3.21c-.44-.69-.69-1.48-.69-2.31,0-1.37.68-2.61,1.77-3.51l4.64,2.61Z"/>
        <path class="cls-5" d="m.24,179.42l4.84,2.72c-1.09.9-1.77,2.14-1.77,3.51,0,.83.25,1.62.69,2.31l-3.76,2.11v-10.65Z"/>
        <polygon class="cls-11" points="213.02 162.45 182.5 162.45 171.19 162.45 140.67 162.45 129.36 162.45 98.83 162.45 87.53 162.45 57 162.45 45.7 162.45 15.17 162.45 3.87 162.45 .24 162.45 .24 94.38 1.13 94.38 270.15 94.38 270.15 162.45 266.16 162.45 254.85 162.45 224.33 162.45 213.02 162.45"/>
        <path class="cls-5" d="m.24,167.47h40.21l-26.34,14.81c-1.14-1.02-2.77-1.65-4.59-1.65s-3.31.58-4.44,1.51l-4.84-2.72v-11.95Z"/>
      </g>
      <g>
        <polyline class="cls-1" points="270.15 196.59 239.7 196.59 198.21 196.59 156.08 196.59 114.6 196.59 72.46 196.59 30.79 196.59 .24 196.59"/>
        <line class="cls-1" x1=".24" y1="88.62" x2="270.15" y2="88.62"/>
        <line class="cls-1" x1=".24" y1="94.38" x2="270.15" y2="94.38"/>
        <line class="cls-1" x1="266.16" y1="162.45" x2="270.15" y2="162.45"/>
        <line class="cls-1" x1="224.33" y1="162.45" x2="254.85" y2="162.45"/>
        <line class="cls-1" x1="182.5" y1="162.45" x2="213.02" y2="162.45"/>
        <line class="cls-1" x1="140.67" y1="162.45" x2="171.19" y2="162.45"/>
        <line class="cls-1" x1="98.83" y1="162.45" x2="129.36" y2="162.45"/>
        <line class="cls-1" x1="57" y1="162.45" x2="87.53" y2="162.45"/>
        <line class="cls-1" x1="15.17" y1="162.45" x2="45.7" y2="162.45"/>
        <line class="cls-1" x1=".24" y1="162.45" x2="3.87" y2="162.45"/>
        <line class="cls-1" x1="266.16" y1="167.47" x2="270.15" y2="167.47"/>
        <polyline class="cls-1" points="224.33 167.47 230.03 167.47 254.85 167.47"/>
        <polyline class="cls-1" points="182.5 167.47 207.88 167.47 213.02 167.47"/>
        <polyline class="cls-1" points="140.67 167.47 146.41 167.47 171.19 167.47"/>
        <polyline class="cls-1" points="98.83 167.47 124.26 167.47 129.36 167.47"/>
        <polyline class="cls-1" points="57 167.47 62.8 167.47 87.53 167.47"/>
        <polyline class="cls-1" points="15.17 167.47 40.45 167.47 45.7 167.47"/>
        <line class="cls-1" x1=".24" y1="167.47" x2="3.87" y2="167.47"/>
        <polyline class="cls-1" points="72.46 196.59 87.81 187.96 93.53 184.75 97.92 182.28 124.26 167.47"/>
        <polyline class="cls-1" points="114.6 196.59 98.95 187.79 93.53 184.75 88.89 182.14 62.8 167.47"/>
        <path class="cls-1" d="m139.4,185.65c0,2.78-2.25,5.03-5.02,5.03s-5.03-2.25-5.03-5.03,2.25-5.02,5.03-5.02,5.02,2.25,5.02,5.02Z"/>
        <path class="cls-1" d="m224.07,185.65c0,2.78-2.25,5.03-5.02,5.03s-5.03-2.25-5.03-5.03,2.25-5.02,5.03-5.02,5.02,2.25,5.02,5.02Z"/>
        <path class="cls-1" d="m97.92,182.28c1,.89,1.62,2.07,1.62,3.37,0,.76-.21,1.49-.59,2.14-1,1.7-3.13,2.88-5.62,2.88s-4.48-1.1-5.51-2.72c-.44-.69-.69-1.48-.69-2.31,0-1.37.68-2.61,1.77-3.51,1.13-.93,2.7-1.51,4.44-1.51,1.82,0,3.46.63,4.59,1.65Z"/>
        <polyline class="cls-1" points=".24 190.07 4.01 187.96 9.72 184.75 14.11 182.28 40.45 167.47"/>
        <polyline class="cls-1" points="30.79 196.59 15.14 187.79 9.72 184.75 5.08 182.14 .24 179.42"/>
        <path class="cls-1" d="m14.11,182.28c1,.89,1.62,2.07,1.62,3.37,0,.76-.21,1.49-.59,2.14-1,1.7-3.13,2.88-5.62,2.88s-4.48-1.1-5.51-2.72c-.44-.69-.69-1.48-.69-2.31,0-1.37.68-2.61,1.77-3.51,1.13-.93,2.7-1.51,4.44-1.51,1.82,0,3.46.63,4.59,1.65Z"/>
        <polyline class="cls-1" points="156.08 196.59 171.43 187.96 177.15 184.75 181.54 182.28 207.88 167.47"/>
        <polyline class="cls-1" points="198.21 196.59 182.57 187.79 177.15 184.75 172.51 182.14 146.41 167.47"/>
        <path class="cls-1" d="m181.54,182.28c1,.89,1.62,2.07,1.62,3.37,0,.76-.21,1.49-.59,2.14-1,1.7-3.13,2.88-5.62,2.88s-4.48-1.1-5.51-2.72c-.44-.69-.69-1.48-.69-2.31,0-1.37.68-2.61,1.77-3.51,1.13-.93,2.7-1.51,4.44-1.51,1.82,0,3.46.63,4.59,1.65Z"/>
        <polyline class="cls-1" points="239.7 196.59 255.05 187.96 260.77 184.75 265.16 182.27 270.15 179.47"/>
        <polyline class="cls-1" points="270.15 190.03 266.18 187.79 260.77 184.75 256.13 182.14 230.03 167.47"/>
        <path class="cls-1" d="m265.16,182.27c1,.89,1.62,2.08,1.62,3.38,0,.76-.21,1.49-.59,2.14-1,1.7-3.13,2.88-5.62,2.88s-4.48-1.1-5.51-2.72c-.44-.69-.69-1.48-.69-2.31,0-1.37.68-2.61,1.77-3.51,1.13-.93,2.7-1.51,4.44-1.51,1.82,0,3.46.63,4.59,1.64Z"/>
        <path class="cls-1" d="m54.27,185.65c0,2.78-2.25,5.03-5.02,5.03s-5.03-2.25-5.03-5.03,2.25-5.02,5.03-5.02,5.02,2.25,5.02,5.02Z"/>
        <rect class="cls-1" x="3.87" y="162.45" width="11.31" height="5.03"/>
        <rect class="cls-1" x="45.7" y="162.45" width="11.31" height="5.03"/>
        <rect class="cls-1" x="87.53" y="162.45" width="11.31" height="5.03"/>
        <rect class="cls-1" x="129.36" y="162.45" width="11.31" height="5.03"/>
        <rect class="cls-1" x="171.19" y="162.45" width="11.31" height="5.03"/>
        <rect class="cls-1" x="213.02" y="162.45" width="11.31" height="5.03"/>
        <rect class="cls-1" x="254.85" y="162.45" width="11.31" height="5.03"/>
      </g>
    </g>
  </g>
  <g id="_レイヤー_2" data-name="レイヤー 2">
    <g class="cls-13">
      <g>
        <g>
          <path class="cls-8" d="m271.04,124.44v6.51c-1.91,3.22-8.77,5.61-8.77,5.61.05-1.51-1.16-4.45-2.86-7.66-.71-1.33-1.51-2.7-2.34-4.04.21-.11,3.94-1.9,8.2-1.17,4.38.75,5.77.75,5.77.75Z"/>
          <path class="cls-10" d="m271.04,108.39v16.04s-1.39,0-5.77-.75c-4.26-.73-7.99,1.06-8.2,1.17h0c-1.59-2.56-3.31-4.97-4.76-6.62,0,0,14.25-5.35,18.74-9.85Z"/>
          <path class="cls-10" d="m271.04,104.67v3.72c-4.49,4.5-18.74,9.85-18.74,9.85-.52-.59-1.01-1.1-1.45-1.46,0,0,18.61-8.26,20.19-12.11Z"/>
          <path class="cls-10" d="m271.04,99.02v5.65c-1.57,3.85-20.19,12.11-20.19,12.11-.37-.31-.7-.52-.98-.62-.33-.13-.66-.23-.98-.33-.52-.18-1.01-.33-1.48-.44,6.41-1.13,14.22-5.92,18.82-8.7s4.81-5.74,4.81-7.66Z"/>
          <path class="cls-12" d="m271.04,74.86v24.16c-10.79-3.84-47.34-7.23-62-5.67-5.79-2.36-10.16-4.09-11.05-4.41,12.76-5.34,39.91-14.29,73.05-14.08Z"/>
          <path class="cls-12" d="m271.04,59.97v14.9c-33.14-.21-60.29,8.73-73.05,14.08-3.13-1.14-23.37,9.98-32.92,12.26-3.37.8-5.88,1.78-7.81,3.18l-.1-.13c-3.06-3.24-6.05-6.16-8.9-8.79,13.1-6.94,74.68-34.43,122.78-35.49Z"/>
          <path class="cls-12" d="m271.04,47.89v12.07c-48.11,1.06-109.68,28.55-122.78,35.49-.33-.31-.66-.61-.99-.9.09-1.41-.33-4.06-.95-7.09,17.6-8.99,52.88-22.73,64.02-26.44,19.76-6.56,34.4-8.2,41.08-10.46,4.06-2.24,8.83-5.67,9.46-5.67,2.35,1.07,10.16,3,10.16,3Z"/>
          <path class="cls-6" d="m271.04,99.02c0,1.93-.22,4.88-4.81,7.66s-12.41,7.57-18.82,8.7c-1.88-.49-3.37-.57-4.75-.25,3.33-2.02,5.42-3.56,5.22-4.14-.22-.63-3.37-2.3-8.01-4.46-.8-.37-1.65-.76-2.54-1.16-.8-.36-1.63-.74-2.49-1.11-8.01-3.56-18.15-7.78-25.8-10.89,14.65-1.57,51.21,1.83,62,5.67Z"/>
          <path class="cls-8" d="m259.41,128.9c1.71,3.21,2.91,6.15,2.86,7.66-2.03.55-9.95,1.36-17.07,1.93,0,0,11.63-8.96,14.21-9.59Z"/>
          <path class="cls-8" d="m257.07,124.85c.83,1.34,1.62,2.71,2.34,4.04-2.58.63-14.21,9.59-14.21,9.59-5.86.47-11.2.79-12.28.69-.19-.02-.49-.03-.85-.02v-13.44c-3.42-1.08-6.33,2.72-8.83,7.04-1.42,2.45-2.71,5.08-3.89,7.07-4.81.21-9.77.29-12.93-.14-7.27-1-20.38-1.72-25.23-3.85-1.07-.47-2.06-.82-2.99-1.08,3.06-.34,13.45-2.33,18.77-1.47h0c6.22,3.17,7.43,1.15,9.3.56,1.57-.49,21.34-10.08,33.07-16.75,0,0,4.33,7.76,5.87,7.19,0,0,8.08,1.98,11.87.57h0Z"/>
          <path class="cls-8" d="m257.06,124.85c-3.78,1.42-11.87-.57-11.87-.57,1.54-.57,2.71-8.8,3.69-8.46.32.1.64.21.98.33.28.1.61.31.98.62.44.36.93.86,1.45,1.46,1.46,1.64,3.17,4.05,4.76,6.62Z"/>
          <path class="cls-12" d="m248.16,39.98c2.72,3.69,3.26,10.58,3.26,10.58-6.68,2.26-21.32,3.89-41.08,10.46-11.14,3.7-46.42,17.44-64.02,26.44-.64-3.12-1.52-6.64-2.27-9.58,14.96-6.26,44.4-18.62,52.02-21.15,16.75-5.56,39.8-11.4,42.25-12.15,2.46-.75,5.95-2.69,7.95-5.67h0c.74.09,1.4.41,1.89,1.07Z"/>
          <path class="cls-8" d="m248.89,115.83c-.98-.34-2.15,7.89-3.69,8.46s-5.87-7.19-5.87-7.19c1.21-.69,2.33-1.34,3.33-1.96,1.38-.32,2.87-.23,4.75.25.47.12.96.27,1.48.44Z"/>
          <path class="cls-10" d="m242.66,115.13c-1,.62-2.13,1.27-3.33,1.96-11.72,6.67-31.49,16.25-33.07,16.75-1.88.59-3.08,2.61-9.3-.57-1.34-.68-2.93-1.61-4.81-2.86-.31-.21-.61-.41-.9-.59,0,0,26.18-7.75,48.62-23.3,4.64,2.16,7.8,3.84,8.01,4.46.2.59-1.88,2.13-5.22,4.14Z"/>
          <path class="cls-12" d="m246.27,38.9h0c-2,2.99-5.48,4.93-7.95,5.68-2.45.75-25.51,6.59-42.25,12.15-7.62,2.53-37.06,14.9-52.02,21.15,14.28-10.38,82.31-36.4,90.57-37.97.85.21,3.99.43,5.99.07,1.42-.25,3.79-1.34,5.66-1.08Z"/>
          <path class="cls-10" d="m237.33,105.36c.89.4,1.73.8,2.54,1.16-22.43,15.55-48.62,23.3-48.62,23.3-1.12-.75-2.1-1.4-2.96-1.95,0,0,35.92-13.07,49.04-22.51Z"/>
          <path class="cls-10" d="m234.84,104.25c.85.38,1.69.75,2.49,1.11-13.11,9.44-49.04,22.51-49.04,22.51-.96-.64-1.77-1.16-2.45-1.6,0,0,32.11-13.27,48.99-22.02Z"/>
          <path class="cls-12" d="m230.24,31.29s3.53,8.41,4.38,8.62c-8.26,1.57-76.29,27.59-90.57,37.97-.95-3.67-1.74-6.44-1.74-6.44,2.59-1.57,5.3-3.64,8.04-6.34,8.84-5.43,29.85-17.74,49.69-25.91,1.01-.42,2.02-.82,3.02-1.22,3.04-1.19,6.04-2.27,8.93-3.2,6.81-2.18,13.1-3.51,18.25-3.48Z"/>
          <path class="cls-8" d="m232.06,125.72v13.44c-.52,0-1.21.03-2.01.08h0s-6.82-6.47-6.82-6.47c2.5-4.32,5.42-8.12,8.83-7.04Z"/>
          <path class="cls-8" d="m230.05,139.22h0c-2.64.14-6.62.42-10.72.6,1.18-1.98,2.47-4.61,3.89-7.07l6.82,6.46Z"/>
          <path class="cls-6" d="m209.04,93.35c7.65,3.12,17.79,7.34,25.8,10.89-16.88,8.75-48.99,22.02-48.99,22.02-3.89-2.49-3.85-2.18-6.24-2.7-.44-.09-1.05-.13-1.77-.09-6.75-6.32-9.21-8.77-12.85-10.17-3.63-1.39-5.34,1.48-7.16,4.86s-5.45,11.19-5.61,13.8c-.53-.59-1.06-1.41-1.51-2.45-.24-.54-.45-1.15-.63-1.82-.13-.45-.23-.93-.31-1.44-.34-2.09-.33-4.67.32-7.72.07-.36.16-.73.25-1.11.39-1.52.77-2.89,1.17-4.13,1.37-4.22,2.99-6.98,5.74-8.93,1.93-1.4,4.44-2.38,7.81-3.18,9.55-2.28,29.79-13.4,32.92-12.26.9.33,5.26,2.05,11.05,4.41Z"/>
          <path class="cls-8" d="m207.97,30.94c1.6.49,4.03,3.83,4.03,3.83-2.9.93-5.9,2.01-8.93,3.2.22-2.75,3.09-5.9,4.91-7.03Z"/>
          <path class="cls-8" d="m197.67,32.41c4.63-.44,8.69-1.95,10.3-1.47-1.82,1.13-4.69,4.27-4.91,7.03-1,.4-2.01.8-3.02,1.22,0-1.2-1.01-3.92-2.37-6.78Z"/>
          <path class="cls-8" d="m197.67,32.41c1.36,2.86,2.36,5.59,2.37,6.78-19.84,8.17-40.85,20.48-49.69,25.91,0,0-.55-1.62-1.37-4.08-.23-.65-.46-1.36-.72-2.13-.31-.94-.64-1.94-.99-2.98-2.28-6.86-5.02-15.37-5.26-17.22,12.08-5.56,41.16-16.35,50.03-15.02,1.56,1.17,3.89,5.07,5.63,8.73Z"/>
          <path class="cls-8" d="m196.96,133.27h0c-5.32-.85-15.71,1.14-18.77,1.48-3.29-.93-5.79-.69-8.13-.4-2.99.37-16.1-1.22-16.1-1.22,1.71.14-.71-4.23,5.42-5.84,4.39-1.17,13.87-3.63,18.47-3.8.72-.03,1.32,0,1.77.09,2.39.52,2.35.21,6.24,2.7.68.44,1.48.96,2.45,1.6.85.55,1.83,1.21,2.96,1.95.29.18.59.39.9.59,1.88,1.25,3.47,2.18,4.81,2.86Z"/>
          <path class="cls-10" d="m192.04,23.67c-8.88-1.33-37.95,9.46-50.03,15.02-.09-.7-.33-1.63-.75-2.65,13.69-5.69,40.69-17.69,46.86-16.77,1.85,1.04,3.39,2.46,3.93,4.4Z"/>
          <path class="cls-10" d="m188.11,19.28c-6.17-.92-33.17,11.08-46.86,16.77-.22-.52-.49-1.06-.81-1.59h0c.56-1.08,23.41-10.85,38.13-17.89,0,0,5.52.45,9.55,2.71Z"/>
          <path class="cls-10" d="m174.83,8.77c3.63,4.16,3.73,7.8,3.73,7.8-14.71,7.04-37.56,16.81-38.13,17.89-1.88-3.17-5.62-6.21-12.12-4.47,0,0,5.59-2.81,12.93-6.39,8.88-4.33,20.28-9.78,27.38-12.71,3.02-1.26,5.27-2.05,6.2-2.11Z"/>
          <path class="cls-6" d="m164.99,113.31c3.63,1.4,6.1,3.84,12.85,10.17-4.61.18-14.08,2.63-18.47,3.8-6.13,1.62-3.71,5.99-5.42,5.84-.44-.03-1.08-.42-1.72-1.16.16-2.61,3.79-10.43,5.61-13.8s3.53-6.25,7.16-4.86Z"/>
          <path class="cls-8" d="m141.25,23.59c-.51-.07-1.12-.57-1.79-1.37-1.97-2.38-4.44-7.46-6.4-11.91l6.4-3.48-2.91-4.86c9.74.07,22.01,2.03,32.08,8.9h0c-7.1,2.94-18.51,8.39-27.38,12.72Z"/>
          <path class="cls-10" d="m157.16,104.25l.1.13c-2.75,1.95-4.36,4.71-5.74,8.93l-13.22-26.38c2.75,2.18,5.76,4.71,8.97,7.61.33.29.65.59.99.9,2.86,2.63,5.84,5.55,8.9,8.79Z"/>
          <path class="cls-10" d="m138.3,86.94l13.22,26.38c-.4,1.24-.79,2.61-1.17,4.13-.09.38-.18.75-.25,1.11h0l-15.69-34.62c1.22.91,2.53,1.92,3.9,3.01Z"/>
          <path class="cls-8" d="m144.79,129.35c.77-.09,1.53-.24,2.27-.45h0c1.05-.28,2.06-.69,3.03-1.19.18.67.39,1.27.63,1.82,0,0-1.9,4.17-5.46,5.49-3.57,1.32-18.27,4.15-18.27,4.15,2.57-1.88,11.76-8.47,16.21-9.67.54-.03,1.07-.07,1.59-.15Z"/>
          <path class="cls-10" d="m150.09,118.55h0c-.65,3.05-.66,5.63-.32,7.72l-18.71-44.77c1.03.74,2.14,1.54,3.32,2.44l15.69,34.62Z"/>
          <path class="cls-10" d="m149.78,126.27c.08.51.18.99.31,1.44-.97.5-1.98.9-3.03,1.18l-18.71-49.3.02-.02c.82.57,1.72,1.21,2.7,1.91h0s18.71,44.78,18.71,44.78Z"/>
          <path class="cls-10" d="m148.98,61.02c.82,2.45,1.37,4.08,1.37,4.08-9.94,4.6-15.71,6.95-30.04,5.56.07-1.62.3-3.32.65-5.05,10.84,1.52,20.27.18,28-4.59h0Z"/>
          <path class="cls-10" d="m148.98,61.02h0c-7.73,4.77-17.16,6.11-28,4.59.17-.85.38-1.72.59-2.58,8.52,1.36,17.36.47,26.7-4.14.26.76.49,1.47.72,2.13Z"/>
          <path class="cls-10" d="m147.27,55.91c.34,1.04.68,2.04.99,2.98-9.34,4.61-18.17,5.49-26.7,4.14.27-1.01.56-2.03.88-3.03,8.1,1.69,16.34.95,24.83-4.09Z"/>
          <path class="cls-12" d="m146.32,87.46c.62,3.03,1.04,5.69.95,7.09-3.21-2.91-6.22-5.43-8.97-7.61-1.37-1.09-2.68-2.09-3.9-3.01-1.19-.9-2.29-1.7-3.32-2.44h0c-.98-.71-1.88-1.35-2.7-1.92-2.62-1.83-4.36-3.01-4.92-3.61,1.79.55,9.55,1.16,18.87-4.53,0,0,.79,2.77,1.74,6.44.75,2.94,1.62,6.46,2.27,9.58Z"/>
          <path class="cls-6" d="m111.48,107.43c-.62-3,.08-16.35.08-16.35l1-.67c-3.84-5.74-7.48-11.2-9.5-14.29-2.13-3.27-3.34-7.85-3.27-12.49,0-1.33.13-2.67.37-3.99.59-3.29,1.89-6.43,4.04-8.96,1.47-1.73,3.08-3.71,4.82-5.74l.09-.11,4.04-4.47c.64-.63,1.33-1.34,2.07-2.09,3.95-3.8,8.35-7.03,13.1-8.29,6.5-1.74,10.23,1.3,12.12,4.47h0c.33.54.59,1.08.81,1.6.42,1.01.66,1.94.75,2.65.24,1.85,2.98,10.36,5.26,17.22-8.49,5.03-16.73,5.78-24.83,4.09-.32,1-.61,2.02-.88,3.03-.22.86-.43,1.72-.59,2.58-.35,1.73-.59,3.43-.65,5.05,0,0,1.28,3.32,3.13,5.31.56.6,2.3,1.78,4.92,3.61l-.02.02,18.71,49.3h0c-.74.22-1.5.37-2.27.46-.41-.08-.95-.02-1.59.15-4.45,1.21-13.64,7.79-16.21,9.67-.44.33-.69.51-.69.51-.65-.08-1.65-.6-2.89-1.47-8.47-6.02-28.63-28.47-33.6-34.33-5.7-6.72-5.99-11.8-5.99-15.02l-.06-.11c.46-.19.78-.64.78-1.16v-1.49c4.45,8.11,18.22,19.18,24.62,21.94l2.32-.6Z"/>
          <path class="cls-8" d="m150.35,65.1c-2.74,2.7-5.45,4.76-8.04,6.34-9.32,5.69-17.07,5.08-18.87,4.53-1.85-1.99-3.13-5.31-3.13-5.31,14.33,1.39,20.1-.96,30.04-5.56Z"/>
          <path class="cls-8" d="m139.46,22.22c.67.8,1.28,1.31,1.79,1.37-7.34,3.58-12.93,6.39-12.93,6.39-4.76,1.26-9.15,4.49-13.1,8.29,2.4-2.46,5.08-5.33,6.48-6.84.94-1.02,1.1-4.86,1.46-7.75,0,0,10.34-2.97,16.3-1.46Z"/>
          <path class="cls-8" d="m136.56,1.97l2.91,4.86-6.4,3.48c-1.92-4.35-3.35-8.09-3.35-8.09,2.06-.18,4.37-.28,6.84-.25Z"/>
          <path class="cls-8" d="m139.46,22.22c-5.96-1.52-16.3,1.46-16.3,1.46.08-.61.16-1.18.26-1.67.14-.65.31-1.17.53-1.47,1.17-1.61,3.18-9.27,3.18-13.23,0-2.52-1.93-3.63-4.69-4,1.76-.41,4.26-.82,7.28-1.07,0,0,1.43,3.74,3.35,8.09,1.96,4.45,4.43,9.53,6.4,11.91Z"/>
          <path class="cls-7" d="m127.13,7.3c0,3.96-2.01,11.62-3.18,13.23-.22.3-.39.82-.53,1.47l-1.31-.28c.97-4.43,1.32-8.75,1.1-9.96-.44-2.24-5.62-4.93-8.31-4.49-4.56,3.21-10.73,12.94-13.61,15.07-1.61,1.19-5.73,3.63-9.4,5.61-1.45.79-2.83,1.49-3.95,2.03-1.16.54-2.04.9-2.48.96-1.93.27-4.92,7.22-7.8,9.57-2.88,2.35-10.58,14.11-18.28,14.22.09-1.04.47-2.45,1.01-4.06.58-1.72,1.36-3.68,2.21-5.69,2.81-6.56,6.45-13.54,6.72-14.04.43-.8,7.48-6.09,10.9-7.27,3.42-1.17,10.79-4.65,16.78-9.56s15.02-10.58,20.21-10.9c1.87-.12,3.68-.13,5.23.08,2.75.38,4.69,1.48,4.69,4Z"/>
          <path class="cls-7" d="m122.1,21.71l1.31.28c-.1.49-.18,1.06-.26,1.67-.36,2.9-.52,6.73-1.46,7.75-1.4,1.52-4.08,4.38-6.48,6.84-2.18,2.09-4.21,4.35-6.1,6.56l-.09.11s.17-2.29,0-2.81c-.16-.54,2.53-4.92,2.53-4.92,2.23-.54,4.21-1.52,5.65-3.11.71-.79,2.81-4.83,4.17-9.51.27-.94.51-1.91.72-2.87Z"/>
          <path class="cls-9" d="m101.59,36.05s-4.25,4.33-8.06,8.36l-.28-.26-1.36-16.19c3.67-1.98,7.79-4.42,9.4-5.61,2.88-2.14,9.05-11.87,13.61-15.07,2.69-.44,7.87,2.24,8.31,4.49.23,1.21-.13,5.53-1.1,9.96-.21.96-.45,1.93-.72,2.87-1.36,4.68-3.46,8.73-4.17,9.51-1.44,1.59-3.42,2.57-5.65,3.11-1.39.33-2.88.49-4.4.53-.55,0-1.07-.02-1.57-.08-1.66-.22-2.97-.83-4.01-1.6Z"/>
          <path class="cls-12" d="m123.41,138.21c-.8,1.11-5.29,1.47-5.29,1.47-10.78-11.26-37.35-45.32-38.34-47.39l-.13.28c.24-2.34.39-3.72.39-3.72h3.22c.18,0,.35-.03.5-.11l.06.11c0,3.22.28,8.3,5.99,15.02,4.97,5.86,25.13,28.31,33.6,34.33Z"/>
          <path class="cls-12" d="m118.12,139.68c-.59.18-2.18.44-4.89-.34-.96-.28-4.2-2.23-4.2-2.23-8.96-12.69-29.91-38.9-29.91-38.9h-.08c.23-2.21.44-4.13.6-5.64l.13-.28c1,2.07,27.57,36.12,38.34,47.39Z"/>
          <path class="cls-6" d="m112.56,90.4l-1,.67s-.7,13.36-.08,16.35l-2.32.6c-6.4-2.76-20.16-13.82-24.62-21.94v-3.32c0-.7-.58-1.28-1.28-1.28,2.49-5.3,11.9-16.9,16.53-17.87h0c-.08,4.64,1.14,9.23,3.27,12.49,2.02,3.09,5.66,8.56,9.5,14.29Z"/>
          <path class="cls-6" d="m109.03,42.12c.16.53,0,2.81,0,2.81-1.74,2.03-3.35,4-4.82,5.74-2.14,2.53-3.44,5.67-4.04,8.96-1.06.23-2.1.59-3.1,1.04h0c-4.47.62-15.12,7.21-17.58,15.64l-4.3-12.1c-1.26-2.78-4.53-9.56-5.74-10.06h0c5.89-4.79,10.9-10.06,14.23-13.82l.72,22.99,3.85-4.66,17.38-21c.49.07,1.01.09,1.57.08,1.52-.03,3.01-.19,4.4-.53,0,0-2.69,4.38-2.53,4.92Z"/>
          <path class="cls-12" d="m92.88,127.75c-6.05-9.19-14.53-22.39-14.53-22.39h-.05c.27-2.58.52-5,.75-7.15h.08s20.95,26.22,29.91,38.9c0,0-9.1.28-10.24-.71-.39-.33-2.84-3.98-5.91-8.65Z"/>
          <path class="cls-12" d="m105.6,37.65l-17.38,21-.28-7.98c.72-1.03,3.06-3.58,5.59-6.26,3.8-4.03,8.06-8.36,8.06-8.36,1.04.77,2.35,1.38,4.01,1.6Z"/>
          <path class="cls-12" d="m100.17,59.63c-.23,1.31-.36,2.65-.37,3.99h0c-4.63.97-14.04,12.57-16.53,17.87h-3.22c1.67-5.28,8.09-16.85,17.02-20.82,1-.45,2.03-.8,3.1-1.04Z"/>
          <path class="cls-12" d="m97.06,60.66h0c-8.93,3.98-15.35,15.55-17.02,20.83h-1.69c-.05-6.52-8.21-18.98-12.4-24.64,1.19-.87,2.34-1.77,3.48-2.7h0c1.21.5,4.48,7.29,5.74,10.07l4.3,12.1c2.46-8.43,13.11-15.02,17.58-15.65Z"/>
          <path class="cls-12" d="m93.26,44.15l.28.26c-2.54,2.68-4.87,5.23-5.59,6.26v-20.69c1.12-.54,2.5-1.24,3.95-2.03l1.36,16.19Z"/>
          <path class="cls-8" d="m92.88,127.75l-16.3-4.92c.54-5.8,1.17-11.99,1.72-17.48h.05s8.47,13.21,14.53,22.4Z"/>
          <path class="cls-6" d="m88.22,58.65l-3.85,4.66-.72-22.99h0c2.71-3.08,4.29-5.16,4.29-5.16v15.5l.28,7.98Z"/>
          <path class="cls-12" d="m87.94,29.98v5.19s-1.57,2.08-4.29,5.15h0c-3.32,3.78-8.34,9.04-14.23,13.82-1.13.93-2.29,1.83-3.48,2.7-1.1.8-2.21,1.57-3.35,2.31-2.47,1.61-5.02,3.03-7.61,4.16,1.06-2.25,2.16-4.42,3.25-6.47.39-.72.76-1.42,1.14-2.11,7.7-.11,15.4-11.87,18.28-14.22,2.89-2.35,5.88-9.3,7.8-9.57.44-.06,1.32-.42,2.48-.96Z"/>
          <path class="cls-12" d="m84.54,86.09v1.49c0,.53-.32.97-.78,1.16-.15.08-.33.11-.5.11h-6.42c-.44,0-.83-.22-1.06-.55-.14-.2-.23-.45-.23-.72v-4.81c0-.45.23-.85.59-1.07h0c.2-.13.44-.21.7-.21h6.42c.7,0,1.28.58,1.28,1.28v3.32Z"/>
          <path class="cls-12" d="m61.07,124.62c-2.32,2.99-4.55,5.28-6.46,6.29-2.28-.92-6.56-3.04-6.56-3.04,9.98-8.28,29.47-34.44,30.57-39.01h1.42s-.15,1.38-.39,3.72c-.41.83-1.69,3.48-3.53,7.03,0,0,0,.02,0,.03-3.7,7.17-9.63,18-15.05,24.99Z"/>
          <path class="cls-12" d="m79.65,92.57c-.17,1.52-.37,3.43-.6,5.64-.23,2.15-.48,4.57-.75,7.14-.55,5.48-1.18,11.67-1.72,17.48-.27,2.81-.52,5.52-.74,8.01,0,0-2.7.14-9.12,0,1.29-.63,2.63-3.54,3.88-7.36,2.96-9.07,5.42-23.23,5.52-23.85,0,0,0-.02,0-.03,1.83-3.55,3.12-6.2,3.53-7.03Z"/>
          <path class="cls-12" d="m76.84,88.86h1.78c-1.11,4.57-20.59,30.73-30.57,39.01l-3.26,3.04s-1.02-.49-4.44-2.01c.23-.11.61-.43,1.1-.9.03-.03.05-.04.05-.04,2.44-2.34,7.3-8.15,7.7-8.62.02-.03.03-.03.03-.03,5.55-4.26,10.91-11.21,13.36-13.95,3.99-4.45,13.2-17.06,13.2-17.06.23.33.61.55,1.06.55Z"/>
          <path class="cls-12" d="m78.35,81.49h-1.52c-.26,0-.49.08-.7.2-.28-1.44-7.5-15.92-13.54-22.53,1.14-.74,2.25-1.52,3.35-2.31,4.19,5.66,12.35,18.12,12.4,24.64Z"/>
          <path class="cls-6" d="m49.23,119.31s0,0-.03.03c-2.62,2-5.28,3.41-7.7,3.49-.8.03-1.56-.08-2.29-.36-4.04-1.56-9.96-10.28-14.69-18.22,0,0,14.19-3.05,21.96-7.86.07-1.3.16-2.65.28-4.02.14-1.62.32-3.26.54-4.91.03-.22.06-.44.09-.65.2-1.36.44-2.71.74-4.06,1.47-6.83,4.02-13.44,6.85-19.43,2.59-1.13,5.14-2.55,7.61-4.16,6.04,6.62,13.26,21.09,13.54,22.53h0c-.35.23-.59.63-.59,1.08v4.81c0,.27.08.52.23.72,0,0-9.2,12.61-13.2,17.06-2.45,2.74-7.8,9.69-13.36,13.95Z"/>
          <path class="cls-8" d="m76.12,99.63c-.1.62-2.56,14.78-5.52,23.85l-.09-.03-9.44,1.16c5.42-6.99,11.35-17.82,15.05-24.99Z"/>
          <path class="cls-10" d="m69.32,30.94c-.28.5-3.92,7.49-6.72,14.04-17.94,9.64-24.53,15.88-34.84,29.28-1.62-.55-3.33-1.15-5.15-1.79,6.41-20.1,30.35-35.71,46.72-41.53Z"/>
          <path class="cls-10" d="m62.6,44.99c-.85,2-1.63,3.97-2.21,5.69-13.88,6.49-23.18,19.03-27.69,25.29-1.53-.53-3.17-1.09-4.94-1.69,10.32-13.41,16.9-19.64,34.84-29.28Z"/>
          <path class="cls-10" d="m60.39,50.67c-.54,1.62-.92,3.02-1.01,4.06-.38.69-.75,1.39-1.14,2.11-6.34.83-17.6,13.28-21.86,20.38-1.14-.4-2.37-.82-3.68-1.26,4.51-6.26,13.82-18.8,27.69-25.29Z"/>
          <path class="cls-6" d="m58.24,56.84c-1.09,2.05-2.19,4.22-3.25,6.47-2.83,5.99-5.38,12.59-6.85,19.43-.43-.48-1.01-.94-1.77-1.4-2.03-1.24-5.31-2.49-10-4.12,4.26-7.1,15.52-19.55,21.86-20.38Z"/>
          <path class="cls-10" d="m48.14,82.74c-.29,1.35-.54,2.7-.74,4.06-.03.22-.06.44-.09.65-4.97,3.81-26.23,9.68-26.75,9.82h0c-1.94-3.54-3.27-6.16-3.53-6.67.16.25.44.42.89.47,1.09.13,4.04-.5,7.68-1.53,7.83-2.2,18.77-6.2,20.7-8.06l.09-.14c.75.46,1.34.92,1.77,1.4Z"/>
          <path class="cls-10" d="m47.31,87.46c-.23,1.65-.4,3.29-.54,4.91-6.41,3.32-24.16,8.58-24.16,8.58-.75-1.29-1.43-2.53-2.05-3.67.52-.14,21.79-6.01,26.75-9.82Z"/>
          <path class="cls-10" d="m46.77,92.36c-.13,1.37-.22,2.72-.28,4.02-7.76,4.81-21.96,7.86-21.96,7.86-.67-1.12-1.31-2.23-1.92-3.3,0,0,17.74-5.27,24.16-8.58Z"/>
          <path class="cls-8" d="m46.37,81.34l-.09.14c-1.93,1.86-12.87,5.85-20.7,8.06l-.19-.69c-1.15-.39-1.86-5.02-2.28-9.26-.36-3.71-.5-7.12-.5-7.12,1.82.64,3.53,1.24,5.15,1.79,1.77.6,3.41,1.16,4.94,1.69,1.31.44,2.54.86,3.68,1.26,4.69,1.63,7.96,2.88,10,4.12Z"/>
          <path class="cls-12" d="m49.2,119.34c-.4.48-5.27,6.28-7.7,8.62,0,0-.02.02-.05.04-.24.18-1.32.97-2.87,1.52,0,0-.5-.68-2.93-1.66,1.42-.56,5.85-5.04,5.85-5.04,2.42-.08,5.08-1.49,7.7-3.49Z"/>
          <path class="cls-8" d="m25.39,88.86l.19.69c-3.63,1.03-6.59,1.67-7.68,1.53-.44-.05-.73-.22-.89-.47-.03-.06-.04-.09-.04-.09-.9-1.82,3.69-7.49,6.14-10.92.42,4.24,1.13,8.88,2.28,9.26Z"/>
        </g>
        <g>
          <line class="cls-3" x1="109.52" y1="18.49" x2="113.15" y2="20.53"/>
          <line class="cls-3" x1="117.21" y1="22.77" x2="119.03" y2="24.59"/>
          <path class="cls-3" d="m112.57,27.4l-.95,2.1c-.16.35,0,.76.37.9l1.28.49c.39.15.83-.07.93-.47l.7-2.63"/>
          <path class="cls-3" d="m109.03,32.73c.28.44.69.78,1.31.94"/>
          <line class="cls-3" x1="91.89" y1="27.95" x2="93.26" y2="44.15"/>
          <polyline class="cls-3" points="87.94 29.98 87.94 35.17 87.94 50.67"/>
          <path class="cls-3" d="m88.22,58.65l-.28-7.98c.72-1.03,3.06-3.58,5.59-6.26,3.8-4.03,8.06-8.36,8.06-8.36"/>
          <polyline class="cls-3" points="105.6 37.65 88.22 58.65 84.37 63.32"/>
          <path class="cls-3" d="m140.44,34.46c.33.54.59,1.07.81,1.59.42,1.01.66,1.94.75,2.65.24,1.85,2.98,10.36,5.26,17.22.34,1.04.68,2.04.99,2.98.26.76.49,1.47.72,2.13.82,2.45,1.37,4.08,1.37,4.08-9.94,4.6-15.71,6.95-30.04,5.56.07-1.62.3-3.32.65-5.05.17-.85.38-1.72.59-2.58.27-1.01.56-2.03.88-3.03,2.61-8.29,6.71-16.09,6.85-17.88"/>
          <path class="cls-3" d="m109.12,44.83c1.89-2.2,3.93-4.47,6.1-6.56,3.95-3.8,8.35-7.03,13.1-8.29,6.5-1.74,10.23,1.3,12.12,4.47"/>
          <path class="cls-3" d="m124.16,107.75c-2.71-4.08-7.28-10.88-11.6-17.35-3.84-5.74-7.48-11.2-9.5-14.29-2.13-3.27-3.34-7.85-3.27-12.49,0-1.33.13-2.67.37-3.99.59-3.29,1.89-6.43,4.04-8.96,1.47-1.73,3.08-3.71,4.82-5.74"/>
          <path class="cls-3" d="m122.44,60c8.1,1.69,16.34.95,24.83-4.09"/>
          <path class="cls-3" d="m120.97,65.61c10.84,1.52,20.27.18,28-4.59"/>
          <path class="cls-3" d="m121.56,63.03c8.52,1.36,17.36.47,26.7-4.14"/>
          <path class="cls-3" d="m111.56,37.21s-2.69,4.38-2.53,4.92c.16.53,0,2.81,0,2.81l.09-.11,4.04-4.47c.64-.63,1.33-1.34,2.07-2.09,2.4-2.46,5.08-5.33,6.48-6.84.94-1.02,1.1-4.86,1.46-7.75.08-.61.16-1.18.26-1.67.14-.65.31-1.17.53-1.47,1.17-1.61,3.18-9.27,3.18-13.23,0-2.52-1.93-3.63-4.69-4-1.55-.22-3.36-.2-5.23-.08-5.18.32-14.22,5.99-20.21,10.9s-13.36,8.39-16.78,9.56c-3.42,1.18-10.48,6.47-10.9,7.27-.28.5-3.92,7.49-6.72,14.04-.85,2-1.63,3.97-2.21,5.69-.54,1.62-.92,3.02-1.01,4.06,7.7-.11,15.4-11.87,18.28-14.22,2.89-2.35,5.88-9.3,7.8-9.57.44-.06,1.32-.42,2.48-.96,1.12-.54,2.5-1.24,3.95-2.03,3.67-1.98,7.79-4.42,9.4-5.61,2.88-2.14,9.05-11.87,13.61-15.07,2.69-.44,7.87,2.24,8.31,4.49.23,1.21-.13,5.53-1.1,9.96-.21.96-.45,1.93-.72,2.87-1.36,4.68-3.46,8.73-4.17,9.51-1.44,1.59-3.42,2.57-5.65,3.11-1.39.33-2.88.49-4.4.53-.55,0-1.07-.02-1.57-.08-1.66-.22-2.97-.83-4.01-1.6-2.7-2.01-3.51-5.11-3.51-5.11"/>
          <path class="cls-3" d="m59.38,54.73c-.38.69-.75,1.39-1.14,2.11-1.09,2.05-2.19,4.22-3.25,6.47-2.83,5.99-5.38,12.59-6.85,19.43-.29,1.35-.54,2.7-.74,4.06-.03.22-.06.44-.09.65-.23,1.65-.4,3.29-.54,4.91-.13,1.37-.22,2.72-.28,4.02-.43,7.89-.03,14.13-.03,14.36"/>
          <path class="cls-3" d="m147.06,128.9c-.74.21-1.5.36-2.27.45-.52.08-1.06.13-1.59.15-2.44.13-5.01-.21-7.64-.94-8.26-2.28-20.57-9.69-22.33-16.54"/>
          <path class="cls-3" d="m150.09,127.71c-.97.5-1.98.9-3.03,1.18"/>
          <path class="cls-3" d="m131.07,81.49c1.03.74,2.14,1.54,3.32,2.44,1.22.91,2.53,1.92,3.9,3.01,2.75,2.18,5.76,4.71,8.97,7.61.33.29.65.59.99.9,2.86,2.63,5.84,5.55,8.9,8.79"/>
          <path class="cls-3" d="m120.31,70.66s1.28,3.32,3.13,5.31c.56.6,2.3,1.78,4.92,3.61.82.57,1.72,1.21,2.7,1.91"/>
          <polyline class="cls-3" points="128.35 79.59 147.06 128.89 147.06 128.9"/>
          <path class="cls-3" d="m111.56,91.07s-.7,13.36-.08,16.35c.03.13.05.23.08.33"/>
          <path class="cls-3" d="m110.34,108.47c-.36-.11-.75-.25-1.18-.44-6.4-2.76-20.16-13.82-24.62-21.94"/>
          <path class="cls-3" d="m153.95,133.13c-.44-.03-1.08-.42-1.72-1.16-.53-.59-1.06-1.41-1.51-2.45-.24-.54-.45-1.15-.63-1.82-.13-.45-.23-.93-.31-1.44-.34-2.09-.33-4.67.32-7.72.07-.36.16-.73.25-1.11.39-1.52.77-2.89,1.17-4.13,1.37-4.22,2.99-6.98,5.74-8.93,1.93-1.4,4.44-2.38,7.81-3.18,9.55-2.28,29.79-13.4,32.92-12.26.9.33,5.26,2.05,11.05,4.41,7.65,3.12,17.79,7.34,25.8,10.89.85.38,1.69.75,2.49,1.11.89.4,1.73.8,2.54,1.16,4.64,2.16,7.8,3.84,8.01,4.46.2.59-1.88,2.13-5.22,4.14-1,.62-2.13,1.27-3.33,1.96-11.72,6.67-31.49,16.25-33.07,16.75-1.88.59-3.08,2.61-9.3-.57-1.34-.68-2.93-1.61-4.81-2.86-.31-.21-.61-.41-.9-.59-1.12-.75-2.1-1.4-2.96-1.95-.96-.64-1.77-1.16-2.45-1.6-3.89-2.49-3.85-2.18-6.24-2.7-.44-.09-1.05-.13-1.77-.09-4.61.18-14.08,2.63-18.47,3.8-6.13,1.62-3.71,5.99-5.42,5.84Z"/>
          <path class="cls-3" d="m126.99,139.17s14.7-2.83,18.27-4.15c3.56-1.32,5.46-5.49,5.46-5.49"/>
          <path class="cls-3" d="m257.06,124.85c-1.59-2.56-3.31-4.97-4.76-6.62-.52-.59-1.01-1.1-1.45-1.46-.37-.31-.7-.52-.98-.62-.33-.13-.66-.23-.98-.33-.52-.18-1.01-.33-1.48-.44-1.88-.49-3.37-.57-4.75-.25t-.02,0"/>
          <path class="cls-3" d="m153.95,133.13s13.11,1.59,16.1,1.22c2.34-.28,4.84-.53,8.13.4.93.26,1.92.61,2.99,1.08,4.85,2.14,17.96,2.85,25.23,3.85,3.16.44,8.12.35,12.93.14,4.09-.18,8.08-.46,10.72-.59.8-.04,1.49-.07,2.01-.08.37,0,.66,0,.85.02,1.09.1,6.42-.22,12.28-.69,7.13-.57,15.04-1.37,17.07-1.93.05-1.51-1.16-4.45-2.86-7.66-.71-1.33-1.51-2.7-2.34-4.04"/>
          <path class="cls-3" d="m219.23,139.99c.03-.05.07-.11.1-.17,1.18-1.98,2.47-4.61,3.89-7.07,2.5-4.32,5.42-8.12,8.83-7.04v13.44"/>
          <line class="cls-3" x1="223.22" y1="132.76" x2="230.05" y2="139.22"/>
          <path class="cls-3" d="m245.2,138.49s11.63-8.96,14.21-9.59"/>
          <path class="cls-3" d="m239.33,117.09s4.33,7.76,5.87,7.19,2.71-8.8,3.69-8.46"/>
          <path class="cls-3" d="m185.84,126.27s32.11-13.27,48.99-22.02"/>
          <path class="cls-3" d="m188.29,127.87s35.92-13.07,49.04-22.51"/>
          <path class="cls-3" d="m191.25,129.82s26.18-7.75,48.62-23.3"/>
          <path class="cls-3" d="m197.99,88.94c12.76-5.34,39.91-14.29,73.05-14.08v24.16c-10.79-3.84-47.34-7.23-62-5.67"/>
          <path class="cls-3" d="m271.04,99.02c0,1.93-.22,4.88-4.81,7.66s-12.41,7.57-18.82,8.7"/>
          <path class="cls-3" d="m250.85,116.78s18.61-8.26,20.19-12.11"/>
          <path class="cls-3" d="m252.3,118.24s14.25-5.35,18.74-9.85"/>
          <path class="cls-3" d="m262.27,136.56s6.86-2.39,8.77-5.61v-6.51s-1.39,0-5.77-.75c-4.26-.73-7.99,1.06-8.2,1.17h0c-3.78,1.42-11.87-.57-11.87-.57"/>
          <polyline class="cls-3" points="271.04 124.44 271.04 108.39 271.04 104.67 271.04 99.02"/>
          <path class="cls-3" d="m123.44,75.97c1.79.55,9.55,1.16,18.87-4.53,2.59-1.57,5.3-3.64,8.04-6.34,8.84-5.43,29.85-17.74,49.69-25.91,1.01-.42,2.02-.82,3.02-1.22,3.04-1.19,6.04-2.27,8.93-3.2,6.81-2.18,13.1-3.51,18.25-3.48,0,0,3.53,8.41,4.38,8.62.85.21,3.99.43,5.99.07,1.42-.25,3.79-1.34,5.66-1.08.74.1,1.4.42,1.89,1.08,2.72,3.69,3.26,10.58,3.26,10.58,4.06-2.24,8.83-5.67,9.46-5.67,2.35,1.07,10.16,3,10.16,3v26.97"/>
          <path class="cls-3" d="m142.31,71.44s.79,2.77,1.74,6.44c.75,2.94,1.62,6.46,2.27,9.58.62,3.03,1.04,5.69.95,7.09"/>
          <path class="cls-3" d="m144.05,77.88c14.96-6.26,44.4-18.62,52.02-21.15,16.75-5.56,39.8-11.4,42.25-12.15,2.46-.75,5.95-2.69,7.95-5.67"/>
          <path class="cls-3" d="m146.32,87.46c17.6-8.99,52.88-22.73,64.02-26.44,19.76-6.56,34.4-8.2,41.08-10.46"/>
          <path class="cls-3" d="m148.26,95.45c13.1-6.94,74.68-34.43,122.78-35.49"/>
          <path class="cls-3" d="m234.62,39.91c-8.26,1.57-76.29,27.59-90.57,37.97"/>
          <path class="cls-3" d="m177.84,123.48c-6.75-6.32-9.21-8.77-12.85-10.17-3.63-1.39-5.34,1.48-7.16,4.86s-5.45,11.19-5.61,13.8"/>
          <line class="cls-3" x1="138.3" y1="86.94" x2="151.52" y2="113.31"/>
          <line class="cls-3" x1="134.4" y1="83.93" x2="150.09" y2="118.55"/>
          <polyline class="cls-3" points="149.78 126.27 131.07 81.49 131.07 81.49"/>
          <path class="cls-3" d="m142.01,38.7c12.08-5.56,41.16-16.35,50.03-15.02,1.56,1.17,3.89,5.07,5.63,8.73,1.36,2.86,2.36,5.59,2.37,6.78"/>
          <path class="cls-3" d="m197.67,32.41c4.63-.44,8.69-1.95,10.3-1.47,1.6.49,4.03,3.83,4.03,3.83"/>
          <path class="cls-3" d="m207.97,30.94c-1.82,1.13-4.69,4.27-4.91,7.03"/>
          <path class="cls-3" d="m128.33,29.98s5.59-2.81,12.93-6.39c8.88-4.33,20.28-9.78,27.38-12.71,3.02-1.26,5.27-2.05,6.2-2.11,3.63,4.16,3.73,7.8,3.73,7.8-14.71,7.04-37.56,16.81-38.13,17.89h0"/>
          <path class="cls-3" d="m178.57,16.57s5.52.45,9.55,2.71c1.85,1.04,3.39,2.46,3.93,4.4"/>
          <path class="cls-3" d="m141.25,36.05c13.69-5.69,40.69-17.69,46.86-16.77"/>
          <path class="cls-3" d="m122.44,3.29c1.76-.41,4.26-.82,7.28-1.07,2.06-.18,4.37-.28,6.84-.25,9.74.07,22.01,2.03,32.08,8.9"/>
          <path class="cls-3" d="m129.72,2.22s1.43,3.74,3.35,8.09c1.96,4.45,4.43,9.53,6.4,11.91.67.8,1.28,1.31,1.79,1.37,3.43-9.59,6.01-18.03,6.01-18.03"/>
          <path class="cls-3" d="m123.16,23.67s10.34-2.97,16.3-1.46"/>
          <polyline class="cls-3" points="133.07 10.31 139.46 6.83 136.56 1.97 136.56 1.96"/>
          <path class="cls-3" d="m69.32,30.94c-16.36,5.83-40.3,21.44-46.72,41.53,1.82.64,3.53,1.24,5.15,1.79,1.77.6,3.41,1.16,4.94,1.69,1.31.44,2.54.86,3.68,1.26,4.69,1.63,7.96,2.88,10,4.12.75.46,1.34.92,1.77,1.4"/>
          <path class="cls-3" d="m22.61,72.48s.14,3.41.5,7.12c.42,4.24,1.13,8.88,2.28,9.26"/>
          <path class="cls-3" d="m17.01,90.61c.16.25.44.42.89.47,1.09.13,4.04-.5,7.68-1.53,7.83-2.2,18.77-6.2,20.7-8.06"/>
          <path class="cls-3" d="m23.11,79.59c-2.45,3.43-7.03,9.1-6.14,10.92"/>
          <path class="cls-3" d="m49.23,119.31c5.55-4.26,10.91-11.21,13.36-13.95,3.99-4.45,13.2-17.06,13.2-17.06"/>
          <path class="cls-3" d="m20.56,97.28c.62,1.14,1.31,2.38,2.05,3.67.6,1.07,1.25,2.18,1.92,3.3,4.72,7.94,10.65,16.66,14.69,18.22.73.28,1.49.39,2.29.36,2.42-.08,5.08-1.49,7.7-3.49"/>
          <path class="cls-3" d="m16.97,90.51s.02.03.04.09c.26.51,1.59,3.13,3.53,6.67"/>
          <path class="cls-3" d="m20.55,97.28h0c.52-.14,21.79-6.01,26.75-9.82h0"/>
          <path class="cls-3" d="m22.61,100.95s17.74-5.27,24.16-8.58"/>
          <path class="cls-3" d="m24.53,104.25s14.19-3.05,21.96-7.86c.1-.06.19-.12.28-.18"/>
          <path class="cls-3" d="m27.76,74.27c10.32-13.41,16.9-19.64,34.84-29.28"/>
          <path class="cls-3" d="m32.7,75.96c4.51-6.26,13.82-18.8,27.69-25.29"/>
          <path class="cls-3" d="m36.37,77.22c4.26-7.1,15.52-19.55,21.86-20.38"/>
          <path class="cls-3" d="m76.12,99.63c-.1.62-2.56,14.78-5.52,23.85-1.25,3.82-2.59,6.73-3.88,7.36,6.41.14,9.12,0,9.12,0,.22-2.5.47-5.21.74-8.01.54-5.8,1.17-11.99,1.72-17.48.27-2.57.52-4.99.75-7.14.23-2.2.44-4.12.6-5.64.24-2.34.39-3.72.39-3.72"/>
          <path class="cls-3" d="m79.78,92.3l-.13.28c-.41.83-1.69,3.48-3.53,7.03,0,0,0,.02,0,.03-3.7,7.17-9.63,18-15.05,24.99-2.32,2.99-4.55,5.28-6.46,6.29-2.28-.92-6.56-3.04-6.56-3.04,9.98-8.28,29.47-34.44,30.57-39.01"/>
          <path class="cls-3" d="m41.45,128c-.49.47-.87.79-1.1.9,3.42,1.52,4.44,2.01,4.44,2.01l3.26-3.04"/>
          <path class="cls-3" d="m49.23,119.3h0s0,0-.03.03c-.4.48-5.27,6.28-7.7,8.62"/>
          <path class="cls-3" d="m41.5,122.83s-4.43,4.48-5.85,5.04c2.43.98,2.93,1.66,2.93,1.66,1.55-.55,2.63-1.34,2.87-1.52.03-.03.05-.04.05-.04"/>
          <polyline class="cls-3" points="61.03 124.62 61.07 124.62 70.51 123.46"/>
          <polyline class="cls-3" points="76.58 122.83 92.88 127.75 93.26 127.87"/>
          <path class="cls-3" d="m78.35,105.36s8.47,13.21,14.53,22.39c3.07,4.67,5.53,8.32,5.91,8.65,1.14,1,10.24.71,10.24.71-8.96-12.69-29.91-38.9-29.91-38.9"/>
          <path class="cls-3" d="m109.03,137.11s3.23,1.95,4.2,2.23c2.71.79,4.3.53,4.89.34-10.78-11.26-37.35-45.32-38.34-47.39"/>
          <path class="cls-3" d="m83.82,88.86c0,3.22.28,8.3,5.99,15.02,4.97,5.86,25.13,28.31,33.6,34.33,1.24.87,2.24,1.4,2.89,1.47,0,0,.24-.18.69-.51,2.57-1.88,11.76-8.47,16.21-9.67.64-.17,1.18-.23,1.59-.15,0,0,.03,0,.03,0"/>
          <path class="cls-3" d="m118.12,139.68s4.49-.37,5.29-1.47c0,0,0,0,0,0"/>
          <path class="cls-3" d="m76.14,81.69c.2-.13.44-.2.7-.2h6.42c.7,0,1.28.58,1.28,1.28v4.81c0,.53-.32.97-.78,1.16-.15.08-.33.11-.5.11h-6.42c-.44,0-.83-.22-1.06-.55-.14-.2-.23-.45-.23-.72v-4.81c0-.45.23-.85.59-1.07"/>
          <path class="cls-3" d="m83.26,81.49c2.49-5.3,11.9-16.9,16.53-17.87"/>
          <path class="cls-3" d="m80.04,81.49c1.67-5.28,8.09-16.85,17.02-20.82,1-.45,2.03-.8,3.1-1.04"/>
          <path class="cls-3" d="m97.06,60.66c-4.47.63-15.12,7.22-17.58,15.65l-4.3-12.1c-1.26-2.78-4.53-9.56-5.74-10.06"/>
          <path class="cls-3" d="m83.65,40.33c-3.32,3.77-8.34,9.04-14.23,13.82-1.13.93-2.29,1.83-3.48,2.7-1.1.8-2.21,1.57-3.35,2.31-2.47,1.61-5.02,3.03-7.61,4.16"/>
          <path class="cls-3" d="m87.94,35.17s-1.57,2.08-4.29,5.15"/>
          <path class="cls-3" d="m65.95,56.84c4.19,5.66,12.35,18.12,12.4,24.64"/>
          <path class="cls-3" d="m62.6,59.15c6.04,6.62,13.26,21.09,13.54,22.53h0"/>
          <polyline class="cls-3" points="83.65 40.32 83.65 40.33 84.37 63.32"/>
          <path class="cls-3" d="m178.18,134.75c3.06-.34,13.45-2.33,18.77-1.47"/>
        </g>
      </g>
      <path class="cls-4" d="m117.11,12.5c-.2.49-1.21.55-2.27.13-1.07-.41-1.77-1.14-1.57-1.64.19-.49,1.21-.55,2.27-.14,1.07.42,1.77,1.15,1.58,1.65Z"/>
      <path class="cls-4" d="m122.81,15.6c-.28.44-1.29.31-2.26-.3-.97-.61-1.52-1.46-1.24-1.9.28-.44,1.29-.31,2.25.29.97.61,1.52,1.46,1.25,1.91Z"/>
    </g>
  </g>
</svg>