<?xml version="1.0" encoding="UTF-8"?>
<svg xmlns="http://www.w3.org/2000/svg" xmlns:xlink="http://www.w3.org/1999/xlink" viewBox="0 0 270.4 185.68">
  <defs>
    <style>
      .cls-1 {
        stroke-miterlimit: 10;
      }

      .cls-1, .cls-2, .cls-3 {
        fill: none;
      }

      .cls-1, .cls-3 {
        stroke: #000;
      }

      .cls-4 {
        fill: #f3edd7;
      }

      .cls-4, .cls-2, .cls-5, .cls-6, .cls-7, .cls-8, .cls-9, .cls-10, .cls-11, .cls-12, .cls-13 {
        stroke-width: 0px;
      }

      .cls-3 {
        stroke-linecap: round;
        stroke-linejoin: round;
      }

      .cls-5 {
        fill: #333;
      }

      .cls-14 {
        clip-path: url(#clippath);
      }

      .cls-6 {
        fill: #d2d296;
      }

      .cls-7 {
        fill: #dad47e;
      }

      .cls-8 {
        fill: #ffecca;
      }

      .cls-9 {
        fill: #ffffec;
      }

      .cls-10 {
        fill: #c298bc;
      }

      .cls-11 {
        fill: #ff3e34;
      }

      .cls-12 {
        fill: #fdfdd9;
      }

      .cls-13 {
        fill: #ebd9a7;
      }
    </style>
    <clipPath id="clippath">
      <rect class="cls-2" x="4.78" width="265.37" height="163.46"/>
    </clipPath>
  </defs>
  <g id="_畳" data-name="畳">
    <g>
      <g>
        <rect class="cls-4" x=".24" y="151.03" width="3.62" height="5.03"/>
        <path class="cls-4" d="m270.15,178.61v6.57h-30.45l15.35-8.63c1.03,1.62,3.11,2.72,5.51,2.72s4.62-1.18,5.62-2.88l3.97,2.23Z"/>
        <path class="cls-4" d="m270.15,168.05v10.56l-3.97-2.23c.38-.65.59-1.38.59-2.14,0-1.3-.62-2.48-1.62-3.38l4.99-2.8Z"/>
        <path class="cls-4" d="m270.15,156.06v11.99l-4.99,2.8c-1.14-1.01-2.77-1.64-4.59-1.64s-3.31.58-4.44,1.51l-26.1-14.67h40.12Z"/>
        <polygon class="cls-4" points="270.15 77.2 270.15 82.97 1.13 82.97 .24 82.97 .24 77.2 270.15 77.2"/>
        <rect class="cls-4" x="266.16" y="151.03" width="3.99" height="5.03"/>
        <path class="cls-4" d="m266.78,174.23c0,.76-.21,1.49-.59,2.14l-5.42-3.05,4.39-2.47c1,.89,1.62,2.08,1.62,3.38Z"/>
        <path class="cls-4" d="m260.77,173.33l5.42,3.05c-1,1.7-3.13,2.88-5.62,2.88s-4.48-1.1-5.51-2.72l5.71-3.21Z"/>
        <rect class="cls-5" x="254.85" y="151.03" width="11.31" height="5.03"/>
        <path class="cls-4" d="m265.16,170.86l-4.39,2.47-4.64-2.61c1.13-.93,2.7-1.51,4.44-1.51,1.82,0,3.46.63,4.59,1.64Z"/>
        <path class="cls-4" d="m260.77,173.33l-5.71,3.21c-.44-.69-.69-1.48-.69-2.31,0-1.37.68-2.61,1.77-3.51l4.64,2.61Z"/>
        <path class="cls-4" d="m230.03,156.06l26.1,14.67c-1.09.9-1.77,2.14-1.77,3.51,0,.83.25,1.62.69,2.31l-15.35,8.63h-41.48l-15.65-8.8c.38-.65.59-1.38.59-2.14,0-1.3-.62-2.48-1.62-3.37l26.34-14.81h22.15Zm-5.97,18.18c0-2.77-2.25-5.02-5.02-5.02s-5.03,2.25-5.03,5.02,2.25,5.03,5.03,5.03,5.02-2.25,5.02-5.03Z"/>
        <polygon class="cls-4" points="254.85 156.06 230.03 156.06 224.33 156.06 224.33 151.03 254.85 151.03 254.85 156.06"/>
        <rect class="cls-5" x="213.02" y="151.03" width="11.31" height="5.03"/>
        <path class="cls-5" d="m219.05,169.21c2.77,0,5.02,2.25,5.02,5.02s-2.25,5.03-5.02,5.03-5.03-2.25-5.03-5.03,2.25-5.02,5.03-5.02Z"/>
        <path class="cls-4" d="m207.88,156.06l-26.34,14.81c-1.14-1.02-2.77-1.65-4.59-1.65s-3.31.58-4.44,1.51l-26.1-14.67h61.47Z"/>
        <polygon class="cls-4" points="182.5 156.06 182.5 151.03 213.02 151.03 213.02 156.06 207.88 156.06 182.5 156.06"/>
        <path class="cls-4" d="m198.21,185.18h-42.13l15.35-8.63c1.03,1.62,3.12,2.72,5.51,2.72s4.62-1.18,5.62-2.88l15.65,8.8Z"/>
        <path class="cls-4" d="m183.16,174.23c0,.76-.21,1.49-.59,2.14l-5.42-3.05,4.39-2.47c1,.89,1.62,2.07,1.62,3.37Z"/>
        <path class="cls-4" d="m177.15,173.33l5.42,3.05c-1,1.7-3.13,2.88-5.62,2.88s-4.48-1.1-5.51-2.72l5.71-3.21Z"/>
        <rect class="cls-5" x="171.19" y="151.03" width="11.31" height="5.03"/>
        <path class="cls-4" d="m176.95,169.21c1.82,0,3.46.63,4.59,1.65l-4.39,2.47-4.64-2.61c1.13-.93,2.7-1.51,4.44-1.51Z"/>
        <path class="cls-4" d="m177.15,173.33l-5.71,3.21c-.44-.69-.69-1.48-.69-2.31,0-1.37.68-2.61,1.77-3.51l4.64,2.61Z"/>
        <path class="cls-4" d="m146.41,156.06l26.1,14.67c-1.09.9-1.77,2.14-1.77,3.51,0,.83.25,1.62.69,2.31l-15.35,8.63h-41.48l-15.65-8.8c.38-.65.59-1.38.59-2.14,0-1.3-.62-2.48-1.62-3.37l26.34-14.81h22.15Zm-7.02,18.18c0-2.77-2.25-5.02-5.02-5.02s-5.03,2.25-5.03,5.02,2.25,5.03,5.03,5.03,5.02-2.25,5.02-5.03Z"/>
        <polygon class="cls-4" points="171.19 156.06 146.41 156.06 140.67 156.06 140.67 151.03 171.19 151.03 171.19 156.06"/>
        <rect class="cls-5" x="129.36" y="151.03" width="11.31" height="5.03"/>
        <path class="cls-5" d="m134.38,169.21c2.77,0,5.02,2.25,5.02,5.02s-2.25,5.03-5.02,5.03-5.03-2.25-5.03-5.03,2.25-5.02,5.03-5.02Z"/>
        <path class="cls-4" d="m124.26,156.06l-26.34,14.81c-1.14-1.02-2.77-1.65-4.59-1.65s-3.31.58-4.44,1.51l-26.1-14.67h61.47Z"/>
        <polygon class="cls-4" points="129.36 156.06 124.26 156.06 98.83 156.06 98.83 151.03 129.36 151.03 129.36 156.06"/>
        <path class="cls-4" d="m114.6,185.18h-42.13l15.35-8.63c1.03,1.62,3.11,2.72,5.51,2.72s4.62-1.18,5.62-2.88l15.65,8.8Z"/>
        <path class="cls-4" d="m99.54,174.23c0,.76-.21,1.49-.59,2.14l-5.42-3.05,4.39-2.47c1,.89,1.62,2.07,1.62,3.37Z"/>
        <path class="cls-4" d="m93.53,173.33l5.42,3.05c-1,1.7-3.13,2.88-5.62,2.88s-4.48-1.1-5.51-2.72l5.71-3.21Z"/>
        <rect class="cls-5" x="87.53" y="151.03" width="11.31" height="5.03"/>
        <path class="cls-4" d="m93.33,169.21c1.82,0,3.46.63,4.59,1.65l-4.39,2.47-4.64-2.61c1.13-.93,2.7-1.51,4.44-1.51Z"/>
        <path class="cls-4" d="m93.53,173.33l-5.71,3.21c-.44-.69-.69-1.48-.69-2.31,0-1.37.68-2.61,1.77-3.51l4.64,2.61Z"/>
        <path class="cls-4" d="m62.8,156.06l26.1,14.67c-1.09.9-1.77,2.14-1.77,3.51,0,.83.25,1.62.69,2.31l-15.35,8.63H30.79l-15.65-8.8c.38-.65.59-1.38.59-2.14,0-1.3-.62-2.48-1.62-3.37l26.34-14.81h22.34Zm-8.53,18.18c0-2.77-2.25-5.02-5.02-5.02s-5.03,2.25-5.03,5.02,2.25,5.03,5.03,5.03,5.02-2.25,5.02-5.03Z"/>
        <polygon class="cls-4" points="87.53 156.06 62.8 156.06 57 156.06 57 151.03 87.53 151.03 87.53 156.06"/>
        <rect class="cls-5" x="45.7" y="151.03" width="11.31" height="5.03"/>
        <path class="cls-5" d="m49.25,169.21c2.77,0,5.02,2.25,5.02,5.02s-2.25,5.03-5.02,5.03-5.03-2.25-5.03-5.03,2.25-5.02,5.03-5.02Z"/>
        <polygon class="cls-4" points="45.7 156.06 40.45 156.06 15.17 156.06 15.17 151.03 45.7 151.03 45.7 156.06"/>
        <path class="cls-4" d="m30.79,185.18H.24v-6.52l3.76-2.11c1.03,1.62,3.12,2.72,5.51,2.72s4.62-1.18,5.62-2.88l15.65,8.8Z"/>
        <path class="cls-4" d="m15.73,174.23c0,.76-.21,1.49-.59,2.14l-5.42-3.05,4.39-2.47c1,.89,1.62,2.07,1.62,3.37Z"/>
        <rect class="cls-5" x="3.87" y="151.03" width="11.31" height="5.03"/>
        <path class="cls-4" d="m9.72,173.33l5.42,3.05c-1,1.7-3.13,2.88-5.62,2.88s-4.48-1.1-5.51-2.72l5.71-3.21Z"/>
        <path class="cls-4" d="m9.52,169.21c1.82,0,3.46.63,4.59,1.65l-4.39,2.47-4.64-2.61c1.13-.93,2.7-1.51,4.44-1.51Z"/>
        <path class="cls-4" d="m9.72,173.33l-5.71,3.21c-.44-.69-.69-1.48-.69-2.31,0-1.37.68-2.61,1.77-3.51l4.64,2.61Z"/>
        <path class="cls-4" d="m.24,168.01l4.84,2.72c-1.09.9-1.77,2.14-1.77,3.51,0,.83.25,1.62.69,2.31l-3.76,2.11v-10.65Z"/>
        <polygon class="cls-6" points="213.02 151.03 182.5 151.03 171.19 151.03 140.67 151.03 129.36 151.03 98.83 151.03 87.53 151.03 57 151.03 45.7 151.03 15.17 151.03 3.87 151.03 .24 151.03 .24 82.97 1.13 82.97 270.15 82.97 270.15 151.03 266.16 151.03 254.85 151.03 224.33 151.03 213.02 151.03"/>
        <path class="cls-4" d="m.24,156.06h40.21l-26.34,14.81c-1.14-1.02-2.77-1.65-4.59-1.65s-3.31.58-4.44,1.51l-4.84-2.72v-11.95Z"/>
      </g>
      <g>
        <polyline class="cls-1" points="270.15 185.18 239.7 185.18 198.21 185.18 156.08 185.18 114.6 185.18 72.46 185.18 30.79 185.18 .24 185.18"/>
        <line class="cls-1" x1=".24" y1="77.2" x2="270.15" y2="77.2"/>
        <line class="cls-1" x1=".24" y1="82.97" x2="270.15" y2="82.97"/>
        <line class="cls-1" x1="266.16" y1="151.03" x2="270.15" y2="151.03"/>
        <line class="cls-1" x1="224.33" y1="151.03" x2="254.85" y2="151.03"/>
        <line class="cls-1" x1="182.5" y1="151.03" x2="213.02" y2="151.03"/>
        <line class="cls-1" x1="140.67" y1="151.03" x2="171.19" y2="151.03"/>
        <line class="cls-1" x1="98.83" y1="151.03" x2="129.36" y2="151.03"/>
        <line class="cls-1" x1="57" y1="151.03" x2="87.53" y2="151.03"/>
        <line class="cls-1" x1="15.17" y1="151.03" x2="45.7" y2="151.03"/>
        <line class="cls-1" x1=".24" y1="151.03" x2="3.87" y2="151.03"/>
        <line class="cls-1" x1="266.16" y1="156.06" x2="270.15" y2="156.06"/>
        <polyline class="cls-1" points="224.33 156.06 230.03 156.06 254.85 156.06"/>
        <polyline class="cls-1" points="182.5 156.06 207.88 156.06 213.02 156.06"/>
        <polyline class="cls-1" points="140.67 156.06 146.41 156.06 171.19 156.06"/>
        <polyline class="cls-1" points="98.83 156.06 124.26 156.06 129.36 156.06"/>
        <polyline class="cls-1" points="57 156.06 62.8 156.06 87.53 156.06"/>
        <polyline class="cls-1" points="15.17 156.06 40.45 156.06 45.7 156.06"/>
        <line class="cls-1" x1=".24" y1="156.06" x2="3.87" y2="156.06"/>
        <polyline class="cls-1" points="72.46 185.18 87.81 176.54 93.53 173.33 97.92 170.86 124.26 156.06"/>
        <polyline class="cls-1" points="114.6 185.18 98.95 176.38 93.53 173.33 88.89 170.73 62.8 156.06"/>
        <path class="cls-1" d="m139.4,174.23c0,2.78-2.25,5.03-5.02,5.03s-5.03-2.25-5.03-5.03,2.25-5.02,5.03-5.02,5.02,2.25,5.02,5.02Z"/>
        <path class="cls-1" d="m224.07,174.23c0,2.78-2.25,5.03-5.02,5.03s-5.03-2.25-5.03-5.03,2.25-5.02,5.03-5.02,5.02,2.25,5.02,5.02Z"/>
        <path class="cls-1" d="m97.92,170.86c1,.89,1.62,2.07,1.62,3.37,0,.76-.21,1.49-.59,2.14-1,1.7-3.13,2.88-5.62,2.88s-4.48-1.1-5.51-2.72c-.44-.69-.69-1.48-.69-2.31,0-1.37.68-2.61,1.77-3.51,1.13-.93,2.7-1.51,4.44-1.51,1.82,0,3.46.63,4.59,1.65Z"/>
        <polyline class="cls-1" points=".24 178.65 4.01 176.54 9.72 173.33 14.11 170.86 40.45 156.06"/>
        <polyline class="cls-1" points="30.79 185.18 15.14 176.38 9.72 173.33 5.08 170.73 .24 168.01"/>
        <path class="cls-1" d="m14.11,170.86c1,.89,1.62,2.07,1.62,3.37,0,.76-.21,1.49-.59,2.14-1,1.7-3.13,2.88-5.62,2.88s-4.48-1.1-5.51-2.72c-.44-.69-.69-1.48-.69-2.31,0-1.37.68-2.61,1.77-3.51,1.13-.93,2.7-1.51,4.44-1.51,1.82,0,3.46.63,4.59,1.65Z"/>
        <polyline class="cls-1" points="156.08 185.18 171.43 176.54 177.15 173.33 181.54 170.86 207.88 156.06"/>
        <polyline class="cls-1" points="198.21 185.18 182.57 176.38 177.15 173.33 172.51 170.73 146.41 156.06"/>
        <path class="cls-1" d="m181.54,170.86c1,.89,1.62,2.07,1.62,3.37,0,.76-.21,1.49-.59,2.14-1,1.7-3.13,2.88-5.62,2.88s-4.48-1.1-5.51-2.72c-.44-.69-.69-1.48-.69-2.31,0-1.37.68-2.61,1.77-3.51,1.13-.93,2.7-1.51,4.44-1.51,1.82,0,3.46.63,4.59,1.65Z"/>
        <polyline class="cls-1" points="239.7 185.18 255.05 176.54 260.77 173.33 265.16 170.86 270.15 168.05"/>
        <polyline class="cls-1" points="270.15 178.61 266.18 176.38 260.77 173.33 256.13 170.73 230.03 156.06"/>
        <path class="cls-1" d="m265.16,170.86c1,.89,1.62,2.08,1.62,3.38,0,.76-.21,1.49-.59,2.14-1,1.7-3.13,2.88-5.62,2.88s-4.48-1.1-5.51-2.72c-.44-.69-.69-1.48-.69-2.31,0-1.37.68-2.61,1.77-3.51,1.13-.93,2.7-1.51,4.44-1.51,1.82,0,3.46.63,4.59,1.64Z"/>
        <path class="cls-1" d="m54.27,174.23c0,2.78-2.25,5.03-5.02,5.03s-5.03-2.25-5.03-5.03,2.25-5.02,5.03-5.02,5.02,2.25,5.02,5.02Z"/>
        <rect class="cls-1" x="3.87" y="151.03" width="11.31" height="5.03"/>
        <rect class="cls-1" x="45.7" y="151.03" width="11.31" height="5.03"/>
        <rect class="cls-1" x="87.53" y="151.03" width="11.31" height="5.03"/>
        <rect class="cls-1" x="129.36" y="151.03" width="11.31" height="5.03"/>
        <rect class="cls-1" x="171.19" y="151.03" width="11.31" height="5.03"/>
        <rect class="cls-1" x="213.02" y="151.03" width="11.31" height="5.03"/>
        <rect class="cls-1" x="254.85" y="151.03" width="11.31" height="5.03"/>
      </g>
    </g>
  </g>
  <g id="_レイヤー_2" data-name="レイヤー 2">
    <g class="cls-14">
      <g>
        <g>
          <path class="cls-11" d="m271.16,128.03v13.64c-2.91-.5-5.63-9.34-5.63-9.34,3.09-2.37,5.63-4.3,5.63-4.3Z"/>
          <path class="cls-7" d="m250.9,141.42c-.34,0-.67-.05-1-.1-2.16-.37-3.95-1.52-4.44-2.61-.26-.56-.46-1.37-.66-2.35,5.54-3.02,22.33-12.53,25.35-17.72.36.25.69.49,1.01.74v8.66s-2.54,1.93-5.63,4.3c-3.43,2.61-7.53,5.79-9.6,7.49-1.55,1.28-3.35,1.69-5.03,1.6Z"/>
          <path class="cls-10" d="m270.15,118.64c-1.1-.77-2.39-1.59-3.83-2.4-1.03-.59-2.15-1.18-3.34-1.78-3.8-1.87-8.41-3.74-13.71-5.38,0,0,18.61,3.56,21.89,5.17v5.13c-.32-.25-.66-.49-1.01-.74Z"/>
          <path class="cls-12" d="m271.16,91.23v23.02c-3.28-1.6-21.89-5.17-21.89-5.17-11.78-3.67-27-6.29-44.35-5.58-.06-.06-.14-.14-.21-.19-.56-.57-1.15-1.14-1.75-1.69-3.54-3.35-7.42-6.56-9.26-7.48s-5.13-1.16-9.07-1.04c18.26-1.99,71.11-7.67,86.53-1.87Z"/>
          <path class="cls-12" d="m271.16,70.43v20.8c-15.43-5.8-68.27-.12-86.53,1.87-3.61.12-7.74.54-11.75,1.04-8.37,1.05-14.42,1.74-17.1,1.98-1.12.1-1.85.3-2.43.08-.66-.25-1.13-1.02-1.79-3.1,30.4-11.06,39.48-19.73,119.61-22.67Z"/>
          <path class="cls-12" d="m271.16,52.96v17.47c-80.13,2.94-89.21,11.61-119.61,22.67-.15-.45-.29-.95-.46-1.52-.33-1.14-.93-3.2-1.73-5.8l.16-.05c28.27-11.78,93.46-33.89,121.64-32.76Z"/>
          <path class="cls-12" d="m271.16,52.96c-28.18-1.13-93.36,20.98-121.64,32.76l-.16.05c-.49-1.63-1.06-3.47-1.67-5.43,0,0,49.68-22.69,88.23-32,.71-.17,1.42-.34,2.12-.49,5.8-1.35,11.32-2.36,16.34-2.92,5.82,1,11.38,3.97,16.78,8.04Z"/>
          <path class="cls-11" d="m265.53,132.33s2.72,8.84,5.63,9.34c-5.63,3.46-18.9,2.43-21.09-.11.27-.04.55-.08.83-.14,1.68.09,3.48-.33,5.03-1.6,2.08-1.7,6.18-4.87,9.6-7.49Z"/>
          <path class="cls-7" d="m266.33,116.24c1.44.81,2.72,1.62,3.83,2.4-3.02,5.19-19.81,14.7-25.35,17.72-.24-1.13-.48-2.51-.81-4.03,4.64-1.93,20.5-11.55,22.33-16.09Z"/>
          <path class="cls-7" d="m262.98,114.46c1.19.59,2.31,1.18,3.34,1.78-1.83,4.54-17.69,14.16-22.33,16.09-.24-1.06-.51-2.18-.86-3.33,3.71-1.74,15.84-9.9,19.84-14.53Z"/>
          <path class="cls-10" d="m262.98,114.46c-4.01,4.63-16.14,12.79-19.84,14.53-.32-1.07-.7-2.16-1.17-3.26l-1.36-.51-5.21-1.99-3.46-1.31-4.84-1.83-15.42-5.85h0c-.03-1.24-.59-2.92-1.69-4.87-.12-.21-.27-.45-.46-.7-.66-.93-1.69-2.13-2.94-3.45-.52-.55-1.08-1.12-1.67-1.71,17.36-.71,32.57,1.9,44.35,5.58,5.3,1.65,9.91,3.52,13.71,5.38Z"/>
          <path class="cls-12" d="m249.83,36.13c2.86-.05,4.2,4.56,4.56,8.79-5.02.56-10.53,1.58-16.34,2.92h0s3.46-5.56,8.58-10.13c1.23-1.09,2.29-1.58,3.2-1.59Z"/>
          <path class="cls-11" d="m243.99,132.33c.33,1.52.57,2.9.81,4.03.2.98.4,1.79.66,2.35.49,1.09,2.28,2.24,4.44,2.61.05.08.1.15.17.24-.27.05-.54.08-.8.1-1.07.13-2.1.18-3.11.16-9.42-.1-16.05-5.47-16.05-5.47,5.4-5.58,10.31-10.62,10.31-10.62l.19-.51,1.36.51c.46,1.1.85,2.2,1.17,3.26.35,1.16.62,2.28.86,3.33Z"/>
          <path class="cls-11" d="m249.27,141.66h0c-11.84,12.71-28.46,8.77-31.7,7.74.77-.82,1.81-1.91,3.03-3.19,7.29.73,22.35-1.07,25.56-4.38,1,.02,2.04-.04,3.11-.16Z"/>
          <path class="cls-12" d="m249.83,36.13c-.91,0-1.97.49-3.2,1.59-5.12,4.57-8.58,10.12-8.58,10.12h0c-.7.16-1.41.33-2.12.5,0,0-.45-6.83-.92-11.7.26-.03,5.47-.51,14.82-.51Z"/>
          <path class="cls-7" d="m235.4,123.24l5.21,1.99-.19.51s-4.91,5.05-10.31,10.62c-3.32,3.43-6.83,7.06-9.5,9.85-1.22,1.28-2.26,2.37-3.03,3.19-.67.72-1.15,1.23-1.34,1.46-1.71,2.01-5.12-.15-6.2-.93-.33-.23-2.05-1.92-4.32-4.18-.84-.84-1.76-1.76-2.7-2.71-5.09-5.13-11.08-11.23-11.08-11.23,1.81-1.05,3.58-2.11,5.25-3.2l13.62,14.87,24.6-20.24Z"/>
          <path class="cls-12" d="m235,36.64c.47,4.87.92,11.7.92,11.7-38.55,9.31-88.23,32-88.23,32-.72-2.28-1.5-4.71-2.31-7.18,21.38-11.95,53.01-26.52,69.29-26.52,3.57-4.04,11.64-12.87,14.42-14.11.92-.41,1.76-.9,2.49-1.25,1.49-.71,2.52-.83,2.94,1.56.15.87.31,2.23.47,3.81Z"/>
          <path class="cls-7" d="m235.4,123.24l-24.6,20.24-13.62-14.87c.91-.58,1.8-1.18,2.65-1.76l10.51,10.91,21.59-15.83,3.46,1.31Z"/>
          <path class="cls-7" d="m231.94,121.93l-21.59,15.83-10.51-10.91c1.05-.72,2.05-1.44,2.98-2.14l7.99,7.63,16.3-12.24,4.84,1.83Z"/>
          <path class="cls-11" d="m230.11,136.36s6.63,5.37,16.05,5.47c-3.21,3.32-18.27,5.11-25.56,4.38,2.67-2.79,6.19-6.42,9.5-9.85Z"/>
          <path class="cls-11" d="m231.58,31.28c-.73.35-1.57.84-2.49,1.25-.51-.15-1.2-.24-2.01-.26,0,0-3.97-6-7.22-10.65,4.13-1.18,9.39.21,11.72,9.67Z"/>
          <path class="cls-12" d="m227.08,32.26c.81.03,1.5.11,2.01.26-2.79,1.24-10.85,10.08-14.42,14.11,0,0-2-5.32-4.33-12.02,0,0,11.2-2.53,16.74-2.36Z"/>
          <path class="cls-10" d="m227.1,120.09l-16.3,12.24-7.99-7.63c4.33-3.26,7.35-6.31,7.99-8.47.62-.31.91-1,.87-1.99h0l15.42,5.85Z"/>
          <path class="cls-11" d="m227.08,32.26c-5.54-.17-16.74,2.36-16.74,2.36-.97-2.8-2-5.84-2.96-8.84-2.89.05-7.2,1.54-12.28,3.9,0,0-.15-.81-.43-1.91,6.04-8.43,10.7-10.6,12.87-12.3.74-.57,1.71-.96,2.81-1.06,2.14-.22,4.7.65,6.66,3.22.75.98,1.76,2.41,2.85,3.98h0c3.24,4.66,7.22,10.65,7.22,10.65Z"/>
          <path class="cls-12" d="m210.35,34.62c2.32,6.7,4.33,12.02,4.33,12.02-16.28,0-47.92,14.58-69.29,26.52-1.12-3.41-2.31-6.86-3.46-9.99h0c8.79-6.57,35.6-25.31,53.17-33.49,5.08-2.36,9.39-3.85,12.28-3.9.97,3,2,6.04,2.96,8.84Z"/>
          <path class="cls-7" d="m211.68,114.24c.04.98-.26,1.68-.87,1.99-1.39.7-7.56,1.86-11.52,3.14-2.51.81-15.22,5.9-25.36,10-5.89,2.38-10.9,4.43-12.56,5.11-1.08.44-2.3.74-3.58.9-4.17.56-9.06-.25-11.96-1.9.31-1.09.16-2.21-.25-3.31,8.54,0,20.56.71,63.95-21.51.18.26.34.49.46.7,1.1,1.95,1.67,3.64,1.69,4.87Z"/>
          <path class="cls-11" d="m210.35,14.4h0c-1.09.11-2.07.49-2.81,1.07-2.17,1.7-6.82,3.87-12.87,12.3-.36-1.36-.93-3.15-1.73-4.46,0,0,1.1-5.37.95-8.94,0,0,8.87-1.65,16.46.03Z"/>
          <path class="cls-7" d="m206.58,105.22c1.25,1.32,2.29,2.52,2.94,3.45-43.39,22.22-55.42,21.51-63.95,21.51-.41-1.08-1.08-2.13-1.87-3.08,9.52-1.33,29.36-.56,62.88-21.89Z"/>
          <path class="cls-11" d="m199.28,119.37c3.95-1.28,10.12-2.44,11.52-3.14-.64,2.17-3.66,5.21-7.99,8.47-.93.7-1.93,1.42-2.98,2.14-.85.58-1.74,1.18-2.65,1.76-1.67,1.08-3.44,2.15-5.25,3.2-5.32,3.08-11.11,5.93-16.44,8.02-.55-.09-1.07-.17-1.57-.26v-10.17h0c10.14-4.11,22.85-9.2,25.36-10.01Z"/>
          <path class="cls-11" d="m205.71,145.74l-.03.03c-5.83,3.24-32.25,1.06-38.8-.78h0c4.55-.77,9.35-2.08,13.61-4.28,2.84.67,15.52,3.48,22.24,2.61l.27-.27c.94.95,1.86,1.87,2.7,2.71Z"/>
          <path class="cls-7" d="m204.92,103.5c.58.59,1.15,1.17,1.67,1.71-33.52,21.32-53.36,20.56-62.88,21.89-.76-.91-1.6-1.73-2.41-2.4.51-.02,19.22-.67,44.98-11.61,18.43-7.83,18.71-9.35,18.29-9.65l.14-.14c.07.05.15.13.21.19Z"/>
          <path class="cls-7" d="m204.57,103.45c.42.3.15,1.82-18.29,9.65-25.77,10.93-44.47,11.59-44.98,11.61h0c-1.34-1.11-2.55-1.79-2.99-1.79,17.21-2.07,44.2-10.39,64.44-21.07l.22-.23c.6.56,1.18,1.12,1.75,1.69l-.14.14Z"/>
          <path class="cls-11" d="m203.01,143.04l-.27.27c-6.72.87-19.4-1.94-22.24-2.61.02,0,.05-.02.06-.03-.2-.04-.4-.06-.59-.1-.03,0-.05,0-.05,0-1.66-.27-3.12-.52-4.43-.75,5.33-2.09,11.12-4.94,16.44-8.02,0,0,5.99,6.1,11.08,11.23Z"/>
          <path class="cls-10" d="m85.14,100.64c.15-.17.3-.33.46-.48,1.13-1.08,2.51-1.87,4.23-2.19,6.86-1.28,13.15-.89,17.69,1.24.79.37,1.77.87,3.08,1.44,5.27,2.27,15.88,5.56,41.41,5.73l.02-2.36c-.15-2.37,1.32-7.83,1.32-7.83.58.22,1.31.02,2.43-.08,2.68-.24,8.73-.93,17.1-1.98,4.01-.5,8.15-.92,11.75-1.04,3.94-.12,7.24.13,9.07,1.04s5.71,4.13,9.26,7.48l-.22.23c-20.24,10.68-47.22,19-64.44,21.07-.03,0-.05,0-.06,0-2.55.3-4.89.46-6.96.48-.33,0-.65,0-.97,0-1.45,0-2.87-.08-4.26-.21-1.15-.1-2.27-.24-3.37-.41h0c-4.03,3.83-11.79,9.28-16.57,12.63-2.88-1.57-5.75-3.15-8.13-4.49h0c-1.04-.59-1.98-1.13-2.78-1.6-.38-.23-.73-.44-1.05-.63-4.37-2.67-9.24-7.57-11.64-11.45h0c-.68-1.1-1.16-2.12-1.38-2.98-.08-.33-.13-.64-.13-.92.25-3.82,1.15-9.37,4.15-12.68Z"/>
          <path class="cls-10" d="m194.67,27.77c.28,1.1.43,1.91.43,1.91-17.58,8.18-44.38,26.92-53.17,33.49h0c-.82-2.24-1.62-4.31-2.38-6.08-.88-2.07-1.69-3.72-2.37-4.72-.1-.46-.45-1.79-1.13-3.73,20.09-11.4,51.03-26.32,54.29-27.01.61-.13,1.16.08,1.65.49.06.05.13.11.18.17.28.27.54.62.78,1,.8,1.3,1.38,3.1,1.73,4.46Z"/>
          <path class="cls-11" d="m193.89,14.37c.15,3.57-.95,8.94-.95,8.94-.25-.38-.5-.73-.78-1-.05-.06-.12-.12-.18-.17-2.6-2.49-8.2-3.24-9.71-2.49-.16.08-.67.35-1.48.77-2.1-1.55-6.12-.77-7.83,0-1.71.77-39.28,22.7-39.28,22.7h0c-2.05-4.16-5.19-9.18-9.88-13.93,26.83-7.53,57.38-21.32,60.02-21.95,2.63-.62,6.65-2.84,10.08,7.13Z"/>
          <path class="cls-10" d="m191.98,22.14c-.49-.41-1.04-.62-1.65-.49-3.25.68-34.2,15.61-54.29,27.01-.39-1.08-.88-2.33-1.51-3.73,10.27-5.28,39.28-20.8,46.26-24.5.8-.43,1.31-.69,1.48-.77,1.51-.76,7.12,0,9.71,2.49Z"/>
          <path class="cls-11" d="m179.97,140.58c.08.02.26.06.53.13-4.26,2.2-9.07,3.52-13.61,4.27-9.58,1.61-18.01.79-18.01.79,5.61-2.56,12.96-7.23,13.31-8.41,4.36.9,7.22,1.42,11.74,2.2.5.09,1.02.17,1.57.26,1.31.23,2.77.47,4.43.75,0,0,.02,0,.05,0Z"/>
          <path class="cls-12" d="m172.96,20.42c1.7-.77,5.73-1.55,7.83,0-6.98,3.7-35.99,19.23-46.26,24.5-.26-.58-.54-1.18-.86-1.8h0s37.57-21.92,39.28-22.7Z"/>
          <path class="cls-11" d="m173.93,129.39v10.17c-4.53-.77-7.38-1.29-11.74-2.2-2.95-1.24-4.4-1.96-4.4-1.96h0c1.28-.17,2.51-.47,3.58-.91,1.67-.68,6.68-2.73,12.56-5.11h0Z"/>
          <path class="cls-10" d="m157.78,135.4s1.45.72,4.4,1.96c-.36,1.18-7.7,5.85-13.31,8.41-1.81.83-3.44,1.44-4.6,1.64l-10.15-9.32c4.05-1.46,8.29-3.07,11.7-4.6,2.91,1.66,7.79,2.46,11.96,1.9h0Z"/>
          <path class="cls-10" d="m110.59,100.65c-1.31-.56-2.29-1.07-3.08-1.44-4.54-2.13-10.82-2.51-17.69-1.24-1.71.32-3.1,1.1-4.23,2.19l-.42-.21c-6.29-.93-18.22-16.98-18.22-16.98l-2.13-1.3c3.09-5.69,6.6-12.45,10.15-18.97.4.55,15.23,21.07,18.11,28.42,1.39.12,4.88.46,4.88.46,6.62-8.03,26.86-31.89,39.2-33.62l2.37-.86c.76,1.77,1.56,3.84,2.38,6.08,1.16,3.13,2.34,6.58,3.46,9.99.81,2.47,1.59,4.9,2.31,7.18.61,1.96,1.18,3.8,1.67,5.43.8,2.61,1.4,4.67,1.73,5.8.16.57.31,1.08.46,1.52.67,2.08,1.14,2.85,1.79,3.1,0,0-1.48,5.46-1.32,7.83l-.02,2.36c-25.53-.17-36.14-3.46-41.41-5.73Z"/>
          <path class="cls-11" d="m145.57,130.18c.41,1.09.56,2.21.25,3.31-3.41,1.53-7.64,3.14-11.7,4.6-1.47.53-2.92,1.03-4.28,1.5-1.14.38-2.22.76-3.23,1.08h0c-3.32,1.1-5.85,1.89-6.69,2.11,5.4-6.33,17.09-19.62,18.32-19.87.02,0,.04,0,.06,0,.44,0,1.65.68,2.99,1.79h0c.8.67,1.65,1.49,2.41,2.4.78.95,1.46,2,1.87,3.08Z"/>
          <path class="cls-13" d="m144.27,147.41l-7.6,1.12-6.83-8.94c1.37-.47,2.82-.97,4.28-1.5l10.15,9.32Z"/>
          <path class="cls-10" d="m94.14,80.99c5.35-13.03,14.82-26.51,17.9-29.54,2.75-2.7,7.07-7.58,9.69-10.2.7-.69,1.28-1.23,1.67-1.51,5.17,4.56,10,8.98,13.78,12.64.68,1,1.49,2.65,2.37,4.72l-2.37.86c-12.34,1.73-32.57,25.59-39.2,33.62,0,0-3.49-.35-4.88-.46-2.88-7.34-17.71-27.87-18.11-28.42h0c.43-.78.86-1.57,1.28-2.33.42-.77.84-1.52,1.27-2.27.31.41,8.83,11.57,13.61,18.36,1.45,2.05,2.56,3.7,3,4.54Z"/>
          <path class="cls-13" d="m129.84,139.59l6.83,8.94-5.39,1.39-4.67-9.24h0c1.01-.34,2.1-.71,3.23-1.09Z"/>
          <path class="cls-5" d="m118.02,35.05c-13.15-11.37-26.75-22.19-29.47-22.57-.33-.05-.66-.1-.98-.15-2.75-.38-5.49-.5-6.93-.54-.67-.02-1.32.21-1.83.63-3.06,2.54-5.16,4.77-6.34,5.13-.05.03-.1.05-.15.07-.97.44-2.65.81-2.65-1.62,0-2.56,2.49-7.83,5.05-9.46,2.55-1.63,9.87-3.86,14.82-2.15,4.97,1.7,24.17,14.56,34.26,24.79,4.68,4.75,7.83,9.77,9.88,13.93.32.62.6,1.22.86,1.8.63,1.39,1.12,2.65,1.51,3.73.68,1.93,1.03,3.27,1.13,3.73-3.77-3.65-8.61-8.08-13.78-12.64-1.76-1.57-3.56-3.13-5.38-4.69Z"/>
          <path class="cls-7" d="m131.28,123.4c2.07-.02,4.41-.18,6.96-.48-1.23.26-12.92,13.54-18.32,19.87,0,0-.7-.37-1.89-.99h0c-1.26-.67-3.07-1.64-5.16-2.75,3.71-3.04,14.3-12.19,17.44-15.64h.97Z"/>
          <path class="cls-13" d="m126.6,140.69l4.67,9.24-10.59.93-1.13-3.85-1.53-5.21c1.18.62,1.89.99,1.89.99.84-.23,3.37-1.01,6.69-2.1Z"/>
          <path class="cls-7" d="m130.31,123.39h0c-3.14,3.46-13.73,12.61-17.44,15.65-1.1-.59-2.27-1.22-3.48-1.87,2.94-2.51,14.5-10.7,16.66-13.99h0c1.39.12,2.82.19,4.26.2Z"/>
          <path class="cls-7" d="m126.05,123.18h0c-2.16,3.3-13.71,11.49-16.66,14-1.08-.58-2.18-1.18-3.29-1.78,4.78-3.35,12.55-8.8,16.57-12.62h0c1.1.16,2.22.3,3.37.4Z"/>
          <path class="cls-12" d="m123.4,39.74c-.39.28-.97.82-1.67,1.51-1.3-1.23-3.13-2.83-5.28-4.67l1.57-1.53c1.81,1.56,3.62,3.13,5.38,4.69Z"/>
          <path class="cls-11" d="m118.03,141.8l1.53,5.21-.42.13s-3.56.62-7.75,0c-3.02-.45-10.1-3.24-14.61-6.46-1.73-1.23-3.09-2.53-3.69-3.78-.63-1.29-.74-2.35-.51-3.21l.05-.14c.64-2,3.23-2.79,5.34-2.64h0c2.38,1.34,5.25,2.92,8.13,4.49,1.11.6,2.21,1.19,3.29,1.78,1.21.65,2.38,1.28,3.48,1.87,2.09,1.11,3.9,2.08,5.16,2.74h0Z"/>
          <path class="cls-12" d="m121.73,41.25c-2.61,2.61-6.93,7.5-9.69,10.2-3.09,3.02-12.56,16.51-17.9,29.54-.44-.84-1.55-2.49-3-4.54h0c-.2-2.27.69-5.16.69-5.16.58-3.62,3.21-8.39,6.44-13.13,6.33-9.28,14.96-18.43,14.96-18.43l3.21-3.15c2.15,1.84,3.97,3.44,5.28,4.67Z"/>
          <path class="cls-8" d="m118.02,35.05l-1.57,1.53c-9.1-7.8-23.95-19.74-28.88-24.25.33.05.66.09.98.15,2.72.38,16.32,11.2,29.47,22.57Z"/>
          <path class="cls-8" d="m95.19,43.93c-1.87.56-3.75.98-5.28.99-.45,0-.86-.04-1.23-.11-.7-.14-1.49-.5-2.33-1.02-.37-.23-.77-.49-1.16-.79-3.75-2.79-7.97-7.99-9.19-10.51-1.63-3.38-4.02-12.3-3.67-14.86.05-.03.1-.05.15-.07,1.18-.36,3.28-2.59,6.34-5.13.51-.42,1.17-.65,1.83-.63,1.44.04,4.18.15,6.93.54,4.93,4.51,19.78,16.45,28.88,24.25l-3.21,3.15s-8.63,9.15-14.96,18.43l-.31-.21c-.86-.93-2.25-10.62-2.79-14.02Zm-11.63-25.9c.96-.65,1.52-1.49,1.26-1.88s-1.26-.18-2.21.46c-.96.66-1.51,1.49-1.25,1.89s1.25.18,2.2-.47Zm-7.63,4.33c.96-.65,1.52-1.49,1.26-1.89-.26-.38-1.26-.17-2.21.47s-1.52,1.49-1.26,1.88c.26.39,1.26.18,2.21-.46Z"/>
          <path class="cls-12" d="m97.97,57.95l.31.21c-3.23,4.74-5.86,9.51-6.44,13.13-1.08-9.61-2.33-19.33-1.94-26.37,1.53,0,3.42-.43,5.28-.99.54,3.4,1.93,13.09,2.79,14.02Z"/>
          <path class="cls-9" d="m92.63,133.55l-.05.14-2.95,9.04-5.1,15.57-8.27-4.03,5.9-11.1,4.89-9.21,8.15-4.66c.8.47,1.74,1.01,2.78,1.6-2.1-.15-4.7.64-5.34,2.64Z"/>
          <path class="cls-10" d="m95.19,129.31l-8.15,4.66-2.51,1.44c-2.24-2.24-2.04-17.69-2.03-18.18,2.41,3.88,7.27,8.78,11.64,11.45.32.19.67.4,1.05.63Z"/>
          <path class="cls-9" d="m93.09,136.9c.6,1.25,1.96,2.55,3.69,3.78-2.51,2.08-6.95,2.11-6.95,2.11l-.2-.06,2.95-9.04c-.23.86-.12,1.91.51,3.21Z"/>
          <path class="cls-10" d="m91.84,71.29s-.89,2.89-.69,5.16h0c-4.78-6.79-13.3-17.95-13.61-18.36.8-1.46,1.62-2.88,2.42-4.26,1.06-1.81,2.1-3.55,3.13-5.18,1.11-1.77,2.2-3.4,3.25-4.86.84.52,1.63.88,2.33,1.02.37.07.78.11,1.23.11-.39,7.04.86,16.76,1.94,26.37Z"/>
          <path class="cls-9" d="m87.04,133.96l-4.89,9.21c-5.3.71-9.71-.38-9.71-.38.18-.26.34-.51.49-.77l3.14-1.79,4.92-2.82,3.54-2.01,2.51-1.44Z"/>
          <path class="cls-10" d="m85.18,99.95l.42.21c-.16.15-.32.31-.46.48-.37-.05-3.43-.45-10.16-.69-1.14-.05-2.52-.27-4.08-.65l.02-.09s-6.59-7.75-9.48-11.48c1.06-1.81,2.19-3.85,3.39-6.07l2.13,1.3s11.94,16.05,18.22,16.98Z"/>
          <path class="cls-7" d="m85.18,43c.39.3.78.56,1.16.79-1.05,1.46-2.14,3.09-3.25,4.86-13.27,3.12-26.52,20.94-30.87,27.02-1.26-1.35-2.35-2.33-3.02-2.51,2.94-6.82,13.64-24.29,35.98-30.16Z"/>
          <path class="cls-5" d="m84.82,16.15c.26.39-.3,1.23-1.26,1.88-.96.66-1.94.87-2.2.47s.29-1.23,1.25-1.89c.96-.65,1.95-.86,2.21-.46Z"/>
          <path class="cls-7" d="m84.53,135.4l-3.54,2.01c-2.01-2.89-2.79-20.52-2.09-23.17.78.06,1.53.07,2.21,0,.22.86.69,1.88,1.38,2.97h0c0,.49-.21,15.94,2.03,18.19Z"/>
          <path class="cls-10" d="m70.9,99.3c1.56.37,2.94.6,4.08.65,6.73.25,9.79.65,10.16.69-3,3.32-3.9,8.87-4.15,12.68,0,.28.05.59.13.92-.68.07-1.43.06-2.21,0-1.58-.13-3.31-.49-5.01-.97-2.88-.8-5.67-1.93-7.45-2.78-1.02-.58-2.38.44-2.97,1.13-.35.41-.96,1.46-1.7,2.84l-.33-.17c-17.22-11.43-23.1-26.24-26.6-35.88h0c4.88-2.33,12.58-5.73,14.36-5.25.67.17,1.76,1.16,3.02,2.51.56.6,1.15,1.28,1.75,2,.9,1.07,1.81,2.22,2.65,3.33,1.73,2.25,3.17,4.31,3.59,5.04.18.33.63.93,1.23,1.7,2.89,3.73,9.48,11.48,9.48,11.48l-.02.09Z"/>
          <path class="cls-7" d="m80.99,137.42l-4.92,2.82c-2.29-6.91-3.33-26.96-2.18-26.96,1.7.48,3.44.85,5.01.97-.7,2.65.07,20.28,2.09,23.17Z"/>
          <path class="cls-7" d="m83.09,48.65c-1.03,1.62-2.08,3.36-3.13,5.18-10.81,3.66-25.99,23.84-25.99,23.84-.6-.72-1.19-1.39-1.75-2,4.35-6.08,17.6-23.9,30.87-27.02Z"/>
          <path class="cls-7" d="m77.53,58.09c-.43.75-.85,1.5-1.27,2.27h0c-9,4.13-19.64,20.63-19.64,20.63-.84-1.1-1.75-2.26-2.65-3.33,0,0,15.18-20.17,25.99-23.84-.8,1.38-1.62,2.81-2.42,4.26Z"/>
          <path class="cls-5" d="m77.19,20.47c.26.39-.3,1.24-1.26,1.89s-1.95.86-2.21.46c-.26-.38.3-1.23,1.26-1.88s1.95-.86,2.21-.47Z"/>
          <path class="cls-7" d="m76.25,60.36h0c-.43.77-.86,1.55-1.28,2.32h0c-3.55,6.53-7.06,13.29-10.15,18.98-1.2,2.21-2.33,4.26-3.39,6.07-.6-.77-1.05-1.38-1.23-1.7-.42-.73-1.86-2.79-3.59-5.04,0,0,10.63-16.5,19.64-20.63Z"/>
          <path class="cls-7" d="m76.07,140.23l-3.14,1.79-3.26,1.86s-.1-1.59-.25-4.06c-.19-3.1-.46-7.56-.75-11.98-.4-6.28-.81-12.46-1.02-14.51-.16-1.68-.64-2.51-1.21-2.83,1.79.85,4.57,1.98,7.45,2.78-1.16,0-.11,20.05,2.18,26.96Z"/>
          <path class="cls-9" d="m69.67,143.88l3.26-1.86c-.15.26-.31.51-.49.77-3.63,5.4-11,9.92-11,9.92l-4.02-2.79,8.7-6.51c.96-.57,1.83-1.28,2.45-2.01.43-.51.73-1.05.85-1.59.15,2.47.25,4.06.25,4.06Z"/>
          <path class="cls-11" d="m68.67,127.84c.28,4.42.56,8.88.75,11.98-.12.54-.42,1.08-.85,1.59-2.03,0-13.25-10.51-13.25-10.51.12-.71.16-1.62.12-2.77,0,0,9.6.59,13.23-.28Z"/>
          <path class="cls-11" d="m67.65,113.32c.21,2.05.62,8.24,1.02,14.51-3.63.87-13.23.28-13.23.28-.04-.69-.1-1.49-.19-2.39.77-.72,1.49-1.69,2.17-2.95.77-1.44,1.59-3.02,2.38-4.55.7-1.37,1.38-2.68,1.97-3.77.75-1.38,1.36-2.43,1.7-2.84.59-.69,1.95-1.71,2.97-1.13.57.33,1.05,1.16,1.21,2.83Z"/>
          <path class="cls-11" d="m66.12,143.42c-1.64.99-3.51,1.63-4.68,1.57-2.33-.14-14.56-9.72-14.56-9.72.69-.07,1.47-.25,2.32-.54,3.41-1.03,5.59-.63,6.12-3.84,0,0,11.22,10.51,13.25,10.51-.62.74-1.49,1.44-2.45,2.01Z"/>
          <path class="cls-7" d="m61.44,114.29l.33.17c-.58,1.09-1.27,2.41-1.97,3.77-15.93-9.5-24.4-28.95-28.44-38.1.7-.37,1.96-.99,3.48-1.73h0c3.5,9.65,9.38,24.46,26.6,35.89Z"/>
          <path class="cls-7" d="m59.8,118.24c-.79,1.52-1.61,3.11-2.38,4.55-11.29-5.54-23.74-27.91-29.98-41.47,1.73-.38,3.17-.78,3.92-1.18,4.04,9.16,12.51,28.6,28.44,38.1Z"/>
          <path class="cls-7" d="m34.22,109.35c-4.24-6.82-14.57-23.03-18.06-26.14,2.43-.33,7.54-1.07,11.28-1.9,6.24,13.56,18.69,35.93,29.98,41.47-.67,1.26-1.4,2.23-2.17,2.95-1.87,1.79-3.96,2.1-6.05,1.55-1.44-.38-4.14-3.15-6.77-6.34-2.8-3.36-5.53-7.18-6.72-9.17-.31-.52-.83-1.36-1.49-2.42Z"/>
          <path class="cls-11" d="m55.44,128.12c.05,1.15,0,2.06-.12,2.77-.54,3.21-2.72,2.81-6.12,3.84-.86.29-1.63.46-2.32.54-7.54.81-5.49-10.08-4.45-14.32,2.63,3.19,5.33,5.96,6.77,6.34,2.09.55,4.18.24,6.05-1.55.09.9.15,1.69.19,2.39Z"/>
          <path class="cls-11" d="m34.22,109.35c-.72.5-5.67,3.9-7.83,4.89-2.32,1.08-3.56,2.81-5.27,0s-7.13-26.04-6.36-30.85c0,0,.53-.06,1.39-.18,3.49,3.11,13.82,19.32,18.06,26.14Z"/>
        </g>
        <g>
          <path class="cls-3" d="m72.32,17.63c-.35,2.56,2.04,11.48,3.67,14.86,1.22,2.52,5.44,7.73,9.19,10.51.39.3.78.56,1.16.79.84.52,1.63.88,2.33,1.02.37.07.78.11,1.23.11,1.53,0,3.42-.43,5.28-.99,3.47-1.06,6.85-2.61,7.67-2.95"/>
          <path class="cls-3" d="m87.57,12.33c-2.75-.38-5.49-.5-6.93-.54-.67-.02-1.32.21-1.83.63-3.06,2.54-5.16,4.77-6.34,5.13-.05.03-.1.05-.15.07-.97.44-2.65.81-2.65-1.62,0-2.56,2.49-7.83,5.05-9.46,2.55-1.63,9.87-3.86,14.82-2.15,4.97,1.7,24.17,14.56,34.26,24.79,4.68,4.75,7.83,9.77,9.88,13.93.32.62.6,1.22.86,1.8.63,1.39,1.12,2.65,1.51,3.73.68,1.93,1.03,3.27,1.13,3.73-3.77-3.65-8.61-8.08-13.78-12.64-1.76-1.57-3.56-3.13-5.38-4.69-13.15-11.37-26.75-22.19-29.47-22.57-.33-.05-.66-.1-.98-.15Z"/>
          <line class="cls-3" x1="76.42" y1="29.74" x2="78.98" y2="28.26"/>
          <path class="cls-3" d="m85.18,25.78s2.86-1.56,3.8-1.71"/>
          <path class="cls-3" d="m80.99,27.18s.62,7.36.7,8.06c.07.69,2.32-.46,2.32-.46,1.39-.7.85-.93,1.17-1.63"/>
          <line class="cls-3" x1="86.34" y1="38.65" x2="88.98" y2="37.72"/>
          <path class="cls-3" d="m84.82,16.15c.26.39-.3,1.23-1.26,1.88-.96.66-1.94.87-2.2.47s.29-1.23,1.25-1.89c.96-.65,1.95-.86,2.21-.46Z"/>
          <path class="cls-3" d="m77.19,20.47c.26.39-.3,1.24-1.26,1.89s-1.95.86-2.21.46c-.26-.38.3-1.23,1.26-1.88s1.95-.86,2.21-.47Z"/>
          <path class="cls-3" d="m95.19,43.93c.54,3.4,1.93,13.09,2.79,14.02"/>
          <path class="cls-3" d="m89.9,44.93c-.39,7.04.86,16.76,1.94,26.37.58-3.62,3.21-8.39,6.44-13.13,6.33-9.28,14.96-18.43,14.96-18.43l3.21-3.15,1.57-1.53h0"/>
          <path class="cls-3" d="m94.14,80.99c5.35-13.03,14.82-26.51,17.9-29.54,2.75-2.7,7.07-7.58,9.69-10.2.7-.69,1.28-1.23,1.67-1.51,0,0,0,0,0,0"/>
          <path class="cls-3" d="m74.98,62.69c-3.55,6.52-7.06,13.28-10.15,18.97-1.2,2.21-2.33,4.26-3.39,6.07"/>
          <path class="cls-3" d="m86.34,43.8c-1.05,1.46-2.14,3.09-3.25,4.86-1.03,1.62-2.08,3.36-3.13,5.18-.8,1.38-1.62,2.81-2.42,4.26-.43.75-.85,1.5-1.27,2.27-.43.77-.86,1.55-1.28,2.32"/>
          <path class="cls-3" d="m70.91,99.21s-6.59-7.75-9.48-11.48c-.6-.77-1.05-1.38-1.23-1.7-.42-.73-1.86-2.79-3.59-5.04-.84-1.1-1.75-2.26-2.65-3.33-.6-.72-1.19-1.39-1.75-2-1.26-1.35-2.35-2.33-3.02-2.51-1.78-.48-9.48,2.92-14.36,5.24-1.52.74-2.78,1.36-3.48,1.73-.75.4-2.19.8-3.92,1.18-3.74.83-8.85,1.57-11.28,1.9-.87.12-1.39.18-1.39.18-.77,4.81,4.66,28.04,6.36,30.85s2.94,1.08,5.27,0c2.16-.99,7.11-4.39,7.83-4.89.06-.05.09-.06.09-.06"/>
          <path class="cls-3" d="m49.2,73.16c2.94-6.82,13.64-24.29,35.98-30.16"/>
          <path class="cls-3" d="m52.22,75.67c4.35-6.08,17.6-23.9,30.87-27.02"/>
          <path class="cls-3" d="m53.97,77.66s15.18-20.17,25.99-23.84"/>
          <path class="cls-3" d="m56.62,80.99s10.63-16.5,19.64-20.63"/>
          <path class="cls-3" d="m77.52,58.08h0c.31.42,8.83,11.58,13.61,18.37,1.45,2.05,2.56,3.7,3,4.54l2.44,6.05s11.4-16.05,16.28-19.77c4.88-3.73,17.09-13.38,20.82-13.44"/>
          <path class="cls-3" d="m91.84,71.29s-.89,2.89-.69,5.16"/>
          <path class="cls-3" d="m74.98,62.68h0c.4.56,15.23,21.08,18.11,28.43,1.39.12,4.88.46,4.88.46,6.62-8.03,26.86-31.89,39.2-33.62"/>
          <path class="cls-3" d="m66.96,82.97s11.94,16.05,18.22,16.98"/>
          <path class="cls-3" d="m44.82,88.43c4.79,2.84,17.79,8.87,26.08,10.87,1.56.37,2.94.6,4.08.65,6.73.25,9.79.65,10.16.69.03,0,.05,0,.05,0"/>
          <path class="cls-3" d="m126.6,140.69c-3.32,1.09-5.85,1.88-6.69,2.1"/>
          <path class="cls-3" d="m141.3,124.7c.8.67,1.65,1.49,2.41,2.4.78.95,1.46,2,1.87,3.08.41,1.09.56,2.21.25,3.31-3.41,1.53-7.64,3.14-11.7,4.6-1.47.53-2.92,1.03-4.28,1.5-1.14.38-2.22.76-3.23,1.08"/>
          <path class="cls-3" d="m138.3,122.91c.44,0,1.65.68,2.99,1.79"/>
          <path class="cls-3" d="m118.03,141.8c1.18.62,1.89.99,1.89.99,5.4-6.33,17.09-19.62,18.32-19.87"/>
          <path class="cls-3" d="m97.97,130.91c2.38,1.34,5.25,2.92,8.13,4.49,1.11.6,2.21,1.19,3.29,1.78,1.21.65,2.38,1.28,3.48,1.87,2.09,1.11,3.9,2.08,5.16,2.74"/>
          <path class="cls-3" d="m82.49,117.22c2.41,3.88,7.27,8.78,11.64,11.45.32.19.67.4,1.05.63.8.47,1.74,1.01,2.78,1.6"/>
          <path class="cls-3" d="m166.14,106.19c-5.16.16-9.86.22-14.13.19-25.53-.17-36.14-3.46-41.41-5.73-1.31-.56-2.29-1.07-3.08-1.44-4.54-2.13-10.82-2.51-17.69-1.24-1.71.32-3.1,1.1-4.23,2.19-.16.15-.32.31-.46.48-3,3.32-3.9,8.87-4.15,12.68,0,.28.05.59.13.92.22.86.69,1.88,1.38,2.97"/>
          <path class="cls-3" d="m99.44,114.72s9.91,6.07,23.23,8.05c1.1.17,2.22.31,3.37.41,1.39.13,2.82.2,4.26.21.32,0,.64,0,.97,0,2.07-.02,4.41-.18,6.96-.48.02,0,.04,0,.06,0,17.21-2.07,44.2-10.39,64.44-21.07"/>
          <path class="cls-3" d="m145.82,133.49c2.91,1.66,7.79,2.46,11.96,1.9,1.28-.16,2.51-.46,3.58-.9,1.67-.68,6.68-2.73,12.56-5.11,10.14-4.1,22.85-9.19,25.36-10,3.95-1.28,10.12-2.44,11.52-3.14.62-.31.91-1,.87-1.99-.03-1.24-.59-2.92-1.69-4.87-.12-.21-.27-.45-.46-.7-.66-.93-1.69-2.13-2.94-3.45-.52-.55-1.08-1.12-1.67-1.71-.06-.06-.14-.14-.21-.19-.56-.57-1.15-1.14-1.75-1.69-3.54-3.35-7.42-6.56-9.26-7.48s-5.13-1.16-9.07-1.04c-3.61.12-7.74.54-11.75,1.04-8.37,1.05-14.42,1.74-17.1,1.98-1.12.1-1.85.3-2.43.08-.66-.25-1.13-1.02-1.79-3.1-.15-.45-.29-.95-.46-1.52-.33-1.14-.93-3.2-1.73-5.8-.49-1.63-1.06-3.47-1.67-5.43-.72-2.28-1.5-4.71-2.31-7.18-1.12-3.41-2.31-6.86-3.46-9.99-.82-2.24-1.62-4.31-2.38-6.08-.88-2.07-1.69-3.72-2.37-4.72"/>
          <path class="cls-3" d="m153.34,96.2s-1.48,5.46-1.32,7.83"/>
          <path class="cls-3" d="m99.44,97.31c5.28-4.77,22.34-12.83,25.59-13.14"/>
          <path class="cls-3" d="m110.59,100.65h0c.58-.14,25.05-5.93,30.26-5.31"/>
          <path class="cls-3" d="m92.58,133.69c-.23.86-.12,1.91.51,3.21.6,1.25,1.96,2.55,3.69,3.78,4.51,3.22,11.58,6.01,14.61,6.46,4.19.62,7.75,0,7.75,0"/>
          <path class="cls-3" d="m97.97,130.91h0c-2.1-.15-4.7.64-5.34,2.64"/>
          <polyline class="cls-3" points="118.03 141.79 118.03 141.8 119.56 147.01 120.69 150.85 131.28 149.93 126.6 140.69 126.6 140.68"/>
          <polyline class="cls-3" points="131.28 149.93 136.67 148.53 129.84 139.59"/>
          <polyline class="cls-3" points="136.67 148.53 144.27 147.41 134.12 138.09"/>
          <path class="cls-3" d="m144.27,147.41c1.16-.2,2.79-.81,4.6-1.64,5.61-2.56,12.96-7.23,13.31-8.41-2.95-1.24-4.4-1.96-4.4-1.96"/>
          <path class="cls-3" d="m179.92,140.57c-1.66-.27-3.12-.52-4.43-.75-.55-.09-1.07-.17-1.57-.26-4.53-.77-7.38-1.29-11.74-2.2"/>
          <path class="cls-3" d="m148.87,145.77s8.44.82,18.01-.79c4.55-.76,9.35-2.07,13.61-4.27.02,0,.05-.02.06-.03-.2-.04-.4-.06-.59-.1"/>
          <path class="cls-3" d="m175.49,139.82c5.33-2.09,11.12-4.94,16.44-8.02,1.81-1.05,3.58-2.11,5.25-3.2.91-.58,1.8-1.18,2.65-1.76,1.05-.72,2.05-1.44,2.98-2.14,4.33-3.26,7.35-6.31,7.99-8.47"/>
          <path class="cls-3" d="m166.88,144.99c6.54,1.84,32.97,4.03,38.8.78"/>
          <path class="cls-3" d="m179.92,140.57s.02,0,.05,0c.08.02.26.06.53.13,2.84.67,15.52,3.48,22.24,2.61"/>
          <path class="cls-3" d="m191.93,131.8s5.99,6.1,11.08,11.23c.94.95,1.86,1.87,2.7,2.71,2.27,2.26,3.99,3.95,4.32,4.18,1.08.77,4.49,2.94,6.2.93.19-.23.67-.74,1.34-1.46.77-.82,1.81-1.91,3.03-3.19,2.67-2.79,6.19-6.42,9.5-9.85,5.4-5.58,10.31-10.62,10.31-10.62"/>
          <path class="cls-3" d="m211.69,114.24l15.42,5.85,4.84,1.83,3.46,1.31,5.21,1.99,1.36.51c.46,1.1.85,2.2,1.17,3.26.35,1.16.62,2.28.86,3.33.33,1.52.57,2.9.81,4.03.2.98.4,1.79.66,2.35.49,1.09,2.28,2.24,4.44,2.61.33.05.67.09,1,.1,1.68.09,3.48-.33,5.03-1.6,2.08-1.7,6.18-4.87,9.6-7.49,3.09-2.37,5.63-4.3,5.63-4.3"/>
          <path class="cls-3" d="m230.11,136.36s6.63,5.37,16.05,5.47c1,.02,2.04-.04,3.11-.16.26-.02.53-.05.8-.1.27-.04.55-.08.83-.14h.03"/>
          <path class="cls-3" d="m217.57,149.4c3.23,1.03,19.86,4.97,31.7-7.73"/>
          <path class="cls-3" d="m271.16,119.37c-.32-.25-.66-.49-1.01-.74-1.1-.77-2.39-1.59-3.83-2.4-1.03-.59-2.15-1.18-3.34-1.78-3.8-1.87-8.41-3.74-13.71-5.38-11.78-3.67-27-6.29-44.35-5.58"/>
          <path class="cls-3" d="m249.89,141.31s0,0,0,.02c.05.08.1.15.17.24,2.2,2.54,15.46,3.57,21.09.11v-22.26"/>
          <path class="cls-3" d="m243.14,129c3.71-1.74,15.84-9.9,19.84-14.53"/>
          <path class="cls-3" d="m243.99,132.33h0c4.64-1.93,20.5-11.55,22.33-16.09h0"/>
          <path class="cls-3" d="m244.81,136.36c5.54-3.02,22.33-12.53,25.35-17.72h0"/>
          <path class="cls-3" d="m220.61,146.21c7.29.73,22.35-1.07,25.56-4.38"/>
          <path class="cls-3" d="m265.53,132.33s2.72,8.84,5.63,9.34"/>
          <path class="cls-3" d="m249.27,109.08s18.61,3.56,21.89,5.17v5.17"/>
          <path class="cls-3" d="m184.63,93.1c18.26-1.99,71.11-7.67,86.53-1.87"/>
          <path class="cls-3" d="m151.55,93.1c30.4-11.06,39.48-19.73,119.61-22.67"/>
          <path class="cls-3" d="m149.53,85.73c28.27-11.78,93.46-33.89,121.64-32.76v61.28"/>
          <path class="cls-3" d="m147.7,80.34s49.68-22.69,88.23-32c.71-.17,1.42-.34,2.12-.49,5.8-1.35,11.32-2.36,16.34-2.92-.36-4.24-1.69-8.84-4.56-8.79-.91,0-1.97.49-3.2,1.59-5.12,4.57-8.58,10.12-8.58,10.12"/>
          <path class="cls-3" d="m145.38,73.16c21.38-11.95,53.01-26.52,69.29-26.52"/>
          <path class="cls-3" d="m141.93,63.18c8.79-6.57,35.6-25.31,53.17-33.49,5.08-2.36,9.39-3.85,12.28-3.9.97,3,2,6.04,2.96,8.84,2.32,6.7,4.33,12.02,4.33,12.02,3.57-4.04,11.64-12.87,14.42-14.11.92-.41,1.76-.9,2.49-1.25,1.49-.71,2.52-.83,2.94,1.56.15.87.31,2.23.47,3.81.47,4.87.92,11.7.92,11.7"/>
          <path class="cls-3" d="m249.83,36.13c-9.36,0-14.57.48-14.82.51h0"/>
          <path class="cls-3" d="m210.35,34.62s11.2-2.53,16.74-2.36c.81.03,1.5.11,2.01.26"/>
          <path class="cls-3" d="m192.16,22.31c.28.27.54.62.78,1,.8,1.3,1.38,3.1,1.73,4.46.28,1.1.43,1.91.43,1.91"/>
          <path class="cls-3" d="m136.04,48.65c20.09-11.4,51.03-26.32,54.29-27.01.61-.13,1.16.08,1.65.49"/>
          <path class="cls-3" d="m219.87,21.61c3.24,4.66,7.22,10.65,7.22,10.65"/>
          <path class="cls-3" d="m194.67,27.77c6.04-8.43,10.7-10.6,12.87-12.3.74-.57,1.71-.96,2.81-1.06,2.14-.22,4.7.65,6.66,3.22.75.98,1.76,2.41,2.85,3.98"/>
          <path class="cls-3" d="m219.86,21.61h0c4.13-1.18,9.39.21,11.72,9.67"/>
          <path class="cls-3" d="m134.53,44.93c10.27-5.28,39.28-20.8,46.26-24.5.8-.43,1.31-.69,1.48-.77,1.51-.76,7.12,0,9.71,2.49.06.05.13.11.18.17"/>
          <path class="cls-3" d="m133.68,43.12s37.57-21.92,39.28-22.7c1.7-.77,5.73-1.55,7.83,0"/>
          <path class="cls-3" d="m123.8,29.19c26.83-7.53,57.38-21.32,60.02-21.95,2.63-.62,6.65-2.84,10.08,7.13,0,0,8.87-1.65,16.46.03"/>
          <path class="cls-3" d="m193.89,14.37c.15,3.57-.95,8.94-.95,8.94"/>
          <path class="cls-3" d="m254.38,44.93c5.82,1,11.38,3.97,16.78,8.04"/>
          <path class="cls-3" d="m78.98,80.34s4.14,15.08,4.11,16.97"/>
          <path class="cls-3" d="m16.16,83.21c3.49,3.11,13.82,19.32,18.06,26.14.66,1.07,1.18,1.9,1.49,2.42,1.19,1.99,3.93,5.8,6.72,9.17,2.63,3.19,5.33,5.96,6.77,6.34,2.09.55,4.18.24,6.05-1.55.77-.72,1.49-1.69,2.17-2.95.77-1.44,1.59-3.02,2.38-4.55.7-1.37,1.38-2.68,1.97-3.77.75-1.38,1.36-2.43,1.7-2.84.59-.69,1.95-1.71,2.97-1.13.57.33,1.05,1.16,1.21,2.83.21,2.05.62,8.24,1.02,14.51.28,4.42.56,8.88.75,11.98.15,2.47.25,4.06.25,4.06l3.26-1.86,3.14-1.79,4.92-2.82,3.54-2.01,2.51-1.44,8.15-4.66"/>
          <path class="cls-3" d="m66.44,110.49c1.79.85,4.57,1.98,7.45,2.78,1.7.48,3.44.85,5.01.97.78.06,1.53.07,2.21,0"/>
          <path class="cls-3" d="m34.84,78.41c3.5,9.64,9.38,24.45,26.6,35.88"/>
          <path class="cls-3" d="m31.36,80.13c4.04,9.16,12.51,28.6,28.44,38.1"/>
          <path class="cls-3" d="m27.44,81.32c6.24,13.56,18.69,35.93,29.98,41.47"/>
          <path class="cls-3" d="m42.43,120.94c-1.04,4.25-3.09,15.13,4.45,14.32.69-.07,1.47-.25,2.32-.54,3.41-1.03,5.59-.63,6.12-3.84.12-.71.16-1.62.12-2.77-.04-.69-.1-1.49-.19-2.39"/>
          <path class="cls-3" d="m46.88,135.26s12.23,9.59,14.56,9.72c1.18.06,3.04-.57,4.68-1.57.96-.57,1.83-1.28,2.45-2.01.43-.51.73-1.05.85-1.59"/>
          <path class="cls-3" d="m55.32,130.89s11.22,10.51,13.25,10.51"/>
          <path class="cls-3" d="m55.44,128.12s9.6.59,13.23-.28"/>
          <path class="cls-3" d="m73.89,113.27c-1.16,0-.11,20.05,2.18,26.96"/>
          <path class="cls-3" d="m78.9,114.24c-.7,2.65.07,20.28,2.09,23.17"/>
          <path class="cls-3" d="m82.49,117.22h0c0,.49-.21,15.94,2.03,18.19"/>
          <path class="cls-3" d="m66.96,142.79l-.84.63-8.7,6.51,4.02,2.79s7.37-4.52,11-9.92c.18-.26.34-.51.49-.77"/>
          <path class="cls-3" d="m72.44,142.79s4.41,1.09,9.71.38"/>
          <polyline class="cls-3" points="87.04 133.96 82.15 143.17 76.25 154.27 84.53 158.3 89.63 142.73 92.58 133.69 92.63 133.55 92.68 133.39"/>
          <path class="cls-3" d="m89.83,142.79s4.45-.04,6.95-2.11"/>
          <path class="cls-3" d="m112.87,139.05c3.71-3.04,14.3-12.19,17.44-15.64"/>
          <path class="cls-3" d="m109.39,137.18c2.94-2.51,14.5-10.7,16.66-13.99"/>
          <path class="cls-3" d="m106.1,135.4c4.78-3.35,12.55-8.8,16.57-12.62"/>
          <path class="cls-3" d="m143.71,127.1c9.52-1.33,29.36-.56,62.88-21.89"/>
          <path class="cls-3" d="m145.57,130.18c8.54,0,20.56.71,63.95-21.51"/>
          <path class="cls-3" d="m141.29,124.7h0c.51-.02,19.22-.67,44.98-11.61,18.43-7.83,18.71-9.35,18.29-9.65-.09-.05-.21-.06-.21-.06"/>
          <path class="cls-3" d="m87.57,12.33c4.93,4.51,19.78,16.45,28.88,24.25,2.15,1.84,3.97,3.44,5.28,4.67,1.11,1.04,1.84,1.8,2.07,2.2"/>
          <polyline class="cls-3" points="202.81 124.7 210.8 132.33 227.1 120.09"/>
          <polyline class="cls-3" points="199.83 126.85 210.35 137.75 231.94 121.93"/>
          <polyline class="cls-3" points="197.18 128.6 210.8 143.47 235.4 123.24"/>
          <line class="cls-3" x1="173.93" y1="129.39" x2="173.93" y2="139.56"/>
        </g>
      </g>
    </g>
  </g>
</svg>