<svg xmlns="http://www.w3.org/2000/svg" viewBox="0 0 270.4 185.68"><defs><clipPath id="clippath"><path d="M4.78 0h265.37v163.46H4.78z" style="stroke-width:0;fill:none"/></clipPath><style>.cls-1{stroke-miterlimit:10}.cls-1,.cls-3{fill:none;stroke:#000}.cls-4{fill:#f3edd7}.cls-10,.cls-11,.cls-12,.cls-13,.cls-4,.cls-5,.cls-7,.cls-8,.cls-9{stroke-width:0}.cls-3{stroke-linecap:round;stroke-linejoin:round}.cls-5{fill:#333}.cls-7{fill:#dad47e}.cls-8{fill:#ffecca}.cls-9{fill:#ffffec}.cls-10{fill:#c298bc}.cls-11{fill:#ff3e34}.cls-12{fill:#fdfdd9}.cls-13{fill:#ebd9a7}</style></defs><g id="_畳" data-name="畳"><path d="M.24 151.03h3.62v5.03H.24zm269.91 27.58v6.57H239.7l15.35-8.63c1.03 1.62 3.11 2.72 5.51 2.72s4.62-1.18 5.62-2.88l3.97 2.23Zm0-10.56v10.56l-3.97-2.23c.38-.65.59-1.38.59-2.14 0-1.3-.62-2.48-1.62-3.38l4.99-2.8Zm0-11.99v11.99l-4.99 2.8c-1.14-1.01-2.77-1.64-4.59-1.64s-3.31.58-4.44 1.51l-26.1-14.67h40.12Zm0-78.86v5.77H.24V77.2h269.91z" class="cls-4"/><path d="M266.16 151.03h3.99v5.03h-3.99zm.62 23.2c0 .76-.21 1.49-.59 2.14l-5.42-3.05 4.39-2.47c1 .89 1.62 2.08 1.62 3.38Zm-6.01-.9 5.42 3.05c-1 1.7-3.13 2.88-5.62 2.88s-4.48-1.1-5.51-2.72l5.71-3.21Z" class="cls-4"/><path d="M254.85 151.03h11.31v5.03h-11.31z" class="cls-5"/><path d="m265.16 170.86-4.39 2.47-4.64-2.61c1.13-.93 2.7-1.51 4.44-1.51 1.82 0 3.46.63 4.59 1.64Z" class="cls-4"/><path d="m260.77 173.33-5.71 3.21c-.44-.69-.69-1.48-.69-2.31 0-1.37.68-2.61 1.77-3.51l4.64 2.61Z" class="cls-4"/><path d="m230.03 156.06 26.1 14.67c-1.09.9-1.77 2.14-1.77 3.51 0 .83.25 1.62.69 2.31l-15.35 8.63h-41.48l-15.65-8.8c.38-.65.59-1.38.59-2.14 0-1.3-.62-2.48-1.62-3.37l26.34-14.81h22.15Zm-5.97 18.18c0-2.77-2.25-5.02-5.02-5.02s-5.03 2.25-5.03 5.02 2.25 5.03 5.03 5.03 5.02-2.25 5.02-5.03Z" class="cls-4"/><path d="M254.85 156.06h-30.52v-5.03h30.52v5.03z" class="cls-4"/><path d="M213.02 151.03h11.31v5.03h-11.31zm6.03 18.18c2.77 0 5.02 2.25 5.02 5.02s-2.25 5.03-5.02 5.03-5.03-2.25-5.03-5.03 2.25-5.02 5.03-5.02Z" class="cls-5"/><path d="m207.88 156.06-26.34 14.81c-1.14-1.02-2.77-1.65-4.59-1.65s-3.31.58-4.44 1.51l-26.1-14.67h61.47Zm-25.38 0v-5.03h30.52v5.03H182.5zm15.71 29.12h-42.13l15.35-8.63c1.03 1.62 3.12 2.72 5.51 2.72s4.62-1.18 5.62-2.88l15.65 8.8Z" class="cls-4"/><path d="M183.16 174.23c0 .76-.21 1.49-.59 2.14l-5.42-3.05 4.39-2.47c1 .89 1.62 2.07 1.62 3.37Zm-6.01-.9 5.42 3.05c-1 1.7-3.13 2.88-5.62 2.88s-4.48-1.1-5.51-2.72l5.71-3.21Z" class="cls-4"/><path d="M171.19 151.03h11.31v5.03h-11.31z" class="cls-5"/><path d="M176.95 169.21c1.82 0 3.46.63 4.59 1.65l-4.39 2.47-4.64-2.61c1.13-.93 2.7-1.51 4.44-1.51Z" class="cls-4"/><path d="m177.15 173.33-5.71 3.21c-.44-.69-.69-1.48-.69-2.31 0-1.37.68-2.61 1.77-3.51l4.64 2.61Z" class="cls-4"/><path d="m146.41 156.06 26.1 14.67c-1.09.9-1.77 2.14-1.77 3.51 0 .83.25 1.62.69 2.31l-15.35 8.63H114.6l-15.65-8.8c.38-.65.59-1.38.59-2.14 0-1.3-.62-2.48-1.62-3.37l26.34-14.81h22.15Zm-7.02 18.18c0-2.77-2.25-5.02-5.02-5.02s-5.03 2.25-5.03 5.02 2.25 5.03 5.03 5.03 5.02-2.25 5.02-5.03Z" class="cls-4"/><path d="M171.19 156.06h-30.52v-5.03h30.52v5.03z" class="cls-4"/><path d="M129.36 151.03h11.31v5.03h-11.31zm5.02 18.18c2.77 0 5.02 2.25 5.02 5.02s-2.25 5.03-5.02 5.03-5.03-2.25-5.03-5.03 2.25-5.02 5.03-5.02Z" class="cls-5"/><path d="m124.26 156.06-26.34 14.81c-1.14-1.02-2.77-1.65-4.59-1.65s-3.31.58-4.44 1.51l-26.1-14.67h61.47Zm5.1 0H98.83v-5.03h30.53v5.03zm-14.76 29.12H72.47l15.35-8.63c1.03 1.62 3.11 2.72 5.51 2.72s4.62-1.18 5.62-2.88l15.65 8.8Z" class="cls-4"/><path d="M99.54 174.23c0 .76-.21 1.49-.59 2.14l-5.42-3.05 4.39-2.47c1 .89 1.62 2.07 1.62 3.37Zm-6.01-.9 5.42 3.05c-1 1.7-3.13 2.88-5.62 2.88s-4.48-1.1-5.51-2.72l5.71-3.21Z" class="cls-4"/><path d="M87.53 151.03h11.31v5.03H87.53z" class="cls-5"/><path d="M93.33 169.21c1.82 0 3.46.63 4.59 1.65l-4.39 2.47-4.64-2.61c1.13-.93 2.7-1.51 4.44-1.51Z" class="cls-4"/><path d="m93.53 173.33-5.71 3.21c-.44-.69-.69-1.48-.69-2.31 0-1.37.68-2.61 1.77-3.51l4.64 2.61Z" class="cls-4"/><path d="m62.8 156.06 26.1 14.67c-1.09.9-1.77 2.14-1.77 3.51 0 .83.25 1.62.69 2.31l-15.35 8.63H30.79l-15.65-8.8c.38-.65.59-1.38.59-2.14 0-1.3-.62-2.48-1.62-3.37l26.34-14.81h22.34Zm-8.53 18.18c0-2.77-2.25-5.02-5.02-5.02s-5.03 2.25-5.03 5.02 2.25 5.03 5.03 5.03 5.02-2.25 5.02-5.03Z" class="cls-4"/><path d="M87.53 156.06H57v-5.03h30.53v5.03z" class="cls-4"/><path d="M45.7 151.03h11.31v5.03H45.7zm3.55 18.18c2.77 0 5.02 2.25 5.02 5.02s-2.25 5.03-5.02 5.03-5.03-2.25-5.03-5.03 2.25-5.02 5.03-5.02Z" class="cls-5"/><path d="M45.7 156.06H15.17v-5.03H45.7v5.03zm-14.91 29.12H.24v-6.52L4 176.55c1.03 1.62 3.12 2.72 5.51 2.72s4.62-1.18 5.62-2.88l15.65 8.8Zm-15.06-10.95c0 .76-.21 1.49-.59 2.14l-5.42-3.05 4.39-2.47c1 .89 1.62 2.07 1.62 3.37Z" class="cls-4"/><path d="M3.87 151.03h11.31v5.03H3.87z" class="cls-5"/><path d="m9.72 173.33 5.42 3.05c-1 1.7-3.13 2.88-5.62 2.88s-4.48-1.1-5.51-2.72l5.71-3.21Zm-.2-4.12c1.82 0 3.46.63 4.59 1.65l-4.39 2.47-4.64-2.61c1.13-.93 2.7-1.51 4.44-1.51Z" class="cls-4"/><path d="m9.72 173.33-5.71 3.21c-.44-.69-.69-1.48-.69-2.31 0-1.37.68-2.61 1.77-3.51l4.64 2.61Zm-9.48-5.32 4.84 2.72c-1.09.9-1.77 2.14-1.77 3.51 0 .83.25 1.62.69 2.31l-3.76 2.11v-10.65Z" class="cls-4"/><path d="M213.02 151.03H.24V82.97h269.91v68.06h-57.13z" style="fill:#d2d296;stroke-width:0"/><path d="M.24 156.06h40.21l-26.34 14.81c-1.14-1.02-2.77-1.65-4.59-1.65s-3.31.58-4.44 1.51l-4.84-2.72v-11.95Z" class="cls-4"/><path d="M270.15 185.18H.24m0-107.98h269.91M.24 82.97h269.91m-3.99 68.06h3.99m-45.82 0h30.52m-72.35 0h30.52m-72.35 0h30.52m-72.36 0h30.53m-72.36 0h30.53m-72.36 0H45.7m-45.46 0h3.63m262.29 5.03h3.99m-45.82 0h30.52m-72.35 0h30.52m-72.35 0h30.52m-72.36 0h30.53m-72.36 0h30.53m-72.36 0H45.7m-45.46 0h3.63m68.59 29.12 15.35-8.64 5.72-3.21 4.39-2.47 26.34-14.8" class="cls-1"/><path d="m114.6 185.18-15.65-8.8-5.42-3.05-4.64-2.6-26.09-14.67m76.6 18.17c0 2.78-2.25 5.03-5.02 5.03s-5.03-2.25-5.03-5.03 2.25-5.02 5.03-5.02 5.02 2.25 5.02 5.02Zm84.67 0c0 2.78-2.25 5.03-5.02 5.03s-5.03-2.25-5.03-5.03 2.25-5.02 5.03-5.02 5.02 2.25 5.02 5.02Z" class="cls-1"/><path d="M97.92 170.86c1 .89 1.62 2.07 1.62 3.37 0 .76-.21 1.49-.59 2.14-1 1.7-3.13 2.88-5.62 2.88s-4.48-1.1-5.51-2.72c-.44-.69-.69-1.48-.69-2.31 0-1.37.68-2.61 1.77-3.51 1.13-.93 2.7-1.51 4.44-1.51 1.82 0 3.46.63 4.59 1.65ZM.24 178.65l3.77-2.11 5.71-3.21 4.39-2.47 26.34-14.8" class="cls-1"/><path d="m30.79 185.18-15.65-8.8-5.42-3.05-4.64-2.6-4.84-2.72" class="cls-1"/><path d="M14.11 170.86c1 .89 1.62 2.07 1.62 3.37 0 .76-.21 1.49-.59 2.14-1 1.7-3.13 2.88-5.62 2.88s-4.48-1.1-5.51-2.72c-.44-.69-.69-1.48-.69-2.31 0-1.37.68-2.61 1.77-3.51 1.13-.93 2.7-1.51 4.44-1.51 1.82 0 3.46.63 4.59 1.65Zm141.97 14.32 15.35-8.64 5.72-3.21 4.39-2.47 26.34-14.8" class="cls-1"/><path d="m198.21 185.18-15.64-8.8-5.42-3.05-4.64-2.6-26.1-14.67" class="cls-1"/><path d="M181.54 170.86c1 .89 1.62 2.07 1.62 3.37 0 .76-.21 1.49-.59 2.14-1 1.7-3.13 2.88-5.62 2.88s-4.48-1.1-5.51-2.72c-.44-.69-.69-1.48-.69-2.31 0-1.37.68-2.61 1.77-3.51 1.13-.93 2.7-1.51 4.44-1.51 1.82 0 3.46.63 4.59 1.65Zm58.16 14.32 15.35-8.64 5.72-3.21 4.39-2.47 4.99-2.81" class="cls-1"/><path d="m270.15 178.61-3.97-2.23-5.41-3.05-4.64-2.6-26.1-14.67" class="cls-1"/><path d="M265.16 170.86c1 .89 1.62 2.08 1.62 3.38 0 .76-.21 1.49-.59 2.14-1 1.7-3.13 2.88-5.62 2.88s-4.48-1.1-5.51-2.72c-.44-.69-.69-1.48-.69-2.31 0-1.37.68-2.61 1.77-3.51 1.13-.93 2.7-1.51 4.44-1.51 1.82 0 3.46.63 4.59 1.64Zm-210.89 3.37c0 2.78-2.25 5.03-5.02 5.03s-5.03-2.25-5.03-5.03 2.25-5.02 5.03-5.02 5.02 2.25 5.02 5.02Zm-50.4-23.2h11.31v5.03H3.87zm41.83 0h11.31v5.03H45.7zm41.83 0h11.31v5.03H87.53zm41.83 0h11.31v5.03h-11.31zm41.83 0h11.31v5.03h-11.31zm41.83 0h11.31v5.03h-11.31zm41.83 0h11.31v5.03h-11.31z" class="cls-1"/></g><g id="_レイヤー_2" data-name="レイヤー 2" style="clip-path:url(#clippath)"><path d="M271.16 128.03v13.64c-2.91-.5-5.63-9.34-5.63-9.34 3.09-2.37 5.63-4.3 5.63-4.3Z" class="cls-11"/><path d="M250.9 141.42c-.34 0-.67-.05-1-.1-2.16-.37-3.95-1.52-4.44-2.61-.26-.56-.46-1.37-.66-2.35 5.54-3.02 22.33-12.53 25.35-17.72.36.25.69.49 1.01.74v8.66s-2.54 1.93-5.63 4.3c-3.43 2.61-7.53 5.79-9.6 7.49-1.55 1.28-3.35 1.69-5.03 1.6Z" class="cls-7"/><path d="M270.15 118.64c-1.1-.77-2.39-1.59-3.83-2.4-1.03-.59-2.15-1.18-3.34-1.78-3.8-1.87-8.41-3.74-13.71-5.38 0 0 18.61 3.56 21.89 5.17v5.13c-.32-.25-.66-.49-1.01-.74Z" class="cls-10"/><path d="M271.16 91.23v23.02c-3.28-1.6-21.89-5.17-21.89-5.17-11.78-3.67-27-6.29-44.35-5.58-.06-.06-.14-.14-.21-.19-.56-.57-1.15-1.14-1.75-1.69-3.54-3.35-7.42-6.56-9.26-7.48s-5.13-1.16-9.07-1.04c18.26-1.99 71.11-7.67 86.53-1.87Z" class="cls-12"/><path d="M271.16 70.43v20.8c-15.43-5.8-68.27-.12-86.53 1.87-3.61.12-7.74.54-11.75 1.04-8.37 1.05-14.42 1.74-17.1 1.98-1.12.1-1.85.3-2.43.08-.66-.25-1.13-1.02-1.79-3.1 30.4-11.06 39.48-19.73 119.61-22.67Z" class="cls-12"/><path d="M271.16 52.96v17.47c-80.13 2.94-89.21 11.61-119.61 22.67-.15-.45-.29-.95-.46-1.52-.33-1.14-.93-3.2-1.73-5.8l.16-.05c28.27-11.78 93.46-33.89 121.64-32.76Z" class="cls-12"/><path d="M271.16 52.96c-28.18-1.13-93.36 20.98-121.64 32.76l-.16.05c-.49-1.63-1.06-3.47-1.67-5.43 0 0 49.68-22.69 88.23-32 .71-.17 1.42-.34 2.12-.49 5.8-1.35 11.32-2.36 16.34-2.92 5.82 1 11.38 3.97 16.78 8.04Z" class="cls-12"/><path d="M265.53 132.33s2.72 8.84 5.63 9.34c-5.63 3.46-18.9 2.43-21.09-.11.27-.04.55-.08.83-.14 1.68.09 3.48-.33 5.03-1.6 2.08-1.7 6.18-4.87 9.6-7.49Z" class="cls-11"/><path d="M266.33 116.24c1.44.81 2.72 1.62 3.83 2.4-3.02 5.19-19.81 14.7-25.35 17.72-.24-1.13-.48-2.51-.81-4.03 4.64-1.93 20.5-11.55 22.33-16.09Z" class="cls-7"/><path d="M262.98 114.46c1.19.59 2.31 1.18 3.34 1.78-1.83 4.54-17.69 14.16-22.33 16.09-.24-1.06-.51-2.18-.86-3.33 3.71-1.74 15.84-9.9 19.84-14.53Z" class="cls-7"/><path d="M262.98 114.46c-4.01 4.63-16.14 12.79-19.84 14.53-.32-1.07-.7-2.16-1.17-3.26l-1.36-.51-5.21-1.99-3.46-1.31-4.84-1.83-15.42-5.85c-.03-1.24-.59-2.92-1.69-4.87-.12-.21-.27-.45-.46-.7-.66-.93-1.69-2.13-2.94-3.45-.52-.55-1.08-1.12-1.67-1.71 17.36-.71 32.57 1.9 44.35 5.58 5.3 1.65 9.91 3.52 13.71 5.38Z" class="cls-10"/><path d="M249.83 36.13c2.86-.05 4.2 4.56 4.56 8.79-5.02.56-10.53 1.58-16.34 2.92s3.46-5.56 8.58-10.13c1.23-1.09 2.29-1.58 3.2-1.59Z" class="cls-12"/><path d="M243.99 132.33c.33 1.52.57 2.9.81 4.03.2.98.4 1.79.66 2.35.49 1.09 2.28 2.24 4.44 2.61.05.08.1.15.17.24-.27.05-.54.08-.8.1-1.07.13-2.1.18-3.11.16-9.42-.1-16.05-5.47-16.05-5.47 5.4-5.58 10.31-10.62 10.31-10.62l.19-.51 1.36.51c.46 1.1.85 2.2 1.17 3.26.35 1.16.62 2.28.86 3.33Z" class="cls-11"/><path d="M249.27 141.66c-11.84 12.71-28.46 8.77-31.7 7.74.77-.82 1.81-1.91 3.03-3.19 7.29.73 22.35-1.07 25.56-4.38 1 .02 2.04-.04 3.11-.16Z" class="cls-11"/><path d="M249.83 36.13c-.91 0-1.97.49-3.2 1.59-5.12 4.57-8.58 10.12-8.58 10.12-.7.16-1.41.33-2.12.5 0 0-.45-6.83-.92-11.7.26-.03 5.47-.51 14.82-.51Z" class="cls-12"/><path d="m235.4 123.24 5.21 1.99-.19.51s-4.91 5.05-10.31 10.62c-3.32 3.43-6.83 7.06-9.5 9.85-1.22 1.28-2.26 2.37-3.03 3.19-.67.72-1.15 1.23-1.34 1.46-1.71 2.01-5.12-.15-6.2-.93-.33-.23-2.05-1.92-4.32-4.18-.84-.84-1.76-1.76-2.7-2.71a3603.77 3603.77 0 0 1-11.08-11.23c1.81-1.05 3.58-2.11 5.25-3.2l13.62 14.87 24.6-20.24Z" class="cls-7"/><path d="M235 36.64c.47 4.87.92 11.7.92 11.7-38.55 9.31-88.23 32-88.23 32-.72-2.28-1.5-4.71-2.31-7.18 21.38-11.95 53.01-26.52 69.29-26.52 3.57-4.04 11.64-12.87 14.42-14.11.92-.41 1.76-.9 2.49-1.25 1.49-.71 2.52-.83 2.94 1.56.15.87.31 2.23.47 3.81Z" class="cls-12"/><path d="m235.4 123.24-24.6 20.24-13.62-14.87c.91-.58 1.8-1.18 2.65-1.76l10.51 10.91 21.59-15.83 3.46 1.31Z" class="cls-7"/><path d="m231.94 121.93-21.59 15.83-10.51-10.91a83.44 83.44 0 0 0 2.98-2.14l7.99 7.63 16.3-12.24 4.84 1.83Z" class="cls-7"/><path d="M230.11 136.36s6.63 5.37 16.05 5.47c-3.21 3.32-18.27 5.11-25.56 4.38 2.67-2.79 6.19-6.42 9.5-9.85Zm1.47-105.08c-.73.35-1.57.84-2.49 1.25-.51-.15-1.2-.24-2.01-.26 0 0-3.97-6-7.22-10.65 4.13-1.18 9.39.21 11.72 9.67Z" class="cls-11"/><path d="M227.08 32.26c.81.03 1.5.11 2.01.26-2.79 1.24-10.85 10.08-14.42 14.11 0 0-2-5.32-4.33-12.02 0 0 11.2-2.53 16.74-2.36Z" class="cls-12"/><path d="m227.1 120.09-16.3 12.24-7.99-7.63c4.33-3.26 7.35-6.31 7.99-8.47.62-.31.91-1 .87-1.99l15.42 5.85Z" class="cls-10"/><path d="M227.08 32.26c-5.54-.17-16.74 2.36-16.74 2.36-.97-2.8-2-5.84-2.96-8.84-2.89.05-7.2 1.54-12.28 3.9 0 0-.15-.81-.43-1.91 6.04-8.43 10.7-10.6 12.87-12.3.74-.57 1.71-.96 2.81-1.06 2.14-.22 4.7.65 6.66 3.22.75.98 1.76 2.41 2.85 3.98 3.24 4.66 7.22 10.65 7.22 10.65Z" class="cls-11"/><path d="M210.35 34.62c2.32 6.7 4.33 12.02 4.33 12.02-16.28 0-47.92 14.58-69.29 26.52-1.12-3.41-2.31-6.86-3.46-9.99 8.79-6.57 35.6-25.31 53.17-33.49 5.08-2.36 9.39-3.85 12.28-3.9.97 3 2 6.04 2.96 8.84Z" class="cls-12"/><path d="M211.68 114.24c.04.98-.26 1.68-.87 1.99-1.39.7-7.56 1.86-11.52 3.14-2.51.81-15.22 5.9-25.36 10-5.89 2.38-10.9 4.43-12.56 5.11-1.08.44-2.3.74-3.58.9-4.17.56-9.06-.25-11.96-1.9.31-1.09.16-2.21-.25-3.31 8.54 0 20.56.71 63.95-21.51.18.26.34.49.46.7 1.1 1.95 1.67 3.64 1.69 4.87Z" class="cls-7"/><path d="M210.35 14.4c-1.09.11-2.07.49-2.81 1.07-2.17 1.7-6.82 3.87-12.87 12.3-.36-1.36-.93-3.15-1.73-4.46 0 0 1.1-5.37.95-8.94 0 0 8.87-1.65 16.46.03Z" class="cls-11"/><path d="M206.58 105.22c1.25 1.32 2.29 2.52 2.94 3.45-43.39 22.22-55.42 21.51-63.95 21.51-.41-1.08-1.08-2.13-1.87-3.08 9.52-1.33 29.36-.56 62.88-21.89Z" class="cls-7"/><path d="M199.28 119.37c3.95-1.28 10.12-2.44 11.52-3.14-.64 2.17-3.66 5.21-7.99 8.47-.93.7-1.93 1.42-2.98 2.14-.85.58-1.74 1.18-2.65 1.76a127.95 127.95 0 0 1-5.25 3.2c-5.32 3.08-11.11 5.93-16.44 8.02-.55-.09-1.07-.17-1.57-.26v-10.17c10.14-4.11 22.85-9.2 25.36-10.01Zm6.43 26.37-.03.03c-5.83 3.24-32.25 1.06-38.8-.78 4.55-.77 9.35-2.08 13.61-4.28 2.84.67 15.52 3.48 22.24 2.61l.27-.27c.94.95 1.86 1.87 2.7 2.71Z" class="cls-11"/><path d="M204.92 103.5c.58.59 1.15 1.17 1.67 1.71-33.52 21.32-53.36 20.56-62.88 21.89-.76-.91-1.6-1.73-2.41-2.4.51-.02 19.22-.67 44.98-11.61 18.43-7.83 18.71-9.35 18.29-9.65l.14-.14c.07.05.15.13.21.19Z" class="cls-7"/><path d="M204.57 103.45c.42.3.15 1.82-18.29 9.65-25.77 10.93-44.47 11.59-44.98 11.61-1.34-1.11-2.55-1.79-2.99-1.79 17.21-2.07 44.2-10.39 64.44-21.07l.22-.23c.6.56 1.18 1.12 1.75 1.69l-.14.14Z" class="cls-7"/><path d="m203.01 143.04-.27.27c-6.72.87-19.4-1.94-22.24-2.61.02 0 .05-.02.06-.03-.2-.04-.4-.06-.59-.1h-.05c-1.66-.27-3.12-.52-4.43-.75 5.33-2.09 11.12-4.94 16.44-8.02 0 0 5.99 6.1 11.08 11.23Z" class="cls-11"/><path d="M85.14 100.64a7 7 0 0 1 .46-.48c1.13-1.08 2.51-1.87 4.23-2.19 6.86-1.28 13.15-.89 17.69 1.24.79.37 1.77.87 3.08 1.44 5.27 2.27 15.88 5.56 41.41 5.73l.02-2.36c-.15-2.37 1.32-7.83 1.32-7.83.58.22 1.31.02 2.43-.08 2.68-.24 8.73-.93 17.1-1.98 4.01-.5 8.15-.92 11.75-1.04 3.94-.12 7.24.13 9.07 1.04s5.71 4.13 9.26 7.48l-.22.23c-20.24 10.68-47.22 19-64.44 21.07h-.06c-2.55.3-4.89.46-6.96.48h-.97c-1.45 0-2.87-.08-4.26-.21-1.15-.1-2.27-.24-3.37-.41-4.03 3.83-11.79 9.28-16.57 12.63-2.88-1.57-5.75-3.15-8.13-4.49-1.04-.59-1.98-1.13-2.78-1.6-.38-.23-.73-.44-1.05-.63-4.37-2.67-9.24-7.57-11.64-11.45-.68-1.1-1.16-2.12-1.38-2.98-.08-.33-.13-.64-.13-.92.25-3.82 1.15-9.37 4.15-12.68Zm109.53-72.87c.28 1.1.43 1.91.43 1.91-17.58 8.18-44.38 26.92-53.17 33.49-.82-2.24-1.62-4.31-2.38-6.08-.88-2.07-1.69-3.72-2.37-4.72-.1-.46-.45-1.79-1.13-3.73 20.09-11.4 51.03-26.32 54.29-27.01.61-.13 1.16.08 1.65.49.06.05.13.11.18.17.28.27.54.62.78 1 .8 1.3 1.38 3.1 1.73 4.46Z" class="cls-10"/><path d="M193.89 14.37c.15 3.57-.95 8.94-.95 8.94-.25-.38-.5-.73-.78-1-.05-.06-.12-.12-.18-.17-2.6-2.49-8.2-3.24-9.71-2.49-.16.08-.67.35-1.48.77-2.1-1.55-6.12-.77-7.83 0s-39.28 22.7-39.28 22.7c-2.05-4.16-5.19-9.18-9.88-13.93 26.83-7.53 57.38-21.32 60.02-21.95 2.63-.62 6.65-2.84 10.08 7.13Z" class="cls-11"/><path d="M191.98 22.14c-.49-.41-1.04-.62-1.65-.49-3.25.68-34.2 15.61-54.29 27.01-.39-1.08-.88-2.33-1.51-3.73 10.27-5.28 39.28-20.8 46.26-24.5.8-.43 1.31-.69 1.48-.77 1.51-.76 7.12 0 9.71 2.49Z" class="cls-10"/><path d="M179.97 140.58c.08.02.26.06.53.13-4.26 2.2-9.07 3.52-13.61 4.27-9.58 1.61-18.01.79-18.01.79 5.61-2.56 12.96-7.23 13.31-8.41 4.36.9 7.22 1.42 11.74 2.2.5.09 1.02.17 1.57.26 1.31.23 2.77.47 4.43.75h.05Z" class="cls-11"/><path d="M172.96 20.42c1.7-.77 5.73-1.55 7.83 0-6.98 3.7-35.99 19.23-46.26 24.5-.26-.58-.54-1.18-.86-1.8s37.57-21.92 39.28-22.7Z" class="cls-12"/><path d="M173.93 129.39v10.17c-4.53-.77-7.38-1.29-11.74-2.2-2.95-1.24-4.4-1.96-4.4-1.96 1.28-.17 2.51-.47 3.58-.91 1.67-.68 6.68-2.73 12.56-5.11Z" class="cls-11"/><path d="M157.78 135.4s1.45.72 4.4 1.96c-.36 1.18-7.7 5.85-13.31 8.41-1.81.83-3.44 1.44-4.6 1.64l-10.15-9.32c4.05-1.46 8.29-3.07 11.7-4.6 2.91 1.66 7.79 2.46 11.96 1.9Zm-47.19-34.75c-1.31-.56-2.29-1.07-3.08-1.44-4.54-2.13-10.82-2.51-17.69-1.24a8.13 8.13 0 0 0-4.23 2.19l-.42-.21c-6.29-.93-18.22-16.98-18.22-16.98l-2.13-1.3c3.09-5.69 6.6-12.45 10.15-18.97.4.55 15.23 21.07 18.11 28.42 1.39.12 4.88.46 4.88.46 6.62-8.03 26.86-31.89 39.2-33.62l2.37-.86c.76 1.77 1.56 3.84 2.38 6.08 1.16 3.13 2.34 6.58 3.46 9.99.81 2.47 1.59 4.9 2.31 7.18.61 1.96 1.18 3.8 1.67 5.43.8 2.61 1.4 4.67 1.73 5.8.16.57.31 1.08.46 1.52.67 2.08 1.14 2.85 1.79 3.1 0 0-1.48 5.46-1.32 7.83l-.02 2.36c-25.53-.17-36.14-3.46-41.41-5.73Z" class="cls-10"/><path d="M145.57 130.18c.41 1.09.56 2.21.25 3.31-3.41 1.53-7.64 3.14-11.7 4.6-1.47.53-2.92 1.03-4.28 1.5-1.14.38-2.22.76-3.23 1.08-3.32 1.1-5.85 1.89-6.69 2.11 5.4-6.33 17.09-19.62 18.32-19.87h.06c.44 0 1.65.68 2.99 1.79.8.67 1.65 1.49 2.41 2.4.78.95 1.46 2 1.87 3.08Z" class="cls-11"/><path d="m144.27 147.41-7.6 1.12-6.83-8.94c1.37-.47 2.82-.97 4.28-1.5l10.15 9.32Z" class="cls-13"/><path d="M94.14 80.99c5.35-13.03 14.82-26.51 17.9-29.54 2.75-2.7 7.07-7.58 9.69-10.2.7-.69 1.28-1.23 1.67-1.51 5.17 4.56 10 8.98 13.78 12.64.68 1 1.49 2.65 2.37 4.72l-2.37.86c-12.34 1.73-32.57 25.59-39.2 33.62 0 0-3.49-.35-4.88-.46-2.88-7.34-17.71-27.87-18.11-28.42.43-.78.86-1.57 1.28-2.33.42-.77.84-1.52 1.27-2.27.31.41 8.83 11.57 13.61 18.36 1.45 2.05 2.56 3.7 3 4.54Z" class="cls-10"/><path d="m129.84 139.59 6.83 8.94-5.39 1.39-4.67-9.24c1.01-.34 2.1-.71 3.23-1.09Z" class="cls-13"/><path d="M118.02 35.05c-13.15-11.37-26.75-22.19-29.47-22.57-.33-.05-.66-.1-.98-.15-2.75-.38-5.49-.5-6.93-.54-.67-.02-1.32.21-1.83.63-3.06 2.54-5.16 4.77-6.34 5.13-.05.03-.1.05-.15.07-.97.44-2.65.81-2.65-1.62 0-2.56 2.49-7.83 5.05-9.46 2.55-1.63 9.87-3.86 14.82-2.15 4.97 1.7 24.17 14.56 34.26 24.79 4.68 4.75 7.83 9.77 9.88 13.93.32.62.6 1.22.86 1.8.63 1.39 1.12 2.65 1.51 3.73.68 1.93 1.03 3.27 1.13 3.73-3.77-3.65-8.61-8.08-13.78-12.64-1.76-1.57-3.56-3.13-5.38-4.69Z" class="cls-5"/><path d="M131.28 123.4c2.07-.02 4.41-.18 6.96-.48-1.23.26-12.92 13.54-18.32 19.87 0 0-.7-.37-1.89-.99-1.26-.67-3.07-1.64-5.16-2.75 3.71-3.04 14.3-12.19 17.44-15.64h.97Z" class="cls-7"/><path d="m126.6 140.69 4.67 9.24-10.59.93-1.13-3.85-1.53-5.21c1.18.62 1.89.99 1.89.99.84-.23 3.37-1.01 6.69-2.1Z" class="cls-13"/><path d="M130.31 123.39c-3.14 3.46-13.73 12.61-17.44 15.65l-3.48-1.87c2.94-2.51 14.5-10.7 16.66-13.99 1.39.12 2.82.19 4.26.2Z" class="cls-7"/><path d="M126.05 123.18c-2.16 3.3-13.71 11.49-16.66 14-1.08-.58-2.18-1.18-3.29-1.78 4.78-3.35 12.55-8.8 16.57-12.62 1.1.16 2.22.3 3.37.4Z" class="cls-7"/><path d="M123.4 39.74c-.39.28-.97.82-1.67 1.51-1.3-1.23-3.13-2.83-5.28-4.67l1.57-1.53c1.81 1.56 3.62 3.13 5.38 4.69Z" class="cls-12"/><path d="m118.03 141.8 1.53 5.21-.42.13s-3.56.62-7.75 0c-3.02-.45-10.1-3.24-14.61-6.46-1.73-1.23-3.09-2.53-3.69-3.78-.63-1.29-.74-2.35-.51-3.21l.05-.14c.64-2 3.23-2.79 5.34-2.64 2.38 1.34 5.25 2.92 8.13 4.49 1.11.6 2.21 1.19 3.29 1.78l3.48 1.87c2.09 1.11 3.9 2.08 5.16 2.74Z" class="cls-11"/><path d="M121.73 41.25c-2.61 2.61-6.93 7.5-9.69 10.2-3.09 3.02-12.56 16.51-17.9 29.54-.44-.84-1.55-2.49-3-4.54-.2-2.27.69-5.16.69-5.16.58-3.62 3.21-8.39 6.44-13.13 6.33-9.28 14.96-18.43 14.96-18.43l3.21-3.15c2.15 1.84 3.97 3.44 5.28 4.67Z" class="cls-12"/><path d="m118.02 35.05-1.57 1.53c-9.1-7.8-23.95-19.74-28.88-24.25.33.05.66.09.98.15 2.72.38 16.32 11.2 29.47 22.57Z" class="cls-8"/><path d="M95.19 43.93c-1.87.56-3.75.98-5.28.99-.45 0-.86-.04-1.23-.11-.7-.14-1.49-.5-2.33-1.02-.37-.23-.77-.49-1.16-.79-3.75-2.79-7.97-7.99-9.19-10.51-1.63-3.38-4.02-12.3-3.67-14.86.05-.03.1-.05.15-.07 1.18-.36 3.28-2.59 6.34-5.13.51-.42 1.17-.65 1.83-.63 1.44.04 4.18.15 6.93.54 4.93 4.51 19.78 16.45 28.88 24.25l-3.21 3.15s-8.63 9.15-14.96 18.43l-.31-.21c-.86-.93-2.25-10.62-2.79-14.02Zm-11.63-25.9c.96-.65 1.52-1.49 1.26-1.88s-1.26-.18-2.21.46c-.96.66-1.51 1.49-1.25 1.89s1.25.18 2.2-.47Zm-7.63 4.33c.96-.65 1.52-1.49 1.26-1.89-.26-.38-1.26-.17-2.21.47s-1.52 1.49-1.26 1.88c.26.39 1.26.18 2.21-.46Z" class="cls-8"/><path d="m97.97 57.95.31.21c-3.23 4.74-5.86 9.51-6.44 13.13-1.08-9.61-2.33-19.33-1.94-26.37 1.53 0 3.42-.43 5.28-.99.54 3.4 1.93 13.09 2.79 14.02Z" class="cls-12"/><path d="m92.63 133.55-.05.14-2.95 9.04-5.1 15.57-8.27-4.03 5.9-11.1 4.89-9.21 8.15-4.66c.8.47 1.74 1.01 2.78 1.6-2.1-.15-4.7.64-5.34 2.64Z" class="cls-9"/><path d="m95.19 129.31-8.15 4.66-2.51 1.44c-2.24-2.24-2.04-17.69-2.03-18.18 2.41 3.88 7.27 8.78 11.64 11.45.32.19.67.4 1.05.63Z" class="cls-10"/><path d="M93.09 136.9c.6 1.25 1.96 2.55 3.69 3.78-2.51 2.08-6.95 2.11-6.95 2.11l-.2-.06 2.95-9.04c-.23.86-.12 1.91.51 3.21Z" class="cls-9"/><path d="M91.84 71.29s-.89 2.89-.69 5.16c-4.78-6.79-13.3-17.95-13.61-18.36.8-1.46 1.62-2.88 2.42-4.26 1.06-1.81 2.1-3.55 3.13-5.18 1.11-1.77 2.2-3.4 3.25-4.86.84.52 1.63.88 2.33 1.02.37.07.78.11 1.23.11-.39 7.04.86 16.76 1.94 26.37Z" class="cls-10"/><path d="m87.04 133.96-4.89 9.21c-5.3.71-9.71-.38-9.71-.38.18-.26.34-.51.49-.77l3.14-1.79 4.92-2.82 3.54-2.01 2.51-1.44Z" class="cls-9"/><path d="m85.18 99.95.42.21c-.16.15-.32.31-.46.48-.37-.05-3.43-.45-10.16-.69-1.14-.05-2.52-.27-4.08-.65l.02-.09s-6.59-7.75-9.48-11.48c1.06-1.81 2.19-3.85 3.39-6.07l2.13 1.3S78.9 99.01 85.18 99.94Z" class="cls-10"/><path d="M85.18 43c.39.3.78.56 1.16.79a92.945 92.945 0 0 0-3.25 4.86c-13.27 3.12-26.52 20.94-30.87 27.02-1.26-1.35-2.35-2.33-3.02-2.51C52.14 66.34 62.84 48.87 85.18 43Z" class="cls-7"/><path d="M84.82 16.15c.26.39-.3 1.23-1.26 1.88-.96.66-1.94.87-2.2.47s.29-1.23 1.25-1.89c.96-.65 1.95-.86 2.21-.46Z" class="cls-5"/><path d="m84.53 135.4-3.54 2.01c-2.01-2.89-2.79-20.52-2.09-23.17.78.06 1.53.07 2.21 0 .22.86.69 1.88 1.38 2.97 0 .49-.21 15.94 2.03 18.19Z" class="cls-7"/><path d="M70.9 99.3c1.56.37 2.94.6 4.08.65 6.73.25 9.79.65 10.16.69-3 3.32-3.9 8.87-4.15 12.68 0 .28.05.59.13.92-.68.07-1.43.06-2.21 0-1.58-.13-3.31-.49-5.01-.97-2.88-.8-5.67-1.93-7.45-2.78-1.02-.58-2.38.44-2.97 1.13-.35.41-.96 1.46-1.7 2.84l-.33-.17c-17.22-11.43-23.1-26.24-26.6-35.88 4.88-2.33 12.58-5.73 14.36-5.25.67.17 1.76 1.16 3.02 2.51.56.6 1.15 1.28 1.75 2 .9 1.07 1.81 2.22 2.65 3.33 1.73 2.25 3.17 4.31 3.59 5.04.18.33.63.93 1.23 1.7 2.89 3.73 9.48 11.48 9.48 11.48l-.02.09Z" class="cls-10"/><path d="m80.99 137.42-4.92 2.82c-2.29-6.91-3.33-26.96-2.18-26.96 1.7.48 3.44.85 5.01.97-.7 2.65.07 20.28 2.09 23.17Zm2.1-88.77a141.4 141.4 0 0 0-3.13 5.18c-10.81 3.66-25.99 23.84-25.99 23.84-.6-.72-1.19-1.39-1.75-2 4.35-6.08 17.6-23.9 30.87-27.02Z" class="cls-7"/><path d="M77.53 58.09c-.43.75-.85 1.5-1.27 2.27-9 4.13-19.64 20.63-19.64 20.63a92 92 0 0 0-2.65-3.33s15.18-20.17 25.99-23.84c-.8 1.38-1.62 2.81-2.42 4.26Z" class="cls-7"/><path d="M77.19 20.47c.26.39-.3 1.24-1.26 1.89s-1.95.86-2.21.46c-.26-.38.3-1.23 1.26-1.88s1.95-.86 2.21-.47Z" class="cls-5"/><path d="M76.25 60.36c-.43.77-.86 1.55-1.28 2.32-3.55 6.53-7.06 13.29-10.15 18.98-1.2 2.21-2.33 4.26-3.39 6.07-.6-.77-1.05-1.38-1.23-1.7-.42-.73-1.86-2.79-3.59-5.04 0 0 10.63-16.5 19.64-20.63Zm-.18 79.87-3.14 1.79-3.26 1.86s-.1-1.59-.25-4.06c-.19-3.1-.46-7.56-.75-11.98-.4-6.28-.81-12.46-1.02-14.51-.16-1.68-.64-2.51-1.21-2.83 1.79.85 4.57 1.98 7.45 2.78-1.16 0-.11 20.05 2.18 26.96Z" class="cls-7"/><path d="m69.67 143.88 3.26-1.86c-.15.26-.31.51-.49.77-3.63 5.4-11 9.92-11 9.92l-4.02-2.79 8.7-6.51c.96-.57 1.83-1.28 2.45-2.01.43-.51.73-1.05.85-1.59.15 2.47.25 4.06.25 4.06Z" class="cls-9"/><path d="M68.67 127.84c.28 4.42.56 8.88.75 11.98-.12.54-.42 1.08-.85 1.59-2.03 0-13.25-10.51-13.25-10.51.12-.71.16-1.62.12-2.77 0 0 9.6.59 13.23-.28Z" class="cls-11"/><path d="M67.65 113.32c.21 2.05.62 8.24 1.02 14.51-3.63.87-13.23.28-13.23.28-.04-.69-.1-1.49-.19-2.39.77-.72 1.49-1.69 2.17-2.95.77-1.44 1.59-3.02 2.38-4.55.7-1.37 1.38-2.68 1.97-3.77.75-1.38 1.36-2.43 1.7-2.84.59-.69 1.95-1.71 2.97-1.13.57.33 1.05 1.16 1.21 2.83Zm-1.53 30.1c-1.64.99-3.51 1.63-4.68 1.57-2.33-.14-14.56-9.72-14.56-9.72.69-.07 1.47-.25 2.32-.54 3.41-1.03 5.59-.63 6.12-3.84 0 0 11.22 10.51 13.25 10.51-.62.74-1.49 1.44-2.45 2.01Z" class="cls-11"/><path d="m61.44 114.29.33.17c-.58 1.09-1.27 2.41-1.97 3.77-15.93-9.5-24.4-28.95-28.44-38.1.7-.37 1.96-.99 3.48-1.73 3.5 9.65 9.38 24.46 26.6 35.89Z" class="cls-7"/><path d="M59.8 118.24c-.79 1.52-1.61 3.11-2.38 4.55-11.29-5.54-23.74-27.91-29.98-41.47 1.73-.38 3.17-.78 3.92-1.18 4.04 9.16 12.51 28.6 28.44 38.1Z" class="cls-7"/><path d="M34.22 109.35c-4.24-6.82-14.57-23.03-18.06-26.14 2.43-.33 7.54-1.07 11.28-1.9 6.24 13.56 18.69 35.93 29.98 41.47-.67 1.26-1.4 2.23-2.17 2.95-1.87 1.79-3.96 2.1-6.05 1.55-1.44-.38-4.14-3.15-6.77-6.34-2.8-3.36-5.53-7.18-6.72-9.17-.31-.52-.83-1.36-1.49-2.42Z" class="cls-7"/><path d="M55.44 128.12c.05 1.15 0 2.06-.12 2.77-.54 3.21-2.72 2.81-6.12 3.84-.86.29-1.63.46-2.32.54-7.54.81-5.49-10.08-4.45-14.32 2.63 3.19 5.33 5.96 6.77 6.34 2.09.55 4.18.24 6.05-1.55.09.9.15 1.69.19 2.39Zm-21.22-18.77c-.72.5-5.67 3.9-7.83 4.89-2.32 1.08-3.56 2.81-5.27 0s-7.13-26.04-6.36-30.85c0 0 .53-.06 1.39-.18 3.49 3.11 13.82 19.32 18.06 26.14Z" class="cls-11"/><path d="M72.32 17.63c-.35 2.56 2.04 11.48 3.67 14.86 1.22 2.52 5.44 7.73 9.19 10.51.39.3.78.56 1.16.79.84.52 1.63.88 2.33 1.02.37.07.78.11 1.23.11 1.53 0 3.42-.43 5.28-.99 3.47-1.06 6.85-2.61 7.67-2.95" class="cls-3"/><path d="M87.57 12.33c-2.75-.38-5.49-.5-6.93-.54-.67-.02-1.32.21-1.83.63-3.06 2.54-5.16 4.77-6.34 5.13-.05.03-.1.05-.15.07-.97.44-2.65.81-2.65-1.62 0-2.56 2.49-7.83 5.05-9.46 2.55-1.63 9.87-3.86 14.82-2.15 4.97 1.7 24.17 14.56 34.26 24.79 4.68 4.75 7.83 9.77 9.88 13.93.32.62.6 1.22.86 1.8.63 1.39 1.12 2.65 1.51 3.73.68 1.93 1.03 3.27 1.13 3.73-3.77-3.65-8.61-8.08-13.78-12.64-1.76-1.57-3.56-3.13-5.38-4.69-13.15-11.37-26.75-22.19-29.47-22.57-.33-.05-.66-.1-.98-.15ZM76.42 29.74l2.56-1.48" class="cls-3"/><path d="M85.18 25.78s2.86-1.56 3.8-1.71m-7.99 3.11s.62 7.36.7 8.06c.07.69 2.32-.46 2.32-.46 1.39-.7.85-.93 1.17-1.63m1.16 5.5 2.64-.93m-4.16-21.57c.26.39-.3 1.23-1.26 1.88-.96.66-1.94.87-2.2.47s.29-1.23 1.25-1.89c.96-.65 1.95-.86 2.21-.46Zm-7.63 4.32c.26.39-.3 1.24-1.26 1.89s-1.95.86-2.21.46c-.26-.38.3-1.23 1.26-1.88s1.95-.86 2.21-.47Zm18 23.46c.54 3.4 1.93 13.09 2.79 14.02" class="cls-3"/><path d="M89.9 44.93c-.39 7.04.86 16.76 1.94 26.37.58-3.62 3.21-8.39 6.44-13.13 6.33-9.28 14.96-18.43 14.96-18.43l3.21-3.15 1.57-1.53h0M94.14 80.99c5.35-13.03 14.82-26.51 17.9-29.54 2.75-2.7 7.07-7.58 9.69-10.2.7-.69 1.28-1.23 1.67-1.51 0 0 0 0 0 0M74.98 62.69c-3.55 6.52-7.06 13.28-10.15 18.97-1.2 2.21-2.33 4.26-3.39 6.07m24.9-43.93a92.945 92.945 0 0 0-3.25 4.86 141.4 141.4 0 0 0-3.13 5.18c-.8 1.38-1.62 2.81-2.42 4.26-.43.75-.85 1.5-1.27 2.27-.43.77-.86 1.55-1.28 2.32" class="cls-3"/><path d="M70.91 99.21s-6.59-7.75-9.48-11.48c-.6-.77-1.05-1.38-1.23-1.7-.42-.73-1.86-2.79-3.59-5.04a92 92 0 0 0-2.65-3.33c-.6-.72-1.19-1.39-1.75-2-1.26-1.35-2.35-2.33-3.02-2.51-1.78-.48-9.48 2.92-14.36 5.24-1.52.74-2.78 1.36-3.48 1.73-.75.4-2.19.8-3.92 1.18-3.74.83-8.85 1.57-11.28 1.9-.87.12-1.39.18-1.39.18-.77 4.81 4.66 28.04 6.36 30.85s2.94 1.08 5.27 0c2.16-.99 7.11-4.39 7.83-4.89.06-.05.09-.06.09-.06" class="cls-3"/><path d="M49.2 73.16C52.14 66.34 62.84 48.87 85.18 43" class="cls-3"/><path d="M52.22 75.67c4.35-6.08 17.6-23.9 30.87-27.02" class="cls-3"/><path d="M53.97 77.66s15.18-20.17 25.99-23.84M56.62 80.99s10.63-16.5 19.64-20.63m1.26-2.28h0c.31.42 8.83 11.58 13.61 18.37 1.45 2.05 2.56 3.7 3 4.54l2.44 6.05s11.4-16.05 16.28-19.77c4.88-3.73 17.09-13.38 20.82-13.44" class="cls-3"/><path d="M91.84 71.29s-.89 2.89-.69 5.16" class="cls-3"/><path d="M74.98 62.68h0c.4.56 15.23 21.08 18.11 28.43 1.39.12 4.88.46 4.88.46 6.62-8.03 26.86-31.89 39.2-33.62M66.96 82.97S78.9 99.02 85.18 99.95M44.82 88.43c4.79 2.84 17.79 8.87 26.08 10.87 1.56.37 2.94.6 4.08.65 6.73.25 9.79.65 10.16.69h.05m41.41 40.05c-3.32 1.09-5.85 1.88-6.69 2.1m21.39-18.09c.8.67 1.65 1.49 2.41 2.4.78.95 1.46 2 1.87 3.08.41 1.09.56 2.21.25 3.31-3.41 1.53-7.64 3.14-11.7 4.6-1.47.53-2.92 1.03-4.28 1.5-1.14.38-2.22.76-3.23 1.08m11.68-17.76c.44 0 1.65.68 2.99 1.79" class="cls-3"/><path d="M118.03 141.8c1.18.62 1.89.99 1.89.99 5.4-6.33 17.09-19.62 18.32-19.87m-40.27 7.99c2.38 1.34 5.25 2.92 8.13 4.49 1.11.6 2.21 1.19 3.29 1.78l3.48 1.87c2.09 1.11 3.9 2.08 5.16 2.74m-35.54-24.57c2.41 3.88 7.27 8.78 11.64 11.45.32.19.67.4 1.05.63.8.47 1.74 1.01 2.78 1.6m68.18-24.71c-5.16.16-9.86.22-14.13.19-25.53-.17-36.14-3.46-41.41-5.73-1.31-.56-2.29-1.07-3.08-1.44-4.54-2.13-10.82-2.51-17.69-1.24a8.13 8.13 0 0 0-4.23 2.19c-.16.15-.32.31-.46.48-3 3.32-3.9 8.87-4.15 12.68 0 .28.05.59.13.92.22.86.69 1.88 1.38 2.97" class="cls-3"/><path d="M99.44 114.72s9.91 6.07 23.23 8.05c1.1.17 2.22.31 3.37.41 1.39.13 2.82.2 4.26.21h.97c2.07-.02 4.41-.18 6.96-.48h.06c17.21-2.07 44.2-10.39 64.44-21.07" class="cls-3"/><path d="M145.82 133.49c2.91 1.66 7.79 2.46 11.96 1.9 1.28-.16 2.51-.46 3.58-.9 1.67-.68 6.68-2.73 12.56-5.11 10.14-4.1 22.85-9.19 25.36-10 3.95-1.28 10.12-2.44 11.52-3.14.62-.31.91-1 .87-1.99-.03-1.24-.59-2.92-1.69-4.87-.12-.21-.27-.45-.46-.7-.66-.93-1.69-2.13-2.94-3.45-.52-.55-1.08-1.12-1.67-1.71-.06-.06-.14-.14-.21-.19-.56-.57-1.15-1.14-1.75-1.69-3.54-3.35-7.42-6.56-9.26-7.48s-5.13-1.16-9.07-1.04c-3.61.12-7.74.54-11.75 1.04-8.37 1.05-14.42 1.74-17.1 1.98-1.12.1-1.85.3-2.43.08-.66-.25-1.13-1.02-1.79-3.1-.15-.45-.29-.95-.46-1.52-.33-1.14-.93-3.2-1.73-5.8-.49-1.63-1.06-3.47-1.67-5.43-.72-2.28-1.5-4.71-2.31-7.18-1.12-3.41-2.31-6.86-3.46-9.99-.82-2.24-1.62-4.31-2.38-6.08-.88-2.07-1.69-3.72-2.37-4.72" class="cls-3"/><path d="M153.34 96.2s-1.48 5.46-1.32 7.83m-52.58-6.72c5.28-4.77 22.34-12.83 25.59-13.14m-14.44 16.48h0c.58-.14 25.05-5.93 30.26-5.31m-48.27 38.35c-.23.86-.12 1.91.51 3.21.6 1.25 1.96 2.55 3.69 3.78 4.51 3.22 11.58 6.01 14.61 6.46 4.19.62 7.75 0 7.75 0m-21.17-16.23h0c-2.1-.15-4.7.64-5.34 2.64m25.4 8.24v.01l1.53 5.21 1.13 3.84 10.59-.92-4.68-9.24v-.01m4.68 9.25 5.39-1.4-6.83-8.94m6.83 8.94 7.6-1.12-10.15-9.32m10.15 9.32c1.16-.2 2.79-.81 4.6-1.64 5.61-2.56 12.96-7.23 13.31-8.41-2.95-1.24-4.4-1.96-4.4-1.96" class="cls-3"/><path d="M179.92 140.57c-1.66-.27-3.12-.52-4.43-.75-.55-.09-1.07-.17-1.57-.26-4.53-.77-7.38-1.29-11.74-2.2m-13.31 8.41s8.44.82 18.01-.79c4.55-.76 9.35-2.07 13.61-4.27.02 0 .05-.02.06-.03-.2-.04-.4-.06-.59-.1" class="cls-3"/><path d="M175.49 139.82c5.33-2.09 11.12-4.94 16.44-8.02 1.81-1.05 3.58-2.11 5.25-3.2.91-.58 1.8-1.18 2.65-1.76a83.44 83.44 0 0 0 2.98-2.14c4.33-3.26 7.35-6.31 7.99-8.47m-43.92 28.76c6.54 1.84 32.97 4.03 38.8.78m-25.76-5.2h.05c.08.02.26.06.53.13 2.84.67 15.52 3.48 22.24 2.61m-10.81-11.51s5.99 6.1 11.08 11.23c.94.95 1.86 1.87 2.7 2.71 2.27 2.26 3.99 3.95 4.32 4.18 1.08.77 4.49 2.94 6.2.93.19-.23.67-.74 1.34-1.46.77-.82 1.81-1.91 3.03-3.19 2.67-2.79 6.19-6.42 9.5-9.85 5.4-5.58 10.31-10.62 10.31-10.62" class="cls-3"/><path d="m211.69 114.24 15.42 5.85 4.84 1.83 3.46 1.31 5.21 1.99 1.36.51c.46 1.1.85 2.2 1.17 3.26.35 1.16.62 2.28.86 3.33.33 1.52.57 2.9.81 4.03.2.98.4 1.79.66 2.35.49 1.09 2.28 2.24 4.44 2.61.33.05.67.09 1 .1 1.68.09 3.48-.33 5.03-1.6 2.08-1.7 6.18-4.87 9.6-7.49 3.09-2.37 5.63-4.3 5.63-4.3" class="cls-3"/><path d="M230.11 136.36s6.63 5.37 16.05 5.47c1 .02 2.04-.04 3.11-.16.26-.02.53-.05.8-.1.27-.04.55-.08.83-.14h.03" class="cls-3"/><path d="M217.57 149.4c3.23 1.03 19.86 4.97 31.7-7.73m21.89-22.3c-.32-.25-.66-.49-1.01-.74-1.1-.77-2.39-1.59-3.83-2.4-1.03-.59-2.15-1.18-3.34-1.78-3.8-1.87-8.41-3.74-13.71-5.38-11.78-3.67-27-6.29-44.35-5.58m44.97 37.82v.02c.05.08.1.15.17.24 2.2 2.54 15.46 3.57 21.09.11v-22.26" class="cls-3"/><path d="M243.14 129c3.71-1.74 15.84-9.9 19.84-14.53m-18.99 17.86h0c4.64-1.93 20.5-11.55 22.33-16.09h0m-21.51 20.12c5.54-3.02 22.33-12.53 25.35-17.72h0m-49.55 27.57c7.29.73 22.35-1.07 25.56-4.38m19.36-9.5s2.72 8.84 5.63 9.34" class="cls-3"/><path d="M249.27 109.08s18.61 3.56 21.89 5.17v5.17M184.63 93.1c18.26-1.99 71.11-7.67 86.53-1.87M151.55 93.1c30.4-11.06 39.48-19.73 119.61-22.67" class="cls-3"/><path d="M149.53 85.73c28.27-11.78 93.46-33.89 121.64-32.76v61.28M147.7 80.34s49.68-22.69 88.23-32c.71-.17 1.42-.34 2.12-.49 5.8-1.35 11.32-2.36 16.34-2.92-.36-4.24-1.69-8.84-4.56-8.79-.91 0-1.97.49-3.2 1.59-5.12 4.57-8.58 10.12-8.58 10.12m-92.67 25.31c21.38-11.95 53.01-26.52 69.29-26.52" class="cls-3"/><path d="M141.93 63.18c8.79-6.57 35.6-25.31 53.17-33.49 5.08-2.36 9.39-3.85 12.28-3.9.97 3 2 6.04 2.96 8.84 2.32 6.7 4.33 12.02 4.33 12.02 3.57-4.04 11.64-12.87 14.42-14.11.92-.41 1.76-.9 2.49-1.25 1.49-.71 2.52-.83 2.94 1.56.15.87.31 2.23.47 3.81.47 4.87.92 11.7.92 11.7m13.92-12.23c-9.36 0-14.57.48-14.82.51h0" class="cls-3"/><path d="M210.35 34.62s11.2-2.53 16.74-2.36c.81.03 1.5.11 2.01.26m-36.94-10.21c.28.27.54.62.78 1 .8 1.3 1.38 3.1 1.73 4.46.28 1.1.43 1.91.43 1.91m-59.06 18.97c20.09-11.4 51.03-26.32 54.29-27.01.61-.13 1.16.08 1.65.49m27.89-.52c3.24 4.66 7.22 10.65 7.22 10.65m-32.42-4.49c6.04-8.43 10.7-10.6 12.87-12.3.74-.57 1.71-.96 2.81-1.06 2.14-.22 4.7.65 6.66 3.22.75.98 1.76 2.41 2.85 3.98" class="cls-3"/><path d="M219.86 21.61h0c4.13-1.18 9.39.21 11.72 9.67m-97.05 13.65c10.27-5.28 39.28-20.8 46.26-24.5.8-.43 1.31-.69 1.48-.77 1.51-.76 7.12 0 9.71 2.49.06.05.13.11.18.17m-58.48 20.8s37.57-21.92 39.28-22.7c1.7-.77 5.73-1.55 7.83 0" class="cls-3"/><path d="M123.8 29.19c26.83-7.53 57.38-21.32 60.02-21.95 2.63-.62 6.65-2.84 10.08 7.13 0 0 8.87-1.65 16.46.03" class="cls-3"/><path d="M193.89 14.37c.15 3.57-.95 8.94-.95 8.94m61.44 21.62c5.82 1 11.38 3.97 16.78 8.04M78.98 80.34s4.14 15.08 4.11 16.97m-66.93-14.1c3.49 3.11 13.82 19.32 18.06 26.14.66 1.07 1.18 1.9 1.49 2.42 1.19 1.99 3.93 5.8 6.72 9.17 2.63 3.19 5.33 5.96 6.77 6.34 2.09.55 4.18.24 6.05-1.55.77-.72 1.49-1.69 2.17-2.95.77-1.44 1.59-3.02 2.38-4.55.7-1.37 1.38-2.68 1.97-3.77.75-1.38 1.36-2.43 1.7-2.84.59-.69 1.95-1.71 2.97-1.13.57.33 1.05 1.16 1.21 2.83.21 2.05.62 8.24 1.02 14.51.28 4.42.56 8.88.75 11.98.15 2.47.25 4.06.25 4.06l3.26-1.86 3.14-1.79 4.92-2.82 3.54-2.01 2.51-1.44 8.15-4.66m-28.75-18.8c1.79.85 4.57 1.98 7.45 2.78 1.7.48 3.44.85 5.01.97.78.06 1.53.07 2.21 0" class="cls-3"/><path d="M34.84 78.41c3.5 9.64 9.38 24.45 26.6 35.88" class="cls-3"/><path d="M31.36 80.13c4.04 9.16 12.51 28.6 28.44 38.1" class="cls-3"/><path d="M27.44 81.32c6.24 13.56 18.69 35.93 29.98 41.47m-14.99-1.85c-1.04 4.25-3.09 15.13 4.45 14.32.69-.07 1.47-.25 2.32-.54 3.41-1.03 5.59-.63 6.12-3.84.12-.71.16-1.62.12-2.77-.04-.69-.1-1.49-.19-2.39" class="cls-3"/><path d="M46.88 135.26s12.23 9.59 14.56 9.72c1.18.06 3.04-.57 4.68-1.57.96-.57 1.83-1.28 2.45-2.01.43-.51.73-1.05.85-1.59" class="cls-3"/><path d="M55.32 130.89s11.22 10.51 13.25 10.51m-13.13-13.28s9.6.59 13.23-.28m5.22-14.57c-1.16 0-.11 20.05 2.18 26.96m2.83-25.99c-.7 2.65.07 20.28 2.09 23.17m1.5-20.19h0c0 .49-.21 15.94 2.03 18.19m-17.56 7.38-.84.63-8.7 6.51 4.02 2.79s7.37-4.52 11-9.92c.18-.26.34-.51.49-.77" class="cls-3"/><path d="M72.44 142.79s4.41 1.09 9.71.38" class="cls-3"/><path d="m87.04 133.96-4.89 9.21-5.9 11.1 8.28 4.03 5.1-15.57 2.95-9.04.05-.14.05-.16m-2.85 9.4s4.45-.04 6.95-2.11m16.09-1.63c3.71-3.04 14.3-12.19 17.44-15.64m-20.92 13.77c2.94-2.51 14.5-10.7 16.66-13.99M106.1 135.4c4.78-3.35 12.55-8.8 16.57-12.62m21.04 4.32c9.52-1.33 29.36-.56 62.88-21.89" class="cls-3"/><path d="M145.57 130.18c8.54 0 20.56.71 63.95-21.51m-68.23 16.03h0c.51-.02 19.22-.67 44.98-11.61 18.43-7.83 18.71-9.35 18.29-9.65-.09-.05-.21-.06-.21-.06M87.57 12.33c4.93 4.51 19.78 16.45 28.88 24.25 2.15 1.84 3.97 3.44 5.28 4.67 1.11 1.04 1.84 1.8 2.07 2.2m79.01 81.25 7.99 7.63 16.3-12.24" class="cls-3"/><path d="m199.83 126.85 10.52 10.9 21.59-15.82" class="cls-3"/><path d="m197.18 128.6 13.62 14.87 24.6-20.23m-61.47 6.15v10.17" class="cls-3"/></g></svg>