<?xml version="1.0" encoding="UTF-8"?>
<svg xmlns="http://www.w3.org/2000/svg" xmlns:xlink="http://www.w3.org/1999/xlink" viewBox="0 0 272.35 197.83">
  <defs>
    <style>
      .cls-1 {
        stroke-miterlimit: 10;
      }

      .cls-1, .cls-2, .cls-3 {
        fill: none;
      }

      .cls-1, .cls-3 {
        stroke: #000;
      }

      .cls-4 {
        fill: #bf93c6;
      }

      .cls-4, .cls-5, .cls-2, .cls-6, .cls-7, .cls-8, .cls-9, .cls-10, .cls-11, .cls-12 {
        stroke-width: 0px;
      }

      .cls-5 {
        fill: #f3edd7;
      }

      .cls-3 {
        stroke-linecap: round;
        stroke-linejoin: round;
      }

      .cls-6 {
        fill: #efe2c0;
      }

      .cls-7 {
        fill: #333;
      }

      .cls-8 {
        fill: #f3fee0;
      }

      .cls-13 {
        clip-path: url(#clippath);
      }

      .cls-9 {
        fill: #fafade;
      }

      .cls-10 {
        fill: #d2d296;
      }

      .cls-11 {
        fill: #ee603c;
      }

      .cls-12 {
        fill: #deda91;
      }
    </style>
    <clipPath id="clippath">
      <rect class="cls-2" x="2.29" width="229.71" height="143.87"/>
    </clipPath>
  </defs>
  <g id="_レイヤー_3" data-name="レイヤー 3">
    <g>
      <g>
        <rect class="cls-5" x="2.29" y="163.2" width="3.62" height="5.03"/>
        <path class="cls-5" d="m272.11,190.77v6.56h-30.44l15.35-8.63c1.03,1.61,3.11,2.72,5.51,2.72s4.62-1.18,5.62-2.88l3.97,2.23Z"/>
        <path class="cls-5" d="m272.11,180.21v10.56l-3.97-2.23c.38-.65.59-1.38.59-2.14,0-1.3-.62-2.48-1.61-3.38l4.99-2.8Z"/>
        <path class="cls-5" d="m272.11,168.22v11.99l-4.99,2.8c-1.14-1.01-2.77-1.64-4.59-1.64s-3.31.58-4.44,1.51l-26.09-14.66h40.11Z"/>
        <polygon class="cls-5" points="272.11 83.22 272.11 88.98 3.18 88.98 2.29 88.98 2.29 83.22 272.11 83.22"/>
        <rect class="cls-5" x="268.12" y="163.2" width="3.99" height="5.03"/>
        <path class="cls-5" d="m268.73,186.39c0,.76-.21,1.49-.59,2.14l-5.42-3.05,4.39-2.47c1,.89,1.61,2.07,1.61,3.38Z"/>
        <path class="cls-5" d="m262.72,185.49l5.42,3.05c-1,1.7-3.13,2.88-5.62,2.88s-4.48-1.1-5.51-2.72l5.71-3.21Z"/>
        <rect class="cls-7" x="256.81" y="163.2" width="11.3" height="5.03"/>
        <path class="cls-5" d="m267.12,183.02l-4.39,2.47-4.64-2.6c1.13-.93,2.7-1.51,4.44-1.51,1.82,0,3.46.63,4.59,1.64Z"/>
        <path class="cls-5" d="m262.72,185.49l-5.71,3.21c-.44-.69-.69-1.48-.69-2.31,0-1.37.68-2.6,1.77-3.51l4.64,2.6Z"/>
        <path class="cls-5" d="m232,168.22l26.09,14.66c-1.09.9-1.77,2.14-1.77,3.51,0,.83.25,1.62.69,2.31l-15.35,8.63h-41.47l-15.64-8.79c.38-.65.59-1.38.59-2.14,0-1.3-.62-2.48-1.61-3.37l26.33-14.8h22.15Zm-5.96,18.17c0-2.77-2.25-5.02-5.02-5.02s-5.03,2.25-5.03,5.02,2.25,5.03,5.03,5.03,5.02-2.25,5.02-5.03Z"/>
        <polygon class="cls-5" points="256.81 168.22 232 168.22 226.3 168.22 226.3 163.2 256.81 163.2 256.81 168.22"/>
        <rect class="cls-7" x="215" y="163.2" width="11.3" height="5.03"/>
        <path class="cls-7" d="m221.02,181.38c2.77,0,5.02,2.25,5.02,5.02s-2.25,5.03-5.02,5.03-5.03-2.25-5.03-5.03,2.25-5.02,5.03-5.02Z"/>
        <path class="cls-5" d="m209.86,168.22l-26.33,14.8c-1.14-1.02-2.77-1.65-4.59-1.65s-3.31.58-4.44,1.51l-26.09-14.66h61.45Z"/>
        <polygon class="cls-5" points="184.48 168.22 184.48 163.2 215 163.2 215 168.22 209.86 168.22 184.48 168.22"/>
        <path class="cls-5" d="m200.19,197.33h-42.12l15.35-8.63c1.03,1.61,3.12,2.72,5.51,2.72s4.62-1.18,5.62-2.88l15.64,8.79Z"/>
        <path class="cls-5" d="m185.14,186.39c0,.76-.21,1.49-.59,2.14l-5.42-3.05,4.39-2.47c1,.89,1.61,2.07,1.61,3.37Z"/>
        <path class="cls-5" d="m179.13,185.49l5.42,3.05c-1,1.7-3.13,2.88-5.62,2.88s-4.48-1.1-5.51-2.72l5.71-3.21Z"/>
        <rect class="cls-7" x="173.18" y="163.2" width="11.3" height="5.03"/>
        <path class="cls-5" d="m178.93,181.38c1.82,0,3.46.63,4.59,1.65l-4.39,2.47-4.64-2.6c1.13-.93,2.7-1.51,4.44-1.51Z"/>
        <path class="cls-5" d="m179.13,185.49l-5.71,3.21c-.44-.69-.69-1.48-.69-2.31,0-1.37.68-2.6,1.77-3.51l4.64,2.6Z"/>
        <path class="cls-5" d="m148.41,168.22l26.09,14.66c-1.09.9-1.77,2.14-1.77,3.51,0,.83.25,1.62.69,2.31l-15.35,8.63h-41.47l-15.64-8.79c.38-.65.59-1.38.59-2.14,0-1.3-.62-2.48-1.61-3.37l26.33-14.8h22.15Zm-7.01,18.17c0-2.77-2.25-5.02-5.02-5.02s-5.03,2.25-5.03,5.02,2.25,5.03,5.03,5.03,5.02-2.25,5.02-5.03Z"/>
        <polygon class="cls-5" points="173.18 168.22 148.41 168.22 142.66 168.22 142.66 163.2 173.18 163.2 173.18 168.22"/>
        <rect class="cls-7" x="131.36" y="163.2" width="11.3" height="5.03"/>
        <path class="cls-7" d="m136.38,181.38c2.77,0,5.02,2.25,5.02,5.02s-2.25,5.03-5.02,5.03-5.03-2.25-5.03-5.03,2.25-5.02,5.03-5.02Z"/>
        <path class="cls-5" d="m126.27,168.22l-26.33,14.8c-1.14-1.02-2.77-1.65-4.59-1.65s-3.31.58-4.44,1.51l-26.09-14.66h61.45Z"/>
        <polygon class="cls-5" points="131.36 168.22 126.27 168.22 100.85 168.22 100.85 163.2 131.36 163.2 131.36 168.22"/>
        <path class="cls-5" d="m116.6,197.33h-42.12l15.35-8.63c1.03,1.61,3.11,2.72,5.51,2.72s4.62-1.18,5.62-2.88l15.64,8.79Z"/>
        <path class="cls-5" d="m101.55,186.39c0,.76-.21,1.49-.59,2.14l-5.42-3.05,4.39-2.47c1,.89,1.61,2.07,1.61,3.37Z"/>
        <path class="cls-5" d="m95.54,185.49l5.42,3.05c-1,1.7-3.13,2.88-5.62,2.88s-4.48-1.1-5.51-2.72l5.71-3.21Z"/>
        <rect class="cls-7" x="89.54" y="163.2" width="11.3" height="5.03"/>
        <path class="cls-5" d="m95.34,181.38c1.82,0,3.46.63,4.59,1.65l-4.39,2.47-4.64-2.6c1.13-.93,2.7-1.51,4.44-1.51Z"/>
        <path class="cls-5" d="m95.54,185.49l-5.71,3.21c-.44-.69-.69-1.48-.69-2.31,0-1.37.68-2.6,1.77-3.51l4.64,2.6Z"/>
        <path class="cls-5" d="m64.82,168.22l26.09,14.66c-1.09.9-1.77,2.14-1.77,3.51,0,.83.25,1.62.69,2.31l-15.35,8.63h-41.66l-15.64-8.79c.38-.65.59-1.38.59-2.14,0-1.3-.62-2.48-1.61-3.37l26.33-14.8h22.34Zm-8.52,18.17c0-2.77-2.25-5.02-5.02-5.02s-5.03,2.25-5.03,5.02,2.25,5.03,5.03,5.03,5.02-2.25,5.02-5.03Z"/>
        <polygon class="cls-5" points="89.54 168.22 64.82 168.22 59.03 168.22 59.03 163.2 89.54 163.2 89.54 168.22"/>
        <rect class="cls-7" x="47.73" y="163.2" width="11.3" height="5.03"/>
        <path class="cls-7" d="m51.28,181.38c2.77,0,5.02,2.25,5.02,5.02s-2.25,5.03-5.02,5.03-5.03-2.25-5.03-5.03,2.25-5.02,5.03-5.02Z"/>
        <polygon class="cls-5" points="47.73 168.22 42.48 168.22 17.21 168.22 17.21 163.2 47.73 163.2 47.73 168.22"/>
        <path class="cls-5" d="m32.82,197.33H2.29v-6.52l3.76-2.11c1.03,1.61,3.12,2.72,5.51,2.72s4.62-1.18,5.62-2.88l15.64,8.79Z"/>
        <path class="cls-5" d="m17.77,186.39c0,.76-.21,1.49-.59,2.14l-5.42-3.05,4.39-2.47c1,.89,1.61,2.07,1.61,3.37Z"/>
        <rect class="cls-7" x="5.91" y="163.2" width="11.3" height="5.03"/>
        <path class="cls-5" d="m11.76,185.49l5.42,3.05c-1,1.7-3.13,2.88-5.62,2.88s-4.48-1.1-5.51-2.72l5.71-3.21Z"/>
        <path class="cls-5" d="m11.56,181.38c1.82,0,3.46.63,4.59,1.65l-4.39,2.47-4.64-2.6c1.13-.93,2.7-1.51,4.44-1.51Z"/>
        <path class="cls-5" d="m11.76,185.49l-5.71,3.21c-.44-.69-.69-1.48-.69-2.31,0-1.37.68-2.6,1.77-3.51l4.64,2.6Z"/>
        <path class="cls-5" d="m2.29,180.17l4.84,2.72c-1.09.9-1.77,2.14-1.77,3.51,0,.83.25,1.62.69,2.31l-3.76,2.11v-10.64Z"/>
        <polygon class="cls-10" points="215 163.2 184.48 163.2 173.18 163.2 142.66 163.2 131.36 163.2 100.85 163.2 89.54 163.2 59.03 163.2 47.73 163.2 17.21 163.2 5.91 163.2 2.29 163.2 2.29 88.98 3.18 88.98 272.11 88.98 272.11 163.2 268.12 163.2 256.81 163.2 226.3 163.2 215 163.2"/>
        <path class="cls-5" d="m2.29,168.22h40.19l-26.33,14.8c-1.14-1.02-2.77-1.65-4.59-1.65s-3.31.58-4.44,1.51l-4.84-2.72v-11.95Z"/>
      </g>
      <g>
        <polyline class="cls-1" points="272.11 197.33 241.66 197.33 200.19 197.33 158.07 197.33 116.6 197.33 74.48 197.33 32.82 197.33 2.29 197.33"/>
        <line class="cls-1" x1="2.29" y1="83.22" x2="272.11" y2="83.22"/>
        <line class="cls-1" x1="2.29" y1="88.98" x2="272.11" y2="88.98"/>
        <line class="cls-1" x1="268.12" y1="163.2" x2="272.11" y2="163.2"/>
        <line class="cls-1" x1="226.3" y1="163.2" x2="256.81" y2="163.2"/>
        <line class="cls-1" x1="184.48" y1="163.2" x2="215" y2="163.2"/>
        <line class="cls-1" x1="142.66" y1="163.2" x2="173.18" y2="163.2"/>
        <line class="cls-1" x1="100.85" y1="163.2" x2="131.36" y2="163.2"/>
        <line class="cls-1" x1="59.03" y1="163.2" x2="89.54" y2="163.2"/>
        <line class="cls-1" x1="17.21" y1="163.2" x2="47.73" y2="163.2"/>
        <line class="cls-1" x1="2.29" y1="163.2" x2="5.91" y2="163.2"/>
        <line class="cls-1" x1="268.12" y1="168.22" x2="272.11" y2="168.22"/>
        <polyline class="cls-1" points="226.3 168.22 232 168.22 256.81 168.22"/>
        <polyline class="cls-1" points="184.48 168.22 209.86 168.22 215 168.22"/>
        <polyline class="cls-1" points="142.66 168.22 148.41 168.22 173.18 168.22"/>
        <polyline class="cls-1" points="100.85 168.22 126.27 168.22 131.36 168.22"/>
        <polyline class="cls-1" points="59.03 168.22 64.82 168.22 89.54 168.22"/>
        <polyline class="cls-1" points="17.21 168.22 42.48 168.22 47.73 168.22"/>
        <line class="cls-1" x1="2.29" y1="168.22" x2="5.91" y2="168.22"/>
        <polyline class="cls-1" points="74.48 197.33 89.83 188.7 95.54 185.49 99.94 183.03 126.27 168.22"/>
        <polyline class="cls-1" points="116.6 197.33 100.96 188.54 95.54 185.49 90.91 182.89 64.82 168.22"/>
        <path class="cls-1" d="m141.4,186.39c0,2.78-2.25,5.03-5.02,5.03s-5.03-2.25-5.03-5.03,2.25-5.02,5.03-5.02,5.02,2.25,5.02,5.02Z"/>
        <path class="cls-1" d="m226.04,186.39c0,2.78-2.25,5.03-5.02,5.03s-5.03-2.25-5.03-5.03,2.25-5.02,5.03-5.02,5.02,2.25,5.02,5.02Z"/>
        <path class="cls-1" d="m99.94,183.03c1,.89,1.61,2.07,1.61,3.37,0,.76-.21,1.49-.59,2.14-1,1.7-3.13,2.88-5.62,2.88s-4.48-1.1-5.51-2.72c-.44-.69-.69-1.48-.69-2.31,0-1.37.68-2.6,1.77-3.51,1.13-.93,2.7-1.51,4.44-1.51,1.82,0,3.46.63,4.59,1.65Z"/>
        <polyline class="cls-1" points="2.29 190.81 6.05 188.7 11.76 185.49 16.15 183.03 42.48 168.22"/>
        <polyline class="cls-1" points="32.82 197.33 17.18 188.54 11.76 185.49 7.13 182.89 2.29 180.17"/>
        <path class="cls-1" d="m16.15,183.03c1,.89,1.61,2.07,1.61,3.37,0,.76-.21,1.49-.59,2.14-1,1.7-3.13,2.88-5.62,2.88s-4.48-1.1-5.51-2.72c-.44-.69-.69-1.48-.69-2.31,0-1.37.68-2.6,1.77-3.51,1.13-.93,2.7-1.51,4.44-1.51,1.82,0,3.46.63,4.59,1.65Z"/>
        <polyline class="cls-1" points="158.07 197.33 173.42 188.7 179.13 185.49 183.53 183.03 209.86 168.22"/>
        <polyline class="cls-1" points="200.19 197.33 184.55 188.54 179.13 185.49 174.5 182.89 148.41 168.22"/>
        <path class="cls-1" d="m183.53,183.03c1,.89,1.61,2.07,1.61,3.37,0,.76-.21,1.49-.59,2.14-1,1.7-3.13,2.88-5.62,2.88s-4.48-1.1-5.51-2.72c-.44-.69-.69-1.48-.69-2.31,0-1.37.68-2.6,1.77-3.51,1.13-.93,2.7-1.51,4.44-1.51,1.82,0,3.46.63,4.59,1.65Z"/>
        <polyline class="cls-1" points="241.66 197.33 257.01 188.7 262.72 185.49 267.12 183.02 272.11 180.21"/>
        <polyline class="cls-1" points="272.11 190.77 268.14 188.54 262.72 185.49 258.09 182.89 232 168.22"/>
        <path class="cls-1" d="m267.12,183.02c1,.89,1.61,2.07,1.61,3.38,0,.76-.21,1.49-.59,2.14-1,1.7-3.13,2.88-5.62,2.88s-4.48-1.1-5.51-2.72c-.44-.69-.69-1.48-.69-2.31,0-1.37.68-2.6,1.77-3.51,1.13-.93,2.7-1.51,4.44-1.51,1.82,0,3.46.63,4.59,1.64Z"/>
        <path class="cls-1" d="m56.3,186.39c0,2.78-2.25,5.03-5.02,5.03s-5.03-2.25-5.03-5.03,2.25-5.02,5.03-5.02,5.02,2.25,5.02,5.02Z"/>
        <rect class="cls-1" x="5.91" y="163.2" width="11.3" height="5.03"/>
        <rect class="cls-1" x="47.73" y="163.2" width="11.3" height="5.03"/>
        <rect class="cls-1" x="89.54" y="163.2" width="11.3" height="5.03"/>
        <rect class="cls-1" x="131.36" y="163.2" width="11.3" height="5.03"/>
        <rect class="cls-1" x="173.18" y="163.2" width="11.3" height="5.03"/>
        <rect class="cls-1" x="215" y="163.2" width="11.3" height="5.03"/>
        <rect class="cls-1" x="256.81" y="163.2" width="11.3" height="5.03"/>
      </g>
    </g>
  </g>
  <g id="_レイヤー_2" data-name="レイヤー 2">
    <g class="cls-13">
      <g>
        <g>
          <path class="cls-11" d="m221.85,83.48c3.99,6.06,3.26,7.94,3.26,7.94-6.21-6.6-14.41-10.46-23.56-13.2l.06-.21c-4.25-4.78-8.45-7.43-12.91-9.4h0s1.74-2.28,3.73-5.89c3.56,3.47,25.44,14.71,29.42,20.76Z"/>
          <path class="cls-11" d="m225.11,91.43c-.16,1.24-1.19,4.67-3.13,8.59h0c-5.78-6.84-31.67-20.77-40.91-25.1.1-.22.23-.67.36-1.31h0c6.92,1.35,13.75,2.73,20.11,4.63,9.15,2.73,17.35,6.6,23.56,13.2Z"/>
          <path class="cls-9" d="m221.97,100h0c-1.13,2.27-2.55,4.71-4.29,6.97-3.82-5.17-35.42-26.82-53.66-35.3,2.01.83,7.27,2.57,17.03,3.24,9.24,4.32,35.12,18.26,40.91,25.09Z"/>
          <path class="cls-4" d="m146.46,84.92h0c-1.74-.93-3.41-1.89-4.93-2.86-.95-.61-1.83-1.22-2.62-1.83-1.38-1.07-2.48-2.12-3.19-3.14-.61-.87-1.03-1.78-1.29-2.72-1.9-6.6,3.7-14.58,5.21-19.34,3.89-5.09,7.83-9.74,10.89-12.49.11.25,4.53,10.45,8.1,18.63.55,1.25,1.07,2.46,1.55,3.57,1.53,3.47,2.67,6.07,2.88,6.5,0,0,0,0,.02,0,.07.03.38.2.97.44,18.24,8.47,49.84,30.12,53.66,35.3-3.52,4.6-8.31,8.49-14.4,8.87-.14-.04-.27-.09-.41-.14-13.67-4.58-36.62-12.77-49.99-19.26l-6.44-11.53Z"/>
          <path class="cls-9" d="m202.88,115.71s-1.98,2.28-2.9,2.65c-4.18-.57-47.65-19.11-56.35-27.45,1.69,1.55,4.98,3.46,9.26,5.54,13.37,6.49,36.31,14.68,49.99,19.26Z"/>
          <path class="cls-11" d="m201.61,78.02l-.06.21c-6.36-1.9-13.2-3.27-20.11-4.63h0c.32-1.6.68-4.37.93-7.44,2.19.77,4.3,1.54,6.35,2.46,4.46,1.97,8.66,4.62,12.91,9.4Z"/>
          <path class="cls-11" d="m199.98,118.36s-.89,2.37-3.99,6.35c-1.21-.15-2.42-.35-3.65-.61-18.87-3.97-39.86-20.57-47.67-27.21-2.01-1.72-3.15-2.77-3.15-2.77l1.5-3.85c.1.11.21.23.33.36l.03.03c.08.08.16.16.25.24,8.7,8.34,52.17,26.88,56.35,27.45Z"/>
          <path class="cls-11" d="m194.52,58.54c-.69,1.53-1.4,2.93-2.08,4.18-1.99,3.61-3.73,5.89-3.73,5.89h0c-2.05-.91-4.16-1.68-6.35-2.45.32-3.97.49-8.45.2-11.64-.74-1.09-2.48-2.72-4.77-4.58-.64-.51-1.33-1.06-2.05-1.61l9.3-.34c4.93,4.77,8.83,8.9,9.49,10.56Z"/>
          <path class="cls-11" d="m192.35,124.1s-.93,2.13-4.48,5.01c-.52-.1-1.5-.49-2.83-1.11-8.16-3.79-29.33-16.23-36.04-23.66,0,0,0-.02,0-.02-.58-.64-1.05-1.25-1.4-1.81l-2.91-5.62c7.81,6.63,28.8,23.24,47.67,27.21Z"/>
          <path class="cls-9" d="m185.04,128l-6.36,5.98-4.55-2.21c-2.07-.86-4.05-2.02-5.93-3.39-11.21-8.13-18.87-23.37-19.2-24.03h0c6.71,7.43,27.88,19.86,36.04,23.66Z"/>
          <path class="cls-12" d="m185.03,47.99l-9.3.34c-.57-.43-1.17-.89-1.78-1.35-1.15-.84-2.34-1.71-3.57-2.58l10.24-.6h0c1.51,1.42,3,2.83,4.39,4.18Z"/>
          <path class="cls-11" d="m182.55,54.52c.29,3.19.12,7.67-.2,11.64-.25,3.07-.61,5.84-.93,7.44-.12.64-.25,1.09-.36,1.31l-8.72-10.19c4.85-3.65,9.61-7.74,10.21-10.2Z"/>
          <path class="cls-11" d="m172.34,64.72l8.72,10.19c-9.76-.67-15.02-2.4-17.03-3.24-.33-.16-.65-.3-.97-.44,0,0-.02,0-.02,0,2.01-1.33,5.69-3.78,9.3-6.5Z"/>
          <path class="cls-11" d="m180.63,43.8l-10.24.6c-6.64-4.67-13.98-9.21-16.75-10.24v-.02c3.23-2.85,5.58-6.52,6.9-8.43,0,0,10.7,9.28,20.1,18.09Z"/>
          <path class="cls-12" d="m177.78,49.94c2.29,1.87,4.04,3.49,4.77,4.58-.6,2.46-5.36,6.55-10.21,10.2-3.61,2.72-7.28,5.17-9.3,6.5-.21-.43-1.35-3.03-2.88-6.5,5.85-1.74,18.43-13.92,17.61-14.78h0Z"/>
          <path class="cls-12" d="m177.77,49.95c.82.86-11.75,13.03-17.61,14.78-.49-1.11-1.01-2.32-1.55-3.57,5.57-3.49,10.64-8.32,15.34-14.18.61.46,1.21.91,1.78,1.35.72.56,1.41,1.1,2.05,1.61h0Z"/>
          <path class="cls-4" d="m150.51,42.53c-3.06,2.75-7,7.41-10.89,12.49-1.79,2.33-3.57,4.75-5.24,7.12l-1.85-3.59s8.71-14.36,17.98-22.12v-.02c1.1-.63,2.14-1.42,3.11-2.27v.02c2.79,1.03,10.12,5.57,16.76,10.24,1.22.87,2.42,1.74,3.57,2.58-4.7,5.86-9.77,10.69-15.34,14.18-3.57-8.18-7.99-18.38-8.1-18.63Z"/>
          <path class="cls-9" d="m168.19,128.37l-8.46,4.16c-3.41-5.86-5.34-10.3-5.34-10.3.35-.29.57-.48.67-.56-.22-.62-.43-1.24-.66-1.88-.76-2.14-1.55-4.37-2.27-6.45-1.64-4.7-3.01-8.63-3.14-9,.33.66,8,15.9,19.2,24.03Z"/>
          <path class="cls-7" d="m157.39,4.26c4.32,1.77,7.65,5.17,6.65,9.38-.09-.02-.18-.03-.28-.05-3.24-.61-10.14-.45-13.8,1.27-3.77,1.77-16.07,11.42-21.38,14.51-.83.49-2.12,1.28-3.7,2.27h0c-1.35.85-2.9,1.84-4.57,2.91-1.74,1.12-3.6,2.33-5.48,3.54-1.84,1.19-3.69,2.4-5.45,3.54-3.39,2.2-6.44,4.2-8.48,5.53-1.34.87-2.23,1.45-2.47,1.6-.6.37-1.15.57-1.58.68-.5.12-.89-.29-1.01-.79-.3-1.32-.31-2.74.77-4.62.82-1.45,2.31-3.17,4.8-5.32,1.15-.98,2.5-2.06,4.11-3.24.56-.41,1.15-.84,1.79-1.31,2.98-2.15,6.77-4.8,10.79-7.58,3.94-2.72,8.09-5.54,11.92-8.13,7.19-4.85,13.22-8.83,14.51-9.58,3.13-1.83,8.53-6.38,12.86-4.61Z"/>
          <path class="cls-6" d="m143.03,37.98v.02c-1.05.68-6.62,7.51-10.26,12.14l-.23-.19c-2.34-4.6-9.41-10.02-9.41-10.02,1.09-4.24,1.73-8.06,1.76-8.28h0c1.58-1,2.86-1.8,3.7-2.28,5.31-3.1,17.61-12.74,21.38-14.51,3.66-1.72,10.56-1.88,13.8-1.27,0,0-.57,8.29-3.24,12.13-1.32,1.91-3.67,5.58-6.91,8.43-.96.85-2.01,1.63-3.12,2.27-2.21,1.26-4.71,1.96-7.47,1.57Zm19.34-19.45c.36-.45.06-1.3-.68-1.89-.75-.59-1.64-.7-2.01-.25-.36.46-.05,1.3.69,1.9.75.59,1.64.7,2,.24Zm-5.55-2.6c.23-.53-.28-1.28-1.15-1.66s-1.76-.26-2,.28c-.23.53.28,1.27,1.15,1.65s1.76.26,2-.27Z"/>
          <path class="cls-7" d="m161.69,16.64c.74.59,1.04,1.44.68,1.89-.36.46-1.25.35-2-.24-.74-.6-1.05-1.44-.69-1.9.36-.45,1.26-.34,2.01.25Z"/>
          <path class="cls-9" d="m164.22,139.64s-5.17.1-9.26,0c-.94-.67-2.4-3.97-3.62-7.11s-2.21-6.12-2.21-6.12c.88-.67,1.68-1.28,2.39-1.85.51-.4.98-.77,1.39-1.1.63-.5,1.13-.92,1.5-1.22,0,0,1.93,4.44,5.34,10.3,1.28,2.22,2.79,4.64,4.48,7.11Z"/>
          <path class="cls-7" d="m155.68,14.27c.87.38,1.38,1.13,1.15,1.66s-1.13.65-2,.27-1.38-1.12-1.15-1.65c.23-.54,1.13-.66,2-.28Z"/>
          <path class="cls-12" d="m154.41,119.8c.23.64.44,1.27.66,1.88-.1.08-.32.27-.67.56-.37.3-.88.72-1.5,1.22,0,0-10.8-.34-18.57,0-7.78.33-23.59,4.65-31.41,7.21h0c-5.88-1.61-10.64-3.88-14.12-5.96-7.75-.3-9.09-2.95-11.31-6.35h9.43c4.21,3.44,11.05,8.99,27.42,3.55,16.36-5.43,40.07-2.11,40.07-2.11h0Z"/>
          <path class="cls-12" d="m154.41,119.8h0s-23.72-3.32-40.07,2.11c-16.36,5.43-23.2-.11-27.42-3.55h1.33c7.31,1.11,25.7,1.15,38.9-4.18,4.77-1.35,24.99-.82,24.99-.82.73,2.08,1.52,4.31,2.27,6.45Z"/>
          <path class="cls-4" d="m146.46,84.92l6.44,11.53c-4.28-2.07-7.57-3.98-9.26-5.54-.09-.08-.17-.16-.25-.24l-.03-.03c-.12-.12-.23-.24-.33-.36,0,0-1.53-3.76-1.5-8.23,1.52.97,3.19,1.94,4.93,2.86h0Z"/>
          <path class="cls-11" d="m152.9,123.46c-.41.33-.88.7-1.39,1.1-19.85,9.82-36.55,9.38-48.59,6.11,7.82-2.56,23.63-6.88,31.41-7.21,7.77-.34,18.57,0,18.57,0Z"/>
          <path class="cls-9" d="m149.12,126.41s.99,2.98,2.21,6.12l-9.81-.73c2.85-1.88,5.45-3.77,7.6-5.39Z"/>
          <path class="cls-4" d="m90.85,96.77c3.09-.29,6.34-.72,9.69-1.35,14.73-2.79,25.93-3.49,33.01-3.04.49.03.97.08,1.42.12.85.08,1.63.17,2.34.3,1.99.32,3.4.78,4.22,1.33,0,0,1.14,1.05,3.15,2.77l2.91,5.62c.35.56.82,1.16,1.4,1.81,0,0,0,0,0,.02h0c.13.38,1.5,4.31,3.14,9.01,0,0-20.23-.53-24.99.82-13.2,5.34-31.59,5.3-38.9,4.18h-10.76c-1.19,0-4.25-.87-7.89-2.05-1.74-.56-3.62-1.2-5.49-1.84-5.83-2.02-11.49-4.14-12.44-4.42-.7-.21-4.57.06-9.16.49-1.5.13-3.07.29-4.64.44-1.4.14-2.79.29-4.11.43-4.24.45-7.79.85-8.62.95,0,0,0,0,0,0-.08-.03-.14-.03-.18.03-.3.36-1.69,1.89-3.52,3.84-5.06-2.93-8.14-10.04-8.14-10.04,8.63-1.82,19.85-3.45,27.84-1.85,1.35-4.45,3.94-8.85,6.97-12.11,3.6-3.87,7.82-6.15,11.35-5.03,4.04,1.28,13.6,4.67,21.24,7.06,4.66,1.45,8.61,2.53,10.15,2.53Z"/>
          <path class="cls-8" d="m150.5,36.41v.02c-9.26,7.76-17.97,22.12-17.97,22.12l-2.51-4.87c.56-.75,1.55-2.02,2.74-3.53,3.65-4.64,9.21-11.47,10.26-12.14v-.02c2.76.39,5.26-.31,7.47-1.57Z"/>
          <path class="cls-11" d="m151.51,124.56c-.7.56-1.51,1.18-2.39,1.85-2.14,1.62-4.75,3.51-7.6,5.39-6.13,4.05-13.4,8.06-19.67,9.38-2.62,1.11-18.43-.66-20.95-5.26-2.73,3.16-22.31.39-31.4-1.94,0-.03-.12-.03-.33-.03,3.8-1.44,7.79-2.97,11.44-4.65,3.06-1.4,5.89-2.92,8.18-4.58,3.47,2.08,8.24,4.36,14.12,5.96h0c12.04,3.27,28.74,3.71,48.59-6.11Z"/>
          <path class="cls-4" d="m143.03,90.28l-1.5,3.85c-.82-.55-2.23-1.01-4.22-1.33-.62-3.7,1.6-12.58,1.6-12.58.79.61,1.68,1.22,2.62,1.83-.03,4.47,1.5,8.23,1.5,8.23Z"/>
          <path class="cls-4" d="m138.9,80.22s-2.21,8.88-1.6,12.58c-.7-.12-1.48-.22-2.34-.3h0c.02-.35.04-.69.05-1.04.2-5.53-.99-11.03-2.79-16.23l-.03-.08,2.21-.79c.26.94.69,1.85,1.29,2.72.71,1.02,1.81,2.07,3.19,3.14Z"/>
          <path class="cls-4" d="m134.38,62.14c1.68-2.37,3.46-4.79,5.24-7.12-1.51,4.77-7.11,12.74-5.21,19.34l-2.21.79c-.05-.18-.12-.38-.21-.58h0c-.07-.21-.14-.4-.21-.59-.53-10.07-7.17-19.91-10.62-26.49l-.52-.11c.38-.83.74-1.75,1.07-2.73l8.3,9.03,2.51,4.87,1.85,3.59Z"/>
          <path class="cls-4" d="m132.24,75.23c1.8,5.2,2.99,10.7,2.79,16.23,0,.35-.03.69-.05,1.03h0c-.45-.03-.93-.08-1.42-.11l.02-.32c-.16-1.15-.3-2.32-.54-3.46-1.02-5.02-4.3-9.82-7.34-13.84-2.92-3.84-6.31-7.3-10-10.39-6.29-5.28-13.37-9.34-20.49-13.35.54-.56,1.09-1.09,1.66-1.59.43-.1.98-.3,1.58-.68.24-.15,1.14-.73,2.47-1.6,8.23,4.56,28.14,20.3,31.1,27.4h0c.07.2.14.4.21.59l.03.08Z"/>
          <path class="cls-4" d="m133.57,92.06l-.02.32c-7.08-.45-18.27.25-33.01,3.04-3.35.63-6.6,1.07-9.69,1.35-1.54,0-5.49-1.09-10.15-2.53l.03-.11c.26-3.69.66-7.24,1.19-10.62h0c.69-4.39,1.6-8.51,2.71-12.28.68-2.32,1.43-4.51,2.27-6.58.51-1.29,1.06-2.53,1.63-3.71.83-1.73,1.73-3.34,2.68-4.82,1.23-1.93,2.55-3.63,3.97-5.1,7.12,4.01,14.2,8.07,20.49,13.35,3.69,3.09,7.08,6.55,10,10.39,3.05,4.02,6.32,8.82,7.34,13.84.23,1.14.38,2.3.54,3.46Z"/>
          <path class="cls-8" d="m132.53,49.95l.23.19c-1.2,1.51-2.18,2.79-2.74,3.53l-8.3-9.03c.52-1.52.99-3.14,1.4-4.71,0,0,7.08,5.42,9.41,10.02Z"/>
          <path class="cls-4" d="m131.79,73.98c.07.19.14.38.21.58-2.96-7.1-22.87-22.84-31.1-27.4,2.04-1.33,5.1-3.33,8.48-5.53l2.97,3.67,2.19,2.73c.93,1.15,1.86,2.3,2.77,3.46.54.67,1.08,1.35,1.61,2.02,2.24,2.83,4.47,5.66,6.65,8.53,1.63,2.14,2.99,4.28,4.1,6.73.76,1.7,1.48,3.44,2.12,5.19Z"/>
          <path class="cls-4" d="m131.79,73.98c-.64-1.75-1.35-3.49-2.12-5.19-1.11-2.45-2.47-4.58-4.1-6.73-2.18-2.87-4.41-5.7-6.65-8.53-.54-.68-1.08-1.35-1.61-2.02l.16-.12c1.17-.35,2.25-1.91,3.19-4.01l.52.11c3.45,6.59,10.09,16.42,10.62,26.49Z"/>
          <path class="cls-11" d="m130.02,18.45c-3.83,2.59-7.98,5.41-11.92,8.13,0,0-4.49-.43-8.72,0-3.04-.53-7.5-7.86-7.5-10.14.32,3.51,3.39,4.68,12.48-.02h0c.69-.36,1.43-.76,2.2-1.19,5.69-1.05,9.69,1.56,13.45,3.22Z"/>
          <path class="cls-8" d="m124.88,31.65c-.03.22-.67,4.05-1.76,8.28-.41,1.57-.88,3.19-1.4,4.71-.33.97-.69,1.89-1.07,2.73-.94,2.1-2.01,3.66-3.19,4.01l-.16.12c-.91-1.16-1.84-2.31-2.77-3.46l.07-.05c3-1.11,5.7-13.44,5.7-13.44,1.67-1.07,3.22-2.06,4.57-2.9Z"/>
          <path class="cls-8" d="m120.32,34.55s-2.71,12.33-5.7,13.44l-.07.05-2.19-2.73c1.62-1.68,2.48-7.21,2.48-7.21,1.88-1.22,3.74-2.42,5.48-3.54Z"/>
          <path class="cls-12" d="m109.39,26.58c4.23-.43,8.72,0,8.72,0-4.02,2.78-7.81,5.43-10.79,7.58l-33.63-24.09c3.12-.24,7-.3,10.97-.38.62.52,20.57,17.31,24.73,16.89Z"/>
          <path class="cls-8" d="m114.84,38.09s-.86,5.54-2.48,7.21l-2.97-3.67c1.76-1.15,3.61-2.35,5.45-3.54Z"/>
          <path class="cls-11" d="m109.39,26.58c-4.17.42-24.12-16.37-24.73-16.89,8.22-.19,16.82-.56,19.65-3.26-1.43,3.65-2.65,7.44-2.42,9.99v.02c0,2.28,4.46,9.61,7.5,10.14Z"/>
          <path class="cls-12" d="m73.68,10.07l33.63,24.09c-.63.47-1.23.9-1.79,1.31-1.61,1.18-2.96,2.26-4.11,3.24L62.84,11.44l-19.37,22.77-7.27-3.34L61.97,1.68l11.71,8.39Z"/>
          <path class="cls-11" d="m104.31,6.43s1.2,7.38,10.06,9.99c-9.09,4.7-12.16,3.52-12.48.02v-.02c-.23-2.55.99-6.34,2.42-9.99Z"/>
          <path class="cls-12" d="m62.84,11.44l38.58,27.27c-2.49,2.15-3.98,3.87-4.8,5.32l-32.91-22.84-12.96,16.36-7.27-3.33,19.37-22.77Z"/>
          <path class="cls-4" d="m95.85,48.65c.12.5.5.91,1.01.79-.56.49-1.12,1.02-1.66,1.59-1.42,1.47-2.73,3.17-3.97,5.1l-40.48-18.57h0s12.96-16.36,12.96-16.36l32.91,22.84c-1.09,1.88-1.08,3.3-.77,4.62Z"/>
          <path class="cls-9" d="m50.75,37.55l40.48,18.57c-.95,1.48-1.85,3.09-2.68,4.82,0,0-52.67-20.25-73.05-26.39l.12-.39c1.35-2.15,9.34-8.45,9.34-8.45l11.24,5.16,7.27,3.34,7.27,3.33h0Z"/>
          <path class="cls-9" d="m88.54,60.94c-.57,1.18-1.12,2.41-1.63,3.71,0,0-64.32-18.3-86.41-16.32v-4.52s3.85-5.68,7.83-11c1.19.07,3.71.7,7.16,1.74,20.38,6.14,73.05,26.39,73.05,26.39Z"/>
          <path class="cls-9" d="m86.91,64.65c-.83,2.07-1.59,4.26-2.27,6.58h0S18.83,61.14.5,61.16v-12.83c22.09-1.98,86.41,16.32,86.41,16.32Z"/>
          <path class="cls-9" d="m84.64,71.23h0c-1.11,3.78-2.02,7.89-2.71,12.28h0c-.86-.21-52.92-12.83-81.43-9.51v-12.85c18.33-.02,84.14,10.07,84.14,10.07Z"/>
          <path class="cls-11" d="m77.48,118.36c2.22,3.4,3.56,6.06,11.31,6.35-2.29,1.67-5.12,3.19-8.18,4.58-8.53,2.22-25.89,1.18-32.83,1.38,10.05-.99,29.7-12.32,29.7-12.32Z"/>
          <path class="cls-9" d="m81.93,83.51c-.53,3.38-.93,6.93-1.19,10.62l-.03.11c-7.64-2.39-17.21-5.77-21.24-7.06-3.53-1.12-7.75,1.15-11.35,5.03,0,0-38.59-4.44-47.61-3.88v-14.32c28.51-3.32,80.57,9.3,81.43,9.51Z"/>
          <path class="cls-11" d="m80.62,129.29c-3.65,1.68-7.64,3.21-11.44,4.65-3-.04-25.22,1.81-26.93,1.92-1.95.12-15.11-22.74-17.1-23.52.83-.1,4.38-.49,8.62-.95,1.64,4.22,8.54,14.96,14.02,19.27,6.94-.2,24.3.84,32.83-1.38Z"/>
          <path class="cls-12" d="m69.59,116.31c3.64,1.18,6.7,2.05,7.89,2.05,0,0-19.65,11.33-29.7,12.32-5.48-4.31-12.38-15.05-14.02-19.27,1.32-.14,2.71-.29,4.11-.43,3.46,5.14,7.89,11.51,10.47,14.25,0,0,8.55-1.4,21.25-8.92h0Z"/>
          <path class="cls-12" d="m69.59,116.31h0c-12.7,7.53-21.25,8.92-21.25,8.92-2.58-2.74-7.01-9.12-10.47-14.25,1.56-.16,3.13-.31,4.64-.44l7.16,9.01c4.29-.3,11.11-3.06,14.44-5.08,1.87.64,3.74,1.28,5.49,1.84Z"/>
          <path class="cls-11" d="m69.18,133.95c-.07.03-.15.06-.22.09-17.84,4.15-38.01,4.86-38.01,4.86,4.28-1.03,11.3-3.03,11.3-3.03,1.71-.1,23.93-1.96,26.93-1.92Z"/>
          <path class="cls-12" d="m51.67,110.05c.95.28,6.62,2.4,12.44,4.42-3.32,2.01-10.15,4.77-14.44,5.08l-7.16-9.01c4.58-.43,8.46-.69,9.16-.49Z"/>
          <path class="cls-11" d="m25.15,112.35c1.99.78,15.15,23.64,17.1,23.52,0,0-7.02,2-11.3,3.03-.66.16-1.47.22-2.38.18v-.18c-1.3-3.49-11.21-17.63-11.51-18.07.4-.43.81-.84,1.21-1.27,1.11-1.15,2.21-2.3,3.18-3.34,1.82-1.94,3.22-3.48,3.52-3.84l.18-.03s0,0,0,0Z"/>
          <path class="cls-9" d="m48.11,92.21c-3.03,3.26-5.62,7.66-6.97,12.11-7.99-1.6-19.21.03-27.84,1.85-1.33.29-2.6.57-3.78.85-1.96.46-3.7.91-5.1,1.28-2.44.66-3.92,1.12-3.92,1.12v-21.1c9.02-.56,47.61,3.88,47.61,3.88Z"/>
          <path class="cls-11" d="m28.57,138.9v.18c-5.05-.18-13.33-3.05-17.58-5.79-5.91,5.31-10.5-2.53-10.5-2.53v-14.54c4.96,6.7,9.73,10.74,9.73,10.74.24.32,2.61-1.88,5.38-4.68.47-.47.95-.96,1.44-1.45.3.44,10.21,14.58,11.52,18.07Z"/>
          <path class="cls-12" d="m21.44,116.21c-.97,1.04-2.07,2.19-3.18,3.34h0c-5.82-4.04-8.73-12.54-8.73-12.54,1.18-.28,2.45-.56,3.78-.85,0,0,3.08,7.11,8.14,10.04Z"/>
          <path class="cls-12" d="m17.05,120.82c-.49.49-.97.98-1.44,1.45-8.19-6.55-11.2-13.97-11.2-13.97,1.41-.37,3.14-.82,5.1-1.28,0,0,2.92,8.5,8.73,12.53h0c-.4.43-.81.85-1.21,1.28Z"/>
          <path class="cls-12" d="m15.61,122.27c-2.77,2.8-5.14,5-5.38,4.68,0,0-4.77-4.04-9.73-10.74v-6.79s1.48-.46,3.92-1.12c0,0,3.01,7.42,11.2,13.97Z"/>
        </g>
        <g>
          <path class="cls-3" d="m124.88,31.65c-1.35.84-2.9,1.83-4.57,2.9-1.74,1.12-3.6,2.33-5.48,3.54-1.84,1.19-3.69,2.4-5.45,3.54-3.39,2.2-6.44,4.2-8.48,5.53-1.34.87-2.23,1.45-2.47,1.6-.6.37-1.15.57-1.58.68-.5.12-.89-.29-1.01-.79-.3-1.32-.31-2.74.77-4.62.82-1.45,2.31-3.17,4.8-5.32,1.15-.98,2.5-2.06,4.11-3.24.56-.41,1.15-.84,1.79-1.31,2.98-2.15,6.77-4.8,10.79-7.58,3.94-2.72,8.09-5.54,11.92-8.13,7.19-4.85,13.22-8.83,14.51-9.58,3.13-1.83,8.53-6.38,12.86-4.61s7.65,5.17,6.65,9.38c-.09-.02-.18-.03-.28-.05-3.24-.61-10.14-.45-13.8,1.27-3.77,1.77-16.07,11.42-21.38,14.51-.83.49-2.12,1.28-3.7,2.27"/>
          <path class="cls-3" d="m124.88,31.64h0c-.03.23-.67,4.05-1.76,8.29-.41,1.57-.88,3.19-1.4,4.71-.33.97-.69,1.89-1.07,2.73-.94,2.1-2.01,3.66-3.19,4.01"/>
          <path class="cls-3" d="m120.32,34.55s-2.71,12.33-5.7,13.44"/>
          <path class="cls-3" d="m132.24,75.23c1.8,5.2,2.99,10.7,2.79,16.23,0,.35-.03.69-.05,1.03"/>
          <path class="cls-3" d="m132,74.57c.07.19.14.39.21.58"/>
          <path class="cls-3" d="m109.39,41.63l2.97,3.67,2.19,2.73c.93,1.15,1.86,2.3,2.77,3.46.54.67,1.08,1.35,1.61,2.02,2.24,2.83,4.47,5.66,6.65,8.53,1.63,2.14,2.99,4.28,4.1,6.73.76,1.7,1.48,3.44,2.12,5.19.07.19.14.38.21.58"/>
          <path class="cls-3" d="m123.12,39.93s7.08,5.42,9.41,10.02"/>
          <path class="cls-3" d="m121.72,44.64l8.3,9.03c.56-.75,1.55-2.02,2.74-3.53,3.65-4.64,9.21-11.47,10.26-12.14"/>
          <path class="cls-3" d="m150.51,42.52c1.96-1.77,3.56-2.76,4.56-2.59"/>
          <path class="cls-3" d="m130.02,53.67l2.51,4.87,1.85,3.59c1.68-2.37,3.46-4.79,5.24-7.12,3.89-5.09,7.83-9.74,10.89-12.49"/>
          <path class="cls-3" d="m132.53,58.54s8.71-14.36,17.98-22.12"/>
          <path class="cls-3" d="m150.51,42.52h0c.11.26,4.53,10.46,8.1,18.64.55,1.25,1.07,2.46,1.55,3.57,1.53,3.47,2.67,6.07,2.88,6.5,2.01-1.33,5.69-3.78,9.3-6.5,4.85-3.65,9.61-7.74,10.21-10.2-.74-1.09-2.48-2.72-4.77-4.58-.64-.51-1.33-1.06-2.05-1.61-.57-.43-1.17-.89-1.78-1.35-1.15-.84-2.34-1.71-3.57-2.58-6.64-4.67-13.98-9.21-16.75-10.24"/>
          <path class="cls-3" d="m163.05,71.23s0,0,.02,0c.32.14.64.29.97.44,18.24,8.47,49.84,30.12,53.66,35.3"/>
          <path class="cls-3" d="m182.55,54.52c.29,3.19.12,7.67-.2,11.64-.25,3.07-.61,5.84-.93,7.44-.12.64-.25,1.09-.36,1.31-9.76-.67-15.02-2.4-17.03-3.24-.59-.24-.9-.41-.97-.44"/>
          <path class="cls-3" d="m172.34,64.72l8.72,10.19c9.24,4.32,35.12,18.26,40.91,25.09"/>
          <path class="cls-3" d="m177.77,49.95c.82.86-11.75,13.03-17.61,14.78"/>
          <path class="cls-3" d="m173.95,46.98c-4.7,5.86-9.77,10.69-15.34,14.18"/>
          <path class="cls-3" d="m182.35,66.16c2.19.77,4.3,1.54,6.35,2.46,4.46,1.97,8.66,4.62,12.91,9.4"/>
          <path class="cls-3" d="m180.63,43.8c1.51,1.42,3,2.83,4.39,4.18,4.93,4.77,8.83,8.9,9.49,10.56-.69,1.53-1.4,2.93-2.08,4.18-1.99,3.61-3.73,5.89-3.73,5.89"/>
          <path class="cls-3" d="m160.53,25.71s10.7,9.28,20.1,18.09"/>
          <polyline class="cls-3" points="185.04 47.99 185.03 47.99 175.73 48.32"/>
          <polyline class="cls-3" points="170.38 44.4 180.63 43.8 180.63 43.8"/>
          <path class="cls-3" d="m192.43,62.73c3.56,3.47,25.44,14.71,29.42,20.76,3.99,6.06,3.26,7.94,3.26,7.94-6.21-6.6-14.41-10.46-23.56-13.2-6.36-1.9-13.2-3.27-20.11-4.63"/>
          <path class="cls-3" d="m143.03,90.28c.1.11.21.23.33.36l.03.03c.08.08.16.16.25.24,8.7,8.34,52.17,26.88,56.35,27.45.92-.36,2.9-2.65,2.9-2.65"/>
          <path class="cls-3" d="m225.11,91.43c-.16,1.24-1.19,4.67-3.13,8.59-1.13,2.27-2.55,4.7-4.29,6.96-3.52,4.6-8.31,8.49-14.4,8.87-.14-.04-.27-.09-.41-.14-13.67-4.58-36.62-12.77-49.99-19.26-4.28-2.07-7.57-3.98-9.26-5.54"/>
          <path class="cls-3" d="m199.98,118.36s-.89,2.37-3.99,6.35c-1.21-.15-2.42-.35-3.65-.61-18.87-3.97-39.86-20.57-47.67-27.21-2.01-1.72-3.15-2.77-3.15-2.77-.82-.55-2.23-1.01-4.22-1.33-.7-.12-1.48-.22-2.34-.3-.45-.04-.93-.09-1.42-.12-7.08-.45-18.27.25-33.01,3.04-3.35.63-6.6,1.07-9.69,1.35-16.68,1.53-28.88-1.35-28.88-1.35"/>
          <path class="cls-3" d="m148.99,104.34c6.71,7.44,27.88,19.87,36.04,23.66,1.33.62,2.31,1.01,2.83,1.11,3.55-2.88,4.48-5.01,4.48-5.01"/>
          <path class="cls-3" d="m81.93,83.51c-.53,3.38-.93,6.93-1.19,10.62"/>
          <path class="cls-3" d="m96.85,49.44c-.56.49-1.12,1.02-1.66,1.59-1.42,1.47-2.73,3.17-3.97,5.1-.95,1.48-1.85,3.09-2.68,4.82-.57,1.18-1.12,2.41-1.63,3.71-.83,2.07-1.59,4.26-2.27,6.58-1.11,3.78-2.02,7.89-2.71,12.28"/>
          <path class="cls-3" d="m90.85,96.77c-1.54,0-5.49-1.09-10.15-2.53-7.64-2.39-17.21-5.77-21.24-7.06-3.53-1.12-7.75,1.15-11.35,5.03-3.03,3.26-5.62,7.66-6.97,12.11-7.99-1.6-19.21.03-27.84,1.85-1.33.29-2.6.57-3.78.85-1.96.46-3.7.91-5.1,1.28-2.44.66-3.92,1.12-3.92,1.12v21.33s4.58,7.85,10.5,2.53c4.25,2.74,12.53,5.61,17.57,5.79.91.03,1.72-.03,2.38-.18,4.28-1.03,11.3-3.03,11.3-3.03"/>
          <path class="cls-3" d="m90.34,84.45s21.72-.94,33.39,7.76"/>
          <path class="cls-3" d="m95.83,73.14c2.55.04,5.1.18,7.63.4,4.23.35,9.23.58,12.94,2.8.81.49,1.57,1.05,2.28,1.67,2.73,2.35,5.07,5.32,7.29,8.15,1.48,1.88,3.12,3.81,4.31,5.89"/>
          <path class="cls-3" d="m95.19,51.02c7.12,4.01,14.2,8.07,20.49,13.35,3.69,3.09,7.08,6.55,10,10.39,3.05,4.02,6.32,8.82,7.34,13.84.23,1.14.38,2.3.54,3.46"/>
          <path class="cls-3" d="m121.18,47.48c3.45,6.59,10.09,16.42,10.62,26.49v.03"/>
          <path class="cls-3" d="m148.99,104.34c.33.66,8,15.9,19.2,24.03,1.88,1.37,3.86,2.53,5.93,3.39l4.55,2.21,6.36-5.98"/>
          <path class="cls-3" d="m147.59,102.51c.35.56.82,1.16,1.4,1.81,0,0,0,0,0,.02"/>
          <path class="cls-3" d="m148.99,104.34h0"/>
          <path class="cls-3" d="m25.15,112.35c1.99.78,15.15,23.64,17.1,23.52,1.71-.1,23.93-1.96,26.93-1.92.21,0,.32,0,.33.03,9.09,2.34,28.67,5.1,31.4,1.94,2.52,4.6,18.33,6.37,20.95,5.26,6.28-1.32,13.54-5.34,19.67-9.38,2.85-1.88,5.45-3.77,7.6-5.39.88-.67,1.68-1.28,2.39-1.85.51-.4.98-.77,1.39-1.1.63-.5,1.13-.92,1.5-1.22.35-.29.57-.48.67-.56-.22-.62-.43-1.24-.66-1.88-.76-2.14-1.55-4.37-2.27-6.45-1.64-4.7-3.01-8.63-3.14-9"/>
          <path class="cls-3" d="m.5,116.21c4.96,6.7,9.73,10.74,9.73,10.74.24.32,2.61-1.88,5.38-4.68.47-.47.95-.96,1.44-1.45.4-.43.81-.84,1.21-1.27,1.11-1.15,2.21-2.3,3.18-3.34,1.82-1.94,3.22-3.48,3.52-3.84.04-.05.1-.06.18-.03"/>
          <path class="cls-3" d="m24.95,112.37l.18-.03s0,0,0,0c.83-.1,4.38-.49,8.62-.95,1.32-.14,2.71-.29,4.11-.43,1.56-.16,3.13-.31,4.64-.44,4.58-.43,8.46-.69,9.16-.49.95.28,6.62,2.4,12.44,4.42,1.87.64,3.74,1.28,5.49,1.84,3.64,1.18,6.7,2.05,7.89,2.05h10.76c7.31,1.11,25.7,1.15,38.9-4.18,4.77-1.35,24.99-.82,24.99-.82"/>
          <path class="cls-3" d="m86.91,118.36c4.21,3.44,11.05,8.99,27.42,3.55,16.36-5.43,40.07-2.11,40.07-2.11"/>
          <path class="cls-3" d="m102.92,130.67c7.82-2.56,23.63-6.88,31.41-7.21,7.77-.34,18.57,0,18.57,0"/>
          <path class="cls-3" d="m17.05,120.81h0c.3.45,10.21,14.59,11.52,18.08"/>
          <path class="cls-3" d="m30.94,138.9s20.18-.71,38.01-4.86c.07-.03.15-.05.22-.09,3.8-1.44,7.79-2.97,11.44-4.65,3.06-1.4,5.89-2.92,8.18-4.58,3.47,2.08,8.24,4.36,14.12,5.96h0c12.04,3.27,28.74,3.71,48.59-6.11"/>
          <path class="cls-3" d="m80.62,129.29c-8.53,2.22-25.89,1.18-32.83,1.38,10.05-.99,29.7-12.32,29.7-12.32,2.22,3.4,3.56,6.06,11.31,6.35"/>
          <path class="cls-3" d="m33.75,111.36s0,.03.02.04c1.64,4.22,8.54,14.96,14.02,19.27"/>
          <path class="cls-3" d="m37.87,110.98c3.46,5.14,7.89,11.51,10.47,14.25,0,0,8.55-1.4,21.25-8.92"/>
          <path class="cls-3" d="m42.51,110.53l7.16,9.01c4.29-.3,11.11-3.06,14.44-5.08"/>
          <path class="cls-3" d="m13.3,106.17s3.08,7.11,8.14,10.04"/>
          <path class="cls-3" d="m9.52,107.02s2.92,8.5,8.73,12.53"/>
          <path class="cls-3" d="m4.42,108.3s3.01,7.42,11.2,13.97"/>
          <path class="cls-3" d="m48.11,92.21s-38.59-4.44-47.61-3.88"/>
          <path class="cls-3" d="m81.94,83.51h0c-.86-.21-52.92-12.83-81.43-9.51"/>
          <path class="cls-3" d="m84.64,71.23S18.83,61.14.5,61.16"/>
          <path class="cls-3" d="m86.91,64.65S22.59,46.35.5,48.32"/>
          <path class="cls-3" d="m88.54,60.94S35.88,40.69,15.49,34.55c-3.46-1.04-5.97-1.68-7.16-1.74-3.98,5.32-7.83,11-7.83,11v65.62"/>
          <path class="cls-3" d="m50.75,37.54l-7.27-3.33-7.27-3.34-11.24-5.16s-7.99,6.29-9.34,8.45"/>
          <line class="cls-3" x1="91.23" y1="56.12" x2="50.75" y2="37.55"/>
          <polyline class="cls-3" points="50.75 37.55 50.75 37.54 63.71 21.19 96.62 44.03"/>
          <polyline class="cls-3" points="43.47 34.21 62.84 11.44 101.42 38.71"/>
          <polyline class="cls-3" points="36.2 30.87 61.97 1.68 73.68 10.07 107.31 34.16"/>
          <path class="cls-3" d="m146.46,84.92c8.21,4.36,17.76,7.88,17.76,7.88"/>
          <path class="cls-3" d="m139.63,54.99s0,.02,0,.03c-1.51,4.77-7.11,12.74-5.21,19.34.26.94.69,1.85,1.29,2.72.71,1.02,1.81,2.07,3.19,3.14.79.61,1.68,1.22,2.62,1.83,1.52.97,3.19,1.94,4.93,2.86"/>
          <polyline class="cls-3" points="146.46 84.91 146.46 84.92 152.9 96.44"/>
          <path class="cls-3" d="m138.9,80.22s-2.21,8.88-1.6,12.58"/>
          <path class="cls-3" d="m141.53,82.04h0c-.03,4.48,1.5,8.24,1.5,8.24l-1.5,3.85"/>
          <path class="cls-3" d="m149.12,126.41s.99,2.98,2.21,6.12,2.68,6.44,3.62,7.11c4.1.1,9.26,0,9.26,0-1.69-2.47-3.19-4.89-4.48-7.11-3.41-5.86-5.34-10.3-5.34-10.3"/>
          <line class="cls-3" x1="159.74" y1="132.53" x2="168.19" y2="128.37"/>
          <line class="cls-3" x1="141.53" y1="131.8" x2="151.34" y2="132.53"/>
          <line class="cls-3" x1="147.59" y1="102.51" x2="144.68" y2="96.9"/>
          <path class="cls-3" d="m146.57,20.24s3.09,1.34,3.94,1.93"/>
          <path class="cls-3" d="m156.17,24.53s2.59,1.59,2.81,2.05"/>
          <path class="cls-3" d="m155.07,25.55s-1.23,5.04-2.17,5.48-3.78,0-3.78,0"/>
          <line class="cls-3" x1="149.68" y1="27.33" x2="148.54" y2="29.56"/>
          <path class="cls-3" d="m146.46,33.36s1.39,1.16,2.66,1.19"/>
          <path class="cls-3" d="m156.82,15.93c-.23.53-1.13.65-2,.27s-1.38-1.12-1.15-1.65c.23-.54,1.13-.66,2-.28s1.38,1.13,1.15,1.66Z"/>
          <path class="cls-3" d="m162.37,18.53c-.36.46-1.25.35-2-.24-.74-.6-1.05-1.44-.69-1.9.36-.45,1.26-.34,2.01.25.74.59,1.04,1.44.68,1.89Z"/>
          <path class="cls-3" d="m138.07,35.02s1.11,1.93,3.14,2.55c.62.19,1.22.33,1.81.41,2.76.39,5.26-.31,7.47-1.57,1.11-.63,2.15-1.42,3.12-2.27,3.24-2.85,5.59-6.52,6.91-8.43,2.67-3.84,3.24-12.13,3.24-12.13"/>
          <path class="cls-3" d="m114.84,38.09s-.86,5.54-2.48,7.21"/>
          <path class="cls-3" d="m100.91,47.16c8.23,4.56,28.14,20.3,31.1,27.4h0c.09.21.16.41.21.59l.03.08"/>
          <path class="cls-3" d="m114.38,16.42c.69-.36,1.43-.76,2.2-1.19,5.69-1.05,9.69,1.56,13.45,3.22"/>
          <path class="cls-3" d="m101.89,16.44c.32,3.51,3.39,4.68,12.48-.02"/>
          <path class="cls-3" d="m73.68,10.07c3.12-.24,7-.3,10.97-.38,8.22-.19,16.82-.56,19.65-3.26-1.43,3.65-2.65,7.44-2.42,9.99"/>
          <path class="cls-3" d="m104.31,6.43s1.2,7.38,10.06,9.99h0"/>
          <path class="cls-3" d="m84.64,9.68s0,0,.02,0c.62.52,20.57,17.31,24.73,16.89,4.23-.43,8.72,0,8.72,0"/>
          <path class="cls-3" d="m101.89,16.42v.02c0,2.28,4.46,9.61,7.5,10.14"/>
        </g>
      </g>
    </g>
  </g>
</svg>