<?xml version="1.0" encoding="utf-8"?>
<!-- Generator: Adobe Illustrator 27.9.0, SVG Export Plug-In . SVG Version: 6.00 Build 0)  -->
<svg version="1.1" id="レイヤー_1" xmlns="http://www.w3.org/2000/svg" xmlns:xlink="http://www.w3.org/1999/xlink" x="0px"
	 y="0px" viewBox="0 0 272.4 197.8" style="enable-background:new 0 0 272.4 197.8;" xml:space="preserve">
<style type="text/css">
	.st0{fill:#F3EDD7;}
	.st1{fill:#333333;}
	.st2{fill:#D2D296;}
	.st3{fill:none;stroke:#000000;stroke-miterlimit:10;}
	.st4{clip-path:url(#SVGID_00000080891499640915626630000009457706199764882051_);}
	.st5{fill:#EE603C;}
	.st6{fill:#FAFADE;}
	.st7{fill:#BF93C6;}
	.st8{fill:#DEDA91;}
	.st9{fill:#EFE2C0;}
	.st10{fill:#F3FEE0;}
	.st11{fill:none;stroke:#000000;stroke-linecap:round;stroke-linejoin:round;}
</style>
<g id="_レイヤー_3">
	<g>
		<g>
			<rect x="0" y="162.9" class="st0" width="3.7" height="5.1"/>
			<path class="st0" d="M272.1,190.7v6.6h-30.7l15.5-8.7c1,1.6,3.1,2.7,5.6,2.7s4.7-1.2,5.7-2.9L272.1,190.7L272.1,190.7z"/>
			<path class="st0" d="M272.1,180.1v10.7l-4-2.2c0.4-0.7,0.6-1.4,0.6-2.2c0-1.3-0.6-2.5-1.6-3.4L272.1,180.1L272.1,180.1z"/>
			<path class="st0" d="M272.1,168v12.1l-5,2.8c-1.1-1-2.8-1.7-4.6-1.7s-3.3,0.6-4.5,1.5L231.7,168H272.1z"/>
			<polygon class="st0" points="272.1,82.2 272.1,88 0.9,88 0,88 0,82.2 			"/>
			<rect x="268.1" y="162.9" class="st0" width="4" height="5.1"/>
			<path class="st0" d="M268.7,186.3c0,0.8-0.2,1.5-0.6,2.2l-5.5-3.1l4.4-2.5C268.1,183.8,268.7,185,268.7,186.3L268.7,186.3z"/>
			<path class="st0" d="M262.6,185.4l5.5,3.1c-1,1.7-3.2,2.9-5.7,2.9s-4.5-1.1-5.6-2.7L262.6,185.4z"/>
			<rect x="256.7" y="162.9" class="st1" width="11.4" height="5.1"/>
			<path class="st0" d="M267.1,182.9l-4.4,2.5l-4.7-2.6c1.1-0.9,2.7-1.5,4.5-1.5C264.3,181.2,265.9,181.9,267.1,182.9L267.1,182.9z"
				/>
			<path class="st0" d="M262.6,185.4l-5.8,3.2c-0.4-0.7-0.7-1.5-0.7-2.3c0-1.4,0.7-2.6,1.8-3.5L262.6,185.4L262.6,185.4z"/>
			<path class="st0" d="M231.7,168l26.3,14.8c-1.1,0.9-1.8,2.2-1.8,3.5c0,0.8,0.3,1.6,0.7,2.3l-15.5,8.7h-41.8l-15.8-8.9
				c0.4-0.7,0.6-1.4,0.6-2.2c0-1.3-0.6-2.5-1.6-3.4l26.6-14.9L231.7,168L231.7,168z M225.6,186.3c0-2.8-2.3-5.1-5.1-5.1
				c-2.8,0-5.1,2.3-5.1,5.1s2.3,5.1,5.1,5.1C223.4,191.4,225.6,189.1,225.6,186.3z"/>
			<polygon class="st0" points="256.7,168 231.7,168 225.9,168 225.9,162.9 256.7,162.9 			"/>
			<rect x="214.5" y="162.9" class="st1" width="11.4" height="5.1"/>
			<path class="st1" d="M220.6,181.2c2.8,0,5.1,2.3,5.1,5.1s-2.3,5.1-5.1,5.1c-2.8,0-5.1-2.3-5.1-5.1S217.8,181.2,220.6,181.2z"/>
			<path class="st0" d="M209.3,168l-26.6,14.9c-1.1-1-2.8-1.7-4.6-1.7s-3.3,0.6-4.5,1.5L147.3,168H209.3z"/>
			<polygon class="st0" points="183.7,168 183.7,162.9 214.5,162.9 214.5,168 209.3,168 			"/>
			<path class="st0" d="M199.6,197.3h-42.5l15.5-8.7c1,1.6,3.1,2.7,5.6,2.7c2.4,0,4.7-1.2,5.7-2.9L199.6,197.3L199.6,197.3z"/>
			<path class="st0" d="M184.4,186.3c0,0.8-0.2,1.5-0.6,2.2l-5.5-3.1l4.4-2.5C183.8,183.8,184.4,185,184.4,186.3L184.4,186.3z"/>
			<path class="st0" d="M178.3,185.4l5.5,3.1c-1,1.7-3.2,2.9-5.7,2.9s-4.5-1.1-5.6-2.7L178.3,185.4L178.3,185.4z"/>
			<rect x="172.3" y="162.9" class="st1" width="11.4" height="5.1"/>
			<path class="st0" d="M178.1,181.2c1.8,0,3.5,0.6,4.6,1.7l-4.4,2.5l-4.7-2.6C174.8,181.8,176.4,181.2,178.1,181.2L178.1,181.2z"/>
			<path class="st0" d="M178.3,185.4l-5.8,3.2c-0.4-0.7-0.7-1.5-0.7-2.3c0-1.4,0.7-2.6,1.8-3.5L178.3,185.4L178.3,185.4z"/>
			<path class="st0" d="M147.3,168l26.3,14.8c-1.1,0.9-1.8,2.2-1.8,3.5c0,0.8,0.3,1.6,0.7,2.3l-15.5,8.7h-41.8l-15.8-8.9
				c0.4-0.7,0.6-1.4,0.6-2.2c0-1.3-0.6-2.5-1.6-3.4L125,168L147.3,168L147.3,168z M140.3,186.3c0-2.8-2.3-5.1-5.1-5.1
				c-2.8,0-5.1,2.3-5.1,5.1s2.3,5.1,5.1,5.1C138,191.4,140.3,189.1,140.3,186.3z"/>
			<polygon class="st0" points="172.3,168 147.3,168 141.5,168 141.5,162.9 172.3,162.9 			"/>
			<rect x="130.1" y="162.9" class="st1" width="11.4" height="5.1"/>
			<path class="st1" d="M135.2,181.2c2.8,0,5.1,2.3,5.1,5.1s-2.3,5.1-5.1,5.1c-2.8,0-5.1-2.3-5.1-5.1S132.4,181.2,135.2,181.2z"/>
			<path class="st0" d="M125,168l-26.6,14.9c-1.1-1-2.8-1.7-4.6-1.7c-1.8,0-3.3,0.6-4.5,1.5L63,168C63,168,125,168,125,168z"/>
			<polygon class="st0" points="130.1,168 125,168 99.4,168 99.4,162.9 130.1,162.9 			"/>
			<path class="st0" d="M115.3,197.3H72.8l15.5-8.7c1,1.6,3.1,2.7,5.6,2.7c2.4,0,4.7-1.2,5.7-2.9L115.3,197.3L115.3,197.3z"/>
			<path class="st0" d="M100.1,186.3c0,0.8-0.2,1.5-0.6,2.2l-5.5-3.1l4.4-2.5C99.5,183.8,100.1,185,100.1,186.3L100.1,186.3z"/>
			<path class="st0" d="M94,185.4l5.5,3.1c-1,1.7-3.2,2.9-5.7,2.9s-4.5-1.1-5.6-2.7C88.3,188.6,94,185.4,94,185.4z"/>
			<rect x="88" y="162.9" class="st1" width="11.4" height="5.1"/>
			<path class="st0" d="M93.8,181.2c1.8,0,3.5,0.6,4.6,1.7l-4.4,2.5l-4.7-2.6C90.5,181.8,92.1,181.2,93.8,181.2L93.8,181.2z"/>
			<path class="st0" d="M94,185.4l-5.8,3.2c-0.4-0.7-0.7-1.5-0.7-2.3c0-1.4,0.7-2.6,1.8-3.5L94,185.4L94,185.4z"/>
			<path class="st0" d="M63,168l26.3,14.8c-1.1,0.9-1.8,2.2-1.8,3.5c0,0.8,0.3,1.6,0.7,2.3l-15.5,8.7h-42L15,188.5
				c0.4-0.7,0.6-1.4,0.6-2.2c0-1.3-0.6-2.5-1.6-3.4L40.5,168L63,168L63,168z M54.4,186.3c0-2.8-2.3-5.1-5.1-5.1s-5.1,2.3-5.1,5.1
				s2.3,5.1,5.1,5.1S54.4,189.1,54.4,186.3z"/>
			<polygon class="st0" points="88,168 63,168 57.2,168 57.2,162.9 88,162.9 			"/>
			<rect x="45.8" y="162.9" class="st1" width="11.4" height="5.1"/>
			<path class="st1" d="M49.4,181.2c2.8,0,5.1,2.3,5.1,5.1s-2.3,5.1-5.1,5.1s-5.1-2.3-5.1-5.1S46.6,181.2,49.4,181.2z"/>
			<polygon class="st0" points="45.8,168 40.5,168 15,168 15,162.9 45.8,162.9 			"/>
			<path class="st0" d="M30.8,197.3H0v-6.6l3.8-2.1c1,1.6,3.1,2.7,5.6,2.7s4.7-1.2,5.7-2.9L30.8,197.3L30.8,197.3z"/>
			<path class="st0" d="M15.6,186.3c0,0.8-0.2,1.5-0.6,2.2l-5.5-3.1l4.4-2.5C15,183.8,15.6,185,15.6,186.3L15.6,186.3z"/>
			<rect x="3.6" y="162.9" class="st1" width="11.4" height="5.1"/>
			<path class="st0" d="M9.5,185.4l5.5,3.1c-1,1.7-3.2,2.9-5.7,2.9s-4.5-1.1-5.6-2.7L9.5,185.4z"/>
			<path class="st0" d="M9.3,181.2c1.8,0,3.5,0.6,4.6,1.7l-4.4,2.5l-4.7-2.6C6,181.8,7.6,181.2,9.3,181.2L9.3,181.2z"/>
			<path class="st0" d="M9.5,185.4l-5.8,3.2c-0.4-0.7-0.7-1.5-0.7-2.3c0-1.4,0.7-2.6,1.8-3.5L9.5,185.4L9.5,185.4z"/>
			<path class="st0" d="M0,180l4.9,2.7c-1.1,0.9-1.8,2.2-1.8,3.5c0,0.8,0.3,1.6,0.7,2.3L0,190.8L0,180L0,180z"/>
			<polygon class="st2" points="214.5,162.9 183.7,162.9 172.3,162.9 141.5,162.9 130.1,162.9 99.4,162.9 88,162.9 57.2,162.9 
				45.8,162.9 15,162.9 3.6,162.9 0,162.9 0,88 0.9,88 272.1,88 272.1,162.9 268.1,162.9 256.7,162.9 225.9,162.9 			"/>
			<path class="st0" d="M0,168h40.5l-26.6,14.9c-1.1-1-2.8-1.7-4.6-1.7s-3.3,0.6-4.5,1.5L0,180L0,168L0,168z"/>
		</g>
		<g>
			<polyline class="st3" points="272.1,197.3 241.4,197.3 199.6,197.3 157.1,197.3 115.3,197.3 72.8,197.3 30.8,197.3 0,197.3 			
				"/>
			<line class="st3" x1="0" y1="82.2" x2="272.1" y2="82.2"/>
			<line class="st3" x1="0" y1="88" x2="272.1" y2="88"/>
			<line class="st3" x1="268.1" y1="162.9" x2="272.1" y2="162.9"/>
			<line class="st3" x1="225.9" y1="162.9" x2="256.7" y2="162.9"/>
			<line class="st3" x1="183.7" y1="162.9" x2="214.5" y2="162.9"/>
			<line class="st3" x1="141.5" y1="162.9" x2="172.3" y2="162.9"/>
			<line class="st3" x1="99.4" y1="162.9" x2="130.1" y2="162.9"/>
			<line class="st3" x1="57.2" y1="162.9" x2="88" y2="162.9"/>
			<line class="st3" x1="15" y1="162.9" x2="45.8" y2="162.9"/>
			<line class="st3" x1="0" y1="162.9" x2="3.6" y2="162.9"/>
			<line class="st3" x1="268.1" y1="168" x2="272.1" y2="168"/>
			<polyline class="st3" points="225.9,168 231.7,168 256.7,168 			"/>
			<polyline class="st3" points="183.7,168 209.3,168 214.5,168 			"/>
			<polyline class="st3" points="141.5,168 147.3,168 172.3,168 			"/>
			<polyline class="st3" points="99.4,168 125,168 130.1,168 			"/>
			<polyline class="st3" points="57.2,168 63,168 88,168 			"/>
			<polyline class="st3" points="15,168 40.5,168 45.8,168 			"/>
			<line class="st3" x1="0" y1="168" x2="3.6" y2="168"/>
			<polyline class="st3" points="72.8,197.3 88.3,188.6 94,185.4 98.5,182.9 125,168 			"/>
			<polyline class="st3" points="115.3,197.3 99.5,188.5 94,185.4 89.3,182.8 63,168 			"/>
			<path class="st3" d="M140.3,186.3c0,2.8-2.3,5.1-5.1,5.1c-2.8,0-5.1-2.3-5.1-5.1c0-2.8,2.3-5.1,5.1-5.1
				C138,181.2,140.3,183.5,140.3,186.3z"/>
			<path class="st3" d="M225.6,186.3c0,2.8-2.3,5.1-5.1,5.1c-2.8,0-5.1-2.3-5.1-5.1c0-2.8,2.3-5.1,5.1-5.1
				C223.4,181.2,225.6,183.5,225.6,186.3z"/>
			<path class="st3" d="M98.5,182.9c1,0.9,1.6,2.1,1.6,3.4c0,0.8-0.2,1.5-0.6,2.2c-1,1.7-3.2,2.9-5.7,2.9s-4.5-1.1-5.6-2.7
				c-0.4-0.7-0.7-1.5-0.7-2.3c0-1.4,0.7-2.6,1.8-3.5c1.1-0.9,2.7-1.5,4.5-1.5C95.7,181.2,97.3,181.9,98.5,182.9L98.5,182.9z"/>
			<polyline class="st3" points="0,190.7 3.8,188.6 9.5,185.4 13.9,182.9 40.5,168 			"/>
			<polyline class="st3" points="30.8,197.3 15,188.5 9.5,185.4 4.8,182.8 0,180 			"/>
			<path class="st3" d="M13.9,182.9c1,0.9,1.6,2.1,1.6,3.4c0,0.8-0.2,1.5-0.6,2.2c-1,1.7-3.2,2.9-5.7,2.9s-4.5-1.1-5.6-2.7
				c-0.4-0.7-0.7-1.5-0.7-2.3c0-1.4,0.7-2.6,1.8-3.5c1.1-0.9,2.7-1.5,4.5-1.5C11.2,181.2,12.8,181.9,13.9,182.9L13.9,182.9z"/>
			<polyline class="st3" points="157.1,197.3 172.6,188.6 178.3,185.4 182.8,182.9 209.3,168 			"/>
			<polyline class="st3" points="199.6,197.3 183.8,188.5 178.3,185.4 173.7,182.8 147.3,168 			"/>
			<path class="st3" d="M182.8,182.9c1,0.9,1.6,2.1,1.6,3.4c0,0.8-0.2,1.5-0.6,2.2c-1,1.7-3.2,2.9-5.7,2.9s-4.5-1.1-5.6-2.7
				c-0.4-0.7-0.7-1.5-0.7-2.3c0-1.4,0.7-2.6,1.8-3.5c1.1-0.9,2.7-1.5,4.5-1.5C180,181.2,181.6,181.9,182.8,182.9L182.8,182.9z"/>
			<polyline class="st3" points="241.4,197.3 256.9,188.6 262.6,185.4 267.1,182.9 272.1,180.1 			"/>
			<polyline class="st3" points="272.1,190.7 268.1,188.5 262.6,185.4 258,182.8 231.7,168 			"/>
			<path class="st3" d="M267.1,182.9c1,0.9,1.6,2.1,1.6,3.4c0,0.8-0.2,1.5-0.6,2.2c-1,1.7-3.2,2.9-5.7,2.9s-4.5-1.1-5.6-2.7
				c-0.4-0.7-0.7-1.5-0.7-2.3c0-1.4,0.7-2.6,1.8-3.5c1.1-0.9,2.7-1.5,4.5-1.5C264.3,181.2,265.9,181.9,267.1,182.9L267.1,182.9z"/>
			<path class="st3" d="M54.4,186.3c0,2.8-2.3,5.1-5.1,5.1s-5.1-2.3-5.1-5.1c0-2.8,2.3-5.1,5.1-5.1S54.4,183.5,54.4,186.3z"/>
			<rect x="3.6" y="162.9" class="st3" width="11.4" height="5.1"/>
			<rect x="45.8" y="162.9" class="st3" width="11.4" height="5.1"/>
			<rect x="88" y="162.9" class="st3" width="11.4" height="5.1"/>
			<rect x="130.1" y="162.9" class="st3" width="11.4" height="5.1"/>
			<rect x="172.3" y="162.9" class="st3" width="11.4" height="5.1"/>
			<rect x="214.5" y="162.9" class="st3" width="11.4" height="5.1"/>
			<rect x="256.7" y="162.9" class="st3" width="11.4" height="5.1"/>
		</g>
	</g>
</g>
<g id="_レイヤー_2">
	<g>
		<defs>
			<rect id="SVGID_1_" x="0" y="5.3" width="231.7" height="145.1"/>
		</defs>
		<clipPath id="SVGID_00000152227280645602666980000010020236188723779731_">
			<use xlink:href="#SVGID_1_"  style="overflow:visible;"/>
		</clipPath>
		<g style="clip-path:url(#SVGID_00000152227280645602666980000010020236188723779731_);">
			<g>
				<g>
					<path class="st5" d="M221.4,89.5c4,6.1,3.3,8,3.3,8c-6.3-6.7-14.5-10.5-23.8-13.3L201,84c-4.3-4.8-8.5-7.5-13-9.5l0,0
						c0,0,1.8-2.3,3.8-5.9C195.3,72.1,217.4,83.4,221.4,89.5L221.4,89.5z"/>
					<path class="st5" d="M224.7,97.5c-0.2,1.3-1.2,4.7-3.2,8.7l0,0c-5.8-6.9-31.9-20.9-41.3-25.3c0.1-0.2,0.2-0.7,0.4-1.3l0,0
						c7,1.4,13.9,2.8,20.3,4.7C210.2,87,218.4,90.9,224.7,97.5L224.7,97.5z"/>
					<path class="st6" d="M221.5,106.2L221.5,106.2c-1.1,2.3-2.6,4.8-4.3,7c-3.9-5.2-35.7-27.1-54.1-35.6c2,0.8,7.3,2.6,17.2,3.3
						C189.6,85.2,215.7,99.3,221.5,106.2L221.5,106.2z"/>
					<path class="st7" d="M145.4,90.9L145.4,90.9c-1.8-0.9-3.4-1.9-5-2.9c-1-0.6-1.8-1.2-2.6-1.8c-1.4-1.1-2.5-2.1-3.2-3.2
						c-0.6-0.9-1-1.8-1.3-2.7c-1.9-6.7,3.7-14.7,5.3-19.5c3.9-5.1,7.9-9.8,11-12.6c0.1,0.3,4.6,10.5,8.2,18.8
						c0.6,1.3,1.1,2.5,1.6,3.6c1.5,3.5,2.7,6.1,2.9,6.6c0,0,0,0,0,0c0.1,0,0.4,0.2,1,0.4c18.4,8.5,50.3,30.4,54.1,35.6
						c-3.6,4.6-8.4,8.6-14.5,8.9c-0.1,0-0.3-0.1-0.4-0.1c-13.8-4.6-36.9-12.9-50.4-19.4L145.4,90.9L145.4,90.9z"/>
					<path class="st6" d="M202.3,122c0,0-2,2.3-2.9,2.7c-4.2-0.6-48.1-19.3-56.8-27.7c1.7,1.6,5,3.5,9.3,5.6
						C165.3,109.1,188.5,117.4,202.3,122z"/>
					<path class="st5" d="M201,84l-0.1,0.2c-6.4-1.9-13.3-3.3-20.3-4.7l0,0c0.3-1.6,0.7-4.4,0.9-7.5c2.2,0.8,4.3,1.6,6.4,2.5
						C192.5,76.5,196.7,79.2,201,84L201,84z"/>
					<path class="st5" d="M199.4,124.7c0,0-0.9,2.4-4,6.4c-1.2-0.2-2.4-0.4-3.7-0.6c-19-4-40.2-20.7-48.1-27.4
						c-2-1.7-3.2-2.8-3.2-2.8l1.5-3.9c0.1,0.1,0.2,0.2,0.3,0.4l0,0c0.1,0.1,0.2,0.2,0.3,0.2C151.3,105.4,195.1,124.1,199.4,124.7
						L199.4,124.7z"/>
					<path class="st5" d="M193.9,64.3c-0.7,1.5-1.4,3-2.1,4.2c-2,3.6-3.8,5.9-3.8,5.9l0,0c-2.1-0.9-4.2-1.7-6.4-2.5
						c0.3-4,0.5-8.5,0.2-11.7c-0.7-1.1-2.5-2.7-4.8-4.6c-0.6-0.5-1.3-1.1-2.1-1.6l9.4-0.3C189.3,58.5,193.2,62.7,193.9,64.3
						L193.9,64.3z"/>
					<path class="st5" d="M191.7,130.5c0,0-0.9,2.1-4.5,5.1c-0.5-0.1-1.5-0.5-2.9-1.1c-8.2-3.8-29.6-16.4-36.4-23.9v0
						c-0.6-0.6-1.1-1.3-1.4-1.8l-2.9-5.7C151.5,109.7,172.6,126.5,191.7,130.5L191.7,130.5z"/>
					<path class="st6" d="M184.3,134.4l-6.4,6l-4.6-2.2c-2.1-0.9-4.1-2-6-3.4c-11.3-8.2-19-23.6-19.4-24.2l0,0
						C154.7,118,176.1,130.6,184.3,134.4L184.3,134.4z"/>
					<path class="st8" d="M184.3,53.7l-9.4,0.3c-0.6-0.4-1.2-0.9-1.8-1.4c-1.2-0.8-2.4-1.7-3.6-2.6l10.3-0.6l0,0
						C181.4,50.9,182.9,52.3,184.3,53.7L184.3,53.7z"/>
					<path class="st5" d="M181.8,60.3c0.3,3.2,0.1,7.7-0.2,11.7c-0.3,3.1-0.6,5.9-0.9,7.5c-0.1,0.6-0.3,1.1-0.4,1.3l-8.8-10.3
						C176.4,66.9,181.2,62.8,181.8,60.3L181.8,60.3z"/>
					<path class="st5" d="M171.5,70.6l8.8,10.3c-9.8-0.7-15.1-2.4-17.2-3.3c-0.3-0.2-0.7-0.3-1-0.4h0
						C164.1,75.8,167.8,73.3,171.5,70.6L171.5,70.6z"/>
					<path class="st5" d="M179.8,49.5l-10.3,0.6c-6.7-4.7-14.1-9.3-16.9-10.3v0c3.3-2.9,5.6-6.6,7-8.5
						C159.6,31.2,170.4,40.6,179.8,49.5L179.8,49.5z"/>
					<path class="st8" d="M177,55.7c2.3,1.9,4.1,3.5,4.8,4.6c-0.6,2.5-5.4,6.6-10.3,10.3c-3.6,2.7-7.3,5.2-9.4,6.6
						c-0.2-0.4-1.4-3.1-2.9-6.6C165.1,68.8,177.8,56.5,177,55.7L177,55.7L177,55.7z"/>
					<path class="st8" d="M177,55.7c0.8,0.9-11.9,13.1-17.8,14.9c-0.5-1.1-1-2.3-1.6-3.6c5.6-3.5,10.7-8.4,15.5-14.3
						c0.6,0.5,1.2,0.9,1.8,1.4C175.6,54.6,176.3,55.2,177,55.7L177,55.7L177,55.7z"/>
					<path class="st7" d="M149.5,48.2c-3.1,2.8-7.1,7.5-11,12.6c-1.8,2.4-3.6,4.8-5.3,7.2l-1.9-3.6c0,0,8.8-14.5,18.1-22.3v0
						c1.1-0.6,2.2-1.4,3.1-2.3v0c2.8,1,10.2,5.6,16.9,10.3c1.2,0.9,2.4,1.8,3.6,2.6c-4.7,5.9-9.9,10.8-15.5,14.3
						C154,58.7,149.6,48.4,149.5,48.2L149.5,48.2z"/>
					<path class="st6" d="M167.3,134.8l-8.5,4.2c-3.4-5.9-5.4-10.4-5.4-10.4c0.4-0.3,0.6-0.5,0.7-0.6c-0.2-0.6-0.4-1.3-0.7-1.9
						c-0.8-2.2-1.6-4.4-2.3-6.5c-1.7-4.7-3-8.7-3.2-9.1C148.3,111.2,156,126.6,167.3,134.8L167.3,134.8z"/>
					<path class="st1" d="M156.4,9.6c4.4,1.8,7.7,5.2,6.7,9.5c-0.1,0-0.2,0-0.3-0.1c-3.3-0.6-10.2-0.5-13.9,1.3
						c-3.8,1.8-16.2,11.5-21.6,14.6c-0.8,0.5-2.1,1.3-3.7,2.3l0,0c-1.4,0.9-2.9,1.9-4.6,2.9c-1.8,1.1-3.6,2.4-5.5,3.6
						c-1.9,1.2-3.7,2.4-5.5,3.6c-3.4,2.2-6.5,4.2-8.6,5.6c-1.4,0.9-2.2,1.5-2.5,1.6c-0.6,0.4-1.2,0.6-1.6,0.7
						c-0.5,0.1-0.9-0.3-1-0.8C94,53,94,51.6,95.1,49.7c0.8-1.5,2.3-3.2,4.8-5.4c1.2-1,2.5-2.1,4.1-3.3c0.6-0.4,1.2-0.8,1.8-1.3
						c3-2.2,6.8-4.8,10.9-7.6c4-2.7,8.2-5.6,12-8.2c7.3-4.9,13.3-8.9,14.6-9.7C146.6,12.4,152,7.8,156.4,9.6L156.4,9.6z"/>
					<path class="st9" d="M141.9,43.6L141.9,43.6c-1.1,0.7-6.7,7.6-10.3,12.3l-0.2-0.2c-2.4-4.6-9.5-10.1-9.5-10.1
						c1.1-4.3,1.7-8.1,1.8-8.4l0,0c1.6-1,2.9-1.8,3.7-2.3c5.4-3.1,17.8-12.8,21.6-14.6c3.7-1.7,10.7-1.9,13.9-1.3
						c0,0-0.6,8.4-3.3,12.2c-1.3,1.9-3.7,5.6-7,8.5c-1,0.9-2,1.6-3.1,2.3C147.2,43.3,144.7,44,141.9,43.6L141.9,43.6z M161.4,24
						c0.4-0.5,0.1-1.3-0.7-1.9c-0.8-0.6-1.7-0.7-2-0.3c-0.4,0.5-0.1,1.3,0.7,1.9C160.2,24.3,161.1,24.5,161.4,24L161.4,24z
						 M155.8,21.4c0.2-0.5-0.3-1.3-1.2-1.7c-0.9-0.4-1.8-0.3-2,0.3c-0.2,0.5,0.3,1.3,1.2,1.7C154.7,22,155.6,21.9,155.8,21.4z"/>
					<path class="st1" d="M160.7,22.1c0.7,0.6,1,1.5,0.7,1.9c-0.4,0.5-1.3,0.4-2-0.2c-0.7-0.6-1.1-1.5-0.7-1.9
						C159.1,21.4,160,21.5,160.7,22.1L160.7,22.1z"/>
					<path class="st6" d="M163.3,146.1c0,0-5.2,0.1-9.3,0c-0.9-0.7-2.4-4-3.7-7.2c-1.2-3.2-2.2-6.2-2.2-6.2c0.9-0.7,1.7-1.3,2.4-1.9
						c0.5-0.4,1-0.8,1.4-1.1c0.6-0.5,1.1-0.9,1.5-1.2c0,0,1.9,4.5,5.4,10.4C160.1,141.2,161.6,143.7,163.3,146.1L163.3,146.1z"/>
					<path class="st1" d="M154.7,19.7c0.9,0.4,1.4,1.1,1.2,1.7c-0.2,0.5-1.1,0.7-2,0.3c-0.9-0.4-1.4-1.1-1.2-1.7
						C152.9,19.4,153.8,19.3,154.7,19.7z"/>
					<path class="st8" d="M153.4,126.1c0.2,0.6,0.4,1.3,0.7,1.9c-0.1,0.1-0.3,0.3-0.7,0.6c-0.4,0.3-0.9,0.7-1.5,1.2
						c0,0-10.9-0.3-18.7,0c-7.8,0.3-23.8,4.7-31.7,7.3l0,0c-5.9-1.6-10.7-3.9-14.2-6c-7.8-0.3-9.2-3-11.4-6.4h9.5
						c4.2,3.5,11.1,9.1,27.7,3.6C129.5,122.8,153.4,126.1,153.4,126.1L153.4,126.1z"/>
					<path class="st8" d="M153.4,126.1L153.4,126.1c0,0-23.9-3.3-40.4,2.1c-16.5,5.5-23.4-0.1-27.7-3.6h1.3
						c7.4,1.1,25.9,1.2,39.2-4.2c4.8-1.4,25.2-0.8,25.2-0.8C151.8,121.7,152.6,124,153.4,126.1L153.4,126.1z"/>
					<path class="st7" d="M145.4,90.9l6.5,11.6c-4.3-2.1-7.6-4-9.3-5.6c-0.1-0.1-0.2-0.2-0.3-0.2l0,0c-0.1-0.1-0.2-0.2-0.3-0.4
						c0,0-1.5-3.8-1.5-8.3C141.9,89,143.6,90,145.4,90.9L145.4,90.9L145.4,90.9z"/>
					<path class="st5" d="M151.9,129.8c-0.4,0.3-0.9,0.7-1.4,1.1c-20,9.9-36.9,9.5-49,6.2c7.9-2.6,23.8-6.9,31.7-7.3
						C141,129.5,151.9,129.8,151.9,129.8z"/>
					<path class="st6" d="M148.1,132.8c0,0,1,3,2.2,6.2l-9.9-0.7C143.3,136.3,145.9,134.4,148.1,132.8L148.1,132.8z"/>
					<path class="st7" d="M89.3,102.9c3.1-0.3,6.4-0.7,9.8-1.4c14.9-2.8,26.2-3.5,33.3-3.1c0.5,0,1,0.1,1.4,0.1
						c0.9,0.1,1.6,0.2,2.4,0.3c2,0.3,3.4,0.8,4.3,1.3c0,0,1.1,1.1,3.2,2.8l2.9,5.7c0.4,0.6,0.8,1.2,1.4,1.8c0,0,0,0,0,0l0,0
						c0.1,0.4,1.5,4.3,3.2,9.1c0,0-20.4-0.5-25.2,0.8c-13.3,5.4-31.9,5.3-39.2,4.2H75.8c-1.2,0-4.3-0.9-8-2.1
						c-1.8-0.6-3.7-1.2-5.5-1.9c-5.9-2-11.6-4.2-12.5-4.5c-0.7-0.2-4.6,0.1-9.2,0.5c-1.5,0.1-3.1,0.3-4.7,0.4
						c-1.4,0.1-2.8,0.3-4.1,0.4c-4.3,0.5-7.9,0.9-8.7,1l0,0c-0.1,0-0.1,0-0.2,0c-0.3,0.4-1.7,1.9-3.6,3.9c-5.1-3-8.2-10.1-8.2-10.1
						c8.7-1.8,20-3.5,28.1-1.9c1.4-4.5,4-8.9,7-12.2c3.6-3.9,7.9-6.2,11.4-5.1c4.1,1.3,13.7,4.7,21.4,7.1
						C83.7,101.8,87.7,102.9,89.3,102.9L89.3,102.9z"/>
					<path class="st10" d="M149.5,42L149.5,42c-9.3,7.8-18.1,22.3-18.1,22.3l-2.5-4.9c0.6-0.8,1.6-2,2.8-3.6
						c3.7-4.7,9.3-11.6,10.3-12.2v0C144.7,44,147.2,43.3,149.5,42L149.5,42z"/>
					<path class="st5" d="M150.5,130.9c-0.7,0.6-1.5,1.2-2.4,1.9c-2.2,1.6-4.8,3.5-7.7,5.4c-6.2,4.1-13.5,8.1-19.8,9.5
						c-2.6,1.1-18.6-0.7-21.1-5.3c-2.8,3.2-22.5,0.4-31.7-2c0,0-0.1,0-0.3,0c3.8-1.5,7.9-3,11.5-4.7c3.1-1.4,5.9-2.9,8.3-4.6
						c3.5,2.1,8.3,4.4,14.2,6l0,0C113.6,140.4,130.4,140.8,150.5,130.9L150.5,130.9z"/>
					<path class="st7" d="M141.9,96.4l-1.5,3.9c-0.8-0.6-2.2-1-4.3-1.3c-0.6-3.7,1.6-12.7,1.6-12.7c0.8,0.6,1.7,1.2,2.6,1.8
						C140.4,92.6,141.9,96.4,141.9,96.4z"/>
					<path class="st7" d="M137.8,86.2c0,0-2.2,9-1.6,12.7c-0.7-0.1-1.5-0.2-2.4-0.3l0,0c0-0.4,0-0.7,0.1-1c0.2-5.6-1-11.1-2.8-16.4
						l0-0.1l2.2-0.8c0.3,0.9,0.7,1.9,1.3,2.7C135.2,84.1,136.3,85.1,137.8,86.2L137.8,86.2z"/>
					<path class="st7" d="M133.2,68c1.7-2.4,3.5-4.8,5.3-7.2c-1.5,4.8-7.2,12.8-5.3,19.5l-2.2,0.8c-0.1-0.2-0.1-0.4-0.2-0.6l0,0
						c-0.1-0.2-0.1-0.4-0.2-0.6c-0.5-10.2-7.2-20.1-10.7-26.7l-0.5-0.1c0.4-0.8,0.7-1.8,1.1-2.8l8.4,9.1l2.5,4.9L133.2,68L133.2,68z
						"/>
					<path class="st7" d="M131,81.2c1.8,5.2,3,10.8,2.8,16.4c0,0.4,0,0.7-0.1,1l0,0c-0.5,0-0.9-0.1-1.4-0.1l0-0.3
						c-0.2-1.2-0.3-2.3-0.5-3.5c-1-5.1-4.3-9.9-7.4-14c-2.9-3.9-6.4-7.4-10.1-10.5c-6.3-5.3-13.5-9.4-20.7-13.5
						c0.5-0.6,1.1-1.1,1.7-1.6c0.4-0.1,1-0.3,1.6-0.7c0.2-0.2,1.1-0.7,2.5-1.6c8.3,4.6,28.4,20.5,31.4,27.6l0,0
						C130.9,80.7,131,80.9,131,81.2L131,81.2L131,81.2z"/>
					<path class="st7" d="M132.4,98.1l0,0.3c-7.1-0.5-18.4,0.3-33.3,3.1c-3.4,0.6-6.7,1.1-9.8,1.4c-1.6,0-5.5-1.1-10.2-2.6l0-0.1
						c0.3-3.7,0.7-7.3,1.2-10.7l0,0c0.7-4.4,1.6-8.6,2.7-12.4c0.7-2.3,1.4-4.5,2.3-6.6c0.5-1.3,1.1-2.6,1.6-3.7
						c0.8-1.7,1.7-3.4,2.7-4.9c1.2-1.9,2.6-3.7,4-5.1c7.2,4,14.3,8.1,20.7,13.5c3.7,3.1,7.1,6.6,10.1,10.5c3.1,4.1,6.4,8.9,7.4,14
						C132,95.8,132.2,97,132.4,98.1L132.4,98.1z"/>
					<path class="st10" d="M131.3,55.7l0.2,0.2c-1.2,1.5-2.2,2.8-2.8,3.6l-8.4-9.1c0.5-1.5,1-3.2,1.4-4.8
						C121.8,45.6,129,51,131.3,55.7L131.3,55.7z"/>
					<path class="st7" d="M130.6,79.9c0.1,0.2,0.1,0.4,0.2,0.6c-3-7.2-23.1-23-31.4-27.6c2.1-1.3,5.1-3.4,8.6-5.6l3,3.7l2.2,2.8
						c0.9,1.2,1.9,2.3,2.8,3.5c0.5,0.7,1.1,1.4,1.6,2c2.3,2.9,4.5,5.7,6.7,8.6c1.6,2.2,3,4.3,4.1,6.8
						C129.2,76.4,129.9,78.1,130.6,79.9L130.6,79.9z"/>
					<path class="st7" d="M130.6,79.9c-0.6-1.8-1.4-3.5-2.1-5.2c-1.1-2.5-2.5-4.6-4.1-6.8c-2.2-2.9-4.4-5.7-6.7-8.6
						c-0.5-0.7-1.1-1.4-1.6-2l0.2-0.1c1.2-0.4,2.3-1.9,3.2-4l0.5,0.1C123.4,59.8,130.1,69.8,130.6,79.9L130.6,79.9z"/>
					<path class="st5" d="M128.8,23.9c-3.9,2.6-8,5.5-12,8.2c0,0-4.5-0.4-8.8,0c-3.1-0.5-7.6-7.9-7.6-10.2c0.3,3.5,3.4,4.7,12.6,0
						l0,0c0.7-0.4,1.4-0.8,2.2-1.2C121,19.6,125,22.2,128.8,23.9L128.8,23.9z"/>
					<path class="st10" d="M123.6,37.2c0,0.2-0.7,4.1-1.8,8.4c-0.4,1.6-0.9,3.2-1.4,4.8c-0.3,1-0.7,1.9-1.1,2.8
						c-0.9,2.1-2,3.7-3.2,4l-0.2,0.1c-0.9-1.2-1.9-2.3-2.8-3.5l0.1-0.1c3-1.1,5.7-13.6,5.7-13.6C120.7,39.1,122.2,38.1,123.6,37.2
						L123.6,37.2z"/>
					<path class="st10" d="M119,40.1c0,0-2.7,12.4-5.7,13.6l-0.1,0.1L111,51c1.6-1.7,2.5-7.3,2.5-7.3
						C115.4,42.5,117.3,41.3,119,40.1L119,40.1z"/>
					<path class="st8" d="M108,32.1c4.3-0.4,8.8,0,8.8,0c-4.1,2.8-7.9,5.5-10.9,7.6L72,15.5c3.1-0.2,7.1-0.3,11.1-0.4
						C83.7,15.6,103.8,32.5,108,32.1z"/>
					<path class="st10" d="M113.5,43.7c0,0-0.9,5.6-2.5,7.3l-3-3.7C109.8,46.1,111.6,44.9,113.5,43.7z"/>
					<path class="st5" d="M108,32.1c-4.2,0.4-24.3-16.5-24.9-17c8.3-0.2,17-0.6,19.8-3.3c-1.4,3.7-2.7,7.5-2.4,10.1v0
						C100.4,24.2,104.9,31.6,108,32.1z"/>
					<path class="st8" d="M72,15.5l33.9,24.3c-0.6,0.5-1.2,0.9-1.8,1.3c-1.6,1.2-3,2.3-4.1,3.3L61,16.8l-19.5,23l-7.3-3.4L60.2,7
						C60.2,7,72,15.5,72,15.5z"/>
					<path class="st5" d="M102.9,11.8c0,0,1.2,7.4,10.1,10.1c-9.2,4.7-12.3,3.6-12.6,0v0C100.2,19.3,101.4,15.5,102.9,11.8z"/>
					<path class="st8" d="M61,16.8l38.9,27.5c-2.5,2.2-4,3.9-4.8,5.4l-33.2-23L48.8,43.2l-7.3-3.4L61,16.8L61,16.8z"/>
					<path class="st7" d="M94.3,54.4c0.1,0.5,0.5,0.9,1,0.8c-0.6,0.5-1.1,1-1.7,1.6c-1.4,1.5-2.8,3.2-4,5.1L48.8,43.2l0,0l13.1-16.5
						l33.2,23C94,51.6,94,53,94.3,54.4L94.3,54.4z"/>
					<path class="st6" d="M48.8,43.2l40.8,18.7c-1,1.5-1.9,3.1-2.7,4.9c0,0-53.1-20.4-73.7-26.6l0.1-0.4c1.4-2.2,9.4-8.5,9.4-8.5
						l11.3,5.2l7.3,3.4L48.8,43.2L48.8,43.2L48.8,43.2z"/>
					<path class="st6" d="M87,66.8c-0.6,1.2-1.1,2.4-1.6,3.7c0,0-64.9-18.5-87.2-16.5v-4.6c0,0,3.9-5.7,7.9-11.1
						c1.2,0.1,3.7,0.7,7.2,1.8C33.8,46.3,87,66.8,87,66.8z"/>
					<path class="st6" d="M85.3,70.5c-0.8,2.1-1.6,4.3-2.3,6.6l0,0C83,77.1,16.6,67-1.8,67V54C20.4,52,85.3,70.5,85.3,70.5z"/>
					<path class="st6" d="M83,77.1L83,77.1c-1.1,3.8-2,8-2.7,12.4l0,0c-0.9-0.2-53.4-12.9-82.1-9.6V67C16.6,67,83,77.1,83,77.1
						L83,77.1z"/>
					<path class="st5" d="M75.8,124.7c2.2,3.4,3.6,6.1,11.4,6.4c-2.3,1.7-5.2,3.2-8.3,4.6c-8.6,2.2-26.1,1.2-33.1,1.4
						C56,136.1,75.8,124.7,75.8,124.7L75.8,124.7z"/>
					<path class="st6" d="M80.3,89.5c-0.5,3.4-0.9,7-1.2,10.7l0,0.1c-7.7-2.4-17.4-5.8-21.4-7.1c-3.6-1.1-7.8,1.2-11.4,5.1
						c0,0-38.9-4.5-48-3.9V79.9C26.9,76.6,79.4,89.3,80.3,89.5L80.3,89.5z"/>
					<path class="st5" d="M79,135.7c-3.7,1.7-7.7,3.2-11.5,4.7c-3,0-25.4,1.8-27.2,1.9c-2,0.1-15.2-22.9-17.2-23.7
						c0.8-0.1,4.4-0.5,8.7-1c1.7,4.3,8.6,15.1,14.1,19.4C52.9,136.9,70.4,137.9,79,135.7L79,135.7z"/>
					<path class="st8" d="M67.8,122.6c3.7,1.2,6.8,2.1,8,2.1c0,0-19.8,11.4-30,12.4c-5.5-4.3-12.5-15.2-14.1-19.4
						c1.3-0.1,2.7-0.3,4.1-0.4c3.5,5.2,8,11.6,10.6,14.4C46.4,131.6,55,130.2,67.8,122.6C67.8,122.6,67.8,122.6,67.8,122.6z"/>
					<path class="st8" d="M67.8,122.6L67.8,122.6c-12.8,7.6-21.4,9-21.4,9c-2.6-2.8-7.1-9.2-10.6-14.4c1.6-0.2,3.2-0.3,4.7-0.4
						l7.2,9.1c4.3-0.3,11.2-3.1,14.6-5.1C64.2,121.4,66.1,122,67.8,122.6L67.8,122.6z"/>
					<path class="st5" d="M67.4,140.4c-0.1,0-0.2,0.1-0.2,0.1c-18,4.2-38.3,4.9-38.3,4.9c4.3-1,11.4-3.1,11.4-3.1
						C42,142.2,64.4,140.4,67.4,140.4z"/>
					<path class="st8" d="M49.8,116.3c1,0.3,6.7,2.4,12.5,4.5c-3.3,2-10.2,4.8-14.6,5.1l-7.2-9.1C45.2,116.4,49.1,116.1,49.8,116.3z
						"/>
					<path class="st5" d="M23,118.6c2,0.8,15.3,23.8,17.2,23.7c0,0-7.1,2-11.4,3.1c-0.7,0.2-1.5,0.2-2.4,0.2v-0.2
						c-1.3-3.5-11.3-17.8-11.6-18.2c0.4-0.4,0.8-0.8,1.2-1.3c1.1-1.2,2.2-2.3,3.2-3.4c1.8-2,3.2-3.5,3.6-3.9L23,118.6
						C23,118.6,23,118.6,23,118.6z"/>
					<path class="st6" d="M46.2,98.3c-3.1,3.3-5.7,7.7-7,12.2c-8.1-1.6-19.4,0-28.1,1.9c-1.3,0.3-2.6,0.6-3.8,0.9
						c-2,0.5-3.7,0.9-5.1,1.3c-2.5,0.7-4,1.1-4,1.1V94.4C7.3,93.8,46.2,98.3,46.2,98.3L46.2,98.3z"/>
					<path class="st5" d="M26.5,145.4v0.2c-5.1-0.2-13.4-3.1-17.7-5.8c-6,5.4-10.6-2.6-10.6-2.6v-14.7c5,6.8,9.8,10.8,9.8,10.8
						c0.2,0.3,2.6-1.9,5.4-4.7c0.5-0.5,1-1,1.5-1.5C15.1,127.6,25.1,141.9,26.5,145.4L26.5,145.4z"/>
					<path class="st8" d="M19.3,122.5c-1,1-2.1,2.2-3.2,3.4l0,0c-5.9-4.1-8.8-12.6-8.8-12.6c1.2-0.3,2.5-0.6,3.8-0.9
						C11.1,112.4,14.2,119.5,19.3,122.5L19.3,122.5z"/>
					<path class="st8" d="M14.9,127.2c-0.5,0.5-1,1-1.5,1.5C5.1,122,2.1,114.5,2.1,114.5c1.4-0.4,3.2-0.8,5.1-1.3
						c0,0,2.9,8.6,8.8,12.6l0,0C15.7,126.3,15.2,126.7,14.9,127.2L14.9,127.2z"/>
					<path class="st8" d="M13.4,128.6c-2.8,2.8-5.2,5-5.4,4.7c0,0-4.8-4.1-9.8-10.8v-6.8c0,0,1.5-0.5,4-1.1
						C2.1,114.5,5.2,122,13.4,128.6L13.4,128.6z"/>
				</g>
				<g>
					<path class="st11" d="M123.6,37.2c-1.4,0.8-2.9,1.8-4.6,2.9c-1.8,1.1-3.6,2.4-5.5,3.6c-1.9,1.2-3.7,2.4-5.5,3.6
						c-3.4,2.2-6.5,4.2-8.6,5.6c-1.4,0.9-2.2,1.5-2.5,1.6c-0.6,0.4-1.2,0.6-1.6,0.7c-0.5,0.1-0.9-0.3-1-0.8C94,53,94,51.6,95.1,49.7
						c0.8-1.5,2.3-3.2,4.8-5.4c1.2-1,2.5-2.1,4.1-3.3c0.6-0.4,1.2-0.8,1.8-1.3c3-2.2,6.8-4.8,10.9-7.6c4-2.7,8.2-5.6,12-8.2
						c7.3-4.9,13.3-8.9,14.6-9.7c3.2-1.8,8.6-6.4,13-4.6c4.4,1.8,7.7,5.2,6.7,9.5c-0.1,0-0.2,0-0.3-0.1c-3.3-0.6-10.2-0.5-13.9,1.3
						c-3.8,1.8-16.2,11.5-21.6,14.6C126.5,35.4,125.2,36.2,123.6,37.2"/>
					<path class="st11" d="M123.6,37.2L123.6,37.2c0,0.2-0.7,4.1-1.8,8.4c-0.4,1.6-0.9,3.2-1.4,4.8c-0.3,1-0.7,1.9-1.1,2.8
						c-0.9,2.1-2,3.7-3.2,4"/>
					<path class="st11" d="M119,40.1c0,0-2.7,12.4-5.7,13.6"/>
					<path class="st11" d="M131,81.2c1.8,5.2,3,10.8,2.8,16.4c0,0.4,0,0.7-0.1,1"/>
					<path class="st11" d="M130.8,80.5c0.1,0.2,0.1,0.4,0.2,0.6"/>
					<path class="st11" d="M108,47.3l3,3.7l2.2,2.8c0.9,1.2,1.9,2.3,2.8,3.5c0.5,0.7,1.1,1.4,1.6,2c2.3,2.9,4.5,5.7,6.7,8.6
						c1.6,2.2,3,4.3,4.1,6.8c0.8,1.7,1.5,3.5,2.1,5.2c0.1,0.2,0.1,0.4,0.2,0.6"/>
					<path class="st11" d="M121.8,45.6c0,0,7.1,5.5,9.5,10.1"/>
					<path class="st11" d="M120.4,50.3l8.4,9.1c0.6-0.8,1.6-2,2.8-3.6c3.7-4.7,9.3-11.6,10.3-12.2"/>
					<path class="st11" d="M149.5,48.2c2-1.8,3.6-2.8,4.6-2.6"/>
					<path class="st11" d="M128.8,59.4l2.5,4.9l1.9,3.6c1.7-2.4,3.5-4.8,5.3-7.2c3.9-5.1,7.9-9.8,11-12.6"/>
					<path class="st11" d="M131.3,64.3c0,0,8.8-14.5,18.1-22.3"/>
					<path class="st11" d="M149.5,48.2L149.5,48.2c0.1,0.3,4.6,10.5,8.2,18.8c0.6,1.3,1.1,2.5,1.6,3.6c1.5,3.5,2.7,6.1,2.9,6.6
						c2-1.3,5.7-3.8,9.4-6.6c4.9-3.7,9.7-7.8,10.3-10.3c-0.7-1.1-2.5-2.7-4.8-4.6c-0.6-0.5-1.3-1.1-2.1-1.6
						c-0.6-0.4-1.2-0.9-1.8-1.4c-1.2-0.8-2.4-1.7-3.6-2.6c-6.7-4.7-14.1-9.3-16.9-10.3"/>
					<path class="st11" d="M162.1,77.1C162.1,77.1,162.1,77.1,162.1,77.1c0.3,0.1,0.7,0.3,1,0.4c18.4,8.5,50.3,30.4,54.1,35.6"/>
					<path class="st11" d="M181.8,60.3c0.3,3.2,0.1,7.7-0.2,11.7c-0.3,3.1-0.6,5.9-0.9,7.5c-0.1,0.6-0.3,1.1-0.4,1.3
						c-9.8-0.7-15.1-2.4-17.2-3.3c-0.6-0.2-0.9-0.4-1-0.4"/>
					<path class="st11" d="M171.5,70.6l8.8,10.3c9.3,4.4,35.4,18.4,41.3,25.3"/>
					<path class="st11" d="M177,55.7c0.8,0.9-11.9,13.1-17.8,14.9"/>
					<path class="st11" d="M173.1,52.7c-4.7,5.9-9.9,10.8-15.5,14.3"/>
					<path class="st11" d="M181.6,72c2.2,0.8,4.3,1.6,6.4,2.5c4.5,2,8.7,4.7,13,9.5"/>
					<path class="st11" d="M179.8,49.5c1.5,1.4,3,2.9,4.4,4.2c5,4.8,8.9,9,9.6,10.7c-0.7,1.5-1.4,3-2.1,4.2c-2,3.6-3.8,5.9-3.8,5.9"
						/>
					<path class="st11" d="M159.6,31.2c0,0,10.8,9.4,20.3,18.2"/>
					<polyline class="st11" points="184.3,53.7 184.3,53.7 174.9,54 					"/>
					<polyline class="st11" points="169.5,50.1 179.8,49.5 179.8,49.5 					"/>
					<path class="st11" d="M191.7,68.6c3.6,3.5,25.7,14.8,29.7,20.9c4,6.1,3.3,8,3.3,8c-6.3-6.7-14.5-10.5-23.8-13.3
						c-6.4-1.9-13.3-3.3-20.3-4.7"/>
					<path class="st11" d="M141.9,96.4c0.1,0.1,0.2,0.2,0.3,0.4l0,0c0.1,0.1,0.2,0.2,0.3,0.2c8.8,8.4,52.6,27.1,56.8,27.7
						c0.9-0.4,2.9-2.7,2.9-2.7"/>
					<path class="st11" d="M224.7,97.5c-0.2,1.3-1.2,4.7-3.2,8.7c-1.1,2.3-2.6,4.7-4.3,7c-3.6,4.6-8.4,8.6-14.5,8.9
						c-0.1,0-0.3-0.1-0.4-0.1c-13.8-4.6-36.9-12.9-50.4-19.4c-4.3-2.1-7.6-4-9.3-5.6"/>
					<path class="st11" d="M199.4,124.7c0,0-0.9,2.4-4,6.4c-1.2-0.2-2.4-0.4-3.7-0.6c-19-4-40.2-20.7-48.1-27.4
						c-2-1.7-3.2-2.8-3.2-2.8c-0.8-0.6-2.2-1-4.3-1.3c-0.7-0.1-1.5-0.2-2.4-0.3c-0.5,0-0.9-0.1-1.4-0.1c-7.1-0.5-18.4,0.3-33.3,3.1
						c-3.4,0.6-6.7,1.1-9.8,1.4c-16.8,1.5-29.1-1.4-29.1-1.4"/>
					<path class="st11" d="M147.9,110.5c6.8,7.5,28.1,20,36.4,23.9c1.3,0.6,2.3,1,2.9,1.1c3.6-2.9,4.5-5.1,4.5-5.1"/>
					<path class="st11" d="M80.3,89.5c-0.5,3.4-0.9,7-1.2,10.7"/>
					<path class="st11" d="M95.3,55.2c-0.6,0.5-1.1,1-1.7,1.6c-1.4,1.5-2.8,3.2-4,5.1c-1,1.5-1.9,3.1-2.7,4.9
						c-0.6,1.2-1.1,2.4-1.6,3.7c-0.8,2.1-1.6,4.3-2.3,6.6c-1.1,3.8-2,8-2.7,12.4"/>
					<path class="st11" d="M89.3,102.9c-1.6,0-5.5-1.1-10.2-2.6c-7.7-2.4-17.4-5.8-21.4-7.1c-3.6-1.1-7.8,1.2-11.4,5.1
						c-3.1,3.3-5.7,7.7-7,12.2c-8.1-1.6-19.4,0-28.1,1.9c-1.3,0.3-2.6,0.6-3.8,0.9c-2,0.5-3.7,0.9-5.1,1.3c-2.5,0.7-4,1.1-4,1.1
						v21.5c0,0,4.6,7.9,10.6,2.6c4.3,2.8,12.6,5.7,17.7,5.8c0.9,0,1.7,0,2.4-0.2c4.3-1,11.4-3.1,11.4-3.1"/>
					<path class="st11" d="M88.8,90.5c0,0,21.9-0.9,33.7,7.8"/>
					<path class="st11" d="M94.3,79.1c2.6,0,5.1,0.2,7.7,0.4c4.3,0.4,9.3,0.6,13.1,2.8c0.8,0.5,1.6,1.1,2.3,1.7
						c2.8,2.4,5.1,5.4,7.4,8.2c1.5,1.9,3.1,3.8,4.3,5.9"/>
					<path class="st11" d="M93.7,56.8c7.2,4,14.3,8.1,20.7,13.5c3.7,3.1,7.1,6.6,10.1,10.5c3.1,4.1,6.4,8.9,7.4,14
						c0.2,1.1,0.4,2.3,0.5,3.5"/>
					<path class="st11" d="M119.9,53.2c3.5,6.6,10.2,16.6,10.7,26.7v0"/>
					<path class="st11" d="M147.9,110.5c0.3,0.7,8.1,16,19.4,24.2c1.9,1.4,3.9,2.6,6,3.4l4.6,2.2l6.4-6"/>
					<path class="st11" d="M146.5,108.7c0.4,0.6,0.8,1.2,1.4,1.8c0,0,0,0,0,0"/>
					<path class="st11" d="M147.9,110.5L147.9,110.5"/>
					<path class="st11" d="M23,118.6c2,0.8,15.3,23.8,17.2,23.7c1.7-0.1,24.1-2,27.2-1.9c0.2,0,0.3,0,0.3,0c9.2,2.4,28.9,5.1,31.7,2
						c2.5,4.6,18.5,6.4,21.1,5.3c6.3-1.3,13.7-5.4,19.8-9.5c2.9-1.9,5.5-3.8,7.7-5.4c0.9-0.7,1.7-1.3,2.4-1.9c0.5-0.4,1-0.8,1.4-1.1
						c0.6-0.5,1.1-0.9,1.5-1.2c0.4-0.3,0.6-0.5,0.7-0.6c-0.2-0.6-0.4-1.3-0.7-1.9c-0.8-2.2-1.6-4.4-2.3-6.5c-1.7-4.7-3-8.7-3.2-9.1"
						/>
					<path class="st11" d="M-1.8,122.5c5,6.8,9.8,10.8,9.8,10.8c0.2,0.3,2.6-1.9,5.4-4.7c0.5-0.5,1-1,1.5-1.5
						c0.4-0.4,0.8-0.8,1.2-1.3c1.1-1.2,2.2-2.3,3.2-3.4c1.8-2,3.2-3.5,3.6-3.9c0-0.1,0.1-0.1,0.2,0"/>
					<path class="st11" d="M22.8,118.6l0.2,0l0,0c0.8-0.1,4.4-0.5,8.7-1c1.3-0.1,2.7-0.3,4.1-0.4c1.6-0.2,3.2-0.3,4.7-0.4
						c4.6-0.4,8.5-0.7,9.2-0.5c1,0.3,6.7,2.4,12.5,4.5c1.9,0.6,3.8,1.3,5.5,1.9c3.7,1.2,6.8,2.1,8,2.1h10.9
						c7.4,1.1,25.9,1.2,39.2-4.2c4.8-1.4,25.2-0.8,25.2-0.8"/>
					<path class="st11" d="M85.3,124.7c4.2,3.5,11.1,9.1,27.7,3.6c16.5-5.5,40.4-2.1,40.4-2.1"/>
					<path class="st11" d="M101.5,137.1c7.9-2.6,23.8-6.9,31.7-7.3c7.8-0.3,18.7,0,18.7,0"/>
					<path class="st11" d="M14.9,127.1L14.9,127.1c0.3,0.5,10.3,14.7,11.6,18.2"/>
					<path class="st11" d="M28.9,145.4c0,0,20.4-0.7,38.3-4.9c0.1,0,0.2-0.1,0.2-0.1c3.8-1.5,7.9-3,11.5-4.7
						c3.1-1.4,5.9-2.9,8.3-4.6c3.5,2.1,8.3,4.4,14.2,6l0,0c12.1,3.3,29,3.7,49-6.2"/>
					<path class="st11" d="M79,135.7c-8.6,2.2-26.1,1.2-33.1,1.4c10.1-1,30-12.4,30-12.4c2.2,3.4,3.6,6.1,11.4,6.4"/>
					<path class="st11" d="M31.7,117.6C31.7,117.6,31.7,117.6,31.7,117.6c1.7,4.3,8.6,15.1,14.2,19.5"/>
					<path class="st11" d="M35.9,117.2c3.5,5.2,8,11.6,10.6,14.4c0,0,8.6-1.4,21.4-9"/>
					<path class="st11" d="M40.5,116.8l7.2,9.1c4.3-0.3,11.2-3.1,14.6-5.1"/>
					<path class="st11" d="M11.1,112.4c0,0,3.1,7.2,8.2,10.1"/>
					<path class="st11" d="M7.3,113.2c0,0,2.9,8.6,8.8,12.6"/>
					<path class="st11" d="M2.1,114.5c0,0,3,7.5,11.3,14.1"/>
					<path class="st11" d="M46.2,98.3c0,0-38.9-4.5-48-3.9"/>
					<path class="st11" d="M80.3,89.5L80.3,89.5c-0.9-0.2-53.4-12.9-82.1-9.6"/>
					<path class="st11" d="M83,77.1C83,77.1,16.6,67-1.8,67"/>
					<path class="st11" d="M85.3,70.5c0,0-64.9-18.5-87.2-16.5"/>
					<path class="st11" d="M87,66.8c0,0-53.1-20.4-73.7-26.6c-3.5-1-6-1.7-7.2-1.8c-4,5.4-7.9,11.1-7.9,11.1v66.2"/>
					<path class="st11" d="M48.8,43.2l-7.3-3.4l-7.3-3.4l-11.3-5.2c0,0-8.1,6.3-9.4,8.5"/>
					<line class="st11" x1="89.7" y1="61.9" x2="48.8" y2="43.2"/>
					<polyline class="st11" points="48.8,43.2 48.8,43.2 61.9,26.7 95.1,49.7 					"/>
					<polyline class="st11" points="41.5,39.8 61,16.8 99.9,44.3 					"/>
					<polyline class="st11" points="34.2,36.4 60.2,7 72,15.5 105.9,39.8 					"/>
					<path class="st11" d="M145.4,90.9c8.3,4.4,17.9,7.9,17.9,7.9"/>
					<path class="st11" d="M138.5,60.8C138.5,60.8,138.5,60.8,138.5,60.8c-1.5,4.8-7.2,12.9-5.3,19.5c0.3,0.9,0.7,1.9,1.3,2.7
						c0.7,1,1.8,2.1,3.2,3.2c0.8,0.6,1.7,1.2,2.6,1.8c1.5,1,3.2,2,5,2.9"/>
					<polyline class="st11" points="145.4,90.9 145.4,90.9 151.9,102.6 					"/>
					<path class="st11" d="M137.8,86.2c0,0-2.2,9-1.6,12.7"/>
					<path class="st11" d="M140.4,88L140.4,88c0,4.5,1.5,8.3,1.5,8.3l-1.5,3.9"/>
					<path class="st11" d="M148.1,132.8c0,0,1,3,2.2,6.2c1.2,3.2,2.7,6.5,3.7,7.2c4.1,0.1,9.3,0,9.3,0c-1.7-2.5-3.2-4.9-4.5-7.2
						c-3.4-5.9-5.4-10.4-5.4-10.4"/>
					<line class="st11" x1="158.8" y1="139" x2="167.3" y2="134.8"/>
					<line class="st11" x1="140.4" y1="138.2" x2="150.3" y2="139"/>
					<line class="st11" x1="146.5" y1="108.7" x2="143.6" y2="103"/>
					<path class="st11" d="M145.5,25.7c0,0,3.1,1.4,4,1.9"/>
					<path class="st11" d="M155.2,30c0,0,2.6,1.6,2.8,2.1"/>
					<path class="st11" d="M154.1,31.1c0,0-1.2,5.1-2.2,5.5c-0.9,0.4-3.8,0-3.8,0"/>
					<line class="st11" x1="148.6" y1="32.9" x2="147.5" y2="35.1"/>
					<path class="st11" d="M145.4,38.9c0,0,1.4,1.2,2.7,1.2"/>
					<path class="st11" d="M155.8,21.4c-0.2,0.5-1.1,0.7-2,0.3c-0.9-0.4-1.4-1.1-1.2-1.7c0.2-0.5,1.1-0.7,2-0.3
						C155.5,20.1,156.1,20.8,155.8,21.4z"/>
					<path class="st11" d="M161.4,24c-0.4,0.5-1.3,0.4-2-0.2c-0.7-0.6-1.1-1.5-0.7-1.9c0.4-0.5,1.3-0.3,2,0.3
						C161.5,22.7,161.8,23.5,161.4,24L161.4,24z"/>
					<path class="st11" d="M136.9,40.6c0,0,1.1,1.9,3.2,2.6c0.6,0.2,1.2,0.3,1.8,0.4c2.8,0.4,5.3-0.3,7.5-1.6
						c1.1-0.6,2.2-1.4,3.1-2.3c3.3-2.9,5.6-6.6,7-8.5c2.7-3.9,3.3-12.2,3.3-12.2"/>
					<path class="st11" d="M113.5,43.7c0,0-0.9,5.6-2.5,7.3"/>
					<path class="st11" d="M99.4,52.9c8.3,4.6,28.4,20.5,31.4,27.6l0,0c0.1,0.2,0.2,0.4,0.2,0.6l0,0.1"/>
					<path class="st11" d="M113,21.9c0.7-0.4,1.4-0.8,2.2-1.2c5.7-1.1,9.8,1.6,13.6,3.2"/>
					<path class="st11" d="M100.4,21.9c0.3,3.5,3.4,4.7,12.6,0"/>
					<path class="st11" d="M72,15.5c3.1-0.2,7.1-0.3,11.1-0.4c8.3-0.2,17-0.6,19.8-3.3c-1.4,3.7-2.7,7.5-2.4,10.1"/>
					<path class="st11" d="M102.9,11.8c0,0,1.2,7.4,10.1,10.1l0,0"/>
					<path class="st11" d="M83,15.1C83,15.1,83,15.1,83,15.1c0.6,0.5,20.8,17.5,25,17c4.3-0.4,8.8,0,8.8,0"/>
					<path class="st11" d="M100.4,21.9L100.4,21.9c0,2.3,4.5,9.7,7.6,10.2"/>
				</g>
			</g>
		</g>
	</g>
</g>
</svg>
