<?xml version="1.0" encoding="UTF-8"?>
<svg xmlns="http://www.w3.org/2000/svg" xmlns:xlink="http://www.w3.org/1999/xlink" viewBox="0 0 274.56 203.57">
  <defs>
    <style>
      .cls-1 {
        fill: #f2d4b2;
      }

      .cls-1, .cls-2, .cls-3, .cls-4, .cls-5, .cls-6, .cls-7, .cls-8, .cls-9, .cls-10 {
        stroke-width: 0px;
      }

      .cls-11, .cls-5, .cls-12 {
        fill: none;
      }

      .cls-11, .cls-12, .cls-13 {
        stroke: #000;
      }

      .cls-11, .cls-13 {
        stroke-miterlimit: 10;
      }

      .cls-2 {
        fill: #dabe5a;
      }

      .cls-3 {
        fill: #ddb4ba;
      }

      .cls-4 {
        fill: #f3edd7;
      }

      .cls-12 {
        stroke-linecap: round;
        stroke-linejoin: round;
      }

      .cls-6, .cls-13 {
        fill: #333;
      }

      .cls-7 {
        fill: #a5cec0;
      }

      .cls-8 {
        fill: #f4edd3;
      }

      .cls-9 {
        fill: #f74e3b;
      }

      .cls-14 {
        clip-path: url(#clippath);
      }

      .cls-10 {
        fill: #d2d296;
      }
    </style>
    <clipPath id="clippath">
      <rect class="cls-5" x="15.12" width="254.72" height="163.44"/>
    </clipPath>
  </defs>
  <g id="_レイヤー_3" data-name="レイヤー 3">
    <g>
      <g>
        <rect class="cls-4" x=".24" y="168.96" width="3.62" height="5.02"/>
        <path class="cls-4" d="m269.84,196.51v6.56h-30.42l15.34-8.62c1.03,1.61,3.11,2.71,5.51,2.71s4.61-1.18,5.61-2.88l3.96,2.23Z"/>
        <path class="cls-4" d="m269.84,185.96v10.55l-3.96-2.23c.38-.65.59-1.38.59-2.14,0-1.3-.62-2.48-1.61-3.37l4.99-2.8Z"/>
        <path class="cls-4" d="m269.84,173.98v11.98l-4.99,2.8c-1.14-1.01-2.77-1.64-4.59-1.64s-3.3.58-4.43,1.51l-26.07-14.65h40.07Z"/>
        <polygon class="cls-4" points="269.84 89.04 269.84 94.8 1.13 94.8 .24 94.8 .24 89.04 269.84 89.04"/>
        <rect class="cls-4" x="265.85" y="168.96" width="3.99" height="5.02"/>
        <path class="cls-4" d="m266.47,192.14c0,.76-.21,1.49-.59,2.14l-5.41-3.04,4.39-2.47c1,.89,1.61,2.07,1.61,3.37Z"/>
        <path class="cls-4" d="m260.47,191.23l5.41,3.04c-1,1.7-3.13,2.88-5.61,2.88s-4.48-1.1-5.51-2.71l5.71-3.21Z"/>
        <rect class="cls-6" x="254.56" y="168.96" width="11.29" height="5.02"/>
        <path class="cls-4" d="m264.86,188.76l-4.39,2.47-4.63-2.6c1.13-.93,2.7-1.51,4.43-1.51,1.82,0,3.45.63,4.59,1.64Z"/>
        <path class="cls-4" d="m260.47,191.23l-5.71,3.21c-.44-.69-.69-1.47-.69-2.31,0-1.37.68-2.6,1.77-3.5l4.63,2.6Z"/>
        <path class="cls-4" d="m229.77,173.98l26.07,14.65c-1.09.9-1.77,2.13-1.77,3.5,0,.83.25,1.62.69,2.31l-15.34,8.62h-41.44l-15.63-8.79c.38-.65.59-1.38.59-2.14,0-1.3-.62-2.48-1.61-3.37l26.31-14.79h22.13Zm-5.96,18.15c0-2.77-2.25-5.01-5.01-5.01s-5.02,2.25-5.02,5.01,2.25,5.02,5.02,5.02,5.01-2.25,5.01-5.02Z"/>
        <polygon class="cls-4" points="254.56 173.98 229.77 173.98 224.07 173.98 224.07 168.96 254.56 168.96 254.56 173.98"/>
        <rect class="cls-6" x="212.78" y="168.96" width="11.29" height="5.02"/>
        <path class="cls-6" d="m218.8,187.12c2.77,0,5.01,2.25,5.01,5.01s-2.25,5.02-5.01,5.02-5.02-2.25-5.02-5.02,2.25-5.01,5.02-5.01Z"/>
        <path class="cls-4" d="m207.64,173.98l-26.31,14.79c-1.14-1.01-2.77-1.65-4.59-1.65s-3.3.58-4.43,1.51l-26.07-14.65h61.4Z"/>
        <polygon class="cls-4" points="182.29 173.98 182.29 168.96 212.78 168.96 212.78 173.98 207.64 173.98 182.29 173.98"/>
        <path class="cls-4" d="m197.99,203.07h-42.09l15.34-8.62c1.03,1.61,3.11,2.71,5.51,2.71s4.61-1.18,5.61-2.88l15.63,8.79Z"/>
        <path class="cls-4" d="m182.95,192.14c0,.76-.21,1.49-.59,2.14l-5.41-3.04,4.39-2.46c1,.88,1.61,2.06,1.61,3.37Z"/>
        <path class="cls-4" d="m176.94,191.23l5.41,3.04c-1,1.7-3.13,2.88-5.61,2.88s-4.48-1.1-5.51-2.71l5.71-3.21Z"/>
        <rect class="cls-6" x="170.99" y="168.96" width="11.29" height="5.02"/>
        <path class="cls-4" d="m176.74,187.12c1.82,0,3.45.63,4.59,1.65l-4.39,2.46-4.63-2.6c1.13-.93,2.7-1.51,4.43-1.51Z"/>
        <path class="cls-4" d="m176.94,191.23l-5.71,3.21c-.44-.69-.69-1.47-.69-2.31,0-1.37.68-2.6,1.77-3.5l4.63,2.6Z"/>
        <path class="cls-4" d="m146.25,173.98l26.07,14.65c-1.09.9-1.77,2.13-1.77,3.5,0,.83.25,1.62.69,2.31l-15.34,8.62h-41.44l-15.63-8.79c.38-.65.59-1.38.59-2.14,0-1.3-.62-2.48-1.61-3.37l26.31-14.79h22.13Zm-7.01,18.15c0-2.77-2.25-5.01-5.01-5.01s-5.02,2.25-5.02,5.01,2.25,5.02,5.02,5.02,5.01-2.25,5.01-5.02Z"/>
        <polygon class="cls-4" points="170.99 173.98 146.25 173.98 140.5 173.98 140.5 168.96 170.99 168.96 170.99 173.98"/>
        <rect class="cls-6" x="129.21" y="168.96" width="11.29" height="5.02"/>
        <path class="cls-6" d="m134.22,187.12c2.77,0,5.01,2.25,5.01,5.01s-2.25,5.02-5.01,5.02-5.02-2.25-5.02-5.02,2.25-5.01,5.02-5.01Z"/>
        <path class="cls-4" d="m124.12,173.98l-26.31,14.79c-1.14-1.01-2.77-1.65-4.59-1.65s-3.3.58-4.43,1.51l-26.07-14.65h61.4Z"/>
        <polygon class="cls-4" points="129.21 173.98 124.12 173.98 98.72 173.98 98.72 168.96 129.21 168.96 129.21 173.98"/>
        <path class="cls-4" d="m114.47,203.07h-42.09l15.34-8.62c1.03,1.61,3.11,2.71,5.51,2.71s4.61-1.18,5.61-2.88l15.63,8.79Z"/>
        <path class="cls-4" d="m99.42,192.14c0,.76-.21,1.49-.59,2.14l-5.41-3.04,4.39-2.46c1,.88,1.61,2.06,1.61,3.37Z"/>
        <path class="cls-4" d="m93.42,191.23l5.41,3.04c-1,1.7-3.13,2.88-5.61,2.88s-4.48-1.1-5.51-2.71l5.71-3.21Z"/>
        <rect class="cls-6" x="87.43" y="168.96" width="11.29" height="5.02"/>
        <path class="cls-4" d="m93.22,187.12c1.82,0,3.45.63,4.59,1.65l-4.39,2.46-4.63-2.6c1.13-.93,2.7-1.51,4.43-1.51Z"/>
        <path class="cls-4" d="m93.42,191.23l-5.71,3.21c-.44-.69-.69-1.47-.69-2.31,0-1.37.68-2.6,1.77-3.5l4.63,2.6Z"/>
        <path class="cls-4" d="m62.72,173.98l26.07,14.65c-1.09.9-1.77,2.13-1.77,3.5,0,.83.25,1.62.69,2.31l-15.34,8.62H30.75l-15.63-8.79c.38-.65.59-1.38.59-2.14,0-1.3-.62-2.48-1.61-3.37l26.31-14.79h22.32Zm-8.52,18.15c0-2.77-2.25-5.01-5.01-5.01s-5.02,2.25-5.02,5.01,2.25,5.02,5.02,5.02,5.01-2.25,5.01-5.02Z"/>
        <polygon class="cls-4" points="87.43 173.98 62.72 173.98 56.94 173.98 56.94 168.96 87.43 168.96 87.43 173.98"/>
        <rect class="cls-6" x="45.65" y="168.96" width="11.29" height="5.02"/>
        <path class="cls-6" d="m49.19,187.12c2.77,0,5.01,2.25,5.01,5.01s-2.25,5.02-5.01,5.02-5.02-2.25-5.02-5.02,2.25-5.01,5.02-5.01Z"/>
        <polygon class="cls-4" points="45.65 173.98 40.41 173.98 15.16 173.98 15.16 168.96 45.65 168.96 45.65 173.98"/>
        <path class="cls-4" d="m30.75,203.07H.24v-6.51l3.76-2.11c1.03,1.61,3.11,2.71,5.51,2.71s4.61-1.18,5.61-2.88l15.63,8.79Z"/>
        <path class="cls-4" d="m15.71,192.14c0,.76-.21,1.49-.59,2.14l-5.41-3.04,4.39-2.46c1,.88,1.61,2.06,1.61,3.37Z"/>
        <rect class="cls-6" x="3.86" y="168.96" width="11.29" height="5.02"/>
        <path class="cls-4" d="m9.71,191.23l5.41,3.04c-1,1.7-3.13,2.88-5.61,2.88s-4.48-1.1-5.51-2.71l5.71-3.21Z"/>
        <path class="cls-4" d="m9.51,187.12c1.82,0,3.45.63,4.59,1.65l-4.39,2.46-4.63-2.6c1.13-.93,2.7-1.51,4.43-1.51Z"/>
        <path class="cls-4" d="m9.71,191.23l-5.71,3.21c-.44-.69-.69-1.47-.69-2.31,0-1.37.68-2.6,1.77-3.5l4.63,2.6Z"/>
        <path class="cls-4" d="m.24,185.92l4.83,2.71c-1.09.9-1.77,2.13-1.77,3.5,0,.83.25,1.62.69,2.31l-3.76,2.11v-10.63Z"/>
        <polygon class="cls-10" points="212.78 168.96 182.29 168.96 170.99 168.96 140.5 168.96 129.21 168.96 98.72 168.96 87.43 168.96 56.94 168.96 45.65 168.96 15.16 168.96 3.86 168.96 .24 168.96 .24 94.8 1.13 94.8 269.84 94.8 269.84 168.96 265.85 168.96 254.56 168.96 224.07 168.96 212.78 168.96"/>
        <path class="cls-4" d="m.24,173.98h40.16l-26.31,14.79c-1.14-1.01-2.77-1.65-4.59-1.65s-3.3.58-4.43,1.51l-4.83-2.71v-11.94Z"/>
      </g>
      <g>
        <polyline class="cls-11" points="269.84 203.07 239.42 203.07 197.99 203.07 155.9 203.07 114.47 203.07 72.38 203.07 30.75 203.07 .24 203.07"/>
        <line class="cls-11" x1=".24" y1="89.04" x2="269.84" y2="89.04"/>
        <line class="cls-11" x1=".24" y1="94.8" x2="269.84" y2="94.8"/>
        <line class="cls-11" x1="265.85" y1="168.96" x2="269.84" y2="168.96"/>
        <line class="cls-11" x1="224.07" y1="168.96" x2="254.56" y2="168.96"/>
        <line class="cls-11" x1="182.29" y1="168.96" x2="212.78" y2="168.96"/>
        <line class="cls-11" x1="140.5" y1="168.96" x2="170.99" y2="168.96"/>
        <line class="cls-11" x1="98.72" y1="168.96" x2="129.21" y2="168.96"/>
        <line class="cls-11" x1="56.94" y1="168.96" x2="87.43" y2="168.96"/>
        <line class="cls-11" x1="15.16" y1="168.96" x2="45.65" y2="168.96"/>
        <line class="cls-11" x1=".24" y1="168.96" x2="3.86" y2="168.96"/>
        <line class="cls-11" x1="265.85" y1="173.98" x2="269.84" y2="173.98"/>
        <polyline class="cls-11" points="224.07 173.98 229.77 173.98 254.56 173.98"/>
        <polyline class="cls-11" points="182.29 173.98 207.64 173.98 212.78 173.98"/>
        <polyline class="cls-11" points="140.5 173.98 146.25 173.98 170.99 173.98"/>
        <polyline class="cls-11" points="98.72 173.98 124.12 173.98 129.21 173.98"/>
        <polyline class="cls-11" points="56.94 173.98 62.72 173.98 87.43 173.98"/>
        <polyline class="cls-11" points="15.16 173.98 40.41 173.98 45.65 173.98"/>
        <line class="cls-11" x1=".24" y1="173.98" x2="3.86" y2="173.98"/>
        <polyline class="cls-11" points="72.38 203.07 87.71 194.44 93.42 191.23 97.81 188.77 124.12 173.98"/>
        <polyline class="cls-11" points="114.47 203.07 98.83 194.28 93.42 191.23 88.79 188.63 62.72 173.98"/>
        <path class="cls-11" d="m139.24,192.14c0,2.78-2.25,5.02-5.01,5.02s-5.02-2.25-5.02-5.02,2.25-5.01,5.02-5.01,5.01,2.25,5.01,5.01Z"/>
        <path class="cls-11" d="m223.81,192.14c0,2.78-2.25,5.02-5.01,5.02s-5.02-2.25-5.02-5.02,2.25-5.01,5.02-5.01,5.01,2.25,5.01,5.01Z"/>
        <path class="cls-11" d="m97.81,188.77c1,.88,1.61,2.06,1.61,3.37,0,.76-.21,1.49-.59,2.14-1,1.7-3.13,2.88-5.61,2.88s-4.48-1.1-5.51-2.71c-.44-.69-.69-1.47-.69-2.31,0-1.37.68-2.6,1.77-3.5,1.13-.93,2.7-1.51,4.43-1.51,1.82,0,3.45.63,4.59,1.65Z"/>
        <polyline class="cls-11" points=".24 196.55 4 194.44 9.71 191.23 14.1 188.77 40.41 173.98"/>
        <polyline class="cls-11" points="30.75 203.07 15.12 194.28 9.71 191.23 5.08 188.63 .24 185.92"/>
        <path class="cls-11" d="m14.1,188.77c1,.88,1.61,2.06,1.61,3.37,0,.76-.21,1.49-.59,2.14-1,1.7-3.13,2.88-5.61,2.88s-4.48-1.1-5.51-2.71c-.44-.69-.69-1.47-.69-2.31,0-1.37.68-2.6,1.77-3.5,1.13-.93,2.7-1.51,4.43-1.51,1.82,0,3.45.63,4.59,1.65Z"/>
        <polyline class="cls-11" points="155.9 203.07 171.24 194.44 176.94 191.23 181.33 188.77 207.64 173.98"/>
        <polyline class="cls-11" points="197.99 203.07 182.36 194.28 176.94 191.23 172.31 188.63 146.25 173.98"/>
        <path class="cls-11" d="m181.33,188.77c1,.88,1.61,2.06,1.61,3.37,0,.76-.21,1.49-.59,2.14-1,1.7-3.13,2.88-5.61,2.88s-4.48-1.1-5.51-2.71c-.44-.69-.69-1.47-.69-2.31,0-1.37.68-2.6,1.77-3.5,1.13-.93,2.7-1.51,4.43-1.51,1.82,0,3.45.63,4.59,1.65Z"/>
        <polyline class="cls-11" points="239.42 203.07 254.76 194.44 260.47 191.23 264.86 188.76 269.84 185.96"/>
        <polyline class="cls-11" points="269.84 196.51 265.88 194.28 260.47 191.23 255.83 188.63 229.77 173.98"/>
        <path class="cls-11" d="m264.86,188.76c1,.89,1.61,2.07,1.61,3.37,0,.76-.21,1.49-.59,2.14-1,1.7-3.13,2.88-5.61,2.88s-4.48-1.1-5.51-2.71c-.44-.69-.69-1.47-.69-2.31,0-1.37.68-2.6,1.77-3.5,1.13-.93,2.7-1.51,4.43-1.51,1.82,0,3.45.63,4.59,1.64Z"/>
        <path class="cls-11" d="m54.21,192.14c0,2.78-2.25,5.02-5.01,5.02s-5.02-2.25-5.02-5.02,2.25-5.01,5.02-5.01,5.01,2.25,5.01,5.01Z"/>
        <rect class="cls-11" x="3.86" y="168.96" width="11.29" height="5.02"/>
        <rect class="cls-11" x="45.65" y="168.96" width="11.29" height="5.02"/>
        <rect class="cls-11" x="87.43" y="168.96" width="11.29" height="5.02"/>
        <rect class="cls-11" x="129.21" y="168.96" width="11.29" height="5.02"/>
        <rect class="cls-11" x="170.99" y="168.96" width="11.29" height="5.02"/>
        <rect class="cls-11" x="212.78" y="168.96" width="11.29" height="5.02"/>
        <rect class="cls-11" x="254.56" y="168.96" width="11.29" height="5.02"/>
      </g>
    </g>
  </g>
  <g id="_レイヤー_2" data-name="レイヤー 2">
    <g class="cls-14">
      <path class="cls-7" d="m250.72,49.23h0c-2.78.18-5.54.43-8.28.74-6.77-13.92-29.61-15.97-29.61-15.97l.74-1.1,1.86-2.78c16.39-.51,23.63,4.78,35.29,19.11Z"/>
      <path class="cls-3" d="m112.29,64.99h0c-2.49,2.19-5.66,5.12-8.22,7.95.36-3.8,7.14-13.37,7.14-13.37l.5-.05.58,5.47Z"/>
      <path class="cls-3" d="m110.82,51.03l.89,8.49-.5.05s-6.77,9.57-7.14,13.37c-1.77,1.96-3.24,3.87-4.02,5.46l-1.42-.17c.11-1.02.24-2.09.37-3.17.2-1.7.41-3.44.61-5.12.59-1.46,11.07-18.9,11.07-18.9l.14-.02Z"/>
      <path class="cls-8" d="m110.92,43.35l-.8,1.09h0s-12.07,16.62-12.07,16.62l-1.91-3.96c.26-.49,1.08-1.6,2.17-3.01,3.65-4.68,10.43-12.72,10.43-12.72.72.64,1.44,1.31,2.17,1.99Z"/>
      <path class="cls-8" d="m98.09,53.91l.23.17c-1.09,1.41-1.91,2.52-2.17,3.01l-6.41-13.29c.64-.13,1.25-.29,1.8-.46l6.55,10.57Z"/>
      <path class="cls-8" d="m84.85,123.92c-1.05,1.4-1.58,5.33-2.59,12.93-.41,3.1-.9,6.8-1.54,11.19,0,0-2.07-.25-4.63,0,.09-2.66.88-6.92,1.86-11.33,1.81-8.11,4.29-16.71,4.29-16.71.69,1.11,1.6,2.46,2.61,3.91Z"/>
      <path class="cls-8" d="m78.81,110.45c.2,1.12.48,2.41.85,3.72-1.57,4.72-6.4,12.46-13.12,21.36h0c-2.18,2.89-4.55,5.9-7.09,8.97,0,0-2.96-1.14-6.98-3.4,3-1.99,5.99-4.63,8.8-7.53h0c5.89-6.05,11.07-13.24,14.24-17.97,1.98-2.96,3.17-4.96,3.3-5.15Z"/>
      <path class="cls-3" d="m132.42,126.89c.34.98.88,2.16,1.76,3.51-.49-.07-1.31-.36-2.36-.82-1.59-.68-3.75-1.76-6.22-3.09-1.43-.76-2.98-1.6-4.58-2.51-.64-.36-1.29-.72-1.95-1.09-.87-.49-1.74-.99-2.63-1.5-.81-.46-1.61-.92-2.42-1.39-1.42-.83-2.85-1.67-4.26-2.5,12.11,4.74,22.18,6.06,22.18,6.06,0,0-.24,1.21.48,3.31Z"/>
      <path class="cls-2" d="m196.38,125.48c.69,1.08,1.32,2.1,1.84,2.96-22.08,10.39-43.69,8.65-59.63,7.1-1.41-1.33-2.52-2.57-3.39-3.71,14.24,1.28,44.58,3.99,61.19-6.34Z"/>
      <path class="cls-2" d="m194.22,122.21c.76,1.11,1.49,2.23,2.16,3.27-16.61,10.33-46.94,7.62-61.19,6.34-.38-.49-.72-.97-1.01-1.42-.88-1.35-1.42-2.53-1.76-3.51,11.04,2,40.49,4.42,61.79-4.68h0Z"/>
      <path class="cls-2" d="m192.18,119.37c.69.92,1.37,1.88,2.03,2.85-21.3,9.09-50.75,6.68-61.79,4.68-.72-2.11-.48-3.31-.48-3.31,12.18,2.22,36.99,5.32,60.24-4.21Z"/>
      <path class="cls-3" d="m251.2,107.52c-4.21,6.43-14.95,14.17-20.93,17.28-.29-.09-2.71-.45-6.19-.95-1.74-.25-3.75-.54-5.9-.84-2.19-.31-4.53-.64-6.87-.97-1.82-.25-3.65-.51-5.41-.76-7.45-1.03-13.71-1.9-13.71-1.9l-3.44-12.26s23.38-2.03,32.35-1.92c8.97.11,18.27,1.07,30.12,2.32Z"/>
      <path class="cls-8" d="m271.24,91.58v20.38c-3.69-.33-11.32.43-11.64.47h0c-.64-.59-1.63-1.44-2.78-2.26-1.72-1.25-3.79-2.45-5.62-2.64-11.85-1.26-21.15-2.21-30.12-2.32-8.97-.11-32.35,1.92-32.35,1.92l-.25-.88c-1.61-2.73-3.3-5.36-7.06-6.84,10.21-3.27,64.43-12.08,89.64-7.83l.18.03Z"/>
      <path class="cls-8" d="m271.24,75.06v15.35l-.18,1.14c-25.21-4.25-79.43,4.56-89.64,7.83-3.46-1.37-8.66-1.77-17.15-.39-2.43.39-5.11.72-7.96.98-.23-.5-1.3-1.74-2.65-3.19,21.03-6.87,54.03-17.96,117.59-21.72Z"/>
      <path class="cls-8" d="m271.24,61.5v13.57c-63.55,3.76-96.55,14.85-117.59,21.72h0c-2.51-2.68-6.01-6.07-7.1-6.87,17.94-5.75,80.83-33.59,124.69-28.42Z"/>
      <path class="cls-8" d="m271.24,49.23v12.27c-43.86-5.17-106.75,22.67-124.69,28.42-.83-.61-1.64-3.52-2.22-7.34,25.28-11.22,55.22-25.75,89.05-31.34,1.59-.26,3.17-.5,4.77-.73,1.42-.19,2.85-.37,4.29-.54,2.73-.31,5.49-.56,8.28-.73,6.71-.43,13.55-.47,20.52,0Z"/>
      <path class="cls-8" d="m208.71,40.15s18.59,4.18,24.67,11.09c-33.83,5.59-63.77,20.12-89.05,31.34-.25-1.65-.46-3.46-.62-5.33h0l48.75-25.03.68-.35,4.07-2.09,1.69-.87s5.91-2.99,8.44-6.71l1.36-2.04Z"/>
      <path class="cls-3" d="m177.12,26.24l6.63,26.37c-12.09,1.34-29.59,5.4-41.84,8.46-1.59-4.89-3.85-8.6-3.85-8.6-.54-.76-1.38-1.68-2.43-2.7l41.49-23.53Z"/>
      <path class="cls-3" d="m192.48,52.21l-48.75,25.03h0c-.19-2.41-.29-4.93-.26-7.29.04-3.04-.64-6.14-1.54-8.88,12.25-3.06,29.74-7.12,41.84-8.46,1.64-.18,3.17-.31,4.59-.39,1.54-.08,2.93-.09,4.14,0Z"/>
      <path class="cls-3" d="m46.59,79.1c4.02-6.91,14.59-20.64,19.01-24.06,2.56-1.97,8.09-5.35,12.32-7.86,3.11-1.84,5.51-3.22,5.51-3.22h0c1.78.43,4.2.28,6.31-.15l6.41,13.29,1.91,3.96,12.07-16.61.69,6.57-.14.02s-10.48,17.44-11.07,18.9c-10.86,5.58-19.27,2.91-21.62,1.82-.6,1.48-1.24,2.95-1.92,4.35-.69,1.41-1.41,2.77-2.17,4.02-1.48,2.45-3.11,4.48-4.87,5.79-9.19,6.86-38.43,25.47-49.17,29.67,1-6.63,2.33-12.99,4.22-15.5,3.36-4.47,10.47-15.19,22.51-21.01Z"/>
      <path class="cls-3" d="m109.76,117.51c1.41.83,2.84,1.67,4.26,2.5-13.86,8.11-25.72,8.74-25.72,8.74-1.19-1.62-2.38-3.29-3.45-4.83-1.01-1.45-1.92-2.8-2.61-3.91-.38-.62-.7-1.15-.94-1.6-.69-1.31-1.23-2.78-1.64-4.23-.37-1.31-.65-2.6-.85-3.72-.12.19-1.32,2.19-3.3,5.15h0c-.71,1.08-3.42,3.27-6.74,5.79.04-2.82,2.3-8.26,5.11-13.28,1.42-2.54,2.98-4.98,4.47-6.91,2.32-3,11.82-8.86,22.67-14.46-.97.1-3.39.36-3.39.36,0,0,.35-3.14.82-7.32.06-.5.12-1.03.19-1.56l1.42.17c.77-1.6,2.25-3.5,4.02-5.46,2.56-2.83,5.73-5.75,8.22-7.94h0s-.58-5.48-.58-5.48l-.89-8.49-.69-6.57h0s.8-1.1.8-1.1c3.48,3.25,7.18,6.88,11.57,10.24,2.14.67,6.74,1.4,15.57-1.13,0,0,2.26,3.7,3.85,8.6.9,2.74,1.59,5.85,1.54,8.88-.03,2.37.07,4.88.26,7.29.16,1.87.36,3.69.62,5.33.58,3.82,1.39,6.73,2.22,7.34,1.08.8,4.59,4.19,7.1,6.87h0c1.35,1.45,2.42,2.69,2.65,3.19,2.85-.26,5.53-.59,7.96-.98,8.49-1.38,13.69-.98,17.15.39,3.76,1.48,5.45,4.11,7.06,6.84l.25.88,3.44,12.26c-23.26,9.52-48.06,6.43-60.24,4.21,0,0-10.07-1.33-22.18-6.06Z"/>
      <path class="cls-2" d="m114.02,120.01c.81.47,1.61.93,2.42,1.39-10.11,8.23-26.06,10.2-26.06,10.2-.67-.91-1.37-1.86-2.08-2.85,0,0,11.86-.63,25.72-8.74Z"/>
      <path class="cls-2" d="m116.44,121.4c.88.51,1.76,1.01,2.63,1.5-6.83,6.11-18.86,9.84-26.65,11.42h0c-.61-.82-1.3-1.74-2.03-2.72,0,0,15.95-1.97,26.06-10.2Z"/>
      <path class="cls-7" d="m121.02,123.99c-.34.53-.81,1.08-1.41,1.67-1.04,1.04-2.46,2.15-4.16,3.3-1.65,1.09-3.56,2.21-5.64,3.3-1.67.87-3.47,1.72-5.33,2.51-2.98,1.27-6.12,2.4-9.26,3.28,0,0-.54-.7-1.4-1.85-.41-.53-.88-1.16-1.41-1.87,7.79-1.59,19.82-5.32,26.65-11.42.66.37,1.31.74,1.95,1.09Z"/>
      <path class="cls-7" d="m72.37,96.23c.36,1.69.59,3.31.51,4.61,0,0-6.25,4.19-12.87,8.31-2,1.23-4.02,2.46-5.92,3.57-5.35,3.32-28.02,15.28-36.58,21.19.29-1.7.63-4.78,1.06-8.43,7.15-3.09,37.52-16.08,53.8-29.26Z"/>
      <path class="cls-7" d="m234.07,138.86c-1.01-2.47-2.13-6.09-2.13-6.09,10.85-4.33,22.03-12.76,28.46-19.6,0,0,2.1.33,13.18,2-1.54,2.13-3.54,4.22-5.83,6.24-9.85,8.69-25.05,16.06-32.6,19.56-.29-.31-.67-1.11-1.08-2.1Z"/>
      <path class="cls-7" d="m218.18,123c2.15.3,4.15.59,5.9.84-1.44,3.4-7.9,10.37-15.16,17.11-2.6,2.43-5.31,4.82-7.91,7.02-.66.56-1.32,1.09-1.96,1.62l-2.45-1.84-12.71-9.51c1.25-.49,2.51-1.01,3.75-1.54h0s10.59,5.14,10.59,5.14l19.96-18.85Z"/>
      <path class="cls-7" d="m197.22,49.77l-4.07,2.09-11.02-37.09-53.02,29.44c-1.39-1.09-2.84-2.19-4.29-3.28,0,0,13.65-7.62,28.07-15.53h0c14.73-8.08,30.24-16.46,32.78-17.33,1.45,4.28,5.45,18.96,8.34,29.7,1.82,6.78,3.2,12,3.2,12Z"/>
      <path class="cls-2" d="m205.89,121.27h0s-6.98,8.32-6.98,8.32c-.21-.34-.43-.73-.69-1.14-.52-.86-1.14-1.87-1.84-2.96-.67-1.04-1.4-2.16-2.16-3.27h0c-.66-.96-1.34-1.93-2.03-2.85,0,0,6.26.87,13.71,1.9Z"/>
      <path class="cls-2" d="m211.31,122.03l-13.71,14.69-4.93-2.21c2.44-1.08,4.85-2.17,7.25-3.18,0,0-.37-.67-1.01-1.74l6.98-8.31h0c1.76.24,3.59.5,5.41.75Z"/>
      <path class="cls-2" d="m218.18,123l-19.96,18.85-10.59-5.14h0c1.69-.73,3.37-1.47,5.05-2.2l4.93,2.21,13.71-14.69c2.34.33,4.68.66,6.87.97Z"/>
      <path class="cls-2" d="m251.2,107.52c1.83.19,3.9,1.39,5.62,2.64-11.92,12.84-25.29,18.12-25.71,18.28-.24-1.13-.53-2.38-.84-3.63,5.99-3.11,16.72-10.85,20.93-17.28Z"/>
      <path class="cls-2" d="m259.6,112.42c.49.45.79.75.79.75-6.43,6.84-17.61,15.28-28.46,19.6,0,0-.31-1.87-.82-4.34.42-.16,13.79-5.44,25.71-18.28,1.14.82,2.13,1.67,2.78,2.26h0Z"/>
      <path class="cls-2" d="m238.15,50.51c-1.6.23-3.18.47-4.77.73-6.08-6.9-24.67-11.09-24.67-11.09l1.67-2.47c5.27-.03,21.48,4.65,27.77,12.83Z"/>
      <path class="cls-2" d="m242.45,49.97c-1.44.16-2.87.35-4.29.54-6.3-8.18-22.5-12.85-27.77-12.83l2.45-3.68s22.85,2.05,29.61,15.97Z"/>
      <path class="cls-2" d="m188.34,52.15v.06c-1.41.08-2.95.21-4.59.39l-6.63-26.37-41.49,23.53c-1.03-1.01-2.28-2.1-3.65-3.24l47.94-25.86,8.41,31.49Z"/>
      <path class="cls-2" d="m182.14,14.77l11.02,37.09-.68.35c-1.21-.08-2.6-.07-4.14,0v-.06l-8.41-31.49-47.94,25.86c-.91-.75-1.87-1.54-2.86-2.32l53.02-29.44Z"/>
      <path class="cls-2" d="m71.22,91.96c.43,1.37.85,2.85,1.15,4.27-16.27,13.18-46.65,26.17-53.8,29.26.12-.99.24-2.03.38-3.09,7.03-3.25,35.95-17.1,52.26-30.44Z"/>
      <path class="cls-2" d="m70.08,88.6c.36.96.75,2.12,1.14,3.36-16.31,13.34-45.23,27.18-52.26,30.44.13-1.12.28-2.27.43-3.43,9.57-4.8,27.69-12.62,50.68-30.36Z"/>
      <path class="cls-2" d="m69.04,85.93s.44,1.07,1.03,2.67c-22.99,17.74-41.12,25.56-50.68,30.36.15-1.11.31-2.24.48-3.36,10.74-4.21,39.99-22.81,49.17-29.67Z"/>
      <path class="cls-2" d="m98.44,79.79c-.48,4.18-.82,7.32-.82,7.32-11.88,1.33-21.7,1.77-28.57-1.18,1.75-1.31,3.38-3.35,4.87-5.79,4.88,1.88,18.94,2.22,24.53-.35Z"/>
      <path class="cls-2" d="m98.99,75.06h0c-.13,1.08-.26,2.14-.37,3.17-.07.53-.13,1.06-.19,1.56-5.59,2.57-19.65,2.23-24.53.35.76-1.25,1.48-2.6,2.17-4.02,4.04,1.61,17.88,1.67,22.92-1.06Z"/>
      <path class="cls-2" d="m99.61,69.94c-.2,1.67-.41,3.42-.61,5.12h0c-5.04,2.72-18.87,2.67-22.92,1.06.68-1.41,1.32-2.87,1.92-4.35,2.34,1.09,10.76,3.76,21.62-1.82Z"/>
      <path class="cls-2" d="m149.51,141.17c-3.39,2.42-6.7,4.31-9.91,5.75l-7.79-17.33c1.05.46,1.86.75,2.36.82.29.45.63.93,1.01,1.42.88,1.14,1.99,2.39,3.39,3.71,3.72,2.58,7.36,4.41,10.93,5.63Z"/>
      <path class="cls-2" d="m131.82,129.59l7.79,17.33c-1.98.89-3.91,1.61-5.81,2.19l-8.2-22.6c2.47,1.33,4.63,2.41,6.22,3.09Z"/>
      <path class="cls-2" d="m125.6,126.5l8.2,22.6c-3.36,1.01-6.6,1.57-9.73,1.77l-4.43-25.2h-.02c.6-.6,1.07-1.15,1.41-1.68,1.6.9,3.15,1.74,4.58,2.51Z"/>
      <path class="cls-2" d="m119.63,125.68l4.43,25.2c-2.62.17-5.16.1-7.62-.15l-.94-21.69-.05-.08c1.7-1.14,3.12-2.26,4.16-3.3h.02Z"/>
      <path class="cls-2" d="m115.5,129.04l.94,21.69c-2.58-.27-5.07-.73-7.46-1.3h0s.88-17.07.88-17.07l-.05-.1c2.08-1.08,3.99-2.2,5.64-3.3l.05.08Z"/>
      <path class="cls-2" d="m109.81,132.26l.05.1-.88,17.06h0c-2.42-.58-4.74-1.29-6.97-2.05l2.51-12.52-.03-.09c1.86-.79,3.65-1.64,5.33-2.51Z"/>
      <path class="cls-2" d="m104.49,134.77l.03.09-2.51,12.52c-2.98-1.01-5.77-2.11-8.39-3.09l1.6-6.24c3.14-.88,6.28-2.01,9.26-3.28Z"/>
      <path class="cls-9" d="m97.62,87.11s2.42-.26,3.39-.36c-10.84,5.59-20.35,11.46-22.67,14.46-1.48,1.93-3.04,4.37-4.47,6.91l-.07-.04c-5.53,1.21-17.5,10.74-29.07,18.87,8.75-8.71,15.28-17.8,15.28-17.8,6.63-4.12,12.87-8.31,12.87-8.31.08-1.3-.15-2.92-.51-4.61-.3-1.42-.72-2.9-1.15-4.27-.39-1.24-.79-2.39-1.14-3.36-.59-1.6-1.03-2.67-1.03-2.67,6.87,2.95,16.69,2.51,28.57,1.18Z"/>
      <path class="cls-9" d="m73.81,108.08l.07.04c-2.81,5.02-5.07,10.46-5.11,13.28-4.27,3.25-9.54,7.05-12.85,9.77l-16.26,9.94c-1.8-1.63-3.4-3.54-6.6-4.21,4.07-2.81,8.07-6.35,11.68-9.95,11.57-8.14,23.53-17.66,29.07-18.87Z"/>
      <path class="cls-9" d="m54.1,112.72c1.9-1.11,3.92-2.34,5.92-3.57,0,0-6.52,9.09-15.28,17.8-3.61,3.6-7.61,7.14-11.68,9.95-3.12-.64-7.75-.12-15.54,2.98v-5.97c8.56-5.91,31.23-17.87,36.58-21.19Z"/>
      <path class="cls-9" d="m75.51,115.6h0c-3.17,4.74-8.35,11.92-14.24,17.97h0c-.21-.04-3.95-.75-5.34-2.41,3.3-2.71,8.58-6.51,12.85-9.77,3.32-2.52,6.03-4.71,6.74-5.79Z"/>
      <path class="cls-9" d="m81.3,118.41c.23.45.56.99.94,1.6,0,0-2.48,8.6-4.29,16.71h0c-4.72.05-8.51-.27-11.39-1.18,6.71-8.9,11.55-16.65,13.12-21.36.41,1.45.95,2.92,1.64,4.23Z"/>
      <path class="cls-9" d="m93.83,136.2h0c-2.24.96-11.57.66-11.57.66,1.01-7.61,1.54-11.54,2.59-12.93,1.08,1.54,2.26,3.21,3.45,4.83.71.98,1.41,1.93,2.08,2.85.73.98,1.42,1.9,2.03,2.72h0c.53.71,1.01,1.34,1.41,1.87Z"/>
      <path class="cls-9" d="m198.91,129.59c.64,1.08,1.01,1.74,1.01,1.74-2.4,1.01-4.81,2.1-7.25,3.18-1.67.74-3.36,1.47-5.05,2.19-1.24.53-2.5,1.05-3.75,1.54-4.38,1.73-8.84,3.23-13.39,4.11-6.75,1.32-13.71,1.31-20.97-1.2-3.57-1.22-7.21-3.05-10.93-5.63,15.94,1.55,37.55,3.3,59.63-7.1.26.42.49.81.69,1.14Z"/>
      <path class="cls-9" d="m196.59,147.76l-.21.29s-10.29-1.1-25.89-5.68c4.55-.88,9.01-2.38,13.39-4.11l12.71,9.51Z"/>
      <path class="cls-9" d="m208.91,140.96s14.38,1.91,18.03,1.41c0,0-6.84,5.72-7.74,6.75-9.05-.49-17.22-1.07-17.22-1.07l-.99-.07c2.6-2.19,5.31-4.59,7.91-7.02Z"/>
      <path class="cls-9" d="m231.11,128.43c.51,2.46.82,4.34.82,4.34,0,0,1.13,3.62,2.13,6.09-2.28.56-7.12,3.5-7.12,3.5-3.65.5-18.03-1.41-18.03-1.41,7.26-6.75,13.72-13.71,15.16-17.11,3.49.5,5.9.87,6.19.95.31,1.26.6,2.51.84,3.63Z"/>
      <path class="cls-9" d="m226.95,142.36s6.84,4.66,9.73,7.38c-4.67-.02-11.28-.3-17.47-.63.89-1.03,7.74-6.75,7.74-6.75Z"/>
      <path class="cls-9" d="m267.74,121.4s2.95,2.13,6.32,3.06c-3.21,5.68-24.52,21.26-31.39,24.96-.78.26-2.98.36-5.99.33-2.89-2.72-9.73-7.38-9.73-7.38,0,0,4.84-2.94,7.12-3.5.41.99.79,1.79,1.08,2.1,7.55-3.5,22.75-10.87,32.6-19.56Z"/>
      <path class="cls-9" d="m213.57,32.9l-.74,1.1-2.45,3.68-1.67,2.47-1.36,2.04c-2.53,3.72-8.44,6.71-8.44,6.71l-1.69.87s-1.38-5.21-3.2-12l.37-.1c5.17-1.65,15.47-5.26,19.18-4.78Z"/>
      <path class="cls-9" d="m139.91,21.4c6.83,2.47,12.8,3.96,12.99,4-14.42,7.91-28.07,15.53-28.07,15.53-6.05-4.5-12.14-8.6-13.85-9.63,8.27-4.43,22-12.4,28.94-9.9Z"/>
      <path class="cls-1" d="m106.58,39.47c-5.41-4.51-10.54-7.61-13.51-11.21-5.6-6.79-9.45-13.46-9.45-13.46-4.46-.11-10.14-.44-13.54,7.47.03,1.2.17,2.54.42,3.96.49,2.32,4.23,11.69,11.28,17,.43.32,1,.56,1.66.71,1.78.43,4.2.29,6.31-.14.64-.13,1.25-.29,1.8-.46l6.55,10.57.23.17c3.65-4.68,10.43-12.72,10.43-12.72-.73-.66-1.45-1.29-2.17-1.89Z"/>
      <path class="cls-6" d="m83.43,43.95h0s-2.4,1.39-5.51,3.23l-.13-.23c-2.13-2.61-6.02-12.91-7.29-20.71.49,2.32,4.23,11.69,11.28,17,.43.32,1,.56,1.66.71Z"/>
      <path class="cls-6" d="m131.98,46.52c1.37,1.14,2.62,2.24,3.65,3.24,1.05,1.01,1.89,1.93,2.43,2.7-8.83,2.52-13.43,1.8-15.57,1.13-4.39-3.37-8.09-6.99-11.57-10.24-.73-.68-1.45-1.34-2.17-1.99-.73-.66-1.45-1.29-2.17-1.89-5.41-4.51-10.54-7.61-13.51-11.21-5.6-6.79-9.45-13.46-9.45-13.46-4.46-.11-10.14-.44-13.54,7.47,0-.22,0-.43,0-.64.08-7.61.67-9.89,6.13-12.03,5.46-2.14,12.54-3.03,19.48,4.21s11.96,15.5,15.28,17.5c1.71,1.02,7.81,5.13,13.85,9.63,1.46,1.08,2.91,2.19,4.29,3.28.99.78,1.95,1.56,2.86,2.32Z"/>
      <path class="cls-12" d="m70.08,22.3s0-.02,0-.03c3.4-7.91,9.08-7.58,13.54-7.47,0,0,3.84,6.67,9.45,13.46,2.98,3.6,8.1,6.7,13.51,11.21.72.6,1.44,1.23,2.17,1.89.72.64,1.44,1.31,2.17,1.99,3.48,3.25,7.18,6.88,11.57,10.24,2.14.67,6.74,1.4,15.57-1.13"/>
      <path class="cls-12" d="m70.5,26.24c.49,2.32,4.23,11.69,11.28,17,.43.32,1,.56,1.66.71,1.78.43,4.2.29,6.31-.14.64-.13,1.25-.29,1.8-.46,1.19-.37,2.12-.82,2.52-1.28"/>
      <path class="cls-12" d="m77.09,30.12c.22,1.17,1.18,5.53,1.41,5.55.22.03,1.69-.16,2.28-.31"/>
      <path class="cls-12" d="m81.19,32.9s.87,0,1.18.65"/>
      <path class="cls-12" d="m81.68,39.56s1.1-.37,1.37-.52"/>
      <line class="cls-12" x1="80.87" y1="25.91" x2="83.43" y2="24.9"/>
      <line class="cls-12" x1="74.85" y1="28.89" x2="72.44" y2="30.34"/>
      <line class="cls-12" x1="91.54" y1="43.35" x2="98.09" y2="53.91"/>
      <path class="cls-12" d="m108.75,41.36s-6.78,8.04-10.43,12.72c-1.09,1.41-1.91,2.52-2.17,3.01"/>
      <line class="cls-12" x1="110.12" y1="44.45" x2="98.06" y2="61.06"/>
      <line class="cls-12" x1="110.92" y1="43.35" x2="110.12" y2="44.44"/>
      <polyline class="cls-12" points="89.74 43.81 96.15 57.1 98.06 61.06"/>
      <path class="cls-12" d="m110.68,51.04s-10.48,17.44-11.07,18.9"/>
      <polyline class="cls-12" points="110.12 44.44 110.12 44.45 110.82 51.03 111.71 59.52 112.29 64.99"/>
      <path class="cls-12" d="m116.44,61.5s-1.76,1.41-4.15,3.5h0c-2.49,2.19-5.66,5.12-8.22,7.95-1.77,1.96-3.24,3.87-4.02,5.46"/>
      <path class="cls-12" d="m83.95,52.21s-2.16,10.15-5.96,19.56c-.6,1.48-1.24,2.95-1.92,4.35-.69,1.41-1.41,2.77-2.17,4.02-1.48,2.45-3.11,4.48-4.87,5.79-9.19,6.86-38.43,25.47-49.17,29.67"/>
      <path class="cls-12" d="m73.91,80.14c4.88,1.88,18.94,2.22,24.53-.35"/>
      <path class="cls-12" d="m76.08,76.12c4.04,1.61,17.88,1.67,22.92-1.06"/>
      <path class="cls-12" d="m101.6,83.91s10.3-12.82,12.19-14.59"/>
      <path class="cls-12" d="m153.66,96.78c1.35,1.45,2.42,2.69,2.65,3.19"/>
      <path class="cls-12" d="m77.8,46.95c-2.13-2.61-6.02-12.91-7.29-20.71-.24-1.42-.38-2.77-.42-3.96,0-.22,0-.43,0-.64.08-7.61.67-9.89,6.13-12.03,5.46-2.14,12.54-3.03,19.48,4.21s11.96,15.5,15.28,17.5c1.71,1.02,7.81,5.13,13.85,9.63,1.46,1.08,2.91,2.19,4.29,3.28.99.78,1.95,1.56,2.86,2.32,1.37,1.14,2.62,2.24,3.65,3.24,1.05,1.01,1.89,1.93,2.43,2.7,0,0,2.26,3.7,3.85,8.6.9,2.74,1.59,5.85,1.54,8.88-.03,2.37.07,4.88.26,7.29.16,1.87.36,3.69.62,5.33.58,3.82,1.39,6.73,2.22,7.34,1.08.8,4.59,4.19,7.1,6.87"/>
      <path class="cls-12" d="m259.6,112.42c-.64-.59-1.63-1.44-2.78-2.26-1.72-1.25-3.79-2.45-5.62-2.64-11.85-1.26-21.15-2.21-30.12-2.32-8.97-.11-32.35,1.92-32.35,1.92"/>
      <path class="cls-12" d="m194.22,122.21c.76,1.11,1.49,2.23,2.16,3.27.69,1.08,1.32,2.1,1.84,2.96.26.42.49.81.69,1.14.64,1.08,1.01,1.74,1.01,1.74-2.4,1.01-4.81,2.1-7.25,3.18-1.67.74-3.36,1.47-5.05,2.19-1.24.53-2.5,1.05-3.75,1.54-4.38,1.73-8.84,3.23-13.39,4.11-6.75,1.32-13.71,1.31-20.97-1.2-3.57-1.22-7.21-3.05-10.93-5.63-1.41-1.33-2.52-2.57-3.39-3.71-.38-.49-.72-.97-1.01-1.42-.88-1.35-1.42-2.53-1.76-3.51-.72-2.11-.48-3.31-.48-3.31,12.18,2.22,36.99,5.32,60.24-4.21,0,0,6.26.87,13.71,1.9,1.76.25,3.59.51,5.41.76,2.34.33,4.68.66,6.87.97,2.15.3,4.15.59,5.9.84,3.49.5,5.9.87,6.19.95.31,1.26.6,2.51.84,3.63.51,2.46.82,4.34.82,4.34,10.85-4.33,22.03-12.76,28.46-19.6,0,0-.29-.29-.79-.75"/>
      <path class="cls-12" d="m102.45,96.78c11.12,3.82,35.9,4.84,53.87,3.19,2.85-.26,5.53-.59,7.96-.98,8.49-1.38,13.69-.98,17.15.39,3.76,1.48,5.45,4.11,7.06,6.84l.25.88,3.44,12.26c.69.92,1.37,1.88,2.03,2.85"/>
      <path class="cls-12" d="m230.27,124.8c5.99-3.11,16.72-10.85,20.93-17.28"/>
      <path class="cls-12" d="m231.1,128.44h0c.42-.16,13.79-5.45,25.71-18.28"/>
      <path class="cls-12" d="m132.42,126.89c11.04,2,40.49,4.42,61.79-4.68h0"/>
      <path class="cls-12" d="m135.19,131.83c14.24,1.28,44.58,3.99,61.19-6.34"/>
      <path class="cls-12" d="m138.58,135.54c15.94,1.55,37.55,3.3,59.63-7.1"/>
      <path class="cls-12" d="m92.42,134.32c.53.71,1.01,1.34,1.41,1.87.86,1.14,1.4,1.85,1.4,1.85,3.14-.88,6.28-2.01,9.26-3.28,1.86-.79,3.65-1.64,5.33-2.51,2.08-1.08,3.99-2.2,5.64-3.3,1.7-1.14,3.12-2.26,4.16-3.3.6-.59,1.07-1.14,1.41-1.67"/>
      <path class="cls-12" d="m78.81,110.45c.2,1.12.48,2.41.85,3.72.41,1.45.95,2.92,1.64,4.23.23.45.56.99.94,1.6.69,1.11,1.6,2.46,2.61,3.91,1.08,1.54,2.26,3.21,3.45,4.83.71.98,1.41,1.93,2.08,2.85.73.98,1.42,1.9,2.03,2.72"/>
      <path class="cls-12" d="m78.34,106.75s.1,1.55.47,3.7"/>
      <path class="cls-12" d="m109.76,117.51c1.41.83,2.84,1.67,4.26,2.5.81.47,1.61.93,2.42,1.39.88.51,1.76,1.01,2.63,1.5.66.37,1.31.74,1.95,1.09,1.6.9,3.15,1.74,4.58,2.51,2.47,1.33,4.63,2.41,6.22,3.09,1.05.46,1.86.75,2.36.82"/>
      <path class="cls-12" d="m93.11,107.52s7.8,4.79,16.64,9.99"/>
      <path class="cls-12" d="m88.3,128.75s11.86-.63,25.72-8.74"/>
      <path class="cls-12" d="m90.38,131.6s15.95-1.97,26.06-10.2"/>
      <path class="cls-12" d="m92.41,134.32h0c7.79-1.59,19.82-5.32,26.65-11.42"/>
      <path class="cls-12" d="m95.23,138.04l-1.6,6.24c2.62.98,5.41,2.07,8.39,3.09,2.22.75,4.55,1.47,6.97,2.06,2.39.57,4.88,1.03,7.46,1.3,2.46.25,5,.32,7.62.15,3.13-.2,6.38-.75,9.73-1.77,1.9-.57,3.83-1.29,5.81-2.19,3.21-1.44,6.51-3.33,9.91-5.75"/>
      <line class="cls-12" x1="104.52" y1="134.85" x2="102.01" y2="147.37"/>
      <line class="cls-12" x1="109.86" y1="132.35" x2="108.98" y2="149.42"/>
      <line class="cls-12" x1="116.44" y1="150.73" x2="115.5" y2="129.04"/>
      <polyline class="cls-12" points="119.63 125.68 124.06 150.87 124.08 150.97"/>
      <line class="cls-12" x1="133.8" y1="149.1" x2="125.6" y2="126.5"/>
      <line class="cls-12" x1="131.82" y1="129.59" x2="139.61" y2="146.92"/>
      <path class="cls-12" d="m170.49,142.36c15.6,4.58,25.89,5.68,25.89,5.68"/>
      <path class="cls-12" d="m183.88,138.25l12.71,9.51,2.45,1.84c.64-.53,1.3-1.07,1.96-1.62,2.6-2.19,5.31-4.59,7.91-7.02,7.26-6.75,13.72-13.71,15.16-17.11"/>
      <polyline class="cls-12" points="187.63 136.72 198.22 141.85 218.18 123"/>
      <polyline class="cls-12" points="211.31 122.03 197.6 136.73 192.67 134.51"/>
      <line class="cls-12" x1="198.91" y1="129.59" x2="205.89" y2="121.28"/>
      <path class="cls-12" d="m231.93,132.77s1.13,3.62,2.13,6.09c.41.99.79,1.79,1.08,2.1,7.55-3.5,22.75-10.87,32.6-19.56,2.29-2.02,4.28-4.11,5.83-6.24-11.08-1.67-13.18-2-13.18-2"/>
      <path class="cls-12" d="m201.99,148.05s8.17.58,17.22,1.07c6.19.33,12.8.62,17.47.63,3.01.03,5.21-.07,5.99-.33,6.87-3.7,28.18-19.27,31.39-24.96-3.37-.94-6.32-3.06-6.32-3.06"/>
      <path class="cls-12" d="m208.91,140.96s14.38,1.91,18.03,1.41c0,0-6.84,5.72-7.74,6.75"/>
      <path class="cls-12" d="m236.7,149.76l-.02-.02c-2.89-2.72-9.73-7.38-9.73-7.38,0,0,4.84-2.94,7.12-3.5h0"/>
      <path class="cls-12" d="m66.55,135.54c6.71-8.9,11.55-16.65,13.12-21.36"/>
      <path class="cls-12" d="m61.26,133.58c-2.81,2.9-5.79,5.54-8.8,7.53,4.02,2.26,6.98,3.4,6.98,3.4,2.53-3.07,4.91-6.08,7.09-8.97"/>
      <path class="cls-12" d="m78.82,110.43h0v.02c-.12.19-1.32,2.19-3.3,5.15-3.17,4.74-8.35,11.92-14.24,17.97"/>
      <path class="cls-12" d="m82.24,120.01s-2.48,8.6-4.29,16.71c-.99,4.41-1.78,8.67-1.86,11.33,2.56-.25,4.63,0,4.63,0,.64-4.39,1.14-8.09,1.54-11.19,1.01-7.61,1.54-11.54,2.59-12.93"/>
      <path class="cls-12" d="m66.54,135.54h0c2.88.91,6.67,1.23,11.39,1.18"/>
      <path class="cls-12" d="m82.25,136.86s9.33.3,11.57-.66"/>
      <path class="cls-12" d="m61.27,133.58h0c-.21-.04-3.95-.75-5.34-2.41,3.3-2.71,8.58-6.51,12.85-9.77,3.32-2.52,6.03-4.71,6.74-5.79"/>
      <path class="cls-12" d="m55.92,131.17l-16.26,9.94c-1.8-1.63-3.4-3.54-6.6-4.21-3.12-.64-7.75-.12-15.54,2.98v-5.97c8.56-5.91,31.23-17.87,36.58-21.19,1.9-1.11,3.92-2.34,5.92-3.57,6.63-4.12,12.87-8.31,12.87-8.31.08-1.3-.15-2.92-.51-4.61-.3-1.42-.72-2.9-1.15-4.27-.39-1.24-.79-2.39-1.14-3.36-.59-1.6-1.03-2.67-1.03-2.67,6.87,2.95,16.69,2.51,28.57,1.18,0,0,.35-3.14.82-7.32.06-.5.12-1.03.19-1.56.11-1.02.24-2.09.37-3.17.2-1.7.41-3.44.61-5.12-10.86,5.58-19.27,2.91-21.62,1.82"/>
      <path class="cls-12" d="m60.01,109.15s-6.52,9.09-15.28,17.8c-3.61,3.6-7.61,7.14-11.68,9.95,0,0,0,0-.02,0"/>
      <path class="cls-12" d="m44.74,126.95c11.57-8.14,23.53-17.66,29.07-18.87"/>
      <path class="cls-12" d="m101.02,86.75c2.98-1.54,6.05-3.04,9.11-4.48,7.15-3.33,13.96-4.31,19.57-7.75"/>
      <path class="cls-12" d="m68.77,121.4c.04-2.82,2.3-8.26,5.11-13.28,1.42-2.54,2.98-4.98,4.47-6.91,2.32-3,11.82-8.86,22.67-14.46"/>
      <path class="cls-12" d="m113.78,80.71c3.1-3.86,10.07-15.15,14.17-16.59"/>
      <path class="cls-12" d="m17.52,133.92c.29-1.7.63-4.78,1.06-8.43.12-.99.24-2.03.38-3.09.13-1.12.28-2.27.43-3.43.15-1.11.31-2.24.48-3.36,1-6.63,2.33-12.99,4.22-15.5,3.36-4.47,10.47-15.19,22.51-21.01,2.28-1.1,4.74-2.03,7.39-2.71"/>
      <path class="cls-12" d="m56.64,68.1s-1.05,3.72-2.65,8.29c-2.39,6.84-6.03,15.57-9.25,16.63"/>
      <path class="cls-12" d="m46.59,79.1c4.02-6.91,14.59-20.64,19.01-24.06,2.56-1.97,8.09-5.35,12.32-7.86,3.11-1.84,5.51-3.22,5.51-3.22"/>
      <path class="cls-12" d="m181.42,99.38h0c10.21-3.27,64.43-12.08,89.64-7.83l.18.03v20.38c-3.69-.33-11.32.43-11.64.47h0"/>
      <path class="cls-12" d="m153.65,96.78h0c21.03-6.87,54.03-17.96,117.59-21.72v15.35"/>
      <path class="cls-12" d="m146.55,89.91c17.94-5.75,80.83-33.59,124.69-28.42v13.57"/>
      <path class="cls-12" d="m144.33,82.57c25.28-11.22,55.22-25.75,89.05-31.34,1.59-.26,3.17-.5,4.77-.73,1.42-.19,2.85-.37,4.29-.54,2.73-.31,5.49-.56,8.28-.73,6.71-.43,13.55-.47,20.52,0v12.27"/>
      <path class="cls-12" d="m143.73,77.24l48.75-25.03.68-.35,4.07-2.09,1.69-.87s5.91-2.99,8.44-6.71l1.36-2.04,1.67-2.47,2.45-3.68.74-1.1,1.86-2.78c16.39-.51,23.63,4.78,35.29,19.11"/>
      <path class="cls-12" d="m210.38,37.68c5.27-.03,21.48,4.65,27.77,12.83"/>
      <path class="cls-12" d="m208.71,40.15s18.59,4.18,24.67,11.09"/>
      <path class="cls-12" d="m212.83,34s22.85,2.05,29.61,15.97"/>
      <path class="cls-12" d="m141.91,61.06c12.25-3.06,29.74-7.12,41.84-8.46,1.64-.18,3.17-.31,4.59-.39,1.54-.08,2.93-.09,4.14,0"/>
      <path class="cls-12" d="m152.9,25.4c14.73-8.08,30.24-16.46,32.78-17.33,1.45,4.28,5.45,18.96,8.34,29.7,1.82,6.78,3.2,12,3.2,12"/>
      <path class="cls-12" d="m124.83,40.93s13.65-7.62,28.07-15.53"/>
      <polyline class="cls-12" points="129.12 44.21 182.14 14.77 193.15 51.86"/>
      <polyline class="cls-12" points="131.97 46.52 131.98 46.52 179.92 20.67 188.34 52.15"/>
      <polyline class="cls-12" points="135.63 49.77 177.12 26.24 183.75 52.6"/>
      <path class="cls-12" d="m194.39,37.68c5.17-1.65,15.47-5.26,19.18-4.78"/>
      <path class="cls-12" d="m110.97,31.3c8.27-4.43,22-12.4,28.94-9.9,6.83,2.47,12.8,3.96,12.99,4h0"/>
      <path class="cls-12" d="m97.62,87.11s2.42-.26,3.39-.36h0"/>
      <path class="cls-12" d="m111.21,59.57s-6.77,9.57-7.14,13.37"/>
      <path class="cls-12" d="m109.75,117.51h0c12.11,4.74,22.18,6.06,22.18,6.06"/>
      <path class="cls-12" d="m19.39,118.96c9.57-4.8,27.69-12.62,50.68-30.36"/>
      <path class="cls-12" d="m18.95,122.4h0c7.03-3.25,35.95-17.1,52.26-30.44"/>
      <path class="cls-12" d="m18.58,125.48c7.15-3.09,37.52-16.08,53.8-29.26"/>
      <ellipse class="cls-13" cx="79.14" cy="18.1" rx="2.07" ry="1.03" transform="translate(-1.92 22.65) rotate(-16.09)"/>
      <ellipse class="cls-13" cx="72.44" cy="21.44" rx="2.07" ry="1.03" transform="translate(-.16 42.31) rotate(-32.53)"/>
    </g>
  </g>
</svg>