<?xml version="1.0" encoding="UTF-8"?>
<svg xmlns="http://www.w3.org/2000/svg" xmlns:xlink="http://www.w3.org/1999/xlink" viewBox="0 0 556.48 190.33">
  <defs>
    <style>
      .cls-1 {
        fill: #faecd1;
      }

      .cls-1, .cls-2, .cls-3, .cls-4, .cls-5, .cls-6, .cls-7, .cls-8, .cls-9 {
        stroke-width: 0px;
      }

      .cls-10, .cls-11, .cls-4, .cls-12 {
        fill: none;
      }

      .cls-10, .cls-11, .cls-12, .cls-13, .cls-14 {
        stroke: #000;
      }

      .cls-10, .cls-13 {
        stroke-miterlimit: 10;
      }

      .cls-2 {
        fill: #b4dddf;
      }

      .cls-3 {
        fill: #f3edd7;
      }

      .cls-11 {
        stroke-width: .5px;
      }

      .cls-11, .cls-12, .cls-14 {
        stroke-linecap: round;
        stroke-linejoin: round;
      }

      .cls-15 {
        clip-path: url(#clippath-1);
      }

      .cls-5 {
        fill: #333;
      }

      .cls-6 {
        fill: #d7e870;
      }

      .cls-13, .cls-7 {
        fill: #ffffef;
      }

      .cls-16 {
        clip-path: url(#clippath);
      }

      .cls-8 {
        fill: #d2d296;
      }

      .cls-9, .cls-14 {
        fill: #fa3d2a;
      }
    </style>
    <clipPath id="clippath">
      <rect class="cls-4" x="3.35" width="263.61" height="166.91"/>
    </clipPath>
    <clipPath id="clippath-1">
      <rect class="cls-4" x="286.84" y="1.12" width="263.61" height="166.91"/>
    </clipPath>
  </defs>
  <g id="_レイヤー_3" data-name="レイヤー 3">
    <g>
      <g>
        <rect class="cls-3" x="3.98" y="154.71" width="3.61" height="5.01"/>
        <path class="cls-3" d="m272.74,182.18v6.54h-30.33l15.29-8.6c1.03,1.61,3.1,2.71,5.49,2.71s4.6-1.18,5.59-2.87l3.95,2.22Z"/>
        <path class="cls-3" d="m272.74,171.66v10.52l-3.95-2.22c.38-.65.59-1.37.59-2.14,0-1.3-.61-2.47-1.61-3.36l4.97-2.79Z"/>
        <path class="cls-3" d="m272.74,159.72v11.94l-4.97,2.79c-1.13-1-2.76-1.63-4.57-1.63s-3.29.58-4.42,1.5l-25.99-14.61h39.95Z"/>
        <polygon class="cls-3" points="272.74 75.05 272.74 80.79 4.86 80.79 3.98 80.79 3.98 75.05 272.74 75.05"/>
        <rect class="cls-3" x="268.77" y="154.71" width="3.98" height="5.01"/>
        <path class="cls-3" d="m269.38,177.82c0,.76-.21,1.49-.59,2.14l-5.4-3.04,4.38-2.46c.99.89,1.61,2.07,1.61,3.36Z"/>
        <path class="cls-3" d="m263.4,176.92l5.4,3.04c-.99,1.69-3.12,2.87-5.59,2.87s-4.46-1.1-5.49-2.71l5.69-3.2Z"/>
        <rect class="cls-5" x="257.51" y="154.71" width="11.26" height="5.01"/>
        <path class="cls-3" d="m267.77,174.46l-4.38,2.46-4.62-2.59c1.12-.93,2.69-1.5,4.42-1.5,1.82,0,3.44.63,4.57,1.63Z"/>
        <path class="cls-3" d="m263.4,176.92l-5.69,3.2c-.44-.68-.69-1.47-.69-2.3,0-1.37.67-2.59,1.76-3.49l4.62,2.59Z"/>
        <path class="cls-3" d="m232.79,159.72l25.99,14.61c-1.09.9-1.76,2.13-1.76,3.49,0,.83.25,1.62.69,2.3l-15.29,8.6h-41.31l-15.58-8.76c.38-.65.59-1.37.59-2.14,0-1.3-.61-2.47-1.61-3.36l26.23-14.74h22.06Zm-5.94,18.1c0-2.76-2.24-5-5-5s-5.01,2.24-5.01,5,2.24,5.01,5.01,5.01,5-2.24,5-5.01Z"/>
        <polygon class="cls-3" points="257.51 159.72 232.79 159.72 227.11 159.72 227.11 154.71 257.51 154.71 257.51 159.72"/>
        <rect class="cls-5" x="215.85" y="154.71" width="11.26" height="5.01"/>
        <path class="cls-5" d="m221.86,172.82c2.76,0,5,2.24,5,5s-2.24,5.01-5,5.01-5.01-2.24-5.01-5.01,2.24-5,5.01-5Z"/>
        <path class="cls-3" d="m210.73,159.72l-26.23,14.74c-1.13-1.01-2.76-1.64-4.57-1.64s-3.29.58-4.42,1.5l-25.99-14.61h61.21Z"/>
        <polygon class="cls-3" points="185.46 159.72 185.46 154.71 215.85 154.71 215.85 159.72 210.73 159.72 185.46 159.72"/>
        <path class="cls-3" d="m201.11,188.72h-41.96l15.29-8.6c1.03,1.61,3.1,2.71,5.49,2.71s4.6-1.18,5.59-2.87l15.58,8.76Z"/>
        <path class="cls-3" d="m186.12,177.82c0,.76-.21,1.49-.59,2.14l-5.4-3.04,4.38-2.46c.99.88,1.61,2.06,1.61,3.36Z"/>
        <path class="cls-3" d="m180.13,176.92l5.4,3.04c-.99,1.69-3.12,2.87-5.59,2.87s-4.46-1.1-5.49-2.71l5.69-3.2Z"/>
        <rect class="cls-5" x="174.2" y="154.71" width="11.26" height="5.01"/>
        <path class="cls-3" d="m179.93,172.82c1.82,0,3.44.63,4.57,1.64l-4.38,2.46-4.62-2.59c1.12-.93,2.69-1.5,4.42-1.5Z"/>
        <path class="cls-3" d="m180.13,176.92l-5.69,3.2c-.44-.68-.69-1.47-.69-2.3,0-1.37.67-2.59,1.76-3.49l4.62,2.59Z"/>
        <path class="cls-3" d="m149.53,159.72l25.99,14.61c-1.09.9-1.76,2.13-1.76,3.49,0,.83.25,1.62.69,2.3l-15.29,8.6h-41.31l-15.58-8.76c.38-.65.59-1.37.59-2.14,0-1.3-.61-2.47-1.61-3.36l26.23-14.74h22.06Zm-6.99,18.1c0-2.76-2.24-5-5-5s-5.01,2.24-5.01,5,2.24,5.01,5.01,5.01,5-2.24,5-5.01Z"/>
        <polygon class="cls-3" points="174.2 159.72 149.53 159.72 143.8 159.72 143.8 154.71 174.2 154.71 174.2 159.72"/>
        <rect class="cls-5" x="132.55" y="154.71" width="11.26" height="5.01"/>
        <path class="cls-5" d="m137.54,172.82c2.76,0,5,2.24,5,5s-2.24,5.01-5,5.01-5.01-2.24-5.01-5.01,2.24-5,5.01-5Z"/>
        <path class="cls-3" d="m127.47,159.72l-26.23,14.74c-1.13-1.01-2.76-1.64-4.57-1.64s-3.29.58-4.42,1.5l-25.99-14.61h61.21Z"/>
        <polygon class="cls-3" points="132.55 159.72 127.47 159.72 102.15 159.72 102.15 154.71 132.55 154.71 132.55 159.72"/>
        <path class="cls-3" d="m117.85,188.72h-41.96l15.29-8.6c1.03,1.61,3.1,2.71,5.49,2.71s4.6-1.18,5.59-2.87l15.58,8.76Z"/>
        <path class="cls-3" d="m102.85,177.82c0,.76-.21,1.49-.59,2.14l-5.4-3.04,4.38-2.46c.99.88,1.61,2.06,1.61,3.36Z"/>
        <path class="cls-3" d="m96.87,176.92l5.4,3.04c-.99,1.69-3.12,2.87-5.59,2.87s-4.46-1.1-5.49-2.71l5.69-3.2Z"/>
        <rect class="cls-5" x="90.89" y="154.71" width="11.26" height="5.01"/>
        <path class="cls-3" d="m96.67,172.82c1.82,0,3.44.63,4.57,1.64l-4.38,2.46-4.62-2.59c1.12-.93,2.69-1.5,4.42-1.5Z"/>
        <path class="cls-3" d="m96.87,176.92l-5.69,3.2c-.44-.68-.69-1.47-.69-2.3,0-1.37.67-2.59,1.76-3.49l4.62,2.59Z"/>
        <path class="cls-3" d="m66.26,159.72l25.99,14.61c-1.09.9-1.76,2.13-1.76,3.49,0,.83.25,1.62.69,2.3l-15.29,8.6h-41.5l-15.58-8.76c.38-.65.59-1.37.59-2.14,0-1.3-.61-2.47-1.61-3.36l26.23-14.74h22.25Zm-8.49,18.1c0-2.76-2.24-5-5-5s-5.01,2.24-5.01,5,2.24,5.01,5.01,5.01,5-2.24,5-5.01Z"/>
        <polygon class="cls-3" points="90.89 159.72 66.26 159.72 60.5 159.72 60.5 154.71 90.89 154.71 90.89 159.72"/>
        <rect class="cls-5" x="49.24" y="154.71" width="11.26" height="5.01"/>
        <path class="cls-5" d="m52.77,172.82c2.76,0,5,2.24,5,5s-2.24,5.01-5,5.01-5.01-2.24-5.01-5.01,2.24-5,5.01-5Z"/>
        <polygon class="cls-3" points="49.24 159.72 44.01 159.72 18.84 159.72 18.84 154.71 49.24 154.71 49.24 159.72"/>
        <path class="cls-3" d="m34.39,188.72H3.98v-6.49l3.74-2.1c1.03,1.61,3.1,2.71,5.49,2.71s4.6-1.18,5.59-2.87l15.58,8.76Z"/>
        <path class="cls-3" d="m19.4,177.82c0,.76-.21,1.49-.59,2.14l-5.4-3.04,4.38-2.46c.99.88,1.61,2.06,1.61,3.36Z"/>
        <rect class="cls-5" x="7.58" y="154.71" width="11.26" height="5.01"/>
        <path class="cls-3" d="m13.41,176.92l5.4,3.04c-.99,1.69-3.12,2.87-5.59,2.87s-4.46-1.1-5.49-2.71l5.69-3.2Z"/>
        <path class="cls-3" d="m13.21,172.82c1.82,0,3.44.63,4.57,1.64l-4.38,2.46-4.62-2.59c1.12-.93,2.69-1.5,4.42-1.5Z"/>
        <path class="cls-3" d="m13.41,176.92l-5.69,3.2c-.44-.68-.69-1.47-.69-2.3,0-1.37.67-2.59,1.76-3.49l4.62,2.59Z"/>
        <path class="cls-3" d="m3.98,171.62l4.82,2.71c-1.09.9-1.76,2.13-1.76,3.49,0,.83.25,1.62.69,2.3l-3.74,2.1v-10.6Z"/>
        <polygon class="cls-8" points="215.85 154.71 185.46 154.71 174.2 154.71 143.8 154.71 132.55 154.71 102.15 154.71 90.89 154.71 60.5 154.71 49.24 154.71 18.84 154.71 7.58 154.71 3.98 154.71 3.98 80.79 4.86 80.79 272.74 80.79 272.74 154.71 268.77 154.71 257.51 154.71 227.11 154.71 215.85 154.71"/>
        <path class="cls-3" d="m3.98,159.72h40.04l-26.23,14.74c-1.13-1.01-2.76-1.64-4.57-1.64s-3.29.58-4.42,1.5l-4.82-2.71v-11.9Z"/>
      </g>
      <g>
        <polyline class="cls-10" points="272.74 188.72 242.42 188.72 201.11 188.72 159.15 188.72 117.85 188.72 75.89 188.72 34.39 188.72 3.98 188.72"/>
        <line class="cls-10" x1="3.98" y1="75.05" x2="272.74" y2="75.05"/>
        <line class="cls-10" x1="3.98" y1="80.79" x2="272.74" y2="80.79"/>
        <line class="cls-10" x1="268.77" y1="154.71" x2="272.74" y2="154.71"/>
        <line class="cls-10" x1="227.11" y1="154.71" x2="257.51" y2="154.71"/>
        <line class="cls-10" x1="185.46" y1="154.71" x2="215.85" y2="154.71"/>
        <line class="cls-10" x1="143.8" y1="154.71" x2="174.2" y2="154.71"/>
        <line class="cls-10" x1="102.15" y1="154.71" x2="132.55" y2="154.71"/>
        <line class="cls-10" x1="60.5" y1="154.71" x2="90.89" y2="154.71"/>
        <line class="cls-10" x1="18.84" y1="154.71" x2="49.24" y2="154.71"/>
        <line class="cls-10" x1="3.98" y1="154.71" x2="7.58" y2="154.71"/>
        <line class="cls-10" x1="268.77" y1="159.72" x2="272.74" y2="159.72"/>
        <polyline class="cls-10" points="227.11 159.72 232.79 159.72 257.51 159.72"/>
        <polyline class="cls-10" points="185.46 159.72 210.73 159.72 215.85 159.72"/>
        <polyline class="cls-10" points="143.8 159.72 149.53 159.72 174.2 159.72"/>
        <polyline class="cls-10" points="102.15 159.72 127.47 159.72 132.55 159.72"/>
        <polyline class="cls-10" points="60.5 159.72 66.26 159.72 90.89 159.72"/>
        <polyline class="cls-10" points="18.84 159.72 44.01 159.72 49.24 159.72"/>
        <line class="cls-10" x1="3.98" y1="159.72" x2="7.58" y2="159.72"/>
        <polyline class="cls-10" points="75.89 188.72 91.18 180.12 96.87 176.92 101.24 174.46 127.47 159.72"/>
        <polyline class="cls-10" points="117.85 188.72 102.26 179.96 96.87 176.92 92.25 174.33 66.26 159.72"/>
        <path class="cls-10" d="m142.54,177.82c0,2.77-2.24,5.01-5,5.01s-5.01-2.24-5.01-5.01,2.24-5,5.01-5,5,2.24,5,5Z"/>
        <path class="cls-10" d="m226.85,177.82c0,2.77-2.24,5.01-5,5.01s-5.01-2.24-5.01-5.01,2.24-5,5.01-5,5,2.24,5,5Z"/>
        <path class="cls-10" d="m101.24,174.46c.99.88,1.61,2.06,1.61,3.36,0,.76-.21,1.49-.59,2.14-.99,1.69-3.12,2.87-5.59,2.87s-4.46-1.1-5.49-2.71c-.44-.68-.69-1.47-.69-2.3,0-1.37.67-2.59,1.76-3.49,1.12-.93,2.69-1.5,4.42-1.5,1.82,0,3.44.63,4.57,1.64Z"/>
        <polyline class="cls-10" points="3.98 182.22 7.72 180.12 13.41 176.92 17.79 174.46 44.01 159.72"/>
        <polyline class="cls-10" points="34.39 188.72 18.81 179.96 13.41 176.92 8.79 174.33 3.98 171.62"/>
        <path class="cls-10" d="m17.79,174.46c.99.88,1.61,2.06,1.61,3.36,0,.76-.21,1.49-.59,2.14-.99,1.69-3.12,2.87-5.59,2.87s-4.46-1.1-5.49-2.71c-.44-.68-.69-1.47-.69-2.3,0-1.37.67-2.59,1.76-3.49,1.12-.93,2.69-1.5,4.42-1.5,1.82,0,3.44.63,4.57,1.64Z"/>
        <polyline class="cls-10" points="159.15 188.72 174.44 180.12 180.13 176.92 184.51 174.46 210.73 159.72"/>
        <polyline class="cls-10" points="201.11 188.72 185.53 179.96 180.13 176.92 175.51 174.33 149.53 159.72"/>
        <path class="cls-10" d="m184.51,174.46c.99.88,1.61,2.06,1.61,3.36,0,.76-.21,1.49-.59,2.14-.99,1.69-3.12,2.87-5.59,2.87s-4.46-1.1-5.49-2.71c-.44-.68-.69-1.47-.69-2.3,0-1.37.67-2.59,1.76-3.49,1.12-.93,2.69-1.5,4.42-1.5,1.82,0,3.44.63,4.57,1.64Z"/>
        <polyline class="cls-10" points="242.42 188.72 257.71 180.12 263.4 176.92 267.77 174.46 272.74 171.66"/>
        <polyline class="cls-10" points="272.74 182.18 268.79 179.96 263.4 176.92 258.78 174.33 232.79 159.72"/>
        <path class="cls-10" d="m267.77,174.46c.99.89,1.61,2.07,1.61,3.36,0,.76-.21,1.49-.59,2.14-.99,1.69-3.12,2.87-5.59,2.87s-4.46-1.1-5.49-2.71c-.44-.68-.69-1.47-.69-2.3,0-1.37.67-2.59,1.76-3.49,1.12-.93,2.69-1.5,4.42-1.5,1.82,0,3.44.63,4.57,1.63Z"/>
        <path class="cls-10" d="m57.77,177.82c0,2.77-2.24,5.01-5,5.01s-5.01-2.24-5.01-5.01,2.24-5,5.01-5,5,2.24,5,5Z"/>
        <rect class="cls-10" x="7.58" y="154.71" width="11.26" height="5.01"/>
        <rect class="cls-10" x="49.24" y="154.71" width="11.26" height="5.01"/>
        <rect class="cls-10" x="90.89" y="154.71" width="11.26" height="5.01"/>
        <rect class="cls-10" x="132.55" y="154.71" width="11.26" height="5.01"/>
        <rect class="cls-10" x="174.2" y="154.71" width="11.26" height="5.01"/>
        <rect class="cls-10" x="215.85" y="154.71" width="11.26" height="5.01"/>
        <rect class="cls-10" x="257.51" y="154.71" width="11.26" height="5.01"/>
      </g>
    </g>
    <g>
      <g>
        <rect class="cls-3" x="287.46" y="155.83" width="3.61" height="5.01"/>
        <path class="cls-3" d="m556.23,183.3v6.54h-30.33l15.29-8.6c1.03,1.61,3.1,2.71,5.49,2.71s4.6-1.18,5.59-2.87l3.95,2.22Z"/>
        <path class="cls-3" d="m556.23,172.78v10.52l-3.95-2.22c.38-.65.59-1.37.59-2.14,0-1.3-.61-2.47-1.61-3.36l4.97-2.79Z"/>
        <path class="cls-3" d="m556.23,160.84v11.94l-4.97,2.79c-1.13-1-2.76-1.63-4.57-1.63s-3.29.58-4.42,1.5l-25.99-14.61h39.95Z"/>
        <polygon class="cls-3" points="556.23 76.17 556.23 81.91 288.35 81.91 287.46 81.91 287.46 76.17 556.23 76.17"/>
        <rect class="cls-3" x="552.25" y="155.83" width="3.98" height="5.01"/>
        <path class="cls-3" d="m552.87,178.94c0,.76-.21,1.49-.59,2.14l-5.4-3.04,4.38-2.46c.99.89,1.61,2.07,1.61,3.36Z"/>
        <path class="cls-3" d="m546.88,178.04l5.4,3.04c-.99,1.69-3.12,2.87-5.59,2.87s-4.46-1.1-5.49-2.71l5.69-3.2Z"/>
        <rect class="cls-5" x="541" y="155.83" width="11.26" height="5.01"/>
        <path class="cls-3" d="m551.26,175.58l-4.38,2.46-4.62-2.59c1.12-.93,2.69-1.5,4.42-1.5,1.82,0,3.44.63,4.57,1.63Z"/>
        <path class="cls-3" d="m546.88,178.04l-5.69,3.2c-.44-.68-.69-1.47-.69-2.3,0-1.37.67-2.59,1.76-3.49l4.62,2.59Z"/>
        <path class="cls-3" d="m516.28,160.84l25.99,14.61c-1.09.9-1.76,2.13-1.76,3.49,0,.83.25,1.62.69,2.3l-15.29,8.6h-41.31l-15.58-8.76c.38-.65.59-1.37.59-2.14,0-1.3-.61-2.47-1.61-3.36l26.23-14.74h22.06Zm-5.94,18.1c0-2.76-2.24-5-5-5s-5.01,2.24-5.01,5,2.24,5.01,5.01,5.01,5-2.24,5-5.01Z"/>
        <polygon class="cls-3" points="541 160.84 516.28 160.84 510.6 160.84 510.6 155.83 541 155.83 541 160.84"/>
        <rect class="cls-5" x="499.34" y="155.83" width="11.26" height="5.01"/>
        <path class="cls-5" d="m505.34,173.94c2.76,0,5,2.24,5,5s-2.24,5.01-5,5.01-5.01-2.24-5.01-5.01,2.24-5,5.01-5Z"/>
        <path class="cls-3" d="m494.22,160.84l-26.23,14.74c-1.13-1.01-2.76-1.64-4.57-1.64s-3.29.58-4.42,1.5l-25.99-14.61h61.21Z"/>
        <polygon class="cls-3" points="468.95 160.84 468.95 155.83 499.34 155.83 499.34 160.84 494.22 160.84 468.95 160.84"/>
        <path class="cls-3" d="m484.6,189.83h-41.96l15.29-8.6c1.03,1.61,3.1,2.71,5.49,2.71s4.6-1.18,5.59-2.87l15.58,8.76Z"/>
        <path class="cls-3" d="m469.6,178.94c0,.76-.21,1.49-.59,2.14l-5.4-3.04,4.38-2.46c.99.88,1.61,2.06,1.61,3.36Z"/>
        <path class="cls-3" d="m463.62,178.04l5.4,3.04c-.99,1.69-3.12,2.87-5.59,2.87s-4.46-1.1-5.49-2.71l5.69-3.2Z"/>
        <rect class="cls-5" x="457.69" y="155.83" width="11.26" height="5.01"/>
        <path class="cls-3" d="m463.42,173.94c1.82,0,3.44.63,4.57,1.64l-4.38,2.46-4.62-2.59c1.12-.93,2.69-1.5,4.42-1.5Z"/>
        <path class="cls-3" d="m463.62,178.04l-5.69,3.2c-.44-.68-.69-1.47-.69-2.3,0-1.37.67-2.59,1.76-3.49l4.62,2.59Z"/>
        <path class="cls-3" d="m433.02,160.84l25.99,14.61c-1.09.9-1.76,2.13-1.76,3.49,0,.83.25,1.62.69,2.3l-15.29,8.6h-41.31l-15.58-8.76c.38-.65.59-1.37.59-2.14,0-1.3-.61-2.47-1.61-3.36l26.23-14.74h22.06Zm-6.99,18.1c0-2.76-2.24-5-5-5s-5.01,2.24-5.01,5,2.24,5.01,5.01,5.01,5-2.24,5-5.01Z"/>
        <polygon class="cls-3" points="457.69 160.84 433.02 160.84 427.29 160.84 427.29 155.83 457.69 155.83 457.69 160.84"/>
        <rect class="cls-5" x="416.03" y="155.83" width="11.26" height="5.01"/>
        <path class="cls-5" d="m421.03,173.94c2.76,0,5,2.24,5,5s-2.24,5.01-5,5.01-5.01-2.24-5.01-5.01,2.24-5,5.01-5Z"/>
        <path class="cls-3" d="m410.96,160.84l-26.23,14.74c-1.13-1.01-2.76-1.64-4.57-1.64s-3.29.58-4.42,1.5l-25.99-14.61h61.21Z"/>
        <polygon class="cls-3" points="416.03 160.84 410.96 160.84 385.64 160.84 385.64 155.83 416.03 155.83 416.03 160.84"/>
        <path class="cls-3" d="m401.33,189.83h-41.96l15.29-8.6c1.03,1.61,3.1,2.71,5.49,2.71s4.6-1.18,5.59-2.87l15.58,8.76Z"/>
        <path class="cls-3" d="m386.34,178.94c0,.76-.21,1.49-.59,2.14l-5.4-3.04,4.38-2.46c.99.88,1.61,2.06,1.61,3.36Z"/>
        <path class="cls-3" d="m380.35,178.04l5.4,3.04c-.99,1.69-3.12,2.87-5.59,2.87s-4.46-1.1-5.49-2.71l5.69-3.2Z"/>
        <rect class="cls-5" x="374.38" y="155.83" width="11.26" height="5.01"/>
        <path class="cls-3" d="m380.16,173.94c1.82,0,3.44.63,4.57,1.64l-4.38,2.46-4.62-2.59c1.12-.93,2.69-1.5,4.42-1.5Z"/>
        <path class="cls-3" d="m380.35,178.04l-5.69,3.2c-.44-.68-.69-1.47-.69-2.3,0-1.37.67-2.59,1.76-3.49l4.62,2.59Z"/>
        <path class="cls-3" d="m349.75,160.84l25.99,14.61c-1.09.9-1.76,2.13-1.76,3.49,0,.83.25,1.62.69,2.3l-15.29,8.6h-41.5l-15.58-8.76c.38-.65.59-1.37.59-2.14,0-1.3-.61-2.47-1.61-3.36l26.23-14.74h22.25Zm-8.49,18.1c0-2.76-2.24-5-5-5s-5.01,2.24-5.01,5,2.24,5.01,5.01,5.01,5-2.24,5-5.01Z"/>
        <polygon class="cls-3" points="374.38 160.84 349.75 160.84 343.98 160.84 343.98 155.83 374.38 155.83 374.38 160.84"/>
        <rect class="cls-5" x="332.72" y="155.83" width="11.26" height="5.01"/>
        <path class="cls-5" d="m336.26,173.94c2.76,0,5,2.24,5,5s-2.24,5.01-5,5.01-5.01-2.24-5.01-5.01,2.24-5,5.01-5Z"/>
        <polygon class="cls-3" points="332.72 160.84 327.5 160.84 302.33 160.84 302.33 155.83 332.72 155.83 332.72 160.84"/>
        <path class="cls-3" d="m317.88,189.83h-30.41v-6.49l3.74-2.1c1.03,1.61,3.1,2.71,5.49,2.71s4.6-1.18,5.59-2.87l15.58,8.76Z"/>
        <path class="cls-3" d="m302.88,178.94c0,.76-.21,1.49-.59,2.14l-5.4-3.04,4.38-2.46c.99.88,1.61,2.06,1.61,3.36Z"/>
        <rect class="cls-5" x="291.07" y="155.83" width="11.26" height="5.01"/>
        <path class="cls-3" d="m296.9,178.04l5.4,3.04c-.99,1.69-3.12,2.87-5.59,2.87s-4.46-1.1-5.49-2.71l5.69-3.2Z"/>
        <path class="cls-3" d="m296.7,173.94c1.82,0,3.44.63,4.57,1.64l-4.38,2.46-4.62-2.59c1.12-.93,2.69-1.5,4.42-1.5Z"/>
        <path class="cls-3" d="m296.9,178.04l-5.69,3.2c-.44-.68-.69-1.47-.69-2.3,0-1.37.67-2.59,1.76-3.49l4.62,2.59Z"/>
        <path class="cls-3" d="m287.46,172.74l4.82,2.71c-1.09.9-1.76,2.13-1.76,3.49,0,.83.25,1.62.69,2.3l-3.74,2.1v-10.6Z"/>
        <polygon class="cls-8" points="499.34 155.83 468.95 155.83 457.69 155.83 427.29 155.83 416.03 155.83 385.64 155.83 374.38 155.83 343.98 155.83 332.72 155.83 302.33 155.83 291.07 155.83 287.46 155.83 287.46 81.91 288.35 81.91 556.23 81.91 556.23 155.83 552.25 155.83 541 155.83 510.6 155.83 499.34 155.83"/>
        <path class="cls-3" d="m287.46,160.84h40.04l-26.23,14.74c-1.13-1.01-2.76-1.64-4.57-1.64s-3.29.58-4.42,1.5l-4.82-2.71v-11.9Z"/>
      </g>
      <g>
        <polyline class="cls-10" points="556.23 189.83 525.91 189.83 484.6 189.83 442.64 189.83 401.33 189.83 359.38 189.83 317.88 189.83 287.46 189.83"/>
        <line class="cls-10" x1="287.46" y1="76.17" x2="556.23" y2="76.17"/>
        <line class="cls-10" x1="287.46" y1="81.91" x2="556.23" y2="81.91"/>
        <line class="cls-10" x1="552.25" y1="155.83" x2="556.23" y2="155.83"/>
        <line class="cls-10" x1="510.6" y1="155.83" x2="541" y2="155.83"/>
        <line class="cls-10" x1="468.95" y1="155.83" x2="499.34" y2="155.83"/>
        <line class="cls-10" x1="427.29" y1="155.83" x2="457.69" y2="155.83"/>
        <line class="cls-10" x1="385.64" y1="155.83" x2="416.03" y2="155.83"/>
        <line class="cls-10" x1="343.98" y1="155.83" x2="374.38" y2="155.83"/>
        <line class="cls-10" x1="302.33" y1="155.83" x2="332.72" y2="155.83"/>
        <line class="cls-10" x1="287.46" y1="155.83" x2="291.07" y2="155.83"/>
        <line class="cls-10" x1="552.25" y1="160.84" x2="556.23" y2="160.84"/>
        <polyline class="cls-10" points="510.6 160.84 516.28 160.84 541 160.84"/>
        <polyline class="cls-10" points="468.95 160.84 494.22 160.84 499.34 160.84"/>
        <polyline class="cls-10" points="427.29 160.84 433.02 160.84 457.69 160.84"/>
        <polyline class="cls-10" points="385.64 160.84 410.96 160.84 416.03 160.84"/>
        <polyline class="cls-10" points="343.98 160.84 349.75 160.84 374.38 160.84"/>
        <polyline class="cls-10" points="302.33 160.84 327.5 160.84 332.72 160.84"/>
        <line class="cls-10" x1="287.46" y1="160.84" x2="291.07" y2="160.84"/>
        <polyline class="cls-10" points="359.38 189.83 374.66 181.24 380.35 178.04 384.73 175.58 410.96 160.84"/>
        <polyline class="cls-10" points="401.33 189.83 385.75 181.08 380.35 178.04 375.74 175.45 349.75 160.84"/>
        <path class="cls-10" d="m426.03,178.94c0,2.77-2.24,5.01-5,5.01s-5.01-2.24-5.01-5.01,2.24-5,5.01-5,5,2.24,5,5Z"/>
        <path class="cls-10" d="m510.34,178.94c0,2.77-2.24,5.01-5,5.01s-5.01-2.24-5.01-5.01,2.24-5,5.01-5,5,2.24,5,5Z"/>
        <path class="cls-10" d="m384.73,175.58c.99.88,1.61,2.06,1.61,3.36,0,.76-.21,1.49-.59,2.14-.99,1.69-3.12,2.87-5.59,2.87s-4.46-1.1-5.49-2.71c-.44-.68-.69-1.47-.69-2.3,0-1.37.67-2.59,1.76-3.49,1.12-.93,2.69-1.5,4.42-1.5,1.82,0,3.44.63,4.57,1.64Z"/>
        <polyline class="cls-10" points="287.46 183.34 291.21 181.24 296.9 178.04 301.27 175.58 327.5 160.84"/>
        <polyline class="cls-10" points="317.88 189.83 302.29 181.08 296.9 178.04 292.28 175.45 287.46 172.74"/>
        <path class="cls-10" d="m301.27,175.58c.99.88,1.61,2.06,1.61,3.36,0,.76-.21,1.49-.59,2.14-.99,1.69-3.12,2.87-5.59,2.87s-4.46-1.1-5.49-2.71c-.44-.68-.69-1.47-.69-2.3,0-1.37.67-2.59,1.76-3.49,1.12-.93,2.69-1.5,4.42-1.5,1.82,0,3.44.63,4.57,1.64Z"/>
        <polyline class="cls-10" points="442.64 189.83 457.93 181.24 463.62 178.04 467.99 175.58 494.22 160.84"/>
        <polyline class="cls-10" points="484.6 189.83 469.02 181.08 463.62 178.04 459 175.45 433.02 160.84"/>
        <path class="cls-10" d="m467.99,175.58c.99.88,1.61,2.06,1.61,3.36,0,.76-.21,1.49-.59,2.14-.99,1.69-3.12,2.87-5.59,2.87s-4.46-1.1-5.49-2.71c-.44-.68-.69-1.47-.69-2.3,0-1.37.67-2.59,1.76-3.49,1.12-.93,2.69-1.5,4.42-1.5,1.82,0,3.44.63,4.57,1.64Z"/>
        <polyline class="cls-10" points="525.91 189.83 541.19 181.24 546.88 178.04 551.26 175.58 556.23 172.78"/>
        <polyline class="cls-10" points="556.23 183.3 552.28 181.08 546.88 178.04 542.27 175.45 516.28 160.84"/>
        <path class="cls-10" d="m551.26,175.58c.99.89,1.61,2.07,1.61,3.36,0,.76-.21,1.49-.59,2.14-.99,1.69-3.12,2.87-5.59,2.87s-4.46-1.1-5.49-2.71c-.44-.68-.69-1.47-.69-2.3,0-1.37.67-2.59,1.76-3.49,1.12-.93,2.69-1.5,4.42-1.5,1.82,0,3.44.63,4.57,1.63Z"/>
        <path class="cls-10" d="m341.26,178.94c0,2.77-2.24,5.01-5,5.01s-5.01-2.24-5.01-5.01,2.24-5,5.01-5,5,2.24,5,5Z"/>
        <rect class="cls-10" x="291.07" y="155.83" width="11.26" height="5.01"/>
        <rect class="cls-10" x="332.72" y="155.83" width="11.26" height="5.01"/>
        <rect class="cls-10" x="374.38" y="155.83" width="11.26" height="5.01"/>
        <rect class="cls-10" x="416.03" y="155.83" width="11.26" height="5.01"/>
        <rect class="cls-10" x="457.69" y="155.83" width="11.26" height="5.01"/>
        <rect class="cls-10" x="499.34" y="155.83" width="11.26" height="5.01"/>
        <rect class="cls-10" x="541" y="155.83" width="11.26" height="5.01"/>
      </g>
    </g>
  </g>
  <g id="_レイヤー_2" data-name="レイヤー 2">
    <g class="cls-16">
      <g>
        <g>
          <path class="cls-1" d="m181.66,27.64c.59-.78-1.37-2.17-1.92-1.36-.59.78,1.38,2.17,1.92,1.36Zm-14.31,13.51h-1.25c-.26,2.71.59,2.81,2.83,1.61l-.37-.87h-.84l-.37-.74Zm10.21-16.93c.58-.78-1.38-2.17-1.93-1.36-.59.78,1.38,2.17,1.93,1.36Zm.46,10.75c-1.08,2.16-2.29,5.27-2.97,7.34-.43,1.31-2.32,2.49-4.63,3.4-3.01,1.18-6.72,1.89-8.85,1.77-1.88-.11-3.5-1.12-4.66-2.08l-1.41,1.86c-2.32,1.86-4.63,4.53-6.59,7.09l-.03-.03-3.75-11.54c17.01-11.79,21.14-23.44,34-22.02,3.31.33,3.87,5.52,3.87,7.06,0,.28-.08.57-.22.88-.61,1.39-2.43,3-3.42,4.09-.38.42-.84,1.2-1.33,2.17Z"/>
          <path class="cls-14" d="m167.72,41.88h.84l.37.87c-2.24,1.2-3.09,1.1-2.83-1.61h1.25l.37.74Z"/>
          <path class="cls-2" d="m116.31,59.1s23.04,8.01,34.36,26.33c-1.15.42-2.33.87-3.49,1.37l-.21-.48c-6.98-11.7-24.59-19.65-33.23-21.21h0c.99-2.4,1.89-4.45,2.58-6.01Z"/>
          <path class="cls-2" d="m150.67,85.43c-11.33-18.32-34.36-26.33-34.36-26.33.32-.72.59-1.32.81-1.81.4-.86.62-1.33.62-1.33,4.72-1.53,8.93-3.18,12.71-4.91,3.25-1.47,6.17-3,8.83-4.56l4.3,15.64,1.43,5.21c2.4-3.87,6.82-9.12,10.49-13.26-.58,4.23-2.07,10.64-3.11,16.64-.13.69-.24,1.38-.35,2.06-.12.7-.22,1.39-.31,2.06-.1.71-.19,1.4-.26,2.08-.15,1.41-.23,2.72-.23,3.89,1.31.78,5.4,1.9,10,2.66l-.04.28c-2.97-.53-6.68.3-10.52,1.69Z"/>
          <path class="cls-7" d="m176.36,133.02c-2.35-3.74-9.9-19.56-10.37-20.54.69,1.17,12.78,21.7,18.85,31.72-1.4-1.7-6.4-7.87-8.48-11.18Z"/>
          <path class="cls-7" d="m184.13,151.98l-7.51,1.18c-3.19-3.67-7.29-11.59-10.39-19.47-.85-2.15-1.62-4.31-2.28-6.36-.5-1.58-.94-3.12-1.29-4.56-.23-.93-.43-1.83-.58-2.68-.25-1.36-.39-2.58-.4-3.62,1.16-.18,2.05-.67,2.72-1.34,1.68,10.26,9.21,24.9,15.8,32.86,1.37,1.65,2.7,3.03,3.93,4Z"/>
          <path class="cls-7" d="m185.75,146.38l-5.07,1.5-.48.1c-6.59-7.96-14.12-22.6-15.8-32.86.71-.71,1.18-1.65,1.49-2.7l.08.02.03.05c.47.98,8.02,16.79,10.37,20.54,2.08,3.31,7.08,9.48,8.48,11.18h0c.43.73.84,1.39,1.2,1.99l-.31.19Z"/>
          <path class="cls-7" d="m166.35,108.7c1.31,2.79,3.89,6.83,7.06,11.24h0c4.67,6.52,10.61,13.84,15.67,19.11,2.61,2.72,4.98,4.9,6.82,6.16,0,0-5.45,3.23-7.66,4.41-.13-.1-.94-1.39-2.19-3.42-.36-.6-.77-1.26-1.2-1.98h0c-6.07-10.03-18.16-30.56-18.85-31.73l-.03-.05-.08-.02c.34-1.15.46-2.44.46-3.72Z"/>
          <path class="cls-5" d="m175.63,22.85c.54-.81,2.51.58,1.93,1.36-.54.81-2.52-.58-1.93-1.36Z"/>
          <path class="cls-5" d="m181.66,27.64c-.54.81-2.51-.58-1.92-1.36.54-.81,2.51.58,1.92,1.36Z"/>
          <path class="cls-5" d="m130.45,51.05c-3.78,1.73-7.99,3.38-12.71,4.91-.04-5.3,2.9-10.1,7.15-14.31.89-.88,1.83-1.74,2.82-2.57.74-.62,1.51-1.23,2.3-1.82,1.41-1.07,2.88-2.09,4.37-3.05,6.31-4.11,12.93-7.26,16.85-9.28,5.66-4.06,9.29-8.05,13.84-9.98,3.56-1.51,7.7-1.76,13.84.24,2.06,1.31,6.57,5.54,5.69,10.06-.22,1.15-.8,2.31-1.84,3.45.14-.31.22-.61.22-.88,0-1.55-.55-6.74-3.87-7.06-12.86-1.42-16.99,10.24-34,22.02-1.79,1.25-3.73,2.49-5.84,3.72-2.65,1.56-5.58,3.09-8.83,4.56Z"/>
          <path class="cls-7" d="m116.31,56.9l.81.4c-.22.48-.49,1.09-.81,1.81-.69,1.56-1.59,3.61-2.58,6.01-.32.78-.65,1.6-.98,2.45-13.58-7.58-25.04-13.14-35.3-18.29,1.21.11,3.07.38,5.35.75,1.48.24,3.13.54,4.89.86,1.98.36,4.1.76,6.28,1.18,8.1,1.58,17.02,3.49,22.33,4.83Z"/>
          <path class="cls-2" d="m70.86,29.81c-1.25,6.38-2.45,12.68-2.83,14.67-4.9-2.56-9.56-5.15-14.11-7.95l.06-.1c1.73-2.41,10.71-7.44,16.88-6.62Z"/>
          <path class="cls-2" d="m124.83,41.59l.06.06c-4.25,4.21-7.19,9.01-7.15,14.31,0,0-.22.48-.62,1.33l-.81-.4c-5.31-1.34-14.22-3.25-22.33-4.83l23.76-15.63,7.09,5.16Z"/>
          <path class="cls-6" d="m71.7,25.59c-.28,1.38-.55,2.8-.84,4.22-6.17-.81-15.15,4.21-16.88,6.62l-.06.1c-1.25-.78-2.49-1.57-3.73-2.37l.19-.29c2.57-2.59,13.01-8.28,21.32-8.29Z"/>
          <path class="cls-6" d="m72.56,21.36c-.27,1.32-.56,2.75-.86,4.23-8.31.02-18.75,5.7-21.32,8.29l-.19.29c-1.22-.8-2.44-1.63-3.65-2.49l.24-.35c3.41-2.78,15.33-9.14,25.78-9.97Z"/>
          <path class="cls-6" d="m73.61,16.56c-.23,1.03-.51,2.29-.81,3.71-.08.35-.15.72-.23,1.09-10.45.83-22.37,7.19-25.78,9.97l-.24.35c-1.57-1.09-3.14-2.23-4.7-3.43l.26-.35c6.32-6.04,23.14-13.54,31.51-11.34Z"/>
          <path class="cls-6" d="m127.6,38.95l.11.13c-.99.83-1.93,1.69-2.82,2.57l-.06-.06-7.09-5.16-23.76,15.63c-2.18-.42-4.3-.82-6.28-1.18l30.04-18.57,9.86,6.65Z"/>
          <path class="cls-6" d="m129.89,37.1l.12.16c-.79.6-1.56,1.2-2.3,1.82l-.11-.13-9.86-6.65-30.04,18.57c-1.76-.32-3.42-.61-4.89-.86l34.94-22.13,12.15,9.2Z"/>
          <path class="cls-6" d="m134.25,34.02l.13.19c-1.49.96-2.96,1.98-4.37,3.05l-.12-.16-12.15-9.2-34.94,22.13c-2.28-.37-4.14-.64-5.35-.75-1.18-.59-2.35-1.18-3.51-1.76l43.8-27.2,16.51,13.71Z"/>
          <path class="cls-6" d="m21.14,117.71c-4.37-8.34-7.9-16.82-8.93-19.47,1.92-.1,4.88-.28,8.54-.48v.09c2.32,9.65,9.28,28.28,21.26,33.46-.68,2.21-1.5,3.71-2.43,4.61-1.95,1.9-4.37,1.16-6.96-1.18-3.77-3.39-7.91-10.17-11.48-17.02Z"/>
          <path class="cls-6" d="m42.64,127.66l.28.08c-.31,1.14-.61,2.34-.9,3.57-11.99-5.18-18.95-23.81-21.26-33.46v-.09c1.39-.07,2.89-.16,4.48-.23v.12c.5,6.29,7.08,26.03,17.4,30.01Z"/>
          <path class="cls-6" d="m43.27,124.01l.74.1c-.38,1.11-.75,2.33-1.1,3.62l-.28-.08c-10.32-3.98-16.9-23.72-17.39-30.01v-.12c1.42-.07,2.92-.14,4.48-.22v.14s.44,19.34,13.54,26.56Z"/>
          <path class="cls-2" d="m41.89,96.87c19.36-.53,41.57-.15,48.44,4.13-2.29,1.1-4.89,2.33-7.58,3.65-1.57.75-3.16,1.53-4.74,2.32-1.08.53-2.16,1.07-3.22,1.6-1.09.55-2.15,1.1-3.19,1.63-1.11.57-2.17,1.13-3.18,1.68-4.49,2.4-7.9,4.46-8.74,5.58-1.97-.1-10.6.88-10.97.93h0c-1.78-.73-3.33,1.79-4.68,5.73l-.74-.1c-13.1-7.21-13.53-26.56-13.53-26.56v-.14c3.78-.16,7.9-.33,12.15-.44Z"/>
          <path class="cls-9" d="m103.35,128.92c2.01,2.55,4.16,6.13,5.5,8.77-3.94,2.29-14.99-.71-15.49-.85,3.25-1.94,6.59-4.56,9.99-7.92Z"/>
          <path class="cls-6" d="m135.82,122.32c1.08.59,2.21,1.15,3.36,1.69-2.8,4.56-19.85,13.11-26.75,16.15-.94.41-1.69.73-2.2.91,0-.43-.54-1.73-1.39-3.39-1.34-2.64-3.48-6.22-5.5-8.77-1.25-1.58-2.46-2.78-3.42-3.13v-.1c2.5.3,5.26.54,8.4.67,10.74-.29,20.87-.21,27.38-3.83l.11-.21Z"/>
          <path class="cls-6" d="m132.02,120.06c-27.83,6.17-41.96-5.65-63.6-8.18,1.01-.54,2.08-1.11,3.18-1.68l.02.04c18.71,3.71,37.29,13.36,58.58,8.48.54.44,1.16.88,1.82,1.33Z"/>
          <path class="cls-6" d="m130.97,112.47l.02.07c-2.99.68-3.84,1.87-3.28,3.29l-.17.07c-9.69,3.1-39.56-4.18-49.53-8.93,1.58-.79,3.17-1.57,4.74-2.32,20.18,5.34,31.24,11.67,48.23,7.82Z"/>
          <path class="cls-6" d="m78.01,106.97c9.97,4.76,39.85,12.04,49.53,8.93l.17-.07c.2.52.58,1.06,1.12,1.63-15.72,3.58-38.9-4.31-54.02-8.86l-.02-.03c1.05-.53,2.14-1.07,3.22-1.6Z"/>
          <path class="cls-6" d="m74.81,108.61c15.12,4.56,38.3,12.44,54.02,8.86.38.41.85.83,1.37,1.25-21.29,4.88-39.86-4.77-58.58-8.48l-.02-.04c1.04-.53,2.1-1.07,3.19-1.63l.02.03Z"/>
          <path class="cls-6" d="m91.6,124.22c-10.53-2.46-16.28-6.15-31.93-6.76.84-1.12,4.25-3.17,8.74-5.58,21.64,2.53,35.77,14.35,63.6,8.18,1.13.76,2.42,1.52,3.8,2.27l-.11.21c-6.51,3.62-16.64,3.54-27.38,3.83-3.14-.13-5.9-.36-8.39-.67-3.16-.39-5.88-.9-8.34-1.48Z"/>
          <path class="cls-6" d="m144,126.12h0c-1.58-.63-3.21-1.34-4.81-2.1-1.15-.54-2.28-1.11-3.36-1.69-1.37-.74-2.66-1.5-3.8-2.27-.67-.45-1.28-.89-1.82-1.33-.52-.42-.99-.85-1.37-1.25-.54-.57-.92-1.12-1.12-1.63-.56-1.43.29-2.61,3.28-3.29l-.02-.07c1.25-.29,2.53-.62,3.86-1.03.66.66,8.69,8.46,20.82,10.71l-.16.82-.8,5.59c-.35.58-2.32.32-5.06-.48-1.66-.48-3.61-1.16-5.64-1.97Z"/>
          <path class="cls-6" d="m155.65,122.15c-12.13-2.25-20.17-10.05-20.82-10.71,1.19-.35,2.41-.77,3.68-1.23,0,0,7.4,9.94,23.57,9.86.15.85.35,1.75.58,2.68h0c-2.46.03-4.79-.19-7-.61Z"/>
          <path class="cls-6" d="m162.08,120.08c-16.17.08-23.57-9.86-23.57-9.86.93-.34,1.89-.71,2.86-1.12,0,0,8.17,7.56,20.31,7.35,0,1.05.15,2.27.4,3.62Z"/>
          <path class="cls-6" d="m170.14,74.11c-5.12.99-15.12-.49-18.02-1.31h-.08c.1-.68.22-1.37.35-2.07l.08.02c4.36,1.24,14.44,1.78,16.8,1.12l.52-.13c.2.76.41,1.52.63,2.29l-.28.08Z"/>
          <path class="cls-6" d="m152.12,72.79c2.91.82,12.9,2.31,18.02,1.31l.28-.08c.22.76.45,1.53.7,2.28l-.1.03c-7.89,1.32-17.8-1.09-19.25-1.5h-.04c.09-.67.19-1.37.31-2.07h.08Z"/>
          <path class="cls-6" d="m151.77,74.85c1.45.41,11.36,2.82,19.25,1.5l.1-.03c.24.77.51,1.53.79,2.28-10.26,1.58-19.73-1.45-20.43-1.68.07-.67.16-1.37.26-2.08h.04Z"/>
          <path class="cls-6" d="m171.9,78.59c.68,1.85,1.47,3.64,2.37,5.29-3.36.71-8.46.33-13.04-.42-4.6-.76-8.69-1.89-10-2.66,0-1.17.09-2.48.23-3.89.7.22,10.18,3.26,20.43,1.68Z"/>
          <path class="cls-9" d="m170.14,99.72s-.87-2.94-3.11-10.71c-1.09-3.23-3.17-4.78-5.84-5.26l.04-.28c4.58.74,9.68,1.12,13.04.42.74,1.37,1.57,2.65,2.5,3.79h0c-.86,1.02-1.72,2.11-2.54,3.27-.77,1.1-1.5,2.26-2.11,3.47-.52,1.04-.97,2.12-1.29,3.23-.2.69-.35,1.39-.43,2.11l-.27-.03Z"/>
          <path class="cls-6" d="m237.75,110.2l-.19.02c-11.78-8.49-51.7-6.59-63.26-19.23l-.07-.04c.82-1.16,1.69-2.25,2.54-3.26,11.35,12.57,47.46,9.39,60.19,18.29l.32-.03c.16,1.45.31,2.9.46,4.26Z"/>
          <path class="cls-6" d="m209.34,110.23c-1.15-.11-2.3-.17-3.43-.2-2.17-.04-4.22-.18-6.17-.42-8.21-.95-14.65-3.49-21-7.06-2.61-1.47-5.21-3.12-7.9-4.9.32-1.12.77-2.2,1.29-3.23h.02c9.27,7.05,20.3,10.94,34.67,11.79,13.87.78,29.35,6.87,31.34,8.27h.08c.3,2.54.51,4.25.51,4.25,0,0-15.12-7.19-29.39-8.48Z"/>
          <path class="cls-6" d="m238.23,114.45h-.08c-1.99-1.38-17.47-7.48-31.34-8.26-14.37-.85-25.4-4.74-34.67-11.78h-.02c.61-1.22,1.34-2.38,2.11-3.48l.07.04c11.55,12.64,51.48,10.74,63.26,19.23l.19-.02c.17,1.56.34,3,.48,4.25Z"/>
          <path class="cls-2" d="m213.71,127.18c-3.97.22-8.14.28-12.37.4h0c-10.55-4.08-21.06-12.04-27.92-17.89-2.69-3.43-3.42-6.79-3-9.94.09-.72.23-1.42.43-2.11,2.7,1.78,5.29,3.43,7.9,4.9h0c5.21,4.19,10.93,9.14,17.17,13.78,1.76,1.31,3.57,2.6,5.42,3.84,3.94,2.65,8.07,5.07,12.38,7.02Z"/>
          <path class="cls-2" d="m105.69,90.32c.75-3.99,1.95-8.24,3.29-12.35,1.2-3.69,2.53-7.26,3.78-10.41.33-.85.66-1.67.98-2.45h0c8.64,1.57,26.25,9.51,33.23,21.21l.21.48c1.17-.5,2.34-.96,3.49-1.37,3.84-1.38,7.54-2.21,10.52-1.69,2.66.48,4.75,2.02,5.84,5.26,2.24,7.77,3.11,10.71,3.11,10.71l.27.03c-.42,3.15.31,6.5,3,9.94-4.79-4.08-7.79-7.13-7.79-7.13.17.78.38,1.85.53,3.04.12.98.21,2.03.21,3.1,0,1.28-.12,2.57-.46,3.72-.3,1.05-.78,1.99-1.49,2.7s-1.57,1.16-2.72,1.34c-12.14.21-20.31-7.35-20.31-7.35-.98.41-1.93.78-2.86,1.12-1.26.46-2.48.87-3.68,1.23-1.32.41-2.61.74-3.86,1.03-16.98,3.86-28.04-2.48-48.23-7.82,2.69-1.31,5.29-2.55,7.58-3.65,3.1-1.48,5.63-2.69,7.1-3.42,2.32-1.16,4.84-1.31,7.38-1.04l.13-.95c.14-1.68.4-3.44.75-5.27Z"/>
          <path class="cls-2" d="m176.77,87.67c-.93-1.13-1.76-2.41-2.5-3.79-.9-1.65-1.69-3.44-2.37-5.29-.28-.75-.54-1.51-.79-2.28-.25-.75-.48-1.52-.7-2.28-.22-.77-.43-1.53-.63-2.29l-.52.13c-2.36.66-12.44.11-16.8-1.12l-.08-.02c1.05-5.99,2.53-12.41,3.11-16.64,3.35-3.78,6.07-6.62,6.07-6.62,2.13.12,5.84-.59,8.85-1.77,2.31.22,5.86,3.76,8.85,9,.86,1.49,1.65,3.11,2.37,4.83.16.51.32,1.01.49,1.5,2.87,8.16,7.9,13.15,13.83,16.47,2.13,1.2,4.38,2.18,6.68,3.02,2.51.91,5.08,1.65,7.64,2.3,3.55.92,7.07,1.67,10.37,2.5,6.81,1.73,12.67,3.83,15.75,8.42,0,2.48.42,7.38.91,12.19l-.32.03c-12.74-8.9-48.84-5.72-60.19-18.29h0Z"/>
          <path class="cls-7" d="m156.91,45.39c1.16.97,2.78,1.97,4.66,2.08,0,0-2.72,2.84-6.07,6.62-3.67,4.14-8.09,9.4-10.49,13.26l-1.43-5.21s2.23-3.77,5.33-7.8c1.95-2.56,4.27-5.23,6.59-7.09l1.41-1.86Z"/>
          <path class="cls-7" d="m148.87,54.31l.03.03c-3.1,4.03-5.33,7.8-5.33,7.8l-4.3-15.64c2.11-1.23,4.05-2.47,5.84-3.72l3.75,11.54Z"/>
          <path class="cls-7" d="m41.89,96.87c-4.25.11-8.37.28-12.16.44-1.56.08-3.06.15-4.49.22-1.59.08-3.09.16-4.49.23-3.67.21-6.62.38-8.54.48-5.13,3.88-8.4,7.9-10.13,11.79h-.02v-22.61s32.93,5.51,39.83,9.44Z"/>
          <path class="cls-7" d="m97.43,97.58c-1.47.74-4,1.95-7.1,3.42-6.87-4.28-29.08-4.66-48.44-4.13-6.9-3.93-39.83-9.44-39.83-9.44v-16.69c28.67,9.19,68.73,6.92,95.37,26.84Z"/>
          <path class="cls-7" d="m105.69,90.32c-.35,1.83-.61,3.6-.75,5.27l-.13.95c-2.53-.28-5.06-.12-7.38,1.04-26.64-19.92-66.7-17.65-95.37-26.84l-1.45-20.41s18.23,10.16,29.13,13.03c10.9,2.87,28.47,6.71,36.79,9.35,9.45,3.01,28.03,11.61,39.16,17.61Z"/>
          <path class="cls-7" d="m108.97,77.97c-1.34,4.11-2.53,8.36-3.29,12.35-11.14-5.99-29.71-14.6-39.16-17.61-8.32-2.64-25.89-6.48-36.79-9.35C18.83,60.5.61,50.33.61,50.33v-21.64l5.42-3.53,5.74,3.53c27.97,25.32,70.34,31.12,97.2,49.27Z"/>
          <path class="cls-7" d="m68.03,44.48c1.93,1.01,3.9,2.01,5.91,3.04,1.16.58,2.33,1.17,3.51,1.76,10.26,5.15,21.71,10.71,35.3,18.29-1.25,3.15-2.58,6.72-3.78,10.41C82.11,59.82,39.74,54.02,11.77,28.7c0,0,5.3-7.28,13.9-14.81,5.53,5.63,10.84,10.3,16.16,14.35,1.57,1.2,3.13,2.34,4.7,3.43,1.21.86,2.43,1.69,3.65,2.49,1.24.8,2.48,1.59,3.73,2.37,4.55,2.8,9.21,5.39,14.11,7.95Z"/>
          <path class="cls-9" d="m21.14,117.71l-20.26,2.18-.1.02c-.61-3.08-.25-6.42,1.3-9.87,1.74-3.9,5.01-7.91,10.13-11.79,1.04,2.65,4.57,11.12,8.93,19.47Z"/>
          <path class="cls-9" d="m32.63,134.73h0c-.73.18-1.46.32-2.18.45-12.79,2.17-24.14-3.05-28.27-11.23-.66-1.28-1.12-2.63-1.39-4.04l.1-.02,20.26-2.18c3.57,6.85,7.71,13.63,11.48,17.02Z"/>
          <path class="cls-9" d="m30.47,135.35s-.16,5.59,1.09,9.2l-.21.07c-15.82,3.06-30.26-2.18-29.29-20.61l.11-.06c4.12,8.18,15.48,13.4,28.27,11.23l.03.16Z"/>
          <path class="cls-9" d="m43.26,135.83l.02.24c-.42,1.34-1,2.62-1.68,3.8-2.46,4.25-6.18,7.25-7.9,7.54-.99-.37-1.67-1.47-2.14-2.86-1.25-3.61-1.09-9.2-1.09-9.2l-.03-.16c.72-.13,1.45-.27,2.18-.44h0c2.59,2.33,5.01,3.08,6.96,1.18l.17.17c1.05-.07,2.24-.16,3.49-.26Z"/>
          <path class="cls-9" d="m68.57,139.01l-.16.35c-4.88,2.4-26.66.61-26.66.61l-.16-.1c.67-1.18,1.26-2.46,1.68-3.8l-.02-.24c6.68-.54,15.37-1.41,17.74-1.93,2.37,2.14,4.9,3.87,7.58,5.11Z"/>
          <path class="cls-9" d="m60.99,133.9c-2.36.52-11.06,1.39-17.74,1.93-1.25.1-2.44.19-3.49.26l-.17-.17c.93-.9,1.75-2.4,2.43-4.61.29-1.23.59-2.43.9-3.57.35-1.3.72-2.52,1.1-3.62,1.35-3.94,2.9-6.46,4.68-5.73h0c.68.28,1.39,1.03,2.14,2.35,2.89,5.21,6.3,9.72,10.14,13.17Z"/>
          <path class="cls-9" d="m59.68,117.46c15.64.61,21.39,4.3,31.93,6.76-16.71,10.26-29.27-1.69-31.93-6.76Z"/>
          <path class="cls-9" d="m99.94,125.7v.1c-13.35,10.97-30.34,15.31-40.26-8.34,2.65,5.07,15.22,17.03,31.93,6.76,2.46.58,5.17,1.09,8.34,1.48Z"/>
          <path class="cls-9" d="m48.7,118.38c.37-.04,9-1.02,10.97-.93,9.92,23.64,26.91,19.31,40.25,8.34.95.35,2.16,1.55,3.42,3.13-3.4,3.36-6.74,5.98-9.99,7.92-9.05,5.4-17.46,5.59-24.78,2.17-2.68-1.25-5.21-2.97-7.58-5.11-3.85-3.45-7.26-7.96-10.14-13.17-.75-1.32-1.46-2.08-2.14-2.35Z"/>
          <path class="cls-7" d="m149.63,128.09l-.02.07-8.25,8.61-15.12,10.36s-2.27-2.7-4.33-5.4c-.25-.33-.5-.66-.74-.99,4.24-1.85,22.26-14.24,22.82-14.63h0c2.03.81,3.98,1.49,5.64,1.97Z"/>
          <path class="cls-13" d="m139.18,124.02c1.6.76,3.23,1.47,4.81,2.1-.56.39-18.58,12.78-22.82,14.63.24.33.49.66.74.99l-5.6,2.65-3.87-4.22c6.89-3.04,23.94-11.6,26.75-16.15Z"/>
          <path class="cls-9" d="m163.95,127.31h-.03c-1.57,1.58-3.16,2.9-4.74,4-9.29,6.49-17.81,5.47-17.81,5.47l8.25-8.61.02-.07c2.74.8,4.71,1.05,5.06.48l.8-5.59.16-.82c2.21.42,4.54.64,7,.61h0c.35,1.44.79,2.97,1.29,4.56Z"/>
          <path class="cls-7" d="m166.23,133.68l-.26.1-5.06,1.12-1.73-3.59c1.57-1.1,3.16-2.41,4.74-3.99h.03c.67,2.05,1.44,4.2,2.28,6.36Z"/>
          <path class="cls-7" d="m166.35,108.7c0-1.06-.09-2.12-.21-3.1,2.84,4.89,23.59,20.39,37.52,27.09l-6.52,2.24c-9.76-3.53-17.27-8.84-23.73-14.99h0c-3.16-4.42-5.74-8.46-7.06-11.25Z"/>
          <path class="cls-7" d="m197.14,134.93c.17.07.35.13.53.19l-8.59,3.93c-5.06-5.27-11-12.59-15.67-19.1,6.46,6.15,13.97,11.46,23.73,14.99Z"/>
          <path class="cls-7" d="m203.66,132.69c-13.93-6.7-34.68-22.21-37.52-27.09-.15-1.19-.35-2.27-.53-3.04,0,0,3,3.05,7.79,7.13,6.86,5.85,17.37,13.81,27.92,17.89h0c3.74,1.44,7.47,2.4,11.05,2.6-5.01,1.63-7.8,2.95-7.8,2.95-.3-.14-.61-.29-.93-.44Z"/>
          <path class="cls-9" d="m205.91,110.03c1.13.03,2.28.09,3.43.2-1.63,4.33-4.17,7.77-8.02,9.94-1.85-1.24-3.66-2.53-5.42-3.84,2.58-2.3,3.82-4.52,3.84-6.71,1.95.23,4,.37,6.17.42Z"/>
          <path class="cls-9" d="m195.91,116.32c-6.24-4.63-11.97-9.58-17.17-13.77h0c6.36,3.56,12.79,6.11,21,7.06-.02,2.19-1.26,4.41-3.84,6.71Z"/>
          <path class="cls-9" d="m209.34,110.23c14.27,1.3,29.39,8.48,29.39,8.48-5.47,6.35-14.58,7.93-25.03,8.47-4.32-1.95-8.44-4.38-12.38-7.02,3.85-2.16,6.38-5.6,8.02-9.94Z"/>
          <path class="cls-9" d="m182.24,60.99s8.8,7.86,13.71,16.52c-5.92-3.32-10.96-8.31-13.83-16.47l.12-.04Z"/>
          <path class="cls-9" d="m202.63,80.52c-2.3-.84-4.55-1.82-6.68-3.02-4.9-8.66-13.71-16.52-13.71-16.52l-.12.04c-.17-.48-.34-.99-.49-1.5-.72-1.72-1.51-3.35-2.37-4.83,6,1.38,19.91,13.68,23.37,25.82Z"/>
          <path class="cls-9" d="m201.13,60.66c-4.37-6.92-26.09-18.36-26.09-18.36.68-2.07,1.89-5.18,2.97-7.34,7.98,5.09,16.75,15.3,23.13,25.69h-.02Z"/>
          <path class="cls-9" d="m201.13,60.66h.02c4.94,8.02,8.46,16.15,9.12,22.16-2.56-.65-5.14-1.39-7.64-2.3-3.45-12.14-17.36-24.44-23.37-25.82-2.98-5.24-6.54-8.78-8.85-9,2.31-.91,4.19-2.09,4.63-3.4,0,0,21.72,11.44,26.09,18.36Z"/>
          <path class="cls-9" d="m220.64,85.32c-3.29-.83-6.82-1.58-10.37-2.5-.67-6.01-4.19-14.15-9.12-22.17-6.38-10.39-15.15-20.6-23.13-25.69.49-.97.95-1.76,1.33-2.17.99-1.09,2.81-2.7,3.42-4.09,1.05-1.14,1.62-2.3,1.84-3.45,9.74,7.19,35.32,30.72,36.02,60.07Z"/>
          <path class="cls-9" d="m100.28,21.95c7.62-8.45,17.91-18.71,21.21-18.41-1.32,2.65-5.29,12.14-3.75,16.78l-43.8,27.2c-2.01-1.02-3.99-2.02-5.91-3.04.38-2,1.57-8.29,2.83-14.67.29-1.42.56-2.84.84-4.22.3-1.48.6-2.91.86-4.23.09-.37.16-.74.23-1.09,6.11-.55,21.75-1.47,27.49,1.68Z"/>
          <path class="cls-9" d="m121.5,3.54c4.23.38,8.73,2.35,9.82,2.84-5.37,3.74-10.06,9.07-13.58,13.93-1.54-4.63,2.43-14.13,3.75-16.78Z"/>
          <path class="cls-9" d="m131.32,6.38c9.88-6.87,22.1-8.39,33.72,8.31l.03.26c-4.56,1.93-8.18,5.92-13.84,9.98-3.93,2.02-10.54,5.17-16.85,9.28l-.13-.19-16.51-13.71c3.52-4.86,8.21-10.19,13.58-13.93Z"/>
        </g>
        <g>
          <line class="cls-12" x1="168.16" y1="28.7" x2="170.44" y2="30.69"/>
          <path class="cls-12" d="m176.48,30.69s-3.06,7.78-3.84,8.78c-.77.99-1.44.72-2.92-.58"/>
          <line class="cls-12" x1="169.3" y1="37.1" x2="168.55" y2="38.06"/>
          <line class="cls-11" x1="166.47" y1="42.04" x2="167.59" y2="42.92"/>
          <path class="cls-12" d="m177.56,24.21c-.54.81-2.52-.58-1.93-1.36.54-.81,2.51.58,1.93,1.36Z"/>
          <path class="cls-12" d="m181.66,27.64c-.54.81-2.51-.58-1.92-1.36.54-.81,2.51.58,1.92,1.36Z"/>
          <path class="cls-12" d="m155.06,43.47s.69.94,1.85,1.92c1.16.97,2.78,1.97,4.66,2.08,2.13.12,5.84-.59,8.85-1.77,2.31-.91,4.19-2.09,4.63-3.4.68-2.07,1.89-5.18,2.97-7.34.49-.97.95-1.76,1.33-2.17.99-1.09,2.81-2.7,3.42-4.09.14-.31.22-.61.22-.88,0-1.55-.55-6.74-3.87-7.06-12.86-1.42-16.99,10.24-34,22.02-1.79,1.25-3.73,2.49-5.84,3.72-2.65,1.56-5.58,3.09-8.83,4.56-3.78,1.73-7.99,3.38-12.71,4.91-.04-5.3,2.9-10.1,7.15-14.31.89-.88,1.83-1.74,2.82-2.57.74-.62,1.51-1.23,2.3-1.82,1.41-1.07,2.88-2.09,4.37-3.05,6.31-4.11,12.93-7.26,16.85-9.28,5.66-4.06,9.29-8.05,13.84-9.98,3.56-1.51,7.7-1.76,13.84.24,2.06,1.31,6.57,5.54,5.69,10.06-.22,1.15-.8,2.31-1.84,3.45"/>
          <polyline class="cls-12" points="145.07 42.61 145.12 42.78 148.87 54.31"/>
          <polyline class="cls-12" points="139.21 46.23 139.28 46.5 143.58 62.14 145.01 67.35 145.07 67.56"/>
          <path class="cls-12" d="m161.57,47.47s-2.72,2.84-6.07,6.62c-3.67,4.14-8.09,9.4-10.49,13.26-.83,1.33-1.42,2.49-1.65,3.39"/>
          <path class="cls-12" d="m143.58,62.14s2.23-3.77,5.33-7.8c1.95-2.56,4.27-5.23,6.59-7.09"/>
          <path class="cls-12" d="m117.74,55.96s-.22.48-.62,1.33c-.22.48-.49,1.09-.81,1.81-.69,1.56-1.59,3.61-2.58,6.01-.32.78-.65,1.6-.98,2.45-1.25,3.15-2.58,6.72-3.78,10.41-1.34,4.11-2.53,8.36-3.29,12.35-.35,1.83-.61,3.6-.75,5.27"/>
          <path class="cls-12" d="m115.31,80.14c5.93,2.59,23.95,1.56,26.82,6.18"/>
          <path class="cls-12" d="m113.74,65.11c8.64,1.57,26.25,9.51,33.23,21.21"/>
          <path class="cls-12" d="m116.31,59.1s23.04,8.01,34.36,26.33"/>
          <path class="cls-12" d="m130.36,50.88s.03.06.1.17c.87,1.53,7.29,12.83,8.76,16.51"/>
          <path class="cls-12" d="m155.5,54.09c-.58,4.23-2.07,10.64-3.11,16.64-.13.69-.24,1.38-.35,2.06-.12.7-.22,1.39-.31,2.06-.1.71-.19,1.4-.26,2.08-.15,1.41-.23,2.72-.23,3.89,1.31.78,5.4,1.9,10,2.66,4.58.74,9.68,1.12,13.04.42"/>
          <path class="cls-12" d="m167.02,59.22c.71,3.03,1.5,7.65,2.76,12.52.2.76.41,1.52.63,2.29.22.76.45,1.53.7,2.28.24.77.51,1.53.79,2.28.68,1.85,1.47,3.64,2.37,5.29.74,1.37,1.57,2.65,2.5,3.79"/>
          <path class="cls-12" d="m117.74,99.13c-3.44,0-8.21-2.06-12.94-2.59-2.53-.28-5.06-.12-7.38,1.04-1.47.74-4,1.95-7.1,3.42-2.29,1.1-4.89,2.33-7.58,3.65-1.57.75-3.16,1.53-4.74,2.32-1.08.53-2.16,1.07-3.22,1.6-1.09.55-2.15,1.1-3.19,1.63-1.11.57-2.17,1.13-3.18,1.68-4.49,2.4-7.9,4.46-8.74,5.58,15.64.61,21.39,4.3,31.93,6.76,2.46.58,5.17,1.09,8.34,1.48,2.49.3,5.25.54,8.39.67,10.74-.29,20.87-.21,27.38-3.83"/>
          <path class="cls-12" d="m82.75,104.66c20.18,5.34,31.24,11.67,48.23,7.82,1.25-.29,2.53-.62,3.86-1.03,1.19-.35,2.41-.77,3.68-1.23.93-.34,1.89-.71,2.86-1.12,4.73-1.95,9.96-4.59,15.89-8.09"/>
          <path class="cls-12" d="m144,126.12c2.03.81,3.98,1.49,5.64,1.97,2.74.8,4.71,1.05,5.06.48l.8-5.59"/>
          <path class="cls-12" d="m130.99,112.54c-2.99.68-3.84,1.87-3.28,3.29.2.52.58,1.06,1.12,1.63.38.41.85.83,1.37,1.25.54.44,1.16.88,1.82,1.33,1.13.76,2.42,1.52,3.8,2.27,1.08.59,2.21,1.15,3.36,1.69,1.6.76,3.23,1.47,4.81,2.1"/>
          <path class="cls-12" d="m78.01,106.97c9.97,4.76,39.85,12.04,49.53,8.93"/>
          <path class="cls-12" d="m74.81,108.61c15.12,4.56,38.3,12.44,54.02,8.86t.02,0"/>
          <path class="cls-12" d="m71.62,110.24c18.71,3.71,37.29,13.36,58.58,8.48"/>
          <path class="cls-12" d="m68.42,111.88c21.64,2.53,35.77,14.35,63.6,8.18"/>
          <path class="cls-12" d="m134.83,111.45c.66.66,8.69,8.46,20.82,10.71,2.21.42,4.54.64,7,.61"/>
          <path class="cls-12" d="m201.34,127.58c3.74,1.44,7.47,2.4,11.05,2.6-5.01,1.63-7.8,2.95-7.8,2.95-.3-.14-.61-.29-.93-.44-13.93-6.7-34.68-22.21-37.52-27.09-.02-.03-.03-.04-.04-.07"/>
          <path class="cls-12" d="m164.4,115.09v.03c1.68,10.26,9.21,24.9,15.8,32.86,1.37,1.65,2.7,3.03,3.93,4l-7.51,1.18c-3.19-3.67-7.29-11.59-10.39-19.47-.85-2.15-1.62-4.31-2.28-6.36-.5-1.58-.94-3.12-1.29-4.56-.23-.93-.43-1.83-.58-2.68-.25-1.36-.39-2.58-.4-3.62,1.16-.18,2.05-.67,2.72-1.34.71-.71,1.18-1.65,1.49-2.7.34-1.15.46-2.44.46-3.72,0-1.06-.09-2.12-.21-3.1-.15-1.19-.35-2.27-.53-3.04,0,0,3,3.05,7.79,7.13,6.86,5.85,17.37,13.81,27.92,17.89"/>
          <line class="cls-12" x1="180.68" y1="147.88" x2="185.75" y2="146.38"/>
          <path class="cls-12" d="m184.85,144.21c.22.29.35.44.35.44"/>
          <path class="cls-12" d="m165.97,112.43l.03.05c.47.98,8.02,16.79,10.37,20.54,2.08,3.31,7.08,9.48,8.48,11.18"/>
          <path class="cls-12" d="m184.85,144.2c-6.07-10.02-18.16-30.55-18.85-31.72"/>
          <line class="cls-12" x1="184.85" y1="144.2" x2="184.85" y2="144.21"/>
          <path class="cls-12" d="m173.41,119.95c4.67,6.51,10.61,13.83,15.67,19.1,2.61,2.72,4.98,4.9,6.82,6.16,0,0-5.45,3.23-7.66,4.41-.13-.1-.94-1.39-2.19-3.42-.36-.6-.77-1.26-1.2-1.98"/>
          <path class="cls-12" d="m166.35,108.7c1.31,2.79,3.89,6.83,7.06,11.24"/>
          <path class="cls-12" d="m189.08,139.05l8.59-3.93c-.17-.06-.35-.12-.53-.19-9.76-3.53-17.27-8.84-23.73-14.99h0"/>
          <polyline class="cls-12" points="197.13 134.93 197.14 134.93 203.66 132.69"/>
          <path class="cls-12" d="m149.62,128.16l-8.25,8.61s8.53,1.03,17.81-5.47c1.57-1.1,3.16-2.41,4.74-3.99"/>
          <polyline class="cls-12" points="159.18 131.31 160.91 134.9 165.97 133.78"/>
          <path class="cls-12" d="m144.01,126.11h0s0,0,0,0c-.56.39-18.58,12.78-22.82,14.63.24.33.49.66.74.99,2.06,2.7,4.33,5.4,4.33,5.4l15.12-10.36"/>
          <polyline class="cls-12" points="112.43 140.17 116.31 144.39 121.91 141.74"/>
          <path class="cls-12" d="m91.67,124.17s-.04.03-.07.04c-16.71,10.26-29.27-1.69-31.93-6.76,9.92,23.64,26.91,19.31,40.25,8.34.95.35,2.16,1.55,3.42,3.13,2.01,2.55,4.16,6.13,5.5,8.77.86,1.66,1.39,2.96,1.39,3.39.5-.18,1.25-.5,2.2-.91"/>
          <path class="cls-12" d="m48.69,118.38c-1.78-.73-3.33,1.79-4.68,5.73-.38,1.11-.75,2.33-1.1,3.62-.31,1.14-.61,2.34-.9,3.57-.68,2.21-1.5,3.71-2.43,4.61-1.95,1.9-4.37,1.16-6.96-1.18-3.77-3.39-7.91-10.17-11.48-17.02-4.37-8.34-7.9-16.82-8.93-19.47,1.92-.1,4.88-.28,8.54-.48,1.4-.07,2.9-.16,4.49-.23,1.43-.07,2.93-.14,4.49-.22,3.79-.16,7.9-.33,12.16-.44,19.36-.53,41.57-.15,48.44,4.13"/>
          <path class="cls-12" d="m103.35,128.92c-3.4,3.36-6.74,5.98-9.99,7.92-9.05,5.4-17.46,5.59-24.78,2.17-2.68-1.25-5.21-2.97-7.58-5.11-3.85-3.45-7.26-7.96-10.14-13.17-.75-1.32-1.46-2.08-2.14-2.35"/>
          <path class="cls-12" d="m93.34,136.83s0,0,.02,0c.5.14,11.54,3.14,15.49.85"/>
          <path class="cls-12" d="m12.21,98.25c-5.13,3.88-8.4,7.9-10.13,11.79-1.55,3.44-1.9,6.79-1.3,9.87.27,1.41.74,2.76,1.39,4.04,4.12,8.18,15.48,13.4,28.27,11.23.72-.13,1.45-.27,2.18-.44"/>
          <path class="cls-12" d="m2.06,124.01c-.97,18.43,13.47,23.67,29.29,20.61"/>
          <path class="cls-12" d="m30.47,135.35s-.16,5.59,1.09,9.2c.48,1.39,1.16,2.49,2.14,2.86,1.71-.29,5.43-3.29,7.9-7.54.67-1.18,1.26-2.46,1.68-3.8"/>
          <path class="cls-12" d="m39.76,136.09c1.05-.07,2.24-.16,3.49-.26,6.68-.54,15.37-1.41,17.74-1.93.03,0,.04,0,.07-.02"/>
          <path class="cls-12" d="m41.76,139.96s21.78,1.8,26.66-.61"/>
          <path class="cls-12" d="m20.76,97.85c2.31,9.65,9.27,28.28,21.26,33.46"/>
          <path class="cls-12" d="m25.25,97.65c.49,6.29,7.07,26.03,17.39,30.01"/>
          <path class="cls-12" d="m29.74,97.45s.43,19.34,13.53,26.56"/>
          <path class="cls-12" d="m176.77,87.67h0c11.35,12.58,47.46,9.4,60.19,18.3"/>
          <path class="cls-12" d="m174.31,90.99c11.55,12.64,51.48,10.74,63.26,19.23"/>
          <path class="cls-12" d="m172.14,94.42c9.27,7.04,20.3,10.93,34.67,11.78,13.87.78,29.35,6.87,31.34,8.27"/>
          <path class="cls-12" d="m170.41,45.7c2.31.22,5.86,3.76,8.85,9,.86,1.49,1.65,3.11,2.37,4.83.16.51.32,1.01.49,1.5,2.87,8.16,7.9,13.15,13.83,16.47,2.13,1.2,4.38,2.18,6.68,3.02,2.51.91,5.08,1.65,7.64,2.3,3.55.92,7.07,1.67,10.37,2.5,6.81,1.73,12.67,3.83,15.75,8.42,0,2.48.42,7.38.91,12.19.16,1.45.31,2.9.46,4.26.17,1.56.34,3,.48,4.25.3,2.55.51,4.25.51,4.25,0,0-15.12-7.19-29.39-8.48-1.15-.11-2.3-.17-3.43-.2-2.17-.04-4.22-.18-6.17-.42-8.21-.95-14.65-3.49-21-7.06-2.61-1.47-5.21-3.12-7.9-4.9-.06-.03-.11-.08-.17-.11"/>
          <path class="cls-12" d="m178.73,102.56c5.21,4.19,10.93,9.13,17.17,13.77,1.76,1.31,3.57,2.6,5.42,3.84,3.94,2.65,8.07,5.07,12.38,7.02.1.05.2.1.29.14"/>
          <path class="cls-12" d="m201.33,127.58h0c4.24-.12,8.41-.18,12.37-.4,10.45-.54,19.55-2.13,25.03-8.47"/>
          <path class="cls-12" d="m201.33,120.16c3.85-2.16,6.38-5.6,8.02-9.94h0"/>
          <path class="cls-12" d="m199.75,109.58v.03c-.02,2.19-1.26,4.41-3.84,6.71"/>
          <path class="cls-12" d="m195.16,82.21s13.84,11.92,21.5,12.21"/>
          <path class="cls-12" d="m152.46,70.74c4.36,1.24,14.44,1.78,16.8,1.12"/>
          <path class="cls-12" d="m152.12,72.79c2.91.82,12.9,2.31,18.02,1.31"/>
          <path class="cls-12" d="m151.77,74.85c1.45.41,11.36,2.82,19.25,1.5"/>
          <path class="cls-12" d="m151.42,76.9s.02,0,.04.02c.7.22,10.18,3.26,20.43,1.68"/>
          <path class="cls-12" d="m130.36,93.74c3.5-.4,10.12-4.12,16.82-6.94,1.17-.5,2.34-.96,3.49-1.37,3.84-1.38,7.54-2.21,10.52-1.69,2.66.48,4.75,2.02,5.84,5.26,2.24,7.77,3.11,10.71,3.11,10.71"/>
          <path class="cls-12" d="m176.78,87.67h0c-.86,1.02-1.72,2.11-2.54,3.27-.77,1.1-1.5,2.26-2.11,3.47-.52,1.04-.97,2.12-1.29,3.23-.2.69-.35,1.39-.43,2.11-.42,3.15.31,6.5,3,9.94"/>
          <path class="cls-12" d="m184.61,25.25c9.74,7.19,35.32,30.72,36.02,60.07v.1"/>
          <path class="cls-12" d="m175.04,42.3s21.72,11.44,26.09,18.36c.07.11.14.22.2.33"/>
          <path class="cls-12" d="m117.11,57.1c-5.31-1.34-15.03-3.45-23.13-5.04-2.18-.42-4.3-.82-6.28-1.18-1.76-.32-3.42-.61-4.89-.86-2.28-.37-4.14-.64-5.35-.75"/>
          <path class="cls-12" d="m112.75,67.56c-13.58-7.58-25.04-13.14-35.3-18.29-1.18-.59-2.35-1.18-3.51-1.76-2.01-1.02-3.99-2.02-5.91-3.04-4.9-2.56-9.56-5.15-14.11-7.95-1.25-.78-2.49-1.57-3.73-2.37-1.22-.8-2.44-1.63-3.65-2.49-1.57-1.09-3.14-2.23-4.7-3.43-5.32-4.06-10.64-8.73-16.16-14.35-8.6,7.53-13.9,14.81-13.9,14.81,27.97,25.32,70.34,31.12,97.2,49.27"/>
          <path class="cls-12" d="m105.7,90.32h0c-11.14-5.99-29.71-14.6-39.16-17.61-8.32-2.64-25.89-6.48-36.79-9.35C18.83,60.5.61,50.33.61,50.33v-21.64l5.42-3.53,5.74,3.53"/>
          <path class="cls-12" d="m97.43,97.58c-26.64-19.92-66.7-17.65-95.37-26.84v16.69s32.93,5.51,39.83,9.44l.13.08"/>
          <line class="cls-12" x1=".61" y1="50.33" x2="2.06" y2="70.74"/>
          <line class="cls-12" x1="2.06" y1="87.43" x2="2.06" y2="110.04"/>
          <polyline class="cls-12" points="73.94 47.52 117.74 20.31 134.25 34.02"/>
          <polyline class="cls-12" points="82.81 50.02 117.74 27.89 129.89 37.1"/>
          <polyline class="cls-12" points="87.69 50.88 87.7 50.88 117.74 32.31 127.6 38.95"/>
          <polyline class="cls-12" points="93.98 52.06 117.74 36.43 124.83 41.59"/>
          <path class="cls-12" d="m42.1,27.89c6.32-6.04,23.14-13.54,31.51-11.34-.23,1.03-.51,2.29-.81,3.71-.08.35-.15.72-.23,1.09-.27,1.32-.56,2.75-.86,4.23-.28,1.38-.55,2.8-.84,4.22-1.25,6.38-2.45,12.68-2.83,14.67"/>
          <path class="cls-12" d="m53.98,36.43c1.73-2.41,10.71-7.44,16.88-6.62"/>
          <path class="cls-12" d="m50.38,33.88c2.57-2.59,13.01-8.28,21.32-8.29h.02"/>
          <path class="cls-12" d="m46.78,31.33c3.41-2.78,15.33-9.14,25.78-9.97h0"/>
          <path class="cls-12" d="m72.79,20.27c6.11-.55,21.75-1.47,27.49,1.68"/>
          <path class="cls-12" d="m92.35,31.33c1.41-1.89,4.38-5.44,7.93-9.38,7.62-8.45,17.91-18.71,21.21-18.41,4.23.38,8.73,2.35,9.82,2.84.16.08.25.12.25.12"/>
          <path class="cls-12" d="m121.5,3.54c-1.32,2.65-5.29,12.14-3.75,16.78,3.52-4.86,8.21-10.19,13.58-13.93,9.88-6.87,22.1-8.39,33.72,8.31"/>
          <polyline class="cls-12" points=".88 119.89 21.14 117.71 21.33 117.7"/>
          <path class="cls-12" d="m138.51,110.22s7.4,9.94,23.57,9.86"/>
          <path class="cls-12" d="m141.37,109.1s8.17,7.56,20.31,7.35"/>
          <path class="cls-12" d="m48.7,118.38h0"/>
          <path class="cls-10" d="m59.68,117.46c-1.97-.1-10.6.88-10.97.93"/>
        </g>
      </g>
    </g>
    <line class="cls-12" x1="176.16" y1="34.68" x2="177.27" y2="35.49"/>
    <g class="cls-15">
      <g>
        <g>
          <path class="cls-1" d="m465.14,28.75c.59-.78-1.37-2.17-1.92-1.36-.59.78,1.38,2.17,1.92,1.36Zm-14.31,13.51h-1.25c-.26,2.71.59,2.81,2.83,1.61l-.37-.87h-.84l-.37-.74Zm10.21-16.93c.58-.78-1.38-2.17-1.93-1.36-.59.78,1.38,2.17,1.93,1.36Zm.46,10.75c-1.08,2.16-2.29,5.27-2.97,7.34-.43,1.31-2.32,2.49-4.63,3.4-3.01,1.18-6.72,1.89-8.85,1.77-1.88-.11-3.5-1.12-4.66-2.08l-1.41,1.86c-2.32,1.86-4.63,4.53-6.59,7.09l-.03-.03-3.75-11.54c17.01-11.79,21.14-23.44,34-22.02,3.31.33,3.87,5.52,3.87,7.06,0,.28-.08.57-.22.88-.61,1.39-2.43,3-3.42,4.09-.38.42-.84,1.2-1.33,2.17Z"/>
          <path class="cls-14" d="m451.2,43h.84l.37.87c-2.24,1.2-3.09,1.1-2.83-1.61h1.25l.37.74Z"/>
          <path class="cls-2" d="m399.8,60.22s23.04,8.01,34.36,26.33c-1.15.42-2.33.87-3.49,1.37l-.21-.48c-6.98-11.7-24.59-19.65-33.23-21.21h0c.99-2.4,1.89-4.45,2.58-6.01Z"/>
          <path class="cls-2" d="m434.16,86.55c-11.33-18.32-34.36-26.33-34.36-26.33.32-.72.59-1.32.81-1.81.4-.86.62-1.33.62-1.33,4.72-1.53,8.93-3.18,12.71-4.91,3.25-1.47,6.17-3,8.83-4.56l4.3,15.64,1.43,5.21c2.4-3.87,6.82-9.12,10.49-13.26-.58,4.23-2.07,10.64-3.11,16.64-.13.69-.24,1.38-.35,2.06-.12.7-.22,1.39-.31,2.06-.1.71-.19,1.4-.26,2.08-.15,1.41-.23,2.72-.23,3.89,1.31.78,5.4,1.9,10,2.66l-.04.28c-2.97-.53-6.68.3-10.52,1.69Z"/>
          <path class="cls-7" d="m459.85,134.14c-2.35-3.74-9.9-19.56-10.37-20.54.69,1.17,12.78,21.7,18.85,31.72-1.4-1.7-6.4-7.87-8.48-11.18Z"/>
          <path class="cls-7" d="m467.62,153.09l-7.51,1.18c-3.19-3.67-7.29-11.59-10.39-19.47-.85-2.15-1.62-4.31-2.28-6.36-.5-1.58-.94-3.12-1.29-4.56-.23-.93-.43-1.83-.58-2.68-.25-1.36-.39-2.58-.4-3.62,1.16-.18,2.05-.67,2.72-1.34,1.68,10.26,9.21,24.9,15.8,32.86,1.37,1.65,2.7,3.03,3.93,4Z"/>
          <path class="cls-7" d="m469.23,147.5l-5.07,1.5-.48.1c-6.59-7.96-14.12-22.6-15.8-32.86.71-.71,1.18-1.65,1.49-2.7l.08.02.03.05c.47.98,8.02,16.79,10.37,20.54,2.08,3.31,7.08,9.48,8.48,11.18h0c.43.73.84,1.39,1.2,1.99l-.31.19Z"/>
          <path class="cls-7" d="m449.84,109.82c1.31,2.79,3.89,6.83,7.06,11.24h0c4.67,6.52,10.61,13.84,15.67,19.11,2.61,2.72,4.98,4.9,6.82,6.16,0,0-5.45,3.23-7.66,4.41-.13-.1-.94-1.39-2.19-3.42-.36-.6-.77-1.26-1.2-1.98h0c-6.07-10.03-18.16-30.56-18.85-31.73l-.03-.05-.08-.02c.34-1.15.46-2.44.46-3.72Z"/>
          <path class="cls-5" d="m459.12,23.97c.54-.81,2.51.58,1.93,1.36-.54.81-2.52-.58-1.93-1.36Z"/>
          <path class="cls-5" d="m465.14,28.75c-.54.81-2.51-.58-1.92-1.36.54-.81,2.51.58,1.92,1.36Z"/>
          <path class="cls-5" d="m413.94,52.17c-3.78,1.73-7.99,3.38-12.71,4.91-.04-5.3,2.9-10.1,7.15-14.31.89-.88,1.83-1.74,2.82-2.57.74-.62,1.51-1.23,2.3-1.82,1.41-1.07,2.88-2.09,4.37-3.05,6.31-4.11,12.93-7.26,16.85-9.28,5.66-4.06,9.29-8.05,13.84-9.98,3.56-1.51,7.7-1.76,13.84.24,2.06,1.31,6.57,5.54,5.69,10.06-.22,1.15-.8,2.31-1.84,3.45.14-.31.22-.61.22-.88,0-1.55-.55-6.74-3.87-7.06-12.86-1.42-16.99,10.24-34,22.02-1.79,1.25-3.73,2.49-5.84,3.72-2.65,1.56-5.58,3.09-8.83,4.56Z"/>
          <path class="cls-7" d="m399.8,58.02l.81.4c-.22.48-.49,1.09-.81,1.81-.69,1.56-1.59,3.61-2.58,6.01-.32.78-.65,1.6-.98,2.45-13.58-7.58-25.04-13.14-35.3-18.29,1.21.11,3.07.38,5.35.75,1.48.24,3.13.54,4.89.86,1.98.36,4.1.76,6.28,1.18,8.1,1.58,17.02,3.49,22.33,4.83Z"/>
          <path class="cls-2" d="m354.34,30.93c-1.25,6.38-2.45,12.68-2.83,14.67-4.9-2.56-9.56-5.15-14.11-7.95l.06-.1c1.73-2.41,10.71-7.44,16.88-6.62Z"/>
          <path class="cls-2" d="m408.32,42.71l.06.06c-4.25,4.21-7.19,9.01-7.15,14.31,0,0-.22.48-.62,1.33l-.81-.4c-5.31-1.34-14.22-3.25-22.33-4.83l23.76-15.63,7.09,5.16Z"/>
          <path class="cls-6" d="m355.18,26.71c-.28,1.38-.55,2.8-.84,4.22-6.17-.81-15.15,4.21-16.88,6.62l-.06.1c-1.25-.78-2.49-1.57-3.73-2.37l.19-.29c2.57-2.59,13.01-8.28,21.32-8.29Z"/>
          <path class="cls-6" d="m356.05,22.48c-.27,1.32-.56,2.75-.86,4.23-8.31.02-18.75,5.7-21.32,8.29l-.19.29c-1.22-.8-2.44-1.63-3.65-2.49l.24-.35c3.41-2.78,15.33-9.14,25.78-9.97Z"/>
          <path class="cls-6" d="m357.09,17.68c-.23,1.03-.51,2.29-.81,3.71-.08.35-.15.72-.23,1.09-10.45.83-22.37,7.19-25.78,9.97l-.24.35c-1.57-1.09-3.14-2.23-4.7-3.43l.26-.35c6.32-6.04,23.14-13.54,31.51-11.34Z"/>
          <path class="cls-6" d="m411.09,40.07l.11.13c-.99.83-1.93,1.69-2.82,2.57l-.06-.06-7.09-5.16-23.76,15.63c-2.18-.42-4.3-.82-6.28-1.18l30.04-18.57,9.86,6.65Z"/>
          <path class="cls-6" d="m413.38,38.22l.12.16c-.79.6-1.56,1.2-2.3,1.82l-.11-.13-9.86-6.65-30.04,18.57c-1.76-.32-3.42-.61-4.89-.86l34.94-22.13,12.15,9.2Z"/>
          <path class="cls-6" d="m417.74,35.14l.13.19c-1.49.96-2.96,1.98-4.37,3.05l-.12-.16-12.15-9.2-34.94,22.13c-2.28-.37-4.14-.64-5.35-.75-1.18-.59-2.35-1.18-3.51-1.76l43.8-27.2,16.51,13.71Z"/>
          <path class="cls-6" d="m304.63,118.83c-4.37-8.34-7.9-16.82-8.93-19.47,1.92-.1,4.88-.28,8.54-.48v.09c2.32,9.65,9.28,28.28,21.26,33.46-.68,2.21-1.5,3.71-2.43,4.61-1.95,1.9-4.37,1.16-6.96-1.18-3.77-3.39-7.91-10.17-11.48-17.02Z"/>
          <path class="cls-6" d="m326.13,128.78l.28.08c-.31,1.14-.61,2.34-.9,3.57-11.99-5.18-18.95-23.81-21.26-33.46v-.09c1.39-.07,2.89-.16,4.48-.23v.12c.5,6.29,7.08,26.03,17.4,30.01Z"/>
          <path class="cls-6" d="m326.76,125.13l.74.1c-.38,1.11-.75,2.33-1.1,3.62l-.28-.08c-10.32-3.98-16.9-23.72-17.39-30.01v-.12c1.42-.07,2.92-.14,4.48-.22v.14s.44,19.34,13.54,26.56Z"/>
          <path class="cls-2" d="m325.38,97.99c19.36-.53,41.57-.15,48.44,4.13-2.29,1.1-4.89,2.33-7.58,3.65-1.57.75-3.16,1.53-4.74,2.32-1.08.53-2.16,1.07-3.22,1.6-1.09.55-2.15,1.1-3.19,1.63-1.11.57-2.17,1.13-3.18,1.68-4.49,2.4-7.9,4.46-8.74,5.58-1.97-.1-10.6.88-10.97.93h0c-1.78-.73-3.33,1.79-4.68,5.73l-.74-.1c-13.1-7.21-13.53-26.56-13.53-26.56v-.14c3.78-.16,7.9-.33,12.15-.44Z"/>
          <path class="cls-9" d="m386.83,130.04c2.01,2.55,4.16,6.13,5.5,8.77-3.94,2.29-14.99-.71-15.49-.85,3.25-1.94,6.59-4.56,9.99-7.92Z"/>
          <path class="cls-6" d="m419.3,123.44c1.08.59,2.21,1.15,3.36,1.69-2.8,4.56-19.85,13.11-26.75,16.15-.94.41-1.69.73-2.2.91,0-.43-.54-1.73-1.39-3.39-1.34-2.64-3.48-6.22-5.5-8.77-1.25-1.58-2.46-2.78-3.42-3.13v-.1c2.5.3,5.26.54,8.4.67,10.74-.29,20.87-.21,27.38-3.83l.11-.21Z"/>
          <path class="cls-6" d="m415.51,121.18c-27.83,6.17-41.96-5.65-63.6-8.18,1.01-.54,2.08-1.11,3.18-1.68l.02.04c18.71,3.71,37.29,13.36,58.58,8.48.54.44,1.16.88,1.82,1.33Z"/>
          <path class="cls-6" d="m414.46,113.59l.02.07c-2.99.68-3.84,1.87-3.28,3.29l-.17.07c-9.69,3.1-39.56-4.18-49.53-8.93,1.58-.79,3.17-1.57,4.74-2.32,20.18,5.34,31.24,11.67,48.23,7.82Z"/>
          <path class="cls-6" d="m361.5,108.09c9.97,4.76,39.85,12.04,49.53,8.93l.17-.07c.2.52.58,1.06,1.12,1.63-15.72,3.58-38.9-4.31-54.02-8.86l-.02-.03c1.05-.53,2.14-1.07,3.22-1.6Z"/>
          <path class="cls-6" d="m358.3,109.73c15.12,4.56,38.3,12.44,54.02,8.86.38.41.85.83,1.37,1.25-21.29,4.88-39.86-4.77-58.58-8.48l-.02-.04c1.04-.53,2.1-1.07,3.19-1.63l.02.03Z"/>
          <path class="cls-6" d="m375.09,125.34c-10.53-2.46-16.28-6.15-31.93-6.76.84-1.12,4.25-3.17,8.74-5.58,21.64,2.53,35.77,14.35,63.6,8.18,1.13.76,2.42,1.52,3.8,2.27l-.11.21c-6.51,3.62-16.64,3.54-27.38,3.83-3.14-.13-5.9-.36-8.39-.67-3.16-.39-5.88-.9-8.34-1.48Z"/>
          <path class="cls-6" d="m427.48,127.24h0c-1.58-.63-3.21-1.34-4.81-2.1-1.15-.54-2.28-1.11-3.36-1.69-1.37-.74-2.66-1.5-3.8-2.27-.67-.45-1.28-.89-1.82-1.33-.52-.42-.99-.85-1.37-1.25-.54-.57-.92-1.12-1.12-1.63-.56-1.43.29-2.61,3.28-3.29l-.02-.07c1.25-.29,2.53-.62,3.86-1.03.66.66,8.69,8.46,20.82,10.71l-.16.82-.8,5.59c-.35.58-2.32.32-5.06-.48-1.66-.48-3.61-1.16-5.64-1.97Z"/>
          <path class="cls-6" d="m439.14,123.27c-12.13-2.25-20.17-10.05-20.82-10.71,1.19-.35,2.41-.77,3.68-1.23,0,0,7.4,9.94,23.57,9.86.15.85.35,1.75.58,2.68h0c-2.46.03-4.79-.19-7-.61Z"/>
          <path class="cls-6" d="m445.57,121.19c-16.17.08-23.57-9.86-23.57-9.86.93-.34,1.89-.71,2.86-1.12,0,0,8.17,7.56,20.31,7.35,0,1.05.15,2.27.4,3.62Z"/>
          <path class="cls-6" d="m453.62,75.23c-5.12.99-15.12-.49-18.02-1.31h-.08c.1-.68.22-1.37.35-2.07l.08.02c4.36,1.24,14.44,1.78,16.8,1.12l.52-.13c.2.76.41,1.52.63,2.29l-.28.08Z"/>
          <path class="cls-6" d="m435.6,73.91c2.91.82,12.9,2.31,18.02,1.31l.28-.08c.22.76.45,1.53.7,2.28l-.1.03c-7.89,1.32-17.8-1.09-19.25-1.5h-.04c.09-.67.19-1.37.31-2.07h.08Z"/>
          <path class="cls-6" d="m435.26,75.97c1.45.41,11.36,2.82,19.25,1.5l.1-.03c.24.77.51,1.53.79,2.28-10.26,1.58-19.73-1.45-20.43-1.68.07-.67.16-1.37.26-2.08h.04Z"/>
          <path class="cls-6" d="m455.39,79.71c.68,1.85,1.47,3.64,2.37,5.29-3.36.71-8.46.33-13.04-.42-4.6-.76-8.69-1.89-10-2.66,0-1.17.09-2.48.23-3.89.7.22,10.18,3.26,20.43,1.68Z"/>
          <path class="cls-9" d="m453.62,100.84s-.87-2.94-3.11-10.71c-1.09-3.23-3.17-4.78-5.84-5.26l.04-.28c4.58.74,9.68,1.12,13.04.42.74,1.37,1.57,2.65,2.5,3.79h0c-.86,1.02-1.72,2.11-2.54,3.27-.77,1.1-1.5,2.26-2.11,3.47-.52,1.04-.97,2.12-1.29,3.23-.2.69-.35,1.39-.43,2.11l-.27-.03Z"/>
          <path class="cls-6" d="m521.24,111.32l-.19.02c-11.78-8.49-51.7-6.59-63.26-19.23l-.07-.04c.82-1.16,1.69-2.25,2.54-3.26,11.35,12.57,47.46,9.39,60.19,18.29l.32-.03c.16,1.45.31,2.9.46,4.26Z"/>
          <path class="cls-6" d="m492.83,111.35c-1.15-.11-2.3-.17-3.43-.2-2.17-.04-4.22-.18-6.17-.42-8.21-.95-14.65-3.49-21-7.06-2.61-1.47-5.21-3.12-7.9-4.9.32-1.12.77-2.2,1.29-3.23h.02c9.27,7.05,20.3,10.94,34.67,11.79,13.87.78,29.35,6.87,31.34,8.27h.08c.3,2.54.51,4.25.51,4.25,0,0-15.12-7.19-29.39-8.48Z"/>
          <path class="cls-6" d="m521.71,115.57h-.08c-1.99-1.38-17.47-7.48-31.34-8.26-14.37-.85-25.4-4.74-34.67-11.78h-.02c.61-1.22,1.34-2.38,2.11-3.48l.07.04c11.55,12.64,51.48,10.74,63.26,19.23l.19-.02c.17,1.56.34,3,.48,4.25Z"/>
          <path class="cls-2" d="m497.2,128.3c-3.97.22-8.14.28-12.37.4h0c-10.55-4.08-21.06-12.04-27.92-17.89-2.69-3.43-3.42-6.79-3-9.94.09-.72.23-1.42.43-2.11,2.7,1.78,5.29,3.43,7.9,4.9h0c5.21,4.19,10.93,9.14,17.17,13.78,1.76,1.31,3.57,2.6,5.42,3.84,3.94,2.65,8.07,5.07,12.38,7.02Z"/>
          <path class="cls-2" d="m389.18,91.44c.75-3.99,1.95-8.24,3.29-12.35,1.2-3.69,2.53-7.26,3.78-10.41.33-.85.66-1.67.98-2.45h0c8.64,1.57,26.25,9.51,33.23,21.21l.21.48c1.17-.5,2.34-.96,3.49-1.37,3.84-1.38,7.54-2.21,10.52-1.69,2.66.48,4.75,2.02,5.84,5.26,2.24,7.77,3.11,10.71,3.11,10.71l.27.03c-.42,3.15.31,6.5,3,9.94-4.79-4.08-7.79-7.13-7.79-7.13.17.78.38,1.85.53,3.04.12.98.21,2.03.21,3.1,0,1.28-.12,2.57-.46,3.72-.3,1.05-.78,1.99-1.49,2.7s-1.57,1.16-2.72,1.34c-12.14.21-20.31-7.35-20.31-7.35-.98.41-1.93.78-2.86,1.12-1.26.46-2.48.87-3.68,1.23-1.32.41-2.61.74-3.86,1.03-16.98,3.86-28.04-2.48-48.23-7.82,2.69-1.31,5.29-2.55,7.58-3.65,3.1-1.48,5.63-2.69,7.1-3.42,2.32-1.16,4.84-1.31,7.38-1.04l.13-.95c.14-1.68.4-3.44.75-5.27Z"/>
          <path class="cls-2" d="m460.26,88.79c-.93-1.13-1.76-2.41-2.5-3.79-.9-1.65-1.69-3.44-2.37-5.29-.28-.75-.54-1.51-.79-2.28-.25-.75-.48-1.52-.7-2.28-.22-.77-.43-1.53-.63-2.29l-.52.13c-2.36.66-12.44.11-16.8-1.12l-.08-.02c1.05-5.99,2.53-12.41,3.11-16.64,3.35-3.78,6.07-6.62,6.07-6.62,2.13.12,5.84-.59,8.85-1.77,2.31.22,5.86,3.76,8.85,9,.86,1.49,1.65,3.11,2.37,4.83.16.51.32,1.01.49,1.5,2.87,8.16,7.9,13.15,13.83,16.47,2.13,1.2,4.38,2.18,6.68,3.02,2.51.91,5.08,1.65,7.64,2.3,3.55.92,7.07,1.67,10.37,2.5,6.81,1.73,12.67,3.83,15.75,8.42,0,2.48.42,7.38.91,12.19l-.32.03c-12.74-8.9-48.84-5.72-60.19-18.29h0Z"/>
          <path class="cls-7" d="m440.39,46.51c1.16.97,2.78,1.97,4.66,2.08,0,0-2.72,2.84-6.07,6.62-3.67,4.14-8.09,9.4-10.49,13.26l-1.43-5.21s2.23-3.77,5.33-7.8c1.95-2.56,4.27-5.23,6.59-7.09l1.41-1.86Z"/>
          <path class="cls-7" d="m432.36,55.43l.03.03c-3.1,4.03-5.33,7.8-5.33,7.8l-4.3-15.64c2.11-1.23,4.05-2.47,5.84-3.72l3.75,11.54Z"/>
          <path class="cls-7" d="m325.38,97.99c-4.25.11-8.37.28-12.16.44-1.56.08-3.06.15-4.49.22-1.59.08-3.09.16-4.49.23-3.67.21-6.62.38-8.54.48-5.13,3.88-8.4,7.9-10.13,11.79h-.02v-22.61s32.93,5.51,39.83,9.44Z"/>
          <path class="cls-7" d="m380.92,98.7c-1.47.74-4,1.95-7.1,3.42-6.87-4.28-29.08-4.66-48.44-4.13-6.9-3.93-39.83-9.44-39.83-9.44v-16.69c28.67,9.19,68.73,6.92,95.37,26.84Z"/>
          <path class="cls-7" d="m389.18,91.44c-.35,1.83-.61,3.6-.75,5.27l-.13.95c-2.53-.28-5.06-.12-7.38,1.04-26.64-19.92-66.7-17.65-95.37-26.84l-1.45-20.41s18.23,10.16,29.13,13.03c10.9,2.87,28.47,6.71,36.79,9.35,9.45,3.01,28.03,11.61,39.16,17.61Z"/>
          <path class="cls-7" d="m392.46,79.09c-1.34,4.11-2.53,8.36-3.29,12.35-11.14-5.99-29.71-14.6-39.16-17.61-8.32-2.64-25.89-6.48-36.79-9.35-10.9-2.87-29.13-13.03-29.13-13.03v-21.64l5.42-3.53,5.74,3.53c27.97,25.32,70.34,31.12,97.2,49.27Z"/>
          <path class="cls-7" d="m351.52,45.6c1.93,1.01,3.9,2.01,5.91,3.04,1.16.58,2.33,1.17,3.51,1.76,10.26,5.15,21.71,10.71,35.3,18.29-1.25,3.15-2.58,6.72-3.78,10.41-26.87-18.15-69.24-23.95-97.2-49.27,0,0,5.3-7.28,13.9-14.81,5.53,5.63,10.84,10.3,16.16,14.35,1.57,1.2,3.13,2.34,4.7,3.43,1.21.86,2.43,1.69,3.65,2.49,1.24.8,2.48,1.59,3.73,2.37,4.55,2.8,9.21,5.39,14.11,7.95Z"/>
          <path class="cls-9" d="m304.63,118.83l-20.26,2.18-.1.02c-.61-3.08-.25-6.42,1.3-9.87,1.74-3.9,5.01-7.91,10.13-11.79,1.04,2.65,4.57,11.12,8.93,19.47Z"/>
          <path class="cls-9" d="m316.11,135.85h0c-.73.18-1.46.32-2.18.45-12.79,2.17-24.14-3.05-28.27-11.23-.66-1.28-1.12-2.63-1.39-4.04l.1-.02,20.26-2.18c3.57,6.85,7.71,13.63,11.48,17.02Z"/>
          <path class="cls-9" d="m313.95,136.47s-.16,5.59,1.09,9.2l-.21.07c-15.82,3.06-30.26-2.18-29.29-20.61l.11-.06c4.12,8.18,15.48,13.4,28.27,11.23l.03.16Z"/>
          <path class="cls-9" d="m326.74,136.95l.02.24c-.42,1.34-1,2.62-1.68,3.8-2.46,4.25-6.18,7.25-7.9,7.54-.99-.37-1.67-1.47-2.14-2.86-1.25-3.61-1.09-9.2-1.09-9.2l-.03-.16c.72-.13,1.45-.27,2.18-.44h0c2.59,2.33,5.01,3.08,6.96,1.18l.17.17c1.05-.07,2.24-.16,3.49-.26Z"/>
          <path class="cls-9" d="m352.06,140.13l-.16.35c-4.88,2.4-26.66.61-26.66.61l-.16-.1c.67-1.18,1.26-2.46,1.68-3.8l-.02-.24c6.68-.54,15.37-1.41,17.74-1.93,2.37,2.14,4.9,3.87,7.58,5.11Z"/>
          <path class="cls-9" d="m344.48,135.02c-2.36.52-11.06,1.39-17.74,1.93-1.25.1-2.44.19-3.49.26l-.17-.17c.93-.9,1.75-2.4,2.43-4.61.29-1.23.59-2.43.9-3.57.35-1.3.72-2.52,1.1-3.62,1.35-3.94,2.9-6.46,4.68-5.73h0c.68.28,1.39,1.03,2.14,2.35,2.89,5.21,6.3,9.72,10.14,13.17Z"/>
          <path class="cls-9" d="m343.16,118.57c15.64.61,21.39,4.3,31.93,6.76-16.71,10.26-29.27-1.69-31.93-6.76Z"/>
          <path class="cls-9" d="m383.43,126.82v.1c-13.35,10.97-30.34,15.31-40.26-8.34,2.65,5.07,15.22,17.03,31.93,6.76,2.46.58,5.17,1.09,8.34,1.48Z"/>
          <path class="cls-9" d="m332.19,119.5c.37-.04,9-1.02,10.97-.93,9.92,23.64,26.91,19.31,40.25,8.34.95.35,2.16,1.55,3.42,3.13-3.4,3.36-6.74,5.98-9.99,7.92-9.05,5.4-17.46,5.59-24.78,2.17-2.68-1.25-5.21-2.97-7.58-5.11-3.85-3.45-7.26-7.96-10.14-13.17-.75-1.32-1.46-2.08-2.14-2.35Z"/>
          <path class="cls-7" d="m433.12,129.21l-.02.07-8.25,8.61-15.12,10.36s-2.27-2.7-4.33-5.4c-.25-.33-.5-.66-.74-.99,4.24-1.85,22.26-14.24,22.82-14.63h0c2.03.81,3.98,1.49,5.64,1.97Z"/>
          <path class="cls-13" d="m422.67,125.14c1.6.76,3.23,1.47,4.81,2.1-.56.39-18.58,12.78-22.82,14.63.24.33.49.66.74.99l-5.6,2.65-3.87-4.22c6.89-3.04,23.94-11.6,26.75-16.15Z"/>
          <path class="cls-9" d="m447.43,128.43h-.03c-1.57,1.58-3.16,2.9-4.74,4-9.29,6.49-17.81,5.47-17.81,5.47l8.25-8.61.02-.07c2.74.8,4.71,1.05,5.06.48l.8-5.59.16-.82c2.21.42,4.54.64,7,.61h0c.35,1.44.79,2.97,1.29,4.56Z"/>
          <path class="cls-7" d="m449.72,134.8l-.26.1-5.06,1.12-1.73-3.59c1.57-1.1,3.16-2.41,4.74-3.99h.03c.67,2.05,1.44,4.2,2.28,6.36Z"/>
          <path class="cls-7" d="m449.84,109.82c0-1.06-.09-2.12-.21-3.1,2.84,4.89,23.59,20.39,37.52,27.09l-6.52,2.24c-9.76-3.53-17.27-8.84-23.73-14.99h0c-3.16-4.42-5.74-8.46-7.06-11.25Z"/>
          <path class="cls-7" d="m480.63,136.05c.17.07.35.13.53.19l-8.59,3.93c-5.06-5.27-11-12.59-15.67-19.1,6.46,6.15,13.97,11.46,23.73,14.99Z"/>
          <path class="cls-7" d="m487.15,133.81c-13.93-6.7-34.68-22.21-37.52-27.09-.15-1.19-.35-2.27-.53-3.04,0,0,3,3.05,7.79,7.13,6.86,5.85,17.37,13.81,27.92,17.89h0c3.74,1.44,7.47,2.4,11.05,2.6-5.01,1.63-7.8,2.95-7.8,2.95-.3-.14-.61-.29-.93-.44Z"/>
          <path class="cls-9" d="m489.4,111.15c1.13.03,2.28.09,3.43.2-1.63,4.33-4.17,7.77-8.02,9.94-1.85-1.24-3.66-2.53-5.42-3.84,2.58-2.3,3.82-4.52,3.84-6.71,1.95.23,4,.37,6.17.42Z"/>
          <path class="cls-9" d="m479.39,117.44c-6.24-4.63-11.97-9.58-17.17-13.77h0c6.36,3.56,12.79,6.11,21,7.06-.02,2.19-1.26,4.41-3.84,6.71Z"/>
          <path class="cls-9" d="m492.83,111.35c14.27,1.3,29.39,8.48,29.39,8.48-5.47,6.35-14.58,7.93-25.03,8.47-4.32-1.95-8.44-4.38-12.38-7.02,3.85-2.16,6.38-5.6,8.02-9.94Z"/>
          <path class="cls-9" d="m465.73,62.11s8.8,7.86,13.71,16.52c-5.92-3.32-10.96-8.31-13.83-16.47l.12-.04Z"/>
          <path class="cls-9" d="m486.11,81.64c-2.3-.84-4.55-1.82-6.68-3.02-4.9-8.66-13.71-16.52-13.71-16.52l-.12.04c-.17-.48-.34-.99-.49-1.5-.72-1.72-1.51-3.35-2.37-4.83,6,1.38,19.91,13.68,23.37,25.82Z"/>
          <path class="cls-9" d="m484.62,61.78c-4.37-6.92-26.09-18.36-26.09-18.36.68-2.07,1.89-5.18,2.97-7.34,7.98,5.09,16.75,15.3,23.13,25.69h-.02Z"/>
          <path class="cls-9" d="m484.62,61.78h.02c4.94,8.02,8.46,16.15,9.12,22.16-2.56-.65-5.14-1.39-7.64-2.3-3.45-12.14-17.36-24.44-23.37-25.82-2.98-5.24-6.54-8.78-8.85-9,2.31-.91,4.19-2.09,4.63-3.4,0,0,21.72,11.44,26.09,18.36Z"/>
          <path class="cls-9" d="m504.13,86.44c-3.29-.83-6.82-1.58-10.37-2.5-.67-6.01-4.19-14.15-9.12-22.17-6.38-10.39-15.15-20.6-23.13-25.69.49-.97.95-1.76,1.33-2.17.99-1.09,2.81-2.7,3.42-4.09,1.05-1.14,1.62-2.3,1.84-3.45,9.74,7.19,35.32,30.72,36.02,60.07Z"/>
          <path class="cls-9" d="m383.77,23.07c7.62-8.45,17.91-18.71,21.21-18.41-1.32,2.65-5.29,12.14-3.75,16.78l-43.8,27.2c-2.01-1.02-3.99-2.02-5.91-3.04.38-2,1.57-8.29,2.83-14.67.29-1.42.56-2.84.84-4.22.3-1.48.6-2.91.86-4.23.09-.37.16-.74.23-1.09,6.11-.55,21.75-1.47,27.49,1.68Z"/>
          <path class="cls-9" d="m404.98,4.65c4.23.38,8.73,2.35,9.82,2.84-5.37,3.74-10.06,9.07-13.58,13.93-1.54-4.63,2.43-14.13,3.75-16.78Z"/>
          <path class="cls-9" d="m414.81,7.5c9.88-6.87,22.1-8.39,33.72,8.31l.03.26c-4.56,1.93-8.18,5.92-13.84,9.98-3.93,2.02-10.54,5.17-16.85,9.28l-.13-.19-16.51-13.71c3.52-4.86,8.21-10.19,13.58-13.93Z"/>
        </g>
        <g>
          <line class="cls-12" x1="451.64" y1="29.82" x2="453.93" y2="31.81"/>
          <path class="cls-12" d="m459.96,31.81s-3.06,7.78-3.84,8.78c-.77.99-1.44.72-2.92-.58"/>
          <line class="cls-12" x1="452.79" y1="38.22" x2="452.04" y2="39.17"/>
          <line class="cls-11" x1="449.96" y1="43.16" x2="451.07" y2="44.03"/>
          <path class="cls-12" d="m461.04,25.33c-.54.81-2.52-.58-1.93-1.36.54-.81,2.51.58,1.93,1.36Z"/>
          <path class="cls-12" d="m465.14,28.75c-.54.81-2.51-.58-1.92-1.36.54-.81,2.51.58,1.92,1.36Z"/>
          <path class="cls-12" d="m438.54,44.59s.69.94,1.85,1.92c1.16.97,2.78,1.97,4.66,2.08,2.13.12,5.84-.59,8.85-1.77,2.31-.91,4.19-2.09,4.63-3.4.68-2.07,1.89-5.18,2.97-7.34.49-.97.95-1.76,1.33-2.17.99-1.09,2.81-2.7,3.42-4.09.14-.31.22-.61.22-.88,0-1.55-.55-6.74-3.87-7.06-12.86-1.42-16.99,10.24-34,22.02-1.79,1.25-3.73,2.49-5.84,3.72-2.65,1.56-5.58,3.09-8.83,4.56-3.78,1.73-7.99,3.38-12.71,4.91-.04-5.3,2.9-10.1,7.15-14.31.89-.88,1.83-1.74,2.82-2.57.74-.62,1.51-1.23,2.3-1.82,1.41-1.07,2.88-2.09,4.37-3.05,6.31-4.11,12.93-7.26,16.85-9.28,5.66-4.06,9.29-8.05,13.84-9.98,3.56-1.51,7.7-1.76,13.84.24,2.06,1.31,6.57,5.54,5.69,10.06-.22,1.15-.8,2.31-1.84,3.45"/>
          <polyline class="cls-12" points="428.56 43.73 428.61 43.9 432.36 55.43"/>
          <polyline class="cls-12" points="422.7 47.35 422.77 47.61 427.07 63.26 428.5 68.47 428.56 68.68"/>
          <path class="cls-12" d="m445.06,48.59s-2.72,2.84-6.07,6.62c-3.67,4.14-8.09,9.4-10.49,13.26-.83,1.33-1.42,2.49-1.65,3.39"/>
          <path class="cls-12" d="m427.07,63.26s2.23-3.77,5.33-7.8c1.95-2.56,4.27-5.23,6.59-7.09"/>
          <path class="cls-12" d="m401.23,57.08s-.22.48-.62,1.33c-.22.48-.49,1.09-.81,1.81-.69,1.56-1.59,3.61-2.58,6.01-.32.78-.65,1.6-.98,2.45-1.25,3.15-2.58,6.72-3.78,10.41-1.34,4.11-2.53,8.36-3.29,12.35-.35,1.83-.61,3.6-.75,5.27"/>
          <path class="cls-12" d="m398.8,81.26c5.93,2.59,23.95,1.56,26.82,6.18"/>
          <path class="cls-12" d="m397.23,66.23c8.64,1.57,26.25,9.51,33.23,21.21"/>
          <path class="cls-12" d="m399.8,60.22s23.04,8.01,34.36,26.33"/>
          <path class="cls-12" d="m413.85,52s.03.06.1.17c.87,1.53,7.29,12.83,8.76,16.51"/>
          <path class="cls-12" d="m438.98,55.21c-.58,4.23-2.07,10.64-3.11,16.64-.13.69-.24,1.38-.35,2.06-.12.7-.22,1.39-.31,2.06-.1.71-.19,1.4-.26,2.08-.15,1.41-.23,2.72-.23,3.89,1.31.78,5.4,1.9,10,2.66,4.58.74,9.68,1.12,13.04.42"/>
          <path class="cls-12" d="m450.51,60.34c.71,3.03,1.5,7.65,2.76,12.52.2.76.41,1.52.63,2.29.22.76.45,1.53.7,2.28.24.77.51,1.53.79,2.28.68,1.85,1.47,3.64,2.37,5.29.74,1.37,1.57,2.65,2.5,3.79"/>
          <path class="cls-12" d="m401.23,100.25c-3.44,0-8.21-2.06-12.94-2.59-2.53-.28-5.06-.12-7.38,1.04-1.47.74-4,1.95-7.1,3.42-2.29,1.1-4.89,2.33-7.58,3.65-1.57.75-3.16,1.53-4.74,2.32-1.08.53-2.16,1.07-3.22,1.6-1.09.55-2.15,1.1-3.19,1.63-1.11.57-2.17,1.13-3.18,1.68-4.49,2.4-7.9,4.46-8.74,5.58,15.64.61,21.39,4.3,31.93,6.76,2.46.58,5.17,1.09,8.34,1.48,2.49.3,5.25.54,8.39.67,10.74-.29,20.87-.21,27.38-3.83"/>
          <path class="cls-12" d="m366.23,105.78c20.18,5.34,31.24,11.67,48.23,7.82,1.25-.29,2.53-.62,3.86-1.03,1.19-.35,2.41-.77,3.68-1.23.93-.34,1.89-.71,2.86-1.12,4.73-1.95,9.96-4.59,15.89-8.09"/>
          <path class="cls-12" d="m427.48,127.24c2.03.81,3.98,1.49,5.64,1.97,2.74.8,4.71,1.05,5.06.48l.8-5.59"/>
          <path class="cls-12" d="m414.48,113.66c-2.99.68-3.84,1.87-3.28,3.29.2.52.58,1.06,1.12,1.63.38.41.85.83,1.37,1.25.54.44,1.16.88,1.82,1.33,1.13.76,2.42,1.52,3.8,2.27,1.08.59,2.21,1.15,3.36,1.69,1.6.76,3.23,1.47,4.81,2.1"/>
          <path class="cls-12" d="m361.5,108.09c9.97,4.76,39.85,12.04,49.53,8.93"/>
          <path class="cls-12" d="m358.3,109.73c15.12,4.56,38.3,12.44,54.02,8.86t.02,0"/>
          <path class="cls-12" d="m355.11,111.36c18.71,3.71,37.29,13.36,58.58,8.48"/>
          <path class="cls-12" d="m351.91,113c21.64,2.53,35.77,14.35,63.6,8.18"/>
          <path class="cls-12" d="m418.32,112.56c.66.66,8.69,8.46,20.82,10.71,2.21.42,4.54.64,7,.61"/>
          <path class="cls-12" d="m484.82,128.7c3.74,1.44,7.47,2.4,11.05,2.6-5.01,1.63-7.8,2.95-7.8,2.95-.3-.14-.61-.29-.93-.44-13.93-6.7-34.68-22.21-37.52-27.09-.02-.03-.03-.04-.04-.07"/>
          <path class="cls-12" d="m447.89,116.21v.03c1.68,10.26,9.21,24.9,15.8,32.86,1.37,1.65,2.7,3.03,3.93,4l-7.51,1.18c-3.19-3.67-7.29-11.59-10.39-19.47-.85-2.15-1.62-4.31-2.28-6.36-.5-1.58-.94-3.12-1.29-4.56-.23-.93-.43-1.83-.58-2.68-.25-1.36-.39-2.58-.4-3.62,1.16-.18,2.05-.67,2.72-1.34.71-.71,1.18-1.65,1.49-2.7.34-1.15.46-2.44.46-3.72,0-1.06-.09-2.12-.21-3.1-.15-1.19-.35-2.27-.53-3.04,0,0,3,3.05,7.79,7.13,6.86,5.85,17.37,13.81,27.92,17.89"/>
          <line class="cls-12" x1="464.17" y1="149" x2="469.23" y2="147.5"/>
          <path class="cls-12" d="m468.34,145.33c.22.29.35.44.35.44"/>
          <path class="cls-12" d="m449.46,113.55l.03.05c.47.98,8.02,16.79,10.37,20.54,2.08,3.31,7.08,9.48,8.48,11.18"/>
          <path class="cls-12" d="m468.33,145.32c-6.07-10.02-18.16-30.55-18.85-31.72"/>
          <line class="cls-12" x1="468.33" y1="145.32" x2="468.34" y2="145.33"/>
          <path class="cls-12" d="m456.9,121.07c4.67,6.51,10.61,13.83,15.67,19.1,2.61,2.72,4.98,4.9,6.82,6.16,0,0-5.45,3.23-7.66,4.41-.13-.1-.94-1.39-2.19-3.42-.36-.6-.77-1.26-1.2-1.98"/>
          <path class="cls-12" d="m449.84,109.82c1.31,2.79,3.89,6.83,7.06,11.24"/>
          <path class="cls-12" d="m472.57,140.17l8.59-3.93c-.17-.06-.35-.12-.53-.19-9.76-3.53-17.27-8.84-23.73-14.99h0"/>
          <polyline class="cls-12" points="480.62 136.05 480.63 136.05 487.15 133.81"/>
          <path class="cls-12" d="m433.1,129.28l-8.25,8.61s8.53,1.03,17.81-5.47c1.57-1.1,3.16-2.41,4.74-3.99"/>
          <polyline class="cls-12" points="442.67 132.43 444.4 136.02 449.46 134.9"/>
          <path class="cls-12" d="m427.49,127.23h0s0,0,0,0c-.56.39-18.58,12.78-22.82,14.63.24.33.49.66.74.99,2.06,2.7,4.33,5.4,4.33,5.4l15.12-10.36"/>
          <polyline class="cls-12" points="395.92 141.29 399.8 145.51 405.4 142.86"/>
          <path class="cls-12" d="m375.16,125.29s-.04.03-.07.04c-16.71,10.26-29.27-1.69-31.93-6.76,9.92,23.64,26.91,19.31,40.25,8.34.95.35,2.16,1.55,3.42,3.13,2.01,2.55,4.16,6.13,5.5,8.77.86,1.66,1.39,2.96,1.39,3.39.5-.18,1.25-.5,2.2-.91"/>
          <path class="cls-12" d="m332.18,119.5c-1.78-.73-3.33,1.79-4.68,5.73-.38,1.11-.75,2.33-1.1,3.62-.31,1.14-.61,2.34-.9,3.57-.68,2.21-1.5,3.71-2.43,4.61-1.95,1.9-4.37,1.16-6.96-1.18-3.77-3.39-7.91-10.17-11.48-17.02-4.37-8.34-7.9-16.82-8.93-19.47,1.92-.1,4.88-.28,8.54-.48,1.4-.07,2.9-.16,4.49-.23,1.43-.07,2.93-.14,4.49-.22,3.79-.16,7.9-.33,12.16-.44,19.36-.53,41.57-.15,48.44,4.13"/>
          <path class="cls-12" d="m386.83,130.04c-3.4,3.36-6.74,5.98-9.99,7.92-9.05,5.4-17.46,5.59-24.78,2.17-2.68-1.25-5.21-2.97-7.58-5.11-3.85-3.45-7.26-7.96-10.14-13.17-.75-1.32-1.46-2.08-2.14-2.35"/>
          <path class="cls-12" d="m376.83,137.95s0,0,.02,0c.5.14,11.54,3.14,15.49.85"/>
          <path class="cls-12" d="m295.7,99.37c-5.13,3.88-8.4,7.9-10.13,11.79-1.55,3.44-1.9,6.79-1.3,9.87.27,1.41.74,2.76,1.39,4.04,4.12,8.18,15.48,13.4,28.27,11.23.72-.13,1.45-.27,2.18-.44"/>
          <path class="cls-12" d="m285.55,125.13c-.97,18.43,13.47,23.67,29.29,20.61"/>
          <path class="cls-12" d="m313.95,136.47s-.16,5.59,1.09,9.2c.48,1.39,1.16,2.49,2.14,2.86,1.71-.29,5.43-3.29,7.9-7.54.67-1.18,1.26-2.46,1.68-3.8"/>
          <path class="cls-12" d="m323.25,137.21c1.05-.07,2.24-.16,3.49-.26,6.68-.54,15.37-1.41,17.74-1.93.03,0,.04,0,.07-.02"/>
          <path class="cls-12" d="m325.25,141.08s21.78,1.8,26.66-.61"/>
          <path class="cls-12" d="m304.25,98.97c2.31,9.65,9.27,28.28,21.26,33.46"/>
          <path class="cls-12" d="m308.74,98.77c.49,6.29,7.07,26.03,17.39,30.01"/>
          <path class="cls-12" d="m313.23,98.57s.43,19.34,13.53,26.56"/>
          <path class="cls-12" d="m460.26,88.79h0c11.35,12.58,47.46,9.4,60.19,18.3"/>
          <path class="cls-12" d="m457.79,92.11c11.55,12.64,51.48,10.74,63.26,19.23"/>
          <path class="cls-12" d="m455.63,95.54c9.27,7.04,20.3,10.93,34.67,11.78,13.87.78,29.35,6.87,31.34,8.27"/>
          <path class="cls-12" d="m453.9,46.82c2.31.22,5.86,3.76,8.85,9,.86,1.49,1.65,3.11,2.37,4.83.16.51.32,1.01.49,1.5,2.87,8.16,7.9,13.15,13.83,16.47,2.13,1.2,4.38,2.18,6.68,3.02,2.51.91,5.08,1.65,7.64,2.3,3.55.92,7.07,1.67,10.37,2.5,6.81,1.73,12.67,3.83,15.75,8.42,0,2.48.42,7.38.91,12.19.16,1.45.31,2.9.46,4.26.17,1.56.34,3,.48,4.25.3,2.55.51,4.25.51,4.25,0,0-15.12-7.19-29.39-8.48-1.15-.11-2.3-.17-3.43-.2-2.17-.04-4.22-.18-6.17-.42-8.21-.95-14.65-3.49-21-7.06-2.61-1.47-5.21-3.12-7.9-4.9-.06-.03-.11-.08-.17-.11"/>
          <path class="cls-12" d="m462.22,103.68c5.21,4.19,10.93,9.13,17.17,13.77,1.76,1.31,3.57,2.6,5.42,3.84,3.94,2.65,8.07,5.07,12.38,7.02.1.05.2.1.29.14"/>
          <path class="cls-12" d="m484.82,128.7h0c4.24-.12,8.41-.18,12.37-.4,10.45-.54,19.55-2.13,25.03-8.47"/>
          <path class="cls-12" d="m484.82,121.28c3.85-2.16,6.38-5.6,8.02-9.94h0"/>
          <path class="cls-12" d="m483.23,110.7v.03c-.02,2.19-1.26,4.41-3.84,6.71"/>
          <path class="cls-12" d="m478.65,83.33s13.84,11.92,21.5,12.21"/>
          <path class="cls-12" d="m435.95,71.86c4.36,1.24,14.44,1.78,16.8,1.12"/>
          <path class="cls-12" d="m435.6,73.91c2.91.82,12.9,2.31,18.02,1.31"/>
          <path class="cls-12" d="m435.26,75.97c1.45.41,11.36,2.82,19.25,1.5"/>
          <path class="cls-12" d="m434.91,78.02s.02,0,.04.02c.7.22,10.18,3.26,20.43,1.68"/>
          <path class="cls-12" d="m413.85,94.86c3.5-.4,10.12-4.12,16.82-6.94,1.17-.5,2.34-.96,3.49-1.37,3.84-1.38,7.54-2.21,10.52-1.69,2.66.48,4.75,2.02,5.84,5.26,2.24,7.77,3.11,10.71,3.11,10.71"/>
          <path class="cls-12" d="m460.27,88.79h0c-.86,1.02-1.72,2.11-2.54,3.27-.77,1.1-1.5,2.26-2.11,3.47-.52,1.04-.97,2.12-1.29,3.23-.2.69-.35,1.39-.43,2.11-.42,3.15.31,6.5,3,9.94"/>
          <path class="cls-12" d="m468.1,26.37c9.74,7.19,35.32,30.72,36.02,60.07v.1"/>
          <path class="cls-12" d="m458.53,43.42s21.72,11.44,26.09,18.36c.07.11.14.22.2.33"/>
          <path class="cls-12" d="m400.6,58.22c-5.31-1.34-15.03-3.45-23.13-5.04-2.18-.42-4.3-.82-6.28-1.18-1.76-.32-3.42-.61-4.89-.86-2.28-.37-4.14-.64-5.35-.75"/>
          <path class="cls-12" d="m396.24,68.68c-13.58-7.58-25.04-13.14-35.3-18.29-1.18-.59-2.35-1.18-3.51-1.76-2.01-1.02-3.99-2.02-5.91-3.04-4.9-2.56-9.56-5.15-14.11-7.95-1.25-.78-2.49-1.57-3.73-2.37-1.22-.8-2.44-1.63-3.65-2.49-1.57-1.09-3.14-2.23-4.7-3.43-5.32-4.06-10.64-8.73-16.16-14.35-8.6,7.53-13.9,14.81-13.9,14.81,27.97,25.32,70.34,31.12,97.2,49.27"/>
          <path class="cls-12" d="m389.18,91.44h0c-11.14-5.99-29.71-14.6-39.16-17.61-8.32-2.64-25.89-6.48-36.79-9.35-10.9-2.87-29.13-13.03-29.13-13.03v-21.64l5.42-3.53,5.74,3.53"/>
          <path class="cls-12" d="m380.92,98.7c-26.64-19.92-66.7-17.65-95.37-26.84v16.69s32.93,5.51,39.83,9.44l.13.08"/>
          <line class="cls-12" x1="284.09" y1="51.45" x2="285.55" y2="71.86"/>
          <line class="cls-12" x1="285.55" y1="88.55" x2="285.55" y2="111.16"/>
          <polyline class="cls-12" points="357.43 48.64 401.23 21.43 417.74 35.14"/>
          <polyline class="cls-12" points="366.3 51.14 401.23 29.01 413.38 38.22"/>
          <polyline class="cls-12" points="371.18 52 371.19 52 401.23 33.42 411.09 40.07"/>
          <polyline class="cls-12" points="377.47 53.18 401.23 37.55 408.32 42.71"/>
          <path class="cls-12" d="m325.58,29.01c6.32-6.04,23.14-13.54,31.51-11.34-.23,1.03-.51,2.29-.81,3.71-.08.35-.15.72-.23,1.09-.27,1.32-.56,2.75-.86,4.23-.28,1.38-.55,2.8-.84,4.22-1.25,6.38-2.45,12.68-2.83,14.67"/>
          <path class="cls-12" d="m337.47,37.55c1.73-2.41,10.71-7.44,16.88-6.62"/>
          <path class="cls-12" d="m333.87,35c2.57-2.59,13.01-8.28,21.32-8.29h.02"/>
          <path class="cls-12" d="m330.27,32.45c3.41-2.78,15.33-9.14,25.78-9.97h0"/>
          <path class="cls-12" d="m356.28,21.39c6.11-.55,21.75-1.47,27.49,1.68"/>
          <path class="cls-12" d="m375.84,32.45c1.41-1.89,4.38-5.44,7.93-9.38,7.62-8.45,17.91-18.71,21.21-18.41,4.23.38,8.73,2.35,9.82,2.84.16.08.25.12.25.12"/>
          <path class="cls-12" d="m404.98,4.65c-1.32,2.65-5.29,12.14-3.75,16.78,3.52-4.86,8.21-10.19,13.58-13.93,9.88-6.87,22.1-8.39,33.72,8.31"/>
          <polyline class="cls-12" points="284.37 121.01 304.63 118.83 304.81 118.82"/>
          <path class="cls-12" d="m421.99,111.34s7.4,9.94,23.57,9.86"/>
          <path class="cls-12" d="m424.86,110.22s8.17,7.56,20.31,7.35"/>
          <path class="cls-12" d="m332.19,119.5h0"/>
          <path class="cls-10" d="m343.16,118.57c-1.97-.1-10.6.88-10.97.93"/>
        </g>
      </g>
    </g>
    <line class="cls-12" x1="459.65" y1="35.8" x2="460.76" y2="36.61"/>
  </g>
</svg>