<?xml version="1.0" encoding="UTF-8"?>
<svg xmlns="http://www.w3.org/2000/svg" viewBox="0 0 268.97 205.66">
  <defs>
    <style>
      .cls-1 {
        fill: #f4ccae;
      }

      .cls-1, .cls-2, .cls-3, .cls-4, .cls-5, .cls-6, .cls-7 {
        stroke-width: 0px;
      }

      .cls-8 {
        stroke-miterlimit: 10;
      }

      .cls-8, .cls-9, .cls-10, .cls-11 {
        stroke: #000;
      }

      .cls-8, .cls-9, .cls-10, .cls-11, .cls-12 {
        fill: none;
      }

      .cls-9 {
        stroke-width: 1.25px;
      }

      .cls-9, .cls-10, .cls-11, .cls-12 {
        stroke-linecap: round;
        stroke-linejoin: round;
      }

      .cls-2 {
        fill: #f14f40;
      }

      .cls-3 {
        fill: #f0e4cc;
      }

      .cls-4 {
        fill: #f3edd7;
      }

      .cls-10, .cls-12 {
        stroke-width: .5px;
      }

      .cls-5 {
        fill: #333;
      }

      .cls-6 {
        fill: #e7c65b;
      }

      .cls-7 {
        fill: #d2d296;
      }

      .cls-12 {
        stroke: #fff;
      }
    </style>
  </defs>
  <g id="_レイヤー_3" data-name="レイヤー 3">
    <g>
      <g>
        <rect class="cls-4" x=".24" y="171.19" width="3.6" height="5"/>
        <path class="cls-4" d="m268.72,198.63v6.53h-30.29l15.27-8.59c1.03,1.61,3.09,2.7,5.49,2.7s4.6-1.17,5.59-2.87l3.95,2.22Z"/>
        <path class="cls-4" d="m268.72,188.12v10.5l-3.95-2.22c.38-.65.59-1.37.59-2.13,0-1.3-.61-2.47-1.61-3.36l4.97-2.79Z"/>
        <path class="cls-4" d="m268.72,176.2v11.93l-4.97,2.79c-1.13-1-2.76-1.63-4.57-1.63s-3.29.58-4.41,1.5l-25.96-14.59h39.91Z"/>
        <path class="cls-4" d="m268.72,106.26h0c0,1.58-1.28,2.87-2.87,2.87H.24v-2.87c0-1.58,1.28-2.87,2.87-2.87h262.74c1.58,0,2.87,1.28,2.87,2.87Z"/>
        <rect class="cls-4" x="264.75" y="171.19" width="3.97" height="5"/>
        <path class="cls-4" d="m265.36,194.28c0,.76-.21,1.49-.59,2.13l-5.39-3.03,4.37-2.46c.99.89,1.61,2.06,1.61,3.36Z"/>
        <path class="cls-4" d="m259.39,193.38l5.39,3.03c-.99,1.69-3.12,2.87-5.59,2.87s-4.46-1.1-5.49-2.7l5.68-3.2Z"/>
        <rect class="cls-5" x="253.5" y="171.19" width="11.25" height="5"/>
        <path class="cls-4" d="m263.76,190.91l-4.37,2.46-4.61-2.59c1.12-.92,2.69-1.5,4.41-1.5,1.81,0,3.44.63,4.57,1.63Z"/>
        <path class="cls-4" d="m259.39,193.38l-5.68,3.2c-.44-.68-.69-1.47-.69-2.3,0-1.36.67-2.59,1.76-3.49l4.61,2.59Z"/>
        <path class="cls-4" d="m228.82,176.2l25.96,14.59c-1.09.9-1.76,2.12-1.76,3.49,0,.83.25,1.62.69,2.3l-15.27,8.59h-41.26l-15.57-8.75c.38-.65.59-1.37.59-2.13,0-1.3-.61-2.47-1.61-3.35l26.2-14.73h22.04Zm-5.93,18.08c0-2.76-2.24-4.99-4.99-4.99s-5,2.24-5,4.99,2.24,5,5,5,4.99-2.24,4.99-5Z"/>
        <polygon class="cls-4" points="253.5 176.2 228.82 176.2 223.14 176.2 223.14 171.19 253.5 171.19 253.5 176.2"/>
        <rect class="cls-5" x="211.89" y="171.19" width="11.25" height="5"/>
        <path class="cls-5" d="m217.89,189.28c2.76,0,4.99,2.24,4.99,4.99s-2.24,5-4.99,5-5-2.24-5-5,2.24-4.99,5-4.99Z"/>
        <path class="cls-4" d="m206.78,176.2l-26.2,14.73c-1.13-1.01-2.76-1.64-4.57-1.64s-3.29.58-4.41,1.5l-25.96-14.59h61.14Z"/>
        <polygon class="cls-4" points="181.53 176.2 181.53 171.19 211.89 171.19 211.89 176.2 206.78 176.2 181.53 176.2"/>
        <path class="cls-4" d="m197.17,205.16h-41.91l15.27-8.59c1.03,1.61,3.1,2.7,5.49,2.7s4.6-1.17,5.59-2.87l15.57,8.75Z"/>
        <path class="cls-4" d="m182.19,194.28c0,.76-.21,1.49-.59,2.13l-5.39-3.03,4.37-2.45c.99.88,1.61,2.06,1.61,3.35Z"/>
        <path class="cls-4" d="m176.21,193.38l5.39,3.03c-.99,1.69-3.12,2.87-5.59,2.87s-4.46-1.1-5.49-2.7l5.68-3.2Z"/>
        <rect class="cls-5" x="170.29" y="171.19" width="11.25" height="5"/>
        <path class="cls-4" d="m176.01,189.28c1.81,0,3.44.63,4.57,1.64l-4.37,2.45-4.61-2.59c1.12-.92,2.69-1.5,4.41-1.5Z"/>
        <path class="cls-4" d="m176.21,193.38l-5.68,3.2c-.44-.68-.69-1.47-.69-2.3,0-1.36.67-2.59,1.76-3.49l4.61,2.59Z"/>
        <path class="cls-4" d="m145.64,176.2l25.96,14.59c-1.09.9-1.76,2.12-1.76,3.49,0,.83.25,1.62.69,2.3l-15.27,8.59h-41.26l-15.57-8.75c.38-.65.59-1.37.59-2.13,0-1.3-.61-2.47-1.61-3.35l26.2-14.73h22.04Zm-6.98,18.08c0-2.76-2.24-4.99-4.99-4.99s-5,2.24-5,4.99,2.24,5,5,5,4.99-2.24,4.99-5Z"/>
        <polygon class="cls-4" points="170.29 176.2 145.64 176.2 139.92 176.2 139.92 171.19 170.29 171.19 170.29 176.2"/>
        <rect class="cls-5" x="128.68" y="171.19" width="11.25" height="5"/>
        <path class="cls-5" d="m133.67,189.28c2.76,0,4.99,2.24,4.99,4.99s-2.24,5-4.99,5-5-2.24-5-5,2.24-4.99,5-4.99Z"/>
        <path class="cls-4" d="m123.61,176.2l-26.2,14.73c-1.13-1.01-2.76-1.64-4.57-1.64s-3.29.58-4.41,1.5l-25.96-14.59h61.14Z"/>
        <polygon class="cls-4" points="128.68 176.2 123.61 176.2 98.31 176.2 98.31 171.19 128.68 171.19 128.68 176.2"/>
        <path class="cls-4" d="m113.99,205.16h-41.91l15.27-8.59c1.03,1.61,3.09,2.7,5.49,2.7s4.6-1.17,5.59-2.87l15.57,8.75Z"/>
        <path class="cls-4" d="m99.01,194.28c0,.76-.21,1.49-.59,2.13l-5.39-3.03,4.37-2.45c.99.88,1.61,2.06,1.61,3.35Z"/>
        <path class="cls-4" d="m93.03,193.38l5.39,3.03c-.99,1.69-3.12,2.87-5.59,2.87s-4.46-1.1-5.49-2.7l5.68-3.2Z"/>
        <rect class="cls-5" x="87.07" y="171.19" width="11.25" height="5"/>
        <path class="cls-4" d="m92.84,189.28c1.81,0,3.44.63,4.57,1.64l-4.37,2.45-4.61-2.59c1.12-.92,2.69-1.5,4.41-1.5Z"/>
        <path class="cls-4" d="m93.03,193.38l-5.68,3.2c-.44-.68-.69-1.47-.69-2.3,0-1.36.67-2.59,1.76-3.49l4.61,2.59Z"/>
        <path class="cls-4" d="m62.46,176.2l25.96,14.59c-1.09.9-1.76,2.12-1.76,3.49,0,.83.25,1.62.69,2.3l-15.27,8.59H30.62l-15.57-8.75c.38-.65.59-1.37.59-2.13,0-1.3-.61-2.47-1.61-3.35l26.2-14.73h22.23Zm-8.48,18.08c0-2.76-2.24-4.99-4.99-4.99s-5,2.24-5,4.99,2.24,5,5,5,4.99-2.24,4.99-5Z"/>
        <polygon class="cls-4" points="87.07 176.2 62.46 176.2 56.7 176.2 56.7 171.19 87.07 171.19 87.07 176.2"/>
        <rect class="cls-5" x="45.46" y="171.19" width="11.25" height="5"/>
        <path class="cls-5" d="m48.99,189.28c2.76,0,4.99,2.24,4.99,4.99s-2.24,5-4.99,5-5-2.24-5-5,2.24-4.99,5-4.99Z"/>
        <polygon class="cls-4" points="45.46 176.2 40.24 176.2 15.09 176.2 15.09 171.19 45.46 171.19 45.46 176.2"/>
        <path class="cls-4" d="m30.62,205.16H.24v-6.49l3.74-2.1c1.03,1.61,3.1,2.7,5.49,2.7s4.6-1.17,5.59-2.87l15.57,8.75Z"/>
        <path class="cls-4" d="m15.65,194.28c0,.76-.21,1.49-.59,2.13l-5.39-3.03,4.37-2.45c.99.88,1.61,2.06,1.61,3.35Z"/>
        <rect class="cls-5" x="3.85" y="171.19" width="11.25" height="5"/>
        <path class="cls-4" d="m9.67,193.38l5.39,3.03c-.99,1.69-3.12,2.87-5.59,2.87s-4.46-1.1-5.49-2.7l5.68-3.2Z"/>
        <path class="cls-4" d="m9.47,189.28c1.81,0,3.44.63,4.57,1.64l-4.37,2.45-4.61-2.59c1.12-.92,2.69-1.5,4.41-1.5Z"/>
        <path class="cls-4" d="m9.67,193.38l-5.68,3.2c-.44-.68-.69-1.47-.69-2.3,0-1.36.67-2.59,1.76-3.49l4.61,2.59Z"/>
        <path class="cls-4" d="m.24,188.08l4.81,2.7c-1.09.9-1.76,2.12-1.76,3.49,0,.83.25,1.62.69,2.3l-3.74,2.1v-10.59Z"/>
        <path class="cls-7" d="m211.89,171.19H.24v-62.06h265.61c1.58,0,2.87,1.28,2.87,2.87v59.2h-56.83Z"/>
        <path class="cls-4" d="m.24,176.2h39.99l-26.2,14.73c-1.13-1.01-2.76-1.64-4.57-1.64s-3.29.58-4.41,1.5l-4.81-2.7v-11.89Z"/>
      </g>
      <g>
        <polyline class="cls-8" points="268.72 205.16 238.43 205.16 197.17 205.16 155.25 205.16 113.99 205.16 72.08 205.16 30.62 205.16 .24 205.16"/>
        <line class="cls-8" x1=".24" y1="103.39" x2="268.72" y2="103.39"/>
        <line class="cls-8" x1=".24" y1="109.13" x2="268.72" y2="109.13"/>
        <line class="cls-8" x1="264.75" y1="171.19" x2="268.72" y2="171.19"/>
        <line class="cls-8" x1="223.14" y1="171.19" x2="253.5" y2="171.19"/>
        <line class="cls-8" x1="181.53" y1="171.19" x2="211.89" y2="171.19"/>
        <line class="cls-8" x1="139.92" y1="171.19" x2="170.29" y2="171.19"/>
        <line class="cls-8" x1="98.31" y1="171.19" x2="128.68" y2="171.19"/>
        <line class="cls-8" x1="56.7" y1="171.19" x2="87.07" y2="171.19"/>
        <line class="cls-8" x1="15.09" y1="171.19" x2="45.46" y2="171.19"/>
        <line class="cls-8" x1=".24" y1="171.19" x2="3.85" y2="171.19"/>
        <line class="cls-8" x1="264.75" y1="176.2" x2="268.72" y2="176.2"/>
        <polyline class="cls-8" points="223.14 176.2 228.82 176.2 253.5 176.2"/>
        <polyline class="cls-8" points="181.53 176.2 206.78 176.2 211.89 176.2"/>
        <polyline class="cls-8" points="139.92 176.2 145.64 176.2 170.29 176.2"/>
        <polyline class="cls-8" points="98.31 176.2 123.61 176.2 128.68 176.2"/>
        <polyline class="cls-8" points="56.7 176.2 62.46 176.2 87.07 176.2"/>
        <polyline class="cls-8" points="15.09 176.2 40.24 176.2 45.46 176.2"/>
        <line class="cls-8" x1=".24" y1="176.2" x2="3.85" y2="176.2"/>
        <polyline class="cls-8" points="72.08 205.16 87.35 196.57 93.03 193.38 97.41 190.92 123.61 176.2"/>
        <polyline class="cls-8" points="113.99 205.16 98.43 196.41 93.03 193.38 88.42 190.79 62.46 176.2"/>
        <path class="cls-8" d="m138.66,194.28c0,2.76-2.24,5-4.99,5s-5-2.24-5-5,2.24-4.99,5-4.99,4.99,2.24,4.99,4.99Z"/>
        <path class="cls-8" d="m222.88,194.28c0,2.76-2.24,5-4.99,5s-5-2.24-5-5,2.24-4.99,5-4.99,4.99,2.24,4.99,4.99Z"/>
        <path class="cls-8" d="m97.41,190.92c.99.88,1.61,2.06,1.61,3.35,0,.76-.21,1.49-.59,2.13-.99,1.69-3.12,2.87-5.59,2.87s-4.46-1.1-5.49-2.7c-.44-.68-.69-1.47-.69-2.3,0-1.36.67-2.59,1.76-3.49,1.12-.92,2.69-1.5,4.41-1.5,1.81,0,3.44.63,4.57,1.64Z"/>
        <polyline class="cls-8" points=".24 198.67 3.99 196.57 9.67 193.38 14.04 190.92 40.24 176.2"/>
        <polyline class="cls-8" points="30.62 205.16 15.06 196.41 9.67 193.38 5.06 190.79 .24 188.08"/>
        <path class="cls-8" d="m14.04,190.92c.99.88,1.61,2.06,1.61,3.35,0,.76-.21,1.49-.59,2.13-.99,1.69-3.12,2.87-5.59,2.87s-4.46-1.1-5.49-2.7c-.44-.68-.69-1.47-.69-2.3,0-1.36.67-2.59,1.76-3.49,1.12-.92,2.69-1.5,4.41-1.5,1.81,0,3.44.63,4.57,1.64Z"/>
        <polyline class="cls-8" points="155.25 205.16 170.53 196.57 176.21 193.38 180.58 190.92 206.78 176.2"/>
        <polyline class="cls-8" points="197.17 205.16 181.6 196.41 176.21 193.38 171.6 190.79 145.64 176.2"/>
        <path class="cls-8" d="m180.58,190.92c.99.88,1.61,2.06,1.61,3.35,0,.76-.21,1.49-.59,2.13-.99,1.69-3.12,2.87-5.59,2.87s-4.46-1.1-5.49-2.7c-.44-.68-.69-1.47-.69-2.3,0-1.36.67-2.59,1.76-3.49,1.12-.92,2.69-1.5,4.41-1.5,1.81,0,3.44.63,4.57,1.64Z"/>
        <polyline class="cls-8" points="238.43 205.16 253.7 196.57 259.39 193.38 263.76 190.91 268.72 188.12"/>
        <polyline class="cls-8" points="268.72 198.63 264.78 196.41 259.39 193.38 254.77 190.79 228.82 176.2"/>
        <path class="cls-8" d="m263.76,190.91c.99.89,1.61,2.06,1.61,3.36,0,.76-.21,1.49-.59,2.13-.99,1.69-3.12,2.87-5.59,2.87s-4.46-1.1-5.49-2.7c-.44-.68-.69-1.47-.69-2.3,0-1.36.67-2.59,1.76-3.49,1.12-.92,2.69-1.5,4.41-1.5,1.81,0,3.44.63,4.57,1.63Z"/>
        <path class="cls-8" d="m53.98,194.28c0,2.76-2.24,5-4.99,5s-5-2.24-5-5,2.24-4.99,5-4.99,4.99,2.24,4.99,4.99Z"/>
        <rect class="cls-8" x="3.85" y="171.19" width="11.25" height="5"/>
        <rect class="cls-8" x="45.46" y="171.19" width="11.25" height="5"/>
        <rect class="cls-8" x="87.07" y="171.19" width="11.25" height="5"/>
        <rect class="cls-8" x="128.68" y="171.19" width="11.25" height="5"/>
        <rect class="cls-8" x="170.29" y="171.19" width="11.25" height="5"/>
        <rect class="cls-8" x="211.89" y="171.19" width="11.25" height="5"/>
        <rect class="cls-8" x="253.5" y="171.19" width="11.25" height="5"/>
      </g>
    </g>
  </g>
  <g id="_レイヤー_2" data-name="レイヤー 2">
    <g>
      <g>
        <path class="cls-5" d="m49.97,107.78s.45-3.51,1.36-7.13c.91-3.63,3.62-8.16,5.78-9.52,2.15-1.36,10.99-9.28,13.48-10.87s9.06-5.66,11.55-9.29c2.49-3.62,15.64-9.74,19.71-12.91,1.22,1.53,2.7,2.94,4.44,3.82l-.05.11c-.15,2.57.3,8.31,6.8,9.22,6.5.91,14.59-1.67,17.6-4,3.4-2.64,6.87-7.93,8.46-12.39v-1.48c.31,0,.63,0,.95,0,.82.02,1.69.03,2.6.04.91.02,1.85.04,2.83.05.56,0,1.13.03,1.7.04.79.02,1.58.04,2.38.07.71,0,1.43.04,2.14.05.73.03,1.45.05,2.15.08.67.03,1.31.06,1.94.09.91.04,1.73.12,2.47.25.64.1,1.22.22,1.74.37.57.16,1.06.35,1.52.55.87.4,1.55.89,2.11,1.43.57.56,1,1.18,1.37,1.84.52.97.89,2.02,1.29,3.08h0c.19.52.39,1.04.61,1.54.16.36.38.81.66,1.31.32.61.71,1.31,1.17,2.09.33.56.69,1.16,1.08,1.8.39.65.82,1.33,1.27,2.04.4.64.82,1.3,1.26,1.96.36.57.75,1.14,1.14,1.72.48.72.97,1.46,1.47,2.18.54.79,1.09,1.57,1.63,2.34.65.91,1.3,1.79,1.92,2.64.59.77,1.15,1.51,1.69,2.2,1.01,1.28,1.96,2.4,2.8,3.27,2.83,2.96,6.62,10.09,9.77,16.78,1.14,2.41,2.19,4.77,3.09,6.84.99,2.31,1.8,4.27,2.32,5.61,0,0,6.12,0,16.77,2.72,2.6,3.97,7.79,13.86,7.79,17.26,0,0,2.17.19,1.95,11.07-.25.55-.51,1.04-.82,1.46-2.17.34-11.57-.34-15.8-2.6-.46-.25-.98-.46-1.53-.64-4.56-1.47-12-.75-16.44,1.39-3.07,1.49-3.57,2.81-3.2,3.74l-.11.04c-.67-1.59-14.44-12.47-24.18-15.1,0,0-2.46-5.09-5.92-7.45l-.1-.07c-.97-.64-2.02-1.06-3.12-1.1-5.06-.15-14.27,9.37-18.18,13.84-1.62-1.94-3.3-4.23-4.9-6.66s-3.1-5-4.34-7.52l-1.95.49c-3.79.71-7.36,1.14-10.65,1.38-.91.07-1.78.12-2.64.16-2.49.1-4.8.1-6.89.03-4.61-.16-8.16-.67-10.34-1.05-1.57-.29-2.41-.51-2.41-.51l-2.61-.04c.87-.35,1.71-.69,2.53-1.01-.59-.15-2.45-.08-5.2.16-16.43,1.41-64.95,8.81-70.32,10.99,0-1.25,12.01-14.96,14.38-18.47,1.36-2.16,4.3-10.88,4.3-10.88l15.75.57Z"/>
        <path class="cls-2" d="m214.91,118.32c16.31.68,12.55,10.92,7.79,17.26,0-3.4-5.19-13.29-7.79-17.26Z"/>
        <path class="cls-2" d="m220.06,150.73l-.11.03c-2.47.39-13.46-5.81-13.46-5.81l.02-.07c.55.18,1.06.39,1.53.64,4.23,2.26,13.63,2.94,15.8,2.6-.93,1.37-2.16,2.16-3.78,2.62Z"/>
        <path class="cls-2" d="m206.49,144.94s11,6.2,13.46,5.81c-3.54.95-8.96.36-17.5.65-6.65.15-13.14.45-14.35-.15-.47-.23-1.02-.67-1.24-1.24-.36-.93.13-2.25,3.2-3.74,4.45-2.15,11.88-2.87,16.44-1.39l-.02.07Z"/>
        <path class="cls-2" d="m202.45,151.4s-4.77,4.07-14.73,8.39c-9.97,4.3-30.14,2.48-36.03,2.48-.82,0-1.74-.04-2.73-.1,2.8-.05,5.46-26.27,5.46-26.27,3.5-.54,6.54-.92,8.16-.97,9.74,2.64,23.51,13.52,24.18,15.1l.11-.04c.22.58.77,1.01,1.24,1.24,1.21.6,7.7.3,14.35.15Z"/>
        <path class="cls-6" d="m188.33,74.38l1.06,2.96-9.21,5.76c-.54-.69-1.11-1.43-1.69-2.2l9.85-6.52Z"/>
        <path class="cls-6" d="m187.58,72.29l.75,2.09-9.85,6.52c-.62-.84-1.27-1.73-1.92-2.64l.13-.1,10.89-5.88Z"/>
        <path class="cls-6" d="m186.34,69.85l1.24,2.44-10.89,5.88-.13.1c-.54-.77-1.09-1.55-1.63-2.34l11.41-6.08Z"/>
        <path class="cls-6" d="m186.34,69.85l-11.41,6.08c-.51-.73-.99-1.46-1.47-2.18l10.42-5.72,1.24-.57,1.22,2.4Z"/>
        <path class="cls-6" d="m182.4,65.56l1.47,2.46-10.42,5.72c-.39-.58-.77-1.15-1.14-1.72l10.08-6.46Z"/>
        <path class="cls-6" d="m180.93,63.09l1.47,2.47-10.08,6.46c-.44-.67-.86-1.32-1.26-1.96l9.87-6.97Z"/>
        <path class="cls-6" d="m178.9,60.25l2.02,2.85-9.87,6.97c-.45-.71-.88-1.39-1.27-2.04l9.11-7.77Z"/>
        <path class="cls-6" d="m177.44,58.19l1.46,2.06-9.11,7.77c-.39-.64-.75-1.24-1.08-1.8l.21-.12,8.52-7.91Z"/>
        <path class="cls-6" d="m176.15,55.46l1.83,2.22-.54.51-8.52,7.91-.21.12c-.46-.78-.85-1.48-1.17-2.09l8.62-8.66Z"/>
        <path class="cls-6" d="m176.15,55.46l-8.62,8.66c-.28-.51-.5-.95-.66-1.31-.22-.51-.43-1.02-.61-1.54h0s6.05-6.47,6.05-6.47l2.04-1.51,1.41,1.7.38.46Z"/>
        <path class="cls-6" d="m170.07,52.21l2.25,2.59-6.05,6.46c-.4-1.06-.76-2.11-1.29-3.08l5.09-5.97Z"/>
        <path class="cls-6" d="m168.49,50.39l1.58,1.83-5.09,5.97c-.36-.66-.8-1.28-1.37-1.84l4.88-5.96Z"/>
        <path class="cls-6" d="m168.92,49.87l-.43.51-4.88,5.96c-.56-.54-1.24-1.03-2.11-1.43l5-6.89,2.42,1.84Z"/>
        <path class="cls-6" d="m166.5,48.03l-5,6.89c-.45-.2-.95-.39-1.52-.55l4.29-6.83.8-.59,1.43,1.08Z"/>
        <path class="cls-6" d="m164.27,47.54l-4.29,6.83c-.52-.15-1.1-.28-1.74-.37h0s3.43-7.65,3.43-7.65l2.6,1.19Z"/>
        <path class="cls-6" d="m161.67,46.35l-3.43,7.64h0c-.74-.12-1.56-.2-2.47-.24l2.95-6.8.79-1.59,2.16.99Z"/>
        <path class="cls-2" d="m156.66,127.49c3.46,2.35,5.92,7.45,5.92,7.45-1.62.04-4.66.43-8.16.97-3.62.56-7.72,1.3-11.22,2.04-3.91.83-7.07,1.64-7.95,2.22,3.91-4.47,13.12-13.99,18.18-13.84,1.1.04,2.16.46,3.12,1.1l.1.07Z"/>
        <path class="cls-6" d="m158.72,46.95l-2.95,6.8c-.63-.03-1.28-.06-1.94-.09l.02-.36,2.09-6.74,2.79.39Z"/>
        <path class="cls-6" d="m155.94,46.56l-2.09,6.74-.02.36c-.7-.03-1.42-.05-2.15-.08v-.28s2.17-7.03,2.17-7.03l2.09.29Z"/>
        <path class="cls-6" d="m153.85,46.27l-2.16,7.03v.28c-.72-.02-1.44-.04-2.15-.05h0s1.72-7.8,1.72-7.8l2.58.54Z"/>
        <path class="cls-6" d="m151.27,45.73l-1.72,7.79h0c-.8-.02-1.59-.04-2.38-.06v-.16l2.17-7.99.21.05,1.72.36Z"/>
        <path class="cls-6" d="m149.55,44.53l-.21.78-2.17,7.99v.16c-.58,0-1.14-.03-1.7-.04v-.12l1.58-9.13,2.5.36Z"/>
        <path class="cls-5" d="m154.42,135.91s-2.65,26.21-5.46,26.27h-.04c-1.35-.09-2.82-.23-4.33-.42v-.09c-1.36-1.57-2.72-2.97-4.06-4.22-6.7-6.25-13.06-8.67-18.4-9.21,10.42-4.81,18.54-8.84,21.1-10.13l-.04-.16c3.5-.74,7.6-1.48,11.22-2.04Z"/>
        <path class="cls-6" d="m147.04,44.17l-1.58,9.13v.12c-.98-.02-1.93-.04-2.83-.05v-.07l.94-7.1.76-2.42,2.71.39Z"/>
        <path class="cls-3" d="m144.6,161.67v.09c-5.4-.65-11.16-1.82-12.83-2.88l8.77-1.43c1.34,1.25,2.7,2.65,4.06,4.22Z"/>
        <path class="cls-6" d="m143.57,46.2l-.94,7.1v.07c-.91,0-1.78-.02-2.6-.04v-.04l.43-7.42,3.11.32Z"/>
        <path class="cls-5" d="m118.03,148.17c-4.69.33-8.19,1.98-9.83,3.08l-3.55,1.9,1.62-7.19,1.14-2.86c12.98-5.46,21.99-9.38,21.99-9.38l.95-.22c1.6,2.43,3.28,4.72,4.9,6.66.88-.58,4.04-1.39,7.95-2.22l.04.16c-2.56,1.29-10.68,5.32-21.1,10.13-1.46-.14-2.83-.15-4.11-.06Z"/>
        <path class="cls-3" d="m140.53,157.44l-8.77,1.43-12.24-.67-1.22-8.21c1.3-.59,2.59-1.18,3.83-1.76,5.33.54,11.7,2.96,18.4,9.21Z"/>
        <path class="cls-6" d="m140.47,45.88l-.43,7.42v.04c-.32,0-.64,0-.94,0-.5,0-.97,0-1.41,0v-.25l.65-7.4,2.14.21Z"/>
        <path class="cls-5" d="m139.09,53.32v1.48c-1.6,4.45-5.07,9.74-8.47,12.39-3.01,2.33-11.1,4.91-17.6,4-6.5-.91-6.95-6.65-6.8-9.22l.05-.11c1.25.63,2.64.99,4.18.94.67-.03,1.31-.07,1.93-.12h0c1.93,2.73,4.87,5.22,8.95,3.19,4.08-2.04,9.63-8.95,9.63-8.95,2.23-1.96,2.83-3.62,2.83-3.62,0,0,1.52,0,3.89.02.44,0,.91,0,1.41,0Z"/>
        <path class="cls-5" d="m133.72,53.07l.07.23s-.6,1.66-2.83,3.62c0,0-2.08-3.38-2.67-4.68h.14c2.42-.38,4.3.6,5.29.83Z"/>
        <path class="cls-5" d="m122.32,1.41c2.64,2.34,9.59,8.76,8.99,15.33-.61,6.58-1.67,10.5-6.8,11.03v4.45c.93,1.45,1.22,3.82,1.19,5.68l-1.06-.03c0-3.57-3.05-7.89-6.03-.21,0,0-2.12,1.29-2.72,1.21-3.02-3.28-8.16-7.35-7.55-13.44-8.53.97-11.32,2.2-14.8,10.2-.15-5.14,4.38-11.55,9.52-14.2l3.25-8-4.01-6.34,3.93-3.92,4.91,6.19s1.81-5.36,2.72-6.42c.91-1.06,5.81-3.85,8.46-1.51Zm2.75,21.97c1.59-.22,3.29-.91,2.95-5.09-.34-4.19-3.4-12.12-6.9-14.28-1.37-1.47-3.06-.67-4.65,1.59-1.58,2.26-2.6,3.74-3.05,9.06,0,0,4.76,3.18,4.98,4.08.45-4.76.57-6.68.57-6.68h2.95s-.34,4.53.12,5.89c.45,1.36,1.47,5.66,3.05,5.43Z"/>
        <path class="cls-5" d="m130.35,133.5l-.95.22s-9.01,3.92-21.99,9.38l6.02-15.01-.02-.24c3.29-.23,6.86-.67,10.65-1.38l1.95-.49c1.24,2.51,2.74,5.08,4.34,7.52Z"/>
        <path class="cls-1" d="m112.39,62.69c-.61.05-1.25.1-1.93.12-1.54.05-2.93-.31-4.18-.94-1.74-.88-3.22-2.29-4.44-3.82-1.33-1.69-2.35-3.53-3.05-4.99-1.82-3.74-4.42-11.78-5.25-17.45,3.48-8,6.27-9.23,14.8-10.2-.6,6.1,4.53,10.16,7.55,13.44.6.08,2.72-1.21,2.72-1.21,2.97-7.68,6.03-3.35,6.03.21,0,1.64-.65,3.11-2.25,3.19,1.14,1.59,4.72,6.23,4.72,6.23l.52-.39.04.05s.34,4.19.45,4.87c.02.09.07.23.16.42.59,1.3,2.67,4.68,2.67,4.68,0,0-5.55,6.91-9.63,8.95-4.07,2.03-7.02-.45-8.95-3.18h0Zm-1.62-7.51l-1.82-.6-.75.91-1.13-.37-1.22,1.21c.7.66,1.86,1.54,2.86,1.34.99-.2,2.06-2.48,2.06-2.48Z"/>
        <path class="cls-5" d="m128.59,46.2l-.95.7-.52.39s-3.59-4.64-4.72-6.23c1.61-.07,2.25-1.54,2.25-3.19l1.06.03c0,.85-.09,1.61-.21,2.1,2.27,4.45,3.1,6.19,3.1,6.19Z"/>
        <path class="cls-3" d="m118.03,148.17c1.28-.09,2.65-.08,4.11.06-1.24.58-2.53,1.16-3.83,1.76l-.28-1.82Z"/>
        <path class="cls-3" d="m118.3,149.99l1.22,8.21-8.22,12.24-3.79-12.02.35-3.79c3.59-1.56,7.1-3.12,10.43-4.64Z"/>
        <path class="cls-3" d="m118.03,148.17l.28,1.82c-3.33,1.52-6.83,3.08-10.43,4.64l.32-3.38c1.64-1.1,5.15-2.75,9.83-3.08Z"/>
        <path class="cls-6" d="m113.41,127.85l.02.24-6.02,15.01c-2.07.88-4.24,1.78-6.5,2.73l-1.38-.04-2.38-.05,13.61-17.74c.86-.04,1.74-.09,2.64-.16Z"/>
        <path class="cls-6" d="m87.93,145.53l-1.03-.03,2.25-2.3,14.74-15.12v-.05c2.09.07,4.39.07,6.89-.03l-13.61,17.74-2.22-.05-2.76-.06-2.48-.06-1.77-.04Z"/>
        <path class="cls-2" d="m108.95,54.58l1.82.6s-1.07,2.28-2.06,2.48c-.99.2-2.16-.68-2.86-1.34l1.22-1.21,1.13.37.75-.91Z"/>
        <path class="cls-3" d="m108.19,151.25l-.32,3.38c-4.69,2.03-9.51,4.06-14.28,5.95l-.05-1.47,6.48-3.48,3.07-1.64,1.55-.83h0s3.55-1.91,3.55-1.91Z"/>
        <path class="cls-3" d="m107.87,154.63l-.35,3.79-11.33,12.02-2.49-6.8-.1-3.06c4.77-1.89,9.59-3.91,14.28-5.95Z"/>
        <path class="cls-6" d="m107.41,143.1l-1.14,2.86-2.26-.05-1.94-.04-1.14-.03c2.25-.95,4.43-1.85,6.5-2.73Z"/>
        <polygon class="cls-6" points="106.27 145.96 104.64 153.15 104.64 153.16 103.09 153.98 104.01 145.91 106.27 145.96"/>
        <polygon class="cls-6" points="104.01 145.91 103.09 153.98 100.02 155.62 100 155.59 102.06 145.86 104.01 145.91"/>
        <path class="cls-6" d="m103.88,128.03v.05l-14.74,15.12-4.81-3.04,9.21-13.18c2.17.38,5.72.89,10.34,1.05Z"/>
        <path class="cls-6" d="m102.06,145.86l-2.06,9.73h-2.23l1.64-9.13c.51-.21,1-.42,1.5-.62l1.14.03Z"/>
        <path class="cls-5" d="m100.02,155.62l-6.48,3.48.05,1.47c-2.13.83-4.24,1.65-6.32,2.42-3.87-.39-8.24-.83-9.21-.95-1.82-.23-2.95-4.53-2.95-4.53,0,0-.62-.19-1.54-.5,3.35-1.35,6.71-2.7,9.99-4.04l.28.18,2.26,1.07,2.61.66,2.83.7h8.46l.02.04Z"/>
        <path class="cls-6" d="m99.53,145.8l-.12.66c-.88.36-1.77.74-2.66,1.1l.4-1.81,2.38.05Z"/>
        <path class="cls-6" d="m99.42,146.46l-1.64,9.13h-2.78l1.76-8.03c.9-.36,1.78-.74,2.66-1.1Z"/>
        <path class="cls-6" d="m97.15,145.75l-.4,1.81c-.94.4-1.9.79-2.87,1.19l1.05-3.05,2.22.05Z"/>
        <path class="cls-6" d="m96.75,147.56l-1.76,8.03h-3.45l2.34-6.84c.97-.4,1.93-.79,2.87-1.19Z"/>
        <path class="cls-6" d="m94.94,145.69l-1.05,3.05c-1.13.47-2.26.94-3.41,1.41l1.69-4.53,2.76.06Z"/>
        <path class="cls-6" d="m93.89,148.75l-2.34,6.84-2.83-.7,1.77-4.73c1.14-.47,2.28-.94,3.41-1.41Z"/>
        <path class="cls-5" d="m93.6,160.58l.1,3.06s-3.02-.29-6.42-.64c2.08-.77,4.19-1.59,6.32-2.42Z"/>
        <path class="cls-5" d="m93.54,126.99l-9.21,13.18,4.81,3.04-2.25,2.3-4.19,6.91.86.56c-3.28,1.34-6.64,2.69-9.99,4.04-1.96-.66-5.3-1.89-6.84-3.12-2.26-1.82-1.81-4.65-1.81-4.65-.35-2.64-1.82-11.48-1.82-11.48,7.38-3.42,17.38-8.04,25.42-11.33l2.61.04s.84.22,2.41.51Z"/>
        <path class="cls-6" d="m92.18,145.63l-1.69,4.53c-1.06.43-2.15.88-3.23,1.32l2.45-5.91,2.48.06Z"/>
        <path class="cls-6" d="m90.48,150.16l-1.77,4.73-2.61-.66,1.14-2.75c1.08-.44,2.17-.89,3.23-1.32Z"/>
        <path class="cls-2" d="m85.85,125.58c2.75-.24,4.61-.31,5.2-.16-.82.32-1.66.66-2.53,1.01-8.03,3.29-18.03,7.92-25.42,11.33-4.6,2.12-8.17,3.77-9.63,4.35,0,0-14.84,3.18-16.2,3.18,9.33-5.15,33.74-16.04,48.57-19.71Z"/>
        <path class="cls-6" d="m89.7,145.57l-2.45,5.91c-1.06.43-2.14.87-3.21,1.31l3.89-7.26,1.77.04Z"/>
        <path class="cls-6" d="m87.93,145.53l-3.89,7.26c-.15.06-.31.12-.47.19l-.86-.56,4.19-6.91,1.03.03Z"/>
        <path class="cls-6" d="m87.25,151.48l-1.14,2.75-2.26-1.07.2-.36c1.07-.44,2.15-.88,3.21-1.31Z"/>
        <path class="cls-3" d="m64.92,149.24l-11.45-7.13c1.46-.58,5.03-2.23,9.63-4.35,0,0,1.47,8.85,1.82,11.48Z"/>
        <path class="cls-2" d="m85.85,125.58c-14.83,3.67-39.24,14.56-48.57,19.71-1.36,0-14.5-2.95-16.09-3.18-1.59-.22-5.66-4.3-5.66-5.55,5.37-2.17,53.89-9.58,70.32-10.99Z"/>
      </g>
      <g>
        <path class="cls-11" d="m124.65,37.87c0,1.64-.65,3.11-2.25,3.19,1.14,1.59,4.72,6.23,4.72,6.23l.52-.39.95-.7s-.83-1.74-3.1-6.19c.12-.5.2-1.25.21-2.1.04-1.86-.26-4.23-1.19-5.68v-4.45c5.13-.53,6.19-4.45,6.8-11.03.6-6.57-6.34-12.98-8.99-15.33s-7.55.45-8.46,1.51c-.91,1.06-2.72,6.42-2.72,6.42l-4.91-6.19-3.93,3.92,4.01,6.34-3.25,8c-5.14,2.64-9.67,9.06-9.52,14.2,3.48-8,6.27-9.23,14.8-10.2-.6,6.1,4.53,10.16,7.55,13.44.6.08,2.72-1.21,2.72-1.21,2.97-7.68,6.03-3.35,6.03.21Z"/>
        <path class="cls-11" d="m113.41,14.66s4.76,3.18,4.98,4.08c.45-4.76.57-6.68.57-6.68h2.95s-.34,4.53.12,5.89c.45,1.36,1.47,5.66,3.05,5.43,1.59-.22,3.29-.91,2.95-5.09-.34-4.19-3.4-12.12-6.9-14.28-1.37-1.47-3.06-.67-4.65,1.59-1.58,2.26-2.6,3.74-3.05,9.06Z"/>
        <path class="cls-11" d="m93.54,35.62c.83,5.66,3.43,13.71,5.25,17.45.7,1.46,1.72,3.3,3.05,4.99,1.22,1.53,2.7,2.94,4.44,3.82,1.25.63,2.64.99,4.18.94.67-.03,1.31-.07,1.93-.12,4.86-.44,7.82-1.69,7.82-1.69"/>
        <path class="cls-11" d="m103.22,43.1s-.08,5.63-.12,6.57.27,1.89.45,2.16c.19.26,3.06.34,3.28-.8"/>
        <line class="cls-11" x1="107.8" y1="41.73" x2="112.44" y2="39.85"/>
        <line class="cls-11" x1="97.42" y1="44.83" x2="101.25" y2="43.78"/>
        <path class="cls-11" d="m94.9,35.4s3.1-1.44,3.78-1.44"/>
        <line class="cls-11" x1="106.01" y1="31.77" x2="109.03" y2="31.01"/>
        <path class="cls-11" d="m110.77,55.18l-1.82-.6-.75.91-1.13-.37-1.22,1.21c.7.66,1.86,1.54,2.86,1.34.99-.2,2.06-2.48,2.06-2.48Z"/>
        <path class="cls-10" d="m107.52,56.35s1.38-.07,1.62-.31"/>
        <path class="cls-11" d="m112.39,62.69c1.93,2.72,4.87,5.21,8.95,3.18,4.08-2.04,9.63-8.95,9.63-8.95,0,0-2.08-3.38-2.67-4.68-.09-.19-.14-.33-.16-.42-.12-.68-.45-4.87-.45-4.87"/>
        <path class="cls-12" d="m106.23,61.98c-.15,2.57.3,8.31,6.8,9.22,6.5.91,14.59-1.67,17.6-4,3.4-2.64,6.87-7.93,8.46-12.39"/>
        <path class="cls-11" d="m166.27,61.27c-.4-1.06-.76-2.11-1.29-3.08-.36-.66-.8-1.28-1.37-1.84-.56-.54-1.24-1.03-2.11-1.43-.45-.2-.95-.39-1.52-.55-.52-.15-1.1-.28-1.74-.37-.74-.12-1.56-.2-2.47-.25-.63-.03-1.28-.06-1.94-.09-.7-.03-1.42-.05-2.15-.08-.71-.02-1.43-.04-2.14-.05-.8-.03-1.59-.05-2.38-.07-.58,0-1.14-.03-1.7-.04-.98-.02-1.93-.04-2.83-.05-.91,0-1.78-.02-2.6-.04-.32,0-.64,0-.94,0-.5,0-.97,0-1.41,0-2.37-.02-3.89-.02-3.89-.02,0,0-.6,1.66-2.83,3.62"/>
        <path class="cls-11" d="m220.06,150.73c1.62-.46,2.85-1.25,3.78-2.62.3-.43.57-.91.82-1.46.22-10.88-1.95-11.07-1.95-11.07,4.76-6.34,8.52-16.58-7.79-17.26-10.65-2.72-16.77-2.72-16.77-2.72-.51-1.34-1.32-3.3-2.32-5.61-.9-2.08-1.95-4.43-3.09-6.84-3.15-6.69-6.94-13.82-9.77-16.78-.83-.87-1.78-1.99-2.8-3.27-.54-.69-1.11-1.43-1.69-2.2-.62-.84-1.27-1.73-1.92-2.64-.54-.77-1.09-1.55-1.63-2.34-.51-.73-.99-1.46-1.47-2.18-.39-.58-.77-1.15-1.14-1.72-.44-.67-.86-1.32-1.26-1.96-.45-.71-.88-1.39-1.27-2.04-.39-.64-.75-1.24-1.08-1.8-.46-.78-.85-1.48-1.17-2.09-.28-.51-.5-.95-.66-1.31-.22-.51-.43-1.02-.61-1.54"/>
        <path class="cls-11" d="m148.96,162.17c.99.06,1.92.1,2.73.1,5.89,0,26.06,1.82,36.03-2.48,9.97-4.31,14.73-8.39,14.73-8.39,8.54-.28,13.96.3,17.5-.65"/>
        <path class="cls-11" d="m101.85,58.05c-4.07,3.17-17.22,9.29-19.71,12.91-2.49,3.63-9.06,7.7-11.55,9.29s-11.33,9.51-13.48,10.87c-2.16,1.37-4.87,5.89-5.78,9.52-.91,3.62-1.36,7.13-1.36,7.13l-15.75-.57s-2.95,8.72-4.3,10.88c-2.38,3.51-14.38,17.22-14.38,18.47s4.07,5.32,5.66,5.55c1.59.23,14.73,3.18,16.09,3.18s16.2-3.18,16.2-3.18l11.45,7.13s-.45,2.83,1.81,4.65c1.54,1.23,4.88,2.47,6.84,3.12.92.31,1.54.5,1.54.5,0,0,1.13,4.3,2.95,4.53.97.12,5.34.56,9.21.95,3.4.35,6.42.64,6.42.64l2.49,6.8,11.33-12.02,3.79,12.02,8.22-12.24,12.24.67c1.67,1.06,7.44,2.24,12.82,2.88,1.51.19,2.98.33,4.33.42"/>
        <path class="cls-11" d="m133.72,53.07c-.99-.22-2.87-1.21-5.29-.83"/>
        <polyline class="cls-11" points="104.64 153.16 103.09 153.98 100.02 155.62 93.54 159.1 93.6 160.58 93.69 163.64"/>
        <polyline class="cls-11" points="107.52 158.42 107.87 154.63 108.19 151.25 104.64 153.15"/>
        <path class="cls-11" d="m108.19,151.25c1.64-1.1,5.15-2.75,9.83-3.08,1.28-.09,2.65-.08,4.11.06,5.33.54,11.7,2.96,18.4,9.21,1.34,1.25,2.7,2.65,4.06,4.22"/>
        <polyline class="cls-11" points="118.02 148.11 118.03 148.17 118.3 149.99 119.53 158.2"/>
        <line class="cls-11" x1="131.76" y1="158.87" x2="140.53" y2="157.44"/>
        <polyline class="cls-11" points="103.88 128.09 89.14 143.21 86.9 145.51 87.93 145.53 89.7 145.57 92.18 145.63 94.94 145.69 97.15 145.75 99.53 145.8 100.92 145.84 102.06 145.86 104.01 145.91 106.27 145.96 107.41 143.1 113.43 128.09"/>
        <path class="cls-12" d="m156.66,114.92c-5.31-2.8-9.66-5.33-12.06-6.87-1.8-1.15-3.67-1.79-5.51-2.03-1.82-.24-3.63-.09-5.36.34-2.37.57-4.59,1.65-6.5,2.95-1.19.8-2.25,1.68-3.17,2.56-2.48,2.4-1.03,8.08,1.95,14.12,1.24,2.51,2.74,5.08,4.34,7.52s3.28,4.72,4.9,6.66"/>
        <path class="cls-12" d="m194.14,128.9c-10.3-.83-26.09-7.98-37.48-13.98"/>
        <path class="cls-11" d="m202.45,151.4c-6.65.15-13.14.45-14.35-.15-.47-.23-1.02-.67-1.24-1.24-.36-.93.13-2.25,3.2-3.74,4.45-2.15,11.88-2.87,16.44-1.39.55.18,1.06.39,1.53.64,4.23,2.26,13.63,2.94,15.8,2.6"/>
        <path class="cls-11" d="m206.49,144.94s11,6.2,13.46,5.81l.11-.03s.09-.03.12-.04"/>
        <path class="cls-11" d="m214.91,118.32c2.6,3.97,7.79,13.86,7.79,17.26"/>
        <path class="cls-11" d="m91.13,126.47s.84.22,2.41.51c2.17.38,5.72.89,10.34,1.05,2.09.07,4.39.07,6.89-.03.86-.04,1.74-.09,2.64-.16,3.29-.23,6.86-.67,10.65-1.38"/>
        <path class="cls-12" d="m86.9,96.74c.56.64.94,1.4,1.14,2.32,1.59,7.48,2.93,25.32,2.93,25.32"/>
        <path class="cls-12" d="m63.1,94.76c7.76-.6,19.87-2.59,23.79,1.98"/>
        <path class="cls-12" d="m97.78,121.26s3.62-30.81,14.62-42.14"/>
        <path class="cls-12" d="m103.09,68.02s-10.28,15.39-14.53,24.39c-.23.49-.43.95-.63,1.39-.49,1.14-.85,2.14-1.04,2.93h0"/>
        <polyline class="cls-12" points="88.56 92.41 86.9 70.06 93.59 70.06 91.43 77.99"/>
        <path class="cls-12" d="m75.12,82.38c2.72,3.09,11.02,7.13,12.81,11.43"/>
        <path class="cls-12" d="m49.97,107.78s15.17-.79,22.2-3.97"/>
        <path class="cls-12" d="m141.51,62.82s-.08,7.24-2.42,10.86c-2.34,3.63-11.4,15.76-11.86,23.06s0,12.56,0,12.56"/>
        <path class="cls-12" d="m144.6,73.68l9.59-9.06,4.06,9.06c-12.43,7.48-24.6,14.36-24.52,32.67"/>
        <path class="cls-12" d="m139.08,106.02c4.69-5.82,13.25-11.64,19.16-13.6,5.92-1.96,9.54-8.76,9.54-8.76"/>
        <path class="cls-12" d="m156.66,114.92h0c.55-.03,22.43-1.1,30.09,1.14"/>
        <path class="cls-11" d="m156.66,127.49c3.46,2.35,5.92,7.45,5.92,7.45-1.62.04-4.66.43-8.16.97-3.62.56-7.72,1.3-11.22,2.04-3.91.83-7.07,1.64-7.95,2.22,3.91-4.47,13.12-13.99,18.18-13.84,1.1.04,2.16.46,3.12,1.1"/>
        <polyline class="cls-12" points="137.19 114.64 156.56 127.42 156.66 127.49"/>
        <path class="cls-11" d="m162.57,134.94c9.74,2.64,23.51,13.52,24.18,15.1"/>
        <path class="cls-11" d="m154.42,135.91s-2.65,26.21-5.46,26.27h-.04"/>
        <polyline class="cls-11" points="86.9 145.51 82.71 152.42 83.57 152.98 83.84 153.16 84.04 152.79 87.93 145.53 87.93 145.51"/>
        <polyline class="cls-11" points="83.84 153.16 86.11 154.23 87.25 151.48 89.7 145.57"/>
        <polyline class="cls-11" points="86.11 154.23 88.71 154.89 90.48 150.16 92.18 145.63"/>
        <polyline class="cls-11" points="88.71 154.89 91.55 155.59 93.89 148.75 94.94 145.69"/>
        <polyline class="cls-11" points="91.55 155.59 95 155.59 96.75 147.56 97.15 145.75"/>
        <polyline class="cls-11" points="95 155.59 97.78 155.59 99.42 146.46 99.53 145.8"/>
        <polyline class="cls-11" points="97.78 155.59 100 155.59 102.06 145.86"/>
        <line class="cls-11" x1="103.09" y1="153.98" x2="104.01" y2="145.91"/>
        <polyline class="cls-11" points="106.27 145.96 104.64 153.15 104.64 153.16"/>
        <polyline class="cls-11" points="106.27 128.09 97.15 145.75 110.77 128.01"/>
        <path class="cls-11" d="m192.74,103.15l44.34-23.17c-.49.56-1.74,2.51-2.54,3.04-7,4.61-15.28,12.92-20.69,16.58-4.08,2.76-9.75,6.72-18.02,10.39"/>
        <path class="cls-11" d="m15.53,136.56c5.37-2.17,53.89-9.58,70.32-10.99,2.75-.24,4.61-.31,5.2-.16-.82.32-1.66.66-2.53,1.01-8.03,3.29-18.03,7.92-25.42,11.33-4.6,2.12-8.17,3.77-9.63,4.35"/>
        <path class="cls-11" d="m63.1,137.76s1.47,8.85,1.82,11.48"/>
        <polyline class="cls-11" points="93.54 126.99 84.33 140.17 89.14 143.21"/>
        <polyline class="cls-11" points="137.68 53.07 138.33 45.67 140.47 45.88 143.57 46.2 142.63 53.3"/>
        <polyline class="cls-11" points="143.57 46.2 144.34 43.78 147.04 44.17 149.55 44.53 149.33 45.31 147.17 53.3"/>
        <polyline class="cls-11" points="149.55 45.36 151.27 45.73 153.85 46.27 151.69 53.3"/>
        <polyline class="cls-11" points="153.85 46.27 155.94 46.56 158.72 46.95 155.78 53.75"/>
        <polyline class="cls-11" points="158.72 46.95 159.51 45.36 161.67 46.35 164.27 47.54 159.98 54.37"/>
        <polyline class="cls-11" points="164.27 47.54 165.07 46.95 166.5 48.03 168.92 49.87 168.49 50.39 163.61 56.35"/>
        <polyline class="cls-11" points="168.49 50.39 170.07 52.21 172.32 54.81 166.27 61.27 166.27 61.28"/>
        <polyline class="cls-11" points="172.32 54.81 174.36 53.3 175.77 55 176.15 55.46 177.98 57.68 177.44 58.19 168.92 66.09"/>
        <polyline class="cls-11" points="177.44 58.19 178.9 60.25 180.93 63.09 171.06 70.06"/>
        <polyline class="cls-11" points="180.93 63.09 182.4 65.56 183.87 68.02 173.45 73.74"/>
        <polyline class="cls-11" points="183.87 68.02 185.11 67.45 186.34 69.85 187.58 72.29 176.69 78.17"/>
        <polyline class="cls-11" points="187.58 72.29 188.33 74.38 189.38 77.35 180.17 83.11"/>
        <polyline class="cls-11" points="191.34 72.39 188.33 74.38 178.48 80.9"/>
        <polyline class="cls-11" points="188.57 68.66 186.34 69.85 174.93 75.93"/>
        <polyline class="cls-11" points="184.64 64.12 182.4 65.56 172.32 72.02"/>
        <polyline class="cls-11" points="177.23 54.37 176.15 55.46 167.53 64.12"/>
        <polyline class="cls-11" points="171.63 50.39 170.07 52.21 164.98 58.19"/>
        <polyline class="cls-11" points="167.78 46.27 166.5 48.03 161.5 54.92"/>
        <polyline class="cls-11" points="162.46 44.57 161.67 46.35 158.24 53.99"/>
        <polyline class="cls-11" points="156.8 43.78 155.94 46.56 153.85 53.3"/>
        <polyline class="cls-11" points="151.69 43.78 151.27 45.73 149.55 53.52"/>
        <polyline class="cls-11" points="147.39 42.2 147.04 44.17 145.46 53.3"/>
        <polyline class="cls-11" points="140.63 43.1 140.47 45.88 140.03 53.3"/>
        <polyline class="cls-11" points="180.06 59.25 178.9 60.25 169.79 68.02"/>
        <path class="cls-11" d="m37.28,145.29c9.33-5.15,33.74-16.04,48.57-19.71"/>
        <path class="cls-9" d="m21.54,175.45c18.25-2.88,19.27-7.13,34.78-5.01,6.09.83,17.92-2.56,30.96-7.44,2.08-.77,4.19-1.59,6.32-2.42,4.77-1.89,9.59-3.91,14.28-5.95,3.59-1.56,7.1-3.12,10.43-4.64,1.3-.59,2.59-1.18,3.83-1.76,10.42-4.81,18.54-8.84,21.1-10.13"/>
        <path class="cls-9" d="m21.52,175.45c-2.64.61-4.69.91-5.99.82,2.19-.25,4.18-.52,5.99-.82Z"/>
        <path class="cls-9" d="m21.52,175.45s.02,0,.02,0"/>
        <path class="cls-9" d="m129.4,133.72s-9.01,3.92-21.99,9.38c-2.07.88-4.24,1.78-6.5,2.73-.5.2-.99.41-1.5.62-.88.36-1.77.74-2.66,1.1-.94.4-1.9.79-2.87,1.19-1.13.47-2.26.94-3.41,1.41-1.06.43-2.15.88-3.23,1.32-1.06.43-2.14.87-3.21,1.31-.15.06-.31.12-.47.19-3.28,1.34-6.64,2.69-9.99,4.04-20.45,8.16-41.22,15.93-52.04,18.43"/>
      </g>
    </g>
  </g>
</svg>