<svg xmlns="http://www.w3.org/2000/svg" viewBox="0 0 270.19 202.5"><defs><style>.cls-1{stroke-miterlimit:10}.cls-1,.cls-2{stroke:#000}.cls-1,.cls-2,.cls-3{fill:none}.cls-4{fill:#f3edd7}.cls-4,.cls-5,.cls-6,.cls-7{stroke-width:0}.cls-2,.cls-3{stroke-linecap:round;stroke-linejoin:round}.cls-5{fill:#333}.cls-6{fill:#fffdea}.cls-7{fill:#f6433c}.cls-3{stroke:#fff;stroke-width:.5px}</style></defs><g id="_レイヤー_3" data-name="レイヤー 3"><path d="M.24 167.88h3.62v5.02H.24zM269.94 195.44V202h-30.43l15.34-8.63c1.03 1.61 3.11 2.72 5.51 2.72s4.62-1.18 5.61-2.88l3.97 2.23Z" class="cls-4"/><path d="M269.94 184.89v10.55l-3.97-2.23c.38-.65.59-1.38.59-2.14 0-1.3-.62-2.48-1.61-3.38l4.99-2.8Z" class="cls-4"/><path d="M269.94 172.91v11.98l-4.99 2.8c-1.14-1.01-2.77-1.64-4.59-1.64s-3.31.58-4.43 1.51l-26.08-14.66h40.09ZM269.94 87.94v5.76H.24v-5.76h269.7zM265.95 167.88h3.99v5.02h-3.99zM266.57 191.07c0 .76-.21 1.49-.59 2.14l-5.41-3.05 4.39-2.47c1 .89 1.61 2.07 1.61 3.38ZM260.56 190.17l5.41 3.05c-1 1.7-3.13 2.88-5.61 2.88s-4.48-1.1-5.51-2.72l5.71-3.21Z" class="cls-4"/><path d="M254.65 167.88h11.3v5.02h-11.3z" class="cls-5"/><path d="m264.95 187.69-4.39 2.47-4.63-2.6c1.13-.93 2.7-1.51 4.43-1.51 1.82 0 3.45.63 4.59 1.64Z" class="cls-4"/><path d="m260.56 190.17-5.71 3.21c-.44-.69-.69-1.48-.69-2.31 0-1.37.68-2.6 1.77-3.51l4.63 2.6Z" class="cls-4"/><path d="m229.85 172.91 26.08 14.66c-1.09.9-1.77 2.13-1.77 3.51 0 .83.25 1.62.69 2.31l-15.34 8.63h-41.45l-15.64-8.79c.38-.65.59-1.38.59-2.14 0-1.3-.62-2.48-1.61-3.37l26.32-14.79h22.14Zm-5.96 18.16c0-2.77-2.25-5.02-5.02-5.02s-5.02 2.25-5.02 5.02 2.25 5.02 5.02 5.02 5.02-2.25 5.02-5.02ZM254.65 172.91h-30.5v-5.03h30.5v5.03z" class="cls-4"/><path d="M212.86 167.88h11.3v5.02h-11.3zM218.88 186.05c2.77 0 5.02 2.25 5.02 5.02s-2.25 5.02-5.02 5.02-5.02-2.25-5.02-5.02 2.25-5.02 5.02-5.02Z" class="cls-5"/><path d="M207.72 172.91 181.4 187.7c-1.14-1.02-2.77-1.65-4.59-1.65s-3.31.58-4.43 1.51L146.3 172.9h61.42Z" class="cls-4"/><path d="M182.35 172.91v-5.03h30.51v5.03h-30.51zM198.06 202h-42.1l15.34-8.63c1.03 1.61 3.12 2.72 5.51 2.72s4.62-1.18 5.61-2.88l15.64 8.79ZM183.01 191.07c0 .76-.21 1.49-.59 2.14l-5.41-3.05 4.39-2.46c1 .89 1.61 2.07 1.61 3.37Z" class="cls-4"/><path d="m177.01 190.17 5.41 3.05c-1 1.7-3.13 2.88-5.61 2.88s-4.48-1.1-5.51-2.72l5.71-3.21Z" class="cls-4"/><path d="M171.06 167.88h11.3v5.02h-11.3z" class="cls-5"/><path d="M176.81 186.05c1.82 0 3.45.63 4.59 1.65l-4.39 2.46-4.63-2.6c1.13-.93 2.7-1.51 4.43-1.51Z" class="cls-4"/><path d="m177.01 190.17-5.71 3.21c-.44-.69-.69-1.48-.69-2.31 0-1.37.68-2.6 1.77-3.51l4.63 2.6Z" class="cls-4"/><path d="m146.3 172.91 26.08 14.66c-1.09.9-1.77 2.13-1.77 3.51 0 .83.25 1.62.69 2.31l-15.34 8.63h-41.45l-15.64-8.79c.38-.65.59-1.38.59-2.14 0-1.3-.62-2.48-1.61-3.37l26.32-14.79h22.14Zm-7.01 18.16c0-2.77-2.25-5.02-5.02-5.02s-5.02 2.25-5.02 5.02 2.25 5.02 5.02 5.02 5.02-2.25 5.02-5.02ZM171.06 172.91h-30.5v-5.03h30.5v5.03z" class="cls-4"/><path d="M129.26 167.88h11.3v5.02h-11.3zM134.27 186.05c2.77 0 5.02 2.25 5.02 5.02s-2.25 5.02-5.02 5.02-5.02-2.25-5.02-5.02 2.25-5.02 5.02-5.02Z" class="cls-5"/><path d="M124.16 172.91 97.84 187.7c-1.14-1.02-2.77-1.65-4.59-1.65s-3.31.58-4.43 1.51L62.74 172.9h61.42Z" class="cls-4"/><path d="M129.26 172.91h-30.5v-5.03h30.5v5.03zM114.51 202h-42.1l15.34-8.63c1.03 1.61 3.11 2.72 5.51 2.72s4.62-1.18 5.61-2.88l15.64 8.79ZM99.46 191.07c0 .76-.21 1.49-.59 2.14l-5.41-3.05 4.39-2.46c1 .89 1.61 2.07 1.61 3.37Z" class="cls-4"/><path d="m93.46 190.17 5.41 3.05c-1 1.7-3.13 2.88-5.61 2.88s-4.48-1.1-5.51-2.72l5.71-3.21Z" class="cls-4"/><path d="M87.46 167.88h11.3v5.02h-11.3z" class="cls-5"/><path d="M93.26 186.05c1.82 0 3.45.63 4.59 1.65l-4.39 2.46-4.63-2.6c1.13-.93 2.7-1.51 4.43-1.51Z" class="cls-4"/><path d="m93.46 190.17-5.71 3.21c-.44-.69-.69-1.48-.69-2.31 0-1.37.68-2.6 1.77-3.51l4.63 2.6Z" class="cls-4"/><path d="m62.75 172.91 26.08 14.66c-1.09.9-1.77 2.13-1.77 3.51 0 .83.25 1.62.69 2.31l-15.34 8.63H30.76l-15.64-8.79c.38-.65.59-1.38.59-2.14 0-1.3-.62-2.48-1.61-3.37l26.32-14.79h22.33Zm-8.52 18.16c0-2.77-2.25-5.02-5.02-5.02s-5.02 2.25-5.02 5.02 2.25 5.02 5.02 5.02 5.02-2.25 5.02-5.02ZM87.46 172.91h-30.5v-5.03h30.5v5.03z" class="cls-4"/><path d="M45.66 167.88h11.3v5.02h-11.3zM49.21 186.05c2.77 0 5.02 2.25 5.02 5.02s-2.25 5.02-5.02 5.02-5.02-2.25-5.02-5.02 2.25-5.02 5.02-5.02Z" class="cls-5"/><path d="M45.66 172.91h-30.5v-5.03h30.5v5.03zM30.76 202H.24v-6.52L4 193.37c1.03 1.61 3.12 2.72 5.51 2.72s4.62-1.18 5.61-2.88L30.76 202ZM15.72 191.07c0 .76-.21 1.49-.59 2.14l-5.41-3.05 4.39-2.46c1 .89 1.61 2.07 1.61 3.37Z" class="cls-4"/><path d="M3.86 167.88h11.3v5.02H3.86z" class="cls-5"/><path d="m9.71 190.17 5.41 3.05c-1 1.7-3.13 2.88-5.61 2.88S5.03 195 4 193.38l5.71-3.21ZM9.51 186.05c1.82 0 3.45.63 4.59 1.65l-4.39 2.46-4.63-2.6c1.13-.93 2.7-1.51 4.43-1.51Z" class="cls-4"/><path d="M9.71 190.17 4 193.38c-.44-.69-.69-1.48-.69-2.31 0-1.37.68-2.6 1.77-3.51l4.63 2.6Z" class="cls-4"/><path d="m.24 184.85 4.83 2.72c-1.09.9-1.77 2.13-1.77 3.51 0 .83.25 1.62.69 2.31L.23 195.5v-10.64Z" class="cls-4"/><path d="M212.86 167.88H.24V93.7h269.7v74.18h-57.08z" style="fill:#d2d296;stroke-width:0"/><path d="M.24 172.91h40.18L14.1 187.7c-1.14-1.02-2.77-1.65-4.59-1.65s-3.31.58-4.43 1.51l-4.83-2.72V172.9Z" class="cls-4"/><path d="M269.94 202H.24M.24 87.94h269.7M.24 93.7h269.7M265.95 167.88h3.99M224.15 167.88h30.5M182.35 167.88h30.51M140.56 167.88h30.5M98.76 167.88h30.5M56.96 167.88h30.5M15.16 167.88h30.5M.24 167.88h3.62M265.95 172.91h3.99M224.15 172.91h30.5M182.35 172.91h30.51M140.56 172.91h30.5M98.76 172.91h30.5M56.96 172.91h30.5M15.16 172.91h30.5M.24 172.91h3.62M72.41 202l15.34-8.62 5.71-3.21 4.39-2.47 26.31-14.79" class="cls-1"/><path d="m114.51 202-15.64-8.79-5.41-3.04-4.64-2.61-26.07-14.65M139.29 191.07c0 2.78-2.25 5.02-5.02 5.02s-5.02-2.25-5.02-5.02 2.25-5.02 5.02-5.02 5.02 2.25 5.02 5.02ZM223.89 191.07c0 2.78-2.25 5.02-5.02 5.02s-5.02-2.25-5.02-5.02 2.25-5.02 5.02-5.02 5.02 2.25 5.02 5.02Z" class="cls-1"/><path d="M97.85 187.7c1 .89 1.61 2.07 1.61 3.37 0 .76-.21 1.49-.59 2.14-1 1.7-3.13 2.88-5.61 2.88s-4.48-1.1-5.51-2.72c-.44-.69-.69-1.48-.69-2.31 0-1.37.68-2.6 1.77-3.51 1.13-.93 2.7-1.51 4.43-1.51 1.82 0 3.45.63 4.59 1.65ZM.24 195.49 4 193.38l5.71-3.21 4.39-2.47 26.32-14.79" class="cls-1"/><path d="m30.76 202-15.63-8.79-5.42-3.04-4.63-2.61-4.84-2.71" class="cls-1"/><path d="M14.1 187.7c1 .89 1.61 2.07 1.61 3.37 0 .76-.21 1.49-.59 2.14-1 1.7-3.13 2.88-5.61 2.88s-4.48-1.1-5.51-2.72c-.44-.69-.69-1.48-.69-2.31 0-1.37.68-2.6 1.77-3.51 1.13-.93 2.7-1.51 4.43-1.51 1.82 0 3.45.63 4.59 1.65ZM155.96 202l15.34-8.62 5.71-3.21 4.39-2.47 26.32-14.79" class="cls-1"/><path d="m198.06 202-15.64-8.79-5.41-3.04-4.63-2.61-26.08-14.65" class="cls-1"/><path d="M181.4 187.7c1 .89 1.61 2.07 1.61 3.37 0 .76-.21 1.49-.59 2.14-1 1.7-3.13 2.88-5.61 2.88s-4.48-1.1-5.51-2.72c-.44-.69-.69-1.48-.69-2.31 0-1.37.68-2.6 1.77-3.51 1.13-.93 2.7-1.51 4.43-1.51 1.82 0 3.45.63 4.59 1.65ZM239.51 202l15.34-8.62 5.71-3.21 4.39-2.48 4.99-2.8" class="cls-1"/><path d="m269.94 195.44-3.96-2.23-5.42-3.04-4.63-2.61-26.08-14.65" class="cls-1"/><path d="M264.95 187.69c1 .89 1.61 2.07 1.61 3.38 0 .76-.21 1.49-.59 2.14-1 1.7-3.13 2.88-5.61 2.88s-4.48-1.1-5.51-2.72c-.44-.69-.69-1.48-.69-2.31 0-1.37.68-2.6 1.77-3.51 1.13-.93 2.7-1.51 4.43-1.51 1.82 0 3.45.63 4.59 1.64ZM54.23 191.07c0 2.78-2.25 5.02-5.02 5.02s-5.02-2.25-5.02-5.02 2.25-5.02 5.02-5.02 5.02 2.25 5.02 5.02ZM3.86 167.88h11.3v5.02H3.86zM45.66 167.88h11.3v5.02h-11.3zM87.46 167.88h11.3v5.02h-11.3zM129.26 167.88h11.3v5.02h-11.3zM171.06 167.88h11.3v5.02h-11.3zM212.86 167.88h11.3v5.02h-11.3zM254.65 167.88h11.3v5.02h-11.3z" class="cls-1"/></g><g id="_レイヤー_2" data-name="レイヤー 2"><path d="M235.16 118.27s12.53 13.58 20.14 18.49c-8.06 8.35-43.26 12.39-52.07 13.28-6.71.68-13.68-1.24-18.4-2.91 4.1.29 10.49-2.16 15.86-4.77 1.29-.62 2.52-1.26 3.66-1.87 0-.67-8.73-15.22-8.73-15.22l4.51-3.62s10.68 3.73 35.03-3.39Z" class="cls-6"/><path d="M225.75 99.17c.9.15 7.32 10.59 9.4 19.1-24.35 7.12-35.03 3.39-35.03 3.39l16.52-13.24-4.79-4.01s9.55-3.44 13.88-5.23Z" class="cls-6"/><path d="m216.66 108.42-16.52 13.24-4.51 3.62c-5.15-11.87-16.79-13.88-25.51-16.12V102h2.45l21.71-12.38 17.59 14.78 4.79 4.01Z" class="cls-6"/><path d="M204.35 140.5c-1.13.6-2.37 1.24-3.66 1.87-3.39-4.33-9.66-7.8-21.41-7.47-11.75.34-21.37 5.6-21.37 5.6s-2.31 4.02-.04 7.61l-11.49 6.27s-4.93-2.09-6.71-2.54c-.39-.1-2.13-.19-4.68-.31.02-4.86-9.41-7-13-8.29-1.56-.57-4.12-1.37-7.37-2.47l1.94-1.6c.36.25.96.41 1.86.45 2.46.11 22.14-2.69 22.14-2.69s-5.47-6.15-6.81-7.72c-.46-.52-.86-.82-1.28-.96l.04-.12c-1.98-1.97-30-15.72-31.1-16.25 1.1-5.18 4.25-7.99 6.21-9.86 0 0 1.92-2.48 5.21-5.81 2.38 1.15 4.51 2.29 6.46 3.39 7.89 4.46 12.81 8.23 20.17 8.93 9.17.88 30.66.65 30.66.65 8.72 2.24 20.36 4.25 25.51 16.12 0 0 8.73 14.54 8.73 15.22Z" class="cls-5"/><path d="m194.28 89.63-21.71 12.38h-2.45V75.76l11.48-3.44s8.95 11.94 12.68 17.31Z" class="cls-6"/><path d="M200.69 142.37c-5.37 2.6-11.76 5.06-15.86 4.76-1.47-.52-2.73-1.02-3.68-1.4-4.02-1.65-5.67-1.8-12.98-.9 0 0-3.77-1.53-10.26-4.32 0 0 9.62-5.26 21.37-5.6 11.75-.33 18.02 3.14 21.41 7.47Z" class="cls-7"/><path d="m79.25 103.26-8.7 1.81c-1.54-1.99-3.87-4.19-7.89-7.54 0-6.56 2.31-14.19 5.62-21.74 3.05-6.96 6.95-13.83 10.65-19.7 4.75-7.54 9.18-13.41 11.06-15.63.88.07 1.77.19 2.68.37 0 5.56.46 13.61 4.81 17.86 4.37 4.25 11.96 10.25 25.5-5.64l-.03-.24c1.11-.15 2.23-.37 3.3-.68 6.18-.2 17.9.62 21.47 4.06 3.58 3.43 15.23 15.37 18.8 17.45 1.94 1.49 3.58 2.09 3.58 2.09v33.41s-21.49.23-30.66-.65c-7.36-.7-12.28-4.47-20.17-8.93-1.95-1.1-4.08-2.24-6.46-3.39-3.29 3.33-5.21 5.81-5.21 5.81-1.95 1.87-5.1 4.68-6.21 9.86-.12.59-.22 1.2-.29 1.84h-.36c-9.84.67-15.25-4.54-21.51-10.44Z" class="cls-5"/><path d="M157.91 140.5c6.49 2.8 10.26 4.32 10.26 4.32-1.64 2.84-10.29 3.29-10.29 3.29-2.28-3.58.04-7.61.04-7.61Z" class="cls-7"/><path d="M140.69 1.13c3.18-2.13 7.06 1.59 4.49 4.16-2.58 2.57-6.51 5.4-6.51 5.4 3.47 6.49 3.87 10.77 3.36 15.33-5.03-1.57-12.42-5.93-12.42-5.93-3.8 4.25-9.51 9.4-11.86 10.85 1.06-1.93 1.07-3.77-.59-5.04-1.04-.79-4.95.39-5.62 3.53-.67 3.13 2.12 3.86 2.43 3.86-5.28 2.05-10.53 3.82-12.5 4.01-.18.02-.32.03-.45.02-1.52-.11-.98-.94-.98-.94 1.06-1.63 2.37-3.56 3.84-5.63 6.64-9.38 16.58-21.68 22.32-21.86 0 0-.76-.97-4.65-.56-3.58.38-14.62 14.16-17.38 20.54-.32.72-.59 1.2-.82 1.51-.79.97-1.15.05-.85-.78 3.29-8.05 13.76-22.42 24.99-26.41 5.03-1.01 6.09 2.8 6.09 2.8 5.04-3.58 5.5-3.79 7.12-4.86Z" class="cls-5"/><path d="M119.59 53.07s-.89 1.04-5.32 2.67c-4.42 1.62-10.12.78-12.92-2.91-2.18-2.89-2.7-8.46-2.74-11.99 1.33-.86 2.86-3.52 2.86-3.52 1.97-.19 7.22-1.96 12.5-4.01-.31 0-3.1-.73-2.43-3.86.67-3.14 4.58-4.32 5.62-3.53 1.66 1.27 1.65 3.11.59 5.04 2.35-1.46 8.06-6.6 11.86-10.85 0 0 7.39 4.36 12.42 5.93-1.01 7.5-5.82 18.69-10.62 23.33-1.37 1.32-3.18 2.22-5.15 2.79-1.07.32-2.18.53-3.3.68-1.14.15-2.28.22-3.37.24Z" style="fill:#f8ddb0;stroke-width:0"/><path d="M116.22 138.78c-.18-.4 0-.92.5-1.45 1.02-1.12 11.09-8.14 12.88-8.69 1.19-.38 2.04-.69 2.87-.4.42.14.82.44 1.28.96 1.34 1.57 6.81 7.72 6.81 7.72s-19.68 2.8-22.14 2.69c-.89-.04-1.5-.2-1.86-.45a.977.977 0 0 1-.33-.38Z" class="cls-7"/><path d="M121.99 143.23c3.58 1.29 13.02 3.44 13 8.29-9.29-.39-29.22-.83-32.62-1.18-1.13-.11-2.25-.21-3.3-.29l-4.03-13.84c2.02-.55 3.51-1.01 4.13-1.31 5.92 2.53 11.26 4.44 15.45 5.86 3.25 1.1 5.81 1.9 7.37 2.47Z" class="cls-6"/><path d="m132.51 128.11-.04.12c-.82-.29-1.67.03-2.87.4-1.79.55-11.86 7.57-12.88 8.69-.49.53-.68 1.04-.5 1.45-.37-.17-9.24-4.13-10.12-5.44-4.37-8.7-5.47-15-4.98-19.63.07-.64.17-1.25.29-1.84 1.1.53 29.12 14.28 31.1 16.25ZM122.96 52.83l.03.24c-13.54 15.88-21.13 9.89-25.5 5.64-4.36-4.25-4.81-12.31-4.81-17.86 1.8-1.24 4.33-3.44 5.97-2.39-.04.57-.05 1.4-.04 2.39.04 3.53.56 9.1 2.74 11.99 2.8 3.69 8.5 4.53 12.92 2.91 4.43-1.63 5.32-2.67 5.32-2.67 1.09-.02 2.23-.09 3.37-.24Z" class="cls-5"/><path d="m70.55 105.07 8.7-1.81c6.26 5.9 11.67 11.11 21.51 10.44h.36c-.49 4.64.6 10.93 4.98 19.63.89 1.31 9.76 5.28 10.12 5.44.07.14.18.26.33.38l-1.94 1.6c-4.19-1.42-9.54-3.33-15.45-5.86-.61.31-2.11.76-4.13 1.31-1.63.45-3.61.96-5.72 1.47-2.61.64-5.43 1.31-8.09 1.92-6.03 1.39-11.23 2.53-11.23 2.53s-2.83.6-5.97 1.04c-1.92-4.8-4.01-27.14-3.99-45.66h2.62c4.01 3.36 6.35 5.56 7.89 7.55Z" class="cls-5"/><path d="m95.04 136.21 4.03 13.84c-2.98-.23-5.35-.31-5.35-.31l-4.41-12.06c2.11-.52 4.09-1.03 5.72-1.47Z" class="cls-6"/><path d="m89.32 137.68 4.41 12.06s-4.63 8.95-6.86 13.28c-3.14-1.34-5.37-6.12-7.76-13.73.53-1.72 2.12-9.69 2.12-9.69 2.66-.61 5.48-1.28 8.09-1.92Z" class="cls-6"/><path d="M76.75 42.61c3.55-1.48 8.04-2.59 13.24-2.14-1.88 2.22-6.31 8.09-11.06 15.63-1.92-2.13-2.18-13.49-2.18-13.49Z" class="cls-5"/><path d="M81.23 139.6s-1.6 7.98-2.12 9.69c-1.8 3.13-14.93 7.31-21.09 6.86 0 0 7.21-7.91 11.98-14.02 0 0 5.2-1.14 11.23-2.53Z" class="cls-6"/><path d="M76.75 42.61s.26 11.36 2.18 13.49c-3.7 5.86-7.6 12.74-10.65 19.7l-.45-.19L57.49 62.7c6.37-8.58 12.17-16.29 15.05-17.98 1.2-.7 2.61-1.44 4.21-2.1Z" class="cls-5"/><path d="m67.83 75.6.45.19c-3.31 7.55-5.63 15.18-5.62 21.74h-2.62c0-3.05.05-5.97.18-8.7L47.76 75.6c3.18-4.08 6.53-8.61 9.72-12.91L67.82 75.6Z" class="cls-5"/><path d="m19.79 134.86.28.57c-2.8-.49-3-2.31-2.44-3.88.75-2.09 5.22-22.98 5.08-27.75-.16-4.78-1.05-12.53.89-18.8.93-3.02 4.31-5.41 8.66-7.03 1.71-.64 3.58-1.16 5.5-1.54 3.32-.68 6.82-.97 10.01-.82l12.46 13.23c-15.22 2.26-30.2 13.62-35.13 18.55l13.2 15.22s-11.34 8.9-18.5 12.27Z" class="cls-5"/><path d="M60.22 88.83c-.13 2.73-.18 5.65-.18 8.69-.03 18.52 2.07 40.85 3.99 45.66-1.34-2.98-6.57-5.52-16.11-11.48-1.04-.65-6.04-3.96-9.62-9.11l-13.2-15.22c4.93-4.93 19.91-16.29 35.13-18.55Z" class="cls-6"/><path d="M38.29 122.59c3.58 5.15 8.58 8.46 9.62 9.11 0 0-17.9 2.98-24.17 3.73-1.55.18-2.76.17-3.68 0l-.28-.57c7.16-3.37 18.5-12.27 18.5-12.27Z" class="cls-7"/><path d="M37.76 76.42c-1.92.39-3.79.91-5.5 1.55 0 0-5.98-14.3-7.17-16.92s3.28-4.55 4.78-1.27c1.49 3.29 7.89 16.64 7.89 16.64Z" style="fill:#e7c5a2;stroke-width:0"/><path d="M126.25 52.15c6.18-.2 17.9.62 21.47 4.06 3.58 3.43 15.23 15.37 18.8 17.45 1.94 1.49 3.58 2.09 3.58 2.09l11.48-3.44s8.95 11.94 12.68 17.31l17.59 14.78 4.79 4.01-16.52 13.24-4.51 3.62c-5.15-11.87-16.79-13.88-25.51-16.12V75.74" class="cls-2"/><path d="M211.88 104.39s9.55-3.44 13.88-5.22c.9.15 7.32 10.59 9.4 19.1 0 0 12.53 13.58 20.14 18.49-8.06 8.35-43.26 12.39-52.07 13.28-6.71.68-13.68-1.24-18.4-2.91-1.47-.53-2.73-1.03-3.68-1.41-4.02-1.65-5.67-1.8-12.98-.9-1.64 2.84-10.29 3.29-10.29 3.29l-11.49 6.27s-4.93-2.09-6.71-2.54c-.39-.1-2.13-.19-4.68-.31-9.29-.39-29.22-.83-32.62-1.18-1.13-.11-2.25-.21-3.3-.29-2.98-.23-5.35-.31-5.35-.31s-4.63 8.95-6.86 13.28c-3.14-1.34-5.37-6.12-7.76-13.73-1.8 3.13-14.93 7.31-21.09 6.86 0 0 7.21-7.91 11.98-14.02 0 0-2.83.6-5.97 1.04-1.34-2.98-6.57-5.52-16.11-11.48 0 0-17.9 2.98-24.17 3.73-1.55.18-2.76.17-3.68 0-2.8-.49-3-2.31-2.44-3.88.75-2.09 5.22-22.98 5.08-27.75-.16-4.78-1.05-12.53.89-18.8.93-3.02 4.31-5.41 8.66-7.03 1.71-.64 3.58-1.16 5.5-1.54 3.32-.68 6.82-.97 10.01-.82 3.18-4.08 6.53-8.61 9.72-12.91 6.37-8.58 12.17-16.29 15.05-17.98 1.2-.7 2.61-1.44 4.21-2.1 3.55-1.48 8.04-2.59 13.24-2.14.88.07 1.77.19 2.68.37 1.8-1.24 4.33-3.44 5.97-2.39-.04.57-.05 1.4-.04 2.39.04 3.53.56 9.1 2.74 11.99 2.8 3.69 8.5 4.53 12.92 2.91 4.43-1.63 5.32-2.67 5.32-2.67" class="cls-2"/><path d="M195.62 125.28s8.73 14.54 8.73 15.22c-1.13.6-2.37 1.24-3.66 1.87-5.37 2.6-11.76 5.06-15.86 4.76M70 142.14s5.2-1.14 11.23-2.53c2.66-.61 5.48-1.28 8.09-1.92 2.11-.52 4.09-1.03 5.72-1.47 2.02-.55 3.51-1.01 4.13-1.31 5.92 2.53 11.26 4.44 15.45 5.86 3.25 1.1 5.81 1.9 7.37 2.47 3.58 1.29 13.02 3.44 13 8.29M19.72 134.9s.04-.02.07-.04c7.16-3.37 18.5-12.27 18.5-12.27 3.58 5.15 8.58 8.46 9.62 9.11M38.29 122.59l-13.2-15.22c4.93-4.93 19.91-16.29 35.13-18.55-.13 2.73-.18 5.65-.18 8.69-.03 18.52 2.07 40.85 3.99 45.66" class="cls-2"/><path d="m47.77 75.6 12.45 13.23M57.49 62.69 67.83 75.6M76.75 42.61s.26 11.36 2.18 13.49" class="cls-3"/><path d="M89.99 40.47c-1.88 2.22-6.31 8.09-11.06 15.63-3.7 5.86-7.6 12.74-10.65 19.7-3.31 7.55-5.63 15.18-5.62 21.74 4.01 3.35 6.35 5.55 7.89 7.54 1.66 2.12 2.41 4.01 3.33 6.78 1.79 5.36 3.38 16.63 17.45 11.63" class="cls-3"/><path d="M92.9 61.05c-12.31 23.72-18.35 38.1-13.65 42.21l-8.7 1.81M79.25 103.26c6.26 5.9 11.67 11.11 21.51 10.44M92.67 40.84c0 5.56.46 13.61 4.81 17.86 4.37 4.25 11.96 10.25 25.5-5.64M126.92 56.1c-8.28 13.68-15.89 26.04-17.46 32.73-1.56 6.69-1.84 13.17-1.84 13.17-1.95 1.87-5.1 4.68-6.21 9.86-.12.59-.22 1.2-.29 1.84-.49 4.64.6 10.93 4.98 19.63.89 1.31 9.76 5.28 10.12 5.44h0" class="cls-3"/><path d="m126.92 69.14 8.07-11.68c2.22 4.71 6.47 10.07 6.47 10.07-14.32 6.94-23.72 21.29-23.72 21.29M107.62 102s1.92-2.48 5.21-5.81c5.16-5.22 13.69-12.53 23.52-15.67" class="cls-3"/><path d="M112.82 96.19c2.38 1.15 4.51 2.29 6.46 3.39 7.89 4.46 12.81 8.23 20.17 8.93 9.17.88 30.66.65 30.66.65" class="cls-3"/><path d="M119.28 99.58c8.3-1.83 38.51-7.37 42.55-10.75M101.38 111.85l.04.02c1.1.53 29.12 14.28 31.1 16.25" class="cls-3"/><path d="M116.22 138.78c-.18-.4 0-.92.5-1.45 1.02-1.12 11.09-8.14 12.88-8.69 1.19-.38 2.04-.69 2.87-.4.42.14.82.44 1.28.96 1.34 1.57 6.81 7.72 6.81 7.72s-19.68 2.8-22.14 2.69c-.89-.04-1.5-.2-1.86-.45a.977.977 0 0 1-.33-.38ZM200.69 142.37c-3.39-4.33-9.66-7.8-21.41-7.47-11.75.34-21.37 5.6-21.37 5.6 6.49 2.8 10.26 4.32 10.26 4.32M157.91 140.5s-2.31 4.02-.04 7.61M200.13 121.66s10.68 3.73 35.03-3.39M172.57 102l21.71-12.37M81.23 139.6s-1.6 7.98-2.12 9.69M95.04 136.21l4.03 13.84M89.32 137.68l4.4 12.07M142.02 26.03c.52-4.56.11-8.84-3.36-15.33 0 0 3.94-2.83 6.51-5.4 2.57-2.58-1.31-6.29-4.49-4.16-1.61 1.08-2.08 1.29-7.12 4.86 0 0-1.06-3.8-6.09-2.8-11.23 3.99-21.7 18.36-24.99 26.41-.3.83.06 1.75.85.78.24-.31.51-.79.82-1.51 2.76-6.38 13.8-20.16 17.38-20.54 3.88-.41 4.65.56 4.65.56-5.73.18-15.68 12.48-22.32 21.86-1.47 2.07-2.78 4-3.84 5.63 0 0-.53.82.98.94.12 0 .27 0 .45-.02 1.97-.19 7.22-1.96 12.5-4.01-.31 0-3.1-.73-2.43-3.86.67-3.14 4.58-4.32 5.62-3.53 1.66 1.27 1.65 3.11.59 5.04 2.35-1.46 8.06-6.6 11.86-10.85 0 0 7.39 4.36 12.42 5.93-1.01 7.5-5.82 18.69-10.62 23.33-1.37 1.32-3.18 2.22-5.15 2.79-1.07.32-2.18.53-3.3.68-1.14.15-2.28.22-3.37.24-2.76.03-5.2-.31-6.55-.69" class="cls-2"/><path d="M101.46 37.32s-1.53 2.66-2.86 3.52M132.74 35.43c-.79 3.24-3.25 9.06-4.25 9.28-1.01.23-2.69-1.12-2.69-1.46M126.92 40.47s-2.02 1.49-2.46 2.14M122.16 46.62c.26.66 1.24 1.31 2.91 1.96M125.8 32.33l3.47 1.27M135.12 36.51l2.02 1.66M127.53 27.26s3.34.96 3.64 1.41M137.14 30.99s2.02.45 2.61 1.34M32.26 77.97s-5.98-14.3-7.17-16.92 3.28-4.55 4.78-1.27c1.49 3.29 7.89 16.64 7.89 16.64" class="cls-2"/></g></svg>