<svg xmlns="http://www.w3.org/2000/svg" viewBox="0 0 270.35 197.59"><defs><style>.cls-1{stroke-miterlimit:10}.cls-1,.cls-3{fill:none;stroke:#000}.cls-10,.cls-11,.cls-5,.cls-6,.cls-7{stroke-width:0}.cls-5{fill:#f3edd7}.cls-3{stroke-linecap:round;stroke-linejoin:round}.cls-6{fill:#333}.cls-7{fill:#fdf4cb}.cls-10{fill:#fee678}.cls-11{fill:#f56741}</style></defs><g id="_レイヤー_3" data-name="レイヤー 3"><path d="M.24 162.95h3.62v5.03H.24zM270.1 190.53v6.56h-30.45l15.35-8.63c1.03 1.61 3.11 2.72 5.51 2.72s4.62-1.18 5.62-2.88l3.97 2.23Z" class="cls-5"/><path d="M270.1 179.97v10.56l-3.97-2.23c.38-.65.59-1.38.59-2.14 0-1.3-.62-2.48-1.61-3.38l4.99-2.8ZM270.1 167.98v11.99l-4.99 2.8c-1.14-1.01-2.77-1.64-4.59-1.64s-3.31.58-4.44 1.51l-26.09-14.66h40.11ZM270.1 82.96v5.77H.24v-5.77H270.1zM266.11 162.95h3.99v5.03h-3.99z" class="cls-5"/><path d="M266.72 186.15c0 .76-.21 1.49-.59 2.14l-5.42-3.05 4.39-2.47c1 .89 1.61 2.08 1.61 3.38ZM260.72 185.25l5.42 3.05c-1 1.7-3.13 2.88-5.62 2.88s-4.48-1.1-5.51-2.72l5.71-3.21Z" class="cls-5"/><path d="M254.8 162.95h11.3v5.03h-11.3z" class="cls-6"/><path d="m265.11 182.78-4.39 2.47-4.64-2.6c1.13-.93 2.7-1.51 4.44-1.51 1.82 0 3.46.63 4.59 1.64Z" class="cls-5"/><path d="m260.72 185.25-5.71 3.21c-.44-.69-.69-1.48-.69-2.31 0-1.37.68-2.6 1.77-3.51l4.64 2.6Z" class="cls-5"/><path d="m229.99 167.98 26.09 14.66c-1.09.9-1.77 2.14-1.77 3.51 0 .83.25 1.62.69 2.31l-15.35 8.63h-41.48l-15.65-8.8c.38-.65.59-1.38.59-2.14 0-1.3-.62-2.48-1.61-3.37l26.33-14.8h22.15Zm-5.96 18.17c0-2.77-2.25-5.02-5.02-5.02s-5.03 2.25-5.03 5.02 2.25 5.03 5.03 5.03 5.02-2.25 5.02-5.03Z" class="cls-5"/><path d="M254.8 167.98H224.29v-5.03h30.51v5.03z" class="cls-5"/><path d="M212.98 162.95h11.3v5.03h-11.3zM219.01 181.13c2.77 0 5.02 2.25 5.02 5.02s-2.25 5.03-5.02 5.03-5.03-2.25-5.03-5.03 2.25-5.02 5.03-5.02Z" class="cls-6"/><path d="m207.84 167.98-26.33 14.8c-1.14-1.02-2.77-1.65-4.59-1.65s-3.31.58-4.44 1.51l-26.09-14.66h61.45ZM182.46 167.98v-5.03h30.52v5.03h-30.52zM198.18 197.09h-42.13l15.35-8.63c1.03 1.61 3.12 2.72 5.51 2.72s4.62-1.18 5.62-2.88l15.65 8.8Z" class="cls-5"/><path d="M183.12 186.15c0 .76-.21 1.49-.59 2.14l-5.42-3.05 4.39-2.47c1 .89 1.61 2.07 1.61 3.37ZM177.11 185.25l5.42 3.05c-1 1.7-3.13 2.88-5.62 2.88s-4.48-1.1-5.51-2.72l5.71-3.21Z" class="cls-5"/><path d="M171.16 162.95h11.3v5.03h-11.3z" class="cls-6"/><path d="M176.91 181.13c1.82 0 3.46.63 4.59 1.65l-4.39 2.47-4.64-2.6c1.13-.93 2.7-1.51 4.44-1.51Z" class="cls-5"/><path d="m177.11 185.25-5.71 3.21c-.44-.69-.69-1.48-.69-2.31 0-1.37.68-2.6 1.77-3.51l4.64 2.6Z" class="cls-5"/><path d="m146.39 167.98 26.09 14.66c-1.09.9-1.77 2.14-1.77 3.51 0 .83.25 1.62.69 2.31l-15.35 8.63h-41.48l-15.65-8.8c.38-.65.59-1.38.59-2.14 0-1.3-.62-2.48-1.61-3.37l26.33-14.8h22.15Zm-7.02 18.17c0-2.77-2.25-5.02-5.02-5.02s-5.03 2.25-5.03 5.02 2.25 5.03 5.03 5.03 5.02-2.25 5.02-5.03Z" class="cls-5"/><path d="M171.16 167.98h-30.52v-5.03h30.52v5.03z" class="cls-5"/><path d="M129.33 162.95h11.3v5.03h-11.3zM134.35 181.13c2.77 0 5.02 2.25 5.02 5.02s-2.25 5.03-5.02 5.03-5.03-2.25-5.03-5.03 2.25-5.02 5.03-5.02Z" class="cls-6"/><path d="m124.24 167.98-26.33 14.8c-1.14-1.02-2.77-1.65-4.59-1.65s-3.31.58-4.44 1.51l-26.09-14.66h61.45ZM129.33 167.98H98.82v-5.03h30.51v5.03zM114.57 197.09H72.44l15.35-8.63c1.03 1.61 3.11 2.72 5.51 2.72s4.62-1.18 5.62-2.88l15.65 8.8Z" class="cls-5"/><path d="M99.52 186.15c0 .76-.21 1.49-.59 2.14l-5.42-3.05 4.39-2.47c1 .89 1.61 2.07 1.61 3.37ZM93.51 185.25l5.42 3.05c-1 1.7-3.13 2.88-5.62 2.88s-4.48-1.1-5.51-2.72l5.71-3.21Z" class="cls-5"/><path d="M87.51 162.95h11.3v5.03h-11.3z" class="cls-6"/><path d="M93.31 181.13c1.82 0 3.46.63 4.59 1.65l-4.39 2.47-4.64-2.6c1.13-.93 2.7-1.51 4.44-1.51Z" class="cls-5"/><path d="m93.51 185.25-5.71 3.21c-.44-.69-.69-1.48-.69-2.31 0-1.37.68-2.6 1.77-3.51l4.64 2.6Z" class="cls-5"/><path d="m62.78 167.98 26.09 14.66c-1.09.9-1.77 2.14-1.77 3.51 0 .83.25 1.62.69 2.31l-15.35 8.63H30.78l-15.65-8.8c.38-.65.59-1.38.59-2.14 0-1.3-.62-2.48-1.61-3.37l26.33-14.8h22.34Zm-8.53 18.17c0-2.77-2.25-5.02-5.02-5.02s-5.03 2.25-5.03 5.02 2.25 5.03 5.03 5.03 5.02-2.25 5.02-5.03Z" class="cls-5"/><path d="M87.51 167.98H56.99v-5.03h30.52v5.03z" class="cls-5"/><path d="M45.69 162.95h11.3v5.03h-11.3zM49.24 181.13c2.77 0 5.02 2.25 5.02 5.02s-2.25 5.03-5.02 5.03-5.03-2.25-5.03-5.03 2.25-5.02 5.03-5.02Z" class="cls-6"/><path d="M45.69 167.98H15.17v-5.03h30.52v5.03zM30.78 197.09H.24v-6.52L4 188.46c1.03 1.61 3.12 2.72 5.51 2.72s4.62-1.18 5.62-2.88l15.65 8.8ZM15.73 186.15c0 .76-.21 1.49-.59 2.14l-5.42-3.05 4.39-2.47c1 .89 1.61 2.07 1.61 3.37Z" class="cls-5"/><path d="M3.87 162.95h11.3v5.03H3.87z" class="cls-6"/><path d="m9.72 185.25 5.42 3.05c-1 1.7-3.13 2.88-5.62 2.88s-4.48-1.1-5.51-2.72l5.71-3.21ZM9.52 181.13c1.82 0 3.46.63 4.59 1.65l-4.39 2.47-4.64-2.6c1.13-.93 2.7-1.51 4.44-1.51Z" class="cls-5"/><path d="m9.72 185.25-5.71 3.21c-.44-.69-.69-1.48-.69-2.31 0-1.37.68-2.6 1.77-3.51l4.64 2.6Z" class="cls-5"/><path d="m.24 179.93 4.84 2.72c-1.09.9-1.77 2.14-1.77 3.51 0 .83.25 1.62.69 2.31l-3.76 2.11v-10.64Z" class="cls-5"/><path d="M212.98 162.95H.24V88.73H270.1v74.22H212.98z" style="fill:#d2d296;stroke-width:0"/><path d="M.24 167.98h40.2l-26.33 14.8c-1.14-1.02-2.77-1.65-4.59-1.65s-3.31.58-4.44 1.51l-4.84-2.72v-11.95Z" class="cls-5"/><path d="M270.1 197.09H.24M.24 82.96H270.1M.24 88.73H270.1M266.11 162.95h3.99M224.29 162.95h30.51M182.46 162.95h30.52M140.64 162.95h30.52M98.82 162.95h30.51M56.99 162.95h30.52M15.17 162.95h30.52M.24 162.95h3.63M266.11 167.98h3.99M224.29 167.98H254.8M182.46 167.98h30.52M140.64 167.98h30.52M98.82 167.98h30.51M56.99 167.98h30.52M15.17 167.98h30.52M.24 167.98h3.63M72.45 197.09l15.35-8.63 5.71-3.21 4.39-2.47 26.34-14.8" class="cls-1"/><path d="m114.57 197.09-15.64-8.79-5.42-3.05-4.64-2.6-26.09-14.67M139.37 186.15c0 2.78-2.25 5.03-5.02 5.03s-5.03-2.25-5.03-5.03 2.25-5.02 5.03-5.02 5.02 2.25 5.02 5.02ZM224.02 186.15c0 2.78-2.25 5.03-5.02 5.03s-5.03-2.25-5.03-5.03 2.25-5.02 5.03-5.02 5.02 2.25 5.02 5.02Z" class="cls-1"/><path d="M97.9 182.78c1 .89 1.61 2.07 1.61 3.37 0 .76-.21 1.49-.59 2.14-1 1.7-3.13 2.88-5.62 2.88s-4.48-1.1-5.51-2.72c-.44-.69-.69-1.48-.69-2.31 0-1.37.68-2.6 1.77-3.51 1.13-.93 2.7-1.51 4.44-1.51 1.82 0 3.46.63 4.59 1.65ZM.24 190.57 4 188.46l5.72-3.21 4.39-2.47 26.33-14.8" class="cls-1"/><path d="m30.78 197.09-15.64-8.79-5.42-3.05-4.64-2.6-4.84-2.72" class="cls-1"/><path d="M14.11 182.78c1 .89 1.61 2.07 1.61 3.37 0 .76-.21 1.49-.59 2.14-1 1.7-3.13 2.88-5.62 2.88s-4.48-1.1-5.51-2.72c-.44-.69-.69-1.48-.69-2.31 0-1.37.68-2.6 1.77-3.51 1.13-.93 2.7-1.51 4.44-1.51 1.82 0 3.46.63 4.59 1.65ZM156.05 197.09l15.35-8.63 5.71-3.21 4.4-2.47 26.33-14.8" class="cls-1"/><path d="m198.18 197.09-15.65-8.79-5.42-3.05-4.63-2.6-26.09-14.67" class="cls-1"/><path d="M181.51 182.78c1 .89 1.61 2.07 1.61 3.37 0 .76-.21 1.49-.59 2.14-1 1.7-3.13 2.88-5.62 2.88s-4.48-1.1-5.51-2.72c-.44-.69-.69-1.48-.69-2.31 0-1.37.68-2.6 1.77-3.51 1.13-.93 2.7-1.51 4.44-1.51 1.82 0 3.46.63 4.59 1.65ZM239.65 197.09l15.35-8.63 5.72-3.21 4.39-2.47 4.99-2.81" class="cls-1"/><path d="m270.1 190.53-3.97-2.23-5.41-3.05-4.64-2.6-26.09-14.67" class="cls-1"/><path d="M265.11 182.78c1 .89 1.61 2.08 1.61 3.38 0 .76-.21 1.49-.59 2.14-1 1.7-3.13 2.88-5.62 2.88s-4.48-1.1-5.51-2.72c-.44-.69-.69-1.48-.69-2.31 0-1.37.68-2.6 1.77-3.51 1.13-.93 2.7-1.51 4.44-1.51 1.82 0 3.46.63 4.59 1.64ZM54.26 186.15c0 2.78-2.25 5.03-5.02 5.03s-5.03-2.25-5.03-5.03 2.25-5.02 5.03-5.02 5.02 2.25 5.02 5.02ZM3.87 162.95h11.3v5.03H3.87zM45.69 162.95h11.3v5.03h-11.3zM87.51 162.95h11.3v5.03h-11.3zM129.33 162.95h11.3v5.03h-11.3zM171.16 162.95h11.3v5.03h-11.3zM212.98 162.95h11.3v5.03h-11.3zM254.8 162.95h11.3v5.03h-11.3z" class="cls-1"/></g><g id="_レイヤー_2" data-name="レイヤー 2"><path d="M114.74 56.8c17.86-7.38 31.21-.19 39.8 7.19l-1.92 2.3-.06-.05c-4.61-3.33-20.23-9.2-29.54-6.84-9.31 2.37-16.22 6.66-20.95 11.13-2.27-.39-4.59-.74-6.94-1.07 0 0 3.99-3.11 7.09-5.47 4.38-3.21 8.56-5.56 12.51-7.19Z" class="cls-10"/><path d="M92.58 69.34c3.06-3.62 10.46-8.56 18.11-13.54l4.05 1c-3.95 1.63-8.13 3.98-12.51 7.19-3.11 2.36-7.09 5.47-7.09 5.47l-1.02.9c-.52-.34-1.03-.68-1.54-1.02Z" class="cls-11"/><path d="M263.16 41.09c.95 3.02 1.22 6.56.6 9.71 0 0-13.3-1.14-23.94-3.2-6.03-1.18-19.51-6.95-28.13-11.09-2.14-2.05-4.36-3.98-6.37-5.64l.47-.56 4.51.46 3.03.31c.31.03 7.02.63 15.06 3.76 4.65 7 25.6 10.32 34.75 6.26Z" class="cls-10"/><path d="M263.16 41.09c-9.14 4.06-30.09.74-34.75-6.26 0 0 19.4-.39 30.62 0 1.84 1.18 3.26 3.5 4.13 6.26Z" class="cls-11"/><path d="M263.76 50.8c-.45 1.84-.91 3.51-1.39 5.01-18.66-.79-34.35-7.32-44.02-12.14-1.91-2.43-4.25-4.87-6.65-7.16 8.62 4.14 22.1 9.91 28.13 11.09 10.64 2.07 23.94 3.2 23.94 3.2Z" class="cls-10"/><path d="M262.37 55.8c-.37 1.2-.76 2.3-1.15 3.31-13.06.89-31.15-5.02-39.05-9.26-.79-1.97-2.14-4.07-3.81-6.19 9.67 4.82 25.36 11.35 44.02 12.14Z" class="cls-10"/><path d="M222.16 49.86c7.9 4.24 26 10.14 39.05 9.26-3.2 8.19-6.99 10.7-11.5 14.04-2.35 1.75-6.89 3.21-12 4.36-3 .67-6.19 1.24-9.27 1.69l-.04-.29c-1.33-1-3.77-18.92-5.65-27.23-.13-.59-.33-1.21-.59-1.83Z" class="cls-11"/><path d="M233.59 109.25v.03c-.18.63-.38 1.26-.59 1.88-2.64 7.7-6.95 13.84-14.28 16.84l-.17.1c-.17-.31-.35-.63-.53-.96-.17-.32-.35-.65-.52-.98 0 0 6.08-4.07 8.15-18.26 2.07-14.19-5.32-27.34-5.32-27.34l-.03-.31c2.44-.24 5.25-.58 8.17-1.02 3.08-.45 6.28-1.02 9.27-1.69-.69 10.84-1.3 22.3-4.13 31.73Z" class="cls-11"/><path d="M205.12 111.54c3.99 1.28 6.51 3.96 8.45 7.09.86 1.38 1.6 2.85 2.31 4.32 0 0-11.23-1.62-18.29-1.48-7.06.15-20.28 3.11-28.45 3.4-8.16.3-15.33-2.7-30.62-8.35l.16 2.28-1.4.1c-.74-.33-2.62-2.05-4.95-4.34-1.06-1.04-2.21-2.2-3.39-3.39-1.1-1.14-2.23-2.31-3.33-3.46-5.22 3.49-10.6 5.99-16.3 6.47-.11-.91-.23-1.82-.33-2.71-.12-1.08-.23-2.13-.33-3.13-.23-2.41-.4-4.57-.43-6.23-.02-.89 0-1.65.07-2.21.18-1.5.77-3.44 1.75-5.33 1.09-2.1 2.67-4.14 4.71-5.48 3.35-2.2 7.95-2.47 13.7 2.09 0 0 5.25-1.62 8.82-6.93-8.31-.82-15.32-2.16-21.38-3.92-9.39-4.38-10.57-8.99-10.63-9.24.6.1 1.2.22 1.79.34 1.64.31 3.26.64 4.86 1.01 10.25 2.27 19.62 5.29 27.85 9.29l7.48-8.97 2.71-3.25 2.67-3.22 1.92-2.3 2.22-1.48 2.18-26.01c1.84-1.26 4.29-3.18 4.29-3.18 2.04 3.15 4.55 6.02 7.82 8.12s.78 13.08.78 13.08l20.79-14.99-10.96-12.49c-.67-.65-1.88-2.01-3.43-3.75a35 35 0 0 1 4.62-.56c1.56-.1 3.26-.1 4.98.03 2.14.16 4.34.51 6.43 1.14 2.21.66 4.31 1.63 6.1 3 1.12.86 2.5 1.94 4.01 3.17.3.25.63.51.95.79 2.01 1.67 4.23 3.59 6.37 5.64 2.41 2.29 4.74 4.73 6.65 7.15 1.68 2.13 3.02 4.23 3.81 6.2.26.63.46 1.24.59 1.83 1.88 8.31 4.32 26.23 5.65 27.23l.04.29c-2.92.44-5.73.78-8.17 1.02-1 .1-1.94.18-2.8.25-.05 3.09-.87 15.8-2.49 17.65 0 0-.2.03-.55.1-1.26.21-4.43.88-6.4 2.27-2.51 1.77-2.93 11.04-2.93 11.04Z" class="cls-11"/><path d="M220.31 80.54s7.39 13.15 5.32 27.34c-2.08 14.19-8.15 18.26-8.15 18.26-.54-1.02-1.08-2.08-1.61-3.19-.71-1.48-1.45-2.94-2.31-4.32l.1-.05s.89-2.16 2.8-7.93c1.93-5.75.63-10.3-2.02-12.42.35-.07.55-.1.55-.1 1.62-1.85 2.44-14.56 2.49-17.65.86-.07 1.8-.16 2.8-.25l.03.31ZM223.54 136.24l.02.02c-18.58 9.98-41.15 10.2-44.92 9.95-.63-.04-1.18-.07-1.66-.08l2.92-6.89-5.84-2.49c7.63-1.33 14.47-3.26 19.23-3.14 7.75.2 26.6-1.12 30.26 2.63Z" class="cls-11"/><path d="M160.26 137.92c-.43 0-.88-.03-1.32-.06-1.49-.1-2.9-.28-4.22-.53a30.03 30.03 0 0 1-5.51-1.54c-3.82-1.46-6.49-3.36-8.08-4.71-1.17-1-1.75-1.69-1.75-1.69l-.29-4.29c5.11 1.89 11.69 7.98 23.24 8.44 11.56.45 24.85-4.05 32.38-3.98 7.41.09 23.07-.34 25.86 2.04l.02.02c1.61 2.67 2.81 4.41 2.95 4.62-3.66-3.75-22.5-2.43-30.26-2.63-4.76-.12-11.6 1.81-19.23 3.14-4.41.76-9.09 1.33-13.79 1.17Z" class="cls-10"/><path d="M218.53 128.08c.72 1.29 1.42 2.48 2.04 3.53-2.79-2.38-18.45-1.95-25.86-2.04-7.53-.08-20.81 4.43-32.38 3.98-11.56-.46-18.14-6.55-23.24-8.44l-.3-4.28c10.19 3.77 17.08 8.31 26.94 8.39 9.86.09 23.12-3.65 30.41-3.68 7.29-.03 20.64.36 21.84 1.61.18.31.36.63.53.95Z" class="cls-10"/><path d="M217.48 126.14c.17.33.35.66.52.98-1.21-1.24-14.55-1.63-21.84-1.6-7.28.03-20.54 3.77-30.41 3.68-9.86-.08-16.75-4.62-26.94-8.39l-.13-2.01-.16-2.28c15.29 5.65 22.46 8.65 30.62 8.35 8.17-.3 21.39-3.26 28.45-3.4 7.06-.15 18.29 1.48 18.29 1.48.53 1.1 1.07 2.17 1.61 3.19Z" class="cls-10"/><path d="M214.44 98.23c2.66 2.13 3.95 6.68 2.02 12.42-1.92 5.77-2.8 7.93-2.8 7.93l-.1.05c-1.94-3.13-4.45-5.81-8.45-7.09 0 0 .42-9.27 2.93-11.04 1.97-1.39 5.14-2.06 6.4-2.27Z" class="cls-11"/><path d="M215.24 12.7c1.68.56 3.38 1.22 5.07 1.97-5.58 12.88-6.9 16.2-6.97 16.4l-3.03-.31 4.94-18.06Z" class="cls-10"/><path d="m215.24 12.7-4.94 18.06-4.51-.46-.47.56c-.32-.28-.64-.54-.95-.78s4.26-19.21 4.26-19.21c2.18.47 4.38 1.08 6.61 1.83Z" class="cls-10"/><path d="m208.63 10.86-4.26 19.21c-1.51-1.23-2.89-2.31-4.01-3.17l1.55-17.13c2.2.23 4.44.59 6.72 1.09ZM201.91 9.76l-1.55 17.14c-1.79-1.36-3.88-2.34-6.1-3V9.36c2.46 0 5.02.11 7.65.4Z" class="cls-10"/><path d="M194.26 9.36V23.9c-2.09-.63-4.29-.98-6.43-1.14l-1.55-12.93c2.49-.29 5.17-.47 7.99-.48Z" class="cls-10"/><path d="M171.06 41.45c-3.27-2.11-5.78-4.98-7.82-8.13-3.5-5.42-5.6-11.67-7.76-16.33-4.32-9.31-6.32-8.65-8.42-9.64-1.48-.69-2.52 1.31-3.3 3.51-2.73-1.62.35-5.81.52-6.11.53-.89 2.71-2.94 3.76-3.46 1.04-.52 6.13-2.49 12.34 2.83 2.51 2.15 6.02 5.87 9.49 9.72 3.06 3.39 6.08 6.87 8.38 9.46 1.55 1.75 2.76 3.1 3.43 3.75l10.96 12.49-20.79 14.99-.78-13.08Z" class="cls-6"/><path d="m186.28 9.84 1.55 12.93c-1.72-.12-3.41-.12-4.98-.03v-.07l-4.65-11.44a71.33 71.33 0 0 1 8.07-1.4Z" class="cls-10"/><path d="M182.85 22.67v.07c-1.71.1-3.28.3-4.61.56-2.3-2.6-5.32-6.08-8.38-9.46 1.68-.73 4.58-1.74 8.35-2.61s4.64 11.45 4.64 11.45Z" class="cls-10"/><path d="m179.89 139.24-2.92 6.89c-2.36-.06-2.93.21-2.93.21l-7.99-4.87-5.13-3.13-.67-.41c4.7.16 9.38-.41 13.79-1.17l5.84 2.49Z" class="cls-11"/><path d="m166.06 141.47 7.99 4.87c-7.54 4.25-21.23 8.47-34.67 5.58s26.61-10.34 26.61-10.34l.07-.11Z" class="cls-11"/><path d="m166.06 141.47-.07.11-26.61 10.33-15.06 5.85-9.98-8.54-3.53-3.01-6.46-5.53c3.03-.27 6.16-.59 9.26-.95l13.42 10.12 33.71-11.23.18-.3 5.13 3.13Z" class="cls-10"/><path d="M163.23 33.33s-2.45 1.92-4.29 3.18c-1.8 1.22-8.91 3.1-12.38 1.41-3.47-1.7-3.92-6.84-3.92-6.84v-.06c.74.23 1.28-.22 2.85-1.41-1.03-.7-2.96-1.37-2.96-1.37l-.55.63-.17-.15.16-3.48s-3.46.37-3.46-.85c0-2.07 2.28-8.42 4.36-10.78.26-.81.55-1.79.88-2.73.78-2.2 1.82-4.2 3.3-3.51 2.1.99 4.1.33 8.42 9.64 2.16 4.66 4.26 10.91 7.76 16.33Z" style="stroke-width:0;fill:#f9d6ac"/><path d="m160.93 138.33-.18.3-33.71 11.23-13.42-10.12c1.93-.22 3.85-.45 5.72-.69l8.42 7.17 26.97-8.86a35.526 35.526 0 0 0 5.54.58l.67.41Z" class="cls-10"/><path d="m154.72 137.33-26.97 8.87-8.42-7.17c1.55-.2 3.06-.4 4.54-.61l4.58 4.26 20.76-6.89c1.63.63 3.46 1.16 5.51 1.54ZM105.26 71.09c-1.05-.2-2.12-.39-3.19-.56 4.73-4.47 11.64-8.76 20.95-11.13 9.31-2.36 24.93 3.52 29.54 6.84l.06.05-2.67 3.22-.05-.04c-5.84-4.25-17.36-7.99-25.01-6.61-8.13 1.47-14.33 5.11-17.83 8.57-.59-.12-1.19-.23-1.79-.34Z" class="cls-10"/><path d="m149.95 69.51-2.71 3.25-.38-.32c-15.44-11.26-30.74-4.6-34.95 0-1.6-.36-3.22-.69-4.86-1.01 3.51-3.46 9.71-7.1 17.83-8.57 7.65-1.38 19.17 2.36 25.01 6.61l.05.04Z" class="cls-10"/><path d="m149.21 135.8-20.76 6.89-4.58-4.26c8.3-1.18 15.14-2.48 17.35-3.5-1.52-1.15-2.52-2.28-3.13-3.13l3.03-.72c1.59 1.35 4.26 3.26 8.08 4.71ZM147.24 72.76l-7.48 8.97c-8.23-4-17.61-7.02-27.85-9.29 4.21-4.6 19.51-11.26 34.95 0l.38.32Z" class="cls-11"/><path d="M142.53 28.23s1.93.67 2.96 1.37c-1.57 1.19-2.11 1.64-2.85 1.41-.12-.04-.26-.1-.4-.18-.78-.43-1.02-1.09-1.02-1.09l.76-.88.55-.63Z" style="fill:#ff764a;stroke-width:0"/><path d="m139.1 125.1.29 4.29s.57.69 1.75 1.69l-3.03.72c-.59-.78-.82-1.3-.82-1.3l-7.88-6.19c2.67-1.75 5.25-3.6 7.88-5.4l1.4-.1.13 2.01.3 4.28Z" class="cls-11"/><path d="m88.98 140.02-3.46-17.22 25 1.3.14-.02c.09.58.17 1.14.25 1.68.56 3.79 1 6.42 1 6.42l25.35-1.69s.23.52.82 1.3c.61.84 1.61 1.98 3.13 3.13-2.21 1.02-9.05 2.32-17.35 3.5a390.708 390.708 0 0 1-10.26 1.3c-3.11.36-6.23.68-9.26.95-5.66.51-10.97.84-15.06.9l-.31-1.55Z" class="cls-7"/><path d="m137.27 130.5-25.35 1.69c6.63-1.37 12.19-4.42 17.47-7.88l7.88 6.19Z" class="cls-11"/><path d="M132.32 114.57c2.33 2.29 4.21 4.01 4.95 4.34-2.63 1.8-5.22 3.66-7.88 5.4-5.28 3.46-10.84 6.51-17.47 7.88s-.43-2.63-1-6.42c8.46-2.53 15.69-6.16 21.4-11.2Z" class="cls-11"/><path d="M79.13 58.85c1.07.89 2.14 1.78 3.2 2.65.83.7 1.67 1.38 2.51 2.06 1.66 1.33 3.33 2.63 5.07 3.9.87.63 1.75 1.27 2.67 1.88.5.35 1.02.69 1.54 1.02.1.07.21.14.32.21 5.94 3.85 12.73 7.23 21.45 9.76 6.07 1.76 13.08 3.11 21.38 3.92-3.57 5.3-8.82 6.93-8.82 6.93-5.75-4.57-10.35-4.29-13.7-2.09-13.69-2.09-50.8-28.51-50.8-28.51l8.87-6.88c1.2.96 2.37 1.91 3.53 2.86.94.77 1.86 1.54 2.78 2.29Z" class="cls-7"/><path d="M128.93 111.17c1.18 1.2 2.33 2.35 3.39 3.39-5.71 5.04-12.95 8.67-21.4 11.2-.08-.54-.16-1.09-.25-1.68-.19-1.29-.39-2.67-.59-4.11h.03c7.06-1.51 13.36-4.57 18.82-8.81Z" class="cls-10"/><path d="M125.6 107.72c1.09 1.15 2.22 2.32 3.33 3.46-5.46 4.25-11.76 7.3-18.82 8.8h-.03c-.2-1.42-.39-2.89-.58-4.37l-.18-1.42c5.7-.48 11.08-2.98 16.3-6.47Z" class="cls-10"/><path d="M66.92 151.5c-1.22-3.79-2.45-7.78-2.97-9.92-.23-.96-.52-1.66-.84-2.16l2.46-.5c4.91 5.94 9.65 10.43 11.56 11.53 1.35.77 2.99 1.38 4.78.87l28.89-5.11 3.53 3.01c-23.49 9.75-44.32 11.64-44.32 11.64-.08-.25-1.57-4.66-3.08-9.36Z" class="cls-11"/><path d="m110.81 146.21-28.89 5.11c1.55-.45 3.23-1.75 4.91-4.54.57-.94 1.15-2.06 1.72-3.37.25-.56.49-1.17.75-1.82 4.09-.06 9.39-.39 15.06-.9l6.46 5.53ZM91.63 45.71l19.06 10.1c-7.65 4.98-15.06 9.92-18.11 13.54-.91-.62-1.8-1.25-2.67-1.88l.55-6.88.31-4 .4-5.11.46-5.77Z" class="cls-11"/><path d="m68.32 126.14-4.37-14.64c9.83 1.26 40.1 4.79 45.36 4.13l.18-.03a394.883 394.883 0 0 0 1.17 8.49l-.14.02-25-1.3-13.08 17.22-4.13-13.88ZM114.75 89.09c-2.04 1.34-3.61 3.38-4.71 5.48-13.48-1.78-50.67-21.86-70.03-32.79l10.64-9.32 13.3 8.12s37.11 26.42 50.8 28.51Z" class="cls-7"/><path d="m45.78 125.71-.82-26.1c17.96 5.39 41.37 11.3 63.8 11.89l.22-.03c.1.89.22 1.8.33 2.71l.18 1.42-.18.03c-5.26.66-35.53-2.87-45.36-4.13l-18.1 16.48-.07-2.27Z" class="cls-7"/><path d="m108.98 111.48-.22.03c-22.43-.6-45.84-6.5-63.8-11.89L29.2 110.59l-1.31.92.94-8.49 1.88-17.07c15.14 5.76 61.8 21.57 77.71 22.42l.23-.02c.1 1.01.21 2.06.33 3.13Z" class="cls-7"/><path d="m108.65 108.34-.23.02c-15.91-.85-62.57-16.66-77.71-22.42L15.48 96.46V72.44c.93.07 3.27.1 5.89.29 1.99.14 4.14.37 5.94.79 4.14.96 19.21 5.84 24.68 8.21 5.46 2.36 45.62 19.94 56.13 20.39h.1c.03 1.66.19 3.82.43 6.23Z" class="cls-7"/><path d="M110.04 94.57c-.98 1.89-1.57 3.83-1.75 5.33-.07.56-.09 1.32-.07 2.21h-.1c-10.51-.44-50.67-18.02-56.13-20.39-5.47-2.37-20.54-7.25-24.68-8.21-1.8-.42-3.95-.65-5.94-.79l.03-.29 10.94-14.36 7.68 3.7c19.36 10.93 56.56 31.01 70.03 32.79Z" class="cls-7"/><path d="M105.26 71.09c.06.25 1.23 4.86 10.63 9.24-8.73-2.53-15.52-5.9-21.45-9.76-.11-.07-.22-.14-.32-.21l1.02-.9c2.34.33 4.66.68 6.94 1.07 1.07.17 2.14.36 3.19.56Z" class="cls-11"/><path d="m91.63 45.71-.46 5.77c-4.1.89-9.57 5.14-12.04 7.38-.92-.76-1.84-1.52-2.78-2.29 2.53-3.99 13.73-10.19 15.28-10.85Z" class="cls-10"/><path d="m91.17 51.47-.4 5.11c-2.75.34-5.57 1.95-8.44 4.92-1.07-.87-2.14-1.75-3.2-2.65 2.47-2.24 7.94-6.49 12.04-7.38Z" class="cls-10"/><path d="m90.77 56.58-.31 4c-1.88.24-3.74 1.24-5.62 2.98-.84-.68-1.68-1.35-2.51-2.06 2.87-2.97 5.69-4.58 8.44-4.92Z" class="cls-10"/><path d="m90.46 60.58-.55 6.88a141.59 141.59 0 0 1-5.07-3.9c1.88-1.74 3.74-2.73 5.62-2.98ZM88.98 140.02l.31 1.55c-.25.65-.49 1.26-.75 1.82-2.65-.29-4.04-1.42-4.24-3.38h4.67Z" class="cls-10"/><path d="m85.52 122.81 3.46 17.21H72.45l13.07-17.21z" class="cls-7"/><path d="M88.55 143.4a28.28 28.28 0 0 1-1.72 3.37c-3.8-.9-6.62-5.41-7.5-6.75h4.98c.2 1.95 1.59 3.09 4.24 3.38Z" class="cls-10"/><path d="M60.62 132.45a86.006 86.006 0 0 1-3.53-5.39l11.23-.92 4.13 13.88h6.88c.89 1.34 3.7 5.84 7.5 6.75-1.68 2.79-3.36 4.09-4.91 4.54-1.8.51-3.44-.1-4.78-.87-1.92-1.1-6.65-5.59-11.56-11.53a111.61 111.61 0 0 1-4.95-6.46Z" class="cls-10"/><path d="m70 160.85-17.39-8.53v-.11l14.31-.71c1.51 4.7 3 9.11 3.08 9.35Z" class="cls-11"/><path d="m63.95 111.5 4.37 14.64-11.23.92-11.24.92 18.1-16.48z" class="cls-7"/><path d="m66.92 151.5-14.32.71-2.31.11c.2-.38 6.78-12.25 8.3-13.05 1.25-.64 3.19-1.92 4.51.14.32.5.61 1.21.84 2.16.52 2.14 1.75 6.13 2.97 9.92Z" class="cls-11"/><path d="m65.56 138.91-2.46.5c-1.33-2.06-3.26-.78-4.51-.14-1.52.8-8.1 12.67-8.3 13.05s-1.41-2.54-3.36-5.99c-3.26-5.71-8.03-13.9-10.38-16.95l8.99 1.15 15.09 1.92c1.61 2.27 3.29 4.45 4.95 6.46Z" class="cls-11"/><path d="m46.92 146.34-17.25-1.65s3.33-10.42 6.88-15.3c2.35 3.05 7.13 11.24 10.38 16.95Z" class="cls-11"/><path d="m44.96 99.61.82 26.1-16.58-15.13 15.76-10.97zM30.7 85.94l-1.87 17.07-13.35-6.55L30.7 85.94z" class="cls-7"/><path d="M171.06 41.45c2.34 1.5 5.08 2.62 8.32 3.18M141.81 28.72l.16-3.48s-3.46.37-3.46-.85c0-2.07 2.28-8.42 4.36-10.78.26-.81.55-1.79.88-2.73.78-2.2 1.82-4.2 3.3-3.51 2.1.99 4.1.33 8.42 9.64 2.16 4.66 4.26 10.91 7.76 16.33 2.04 3.15 4.55 6.02 7.82 8.12" class="cls-3"/><path d="M142.65 31.01c.74.23 1.28-.22 2.85-1.41-1.03-.7-2.96-1.37-2.96-1.37l-.55.63-.76.88s.24.65 1.02 1.09c.14.08.28.14.4.18Z" class="cls-3"/><path d="m141.81 29.74 2.99-.08" style="stroke-linecap:round;stroke-linejoin:round;stroke-width:.5px;fill:none;stroke:#000"/><path d="M142.65 31.07s.44 5.14 3.92 6.84c3.47 1.69 10.58-.18 12.38-1.41 1.84-1.26 4.29-3.18 4.29-3.18" class="cls-3"/><path d="M171.06 41.44h0l.78 13.08 20.79-14.99-10.96-12.49c-.67-.65-1.88-2.01-3.43-3.75-2.3-2.6-5.32-6.08-8.38-9.46-3.47-3.85-6.98-7.56-9.49-9.72-6.21-5.32-11.3-3.35-12.34-2.83-1.05.52-3.23 2.57-3.76 3.46-.17.3-3.26 4.49-.52 6.11M102.07 70.53c4.73-4.47 11.64-8.76 20.95-11.13 9.31-2.36 24.93 3.52 29.54 6.84" class="cls-3"/><path d="m107 71.49.05-.05c3.51-3.46 9.71-7.1 17.83-8.57 7.65-1.38 19.17 2.36 25.01 6.61" class="cls-3"/><path d="M111.91 72.44c4.21-4.6 19.51-11.26 34.95 0M154.54 63.99l2.22-1.47 2.18-26.02" class="cls-3"/><path d="m154.54 63.99-1.92 2.3-2.67 3.22-2.71 3.25-7.48 8.97c-8.23-4-17.61-7.02-27.85-9.29-1.6-.36-3.22-.69-4.86-1.01-.59-.12-1.19-.23-1.79-.34-1.05-.2-2.12-.39-3.19-.56-2.27-.39-4.59-.74-6.94-1.07 0 0 3.99-3.11 7.09-5.47 4.38-3.21 8.56-5.56 12.51-7.19M213.33 31.07l-3.03-.31-4.52-.46M169.8 13.86s.03-.02.06-.03c1.68-.73 4.58-1.74 8.35-2.61 2.37-.55 5.08-1.04 8.07-1.39 2.49-.28 5.17-.46 7.99-.47 2.46 0 5.02.11 7.65.4 2.2.24 4.44.6 6.72 1.09 2.18.48 4.38 1.09 6.61 1.84 1.68.56 3.38 1.22 5.07 1.97-5.58 12.88-6.9 16.2-6.97 16.4M218.35 43.67c1.68 2.12 3.02 4.22 3.81 6.19.26.63.46 1.24.59 1.83 1.88 8.31 4.32 26.23 5.65 27.23M204.37 30.08c.3.24.63.5.95.78 2.01 1.67 4.23 3.59 6.37 5.64 2.41 2.29 4.74 4.73 6.65 7.15M178.21 23.3h.03a35 35 0 0 1 4.62-.56c1.56-.1 3.26-.1 4.98.03 2.14.16 4.34.51 6.43 1.14 2.21.66 4.31 1.63 6.1 3 1.12.86 2.5 1.94 4.01 3.17" class="cls-3"/><path d="m221.64 68.58-5.03 11.96c.28-.02.56-.04.87-.06.86-.07 1.8-.16 2.8-.25 2.44-.24 5.25-.58 8.17-1.02 3.08-.45 6.28-1.02 9.27-1.69 5.11-1.15 9.65-2.6 12-4.36 4.51-3.34 8.29-5.85 11.5-14.04.39-1.01.78-2.11 1.15-3.31.48-1.5.94-3.17 1.39-5.01.62-3.14.35-6.69-.6-9.71-.87-2.76-2.29-5.08-4.13-6.26-11.23-.39-30.62 0-30.62 0-8.05-3.13-14.75-3.73-15.06-3.76h0" class="cls-3"/><path d="M228.4 34.83c4.65 7 25.6 10.32 34.75 6.26M211.69 36.5c8.62 4.14 22.1 9.91 28.13 11.09 10.64 2.07 23.94 3.2 23.94 3.2M222.16 49.86c7.9 4.24 26 10.14 39.05 9.26M218.32 43.65h.02c9.67 4.83 25.36 11.36 44.02 12.15M233.58 109.27c-.18.63-.38 1.26-.59 1.88-2.64 7.7-6.95 13.84-14.28 16.84M237.72 77.51c-.69 10.84-1.3 22.3-4.13 31.73M193.06 50.8s17.69 26.94 18.63 44.67M199.62 43.65s16.55 24.17 16.84 33.86M220.31 80.54s7.39 13.15 5.32 27.34c-2.08 14.19-8.15 18.26-8.15 18.26M188.98 80.54v24.39l2.68 6.57s6.46-8.64 5.9-17.51" class="cls-3"/><path d="M217.48 80.48c-.05 3.09-.87 15.8-2.49 17.65 0 0-.2.03-.55.1-1.26.21-4.43.88-6.4 2.27-2.51 1.77-2.93 11.04-2.93 11.04" class="cls-3"/><path d="M214.43 98.22h0c2.66 2.14 3.95 6.69 2.02 12.43-1.92 5.77-2.8 7.93-2.8 7.93M128.45 91.19s5.25-1.62 8.82-6.93c-8.31-.82-15.32-2.16-21.38-3.92-8.73-2.53-15.52-5.9-21.45-9.76-.11-.07-.22-.14-.32-.21-.52-.34-1.03-.68-1.54-1.02-.91-.62-1.8-1.25-2.67-1.88a141.59 141.59 0 0 1-5.07-3.9c-.84-.68-1.68-1.35-2.51-2.06-1.07-.87-2.14-1.75-3.2-2.65-.92-.76-1.84-1.52-2.78-2.29-1.15-.95-2.33-1.9-3.53-2.86l-8.87 6.88s37.11 26.42 50.8 28.51" class="cls-3"/><path d="m63.95 60.58-13.3-8.12-10.64 9.32c19.36 10.93 56.56 31.01 70.03 32.79M40.01 61.78l-7.68-3.7-10.94 14.36M108.12 102.12c-10.51-.44-50.67-18.02-56.13-20.39-5.47-2.37-20.54-7.25-24.68-8.21-1.8-.42-3.95-.65-5.94-.79-2.61-.19-4.96-.22-5.89-.29v24.02l15.23-10.52c15.14 5.76 61.8 21.57 77.71 22.42M15.48 96.46l13.35 6.55" class="cls-3"/><path d="m30.7 85.94-1.88 17.07-.94 8.49 1.31-.92 15.76-10.97c17.96 5.39 41.37 11.3 63.8 11.89" class="cls-3"/><path d="m44.96 99.61.82 26.1.07 2.27 18.1-16.48c9.83 1.26 40.1 4.79 45.36 4.13M45.85 127.98l11.24-.92 11.23-.92h.01" class="cls-3"/><path d="m63.95 111.5 4.37 14.64 4.13 13.88 13.07-17.21 25 1.3M111.91 132.19s-.43-2.63-1-6.42c-.08-.54-.16-1.09-.25-1.68-.19-1.29-.39-2.67-.59-4.11-.2-1.42-.39-2.9-.58-4.38l-.18-1.42c-.11-.91-.23-1.82-.33-2.71-.12-1.08-.23-2.13-.33-3.13-.23-2.41-.4-4.57-.43-6.23-.02-.89 0-1.65.07-2.21.18-1.5.77-3.44 1.75-5.33 1.09-2.1 2.67-4.14 4.71-5.48 3.35-2.2 7.95-2.47 13.7 2.09 7.72 6.13 15.06 14.65 21.96 13.74" class="cls-3"/><path d="m85.52 122.81 3.46 17.22.31 1.55c4.09-.06 9.39-.39 15.06-.9 3.03-.27 6.16-.59 9.26-.95 1.93-.22 3.85-.45 5.72-.69 1.55-.2 3.06-.4 4.54-.61 8.3-1.18 15.14-2.48 17.35-3.5-1.52-1.15-2.52-2.28-3.13-3.13-.59-.78-.82-1.3-.82-1.3l-25.35 1.69M72.45 140.02H88.99" class="cls-3"/><path d="M57.09 127.06c1.09 1.83 2.28 3.64 3.53 5.39 1.61 2.27 3.29 4.45 4.95 6.46 4.91 5.94 9.65 10.43 11.56 11.53 1.35.77 2.99 1.38 4.78.87 1.55-.45 3.23-1.75 4.91-4.54.57-.94 1.15-2.06 1.72-3.37.25-.56.49-1.17.75-1.82" class="cls-3"/><path d="M60.62 132.45h0l-15.09-1.92-8.99-1.15c-3.55 4.88-6.88 15.3-6.88 15.3l17.25 1.65M70.01 160.86s20.83-1.89 44.32-11.64M50.29 152.33c.2-.38 6.78-12.25 8.3-13.05 1.25-.64 3.19-1.92 4.51.14.32.5.61 1.21.84 2.16.52 2.14 1.75 6.13 2.97 9.92 1.51 4.7 3 9.11 3.08 9.35" class="cls-3"/><path d="M36.54 129.39c2.35 3.05 7.13 11.24 10.38 16.95 1.95 3.45 3.36 5.99 3.36 5.99M50.28 152.33h.01l2.31-.12 14.32-.71h.01M52.61 152.33 70 160.85l.01.01M81.77 151.34l.14-.03 28.9-5.1" class="cls-3"/><path d="m104.35 140.68 6.46 5.53 3.52 3.01 9.99 8.54 15.06-5.85 26.61-10.33" class="cls-3"/><path d="m113.61 139.73 13.43 10.12 33.71-11.22" class="cls-3"/><path d="m160.16 137.86.1.06.67.41 5.13 3.13 7.99 4.87c-7.54 4.25-21.23 8.47-34.67 5.58M119.33 139.03l8.43 7.18 26.96-8.87" class="cls-3"/><path d="m123.88 138.43 4.57 4.26 20.76-6.89M220.57 131.6c-.63-1.04-1.32-2.23-2.04-3.53-.17-.31-.35-.63-.53-.96-.17-.32-.35-.65-.52-.98-.54-1.02-1.08-2.08-1.61-3.19-.71-1.48-1.45-2.94-2.31-4.32-1.94-3.13-4.45-5.81-8.45-7.09-3.04-.98-6.93-1.15-12.06-.1-15.12 3.07-48.25-.57-48.26-2.08M223.54 136.24c-.14-.21-1.34-1.95-2.95-4.62M174.05 146.34s.56-.27 2.93-.21c.48 0 1.02.03 1.66.08 3.77.25 26.34.03 44.92-9.95M138.1 131.8l3.03-.72" class="cls-3"/><path d="M139.38 129.39s.57.69 1.75 1.69c1.59 1.35 4.26 3.26 8.08 4.71 1.63.63 3.46 1.16 5.51 1.54a35.473 35.473 0 0 0 5.54.59c4.7.16 9.38-.41 13.79-1.17 7.63-1.33 14.47-3.26 19.23-3.14 7.75.2 26.6-1.12 30.26 2.63l.02.02" class="cls-3"/><path d="M139.09 125.1h0c5.11 1.89 11.69 7.98 23.24 8.44 11.56.45 24.85-4.05 32.38-3.98 7.41.09 23.07-.34 25.86 2.04l.02.02c.03.03.07.06.1.1" class="cls-3"/><path d="M138.8 120.82c10.19 3.77 17.08 8.31 26.94 8.39 9.86.09 23.12-3.65 30.41-3.68 7.29-.03 20.64.36 21.84 1.61" class="cls-3"/><path d="M138.51 116.53c15.29 5.65 22.46 8.65 30.62 8.35 8.17-.3 21.39-3.26 28.45-3.4 7.06-.15 18.29 1.48 18.29 1.48" class="cls-3"/><path d="m139.38 129.39-.28-4.29-.3-4.28-.13-2.01-.16-2.28M76.35 56.56c2.53-3.99 13.73-10.19 15.28-10.85l-.46 5.77-.4 5.11-.31 4-.55 6.88M91.63 45.71l19.06 10.1c-7.65 4.98-15.06 9.92-18.11 13.54" class="cls-3"/><path d="M79.12 58.86h0c2.47-2.25 7.94-6.49 12.04-7.39M82.32 61.51h0c2.87-2.98 5.69-4.59 8.44-4.93M84.84 63.56c1.88-1.74 3.74-2.73 5.62-2.98M79.33 140.02c.89 1.34 3.7 5.84 7.5 6.75M84.31 140.02c.2 1.95 1.59 3.09 4.24 3.38M132.32 114.57c2.33 2.29 4.21 4.01 4.95 4.34-2.63 1.8-5.22 3.66-7.88 5.4-5.28 3.46-10.84 6.51-17.47 7.88h0M117.97 99.61s3.55 3.85 7.63 8.11c1.09 1.15 2.22 2.32 3.33 3.46 1.18 1.2 2.33 2.35 3.39 3.39M129.39 124.31l7.88 6.19" class="cls-3"/><path d="M132.32 114.57h0c-5.71 5.04-12.95 8.67-21.4 11.2M128.96 111.15s-.03.02-.03.03c-5.46 4.25-11.76 7.3-18.82 8.8M125.6 107.72c-5.22 3.49-10.6 5.99-16.3 6.47M178.21 11.23l4.64 11.44M215.24 12.7l-4.94 18.06M208.63 10.86l-4.26 19.21v.01M201.91 9.77l-1.55 17.13M194.26 9.36v14.55M186.28 9.84l1.55 12.93M174.05 136.75l5.84 2.49-2.91 6.89M144.27 16.95c.89-.29 1.91-.23 3 0M161.34 62.69s9.32-2.27 14.33-.12M105.26 71.09h0c.06.26 1.23 4.87 10.63 9.25M232.58 91.19c.38 2.02 1.8 13.09 1.01 18.06v.03c-.13.82-.32 1.46-.59 1.88" class="cls-3"/><path d="m29.2 110.58 16.58 15.13.07.06M95.14 69.46l-1.03.91" class="cls-1"/><path d="m110.69 55.8 4.05 1c17.86-7.38 31.21-.19 39.8 7.19" class="cls-3"/></g></svg>