<?xml version="1.0" encoding="UTF-8"?>
<svg xmlns="http://www.w3.org/2000/svg" viewBox="0 0 269.89 197.26">
  <defs>
    <style>
      .cls-1 {
        stroke-miterlimit: 10;
      }

      .cls-1, .cls-2, .cls-3 {
        fill: none;
        stroke: #000;
      }

      .cls-4 {
        fill: #f9d6ac;
      }

      .cls-4, .cls-5, .cls-6, .cls-7, .cls-8, .cls-9, .cls-10, .cls-11 {
        stroke-width: 0px;
      }

      .cls-5 {
        fill: #f3edd7;
      }

      .cls-2 {
        stroke-width: .5px;
      }

      .cls-2, .cls-3 {
        stroke-linecap: round;
        stroke-linejoin: round;
      }

      .cls-6 {
        fill: #333;
      }

      .cls-7 {
        fill: #fdf4cb;
      }

      .cls-8 {
        fill: #ff764a;
      }

      .cls-9 {
        fill: #d2d296;
      }

      .cls-10 {
        fill: #fee678;
      }

      .cls-11 {
        fill: #f56741;
      }
    </style>
  </defs>
  <g id="_レイヤー_3" data-name="レイヤー 3">
    <g>
      <g>
        <rect class="cls-5" x=".24" y="162.68" width="3.61" height="5.02"/>
        <path class="cls-5" d="m269.65,190.21v6.55h-30.4l15.32-8.62c1.03,1.61,3.1,2.71,5.5,2.71s4.61-1.18,5.61-2.88l3.96,2.23Z"/>
        <path class="cls-5" d="m269.65,179.67v10.54l-3.96-2.23c.38-.65.59-1.38.59-2.14,0-1.3-.62-2.48-1.61-3.37l4.98-2.8Z"/>
        <path class="cls-5" d="m269.65,167.7v11.97l-4.98,2.8c-1.14-1.01-2.77-1.64-4.59-1.64s-3.3.58-4.43,1.51l-26.05-14.64h40.05Z"/>
        <polygon class="cls-5" points="269.65 82.82 269.65 88.58 1.13 88.58 .24 88.58 .24 82.82 269.65 82.82"/>
        <rect class="cls-5" x="265.66" y="162.68" width="3.99" height="5.02"/>
        <path class="cls-5" d="m266.28,185.84c0,.76-.21,1.49-.59,2.14l-5.41-3.04,4.39-2.47c1,.89,1.61,2.07,1.61,3.37Z"/>
        <path class="cls-5" d="m260.28,184.94l5.41,3.04c-1,1.7-3.13,2.88-5.61,2.88s-4.47-1.1-5.5-2.71l5.7-3.21Z"/>
        <rect class="cls-6" x="254.38" y="162.68" width="11.29" height="5.02"/>
        <path class="cls-5" d="m264.66,182.47l-4.39,2.47-4.63-2.6c1.13-.93,2.7-1.51,4.43-1.51,1.82,0,3.45.63,4.59,1.64Z"/>
        <path class="cls-5" d="m260.28,184.94l-5.7,3.21c-.44-.68-.69-1.47-.69-2.31,0-1.37.68-2.6,1.77-3.5l4.63,2.6Z"/>
        <path class="cls-5" d="m229.6,167.7l26.05,14.64c-1.09.9-1.77,2.13-1.77,3.5,0,.83.25,1.62.69,2.31l-15.32,8.62h-41.41l-15.62-8.78c.38-.65.59-1.38.59-2.14,0-1.3-.62-2.48-1.61-3.36l26.29-14.78h22.11Zm-5.95,18.14c0-2.77-2.24-5.01-5.01-5.01s-5.02,2.24-5.02,5.01,2.24,5.02,5.02,5.02,5.01-2.24,5.01-5.02Z"/>
        <polygon class="cls-5" points="254.38 167.7 229.6 167.7 223.91 167.7 223.91 162.68 254.38 162.68 254.38 167.7"/>
        <rect class="cls-6" x="212.62" y="162.68" width="11.29" height="5.02"/>
        <path class="cls-6" d="m218.64,180.83c2.77,0,5.01,2.24,5.01,5.01s-2.24,5.02-5.01,5.02-5.02-2.24-5.02-5.02,2.24-5.01,5.02-5.01Z"/>
        <path class="cls-5" d="m207.49,167.7l-26.29,14.78c-1.14-1.01-2.77-1.65-4.59-1.65s-3.3.58-4.43,1.51l-26.05-14.64h61.35Z"/>
        <polygon class="cls-5" points="182.16 167.7 182.16 162.68 212.62 162.68 212.62 167.7 207.49 167.7 182.16 167.7"/>
        <path class="cls-5" d="m197.84,196.76h-42.06l15.32-8.62c1.03,1.61,3.11,2.71,5.5,2.71s4.61-1.18,5.61-2.88l15.62,8.78Z"/>
        <path class="cls-5" d="m182.81,185.84c0,.76-.21,1.49-.59,2.14l-5.41-3.04,4.39-2.46c1,.88,1.61,2.06,1.61,3.36Z"/>
        <path class="cls-5" d="m176.82,184.94l5.41,3.04c-1,1.7-3.13,2.88-5.61,2.88s-4.47-1.1-5.5-2.71l5.7-3.21Z"/>
        <rect class="cls-6" x="170.87" y="162.68" width="11.29" height="5.02"/>
        <path class="cls-5" d="m176.62,180.83c1.82,0,3.45.63,4.59,1.65l-4.39,2.46-4.63-2.6c1.13-.93,2.7-1.51,4.43-1.51Z"/>
        <path class="cls-5" d="m176.82,184.94l-5.7,3.21c-.44-.68-.69-1.47-.69-2.31,0-1.37.68-2.6,1.77-3.5l4.63,2.6Z"/>
        <path class="cls-5" d="m146.14,167.7l26.05,14.64c-1.09.9-1.77,2.13-1.77,3.5,0,.83.25,1.62.69,2.31l-15.32,8.62h-41.41l-15.62-8.78c.38-.65.59-1.38.59-2.14,0-1.3-.62-2.48-1.61-3.36l26.29-14.78h22.11Zm-7,18.14c0-2.77-2.24-5.01-5.01-5.01s-5.02,2.24-5.02,5.01,2.24,5.02,5.02,5.02,5.01-2.24,5.01-5.02Z"/>
        <polygon class="cls-5" points="170.87 167.7 146.14 167.7 140.4 167.7 140.4 162.68 170.87 162.68 170.87 167.7"/>
        <rect class="cls-6" x="129.12" y="162.68" width="11.29" height="5.02"/>
        <path class="cls-6" d="m134.13,180.83c2.77,0,5.01,2.24,5.01,5.01s-2.24,5.02-5.01,5.02-5.02-2.24-5.02-5.02,2.24-5.01,5.02-5.01Z"/>
        <path class="cls-5" d="m124.03,167.7l-26.29,14.78c-1.14-1.01-2.77-1.65-4.59-1.65s-3.3.58-4.43,1.51l-26.05-14.64h61.35Z"/>
        <polygon class="cls-5" points="129.12 167.7 124.03 167.7 98.65 167.7 98.65 162.68 129.12 162.68 129.12 167.7"/>
        <path class="cls-5" d="m114.38,196.76h-42.06l15.32-8.62c1.03,1.61,3.1,2.71,5.5,2.71s4.61-1.18,5.61-2.88l15.62,8.78Z"/>
        <path class="cls-5" d="m99.35,185.84c0,.76-.21,1.49-.59,2.14l-5.41-3.04,4.39-2.46c1,.88,1.61,2.06,1.61,3.36Z"/>
        <path class="cls-5" d="m93.35,184.94l5.41,3.04c-1,1.7-3.13,2.88-5.61,2.88s-4.47-1.1-5.5-2.71l5.7-3.21Z"/>
        <rect class="cls-6" x="87.36" y="162.68" width="11.29" height="5.02"/>
        <path class="cls-5" d="m93.15,180.83c1.82,0,3.45.63,4.59,1.65l-4.39,2.46-4.63-2.6c1.13-.93,2.7-1.51,4.43-1.51Z"/>
        <path class="cls-5" d="m93.35,184.94l-5.7,3.21c-.44-.68-.69-1.47-.69-2.31,0-1.37.68-2.6,1.77-3.5l4.63,2.6Z"/>
        <path class="cls-5" d="m62.68,167.7l26.05,14.64c-1.09.9-1.77,2.13-1.77,3.5,0,.83.25,1.62.69,2.31l-15.32,8.62H30.73l-15.62-8.78c.38-.65.59-1.38.59-2.14,0-1.3-.62-2.48-1.61-3.36l26.29-14.78h22.3Zm-8.51,18.14c0-2.77-2.24-5.01-5.01-5.01s-5.02,2.24-5.02,5.01,2.24,5.02,5.02,5.02,5.01-2.24,5.01-5.02Z"/>
        <polygon class="cls-5" points="87.36 167.7 62.68 167.7 56.9 167.7 56.9 162.68 87.36 162.68 87.36 167.7"/>
        <rect class="cls-6" x="45.61" y="162.68" width="11.29" height="5.02"/>
        <path class="cls-6" d="m49.16,180.83c2.77,0,5.01,2.24,5.01,5.01s-2.24,5.02-5.01,5.02-5.02-2.24-5.02-5.02,2.24-5.01,5.02-5.01Z"/>
        <polygon class="cls-5" points="45.61 167.7 40.38 167.7 15.14 167.7 15.14 162.68 45.61 162.68 45.61 167.7"/>
        <path class="cls-5" d="m30.73,196.76H.24v-6.51l3.75-2.11c1.03,1.61,3.11,2.71,5.5,2.71s4.61-1.18,5.61-2.88l15.62,8.78Z"/>
        <path class="cls-5" d="m15.7,185.84c0,.76-.21,1.49-.59,2.14l-5.41-3.04,4.39-2.46c1,.88,1.61,2.06,1.61,3.36Z"/>
        <rect class="cls-6" x="3.86" y="162.68" width="11.29" height="5.02"/>
        <path class="cls-5" d="m9.7,184.94l5.41,3.04c-1,1.7-3.13,2.88-5.61,2.88s-4.47-1.1-5.5-2.71l5.7-3.21Z"/>
        <path class="cls-5" d="m9.5,180.83c1.82,0,3.45.63,4.59,1.65l-4.39,2.46-4.63-2.6c1.13-.93,2.7-1.51,4.43-1.51Z"/>
        <path class="cls-5" d="m9.7,184.94l-5.7,3.21c-.44-.68-.69-1.47-.69-2.31,0-1.37.68-2.6,1.77-3.5l4.63,2.6Z"/>
        <path class="cls-5" d="m.24,179.63l4.83,2.71c-1.09.9-1.77,2.13-1.77,3.5,0,.83.25,1.62.69,2.31l-3.75,2.11v-10.63Z"/>
        <polygon class="cls-9" points="212.62 162.68 182.16 162.68 170.87 162.68 140.4 162.68 129.12 162.68 98.65 162.68 87.36 162.68 56.9 162.68 45.61 162.68 15.14 162.68 3.86 162.68 .24 162.68 .24 88.58 1.13 88.58 269.65 88.58 269.65 162.68 265.66 162.68 254.38 162.68 223.91 162.68 212.62 162.68"/>
        <path class="cls-5" d="m.24,167.7h40.13l-26.29,14.78c-1.14-1.01-2.77-1.65-4.59-1.65s-3.3.58-4.43,1.51l-4.83-2.71v-11.93Z"/>
      </g>
      <g>
        <polyline class="cls-1" points="269.65 196.76 239.25 196.76 197.84 196.76 155.79 196.76 114.38 196.76 72.33 196.76 30.73 196.76 .24 196.76"/>
        <line class="cls-1" x1=".24" y1="82.82" x2="269.65" y2="82.82"/>
        <line class="cls-1" x1=".24" y1="88.58" x2="269.65" y2="88.58"/>
        <line class="cls-1" x1="265.66" y1="162.68" x2="269.65" y2="162.68"/>
        <line class="cls-1" x1="223.91" y1="162.68" x2="254.38" y2="162.68"/>
        <line class="cls-1" x1="182.16" y1="162.68" x2="212.62" y2="162.68"/>
        <line class="cls-1" x1="140.4" y1="162.68" x2="170.87" y2="162.68"/>
        <line class="cls-1" x1="98.65" y1="162.68" x2="129.12" y2="162.68"/>
        <line class="cls-1" x1="56.9" y1="162.68" x2="87.36" y2="162.68"/>
        <line class="cls-1" x1="15.14" y1="162.68" x2="45.61" y2="162.68"/>
        <line class="cls-1" x1=".24" y1="162.68" x2="3.86" y2="162.68"/>
        <line class="cls-1" x1="265.66" y1="167.7" x2="269.65" y2="167.7"/>
        <polyline class="cls-1" points="223.91 167.7 229.6 167.7 254.38 167.7"/>
        <polyline class="cls-1" points="182.16 167.7 207.49 167.7 212.62 167.7"/>
        <polyline class="cls-1" points="140.4 167.7 146.14 167.7 170.87 167.7"/>
        <polyline class="cls-1" points="98.65 167.7 124.03 167.7 129.12 167.7"/>
        <polyline class="cls-1" points="56.9 167.7 62.68 167.7 87.36 167.7"/>
        <polyline class="cls-1" points="15.14 167.7 40.38 167.7 45.61 167.7"/>
        <line class="cls-1" x1=".24" y1="167.7" x2="3.86" y2="167.7"/>
        <polyline class="cls-1" points="72.33 196.76 87.65 188.15 93.35 184.94 97.74 182.48 124.03 167.7"/>
        <polyline class="cls-1" points="114.38 196.76 98.76 187.98 93.35 184.94 88.73 182.34 62.68 167.7"/>
        <path class="cls-1" d="m139.14,185.84c0,2.77-2.24,5.02-5.01,5.02s-5.02-2.24-5.02-5.02,2.24-5.01,5.02-5.01,5.01,2.24,5.01,5.01Z"/>
        <path class="cls-1" d="m223.65,185.84c0,2.77-2.24,5.02-5.01,5.02s-5.02-2.24-5.02-5.02,2.24-5.01,5.02-5.01,5.01,2.24,5.01,5.01Z"/>
        <path class="cls-1" d="m97.74,182.48c1,.88,1.61,2.06,1.61,3.36,0,.76-.21,1.49-.59,2.14-1,1.7-3.13,2.88-5.61,2.88s-4.47-1.1-5.5-2.71c-.44-.68-.69-1.47-.69-2.31,0-1.37.68-2.6,1.77-3.5,1.13-.93,2.7-1.51,4.43-1.51,1.82,0,3.45.63,4.59,1.65Z"/>
        <polyline class="cls-1" points=".24 190.25 4 188.15 9.7 184.94 14.09 182.48 40.38 167.7"/>
        <polyline class="cls-1" points="30.73 196.76 15.11 187.98 9.7 184.94 5.07 182.34 .24 179.63"/>
        <path class="cls-1" d="m14.09,182.48c1,.88,1.61,2.06,1.61,3.36,0,.76-.21,1.49-.59,2.14-1,1.7-3.13,2.88-5.61,2.88s-4.47-1.1-5.5-2.71c-.44-.68-.69-1.47-.69-2.31,0-1.37.68-2.6,1.77-3.5,1.13-.93,2.7-1.51,4.43-1.51,1.82,0,3.45.63,4.59,1.65Z"/>
        <polyline class="cls-1" points="155.79 196.76 171.11 188.15 176.82 184.94 181.2 182.48 207.49 167.7"/>
        <polyline class="cls-1" points="197.84 196.76 182.22 187.98 176.82 184.94 172.19 182.34 146.14 167.7"/>
        <path class="cls-1" d="m181.2,182.48c1,.88,1.61,2.06,1.61,3.36,0,.76-.21,1.49-.59,2.14-1,1.7-3.13,2.88-5.61,2.88s-4.47-1.1-5.5-2.71c-.44-.68-.69-1.47-.69-2.31,0-1.37.68-2.6,1.77-3.5,1.13-.93,2.7-1.51,4.43-1.51,1.82,0,3.45.63,4.59,1.65Z"/>
        <polyline class="cls-1" points="239.25 196.76 254.57 188.15 260.28 184.94 264.66 182.47 269.65 179.67"/>
        <polyline class="cls-1" points="269.65 190.21 265.69 187.98 260.28 184.94 255.65 182.34 229.6 167.7"/>
        <path class="cls-1" d="m264.66,182.47c1,.89,1.61,2.07,1.61,3.37,0,.76-.21,1.49-.59,2.14-1,1.7-3.13,2.88-5.61,2.88s-4.47-1.1-5.5-2.71c-.44-.68-.69-1.47-.69-2.31,0-1.37.68-2.6,1.77-3.5,1.13-.93,2.7-1.51,4.43-1.51,1.82,0,3.45.63,4.59,1.64Z"/>
        <path class="cls-1" d="m54.17,185.84c0,2.77-2.24,5.02-5.01,5.02s-5.02-2.24-5.02-5.02,2.24-5.01,5.02-5.01,5.01,2.24,5.01,5.01Z"/>
        <rect class="cls-1" x="3.86" y="162.68" width="11.29" height="5.02"/>
        <rect class="cls-1" x="45.61" y="162.68" width="11.29" height="5.02"/>
        <rect class="cls-1" x="87.36" y="162.68" width="11.29" height="5.02"/>
        <rect class="cls-1" x="129.12" y="162.68" width="11.29" height="5.02"/>
        <rect class="cls-1" x="170.87" y="162.68" width="11.29" height="5.02"/>
        <rect class="cls-1" x="212.62" y="162.68" width="11.29" height="5.02"/>
        <rect class="cls-1" x="254.38" y="162.68" width="11.29" height="5.02"/>
      </g>
    </g>
  </g>
  <g id="_レイヤー_2" data-name="レイヤー 2">
    <g>
      <g>
        <polygon class="cls-7" points="45.7 125.5 29.15 110.4 44.89 99.44 45.7 125.5"/>
        <path class="cls-7" d="m109.12,115.44c-5.25.66-35.47-2.87-45.28-4.13l-18.07,16.45-.07-2.27-.81-26.06c17.92,5.38,41.3,11.28,63.69,11.87l.22-.03c.1.88.22,1.79.33,2.7.06.48.12.94.18,1.42l-.18.03Z"/>
        <path class="cls-7" d="m108.79,111.29l-.22.03c-22.39-.6-45.77-6.49-63.69-11.87l-15.73,10.96-1.31.92.94-8.48,1.87-17.04c15.12,5.75,61.7,21.53,77.58,22.38l.23-.02c.1,1.01.21,2.05.33,3.13Z"/>
        <path class="cls-11" d="m217.11,80.35c-.05,3.09-.87,15.78-2.49,17.62,0,0-.2.03-.55.1-1.26.21-4.42.88-6.39,2.26-2.5,1.77-2.92,11.03-2.92,11.03,3.99,1.28,6.5,3.95,8.43,7.08.86,1.38,1.59,2.84,2.31,4.32,0,0-11.21-1.62-18.25-1.47s-20.25,3.1-28.4,3.4c-8.15.29-15.31-2.7-30.57-8.34l.16,2.28-1.4.1c-.74-.33-2.63-2.05-4.95-4.33-1.06-1.04-2.2-2.19-3.38-3.39-1.1-1.14-2.23-2.31-3.32-3.45-5.21,3.48-10.58,5.98-16.27,6.46-.11-.91-.23-1.82-.33-2.7-.12-1.07-.23-2.12-.33-3.13-.23-2.4-.4-4.56-.42-6.21-.02-.89,0-1.65.07-2.21.18-1.5.77-3.43,1.75-5.32,1.09-2.1,2.66-4.13,4.7-5.47,3.35-2.19,7.94-2.47,13.68,2.09,0,0,5.24-1.62,8.81-6.92-8.3-.81-15.29-2.16-21.35-3.92-9.38-4.37-10.55-8.97-10.61-9.22.6.1,1.2.22,1.79.34,1.64.31,3.26.64,4.85,1.01,10.23,2.26,19.59,5.28,27.81,9.27l7.46-8.95,2.7-3.24,2.67-3.22,1.92-2.3,2.22-1.47,2.18-25.97c1.84-1.26,4.28-3.17,4.28-3.17,2.04,3.15,4.54,6.01,7.81,8.1h0s.78,13.06.78,13.06l20.75-14.96-10.94-12.47c-.67-.65-1.88-2-3.42-3.74,1.33-.26,2.9-.46,4.61-.55,1.56-.1,3.25-.1,4.97.03,2.14.16,4.33.51,6.42,1.14,2.21.66,4.3,1.63,6.08,2.99,1.12.86,2.5,1.93,4,3.16h0c.3.25.62.51.94.79,2.01,1.66,4.22,3.59,6.36,5.63,2.4,2.29,4.73,4.72,6.64,7.14h0c1.67,2.12,3.02,4.22,3.81,6.19.26.62.46,1.24.59,1.83,1.88,8.3,4.32,26.19,5.64,27.18l.04.29c-2.91.44-5.72.78-8.16,1.02-1,.1-1.93.18-2.79.25Z"/>
        <polygon class="cls-7" points="28.78 102.84 15.45 96.3 30.65 85.8 28.78 102.84"/>
        <path class="cls-11" d="m65.45,138.68l-2.45.5c-1.33-2.05-3.26-.78-4.51-.14-1.54.81-8.3,13.03-8.3,13.03,0,0-1.4-2.54-3.35-5.98-3.25-5.7-8.02-13.88-10.37-16.92l8.97,1.14,15.06,1.92c1.6,2.26,3.29,4.44,4.94,6.45Z"/>
        <path class="cls-7" d="m78.99,58.75c1.07.89,2.13,1.78,3.2,2.64.83.7,1.66,1.38,2.5,2.05,1.66,1.33,3.33,2.63,5.06,3.89.87.63,1.75,1.27,2.66,1.88.61.42,1.22.82,1.85,1.23,5.93,3.85,12.71,7.22,21.42,9.74,6.06,1.76,13.05,3.1,21.35,3.92-3.56,5.3-8.81,6.92-8.81,6.92-5.74-4.56-10.33-4.28-13.68-2.09-13.67-2.09-50.72-28.46-50.72-28.46l8.86-6.86c1.2.95,2.37,1.91,3.52,2.85.94.77,1.85,1.53,2.77,2.29Z"/>
        <path class="cls-11" d="m232.59,110.96c-2.64,7.69-6.93,13.82-14.26,16.81l-.17.1c-.17-.31-.35-.63-.53-.95-.17-.32-.35-.65-.52-.98,0,0,6.07-4.07,8.14-18.23,2.06-14.16-5.31-27.29-5.31-27.29l-.03-.31c2.44-.24,5.24-.58,8.16-1.02,3.08-.45,6.27-1.02,9.26-1.69-.68,10.83-1.3,22.26-4.13,31.68,0,0,0,.02,0,.03-.18.63-.38,1.26-.59,1.87Z"/>
        <path class="cls-11" d="m216.1,110.47c-1.92,5.76-2.8,7.91-2.8,7.91l-.1.05c-1.93-3.13-4.45-5.8-8.43-7.08,0,0,.42-9.26,2.92-11.03,1.97-1.39,5.13-2.05,6.39-2.26,2.65,2.12,3.94,6.67,2.02,12.4Z"/>
        <path class="cls-11" d="m148.96,135.57l-20.72,6.88-4.57-4.26c8.29-1.18,15.12-2.48,17.32-3.49-1.52-1.14-2.51-2.28-3.12-3.12l3.03-.72c1.59,1.35,4.26,3.25,8.07,4.71Z"/>
        <path class="cls-10" d="m262.72,41.02c.94,3.02,1.21,6.55.6,9.69,0,0-13.28-1.14-23.9-3.2-6.02-1.18-19.48-6.93-28.08-11.07-2.14-2.05-4.35-3.97-6.36-5.63l.47-.56,4.51.46,3.03.31s6.82.55,15.05,3.75c4.65,6.99,25.56,10.31,34.69,6.25h0Z"/>
        <path class="cls-11" d="m262.72,41.02h0c-9.13,4.06-30.04.74-34.69-6.25,0,0,19.36-.39,30.57,0,1.84,1.18,3.26,3.49,4.13,6.25Z"/>
        <path class="cls-10" d="m263.31,50.71c-.45,1.84-.91,3.5-1.39,5-18.63-.79-34.29-7.31-43.95-12.12h0c-1.91-2.43-4.24-4.86-6.64-7.15,8.61,4.13,22.06,9.89,28.08,11.07,10.62,2.06,23.9,3.2,23.9,3.2Z"/>
        <path class="cls-10" d="m261.93,55.71c-.37,1.2-.76,2.3-1.15,3.3-13.04.88-31.1-5.01-38.99-9.24-.79-1.97-2.13-4.07-3.81-6.18,9.66,4.81,25.32,11.33,43.95,12.12Z"/>
        <path class="cls-11" d="m221.79,49.77c7.89,4.23,25.95,10.12,38.99,9.24-3.2,8.17-6.98,10.68-11.48,14.02-2.35,1.75-6.87,3.21-11.98,4.35-2.99.67-6.18,1.24-9.26,1.69l-.04-.29c-1.33-1-3.76-18.89-5.64-27.18-.13-.59-.33-1.2-.59-1.83Z"/>
        <path class="cls-11" d="m219.94,80.41s7.38,13.13,5.31,27.29c-2.07,14.16-8.14,18.23-8.14,18.23-.54-1.01-1.07-2.08-1.6-3.18-.71-1.47-1.45-2.94-2.31-4.32l.1-.05s.88-2.16,2.8-7.91c1.92-5.74.63-10.28-2.02-12.4.35-.07.55-.1.55-.1,1.62-1.85,2.44-14.54,2.49-17.62.86-.07,1.79-.16,2.79-.25l.03.31Z"/>
        <path class="cls-10" d="m159.99,137.69c-.43,0-.88-.03-1.32-.06-1.49-.1-2.9-.28-4.21-.53-2.05-.37-3.87-.91-5.5-1.53-3.81-1.46-6.48-3.35-8.07-4.71-1.17-1-1.74-1.69-1.74-1.69l-.29-4.28c5.1,1.89,11.67,7.97,23.2,8.43,11.55.45,24.81-4.05,32.32-3.97,7.39.09,23.03-.34,25.81,2.04,0,0,0,0,.02.02,1.72,2.84,2.96,4.63,2.96,4.63-3.61-3.76-22.48-2.44-30.22-2.64-4.75-.12-11.58,1.81-19.2,3.14-4.4.76-9.08,1.33-13.76,1.17Z"/>
        <path class="cls-10" d="m218.16,127.86c.72,1.29,1.41,2.48,2.04,3.52-2.78-2.37-18.42-1.95-25.81-2.04-7.51-.08-20.78,4.42-32.32,3.97-11.54-.46-18.11-6.54-23.2-8.43l-.29-4.27c10.18,3.76,17.05,8.3,26.9,8.37,9.85.09,23.08-3.64,30.35-3.68,7.28-.03,20.6.36,21.81,1.6h0c.18.31.36.63.53.94Z"/>
        <path class="cls-10" d="m217.63,126.91h0c-1.2-1.24-14.53-1.63-21.81-1.59-7.27.03-20.51,3.76-30.35,3.68-9.85-.08-16.72-4.61-26.9-8.37l-.13-2-.16-2.28c15.26,5.64,22.42,8.63,30.57,8.34,8.16-.29,21.36-3.25,28.4-3.4s18.25,1.47,18.25,1.47c.53,1.1,1.07,2.17,1.6,3.18.17.33.35.66.52.98Z"/>
        <path class="cls-10" d="m214.88,12.68c1.68.56,3.37,1.22,5.06,1.97-5.76,13.28-6.97,16.37-6.97,16.37l-3.03-.31,4.93-18.03Z"/>
        <path class="cls-10" d="m214.88,12.68l-4.93,18.03-4.51-.46-.47.56c-.32-.28-.64-.54-.94-.78h0s4.26-19.18,4.26-19.18h0c2.18.47,4.38,1.07,6.6,1.83Z"/>
        <path class="cls-10" d="m208.28,10.84h0s-4.26,19.18-4.26,19.18c-1.51-1.23-2.89-2.31-4-3.16l1.55-17.1h0c2.19.23,4.43.59,6.71,1.08Z"/>
        <path class="cls-11" d="m192.96,133.38c7.75.2,26.61-1.12,30.22,2.64-18.55,9.96-41.09,10.18-44.85,9.93-.63-.04-1.18-.07-1.66-.08l2.91-6.87-5.83-2.49c7.62-1.33,14.45-3.26,19.2-3.14Z"/>
        <path class="cls-10" d="m201.57,9.75h0s-1.55,17.11-1.55,17.11c-1.79-1.36-3.87-2.33-6.08-2.99v-14.52c2.45,0,5.01.11,7.64.4Z"/>
        <path class="cls-10" d="m193.94,9.35v14.52c-2.09-.62-4.28-.98-6.42-1.14l-1.55-12.91h0c2.49-.29,5.16-.47,7.97-.48Z"/>
        <path class="cls-6" d="m170.77,41.38h0c-3.27-2.11-5.77-4.97-7.81-8.11-3.49-5.41-5.59-11.65-7.75-16.3-4.32-9.29-6.31-8.63-8.41-9.62-1.47-.69-2.51,1.31-3.29,3.5-2.73-1.62.35-5.8.52-6.1.53-.89,2.7-2.94,3.75-3.46,1.04-.52,6.12-2.49,12.32,2.83,2.5,2.15,6.01,5.86,9.47,9.7,3.05,3.38,6.07,6.86,8.36,9.45,1.54,1.74,2.76,3.09,3.42,3.74l10.94,12.47-20.75,14.96-.78-13.05Z"/>
        <path class="cls-10" d="m185.96,9.82l1.55,12.91c-1.72-.12-3.41-.12-4.97-.03v-.07s-4.64-11.42-4.64-11.42h0c2.37-.55,5.07-1.05,8.05-1.4h0Z"/>
        <path class="cls-10" d="m182.54,22.64v.07c-1.71.1-3.28.29-4.6.55-2.3-2.59-5.31-6.07-8.36-9.45,1.68-.73,4.58-1.73,8.34-2.61h0s4.63,11.43,4.63,11.43Z"/>
        <path class="cls-11" d="m179.59,139.01l-2.91,6.87c-2.36-.06-2.92.21-2.92.21l-7.97-4.86-5.12-3.13-.67-.41c4.69.16,9.36-.41,13.76-1.17l5.83,2.49Z"/>
        <path class="cls-11" d="m165.78,141.23l7.97,4.86c-7.52,4.25-21.19,8.45-34.61,5.57h0s26.57-10.32,26.57-10.32l.07-.11Z"/>
        <path class="cls-10" d="m160.66,138.1l5.12,3.13-.07.11-26.57,10.31-15.04,5.84-9.97-8.53-3.52-3.01-6.45-5.52c3.03-.27,6.15-.59,9.25-.94l13.4,10.11,33.66-11.21.18-.29Z"/>
        <path class="cls-4" d="m155.21,16.97c2.16,4.65,4.26,10.9,7.75,16.3,0,0-2.44,1.92-4.28,3.17-1.79,1.22-8.89,3.09-12.36,1.4-3.47-1.7-3.91-6.83-3.91-6.83v-.06c.74.23,1.27-.22,2.84-1.4-1.03-.7-2.96-1.37-2.96-1.37l-.55.63-.17-.15.16-3.48s-3.45.37-3.45-.85c0-2.06,2.28-8.41,4.35-10.77.26-.81.55-1.79.88-2.73.78-2.19,1.82-4.2,3.29-3.5,2.1.99,4.09.33,8.41,9.62Z"/>
        <path class="cls-10" d="m160.66,138.1l-.18.29-33.66,11.21-13.4-10.11c1.92-.22,3.84-.45,5.71-.69l8.41,7.16,26.92-8.85h0c1.32.24,2.72.42,4.21.52.44.03.88.05,1.32.06l.67.41Z"/>
        <path class="cls-10" d="m154.46,137.1h0s-26.92,8.86-26.92,8.86l-8.41-7.16c1.54-.2,3.06-.4,4.53-.61l4.57,4.26,20.72-6.88c1.63.62,3.46,1.16,5.5,1.53Z"/>
        <path class="cls-10" d="m154.28,63.89l-1.92,2.3-.06-.05c-4.6-3.32-20.2-9.19-29.49-6.83-9.29,2.37-16.19,6.65-20.92,11.11-2.27-.39-4.59-.74-6.93-1.07,0,0,3.98-3.1,7.08-5.46,24.19-17.71,41.75-9,52.22,0Z"/>
        <path class="cls-10" d="m105.08,70.98c-1.05-.2-2.11-.39-3.18-.56,4.72-4.46,11.62-8.75,20.92-11.11,9.29-2.36,24.89,3.51,29.49,6.83l.06.05-2.67,3.22-.05-.04c-5.83-4.24-17.34-7.97-24.97-6.6-8.11,1.46-14.3,5.1-17.8,8.56-.59-.12-1.19-.23-1.79-.34Z"/>
        <path class="cls-10" d="m149.7,69.4l-2.7,3.24-.38-.32c-15.41-11.24-30.68-4.59-34.89,0-1.59-.36-3.22-.69-4.85-1.01,3.5-3.46,9.69-7.09,17.8-8.56,7.64-1.38,19.14,2.36,24.97,6.6l.05.04Z"/>
        <path class="cls-11" d="m146.99,72.64l-7.46,8.95c-8.22-4-17.58-7.01-27.81-9.27,4.2-4.59,19.48-11.24,34.89,0l.38.32Z"/>
        <path class="cls-8" d="m142.29,28.18s1.92.67,2.96,1.37c-1.57,1.19-2.11,1.64-2.84,1.4-.12-.04-.26-.1-.4-.18-.78-.43-1.02-1.08-1.02-1.08l.76-.88.55-.63Z"/>
        <path class="cls-11" d="m138.86,124.89l.29,4.28s.57.69,1.74,1.69l-3.03.72c-.59-.78-.82-1.3-.82-1.3l-7.87-6.18c2.66-1.74,5.24-3.6,7.87-5.39l1.4-.1.13,2,.29,4.27Z"/>
        <path class="cls-7" d="m88.83,139.79l-3.45-17.19,24.95,1.3.14-.02c.09.58.17,1.14.25,1.67.56,3.79,1,6.41,1,6.41l25.32-1.69s.23.52.82,1.3c.61.84,1.6,1.98,3.12,3.12-2.2,1.01-9.03,2.31-17.32,3.49-1.47.21-2.99.41-4.53.61-1.87.24-3.79.48-5.71.69-3.1.36-6.22.68-9.25.94-5.65.51-10.95.84-15.03.9l-.31-1.55Z"/>
        <path class="cls-11" d="m137.04,130.28l-25.32,1.69c6.62-1.37,12.18-4.41,17.45-7.87l7.87,6.18Z"/>
        <path class="cls-11" d="m132.09,114.38c2.32,2.29,4.21,4,4.95,4.33-2.63,1.79-5.21,3.65-7.87,5.39-5.27,3.46-10.83,6.5-17.45,7.87,0,0-.43-2.63-1-6.41,8.44-2.52,15.66-6.15,21.37-11.18Z"/>
        <path class="cls-10" d="m128.71,110.99c1.18,1.2,2.32,2.35,3.38,3.39-5.7,5.04-12.92,8.66-21.37,11.18-.08-.54-.16-1.09-.25-1.67-.19-1.29-.39-2.67-.59-4.1h.03c7.05-1.51,13.34-4.56,18.79-8.8Z"/>
        <path class="cls-10" d="m125.39,107.54c1.09,1.14,2.22,2.31,3.32,3.45-5.45,4.24-11.74,7.29-18.79,8.79h-.03c-.2-1.41-.39-2.89-.58-4.36-.06-.48-.12-.94-.18-1.42,5.69-.48,11.06-2.97,16.27-6.46Z"/>
        <path class="cls-11" d="m66.81,151.25c-1.22-3.79-2.44-7.77-2.96-9.91-.23-.95-.52-1.66-.84-2.16l2.45-.5c4.91,5.93,9.63,10.41,11.55,11.51,1.34.77,2.98,1.38,4.78.87l28.85-5.1,3.52,3.01c-23.45,9.73-44.25,11.62-44.25,11.62h0c-.08-.25-1.57-4.65-3.08-9.34Z"/>
        <path class="cls-11" d="m104.17,140.44l6.45,5.52-28.85,5.1c1.55-.45,3.22-1.75,4.91-4.53.57-.94,1.14-2.05,1.72-3.36.25-.56.49-1.17.75-1.82,4.08-.06,9.38-.39,15.03-.9Z"/>
        <path class="cls-11" d="m91.47,45.63l19.03,10.08c-7.64,4.97-15.03,9.9-18.08,13.51-.91-.62-1.79-1.25-2.66-1.88l.55-6.86.31-4,.4-5.1.46-5.76Z"/>
        <path class="cls-7" d="m68.2,125.93l-4.36-14.61c9.81,1.26,40.03,4.78,45.28,4.13l.18-.03c.19,1.47.38,2.95.58,4.37.2,1.43.4,2.81.59,4.1l-.14.02-24.95-1.3-13.05,17.19-4.13-13.86Z"/>
        <path class="cls-7" d="m114.56,88.94c-2.04,1.33-3.61,3.37-4.7,5.47-13.45-1.78-50.59-21.83-69.91-32.74l10.62-9.3,13.28,8.1s37.05,26.38,50.72,28.46Z"/>
        <path class="cls-7" d="m108.46,108.16l-.23.02c-15.88-.85-62.46-16.63-77.58-22.38l-15.2,10.51v-23.98c.93.07,3.27.1,5.88.29,1.98.14,4.13.37,5.93.79,4.13.96,19.18,5.83,24.64,8.2,5.45,2.36,45.54,19.91,56.04,20.35h.1c.03,1.66.19,3.81.42,6.21Z"/>
        <path class="cls-7" d="m109.86,94.41c-.98,1.89-1.57,3.82-1.75,5.32-.07.56-.09,1.32-.07,2.21h-.1c-10.5-.44-50.59-17.99-56.04-20.35-5.46-2.37-20.51-7.24-24.64-8.2-1.79-.42-3.94-.65-5.93-.79l.03-.29,10.92-14.34,7.67,3.69c19.33,10.91,56.46,30.96,69.91,32.74Z"/>
        <path class="cls-10" d="m91.47,45.63l-.46,5.76c-4.09.89-9.55,5.13-12.02,7.37-.92-.75-1.84-1.52-2.77-2.29,2.52-3.98,13.7-10.18,15.26-10.83Z"/>
        <path class="cls-10" d="m91.02,51.39l-.4,5.1c-2.75.34-5.56,1.95-8.43,4.91-1.07-.87-2.13-1.75-3.2-2.64,2.47-2.24,7.93-6.47,12.02-7.37Z"/>
        <path class="cls-10" d="m90.62,56.48l-.31,4c-1.87.24-3.74,1.24-5.61,2.97-.84-.68-1.67-1.35-2.5-2.05,2.87-2.96,5.68-4.58,8.43-4.91Z"/>
        <path class="cls-10" d="m90.3,60.48l-.55,6.86c-1.73-1.27-3.41-2.57-5.06-3.89,1.87-1.73,3.74-2.73,5.61-2.97Z"/>
        <path class="cls-10" d="m88.83,139.79l.31,1.55c-.25.65-.49,1.26-.75,1.82-2.64-.29-4.03-1.42-4.23-3.37h4.66Z"/>
        <polygon class="cls-7" points="85.38 122.6 88.83 139.79 84.17 139.79 79.19 139.79 72.33 139.79 85.38 122.6"/>
        <path class="cls-10" d="m88.4,143.16c-.57,1.31-1.14,2.43-1.72,3.36-3.8-.9-6.6-5.4-7.49-6.73h4.98c.2,1.95,1.59,3.09,4.23,3.37Z"/>
        <path class="cls-10" d="m60.51,132.23c-1.24-1.75-2.43-3.55-3.52-5.38l11.21-.92,4.13,13.86h6.86c.88,1.33,3.69,5.83,7.49,6.73-1.68,2.78-3.35,4.08-4.91,4.53-1.79.51-3.43-.1-4.78-.87-1.92-1.1-6.64-5.58-11.55-11.51-1.66-2.01-3.34-4.19-4.94-6.45Z"/>
        <path class="cls-11" d="m69.88,160.58l-17.36-8.51v-.11s14.28-.71,14.28-.71c1.51,4.69,3,9.09,3.08,9.34Z"/>
        <polygon class="cls-7" points="68.2 125.93 56.99 126.85 45.77 127.77 63.84 111.32 68.2 125.93"/>
        <path class="cls-11" d="m66.81,151.25l-14.29.71-2.31.11s6.75-12.22,8.3-13.03c1.25-.64,3.18-1.92,4.51.14.32.5.61,1.2.84,2.16.52,2.14,1.74,6.12,2.96,9.91Z"/>
        <path class="cls-11" d="m46.84,146.09h0l-17.22-1.65s3.32-10.4,6.86-15.27c2.35,3.04,7.12,11.22,10.37,16.92Z"/>
      </g>
      <g>
        <path class="cls-3" d="m170.77,41.38c2.34,1.5,5.07,2.62,8.3,3.17"/>
        <path class="cls-3" d="m141.57,28.67l.16-3.48s-3.45.37-3.45-.85c0-2.06,2.28-8.41,4.35-10.77.26-.81.55-1.79.88-2.73.78-2.19,1.82-4.2,3.29-3.5,2.1.99,4.09.33,8.41,9.62,2.16,4.65,4.26,10.9,7.75,16.3,2.04,3.15,4.54,6.01,7.81,8.1"/>
        <path class="cls-3" d="m142.41,30.96c.74.23,1.27-.22,2.84-1.4-1.03-.7-2.96-1.37-2.96-1.37l-.55.63-.76.88s.24.65,1.02,1.08c.14.08.28.14.4.18Z"/>
        <line class="cls-2" x1="141.57" y1="29.69" x2="144.56" y2="29.61"/>
        <path class="cls-3" d="m142.41,31.02s.44,5.13,3.91,6.83c3.47,1.69,10.57-.18,12.36-1.4,1.84-1.26,4.28-3.17,4.28-3.17"/>
        <path class="cls-3" d="m170.77,41.38h0s.78,13.06.78,13.06l20.75-14.96-10.94-12.47c-.67-.65-1.88-2-3.42-3.74-2.3-2.59-5.31-6.07-8.36-9.45-3.47-3.84-6.97-7.55-9.47-9.7-6.2-5.31-11.28-3.35-12.32-2.83-1.05.52-3.22,2.57-3.75,3.46-.17.3-3.25,4.48-.52,6.1"/>
        <path class="cls-3" d="m101.9,70.41c4.72-4.46,11.62-8.75,20.92-11.11,9.29-2.36,24.89,3.51,29.49,6.83"/>
        <path class="cls-3" d="m106.82,71.37l.05-.05c3.5-3.46,9.69-7.09,17.8-8.56,7.64-1.38,19.14,2.36,24.97,6.6"/>
        <path class="cls-3" d="m111.72,72.32c4.2-4.59,19.48-11.24,34.89,0"/>
        <path class="cls-3" d="m154.28,63.89l-1.92,2.3-2.67,3.22-2.7,3.24-7.46,8.95c-8.22-4-17.58-7.01-27.81-9.27-1.59-.36-3.22-.69-4.85-1.01-.59-.12-1.19-.23-1.79-.34-1.05-.2-2.11-.39-3.18-.56-2.27-.39-4.59-.74-6.93-1.07,0,0,3.98-3.1,7.08-5.46,24.19-17.71,41.75-9,52.22,0l2.22-1.47,2.18-25.97"/>
        <path class="cls-3" d="m169.51,13.84s.03-.02.06-.03c1.68-.73,4.58-1.73,8.34-2.61,2.37-.55,5.07-1.04,8.05-1.39,2.49-.28,5.16-.46,7.97-.47,2.45,0,5.01.11,7.64.4,2.19.24,4.43.6,6.71,1.09,2.18.48,4.38,1.08,6.6,1.84,1.68.56,3.37,1.22,5.06,1.97-5.76,13.28-6.97,16.37-6.97,16.37l-3.03-.31-4.51-.46"/>
        <path class="cls-3" d="m217.98,43.59c1.67,2.11,3.02,4.21,3.81,6.18.26.62.46,1.24.59,1.83,1.88,8.3,4.32,26.19,5.64,27.18"/>
        <path class="cls-3" d="m204.03,30.03c.3.24.62.5.94.78,2.01,1.66,4.22,3.59,6.36,5.63,2.4,2.29,4.73,4.72,6.64,7.14"/>
        <path class="cls-3" d="m177.91,23.26h.03c1.33-.26,2.9-.46,4.61-.55,1.56-.1,3.25-.1,4.97.03,2.14.16,4.33.51,6.42,1.14,2.21.66,4.3,1.63,6.08,2.99,1.12.86,2.5,1.93,4,3.16"/>
        <path class="cls-3" d="m221.27,68.46l-5.02,11.94c.28-.02.56-.04.87-.06.86-.07,1.79-.16,2.79-.25,2.44-.24,5.24-.58,8.16-1.02,3.08-.45,6.27-1.02,9.26-1.69,5.11-1.14,9.63-2.6,11.98-4.35,4.5-3.34,8.28-5.84,11.48-14.02.39-1.01.78-2.11,1.15-3.3.48-1.5.94-3.16,1.39-5,.62-3.14.35-6.67-.6-9.69-.87-2.76-2.29-5.07-4.13-6.25-11.21-.39-30.57,0-30.57,0-8.23-3.2-15.05-3.75-15.05-3.75"/>
        <path class="cls-3" d="m228.02,34.77c4.65,6.99,25.56,10.31,34.69,6.25"/>
        <path class="cls-3" d="m211.33,36.44c8.61,4.13,22.06,9.89,28.08,11.07,10.62,2.06,23.9,3.2,23.9,3.2"/>
        <path class="cls-3" d="m221.79,49.77c7.89,4.23,25.95,10.12,38.99,9.24"/>
        <path class="cls-3" d="m217.96,43.58s0,0,.02,0h0c9.66,4.82,25.32,11.34,43.95,12.13"/>
        <path class="cls-3" d="m233.18,109.09c-.18.63-.38,1.26-.59,1.87-2.64,7.69-6.93,13.82-14.26,16.81"/>
        <path class="cls-3" d="m237.32,77.38c-.68,10.83-1.3,22.26-4.13,31.68"/>
        <path class="cls-3" d="m192.73,50.71s17.66,26.9,18.6,44.6"/>
        <path class="cls-3" d="m199.28,43.58s16.52,24.13,16.82,33.8"/>
        <path class="cls-3" d="m219.94,80.41s7.38,13.13,5.31,27.29c-2.07,14.16-8.14,18.23-8.14,18.23"/>
        <path class="cls-3" d="m188.66,80.41v24.35l2.68,6.56s6.45-8.62,5.89-17.48"/>
        <path class="cls-3" d="m217.11,80.35c-.05,3.09-.87,15.78-2.49,17.62,0,0-.2.03-.55.1-1.26.21-4.42.88-6.39,2.26-2.5,1.77-2.92,11.03-2.92,11.03"/>
        <path class="cls-3" d="m214.07,98.05h0c2.65,2.13,3.94,6.67,2.02,12.41-1.92,5.76-2.8,7.91-2.8,7.91"/>
        <path class="cls-3" d="m128.23,91.03s5.24-1.62,8.81-6.92c-8.3-.81-15.29-2.16-21.35-3.92-8.71-2.52-15.49-5.89-21.42-9.74-.63-.41-1.25-.81-1.85-1.23-.91-.62-1.79-1.25-2.66-1.88-1.73-1.27-3.41-2.57-5.06-3.89-.84-.68-1.67-1.35-2.5-2.05-1.07-.87-2.13-1.75-3.2-2.64-.92-.75-1.84-1.52-2.77-2.29-1.15-.94-2.32-1.9-3.52-2.85l-8.86,6.86s37.05,26.38,50.72,28.46"/>
        <path class="cls-3" d="m63.84,60.48l-13.28-8.1-10.62,9.3c19.33,10.91,56.46,30.96,69.91,32.74"/>
        <polyline class="cls-3" points="39.94 61.68 32.27 57.98 21.35 72.32"/>
        <path class="cls-3" d="m107.94,101.95c-10.5-.44-50.59-17.99-56.04-20.35-5.46-2.37-20.51-7.24-24.64-8.2-1.79-.42-3.94-.65-5.93-.79-2.61-.19-4.95-.22-5.88-.29v23.98l15.2-10.51c15.12,5.75,61.7,21.53,77.58,22.38"/>
        <line class="cls-3" x1="15.45" y1="96.3" x2="28.78" y2="102.84"/>
        <path class="cls-3" d="m30.65,85.8l-1.87,17.04-.94,8.48,1.31-.92,15.73-10.96c17.92,5.38,41.3,11.28,63.69,11.87"/>
        <path class="cls-3" d="m44.89,99.44l.81,26.06.07,2.27,18.07-16.45c9.81,1.26,40.03,4.78,45.28,4.13"/>
        <polyline class="cls-3" points="45.77 127.77 56.99 126.85 68.2 125.93 68.21 125.93"/>
        <polyline class="cls-3" points="63.84 111.32 68.2 125.93 72.33 139.79 85.38 122.6 110.34 123.9"/>
        <path class="cls-3" d="m85.38,122.6l3.45,17.19.31,1.55c4.08-.06,9.38-.39,15.03-.9,3.03-.27,6.15-.59,9.25-.94,1.92-.22,3.84-.45,5.71-.69,1.54-.2,3.06-.4,4.53-.61,8.29-1.18,15.12-2.48,17.32-3.49-1.52-1.14-2.51-2.28-3.12-3.12-.59-.78-.82-1.3-.82-1.3l-25.32,1.69s-.43-2.63-1-6.41c-.08-.54-.16-1.09-.25-1.67-.19-1.29-.39-2.67-.59-4.1-.2-1.42-.39-2.9-.58-4.37-.06-.48-.12-.94-.18-1.42-.11-.91-.23-1.82-.33-2.7-.12-1.07-.23-2.12-.33-3.13-.23-2.4-.4-4.56-.42-6.21-.02-.89,0-1.65.07-2.21.18-1.5.77-3.43,1.75-5.32,1.09-2.1,2.66-4.13,4.7-5.47,3.35-2.19,7.94-2.47,13.68,2.09,7.71,6.12,15.03,14.62,21.92,13.72"/>
        <polyline class="cls-3" points="72.33 139.79 79.19 139.79 84.17 139.79 88.83 139.79 88.84 139.79"/>
        <path class="cls-3" d="m56.99,126.85c1.09,1.83,2.28,3.63,3.52,5.38,1.6,2.26,3.29,4.44,4.94,6.45,4.91,5.93,9.63,10.41,11.55,11.51,1.34.77,2.98,1.38,4.78.87,1.55-.45,3.22-1.75,4.91-4.53.57-.94,1.14-2.05,1.72-3.36.25-.56.49-1.17.75-1.82"/>
        <path class="cls-3" d="m60.52,132.23h0l-15.06-1.92-8.97-1.14c-3.55,4.87-6.86,15.27-6.86,15.27l17.22,1.65"/>
        <path class="cls-3" d="m69.89,160.59s20.79-1.89,44.25-11.62"/>
        <path class="cls-3" d="m36.48,129.17c2.35,3.04,7.12,11.22,10.37,16.92,1.95,3.44,3.35,5.98,3.35,5.98,0,0,6.75-12.22,8.3-13.03,1.25-.64,3.18-1.92,4.51.14.32.5.61,1.2.84,2.16.52,2.14,1.74,6.12,2.96,9.91,1.51,4.69,3,9.09,3.08,9.34"/>
        <polyline class="cls-3" points="50.2 152.07 52.51 151.96 66.81 151.25 66.82 151.25"/>
        <polyline class="cls-3" points="52.52 152.07 69.88 160.58 69.89 160.59"/>
        <polyline class="cls-3" points="81.63 151.08 81.78 151.06 110.62 145.96"/>
        <polyline class="cls-3" points="104.17 140.44 110.62 145.96 114.14 148.97 124.11 157.5 139.15 151.66 165.71 141.34"/>
        <polyline class="cls-3" points="113.42 139.49 126.82 149.6 160.48 138.39"/>
        <path class="cls-3" d="m159.89,137.63l.1.06.67.41,5.12,3.13,7.97,4.86c-7.52,4.25-21.19,8.45-34.61,5.57"/>
        <polyline class="cls-3" points="119.13 138.8 127.54 145.96 154.46 137.11"/>
        <polyline class="cls-3" points="123.67 138.19 128.23 142.45 148.96 135.57"/>
        <path class="cls-3" d="m220.2,131.38c-.62-1.04-1.32-2.23-2.04-3.52-.17-.31-.35-.63-.53-.95-.17-.32-.35-.65-.52-.98-.54-1.01-1.07-2.08-1.6-3.18-.71-1.47-1.45-2.94-2.31-4.32-1.93-3.13-4.45-5.8-8.43-7.08-3.03-.98-6.92-1.14-12.04-.1-15.1,3.07-48.17-.57-48.18-2.07"/>
        <path class="cls-3" d="m173.76,146.09s.56-.27,2.92-.21c.48,0,1.02.03,1.66.08,3.76.25,26.3.03,44.85-9.93,0,0-1.25-1.79-2.96-4.63"/>
        <line class="cls-3" x1="137.86" y1="131.58" x2="140.89" y2="130.86"/>
        <path class="cls-3" d="m139.15,129.17s.57.69,1.74,1.69c1.59,1.35,4.26,3.25,8.07,4.71,1.63.62,3.46,1.16,5.5,1.53,1.32.25,2.72.43,4.21.53.44.03.88.05,1.32.06,4.69.16,9.36-.41,13.76-1.17,7.62-1.33,14.45-3.26,19.2-3.14,7.75.2,26.61-1.12,30.22,2.64"/>
        <path class="cls-3" d="m138.85,124.89h0c5.1,1.89,11.67,7.97,23.2,8.43,11.55.45,24.81-4.05,32.32-3.97,7.39.09,23.03-.34,25.81,2.04,0,0,0,0,.02.02.03.03.07.06.1.1"/>
        <path class="cls-3" d="m138.57,120.62c10.18,3.76,17.05,8.3,26.9,8.37,9.85.09,23.08-3.64,30.35-3.68,7.28-.03,20.6.36,21.81,1.6"/>
        <path class="cls-3" d="m138.28,116.33c15.26,5.64,22.42,8.63,30.57,8.34,8.16-.29,21.36-3.25,28.4-3.4s18.25,1.47,18.25,1.47"/>
        <polyline class="cls-3" points="139.15 129.17 138.86 124.89 138.57 120.62 138.44 118.61 138.28 116.33"/>
        <path class="cls-3" d="m76.22,56.47c2.52-3.98,13.7-10.18,15.26-10.83l-.46,5.76-.4,5.1-.31,4-.55,6.86"/>
        <path class="cls-3" d="m91.47,45.63l19.03,10.08c-7.64,4.97-15.03,9.9-18.08,13.51"/>
        <path class="cls-3" d="m78.98,58.76h0c2.47-2.24,7.93-6.48,12.02-7.38"/>
        <path class="cls-3" d="m82.18,61.41h0c2.87-2.97,5.68-4.59,8.43-4.92"/>
        <path class="cls-3" d="m84.7,63.45c1.87-1.73,3.74-2.73,5.61-2.97"/>
        <path class="cls-3" d="m79.19,139.79c.88,1.33,3.69,5.83,7.49,6.73"/>
        <path class="cls-3" d="m84.17,139.79c.2,1.95,1.59,3.09,4.23,3.37"/>
        <path class="cls-3" d="m117.77,99.44s3.55,3.84,7.62,8.1c1.09,1.14,2.22,2.31,3.32,3.45,1.18,1.2,2.32,2.35,3.38,3.39,2.32,2.29,4.21,4,4.95,4.33-2.63,1.79-5.21,3.65-7.87,5.39-5.27,3.46-10.83,6.5-17.45,7.87"/>
        <line class="cls-3" x1="129.17" y1="124.1" x2="137.04" y2="130.28"/>
        <path class="cls-3" d="m132.1,114.38h0c-5.7,5.04-12.92,8.66-21.37,11.18"/>
        <path class="cls-3" d="m128.75,110.96s-.03.02-.03.03c-5.45,4.24-11.74,7.29-18.79,8.79"/>
        <path class="cls-3" d="m125.39,107.54c-5.21,3.48-10.58,5.98-16.27,6.46"/>
        <line class="cls-3" x1="177.91" y1="11.21" x2="182.54" y2="22.64"/>
        <line class="cls-3" x1="214.88" y1="12.68" x2="209.95" y2="30.71"/>
        <polyline class="cls-3" points="208.28 10.85 204.03 30.02 204.03 30.03"/>
        <line class="cls-3" x1="201.57" y1="9.76" x2="200.02" y2="26.86"/>
        <line class="cls-3" x1="193.94" y1="9.35" x2="193.94" y2="23.87"/>
        <line class="cls-3" x1="185.96" y1="9.82" x2="187.51" y2="22.73"/>
        <polyline class="cls-3" points="173.76 136.52 179.59 139.01 176.68 145.88"/>
        <path class="cls-3" d="m144.03,16.92c.89-.29,1.91-.23,2.99,0"/>
        <path class="cls-3" d="m161.07,62.59s9.3-2.27,14.31-.12"/>
        <path class="cls-3" d="m105.08,70.97h0c.06.26,1.23,4.86,10.61,9.23"/>
        <path class="cls-3" d="m232.19,91.03c.38,2.02,1.79,13.07,1.01,18.03,0,0,0,.02,0,.03-.13.81-.32,1.46-.59,1.87"/>
        <polyline class="cls-1" points="29.15 110.4 45.7 125.5 45.77 125.56"/>
      </g>
    </g>
  </g>
</svg>