<?xml version="1.0" encoding="UTF-8"?>
<svg xmlns="http://www.w3.org/2000/svg" viewBox="0 0 269.86 197.64">
  <defs>
    <style>
      .cls-1 {
        fill: #ff4a31;
      }

      .cls-1, .cls-2, .cls-3, .cls-4, .cls-5, .cls-6, .cls-7, .cls-8 {
        stroke-width: 0px;
      }

      .cls-2 {
        fill: #fa7b46;
      }

      .cls-9 {
        stroke-miterlimit: 10;
      }

      .cls-9, .cls-10 {
        fill: none;
        stroke: #000;
      }

      .cls-3 {
        fill: #f3edd7;
      }

      .cls-10 {
        stroke-linecap: round;
        stroke-linejoin: round;
      }

      .cls-4 {
        fill: #333;
      }

      .cls-5 {
        fill: #f3e053;
      }

      .cls-6 {
        fill: #d2d296;
      }

      .cls-7 {
        fill: #fcc688;
      }

      .cls-8 {
        fill: #fbd594;
      }
    </style>
  </defs>
  <g id="_レイヤー_3" data-name="レイヤー 3">
    <g>
      <g>
        <rect class="cls-3" x=".24" y="163.06" width="3.61" height="5.02"/>
        <path class="cls-3" d="m269.61,190.59v6.55h-30.39l15.32-8.61c1.03,1.61,3.1,2.71,5.5,2.71s4.61-1.18,5.61-2.88l3.96,2.23Z"/>
        <path class="cls-3" d="m269.61,180.05v10.54l-3.96-2.23c.38-.65.59-1.38.59-2.14,0-1.3-.62-2.48-1.61-3.37l4.98-2.8Z"/>
        <path class="cls-3" d="m269.61,168.08v11.97l-4.98,2.8c-1.14-1.01-2.76-1.64-4.58-1.64s-3.3.58-4.43,1.51l-26.04-14.64h40.04Z"/>
        <polygon class="cls-3" points="269.61 83.22 269.61 88.97 1.13 88.97 .24 88.97 .24 83.22 269.61 83.22"/>
        <rect class="cls-3" x="265.63" y="163.06" width="3.99" height="5.02"/>
        <path class="cls-3" d="m266.24,186.22c0,.76-.21,1.49-.59,2.14l-5.41-3.04,4.39-2.47c1,.89,1.61,2.07,1.61,3.37Z"/>
        <path class="cls-3" d="m260.25,185.32l5.41,3.04c-1,1.7-3.13,2.88-5.61,2.88s-4.47-1.1-5.5-2.71l5.7-3.21Z"/>
        <rect class="cls-4" x="254.34" y="163.06" width="11.28" height="5.02"/>
        <path class="cls-3" d="m264.63,182.85l-4.39,2.47-4.63-2.6c1.13-.93,2.7-1.51,4.43-1.51,1.82,0,3.45.63,4.58,1.64Z"/>
        <path class="cls-3" d="m260.25,185.32l-5.7,3.21c-.44-.68-.69-1.47-.69-2.31,0-1.37.68-2.6,1.77-3.5l4.63,2.6Z"/>
        <path class="cls-3" d="m229.57,168.08l26.04,14.64c-1.09.9-1.77,2.13-1.77,3.5,0,.83.25,1.62.69,2.31l-15.32,8.61h-41.4l-15.62-8.78c.38-.65.59-1.38.59-2.14,0-1.3-.62-2.48-1.61-3.36l26.29-14.78h22.11Zm-5.95,18.14c0-2.76-2.24-5.01-5.01-5.01s-5.02,2.24-5.02,5.01,2.24,5.02,5.02,5.02,5.01-2.24,5.01-5.02Z"/>
        <polygon class="cls-3" points="254.34 168.08 229.57 168.08 223.88 168.08 223.88 163.06 254.34 163.06 254.34 168.08"/>
        <rect class="cls-4" x="212.6" y="163.06" width="11.28" height="5.02"/>
        <path class="cls-4" d="m218.61,181.21c2.76,0,5.01,2.24,5.01,5.01s-2.24,5.02-5.01,5.02-5.02-2.24-5.02-5.02,2.24-5.01,5.02-5.01Z"/>
        <path class="cls-3" d="m207.47,168.08l-26.29,14.78c-1.14-1.01-2.76-1.65-4.58-1.65s-3.3.58-4.43,1.51l-26.04-14.64h61.34Z"/>
        <polygon class="cls-3" points="182.13 168.08 182.13 163.06 212.6 163.06 212.6 168.08 207.47 168.08 182.13 168.08"/>
        <path class="cls-3" d="m197.82,197.14h-42.05l15.32-8.61c1.03,1.61,3.11,2.71,5.5,2.71s4.61-1.18,5.61-2.88l15.62,8.78Z"/>
        <path class="cls-3" d="m182.79,186.22c0,.76-.21,1.49-.59,2.14l-5.41-3.04,4.39-2.46c1,.88,1.61,2.06,1.61,3.36Z"/>
        <path class="cls-3" d="m176.79,185.32l5.41,3.04c-1,1.7-3.13,2.88-5.61,2.88s-4.47-1.1-5.5-2.71l5.7-3.21Z"/>
        <rect class="cls-4" x="170.85" y="163.06" width="11.28" height="5.02"/>
        <path class="cls-3" d="m176.59,181.21c1.82,0,3.45.63,4.58,1.65l-4.39,2.46-4.63-2.6c1.13-.93,2.7-1.51,4.43-1.51Z"/>
        <path class="cls-3" d="m176.79,185.32l-5.7,3.21c-.44-.68-.69-1.47-.69-2.31,0-1.37.68-2.6,1.77-3.5l4.63,2.6Z"/>
        <path class="cls-3" d="m146.12,168.08l26.04,14.64c-1.09.9-1.77,2.13-1.77,3.5,0,.83.25,1.62.69,2.31l-15.32,8.61h-41.4l-15.62-8.78c.38-.65.59-1.38.59-2.14,0-1.3-.62-2.48-1.61-3.36l26.29-14.78h22.11Zm-7,18.14c0-2.76-2.24-5.01-5.01-5.01s-5.02,2.24-5.02,5.01,2.24,5.02,5.02,5.02,5.01-2.24,5.01-5.02Z"/>
        <polygon class="cls-3" points="170.85 168.08 146.12 168.08 140.39 168.08 140.39 163.06 170.85 163.06 170.85 168.08"/>
        <rect class="cls-4" x="129.1" y="163.06" width="11.28" height="5.02"/>
        <path class="cls-4" d="m134.11,181.21c2.76,0,5.01,2.24,5.01,5.01s-2.24,5.02-5.01,5.02-5.02-2.24-5.02-5.02,2.24-5.01,5.02-5.01Z"/>
        <path class="cls-3" d="m124.01,168.08l-26.29,14.78c-1.14-1.01-2.76-1.65-4.58-1.65s-3.3.58-4.43,1.51l-26.04-14.64h61.34Z"/>
        <polygon class="cls-3" points="129.1 168.08 124.01 168.08 98.64 168.08 98.64 163.06 129.1 163.06 129.1 168.08"/>
        <path class="cls-3" d="m114.37,197.14h-42.05l15.32-8.61c1.03,1.61,3.1,2.71,5.5,2.71s4.61-1.18,5.61-2.88l15.62,8.78Z"/>
        <path class="cls-3" d="m99.34,186.22c0,.76-.21,1.49-.59,2.14l-5.41-3.04,4.39-2.46c1,.88,1.61,2.06,1.61,3.36Z"/>
        <path class="cls-3" d="m93.34,185.32l5.41,3.04c-1,1.7-3.13,2.88-5.61,2.88s-4.47-1.1-5.5-2.71l5.7-3.21Z"/>
        <rect class="cls-4" x="87.35" y="163.06" width="11.28" height="5.02"/>
        <path class="cls-3" d="m93.14,181.21c1.82,0,3.45.63,4.58,1.65l-4.39,2.46-4.63-2.6c1.13-.93,2.7-1.51,4.43-1.51Z"/>
        <path class="cls-3" d="m93.34,185.32l-5.7,3.21c-.44-.68-.69-1.47-.69-2.31,0-1.37.68-2.6,1.77-3.5l4.63,2.6Z"/>
        <path class="cls-3" d="m62.67,168.08l26.04,14.64c-1.09.9-1.77,2.13-1.77,3.5,0,.83.25,1.62.69,2.31l-15.32,8.61H30.73l-15.62-8.78c.38-.65.59-1.38.59-2.14,0-1.3-.62-2.48-1.61-3.36l26.29-14.78h22.3Zm-8.51,18.14c0-2.76-2.24-5.01-5.01-5.01s-5.02,2.24-5.02,5.01,2.24,5.02,5.02,5.02,5.01-2.24,5.01-5.02Z"/>
        <polygon class="cls-3" points="87.35 168.08 62.67 168.08 56.89 168.08 56.89 163.06 87.35 163.06 87.35 168.08"/>
        <rect class="cls-4" x="45.61" y="163.06" width="11.28" height="5.02"/>
        <path class="cls-4" d="m49.15,181.21c2.76,0,5.01,2.24,5.01,5.01s-2.24,5.02-5.01,5.02-5.02-2.24-5.02-5.02,2.24-5.01,5.02-5.01Z"/>
        <polygon class="cls-3" points="45.61 168.08 40.37 168.08 15.14 168.08 15.14 163.06 45.61 163.06 45.61 168.08"/>
        <path class="cls-3" d="m30.73,197.14H.24v-6.51l3.75-2.11c1.03,1.61,3.11,2.71,5.5,2.71s4.61-1.18,5.61-2.88l15.62,8.78Z"/>
        <path class="cls-3" d="m15.7,186.22c0,.76-.21,1.49-.59,2.14l-5.41-3.04,4.39-2.46c1,.88,1.61,2.06,1.61,3.36Z"/>
        <rect class="cls-4" x="3.86" y="163.06" width="11.28" height="5.02"/>
        <path class="cls-3" d="m9.7,185.32l5.41,3.04c-1,1.7-3.13,2.88-5.61,2.88s-4.47-1.1-5.5-2.71l5.7-3.21Z"/>
        <path class="cls-3" d="m9.5,181.21c1.82,0,3.45.63,4.58,1.65l-4.39,2.46-4.63-2.6c1.13-.93,2.7-1.51,4.43-1.51Z"/>
        <path class="cls-3" d="m9.7,185.32l-5.7,3.21c-.44-.68-.69-1.47-.69-2.31,0-1.37.68-2.6,1.77-3.5l4.63,2.6Z"/>
        <path class="cls-3" d="m.24,180.01l4.83,2.71c-1.09.9-1.77,2.13-1.77,3.5,0,.83.25,1.62.69,2.31l-3.75,2.11v-10.63Z"/>
        <polygon class="cls-6" points="212.6 163.06 182.13 163.06 170.85 163.06 140.39 163.06 129.1 163.06 98.64 163.06 87.35 163.06 56.89 163.06 45.61 163.06 15.14 163.06 3.86 163.06 .24 163.06 .24 88.97 1.13 88.97 269.61 88.97 269.61 163.06 265.63 163.06 254.34 163.06 223.88 163.06 212.6 163.06"/>
        <path class="cls-3" d="m.24,168.08h40.13l-26.29,14.78c-1.14-1.01-2.76-1.65-4.58-1.65s-3.3.58-4.43,1.51l-4.83-2.71v-11.93Z"/>
      </g>
      <g>
        <polyline class="cls-9" points="269.61 197.14 239.22 197.14 197.82 197.14 155.77 197.14 114.37 197.14 72.32 197.14 30.73 197.14 .24 197.14"/>
        <line class="cls-9" x1=".24" y1="83.22" x2="269.61" y2="83.22"/>
        <line class="cls-9" x1=".24" y1="88.97" x2="269.61" y2="88.97"/>
        <line class="cls-9" x1="265.63" y1="163.06" x2="269.61" y2="163.06"/>
        <line class="cls-9" x1="223.88" y1="163.06" x2="254.34" y2="163.06"/>
        <line class="cls-9" x1="182.13" y1="163.06" x2="212.6" y2="163.06"/>
        <line class="cls-9" x1="140.39" y1="163.06" x2="170.85" y2="163.06"/>
        <line class="cls-9" x1="98.64" y1="163.06" x2="129.1" y2="163.06"/>
        <line class="cls-9" x1="56.89" y1="163.06" x2="87.35" y2="163.06"/>
        <line class="cls-9" x1="15.14" y1="163.06" x2="45.61" y2="163.06"/>
        <line class="cls-9" x1=".24" y1="163.06" x2="3.86" y2="163.06"/>
        <line class="cls-9" x1="265.63" y1="168.08" x2="269.61" y2="168.08"/>
        <polyline class="cls-9" points="223.88 168.08 229.57 168.08 254.34 168.08"/>
        <polyline class="cls-9" points="182.13 168.08 207.47 168.08 212.6 168.08"/>
        <polyline class="cls-9" points="140.39 168.08 146.12 168.08 170.85 168.08"/>
        <polyline class="cls-9" points="98.64 168.08 124.01 168.08 129.1 168.08"/>
        <polyline class="cls-9" points="56.89 168.08 62.67 168.08 87.35 168.08"/>
        <polyline class="cls-9" points="15.14 168.08 40.37 168.08 45.61 168.08"/>
        <line class="cls-9" x1=".24" y1="168.08" x2="3.86" y2="168.08"/>
        <polyline class="cls-9" points="72.32 197.14 87.64 188.53 93.34 185.32 97.73 182.86 124.01 168.08"/>
        <polyline class="cls-9" points="114.37 197.14 98.75 188.36 93.34 185.32 88.71 182.72 62.67 168.08"/>
        <path class="cls-9" d="m139.12,186.22c0,2.77-2.24,5.02-5.01,5.02s-5.02-2.24-5.02-5.02,2.24-5.01,5.02-5.01,5.01,2.24,5.01,5.01Z"/>
        <path class="cls-9" d="m223.62,186.22c0,2.77-2.24,5.02-5.01,5.02s-5.02-2.24-5.02-5.02,2.24-5.01,5.02-5.01,5.01,2.24,5.01,5.01Z"/>
        <path class="cls-9" d="m97.73,182.86c1,.88,1.61,2.06,1.61,3.36,0,.76-.21,1.49-.59,2.14-1,1.7-3.13,2.88-5.61,2.88s-4.47-1.1-5.5-2.71c-.44-.68-.69-1.47-.69-2.31,0-1.37.68-2.6,1.77-3.5,1.13-.93,2.7-1.51,4.43-1.51,1.82,0,3.45.63,4.58,1.65Z"/>
        <polyline class="cls-9" points=".24 190.63 4 188.53 9.7 185.32 14.09 182.86 40.37 168.08"/>
        <polyline class="cls-9" points="30.73 197.14 15.11 188.36 9.7 185.32 5.07 182.72 .24 180.01"/>
        <path class="cls-9" d="m14.09,182.86c1,.88,1.61,2.06,1.61,3.36,0,.76-.21,1.49-.59,2.14-1,1.7-3.13,2.88-5.61,2.88s-4.47-1.1-5.5-2.71c-.44-.68-.69-1.47-.69-2.31,0-1.37.68-2.6,1.77-3.5,1.13-.93,2.7-1.51,4.43-1.51,1.82,0,3.45.63,4.58,1.65Z"/>
        <polyline class="cls-9" points="155.77 197.14 171.09 188.53 176.79 185.32 181.18 182.86 207.47 168.08"/>
        <polyline class="cls-9" points="197.82 197.14 182.2 188.36 176.79 185.32 172.17 182.72 146.12 168.08"/>
        <path class="cls-9" d="m181.18,182.86c1,.88,1.61,2.06,1.61,3.36,0,.76-.21,1.49-.59,2.14-1,1.7-3.13,2.88-5.61,2.88s-4.47-1.1-5.5-2.71c-.44-.68-.69-1.47-.69-2.31,0-1.37.68-2.6,1.77-3.5,1.13-.93,2.7-1.51,4.43-1.51,1.82,0,3.45.63,4.58,1.65Z"/>
        <polyline class="cls-9" points="239.22 197.14 254.54 188.53 260.25 185.32 264.63 182.85 269.61 180.05"/>
        <polyline class="cls-9" points="269.61 190.59 265.65 188.36 260.25 185.32 255.62 182.72 229.57 168.08"/>
        <path class="cls-9" d="m264.63,182.85c1,.89,1.61,2.07,1.61,3.37,0,.76-.21,1.49-.59,2.14-1,1.7-3.13,2.88-5.61,2.88s-4.47-1.1-5.5-2.71c-.44-.68-.69-1.47-.69-2.31,0-1.37.68-2.6,1.77-3.5,1.13-.93,2.7-1.51,4.43-1.51,1.82,0,3.45.63,4.58,1.64Z"/>
        <path class="cls-9" d="m54.16,186.22c0,2.77-2.24,5.02-5.01,5.02s-5.02-2.24-5.02-5.02,2.24-5.01,5.02-5.01,5.01,2.24,5.01,5.01Z"/>
        <rect class="cls-9" x="3.86" y="163.06" width="11.28" height="5.02"/>
        <rect class="cls-9" x="45.61" y="163.06" width="11.28" height="5.02"/>
        <rect class="cls-9" x="87.35" y="163.06" width="11.28" height="5.02"/>
        <rect class="cls-9" x="129.1" y="163.06" width="11.28" height="5.02"/>
        <rect class="cls-9" x="170.85" y="163.06" width="11.28" height="5.02"/>
        <rect class="cls-9" x="212.6" y="163.06" width="11.28" height="5.02"/>
        <rect class="cls-9" x="254.34" y="163.06" width="11.28" height="5.02"/>
      </g>
    </g>
  </g>
  <g id="Layer_1" data-name="Layer 1">
    <g>
      <g>
        <path class="cls-2" d="m164.03,88.22c.04-1.55,0-2.86,0-2.86l4.97-1.33,3.36,6.14h6.6s1.53,2.42,3.59,5.47c1.55,2.31,3.41,4.96,5.16,7.19,1.22,1.58,2.39,2.95,3.35,3.84,1.21,1.13,2.23,2.18,3.13,3.13,2.14,2.29,3.6,4.07,5.57,5.43,2.81,1.92,29.51,6.49,31.13,7.99,1.62,1.51,13.13,24.31,13.13,24.31,0,0-37.82-4.4-55.67-12.18-.34-.15-.66-.29-.98-.44-1.54-.71-3.07-1.55-4.55-2.5-3.47-2.2-6.76-4.97-9.82-8.02,0,0-.02,0-.03-.03-5.91-5.87-10.94-12.71-14.67-18.34-2.37-3.57-4.21-6.65-5.43-8.68-.23-.37-.42-.71-.61-1.01,0,0,.67-.13,1.68-.35,2.9-.61,8.6-1.92,9.31-2.9.53-.73.71-2.99.76-4.88Z"/>
        <path class="cls-1" d="m188.37,135.36c17.84,7.77,55.67,12.18,55.67,12.18,0,0-34.37,2.81-38.65,2.08-3.38-.57-5.38-2.28-7.25-4.17-.49-.49-.96-1.01-1.46-1.51-1.48-1.52-4.22-3.02-6.25-3.76,0,0,0,0,0,0-1.32-.57-2.05-4.82-2.05-4.82Z"/>
        <path class="cls-1" d="m196.68,143.94c.49.5.97,1.01,1.46,1.51-7.67,2.18-18.57,1.5-18.57,1.5,1.04-.44,7.68-6.49,8.42-7.15.28-.25,1.23-.07,2.44.38,0,0,0,0,0,0,2.03.75,4.77,2.24,6.25,3.76Z"/>
        <path class="cls-5" d="m195.04,88.09c.26,1.06-.54,2.08-1.63,2.08h-21.03l-3.36-6.14-.65-1.88h22.72c1.17,0,2.21.7,2.67,1.77.54,1.25.99,2.89,1.29,4.17Z"/>
        <path class="cls-5" d="m193.4,101.15c.87,3.51,1.56,7.4.8,8.66-.9-.95-1.92-2-3.13-3.13-.96-.89-2.13-2.26-3.35-3.84l5.69-1.69Z"/>
        <path class="cls-5" d="m193.41,90.17s1.16,3.97,0,4.26c-.27.07-.95.16-1.85.26-2.91.34-8.02.77-8.02.77l-.99.17c-2.06-3.05-3.59-5.47-3.59-5.47h14.44Z"/>
        <path class="cls-5" d="m193.4,101.15l-5.69,1.69c-1.74-2.24-3.61-4.89-5.16-7.19l.99-.17s5.1-.43,8.02-.77c0,0,1,3.05,1.84,6.45Z"/>
        <path class="cls-2" d="m188.37,135.36s.74,4.25,2.05,4.82c-1.21-.45-2.17-.63-2.44-.38-.74.66-7.38,6.71-8.42,7.15-.21.09-.4,0-.57-.23-.72-.89-1.28-3.88-2.23-6.12-1.18-2.8-3.65-3.01-4.39-2.11,0,0-8.16-3.93-11.84-7.18-3.69-3.25-3.99-5.96-3.99-5.96v-.36c2.83.06,5.52.04,7.91-.1v.03s1.98,3.59,4.55,4.47c2.58.88,13.82,3.02,13.82,3.02,1.48.95,3.01,1.79,4.55,2.5.32.15.64.29.98.44Z"/>
        <path class="cls-5" d="m185.46,81.46v.7h-13.41c1.05-.89,5.9-14.65,5.9-14.65,3.6,5.1,6.53,10.1,7.51,13.94Z"/>
        <path class="cls-2" d="m182.84,132.42s-11.24-2.13-13.82-3.02c-2.57-.88-4.55-4.47-4.55-4.47v-.03c3.11-.17,5.7-.57,7.37-1.25l1.15.73s.03.03.03.03c3.06,3.04,6.35,5.82,9.82,8.02Z"/>
        <path class="cls-1" d="m176.76,140.61c.94,2.24,1.51,5.23,2.23,6.12-2.2,2.26-7.03,2.14-10.88.18.22-.3.4-.68.54-1.14,1.03-3.39,2.99-6.4,3.73-7.28.74-.89,3.21-.68,4.39,2.11Z"/>
        <path class="cls-5" d="m177.96,67.51s-4.85,13.75-5.9,14.65h-3.69l-.25-.7c1.32-2.03,3.94-21.76,3.94-21.76,2.03,2.54,4.06,5.19,5.9,7.82Z"/>
        <path class="cls-1" d="m172.98,124.37l-1.15-.73c-2.43-1.98-6.11-4.64-9.63-7.09-5.14-3.59-9.92-6.75-9.92-6.75.23-.09.38-.15.44-.16.42-.16,1.81-1.34,2.25-1.79s3.34-1.81,3.34-1.81c3.74,5.62,8.76,12.47,14.67,18.34Z"/>
        <path class="cls-2" d="m164.46,147.51c-.22-.17-.36-.37-.38-.56-.15-1.03-1.18-2.8-2.06-4.86-.88-2.07-2.8-2.22-3.4-1.33,0,0-11.5-8.41-12.9-10.32s-2.27-6.03-2.27-6.03l.02-.21c4.18.39,8.78.7,13.1.81v.36s.29,2.71,3.98,5.96c3.68,3.24,11.84,7.18,11.84,7.18-.74.88-2.7,3.89-3.73,7.28-.14.46-.32.83-.54,1.14-1.06,1.53-2.87,1.23-3.66.61Z"/>
        <path class="cls-5" d="m172.06,59.69s-2.63,19.73-3.94,21.76l-.88-2.51-1.13.13-.02-.13,1.14-25.08c1.55,1.82,3.18,3.79,4.82,5.83Z"/>
        <polygon class="cls-5" points="168.36 82.16 169.01 84.04 164.04 85.36 162.57 82.18 161.39 79.61 162.88 79.44 166.11 79.07 167.24 78.94 168.11 81.46 168.36 82.16"/>
        <path class="cls-5" d="m167.24,53.86l-1.14,25.08.02.13-3.23.36-.06-.49.03-3.52.1-9.02h0s.17-17.29.17-17.29c1.24,1.4,2.63,3.01,4.12,4.75Z"/>
        <path class="cls-2" d="m171.83,123.64c-1.66.68-4.26,1.07-7.37,1.25-2.39.15-5.09.16-7.9.1-4.32-.1-8.93-.42-13.1-.81-5.09-.48-9.54-1.07-12.1-1.54l-.05-.05c1.07-1.14,2.63-2.85,4.25-4.83,0,0,7.48,1.1,14.73,1.4,4.33.18,8.58.08,11.1-.71l.81-1.91c3.52,2.45,7.2,5.11,9.63,7.09Z"/>
        <path class="cls-1" d="m164.07,146.95c.03.19.16.39.38.56-3.15,2.23-10.15,3.16-13.75,1,2.77-2.26,7.48-7.11,7.91-7.76.6-.88,2.51-.74,3.4,1.33.88,2.06,1.92,3.83,2.06,4.86Z"/>
        <path class="cls-5" d="m145.83,90.2c-4.26-.03-9.4-.21-11.81-.54.34-.15.7-.35,1.07-.6,1.53-1.05.63-2.82.63-2.82,1.29-.88.55-2.21.55-2.21h.03c.21,0,1.67.06,3.56.13,3.36.12,8.09.28,9.46.26.97-.02,3.22-.2,5.62-.52,3.05-.4,6.34-1.01,7.63-1.72l1.46,3.18s.03,1.31,0,2.86c-.49.1-5.45,1.06-9.39,1.59-1.31.18-2.51.31-3.4.35-1.25.05-3.22.07-5.41.04Z"/>
        <path class="cls-5" d="m164.03,88.22c-.05,1.89-.23,4.15-.76,4.88-.71.99-6.4,2.3-9.31,2.9l.68-6.2c3.94-.53,8.91-1.49,9.39-1.59Z"/>
        <path class="cls-8" d="m163.22,29.32c.03.49.04,1,.04,1.5,0,.68-.03,1.35-.08,2.02l-1.03-.06c-1.05.16-4.72,0-4.72,0l-.4.07c-.25-.83-.57-1.79-.9-2.71l1.3-.16,4.72-.59,1.07-.06Z"/>
        <path class="cls-8" d="m163.22,29.32l-1.07.06-4.72.59-1.3.16c-.28-.79-.56-1.57-.82-2.24l.8-.28s4.26-2.14,6.71-1.81c.22,1.14.35,2.31.41,3.52Z"/>
        <path class="cls-8" d="m128.19,25.04s-.07-.82-.13-2.11l1.01-.04c1.7-5.32,5.05-9.64,9.29-12,2.28-1.27,4.81-1.98,7.48-1.98,7.24,0,13.18,5.21,15.87,12.71l-1.91-.51-3.32,1.77,5.68.11c.27.9.49,1.84.66,2.8-2.44-.33-6.71,1.81-6.71,1.81l-.8.28c.26.68.55,1.46.82,2.24.33.93.65,1.88.9,2.71l.4-.07s3.67.16,4.72,0l1.03.06c-.31,4.55-1.7,8.7-3.87,12.01-2.81,4.31-6.93,7.21-11.75,7.77-.56.07-1.14.1-1.72.1-1.56,0-3.08-.24-4.52-.7l-.3,2.14-5.08,5.72-.22-.19c-2.11-3.21-5.1-23.24-5.1-23.24-.94.43-1.68-.16-2.2-1.09-.56-1-.88-2.37-.94-3.28-.11-1.77-.11-2.96.33-6.01.06-.42.2-.77.39-1.04Zm15.6-.75l5.53-2.32h-6.86l-5.75,6.53,7.08-4.2Z"/>
        <path class="cls-2" d="m163.12,49.11l-.17,17.28c-.55-1.99-5.76-9.48-6.01-9.83h0s6.19-7.45,6.19-7.45Z"/>
        <path class="cls-2" d="m163.12,49.11l-6.19,7.44h0s-3.35,4.05-3.35,4.05l-2.11,2.55c-1.3-2.34-2.7-4.38-3.84-5.6.05-2.82.04-4.83.04-4.83-.03.05-.04.11-.08.17l-.03-.28c4.82-.56,8.94-3.47,11.75-7.77.88.99,2.21,2.45,3.8,4.26Z"/>
        <path class="cls-2" d="m162.95,66.39h0s-.1,9.03-.1,9.03c-1.4-2.53-9.27-14.82-9.27-14.82l3.35-4.04c.25.35,5.47,7.83,6.01,9.83Z"/>
        <path class="cls-2" d="m162.82,78.94l.06.49-1.49.17,1.19,2.57c-1.28.72-4.58,1.33-7.63,1.72.05-.25.76-4,.64-8.98-.07-3.21-1.97-7.9-4.13-11.78l2.11-2.55s7.87,12.29,9.27,14.82l-.03,3.52Z"/>
        <path class="cls-5" d="m162.2,116.56l-.81,1.91c-2.52.79-6.77.89-11.1.71v-.03l.23-8.69c.71-.26,1.35-.5,1.76-.65,0,0,4.78,3.16,9.92,6.75Z"/>
        <path class="cls-4" d="m162.16,23l-5.68-.11,3.32-1.77,1.91.51c.16.45.32.9.45,1.37Z"/>
        <path class="cls-7" d="m140.34,105.19c-1.72.29-1.16-2.23-.68-2.57.11-.09.36-.21.69-.35,0,0,.24-2.2.68-2.86.44-.67,1.59-1.14,2.68-1.78.6-.34,1.27-.42,2.11-.39.71.02,1.53.12,2.54.22,2.21.23,3.33.53,4.07.05l.44-.16c1.21,2.03,3.06,5.1,5.43,8.68,0,0-2.89,1.36-3.34,1.81s-1.84,1.63-2.25,1.79c-.06.02-.22.08-.44.16-.41.15-1.05.39-1.76.65-1.74.65-3.87,1.43-3.87,1.43-.17,0-1.38.62-2.24.89-.87.27-1.29-.46-1.5-.8-.2-.35-.34-1.14.16-1.68-.11.04-.23.09-.34.12-.86.27-1.28-.46-1.49-.81-.03-.05-.06-.11-.08-.18-.16-.41-.18-1.14.23-1.59h0c-.67.04-1.02-.56-1.2-.86-.21-.35-.33-1.25.16-1.79Z"/>
        <path class="cls-2" d="m155.59,74.93c.12,4.97-.59,8.73-.64,8.98-2.41.32-4.65.5-5.62.52-1.38.02-6.1-.14-9.46-.26v-.13s4.71-5.54,6.31-10.3c1.04-3.09,1.36-11.01,1.46-16.19,1.14,1.22,2.54,3.26,3.84,5.6,2.16,3.87,4.06,8.57,4.13,11.78Z"/>
        <path class="cls-5" d="m154.64,89.81l-.68,6.2c-1.01.22-1.68.35-1.68.35.18.29.38.63.61,1.01l-.44.16c-.75.48-1.86.17-4.07-.05-1.01-.1-1.83-.2-2.54-.22h0v-7.05c2.19.03,4.16,0,5.41-.04.88-.03,2.09-.16,3.4-.35Z"/>
        <path class="cls-2" d="m145.71,130.43c1.4,1.92,12.9,10.32,12.9,10.32-.43.65-5.14,5.49-7.91,7.76-1.01.82-1.77,1.3-1.97,1.11-.14-.14-.42-.5-.81-1.02-1.6-2.2-4.93-7.07-6.13-7.55-.16-.07-.35-.07-.55,0l-6.12-9.13-4.1-6.11-1.16-1.72s.55-.55,1.44-1.48l.05.05c2.56.48,7.01,1.07,12.1,1.54l-.02.21s.87,4.12,2.27,6.03Z"/>
        <path class="cls-5" d="m150.52,110.45l-.23,8.69v.03c-7.25-.3-14.73-1.4-14.73-1.4,2.08-2.55,4.25-5.55,5.61-8.34.02.07.04.13.08.18.21.35.63,1.07,1.49.81.1-.03.23-.08.34-.12-.49.54-.36,1.33-.16,1.68.21.34.63,1.07,1.5.8.86-.28,2.06-.89,2.24-.89,0,0,2.13-.78,3.87-1.43Z"/>
        <polygon class="cls-4" points="149.32 21.97 143.79 24.29 136.71 28.49 142.47 21.97 149.32 21.97"/>
        <path class="cls-2" d="m147.67,52.73s0,2.01-.04,4.83c-.1,5.18-.42,13.1-1.46,16.19-1.6,4.76-6.3,10.3-6.3,10.3v.13c-1.9-.07-3.36-.12-3.57-.13l.02-.51c.52-.67.48-1.57,0-2.59-.28-.3-.8-.38-1.21-.31l-.02-.1c.84-.22,1.18-1.94-.91-2.68-.64-.2-1.42-.32-2.25-.4l2.25-5.03s11.69-15.76,13.42-19.52c.03-.06.05-.12.08-.17Z"/>
        <path class="cls-2" d="m147.56,52.62l.03.28c-1.73,3.76-13.42,19.52-13.42,19.52l-2.1-8.18,3.87-4.35,5.08-5.72.3-2.14c1.45.46,2.96.7,4.52.7.58,0,1.16-.03,1.72-.1Z"/>
        <path class="cls-5" d="m145.83,97.25h0c-.85-.03-1.52.06-2.11.4-1.08.63-2.24,1.11-2.68,1.78-.43.66-.68,2.86-.68,2.86l-11.86-.59h0c.35-4.9.55-8.59.55-8.59l-.02-.1c1.33-.23,2.69-.88,4.01-1.3,1.64-.52.98-2.05.98-2.05,2.41.33,7.55.5,11.81.54v7.05Z"/>
        <path class="cls-1" d="m141.8,141.05c1.2.48,4.52,5.35,6.13,7.55-4.28.37-9.08.63-13.36-.49,2.53-3.07,5.14-6.66,6.68-7.06.21-.06.39-.06.55,0Z"/>
        <path class="cls-5" d="m141.39,107.83h0c-.42.47-.39,1.2-.23,1.6-1.59.29-13.25.03-13.25.03.23-2.68.42-5.36.59-7.77h0l11.86.59c-.33.14-.58.26-.69.35-.49.34-1.04,2.85.68,2.57-.49.54-.36,1.44-.16,1.79.18.29.54.9,1.2.85Z"/>
        <path class="cls-2" d="m100.72,143.12c-3.16,1.68-2.64,3.5-3.22,8.25-.03.24-.06.49-.1.75,0,0-1.48-.88-3.1-1.77-.76-.42-2.56-2.06-4.38-3.81-2.05-1.99-4.14-4.12-4.77-4.75-1.18-1.18-3.4.89-3.54,2.51s0,7.82,0,7.82c-2.21,1.03-12.92-2.72-12.92-2.72,3.72-1.62,6.58-2.89,6.58-2.89,0,0-1.92-2.21-6.04-6.71-.45.95-11.8,13.05-17.41,16.6,0,0-4.72-5.75-6.49-10.48-1.26-3.37-3.18-10.04-4.42-16.05-.51-2.42-.9-4.72-1.11-6.66,5.09.44,15.93-3.99,18.14-4.65,2.22-.67,11.29-4.43,11.29-4.43,0-4.08-1.21-9.54-2.62-14.46-1.85-6.54-4.02-12.1-4.02-12.1.29-1,1.47-3.26,3.15-6.22,5.89-10.39,17.97-29.3,19.57-31.56,2.06-2.89,11.21-16.73,13.87-18.31,2.65-1.59,13.13-3.87,13.13-3.87,1.1,5.99,3.35,18.76,5.82,29.94h0s-1.16,18.65-1.16,18.65c2.13.49,3.84.9,4.63,1.14,0,0-.06.17-.18.49-.55,1.45-2.26,5.93-4.45,11.4-3.88,9.72-9.27,22.58-12.33,27.03-.62.89-1.27,1.86-1.97,2.88-1.07,1.57-2.22,3.24-3.39,4.93,0,0,15.23,9.64,35.81,7.86l.04-.03,6.12,9.13c-1.54.41-4.15,4-6.68,7.06-.15.16-.28.33-.42.49-.75-.49-2.13-2.4-3.59-4.59-2.42-3.66-5-8.11-5-8.11-.69,1.6-4.63,5.03-8.6,8.05-3.7,2.83-7.44,5.31-8.65,5.68-1.07.32-1.9-.12-2.8-1.02-1.21-1.22-2.56-3.28-4.79-5.48Z"/>
        <path class="cls-5" d="m127.91,109.46s11.67.26,13.25-.03c-1.36,2.79-3.53,5.79-5.61,8.34-1.61,1.98-3.17,3.69-4.25,4.83-.88.94-1.44,1.48-1.44,1.48l1.16,1.72-.42.28c-1.73.09-3.4.09-5,0l.03-.89c.84-1.15,1.65-8.42,2.26-15.74Z"/>
        <path class="cls-2" d="m132.07.5l6.29,10.39c-4.24,2.37-7.59,6.68-9.29,12l-1.01.04c-.09-1.9-.13-4.79.13-7.5.44-4.54,2.1-13.83,3.87-14.94Z"/>
        <path class="cls-7" d="m135.72,86.25s.89,1.77-.63,2.82c-.36.25-.73.45-1.07.6,0,0,.66,1.53-.98,2.05-1.33.42-2.69,1.07-4.01,1.3-.31.06-.63.1-.94.1-1.16,0-2.49-.23-3.79-.55-.79-.19-1.56-.43-2.29-.68-1.72-.6-3.14-1.27-3.74-1.69-.31-.22-1.31-.94-1.31-.94,2.18-5.47,3.89-9.95,4.45-11.4h1.36s.7-.1,1.78-.21c1.87-.19,4.9-.42,7.37-.19.83.08,1.61.2,2.25.4,2.09.74,1.75,2.46.91,2.68-.08,0-.16.02-.24,0-1-.1-4.39-1.29-5.42.93-.16.88,1.25,1.77,3.09,1.47,1.84-.29,1.73-1.66,2.03-2.03.1-.14.31-.23.55-.28.42-.07.94,0,1.21.31.49,1.02.53,1.92,0,2.59l-.02.51h-.03s.74,1.33-.55,2.21Z"/>
        <path class="cls-2" d="m135.93,59.88l-3.87,4.35c-1.55-3.43-3.67-28.87-3.67-28.87h0c.52.94,1.26,1.53,2.2,1.09,0,0,3,20.03,5.1,23.24l.22.19Z"/>
        <path class="cls-5" d="m113.31,123.97c1.66.51,3.48.97,5.46,1.33,2.11.39,4.39.68,6.84.78,1.6.08,3.27.08,5,0l.42-.28,4.1,6.11-.04.03c-20.58,1.78-35.81-7.86-35.81-7.86,1.17-1.69,2.31-3.36,3.39-4.93.23.17,4.11,2.84,10.65,4.83Z"/>
        <path class="cls-2" d="m135.08,80.52l.02.1c-.24.04-.45.14-.55.28-.29.36-.19,1.73-2.03,2.03-1.85.29-3.25-.59-3.09-1.47,1.03-2.22,4.42-1.03,5.42-.93.09,0,.16,0,.24,0Z"/>
        <path class="cls-2" d="m132.07,64.23l2.1,8.18-2.25,5.03c-2.47-.23-5.49,0-7.37.19-1.92-1.78-4.26-10.32-6.42-20.07h0c-2.48-11.19-4.72-23.96-5.82-29.95,0,0,7.08-13.13,8.41-15.63,1.33-2.51,8.11-9.74,11.36-11.47-1.78,1.11-3.43,10.4-3.87,14.94-.26,2.7-.22,5.6-.13,7.5.06,1.28.13,2.11.13,2.11-.19.27-.33.62-.39,1.04-.44,3.05-.44,4.24-.33,6.01.06.91.37,2.28.94,3.28h0s2.11,25.44,3.67,28.87Z"/>
        <path class="cls-1" d="m130.56,144l-.69.19c-4.14,1.64-12.9-.25-12.9-.25,3.97-3.02,7.9-6.45,8.6-8.05,0,0,2.58,4.45,5,8.11Z"/>
        <path class="cls-5" d="m129.03,93.01l.02.1s-.2,3.69-.55,8.59c-.16,2.4-.36,5.09-.59,7.77-.62,7.32-1.42,14.59-2.26,15.74l-.03.89c-2.44-.1-4.73-.39-6.84-.78l.02-.11c.68-.77,1.57-4.97,2.42-10.11.31-1.9.62-3.93.92-5.95.37-2.56.73-5.11,1.03-7.44.68-5.17,1.14-9.13,1.14-9.13h0c1.3.32,2.63.55,3.79.55.31,0,.63-.03.94-.1Z"/>
        <path class="cls-5" d="m124.29,92.55h0s-.46,3.98-1.14,9.14h0l-6.69-.7c2.76-4.19,4.88-7.77,5.55-9.12h0c.73.24,1.5.49,2.29.68Z"/>
        <path class="cls-5" d="m123.15,101.69h0c-.3,2.32-.66,4.88-1.03,7.44l-.12-.02-10.33-1.27c1.7-2.3,3.33-4.65,4.78-6.85l6.69.7Z"/>
        <path class="cls-2" d="m124.55,77.63c-1.07.1-1.78.21-1.78.21h-1.36c.12-.32.18-.49.18-.49-.79-.24-2.5-.65-4.63-1.14l1.16-18.64c2.16,9.75,4.5,18.3,6.42,20.07Z"/>
        <path class="cls-5" d="m122.01,109.11l.12.02c-.29,2.03-.61,4.06-.92,5.95-.6.04-2.44-.18-4.58-.5-4-.6-9.08-1.51-9.08-1.51,1.38-1.62,2.77-3.41,4.13-5.23l10.33,1.27Z"/>
        <path class="cls-1" d="m122.01,91.86h0c-.67,1.36-2.78,4.94-5.55,9.13-1.46,2.19-3.09,4.55-4.78,6.85-1.35,1.83-2.75,3.61-4.13,5.23-.99,1.17-1.97,2.24-2.92,3.2,3.06-4.45,8.45-17.31,12.33-27.03,0,0,1,.72,1.31.94.6.42,2.02,1.09,3.74,1.69Z"/>
        <path class="cls-5" d="m116.63,114.58c2.14.32,3.98.55,4.58.5-.85,5.14-1.73,9.34-2.42,10.11l-.02.11c-1.98-.36-3.8-.82-5.46-1.33l3.32-9.39Z"/>
        <path class="cls-5" d="m116.63,114.58l-3.32,9.39c-6.54-1.98-10.42-4.65-10.65-4.83.69-1.01,1.35-1.98,1.97-2.88.95-.95,1.93-2.03,2.92-3.2,0,0,5.08.91,9.08,1.51Z"/>
        <path class="cls-1" d="m105.51,148.6c-1.03,1.49-8.02,2.77-8.02,2.77.58-4.75.06-6.57,3.22-8.25,2.24,2.19,3.58,4.26,4.79,5.48Z"/>
        <path class="cls-1" d="m89.92,146.53l-.2.42s-5.89,3.99-8.11,5.17c0,0-.15-6.2,0-7.82s2.37-3.69,3.54-2.51c.62.63,2.71,2.76,4.77,4.75Z"/>
        <path class="cls-1" d="m69.23,139.8c4.13,4.5,6.04,6.71,6.04,6.71,0,0-2.86,1.27-6.58,2.89-6.53,2.85-15.75,6.81-16.87,7,5.61-3.54,16.96-15.64,17.41-16.6Z"/>
        <path class="cls-2" d="m66.61,99.67c1.4,4.91,2.62,10.37,2.62,14.46,0,0-9.07,3.76-11.29,4.43,2.66-7.52,4.95-16.97,8.68-18.88Z"/>
        <path class="cls-2" d="m39.42,117.12c.08-3.21.43-6.91,1.07-9.99.35-1.66.78-3.15,1.29-4.28.39-.88,1.1-1.78,2.04-2.71h0c1.68-1.67,4.1-3.41,6.74-5.12,4.09-2.65,8.71-5.23,12.01-7.44,0,0,2.17,5.56,4.02,12.1-3.73,1.92-6.01,11.36-8.68,18.88-2.21.66-13.05,5.09-18.14,4.65-.3-1.35-.42-3.56-.37-6.08Z"/>
        <path class="cls-2" d="m65.73,81.35c-1.67,2.96-2.85,5.23-3.15,6.22-2.51-1.7-6.02-4.32-8.64-6.21h0c1.21-4.24,4.2-4.52,5.97-4.63s2.88,1.44,5.81,4.62Z"/>
        <path class="cls-2" d="m53.95,81.36c2.62,1.9,6.13,4.52,8.64,6.21-3.3,2.2-7.92,4.78-12.01,7.44-5.03-2.35-9.34-4.12-11.45-6.21-1.1-1.1-1.9-2.45-2.74-3.35l.09-.08c0-.44,4.2-4.1,6.3-5.43,2.11-1.33,6.53-1.44,7.75-.9.48.22,1.78,1.13,3.42,2.32Z"/>
        <path class="cls-2" d="m50.58,95.01c-2.64,1.72-5.06,3.45-6.74,5.12h0c-5.15-1.05-9.57-3.22-12.11-5.12-2.37-1.77-4.55-2.98-6.53-3.12l2.22-.02c.11-2.45,4.2-6.4,6.41-7.29,1.06-.42,1.84.03,2.57.86.84.9,1.64,2.25,2.74,3.35,2.11,2.1,6.42,3.87,11.45,6.21Z"/>
        <path class="cls-2" d="m43.82,100.13c-.94.94-1.65,1.84-2.04,2.71-.51,1.13-.94,2.62-1.29,4.28-.81-.19-8.09-1.78-9.92-1.86-.79-.04-3.16.06-5.6.29-2.25.22-4.55.54-5.69.94-1.85.29-1.95-1.24-1.95-1.24-.44-.68,5.31-13.37,7.42-13.39.15,0,.29,0,.43.02,1.98.14,4.16,1.35,6.53,3.12,2.54,1.91,6.96,4.07,12.11,5.12Z"/>
        <path class="cls-2" d="m40.9,129.87l-.41.09c-2.36.35-4.62-.31-6.66-1.47h0c-1.06-.88-1.71-3.75-2.09-6.6h0c-.46-3.38-.56-6.73-.56-6.73,2.59.28,5.3,1.46,8.24,1.98-.05,2.52.07,4.73.37,6.08.21,1.94.6,4.25,1.11,6.66Z"/>
        <path class="cls-2" d="m40.5,107.13c-.64,3.09-1,6.79-1.07,9.99-2.94-.51-5.65-1.7-8.24-1.98-2.45-.26-4.78.29-7.1,2.97,1.14-1.75,1.31-5.31,1.21-8.2-.07-2.42-.32-4.36-.32-4.36,2.44-.23,4.81-.34,5.6-.29,1.84.09,9.11,1.67,9.92,1.86Z"/>
        <path class="cls-1" d="m33.84,128.47h0c-5.58-3.16-9.59-10.07-9.74-10.35,2.49,2.57,7.39,3.69,7.65,3.75h0c.38,2.85,1.03,5.72,2.09,6.6Z"/>
        <path class="cls-1" d="m31.18,115.14s.1,3.35.56,6.73c-.26-.06-5.17-1.18-7.65-3.75h0c2.31-2.7,4.65-3.24,7.1-2.98Z"/>
        <path class="cls-1" d="m25.29,109.92c.1,2.89-.07,6.45-1.21,8.2-.61.92-5.09-9.74-5.53-10.99-.08-.23.2-.43.73-.62,0,0,3.74,4.31,5.87,3.42h.15Z"/>
        <path class="cls-1" d="m25.29,109.92h-.15c-2.13.89-5.87-3.41-5.87-3.41,1.14-.41,3.44-.73,5.69-.94,0,0,.25,1.94.32,4.36Z"/>
      </g>
      <g>
        <path class="cls-10" d="m129.07,22.89c1.7-5.32,5.05-9.64,9.29-12,2.28-1.27,4.81-1.98,7.48-1.98,7.24,0,13.18,5.21,15.87,12.71.16.45.32.9.45,1.37.27.9.49,1.84.66,2.8.22,1.14.35,2.31.41,3.52.03.49.04,1,.04,1.5,0,.68-.03,1.35-.08,2.02-.31,4.55-1.7,8.7-3.87,12.01-2.81,4.31-6.93,7.21-11.75,7.77-.56.07-1.14.1-1.72.1-1.56,0-3.08-.24-4.52-.7-1.85-.59-3.6-1.53-5.17-2.76"/>
        <polygon class="cls-10" points="136.71 28.49 142.47 21.97 149.32 21.97 143.79 24.29 136.71 28.49"/>
        <path class="cls-10" d="m139.81,28.49s7.23-.59,10.48,1.33c-.74,1.48-.52,5.1-9.96,4.35"/>
        <path class="cls-10" d="m156.11,27.61s4.26-2.14,6.71-1.81"/>
        <path class="cls-10" d="m157.44,32.77s3.67.16,4.72,0"/>
        <line class="cls-10" x1="157.44" y1="29.97" x2="162.16" y2="29.38"/>
        <path class="cls-10" d="m149.32,30.82s-5.31-.77-7.23,0"/>
        <line class="cls-10" x1="152.28" y1="34.27" x2="152.28" y2="36.46"/>
        <path class="cls-10" d="m154.49,25.76s.36.88.82,2.12c.26.68.55,1.46.82,2.24.33.93.65,1.88.9,2.71.37,1.27.58,2.28.4,2.52-.59.8-.59,1.83-2.95,1.83"/>
        <path class="cls-10" d="m150.29,38.82s-2.88,4.71-5.24,5.16"/>
        <path class="cls-10" d="m157.44,38.09s.7,2.43,2.37,2.5"/>
        <path class="cls-10" d="m155.08,41.4c-.88.67-4.13,1.26-4.13,1.26,0,0,2.22,1.47,3.54,1.33"/>
        <polyline class="cls-10" points="161.71 21.63 159.8 21.12 156.48 22.89 162.16 23"/>
        <path class="cls-10" d="m133.17,27.61c-.67-3.05-3.83-4.23-4.97-2.57-.19.27-.33.62-.39,1.04-.44,3.05-.44,4.24-.33,6.01.06.91.37,2.28.94,3.28.52.94,1.26,1.53,2.2,1.09,1.32-.61,1.98-1.82,1.98-1.82"/>
        <path class="cls-10" d="m128.19,25.04s-.07-.82-.13-2.11c-.09-1.9-.13-4.79.13-7.5.44-4.54,2.1-13.83,3.87-14.94l6.29,10.39"/>
        <path class="cls-10" d="m135.72,59.69c-2.11-3.21-5.1-23.24-5.1-23.24"/>
        <path class="cls-10" d="m128.4,35.37s2.11,25.44,3.67,28.87l3.87-4.35,5.08-5.72"/>
        <path class="cls-10" d="m132.07,64.23l2.1,8.18s11.69-15.76,13.42-19.52c.03-.06.05-.12.08-.17,0,0,0,2.01-.04,4.83-.1,5.18-.42,13.1-1.46,16.19-1.6,4.76-6.3,10.3-6.3,10.3"/>
        <path class="cls-10" d="m147.62,57.55c1.14,1.22,2.54,3.26,3.84,5.6,2.16,3.87,4.06,8.57,4.13,11.78.12,4.97-.59,8.73-.64,8.98h0"/>
        <path class="cls-10" d="m159.32,44.85c.88.99,2.21,2.45,3.8,4.26,1.24,1.4,2.63,3.01,4.12,4.75,1.55,1.82,3.18,3.79,4.82,5.83,2.03,2.54,4.06,5.19,5.9,7.82,3.6,5.1,6.53,10.1,7.51,13.94"/>
        <line class="cls-10" x1="167.24" y1="53.86" x2="166.09" y2="78.94"/>
        <line class="cls-10" x1="134.17" y1="72.42" x2="131.91" y2="77.44"/>
        <path class="cls-10" d="m136.27,84.04s.74,1.33-.55,2.21c-.55.37-1.73,1.33-2.03,1.33"/>
        <path class="cls-10" d="m135.72,86.25s.89,1.77-.63,2.82c-.36.25-.73.45-1.07.6-1.08.49-1.95.51-1.95.51"/>
        <path class="cls-10" d="m116.96,89.24s1,.72,1.31.94c.6.42,2.02,1.09,3.74,1.69.73.25,1.5.49,2.29.68,1.3.33,2.63.55,3.79.55.31,0,.63-.03.94-.1,1.33-.23,2.69-.88,4.01-1.3,1.64-.52.98-2.05.98-2.05,2.41.33,7.55.5,11.81.54,2.19.03,4.16,0,5.41-.04.88-.03,2.09-.16,3.4-.35,3.94-.53,8.91-1.49,9.39-1.59.03,0,.04,0,.04,0"/>
        <path class="cls-10" d="m88.54,138.1c1.55-.93,6.27-7.55,10.73-14.02,1.17-1.69,2.31-3.36,3.39-4.93.69-1.01,1.35-1.98,1.97-2.88,3.06-4.45,8.45-17.31,12.33-27.03,2.18-5.47,3.89-9.95,4.45-11.4.12-.32.18-.49.18-.49-.79-.24-2.5-.65-4.63-1.14-6.65-1.53-17.43-3.79-17.43-3.79,0,0-.55.13-1.26.48-.64.31-1.42.81-1.98,1.55-.39.52-2.5,5.17-5.44,11.36-5.95,12.5-15.26,31.19-20.59,34.44"/>
        <path class="cls-10" d="m104.63,116.27c.95-.95,1.93-2.03,2.92-3.2,1.38-1.62,2.77-3.41,4.13-5.23,1.7-2.3,3.33-4.65,4.78-6.85,2.76-4.19,4.88-7.77,5.55-9.12"/>
        <path class="cls-10" d="m121.41,77.84h1.36s.7-.1,1.78-.21c1.87-.19,4.9-.42,7.37-.19.83.08,1.61.2,2.25.4,2.09.74,1.75,2.46.91,2.68-.08,0-.16.02-.24,0-1-.1-4.39-1.29-5.42.93-.16.88,1.25,1.77,3.09,1.47,1.84-.29,1.73-1.66,2.03-2.03.1-.14.31-.23.55-.28.42-.07.94,0,1.21.31.49,1.02.53,1.92,0,2.59-.15.19-.35.36-.6.51-1.11.66-2.68,1.33-2.68,1.33"/>
        <path class="cls-10" d="m118.12,57.56c2.16,9.75,4.5,18.3,6.42,20.07"/>
        <path class="cls-10" d="m132.07.5c-3.25,1.73-10.04,8.96-11.36,11.47-1.33,2.5-8.41,15.63-8.41,15.63,1.1,5.99,3.35,18.76,5.82,29.94"/>
        <path class="cls-10" d="m82.64,62.13s5.31,5.46,8.12,7.23c2.8,1.77,7.51,3.54,7.51,3.54"/>
        <path class="cls-10" d="m70.99,89.24c3.54-1.14,19.86-3.43,19.86-3.43"/>
        <path class="cls-10" d="m43.83,100.13c1.68-1.67,4.1-3.41,6.74-5.12,4.09-2.65,8.71-5.23,12.01-7.44-2.51-1.7-6.02-4.32-8.64-6.21-1.65-1.2-2.95-2.11-3.42-2.32-1.21-.54-5.64-.42-7.75.9-2.1,1.33-6.3,4.98-6.3,5.43"/>
        <path class="cls-10" d="m112.3,27.61s-10.48,2.29-13.13,3.87c-2.66,1.59-11.8,15.43-13.87,18.31-1.6,2.25-13.68,21.16-19.57,31.56-1.67,2.96-2.85,5.23-3.15,6.22,0,0,2.17,5.56,4.02,12.1,1.4,4.91,2.62,10.37,2.62,14.46,0,0-9.07,3.76-11.29,4.43-2.21.66-13.05,5.09-18.14,4.65-.3-1.35-.42-3.56-.37-6.08.08-3.21.43-6.91,1.07-9.99.35-1.66.78-3.15,1.29-4.28.39-.88,1.1-1.78,2.04-2.71"/>
        <path class="cls-10" d="m57.93,118.56c2.66-7.52,4.95-16.97,8.68-18.88"/>
        <path class="cls-10" d="m105.51,51.29s-3.32-3.99-3.1-7.31c-3.76,2.66-6.49,5.82-6.49,5.82,0,0,6.72,6.73,9.59,7.76"/>
        <path class="cls-10" d="m65.73,81.35c-2.93-3.18-4.04-4.73-5.81-4.62s-4.76.39-5.97,4.62"/>
        <path class="cls-10" d="m50.58,95.01c-5.03-2.35-9.34-4.12-11.45-6.21-1.1-1.1-1.9-2.45-2.74-3.35-.74-.82-1.52-1.27-2.57-.86-2.21.89-6.3,4.84-6.41,7.29"/>
        <path class="cls-10" d="m43.83,100.13h0c-5.15-1.05-9.57-3.22-12.11-5.12-2.37-1.77-4.55-2.98-6.53-3.12-.15-.02-.29-.02-.43-.02-2.11.02-7.86,12.71-7.42,13.39,0,0,.1,1.53,1.95,1.24"/>
        <path class="cls-10" d="m24.97,105.56s.25,1.94.32,4.36c.1,2.89-.07,6.45-1.21,8.2-.61.92-5.09-9.74-5.53-10.99-.08-.23.2-.43.73-.62,1.14-.41,3.44-.73,5.69-.94,2.44-.23,4.81-.34,5.6-.29,1.84.09,9.11,1.67,9.92,1.86"/>
        <path class="cls-10" d="m19.28,106.5s3.74,4.31,5.87,3.42"/>
        <path class="cls-10" d="m24.09,118.12c2.49,2.57,7.39,3.69,7.65,3.75"/>
        <path class="cls-10" d="m39.43,117.12h0c-2.94-.51-5.65-1.7-8.24-1.98-2.45-.26-4.78.29-7.1,2.97"/>
        <path class="cls-10" d="m24.08,118.12h0c.16.29,4.16,7.19,9.74,10.37,2.05,1.16,4.31,1.82,6.66,1.47"/>
        <path class="cls-10" d="m31.18,115.14s.1,3.35.56,6.73h0c.38,2.85,1.03,5.72,2.09,6.6"/>
        <path class="cls-10" d="m39.79,123.2c.21,1.94.6,4.25,1.11,6.66,1.24,6.01,3.16,12.68,4.42,16.05,1.77,4.72,6.49,10.48,6.49,10.48,5.61-3.54,16.96-15.64,17.41-16.6,4.13,4.5,6.04,6.71,6.04,6.71,0,0-2.86,1.27-6.58,2.89-6.53,2.85-15.75,6.81-16.87,7"/>
        <line class="cls-10" x1="51.67" y1="130.04" x2="69.23" y2="139.8"/>
        <path class="cls-10" d="m68.69,149.39s10.71,3.75,12.92,2.72c2.22-1.18,8.11-5.17,8.11-5.17"/>
        <path class="cls-10" d="m81.61,152.11s-.15-6.2,0-7.82,2.37-3.69,3.54-2.51c.62.63,2.71,2.76,4.77,4.75,1.82,1.75,3.61,3.4,4.38,3.81,1.62.88,3.1,1.77,3.1,1.77.03-.26.07-.5.1-.75.58-4.75.06-6.57,3.22-8.25,3.32-1.78,14.23-9.45,14.23-9.45"/>
        <path class="cls-10" d="m97.5,151.37s6.99-1.28,8.02-2.77"/>
        <path class="cls-10" d="m116.96,143.94s8.76,1.89,12.9.25"/>
        <path class="cls-10" d="m168.11,146.91c3.85,1.96,8.68,2.08,10.88-.18"/>
        <path class="cls-10" d="m179.56,146.95s10.9.68,18.57-1.5"/>
        <path class="cls-10" d="m150.7,148.51c3.61,2.17,10.61,1.23,13.75-1h0"/>
        <path class="cls-10" d="m134.56,148.1c4.28,1.13,9.08.87,13.36.49"/>
        <polygon class="cls-10" points="162.88 79.44 161.39 79.61 162.57 82.18 164.04 85.36 169.01 84.04 168.36 82.16 168.11 81.46 167.24 78.94 166.11 79.07 162.88 79.44"/>
        <path class="cls-10" d="m136.27,84.04h.03c.21,0,1.67.06,3.56.13,3.36.12,8.09.28,9.46.26.97-.02,3.22-.2,5.62-.52,3.05-.4,6.34-1.01,7.63-1.72"/>
        <path class="cls-10" d="m173.02,124.4c3.06,3.04,6.35,5.82,9.82,8.02,1.48.95,3.01,1.79,4.55,2.5.32.15.64.29.98.44,17.84,7.77,55.67,12.18,55.67,12.18"/>
        <path class="cls-10" d="m164.04,85.36s.03,1.31,0,2.86c-.05,1.89-.23,4.15-.76,4.88-.71.99-6.4,2.3-9.31,2.9-1.01.22-1.68.35-1.68.35.18.29.38.63.61,1.01,1.21,2.03,3.06,5.1,5.43,8.68,3.74,5.62,8.76,12.47,14.67,18.34"/>
        <path class="cls-10" d="m188.37,135.36s.74,4.25,2.05,4.82"/>
        <path class="cls-10" d="m168.36,82.16h22.72c1.17,0,2.21.7,2.67,1.77.54,1.25.99,2.89,1.29,4.17.26,1.06-.54,2.08-1.63,2.08h-21.03l-3.36-6.14"/>
        <path class="cls-10" d="m193.41,90.17s1.16,3.97,0,4.26c-.27.07-.95.16-1.85.26-2.91.34-8.02.77-8.02.77"/>
        <path class="cls-10" d="m178.97,90.17s1.53,2.42,3.59,5.47c1.55,2.31,3.41,4.96,5.16,7.19,1.22,1.58,2.39,2.95,3.35,3.84,1.21,1.13,2.23,2.18,3.13,3.13,2.14,2.29,3.6,4.07,5.57,5.43,2.81,1.92,29.51,6.49,31.13,7.99,1.62,1.51,13.13,24.31,13.13,24.31,0,0-34.37,2.81-38.65,2.08-3.38-.57-5.38-2.28-7.25-4.17-.49-.49-.96-1.01-1.46-1.51-1.48-1.52-4.22-3.02-6.25-3.76,0,0,0,0,0,0-1.21-.45-2.17-.63-2.44-.38-.74.66-7.38,6.71-8.42,7.15-.21.09-.4,0-.57-.23-.72-.89-1.28-3.88-2.23-6.12-1.18-2.8-3.65-3.01-4.39-2.11-.74.88-2.7,3.89-3.73,7.28-.14.46-.32.83-.54,1.14-1.06,1.53-2.87,1.23-3.66.61-.22-.17-.36-.37-.38-.56-.15-1.03-1.18-2.8-2.06-4.86-.88-2.07-2.8-2.22-3.4-1.33-.43.65-5.14,5.49-7.91,7.76-1.01.82-1.77,1.3-1.97,1.11-.14-.14-.42-.5-.81-1.02-1.6-2.2-4.93-7.07-6.13-7.55-.16-.07-.35-.07-.55,0-1.54.41-4.15,4-6.68,7.06-.15.16-.28.33-.42.49-.75-.49-2.13-2.4-3.59-4.59-2.42-3.66-5-8.11-5-8.11-.69,1.6-4.63,5.03-8.6,8.05-3.7,2.83-7.44,5.31-8.65,5.68-1.07.32-1.9-.12-2.8-1.02-1.21-1.22-2.56-3.28-4.79-5.48"/>
        <path class="cls-10" d="m199.77,115.24c7.38,6.2,21.39,16.08,21.39,16.08"/>
        <path class="cls-10" d="m129.04,93.1s-.2,3.69-.55,8.59c-.16,2.4-.36,5.09-.59,7.77-.62,7.32-1.42,14.59-2.26,15.74"/>
        <path class="cls-10" d="m124.29,92.56s-.46,3.97-1.14,9.13c-.3,2.32-.66,4.88-1.03,7.44-.29,2.03-.61,4.06-.92,5.95-.85,5.14-1.73,9.34-2.42,10.11"/>
        <path class="cls-10" d="m102.65,119.15h0c.23.17,4.11,2.84,10.65,4.83,1.66.51,3.48.97,5.46,1.33,2.11.39,4.39.68,6.84.78,1.6.08,3.27.08,5,0"/>
        <path class="cls-10" d="m99.27,124.08s15.23,9.64,35.81,7.86"/>
        <path class="cls-10" d="m141.25,141.04l-6.12-9.13-4.1-6.11-1.16-1.72s.55-.55,1.44-1.48c1.07-1.14,2.63-2.85,4.25-4.83,2.08-2.55,4.25-5.55,5.61-8.34"/>
        <path class="cls-10" d="m131.36,122.65c2.56.48,7.01,1.07,12.1,1.54,4.18.39,8.78.7,13.1.81,2.82.06,5.51.04,7.9-.1,3.11-.17,5.7-.57,7.37-1.25-2.43-1.98-6.11-4.64-9.63-7.09-5.14-3.59-9.92-6.75-9.92-6.75"/>
        <path class="cls-10" d="m171.83,123.64l1.15.73s.03.03.03.03"/>
        <polyline class="cls-10" points="145.83 90.17 145.83 90.2 145.83 97.25"/>
        <line class="cls-10" x1="154.64" y1="89.81" x2="153.96" y2="96.01"/>
        <polyline class="cls-10" points="162.95 66.4 162.85 75.42 162.82 78.94"/>
        <polyline class="cls-10" points="156.93 56.56 163.12 49.11 162.95 66.39"/>
        <polyline class="cls-10" points="151.46 63.15 153.58 60.6 156.93 56.56"/>
        <path class="cls-10" d="m153.58,60.6s7.87,12.29,9.27,14.82"/>
        <path class="cls-10" d="m156.93,56.56h0c.25.36,5.47,7.84,6.01,9.84h0"/>
        <path class="cls-10" d="m172.06,59.69s-2.63,19.73-3.94,21.76"/>
        <path class="cls-10" d="m177.96,67.51s-4.85,13.75-5.9,14.65"/>
        <path class="cls-10" d="m135.55,117.77s7.48,1.1,14.73,1.4c4.33.18,8.58.08,11.1-.71"/>
        <line class="cls-10" x1="150.52" y1="110.45" x2="150.29" y2="119.15"/>
        <path class="cls-10" d="m143.44,124.4s.87,4.12,2.27,6.03,12.9,10.32,12.9,10.32"/>
        <path class="cls-10" d="m156.55,125.35s.29,2.71,3.99,5.96c3.68,3.24,11.84,7.18,11.84,7.18"/>
        <path class="cls-10" d="m164.46,124.93s1.98,3.59,4.55,4.47c2.58.88,13.82,3.02,13.82,3.02"/>
        <polyline class="cls-10" points="118.12 57.55 118.12 57.56 116.96 76.2"/>
        <path class="cls-10" d="m191.56,94.7s1,3.05,1.84,6.45c.87,3.51,1.56,7.4.8,8.66"/>
        <polyline class="cls-10" points="193.92 100.99 193.4 101.15 187.72 102.84 187.71 102.84"/>
        <line class="cls-10" x1="111.68" y1="107.84" x2="122.01" y2="109.11"/>
        <line class="cls-10" x1="116.46" y1="100.99" x2="123.15" y2="101.69"/>
        <line class="cls-10" x1="128.51" y1="101.69" x2="140.36" y2="102.28"/>
        <path class="cls-10" d="m127.91,109.46s11.67.26,13.25-.03"/>
        <path class="cls-10" d="m107.55,113.07s5.08.91,9.08,1.51c2.14.32,3.98.55,4.58.5"/>
        <polyline class="cls-10" points="116.63 114.58 113.31 123.97 113.31 123.98"/>
        <path class="cls-10" d="m152.44,97.52c-.75.48-1.86.17-4.07-.05-1.01-.1-1.83-.2-2.54-.22-.85-.03-1.52.05-2.11.39-1.08.63-2.24,1.11-2.68,1.78-.43.66-.68,2.86-.68,2.86"/>
        <path class="cls-10" d="m144.53,99.96s-.14.85-.84,1.07c-.54.16-2.31.81-3.33,1.26-.33.14-.58.26-.69.35-.49.34-1.04,2.85.68,2.57,1.72-.28,2.91-1.01,3.01-.95.1.07.42.18.42.18"/>
        <path class="cls-10" d="m140.34,105.19c-.49.54-.36,1.44-.16,1.79.18.29.54.9,1.2.85.09,0,.18-.02.29-.05.86-.28,2.06-.89,2.24-.89s.86.23.86.23"/>
        <path class="cls-10" d="m141.39,107.84c-.42.46-.39,1.19-.23,1.59.02.07.04.13.08.18.21.35.63,1.07,1.49.81.1-.03.23-.08.34-.12.81-.3,1.76-.77,1.91-.77.16,0,.86.23.86.23"/>
        <path class="cls-10" d="m143.07,110.3c-.49.54-.36,1.33-.16,1.68.21.34.63,1.07,1.5.8.86-.28,2.06-.89,2.24-.89,0,0,2.13-.78,3.87-1.43.71-.26,1.35-.5,1.76-.65.23-.09.38-.15.44-.16.42-.16,1.81-1.34,2.25-1.79s3.34-1.81,3.34-1.81"/>
      </g>
    </g>
  </g>
</svg>