<svg xmlns="http://www.w3.org/2000/svg" viewBox="0 0 269.86 197.64"><defs><style>.cls-1{fill:#ff4a31}.cls-1,.cls-2,.cls-3,.cls-4,.cls-5,.cls-7,.cls-8{stroke-width:0}.cls-2{fill:#fa7b46}.cls-9{stroke-miterlimit:10}.cls-10,.cls-9{fill:none;stroke:#000}.cls-3{fill:#f3edd7}.cls-10{stroke-linecap:round;stroke-linejoin:round}.cls-4{fill:#333}.cls-5{fill:#f3e053}.cls-7{fill:#fcc688}.cls-8{fill:#fbd594}</style></defs><g id="_レイヤー_3" data-name="レイヤー 3"><path d="M.24 163.06h3.61v5.02H.24zM269.61 190.59v6.55h-30.39l15.32-8.61c1.03 1.61 3.1 2.71 5.5 2.71s4.61-1.18 5.61-2.88l3.96 2.23ZM269.61 180.05v10.54l-3.96-2.23c.38-.65.59-1.38.59-2.14 0-1.3-.62-2.48-1.61-3.37l4.98-2.8Z" class="cls-3"/><path d="M269.61 168.08v11.97l-4.98 2.8c-1.14-1.01-2.76-1.64-4.58-1.64s-3.3.58-4.43 1.51l-26.04-14.64h40.04ZM269.61 83.22v5.75H.24v-5.75h269.37zM265.63 163.06h3.99v5.02h-3.99z" class="cls-3"/><path d="M266.24 186.22c0 .76-.21 1.49-.59 2.14l-5.41-3.04 4.39-2.47c1 .89 1.61 2.07 1.61 3.37Z" class="cls-3"/><path d="m260.25 185.32 5.41 3.04c-1 1.7-3.13 2.88-5.61 2.88s-4.47-1.1-5.5-2.71l5.7-3.21Z" class="cls-3"/><path d="M254.34 163.06h11.28v5.02h-11.28z" class="cls-4"/><path d="m264.63 182.85-4.39 2.47-4.63-2.6c1.13-.93 2.7-1.51 4.43-1.51 1.82 0 3.45.63 4.58 1.64Z" class="cls-3"/><path d="m260.25 185.32-5.7 3.21c-.44-.68-.69-1.47-.69-2.31 0-1.37.68-2.6 1.77-3.5l4.63 2.6Z" class="cls-3"/><path d="m229.57 168.08 26.04 14.64c-1.09.9-1.77 2.13-1.77 3.5 0 .83.25 1.62.69 2.31l-15.32 8.61h-41.4l-15.62-8.78c.38-.65.59-1.38.59-2.14 0-1.3-.62-2.48-1.61-3.36l26.29-14.78h22.11Zm-5.95 18.14c0-2.76-2.24-5.01-5.01-5.01a5.015 5.015 0 1 0 0 10.03c2.78 0 5.01-2.24 5.01-5.02ZM254.34 168.08h-30.46v-5.02h30.46v5.02z" class="cls-3"/><path d="M212.6 163.06h11.28v5.02H212.6zM218.61 181.21c2.76 0 5.01 2.24 5.01 5.01a5.015 5.015 0 1 1-10.03 0c0-2.78 2.24-5.01 5.02-5.01Z" class="cls-4"/><path d="m207.47 168.08-26.29 14.78c-1.14-1.01-2.76-1.65-4.58-1.65s-3.3.58-4.43 1.51l-26.04-14.64h61.34Z" class="cls-3"/><path d="M182.13 168.08v-5.02h30.47v5.02h-30.47zM197.82 197.14h-42.05l15.32-8.61c1.03 1.61 3.11 2.71 5.5 2.71s4.61-1.18 5.61-2.88l15.62 8.78ZM182.79 186.22c0 .76-.21 1.49-.59 2.14l-5.41-3.04 4.39-2.46c1 .88 1.61 2.06 1.61 3.36Z" class="cls-3"/><path d="m176.79 185.32 5.41 3.04c-1 1.7-3.13 2.88-5.61 2.88s-4.47-1.1-5.5-2.71l5.7-3.21Z" class="cls-3"/><path d="M170.85 163.06h11.28v5.02h-11.28z" class="cls-4"/><path d="M176.59 181.21c1.82 0 3.45.63 4.58 1.65l-4.39 2.46-4.63-2.6c1.13-.93 2.7-1.51 4.43-1.51Z" class="cls-3"/><path d="m176.79 185.32-5.7 3.21c-.44-.68-.69-1.47-.69-2.31 0-1.37.68-2.6 1.77-3.5l4.63 2.6Z" class="cls-3"/><path d="m146.12 168.08 26.04 14.64c-1.09.9-1.77 2.13-1.77 3.5 0 .83.25 1.62.69 2.31l-15.32 8.61h-41.4l-15.62-8.78c.38-.65.59-1.38.59-2.14 0-1.3-.62-2.48-1.61-3.36l26.29-14.78h22.11Zm-7 18.14c0-2.76-2.24-5.01-5.01-5.01a5.015 5.015 0 1 0 0 10.03c2.78 0 5.01-2.24 5.01-5.02ZM170.85 168.08h-30.46v-5.02h30.46v5.02z" class="cls-3"/><path d="M129.1 163.06h11.28v5.02H129.1zM134.11 181.21c2.76 0 5.01 2.24 5.01 5.01a5.015 5.015 0 1 1-10.03 0c0-2.78 2.24-5.01 5.02-5.01Z" class="cls-4"/><path d="m124.01 168.08-26.29 14.78c-1.14-1.01-2.76-1.65-4.58-1.65s-3.3.58-4.43 1.51l-26.04-14.64h61.34Z" class="cls-3"/><path d="M129.1 168.08H98.64v-5.02h30.46v5.02zM114.37 197.14H72.32l15.32-8.61c1.03 1.61 3.1 2.71 5.5 2.71s4.61-1.18 5.61-2.88l15.62 8.78ZM99.34 186.22c0 .76-.21 1.49-.59 2.14l-5.41-3.04 4.39-2.46c1 .88 1.61 2.06 1.61 3.36Z" class="cls-3"/><path d="m93.34 185.32 5.41 3.04c-1 1.7-3.13 2.88-5.61 2.88s-4.47-1.1-5.5-2.71l5.7-3.21Z" class="cls-3"/><path d="M87.35 163.06h11.28v5.02H87.35z" class="cls-4"/><path d="M93.14 181.21c1.82 0 3.45.63 4.58 1.65l-4.39 2.46-4.63-2.6c1.13-.93 2.7-1.51 4.43-1.51Z" class="cls-3"/><path d="m93.34 185.32-5.7 3.21c-.44-.68-.69-1.47-.69-2.31 0-1.37.68-2.6 1.77-3.5l4.63 2.6Z" class="cls-3"/><path d="m62.67 168.08 26.04 14.64c-1.09.9-1.77 2.13-1.77 3.5 0 .83.25 1.62.69 2.31l-15.32 8.61H30.73l-15.62-8.78c.38-.65.59-1.38.59-2.14 0-1.3-.62-2.48-1.61-3.36l26.29-14.78h22.3Zm-8.51 18.14c0-2.76-2.24-5.01-5.01-5.01a5.015 5.015 0 1 0 0 10.03c2.78 0 5.01-2.24 5.01-5.02ZM87.35 168.08H56.89v-5.02h30.46v5.02z" class="cls-3"/><path d="M45.61 163.06h11.28v5.02H45.61zM49.15 181.21c2.76 0 5.01 2.24 5.01 5.01a5.015 5.015 0 1 1-10.03 0c0-2.78 2.24-5.01 5.02-5.01Z" class="cls-4"/><path d="M45.61 168.08H15.14v-5.02h30.47v5.02zM30.73 197.14H.24v-6.51l3.75-2.11c1.03 1.61 3.11 2.71 5.5 2.71s4.61-1.18 5.61-2.88l15.62 8.78Z" class="cls-3"/><path d="M15.7 186.22c0 .76-.21 1.49-.59 2.14l-5.41-3.04 4.39-2.46c1 .88 1.61 2.06 1.61 3.36Z" class="cls-3"/><path d="M3.86 163.06h11.28v5.02H3.86z" class="cls-4"/><path d="m9.7 185.32 5.41 3.04c-1 1.7-3.13 2.88-5.61 2.88s-4.47-1.1-5.5-2.71l5.7-3.21ZM9.5 181.21c1.82 0 3.45.63 4.58 1.65l-4.39 2.46-4.63-2.6c1.13-.93 2.7-1.51 4.43-1.51Z" class="cls-3"/><path d="M9.7 185.32 4 188.53c-.44-.68-.69-1.47-.69-2.31 0-1.37.68-2.6 1.77-3.5l4.63 2.6Z" class="cls-3"/><path d="m.24 180.01 4.83 2.71c-1.09.9-1.77 2.13-1.77 3.5 0 .83.25 1.62.69 2.31l-3.75 2.11v-10.63Z" class="cls-3"/><path d="M212.6 163.06H.24V88.97h269.37v74.09H212.6z" style="fill:#d2d296;stroke-width:0"/><path d="M.24 168.08h40.13l-26.29 14.78c-1.14-1.01-2.76-1.65-4.58-1.65s-3.3.58-4.43 1.51l-4.83-2.71v-11.93Z" class="cls-3"/><path d="M269.61 197.14H.24M.24 83.22h269.37M.24 88.97h269.37M265.63 163.06h3.98M223.88 163.06h30.46M182.13 163.06h30.47M140.39 163.06h30.46M98.64 163.06h30.46M56.89 163.06h30.46M15.14 163.06h30.47M.24 163.06h3.62M265.63 168.08h3.98M223.88 168.08h30.46M182.13 168.08h30.47M140.39 168.08h30.46M98.64 168.08h30.46M56.89 168.08h30.46M15.14 168.08h30.47M.24 168.08h3.62M72.32 197.14l15.32-8.61 5.7-3.21 4.39-2.46 26.28-14.78" class="cls-9"/><path d="m114.37 197.14-15.62-8.78-5.41-3.04-4.63-2.6-26.04-14.64M139.12 186.22a5.015 5.015 0 1 1-10.03 0c0-2.78 2.24-5.01 5.02-5.01s5.01 2.24 5.01 5.01ZM223.62 186.22a5.015 5.015 0 1 1-10.03 0c0-2.78 2.24-5.01 5.02-5.01s5.01 2.24 5.01 5.01Z" class="cls-9"/><path d="M97.73 182.86c1 .88 1.61 2.06 1.61 3.36 0 .76-.21 1.49-.59 2.14-1 1.7-3.13 2.88-5.61 2.88s-4.47-1.1-5.5-2.71c-.44-.68-.69-1.47-.69-2.31 0-1.37.68-2.6 1.77-3.5 1.13-.93 2.7-1.51 4.43-1.51 1.82 0 3.45.63 4.58 1.65ZM.24 190.63l3.76-2.1 5.7-3.21 4.39-2.46 26.28-14.78" class="cls-9"/><path d="m30.73 197.14-15.62-8.78-5.41-3.04-4.63-2.6-4.83-2.71" class="cls-9"/><path d="M14.09 182.86c1 .88 1.61 2.06 1.61 3.36 0 .76-.21 1.49-.59 2.14-1 1.7-3.13 2.88-5.61 2.88s-4.47-1.1-5.5-2.71c-.44-.68-.69-1.47-.69-2.31 0-1.37.68-2.6 1.77-3.5 1.13-.93 2.7-1.51 4.43-1.51 1.82 0 3.45.63 4.58 1.65ZM155.77 197.14l15.32-8.61 5.7-3.21 4.39-2.46 26.29-14.78" class="cls-9"/><path d="m197.82 197.14-15.62-8.78-5.41-3.04-4.62-2.6-26.05-14.64" class="cls-9"/><path d="M181.18 182.86c1 .88 1.61 2.06 1.61 3.36 0 .76-.21 1.49-.59 2.14-1 1.7-3.13 2.88-5.61 2.88s-4.47-1.1-5.5-2.71c-.44-.68-.69-1.47-.69-2.31 0-1.37.68-2.6 1.77-3.5 1.13-.93 2.7-1.51 4.43-1.51 1.82 0 3.45.63 4.58 1.65ZM239.22 197.14l15.32-8.61 5.71-3.21 4.38-2.47 4.98-2.8" class="cls-9"/><path d="m269.61 190.59-3.96-2.23-5.4-3.04-4.63-2.6-26.05-14.64" class="cls-9"/><path d="M264.63 182.85c1 .89 1.61 2.07 1.61 3.37 0 .76-.21 1.49-.59 2.14-1 1.7-3.13 2.88-5.61 2.88s-4.47-1.1-5.5-2.71c-.44-.68-.69-1.47-.69-2.31 0-1.37.68-2.6 1.77-3.5 1.13-.93 2.7-1.51 4.43-1.51 1.82 0 3.45.63 4.58 1.64ZM54.16 186.22a5.015 5.015 0 1 1-10.03 0c0-2.78 2.24-5.01 5.02-5.01s5.01 2.24 5.01 5.01ZM3.86 163.06h11.28v5.02H3.86zM45.61 163.06h11.28v5.02H45.61zM87.35 163.06h11.28v5.02H87.35zM129.1 163.06h11.28v5.02H129.1zM170.85 163.06h11.28v5.02h-11.28zM212.6 163.06h11.28v5.02H212.6zM254.34 163.06h11.28v5.02h-11.28z" class="cls-9"/></g><g id="Layer_1" data-name="Layer 1"><path d="M164.03 88.22c.04-1.55 0-2.86 0-2.86l4.97-1.33 3.36 6.14h6.6s1.53 2.42 3.59 5.47c1.55 2.31 3.41 4.96 5.16 7.19 1.22 1.58 2.39 2.95 3.35 3.84 1.21 1.13 2.23 2.18 3.13 3.13 2.14 2.29 3.6 4.07 5.57 5.43 2.81 1.92 29.51 6.49 31.13 7.99 1.62 1.51 13.13 24.31 13.13 24.31s-37.82-4.4-55.67-12.18c-.34-.15-.66-.29-.98-.44-1.54-.71-3.07-1.55-4.55-2.5-3.47-2.2-6.76-4.97-9.82-8.02 0 0-.02 0-.03-.03-5.91-5.87-10.94-12.71-14.67-18.34-2.37-3.57-4.21-6.65-5.43-8.68-.23-.37-.42-.71-.61-1.01 0 0 .67-.13 1.68-.35 2.9-.61 8.6-1.92 9.31-2.9.53-.73.71-2.99.76-4.88Z" class="cls-2"/><path d="M188.37 135.36c17.84 7.77 55.67 12.18 55.67 12.18s-34.37 2.81-38.65 2.08c-3.38-.57-5.38-2.28-7.25-4.17-.49-.49-.96-1.01-1.46-1.51-1.48-1.52-4.22-3.02-6.25-3.76-1.32-.57-2.05-4.82-2.05-4.82Z" class="cls-1"/><path d="M196.68 143.94c.49.5.97 1.01 1.46 1.51-7.67 2.18-18.57 1.5-18.57 1.5 1.04-.44 7.68-6.49 8.42-7.15.28-.25 1.23-.07 2.44.38 2.03.75 4.77 2.24 6.25 3.76Z" class="cls-1"/><path d="M195.04 88.09c.26 1.06-.54 2.08-1.63 2.08h-21.03l-3.36-6.14-.65-1.88h22.72c1.17 0 2.21.7 2.67 1.77.54 1.25.99 2.89 1.29 4.17ZM193.4 101.15c.87 3.51 1.56 7.4.8 8.66-.9-.95-1.92-2-3.13-3.13-.96-.89-2.13-2.26-3.35-3.84l5.69-1.69Z" class="cls-5"/><path d="M193.41 90.17s1.16 3.97 0 4.26c-.27.07-.95.16-1.85.26-2.91.34-8.02.77-8.02.77l-.99.17c-2.06-3.05-3.59-5.47-3.59-5.47h14.44Z" class="cls-5"/><path d="m193.4 101.15-5.69 1.69c-1.74-2.24-3.61-4.89-5.16-7.19l.99-.17s5.1-.43 8.02-.77c0 0 1 3.05 1.84 6.45Z" class="cls-5"/><path d="M188.37 135.36s.74 4.25 2.05 4.82c-1.21-.45-2.17-.63-2.44-.38-.74.66-7.38 6.71-8.42 7.15-.21.09-.4 0-.57-.23-.72-.89-1.28-3.88-2.23-6.12-1.18-2.8-3.65-3.01-4.39-2.11 0 0-8.16-3.93-11.84-7.18-3.69-3.25-3.99-5.96-3.99-5.96v-.36c2.83.06 5.52.04 7.91-.1v.03s1.98 3.59 4.55 4.47c2.58.88 13.82 3.02 13.82 3.02 1.48.95 3.01 1.79 4.55 2.5.32.15.64.29.98.44Z" class="cls-2"/><path d="M185.46 81.46v.7h-13.41c1.05-.89 5.9-14.65 5.9-14.65 3.6 5.1 6.53 10.1 7.51 13.94Z" class="cls-5"/><path d="M182.84 132.42s-11.24-2.13-13.82-3.02c-2.57-.88-4.55-4.47-4.55-4.47v-.03c3.11-.17 5.7-.57 7.37-1.25l1.15.73.03.03c3.06 3.04 6.35 5.82 9.82 8.02Z" class="cls-2"/><path d="M176.76 140.61c.94 2.24 1.51 5.23 2.23 6.12-2.2 2.26-7.03 2.14-10.88.18.22-.3.4-.68.54-1.14 1.03-3.39 2.99-6.4 3.73-7.28.74-.89 3.21-.68 4.39 2.11Z" class="cls-1"/><path d="M177.96 67.51s-4.85 13.75-5.9 14.65h-3.69l-.25-.7c1.32-2.03 3.94-21.76 3.94-21.76 2.03 2.54 4.06 5.19 5.9 7.82Z" class="cls-5"/><path d="m172.98 124.37-1.15-.73c-2.43-1.98-6.11-4.64-9.63-7.09-5.14-3.59-9.92-6.75-9.92-6.75.23-.09.38-.15.44-.16.42-.16 1.81-1.34 2.25-1.79s3.34-1.81 3.34-1.81c3.74 5.62 8.76 12.47 14.67 18.34Z" class="cls-1"/><path d="M164.46 147.51c-.22-.17-.36-.37-.38-.56-.15-1.03-1.18-2.8-2.06-4.86-.88-2.07-2.8-2.22-3.4-1.33 0 0-11.5-8.41-12.9-10.32s-2.27-6.03-2.27-6.03l.02-.21c4.18.39 8.78.7 13.1.81v.36s.29 2.71 3.98 5.96c3.68 3.24 11.84 7.18 11.84 7.18-.74.88-2.7 3.89-3.73 7.28-.14.46-.32.83-.54 1.14-1.06 1.53-2.87 1.23-3.66.61Z" class="cls-2"/><path d="M172.06 59.69s-2.63 19.73-3.94 21.76l-.88-2.51-1.13.13-.02-.13 1.14-25.08c1.55 1.82 3.18 3.79 4.82 5.83Z" class="cls-5"/><path d="m168.36 82.16.65 1.88-4.97 1.32-1.47-3.18-1.18-2.57 1.49-.17 3.23-.37 1.13-.13.87 2.52.25.7z" class="cls-5"/><path d="m167.24 53.86-1.14 25.08.02.13-3.23.36-.06-.49.03-3.52.1-9.02.17-17.29c1.24 1.4 2.63 3.01 4.12 4.75Z" class="cls-5"/><path d="M171.83 123.64c-1.66.68-4.26 1.07-7.37 1.25-2.39.15-5.09.16-7.9.1-4.32-.1-8.93-.42-13.1-.81-5.09-.48-9.54-1.07-12.1-1.54l-.05-.05c1.07-1.14 2.63-2.85 4.25-4.83 0 0 7.48 1.1 14.73 1.4 4.33.18 8.58.08 11.1-.71l.81-1.91c3.52 2.45 7.2 5.11 9.63 7.09Z" class="cls-2"/><path d="M164.07 146.95c.03.19.16.39.38.56-3.15 2.23-10.15 3.16-13.75 1 2.77-2.26 7.48-7.11 7.91-7.76.6-.88 2.51-.74 3.4 1.33.88 2.06 1.92 3.83 2.06 4.86Z" class="cls-1"/><path d="M145.83 90.2c-4.26-.03-9.4-.21-11.81-.54.34-.15.7-.35 1.07-.6 1.53-1.05.63-2.82.63-2.82 1.29-.88.55-2.21.55-2.21h.03c.21 0 1.67.06 3.56.13 3.36.12 8.09.28 9.46.26.97-.02 3.22-.2 5.62-.52 3.05-.4 6.34-1.01 7.63-1.72l1.46 3.18s.03 1.31 0 2.86c-.49.1-5.45 1.06-9.39 1.59-1.31.18-2.51.31-3.4.35-1.25.05-3.22.07-5.41.04Z" class="cls-5"/><path d="M164.03 88.22c-.05 1.89-.23 4.15-.76 4.88-.71.99-6.4 2.3-9.31 2.9l.68-6.2c3.94-.53 8.91-1.49 9.39-1.59Z" class="cls-5"/><path d="M163.22 29.32a27.062 27.062 0 0 1-.04 3.52l-1.03-.06c-1.05.16-4.72 0-4.72 0l-.4.07c-.25-.83-.57-1.79-.9-2.71l1.3-.16 4.72-.59 1.07-.06Z" class="cls-8"/><path d="m163.22 29.32-1.07.06-4.72.59-1.3.16c-.28-.79-.56-1.57-.82-2.24l.8-.28s4.26-2.14 6.71-1.81c.22 1.14.35 2.31.41 3.52Z" class="cls-8"/><path d="M128.19 25.04s-.07-.82-.13-2.11l1.01-.04c1.7-5.32 5.05-9.64 9.29-12 2.28-1.27 4.81-1.98 7.48-1.98 7.24 0 13.18 5.21 15.87 12.71l-1.91-.51-3.32 1.77 5.68.11c.27.9.49 1.84.66 2.8-2.44-.33-6.71 1.81-6.71 1.81l-.8.28c.26.68.55 1.46.82 2.24.33.93.65 1.88.9 2.71l.4-.07s3.67.16 4.72 0l1.03.06c-.31 4.55-1.7 8.7-3.87 12.01-2.81 4.31-6.93 7.21-11.75 7.77-.56.07-1.14.1-1.72.1-1.56 0-3.08-.24-4.52-.7l-.3 2.14-5.08 5.72-.22-.19c-2.11-3.21-5.1-23.24-5.1-23.24-.94.43-1.68-.16-2.2-1.09-.56-1-.88-2.37-.94-3.28-.11-1.77-.11-2.96.33-6.01.06-.42.2-.77.39-1.04Zm15.6-.75 5.53-2.32h-6.86l-5.75 6.53 7.08-4.2Z" class="cls-8"/><path d="m163.12 49.11-.17 17.28c-.55-1.99-5.76-9.48-6.01-9.83s6.19-7.45 6.19-7.45Z" class="cls-2"/><path d="m163.12 49.11-6.19 7.44-3.35 4.05-2.11 2.55c-1.3-2.34-2.7-4.38-3.84-5.6.05-2.82.04-4.83.04-4.83-.03.05-.04.11-.08.17l-.03-.28c4.82-.56 8.94-3.47 11.75-7.77.88.99 2.21 2.45 3.8 4.26Z" class="cls-2"/><path d="m162.95 66.39-.1 9.03c-1.4-2.53-9.27-14.82-9.27-14.82l3.35-4.04c.25.35 5.47 7.83 6.01 9.83Z" class="cls-2"/><path d="m162.82 78.94.06.49-1.49.17 1.19 2.57c-1.28.72-4.58 1.33-7.63 1.72.05-.25.76-4 .64-8.98-.07-3.21-1.97-7.9-4.13-11.78l2.11-2.55s7.87 12.29 9.27 14.82l-.03 3.52Z" class="cls-2"/><path d="m162.2 116.56-.81 1.91c-2.52.79-6.77.89-11.1.71v-.03l.23-8.69c.71-.26 1.35-.5 1.76-.65 0 0 4.78 3.16 9.92 6.75Z" class="cls-5"/><path d="m162.16 23-5.68-.11 3.32-1.77 1.91.51c.16.45.32.9.45 1.37Z" class="cls-4"/><path d="M140.34 105.19c-1.72.29-1.16-2.23-.68-2.57.11-.09.36-.21.69-.35 0 0 .24-2.2.68-2.86.44-.67 1.59-1.14 2.68-1.78.6-.34 1.27-.42 2.11-.39.71.02 1.53.12 2.54.22 2.21.23 3.33.53 4.07.05l.44-.16c1.21 2.03 3.06 5.1 5.43 8.68 0 0-2.89 1.36-3.34 1.81s-1.84 1.63-2.25 1.79c-.06.02-.22.08-.44.16-.41.15-1.05.39-1.76.65-1.74.65-3.87 1.43-3.87 1.43-.17 0-1.38.62-2.24.89-.87.27-1.29-.46-1.5-.8-.2-.35-.34-1.14.16-1.68-.11.04-.23.09-.34.12-.86.27-1.28-.46-1.49-.81a.75.75 0 0 1-.08-.18c-.16-.41-.18-1.14.23-1.59-.67.04-1.02-.56-1.2-.86-.21-.35-.33-1.25.16-1.79Z" class="cls-7"/><path d="M155.59 74.93c.12 4.97-.59 8.73-.64 8.98-2.41.32-4.65.5-5.62.52-1.38.02-6.1-.14-9.46-.26v-.13s4.71-5.54 6.31-10.3c1.04-3.09 1.36-11.01 1.46-16.19 1.14 1.22 2.54 3.26 3.84 5.6 2.16 3.87 4.06 8.57 4.13 11.78Z" class="cls-2"/><path d="m154.64 89.81-.68 6.2c-1.01.22-1.68.35-1.68.35.18.29.38.63.61 1.01l-.44.16c-.75.48-1.86.17-4.07-.05-1.01-.1-1.83-.2-2.54-.22v-7.05c2.19.03 4.16 0 5.41-.04.88-.03 2.09-.16 3.4-.35Z" class="cls-5"/><path d="M145.71 130.43c1.4 1.92 12.9 10.32 12.9 10.32-.43.65-5.14 5.49-7.91 7.76-1.01.82-1.77 1.3-1.97 1.11-.14-.14-.42-.5-.81-1.02-1.6-2.2-4.93-7.07-6.13-7.55a.744.744 0 0 0-.55 0l-6.12-9.13-4.1-6.11-1.16-1.72s.55-.55 1.44-1.48l.05.05c2.56.48 7.01 1.07 12.1 1.54l-.02.21s.87 4.12 2.27 6.03Z" class="cls-2"/><path d="m150.52 110.45-.23 8.69v.03c-7.25-.3-14.73-1.4-14.73-1.4 2.08-2.55 4.25-5.55 5.61-8.34.02.07.04.13.08.18.21.35.63 1.07 1.49.81.1-.03.23-.08.34-.12-.49.54-.36 1.33-.16 1.68.21.34.63 1.07 1.5.8.86-.28 2.06-.89 2.24-.89 0 0 2.13-.78 3.87-1.43Z" class="cls-5"/><path d="m149.32 21.97-5.53 2.32-7.08 4.2 5.76-6.52h6.85z" class="cls-4"/><path d="M147.67 52.73s0 2.01-.04 4.83c-.1 5.18-.42 13.1-1.46 16.19-1.6 4.76-6.3 10.3-6.3 10.3v.13c-1.9-.07-3.36-.12-3.57-.13l.02-.51c.52-.67.48-1.57 0-2.59-.28-.3-.8-.38-1.21-.31l-.02-.1c.84-.22 1.18-1.94-.91-2.68-.64-.2-1.42-.32-2.25-.4l2.25-5.03s11.69-15.76 13.42-19.52c.03-.06.05-.12.08-.17Z" class="cls-2"/><path d="m147.56 52.62.03.28c-1.73 3.76-13.42 19.52-13.42 19.52l-2.1-8.18 3.87-4.35 5.08-5.72.3-2.14c1.45.46 2.96.7 4.52.7.58 0 1.16-.03 1.72-.1Z" class="cls-2"/><path d="M145.83 97.25c-.85-.03-1.52.06-2.11.4-1.08.63-2.24 1.11-2.68 1.78-.43.66-.68 2.86-.68 2.86l-11.86-.59c.35-4.9.55-8.59.55-8.59l-.02-.1c1.33-.23 2.69-.88 4.01-1.3 1.64-.52.98-2.05.98-2.05 2.41.33 7.55.5 11.81.54v7.05Z" class="cls-5"/><path d="M141.8 141.05c1.2.48 4.52 5.35 6.13 7.55-4.28.37-9.08.63-13.36-.49 2.53-3.07 5.14-6.66 6.68-7.06.21-.06.39-.06.55 0Z" class="cls-1"/><path d="M141.39 107.83c-.42.47-.39 1.2-.23 1.6-1.59.29-13.25.03-13.25.03.23-2.68.42-5.36.59-7.77l11.86.59c-.33.14-.58.26-.69.35-.49.34-1.04 2.85.68 2.57-.49.54-.36 1.44-.16 1.79.18.29.54.9 1.2.85Z" class="cls-5"/><path d="M100.72 143.12c-3.16 1.68-2.64 3.5-3.22 8.25-.03.24-.06.49-.1.75 0 0-1.48-.88-3.1-1.77-.76-.42-2.56-2.06-4.38-3.81-2.05-1.99-4.14-4.12-4.77-4.75-1.18-1.18-3.4.89-3.54 2.51s0 7.82 0 7.82c-2.21 1.03-12.92-2.72-12.92-2.72 3.72-1.62 6.58-2.89 6.58-2.89s-1.92-2.21-6.04-6.71c-.45.95-11.8 13.05-17.41 16.6 0 0-4.72-5.75-6.49-10.48-1.26-3.37-3.18-10.04-4.42-16.05-.51-2.42-.9-4.72-1.11-6.66 5.09.44 15.93-3.99 18.14-4.65 2.22-.67 11.29-4.43 11.29-4.43 0-4.08-1.21-9.54-2.62-14.46-1.85-6.54-4.02-12.1-4.02-12.1.29-1 1.47-3.26 3.15-6.22 5.89-10.39 17.97-29.3 19.57-31.56 2.06-2.89 11.21-16.73 13.87-18.31 2.65-1.59 13.13-3.87 13.13-3.87 1.1 5.99 3.35 18.76 5.82 29.94s-1.16 18.65-1.16 18.65c2.13.49 3.84.9 4.63 1.14 0 0-.06.17-.18.49-.55 1.45-2.26 5.93-4.45 11.4-3.88 9.72-9.27 22.58-12.33 27.03-.62.89-1.27 1.86-1.97 2.88a827.9 827.9 0 0 1-3.39 4.93s15.23 9.64 35.81 7.86l.04-.03 6.12 9.13c-1.54.41-4.15 4-6.68 7.06-.15.16-.28.33-.42.49-.75-.49-2.13-2.4-3.59-4.59-2.42-3.66-5-8.11-5-8.11-.69 1.6-4.63 5.03-8.6 8.05-3.7 2.83-7.44 5.31-8.65 5.68-1.07.32-1.9-.12-2.8-1.02-1.21-1.22-2.56-3.28-4.79-5.48Z" class="cls-2"/><path d="M127.91 109.46s11.67.26 13.25-.03c-1.36 2.79-3.53 5.79-5.61 8.34a86.76 86.76 0 0 1-4.25 4.83c-.88.94-1.44 1.48-1.44 1.48l1.16 1.72-.42.28c-1.73.09-3.4.09-5 0l.03-.89c.84-1.15 1.65-8.42 2.26-15.74Z" class="cls-5"/><path d="m132.07.5 6.29 10.39c-4.24 2.37-7.59 6.68-9.29 12l-1.01.04c-.09-1.9-.13-4.79.13-7.5.44-4.54 2.1-13.83 3.87-14.94Z" class="cls-2"/><path d="M135.72 86.25s.89 1.77-.63 2.82c-.36.25-.73.45-1.07.6 0 0 .66 1.53-.98 2.05-1.33.42-2.69 1.07-4.01 1.3-.31.06-.63.1-.94.1-1.16 0-2.49-.23-3.79-.55-.79-.19-1.56-.43-2.29-.68-1.72-.6-3.14-1.27-3.74-1.69-.31-.22-1.31-.94-1.31-.94 2.18-5.47 3.89-9.95 4.45-11.4h1.36s.7-.1 1.78-.21c1.87-.19 4.9-.42 7.37-.19.83.08 1.61.2 2.25.4 2.09.74 1.75 2.46.91 2.68-.08 0-.16.02-.24 0-1-.1-4.39-1.29-5.42.93-.16.88 1.25 1.77 3.09 1.47 1.84-.29 1.73-1.66 2.03-2.03.1-.14.31-.23.55-.28.42-.07.94 0 1.21.31.49 1.02.53 1.92 0 2.59l-.02.51h-.03s.74 1.33-.55 2.21Z" class="cls-7"/><path d="m135.93 59.88-3.87 4.35c-1.55-3.43-3.67-28.87-3.67-28.87.52.94 1.26 1.53 2.2 1.09 0 0 3 20.03 5.1 23.24l.22.19Z" class="cls-2"/><path d="M113.31 123.97c1.66.51 3.48.97 5.46 1.33 2.11.39 4.39.68 6.84.78 1.6.08 3.27.08 5 0l.42-.28 4.1 6.11-.04.03c-20.58 1.78-35.81-7.86-35.81-7.86 1.17-1.69 2.31-3.36 3.39-4.93.23.17 4.11 2.84 10.65 4.83Z" class="cls-5"/><path d="m135.08 80.52.02.1c-.24.04-.45.14-.55.28-.29.36-.19 1.73-2.03 2.03-1.85.29-3.25-.59-3.09-1.47 1.03-2.22 4.42-1.03 5.42-.93h.24ZM132.07 64.23l2.1 8.18-2.25 5.03c-2.47-.23-5.49 0-7.37.19-1.92-1.78-4.26-10.32-6.42-20.07-2.48-11.19-4.72-23.96-5.82-29.95 0 0 7.08-13.13 8.41-15.63 1.33-2.51 8.11-9.74 11.36-11.47-1.78 1.11-3.43 10.4-3.87 14.94-.26 2.7-.22 5.6-.13 7.5.06 1.28.13 2.11.13 2.11-.19.27-.33.62-.39 1.04-.44 3.05-.44 4.24-.33 6.01.06.91.37 2.28.94 3.28s2.11 25.44 3.67 28.87Z" class="cls-2"/><path d="m130.56 144-.69.19c-4.14 1.64-12.9-.25-12.9-.25 3.97-3.02 7.9-6.45 8.6-8.05 0 0 2.58 4.45 5 8.11Z" class="cls-1"/><path d="m129.03 93.01.02.1s-.2 3.69-.55 8.59c-.16 2.4-.36 5.09-.59 7.77-.62 7.32-1.42 14.59-2.26 15.74l-.03.89c-2.44-.1-4.73-.39-6.84-.78l.02-.11c.68-.77 1.57-4.97 2.42-10.11.31-1.9.62-3.93.92-5.95.37-2.56.73-5.11 1.03-7.44.68-5.17 1.14-9.13 1.14-9.13 1.3.32 2.63.55 3.79.55.31 0 .63-.03.94-.1Z" class="cls-5"/><path d="M124.29 92.55s-.46 3.98-1.14 9.14l-6.69-.7c2.76-4.19 4.88-7.77 5.55-9.12.73.24 1.5.49 2.29.68ZM123.15 101.69c-.3 2.32-.66 4.88-1.03 7.44l-.12-.02-10.33-1.27c1.7-2.3 3.33-4.65 4.78-6.85l6.69.7Z" class="cls-5"/><path d="M124.55 77.63c-1.07.1-1.78.21-1.78.21h-1.36c.12-.32.18-.49.18-.49-.79-.24-2.5-.65-4.63-1.14l1.16-18.64c2.16 9.75 4.5 18.3 6.42 20.07Z" class="cls-2"/><path d="m122.01 109.11.12.02a293.5 293.5 0 0 1-.92 5.95c-.6.04-2.44-.18-4.58-.5-4-.6-9.08-1.51-9.08-1.51 1.38-1.62 2.77-3.41 4.13-5.23l10.33 1.27Z" class="cls-5"/><path d="M122.01 91.86c-.67 1.36-2.78 4.94-5.55 9.13-1.46 2.19-3.09 4.55-4.78 6.85a96.322 96.322 0 0 1-4.13 5.23c-.99 1.17-1.97 2.24-2.92 3.2 3.06-4.45 8.45-17.31 12.33-27.03 0 0 1 .72 1.31.94.6.42 2.02 1.09 3.74 1.69Z" class="cls-1"/><path d="M116.63 114.58c2.14.32 3.98.55 4.58.5-.85 5.14-1.73 9.34-2.42 10.11l-.02.11c-1.98-.36-3.8-.82-5.46-1.33l3.32-9.39Z" class="cls-5"/><path d="m116.63 114.58-3.32 9.39c-6.54-1.98-10.42-4.65-10.65-4.83.69-1.01 1.35-1.98 1.97-2.88.95-.95 1.93-2.03 2.92-3.2 0 0 5.08.91 9.08 1.51Z" class="cls-5"/><path d="M105.51 148.6c-1.03 1.49-8.02 2.77-8.02 2.77.58-4.75.06-6.57 3.22-8.25 2.24 2.19 3.58 4.26 4.79 5.48ZM89.92 146.53l-.2.42s-5.89 3.99-8.11 5.17c0 0-.15-6.2 0-7.82s2.37-3.69 3.54-2.51c.62.63 2.71 2.76 4.77 4.75ZM69.23 139.8c4.13 4.5 6.04 6.71 6.04 6.71s-2.86 1.27-6.58 2.89c-6.53 2.85-15.75 6.81-16.87 7 5.61-3.54 16.96-15.64 17.41-16.6Z" class="cls-1"/><path d="M66.61 99.67c1.4 4.91 2.62 10.37 2.62 14.46 0 0-9.07 3.76-11.29 4.43 2.66-7.52 4.95-16.97 8.68-18.88Z" class="cls-2"/><path d="M39.42 117.12c.08-3.21.43-6.91 1.07-9.99.35-1.66.78-3.15 1.29-4.28.39-.88 1.1-1.78 2.04-2.71 1.68-1.67 4.1-3.41 6.74-5.12 4.09-2.65 8.71-5.23 12.01-7.44 0 0 2.17 5.56 4.02 12.1-3.73 1.92-6.01 11.36-8.68 18.88-2.21.66-13.05 5.09-18.14 4.65-.3-1.35-.42-3.56-.37-6.08ZM65.73 81.35c-1.67 2.96-2.85 5.23-3.15 6.22-2.51-1.7-6.02-4.32-8.64-6.21 1.21-4.24 4.2-4.52 5.97-4.63s2.88 1.44 5.81 4.62Z" class="cls-2"/><path d="M53.95 81.36c2.62 1.9 6.13 4.52 8.64 6.21-3.3 2.2-7.92 4.78-12.01 7.44-5.03-2.35-9.34-4.12-11.45-6.21-1.1-1.1-1.9-2.45-2.74-3.35l.09-.08c0-.44 4.2-4.1 6.3-5.43 2.11-1.33 6.53-1.44 7.75-.9.48.22 1.78 1.13 3.42 2.32Z" class="cls-2"/><path d="M50.58 95.01c-2.64 1.72-5.06 3.45-6.74 5.12-5.15-1.05-9.57-3.22-12.11-5.12-2.37-1.77-4.55-2.98-6.53-3.12l2.22-.02c.11-2.45 4.2-6.4 6.41-7.29 1.06-.42 1.84.03 2.57.86.84.9 1.64 2.25 2.74 3.35 2.11 2.1 6.42 3.87 11.45 6.21Z" class="cls-2"/><path d="M43.82 100.13c-.94.94-1.65 1.84-2.04 2.71-.51 1.13-.94 2.62-1.29 4.28-.81-.19-8.09-1.78-9.92-1.86-.79-.04-3.16.06-5.6.29-2.25.22-4.55.54-5.69.94-1.85.29-1.95-1.24-1.95-1.24-.44-.68 5.31-13.37 7.42-13.39.15 0 .29 0 .43.02 1.98.14 4.16 1.35 6.53 3.12 2.54 1.91 6.96 4.07 12.11 5.12ZM40.9 129.87l-.41.09c-2.36.35-4.62-.31-6.66-1.47-1.06-.88-1.71-3.75-2.09-6.6-.46-3.38-.56-6.73-.56-6.73 2.59.28 5.3 1.46 8.24 1.98-.05 2.52.07 4.73.37 6.08.21 1.94.6 4.25 1.11 6.66Z" class="cls-2"/><path d="M40.5 107.13c-.64 3.09-1 6.79-1.07 9.99-2.94-.51-5.65-1.7-8.24-1.98-2.45-.26-4.78.29-7.1 2.97 1.14-1.75 1.31-5.31 1.21-8.2-.07-2.42-.32-4.36-.32-4.36 2.44-.23 4.81-.34 5.6-.29 1.84.09 9.11 1.67 9.92 1.86Z" class="cls-2"/><path d="M33.84 128.47c-5.58-3.16-9.59-10.07-9.74-10.35 2.49 2.57 7.39 3.69 7.65 3.75.38 2.85 1.03 5.72 2.09 6.6Z" class="cls-1"/><path d="M31.18 115.14s.1 3.35.56 6.73c-.26-.06-5.17-1.18-7.65-3.75 2.31-2.7 4.65-3.24 7.1-2.98ZM25.29 109.92c.1 2.89-.07 6.45-1.21 8.2-.61.92-5.09-9.74-5.53-10.99-.08-.23.2-.43.73-.62 0 0 3.74 4.31 5.87 3.42h.15Z" class="cls-1"/><path d="M25.29 109.92h-.15c-2.13.89-5.87-3.41-5.87-3.41 1.14-.41 3.44-.73 5.69-.94 0 0 .25 1.94.32 4.36Z" class="cls-1"/><path d="M129.07 22.89c1.7-5.32 5.05-9.64 9.29-12 2.28-1.27 4.81-1.98 7.48-1.98 7.24 0 13.18 5.21 15.87 12.71.16.45.32.9.45 1.37.27.9.49 1.84.66 2.8.22 1.14.35 2.31.41 3.52a27.062 27.062 0 0 1-.04 3.52c-.31 4.55-1.7 8.7-3.87 12.01-2.81 4.31-6.93 7.21-11.75 7.77-.56.07-1.14.1-1.72.1-1.56 0-3.08-.24-4.52-.7-1.85-.59-3.6-1.53-5.17-2.76" class="cls-10"/><path d="m136.71 28.49 5.76-6.52h6.85l-5.53 2.32-7.08 4.2zM139.81 28.49s7.23-.59 10.48 1.33c-.74 1.48-.52 5.1-9.96 4.35M156.11 27.61s4.26-2.14 6.71-1.81M157.44 32.77s3.67.16 4.72 0M157.44 29.97l4.72-.59" class="cls-10"/><path d="M149.32 30.82s-5.31-.77-7.23 0M152.28 34.27v2.19M154.49 25.76s.36.88.82 2.12c.26.68.55 1.46.82 2.24.33.93.65 1.88.9 2.71.37 1.27.58 2.28.4 2.52-.59.8-.59 1.83-2.95 1.83M150.29 38.82s-2.88 4.71-5.24 5.16M157.44 38.09s.7 2.43 2.37 2.5M155.08 41.4c-.88.67-4.13 1.26-4.13 1.26s2.22 1.47 3.54 1.33M161.71 21.63l-1.91-.51-3.32 1.77 5.68.11M133.17 27.61c-.67-3.05-3.83-4.23-4.97-2.57-.19.27-.33.62-.39 1.04-.44 3.05-.44 4.24-.33 6.01.06.91.37 2.28.94 3.28.52.94 1.26 1.53 2.2 1.09 1.32-.61 1.98-1.82 1.98-1.82" class="cls-10"/><path d="M128.19 25.04s-.07-.82-.13-2.11c-.09-1.9-.13-4.79.13-7.5.44-4.54 2.1-13.83 3.87-14.94l6.29 10.39M135.72 59.69c-2.11-3.21-5.1-23.24-5.1-23.24" class="cls-10"/><path d="M128.4 35.37s2.11 25.44 3.67 28.87l3.87-4.35 5.08-5.72" class="cls-10"/><path d="m132.07 64.23 2.1 8.18s11.69-15.76 13.42-19.52c.03-.06.05-.12.08-.17 0 0 0 2.01-.04 4.83-.1 5.18-.42 13.1-1.46 16.19-1.6 4.76-6.3 10.3-6.3 10.3" class="cls-10"/><path d="M147.62 57.55c1.14 1.22 2.54 3.26 3.84 5.6 2.16 3.87 4.06 8.57 4.13 11.78.12 4.97-.59 8.73-.64 8.98h0M159.32 44.85c.88.99 2.21 2.45 3.8 4.26 1.24 1.4 2.63 3.01 4.12 4.75 1.55 1.82 3.18 3.79 4.82 5.83 2.03 2.54 4.06 5.19 5.9 7.82 3.6 5.1 6.53 10.1 7.51 13.94M167.24 53.86l-1.15 25.08M134.17 72.42l-2.26 5.02M136.27 84.04s.74 1.33-.55 2.21c-.55.37-1.73 1.33-2.03 1.33" class="cls-10"/><path d="M135.72 86.25s.89 1.77-.63 2.82c-.36.25-.73.45-1.07.6-1.08.49-1.95.51-1.95.51" class="cls-10"/><path d="M116.96 89.24s1 .72 1.31.94c.6.42 2.02 1.09 3.74 1.69.73.25 1.5.49 2.29.68 1.3.33 2.63.55 3.79.55.31 0 .63-.03.94-.1 1.33-.23 2.69-.88 4.01-1.3 1.64-.52.98-2.05.98-2.05 2.41.33 7.55.5 11.81.54 2.19.03 4.16 0 5.41-.04.88-.03 2.09-.16 3.4-.35 3.94-.53 8.91-1.49 9.39-1.59h.04" class="cls-10"/><path d="M88.54 138.1c1.55-.93 6.27-7.55 10.73-14.02 1.17-1.69 2.31-3.36 3.39-4.93.69-1.01 1.35-1.98 1.97-2.88 3.06-4.45 8.45-17.31 12.33-27.03 2.18-5.47 3.89-9.95 4.45-11.4.12-.32.18-.49.18-.49-.79-.24-2.5-.65-4.63-1.14-6.65-1.53-17.43-3.79-17.43-3.79s-.55.13-1.26.48c-.64.31-1.42.81-1.98 1.55-.39.52-2.5 5.17-5.44 11.36-5.95 12.5-15.26 31.19-20.59 34.44" class="cls-10"/><path d="M104.63 116.27c.95-.95 1.93-2.03 2.92-3.2 1.38-1.62 2.77-3.41 4.13-5.23 1.7-2.3 3.33-4.65 4.78-6.85 2.76-4.19 4.88-7.77 5.55-9.12M121.41 77.84h1.36s.7-.1 1.78-.21c1.87-.19 4.9-.42 7.37-.19.83.08 1.61.2 2.25.4 2.09.74 1.75 2.46.91 2.68-.08 0-.16.02-.24 0-1-.1-4.39-1.29-5.42.93-.16.88 1.25 1.77 3.09 1.47 1.84-.29 1.73-1.66 2.03-2.03.1-.14.31-.23.55-.28.42-.07.94 0 1.21.31.49 1.02.53 1.92 0 2.59-.15.19-.35.36-.6.51-1.11.66-2.68 1.33-2.68 1.33" class="cls-10"/><path d="M118.12 57.56c2.16 9.75 4.5 18.3 6.42 20.07M132.07.5c-3.25 1.73-10.04 8.96-11.36 11.47-1.33 2.5-8.41 15.63-8.41 15.63 1.1 5.99 3.35 18.76 5.82 29.94M82.64 62.13s5.31 5.46 8.12 7.23c2.8 1.77 7.51 3.54 7.51 3.54M70.99 89.24c3.54-1.14 19.86-3.43 19.86-3.43M43.83 100.13c1.68-1.67 4.1-3.41 6.74-5.12 4.09-2.65 8.71-5.23 12.01-7.44-2.51-1.7-6.02-4.32-8.64-6.21-1.65-1.2-2.95-2.11-3.42-2.32-1.21-.54-5.64-.42-7.75.9-2.1 1.33-6.3 4.98-6.3 5.43" class="cls-10"/><path d="M112.3 27.61s-10.48 2.29-13.13 3.87c-2.66 1.59-11.8 15.43-13.87 18.31-1.6 2.25-13.68 21.16-19.57 31.56-1.67 2.96-2.85 5.23-3.15 6.22 0 0 2.17 5.56 4.02 12.1 1.4 4.91 2.62 10.37 2.62 14.46 0 0-9.07 3.76-11.29 4.43-2.21.66-13.05 5.09-18.14 4.65-.3-1.35-.42-3.56-.37-6.08.08-3.21.43-6.91 1.07-9.99.35-1.66.78-3.15 1.29-4.28.39-.88 1.1-1.78 2.04-2.71" class="cls-10"/><path d="M57.93 118.56c2.66-7.52 4.95-16.97 8.68-18.88M105.51 51.29s-3.32-3.99-3.1-7.31c-3.76 2.66-6.49 5.82-6.49 5.82s6.72 6.73 9.59 7.76M65.73 81.35c-2.93-3.18-4.04-4.73-5.81-4.62s-4.76.39-5.97 4.62M50.58 95.01c-5.03-2.35-9.34-4.12-11.45-6.21-1.1-1.1-1.9-2.45-2.74-3.35-.74-.82-1.52-1.27-2.57-.86-2.21.89-6.3 4.84-6.41 7.29M43.83 100.13h0c-5.15-1.05-9.57-3.22-12.11-5.12-2.37-1.77-4.55-2.98-6.53-3.12-.15-.02-.29-.02-.43-.02-2.11.02-7.86 12.71-7.42 13.39 0 0 .1 1.53 1.95 1.24" class="cls-10"/><path d="M24.97 105.56s.25 1.94.32 4.36c.1 2.89-.07 6.45-1.21 8.2-.61.92-5.09-9.74-5.53-10.99-.08-.23.2-.43.73-.62 1.14-.41 3.44-.73 5.69-.94 2.44-.23 4.81-.34 5.6-.29 1.84.09 9.11 1.67 9.92 1.86" class="cls-10"/><path d="M19.28 106.5s3.74 4.31 5.87 3.42M24.09 118.12c2.49 2.57 7.39 3.69 7.65 3.75M39.43 117.12h0c-2.94-.51-5.65-1.7-8.24-1.98-2.45-.26-4.78.29-7.1 2.97" class="cls-10"/><path d="M24.08 118.12h0c.16.29 4.16 7.19 9.74 10.37 2.05 1.16 4.31 1.82 6.66 1.47" class="cls-10"/><path d="M31.18 115.14s.1 3.35.56 6.73h0c.38 2.85 1.03 5.72 2.09 6.6M39.79 123.2c.21 1.94.6 4.25 1.11 6.66 1.24 6.01 3.16 12.68 4.42 16.05 1.77 4.72 6.49 10.48 6.49 10.48 5.61-3.54 16.96-15.64 17.41-16.6 4.13 4.5 6.04 6.71 6.04 6.71s-2.86 1.27-6.58 2.89c-6.53 2.85-15.75 6.81-16.87 7M51.67 130.04l17.56 9.76M68.69 149.39s10.71 3.75 12.92 2.72c2.22-1.18 8.11-5.17 8.11-5.17" class="cls-10"/><path d="M81.61 152.11s-.15-6.2 0-7.82 2.37-3.69 3.54-2.51c.62.63 2.71 2.76 4.77 4.75 1.82 1.75 3.61 3.4 4.38 3.81 1.62.88 3.1 1.77 3.1 1.77.03-.26.07-.5.1-.75.58-4.75.06-6.57 3.22-8.25 3.32-1.78 14.23-9.45 14.23-9.45" class="cls-10"/><path d="M97.5 151.37s6.99-1.28 8.02-2.77M116.96 143.94s8.76 1.89 12.9.25M168.11 146.91c3.85 1.96 8.68 2.08 10.88-.18M179.56 146.95s10.9.68 18.57-1.5M150.7 148.51c3.61 2.17 10.61 1.23 13.75-1h0M134.56 148.1c4.28 1.13 9.08.87 13.36.49M162.88 79.44l-1.49.17 1.18 2.57 1.47 3.18 4.97-1.32-.65-1.88-.25-.7-.87-2.52-1.13.13-3.23.37zM136.27 84.04h.03c.21 0 1.67.06 3.56.13 3.36.12 8.09.28 9.46.26.97-.02 3.22-.2 5.62-.52 3.05-.4 6.34-1.01 7.63-1.72M173.02 124.4c3.06 3.04 6.35 5.82 9.82 8.02 1.48.95 3.01 1.79 4.55 2.5.32.15.64.29.98.44 17.84 7.77 55.67 12.18 55.67 12.18M164.04 85.36s.03 1.31 0 2.86c-.05 1.89-.23 4.15-.76 4.88-.71.99-6.4 2.3-9.31 2.9-1.01.22-1.68.35-1.68.35.18.29.38.63.61 1.01 1.21 2.03 3.06 5.1 5.43 8.68 3.74 5.62 8.76 12.47 14.67 18.34M188.37 135.36s.74 4.25 2.05 4.82M168.36 82.16h22.72c1.17 0 2.21.7 2.67 1.77.54 1.25.99 2.89 1.29 4.17.26 1.06-.54 2.08-1.63 2.08h-21.03l-3.36-6.14" class="cls-10"/><path d="M193.41 90.17s1.16 3.97 0 4.26c-.27.07-.95.16-1.85.26-2.91.34-8.02.77-8.02.77" class="cls-10"/><path d="M178.97 90.17s1.53 2.42 3.59 5.47c1.55 2.31 3.41 4.96 5.16 7.19 1.22 1.58 2.39 2.95 3.35 3.84 1.21 1.13 2.23 2.18 3.13 3.13 2.14 2.29 3.6 4.07 5.57 5.43 2.81 1.92 29.51 6.49 31.13 7.99 1.62 1.51 13.13 24.31 13.13 24.31s-34.37 2.81-38.65 2.08c-3.38-.57-5.38-2.28-7.25-4.17-.49-.49-.96-1.01-1.46-1.51-1.48-1.52-4.22-3.02-6.25-3.76 0 0 0 0 0 0-1.21-.45-2.17-.63-2.44-.38-.74.66-7.38 6.71-8.42 7.15-.21.09-.4 0-.57-.23-.72-.89-1.28-3.88-2.23-6.12-1.18-2.8-3.65-3.01-4.39-2.11-.74.88-2.7 3.89-3.73 7.28-.14.46-.32.83-.54 1.14-1.06 1.53-2.87 1.23-3.66.61-.22-.17-.36-.37-.38-.56-.15-1.03-1.18-2.8-2.06-4.86-.88-2.07-2.8-2.22-3.4-1.33-.43.65-5.14 5.49-7.91 7.76-1.01.82-1.77 1.3-1.97 1.11-.14-.14-.42-.5-.81-1.02-1.6-2.2-4.93-7.07-6.13-7.55a.744.744 0 0 0-.55 0c-1.54.41-4.15 4-6.68 7.06-.15.16-.28.33-.42.49-.75-.49-2.13-2.4-3.59-4.59-2.42-3.66-5-8.11-5-8.11-.69 1.6-4.63 5.03-8.6 8.05-3.7 2.83-7.44 5.31-8.65 5.68-1.07.32-1.9-.12-2.8-1.02-1.21-1.22-2.56-3.28-4.79-5.48" class="cls-10"/><path d="M199.77 115.24c7.38 6.2 21.39 16.08 21.39 16.08M129.04 93.1s-.2 3.69-.55 8.59c-.16 2.4-.36 5.09-.59 7.77-.62 7.32-1.42 14.59-2.26 15.74M124.29 92.56s-.46 3.97-1.14 9.13c-.3 2.32-.66 4.88-1.03 7.44a293.5 293.5 0 0 1-.92 5.95c-.85 5.14-1.73 9.34-2.42 10.11" class="cls-10"/><path d="M102.65 119.15h0c.23.17 4.11 2.84 10.65 4.83 1.66.51 3.48.97 5.46 1.33 2.11.39 4.39.68 6.84.78 1.6.08 3.27.08 5 0M99.27 124.08s15.23 9.64 35.81 7.86M141.25 141.04l-6.12-9.13-4.1-6.11-1.16-1.72s.55-.55 1.44-1.48c1.07-1.14 2.63-2.85 4.25-4.83 2.08-2.55 4.25-5.55 5.61-8.34" class="cls-10"/><path d="M131.36 122.65c2.56.48 7.01 1.07 12.1 1.54 4.18.39 8.78.7 13.1.81 2.82.06 5.51.04 7.9-.1 3.11-.17 5.7-.57 7.37-1.25-2.43-1.98-6.11-4.64-9.63-7.09-5.14-3.59-9.92-6.75-9.92-6.75M171.83 123.64l1.15.73.03.03M145.83 90.17v7.08M154.64 89.81l-.68 6.2M162.95 66.4l-.1 9.02-.03 3.52M156.93 56.56l6.19-7.45-.17 17.28M151.46 63.15l2.12-2.55 3.35-4.04" class="cls-10"/><path d="M153.58 60.6s7.87 12.29 9.27 14.82M156.93 56.56h0c.25.36 5.47 7.84 6.01 9.84h0M172.06 59.69s-2.63 19.73-3.94 21.76M177.96 67.51s-4.85 13.75-5.9 14.65M135.55 117.77s7.48 1.1 14.73 1.4c4.33.18 8.58.08 11.1-.71M150.52 110.45l-.23 8.7M143.44 124.4s.87 4.12 2.27 6.03 12.9 10.32 12.9 10.32M156.55 125.35s.29 2.71 3.99 5.96c3.68 3.24 11.84 7.18 11.84 7.18M164.46 124.93s1.98 3.59 4.55 4.47c2.58.88 13.82 3.02 13.82 3.02M118.12 57.55v.01l-1.16 18.64M191.56 94.7s1 3.05 1.84 6.45c.87 3.51 1.56 7.4.8 8.66" class="cls-10"/><path d="m193.92 100.99-.52.16-5.68 1.69h-.01M111.68 107.84l10.33 1.27M116.46 100.99l6.69.7M128.51 101.69l11.85.59M127.91 109.46s11.67.26 13.25-.03M107.55 113.07s5.08.91 9.08 1.51c2.14.32 3.98.55 4.58.5M116.63 114.58l-3.32 9.39v.01M152.44 97.52c-.75.48-1.86.17-4.07-.05-1.01-.1-1.83-.2-2.54-.22-.85-.03-1.52.05-2.11.39-1.08.63-2.24 1.11-2.68 1.78-.43.66-.68 2.86-.68 2.86" class="cls-10"/><path d="M144.53 99.96s-.14.85-.84 1.07c-.54.16-2.31.81-3.33 1.26-.33.14-.58.26-.69.35-.49.34-1.04 2.85.68 2.57 1.72-.28 2.91-1.01 3.01-.95.1.07.42.18.42.18" class="cls-10"/><path d="M140.34 105.19c-.49.54-.36 1.44-.16 1.79.18.29.54.9 1.2.85.09 0 .18-.02.29-.05.86-.28 2.06-.89 2.24-.89s.86.23.86.23M141.39 107.84c-.42.46-.39 1.19-.23 1.59.02.07.04.13.08.18.21.35.63 1.07 1.49.81.1-.03.23-.08.34-.12.81-.3 1.76-.77 1.91-.77.16 0 .86.23.86.23" class="cls-10"/><path d="M143.07 110.3c-.49.54-.36 1.33-.16 1.68.21.34.63 1.07 1.5.8.86-.28 2.06-.89 2.24-.89 0 0 2.13-.78 3.87-1.43.71-.26 1.35-.5 1.76-.65.23-.09.38-.15.44-.16.42-.16 1.81-1.34 2.25-1.79s3.34-1.81 3.34-1.81" class="cls-10"/></g></svg>