<svg xmlns="http://www.w3.org/2000/svg" viewBox="0 0 270.4 210.89"><defs><style>.cls-1{stroke-miterlimit:10}.cls-1,.cls-2{fill:none;stroke:#000}.cls-3{fill:#d1a8d4}.cls-3,.cls-4,.cls-5,.cls-6,.cls-7,.cls-8{stroke-width:0}.cls-4{fill:#f66f51}.cls-5{fill:#f3edd7}.cls-2{stroke-linecap:round;stroke-linejoin:round}.cls-6{fill:#fcdfb7}.cls-7{fill:#333}.cls-8{fill:#ff4634}</style></defs><g id="_畳" data-name="畳"><path d="M.24 176.25h3.62v5.03H.24zM270.15 203.83v6.57H239.7l15.35-8.63c1.03 1.62 3.11 2.72 5.51 2.72s4.62-1.18 5.62-2.88l3.97 2.23ZM270.15 193.27v10.56l-3.97-2.23c.38-.65.59-1.38.59-2.14 0-1.3-.62-2.48-1.62-3.38l4.99-2.8ZM270.15 181.28v11.99l-4.99 2.8c-1.14-1.01-2.77-1.64-4.59-1.64s-3.31.58-4.44 1.51l-26.1-14.67h40.12ZM270.15 102.42v5.77H.24v-5.77h269.91z" class="cls-5"/><path d="M266.16 176.25h3.99v5.03h-3.99zM266.78 199.45c0 .76-.21 1.49-.59 2.14l-5.42-3.05 4.39-2.47c1 .89 1.62 2.08 1.62 3.38ZM260.77 198.55l5.42 3.05c-1 1.7-3.13 2.88-5.62 2.88s-4.48-1.1-5.51-2.72l5.71-3.21Z" class="cls-5"/><path d="M254.85 176.25h11.31v5.03h-11.31z" class="cls-7"/><path d="m265.16 196.07-4.39 2.47-4.64-2.61c1.13-.93 2.7-1.51 4.44-1.51 1.82 0 3.46.63 4.59 1.64ZM260.77 198.55l-5.71 3.21c-.44-.69-.69-1.48-.69-2.31 0-1.37.68-2.61 1.77-3.51l4.64 2.61Z" class="cls-5"/><path d="m230.03 181.28 26.1 14.67c-1.09.9-1.77 2.14-1.77 3.51 0 .83.25 1.62.69 2.31l-15.35 8.63h-41.48l-15.65-8.8c.38-.65.59-1.38.59-2.14 0-1.3-.62-2.48-1.62-3.37l26.34-14.81h22.15Zm-5.97 18.18c0-2.77-2.25-5.02-5.02-5.02s-5.03 2.25-5.03 5.02 2.25 5.03 5.03 5.03 5.02-2.25 5.02-5.03Z" class="cls-5"/><path d="M254.85 181.28h-30.52v-5.03h30.52v5.03z" class="cls-5"/><path d="M213.02 176.25h11.31v5.03h-11.31zM219.05 194.43c2.77 0 5.02 2.25 5.02 5.02s-2.25 5.03-5.02 5.03-5.03-2.25-5.03-5.03 2.25-5.02 5.03-5.02Z" class="cls-7"/><path d="m207.88 181.28-26.34 14.81c-1.14-1.02-2.77-1.65-4.59-1.65s-3.31.58-4.44 1.51l-26.1-14.67h61.47ZM182.5 181.28v-5.03h30.52v5.03H182.5zM198.21 210.39h-42.13l15.35-8.63c1.03 1.62 3.12 2.72 5.51 2.72s4.62-1.18 5.62-2.88l15.65 8.8Z" class="cls-5"/><path d="M183.16 199.45c0 .76-.21 1.49-.59 2.14l-5.42-3.05 4.39-2.47c1 .89 1.62 2.07 1.62 3.37ZM177.15 198.55l5.42 3.05c-1 1.7-3.13 2.88-5.62 2.88s-4.48-1.1-5.51-2.72l5.71-3.21Z" class="cls-5"/><path d="M171.19 176.25h11.31v5.03h-11.31z" class="cls-7"/><path d="M176.95 194.43c1.82 0 3.46.63 4.59 1.65l-4.39 2.47-4.64-2.61c1.13-.93 2.7-1.51 4.44-1.51Z" class="cls-5"/><path d="m177.15 198.55-5.71 3.21c-.44-.69-.69-1.48-.69-2.31 0-1.37.68-2.61 1.77-3.51l4.64 2.61Z" class="cls-5"/><path d="m146.41 181.28 26.1 14.67c-1.09.9-1.77 2.14-1.77 3.51 0 .83.25 1.62.69 2.31l-15.35 8.63H114.6l-15.65-8.8c.38-.65.59-1.38.59-2.14 0-1.3-.62-2.48-1.62-3.37l26.34-14.81h22.15Zm-7.02 18.18c0-2.77-2.25-5.02-5.02-5.02s-5.03 2.25-5.03 5.02 2.25 5.03 5.03 5.03 5.02-2.25 5.02-5.03Z" class="cls-5"/><path d="M171.19 181.28H140.67v-5.03h30.52v5.03z" class="cls-5"/><path d="M129.36 176.25h11.31v5.03h-11.31zM134.38 194.43c2.77 0 5.02 2.25 5.02 5.02s-2.25 5.03-5.02 5.03-5.03-2.25-5.03-5.03 2.25-5.02 5.03-5.02Z" class="cls-7"/><path d="m124.26 181.28-26.34 14.81c-1.14-1.02-2.77-1.65-4.59-1.65s-3.31.58-4.44 1.51l-26.1-14.67h61.47ZM129.36 181.28H98.83v-5.03h30.53v5.03zM114.6 210.39H72.47l15.35-8.63c1.03 1.62 3.11 2.72 5.51 2.72s4.62-1.18 5.62-2.88l15.65 8.8Z" class="cls-5"/><path d="M99.54 199.45c0 .76-.21 1.49-.59 2.14l-5.42-3.05 4.39-2.47c1 .89 1.62 2.07 1.62 3.37ZM93.53 198.55l5.42 3.05c-1 1.7-3.13 2.88-5.62 2.88s-4.48-1.1-5.51-2.72l5.71-3.21Z" class="cls-5"/><path d="M87.53 176.25h11.31v5.03H87.53z" class="cls-7"/><path d="M93.33 194.43c1.82 0 3.46.63 4.59 1.65l-4.39 2.47-4.64-2.61c1.13-.93 2.7-1.51 4.44-1.51Z" class="cls-5"/><path d="m93.53 198.55-5.71 3.21c-.44-.69-.69-1.48-.69-2.31 0-1.37.68-2.61 1.77-3.51l4.64 2.61Z" class="cls-5"/><path d="m62.8 181.28 26.1 14.67c-1.09.9-1.77 2.14-1.77 3.51 0 .83.25 1.62.69 2.31l-15.35 8.63H30.79l-15.65-8.8c.38-.65.59-1.38.59-2.14 0-1.3-.62-2.48-1.62-3.37l26.34-14.81h22.34Zm-8.53 18.18c0-2.77-2.25-5.02-5.02-5.02s-5.03 2.25-5.03 5.02 2.25 5.03 5.03 5.03 5.02-2.25 5.02-5.03Z" class="cls-5"/><path d="M87.53 181.28H57v-5.03h30.53v5.03z" class="cls-5"/><path d="M45.7 176.25h11.31v5.03H45.7zM49.25 194.43c2.77 0 5.02 2.25 5.02 5.02s-2.25 5.03-5.02 5.03-5.03-2.25-5.03-5.03 2.25-5.02 5.03-5.02Z" class="cls-7"/><path d="M45.7 181.28H15.17v-5.03H45.7v5.03zM30.79 210.39H.24v-6.52L4 201.76c1.03 1.62 3.12 2.72 5.51 2.72s4.62-1.18 5.62-2.88l15.65 8.8ZM15.73 199.45c0 .76-.21 1.49-.59 2.14l-5.42-3.05 4.39-2.47c1 .89 1.62 2.07 1.62 3.37Z" class="cls-5"/><path d="M3.87 176.25h11.31v5.03H3.87z" class="cls-7"/><path d="m9.72 198.55 5.42 3.05c-1 1.7-3.13 2.88-5.62 2.88s-4.48-1.1-5.51-2.72l5.71-3.21ZM9.52 194.43c1.82 0 3.46.63 4.59 1.65l-4.39 2.47-4.64-2.61c1.13-.93 2.7-1.51 4.44-1.51Z" class="cls-5"/><path d="m9.72 198.55-5.71 3.21c-.44-.69-.69-1.48-.69-2.31 0-1.37.68-2.61 1.77-3.51l4.64 2.61ZM.24 193.23l4.84 2.72c-1.09.9-1.77 2.14-1.77 3.51 0 .83.25 1.62.69 2.31l-3.76 2.11v-10.65Z" class="cls-5"/><path d="M213.02 176.25H.24v-68.06H270.15v68.06h-57.13z" style="fill:#d2d296;stroke-width:0"/><path d="M.24 181.28h40.21l-26.34 14.81c-1.14-1.02-2.77-1.65-4.59-1.65s-3.31.58-4.44 1.51l-4.84-2.72v-11.95Z" class="cls-5"/><path d="M270.15 210.39H.24M.24 102.42h269.91M.24 108.19h269.91M266.16 176.25h3.99M224.33 176.25h30.52M182.5 176.25h30.52M140.67 176.25h30.52M98.83 176.25h30.53M57 176.25h30.53M15.17 176.25H45.7M.24 176.25h3.63M266.16 181.28h3.99M224.33 181.28h30.52M182.5 181.28h30.52M140.67 181.28H171.19M98.83 181.28h30.53M57 181.28h30.53M15.17 181.28H45.7M.24 181.28h3.63M72.46 210.39l15.35-8.63 5.72-3.21 4.39-2.47 26.34-14.8" class="cls-1"/><path d="m114.6 210.39-15.65-8.79-5.42-3.05-4.64-2.61-26.09-14.66M139.4 199.45c0 2.78-2.25 5.03-5.02 5.03s-5.03-2.25-5.03-5.03 2.25-5.02 5.03-5.02 5.02 2.25 5.02 5.02ZM224.07 199.45c0 2.78-2.25 5.03-5.02 5.03s-5.03-2.25-5.03-5.03 2.25-5.02 5.03-5.02 5.02 2.25 5.02 5.02Z" class="cls-1"/><path d="M97.92 196.08c1 .89 1.62 2.07 1.62 3.37 0 .76-.21 1.49-.59 2.14-1 1.7-3.13 2.88-5.62 2.88s-4.48-1.1-5.51-2.72c-.44-.69-.69-1.48-.69-2.31 0-1.37.68-2.61 1.77-3.51 1.13-.93 2.7-1.51 4.44-1.51 1.82 0 3.46.63 4.59 1.65ZM.24 203.87l3.77-2.11 5.71-3.21 4.39-2.47 26.34-14.8" class="cls-1"/><path d="m30.79 210.39-15.65-8.79-5.42-3.05-4.64-2.61-4.84-2.71" class="cls-1"/><path d="M14.11 196.08c1 .89 1.62 2.07 1.62 3.37 0 .76-.21 1.49-.59 2.14-1 1.7-3.13 2.88-5.62 2.88s-4.48-1.1-5.51-2.72c-.44-.69-.69-1.48-.69-2.31 0-1.37.68-2.61 1.77-3.51 1.13-.93 2.7-1.51 4.44-1.51 1.82 0 3.46.63 4.59 1.65ZM156.08 210.39l15.35-8.63 5.72-3.21 4.39-2.47 26.34-14.8" class="cls-1"/><path d="m198.21 210.39-15.64-8.79-5.42-3.05-4.64-2.61-26.1-14.66" class="cls-1"/><path d="M181.54 196.08c1 .89 1.62 2.07 1.62 3.37 0 .76-.21 1.49-.59 2.14-1 1.7-3.13 2.88-5.62 2.88s-4.48-1.1-5.51-2.72c-.44-.69-.69-1.48-.69-2.31 0-1.37.68-2.61 1.77-3.51 1.13-.93 2.7-1.51 4.44-1.51 1.82 0 3.46.63 4.59 1.65ZM239.7 210.39l15.35-8.63 5.72-3.21 4.39-2.48 4.99-2.8" class="cls-1"/><path d="m270.15 203.83-3.97-2.23-5.41-3.05-4.64-2.61-26.1-14.66" class="cls-1"/><path d="M265.16 196.07c1 .89 1.62 2.08 1.62 3.38 0 .76-.21 1.49-.59 2.14-1 1.7-3.13 2.88-5.62 2.88s-4.48-1.1-5.51-2.72c-.44-.69-.69-1.48-.69-2.31 0-1.37.68-2.61 1.77-3.51 1.13-.93 2.7-1.51 4.44-1.51 1.82 0 3.46.63 4.59 1.64ZM54.27 199.45c0 2.78-2.25 5.03-5.02 5.03s-5.03-2.25-5.03-5.03 2.25-5.02 5.03-5.02 5.02 2.25 5.02 5.02ZM3.87 176.25h11.31v5.03H3.87zM45.7 176.25h11.31v5.03H45.7zM87.53 176.25h11.31v5.03H87.53zM129.36 176.25h11.31v5.03h-11.31zM171.19 176.25h11.31v5.03h-11.31zM213.02 176.25h11.31v5.03h-11.31zM254.85 176.25h11.31v5.03h-11.31z" class="cls-1"/></g><g id="_レイヤー_3" data-name="レイヤー 3"><path d="m245.39 125.01-4.76 8.68c-5.62-2.55-26.64-7.62-26.64-7.62-1.29-2.59-2.79-4.99-4.15-7.03 0 0 18.7-1.69 30.79 2.23l4.76 3.74Z" class="cls-4"/><path d="m241.65 110.39-1.02 10.88c-12.09-3.92-30.79-2.23-30.79-2.23-.68-1.02-1.33-1.94-1.9-2.75-.33-.47-.76-.98-1.27-1.53.55-1.55.82-3.03.91-4.37.61-.06 22.05-2.05 27.26-1.38l6.81 1.38ZM240.63 133.69l-11.41 11.92c-2.72-2.56-11.99-7.75-11.99-7.75h-.01c.06-3.93-1.36-8.05-3.23-11.79 0 0 21.02 5.07 26.64 7.62Z" class="cls-4"/><path d="m230.92 101.18 3.92 7.83c-5.21-.67-26.65 1.32-27.26 1.38.26-3.88-.91-6.66-.91-6.66 6.13-1.19 15.06-4.08 15.06-4.08l9.19 1.53ZM229.22 145.61l.68 2.21-16.84 5.61c.13-.27 2.25-4.69 3.91-13.01.17-.84.25-1.69.25-2.56h.01s9.27 5.19 11.99 7.75Z" class="cls-4"/><path d="m183.12 98.09 2.57-.33c.95 1.25 6.16 4.94 11.39 8.9 3.69 2.82 7.39 5.77 9.59 8.1.51.55.94 1.06 1.27 1.53.57.81 1.22 1.73 1.9 2.75 1.36 2.04 2.86 4.44 4.15 7.03 1.87 3.74 3.29 7.86 3.23 11.79 0 .87-.08 1.72-.25 2.56-1.66 8.32-3.78 12.74-3.91 13.01h-.01c-.51 1.02-1.5 1.73-2.54 2.25-.98-4.99-26.83-24.5-37.54-34.11h-.01c-2.01-1.82-3.49-3.28-4.16-4.22-1.86-2.6-5.3-10.08-8.64-17.84-2.88-6.71-5.68-13.62-7.32-17.75-.8-2.05-1.32-3.41-1.41-3.73.13-.04.28-.07.42-.11h.04c2.2-.59 5.51-1.44 8.97-1.95 1.33-.2 2.69-.34 4.02-.4 3.13-.14 6.07.2 8.09 1.5 1.04.67 1.84 1.59 2.29 2.83.09.25.19.52.31.83.59 1.58 1.52 3.89 2.7 6.66a252.9 252.9 0 0 0 4.85 10.7Z" class="cls-4"/><path d="M210.51 155.68c-.7.36-1.44.62-2.05.82-3.75 1.36-11.92-1.02-15.66-2.55-3.75-1.53-4.09-5.62-4.09-5.62-1.84-10.72-15.32-26.27-15.74-26.76 10.71 9.61 36.56 29.12 37.54 34.11Z" class="cls-8"/><path d="M207.58 110.39c-.09 1.34-.36 2.82-.91 4.37-2.2-2.33-5.9-5.28-9.59-8.1l.02-.03 1.79-8.53c3.33 1.45 6.91 3.09 7.78 5.63 0 0 1.17 2.78.91 6.66Z" class="cls-4"/><path d="m198.89 98.1-1.79 8.53-.02.03c-5.23-3.96-10.44-7.65-11.39-8.9l9.74-1.26c1.01.53 2.22 1.05 3.46 1.6Z" class="cls-4"/><path d="m195.43 96.5-9.74 1.26-2.57.33a252.9 252.9 0 0 1-4.85-10.7l13.93-1.1s2.64 8.59 3.23 10.21ZM190.67 79.22l1.53 7.07-13.93 1.1c-1.18-2.77-2.11-5.08-2.7-6.66l15.1-1.51Z" class="cls-8"/><path d="M172.97 77.07c-2.02-1.3-4.96-1.64-8.09-1.5.37-.64.74-1.74 1.1-3.15 2.46-3.11 12.29-8.54 12.29-8.54l-3-8.05-7.81 9.41c1.29-7.52 2.29-16.22 2.33-16.59 3.04 1.74 6.55 3.54 8.37 4.45 3.06 1.53 5.1 2.55 5.1 6.63s.51 16.6 4.86 18.9l2.55.59-15.1 1.51c-.12-.31-.22-.58-.31-.83-.45-1.24-1.25-2.16-2.29-2.83Z" class="cls-4"/><path d="M147.52 149.67c-4.26 1.72-17.53 4.11-22.13 2.58-6.88-4.96-7.77-10.96-6.49-16.32 1.01-4.25 3.4-8.11 5.24-10.73.46-.66.89-1.23 1.25-1.72-.28-1.38-.38-3.61-.35-6.3.06-8.9 1.44-22.88 2.03-28.31 1.28-.03 2.32-.09 2.94-.21 3.88-.76 15.25-3.56 19.26-5.99.4.81.81 1.67 1.14 2.49 1.08 2.65 6.77 10.02 8.71 14.8l1.04-.45c3.34 7.76 6.78 15.24 8.64 17.84.67.94 2.15 2.4 4.16 4.21h.01c.42.5 13.9 16.05 15.74 26.77l-9.53 5.79s-21.45-.73-31.66-4.45Z" class="cls-3"/><path d="m175.27 55.83 3 8.05s-9.83 5.43-12.29 8.54c.51-1.95 1.01-4.49 1.48-7.18l7.81-9.41Z" class="cls-8"/><path d="M167.46 65.24c-.47 2.69-.97 5.23-1.48 7.18-.36 1.41-.73 2.51-1.1 3.15-1.33.06-2.69.2-4.02.4l-.06-.43c.19-.1.43-1.03.7-2.49.07-.32.13-.68.19-1.06.34-1.99.7-4.66 1.06-7.53 1.09-8.59 2.13-19.02 2.13-19.02.94.83 2.81 2.01 4.91 3.2-.04.38-1.04 9.08-2.33 16.6Z" class="cls-8"/><path d="M164.88 45.44s-1.04 10.43-2.13 19.02c-2.27-2.11-6.12-7.41-6.12-7.41l-3.24 5.88-.79-.22c3-10.97 5.89-23.28 5.89-23.28 2.89 2.55 5.29 5.02 6.39 6.01Z" class="cls-4"/><path d="M162.75 64.46c-.36 2.87-.72 5.54-1.06 7.53-.08-.53-.4-1.14-.89-1.83-1.41-1.95-4.29-4.49-7.41-7.23l3.24-5.88s3.85 5.3 6.12 7.41Z" class="cls-8"/><path d="M161.69 71.99c-.06.38-.12.74-.19 1.06l-4.53.39v-2.9l3.83-.38c.49.69.81 1.3.89 1.83Z" class="cls-8"/><path d="m156.97 73.44 4.53-.39c-.27 1.46-.51 2.39-.7 2.49l.06.43c-3.46.51-6.77 1.36-8.97 1.94h-.04l-4.66.97c1.28-1.96 3.37-8.76 5.41-16.17l.79.22c3.12 2.74 6 5.28 7.41 7.23l-3.83.38v2.9Z" class="cls-4"/><path d="m160.16 99.51-1.04.45c-1.94-4.78-7.63-12.15-8.71-14.8-.33-.82-.74-1.68-1.14-2.49.01 0 .01-.01.02-.01l3.55-.9c1.64 4.13 4.44 11.04 7.32 17.75Z" class="cls-3"/><path d="M156.46 37.7c.69.57 1.37 1.15 2.03 1.73 0 0-2.89 12.31-5.89 23.28-2.04 7.41-4.13 14.21-5.41 16.17 0 0-15.26 5.75-17.88 6.26-.89.17-3.14.12-5.98-.05l6.68-12.67s8.45-9.23 13.81-23.08c.01 0 .01-.01.01-.01 1.22-3.15 2.28-6.55 3.05-10.14a25.31 25.31 0 0 0 1.4-6.61h.01c2.63.95 5.51 2.95 8.17 5.12Z" class="cls-4"/><path d="m156.63 37.5-.17.2c-2.66-2.17-5.54-4.17-8.17-5.12h-.01c.06-.7.09-1.4.09-2.12 0-.66-.02-1.32-.08-1.96h.01c.97-9.08-2.17-19.49-2.38-20.21 4.79 10.09 9.98 23.47 10.71 29.21ZM152.84 81.76l-3.55.9s-.01.01-.02.01c-1.03-2.06-2.08-3.79-2.08-3.79l4.66-.96c-.14.04-.29.07-.42.11.09.32.61 1.68 1.41 3.73Z" class="cls-4"/><path d="M147.19 78.88s1.05 1.73 2.08 3.79c-4.01 2.43-15.38 5.23-19.26 5.99-.62.12-1.66.18-2.94.2-1.83.03-4.17-.03-6.61-.13-6.36-.27-13.38-.82-13.69-.84-.39-2.91-1.03-4.07-1.03-4.07.92.05 1.98.11 3.13.2 4.39.31 10.12.82 14.46 1.07 2.84.17 5.09.22 5.98.05 2.62-.51 17.88-6.26 17.88-6.26Z" class="cls-8"/><path d="M145.92 8.29c.21.72 3.35 11.13 2.38 20.21h-.01c-.6-8.31-5.03-15.31-11.16-18.46L141.9.5c1.22 2.11 2.59 4.79 4 7.75 0 0 0 .01.02.04Z" class="cls-4"/><path d="M120.55 40.29c-.46.05-.93.01-1.29-.21-.6-.37-.55-3.74-.38-6.75.15-2.54.38-4.83.38-4.83l-.64-2.16c.61-.17 1.22-.36 1.84-.57l-5.37-1.55-3.06 3.09-.58-.06c1.3-10.75 9.03-19 18.37-19 2.6 0 5.07.64 7.31 1.79 6.13 3.15 10.56 10.15 11.16 18.46.06.64.08 1.3.08 1.96 0 .72-.03 1.42-.09 2.12a25.31 25.31 0 0 1-1.4 6.61c-2.83 7.93-9.41 13.48-17.06 13.48-1.71 0-3.37-.28-4.94-.8-2.64-.87-5.05-2.42-7.06-4.48l.17-.17c.8-.21 2.6-6.21 2.6-6.21l-.04-.72Zm12.25-15.58-4.6-.98-3.32 1.96c2.64.1 5.28-.22 7.92-.98Z" class="cls-6"/><path d="M146.88 39.19c-.77 3.59-1.83 6.99-3.05 10.14 0 0 0 .01-.01.01-.31.36-5.88 6.84-11.02 11.17l-2.98-7.84c7.65 0 14.23-5.55 17.06-13.48Z" class="cls-6"/><path d="M132.8 60.51c5.14-4.33 10.71-10.81 11.02-11.17-5.36 13.85-13.81 23.08-13.81 23.08l-2.13-8.54c1.43-.65 3.15-1.88 4.92-3.37Z" class="cls-4"/><path d="m129.82 52.67 2.98 7.84c-1.77 1.49-3.49 2.72-4.92 3.37l-3-12.01c1.57.52 3.23.8 4.94.8Z" class="cls-4"/><path d="m128.2 23.73 4.6.98a25.03 25.03 0 0 1-7.92.98l3.32-1.96Z" class="cls-7"/><path d="m127.88 63.88 2.13 8.54-6.68 12.67c-4.34-.25-10.07-.76-14.46-1.07v-.2c.18-10.37 5.12-30.45 8.54-36.84.13.14.26.27.41.41 2.01 2.06 4.42 3.61 7.06 4.48l3 12.01Z" class="cls-4"/><path d="M127.07 88.86c-.59 5.44-1.97 19.42-2.03 28.32h-.16c-.87.15-3.39.02-6.03-.18l.05-.71.79-13.92.37-6.63.4-7.01c2.44.1 4.78.16 6.61.13Z" class="cls-8"/><path d="M125.04 117.18c-.03 2.69.07 4.92.35 6.3-.36.49-.79 1.06-1.25 1.72-1.7.07-3.58-.06-5.37-.29-3.99-.5-7.51-1.43-7.51-1.43h-.12c-.01-2.39-.03-4.88-.03-7.19h.2s3.88.42 7.54.71c2.64.2 5.16.33 6.03.18h.16Z" class="cls-4"/><path d="M104.14 135.74c2.86-.31 5.4-.65 7.12-1.03l-.05-4.17 7.56-5.63c1.79.23 3.67.36 5.37.29-1.84 2.62-4.23 6.48-5.24 10.73l-8.66 6.02-4.42 7.72-3.62 1.37-5.35-5.31-5.34-5.31 10.68-4.49c.66-.06 1.31-.13 1.94-.19Z" class="cls-4"/><path d="M117.41 46.98a22.43 22.43 0 0 1-3.86-5.82 24.945 24.945 0 0 1-2.12-7.74l1.54-.15c1.27-.68 4.68 0 4.68 0l1.23.06c-.17 3.01-.22 6.38.38 6.75.36.22.83.26 1.29.21l.04.72s-1.8 6-2.6 6.21l-.17.17c-.15-.14-.28-.27-.41-.41Z" class="cls-6"/><path d="m120.46 88.73-.4 7.01-13.06-.95c.12-2.96-.02-5.22-.23-6.9.31.02 7.33.57 13.69.84Z" class="cls-8"/><path d="m115.09 24.22 5.37 1.55c-.62.21-1.23.4-1.84.57-2.28.65-4.49 1.01-6.59.97l3.06-3.09Z" class="cls-7"/><path d="m120.06 95.74-.37 6.63-8.94-.23c-.62-2.54-1.81-5.36-3.75-7.35l13.06.95ZM119.69 102.37l-.79 13.92-.05.71c-3.66-.29-7.54-.71-7.54-.71h-.2c-.01-4.44.03-8.19.15-9.15.14-1.09 0-2.95-.51-5l8.94.23Z" class="cls-8"/><path d="M125.39 152.25c-4.59-1.54-9.7-1.88-9.7-1.88l-5.45-8.42 8.66-6.02c-1.28 5.36-.39 11.36 6.49 16.32Z" class="cls-4"/><path d="m118.62 26.34.64 2.16s-.23 2.29-.38 4.83l-1.23-.06s-3.41-.68-4.68 0l-1.54.15c-.11-.97-.17-1.96-.17-2.96 0-1.09.07-2.16.19-3.21l.58.06c2.1.04 4.31-.32 6.59-.97Z" class="cls-6"/><path d="m118.77 124.91-7.56 5.63c-.02-1.96-.05-4.45-.07-7.06h.12s3.52.93 7.51 1.43Z" class="cls-4"/><path d="M113.55 41.16a22.43 22.43 0 0 0 3.86 5.82c-3.42 6.39-8.36 26.47-8.53 36.84v.2c-1.16-.09-2.22-.15-3.14-.2-.48-1.43-1.52-3.97-2.78-6.92l2.78-29.93c3.52-3.14 6.49-5.44 7.23-5.53l.58-.28ZM110.24 141.95l5.45 8.42-9.87-.7 4.42-7.72z" class="cls-8"/><path d="M60.2 102.36c-.1-1.99-.17-3.42-.17-3.9 0-1.32-.4-2.81.04-4.9.41-1.97 1.58-4.48 4.56-7.87.54-.61 1.17-1.3 1.88-2.05 2.88 4.61 5.78 4.44 13.43 4.95 7.62.51 16.43 2.4 18.02 4.93 3.42-.81 6.26-.92 7.78.17.45.33.87.69 1.26 1.1 1.94 1.99 3.13 4.81 3.75 7.35.51 2.05.65 3.91.51 5-.12.96-.16 4.71-.15 9.15 0 2.31.02 4.8.03 7.19.02 2.61.05 5.1.07 7.06l.05 4.17c-1.72.38-4.26.72-7.12 1.03-5.02-.16-9.21-2.55-12.63-5.2h-.01c-4.23-3.26-7.3-6.87-9.34-7.06-1.7 2.38 1.19 13.79 1.19 13.79-2.91 2.12-5.72 3.92-8.42 5.43-2.93 1.64-5.74 2.95-8.42 3.96-15.66 5.92-27.14 1.98-34.57-2.24.19-3.18 2.82-8.59 6.5-14.54 6.57-10.65 16.46-23.03 21.59-27.51h.17Z" class="cls-4"/><path d="M106.77 87.89c.21 1.68.35 3.94.23 6.9a9.37 9.37 0 0 0-1.26-1.1c-1.52-1.09-4.36-.98-7.78-.17-1.59-2.53-10.4-4.42-18.02-4.93-7.65-.51-10.55-.34-13.43-4.95 7.34-7.79 22.95-22.11 28.07-25.52 0 0 4.99 10.86 8.38 18.78 1.26 2.95 2.3 5.49 2.78 6.92 0 0 .64 1.16 1.03 4.07Z" class="cls-4"/><path d="m105.74 46.97-2.78 29.93c-3.39-7.92-8.38-18.78-8.38-18.78 2.92-3.45 7.36-7.78 11.16-11.15Z" class="cls-4"/><path d="M104.14 135.74c-.63.06-1.28.13-1.94.19-6.33.62-13.6 1.06-16.96 1.24 0 0 3.53-6.35 6.27-6.63h.01c3.42 2.65 7.61 5.04 12.63 5.2ZM102.2 151.04l-1.83.69-16.17.86 1.03-1.71.72-1.21h.01c.21-.05 7.01-1.61 10.89-3.94l5.35 5.31Z" class="cls-8"/><path d="m102.19 135.93-10.68 4.49-5.55 9.25h-.01l-.72 1.21c-3.83.25-10.3-8.18-10.3-8.18 2.7-1.51 5.51-3.31 8.42-5.43 0 0 .7-.03 1.88-.1 3.36-.18 10.63-.62 16.96-1.24Z" class="cls-4"/><path d="m91.51 140.42 5.34 5.31c-3.88 2.33-10.68 3.89-10.89 3.94l5.55-9.25ZM91.5 130.54c-2.74.28-6.27 6.63-6.27 6.63-1.18.07-1.88.1-1.88.1s-2.89-11.41-1.19-13.79c2.04.19 5.11 3.8 9.34 7.06Z" class="cls-8"/><path d="m85.23 150.88-1.03 1.71s-14.45 1.42-17.69-5.93c2.68-1.01 5.49-2.32 8.42-3.96 0 0 6.47 8.43 10.3 8.18Z" class="cls-4"/><path d="M60.2 102.36h-.17c-5.13 4.49-15.02 16.87-21.59 27.51-3.09-9.8-2.92-20.69 2.19-26.14 5.1-5.44 19.44-10.17 19.44-10.17-.44 2.09-.04 3.58-.04 4.9 0 .48.07 1.91.17 3.9Z" class="cls-3"/><path d="M61.9 129.61s-1.23-18.76-1.7-27.25c-.1-1.99-.17-3.42-.17-3.9 0-1.32-.4-2.81.04-4.9.41-1.97 1.58-4.48 4.56-7.87.54-.61 1.17-1.3 1.88-2.05 7.34-7.79 22.95-22.11 28.07-25.52 2.92-3.45 7.36-7.78 11.16-11.15 3.52-3.14 6.49-5.44 7.23-5.53M213.05 153.44c-.51 1.01-1.5 1.72-2.54 2.24-.7.36-1.44.62-2.05.82-3.75 1.36-11.92-1.02-15.66-2.55-3.75-1.53-4.09-5.62-4.09-5.62l-9.53 5.79s-21.45-.73-31.66-4.45c-4.26 1.72-17.53 4.11-22.13 2.58-4.59-1.54-9.7-1.88-9.7-1.88l-9.87-.7-3.62 1.37-1.83.69-16.17.86s-14.45 1.42-17.69-5.93M169.79 48.65c3.04 1.74 6.55 3.54 8.37 4.45 3.06 1.53 5.1 2.55 5.1 6.63s.51 16.6 4.86 18.9l2.55.59 1.53 7.07s2.64 8.59 3.23 10.21c1.01.53 2.22 1.05 3.46 1.6 3.33 1.45 6.91 3.09 7.78 5.63 6.13-1.19 15.06-4.08 15.06-4.08l9.19 1.53 3.92 7.83 6.81 1.38-1.02 10.88 4.76 3.74-4.76 8.68-11.41 11.92.68 2.21-16.84 5.61M148.29 32.58c2.63.95 5.51 2.95 8.17 5.12.69.57 1.37 1.15 2.03 1.73 2.89 2.55 5.29 5.02 6.39 6.01.94.83 2.81 2.01 4.91 3.2M148.29 28.5c.06.64.08 1.3.08 1.96 0 .72-.03 1.42-.09 2.12a25.31 25.31 0 0 1-1.4 6.61c-2.83 7.93-9.41 13.48-17.06 13.48-1.71 0-3.37-.28-4.94-.8-2.64-.87-5.05-2.42-7.06-4.48-.15-.14-.28-.27-.41-.41a22.43 22.43 0 0 1-3.86-5.82 24.945 24.945 0 0 1-2.12-7.74c-.11-.97-.17-1.96-.17-2.96 0-1.09.07-2.16.19-3.21 1.3-10.75 9.03-19 18.37-19 2.6 0 5.07.64 7.31 1.79 6.13 3.15 10.56 10.15 11.16 18.46Z" class="cls-2"/><path d="M139.69 27.99c.6-.43 3.32-4.09 5.02-3.74 1.7.34 2.64 2.21 2.64 4.68s-.17 5.61-.77 7.06c-.59 1.45-2.38 2.04-3.06.94l-.68-1.11M132.8 24.71l-4.6-.98-3.32 1.96c2.64.1 5.28-.22 7.92-.98ZM112.03 27.31l3.06-3.09 5.37 1.55c-.62.21-1.23.4-1.84.57-2.28.65-4.49 1.01-6.59.97ZM125.39 31.9s3.41-2 5.79-1.04M117.65 33.27s-3.41-.68-4.68 0M119.26 28.5s-.23 2.29-.38 4.83c-.17 3.01-.22 6.38.38 6.75.36.22.83.26 1.29.21.94-.1 1.86-.56 1.86-.56M124.88 37.86s3.83 7.66 7.92 9.11M120.59 41.01s-1.8 6-2.6 6.21M122.8 44.5l4.29.17-3.07 2.13M145.92 8.29c4.79 10.09 9.98 23.47 10.71 29.21M137.13 10.04 141.9.5c1.22 2.11 2.59 4.79 4 7.75" class="cls-2"/><path d="M145.9 8.25s0 .01.02.04c.21.72 3.35 11.13 2.38 20.21M143.83 49.33c1.22-3.15 2.28-6.55 3.05-10.14M124.88 51.87l3 12.01 2.13 8.54s8.45-9.23 13.81-23.08" class="cls-2"/><path d="M143.83 49.33s0 .01-.01.01c-.31.36-5.88 6.84-11.02 11.17-1.77 1.49-3.49 2.72-4.92 3.37M129.82 52.67l2.98 7.84M117.41 46.97h0c-3.42 6.4-8.36 26.48-8.53 36.85M105.74 46.97l-2.78 29.93" class="cls-2"/><path d="M94.58 58.12s4.99 10.86 8.38 18.78c1.26 2.95 2.3 5.49 2.78 6.92.92.05 1.98.11 3.13.2 4.39.31 10.12.82 14.46 1.07 2.84.17 5.09.22 5.98.05 2.62-.51 17.88-6.26 17.88-6.26 1.28-1.96 3.37-8.76 5.41-16.17 3-10.97 5.89-23.28 5.89-23.28M130.01 72.42l-6.68 12.67" class="cls-2"/><path d="M116.24 55.8s-.51 19.09 2.53 23.21M66.51 83.64c2.88 4.61 5.78 4.44 13.43 4.95 7.62.51 16.43 2.4 18.02 4.93.01 0 .02.03.03.04" class="cls-2"/><path d="M76.54 102.37c5.75-3.04 14.71-7.28 21.42-8.85 3.42-.81 6.26-.92 7.78.17.45.33.87.69 1.26 1.1 1.94 1.99 3.13 4.81 3.75 7.35.51 2.05.65 3.91.51 5-.12.96-.16 4.71-.15 9.15 0 2.31.02 4.8.03 7.19.02 2.61.05 5.1.07 7.06l.05 4.17M38.44 129.87c6.57-10.64 16.46-23.02 21.59-27.5" class="cls-2"/><path d="M103.6 102.37s-7.66 11.58-21.44 21.11c-1.7 2.38 1.19 13.79 1.19 13.79-2.91 2.12-5.72 3.92-8.42 5.43-2.93 1.64-5.74 2.95-8.42 3.96-15.66 5.92-27.14 1.98-34.57-2.24.19-3.18 2.82-8.59 6.5-14.54M102.2 135.93c.66-.06 1.31-.13 1.94-.19 2.86-.31 5.4-.65 7.12-1.03M83.35 137.27s.7-.03 1.88-.1c3.36-.18 10.63-.62 16.96-1.24" class="cls-2"/><path d="M91.51 130.54c3.42 2.65 7.61 5.04 12.63 5.2.17.01.35.01.53.01M82.16 123.48c2.04.19 5.11 3.8 9.34 7.06M85.23 137.17s3.53-6.35 6.27-6.63h.01M105.74 83.82s.64 1.16 1.03 4.07c.21 1.68.35 3.94.23 6.9l13.06.95" class="cls-2"/><path d="M106.76 87.89h.01c.31.02 7.33.57 13.69.84 2.44.1 4.78.16 6.61.13 1.28-.02 2.32-.08 2.94-.2 3.88-.76 15.25-3.56 19.26-5.99.01 0 .01-.01.02-.01" class="cls-2"/><path d="M147.19 78.88s1.05 1.73 2.08 3.79c.4.81.81 1.67 1.14 2.49 1.08 2.65 6.77 10.02 8.71 14.8.21.49.37.96.48 1.39 1.2 4.6 5.79 16.17 7.15 22.98 1.37 6.81 5.79 14.98 5.79 14.98M172.97 121.57c10.71 9.61 36.56 29.12 37.54 34.11M151.85 77.92c-.14.04-.29.07-.42.11.09.32.61 1.68 1.41 3.73 1.64 4.13 4.44 11.04 7.32 17.75 3.34 7.76 6.78 15.24 8.64 17.84.67.94 2.15 2.4 4.16 4.21M203.01 126.02c-6.35-2.47-14.11-15.95-19.89-27.93a252.9 252.9 0 0 1-4.85-10.7c-1.18-2.77-2.11-5.08-2.7-6.66-.12-.31-.22-.58-.31-.83-.45-1.24-1.25-2.16-2.29-2.83-2.02-1.3-4.96-1.64-8.09-1.5-1.33.06-2.69.2-4.02.4-3.46.51-6.77 1.36-8.97 1.94" class="cls-2"/><path d="M172.96 121.56h.01c.42.5 13.9 16.05 15.74 26.77M149.29 82.66l3.55-.9h.01M147.19 78.88l4.66-.96.04-.01M135.01 115.61s11.49 15.87 24 19.19M147.52 149.67c6.13-3.13 9.11-5.94 9.11-5.94M127.07 88.87c-.59 5.43-1.97 19.41-2.03 28.31-.03 2.69.07 4.92.35 6.3 1.19 5.96 2.49 11.32 2.49 11.32" class="cls-2"/><path d="M125.39 123.48c-.36.49-.79 1.06-1.25 1.72-1.84 2.62-4.23 6.48-5.24 10.73-1.28 5.36-.39 11.36 6.49 16.32M111.31 116.29s3.88.42 7.54.71c2.64.2 5.16.33 6.03.18" class="cls-2"/><path d="M111.26 123.48s3.52.93 7.51 1.43c1.79.23 3.67.36 5.37.29M118.77 124.91l-7.56 5.63M85.95 149.67l-.72 1.21-1.03 1.71M102.2 135.93h-.01l-10.68 4.49-5.55 9.25" class="cls-2"/><path d="m91.51 140.42 5.34 5.31 5.35 5.31M85.95 149.67h.01c.21-.05 7.01-1.61 10.89-3.94M74.93 142.7s6.47 8.43 10.3 8.18M105.82 149.67l4.42-7.72 5.45 8.42M110.24 141.95l8.66-6.02M175.57 80.73l15.1-1.51M178.27 87.39l13.93-1.1M183.12 98.09l2.57-.33 9.74-1.26M185.69 97.76c.95 1.25 6.16 4.94 11.39 8.9 3.69 2.82 7.39 5.77 9.59 8.1.51.55.94 1.06 1.27 1.53.57.81 1.22 1.73 1.9 2.75 1.36 2.04 2.86 4.44 4.15 7.03 1.87 3.74 3.29 7.86 3.23 11.79 0 .87-.08 1.72-.25 2.56-1.66 8.32-3.78 12.74-3.91 13.01h-.01M206.67 103.73s1.17 2.78.91 6.66c-.09 1.34-.36 2.82-.91 4.37" class="cls-2"/><path d="M207.57 110.39h.01c.61-.06 22.05-2.05 27.26-1.38M209.84 119.04s18.7-1.69 30.79 2.23M213.99 126.07s21.02 5.07 26.64 7.62M217.23 137.86s9.27 5.19 11.99 7.75M198.89 98.09v.01l-1.79 8.53M120.46 88.73l-.4 7.01-.37 6.63-.79 13.92M110.75 102.14l8.94.23M172.96 77.07h.01c1.96-.75 6.04-4.65 6.55-6.53M167.33 65.39l.13-.15 7.81-9.41 3 8.05s-9.83 5.43-12.29 8.54M164.88 45.44s-1.04 10.43-2.13 19.02c-.36 2.87-.72 5.54-1.06 7.53-.06.38-.12.74-.19 1.06-.27 1.46-.51 2.39-.7 2.49" class="cls-2"/><path d="M169.79 48.64h0c-.04.38-1.04 9.08-2.33 16.6-.47 2.69-.97 5.23-1.48 7.18-.36 1.41-.73 2.51-1.1 3.15M162.75 64.46c-2.27-2.11-6.12-7.41-6.12-7.41l-3.24 5.88c3.12 2.74 6 5.28 7.41 7.23.49.69.81 1.3.89 1.83" class="cls-2"/><path d="m160.8 70.16-3.83.38v2.9l4.53-.39M38.44 129.88h0c-3.09-9.81-2.92-20.7 2.19-26.15 5.1-5.44 19.44-10.17 19.44-10.17" class="cls-2"/></g></svg>