<?xml version="1.0" encoding="UTF-8"?>
<svg id="_レイヤー_1" data-name="レイヤー 1" xmlns="http://www.w3.org/2000/svg" viewBox="0 0 260.72 200.48">
  <defs>
    <style>
      .cls-1 {
        fill: #f0cda5;
      }

      .cls-1, .cls-2, .cls-3, .cls-4, .cls-5, .cls-6 {
        stroke-width: 0px;
      }

      .cls-2 {
        fill: #f0534a;
      }

      .cls-7 {
        fill: none;
        stroke: #000;
        stroke-linecap: round;
        stroke-linejoin: round;
      }

      .cls-4 {
        fill: #333;
      }

      .cls-5 {
        fill: #ef7659;
      }

      .cls-6 {
        fill: #b99fa8;
      }
    </style>
  </defs>
  <g>
    <path class="cls-2" d="m243.54,136.04l16.68,28.14c-5.11,2.05-19.3,3.43-30.12,4.82,1.55-10.09-2.71-20.06-7.81-26.15l8.13-7.74.02-.21,13.1,1.14Z"/>
    <path class="cls-2" d="m230.44,134.9l-.02.21-8.13,7.74c-.85-1-1.72-1.9-2.58-2.67-1.7-1.52-3.88-2.65-6.4-3.45l1.55-8.23,2.46,5.25,13.12,1.15Z"/>
    <path class="cls-6" d="m222.29,142.85c5.1,6.09,9.36,16.06,7.81,26.15-.6,3.94-2.11,7.91-4.8,11.67-2.52-5.52-6.39-11.69-11.55-16.57-6.75-6.38-25.47-19.01-35.62-25.71,3.47-.95,7.27-1.76,11.15-2.34,8.53-1.28,17.43-1.43,24.03.68,2.52.8,4.7,1.93,6.4,3.45.86.77,1.73,1.67,2.58,2.67Z"/>
    <path class="cls-2" d="m210.86,119.93l4,8.57-1.55,8.23c-6.6-2.11-15.5-1.96-24.03-.68h0s21.58-16.12,21.58-16.12Z"/>
    <path class="cls-6" d="m211.71,195.25c-8.94,1.53-42.13,3.83-49.79,4.61-3.86.4-9.21-.32-13.57-1.14.43-.14,14.11-4.41,18.19-9.89,20.6,2.04,49.38,4.49,60.04,3.57-3.03.64-8.77,1.8-14.87,2.85Z"/>
    <path class="cls-2" d="m155.54,90.31l6.12,6.64c-9.37,5.46-38.35,18.73-47.01,34.22.2-7.73,11.68-29.5,28.71-43.6,1.89-1.32,3.73-2.53,5.44-3.63l6.74,6.37Z"/>
    <path class="cls-2" d="m157.07,81.64c1.91,1.42.38,4.71-1.53,8.67l-6.74-6.37c2.28-1.47,4.35-2.75,6.07-3.82.86.5,1.51,1.01,2.2,1.52Z"/>
    <path class="cls-6" d="m166.54,188.83c-4.08,5.48-17.76,9.75-18.19,9.89h-.01c-4.29-.8-7.61-1.69-7.61-1.69h-5.53c3.32-1.27,13.64-6.71,15.47-9.86,4.02.44,9.56,1.03,15.87,1.66Z"/>
    <path class="cls-6" d="m113.61,192.44l1.04-7.63c13.28.71,31.52,1.84,31.52,1.84.24.03.51.06.79.09,1.01.12,2.26.26,3.71.42h0c-1.83,3.16-12.15,8.6-15.47,9.87h-22.22l.63-4.59Z"/>
    <path class="cls-5" d="m140.39,167.08c-3.75,3.57-23.32,14.98-29.45,17.53-.41-.41-2.93-5.39-5.41-11.65-1.57-3.97-3.14-8.46-4.14-12.63-.69-2.87-1.12-5.59-1.11-7.89.04-6.45,2.15-9.92,5.32-12.2,1.18-.85,2.51-1.54,3.93-2.15l-.24-.8c0-.19.05-7.69,7.82-23.15,5.38-10.73,16.63-19.93,26.25-26.57-17.03,14.1-28.51,35.87-28.71,43.6,8.66-15.49,37.64-28.76,47.01-34.22,9.45-5.62,8.17,1.79,9.45,9.45.99,5.95.91,15.27-.37,27.5l.63.07s2.69,1.73,6.76,4.42c10.15,6.7,28.87,19.33,35.62,25.71,5.16,4.88,9.03,11.05,11.55,16.57,2.1,4.58,3.28,8.71,3.51,11.26,0,0-.82.18-2.23.47-10.66.92-39.44-1.53-60.04-3.57-6.31-.63-11.85-1.22-15.87-1.66h0c-1.45-.17-2.7-.31-3.71-.43v-.09c-4.3-2.55-4.87-13.45-6.57-19.57Z"/>
    <path class="cls-5" d="m134.22,74.23s.28.11.79.29l-.41,1.32c-1.83,1.52-5.61,3.93-9.99,6.28-4.98,2.66-10.74,5.24-15.32,6.32-5.26,1.24-8.49.59-10.72-1.03-1.43-1.04-2.44-2.48-3.31-4.08-1.12-2.04-1.29-4.95-1.08-8.08.19-3.12.75-6.47,1.08-9.43l.45-.26c.97,1.65,1.98,3.02,2.89,3.9.28.27.6.53.94.76-.25,1.56-1.45,6.56,1.44,8.86,2.9,2.29,5.88,2.81,10.3,2.46,3.96-.3,11.34-5.59,14.91-8.76.29-.26.47-.61.51-.98h.03l6.61.77.88,1.66Z"/>
    <path class="cls-4" d="m130.39,38.48c-.37,1.84-1.29,8.15-2.15,13.74l-2.31-.36c.05-.34.07-.66.07-.95,0-1.54-1.36-2.05-2.63-1.45-1.28.6-.85.68-1.2-.51-.34-1.19,1.42-4.97,2.02-9.73.29-2.31,1.82-5,1.72-6.64-.11-1.76-1.87-2.42-2.49-2.81-2.81-1.02-10.44-2.86-14.27-.91,4.8-5.07,10.38-8.84,13.88-16.65,3.86-8.6,8.15-12.3,15.4-11.64,7.79.7,9.19,5.49,10.6,9.19,1.4,3.7-.26,11.49-1.28,15.96-1.02,4.46-2.68,3.82-3.58,4.21-.89.38-7.91.89-10.34,1.27-2.39.38-2.8,4.09-3.44,7.28Z"/>
    <path class="cls-4" d="m128.24,52.22c-.62,4.1-1.21,7.82-1.51,9.11-.73,3.07-2.73,3.7-4.06,4.49l-1.86-2.4.09-5.45s2.55-.85,3.49-1.96c.76-.89,1.35-2.69,1.54-4.15l2.31.36Z"/>
    <path class="cls-5" d="m109.29,88.44c4.58-1.08,10.34-3.66,15.32-6.32l2.11,1.06c-.46.65-15.03,21.74-17.43,30.79-2.43,9.19-4,20.6-3.73,26.21l.04.06c-3.17,2.28-5.28,5.75-5.32,12.2-.01,2.3.42,5.02,1.11,7.89,0,0-2.36,1.47-9.53-2.96-4.22-2.6-8.71-7.21-11.86-10.87-2.2-2.56-3.74-4.67-4.07-5.3l-2.62-.24c3.01-20.89,13.95-37.09,23.89-51.87l1.37-1.68c2.23,1.62,5.46,2.27,10.72,1.03Z"/>
    <path class="cls-2" d="m146.17,186.65s-18.24-1.13-31.52-1.84c-1.29-.07-2.54-.14-3.71-.2,6.13-2.55,25.7-13.96,29.45-17.53,1.7,6.12,2.27,17.02,6.58,19.57v.09c-.29-.03-.56-.06-.8-.09Z"/>
    <path class="cls-5" d="m114.65,184.81l-1.04,7.63c-.14.01-.67.04-2.67.16-12.42,1.19-13.79-4.08-16.74-6.97,4.01-2.36,8.58-6.29,11.33-12.67,2.48,6.26,5,11.24,5.41,11.65,1.17.06,2.42.13,3.71.2Z"/>
    <path class="cls-3" d="m112.64,47.07c.34,0,.61.27.61.6s-.27.61-.61.61-.6-.27-.6-.61.27-.6.6-.6Z"/>
    <path class="cls-5" d="m105.56,140.18c-.27-5.61,1.3-17.02,3.73-26.21,2.4-9.05,16.97-30.14,17.43-30.79l-2.11-1.06c4.38-2.35,8.16-4.76,9.99-6.28l.41-1.32c1.82.66,6.56,2.25,11.85,3.15,4.31.73,6.5,1.57,8.01,2.45-1.72,1.07-3.79,2.35-6.07,3.82-1.71,1.1-3.55,2.31-5.44,3.63-9.62,6.64-20.87,15.84-26.25,26.57-7.77,15.46-7.82,22.96-7.82,23.15l.24.8c-1.42.61-2.75,1.3-3.93,2.15l-.04-.06Z"/>
    <path class="cls-4" d="m101.69,56.46c.57-.17,4.98,3.71,5.59,4.94-2.61-.38-4.38-.87-5.4-1.28-.1-.25-.48-.45-.98-.52-.05-.05-.07-.09-.07-.13,0-.32.29-2.84.86-3.01Z"/>
    <path class="cls-3" d="m101.73,60.61c.11.1.18.21.18.34,0,.38-.6.69-1.35.69s-1.35-.31-1.35-.69c0-.13.07-.25.19-.34.23.2.67.34,1.16.34s.94-.14,1.17-.34Z"/>
    <path class="cls-5" d="m101.39,160.33c1,4.17,2.57,8.66,4.14,12.63-2.75,6.38-7.32,10.31-11.33,12.67-2.89,1.7-5.5,2.58-6.92,2.97-3.4.94-21.79.09-25.83-1.44-1.05-.4-2.22-.91-3.53-1.59,3.03-1.15,9.05-10.82,14.89-19.51,4.07-6.06,6.35-10.98,7.1-14.85.35-1.8.37-3.36.09-4.71,3.15,3.66,7.64,8.27,11.86,10.87,7.17,4.43,9.53,2.96,9.53,2.96Z"/>
    <path class="cls-3" d="m100.56,60.26c.5,0,.94.14,1.17.35-.23.2-.67.34-1.17.34s-.93-.14-1.16-.34c.23-.21.67-.35,1.16-.35Z"/>
    <path class="cls-4" d="m101.88,60.12c-.52-.2-.84-.39-.98-.52.5.07.88.27.98.52Z"/>
    <path class="cls-4" d="m99.34,59.97c.14-.15.39-.27.7-.34-.16.1-.39.22-.7.34Z"/>
    <path class="cls-3" d="m101.91,60.26c0,.13-.07.24-.18.35-.23-.21-.67-.35-1.17-.35s-.93.14-1.16.35c-.12-.1-.19-.22-.19-.35,0-.11.05-.2.13-.29.31-.12.54-.24.7-.34h.02c.15-.03.32-.05.5-.05.12,0,.23,0,.34.02.14.13.46.32.98.52.02.05.03.09.03.14Z"/>
    <path class="cls-4" d="m100.04,59.63c-.31.07-.56.19-.7.34-.86.33-2.32.72-4.42,1.03.43-.88,3.2-3.39,4.29-4,.18-.11.31-.16.38-.14.48.15.72,2.26.72,2.52,0,.06-.08.15-.25.25h-.02Z"/>
    <path class="cls-3" d="m98.86,44.43c.34,0,.61.27.61.61s-.27.6-.61.6-.6-.27-.6-.6.27-.61.6-.61Z"/>
    <path class="cls-1" d="m113.25,47.67c0-.33-.27-.6-.61-.6s-.6.27-.6.6.27.61.6.61.61-.27.61-.61Zm-11.52,12.94c.11-.11.18-.22.18-.35,0-.05-.01-.09-.03-.14,1.02.41,2.79.9,5.4,1.28-.61-1.23-5.02-5.11-5.59-4.94s-.86,2.69-.86,3.01c0,.04.02.08.07.13-.11-.01-.22-.02-.34-.02-.18,0-.35.02-.5.05.17-.1.25-.19.25-.25,0-.26-.24-2.37-.72-2.52-.07-.02-.2.03-.38.14l-.67-.91c-1.02,0-2.16-.44-2.16-1.27,0-1.53,1.88-4.27,3.36-5.91.42-.45,1.19-2.41,1.72-4.2l-1.35-.41s-3.99-1.03-4.99.13l-1.26-.45c.4-.95.85-1.83,1.34-2.61,2.55-4.08,10.12-10.55,13.95-12.51,3.83-1.95,11.46-.11,14.27.91.62.39,2.38,1.05,2.49,2.81.1,1.64-1.43,4.33-1.72,6.64-.6,4.76-2.36,8.54-2.02,9.73.35,1.19-.08,1.11,1.2.51,1.27-.6,2.63-.09,2.63,1.45,0,.29-.02.61-.07.95-.19,1.46-.78,3.26-1.54,4.15-.94,1.11-3.49,1.96-3.49,1.96l-.09,5.45,1.86,2.4,3.72,4.79c.27.35.37.78.31,1.19-.04.37-.22.72-.51.98-3.57,3.17-10.95,8.46-14.91,8.76-4.42.35-7.4-.17-10.3-2.46-2.89-2.3-1.69-7.3-1.44-8.86-.34-.23-.66-.49-.94-.76-.91-.88-1.92-2.25-2.89-3.9-.15-.26-.3-.53-.45-.81-.63-1.15-1.23-2.4-1.75-3.71l1.41-.04c2.1-.31,3.56-.7,4.42-1.03-.08.09-.13.18-.13.29,0,.13.07.25.19.35-.12.09-.19.21-.19.34,0,.38.61.69,1.35.69s1.35-.31,1.35-.69c0-.13-.07-.24-.18-.34Z"/>
    <path class="cls-1" d="m99.47,45.04c0-.34-.27-.61-.61-.61s-.6.27-.6.61.27.6.6.6.61-.27.61-.6Zm1.99-.33c-.53,1.79-1.3,3.75-1.72,4.2-1.48,1.64-3.36,4.38-3.36,5.91,0,.83,1.14,1.27,2.16,1.27l.67.91c-1.09.61-3.86,3.12-4.29,4l-1.41.04c-.47-1.2-.89-2.43-1.21-3.67-1.03-3.99-.17-9.33,1.56-13.39l1.26.45c1-1.16,4.99-.13,4.99-.13l1.35.41Z"/>
    <path class="cls-5" d="m78.61,76.36s13.79-9.97,16.65-11.61c.15.28.3.55.45.81l-.45.26c-.33,2.96-.89,6.31-1.08,9.43h-.08c-4.25,3.98-8,7.76-11.31,11.38-2.65-3.03-3.7-7.5-4.04-9.38-.1-.56-.14-.89-.14-.89Z"/>
    <path class="cls-5" d="m82.79,86.63c3.31-3.62,7.06-7.4,11.31-11.38h.08c-.21,3.13-.04,6.04,1.08,8.08.87,1.6,1.88,3.04,3.31,4.08l-1.37,1.68c-9.94,14.78-20.88,30.98-23.89,51.87l2.62.24c.33.63,1.87,2.74,4.07,5.3.28,1.35.26,2.91-.09,4.71,0,0-13.05-.64-20.2-2.01-.35-.07-.7-.13-1.05-.19-6.71-1.21-12.58-1.62-19.3-3.81-7.08-2.29-15.4-14.72-17.1-20.51-1.7-5.78-6.13-9.53-14.3-8.08,4.09-10.21,18-16.5,24.38-19.56,2.42-1.16,4.83-1.12,7.31-.46,2.02,1.74,4.67,6.53,7.52,11.3,1.49,2.51,3.04,5.02,4.58,7.06,4.59,6.13,7.53,7.2,9.7,7.49.97-3.41,2.16-6.73,3.65-10.03,1.89-4.22,4.24-8.42,7.19-12.71,2.89-4.21,6.34-8.53,10.5-13.07Z"/>
    <path class="cls-2" d="m78.75,77.25c.34,1.88,1.39,6.35,4.04,9.38-4.16,4.54-7.61,8.86-10.5,13.07-.86-1.79-4.91-7-7.96-9.55,2.37-2.75,9.6-9.39,14.38-12.89h.04Z"/>
    <path class="cls-5" d="m79.91,151.21c-.75,3.87-3.03,8.79-7.1,14.85-5.84,8.69-11.86,18.36-14.89,19.51-3.75-1.96-8.67-5.33-15.23-11.51,0,0,2.21-3.75,8.11-8,5.9-4.24,7.54-12.43,7.86-17.05.35.06.7.12,1.05.19,7.15,1.37,20.2,2.01,20.2,2.01Z"/>
    <path class="cls-5" d="m64.33,90.15c3.05,2.55,7.1,7.76,7.96,9.55-2.95,4.29-5.3,8.49-7.19,12.71-2.1.15-12.46-5.12-14.3-7.5.82-.91,1.48-1.88,1.67-2.66l.3.12s8.28-9.81,11.34-12.41c.07.06.14.12.22.19Z"/>
    <path class="cls-5" d="m50.8,104.91c1.84,2.38,12.2,7.65,14.3,7.5-1.49,3.3-2.68,6.62-3.65,10.03-2.17-.29-5.11-1.36-9.7-7.49-1.54-2.04-3.09-4.55-4.58-7.06.81-.31,2.4-1.58,3.63-2.98Z"/>
    <path class="cls-5" d="m52.47,102.25c-.19.78-.85,1.75-1.67,2.66-1.23,1.4-2.82,2.67-3.63,2.98-2.85-4.77-5.5-9.56-7.52-11.3,4,1.07,8.18,3.76,12.82,5.66Z"/>
    <path class="cls-6" d="m113.61,192.44l-.63,4.59c-7.56-.02-8.41-.28-19.49-4.85l-4.59.77c-4.6.77-26.81-.26-34.21-4.09-7.41-3.83-9.2-7.66-17.37-9.41-8.17-1.76-12.25-.8-23.23-.03-10.98.76-11.49-13.02-10.72-24.51l-1.94-8.4h0c-.11-.5-.23-1.01-.36-1.56-2.3-9.96,2.81-18.13,6.89-28.34,8.17-1.45,12.6,2.3,14.3,8.08,1.7,5.79,10.02,18.22,17.1,20.51,6.72,2.19,12.59,2.6,19.3,3.81-.32,4.62-1.96,12.81-7.86,17.05-5.9,4.25-8.11,8-8.11,8,6.56,6.18,11.48,9.55,15.23,11.51,1.31.68,2.48,1.19,3.53,1.59,4.04,1.53,22.43,2.38,25.83,1.44,1.42-.39,4.03-1.27,6.92-2.97,2.95,2.89,4.32,8.16,16.74,6.97,2-.12,2.53-.15,2.67-.16Z"/>
  </g>
  <g>
    <path class="cls-7" d="m108.39,71.16c-2.97,1.12-6.52.62-8.85-.94-.34-.23-.66-.49-.94-.76-.91-.88-1.92-2.25-2.89-3.9-.15-.26-.3-.53-.45-.81-.63-1.15-1.23-2.4-1.75-3.71-.47-1.2-.89-2.43-1.21-3.67-1.03-3.99-.17-9.33,1.56-13.39.4-.95.85-1.83,1.34-2.61,2.55-4.08,10.12-10.55,13.95-12.51,3.83-1.95,11.46-.11,14.27.91.62.39,2.38,1.05,2.49,2.81.1,1.64-1.43,4.33-1.72,6.64-.6,4.76-2.36,8.54-2.02,9.73.35,1.19-.08,1.11,1.2.51,1.27-.6,2.63-.09,2.63,1.45,0,.29-.02.61-.07.95-.19,1.46-.78,3.26-1.54,4.15-.94,1.11-3.49,1.96-3.49,1.96l-.09,5.45,1.86,2.4,3.72,4.79c.27.35.37.78.31,1.19-.04.37-.22.72-.51.98-3.57,3.17-10.95,8.46-14.91,8.76-4.42.35-7.4-.17-10.3-2.46-2.89-2.3-1.69-7.3-1.44-8.86"/>
    <path class="cls-7" d="m122.67,65.82c1.33-.79,3.33-1.42,4.06-4.49.3-1.29.89-5.01,1.51-9.11.86-5.59,1.78-11.9,2.15-13.74.64-3.19,1.05-6.9,3.44-7.28,2.43-.38,9.45-.89,10.34-1.27.9-.39,2.56.25,3.58-4.21,1.02-4.47,2.68-12.26,1.28-15.96-1.41-3.7-2.81-8.49-10.6-9.19-7.25-.66-11.54,3.04-15.4,11.64-3.5,7.81-9.08,11.58-13.88,16.65"/>
    <path class="cls-7" d="m106.13,37.59c-.64-1.02-5.37-.85-6.11-.16"/>
    <path class="cls-7" d="m112.64,39.25s3.9-1.66,7.8,1.91"/>
    <path class="cls-7" d="m113.59,47.07c-2.07-1.1-5.36-1.18-6.31-.48"/>
    <path class="cls-7" d="m100.11,44.3s-3.99-1.03-4.99.13"/>
    <path class="cls-7" d="m169.32,145.2c.57-4,1.05-7.77,1.42-11.3,1.28-12.23,1.36-21.55.37-27.5-1.28-7.66,0-15.07-9.45-9.45l-6.12-6.64c1.91-3.96,3.44-7.25,1.53-8.67-.69-.51-1.34-1.02-2.2-1.52-1.51-.88-3.7-1.72-8.01-2.45-5.29-.9-10.03-2.49-11.85-3.15-.51-.18-.79-.29-.79-.29l-.88-1.66-6.61-.77"/>
    <path class="cls-7" d="m95.26,65.82c-.33,2.96-.89,6.31-1.08,9.43-.21,3.13-.04,6.04,1.08,8.08.87,1.6,1.88,3.04,3.31,4.08,2.23,1.62,5.46,2.27,10.72,1.03,4.58-1.08,10.34-3.66,15.32-6.32,4.38-2.35,8.16-4.76,9.99-6.28"/>
    <path class="cls-7" d="m126.73,83.16s0,0-.01.02c-.46.65-15.03,21.74-17.43,30.79-2.43,9.19-4,20.6-3.73,26.21"/>
    <path class="cls-7" d="m154.87,80.12c-1.72,1.07-3.79,2.35-6.07,3.82-1.71,1.1-3.55,2.31-5.44,3.63-9.62,6.64-20.87,15.84-26.25,26.57-7.77,15.46-7.82,22.96-7.82,23.15"/>
    <path class="cls-7" d="m193.66,158.4c-16.34-.68-37.1-2.56-50.89-10.22-9.68-5.38-16.85-10.17-22.67-11.66-2.47-.63-4.7-.67-6.78.09-1.31.48-2.58.95-3.79,1.48-1.42.61-2.75,1.3-3.93,2.15-3.17,2.28-5.28,5.75-5.32,12.2-.01,2.3.42,5.02,1.11,7.89,1,4.17,2.57,8.66,4.14,12.63,2.48,6.26,5,11.24,5.41,11.65,6.13-2.55,25.7-13.96,29.45-17.53-11.07-3.07-27.41-9.36-29.11-15.66"/>
    <path class="cls-7" d="m140.39,167.08c1.7,6.12,2.27,17.02,6.58,19.57"/>
    <path class="cls-7" d="m150.67,187.17c4.02.44,9.56,1.03,15.87,1.66,20.6,2.04,49.38,4.49,60.04,3.57"/>
    <path class="cls-7" d="m110.94,184.61c1.17.06,2.42.13,3.71.2,13.28.71,31.52,1.84,31.52,1.84.24.03.51.06.79.09,1.01.12,2.26.26,3.71.42"/>
    <path class="cls-7" d="m135.2,197.03c3.32-1.27,13.64-6.71,15.47-9.86h0"/>
    <path class="cls-7" d="m148.35,198.72c.43-.14,14.11-4.41,18.19-9.89"/>
    <path class="cls-7" d="m97.2,89.09c-9.94,14.78-20.88,30.98-23.89,51.87-.2,1.39-.37,2.8-.5,4.24"/>
    <path class="cls-7" d="m57.75,145.2c.64-8.32,1.69-15.72,3.7-22.76.97-3.41,2.16-6.73,3.65-10.03,1.89-4.22,4.24-8.42,7.19-12.71,2.89-4.21,6.34-8.53,10.5-13.07,3.31-3.62,7.06-7.4,11.31-11.38"/>
    <path class="cls-7" d="m95.26,64.75c-2.86,1.64-16.65,11.61-16.65,11.61,0,0,.04.33.14.89.34,1.88,1.39,6.35,4.04,9.38"/>
    <path class="cls-7" d="m1.43,146.51l1.94,8.4c-.77,11.49-.26,25.27,10.72,24.51,10.98-.77,15.06-1.73,23.23.03,8.17,1.75,9.96,5.58,17.37,9.41,7.4,3.83,29.61,4.86,34.21,4.09l4.59-.77c11.08,4.57,11.93,4.83,19.49,4.85h27.75s3.32.89,7.61,1.69h.01c4.36.82,9.71,1.54,13.57,1.14,7.66-.78,40.85-3.08,49.79-4.61,6.1-1.05,11.84-2.21,14.87-2.85,1.41-.29,2.23-.47,2.23-.47-.23-2.55-1.41-6.68-3.51-11.26-2.52-5.52-6.39-11.69-11.55-16.57-6.75-6.38-25.47-19.01-35.62-25.71-4.07-2.69-6.76-4.42-6.76-4.42"/>
    <path class="cls-7" d="m72.29,99.7c-.86-1.79-4.91-7-7.96-9.55-.08-.07-.15-.13-.22-.19-3.06,2.6-11.34,12.41-11.34,12.41l-.3-.12c-4.64-1.9-8.82-4.59-12.82-5.66-2.48-.66-4.89-.7-7.31.46-6.38,3.06-20.29,9.35-24.38,19.56-4.08,10.21-9.19,18.38-6.89,28.34.13.55.25,1.06.36,1.55"/>
    <path class="cls-7" d="m39.36,96.36c.1.07.19.15.29.23,2.02,1.74,4.67,6.53,7.52,11.3,1.49,2.51,3.04,5.02,4.58,7.06,4.59,6.13,7.53,7.2,9.7,7.49"/>
    <path class="cls-7" d="m52.52,101.93c-.01.1-.02.21-.05.32-.19.78-.85,1.75-1.67,2.66-1.23,1.4-2.82,2.67-3.63,2.98"/>
    <path class="cls-7" d="m50.8,104.91c1.84,2.38,12.2,7.65,14.3,7.5"/>
    <path class="cls-7" d="m7.96,116.61c8.17-1.45,12.6,2.3,14.3,8.08,1.7,5.79,10.02,18.22,17.1,20.51,6.72,2.19,12.59,2.6,19.3,3.81.35.06.7.12,1.05.19,7.15,1.37,20.2,2.01,20.2,2.01"/>
    <path class="cls-7" d="m80,146.5c.28,1.35.26,2.91-.09,4.71-.75,3.87-3.03,8.79-7.1,14.85-5.84,8.69-11.86,18.36-14.89,19.51-.06.03-.12.04-.17.06"/>
    <path class="cls-7" d="m75.93,141.2c.33.63,1.87,2.74,4.07,5.3,3.15,3.66,7.64,8.27,11.86,10.87,7.17,4.43,9.53,2.96,9.53,2.96"/>
    <path class="cls-7" d="m58.66,149.01c-.32,4.62-1.96,12.81-7.86,17.05-5.9,4.25-8.11,8-8.11,8,6.56,6.18,11.48,9.55,15.23,11.51,1.31.68,2.48,1.19,3.53,1.59,4.04,1.53,22.43,2.38,25.83,1.44,1.42-.39,4.03-1.27,6.92-2.97,4.01-2.36,8.58-6.29,11.33-12.67"/>
    <path class="cls-7" d="m94.2,185.63c2.95,2.89,4.32,8.16,16.74,6.97,2-.12,2.53-.15,2.67-.16h.05"/>
    <polyline class="cls-7" points="114.65 184.8 114.65 184.81 113.61 192.44 112.98 197.03"/>
    <path class="cls-7" d="m178.13,138.39c3.47-.95,7.27-1.76,11.15-2.34,8.53-1.28,17.43-1.43,24.03.68,2.52.8,4.7,1.93,6.4,3.45.86.77,1.73,1.67,2.58,2.67,5.1,6.09,9.36,16.06,7.81,26.15-.6,3.94-2.11,7.91-4.8,11.67"/>
    <path class="cls-7" d="m189.28,136.04l21.58-16.11,4,8.57,2.46,5.25,13.12,1.15,13.1,1.14,16.68,28.14c-5.11,2.05-19.3,3.43-30.12,4.82"/>
    <polyline class="cls-7" points="222.28 142.86 222.29 142.85 230.42 135.11"/>
    <line class="cls-7" x1="213.31" y1="136.73" x2="214.86" y2="128.5"/>
    <path class="cls-7" d="m1.43,146.5h0c2.98,4.94,15.72,20.34,22.87,22.5"/>
    <path class="cls-7" d="m12.86,171.16c5.14,1.87,15.19,5.79,22.68,5.7"/>
    <path class="cls-7" d="m161.66,96.95c-9.37,5.46-38.35,18.73-47.01,34.22.2-7.73,11.68-29.5,28.71-43.6.23-.2.45-.39.68-.57"/>
    <line class="cls-7" x1="148.8" y1="83.94" x2="155.54" y2="90.31"/>
    <path class="cls-7" d="m158.59,115.17c-2.3,7.15-12.27,9.19-20.43,11.75-8.16,2.55-14.43,6.45-18.06,9.6"/>
    <path class="cls-7" d="m64.11,90.41c.07-.08.14-.17.22-.26,2.37-2.75,9.6-9.39,14.38-12.89"/>
    <path class="cls-7" d="m102.05,42.07c-.04.59-.27,1.59-.59,2.64-.53,1.79-1.3,3.75-1.72,4.2-1.48,1.64-3.36,4.38-3.36,5.91,0,.83,1.14,1.27,2.16,1.27.84,0,1.61-.3,1.57-.92"/>
    <path class="cls-7" d="m102.85,52.79c.76.94.74,2.47.74,2.47"/>
  </g>
</svg>