<svg id="_レイヤー_1" data-name="レイヤー 1" xmlns="http://www.w3.org/2000/svg" viewBox="0 0 270.12 228.82"><defs><style>.cls-1{fill:#f0cda5}.cls-1,.cls-2,.cls-3,.cls-4,.cls-5,.cls-6,.cls-8{stroke-width:0}.cls-2{fill:#f0534a}.cls-9{stroke-miterlimit:10}.cls-10,.cls-9{fill:none;stroke:#000}.cls-4{fill:#f3edd7}.cls-10{stroke-linecap:round;stroke-linejoin:round}.cls-5{fill:#333}.cls-6{fill:#ef7659}.cls-8{fill:#b99fa8}</style></defs><path class="cls-4" d="M.24 194.21h3.62v5.02H.24zM269.88 221.76v6.56h-30.42l15.34-8.62c1.03 1.61 3.11 2.72 5.51 2.72s4.62-1.18 5.61-2.88l3.96 2.23Z"/><path class="cls-4" d="M269.88 211.22v10.55l-3.96-2.23c.38-.65.59-1.38.59-2.14 0-1.3-.62-2.48-1.61-3.37l4.99-2.8ZM269.88 199.24v11.98l-4.99 2.8c-1.14-1.01-2.77-1.64-4.59-1.64s-3.31.58-4.43 1.51l-26.07-14.65h40.08ZM269.88 120.68v5.76H.24v-5.76h269.64zM265.89 194.21h3.99v5.02h-3.99z"/><path class="cls-4" d="M266.5 217.39c0 .76-.21 1.49-.59 2.14l-5.41-3.04 4.39-2.47c1 .89 1.61 2.07 1.61 3.37Z"/><path class="cls-4" d="m260.5 216.49 5.41 3.04c-1 1.7-3.13 2.88-5.61 2.88s-4.48-1.1-5.51-2.72l5.71-3.21Z"/><path class="cls-5" d="M254.59 194.21h11.3v5.02h-11.3z"/><path class="cls-4" d="m264.89 214.02-4.39 2.47-4.63-2.6c1.13-.93 2.7-1.51 4.43-1.51 1.82 0 3.45.63 4.59 1.64Z"/><path class="cls-4" d="m260.5 216.49-5.71 3.21c-.44-.69-.69-1.47-.69-2.31 0-1.37.68-2.6 1.77-3.5l4.63 2.6Z"/><path class="cls-4" d="m229.8 199.24 26.07 14.65c-1.09.9-1.77 2.13-1.77 3.5 0 .83.25 1.62.69 2.31l-15.34 8.62h-41.44l-15.63-8.79c.38-.65.59-1.38.59-2.14 0-1.3-.62-2.48-1.61-3.37l26.31-14.79h22.13Zm-5.96 18.16c0-2.77-2.25-5.01-5.01-5.01s-5.02 2.25-5.02 5.01 2.25 5.02 5.02 5.02 5.01-2.25 5.01-5.02Z"/><path class="cls-4" d="M254.59 199.24H224.1v-5.03h30.49v5.03z"/><path class="cls-5" d="M212.8 194.21h11.3v5.02h-11.3zM218.82 212.38c2.77 0 5.01 2.25 5.01 5.01s-2.25 5.02-5.01 5.02-5.02-2.25-5.02-5.02 2.25-5.01 5.02-5.01Z"/><path class="cls-4" d="m207.67 199.24-26.31 14.79c-1.14-1.01-2.77-1.65-4.59-1.65s-3.31.58-4.43 1.51l-26.07-14.65h61.4Z"/><path class="cls-4" d="M182.31 199.24v-5.03h30.49v5.03h-30.49zM198.01 228.32h-42.09l15.34-8.62c1.03 1.61 3.11 2.72 5.51 2.72s4.62-1.18 5.61-2.88l15.63 8.79ZM182.97 217.39c0 .76-.21 1.49-.59 2.14l-5.41-3.04 4.39-2.46c1 .88 1.61 2.06 1.61 3.37Z"/><path class="cls-4" d="m176.97 216.49 5.41 3.04c-1 1.7-3.13 2.88-5.61 2.88s-4.48-1.1-5.51-2.72l5.71-3.21Z"/><path class="cls-5" d="M171.02 194.21h11.3v5.02h-11.3z"/><path class="cls-4" d="M176.77 212.38c1.82 0 3.45.63 4.59 1.65l-4.39 2.46-4.63-2.6c1.13-.93 2.7-1.51 4.43-1.51ZM176.97 216.49l-5.71 3.21c-.44-.69-.69-1.47-.69-2.31 0-1.37.68-2.6 1.77-3.5l4.63 2.6Z"/><path class="cls-4" d="m146.27 199.24 26.07 14.65c-1.09.9-1.77 2.13-1.77 3.5 0 .83.25 1.62.69 2.31l-15.34 8.62h-41.44l-15.63-8.79c.38-.65.59-1.38.59-2.14 0-1.3-.62-2.48-1.61-3.37l26.31-14.79h22.13Zm-7.01 18.16c0-2.77-2.25-5.01-5.01-5.01s-5.02 2.25-5.02 5.01 2.25 5.02 5.02 5.02 5.01-2.25 5.01-5.02Z"/><path class="cls-4" d="M171.02 199.24h-30.5v-5.03h30.5v5.03z"/><path class="cls-5" d="M129.23 194.21h11.3v5.02h-11.3zM134.24 212.38c2.77 0 5.01 2.25 5.01 5.01s-2.25 5.02-5.01 5.02-5.02-2.25-5.02-5.02 2.25-5.01 5.02-5.01Z"/><path class="cls-4" d="m124.14 199.24-26.31 14.79c-1.14-1.01-2.77-1.65-4.59-1.65s-3.31.58-4.43 1.51l-26.07-14.65h61.4Z"/><path class="cls-4" d="M129.23 199.24h-30.5v-5.03h30.5v5.03zM114.48 228.32H72.39l15.34-8.62c1.03 1.61 3.11 2.72 5.51 2.72s4.62-1.18 5.61-2.88l15.63 8.79ZM99.44 217.39c0 .76-.21 1.49-.59 2.14l-5.41-3.04 4.39-2.46c1 .88 1.61 2.06 1.61 3.37Z"/><path class="cls-4" d="m93.43 216.49 5.41 3.04c-1 1.7-3.13 2.88-5.61 2.88s-4.48-1.1-5.51-2.72l5.71-3.21Z"/><path class="cls-5" d="M87.44 194.21h11.3v5.02h-11.3z"/><path class="cls-4" d="M93.23 212.38c1.82 0 3.45.63 4.59 1.65l-4.39 2.46-4.63-2.6c1.13-.93 2.7-1.51 4.43-1.51Z"/><path class="cls-4" d="m93.43 216.49-5.71 3.21c-.44-.69-.69-1.47-.69-2.31 0-1.37.68-2.6 1.77-3.5l4.63 2.6Z"/><path class="cls-4" d="m62.73 199.24 26.07 14.65c-1.09.9-1.77 2.13-1.77 3.5 0 .83.25 1.62.69 2.31l-15.34 8.62H30.76l-15.63-8.79c.38-.65.59-1.38.59-2.14 0-1.3-.62-2.48-1.61-3.37l26.31-14.79h22.32Zm-8.52 18.16c0-2.77-2.25-5.01-5.01-5.01s-5.02 2.25-5.02 5.01 2.25 5.02 5.02 5.02 5.01-2.25 5.01-5.02Z"/><path class="cls-4" d="M87.44 199.24H56.95v-5.03h30.49v5.03z"/><path class="cls-5" d="M45.65 194.21h11.3v5.02h-11.3zM49.2 212.38c2.77 0 5.01 2.25 5.01 5.01s-2.25 5.02-5.01 5.02-5.02-2.25-5.02-5.02 2.25-5.01 5.02-5.01Z"/><path class="cls-4" d="M45.65 199.24H15.16v-5.03h30.49v5.03zM30.76 228.32H.24v-6.52L4 219.69c1.03 1.61 3.11 2.72 5.51 2.72s4.62-1.18 5.61-2.88l15.63 8.79ZM15.71 217.39c0 .76-.21 1.49-.59 2.14l-5.41-3.04 4.39-2.46c1 .88 1.61 2.06 1.61 3.37Z"/><path class="cls-5" d="M3.86 194.21h11.3v5.02H3.86z"/><path class="cls-4" d="m9.71 216.49 5.41 3.04c-1 1.7-3.13 2.88-5.61 2.88s-4.48-1.1-5.51-2.72l5.71-3.21Z"/><path class="cls-4" d="M9.51 212.38c1.82 0 3.45.63 4.59 1.65l-4.39 2.46-4.63-2.6c1.13-.93 2.7-1.51 4.43-1.51Z"/><path class="cls-4" d="M9.71 216.49 4 219.7c-.44-.69-.69-1.47-.69-2.31 0-1.37.68-2.6 1.77-3.5l4.63 2.6Z"/><path class="cls-4" d="m.24 211.17 4.83 2.72c-1.09.9-1.77 2.13-1.77 3.5 0 .83.25 1.62.69 2.31l-3.76 2.11v-10.64Z"/><path style="fill:#d2d296;stroke-width:0" d="M212.8 194.21H.24v-67.77h269.64v67.77H212.8z"/><path class="cls-4" d="M.24 199.24h40.17L14.1 214.03c-1.14-1.01-2.77-1.65-4.59-1.65s-3.31.58-4.43 1.51l-4.83-2.72v-11.94Z"/><path class="cls-9" d="M269.88 228.32H.24M.24 120.68h269.64M.24 126.44h269.64M265.89 194.21h3.99M224.1 194.21h30.49M182.31 194.21h30.49M140.52 194.21h30.5M98.73 194.21h30.5M56.95 194.21h30.49M15.16 194.21h30.49M.24 194.21h3.62M265.89 199.24h3.99M224.1 199.24h30.49M182.31 199.24h30.49M140.52 199.24h30.5M98.73 199.24h30.5M56.95 199.24H87.44M15.16 199.24H45.65M.24 199.24h3.62M72.39 228.32l15.34-8.62 5.7-3.21 4.39-2.46 26.32-14.79"/><path class="cls-9" d="m114.48 228.32-15.63-8.78-5.42-3.05-4.63-2.6-26.07-14.65M139.26 217.39c0 2.78-2.25 5.02-5.01 5.02s-5.02-2.25-5.02-5.02 2.25-5.01 5.02-5.01 5.01 2.25 5.01 5.01ZM223.84 217.39c0 2.78-2.25 5.02-5.01 5.02s-5.02-2.25-5.02-5.02 2.25-5.01 5.02-5.01 5.01 2.25 5.01 5.01Z"/><path class="cls-9" d="M97.82 214.03c1 .88 1.61 2.06 1.61 3.37 0 .76-.21 1.49-.59 2.14-1 1.7-3.13 2.88-5.61 2.88s-4.48-1.1-5.51-2.72c-.44-.69-.69-1.47-.69-2.31 0-1.37.68-2.6 1.77-3.5 1.13-.93 2.7-1.51 4.43-1.51 1.82 0 3.45.63 4.59 1.65ZM.24 221.81 4 219.7l5.71-3.21 4.39-2.46 26.31-14.79"/><path class="cls-9" d="m30.76 228.32-15.64-8.78-5.41-3.05-4.63-2.6-4.84-2.72"/><path class="cls-9" d="M14.1 214.03c1 .88 1.61 2.06 1.61 3.37 0 .76-.21 1.49-.59 2.14-1 1.7-3.13 2.88-5.61 2.88s-4.48-1.1-5.51-2.72c-.44-.69-.69-1.47-.69-2.31 0-1.37.68-2.6 1.77-3.5 1.13-.93 2.7-1.51 4.43-1.51 1.82 0 3.45.63 4.59 1.65ZM155.92 228.32l15.34-8.62 5.71-3.21 4.39-2.46 26.31-14.79"/><path class="cls-9" d="m198.01 228.32-15.63-8.78-5.41-3.05-4.64-2.6-26.06-14.65"/><path class="cls-9" d="M181.36 214.03c1 .88 1.61 2.06 1.61 3.37 0 .76-.21 1.49-.59 2.14-1 1.7-3.13 2.88-5.61 2.88s-4.48-1.1-5.51-2.72c-.44-.69-.69-1.47-.69-2.31 0-1.37.68-2.6 1.77-3.5 1.13-.93 2.7-1.51 4.43-1.51 1.82 0 3.45.63 4.59 1.65ZM239.45 228.32l15.34-8.62 5.71-3.21 4.39-2.47 4.99-2.8"/><path class="cls-9" d="m269.88 221.76-3.97-2.22-5.41-3.05-4.63-2.6-26.07-14.65"/><path class="cls-9" d="M264.89 214.02c1 .89 1.61 2.07 1.61 3.37 0 .76-.21 1.49-.59 2.14-1 1.7-3.13 2.88-5.61 2.88s-4.48-1.1-5.51-2.72c-.44-.69-.69-1.47-.69-2.31 0-1.37.68-2.6 1.77-3.5 1.13-.93 2.7-1.51 4.43-1.51 1.82 0 3.45.63 4.59 1.64ZM54.21 217.39c0 2.78-2.25 5.02-5.01 5.02s-5.02-2.25-5.02-5.02 2.25-5.01 5.02-5.01 5.01 2.25 5.01 5.01ZM3.86 194.21h11.3v5.02H3.86zM45.65 194.21h11.3v5.02h-11.3zM87.44 194.21h11.3v5.02h-11.3zM129.23 194.21h11.3v5.02h-11.3zM171.02 194.21h11.3v5.02h-11.3zM212.8 194.21h11.3v5.02h-11.3zM254.59 194.21h11.3v5.02h-11.3z"/><path class="cls-2" d="m245.99 119.91 14.69 24.8c-4.5 1.8-16.99 3.02-26.54 4.25 1.37-8.89-2.39-17.68-6.88-23.04l7.17-6.83.02-.19 11.53 1Z"/><path class="cls-2" d="m234.46 118.91-.02.19-7.17 6.83c-.75-.88-1.52-1.67-2.27-2.35-1.5-1.34-3.42-2.34-5.64-3.04l1.37-7.26 2.17 4.63 11.56 1.01Z"/><path class="cls-8" d="M227.27 125.92c4.49 5.36 8.25 14.15 6.88 23.04-.54 3.47-1.86 6.96-4.23 10.26-2.23-4.85-5.63-10.29-10.18-14.59-5.94-5.62-22.44-16.75-31.38-22.65 3.06-.84 6.4-1.55 9.82-2.06 7.51-1.13 15.36-1.25 21.17.61 2.22.7 4.14 1.7 5.64 3.04.76.68 1.52 1.47 2.27 2.35Z"/><path class="cls-6" d="m181.85 118.03.56.06s2.37 1.52 5.96 3.89c8.94 5.9 25.44 17.03 31.38 22.65 4.55 4.3 7.95 9.73 10.18 14.59 1.86 4.05 2.89 7.68 3.1 9.93 0 0-.73.16-1.97.42h-.04c-9.41.8-34.74-1.35-52.86-3.16-5.56-.55-10.44-1.07-13.98-1.46-1.27-.14-2.37-.26-3.26-.37v-.08c-3.79-2.25-4.3-11.84-5.8-17.24-3.29 3.15-20.54 13.2-25.94 15.44-.36-.36-2.58-4.75-4.77-10.26-1.38-3.5-2.77-7.45-3.65-11.13-.61-2.53-.99-4.92-.98-6.95.04-5.67 1.9-8.73 4.69-10.74 1.05-.76 2.22-1.37 3.47-1.91l-.22-.7c0-.17.04-6.77 6.89-20.39 4.75-9.45 14.67-17.57 23.14-23.43-15.01 12.43-25.13 31.63-25.3 38.43 7.63-13.64 33.16-25.34 41.42-30.15 8.32-4.95 7.2 1.58 8.32 8.33.87 5.23.8 13.45-.33 24.23Z"/><path class="cls-8" d="M231.01 169.57c-2.69.56-7.72 1.59-13.06 2.5-7.88 1.35-37.12 3.37-43.86 4.07-3.4.34-8.12-.29-11.96-1.01 0 0 12.38-3.8 16.03-8.71 18.12 1.81 43.45 3.96 52.86 3.15Z"/><path class="cls-2" d="m217.2 105.72 3.53 7.55-1.37 7.26c-5.81-1.86-13.66-1.74-21.17-.61s19.01-14.2 19.01-14.2Z"/><path class="cls-8" d="M178.15 166.41c-3.66 4.92-16.03 8.72-16.03 8.72-3.78-.7-6.7-1.48-6.7-1.48h-4.87c2.92-1.13 12.03-5.93 13.63-8.7 3.54.4 8.42.92 13.98 1.46Z"/><path class="cls-2" d="m168.46 79.63 5.4 5.85c-8.25 4.81-33.79 16.51-41.42 30.15.17-6.8 10.29-26 25.3-38.43 1.67-1.15 3.28-2.22 4.78-3.18l5.93 5.61Z"/><path class="cls-6" d="M169.81 71.99c1.69 1.25.33 4.16-1.35 7.64l-5.93-5.61c2.01-1.3 3.82-2.42 5.34-3.37.77.44 1.33.89 1.94 1.34Z"/><path class="cls-6" d="M157.75 77.19c-8.48 5.86-18.39 13.97-23.14 23.43-6.85 13.62-6.89 20.23-6.89 20.39l.22.7c-1.25.55-2.42 1.15-3.47 1.91l-.04-.05c-.24-4.95 1.15-15 3.29-23.1 2.11-7.97 14.95-26.55 15.36-27.13l-1.86-.93c3.86-2.07 7.18-4.19 8.8-5.52l.36-1.17c1.6.58 5.78 1.99 10.44 2.78 3.8.64 5.73 1.38 7.06 2.16-1.52.94-3.33 2.07-5.34 3.37-1.51.96-3.12 2.03-4.78 3.18Z"/><path class="cls-5" d="M162.73 8.66c1.23 3.26-.23 10.12-1.13 14.06s-2.36 3.37-3.15 3.71c-.79.33-6.98.78-9.11 1.13-2.11.33-2.48 3.59-3.04 6.4-.33 1.62-1.14 7.17-1.89 12.1l-2.03-.31c.04-.3.06-.58.06-.84 0-1.36-1.2-1.8-2.33-1.28-1.13.53-.75.6-1.05-.45s1.24-4.38 1.77-8.57c.26-2.04 1.6-4.4 1.52-5.85-.09-1.55-1.65-2.12-2.19-2.48-1.91-.7-6.4-1.83-9.88-1.5 4.18-4.42 6.47-7.13 9.53-13.97 3.4-7.58 7.18-10.84 13.57-10.25 6.86.62 8.1 4.84 9.34 8.1Z"/><path class="cls-8" d="m131.53 169.6.92-6.72c11.7.63 27.77 1.62 27.77 1.62.21.03.45.05.7.08.89.11 1.99.23 3.26.37-1.59 2.78-10.7 7.58-13.63 8.7h-19.57l.56-4.05Z"/><path class="cls-2" d="M160.92 164.5v.08c-.26-.03-.49-.05-.7-.08 0 0-16.07-1-27.77-1.62-1.15-.06-2.24-.12-3.28-.18 5.4-2.25 22.65-12.3 25.94-15.44 1.5 5.4 2.01 14.99 5.81 17.24Z"/><path class="cls-6" d="m150.38 65.71-.36 1.17c-1.62 1.33-4.94 3.45-8.8 5.52-4.39 2.34-9.46 4.62-13.5 5.57-4.63 1.09-7.47.52-9.44-.91-1.26-.93-2.15-2.19-2.92-3.59-.99-1.8-1.13-4.36-.95-7.12.18-2.74.66-5.7.95-8.31l.4-.23c.85 1.45 1.74 2.66 2.55 3.44.25.24.53.46.83.66-.22 1.38-1.28 5.79 1.28 7.81 2.55 2.03 5.17 2.48 9.07 2.18 3.5-.27 9.99-4.92 13.14-7.73.26-.23.41-.54.45-.86h.02l5.82.68.78 1.46s.25.1.7.26Z"/><path class="cls-5" d="m142.39 45.75 2.03.31c-.55 3.61-1.07 6.9-1.33 8.03-.64 2.7-2.4 3.27-3.58 3.96l-1.63-2.11.07-4.8s2.25-.75 3.07-1.72c.67-.79 1.2-2.37 1.37-3.66Z"/><path class="cls-1" d="m120.83 39.45-1.2-.36s-3.61-.7-4.4-.44l-.86-.39c.29-.63.6-1.22.93-1.74 1.03-1.65 3-3.74 5.14-5.7a.18.18 0 0 1 .07-.05c2.51-2.28 5.28-4.34 7.08-5.27.76-.39 1.67-.61 2.69-.7 3.48-.33 7.96.8 9.88 1.5.55.35 2.11.93 2.19 2.48.09 1.45-1.26 3.81-1.52 5.85-.53 4.19-2.07 7.52-1.77 8.57s-.08.98 1.05.45c1.13-.52 2.33-.08 2.33 1.28 0 .26-.02.54-.06.84-.17 1.3-.7 2.87-1.37 3.66-.83.97-3.07 1.72-3.07 1.72l-.07 4.8 1.63 2.11 3.28 4.23c.24.31.33.68.28 1.04-.04.33-.19.63-.45.86-3.15 2.8-9.65 7.45-13.14 7.73-3.89.3-6.52-.15-9.07-2.18-2.55-2.03-1.5-6.43-1.28-7.81-.3-.21-.58-.43-.83-.67-.8-.78-1.69-1.98-2.55-3.44-.13-.23-.26-.46-.4-.7-.56-1.01-1.07-2.12-1.54-3.28l1.24-.04c1.88-.27 3.16-.63 3.92-.92-.09.08-.13.18-.13.27 0 .11.06.22.17.3-.11.09-.17.19-.17.3 0 .33.53.61 1.19.61s1.18-.27 1.18-.61c0-.11-.06-.21-.17-.3.11-.08.17-.19.17-.3 0-.04 0-.08-.03-.12.9.35 2.46.78 4.76 1.12-.54-1.07-4.42-4.5-4.92-4.35s-.76 2.38-.76 2.66c0 .03.02.06.05.11-.09 0-.19-.02-.28-.02-.15 0-.29.02-.42.04.14-.09.2-.16.2-.2 0-.24-.21-2.1-.63-2.22-.06-.02-.19.03-.34.11l-.59-.8c-.9 0-1.9-.38-1.9-1.12 0-1.35 1.66-3.76 2.96-5.2.37-.41 1.05-2.13 1.52-3.71Zm10.38 2.62c0-.3-.24-.54-.53-.54s-.54.24-.54.54.24.53.54.53.53-.24.53-.53Z"/><path class="cls-6" d="m141.21 72.41 1.86.93c-.41.57-13.24 19.15-15.36 27.13-2.14 8.1-3.52 18.15-3.29 23.1l.04.05c-2.78 2.01-4.65 5.07-4.69 10.74 0 2.03.37 4.42.98 6.95 0 0-2.08 1.3-8.4-2.6-3.72-2.3-7.67-6.36-10.45-9.59-1.94-2.26-3.29-4.11-3.59-4.66l-2.31-.21c2.65-18.41 12.29-32.68 21.05-45.71l1.22-1.48c1.96 1.43 4.81 2 9.44.91 4.03-.95 9.11-3.22 13.5-5.57ZM132.45 162.88l-.92 6.72c-.12 0-.59.04-2.36.14-10.94 1.05-12.14-3.59-14.74-6.14 3.53-2.08 7.55-5.54 9.97-11.16 2.18 5.51 4.4 9.9 4.77 10.26 1.04.05 2.13.11 3.28.18Z"/><path class="cls-8" d="M32.69 129.14c-.1-.44-.2-.89-.32-1.37-2.03-8.77 2.48-15.97 6.07-24.97 7.2-1.28 11.1 2.03 12.6 7.13 1.5 5.09 8.84 16.04 15.06 18.07 5.92 1.92 11.09 2.29 17 3.36-.27 4.07-1.73 11.28-6.92 15.02-5.2 3.74-7.14 7.04-7.14 7.04 5.78 5.44 10.11 8.41 13.42 10.14 1.15.6 2.18 1.06 3.11 1.4 3.57 1.36 19.76 2.1 22.76 1.28 1.26-.34 3.55-1.13 6.11-2.63 2.6 2.55 3.8 7.19 14.74 6.14 1.77-.11 2.24-.13 2.36-.14l-.56 4.05c-6.66-.02-7.42-.24-17.17-4.27l-4.05.67c-4.04.68-23.62-.22-30.14-3.59-6.53-3.37-8.1-6.75-15.29-8.3s-10.8-.7-20.47-.03c-9.67.68-10.12-11.47-9.44-21.59l-1.71-7.4Z"/><path class="cls-3" d="M130.68 41.53c.29 0 .53.24.53.54s-.24.53-.53.53-.54-.24-.54-.53.24-.54.54-.54ZM125.95 54.16c-2.3-.33-3.86-.77-4.76-1.12-.09-.23-.43-.41-.86-.47a.153.153 0 0 1-.05-.11c0-.28.26-2.51.76-2.66s4.39 3.28 4.92 4.35ZM121.19 53.04s.03.08.03.12c0 .11-.06.22-.17.3-.2-.18-.58-.3-1.01-.3s-.82.12-1.02.3a.378.378 0 0 1-.17-.3c0-.1.04-.19.13-.27.29-.11.5-.21.63-.3.13-.02.27-.04.42-.04.1 0 .19 0 .28.02.11.11.4.27.86.46ZM121.05 53.46c.11.09.17.19.17.3 0 .33-.53.61-1.18.61s-1.19-.27-1.19-.61c0-.11.06-.21.17-.3.2.19.58.3 1.02.3s.81-.11 1.01-.3Z"/><path class="cls-6" d="M120.76 141.31c.88 3.67 2.26 7.63 3.65 11.13-2.42 5.62-6.44 9.08-9.97 11.16-2.55 1.5-4.85 2.28-6.11 2.63-3 .82-19.19.08-22.76-1.28-.93-.34-1.96-.8-3.11-1.4 2.67-1.01 7.97-9.53 13.13-17.19 3.59-5.33 5.59-9.67 6.25-13.08.31-1.59.33-2.96.08-4.15 2.78 3.22 6.73 7.29 10.45 9.59 6.32 3.89 8.4 2.6 8.4 2.6Z"/><path class="cls-1" d="m119.63 39.09 1.2.36c-.48 1.58-1.15 3.3-1.52 3.71-1.3 1.44-2.96 3.85-2.96 5.2 0 .74 1 1.12 1.9 1.12l.59.8c-.96.54-3.39 2.75-3.78 3.52l-1.24.04c-.41-1.05-.78-2.14-1.06-3.22-.96-3.71-.06-8.73 1.61-12.35l.86.39c.78-.26 4.4.44 4.4.44Zm-.56.65c0-.3-.24-.54-.53-.54s-.54.24-.54.54.24.53.54.53.53-.24.53-.53Z"/><path class="cls-3" d="M120.32 52.57c.43.05.78.24.86.46-.47-.19-.75-.34-.86-.46ZM120.03 53.16c.43 0 .81.12 1.01.3-.2.19-.58.3-1.01.3s-.82-.11-1.02-.3c.2-.18.58-.3 1.02-.3ZM119.18 50.17c.42.12.63 1.98.63 2.22 0 .04-.06.11-.2.2-.27.06-.5.16-.63.3-.76.29-2.04.64-3.92.92.39-.78 2.82-2.99 3.78-3.52.16-.09.28-.13.34-.11Z"/><path class="cls-3" d="M119.61 52.59c-.13.09-.34.19-.63.3.13-.14.36-.24.63-.3ZM118.54 39.21c.29 0 .53.24.53.54s-.24.53-.53.53-.54-.24-.54-.53.24-.54.54-.54Z"/><path class="cls-6" d="M83.11 131.35c-5.91-1.07-11.08-1.44-17-3.36-6.23-2.03-13.57-12.98-15.06-18.07-1.5-5.1-5.4-8.4-12.6-7.13 3.6-8.99 15.86-14.54 21.49-17.23 2.12-1.01 4.24-.99 6.42-.41 1.78 1.52 4.12 5.75 6.63 9.96 1.32 2.21 2.69 4.41 4.03 6.22 4.05 5.4 6.63 6.34 8.55 6.6.85-3 1.9-5.92 3.21-8.83 1.67-3.72 3.74-7.42 6.34-11.21 2.55-3.71 5.59-7.51 9.25-11.51 2.92-3.2 6.23-6.52 9.97-10.03h.06c-.18 2.76-.04 5.32.95 7.12.78 1.4 1.67 2.67 2.92 3.59l-1.22 1.48c-8.76 13.03-18.39 27.29-21.05 45.71l2.31.21c.29.56 1.65 2.41 3.59 4.66.25 1.19.23 2.56-.08 4.15 0 0-11.5-.56-17.8-1.76-.31-.06-.62-.11-.93-.17Z"/><path class="cls-6" d="m115.75 57.82-.4.23c-.29 2.61-.78 5.57-.95 8.31h-.06c-3.74 3.51-7.05 6.83-9.97 10.03-2.08-2.38-3.03-5.76-3.44-7.64-.18-.85-.24-1.4-.24-1.4s12.14-8.79 14.66-10.23c.13.25.26.48.4.7Z"/><path class="cls-2" d="M100.94 68.75c.41 1.88 1.36 5.26 3.44 7.64-3.66 4-6.7 7.81-9.25 11.51-.7-1.43-3.73-5.39-6.3-7.79 1.85-2.26 7.66-8.18 12.01-11.36h.11Z"/><path class="cls-6" d="M101.83 133.28c-.66 3.41-2.66 7.75-6.25 13.08-5.15 7.66-10.46 16.17-13.13 17.19-3.3-1.73-7.64-4.7-13.42-10.14 0 0 1.95-3.3 7.14-7.04 5.2-3.74 6.65-10.95 6.92-15.02.31.05.62.11.93.17 6.3 1.2 17.8 1.76 17.8 1.76ZM88.82 80.11c2.57 2.4 5.6 6.36 6.3 7.79-2.6 3.79-4.68 7.49-6.34 11.21-1.87.11-10.96-4.52-12.59-6.62l-.03-.03c.66-.79 1.15-1.63 1.2-2.29l.05-.12c.17.07.33.14.51.21 0 0 7.29-8.65 9.99-10.94.29.24.6.5.91.79Z"/><path class="cls-6" d="M76.19 92.49c1.63 2.1 10.72 6.72 12.59 6.62-1.3 2.91-2.35 5.83-3.21 8.83-1.91-.26-4.49-1.2-8.55-6.6-1.35-1.81-2.71-4.01-4.03-6.22.76-.29 2.17-1.43 3.17-2.65l.03.03Z"/><path class="cls-6" d="m77.41 90.05-.05.12c-.04.66-.54 1.5-1.2 2.29-1 1.22-2.41 2.36-3.17 2.65-2.51-4.2-4.85-8.43-6.63-9.96 3.45.93 7.06 3.22 11.06 4.89Z"/><path class="cls-10" d="M120.52 30.77c2.51-2.28 5.28-4.34 7.08-5.27.76-.39 1.67-.61 2.69-.7 3.48-.33 7.96.8 9.88 1.5.55.35 2.11.93 2.19 2.48.09 1.45-1.26 3.81-1.52 5.85-.53 4.19-2.07 7.52-1.77 8.57s-.08.98 1.05.45c1.13-.52 2.33-.08 2.33 1.28 0 .26-.02.54-.06.84-.17 1.3-.7 2.87-1.37 3.66-.83.97-3.07 1.72-3.07 1.72l-.07 4.8 1.63 2.11 3.28 4.23c.24.31.33.68.28 1.04-.04.33-.19.63-.45.86-3.15 2.8-9.65 7.45-13.14 7.73-3.89.3-6.52-.15-9.07-2.18-2.55-2.03-1.5-6.43-1.28-7.81"/><path class="cls-10" d="M126.92 62.75c-2.62.99-5.74.55-7.8-.84-.3-.2-.58-.42-.83-.66-.8-.78-1.69-1.98-2.55-3.44-.13-.23-.26-.46-.4-.7-.56-1.01-1.07-2.12-1.54-3.28-.41-1.05-.78-2.14-1.06-3.22-.96-3.71-.06-8.73 1.61-12.35.29-.63.6-1.22.93-1.74 1.03-1.65 3-3.74 5.14-5.7M139.5 58.05c1.18-.69 2.93-1.25 3.58-3.96.26-1.14.78-4.42 1.33-8.03.76-4.92 1.57-10.47 1.89-12.1.56-2.81.93-6.07 3.04-6.4 2.13-.34 8.32-.79 9.11-1.13.78-.33 2.25.23 3.15-3.71s2.36-10.8 1.13-14.06c-1.24-3.26-2.48-7.48-9.34-8.1-6.39-.58-10.17 2.68-13.57 10.25-3.07 6.85-5.36 9.55-9.53 13.97a.5.5 0 0 1-.07.08M124.93 33.18c-.54-.87-3.62-2.84-4.41-2.41-.03.02-.05.04-.07.05"/><path class="cls-10" d="M130.68 34.64s4.21-1.86 7.53 1.68M131.51 41.53c-1.82-.97-4.71-1.04-5.56-.42M119.63 39.09s-3.61-.7-4.4-.44M180.61 127.99c.5-3.52.92-6.85 1.24-9.96 1.13-10.77 1.2-18.99.33-24.23-1.12-6.75 0-13.28-8.32-8.33l-5.4-5.85c1.68-3.48 3.04-6.39 1.35-7.64-.61-.45-1.17-.9-1.94-1.34-1.33-.78-3.26-1.52-7.06-2.16-4.66-.78-8.84-2.19-10.44-2.78-.45-.16-.7-.26-.7-.26l-.78-1.46-5.82-.68"/><path class="cls-10" d="M115.36 58.05c-.29 2.61-.78 5.57-.95 8.31-.18 2.76-.04 5.32.95 7.12.78 1.4 1.67 2.67 2.92 3.59 1.96 1.43 4.81 2 9.44.91 4.03-.95 9.11-3.22 13.5-5.57 3.86-2.07 7.18-4.19 8.8-5.52M143.08 73.33v.02c-.41.57-13.24 19.15-15.36 27.13-2.14 8.1-3.52 18.15-3.29 23.1M167.88 70.65h0c-1.52.94-3.33 2.07-5.34 3.37-1.51.96-3.12 2.03-4.78 3.18-8.48 5.86-18.39 13.97-23.14 23.43-6.85 13.62-6.89 20.23-6.89 20.39M202.05 139.61c-14.4-.6-32.69-2.25-44.84-8.99-8.53-4.74-14.84-8.96-19.96-10.28-2.18-.56-4.14-.59-5.97.08-1.15.42-2.27.84-3.34 1.3-1.25.55-2.42 1.15-3.47 1.91-2.78 2.01-4.65 5.07-4.69 10.74 0 2.03.37 4.42.98 6.95.88 3.67 2.26 7.63 3.65 11.13 2.18 5.51 4.4 9.9 4.77 10.26 5.4-2.25 22.65-12.3 25.94-15.44-9.74-2.7-24.14-8.25-25.65-13.8"/><path class="cls-10" d="M155.12 147.26c1.5 5.4 2.01 14.99 5.81 17.24M129.17 162.7c1.04.05 2.13.11 3.28.18 11.7.63 27.77 1.62 27.77 1.62.21.03.45.05.7.08.89.11 1.99.23 3.26.37 3.54.4 8.42.92 13.98 1.46 18.12 1.81 43.45 3.96 52.86 3.16"/><path class="cls-10" d="M150.54 173.65c2.92-1.13 12.03-5.93 13.63-8.7M162.12 175.13s12.38-3.8 16.03-8.71M117.07 78.55c-8.76 13.03-18.39 27.29-21.05 45.71-.18 1.22-.32 2.47-.43 3.74M82.31 127.99c.56-7.34 1.49-13.85 3.26-20.06.85-3 1.9-5.92 3.21-8.83 1.67-3.72 3.74-7.42 6.34-11.21 2.55-3.71 5.59-7.51 9.25-11.51 2.92-3.2 6.23-6.52 9.97-10.03"/><path class="cls-10" d="M115.36 57.12c-2.52 1.44-14.66 10.23-14.66 10.23s.06.55.24 1.4c.41 1.88 1.36 5.26 3.44 7.64M229.92 159.22c-2.23-4.85-5.63-10.29-10.18-14.59-5.94-5.62-22.44-16.75-31.38-22.65-3.59-2.37-5.96-3.89-5.96-3.89M32.69 129.14l1.71 7.4c-.68 10.12-.23 22.27 9.44 21.59 9.67-.68 13.28-1.52 20.47.03s8.77 4.92 15.29 8.3c6.52 3.37 26.09 4.27 30.14 3.59l4.05-.67c9.75 4.03 10.51 4.26 17.17 4.27h24.44s2.92.78 6.7 1.48c3.84.72 8.56 1.36 11.96 1.01 6.75-.7 35.99-2.72 43.86-4.07 5.35-.92 10.38-1.94 13.06-2.5h.04c1.24-.26 1.97-.42 1.97-.42-.21-2.25-1.24-5.88-3.1-9.92M95.12 87.9c-.7-1.43-3.73-5.39-6.3-7.79-.31-.29-.62-.56-.91-.79-2.7 2.29-9.99 10.94-9.99 10.94-.18-.07-.34-.14-.51-.21-4-1.67-7.6-3.96-11.06-4.89-2.18-.58-4.3-.61-6.42.41-5.63 2.7-17.88 8.24-21.49 17.23-3.59 8.99-8.1 16.19-6.07 24.97.11.48.22.93.32 1.37"/><path class="cls-10" d="M66.11 84.96c.08.06.17.12.25.19 1.78 1.52 4.12 5.75 6.63 9.96 1.32 2.21 2.69 4.41 4.03 6.22 4.05 5.4 6.63 6.34 8.55 6.6"/><path class="cls-10" d="M77.36 90.17c-.04.66-.54 1.5-1.2 2.29-1 1.22-2.41 2.36-3.17 2.65M76.19 92.49c1.63 2.1 10.72 6.72 12.59 6.62h0M38.45 102.8c7.2-1.28 11.1 2.03 12.6 7.13 1.5 5.09 8.84 16.04 15.06 18.07 5.92 1.92 11.09 2.29 17 3.36.31.05.62.11.93.17 6.3 1.2 17.8 1.76 17.8 1.76"/><path class="cls-10" d="M101.91 129.13c.25 1.19.23 2.56-.08 4.15-.66 3.41-2.66 7.75-6.25 13.08-5.15 7.66-10.46 16.17-13.13 17.19-.05.03-.11.04-.15.05M98.33 124.47c.29.56 1.65 2.41 3.59 4.66 2.78 3.22 6.73 7.29 10.45 9.59 6.32 3.89 8.4 2.6 8.4 2.6"/><path class="cls-10" d="M83.11 131.34h0c-.27 4.08-1.73 11.29-6.92 15.03-5.2 3.74-7.14 7.04-7.14 7.04 5.78 5.44 10.11 8.41 13.42 10.14 1.15.6 2.18 1.06 3.11 1.4 3.57 1.36 19.76 2.1 22.76 1.28 1.26-.34 3.55-1.13 6.11-2.63 3.53-2.08 7.55-5.54 9.97-11.16"/><path class="cls-10" d="M114.43 163.6c2.6 2.55 3.8 7.19 14.74 6.14 1.77-.11 2.24-.13 2.36-.14h.04"/><path class="cls-10" d="m132.45 162.88-.92 6.72-.55 4.05M188.36 121.98c3.06-.84 6.4-1.55 9.82-2.06 7.51-1.13 15.36-1.25 21.17.61 2.22.7 4.14 1.7 5.64 3.04.76.68 1.52 1.47 2.27 2.35 4.49 5.36 8.25 14.15 6.88 23.04-.54 3.47-1.86 6.96-4.23 10.26h0"/><path class="cls-10" d="m198.19 119.91 19.01-14.19 3.53 7.55 2.17 4.63 11.56 1.01 11.53 1 14.69 24.8c-4.5 1.8-16.99 3.02-26.54 4.25"/><path class="cls-10" d="m227.26 125.93.01-.01 7.17-6.83M219.36 120.53l1.37-7.26M32.69 129.13h0c2.63 4.35 13.86 17.93 20.16 19.83M42.77 150.85c4.53 1.66 13.37 5.1 19.97 5.03M173.86 85.47c-8.25 4.81-33.79 16.51-41.42 30.15.17-6.8 10.29-26 25.3-38.43.19-.17.39-.33.58-.48M162.53 74.01l5.93 5.62M171.15 101.53c-2.02 6.3-10.8 8.11-18 10.35-7.18 2.25-12.7 5.67-15.9 8.46h0M88.82 80.11c1.85-2.26 7.66-8.18 12.01-11.36M121.34 37.13c-.04.53-.24 1.4-.51 2.33-.48 1.58-1.15 3.3-1.52 3.71-1.3 1.44-2.96 3.85-2.96 5.2 0 .74 1 1.12 1.9 1.12.75 0 1.42-.26 1.38-.81M122.04 46.57c.68.83.65 2.18.65 2.18"/></svg>