<?xml version="1.0" encoding="UTF-8"?>
<svg xmlns="http://www.w3.org/2000/svg" viewBox="0 0 270.4 200.95">
  <defs>
    <style>
      .cls-1 {
        fill: #6fb9a0;
      }

      .cls-1, .cls-2, .cls-3, .cls-4, .cls-5, .cls-6, .cls-7, .cls-8, .cls-9 {
        stroke-width: 0px;
      }

      .cls-2 {
        fill: #666;
      }

      .cls-10 {
        stroke-miterlimit: 10;
      }

      .cls-10, .cls-11, .cls-12 {
        fill: none;
        stroke: #000;
      }

      .cls-3 {
        fill: #f9543e;
      }

      .cls-4 {
        fill: #fdd8ac;
      }

      .cls-5 {
        fill: #f3edd7;
      }

      .cls-11 {
        stroke-width: .5px;
      }

      .cls-11, .cls-12 {
        stroke-linecap: round;
        stroke-linejoin: round;
      }

      .cls-6 {
        fill: #333;
      }

      .cls-7 {
        fill: #af85c7;
      }

      .cls-8 {
        fill: #9f674e;
      }

      .cls-9 {
        fill: #d2d296;
      }
    </style>
  </defs>
  <g id="_畳" data-name="畳">
    <g>
      <g>
        <rect class="cls-5" x=".24" y="166.3" width="3.62" height="5.03"/>
        <path class="cls-5" d="m270.15,193.88v6.57h-30.45l15.35-8.63c1.03,1.62,3.11,2.72,5.51,2.72s4.62-1.18,5.62-2.88l3.97,2.23Z"/>
        <path class="cls-5" d="m270.15,183.32v10.56l-3.97-2.23c.38-.65.59-1.38.59-2.14,0-1.3-.62-2.48-1.62-3.38l4.99-2.8Z"/>
        <path class="cls-5" d="m270.15,171.33v11.99l-4.99,2.8c-1.14-1.01-2.77-1.64-4.59-1.64s-3.31.58-4.44,1.51l-26.1-14.67h40.12Z"/>
        <polygon class="cls-5" points="270.15 92.47 270.15 98.24 1.13 98.24 .24 98.24 .24 92.47 270.15 92.47"/>
        <rect class="cls-5" x="266.16" y="166.3" width="3.99" height="5.03"/>
        <path class="cls-5" d="m266.78,189.51c0,.76-.21,1.49-.59,2.14l-5.42-3.05,4.39-2.47c1,.89,1.62,2.08,1.62,3.38Z"/>
        <path class="cls-5" d="m260.77,188.6l5.42,3.05c-1,1.7-3.13,2.88-5.62,2.88s-4.48-1.1-5.51-2.72l5.71-3.21Z"/>
        <rect class="cls-6" x="254.85" y="166.3" width="11.31" height="5.03"/>
        <path class="cls-5" d="m265.16,186.13l-4.39,2.47-4.64-2.61c1.13-.93,2.7-1.51,4.44-1.51,1.82,0,3.46.63,4.59,1.64Z"/>
        <path class="cls-5" d="m260.77,188.6l-5.71,3.21c-.44-.69-.69-1.48-.69-2.31,0-1.37.68-2.61,1.77-3.51l4.64,2.61Z"/>
        <path class="cls-5" d="m230.03,171.33l26.1,14.67c-1.09.9-1.77,2.14-1.77,3.51,0,.83.25,1.62.69,2.31l-15.35,8.63h-41.48l-15.65-8.8c.38-.65.59-1.38.59-2.14,0-1.3-.62-2.48-1.62-3.37l26.34-14.81h22.15Zm-5.97,18.18c0-2.77-2.25-5.02-5.02-5.02s-5.03,2.25-5.03,5.02,2.25,5.03,5.03,5.03,5.02-2.25,5.02-5.03Z"/>
        <polygon class="cls-5" points="254.85 171.33 230.03 171.33 224.33 171.33 224.33 166.3 254.85 166.3 254.85 171.33"/>
        <rect class="cls-6" x="213.02" y="166.3" width="11.31" height="5.03"/>
        <path class="cls-6" d="m219.05,184.49c2.77,0,5.02,2.25,5.02,5.02s-2.25,5.03-5.02,5.03-5.03-2.25-5.03-5.03,2.25-5.02,5.03-5.02Z"/>
        <path class="cls-5" d="m207.88,171.33l-26.34,14.81c-1.14-1.02-2.77-1.65-4.59-1.65s-3.31.58-4.44,1.51l-26.1-14.67h61.47Z"/>
        <polygon class="cls-5" points="182.5 171.33 182.5 166.3 213.02 166.3 213.02 171.33 207.88 171.33 182.5 171.33"/>
        <path class="cls-5" d="m198.21,200.45h-42.13l15.35-8.63c1.03,1.62,3.12,2.72,5.51,2.72s4.62-1.18,5.62-2.88l15.65,8.8Z"/>
        <path class="cls-5" d="m183.16,189.51c0,.76-.21,1.49-.59,2.14l-5.42-3.05,4.39-2.47c1,.89,1.62,2.07,1.62,3.37Z"/>
        <path class="cls-5" d="m177.15,188.6l5.42,3.05c-1,1.7-3.13,2.88-5.62,2.88s-4.48-1.1-5.51-2.72l5.71-3.21Z"/>
        <rect class="cls-6" x="171.19" y="166.3" width="11.31" height="5.03"/>
        <path class="cls-5" d="m176.95,184.49c1.82,0,3.46.63,4.59,1.65l-4.39,2.47-4.64-2.61c1.13-.93,2.7-1.51,4.44-1.51Z"/>
        <path class="cls-5" d="m177.15,188.6l-5.71,3.21c-.44-.69-.69-1.48-.69-2.31,0-1.37.68-2.61,1.77-3.51l4.64,2.61Z"/>
        <path class="cls-5" d="m146.41,171.33l26.1,14.67c-1.09.9-1.77,2.14-1.77,3.51,0,.83.25,1.62.69,2.31l-15.35,8.63h-41.48l-15.65-8.8c.38-.65.59-1.38.59-2.14,0-1.3-.62-2.48-1.62-3.37l26.34-14.81h22.15Zm-7.02,18.18c0-2.77-2.25-5.02-5.02-5.02s-5.03,2.25-5.03,5.02,2.25,5.03,5.03,5.03,5.02-2.25,5.02-5.03Z"/>
        <polygon class="cls-5" points="171.19 171.33 146.41 171.33 140.67 171.33 140.67 166.3 171.19 166.3 171.19 171.33"/>
        <rect class="cls-6" x="129.36" y="166.3" width="11.31" height="5.03"/>
        <path class="cls-6" d="m134.38,184.49c2.77,0,5.02,2.25,5.02,5.02s-2.25,5.03-5.02,5.03-5.03-2.25-5.03-5.03,2.25-5.02,5.03-5.02Z"/>
        <path class="cls-5" d="m124.26,171.33l-26.34,14.81c-1.14-1.02-2.77-1.65-4.59-1.65s-3.31.58-4.44,1.51l-26.1-14.67h61.47Z"/>
        <polygon class="cls-5" points="129.36 171.33 124.26 171.33 98.83 171.33 98.83 166.3 129.36 166.3 129.36 171.33"/>
        <path class="cls-5" d="m114.6,200.45h-42.13l15.35-8.63c1.03,1.62,3.11,2.72,5.51,2.72s4.62-1.18,5.62-2.88l15.65,8.8Z"/>
        <path class="cls-5" d="m99.54,189.51c0,.76-.21,1.49-.59,2.14l-5.42-3.05,4.39-2.47c1,.89,1.62,2.07,1.62,3.37Z"/>
        <path class="cls-5" d="m93.53,188.6l5.42,3.05c-1,1.7-3.13,2.88-5.62,2.88s-4.48-1.1-5.51-2.72l5.71-3.21Z"/>
        <rect class="cls-6" x="87.53" y="166.3" width="11.31" height="5.03"/>
        <path class="cls-5" d="m93.33,184.49c1.82,0,3.46.63,4.59,1.65l-4.39,2.47-4.64-2.61c1.13-.93,2.7-1.51,4.44-1.51Z"/>
        <path class="cls-5" d="m93.53,188.6l-5.71,3.21c-.44-.69-.69-1.48-.69-2.31,0-1.37.68-2.61,1.77-3.51l4.64,2.61Z"/>
        <path class="cls-5" d="m62.8,171.33l26.1,14.67c-1.09.9-1.77,2.14-1.77,3.51,0,.83.25,1.62.69,2.31l-15.35,8.63H30.79l-15.65-8.8c.38-.65.59-1.38.59-2.14,0-1.3-.62-2.48-1.62-3.37l26.34-14.81h22.34Zm-8.53,18.18c0-2.77-2.25-5.02-5.02-5.02s-5.03,2.25-5.03,5.02,2.25,5.03,5.03,5.03,5.02-2.25,5.02-5.03Z"/>
        <polygon class="cls-5" points="87.53 171.33 62.8 171.33 57 171.33 57 166.3 87.53 166.3 87.53 171.33"/>
        <rect class="cls-6" x="45.7" y="166.3" width="11.31" height="5.03"/>
        <path class="cls-6" d="m49.25,184.49c2.77,0,5.02,2.25,5.02,5.02s-2.25,5.03-5.02,5.03-5.03-2.25-5.03-5.03,2.25-5.02,5.03-5.02Z"/>
        <polygon class="cls-5" points="45.7 171.33 40.45 171.33 15.17 171.33 15.17 166.3 45.7 166.3 45.7 171.33"/>
        <path class="cls-5" d="m30.79,200.45H.24v-6.52l3.76-2.11c1.03,1.62,3.12,2.72,5.51,2.72s4.62-1.18,5.62-2.88l15.65,8.8Z"/>
        <path class="cls-5" d="m15.73,189.51c0,.76-.21,1.49-.59,2.14l-5.42-3.05,4.39-2.47c1,.89,1.62,2.07,1.62,3.37Z"/>
        <rect class="cls-6" x="3.87" y="166.3" width="11.31" height="5.03"/>
        <path class="cls-5" d="m9.72,188.6l5.42,3.05c-1,1.7-3.13,2.88-5.62,2.88s-4.48-1.1-5.51-2.72l5.71-3.21Z"/>
        <path class="cls-5" d="m9.52,184.49c1.82,0,3.46.63,4.59,1.65l-4.39,2.47-4.64-2.61c1.13-.93,2.7-1.51,4.44-1.51Z"/>
        <path class="cls-5" d="m9.72,188.6l-5.71,3.21c-.44-.69-.69-1.48-.69-2.31,0-1.37.68-2.61,1.77-3.51l4.64,2.61Z"/>
        <path class="cls-5" d="m.24,183.28l4.84,2.72c-1.09.9-1.77,2.14-1.77,3.51,0,.83.25,1.62.69,2.31l-3.76,2.11v-10.65Z"/>
        <polygon class="cls-9" points="213.02 166.3 182.5 166.3 171.19 166.3 140.67 166.3 129.36 166.3 98.83 166.3 87.53 166.3 57 166.3 45.7 166.3 15.17 166.3 3.87 166.3 .24 166.3 .24 98.24 1.13 98.24 270.15 98.24 270.15 166.3 266.16 166.3 254.85 166.3 224.33 166.3 213.02 166.3"/>
        <path class="cls-5" d="m.24,171.33h40.21l-26.34,14.81c-1.14-1.02-2.77-1.65-4.59-1.65s-3.31.58-4.44,1.51l-4.84-2.72v-11.95Z"/>
      </g>
      <g>
        <polyline class="cls-10" points="270.15 200.45 239.7 200.45 198.21 200.45 156.08 200.45 114.6 200.45 72.46 200.45 30.79 200.45 .24 200.45"/>
        <line class="cls-10" x1=".24" y1="92.47" x2="270.15" y2="92.47"/>
        <line class="cls-10" x1=".24" y1="98.24" x2="270.15" y2="98.24"/>
        <line class="cls-10" x1="266.16" y1="166.3" x2="270.15" y2="166.3"/>
        <line class="cls-10" x1="224.33" y1="166.3" x2="254.85" y2="166.3"/>
        <line class="cls-10" x1="182.5" y1="166.3" x2="213.02" y2="166.3"/>
        <line class="cls-10" x1="140.67" y1="166.3" x2="171.19" y2="166.3"/>
        <line class="cls-10" x1="98.83" y1="166.3" x2="129.36" y2="166.3"/>
        <line class="cls-10" x1="57" y1="166.3" x2="87.53" y2="166.3"/>
        <line class="cls-10" x1="15.17" y1="166.3" x2="45.7" y2="166.3"/>
        <line class="cls-10" x1=".24" y1="166.3" x2="3.87" y2="166.3"/>
        <line class="cls-10" x1="266.16" y1="171.33" x2="270.15" y2="171.33"/>
        <polyline class="cls-10" points="224.33 171.33 230.03 171.33 254.85 171.33"/>
        <polyline class="cls-10" points="182.5 171.33 207.88 171.33 213.02 171.33"/>
        <polyline class="cls-10" points="140.67 171.33 146.41 171.33 171.19 171.33"/>
        <polyline class="cls-10" points="98.83 171.33 124.26 171.33 129.36 171.33"/>
        <polyline class="cls-10" points="57 171.33 62.8 171.33 87.53 171.33"/>
        <polyline class="cls-10" points="15.17 171.33 40.45 171.33 45.7 171.33"/>
        <line class="cls-10" x1=".24" y1="171.33" x2="3.87" y2="171.33"/>
        <polyline class="cls-10" points="72.46 200.45 87.81 191.82 93.53 188.6 97.92 186.14 124.26 171.33"/>
        <polyline class="cls-10" points="114.6 200.45 98.95 191.65 93.53 188.6 88.89 186 62.8 171.33"/>
        <path class="cls-10" d="m139.4,189.51c0,2.78-2.25,5.03-5.02,5.03s-5.03-2.25-5.03-5.03,2.25-5.02,5.03-5.02,5.02,2.25,5.02,5.02Z"/>
        <path class="cls-10" d="m224.07,189.51c0,2.78-2.25,5.03-5.02,5.03s-5.03-2.25-5.03-5.03,2.25-5.02,5.03-5.02,5.02,2.25,5.02,5.02Z"/>
        <path class="cls-10" d="m97.92,186.14c1,.89,1.62,2.07,1.62,3.37,0,.76-.21,1.49-.59,2.14-1,1.7-3.13,2.88-5.62,2.88s-4.48-1.1-5.51-2.72c-.44-.69-.69-1.48-.69-2.31,0-1.37.68-2.61,1.77-3.51,1.13-.93,2.7-1.51,4.44-1.51,1.82,0,3.46.63,4.59,1.65Z"/>
        <polyline class="cls-10" points=".24 193.93 4.01 191.82 9.72 188.6 14.11 186.14 40.45 171.33"/>
        <polyline class="cls-10" points="30.79 200.45 15.14 191.65 9.72 188.6 5.08 186 .24 183.28"/>
        <path class="cls-10" d="m14.11,186.14c1,.89,1.62,2.07,1.62,3.37,0,.76-.21,1.49-.59,2.14-1,1.7-3.13,2.88-5.62,2.88s-4.48-1.1-5.51-2.72c-.44-.69-.69-1.48-.69-2.31,0-1.37.68-2.61,1.77-3.51,1.13-.93,2.7-1.51,4.44-1.51,1.82,0,3.46.63,4.59,1.65Z"/>
        <polyline class="cls-10" points="156.08 200.45 171.43 191.82 177.15 188.6 181.54 186.14 207.88 171.33"/>
        <polyline class="cls-10" points="198.21 200.45 182.57 191.65 177.15 188.6 172.51 186 146.41 171.33"/>
        <path class="cls-10" d="m181.54,186.14c1,.89,1.62,2.07,1.62,3.37,0,.76-.21,1.49-.59,2.14-1,1.7-3.13,2.88-5.62,2.88s-4.48-1.1-5.51-2.72c-.44-.69-.69-1.48-.69-2.31,0-1.37.68-2.61,1.77-3.51,1.13-.93,2.7-1.51,4.44-1.51,1.82,0,3.46.63,4.59,1.65Z"/>
        <polyline class="cls-10" points="239.7 200.45 255.05 191.82 260.77 188.6 265.16 186.13 270.15 183.32"/>
        <polyline class="cls-10" points="270.15 193.88 266.18 191.65 260.77 188.6 256.13 186 230.03 171.33"/>
        <path class="cls-10" d="m265.16,186.13c1,.89,1.62,2.08,1.62,3.38,0,.76-.21,1.49-.59,2.14-1,1.7-3.13,2.88-5.62,2.88s-4.48-1.1-5.51-2.72c-.44-.69-.69-1.48-.69-2.31,0-1.37.68-2.61,1.77-3.51,1.13-.93,2.7-1.51,4.44-1.51,1.82,0,3.46.63,4.59,1.64Z"/>
        <path class="cls-10" d="m54.27,189.51c0,2.78-2.25,5.03-5.02,5.03s-5.03-2.25-5.03-5.03,2.25-5.02,5.03-5.02,5.02,2.25,5.02,5.02Z"/>
        <rect class="cls-10" x="3.87" y="166.3" width="11.31" height="5.03"/>
        <rect class="cls-10" x="45.7" y="166.3" width="11.31" height="5.03"/>
        <rect class="cls-10" x="87.53" y="166.3" width="11.31" height="5.03"/>
        <rect class="cls-10" x="129.36" y="166.3" width="11.31" height="5.03"/>
        <rect class="cls-10" x="171.19" y="166.3" width="11.31" height="5.03"/>
        <rect class="cls-10" x="213.02" y="166.3" width="11.31" height="5.03"/>
        <rect class="cls-10" x="254.85" y="166.3" width="11.31" height="5.03"/>
      </g>
    </g>
  </g>
  <g id="_レイヤー_2" data-name="レイヤー 2">
    <g>
      <g>
        <path class="cls-7" d="m211.28,94.33c-3.35-.32-6.6-.32-9.38-.35l-2.61-19.34c3.39-.52,7.34-.75,11.3-.38l.69,20.07Z"/>
        <path class="cls-7" d="m222.61,97.13l.91-18.72c3.73,2.51,7.52,5.39,10.84,8.04h-.01s-3.81,17.36-3.81,17.36l-.1.07c-2.07-3.13-4.8-5.26-7.85-6.72l.02-.03Z"/>
        <path class="cls-7" d="m211.28,94.33l-.69-20.07c4.59.42,9.18,1.64,12.93,4.15l-.91,18.72-.02.03c-3.53-1.68-7.49-2.46-11.31-2.83Z"/>
        <path class="cls-1" d="m201.9,93.98c2.78.03,6.03.03,9.38.35,3.82.37,7.78,1.15,11.31,2.83,3.05,1.46,5.78,3.59,7.85,6.72,1.98,2.99,3.36,6.88,3.82,11.97-.13,1.54-.41,3.74-1.04,4.69,0,0-2.81-1.28-5.87-5.98-1.63-2.5-7.94-4.16-13.5-5.18-4.9-.89-9.23-1.28-9.23-1.28-.31-2.59-2.67-8.31-5.34-14.15h.01c.81.02,1.68.03,2.61.03Z"/>
        <path class="cls-7" d="m230.54,103.81l3.81-17.35h.01c5.99,4.81,10.48,8.93,10.48,8.93l-10.49,18.81s-.02.7-.09,1.65c-.46-5.09-1.84-8.98-3.82-11.97l.1-.07Z"/>
        <path class="cls-3" d="m166.24,130.88s1.87,7.53,3.15,9.57c-1.37.59-7.16.58-12.55-.04-1.65-.18-3.26-.42-4.69-.72,2.05-.64,9.83-5.75,14.09-8.81Z"/>
        <path class="cls-7" d="m151.97,50.77l6.91,14.57-9.98,16.65c-.56.13-1.13.27-1.69.42-17.58,4.39-34.05,2.06-42.63.18h0s.04-.18.04-.18c2.52-1.05,8.07-5.53,11.29-8.22,1.47-1.22,2.45-2.08,2.45-2.08l.73-1.7c9.62-5.96,15.79-11.06,24.28-27.23.36-.43.69-.86,1-1.28,4.4-6.02,11.53-17.36,14.51-26.17,1.26-3.7,1.78-6.96,1.06-9.19,1.7,5.11,1.86,19.5.98,26.76-.18,1.45-.39,2.62-.65,3.37-.48,1.4-4.04,7.38-8.3,14.1Z"/>
        <path class="cls-8" d="m114.79,108.54v.25c-2.38.13-2.58-.25-2.58-.25v-2.97c1.08.15,1.98.25,2.58.25h.14s-.14,2.72-.14,2.72Z"/>
        <path class="cls-4" d="m115.43,31.19c.19-1.17.5-2.42.85-3.58l1.37-.2,2.63,2.75-4.85,1.03Z"/>
        <path class="cls-7" d="m172.96,142.62c-.73-.03-2.35,1.86-4.04,2.9-.67.42-1.36.7-2,.68-1.54-.05-3.11-.56-4.55-1.19h0c-2.6-1.13-4.81-2.66-5.74-2.64l.22-1.96c5.39.62,11.18.63,12.55.04l3.57,2.17Z"/>
        <path class="cls-8" d="m123.1,90.56l-.82,12.84v3.95s.68.03,1.79.04c-4.71.94-7.56,1.3-9.27,1.4v-.25s.13-2.71.13-2.71l.24-4.63.56-10.84c1.65.19,3.2.31,4.55.31.78,0,1.74-.04,2.82-.11Z"/>
        <path class="cls-7" d="m117.15,49.46l1.94,20.95-.73,1.7s-.98.86-2.45,2.08l-.64-.88c-1.7-8.18,1.64-23.83,1.64-23.83l.24-.02Z"/>
        <path class="cls-8" d="m135.52,121.65c-4.21.63-8.01.93-11.45.99-3.21.05-6.11-.11-8.76-.44-3.81-.45-7.09-1.25-10.01-2.2-2.54-.83-4.8-1.79-6.88-2.75-2.27-1.06-4.33-2.14-6.31-3.09.15-.4.64-2.54,1.29-5.62,2.45,1.14,5.24,2.3,8.38,3.34,3.13,1.05,6.61,1.98,10.43,2.68,6.62,1.22,14.29,1.75,23.02.96.12,2.11.21,4.17.29,6.13Z"/>
        <path class="cls-8" d="m134.69,106.47c.19,2.94.38,6.03.54,9.05-8.73.79-16.4.26-23.02-.96v-6.02s.2.38,2.59.25c1.71-.1,4.56-.46,9.27-1.4,2.39.02,6.77-.09,10.62-.92Z"/>
        <path class="cls-7" d="m156.62,142.37c-.86.02-2.47,2.47-4.9,3.6-.45.22-.93.38-1.44.48-2.54.48-5.64-.35-7.92-1.47-1.11-.55-2.03-1.16-2.59-1.72-.68-.78-1.28-1.05-1.93-.97,3.68-2.16,5.53-12.5,5.53-12.5,3.23,5.19,6.24,9.5,8.78,9.9,1.43.3,3.04.54,4.69.72l-.22,1.96Z"/>
        <path class="cls-8" d="m145.39,103.4c-1.4,2.45-2.97,5.2-4.44,7.8-1.7,3.01-3.27,5.84-4.28,7.81-.68,1.33-1.11,2.27-1.15,2.64-.08-1.96-.17-4.02-.29-6.13-.16-3.02-.35-6.11-.54-9.05-.07-.99-.13-1.96-.2-2.9,0,0,10.14.66,11.81-1.32-.53.64-.87,1.07-.91,1.15Z"/>
        <path class="cls-7" d="m158.88,65.34l-2.09,15.62s-1.39.05-3.4.29c-1.3.15-2.88.39-4.49.74l9.98-16.65Z"/>
        <path class="cls-7" d="m166.88,42.58h0s-3.13,33.38-2.87,40.42c-.44-.37-.76-.59-.76-.59v-18.81s-.25-4.85,0-6.81c.61-4.75,1.88-10.73,3.62-14.21Z"/>
        <path class="cls-7" d="m161.33,33.35s1.04.75,2.69,2.17c0,0-5.44,11.1-5.14,24.64v5.18l-6.91-14.57c4.26-6.72,7.82-12.7,8.3-14.1.26-.75.47-1.92.65-3.37l.41.05Z"/>
        <path class="cls-7" d="m159.94,6.54c.72,2.23.2,5.49-1.06,9.19-.63-3.12-2.1-5.89-3.85-8.16l.19-.14s1.28-.51,4.72-.89Z"/>
        <path class="cls-2" d="m120.89,41.14c-1.08,1.3-2.28,3.12-3.98,5.69-.46.69-.53.43-1.06,1.23.29-.75,0-2.24.05-4.88.07-3.68,0-7.66,0-7.66,1.37,1.69,2.49,3.44,6.38,4.17-.46.4-.91.87-1.39,1.45Z"/>
        <path class="cls-7" d="m128.15,55.69l.27.39c-3.53,2.48-6.14,4.08-6.14,4.08l-1.39-19.02c.48-.58.93-1.05,1.39-1.45.99.19,2.17.31,3.58.34v.02l2.29,15.64Z"/>
        <path class="cls-7" d="m38.67,115.13l-1.03.39s-2.38,3.74-4.08,7.49l-13.02-1.96,14.46-17.65c.84,3.79,2.22,7.87,3.67,11.73Z"/>
        <path class="cls-7" d="m143.37,43.18c-8.49,16.17-14.66,21.27-24.28,27.23l-1.94-20.95-.24-2.63c1.7-2.57,2.9-4.39,3.98-5.69l1.39,19.02s2.61-1.6,6.14-4.08c4.71-3.32,11.07-8.2,14.95-12.9Z"/>
        <path class="cls-7" d="m115.27,73.31l.64.88c-3.22,2.69-8.77,7.17-11.29,8.22l-.04.17c-3.9-.86-6.17-1.62-6.17-1.62v-2.39c4.6-6.8,14.41-27.37,18.5-29.09,0,0-3.34,15.65-1.64,23.83Z"/>
        <path class="cls-7" d="m98.42,78.57v2.39c-.14,1.02-.31,2.14-.49,3.34-3.32-5.07-20.58-10.99-20.58-10.99,3.95-3.69,8.75-8.29,12.98-12.33l1.78.41s3,15.56,6.31,17.18Z"/>
        <path class="cls-7" d="m116.91,46.83l.24,2.63-.24.02c-4.09,1.72-13.9,22.29-18.49,29.09-3.31-1.62-6.31-17.18-6.31-17.18l-1.78-.41c4.91-4.68,9.07-8.6,10.29-9.46,2.9-2.04,7.73-6.95,15.11-8.34h.17c-.05,2.64.24,4.13-.05,4.88.53-.8.6-.54,1.06-1.23Z"/>
        <path class="cls-7" d="m97.93,84.3h0c-.12.78-.25,1.59-.39,2.42-.54,3.26-1.19,6.88-1.86,10.41-.31,1.59-.61,3.17-.91,4.68-.49,2.48-.96,4.79-1.37,6.73-.65,3.08-1.14,5.22-1.29,5.62-.91,1.59-2.14,4.28-3.45,7.5l-1.31-1.04s-11.24-29.61-14.3-38.8c-.42-1.27-.93-2.34-1.52-3.25,1.46-1.24,3.49-3.09,5.82-5.26,0,0,17.26,5.92,20.58,10.99Z"/>
        <path class="cls-3" d="m99.3,144.54l-.03.03c-.99,1.42-9.26.25-9.83.16,1.22-.42,1.7-1.14,2.46-2.11.96-1.22,1.97-1.6,2.83-1.54.83.04,1.53.46,1.94.91.64.7,1.72,1.79,2.63,2.55Z"/>
        <path class="cls-3" d="m106.59,142.02c1.19,0,2.22.48,2.67.86.4.34,1.23,1.27,2.18,2.13-2.32.93-9.85,0-9.85,0,.82-.56,1.89-1.54,2.44-2,.84-.71,1.74-.98,2.56-.99Z"/>
        <path class="cls-3" d="m124.33,142.62c.62.54,2.29,2.32,4,3.35-1.42.66-11.19.05-11.56.03,1.04-.64,2.07-1.64,2.96-2.74.82-1.01,1.74-1.36,2.57-1.37s1.58.35,2.03.73Z"/>
        <path class="cls-3" d="m139.77,143.26c.56.56,1.48,1.17,2.59,1.72-4.85,2.41-10.43,1.15-10.43,1.15,1.24-.8,2.79-2.21,4.1-3.04.7-.44,1.28-.73,1.81-.8.65-.08,1.25.19,1.93.97Z"/>
        <path class="cls-3" d="m156.62,142.37c.93-.02,3.14,1.51,5.74,2.64-3.18,1.33-10.64.96-10.64.96,2.43-1.13,4.04-3.58,4.9-3.6Z"/>
        <path class="cls-3" d="m172.96,142.62c.86.04,3.37,2.21,8.13,1.26-5.56,2.99-12.17,1.64-12.17,1.64,1.69-1.04,3.31-2.93,4.04-2.9Z"/>
        <path class="cls-3" d="m183.94,143.01c5.49-2.68,11.86-5.36,19.14-2.81-6.63,2.68-16.97,4.08-19.14,2.81Z"/>
        <path class="cls-3" d="m203.08,140.2c6.78-2.3,24.9-5.87,33.59-3.07-9.71,6.77-24.53,15.96-33.59,3.07Z"/>
        <path class="cls-7" d="m145.39,103.4c.04-.08.38-.51.91-1.15.62-.73,1.47-1.74,2.37-2.8,0,0,15.44-8.18,20.72-5.84,8.51,8.54,25.56,23.08,39.32,18.61,0,0,4.15-1.61,5.14-2.84,5.56,1.02,11.87,2.68,13.5,5.18,3.06,4.7,5.87,5.98,5.87,5.98,4.08,7.79,3.45,16.59,3.45,16.59-8.69-2.8-26.81.77-33.59,3.07-7.28-2.55-13.65.13-19.14,2.81-1.03.41-1.97.69-2.84.86,0,0,0,0,0,.01-4.76.95-7.27-1.22-8.13-1.26l-3.57-2.17c-1.28-2.04-3.15-9.57-3.15-9.57-9.4-1.02-25.29-19.68-25.29-19.68,1.47-2.6,3.04-5.35,4.44-7.8Z"/>
        <path class="cls-8" d="m213.85,109.38c-.99,1.23-5.14,2.84-5.14,2.84-13.76,4.47-30.81-10.07-39.32-18.61-3.34-3.36-5.37-5.79-5.37-5.79.98-.27,1.77-.63,2.05-1.1,0,0,1.85,1.26,4.76,3.17h.01c8.75,5.72,27.08,17.29,33.78,18.21,0,0,4.33.39,9.23,1.28Z"/>
        <path class="cls-7" d="m199.29,74.64l2.61,19.34c-.93,0-1.8-.01-2.61-.03h-.01c-1.14-2.51-2.34-5.04-3.47-7.35-2.64-5.45-4.85-9.72-4.85-9.72,1.66-.81,4.67-1.69,8.33-2.24Z"/>
        <path class="cls-7" d="m199.28,93.95c2.67,5.84,5.03,11.56,5.34,14.15-6.7-.92-25.03-12.49-33.78-18.21.39-.1,8.46-2.08,15.41-3.12,4.33-.65,8.23-.94,9.56-.17,1.13,2.31,2.33,4.84,3.47,7.35Z"/>
        <path class="cls-7" d="m195.81,86.6c-1.33-.77-5.23-.48-9.56.17v-.05c.44-1.67-1.41-14.69-1.41-14.69,4.08,2.17,6.12,4.85,6.12,4.85,0,0,2.21,4.27,4.85,9.72Z"/>
        <path class="cls-7" d="m184.84,72.03s1.85,13.02,1.4,14.69v.05c-6.94,1.04-15.01,3.02-15.4,3.12h-.01c-2.91-1.91-4.76-3.17-4.76-3.17.72-1.18-.99-2.85-2.05-3.72-.26-7.04,2.87-40.42,2.87-40.42h0c.59-1.17,1.23-2.06,1.91-2.53,6.39,6.63,14.74,17.83,16.05,31.98Z"/>
        <path class="cls-7" d="m169.39,93.61c-5.28-2.34-20.72,5.84-20.72,5.84,2.21-2.59,4.72-5.5,4.72-5.5l-.04-.04c2.51-2.41,4.29-5.22,4.29-5.22,0,0,3.85-.16,6.38-.87,0,0,2.03,2.43,5.37,5.79Z"/>
        <path class="cls-8" d="m168.79,40.05c-.68.47-1.32,1.36-1.91,2.53-1.74,3.48-3.01,9.46-3.62,14.21-.25,1.96,0,6.81,0,6.81v1.74l-.23-5.18h-4.15c-.3-13.54,5.14-24.64,5.14-24.64,1.29,1.11,2.95,2.63,4.77,4.53Z"/>
        <path class="cls-8" d="m164.02,83c1.06.87,2.77,2.54,2.05,3.72-.28.47-1.07.83-2.05,1.1-2.53.71-6.38.87-6.38.87l-4.25-1.97v-5.47c2.01-.24,3.4-.29,3.4-.29l6.47,1.45s.32.22.76.59Z"/>
        <polygon class="cls-8" points="163.26 65.34 163.26 82.41 156.79 80.96 158.88 65.34 163.26 65.34"/>
        <polygon class="cls-8" points="163.03 60.16 163.26 65.34 158.88 65.34 158.88 60.16 163.03 60.16"/>
        <path class="cls-7" d="m166.24,130.88c-4.26,3.06-12.04,8.17-14.09,8.81-2.54-.4-5.55-4.71-8.78-9.9-2.16-3.5-4.42-7.39-6.7-10.78,1.01-1.97,2.58-4.8,4.28-7.81,0,0,15.89,18.66,25.29,19.68Z"/>
        <path class="cls-8" d="m153.39,86.72l4.25,1.97s-1.78,2.81-4.29,5.22c-1.12,1.08-2.39,2.08-3.71,2.71-4.25,2.05-15.31,4.56-15.31,4.56h0c-.04-.62-.08-1.23-.12-1.82,6.73-3.37,12.99-8.16,19.19-12.64Z"/>
        <path class="cls-4" d="m120.29,17.1C123.89.82,139.31-.99,147.05,1.31c2.07.61,5.34,2.87,7.98,6.26,1.75,2.27,3.22,5.04,3.85,8.16-2.98,8.81-10.11,20.15-14.51,26.17-.31.42-.64.85-1,1.28-3.88,4.7-10.24,9.58-14.95,12.9l-.27-.39-2.29-15.64v-.02c-1.41-.03-2.59-.15-3.58-.34-3.89-.73-5.01-2.48-6.38-4.17-.72-.88-.75-2.52-.47-4.33l4.85-1.03-2.63-2.75-1.37.2c.73-2.44,1.6-4.46,1.6-4.46v-.02c-.83-.21-1.64-.5-1.98-.89-.5-.57,2.03-3.42,4.39-5.14Z"/>
        <path class="cls-8" d="m148.9,81.99c1.61-.35,3.19-.59,4.49-.74v5.47s-10.43,1.64-19.98,2.8c-3.82.47-7.5.86-10.31,1.04-1.08.07-2.04.11-2.82.11-1.35,0-2.9-.12-4.55-.31-8-.92-18.19-3.64-18.19-3.64.14-.83.27-1.64.39-2.41h0c.18-1.21.35-2.33.48-3.35,0,0,2.27.76,6.17,1.62h0c8.58,1.89,25.05,4.22,42.63-.17.56-.15,1.13-.29,1.69-.42Z"/>
        <path class="cls-8" d="m153.35,93.91l.04.04s-2.51,2.91-4.72,5.5c-.9,1.06-1.75,2.07-2.37,2.8-1.67,1.98-11.81,1.32-11.81,1.32-.06-.82-.11-1.62-.17-2.39h0s11.06-2.51,15.31-4.56c1.32-.63,2.59-1.63,3.71-2.71Z"/>
        <path class="cls-7" d="m143.37,129.79s-1.85,10.34-5.53,12.5c-.53.07-1.11.36-1.81.8-1.31.83-2.86,2.24-4.1,3.04-.56.36-1.05.6-1.43.6-.68,0-1.43-.31-2.17-.76-1.71-1.03-3.38-2.81-4-3.35-.45-.38-1.2-.74-2.03-.73l-.02-.35s12.05-9.09,13.24-19.89c.04-.37.47-1.31,1.15-2.64,2.28,3.39,4.54,7.28,6.7,10.78Z"/>
        <path class="cls-8" d="m133.41,89.52c9.55-1.16,19.98-2.8,19.98-2.8-6.2,4.48-12.46,9.27-19.19,12.64-.4-5.46-.73-9.32-.73-9.32l-.06-.52Z"/>
        <path class="cls-8" d="m134.49,103.57c.07.94.13,1.91.2,2.9-3.85.83-8.23.94-10.62.92-1.11-.01-1.79-.04-1.79-.04v-3.95c4.18-.69,8.13-2.14,11.92-4.04.04.59.08,1.2.12,1.82.06.77.11,1.57.17,2.39Z"/>
        <path class="cls-8" d="m133.47,90.04s.33,3.86.73,9.32c-3.79,1.9-7.74,3.35-11.92,4.04l.82-12.84c2.81-.18,6.49-.57,10.31-1.04l.06.52Z"/>
        <path class="cls-7" d="m135.52,121.65c-1.19,10.8-13.24,19.89-13.24,19.89l.02.35c-.83.01-1.75.36-2.57,1.37-.89,1.1-1.92,2.1-2.96,2.74h-.01c-.91.56-1.82.85-2.65.68-.85-.17-1.81-.89-2.67-1.67-.95-.86-1.78-1.79-2.18-2.13-.45-.38-1.48-.87-2.67-.86,5.36-4.64,15.76-12.66,17.48-19.01v-.37c3.44-.06,7.24-.36,11.45-.99Z"/>
        <path class="cls-7" d="m124.07,122.64v.37c-1.72,6.35-12.12,14.37-17.48,19.01-.82.01-1.72.28-2.56.99-.55.46-1.62,1.44-2.44,2-.37.25-.68.42-.88.42-.26,0-.79-.37-1.41-.89-.91-.76-1.99-1.85-2.63-2.55-.41-.45-1.11-.87-1.94-.91l.04-.63c6.96-5.87,16.4-9.05,20.49-17.8l.05-.45c2.65.33,5.55.49,8.76.44Z"/>
        <path class="cls-8" d="m115.73,90.36l-.56,10.84-.38-.02c-11.59-.88-19.11-4.05-19.11-4.05.67-3.53,1.32-7.15,1.86-10.41,0,0,10.19,2.72,18.19,3.64Z"/>
        <path class="cls-7" d="m89.44,144.73c-.84.3-2.04.45-3.92.45-.85,0-2.35-.03-4.26-.16h0c.54-2.96,1.52-6.58,2.69-10.31,5.21-1.15,13.69-6.77,21.28-14.17l.07-.54c2.92.95,6.2,1.75,10.01,2.2l-.05.45c-4.09,8.75-13.53,11.93-20.49,17.8l-.04.63c-.86-.06-1.87.32-2.83,1.54-.76.97-1.24,1.69-2.46,2.11Z"/>
        <path class="cls-8" d="m112.21,105.57c-2.64-.4-6.39-1.19-9.74-1.94-4.16-.94-7.7-1.82-7.7-1.82.3-1.51.6-3.09.91-4.68,0,0,7.52,3.17,19.11,4.05l.38.02-.24,4.63h-.14c-.6-.01-1.5-.11-2.58-.26Z"/>
        <path class="cls-8" d="m112.21,108.54v6.02c-3.82-.7-7.3-1.63-10.43-2.68l.66-8.07.03-.18c3.35.75,7.1,1.54,9.74,1.94v2.97Z"/>
        <path class="cls-7" d="m105.3,120l-.07.54c-7.59,7.4-16.07,13.02-21.28,14.17,1.26-3.99,2.75-8.11,4.17-11.7,4.02.17,10.3-5.76,10.3-5.76,2.08.96,4.34,1.92,6.88,2.75Z"/>
        <path class="cls-8" d="m102.47,103.63l-.03.18-.66,8.07c-3.14-1.04-5.93-2.2-8.38-3.34.41-1.94.88-4.25,1.37-6.73,0,0,3.54.88,7.7,1.82Z"/>
        <path class="cls-7" d="m92.11,114.16c1.98.95,4.04,2.03,6.31,3.09,0,0-6.28,5.93-10.3,5.76.18-.46.36-.91.54-1.35,1.31-3.22,2.54-5.91,3.45-7.5Z"/>
        <path class="cls-1" d="m61.11,139.51c-11.55,3.58-13.25,3.92-20.4,2.9s-13.28-10.21-7.15-19.4c1.7-3.75,4.08-7.49,4.08-7.49l1.03-.39c-1.45-3.86-2.83-7.94-3.67-11.73-.38-1.71-.65-3.36-.76-4.9-.68-9.19,9.19-24.17,18.72-24.51,8.22-.29,14.92-1.1,18.57,4.58.59.91,1.1,1.98,1.52,3.25,3.06,9.19,14.3,38.8,14.3,38.8l1.31,1.04c-.18.44-.36.89-.54,1.35-1.42,3.59-2.91,7.71-4.17,11.7-1.17,3.73-2.15,7.35-2.69,10.3h0c-5.3-.37-13.75-1.6-20.14-5.5h-.01Z"/>
      </g>
      <g>
        <path class="cls-12" d="m120.28,17.12s0-.01.01-.02C123.89.82,139.31-.99,147.05,1.31c2.07.61,5.34,2.87,7.98,6.26,1.75,2.27,3.22,5.04,3.85,8.16"/>
        <path class="cls-12" d="m123.09,15.77c-.7,0-1.73.55-2.8,1.33-2.36,1.72-4.89,4.57-4.39,5.14.34.39,1.15.68,1.98.89,1.13.29,2.27.43,2.27.43"/>
        <path class="cls-12" d="m122.28,26.58s3.58,4.85,3.58,6"/>
        <path class="cls-12" d="m117.88,23.15s-.87,2.02-1.6,4.46c-.35,1.16-.66,2.41-.85,3.58-.28,1.81-.25,3.45.47,4.33,1.37,1.69,2.49,3.44,6.38,4.17.99.19,2.17.31,3.58.34,1.8.05,3.98-.04,6.64-.3"/>
        <line class="cls-12" x1="125.86" y1="40.05" x2="128.15" y2="55.69"/>
        <line class="cls-12" x1="127.6" y1="14.96" x2="131.77" y2="18.07"/>
        <polyline class="cls-12" points="116.28 27.61 117.65 27.41 120.28 30.16 115.43 31.19"/>
        <line class="cls-11" x1="116.22" y1="29.13" x2="118.36" y2="29.58"/>
        <path class="cls-12" d="m144.75,20.58c2.3-1.27,7.92-1.24,7.15,2.57-.77,3.81-2.81,8.44-9.45,8.04"/>
        <path class="cls-12" d="m147.21,24.41l-1.82,3s.2,1.6,1.82.96"/>
        <path class="cls-12" d="m159.94,6.54c1.7,5.11,1.86,19.5.98,26.76-.18,1.45-.39,2.62-.65,3.37-.48,1.4-4.04,7.38-8.3,14.1-.55.87-1.11,1.76-1.69,2.65-5.04,7.86-10.6,16.03-13.05,18.69"/>
        <path class="cls-12" d="m61.11,139.51c-3.84-2.33-6.94-5.63-8.15-10.29"/>
        <path class="cls-12" d="m116.76,146c-.91.56-1.82.85-2.65.68-.85-.17-1.81-.89-2.67-1.67-.95-.86-1.78-1.79-2.18-2.13-.45-.38-1.48-.87-2.67-.86-.82.01-1.72.28-2.56.99-.55.46-1.62,1.44-2.44,2-.37.25-.68.42-.88.42-.26,0-.79-.37-1.41-.89-.91-.76-1.99-1.85-2.63-2.55-.41-.45-1.11-.87-1.94-.91-.86-.06-1.87.32-2.83,1.54-.76.97-1.24,1.69-2.46,2.11-.84.3-2.04.45-3.92.45-.85,0-2.35-.03-4.26-.16-5.3-.38-13.75-1.61-20.14-5.51"/>
        <path class="cls-12" d="m162.36,145.01c-2.6-1.13-4.81-2.66-5.74-2.64-.86.02-2.47,2.47-4.9,3.6-.45.22-.93.38-1.44.48-2.54.48-5.64-.35-7.92-1.47-1.11-.55-2.03-1.16-2.59-1.72-.68-.78-1.28-1.05-1.93-.97-.53.07-1.11.36-1.81.8-1.31.83-2.86,2.24-4.1,3.04-.56.36-1.05.6-1.43.6-.68,0-1.43-.31-2.17-.76-1.71-1.03-3.38-2.81-4-3.35-.45-.38-1.2-.74-2.03-.73s-1.75.36-2.57,1.37c-.89,1.1-1.92,2.1-2.96,2.74"/>
        <path class="cls-12" d="m181.09,143.88c-4.76.95-7.27-1.22-8.13-1.26-.73-.03-2.35,1.86-4.04,2.9-.67.42-1.36.7-2,.68-1.54-.05-3.11-.56-4.55-1.19"/>
        <path class="cls-12" d="m161.33,33.35s1.04.75,2.69,2.17c1.29,1.11,2.95,2.63,4.77,4.53,6.39,6.63,14.74,17.83,16.05,31.98,4.08,2.17,6.12,4.85,6.12,4.85,1.66-.81,4.67-1.69,8.33-2.24,3.39-.52,7.34-.75,11.3-.38,4.59.42,9.18,1.64,12.93,4.15,3.73,2.51,7.52,5.39,10.84,8.04,5.99,4.82,10.48,8.94,10.48,8.94l-10.49,18.81s-.02.7-.09,1.65c-.13,1.54-.41,3.74-1.04,4.69,4.08,7.79,3.45,16.59,3.45,16.59-9.71,6.77-24.53,15.96-33.59,3.07-6.63,2.68-16.97,4.08-19.14,2.81-1.03.41-1.97.69-2.84.86"/>
        <path class="cls-12" d="m61.12,139.51h-.01c-11.55,3.58-13.25,3.92-20.4,2.9s-13.28-10.21-7.15-19.4c1.7-3.75,4.08-7.49,4.08-7.49"/>
        <path class="cls-12" d="m43.43,127.43c-1.09-3.13-2.98-7.55-4.76-12.3-1.45-3.86-2.83-7.94-3.67-11.73-.38-1.71-.65-3.36-.76-4.9-.68-9.19,9.19-24.17,18.72-24.51,8.22-.29,14.92-1.1,18.57,4.58.59.91,1.1,1.98,1.52,3.25,3.06,9.19,14.3,38.8,14.3,38.8"/>
        <polyline class="cls-12" points="35 103.4 20.54 121.05 33.56 123.01"/>
        <path class="cls-12" d="m71.53,78.57c1.46-1.24,3.49-3.09,5.82-5.26,3.95-3.69,8.75-8.29,12.98-12.33,4.91-4.68,9.07-8.6,10.29-9.46,2.9-2.04,7.73-6.95,15.11-8.34"/>
        <path class="cls-12" d="m115.9,35.52s.07,3.98,0,7.66c-.05,2.64.24,4.13-.05,4.88.53-.8.6-.54,1.06-1.23,1.7-2.57,2.9-4.39,3.98-5.69.48-.58.93-1.05,1.39-1.45"/>
        <path class="cls-12" d="m120.89,41.13h0s1.39,19.03,1.39,19.03c0,0,2.61-1.6,6.14-4.08,4.71-3.32,11.07-8.2,14.95-12.9.36-.43.69-.86,1-1.28,4.4-6.02,11.53-17.36,14.51-26.17,1.26-3.7,1.78-6.96,1.06-9.19-3.44.38-4.72.89-4.72.89"/>
        <path class="cls-12" d="m143.37,43.18c-8.49,16.17-14.66,21.27-24.28,27.23l-1.94-20.95-.24-2.63"/>
        <path class="cls-12" d="m116.91,49.48s-3.34,15.65-1.64,23.83"/>
        <path class="cls-12" d="m118.36,72.11s-.98.86-2.45,2.08c-3.22,2.69-8.77,7.17-11.29,8.22"/>
        <path class="cls-12" d="m97.54,86.72s10.19,2.72,18.19,3.64c1.65.19,3.2.31,4.55.31.78,0,1.74-.04,2.82-.11,2.81-.18,6.49-.57,10.31-1.04,9.55-1.16,19.98-2.8,19.98-2.8l4.25,1.97s-1.78,2.81-4.29,5.22c-1.12,1.08-2.39,2.08-3.71,2.71-4.25,2.05-15.31,4.56-15.31,4.56"/>
        <path class="cls-12" d="m95.68,97.13s7.52,3.17,19.11,4.05"/>
        <path class="cls-12" d="m94.77,101.81s3.54.88,7.7,1.82c3.35.75,7.1,1.54,9.74,1.94,1.08.15,1.98.25,2.58.25"/>
        <polyline class="cls-12" points="115.73 90.36 115.17 101.2 114.93 105.83 114.79 108.54"/>
        <path class="cls-12" d="m122.28,103.4v3.95s.68.03,1.79.04c2.39.02,6.77-.09,10.62-.92"/>
        <path class="cls-12" d="m153.39,93.95s-2.51,2.91-4.72,5.5c-.9,1.06-1.75,2.07-2.37,2.8-.53.64-.87,1.07-.91,1.15-1.4,2.45-2.97,5.2-4.44,7.8-1.7,3.01-3.27,5.84-4.28,7.81-.68,1.33-1.11,2.27-1.15,2.64"/>
        <path class="cls-12" d="m93.4,108.54c2.45,1.14,5.24,2.3,8.38,3.34,3.13,1.05,6.61,1.98,10.43,2.68,6.62,1.22,14.29,1.75,23.02.96"/>
        <line class="cls-12" x1="102.44" y1="103.81" x2="101.78" y2="111.88"/>
        <polyline class="cls-12" points="112.21 105.56 112.21 105.57 112.21 108.54 112.21 114.56"/>
        <path class="cls-12" d="m112.21,108.54s.2.38,2.59.25c1.71-.1,4.56-.46,9.27-1.4"/>
        <path class="cls-12" d="m134.49,103.57s10.14.66,11.81-1.32"/>
        <path class="cls-12" d="m150.28,53.42s-.15,15.6-3.98,23.84"/>
        <polyline class="cls-12" points="151.97 50.77 158.88 65.34 148.9 81.99 148.9 82"/>
        <path class="cls-12" d="m153.39,81.25v5.47c-6.2,4.48-12.46,9.27-19.19,12.64-3.79,1.9-7.74,3.35-11.92,4.04l.82-12.84"/>
        <path class="cls-12" d="m97.93,84.31c-.12.77-.25,1.58-.39,2.41-.54,3.26-1.19,6.88-1.86,10.41-.31,1.59-.61,3.17-.91,4.68-.49,2.48-.96,4.79-1.37,6.73-.65,3.08-1.14,5.22-1.29,5.62,1.98.95,4.04,2.03,6.31,3.09,2.08.96,4.34,1.92,6.88,2.75,2.92.95,6.2,1.75,10.01,2.2,2.65.33,5.55.49,8.76.44,3.44-.06,7.24-.36,11.45-.99-.08-1.96-.17-4.02-.29-6.13-.16-3.02-.35-6.11-.54-9.05-.07-.99-.13-1.96-.2-2.9-.06-.82-.11-1.62-.17-2.39-.04-.62-.08-1.23-.12-1.82-.4-5.46-.73-9.32-.73-9.32"/>
        <path class="cls-12" d="m157.64,88.69s3.85-.16,6.38-.87c.98-.27,1.77-.63,2.05-1.1.72-1.18-.99-2.85-2.05-3.72-.44-.37-.76-.59-.76-.59l-6.47-1.45s-1.39.05-3.4.29c-1.3.15-2.88.39-4.49.74-.56.13-1.13.27-1.69.42-17.58,4.39-34.05,2.06-42.63.18h0c-3.9-.87-6.17-1.63-6.17-1.63-.13,1.02-.3,2.14-.48,3.34"/>
        <path class="cls-12" d="m163.26,82.41v-18.81s-.25-4.85,0-6.81c.61-4.75,1.88-10.73,3.62-14.21.59-1.17,1.23-2.06,1.91-2.53"/>
        <path class="cls-12" d="m164.02,35.52s-5.44,11.1-5.14,24.64"/>
        <polyline class="cls-12" points="158.88 65.34 163.26 65.34 163.03 60.16 158.88 60.16 158.88 65.34 156.79 80.96"/>
        <path class="cls-12" d="m166.89,42.58s-3.13,33.38-2.87,40.42"/>
        <line class="cls-12" x1="172.2" y1="60.16" x2="164.92" y2="65.87"/>
        <path class="cls-12" d="m177.3,65.34s-11.84,4.56-12.94,8.43"/>
        <path class="cls-12" d="m164.01,81.76s11-8.03,14.57-7.99"/>
        <path class="cls-12" d="m184.84,72.03s1.85,13.02,1.4,14.69"/>
        <path class="cls-12" d="m190.96,76.88s2.21,4.27,4.85,9.72c1.13,2.31,2.33,4.84,3.47,7.35,2.67,5.84,5.03,11.56,5.34,14.15,0,0,4.33.39,9.23,1.28,5.56,1.02,11.87,2.68,13.5,5.18,3.06,4.7,5.87,5.98,5.87,5.98"/>
        <path class="cls-12" d="m199.29,93.95c.81.02,1.68.03,2.61.03,2.78.03,6.03.03,9.38.35,3.82.37,7.78,1.15,11.31,2.83,3.05,1.46,5.78,3.59,7.85,6.72,1.98,2.99,3.36,6.88,3.82,11.97v.04"/>
        <path class="cls-12" d="m170.84,89.89c8.75,5.72,27.08,17.29,33.78,18.21"/>
        <path class="cls-12" d="m166.07,86.72s1.85,1.26,4.76,3.17"/>
        <path class="cls-12" d="m164.02,87.82s2.03,2.43,5.37,5.79c8.51,8.54,25.56,23.08,39.32,18.61,0,0,4.15-1.61,5.14-2.84"/>
        <path class="cls-12" d="m145.39,103.4s18.64,15.86,39.45,15.61"/>
        <path class="cls-12" d="m172.84,111.88s10.21,4.24,22.97,2.68"/>
        <path class="cls-12" d="m140.95,111.2s15.89,18.66,25.29,19.68c-4.26,3.06-12.04,8.17-14.09,8.81,1.43.3,3.04.54,4.69.72,5.39.62,11.18.63,12.55.04-1.28-2.04-3.15-9.57-3.15-9.57"/>
        <line class="cls-12" x1="169.39" y1="140.45" x2="172.96" y2="142.62"/>
        <path class="cls-12" d="m183.94,143.01c5.49-2.68,11.86-5.36,19.14-2.81,6.78-2.3,24.9-5.87,33.59-3.07"/>
        <path class="cls-12" d="m136.67,119.01c2.28,3.39,4.54,7.28,6.7,10.78,3.23,5.19,6.24,9.5,8.78,9.9"/>
        <path class="cls-12" d="m143.37,129.79s-1.85,10.34-5.53,12.5"/>
        <path class="cls-12" d="m122.28,141.54s12.05-9.09,13.24-19.89"/>
        <path class="cls-12" d="m106.58,142.03h.01c5.36-4.65,15.76-12.67,17.48-19.02"/>
        <path class="cls-12" d="m94.77,140.45c6.96-5.87,16.4-9.05,20.49-17.8"/>
        <path class="cls-12" d="m92.11,114.16c-.91,1.59-2.14,4.28-3.45,7.5-.18.44-.36.89-.54,1.35-1.42,3.59-2.91,7.71-4.17,11.7-1.17,3.73-2.15,7.35-2.69,10.3"/>
        <path class="cls-12" d="m105.23,120.54c-7.59,7.4-16.07,13.02-21.28,14.17"/>
        <path class="cls-12" d="m98.42,117.24h0s-6.28,5.94-10.3,5.77"/>
        <path class="cls-12" d="m89.41,144.73h.03c.57.09,8.84,1.26,9.83-.16"/>
        <path class="cls-12" d="m101.59,145.01s7.53.93,9.85,0"/>
        <path class="cls-12" d="m116.76,146h.01c.37.02,10.14.63,11.56-.03"/>
        <path class="cls-12" d="m131.93,146.13s5.58,1.26,10.43-1.15"/>
        <path class="cls-12" d="m151.72,145.97s7.46.37,10.64-.96h0"/>
        <path class="cls-12" d="m168.92,145.52s6.61,1.35,12.17-1.64c0-.01,0-.01,0-.01"/>
        <path class="cls-12" d="m148.67,99.45s15.44-8.18,20.72-5.84"/>
        <path class="cls-12" d="m170.83,89.89h.01c.39-.1,8.46-2.08,15.41-3.12,4.33-.65,8.23-.94,9.56-.17"/>
        <polyline class="cls-12" points="199.29 74.64 201.9 93.98 201.9 93.99"/>
        <line class="cls-12" x1="210.59" y1="74.26" x2="211.28" y2="94.33"/>
        <line class="cls-12" x1="223.52" y1="78.41" x2="222.61" y2="97.13"/>
        <line class="cls-12" x1="234.35" y1="86.46" x2="230.54" y2="103.81"/>
        <path class="cls-12" d="m77.35,73.31s17.26,5.92,20.58,10.99h0"/>
        <path class="cls-12" d="m92.11,61.39s3,15.56,6.31,17.18c4.59-6.8,14.4-27.37,18.49-29.09"/>
        <polyline class="cls-12" points="103.69 69.05 103.18 56.79 106.92 57.73"/>
      </g>
    </g>
  </g>
</svg>