<svg xmlns="http://www.w3.org/2000/svg" viewBox="0 0 270.4 200.95"><defs><style>.cls-1{fill:#6fb9a0}.cls-1,.cls-3,.cls-4,.cls-5,.cls-6,.cls-7,.cls-8{stroke-width:0}.cls-10{stroke-miterlimit:10}.cls-10,.cls-12{fill:none;stroke:#000}.cls-3{fill:#f9543e}.cls-4{fill:#fdd8ac}.cls-5{fill:#f3edd7}.cls-12{stroke-linecap:round;stroke-linejoin:round}.cls-6{fill:#333}.cls-7{fill:#af85c7}.cls-8{fill:#9f674e}</style></defs><g id="_畳" data-name="畳"><path d="M.24 166.3h3.62v5.03H.24zM270.15 193.88v6.57H239.7l15.35-8.63c1.03 1.62 3.11 2.72 5.51 2.72s4.62-1.18 5.62-2.88l3.97 2.23ZM270.15 183.32v10.56l-3.97-2.23c.38-.65.59-1.38.59-2.14 0-1.3-.62-2.48-1.62-3.38l4.99-2.8Z" class="cls-5"/><path d="M270.15 171.33v11.99l-4.99 2.8c-1.14-1.01-2.77-1.64-4.59-1.64s-3.31.58-4.44 1.51l-26.1-14.67h40.12ZM270.15 92.47v5.77H.24v-5.77h269.91z" class="cls-5"/><path d="M266.16 166.3h3.99v5.03h-3.99zM266.78 189.51c0 .76-.21 1.49-.59 2.14l-5.42-3.05 4.39-2.47c1 .89 1.62 2.08 1.62 3.38ZM260.77 188.6l5.42 3.05c-1 1.7-3.13 2.88-5.62 2.88s-4.48-1.1-5.51-2.72l5.71-3.21Z" class="cls-5"/><path d="M254.85 166.3h11.31v5.03h-11.31z" class="cls-6"/><path d="m265.16 186.13-4.39 2.47-4.64-2.61c1.13-.93 2.7-1.51 4.44-1.51 1.82 0 3.46.63 4.59 1.64Z" class="cls-5"/><path d="m260.77 188.6-5.71 3.21c-.44-.69-.69-1.48-.69-2.31 0-1.37.68-2.61 1.77-3.51l4.64 2.61Z" class="cls-5"/><path d="m230.03 171.33 26.1 14.67c-1.09.9-1.77 2.14-1.77 3.51 0 .83.25 1.62.69 2.31l-15.35 8.63h-41.48l-15.65-8.8c.38-.65.59-1.38.59-2.14 0-1.3-.62-2.48-1.62-3.37l26.34-14.81h22.15Zm-5.97 18.18c0-2.77-2.25-5.02-5.02-5.02s-5.03 2.25-5.03 5.02 2.25 5.03 5.03 5.03 5.02-2.25 5.02-5.03Z" class="cls-5"/><path d="M254.85 171.33h-30.52v-5.03h30.52v5.03z" class="cls-5"/><path d="M213.02 166.3h11.31v5.03h-11.31zM219.05 184.49c2.77 0 5.02 2.25 5.02 5.02s-2.25 5.03-5.02 5.03-5.03-2.25-5.03-5.03 2.25-5.02 5.03-5.02Z" class="cls-6"/><path d="m207.88 171.33-26.34 14.81c-1.14-1.02-2.77-1.65-4.59-1.65s-3.31.58-4.44 1.51l-26.1-14.67h61.47ZM182.5 171.33v-5.03h30.52v5.03H182.5zM198.21 200.45h-42.13l15.35-8.63c1.03 1.62 3.12 2.72 5.51 2.72s4.62-1.18 5.62-2.88l15.65 8.8Z" class="cls-5"/><path d="M183.16 189.51c0 .76-.21 1.49-.59 2.14l-5.42-3.05 4.39-2.47c1 .89 1.62 2.07 1.62 3.37ZM177.15 188.6l5.42 3.05c-1 1.7-3.13 2.88-5.62 2.88s-4.48-1.1-5.51-2.72l5.71-3.21Z" class="cls-5"/><path d="M171.19 166.3h11.31v5.03h-11.31z" class="cls-6"/><path d="M176.95 184.49c1.82 0 3.46.63 4.59 1.65l-4.39 2.47-4.64-2.61c1.13-.93 2.7-1.51 4.44-1.51Z" class="cls-5"/><path d="m177.15 188.6-5.71 3.21c-.44-.69-.69-1.48-.69-2.31 0-1.37.68-2.61 1.77-3.51l4.64 2.61Z" class="cls-5"/><path d="m146.41 171.33 26.1 14.67c-1.09.9-1.77 2.14-1.77 3.51 0 .83.25 1.62.69 2.31l-15.35 8.63H114.6l-15.65-8.8c.38-.65.59-1.38.59-2.14 0-1.3-.62-2.48-1.62-3.37l26.34-14.81h22.15Zm-7.02 18.18c0-2.77-2.25-5.02-5.02-5.02s-5.03 2.25-5.03 5.02 2.25 5.03 5.03 5.03 5.02-2.25 5.02-5.03Z" class="cls-5"/><path d="M171.19 171.33H140.67v-5.03h30.52v5.03z" class="cls-5"/><path d="M129.36 166.3h11.31v5.03h-11.31zM134.38 184.49c2.77 0 5.02 2.25 5.02 5.02s-2.25 5.03-5.02 5.03-5.03-2.25-5.03-5.03 2.25-5.02 5.03-5.02Z" class="cls-6"/><path d="m124.26 171.33-26.34 14.81c-1.14-1.02-2.77-1.65-4.59-1.65s-3.31.58-4.44 1.51l-26.1-14.67h61.47ZM129.36 171.33H98.83v-5.03h30.53v5.03zM114.6 200.45H72.47l15.35-8.63c1.03 1.62 3.11 2.72 5.51 2.72s4.62-1.18 5.62-2.88l15.65 8.8Z" class="cls-5"/><path d="M99.54 189.51c0 .76-.21 1.49-.59 2.14l-5.42-3.05 4.39-2.47c1 .89 1.62 2.07 1.62 3.37ZM93.53 188.6l5.42 3.05c-1 1.7-3.13 2.88-5.62 2.88s-4.48-1.1-5.51-2.72l5.71-3.21Z" class="cls-5"/><path d="M87.53 166.3h11.31v5.03H87.53z" class="cls-6"/><path d="M93.33 184.49c1.82 0 3.46.63 4.59 1.65l-4.39 2.47-4.64-2.61c1.13-.93 2.7-1.51 4.44-1.51Z" class="cls-5"/><path d="m93.53 188.6-5.71 3.21c-.44-.69-.69-1.48-.69-2.31 0-1.37.68-2.61 1.77-3.51l4.64 2.61Z" class="cls-5"/><path d="M62.8 171.33 88.9 186c-1.09.9-1.77 2.14-1.77 3.51 0 .83.25 1.62.69 2.31l-15.35 8.63H30.79l-15.65-8.8c.38-.65.59-1.38.59-2.14 0-1.3-.62-2.48-1.62-3.37l26.34-14.81h22.34Zm-8.53 18.18c0-2.77-2.25-5.02-5.02-5.02s-5.03 2.25-5.03 5.02 2.25 5.03 5.03 5.03 5.02-2.25 5.02-5.03Z" class="cls-5"/><path d="M87.53 171.33H57v-5.03h30.53v5.03z" class="cls-5"/><path d="M45.7 166.3h11.31v5.03H45.7zM49.25 184.49c2.77 0 5.02 2.25 5.02 5.02s-2.25 5.03-5.02 5.03-5.03-2.25-5.03-5.03 2.25-5.02 5.03-5.02Z" class="cls-6"/><path d="M45.7 171.33H15.17v-5.03H45.7v5.03zM30.79 200.45H.24v-6.52L4 191.82c1.03 1.62 3.12 2.72 5.51 2.72s4.62-1.18 5.62-2.88l15.65 8.8ZM15.73 189.51c0 .76-.21 1.49-.59 2.14l-5.42-3.05 4.39-2.47c1 .89 1.62 2.07 1.62 3.37Z" class="cls-5"/><path d="M3.87 166.3h11.31v5.03H3.87z" class="cls-6"/><path d="m9.72 188.6 5.42 3.05c-1 1.7-3.13 2.88-5.62 2.88s-4.48-1.1-5.51-2.72l5.71-3.21Z" class="cls-5"/><path d="M9.52 184.49c1.82 0 3.46.63 4.59 1.65l-4.39 2.47L5.08 186c1.13-.93 2.7-1.51 4.44-1.51Z" class="cls-5"/><path d="m9.72 188.6-5.71 3.21c-.44-.69-.69-1.48-.69-2.31 0-1.37.68-2.61 1.77-3.51l4.64 2.61ZM.24 183.28 5.08 186c-1.09.9-1.77 2.14-1.77 3.51 0 .83.25 1.62.69 2.31l-3.76 2.11v-10.65Z" class="cls-5"/><path d="M213.02 166.3H.24V98.24H270.15v68.06h-57.13z" style="fill:#d2d296;stroke-width:0"/><path d="M.24 171.33h40.21l-26.34 14.81c-1.14-1.02-2.77-1.65-4.59-1.65s-3.31.58-4.44 1.51l-4.84-2.72v-11.95Z" class="cls-5"/><path d="M270.15 200.45H.24M.24 92.47h269.91M.24 98.24h269.91M266.16 166.3h3.99M224.33 166.3h30.52M182.5 166.3h30.52M140.67 166.3h30.52M98.83 166.3h30.53M57 166.3h30.53M15.17 166.3H45.7M.24 166.3h3.63M266.16 171.33h3.99M224.33 171.33h30.52M182.5 171.33h30.52M140.67 171.33H171.19M98.83 171.33h30.53M57 171.33h30.53M15.17 171.33H45.7M.24 171.33h3.63M72.46 200.45l15.35-8.63 5.72-3.22 4.39-2.46 26.34-14.81" class="cls-10"/><path d="m114.6 200.45-15.65-8.8-5.42-3.05-4.64-2.6-26.09-14.67M139.4 189.51c0 2.78-2.25 5.03-5.02 5.03s-5.03-2.25-5.03-5.03 2.25-5.02 5.03-5.02 5.02 2.25 5.02 5.02ZM224.07 189.51c0 2.78-2.25 5.03-5.02 5.03s-5.03-2.25-5.03-5.03 2.25-5.02 5.03-5.02 5.02 2.25 5.02 5.02Z" class="cls-10"/><path d="M97.92 186.14c1 .89 1.62 2.07 1.62 3.37 0 .76-.21 1.49-.59 2.14-1 1.7-3.13 2.88-5.62 2.88s-4.48-1.1-5.51-2.72c-.44-.69-.69-1.48-.69-2.31 0-1.37.68-2.61 1.77-3.51 1.13-.93 2.7-1.51 4.44-1.51 1.82 0 3.46.63 4.59 1.65ZM.24 193.93l3.77-2.11 5.71-3.22 4.39-2.46 26.34-14.81" class="cls-10"/><path d="m30.79 200.45-15.65-8.8-5.42-3.05-4.64-2.6-4.84-2.72" class="cls-10"/><path d="M14.11 186.14c1 .89 1.62 2.07 1.62 3.37 0 .76-.21 1.49-.59 2.14-1 1.7-3.13 2.88-5.62 2.88s-4.48-1.1-5.51-2.72c-.44-.69-.69-1.48-.69-2.31 0-1.37.68-2.61 1.77-3.51 1.13-.93 2.7-1.51 4.44-1.51 1.82 0 3.46.63 4.59 1.65ZM156.08 200.45l15.35-8.63 5.72-3.22 4.39-2.46 26.34-14.81" class="cls-10"/><path d="m198.21 200.45-15.64-8.8-5.42-3.05-4.64-2.6-26.1-14.67" class="cls-10"/><path d="M181.54 186.14c1 .89 1.62 2.07 1.62 3.37 0 .76-.21 1.49-.59 2.14-1 1.7-3.13 2.88-5.62 2.88s-4.48-1.1-5.51-2.72c-.44-.69-.69-1.48-.69-2.31 0-1.37.68-2.61 1.77-3.51 1.13-.93 2.7-1.51 4.44-1.51 1.82 0 3.46.63 4.59 1.65ZM239.7 200.45l15.35-8.63 5.72-3.22 4.39-2.47 4.99-2.81" class="cls-10"/><path d="m270.15 193.88-3.97-2.23-5.41-3.05-4.64-2.6-26.1-14.67" class="cls-10"/><path d="M265.16 186.13c1 .89 1.62 2.08 1.62 3.38 0 .76-.21 1.49-.59 2.14-1 1.7-3.13 2.88-5.62 2.88s-4.48-1.1-5.51-2.72c-.44-.69-.69-1.48-.69-2.31 0-1.37.68-2.61 1.77-3.51 1.13-.93 2.7-1.51 4.44-1.51 1.82 0 3.46.63 4.59 1.64ZM54.27 189.51c0 2.78-2.25 5.03-5.02 5.03s-5.03-2.25-5.03-5.03 2.25-5.02 5.03-5.02 5.02 2.25 5.02 5.02ZM3.87 166.3h11.31v5.03H3.87zM45.7 166.3h11.31v5.03H45.7zM87.53 166.3h11.31v5.03H87.53zM129.36 166.3h11.31v5.03h-11.31zM171.19 166.3h11.31v5.03h-11.31zM213.02 166.3h11.31v5.03h-11.31zM254.85 166.3h11.31v5.03h-11.31z" class="cls-10"/></g><g id="_レイヤー_2" data-name="レイヤー 2"><path d="M211.28 94.33c-3.35-.32-6.6-.32-9.38-.35l-2.61-19.34c3.39-.52 7.34-.75 11.3-.38l.69 20.07ZM222.61 97.13l.91-18.72c3.73 2.51 7.52 5.39 10.84 8.04h-.01l-3.81 17.36-.1.07c-2.07-3.13-4.8-5.26-7.85-6.72l.02-.03Z" class="cls-7"/><path d="m211.28 94.33-.69-20.07c4.59.42 9.18 1.64 12.93 4.15l-.91 18.72-.02.03c-3.53-1.68-7.49-2.46-11.31-2.83Z" class="cls-7"/><path d="M201.9 93.98c2.78.03 6.03.03 9.38.35 3.82.37 7.78 1.15 11.31 2.83 3.05 1.46 5.78 3.59 7.85 6.72 1.98 2.99 3.36 6.88 3.82 11.97-.13 1.54-.41 3.74-1.04 4.69 0 0-2.81-1.28-5.87-5.98-1.63-2.5-7.94-4.16-13.5-5.18-4.9-.89-9.23-1.28-9.23-1.28-.31-2.59-2.67-8.31-5.34-14.15h.01c.81.02 1.68.03 2.61.03Z" class="cls-1"/><path d="m230.54 103.81 3.81-17.35h.01c5.99 4.81 10.48 8.93 10.48 8.93l-10.49 18.81s-.02.7-.09 1.65c-.46-5.09-1.84-8.98-3.82-11.97l.1-.07Z" class="cls-7"/><path d="M166.24 130.88s1.87 7.53 3.15 9.57c-1.37.59-7.16.58-12.55-.04-1.65-.18-3.26-.42-4.69-.72 2.05-.64 9.83-5.75 14.09-8.81Z" class="cls-3"/><path d="m151.97 50.77 6.91 14.57-9.98 16.65c-.56.13-1.13.27-1.69.42-17.58 4.39-34.05 2.06-42.63.18s.04-.18.04-.18c2.52-1.05 8.07-5.53 11.29-8.22 1.47-1.22 2.45-2.08 2.45-2.08l.73-1.7c9.62-5.96 15.79-11.06 24.28-27.23.36-.43.69-.86 1-1.28 4.4-6.02 11.53-17.36 14.51-26.17 1.26-3.7 1.78-6.96 1.06-9.19 1.7 5.11 1.86 19.5.98 26.76-.18 1.45-.39 2.62-.65 3.37-.48 1.4-4.04 7.38-8.3 14.1Z" class="cls-7"/><path d="M114.79 108.54v.25c-2.38.13-2.58-.25-2.58-.25v-2.97c1.08.15 1.98.25 2.58.25h.14l-.14 2.72Z" class="cls-8"/><path d="M115.43 31.19c.19-1.17.5-2.42.85-3.58l1.37-.2 2.63 2.75-4.85 1.03Z" class="cls-4"/><path d="M172.96 142.62c-.73-.03-2.35 1.86-4.04 2.9-.67.42-1.36.7-2 .68-1.54-.05-3.11-.56-4.55-1.19-2.6-1.13-4.81-2.66-5.74-2.64l.22-1.96c5.39.62 11.18.63 12.55.04l3.57 2.17Z" class="cls-7"/><path d="m123.1 90.56-.82 12.84v3.95s.68.03 1.79.04c-4.71.94-7.56 1.3-9.27 1.4v-.25l.13-2.71.24-4.63.56-10.84c1.65.19 3.2.31 4.55.31.78 0 1.74-.04 2.82-.11Z" class="cls-8"/><path d="m117.15 49.46 1.94 20.95-.73 1.7s-.98.86-2.45 2.08l-.64-.88c-1.7-8.18 1.64-23.83 1.64-23.83l.24-.02Z" class="cls-7"/><path d="M135.52 121.65c-4.21.63-8.01.93-11.45.99-3.21.05-6.11-.11-8.76-.44-3.81-.45-7.09-1.25-10.01-2.2-2.54-.83-4.8-1.79-6.88-2.75-2.27-1.06-4.33-2.14-6.31-3.09.15-.4.64-2.54 1.29-5.62 2.45 1.14 5.24 2.3 8.38 3.34 3.13 1.05 6.61 1.98 10.43 2.68 6.62 1.22 14.29 1.75 23.02.96.12 2.11.21 4.17.29 6.13Z" class="cls-8"/><path d="M134.69 106.47c.19 2.94.38 6.03.54 9.05-8.73.79-16.4.26-23.02-.96v-6.02s.2.38 2.59.25c1.71-.1 4.56-.46 9.27-1.4 2.39.02 6.77-.09 10.62-.92Z" class="cls-8"/><path d="M156.62 142.37c-.86.02-2.47 2.47-4.9 3.6-.45.22-.93.38-1.44.48-2.54.48-5.64-.35-7.92-1.47-1.11-.55-2.03-1.16-2.59-1.72-.68-.78-1.28-1.05-1.93-.97 3.68-2.16 5.53-12.5 5.53-12.5 3.23 5.19 6.24 9.5 8.78 9.9 1.43.3 3.04.54 4.69.72l-.22 1.96Z" class="cls-7"/><path d="M145.39 103.4c-1.4 2.45-2.97 5.2-4.44 7.8-1.7 3.01-3.27 5.84-4.28 7.81-.68 1.33-1.11 2.27-1.15 2.64-.08-1.96-.17-4.02-.29-6.13-.16-3.02-.35-6.11-.54-9.05-.07-.99-.13-1.96-.2-2.9 0 0 10.14.66 11.81-1.32-.53.64-.87 1.07-.91 1.15Z" class="cls-8"/><path d="m158.88 65.34-2.09 15.62s-1.39.05-3.4.29c-1.3.15-2.88.39-4.49.74l9.98-16.65ZM166.88 42.58s-3.13 33.38-2.87 40.42c-.44-.37-.76-.59-.76-.59V63.6s-.25-4.85 0-6.81c.61-4.75 1.88-10.73 3.62-14.21ZM161.33 33.35s1.04.75 2.69 2.17c0 0-5.44 11.1-5.14 24.64v5.18l-6.91-14.57c4.26-6.72 7.82-12.7 8.3-14.1.26-.75.47-1.92.65-3.37l.41.05ZM159.94 6.54c.72 2.23.2 5.49-1.06 9.19-.63-3.12-2.1-5.89-3.85-8.16l.19-.14s1.28-.51 4.72-.89Z" class="cls-7"/><path d="M120.89 41.14c-1.08 1.3-2.28 3.12-3.98 5.69-.46.69-.53.43-1.06 1.23.29-.75 0-2.24.05-4.88.07-3.68 0-7.66 0-7.66 1.37 1.69 2.49 3.44 6.38 4.17-.46.4-.91.87-1.39 1.45Z" style="fill:#666;stroke-width:0"/><path d="m128.15 55.69.27.39c-3.53 2.48-6.14 4.08-6.14 4.08l-1.39-19.02c.48-.58.93-1.05 1.39-1.45.99.19 2.17.31 3.58.34v.02l2.29 15.64ZM38.67 115.13l-1.03.39s-2.38 3.74-4.08 7.49l-13.02-1.96L35 103.4c.84 3.79 2.22 7.87 3.67 11.73Z" class="cls-7"/><path d="M143.37 43.18c-8.49 16.17-14.66 21.27-24.28 27.23l-1.94-20.95-.24-2.63c1.7-2.57 2.9-4.39 3.98-5.69l1.39 19.02s2.61-1.6 6.14-4.08c4.71-3.32 11.07-8.2 14.95-12.9ZM115.27 73.31l.64.88c-3.22 2.69-8.77 7.17-11.29 8.22l-.04.17c-3.9-.86-6.17-1.62-6.17-1.62v-2.39c4.6-6.8 14.41-27.37 18.5-29.09 0 0-3.34 15.65-1.64 23.83Z" class="cls-7"/><path d="M98.42 78.57v2.39c-.14 1.02-.31 2.14-.49 3.34-3.32-5.07-20.58-10.99-20.58-10.99 3.95-3.69 8.75-8.29 12.98-12.33l1.78.41s3 15.56 6.31 17.18Z" class="cls-7"/><path d="m116.91 46.83.24 2.63-.24.02c-4.09 1.72-13.9 22.29-18.49 29.09-3.31-1.62-6.31-17.18-6.31-17.18l-1.78-.41c4.91-4.68 9.07-8.6 10.29-9.46 2.9-2.04 7.73-6.95 15.11-8.34h.17c-.05 2.64.24 4.13-.05 4.88.53-.8.6-.54 1.06-1.23ZM97.93 84.3c-.12.78-.25 1.59-.39 2.42-.54 3.26-1.19 6.88-1.86 10.41-.31 1.59-.61 3.17-.91 4.68-.49 2.48-.96 4.79-1.37 6.73-.65 3.08-1.14 5.22-1.29 5.62-.91 1.59-2.14 4.28-3.45 7.5l-1.31-1.04s-11.24-29.61-14.3-38.8c-.42-1.27-.93-2.34-1.52-3.25 1.46-1.24 3.49-3.09 5.82-5.26 0 0 17.26 5.92 20.58 10.99Z" class="cls-7"/><path d="m99.3 144.54-.03.03c-.99 1.42-9.26.25-9.83.16 1.22-.42 1.7-1.14 2.46-2.11.96-1.22 1.97-1.6 2.83-1.54.83.04 1.53.46 1.94.91.64.7 1.72 1.79 2.63 2.55ZM106.59 142.02c1.19 0 2.22.48 2.67.86.4.34 1.23 1.27 2.18 2.13-2.32.93-9.85 0-9.85 0 .82-.56 1.89-1.54 2.44-2 .84-.71 1.74-.98 2.56-.99ZM124.33 142.62c.62.54 2.29 2.32 4 3.35-1.42.66-11.19.05-11.56.03 1.04-.64 2.07-1.64 2.96-2.74.82-1.01 1.74-1.36 2.57-1.37s1.58.35 2.03.73ZM139.77 143.26c.56.56 1.48 1.17 2.59 1.72-4.85 2.41-10.43 1.15-10.43 1.15 1.24-.8 2.79-2.21 4.1-3.04.7-.44 1.28-.73 1.81-.8.65-.08 1.25.19 1.93.97ZM156.62 142.37c.93-.02 3.14 1.51 5.74 2.64-3.18 1.33-10.64.96-10.64.96 2.43-1.13 4.04-3.58 4.9-3.6ZM172.96 142.62c.86.04 3.37 2.21 8.13 1.26-5.56 2.99-12.17 1.64-12.17 1.64 1.69-1.04 3.31-2.93 4.04-2.9ZM183.94 143.01c5.49-2.68 11.86-5.36 19.14-2.81-6.63 2.68-16.97 4.08-19.14 2.81ZM203.08 140.2c6.78-2.3 24.9-5.87 33.59-3.07-9.71 6.77-24.53 15.96-33.59 3.07Z" class="cls-3"/><path d="M145.39 103.4c.04-.08.38-.51.91-1.15.62-.73 1.47-1.74 2.37-2.8 0 0 15.44-8.18 20.72-5.84 8.51 8.54 25.56 23.08 39.32 18.61 0 0 4.15-1.61 5.14-2.84 5.56 1.02 11.87 2.68 13.5 5.18 3.06 4.7 5.87 5.98 5.87 5.98 4.08 7.79 3.45 16.59 3.45 16.59-8.69-2.8-26.81.77-33.59 3.07-7.28-2.55-13.65.13-19.14 2.81-1.03.41-1.97.69-2.84.86v.01c-4.76.95-7.27-1.22-8.13-1.26l-3.57-2.17c-1.28-2.04-3.15-9.57-3.15-9.57-9.4-1.02-25.29-19.68-25.29-19.68 1.47-2.6 3.04-5.35 4.44-7.8Z" class="cls-7"/><path d="M213.85 109.38c-.99 1.23-5.14 2.84-5.14 2.84-13.76 4.47-30.81-10.07-39.32-18.61-3.34-3.36-5.37-5.79-5.37-5.79.98-.27 1.77-.63 2.05-1.1 0 0 1.85 1.26 4.76 3.17h.01c8.75 5.72 27.08 17.29 33.78 18.21 0 0 4.33.39 9.23 1.28Z" class="cls-8"/><path d="m199.29 74.64 2.61 19.34c-.93 0-1.8-.01-2.61-.03h-.01c-1.14-2.51-2.34-5.04-3.47-7.35-2.64-5.45-4.85-9.72-4.85-9.72 1.66-.81 4.67-1.69 8.33-2.24Z" class="cls-7"/><path d="M199.28 93.95c2.67 5.84 5.03 11.56 5.34 14.15-6.7-.92-25.03-12.49-33.78-18.21.39-.1 8.46-2.08 15.41-3.12 4.33-.65 8.23-.94 9.56-.17 1.13 2.31 2.33 4.84 3.47 7.35Z" class="cls-7"/><path d="M195.81 86.6c-1.33-.77-5.23-.48-9.56.17v-.05c.44-1.67-1.41-14.69-1.41-14.69 4.08 2.17 6.12 4.85 6.12 4.85s2.21 4.27 4.85 9.72Z" class="cls-7"/><path d="M184.84 72.03s1.85 13.02 1.4 14.69v.05c-6.94 1.04-15.01 3.02-15.4 3.12h-.01c-2.91-1.91-4.76-3.17-4.76-3.17.72-1.18-.99-2.85-2.05-3.72-.26-7.04 2.87-40.42 2.87-40.42.59-1.17 1.23-2.06 1.91-2.53 6.39 6.63 14.74 17.83 16.05 31.98ZM169.39 93.61c-5.28-2.34-20.72 5.84-20.72 5.84 2.21-2.59 4.72-5.5 4.72-5.5l-.04-.04c2.51-2.41 4.29-5.22 4.29-5.22s3.85-.16 6.38-.87c0 0 2.03 2.43 5.37 5.79Z" class="cls-7"/><path d="M168.79 40.05c-.68.47-1.32 1.36-1.91 2.53-1.74 3.48-3.01 9.46-3.62 14.21-.25 1.96 0 6.81 0 6.81v1.74l-.23-5.18h-4.15c-.3-13.54 5.14-24.64 5.14-24.64 1.29 1.11 2.95 2.63 4.77 4.53ZM164.02 83c1.06.87 2.77 2.54 2.05 3.72-.28.47-1.07.83-2.05 1.1-2.53.71-6.38.87-6.38.87l-4.25-1.97v-5.47c2.01-.24 3.4-.29 3.4-.29l6.47 1.45s.32.22.76.59Z" class="cls-8"/><path d="M163.26 65.34v17.07l-6.47-1.45 2.09-15.62h4.38z" class="cls-8"/><path d="m163.03 60.16.23 5.18h-4.38v-5.18h4.15z" class="cls-8"/><path d="M166.24 130.88c-4.26 3.06-12.04 8.17-14.09 8.81-2.54-.4-5.55-4.71-8.78-9.9-2.16-3.5-4.42-7.39-6.7-10.78 1.01-1.97 2.58-4.8 4.28-7.81 0 0 15.89 18.66 25.29 19.68Z" class="cls-7"/><path d="m153.39 86.72 4.25 1.97s-1.78 2.81-4.29 5.22c-1.12 1.08-2.39 2.08-3.71 2.71-4.25 2.05-15.31 4.56-15.31 4.56-.04-.62-.08-1.23-.12-1.82 6.73-3.37 12.99-8.16 19.19-12.64Z" class="cls-8"/><path d="M120.29 17.1C123.89.82 139.31-.99 147.05 1.31c2.07.61 5.34 2.87 7.98 6.26 1.75 2.27 3.22 5.04 3.85 8.16-2.98 8.81-10.11 20.15-14.51 26.17-.31.42-.64.85-1 1.28-3.88 4.7-10.24 9.58-14.95 12.9l-.27-.39-2.29-15.64v-.02c-1.41-.03-2.59-.15-3.58-.34-3.89-.73-5.01-2.48-6.38-4.17-.72-.88-.75-2.52-.47-4.33l4.85-1.03-2.63-2.75-1.37.2c.73-2.44 1.6-4.46 1.6-4.46v-.02c-.83-.21-1.64-.5-1.98-.89-.5-.57 2.03-3.42 4.39-5.14Z" class="cls-4"/><path d="M148.9 81.99c1.61-.35 3.19-.59 4.49-.74v5.47s-10.43 1.64-19.98 2.8c-3.82.47-7.5.86-10.31 1.04-1.08.07-2.04.11-2.82.11-1.35 0-2.9-.12-4.55-.31-8-.92-18.19-3.64-18.19-3.64.14-.83.27-1.64.39-2.41.18-1.21.35-2.33.48-3.35 0 0 2.27.76 6.17 1.62 8.58 1.89 25.05 4.22 42.63-.17.56-.15 1.13-.29 1.69-.42ZM153.35 93.91l.04.04s-2.51 2.91-4.72 5.5c-.9 1.06-1.75 2.07-2.37 2.8-1.67 1.98-11.81 1.32-11.81 1.32-.06-.82-.11-1.62-.17-2.39s11.06-2.51 15.31-4.56c1.32-.63 2.59-1.63 3.71-2.71Z" class="cls-8"/><path d="M143.37 129.79s-1.85 10.34-5.53 12.5c-.53.07-1.11.36-1.81.8-1.31.83-2.86 2.24-4.1 3.04-.56.36-1.05.6-1.43.6-.68 0-1.43-.31-2.17-.76-1.71-1.03-3.38-2.81-4-3.35-.45-.38-1.2-.74-2.03-.73l-.02-.35s12.05-9.09 13.24-19.89c.04-.37.47-1.31 1.15-2.64 2.28 3.39 4.54 7.28 6.7 10.78Z" class="cls-7"/><path d="M133.41 89.52c9.55-1.16 19.98-2.8 19.98-2.8-6.2 4.48-12.46 9.27-19.19 12.64-.4-5.46-.73-9.32-.73-9.32l-.06-.52Z" class="cls-8"/><path d="M134.49 103.57c.07.94.13 1.91.2 2.9-3.85.83-8.23.94-10.62.92-1.11-.01-1.79-.04-1.79-.04v-3.95c4.18-.69 8.13-2.14 11.92-4.04.04.59.08 1.2.12 1.82.06.77.11 1.57.17 2.39Z" class="cls-8"/><path d="M133.47 90.04s.33 3.86.73 9.32c-3.79 1.9-7.74 3.35-11.92 4.04l.82-12.84c2.81-.18 6.49-.57 10.31-1.04l.06.52Z" class="cls-8"/><path d="M135.52 121.65c-1.19 10.8-13.24 19.89-13.24 19.89l.02.35c-.83.01-1.75.36-2.57 1.37-.89 1.1-1.92 2.1-2.96 2.74h-.01c-.91.56-1.82.85-2.65.68-.85-.17-1.81-.89-2.67-1.67-.95-.86-1.78-1.79-2.18-2.13-.45-.38-1.48-.87-2.67-.86 5.36-4.64 15.76-12.66 17.48-19.01v-.37c3.44-.06 7.24-.36 11.45-.99Z" class="cls-7"/><path d="M124.07 122.64v.37c-1.72 6.35-12.12 14.37-17.48 19.01-.82.01-1.72.28-2.56.99-.55.46-1.62 1.44-2.44 2-.37.25-.68.42-.88.42-.26 0-.79-.37-1.41-.89-.91-.76-1.99-1.85-2.63-2.55-.41-.45-1.11-.87-1.94-.91l.04-.63c6.96-5.87 16.4-9.05 20.49-17.8l.05-.45c2.65.33 5.55.49 8.76.44Z" class="cls-7"/><path d="m115.73 90.36-.56 10.84-.38-.02c-11.59-.88-19.11-4.05-19.11-4.05.67-3.53 1.32-7.15 1.86-10.41 0 0 10.19 2.72 18.19 3.64Z" class="cls-8"/><path d="M89.44 144.73c-.84.3-2.04.45-3.92.45-.85 0-2.35-.03-4.26-.16.54-2.96 1.52-6.58 2.69-10.31 5.21-1.15 13.69-6.77 21.28-14.17l.07-.54c2.92.95 6.2 1.75 10.01 2.2l-.05.45c-4.09 8.75-13.53 11.93-20.49 17.8l-.04.63c-.86-.06-1.87.32-2.83 1.54-.76.97-1.24 1.69-2.46 2.11Z" class="cls-7"/><path d="M112.21 105.57c-2.64-.4-6.39-1.19-9.74-1.94-4.16-.94-7.7-1.82-7.7-1.82.3-1.51.6-3.09.91-4.68 0 0 7.52 3.17 19.11 4.05l.38.02-.24 4.63h-.14c-.6-.01-1.5-.11-2.58-.26Z" class="cls-8"/><path d="M112.21 108.54v6.02c-3.82-.7-7.3-1.63-10.43-2.68l.66-8.07.03-.18c3.35.75 7.1 1.54 9.74 1.94v2.97Z" class="cls-8"/><path d="m105.3 120-.07.54c-7.59 7.4-16.07 13.02-21.28 14.17 1.26-3.99 2.75-8.11 4.17-11.7 4.02.17 10.3-5.76 10.3-5.76 2.08.96 4.34 1.92 6.88 2.75Z" class="cls-7"/><path d="m102.47 103.63-.03.18-.66 8.07c-3.14-1.04-5.93-2.2-8.38-3.34.41-1.94.88-4.25 1.37-6.73 0 0 3.54.88 7.7 1.82Z" class="cls-8"/><path d="M92.11 114.16c1.98.95 4.04 2.03 6.31 3.09 0 0-6.28 5.93-10.3 5.76.18-.46.36-.91.54-1.35 1.31-3.22 2.54-5.91 3.45-7.5Z" class="cls-7"/><path d="M61.11 139.51c-11.55 3.58-13.25 3.92-20.4 2.9s-13.28-10.21-7.15-19.4c1.7-3.75 4.08-7.49 4.08-7.49l1.03-.39c-1.45-3.86-2.83-7.94-3.67-11.73-.38-1.71-.65-3.36-.76-4.9-.68-9.19 9.19-24.17 18.72-24.51 8.22-.29 14.92-1.1 18.57 4.58.59.91 1.1 1.98 1.52 3.25 3.06 9.19 14.3 38.8 14.3 38.8l1.31 1.04a180.426 180.426 0 0 0-4.71 13.05c-1.17 3.73-2.15 7.35-2.69 10.3-5.3-.37-13.75-1.6-20.14-5.5h-.01Z" class="cls-1"/><path d="M120.28 17.12s0-.01.01-.02C123.89.82 139.31-.99 147.05 1.31c2.07.61 5.34 2.87 7.98 6.26 1.75 2.27 3.22 5.04 3.85 8.16" class="cls-12"/><path d="M123.09 15.77c-.7 0-1.73.55-2.8 1.33-2.36 1.72-4.89 4.57-4.39 5.14.34.39 1.15.68 1.98.89 1.13.29 2.27.43 2.27.43M122.28 26.58s3.58 4.85 3.58 6" class="cls-12"/><path d="M117.88 23.15s-.87 2.02-1.6 4.46c-.35 1.16-.66 2.41-.85 3.58-.28 1.81-.25 3.45.47 4.33 1.37 1.69 2.49 3.44 6.38 4.17.99.19 2.17.31 3.58.34 1.8.05 3.98-.04 6.64-.3M125.86 40.05l2.29 15.64M127.6 14.96l4.17 3.11" class="cls-12"/><path d="m116.28 27.61 1.37-.2 2.63 2.75-4.85 1.03" class="cls-12"/><path d="m116.22 29.13 2.14.45" style="stroke-linecap:round;stroke-linejoin:round;stroke-width:.5px;fill:none;stroke:#000"/><path d="M144.75 20.58c2.3-1.27 7.92-1.24 7.15 2.57-.77 3.81-2.81 8.44-9.45 8.04" class="cls-12"/><path d="m147.21 24.41-1.82 3s.2 1.6 1.82.96M159.94 6.54c1.7 5.11 1.86 19.5.98 26.76-.18 1.45-.39 2.62-.65 3.37-.48 1.4-4.04 7.38-8.3 14.1-.55.87-1.11 1.76-1.69 2.65-5.04 7.86-10.6 16.03-13.05 18.69M61.11 139.51c-3.84-2.33-6.94-5.63-8.15-10.29M116.76 146c-.91.56-1.82.85-2.65.68-.85-.17-1.81-.89-2.67-1.67-.95-.86-1.78-1.79-2.18-2.13-.45-.38-1.48-.87-2.67-.86-.82.01-1.72.28-2.56.99-.55.46-1.62 1.44-2.44 2-.37.25-.68.42-.88.42-.26 0-.79-.37-1.41-.89-.91-.76-1.99-1.85-2.63-2.55-.41-.45-1.11-.87-1.94-.91-.86-.06-1.87.32-2.83 1.54-.76.97-1.24 1.69-2.46 2.11-.84.3-2.04.45-3.92.45-.85 0-2.35-.03-4.26-.16-5.3-.38-13.75-1.61-20.14-5.51M162.36 145.01c-2.6-1.13-4.81-2.66-5.74-2.64-.86.02-2.47 2.47-4.9 3.6-.45.22-.93.38-1.44.48-2.54.48-5.64-.35-7.92-1.47-1.11-.55-2.03-1.16-2.59-1.72-.68-.78-1.28-1.05-1.93-.97-.53.07-1.11.36-1.81.8-1.31.83-2.86 2.24-4.1 3.04-.56.36-1.05.6-1.43.6-.68 0-1.43-.31-2.17-.76-1.71-1.03-3.38-2.81-4-3.35-.45-.38-1.2-.74-2.03-.73s-1.75.36-2.57 1.37c-.89 1.1-1.92 2.1-2.96 2.74M181.09 143.88c-4.76.95-7.27-1.22-8.13-1.26-.73-.03-2.35 1.86-4.04 2.9-.67.42-1.36.7-2 .68-1.54-.05-3.11-.56-4.55-1.19M161.33 33.35s1.04.75 2.69 2.17c1.29 1.11 2.95 2.63 4.77 4.53 6.39 6.63 14.74 17.83 16.05 31.98 4.08 2.17 6.12 4.85 6.12 4.85 1.66-.81 4.67-1.69 8.33-2.24 3.39-.52 7.34-.75 11.3-.38 4.59.42 9.18 1.64 12.93 4.15 3.73 2.51 7.52 5.39 10.84 8.04 5.99 4.82 10.48 8.94 10.48 8.94l-10.49 18.81s-.02.7-.09 1.65c-.13 1.54-.41 3.74-1.04 4.69 4.08 7.79 3.45 16.59 3.45 16.59-9.71 6.77-24.53 15.96-33.59 3.07-6.63 2.68-16.97 4.08-19.14 2.81-1.03.41-1.97.69-2.84.86" class="cls-12"/><path d="M61.12 139.51h-.01c-11.55 3.58-13.25 3.92-20.4 2.9s-13.28-10.21-7.15-19.4c1.7-3.75 4.08-7.49 4.08-7.49" class="cls-12"/><path d="M43.43 127.43c-1.09-3.13-2.98-7.55-4.76-12.3-1.45-3.86-2.83-7.94-3.67-11.73-.38-1.71-.65-3.36-.76-4.9-.68-9.19 9.19-24.17 18.72-24.51 8.22-.29 14.92-1.1 18.57 4.58.59.91 1.1 1.98 1.52 3.25 3.06 9.19 14.3 38.8 14.3 38.8" class="cls-12"/><path d="m35 103.4-14.46 17.65 13.02 1.96M71.53 78.57c1.46-1.24 3.49-3.09 5.82-5.26 3.95-3.69 8.75-8.29 12.98-12.33 4.91-4.68 9.07-8.6 10.29-9.46 2.9-2.04 7.73-6.95 15.11-8.34M115.9 35.52s.07 3.98 0 7.66c-.05 2.64.24 4.13-.05 4.88.53-.8.6-.54 1.06-1.23 1.7-2.57 2.9-4.39 3.98-5.69.48-.58.93-1.05 1.39-1.45" class="cls-12"/><path d="M120.89 41.13h0l1.39 19.03s2.61-1.6 6.14-4.08c4.71-3.32 11.07-8.2 14.95-12.9.36-.43.69-.86 1-1.28 4.4-6.02 11.53-17.36 14.51-26.17 1.26-3.7 1.78-6.96 1.06-9.19-3.44.38-4.72.89-4.72.89" class="cls-12"/><path d="M143.37 43.18c-8.49 16.17-14.66 21.27-24.28 27.23l-1.94-20.95-.24-2.63M116.91 49.48s-3.34 15.65-1.64 23.83M118.36 72.11s-.98.86-2.45 2.08c-3.22 2.69-8.77 7.17-11.29 8.22M97.54 86.72s10.19 2.72 18.19 3.64c1.65.19 3.2.31 4.55.31.78 0 1.74-.04 2.82-.11 2.81-.18 6.49-.57 10.31-1.04 9.55-1.16 19.98-2.8 19.98-2.8l4.25 1.97s-1.78 2.81-4.29 5.22c-1.12 1.08-2.39 2.08-3.71 2.71-4.25 2.05-15.31 4.56-15.31 4.56M95.68 97.13s7.52 3.17 19.11 4.05M94.77 101.81s3.54.88 7.7 1.82c3.35.75 7.1 1.54 9.74 1.94 1.08.15 1.98.25 2.58.25" class="cls-12"/><path d="m115.73 90.36-.56 10.84-.24 4.63-.14 2.71M122.28 103.4v3.95s.68.03 1.79.04c2.39.02 6.77-.09 10.62-.92M153.39 93.95s-2.51 2.91-4.72 5.5c-.9 1.06-1.75 2.07-2.37 2.8-.53.64-.87 1.07-.91 1.15-1.4 2.45-2.97 5.2-4.44 7.8-1.7 3.01-3.27 5.84-4.28 7.81-.68 1.33-1.11 2.27-1.15 2.64M93.4 108.54c2.45 1.14 5.24 2.3 8.38 3.34 3.13 1.05 6.61 1.98 10.43 2.68 6.62 1.22 14.29 1.75 23.02.96M102.44 103.81l-.66 8.07M112.21 105.56v9" class="cls-12"/><path d="M112.21 108.54s.2.38 2.59.25c1.71-.1 4.56-.46 9.27-1.4M134.49 103.57s10.14.66 11.81-1.32M150.28 53.42s-.15 15.6-3.98 23.84M151.97 50.77l6.91 14.57-9.98 16.65V82M153.39 81.25v5.47c-6.2 4.48-12.46 9.27-19.19 12.64-3.79 1.9-7.74 3.35-11.92 4.04l.82-12.84" class="cls-12"/><path d="M97.93 84.31c-.12.77-.25 1.58-.39 2.41-.54 3.26-1.19 6.88-1.86 10.41-.31 1.59-.61 3.17-.91 4.68-.49 2.48-.96 4.79-1.37 6.73-.65 3.08-1.14 5.22-1.29 5.62 1.98.95 4.04 2.03 6.31 3.09 2.08.96 4.34 1.92 6.88 2.75 2.92.95 6.2 1.75 10.01 2.2 2.65.33 5.55.49 8.76.44 3.44-.06 7.24-.36 11.45-.99-.08-1.96-.17-4.02-.29-6.13-.16-3.02-.35-6.11-.54-9.05-.07-.99-.13-1.96-.2-2.9-.06-.82-.11-1.62-.17-2.39-.04-.62-.08-1.23-.12-1.82-.4-5.46-.73-9.32-.73-9.32M157.64 88.69s3.85-.16 6.38-.87c.98-.27 1.77-.63 2.05-1.1.72-1.18-.99-2.85-2.05-3.72-.44-.37-.76-.59-.76-.59l-6.47-1.45s-1.39.05-3.4.29c-1.3.15-2.88.39-4.49.74-.56.13-1.13.27-1.69.42-17.58 4.39-34.05 2.06-42.63.18h0c-3.9-.87-6.17-1.63-6.17-1.63-.13 1.02-.3 2.14-.48 3.34M163.26 82.41V63.6s-.25-4.85 0-6.81c.61-4.75 1.88-10.73 3.62-14.21.59-1.17 1.23-2.06 1.91-2.53M164.02 35.52s-5.44 11.1-5.14 24.64" class="cls-12"/><path d="M158.88 65.34h4.38l-.23-5.18h-4.15v5.18l-2.09 15.62M166.89 42.58s-3.13 33.38-2.87 40.42M172.2 60.16l-7.28 5.71" class="cls-12"/><path d="M177.3 65.34s-11.84 4.56-12.94 8.43M164.01 81.76s11-8.03 14.57-7.99M184.84 72.03s1.85 13.02 1.4 14.69M190.96 76.88s2.21 4.27 4.85 9.72c1.13 2.31 2.33 4.84 3.47 7.35 2.67 5.84 5.03 11.56 5.34 14.15 0 0 4.33.39 9.23 1.28 5.56 1.02 11.87 2.68 13.5 5.18 3.06 4.7 5.87 5.98 5.87 5.98" class="cls-12"/><path d="M199.29 93.95c.81.02 1.68.03 2.61.03 2.78.03 6.03.03 9.38.35 3.82.37 7.78 1.15 11.31 2.83 3.05 1.46 5.78 3.59 7.85 6.72 1.98 2.99 3.36 6.88 3.82 11.97v.04M170.84 89.89c8.75 5.72 27.08 17.29 33.78 18.21M166.07 86.72s1.85 1.26 4.76 3.17" class="cls-12"/><path d="M164.02 87.82s2.03 2.43 5.37 5.79c8.51 8.54 25.56 23.08 39.32 18.61 0 0 4.15-1.61 5.14-2.84M145.39 103.4s18.64 15.86 39.45 15.61M172.84 111.88s10.21 4.24 22.97 2.68M140.95 111.2s15.89 18.66 25.29 19.68c-4.26 3.06-12.04 8.17-14.09 8.81 1.43.3 3.04.54 4.69.72 5.39.62 11.18.63 12.55.04-1.28-2.04-3.15-9.57-3.15-9.57M169.39 140.45l3.57 2.17M183.94 143.01c5.49-2.68 11.86-5.36 19.14-2.81 6.78-2.3 24.9-5.87 33.59-3.07M136.67 119.01c2.28 3.39 4.54 7.28 6.7 10.78 3.23 5.19 6.24 9.5 8.78 9.9" class="cls-12"/><path d="M143.37 129.79s-1.85 10.34-5.53 12.5M122.28 141.54s12.05-9.09 13.24-19.89M106.58 142.03h.01c5.36-4.65 15.76-12.67 17.48-19.02M94.77 140.45c6.96-5.87 16.4-9.05 20.49-17.8M92.11 114.16c-.91 1.59-2.14 4.28-3.45 7.5a180.426 180.426 0 0 0-4.71 13.05c-1.17 3.73-2.15 7.35-2.69 10.3" class="cls-12"/><path d="M105.23 120.54c-7.59 7.4-16.07 13.02-21.28 14.17M98.42 117.24h0s-6.28 5.94-10.3 5.77M89.41 144.73h.03c.57.09 8.84 1.26 9.83-.16M101.59 145.01s7.53.93 9.85 0M116.76 146h.01c.37.02 10.14.63 11.56-.03M131.93 146.13s5.58 1.26 10.43-1.15M151.72 145.97s7.46.37 10.64-.96h0M168.92 145.52s6.61 1.35 12.17-1.64v-.01M148.67 99.45s15.44-8.18 20.72-5.84M170.83 89.89h.01c.39-.1 8.46-2.08 15.41-3.12 4.33-.65 8.23-.94 9.56-.17M199.29 74.64l2.61 19.34v.01M210.59 74.26l.69 20.07M223.52 78.41l-.91 18.72M234.35 86.46l-3.81 17.35M77.35 73.31s17.26 5.92 20.58 10.99h0M92.11 61.39s3 15.56 6.31 17.18c4.59-6.8 14.4-27.37 18.49-29.09" class="cls-12"/><path d="m103.69 69.05-.51-12.26 3.74.94" class="cls-12"/></g></svg>