<svg xmlns="http://www.w3.org/2000/svg" xml:space="preserve" id="レイヤー_1" x="0" y="0" style="enable-background:new 0 0 269.8 216.4" version="1.1" viewBox="0 0 269.8 216.4"><style>.st0{fill:#f3edd7}.st1{fill:#333}.st3{fill:none;stroke:#000;stroke-miterlimit:10}.st4{fill:#fae588}.st5{fill:#ff4040}.st6{fill:#ae76a7}.st7{fill:#fde2b3}.st8,.st9{fill:none;stroke:#000;stroke-linecap:round;stroke-linejoin:round}.st9{fill:#333;stroke:#333;stroke-miterlimit:10}</style><g id="_畳"><path d="M.2 181.8h3.6v5H.2zM269.5 209.3v6.6h-30.4l15.3-8.6c1 1.6 3.1 2.7 5.5 2.7s4.6-1.2 5.6-2.9l4 2.2z" class="st0"/><path d="M269.5 198.8v10.5l-4-2.2c.4-.6.6-1.4.6-2.1 0-1.3-.6-2.5-1.6-3.4l5-2.8z" class="st0"/><path d="M269.5 186.8v12l-5 2.8c-1.1-1-2.8-1.6-4.6-1.6s-3.3.6-4.4 1.5l-26-14.6h40v-.1zM269.5 97.6v5.8H.2v-5.8zM265.5 181.8h4v5h-4z" class="st0"/><path d="M266.1 205c0 .8-.2 1.5-.6 2.1l-5.4-3 4.4-2.5c1 .9 1.6 2.1 1.6 3.4z" class="st0"/><path d="m260.1 204.1 5.4 3c-1 1.7-3.1 2.9-5.6 2.9s-4.5-1.1-5.5-2.7l5.7-3.2z" class="st0"/><path d="M254.2 181.8h11.3v5h-11.3z" class="st1"/><path d="m264.5 201.6-4.4 2.5-4.6-2.6c1.1-.9 2.7-1.5 4.4-1.5 1.9 0 3.5.6 4.6 1.6z" class="st0"/><path d="m260.1 204.1-5.7 3.2c-.4-.7-.7-1.5-.7-2.3 0-1.4.7-2.6 1.8-3.5l4.6 2.6z" class="st0"/><path d="m229.5 186.8 26 14.6c-1.1.9-1.8 2.1-1.8 3.5 0 .8.2 1.6.7 2.3l-15.3 8.6h-41.4l-15.6-8.8c.4-.6.6-1.4.6-2.1 0-1.3-.6-2.5-1.6-3.4l26.3-14.8 22.1.1zm-6 18.2c0-2.8-2.2-5-5-5s-5 2.2-5 5 2.2 5 5 5 5-2.2 5-5z" class="st0"/><path d="M254.2 186.8h-30.4v-5h30.4z" class="st0"/><path d="M212.5 181.8h11.3v5h-11.3zM218.5 200c2.8 0 5 2.2 5 5s-2.2 5-5 5-5-2.2-5-5 2.3-5 5-5z" class="st1"/><path d="m207.4 186.8-26.3 14.8c-1.1-1-2.8-1.6-4.6-1.6s-3.3.6-4.4 1.5l-26-14.6h61.3v-.1zM182.1 186.8v-5h30.4v5h-5.1zM197.8 215.9h-42l15.3-8.6c1 1.6 3.1 2.7 5.5 2.7s4.6-1.2 5.6-2.9l15.6 8.8z" class="st0"/><path d="M182.7 205c0 .8-.2 1.5-.6 2.1l-5.4-3 4.4-2.5c1 .9 1.6 2.1 1.6 3.4z" class="st0"/><path d="m176.7 204.1 5.4 3c-1 1.7-3.1 2.9-5.6 2.9s-4.5-1.1-5.5-2.7l5.7-3.2z" class="st0"/><path d="M170.8 181.8h11.3v5h-11.3z" class="st1"/><path d="M176.5 200c1.8 0 3.4.6 4.6 1.6l-4.4 2.5-4.6-2.6c1.1-.9 2.7-1.5 4.4-1.5z" class="st0"/><path d="m176.7 204.1-5.7 3.2c-.4-.7-.7-1.5-.7-2.3 0-1.4.7-2.6 1.8-3.5l4.6 2.6z" class="st0"/><path d="m146.1 186.8 26 14.6c-1.1.9-1.8 2.1-1.8 3.5 0 .8.2 1.6.7 2.3l-15.3 8.6h-41.4L98.7 207c.4-.6.6-1.4.6-2.1 0-1.3-.6-2.5-1.6-3.4l26.3-14.8 22.1.1zm-7 18.2c0-2.8-2.2-5-5-5s-5 2.2-5 5 2.2 5 5 5 5-2.2 5-5z" class="st0"/><path d="M170.8 186.8h-30.5v-5h30.5z" class="st0"/><path d="M129.1 181.8h11.3v5h-11.3zM134.1 200c2.8 0 5 2.2 5 5s-2.2 5-5 5-5-2.2-5-5 2.2-5 5-5z" class="st1"/><path d="m124 186.8-26.3 14.8c-1.1-1-2.8-1.6-4.6-1.6s-3.3.6-4.4 1.5l-26-14.6H124zM129.1 186.8H98.6v-5h30.5zM114.3 215.9h-42l15.3-8.6c1 1.6 3.1 2.7 5.5 2.7s4.6-1.2 5.6-2.9l15.6 8.8z" class="st0"/><path d="M99.3 205c0 .8-.2 1.5-.6 2.1l-5.4-3 4.4-2.5c1 .9 1.6 2.1 1.6 3.4z" class="st0"/><path d="m93.3 204.1 5.4 3c-1 1.7-3.1 2.9-5.6 2.9s-4.5-1.1-5.5-2.7l5.7-3.2z" class="st0"/><path d="M87.3 181.8h11.3v5H87.3z" class="st1"/><path d="M93.1 200c1.8 0 3.4.6 4.6 1.6l-4.4 2.5-4.6-2.6c1.1-.9 2.7-1.5 4.4-1.5z" class="st0"/><path d="m93.3 204.1-5.7 3.2c-.4-.7-.7-1.5-.7-2.3 0-1.4.7-2.6 1.8-3.5l4.6 2.6z" class="st0"/><path d="m62.7 186.8 26 14.6c-1.1.9-1.8 2.1-1.8 3.5 0 .8.2 1.6.7 2.3l-15.3 8.6H30.7L15.1 207c.4-.6.6-1.4.6-2.1 0-1.3-.6-2.5-1.6-3.4l26.3-14.8 22.3.1zM54.1 205c0-2.8-2.2-5-5-5s-5 2.2-5 5 2.2 5 5 5 5-2.2 5-5z" class="st0"/><path d="M87.3 186.8H56.9v-5h30.4z" class="st0"/><path d="M45.6 181.8h11.3v5H45.6zM49.1 200c2.8 0 5 2.2 5 5s-2.2 5-5 5-5-2.2-5-5 2.2-5 5-5z" class="st1"/><path d="M45.6 186.8H15.1v-5h30.5zM30.7 215.9H.2v-6.5l3.8-2.1c1 1.6 3.1 2.7 5.5 2.7s4.6-1.2 5.6-2.9l15.6 8.8zM15.7 205c0 .8-.2 1.5-.6 2.1l-5.4-3 4.4-2.5c1 .9 1.6 2.1 1.6 3.4z" class="st0"/><path d="M3.9 181.8h11.3v5H3.9z" class="st1"/><path d="m9.7 204.1 5.4 3c-1 1.7-3.1 2.9-5.6 2.9S5 208.9 4 207.3l5.7-3.2zM9.5 200c1.8 0 3.4.6 4.6 1.6l-4.4 2.5-4.6-2.6c1.1-.9 2.7-1.5 4.4-1.5z" class="st0"/><path d="M9.7 204.1 4 207.3c-.4-.7-.7-1.5-.7-2.3 0-1.4.7-2.6 1.8-3.5l4.6 2.6zM.2 198.8l4.8 2.7c-1.1.9-1.8 2.1-1.8 3.5 0 .8.2 1.6.7 2.3l-3.8 2.1.1-10.6z" class="st0"/><path d="M212.5 181.8H.2v-78.4H269.5v78.4h-45.7z" style="fill:#d2d296"/><path d="M.2 186.8h40.1L14 201.6c-1.1-1-2.8-1.6-4.6-1.6s-3.3.6-4.4 1.5l-4.8-2.7v-12z" class="st0"/><path d="M269.5 215.9H.2M.2 97.6h269.3M.2 103.4h269.3M265.5 181.8h4M223.8 181.8h30.4M182.1 181.8h30.4M140.3 181.8h30.5M98.6 181.8h30.5M56.9 181.8h30.4M15.1 181.8h30.5M.2 181.8h3.7M265.5 186.8h4M223.8 186.8h30.4M182.1 186.8h30.4M140.3 186.8h30.5M98.6 186.8h30.5M56.9 186.8H87.3M15.1 186.8h30.5M.2 186.8h3.7M72.3 215.9l15.3-8.6 5.7-3.2 4.4-2.5 26.3-14.8" class="st3"/><path d="m114.3 215.9-15.6-8.8-5.4-3-4.6-2.6-26-14.7M139.1 205c0 2.8-2.2 5-5 5s-5-2.2-5-5 2.2-5 5-5 5 2.2 5 5zM223.5 205c0 2.8-2.2 5-5 5s-5-2.2-5-5 2.2-5 5-5 5 2.2 5 5z" class="st3"/><path d="M97.7 201.6c1 .9 1.6 2.1 1.6 3.4 0 .8-.2 1.5-.6 2.1-1 1.7-3.1 2.9-5.6 2.9s-4.5-1.1-5.5-2.7c-.4-.7-.7-1.5-.7-2.3 0-1.4.7-2.6 1.8-3.5 1.1-.9 2.7-1.5 4.4-1.5 1.8 0 3.5.6 4.6 1.6zM.2 209.4l3.8-2.1 5.7-3.2 4.4-2.5 26.3-14.8" class="st3"/><path d="m30.7 215.9-15.6-8.8-5.4-3-4.6-2.6-4.9-2.7" class="st3"/><path d="M14.1 201.6c1 .9 1.6 2.1 1.6 3.4 0 .8-.2 1.5-.6 2.1-1 1.7-3.1 2.9-5.6 2.9S5 208.9 4 207.3c-.4-.7-.7-1.5-.7-2.3 0-1.4.7-2.6 1.8-3.5 1.1-.9 2.7-1.5 4.4-1.5 1.8 0 3.4.6 4.6 1.6zM155.7 215.9l15.3-8.6 5.7-3.2 4.4-2.5 26.3-14.8" class="st3"/><path d="m197.8 215.9-15.7-8.8-5.4-3-4.6-2.6-26-14.7" class="st3"/><path d="M181.1 201.6c1 .9 1.6 2.1 1.6 3.4 0 .8-.2 1.5-.6 2.1-1 1.7-3.1 2.9-5.6 2.9s-4.5-1.1-5.5-2.7c-.4-.7-.7-1.5-.7-2.3 0-1.4.7-2.6 1.8-3.5 1.1-.9 2.7-1.5 4.4-1.5 1.9 0 3.5.6 4.6 1.6zM239.1 215.9l15.3-8.6 5.7-3.2 4.4-2.5 5-2.8" class="st3"/><path d="m269.5 209.3-4-2.2-5.4-3-4.6-2.6-26-14.7" class="st3"/><path d="M264.5 201.6c1 .9 1.6 2.1 1.6 3.4 0 .8-.2 1.5-.6 2.1-1 1.7-3.1 2.9-5.6 2.9s-4.5-1.1-5.5-2.7c-.4-.7-.7-1.5-.7-2.3 0-1.4.7-2.6 1.8-3.5 1.1-.9 2.7-1.5 4.4-1.5 1.9 0 3.5.6 4.6 1.6zM54.1 205c0 2.8-2.2 5-5 5s-5-2.2-5-5 2.2-5 5-5 5 2.2 5 5zM3.9 181.8h11.3v5H3.9zM45.6 181.8h11.3v5H45.6zM87.3 181.8h11.3v5H87.3zM129.1 181.8h11.3v5h-11.3zM170.8 181.8h11.3v5h-11.3zM212.5 181.8h11.3v5h-11.3zM254.2 181.8h11.3v5h-11.3z" class="st3"/></g><g id="_レイヤー_2"><path d="M213.9 114.1v-4.2c7.9.8 21.4 4.7 25.8 12.1 4.3 7.4 9.8 14.8 9.8 14.8-5.7-1.2-27.6-1.2-42.2 1.6-3.8.8-7.2 1.7-9.6 2.9l-8.3-2.6v-12.4c-4.3.4-25.2-13.3-25.2-13.3.5-4.2.7-8.5.5-13.6h.1c3.1.3 6.2-.2 9.2-1.2 0 0 15.8 12.2 24.3 13.8 5.3.8 11.2 1.3 15.6 2.1z" class="st4"/><path d="M249.5 136.9c-2 1.3-4.1 2.3-6.5 3.2-22.2 4.5-35.7-1.6-35.7-1.6 14.7-2.9 36.6-2.9 42.2-1.6z" class="st5"/><path d="M207.3 138.5s13.6 6.1 35.7 1.6c-11.1 4.2-25.6 4.4-35.7 3.2-4.1-.5-7.4-1.2-9.6-2 2.4-1.1 5.8-2.1 9.6-2.8z" class="st5"/><path d="M173.9 98.1c-3 1-6.1 1.5-9.2 1.2h-.1c0-1.1-.1-2.3-.2-3.5-.9-13.4-13.9-30.7-21.1-36.3.9-.7 1.8-1.7 2.5-2.9.2.2 3.1 2.9 5.2 3.1 2.2.1 22.3-1.4 24.9 0 2.6 1.4 25.1 24.5 29.4 33.1 4.2 8.6 8.6 17.1 8.6 17.1v4.2c-4.5-.8-10.4-1.3-15.6-2.3-8.5-1.5-24.4-13.7-24.4-13.7z" class="st4"/><path d="M207.3 143.3c-2.3 3.3-5.2 6.1-9.1 7.6.1-.6.1-1.1.1-1.7.1-2.4-.1-5-.5-7.8 2.1.7 5.5 1.4 9.5 1.9z" class="st6"/><path d="M197.7 141.3c.4 2.8.6 5.4.5 7.8 0 .6 0 1.2-.1 1.7-.4 5.7-2.2 10.4-5.1 14.4l-26-5c-2.6.3-7.4-2.6-11.7-5.7-4.6-3.3-8.6-6.7-8.6-6.7 5.9-4 17.9-14.5 17.9-14.5 2.3 2.4 4.9 5 5.3 5.4h19.4l8.4 2.6z" class="st4"/><path d="M189.4 126.3v12.4H170c7.7-5.4 19.4-12.4 19.4-12.4z" class="st5"/><path d="M164.2 113s20.9 13.8 25.2 13.3c0 0-11.8 7-19.4 12.4-.4-.4-3-3-5.3-5.4-2-2.1-3.8-3.9-3.8-3.9 1.5-6.2 2.6-11.3 3.3-16.4z" class="st4"/><path d="M155.3 154.5c4.3 3.1 9.1 6 11.7 5.7-6.8 5.4-17.2 3.9-25.7 3.1 3.8-1.8 14-8.8 14-8.8z" class="st6"/><path d="M164.6 99.3c.2 5.1 0 9.4-.5 13.6-.6 5.2-1.7 10.2-3.3 16.4-5.3 3.9-10.7 5.4-15 6 2.7-6.6 6.6-33.7 5.2-44.4-1.4-10.7-8.9-18-16-25.2 3.3-2.3 3.6-4.5 3.6-4.7 1.2 0 2.4-.2 3.4-.6.5-.2.9-.5 1.4-.8 7.2 5.6 20.2 22.8 21.1 36.3 0 1.1.1 2.3.1 3.4z" class="st4"/><path d="M28.7 143.9c2.1-3.7 4.4-7.6 6.5-10.8 2-3 4.7-6 7.5-8.5 0 0 8.2 7.1 14.3 6.4s41.1-11.1 43.3-12.1l1-.5c2.6-1.2 8.1-3.6 12.7-2.8.8.1 1.5.3 2.2.7.6.3 1.2.6 1.7 1.1 1.2 1 2.2 1.9 3.1 3 2.4 2.9 3.1 6.8-.1 14.9l1.1.1s15.1-3.7 17.2-6.6l-1.4 6.6s3.3.6 8 0c4.3-.5 9.7-2.1 15-6 0 0 1.8 1.9 3.8 3.9 0 0-12 10.5-17.9 14.5l-.9.6-30.3 18.6-9.5 3.2s-1.4-.5-5.5-3.1c-4.4-2.6-8.8-14.5-9-14.9 1.6-.5 3.2-1 4.7-1.4l14.9-1.2-10.9-6.2-8.7-5-1.7 11.1c-9 3-22 6.2-27.8 6.1-8.7-.2-30 .3-40.9 1.7.1.1 3.5-6.3 7.6-13.4z" class="st4"/><path d="M145.9 56.7c-.8 1.2-1.6 2.2-2.5 2.9-.4.3-.9.6-1.4.8-.9.4-2.1.6-3.4.6-1.2 0-2.4-.1-3.5-.3v.3c-3.5 1.8-4.9 1.8-9.4 2.3-4.6.5-7.8-4.2-11.8-10.4l.3-2.2c1.7 0 7.5-4.5 9.3-5.5-1.5.4-2.2-.9-2.8-2.9-.5-2 1-6.1 2.3-6 2 .2 3 2.2 3.7 4.7.3-.3 5.9-11 7.9-17.3 2.5 2.8 12.1 3.4 15.7 2.5 1.6 4.1 2.2 9.3 1.9 13.7l-1-.1-2.8-.2-1.8.1c.1.8.7 7.4.6 9.1l2.4.1c-1 2.7-2.2 5.6-3.7 7.8zm1.8-23.9 3.4.8-3.4-2.2v1.4zm-2.8 21c.1 0 .1-.1.2-.2-1.2-1.7-4.9 0-4.9 0s1 2 1.5 2.5 2.8-1.3 3.2-2.3zm-9.8-22 7.1.6s-.3-1.9-1-2.1c-3.1.8-6.1 1.5-6.1 1.5z" class="st7"/><path d="m151.1 39.9 1 .1c-.1 2.1-.5 4.1-1.1 5.6-.4 1-.9 2.2-1.4 3.5l-2.4-.1c.1-1.7-.6-8.4-.6-9.1l1.8-.1 2.7.1z" class="st7"/><path d="m55.2 115.3-1.1-2.3-4.2-8.7s35.2-42.9 35.4-43.2c.2-.2 14.1-4.1 22.4-6.4 0 0 2.1 6.4 7.7 10.1 5.6 3.8 12.7 6.3 19.7 1 7.1 7.1 14.6 14.5 16 25.2 1.4 10.7-2.5 37.8-5.2 44.4-4.7.6-8 0-8 0l1.4-6.6c-2 2.9-17.2 6.6-17.2 6.6l-1.1-.1c3.2-8.2 2.5-12 .1-14.9L141.6 95l-5.4-3.2-18.2 25.5c-.5-.4-1.1-.8-1.7-1.1-.7-.3-1.4-.5-2.2-.7-4.6-.8-10.1 1.6-12.7 2.8l-1 .5c-2.3 1-37.2 11.4-43.3 12.1s-14.3-6.3-14.3-6.3c6-5.5 12.4-9.3 12.4-9.3z" class="st4"/><path d="M155.3 154.5s-10.2 7-14 8.8c-8 4.4-16.5 4.2-25.9 3.7l30.5-18.6.9-.6s3.9 3.4 8.5 6.7z" class="st6"/><path d="M150.2 26.2c-3.6.9-13.2.3-15.7-2.5-2.1 6.2-7.6 17-7.9 17.3-.7-2.5-1.7-4.4-3.7-4.7-1.3-.2-2.8 3.9-2.3 6 .5 2 1.3 3.3 2.8 2.9-1.7 1-7.6 5.5-9.3 5.5 2-3.6 3.6-7.8 3.9-9.1.8-3.8 2.6-7.5 3.6-10.1 1.3-3.2 4.7-13.5 4.7-13.5l-3.4-.1.4-2.5 5.4-.2.5-2.9.2-.4c-.6-.9-1.2-1.6-1.8-2.3-.9-.9-2.1-2.2-3.1-1.3-.2.2-.5.5-.7.9l-1.5-1c.3-.4.7-.8 1-1.2 2.8-2.5 5.9 1.2 8.2 2.8.1 0 .2-.1.4-.1l4.4-8.5s5.8-.9 6.2-.8c.4.1-2.9 12.3-2.9 12.3 3.1 2.1 10.5 12.2 10.6 13.5z" class="st1"/><path d="M145.1 53.7c-.1.1-.1.2-.2.2-1.2 1.2-4.7-.2-4.7-.2s3.7-1.8 4.9 0z" class="st7"/><path d="M140.3 53.7s3.5 1.4 4.7.2c-.4.9-2.7 2.7-3.2 2.3s-1.5-2.6-1.5-2.5z" class="st7"/><path d="m141.6 95-20.5 25.3c-.8-1.1-1.9-2-3.1-3l18.2-25.5 5.4 3.2zM135.1 60.8c1.2.2 2.4.3 3.5.3 0 .2-.2 2.4-3.6 4.7-6.9 5.3-14 2.7-19.7-1-5.6-3.7-7.7-10.1-7.7-10.1 1.5-.4 2.9-.8 3.9-1.1 1.4-.4 2.2-.6 2.2-.6 4 6.2 7.2 10.9 11.8 10.4 4.6-.5 6-.5 9.4-2.3l.2-.3z" class="st4"/><path d="M123.7 9.2c-.1.1-.2.2-.2.3-.8 1.6-1.7 3.2-2.5 4.8-1.7 3.4-3.3 6.8-4.9 10.3-1.8 4.1-3.3 8.2-3.9 12.7-.7 4.4-1 8.9-1.1 13.4l-3.3-.1c.5-7 1.2-13.9 3.5-20.5 1.6-4.3 3.5-8.5 5.4-12.7 1.6-3.2 3.3-6.4 5.6-9.2-.1 0 1.4 1 1.4 1z" class="st1"/><path d="M96.1 150.8c-1.5.4-3 .9-4.7 1.4-5.6 1.7-11.9 3.6-17.7 5.2-3.5 1-6.7 1.9-9.5 2.6-2.7.7-5.5 1.2-8.2 1.5-11.9 1.6-23.8.2-34.9-4.1 10.9-1.4 32.2-1.9 40.9-1.7 5.8.1 18.8-3.2 27.8-6.1 4.5-1.5 7.9-2.9 9-3.7l1.4-2.4 10.9 6.2c-.1-.1-15 1.1-15 1.1z" class="st5"/><path d="m91.4 138.5 8.7 5-1.4 2.4c-1 .9-4.5 2.2-9 3.7l1.7-11.1z" class="st5"/><path d="M91.4 152.2c.2.4 4.5 12.3 9 14.9 0 0-8.3-.1-17.8-.7-3.9-.4-8.6-8.6-8.8-9 5.8-1.6 12.1-3.5 17.6-5.2z" class="st6"/><path d="M82.6 166.5c-10.9-.7-23.5-2.1-26.6-4.9 2.7-.4 5.5-.9 8.2-1.6 2.8-.7 6.1-1.6 9.5-2.5.3.4 5 8.6 8.9 9zM54.1 113l1.1 2.3s-6.4 3.9-12.4 9.3c-2.8 2.6-5.5 5.5-7.5 8.5-2.1 3.3-4.4 7.1-6.5 10.8-1.5-.9-4.3-9.8-1.6-15.9 2.6-6.1 19.7-15.1 26.9-15z" class="st6"/><path d="M150.2 26.2c-.1-1.3-7.5-11.4-10.8-13.4 0 0 3.3-12.2 2.9-12.3-.4-.1-6.2.8-6.2.8l-4.4 8.5c-.1 0-.2 0-.4.1-2.3-1.7-5.3-5.3-8.2-2.8-.3.4-.7.8-1 1.2-2.3 2.8-4 5.9-5.6 9.2-2 4.2-3.8 8.3-5.4 12.7-2.3 6.6-3 13.6-3.5 20.5l3.3.1c.1-4.5.4-9 1.1-13.4.6-4.5 2.2-8.6 3.9-12.7 1.6-3.5 3.2-6.9 4.9-10.3.8-1.6 1.7-3.2 2.5-4.8.1-.1.1-.2.2-.3.2-.3.5-.6.7-.9 1-.9 2.2.3 3.1 1.3.6.7 1.2 1.5 1.8 2.4l-.2.4-.5 2.9-5.4.2-.4 2.5 3.4.1s-3.4 10.3-4.7 13.5c-1 2.5-2.9 6.3-3.6 10.1-.3 1.3-1.9 5.5-3.9 9.1 1.7 0 7.5-4.5 9.3-5.5-1.5.4-2.2-.9-2.8-2.9-.5-2 1-6.1 2.3-6 2 .2 3 2.2 3.7 4.7.3-.3 5.9-11 7.9-17.3 2.8 2.7 12.4 3.2 16 2.3h0z" class="st8"/><path d="M150.2 26.2c1.6 4.1 2.2 9.3 1.9 13.7-.1 2.1-.5 4.1-1.1 5.6-.4 1-.9 2.2-1.4 3.5-1 2.6-2.2 5.4-3.7 7.6-.8 1.2-1.6 2.2-2.5 2.9-.4.3-.9.6-1.4.8-.9.4-2.1.6-3.4.6-1.2 0-2.4-.1-3.5-.3-3.3-.5-6.2-1.5-6.2-1.5" class="st8"/><path d="m135.1 31.8 7.1.6s-.3-1.9-1-2.1c-3.1.8-6.1 1.5-6.1 1.5h0zM147.7 31.4v1.4l3.4.8z" class="st9"/><path d="M146.5 39.8s0 0 0 0c.1.8.7 7.5.6 9.2 0 .2 0 .4-.1.4-.3.4-1.5.4-2.5 0M143.3 47.8l-1.7 1.9M135.1 39.1l5.5-.3M148.3 39.8l2.8.1M144.9 53.9c-1.2 1.2-4.7-.2-4.7-.2s3.6-1.7 4.9 0l-.2.2" class="st8"/><path d="M140.3 53.7s1 2 1.5 2.5 2.8-1.4 3.2-2.3h0M243.1 140.1c2.3-.9 4.5-1.9 6.5-3.2" class="st8"/><path d="M145.9 56.7h0c.2.2 3.1 3 5.2 3.1 2.2.1 22.3-1.4 24.9 0 2.6 1.4 25.1 24.5 29.4 33.1 4.2 8.6 8.6 17.1 8.6 17.1 7.9.8 21.4 4.7 25.8 12.1 4.3 7.4 9.8 14.8 9.8 14.8-5.7-1.2-27.6-1.2-42.2 1.6-3.8.8-7.2 1.7-9.6 2.9 2.2.8 5.5 1.5 9.6 2 10.1 1.2 24.6 1 35.7-3.2" class="st8"/><path d="M207.3 138.5s13.6 6.1 35.7 1.6h0M54.1 113l-4.2-8.7s35.2-42.9 35.4-43.2c.2-.2 14.1-4.1 22.4-6.4 1.5-.4 2.9-.8 3.9-1.1 1.4-.4 2.2-.6 2.2-.6 4 6.2 7.2 10.9 11.8 10.4 4.6-.5 6-.5 9.5-2.3M60.5 126.3l-5.3-11-1.1-2.3M96.1 150.8c5.9-1.8 10.2-3.1 10.6-3.1M73.8 157.4c5.8-1.6 12.1-3.5 17.7-5.2 1.6-.5 3.2-1 4.7-1.4M55.2 115.3s-6.4 3.9-12.4 9.3c-2.8 2.6-5.5 5.5-7.5 8.5-2.1 3.3-4.4 7.1-6.5 10.8-4.1 7.1-7.6 13.5-7.6 13.5 11.1 4.3 23 5.7 34.9 4.1 2.7-.4 5.5-.9 8.2-1.5 2.8-.7 6.1-1.6 9.5-2.5" class="st8"/><path d="M21.1 157.4c10.9-1.4 32.2-1.9 40.9-1.7 5.8.1 18.8-3.2 27.8-6.1 4.5-1.5 7.9-2.9 9-3.7" class="st8"/><path d="m89.8 149.6 1.6-11.1 8.8 4.9 10.8 6.2-14.9 1.2h0M91.4 138.5c9.4-3.1 22.3-10.8 24-15.1M207.3 143.3c-2.3 3.3-5.2 6.1-9.1 7.6" class="st8"/><path d="M42.8 124.6s8.2 7.1 14.3 6.4 41.1-11.1 43.3-12.1l1-.5c2.6-1.2 8.1-3.6 12.7-2.8.8.1 1.5.3 2.2.7.6.3 1.2.6 1.7 1.1 1.2 1 2.2 1.9 3.1 3 2.4 2.9 3.1 6.8-.1 14.9-.9 2.3-2.1 5-3.7 8.1 3.1.7 16.5-4.6 16.5-4.6" class="st8"/><path d="M122.1 135.3s15.1-3.7 17.2-6.6l-1.4 6.6s3.3.6 8 0c4.3-.5 9.7-2.1 15-6 1.5-6.2 2.6-11.2 3.3-16.4.5-4.2.7-8.5.5-13.6 0-1.1-.1-2.3-.2-3.5-.9-13.4-13.9-30.7-21.1-36.3M107.7 54.6s2.1 6.4 7.7 10.1c5.6 3.8 12.7 6.3 19.7 1 3.3-2.3 3.6-4.5 3.6-4.7h0" class="st8"/><path d="M135.1 65.7c7.1 7.1 14.6 14.5 16 25.2 1.4 10.7-2.5 37.8-5.2 44.4" class="st8"/><path d="m118 117.3 18.2-25.5 5.4 3.2-20.5 25.3M106.8 65.7s9.7 16.5 9.5 22.3c-.2 5.8 0 28.2 0 28.2M114.1 115.5s-1.5-12.7-7.3-18c-5.8-5.3-23.8-20-23.8-20l11-7.2s2.9 12.1 4.5 14.8M64 107.6s.6 7.7 12.2 8.6c11.6.9 22.9-.9 25.3 2.1M164.7 92.9c4.3-7.4 8.4-12 8.6-18.1 3.8 4.6 6.6 9.1 6.6 9.1l-7.6 3.4M191.7 86.6s-8 8.2-17.8 11.5c-3 1-6.1 1.5-9.2 1.2M173.9 98.1s15.8 12.2 24.3 13.8c5.3 1 11.2 1.4 15.6 2.3 2.7.5 4.9 1.1 6.1 2.1M213.9 109.9v5.4M160.9 129.4s1.8 1.9 3.8 3.9c2.3 2.4 4.9 5 5.3 5.4 7.6-5.4 19.4-12.4 19.4-12.4-4.3.4-25.2-13.3-25.2-13.3" class="st8"/><path d="M189.4 126.3v12.4H170M189.4 138.7l8.3 2.6c.4 2.8.6 5.4.5 7.8 0 .6 0 1.2-.1 1.7-.4 5.7-2.2 10.4-5.1 14.4l-26-5c-6.8 5.4-17.2 3.9-25.7 3.1-8 4.4-16.5 4.2-25.9 3.7l-9.5 3.2s-1.4-.5-5.5-3.1c0 0-8.3-.1-17.8-.7-10.9-.7-23.5-2.1-26.6-4.9" class="st8"/><path d="m115.4 167 30.5-18.6.9-.6c5.9-4 17.9-14.5 17.9-14.5M146.8 147.8s4 3.4 8.6 6.7c4.3 3.1 9.1 6 11.7 5.7M155.3 154.5s-10.2 7-14 8.8M91.4 152.2h0c.2.4 4.5 12.4 9 14.9M73.8 157.4h0c.2.4 4.9 8.7 8.8 9h.1" class="st8"/><path d="M54.1 113c-7.2-.1-24.2 9-26.9 15.1-2.7 6.1 0 15 1.6 15.9" class="st3"/><path d="M54.1 113h0" class="st8"/><path d="m114.1 50.7-.3 2.2" class="st3"/></g></svg>