<?xml version="1.0" encoding="utf-8"?>
<!-- Generator: Adobe Illustrator 27.9.0, SVG Export Plug-In . SVG Version: 6.00 Build 0)  -->
<svg version="1.1" id="レイヤー_1" xmlns="http://www.w3.org/2000/svg" xmlns:xlink="http://www.w3.org/1999/xlink" x="0px"
	 y="0px" viewBox="0 0 269.8 216.4" style="enable-background:new 0 0 269.8 216.4;" xml:space="preserve">
<style type="text/css">
	.st0{fill:#F3EDD7;}
	.st1{fill:#333333;}
	.st2{fill:#D2D296;}
	.st3{fill:none;stroke:#000000;stroke-miterlimit:10;}
	.st4{fill:#FAE588;}
	.st5{fill:#FF4040;}
	.st6{fill:#AE76A7;}
	.st7{fill:#FDE2B3;}
	.st8{fill:none;stroke:#000000;stroke-linecap:round;stroke-linejoin:round;}
	.st9{fill:#333333;stroke:#333333;stroke-linecap:round;stroke-linejoin:round;stroke-miterlimit:10;}
</style>
<g id="_畳">
	<g>
		<g>
			<rect x="0.2" y="181.8" class="st0" width="3.6" height="5"/>
			<path class="st0" d="M269.5,209.3v6.6h-30.4l15.3-8.6c1,1.6,3.1,2.7,5.5,2.7s4.6-1.2,5.6-2.9L269.5,209.3L269.5,209.3z"/>
			<path class="st0" d="M269.5,198.8v10.5l-4-2.2c0.4-0.6,0.6-1.4,0.6-2.1c0-1.3-0.6-2.5-1.6-3.4L269.5,198.8L269.5,198.8z"/>
			<path class="st0" d="M269.5,186.8v12l-5,2.8c-1.1-1-2.8-1.6-4.6-1.6s-3.3,0.6-4.4,1.5l-26-14.6H269.5L269.5,186.8z"/>
			<polygon class="st0" points="269.5,97.6 269.5,103.4 1.1,103.4 0.2,103.4 0.2,97.6 			"/>
			<rect x="265.5" y="181.8" class="st0" width="4" height="5"/>
			<path class="st0" d="M266.1,205c0,0.8-0.2,1.5-0.6,2.1l-5.4-3l4.4-2.5C265.5,202.5,266.1,203.7,266.1,205L266.1,205z"/>
			<path class="st0" d="M260.1,204.1l5.4,3c-1,1.7-3.1,2.9-5.6,2.9s-4.5-1.1-5.5-2.7L260.1,204.1L260.1,204.1z"/>
			<rect x="254.2" y="181.8" class="st1" width="11.3" height="5"/>
			<path class="st0" d="M264.5,201.6l-4.4,2.5l-4.6-2.6c1.1-0.9,2.7-1.5,4.4-1.5C261.8,200,263.4,200.6,264.5,201.6L264.5,201.6z"/>
			<path class="st0" d="M260.1,204.1l-5.7,3.2c-0.4-0.7-0.7-1.5-0.7-2.3c0-1.4,0.7-2.6,1.8-3.5L260.1,204.1L260.1,204.1z"/>
			<path class="st0" d="M229.5,186.8l26,14.6c-1.1,0.9-1.8,2.1-1.8,3.5c0,0.8,0.2,1.6,0.7,2.3l-15.3,8.6h-41.4l-15.6-8.8
				c0.4-0.6,0.6-1.4,0.6-2.1c0-1.3-0.6-2.5-1.6-3.4l26.3-14.8L229.5,186.8L229.5,186.8z M223.5,205c0-2.8-2.2-5-5-5s-5,2.2-5,5
				s2.2,5,5,5S223.5,207.8,223.5,205z"/>
			<polygon class="st0" points="254.2,186.8 229.5,186.8 223.8,186.8 223.8,181.8 254.2,181.8 			"/>
			<rect x="212.5" y="181.8" class="st1" width="11.3" height="5"/>
			<path class="st1" d="M218.5,200c2.8,0,5,2.2,5,5s-2.2,5-5,5s-5-2.2-5-5S215.8,200,218.5,200z"/>
			<path class="st0" d="M207.4,186.8l-26.3,14.8c-1.1-1-2.8-1.6-4.6-1.6s-3.3,0.6-4.4,1.5l-26-14.6H207.4L207.4,186.8z"/>
			<polygon class="st0" points="182.1,186.8 182.1,181.8 212.5,181.8 212.5,186.8 207.4,186.8 			"/>
			<path class="st0" d="M197.8,215.9h-42l15.3-8.6c1,1.6,3.1,2.7,5.5,2.7s4.6-1.2,5.6-2.9L197.8,215.9L197.8,215.9z"/>
			<path class="st0" d="M182.7,205c0,0.8-0.2,1.5-0.6,2.1l-5.4-3l4.4-2.5C182.1,202.5,182.7,203.7,182.7,205L182.7,205z"/>
			<path class="st0" d="M176.7,204.1l5.4,3c-1,1.7-3.1,2.9-5.6,2.9s-4.5-1.1-5.5-2.7L176.7,204.1L176.7,204.1z"/>
			<rect x="170.8" y="181.8" class="st1" width="11.3" height="5"/>
			<path class="st0" d="M176.5,200c1.8,0,3.4,0.6,4.6,1.6l-4.4,2.5l-4.6-2.6C173.2,200.6,174.8,200,176.5,200L176.5,200z"/>
			<path class="st0" d="M176.7,204.1l-5.7,3.2c-0.4-0.7-0.7-1.5-0.7-2.3c0-1.4,0.7-2.6,1.8-3.5L176.7,204.1L176.7,204.1z"/>
			<path class="st0" d="M146.1,186.8l26,14.6c-1.1,0.9-1.8,2.1-1.8,3.5c0,0.8,0.2,1.6,0.7,2.3l-15.3,8.6h-41.4l-15.6-8.8
				c0.4-0.6,0.6-1.4,0.6-2.1c0-1.3-0.6-2.5-1.6-3.4l26.3-14.8L146.1,186.8L146.1,186.8z M139.1,205c0-2.8-2.2-5-5-5s-5,2.2-5,5
				s2.2,5,5,5S139.1,207.8,139.1,205z"/>
			<polygon class="st0" points="170.8,186.8 146.1,186.8 140.3,186.8 140.3,181.8 170.8,181.8 			"/>
			<rect x="129.1" y="181.8" class="st1" width="11.3" height="5"/>
			<path class="st1" d="M134.1,200c2.8,0,5,2.2,5,5s-2.2,5-5,5s-5-2.2-5-5S131.3,200,134.1,200z"/>
			<path class="st0" d="M124,186.8l-26.3,14.8c-1.1-1-2.8-1.6-4.6-1.6s-3.3,0.6-4.4,1.5l-26-14.6H124z"/>
			<polygon class="st0" points="129.1,186.8 124,186.8 98.6,186.8 98.6,181.8 129.1,181.8 			"/>
			<path class="st0" d="M114.3,215.9h-42l15.3-8.6c1,1.6,3.1,2.7,5.5,2.7s4.6-1.2,5.6-2.9L114.3,215.9L114.3,215.9z"/>
			<path class="st0" d="M99.3,205c0,0.8-0.2,1.5-0.6,2.1l-5.4-3l4.4-2.5C98.7,202.5,99.3,203.7,99.3,205L99.3,205z"/>
			<path class="st0" d="M93.3,204.1l5.4,3c-1,1.7-3.1,2.9-5.6,2.9s-4.5-1.1-5.5-2.7L93.3,204.1L93.3,204.1z"/>
			<rect x="87.3" y="181.8" class="st1" width="11.3" height="5"/>
			<path class="st0" d="M93.1,200c1.8,0,3.4,0.6,4.6,1.6l-4.4,2.5l-4.6-2.6C89.8,200.6,91.4,200,93.1,200z"/>
			<path class="st0" d="M93.3,204.1l-5.7,3.2c-0.4-0.7-0.7-1.5-0.7-2.3c0-1.4,0.7-2.6,1.8-3.5L93.3,204.1L93.3,204.1z"/>
			<path class="st0" d="M62.7,186.8l26,14.6c-1.1,0.9-1.8,2.1-1.8,3.5c0,0.8,0.2,1.6,0.7,2.3l-15.3,8.6H30.7l-15.6-8.8
				c0.4-0.6,0.6-1.4,0.6-2.1c0-1.3-0.6-2.5-1.6-3.4l26.3-14.8L62.7,186.8L62.7,186.8z M54.1,205c0-2.8-2.2-5-5-5s-5,2.2-5,5
				s2.2,5,5,5S54.1,207.8,54.1,205z"/>
			<polygon class="st0" points="87.3,186.8 62.7,186.8 56.9,186.8 56.9,181.8 87.3,181.8 			"/>
			<rect x="45.6" y="181.8" class="st1" width="11.3" height="5"/>
			<path class="st1" d="M49.1,200c2.8,0,5,2.2,5,5s-2.2,5-5,5s-5-2.2-5-5S46.3,200,49.1,200z"/>
			<polygon class="st0" points="45.6,186.8 40.4,186.8 15.1,186.8 15.1,181.8 45.6,181.8 			"/>
			<path class="st0" d="M30.7,215.9H0.2v-6.5l3.8-2.1c1,1.6,3.1,2.7,5.5,2.7s4.6-1.2,5.6-2.9L30.7,215.9L30.7,215.9z"/>
			<path class="st0" d="M15.7,205c0,0.8-0.2,1.5-0.6,2.1l-5.4-3l4.4-2.5C15.1,202.5,15.7,203.7,15.7,205L15.7,205z"/>
			<rect x="3.9" y="181.8" class="st1" width="11.3" height="5"/>
			<path class="st0" d="M9.7,204.1l5.4,3c-1,1.7-3.1,2.9-5.6,2.9S5,208.9,4,207.3L9.7,204.1L9.7,204.1z"/>
			<path class="st0" d="M9.5,200c1.8,0,3.4,0.6,4.6,1.6l-4.4,2.5l-4.6-2.6C6.2,200.6,7.8,200,9.5,200z"/>
			<path class="st0" d="M9.7,204.1L4,207.3c-0.4-0.7-0.7-1.5-0.7-2.3c0-1.4,0.7-2.6,1.8-3.5L9.7,204.1L9.7,204.1z"/>
			<path class="st0" d="M0.2,198.8l4.8,2.7c-1.1,0.9-1.8,2.1-1.8,3.5c0,0.8,0.2,1.6,0.7,2.3l-3.8,2.1L0.2,198.8L0.2,198.8z"/>
			<polygon class="st2" points="212.5,181.8 182.1,181.8 170.8,181.8 140.3,181.8 129.1,181.8 98.6,181.8 87.3,181.8 56.9,181.8 
				45.6,181.8 15.1,181.8 3.9,181.8 0.2,181.8 0.2,103.4 1.1,103.4 269.5,103.4 269.5,181.8 265.5,181.8 254.2,181.8 223.8,181.8 
							"/>
			<path class="st0" d="M0.2,186.8h40.1l-26.3,14.8c-1.1-1-2.8-1.6-4.6-1.6s-3.3,0.6-4.4,1.5l-4.8-2.7L0.2,186.8L0.2,186.8z"/>
		</g>
		<g>
			<polyline class="st3" points="269.5,215.9 239.1,215.9 197.8,215.9 155.7,215.9 114.3,215.9 72.3,215.9 30.7,215.9 0.2,215.9 			
				"/>
			<line class="st3" x1="0.2" y1="97.6" x2="269.5" y2="97.6"/>
			<line class="st3" x1="0.2" y1="103.4" x2="269.5" y2="103.4"/>
			<line class="st3" x1="265.5" y1="181.8" x2="269.5" y2="181.8"/>
			<line class="st3" x1="223.8" y1="181.8" x2="254.2" y2="181.8"/>
			<line class="st3" x1="182.1" y1="181.8" x2="212.5" y2="181.8"/>
			<line class="st3" x1="140.3" y1="181.8" x2="170.8" y2="181.8"/>
			<line class="st3" x1="98.6" y1="181.8" x2="129.1" y2="181.8"/>
			<line class="st3" x1="56.9" y1="181.8" x2="87.3" y2="181.8"/>
			<line class="st3" x1="15.1" y1="181.8" x2="45.6" y2="181.8"/>
			<line class="st3" x1="0.2" y1="181.8" x2="3.9" y2="181.8"/>
			<line class="st3" x1="265.5" y1="186.8" x2="269.5" y2="186.8"/>
			<polyline class="st3" points="223.8,186.8 229.5,186.8 254.2,186.8 			"/>
			<polyline class="st3" points="182.1,186.8 207.4,186.8 212.5,186.8 			"/>
			<polyline class="st3" points="140.3,186.8 146.1,186.8 170.8,186.8 			"/>
			<polyline class="st3" points="98.6,186.8 124,186.8 129.1,186.8 			"/>
			<polyline class="st3" points="56.9,186.8 62.7,186.8 87.3,186.8 			"/>
			<polyline class="st3" points="15.1,186.8 40.4,186.8 45.6,186.8 			"/>
			<line class="st3" x1="0.2" y1="186.8" x2="3.9" y2="186.8"/>
			<polyline class="st3" points="72.3,215.9 87.6,207.3 93.3,204.1 97.7,201.6 124,186.8 			"/>
			<polyline class="st3" points="114.3,215.9 98.7,207.1 93.3,204.1 88.7,201.5 62.7,186.8 			"/>
			<path class="st3" d="M139.1,205c0,2.8-2.2,5-5,5s-5-2.2-5-5s2.2-5,5-5S139.1,202.2,139.1,205z"/>
			<path class="st3" d="M223.5,205c0,2.8-2.2,5-5,5s-5-2.2-5-5s2.2-5,5-5S223.5,202.2,223.5,205z"/>
			<path class="st3" d="M97.7,201.6c1,0.9,1.6,2.1,1.6,3.4c0,0.8-0.2,1.5-0.6,2.1c-1,1.7-3.1,2.9-5.6,2.9s-4.5-1.1-5.5-2.7
				c-0.4-0.7-0.7-1.5-0.7-2.3c0-1.4,0.7-2.6,1.8-3.5c1.1-0.9,2.7-1.5,4.4-1.5C94.9,200,96.6,200.6,97.7,201.6L97.7,201.6z"/>
			<polyline class="st3" points="0.2,209.4 4,207.3 9.7,204.1 14.1,201.6 40.4,186.8 			"/>
			<polyline class="st3" points="30.7,215.9 15.1,207.1 9.7,204.1 5.1,201.5 0.2,198.8 			"/>
			<path class="st3" d="M14.1,201.6c1,0.9,1.6,2.1,1.6,3.4c0,0.8-0.2,1.5-0.6,2.1c-1,1.7-3.1,2.9-5.6,2.9S5,208.9,4,207.3
				c-0.4-0.7-0.7-1.5-0.7-2.3c0-1.4,0.7-2.6,1.8-3.5c1.1-0.9,2.7-1.5,4.4-1.5C11.3,200,12.9,200.6,14.1,201.6L14.1,201.6z"/>
			<polyline class="st3" points="155.7,215.9 171,207.3 176.7,204.1 181.1,201.6 207.4,186.8 			"/>
			<polyline class="st3" points="197.8,215.9 182.1,207.1 176.7,204.1 172.1,201.5 146.1,186.8 			"/>
			<path class="st3" d="M181.1,201.6c1,0.9,1.6,2.1,1.6,3.4c0,0.8-0.2,1.5-0.6,2.1c-1,1.7-3.1,2.9-5.6,2.9s-4.5-1.1-5.5-2.7
				c-0.4-0.7-0.7-1.5-0.7-2.3c0-1.4,0.7-2.6,1.8-3.5c1.1-0.9,2.7-1.5,4.4-1.5C178.4,200,180,200.6,181.1,201.6L181.1,201.6z"/>
			<polyline class="st3" points="239.1,215.9 254.4,207.3 260.1,204.1 264.5,201.6 269.5,198.8 			"/>
			<polyline class="st3" points="269.5,209.3 265.5,207.1 260.1,204.1 255.5,201.5 229.5,186.8 			"/>
			<path class="st3" d="M264.5,201.6c1,0.9,1.6,2.1,1.6,3.4c0,0.8-0.2,1.5-0.6,2.1c-1,1.7-3.1,2.9-5.6,2.9s-4.5-1.1-5.5-2.7
				c-0.4-0.7-0.7-1.5-0.7-2.3c0-1.4,0.7-2.6,1.8-3.5c1.1-0.9,2.7-1.5,4.4-1.5C261.8,200,263.4,200.6,264.5,201.6L264.5,201.6z"/>
			<path class="st3" d="M54.1,205c0,2.8-2.2,5-5,5s-5-2.2-5-5s2.2-5,5-5S54.1,202.2,54.1,205z"/>
			<rect x="3.9" y="181.8" class="st3" width="11.3" height="5"/>
			<rect x="45.6" y="181.8" class="st3" width="11.3" height="5"/>
			<rect x="87.3" y="181.8" class="st3" width="11.3" height="5"/>
			<rect x="129.1" y="181.8" class="st3" width="11.3" height="5"/>
			<rect x="170.8" y="181.8" class="st3" width="11.3" height="5"/>
			<rect x="212.5" y="181.8" class="st3" width="11.3" height="5"/>
			<rect x="254.2" y="181.8" class="st3" width="11.3" height="5"/>
		</g>
	</g>
</g>
<g id="_レイヤー_2">
	<g>
		<g>
			<path class="st4" d="M213.9,114.1v-4.2c7.9,0.8,21.4,4.7,25.8,12.1c4.3,7.4,9.8,14.8,9.8,14.8c-5.7-1.2-27.6-1.2-42.2,1.6
				c-3.8,0.8-7.2,1.7-9.6,2.9l-8.3-2.6v-12.4c-4.3,0.4-25.2-13.3-25.2-13.3c0.5-4.2,0.7-8.5,0.5-13.6h0.1c3.1,0.3,6.2-0.2,9.2-1.2
				c0,0,15.8,12.2,24.3,13.8C203.6,112.8,209.5,113.3,213.9,114.1L213.9,114.1z"/>
			<path class="st5" d="M249.5,136.9c-2,1.3-4.1,2.3-6.5,3.2h0c-22.2,4.5-35.7-1.6-35.7-1.6C222,135.6,243.9,135.6,249.5,136.9
				L249.5,136.9z"/>
			<path class="st5" d="M207.3,138.5c0,0,13.6,6.1,35.7,1.6c-11.1,4.2-25.6,4.4-35.7,3.2c-4.1-0.5-7.4-1.2-9.6-2
				C200.1,140.2,203.5,139.2,207.3,138.5L207.3,138.5z"/>
			<path class="st4" d="M173.9,98.1c-3,1-6.1,1.5-9.2,1.2h-0.1c0-1.1-0.1-2.3-0.2-3.5c-0.9-13.4-13.9-30.7-21.1-36.3
				c0.9-0.7,1.8-1.7,2.5-2.9c0.2,0.2,3.1,2.9,5.2,3.1c2.2,0.1,22.3-1.4,24.9,0c2.6,1.4,25.1,24.5,29.4,33.1
				c4.2,8.6,8.6,17.1,8.6,17.1v4.2c-4.5-0.8-10.4-1.3-15.6-2.3C189.8,110.3,173.9,98.1,173.9,98.1z"/>
			<path class="st6" d="M207.3,143.3c-2.3,3.3-5.2,6.1-9.1,7.6h0c0.1-0.6,0.1-1.1,0.1-1.7c0.1-2.4-0.1-5-0.5-7.8
				C199.9,142.1,203.3,142.8,207.3,143.3L207.3,143.3z"/>
			<path class="st4" d="M197.7,141.3c0.4,2.8,0.6,5.4,0.5,7.8c0,0.6,0,1.2-0.1,1.7c-0.4,5.7-2.2,10.4-5.1,14.4l-26-5
				c-2.6,0.3-7.4-2.6-11.7-5.7c-4.6-3.3-8.6-6.7-8.6-6.7l0,0c5.9-4,17.9-14.5,17.9-14.5c2.3,2.4,4.9,5,5.3,5.4h19.4L197.7,141.3
				L197.7,141.3z"/>
			<path class="st5" d="M189.4,126.3v12.4H170C177.7,133.3,189.4,126.3,189.4,126.3z"/>
			<path class="st4" d="M164.2,113c0,0,20.9,13.8,25.2,13.3c0,0-11.8,7-19.4,12.4c-0.4-0.4-3-3-5.3-5.4c-2-2.1-3.8-3.9-3.8-3.9
				C162.4,123.2,163.5,118.1,164.2,113z"/>
			<path class="st6" d="M155.3,154.5c4.3,3.1,9.1,6,11.7,5.7c-6.8,5.4-17.2,3.9-25.7,3.1C145.1,161.5,155.3,154.5,155.3,154.5z"/>
			<path class="st4" d="M164.6,99.3c0.2,5.1,0,9.4-0.5,13.6c-0.6,5.2-1.7,10.2-3.3,16.4c-5.3,3.9-10.7,5.4-15,6
				c2.7-6.6,6.6-33.7,5.2-44.4c-1.4-10.7-8.9-18-16-25.2c3.3-2.3,3.6-4.5,3.6-4.7c1.2,0,2.4-0.2,3.4-0.6c0.5-0.2,0.9-0.5,1.4-0.8
				c7.2,5.6,20.2,22.8,21.1,36.3C164.5,97,164.6,98.2,164.6,99.3L164.6,99.3z"/>
			<path class="st4" d="M28.7,143.9c2.1-3.7,4.4-7.6,6.5-10.8c2-3,4.7-6,7.5-8.5c0,0,8.2,7.1,14.3,6.4s41.1-11.1,43.3-12.1
				c0.2-0.1,0.6-0.3,1-0.5c2.6-1.2,8.1-3.6,12.7-2.8c0.8,0.1,1.5,0.3,2.2,0.7c0.6,0.3,1.2,0.6,1.7,1.1c1.2,1,2.2,1.9,3.1,3
				c2.4,2.9,3.1,6.8-0.1,14.9l1.1,0.1c0,0,15.1-3.7,17.2-6.6l-1.4,6.6c0,0,3.3,0.6,8,0c4.3-0.5,9.7-2.1,15-6c0,0,1.8,1.9,3.8,3.9
				c0,0-12,10.5-17.9,14.5c-0.3,0.2-0.6,0.4-0.9,0.6L115.5,167l-9.5,3.2c0,0-1.4-0.5-5.5-3.1c-4.4-2.6-8.8-14.5-9-14.9
				c1.6-0.5,3.2-1,4.7-1.4h0l14.9-1.2l-10.9-6.2l-8.7-5l-1.7,11.1c-9,3-22,6.2-27.8,6.1c-8.7-0.2-30,0.3-40.9,1.7
				C21.2,157.4,24.6,151,28.7,143.9L28.7,143.9z"/>
			<path class="st7" d="M145.9,56.7c-0.8,1.2-1.6,2.2-2.5,2.9c-0.4,0.3-0.9,0.6-1.4,0.8c-0.9,0.4-2.1,0.6-3.4,0.6
				c-1.2,0-2.4-0.1-3.5-0.3l0,0.3c-3.5,1.8-4.9,1.8-9.4,2.3c-4.6,0.5-7.8-4.2-11.8-10.4l0.3-2.2c1.7,0,7.5-4.5,9.3-5.5
				c-1.5,0.4-2.2-0.9-2.8-2.9c-0.5-2,1-6.1,2.3-6c2,0.2,3,2.2,3.7,4.7c0.3-0.3,5.9-11,7.9-17.3c2.5,2.8,12.1,3.4,15.7,2.5
				c1.6,4.1,2.2,9.3,1.9,13.7l-1-0.1l-2.8-0.2l-1.8,0.1c0.1,0.8,0.7,7.4,0.6,9.1l2.4,0.1C148.6,51.6,147.4,54.5,145.9,56.7
				L145.9,56.7z M147.7,32.8l3.4,0.8l-3.4-2.2V32.8z M144.9,53.8c0.1,0,0.1-0.1,0.2-0.2c-1.2-1.7-4.9,0-4.9,0s1,2,1.5,2.5
				S144.5,54.8,144.9,53.8L144.9,53.8L144.9,53.8z M135.1,31.8l7.1,0.6c0,0-0.3-1.9-1-2.1C138.1,31.1,135.1,31.8,135.1,31.8
				L135.1,31.8z"/>
			<path class="st7" d="M151.1,39.9l1,0.1c-0.1,2.1-0.5,4.1-1.1,5.6c-0.4,1-0.9,2.2-1.4,3.5l-2.4-0.1c0.1-1.7-0.6-8.4-0.6-9.1
				l1.8-0.1L151.1,39.9L151.1,39.9z"/>
			<path class="st4" d="M55.2,115.3l-1.1-2.3h0l-4.2-8.7c0,0,35.2-42.9,35.4-43.2c0.2-0.2,14.1-4.1,22.4-6.4c0,0,2.1,6.4,7.7,10.1
				c5.6,3.8,12.7,6.3,19.7,1c7.1,7.1,14.6,14.5,16,25.2c1.4,10.7-2.5,37.8-5.2,44.4c-4.7,0.6-8,0-8,0l1.4-6.6
				c-2,2.9-17.2,6.6-17.2,6.6l-1.1-0.1c3.2-8.2,2.5-12,0.1-14.9L141.6,95l-5.4-3.2L118,117.3c-0.5-0.4-1.1-0.8-1.7-1.1
				c-0.7-0.3-1.4-0.5-2.2-0.7c-4.6-0.8-10.1,1.6-12.7,2.8c-0.4,0.2-0.8,0.4-1,0.5c-2.3,1-37.2,11.4-43.3,12.1s-14.3-6.3-14.3-6.3
				C48.8,119.1,55.2,115.3,55.2,115.3L55.2,115.3z"/>
			<path class="st6" d="M155.3,154.5c0,0-10.2,7-14,8.8c-8,4.4-16.5,4.2-25.9,3.7l30.5-18.6c0.3-0.2,0.6-0.4,0.9-0.6l0,0
				C146.8,147.8,150.7,151.2,155.3,154.5L155.3,154.5z"/>
			<path class="st1" d="M150.2,26.2c-3.6,0.9-13.2,0.3-15.7-2.5c-2.1,6.2-7.6,17-7.9,17.3c-0.7-2.5-1.7-4.4-3.7-4.7
				c-1.3-0.2-2.8,3.9-2.3,6c0.5,2,1.3,3.3,2.8,2.9c-1.7,1-7.6,5.5-9.3,5.5c2-3.6,3.6-7.8,3.9-9.1c0.8-3.8,2.6-7.5,3.6-10.1
				c1.3-3.2,4.7-13.5,4.7-13.5l-3.4-0.1l0.4-2.5l5.4-0.2l0.5-2.9c0,0,0.1-0.2,0.2-0.4c-0.6-0.9-1.2-1.6-1.8-2.3
				c-0.9-0.9-2.1-2.2-3.1-1.3c-0.2,0.2-0.5,0.5-0.7,0.9l-1.5-1c0.3-0.4,0.7-0.8,1-1.2c2.8-2.5,5.9,1.2,8.2,2.8
				c0.1,0,0.2-0.1,0.4-0.1l4.4-8.5c0,0,5.8-0.9,6.2-0.8c0.4,0.1-2.9,12.3-2.9,12.3C142.7,14.8,150.1,24.9,150.2,26.2L150.2,26.2z"/>
			<path class="st7" d="M145.1,53.7c-0.1,0.1-0.1,0.2-0.2,0.2h0c-1.2,1.2-4.7-0.2-4.7-0.2S143.9,51.9,145.1,53.7L145.1,53.7z"/>
			<path class="st7" d="M140.3,53.7c0,0,3.5,1.4,4.7,0.2c-0.4,0.9-2.7,2.7-3.2,2.3S140.3,53.6,140.3,53.7L140.3,53.7z"/>
			<path class="st4" d="M141.6,95l-20.5,25.3c-0.8-1.1-1.9-2-3.1-3l18.2-25.5C136.2,91.8,141.6,95,141.6,95z"/>
			<path class="st4" d="M135.1,60.8c1.2,0.2,2.4,0.3,3.5,0.3c0,0.2-0.2,2.4-3.6,4.7c-6.9,5.3-14,2.7-19.7-1
				c-5.6-3.7-7.7-10.1-7.7-10.1c1.5-0.4,2.9-0.8,3.9-1.1c1.4-0.4,2.2-0.6,2.2-0.6c4,6.2,7.2,10.9,11.8,10.4c4.6-0.5,6-0.5,9.4-2.3
				L135.1,60.8L135.1,60.8z"/>
			<path class="st1" d="M123.7,9.2c-0.1,0.1-0.2,0.2-0.2,0.3c-0.8,1.6-1.7,3.2-2.5,4.8c-1.7,3.4-3.3,6.8-4.9,10.3
				c-1.8,4.1-3.3,8.2-3.9,12.7c-0.7,4.4-1,8.9-1.1,13.4l-3.3-0.1c0.5-7,1.2-13.9,3.5-20.5c1.6-4.3,3.5-8.5,5.4-12.7
				c1.6-3.2,3.3-6.4,5.6-9.2C122.2,8.2,123.7,9.2,123.7,9.2z"/>
			<path class="st5" d="M96.1,150.8L96.1,150.8c-1.5,0.4-3,0.9-4.7,1.4c-5.6,1.7-11.9,3.6-17.7,5.2l0,0c-3.5,1-6.7,1.9-9.5,2.6
				c-2.7,0.7-5.5,1.2-8.2,1.5c-11.9,1.6-23.8,0.2-34.9-4.1c10.9-1.4,32.2-1.9,40.9-1.7c5.8,0.1,18.8-3.2,27.8-6.1
				c4.5-1.5,7.9-2.9,9-3.7l1.4-2.4l10.9,6.2C111,149.6,96.1,150.8,96.1,150.8z"/>
			<path class="st5" d="M91.4,138.5l8.7,5l-1.4,2.4c-1,0.9-4.5,2.2-9,3.7L91.4,138.5z"/>
			<path class="st6" d="M91.4,152.2c0.2,0.4,4.5,12.3,9,14.9c0,0-8.3-0.1-17.8-0.7c-3.9-0.4-8.6-8.6-8.8-9l0,0
				C79.6,155.8,85.9,153.9,91.4,152.2z"/>
			<path class="st6" d="M82.6,166.5c-10.9-0.7-23.5-2.1-26.6-4.9l0,0c2.7-0.4,5.5-0.9,8.2-1.6c2.8-0.7,6.1-1.6,9.5-2.5
				C74,157.9,78.7,166.1,82.6,166.5z"/>
			<path class="st6" d="M54.1,113l1.1,2.3c0,0-6.4,3.9-12.4,9.3c-2.8,2.6-5.5,5.5-7.5,8.5c-2.1,3.3-4.4,7.1-6.5,10.8
				c-1.5-0.9-4.3-9.8-1.6-15.9C29.8,121.9,46.9,112.9,54.1,113C54.1,113,54.1,113,54.1,113z"/>
		</g>
		<g>
			<path class="st8" d="M150.2,26.2c-0.1-1.3-7.5-11.4-10.8-13.4c0,0,3.3-12.2,2.9-12.3c-0.4-0.1-6.2,0.8-6.2,0.8l-4.4,8.5
				c-0.1,0-0.2,0-0.4,0.1c-2.3-1.7-5.3-5.3-8.2-2.8c-0.3,0.4-0.7,0.8-1,1.2c-2.3,2.8-4,5.9-5.6,9.2c-2,4.2-3.8,8.3-5.4,12.7
				c-2.3,6.6-3,13.6-3.5,20.5l3.3,0.1c0.1-4.5,0.4-9,1.1-13.4c0.6-4.5,2.2-8.6,3.9-12.7c1.6-3.5,3.2-6.9,4.9-10.3
				c0.8-1.6,1.7-3.2,2.5-4.8c0.1-0.1,0.1-0.2,0.2-0.3c0.2-0.3,0.5-0.6,0.7-0.9c1-0.9,2.2,0.3,3.1,1.3c0.6,0.7,1.2,1.5,1.8,2.4
				c-0.1,0.2-0.2,0.4-0.2,0.4l-0.5,2.9l-5.4,0.2l-0.4,2.5l3.4,0.1c0,0-3.4,10.3-4.7,13.5c-1,2.5-2.9,6.3-3.6,10.1
				c-0.3,1.3-1.9,5.5-3.9,9.1c1.7,0,7.5-4.5,9.3-5.5c-1.5,0.4-2.2-0.9-2.8-2.9c-0.5-2,1-6.1,2.3-6c2,0.2,3,2.2,3.7,4.7
				c0.3-0.3,5.9-11,7.9-17.3C137,26.6,146.6,27.1,150.2,26.2L150.2,26.2z"/>
			<path class="st8" d="M150.2,26.2c1.6,4.1,2.2,9.3,1.9,13.7c-0.1,2.1-0.5,4.1-1.1,5.6c-0.4,1-0.9,2.2-1.4,3.5
				c-1,2.6-2.2,5.4-3.7,7.6c-0.8,1.2-1.6,2.2-2.5,2.9c-0.4,0.3-0.9,0.6-1.4,0.8c-0.9,0.4-2.1,0.6-3.4,0.6c-1.2,0-2.4-0.1-3.5-0.3
				c-3.3-0.5-6.2-1.5-6.2-1.5"/>
			<path class="st9" d="M135.1,31.8l7.1,0.6c0,0-0.3-1.9-1-2.1C138.1,31.1,135.1,31.8,135.1,31.8L135.1,31.8z"/>
			<polygon class="st9" points="147.7,31.4 147.7,32.8 151.1,33.6 			"/>
			<path class="st8" d="M146.5,39.8C146.5,39.8,146.5,39.8,146.5,39.8c0.1,0.8,0.7,7.5,0.6,9.2c0,0.2,0,0.4-0.1,0.4
				c-0.3,0.4-1.5,0.4-2.5,0"/>
			<line class="st8" x1="143.3" y1="47.8" x2="141.6" y2="49.7"/>
			<line class="st8" x1="135.1" y1="39.1" x2="140.6" y2="38.8"/>
			<line class="st8" x1="148.3" y1="39.8" x2="151.1" y2="39.9"/>
			<path class="st8" d="M144.9,53.9c-1.2,1.2-4.7-0.2-4.7-0.2s3.6-1.7,4.9,0C145.1,53.7,145,53.8,144.9,53.9"/>
			<path class="st8" d="M140.3,53.7c0,0,1,2,1.5,2.5s2.8-1.4,3.2-2.3h0"/>
			<path class="st8" d="M243.1,140.1c2.3-0.9,4.5-1.9,6.5-3.2"/>
			<path class="st8" d="M145.9,56.7L145.9,56.7c0.2,0.2,3.1,3,5.2,3.1c2.2,0.1,22.3-1.4,24.9,0c2.6,1.4,25.1,24.5,29.4,33.1
				c4.2,8.6,8.6,17.1,8.6,17.1c7.9,0.8,21.4,4.7,25.8,12.1c4.3,7.4,9.8,14.8,9.8,14.8c-5.7-1.2-27.6-1.2-42.2,1.6
				c-3.8,0.8-7.2,1.7-9.6,2.9c2.2,0.8,5.5,1.5,9.6,2c10.1,1.2,24.6,1,35.7-3.2"/>
			<path class="st8" d="M207.3,138.5c0,0,13.6,6.1,35.7,1.6h0"/>
			<path class="st8" d="M54.1,113l-4.2-8.7c0,0,35.2-42.9,35.4-43.2c0.2-0.2,14.1-4.1,22.4-6.4c1.5-0.4,2.9-0.8,3.9-1.1
				c1.4-0.4,2.2-0.6,2.2-0.6c4,6.2,7.2,10.9,11.8,10.4c4.6-0.5,6-0.5,9.5-2.3"/>
			<polyline class="st8" points="60.5,126.3 55.2,115.3 54.1,113 			"/>
			<path class="st8" d="M96.1,150.8c5.9-1.8,10.2-3.1,10.6-3.1"/>
			<path class="st8" d="M73.8,157.4c5.8-1.6,12.1-3.5,17.7-5.2c1.6-0.5,3.2-1,4.7-1.4"/>
			<path class="st8" d="M55.2,115.3c0,0-6.4,3.9-12.4,9.3c-2.8,2.6-5.5,5.5-7.5,8.5c-2.1,3.3-4.4,7.1-6.5,10.8
				c-4.1,7.1-7.6,13.5-7.6,13.5c11.1,4.3,23,5.7,34.9,4.1c2.7-0.4,5.5-0.9,8.2-1.5c2.8-0.7,6.1-1.6,9.5-2.5"/>
			<path class="st8" d="M21.1,157.4c10.9-1.4,32.2-1.9,40.9-1.7c5.8,0.1,18.8-3.2,27.8-6.1c4.5-1.5,7.9-2.9,9-3.7"/>
			<polyline class="st8" points="89.8,149.6 91.4,138.5 100.2,143.4 111,149.6 96.1,150.8 96.1,150.8 			"/>
			<path class="st8" d="M91.4,138.5c9.4-3.1,22.3-10.8,24-15.1"/>
			<path class="st8" d="M207.3,143.3c-2.3,3.3-5.2,6.1-9.1,7.6"/>
			<path class="st8" d="M42.8,124.6c0,0,8.2,7.1,14.3,6.4s41.1-11.1,43.3-12.1c0.2-0.1,0.6-0.3,1-0.5c2.6-1.2,8.1-3.6,12.7-2.8
				c0.8,0.1,1.5,0.3,2.2,0.7c0.6,0.3,1.2,0.6,1.7,1.1c1.2,1,2.2,1.9,3.1,3c2.4,2.9,3.1,6.8-0.1,14.9c-0.9,2.3-2.1,5-3.7,8.1
				c3.1,0.7,16.5-4.6,16.5-4.6"/>
			<path class="st8" d="M122.1,135.3c0,0,15.1-3.7,17.2-6.6l-1.4,6.6c0,0,3.3,0.6,8,0c4.3-0.5,9.7-2.1,15-6
				c1.5-6.2,2.6-11.2,3.3-16.4c0.5-4.2,0.7-8.5,0.5-13.6c0-1.1-0.1-2.3-0.2-3.5c-0.9-13.4-13.9-30.7-21.1-36.3"/>
			<path class="st8" d="M107.7,54.6c0,0,2.1,6.4,7.7,10.1c5.6,3.8,12.7,6.3,19.7,1c3.3-2.3,3.6-4.5,3.6-4.7l0,0"/>
			<path class="st8" d="M135.1,65.7c7.1,7.1,14.6,14.5,16,25.2c1.4,10.7-2.5,37.8-5.2,44.4"/>
			<polyline class="st8" points="118,117.3 136.2,91.8 141.6,95 121.1,120.3 			"/>
			<path class="st8" d="M106.8,65.7c0,0,9.7,16.5,9.5,22.3c-0.2,5.8,0,28.2,0,28.2"/>
			<path class="st8" d="M114.1,115.5c0,0-1.5-12.7-7.3-18c-5.8-5.3-23.8-20-23.8-20L94,70.3c0,0,2.9,12.1,4.5,14.8"/>
			<path class="st8" d="M64,107.6c0,0,0.6,7.7,12.2,8.6c11.6,0.9,22.9-0.9,25.3,2.1"/>
			<path class="st8" d="M164.7,92.9c4.3-7.4,8.4-12,8.6-18.1c3.8,4.6,6.6,9.1,6.6,9.1l-7.6,3.4"/>
			<path class="st8" d="M191.7,86.6c0,0-8,8.2-17.8,11.5c-3,1-6.1,1.5-9.2,1.2"/>
			<path class="st8" d="M173.9,98.1c0,0,15.8,12.2,24.3,13.8c5.3,1,11.2,1.4,15.6,2.3c2.7,0.5,4.9,1.1,6.1,2.1"/>
			<polyline class="st8" points="213.9,109.9 213.9,114.1 213.9,115.3 			"/>
			<path class="st8" d="M160.9,129.4c0,0,1.8,1.9,3.8,3.9c2.3,2.4,4.9,5,5.3,5.4c7.6-5.4,19.4-12.4,19.4-12.4
				c-4.3,0.4-25.2-13.3-25.2-13.3"/>
			<polyline class="st8" points="189.4,126.3 189.4,138.7 170,138.7 			"/>
			<path class="st8" d="M189.4,138.7l8.3,2.6c0.4,2.8,0.6,5.4,0.5,7.8c0,0.6,0,1.2-0.1,1.7c-0.4,5.7-2.2,10.4-5.1,14.4l-26-5
				c-6.8,5.4-17.2,3.9-25.7,3.1c-8,4.4-16.5,4.2-25.9,3.7l-9.5,3.2c0,0-1.4-0.5-5.5-3.1c0,0-8.3-0.1-17.8-0.7
				c-10.9-0.7-23.5-2.1-26.6-4.9"/>
			<path class="st8" d="M115.4,167l30.5-18.6c0.3-0.2,0.6-0.4,0.9-0.6c5.9-4,17.9-14.5,17.9-14.5"/>
			<path class="st8" d="M146.8,147.8c0,0,4,3.4,8.6,6.7c4.3,3.1,9.1,6,11.7,5.7"/>
			<path class="st8" d="M155.3,154.5c0,0-10.2,7-14,8.8"/>
			<path class="st8" d="M91.4,152.2L91.4,152.2c0.2,0.4,4.5,12.4,9,14.9"/>
			<path class="st8" d="M73.8,157.4L73.8,157.4c0.2,0.4,4.9,8.7,8.8,9c0,0,0.1,0,0.1,0"/>
			<path class="st3" d="M54.1,113c-7.2-0.1-24.2,9-26.9,15.1c-2.7,6.1,0,15,1.6,15.9h0"/>
			<line class="st8" x1="54.1" y1="113" x2="54.1" y2="113"/>
		</g>
	</g>
	<line class="st3" x1="114.1" y1="50.7" x2="113.8" y2="52.9"/>
</g>
</svg>
