<?xml version="1.0" encoding="UTF-8"?>
<svg xmlns="http://www.w3.org/2000/svg" viewBox="0 0 269.76 216.39">
  <defs>
    <style>
      .cls-1 {
        stroke-miterlimit: 10;
      }

      .cls-1, .cls-2 {
        fill: none;
        stroke: #000;
      }

      .cls-3 {
        fill: #ff4040;
      }

      .cls-3, .cls-4, .cls-5, .cls-6, .cls-7, .cls-8, .cls-9 {
        stroke-width: 0px;
      }

      .cls-4 {
        fill: #f3edd7;
      }

      .cls-2 {
        stroke-linecap: round;
        stroke-linejoin: round;
      }

      .cls-5 {
        fill: #fae588;
      }

      .cls-6 {
        fill: #333;
      }

      .cls-7 {
        fill: #ae76a7;
      }

      .cls-8 {
        fill: #fde2b3;
      }

      .cls-9 {
        fill: #d2d296;
      }
    </style>
  </defs>
  <g id="_畳" data-name="畳">
    <g>
      <g>
        <rect class="cls-4" x=".24" y="181.83" width="3.61" height="5.02"/>
        <path class="cls-4" d="m269.51,209.34v6.55h-30.38l15.32-8.61c1.03,1.61,3.1,2.71,5.5,2.71s4.61-1.18,5.61-2.88l3.96,2.23Z"/>
        <path class="cls-4" d="m269.51,198.81v10.53l-3.96-2.23c.38-.65.59-1.38.59-2.14,0-1.3-.62-2.48-1.61-3.37l4.98-2.8Z"/>
        <path class="cls-4" d="m269.51,186.84v11.96l-4.98,2.8c-1.13-1-2.76-1.64-4.58-1.64s-3.3.58-4.43,1.51l-26.03-14.63h40.03Z"/>
        <polygon class="cls-4" points="269.51 97.64 269.51 103.4 1.13 103.4 .24 103.4 .24 97.64 269.51 97.64"/>
        <rect class="cls-4" x="265.53" y="181.83" width="3.99" height="5.02"/>
        <path class="cls-4" d="m266.14,204.98c0,.76-.21,1.49-.59,2.14l-5.41-3.04,4.38-2.47c1,.89,1.61,2.07,1.61,3.37Z"/>
        <path class="cls-4" d="m260.15,204.08l5.41,3.04c-1,1.7-3.13,2.88-5.61,2.88s-4.47-1.1-5.5-2.71l5.7-3.21Z"/>
        <rect class="cls-6" x="254.25" y="181.83" width="11.28" height="5.02"/>
        <path class="cls-4" d="m264.53,201.61l-4.38,2.47-4.63-2.6c1.13-.93,2.69-1.51,4.43-1.51,1.82,0,3.45.63,4.58,1.64Z"/>
        <path class="cls-4" d="m260.15,204.08l-5.7,3.21c-.44-.68-.69-1.47-.69-2.3,0-1.37.68-2.6,1.77-3.5l4.63,2.6Z"/>
        <path class="cls-4" d="m229.49,186.84l26.03,14.63c-1.09.9-1.77,2.13-1.77,3.5,0,.83.25,1.62.69,2.3l-15.32,8.61h-41.39l-15.61-8.78c.38-.65.59-1.38.59-2.14,0-1.3-.62-2.48-1.61-3.36l26.28-14.77h22.1Zm-5.95,18.13c0-2.76-2.24-5.01-5.01-5.01s-5.02,2.24-5.02,5.01,2.24,5.02,5.02,5.02,5.01-2.24,5.01-5.02Z"/>
        <polygon class="cls-4" points="254.25 186.84 229.49 186.84 223.8 186.84 223.8 181.83 254.25 181.83 254.25 186.84"/>
        <rect class="cls-6" x="212.52" y="181.83" width="11.28" height="5.02"/>
        <path class="cls-6" d="m218.53,199.97c2.76,0,5.01,2.24,5.01,5.01s-2.24,5.02-5.01,5.02-5.02-2.24-5.02-5.02,2.24-5.01,5.02-5.01Z"/>
        <path class="cls-4" d="m207.39,186.84l-26.28,14.77c-1.13-1.01-2.76-1.65-4.58-1.65s-3.3.58-4.43,1.51l-26.03-14.63h61.32Z"/>
        <polygon class="cls-4" points="182.06 186.84 182.06 181.83 212.52 181.83 212.52 186.84 207.39 186.84 182.06 186.84"/>
        <path class="cls-4" d="m197.75,215.89h-42.03l15.32-8.61c1.03,1.61,3.11,2.71,5.5,2.71s4.61-1.18,5.61-2.88l15.61,8.78Z"/>
        <path class="cls-4" d="m182.72,204.98c0,.76-.21,1.49-.59,2.14l-5.41-3.04,4.38-2.46c1,.88,1.61,2.06,1.61,3.36Z"/>
        <path class="cls-4" d="m176.73,204.08l5.41,3.04c-1,1.7-3.13,2.88-5.61,2.88s-4.47-1.1-5.5-2.71l5.7-3.21Z"/>
        <rect class="cls-6" x="170.78" y="181.83" width="11.28" height="5.02"/>
        <path class="cls-4" d="m176.53,199.97c1.82,0,3.45.63,4.58,1.65l-4.38,2.46-4.63-2.6c1.13-.93,2.69-1.51,4.43-1.51Z"/>
        <path class="cls-4" d="m176.73,204.08l-5.7,3.21c-.44-.68-.69-1.47-.69-2.3,0-1.37.68-2.6,1.77-3.5l4.63,2.6Z"/>
        <path class="cls-4" d="m146.07,186.84l26.03,14.63c-1.09.9-1.77,2.13-1.77,3.5,0,.83.25,1.62.69,2.3l-15.32,8.61h-41.39l-15.61-8.78c.38-.65.59-1.38.59-2.14,0-1.3-.62-2.48-1.61-3.36l26.28-14.77h22.1Zm-7,18.13c0-2.76-2.24-5.01-5.01-5.01s-5.02,2.24-5.02,5.01,2.24,5.02,5.02,5.02,5.01-2.24,5.01-5.02Z"/>
        <polygon class="cls-4" points="170.78 186.84 146.07 186.84 140.33 186.84 140.33 181.83 170.78 181.83 170.78 186.84"/>
        <rect class="cls-6" x="129.05" y="181.83" width="11.28" height="5.02"/>
        <path class="cls-6" d="m134.06,199.97c2.76,0,5.01,2.24,5.01,5.01s-2.24,5.02-5.01,5.02-5.02-2.24-5.02-5.02,2.24-5.01,5.02-5.01Z"/>
        <path class="cls-4" d="m123.97,186.84l-26.28,14.77c-1.13-1.01-2.76-1.65-4.58-1.65s-3.3.58-4.43,1.51l-26.03-14.63h61.32Z"/>
        <polygon class="cls-4" points="129.05 186.84 123.97 186.84 98.6 186.84 98.6 181.83 129.05 181.83 129.05 186.84"/>
        <path class="cls-4" d="m114.32,215.89h-42.03l15.32-8.61c1.03,1.61,3.1,2.71,5.5,2.71s4.61-1.18,5.61-2.88l15.61,8.78Z"/>
        <path class="cls-4" d="m99.3,204.98c0,.76-.21,1.49-.59,2.14l-5.41-3.04,4.38-2.46c1,.88,1.61,2.06,1.61,3.36Z"/>
        <path class="cls-4" d="m93.31,204.08l5.41,3.04c-1,1.7-3.13,2.88-5.61,2.88s-4.47-1.1-5.5-2.71l5.7-3.21Z"/>
        <rect class="cls-6" x="87.32" y="181.83" width="11.28" height="5.02"/>
        <path class="cls-4" d="m93.11,199.97c1.82,0,3.45.63,4.58,1.65l-4.38,2.46-4.63-2.6c1.13-.93,2.69-1.51,4.43-1.51Z"/>
        <path class="cls-4" d="m93.31,204.08l-5.7,3.21c-.44-.68-.69-1.47-.69-2.3,0-1.37.68-2.6,1.77-3.5l4.63,2.6Z"/>
        <path class="cls-4" d="m62.65,186.84l26.03,14.63c-1.09.9-1.77,2.13-1.77,3.5,0,.83.25,1.62.69,2.3l-15.32,8.61H30.71l-15.61-8.78c.38-.65.59-1.38.59-2.14,0-1.3-.62-2.48-1.61-3.36l26.28-14.77h22.29Zm-8.51,18.13c0-2.76-2.24-5.01-5.01-5.01s-5.02,2.24-5.02,5.01,2.24,5.02,5.02,5.02,5.01-2.24,5.01-5.02Z"/>
        <polygon class="cls-4" points="87.32 186.84 62.65 186.84 56.87 186.84 56.87 181.83 87.32 181.83 87.32 186.84"/>
        <rect class="cls-6" x="45.59" y="181.83" width="11.28" height="5.02"/>
        <path class="cls-6" d="m49.13,199.97c2.76,0,5.01,2.24,5.01,5.01s-2.24,5.02-5.01,5.02-5.02-2.24-5.02-5.02,2.24-5.01,5.02-5.01Z"/>
        <polygon class="cls-4" points="45.59 186.84 40.36 186.84 15.14 186.84 15.14 181.83 45.59 181.83 45.59 186.84"/>
        <path class="cls-4" d="m30.71,215.89H.24v-6.51l3.75-2.11c1.03,1.61,3.11,2.71,5.5,2.71s4.61-1.18,5.61-2.88l15.61,8.78Z"/>
        <path class="cls-4" d="m15.69,204.98c0,.76-.21,1.49-.59,2.14l-5.41-3.04,4.38-2.46c1,.88,1.61,2.06,1.61,3.36Z"/>
        <rect class="cls-6" x="3.86" y="181.83" width="11.28" height="5.02"/>
        <path class="cls-4" d="m9.7,204.08l5.41,3.04c-1,1.7-3.13,2.88-5.61,2.88s-4.47-1.1-5.5-2.71l5.7-3.21Z"/>
        <path class="cls-4" d="m9.5,199.97c1.82,0,3.45.63,4.58,1.65l-4.38,2.46-4.63-2.6c1.13-.93,2.69-1.51,4.43-1.51Z"/>
        <path class="cls-4" d="m9.7,204.08l-5.7,3.21c-.44-.68-.69-1.47-.69-2.3,0-1.37.68-2.6,1.77-3.5l4.63,2.6Z"/>
        <path class="cls-4" d="m.24,198.76l4.83,2.71c-1.09.9-1.77,2.13-1.77,3.5,0,.83.25,1.62.69,2.3l-3.75,2.11v-10.62Z"/>
        <polygon class="cls-9" points="212.52 181.83 182.06 181.83 170.78 181.83 140.33 181.83 129.05 181.83 98.6 181.83 87.32 181.83 56.87 181.83 45.59 181.83 15.14 181.83 3.86 181.83 .24 181.83 .24 103.4 1.13 103.4 269.51 103.4 269.51 181.83 265.53 181.83 254.25 181.83 223.8 181.83 212.52 181.83"/>
        <path class="cls-4" d="m.24,186.84h40.11l-26.28,14.77c-1.13-1.01-2.76-1.65-4.58-1.65s-3.3.58-4.43,1.51l-4.83-2.71v-11.92Z"/>
      </g>
      <g>
        <polyline class="cls-1" points="269.51 215.89 239.13 215.89 197.75 215.89 155.71 215.89 114.32 215.89 72.29 215.89 30.71 215.89 .24 215.89"/>
        <line class="cls-1" x1=".24" y1="97.64" x2="269.51" y2="97.64"/>
        <line class="cls-1" x1=".24" y1="103.4" x2="269.51" y2="103.4"/>
        <line class="cls-1" x1="265.53" y1="181.83" x2="269.51" y2="181.83"/>
        <line class="cls-1" x1="223.8" y1="181.83" x2="254.25" y2="181.83"/>
        <line class="cls-1" x1="182.06" y1="181.83" x2="212.52" y2="181.83"/>
        <line class="cls-1" x1="140.33" y1="181.83" x2="170.78" y2="181.83"/>
        <line class="cls-1" x1="98.6" y1="181.83" x2="129.05" y2="181.83"/>
        <line class="cls-1" x1="56.87" y1="181.83" x2="87.32" y2="181.83"/>
        <line class="cls-1" x1="15.14" y1="181.83" x2="45.59" y2="181.83"/>
        <line class="cls-1" x1=".24" y1="181.83" x2="3.86" y2="181.83"/>
        <line class="cls-1" x1="265.53" y1="186.84" x2="269.51" y2="186.84"/>
        <polyline class="cls-1" points="223.8 186.84 229.49 186.84 254.25 186.84"/>
        <polyline class="cls-1" points="182.06 186.84 207.39 186.84 212.52 186.84"/>
        <polyline class="cls-1" points="140.33 186.84 146.07 186.84 170.78 186.84"/>
        <polyline class="cls-1" points="98.6 186.84 123.97 186.84 129.05 186.84"/>
        <polyline class="cls-1" points="56.87 186.84 62.65 186.84 87.32 186.84"/>
        <polyline class="cls-1" points="15.14 186.84 40.36 186.84 45.59 186.84"/>
        <line class="cls-1" x1=".24" y1="186.84" x2="3.86" y2="186.84"/>
        <polyline class="cls-1" points="72.29 215.89 87.61 207.28 93.31 204.08 97.69 201.62 123.97 186.84"/>
        <polyline class="cls-1" points="114.32 215.89 98.71 207.12 93.31 204.08 88.68 201.48 62.65 186.84"/>
        <path class="cls-1" d="m139.07,204.98c0,2.77-2.24,5.02-5.01,5.02s-5.02-2.24-5.02-5.02,2.24-5.01,5.02-5.01,5.01,2.24,5.01,5.01Z"/>
        <path class="cls-1" d="m223.54,204.98c0,2.77-2.24,5.02-5.01,5.02s-5.02-2.24-5.02-5.02,2.24-5.01,5.02-5.01,5.01,2.24,5.01,5.01Z"/>
        <path class="cls-1" d="m97.69,201.62c1,.88,1.61,2.06,1.61,3.36,0,.76-.21,1.49-.59,2.14-1,1.7-3.13,2.88-5.61,2.88s-4.47-1.1-5.5-2.71c-.44-.68-.69-1.47-.69-2.3,0-1.37.68-2.6,1.77-3.5,1.13-.93,2.69-1.51,4.43-1.51,1.82,0,3.45.63,4.58,1.65Z"/>
        <polyline class="cls-1" points=".24 209.39 4 207.28 9.7 204.08 14.08 201.62 40.36 186.84"/>
        <polyline class="cls-1" points="30.71 215.89 15.1 207.12 9.7 204.08 5.07 201.48 .24 198.76"/>
        <path class="cls-1" d="m14.08,201.62c1,.88,1.61,2.06,1.61,3.36,0,.76-.21,1.49-.59,2.14-1,1.7-3.13,2.88-5.61,2.88s-4.47-1.1-5.5-2.71c-.44-.68-.69-1.47-.69-2.3,0-1.37.68-2.6,1.77-3.5,1.13-.93,2.69-1.51,4.43-1.51,1.82,0,3.45.63,4.58,1.65Z"/>
        <polyline class="cls-1" points="155.71 215.89 171.03 207.28 176.73 204.08 181.11 201.62 207.39 186.84"/>
        <polyline class="cls-1" points="197.75 215.89 182.13 207.12 176.73 204.08 172.1 201.48 146.07 186.84"/>
        <path class="cls-1" d="m181.11,201.62c1,.88,1.61,2.06,1.61,3.36,0,.76-.21,1.49-.59,2.14-1,1.7-3.13,2.88-5.61,2.88s-4.47-1.1-5.5-2.71c-.44-.68-.69-1.47-.69-2.3,0-1.37.68-2.6,1.77-3.5,1.13-.93,2.69-1.51,4.43-1.51,1.82,0,3.45.63,4.58,1.65Z"/>
        <polyline class="cls-1" points="239.13 215.89 254.45 207.28 260.15 204.08 264.53 201.61 269.51 198.81"/>
        <polyline class="cls-1" points="269.51 209.34 265.55 207.12 260.15 204.08 255.52 201.48 229.49 186.84"/>
        <path class="cls-1" d="m264.53,201.61c1,.89,1.61,2.07,1.61,3.37,0,.76-.21,1.49-.59,2.14-1,1.7-3.13,2.88-5.61,2.88s-4.47-1.1-5.5-2.71c-.44-.68-.69-1.47-.69-2.3,0-1.37.68-2.6,1.77-3.5,1.13-.93,2.69-1.51,4.43-1.51,1.82,0,3.45.63,4.58,1.64Z"/>
        <path class="cls-1" d="m54.14,204.98c0,2.77-2.24,5.02-5.01,5.02s-5.02-2.24-5.02-5.02,2.24-5.01,5.02-5.01,5.01,2.24,5.01,5.01Z"/>
        <rect class="cls-1" x="3.86" y="181.83" width="11.28" height="5.02"/>
        <rect class="cls-1" x="45.59" y="181.83" width="11.28" height="5.02"/>
        <rect class="cls-1" x="87.32" y="181.83" width="11.28" height="5.02"/>
        <rect class="cls-1" x="129.05" y="181.83" width="11.28" height="5.02"/>
        <rect class="cls-1" x="170.78" y="181.83" width="11.28" height="5.02"/>
        <rect class="cls-1" x="212.52" y="181.83" width="11.28" height="5.02"/>
        <rect class="cls-1" x="254.25" y="181.83" width="11.28" height="5.02"/>
      </g>
    </g>
  </g>
  <g id="_レイヤー_2" data-name="レイヤー 2">
    <g>
      <g>
        <path class="cls-5" d="m213.92,114.12v-4.2c7.91.76,21.45,4.72,25.79,12.13,4.34,7.4,9.83,14.8,9.83,14.8-5.67-1.21-27.58-1.22-42.22,1.62-3.84.75-7.18,1.69-9.59,2.85l-8.32-2.61v-12.41c-4.34.43-25.25-13.34-25.25-13.34.5-4.22.67-8.52.49-13.64h.07c3.11.3,6.24-.23,9.21-1.24,0,0,15.83,12.22,24.34,13.75,5.3.96,11.18,1.45,15.65,2.29Z"/>
        <path class="cls-3" d="m249.54,136.85c-1.96,1.26-4.14,2.33-6.48,3.21h-.02c-22.16,4.49-35.72-1.59-35.72-1.59,14.64-2.84,36.55-2.83,42.22-1.62Z"/>
        <path class="cls-3" d="m207.32,138.47s13.56,6.08,35.72,1.59c-11.11,4.23-25.6,4.42-35.72,3.22-4.07-.49-7.43-1.2-9.59-1.96,2.41-1.16,5.75-2.1,9.59-2.85Z"/>
        <path class="cls-5" d="m173.93,98.08c-2.97,1.01-6.1,1.54-9.21,1.24h-.07c-.04-1.12-.1-2.28-.18-3.49-.85-13.44-13.88-30.7-21.06-36.28.91-.72,1.75-1.72,2.51-2.87.21.2,3.1,2.94,5.19,3.07,2.17.13,22.34-1.41,24.9,0,2.55,1.4,25.14,24.51,29.36,33.06,4.21,8.56,8.55,17.11,8.55,17.11v4.2c-4.47-.84-10.35-1.33-15.65-2.29-8.51-1.53-24.34-13.75-24.34-13.75Z"/>
        <path class="cls-7" d="m207.32,143.28c-2.34,3.32-5.17,6.09-9.15,7.55h-.01c.05-.56.08-1.14.09-1.72.07-2.42-.11-5.01-.52-7.79,2.16.76,5.52,1.47,9.59,1.96Z"/>
        <path class="cls-5" d="m197.73,141.32c.41,2.78.59,5.37.52,7.79-.01.58-.04,1.16-.09,1.72-.41,5.73-2.2,10.45-5.09,14.36l-26.04-5.02c-2.56.29-7.4-2.61-11.7-5.68-4.58-3.26-8.55-6.7-8.55-6.7h0c5.92-3.97,17.95-14.47,17.95-14.47,2.31,2.38,4.88,5.02,5.29,5.39h19.4l8.32,2.61Z"/>
        <path class="cls-3" d="m189.41,126.3v12.41h-19.4c7.65-5.43,19.4-12.41,19.4-12.41Z"/>
        <path class="cls-5" d="m164.16,112.96s20.91,13.77,25.25,13.34c0,0-11.75,6.98-19.4,12.41-.41-.37-2.98-3.01-5.29-5.39-2.02-2.08-3.82-3.95-3.82-3.95,1.53-6.22,2.64-11.25,3.26-16.41Z"/>
        <path class="cls-7" d="m155.33,154.49c4.3,3.07,9.14,5.97,11.7,5.68-6.81,5.45-17.2,3.92-25.71,3.07,3.8-1.75,14.01-8.75,14.01-8.75Z"/>
        <path class="cls-5" d="m164.65,99.32c.18,5.12.01,9.42-.49,13.64-.62,5.16-1.73,10.19-3.26,16.41-5.26,3.88-10.72,5.42-14.99,5.96,2.72-6.63,6.65-33.71,5.2-44.43-1.45-10.73-8.93-18.05-16-25.19,3.34-2.29,3.57-4.51,3.58-4.7,1.24-.02,2.41-.2,3.36-.62.47-.21.93-.49,1.36-.84,7.18,5.58,20.21,22.84,21.06,36.28.08,1.21.14,2.37.18,3.49Z"/>
        <path class="cls-5" d="m28.74,143.92c2.13-3.68,4.45-7.55,6.54-10.81,1.95-3.04,4.68-5.96,7.5-8.52,0,0,8.16,7.07,14.29,6.35,6.13-.72,41.07-11.11,43.34-12.13.25-.11.6-.28,1.02-.47,2.59-1.19,8.07-3.57,12.67-2.8.77.13,1.51.34,2.21.67.6.27,1.17.62,1.7,1.07,1.18,1,2.24,1.94,3.08,2.99,2.38,2.95,3.06,6.75-.1,14.91l1.1.14s15.15-3.74,17.19-6.64l-1.36,6.64s3.28.61,7.99.01c4.27-.54,9.73-2.08,14.99-5.96,0,0,1.8,1.87,3.82,3.95,0,0-12.03,10.5-17.95,14.46-.3.21-.59.39-.86.56l-30.46,18.64-9.53,3.24s-1.36-.51-5.51-3.07c-4.45-2.56-8.81-14.49-8.96-14.9,1.64-.5,3.2-.97,4.67-1.42h.01l14.9-1.22-10.87-6.18-8.71-4.96-1.65,11.14c-8.96,2.96-22,6.25-27.79,6.14-8.69-.17-29.96.34-40.86,1.7,0,0,3.47-6.42,7.59-13.53Z"/>
        <path class="cls-8" d="m145.92,56.68c-.76,1.15-1.6,2.15-2.51,2.87-.43.35-.89.63-1.36.84-.95.42-2.12.6-3.36.62-1.16.03-2.37-.08-3.54-.26l-.04.27c-3.49,1.77-4.85,1.79-9.45,2.3-4.59.51-7.83-4.25-11.83-10.43l.26-2.15c1.66.05,7.53-4.52,9.26-5.48-1.47.38-2.24-.86-2.75-2.91-.51-2.04.99-6.13,2.27-5.96,2.01.25,3.03,2.17,3.73,4.66.32-.26,5.87-11.05,7.92-17.3,2.49,2.81,12.12,3.38,15.7,2.49,1.55,4.09,2.23,9.32,1.91,13.74l-1.02-.06-2.81-.17-1.77.07c.08.78.73,7.4.64,9.14l2.44.11c-1.02,2.56-2.22,5.38-3.69,7.61Zm1.79-23.83l3.4.77-3.4-2.25v1.48Zm-2.76,21c.06-.05.11-.12.16-.2-1.21-1.72-4.85,0-4.85,0,0,0,1,2.04,1.47,2.49s2.79-1.38,3.21-2.28h.01Zm-9.84-22.02l7.15.6s-.34-1.87-1.02-2.13c-3.15.77-6.13,1.53-6.13,1.53Z"/>
        <path class="cls-8" d="m151.11,39.92l1.02.06c-.15,2.13-.53,4.06-1.15,5.6-.42,1.03-.87,2.23-1.37,3.49l-2.44-.11c.09-1.74-.56-8.36-.64-9.14l1.77-.07,2.81.17Z"/>
        <path class="cls-5" d="m55.19,115.26l-1.1-2.3h-.01l-4.16-8.7s35.15-42.89,35.4-43.24c.18-.24,14.07-4.13,22.39-6.44,0,0,2.12,6.36,7.74,10.1,5.62,3.75,12.73,6.34,19.66,1.03,7.07,7.14,14.55,14.46,16,25.19,1.45,10.72-2.48,37.8-5.2,44.43-4.71.6-7.99-.01-7.99-.01l1.36-6.64c-2.04,2.9-17.19,6.64-17.19,6.64l-1.1-.14c3.16-8.16,2.48-11.96.1-14.91l20.49-25.29-5.36-3.23-18.21,25.53c-.53-.45-1.1-.8-1.7-1.07-.7-.33-1.44-.54-2.21-.67-4.6-.77-10.08,1.61-12.67,2.8-.42.19-.77.36-1.02.47-2.27,1.02-37.21,11.41-43.34,12.13-6.13.72-14.29-6.35-14.29-6.35,6.02-5.47,12.41-9.33,12.41-9.33Z"/>
        <path class="cls-7" d="m155.33,154.49s-10.21,7-14.01,8.75c-8,4.42-16.51,4.25-25.87,3.74l30.46-18.64c.27-.17.56-.35.86-.56h0s3.97,3.45,8.55,6.71Z"/>
        <path class="cls-6" d="m150.22,26.24c-3.58.89-13.21.32-15.7-2.49-2.05,6.25-7.6,17.04-7.92,17.3-.7-2.49-1.72-4.41-3.73-4.66-1.28-.17-2.78,3.92-2.27,5.96.51,2.05,1.28,3.29,2.75,2.91-1.73.96-7.6,5.53-9.26,5.48,1.98-3.63,3.62-7.79,3.89-9.12.77-3.77,2.61-7.55,3.64-10.08,1.3-3.2,4.73-13.47,4.73-13.47l-3.45-.07.38-2.49,5.36-.25.49-2.87s.08-.18.21-.43c-.6-.86-1.17-1.65-1.79-2.35-.9-.93-2.14-2.18-3.12-1.27-.23.22-.47.52-.69.86l-1.5-.96c.33-.41.66-.8,1.01-1.19,2.84-2.46,5.88,1.18,8.17,2.85.11-.03.23-.06.35-.07l4.41-8.49s5.8-.95,6.19-.83c.38.13-2.94,12.32-2.94,12.32,3.26,1.98,10.66,12.07,10.79,13.41Z"/>
        <path class="cls-8" d="m145.11,53.65c-.05.08-.1.15-.16.2h-.01c-1.18,1.21-4.68-.2-4.68-.2,0,0,3.64-1.72,4.85,0Z"/>
        <path class="cls-8" d="m140.26,53.65s3.5,1.41,4.68.21c-.42.9-2.74,2.73-3.21,2.28s-1.47-2.49-1.47-2.49Z"/>
        <path class="cls-5" d="m141.58,94.98l-20.49,25.29c-.84-1.05-1.9-1.99-3.08-2.99l18.21-25.53,5.36,3.23Z"/>
        <path class="cls-5" d="m135.15,60.75c1.17.18,2.38.29,3.54.26-.01.19-.24,2.41-3.58,4.7-6.93,5.31-14.04,2.72-19.66-1.03-5.62-3.74-7.74-10.1-7.74-10.1,1.53-.42,2.87-.79,3.9-1.08,1.39-.38,2.22-.61,2.22-.61,4,6.18,7.24,10.94,11.83,10.43,4.6-.51,5.96-.53,9.45-2.3l.04-.27Z"/>
        <path class="cls-6" d="m123.74,9.2c-.08.11-.15.22-.22.34-.84,1.61-1.67,3.22-2.49,4.85-1.7,3.39-3.35,6.83-4.93,10.28-1.77,4.12-3.34,8.22-3.95,12.69-.68,4.4-1.01,8.93-1.12,13.38l-3.32-.11c.49-6.95,1.19-13.92,3.5-20.55,1.61-4.34,3.48-8.5,5.45-12.67,1.56-3.25,3.31-6.36,5.58-9.17l1.5.96Z"/>
        <path class="cls-3" d="m96.13,150.83h-.01c-1.47.45-3.03.92-4.67,1.42-5.56,1.67-11.9,3.57-17.7,5.2h0c-3.46.98-6.73,1.86-9.53,2.55-2.72.67-5.45,1.19-8.19,1.54-11.85,1.57-23.82.2-34.88-4.09,10.9-1.36,32.17-1.87,40.86-1.7,5.79.11,18.83-3.18,27.79-6.14,4.49-1.48,7.95-2.88,8.97-3.73l1.39-2.45,10.87,6.18-14.9,1.22Z"/>
        <path class="cls-3" d="m91.45,138.47l8.71,4.96-1.39,2.45c-1.02.85-4.48,2.25-8.97,3.73l1.65-11.14Z"/>
        <path class="cls-7" d="m91.45,152.25c.15.41,4.51,12.34,8.96,14.9,0,0-8.32-.08-17.81-.68-3.9-.36-8.62-8.61-8.85-9.01h0c5.8-1.64,12.14-3.54,17.7-5.21Z"/>
        <path class="cls-7" d="m82.6,166.47c-10.95-.7-23.46-2.1-26.57-4.92h0c2.74-.36,5.47-.88,8.19-1.55,2.8-.69,6.07-1.57,9.53-2.54.23.4,4.95,8.65,8.85,9.01Z"/>
        <path class="cls-7" d="m54.09,112.96l1.1,2.3s-6.39,3.86-12.41,9.33c-2.82,2.56-5.55,5.48-7.5,8.52-2.09,3.26-4.41,7.13-6.54,10.81-1.55-.87-4.26-9.76-1.59-15.87,2.68-6.13,19.77-15.19,26.93-15.09h.01Z"/>
      </g>
      <g>
        <path class="cls-2" d="m150.22,26.24c-.13-1.34-7.53-11.43-10.79-13.41,0,0,3.32-12.19,2.94-12.32-.39-.12-6.19.83-6.19.83l-4.41,8.49c-.12.01-.24.04-.35.07-2.29-1.67-5.33-5.31-8.17-2.85-.35.39-.68.78-1.01,1.19-2.27,2.81-4.02,5.92-5.58,9.17-1.97,4.17-3.84,8.33-5.45,12.67-2.31,6.63-3.01,13.6-3.5,20.55l3.32.11c.11-4.45.44-8.98,1.12-13.38.61-4.47,2.18-8.57,3.95-12.69,1.58-3.45,3.23-6.89,4.93-10.28.82-1.63,1.65-3.24,2.49-4.85.07-.12.14-.23.22-.34.22-.34.46-.64.69-.86.98-.91,2.22.34,3.12,1.27.62.7,1.19,1.49,1.79,2.35-.13.25-.21.43-.21.43l-.49,2.87-5.36.25-.38,2.49,3.45.07s-3.43,10.27-4.73,13.47c-1.03,2.53-2.87,6.31-3.64,10.08-.27,1.33-1.91,5.49-3.89,9.12,1.66.05,7.53-4.52,9.26-5.48-1.47.38-2.24-.86-2.75-2.91-.51-2.04.99-6.13,2.27-5.96,2.01.25,3.03,2.17,3.73,4.66.32-.26,5.87-11.05,7.92-17.3,2.49,2.81,12.12,3.38,15.7,2.49Z"/>
        <path class="cls-2" d="m150.22,26.24c1.55,4.09,2.23,9.32,1.91,13.74-.15,2.13-.53,4.06-1.15,5.6-.42,1.03-.87,2.23-1.37,3.49-1.02,2.56-2.22,5.38-3.69,7.61-.76,1.15-1.6,2.15-2.51,2.87-.43.35-.89.63-1.36.84-.95.42-2.12.6-3.36.62-1.16.03-2.37-.08-3.54-.26-3.29-.49-6.19-1.51-6.19-1.51"/>
        <path class="cls-2" d="m135.11,31.83l7.15.6s-.34-1.87-1.02-2.13c-3.15.77-6.13,1.53-6.13,1.53Z"/>
        <polygon class="cls-2" points="147.71 31.37 147.71 32.85 151.11 33.62 147.71 31.37"/>
        <path class="cls-2" d="m146.52,39.75s0,.03,0,.07c.08.78.73,7.4.64,9.14-.01.22-.03.36-.06.41-.34.42-1.53.42-2.47,0"/>
        <line class="cls-2" x1="143.28" y1="47.83" x2="141.58" y2="49.68"/>
        <line class="cls-2" x1="135.11" y1="39.07" x2="140.59" y2="38.85"/>
        <line class="cls-2" x1="148.3" y1="39.75" x2="151.11" y2="39.92"/>
        <path class="cls-2" d="m144.94,53.86c-1.18,1.2-4.68-.21-4.68-.21,0,0,3.64-1.72,4.85,0-.05.08-.1.15-.16.2"/>
        <path class="cls-2" d="m140.26,53.65s1,2.04,1.47,2.49,2.79-1.38,3.21-2.28h.01"/>
        <path class="cls-2" d="m243.06,140.06c2.34-.88,4.52-1.95,6.48-3.21"/>
        <path class="cls-2" d="m145.91,56.67h.01c.21.21,3.1,2.95,5.19,3.08,2.17.13,22.34-1.41,24.9,0,2.55,1.4,25.14,24.51,29.36,33.06,4.21,8.56,8.55,17.11,8.55,17.11,7.91.76,21.45,4.72,25.79,12.13,4.34,7.4,9.83,14.8,9.83,14.8-5.67-1.21-27.58-1.22-42.22,1.62-3.84.75-7.18,1.69-9.59,2.85,2.16.76,5.52,1.47,9.59,1.96,10.12,1.2,24.61,1.01,35.72-3.22"/>
        <path class="cls-2" d="m207.32,138.47s13.56,6.08,35.72,1.59h.02"/>
        <path class="cls-2" d="m54.08,112.96l-4.16-8.7s35.15-42.89,35.4-43.24c.18-.24,14.07-4.13,22.39-6.44,1.53-.42,2.87-.79,3.9-1.08,1.39-.38,2.22-.61,2.22-.61,4,6.18,7.24,10.94,11.83,10.43,4.6-.51,5.96-.53,9.45-2.3"/>
        <polyline class="cls-2" points="60.47 126.3 55.19 115.26 54.09 112.96"/>
        <path class="cls-2" d="m96.13,150.83c5.91-1.79,10.19-3.08,10.64-3.08"/>
        <path class="cls-2" d="m73.75,157.45c5.8-1.63,12.14-3.53,17.7-5.2,1.64-.5,3.2-.97,4.67-1.42"/>
        <path class="cls-2" d="m55.19,115.26s-6.39,3.86-12.41,9.33c-2.82,2.56-5.55,5.48-7.5,8.52-2.09,3.26-4.41,7.13-6.54,10.81-4.12,7.11-7.59,13.53-7.59,13.53,11.06,4.29,23.03,5.66,34.88,4.09,2.74-.35,5.47-.87,8.19-1.54,2.8-.69,6.07-1.57,9.53-2.54"/>
        <path class="cls-2" d="m21.15,157.45c10.9-1.36,32.17-1.87,40.86-1.7,5.79.11,18.83-3.18,27.79-6.14,4.49-1.48,7.95-2.88,8.97-3.73"/>
        <polyline class="cls-2" points="89.8 149.61 91.45 138.47 100.16 143.43 111.03 149.61 96.13 150.83 96.12 150.83"/>
        <path class="cls-2" d="m91.45,138.47c9.36-3.15,22.3-10.81,24-15.06"/>
        <path class="cls-2" d="m207.32,143.28c-2.34,3.32-5.17,6.09-9.15,7.55"/>
        <path class="cls-2" d="m42.78,124.59s8.16,7.07,14.29,6.35c6.13-.72,41.07-11.11,43.34-12.13.25-.11.6-.28,1.02-.47,2.59-1.19,8.07-3.57,12.67-2.8.77.13,1.51.34,2.21.67.6.27,1.17.62,1.7,1.07,1.18,1,2.24,1.94,3.08,2.99,2.38,2.95,3.06,6.75-.1,14.91-.89,2.32-2.1,4.99-3.67,8.1,3.07.72,16.51-4.57,16.51-4.57"/>
        <path class="cls-2" d="m122.09,135.32s15.15-3.74,17.19-6.64l-1.36,6.64s3.28.61,7.99.01c4.27-.54,9.73-2.08,14.99-5.96,1.53-6.22,2.64-11.25,3.26-16.41.5-4.22.67-8.52.49-13.64-.04-1.12-.1-2.28-.18-3.49-.85-13.44-13.88-30.7-21.06-36.28"/>
        <path class="cls-2" d="m107.71,54.58s2.12,6.36,7.74,10.1c5.62,3.75,12.73,6.34,19.66,1.03,3.34-2.29,3.57-4.51,3.58-4.7h0"/>
        <path class="cls-2" d="m135.11,65.71c7.07,7.14,14.55,14.46,16,25.19,1.45,10.72-2.48,37.8-5.2,44.43"/>
        <polyline class="cls-2" points="118.01 117.28 136.22 91.75 141.58 94.98 121.09 120.27"/>
        <path class="cls-2" d="m106.77,65.71s9.7,16.51,9.53,22.29c-.17,5.79.01,28.21.01,28.21"/>
        <path class="cls-2" d="m114.1,115.54s-1.54-12.65-7.33-17.97c-5.79-5.31-23.83-19.95-23.83-19.95l11.07-7.32s2.89,12.09,4.51,14.81"/>
        <path class="cls-2" d="m63.96,107.58s.6,7.72,12.17,8.63c11.58.9,22.86-.89,25.3,2.13"/>
        <path class="cls-2" d="m164.72,92.92c4.26-7.38,8.35-11.98,8.6-18.11,3.83,4.6,6.64,9.06,6.64,9.06l-7.62,3.45"/>
        <path class="cls-2" d="m191.71,86.56s-8.03,8.25-17.78,11.52c-2.97,1.01-6.1,1.54-9.21,1.24"/>
        <path class="cls-2" d="m173.93,98.08s15.83,12.22,24.34,13.75c5.3.96,11.18,1.45,15.65,2.29,2.7.51,4.88,1.14,6.13,2.09"/>
        <polyline class="cls-2" points="213.92 109.92 213.92 114.12 213.92 115.26"/>
        <path class="cls-2" d="m160.9,129.37s1.8,1.87,3.82,3.95c2.31,2.38,4.88,5.02,5.29,5.39,7.65-5.43,19.4-12.41,19.4-12.41-4.34.43-25.25-13.34-25.25-13.34"/>
        <polyline class="cls-2" points="189.41 126.3 189.41 138.71 170.01 138.71"/>
        <path class="cls-2" d="m189.41,138.71l8.32,2.61c.41,2.78.59,5.37.52,7.79-.01.58-.04,1.16-.09,1.72-.41,5.73-2.2,10.45-5.09,14.36l-26.04-5.02c-6.81,5.45-17.2,3.92-25.71,3.07-8,4.42-16.51,4.25-25.87,3.74l-9.53,3.24s-1.36-.51-5.51-3.07c0,0-8.32-.08-17.81-.68-10.95-.7-23.46-2.1-26.57-4.92"/>
        <path class="cls-2" d="m115.45,166.98l30.46-18.64c.27-.17.56-.35.86-.56,5.92-3.96,17.95-14.46,17.95-14.46"/>
        <path class="cls-2" d="m146.78,147.79s3.97,3.44,8.55,6.7c4.3,3.07,9.14,5.97,11.7,5.68"/>
        <path class="cls-2" d="m155.33,154.49s-10.21,7-14.01,8.75"/>
        <path class="cls-2" d="m91.45,152.24h0c.15.42,4.51,12.35,8.96,14.91"/>
        <path class="cls-2" d="m73.75,157.45h0c.23.41,4.95,8.66,8.85,9.02.03.01.07.01.1.01"/>
        <path class="cls-1" d="m54.08,112.96c-7.16-.1-24.25,8.96-26.93,15.09-2.67,6.11.04,15,1.59,15.87h.01"/>
        <line class="cls-2" x1="54.09" y1="112.96" x2="54.08" y2="112.96"/>
      </g>
    </g>
    <line class="cls-1" x1="114.09" y1="50.74" x2="113.83" y2="52.89"/>
  </g>
</svg>