<?xml version="1.0" encoding="UTF-8"?>
<svg xmlns="http://www.w3.org/2000/svg" viewBox="0 0 269.8 249.51">
  <defs>
    <style>
      .cls-1 {
        fill: #7ac6e0;
      }

      .cls-1, .cls-2, .cls-3, .cls-4, .cls-5, .cls-6, .cls-7, .cls-8, .cls-9, .cls-10, .cls-11, .cls-12, .cls-13 {
        stroke-width: 0px;
      }

      .cls-14 {
        stroke-miterlimit: 10;
      }

      .cls-14, .cls-15, .cls-16 {
        fill: none;
        stroke: #000;
      }

      .cls-2 {
        fill: #b787b7;
      }

      .cls-3 {
        fill: #e5ebd8;
      }

      .cls-15, .cls-16 {
        stroke-linecap: round;
        stroke-linejoin: round;
      }

      .cls-4 {
        fill: #333;
      }

      .cls-5 {
        fill: #ffc634;
      }

      .cls-16 {
        stroke-width: .25px;
      }

      .cls-6 {
        fill: #f3f4e9;
      }

      .cls-7 {
        fill: #d33d30;
      }

      .cls-8 {
        fill: #fffada;
      }

      .cls-9 {
        fill: #e4f4ae;
      }

      .cls-10 {
        fill: #ff543c;
      }

      .cls-11 {
        fill: #e8f4de;
      }

      .cls-12 {
        fill: #72c7c4;
      }

      .cls-13 {
        fill: #fff6dc;
      }
    </style>
  </defs>
  <g id="_レイヤー_3" data-name="レイヤー 3">
    <g>
      <g>
        <polygon class="cls-3" points="269.54 203.83 269.54 209.08 261.13 203.83 269.54 203.83"/>
        <rect class="cls-3" x="241.32" y="209.08" width="13.94" height="39.93"/>
        <polygon class="cls-3" points="252.27 203.83 255.26 209.08 241.32 209.08 238.33 203.83 252.27 203.83"/>
        <rect class="cls-3" x="217.57" y="209.08" width="10.78" height="39.93"/>
        <polygon class="cls-3" points="225.37 203.83 228.35 209.08 217.57 209.08 214.58 203.83 225.37 203.83"/>
        <rect class="cls-3" x="193.83" y="209.08" width="10.78" height="39.93"/>
        <polygon class="cls-3" points="201.62 203.83 204.61 209.08 193.83 209.08 190.84 203.83 201.62 203.83"/>
        <rect class="cls-3" x="170.08" y="209.08" width="10.78" height="39.93"/>
        <polygon class="cls-3" points="177.88 203.83 180.86 209.08 170.08 209.08 167.09 203.83 177.88 203.83"/>
        <rect class="cls-3" x="146.34" y="209.08" width="10.79" height="39.93"/>
        <polygon class="cls-3" points="154.13 203.83 157.13 209.08 146.34 209.08 143.35 203.83 154.13 203.83"/>
        <rect class="cls-3" x="122.59" y="209.08" width="10.79" height="39.93"/>
        <polygon class="cls-3" points="130.39 203.83 133.38 209.08 122.59 209.08 119.61 203.83 130.39 203.83"/>
        <rect class="cls-3" x="98.85" y="209.08" width="10.79" height="39.93"/>
        <polygon class="cls-3" points="106.64 203.83 109.63 209.08 98.85 209.08 95.86 203.83 106.64 203.83"/>
        <rect class="cls-3" x="75.1" y="209.08" width="10.79" height="39.93"/>
        <polygon class="cls-3" points="82.9 203.83 85.89 209.08 75.1 209.08 72.12 203.83 82.9 203.83"/>
        <rect class="cls-3" x="51.35" y="209.08" width="10.79" height="39.93"/>
        <polygon class="cls-3" points="59.16 203.83 62.14 209.08 51.35 209.08 48.37 203.83 59.16 203.83"/>
        <rect class="cls-3" x="27.61" y="209.08" width="10.79" height="39.93"/>
        <polygon class="cls-3" points="35.41 203.83 38.4 209.08 27.61 209.08 24.62 203.83 35.41 203.83"/>
        <rect class="cls-3" y="209.08" width="14.65" height="39.93"/>
        <polygon class="cls-3" points="11.67 203.83 14.65 209.08 0 209.08 0 203.83 11.67 203.83"/>
        <rect class="cls-7" x="255.26" y="209.08" width="14.27" height="39.93"/>
        <polygon class="cls-9" points="269.54 139.54 269.54 203.83 261.13 203.83 252.27 203.83 238.33 203.83 225.37 203.83 214.58 203.83 201.62 203.83 190.84 203.83 177.88 203.83 167.09 203.83 154.13 203.83 143.35 203.83 130.39 203.83 119.61 203.83 106.64 203.83 95.86 203.83 82.9 203.83 72.12 203.83 59.16 203.83 48.37 203.83 35.41 203.83 24.62 203.83 11.67 203.83 0 203.83 0 139.82 269.54 139.54"/>
        <polygon class="cls-8" points="269.54 138.79 269.54 139.54 0 139.82 36.94 139.54 253.77 138.79 269.54 138.79"/>
        <polygon class="cls-8" points="269.54 132.72 269.54 138.79 253.77 138.79 36.94 139.54 0 139.82 0 138.75 0 132.72 269.54 132.72"/>
        <polygon class="cls-7" points="269.54 209.08 255.26 209.08 252.27 203.83 261.13 203.83 269.54 209.08"/>
        <rect class="cls-1" x="228.35" y="209.08" width="12.97" height="39.93"/>
        <polygon class="cls-1" points="238.33 203.83 241.32 209.08 228.35 209.08 225.37 203.83 238.33 203.83"/>
        <rect class="cls-7" x="204.61" y="209.08" width="12.97" height="39.93"/>
        <polygon class="cls-7" points="214.58 203.83 217.57 209.08 204.61 209.08 201.62 203.83 214.58 203.83"/>
        <rect class="cls-1" x="180.86" y="209.08" width="12.97" height="39.93"/>
        <polygon class="cls-1" points="190.84 203.83 193.83 209.08 180.86 209.08 177.88 203.83 190.84 203.83"/>
        <rect class="cls-7" x="157.13" y="209.08" width="12.96" height="39.93"/>
        <polygon class="cls-7" points="167.09 203.83 170.08 209.08 157.13 209.08 154.13 203.83 167.09 203.83"/>
        <rect class="cls-1" x="133.38" y="209.08" width="12.96" height="39.93"/>
        <polygon class="cls-1" points="143.35 203.83 146.34 209.08 133.38 209.08 130.39 203.83 143.35 203.83"/>
        <rect class="cls-7" x="109.63" y="209.08" width="12.96" height="39.93"/>
        <polygon class="cls-7" points="119.61 203.83 122.59 209.08 109.63 209.08 106.64 203.83 119.61 203.83"/>
        <rect class="cls-1" x="85.89" y="209.08" width="12.96" height="39.93"/>
        <polygon class="cls-1" points="95.86 203.83 98.85 209.08 85.89 209.08 82.9 203.83 95.86 203.83"/>
        <rect class="cls-7" x="62.14" y="209.08" width="12.96" height="39.93"/>
        <polygon class="cls-7" points="72.12 203.83 75.1 209.08 62.14 209.08 59.16 203.83 72.12 203.83"/>
        <rect class="cls-1" x="38.4" y="209.08" width="12.96" height="39.93"/>
        <polygon class="cls-1" points="48.37 203.83 51.35 209.08 38.4 209.08 35.41 203.83 48.37 203.83"/>
        <rect class="cls-7" x="14.65" y="209.08" width="12.96" height="39.93"/>
        <polygon class="cls-7" points="24.62 203.83 27.61 209.08 14.65 209.08 11.67 203.83 24.62 203.83"/>
      </g>
      <g>
        <polyline class="cls-14" points="0 203.83 11.67 203.83 24.62 203.83 35.41 203.83 48.37 203.83 59.16 203.83 72.12 203.83 82.9 203.83 95.86 203.83 106.64 203.83 119.61 203.83 130.39 203.83 143.35 203.83 154.13 203.83 167.09 203.83 177.88 203.83 190.84 203.83 201.62 203.83 214.58 203.83 225.37 203.83 238.33 203.83 252.27 203.83 261.13 203.83 269.54 209.08"/>
        <polyline class="cls-14" points="269.54 249.01 255.26 249.01 241.32 249.01 228.35 249.01 217.57 249.01 204.61 249.01 193.83 249.01 180.86 249.01 170.08 249.01 157.13 249.01 146.34 249.01 133.38 249.01 122.59 249.01 109.63 249.01 98.85 249.01 85.89 249.01 75.1 249.01 62.14 249.01 51.35 249.01 38.4 249.01 27.61 249.01 14.65 249.01 0 249.01"/>
        <polyline class="cls-14" points="252.27 203.83 255.26 209.08 255.26 249.01"/>
        <polyline class="cls-14" points="238.33 203.83 241.32 209.08 241.32 249.01"/>
        <polyline class="cls-14" points="225.37 203.83 228.35 209.08 228.35 249.01"/>
        <polyline class="cls-14" points="214.58 203.83 217.57 209.08 217.57 249.01"/>
        <polyline class="cls-14" points="201.62 203.83 204.61 209.08 204.61 249.01"/>
        <polyline class="cls-14" points="190.84 203.83 193.83 209.08 193.83 249.01"/>
        <polyline class="cls-14" points="177.88 203.83 180.86 209.08 180.86 249.01"/>
        <polyline class="cls-14" points="167.09 203.83 170.08 209.08 170.08 249.01"/>
        <polyline class="cls-14" points="154.13 203.83 157.13 209.08 157.13 249.01"/>
        <polyline class="cls-14" points="143.35 203.83 146.34 209.08 146.34 249.01"/>
        <polyline class="cls-14" points="130.39 203.83 133.38 209.08 133.38 249.01"/>
        <polyline class="cls-14" points="119.61 203.83 122.59 209.08 122.59 249.01"/>
        <polyline class="cls-14" points="106.64 203.83 109.63 209.08 109.63 249.01"/>
        <polyline class="cls-14" points="95.86 203.83 98.85 209.08 98.85 249.01"/>
        <polyline class="cls-14" points="82.9 203.83 85.89 209.08 85.89 249.01"/>
        <polyline class="cls-14" points="72.12 203.83 75.1 209.08 75.1 249.01"/>
        <polyline class="cls-14" points="59.16 203.83 62.14 209.08 62.14 249.01"/>
        <polyline class="cls-14" points="48.37 203.83 51.35 209.08 51.35 249.01"/>
        <polyline class="cls-14" points="35.41 203.83 38.4 209.08 38.4 249.01"/>
        <polyline class="cls-14" points="24.62 203.83 27.61 209.08 27.61 249.01"/>
        <polyline class="cls-14" points="11.67 203.83 14.65 209.08 14.65 249.01"/>
        <polyline class="cls-14" points="269.54 209.08 255.26 209.08 241.32 209.08 228.35 209.08 217.57 209.08 204.61 209.08 193.83 209.08 180.86 209.08 170.08 209.08 157.13 209.08 146.34 209.08 133.38 209.08 122.59 209.08 109.63 209.08 98.85 209.08 85.89 209.08 75.1 209.08 62.14 209.08 51.35 209.08 38.4 209.08 27.61 209.08 14.65 209.08 0 209.08"/>
        <line class="cls-14" x1="261.13" y1="203.83" x2="269.54" y2="203.83"/>
        <line class="cls-14" y1="132.72" x2="269.54" y2="132.72"/>
      </g>
    </g>
  </g>
  <g id="_レイヤー_2" data-name="レイヤー 2">
    <g>
      <g>
        <path class="cls-12" d="m235.5,190.86l12.15,5.58c-2.76,2.6-7.53,5.83-18.39,9.08-.33-1.43-.87-2.8-1.57-3.85-.64-.95-4.12-2.87-9.01-5.85,0,0,10.93-.26,16.82-4.96Z"/>
        <path class="cls-12" d="m229.26,205.52c.4,1.69.5,3.45.22,4.83-2.98,0-8.05.24-13.54.23,5.79-6.44,5.96-8.83,11.75-8.91.7,1.05,1.24,2.42,1.57,3.85Z"/>
        <path class="cls-12" d="m192.57,205.52c-6.02.01-12.62-3.34-20.71-8.19v-3.24s14.13,4.79,18.34,4.69c.64,1.76,1.23,3.6,1.75,5.44.13.47.34.9.62,1.3Z"/>
        <path class="cls-12" d="m190.2,198.78c-4.21.1-18.34-4.69-18.34-4.69v-3.23s11.71,1.28,14.96,0c1.1,2.12,2.3,4.9,3.38,7.92Z"/>
        <path class="cls-12" d="m171.86,194.09v3.24c-1.96,0-10.31-5.28-10.31-5.28,5.44-.32,9.39-.78,10.31-1.19v3.23Z"/>
        <path class="cls-12" d="m184.03,186.86c.69.4,1.69,1.87,2.79,4-3.25,1.28-14.96,0-14.96,0-1.57-1.35-3.2-2.78-4.87-4.26,0,0,15.25-.76,17.04.26Z"/>
        <path class="cls-6" d="m87.28,149.52c-.56,1.41-1.05,2.59-1.29,3,0,.38-3.83,5.11-13,13.43,6.32-7.79,13.9-17.51,16.5-22.53.04.02.07.03.11.04-.3.8-.71,1.89-1.15,3.04-.38,1.01-.79,2.07-1.17,3.02Z"/>
        <path class="cls-5" d="m84.33,129.71c-.92,2.72-2.68,5.36-5.49,7.7-.64.53-1.64,1.15-2.93,1.83-2.72,1.43-6.75,3.13-11.49,4.86-9.25,3.39-21.23,6.92-31.53,8.85-5.11.96-9.8,1.53-13.54,1.49,0,0,.63-1.59,1.8-4.28,0,0,27.31-1.4,63.18-20.45Z"/>
        <path class="cls-5" d="m22.46,147.24c6.54-.75,28.68-2.24,61.87-22.45h.8c0,.92-.07,1.87-.26,2.82-.12.7-.3,1.4-.54,2.1-35.87,19.05-63.18,20.45-63.18,20.45.38-.87.81-1.85,1.29-2.93h.02Z"/>
        <path class="cls-5" d="m84.33,124.79c-33.19,20.21-55.33,21.7-61.87,22.45h-.02c.41-.91.85-1.89,1.33-2.92,13.07-1.5,30.05-3.08,60.56-24.44.51,1.57.79,3.22.8,4.9h-.8Z"/>
        <path class="cls-11" d="m153.57,8.4v165.68c-1.52-1.48-3-2.96-4.44-4.41V7.96h4.44v.44Z"/>
        <path class="cls-11" d="m153.57,174.08V7.96h4.31v170.26c-1.45-1.37-2.89-2.76-4.31-4.14Z"/>
        <path class="cls-12" d="m153.57,174.08c1.42,1.38,2.86,2.77,4.31,4.14,3.05,2.89,6.13,5.72,9.11,8.38,1.67,1.48,3.3,2.91,4.87,4.26-.92.41-4.87.87-10.31,1.19-10.51.63-26.57.72-37.01-1.19-10.93-1.99-12.95-9.27-13.15-14.36-.09-2.29.18-4.13.18-4.87V55.36h37.56v114.31c1.44,1.45,2.92,2.93,4.44,4.41Z"/>
        <polygon class="cls-10" points="247.66 7.96 247.66 8.9 247.66 55.36 247.65 55.36 202.81 55.36 202.81 8.48 202.81 7.96 247.66 7.96"/>
        <path class="cls-12" d="m235.5,190.86c-5.89,4.7-16.82,4.96-16.82,4.96-4.49-2.73-10.15-6.35-15.87-10.94V55.36h44.85v121.3s-.01,19.78-.01,19.78l-12.15-5.58Z"/>
        <path class="cls-12" d="m194.59,177.53c1.35,1.36,2.73,2.66,4.12,3.89,1.36,1.22,2.73,2.37,4.1,3.46,5.72,4.59,11.38,8.21,15.87,10.94,4.89,2.98,8.37,4.9,9.01,5.85-5.79.08-5.96,2.47-11.75,8.91-9.59-.03-20.42-.83-23.37-5.06-.28-.4-.49-.83-.62-1.3-.52-1.84-1.11-3.68-1.75-5.44-1.08-3.02-2.28-5.8-3.38-7.92-1.1-2.13-2.1-3.6-2.79-4-1.79-1.02-17.04-.26-17.04-.26-2.98-2.66-6.06-5.49-9.11-8.38V55.36h36.71v122.17Z"/>
        <path class="cls-11" d="m202.81,55.36v129.52c-1.37-1.09-2.74-2.24-4.1-3.46l.05-.05V7.96h4.05v47.4Z"/>
        <path class="cls-11" d="m198.76,8.44v172.93l-.05.05c-1.39-1.23-2.77-2.53-4.12-3.89V7.96h4.17v.48Z"/>
        <polygon class="cls-10" points="194.59 8.4 194.59 55.36 158.61 55.36 157.88 55.36 157.88 8.02 157.88 7.96 194.59 7.96 194.59 8.4"/>
        <path class="cls-10" d="m111.57,55.36V7.96h37.56v47.4h-37.56Z"/>
        <path class="cls-5" d="m111.57,141.09v3.86h-.22c-6.78,5.99-22.96,5.12-24,4.6l-.07-.03c.38-.95.79-2.01,1.17-3.02,2.53.92,17.39-1.16,22.95-5.41h.17Z"/>
        <path class="cls-5" d="m111.57,111.54v5.96h-.38l-.75.54c-6.92,2.15-12.42,1.82-16.86.35-5.83-1.93-9.82-5.84-12.77-8.71h0s2.71-1.65,6.11-3.9c0,0,6.5,6.14,11.15,6.78s11.81.26,13.21-1.02h.3Z"/>
        <path class="cls-5" d="m111.57,108.03v3.51h-.3c-1.4,1.28-8.56,1.66-13.21,1.02s-11.15-6.78-11.15-6.78c1.01-.66,2.08-1.37,3.15-2.11,1,.82,5.54,4.9,9.8,5.55,3.65.54,8.83.23,11.45-1.19h.26Z"/>
        <path class="cls-5" d="m111.57,104.52v3.51h-.26c-2.62,1.42-7.8,1.73-11.45,1.19-4.26-.65-8.8-4.73-9.8-5.55,1.03-.71,2.06-1.43,3.06-2.16,3.08,2.5,8.62,6.92,18.24,3.01h.21Z"/>
        <path class="cls-4" d="m111.57,61.7v11.37c-1.68,0-7.62-5.78-14.09-11.37,0,0-1.45-.8-6.39-1.48-1.35.84-8.32,7.61-12.07,9.65-.04-.16-.07-.31-.1-.47-.21-1.07-.24-2.15-.08-3.31.76-5.61,1.02-13.97,18.57-12.82,2.89.66,5.37,1.74,7.4,2.92,4.43,2.54,6.76,5.51,6.76,5.51Z"/>
        <path class="cls-10" d="m104.81,56.18s4.52-2.21,6.76-2.47v7.99s-2.33-2.97-6.76-5.51h0Z"/>
        <path class="cls-10" d="m111.57,171.63c0,.74-.27,2.58-.18,4.87l-.89.02c-1.59.09-3.08.14-4.47.14-6.34-8.61-11.83-15.08-10.02-19.84,4.19.51,9.27,4.1,9.27,4.1-.2.77-.5,1.53-.93,2.3-1.94,3.47,2.14,9.22,6.15,8.41h1.07Z"/>
        <path class="cls-10" d="m106.03,176.66c-14.28.01-18.38-4.53-19.55-11.29-.23-1.33-.35-2.74-.41-4.22-.11-2.69-.03-5.6-.08-8.63,0,0,10.03,2.27,18.31.02l.05.17c1.01,2.8,1.63,5.51.93,8.21,0,0-5.08-3.59-9.27-4.1-1.81,4.76,3.68,11.23,10.02,19.84Z"/>
        <path class="cls-10" d="m105.28,160.92c.7-2.7.08-5.41-.93-8.21l-.05-.17c2.64-.71,5.1-1.88,7-3.72h.27v22.81h-1.07c-4.01.81-8.09-4.94-6.15-8.41.43-.77.73-1.53.93-2.3Z"/>
        <path class="cls-10" d="m93.58,118.39c4.44,1.47,9.94,1.8,16.86-.35-9.16,6.55-16.08,8.76-20.39,9.44-3.35.54-5.12.14-5.12.14,0,0,6.67.18,8.65-9.23Z"/>
        <path class="cls-2" d="m92.24,89.39l.21-.34c1.53.93,2.83,1.53,3.42,1.68,2.13.55,3.76.22,5.16-.09,0,0,.02-.01.05-.02,1.71-.38,3.07-.71,4.57.67,3.15,2.89,5.78,7.74,5.78,7.74h.14v5.49h-.21c-9.62,3.91-15.16-.51-18.24-3.01-1,.73-2.03,1.45-3.06,2.16-1.07.74-2.14,1.45-3.15,2.11-3.4,2.25-6.11,3.89-6.11,3.89h0c.09.27,1.66,4.47,3.52,10.21-30.51,21.36-47.49,22.94-60.56,24.44,1.46-3.16,3.24-6.86,5.28-10.82,2.39-4.64,5.02-7.39,8.26-9.21,3.29-1.86,7.21-2.75,12.14-3.69,2.31-.44,4.85-.89,7.65-1.46l.05.05c.6-.61,1.26-1.27,1.97-1.97.92-.93,1.93-1.94,3.01-3,.86-.85,1.76-1.73,2.7-2.64,8.09-7.81,18.89-17.54,27.41-22.19Z"/>
        <path class="cls-2" d="m92.45,89.05l-.21.34c-8.52,4.65-19.32,14.38-27.41,22.19l-11.43-15.45c8.02-5.37,19.61-11.23,29.55-17.26l.73-.06c1,1.54,2.15,3.28,3.46,5.29.37.58.75,1.18,1.15,1.8,1.35,1.26,2.84,2.33,4.16,3.15Z"/>
        <path class="cls-5" d="m89.6,143.46c3.35,1.42,17.35-3.59,21.85-6.24h.12v3.87h-.17c-5.56,4.25-20.42,6.33-22.95,5.41.44-1.15.85-2.24,1.15-3.04Z"/>
        <path class="cls-6" d="m90.65,132.73c.32,3.74.47,8.34-.58,9.45-1.16,1.23-2.96,2.75-5.14,4.42,0,.01-.01.01-.01.02-8.7,6.68-23.53,15.9-28.93,19.21-1.29.79-2.04,1.24-2.04,1.24l-1.41-4.29c7.42-4.62,21.55-20.1,25.83-22.61.14-.08.26-.15.38-.2,3.75-1.7,11.9-7.24,11.9-7.24Z"/>
        <path class="cls-4" d="m89.63,63.7c.73-.42,1.49-.48,1.69-.13.21.35-.22.98-.96,1.4-.73.42-1.49.48-1.69.13s.23-.98.96-1.4Z"/>
        <path class="cls-2" d="m90.07,142.18c1.05-1.11.9-5.71.58-9.45-.24-2.81-.58-5.14-.58-5.14l-.02-.11c4.31-.68,11.23-2.89,20.39-9.44l.75-.54h.38v19.72h-.12c-4.5,2.65-18.5,7.66-21.85,6.24.21-.57.36-.99.43-1.18.03-.06.04-.1.04-.1Z"/>
        <path class="cls-13" d="m89.92,83.25l-2.78.85c-1.31-2.01-2.46-3.75-3.46-5.29-.43-.66-.83-1.29-1.2-1.88l1.85-.11,1.91-1.5h2.68s.72,6.92,1,7.93Z"/>
        <path class="cls-4" d="m87.63,5.6h160.02v2.36s-44.84,0-44.84,0h-120.78s-3.77.17-5.94.56c-2.16.39-6.33-3.71-9.02-5.93s-1.16-2.35,1.14-1.85,15.46,4.75,19.42,4.86Z"/>
        <path class="cls-5" d="m87.35,149.55c1.04.52,17.22,1.39,24-4.6h.22v3.87h-.27c-1.9,1.84-4.36,3.01-7,3.72-8.28,2.25-18.31-.02-18.31-.02.24-.41.73-1.59,1.29-3l.07.03Z"/>
        <path class="cls-6" d="m86.07,161.15l-15.61,16.4-.57-.26-4.54-2.11c1.76-2.1,4.55-5.44,7.64-9.23,9.17-8.32,13-13.05,13-13.43.05,3.03-.03,5.94.08,8.63Z"/>
        <path class="cls-6" d="m84.93,146.6c2.18-1.67,3.98-3.19,5.14-4.42,0,0-.01.04-.04.1-.14.34-.32.72-.54,1.14-2.6,5.02-10.18,14.74-16.5,22.53-3.09,3.79-5.88,7.13-7.64,9.23-1.24,1.47-1.99,2.34-2,2.36-.09.13-6.21-3.32-6.21-3.32l12.19-11.6h-.01c5.72-4.06,12.09-9.6,15.6-16,0-.01.01-.01.01-.02Z"/>
        <path class="cls-10" d="m84.87,127.61c.19-.95.27-1.9.26-2.83-.01-1.68-.29-3.33-.8-4.9-1.86-5.74-3.43-9.94-3.52-10.2,2.95,2.87,6.94,6.78,12.77,8.71-1.98,9.41-8.65,9.23-8.65,9.23h-.06Z"/>
        <path class="cls-4" d="m84.42,68.43c.25.32-.07,1.01-.73,1.54s-1.39.71-1.65.4c-.26-.32.07-1.01.72-1.54.66-.53,1.4-.71,1.66-.4Z"/>
        <path class="cls-6" d="m84.92,146.62c-3.51,6.4-9.88,11.94-15.6,15.99-6.3,4.48-11.8,7.14-11.8,7.14l-1.53-3.92c5.4-3.31,20.23-12.53,28.93-19.21Z"/>
        <path class="cls-13" d="m84.42,68.43c-.26-.31-1-.13-1.66.4-.65.53-.98,1.22-.72,1.54.26.31.99.13,1.65-.4s.98-1.22.73-1.54Zm5.21-4.73c-.73.42-1.16,1.05-.96,1.4s.96.29,1.69-.13c.74-.42,1.17-1.05.96-1.4-.2-.35-.96-.29-1.69.13Zm-7.15,13.23c-1.81-2.86-2.97-5-3.46-7.06,3.75-2.04,10.72-8.81,12.07-9.65,4.94.68,6.39,1.48,6.39,1.48,6.47,5.59,12.41,11.37,14.09,11.37v25.96h-.14s-2.63-4.85-5.78-7.74c-1.5-1.38-2.86-1.05-4.57-.67-.03,0-.05.02-.05.02-1.4.31-3.03.64-5.16.09-.59-.15-1.89-.75-3.42-1.68-1.32-.82-2.81-1.89-4.16-3.15-.4-.62-.78-1.22-1.15-1.8l2.78-.85c-.28-1.01-1-7.93-1-7.93h-2.68l-1.91,1.5-1.85.11Zm14.9,7.74h-1.4l-.42.83h-.73l-.48,1.02c1.69,1.05,3.03.89,3.03-1.85Z"/>
        <path class="cls-10" d="m78.84,137.41c2.81-2.34,4.57-4.98,5.49-7.7.24-.7.42-1.4.54-2.1h.06s1.77.41,5.12-.13l.02.11s.34,2.33.58,5.14c0,0-8.15,5.54-11.9,7.24-.12.05-.24.12-.38.2l-2.46-.93c1.29-.68,2.29-1.3,2.93-1.83Z"/>
        <path class="cls-10" d="m52.74,96.57s13.6-21.21,26.17-27.17h.01c.03.16.06.31.1.47.49,2.06,1.65,4.2,3.46,7.06.37.59.77,1.22,1.2,1.88l-.73.06c-9.94,6.03-21.53,11.89-29.55,17.26-.22.14-.45.29-.66.44Z"/>
        <path class="cls-6" d="m69.77,177.55l.12-.26.57.26,15.61-16.4c.06,1.48.18,2.89.41,4.22-1.93,2.13-10.45,14.85-10.45,14.85l-7.4-.64,1.14-2.03Z"/>
        <path class="cls-5" d="m53.4,96.13l11.43,15.45c-.94.91-1.84,1.79-2.7,2.64l-11.05-16.48c.53-.39,1.08-.78,1.66-1.17.21-.15.44-.3.66-.44Z"/>
        <path class="cls-5" d="m51.08,97.74l11.05,16.48c-1.08,1.06-2.09,2.07-3.01,3h-.01s-8.03-11.71-8.03-11.71l-3.45-5.02c1-.91,2.16-1.82,3.45-2.75Z"/>
        <path class="cls-5" d="m59.11,117.21h.01c-.71.71-1.37,1.37-1.97,1.98l-.05-.05c-2.8.57-5.34,1.02-7.65,1.46l-7.36-12.75h.01c.32-.17,6.06-2.98,8.98-2.34l8.03,11.7Z"/>
        <path class="cls-10" d="m64.42,144.1c-2.3,2.69-13.54,11.23-16.35,12.72s-11.23-1.24-15.18-3.87c10.3-1.93,22.28-5.46,31.53-8.85Z"/>
        <path class="cls-5" d="m47.63,100.49l3.45,5.02c-2.92-.64-8.66,2.17-8.98,2.33,1.07-2.1,2.38-4.11,3.97-5.83.46-.5.99-1.01,1.56-1.52Z"/>
        <path class="cls-10" d="m37.22,124.14c.51-3.05,1.68-10.09,4.87-16.29l7.36,12.75c-4.93.94-8.85,1.83-12.14,3.69l-.09-.15Z"/>
        <path class="cls-10" d="m19.35,154.44c3.74.04,8.43-.53,13.54-1.49,3.95,2.63,12.37,5.36,15.18,3.87s14.05-10.03,16.35-12.72c4.74-1.73,8.77-3.43,11.49-4.86l2.46.93c-4.28,2.51-18.41,17.99-25.83,22.61-4.94,2.04-24.85-3.41-33.19-8.34Z"/>
      </g>
      <g>
        <path class="cls-15" d="m101.08,90.62c1.71-.38,3.07-.71,4.57.67,3.15,2.89,5.78,7.74,5.78,7.74"/>
        <path class="cls-15" d="m111.57,61.7s-2.33-2.97-6.76-5.51c-2.03-1.18-4.51-2.26-7.4-2.92-17.55-1.15-17.81,7.21-18.57,12.82-.16,1.16-.13,2.24.08,3.31.03.16.06.31.1.47.49,2.06,1.65,4.2,3.46,7.06.37.59.77,1.22,1.2,1.88,1,1.54,2.15,3.28,3.46,5.29.37.58.75,1.18,1.15,1.8,1.35,1.26,2.84,2.33,4.16,3.15,1.53.93,2.83,1.53,3.42,1.68,2.13.55,3.76.22,5.16-.09"/>
        <path class="cls-15" d="m78.91,69.93s.07-.04.11-.06c3.75-2.04,10.72-8.81,12.07-9.65,4.94.68,6.39,1.48,6.39,1.48,6.47,5.59,12.41,11.37,14.09,11.37"/>
        <line class="cls-15" x1="84.33" y1="76.82" x2="86.24" y2="75.32"/>
        <line class="cls-15" x1="91.86" y1="71.54" x2="94.67" y2="70.56"/>
        <path class="cls-15" d="m88.92,75.32s.72,6.92,1,7.93c.01.03.02.06.03.08.25.64,3.31-.64,3.31-.64"/>
        <line class="cls-15" x1="92.5" y1="80.39" x2="94.67" y2="81.29"/>
        <path class="cls-15" d="m97.38,84.67h-1.4l-.42.83h-.73l-.48,1.02c1.69,1.05,3.03.89,3.03-1.85Z"/>
        <line class="cls-16" x1="96.01" y1="86.23" x2="96.42" y2="85.9"/>
        <path class="cls-15" d="m42.09,107.85c-3.19,6.2-4.36,13.24-4.87,16.29"/>
        <path class="cls-15" d="m82.95,78.87c-9.94,6.03-21.53,11.89-29.55,17.26-.22.14-.45.29-.66.44-.58.39-1.13.78-1.66,1.17-1.29.93-2.45,1.84-3.45,2.75-.57.51-1.1,1.02-1.56,1.52-1.59,1.72-2.9,3.73-3.97,5.83"/>
        <path class="cls-15" d="m92.24,89.39c-8.52,4.65-19.32,14.38-27.41,22.19-.94.91-1.84,1.79-2.7,2.64-1.08,1.06-2.09,2.07-3.01,3-.71.7-1.37,1.36-1.97,1.97-1.58,1.59-2.76,2.79-3.42,3.42-3.74,3.57-8.34,7.48-13.1,8"/>
        <path class="cls-15" d="m80.8,109.67s2.71-1.64,6.11-3.89c1.01-.66,2.08-1.37,3.15-2.11,1.03-.71,2.06-1.43,3.06-2.16,2.8-2.05,5.32-4.09,6.57-5.63"/>
        <path class="cls-15" d="m57.1,119.14c-2.8.57-5.34,1.02-7.65,1.46-4.93.94-8.85,1.83-12.14,3.69-3.24,1.82-5.87,4.57-8.26,9.21-2.04,3.96-3.82,7.66-5.28,10.82-.48,1.03-.92,2.01-1.33,2.91-.48,1.08-.91,2.06-1.29,2.93-1.17,2.69-1.8,4.28-1.8,4.28,3.74.04,8.43-.53,13.54-1.49,10.3-1.93,22.28-5.46,31.53-8.85,4.74-1.73,8.77-3.43,11.49-4.86,1.29-.68,2.29-1.3,2.93-1.83,2.81-2.34,4.57-4.98,5.49-7.7.24-.7.42-1.4.54-2.1.19-.95.27-1.9.26-2.83-.01-1.68-.29-3.33-.8-4.9-1.86-5.74-3.43-9.94-3.52-10.2"/>
        <path class="cls-15" d="m19.35,154.44c8.34,4.93,28.25,10.38,33.19,8.34,7.42-4.62,21.55-20.1,25.83-22.61.14-.08.26-.15.38-.2,3.75-1.7,11.9-7.24,11.9-7.24"/>
        <path class="cls-15" d="m111.19,117.5l-.75.54c-9.16,6.55-16.08,8.76-20.39,9.44-3.35.54-5.12.14-5.12.14,0,0,6.67.18,8.65-9.23"/>
        <path class="cls-15" d="m84.93,146.6c2.18-1.67,3.98-3.19,5.14-4.42,1.05-1.11.9-5.71.58-9.45-.24-2.81-.58-5.14-.58-5.14"/>
        <path class="cls-15" d="m52.54,162.78l1.41,4.29s.75-.45,2.04-1.24c5.4-3.31,20.23-12.53,28.93-19.21"/>
        <path class="cls-15" d="m55.99,165.83l1.53,3.92s5.5-2.66,11.8-7.14c5.72-4.05,12.09-9.59,15.6-15.99,0-.01.01-.01.01-.02"/>
        <polyline class="cls-15" points="65.35 175.18 69.89 177.29 70.46 177.55 86.07 161.15"/>
        <path class="cls-15" d="m72.99,165.95c9.17-8.32,13-13.05,13-13.43.05,3.03-.03,5.94.08,8.63.06,1.48.18,2.89.41,4.22,1.17,6.76,5.27,11.3,19.55,11.29,1.39,0,2.88-.05,4.47-.14"/>
        <path class="cls-15" d="m69.77,177.55l-1.14,2.03,7.4.64s8.52-12.72,10.45-14.85"/>
        <path class="cls-15" d="m111.57,7.92v163.71c0,.74-.27,2.58-.18,4.87.2,5.09,2.22,12.37,13.15,14.36,10.44,1.91,26.5,1.82,37.01,1.19,5.44-.32,9.39-.78,10.31-1.19-1.57-1.35-3.2-2.78-4.87-4.26-2.98-2.66-6.06-5.49-9.11-8.38-1.45-1.37-2.89-2.76-4.31-4.14-1.52-1.48-3-2.96-4.44-4.41-.49-.49-.96-.98-1.42-1.46-7.94-8.16-14.13-15.52-15-19.03"/>
        <path class="cls-15" d="m138.5,122.63s6.13,27.55,7.15,33.34c1.02,5.78,1.05,11.22,2.06,12.24"/>
        <path class="cls-15" d="m247.66,7.96H82.03s-3.77.17-5.94.56c-2.16.39-6.33-3.71-9.02-5.93s-1.16-2.35,1.14-1.85,15.46,4.75,19.42,4.86h160.02v2.36Z"/>
        <polyline class="cls-15" points="153.57 8.4 153.57 174.08 153.57 174.09"/>
        <polyline class="cls-15" points="157.88 178.22 157.88 55.36 157.88 8.02"/>
        <polyline class="cls-15" points="149.13 7.92 149.13 7.96 149.13 55.36 149.13 169.67"/>
        <polyline class="cls-15" points="194.59 8.4 194.59 55.36 194.59 177.53"/>
        <path class="cls-15" d="m182.75,99.66s-3.32,62.2,10.98,77c.28.29.57.58.86.87,1.35,1.36,2.73,2.66,4.12,3.89,1.36,1.22,2.73,2.37,4.1,3.46,5.72,4.59,11.38,8.21,15.87,10.94,4.89,2.98,8.37,4.9,9.01,5.85.7,1.05,1.24,2.42,1.57,3.85.4,1.69.5,3.45.22,4.83-2.98,0-8.05.24-13.54.23-9.59-.03-20.42-.83-23.37-5.06-.28-.4-.49-.83-.62-1.3-.52-1.84-1.11-3.68-1.75-5.44-1.08-3.02-2.28-5.8-3.38-7.92-1.1-2.13-2.1-3.6-2.79-4-1.79-1.02-17.04-.26-17.04-.26"/>
        <path class="cls-15" d="m161.55,192.05s8.35,5.28,10.31,5.28c8.09,4.85,14.69,8.2,20.71,8.19"/>
        <path class="cls-15" d="m171.86,197.33v-6.47s11.71,1.28,14.96,0"/>
        <path class="cls-15" d="m171.86,194.09s14.13,4.79,18.34,4.69"/>
        <path class="cls-15" d="m215.94,210.58c5.79-6.44,5.96-8.83,11.75-8.91"/>
        <line class="cls-15" x1="198.76" y1="8.44" x2="198.76" y2="181.37"/>
        <polyline class="cls-15" points="202.81 184.88 202.81 55.36 202.81 8.48"/>
        <polyline class="cls-15" points="217.48 182.58 235.5 190.86 247.65 196.44 247.65 176.66 247.66 55.36 247.66 8.9"/>
        <line class="cls-15" x1="112.04" y1="55.36" x2="148.13" y2="55.36"/>
        <line class="cls-15" x1="158.61" y1="55.36" x2="194.59" y2="55.36"/>
        <line class="cls-15" x1="202.81" y1="55.36" x2="247.65" y2="55.36"/>
        <path class="cls-15" d="m229.25,205.52h.01c10.86-3.25,15.63-6.48,18.39-9.08"/>
        <path class="cls-15" d="m218.68,195.82s10.93-.26,16.82-4.96"/>
        <path class="cls-15" d="m230.75,198.79s5.8-.03,8.85-2.35"/>
        <path class="cls-15" d="m101.03,90.64s.02-.01.05-.02c.5-.25,4.47-2.32,4.95-4.72"/>
        <path class="cls-15" d="m80.8,109.67h0c2.95,2.88,6.94,6.79,12.77,8.72,4.44,1.47,9.94,1.8,16.86-.35"/>
        <path class="cls-15" d="m86.91,105.78s6.5,6.14,11.15,6.78,11.81.26,13.21-1.02"/>
        <path class="cls-15" d="m90.02,103.64s.02.02.04.03c1,.82,5.54,4.9,9.8,5.55,3.65.54,8.83.23,11.45-1.19"/>
        <path class="cls-15" d="m93.12,101.51c3.08,2.5,8.62,6.92,18.24,3.01"/>
        <path class="cls-15" d="m23.77,144.32c13.07-1.5,30.05-3.08,60.56-24.44"/>
        <path class="cls-15" d="m22.46,147.24c6.54-.75,28.68-2.24,61.87-22.45"/>
        <path class="cls-15" d="m21.15,150.16s27.31-1.4,63.18-20.45"/>
        <path class="cls-15" d="m52.74,96.57s13.6-21.21,26.17-27.17"/>
        <path class="cls-15" d="m89.49,143.42s.07.03.11.04c3.35,1.42,17.35-3.59,21.85-6.24"/>
        <path class="cls-15" d="m88.32,146.45s.08.04.13.05c2.53.92,17.39-1.16,22.95-5.41"/>
        <path class="cls-15" d="m87.35,149.55c1.04.52,17.22,1.39,24-4.6"/>
        <path class="cls-15" d="m90.07,142.18s-.01.04-.04.1c-.07.19-.22.61-.43,1.18-.3.8-.71,1.89-1.15,3.04-.38,1.01-.79,2.07-1.17,3.02-.56,1.41-1.05,2.59-1.29,3,0,0,10.03,2.27,18.31.02,2.64-.71,5.1-1.88,7-3.72"/>
        <path class="cls-15" d="m69.33,162.62l-12.19,11.6s6.12,3.45,6.21,3.32c.01-.02.76-.89,2-2.36,1.76-2.1,4.55-5.44,7.64-9.23,6.32-7.79,13.9-17.51,16.5-22.53.22-.42.4-.8.54-1.14"/>
        <path class="cls-15" d="m106.03,176.66c-6.34-8.61-11.83-15.08-10.02-19.84,4.19.51,9.27,4.1,9.27,4.1"/>
        <path class="cls-15" d="m104.35,152.71c1.01,2.8,1.63,5.51.93,8.21-.2.77-.5,1.53-.93,2.3-1.94,3.47,2.14,9.22,6.15,8.41"/>
        <path class="cls-15" d="m32.89,152.95c3.95,2.63,12.37,5.36,15.18,3.87s14.05-10.03,16.35-12.72"/>
        <path class="cls-15" d="m49.45,120.6l-7.36-12.75h.01c.32-.17,6.06-2.98,8.98-2.34"/>
        <line class="cls-15" x1="53.4" y1="96.13" x2="64.83" y2="111.58"/>
        <polyline class="cls-15" points="47.63 100.49 51.08 105.51 59.11 117.21"/>
        <line class="cls-15" x1="51.08" y1="97.74" x2="62.13" y2="114.22"/>
        <path class="cls-15" d="m91.32,63.57c.21.35-.22.98-.96,1.4-.73.42-1.49.48-1.69.13s.23-.98.96-1.4,1.49-.48,1.69-.13Z"/>
        <path class="cls-15" d="m84.42,68.43c.25.32-.07,1.01-.73,1.54s-1.39.71-1.65.4c-.26-.32.07-1.01.72-1.54.66-.53,1.4-.71,1.66-.4Z"/>
        <path class="cls-15" d="m104.81,56.18s4.52-2.21,6.76-2.47"/>
      </g>
    </g>
  </g>
</svg>