<?xml version="1.0" encoding="utf-8"?>
<!-- Generator: Adobe Illustrator 28.0.0, SVG Export Plug-In . SVG Version: 6.00 Build 0)  -->
<svg version="1.1" id="レイヤー_1" xmlns="http://www.w3.org/2000/svg" xmlns:xlink="http://www.w3.org/1999/xlink" x="0px"
	 y="0px" viewBox="0 0 269.8 249.5" style="enable-background:new 0 0 269.8 249.5;" xml:space="preserve">
<style type="text/css">
	.st0{fill:#E5EBD8;}
	.st1{fill:#D33D30;}
	.st2{fill:#E4F4AE;}
	.st3{fill:#FFFADA;}
	.st4{fill:#7AC6E0;}
	.st5{fill:none;stroke:#000000;stroke-miterlimit:10;}
	.st6{fill:#72C7C4;}
	.st7{fill:#F3F4E9;}
	.st8{fill:#FFC634;}
	.st9{fill:#E8F4DE;}
	.st10{fill:#FF543C;}
	.st11{fill:#333333;}
	.st12{fill:#B787B7;}
	.st13{fill:#FFF6DC;}
	.st14{fill:none;stroke:#000000;stroke-linecap:round;stroke-linejoin:round;}
	.st15{fill:#E61300;stroke:#000000;stroke-width:0.75;stroke-linecap:round;stroke-linejoin:round;}
	.st16{fill:none;stroke:#000000;stroke-width:0.25;stroke-linecap:round;stroke-linejoin:round;}
</style>
<g id="_レイヤー_3">
	<g>
		<g>
			<polygon class="st0" points="269.5,203.8 269.5,209.1 261.1,203.8 			"/>
			<rect x="241.3" y="209.1" class="st0" width="13.9" height="39.9"/>
			<polygon class="st0" points="252.3,203.8 255.3,209.1 241.3,209.1 238.3,203.8 			"/>
			<rect x="217.6" y="209.1" class="st0" width="10.8" height="39.9"/>
			<polygon class="st0" points="225.4,203.8 228.4,209.1 217.6,209.1 214.6,203.8 			"/>
			<rect x="193.8" y="209.1" class="st0" width="10.8" height="39.9"/>
			<polygon class="st0" points="201.6,203.8 204.6,209.1 193.8,209.1 190.8,203.8 			"/>
			<rect x="170.1" y="209.1" class="st0" width="10.8" height="39.9"/>
			<polygon class="st0" points="177.9,203.8 180.9,209.1 170.1,209.1 167.1,203.8 			"/>
			<rect x="146.3" y="209.1" class="st0" width="10.8" height="39.9"/>
			<polygon class="st0" points="154.1,203.8 157.1,209.1 146.3,209.1 143.4,203.8 			"/>
			<rect x="122.6" y="209.1" class="st0" width="10.8" height="39.9"/>
			<polygon class="st0" points="130.4,203.8 133.4,209.1 122.6,209.1 119.6,203.8 			"/>
			<rect x="98.8" y="209.1" class="st0" width="10.8" height="39.9"/>
			<polygon class="st0" points="106.6,203.8 109.6,209.1 98.8,209.1 95.9,203.8 			"/>
			<rect x="75.1" y="209.1" class="st0" width="10.8" height="39.9"/>
			<polygon class="st0" points="82.9,203.8 85.9,209.1 75.1,209.1 72.1,203.8 			"/>
			<rect x="51.3" y="209.1" class="st0" width="10.8" height="39.9"/>
			<polygon class="st0" points="59.2,203.8 62.1,209.1 51.3,209.1 48.4,203.8 			"/>
			<rect x="27.6" y="209.1" class="st0" width="10.8" height="39.9"/>
			<polygon class="st0" points="35.4,203.8 38.4,209.1 27.6,209.1 24.6,203.8 			"/>
			<rect y="209.1" class="st0" width="14.6" height="39.9"/>
			<polygon class="st0" points="11.7,203.8 14.6,209.1 0,209.1 0,203.8 			"/>
			<rect x="255.3" y="209.1" class="st1" width="14.3" height="39.9"/>
			<polygon class="st2" points="269.5,139.5 269.5,203.8 261.1,203.8 252.3,203.8 238.3,203.8 225.4,203.8 214.6,203.8 201.6,203.8 
				190.8,203.8 177.9,203.8 167.1,203.8 154.1,203.8 143.4,203.8 130.4,203.8 119.6,203.8 106.6,203.8 95.9,203.8 82.9,203.8 
				72.1,203.8 59.2,203.8 48.4,203.8 35.4,203.8 24.6,203.8 11.7,203.8 0,203.8 0,139.8 			"/>
			<polygon class="st3" points="269.5,138.8 269.5,139.5 0,139.8 36.9,139.5 253.8,138.8 			"/>
			<polygon class="st3" points="269.5,132.7 269.5,138.8 253.8,138.8 36.9,139.5 0,139.8 0,138.8 0,132.7 			"/>
			<polygon class="st1" points="269.5,209.1 255.3,209.1 252.3,203.8 261.1,203.8 			"/>
			<rect x="228.4" y="209.1" class="st4" width="13" height="39.9"/>
			<polygon class="st4" points="238.3,203.8 241.3,209.1 228.4,209.1 225.4,203.8 			"/>
			<rect x="204.6" y="209.1" class="st1" width="13" height="39.9"/>
			<polygon class="st1" points="214.6,203.8 217.6,209.1 204.6,209.1 201.6,203.8 			"/>
			<rect x="180.9" y="209.1" class="st4" width="13" height="39.9"/>
			<polygon class="st4" points="190.8,203.8 193.8,209.1 180.9,209.1 177.9,203.8 			"/>
			<rect x="157.1" y="209.1" class="st1" width="13" height="39.9"/>
			<polygon class="st1" points="167.1,203.8 170.1,209.1 157.1,209.1 154.1,203.8 			"/>
			<rect x="133.4" y="209.1" class="st4" width="13" height="39.9"/>
			<polygon class="st4" points="143.4,203.8 146.3,209.1 133.4,209.1 130.4,203.8 			"/>
			<rect x="109.6" y="209.1" class="st1" width="13" height="39.9"/>
			<polygon class="st1" points="119.6,203.8 122.6,209.1 109.6,209.1 106.6,203.8 			"/>
			<rect x="85.9" y="209.1" class="st4" width="13" height="39.9"/>
			<polygon class="st4" points="95.9,203.8 98.8,209.1 85.9,209.1 82.9,203.8 			"/>
			<rect x="62.1" y="209.1" class="st1" width="13" height="39.9"/>
			<polygon class="st1" points="72.1,203.8 75.1,209.1 62.1,209.1 59.2,203.8 			"/>
			<rect x="38.4" y="209.1" class="st4" width="13" height="39.9"/>
			<polygon class="st4" points="48.4,203.8 51.3,209.1 38.4,209.1 35.4,203.8 			"/>
			<rect x="14.6" y="209.1" class="st1" width="13" height="39.9"/>
			<polygon class="st1" points="24.6,203.8 27.6,209.1 14.6,209.1 11.7,203.8 			"/>
		</g>
		<g>
			<polyline class="st5" points="0,203.8 11.7,203.8 24.6,203.8 35.4,203.8 48.4,203.8 59.2,203.8 72.1,203.8 82.9,203.8 
				95.9,203.8 106.6,203.8 119.6,203.8 130.4,203.8 143.4,203.8 154.1,203.8 167.1,203.8 177.9,203.8 190.8,203.8 201.6,203.8 
				214.6,203.8 225.4,203.8 238.3,203.8 252.3,203.8 261.1,203.8 269.5,209.1 			"/>
			<polyline class="st5" points="269.5,249 255.3,249 241.3,249 228.4,249 217.6,249 204.6,249 193.8,249 180.9,249 170.1,249 
				157.1,249 146.3,249 133.4,249 122.6,249 109.6,249 98.8,249 85.9,249 75.1,249 62.1,249 51.3,249 38.4,249 27.6,249 14.6,249 
				0,249 			"/>
			<polyline class="st5" points="252.3,203.8 255.3,209.1 255.3,249 			"/>
			<polyline class="st5" points="238.3,203.8 241.3,209.1 241.3,249 			"/>
			<polyline class="st5" points="225.4,203.8 228.4,209.1 228.4,249 			"/>
			<polyline class="st5" points="214.6,203.8 217.6,209.1 217.6,249 			"/>
			<polyline class="st5" points="201.6,203.8 204.6,209.1 204.6,249 			"/>
			<polyline class="st5" points="190.8,203.8 193.8,209.1 193.8,249 			"/>
			<polyline class="st5" points="177.9,203.8 180.9,209.1 180.9,249 			"/>
			<polyline class="st5" points="167.1,203.8 170.1,209.1 170.1,249 			"/>
			<polyline class="st5" points="154.1,203.8 157.1,209.1 157.1,249 			"/>
			<polyline class="st5" points="143.4,203.8 146.3,209.1 146.3,249 			"/>
			<polyline class="st5" points="130.4,203.8 133.4,209.1 133.4,249 			"/>
			<polyline class="st5" points="119.6,203.8 122.6,209.1 122.6,249 			"/>
			<polyline class="st5" points="106.6,203.8 109.6,209.1 109.6,249 			"/>
			<polyline class="st5" points="95.9,203.8 98.8,209.1 98.8,249 			"/>
			<polyline class="st5" points="82.9,203.8 85.9,209.1 85.9,249 			"/>
			<polyline class="st5" points="72.1,203.8 75.1,209.1 75.1,249 			"/>
			<polyline class="st5" points="59.2,203.8 62.1,209.1 62.1,249 			"/>
			<polyline class="st5" points="48.4,203.8 51.3,209.1 51.3,249 			"/>
			<polyline class="st5" points="35.4,203.8 38.4,209.1 38.4,249 			"/>
			<polyline class="st5" points="24.6,203.8 27.6,209.1 27.6,249 			"/>
			<polyline class="st5" points="11.7,203.8 14.6,209.1 14.6,249 			"/>
			<polyline class="st5" points="269.5,209.1 255.3,209.1 241.3,209.1 228.4,209.1 217.6,209.1 204.6,209.1 193.8,209.1 
				180.9,209.1 170.1,209.1 157.1,209.1 146.3,209.1 133.4,209.1 122.6,209.1 109.6,209.1 98.8,209.1 85.9,209.1 75.1,209.1 
				62.1,209.1 51.3,209.1 38.4,209.1 27.6,209.1 14.6,209.1 0,209.1 			"/>
			<line class="st5" x1="261.1" y1="203.8" x2="269.5" y2="203.8"/>
			<line class="st5" x1="0" y1="132.7" x2="269.5" y2="132.7"/>
		</g>
	</g>
</g>
<g id="_レイヤー_2">
	<g>
		<g>
			<path class="st6" d="M235.5,190.9l12.1,5.6c-2.8,2.6-7.5,5.8-18.4,9.1c-0.3-1.4-0.9-2.8-1.6-3.9c-0.6-0.9-4.1-2.9-9-5.9
				C218.7,195.8,229.6,195.6,235.5,190.9L235.5,190.9z"/>
			<path class="st6" d="M229.3,205.5c0.4,1.7,0.5,3.4,0.2,4.8c-3,0-8.1,0.2-13.5,0.2c5.8-6.4,6-8.8,11.8-8.9
				C228.4,202.7,228.9,204.1,229.3,205.5L229.3,205.5z"/>
			<path class="st6" d="M192.6,205.5c-6,0-12.6-3.3-20.7-8.2v-3.2c0,0,14.1,4.8,18.3,4.7c0.6,1.8,1.2,3.6,1.8,5.4
				C192.1,204.7,192.3,205.1,192.6,205.5z"/>
			<path class="st6" d="M190.2,198.8c-4.2,0.1-18.3-4.7-18.3-4.7v-3.2c0,0,11.7,1.3,15,0C187.9,193,189.1,195.8,190.2,198.8
				L190.2,198.8z"/>
			<path class="st6" d="M171.9,194.1v3.2c-2,0-10.3-5.3-10.3-5.3c5.4-0.3,9.4-0.8,10.3-1.2V194.1z"/>
			<path class="st6" d="M184,186.9c0.7,0.4,1.7,1.9,2.8,4c-3.2,1.3-15,0-15,0c-1.6-1.4-3.2-2.8-4.9-4.3
				C167,186.6,182.2,185.8,184,186.9z"/>
			<path class="st7" d="M87.3,149.5c-0.6,1.4-1.1,2.6-1.3,3c0,0.4-3.8,5.1-13,13.4c6.3-7.8,13.9-17.5,16.5-22.5c0,0,0.1,0,0.1,0
				c-0.3,0.8-0.7,1.9-1.2,3C88.1,147.5,87.7,148.6,87.3,149.5z"/>
			<path class="st8" d="M84.3,129.7c-0.9,2.7-2.7,5.4-5.5,7.7c-0.6,0.5-1.6,1.1-2.9,1.8c-2.7,1.4-6.8,3.1-11.5,4.9
				c-9.2,3.4-21.2,6.9-31.5,8.9c-5.1,1-9.8,1.5-13.5,1.5c0,0,0.6-1.6,1.8-4.3C21.2,150.2,48.5,148.8,84.3,129.7L84.3,129.7z"/>
			<path class="st8" d="M22.5,147.2c6.5-0.8,28.7-2.2,61.9-22.4h0.8c0,0.9-0.1,1.9-0.3,2.8c-0.1,0.7-0.3,1.4-0.5,2.1
				c-35.9,19.1-63.2,20.4-63.2,20.4C21.5,149.3,22,148.3,22.5,147.2L22.5,147.2L22.5,147.2z"/>
			<path class="st8" d="M84.3,124.8C51.1,145,29,146.5,22.5,147.2h0c0.4-0.9,0.9-1.9,1.3-2.9c13.1-1.5,30-3.1,60.6-24.4
				c0.5,1.6,0.8,3.2,0.8,4.9L84.3,124.8L84.3,124.8z"/>
			<path class="st9" d="M153.6,8.4v165.7c-1.5-1.5-3-3-4.4-4.4V8h4.4V8.4z"/>
			<path class="st9" d="M153.6,174.1V8h4.3v170.3C156.4,176.9,155,175.5,153.6,174.1z"/>
			<path class="st6" d="M153.6,174.1c1.4,1.4,2.9,2.8,4.3,4.1c3.1,2.9,6.1,5.7,9.1,8.4c1.7,1.5,3.3,2.9,4.9,4.3
				c-0.9,0.4-4.9,0.9-10.3,1.2c-10.5,0.6-26.6,0.7-37-1.2c-10.9-2-12.9-9.3-13.2-14.4c-0.1-2.3,0.2-4.1,0.2-4.9V55.4h37.6v114.3
				C150.6,171.1,152.1,172.6,153.6,174.1z"/>
			<polygon class="st10" points="247.7,8 247.7,8.9 247.7,55.4 247.6,55.4 202.8,55.4 202.8,8.5 202.8,8 			"/>
			<path class="st6" d="M235.5,190.9c-5.9,4.7-16.8,5-16.8,5c-4.5-2.7-10.1-6.4-15.9-10.9V55.4h44.9v121.3l0,19.8L235.5,190.9
				L235.5,190.9z"/>
			<path class="st6" d="M194.6,177.5c1.4,1.4,2.7,2.7,4.1,3.9c1.4,1.2,2.7,2.4,4.1,3.5c5.7,4.6,11.4,8.2,15.9,10.9
				c4.9,3,8.4,4.9,9,5.9c-5.8,0.1-6,2.5-11.8,8.9c-9.6,0-20.4-0.8-23.4-5.1c-0.3-0.4-0.5-0.8-0.6-1.3c-0.5-1.8-1.1-3.7-1.8-5.4
				c-1.1-3-2.3-5.8-3.4-7.9c-1.1-2.1-2.1-3.6-2.8-4c-1.8-1-17-0.3-17-0.3c-3-2.7-6.1-5.5-9.1-8.4V55.4h36.7V177.5z"/>
			<path class="st9" d="M202.8,55.4v129.5c-1.4-1.1-2.7-2.2-4.1-3.5l0.1-0.1V8h4.1V55.4z"/>
			<path class="st9" d="M198.8,8.4v172.9l-0.1,0.1c-1.4-1.2-2.8-2.5-4.1-3.9V8h4.2V8.4z"/>
			<polygon class="st10" points="194.6,8.4 194.6,55.4 158.6,55.4 157.9,55.4 157.9,8 157.9,8 194.6,8 			"/>
			<path class="st10" d="M111.6,55.4V8h37.6v47.4C149.1,55.4,111.6,55.4,111.6,55.4z"/>
			<path class="st8" d="M111.6,141.1v3.9h-0.2c-6.8,6-23,5.1-24,4.6l-0.1,0c0.4-0.9,0.8-2,1.2-3c2.5,0.9,17.4-1.2,22.9-5.4
				C111.4,141.1,111.6,141.1,111.6,141.1z"/>
			<path class="st8" d="M111.6,111.5v6h-0.4l-0.8,0.5c-6.9,2.2-12.4,1.8-16.9,0.3c-5.8-1.9-9.8-5.8-12.8-8.7l0,0
				c0,0,2.7-1.7,6.1-3.9c0,0,6.5,6.1,11.2,6.8s11.8,0.3,13.2-1H111.6L111.6,111.5z"/>
			<path class="st8" d="M111.6,108v3.5h-0.3c-1.4,1.3-8.6,1.7-13.2,1s-11.2-6.8-11.2-6.8c1-0.7,2.1-1.4,3.2-2.1
				c1,0.8,5.5,4.9,9.8,5.6c3.7,0.5,8.8,0.2,11.4-1.2H111.6z"/>
			<path class="st8" d="M111.6,104.5v3.5h-0.3c-2.6,1.4-7.8,1.7-11.4,1.2c-4.3-0.7-8.8-4.7-9.8-5.6c1-0.7,2.1-1.4,3.1-2.2
				c3.1,2.5,8.6,6.9,18.2,3C111.4,104.5,111.6,104.5,111.6,104.5z"/>
			<path class="st11" d="M111.7,62.1v11.4c-1.7,0-7.7-5.1-14.2-10.7c0,0-2.1-1.6-7-2.3c-1.3,0.8-7.4,0.3-11.3,9.8
				c0-0.2-0.1-0.3-0.1-0.5c-0.2-1.1-0.2-2.2-0.1-3.3c0.8-5.6,1-14,18.6-12.8c2.9,0.7,5.4,1.7,7.4,2.9
				C109.4,59.1,111.7,62.1,111.7,62.1z"/>
			<path class="st10" d="M104.8,56.2c0,0,4.5-2.2,6.8-2.5v8C111.6,61.7,109.2,58.7,104.8,56.2L104.8,56.2L104.8,56.2z"/>
			<path class="st10" d="M111.6,171.6c0,0.7-0.3,2.6-0.2,4.9l-0.9,0c-1.6,0.1-3.1,0.1-4.5,0.1c-6.3-8.6-11.8-15.1-10-19.8
				c4.2,0.5,9.3,4.1,9.3,4.1c-0.2,0.8-0.5,1.5-0.9,2.3c-1.9,3.5,2.1,9.2,6.2,8.4L111.6,171.6L111.6,171.6z"/>
			<path class="st10" d="M106,176.7c-14.3,0-18.4-4.5-19.6-11.3c-0.2-1.3-0.3-2.7-0.4-4.2c-0.1-2.7,0-5.6-0.1-8.6c0,0,10,2.3,18.3,0
				l0.1,0.2c1,2.8,1.6,5.5,0.9,8.2c0,0-5.1-3.6-9.3-4.1C94.2,161.6,99.7,168.1,106,176.7z"/>
			<path class="st10" d="M105.3,160.9c0.7-2.7,0.1-5.4-0.9-8.2l-0.1-0.2c2.6-0.7,5.1-1.9,7-3.7h0.3v22.8h-1.1
				c-4,0.8-8.1-4.9-6.2-8.4C104.8,162.4,105.1,161.7,105.3,160.9L105.3,160.9z"/>
			<path class="st10" d="M93.6,118.4c4.4,1.5,9.9,1.8,16.9-0.3c-9.2,6.6-16.1,8.8-20.4,9.4c-3.3,0.5-5.1,0.1-5.1,0.1
				S91.6,127.8,93.6,118.4z"/>
			<path class="st12" d="M92.2,89.4l0.2-0.3c1.5,0.9,2.8,1.5,3.4,1.7c2.1,0.6,3.8,0.2,5.2-0.1c0,0,0,0,0.1,0
				c1.7-0.4,3.1-0.7,4.6,0.7c3.2,2.9,5.8,7.7,5.8,7.7h0.1v5.5h-0.2c-9.6,3.9-15.2-0.5-18.2-3c-1,0.7-2,1.4-3.1,2.2
				c-1.1,0.7-2.1,1.4-3.2,2.1c-3.4,2.2-6.1,3.9-6.1,3.9l0,0c0.1,0.3,1.7,4.5,3.5,10.2c-30.5,21.4-47.5,22.9-60.6,24.4
				c1.5-3.2,3.2-6.9,5.3-10.8c2.4-4.6,5-7.4,8.3-9.2c3.3-1.9,7.2-2.8,12.1-3.7c2.3-0.4,4.8-0.9,7.7-1.5l0,0.1c0.6-0.6,1.3-1.3,2-2
				c0.9-0.9,1.9-1.9,3-3c0.9-0.8,1.8-1.7,2.7-2.6C72.9,103.8,83.7,94,92.2,89.4L92.2,89.4z"/>
			<path class="st12" d="M92.4,89.1l-0.2,0.3c-8.5,4.7-19.3,14.4-27.4,22.2L53.4,96.1c8-5.4,19.6-11.2,29.5-17.3l0.7-0.1
				c1,1.5,2.2,3.3,3.5,5.3c0.4,0.6,0.8,1.2,1.2,1.8C89.6,87.2,91.1,88.2,92.4,89.1z"/>
			<path class="st8" d="M89.6,143.5c3.3,1.4,17.3-3.6,21.8-6.2h0.1v3.9h-0.2c-5.6,4.2-20.4,6.3-23,5.4
				C88.9,145.4,89.3,144.3,89.6,143.5z"/>
			<path class="st7" d="M90.7,132.7c0.3,3.7,0.5,8.3-0.6,9.4c-1.2,1.2-3,2.8-5.1,4.4c0,0,0,0,0,0c-8.7,6.7-23.5,15.9-28.9,19.2
				c-1.3,0.8-2,1.2-2,1.2l-1.4-4.3c7.4-4.6,21.5-20.1,25.8-22.6c0.1-0.1,0.3-0.1,0.4-0.2C82.5,138.3,90.6,132.7,90.7,132.7z"/>
			<path class="st11" d="M89.6,63.7c0.7-0.4,1.5-0.5,1.7-0.1c0.2,0.3-0.2,1-1,1.4c-0.7,0.4-1.5,0.5-1.7,0.1S88.9,64.1,89.6,63.7z"/>
			<path class="st12" d="M90.1,142.2c1.1-1.1,0.9-5.7,0.6-9.4c-0.2-2.8-0.6-5.1-0.6-5.1l0-0.1c4.3-0.7,11.2-2.9,20.4-9.4l0.8-0.5
				h0.4v19.7h-0.1c-4.5,2.6-18.5,7.7-21.8,6.2c0.2-0.6,0.4-1,0.4-1.2C90.1,142.2,90.1,142.2,90.1,142.2z"/>
			<path class="st11" d="M87.6,5.6h160V8h-44.8H82c0,0-3.8,0.2-5.9,0.6c-2.2,0.4-6.3-3.7-9-5.9s-1.2-2.3,1.1-1.9S83.7,5.5,87.6,5.6z
				"/>
			<path class="st8" d="M87.3,149.6c1,0.5,17.2,1.4,24-4.6h0.2v3.9h-0.3c-1.9,1.8-4.4,3-7,3.7c-8.3,2.2-18.3,0-18.3,0
				C86.2,152.1,86.7,150.9,87.3,149.6L87.3,149.6L87.3,149.6z"/>
			<path class="st7" d="M86.1,161.1l-15.6,16.4l-0.6-0.3l-4.5-2.1c1.8-2.1,4.6-5.4,7.6-9.2c9.2-8.3,13-13.1,13-13.4
				C86,155.5,86,158.5,86.1,161.1z"/>
			<path class="st7" d="M84.9,146.6c2.2-1.7,4-3.2,5.1-4.4c0,0,0,0,0,0.1c-0.1,0.3-0.3,0.7-0.5,1.1c-2.6,5-10.2,14.7-16.5,22.5
				c-3.1,3.8-5.9,7.1-7.6,9.2c-1.2,1.5-2,2.3-2,2.4c-0.1,0.1-6.2-3.3-6.2-3.3l12.2-11.6h0C75,158.6,81.4,153,84.9,146.6
				C84.9,146.6,84.9,146.6,84.9,146.6L84.9,146.6z"/>
			<path class="st10" d="M84.9,127.6c0.2-0.9,0.3-1.9,0.3-2.8c0-1.7-0.3-3.3-0.8-4.9c-1.9-5.7-3.4-9.9-3.5-10.2
				c2.9,2.9,6.9,6.8,12.8,8.7C91.6,127.8,84.9,127.6,84.9,127.6L84.9,127.6L84.9,127.6z"/>
			<path class="st11" d="M84.4,68.4c0.2,0.3-0.1,1-0.7,1.5s-1.4,0.7-1.7,0.4c-0.3-0.3,0.1-1,0.7-1.5C83.4,68.3,84.2,68.1,84.4,68.4z
				"/>
			<path class="st7" d="M84.9,146.6c-3.5,6.4-9.9,11.9-15.6,16c-6.3,4.5-11.8,7.1-11.8,7.1l-1.5-3.9
				C61.4,162.5,76.2,153.3,84.9,146.6z"/>
			<path class="st13" d="M97.3,62.3c-2.9-1.1-1.2-1.4-6.2-2.1C87.6,58.9,80,65,79,69.9c0.5,2.1,1.6,4.2,3.5,7.1
				c0.4,0.6,0.8,1.2,1.2,1.9c1,1.5,2.2,3.3,3.5,5.3h0c0.4,0.6,0.7,1.2,1.1,1.8c1.4,1.3,2.8,2.3,4.2,3.1c1.5,0.9,2.8,1.5,3.4,1.7
				c2.1,0.6,3.8,0.2,5.2-0.1c0,0,0,0,0.1,0c1.7-0.4,3.1-0.7,4.6,0.7c3.1,2.9,5.8,7.7,5.8,7.7h0.1v-26
				C109.9,73.1,100.1,63.4,97.3,62.3z M82,70.4c-0.3-0.3,0.1-1,0.7-1.5c0.7-0.5,1.4-0.7,1.7-0.4c0.2,0.3-0.1,1-0.7,1.5
				C83,70.5,82.3,70.7,82,70.4z M90.4,65c-0.7,0.4-1.5,0.5-1.7,0.1c-0.2-0.4,0.2-1,1-1.4s1.5-0.5,1.7-0.1
				C91.5,63.9,91.1,64.5,90.4,65z M94.3,86.5l0.5-1h0.7l0.4-0.8h1.4C97.4,87.4,96,87.6,94.3,86.5z"/>
			<path class="st10" d="M78.8,137.4c2.8-2.3,4.6-5,5.5-7.7c0.2-0.7,0.4-1.4,0.5-2.1h0.1c0,0,1.8,0.4,5.1-0.1l0,0.1
				c0,0,0.3,2.3,0.6,5.1c0,0-8.2,5.5-11.9,7.2c-0.1,0.1-0.2,0.1-0.4,0.2l-2.5-0.9C77.2,138.6,78.2,137.9,78.8,137.4L78.8,137.4z"/>
			<path class="st10" d="M52.7,96.6c0,0,13.6-21.2,26.2-27.2h0c0,0.2,0.1,0.3,0.1,0.5c0.5,2.1,1.7,4.2,3.5,7.1
				c0.4,0.6,0.8,1.2,1.2,1.9l-0.7,0.1c-9.9,6-21.5,11.9-29.5,17.3C53.2,96.3,52.9,96.4,52.7,96.6z"/>
			<path class="st7" d="M69.8,177.6l0.1-0.3l0.6,0.3l15.6-16.4c0.1,1.5,0.2,2.9,0.4,4.2c-1.9,2.1-10.4,14.9-10.4,14.9l-7.4-0.6
				L69.8,177.6L69.8,177.6z"/>
			<path class="st8" d="M53.4,96.1l11.4,15.4c-0.9,0.9-1.8,1.8-2.7,2.6l-11-16.5c0.5-0.4,1.1-0.8,1.7-1.2
				C53,96.4,53.2,96.3,53.4,96.1z"/>
			<path class="st8" d="M51.1,97.7l11,16.5c-1.1,1.1-2.1,2.1-3,3h0l-8-11.7l-3.5-5C48.6,99.6,49.8,98.7,51.1,97.7z"/>
			<path class="st8" d="M59.1,117.2L59.1,117.2c-0.7,0.7-1.4,1.4-2,2l0-0.1c-2.8,0.6-5.3,1-7.7,1.5l-7.4-12.8h0c0.3-0.2,6.1-3,9-2.3
				C51.1,105.5,59.1,117.2,59.1,117.2z"/>
			<path class="st10" d="M64.4,144.1c-2.3,2.7-13.5,11.2-16.3,12.7s-11.2-1.2-15.2-3.9C43.2,151,55.2,147.5,64.4,144.1z"/>
			<path class="st8" d="M47.6,100.5l3.5,5c-2.9-0.6-8.7,2.2-9,2.3c1.1-2.1,2.4-4.1,4-5.8C46.5,101.5,47.1,101,47.6,100.5z"/>
			<path class="st10" d="M37.2,124.1c0.5-3.1,1.7-10.1,4.9-16.3l7.4,12.8c-4.9,0.9-8.9,1.8-12.1,3.7L37.2,124.1z"/>
			<path class="st10" d="M19.4,154.4c3.7,0,8.4-0.5,13.5-1.5c4,2.6,12.4,5.4,15.2,3.9s14-10,16.3-12.7c4.7-1.7,8.8-3.4,11.5-4.9
				l2.5,0.9c-4.3,2.5-18.4,18-25.8,22.6C47.6,164.8,27.7,159.4,19.4,154.4L19.4,154.4z"/>
		</g>
		<g>
			<path class="st14" d="M101.1,90.6c1.7-0.4,3.1-0.7,4.6,0.7c3.2,2.9,5.8,7.7,5.8,7.7"/>
			<path class="st14" d="M111.6,61.7c0,0-2.3-3-6.8-5.5c-2-1.2-4.5-2.3-7.4-2.9c-17.5-1.2-17.8,7.2-18.6,12.8
				c-0.2,1.2-0.1,2.2,0.1,3.3c0,0.2,0.1,0.3,0.1,0.5c0.5,2.1,1.7,4.2,3.5,7.1c0.4,0.6,0.8,1.2,1.2,1.9c1,1.5,2.2,3.3,3.5,5.3
				c0.4,0.6,0.8,1.2,1.2,1.8c1.3,1.3,2.8,2.3,4.2,3.2c1.5,0.9,2.8,1.5,3.4,1.7c2.1,0.6,3.8,0.2,5.2-0.1"/>
			<path class="st14" d="M78.9,69.9c0,0,0.1,0,0.1-0.1c1.9-4,4.3-9,12.1-9.7c10.3,1.8,19.7,12.3,20.5,12.8"/>
			<line class="st14" x1="84.3" y1="76.8" x2="86.2" y2="75.3"/>
			<line class="st14" x1="92.4" y1="71.7" x2="94.7" y2="70.6"/>
			<path class="st14" d="M89.9,75.3c0,0,1.1,6.3,1.4,7.3c0,0.3,1,0.3,1.5,0"/>
			<path class="st15" d="M97.7,84.4H96l-0.5,1h-0.9l-0.6,1.2C96.1,87.9,97.7,87.7,97.7,84.4z"/>
			<line class="st16" x1="96" y1="86.2" x2="96.4" y2="85.9"/>
			<path class="st14" d="M42.1,107.8c-3.2,6.2-4.4,13.2-4.9,16.3"/>
			<path class="st14" d="M82.9,78.9c-9.9,6-21.5,11.9-29.5,17.3c-0.2,0.1-0.5,0.3-0.7,0.4c-0.6,0.4-1.1,0.8-1.7,1.2
				c-1.3,0.9-2.5,1.8-3.5,2.8c-0.6,0.5-1.1,1-1.6,1.5c-1.6,1.7-2.9,3.7-4,5.8"/>
			<path class="st14" d="M92.2,89.4c-8.5,4.7-19.3,14.4-27.4,22.2c-0.9,0.9-1.8,1.8-2.7,2.6c-1.1,1.1-2.1,2.1-3,3
				c-0.7,0.7-1.4,1.4-2,2c-1.6,1.6-2.8,2.8-3.4,3.4c-3.7,3.6-8.3,7.5-13.1,8"/>
			<path class="st14" d="M80.8,109.7c0,0,2.7-1.6,6.1-3.9c1-0.7,2.1-1.4,3.2-2.1c1-0.7,2.1-1.4,3.1-2.2c2.8-2.1,5.3-4.1,6.6-5.6"/>
			<path class="st14" d="M57.1,119.1c-2.8,0.6-5.3,1-7.7,1.5c-4.9,0.9-8.8,1.8-12.1,3.7c-3.2,1.8-5.9,4.6-8.3,9.2
				c-2,4-3.8,7.7-5.3,10.8c-0.5,1-0.9,2-1.3,2.9c-0.5,1.1-0.9,2.1-1.3,2.9c-1.2,2.7-1.8,4.3-1.8,4.3c3.7,0,8.4-0.5,13.5-1.5
				c10.3-1.9,22.3-5.5,31.5-8.9c4.7-1.7,8.8-3.4,11.5-4.9c1.3-0.7,2.3-1.3,2.9-1.8c2.8-2.3,4.6-5,5.5-7.7c0.2-0.7,0.4-1.4,0.5-2.1
				c0.2-0.9,0.3-1.9,0.3-2.8c0-1.7-0.3-3.3-0.8-4.9c-1.9-5.7-3.4-9.9-3.5-10.2"/>
			<path class="st14" d="M19.4,154.4c8.3,4.9,28.2,10.4,33.2,8.3c7.4-4.6,21.5-20.1,25.8-22.6c0.1-0.1,0.3-0.1,0.4-0.2
				c3.8-1.7,11.9-7.2,11.9-7.2"/>
			<path class="st14" d="M111.2,117.5l-0.8,0.5c-9.2,6.6-16.1,8.8-20.4,9.4c-3.3,0.5-5.1,0.1-5.1,0.1s6.7,0.2,8.7-9.2"/>
			<path class="st14" d="M84.9,146.6c2.2-1.7,4-3.2,5.1-4.4c1.1-1.1,0.9-5.7,0.6-9.4c-0.2-2.8-0.6-5.1-0.6-5.1"/>
			<path class="st14" d="M52.5,162.8l1.4,4.3c0,0,0.8-0.4,2-1.2c5.4-3.3,20.2-12.5,28.9-19.2"/>
			<path class="st14" d="M56,165.8l1.5,3.9c0,0,5.5-2.7,11.8-7.1c5.7-4.1,12.1-9.6,15.6-16c0,0,0,0,0,0"/>
			<polyline class="st14" points="65.3,175.2 69.9,177.3 70.5,177.6 86.1,161.1 			"/>
			<path class="st14" d="M73,165.9c9.2-8.3,13-13.1,13-13.4c0.1,3,0,5.9,0.1,8.6c0.1,1.5,0.2,2.9,0.4,4.2
				c1.2,6.8,5.3,11.3,19.5,11.3c1.4,0,2.9-0.1,4.5-0.1"/>
			<path class="st14" d="M69.8,177.6l-1.1,2l7.4,0.6c0,0,8.5-12.7,10.4-14.9"/>
			<path class="st14" d="M111.6,7.9v163.7c0,0.7-0.3,2.6-0.2,4.9c0.2,5.1,2.2,12.4,13.2,14.4c10.4,1.9,26.5,1.8,37,1.2
				c5.4-0.3,9.4-0.8,10.3-1.2c-1.6-1.4-3.2-2.8-4.9-4.3c-3-2.7-6.1-5.5-9.1-8.4c-1.4-1.4-2.9-2.8-4.3-4.1c-1.5-1.5-3-3-4.4-4.4
				c-0.5-0.5-1-1-1.4-1.5c-7.9-8.2-14.1-15.5-15-19"/>
			<path class="st14" d="M138.5,122.6c0,0,6.1,27.5,7.1,33.3c1,5.8,1.1,11.2,2.1,12.2"/>
			<path class="st14" d="M247.7,8H82c0,0-3.8,0.2-5.9,0.6c-2.2,0.4-6.3-3.7-9-5.9s-1.2-2.3,1.1-1.9s15.5,4.8,19.4,4.9h160L247.7,8
				L247.7,8z"/>
			<polyline class="st14" points="153.6,8.4 153.6,174.1 153.6,174.1 			"/>
			<polyline class="st14" points="157.9,178.2 157.9,55.4 157.9,8 			"/>
			<polyline class="st14" points="149.1,7.9 149.1,8 149.1,55.4 149.1,169.7 			"/>
			<polyline class="st14" points="194.6,8.4 194.6,55.4 194.6,177.5 			"/>
			<path class="st14" d="M182.8,99.7c0,0-3.3,62.2,11,77c0.3,0.3,0.6,0.6,0.9,0.9c1.4,1.4,2.7,2.7,4.1,3.9c1.4,1.2,2.7,2.4,4.1,3.5
				c5.7,4.6,11.4,8.2,15.9,10.9c4.9,3,8.4,4.9,9,5.9c0.7,1.1,1.2,2.4,1.6,3.9c0.4,1.7,0.5,3.4,0.2,4.8c-3,0-8.1,0.2-13.5,0.2
				c-9.6,0-20.4-0.8-23.4-5.1c-0.3-0.4-0.5-0.8-0.6-1.3c-0.5-1.8-1.1-3.7-1.8-5.4c-1.1-3-2.3-5.8-3.4-7.9c-1.1-2.1-2.1-3.6-2.8-4
				c-1.8-1-17-0.3-17-0.3"/>
			<path class="st14" d="M161.6,192.1c0,0,8.4,5.3,10.3,5.3c8.1,4.9,14.7,8.2,20.7,8.2"/>
			<path class="st14" d="M171.9,197.3v-6.5c0,0,11.7,1.3,15,0"/>
			<path class="st14" d="M171.9,194.1c0,0,14.1,4.8,18.3,4.7"/>
			<path class="st14" d="M215.9,210.6c5.8-6.4,6-8.8,11.8-8.9"/>
			<line class="st14" x1="198.8" y1="8.4" x2="198.8" y2="181.4"/>
			<polyline class="st14" points="202.8,184.9 202.8,55.4 202.8,8.5 			"/>
			<polyline class="st14" points="217.5,182.6 235.5,190.9 247.6,196.4 247.6,176.7 247.7,55.4 247.7,8.9 			"/>
			<line class="st14" x1="112" y1="55.4" x2="148.1" y2="55.4"/>
			<line class="st14" x1="158.6" y1="55.4" x2="194.6" y2="55.4"/>
			<line class="st14" x1="202.8" y1="55.4" x2="247.6" y2="55.4"/>
			<path class="st14" d="M229.2,205.5L229.2,205.5c10.9-3.2,15.6-6.5,18.4-9.1"/>
			<path class="st14" d="M218.7,195.8c0,0,10.9-0.3,16.8-5"/>
			<path class="st14" d="M230.8,198.8c0,0,5.8,0,8.9-2.4"/>
			<path class="st14" d="M101,90.6C101,90.6,101,90.6,101,90.6c0.6-0.3,4.5-2.3,5-4.7"/>
			<path class="st14" d="M80.8,109.7L80.8,109.7c2.9,2.9,6.9,6.8,12.8,8.7c4.4,1.5,9.9,1.8,16.9-0.3"/>
			<path class="st14" d="M86.9,105.8c0,0,6.5,6.1,11.2,6.8s11.8,0.3,13.2-1"/>
			<path class="st14" d="M90,103.6C90,103.6,90,103.7,90,103.6c1,0.8,5.6,4.9,9.8,5.6c3.7,0.5,8.8,0.2,11.4-1.2"/>
			<path class="st14" d="M93.1,101.5c3.1,2.5,8.6,6.9,18.2,3"/>
			<path class="st14" d="M23.8,144.3c13.1-1.5,30-3.1,60.6-24.4"/>
			<path class="st14" d="M22.5,147.2c6.5-0.8,28.7-2.2,61.9-22.4"/>
			<path class="st14" d="M21.1,150.2c0,0,27.3-1.4,63.2-20.4"/>
			<path class="st14" d="M52.7,96.6c0,0,13.6-21.2,26.2-27.2"/>
			<path class="st14" d="M89.5,143.4c0,0,0.1,0,0.1,0c3.3,1.4,17.3-3.6,21.8-6.2"/>
			<path class="st14" d="M88.3,146.4c0,0,0.1,0,0.1,0.1c2.5,0.9,17.4-1.2,22.9-5.4"/>
			<path class="st14" d="M87.3,149.6c1,0.5,17.2,1.4,24-4.6"/>
			<path class="st14" d="M90.1,142.2c0,0,0,0,0,0.1c-0.1,0.2-0.2,0.6-0.4,1.2c-0.3,0.8-0.7,1.9-1.2,3c-0.4,1-0.8,2.1-1.2,3
				c-0.6,1.4-1.1,2.6-1.3,3c0,0,10,2.3,18.3,0c2.6-0.7,5.1-1.9,7-3.7"/>
			<path class="st14" d="M69.3,162.6l-12.2,11.6c0,0,6.1,3.4,6.2,3.3c0,0,0.8-0.9,2-2.4c1.8-2.1,4.6-5.4,7.6-9.2
				c6.3-7.8,13.9-17.5,16.5-22.5c0.2-0.4,0.4-0.8,0.5-1.1"/>
			<path class="st14" d="M106,176.7c-6.3-8.6-11.8-15.1-10-19.8c4.2,0.5,9.3,4.1,9.3,4.1"/>
			<path class="st14" d="M104.3,152.7c1,2.8,1.6,5.5,0.9,8.2c-0.2,0.8-0.5,1.5-0.9,2.3c-1.9,3.5,2.1,9.2,6.2,8.4"/>
			<path class="st14" d="M32.9,152.9c4,2.6,12.4,5.4,15.2,3.9s14-10,16.3-12.7"/>
			<path class="st14" d="M49.5,120.6l-7.4-12.8h0c0.3-0.2,6.1-3,9-2.3"/>
			<line class="st14" x1="53.4" y1="96.1" x2="64.8" y2="111.6"/>
			<polyline class="st14" points="47.6,100.5 51.1,105.5 59.1,117.2 			"/>
			<line class="st14" x1="51.1" y1="97.7" x2="62.1" y2="114.2"/>
			<path class="st14" d="M91.3,63.6c0.2,0.3-0.2,1-1,1.4c-0.7,0.4-1.5,0.5-1.7,0.1s0.2-1,1-1.4S91.1,63.2,91.3,63.6z"/>
			<path class="st14" d="M84.4,68.4c0.2,0.3-0.1,1-0.7,1.5s-1.4,0.7-1.7,0.4c-0.3-0.3,0.1-1,0.7-1.5C83.4,68.3,84.2,68.1,84.4,68.4z
				"/>
			<path class="st14" d="M104.8,56.2c0,0,4.5-2.2,6.8-2.5"/>
		</g>
	</g>
</g>
</svg>
