<svg xmlns="http://www.w3.org/2000/svg" xml:space="preserve" id="レイヤー_1" x="0" y="0" style="enable-background:new 0 0 269.8 249.5" version="1.1" viewBox="0 0 269.8 249.5"><style>.st0{fill:#e5ebd8}.st1{fill:#d33d30}.st3{fill:#fffada}.st4{fill:#7ac6e0}.st5{fill:none;stroke:#000;stroke-miterlimit:10}.st6{fill:#72c7c4}.st7{fill:#f3f4e9}.st8{fill:#ffc634}.st9{fill:#e8f4de}.st10{fill:#ff543c}.st11{fill:#333}.st12{fill:#b787b7}.st14{fill:none;stroke:#000;stroke-linecap:round;stroke-linejoin:round}</style><g id="_レイヤー_3"><path d="M269.5 203.8v5.3l-8.4-5.3zM241.3 209.1h13.9V249h-13.9z" class="st0"/><path d="m252.3 203.8 3 5.3h-14l-3-5.3zM217.6 209.1h10.8V249h-10.8z" class="st0"/><path d="m225.4 203.8 3 5.3h-10.8l-3-5.3zM193.8 209.1h10.8V249h-10.8z" class="st0"/><path d="m201.6 203.8 3 5.3h-10.8l-3-5.3zM170.1 209.1h10.8V249h-10.8z" class="st0"/><path d="m177.9 203.8 3 5.3h-10.8l-3-5.3zM146.3 209.1h10.8V249h-10.8z" class="st0"/><path d="m154.1 203.8 3 5.3h-10.8l-2.9-5.3zM122.6 209.1h10.8V249h-10.8z" class="st0"/><path d="m130.4 203.8 3 5.3h-10.8l-3-5.3zM98.8 209.1h10.8V249H98.8z" class="st0"/><path d="m106.6 203.8 3 5.3H98.8l-2.9-5.3zM75.1 209.1h10.8V249H75.1z" class="st0"/><path d="m82.9 203.8 3 5.3H75.1l-3-5.3zM51.3 209.1h10.8V249H51.3z" class="st0"/><path d="m59.2 203.8 2.9 5.3H51.3l-2.9-5.3zM27.6 209.1h10.8V249H27.6z" class="st0"/><path d="m35.4 203.8 3 5.3H27.6l-3-5.3zM0 209.1h14.6V249H0z" class="st0"/><path d="m11.7 203.8 2.9 5.3H0v-5.3z" class="st0"/><path d="M255.3 209.1h14.3V249h-14.3z" class="st1"/><path d="M269.5 139.5v64.3H0v-64z" style="fill:#e4f4ae"/><path d="M269.5 138.8v.7L0 139.8l36.9-.3 216.9-.7z" class="st3"/><path d="M269.5 132.7v6.1h-15.7l-216.9.7-36.9.3v-7.1z" class="st3"/><path d="M269.5 209.1h-14.2l-3-5.3h8.8z" class="st1"/><path d="M228.4 209.1h13V249h-13z" class="st4"/><path d="m238.3 203.8 3 5.3h-12.9l-3-5.3z" class="st4"/><path d="M204.6 209.1h13V249h-13z" class="st1"/><path d="m214.6 203.8 3 5.3h-13l-3-5.3z" class="st1"/><path d="M180.9 209.1h13V249h-13z" class="st4"/><path d="m190.8 203.8 3 5.3h-12.9l-3-5.3z" class="st4"/><path d="M157.1 209.1h13V249h-13z" class="st1"/><path d="m167.1 203.8 3 5.3h-13l-3-5.3z" class="st1"/><path d="M133.4 209.1h13V249h-13z" class="st4"/><path d="m143.4 203.8 2.9 5.3h-12.9l-3-5.3z" class="st4"/><path d="M109.6 209.1h13V249h-13z" class="st1"/><path d="m119.6 203.8 3 5.3h-13l-3-5.3z" class="st1"/><path d="M85.9 209.1h13V249h-13z" class="st4"/><path d="m95.9 203.8 2.9 5.3H85.9l-3-5.3z" class="st4"/><path d="M62.1 209.1h13V249h-13z" class="st1"/><path d="m72.1 203.8 3 5.3h-13l-2.9-5.3z" class="st1"/><path d="M38.4 209.1h13V249h-13z" class="st4"/><path d="m48.4 203.8 2.9 5.3H38.4l-3-5.3z" class="st4"/><path d="M14.6 209.1h13V249h-13z" class="st1"/><path d="m24.6 203.8 3 5.3h-13l-2.9-5.3z" class="st1"/><path d="M0 203.8h261.1l8.4 5.3M269.5 249H0" class="st5"/><path d="m252.3 203.8 3 5.3V249M238.3 203.8l3 5.3V249M225.4 203.8l3 5.3V249M214.6 203.8l3 5.3V249M201.6 203.8l3 5.3V249M190.8 203.8l3 5.3V249M177.9 203.8l3 5.3V249M167.1 203.8l3 5.3V249M154.1 203.8l3 5.3V249M143.4 203.8l2.9 5.3V249M130.4 203.8l3 5.3V249M119.6 203.8l3 5.3V249M106.6 203.8l3 5.3V249M95.9 203.8l2.9 5.3V249M82.9 203.8l3 5.3V249M72.1 203.8l3 5.3V249M59.2 203.8l2.9 5.3V249M48.4 203.8l2.9 5.3V249M35.4 203.8l3 5.3V249M24.6 203.8l3 5.3V249M11.7 203.8l2.9 5.3V249M269.5 209.1H0M261.1 203.8h8.4M0 132.7h269.5" class="st5"/></g><g id="_レイヤー_2"><path d="m235.5 190.9 12.1 5.6c-2.8 2.6-7.5 5.8-18.4 9.1-.3-1.4-.9-2.8-1.6-3.9-.6-.9-4.1-2.9-9-5.9.1 0 11-.2 16.9-4.9z" class="st6"/><path d="M229.3 205.5c.4 1.7.5 3.4.2 4.8-3 0-8.1.2-13.5.2 5.8-6.4 6-8.8 11.8-8.9.6 1.1 1.1 2.5 1.5 3.9zM192.6 205.5c-6 0-12.6-3.3-20.7-8.2v-3.2s14.1 4.8 18.3 4.7l1.8 5.4c.1.5.3.9.6 1.3z" class="st6"/><path d="M190.2 198.8c-4.2.1-18.3-4.7-18.3-4.7v-3.2s11.7 1.3 15 0c1 2.1 2.2 4.9 3.3 7.9z" class="st6"/><path d="M171.9 194.1v3.2c-2 0-10.3-5.3-10.3-5.3 5.4-.3 9.4-.8 10.3-1.2v3.3z" class="st6"/><path d="M184 186.9c.7.4 1.7 1.9 2.8 4-3.2 1.3-15 0-15 0-1.6-1.4-3.2-2.8-4.9-4.3.1 0 15.3-.8 17.1.3z" class="st6"/><path d="M87.3 149.5c-.6 1.4-1.1 2.6-1.3 3 0 .4-3.8 5.1-13 13.4 6.3-7.8 13.9-17.5 16.5-22.5h.1c-.3.8-.7 1.9-1.2 3-.3 1.1-.7 2.2-1.1 3.1z" class="st7"/><path d="M84.3 129.7c-.9 2.7-2.7 5.4-5.5 7.7-.6.5-1.6 1.1-2.9 1.8-2.7 1.4-6.8 3.1-11.5 4.9-9.2 3.4-21.2 6.9-31.5 8.9-5.1 1-9.8 1.5-13.5 1.5 0 0 .6-1.6 1.8-4.3 0 0 27.3-1.4 63.1-20.5z" class="st8"/><path d="M22.5 147.2c6.5-.8 28.7-2.2 61.9-22.4h.8c0 .9-.1 1.9-.3 2.8-.1.7-.3 1.4-.5 2.1-35.9 19.1-63.2 20.4-63.2 20.4.3-.8.8-1.8 1.3-2.9z" class="st8"/><path d="M84.3 124.8C51.1 145 29 146.5 22.5 147.2c.4-.9.9-1.9 1.3-2.9 13.1-1.5 30-3.1 60.6-24.4.5 1.6.8 3.2.8 4.9h-.9z" class="st8"/><path d="M153.6 8.4v165.7l-4.4-4.4V8h4.4v.4zM153.6 174.1V8h4.3v170.3c-1.5-1.4-2.9-2.8-4.3-4.2z" class="st9"/><path d="M153.6 174.1c1.4 1.4 2.9 2.8 4.3 4.1 3.1 2.9 6.1 5.7 9.1 8.4 1.7 1.5 3.3 2.9 4.9 4.3-.9.4-4.9.9-10.3 1.2-10.5.6-26.6.7-37-1.2-10.9-2-12.9-9.3-13.2-14.4-.1-2.3.2-4.1.2-4.9V55.4h37.6v114.3l4.4 4.4z" class="st6"/><path d="M247.7 8v47.4h-44.9V8z" class="st10"/><path d="M235.5 190.9c-5.9 4.7-16.8 5-16.8 5-4.5-2.7-10.1-6.4-15.9-10.9V55.4h44.9v141.1l-12.2-5.6z" class="st6"/><path d="M194.6 177.5c1.4 1.4 2.7 2.7 4.1 3.9 1.4 1.2 2.7 2.4 4.1 3.5 5.7 4.6 11.4 8.2 15.9 10.9 4.9 3 8.4 4.9 9 5.9-5.8.1-6 2.5-11.8 8.9-9.6 0-20.4-.8-23.4-5.1-.3-.4-.5-.8-.6-1.3-.5-1.8-1.1-3.7-1.8-5.4-1.1-3-2.3-5.8-3.4-7.9-1.1-2.1-2.1-3.6-2.8-4-1.8-1-17-.3-17-.3-3-2.7-6.1-5.5-9.1-8.4V55.4h36.7v122.1z" class="st6"/><path d="M202.8 55.4v129.5c-1.4-1.1-2.7-2.2-4.1-3.5l.1-.1V8h4.1v47.4z" class="st9"/><path d="M198.8 8.4v172.9l-.1.1c-1.4-1.2-2.8-2.5-4.1-3.9V8h4.2v.4z" class="st9"/><path d="M194.6 8.4v47h-36.7V8h36.7zM111.6 55.4V8h37.6v47.4h-37.6z" class="st10"/><path d="M111.6 141.1v3.9h-.2c-6.8 6-23 5.1-24 4.6h-.1c.4-.9.8-2 1.2-3 2.5.9 17.4-1.2 22.9-5.4 0-.1.2-.1.2-.1zM111.6 111.5v6h-.4l-.8.5c-6.9 2.2-12.4 1.8-16.9.3-5.8-1.9-9.8-5.8-12.8-8.7 0 0 2.7-1.7 6.1-3.9 0 0 6.5 6.1 11.2 6.8s11.8.3 13.2-1h.4z" class="st8"/><path d="M111.6 108v3.5h-.3c-1.4 1.3-8.6 1.7-13.2 1s-11.2-6.8-11.2-6.8c1-.7 2.1-1.4 3.2-2.1 1 .8 5.5 4.9 9.8 5.6 3.7.5 8.8.2 11.4-1.2h.3z" class="st8"/><path d="M111.6 104.5v3.5h-.3c-2.6 1.4-7.8 1.7-11.4 1.2-4.3-.7-8.8-4.7-9.8-5.6 1-.7 2.1-1.4 3.1-2.2 3.1 2.5 8.6 6.9 18.2 3 0 .1.2.1.2.1z" class="st8"/><path d="M111.7 62.1v11.4c-1.7 0-7.7-5.1-14.2-10.7 0 0-2.1-1.6-7-2.3-1.3.8-7.4.3-11.3 9.8 0-.2-.1-.3-.1-.5-.2-1.1-.2-2.2-.1-3.3.8-5.6 1-14 18.6-12.8 2.9.7 5.4 1.7 7.4 2.9 4.4 2.5 6.7 5.5 6.7 5.5z" class="st11"/><path d="M104.8 56.2s4.5-2.2 6.8-2.5v8s-2.4-3-6.8-5.5zM111.6 171.6c0 .7-.3 2.6-.2 4.9h-.9c-1.6.1-3.1.1-4.5.1-6.3-8.6-11.8-15.1-10-19.8 4.2.5 9.3 4.1 9.3 4.1-.2.8-.5 1.5-.9 2.3-1.9 3.5 2.1 9.2 6.2 8.4h1z" class="st10"/><path d="M106 176.7c-14.3 0-18.4-4.5-19.6-11.3-.2-1.3-.3-2.7-.4-4.2-.1-2.7 0-5.6-.1-8.6 0 0 10 2.3 18.3 0l.1.2c1 2.8 1.6 5.5.9 8.2 0 0-5.1-3.6-9.3-4.1-1.7 4.7 3.8 11.2 10.1 19.8z" class="st10"/><path d="M105.3 160.9c.7-2.7.1-5.4-.9-8.2l-.1-.2c2.6-.7 5.1-1.9 7-3.7h.3v22.8h-1.1c-4 .8-8.1-4.9-6.2-8.4.5-.8.8-1.5 1-2.3zM93.6 118.4c4.4 1.5 9.9 1.8 16.9-.3-9.2 6.6-16.1 8.8-20.4 9.4-3.3.5-5.1.1-5.1.1s6.6.2 8.6-9.2z" class="st10"/><path d="m92.2 89.4.2-.3c1.5.9 2.8 1.5 3.4 1.7 2.1.6 3.8.2 5.2-.1h.1c1.7-.4 3.1-.7 4.6.7 3.2 2.9 5.8 7.7 5.8 7.7h.1v5.5h-.2c-9.6 3.9-15.2-.5-18.2-3-1 .7-2 1.4-3.1 2.2-1.1.7-2.1 1.4-3.2 2.1-3.4 2.2-6.1 3.9-6.1 3.9.1.3 1.7 4.5 3.5 10.2-30.5 21.4-47.5 22.9-60.6 24.4 1.5-3.2 3.2-6.9 5.3-10.8 2.4-4.6 5-7.4 8.3-9.2 3.3-1.9 7.2-2.8 12.1-3.7 2.3-.4 4.8-.9 7.7-1.5v.1l2-2 3-3c.9-.8 1.8-1.7 2.7-2.6 8.1-7.9 18.9-17.7 27.4-22.3z" class="st12"/><path d="m92.4 89.1-.2.3c-8.5 4.7-19.3 14.4-27.4 22.2L53.4 96.1c8-5.4 19.6-11.2 29.5-17.3l.7-.1c1 1.5 2.2 3.3 3.5 5.3l1.2 1.8c1.3 1.4 2.8 2.4 4.1 3.3z" class="st12"/><path d="M89.6 143.5c3.3 1.4 17.3-3.6 21.8-6.2h.1v3.9h-.2c-5.6 4.2-20.4 6.3-23 5.4.6-1.2 1-2.3 1.3-3.1z" class="st8"/><path d="M90.7 132.7c.3 3.7.5 8.3-.6 9.4-1.2 1.2-3 2.8-5.1 4.4-8.7 6.7-23.5 15.9-28.9 19.2-1.3.8-2 1.2-2 1.2l-1.4-4.3c7.4-4.6 21.5-20.1 25.8-22.6.1-.1.3-.1.4-.2 3.6-1.5 11.7-7.1 11.8-7.1z" class="st7"/><path d="M89.6 63.7c.7-.4 1.5-.5 1.7-.1.2.3-.2 1-1 1.4-.7.4-1.5.5-1.7.1s.3-1 1-1.4z" class="st11"/><path d="M90.1 142.2c1.1-1.1.9-5.7.6-9.4-.2-2.8-.6-5.1-.6-5.1v-.1c4.3-.7 11.2-2.9 20.4-9.4l.8-.5h.4v19.7h-.1c-4.5 2.6-18.5 7.7-21.8 6.2.2-.6.4-1 .4-1.2l-.1-.2z" class="st12"/><path d="M87.6 5.6h160V8H82s-3.8.2-5.9.6c-2.2.4-6.3-3.7-9-5.9S65.9.4 68.2.8s15.5 4.7 19.4 4.8z" class="st11"/><path d="M87.3 149.6c1 .5 17.2 1.4 24-4.6h.2v3.9h-.3c-1.9 1.8-4.4 3-7 3.7-8.3 2.2-18.3 0-18.3 0 .3-.5.8-1.7 1.4-3z" class="st8"/><path d="m86.1 161.1-15.6 16.4-.6-.3-4.5-2.1c1.8-2.1 4.6-5.4 7.6-9.2 9.2-8.3 13-13.1 13-13.4 0 3 0 6 .1 8.6z" class="st7"/><path d="M84.9 146.6c2.2-1.7 4-3.2 5.1-4.4v.1c-.1.3-.3.7-.5 1.1-2.6 5-10.2 14.7-16.5 22.5-3.1 3.8-5.9 7.1-7.6 9.2-1.2 1.5-2 2.3-2 2.4-.1.1-6.2-3.3-6.2-3.3l12.2-11.6c5.6-4 12-9.6 15.5-16z" class="st7"/><path d="M84.9 127.6c.2-.9.3-1.9.3-2.8 0-1.7-.3-3.3-.8-4.9-1.9-5.7-3.4-9.9-3.5-10.2 2.9 2.9 6.9 6.8 12.8 8.7-2.1 9.4-8.8 9.2-8.8 9.2z" class="st10"/><path d="M84.4 68.4c.2.3-.1 1-.7 1.5s-1.4.7-1.7.4c-.3-.3.1-1 .7-1.5.7-.5 1.5-.7 1.7-.4z" class="st11"/><path d="M84.9 146.6c-3.5 6.4-9.9 11.9-15.6 16-6.3 4.5-11.8 7.1-11.8 7.1l-1.5-3.9c5.4-3.3 20.2-12.5 28.9-19.2z" class="st7"/><path d="M97.3 62.3c-2.9-1.1-1.2-1.4-6.2-2.1C87.6 58.9 80 65 79 69.9c.5 2.1 1.6 4.2 3.5 7.1.4.6.8 1.2 1.2 1.9 1 1.5 2.2 3.3 3.5 5.3.4.6.7 1.2 1.1 1.8 1.4 1.3 2.8 2.3 4.2 3.1 1.5.9 2.8 1.5 3.4 1.7 2.1.6 3.8.2 5.2-.1h.1c1.7-.4 3.1-.7 4.6.7 3.1 2.9 5.8 7.7 5.8 7.7h.1v-26c-1.8 0-11.6-9.7-14.4-10.8zM82 70.4c-.3-.3.1-1 .7-1.5.7-.5 1.4-.7 1.7-.4.2.3-.1 1-.7 1.5-.7.5-1.4.7-1.7.4zm8.4-5.4c-.7.4-1.5.5-1.7.1-.2-.4.2-1 1-1.4s1.5-.5 1.7-.1c.1.3-.3.9-1 1.4zm3.9 21.5.5-1h.7l.4-.8h1.4c.1 2.7-1.3 2.9-3 1.8z" style="fill:#fff6dc"/><path d="M78.8 137.4c2.8-2.3 4.6-5 5.5-7.7.2-.7.4-1.4.5-2.1h.1s1.8.4 5.1-.1v.1s.3 2.3.6 5.1c0 0-8.2 5.5-11.9 7.2-.1.1-.2.1-.4.2l-2.5-.9c1.4-.6 2.4-1.3 3-1.8zM52.7 96.6s13.6-21.2 26.2-27.2c0 .2.1.3.1.5.5 2.1 1.7 4.2 3.5 7.1.4.6.8 1.2 1.2 1.9l-.7.1c-9.9 6-21.5 11.9-29.5 17.3-.3 0-.6.1-.8.3z" class="st10"/><path d="m69.8 177.6.1-.3.6.3 15.6-16.4c.1 1.5.2 2.9.4 4.2-1.9 2.1-10.4 14.9-10.4 14.9l-7.4-.6 1.1-2.1z" class="st7"/><path d="m53.4 96.1 11.4 15.4c-.9.9-1.8 1.8-2.7 2.6l-11-16.5c.5-.4 1.1-.8 1.7-1.2.2 0 .4-.1.6-.3zM51.1 97.7l11 16.5-3 3-8-11.7-3.5-5c1-.9 2.2-1.8 3.5-2.8z" class="st8"/><path d="m59.1 117.2-2 2v-.1c-2.8.6-5.3 1-7.7 1.5L42 107.8c.3-.2 6.1-3 9-2.3.1 0 8.1 11.7 8.1 11.7z" class="st8"/><path d="M64.4 144.1c-2.3 2.7-13.5 11.2-16.3 12.7s-11.2-1.2-15.2-3.9c10.3-1.9 22.3-5.4 31.5-8.8z" class="st10"/><path d="m47.6 100.5 3.5 5c-2.9-.6-8.7 2.2-9 2.3 1.1-2.1 2.4-4.1 4-5.8.4-.5 1-1 1.5-1.5z" class="st8"/><path d="M37.2 124.1c.5-3.1 1.7-10.1 4.9-16.3l7.4 12.8c-4.9.9-8.9 1.8-12.1 3.7l-.2-.2zM19.4 154.4c3.7 0 8.4-.5 13.5-1.5 4 2.6 12.4 5.4 15.2 3.9s14-10 16.3-12.7c4.7-1.7 8.8-3.4 11.5-4.9l2.5.9c-4.3 2.5-18.4 18-25.8 22.6-5 2.1-24.9-3.3-33.2-8.3z" class="st10"/><path d="M101.1 90.6c1.7-.4 3.1-.7 4.6.7 3.2 2.9 5.8 7.7 5.8 7.7" class="st14"/><path d="M111.6 61.7s-2.3-3-6.8-5.5c-2-1.2-4.5-2.3-7.4-2.9-17.5-1.2-17.8 7.2-18.6 12.8-.2 1.2-.1 2.2.1 3.3 0 .2.1.3.1.5.5 2.1 1.7 4.2 3.5 7.1.4.6.8 1.2 1.2 1.9 1 1.5 2.2 3.3 3.5 5.3l1.2 1.8c1.3 1.3 2.8 2.3 4.2 3.2 1.5.9 2.8 1.5 3.4 1.7 2.1.6 3.8.2 5.2-.1" class="st14"/><path d="M78.9 69.9s.1 0 .1-.1c1.9-4 4.3-9 12.1-9.7 10.3 1.8 19.7 12.3 20.5 12.8M84.3 76.8l1.9-1.5M92.4 71.7l2.3-1.1M89.9 75.3s1.1 6.3 1.4 7.3c0 .3 1 .3 1.5 0" class="st14"/><path d="M97.7 84.4H96l-.5 1h-.9l-.6 1.2c2.1 1.3 3.7 1.1 3.7-2.2z" style="fill:#e61300;stroke:#000;stroke-width:.75;stroke-linecap:round;stroke-linejoin:round"/><path d="m96 86.2.4-.3" style="fill:none;stroke:#000;stroke-width:.25;stroke-linecap:round;stroke-linejoin:round"/><path d="M42.1 107.8c-3.2 6.2-4.4 13.2-4.9 16.3M82.9 78.9c-9.9 6-21.5 11.9-29.5 17.3-.2.1-.5.3-.7.4-.6.4-1.1.8-1.7 1.2-1.3.9-2.5 1.8-3.5 2.8-.6.5-1.1 1-1.6 1.5-1.6 1.7-2.9 3.7-4 5.8M92.2 89.4c-8.5 4.7-19.3 14.4-27.4 22.2-.9.9-1.8 1.8-2.7 2.6l-3 3-2 2-3.4 3.4c-3.7 3.6-8.3 7.5-13.1 8M80.8 109.7s2.7-1.6 6.1-3.9c1-.7 2.1-1.4 3.2-2.1 1-.7 2.1-1.4 3.1-2.2 2.8-2.1 5.3-4.1 6.6-5.6" class="st14"/><path d="M57.1 119.1c-2.8.6-5.3 1-7.7 1.5-4.9.9-8.8 1.8-12.1 3.7-3.2 1.8-5.9 4.6-8.3 9.2-2 4-3.8 7.7-5.3 10.8-.5 1-.9 2-1.3 2.9-.5 1.1-.9 2.1-1.3 2.9-1.2 2.7-1.8 4.3-1.8 4.3 3.7 0 8.4-.5 13.5-1.5 10.3-1.9 22.3-5.5 31.5-8.9 4.7-1.7 8.8-3.4 11.5-4.9 1.3-.7 2.3-1.3 2.9-1.8 2.8-2.3 4.6-5 5.5-7.7.2-.7.4-1.4.5-2.1.2-.9.3-1.9.3-2.8 0-1.7-.3-3.3-.8-4.9-1.9-5.7-3.4-9.9-3.5-10.2" class="st14"/><path d="M19.4 154.4c8.3 4.9 28.2 10.4 33.2 8.3 7.4-4.6 21.5-20.1 25.8-22.6.1-.1.3-.1.4-.2 3.8-1.7 11.9-7.2 11.9-7.2M111.2 117.5l-.8.5c-9.2 6.6-16.1 8.8-20.4 9.4-3.3.5-5.1.1-5.1.1s6.7.2 8.7-9.2" class="st14"/><path d="M84.9 146.6c2.2-1.7 4-3.2 5.1-4.4 1.1-1.1.9-5.7.6-9.4-.2-2.8-.6-5.1-.6-5.1M52.5 162.8l1.4 4.3s.8-.4 2-1.2c5.4-3.3 20.2-12.5 28.9-19.2" class="st14"/><path d="m56 165.8 1.5 3.9s5.5-2.7 11.8-7.1c5.7-4.1 12.1-9.6 15.6-16 0 0 0 0 0 0M65.3 175.2l4.6 2.1.6.3 15.6-16.5" class="st14"/><path d="M73 165.9c9.2-8.3 13-13.1 13-13.4.1 3 0 5.9.1 8.6.1 1.5.2 2.9.4 4.2 1.2 6.8 5.3 11.3 19.5 11.3 1.4 0 2.9-.1 4.5-.1" class="st14"/><path d="m69.8 177.6-1.1 2 7.4.6s8.5-12.7 10.4-14.9M111.6 7.9v163.7c0 .7-.3 2.6-.2 4.9.2 5.1 2.2 12.4 13.2 14.4 10.4 1.9 26.5 1.8 37 1.2 5.4-.3 9.4-.8 10.3-1.2-1.6-1.4-3.2-2.8-4.9-4.3-3-2.7-6.1-5.5-9.1-8.4-1.4-1.4-2.9-2.8-4.3-4.1l-4.4-4.4c-.5-.5-1-1-1.4-1.5-7.9-8.2-14.1-15.5-15-19" class="st14"/><path d="M138.5 122.6s6.1 27.5 7.1 33.3c1 5.8 1.1 11.2 2.1 12.2M247.7 8H82s-3.8.2-5.9.6c-2.2.4-6.3-3.7-9-5.9S65.9.4 68.2.8s15.5 4.8 19.4 4.9h160l.1 2.3h0zM153.6 8.4v165.7h0M157.9 178.2V8M149.1 7.9v161.8M194.6 8.4v169.1M182.8 99.7s-3.3 62.2 11 77l.9.9c1.4 1.4 2.7 2.7 4.1 3.9 1.4 1.2 2.7 2.4 4.1 3.5 5.7 4.6 11.4 8.2 15.9 10.9 4.9 3 8.4 4.9 9 5.9.7 1.1 1.2 2.4 1.6 3.9.4 1.7.5 3.4.2 4.8-3 0-8.1.2-13.5.2-9.6 0-20.4-.8-23.4-5.1-.3-.4-.5-.8-.6-1.3-.5-1.8-1.1-3.7-1.8-5.4-1.1-3-2.3-5.8-3.4-7.9-1.1-2.1-2.1-3.6-2.8-4-1.8-1-17-.3-17-.3" class="st14"/><path d="M161.6 192.1s8.4 5.3 10.3 5.3c8.1 4.9 14.7 8.2 20.7 8.2" class="st14"/><path d="M171.9 197.3v-6.5s11.7 1.3 15 0" class="st14"/><path d="M171.9 194.1s14.1 4.8 18.3 4.7M215.9 210.6c5.8-6.4 6-8.8 11.8-8.9M198.8 8.4v173M202.8 184.9V8.5M217.5 182.6l18 8.3 12.1 5.5v-19.7l.1-121.3V8.9M112 55.4h36.1M158.6 55.4h36M202.8 55.4h44.8M229.2 205.5h0c10.9-3.2 15.6-6.5 18.4-9.1" class="st14"/><path d="M218.7 195.8s10.9-.3 16.8-5M230.8 198.8s5.8 0 8.9-2.4M101 90.6s0 0 0 0c.6-.3 4.5-2.3 5-4.7M80.8 109.7h0c2.9 2.9 6.9 6.8 12.8 8.7 4.4 1.5 9.9 1.8 16.9-.3M86.9 105.8s6.5 6.1 11.2 6.8 11.8.3 13.2-1" class="st14"/><path d="M90 103.6s0 .1 0 0c1 .8 5.6 4.9 9.8 5.6 3.7.5 8.8.2 11.4-1.2" class="st14"/><path d="M93.1 101.5c3.1 2.5 8.6 6.9 18.2 3M23.8 144.3c13.1-1.5 30-3.1 60.6-24.4" class="st14"/><path d="M22.5 147.2c6.5-.8 28.7-2.2 61.9-22.4" class="st14"/><path d="M21.1 150.2s27.3-1.4 63.2-20.4M52.7 96.6s13.6-21.2 26.2-27.2M89.5 143.4h.1c3.3 1.4 17.3-3.6 21.8-6.2M88.3 146.4s.1 0 .1.1c2.5.9 17.4-1.2 22.9-5.4M87.3 149.6c1 .5 17.2 1.4 24-4.6" class="st14"/><path d="M90.1 142.2v.1c-.1.2-.2.6-.4 1.2-.3.8-.7 1.9-1.2 3-.4 1-.8 2.1-1.2 3-.6 1.4-1.1 2.6-1.3 3 0 0 10 2.3 18.3 0 2.6-.7 5.1-1.9 7-3.7M69.3 162.6l-12.2 11.6s6.1 3.4 6.2 3.3c0 0 .8-.9 2-2.4 1.8-2.1 4.6-5.4 7.6-9.2 6.3-7.8 13.9-17.5 16.5-22.5.2-.4.4-.8.5-1.1M106 176.7c-6.3-8.6-11.8-15.1-10-19.8 4.2.5 9.3 4.1 9.3 4.1" class="st14"/><path d="M104.3 152.7c1 2.8 1.6 5.5.9 8.2-.2.8-.5 1.5-.9 2.3-1.9 3.5 2.1 9.2 6.2 8.4M32.9 152.9c4 2.6 12.4 5.4 15.2 3.9s14-10 16.3-12.7M49.5 120.6l-7.4-12.8h0c.3-.2 6.1-3 9-2.3M53.4 96.1l11.4 15.5" class="st14"/><path d="m47.6 100.5 3.5 5 8 11.7M51.1 97.7l11 16.5M91.3 63.6c.2.3-.2 1-1 1.4-.7.4-1.5.5-1.7.1s.2-1 1-1.4 1.5-.5 1.7-.1zM84.4 68.4c.2.3-.1 1-.7 1.5s-1.4.7-1.7.4c-.3-.3.1-1 .7-1.5.7-.5 1.5-.7 1.7-.4zM104.8 56.2s4.5-2.2 6.8-2.5" class="st14"/></g></svg>