<svg xmlns="http://www.w3.org/2000/svg" viewBox="0 0 269.76 204.31"><defs><style>.cls-1{fill:#f9d5b2}.cls-1,.cls-2,.cls-3,.cls-4,.cls-5{stroke-width:0}.cls-8{stroke-miterlimit:10}.cls-10,.cls-8{stroke:#000}.cls-10,.cls-11,.cls-8{fill:none}.cls-2{fill:#f6f1db}.cls-3{fill:#f3edd7}.cls-10,.cls-11{stroke-linecap:round;stroke-linejoin:round}.cls-11{stroke-width:.5px}.cls-4{fill:#333}.cls-5{fill:#d7392d}.cls-11{stroke:#fff}</style></defs><g id="_畳" data-name="畳"><path d="M.24 169.74h3.61v5.02H.24zM269.51 197.26v6.55h-30.38l15.32-8.61c1.03 1.61 3.1 2.71 5.5 2.71s4.61-1.18 5.61-2.88l3.96 2.23ZM269.51 186.72v10.53l-3.96-2.23c.38-.65.59-1.38.59-2.14 0-1.3-.62-2.48-1.61-3.37l4.98-2.8Z" class="cls-3"/><path d="M269.51 174.76v11.96l-4.98 2.8c-1.13-1-2.76-1.64-4.58-1.64s-3.3.58-4.43 1.51l-26.03-14.63h40.03ZM269.51 99.9v5.75H.24V99.9h269.27z" class="cls-3"/><path d="M265.53 169.74h3.99v5.02h-3.99zM266.14 192.89c0 .76-.21 1.49-.59 2.14l-5.41-3.04 4.38-2.47c1 .89 1.61 2.07 1.61 3.37Z" class="cls-3"/><path d="m260.15 191.99 5.41 3.04c-1 1.7-3.13 2.88-5.61 2.88s-4.47-1.1-5.5-2.71l5.7-3.21Z" class="cls-3"/><path d="M254.25 169.74h11.28v5.02h-11.28z" class="cls-4"/><path d="m264.53 189.52-4.38 2.47-4.63-2.6c1.13-.93 2.69-1.51 4.43-1.51 1.82 0 3.45.63 4.58 1.64ZM260.15 191.99l-5.7 3.21c-.44-.68-.69-1.47-.69-2.3 0-1.37.68-2.6 1.77-3.5l4.63 2.6Z" class="cls-3"/><path d="m229.49 174.76 26.03 14.63c-1.09.9-1.77 2.13-1.77 3.5 0 .83.25 1.62.69 2.3l-15.32 8.61h-41.39l-15.61-8.78c.38-.65.59-1.38.59-2.14 0-1.3-.62-2.48-1.61-3.36l26.28-14.77h22.1Zm-5.95 18.13c0-2.76-2.24-5.01-5.01-5.01a5.015 5.015 0 1 0 0 10.03c2.78 0 5.01-2.24 5.01-5.02Z" class="cls-3"/><path d="M254.25 174.76H223.8v-5.02h30.45v5.02z" class="cls-3"/><path d="M212.52 169.74h11.28v5.02h-11.28zM218.53 187.88c2.76 0 5.01 2.24 5.01 5.01a5.015 5.015 0 1 1-10.03 0c0-2.78 2.24-5.01 5.02-5.01Z" class="cls-4"/><path d="m207.39 174.76-26.28 14.77c-1.13-1.01-2.76-1.65-4.58-1.65s-3.3.58-4.43 1.51l-26.03-14.63h61.32ZM182.06 174.76v-5.02h30.46v5.02H182.06zM197.75 203.81h-42.03l15.32-8.61c1.03 1.61 3.11 2.71 5.5 2.71s4.61-1.18 5.61-2.88l15.61 8.78ZM182.72 192.89c0 .76-.21 1.49-.59 2.14l-5.41-3.04 4.38-2.46c1 .88 1.61 2.06 1.61 3.36Z" class="cls-3"/><path d="m176.73 191.99 5.41 3.04c-1 1.7-3.13 2.88-5.61 2.88s-4.47-1.1-5.5-2.71l5.7-3.21Z" class="cls-3"/><path d="M170.78 169.74h11.28v5.02h-11.28z" class="cls-4"/><path d="M176.53 187.88c1.82 0 3.45.63 4.58 1.65l-4.38 2.46-4.63-2.6c1.13-.93 2.69-1.51 4.43-1.51ZM176.73 191.99l-5.7 3.21c-.44-.68-.69-1.47-.69-2.3 0-1.37.68-2.6 1.77-3.5l4.63 2.6Z" class="cls-3"/><path d="m146.07 174.76 26.03 14.63c-1.09.9-1.77 2.13-1.77 3.5 0 .83.25 1.62.69 2.3l-15.32 8.61h-41.39l-15.61-8.78c.38-.65.59-1.38.59-2.14 0-1.3-.62-2.48-1.61-3.36l26.28-14.77h22.1Zm-7 18.13c0-2.76-2.24-5.01-5.01-5.01a5.015 5.015 0 1 0 0 10.03c2.78 0 5.01-2.24 5.01-5.02Z" class="cls-3"/><path d="M170.78 174.76H140.33v-5.02h30.45v5.02z" class="cls-3"/><path d="M129.05 169.74h11.28v5.02h-11.28zM134.06 187.88c2.76 0 5.01 2.24 5.01 5.01a5.015 5.015 0 1 1-10.03 0c0-2.78 2.24-5.01 5.02-5.01Z" class="cls-4"/><path d="m123.97 174.76-26.28 14.77c-1.13-1.01-2.76-1.65-4.58-1.65s-3.3.58-4.43 1.51l-26.03-14.63h61.32ZM129.05 174.76H98.6v-5.02h30.45v5.02zM114.32 203.81H72.29l15.32-8.61c1.03 1.61 3.1 2.71 5.5 2.71s4.61-1.18 5.61-2.88l15.61 8.78ZM99.3 192.89c0 .76-.21 1.49-.59 2.14l-5.41-3.04 4.38-2.46c1 .88 1.61 2.06 1.61 3.36Z" class="cls-3"/><path d="m93.31 191.99 5.41 3.04c-1 1.7-3.13 2.88-5.61 2.88s-4.47-1.1-5.5-2.71l5.7-3.21Z" class="cls-3"/><path d="M87.32 169.74H98.6v5.02H87.32z" class="cls-4"/><path d="M93.11 187.88c1.82 0 3.45.63 4.58 1.65l-4.38 2.46-4.63-2.6c1.13-.93 2.69-1.51 4.43-1.51ZM93.31 191.99l-5.7 3.21c-.44-.68-.69-1.47-.69-2.3 0-1.37.68-2.6 1.77-3.5l4.63 2.6Z" class="cls-3"/><path d="m62.65 174.76 26.03 14.63c-1.09.9-1.77 2.13-1.77 3.5 0 .83.25 1.62.69 2.3l-15.32 8.61H30.71l-15.61-8.78c.38-.65.59-1.38.59-2.14 0-1.3-.62-2.48-1.61-3.36l26.28-14.77h22.29Zm-8.51 18.13c0-2.76-2.24-5.01-5.01-5.01a5.015 5.015 0 1 0 0 10.03c2.78 0 5.01-2.24 5.01-5.02Z" class="cls-3"/><path d="M87.32 174.76H56.87v-5.02h30.45v5.02z" class="cls-3"/><path d="M45.59 169.74h11.28v5.02H45.59zM49.13 187.88c2.76 0 5.01 2.24 5.01 5.01a5.015 5.015 0 1 1-10.03 0c0-2.78 2.24-5.01 5.02-5.01Z" class="cls-4"/><path d="M45.59 174.76H15.14v-5.02h30.45v5.02zM30.71 203.81H.24v-6.51l3.75-2.11c1.03 1.61 3.11 2.71 5.5 2.71s4.61-1.18 5.61-2.88l15.61 8.78Z" class="cls-3"/><path d="M15.69 192.89c0 .76-.21 1.49-.59 2.14l-5.41-3.04 4.38-2.46c1 .88 1.61 2.06 1.61 3.36Z" class="cls-3"/><path d="M3.86 169.74h11.28v5.02H3.86z" class="cls-4"/><path d="m9.7 191.99 5.41 3.04c-1 1.7-3.13 2.88-5.61 2.88s-4.47-1.1-5.5-2.71l5.7-3.21Z" class="cls-3"/><path d="M9.5 187.88c1.82 0 3.45.63 4.58 1.65l-4.38 2.46-4.63-2.6c1.13-.93 2.69-1.51 4.43-1.51ZM9.7 191.99 4 195.2c-.44-.68-.69-1.47-.69-2.3 0-1.37.68-2.6 1.77-3.5l4.63 2.6Z" class="cls-3"/><path d="m.24 186.68 4.83 2.71c-1.09.9-1.77 2.13-1.77 3.5 0 .83.25 1.62.69 2.3L.24 197.3v-10.62Z" class="cls-3"/><path d="M212.52 169.74H.24v-64.09h269.27v64.09h-56.99z" style="fill:#d2d296;stroke-width:0"/><path d="M.24 174.76h40.11l-26.28 14.77c-1.13-1.01-2.76-1.65-4.58-1.65s-3.3.58-4.43 1.51l-4.83-2.71v-11.92Z" class="cls-3"/><path d="M269.51 203.81H.24M.24 99.9h269.27M.24 105.65h269.27M265.53 169.74h3.98M223.8 169.74h30.45M182.06 169.74h30.46M140.33 169.74h30.45M98.6 169.74h30.45M56.87 169.74h30.45M15.14 169.74h30.45M.24 169.74h3.62M265.53 174.76h3.98M223.8 174.76H254.25M182.06 174.76H212.52M140.33 174.76H170.78M98.6 174.76H129.05M56.87 174.76H87.32M15.14 174.76h30.45M.24 174.76h3.62M72.29 203.81l15.32-8.62 5.7-3.2 4.38-2.46 26.28-14.77" class="cls-8"/><path d="m114.32 203.81-15.61-8.78-5.4-3.04-4.63-2.6-26.03-14.63M139.07 192.89a5.015 5.015 0 1 1-10.03 0c0-2.78 2.24-5.01 5.02-5.01s5.01 2.24 5.01 5.01ZM223.54 192.89a5.015 5.015 0 1 1-10.03 0c0-2.78 2.24-5.01 5.02-5.01s5.01 2.24 5.01 5.01Z" class="cls-8"/><path d="M97.69 189.53c1 .88 1.61 2.06 1.61 3.36 0 .76-.21 1.49-.59 2.14-1 1.7-3.13 2.88-5.61 2.88s-4.47-1.1-5.5-2.71c-.44-.68-.69-1.47-.69-2.3 0-1.37.68-2.6 1.77-3.5 1.13-.93 2.69-1.51 4.43-1.51 1.82 0 3.45.63 4.58 1.65ZM.24 197.3 4 195.19l5.7-3.2 4.38-2.46 26.28-14.77" class="cls-8"/><path d="m30.71 203.81-15.61-8.78-5.4-3.04-4.63-2.6-4.83-2.71" class="cls-8"/><path d="M14.08 189.53c1 .88 1.61 2.06 1.61 3.36 0 .76-.21 1.49-.59 2.14-1 1.7-3.13 2.88-5.61 2.88s-4.47-1.1-5.5-2.71c-.44-.68-.69-1.47-.69-2.3 0-1.37.68-2.6 1.77-3.5 1.13-.93 2.69-1.51 4.43-1.51 1.82 0 3.45.63 4.58 1.65ZM155.71 203.81l15.32-8.62 5.7-3.2 4.38-2.46 26.28-14.77" class="cls-8"/><path d="m197.75 203.81-15.62-8.78-5.4-3.04-4.63-2.6-26.03-14.63" class="cls-8"/><path d="M181.11 189.53c1 .88 1.61 2.06 1.61 3.36 0 .76-.21 1.49-.59 2.14-1 1.7-3.13 2.88-5.61 2.88s-4.47-1.1-5.5-2.71c-.44-.68-.69-1.47-.69-2.3 0-1.37.68-2.6 1.77-3.5 1.13-.93 2.69-1.51 4.43-1.51 1.82 0 3.45.63 4.58 1.65ZM239.13 203.81l15.32-8.62 5.7-3.2 4.38-2.47 4.98-2.8" class="cls-8"/><path d="m269.51 197.26-3.96-2.23-5.4-3.04-4.63-2.6-26.03-14.63" class="cls-8"/><path d="M264.53 189.52c1 .89 1.61 2.07 1.61 3.37 0 .76-.21 1.49-.59 2.14-1 1.7-3.13 2.88-5.61 2.88s-4.47-1.1-5.5-2.71c-.44-.68-.69-1.47-.69-2.3 0-1.37.68-2.6 1.77-3.5 1.13-.93 2.69-1.51 4.43-1.51 1.82 0 3.45.63 4.58 1.64ZM54.14 192.89a5.015 5.015 0 1 1-10.03 0c0-2.78 2.24-5.01 5.02-5.01s5.01 2.24 5.01 5.01ZM3.86 169.74h11.28v5.02H3.86zM45.59 169.74h11.28v5.02H45.59zM87.32 169.74H98.6v5.02H87.32zM129.05 169.74h11.28v5.02h-11.28zM170.78 169.74h11.28v5.02h-11.28zM212.52 169.74h11.28v5.02h-11.28zM254.25 169.74h11.28v5.02h-11.28z" class="cls-8"/></g><g id="_レイヤー_2" data-name="レイヤー 2"><path d="m227.62 102.77 24.68 29.36h-42.63c-.79-1.62-1.65-3.15-2.43-4.4-2.55-4.09-6.13-14.17-10.98-15.32s-14.04-.89-14.04-.89l-1.66-4.34s1.23-2.66 2.45-5.77c5.12-2.4 19.59-10.74 19.59-10.74l9.95 19.69 6.45-3.25 8.62-4.34Z" class="cls-2"/><path d="m202.6 90.67 16.4 16.44-6.45 3.25-9.95-19.69z" class="cls-4"/><path d="M210.17 145.82c-2.04 1.02-5.42 1.28-10.33 1.82-8.05.9-22.98 3.32-22.98 3.32-2.24.36-9.84-1.65-16.02-3.77l1.16-5.84c11.62.3 36.73.24 39.75 1.06 3.73 1.02 8.23 3.41 8.42 3.41Z" class="cls-5"/><path d="M160.84 147.19c6.18 2.12 13.78 4.13 16.02 3.77-6.51 7.02-13.28 15.96-13.28 15.96-12.38-3.06-25.53-9.7-26.04-12-5.32-.76-10.81-9.68-10.81-9.68 3.51 2.55 6.98 3.93 12.89 1.77 6.98-2.56 9.24-5.11 14.32-2.56 1.59.8 4.1 1.78 6.9 2.74Z" class="cls-4"/><path d="m162 141.35-1.16 5.84c-2.8-.96-5.31-1.94-6.9-2.74l.65-4.34c.55.48 1.17.82 1.88.94.75.13 2.76.22 5.53.3Z" class="cls-5"/><path d="m154.59 140.11-.65 4.34c-5.08-2.55-7.34 0-14.32 2.56-5.91 2.16-9.38.78-12.89-1.77-.64-.45-1.27-.95-1.92-1.47 6.81-2.21 18.22-8.48 20.09-11.64.45-.76.89-1.33 1.32-1.72 1.35-1.26 2.6-.79 3.7.77 1.19 1.67 2.2 6.76 4.67 8.93Z" class="cls-5"/><path d="M117.89 122.09c-.39.61-.74 1.21-1.03 1.81-.08.01-.15.03-.23.04-2.42.23-10.4-3.07-16.37-5.73l-1.02 2.75c-5.87.77-20.68-2.29-23.36-6 0 0 0-9.03 1.65-18.01.29-1.59.63-3.17 1.03-4.71.22-.86.55-1.78.95-2.76 2.12-5.14 6.47-11.71 10.4-17.16-.27-5.36-3.05-10.44-3.05-10.44l-2.76-.87c1.47-.69 2.82-1.18 3.91-1.32 4.97-.64 9.63-1.57 10.5-1.69.38-.06 1.46-.4 2.56-.76l.08.28s3.96 9.7 12.39 10.34c8.42.64 19.67-5.99 26.3-13.66l.09-.45c4.01.77 7.98 1.7 10.77 2.52l-.78 2.46s-4.47 7.29-7.91 10.19c-3.45 2.89-12.39 12.6-15.96 22.55-3.58 9.96-4.61 21.71-3.84 25.54-1.71 1.6-3.21 3.35-4.32 5.08Z" class="cls-4"/><path d="m139.93 53.75-.09.45c-6.63 7.67-17.88 14.3-26.3 13.66-8.43-.64-12.39-10.34-12.39-10.34l-.08-.28c1.4-.47 2.83-.97 2.83-.97l.05-.13c1.26.58 2.8 1.09 4.63 1.29 8.72 5.18 18.45-2.76 22.32-5.02 2.67.25 5.86.75 9.03 1.34ZM122.21 117.01c-.77-3.83.26-15.58 3.84-25.54 3.57-9.95 12.51-19.66 15.96-22.55 3.44-2.9 7.91-10.19 7.91-10.19l.78-2.46c.72.21 1.36.42 1.9.61 4.34 1.53 13.02 9.64 16.28 12.19 3.25 2.55 13.21 10.28 15.51 12.45s1.66 8.42.89 12.76c-.34 1.92-1.3 4.66-2.27 7.13-1.22 3.11-2.45 5.77-2.45 5.77l1.66 4.34s9.19-.26 14.04.89 8.43 11.23 10.98 15.32c.78 1.25 1.64 2.78 2.43 4.4 1.79 3.65 3.24 7.8 2.8 10.54-.25 1.54-1 2.5-2.3 3.15-.19 0-4.69-2.39-8.42-3.41-3.02-.82-28.13-.76-39.75-1.06-2.77-.08-4.78-.17-5.53-.3-.71-.12-1.33-.46-1.88-.94-2.47-2.17-3.48-7.26-4.67-8.93-1.1-1.56-2.35-2.03-3.7-.77-13.92-14.43-20.17-8.94-29.36-6.51.29-.6.64-1.2 1.03-1.81 1.11-1.73 2.61-3.48 4.32-5.08Z" class="cls-4"/><path d="M126.73 145.24s5.49 8.92 10.81 9.68c-6 2.17-18.51 2.43-24.77 2.43-3.7 0-9.11-.18-12.9-.33v-.18l-4.46-12.16c3.57-1.75 8.12-4.07 11.36-4.91 4.6-1.19 4.77-.85 7.15.09 2.32.91 4.81 2.23 10.45 3.79.14.04.29.08.44.12.65.52 1.28 1.02 1.92 1.47Z" class="cls-2"/><path d="M124.81 142.03c-1.23-5.62-6.42-13.92-7.95-18.13 9.19-2.43 15.44-7.92 29.36 6.51-.43.39-.87.96-1.32 1.72-1.87 3.16-13.28 9.43-20.09 11.64-.15-.04-.3-.08-.44-.12l.44-1.62Z" class="cls-4"/><path d="m107.21 48.64 3.14.64c-2.13 3.61-3.98 2.22-5.3.64l.7-.89h.73l.73-.39Z" class="cls-1"/><path d="M108.9 22.16c1.06-.22 1.87 3.27 2.81 4.89.93 1.62 4 9.15 4.25 9.4s1.96-1.32 2.73-2.08c.76-.77 1.66-1.92 2.72-1.62s1.74 1.06 1.7 2.43c-.04 1.36-.04 4.68-1.17 5.15-1.13.46-2.02.21-2.02.21.21 1.19.47 3.36.47 3.36l4.42 1.74 6.09 6.77c-3.87 2.26-13.6 10.2-22.32 5.02-1.83-.2-3.37-.71-4.63-1.29-.56-.25-1.06-.53-1.52-.79-3.06-1.79-7.02-12.51-7.28-19.41-.11-3.08.18-5.85.74-8.14.68-2.83 1.75-4.92 2.92-5.93.56.26 1.37.37 2.15.35 3 .11 6.88.15 7.94-.06Zm1.45 27.12-3.14-.64-.73.39h-.73l-.7.89c1.32 1.58 3.17 2.97 5.3-.64Z" class="cls-1"/><path d="M121.92 12.55c-2.54-3.53-4.68-6.1-4.68-6.1h-.83l-3.77 2.62 1.85 3.26 6.39.31v1.41l-4.34-.13.64 1.85c2.8 3.26 5.31 8.11 4.76 13.6 2.96.96 3.85 2.87 3.53 4.72s-.66 11.55-.66 11.55l-4.42-1.74s-.26-2.17-.47-3.36c0 0 .89.25 2.02-.21 1.13-.47 1.13-3.79 1.17-5.15.04-1.37-.64-2.13-1.7-2.43s-1.96.85-2.72 1.62c-.77.76-2.47 2.34-2.73 2.08s-3.32-7.78-4.25-9.4c-.94-1.62-1.75-5.11-2.81-4.89-1.06.21-4.94.17-7.94.06-.78.02-1.59-.09-2.15-.35-.85-.39-1.15-1.1.05-2.14 1.98-1.72 7.91-6.89 7.91-6.89h-4.35v-1.47h4.67v-.9s-3.96-4.91-4.02-5.17c-.83-1.91-.89-4.14.06-4.53.96-.38 2.3-.7 3.96 1.47s4.21 5.36 4.21 5.36l4.66-3.64c3.32.96 16.47 14.62 21.26 42h-1.53s-3.9-18.57-10.22-28.15a95.95 95.95 0 0 0-3.55-5.26Z" class="cls-4"/><path d="m95.41 144.68 4.47 12.16v.18c-2.62-.09-4.47-.18-4.47-.18l-3.79-10.43c.98-.38 2.3-1 3.79-1.73ZM91.62 146.41l3.79 10.43c-3.19 3.95-10.34 10.08-10.34 10.08s-5.36-7.53-4.98-9.96c-7.02 3.83-24.64 11.62-24.51 9.96 4.67-6.89 7.42-11.75 8.04-15.46h.01s2.97-1.13 5.27-2.68c2.3-1.54 5.02-.5 10.21-.07 5.19.42 9.19-1.02 12.51-2.3Z" class="cls-2"/><path d="M79.51 89.48c-.4.98-.73 1.9-.95 2.76-.4 1.54-.74 3.12-1.03 4.71h-.01c-5.12.5-20.03-9.43-22.07-12.62 5.49-5.49 12-13.21 14.56-14.65 1.99-1.13 8.82-6.2 14.09-8.67l2.76.87s2.78 5.08 3.05 10.44c-3.93 5.45-8.28 12.02-10.4 17.16ZM66.01 119.05c-2.36 6.79-3.36 19.79-3.11 22.52-.03-.12-.04-.18-.04-.18-1.79-.64-11.31-5.6-11.31-5.6-9.06-3.46-14.64-13.03-18.13-17.45-.01-.29-.02-.56-.05-.82-.08-.77-.23-1.63-.41-2.56 6.07-1.23 19.34-3.1 22.15-1.57s10.9 5.66 10.9 5.66Z" class="cls-4"/><path d="M116.63 123.94c.08-.01.15-.03.23-.04 1.53 4.21 6.72 12.51 7.95 18.13l-.44 1.62c-5.64-1.56-8.13-2.88-10.45-3.79-2.38-.94-2.55-1.28-7.15-.09-3.24.84-7.79 3.16-11.36 4.91-1.49.73-2.81 1.35-3.79 1.73-3.32 1.28-7.32 2.72-12.51 2.3-5.19-.43-7.91-1.47-10.21.07-2.3 1.55-5.27 2.68-5.27 2.68h-.01c.07-.35.11-.68.13-1.01.2-3.02-.47-6.91-.76-8.42-.04-.19-.07-.34-.09-.45-.25-2.74.75-15.74 3.11-22.53h1.83l8.04-4.09c2.68 3.71 17.49 6.77 23.36 6l1.02-2.75c5.97 2.66 13.95 5.96 16.37 5.73Z" class="cls-4"/><path d="m45.9 79.75.71 13.92-.37.52c-1.95-1.39-3.77-2.75-5.3-3.94l.67-.24-1.13-10.35-2.64-24.4h6.8l1.26 24.49Z" style="fill:#e2b892;stroke-width:0"/><path d="M45.9 79.75s5.72.75 9.55 4.58c2.04 3.19 16.95 13.12 22.07 12.62h.01c-1.65 8.98-1.65 18.01-1.65 18.01l-8.04 4.09h-1.83s-8.09-4.13-10.9-5.66-16.08.34-22.15 1.57c-.96-4.87-3.04-11.52-3.04-16.46 0-5.88 3.19-18.04 10.56-18.84l1.13 10.35-.67.24c1.53 1.19 3.35 2.55 5.3 3.94l.37-.52-.71-13.92ZM33.42 118.34c3.49 4.42 9.07 13.99 18.13 17.45-14.04 4.46-25.71 3.68-25.71 3.68 4.11-6.88 7.64-16.06 7.58-21.13Z" class="cls-4"/><path d="M124.81 45.64s.34-9.7.66-11.55-.57-3.76-3.53-4.72c.55-5.49-1.96-10.34-4.76-13.6l-.64-1.85 4.34.13v-1.41l-6.39-.31-1.85-3.26 3.77-2.62h.83s2.14 2.57 4.68 6.1a95.95 95.95 0 0 1 3.55 5.26c6.32 9.58 10.22 28.15 10.22 28.15h1.53c-4.79-27.38-17.94-41.04-21.26-42L111.3 7.6s-2.55-3.19-4.21-5.36-3-1.85-3.96-1.47c-.95.39-.89 2.62-.06 4.53.06.26 4.02 5.17 4.02 5.17v.9h-4.67v1.47h4.35s-5.93 5.17-7.91 6.89c-1.2 1.04-.9 1.75-.05 2.14.56.26 1.37.37 2.15.35 3 .11 6.88.15 7.94-.06 1.06-.22 1.87 3.27 2.81 4.89.93 1.62 4 9.15 4.25 9.4s1.96-1.32 2.73-2.08c.76-.77 1.66-1.92 2.72-1.62s1.74 1.06 1.7 2.43c-.04 1.36-.04 4.68-1.17 5.15-1.13.46-2.02.21-2.02.21.21 1.19.47 3.36.47 3.36l4.42 1.74Z" class="cls-10"/><path d="M98.81 21.87c-1.17 1.01-2.24 3.1-2.92 5.93-.56 2.29-.85 5.06-.74 8.14.26 6.9 4.22 17.62 7.28 19.41.46.26.96.54 1.52.79 1.26.58 2.8 1.09 4.63 1.29 2.82.31 6.35-.1 10.7-2.08" class="cls-10"/><path d="m124.81 45.64 6.09 6.77c-3.87 2.26-13.6 10.2-22.32 5.02M95.89 27.8h3.48M107.21 26.62h2.75M107.21 36.45s2.88-1.02 4.16-1.02M95.89 38.11h4.12M101.67 36.45v8.43h4.34M105.75 43.16s1.38 1.02 1.46 1.72M110.35 49.28l-3.14-.64-.73.39h-.73l-.7.89c1.32 1.58 3.17 2.97 5.3-.64Z" class="cls-10"/><path d="m106.55 50.1 1.24-.15" style="stroke-width:.5px;stroke-linecap:round;stroke-linejoin:round;fill:none;stroke:#000"/><path d="M101.15 57.52s3.96 9.7 12.39 10.34c8.42.64 19.67-5.99 26.3-13.66" class="cls-11"/><path d="M62.9 141.57c-.03-.12-.04-.18-.04-.18-1.79-.64-11.31-5.6-11.31-5.6-14.04 4.46-25.71 3.68-25.71 3.68 4.11-6.88 7.64-16.06 7.58-21.13-.01-.29-.02-.56-.05-.82-.08-.77-.23-1.63-.41-2.56-.96-4.87-3.04-11.52-3.04-16.46 0-5.88 3.19-18.04 10.56-18.84M130.9 52.41c2.67.25 5.86.75 9.03 1.34 4.01.77 7.98 1.7 10.77 2.52.72.21 1.36.42 1.9.61 4.34 1.53 13.02 9.64 16.28 12.19 3.25 2.55 13.21 10.28 15.51 12.45s1.66 8.42.89 12.76c-.34 1.92-1.3 4.66-2.27 7.13-1.22 3.11-2.45 5.77-2.45 5.77l1.66 4.34s9.19-.26 14.04.89 8.43 11.23 10.98 15.32c.78 1.25 1.64 2.78 2.43 4.4 1.79 3.65 3.24 7.8 2.8 10.54-.25 1.54-1 2.5-2.3 3.15-2.04 1.02-5.42 1.28-10.33 1.82-8.05.9-22.98 3.32-22.98 3.32-6.51 7.02-13.28 15.96-13.28 15.96-12.38-3.06-25.53-9.7-26.04-12-6 2.17-18.51 2.43-24.77 2.43-3.7 0-9.11-.18-12.9-.33-2.61-.09-4.46-.18-4.46-.18-3.19 3.95-10.34 10.08-10.34 10.08s-5.36-7.53-4.98-9.96c-7.02 3.83-24.64 11.62-24.51 9.96 4.67-6.89 7.42-11.75 8.04-15.46.07-.35.11-.68.13-1.01.2-3.02-.47-6.91-.76-8.42-.04-.19-.07-.34-.09-.45M45.9 79.75s5.72.75 9.55 4.58c5.49-5.49 12-13.21 14.56-14.65 1.99-1.13 8.82-6.2 14.09-8.67 1.47-.69 2.82-1.18 3.91-1.32 4.97-.64 9.63-1.57 10.5-1.69.38-.06 1.46-.4 2.56-.76 1.4-.47 2.83-.97 2.83-.97" class="cls-10"/><path d="m106.55 66.84-1.5 5.87s-8.11 9.45-11.81 19.4c-3.7 9.96-3.32 14.81-3.32 14.81M97.95 61.88s-3.78 4.56-8.04 10.44c-3.93 5.45-8.28 12.02-10.4 17.16-.4.98-.73 1.9-.95 2.76-.4 1.54-.74 3.12-1.03 4.71-1.65 8.98-1.65 18.01-1.65 18.01l-8.04 4.09M75.88 114.96c2.68 3.71 17.49 6.77 23.36 6M116.86 123.9c-.08.01-.15.03-.23.04-14.07 2.7-36.81 8-40.75 8.13-3.96.13-4.73 0-4.73 0" class="cls-11"/><path d="M93.24 114.96s3.07 1.48 7.02 3.25c5.97 2.66 13.95 5.96 16.37 5.73M127.86 71.81s-9.98 11.49-11 27.45 1.03 22.83 1.03 22.83" class="cls-11"/><path d="M191.03 121.73c-20.43-8.94-51.96-12.51-58.09-11.06-1.65.39-3.38 1.13-5.08 2.12-1.99 1.14-3.93 2.61-5.65 4.22-1.71 1.6-3.21 3.35-4.32 5.08-.39.61-.74 1.21-1.03 1.81 1.53 4.21 6.72 12.51 7.95 18.13" class="cls-11"/><path d="M149.92 58.73s-4.47 7.29-7.91 10.19c-3.45 2.89-12.39 12.6-15.96 22.55-3.58 9.96-4.61 21.71-3.84 25.54" class="cls-11"/><path d="m153.11 76.67 3.19-4.86 10.09 5.62c-15.96 4.09-28.72 9.7-33.7 18s-4.94 12.63-4.83 17.36M134.09 110.36c7.28-5.35 13.79-11.86 36.64-15.18" class="cls-11"/><path d="M210.17 145.82c-.19 0-4.69-2.39-8.42-3.41-3.02-.82-28.13-.76-39.75-1.06-2.77-.08-4.78-.17-5.53-.3-.71-.12-1.33-.46-1.88-.94-2.47-2.17-3.48-7.26-4.67-8.93-1.1-1.56-2.35-2.03-3.7-.77-.43.39-.87.96-1.32 1.72-1.87 3.16-13.28 9.43-20.09 11.64.65.52 1.28 1.02 1.92 1.47 3.51 2.55 6.98 3.93 12.89 1.77 6.98-2.56 9.24-5.11 14.32-2.56 1.59.8 4.1 1.78 6.9 2.74 6.18 2.12 13.78 4.13 16.02 3.77" class="cls-10"/><path d="M126.73 145.24s5.49 8.92 10.81 9.68M124.81 143.77c-.15-.04-.3-.08-.44-.12-5.64-1.56-8.13-2.88-10.45-3.79-2.38-.94-2.55-1.28-7.15-.09-3.24.84-7.79 3.16-11.36 4.91-1.49.73-2.81 1.35-3.79 1.73-3.32 1.28-7.32 2.72-12.51 2.3-5.19-.43-7.91-1.47-10.21.07-2.3 1.55-5.27 2.68-5.27 2.68M91.62 146.41l3.79 10.43M95.41 144.68l4.47 12.16" class="cls-10"/><path d="M116.86 123.9c9.19-2.43 15.44-7.92 29.36 6.51M36.43 86.11c-.21.25 1.64 1.9 4.51 4.14 1.53 1.19 3.35 2.55 5.3 3.94 6.94 4.97 15.55 10.47 18.79 10.94" class="cls-11"/><path d="M33.41 118.33h.01c3.49 4.43 9.07 14 18.13 17.46M62.9 141.57h0c.02.24.05.39.09.46" class="cls-10"/><path d="M32.96 114.96c6.07-1.23 19.34-3.1 22.15-1.57s10.9 5.66 10.9 5.66c-2.36 6.79-3.36 19.79-3.11 22.52M55.45 84.33c2.04 3.19 16.95 13.12 22.07 12.62M71.15 76.67s7.66 5.97 8.36 12.81M86.86 61.88s2.78 5.08 3.05 10.44" class="cls-11"/><path d="M183.01 101.41c5.12-2.4 19.59-10.74 19.59-10.74l9.95 19.69 6.45-3.25 8.62-4.34 24.68 29.36h-42.63M202.6 90.67l16.4 16.44M154.59 140.11l-.65 4.34M162 141.35l-1.16 5.84M45.9 79.75l.71 13.92M40.48 79.66l-2.64-24.4h6.8l1.26 24.49M41.61 90.01l-1.13-10.35" class="cls-10"/></g></svg>