<?xml version="1.0" encoding="utf-8"?>
<!-- Generator: Adobe Illustrator 27.9.0, SVG Export Plug-In . SVG Version: 6.00 Build 0)  -->
<svg version="1.1" id="レイヤー_1" xmlns="http://www.w3.org/2000/svg" xmlns:xlink="http://www.w3.org/1999/xlink" x="0px"
	 y="0px" viewBox="0 0 270.4 206.1" style="enable-background:new 0 0 270.4 206.1;" xml:space="preserve">
<style type="text/css">
	.st0{fill:#F3EDD7;}
	.st1{fill:#333333;}
	.st2{fill:#D2D296;}
	.st3{fill:none;stroke:#000000;stroke-miterlimit:10;}
	.st4{fill:#FE936F;}
	.st5{fill:#8A6787;}
	.st6{fill:#FC5B47;}
	.st7{fill:#F2472D;}
	.st8{fill:#EDD2B4;}
	.st9{fill:none;stroke:#000000;stroke-linecap:round;stroke-linejoin:round;}
</style>
<g id="_畳">
	<g>
		<g>
			<rect x="0.2" y="171.5" class="st0" width="3.6" height="5"/>
			<path class="st0" d="M270.1,199.1v6.6h-30.4l15.4-8.6c1,1.6,3.1,2.7,5.5,2.7s4.6-1.2,5.6-2.9L270.1,199.1L270.1,199.1z"/>
			<path class="st0" d="M270.1,188.5v10.6l-4-2.2c0.4-0.6,0.6-1.4,0.6-2.1c0-1.3-0.6-2.5-1.6-3.4L270.1,188.5L270.1,188.5z"/>
			<path class="st0" d="M270.1,176.5v12l-5,2.8c-1.1-1-2.8-1.6-4.6-1.6s-3.3,0.6-4.4,1.5L230,176.5L270.1,176.5L270.1,176.5z"/>
			<polygon class="st0" points="270.1,117.7 270.1,123.4 1.1,123.4 0.2,123.4 0.2,117.7 			"/>
			<rect x="266.2" y="171.5" class="st0" width="4" height="5"/>
			<path class="st0" d="M266.8,194.7c0,0.8-0.2,1.5-0.6,2.1l-5.4-3.1l4.4-2.5C266.2,192.2,266.8,193.4,266.8,194.7z"/>
			<path class="st0" d="M260.8,193.8l5.4,3.1c-1,1.7-3.1,2.9-5.6,2.9s-4.5-1.1-5.5-2.7L260.8,193.8L260.8,193.8z"/>
			<rect x="254.9" y="171.5" class="st1" width="11.3" height="5"/>
			<path class="st0" d="M265.2,191.3l-4.4,2.5l-4.6-2.6c1.1-0.9,2.7-1.5,4.4-1.5C262.4,189.6,264,190.3,265.2,191.3L265.2,191.3z"/>
			<path class="st0" d="M260.8,193.8l-5.7,3.2c-0.4-0.7-0.7-1.5-0.7-2.3c0-1.4,0.7-2.6,1.8-3.5L260.8,193.8L260.8,193.8z"/>
			<path class="st0" d="M230,176.5l26.1,14.7c-1.1,0.9-1.8,2.1-1.8,3.5c0,0.8,0.2,1.6,0.7,2.3l-15.4,8.6h-41.5l-15.6-8.8
				c0.4-0.6,0.6-1.4,0.6-2.1c0-1.3-0.6-2.5-1.6-3.4l26.3-14.8H230z M224.1,194.7c0-2.8-2.2-5-5-5s-5,2.2-5,5s2.2,5,5,5
				S224.1,197.5,224.1,194.7z"/>
			<polygon class="st0" points="254.9,176.5 230,176.5 224.3,176.5 224.3,171.5 254.9,171.5 			"/>
			<rect x="213" y="171.5" class="st1" width="11.3" height="5"/>
			<path class="st1" d="M219.1,189.6c2.8,0,5,2.2,5,5s-2.2,5-5,5s-5-2.2-5-5S216.3,189.6,219.1,189.6z"/>
			<path class="st0" d="M207.9,176.5l-26.3,14.8c-1.1-1-2.8-1.6-4.6-1.6s-3.3,0.6-4.4,1.5l-26.1-14.7H207.9z"/>
			<polygon class="st0" points="182.5,176.5 182.5,171.5 213,171.5 213,176.5 207.9,176.5 			"/>
			<path class="st0" d="M198.2,205.6h-42.1l15.4-8.6c1,1.6,3.1,2.7,5.5,2.7s4.6-1.2,5.6-2.9L198.2,205.6L198.2,205.6z"/>
			<path class="st0" d="M183.2,194.7c0,0.8-0.2,1.5-0.6,2.1l-5.4-3.1l4.4-2.5C182.5,192.2,183.2,193.4,183.2,194.7L183.2,194.7z"/>
			<path class="st0" d="M177.1,193.8l5.4,3.1c-1,1.7-3.1,2.9-5.6,2.9s-4.5-1.1-5.5-2.7L177.1,193.8L177.1,193.8z"/>
			<rect x="171.2" y="171.5" class="st1" width="11.3" height="5"/>
			<path class="st0" d="M176.9,189.6c1.8,0,3.5,0.6,4.6,1.6l-4.4,2.5l-4.6-2.6C173.6,190.2,175.2,189.6,176.9,189.6z"/>
			<path class="st0" d="M177.1,193.8l-5.7,3.2c-0.4-0.7-0.7-1.5-0.7-2.3c0-1.4,0.7-2.6,1.8-3.5L177.1,193.8L177.1,193.8z"/>
			<path class="st0" d="M146.4,176.5l26.1,14.7c-1.1,0.9-1.8,2.1-1.8,3.5c0,0.8,0.2,1.6,0.7,2.3l-15.4,8.6h-41.5L99,196.8
				c0.4-0.6,0.6-1.4,0.6-2.1c0-1.3-0.6-2.5-1.6-3.4l26.3-14.8H146.4L146.4,176.5z M139.4,194.7c0-2.8-2.2-5-5-5s-5,2.2-5,5
				s2.2,5,5,5S139.4,197.5,139.4,194.7z"/>
			<polygon class="st0" points="171.2,176.5 146.4,176.5 140.7,176.5 140.7,171.5 171.2,171.5 			"/>
			<rect x="129.4" y="171.5" class="st1" width="11.3" height="5"/>
			<path class="st1" d="M134.4,189.6c2.8,0,5,2.2,5,5s-2.2,5-5,5s-5-2.2-5-5S131.6,189.6,134.4,189.6z"/>
			<path class="st0" d="M124.3,176.5l-26.3,14.8c-1.1-1-2.8-1.6-4.6-1.6s-3.3,0.6-4.4,1.5l-26.1-14.7H124.3z"/>
			<polygon class="st0" points="129.4,176.5 124.3,176.5 98.8,176.5 98.8,171.5 129.4,171.5 			"/>
			<path class="st0" d="M114.6,205.6H72.5l15.3-8.6c1,1.6,3.1,2.7,5.5,2.7s4.6-1.2,5.6-2.9L114.6,205.6L114.6,205.6z"/>
			<path class="st0" d="M99.5,194.7c0,0.8-0.2,1.5-0.6,2.1l-5.4-3.1l4.4-2.5C98.9,192.2,99.5,193.4,99.5,194.7L99.5,194.7z"/>
			<path class="st0" d="M93.5,193.8l5.4,3.1c-1,1.7-3.1,2.9-5.6,2.9s-4.5-1.1-5.5-2.7C87.8,197,93.5,193.8,93.5,193.8z"/>
			<rect x="87.5" y="171.5" class="st1" width="11.3" height="5"/>
			<path class="st0" d="M93.3,189.6c1.8,0,3.5,0.6,4.6,1.6l-4.4,2.5l-4.6-2.6C90,190.2,91.6,189.6,93.3,189.6z"/>
			<path class="st0" d="M93.5,193.8l-5.7,3.2c-0.4-0.7-0.7-1.5-0.7-2.3c0-1.4,0.7-2.6,1.8-3.5L93.5,193.8L93.5,193.8z"/>
			<path class="st0" d="M62.8,176.5l26.1,14.7c-1.1,0.9-1.8,2.1-1.8,3.5c0,0.8,0.2,1.6,0.7,2.3l-15.3,8.6H30.8l-15.6-8.8
				c0.4-0.6,0.6-1.4,0.6-2.1c0-1.3-0.6-2.5-1.6-3.4l26.3-14.8H62.8L62.8,176.5z M54.3,194.7c0-2.8-2.2-5-5-5s-5,2.2-5,5s2.2,5,5,5
				S54.3,197.5,54.3,194.7z"/>
			<polygon class="st0" points="87.5,176.5 62.8,176.5 57,176.5 57,171.5 87.5,171.5 			"/>
			<rect x="45.7" y="171.5" class="st1" width="11.3" height="5"/>
			<path class="st1" d="M49.2,189.6c2.8,0,5,2.2,5,5s-2.2,5-5,5s-5-2.2-5-5S46.5,189.6,49.2,189.6z"/>
			<polygon class="st0" points="45.7,176.5 40.5,176.5 15.2,176.5 15.2,171.5 45.7,171.5 			"/>
			<path class="st0" d="M30.8,205.6H0.2v-6.5L4,197c1,1.6,3.1,2.7,5.5,2.7s4.6-1.2,5.6-2.9L30.8,205.6L30.8,205.6z"/>
			<path class="st0" d="M15.7,194.7c0,0.8-0.2,1.5-0.6,2.1l-5.4-3.1l4.4-2.5C15.1,192.2,15.7,193.4,15.7,194.7L15.7,194.7z"/>
			<rect x="3.9" y="171.5" class="st1" width="11.3" height="5"/>
			<path class="st0" d="M9.7,193.8l5.4,3.1c-1,1.7-3.1,2.9-5.6,2.9S5,198.6,4,197L9.7,193.8z"/>
			<path class="st0" d="M9.5,189.6c1.8,0,3.5,0.6,4.6,1.6l-4.4,2.5l-4.6-2.6C6.2,190.2,7.8,189.6,9.5,189.6z"/>
			<path class="st0" d="M9.7,193.8L4,197c-0.4-0.7-0.7-1.5-0.7-2.3c0-1.4,0.7-2.6,1.8-3.5L9.7,193.8L9.7,193.8z"/>
			<path class="st0" d="M0.2,188.4l4.8,2.7c-1.1,0.9-1.8,2.1-1.8,3.5c0,0.8,0.2,1.6,0.7,2.3l-3.8,2.1C0.2,199.1,0.2,188.4,0.2,188.4
				z"/>
			<polygon class="st2" points="213,171.5 182.5,171.5 171.2,171.5 140.7,171.5 129.4,171.5 98.8,171.5 87.5,171.5 57,171.5 
				45.7,171.5 15.2,171.5 3.9,171.5 0.2,171.5 0.2,123.4 1.1,123.4 270.1,123.4 270.1,171.5 266.2,171.5 254.9,171.5 224.3,171.5 
							"/>
			<path class="st0" d="M0.2,176.5h40.2l-26.3,14.8c-1.1-1-2.8-1.6-4.6-1.6s-3.3,0.6-4.4,1.5l-4.8-2.7
				C0.2,188.4,0.2,176.5,0.2,176.5z"/>
		</g>
		<g>
			<polyline class="st3" points="270.1,205.6 239.7,205.6 198.2,205.6 156.1,205.6 114.6,205.6 72.5,205.6 30.8,205.6 0.2,205.6 			
				"/>
			<line class="st3" x1="0.2" y1="117.7" x2="270.1" y2="117.7"/>
			<line class="st3" x1="0.2" y1="123.4" x2="270.1" y2="123.4"/>
			<line class="st3" x1="266.2" y1="171.5" x2="270.1" y2="171.5"/>
			<line class="st3" x1="224.3" y1="171.5" x2="254.9" y2="171.5"/>
			<line class="st3" x1="182.5" y1="171.5" x2="213" y2="171.5"/>
			<line class="st3" x1="140.7" y1="171.5" x2="171.2" y2="171.5"/>
			<line class="st3" x1="98.8" y1="171.5" x2="129.4" y2="171.5"/>
			<line class="st3" x1="57" y1="171.5" x2="87.5" y2="171.5"/>
			<line class="st3" x1="15.2" y1="171.5" x2="45.7" y2="171.5"/>
			<line class="st3" x1="0.2" y1="171.5" x2="3.9" y2="171.5"/>
			<line class="st3" x1="266.2" y1="176.5" x2="270.1" y2="176.5"/>
			<polyline class="st3" points="224.3,176.5 230,176.5 254.9,176.5 			"/>
			<polyline class="st3" points="182.5,176.5 207.9,176.5 213,176.5 			"/>
			<polyline class="st3" points="140.7,176.5 146.4,176.5 171.2,176.5 			"/>
			<polyline class="st3" points="98.8,176.5 124.3,176.5 129.4,176.5 			"/>
			<polyline class="st3" points="57,176.5 62.8,176.5 87.5,176.5 			"/>
			<polyline class="st3" points="15.2,176.5 40.5,176.5 45.7,176.5 			"/>
			<line class="st3" x1="0.2" y1="176.5" x2="3.9" y2="176.5"/>
			<polyline class="st3" points="72.5,205.6 87.8,197 93.5,193.8 97.9,191.3 124.3,176.5 			"/>
			<polyline class="st3" points="114.6,205.6 98.9,196.8 93.5,193.8 88.9,191.2 62.8,176.5 			"/>
			<path class="st3" d="M139.4,194.7c0,2.8-2.2,5-5,5s-5-2.2-5-5s2.2-5,5-5S139.4,191.9,139.4,194.7z"/>
			<path class="st3" d="M224.1,194.7c0,2.8-2.2,5-5,5s-5-2.2-5-5s2.2-5,5-5S224.1,191.9,224.1,194.7z"/>
			<path class="st3" d="M97.9,191.3c1,0.9,1.6,2.1,1.6,3.4c0,0.8-0.2,1.5-0.6,2.1c-1,1.7-3.1,2.9-5.6,2.9s-4.5-1.1-5.5-2.7
				c-0.4-0.7-0.7-1.5-0.7-2.3c0-1.4,0.7-2.6,1.8-3.5c1.1-0.9,2.7-1.5,4.4-1.5C95.2,189.6,96.8,190.3,97.9,191.3L97.9,191.3z"/>
			<polyline class="st3" points="0.2,199.1 4,197 9.7,193.8 14.1,191.3 40.5,176.5 			"/>
			<polyline class="st3" points="30.8,205.6 15.1,196.8 9.7,193.8 5.1,191.2 0.2,188.4 			"/>
			<path class="st3" d="M14.1,191.3c1,0.9,1.6,2.1,1.6,3.4c0,0.8-0.2,1.5-0.6,2.1c-1,1.7-3.1,2.9-5.6,2.9S5,198.6,4,197
				c-0.4-0.7-0.7-1.5-0.7-2.3c0-1.4,0.7-2.6,1.8-3.5c1.1-0.9,2.7-1.5,4.4-1.5C11.3,189.6,13,190.3,14.1,191.3L14.1,191.3z"/>
			<polyline class="st3" points="156.1,205.6 171.4,197 177.1,193.8 181.5,191.3 207.9,176.5 			"/>
			<polyline class="st3" points="198.2,205.6 182.6,196.8 177.1,193.8 172.5,191.2 146.4,176.5 			"/>
			<path class="st3" d="M181.5,191.3c1,0.9,1.6,2.1,1.6,3.4c0,0.8-0.2,1.5-0.6,2.1c-1,1.7-3.1,2.9-5.6,2.9s-4.5-1.1-5.5-2.7
				c-0.4-0.7-0.7-1.5-0.7-2.3c0-1.4,0.7-2.6,1.8-3.5c1.1-0.9,2.7-1.5,4.4-1.5C178.8,189.6,180.4,190.3,181.5,191.3L181.5,191.3z"/>
			<polyline class="st3" points="239.7,205.6 255.1,197 260.8,193.8 265.2,191.3 270.1,188.5 			"/>
			<polyline class="st3" points="270.1,199.1 266.2,196.8 260.8,193.8 256.1,191.2 230,176.5 			"/>
			<path class="st3" d="M265.2,191.3c1,0.9,1.6,2.1,1.6,3.4c0,0.8-0.2,1.5-0.6,2.1c-1,1.7-3.1,2.9-5.6,2.9s-4.5-1.1-5.5-2.7
				c-0.4-0.7-0.7-1.5-0.7-2.3c0-1.4,0.7-2.6,1.8-3.5c1.1-0.9,2.7-1.5,4.4-1.5C262.4,189.6,264,190.3,265.2,191.3L265.2,191.3z"/>
			<path class="st3" d="M54.3,194.7c0,2.8-2.2,5-5,5s-5-2.2-5-5s2.2-5,5-5S54.3,191.9,54.3,194.7z"/>
			<rect x="3.9" y="171.5" class="st3" width="11.3" height="5"/>
			<rect x="45.7" y="171.5" class="st3" width="11.3" height="5"/>
			<rect x="87.5" y="171.5" class="st3" width="11.3" height="5"/>
			<rect x="129.4" y="171.5" class="st3" width="11.3" height="5"/>
			<rect x="171.2" y="171.5" class="st3" width="11.3" height="5"/>
			<rect x="213" y="171.5" class="st3" width="11.3" height="5"/>
			<rect x="254.9" y="171.5" class="st3" width="11.3" height="5"/>
		</g>
	</g>
</g>
<g id="_レイヤー_2">
	<g>
		<g>
			<path class="st4" d="M145.2,55.7c1.4,1.5,0.6,3.9-1.2,6.2c-0.9,1.1-2,2.1-3.1,3l-0.1-0.1l-4.3-5.6c0.9-0.9,1.5-1.6,1.5-1.9
				c0-0.2-0.7-1.3-1.7-2.6c0,0,5-1,7.9,0.3C144.5,55.1,144.9,55.4,145.2,55.7L145.2,55.7z"/>
			<path class="st4" d="M90,101.8c1.9,5.3,4.6,9.7,5.3,13.2c0.3,1.1,0.3,2.2,0.1,3.2c-0.2,0.7-0.2,0.7,0,0c-0.2,0.7-0.5,1.4-1,2.1
				c-0.9,1.1-4.8,3.5-10.2,6.5c-12.7,7.1-33.4,17.5-40.9,21.1c-0.1,0-0.2,0.1-0.2,0.1l-1.5-0.1c-0.7-0.3-1.2-1-1.1-1.9l2.5-20.3
				l0.8-9.3l20.1-13.9l3.6-2.5l3.1-17.2c0,0,4.3-3.1,8.6-5.5c3.7-2,17.4-7.3,28.3-10.3c1.8-0.5,3.5-1,5.1-1.3l0.4-0.1
				c0.1,0.4,0.2,0.7,0.3,1c0.5,1.3,1.4,2.5,2.5,3.5c2.1,1.8,5,2.6,7.9,2.5c4.2-0.2,7.9-2.1,11.5-4.2c1.9-1.1,4-2.3,5.9-3.7
				c1.2-0.9,2.3-1.9,3.1-3c1.5,2.2,1,6.3-1,9.9c-2,3.6-6.1,14.1-8.1,20.5c-2.2,7-3,12.5-2,18.8l1.4,2.1c-1.8,1.5-3,2.8-3.3,3.7
				c-0.6,2.1-0.1,6,0.8,10.3c0,0-12.5,1.6-20.4,1.3c-1.1-4,1-25.9,1-25.9c1.5-2,2.7-4.1,3.4-6.1c0,0-9.1,2.5-12.6,4.3
				c-0.6,0.3-1.3,0.6-1.9,0.7C98.3,102.4,94.9,101.9,90,101.8L90,101.8z"/>
			<path class="st4" d="M140.8,64.9c-1.9,1.4-4,2.6-5.9,3.7c-3.6,2-7.3,4-11.5,4.2c-2.8,0.1-5.7-0.7-7.9-2.5c-1.1-0.9-2-2.1-2.5-3.5
				c-0.1-0.3-0.2-0.6-0.3-1c-0.3-1-0.5-2.3-0.1-3.1v-0.1c1.3-0.1,2.6-0.4,3.9-0.8c2,3,5.7,7.2,11.6,3.5c3.8-2.3,6.6-4.6,8.1-6.2
				l4.3,5.6C140.7,64.8,140.8,64.9,140.8,64.9z"/>
			<path class="st1" d="M98.6,30.4c-0.3-0.8,0.1-5.8,0.4-6.1c0.3-0.3,5.8-2.7,5.8-2.7l-0.3-1.4c-5.3,1.3-7.8,1.8-9.3,1.2
				c-1.5-0.6-5.1-6.3-5.1-7.7s-0.4-4,5.2-6c5.6-2,11-2.8,13.6-2.6c2.6,0.3,7,0.9,8.5,4.9c0.7,2,1.7,5,1.7,5l2.1-0.7l0.4,2.2
				l-2.8,4.9l6.7,13.1c0,0,0.7,1.1,1.6,2.7l-1.1,0.4c-0.5-1-1.1-1.8-1.8-2.3c-1.8-1.1-3.1,0.4-3.3,1.5c-0.2,1.1-0.3,2.2-0.3,2.2
				s-3.4-6.2-4.4-8.1c-1.1-1.9-3.2-4.4-3.2-4.4C111,28.2,98.6,30.6,98.6,30.4z"/>
			<path class="st4" d="M269.2,136.7c-1.3,3-28,8.3-33.4,9.1c0,0,4.5-15.6-0.9-24.7C239.4,121.9,264.3,125.2,269.2,136.7z"/>
			<path class="st5" d="M234.9,121.1c5.4,9.2,0.9,24.7,0.9,24.7c-1.3,1.3-2.3,2.5-2.3,2.5c-0.4-0.1-0.9-0.3-1.6-0.4
				c-0.2-2.7-8.5-16.5-13.3-21.8c-4.8-5.3-24.5-5.9-24.5-5.9c-2.2-5.6-3-10.4-3.1-11c0.1,0.5,0.2,1.1,0.3,1.7
				c2.6-0.7,10.3-2.3,14.2-1.5c15.6,1.7,22.5,1.8,28.8,10.8C234.5,120.5,234.7,120.8,234.9,121.1
				C234.9,121.1,234.9,121.1,234.9,121.1L234.9,121.1z"/>
			<path class="st6" d="M164.9,153.1c-1.4-0.1-2.7-0.2-3.7-0.4c-7.9-0.8-18.2,1.5-21.3,3c0.4-0.9,1-1.7,1.6-2.4
				c1-1.3,2.2-2.4,3.5-3.3c4.6-3.1,9.8-5.1,11.3-6.9c0,0,2.7-0.2,5.3,0.7c4.1,1.3,9.9,2.4,11.2,2.5c0.5,0.9,1.2,1.4,2.2,1.5
				c4.1,0.2,45.9-1.8,57,0.1c0.6,0.1,1.1,0.2,1.6,0.4l2.3,4.1c0,0-24.8,5.6-35.3,6.5c0,0-6.1-2.1-8.9-3.2c-1.1-0.4-4.7-0.8-9.2-1.2
				C176.8,154.1,169.9,153.6,164.9,153.1L164.9,153.1z"/>
			<path class="st4" d="M234.8,121.1c-0.2-0.3-0.3-0.6-0.5-0.8c-6.3-9-13.2-9.2-28.8-10.8c0,0,16.5-6.8,21.4-7.9
				c5-1.2,5.5-0.5,6.2,3.2C234,108.6,234.5,111.3,234.8,121.1z"/>
			<path class="st4" d="M171.4,68.8c1-0.7,2-1.4,2.9-2c0,0,7.9,11,10.9,18.1c2.8,6.8,3.6,13,5.8,24.3c0,0,0,0,0,0.1
				c0.1,0.6,1,5.4,3.1,11c0,0,19.7,0.6,24.5,5.9c4.8,5.3,13.1,19.2,13.3,21.8c-11.2-1.9-52.9,0-57-0.1c-1,0-1.7-0.6-2.2-1.5
				c-1.6-2.9-0.9-9.6-1.3-13.4c-7.5,0.3-13.7,7.4-14.8,9.8c-0.1,0.1-0.2,0.3-0.3,0.4c-1.5,1.8-6.7,3.8-11.3,6.9
				c-1.4,0.9-2.5,2-3.5,3.3l-1.7-1.7c0,0-1.7-4.4-3.7-10.2c-1.5-4.4-3.1-9.6-4.1-14.3c-1-4.4-1.5-8.2-0.8-10.3
				c0.3-0.9,1.4-2.1,3.3-3.7c1.4-1.2,3.3-2.6,5.4-4c0.1,0,0.1-0.1,0.2-0.1c1.7-1.1,3.5-2.3,5.5-3.5c0-0.1,0-0.2,0-0.2
				C146.2,86.3,160.8,76.2,171.4,68.8L171.4,68.8z"/>
			<path class="st5" d="M191.6,155.8c2.8,1,8.9,3.2,8.9,3.2c-9.8,8.1-26.6,6.6-31.3,5.5c0,0,4.3-5.1,13.1-9.8
				C186.9,154.9,190.5,155.4,191.6,155.8z"/>
			<path class="st5" d="M164.9,153.1c5.1,0.4,11.9,0.9,17.5,1.4c-8.8,4.7-13.1,9.8-13.1,9.8c-1.3,0.5-11.1,0.7-18.9,0.3L164.9,153.1
				L164.9,153.1z"/>
			<path class="st6" d="M171.4,132.9c0.4,3.8-0.3,10.5,1.3,13.4c-1.3-0.1-7.1-1.2-11.2-2.5c-2.5-0.8-5.3-0.7-5.3-0.7
				c0.1-0.1,0.2-0.3,0.3-0.4C157.7,140.4,163.9,133.3,171.4,132.9L171.4,132.9z"/>
			<path class="st7" d="M169.3,67.3c0.8,0.5,1.5,1,2.1,1.5c-10.6,7.4-25.2,17.5-26,36.6c0,0,0,0.1,0,0.2c-1.9,1.2-3.8,2.4-5.5,3.5
				l-0.2-0.3c-2-18.1,10.1-34,20.2-44.7l0,0C161.7,63.8,166.2,65.3,169.3,67.3L169.3,67.3z"/>
			<path class="st4" d="M169.6,66.8l-0.3,0.5c-3.1-1.9-7.6-3.5-9.5-3.2c1.9-2,3.8-3.9,5.4-5.5C165.3,58.5,169.6,63.6,169.6,66.8z"/>
			<path class="st5" d="M164.9,153.1l-14.5,11.6c-1.5,1.8-8.9,2.5-10.7,1.8c-1.7-0.6-4-2.7-4-2.7c-0.9-1.9-0.5-3.8,1-5.5
				c0.8-0.9,1.8-1.7,3.2-2.5c3.1-1.5,13.4-3.8,21.3-3C162.2,152.9,163.5,153,164.9,153.1z"/>
			<path class="st4" d="M165.3,58.5c-1.7,1.6-3.5,3.5-5.4,5.5l0,0c-10.1,10.7-22.2,26.7-20.2,44.7l0.2,0.3c-0.1,0-0.1,0.1-0.2,0.1
				c-2.1,1.4-4,2.8-5.4,4l-1.4-2.1c-1-6.3-0.2-11.7,2-18.8c2-6.3,6.1-16.8,8.1-20.5c2-3.6,2.5-7.8,1-9.9c1.8-2.3,2.6-4.7,1.2-6.2
				l0.2-0.1C145.4,55.6,159,55,165.3,58.5L165.3,58.5z"/>
			<path class="st4" d="M139.7,151.6l1.7,1.7c-0.6,0.8-1.1,1.6-1.6,2.4c-1.3,0.8-2.4,1.7-3.2,2.5l-1.7-1.6L139.7,151.6L139.7,151.6z
				"/>
			<path class="st4" d="M139.7,151.6l-4.7,5.1l-3.1,3.4c1.6-2,2.7-8.6-4-8.5c4-5.1,8.1-10.2,8.1-10.2
				C138,147.2,139.7,151.6,139.7,151.6z"/>
			<path class="st8" d="M116.6,61.8c-1.3,0.4-2.6,0.7-3.9,0.8c-1.5,0.2-2.9,0.1-4.2-0.1c-4.6-0.9-7.3-4.3-10-10.8
				c-2.7-6.5-3.8-14.8,0-21.3c0.1,0.3,12.4-2.2,14.4-3.9c0,0,2.2,2.4,3.2,4.4c1.1,1.9,4.4,8.1,4.4,8.1s0.2-1.1,0.3-2.2
				c0.2-1.1,1.5-2.6,3.3-1.5c0.7,0.4,1.4,1.3,1.8,2.3c0.3,0.6,0.5,1.2,0.6,1.7c0.4,1.4-2,3-3.8,2.1c0,0,3.4,6.2,4.5,6.5
				c0.6,0.2,1.5-0.2,2.6-0.8c0.2,0.3,3.9,4.6,6.2,7.5c1,1.3,1.8,2.4,1.7,2.6c0,0.3-0.6,1-1.5,1.9c-1.6,1.6-4.4,3.9-8.1,6.2
				C122.3,69,118.6,64.8,116.6,61.8z"/>
			<path class="st4" d="M135,156.7l1.7,1.6c-1.5,1.7-1.9,3.6-1,5.5H96.1c0,0-5.7,0.1-10.8,0.1v-0.1c-2.5,0-11.6-6-11.6-6h0
				c0.2-2.9-1.2-6.5-2.3-7.6c10.5,8.1,11,9.6,30.5,10c19.7,0.4,28.3,2,29.9,0C131.9,160.2,135,156.7,135,156.7z"/>
			<path class="st4" d="M111.4,128.6c8,0.3,20.4-1.3,20.4-1.3c1,4.6,2.7,9.8,4.1,14.3c0,0-4.2,5-8.1,10.2c6.7-0.1,5.6,6.5,4,8.5
				s-10.2,0.4-29.9,0c-19.5-0.4-20-1.8-30.5-10c0,0,0,0,0,0c-0.1-0.1-0.3-0.2-0.4-0.3c6.7-3.8,13.7-10.2,19-15.7
				c5.3-5.5,8.9-10,8.9-10c2.8,2,6.6,4,10.5,4.4C110.1,128.5,110.7,128.5,111.4,128.6L111.4,128.6z"/>
			<path class="st1" d="M129.9,47.1c-1.1,0.6-1.9,1-2.6,0.8c-1.1-0.3-4.5-6.5-4.5-6.5c1.7,0.9,4.1-0.7,3.8-2.1
				c-0.1-0.5-0.4-1.1-0.6-1.7l1.1-0.4c1.6,2.6,4.1,6.3,5.8,7.9C131.8,45.9,130.8,46.6,129.9,47.1z"/>
			<path class="st7" d="M115.8,96.5c-0.7,2.1-1.9,4.1-3.4,6.1c-5.9,8-16.4,14.8-17.1,15.6c0.2-1,0.2-2-0.1-3.2l0.2,0l5.8-13.4
				c0.7-0.2,1.3-0.4,1.9-0.7C106.7,99,115.8,96.5,115.8,96.5z"/>
			<path class="st4" d="M112.4,102.6c0,0-2.1,21.9-1,25.9c-0.7,0-1.4-0.1-2-0.1c-3.9-0.3-7.7-2.4-10.5-4.4c-2.8-2-4.7-3.8-4.7-3.8
				c0.5-0.6,0.9-1.3,1-2.1c0.1-0.5,0.1-0.5,0,0C96,117.4,106.5,110.6,112.4,102.6z"/>
			<path class="st7" d="M101.3,101.6L95.5,115l-0.2,0c-0.7-3.5-3.4-7.9-5.3-13.2C94.9,101.9,98.3,102.4,101.3,101.6z"/>
			<path class="st7" d="M94.3,120.3c0,0,1.8,1.9,4.7,3.8c0,0-3.6,4.5-8.9,10l-5.3-6.5l-0.7-0.8C89.4,123.8,93.4,121.3,94.3,120.3z"
				/>
			<path class="st7" d="M84.7,127.6l5.3,6.5c-5.3,5.5-12.3,12-19,15.7l-28.1-1.8c0.1,0,0.2-0.1,0.2-0.1c7.5-3.6,28.2-14,40.9-21.1
				C84.1,126.8,84.7,127.6,84.7,127.6z"/>
			<path class="st4" d="M85.3,163.8L85.3,163.8c-3.5,0.1-6.7,0.1-7.3,0c-1.5-0.3-6.6-1.1-6.6-1.1s-0.6-0.4-2-0.6l0-0.2
				c3,0.1,4.2-1.8,4.3-4.1h0C73.8,157.8,82.9,163.8,85.3,163.8L85.3,163.8z"/>
			<path class="st5" d="M67.9,161.9c-1.5-0.1-3.5-0.1-6.3,0.2c-1.4,0.2-2.9,0.4-4.6,0.8c-10.8,2.3-21.8,0.7-25.5-10.1
				c-3.6-10.8,1.7-17.9,11.3-27l-2.5,20.3c0,0.9,0.4,1.6,1.1,1.9c0.4,0.2,1,0.3,1.5,0.1l28.1,1.8l0.4,0.3c0,0,0,0,0,0
				c1.1,1.2,2.5,4.7,2.3,7.6c-0.1,2.3-1.3,4.2-4.3,4.1l0,0.2C69,162,68.5,161.9,67.9,161.9L67.9,161.9z"/>
		</g>
		<g>
			<path class="st9" d="M98.6,30.4c-0.3-0.8,0.1-5.8,0.4-6.1c0.3-0.3,5.8-2.7,5.8-2.7l-0.3-1.4c-5.3,1.3-7.8,1.8-9.3,1.2
				c-1.5-0.6-5.1-6.3-5.1-7.7s-0.4-4,5.2-6c5.6-2,11-2.8,13.6-2.6c2.6,0.3,7,0.9,8.5,4.9c0.7,2,1.7,5,1.7,5l2.1-0.7l0.4,2.2
				l-2.8,4.9l6.7,13.1c0,0,0.7,1.1,1.6,2.7c1.6,2.6,4.1,6.3,5.8,7.9c-1.1,0.8-2.1,1.5-2.9,2c-1.1,0.6-1.9,1-2.6,0.8
				c-1.1-0.3-4.5-6.5-4.5-6.5c1.7,0.9,4.1-0.7,3.8-2.1c-0.1-0.5-0.4-1.1-0.6-1.7c-0.5-1-1.1-1.8-1.8-2.3c-1.8-1.1-3.1,0.4-3.3,1.5
				s-0.3,2.2-0.3,2.2s-3.4-6.2-4.4-8.1c-1.1-1.9-3.2-4.4-3.2-4.4C111,28.2,98.6,30.6,98.6,30.4z"/>
			<path class="st9" d="M98.6,30.4c-3.8,6.5-2.7,14.7,0,21.3c2.7,6.5,5.4,9.9,10,10.8c1.3,0.3,2.7,0.3,4.2,0.1
				c1.3-0.1,2.6-0.4,3.9-0.8c2.4-0.7,4.6-1.9,6.1-3.4"/>
			<path class="st9" d="M116.6,61.8c2,3,5.7,7.2,11.6,3.5c3.8-2.3,6.6-4.6,8.1-6.2c0.9-0.9,1.5-1.6,1.5-1.9c0-0.2-0.7-1.3-1.7-2.6
				c-2.3-2.9-6-7.3-6.2-7.5h0"/>
			<path class="st9" d="M112.7,62.7c-0.4,0.8-0.2,2.1,0.1,3.1c0.1,0.4,0.2,0.7,0.3,1c0.5,1.3,1.4,2.5,2.5,3.5c2.1,1.8,5,2.6,7.9,2.5
				c4.2-0.2,7.9-2.1,11.5-4.2c1.9-1.1,4-2.3,5.9-3.7c1.2-0.9,2.3-1.9,3.1-3c1.8-2.3,2.6-4.7,1.2-6.2c-0.3-0.3-0.7-0.6-1.2-0.8
				c-2.9-1.3-7.9-0.3-7.9-0.3"/>
			<line class="st9" x1="136.4" y1="59.2" x2="140.7" y2="64.8"/>
			<line class="st9" x1="97.9" y1="39.2" x2="101.7" y2="38.4"/>
			<line class="st9" x1="109.4" y1="35.6" x2="113.4" y2="34.3"/>
			<line class="st9" x1="110.8" y1="41" x2="115.8" y2="41"/>
			<line class="st9" x1="102.4" y1="43" x2="99" y2="45.5"/>
			<path class="st9" d="M104.3,40.6c0,3,1.6,8.4,1.9,10s1.8,1.8,2.6,1.3c0.7-0.5,1.6-1.2,1.6-1.2"/>
			<path class="st9" d="M109.9,47.9c0,0,1.5,1.8,1.5,2.2v0.3"/>
			<polyline class="st9" points="109.8,56 113.4,56.2 111.1,58.2 			"/>
			<path class="st9" d="M190.9,109.2c-2.2-11.3-2.9-17.5-5.8-24.3c-3-7.1-10.9-18.1-10.9-18.1c-0.9,0.6-1.9,1.3-2.9,2
				c-10.6,7.4-25.2,17.5-26,36.6c0,0,0,0.1,0,0.2c0.1,0.7,1.4,3,11.7,3.6c12.4,0.7,20.8-0.4,20.8-0.4"/>
			<path class="st9" d="M234.8,121.1c-0.3-9.8-0.9-12.5-1.7-16.4c-0.7-3.6-1.2-4.3-6.2-3.2c-5,1.2-21.4,7.9-21.4,7.9
				c-4-0.8-11.6,0.8-14.2,1.5c-0.1-0.6-0.2-1.1-0.3-1.7"/>
			<path class="st9" d="M112.4,65.9c-1.6,0.4-3.3,0.8-5.1,1.3c-10.9,3-24.6,8.3-28.3,10.3c-4.3,2.3-8.6,5.5-8.6,5.5l-3.1,17.2
				l-3.6,2.5l-20.1,13.9l-0.8,9.3c-9.6,9.1-14.9,16.2-11.3,27c3.6,10.8,14.7,12.4,25.5,10.1c1.7-0.4,3.2-0.6,4.6-0.8
				c2.7-0.3,4.7-0.3,6.3-0.2c0.6,0,1.1,0.1,1.5,0.2c1.4,0.3,2,0.6,2,0.6s5.2,0.8,6.6,1.1c0.6,0.1,3.8,0.1,7.3,0.1
				c5,0,10.8-0.1,10.8-0.1h39.6c0,0,2.3,2.1,4,2.7c1.8,0.6,9.2,0,10.7-1.8c7.8,0.3,17.5,0.2,18.9-0.3c4.6,1.2,21.5,2.6,31.3-5.5
				c10.4-0.8,35.3-6.5,35.3-6.5l-2.3-4.1c0,0,1-1.2,2.3-2.5c5.5-0.8,32.1-6.1,33.4-9.1c-5-11.6-29.9-14.8-34.4-15.6"/>
			<path class="st9" d="M159.8,64c-10.1,10.7-22.2,26.7-20.2,44.7"/>
			<path class="st9" d="M145.4,55.6c0,0,13.7-0.6,19.9,2.9c-1.7,1.6-3.5,3.5-5.4,5.5"/>
			<path class="st9" d="M165.3,58.5c0,0,4.3,5.1,4.3,8.3"/>
			<path class="st9" d="M159.8,64L159.8,64c1.8-0.2,6.3,1.3,9.5,3.2c0.8,0.5,1.5,1,2.1,1.5h0"/>
			<path class="st9" d="M149.8,97.3l21.6-13.9l2,8.8c-7.4,2.1-18.9,7.8-28.1,13.4c-1.9,1.2-3.8,2.4-5.5,3.5c-0.1,0-0.1,0.1-0.2,0.1
				c-2.1,1.4-4,2.8-5.4,4c-1.8,1.5-3,2.8-3.3,3.7c-0.6,2.1-0.1,6,0.8,10.3c1,4.6,2.7,9.8,4.1,14.3c1.9,5.7,3.7,10.2,3.7,10.2
				l-4.7,5.1l-3.1,3.4"/>
			<path class="st9" d="M139.7,109.2c0,0,11.1,11.6,24.1,14.5c13,2.8,17.1,3.6,17.1,3.6"/>
			<path class="st9" d="M141.4,120.3c0,0,17.5,13.5,23.9,14"/>
			<path class="st9" d="M233.5,148.3c-0.4-0.1-0.9-0.3-1.6-0.4c-11.2-1.9-52.9,0-57-0.1c-1,0-1.7-0.6-2.2-1.5
				c-1.6-2.9-0.9-9.6-1.3-13.4c-7.5,0.3-13.7,7.4-14.8,9.8c-0.1,0.1-0.2,0.3-0.3,0.4c-1.5,1.8-6.7,3.8-11.3,6.9
				c-1.4,0.9-2.5,2-3.5,3.3c-0.6,0.8-1.1,1.6-1.6,2.4c-1.3,0.8-2.4,1.7-3.2,2.5c-1.5,1.7-1.9,3.6-1,5.5"/>
			<path class="st9" d="M156.2,143.1c0,0,2.7-0.2,5.3,0.7c4.1,1.3,9.9,2.4,11.2,2.5"/>
			<path class="st9" d="M190.9,109.2C190.9,109.2,190.9,109.2,190.9,109.2c0.1,0.6,1,5.5,3.1,11.1c2.2,5.6,5.7,12,11.1,15.3"/>
			<path class="st9" d="M194.1,120.3c0,0,19.7,0.6,24.5,5.9c4.8,5.3,13.1,19.2,13.3,21.8"/>
			<path class="st9" d="M205.5,109.4c15.6,1.7,22.5,1.8,28.8,10.8c0.2,0.3,0.4,0.6,0.5,0.8c0,0,0,0,0,0c5.4,9.2,0.9,24.7,0.9,24.7"
				/>
			<path class="st9" d="M107.3,67.2c3.9,8.1,6.5,15.4,6.1,26.5"/>
			<path class="st9" d="M101.7,74.7c0,0-9.7,25.4-11.7,27.1c4.9,0.1,8.4,0.6,11.3-0.2c0.7-0.2,1.3-0.4,1.9-0.7
				c3.5-1.8,12.6-4.3,12.6-4.3c-0.7,2.1-1.9,4.1-3.4,6.1c-5.9,8-16.4,14.8-17.1,15.6"/>
			<path class="st9" d="M90,101.8c1.9,5.3,4.6,9.7,5.3,13.2c0.3,1.1,0.3,2.2,0.1,3.2c-0.2,0.7-0.2,0.7,0,0c-0.2,0.7-0.5,1.4-1,2.1
				c-0.9,1.1-4.8,3.5-10.2,6.5c-12.7,7.1-33.4,17.5-40.9,21.1c-0.1,0-0.2,0.1-0.2,0.1c-0.5,0.2-1,0.1-1.5-0.1
				c-0.7-0.3-1.2-1-1.1-1.9l2.5-20.3"/>
			<path class="st9" d="M112.4,102.6c0,0-2.1,21.9-1,25.9l0,0"/>
			<path class="st9" d="M94.3,120.3c0,0,1.8,1.9,4.7,3.8c2.8,2,6.6,4,10.5,4.4c0.6,0,1.3,0.1,2,0.1c8,0.3,20.4-1.3,20.4-1.3"/>
			<path class="st9" d="M71.5,150.2c10.5,8.1,11,9.6,30.5,10c19.7,0.4,28.3,2,29.9,0s2.7-8.6-4-8.5c4-5.1,8.1-10.2,8.1-10.2"/>
			<path class="st9" d="M99,124.1c0,0-3.6,4.5-8.9,10c-5.3,5.5-12.3,12-19,15.7l0.4,0.3"/>
			<path class="st9" d="M116.3,131.8c0,0-12,23.2-15.9,25.9"/>
			<path class="st9" d="M53.2,152.8c0,0,10.1,8.1,14.7,9.1"/>
			<path class="st9" d="M45.1,157.3c0,0,10.3,4.9,16.5,4.7"/>
			<path class="st9" d="M139.8,155.8c3.1-1.5,13.4-3.8,21.3-3c1.1,0.1,2.3,0.2,3.7,0.4c5.1,0.4,11.9,0.9,17.5,1.4
				c4.5,0.4,8.1,0.8,9.2,1.2c2.8,1,8.9,3.2,8.9,3.2"/>
			<path class="st9" d="M169.3,164.4c0,0,4.3-5.1,13.1-9.8"/>
			<line class="st9" x1="150.4" y1="164.7" x2="164.9" y2="153.1"/>
			<path class="st9" d="M144,61.9c1.5,2.2,1,6.3-1,9.9c-2,3.6-6.1,14.1-8.1,20.5c-2.2,7-3,12.5-2,18.8"/>
			<line class="st9" x1="95.5" y1="115" x2="101.3" y2="101.6"/>
			<polyline class="st9" points="41.4,148 42.9,148.1 71,149.8 			"/>
			<polyline class="st9" points="84,126.8 84.1,126.8 84.7,127.6 90,134.1 			"/>
			<line class="st9" x1="84.7" y1="127.6" x2="69.5" y2="146.3"/>
			<path class="st9" d="M120.1,78.1c0,0-3.5,9.3-6.7,11.6"/>
			<line class="st9" x1="63.8" y1="102.6" x2="61.6" y2="118.2"/>
			<path class="st9" d="M71,149.8c0.1,0.1,0.3,0.2,0.4,0.3c0,0,0,0,0,0c1.1,1.2,2.5,4.7,2.3,7.6c-0.1,2.3-1.3,4.2-4.3,4.1"/>
			<path class="st9" d="M73.8,157.8c0,0,9.1,6,11.6,6"/>
		</g>
	</g>
</g>
</svg>
