<svg xmlns="http://www.w3.org/2000/svg" viewBox="0 0 270.4 221.64"><defs><style>.cls-1{stroke-miterlimit:10}.cls-1,.cls-2{stroke:#000}.cls-1,.cls-2,.cls-3{fill:none}.cls-4{fill:#ffddb0}.cls-4,.cls-5,.cls-6,.cls-7,.cls-9{stroke-width:0}.cls-5{fill:#f3edd7}.cls-2,.cls-3{stroke-linecap:round;stroke-linejoin:round}.cls-6{fill:#fb4134}.cls-7{fill:#333}.cls-9{fill:#f9eedc}.cls-3{stroke:#fff;stroke-width:.5px}</style></defs><g id="_畳" data-name="畳"><path d="M.24 186.99h3.62v5.03H.24zM270.15 214.57v6.57H239.7l15.35-8.63c1.03 1.62 3.11 2.72 5.51 2.72s4.62-1.18 5.62-2.88l3.97 2.23ZM270.15 204.01v10.56l-3.97-2.23c.38-.65.59-1.38.59-2.14 0-1.3-.62-2.48-1.62-3.38l4.99-2.8Z" class="cls-5"/><path d="M270.15 192.02v11.99l-4.99 2.8c-1.14-1.01-2.77-1.64-4.59-1.64s-3.31.58-4.44 1.51l-26.1-14.67h40.12ZM270.15 110.92v5.76H.24v-5.76h269.91z" class="cls-5"/><path d="M266.16 186.99h3.99v5.03h-3.99zM266.78 210.19c0 .76-.21 1.49-.59 2.14l-5.42-3.05 4.39-2.47c1 .89 1.62 2.08 1.62 3.38ZM260.77 209.29l5.42 3.05c-1 1.7-3.13 2.88-5.62 2.88s-4.48-1.1-5.51-2.72l5.71-3.21Z" class="cls-5"/><path d="M254.85 186.99h11.31v5.03h-11.31z" class="cls-7"/><path d="m265.16 206.82-4.39 2.47-4.64-2.61c1.13-.93 2.7-1.51 4.44-1.51 1.82 0 3.46.63 4.59 1.64Z" class="cls-5"/><path d="m260.77 209.29-5.71 3.21c-.44-.69-.69-1.48-.69-2.31 0-1.37.68-2.61 1.77-3.51l4.64 2.61Z" class="cls-5"/><path d="m230.03 192.02 26.1 14.67c-1.09.9-1.77 2.14-1.77 3.51 0 .83.25 1.62.69 2.31l-15.35 8.63h-41.48l-15.65-8.8c.38-.65.59-1.38.59-2.14 0-1.3-.62-2.48-1.62-3.37l26.34-14.81h22.15Zm-5.97 18.18c0-2.77-2.25-5.02-5.02-5.02s-5.03 2.25-5.03 5.02 2.25 5.03 5.03 5.03 5.02-2.25 5.02-5.03Z" class="cls-5"/><path d="M254.85 192.02h-30.52v-5.03h30.52v5.03z" class="cls-5"/><path d="M213.02 186.99h11.31v5.03h-11.31zM219.05 205.17c2.77 0 5.02 2.25 5.02 5.02s-2.25 5.03-5.02 5.03-5.03-2.25-5.03-5.03 2.25-5.02 5.03-5.02Z" class="cls-7"/><path d="m207.88 192.02-26.34 14.81c-1.14-1.02-2.77-1.65-4.59-1.65s-3.31.58-4.44 1.51l-26.1-14.67h61.47ZM182.5 192.02v-5.03h30.52v5.03H182.5zM198.21 221.14h-42.13l15.35-8.63c1.03 1.62 3.12 2.72 5.51 2.72s4.62-1.18 5.62-2.88l15.65 8.8Z" class="cls-5"/><path d="M183.16 210.19c0 .76-.21 1.49-.59 2.14l-5.42-3.05 4.39-2.47c1 .89 1.62 2.07 1.62 3.37ZM177.15 209.29l5.42 3.05c-1 1.7-3.13 2.88-5.62 2.88s-4.48-1.1-5.51-2.72l5.71-3.21Z" class="cls-5"/><path d="M171.19 186.99h11.31v5.03h-11.31z" class="cls-7"/><path d="M176.95 205.17c1.82 0 3.46.63 4.59 1.65l-4.39 2.47-4.64-2.61c1.13-.93 2.7-1.51 4.44-1.51Z" class="cls-5"/><path d="m177.15 209.29-5.71 3.21c-.44-.69-.69-1.48-.69-2.31 0-1.37.68-2.61 1.77-3.51l4.64 2.61Z" class="cls-5"/><path d="m146.41 192.02 26.1 14.67c-1.09.9-1.77 2.14-1.77 3.51 0 .83.25 1.62.69 2.31l-15.35 8.63H114.6l-15.65-8.8c.38-.65.59-1.38.59-2.14 0-1.3-.62-2.48-1.62-3.37l26.34-14.81h22.15Zm-7.02 18.18c0-2.77-2.25-5.02-5.02-5.02s-5.03 2.25-5.03 5.02 2.25 5.03 5.03 5.03 5.02-2.25 5.02-5.03Z" class="cls-5"/><path d="M171.19 192.02H140.67v-5.03h30.52v5.03z" class="cls-5"/><path d="M129.36 186.99h11.31v5.03h-11.31zM134.38 205.17c2.77 0 5.02 2.25 5.02 5.02s-2.25 5.03-5.02 5.03-5.03-2.25-5.03-5.03 2.25-5.02 5.03-5.02Z" class="cls-7"/><path d="m124.26 192.02-26.34 14.81c-1.14-1.02-2.77-1.65-4.59-1.65s-3.31.58-4.44 1.51l-26.1-14.67h61.47ZM129.36 192.02H98.83v-5.03h30.53v5.03zM114.6 221.14H72.47l15.35-8.63c1.03 1.62 3.11 2.72 5.51 2.72s4.62-1.18 5.62-2.88l15.65 8.8Z" class="cls-5"/><path d="M99.54 210.19c0 .76-.21 1.49-.59 2.14l-5.42-3.05 4.39-2.47c1 .89 1.62 2.07 1.62 3.37ZM93.53 209.29l5.42 3.05c-1 1.7-3.13 2.88-5.62 2.88s-4.48-1.1-5.51-2.72l5.71-3.21Z" class="cls-5"/><path d="M87.53 186.99h11.31v5.03H87.53z" class="cls-7"/><path d="M93.33 205.17c1.82 0 3.46.63 4.59 1.65l-4.39 2.47-4.64-2.61c1.13-.93 2.7-1.51 4.44-1.51Z" class="cls-5"/><path d="m93.53 209.29-5.71 3.21c-.44-.69-.69-1.48-.69-2.31 0-1.37.68-2.61 1.77-3.51l4.64 2.61Z" class="cls-5"/><path d="m62.8 192.02 26.1 14.67c-1.09.9-1.77 2.14-1.77 3.51 0 .83.25 1.62.69 2.31l-15.35 8.63H30.79l-15.65-8.8c.38-.65.59-1.38.59-2.14 0-1.3-.62-2.48-1.62-3.37l26.34-14.81h22.34Zm-8.53 18.18c0-2.77-2.25-5.02-5.02-5.02s-5.03 2.25-5.03 5.02 2.25 5.03 5.03 5.03 5.02-2.25 5.02-5.03Z" class="cls-5"/><path d="M87.53 192.02H57v-5.03h30.53v5.03z" class="cls-5"/><path d="M45.7 186.99h11.31v5.03H45.7zM49.25 205.17c2.77 0 5.02 2.25 5.02 5.02s-2.25 5.03-5.02 5.03-5.03-2.25-5.03-5.03 2.25-5.02 5.03-5.02Z" class="cls-7"/><path d="M45.7 192.02H15.17v-5.03H45.7v5.03zM30.79 221.14H.24v-6.52L4 212.51c1.03 1.62 3.12 2.72 5.51 2.72s4.62-1.18 5.62-2.88l15.65 8.8ZM15.73 210.19c0 .76-.21 1.49-.59 2.14l-5.42-3.05 4.39-2.47c1 .89 1.62 2.07 1.62 3.37Z" class="cls-5"/><path d="M3.87 186.99h11.31v5.03H3.87z" class="cls-7"/><path d="m9.72 209.29 5.42 3.05c-1 1.7-3.13 2.88-5.62 2.88s-4.48-1.1-5.51-2.72l5.71-3.21ZM9.52 205.17c1.82 0 3.46.63 4.59 1.65l-4.39 2.47-4.64-2.61c1.13-.93 2.7-1.51 4.44-1.51Z" class="cls-5"/><path d="m9.72 209.29-5.71 3.21c-.44-.69-.69-1.48-.69-2.31 0-1.37.68-2.61 1.77-3.51l4.64 2.61ZM.24 203.97l4.84 2.72c-1.09.9-1.77 2.14-1.77 3.51 0 .83.25 1.62.69 2.31l-3.76 2.11v-10.65Z" class="cls-5"/><path d="M213.02 186.99H.24v-70.31H270.15v70.31h-57.13z" style="fill:#d2d296;stroke-width:0"/><path d="M.24 192.02h40.21l-26.34 14.81c-1.14-1.02-2.77-1.65-4.59-1.65s-3.31.58-4.44 1.51l-4.84-2.72v-11.95Z" class="cls-5"/><path d="M270.15 221.14H.24M.24 110.92h269.91M.24 116.68h269.91M266.16 186.99h3.99M224.33 186.99h30.52M182.5 186.99h30.52M140.67 186.99h30.52M98.83 186.99h30.53M57 186.99h30.53M15.17 186.99H45.7M.24 186.99h3.63M266.16 192.02h3.99M224.33 192.02h30.52M182.5 192.02h30.52M140.67 192.02H171.19M98.83 192.02h30.53M57 192.02h30.53M15.17 192.02H45.7M.24 192.02h3.63M72.46 221.14l15.35-8.64 5.72-3.21 4.39-2.47 26.34-14.8" class="cls-1"/><path d="m114.6 221.14-15.65-8.8-5.42-3.05-4.64-2.6-26.09-14.67M139.4 210.19c0 2.78-2.25 5.03-5.02 5.03s-5.03-2.25-5.03-5.03 2.25-5.02 5.03-5.02 5.02 2.25 5.02 5.02ZM224.07 210.19c0 2.78-2.25 5.03-5.02 5.03s-5.03-2.25-5.03-5.03 2.25-5.02 5.03-5.02 5.02 2.25 5.02 5.02Z" class="cls-1"/><path d="M97.92 206.82c1 .89 1.62 2.07 1.62 3.37 0 .76-.21 1.49-.59 2.14-1 1.7-3.13 2.88-5.62 2.88s-4.48-1.1-5.51-2.72c-.44-.69-.69-1.48-.69-2.31 0-1.37.68-2.61 1.77-3.51 1.13-.93 2.7-1.51 4.44-1.51 1.82 0 3.46.63 4.59 1.65ZM.24 214.61l3.77-2.11 5.71-3.21 4.39-2.47 26.34-14.8" class="cls-1"/><path d="m30.79 221.14-15.65-8.8-5.42-3.05-4.64-2.6-4.84-2.72" class="cls-1"/><path d="M14.11 206.82c1 .89 1.62 2.07 1.62 3.37 0 .76-.21 1.49-.59 2.14-1 1.7-3.13 2.88-5.62 2.88s-4.48-1.1-5.51-2.72c-.44-.69-.69-1.48-.69-2.31 0-1.37.68-2.61 1.77-3.51 1.13-.93 2.7-1.51 4.44-1.51 1.82 0 3.46.63 4.59 1.65ZM156.08 221.14l15.35-8.64 5.72-3.21 4.39-2.47 26.34-14.8" class="cls-1"/><path d="m198.21 221.14-15.64-8.8-5.42-3.05-4.64-2.6-26.1-14.67" class="cls-1"/><path d="M181.54 206.82c1 .89 1.62 2.07 1.62 3.37 0 .76-.21 1.49-.59 2.14-1 1.7-3.13 2.88-5.62 2.88s-4.48-1.1-5.51-2.72c-.44-.69-.69-1.48-.69-2.31 0-1.37.68-2.61 1.77-3.51 1.13-.93 2.7-1.51 4.44-1.51 1.82 0 3.46.63 4.59 1.65ZM239.7 221.14l15.35-8.64 5.72-3.21 4.39-2.47 4.99-2.81" class="cls-1"/><path d="m270.15 214.57-3.97-2.23-5.41-3.05-4.64-2.6-26.1-14.67" class="cls-1"/><path d="M265.16 206.82c1 .89 1.62 2.08 1.62 3.38 0 .76-.21 1.49-.59 2.14-1 1.7-3.13 2.88-5.62 2.88s-4.48-1.1-5.51-2.72c-.44-.69-.69-1.48-.69-2.31 0-1.37.68-2.61 1.77-3.51 1.13-.93 2.7-1.51 4.44-1.51 1.82 0 3.46.63 4.59 1.64ZM54.27 210.19c0 2.78-2.25 5.03-5.02 5.03s-5.03-2.25-5.03-5.03 2.25-5.02 5.03-5.02 5.02 2.25 5.02 5.02ZM3.87 186.99h11.31v5.03H3.87zM45.7 186.99h11.31v5.03H45.7zM87.53 186.99h11.31v5.03H87.53zM129.36 186.99h11.31v5.03h-11.31zM171.19 186.99h11.31v5.03h-11.31zM213.02 186.99h11.31v5.03h-11.31zM254.85 186.99h11.31v5.03h-11.31z" class="cls-1"/></g><g id="_レイヤー_2" data-name="レイヤー 2"><path d="m106.93 158.43 27.92-10.26a57.01 57.01 0 0 0 10.22 9.45c-5.4 4.6-17.19 12.19-20.27 14.03l-5.88-.25s-8.29-9.39-8.93-11.56c-.63-2.17-3.65-1.15-5.59-.47s2.53-.94 2.53-.94Z" class="cls-7"/><path d="m92.12 163.88 12.28-4.52c1.94-.67 4.96-1.69 5.59.48.64 2.17 8.93 11.56 8.93 11.56l-1.61-.07s-21.27-.13-25.19-7.45Z" class="cls-9"/><path d="m104.4 159.36-12.28 4.52c-8.68.51-10.72 0-10.72 0l-5.79-7.49-1.53-10.04h-.15v-.62s-2.36-12.7-2.81-15.83c-.43-2.97-2.66-8.82-3.84-9.18l-.12-.74c3.47-.64 17.81-1.38 17.81-1.38 1.3-1.05 3.83-3.58 6.46-6.32 4.37-4.55 9.02-9.73 8.86-9.89-5-4.38-12.45-11.44-17.76-16.84-3.36-3.42-5.87-6.18-6.37-7.16-1.27-2.55-3.06-7.4-3.06-7.4l5.11.76 6.89 8.43 16.6 17.36c2.29-2.55 3.7-3.96 3.7-3.96 1.91-10.08 1.66-25.4 3.7-28.59s16.34-19.15 17.23-19.15 7.15 4.17 7.15 4.17h1.79l3.61 3.52-.84.86L117.4 66.7s-8.12 51.31 17.45 81.47l-27.92 10.26-2.53.93Z" class="cls-7"/><path d="m170.72 40.73.87.06c-.24 3.37-.71 6.37-1.44 8.63l-2.93-.54c.75-2.18.86-7.04.86-7.04l.51-2.34 2.13 1.23Z" class="cls-4"/><path d="m138.88 53.53-3.61-3.52.94-2.21 6.32-5.96v-2.39s-.71.6-1.64-.34c-1.32-1.31-.3-4.97.59-5.87.77-.77 2.59-1.02 3.07-.76 1.02.55 2.12 2.38 2.12 4.51.94-.17 7.66-6.81 13.03-13.45 0 0 9.7 4.26 11.83 4.76.3 4.26.34 8.62.06 12.49l-.87-.06-2.13-1.23-.51 2.34s-.11 4.86-.86 7.04l2.93.54c-.32.96-.68 1.8-1.09 2.46-.98 1.58-2.22 3.36-3.72 5-2.29 2.53-5.16 4.73-8.57 5.43-.21-.33-.4-.63-.56-.9-1.95-3.19-6.94-7.94-9.83-9.51a3.969 3.969 0 0 0-3.77-.01l-3.51 1.86-.22-.22Z" class="cls-4"/><path d="M91.43 112.28c-2.63 2.74-5.16 5.27-6.46 6.32 0 0-14.34.74-17.81 1.38-.36.06-.6.13-.7.19-1.02.67-2.42 4.31-2.42 4.31l-1.41-.64c-1.4-.64-15.44-8.04-16.85-8.17 0 0 8.93-9.27 18.38-17.54 0 0 17.16 7.87 27.27 14.15Z" class="cls-9"/><path d="M67.28 120.72c1.18.36 3.41 6.21 3.84 9.18.45 3.13 2.81 15.83 2.81 15.83v.62H62.5l-2.17-.68 2.05-8.68 1.66-12.51s1.4-3.64 2.42-4.31c.1-.06.34-.13.7-.19l.12.74ZM162.46 15.01c4.92 4.21 9.24 12.26 9.07 13.29-2.13-.5-11.83-4.76-11.83-4.76-5.37 6.64-12.09 13.28-13.03 13.45 0-2.13-1.1-3.96-2.12-4.51-.48-.26-2.3-.01-3.07.76-.89.9-1.91 4.56-.59 5.87.93.94 1.64.34 1.64.34v2.39l-6.32 5.96-.94 2.21h-1.79V47.8c.51-8.52 2.22-20.94 4.6-27.75 2.38-6.81 10.21-15.83 11.55-16.91 1.34-1.09 2.94-1.86 4.41 0 1.46 1.85 4.59 7.91 4.59 7.91 3.58-5.36 6.83-9.89 7.47-10.21s2.74-.58 3.77 0c1.02.57 1.27 2.23.76 2.93-.51.71-8.17 11.24-8.17 11.24Zm-5.91-.58v-.93c0-.26-3.75-6.56-4.04-6.98-.3-.43-1.07-1.02-1.5-.43-.42.6-1.87 1.96-3.82 4.34-1.96 2.39-7.41 13.2-8.43 17.87s-1.96 13.54-1.96 13.54l1.7-1.28s-.25-5.91 1.37-8.55c1.36-2.23 9.19-9.58 14.89-14.09l.94-1.36-6.3-.34v-1.87l7.15.08Z" class="cls-7"/><path d="M246.85 143.81c-.32 1.33-6.26 2.8-8.01 3.26-2.58.68-7.09 1.74-12.08 1.83 0 0-1.79-1.36-17.53-7.32-15.26-5.76-22.07-17.58-22.48-18.31 0-.01-.01-.01-.01-.01-.23-1-.44-2.02-.64-3.08.48.32 15.97 10.69 37 16.89 21.36 6.3 23.75 6.74 23.75 6.74Z" class="cls-6"/><path d="M186.1 120.18c.2 1.06.41 2.08.64 3.08 0 0 .01 0 .01.01 3.11 13.65 8.57 21.91 14.31 27.84 0 0 .59 6.05-4.09 12.02-15.91-18.54-12.55-56.27-12.55-56.27.34 4.91.91 9.33 1.68 13.32Z" class="cls-6"/><path d="m196.97 169.33-4.59 13.95-6.64-8.68-.68-5.61.07-.46c3.93.67 7.91.98 11.84.8Z" class="cls-9"/><path d="m185.06 168.99.68 5.61-5.45 7.15-6.98-10.04c-1.3-2.22-1.81-4.43-1.54-6.65 4.32 1.47 8.81 2.7 13.36 3.47l-.07.46Z" class="cls-9"/><path d="M171.77 165.06c-.27 2.22.24 4.43 1.54 6.65 0 0-25.36.85-31.66 0-6.29-.85-15.49 0-15.49 0l-1.36-.06c3.08-1.84 14.87-9.43 20.27-14.03 1.55-1.32 2.57-2.4 2.71-3.02 6.34 3.07 14.75 7.31 23.99 10.46ZM74.08 146.35l1.53 10.04c-18.47-4.08-52.94-12.67-63.91-21.4 15.06-16.64 33.31-41.57 62.23-45.05l.14.19c-3.12 2.23-6.55 5.05-9.91 8-9.45 8.27-18.38 17.54-18.38 17.54-1.4-.13-6.64-.9-6.64 0s2.94 3.96 4.98 7.53 18.26 13.79 18.26 13.79l-2.05 8.68 2.17.68h11.58Z" class="cls-9"/><path d="M179.42 70.84c.05 6.71-.1 21.12-.11 21.6-1.72-2-3.6-4.22-5.17-6.17V70.86s.44-2.74.98-3.32c.96-1.02 2.53-1.23 3.53.05.08.1.75 1.3.77 3.25Z" style="fill:#f3c19c;stroke-width:0"/><path d="M179.31 92.44c0-.48.16-14.89.11-21.6-.02-1.95-.69-3.15-.77-3.25-1-1.28-2.57-1.07-3.53-.05-.54.58-.98 3.32-.98 3.32v15.41c1.57 1.95 3.45 4.17 5.17 6.17Zm-22.54-30.13c3.41-.7 6.28-2.9 8.57-5.43l.18.17c4.73 1.64 14.09 3.09 16.3 5.26 2.22 2.17 21.28 18.85 26.05 22.76 4.76 3.92 6.97 6.98 5.78 12.6-1.19 5.61-1.7 14.64-1.7 14.64 13.28 1.36 23.32 2.04 25.19 3.4s8.68 19.92 9.36 22.81c.38 1.6.76 3.63.35 5.29 0 0-2.39-.44-23.75-6.74-21.03-6.2-36.52-16.57-37-16.89-.77-3.99-1.34-8.41-1.68-13.32 0 0-3.36 37.73 12.55 56.27 4.68-5.97 4.09-12.02 4.09-12.02-5.74-5.93-11.2-14.19-14.31-27.84.41.73 7.22 12.55 22.48 18.31 15.74 5.96 17.53 7.32 17.53 7.32 1.02 5.62 0 10.73-2.21 12.09-2.22 1.36-18.9 6.29-21.96 6.81-3.06.51-5.62 1.53-5.62 1.53-3.93.18-7.91-.13-11.84-.8-4.55-.77-9.04-2-13.36-3.47-9.24-3.15-17.65-7.39-23.99-10.46-.14.62-1.16 1.7-2.71 3.02a57.01 57.01 0 0 1-10.22-9.45C109.28 118.01 117.4 66.7 117.4 66.7l20.64-12.31.84-.86.22.22 3.51-1.86c1.18-.63 2.59-.63 3.77.01 2.89 1.57 7.88 6.32 9.83 9.51.16.27.35.57.56.9ZM64.04 124.48l-1.66 12.51s-16.22-10.22-18.26-13.79-4.98-6.64-4.98-7.53 5.24-.13 6.64 0c1.41.13 15.45 7.53 16.85 8.17l1.41.64Z" class="cls-7"/><path d="M100.29 102.39c.16.16-4.49 5.34-8.86 9.89C81.32 106 64.16 98.13 64.16 98.13c3.36-2.95 6.79-5.77 9.91-8 3.33-2.39 6.31-4.1 8.46-4.58 5.31 5.4 12.76 12.46 17.76 16.84Z" class="cls-9"/><path d="M133.48 50.01V47.8c.51-8.52 2.22-20.94 4.6-27.75 2.38-6.81 10.21-15.83 11.55-16.91 1.34-1.09 2.94-1.86 4.41 0 1.46 1.85 4.59 7.91 4.59 7.91 3.58-5.36 6.83-9.89 7.47-10.21s2.74-.58 3.77 0c1.02.57 1.27 2.23.76 2.93-.51.71-8.17 11.24-8.17 11.24 4.92 4.21 9.24 12.26 9.07 13.29-2.13-.5-11.83-4.76-11.83-4.76-5.37 6.64-12.09 13.28-13.03 13.45 0-2.13-1.1-3.96-2.12-4.51-.48-.26-2.3-.01-3.07.76-.89.9-1.91 4.56-.59 5.87.93.94 1.64.34 1.64.34v2.39l-6.32 5.96-.94 2.21h-1.79Z" class="cls-2"/><path d="M136.8 41.84s.94-8.87 1.96-13.54 6.47-15.48 8.43-17.87c1.95-2.38 3.4-3.74 3.82-4.34.43-.59 1.2 0 1.5.43.29.42 4.04 6.72 4.04 6.98v.93l-7.15-.08v1.87l6.3.34-.94 1.36c-5.7 4.51-13.53 11.86-14.89 14.09-1.62 2.64-1.37 8.55-1.37 8.55l-1.7 1.28ZM171.53 28.3c.3 4.26.34 8.62.06 12.49-.24 3.37-.71 6.37-1.44 8.63-.32.96-.68 1.8-1.09 2.46-.98 1.58-2.22 3.36-3.72 5-2.29 2.53-5.16 4.73-8.57 5.43M165.52 57.05c4.73 1.64 14.09 3.09 16.3 5.26 2.22 2.17 21.28 18.85 26.05 22.76 4.76 3.92 6.97 6.98 5.78 12.6-1.19 5.61-1.7 14.64-1.7 14.64 13.28 1.36 23.32 2.04 25.19 3.4s8.68 19.92 9.36 22.81c.38 1.6.76 3.63.35 5.29-.32 1.33-6.26 2.8-8.01 3.26-2.58.68-7.09 1.74-12.08 1.83 1.02 5.62 0 10.73-2.21 12.09-2.22 1.36-18.9 6.29-21.96 6.81-3.06.51-5.62 1.53-5.62 1.53l-4.59 13.95-6.64-8.68-.68-5.61M185.74 174.6l-5.45 7.15-6.98-10.04s-25.36.85-31.66 0c-6.29-.85-15.49 0-15.49 0l-1.36-.06-5.88-.25-1.61-.07s-21.27-.13-25.19-7.45c-8.68.51-10.72 0-10.72 0l-5.79-7.49-1.53-10.04H62.5l-2.17-.68 2.05-8.68s-16.22-10.22-18.26-13.79-4.98-6.64-4.98-7.53 5.24-.13 6.64 0c1.41.13 15.45 7.53 16.85 8.17l1.41.64s1.4-3.64 2.42-4.31c.1-.06.34-.13.7-.19 3.47-.64 17.81-1.38 17.81-1.38 1.3-1.05 3.83-3.58 6.46-6.32 4.37-4.55 9.02-9.73 8.86-9.89-5-4.38-12.45-11.44-17.76-16.84-3.36-3.42-5.87-6.18-6.37-7.16-1.27-2.55-3.06-7.4-3.06-7.4l5.11.76 6.89 8.43 16.6 17.36c2.29-2.55 3.7-3.96 3.7-3.96 1.91-10.08 1.66-25.4 3.7-28.59s16.34-19.15 17.23-19.15 7.15 4.17 7.15 4.17M162.84 31.5l2.05.51M170.08 33.2l1.28.51M159.95 39.33l3.92.17M168.59 39.5l2.13 1.23" class="cls-2"/><path d="M168.08 41.84s-.11 4.86-.86 7.04c-.05.15-.1.28-.16.4-.9 1.92-2.68 1.66-3.19 1.54M162.84 48.52s-1.4.93-1.53 1.49M159.27 53.75l3.74.64" class="cls-2"/><path d="M156.77 62.31c3.31 5.14 12.18 17.27 15.78 21.95.47.62 1.01 1.3 1.59 2.01 1.57 1.95 3.45 4.17 5.17 6.17 2.76 3.22 5.11 5.87 5.11 5.87-21.96-1.92-32.55-2.86-42.94 5.83-10.38 8.68-16.68 18.4-16.68 18.4" class="cls-3"/><path d="m135.27 50.01 3.61 3.52.22.22 3.51-1.86c1.18-.63 2.59-.63 3.77.01 2.89 1.57 7.88 6.32 9.83 9.51.16.27.35.57.56.9M179.31 92.45s.16-14.9.11-21.61c-.02-1.95-.69-3.15-.77-3.25-1-1.28-2.57-1.07-3.53-.05-.54.58-.98 3.32-.98 3.32v15.41l5.17 6.18" class="cls-2"/><path d="M161.91 143.11c.08-14.04 22.51-44.8 22.51-44.8s16.98 20.64 38.17 26.42M184.42 98.31c2.17-2.94 11.62-7.28 16.98-7.79l-5.87-8.94s-5.88 4.47-6.39 8.36M138.04 54.39 117.4 66.7s-8.12 51.31 17.45 81.47a57.01 57.01 0 0 0 10.22 9.45" class="cls-3"/><path d="m62.38 136.99 1.66-12.51M67.1 120.71c.06-.01.12-.01.18.01 1.18.36 3.41 6.21 3.84 9.18.45 3.13 2.81 15.83 2.81 15.83" class="cls-2"/><path d="M87.36 117.92s26.57-2.04 28.01-2.55M106.93 158.43l27.92-10.26.15-.06" class="cls-3"/><path d="m92.12 163.88 12.28-4.52 2.53-.93M104.4 159.37c1.94-.68 4.96-1.7 5.59.47.64 2.17 8.93 11.56 8.93 11.56M124.8 171.65c3.08-1.84 14.87-9.43 20.27-14.03 1.55-1.32 2.57-2.4 2.71-3.02 6.34 3.07 14.75 7.31 23.99 10.46 4.32 1.47 8.81 2.7 13.36 3.47 3.93.67 7.91.98 11.84.8M186.74 123.26c-.23-1-.44-2.02-.64-3.08-.77-3.99-1.34-8.41-1.68-13.32 0 0-3.36 37.73 12.55 56.27 4.68-5.97 4.09-12.02 4.09-12.02-5.74-5.93-11.2-14.19-14.31-27.84" class="cls-2"/><path d="M186.73 123.23v.03s.01 0 .01.01c.41.73 7.22 12.55 22.48 18.31 15.74 5.96 17.53 7.32 17.53 7.32M186.09 120.17h0c.48.33 15.97 10.7 37 16.9 21.36 6.3 23.75 6.74 23.75 6.74M173.31 171.71c-1.3-2.22-1.81-4.43-1.54-6.65M75.61 156.39c-18.47-4.08-52.94-12.67-63.91-21.4 15.06-16.64 33.31-41.57 62.23-45.05" class="cls-2"/><path d="M45.78 115.67s8.93-9.27 18.38-17.54c3.36-2.95 6.79-5.77 9.91-8 3.33-2.39 6.31-4.1 8.46-4.58" class="cls-2"/><path d="M64.16 98.13s17.16 7.87 27.27 14.15" class="cls-2"/></g></svg>