<?xml version="1.0" encoding="UTF-8"?>
<svg xmlns="http://www.w3.org/2000/svg" viewBox="0 0 269.8 215.61">
  <defs>
    <style>
      .cls-1 {
        fill: #99ded9;
      }

      .cls-1, .cls-2, .cls-3, .cls-4, .cls-5, .cls-6, .cls-7, .cls-8, .cls-9, .cls-10 {
        stroke-width: 0px;
      }

      .cls-2 {
        fill: #f7d8bf;
      }

      .cls-3 {
        fill: #7ac6e0;
      }

      .cls-11 {
        stroke-miterlimit: 10;
      }

      .cls-11, .cls-12 {
        fill: none;
        stroke: #000;
      }

      .cls-4 {
        fill: #e5ebd8;
      }

      .cls-5 {
        fill: #a93826;
      }

      .cls-6 {
        fill: #ff6654;
      }

      .cls-12 {
        stroke-linecap: round;
        stroke-linejoin: round;
      }

      .cls-7 {
        fill: #333;
      }

      .cls-8 {
        fill: #d33d30;
      }

      .cls-9 {
        fill: #fffada;
      }

      .cls-10 {
        fill: #e4f4ae;
      }
    </style>
  </defs>
  <g id="_レイヤー_3" data-name="レイヤー 3">
    <g>
      <g>
        <polygon class="cls-4" points="269.54 169.93 269.54 175.18 261.13 169.93 269.54 169.93"/>
        <rect class="cls-4" x="241.32" y="175.18" width="13.94" height="39.93"/>
        <polygon class="cls-4" points="252.27 169.93 255.26 175.18 241.32 175.18 238.33 169.93 252.27 169.93"/>
        <rect class="cls-4" x="217.57" y="175.18" width="10.78" height="39.93"/>
        <polygon class="cls-4" points="225.37 169.93 228.35 175.18 217.57 175.18 214.58 169.93 225.37 169.93"/>
        <rect class="cls-4" x="193.83" y="175.18" width="10.78" height="39.93"/>
        <polygon class="cls-4" points="201.62 169.93 204.61 175.18 193.83 175.18 190.84 169.93 201.62 169.93"/>
        <rect class="cls-4" x="170.08" y="175.18" width="10.78" height="39.93"/>
        <polygon class="cls-4" points="177.88 169.93 180.86 175.18 170.08 175.18 167.09 169.93 177.88 169.93"/>
        <rect class="cls-4" x="146.34" y="175.18" width="10.79" height="39.93"/>
        <polygon class="cls-4" points="154.13 169.93 157.13 175.18 146.34 175.18 143.35 169.93 154.13 169.93"/>
        <rect class="cls-4" x="122.59" y="175.18" width="10.79" height="39.93"/>
        <polygon class="cls-4" points="130.39 169.93 133.38 175.18 122.59 175.18 119.61 169.93 130.39 169.93"/>
        <rect class="cls-4" x="98.85" y="175.18" width="10.79" height="39.93"/>
        <polygon class="cls-4" points="106.64 169.93 109.63 175.18 98.85 175.18 95.86 169.93 106.64 169.93"/>
        <rect class="cls-4" x="75.1" y="175.18" width="10.79" height="39.93"/>
        <polygon class="cls-4" points="82.9 169.93 85.89 175.18 75.1 175.18 72.12 169.93 82.9 169.93"/>
        <rect class="cls-4" x="51.35" y="175.18" width="10.79" height="39.93"/>
        <polygon class="cls-4" points="59.16 169.93 62.14 175.18 51.35 175.18 48.37 169.93 59.16 169.93"/>
        <rect class="cls-4" x="27.61" y="175.18" width="10.79" height="39.93"/>
        <polygon class="cls-4" points="35.41 169.93 38.4 175.18 27.61 175.18 24.62 169.93 35.41 169.93"/>
        <rect class="cls-4" y="175.18" width="14.65" height="39.93"/>
        <polygon class="cls-4" points="11.67 169.93 14.65 175.18 0 175.18 0 169.93 11.67 169.93"/>
        <rect class="cls-8" x="255.26" y="175.18" width="14.27" height="39.93"/>
        <polygon class="cls-10" points="269.54 105.64 269.54 169.93 261.13 169.93 252.27 169.93 238.33 169.93 225.37 169.93 214.58 169.93 201.62 169.93 190.84 169.93 177.88 169.93 167.09 169.93 154.13 169.93 143.35 169.93 130.39 169.93 119.61 169.93 106.64 169.93 95.86 169.93 82.9 169.93 72.12 169.93 59.16 169.93 48.37 169.93 35.41 169.93 24.62 169.93 11.67 169.93 0 169.93 0 105.92 269.54 105.64"/>
        <polygon class="cls-9" points="269.54 104.89 269.54 105.64 0 105.92 36.94 105.64 253.77 104.89 269.54 104.89"/>
        <polygon class="cls-9" points="269.54 98.82 269.54 104.89 253.77 104.89 36.94 105.64 0 105.92 0 104.85 0 98.82 269.54 98.82"/>
        <polygon class="cls-8" points="269.54 175.18 255.26 175.18 252.27 169.93 261.13 169.93 269.54 175.18"/>
        <rect class="cls-3" x="228.35" y="175.18" width="12.97" height="39.93"/>
        <polygon class="cls-3" points="238.33 169.93 241.32 175.18 228.35 175.18 225.37 169.93 238.33 169.93"/>
        <rect class="cls-8" x="204.61" y="175.18" width="12.97" height="39.93"/>
        <polygon class="cls-8" points="214.58 169.93 217.57 175.18 204.61 175.18 201.62 169.93 214.58 169.93"/>
        <rect class="cls-3" x="180.86" y="175.18" width="12.97" height="39.93"/>
        <polygon class="cls-3" points="190.84 169.93 193.83 175.18 180.86 175.18 177.88 169.93 190.84 169.93"/>
        <rect class="cls-8" x="157.13" y="175.18" width="12.96" height="39.93"/>
        <polygon class="cls-8" points="167.09 169.93 170.08 175.18 157.13 175.18 154.13 169.93 167.09 169.93"/>
        <rect class="cls-3" x="133.38" y="175.18" width="12.96" height="39.93"/>
        <polygon class="cls-3" points="143.35 169.93 146.34 175.18 133.38 175.18 130.39 169.93 143.35 169.93"/>
        <rect class="cls-8" x="109.63" y="175.18" width="12.96" height="39.93"/>
        <polygon class="cls-8" points="119.61 169.93 122.59 175.18 109.63 175.18 106.64 169.93 119.61 169.93"/>
        <rect class="cls-3" x="85.89" y="175.18" width="12.96" height="39.93"/>
        <polygon class="cls-3" points="95.86 169.93 98.85 175.18 85.89 175.18 82.9 169.93 95.86 169.93"/>
        <rect class="cls-8" x="62.14" y="175.18" width="12.96" height="39.93"/>
        <polygon class="cls-8" points="72.12 169.93 75.1 175.18 62.14 175.18 59.16 169.93 72.12 169.93"/>
        <rect class="cls-3" x="38.4" y="175.18" width="12.96" height="39.93"/>
        <polygon class="cls-3" points="48.37 169.93 51.35 175.18 38.4 175.18 35.41 169.93 48.37 169.93"/>
        <rect class="cls-8" x="14.65" y="175.18" width="12.96" height="39.93"/>
        <polygon class="cls-8" points="24.62 169.93 27.61 175.18 14.65 175.18 11.67 169.93 24.62 169.93"/>
      </g>
      <g>
        <polyline class="cls-11" points="0 169.93 11.67 169.93 24.62 169.93 35.41 169.93 48.37 169.93 59.16 169.93 72.12 169.93 82.9 169.93 95.86 169.93 106.64 169.93 119.61 169.93 130.39 169.93 143.35 169.93 154.13 169.93 167.09 169.93 177.88 169.93 190.84 169.93 201.62 169.93 214.58 169.93 225.37 169.93 238.33 169.93 252.27 169.93 261.13 169.93 269.54 175.18"/>
        <polyline class="cls-11" points="269.54 215.11 255.26 215.11 241.32 215.11 228.35 215.11 217.57 215.11 204.61 215.11 193.83 215.11 180.86 215.11 170.08 215.11 157.13 215.11 146.34 215.11 133.38 215.11 122.59 215.11 109.63 215.11 98.85 215.11 85.89 215.11 75.1 215.11 62.14 215.11 51.35 215.11 38.4 215.11 27.61 215.11 14.65 215.11 0 215.11"/>
        <polyline class="cls-11" points="252.27 169.93 255.26 175.18 255.26 215.11"/>
        <polyline class="cls-11" points="238.33 169.93 241.32 175.18 241.32 215.11"/>
        <polyline class="cls-11" points="225.37 169.93 228.35 175.18 228.35 215.11"/>
        <polyline class="cls-11" points="214.58 169.93 217.57 175.18 217.57 215.11"/>
        <polyline class="cls-11" points="201.62 169.93 204.61 175.18 204.61 215.11"/>
        <polyline class="cls-11" points="190.84 169.93 193.83 175.18 193.83 215.11"/>
        <polyline class="cls-11" points="177.88 169.93 180.86 175.18 180.86 215.11"/>
        <polyline class="cls-11" points="167.09 169.93 170.08 175.18 170.08 215.11"/>
        <polyline class="cls-11" points="154.13 169.93 157.13 175.18 157.13 215.11"/>
        <polyline class="cls-11" points="143.35 169.93 146.34 175.18 146.34 215.11"/>
        <polyline class="cls-11" points="130.39 169.93 133.38 175.18 133.38 215.11"/>
        <polyline class="cls-11" points="119.61 169.93 122.59 175.18 122.59 215.11"/>
        <polyline class="cls-11" points="106.64 169.93 109.63 175.18 109.63 215.11"/>
        <polyline class="cls-11" points="95.86 169.93 98.85 175.18 98.85 215.11"/>
        <polyline class="cls-11" points="82.9 169.93 85.89 175.18 85.89 215.11"/>
        <polyline class="cls-11" points="72.12 169.93 75.1 175.18 75.1 215.11"/>
        <polyline class="cls-11" points="59.16 169.93 62.14 175.18 62.14 215.11"/>
        <polyline class="cls-11" points="48.37 169.93 51.35 175.18 51.35 215.11"/>
        <polyline class="cls-11" points="35.41 169.93 38.4 175.18 38.4 215.11"/>
        <polyline class="cls-11" points="24.62 169.93 27.61 175.18 27.61 215.11"/>
        <polyline class="cls-11" points="11.67 169.93 14.65 175.18 14.65 215.11"/>
        <polyline class="cls-11" points="269.54 175.18 255.26 175.18 241.32 175.18 228.35 175.18 217.57 175.18 204.61 175.18 193.83 175.18 180.86 175.18 170.08 175.18 157.13 175.18 146.34 175.18 133.38 175.18 122.59 175.18 109.63 175.18 98.85 175.18 85.89 175.18 75.1 175.18 62.14 175.18 51.35 175.18 38.4 175.18 27.61 175.18 14.65 175.18 0 175.18"/>
        <line class="cls-11" x1="261.13" y1="169.93" x2="269.54" y2="169.93"/>
        <line class="cls-11" y1="98.82" x2="269.54" y2="98.82"/>
      </g>
    </g>
  </g>
  <g id="_レイヤー_2" data-name="レイヤー 2">
    <g>
      <g>
        <path class="cls-5" d="m114.33,51.93h4.04s-.53,2.74-2.02,3c-1.49.25-2.02-3-2.02-3Z"/>
        <path class="cls-7" d="m113.56,50.39l-3.93,3.13c-.51-.89-.77-2.42-.77-2.42,1.6-.51,3.66-.9,4.7-.71Z"/>
        <path class="cls-6" d="m232.69,86.39l4.43-.85s-1.71,10.05-4.94,15.32c-2.81-.19-11.46-2.07-20-4.05l-1.55-10.55c2.88.48,7.99.79,12.74.79,3.75,0,7.29-.2,9.32-.66Z"/>
        <path class="cls-6" d="m195.92,112.58l-3.73-20.59s9.92,2.48,19.99,4.82c8.54,1.98,17.19,3.86,20,4.05,0,0,4.26,0,7.83.68-1.02,2.9-15.66,14.81-21.62,19.07l-8.85-9.71-13.61,1.71v-.03Z"/>
        <path class="cls-6" d="m232.69,82.48v3.91c-2.03.46-5.57.66-9.32.66l-1.77-8.37c3.4,1.59,11.09,3.8,11.09,3.8Z"/>
        <path class="cls-1" d="m130.73,124.85l-5.7,1.88c-16.25,2.05-24.34-6.12-24.34-6.12l-.46-.21c-1.89,4.11-4.63,8.92-8.3,12.61-2.49,2.5-5.4,4.48-8.77,5.38l-6.72-8.73-4.61-5.99-4.59,7.66-3.35-1.77-12.91-6.81-29.52-15.59s4.59-6.13,9.7-11.4c1.35-1.4,3.71-3.02,6.54-4.7,1.46-.86,3.05-1.74,4.7-2.62.49.11,14.74,3.28,29.43,6.93,7.87,1.97,15.86,4.08,21.92,5.93,2.93.9,5.41,1.73,7.2,2.46,8.93-14.81,16.87-30.42,16.87-30.42-2.83-4.82-3.49-9.75-3.49-9.75l1.17-.6c4.34,5.38,7.53,6.59,12.81,6,5.74-.64,12.98-9.02,18.21-16.17l2.77.39h0s.06.01.06.01l12.23,1.72s9.15,7.11,16.47,12.73l7.01,7.11,4.91,4.98,1.82,10.03.4,2.2,3.73,20.59v.03s13.62-1.71,13.62-1.71l8.85,9.71s5.96,6.63,12.43,13.61c0,0-12.43,1.11-20.19,1.2-5.64.06-16.24,4.59-25.56,4.85-1.01.03-1.99.03-2.93,0-7.5-.13-12.88-1.61-16.72-2.94,1.03-.31,1.07-.42-.39-.13,0-6.64-2.3-10.72-4.34-10.47-1.08.14-3.46,2.28-6.84,5.15-3.01,2.53-6.8,5.63-11.19,8.39-3.92-.77-8.71-8.97-11.93-15.42Z"/>
        <path class="cls-6" d="m210.63,135.42c7.76-.09,20.19-1.2,20.19-1.2-2.72,4.26-16.85,7.83-24.17,8.51-2.13-.19-9.47-.93-15.57-1.54-4.87-.49-8.94-.91-8.94-.91h0c.94.02,1.92.02,2.93-.01,9.32-.26,19.92-4.79,25.56-4.85Z"/>
        <path class="cls-6" d="m221.6,78.68l1.77,8.37c-4.75,0-9.86-.31-12.74-.79-1.13-.19-1.91-.4-2.19-.63-.85-.71.71-3.04,3.2-5.82,2.02-2.26,4.65-4.82,7.09-7.03,0,0-.51,3.74,1.71,5.27.28.19.68.41,1.16.63Z"/>
        <path class="cls-6" d="m220.1,68.35l-1.37,4.43c-2.44,2.21-5.07,4.77-7.09,7.03l-2.27-1.93c-1.96-4.25-17.44-4.08-24.3-3.1h0l-7.01-7.11c.12-.09.25-.17.38-.25,0,0,27.03-.35,32.47-.26l9.2,1.19Z"/>
        <path class="cls-6" d="m210.63,86.26l1.55,10.55c-10.07-2.34-19.99-4.82-19.99-4.82l-.4-2.2c3.35-.34,8.48-6.03,17.58-11.91l2.27,1.93c-2.49,2.78-4.05,5.11-3.2,5.82.28.23,1.06.44,2.19.63Z"/>
        <path class="cls-6" d="m205.29,60.01l5.61,7.15c-5.44-.09-32.47.26-32.47.26,6.43-4.14,26.86-7.41,26.86-7.41Z"/>
        <path class="cls-6" d="m209.37,77.88c-9.1,5.88-14.23,11.57-17.58,11.91l-1.82-10.03-4.91-4.98h0c6.86-.98,22.34-1.15,24.3,3.1Z"/>
        <path class="cls-6" d="m206.65,142.73c-3.29,5.68-12.88,11.23-19.2,13.19-1.18-2.42,3.63-14.73,3.63-14.73,6.1.61,13.44,1.35,15.57,1.54Z"/>
        <path class="cls-1" d="m191.08,141.19s-4.81,12.31-3.63,14.73c-.88.27-1.69.48-2.42.6,0,0-3.74,7.32-5.45,10.55-1.53,0-13.61-2.55-22.97-4.59,0,0-18.64-8.17-27.32-13.93.53-.44-5.42,2.07-13.58,5.28-3.74,1.47-7.93,3.1-12.18,4.65h0c-3.47.12-9.92.27-13.3-.09-2.48-.27-4.18-1.23-5.96-2.47.16-1.45-1.1-17.53-1.1-17.53,3.37-.9,6.28-2.88,8.77-5.38l.29.29c14.51,4.01,32.81-6.57,32.81-6.57l5.7-1.88c3.22,6.45,8.01,14.65,11.93,15.42,7.59.76,19.66-2,22.76-2.94,3.84,1.33,9.22,2.81,16.72,2.94h0s4.07.43,8.94.92Z"/>
        <path class="cls-6" d="m165.03,137.2c.13.04.26.09.39.13-3.1.94-15.17,3.7-22.76,2.94,4.39-2.76,8.18-5.86,11.19-8.39,0,0,7.35,6.09,11.18,5.32Z"/>
        <path class="cls-6" d="m165.03,137.2c-3.83.77-11.18-5.32-11.18-5.32,3.38-2.87,5.76-5.01,6.84-5.15,2.04-.25,4.34,3.83,4.34,10.47Z"/>
        <path class="cls-6" d="m156.61,162.48c-1.54.51-20.77.51-27.32-2.38-3.66-1.11-13.58-6.27-13.58-6.27,8.16-3.21,14.11-5.72,13.58-5.28,8.68,5.76,27.32,13.93,27.32,13.93Z"/>
        <path class="cls-7" d="m152.1,53.22h-2.81c-2.05-10.75-6.05-29.21-9.11-34.91-.06-.11-.11-.23-.17-.34-2.68-5.46-3.59-7.93-4.77-8.51-1.19-.6-3.23,1.27-3.74,1.96-.51.68-.17,3.91-.17,3.91l6.89.68,1.28,2.21-5.45-.25c3.24,6.04,4.6,10.64,5.02,14.98.43,4.34.77,10.98.77,10.98l.26,6.38c-.94-.26-3.92-2.89-5.45-4.85,0,0,1.25-.13,2.1-.56.32-.16,1.1-.96,1.19-1.72.14-1.26.22-2.18-.2-3.24-.26-.67-1.18-1.35-1.88-1.16-.63.16-1.4.49-1.72.89-.68.85-.83,1.56-.89,3.18,0,0-.98.4-1.67.14-.59-.77-4.34-10.89-6.29-18.72-4.09,1.7-11.58,1.02-12.85.59,2.17-3.7,6.63-6.96,8.61-7.59v-1.41h-2.55v-1.53s3.64-.7,4.91-.83v-1.72s-3.25-5.81-3.7-7.09c-.44-1.27-.76-3.51-.25-3.76.51-.26,3.64-.96,5.04.31,1.4,1.28,5.4,6.2,5.4,6.2,3.03,0,5.51-.83,7.75,2.36,2.23,3.19,10.36,18.57,14.45,43.42Z"/>
        <path class="cls-1" d="m142.66,52.28l3.86.54c-5.23,7.15-12.47,15.53-18.21,16.17-5.28.59-8.47-.62-12.81-6-.38-.47-.76-.97-1.17-1.51.91.49,1.87.72,2.87.66.31-.02.62-.05.94-.08,2.97,2.47,7.27,3.91,10.64,3.01,3.67-.98,11.09-8.11,13.47-12.05.16-.26.3-.51.41-.74Z"/>
        <path class="cls-2" d="m118.14,62.06c-.32.03-.63.06-.94.08-1,.06-1.96-.17-2.87-.66h0c-1.74-.94-3.31-2.83-4.61-5.39-.64-1.27-1.21-2.69-1.71-4.25-2.04-6.38,1.28-21.02,4.43-26.98,1.27.43,8.76,1.11,12.85-.59,1.95,7.83,5.7,17.95,6.29,18.72.69.26,1.67-.14,1.67-.14.06-1.62.21-2.33.89-3.18.32-.4,1.09-.73,1.72-.89.7-.19,1.62.49,1.88,1.16.42,1.06.34,1.98.2,3.24-.09.76-.87,1.56-1.19,1.72-.85.43-2.1.56-2.1.56,1.53,1.96,4.51,4.59,5.45,4.85l1.78,2.55.37.16c-2.38,3.94-9.8,11.07-13.47,12.05-3.37.9-7.67-.54-10.64-3.01Zm6.36-6.43c.06-.45-3.8-6.07-7.23-5.81,0,0,5.57,5.04,5.89,7.4.7-.38,1.28-1.15,1.34-1.59Zm-.28-26.42c.13-.59-2.21-2.26-2.81-2.35-.59-.08-1.57,1.24-2.21,1.79.3.89,3.53.89,5.02.56Zm-5.85,22.72h-4.04s.53,3.25,2.02,3c1.49-.26,2.02-3,2.02-3Zm-2.44-23.58c.08-.51-1.2-2.47-2.18-1.96-.97.51-3.51,2.95-2.17,2.81,0,0,4.26-.34,4.35-.85Zm-6.3,25.17l3.93-3.13c-1.04-.19-3.1.2-4.7.71,0,0,.26,1.53.77,2.42Z"/>
        <path class="cls-6" d="m129.29,160.1s-9.45.51-23.41-1.71c0,0-.92.04-2.35.09,4.25-1.55,8.44-3.18,12.18-4.65,0,0,9.92,5.16,13.58,6.27Z"/>
        <path class="cls-7" d="m117.27,49.82c3.43-.26,7.29,5.36,7.23,5.81-.06.44-.64,1.21-1.34,1.59-.32-2.36-5.89-7.4-5.89-7.4Z"/>
        <path class="cls-7" d="m121.41,26.86c.6.09,2.94,1.76,2.81,2.35-1.49.33-4.72.33-5.02-.56.64-.55,1.62-1.87,2.21-1.79Z"/>
        <path class="cls-1" d="m100.69,120.61s8.09,8.17,24.34,6.12c0,0-18.3,10.58-32.81,6.57l-.29-.29c3.67-3.69,6.41-8.5,8.3-12.61l.46.21Z"/>
        <path class="cls-7" d="m113.75,26.39c.98-.51,2.26,1.45,2.18,1.96-.09.51-4.35.85-4.35.85-1.34.14,1.2-2.3,2.17-2.81Z"/>
        <path class="cls-1" d="m94.82,83.67l2.04-20.08-1.96-2.24c4.48-1.94,9.51-3.85,14.82-5.26,1.3,2.56,2.87,4.45,4.61,5.38h0c.41.55.79,1.05,1.17,1.52l-1.17.6s.66,4.93,3.49,9.75c0,0-7.94,15.61-16.87,30.42-1.79-.73-4.27-1.56-7.2-2.46h0s1.07-17.63,1.07-17.63Z"/>
        <path class="cls-1" d="m94.9,61.35l1.96,2.24-2.04,20.08-1.07,17.62c.2-5.01-17.31-28.51-17.31-28.51l-2.72-1.26c1.85-1.04,3.55-1.91,4.76-2.4.26-.1.53-.22.83-.35,3.21-1.43,8.75-4.46,15.59-7.42Z"/>
        <path class="cls-1" d="m71.83,95.37c-14.69-3.65-28.94-6.82-29.43-6.93,7.16-3.8,15.36-7.47,18.72-9.2,0,0,1.3-.85,3.23-2.07,2.55-1.61,6.2-3.87,9.37-5.65l2.72,1.26s17.51,23.5,17.31,28.51h0c-6.06-1.84-14.05-3.95-21.92-5.92Z"/>
        <path class="cls-6" d="m83.16,138.39s1.26,16.08,1.1,17.53c-1.64-1.13-3.34-2.52-5.78-3.82l-7.66.85v-4.09l10.68-10.65c.58.11,1.14.17,1.66.18Z"/>
        <path class="cls-6" d="m76.44,129.66l6.72,8.73c-.52-.01-1.08-.07-1.66-.18-4.17-.77-9.55-3.87-12.36-5.64,0,0,5.32-.82,7.3-2.91Z"/>
        <path class="cls-6" d="m81.5,138.21l-10.68,10.65-5.23,4.09s-.9-4.26-1.24-6.98c0,0-.89-14.77-.46-16.41l3.35,1.77s.72.5,1.9,1.24c2.81,1.77,8.19,4.87,12.36,5.64Z"/>
        <path class="cls-6" d="m79.31,68.77c-.3.13-.57.25-.83.35-1.21.49-2.91,1.36-4.76,2.4-3.17,1.78-6.82,4.04-9.37,5.65.4-3.22-.01-6.01-.67-8.2l.67-.2s8.26-2.63,14.96,0Z"/>
        <path class="cls-6" d="m71.83,123.67l4.61,5.99c-1.98,2.09-7.3,2.91-7.3,2.91-1.18-.74-1.9-1.24-1.9-1.24l4.59-7.66Z"/>
        <path class="cls-6" d="m63.68,68.97c.66,2.19,1.07,4.98.67,8.2,0,0-4.16-1.79-8.87-3.83,0,0,1.04-5.33,5.64-9.75,0,0,1.57,1.99,2.56,5.38Z"/>
        <path class="cls-6" d="m50.98,122.75l12.91,6.81c-.43,1.64.46,16.41.46,16.41-5.79,0-15.49-10.55-20.6-21.62,0,0,4.08-.32,7.23-1.6Z"/>
        <path class="cls-6" d="m42.4,88.44c-1.65.88-3.24,1.76-4.7,2.62l-.24-.58c0-1.19,1.02-16,2.04-18.89,1.02-2.9,1.36-4.77,2.89-3.99.84.43,7.37,3.27,13.09,5.74,4.71,2.04,8.87,3.83,8.87,3.83-1.93,1.22-3.23,2.07-3.23,2.07-3.36,1.73-11.56,5.4-18.72,9.2Z"/>
        <path class="cls-6" d="m61.12,63.59c-4.6,4.42-5.64,9.75-5.64,9.75-5.72-2.47-12.25-5.31-13.09-5.74,5.11-3.16,17.54-4.01,18.73-4.01Z"/>
        <path class="cls-6" d="m21.46,107.16l29.52,15.59c-3.15,1.28-7.23,1.6-7.23,1.6h-12.76l-9.53-17.19Z"/>
      </g>
      <g>
        <path class="cls-12" d="m141.88,52.86l-1.78-2.55-.26-6.38s-.34-6.64-.77-10.98c-.42-4.34-1.78-8.94-5.02-14.98l5.45.25-1.28-2.21-6.89-.68s-.34-3.23.17-3.91c.51-.69,2.55-2.56,3.74-1.96,1.18.58,2.09,3.05,4.77,8.51.06.11.11.23.17.34,3.06,5.7,7.06,24.16,9.11,34.9h0s.06.01.06.01h2.75c-4.09-24.85-12.22-40.23-14.45-43.42-2.24-3.19-4.72-2.36-7.75-2.36,0,0-4-4.92-5.4-6.2-1.4-1.27-4.53-.57-5.04-.31-.51.25-.19,2.49.25,3.76.45,1.28,3.7,7.09,3.7,7.09v1.72c-1.27.13-4.91.83-4.91.83v1.53h2.55v1.41c-1.98.63-6.44,3.89-8.61,7.59,1.27.43,8.76,1.11,12.85-.59,1.95,7.83,5.7,17.95,6.29,18.72.69.26,1.67-.14,1.67-.14.06-1.62.21-2.33.89-3.18.32-.4,1.09-.73,1.72-.89.7-.19,1.62.49,1.88,1.16.42,1.06.34,1.98.2,3.24-.09.76-.87,1.56-1.19,1.72-.85.43-2.1.56-2.1.56,1.53,1.96,4.51,4.59,5.45,4.85"/>
        <path class="cls-12" d="m114.33,61.48c.91.49,1.87.72,2.87.66.31-.02.62-.05.94-.08,3.53-.32,7.06-1.13,9.02-2.22"/>
        <path class="cls-12" d="m112.44,24.86c-3.15,5.96-6.47,20.6-4.43,26.98.5,1.56,1.07,2.98,1.71,4.25,1.3,2.56,2.87,4.45,4.61,5.38"/>
        <line class="cls-12" x1="108.86" y1="39.07" x2="112.44" y2="40.1"/>
        <line class="cls-12" x1="119.41" y1="39.07" x2="125.03" y2="38.39"/>
        <path class="cls-12" d="m111.58,29.2s4.26-.34,4.35-.85c.08-.51-1.2-2.47-2.18-1.96-.97.51-3.51,2.95-2.17,2.81Z"/>
        <path class="cls-12" d="m119.2,28.65c.64-.55,1.62-1.87,2.21-1.79.6.09,2.94,1.76,2.81,2.35-1.49.33-4.72.33-5.02-.56Z"/>
        <path class="cls-12" d="m115.05,38.07s-2.61,7.98-2.3,8.75c.32.77,2.97.96,3.18.51"/>
        <path class="cls-12" d="m117.27,44.39s1.17,1.98,1.1,2.43"/>
        <path class="cls-12" d="m117.27,49.82s5.57,5.04,5.89,7.4c.7-.38,1.28-1.15,1.34-1.59.06-.45-3.8-6.07-7.23-5.81Z"/>
        <path class="cls-12" d="m113.56,50.39l-3.93,3.13c-.51-.89-.77-2.42-.77-2.42,1.6-.51,3.66-.9,4.7-.71Z"/>
        <path class="cls-12" d="m114.33,51.93h4.04s-.53,2.74-2.02,3c-1.49.25-2.02-3-2.02-3Z"/>
        <path class="cls-12" d="m146.52,52.82c-5.23,7.15-12.47,15.53-18.21,16.17-5.28.59-8.47-.62-12.81-6-.38-.47-.76-.97-1.17-1.51h0"/>
        <path class="cls-12" d="m118.14,62.06c2.97,2.47,7.27,3.91,10.64,3.01,3.67-.98,11.09-8.11,13.47-12.05.16-.26.3-.51.41-.74"/>
        <path class="cls-12" d="m103.53,158.48c1.43-.05,2.35-.09,2.35-.09,13.96,2.22,23.41,1.71,23.41,1.71,6.55,2.89,25.78,2.89,27.32,2.38,9.36,2.04,21.44,4.59,22.97,4.59,1.71-3.23,5.45-10.55,5.45-10.55.73-.12,1.54-.33,2.42-.6,6.32-1.96,15.91-7.51,19.2-13.19,7.32-.68,21.45-4.25,24.17-8.51-6.47-6.98-12.43-13.61-12.43-13.61,5.96-4.26,20.6-16.17,21.62-19.07-3.57-.68-7.83-.68-7.83-.68,3.23-5.27,4.94-15.32,4.94-15.32l-4.43.85v-3.91s-7.69-2.21-11.09-3.8c-.48-.22-.88-.44-1.16-.63-2.22-1.53-1.71-5.27-1.71-5.27l1.37-4.43-9.2-1.19-5.61-7.15s-20.43,3.27-26.86,7.41c-.13.08-.26.16-.38.25-7.32-5.62-16.47-12.73-16.47-12.73l-12.23-1.72h-.06s-2.77-.4-2.77-.4l-3.86-.54"/>
        <path class="cls-12" d="m109.73,56.09h0c-5.31,1.41-10.34,3.32-14.82,5.26-6.84,2.96-12.38,5.99-15.59,7.42-.3.13-.57.25-.83.35-1.21.49-2.91,1.36-4.76,2.4-3.17,1.78-6.82,4.04-9.37,5.65-1.93,1.22-3.23,2.07-3.23,2.07-3.36,1.73-11.56,5.4-18.72,9.2-1.65.88-3.24,1.76-4.7,2.62-2.83,1.68-5.19,3.3-6.54,4.7-5.11,5.27-9.7,11.4-9.7,11.4l9.53,17.19h12.76c5.11,11.07,14.81,21.62,20.6,21.62.34,2.72,1.24,6.98,1.24,6.98l5.23-4.09v4.09l7.66-.85c2.44,1.3,4.14,2.69,5.78,3.82,1.78,1.24,3.48,2.2,5.96,2.47,3.38.36,9.83.21,13.3.09"/>
        <path class="cls-12" d="m64.35,68.77s8.26-2.63,14.96,0"/>
        <path class="cls-12" d="m42.39,67.6c5.11-3.16,17.54-4.01,18.73-4.01-4.6,4.42-5.64,9.75-5.64,9.75"/>
        <path class="cls-12" d="m61.12,63.59s1.57,1.99,2.56,5.38c.66,2.19,1.07,4.98.67,8.2,0,0-4.16-1.79-8.87-3.83-5.72-2.47-12.25-5.31-13.09-5.74-1.53-.78-1.87,1.09-2.89,3.99-1.02,2.89-2.04,17.7-2.04,18.89"/>
        <polyline class="cls-12" points="178.05 67.67 185.06 74.78 189.97 79.76 191.79 89.79 192.19 91.99 195.92 112.58 195.93 112.61 209.54 110.9 218.39 120.61"/>
        <path class="cls-12" d="m192.19,91.99s9.92,2.48,19.99,4.82c8.54,1.98,17.19,3.86,20,4.05"/>
        <line class="cls-12" x1="212.18" y1="96.81" x2="210.63" y2="86.26"/>
        <path class="cls-12" d="m218.73,72.78c-2.44,2.21-5.07,4.77-7.09,7.03-2.49,2.78-4.05,5.11-3.2,5.82.28.23,1.06.44,2.19.63,2.88.48,7.99.79,12.74.79,3.75,0,7.29-.2,9.32-.66"/>
        <path class="cls-12" d="m185.07,74.78c6.86-.98,22.34-1.15,24.3,3.1-9.1,5.88-14.23,11.57-17.58,11.91"/>
        <path class="cls-12" d="m178.43,67.42s27.03-.35,32.47-.26"/>
        <line class="cls-12" x1="221.6" y1="78.68" x2="223.37" y2="87.05"/>
        <path class="cls-12" d="m42.39,88.44h.01c.49.11,14.74,3.28,29.43,6.93,7.87,1.97,15.86,4.08,21.92,5.93,2.93.9,5.41,1.73,7.2,2.46,8.93-14.81,16.87-30.42,16.87-30.42-2.83-4.82-3.49-9.75-3.49-9.75"/>
        <line class="cls-12" x1="96.86" y1="63.59" x2="94.82" y2="83.67"/>
        <path class="cls-12" d="m76.44,72.78s17.51,23.5,17.31,28.51l1.07-17.62,15.83-20.08"/>
        <path class="cls-12" d="m61.12,85.12s10.44,6.22,10.71,10.25h0"/>
        <path class="cls-12" d="m140.52,67.15s-3.32,6.65-5.87,9.88c-2.55,3.24-5.28,28.1-3.92,32.65,7.75-4.14,51.41-26.01,51.41-26.01"/>
        <path class="cls-12" d="m143.58,77.03s6.9-3.38,9.71-11.69c3.83-2.44,7.4-3.19,7.4-3.19l4.34,10.63c-17.36,8.25-29.62,13.61-30.89,33.27"/>
        <path class="cls-12" d="m160.69,79.91s-17.11,14.07-19.15,21.38"/>
        <path class="cls-12" d="m144.35,109.68s16.48,6.47,51.57,2.9c.43-.05.86-.09,1.3-.14"/>
        <path class="cls-12" d="m127.16,117.03s1.44,3.52,3.57,7.82c3.22,6.45,8.01,14.65,11.93,15.42,4.39-2.76,8.18-5.86,11.19-8.39,3.38-2.87,5.76-5.01,6.84-5.15,2.04-.25,4.34,3.83,4.34,10.47.13.04.26.09.39.13,3.84,1.33,9.22,2.81,16.72,2.94.94.03,1.92.03,2.93,0,9.32-.26,19.92-4.79,25.56-4.85,7.76-.09,20.19-1.2,20.19-1.2"/>
        <path class="cls-12" d="m182.14,140.28s4.07.42,8.94.91c6.1.61,13.44,1.35,15.57,1.54"/>
        <path class="cls-12" d="m191.08,141.19s-4.81,12.31-3.63,14.73"/>
        <path class="cls-12" d="m160.69,126.73c-11.23-1.53-17.36-1.27-22.98-6.12"/>
        <path class="cls-12" d="m103.5,111.67s-1.05,3.89-3.27,8.73c-1.89,4.11-4.63,8.92-8.3,12.61-2.49,2.5-5.4,4.48-8.77,5.38"/>
        <path class="cls-12" d="m100.69,120.61s8.09,8.17,24.34,6.12l5.7-1.88"/>
        <path class="cls-12" d="m125.03,126.73s-18.3,10.58-32.81,6.57"/>
        <path class="cls-12" d="m21.46,107.16l29.52,15.59,12.91,6.81,3.35,1.77,4.59-7.66s24.78-7.77,27.33-10.01"/>
        <path class="cls-12" d="m67.24,131.33s.72.5,1.9,1.24c2.81,1.77,8.19,4.87,12.36,5.64.58.11,1.14.17,1.66.18l-6.72-8.73-4.61-5.99"/>
        <line class="cls-12" x1="70.82" y1="148.86" x2="81.5" y2="138.21"/>
        <path class="cls-12" d="m83.16,138.39s1.26,16.08,1.1,17.53"/>
        <path class="cls-12" d="m64.35,145.97s-.89-14.77-.46-16.41"/>
        <path class="cls-12" d="m43.75,124.35s4.08-.32,7.23-1.6"/>
        <path class="cls-12" d="m103.5,158.49s0,0,.02-.01h0c4.25-1.55,8.44-3.18,12.18-4.65,8.16-3.21,14.11-5.72,13.58-5.28,8.68,5.76,27.32,13.93,27.32,13.93"/>
        <path class="cls-12" d="m115.71,153.83s9.92,5.16,13.58,6.27"/>
        <path class="cls-12" d="m153.85,131.88s7.35,6.09,11.18,5.32c1.46-.29,1.42-.18.39.13-3.1.94-15.17,3.7-22.76,2.94"/>
        <path class="cls-12" d="m69.14,132.57s5.32-.82,7.3-2.91"/>
      </g>
    </g>
  </g>
</svg>