<svg xmlns="http://www.w3.org/2000/svg" viewBox="0 0 270.4 207.75"><defs><style>.cls-1{fill:#c1272d}.cls-1,.cls-2,.cls-4,.cls-5,.cls-6,.cls-7{stroke-width:0}.cls-10{stroke-miterlimit:10}.cls-10,.cls-12{stroke:#000}.cls-10,.cls-12,.cls-13{fill:none}.cls-2{fill:#f7f2da}.cls-4{fill:#ff3c36}.cls-5{fill:#f3edd7}.cls-12,.cls-13{stroke-linecap:round;stroke-linejoin:round}.cls-13{stroke-width:.5px}.cls-6{fill:#333}.cls-7{fill:#a884b0}.cls-13{stroke:#fff}</style></defs><g id="_畳" data-name="畳"><path d="M.24 173.11h3.62v5.03H.24zM270.15 200.69v6.57H239.7l15.35-8.63c1.03 1.62 3.11 2.72 5.51 2.72s4.62-1.18 5.62-2.88l3.97 2.23ZM270.15 190.13v10.56l-3.97-2.23c.38-.65.59-1.38.59-2.14 0-1.3-.62-2.48-1.62-3.38l4.99-2.8ZM270.15 178.13v11.99l-4.99 2.8c-1.14-1.01-2.77-1.64-4.59-1.64s-3.31.58-4.44 1.51l-26.1-14.67h40.12ZM270.15 111.06v5.77H.24v-5.77h269.91z" class="cls-5"/><path d="M266.16 173.11h3.99v5.03h-3.99zM266.78 196.31c0 .76-.21 1.49-.59 2.14l-5.42-3.05 4.39-2.47c1 .89 1.62 2.08 1.62 3.38ZM260.77 195.41l5.42 3.05c-1 1.7-3.13 2.88-5.62 2.88s-4.48-1.1-5.51-2.72l5.71-3.21Z" class="cls-5"/><path d="M254.85 173.11h11.31v5.03h-11.31z" class="cls-6"/><path d="m265.16 192.93-4.39 2.47-4.64-2.61c1.13-.93 2.7-1.51 4.44-1.51 1.82 0 3.46.63 4.59 1.64ZM260.77 195.41l-5.71 3.21c-.44-.69-.69-1.48-.69-2.31 0-1.37.68-2.61 1.77-3.51l4.64 2.61Z" class="cls-5"/><path d="m230.03 178.13 26.1 14.67c-1.09.9-1.77 2.14-1.77 3.51 0 .83.25 1.62.69 2.31l-15.35 8.63h-41.48l-15.65-8.8c.38-.65.59-1.38.59-2.14 0-1.3-.62-2.48-1.62-3.37l26.34-14.81h22.15Zm-5.97 18.18c0-2.77-2.25-5.02-5.02-5.02s-5.03 2.25-5.03 5.02 2.25 5.03 5.03 5.03 5.02-2.25 5.02-5.03Z" class="cls-5"/><path d="M254.85 178.13h-30.52v-5.02h30.52v5.02z" class="cls-5"/><path d="M213.02 173.11h11.31v5.03h-11.31zM219.05 191.29c2.77 0 5.02 2.25 5.02 5.02s-2.25 5.03-5.02 5.03-5.03-2.25-5.03-5.03 2.25-5.02 5.03-5.02Z" class="cls-6"/><path d="m207.88 178.13-26.34 14.81c-1.14-1.02-2.77-1.65-4.59-1.65s-3.31.58-4.44 1.51l-26.1-14.67h61.47ZM182.5 178.13v-5.02h30.52v5.02H182.5zM198.21 207.25h-42.13l15.35-8.63c1.03 1.62 3.12 2.72 5.51 2.72s4.62-1.18 5.62-2.88l15.65 8.8Z" class="cls-5"/><path d="M183.16 196.31c0 .76-.21 1.49-.59 2.14l-5.42-3.05 4.39-2.47c1 .89 1.62 2.07 1.62 3.37ZM177.15 195.41l5.42 3.05c-1 1.7-3.13 2.88-5.62 2.88s-4.48-1.1-5.51-2.72l5.71-3.21Z" class="cls-5"/><path d="M171.19 173.11h11.31v5.03h-11.31z" class="cls-6"/><path d="M176.95 191.29c1.82 0 3.46.63 4.59 1.65l-4.39 2.47-4.64-2.61c1.13-.93 2.7-1.51 4.44-1.51Z" class="cls-5"/><path d="m177.15 195.41-5.71 3.21c-.44-.69-.69-1.48-.69-2.31 0-1.37.68-2.61 1.77-3.51l4.64 2.61Z" class="cls-5"/><path d="m146.41 178.13 26.1 14.67c-1.09.9-1.77 2.14-1.77 3.51 0 .83.25 1.62.69 2.31l-15.35 8.63H114.6l-15.65-8.8c.38-.65.59-1.38.59-2.14 0-1.3-.62-2.48-1.62-3.37l26.34-14.81h22.15Zm-7.02 18.18c0-2.77-2.25-5.02-5.02-5.02s-5.03 2.25-5.03 5.02 2.25 5.03 5.03 5.03 5.02-2.25 5.02-5.03Z" class="cls-5"/><path d="M171.19 178.13H140.67v-5.02h30.52v5.02z" class="cls-5"/><path d="M129.36 173.11h11.31v5.03h-11.31zM134.38 191.29c2.77 0 5.02 2.25 5.02 5.02s-2.25 5.03-5.02 5.03-5.03-2.25-5.03-5.03 2.25-5.02 5.03-5.02Z" class="cls-6"/><path d="m124.26 178.13-26.34 14.81c-1.14-1.02-2.77-1.65-4.59-1.65s-3.31.58-4.44 1.51l-26.1-14.67h61.47ZM129.36 178.13H98.83v-5.02h30.53v5.02zM114.6 207.25H72.47l15.35-8.63c1.03 1.62 3.11 2.72 5.51 2.72s4.62-1.18 5.62-2.88l15.65 8.8Z" class="cls-5"/><path d="M99.54 196.31c0 .76-.21 1.49-.59 2.14l-5.42-3.05 4.39-2.47c1 .89 1.62 2.07 1.62 3.37ZM93.53 195.41l5.42 3.05c-1 1.7-3.13 2.88-5.62 2.88s-4.48-1.1-5.51-2.72l5.71-3.21Z" class="cls-5"/><path d="M87.53 173.11h11.31v5.03H87.53z" class="cls-6"/><path d="M93.33 191.29c1.82 0 3.46.63 4.59 1.65l-4.39 2.47-4.64-2.61c1.13-.93 2.7-1.51 4.44-1.51Z" class="cls-5"/><path d="m93.53 195.41-5.71 3.21c-.44-.69-.69-1.48-.69-2.31 0-1.37.68-2.61 1.77-3.51l4.64 2.61Z" class="cls-5"/><path d="m62.8 178.13 26.1 14.67c-1.09.9-1.77 2.14-1.77 3.51 0 .83.25 1.62.69 2.31l-15.35 8.63H30.79l-15.65-8.8c.38-.65.59-1.38.59-2.14 0-1.3-.62-2.48-1.62-3.37l26.34-14.81h22.34Zm-8.53 18.18c0-2.77-2.25-5.02-5.02-5.02s-5.03 2.25-5.03 5.02 2.25 5.03 5.03 5.03 5.02-2.25 5.02-5.03Z" class="cls-5"/><path d="M87.53 178.13H57v-5.02h30.53v5.02z" class="cls-5"/><path d="M45.7 173.11h11.31v5.03H45.7zM49.25 191.29c2.77 0 5.02 2.25 5.02 5.02s-2.25 5.03-5.02 5.03-5.03-2.25-5.03-5.03 2.25-5.02 5.03-5.02Z" class="cls-6"/><path d="M45.7 178.13H15.17v-5.02H45.7v5.02zM30.79 207.25H.24v-6.52L4 198.62c1.03 1.62 3.12 2.72 5.51 2.72s4.62-1.18 5.62-2.88l15.65 8.8ZM15.73 196.31c0 .76-.21 1.49-.59 2.14l-5.42-3.05 4.39-2.47c1 .89 1.62 2.07 1.62 3.37Z" class="cls-5"/><path d="M3.87 173.11h11.31v5.03H3.87z" class="cls-6"/><path d="m9.72 195.41 5.42 3.05c-1 1.7-3.13 2.88-5.62 2.88s-4.48-1.1-5.51-2.72l5.71-3.21ZM9.52 191.29c1.82 0 3.46.63 4.59 1.65l-4.39 2.47-4.64-2.61c1.13-.93 2.7-1.51 4.44-1.51Z" class="cls-5"/><path d="m9.72 195.41-5.71 3.21c-.44-.69-.69-1.48-.69-2.31 0-1.37.68-2.61 1.77-3.51l4.64 2.61ZM.24 190.08l4.84 2.72c-1.09.9-1.77 2.14-1.77 3.51 0 .83.25 1.62.69 2.31l-3.76 2.11v-10.65Z" class="cls-5"/><path d="M213.02 173.11H.24v-56.28H270.15v56.28h-57.13z" style="fill:#d2d296;stroke-width:0"/><path d="M.24 178.13h40.21l-26.34 14.81c-1.14-1.02-2.77-1.65-4.59-1.65s-3.31.58-4.44 1.51l-4.84-2.72v-11.95Z" class="cls-5"/><path d="M270.15 207.25H.24M.24 111.06h269.91M.24 116.83h269.91M266.16 173.11h3.99M224.33 173.11h30.52M182.5 173.11h30.52M140.67 173.11h30.52M98.83 173.11h30.53M57 173.11h30.53M15.17 173.11H45.7M.24 173.11h3.63M266.16 178.13h3.99M224.33 178.13h30.52M182.5 178.13h30.52M140.67 178.13H171.19M98.83 178.13h30.53M57 178.13h30.53M15.17 178.13H45.7M.24 178.13h3.63M72.46 207.25l15.35-8.63 5.72-3.21 4.39-2.47 26.34-14.81" class="cls-10"/><path d="m114.6 207.25-15.65-8.8-5.42-3.04-4.64-2.61-26.09-14.67M139.4 196.31c0 2.78-2.25 5.03-5.02 5.03s-5.03-2.25-5.03-5.03 2.25-5.02 5.03-5.02 5.02 2.25 5.02 5.02ZM224.07 196.31c0 2.78-2.25 5.03-5.02 5.03s-5.03-2.25-5.03-5.03 2.25-5.02 5.03-5.02 5.02 2.25 5.02 5.02Z" class="cls-10"/><path d="M97.92 192.94c1 .89 1.62 2.07 1.62 3.37 0 .76-.21 1.49-.59 2.14-1 1.7-3.13 2.88-5.62 2.88s-4.48-1.1-5.51-2.72c-.44-.69-.69-1.48-.69-2.31 0-1.37.68-2.61 1.77-3.51 1.13-.93 2.7-1.51 4.44-1.51 1.82 0 3.46.63 4.59 1.65ZM.24 200.73l3.77-2.11 5.71-3.21 4.39-2.47 26.34-14.81" class="cls-10"/><path d="m30.79 207.25-15.65-8.8-5.42-3.04-4.64-2.61-4.84-2.72" class="cls-10"/><path d="M14.11 192.94c1 .89 1.62 2.07 1.62 3.37 0 .76-.21 1.49-.59 2.14-1 1.7-3.13 2.88-5.62 2.88s-4.48-1.1-5.51-2.72c-.44-.69-.69-1.48-.69-2.31 0-1.37.68-2.61 1.77-3.51 1.13-.93 2.7-1.51 4.44-1.51 1.82 0 3.46.63 4.59 1.65ZM156.08 207.25l15.35-8.63 5.72-3.21 4.39-2.47 26.34-14.81" class="cls-10"/><path d="m198.21 207.25-15.64-8.8-5.42-3.04-4.64-2.61-26.1-14.67" class="cls-10"/><path d="M181.54 192.94c1 .89 1.62 2.07 1.62 3.37 0 .76-.21 1.49-.59 2.14-1 1.7-3.13 2.88-5.62 2.88s-4.48-1.1-5.51-2.72c-.44-.69-.69-1.48-.69-2.31 0-1.37.68-2.61 1.77-3.51 1.13-.93 2.7-1.51 4.44-1.51 1.82 0 3.46.63 4.59 1.65ZM239.7 207.25l15.35-8.63 5.72-3.21 4.39-2.48 4.99-2.8" class="cls-10"/><path d="m270.15 200.69-3.97-2.24-5.41-3.04-4.64-2.61-26.1-14.67" class="cls-10"/><path d="M265.16 192.93c1 .89 1.62 2.08 1.62 3.38 0 .76-.21 1.49-.59 2.14-1 1.7-3.13 2.88-5.62 2.88s-4.48-1.1-5.51-2.72c-.44-.69-.69-1.48-.69-2.31 0-1.37.68-2.61 1.77-3.51 1.13-.93 2.7-1.51 4.44-1.51 1.82 0 3.46.63 4.59 1.64ZM54.27 196.31c0 2.78-2.25 5.03-5.02 5.03s-5.03-2.25-5.03-5.03 2.25-5.02 5.03-5.02 5.02 2.25 5.02 5.02ZM3.87 173.11h11.31v5.03H3.87zM45.7 173.11h11.31v5.03H45.7zM87.53 173.11h11.31v5.03H87.53zM129.36 173.11h11.31v5.03h-11.31zM171.19 173.11h11.31v5.03h-11.31zM213.02 173.11h11.31v5.03h-11.31zM254.85 173.11h11.31v5.03h-11.31z" class="cls-10"/></g><g id="_レイヤー_2" data-name="レイヤー 2"><path d="M114.66 46.45c-.45 3.51-4.05 2.3-4.88 1.72 0 0 2.85-.01 4.88-1.72Z" class="cls-1"/><path d="M114.66 46.45c-2.03 1.71-4.88 1.72-4.88 1.72l1.13-1.32h.93l1.14-.77 1.68.37Z" class="cls-1"/><path d="M101.37 30.66h-1.73c-.09-1-.16-2-.2-2.98l6.19 1.36v.6l-4.26 1.02Z" class="cls-6"/><path d="m118.4 25.98-4.69-.6-4.42 3.24s1.74-.26 3.69-.86c1.96-.59 4.65-.76 4.65-.76l.77-1.02Zm-18.96 1.7c-.11-2.72-.06-5.25.19-6.94l.32-.14s.03.1.06.14c0 0 5.7 1.49 7.32.98s4.34-2.13 5.02-2.81 1.62-1.19 2.81 0 7.58 10.47 8 11.58c.77-2.22 2.38-4.85 4.09-3.49 1.7 1.36 1.19 6.04-.94 6.98l.17.93 9.53 10.9.37.15-.05.12c-6.08 9-14.36 9.85-17.93 10.36-3.58.52-5.42-3.4-5.42-3.4-1.2-.2-2.42-.69-3.52-1.47-3-2.1-6.77-7.72-8.3-12.19-.72-2.1-1.24-5.38-1.52-8.72h1.73l4.26-1.02v-.6l-6.19-1.36Zm15.22 18.77-1.68-.37-1.14.77h-.93l-1.13 1.32c.83.58 4.43 1.79 4.88-1.72Z" style="fill:#fddbb6;stroke-width:0"/><path d="M236.1 111.25c3.32 2.81 13.53 23.75 13.53 23.75s-23.05-3.63-23.53-5.9c1.52-1.93 2.94-4.03 3.61-5.85 1.36-3.69-.67-10.19-5.09-15.72.46.06 8.26.99 11.48 3.72Z" class="cls-2"/><path d="M224.62 107.53c4.42 5.53 6.45 12.03 5.09 15.72-.67 1.82-2.09 3.92-3.61 5.85-2.53 3.2-5.32 5.9-5.32 5.9 1.9-9.44-2.38-18.64-3.07-20-.64-1.27-9.8-2.25-13.74-3.5-.27-.08-.51-.17-.72-.25-3.41-1.36-7.49-8.55-7.49-8.55 6.76-3.57 16.34-6 24 0 1.83 1.44 3.46 3.08 4.86 4.83Z" class="cls-7"/><path d="M130.72 127.08c-.05-5.72-.02-12.54.07-17.78 1.19-2.84 4.56-7.32 9.41-11.9 3.46 1.91 8.97 5.57 15.01 9.41 3.7 2.35 7.59 4.76 11.33 6.88 0 0 27.83.55 36.54 0l.89-2.19c3.94 1.25 13.1 2.23 13.74 3.5.69 1.36 4.97 10.56 3.07 20 0 0-2.3 4.34-8.94 6.89 1.89-.83 4.85-3.57 0-3.74-4.85-.17-32.08 2.72-40.08 1.87-8-.85-18.39-4.09-25.36-3.92-6.98.17-12.12 2.73-8.36 4.26 3.76 1.53 17.04 3.57 21.63 4.43 1.41.26 4.36.74 7.91 1.22l.6 5.07c-4.85 2.81-12.76 6.64-12.76 6.64s-6.13-1.79-13.79-3.06c-1.05-.18-2.26-.32-3.59-.43-1.38-.16-10.45-8.27-17.34-18.13 0 0-11.74 9.62-19.49 16.6-6.31-.71-13.91-1.75-21.28-2.3 0 0-7.48-9.78-11.78-9.78-1.04 0-3.27-.15-6.16-.4-9.06-.8-24.65-2.63-30.73-4.12-1.7-2.19-3.32-4.04-5.02-4.68-4.09-1.53-10.47-3.32-10.47-3.32.9-.86 1.91-1.82 3-2.86 0 0 4.4 2.35 8.83 2.18 1.17-.05 4.48-.17 8.84-.34 8.81-.35 21.92-.89 30.32-1.36 3.13-.18 5.6-.34 6.96-.48 6.81-.71 12.77-1.56 18.56-6.16 0 0 8.16-5.6 12.89-10.58-.3.61-.73 1.48-1.28 2.53-2.83 5.42-8.73 15.76-14.85 20.65-1.54 1.23-3.02 2.3-4.41 3.21.58.06 21.96 2.24 38.32-9.68l.22-.47c2.39 1.08 4.93 1.92 7.56 2.34Z" class="cls-6"/><path d="M167.58 146.01c-3.55-.48-6.5-.96-7.91-1.22-4.59-.86-17.87-2.9-21.63-4.43-3.76-1.53 1.38-4.09 8.36-4.26 6.97-.17 17.36 3.07 25.36 3.92 8 .85 35.23-2.04 40.08-1.87 4.85.17 1.89 2.91 0 3.74-3 1.16-12.21 3.14-21.39 4.97-.03 0-.05.02-.08.02l-2.28.45h-.03c-4.89.49-13.77-.42-20.48-1.32Z" class="cls-4"/><path d="M140.2 97.4c-4.85 4.58-8.22 9.06-9.41 11.9.07-3.33.16-6.03.29-7.4.51-5.6 5.61-30.65 7.49-34.43 1.87-3.79 6.82-15.29 6.82-15.29 3.26.28 6.9.78 8.49 1.63 3.2 1.72 10.6 3.95 14.81 12.76 4.22 8.81 14.56 25.53 14.56 25.53l12.51 10.6s4.08 7.19 7.49 8.55c.21.08.45.17.72.25l-.89 2.19c-8.71.55-36.54 0-36.54 0-3.74-2.12-7.63-4.53-11.33-6.88-6.04-3.84-11.55-7.5-15.01-9.41ZM188.06 147.33c-10.29 2.03-19.88 3.75-19.88 3.75l-.6-5.07c6.71.9 15.59 1.81 20.48 1.32Z" class="cls-6"/><path d="M130.79 109.3c-.09 5.24-.12 12.06-.07 17.78-2.63-.42-5.17-1.26-7.56-2.34-10.14-4.57-17.53-13.49-17.53-13.49l-1.75-.22c.55-1.05.98-1.92 1.28-2.53l.01-.02c1.92-2.02 3.27-3.94 3.27-5.35 0-.81-1.08-1.96-2.78-3.24.21-.38 21.8-20.93 21.8-20.93s-4.85-5.75-5.75-5.37c-.89.39-20.87 23.2-20.87 23.2a92.336 92.336 0 0 0-8.57-4.27c-2.58-1.11-4.86-1.93-6.3-2.2-1.17-.22-2.42-.75-3.65-1.44l-1.12 1.78S78.96 93 75.89 96.1h-.01c-4.77-.1-15.49-7.12-15.49-7.12.87-1.53 1.78-2.44 2.94-3.6 2.55-2.55 21.79-18.72 25.87-21.45 4.09-2.72 17.88-8.85 17.88-8.85s1.26-.66 2.7-1.23c4.45 5.32 7.1 8.89 14.88 8.38s14.5-10.4 14.5-10.4 2.92.06 6.23.35c0 0-4.95 11.5-6.82 15.29-1.88 3.78-6.98 28.83-7.49 34.43-.13 1.37-.22 4.07-.29 7.4Z" class="cls-6"/><path d="m136.33 46.08 2.83 5.75s-6.72 9.89-14.5 10.4-10.43-3.06-14.88-8.38c1.12-.44 2.35-.83 3.2-.81 0 0 1.84 3.92 5.42 3.4 3.57-.51 11.85-1.36 17.93-10.36ZM139.16 40.19s-.68.08-1.28 0c-.51-2.72-.93-7.92-2.97-14.3-2.05-6.38-7.07-13.87-8.68-15.49-1.62-1.61-3.43.7-3.97 2.08 2.04 1.44 2.76 6.63 4.31 9.07 1.62 2.57 3.85 4.6 4.04 6.81s.98 6.38 1.83 8.58c.42 1.09 1.6 2.69 2.66 4.02s2.02 2.38 2.02 2.38l.76 3.23-1.5-.61-.37-.15-9.53-10.9-.17-.93c2.13-.94 2.64-5.62.94-6.98-1.71-1.36-3.32 1.27-4.09 3.49-.42-1.11-6.81-10.39-8-11.58s-2.13-.68-2.81 0-3.4 2.3-5.02 2.81-7.32-.98-7.32-.98a.35.35 0 0 1-.06-.14c-.33-.79.09-2.22.51-3.22.45-1.07 7.08-8.06 7.08-8.06s-4.97-5.62-5.87-6.64c-.89-1.02-.57-1.34-.19-1.72.38-.39 2.23-.58 4.09-.39 1.85.19 6.44 3.77 9.38 6 .19-.44 5.81-4.98 5.81-4.98l1.66 1.98s.51.13-.45.45-4.94 3.61-4.94 3.61l.09 1.67h3.83c2.47-2.56 5.1-1.88 7.49 0 2.38 1.87 9.02 14.12 9.27 17.1.26 2.98 1.45 13.79 1.45 13.79Z" class="cls-6"/><path d="M120.69 136.1c6.89 9.86 15.96 17.97 17.34 18.13-8.33-.73-21.31-.41-29.4-.85-2.14-.12-4.66-.37-7.43-.68 7.75-6.98 19.49-16.6 19.49-16.6Z" class="cls-7"/><path d="m123.16 124.74-.22.47c-16.36 11.92-37.74 9.74-38.32 9.68 1.39-.91 2.87-1.98 4.41-3.21 6.12-4.89 12.02-15.23 14.85-20.65l1.75.22s7.39 8.92 17.53 13.49Z" class="cls-6"/><path d="M121.71 73.59c.9-.38 5.75 5.37 5.75 5.37s-21.59 20.55-21.8 20.93c-1.31-.99-2.98-2.05-4.82-3.1 0 0 19.98-22.81 20.87-23.2Z" style="fill:#edc69f;stroke-width:0"/><path d="m118.4 25.98-.77 1.02s-2.69.17-4.65.76c-1.95.6-3.69.86-3.69.86l4.42-3.24 4.69.6ZM75.88 96.1h.01c3.07-3.1 5.31-5.44 5.31-5.44l1.12-1.78c1.23.69 2.48 1.22 3.65 1.44 1.44.27 3.72 1.09 6.3 2.2 2.75 1.19 5.84 2.72 8.57 4.27 1.84 1.05 3.51 2.11 4.82 3.1 1.7 1.28 2.78 2.43 2.78 3.24 0 1.41-1.35 3.33-3.27 5.35l-.01.02c-4.73 4.98-12.89 10.58-12.89 10.58l-7.32 1.02c-6.88.97-25.47-5.28-32.63-8.45 2.6-.62 4.88-13.16 4.88-13.16 1.21-5.01 2.17-7.7 3.19-9.51 0 0 10.72 7.02 15.49 7.12Z" class="cls-6"/><path d="m84.95 120.1 7.32-1.02c-5.79 4.6-11.75 5.45-18.56 6.16-1.36.14-3.83.3-6.96.48 0 0-8.35-4.42-14.14-5.45-5.79-1.02-11.58 3.92-16.18 6.81-4.36.17-7.67.29-8.84.34-4.43.17-8.83-2.18-8.83-2.18 4.76-4.53 11.13-10.53 17.85-15.86 4.42-1.7 8.51-1.19 14.47 1.7.36.18.78.37 1.24.57 7.16 3.17 25.75 9.42 32.63 8.45Z" class="cls-4"/><path d="M68.14 140.62c4.3 0 11.78 9.78 11.78 9.78-3.54-.26-7.03-.4-10.29-.34-.97.02-1.93.03-2.88.02h-.05c-2.81-.09-4.64-9.45-4.72-9.86 2.89.25 5.12.4 6.16.4Z" class="cls-7"/><path d="M52.61 120.27c5.79 1.03 14.14 5.45 14.14 5.45-8.4.47-21.51 1.01-30.32 1.36 4.6-2.89 10.39-7.83 16.18-6.81Z" class="cls-4"/><path d="M61.98 140.22c.08.41 1.91 9.77 4.72 9.86-11.86-.05-22.49-1.82-27.45-5.12-3.13-2.08-5.64-5.81-8-8.86 6.08 1.49 21.67 3.32 30.73 4.12Z" class="cls-7"/><path d="M57.2 98.49s-2.28 12.54-4.88 13.16c-.46-.2-.88-.39-1.24-.57-5.96-2.89-10.05-3.4-14.47-1.7 1.86-1.48 2.21-6.13 6.47-7.66 4.25-1.53 14.12-3.23 14.12-3.23Z" class="cls-2"/><path d="M99.63 20.74c-.25 1.69-.3 4.22-.19 6.94.04.98.11 1.98.2 2.98.28 3.34.8 6.62 1.52 8.72 1.53 4.47 5.3 10.09 8.3 12.19 1.1.78 2.32 1.27 3.52 1.47 2.06.33 4.08-.23 5.42-1.79" class="cls-12"/><path d="M112.98 53.04s1.84 3.92 5.42 3.4c3.57-.51 11.85-1.36 17.93-10.36M99.95 20.6s.03.1.06.14c0 0 5.7 1.49 7.32.98s4.34-2.13 5.02-2.81 1.62-1.19 2.81 0 7.58 10.47 8 11.58c.77-2.22 2.38-4.85 4.09-3.49 1.7 1.36 1.19 6.04-.94 6.98l.17.93 9.53 10.9.37.15 1.5.61-.76-3.23s-.96-1.05-2.02-2.38-2.24-2.93-2.66-4.02c-.85-2.2-1.64-6.37-1.83-8.58s-2.42-4.24-4.04-6.81c-1.55-2.44-2.27-7.63-4.31-9.07.54-1.38 2.35-3.69 3.97-2.08 1.61 1.62 6.63 9.11 8.68 15.49 2.04 6.38 2.46 11.58 2.97 14.3.6.08 1.28 0 1.28 0s-1.19-10.81-1.45-13.79c-.25-2.98-6.89-15.23-9.27-17.1-2.39-1.88-5.02-2.56-7.49 0h-3.83l-.09-1.67s3.98-3.29 4.94-3.61.45-.45.45-.45l-1.66-1.98s-5.62 4.54-5.81 4.98c-2.94-2.23-7.53-5.81-9.38-6-1.86-.19-3.71 0-4.09.39-.38.38-.7.7.19 1.72.9 1.02 5.87 6.64 5.87 6.64s-6.63 6.99-7.08 8.06c-.42 1-.84 2.43-.51 3.22ZM99.44 27.68l6.19 1.36v.6l-4.26 1.02h-1.74" class="cls-12"/><path d="m109.29 28.62 4.42-3.24 4.69.6-.77 1.02s-2.69.17-4.65.76c-1.95.6-3.69.86-3.69.86ZM111.84 34.4s3.92-1.53 5.45-1.53M101.2 36.32l3.75.04M106.35 34.19s.73 8.89 1.66 9.32c.94.42 2.64-.21 2.9-.6M110.91 41.34c.29.04 1.14 1.4 1.14 1.4M114.66 46.45l-1.68-.37-1.14.77h-.93l-1.13 1.32c.83.58 4.43 1.79 4.88-1.72Z" class="cls-12"/><path d="M109.78 48.17s2.85-.01 4.88-1.72" style="stroke-width:.5px;stroke-linecap:round;stroke-linejoin:round;fill:none;stroke:#000"/><path d="M66.7 150.08c-11.86-.05-22.49-1.82-27.45-5.12-3.13-2.08-5.64-5.81-8-8.86-1.7-2.19-3.32-4.04-5.02-4.68-4.09-1.53-10.47-3.32-10.47-3.32.9-.86 1.91-1.82 3-2.86 4.76-4.53 11.13-10.53 17.85-15.86 1.86-1.48 2.21-6.13 6.47-7.66 4.25-1.53 14.12-3.23 14.12-3.23 1.21-5.01 2.17-7.7 3.19-9.51.87-1.53 1.78-2.44 2.94-3.6 2.55-2.55 21.79-18.72 25.87-21.45 4.09-2.72 17.88-8.85 17.88-8.85s1.26-.66 2.7-1.23c1.12-.44 2.35-.83 3.2-.81M138.03 154.23c-8.33-.73-21.31-.41-29.4-.85-2.14-.12-4.66-.37-7.43-.68-6.31-.71-13.91-1.75-21.28-2.3-3.54-.26-7.03-.4-10.29-.34-.97.02-1.93.03-2.88.02M188.06 147.33c-10.29 2.03-19.88 3.75-19.88 3.75-4.85 2.81-12.76 6.64-12.76 6.64s-6.13-1.79-13.79-3.06c-1.05-.18-2.26-.32-3.59-.43M190.37 146.88l-2.28.45M136.33 46.08l2.83 5.75s2.92.06 6.23.35c3.26.28 6.9.78 8.49 1.63 3.2 1.72 10.6 3.95 14.81 12.76 4.22 8.81 14.56 25.53 14.56 25.53l12.51 10.6c6.76-3.57 16.34-6 24 0 1.83 1.44 3.46 3.08 4.86 4.83 4.42 5.53 6.45 12.03 5.09 15.72-.67 1.82-2.09 3.92-3.61 5.85-2.53 3.2-5.32 5.9-5.32 5.9s-2.3 4.34-8.94 6.89c-3 1.16-12.21 3.14-21.39 4.97" class="cls-12"/><path d="M18.76 125.24s4.4 2.35 8.83 2.18c1.17-.05 4.48-.17 8.84-.34 8.81-.35 21.92-.89 30.32-1.36 3.13-.18 5.6-.34 6.96-.48 6.81-.71 12.77-1.56 18.56-6.16l-7.32 1.02c-6.88.97-25.47-5.28-32.63-8.45-.46-.2-.88-.39-1.24-.57-5.96-2.89-10.05-3.4-14.47-1.7" class="cls-12"/><path d="M36.43 127.08c4.6-2.89 10.39-7.83 16.18-6.81 5.79 1.03 14.14 5.45 14.14 5.45" class="cls-12"/><path d="M105.16 108.5c-4.73 4.98-12.89 10.58-12.89 10.58M105.66 99.89c1.7 1.28 2.78 2.43 2.78 3.24 0 1.41-1.35 3.33-3.27 5.35" class="cls-13"/><path d="M100.84 96.79c1.84 1.05 3.51 2.11 4.82 3.1" class="cls-12"/><path d="M73.71 81.89s4.21 4.52 8.61 6.99c1.23.69 2.48 1.22 3.65 1.44 1.44.27 3.72 1.09 6.3 2.2 2.75 1.19 5.84 2.72 8.57 4.27" class="cls-13"/><path d="M100.84 96.79s19.98-22.81 20.87-23.2c.9-.38 5.75 5.37 5.75 5.37s-21.59 20.55-21.8 20.93" class="cls-12"/><path d="M108.44 87.25s6.25-18.76 8.42-19.78M109.78 53.85c4.45 5.32 7.1 8.89 14.88 8.38s14.5-10.4 14.5-10.4M145.39 52.18s-4.95 11.5-6.82 15.29c-1.88 3.78-6.98 28.83-7.49 34.43-.13 1.37-.22 4.07-.29 7.4-.09 5.24-.12 12.06-.07 17.78.05 5.59.17 10.11.36 11.07" class="cls-13"/><path d="M211.84 141.89c1.89-.83 4.85-3.57 0-3.74-4.85-.17-32.08 2.72-40.08 1.87-8-.85-18.39-4.09-25.36-3.92-6.98.17-12.12 2.73-8.36 4.26 3.76 1.53 17.04 3.57 21.63 4.43 1.41.26 4.36.74 7.91 1.22 6.71.9 15.59 1.81 20.48 1.32h.03c.92-.1 1.69-.24 2.28-.45.03 0 .05-.01.08-.02" class="cls-12"/><path d="M130.69 109.55c.03-.08.07-.16.1-.25 1.19-2.84 4.56-7.32 9.41-11.9 2.23-2.1 4.77-4.23 7.56-6.23 9.02-6.47 22.98-13.81 22.98-13.81M144.18 71.59l6.53-8s6.58 7.32 5.05 8c-10.22 8.51-15.18 14.98-17.72 24.51M105.63 60.19S92.44 87.57 92.27 92.52M95.16 63.59s-.32 9.86 0 12.76M79.33 78.23s4.6 3.39 5.28 8.5M60.39 88.98S71.11 96 75.88 96.1" class="cls-13"/><path d="M81.2 90.66S78.96 93 75.89 96.1h-.01c-5.72 5.77-14.36 14.19-16.97 15.15" class="cls-13"/><path d="M31.24 136.1h.01c6.08 1.49 21.67 3.32 30.73 4.12 2.89.25 5.12.4 6.16.4 4.3 0 11.78 9.78 11.78 9.78M101.2 152.7c7.75-6.98 19.49-16.6 19.49-16.6 6.89 9.86 15.96 17.97 17.34 18.13h0" class="cls-12"/><path d="M61.98 140.21h0c.08.42 1.91 9.78 4.72 9.87h.05" class="cls-12"/><path d="M105.17 108.48s0 .01-.01.02c-.3.61-.73 1.48-1.28 2.53-2.83 5.42-8.73 15.76-14.85 20.65-1.54 1.23-3.02 2.3-4.41 3.21-6.34 4.17-10.91 5.32-10.91 5.32" class="cls-13"/><path d="M84.61 134.89h.01c.58.06 21.96 2.24 38.32-9.68M105.63 111.25s7.39 8.92 17.53 13.49c2.39 1.08 4.93 1.92 7.56 2.34M96.08 123.87s12.86 1.46 17.76 0M145.39 112.96s10.71 18.38 16.84 19.4M140.2 97.4c3.46 1.91 8.97 5.57 15.01 9.41 3.7 2.35 7.59 4.76 11.33 6.88 6.19 3.5 11.97 6.2 15.77 6.45" class="cls-13"/><path d="M195.76 102.7s4.08 7.19 7.49 8.55c.21.08.45.17.72.25 3.94 1.25 13.1 2.23 13.74 3.5.69 1.36 4.97 10.56 3.07 20" class="cls-12"/><path d="M166.54 113.69s27.83.55 36.54 0M155.21 106.81c4.8.19 24.04 2.61 36.29.72" class="cls-13"/><path d="M224.6 107.53h.02c.46.06 8.26.99 11.48 3.72 3.32 2.81 13.53 23.75 13.53 23.75s-23.05-3.63-23.53-5.9M167.58 146v.01l.6 5.07M57.2 98.49s-2.28 12.54-4.88 13.16" class="cls-12"/></g></svg>