<?xml version="1.0" encoding="UTF-8"?>
<svg xmlns="http://www.w3.org/2000/svg" viewBox="0 0 269.76 202.05">
  <defs>
    <style>
      .cls-1 {
        fill: #cab327;
      }

      .cls-1, .cls-2, .cls-3, .cls-4, .cls-5, .cls-6, .cls-7, .cls-8 {
        stroke-width: 0px;
      }

      .cls-2 {
        fill: #7cab8b;
      }

      .cls-3 {
        fill: #e8c8a3;
      }

      .cls-9 {
        stroke-miterlimit: 10;
      }

      .cls-9, .cls-10, .cls-11, .cls-12 {
        stroke: #000;
      }

      .cls-9, .cls-10, .cls-12 {
        fill: none;
      }

      .cls-4 {
        fill: #f3edd7;
      }

      .cls-10 {
        stroke-width: .5px;
      }

      .cls-10, .cls-11, .cls-12 {
        stroke-linecap: round;
        stroke-linejoin: round;
      }

      .cls-11, .cls-5 {
        fill: #333;
      }

      .cls-6 {
        fill: #926399;
      }

      .cls-7 {
        fill: #ff5040;
      }

      .cls-8 {
        fill: #d2d296;
      }
    </style>
  </defs>
  <g id="_畳" data-name="畳">
    <g>
      <g>
        <rect class="cls-4" x=".24" y="167.49" width="3.61" height="5.02"/>
        <path class="cls-4" d="m269.51,195v6.55h-30.38l15.32-8.61c1.03,1.61,3.1,2.71,5.5,2.71s4.61-1.18,5.61-2.88l3.96,2.23Z"/>
        <path class="cls-4" d="m269.51,184.47v10.53l-3.96-2.23c.38-.65.59-1.38.59-2.14,0-1.3-.62-2.48-1.61-3.37l4.98-2.8Z"/>
        <path class="cls-4" d="m269.51,172.5v11.96l-4.98,2.8c-1.13-1-2.76-1.64-4.58-1.64s-3.3.58-4.43,1.51l-26.03-14.63h40.03Z"/>
        <polygon class="cls-4" points="269.51 115.34 269.51 121.09 1.13 121.09 .24 121.09 .24 115.34 269.51 115.34"/>
        <rect class="cls-4" x="265.53" y="167.49" width="3.99" height="5.02"/>
        <path class="cls-4" d="m266.14,190.64c0,.76-.21,1.49-.59,2.14l-5.41-3.04,4.38-2.47c1,.89,1.61,2.07,1.61,3.37Z"/>
        <path class="cls-4" d="m260.15,189.74l5.41,3.04c-1,1.7-3.13,2.88-5.61,2.88s-4.47-1.1-5.5-2.71l5.7-3.21Z"/>
        <rect class="cls-5" x="254.25" y="167.49" width="11.28" height="5.02"/>
        <path class="cls-4" d="m264.53,187.27l-4.38,2.47-4.63-2.6c1.13-.93,2.69-1.51,4.43-1.51,1.82,0,3.45.63,4.58,1.64Z"/>
        <path class="cls-4" d="m260.15,189.74l-5.7,3.21c-.44-.68-.69-1.47-.69-2.3,0-1.37.68-2.6,1.77-3.5l4.63,2.6Z"/>
        <path class="cls-4" d="m229.49,172.5l26.03,14.63c-1.09.9-1.77,2.13-1.77,3.5,0,.83.25,1.62.69,2.3l-15.32,8.61h-41.39l-15.61-8.78c.38-.65.59-1.38.59-2.14,0-1.3-.62-2.48-1.61-3.36l26.28-14.77h22.1Zm-5.95,18.13c0-2.76-2.24-5.01-5.01-5.01s-5.02,2.24-5.02,5.01,2.24,5.02,5.02,5.02,5.01-2.24,5.01-5.02Z"/>
        <polygon class="cls-4" points="254.25 172.5 229.49 172.5 223.8 172.5 223.8 167.49 254.25 167.49 254.25 172.5"/>
        <rect class="cls-5" x="212.52" y="167.49" width="11.28" height="5.02"/>
        <path class="cls-5" d="m218.53,185.63c2.76,0,5.01,2.24,5.01,5.01s-2.24,5.02-5.01,5.02-5.02-2.24-5.02-5.02,2.24-5.01,5.02-5.01Z"/>
        <path class="cls-4" d="m207.39,172.5l-26.28,14.77c-1.13-1.01-2.76-1.65-4.58-1.65s-3.3.58-4.43,1.51l-26.03-14.63h61.32Z"/>
        <polygon class="cls-4" points="182.06 172.5 182.06 167.49 212.52 167.49 212.52 172.5 207.39 172.5 182.06 172.5"/>
        <path class="cls-4" d="m197.75,201.55h-42.03l15.32-8.61c1.03,1.61,3.11,2.71,5.5,2.71s4.61-1.18,5.61-2.88l15.61,8.78Z"/>
        <path class="cls-4" d="m182.72,190.64c0,.76-.21,1.49-.59,2.14l-5.41-3.04,4.38-2.46c1,.88,1.61,2.06,1.61,3.36Z"/>
        <path class="cls-4" d="m176.73,189.74l5.41,3.04c-1,1.7-3.13,2.88-5.61,2.88s-4.47-1.1-5.5-2.71l5.7-3.21Z"/>
        <rect class="cls-5" x="170.78" y="167.49" width="11.28" height="5.02"/>
        <path class="cls-4" d="m176.53,185.63c1.82,0,3.45.63,4.58,1.65l-4.38,2.46-4.63-2.6c1.13-.93,2.69-1.51,4.43-1.51Z"/>
        <path class="cls-4" d="m176.73,189.74l-5.7,3.21c-.44-.68-.69-1.47-.69-2.3,0-1.37.68-2.6,1.77-3.5l4.63,2.6Z"/>
        <path class="cls-4" d="m146.07,172.5l26.03,14.63c-1.09.9-1.77,2.13-1.77,3.5,0,.83.25,1.62.69,2.3l-15.32,8.61h-41.39l-15.61-8.78c.38-.65.59-1.38.59-2.14,0-1.3-.62-2.48-1.61-3.36l26.28-14.77h22.1Zm-7,18.13c0-2.76-2.24-5.01-5.01-5.01s-5.02,2.24-5.02,5.01,2.24,5.02,5.02,5.02,5.01-2.24,5.01-5.02Z"/>
        <polygon class="cls-4" points="170.78 172.5 146.07 172.5 140.33 172.5 140.33 167.49 170.78 167.49 170.78 172.5"/>
        <rect class="cls-5" x="129.05" y="167.49" width="11.28" height="5.02"/>
        <path class="cls-5" d="m134.06,185.63c2.76,0,5.01,2.24,5.01,5.01s-2.24,5.02-5.01,5.02-5.02-2.24-5.02-5.02,2.24-5.01,5.02-5.01Z"/>
        <path class="cls-4" d="m123.97,172.5l-26.28,14.77c-1.13-1.01-2.76-1.65-4.58-1.65s-3.3.58-4.43,1.51l-26.03-14.63h61.32Z"/>
        <polygon class="cls-4" points="129.05 172.5 123.97 172.5 98.6 172.5 98.6 167.49 129.05 167.49 129.05 172.5"/>
        <path class="cls-4" d="m114.32,201.55h-42.03l15.32-8.61c1.03,1.61,3.1,2.71,5.5,2.71s4.61-1.18,5.61-2.88l15.61,8.78Z"/>
        <path class="cls-4" d="m99.3,190.64c0,.76-.21,1.49-.59,2.14l-5.41-3.04,4.38-2.46c1,.88,1.61,2.06,1.61,3.36Z"/>
        <path class="cls-4" d="m93.31,189.74l5.41,3.04c-1,1.7-3.13,2.88-5.61,2.88s-4.47-1.1-5.5-2.71l5.7-3.21Z"/>
        <rect class="cls-5" x="87.32" y="167.49" width="11.28" height="5.02"/>
        <path class="cls-4" d="m93.11,185.63c1.82,0,3.45.63,4.58,1.65l-4.38,2.46-4.63-2.6c1.13-.93,2.69-1.51,4.43-1.51Z"/>
        <path class="cls-4" d="m93.31,189.74l-5.7,3.21c-.44-.68-.69-1.47-.69-2.3,0-1.37.68-2.6,1.77-3.5l4.63,2.6Z"/>
        <path class="cls-4" d="m62.65,172.5l26.03,14.63c-1.09.9-1.77,2.13-1.77,3.5,0,.83.25,1.62.69,2.3l-15.32,8.61H30.71l-15.61-8.78c.38-.65.59-1.38.59-2.14,0-1.3-.62-2.48-1.61-3.36l26.28-14.77h22.29Zm-8.51,18.13c0-2.76-2.24-5.01-5.01-5.01s-5.02,2.24-5.02,5.01,2.24,5.02,5.02,5.02,5.01-2.24,5.01-5.02Z"/>
        <polygon class="cls-4" points="87.32 172.5 62.65 172.5 56.87 172.5 56.87 167.49 87.32 167.49 87.32 172.5"/>
        <rect class="cls-5" x="45.59" y="167.49" width="11.28" height="5.02"/>
        <path class="cls-5" d="m49.13,185.63c2.76,0,5.01,2.24,5.01,5.01s-2.24,5.02-5.01,5.02-5.02-2.24-5.02-5.02,2.24-5.01,5.02-5.01Z"/>
        <polygon class="cls-4" points="45.59 172.5 40.36 172.5 15.14 172.5 15.14 167.49 45.59 167.49 45.59 172.5"/>
        <path class="cls-4" d="m30.71,201.55H.24v-6.51l3.75-2.11c1.03,1.61,3.11,2.71,5.5,2.71s4.61-1.18,5.61-2.88l15.61,8.78Z"/>
        <path class="cls-4" d="m15.69,190.64c0,.76-.21,1.49-.59,2.14l-5.41-3.04,4.38-2.46c1,.88,1.61,2.06,1.61,3.36Z"/>
        <rect class="cls-5" x="3.86" y="167.49" width="11.28" height="5.02"/>
        <path class="cls-4" d="m9.7,189.74l5.41,3.04c-1,1.7-3.13,2.88-5.61,2.88s-4.47-1.1-5.5-2.71l5.7-3.21Z"/>
        <path class="cls-4" d="m9.5,185.63c1.82,0,3.45.63,4.58,1.65l-4.38,2.46-4.63-2.6c1.13-.93,2.69-1.51,4.43-1.51Z"/>
        <path class="cls-4" d="m9.7,189.74l-5.7,3.21c-.44-.68-.69-1.47-.69-2.3,0-1.37.68-2.6,1.77-3.5l4.63,2.6Z"/>
        <path class="cls-4" d="m.24,184.43l4.83,2.71c-1.09.9-1.77,2.13-1.77,3.5,0,.83.25,1.62.69,2.3l-3.75,2.11v-10.62Z"/>
        <polygon class="cls-8" points="212.52 167.49 182.06 167.49 170.78 167.49 140.33 167.49 129.05 167.49 98.6 167.49 87.32 167.49 56.87 167.49 45.59 167.49 15.14 167.49 3.86 167.49 .24 167.49 .24 121.09 1.13 121.09 269.51 121.09 269.51 167.49 265.53 167.49 254.25 167.49 223.8 167.49 212.52 167.49"/>
        <path class="cls-4" d="m.24,172.5h40.11l-26.28,14.77c-1.13-1.01-2.76-1.65-4.58-1.65s-3.3.58-4.43,1.51l-4.83-2.71v-11.92Z"/>
      </g>
      <g>
        <polyline class="cls-9" points="269.51 201.55 239.13 201.55 197.75 201.55 155.71 201.55 114.32 201.55 72.29 201.55 30.71 201.55 .24 201.55"/>
        <line class="cls-9" x1=".24" y1="115.34" x2="269.51" y2="115.34"/>
        <line class="cls-9" x1=".24" y1="121.09" x2="269.51" y2="121.09"/>
        <line class="cls-9" x1="265.53" y1="167.49" x2="269.51" y2="167.49"/>
        <line class="cls-9" x1="223.8" y1="167.49" x2="254.25" y2="167.49"/>
        <line class="cls-9" x1="182.06" y1="167.49" x2="212.52" y2="167.49"/>
        <line class="cls-9" x1="140.33" y1="167.49" x2="170.78" y2="167.49"/>
        <line class="cls-9" x1="98.6" y1="167.49" x2="129.05" y2="167.49"/>
        <line class="cls-9" x1="56.87" y1="167.49" x2="87.32" y2="167.49"/>
        <line class="cls-9" x1="15.14" y1="167.49" x2="45.59" y2="167.49"/>
        <line class="cls-9" x1=".24" y1="167.49" x2="3.86" y2="167.49"/>
        <line class="cls-9" x1="265.53" y1="172.5" x2="269.51" y2="172.5"/>
        <polyline class="cls-9" points="223.8 172.5 229.49 172.5 254.25 172.5"/>
        <polyline class="cls-9" points="182.06 172.5 207.39 172.5 212.52 172.5"/>
        <polyline class="cls-9" points="140.33 172.5 146.07 172.5 170.78 172.5"/>
        <polyline class="cls-9" points="98.6 172.5 123.97 172.5 129.05 172.5"/>
        <polyline class="cls-9" points="56.87 172.5 62.65 172.5 87.32 172.5"/>
        <polyline class="cls-9" points="15.14 172.5 40.36 172.5 45.59 172.5"/>
        <line class="cls-9" x1=".24" y1="172.5" x2="3.86" y2="172.5"/>
        <polyline class="cls-9" points="72.29 201.55 87.61 192.94 93.31 189.74 97.69 187.28 123.97 172.5"/>
        <polyline class="cls-9" points="114.32 201.55 98.71 192.78 93.31 189.74 88.68 187.14 62.65 172.5"/>
        <path class="cls-9" d="m139.07,190.64c0,2.77-2.24,5.02-5.01,5.02s-5.02-2.24-5.02-5.02,2.24-5.01,5.02-5.01,5.01,2.24,5.01,5.01Z"/>
        <path class="cls-9" d="m223.54,190.64c0,2.77-2.24,5.02-5.01,5.02s-5.02-2.24-5.02-5.02,2.24-5.01,5.02-5.01,5.01,2.24,5.01,5.01Z"/>
        <path class="cls-9" d="m97.69,187.28c1,.88,1.61,2.06,1.61,3.36,0,.76-.21,1.49-.59,2.14-1,1.7-3.13,2.88-5.61,2.88s-4.47-1.1-5.5-2.71c-.44-.68-.69-1.47-.69-2.3,0-1.37.68-2.6,1.77-3.5,1.13-.93,2.69-1.51,4.43-1.51,1.82,0,3.45.63,4.58,1.65Z"/>
        <polyline class="cls-9" points=".24 195.05 4 192.94 9.7 189.74 14.08 187.28 40.36 172.5"/>
        <polyline class="cls-9" points="30.71 201.55 15.1 192.78 9.7 189.74 5.07 187.14 .24 184.43"/>
        <path class="cls-9" d="m14.08,187.28c1,.88,1.61,2.06,1.61,3.36,0,.76-.21,1.49-.59,2.14-1,1.7-3.13,2.88-5.61,2.88s-4.47-1.1-5.5-2.71c-.44-.68-.69-1.47-.69-2.3,0-1.37.68-2.6,1.77-3.5,1.13-.93,2.69-1.51,4.43-1.51,1.82,0,3.45.63,4.58,1.65Z"/>
        <polyline class="cls-9" points="155.71 201.55 171.03 192.94 176.73 189.74 181.11 187.28 207.39 172.5"/>
        <polyline class="cls-9" points="197.75 201.55 182.13 192.78 176.73 189.74 172.1 187.14 146.07 172.5"/>
        <path class="cls-9" d="m181.11,187.28c1,.88,1.61,2.06,1.61,3.36,0,.76-.21,1.49-.59,2.14-1,1.7-3.13,2.88-5.61,2.88s-4.47-1.1-5.5-2.71c-.44-.68-.69-1.47-.69-2.3,0-1.37.68-2.6,1.77-3.5,1.13-.93,2.69-1.51,4.43-1.51,1.82,0,3.45.63,4.58,1.65Z"/>
        <polyline class="cls-9" points="239.13 201.55 254.45 192.94 260.15 189.74 264.53 187.27 269.51 184.47"/>
        <polyline class="cls-9" points="269.51 195 265.55 192.78 260.15 189.74 255.52 187.14 229.49 172.5"/>
        <path class="cls-9" d="m264.53,187.27c1,.89,1.61,2.07,1.61,3.37,0,.76-.21,1.49-.59,2.14-1,1.7-3.13,2.88-5.61,2.88s-4.47-1.1-5.5-2.71c-.44-.68-.69-1.47-.69-2.3,0-1.37.68-2.6,1.77-3.5,1.13-.93,2.69-1.51,4.43-1.51,1.82,0,3.45.63,4.58,1.64Z"/>
        <path class="cls-9" d="m54.14,190.64c0,2.77-2.24,5.02-5.01,5.02s-5.02-2.24-5.02-5.02,2.24-5.01,5.02-5.01,5.01,2.24,5.01,5.01Z"/>
        <rect class="cls-9" x="3.86" y="167.49" width="11.28" height="5.02"/>
        <rect class="cls-9" x="45.59" y="167.49" width="11.28" height="5.02"/>
        <rect class="cls-9" x="87.32" y="167.49" width="11.28" height="5.02"/>
        <rect class="cls-9" x="129.05" y="167.49" width="11.28" height="5.02"/>
        <rect class="cls-9" x="170.78" y="167.49" width="11.28" height="5.02"/>
        <rect class="cls-9" x="212.52" y="167.49" width="11.28" height="5.02"/>
        <rect class="cls-9" x="254.25" y="167.49" width="11.28" height="5.02"/>
      </g>
    </g>
  </g>
  <g id="_レイヤー_2" data-name="レイヤー 2">
    <g>
      <g>
        <path class="cls-2" d="m241.83,131c.31,1.04-.01,2.2-.86,2.89-.52.42-1.14.82-1.82,1.18-3.34.19-9.6-5.06-9.6-5.06.88-3.31,1.49-6.61,1.46-7.98l7.53,1.02s1.89,3.25,3.29,7.95Z"/>
        <path class="cls-7" d="m229.55,130.01s6.26,5.25,9.6,5.06c-3.89,2.13-9.98,3.39-12.61,2.92.99-1.34,2.13-4.66,3.01-7.98Z"/>
        <path class="cls-6" d="m179.82,153.18l-1.66-4.73c-3.83-3.88-7.96-8.38-11.42-12.66l5.4-3.15c.98,1.26,1.74,2.13,2.06,2.28,1.41.64,3.96-1.02,3.96-1.02,0,0,15.9-23.48,21.19-27.06l.02-.28,4.74.31s.36-1.57-.16-3.48c15.95-2.3,25.4,13.53,27.06,18.64.03,1.37-.58,4.67-1.46,7.98-.88,3.32-2.02,6.64-3.01,7.98,0,0-4.85,7.66-11.61,10.46-5.38,2.23-13.25,3.1-22.98,3.68-2.52.15-5.16.28-7.92.41l-4.21.64Z"/>
        <path class="cls-2" d="m168.67,100.97c.33-8.01-2.39-13.83-4.17-18.39-.68-1.73-1.93-3.76-3.46-5.86h0c.38-1.54,3.35-3.36,4.81-4.18h0c.48-.27.8-.43.8-.43,24.64.26,34.34,19.54,37.28,31.28.52,1.91.16,3.48.16,3.48l-4.74-.31-31.03-2.04h0c.19-1.23.3-2.41.34-3.55Z"/>
        <path class="cls-2" d="m199.37,106.56l-.02.28c-5.29,3.58-21.19,27.06-21.19,27.06,0,0-2.55,1.66-3.96,1.02-.32-.15-1.08-1.02-2.06-2.28-3.28-4.25-9.09-12.91-9.09-12.91.83-1.56,1.55-3.08,2.18-4.53,1.67-3.92,2.64-7.46,3.1-10.68h0l31.03,2.04Z"/>
        <path class="cls-2" d="m178.16,148.45l1.66,4.73c-5.36,3.7-21.06,2.55-21.06,2.55l-8.05-.25-.38-1.45c4.11-1.09,6.64-2.13,6.64-2.13,7.79,1.15,18-.64,21.19-3.45Z"/>
        <path class="cls-2" d="m172.14,132.64l-5.4,3.15c-4.51-5.56-7.89-10.76-8.07-13.8h0c1.51-.72,2.98-1.49,4.38-2.26,0,0,5.81,8.66,9.09,12.91Z"/>
        <path class="cls-2" d="m164.5,82.58c1.78,4.56,4.5,10.38,4.17,18.39-.04,1.14-.15,2.32-.34,3.55-.46,3.22-1.43,6.76-3.1,10.68l-1.11-.45-1.67-3.22-1.72-3.32-8.89,3.02c1.1-1.28.28-15.71.78-23.37l-12.08-20.13,6.67-5.53.44-.36s3.73,3.54,7.73,8c1.95,2.18,3.98,4.57,5.66,6.88,1.53,2.1,2.78,4.13,3.46,5.86Z"/>
        <path class="cls-2" d="m156.97,151.9s-2.53,1.04-6.64,2.13c-2.47.67-5.53,1.35-8.94,1.83-3.44-.9-11.23-11.3-11.23-11.3,2.86-1.15,5.25-2.34,6.38-3.25-4.25-2.73-10.92-7.71-12.2-13.61h0c.1-.06.18-.1.25-.12.63-.19.36-1.68.36-1.68.25.99,1.3,1.11,2.06.94.77-.17.92-.22,1.19-1.01.01-.29.05-.74.03-1.05.46,1.29,2.06,1.58,2.36,1.12.22-.32.36-.89.44-1.26l5.11-1.53.4,1.34c7.24,3.05,15.17.83,22.13-2.47h0c.18,3.05,3.56,8.25,8.07,13.81,3.46,4.28,7.59,8.78,11.42,12.66-3.19,2.81-13.4,4.6-21.19,3.45Z"/>
        <path class="cls-7" d="m160.24,67.3l5.62,5.24c-1.46.82-4.43,2.64-4.81,4.17h0c-1.68-2.3-3.71-4.69-5.66-6.87l.31-.28c.13-1.34,3.07-2.01,4.54-2.26h.01Z"/>
        <path class="cls-2" d="m164.12,114.75l1.11.45c-.63,1.45-1.35,2.97-2.18,4.53-1.4.77-2.87,1.54-4.38,2.25-6.96,3.3-14.89,5.52-22.13,2.47l-.4-1.34,27.98-8.36Z"/>
        <path class="cls-1" d="m162.45,111.53l1.67,3.22-27.98,8.36-5.11,1.53s.01-.06.02-.09c.03-.16.05-.27.05-.27,0,0,.25-.55.23-1.47,0-.02,0-.03-.01-.05-.01-.39-.07-.84-.22-1.34l2.21.03,29.14-9.92Z"/>
        <path class="cls-1" d="m160.73,108.21l1.72,3.32-29.14,9.92-2.21-.03c-.18-.58-.47-1.22-.94-1.9-.18-.26-.39-.5-.63-.72l22.31-7.57,8.89-3.02Z"/>
        <path class="cls-2" d="m161.05,67.18s-.33.04-.81.12h-.01c-1.47.25-4.41.92-4.54,2.26l-.31.28c-4-4.46-7.73-8-7.73-8l-.44.36-1.54-1.86c1.5-1.09,2.71-2.52,3.7-4.14.42.36,10.27,8.98,11.68,10.98Z"/>
        <path class="cls-3" d="m148.37,40.11v8c0,1.28-.15,2.49-1.21,2.49l.77,2.32-1,.43-.94-.32-1.85.64c1.47,3.1,3.96,1.25,4.66.25h1.76c-.36.79-.75,1.55-1.19,2.28-.99,1.62-2.2,3.05-3.7,4.14-.36.27-.74.51-1.14.74-2.04,1.17-6.03,1.53-9.18.61-3.35.56-9.68-.31-16.04-4.51,0,0,3.19-3.07,4.85-6.64,1.14-.13,2.78-1.64,3.43-3.78-1.07-.05-2.27-.82-2.65-1.72-.27-.64-.34-1.34-.26-2.04.06-.55.22-1.09.41-1.6.31-.82.79-1.64,1.58-2.05.61-.31,1.37-.32,1.99-.03,1.18.56,1.59,2.09,1.81,3.35.34-.38.64-.74.84-1.07.77-1.27,1.02-17.36,1.02-17.36,0,0,2.43.26,4.85,0,2.43-.25,8.68-.64,8.68-.64,3.16,1.81,5.87,6.28,7.09,9.59.77,2.07.68,4.69.5,7.04l-1.67-.12h-3.41Zm3.94-5.02l-.26-.96-4.21.96h4.47Zm-16.93-.34s8.23.09,7.8,0c-.42-.08-6.3-1.44-6.81-1.27s-.99,1.27-.99,1.27Z"/>
        <path class="cls-3" d="m151.78,40.11l1.67.12c-.04.56-.09,1.11-.13,1.63-.31,3.73-1.05,8.21-2.76,12.05h-1.76s-.87-.99-.87-.99l-.77-2.32c1.06,0,1.21-1.21,1.21-2.49v-8h3.41Z"/>
        <path class="cls-2" d="m119.08,65.7c-4.56-2.59-6.72-6.74-6.72-6.74,1.02-.24,1.99-.42,2.86-.51l4.09-1.27c6.36,4.2,12.69,5.07,16.04,4.51,3.15.92,7.14.56,9.18-.61.4-.23.78-.47,1.14-.74l1.54,1.86-6.67,5.53,12.08,20.13c-.5,7.66.32,22.09-.78,23.37l-22.31,7.57c-2.34-2.14-7.57-2.78-11.2-3.62l-.16-.3c2.36-1.27,4.21-2.33,4.84-2.83-.06-.13-.39-.74-.9-1.69,0,0,2.43-5.57,2.72-13.58.29-8-3.99-21.35-7.18-29.05l1.43-2.03Z"/>
        <path class="cls-2" d="m150.33,154.03l.38,1.45-.76,1.02c-.77,1.02-9.96,2.55-11.87,2.42-1.38-.09-3.63-1.25-4.77-1.88h-.01s-3.14-4.5-3.14-4.5l-14.89,1.19s-2.79-2.89-6.3-9.53c-1.81-3.42-2.71-9.35-3.15-14.3,1.49-.19,3.04-.7,4.47-1.32,1.64,7.3,4.75,19.4,7.36,19.87,3.58-.7,8.5-2.26,12.51-3.89,0,0,7.79,10.4,11.23,11.3,3.41-.48,6.47-1.16,8.94-1.83Z"/>
        <path class="cls-5" d="m139.22.5c8.17,0,11.11,1.02,10.47,4.72-.64,3.7-3.83,18.38-3.83,18.38,0,0-6.25.39-8.68.64-2.42.26-4.85,0-4.85,0,0,0-.25,16.09-1.02,17.36-.2.33-.5.69-.84,1.07-.22-1.26-.63-2.79-1.81-3.35-.62-.29-1.38-.28-1.99.03-.79.41-1.27,1.23-1.58,2.05-.19.51-.35,1.05-.41,1.6l-1-.11c.44-4.29.99-9.52.99-10.48,0-1.53.77-6.46.89-6.87.13-.4.26-1.94.26-1.94,0,0-3.06-1.26-4.47-3.82-1.4-2.56,1.41-10.35,3.58-13.16,2.17-2.8,6.12-6.12,14.29-6.12Z"/>
        <path class="cls-7" d="m147.93,52.92l.87,1c-.7,1-3.19,2.85-4.66-.25l1.85-.64.94.32,1-.43Z"/>
        <path class="cls-6" d="m83.95,147.56c-.32,0-1.3.29-4.11.38-2.75.1-7.27,0-14.66-.76-2.24-.76-4.32-1.58-6.24-2.46-13.37-6.1-19.25-14.89-21.79-22.42-1.35-3.96-1.77-7.58-1.88-10.25-.34-8.49,12.93-10.23,21.12-11.77,3.79.29,7.37.83,10.49,1.53.01,0,.02,0,.03.01.52.13,1.2.39,1.99.74,8.94,3.99,33.09,20.58,33.09,20.58,0,0,1.36-.67,3.39-1.69,0,0,.02,3.79.44,8.45.44,4.95,1.34,10.88,3.15,14.3,3.51,6.64,6.3,9.53,6.3,9.53l14.89-1.19,3.14,4.49c-.44-.24-.71-.41-.71-.41,0,0-6.9.13-18.51,0-11.62-.12-19.54-4.59-30.13-9.06Z"/>
        <path class="cls-3" d="m128.23,124.78c.02.31-.02.76-.03,1.05-.27.79-.42.84-1.19,1.01-.76.17-1.81.05-2.06-.94-.21-.84-.66-2.72-.66-2.72l-1.28-1.19-2.59,1.15.89,1.14.33,2.26v1.12c0,.4-.28.75-.68.83l-.86.17c-.39.08-.77-.13-.92-.49l-.85-2.07s-.68-1.01-1.77-.88c-.09.01-.2,0-.33-.04-1.07-.3-3.48-2.02-4.93-3.84-.62-.78-1.07-1.57-1.16-2.28h0c2.7-1.38,5.63-2.89,8.03-4.18l.16.3c3.63.84,8.86,1.48,11.2,3.62,1.01,1.24,1.61,2.56,1.79,3.96.01.02.01.03.01.05-.1.63-.19,1.21-.28,1.74-.01.03-.01.06-.02.09-.08.37-.22.94-.44,1.26-.3.46-1.9.17-2.36-1.12Z"/>
        <path class="cls-2" d="m136.54,141.31c-1.13.91-3.52,2.1-6.38,3.25-4.01,1.63-8.93,3.19-12.51,3.89-2.61-.47-5.72-12.57-7.36-19.87,3.27-1.41,5.94-3.39,5.94-3.39h0c.13.03.24.04.33.03,1.09-.13,1.77.88,1.77.88l.85,2.07c.15.36.53.57.92.49l.86-.17c.4-.08.68-.43.68-.83v-1.1l.05.34,1.06.8c.37.28.85.33,1.27.15.12-.05.22-.11.32-.16h0c1.28,5.91,7.95,10.89,12.2,13.62Z"/>
        <path class="cls-5" d="m127.59,46.76c-.65,2.14-2.29,3.65-3.43,3.78q-1.15.13-1.02-2.04c.04-.81.27-3.05.54-5.61l1,.11c-.08.7,0,1.4.26,2.04.38.9,1.58,1.67,2.65,1.72Z"/>
        <path class="cls-3" d="m124.95,125.9s.27,1.49-.36,1.68c-.07.02-.15.06-.25.11s-.2.11-.32.16c-.42.18-.9.13-1.27-.15l-1.06-.8-.05-.34v-.02l-.33-2.26-.89-1.14,2.59-1.15,1.28,1.19s.45,1.88.66,2.72Z"/>
        <path class="cls-2" d="m117.63,102.03c-3.27-6.07-6.81-12.64-6.81-12.64l-2.04-1.7c.18-3.09-1.96-9.52-9.73-19.07-.26-.32-.53-.64-.8-.97.65-3.7,8.25-7.31,14.11-8.69,0,0,2.16,4.15,6.72,6.74l-1.43,2.03c3.19,7.7,7.47,21.05,7.18,29.05-.29,8.01-2.72,13.58-2.72,13.58-1-1.86-2.7-5.02-4.48-8.33Z"/>
        <path class="cls-2" d="m68.9,102.56c-.79-.35-1.47-.61-1.99-.74.06,0,.13.03.19.04,0,0,3.57-17.49,6-21.7l24.25,4.72,1.18-2.3c3.55,2.14,7.24,4.1,10.25,5.11l2.04,1.7s3.54,6.57,6.81,12.64c1.78,3.31,3.48,6.47,4.48,8.33.51.95.84,1.56.9,1.69-.63.5-2.48,1.56-4.84,2.83-2.4,1.29-5.33,2.8-8.03,4.17h0c-1.75.89-3.4,1.72-4.76,2.4-2.03,1.02-3.39,1.69-3.39,1.69,0,0-24.15-16.59-33.09-20.58Z"/>
        <path class="cls-2" d="m116.23,125.18h0s-2.67,1.99-5.94,3.4c-.71-3.17-1.15-5.44-1.15-5.44l2.16-1.8c1.45,1.82,3.86,3.54,4.93,3.84Z"/>
        <path class="cls-2" d="m111.3,121.34l-2.16,1.8s.44,2.27,1.15,5.44c-1.43.62-2.98,1.13-4.47,1.32-.42-4.66-.44-8.45-.44-8.45,1.36-.68,3.01-1.51,4.76-2.39.09.71.54,1.5,1.16,2.28Z"/>
        <path class="cls-7" d="m99.05,68.62c7.77,9.55,9.91,15.98,9.73,19.07-3.01-1.01-6.7-2.97-10.25-5.11-5.4-3.25-10.47-6.9-12.31-8.26,1.17-1.25,8.72-5.61,12.83-5.7Z"/>
        <path class="cls-2" d="m98.53,82.58l-1.18,2.3-24.25-4.72s7.78-3.71,12.38-6.39c0,0,.26.2.74.55,1.84,1.36,6.91,5.01,12.31,8.26Z"/>
        <path class="cls-7" d="m58.94,144.72c1.92.88,4,1.7,6.24,2.46-4.98,2.55-10.34,3.96-18.25,3.7,7.06-2.68,12.01-6.16,12.01-6.16Z"/>
        <path class="cls-6" d="m58.94,144.72s-4.95,3.48-12.01,6.16c-1.79,1.28-9.2,2.04-18,3.06l3.83-27.32,4.38-4.32h.01c2.54,7.53,8.42,16.32,21.79,22.42Z"/>
        <path class="cls-6" d="m18.08,112.05c7.59-10.5,24.39-12.84,38.31-11.77-8.19,1.54-21.46,3.28-21.12,11.77.11,2.67.53,6.29,1.88,10.25h-.01l-4.38,4.32s-5.75-6.51-14.68-14.57Z"/>
      </g>
      <g>
        <path class="cls-12" d="m145.86,23.6s3.19-14.68,3.83-18.38c.64-3.7-2.3-4.72-10.47-4.72s-12.12,3.32-14.29,6.12c-2.17,2.81-4.98,10.6-3.58,13.16,1.41,2.56,4.47,3.82,4.47,3.82,0,0-.13,1.54-.26,1.94-.12.41-.89,5.34-.89,6.87,0,.96-.55,6.19-.99,10.48-.27,2.56-.5,4.8-.54,5.61q-.13,2.17,1.02,2.04c1.14-.13,2.78-1.64,3.43-3.78-1.07-.05-2.27-.82-2.65-1.72-.27-.64-.34-1.34-.26-2.04.06-.55.22-1.09.41-1.6.31-.82.79-1.64,1.58-2.05.61-.31,1.37-.32,1.99-.03,1.18.56,1.59,2.09,1.81,3.35.34-.38.64-.74.84-1.07.77-1.27,1.02-17.36,1.02-17.36,0,0,2.43.26,4.85,0,2.43-.25,8.68-.64,8.68-.64Z"/>
        <path class="cls-12" d="m145.86,23.6c3.16,1.81,5.87,6.28,7.09,9.59.77,2.07.68,4.69.5,7.04-.04.56-.09,1.11-.13,1.63-.31,3.73-1.05,8.21-2.76,12.05-.36.8-.75,1.56-1.19,2.29-.99,1.62-2.2,3.05-3.7,4.14-.36.27-.74.51-1.14.74-2.04,1.17-6.03,1.53-9.18.61-2.08-.61-3.79-1.77-4.34-3.62"/>
        <path class="cls-11" d="m135.38,34.75s.48-1.1.99-1.27,6.39,1.19,6.81,1.27c.43.09-7.8,0-7.8,0Z"/>
        <polygon class="cls-11" points="147.84 35.09 152.05 34.13 152.31 35.09 147.84 35.09"/>
        <path class="cls-12" d="m148.37,39.09v9.02c0,1.28-.15,2.49-1.21,2.49-.07,0-.15-.01-.23-.02"/>
        <path class="cls-12" d="m145.08,47.94s-.32,1.54,0,2.13"/>
        <line class="cls-12" x1="138.42" y1="40.11" x2="139.86" y2="40.11"/>
        <line class="cls-12" x1="150.76" y1="40.11" x2="151.78" y2="40.11"/>
        <path class="cls-12" d="m148.8,53.92c-.7,1-3.19,2.85-4.66-.25l1.85-.64.94.32,1-.43.87,1Z"/>
        <path class="cls-12" d="m124.16,50.54c-1.66,3.57-4.85,6.64-4.85,6.64,6.36,4.2,12.69,5.07,16.04,4.51h.03"/>
        <path class="cls-12" d="m165.86,72.54c-1.46.82-4.43,2.64-4.81,4.17"/>
        <path class="cls-12" d="m133.31,157.04c1.14.63,3.39,1.79,4.77,1.88,1.91.13,11.1-1.4,11.87-2.42l.76-1.02,8.05.25s15.7,1.15,21.06-2.55l4.21-.64c2.76-.13,5.4-.26,7.92-.41,9.73-.58,17.6-1.45,22.98-3.68,6.76-2.8,11.61-10.46,11.61-10.46,2.63.47,8.72-.79,12.61-2.92.68-.36,1.3-.76,1.82-1.18.85-.69,1.17-1.85.86-2.89-1.4-4.7-3.29-7.95-3.29-7.95l-7.53-1.02c-1.66-5.11-11.11-20.94-27.06-18.64-2.94-11.74-12.64-31.02-37.28-31.28,0,0-.32.16-.8.43"/>
        <path class="cls-12" d="m66.88,101.81c-3.12-.7-6.7-1.24-10.49-1.53-13.92-1.07-30.72,1.27-38.31,11.77,8.93,8.06,14.68,14.57,14.68,14.57l-3.83,27.32c8.8-1.02,16.21-1.78,18-3.06,7.91.26,13.27-1.15,18.25-3.7,7.39.76,11.91.86,14.66.76,2.81-.09,3.79-.38,4.11-.38,10.59,4.47,18.51,8.94,30.13,9.06,11.61.13,18.51,0,18.51,0,0,0,.27.17.71.41"/>
        <path class="cls-12" d="m119.31,57.18l-4.09,1.27c-.87.09-1.84.27-2.86.51-5.86,1.38-13.46,4.99-14.11,8.69.27.33.54.65.8.97,7.77,9.55,9.91,15.98,9.73,19.07-3.01-1.01-6.7-2.97-10.25-5.11-5.4-3.25-10.47-6.9-12.31-8.26-.48-.35-.74-.55-.74-.55-4.6,2.68-12.38,6.39-12.38,6.39-2.43,4.21-6,21.7-6,21.7-.06-.01-.13-.03-.19-.04"/>
        <path class="cls-12" d="m160.23,67.3c-1.47.25-4.41.92-4.54,2.26"/>
        <path class="cls-12" d="m149.36,56.19h0c.42.37,10.27,8.99,11.68,10.99,0,0-.33.04-.81.12"/>
        <polyline class="cls-12" points="160.23 67.3 160.24 67.3 165.86 72.54 165.87 72.54"/>
        <path class="cls-12" d="m136.54,124.45c7.24,3.05,15.17.83,22.13-2.47,1.51-.71,2.98-1.48,4.38-2.25.83-1.56,1.55-3.08,2.18-4.53,1.67-3.92,2.64-7.46,3.1-10.68.19-1.23.3-2.41.34-3.55.33-8.01-2.39-13.83-4.17-18.39-.68-1.73-1.93-3.76-3.46-5.86-1.68-2.31-3.71-4.7-5.66-6.88-4-4.46-7.73-8-7.73-8l-.44.36-6.67,5.53,12.08,20.13c-.5,7.66.32,22.09-.78,23.37"/>
        <path class="cls-12" d="m112.36,58.96s2.16,4.15,6.72,6.74c2.34,1.33,5.31,2.25,8.95,1.99"/>
        <polyline class="cls-12" points="129.53 118.8 151.84 111.23 160.73 108.21 162.45 111.53 164.12 114.75 136.14 123.11 131.03 124.64"/>
        <line class="cls-12" x1="133.31" y1="121.45" x2="162.45" y2="111.53"/>
        <path class="cls-12" d="m118.33,115.18c3.63.84,8.86,1.48,11.2,3.62.24.22.45.46.63.72.47.68.76,1.32.94,1.9.15.5.21.95.22,1.34.01.02.01.03.01.05.02.92-.23,1.47-.23,1.47,0,0-.02.11-.05.27-.01.03-.01.06-.02.09-.08.37-.22.94-.44,1.26-.3.46-1.9.17-2.36-1.12-.05-.15-.09-.32-.11-.5-.17-1.7-1.28-3.64-1.28-3.64l-.85-.44"/>
        <path class="cls-12" d="m123.01,121.99l1.28,1.19s.45,1.88.66,2.72c.25.99,1.3,1.11,2.06.94.77-.17.92-.22,1.19-1.01.01-.29.05-.74.03-1.05,0-.09-.01-.17-.03-.23"/>
        <polyline class="cls-12" points="121.64 126.54 121.31 124.28 120.42 123.14"/>
        <path class="cls-12" d="m124.95,125.9s.27,1.49-.36,1.68c-.07.02-.15.06-.25.11s-.2.11-.32.16c-.42.18-.9.13-1.27-.15l-1.06-.8-.05-.34"/>
        <path class="cls-12" d="m121.64,126.54v1.12c0,.4-.28.75-.68.83l-.86.17c-.39.08-.77-.13-.92-.49l-.85-2.07s-.68-1.01-1.77-.88c-.09.01-.2,0-.33-.04-1.07-.3-3.48-2.02-4.93-3.84-.62-.78-1.07-1.57-1.16-2.28"/>
        <path class="cls-12" d="m110.82,89.39s3.54,6.57,6.81,12.64c1.78,3.31,3.48,6.47,4.48,8.33.51.95.84,1.56.9,1.69-.63.5-2.48,1.56-4.84,2.83-2.4,1.29-5.33,2.8-8.03,4.17h0c-1.75.89-3.4,1.72-4.76,2.4-2.03,1.02-3.39,1.69-3.39,1.69,0,0-24.15-16.59-33.09-20.58-.79-.35-1.47-.61-1.99-.74-.01-.01-.02-.01-.03-.01"/>
        <path class="cls-12" d="m68.9,102.56c4.03-3,19.39-11.04,27.05-11.55"/>
        <line class="cls-12" x1="73.1" y1="80.16" x2="97.35" y2="84.88"/>
        <path class="cls-12" d="m86.22,74.32c1.17-1.25,8.72-5.61,12.83-5.7"/>
        <path class="cls-12" d="m107.5,65.28s10.6,16.03,10.66,24.96c.06,8.94-.53,11.79-.53,11.79"/>
        <path class="cls-12" d="m117.65,67.73c3.19,7.7,7.47,21.05,7.18,29.05-.29,8.01-2.72,13.58-2.72,13.58"/>
        <path class="cls-12" d="m131.95,93.87c.25,4.16-3.33,20.07-5.62,21.31"/>
        <path class="cls-12" d="m105.38,121.45s.02,3.79.44,8.45c.44,4.95,1.34,10.88,3.15,14.3,3.51,6.64,6.3,9.53,6.3,9.53l14.89-1.19,3.14,4.49h.01"/>
        <path class="cls-12" d="m109.14,123.14s.44,2.27,1.15,5.44c1.64,7.3,4.75,19.4,7.36,19.87,3.58-.7,8.5-2.26,12.51-3.89,2.86-1.15,5.25-2.34,6.38-3.25-4.25-2.73-10.92-7.71-12.2-13.61"/>
        <path class="cls-12" d="m130.16,144.56s7.79,10.4,11.23,11.3c3.41-.48,6.47-1.16,8.94-1.83,4.11-1.09,6.64-2.13,6.64-2.13,7.79,1.15,18-.64,21.19-3.45-3.83-3.88-7.96-8.38-11.42-12.66-4.51-5.56-7.89-10.76-8.07-13.8"/>
        <path class="cls-12" d="m146.47,127.96s8.07,19.09,10.5,23.94"/>
        <path class="cls-12" d="m163.05,119.73s5.81,8.66,9.09,12.91c.98,1.26,1.74,2.13,2.06,2.28,1.41.64,3.96-1.02,3.96-1.02,0,0,15.9-23.48,21.19-27.06"/>
        <path class="cls-12" d="m168.34,104.52l31.03,2.04,4.74.31s.36-1.57-.16-3.48"/>
        <line class="cls-12" x1="166.74" y1="135.79" x2="172.14" y2="132.64"/>
        <path class="cls-12" d="m179.82,153.18c3.87-2.85,11.96-9.41,15.02-13.75"/>
        <line class="cls-10" x1="178.16" y1="148.45" x2="179.82" y2="153.18"/>
        <path class="cls-12" d="m203.69,139.93s-7.75,9.75-11.74,12.2c-.38.24-.72.4-1.02.49"/>
        <path class="cls-12" d="m231.01,122.03c.03,1.37-.58,4.67-1.46,7.98-.88,3.32-2.02,6.64-3.01,7.98"/>
        <path class="cls-12" d="m229.55,130.01s6.26,5.25,9.6,5.06h.02"/>
        <path class="cls-12" d="m174.16,87.18l9.87-4.66,5.28,6.87c-12.09,4.43-16.08,7.33-20.64,11.58"/>
        <path class="cls-12" d="m116.23,125.19s-2.67,1.98-5.94,3.39c-1.43.62-2.98,1.13-4.47,1.32"/>
        <path class="cls-12" d="m68.9,128.68s9.32,16.39,15.05,18.88"/>
        <polyline class="cls-12" points="60.59 138.12 79.84 147.94 79.86 147.95"/>
        <path class="cls-12" d="m56.39,100.28c-8.19,1.54-21.46,3.28-21.12,11.77.11,2.67.53,6.29,1.88,10.25,2.54,7.53,8.42,16.32,21.79,22.42,1.92.88,4,1.7,6.24,2.46"/>
        <path class="cls-12" d="m46.93,150.88c7.06-2.68,12.01-6.16,12.01-6.16"/>
        <line class="cls-12" x1="32.76" y1="126.62" x2="37.14" y2="122.3"/>
      </g>
    </g>
    <path class="cls-10" d="m144.71,54c0,.16,2.97.58,3.52.03"/>
  </g>
</svg>