<?xml version="1.0" encoding="UTF-8"?>
<svg id="_レイヤー_1" data-name="レイヤー 1" xmlns="http://www.w3.org/2000/svg" viewBox="0 0 270.24 191.92">
  <defs>
    <style>
      .cls-1 {
        stroke-miterlimit: 10;
      }

      .cls-1, .cls-2 {
        fill: none;
        stroke: #000;
      }

      .cls-3, .cls-4, .cls-5, .cls-6, .cls-7, .cls-8, .cls-9, .cls-10, .cls-11 {
        stroke-width: 0px;
      }

      .cls-4 {
        fill: #eedfc8;
      }

      .cls-5 {
        fill: #f3edd7;
      }

      .cls-2 {
        stroke-linecap: round;
        stroke-linejoin: round;
      }

      .cls-6 {
        fill: #333;
      }

      .cls-7 {
        fill: #967b9a;
      }

      .cls-8 {
        fill: #d2d296;
      }

      .cls-9 {
        fill: #f0ccaa;
      }

      .cls-10 {
        fill: #719a8c;
      }

      .cls-11 {
        fill: #dcbe82;
      }
    </style>
  </defs>
  <g>
    <g>
      <rect class="cls-5" x=".24" y="157.29" width="3.62" height="5.03"/>
      <path class="cls-5" d="m270,184.86v6.56h-30.44l15.34-8.63c1.03,1.61,3.11,2.72,5.51,2.72s4.62-1.18,5.62-2.88l3.97,2.23Z"/>
      <path class="cls-5" d="m270,174.3v10.55l-3.97-2.23c.38-.65.59-1.38.59-2.14,0-1.3-.62-2.48-1.61-3.38l4.99-2.8Z"/>
      <path class="cls-5" d="m270,162.32v11.99l-4.99,2.8c-1.14-1.01-2.77-1.64-4.59-1.64s-3.31.58-4.43,1.51l-26.08-14.66h40.1Z"/>
      <polygon class="cls-5" points="270 90.41 270 96.17 1.13 96.17 .24 96.17 .24 90.41 270 90.41"/>
      <rect class="cls-5" x="266" y="157.29" width="3.99" height="5.03"/>
      <path class="cls-5" d="m266.62,180.48c0,.76-.21,1.49-.59,2.14l-5.42-3.05,4.39-2.47c1,.89,1.61,2.07,1.61,3.38Z"/>
      <path class="cls-5" d="m260.61,179.58l5.42,3.05c-1,1.7-3.13,2.88-5.62,2.88s-4.48-1.1-5.51-2.72l5.71-3.21Z"/>
      <rect class="cls-6" x="254.7" y="157.29" width="11.3" height="5.03"/>
      <path class="cls-5" d="m265.01,177.11l-4.39,2.47-4.63-2.6c1.13-.93,2.7-1.51,4.43-1.51,1.82,0,3.45.63,4.59,1.64Z"/>
      <path class="cls-5" d="m260.61,179.58l-5.71,3.21c-.44-.69-.69-1.48-.69-2.31,0-1.37.68-2.6,1.77-3.51l4.63,2.6Z"/>
      <path class="cls-5" d="m229.9,162.32l26.08,14.66c-1.09.9-1.77,2.14-1.77,3.51,0,.83.25,1.62.69,2.31l-15.34,8.63h-41.46l-15.64-8.79c.38-.65.59-1.38.59-2.14,0-1.3-.62-2.48-1.61-3.37l26.32-14.8h22.14Zm-5.96,18.17c0-2.77-2.25-5.02-5.02-5.02s-5.03,2.25-5.03,5.02,2.25,5.03,5.03,5.03,5.02-2.25,5.02-5.03Z"/>
      <polygon class="cls-5" points="254.7 162.32 229.9 162.32 224.2 162.32 224.2 157.29 254.7 157.29 254.7 162.32"/>
      <rect class="cls-6" x="212.9" y="157.29" width="11.3" height="5.03"/>
      <path class="cls-6" d="m218.92,175.47c2.77,0,5.02,2.25,5.02,5.02s-2.25,5.03-5.02,5.03-5.03-2.25-5.03-5.03,2.25-5.02,5.03-5.02Z"/>
      <path class="cls-5" d="m207.76,162.32l-26.32,14.8c-1.14-1.02-2.77-1.65-4.59-1.65s-3.31.58-4.43,1.51l-26.08-14.66h61.43Z"/>
      <polygon class="cls-5" points="182.39 162.32 182.39 157.29 212.9 157.29 212.9 162.32 207.76 162.32 182.39 162.32"/>
      <path class="cls-5" d="m198.1,191.42h-42.11l15.34-8.63c1.03,1.61,3.12,2.72,5.51,2.72s4.62-1.18,5.62-2.88l15.64,8.79Z"/>
      <path class="cls-5" d="m183.05,180.48c0,.76-.21,1.49-.59,2.14l-5.42-3.05,4.39-2.46c1,.89,1.61,2.07,1.61,3.37Z"/>
      <path class="cls-5" d="m177.04,179.58l5.42,3.05c-1,1.7-3.13,2.88-5.62,2.88s-4.48-1.1-5.51-2.72l5.71-3.21Z"/>
      <rect class="cls-6" x="171.09" y="157.29" width="11.3" height="5.03"/>
      <path class="cls-5" d="m176.84,175.47c1.82,0,3.45.63,4.59,1.65l-4.39,2.46-4.63-2.6c1.13-.93,2.7-1.51,4.43-1.51Z"/>
      <path class="cls-5" d="m177.04,179.58l-5.71,3.21c-.44-.69-.69-1.48-.69-2.31,0-1.37.68-2.6,1.77-3.51l4.63,2.6Z"/>
      <path class="cls-5" d="m146.33,162.32l26.08,14.66c-1.09.9-1.77,2.14-1.77,3.51,0,.83.25,1.62.69,2.31l-15.34,8.63h-41.46l-15.64-8.79c.38-.65.59-1.38.59-2.14,0-1.3-.62-2.48-1.61-3.37l26.32-14.8h22.14Zm-7.01,18.17c0-2.77-2.25-5.02-5.02-5.02s-5.03,2.25-5.03,5.02,2.25,5.03,5.03,5.03,5.02-2.25,5.02-5.03Z"/>
      <polygon class="cls-5" points="171.09 162.32 146.33 162.32 140.58 162.32 140.58 157.29 171.09 157.29 171.09 162.32"/>
      <rect class="cls-6" x="129.28" y="157.29" width="11.3" height="5.03"/>
      <path class="cls-6" d="m134.3,175.47c2.77,0,5.02,2.25,5.02,5.02s-2.25,5.03-5.02,5.03-5.03-2.25-5.03-5.03,2.25-5.02,5.03-5.02Z"/>
      <path class="cls-5" d="m124.19,162.32l-26.32,14.8c-1.14-1.02-2.77-1.65-4.59-1.65s-3.31.58-4.43,1.51l-26.08-14.66h61.43Z"/>
      <polygon class="cls-5" points="129.28 162.32 124.19 162.32 98.78 162.32 98.78 157.29 129.28 157.29 129.28 162.32"/>
      <path class="cls-5" d="m114.53,191.42h-42.11l15.34-8.63c1.03,1.61,3.11,2.72,5.51,2.72s4.62-1.18,5.62-2.88l15.64,8.79Z"/>
      <path class="cls-5" d="m99.48,180.48c0,.76-.21,1.49-.59,2.14l-5.42-3.05,4.39-2.46c1,.89,1.61,2.07,1.61,3.37Z"/>
      <path class="cls-5" d="m93.47,179.58l5.42,3.05c-1,1.7-3.13,2.88-5.62,2.88s-4.48-1.1-5.51-2.72l5.71-3.21Z"/>
      <rect class="cls-6" x="87.48" y="157.29" width="11.3" height="5.03"/>
      <path class="cls-5" d="m93.27,175.47c1.82,0,3.45.63,4.59,1.65l-4.39,2.46-4.63-2.6c1.13-.93,2.7-1.51,4.43-1.51Z"/>
      <path class="cls-5" d="m93.47,179.58l-5.71,3.21c-.44-.69-.69-1.48-.69-2.31,0-1.37.68-2.6,1.77-3.51l4.63,2.6Z"/>
      <path class="cls-5" d="m62.76,162.32l26.08,14.66c-1.09.9-1.77,2.14-1.77,3.51,0,.83.25,1.62.69,2.31l-15.34,8.63H30.77l-15.64-8.79c.38-.65.59-1.38.59-2.14,0-1.3-.62-2.48-1.61-3.37l26.32-14.8h22.33Zm-8.52,18.17c0-2.77-2.25-5.02-5.02-5.02s-5.03,2.25-5.03,5.02,2.25,5.03,5.03,5.03,5.02-2.25,5.02-5.03Z"/>
      <polygon class="cls-5" points="87.48 162.32 62.76 162.32 56.97 162.32 56.97 157.29 87.48 157.29 87.48 162.32"/>
      <rect class="cls-6" x="45.67" y="157.29" width="11.3" height="5.03"/>
      <path class="cls-6" d="m49.22,175.47c2.77,0,5.02,2.25,5.02,5.02s-2.25,5.03-5.02,5.03-5.03-2.25-5.03-5.03,2.25-5.02,5.03-5.02Z"/>
      <polygon class="cls-5" points="45.67 162.32 40.43 162.32 15.16 162.32 15.16 157.29 45.67 157.29 45.67 162.32"/>
      <path class="cls-5" d="m30.77,191.42H.24v-6.52l3.76-2.11c1.03,1.61,3.12,2.72,5.51,2.72s4.62-1.18,5.62-2.88l15.64,8.79Z"/>
      <path class="cls-5" d="m15.72,180.48c0,.76-.21,1.49-.59,2.14l-5.42-3.05,4.39-2.46c1,.89,1.61,2.07,1.61,3.37Z"/>
      <rect class="cls-6" x="3.86" y="157.29" width="11.3" height="5.03"/>
      <path class="cls-5" d="m9.71,179.58l5.42,3.05c-1,1.7-3.13,2.88-5.62,2.88s-4.48-1.1-5.51-2.72l5.71-3.21Z"/>
      <path class="cls-5" d="m9.51,175.47c1.82,0,3.45.63,4.59,1.65l-4.39,2.46-4.63-2.6c1.13-.93,2.7-1.51,4.43-1.51Z"/>
      <path class="cls-5" d="m9.71,179.58l-5.71,3.21c-.44-.69-.69-1.48-.69-2.31,0-1.37.68-2.6,1.77-3.51l4.63,2.6Z"/>
      <path class="cls-5" d="m.24,174.26l4.83,2.72c-1.09.9-1.77,2.14-1.77,3.51,0,.83.25,1.62.69,2.31l-3.76,2.11v-10.64Z"/>
      <polygon class="cls-8" points="212.9 157.29 182.39 157.29 171.09 157.29 140.58 157.29 129.28 157.29 98.78 157.29 87.48 157.29 56.97 157.29 45.67 157.29 15.16 157.29 3.86 157.29 .24 157.29 .24 96.17 1.13 96.17 270 96.17 270 157.29 266 157.29 254.7 157.29 224.2 157.29 212.9 157.29"/>
      <path class="cls-5" d="m.24,162.32h40.18l-26.32,14.8c-1.14-1.02-2.77-1.65-4.59-1.65s-3.31.58-4.43,1.51l-4.83-2.72v-11.94Z"/>
    </g>
    <g>
      <polyline class="cls-1" points="270 191.42 239.56 191.42 198.1 191.42 155.99 191.42 114.53 191.42 72.42 191.42 30.77 191.42 .24 191.42"/>
      <line class="cls-1" x1=".24" y1="90.41" x2="270" y2="90.41"/>
      <line class="cls-1" x1=".24" y1="96.17" x2="270" y2="96.17"/>
      <line class="cls-1" x1="266" y1="157.29" x2="270" y2="157.29"/>
      <line class="cls-1" x1="224.2" y1="157.29" x2="254.7" y2="157.29"/>
      <line class="cls-1" x1="182.39" y1="157.29" x2="212.9" y2="157.29"/>
      <line class="cls-1" x1="140.58" y1="157.29" x2="171.09" y2="157.29"/>
      <line class="cls-1" x1="98.78" y1="157.29" x2="129.28" y2="157.29"/>
      <line class="cls-1" x1="56.97" y1="157.29" x2="87.48" y2="157.29"/>
      <line class="cls-1" x1="15.16" y1="157.29" x2="45.67" y2="157.29"/>
      <line class="cls-1" x1=".24" y1="157.29" x2="3.86" y2="157.29"/>
      <line class="cls-1" x1="266" y1="162.32" x2="270" y2="162.32"/>
      <polyline class="cls-1" points="224.2 162.32 229.9 162.32 254.7 162.32"/>
      <polyline class="cls-1" points="182.39 162.32 207.76 162.32 212.9 162.32"/>
      <polyline class="cls-1" points="140.58 162.32 146.33 162.32 171.09 162.32"/>
      <polyline class="cls-1" points="98.78 162.32 124.19 162.32 129.28 162.32"/>
      <polyline class="cls-1" points="56.97 162.32 62.76 162.32 87.48 162.32"/>
      <polyline class="cls-1" points="15.16 162.32 40.43 162.32 45.67 162.32"/>
      <line class="cls-1" x1=".24" y1="162.32" x2="3.86" y2="162.32"/>
      <polyline class="cls-1" points="72.42 191.42 87.76 182.79 93.47 179.58 97.87 177.12 124.19 162.32"/>
      <polyline class="cls-1" points="114.53 191.42 98.89 182.63 93.47 179.58 88.84 176.98 62.76 162.32"/>
      <path class="cls-1" d="m139.32,180.48c0,2.78-2.25,5.03-5.02,5.03s-5.03-2.25-5.03-5.03,2.25-5.02,5.03-5.02,5.02,2.25,5.02,5.02Z"/>
      <path class="cls-1" d="m223.94,180.48c0,2.78-2.25,5.03-5.02,5.03s-5.03-2.25-5.03-5.03,2.25-5.02,5.03-5.02,5.02,2.25,5.02,5.02Z"/>
      <path class="cls-1" d="m97.87,177.12c1,.89,1.61,2.07,1.61,3.37,0,.76-.21,1.49-.59,2.14-1,1.7-3.13,2.88-5.62,2.88s-4.48-1.1-5.51-2.72c-.44-.69-.69-1.48-.69-2.31,0-1.37.68-2.6,1.77-3.51,1.13-.93,2.7-1.51,4.43-1.51,1.82,0,3.45.63,4.59,1.65Z"/>
      <polyline class="cls-1" points=".24 184.9 4 182.79 9.71 179.58 14.11 177.12 40.43 162.32"/>
      <polyline class="cls-1" points="30.77 191.42 15.13 182.63 9.71 179.58 5.08 176.98 .24 174.26"/>
      <path class="cls-1" d="m14.11,177.12c1,.89,1.61,2.07,1.61,3.37,0,.76-.21,1.49-.59,2.14-1,1.7-3.13,2.88-5.62,2.88s-4.48-1.1-5.51-2.72c-.44-.69-.69-1.48-.69-2.31,0-1.37.68-2.6,1.77-3.51,1.13-.93,2.7-1.51,4.43-1.51,1.82,0,3.45.63,4.59,1.65Z"/>
      <polyline class="cls-1" points="155.99 191.42 171.33 182.79 177.04 179.58 181.44 177.12 207.76 162.32"/>
      <polyline class="cls-1" points="198.1 191.42 182.46 182.63 177.04 179.58 172.41 176.98 146.33 162.32"/>
      <path class="cls-1" d="m181.44,177.12c1,.89,1.61,2.07,1.61,3.37,0,.76-.21,1.49-.59,2.14-1,1.7-3.13,2.88-5.62,2.88s-4.48-1.1-5.51-2.72c-.44-.69-.69-1.48-.69-2.31,0-1.37.68-2.6,1.77-3.51,1.13-.93,2.7-1.51,4.43-1.51,1.82,0,3.45.63,4.59,1.65Z"/>
      <polyline class="cls-1" points="239.56 191.42 254.9 182.79 260.61 179.58 265.01 177.11 270 174.3"/>
      <polyline class="cls-1" points="270 184.86 266.03 182.63 260.61 179.58 255.98 176.98 229.9 162.32"/>
      <path class="cls-1" d="m265.01,177.11c1,.89,1.61,2.07,1.61,3.38,0,.76-.21,1.49-.59,2.14-1,1.7-3.13,2.88-5.62,2.88s-4.48-1.1-5.51-2.72c-.44-.69-.69-1.48-.69-2.31,0-1.37.68-2.6,1.77-3.51,1.13-.93,2.7-1.51,4.43-1.51,1.82,0,3.45.63,4.59,1.64Z"/>
      <path class="cls-1" d="m54.24,180.48c0,2.78-2.25,5.03-5.02,5.03s-5.03-2.25-5.03-5.03,2.25-5.02,5.03-5.02,5.02,2.25,5.02,5.02Z"/>
      <rect class="cls-1" x="3.86" y="157.29" width="11.3" height="5.03"/>
      <rect class="cls-1" x="45.67" y="157.29" width="11.3" height="5.03"/>
      <rect class="cls-1" x="87.48" y="157.29" width="11.3" height="5.03"/>
      <rect class="cls-1" x="129.28" y="157.29" width="11.3" height="5.03"/>
      <rect class="cls-1" x="171.09" y="157.29" width="11.3" height="5.03"/>
      <rect class="cls-1" x="212.9" y="157.29" width="11.3" height="5.03"/>
      <rect class="cls-1" x="254.7" y="157.29" width="11.3" height="5.03"/>
    </g>
  </g>
  <g>
    <path class="cls-7" d="m220.45,97.3c0,1.72-.33,5.31-.72,8.85,0,0-6.1-8.83-9.94-11.2l1.15-7.16c4.21,2.64,9.5,6.79,9.5,9.51Z"/>
    <path class="cls-10" d="m219.73,106.15c-.24,2.27-.5,4.52-.72,6.23-1.12-2.32-11.73-6.23-16.44-8.42-2.82-1.31-11.72-4.07-18.44-6.08,1.59-.62,3.53-1.2,5.61-1.72,7.23-1.77,16.3-2.69,19.17-1.65.28.1.57.25.88.44,3.84,2.37,9.94,11.2,9.94,11.2Z"/>
    <path class="cls-7" d="m163.98,104.2c-.29-.39-.61-.82-.94-1.29-1.78-2.52-1.38-4.99-.14-7.5,1.22-2.47,3.25-4.98,4.79-7.62l1.6-1.5c.7,1.02,1.45,2.09,2.24,3.2,1.37,1.92,2.88,3.95,4.51,6,0,0,3.53,1.02,8.07,2.38,6.72,2.01,15.63,4.77,18.44,6.08,4.71,2.19,15.33,6.1,16.44,8.42h0c-.22,1.84-.37,3.07-.37,3.07v9.88s1.78,6.64,0,10.17c-3.39-6.33-21.23-3.53-27.72-3.39s-3.83,1.77,0,7.67l-3.09.15c-1.08-2.44-3.85-3.99-6.81-4.94-1.74-.56-3.55-.92-5.13-1.13,0,0-.02,0-.04,0t-.02,0c-.08-.02-.25-.09-.49-.26h0c-.42-.31-1.07-.97-1.86-2.35-.96-1.69-4.89-2.71-8.86-3.35l.16-.9c-5.35-.64-16.68-18.17-16.68-18.17.4-.38.74-.73,1.02-1.04,1.34.9,2.63,1.54,3.45,1.4h0c.12-.03.23-.07.34-.14,7.92-3.08,7.52.25,10.14-3.86l.94-.96Z"/>
    <path class="cls-11" d="m186.47,88.28l-.11.05-14.81,1.15c-.79-1.11-1.53-2.17-2.24-3.2-.42-.63-.83-1.24-1.22-1.83l13.66-3.31c1.33,1.88,6.08-1.88,9.73-1.99,3.66-.1,12.28,5.31,14.94,6.19.84.28,2.57,1.19,4.54,2.43l-1.15,7.16c-.31-.19-.61-.35-.88-.44-2.87-1.03-11.94-.11-19.17,1.65l-3.27-7.88Z"/>
    <path class="cls-4" d="m190.92,132.1c6.49-.15,24.34-2.95,27.72,3.39-1.77,3.54-11.5,8.26-17.54,7.68-6.05-.6-10.18-3.4-10.18-3.4-3.83-5.9-6.49-7.52,0-7.67Z"/>
    <path class="cls-11" d="m186.47,88.28l3.27,7.88c-2.09.51-4.03,1.09-5.61,1.72-4.54-1.36-8.07-2.38-8.07-2.38-1.63-2.05-3.14-4.08-4.51-6l14.81-1.15.11-.05Z"/>
    <path class="cls-4" d="m187.83,139.92s1.07,2.06-3.01,1.47-6.28-2.06-6.28-2.06l2.48-4.35c2.96.95,5.73,2.5,6.81,4.94Z"/>
    <path class="cls-7" d="m168.08,84.46c.39.59.8,1.2,1.22,1.83l-1.6,1.5c-1.54,2.63-3.57,5.15-4.79,7.62-3.26-1.99-7.32-8.18-11.2-11.89h0v-11.21l.86,2.95,2.88-1.29-1.91-5.51-.14-2.78,3.33-2.9-1.91-3.15-2.72,2.48h-.08l.55-21.96c6.45,8.46,17.54,20.98,18.52,26.8,1.4,8.33,9.33,12.35,10.66,14.23l-13.66,3.31Z"/>
    <path class="cls-4" d="m181.02,134.98l-2.48,4.35-6.05-.74s2.04-2.95,2.77-4.83c.18.03.37.05.56.07t.02,0s.04,0,.04,0c1.58.22,3.39.57,5.13,1.13Z"/>
    <path class="cls-7" d="m175.34,133.56h0c-.03.07-.05.13-.08.2-1.61-.18-2.9-.23-3.51-.18-2.22.15-7.11,2.62-10.62,5.18-11.08-3.08-21.47-20.75-22.21-22.06,1.39-1.17,3.31-2.75,5.15-4.32h0c.5.91,10.11,14.28,15.06,14.79,1.61.17,3.55.39,5.48.7,3.98.64,7.9,1.66,8.86,3.35.79,1.38,1.44,2.04,1.86,2.34Z"/>
    <path class="cls-4" d="m175.26,133.76c-.73,1.89-2.77,4.83-2.77,4.83-3.99,2.95-7.23,7.96-13.71,2.8-.1-.1-.22-.21-.33-.29,0,0,2.06-1.88,2.69-2.34,3.51-2.56,8.4-5.03,10.62-5.18.61-.04,1.9,0,3.51.18Z"/>
    <path class="cls-7" d="m164.77,126.96l-.16.9c-1.92-.31-3.86-.53-5.48-.7-4.95-.51-14.55-13.88-15.06-14.78h0c1.49-1.27,2.94-2.54,4.02-3.59,0,0,11.32,17.53,16.68,18.17Z"/>
    <path class="cls-11" d="m143.91,90.1c-.43-.71-.8-1.31-1.07-1.77-2.12-3.68-7.67-4.6-14.6-5.19.5-.51,1.01-1.16,1.52-1.92h0c5.74-.13,13.51-2.31,18.32-.28.22.09.42.18.62.29.98.51,1.98,1.31,3,2.28h0c3.88,3.72,7.94,9.9,11.2,11.89-1.24,2.51-1.64,4.98.14,7.5.33.47.64.9.94,1.29l-.94.96c-2.62,4.12-2.22.79-10.14,3.86.35-.2.55-.64.55-1.4,0-1.65-2.95-6.77-5.81-11.46-1.39-2.27-2.75-4.44-3.74-6.06Z"/>
    <path class="cls-7" d="m119.6,118.14c-3.25-4.75-5.62-10.49-6.4-12.98l.02-.1c-5.15-.72-11.02-4.96-14.49-7.81,2.26-4.57,4.46-9.54,6.15-13.82l6.42,1.38s3.56,2.88,6.77,3.5c-.32,3.28-.25,6.84.16,10,.12.94.45,2.23.94,3.71.36,1.14.82,2.42,1.34,3.73,1.46,3.68,3.38,7.78,5.2,10.88,1.44,2.48,2.82,4.31,3.84,4.79,3.32,1.55,5.93-1.64,7.63-3.21.36-.33.97-.86,1.75-1.5.75,1.31,11.13,18.98,22.21,22.06-.62.46-2.69,2.34-2.69,2.34-2.3-1.9-6.31-1.77-6.31-1.77-.29-5.31-7.81.29-10.45,2.08-.75-.4-1.32-.7-1.65-.71-1.03-.04-3.79.99-7.21,2.32-.95.37-1.86.49-2.71.43-.77-.79-4.01-4.14-6.57-7.36-.51-.64-1.01-1.01-1.51-1.18.59-4.12-3.83-15.49-3.83-15.49l1.38-1.28Z"/>
    <path class="cls-4" d="m154.81,59.61l1.91,3.15-3.33,2.9-.02-.37c-.03-.64-.57-1.14-1.22-1.11h-.2s0-.08,0-.08l.05-2.02h.08l2.72-2.48Z"/>
    <path class="cls-4" d="m153.54,68.45l1.91,5.51-2.88,1.29-.86-2.95v-2.19l-.02-.29.75-.03c.64-.03,1.13-.58,1.11-1.22v-.11Z"/>
    <path class="cls-4" d="m153.54,68.45v.11c.03.64-.46,1.19-1.1,1.22l-.75.03-3.6.17-.68.03c-.65.03-1.2-.46-1.22-1.11l-.16-3.27c-.03-.64.47-1.19,1.11-1.22l1-.05,3.84-.18h.2c.65-.04,1.2.46,1.22,1.1l.02.37.14,2.78Z"/>
    <path class="cls-11" d="m153.47,107.62c0,.76-.21,1.2-.55,1.4-.11.04-.23.09-.34.14h0c-.82.14-2.11-.5-3.45-1.4-.34-.23-.68-.48-1.02-.73l-2.59-1.91s-4.44-5.26-4.63-7.75c2.76-.52,6.78-1.2,6.78-1.2,2.86,4.69,5.81,9.82,5.81,11.46Z"/>
    <path class="cls-4" d="m148.49,45.73l.22-9.68c.16-.23.33-.48.48-.72.81,1.33,1.98,2.97,3.38,4.79l-.55,21.96-.05,2.02v.09l-3.84.18-.03-.59.4-18.05Z"/>
    <path class="cls-9" d="m151.87,18.77c.24,4.54-.03,9.08-.47,11.14-.29,1.4-.92,3.17-1.85,4.82l-1.46-1.04c-3.83-1.47-3.99-5.02-3.99-5.02l-.13-1c.94-.11,2.02-.59,2.11-1,.09-.36-.37-4.57-.75-7.76l1.72-.05s2.43-.89,3.32,0l1.5-.09Z"/>
    <path class="cls-9" d="m122.08,26.02c.07-1.46.21-4.76-.03-2.89-.1.76-.11,1.74.03,2.89Zm23.26-7.11c.38,3.19.84,7.4.75,7.76-.1.41-1.17.88-2.11,1l.13,1s.16,3.54,3.99,5.02l1.46,1.04c-.12.21-.24.42-.37.62-.15.24-.31.49-.48.72-.78,1.1-1.71,2.06-2.76,2.69-.52.32-1.2.58-1.97.8-2,.55-4.64.73-6.93.49-.86-.08-1.66-.23-2.37-.42l-.13.6c-1.11,1.15-2.5,1.99-3.69,2.56l.05.11c-.19,1.59-2.56,8.15-5.59,13.9-1.5-2.3-7.56-20.56-10.4-29.62,1.19-1.78,1.3-3.13,1.31-3.45-.49-1.66-.36-3.98.08-6.19.74-3.68,1.96-3.3,3.27-3.53.27-1.65.86-3.05,1.62-4.36,1.07-1.85,2.44-3.53,3.64-5.48,2.04-3.35,11.96-4.61,17.56-2.84,5.6,1.77,8.12,6.93,9,12.68.23,1.52.38,3.15.47,4.78l-1.5.09c-.89-.89-3.32,0-3.32,0l-1.72.05Z"/>
    <path class="cls-4" d="m151.71,72.31v11.2c-1.01-.97-2.02-1.77-3-2.28-.2-.1-.4-.2-.62-.29v-10.95s3.6-.17,3.6-.17l.02.29v2.19Z"/>
    <path class="cls-4" d="m141.69,141.41c2.63-1.78,10.15-7.39,10.45-2.08,0,0-.74,4.46-4.28,4.3-2.38-.11-4.63-1.39-6.17-2.22Z"/>
    <path class="cls-11" d="m132.44,113.44c1.59-.86,3.25-1.86,4.73-2.96,1.51-1.1,2.82-2.3,3.69-3.55l-3.8-8.47h0c.65-.28,1.15-.52,1.33-.58.25-.09,1.24-.29,2.48-.51.2,2.5,4.63,7.75,4.63,7.75l2.59,1.91c.34.25.68.49,1.02.73-.29.31-.62.66-1.02,1.04-1.08,1.05-2.53,2.31-4.02,3.58-1.85,1.58-3.76,3.15-5.15,4.32-.78.64-1.39,1.17-1.75,1.5-1.7,1.58-4.31,4.76-7.63,3.21-1.01-.48-2.4-2.31-3.84-4.79,0,0,3.19-1.24,6.74-3.18Z"/>
    <path class="cls-4" d="m148.71,36.06l-.22,9.68-6.53,3.72-.29-.08c1.51-5.47,2.43-9.34,2.43-9.34l-.13-.49c.77-.22,1.45-.48,1.97-.8,1.06-.63,1.98-1.59,2.76-2.69Z"/>
    <path class="cls-7" d="m148.49,45.73l-.4,18.05.03.59-1,.05c-.64.03-1.13.58-1.11,1.22l.16,3.27c.03.65.57,1.14,1.22,1.11l.68-.03v.12s0,10.83,0,10.83c-4.82-2.04-12.58.15-18.32.29h0c3.17-4.71,6.45-13.75,9.07-22.16,1.07-3.45,2.04-6.79,2.84-9.69l.29.08,6.53-3.72Z"/>
    <path class="cls-9" d="m140.87,97.36c-1.24.23-2.23.42-2.48.51-.18.06-.68.3-1.33.57h0c-1.2.5-2.9,1.12-4.1.95-1.04-.14-2.92.17-3.35-.03-.62-.16-.94-1-.16-1.56.54-.38,1.57-.63,2.17-.76-.73.11-2.17.32-3.22.25-.47-.03-.77-.21-.94-.45-.36-.47-.22-1.18.19-1.44.66-.43,4.06-.55,4.06-.55,0,0-1.19.02-2.55.05-.68.02-1.32,0-2.02.07-.53.05-.65-1.96.3-2.11,1.26-.2,3.41-.42,3.64-.44,0,0-.72-.21-1.89-.1-1.18.11-1.39.13-1.39-.47-.02-.59.24-1.23,1.72-1.44s5.35-.36,5.35-.36c-.07-.03-.25-.08-.68-.19-.7-.2-1.78-.14-2.29-.14-.88,0-1.14-.68-.62-1.39.17-.24.45-.49.82-.72,1.45-.88,2.67-.1,4.17.3,1.42.37,3.48,2.24,7.65,2.18,1,1.62,2.36,3.79,3.74,6.06,0,0-4.02.68-6.78,1.2Z"/>
    <path class="cls-4" d="m143.98,39.55l.13.49s-.93,3.87-2.43,9.34c-.81,2.9-1.77,6.25-2.84,9.69l-10.35.96c3.91-8.79,8.57-20,8.57-20,2.29.24,4.93.06,6.93-.49Z"/>
    <path class="cls-11" d="m143.91,90.1c-4.17.06-6.23-1.81-7.65-2.18-1.5-.4-2.72-1.18-4.17-.3-.37.23-.65.48-.82.72h-13.05c-.05,0-.11-.02-.16-.03.22-2.23.62-4.33,1.2-6.11,1.73.79,3.99,1.36,6.79,1.21.7-.03,1.43-.12,2.2-.26,6.93.59,12.48,1.51,14.6,5.19.27.46.63,1.06,1.07,1.77Z"/>
    <path class="cls-11" d="m137.17,110.48c-1.48,1.1-3.14,2.11-4.73,2.96-.17-.23-.68-.92-2.14-2.92-2.23-3.03-5.62-5.26-9.8-4.78-.52-1.32-.98-2.59-1.34-3.73,3-.16,8.29-5.15,8.29-5.15.17.24.48.42.94.45,1.05.07,2.5-.14,3.22-.25-.6.13-1.63.38-2.17.76-.79.56-.46,1.4.16,1.56.43.2,2.31-.11,3.35.03,1.2.16,2.9-.45,4.1-.94l3.8,8.47c-.87,1.25-2.18,2.45-3.69,3.55Z"/>
    <path class="cls-7" d="m128.48,60.03l10.35-.96c-2.63,8.41-5.9,17.45-9.07,22.15-.5.76-1.01,1.41-1.52,1.92-.77.14-1.5.23-2.2.26h0s-.73-15.16-.73-15.16l-.54-.29c.96-1.9,2.28-4.76,3.69-7.93h0Z"/>
    <path class="cls-4" d="m134.68,39.61c.71.2,1.52.35,2.37.42,0,0-4.66,11.2-8.57,20h0c-1.41,3.17-2.73,6.03-3.69,7.93-.52,1.03-.94,1.78-1.22,2.16h0c.06-.21.04-.43-.08-.62-.28-.42-1.31-2.29-2.67-3.16-.23-.16-.57-.19-.95-.16l-.16-1.39c1.91-1.66,3.87-4.7,5.62-8.01,3.03-5.74,5.4-12.31,5.59-13.9l-.05-.11c1.19-.57,2.58-1.41,3.69-2.56l.13-.6Z"/>
    <path class="cls-11" d="m134.18,89.87c.42.11.61.16.68.19,0,0-3.87.16-5.35.36s-1.73.85-1.72,1.44c0,.6.22.58,1.39.47,1.17-.11,1.89.1,1.89.1-.23.03-2.38.24-3.64.44-.95.16-.83,2.17-.3,2.11.7-.08,1.34-.05,2.02-.07,1.36-.03,2.55-.05,2.55-.05,0,0-3.4.12-4.06.55-.41.26-.55.97-.19,1.44,0,0-5.29,4.99-8.29,5.15-.49-1.48-.81-2.77-.94-3.71-.42-3.16-.49-6.71-.16-10,.05.02.11.03.16.03h13.05c-.52.71-.25,1.39.62,1.39.5,0,1.59-.06,2.29.14Z"/>
    <path class="cls-11" d="m130.3,110.52c1.46,2,1.97,2.69,2.14,2.92-3.55,1.94-6.74,3.18-6.74,3.18-1.82-3.1-3.74-7.2-5.2-10.88,4.18-.48,7.57,1.75,9.8,4.78Z"/>
    <path class="cls-4" d="m123.56,136.09c2.56,3.22,5.8,6.58,6.57,7.36-2.2-.11-4.03-1.33-5.28-2.06-1.75-1.18-3.67-.44-7.65.29-1.05.19-2.06.27-3.01.23,3.18-3.87,5.54-7.77,7.88-7.01.49.16,1,.54,1.51,1.18Z"/>
    <path class="cls-7" d="m126.05,83.4h0c-2.81.16-5.06-.42-6.79-1.2h0s.33-4.12.33-4.12c.32-.07.68-.46.89-1.18.22-.76-.28-1.94-.28-1.94l-2.96-1.48.16-.29,2.36.58c1.12.09.92-1.01.93-1.04l-2.4-1.14.07-.23s1.64.48,2.39.75c.55.2,1-.55.54-1.06-.42-.46-2.91-1.48-2.91-1.48l1.99-1.24s.94,1.33,1.77,2.17c.62.62,1.28.17,1.42-.38h0c.28-.37.7-1.13,1.22-2.16l.54.29.73,15.15Z"/>
    <path class="cls-9" d="m123.47,69.5c.12.18.14.41.08.62-.14.55-.8,1-1.42.38-.83-.84-1.77-2.17-1.77-2.17l-1.99,1.24s2.49,1.02,2.91,1.48c.47.51.02,1.26-.54,1.06-.75-.28-2.39-.75-2.39-.75l-.07.23,2.4,1.14s.19,1.13-.93,1.04l-2.36-.58-.16.29,2.96,1.48s.49,1.18.28,1.94c-.21.72-.57,1.11-.89,1.18-.36.1-.64-.23-.55-.94.1-.77-.28-1.34-.78-1.51-.49-.16-1.44.26-1.44.26-.61,1.25-1.3,2.18-2.03,2.86-1.52,1.44-3.14,1.79-4.24,1.69-1.62-.15-4.56,0-4.56,0,1.33-3.64,2.09-6.44,1.91-7.47h.03c4.38-1.39,6.93-3.98,8.77-5.53.5-.42,2.02-1.16,3.14-1.26.38-.03.72,0,.95.16,1.36.88,2.39,2.75,2.67,3.16Z"/>
    <path class="cls-4" d="m125.32,56.78c-1.75,3.31-3.72,6.34-5.62,8.01,0,0-4.9-13.2-4.9-19.03,0-3.12-.49-12.9-.94-22.11.25.88.62,2.08,1.07,3.51,2.83,9.06,8.9,27.32,10.4,29.62Z"/>
    <path class="cls-7" d="m95.88,102.91c.55-1.11,1.14-2.32,1.85-3.69.33-.65.67-1.31,1-1.98,3.47,2.86,9.35,7.1,14.49,7.81l-.02.1c.78,2.49,3.15,8.23,6.4,12.98l-1.38,1.28s4.42,11.37,3.83,15.49c-2.34-.76-4.7,3.14-7.88,7.01-2.68-.06-4.9-.88-6.24-1.85-.91-.67-.95-.72-1.39-.5-.44-1.31-1.69-4.71-3.22-6.08-1.91-1.72-4.87,3.34-7.13,8.72-1.15.19-2.27.21-3.64-.08-.53-.11-1.13-.18-1.79-.22l.03-.5c-.15-3.08-2.06-8.27-6.49-7.83,9.29-4.42,17.53-10.91,17.53-10.91l.02-.06c-3.1-.74-5.59-2.32-7.75-4.12-2.02-1.7-3.74-3.59-5.37-5.13,3.75-3.79,5.15-6.45,7.15-10.45Z"/>
    <path class="cls-7" d="m105.82,70.78c-1.82-2.17-2.74-7.85-3.6-10.2-.88-2.43,0-36.94,0-36.94l-2.37-.98c.6-.17,1.22-.4,1.86-.72,4.12-2.06,7.23-6.71,11.5-11.44-.07,2.37.27,5.14.65,13.13h0c.44,9.22.94,19,.94,22.12,0,5.82,4.9,19.03,4.9,19.03l.16,1.39c-1.13.1-2.64.85-3.14,1.26-1.84,1.55-4.38,4.13-8.77,5.53h-.03c-.04-.3-.17-.46-.38-.44-.69.04-2.09-.37-3.82-1l2.11-.75Z"/>
    <path class="cls-7" d="m121.2,9.63c-.76,1.31-1.35,2.7-1.62,4.36-1.32.23-2.54-.15-3.27,3.53-.44,2.22-.56,4.53-.08,6.19,0,.32-.12,1.66-1.31,3.45-.44-1.43-.81-2.63-1.07-3.51h0c-.38-8.01-.72-10.78-.65-13.14,4.21-4.64,5.7-2.51,8-.88Z"/>
    <path class="cls-7" d="m119.58,78.08l-.33,4.11c-3.03-1.39-4.46-3.44-4.46-3.44.73-.68,1.42-1.61,2.03-2.86,0,0,.94-.42,1.44-.26.5.16.88.74.78,1.51-.1.72.19,1.04.55.94Z"/>
    <path class="cls-7" d="m119.25,82.18h0c-.58,1.78-.98,3.89-1.2,6.12-3.21-.62-6.77-3.5-6.77-3.5l-6.42-1.38c.41-1.05.79-2.04,1.13-2.99,0,0,2.94-.15,4.56,0,1.1.1,2.72-.25,4.24-1.69,0,0,1.43,2.05,4.46,3.44Z"/>
    <path class="cls-7" d="m104.87,83.42c-1.69,4.28-3.89,9.25-6.15,13.82-.33.67-.67,1.33-1,1.98-.7,1.37-1.3,2.58-1.85,3.69-1.99,4-3.4,6.66-7.15,10.45-2.76,2.8-6.8,6.2-13.27,11.23-8.66,6.71-14.88,10.49-19.47,12.69-1.15.45-1.9.84-2.07.93-.03,0-.03.02-.03.02-.46.2-.9.37-1.33.54h0c-2.86,1.1-4.89,1.47-6.44,1.75-4.13.74-7.97-.44-7.68-8.4.16-4.36-1.26-8.72.63-13.94,1.56-4.32,5.39-9.24,14.27-15.26,13.54-9.17,14.53-10.44,14.58-10.58l.46.33c2.19-3.05,4.31-6.19,6.64-9.81,3.89-6.05,7.16-10.42,10.02-12.98,2.02-1.81,3.82-2.71,5.47-2.65,2.82.1,9,2.8,13.21,4.31,1.73.62,3.13,1.04,3.82,1,.21-.02.34.14.38.44.17,1.03-.59,3.83-1.91,7.47-.34.94-.72,1.94-1.13,2.99Z"/>
    <path class="cls-7" d="m105.82,70.78l-2.11.75c-4.21-1.51-10.39-4.2-13.21-4.31-1.65-.06-3.45.84-5.47,2.65l-1.39-1.77-18.36-8.63-1.91-.05c.99-1.13,1.98-2.31,2.95-3.56,5.16-6.64,17.4-23.15,22.86-28.46,4.61-4.48,7.42-3.82,10.67-4.74l2.37.98s-.88,34.51,0,36.94c.86,2.35,1.78,8.03,3.6,10.2Z"/>
    <path class="cls-4" d="m106.55,139.56c-.42.23-1.24.71-3.66,1.13-3,.52-4.87,1.22-6.69,1.51,2.26-5.38,5.22-10.45,7.13-8.72,1.53,1.37,2.78,4.77,3.22,6.08Z"/>
    <path class="cls-7" d="m101.85,122.61l-.02.06s-8.24,6.49-17.53,10.91c-4.43.44-8.26,8.63-8.26,8.63l-2.2-.08c-.31-.28-.58-.55-.82-.81-2.98-3.21-2.16-5.97-7.74-5.97-3.73,0-7.18,1.09-9.29,1.93,4.58-2.2,10.8-5.98,19.47-12.69,5.16,1.91,15.9-3.69,17.6-5.16l1.04-.94c2.16,1.8,4.64,3.39,7.75,4.12Z"/>
    <path class="cls-7" d="m94.1,118.48l-1.04.94c-1.71,1.47-12.44,7.08-17.6,5.16,6.47-5.02,10.51-8.43,13.27-11.23,1.63,1.54,3.35,3.43,5.37,5.13Z"/>
    <path class="cls-4" d="m90.8,141.41l-.03.5c-3.69-.23-9.02.49-12.66.36-.85-.03-1.52-.05-2.07-.07,0,0,3.84-8.19,8.26-8.63s6.34,4.75,6.49,7.83Z"/>
    <path class="cls-7" d="m67.92,92.33c-.05.14-1.04,1.41-14.58,10.58-1.52-4.85-.55-18.51.55-26.57.07-.45.13-.88.19-1.3.95-6.35,5.03-10.66,9.29-15.61l1.91.05,18.36,8.63,1.39,1.77c-2.85,2.56-6.13,6.93-10.02,12.98-2.32,3.61-4.44,6.76-6.64,9.81l-.46-.33Z"/>
    <path class="cls-4" d="m73.02,141.31h0c-3.43.66-19.99-2.47-20.45-2.56.42-.16.87-.34,1.33-.54,0,0,0,0,.03-.02.65-.27,1.33-.58,2.07-.93,2.11-.84,5.56-1.93,9.29-1.93,5.58,0,4.76,2.76,7.74,5.97Z"/>
    <path class="cls-10" d="m53.89,76.33c-1.1,8.07-2.07,21.72-.55,26.57-8.88,6.01-12.71,10.93-14.27,15.26l-.19-.07c-9.14.74-10.17-6.19-10.76-12.68s-.15-13.27,5.31-19.61c5.45-6.34,14.75-7.96,20.45-9.46Z"/>
  </g>
  <path class="cls-2" d="m52.55,138.75c-2.86,1.1-4.89,1.47-6.44,1.75-4.13.74-7.97-.44-7.68-8.4.16-4.36-1.26-8.72.63-13.94,1.56-4.32,5.39-9.24,14.27-15.26,13.54-9.17,14.53-10.44,14.58-10.58.02-.03.02-.03.02-.04"/>
  <path class="cls-2" d="m53.89,138.22c-.46.2-.9.37-1.33.54"/>
  <path class="cls-2" d="m53.93,111.16c6.13-7.48,10.4-12.84,14.45-18.51,2.19-3.05,4.31-6.19,6.64-9.81,3.89-6.05,7.16-10.42,10.02-12.98,2.02-1.81,3.82-2.71,5.47-2.65,2.82.1,9,2.8,13.21,4.31,1.73.62,3.13,1.04,3.82,1,.21-.02.34.14.38.44.17,1.03-.59,3.83-1.91,7.47-.34.94-.72,1.94-1.13,2.99-1.69,4.28-3.89,9.25-6.15,13.82-.33.67-.67,1.33-1,1.98-.7,1.37-1.3,2.58-1.85,3.69-1.99,4-3.4,6.66-7.15,10.45-2.76,2.8-6.8,6.2-13.27,11.23-8.66,6.71-14.88,10.49-19.47,12.69-.74.35-1.42.66-2.07.93"/>
  <path class="cls-2" d="m107.94,72.96c4.38-1.39,6.93-3.98,8.77-5.53.5-.42,2.02-1.16,3.14-1.26.38-.03.72,0,.95.16,1.36.88,2.39,2.75,2.67,3.16.12.18.14.41.08.62-.14.55-.8,1-1.42.38-.83-.84-1.77-2.17-1.77-2.17l-1.99,1.24s2.49,1.02,2.91,1.48c.47.51.02,1.26-.54,1.06-.75-.28-2.39-.75-2.39-.75l-.07.23,2.4,1.14s.19,1.13-.93,1.04l-2.36-.58-.16.29,2.96,1.48s.49,1.18.28,1.94c-.21.72-.57,1.11-.89,1.18-.36.1-.64-.23-.55-.94.1-.77-.28-1.34-.78-1.51-.49-.16-1.44.26-1.44.26-.61,1.25-1.3,2.18-2.03,2.86-1.52,1.44-3.14,1.79-4.24,1.69-1.62-.15-4.56,0-4.56,0"/>
  <path class="cls-2" d="m137.06,98.44c.65-.27,1.15-.51,1.33-.57.25-.09,1.24-.29,2.48-.51,2.76-.52,6.78-1.2,6.78-1.2"/>
  <path class="cls-2" d="m131.62,97.05c-.6.13-1.63.38-2.17.76-.79.56-.46,1.4.16,1.56.43.2,2.31-.11,3.35.03,1.2.16,2.9-.45,4.1-.94"/>
  <path class="cls-2" d="m132.09,96.96s-.03,0-.08.02"/>
  <path class="cls-2" d="m131.78,97.01c.1-.02.17-.03.23-.03"/>
  <path class="cls-2" d="m131.78,97.01c-.05,0-.1.03-.16.03"/>
  <path class="cls-2" d="m134.86,90.06s-3.87.16-5.35.36-1.73.85-1.72,1.44c0,.6.22.58,1.39.47,1.17-.11,1.89.1,1.89.1-.23.03-2.38.24-3.64.44-.95.16-.83,2.17-.3,2.11.7-.08,1.34-.05,2.02-.07,1.36-.03,2.55-.05,2.55-.05,0,0-3.4.12-4.06.55-.41.26-.55.97-.19,1.44.17.24.48.42.94.45,1.05.07,2.5-.14,3.22-.25"/>
  <path class="cls-2" d="m144.08,90.1h-.17c-4.17.06-6.23-1.81-7.65-2.18-1.5-.4-2.72-1.18-4.17-.3-.37.23-.65.48-.82.72-.52.71-.25,1.39.62,1.39.5,0,1.59-.06,2.29.14.42.11.61.16.68.19h.04"/>
  <path class="cls-2" d="m121.2,9.63c-2.3-1.63-3.79-3.76-8,.88-4.27,4.72-7.37,9.37-11.5,11.44-.64.32-1.26.55-1.86.72-3.25.92-6.06.26-10.67,4.74-5.46,5.31-17.7,21.82-22.86,28.46-.97,1.25-1.96,2.43-2.95,3.56-4.25,4.96-8.33,9.26-9.29,15.61-.06.42-.12.85-.19,1.3-1.1,8.07-2.07,21.72-.55,26.57"/>
  <path class="cls-2" d="m53.89,76.33c-5.71,1.5-15.01,3.12-20.45,9.46-5.46,6.34-5.9,13.13-5.31,19.61s1.62,13.42,10.76,12.68"/>
  <line class="cls-2" x1="75.24" y1="49.52" x2="88.73" y2="66.17"/>
  <line class="cls-2" x1="65.28" y1="59.48" x2="83.64" y2="68.1"/>
  <path class="cls-2" d="m94.93,63.79l-11.29-20.24,9.3-2.88s0,3.09,1.99,8.85"/>
  <path class="cls-2" d="m102.22,23.64s-.88,34.51,0,36.94c.86,2.35,1.78,8.03,3.6,10.2.06.07.12.14.18.2"/>
  <path class="cls-2" d="m113.86,23.65c.25.88.62,2.08,1.07,3.51,2.83,9.06,8.9,27.32,10.4,29.62"/>
  <path class="cls-2" d="m130.91,42.88c-.19,1.59-2.56,8.15-5.59,13.9-1.75,3.31-3.72,6.34-5.62,8.01,0,0-4.9-13.2-4.9-19.03,0-3.12-.49-12.9-.94-22.11h0c-.38-8.01-.72-10.78-.65-13.14"/>
  <path class="cls-2" d="m128.25,43.77s1.15-.3,2.61-1c1.19-.57,2.58-1.41,3.69-2.56"/>
  <path class="cls-2" d="m122.08,26.03c.3,2.43,1.32,5.65,3.81,9.23"/>
  <path class="cls-2" d="m122.08,26.02c.07-1.46.21-4.76-.03-2.89-.1.76-.11,1.74.03,2.89Z"/>
  <line class="cls-2" x1="122.08" y1="26.02" x2="122.08" y2="26.03"/>
  <path class="cls-2" d="m132.84,38.75c.46.36,1.09.64,1.84.86.71.2,1.52.35,2.37.42,2.29.24,4.93.06,6.93-.49.77-.22,1.45-.48,1.97-.8,1.06-.63,1.98-1.59,2.76-2.69.16-.23.33-.48.48-.72.13-.2.25-.41.37-.62.93-1.65,1.55-3.41,1.85-4.82.43-2.06.71-6.6.47-11.14-.09-1.63-.23-3.27-.47-4.78-.88-5.75-3.4-10.92-9-12.68-5.6-1.77-15.52-.51-17.56,2.84-1.2,1.96-2.57,3.63-3.64,5.48-.76,1.31-1.35,2.7-1.62,4.36-1.32.23-2.54-.15-3.27,3.53-.44,2.22-.56,4.53-.08,6.19.31,1.11.9,1.92,1.85,2.22,2.36.74,3.98.74,3.98.74,0,0,0-.26.03-.64"/>
  <path class="cls-2" d="m119.58,13.98c1.23-.3,4.21,1.33,4,2.65"/>
  <path class="cls-2" d="m130.32,13.39s3.24-3.84,7.08-2.66"/>
  <path class="cls-2" d="m144.92,10.51s4.12,0,4.27,1.45"/>
  <path class="cls-2" d="m144.92,15.31s.2,1.59.42,3.6c.38,3.19.84,7.4.75,7.76-.1.41-1.17.88-2.11,1-.44.05-.86.03-1.13-.11"/>
  <path class="cls-2" d="m132.09,18.85s3.99-2.51,7.96-1.48"/>
  <path class="cls-2" d="m147.06,18.85s2.43-.89,3.32,0"/>
  <path class="cls-2" d="m139.02,32.57s2.95-.59,5.9,0"/>
  <path class="cls-3" d="m141.32,28.62c-.27,1.21-.99,2.3-1.99,3.06-.5.38-1.04.9-1.72.9-.66.03-1.34-.14-1.91-.68-.05-.05-.06-.14,0-.19.28-.3.54-.49.77-.65.63-.54,1.29-.59,2.07-.76.47-.16.92-.4,1.36-.69.46-.28.87-.66,1.25-1.07.06-.08.2,0,.18.09h0Z"/>
  <path class="cls-3" d="m145.01,28.89c.69.82,1.58,1.46,2.54,1.85,1.27.26,1.84.51,2.78,1.52.05.06.05.15,0,.2-1.21,1.03-2.64.68-3.62-.36-.97-.79-1.66-1.92-1.88-3.13-.02-.1.13-.16.19-.07h0Z"/>
  <path class="cls-2" d="m128.47,60.03c-1.41,3.17-2.73,6.03-3.69,7.93-.52,1.03-.94,1.78-1.22,2.16"/>
  <path class="cls-2" d="m137.05,40.03s-4.66,11.2-8.57,20"/>
  <path class="cls-2" d="m152.57,109.16c-.82.14-2.11-.5-3.45-1.4-.34-.23-.68-.48-1.02-.73l-2.59-1.91s-4.44-5.26-4.63-7.75c0-.04,0-.09,0-.12"/>
  <path class="cls-2" d="m144.11,40.03s-.93,3.87-2.43,9.34c-.81,2.9-1.77,6.25-2.84,9.69-2.63,8.41-5.9,17.45-9.07,22.15-.5.76-1.01,1.41-1.52,1.92,6.93.59,12.48,1.51,14.6,5.19.27.46.63,1.06,1.07,1.77,1,1.62,2.36,3.79,3.74,6.06,2.86,4.69,5.81,9.82,5.81,11.46,0,.76-.21,1.2-.55,1.4-.1.07-.22.11-.34.14"/>
  <path class="cls-2" d="m219.02,112.38c-.22,1.83-.37,3.06-.37,3.06v9.88s1.78,6.64,0,10.17c-1.77,3.54-11.5,8.26-17.54,7.68-6.05-.6-10.18-3.4-10.18-3.4l-3.09.15s1.07,2.06-3.01,1.47-6.28-2.06-6.28-2.06l-6.05-.74c-3.99,2.95-7.23,7.96-13.71,2.8-.1-.1-.22-.21-.33-.29-2.3-1.9-6.31-1.77-6.31-1.77,0,0-.74,4.46-4.28,4.3-2.38-.11-4.63-1.39-6.17-2.22-.75-.4-1.32-.7-1.65-.71-1.03-.04-3.79.99-7.21,2.32-.95.37-1.86.49-2.71.43-2.2-.11-4.03-1.33-5.28-2.06-1.75-1.18-3.67-.44-7.65.29-1.05.19-2.06.27-3.01.23-2.68-.06-4.9-.88-6.24-1.85-.91-.67-.95-.72-1.39-.5-.42.23-1.24.71-3.66,1.13-3,.52-4.87,1.22-6.69,1.51-1.15.19-2.27.21-3.64-.08-.53-.11-1.13-.18-1.79-.22-3.69-.23-9.02.49-12.66.36-.85-.03-1.52-.05-2.07-.07l-2.2-.08c-.31-.28-.58-.55-.82-.81-2.98-3.21-2.16-5.97-7.74-5.97-3.73,0-7.18,1.09-9.29,1.93-1.15.45-1.9.84-2.07.93-.03,0-.03.02-.03.02"/>
  <path class="cls-2" d="m149.19,35.34c.81,1.33,1.98,2.97,3.38,4.79,6.45,8.46,17.54,20.98,18.52,26.8,1.4,8.33,9.33,12.35,10.66,14.23s6.08-1.88,9.73-1.99c3.66-.1,12.28,5.31,14.94,6.19.84.28,2.57,1.19,4.54,2.43,4.21,2.64,9.5,6.79,9.5,9.51,0,1.72-.33,5.31-.72,8.85-.24,2.27-.5,4.52-.72,6.23"/>
  <path class="cls-2" d="m52.55,138.75h0c.46.09,17.02,3.21,20.45,2.56"/>
  <path class="cls-2" d="m76.04,142.2s3.84-8.19,8.26-8.63,6.34,4.75,6.49,7.83"/>
  <path class="cls-2" d="m96.2,142.2c2.26-5.38,5.22-10.45,7.13-8.72,1.53,1.37,2.78,4.77,3.22,6.08"/>
  <path class="cls-2" d="m114.18,141.92c3.18-3.87,5.54-7.77,7.88-7.01.49.16,1,.54,1.51,1.18,2.56,3.22,5.8,6.58,6.57,7.36"/>
  <path class="cls-2" d="m84.31,133.57c9.29-4.42,17.53-10.91,17.53-10.91"/>
  <path class="cls-2" d="m75.46,124.58c5.16,1.91,15.9-3.69,17.6-5.16"/>
  <path class="cls-2" d="m88.73,113.35c1.63,1.54,3.35,3.43,5.37,5.13,2.16,1.8,4.64,3.39,7.75,4.12,2.65.62,5.74.62,9.44-.41"/>
  <path class="cls-2" d="m118.22,119.42s4.42,11.37,3.83,15.49"/>
  <path class="cls-2" d="m98.72,97.24c3.47,2.86,9.35,7.1,14.49,7.81.81.11,1.59.14,2.36.06"/>
  <path class="cls-2" d="m113.2,105.16c.78,2.49,3.15,8.23,6.4,12.98,1.7,2.48,3.64,4.69,5.72,6"/>
  <path class="cls-2" d="m95.88,102.91s4.31,3.98,5.95,5.15c1.65,1.19-.47,2.63-.37,5.29.1,2.68,2.57,2.78,5.68,4.79"/>
  <path class="cls-2" d="m103.91,115.59c3.4-1.19,5.32-2.94,6.06-6.41"/>
  <path class="cls-2" d="m138.87,116.62l.05.08c.75,1.31,11.13,18.98,22.21,22.06"/>
  <path class="cls-2" d="m130.91,121.83s7.08,8.65,9.95,10.27"/>
  <path class="cls-2" d="m141.69,141.41c2.63-1.78,10.15-7.39,10.45-2.08"/>
  <path class="cls-2" d="m175.83,133.83c-.19-.02-.38-.04-.56-.07-1.61-.18-2.9-.23-3.51-.18-2.22.15-7.11,2.62-10.62,5.18-.62.46-2.69,2.34-2.69,2.34"/>
  <path class="cls-2" d="m187.83,139.92c-1.08-2.44-3.85-3.99-6.81-4.94-1.74-.56-3.55-.92-5.13-1.13"/>
  <path class="cls-2" d="m175.34,133.57c.23.17.41.24.49.26t.02,0s.04,0,.04,0"/>
  <path class="cls-2" d="m144.08,112.38c.5.9,10.11,14.27,15.06,14.78,1.61.17,3.55.39,5.48.7,3.98.64,7.9,1.66,8.86,3.35.79,1.38,1.44,2.04,1.86,2.34"/>
  <path class="cls-2" d="m163.05,76.33s1.85,3.33,5.03,8.13c.39.59.8,1.2,1.22,1.83.7,1.02,1.45,2.09,2.24,3.2,1.37,1.92,2.88,3.95,4.51,6,5.65,7.16,12.69,14.62,20.18,19.16"/>
  <polyline class="cls-2" points="148.71 36.06 148.49 45.73 148.1 63.79"/>
  <polyline class="cls-2" points="152.57 40.04 152.57 40.13 152.01 62.09 151.96 64.11"/>
  <polyline class="cls-2" points="148.1 70.11 148.1 80.94 148.1 81.23"/>
  <polyline class="cls-2" points="151.71 70.11 151.71 72.31 151.71 83.51"/>
  <path class="cls-2" d="m153.54,68.45v.11c.03.64-.46,1.19-1.1,1.22l-.75.03-3.6.17-.68.03c-.65.03-1.2-.46-1.22-1.11l-.16-3.27c-.03-.64.47-1.19,1.11-1.22l1-.05,3.84-.18h.2c.65-.04,1.2.46,1.22,1.1l.02.37.14,2.78Z"/>
  <path class="cls-2" d="m119.25,82.19c1.73.79,3.99,1.36,6.79,1.21.7-.03,1.43-.12,2.2-.26"/>
  <path class="cls-2" d="m114.79,78.74s1.43,2.05,4.46,3.44"/>
  <path class="cls-2" d="m104.86,83.42h0l6.42,1.38s3.56,2.88,6.77,3.5c.05.02.11.03.16.03"/>
  <path class="cls-2" d="m127.45,96.85s-5.29,4.99-8.29,5.15"/>
  <path class="cls-2" d="m120.5,105.74c4.18-.48,7.57,1.75,9.8,4.78,1.46,2,1.97,2.69,2.14,2.92l.09.12"/>
  <line class="cls-2" x1="132.53" y1="106.15" x2="137.17" y2="110.48"/>
  <path class="cls-2" d="m152.57,109.16h0c.11-.05.23-.1.34-.14,7.92-3.08,7.52.25,10.14-3.86"/>
  <path class="cls-2" d="m129.77,81.23c5.74-.14,13.51-2.32,18.32-.29.22.09.42.18.62.29.98.51,1.98,1.31,3,2.28h0c3.88,3.72,7.94,9.9,11.2,11.89.04.03.1.06.14.09"/>
  <path class="cls-2" d="m167.7,87.79c-1.54,2.63-3.57,5.15-4.79,7.62-1.24,2.51-1.64,4.98.14,7.5.33.47.64.9.94,1.29,2.81,3.79,3.72,4.12,3.72,4.12"/>
  <path class="cls-2" d="m148.1,108.8s11.32,17.53,16.68,18.17"/>
  <path class="cls-2" d="m176.05,95.49s3.53,1.02,8.07,2.38c6.72,2.01,15.63,4.77,18.44,6.08,4.71,2.19,15.33,6.1,16.44,8.42h0s0,0,0,0"/>
  <path class="cls-2" d="m209.8,113.56c2.21,1.28,8.85,7.18,8.85,9.47"/>
  <path class="cls-2" d="m190.92,139.77c-3.83-5.9-6.49-7.52,0-7.67s24.34-2.95,27.72,3.39"/>
  <path class="cls-2" d="m172.49,138.59s2.04-2.95,2.77-4.83c.03-.07.05-.13.08-.19h0"/>
  <line class="cls-2" x1="181.02" y1="134.98" x2="178.54" y2="139.33"/>
  <line class="cls-2" x1="118.22" y1="88.33" x2="131.27" y2="88.33"/>
  <path class="cls-2" d="m137.06,98.44h0s3.8,8.48,3.8,8.48c-.87,1.25-2.18,2.45-3.69,3.55-1.48,1.1-3.14,2.11-4.73,2.96-3.55,1.94-6.74,3.18-6.74,3.18"/>
  <line class="cls-2" x1="171.54" y1="89.49" x2="186.35" y2="88.33"/>
  <line class="cls-2" x1="168.08" y1="84.46" x2="181.74" y2="81.15"/>
  <path class="cls-2" d="m184.13,97.87c1.59-.62,3.53-1.2,5.61-1.72,7.23-1.77,16.3-2.69,19.17-1.65.28.1.57.25.88.44,3.84,2.37,9.94,11.2,9.94,11.2"/>
  <line class="cls-2" x1="209.8" y1="94.94" x2="210.95" y2="87.79"/>
  <line class="cls-2" x1="199.77" y1="82.81" x2="200.95" y2="91.37"/>
  <line class="cls-2" x1="189.74" y1="80.08" x2="192.55" y2="90.37"/>
  <polyline class="cls-2" points="184.88 84.46 186.47 88.28 189.74 96.16"/>
  <polyline class="cls-2" points="152.09 62.09 154.81 59.61 156.72 62.77 153.4 65.67"/>
  <polyline class="cls-2" points="153.47 68.24 153.54 68.45 155.44 73.96 152.57 75.25 151.71 72.31"/>
  <polyline class="cls-2" points="128.47 60.03 128.48 60.03 138.83 59.07"/>
  <polyline class="cls-2" points="141.96 49.45 148.49 45.73 148.71 45.61"/>
  <line class="cls-2" x1="125.32" y1="68.24" x2="126.05" y2="83.4"/>
  <path class="cls-2" d="m119.58,78.08l-.33,4.11h0c-.58,1.78-.98,3.89-1.2,6.12-.32,3.28-.25,6.84.16,10,.12.94.45,2.23.94,3.71.36,1.14.82,2.42,1.34,3.73,1.46,3.68,3.38,7.78,5.2,10.88,1.44,2.48,2.82,4.31,3.84,4.79,3.32,1.55,5.93-1.64,7.63-3.21.36-.33.97-.86,1.75-1.5,1.39-1.17,3.31-2.75,5.15-4.32,1.49-1.26,2.94-2.53,4.02-3.58.4-.38.74-.73,1.02-1.04"/>
  <path class="cls-2" d="m116.23,23.64v.07c0,.32-.12,1.66-1.31,3.45"/>
</svg>