<?xml version="1.0" encoding="UTF-8"?>
<svg id="_レイヤー_1" data-name="レイヤー 1" xmlns="http://www.w3.org/2000/svg" viewBox="0 0 269.34 191.28">
  <defs>
    <style>
      .cls-1 {
        stroke-miterlimit: 10;
      }

      .cls-1, .cls-2 {
        fill: none;
        stroke: #000;
      }

      .cls-3, .cls-4, .cls-5, .cls-6, .cls-7, .cls-8, .cls-9, .cls-10, .cls-11 {
        stroke-width: 0px;
      }

      .cls-4 {
        fill: #eedfc8;
      }

      .cls-5 {
        fill: #f3edd7;
      }

      .cls-2 {
        stroke-linecap: round;
        stroke-linejoin: round;
      }

      .cls-6 {
        fill: #333;
      }

      .cls-7 {
        fill: #967b9a;
      }

      .cls-8 {
        fill: #d2d296;
      }

      .cls-9 {
        fill: #f0ccaa;
      }

      .cls-10 {
        fill: #719a8c;
      }

      .cls-11 {
        fill: #dcbe82;
      }
    </style>
  </defs>
  <g>
    <g>
      <rect class="cls-5" x=".24" y="156.77" width="3.61" height="5.01"/>
      <path class="cls-5" d="m269.09,184.24v6.54h-30.33l15.29-8.6c1.03,1.61,3.1,2.71,5.49,2.71s4.6-1.18,5.6-2.87l3.95,2.22Z"/>
      <path class="cls-5" d="m269.09,173.72v10.52l-3.95-2.22c.38-.65.59-1.38.59-2.14,0-1.3-.61-2.47-1.61-3.36l4.97-2.79Z"/>
      <path class="cls-5" d="m269.09,161.77v11.95l-4.97,2.79c-1.13-1-2.76-1.63-4.58-1.63s-3.3.58-4.42,1.51l-25.99-14.61h39.96Z"/>
      <polygon class="cls-5" points="269.09 90.11 269.09 95.85 1.13 95.85 .24 95.85 .24 90.11 269.09 90.11"/>
      <rect class="cls-5" x="265.11" y="156.77" width="3.98" height="5.01"/>
      <path class="cls-5" d="m265.73,179.88c0,.76-.21,1.49-.59,2.14l-5.4-3.04,4.38-2.47c.99.89,1.61,2.07,1.61,3.36Z"/>
      <path class="cls-5" d="m259.74,178.98l5.4,3.04c-.99,1.7-3.12,2.87-5.6,2.87s-4.46-1.1-5.49-2.71l5.69-3.2Z"/>
      <rect class="cls-6" x="253.85" y="156.77" width="11.26" height="5.01"/>
      <path class="cls-5" d="m264.12,176.51l-4.38,2.47-4.62-2.59c1.12-.93,2.69-1.51,4.42-1.51,1.82,0,3.44.63,4.58,1.63Z"/>
      <path class="cls-5" d="m259.74,178.98l-5.69,3.2c-.44-.68-.69-1.47-.69-2.3,0-1.37.67-2.59,1.76-3.49l4.62,2.59Z"/>
      <path class="cls-5" d="m229.13,161.77l25.99,14.61c-1.09.9-1.76,2.13-1.76,3.49,0,.83.25,1.62.69,2.3l-15.29,8.6h-41.32l-15.59-8.76c.38-.65.59-1.38.59-2.14,0-1.3-.61-2.47-1.61-3.36l26.23-14.75h22.07Zm-5.94,18.1c0-2.76-2.24-5-5-5s-5.01,2.24-5.01,5,2.24,5.01,5.01,5.01,5-2.24,5-5.01Z"/>
      <polygon class="cls-5" points="253.85 161.77 229.13 161.77 223.44 161.77 223.44 156.77 253.85 156.77 253.85 161.77"/>
      <rect class="cls-6" x="212.18" y="156.77" width="11.26" height="5.01"/>
      <path class="cls-6" d="m218.19,174.88c2.76,0,5,2.24,5,5s-2.24,5.01-5,5.01-5.01-2.24-5.01-5.01,2.24-5,5.01-5Z"/>
      <path class="cls-5" d="m207.06,161.77l-26.23,14.75c-1.13-1.01-2.76-1.64-4.58-1.64s-3.3.58-4.42,1.51l-25.99-14.61h61.22Z"/>
      <polygon class="cls-5" points="181.78 161.77 181.78 156.77 212.18 156.77 212.18 161.77 207.06 161.77 181.78 161.77"/>
      <path class="cls-5" d="m197.43,190.78h-41.97l15.29-8.6c1.03,1.61,3.11,2.71,5.49,2.71s4.6-1.18,5.6-2.87l15.59,8.76Z"/>
      <path class="cls-5" d="m182.44,179.88c0,.76-.21,1.49-.59,2.14l-5.4-3.04,4.38-2.46c.99.88,1.61,2.06,1.61,3.36Z"/>
      <path class="cls-5" d="m176.45,178.98l5.4,3.04c-.99,1.7-3.12,2.87-5.6,2.87s-4.46-1.1-5.49-2.71l5.69-3.2Z"/>
      <rect class="cls-6" x="170.52" y="156.77" width="11.26" height="5.01"/>
      <path class="cls-5" d="m176.25,174.88c1.82,0,3.44.63,4.58,1.64l-4.38,2.46-4.62-2.59c1.12-.93,2.69-1.51,4.42-1.51Z"/>
      <path class="cls-5" d="m176.45,178.98l-5.69,3.2c-.44-.68-.69-1.47-.69-2.3,0-1.37.67-2.59,1.76-3.49l4.62,2.59Z"/>
      <path class="cls-5" d="m145.84,161.77l25.99,14.61c-1.09.9-1.76,2.13-1.76,3.49,0,.83.25,1.62.69,2.3l-15.29,8.6h-41.32l-15.59-8.76c.38-.65.59-1.38.59-2.14,0-1.3-.61-2.47-1.61-3.36l26.23-14.75h22.07Zm-6.99,18.1c0-2.76-2.24-5-5-5s-5.01,2.24-5.01,5,2.24,5.01,5.01,5.01,5-2.24,5-5.01Z"/>
      <polygon class="cls-5" points="170.52 161.77 145.84 161.77 140.11 161.77 140.11 156.77 170.52 156.77 170.52 161.77"/>
      <rect class="cls-6" x="128.85" y="156.77" width="11.26" height="5.01"/>
      <path class="cls-6" d="m133.85,174.88c2.76,0,5,2.24,5,5s-2.24,5.01-5,5.01-5.01-2.24-5.01-5.01,2.24-5,5.01-5Z"/>
      <path class="cls-5" d="m123.77,161.77l-26.23,14.75c-1.13-1.01-2.76-1.64-4.58-1.64s-3.3.58-4.42,1.51l-25.99-14.61h61.22Z"/>
      <polygon class="cls-5" points="128.85 161.77 123.77 161.77 98.45 161.77 98.45 156.77 128.85 156.77 128.85 161.77"/>
      <path class="cls-5" d="m114.15,190.78h-41.97l15.29-8.6c1.03,1.61,3.1,2.71,5.49,2.71s4.6-1.18,5.6-2.87l15.59,8.76Z"/>
      <path class="cls-5" d="m99.15,179.88c0,.76-.21,1.49-.59,2.14l-5.4-3.04,4.38-2.46c.99.88,1.61,2.06,1.61,3.36Z"/>
      <path class="cls-5" d="m93.16,178.98l5.4,3.04c-.99,1.7-3.12,2.87-5.6,2.87s-4.46-1.1-5.49-2.71l5.69-3.2Z"/>
      <rect class="cls-6" x="87.18" y="156.77" width="11.26" height="5.01"/>
      <path class="cls-5" d="m92.96,174.88c1.82,0,3.44.63,4.58,1.64l-4.38,2.46-4.62-2.59c1.12-.93,2.69-1.51,4.42-1.51Z"/>
      <path class="cls-5" d="m93.16,178.98l-5.69,3.2c-.44-.68-.69-1.47-.69-2.3,0-1.37.67-2.59,1.76-3.49l4.62,2.59Z"/>
      <path class="cls-5" d="m62.55,161.77l25.99,14.61c-1.09.9-1.76,2.13-1.76,3.49,0,.83.25,1.62.69,2.3l-15.29,8.6H30.67l-15.59-8.76c.38-.65.59-1.38.59-2.14,0-1.3-.61-2.47-1.61-3.36l26.23-14.75h22.26Zm-8.49,18.1c0-2.76-2.24-5-5-5s-5.01,2.24-5.01,5,2.24,5.01,5.01,5.01,5-2.24,5-5.01Z"/>
      <polygon class="cls-5" points="87.18 161.77 62.55 161.77 56.78 161.77 56.78 156.77 87.18 156.77 87.18 161.77"/>
      <rect class="cls-6" x="45.52" y="156.77" width="11.26" height="5.01"/>
      <path class="cls-6" d="m49.06,174.88c2.76,0,5,2.24,5,5s-2.24,5.01-5,5.01-5.01-2.24-5.01-5.01,2.24-5,5.01-5Z"/>
      <polygon class="cls-5" points="45.52 161.77 40.29 161.77 15.11 161.77 15.11 156.77 45.52 156.77 45.52 161.77"/>
      <path class="cls-5" d="m30.67,190.78H.24v-6.5l3.75-2.1c1.03,1.61,3.11,2.71,5.49,2.71s4.6-1.18,5.6-2.87l15.59,8.76Z"/>
      <path class="cls-5" d="m15.67,179.88c0,.76-.21,1.49-.59,2.14l-5.4-3.04,4.38-2.46c.99.88,1.61,2.06,1.61,3.36Z"/>
      <rect class="cls-6" x="3.85" y="156.77" width="11.26" height="5.01"/>
      <path class="cls-5" d="m9.68,178.98l5.4,3.04c-.99,1.7-3.12,2.87-5.6,2.87s-4.46-1.1-5.49-2.71l5.69-3.2Z"/>
      <path class="cls-5" d="m9.48,174.88c1.82,0,3.44.63,4.58,1.64l-4.38,2.46-4.62-2.59c1.12-.93,2.69-1.51,4.42-1.51Z"/>
      <path class="cls-5" d="m9.68,178.98l-5.69,3.2c-.44-.68-.69-1.47-.69-2.3,0-1.37.67-2.59,1.76-3.49l4.62,2.59Z"/>
      <path class="cls-5" d="m.24,173.68l4.82,2.71c-1.09.9-1.76,2.13-1.76,3.49,0,.83.25,1.62.69,2.3l-3.75,2.1v-10.6Z"/>
      <polygon class="cls-8" points="212.18 156.77 181.78 156.77 170.52 156.77 140.11 156.77 128.85 156.77 98.45 156.77 87.18 156.77 56.78 156.77 45.52 156.77 15.11 156.77 3.85 156.77 .24 156.77 .24 95.85 1.13 95.85 269.09 95.85 269.09 156.77 265.11 156.77 253.85 156.77 223.44 156.77 212.18 156.77"/>
      <path class="cls-5" d="m.24,161.77h40.05l-26.23,14.75c-1.13-1.01-2.76-1.64-4.58-1.64s-3.3.58-4.42,1.51l-4.82-2.71v-11.9Z"/>
    </g>
    <g>
      <polyline class="cls-1" points="269.09 190.78 238.76 190.78 197.43 190.78 155.47 190.78 114.15 190.78 72.18 190.78 30.67 190.78 .24 190.78"/>
      <line class="cls-1" x1=".24" y1="90.11" x2="269.09" y2="90.11"/>
      <line class="cls-1" x1=".24" y1="95.85" x2="269.09" y2="95.85"/>
      <line class="cls-1" x1="265.11" y1="156.77" x2="269.09" y2="156.77"/>
      <line class="cls-1" x1="223.44" y1="156.77" x2="253.85" y2="156.77"/>
      <line class="cls-1" x1="181.78" y1="156.77" x2="212.18" y2="156.77"/>
      <line class="cls-1" x1="140.11" y1="156.77" x2="170.52" y2="156.77"/>
      <line class="cls-1" x1="98.45" y1="156.77" x2="128.85" y2="156.77"/>
      <line class="cls-1" x1="56.78" y1="156.77" x2="87.18" y2="156.77"/>
      <line class="cls-1" x1="15.11" y1="156.77" x2="45.52" y2="156.77"/>
      <line class="cls-1" x1=".24" y1="156.77" x2="3.85" y2="156.77"/>
      <line class="cls-1" x1="265.11" y1="161.77" x2="269.09" y2="161.77"/>
      <polyline class="cls-1" points="223.44 161.77 229.13 161.77 253.85 161.77"/>
      <polyline class="cls-1" points="181.78 161.77 207.06 161.77 212.18 161.77"/>
      <polyline class="cls-1" points="140.11 161.77 145.84 161.77 170.52 161.77"/>
      <polyline class="cls-1" points="98.45 161.77 123.77 161.77 128.85 161.77"/>
      <polyline class="cls-1" points="56.78 161.77 62.55 161.77 87.18 161.77"/>
      <polyline class="cls-1" points="15.11 161.77 40.29 161.77 45.52 161.77"/>
      <line class="cls-1" x1=".24" y1="161.77" x2="3.85" y2="161.77"/>
      <polyline class="cls-1" points="72.18 190.78 87.47 182.18 93.16 178.98 97.54 176.52 123.77 161.77"/>
      <polyline class="cls-1" points="114.15 190.78 98.56 182.02 93.16 178.98 88.54 176.38 62.55 161.77"/>
      <path class="cls-1" d="m138.85,179.88c0,2.77-2.24,5.01-5,5.01s-5.01-2.24-5.01-5.01,2.24-5,5.01-5,5,2.24,5,5Z"/>
      <path class="cls-1" d="m223.19,179.88c0,2.77-2.24,5.01-5,5.01s-5.01-2.24-5.01-5.01,2.24-5,5.01-5,5,2.24,5,5Z"/>
      <path class="cls-1" d="m97.54,176.52c.99.88,1.61,2.06,1.61,3.36,0,.76-.21,1.49-.59,2.14-.99,1.7-3.12,2.87-5.6,2.87s-4.46-1.1-5.49-2.71c-.44-.68-.69-1.47-.69-2.3,0-1.37.67-2.59,1.76-3.49,1.12-.93,2.69-1.51,4.42-1.51,1.82,0,3.44.63,4.58,1.64Z"/>
      <polyline class="cls-1" points=".24 184.28 3.99 182.18 9.68 178.98 14.06 176.52 40.29 161.77"/>
      <polyline class="cls-1" points="30.67 190.78 15.08 182.02 9.68 178.98 5.06 176.38 .24 173.68"/>
      <path class="cls-1" d="m14.06,176.52c.99.88,1.61,2.06,1.61,3.36,0,.76-.21,1.49-.59,2.14-.99,1.7-3.12,2.87-5.6,2.87s-4.46-1.1-5.49-2.71c-.44-.68-.69-1.47-.69-2.3,0-1.37.67-2.59,1.76-3.49,1.12-.93,2.69-1.51,4.42-1.51,1.82,0,3.44.63,4.58,1.64Z"/>
      <polyline class="cls-1" points="155.47 190.78 170.76 182.18 176.45 178.98 180.83 176.52 207.06 161.77"/>
      <polyline class="cls-1" points="197.43 190.78 181.85 182.02 176.45 178.98 171.83 176.38 145.84 161.77"/>
      <path class="cls-1" d="m180.83,176.52c.99.88,1.61,2.06,1.61,3.36,0,.76-.21,1.49-.59,2.14-.99,1.7-3.12,2.87-5.6,2.87s-4.46-1.1-5.49-2.71c-.44-.68-.69-1.47-.69-2.3,0-1.37.67-2.59,1.76-3.49,1.12-.93,2.69-1.51,4.42-1.51,1.82,0,3.44.63,4.58,1.64Z"/>
      <polyline class="cls-1" points="238.76 190.78 254.05 182.18 259.74 178.98 264.12 176.51 269.09 173.72"/>
      <polyline class="cls-1" points="269.09 184.24 265.14 182.02 259.74 178.98 255.12 176.38 229.13 161.77"/>
      <path class="cls-1" d="m264.12,176.51c.99.89,1.61,2.07,1.61,3.36,0,.76-.21,1.49-.59,2.14-.99,1.7-3.12,2.87-5.6,2.87s-4.46-1.1-5.49-2.71c-.44-.68-.69-1.47-.69-2.3,0-1.37.67-2.59,1.76-3.49,1.12-.93,2.69-1.51,4.42-1.51,1.82,0,3.44.63,4.58,1.63Z"/>
      <path class="cls-1" d="m54.06,179.88c0,2.77-2.24,5.01-5,5.01s-5.01-2.24-5.01-5.01,2.24-5,5.01-5,5,2.24,5,5Z"/>
      <rect class="cls-1" x="3.85" y="156.77" width="11.26" height="5.01"/>
      <rect class="cls-1" x="45.52" y="156.77" width="11.26" height="5.01"/>
      <rect class="cls-1" x="87.18" y="156.77" width="11.26" height="5.01"/>
      <rect class="cls-1" x="128.85" y="156.77" width="11.26" height="5.01"/>
      <rect class="cls-1" x="170.52" y="156.77" width="11.26" height="5.01"/>
      <rect class="cls-1" x="212.18" y="156.77" width="11.26" height="5.01"/>
      <rect class="cls-1" x="253.85" y="156.77" width="11.26" height="5.01"/>
    </g>
  </g>
  <g>
    <path class="cls-7" d="m219.71,96.97c0,1.71-.33,5.29-.72,8.82,0,0-6.08-8.8-9.9-11.16l1.15-7.13c4.2,2.63,9.47,6.77,9.47,9.48Z"/>
    <path class="cls-10" d="m219,105.79c-.24,2.26-.5,4.51-.72,6.21-1.11-2.31-11.69-6.21-16.39-8.39-2.81-1.3-11.68-4.06-18.38-6.06,1.58-.62,3.51-1.2,5.6-1.71,7.21-1.76,16.25-2.68,19.11-1.65.28.09.57.25.88.44,3.83,2.37,9.9,11.16,9.9,11.16Z"/>
    <path class="cls-7" d="m163.43,103.85c-.29-.39-.6-.82-.93-1.29-1.77-2.51-1.37-4.97-.14-7.48,1.22-2.46,3.24-4.96,4.77-7.59l1.6-1.49c.7,1.02,1.44,2.08,2.23,3.19,1.36,1.92,2.88,3.94,4.5,5.98,0,0,3.52,1.02,8.05,2.37,6.7,2,15.58,4.76,18.38,6.06,4.7,2.18,15.27,6.08,16.39,8.39h0c-.22,1.83-.37,3.06-.37,3.06v9.84s1.77,6.61,0,10.14c-3.38-6.31-21.16-3.52-27.63-3.38s-3.82,1.76,0,7.64l-3.08.15c-1.08-2.43-3.83-3.97-6.79-4.92-1.74-.56-3.54-.92-5.11-1.13,0,0-.02,0-.04,0t-.02,0c-.08-.02-.25-.09-.48-.26h0c-.42-.31-1.07-.97-1.86-2.34-.96-1.68-4.87-2.7-8.83-3.34l.16-.9c-5.34-.64-16.62-18.11-16.62-18.11.4-.38.73-.73,1.02-1.04,1.34.9,2.62,1.54,3.44,1.4h0c.12-.03.23-.07.34-.14,7.89-3.07,7.49.25,10.1-3.85l.93-.96Z"/>
    <path class="cls-11" d="m185.84,87.99l-.11.05-14.76,1.15c-.79-1.11-1.53-2.17-2.23-3.19-.42-.63-.83-1.23-1.22-1.82l13.62-3.3c1.32,1.87,6.06-1.87,9.7-1.99,3.64-.1,12.23,5.29,14.89,6.17.84.28,2.56,1.18,4.52,2.43l-1.15,7.13c-.31-.19-.6-.35-.88-.44-2.86-1.03-11.9-.11-19.11,1.65l-3.26-7.85Z"/>
    <path class="cls-4" d="m190.28,131.66c6.47-.15,24.25-2.94,27.63,3.38-1.76,3.53-11.46,8.24-17.48,7.65-6.03-.6-10.15-3.38-10.15-3.38-3.82-5.88-6.47-7.49,0-7.64Z"/>
    <path class="cls-11" d="m185.84,87.99l3.26,7.85c-2.08.51-4.01,1.09-5.6,1.71-4.52-1.36-8.05-2.37-8.05-2.37-1.62-2.05-3.13-4.07-4.5-5.98l14.76-1.15.11-.05Z"/>
    <path class="cls-4" d="m187.2,139.45s1.06,2.05-3,1.47-6.26-2.05-6.26-2.05l2.47-4.33c2.95.95,5.71,2.49,6.79,4.92Z"/>
    <path class="cls-7" d="m167.52,84.18c.39.59.79,1.19,1.22,1.82l-1.6,1.49c-1.54,2.62-3.56,5.13-4.77,7.59-3.25-1.99-7.3-8.15-11.16-11.85h0v-11.17l.85,2.94,2.87-1.29-1.9-5.49-.14-2.77,3.32-2.89-1.91-3.14-2.71,2.47h-.08l.55-21.89c6.42,8.43,17.48,20.91,18.46,26.71,1.4,8.3,9.3,12.3,10.62,14.18l-13.62,3.3Z"/>
    <path class="cls-4" d="m180.41,134.53l-2.47,4.33-6.03-.73s2.04-2.94,2.76-4.82c.18.03.37.05.56.07t.02,0s.04,0,.04,0c1.57.22,3.38.57,5.11,1.13Z"/>
    <path class="cls-7" d="m174.75,133.11h0c-.03.07-.05.13-.08.2-1.61-.18-2.89-.22-3.5-.18-2.21.15-7.09,2.61-10.59,5.16-11.04-3.07-21.4-20.68-22.14-21.98,1.39-1.17,3.3-2.74,5.14-4.31h0c.5.91,10.08,14.23,15.01,14.74,1.61.17,3.54.39,5.46.7,3.96.64,7.87,1.66,8.83,3.34.79,1.37,1.43,2.03,1.86,2.33Z"/>
    <path class="cls-4" d="m174.68,133.31c-.73,1.88-2.76,4.82-2.76,4.82-3.97,2.94-7.2,7.94-13.67,2.79-.1-.1-.22-.21-.33-.29,0,0,2.05-1.87,2.68-2.33,3.5-2.56,8.38-5.02,10.59-5.16.6-.04,1.89,0,3.5.18Z"/>
    <path class="cls-7" d="m164.22,126.54l-.16.9c-1.92-.31-3.85-.53-5.46-.7-4.93-.51-14.51-13.83-15.01-14.73h0c1.49-1.27,2.93-2.53,4.01-3.57,0,0,11.29,17.47,16.62,18.11Z"/>
    <path class="cls-11" d="m143.43,89.8c-.43-.71-.79-1.3-1.06-1.76-2.12-3.67-7.64-4.58-14.55-5.17.5-.51,1.01-1.16,1.51-1.92h0c5.72-.13,13.46-2.31,18.26-.28.22.09.41.18.61.28.98.51,1.98,1.3,2.99,2.27h0c3.87,3.7,7.92,9.87,11.16,11.86-1.23,2.5-1.63,4.96.14,7.48.33.47.64.9.93,1.29l-.93.96c-2.61,4.1-2.21.79-10.1,3.85.35-.2.55-.64.55-1.4,0-1.64-2.94-6.75-5.79-11.42-1.38-2.26-2.74-4.42-3.73-6.04Z"/>
    <path class="cls-7" d="m119.2,117.74c-3.24-4.73-5.6-10.46-6.38-12.93l.02-.1c-5.13-.72-10.98-4.94-14.45-7.79,2.25-4.55,4.45-9.51,6.13-13.77l6.4,1.37s3.55,2.88,6.74,3.49c-.32,3.27-.25,6.81.16,9.96.12.93.45,2.22.93,3.7.36,1.14.82,2.41,1.34,3.72,1.45,3.67,3.37,7.75,5.18,10.84,1.43,2.47,2.81,4.3,3.83,4.77,3.31,1.55,5.91-1.63,7.61-3.2.35-.33.97-.85,1.74-1.49.74,1.3,11.1,18.92,22.14,21.98-.62.46-2.68,2.33-2.68,2.33-2.29-1.89-6.29-1.76-6.29-1.76-.29-5.29-7.79.29-10.41,2.07-.74-.4-1.31-.7-1.64-.71-1.03-.04-3.78.98-7.18,2.31-.95.37-1.86.48-2.7.43-.77-.79-4-4.13-6.54-7.34-.51-.64-1.01-1.01-1.5-1.17.59-4.11-3.82-15.44-3.82-15.44l1.37-1.28Z"/>
    <path class="cls-4" d="m154.29,59.42l1.91,3.14-3.32,2.89-.02-.37c-.03-.64-.57-1.14-1.22-1.11h-.2s0-.08,0-.08l.05-2.01h.08l2.71-2.47Z"/>
    <path class="cls-4" d="m153.02,68.22l1.9,5.49-2.87,1.29-.85-2.94v-2.18l-.02-.29.74-.03c.64-.03,1.13-.58,1.11-1.22v-.11Z"/>
    <path class="cls-4" d="m153.02,68.22v.11c.03.64-.46,1.18-1.1,1.22l-.74.03-3.59.17-.68.03c-.65.03-1.19-.46-1.22-1.11l-.16-3.26c-.03-.64.47-1.18,1.11-1.22l.99-.05,3.83-.18h.2c.65-.04,1.19.46,1.22,1.1l.02.37.14,2.77Z"/>
    <path class="cls-11" d="m152.95,107.26c0,.76-.21,1.2-.55,1.4-.11.04-.22.09-.34.14h0c-.82.14-2.1-.5-3.44-1.4-.34-.23-.68-.47-1.02-.73l-2.58-1.91s-4.42-5.24-4.62-7.73c2.75-.52,6.76-1.2,6.76-1.2,2.85,4.67,5.79,9.78,5.79,11.42Z"/>
    <path class="cls-4" d="m148,45.58l.22-9.64c.16-.23.33-.47.47-.72.81,1.33,1.98,2.96,3.37,4.77l-.55,21.89-.05,2.01v.09l-3.83.18-.03-.59.4-17.99Z"/>
    <path class="cls-9" d="m151.36,18.7c.24,4.52-.03,9.05-.47,11.1-.29,1.4-.92,3.16-1.84,4.8l-1.46-1.04c-3.82-1.47-3.97-5-3.97-5l-.13-1c.94-.11,2.01-.59,2.11-.99.09-.36-.37-4.56-.75-7.74l1.71-.05s2.42-.89,3.31,0l1.49-.09Z"/>
    <path class="cls-9" d="m121.67,25.93c.07-1.46.21-4.74-.03-2.88-.09.76-.11,1.74.03,2.88Zm23.18-7.09c.38,3.18.84,7.37.75,7.74-.09.41-1.17.88-2.11.99l.13,1s.16,3.53,3.97,5l1.46,1.04c-.12.21-.24.41-.37.61-.15.24-.31.48-.47.72-.78,1.1-1.7,2.05-2.75,2.69-.52.32-1.19.58-1.96.79-1.99.54-4.63.73-6.91.48-.85-.08-1.66-.22-2.37-.42l-.13.6c-1.11,1.15-2.5,1.99-3.68,2.56l.05.11c-.19,1.58-2.55,8.12-5.57,13.85-1.49-2.3-7.54-20.49-10.36-29.52,1.18-1.78,1.3-3.12,1.3-3.44-.48-1.66-.36-3.96.08-6.17.73-3.67,1.95-3.29,3.26-3.52.27-1.65.85-3.04,1.61-4.34,1.06-1.85,2.43-3.51,3.63-5.47,2.04-3.34,11.92-4.59,17.5-2.83s8.09,6.91,8.97,12.64c.23,1.51.38,3.14.47,4.77l-1.49.09c-.89-.89-3.31,0-3.31,0l-1.71.05Z"/>
    <path class="cls-4" d="m151.2,72.06v11.16c-1.01-.97-2.01-1.76-2.99-2.27-.2-.1-.4-.2-.61-.28v-10.91s3.58-.17,3.58-.17l.02.29v2.18Z"/>
    <path class="cls-4" d="m141.22,140.93c2.62-1.78,10.12-7.37,10.41-2.07,0,0-.73,4.45-4.27,4.28-2.37-.11-4.62-1.38-6.15-2.21Z"/>
    <path class="cls-11" d="m132,113.06c1.58-.85,3.24-1.86,4.71-2.95,1.5-1.1,2.81-2.3,3.68-3.54l-3.79-8.44h0c.65-.28,1.15-.52,1.33-.58.25-.09,1.23-.28,2.47-.51.2,2.49,4.62,7.73,4.62,7.73l2.58,1.91c.34.25.68.49,1.02.73-.28.31-.62.66-1.02,1.04-1.08,1.04-2.52,2.31-4.01,3.57-1.84,1.57-3.75,3.14-5.14,4.31-.78.64-1.39,1.17-1.74,1.49-1.69,1.57-4.3,4.75-7.61,3.2-1.01-.47-2.39-2.31-3.83-4.77,0,0,3.18-1.23,6.72-3.17Z"/>
    <path class="cls-7" d="m148.21,35.94l-.22,9.64-6.51,3.7-.28-.08c1.5-5.45,2.43-9.31,2.43-9.31l-.13-.48c.77-.22,1.44-.47,1.96-.79,1.05-.63,1.98-1.59,2.75-2.69Z"/>
    <path class="cls-7" d="m148,45.58l-.4,17.99.03.59-.99.05c-.64.03-1.13.58-1.11,1.22l.16,3.26c.03.65.57,1.14,1.22,1.11l.68-.03v.12s0,10.79,0,10.79c-4.8-2.03-12.54.15-18.26.28h0c3.16-4.7,6.42-13.7,9.04-22.09,1.07-3.44,2.03-6.77,2.83-9.66l.28.08,6.51-3.7Z"/>
    <path class="cls-9" d="m140.4,97.04c-1.23.22-2.22.42-2.47.51-.18.06-.68.3-1.33.57h0c-1.19.5-2.89,1.11-4.08.95-1.04-.14-2.91.17-3.34-.03-.61-.16-.94-.99-.16-1.55.54-.38,1.56-.63,2.16-.76-.73.11-2.17.32-3.21.25-.47-.03-.77-.21-.94-.45-.36-.47-.22-1.17.19-1.43.66-.43,4.05-.55,4.05-.55,0,0-1.18.02-2.54.05-.67.02-1.31,0-2.01.07-.53.05-.65-1.95.3-2.11,1.25-.2,3.4-.41,3.63-.44,0,0-.72-.21-1.88-.09-1.17.11-1.38.13-1.39-.47-.02-.59.24-1.23,1.71-1.43s5.33-.36,5.33-.36c-.07-.03-.25-.08-.67-.19-.7-.2-1.78-.14-2.28-.14-.87,0-1.14-.68-.62-1.39.17-.24.45-.49.82-.72,1.44-.87,2.66-.09,4.15.3,1.42.37,3.47,2.24,7.62,2.18.99,1.61,2.35,3.77,3.73,6.04,0,0-4.01.68-6.76,1.2Z"/>
    <path class="cls-7" d="m143.5,39.42l.13.48s-.92,3.86-2.43,9.31c-.8,2.89-1.76,6.23-2.83,9.66l-10.32.96c3.89-8.76,8.54-19.93,8.54-19.93,2.28.24,4.91.06,6.91-.48Z"/>
    <path class="cls-11" d="m143.43,89.8c-4.15.06-6.21-1.8-7.62-2.18-1.49-.4-2.71-1.17-4.15-.3-.37.22-.65.47-.82.72h-13c-.05,0-.11-.02-.16-.03.22-2.22.61-4.32,1.19-6.09,1.73.79,3.97,1.36,6.77,1.21.7-.03,1.42-.12,2.19-.26,6.91.59,12.43,1.5,14.55,5.17.27.46.63,1.05,1.06,1.76Z"/>
    <path class="cls-11" d="m136.71,110.11c-1.48,1.1-3.13,2.1-4.71,2.95-.17-.23-.67-.92-2.13-2.91-2.22-3.02-5.6-5.24-9.77-4.77-.52-1.31-.98-2.58-1.34-3.72,2.99-.16,8.26-5.14,8.26-5.14.17.24.47.42.94.45,1.04.07,2.49-.14,3.21-.25-.6.13-1.62.38-2.16.76-.79.56-.46,1.4.16,1.55.43.2,2.31-.11,3.34.03,1.19.16,2.89-.45,4.08-.94l3.79,8.44c-.86,1.24-2.18,2.44-3.68,3.54Z"/>
    <path class="cls-7" d="m128.05,59.83l10.32-.96c-2.62,8.38-5.88,17.39-9.04,22.08-.5.76-1.01,1.41-1.51,1.92-.77.14-1.49.22-2.19.26h0s-.73-15.11-.73-15.11l-.54-.28c.96-1.89,2.27-4.74,3.68-7.9h0Z"/>
    <path class="cls-4" d="m134.22,39.48c.71.2,1.51.35,2.37.42,0,0-4.65,11.16-8.54,19.93h0c-1.41,3.16-2.72,6.01-3.68,7.9-.52,1.03-.94,1.78-1.22,2.15h0c.06-.21.04-.43-.08-.61-.28-.41-1.3-2.28-2.66-3.15-.23-.16-.57-.19-.95-.16l-.16-1.38c1.9-1.66,3.86-4.68,5.6-7.98,3.02-5.72,5.38-12.27,5.57-13.85l-.05-.11c1.18-.57,2.57-1.41,3.68-2.56l.13-.6Z"/>
    <path class="cls-11" d="m133.73,89.57c.42.11.6.16.67.19,0,0-3.86.16-5.33.36s-1.73.85-1.71,1.43c0,.6.22.58,1.39.47,1.17-.11,1.88.09,1.88.09-.22.03-2.37.24-3.63.44-.95.16-.83,2.16-.3,2.11.7-.08,1.34-.05,2.01-.07,1.36-.03,2.54-.05,2.54-.05,0,0-3.39.12-4.05.55-.41.26-.55.97-.19,1.43,0,0-5.28,4.97-8.26,5.14-.48-1.48-.81-2.76-.93-3.7-.41-3.15-.48-6.69-.16-9.96.05.02.11.03.16.03h13c-.52.71-.25,1.39.62,1.39.5,0,1.58-.06,2.28.14Z"/>
    <path class="cls-11" d="m129.86,110.15c1.46,1.99,1.96,2.68,2.13,2.91-3.54,1.93-6.72,3.17-6.72,3.17-1.81-3.09-3.73-7.18-5.18-10.84,4.16-.47,7.55,1.74,9.77,4.77Z"/>
    <path class="cls-4" d="m123.15,135.63c2.55,3.21,5.78,6.55,6.54,7.34-2.19-.11-4.01-1.32-5.27-2.05-1.74-1.17-3.66-.44-7.62.29-1.04.19-2.05.27-3,.23,3.17-3.86,5.52-7.75,7.85-6.99.49.16.99.54,1.5,1.17Z"/>
    <path class="cls-7" d="m125.62,83.12h0c-2.8.16-5.04-.41-6.77-1.2h0s.33-4.1.33-4.1c.32-.07.68-.46.89-1.17.22-.76-.28-1.93-.28-1.93l-2.95-1.48.16-.28,2.35.58c1.11.09.92-1.01.92-1.04l-2.39-1.14.07-.23s1.63.47,2.38.75c.55.2,1-.54.54-1.05-.42-.46-2.9-1.48-2.9-1.48l1.99-1.23s.93,1.32,1.76,2.16c.62.62,1.28.17,1.42-.38h0c.28-.37.7-1.12,1.22-2.15l.54.28.73,15.1Z"/>
    <path class="cls-9" d="m123.06,69.27c.12.18.14.41.08.61-.14.55-.79,1-1.42.38-.83-.84-1.76-2.16-1.76-2.16l-1.99,1.23s2.48,1.02,2.9,1.48c.47.51.02,1.25-.54,1.05-.75-.28-2.38-.75-2.38-.75l-.07.23,2.39,1.14s.19,1.12-.92,1.04l-2.35-.58-.16.28,2.95,1.48s.49,1.17.28,1.93c-.21.72-.57,1.11-.89,1.17-.35.09-.64-.22-.54-.94.09-.77-.28-1.34-.78-1.5-.49-.16-1.43.26-1.43.26-.6,1.24-1.3,2.18-2.02,2.85-1.51,1.43-3.13,1.79-4.22,1.68-1.61-.15-4.54,0-4.54,0,1.32-3.63,2.08-6.42,1.91-7.44h.03c4.37-1.39,6.91-3.96,8.74-5.51.5-.41,2.01-1.16,3.13-1.26.38-.03.72,0,.95.16,1.36.87,2.38,2.74,2.66,3.15Z"/>
    <path class="cls-4" d="m124.9,56.59c-1.74,3.3-3.7,6.32-5.6,7.98,0,0-4.89-13.16-4.89-18.96,0-3.11-.49-12.86-.93-22.03.25.87.62,2.07,1.06,3.5,2.82,9.03,8.87,27.22,10.36,29.52Z"/>
    <path class="cls-7" d="m95.56,102.56c.54-1.11,1.14-2.31,1.84-3.68.33-.65.66-1.3.99-1.97,3.46,2.85,9.32,7.07,14.45,7.79l-.02.1c.78,2.48,3.14,8.2,6.38,12.93l-1.37,1.28s4.4,11.33,3.82,15.44c-2.33-.76-4.68,3.13-7.85,6.99-2.67-.06-4.89-.87-6.22-1.85-.91-.66-.95-.72-1.38-.5-.44-1.3-1.68-4.7-3.21-6.06-1.91-1.72-4.85,3.33-7.11,8.69-1.15.19-2.26.21-3.63-.08-.53-.11-1.13-.18-1.79-.22l.03-.5c-.15-3.07-2.05-8.25-6.47-7.81,9.26-4.4,17.47-10.87,17.47-10.87l.02-.06c-3.09-.73-5.57-2.31-7.72-4.11-2.01-1.69-3.73-3.57-5.35-5.11,3.74-3.77,5.14-6.42,7.12-10.41Z"/>
    <path class="cls-7" d="m105.46,70.54c-1.81-2.16-2.73-7.82-3.58-10.16-.88-2.43,0-36.82,0-36.82l-2.37-.98c.6-.17,1.22-.4,1.86-.72,4.11-2.05,7.2-6.69,11.46-11.4-.07,2.36.27,5.12.65,13.09h0c.44,9.19.93,18.94.93,22.04,0,5.8,4.89,18.96,4.89,18.96l.16,1.38c-1.12.1-2.63.85-3.13,1.26-1.83,1.55-4.37,4.12-8.74,5.51h-.03c-.04-.3-.17-.46-.38-.44-.69.04-2.08-.37-3.81-.99l2.1-.74Z"/>
    <path class="cls-7" d="m120.8,9.59c-.76,1.3-1.35,2.69-1.61,4.34-1.31.23-2.53-.15-3.26,3.52-.44,2.21-.56,4.52-.08,6.17,0,.32-.12,1.66-1.3,3.44-.44-1.42-.81-2.62-1.06-3.5h0c-.38-7.98-.72-10.74-.65-13.1,4.2-4.63,5.68-2.5,7.97-.88Z"/>
    <path class="cls-7" d="m119.18,77.82l-.33,4.09c-3.02-1.38-4.45-3.43-4.45-3.43.73-.67,1.42-1.61,2.02-2.85,0,0,.94-.42,1.43-.26.5.16.87.73.78,1.5-.09.72.19,1.04.54.94Z"/>
    <path class="cls-7" d="m118.86,81.91h0c-.58,1.78-.98,3.88-1.19,6.1-3.19-.61-6.74-3.49-6.74-3.49l-6.4-1.37c.41-1.04.79-2.04,1.12-2.98,0,0,2.93-.15,4.54,0,1.1.1,2.71-.25,4.22-1.68,0,0,1.42,2.05,4.45,3.43Z"/>
    <path class="cls-7" d="m104.52,83.14c-1.68,4.27-3.88,9.22-6.13,13.77-.33.66-.66,1.32-.99,1.97-.7,1.36-1.3,2.57-1.84,3.68-1.99,3.99-3.38,6.64-7.12,10.41-2.75,2.79-6.78,6.18-13.23,11.19-8.63,6.69-14.83,10.46-19.4,12.65-1.15.45-1.89.84-2.06.92-.03,0-.03.02-.03.02-.46.2-.9.37-1.32.54h0c-2.85,1.1-4.87,1.47-6.42,1.74-4.12.73-7.94-.44-7.65-8.38.16-4.34-1.26-8.69.63-13.89,1.55-4.31,5.37-9.21,14.22-15.21,13.5-9.14,14.48-10.4,14.53-10.54l.46.33c2.18-3.04,4.3-6.17,6.61-9.77,3.88-6.03,7.14-10.39,9.98-12.93,2.01-1.8,3.81-2.7,5.45-2.64,2.81.1,8.97,2.79,13.17,4.29,1.73.62,3.12,1.04,3.81.99.21-.02.34.14.38.44.17,1.03-.59,3.82-1.91,7.44-.34.94-.72,1.93-1.12,2.98Z"/>
    <path class="cls-7" d="m105.46,70.54l-2.1.74c-4.2-1.5-10.35-4.19-13.17-4.29-1.64-.06-3.44.84-5.45,2.64l-1.39-1.76-18.3-8.6-1.91-.05c.98-1.13,1.97-2.31,2.94-3.55,5.15-6.61,17.35-23.07,22.79-28.36,4.59-4.46,7.4-3.81,10.64-4.72l2.37.98s-.88,34.39,0,36.82c.85,2.34,1.77,8,3.58,10.16Z"/>
    <path class="cls-4" d="m106.2,139.09c-.42.22-1.23.71-3.65,1.13-2.99.52-4.85,1.22-6.67,1.5,2.25-5.36,5.2-10.41,7.11-8.69,1.53,1.36,2.77,4.76,3.21,6.06Z"/>
    <path class="cls-7" d="m101.51,122.2l-.02.06s-8.21,6.47-17.47,10.87c-4.41.44-8.24,8.6-8.24,8.6l-2.19-.08c-.31-.28-.58-.54-.82-.81-2.97-3.19-2.15-5.95-7.71-5.95-3.71,0-7.16,1.09-9.26,1.93,4.57-2.19,10.77-5.96,19.4-12.65,5.15,1.91,15.84-3.68,17.55-5.15l1.04-.93c2.15,1.8,4.63,3.38,7.72,4.11Z"/>
    <path class="cls-7" d="m93.79,118.09l-1.04.93c-1.7,1.47-12.4,7.05-17.55,5.15,6.45-5.01,10.47-8.4,13.23-11.19,1.62,1.54,3.34,3.42,5.35,5.11Z"/>
    <path class="cls-4" d="m90.49,140.93l-.03.5c-3.68-.23-8.99.48-12.61.36-.85-.03-1.52-.05-2.06-.07,0,0,3.83-8.16,8.24-8.6s6.32,4.73,6.47,7.81Z"/>
    <path class="cls-7" d="m67.7,92.02c-.05.14-1.04,1.41-14.53,10.54-1.52-4.84-.55-18.44.54-26.48.07-.45.13-.88.19-1.3.95-6.33,5.02-10.62,9.26-15.56l1.91.05,18.3,8.6,1.39,1.76c-2.84,2.55-6.1,6.91-9.98,12.93-2.31,3.6-4.43,6.73-6.61,9.77l-.46-.33Z"/>
    <path class="cls-4" d="m72.77,140.84h0c-3.42.66-19.92-2.46-20.38-2.55.42-.16.86-.34,1.32-.54,0,0,0,0,.03-.02.65-.27,1.33-.58,2.06-.92,2.1-.84,5.54-1.93,9.26-1.93,5.56,0,4.74,2.75,7.71,5.95Z"/>
    <path class="cls-10" d="m53.71,76.08c-1.1,8.04-2.06,21.65-.54,26.48-8.85,5.99-12.67,10.9-14.22,15.21l-.19-.07c-9.11.73-10.14-6.17-10.72-12.64s-.15-13.23,5.29-19.55c5.43-6.32,14.7-7.94,20.39-9.43Z"/>
  </g>
  <path class="cls-2" d="m52.38,138.29c-2.85,1.1-4.87,1.47-6.42,1.74-4.12.73-7.94-.44-7.65-8.38.16-4.34-1.26-8.69.63-13.89,1.55-4.31,5.37-9.21,14.22-15.21,13.5-9.14,14.48-10.4,14.53-10.54.02-.03.02-.03.02-.04"/>
  <path class="cls-2" d="m53.71,137.76c-.46.2-.9.37-1.32.54"/>
  <path class="cls-2" d="m53.75,110.79c6.11-7.45,10.36-12.8,14.4-18.44,2.18-3.04,4.3-6.17,6.61-9.77,3.88-6.03,7.14-10.39,9.98-12.93,2.01-1.8,3.81-2.7,5.45-2.64,2.81.1,8.97,2.79,13.17,4.29,1.73.62,3.12,1.04,3.81.99.21-.02.34.14.38.44.17,1.03-.59,3.82-1.91,7.44-.34.94-.72,1.93-1.12,2.98-1.68,4.27-3.88,9.22-6.13,13.77-.33.66-.66,1.32-.99,1.97-.7,1.36-1.3,2.57-1.84,3.68-1.99,3.99-3.38,6.64-7.12,10.41-2.75,2.79-6.78,6.18-13.23,11.19-8.63,6.69-14.83,10.46-19.4,12.65-.73.35-1.42.66-2.06.92"/>
  <path class="cls-2" d="m107.58,72.72c4.37-1.39,6.91-3.96,8.74-5.51.5-.41,2.01-1.16,3.13-1.26.38-.03.72,0,.95.16,1.36.87,2.38,2.74,2.66,3.15.12.18.14.41.08.61-.14.55-.79,1-1.42.38-.83-.84-1.76-2.16-1.76-2.16l-1.99,1.23s2.48,1.02,2.9,1.48c.47.51.02,1.25-.54,1.05-.75-.28-2.38-.75-2.38-.75l-.07.23,2.39,1.14s.19,1.12-.92,1.04l-2.35-.58-.16.28,2.95,1.48s.49,1.17.28,1.93c-.21.72-.57,1.11-.89,1.17-.35.09-.64-.22-.54-.94.09-.77-.28-1.34-.78-1.5-.49-.16-1.43.26-1.43.26-.6,1.24-1.3,2.18-2.02,2.85-1.51,1.43-3.13,1.79-4.22,1.68-1.61-.15-4.54,0-4.54,0"/>
  <path class="cls-2" d="m136.6,98.11c.65-.27,1.15-.51,1.33-.57.25-.09,1.23-.28,2.47-.51,2.75-.52,6.76-1.2,6.76-1.2"/>
  <path class="cls-2" d="m131.18,96.72c-.6.13-1.62.38-2.16.76-.79.56-.46,1.4.16,1.55.43.2,2.31-.11,3.34.03,1.19.16,2.89-.45,4.08-.94"/>
  <path class="cls-2" d="m131.64,96.64s-.03,0-.08.02"/>
  <path class="cls-2" d="m131.34,96.69c.09-.02.17-.03.22-.03"/>
  <path class="cls-2" d="m131.34,96.69c-.05,0-.1.03-.16.03"/>
  <path class="cls-2" d="m134.41,89.76s-3.86.16-5.33.36-1.73.85-1.71,1.43c0,.6.22.58,1.39.47,1.17-.11,1.88.09,1.88.09-.22.03-2.37.24-3.63.44-.95.16-.83,2.16-.3,2.11.7-.08,1.34-.05,2.01-.07,1.36-.03,2.54-.05,2.54-.05,0,0-3.39.12-4.05.55-.41.26-.55.97-.19,1.43.17.24.47.42.94.45,1.04.07,2.49-.14,3.21-.25"/>
  <path class="cls-2" d="m143.6,89.8h-.17c-4.15.06-6.21-1.8-7.62-2.18-1.49-.4-2.71-1.17-4.15-.3-.37.22-.65.47-.82.72-.52.71-.25,1.39.62,1.39.5,0,1.58-.06,2.28.14.42.11.6.16.67.19h.04"/>
  <path class="cls-2" d="m120.8,9.59c-2.29-1.62-3.77-3.75-7.97.88-4.26,4.71-7.35,9.34-11.46,11.4-.64.32-1.26.54-1.86.72-3.24.92-6.04.26-10.64,4.72-5.44,5.29-17.64,21.75-22.79,28.36-.97,1.24-1.95,2.42-2.94,3.55-4.24,4.94-8.31,9.23-9.26,15.56-.06.41-.12.85-.19,1.3-1.1,8.04-2.06,21.65-.54,26.48"/>
  <path class="cls-2" d="m53.71,76.08c-5.69,1.49-14.95,3.11-20.39,9.43-5.44,6.32-5.88,13.08-5.29,19.55s1.61,13.37,10.72,12.64"/>
  <line class="cls-2" x1="74.98" y1="49.36" x2="88.44" y2="65.95"/>
  <line class="cls-2" x1="65.06" y1="59.28" x2="83.36" y2="67.88"/>
  <path class="cls-2" d="m94.61,63.58l-11.25-20.17,9.26-2.87s0,3.08,1.99,8.82"/>
  <path class="cls-2" d="m101.88,23.57s-.88,34.39,0,36.82c.85,2.34,1.77,8,3.58,10.16.06.07.12.14.18.2"/>
  <path class="cls-2" d="m113.48,23.57c.25.87.62,2.07,1.06,3.5,2.82,9.03,8.87,27.22,10.36,29.52"/>
  <path class="cls-2" d="m130.47,42.74c-.19,1.58-2.55,8.12-5.57,13.85-1.74,3.3-3.7,6.32-5.6,7.98,0,0-4.89-13.16-4.89-18.96,0-3.11-.49-12.86-.93-22.03h0c-.38-7.98-.72-10.74-.65-13.1"/>
  <path class="cls-2" d="m127.82,43.62s1.15-.3,2.6-.99c1.18-.57,2.57-1.41,3.68-2.56"/>
  <path class="cls-2" d="m121.67,25.94c.3,2.43,1.31,5.63,3.8,9.2"/>
  <path class="cls-2" d="m121.67,25.93c.07-1.46.21-4.74-.03-2.88-.09.76-.11,1.74.03,2.88Z"/>
  <line class="cls-2" x1="121.67" y1="25.93" x2="121.67" y2="25.94"/>
  <path class="cls-2" d="m132.39,38.62c.46.35,1.09.64,1.83.85.71.2,1.51.35,2.37.42,2.28.24,4.91.06,6.91-.48.77-.22,1.44-.47,1.96-.79,1.05-.63,1.98-1.59,2.75-2.69.16-.23.33-.47.47-.72.13-.2.25-.41.37-.61.92-1.64,1.55-3.4,1.84-4.8.43-2.05.71-6.58.47-11.1-.09-1.62-.23-3.26-.47-4.77-.88-5.73-3.39-10.88-8.97-12.64s-15.46-.51-17.5,2.83c-1.19,1.95-2.56,3.62-3.63,5.47-.76,1.3-1.35,2.69-1.61,4.34-1.31.23-2.53-.15-3.26,3.52-.44,2.21-.56,4.52-.08,6.17.31,1.11.9,1.92,1.84,2.21,2.35.73,3.96.73,3.96.73,0,0,0-.26.03-.64"/>
  <path class="cls-2" d="m119.18,13.94c1.23-.3,4.2,1.32,3.99,2.64"/>
  <path class="cls-2" d="m129.88,13.35s3.23-3.83,7.05-2.65"/>
  <path class="cls-2" d="m144.43,10.48s4.11,0,4.26,1.44"/>
  <path class="cls-2" d="m144.43,15.26s.2,1.59.42,3.58c.38,3.18.84,7.37.75,7.74-.09.41-1.17.88-2.11.99-.44.05-.85.03-1.13-.11"/>
  <path class="cls-2" d="m131.64,18.79s3.97-2.5,7.94-1.48"/>
  <path class="cls-2" d="m146.56,18.79s2.42-.89,3.31,0"/>
  <path class="cls-2" d="m138.55,32.46s2.94-.59,5.88,0"/>
  <path class="cls-3" d="m140.85,28.53c-.27,1.2-.99,2.29-1.99,3.05-.5.38-1.04.9-1.72.89-.66.03-1.34-.14-1.9-.68-.05-.05-.06-.14,0-.19.28-.3.53-.49.77-.65.63-.54,1.28-.59,2.06-.76.46-.16.92-.4,1.36-.68.46-.28.87-.65,1.25-1.07.06-.08.2,0,.18.09h0Z"/>
  <path class="cls-3" d="m144.52,28.79c.69.82,1.58,1.45,2.53,1.84,1.27.26,1.83.5,2.77,1.51.05.06.05.15,0,.2-1.2,1.03-2.63.68-3.61-.36-.97-.79-1.65-1.91-1.87-3.12-.02-.1.13-.16.19-.07h0Z"/>
  <path class="cls-2" d="m128.04,59.83c-1.41,3.16-2.72,6.01-3.68,7.9-.52,1.03-.94,1.78-1.22,2.15"/>
  <path class="cls-2" d="m136.59,39.9s-4.65,11.16-8.54,19.93"/>
  <path class="cls-2" d="m152.05,108.8c-.82.14-2.1-.5-3.44-1.4-.34-.23-.68-.47-1.02-.73l-2.58-1.91s-4.42-5.24-4.62-7.73c0-.04,0-.09,0-.12"/>
  <path class="cls-2" d="m143.63,39.9s-.92,3.86-2.43,9.31c-.8,2.89-1.76,6.23-2.83,9.66-2.62,8.38-5.88,17.39-9.04,22.08-.5.76-1.01,1.41-1.51,1.92,6.91.59,12.43,1.5,14.55,5.17.27.46.63,1.05,1.06,1.76.99,1.61,2.35,3.77,3.73,6.04,2.85,4.67,5.79,9.78,5.79,11.42,0,.76-.21,1.2-.55,1.4-.1.07-.22.11-.34.14"/>
  <path class="cls-2" d="m218.28,112.01c-.22,1.82-.37,3.05-.37,3.05v9.84s1.77,6.61,0,10.14c-1.76,3.53-11.46,8.24-17.48,7.65-6.03-.6-10.15-3.38-10.15-3.38l-3.08.15s1.06,2.05-3,1.47-6.26-2.05-6.26-2.05l-6.03-.73c-3.97,2.94-7.2,7.94-13.67,2.79-.1-.1-.22-.21-.33-.29-2.29-1.89-6.29-1.76-6.29-1.76,0,0-.73,4.45-4.27,4.28-2.37-.11-4.62-1.38-6.15-2.21-.74-.4-1.31-.7-1.64-.71-1.03-.04-3.78.98-7.18,2.31-.95.37-1.86.48-2.7.43-2.19-.11-4.01-1.32-5.27-2.05-1.74-1.17-3.66-.44-7.62.29-1.04.19-2.05.27-3,.23-2.67-.06-4.89-.87-6.22-1.85-.91-.66-.95-.72-1.38-.5-.42.22-1.23.71-3.65,1.13-2.99.52-4.85,1.22-6.67,1.5-1.15.19-2.26.21-3.63-.08-.53-.11-1.13-.18-1.79-.22-3.68-.23-8.99.48-12.61.36-.85-.03-1.52-.05-2.06-.07l-2.19-.08c-.31-.28-.58-.54-.82-.81-2.97-3.19-2.15-5.95-7.71-5.95-3.71,0-7.16,1.09-9.26,1.93-1.15.45-1.89.84-2.06.92-.03,0-.03.02-.03.02"/>
  <path class="cls-2" d="m148.69,35.22c.81,1.33,1.98,2.96,3.37,4.77,6.42,8.43,17.48,20.91,18.46,26.71,1.4,8.3,9.3,12.3,10.62,14.18s6.06-1.87,9.7-1.99c3.64-.1,12.23,5.29,14.89,6.17.84.28,2.56,1.18,4.52,2.43,4.2,2.63,9.47,6.77,9.47,9.48,0,1.71-.33,5.29-.72,8.82-.24,2.26-.5,4.51-.72,6.21"/>
  <path class="cls-2" d="m52.38,138.29h0c.46.09,16.96,3.2,20.38,2.56"/>
  <path class="cls-2" d="m75.79,141.73s3.83-8.16,8.24-8.6,6.32,4.73,6.47,7.81"/>
  <path class="cls-2" d="m95.88,141.73c2.25-5.36,5.2-10.41,7.11-8.69,1.53,1.36,2.77,4.76,3.21,6.06"/>
  <path class="cls-2" d="m113.8,141.44c3.17-3.86,5.52-7.75,7.85-6.99.49.16.99.54,1.5,1.17,2.55,3.21,5.78,6.55,6.54,7.34"/>
  <path class="cls-2" d="m84.02,133.13c9.26-4.4,17.47-10.87,17.47-10.87"/>
  <path class="cls-2" d="m75.21,124.16c5.15,1.91,15.84-3.68,17.55-5.15"/>
  <path class="cls-2" d="m88.44,112.97c1.62,1.54,3.34,3.42,5.35,5.11,2.15,1.8,4.63,3.38,7.72,4.11,2.64.62,5.72.62,9.41-.41"/>
  <path class="cls-2" d="m117.83,119.02s4.4,11.33,3.82,15.44"/>
  <path class="cls-2" d="m98.39,96.91c3.46,2.85,9.32,7.07,14.45,7.79.8.11,1.59.14,2.35.06"/>
  <path class="cls-2" d="m112.82,104.81c.78,2.48,3.14,8.2,6.38,12.93,1.69,2.47,3.63,4.67,5.7,5.98"/>
  <path class="cls-2" d="m95.56,102.56s4.29,3.96,5.93,5.14c1.64,1.18-.47,2.62-.37,5.28.1,2.67,2.56,2.77,5.66,4.77"/>
  <path class="cls-2" d="m103.56,115.2c3.38-1.18,5.3-2.93,6.04-6.39"/>
  <path class="cls-2" d="m138.4,116.23l.05.08c.74,1.3,11.1,18.92,22.14,21.98"/>
  <path class="cls-2" d="m130.47,121.42s7.05,8.63,9.92,10.24"/>
  <path class="cls-2" d="m141.22,140.93c2.62-1.78,10.12-7.37,10.41-2.07"/>
  <path class="cls-2" d="m175.24,133.38c-.19-.02-.38-.04-.56-.07-1.61-.18-2.89-.22-3.5-.18-2.21.15-7.09,2.61-10.59,5.16-.62.46-2.68,2.33-2.68,2.33"/>
  <path class="cls-2" d="m187.2,139.45c-1.08-2.43-3.83-3.97-6.79-4.92-1.74-.56-3.54-.92-5.11-1.13"/>
  <path class="cls-2" d="m174.75,133.12c.23.17.41.24.48.26t.02,0s.04,0,.04,0"/>
  <path class="cls-2" d="m143.6,112.01c.5.9,10.08,14.22,15.01,14.73,1.61.17,3.54.39,5.46.7,3.96.64,7.87,1.66,8.83,3.34.79,1.37,1.43,2.03,1.86,2.33"/>
  <path class="cls-2" d="m162.5,76.08s1.85,3.32,5.02,8.1c.39.59.79,1.19,1.22,1.82.7,1.02,1.44,2.08,2.23,3.19,1.36,1.92,2.88,3.94,4.5,5.98,5.63,7.13,12.65,14.57,20.11,19.1"/>
  <polyline class="cls-2" points="148.21 35.94 148 45.58 147.6 63.58"/>
  <polyline class="cls-2" points="152.05 39.91 152.05 40 151.5 61.88 151.45 63.9"/>
  <polyline class="cls-2" points="147.6 69.88 147.6 80.67 147.6 80.96"/>
  <polyline class="cls-2" points="151.2 69.88 151.2 72.06 151.2 83.23"/>
  <path class="cls-2" d="m153.02,68.22v.11c.03.64-.46,1.18-1.1,1.22l-.74.03-3.59.17-.68.03c-.65.03-1.19-.46-1.22-1.11l-.16-3.26c-.03-.64.47-1.18,1.11-1.22l.99-.05,3.83-.18h.2c.65-.04,1.19.46,1.22,1.1l.02.37.14,2.77Z"/>
  <path class="cls-2" d="m118.86,81.92c1.73.79,3.97,1.36,6.77,1.21.7-.03,1.42-.12,2.19-.26"/>
  <path class="cls-2" d="m114.41,78.48s1.42,2.05,4.45,3.43"/>
  <path class="cls-2" d="m104.51,83.14h0l6.4,1.37s3.55,2.88,6.74,3.49c.05.02.11.03.16.03"/>
  <path class="cls-2" d="m127.02,96.53s-5.28,4.97-8.26,5.14"/>
  <path class="cls-2" d="m120.1,105.38c4.16-.47,7.55,1.74,9.77,4.77,1.46,1.99,1.96,2.68,2.13,2.91l.09.12"/>
  <line class="cls-2" x1="132.08" y1="105.79" x2="136.71" y2="110.11"/>
  <path class="cls-2" d="m152.05,108.8h0c.11-.05.22-.09.34-.14,7.89-3.07,7.49.25,10.1-3.85"/>
  <path class="cls-2" d="m129.34,80.96c5.72-.14,13.46-2.31,18.26-.28.22.09.41.18.61.28.98.51,1.98,1.3,2.99,2.27h0c3.87,3.7,7.92,9.87,11.16,11.86.04.03.09.06.14.09"/>
  <path class="cls-2" d="m167.14,87.49c-1.54,2.62-3.56,5.13-4.77,7.59-1.23,2.5-1.63,4.96.14,7.48.33.47.64.9.93,1.29,2.8,3.77,3.7,4.1,3.7,4.1"/>
  <path class="cls-2" d="m147.6,108.43s11.29,17.47,16.62,18.11"/>
  <path class="cls-2" d="m175.46,95.17s3.52,1.02,8.05,2.37c6.7,2,15.58,4.76,18.38,6.06,4.7,2.18,15.27,6.08,16.39,8.39h0s0,0,0,0"/>
  <path class="cls-2" d="m209.09,113.18c2.2,1.28,8.82,7.16,8.82,9.44"/>
  <path class="cls-2" d="m190.28,139.3c-3.82-5.88-6.47-7.49,0-7.64s24.25-2.94,27.63,3.38"/>
  <path class="cls-2" d="m171.91,138.13s2.04-2.94,2.76-4.82c.03-.07.05-.13.08-.19h0"/>
  <line class="cls-2" x1="180.41" y1="134.53" x2="177.94" y2="138.86"/>
  <line class="cls-2" x1="117.83" y1="88.04" x2="130.83" y2="88.04"/>
  <path class="cls-2" d="m136.6,98.11h0s3.79,8.45,3.79,8.45c-.86,1.24-2.18,2.44-3.68,3.54-1.48,1.1-3.13,2.1-4.71,2.95-3.54,1.93-6.72,3.17-6.72,3.17"/>
  <line class="cls-2" x1="170.96" y1="89.19" x2="185.73" y2="88.04"/>
  <line class="cls-2" x1="167.52" y1="84.18" x2="181.14" y2="80.88"/>
  <path class="cls-2" d="m183.51,97.54c1.58-.62,3.51-1.2,5.6-1.71,7.21-1.76,16.25-2.68,19.11-1.65.28.09.57.25.88.44,3.83,2.37,9.9,11.16,9.9,11.16"/>
  <line class="cls-2" x1="209.09" y1="94.63" x2="210.24" y2="87.49"/>
  <line class="cls-2" x1="199.1" y1="82.53" x2="200.28" y2="91.06"/>
  <line class="cls-2" x1="189.1" y1="79.81" x2="191.9" y2="90.07"/>
  <polyline class="cls-2" points="184.26 84.18 185.84 87.99 189.1 95.84"/>
  <polyline class="cls-2" points="151.58 61.88 154.29 59.42 156.2 62.56 152.88 65.45"/>
  <polyline class="cls-2" points="152.95 68.01 153.02 68.22 154.92 73.71 152.05 75 151.2 72.06"/>
  <polyline class="cls-2" points="128.04 59.83 128.05 59.83 138.37 58.87"/>
  <line class="cls-2" x1="141.49" y1="49.29" x2="148" y2="45.58"/>
  <line class="cls-2" x1="124.9" y1="68.01" x2="125.62" y2="83.12"/>
  <path class="cls-2" d="m119.18,77.82l-.33,4.09h0c-.58,1.78-.98,3.88-1.19,6.1-.32,3.27-.25,6.81.16,9.96.12.93.45,2.22.93,3.7.36,1.14.82,2.41,1.34,3.72,1.45,3.67,3.37,7.75,5.18,10.84,1.43,2.47,2.81,4.3,3.83,4.77,3.31,1.55,5.91-1.63,7.61-3.2.35-.33.97-.85,1.74-1.49,1.39-1.17,3.3-2.74,5.14-4.31,1.49-1.26,2.93-2.52,4.01-3.57.4-.38.73-.73,1.02-1.04"/>
  <path class="cls-2" d="m115.84,23.57v.07c0,.32-.12,1.66-1.3,3.44"/>
</svg>