<?xml version="1.0" encoding="UTF-8"?>
<svg xmlns="http://www.w3.org/2000/svg" viewBox="0 0 270.4 208.22">
  <defs>
    <style>
      .cls-1 {
        fill: #ff6346;
      }

      .cls-1, .cls-2, .cls-3, .cls-4, .cls-5, .cls-6 {
        stroke-width: 0px;
      }

      .cls-7 {
        stroke-miterlimit: 10;
      }

      .cls-7, .cls-8 {
        stroke: #000;
      }

      .cls-7, .cls-8, .cls-9 {
        fill: none;
      }

      .cls-2 {
        fill: #f3edd7;
      }

      .cls-8, .cls-9 {
        stroke-linecap: round;
        stroke-linejoin: round;
      }

      .cls-3 {
        fill: #333;
      }

      .cls-4 {
        fill: #ffeccb;
      }

      .cls-5 {
        fill: #d2d296;
      }

      .cls-6 {
        fill: #826c93;
      }

      .cls-9 {
        stroke: #fff;
        stroke-width: .5px;
      }
    </style>
  </defs>
  <g id="_畳" data-name="畳">
    <g>
      <g>
        <rect class="cls-2" x=".24" y="173.57" width="3.62" height="5.03"/>
        <path class="cls-2" d="m270.15,201.15v6.57h-30.45l15.35-8.63c1.03,1.62,3.11,2.72,5.51,2.72s4.62-1.18,5.62-2.88l3.97,2.23Z"/>
        <path class="cls-2" d="m270.15,190.59v10.56l-3.97-2.23c.38-.65.59-1.38.59-2.14,0-1.3-.62-2.48-1.62-3.38l4.99-2.8Z"/>
        <path class="cls-2" d="m270.15,178.6v11.99l-4.99,2.8c-1.14-1.01-2.77-1.64-4.59-1.64s-3.31.58-4.44,1.51l-26.1-14.67h40.12Z"/>
        <polygon class="cls-2" points="270.15 109.32 270.15 115.09 1.13 115.09 .24 115.09 .24 109.32 270.15 109.32"/>
        <rect class="cls-2" x="266.16" y="173.57" width="3.99" height="5.03"/>
        <path class="cls-2" d="m266.78,196.78c0,.76-.21,1.49-.59,2.14l-5.42-3.05,4.39-2.47c1,.89,1.62,2.08,1.62,3.38Z"/>
        <path class="cls-2" d="m260.77,195.87l5.42,3.05c-1,1.7-3.13,2.88-5.62,2.88s-4.48-1.1-5.51-2.72l5.71-3.21Z"/>
        <rect class="cls-3" x="254.85" y="173.57" width="11.31" height="5.03"/>
        <path class="cls-2" d="m265.16,193.4l-4.39,2.47-4.64-2.61c1.13-.93,2.7-1.51,4.44-1.51,1.82,0,3.46.63,4.59,1.64Z"/>
        <path class="cls-2" d="m260.77,195.87l-5.71,3.21c-.44-.69-.69-1.48-.69-2.31,0-1.37.68-2.61,1.77-3.51l4.64,2.61Z"/>
        <path class="cls-2" d="m230.03,178.6l26.1,14.67c-1.09.9-1.77,2.14-1.77,3.51,0,.83.25,1.62.69,2.31l-15.35,8.63h-41.48l-15.65-8.8c.38-.65.59-1.38.59-2.14,0-1.3-.62-2.48-1.62-3.37l26.34-14.81h22.15Zm-5.97,18.18c0-2.77-2.25-5.02-5.02-5.02s-5.03,2.25-5.03,5.02,2.25,5.03,5.03,5.03,5.02-2.25,5.02-5.03Z"/>
        <polygon class="cls-2" points="254.85 178.6 230.03 178.6 224.33 178.6 224.33 173.57 254.85 173.57 254.85 178.6"/>
        <rect class="cls-3" x="213.02" y="173.57" width="11.31" height="5.03"/>
        <path class="cls-3" d="m219.05,191.76c2.77,0,5.02,2.25,5.02,5.02s-2.25,5.03-5.02,5.03-5.03-2.25-5.03-5.03,2.25-5.02,5.03-5.02Z"/>
        <path class="cls-2" d="m207.88,178.6l-26.34,14.81c-1.14-1.02-2.77-1.65-4.59-1.65s-3.31.58-4.44,1.51l-26.1-14.67h61.47Z"/>
        <polygon class="cls-2" points="182.5 178.6 182.5 173.57 213.02 173.57 213.02 178.6 207.88 178.6 182.5 178.6"/>
        <path class="cls-2" d="m198.21,207.72h-42.13l15.35-8.63c1.03,1.62,3.12,2.72,5.51,2.72s4.62-1.18,5.62-2.88l15.65,8.8Z"/>
        <path class="cls-2" d="m183.16,196.78c0,.76-.21,1.49-.59,2.14l-5.42-3.05,4.39-2.47c1,.89,1.62,2.07,1.62,3.37Z"/>
        <path class="cls-2" d="m177.15,195.87l5.42,3.05c-1,1.7-3.13,2.88-5.62,2.88s-4.48-1.1-5.51-2.72l5.71-3.21Z"/>
        <rect class="cls-3" x="171.19" y="173.57" width="11.31" height="5.03"/>
        <path class="cls-2" d="m176.95,191.76c1.82,0,3.46.63,4.59,1.65l-4.39,2.47-4.64-2.61c1.13-.93,2.7-1.51,4.44-1.51Z"/>
        <path class="cls-2" d="m177.15,195.87l-5.71,3.21c-.44-.69-.69-1.48-.69-2.31,0-1.37.68-2.61,1.77-3.51l4.64,2.61Z"/>
        <path class="cls-2" d="m146.41,178.6l26.1,14.67c-1.09.9-1.77,2.14-1.77,3.51,0,.83.25,1.62.69,2.31l-15.35,8.63h-41.48l-15.65-8.8c.38-.65.59-1.38.59-2.14,0-1.3-.62-2.48-1.62-3.37l26.34-14.81h22.15Zm-7.02,18.18c0-2.77-2.25-5.02-5.02-5.02s-5.03,2.25-5.03,5.02,2.25,5.03,5.03,5.03,5.02-2.25,5.02-5.03Z"/>
        <polygon class="cls-2" points="171.19 178.6 146.41 178.6 140.67 178.6 140.67 173.57 171.19 173.57 171.19 178.6"/>
        <rect class="cls-3" x="129.36" y="173.57" width="11.31" height="5.03"/>
        <path class="cls-3" d="m134.38,191.76c2.77,0,5.02,2.25,5.02,5.02s-2.25,5.03-5.02,5.03-5.03-2.25-5.03-5.03,2.25-5.02,5.03-5.02Z"/>
        <path class="cls-2" d="m124.26,178.6l-26.34,14.81c-1.14-1.02-2.77-1.65-4.59-1.65s-3.31.58-4.44,1.51l-26.1-14.67h61.47Z"/>
        <polygon class="cls-2" points="129.36 178.6 124.26 178.6 98.83 178.6 98.83 173.57 129.36 173.57 129.36 178.6"/>
        <path class="cls-2" d="m114.6,207.72h-42.13l15.35-8.63c1.03,1.62,3.11,2.72,5.51,2.72s4.62-1.18,5.62-2.88l15.65,8.8Z"/>
        <path class="cls-2" d="m99.54,196.78c0,.76-.21,1.49-.59,2.14l-5.42-3.05,4.39-2.47c1,.89,1.62,2.07,1.62,3.37Z"/>
        <path class="cls-2" d="m93.53,195.87l5.42,3.05c-1,1.7-3.13,2.88-5.62,2.88s-4.48-1.1-5.51-2.72l5.71-3.21Z"/>
        <rect class="cls-3" x="87.53" y="173.57" width="11.31" height="5.03"/>
        <path class="cls-2" d="m93.33,191.76c1.82,0,3.46.63,4.59,1.65l-4.39,2.47-4.64-2.61c1.13-.93,2.7-1.51,4.44-1.51Z"/>
        <path class="cls-2" d="m93.53,195.87l-5.71,3.21c-.44-.69-.69-1.48-.69-2.31,0-1.37.68-2.61,1.77-3.51l4.64,2.61Z"/>
        <path class="cls-2" d="m62.8,178.6l26.1,14.67c-1.09.9-1.77,2.14-1.77,3.51,0,.83.25,1.62.69,2.31l-15.35,8.63H30.79l-15.65-8.8c.38-.65.59-1.38.59-2.14,0-1.3-.62-2.48-1.62-3.37l26.34-14.81h22.34Zm-8.53,18.18c0-2.77-2.25-5.02-5.02-5.02s-5.03,2.25-5.03,5.02,2.25,5.03,5.03,5.03,5.02-2.25,5.02-5.03Z"/>
        <polygon class="cls-2" points="87.53 178.6 62.8 178.6 57 178.6 57 173.57 87.53 173.57 87.53 178.6"/>
        <rect class="cls-3" x="45.7" y="173.57" width="11.31" height="5.03"/>
        <path class="cls-3" d="m49.25,191.76c2.77,0,5.02,2.25,5.02,5.02s-2.25,5.03-5.02,5.03-5.03-2.25-5.03-5.03,2.25-5.02,5.03-5.02Z"/>
        <polygon class="cls-2" points="45.7 178.6 40.45 178.6 15.17 178.6 15.17 173.57 45.7 173.57 45.7 178.6"/>
        <path class="cls-2" d="m30.79,207.72H.24v-6.52l3.76-2.11c1.03,1.62,3.12,2.72,5.51,2.72s4.62-1.18,5.62-2.88l15.65,8.8Z"/>
        <path class="cls-2" d="m15.73,196.78c0,.76-.21,1.49-.59,2.14l-5.42-3.05,4.39-2.47c1,.89,1.62,2.07,1.62,3.37Z"/>
        <rect class="cls-3" x="3.87" y="173.57" width="11.31" height="5.03"/>
        <path class="cls-2" d="m9.72,195.87l5.42,3.05c-1,1.7-3.13,2.88-5.62,2.88s-4.48-1.1-5.51-2.72l5.71-3.21Z"/>
        <path class="cls-2" d="m9.52,191.76c1.82,0,3.46.63,4.59,1.65l-4.39,2.47-4.64-2.61c1.13-.93,2.7-1.51,4.44-1.51Z"/>
        <path class="cls-2" d="m9.72,195.87l-5.71,3.21c-.44-.69-.69-1.48-.69-2.31,0-1.37.68-2.61,1.77-3.51l4.64,2.61Z"/>
        <path class="cls-2" d="m.24,190.55l4.84,2.72c-1.09.9-1.77,2.14-1.77,3.51,0,.83.25,1.62.69,2.31l-3.76,2.11v-10.65Z"/>
        <polygon class="cls-5" points="213.02 173.57 182.5 173.57 171.19 173.57 140.67 173.57 129.36 173.57 98.83 173.57 87.53 173.57 57 173.57 45.7 173.57 15.17 173.57 3.87 173.57 .24 173.57 .24 115.09 1.13 115.09 270.15 115.09 270.15 173.57 266.16 173.57 254.85 173.57 224.33 173.57 213.02 173.57"/>
        <path class="cls-2" d="m.24,178.6h40.21l-26.34,14.81c-1.14-1.02-2.77-1.65-4.59-1.65s-3.31.58-4.44,1.51l-4.84-2.72v-11.95Z"/>
      </g>
      <g>
        <polyline class="cls-7" points="270.15 207.72 239.7 207.72 198.21 207.72 156.08 207.72 114.6 207.72 72.46 207.72 30.79 207.72 .24 207.72"/>
        <line class="cls-7" x1=".24" y1="109.32" x2="270.15" y2="109.32"/>
        <line class="cls-7" x1=".24" y1="115.09" x2="270.15" y2="115.09"/>
        <line class="cls-7" x1="266.16" y1="173.57" x2="270.15" y2="173.57"/>
        <line class="cls-7" x1="224.33" y1="173.57" x2="254.85" y2="173.57"/>
        <line class="cls-7" x1="182.5" y1="173.57" x2="213.02" y2="173.57"/>
        <line class="cls-7" x1="140.67" y1="173.57" x2="171.19" y2="173.57"/>
        <line class="cls-7" x1="98.83" y1="173.57" x2="129.36" y2="173.57"/>
        <line class="cls-7" x1="57" y1="173.57" x2="87.53" y2="173.57"/>
        <line class="cls-7" x1="15.17" y1="173.57" x2="45.7" y2="173.57"/>
        <line class="cls-7" x1=".24" y1="173.57" x2="3.87" y2="173.57"/>
        <line class="cls-7" x1="266.16" y1="178.6" x2="270.15" y2="178.6"/>
        <polyline class="cls-7" points="224.33 178.6 230.03 178.6 254.85 178.6"/>
        <polyline class="cls-7" points="182.5 178.6 207.88 178.6 213.02 178.6"/>
        <polyline class="cls-7" points="140.67 178.6 146.41 178.6 171.19 178.6"/>
        <polyline class="cls-7" points="98.83 178.6 124.26 178.6 129.36 178.6"/>
        <polyline class="cls-7" points="57 178.6 62.8 178.6 87.53 178.6"/>
        <polyline class="cls-7" points="15.17 178.6 40.45 178.6 45.7 178.6"/>
        <line class="cls-7" x1=".24" y1="178.6" x2="3.87" y2="178.6"/>
        <polyline class="cls-7" points="72.46 207.72 87.81 199.09 93.53 195.87 97.92 193.41 124.26 178.6"/>
        <polyline class="cls-7" points="114.6 207.72 98.95 198.92 93.53 195.87 88.89 193.27 62.8 178.6"/>
        <path class="cls-7" d="m139.4,196.78c0,2.78-2.25,5.03-5.02,5.03s-5.03-2.25-5.03-5.03,2.25-5.02,5.03-5.02,5.02,2.25,5.02,5.02Z"/>
        <path class="cls-7" d="m224.07,196.78c0,2.78-2.25,5.03-5.02,5.03s-5.03-2.25-5.03-5.03,2.25-5.02,5.03-5.02,5.02,2.25,5.02,5.02Z"/>
        <path class="cls-7" d="m97.92,193.41c1,.89,1.62,2.07,1.62,3.37,0,.76-.21,1.49-.59,2.14-1,1.7-3.13,2.88-5.62,2.88s-4.48-1.1-5.51-2.72c-.44-.69-.69-1.48-.69-2.31,0-1.37.68-2.61,1.77-3.51,1.13-.93,2.7-1.51,4.44-1.51,1.82,0,3.46.63,4.59,1.65Z"/>
        <polyline class="cls-7" points=".24 201.2 4.01 199.09 9.72 195.87 14.11 193.41 40.45 178.6"/>
        <polyline class="cls-7" points="30.79 207.72 15.14 198.92 9.72 195.87 5.08 193.27 .24 190.55"/>
        <path class="cls-7" d="m14.11,193.41c1,.89,1.62,2.07,1.62,3.37,0,.76-.21,1.49-.59,2.14-1,1.7-3.13,2.88-5.62,2.88s-4.48-1.1-5.51-2.72c-.44-.69-.69-1.48-.69-2.31,0-1.37.68-2.61,1.77-3.51,1.13-.93,2.7-1.51,4.44-1.51,1.82,0,3.46.63,4.59,1.65Z"/>
        <polyline class="cls-7" points="156.08 207.72 171.43 199.09 177.15 195.87 181.54 193.41 207.88 178.6"/>
        <polyline class="cls-7" points="198.21 207.72 182.57 198.92 177.15 195.87 172.51 193.27 146.41 178.6"/>
        <path class="cls-7" d="m181.54,193.41c1,.89,1.62,2.07,1.62,3.37,0,.76-.21,1.49-.59,2.14-1,1.7-3.13,2.88-5.62,2.88s-4.48-1.1-5.51-2.72c-.44-.69-.69-1.48-.69-2.31,0-1.37.68-2.61,1.77-3.51,1.13-.93,2.7-1.51,4.44-1.51,1.82,0,3.46.63,4.59,1.65Z"/>
        <polyline class="cls-7" points="239.7 207.72 255.05 199.09 260.77 195.87 265.16 193.4 270.15 190.59"/>
        <polyline class="cls-7" points="270.15 201.15 266.18 198.92 260.77 195.87 256.13 193.27 230.03 178.6"/>
        <path class="cls-7" d="m265.16,193.4c1,.89,1.62,2.08,1.62,3.38,0,.76-.21,1.49-.59,2.14-1,1.7-3.13,2.88-5.62,2.88s-4.48-1.1-5.51-2.72c-.44-.69-.69-1.48-.69-2.31,0-1.37.68-2.61,1.77-3.51,1.13-.93,2.7-1.51,4.44-1.51,1.82,0,3.46.63,4.59,1.64Z"/>
        <path class="cls-7" d="m54.27,196.78c0,2.78-2.25,5.03-5.02,5.03s-5.03-2.25-5.03-5.03,2.25-5.02,5.03-5.02,5.02,2.25,5.02,5.02Z"/>
        <rect class="cls-7" x="3.87" y="173.57" width="11.31" height="5.03"/>
        <rect class="cls-7" x="45.7" y="173.57" width="11.31" height="5.03"/>
        <rect class="cls-7" x="87.53" y="173.57" width="11.31" height="5.03"/>
        <rect class="cls-7" x="129.36" y="173.57" width="11.31" height="5.03"/>
        <rect class="cls-7" x="171.19" y="173.57" width="11.31" height="5.03"/>
        <rect class="cls-7" x="213.02" y="173.57" width="11.31" height="5.03"/>
        <rect class="cls-7" x="254.85" y="173.57" width="11.31" height="5.03"/>
      </g>
    </g>
  </g>
  <g id="_レイヤー_2" data-name="レイヤー 2">
    <g>
      <g>
        <path class="cls-3" d="m183.43,119.65c-2.21.51-8.85,4.08-16.68,9.36l-2.04-1.7c-2.39-3.58-9.71-8.85-9.71-8.85.58-1.75.83-11.41.17-20.15l.39-.03c6.42.09,17.11.43,23.42,2.99,6.32,2.55,20.45,8,25.22,8.17,4.64.17,11.61-.26,11.98-.28h.01c7.86,2.79,12.4,11.05,20.47,24.32-2.59-2.85-18.68-3.79-23.87-3.11s-12-1.7-18.81-2.38-8.34-8.85-10.55-8.34Z"/>
        <path class="cls-1" d="m212.64,141.22c-3.04,0-6.3-2.3-10.32-5.23-4.08-2.98-18.38-1.36-21.19-.98-7.06-.38-14.38-4.3-14.38-6,7.83-5.28,14.47-8.85,16.68-9.36s3.74,7.66,10.55,8.34,13.62,3.06,18.81,2.38,21.28.26,23.87,3.11c-8.7,7.97-13.99,7.46-24.02,7.75h0Z"/>
        <path class="cls-3" d="m213.56,108.46c.92.17,1.79.41,2.62.7-.37.02-7.34.45-11.98.28-4.77-.17-18.9-5.62-25.22-8.17-6.31-2.56-17-2.9-23.42-2.99l-.39.03c-.05-.67-.11-1.34-.17-2-.22-2.88,15.32-7.13,20.77-8.49s10.05-4.93,10.05-4.93c2.19,2.21,3.01,4.33,3.99,6.29,1.79,3.58,6.77,7.02,10.85,11.75,4.09,4.72,9.71,7.02,12.9,7.53Z"/>
        <path class="cls-6" d="m212.64,141.22h0c-.41.02-.82.04-1.25.05-1.79,2.42-18.26,7.53-27.45,9.44,0,0-1.87.41-4.4,1.01-.71-6.38-1.22-16.33,1.59-16.71s17.11-2,21.19.98c4.02,2.93,7.28,5.23,10.32,5.23Z"/>
        <path class="cls-3" d="m185.82,82.89s-4.6,3.57-10.05,4.93-20.99,5.61-20.77,8.49c-.26-2.78-1.16-6.1-2.42-9.61h0c-.58-1.67,3.1-8.92,4.12-12.16,1.02-3.23,2.21-11.06,2.21-11.06l.91-2.53c2.97,1.39,5.56,2.96,6.49,4.61,2.43,6.13,8.17,10.47,10.6,11.75,4.43,1.9,7.12,3.77,8.9,5.58Z"/>
        <path class="cls-3" d="m181.13,135.01c-2.81.38-2.3,10.33-1.59,16.71-3.67.89-8.71,2.2-11.43,3.33-.38-1.96-30.69-14.01-31.83-15.32,0,0-.25-1.02,0-3.8.26-2.79,5.99-11.24,5.99-11.24,6.14-2.76,12.73-6.23,12.73-6.23,0,0,7.32,5.27,9.71,8.85l2.04,1.7c0,1.7,7.32,5.62,14.38,6Z"/>
        <path class="cls-3" d="m152.58,86.7c1.26,3.51,2.16,6.83,2.42,9.61.06.66.12,1.33.17,2,.66,8.74.41,18.4-.17,20.15,0,0-6.59,3.47-12.73,6.23.88-1.53-.54-19-.78-28.38-.23-9.38-6.4-20.06-9.8-27.69h-2.65c.67,0,1.31-.09,1.93-.27,6.84-1.98,10.48-8.4,11.3-12.61l-.17-.25c.21-.15.42-.31.63-.49,0,0,5.08,1.12,10.06,3.03,2.18.84,4.72,1.83,7.04,2.92l-.91,2.53s-1.19,7.83-2.21,11.06c-1.02,3.24-4.7,10.49-4.12,12.16h0Z"/>
        <path class="cls-6" d="m136.28,139.73c1.14,1.31,31.45,13.36,31.83,15.32-13.02,5-40.78,3.72-52.08,2.37,7.31-8.49,19.57-18.47,20.25-17.69Z"/>
        <path class="cls-4" d="m138.16,57.03s-2.09,4.39-9.62,4.32c-7.54-.06-13.03-6.32-16.34-14.04,2.29-.68,7.31-4.64,7.49-5.02l.17-.38s.55-.56-.22-.64c-.76-.09-1.74-.34-2.17-2.05-.36-1.44-.17-4.93,1.11-5.66,1.28-.72,2.93-.34,3.57,1.54.64,1.87.64,3.19.64,3.19h1.7c1.88-3.87,9.32-13.28,10.77-13.11,3.23,1.19,11.43,1.96,13.57.99.51,2.3,3.51,14.82-5.1,27.84-.32.37-.66.7-1,.99-.21.18-.42.34-.63.49-1.27.91-2.62,1.37-3.94,1.54Zm10.67-25.52c0-.57-.75-1.03-1.66-1.03s-1.66.46-1.66,1.03.74,1.02,1.66,1.02,1.66-.46,1.66-1.02Zm-8.8-.67c0-.56-.75-1.02-1.66-1.02s-1.66.46-1.66,1.02.74,1.02,1.66,1.02,1.66-.45,1.66-1.02Z"/>
        <path class="cls-3" d="m147.17,30.48c.91,0,1.66.46,1.66,1.03s-.75,1.02-1.66,1.02-1.66-.46-1.66-1.02.74-1.03,1.66-1.03Z"/>
        <path class="cls-3" d="m144.81.65c1.22-.38,2.88-.13,2.3,1.72-.57,1.85-6.44,11.43-6.44,11.43v1.28c2.3,2.29,6.63,6.67,8.16,11.09-2.14.97-10.34.2-13.57-.99-1.45-.17-8.89,9.24-10.77,13.11h-1.7s0-1.32-.64-3.19c-.64-1.88-2.29-2.26-3.57-1.54-1.28.73-1.47,4.22-1.11,5.66l-1.15.31c-.53-1.96-.66-3.53-.44-4.89.19-1.24.68-2.33,1.42-3.42,1.66-2.42,2.17-1.4,2.17-1.4,2.81-4.47,6.13-9.45,10.47-11.74v-.45h-7.18v-1.66h7.18v-4.02c0-.67-.16-4.53-2.87-1.92-1.04,1.01-2.84,2.9-4.76,5.62-3.07,4.31-6.46,10.68-7.71,18.78-.02.08-.03.16-.04.24h-1.02c0-4.91,7.21-26.87,14.55-29.23,2.23-.77,5.3,2.68,5.3,5.23h.83c1.98-3,9.38-9.64,10.59-10.02Z"/>
        <path class="cls-3" d="m98.78,100.02c.7-.65,1.27-1.24,1.67-1.74,1.22-1.54,2.91-2.32,4.65-2.64,1.86-.36,3.78-.2,5.2.1l1.89-.07c-.14-.92-2.48-15.9-2.97-22.66-.51-6.98-7.09-17.27-7.09-17.27,2.48-1.03,4.69-1.91,6.3-2.49,5.2,6.83,13.93,15.36,20.61,15.36h2.65c3.4,7.64,9.57,18.32,9.8,27.7.24,9.38,1.66,26.85.78,28.38-3.58,1.61-7,2.98-8.88,3.3-1.21.2-2.79.23-4.6.13-5.8-.33-13.95-2.05-19.96-3.85,2.61-1.76,4.37-3.86,7.2-8.88,0,0-7.66.69-12.77,2.39s-17.19,15.83-25.19,21.95c-8,6.13-26.38,13.11-43.62,16.86-.51-8.17,1.41-11.62,5.36-21.58,3.02-4.64,8.47-11.96,11.7-13.66,3.24-1.7,7.58-8.25,2.86-17.23,0,0,4.08-2.68,7.14-5.87.5-.52,1.05-1.17,1.64-1.94,0,0,1.94,4.62,12.09,3.85s19.7-2.61,23.53-.15h0Z"/>
        <path class="cls-3" d="m142.1,55.49l.17.25c-.82,4.21-4.46,10.63-11.3,12.61-.62.18-1.26.26-1.93.26-6.68,0-15.41-8.53-20.61-15.36l3.77-5.94c3.31,7.72,8.8,13.98,16.34,14.04,7.53.07,9.62-4.32,9.62-4.32,1.32-.17,2.67-.63,3.94-1.54Z"/>
        <path class="cls-3" d="m128.79,128.12c1.81.1,3.39.07,4.6-.13,1.88-.32,5.3-1.69,8.88-3.3,0,0-5.73,8.45-5.99,11.24-.25,2.78,0,3.8,0,3.8-.68-.78-12.94,9.2-20.25,17.69-.55-.07-1.07-.13-1.54-.2-1.78-1.27-10.98.39-17.1,2.81-.78-.09-2.26-.48-4.12-1.05.04-8.68-7.2-15.11-7.2-15.11,1.34-.99,2.62-1.99,3.74-2.94,6.13-13.62,11.75-12.6,16.17-14.98,1.08-.58,2.01-1.11,2.85-1.68,6.01,1.8,14.16,3.52,19.96,3.85Z"/>
        <ellipse class="cls-3" cx="138.37" cy="30.84" rx="1.66" ry="1.02"/>
        <path class="cls-3" d="m119.64,41.27c.77.08.22.64.22.64l-.17.38c-.18.38-5.2,4.34-7.49,5.02.76-2.04,3.06-6.13,4.34-7.02-.08-.26-.15-.51-.22-.76l1.15-.31c.43,1.71,1.41,1.96,2.17,2.05Z"/>
        <path class="cls-3" d="m112.19,95.67l-1.89.07c-1.42-.3-3.34-.46-5.2-.1l-.04-.21c.25-3.41-4.61-9.57-7.67-13.4-3.07-3.83-14.05-10.47-17.57-13.68.51-.7,1.09-1.45,1.74-2.27,1.66-1.96,12.51-6.98,20.57-10.34,0,0,6.58,10.29,7.09,17.27.49,6.76,2.83,21.74,2.97,22.66Z"/>
        <path class="cls-1" d="m103.26,117.78c5.11-1.7,12.77-2.39,12.77-2.39-2.83,5.02-4.59,7.12-7.2,8.88-.84.57-1.77,1.1-2.85,1.68-4.42,2.38-10.04,1.36-16.17,14.98-1.12.95-2.4,1.95-3.74,2.94-5.35,3.95-11.53,7.74-11.53,7.74,0,0-4.85,2.17-14.05,4.98-9.19,2.8-24.12,1.4-26.04,0,17.24-3.75,35.62-10.73,43.62-16.86,8-6.12,20.08-20.25,25.19-21.95Z"/>
        <path class="cls-3" d="m105.06,95.43l.04.21c-1.74.32-3.43,1.1-4.65,2.64-.4.5-.97,1.09-1.67,1.74h0c-3.83-2.47-13.38-.63-23.53.14s-12.09-3.85-12.09-3.85c3.01-3.91,7.21-10.9,13.3-20.4.6-3.08,1.58-5.08,3.37-7.56,3.52,3.21,14.5,9.85,17.57,13.68,3.06,3.83,7.92,9.99,7.67,13.4Z"/>
        <path class="cls-6" d="m86.07,143.87s7.24,6.43,7.2,15.11c-5.78-1.78-15.26-5.34-18.73-7.37,0,0,6.18-3.79,11.53-7.74Z"/>
        <path class="cls-6" d="m54.37,104.12c4.72,8.98.38,15.53-2.86,17.23-3.23,1.7-8.68,9.02-11.7,13.66-3.19,0-6.76-6-6.76-8.04s.12-9.83,4.34-14.43c4.21-4.59,11.74-6.38,16.98-8.42Z"/>
      </g>
      <g>
        <path class="cls-8" d="m130.13,55.29s3.87,2.28,8.03,1.74c1.32-.17,2.67-.63,3.94-1.54.21-.15.42-.31.63-.49.34-.29.68-.62,1-.99,8.61-13.02,5.61-25.54,5.1-27.84-1.53-4.42-5.86-8.8-8.16-11.09v-1.28s5.87-9.58,6.44-11.43c.58-1.85-1.08-2.1-2.3-1.72-1.21.38-8.61,7.02-10.59,10.02h-.83c0-2.55-3.07-6-5.3-5.23-7.34,2.36-14.55,24.32-14.55,29.23h1.02c0-.08.02-.16.04-.24,1.25-8.1,4.64-14.47,7.71-18.78,1.92-2.72,3.72-4.61,4.76-5.62,2.71-2.61,2.87,1.25,2.87,1.92v4.02h-7.18v1.66h7.18v.45c-4.34,2.29-7.66,7.27-10.47,11.74,0,0-.51-1.02-2.17,1.4-.74,1.09-1.23,2.18-1.42,3.42-.22,1.36-.09,2.93.44,4.89.07.25.14.5.22.76-1.28.89-3.58,4.98-4.34,7.02,3.31,7.72,8.8,13.98,16.34,14.04,7.53.07,9.62-4.32,9.62-4.32"/>
        <path class="cls-8" d="m216.18,109.16c-.83-.29-1.7-.53-2.62-.7-3.19-.51-8.81-2.81-12.9-7.53-4.08-4.73-9.06-8.17-10.85-11.75-.98-1.96-1.8-4.08-3.99-6.29-1.78-1.81-4.47-3.68-8.9-5.58-2.43-1.28-8.17-5.62-10.6-11.75-.93-1.65-3.52-3.22-6.49-4.61-2.32-1.09-4.86-2.08-7.04-2.92-4.98-1.91-10.06-3.03-10.06-3.03"/>
        <path class="cls-8" d="m148.83,26.17c-2.14.97-10.34.2-13.57-.99-1.45-.17-8.89,9.24-10.77,13.11h-1.7s0-1.32-.64-3.19c-.64-1.88-2.29-2.26-3.57-1.54-1.28.73-1.47,4.22-1.11,5.66.43,1.71,1.41,1.96,2.17,2.05.77.08.22.64.22.64l-.17.38c-.18.38-5.2,4.34-7.49,5.02l-3.77,5.94c-1.61.58-3.82,1.46-6.3,2.49-8.06,3.36-18.91,8.38-20.57,10.34-.65.82-1.23,1.57-1.74,2.27-1.79,2.48-2.77,4.48-3.37,7.56-6.09,9.5-10.29,16.49-13.3,20.4-.59.77-1.14,1.42-1.64,1.94-3.06,3.19-7.14,5.87-7.14,5.87-5.24,2.04-12.77,3.83-16.98,8.42-4.22,4.6-4.34,12.39-4.34,14.43s3.57,8.04,6.76,8.04c-3.95,9.96-5.87,13.41-5.36,21.58,1.92,1.4,16.85,2.8,26.04,0,9.2-2.81,14.05-4.98,14.05-4.98,3.47,2.03,12.95,5.59,18.73,7.37,1.86.57,3.34.96,4.12,1.05,6.12-2.42,15.32-4.08,17.1-2.81.47.07.99.13,1.54.2,11.3,1.35,39.06,2.63,52.08-2.37,2.72-1.13,7.76-2.44,11.43-3.33,2.53-.6,4.4-1.01,4.4-1.01,9.19-1.91,25.66-7.02,27.45-9.44.43-.01.84-.03,1.25-.04,10.03-.29,15.32.22,24.02-7.75-8.07-13.27-12.61-21.53-20.47-24.32"/>
        <path class="cls-8" d="m142.32,38.88s1.47,8.56,1.22,9.13c-.26.58-1.79,1.09-2.56.45"/>
        <line class="cls-8" x1="135.81" y1="40.03" x2="139.39" y2="40.03"/>
        <line class="cls-8" x1="144.69" y1="40.42" x2="147.37" y2="40.42"/>
        <path class="cls-8" d="m139.13,51.59c.68.48,1.49.37,2.36,0"/>
        <ellipse class="cls-8" cx="138.37" cy="30.84" rx="1.66" ry="1.02"/>
        <path class="cls-8" d="m148.83,31.51c0,.56-.75,1.02-1.66,1.02s-1.66-.46-1.66-1.02.74-1.03,1.66-1.03,1.66.46,1.66,1.03Z"/>
        <path class="cls-8" d="m34.45,156.59c17.24-3.75,35.62-10.73,43.62-16.86,8-6.12,20.08-20.25,25.19-21.95s12.77-2.39,12.77-2.39c-2.83,5.02-4.59,7.12-7.2,8.88-.84.57-1.77,1.1-2.85,1.68-4.42,2.38-10.04,1.36-16.17,14.98-1.12.95-2.4,1.95-3.74,2.94-5.35,3.95-11.53,7.74-11.53,7.74"/>
        <path class="cls-8" d="m86.07,143.87s7.24,6.43,7.2,15.11"/>
        <path class="cls-8" d="m116.03,157.42c7.31-8.49,19.57-18.47,20.25-17.69,1.14,1.31,31.45,13.36,31.83,15.32"/>
        <path class="cls-8" d="m39.81,135.01c3.02-4.64,8.47-11.96,11.7-13.66,3.24-1.7,7.58-8.25,2.86-17.23"/>
        <path class="cls-9" d="m63.15,96.31s1.94,4.62,12.09,3.85,19.7-2.61,23.53-.15"/>
        <path class="cls-9" d="m56.45,129.01c8.08-1.79,17.7-10.21,21.79-13.62,3.59-2.99,15.47-10.72,20.54-15.37.7-.65,1.27-1.24,1.67-1.74,1.22-1.54,2.91-2.32,4.65-2.64,1.86-.36,3.78-.2,5.2.1.84.17,1.51.39,1.9.57,1.78.85,3.67,1.56,4.45,4.71"/>
        <path class="cls-9" d="m79.82,68.35c3.52,3.21,14.5,9.85,17.57,13.68,3.06,3.83,7.92,9.99,7.67,13.4"/>
        <path class="cls-9" d="m102.13,55.74s6.58,10.29,7.09,17.27c.49,6.76,2.83,21.74,2.97,22.66.01.03.01.05.01.05"/>
        <path class="cls-9" d="m126.92,74.54s-9.53,16.51-10.89,19.75c-.46,1.09-.07,3.7.62,6.73h0c1.37,5.99,3.91,13.58,3.46,14.37"/>
        <path class="cls-9" d="m108.43,53.25c5.2,6.83,13.93,15.36,20.61,15.36.67,0,1.31-.08,1.93-.26,6.84-1.98,10.48-8.4,11.3-12.61"/>
        <path class="cls-9" d="m131.69,68.62c3.4,7.63,9.57,18.31,9.8,27.69.24,9.38,1.66,26.85.78,28.38"/>
        <path class="cls-9" d="m92.44,143.87s15.67.29,36.35-15.75c.06-.04.11-.09.17-.13"/>
        <path class="cls-9" d="m108.83,124.27c6.01,1.8,14.16,3.52,19.96,3.85,1.81.1,3.39.07,4.6-.13,1.88-.32,5.3-1.69,8.88-3.3,6.14-2.76,12.73-6.23,12.73-6.23.58-1.75.83-11.41.17-20.15-.05-.67-.11-1.34-.17-2-.26-2.78-1.16-6.1-2.42-9.61-2.9-8.12-7.66-17.19-10.51-22.54"/>
        <path class="cls-9" d="m155,118.46s7.32,5.27,9.71,8.85"/>
        <path class="cls-8" d="m179.54,151.73h0c-.71-6.39-1.22-16.34,1.59-16.72s17.11-2,21.19.98c4.02,2.93,7.28,5.23,10.32,5.23h.15"/>
        <path class="cls-8" d="m181.13,135.01c-7.06-.38-14.38-4.3-14.38-6,7.83-5.28,14.47-8.85,16.68-9.36s3.74,7.66,10.55,8.34,13.62,3.06,18.81,2.38,21.28.26,23.87,3.11"/>
        <path class="cls-9" d="m185.82,82.89s-4.6,3.57-10.05,4.93-20.99,5.61-20.77,8.49"/>
        <path class="cls-9" d="m158.92,63.48s-1.19,7.83-2.21,11.06c-1.02,3.24-4.7,10.49-4.12,12.16"/>
        <path class="cls-8" d="m216.18,109.16h.01"/>
        <path class="cls-9" d="m155.56,98.28c6.42.09,17.11.43,23.42,2.99,6.32,2.55,20.45,8,25.22,8.17,4.64.17,11.61-.26,11.98-.28"/>
        <path class="cls-9" d="m175.09,108.42s18.64,2.53,27.74,1.06"/>
        <path class="cls-9" d="m162.32,105.86s8,6.98,13.96,8.51c5.96,1.54,7.15,5.28,7.15,5.28"/>
        <path class="cls-9" d="m142.27,124.69s-5.73,8.45-5.99,11.24c-.25,2.78,0,3.8,0,3.8"/>
      </g>
    </g>
    <path class="cls-8" d="m130.13,55.29s8.23,4.85,13.6-1.28c8.62-13.02,5.61-25.54,5.1-27.84-1.53-4.42-5.86-8.8-8.15-11.1v-1.28s5.87-9.57,6.44-11.43-1.09-2.11-2.3-1.72-8.62,7.02-10.6,10.02h-.83c0-2.55-3.06-6-5.3-5.23-7.34,2.36-14.55,24.32-14.55,29.23h1.02c1.98-13.34,9.8-22.02,12.51-24.64s2.87,1.24,2.87,1.91v4.02h-7.18v1.66h7.18v.45c-4.34,2.3-7.66,7.28-10.47,11.74,0,0-.51-1.02-2.17,1.4s-2.04,4.85-.77,9.06c-1.28.89-3.57,4.98-4.34,7.02,3.32,7.72,8.81,13.98,16.34,14.04s9.63-4.32,9.63-4.32"/>
    <path class="cls-8" d="m148.83,26.17c-2.13.97-10.33.2-13.57-.99-1.45-.17-8.89,9.23-10.77,13.11h-1.7s0-1.32-.64-3.19-2.3-2.26-3.57-1.53-1.47,4.21-1.11,5.66c.43,1.7,1.4,1.96,2.17,2.04s.21.64.21.64l-.17.38c-.17.38-5.19,4.34-7.49,5.02l-3.77,5.94c-6.83,2.49-24.7,10.28-26.87,12.83-2.94,3.7-4.34,5.87-5.11,9.83-7.28,11.36-11.87,19.15-14.94,22.34s-7.15,5.87-7.15,5.87c-5.23,2.04-12.77,3.83-16.98,8.43s-4.34,12.38-4.34,14.43,3.57,8.04,6.77,8.04c-3.96,9.96-5.87,13.4-5.36,21.57,1.91,1.4,16.85,2.81,26.04,0s14.04-4.98,14.04-4.98c4.6,2.68,19.66,8.04,22.85,8.43,6.13-2.43,15.32-4.09,17.11-2.81,10.09,1.4,39.96,3.06,53.62-2.17,4.6-1.91,15.83-4.34,15.83-4.34,9.19-1.91,25.66-7.02,27.45-9.45,10.85-.38,16.21.51,25.28-7.79-8.94-14.68-13.53-23.23-23.11-25.02-3.19-.51-8.81-2.81-12.89-7.53s-9.06-8.17-10.85-11.74-3.06-7.66-12.89-11.87c-2.43-1.28-8.17-5.62-10.6-11.74-1.66-2.94-8.55-5.62-13.53-7.53s-10.06-3.04-10.06-3.04"/>
  </g>
</svg>