<svg xmlns="http://www.w3.org/2000/svg" xml:space="preserve" id="レイヤー_1" x="0" y="0" style="enable-background:new 0 0 270.4 193.5" version="1.1" viewBox="0 0 270.4 193.5"><style>.st0{fill:#f3edd7}.st1{fill:#333}.st3{fill:none;stroke:#000;stroke-miterlimit:10}.st4{fill:#98c1bb}.st5{fill:#bd4932}.st6{fill:#745c9a}.st7{fill:#e0deb7}.st8{fill:#f2d786}.st9{fill:#f8dab8}.st11{fill:none;stroke:#000;stroke-linecap:round;stroke-linejoin:round}</style><g id="_畳"><path d="M.2 158.8h3.6v5H.2zM270.1 186.4v6.6h-30.4l15.4-8.6c1 1.6 3.1 2.7 5.5 2.7s4.6-1.2 5.6-2.9l3.9 2.2z" class="st0"/><path d="M270.1 175.9v10.6l-4-2.2c.4-.6.6-1.4.6-2.1 0-1.3-.6-2.5-1.6-3.4l5-2.9zM270.1 163.9v12l-5 2.8c-1.1-1-2.8-1.6-4.6-1.6s-3.3.6-4.4 1.5L230 163.9h40.1zM270.1 86.8v5.8H.2v-5.8zM266.2 158.8h4v5h-4z" class="st0"/><path d="M266.8 182c0 .8-.2 1.5-.6 2.1l-5.4-3.1 4.4-2.5c1 1 1.6 2.2 1.6 3.5zM260.8 181.1l5.4 3.1c-1 1.7-3.1 2.9-5.6 2.9s-4.5-1.1-5.5-2.7l5.7-3.3z" class="st0"/><path d="M254.9 158.8h11.3v5h-11.3z" class="st1"/><path d="m265.2 178.7-4.4 2.5-4.6-2.6c1.1-.9 2.7-1.5 4.4-1.5 1.8-.1 3.4.5 4.6 1.6z" class="st0"/><path d="m260.8 181.1-5.7 3.2c-.4-.7-.7-1.5-.7-2.3 0-1.4.7-2.6 1.8-3.5l4.6 2.6z" class="st0"/><path d="m230 163.9 26.1 14.7c-1.1.9-1.8 2.1-1.8 3.5 0 .8.2 1.6.7 2.3l-15.4 8.6h-41.5l-15.6-8.8c.4-.6.6-1.4.6-2.1 0-1.3-.6-2.5-1.6-3.4l26.3-14.8H230zm-5.9 18.1c0-2.8-2.2-5-5-5s-5 2.2-5 5 2.2 5 5 5 5-2.2 5-5z" class="st0"/><path d="M254.9 163.9H224.3v-5.1h30.6z" class="st0"/><path d="M213 158.8h11.3v5H213zM219.1 177c2.8 0 5 2.2 5 5s-2.2 5-5 5-5-2.2-5-5 2.2-5 5-5z" class="st1"/><path d="m207.9 163.9-26.3 14.8c-1.1-1-2.8-1.6-4.6-1.6s-3.3.6-4.4 1.5l-26.1-14.7h61.4zM182.5 163.9v-5.1H213v5.1h-5.1zM198.2 193h-42.1l15.4-8.6c1 1.6 3.1 2.7 5.5 2.7s4.6-1.2 5.6-2.9l15.6 8.8z" class="st0"/><path d="M183.2 182c0 .8-.2 1.5-.6 2.1l-5.4-3.1 4.4-2.5c.9 1 1.6 2.2 1.6 3.5zM177.1 181.1l5.4 3.1c-1 1.7-3.1 2.9-5.6 2.9s-4.5-1.1-5.5-2.7l5.7-3.3z" class="st0"/><path d="M171.2 158.8h11.3v5h-11.3z" class="st1"/><path d="M176.9 177c1.8 0 3.5.6 4.6 1.6l-4.4 2.5-4.6-2.6c1.1-.9 2.7-1.5 4.4-1.5z" class="st0"/><path d="m177.1 181.1-5.7 3.2c-.4-.7-.7-1.5-.7-2.3 0-1.4.7-2.6 1.8-3.5l4.6 2.6z" class="st0"/><path d="m146.4 163.9 26.1 14.7c-1.1.9-1.8 2.1-1.8 3.5 0 .8.2 1.6.7 2.3L156 193h-41.5L99 184.2c.4-.6.6-1.4.6-2.1 0-1.3-.6-2.5-1.6-3.4l26.3-14.8h22.1zm-7 18.1c0-2.8-2.2-5-5-5s-5 2.2-5 5 2.2 5 5 5 5-2.2 5-5z" class="st0"/><path d="M171.2 163.9h-30.5v-5.1h30.5z" class="st0"/><path d="M129.4 158.8h11.3v5h-11.3zM134.4 177c2.8 0 5 2.2 5 5s-2.2 5-5 5-5-2.2-5-5 2.2-5 5-5z" class="st1"/><path d="M124.3 163.9 98 178.7c-1.1-1-2.8-1.6-4.6-1.6s-3.3.6-4.4 1.5l-26.1-14.7h61.4zM129.4 163.9H98.8v-5.1h30.6zM114.6 193H72.5l15.3-8.6c1 1.6 3.1 2.7 5.5 2.7s4.6-1.2 5.6-2.9l15.7 8.8z" class="st0"/><path d="M99.5 182c0 .8-.2 1.5-.6 2.1l-5.4-3.1 4.4-2.5c1 1 1.6 2.2 1.6 3.5zM93.5 181.1l5.4 3.1c-1 1.7-3.1 2.9-5.6 2.9s-4.5-1.1-5.5-2.7c0-.1 5.7-3.3 5.7-3.3z" class="st0"/><path d="M87.5 158.8h11.3v5H87.5z" class="st1"/><path d="M93.3 177c1.8 0 3.5.6 4.6 1.6l-4.4 2.5-4.6-2.6c1.1-.9 2.7-1.5 4.4-1.5z" class="st0"/><path d="m93.5 181.1-5.7 3.2c-.4-.7-.7-1.5-.7-2.3 0-1.4.7-2.6 1.8-3.5l4.6 2.6z" class="st0"/><path d="m62.8 163.9 26.1 14.7c-1.1.9-1.8 2.1-1.8 3.5 0 .8.2 1.6.7 2.3L72.5 193H30.8l-15.6-8.8c.4-.6.6-1.4.6-2.1 0-1.3-.6-2.5-1.6-3.4l26.3-14.8h22.3zM54.3 182c0-2.8-2.2-5-5-5s-5 2.2-5 5 2.2 5 5 5 5-2.2 5-5z" class="st0"/><path d="M87.5 163.9H57v-5.1h30.5z" class="st0"/><path d="M45.7 158.8H57v5H45.7zM49.2 177c2.8 0 5 2.2 5 5s-2.2 5-5 5-5-2.2-5-5 2.3-5 5-5z" class="st1"/><path d="M45.7 163.9H15.2v-5.1h30.5zM30.8 193H.2v-6.5l3.8-2.1c1 1.6 3.1 2.7 5.5 2.7s4.6-1.2 5.6-2.9l15.7 8.8zM15.7 182c0 .8-.2 1.5-.6 2.1L9.7 181l4.4-2.5c1 1 1.6 2.2 1.6 3.5z" class="st0"/><path d="M3.9 158.8h11.3v5H3.9z" class="st1"/><path d="m9.7 181.1 5.4 3.1c-1 1.7-3.1 2.9-5.6 2.9S5 186 4 184.3l5.7-3.2zM9.5 177c1.8 0 3.5.6 4.6 1.6l-4.4 2.5-4.6-2.6c1.1-.9 2.7-1.5 4.4-1.5z" class="st0"/><path d="M9.7 181.1 4 184.3c-.4-.7-.7-1.5-.7-2.3 0-1.4.7-2.6 1.8-3.5l4.6 2.6zM.2 175.8l4.8 2.7c-1.1.9-1.8 2.1-1.8 3.5 0 .8.2 1.6.7 2.3l-3.8 2.1c.1.1.1-10.6.1-10.6z" class="st0"/><path d="M213 158.8H.2V92.6h269.9v66.2H224.3z" style="fill:#d2d296"/><path d="M.2 163.9h40.2l-26.3 14.8c-1.1-1-2.8-1.6-4.6-1.6s-3.3.6-4.4 1.5l-4.8-2.7c-.1-.1-.1-12-.1-12z" class="st0"/><path d="M270.1 193H.2M.2 86.8h269.9M.2 92.6h269.9M266.2 158.8h3.9M224.3 158.8h30.6M182.5 158.8H213M140.7 158.8h30.5M98.8 158.8h30.6M57 158.8h30.5M15.2 158.8h30.5M.2 158.8h3.7M266.2 163.9h3.9M224.3 163.9H254.9M182.5 163.9H213M140.7 163.9h30.5M98.8 163.9h30.6M57 163.9h30.5M15.2 163.9h30.5M.2 163.9h3.7M72.5 193l15.3-8.7 5.7-3.2 4.4-2.4 26.4-14.8" class="st3"/><path d="m114.6 193-15.7-8.8-5.4-3.1-4.6-2.6-26.1-14.6M139.4 182c0 2.8-2.2 5-5 5s-5-2.2-5-5 2.2-5 5-5 5 2.3 5 5zM224.1 182c0 2.8-2.2 5-5 5s-5-2.2-5-5 2.2-5 5-5 5 2.3 5 5z" class="st3"/><path d="M97.9 178.7c1 .9 1.6 2.1 1.6 3.4 0 .8-.2 1.5-.6 2.1-1 1.7-3.1 2.9-5.6 2.9s-4.5-1.1-5.5-2.7c-.4-.7-.7-1.5-.7-2.3 0-1.4.7-2.6 1.8-3.5 1.1-.9 2.7-1.5 4.4-1.5 1.9-.1 3.5.5 4.6 1.6zM.2 186.4l3.8-2.1 5.7-3.2 4.4-2.4 26.4-14.8" class="st3"/><path d="m30.8 193-15.7-8.8-5.4-3.1-4.6-2.6-4.9-2.7" class="st3"/><path d="M14.1 178.7c1 .9 1.6 2.1 1.6 3.4 0 .8-.2 1.5-.6 2.1-1 1.7-3.1 2.9-5.6 2.9S5 186 4 184.3c-.4-.7-.7-1.5-.7-2.3 0-1.4.7-2.6 1.8-3.5 1.1-.9 2.7-1.5 4.4-1.5 1.8 0 3.5.6 4.6 1.7zM156.1 193l15.3-8.7 5.7-3.2 4.4-2.4 26.4-14.8" class="st3"/><path d="m198.2 193-15.6-8.8-5.5-3.1-4.6-2.6-26.1-14.6" class="st3"/><path d="M181.5 178.7c1 .9 1.6 2.1 1.6 3.4 0 .8-.2 1.5-.6 2.1-1 1.7-3.1 2.9-5.6 2.9s-4.5-1.1-5.5-2.7c-.4-.7-.7-1.5-.7-2.3 0-1.4.7-2.6 1.8-3.5 1.1-.9 2.7-1.5 4.4-1.5 1.9-.1 3.5.5 4.6 1.6zM239.7 193l15.4-8.7 5.7-3.2 4.4-2.4 4.9-2.8" class="st3"/><path d="m270.1 186.4-3.9-2.2-5.4-3.1-4.7-2.6-26.1-14.6" class="st3"/><path d="M265.2 178.7c1 .9 1.6 2.1 1.6 3.4 0 .8-.2 1.5-.6 2.1-1 1.7-3.1 2.9-5.6 2.9s-4.5-1.1-5.5-2.7c-.4-.7-.7-1.5-.7-2.3 0-1.4.7-2.6 1.8-3.5 1.1-.9 2.7-1.5 4.4-1.5 1.8-.1 3.4.5 4.6 1.6zM54.3 182c0 2.8-2.2 5-5 5s-5-2.2-5-5 2.2-5 5-5 5 2.3 5 5zM3.9 158.8h11.3v5H3.9zM45.7 158.8H57v5H45.7zM87.5 158.8h11.3v5H87.5zM129.4 158.8h11.3v5h-11.3zM171.2 158.8h11.3v5h-11.3zM213 158.8h11.3v5H213zM254.9 158.8h11.3v5h-11.3z" class="st3"/></g><g id="_レイヤー_2"><path d="M185.3 140.4c-.9-.1-1.5-.2-1.8-.2-2.4-.6-3.1-6.6-3.1-12.4 0-1.8-.8-2.3-2-2.1h-.1c-2.7.5-7 4.2-7.9 5-1.4 1.1-15.4 9.5-19.6 9.5-1.5-2.4-3-5-4.5-7.7-1.2-2.2-2.4-4.4-3.3-6.7-.9-2-1.6-4-2.1-5.8-.8-3.1-1-5.8-.2-7.9.4-1.1 1-2.1 1.7-3.2v-.1c2.6-3.6 6.9-7.1 11.5-8.1 1.6-.3 3.3-.4 4.9 0 1 .2 1.9.6 2.9 1.1 3.6 2.1 7.5 5.8 12.2 9.4 4.2 0 9-.4 13.6-1 4.8-.6 9.6-1.5 13.3-2.2 1-.2 1.9-.4 2.7-.5 1.2-.2 2.2-.4 3-.6 5.8-1.2 14.3-1 20.1 2.7 6.2 6.5 13.1 16.2 16.4 22.5-7.4-3.5-11-2.2-16.4-.9-5.4 1.3-29.2 8.2-35.1 9.5-2.5 0-4.7-.2-6.2-.3z" class="st4"/><path d="M226.5 131.3c5.4-1.3 8.9-2.6 16.4.9-6.5 10.1-19.1 8.7-32.9 9.3 0 0-2.1-.1-5.1-.2-3.8-.1-9-.3-13.4-.6 5.8-1.1 29.7-8.1 35-9.4z" class="st5"/><path d="m213 91.4 8.7.6s-.5 3.1-3.1 11.2c-6.6-1.1-11.1.2-17.8 1.1-2.2-2.3-5.1-5-6.8-6.5l.1-.1s11.1-3.2 14.7-.8v-5.7l4.2.2z" class="st6"/><path d="M218.6 103.2c2.1.9 4.9 3.3 7.9 6.5-5.8-3.7-14.3-3.9-20.1-2.7-.8.2-1.8.4-3 .6-.5-.8-1.5-2-2.7-3.2 6.8-.9 11.3-2.2 17.9-1.2zM213 91.4l-4.3-.1V97c-5-9.4-2.3-11.9.8-12.5 1.6 1 3.5 6.9 3.5 6.9z" class="st4"/><path d="M201.5 84.9s6.5-1.4 8-.4c-3.1.6-5.8 3.1-.8 12.5-3.7-2.5-14.7.8-14.7.8 2.6-10.7-.7-16.3-.7-16.3 4.8-.3 7.5 1.8 8.2 3.4z" class="st4"/><path d="M209.9 141.6c-1.9 4-7 5.9-11.9 6.8-4.9.9-18.8-.9-18.8-.9 1.5-1.1 2.9-2.3 4.1-3.6l.1.1s15.1 4.2 21.4-2.6c3 .1 5.1.2 5.1.2z" class="st7"/><path d="M203.4 107.6c-.8.2-1.7.3-2.7.5-1.6-.1-6.6-2.5-12-5.4 0 0 1.4-2.2 2.6-3.8.6-.9 1.2-1.7 1.4-1.8.2.2.6.5 1 .8 1.7 1.5 4.6 4.2 6.8 6.5 1.5 1.2 2.5 2.4 2.9 3.2z" class="st4"/><path d="M191.5 140.8c4.4.2 9.6.4 13.4.6-6.3 6.8-21.4 2.6-21.4 2.6l-.1-.1c.9-1.1 1.7-2.2 2-3.4 1.4 0 3.6.2 6.1.3z" class="st6"/><path d="M190.4 93.4c-.5-2.5-1-4.8-1.9-6.8-.6-1.5-1.4-2.7-2.4-3.7 0 0 3.1-1.1 6.4-1.4.2 0 .5 0 .7-.1 0 0 3.2 5.6.7 16.3l-.1.1c-.4-.4-.8-.7-1-.8-.2.2-.8 1-1.4 1.8-.3-1.8-.6-3.6-1-5.4z" class="st4"/><path d="M191.5 98.9c-1.2 1.7-2.6 3.8-2.6 3.8-5.7-3.1-11.8-6.8-15.3-9.4 0 0 9.6 2.1 16.9 0 .3 1.9.6 3.7 1 5.6z" class="st8"/><path d="M139.6 80.8c5.3-2.1 10.3-5.3 13.3-10.1l6.9-2c4.1 11.3 2.6 22.8 28.7 17.9.8 2 1.4 4.3 1.9 6.8-7.3 2-16.9 0-16.9 0-1-.7-1.7-1.3-2.2-1.8-2.7-2.8-4.9-2.7-6.3-1.6 0 0-5.8-4.3-8.4-12.1-.6.5-1.2 1-1.8 1.4-3.9 2.9-8.1 5.1-12.2 6.8-1.8.8-3.5 1.4-5.1 1.9-3.1 1-5.9 1.8-8 2.3-2.9.7-4.8.9-4.8.9-.1-.7-.2-1.3-.3-1.7-.6-1.9-1.9-3-3.9-3.4l.4-1.9c.2.1.3.1.6 0 3.5.2 11-.6 18.1-3.4z" class="st8"/><path d="M188.8 102.7c5.4 3 10.3 5.3 12 5.4-3.8.7-8.5 1.6-13.3 2.2-3.8.5-12.5-7.8-18.9-15.4l-.3 4-6.6 3c-.9-.5-1.9-.9-2.9-1.1 0 0 4.1-6.9 5.2-9.2.3-.6.7-1.2 1.1-1.6 1.4-1.2 3.5-1.2 6.3 1.6.5.5 1.2 1.1 2.2 1.8 3.4 2.5 9.6 6.2 15.2 9.3z" class="st8"/><path d="M168.6 94.8c6.4 7.7 15.2 16 18.9 15.4-4.7.6-9.5 1.1-13.6 1-4.7-3.6-8.6-7.4-12.2-9.4l6.6-3 .3-4z" class="st8"/><path d="M186.2 82.9c1 .9 1.8 2.2 2.4 3.7-26.1 4.9-24.6-6.5-28.7-17.9l-4.1-8.6 1.8-15c5.4 4.4 12.8 10.4 13.1 10.8.5.5 8.2 20.9 9.5 23.5 1.4 2.6.2 1.1 6 3.5zM183.5 140.2c.3.1.9.2 1.8.2-.4 1.2-1.1 2.4-2 3.4-1.1 1.3-2.6 2.6-4.1 3.6-.7.5-1.4 1.1-2.1 1.5 0 0-1-.7-1.8-2.1-.1-.2-.2-.4-.3-.7-.5-1.9-.4-6-.4-6 4.4 0 8-.1 8.9.1z" class="st4"/><path d="M154.1 140.3c-1.3 0-2.4-.1-3.4-.1 4.2 0 18.2-8.4 19.6-9.5.9-.8 5.2-4.5 7.9-5h.1c1.2-.2 2 .3 2 2.1 0 5.8.6 11.8 3.1 12.4-.9-.1-4.5 0-8.9.1-3.6.1-7.8.2-11.6.2-3.1-.1-6.2-.1-8.8-.2z" class="st5"/><path d="m175 146.3-.4 3.9c-1 .3-7.4-2.8-9.7-4.3-.5-.3-.9-.8-1.1-1.3-1-1.8-.8-4.2-.8-4.2 3.9 0 8-.1 11.6-.2 0 .1-.1 4.2.4 6.1z" class="st4"/><path d="M165.1 89.9c-.5.4-.9 1-1.1 1.6-1 2.3-5.2 9.2-5.2 9.2-1.6-.4-3.3-.3-4.9 0l.1-2.1.3-6.3.3-5.7.3-7.4c.6-.5 1.2-.9 1.8-1.4 2.6 7.9 8.4 12.1 8.4 12.1z" class="st8"/><path d="M162.9 140.4s-.1 2.5.8 4.2c-2.3 4.3-6.6 4.9-9.9 6.1l.3-10.4c2.6.1 5.7.1 8.8.1z" class="st4"/><path d="m155.8 60.1 4.1 8.6-7 2-2.8-7.1 1.8-1.1z" class="st8"/><path d="m157.6 45.2-1.8 15-3.9 2.4.9-18.2 3.9.1c.3.1.6.4.9.7zM156.7 44.4l-3.9-.1.1-3c.9.7 2.2 1.8 3.8 3.1z" class="st8"/><path d="M150.7 25.4s2.2-2.1 4.4-1.3l1.5-.1c.1.6.1 1.2.1 1.9 0 4.8-1.3 9.3-3.4 12.8l-.9-.2c-1.8-.8-3.3-3.8-3.3-3.8l-.1-.3c.5-.2.8-.5.8-.8 0-.7-.8-4.1-1.3-6.2-.1-.5-.2-1.1-.3-1.7l2.5-.3z" class="st9"/><path d="M139.5 4.5c-2.3 0-4.5.6-6.6 1.6-5.7 3-9.9 9.6-10.6 17.6l-1.1-.2c-.2 2.1-.3 3.9-.3 5 0 1.5.4 5.2 1.1 9.7 3.3 8.2 8.2 15.7 9.5 16.4 2.3-3.6 4.4-7.7 4.4-7.7.5.1 1.1.3 1.7.3.6.1 1.3.1 1.9.1 1.8 0 3.6-.3 5.2-1 1.3-.5 2.5-1.2 3.7-2.1 1.3-1 2.6-2.3 3.7-3.7.4-.6.9-1.2 1.2-1.8l-.9-.2c-1.8-.8-3.3-3.8-3.3-3.8l-.2-.3c.5-.2.8-.5.8-.8 0-.7-.8-4.1-1.3-6.2-.1-.5-.2-1.1-.3-1.7l2.6-.2s2.2-2.1 4.4-1.3l1.5-.1c-.7-11-8.1-19.6-17.1-19.6z" class="st9"/><path d="m154.9 79.3-.3 7.4c-2.7 1.9-11.9 4.3-11.9 4.3v-4.9c4-1.7 8.3-3.9 12.2-6.8z" class="st8"/><path d="m154.5 86.7-.3 5.7h-.1c-5.5 2.6-10.9 5.3-16.6 6.9V88.1c1.6-.6 3.4-1.2 5.1-1.9V91s9.3-2.4 11.9-4.3z" class="st8"/><path d="M137.5 99.3c5.7-1.6 11.1-4.4 16.6-7h.1l-.3 6.3h-.1c-3.4 4-27.4 10.7-27.8 9.5-.1-2.4-.3-5-.5-7.4 1.3.1 2.6.1 3.9 0 2.9-.2 5.5-.7 8.1-1.4z" class="st8"/><path d="m154.1 140.3-.3 10.4c-5.3-.4-5.6-1-9-4.7l1.3-13.5c1.5 2.7 3.1 5.3 4.5 7.7 1.1 0 2.3 0 3.5.1z" class="st4"/><path d="m154 98.6-.1 2.1c-4.6 1-8.9 4.4-11.5 8.1v.1c-.5.4-3.4 1.8-6.6 3.3-4.4 2-9.3 4.1-9.3 4.1-.1-2.2-.2-5.1-.4-8.2.4 1.2 24.4-5.5 27.9-9.5z" class="st8"/><path d="m150.1 63.6 2.8 7.1c-3 4.8-8 8-13.3 10.1 1.9-2.9 4.3-22.7 4.9-31h.1l5.5 13.8zM152.9 41.3l-.1 3-4.4-.1c1.4-1 2.6-2.3 3.6-3.7 0 .1.3.4.9.8z" class="st4"/><path d="m152.8 44.3-.9 18.2-1.8 1.1-5.5-13.8h-.1c.1-1.7.2-2.9.1-3.4 1.3-.5 2.6-1.2 3.7-2.1h4.5zM146.2 132.5l-1.3 13.5c-2.8 3.7-5.5 4.3-9 4.7l3.6-23v-1.8c1.2 0 2.4 0 3.5-.1.9 2.3 2 4.5 3.2 6.7z" class="st4"/><path d="M144.7 46.4c.1.5 0 1.8-.1 3.4-.6 8.4-3 28.1-4.9 31-7.1 2.8-14.7 3.6-18.2 3.5 3.2-2.1 14.5-29.7 16-36.9v-.1c.6.1 1.3.1 1.9.1 1.9-.1 3.6-.4 5.3-1z" class="st4"/><path d="M127.2 125.6c-2.1-.1-4-.3-5.4-.4-1.6-.1-2.6-.2-2.6-.2 3.2-1.5 5.9-3.2 7.5-4.9 0 0-.1-1.5-.2-3.8 0 0 4.9-2.1 9.3-4.1v7.9h5c.5 1.9 1.2 3.8 2.1 5.8-1.1.1-2.2.1-3.5.1-2.1 0-4.4 0-6.7-.1-1.9-.1-3.8-.2-5.5-.3z" class="st8"/><path d="M142.3 108.9c-.8 1.1-1.3 2.2-1.7 3.2-.8 2.2-.6 4.9.2 7.9h-5v-7.9c3.2-1.4 6.1-2.8 6.5-3.2z" class="st8"/><path d="M139.4 125.9v1.8l-3.6 23s-4.7-1.5-6.4-3.2l3.3-21.7c2.3.1 4.6.2 6.7.1zM137.5 47.2v.1c-1.5 7.2-12.8 34.8-16 36.9h-.7c-3.8-5.5-11.1-51.7-11.1-59.3 1.9-3.2 7.7-10.2 13.4-16.3 0 0-1.2 8.7-1.9 14.9-.2 2.1-.3 3.9-.3 5 0 1.5.4 5.2 1.1 9.7 1.3 8.5 3.4 19.5 5 22 1-.4 2.8-2.9 4.5-5.6 2.3-3.6 4.4-7.7 4.4-7.7.5.1 1.1.2 1.6.3z" class="st4"/><path d="M137.5 88.1v11.2c-2.6.7-5.2 1.3-8 1.4V90.3c2.2-.5 4.9-1.2 8-2.2z" class="st8"/><path d="m132.8 125.8-3.3 21.6-12.4 3.2s4.9-8.9 6.5-12.4c1.5-3.5 3.5-12.3 3.6-12.7 1.7.1 3.6.2 5.6.3zM130.9.5c.7 1.2 1.9 5.6 1.9 5.6-5.7 3-9.9 9.6-10.6 17.6l-1.1-.2c.6-6.2 1.9-14.9 1.9-14.9 2.9-3.1 5.7-6 7.9-8.1z" class="st4"/><path d="M129.5 90.3v10.4c-1.3.1-2.5.1-3.8 0-.3-3.8-.6-7.3-.9-9.4-.1 0 1.8-.3 4.7-1z" class="st8"/><path d="M121.9 38.2c3.3 8.2 8.2 15.7 9.5 16.4-1.7 2.7-3.4 5.1-4.5 5.6-1.5-2.5-3.7-13.5-5-22z" style="fill:#e5d5b4"/><path d="M82.2 142.6c-1 .8-2.3 1.4-3.9 2.6l-2.6-6c2.3-1.2 4.2-2.2 4.3-2.8-10.3-1.6-40.5 1.4-45.7 2.6 0 0-.9-3.2.4-8.3.6-1.6 1.3-3.6 2.1-5.8 1.4-3.4 3.2-7.4 6-11.4l.8.1c7.1-.1 13.3-1.1 18.8-2.4 3.1-.8 6-1.6 8.6-2.6 4-1.4 14.2-6.8 23.6-11.8 7.9-4.2 15.3-8.2 18-9.3 1-.4 1.9-.7 2.8-1 .6-.2 1.2-.3 1.8-.4 1.3-.2 2.4-.2 3.4-.1 1.9.3 3.3 1.4 3.9 3.4.1.4.2.9.3 1.7.3 2.1.6 5.6.9 9.4.2 2.4.3 4.9.5 7.4.2 3.1.3 6 .4 8.2.1 2.3.2 3.8.2 3.8s-5.3-.1-7.7.8c-8.8 2.7-11.2 1.5-13.3-.5-1.7-1.7-4.7-1.6-5.8-.4l-.1.1c-.2.2-.3.6-.3.9 0 2.1-.3 4.9-.7 11.2 0 0-5.8 6.2-8.4 9.4l-8.3 1.2z" class="st4"/><path d="M118.9 120.9c2.5-.9 7.7-.8 7.7-.8-1.6 1.7-4.3 3.4-7.5 4.9-2.3 1.1-4.7 2.1-7.1 3-6.8 2.5-13.2 4.2-13.2 4.2.3-6.3.7-9.2.7-11.2 0-.3.1-.7.3-.9l.1-.1c1.1-1.2 4.1-1.2 5.8.4 2 2 4.4 3.2 13.2.5z" class="st5"/><path d="M127.2 125.6c-.1.4-2.1 9.2-3.6 12.7-1.6 3.6-6.5 12.4-6.5 12.4-.7 0-1.3-.2-1.9-.5-2.2-1.2-3.9-4.2-3.9-4.2 4.6-6.3 8.2-13.2 10.5-20.9 1.4.2 3.3.3 5.4.5z" class="st4"/><path d="M121.8 125.2c-2.3 7.7-5.9 14.6-10.5 20.9-7.6 3.3-12.4 3.3-14.2 3.1-.6-.1-.8-.1-.8-.1 11.2-8.4 15.6-20.6 15.7-21.1 2.4-.9 4.9-1.9 7.1-3 .1 0 1.1 0 2.7.2zM115.3 86.7c-.9.2-1.8.6-2.8 1-2.7 1.1-10.1 5.1-18 9.3-9.4 5-19.6 10.4-23.6 11.8-2.6.9-5.5 1.8-8.6 2.6-.7-2.2.9-9.4 2.7-15.7 1-3.7 2.1-7.1 2.8-8.9.1-.4.3-.7.4-.9l.7-1.4c.7-1.3 1.8-2.9 3-4.9 2.5-4 5.8-9.4 8.5-15.5 4.6-10.2 16.5-31.8 28.9-38.7.1-.1.2-.3.3-.5 0 7.6 7.3 53.8 11.1 59.3 0 0 0 .1.1.1l-.4 1.9c-1-.2-2.2-.2-3.4.1-.5.1-1.1.2-1.7.4zm-8.9-16.2 2.2-1.7c-3.7-3.3-10.9-16-10.9-16s-4.1 3.2-6.9 7.3c5.6 1.9 11 5.9 15.6 10.4z" class="st4"/><path d="M111.3 146s1.7 3 3.9 4.2c0 0-7.7.6-12.5.6-1.1 0-3.1-.2-5.7-.5l.1-1.2c1.8.2 6.6.2 14.2-3.1z" class="st7"/><path d="M98.9 132.2s6.4-1.7 13.2-4.2c-.2.4-4.5 12.7-15.7 21.1l-5.9-7.4c2.6-3.3 8.4-9.5 8.4-9.5zM108.5 68.8l-2.2 1.7c-4.5-4.4-10-8.4-15.7-10.3 2.9-4 6.9-7.3 6.9-7.3s7.3 12.6 11 15.9z" class="st4"/><path d="m97.1 149.1-.1 1.2c-8.7-1.1-23.6-3.9-30.3-7 1.7-.8 5.8-2.6 9-4.1l2.6 6c1.7-1.2 2.9-1.8 3.9-2.6l8.2-1 5.9 7.4s.3.1.8.1z" class="st7"/><path d="M75.7 139.2c-3.2 1.6-7.3 3.3-9 4.1-10.5 2-25.7.6-32.4-4.3 5.2-1.2 35.4-4.2 45.7-2.6-.1.6-2 1.7-4.3 2.8z" class="st5"/><path d="M71.9 79.6c-1.2 1.9-2.3 3.6-3 4.8-.1-1.8-3.1-4.4-3.8-5 2.5 0 4.9 0 6.8.2z" class="st4"/><path d="M68.9 84.4c-.3.5-.5 1-.7 1.4-.1.2-.2.5-.4.9-.2 0-2.4.5-5.6 1.3l-.1-.3c-.3-1.6-6.7-6.4-9.4-8 .9-.1 1.8-.2 2.3-.2 2.3-.1 6.2-.2 10.1-.2.8.7 3.8 3.3 3.8 5.1z" class="st4"/><path d="M43.5 96.4c3.1-2.4 7-4.3 10.7-5.8 2.9-1.2 5.7-2 8-2.7 3.2-.9 5.4-1.3 5.6-1.3-.7 1.8-1.8 5.2-2.8 8.9-11 4.7-17.8 11.4-22.3 17.9-2.7 4-4.6 8-6 11.4-.1-1.7-.3-3.3-.5-4.9-.3-3.1-.7-6-.6-8.7.1-3 .6-5.8 2.1-8.5.9-1.7 2.3-3.4 4.1-5.1.6-.3 1.2-.7 1.7-1.2z" class="st6"/><path d="m62.2 87.7.1.3c-2.3.6-5.1 1.5-8 2.7l-.1-.3c-2.2-2.9-15.5-8.1-15.5-8.1s9-1.8 14.1-2.4c2.7 1.4 9.1 6.2 9.4 7.8zM65 95.6c-1.8 6.2-3.4 13.4-2.7 15.7-5.5 1.3-11.7 2.3-18.8 2.4l-.8-.1c4.5-6.7 11.3-13.3 22.3-18z" class="st4"/><path d="m54.1 90.3.1.3c-3.7 1.5-7.6 3.4-10.7 5.8-1.6-2.7-13-7.2-13-7.2 1.4-2.6 4.4-4.9 8.1-7.1 0 .1 13.3 5.3 15.5 8.2z" class="st4"/><path d="M27.4 98.7c-1.6-.5-3.1-.9-4.1-1.2 0 0-.6-3.1 0-5.9.6-2.8 5.4-2.4 7.3-2.4 0 0 11.4 4.4 13 7.2-.6.4-1.1.9-1.6 1.3-1.8 1.7-3.1 3.3-4.1 5.1-2.6-1.3-6.9-3-10.5-4.1zM36.8 124.9c-.9 2.2-1.5 4.1-2.1 5.8-4.2-.3-5.2-1.1-5-6.3 0 0-.1-4.2 1.5-4.8 2 0 4 .2 5.1.4.2 1.6.4 3.3.5 4.9z" class="st4"/><path d="M35.7 111.3c-.1 2.8.2 5.6.6 8.7-1.1-.1-3.1-.4-5.1-.4-2.5 0-5.1.4-6.4 1.8 0 0-.4-4.2.4-6.8 1.3-1.9 3.5-3.4 6.8-3.6 1.1 0 2.4 0 3.7.3z" class="st4"/><path d="M37.8 102.8c-1.5 2.7-2 5.5-2.1 8.5-1.4-.3-2.6-.3-3.8-.3v-.3c-4.9-4.4-8-2-10.9 1.5 0 0-.6-4.6 1.9-7.9 1.9-3.4 2.8-5.7 4.4-5.6 3.7 1.1 8 2.8 10.5 4.1z" class="st4"/><path d="M32 110.7v.3c-3.3.2-5.5 1.7-6.8 3.6-.5-.5-4.1-2.4-4.1-2.4 2.9-3.5 5.9-5.9 10.9-1.5zM31.2 119.6c-1.6.6-1.5 4.8-1.5 4.8s-3.2-1.5-4.9-3.1c1.3-1.3 3.9-1.7 6.4-1.7zM27.4 98.7c-1.6-.1-2.5 2.1-4.4 5.6-5.4.1-2.4-5.2.3-6.8 1 .3 2.5.7 4.1 1.2z" class="st4"/><path d="M148.4 44.3c-1.1.9-2.4 1.6-3.7 2.1-1.6.6-3.4 1-5.2 1-.6 0-1.3 0-1.9-.1-.6-.1-1.1-.2-1.6-.3-1.7-.5-3.4-1.2-4.9-2.3M124.4 36.3c-1.4-3.1-2.1-6.6-2.1-10.4 0-.7 0-1.5.1-2.2.7-8 4.8-14.7 10.6-17.6 2-1 4.2-1.6 6.6-1.6 9 0 16.4 8.6 17.2 19.6.1.6.1 1.2.1 1.9 0 4.8-1.3 9.3-3.4 12.8-.4.6-.8 1.3-1.2 1.8-1.1 1.4-2.3 2.7-3.6 3.7" class="st11"/><path d="M133.7 21.9s4-2.6 6.5-2.4M150.8 18.1s3.3.4 4.3 1.4M147.9 22.3s0 1.6.3 3.3c.1.6.2 1.2.3 1.7.5 2.1 1.3 5.5 1.3 6.2 0 .3-.3.6-.8.8-.5.2-1.2.3-2 .3M146.5 31.1s-2.5 7.5-9 8.3M149.1 34.7s1.5 3 3.3 3.8M135.4 25.9s6.8-3.7 8.4-.5c-1.2 1.6-2.8 3.1-5.6 3.1M155.1 24.1c-2.2-.8-4.4 1.3-4.4 1.3.6 1.6 2.1 2.4 3.4 2.4" class="st11"/><path d="M140.4 25.9s2.7-.7 3.4-.5M150.7 25.4s2.8.1 3.4.5M147.7 38.2c-.2 0-4.3 1-4 1.2.3.2 2.4 1.3 2.4 1.3M68.9 84.4c.7-1.3 1.8-2.9 3-4.8 2.5-4 5.8-9.4 8.5-15.5 4.6-10.2 16.5-31.8 28.9-38.7.1-.1.2-.3.3-.5 1.9-3.2 7.7-10.2 13.4-16.3 2.8-3.1 5.7-6 7.9-8.1.7 1.2 1.9 5.6 1.9 5.6M62.4 111.3s-.1-.1 0 0c-.7-2.3.9-9.5 2.7-15.8 1-3.7 2.1-7.1 2.8-8.9.1-.4.3-.7.4-.9l.7-1.4M209.9 141.6c13.8-.6 26.4.8 32.9-9.3-3.3-6.4-10.2-16-16.4-22.5-3-3.2-5.8-5.6-7.9-6.5 2.6-8.2 3.1-11.2 3.1-11.2l-8.7-.6s-1.9-5.9-3.4-6.9-8 .4-8 .4c-.7-1.6-3.4-3.7-8.2-3.4-.2 0-.5 0-.7.1-3.4.3-6.4 1.4-6.4 1.4-5.8-2.4-4.6-.9-6-3.5-1.4-2.6-9-23-9.5-23.5-.3-.3-7.7-6.3-13.1-10.8-.3-.3-.6-.5-.9-.8-1.6-1.3-2.9-2.4-3.8-3.1-.6-.5-.9-.7-.9-.7" class="st11"/><path d="M71.9 79.6c-1.9-.1-4.3-.2-6.8-.2-3.8 0-7.7.1-10.1.2-.6 0-1.4.1-2.3.2-5.1.6-14.1 2.4-14.1 2.4-3.7 2.2-6.7 4.5-8 7.1-1.9 0-6.6-.4-7.3 2.4-.6 2.8 0 5.9 0 5.9-2.7 1.5-5.7 6.9-.3 6.8-2.5 3.3-1.9 7.9-1.9 7.9s3.6 1.9 4.1 2.4c-.8 2.6-.4 6.8-.4 6.8 1.6 1.5 4.9 3.1 4.9 3.1-.3 5.1.8 6 5 6.3-1.3 5.1-.4 8.3-.4 8.3 6.8 5 22 6.4 32.4 4.3 1.7-.8 5.8-2.6 9-4.1 2.3-1.2 4.2-2.2 4.3-2.8-10.3-1.6-40.5 1.4-45.7 2.6M135.9 46.9s-2.1 4-4.4 7.7c-1.7 2.7-3.4 5.1-4.5 5.6-1.6-2.5-3.7-13.5-5-22-.7-4.4-1.1-8.1-1.1-9.7 0-1.1.1-2.9.3-5 .6-6.2 1.9-14.9 1.9-14.9" class="st11"/><path d="M121.9 38.2c3.3 8.2 8.2 15.7 9.5 16.4" class="st11"/><path d="M109.7 24.9c0 7.6 7.3 53.8 11.1 59.3 0 0 0 .1.1.1.2.1.3.1.6 0 3.2-2.1 14.5-29.7 16-36.9M144.7 46.3h0c.1.5 0 1.8-.1 3.4-.6 8.4-3 28.1-4.9 31 0 0 0 .1-.1.1" class="st11"/><path d="M120.8 84.2h.7c3.5.1 11-.7 18.2-3.5 5.3-2.1 10.3-5.3 13.3-10.1" class="st11"/><path d="m144.7 49.8 5.5 13.9 2.8 7.1 6.9-2c4.1 11.3 2.6 22.8 28.7 17.9h.1" class="st11"/><path d="M165.3 82.5s9.8-4 10.4-3.7M162.8 65.5l2.4-6.8h1.7s2.4 5.5 1.3 6.8c-3.3 4.3-6.6 8.8-6.6 8.8M157.6 45.2l-1.8 14.9-3.9 2.4-1.8 1.1M155.8 60.1l4.1 8.6M148.4 44.3h4.4l3.9.1" class="st11"/><path d="m152.9 41.3-.1 3-.9 18.2M99.9 120c1.1-1.2 4.1-1.2 5.8.4 2 2 4.4 3.2 13.3.5 2.5-.9 7.7-.8 7.7-.8M112 127.9c-6.8 2.5-13.2 4.2-13.2 4.2.3-6.3.7-9.2.7-11.2 0-.3.1-.7.3-.9" class="st11"/><path d="M43.5 113.6c7.1-.1 13.3-1.1 18.8-2.4 3.1-.8 6-1.6 8.6-2.6 4-1.4 14.2-6.8 23.6-11.8 7.9-4.2 15.3-8.2 18-9.3 1-.4 1.9-.7 2.8-1 .6-.2 1.2-.3 1.8-.4 1.3-.2 2.4-.2 3.4-.1 1.9.3 3.3 1.4 3.9 3.4.1.4.2.9.3 1.7.3 2.1.6 5.6.9 9.4.2 2.4.3 4.9.5 7.4.2 3.1.3 6 .4 8.2.1 2.3.2 3.8.2 3.8-1.6 1.7-4.3 3.4-7.5 4.9-2.3 1.1-4.7 2.1-7.1 3" class="st11"/><path d="M113.8 89.9s-.3 8.9-4.2 15.3c-3.7 6.2-9.3 14-9.8 14.7l-.1.1M69.9 98.4s11.9 1.6 24.6-1.6M80 77.9s12.3 3 23.5 3c5.4.4 11.3 4.5 11.8 5.8M117.1 86.3c-.8-3.7-4.9-10.1-10.7-15.8-4.5-4.4-10-8.4-15.7-10.3 2.9-4 6.9-7.3 6.9-7.3s7.2 12.6 10.9 16c.5.4.8.7 1.2.8M173.8 111.3c4.2 0 9-.4 13.6-1 4.8-.6 9.6-1.5 13.3-2.2 1-.2 1.9-.4 2.7-.5 1.2-.2 2.2-.4 3-.6 5.8-1.2 14.3-1 20.1 2.7" class="st11"/><path d="M158.8 100.7s4.1-6.9 5.2-9.2c.3-.6.7-1.2 1.1-1.6 1.4-1.2 3.5-1.2 6.3 1.6.5.5 1.2 1.1 2.2 1.8 3.4 2.5 9.6 6.3 15.3 9.4 5.4 3 10.3 5.3 12 5.4" class="st11"/><path d="m161.7 101.9 6.6-3 .3-4c6.4 7.7 15.2 16 18.9 15.4M124.7 91.3s1.8-.3 4.8-.9c2.2-.5 4.9-1.2 8-2.3 1.6-.6 3.4-1.2 5.1-1.9 4.1-1.7 8.4-3.9 12.2-6.8.6-.5 1.2-.9 1.8-1.4 2.6 7.8 8.4 12.1 8.4 12.1" class="st11"/><path d="m154.9 79.3-.4 7.4-.2 5.6-.3 6.3-.1 2.1M154.1 92.3c-5.5 2.6-10.9 5.3-16.6 7-2.6.7-5.2 1.3-8 1.4-1.3.1-2.5.1-3.8 0M126.1 108.1c.4 1.2 24.4-5.5 27.8-9.5M137.5 88.1v11.2h0M129.5 90.3v10.5M142.6 86.1V91s9.2-2.4 11.9-4.3M126.5 116.3s4.9-2.1 9.3-4.1c3.2-1.5 6.1-2.9 6.6-3.3M152.4 116.3s15.1 11.1 25.8 9.4M162.9 140.4c3.9 0 8-.1 11.6-.2 4.4-.1 8-.2 8.9-.1" class="st11"/><path d="M150.7 140.2c1 0 2.1.1 3.4.1 2.6.1 5.6.1 8.8.1 0 0-.1 2.5.8 4.2.3.5.6 1 1.1 1.3 2.2 1.4 8.7 4.6 9.7 4.3l.4-3.9M209.6 84.5c-3.1.6-5.8 3.1-.8 12.5M193.4 81.4s3.2 5.6.7 16.3M186.2 82.9c1 .9 1.8 2.2 2.4 3.7.8 2 1.4 4.3 1.9 6.8.4 1.8.7 3.7 1.1 5.5" class="st11"/><path d="M173.6 93.3s9.6 2.1 16.9 0h.2M188.8 102.7s1.4-2.2 2.6-3.8c.6-.9 1.2-1.7 1.4-1.8.2.2.6.5 1 .8 1.7 1.5 4.6 4.2 6.8 6.5 1.2 1.3 2.2 2.4 2.7 3.2M200.8 104.3c6.7-.9 11.2-2.2 17.8-1.1M194 97.8s11.1-3.2 14.7-.8v-5.7l4.3.1M135.8 112.2v7.8h5M119.2 124.9s1 .1 2.6.2c1.4.1 3.3.3 5.4.4 1.7.1 3.6.2 5.6.3 2.3.1 4.6.1 6.7.1 1.2 0 2.4 0 3.5-.1M183.4 143.9s15.1 4.2 21.4-2.6M174.6 140.3s-.1 4.1.4 6c.1.3.2.5.3.7.8 1.4 1.8 2.1 1.8 2.1l2.1-1.5c1.5-1.1 2.9-2.3 4.1-3.6.9-1.1 1.7-2.2 2-3.4v-.1M154.1 140.3h0l-.3 10.4c3.3-1.2 7.6-1.7 9.9-6.1" class="st11"/><path d="m146.2 132.5-1.3 13.5c3.4 3.7 3.6 4.2 9 4.7M132.8 125.8l-3.3 21.6c1.7 1.7 6.4 3.2 6.4 3.2l3.6-23" class="st11"/><path d="M135.9 150.7c3.5-.3 6.2-1 9-4.7M121.8 125.2c-2.3 7.7-5.9 14.6-10.5 20.9 0 0 1.7 3 3.9 4.2.6.3 1.2.5 1.9.5 0 0 4.9-8.9 6.5-12.4 1.5-3.5 3.5-12.3 3.6-12.7h0M117.1 150.7l12.4-3.2M112 127.9h0c-.2.4-4.5 12.7-15.7 21.1 0 0 .3.1.8.1 1.8.2 6.5.2 14.2-3.1M96.3 149l-5.9-7.4c2.6-3.2 8.4-9.4 8.4-9.4M90.4 141.6l-8.2 1M75.6 139l.1.2 2.6 6c1.7-1.2 2.9-1.8 3.9-2.6 1.4-1 2.4-2.3 3.7-5.5M36.8 124.9c1.4-3.4 3.2-7.4 6-11.4 4.5-6.6 11.3-13.2 22.3-17.9" class="st11"/><path d="M34.7 130.7c.6-1.6 1.3-3.6 2.1-5.8" class="st11"/><path d="M36.8 124.9h0c-.1-1.7-.3-3.3-.5-4.9-.3-3.1-.7-6-.6-8.7.1-3 .6-5.8 2.1-8.5.9-1.7 2.3-3.4 4.1-5.1.5-.5 1-.9 1.6-1.3 3.1-2.4 7-4.3 10.7-5.8 2.9-1.2 5.7-2 8-2.7 3.2-.9 5.4-1.3 5.6-1.3h0" class="st11"/><path d="M24.8 121.4c1.3-1.4 3.9-1.8 6.4-1.8 2 0 4 .2 5.1.4" class="st11"/><path d="M29.7 124.4s-.1-4.2 1.5-4.8M21.1 112.2c2.9-3.5 5.9-5.9 10.9-1.5M25.2 114.6c1.3-1.9 3.5-3.4 6.8-3.6 1.1-.1 2.4 0 3.7.3M27.4 98.7c.2 0 .5.1.7.2M23 104.3c1.9-3.4 2.8-5.7 4.4-5.6" class="st11"/><path d="M23.3 97.5c1 .2 2.5.7 4.1 1.2 0 0 0 0 0 0 3.6 1.1 7.9 2.8 10.5 4.2M30.6 89.3s11.4 4.4 13 7.2h0M38.6 82.2s13.3 5.2 15.5 8.1M52.7 79.8c2.7 1.6 9.2 6.3 9.4 8M65 79.3s.1 0 .1.1c.7.6 3.7 3.2 3.8 5h0M191.5 140.8c5.9-1.2 29.7-8.2 35.1-9.5 5.4-1.3 8.9-2.6 16.4.9" class="st11"/><path d="M179.2 147.5s13.9 1.8 18.8.9 10-2.9 11.9-6.8c0 0-2.1-.1-5.1-.2-3.8-.1-9-.3-13.4-.6-2.5-.1-4.7-.3-6.2-.4-.9-.1-1.5-.2-1.8-.2-2.4-.6-3.1-6.6-3.1-12.4 0-1.8-.8-2.3-2-2.1h-.1c-2.7.5-7 4.2-7.9 5-1.4 1.1-15.4 9.5-19.6 9.5-1.5-2.4-3-5-4.5-7.7-1.2-2.2-2.4-4.4-3.3-6.7-.9-2-1.6-4-2.1-5.8-.8-3.1-1-5.8-.2-7.9.4-1.1 1-2.1 1.7-3.2v-.1c2.6-3.6 6.9-7.1 11.5-8.1 1.6-.3 3.3-.4 4.9 0 1 .2 1.9.6 2.9 1.1 3.6 2.1 7.5 5.8 12.2 9.4 6.1 4.7 13.3 9 22.6 9M66.7 143.4c6.7 3.1 21.6 5.9 30.3 7 2.6.3 4.6.5 5.7.5 4.8 0 12.5-.6 12.5-.6" class="st11"/></g></svg>