<?xml version="1.0" encoding="UTF-8"?>
<svg xmlns="http://www.w3.org/2000/svg" viewBox="0 0 270.4 198.04">
  <defs>
    <style>
      .cls-1 {
        stroke: #040000;
        stroke-miterlimit: 10;
      }

      .cls-1, .cls-2 {
        fill: none;
      }

      .cls-2 {
        stroke: #231815;
        stroke-linecap: round;
        stroke-linejoin: round;
      }

      .cls-3 {
        fill: #333;
      }

      .cls-3, .cls-4, .cls-5, .cls-6, .cls-7, .cls-8, .cls-9, .cls-10, .cls-11 {
        stroke-width: 0px;
      }

      .cls-4 {
        fill: #fbf6ea;
      }

      .cls-5 {
        fill: #f0ead5;
      }

      .cls-6 {
        fill: #eed04f;
      }

      .cls-7 {
        fill: #e14533;
      }

      .cls-8 {
        fill: #86ccca;
      }

      .cls-9 {
        fill: #ebd5b4;
      }

      .cls-10 {
        fill: #cccc93;
      }

      .cls-11 {
        fill: #323333;
      }
    </style>
  </defs>
  <g id="_畳" data-name="畳">
    <g>
      <g>
        <rect class="cls-5" x=".24" y="163.39" width="3.62" height="5.03"/>
        <path class="cls-5" d="m270.15,190.97v6.57h-30.45l15.35-8.63c1.03,1.62,3.11,2.72,5.51,2.72s4.62-1.18,5.62-2.88l3.97,2.23Z"/>
        <path class="cls-5" d="m270.15,180.41v10.56l-3.97-2.23c.38-.65.59-1.38.59-2.14,0-1.3-.62-2.48-1.62-3.38l4.99-2.8Z"/>
        <path class="cls-5" d="m270.15,168.42v11.99l-4.99,2.8c-1.14-1.01-2.77-1.64-4.59-1.64s-3.31.58-4.44,1.51l-26.1-14.67h40.12Z"/>
        <polygon class="cls-5" points="270.15 102.41 270.15 108.18 1.13 108.18 .24 108.18 .24 102.41 270.15 102.41"/>
        <rect class="cls-5" x="266.16" y="163.39" width="3.99" height="5.03"/>
        <path class="cls-5" d="m266.78,186.59c0,.76-.21,1.49-.59,2.14l-5.42-3.05,4.39-2.47c1,.89,1.62,2.08,1.62,3.38Z"/>
        <path class="cls-5" d="m260.77,185.69l5.42,3.05c-1,1.7-3.13,2.88-5.62,2.88s-4.48-1.1-5.51-2.72l5.71-3.21Z"/>
        <rect class="cls-11" x="254.85" y="163.39" width="11.31" height="5.03"/>
        <path class="cls-5" d="m265.16,183.22l-4.39,2.47-4.64-2.61c1.13-.93,2.7-1.51,4.44-1.51,1.82,0,3.46.63,4.59,1.64Z"/>
        <path class="cls-5" d="m260.77,185.69l-5.71,3.21c-.44-.69-.69-1.48-.69-2.31,0-1.37.68-2.61,1.77-3.51l4.64,2.61Z"/>
        <path class="cls-5" d="m230.03,168.42l26.1,14.67c-1.09.9-1.77,2.14-1.77,3.51,0,.83.25,1.62.69,2.31l-15.35,8.63h-41.48l-15.65-8.8c.38-.65.59-1.38.59-2.14,0-1.3-.62-2.48-1.62-3.37l26.34-14.81h22.15Zm-5.97,18.18c0-2.77-2.25-5.02-5.02-5.02s-5.03,2.25-5.03,5.02,2.25,5.03,5.03,5.03,5.02-2.25,5.02-5.03Z"/>
        <polygon class="cls-5" points="254.85 168.42 230.03 168.42 224.33 168.42 224.33 163.39 254.85 163.39 254.85 168.42"/>
        <rect class="cls-11" x="213.02" y="163.39" width="11.31" height="5.03"/>
        <path class="cls-11" d="m219.05,181.58c2.77,0,5.02,2.25,5.02,5.02s-2.25,5.03-5.02,5.03-5.03-2.25-5.03-5.03,2.25-5.02,5.03-5.02Z"/>
        <path class="cls-5" d="m207.88,168.42l-26.34,14.81c-1.14-1.02-2.77-1.65-4.59-1.65s-3.31.58-4.44,1.51l-26.1-14.67h61.47Z"/>
        <polygon class="cls-5" points="182.5 168.42 182.5 163.39 213.02 163.39 213.02 168.42 207.88 168.42 182.5 168.42"/>
        <path class="cls-5" d="m198.21,197.54h-42.13l15.35-8.63c1.03,1.62,3.12,2.72,5.51,2.72s4.62-1.18,5.62-2.88l15.65,8.8Z"/>
        <path class="cls-5" d="m183.16,186.59c0,.76-.21,1.49-.59,2.14l-5.42-3.05,4.39-2.47c1,.89,1.62,2.07,1.62,3.37Z"/>
        <path class="cls-5" d="m177.15,185.69l5.42,3.05c-1,1.7-3.13,2.88-5.62,2.88s-4.48-1.1-5.51-2.72l5.71-3.21Z"/>
        <rect class="cls-11" x="171.19" y="163.39" width="11.31" height="5.03"/>
        <path class="cls-5" d="m176.95,181.58c1.82,0,3.46.63,4.59,1.65l-4.39,2.47-4.64-2.61c1.13-.93,2.7-1.51,4.44-1.51Z"/>
        <path class="cls-5" d="m177.15,185.69l-5.71,3.21c-.44-.69-.69-1.48-.69-2.31,0-1.37.68-2.61,1.77-3.51l4.64,2.61Z"/>
        <path class="cls-5" d="m146.41,168.42l26.1,14.67c-1.09.9-1.77,2.14-1.77,3.51,0,.83.25,1.62.69,2.31l-15.35,8.63h-41.48l-15.65-8.8c.38-.65.59-1.38.59-2.14,0-1.3-.62-2.48-1.62-3.37l26.34-14.81h22.15Zm-7.02,18.18c0-2.77-2.25-5.02-5.02-5.02s-5.03,2.25-5.03,5.02,2.25,5.03,5.03,5.03,5.02-2.25,5.02-5.03Z"/>
        <polygon class="cls-5" points="171.19 168.42 146.41 168.42 140.67 168.42 140.67 163.39 171.19 163.39 171.19 168.42"/>
        <rect class="cls-11" x="129.36" y="163.39" width="11.31" height="5.03"/>
        <path class="cls-11" d="m134.38,181.58c2.77,0,5.02,2.25,5.02,5.02s-2.25,5.03-5.02,5.03-5.03-2.25-5.03-5.03,2.25-5.02,5.03-5.02Z"/>
        <path class="cls-5" d="m124.26,168.42l-26.34,14.81c-1.14-1.02-2.77-1.65-4.59-1.65s-3.31.58-4.44,1.51l-26.1-14.67h61.47Z"/>
        <polygon class="cls-5" points="129.36 168.42 124.26 168.42 98.83 168.42 98.83 163.39 129.36 163.39 129.36 168.42"/>
        <path class="cls-5" d="m114.6,197.54h-42.13l15.35-8.63c1.03,1.62,3.11,2.72,5.51,2.72s4.62-1.18,5.62-2.88l15.65,8.8Z"/>
        <path class="cls-5" d="m99.54,186.59c0,.76-.21,1.49-.59,2.14l-5.42-3.05,4.39-2.47c1,.89,1.62,2.07,1.62,3.37Z"/>
        <path class="cls-5" d="m93.53,185.69l5.42,3.05c-1,1.7-3.13,2.88-5.62,2.88s-4.48-1.1-5.51-2.72l5.71-3.21Z"/>
        <rect class="cls-11" x="87.53" y="163.39" width="11.31" height="5.03"/>
        <path class="cls-5" d="m93.33,181.58c1.82,0,3.46.63,4.59,1.65l-4.39,2.47-4.64-2.61c1.13-.93,2.7-1.51,4.44-1.51Z"/>
        <path class="cls-5" d="m93.53,185.69l-5.71,3.21c-.44-.69-.69-1.48-.69-2.31,0-1.37.68-2.61,1.77-3.51l4.64,2.61Z"/>
        <path class="cls-5" d="m62.8,168.42l26.1,14.67c-1.09.9-1.77,2.14-1.77,3.51,0,.83.25,1.62.69,2.31l-15.35,8.63H30.79l-15.65-8.8c.38-.65.59-1.38.59-2.14,0-1.3-.62-2.48-1.62-3.37l26.34-14.81h22.34Zm-8.53,18.18c0-2.77-2.25-5.02-5.02-5.02s-5.03,2.25-5.03,5.02,2.25,5.03,5.03,5.03,5.02-2.25,5.02-5.03Z"/>
        <polygon class="cls-5" points="87.53 168.42 62.8 168.42 57 168.42 57 163.39 87.53 163.39 87.53 168.42"/>
        <rect class="cls-11" x="45.7" y="163.39" width="11.31" height="5.03"/>
        <path class="cls-11" d="m49.25,181.58c2.77,0,5.02,2.25,5.02,5.02s-2.25,5.03-5.02,5.03-5.03-2.25-5.03-5.03,2.25-5.02,5.03-5.02Z"/>
        <polygon class="cls-5" points="45.7 168.42 40.45 168.42 15.17 168.42 15.17 163.39 45.7 163.39 45.7 168.42"/>
        <path class="cls-5" d="m30.79,197.54H.24v-6.52l3.76-2.11c1.03,1.62,3.12,2.72,5.51,2.72s4.62-1.18,5.62-2.88l15.65,8.8Z"/>
        <path class="cls-5" d="m15.73,186.59c0,.76-.21,1.49-.59,2.14l-5.42-3.05,4.39-2.47c1,.89,1.62,2.07,1.62,3.37Z"/>
        <rect class="cls-11" x="3.87" y="163.39" width="11.31" height="5.03"/>
        <path class="cls-5" d="m9.72,185.69l5.42,3.05c-1,1.7-3.13,2.88-5.62,2.88s-4.48-1.1-5.51-2.72l5.71-3.21Z"/>
        <path class="cls-5" d="m9.52,181.58c1.82,0,3.46.63,4.59,1.65l-4.39,2.47-4.64-2.61c1.13-.93,2.7-1.51,4.44-1.51Z"/>
        <path class="cls-5" d="m9.72,185.69l-5.71,3.21c-.44-.69-.69-1.48-.69-2.31,0-1.37.68-2.61,1.77-3.51l4.64,2.61Z"/>
        <path class="cls-5" d="m.24,180.37l4.84,2.72c-1.09.9-1.77,2.14-1.77,3.51,0,.83.25,1.62.69,2.31l-3.76,2.11v-10.65Z"/>
        <polygon class="cls-10" points="213.02 163.39 182.5 163.39 171.19 163.39 140.67 163.39 129.36 163.39 98.83 163.39 87.53 163.39 57 163.39 45.7 163.39 15.17 163.39 3.87 163.39 .24 163.39 .24 108.18 1.13 108.18 270.15 108.18 270.15 163.39 266.16 163.39 254.85 163.39 224.33 163.39 213.02 163.39"/>
        <path class="cls-5" d="m.24,168.42h40.21l-26.34,14.81c-1.14-1.02-2.77-1.65-4.59-1.65s-3.31.58-4.44,1.51l-4.84-2.72v-11.95Z"/>
      </g>
      <g>
        <polyline class="cls-1" points="270.15 197.54 239.7 197.54 198.21 197.54 156.08 197.54 114.6 197.54 72.46 197.54 30.79 197.54 .24 197.54"/>
        <line class="cls-1" x1=".24" y1="102.41" x2="270.15" y2="102.41"/>
        <line class="cls-1" x1=".24" y1="108.18" x2="270.15" y2="108.18"/>
        <line class="cls-1" x1="266.16" y1="163.39" x2="270.15" y2="163.39"/>
        <line class="cls-1" x1="224.33" y1="163.39" x2="254.85" y2="163.39"/>
        <line class="cls-1" x1="182.5" y1="163.39" x2="213.02" y2="163.39"/>
        <line class="cls-1" x1="140.67" y1="163.39" x2="171.19" y2="163.39"/>
        <line class="cls-1" x1="98.83" y1="163.39" x2="129.36" y2="163.39"/>
        <line class="cls-1" x1="57" y1="163.39" x2="87.53" y2="163.39"/>
        <line class="cls-1" x1="15.17" y1="163.39" x2="45.7" y2="163.39"/>
        <line class="cls-1" x1=".24" y1="163.39" x2="3.87" y2="163.39"/>
        <line class="cls-1" x1="266.16" y1="168.42" x2="270.15" y2="168.42"/>
        <polyline class="cls-1" points="224.33 168.42 230.03 168.42 254.85 168.42"/>
        <polyline class="cls-1" points="182.5 168.42 207.88 168.42 213.02 168.42"/>
        <polyline class="cls-1" points="140.67 168.42 146.41 168.42 171.19 168.42"/>
        <polyline class="cls-1" points="98.83 168.42 124.26 168.42 129.36 168.42"/>
        <polyline class="cls-1" points="57 168.42 62.8 168.42 87.53 168.42"/>
        <polyline class="cls-1" points="15.17 168.42 40.45 168.42 45.7 168.42"/>
        <line class="cls-1" x1=".24" y1="168.42" x2="3.87" y2="168.42"/>
        <polyline class="cls-1" points="72.46 197.54 87.81 188.9 93.53 185.69 97.92 183.23 124.26 168.42"/>
        <polyline class="cls-1" points="114.6 197.54 98.95 188.74 93.53 185.69 88.89 183.09 62.8 168.42"/>
        <path class="cls-1" d="m139.4,186.59c0,2.78-2.25,5.03-5.02,5.03s-5.03-2.25-5.03-5.03,2.25-5.02,5.03-5.02,5.02,2.25,5.02,5.02Z"/>
        <path class="cls-1" d="m224.07,186.59c0,2.78-2.25,5.03-5.02,5.03s-5.03-2.25-5.03-5.03,2.25-5.02,5.03-5.02,5.02,2.25,5.02,5.02Z"/>
        <path class="cls-1" d="m97.92,183.23c1,.89,1.62,2.07,1.62,3.37,0,.76-.21,1.49-.59,2.14-1,1.7-3.13,2.88-5.62,2.88s-4.48-1.1-5.51-2.72c-.44-.69-.69-1.48-.69-2.31,0-1.37.68-2.61,1.77-3.51,1.13-.93,2.7-1.51,4.44-1.51,1.82,0,3.46.63,4.59,1.65Z"/>
        <polyline class="cls-1" points=".24 191.01 4.01 188.9 9.72 185.69 14.11 183.23 40.45 168.42"/>
        <polyline class="cls-1" points="30.79 197.54 15.14 188.74 9.72 185.69 5.08 183.09 .24 180.37"/>
        <path class="cls-1" d="m14.11,183.23c1,.89,1.62,2.07,1.62,3.37,0,.76-.21,1.49-.59,2.14-1,1.7-3.13,2.88-5.62,2.88s-4.48-1.1-5.51-2.72c-.44-.69-.69-1.48-.69-2.31,0-1.37.68-2.61,1.77-3.51,1.13-.93,2.7-1.51,4.44-1.51,1.82,0,3.46.63,4.59,1.65Z"/>
        <polyline class="cls-1" points="156.08 197.54 171.43 188.9 177.15 185.69 181.54 183.23 207.88 168.42"/>
        <polyline class="cls-1" points="198.21 197.54 182.57 188.74 177.15 185.69 172.51 183.09 146.41 168.42"/>
        <path class="cls-1" d="m181.54,183.23c1,.89,1.62,2.07,1.62,3.37,0,.76-.21,1.49-.59,2.14-1,1.7-3.13,2.88-5.62,2.88s-4.48-1.1-5.51-2.72c-.44-.69-.69-1.48-.69-2.31,0-1.37.68-2.61,1.77-3.51,1.13-.93,2.7-1.51,4.44-1.51,1.82,0,3.46.63,4.59,1.65Z"/>
        <polyline class="cls-1" points="239.7 197.54 255.05 188.9 260.77 185.69 265.16 183.22 270.15 180.41"/>
        <polyline class="cls-1" points="270.15 190.97 266.18 188.74 260.77 185.69 256.13 183.09 230.03 168.42"/>
        <path class="cls-1" d="m265.16,183.22c1,.89,1.62,2.08,1.62,3.38,0,.76-.21,1.49-.59,2.14-1,1.7-3.13,2.88-5.62,2.88s-4.48-1.1-5.51-2.72c-.44-.69-.69-1.48-.69-2.31,0-1.37.68-2.61,1.77-3.51,1.13-.93,2.7-1.51,4.44-1.51,1.82,0,3.46.63,4.59,1.64Z"/>
        <path class="cls-1" d="m54.27,186.59c0,2.78-2.25,5.03-5.02,5.03s-5.03-2.25-5.03-5.03,2.25-5.02,5.03-5.02,5.02,2.25,5.02,5.02Z"/>
        <rect class="cls-1" x="3.87" y="163.39" width="11.31" height="5.03"/>
        <rect class="cls-1" x="45.7" y="163.39" width="11.31" height="5.03"/>
        <rect class="cls-1" x="87.53" y="163.39" width="11.31" height="5.03"/>
        <rect class="cls-1" x="129.36" y="163.39" width="11.31" height="5.03"/>
        <rect class="cls-1" x="171.19" y="163.39" width="11.31" height="5.03"/>
        <rect class="cls-1" x="213.02" y="163.39" width="11.31" height="5.03"/>
        <rect class="cls-1" x="254.85" y="163.39" width="11.31" height="5.03"/>
      </g>
    </g>
  </g>
  <g id="_レイヤー_2" data-name="レイヤー 2">
    <g>
      <g>
        <path class="cls-7" d="m238.98,118.18c3.92,4.24,9.54,11.33,8.15,15.36-11.97,0-21.47.47-21.78-1.86-1.23-.53-1.53-4.66-3.14-7.36-.97-1.64-3.21-1.31-3.96-1.42-1-.14-4.19.3-8.09.87-2.28.34-4.81.72-7.31,1.07-1.64.23-3.27.43-4.8.6-7.77.85-19.5-2.26-22.31-6.37,6.23-2.64,16.31-8.94,16.66-10.44.36-1.56,3.25-4.38,6.64-4.35.57.5.83,1.11.76,1.71-.06.45-.31.9-.76,1.29-1.06.92-3.81,6.57-3.81,7.7s.99,4.76,7.77,5.17c6.78.41,13.14-.08,17.23-1.22,4.1-1.13,13.21-2.12,18.76-.77Z"/>
        <path class="cls-4" d="m231.57,105.99c3.07,1.91,6.36,10.07,7.42,12.19-5.54-1.35-14.66-.36-18.76.77-4.09,1.14-10.45,1.63-17.23,1.22-6.78-.42-7.77-4.04-7.77-5.17s2.75-6.78,3.81-7.7c.45-.39.7-.84.76-1.29l.75.16s22.72,1.7,26.5-2.54c1.95.91,3.53,1.75,4.52,2.36Z"/>
        <path class="cls-7" d="m225.35,131.68c-1.59.35-6.59-1.72-10.43-3.93-2.57-1.48-4.62-3.03-4.77-3.97,3.91-.58,7.09-1.02,8.09-.87.75.1,2.98-.22,3.96,1.42,1.61,2.7,1.92,6.83,3.14,7.36Z"/>
        <path class="cls-8" d="m214.93,127.75c3.84,2.21,8.84,4.28,10.43,3.93-6.57,5.09-19,11.71-25.04,13.41-6.04,1.7-18.87,3.6-18.87,3.6,3.33-.96,6.44-3.19,9.21-5.92,6.98-1.22,18.98-6.23,24.28-15.03Z"/>
        <path class="cls-4" d="m204.75,96.56s5.62.85,7.2,2.01c5.13.86,10.93,3.1,15.09,5.05-3.77,4.24-26.5,2.54-26.5,2.54l-.75-.16c.07-.6-.19-1.21-.76-1.71,0,0-13.66-9-15.99-11.23,2.22-1.8,12.25-9.23,11.64-12.35,2.23,1.75,4.33,3.37,4.99,3.98,2.23,2.54,5.09,11.87,5.09,11.87Z"/>
        <path class="cls-8" d="m210.15,123.78c.15.94,2.2,2.48,4.77,3.97-5.3,8.8-17.3,13.81-24.28,15.03,7.32-7.22,12.2-17.93,12.2-17.93,2.49-.35,5.03-.73,7.31-1.07Z"/>
        <path class="cls-4" d="m199.03,104.29c-3.39-.03-6.28,2.79-6.64,4.35-.35,1.5-10.43,7.81-16.66,10.44-.22.08-.44.18-.65.26,0,0-3.22.38-5.88.82,6.41-2.67,4.19-11.32,3.34-15.13-.62-2.8.36-6.29.41-11.98h0c2.49-1.4,4.4-1.96,5.97-1.91,1.64.04,2.92.76,4.11,1.91,2.33,2.23,15.99,11.23,15.99,11.23Z"/>
        <path class="cls-8" d="m198.05,125.45c1.53-.17,3.15-.37,4.8-.6,0,0-4.87,10.71-12.2,17.93-2.76,2.73-5.87,4.96-9.21,5.92-7.42,2.97-30.73,9-44.71,3.18,1.04-1.01,1.92-2.58,2.63-4.48h0c5.98,2.08,19.61,3.12,25.23-.44.6.17,1.36.25,2.37.4,2.82.42,6.5-2.68,10.03-3.81,3.53-1.13,1.42-2.54,0-3.95-4.8-1.98-8.33-11.87-9.11-19.18.41-.08.86-.15,1.32-.23,2.66-.44,5.88-.82,5.88-.82.21-.08.43-.18.65-.26,2.81,4.1,14.54,7.21,22.31,6.37Z"/>
        <path class="cls-4" d="m194.68,80.71c.61,3.12-9.42,10.55-11.64,12.35-1.2-1.14-2.47-1.86-4.11-1.91,1.03-4.24,5.06-15.05,9.83-15.47.99,1.1,3.52,3.14,5.92,5.03Z"/>
        <path class="cls-4" d="m181.23,67.11c1.81,1.37,5.62,6.46,7.53,8.58-4.77.42-8.8,11.23-9.83,15.47-1.57-.05-3.48.51-5.97,1.91h0c.03-2.05-.07-4.39-.41-7.09-.52-4.11-2.48-8.53-5.32-12.67h0c2.66-.11,8.43-5.91,8.43-5.91l-.03-1.91c1.55,0,4.1.22,5.6,1.63Z"/>
        <path class="cls-4" d="m176.99,139.58c1.42,1.41,3.53,2.82,0,3.95-3.53,1.14-7.2,4.24-10.03,3.81-1.02-.15-1.77-.23-2.37-.4-1.08-.29-1.66-.85-2.35-2.57-1.07-2.68-6.87-15.54-6.3-17.23s.75-4.65-2.31-8.33c2.63-.24,4.96-.52,5.29-.64,2.81,1.53,6.2,2.75,8.95,2.22.78,7.32,4.31,17.2,9.11,19.18Z"/>
        <path class="cls-4" d="m175.63,65.48l.03,1.91s-5.76,5.8-8.43,5.9h0c-4.18-6.11-10.25-11.62-16.34-14.66l-2.39-.38c.18-1.1.31-2.36.36-3.69,1.79-.88,3.25-2.44,4.42-4.26,5.08,1.13,13.98,8.04,16.52,10.59s4.53,4.66,4.53,4.66c0,0,.53-.07,1.31-.07Z"/>
        <path class="cls-4" d="m172.54,85.97c.34,2.7.43,5.04.41,7.09-.05,5.69-1.03,9.18-.41,11.98.85,3.81,3.07,12.46-3.34,15.13-.47.08-.92.15-1.32.23-2.75.53-6.15-.69-8.95-2.22h1.53c1.74-1.74,2.17-4.38,1.08-6.59-.81-1.64-1.64-3.48-1.93-4.65-.64-2.54.64-11.44,0-18.01s-6.78-11.02-14.49-23.83c1.09-1.22,1.79-2.42,2.3-3.2.39-.58.78-1.92,1.06-3.66l2.39.38c6.09,3.03,12.16,8.54,16.34,14.66,2.85,4.14,4.81,8.56,5.32,12.67Z"/>
        <path class="cls-4" d="m162.25,144.38c.69,1.72,1.27,2.28,2.35,2.57-5.62,3.56-19.24,2.52-25.23.44h0c2.13-5.7,2.78-14.45,2.03-20.39,1.47-3.39,2.81-5.57,3.71-7.87.04.02.22.05.58.11.94.14,4.68-.12,7.95-.42,3.06,3.68,2.87,6.64,2.31,8.33s5.23,14.55,6.3,17.23Z"/>
        <path class="cls-4" d="m145.13,65.11c7.7,12.81,13.85,17.26,14.49,23.83s-.64,15.47,0,18.01c.3,1.16,1.12,3,1.93,4.65,1.08,2.2.65,4.85-1.08,6.59h-1.53c-.33.12-2.66.4-5.29.64-3.27.31-7.01.57-7.95.42-.36-.06-.54-.09-.58-.11h0c.76-1.92,1.23-3.95,1.23-6.82,0-6.35-.71-10.59-4.95-16.1-2.38-3.09-7.11-4.93-11.83-5.31v-.07c-1.13-9.34-6.49-13.18-6.49-13.18l-.78-.07c.25-1.77.5-3.39-.26-4.29-1.14-1.34-4.58.39-6.68,2.9-.13-.56-.25-1.04-.36-1.45-.08-.31-.17-.63-.27-.97,1.74-1.23,4.24-3.05,4.24-3.05,1.26-.59,2.6-2.06,3.07-3.05.04-.05.93-1.03.92-1.55l1.33-.8s.79-.47.75-.79c-.02-.13-.06-.35-.09-.57-.07-.37-.39-.7-.75-.75l.14-.03c.31-.06.47-.35.41-.69l-.13-.6c-.05-.25-.23-.5-.46-.64l-.25-.14.05-.08c.19-.16.25-.48.08-.79-.11-.21-.25-.42-.42-.58l-.04-.06c.19-.11.23-.38.07-.63-.05-.08-.1-.14-.14-.21-.12-.16-.3-.26-.47-.27l-1.81-.1s-1.22.26-2.61,1.03l-.08-.14c.72-.57,3.47-1.94,3.64-1.95.18,0,2.19-.04,3.01-.41v.31c3.42,3.08,5.54,5.72,5.54,5.72l2.01-.85s6.26,2.02,6.99,1.81c.75-.21,6.22-7.14,6.22-7.14l.7-1.51v-.04c.46-.05.96-.16,1.48-.36.25-.09.51-.2.75-.32-.06,1.33-.19,2.59-.36,3.69-.28,1.74-.67,3.08-1.06,3.66-.51.78-1.2,1.97-2.3,3.2Z"/>
        <path class="cls-9" d="m146.62,55.24v.04s-.7,1.51-.7,1.51l-5.59-.07-4.87,3.53h-1.48l-8.43-8.57-.39-.4v-2.61l2.33-1.96c.55.7,1.25,1.39,1.76,1.32.99-.14,2.05-1.84,3.53-3.25.34-.32.63-.94.88-1.69-.7.04-1.56.09-2.2.07-1.22-.05-2.25-1.54-2.5-2.36-.03-.07-.04-.15-.07-.23-.25-.83-.58-2.1-.22-4.01.4-2.08,1.73-1.53,2.89-1.25.97.23,1.86,1.16,3.09,3.12.16-1.18.25-2.04.25-2.04,0,0,1.27-10.04,2.25-13.71,0,0,11.53,1.43,14.25.94,2.85,7.26,6.38,13.89,5.25,18.41-.63,2.52-1.71,5.67-3.38,8.27-1.17,1.82-2.63,3.38-4.42,4.26-.24.12-.49.23-.75.32-.53.19-1.03.31-1.49.36Zm8.21-22.75l-.88-2.01-2.86,1.01s-.49.66.21.72l3.53.28Zm-10.21-.49c.64.25,1.52-.57,1.2-1.03-.31-.46-2.12-.99-3.53-.92-1.42.07-5.34,1.34-4.2,1.52.88-.14,5.9.18,6.54.42Z"/>
        <path class="cls-3" d="m153.94,30.48l.88,2.01-3.53-.28c-.7-.06-.21-.72-.21-.72l2.86-1.01Z"/>
        <path class="cls-3" d="m150.79,2.9c1.7,1.7,1.2,3.95.77,5.65s-.03,3.89.42,6.01c-.06,2.19-1.75,3.25-1.61,4.03.14.77,1.59,3.53,1.61,4.73,0,.14-.2.25-.58.31-2.72.49-14.25-.94-14.25-.94-.98,3.67-2.25,13.71-2.25,13.71,0,0-.08.86-.25,2.04-1.23-1.96-2.12-2.89-3.09-3.12-1.16-.28-2.49-.82-2.89,1.25-.36,1.91-.03,3.18.22,4.01l-1.28.26c-.85-2.12-1.97-5.02,1.91-8.76.71-4.87,1.84-10.52,1.84-10.52l-4.38-2.69s-1.06-1.25,1.59-1.43c1.31-5.2,2.58-11.07,4.63-12.49,2.04-1.41,6.28-3.53,9.82-4.24,3.53-.7,6.08.5,7.77,2.2Z"/>
        <path class="cls-4" d="m140.33,56.72l5.59.07s-5.48,6.93-6.22,7.14c-.74.21-6.99-1.81-6.99-1.81l1.27-1.87h1.48l4.87-3.53Z"/>
        <path class="cls-3" d="m145.81,30.97c.32.46-.56,1.27-1.2,1.03s-5.65-.57-6.54-.42c-1.14-.18,2.79-1.45,4.2-1.52,1.41-.08,3.21.46,3.53.92Z"/>
        <path class="cls-8" d="m141.39,127c.75,5.93.09,14.68-2.03,20.39-.71,1.91-1.59,3.48-2.63,4.48-8.05,3.18-25.74,7.09-35.7.53-.85-.42-2.12-.95-2.12-.95-4.87,1.48-9.22,3.07-17.16,2.75-7.95-.32-9.01-6.99-9.01-6.99.37-1.58.25-3.51.29-5.45.02-1.03.08-2.05.28-3.03.99-4.6,9.74-12.15,20.1-18.16h0c1.42-.83,2.87-1.63,4.34-2.39,3.97-9.33,14.63-20.22,20.73-24.57.41-.29.81-.56,1.17-.79,2.54-1.61,6.22-2.21,9.92-1.92,4.72.38,9.45,2.22,11.83,5.31,4.24,5.51,4.95,9.75,4.95,16.1,0,2.87-.47,4.9-1.23,6.81-.03,0-.03,0,0,0-.91,2.31-2.25,4.48-3.71,7.87Z"/>
        <path class="cls-4" d="m125.54,51.68l8.43,8.57-1.27,1.87-2.01.85s-2.12-2.64-5.54-5.72v-.31s.02,0,.03,0c.56-.17.36-.79-.03-1.11v-3.75l.39-.38Z"/>
        <path class="cls-3" d="m133.66,43.09c-.25.75-.54,1.36-.88,1.69-1.48,1.42-2.54,3.11-3.53,3.25-.51.07-1.21-.63-1.76-1.32-.53-.65-.92-1.3-.92-1.3.49-1.48.71-3.18.71-3.18l.35-1.41,1.28-.26c.03.08.04.16.07.23.25.82,1.28,2.31,2.5,2.36.64.03,1.5-.03,2.2-.07Z"/>
        <path class="cls-7" d="m129.57,90.82v.07c-3.7-.29-7.38.31-9.93,1.92-.36.23-.76.5-1.17.79,0,0-.16-1.01-.42-2.57.58-.42,2.75-2.11,3.2-3.48.53-1.59.75-4.66.76-7.31,0-.88.14-1.8.26-2.67l.78.07s5.37,3.84,6.5,13.18Z"/>
        <path class="cls-4" d="m125.15,51.28l.39.4-.39.38v3.75c-.1-.09-.22-.16-.35-.19-.59-.19-3.43-.18-4.06-.14-.14,0-.3.07-.47.15l-1.32-5.36c3-1.09,6.2-1.6,6.2-1.6v2.61Z"/>
        <path class="cls-9" d="m123.89,61.12l.25.14c.23.14.41.38.46.64l.13.6c.07.34-.1.63-.41.69l-.14.03c.36.05.68.38.75.75.03.22.08.44.09.57.04.31-.75.79-.75.79l-1.33.8c0,.52-.88,1.5-.92,1.55-.47.99-1.81,2.46-3.07,3.05,0,0-2.5,1.82-4.24,3.05-.62-2.18-1.46-4.92-2.17-7.15l2.25-1.6c.39-1.42,1.46-4.33,1.62-5.28.14-.83.16-1.7,1.06-2.34.13-.09.27-.18.44-.26.03-.02.07-.03.09-.05.14-.07.26-.14.39-.21.41-.24.77-.49,1.09-.72.3-.21.56-.4.79-.52.17-.08.32-.14.47-.15.63-.03,3.47-.04,4.06.14.13.03.25.1.35.19v1.12c-.82.36-2.83.4-3.01.41-.17,0-2.92,1.38-3.64,1.95l.08.14c1.39-.77,2.61-1.03,2.61-1.03l1.81.1c.18,0,.36.11.47.27.04.07.09.14.14.21.16.25.12.52-.07.63l.04.06c.17.16.31.36.42.58.16.31.11.63-.08.79l-.05.08Z"/>
        <path class="cls-4" d="m122.03,73.29c.76.9.52,2.52.26,4.29-.13.87-.25,1.79-.26,2.67-.02,2.64-.23,5.72-.76,7.31-.46,1.37-2.62,3.06-3.2,3.48-.63-3.82-1.83-10.98-2.71-14.85,2.1-2.51,5.54-4.24,6.68-2.9Z"/>
        <path class="cls-6" d="m116.08,46.54c.63-.26,1.25-.43,1.83-.47l1.04,4.2,1.32,5.36c-.23.12-.49.31-.79.52l-.24-.33-5.03-8.25c.62-.42,1.25-.77,1.86-1.03Z"/>
        <path class="cls-6" d="m112.8,48.67c.46-.41.94-.78,1.42-1.1l5.03,8.25.24.33c-.32.23-.69.48-1.09.72l-.04-.33-7.19-6.24c.49-.57,1.04-1.13,1.63-1.63Z"/>
        <path class="cls-6" d="m118.36,56.54l.04.33c-.13.08-.25.14-.39.21l-.1-.19-7.84-4.48-.31-.18c.37-.64.86-1.31,1.41-1.94h0l7.19,6.24Z"/>
        <path class="cls-4" d="m112.55,66.62c.71,2.24,1.55,4.98,2.17,7.15.1.34.19.66.27.97.11.41.23.89.36,1.45.88,3.87,2.09,11.03,2.71,14.85.25,1.56.42,2.57.42,2.57-6.1,4.36-16.77,15.24-20.73,24.57-1.47.76-2.92,1.56-4.34,2.38h0c-10.36,6.03-19.11,13.57-20.1,18.17-.2.97-.26,2-.28,3.03h-.29c-2.27-1.75-11.97-.43-14.09.58-.81-2.7.33-7.33,2.22-12.21-3.36,1.07-16.59-1.8-19.28-3.04l10.53-8.98s21.89-16.66,26-17.66c5.93-8.62,12.29-21.19,12.29-21.19l4.66-8.48-.03-.37,1.54-.12s4.49-3.67,7.2-4.84c.41-.18.76-.3,1.07-.34,1.53-.22,4.43-1.59,6.4-2.6,0,0,.58,1.78,1.31,4.11Z"/>
        <path class="cls-6" d="m110.34,54.5l-1.36-.53c.14-.52.4-1.08.73-1.66l.36.11,7.84,4.48.1.19s-.06.03-.09.05c-.17.08-.31.17-.44.26l-.03-.14-2.46-.95-4.65-1.81Z"/>
        <path class="cls-6" d="m117.18,30.83l.74,15.24c-.58.04-1.2.21-1.83.47l-3.8-14.85-.03-.08c1.58-.46,3.21-.73,4.92-.79Z"/>
        <path class="cls-4" d="m117.45,57.25l.03.14c-.9.64-.92,1.51-1.06,2.34-.16.95-1.23,3.87-1.62,5.28l-2.25,1.6c-.72-2.33-1.31-4.11-1.31-4.11,1.02-.53,1.79-.97,1.97-1.08.53-.36,1.78-5.12,1.78-5.12l2.46.95Z"/>
        <path class="cls-6" d="m112.29,31.69l3.8,14.85c-.62.25-1.25.6-1.86,1.03l-6.75-13.66-.12-.22c1.54-.86,3.19-1.57,4.91-2.07l.03.08Z"/>
        <path class="cls-4" d="m110.34,54.5l4.65,1.81s-1.25,4.76-1.78,5.12c-.18.12-.95.56-1.97,1.08-1.97,1.02-4.87,2.38-6.4,2.6-.31.04-.66.16-1.07.34l-6.27-2.94c5.05-4.17,12.54-7.86,12.83-8.01Z"/>
        <path class="cls-6" d="m107.47,33.91l6.75,13.66c-.48.32-.97.7-1.42,1.1l-9.62-11.49-.33-.34c1.38-1.18,2.89-2.25,4.51-3.16l.12.22Z"/>
        <path class="cls-6" d="m103.17,37.19l9.62,11.49c-.58.5-1.14,1.06-1.63,1.63h0l-12.98-8.1-.22-.17c1.37-1.81,3.01-3.59,4.88-5.18l.33.34Z"/>
        <path class="cls-6" d="m98.18,42.2l12.98,8.1c-.55.64-1.03,1.3-1.41,1.94-.03.03-.03.04-.05.07l-15.1-4.54-.07-.03c.8-1.79,1.95-3.76,3.42-5.7l.22.17Z"/>
        <path class="cls-6" d="m94.61,47.76l15.1,4.54c-.33.58-.58,1.14-.73,1.66l-15.57-2.65c.17-1.04.56-2.26,1.14-3.59l.07.03Z"/>
        <path class="cls-4" d="m97.5,62.51l6.27,2.94c-2.7,1.17-7.2,4.84-7.2,4.84l-1.54.12-.4-5.14c.77-.92,1.76-1.86,2.86-2.76Z"/>
        <path class="cls-7" d="m73.02,141.76c-.03,1.94.08,3.87-.29,5.45-4.45,1.27-13.35.74-14.09-4.87,2.12-1.01,11.82-2.33,14.09-.58h.29Z"/>
        <path class="cls-4" d="m41.59,127.08c2.7,1.25,15.93,4.11,19.28,3.04-1.89,4.88-3.03,9.51-2.22,12.21-11.44.74-41.86,2.43-41.86,2.43l23.45-32.88,1.34,15.19Z"/>
        <polygon class="cls-4" points="52.11 118.1 41.59 127.08 40.25 111.89 52.11 118.1"/>
      </g>
      <g>
        <path class="cls-2" d="m151.4,23.62c.37-.06.58-.16.58-.31-.02-1.2-1.47-3.96-1.61-4.73-.14-.78,1.55-1.84,1.61-4.03-.44-2.12-.84-4.31-.42-6.01s.92-3.95-.77-5.65S146.56,0,143.02.7c-3.53.71-7.77,2.83-9.82,4.24-2.05,1.42-3.32,7.28-4.63,12.49-2.65.19-1.59,1.43-1.59,1.43l4.38,2.69s-1.13,5.65-1.84,10.52c-3.88,3.75-2.75,6.65-1.91,8.76l-.35,1.41s-.22,1.7-.71,3.18c0,0,.4.64.92,1.3.55.7,1.25,1.39,1.76,1.32.99-.14,2.05-1.84,3.53-3.25.34-.32.63-.94.88-1.69-.7.04-1.56.09-2.2.07-1.22-.05-2.25-1.54-2.5-2.36-.03-.07-.04-.15-.07-.23-.25-.83-.58-2.1-.22-4.01.4-2.08,1.73-1.53,2.89-1.25.97.23,1.86,1.16,3.09,3.12.16-1.18.25-2.04.25-2.04,0,0,1.27-10.04,2.25-13.71,0,0,11.53,1.43,14.25.94Z"/>
        <path class="cls-2" d="m151.4,23.62c2.85,7.26,6.38,13.89,5.25,18.41-.63,2.52-1.71,5.67-3.38,8.27-1.17,1.82-2.63,3.38-4.42,4.26-.24.12-.49.23-.75.32-.53.19-1.03.31-1.49.36-3.82.44-5.78-3.25-5.78-3.25"/>
        <polyline class="cls-2" points="127.48 46.71 125.15 48.67 125.15 51.28 125.54 51.68 133.98 60.25 135.46 60.25 140.33 56.72 145.92 56.79 146.62 55.28"/>
        <path class="cls-2" d="m138.08,31.58c.88-.14,5.9.18,6.54.42s1.52-.57,1.2-1.03c-.31-.46-2.12-.99-3.53-.92-1.42.07-5.34,1.34-4.2,1.52Z"/>
        <path class="cls-2" d="m151.29,32.21l3.53.28-.88-2.01-2.86,1.01s-.49.66.21.72Z"/>
        <path class="cls-2" d="m150.29,35.32s3.02,7.52,2.57,8.69c-.45,1.16-.81,1.91-1.96,2.01-1.14.11-2.05,0-2.05,0"/>
        <path class="cls-2" d="m148.12,44.05s-.77,1.25-.31,1.74"/>
        <path class="cls-2" d="m142.6,38.08s2.2-.4,3.48,0"/>
        <path class="cls-2" d="m153.24,37.43s1.37-.44,2.36,0"/>
        <path class="cls-2" d="m153.27,50.3c5.08,1.13,13.98,8.04,16.52,10.59s4.53,4.66,4.53,4.66c0,0,.53-.07,1.31-.07,1.55,0,4.1.22,5.6,1.63,1.81,1.37,5.62,6.46,7.53,8.58.99,1.1,3.52,3.14,5.92,5.03,2.23,1.75,4.33,3.37,4.99,3.98,2.23,2.54,5.09,11.87,5.09,11.87,0,0,5.62.85,7.2,2.01,5.13.86,10.93,3.1,15.09,5.05,1.95.91,3.53,1.75,4.52,2.36,3.07,1.91,6.36,10.07,7.42,12.19,3.92,4.24,9.54,11.33,8.15,15.36-11.97,0-21.47.47-21.78-1.86-6.57,5.09-19,11.71-25.04,13.41-6.04,1.7-18.87,3.6-18.87,3.6-7.42,2.97-30.73,9-44.71,3.18-8.05,3.18-25.74,7.09-35.7.53-.85-.42-2.12-.95-2.12-.95-4.87,1.48-9.22,3.07-17.16,2.75-7.95-.32-9.01-6.99-9.01-6.99-4.45,1.27-13.35.74-14.09-4.87-11.44.74-41.86,2.43-41.86,2.43l23.45-32.88,11.87,6.21s21.89-16.66,26-17.66c5.93-8.62,12.29-21.19,12.29-21.19l4.66-8.48-.03-.37-.4-5.14c.77-.92,1.76-1.86,2.86-2.76,5.05-4.17,12.54-7.86,12.83-8.01h0"/>
        <path class="cls-2" d="m111.17,50.3c.49-.57,1.04-1.13,1.63-1.63.46-.41.94-.78,1.42-1.1.62-.42,1.25-.77,1.86-1.03.63-.26,1.25-.43,1.83-.47l-.74-15.24c-1.7.06-3.34.33-4.92.79-1.72.5-3.37,1.2-4.91,2.07-1.62.91-3.13,1.98-4.51,3.16-1.87,1.59-3.51,3.37-4.88,5.18-1.47,1.94-2.63,3.92-3.42,5.7-.58,1.32-.97,2.54-1.14,3.59l15.57,2.65c.14-.52.4-1.08.73-1.66.02-.03.03-.04.05-.07.37-.64.86-1.31,1.41-1.94"/>
        <polyline class="cls-2" points="108.97 53.97 110.34 54.5 114.99 56.3 117.45 57.25"/>
        <polyline class="cls-2" points="109.75 52.24 110.07 52.42 117.91 56.89"/>
        <line class="cls-2" x1="111.17" y1="50.3" x2="118.36" y2="56.54"/>
        <line class="cls-2" x1="112.8" y1="48.67" x2="118.81" y2="56.17"/>
        <line class="cls-2" x1="114.22" y1="47.57" x2="119.25" y2="55.82"/>
        <line class="cls-2" x1="116.08" y1="46.54" x2="119.7" y2="55.46"/>
        <polyline class="cls-2" points="117.92 46.07 118.96 50.27 120.28 55.63"/>
        <path class="cls-2" d="m118.96,50.27c3-1.09,6.2-1.6,6.2-1.6"/>
        <path class="cls-2" d="m125.15,52.06v5.19c3.42,3.08,5.54,5.72,5.54,5.72l2.01-.85,1.27-1.87"/>
        <path class="cls-2" d="m132.71,62.12s6.26,2.02,6.99,1.81c.75-.21,6.22-7.14,6.22-7.14"/>
        <path class="cls-2" d="m148.85,54.56c-.06,1.33-.19,2.59-.36,3.69-.28,1.74-.67,3.08-1.06,3.66-.51.78-1.2,1.97-2.3,3.2-.24.28-.51.56-.8.83-1.56,1.48-4.53,2.75-10.36,2.23"/>
        <path class="cls-2" d="m145.13,65.11c7.7,12.81,13.85,17.26,14.49,23.83s-.64,15.47,0,18.01c.3,1.16,1.12,3,1.93,4.65,1.08,2.2.65,4.85-1.08,6.59"/>
        <path class="cls-2" d="m146.43,119.24s-1.14-.13-1.31-.12c-.03,0-.03,0,0,0,.04.02.22.05.58.11.94.14,4.68-.12,7.95-.42,2.63-.24,4.96-.52,5.29-.64,2.81,1.53,6.2,2.75,8.95,2.22.41-.08.86-.15,1.32-.23,2.66-.44,5.88-.82,5.88-.82.21-.08.43-.18.65-.26,6.23-2.64,16.31-8.94,16.66-10.44.36-1.56,3.25-4.38,6.64-4.35,0,0-13.66-9-15.99-11.23-1.2-1.14-2.47-1.86-4.11-1.91-1.57-.05-3.48.51-5.97,1.91"/>
        <path class="cls-2" d="m150.88,58.63c6.09,3.03,12.16,8.54,16.34,14.66,2.85,4.14,4.81,8.56,5.32,12.67.34,2.7.43,5.04.41,7.09-.05,5.69-1.03,9.18-.41,11.98.85,3.81,3.07,12.46-3.34,15.13"/>
        <path class="cls-2" d="m199.03,104.29c.57.5.83,1.11.76,1.71-.06.45-.31.9-.76,1.29-1.06.92-3.81,6.57-3.81,7.7s.99,4.76,7.77,5.17c6.78.41,13.14-.08,17.23-1.22,4.1-1.13,13.21-2.12,18.76-.77"/>
        <path class="cls-2" d="m175.74,119.08c2.81,4.1,14.54,7.21,22.31,6.37,1.53-.17,3.15-.37,4.8-.6,2.49-.35,5.03-.73,7.31-1.07,3.91-.58,7.09-1.02,8.09-.87.75.1,2.98-.22,3.96,1.42,1.61,2.7,1.92,6.83,3.14,7.36"/>
        <path class="cls-2" d="m210.15,123.78c.15.94,2.2,2.48,4.77,3.97,3.84,2.21,8.84,4.28,10.43,3.93"/>
        <path class="cls-2" d="m202.85,124.85s-4.87,10.71-12.2,17.93c-2.76,2.73-5.87,4.96-9.21,5.92"/>
        <path class="cls-2" d="m190.65,142.78c6.98-1.22,18.98-6.23,24.28-15.03"/>
        <path class="cls-2" d="m167.88,120.4c.78,7.32,4.31,17.2,9.11,19.18,1.42,1.41,3.53,2.82,0,3.95-3.53,1.14-7.2,4.24-10.03,3.81-1.02-.15-1.77-.23-2.37-.4-1.08-.29-1.66-.85-2.35-2.57-1.07-2.68-6.87-15.54-6.3-17.23s.75-4.65-2.31-8.33"/>
        <path class="cls-2" d="m93.4,120.56c1.42-.82,2.87-1.62,4.34-2.38,3.97-9.33,14.63-20.22,20.73-24.57.41-.29.81-.56,1.17-.79,2.54-1.61,6.22-2.21,9.92-1.92,4.72.38,9.45,2.22,11.83,5.31,4.24,5.51,4.95,9.75,4.95,16.1,0,2.87-.47,4.9-1.23,6.81h0c-.91,2.31-2.25,4.49-3.71,7.88.75,5.93.09,14.68-2.03,20.39-.71,1.91-1.59,3.48-2.63,4.48"/>
        <path class="cls-2" d="m72.74,147.21c.37-1.58.25-3.51.29-5.45.02-1.03.08-2.05.28-3.03.99-4.6,9.74-12.15,20.1-18.16"/>
        <polyline class="cls-2" points="40.25 111.89 41.59 127.08 52.11 118.1"/>
        <path class="cls-2" d="m60.88,130.12l.2-.08"/>
        <path class="cls-2" d="m41.59,127.08c2.7,1.25,15.93,4.11,19.28,3.04"/>
        <path class="cls-2" d="m71.04,110.97c-1.35,1.35-6.88,10.65-10.16,19.15h0c-1.89,4.88-3.03,9.51-2.22,12.21,2.12-1.01,11.82-2.33,14.09-.58"/>
        <path class="cls-2" d="m93.4,80.25s-.29,8.09-.85,11.86c-.03.23-.08.45-.11.64-.25,1.36-1.13,4.24-2.07,7.26-1.42,4.51-3.02,9.32-3.02,9.7"/>
        <path class="cls-2" d="m80.15,104.29s8.36-1.91,10.22-4.29h0"/>
        <path class="cls-2" d="m84.26,93.6s7.2.27,8.3-1.49"/>
        <line class="cls-2" x1="97.5" y1="62.51" x2="103.78" y2="65.45"/>
        <path class="cls-2" d="m96.58,70.29s4.49-3.67,7.2-4.84c.41-.18.76-.3,1.07-.34,1.53-.22,4.43-1.59,6.4-2.6,1.02-.53,1.79-.97,1.97-1.08.53-.36,1.78-5.12,1.78-5.12"/>
        <path class="cls-2" d="m118.47,93.6s-.16-1.01-.42-2.57c-.63-3.82-1.83-10.98-2.71-14.85-.13-.56-.25-1.04-.36-1.45-.08-.31-.17-.63-.27-.97-.62-2.18-1.46-4.92-2.17-7.15-.72-2.33-1.31-4.11-1.31-4.11"/>
        <path class="cls-2" d="m162.94,59.48s1.63,3.28.99,4.46c-.64,1.19-2.02,2.92-2.02,2.92"/>
        <path class="cls-2" d="m175.66,67.39s-5.76,5.8-8.43,5.9"/>
        <path class="cls-2" d="m178.93,91.15c1.03-4.24,5.06-15.05,9.83-15.47"/>
        <path class="cls-2" d="m183.04,93.06c2.22-1.8,12.25-9.23,11.64-12.35"/>
        <path class="cls-2" d="m204.75,96.56c.99,3.6,2.26,7.06,2.26,7.06"/>
        <path class="cls-2" d="m200.55,106.17s22.72,1.7,26.5-2.54"/>
        <path class="cls-2" d="m130.27,69.54s3.81,3.92,4.45,16.22"/>
        <path class="cls-2" d="m139.37,147.39c5.98,2.08,19.61,3.12,25.23-.44"/>
        <path class="cls-2" d="m123.07,77.64s5.37,3.84,6.5,13.18"/>
        <path class="cls-2" d="m115.35,76.19c2.1-2.51,5.54-4.24,6.68-2.9.76.9.52,2.52.26,4.29-.13.87-.25,1.79-.26,2.67-.02,2.64-.23,5.72-.76,7.31-.46,1.37-2.62,3.06-3.2,3.48-.09.08-.14.11-.14.11"/>
        <path class="cls-2" d="m93.4,120.56h0c.42,5.47-.32,12.13-2.44,13.51"/>
        <path class="cls-2" d="m98.91,151.45c2.48-.96,5.42-2.08,8.49-3.33,8.85-3.64,18.73-8.46,21.49-14.05"/>
        <path class="cls-2" d="m107.39,148.12h.02c.47.03,9.88.65,15.77-4.41,1.17,2.75,2.33,4.98,2.33,4.98l-9.96-.58"/>
        <path class="cls-2" d="m141.39,127s-4.24,9.82-5.93,11.73"/>
        <path class="cls-2" d="m146.98,49.02c1.66,1.32,3.33,1.32,5,0"/>
        <path class="cls-2" d="m118.51,59.29c.72-.57,3.47-1.94,3.64-1.95.18,0,2.19-.04,3.01-.41,0,0,.02,0,.03,0,.56-.17.36-.79-.03-1.11-.1-.09-.22-.16-.35-.19-.59-.19-3.43-.18-4.06-.14-.14,0-.3.07-.47.15-.23.12-.49.31-.79.52-.32.23-.69.48-1.09.72-.13.08-.25.14-.39.21-.03.02-.06.03-.09.05-.17.08-.31.17-.44.26-.9.64-.92,1.51-1.06,2.34-.16.95-1.23,3.87-1.62,5.28l-2.25,1.6h0"/>
        <path class="cls-2" d="m118.5,59.47s.06-.03.08-.04c1.39-.77,2.61-1.03,2.61-1.03l1.81.1c.18,0,.36.11.47.27.04.07.09.14.14.21.16.25.12.52-.07.63-.05.03-.12.05-.19.05-.74-.03-1.31.03-1.31.03l-2.8,1.36"/>
        <path class="cls-2" d="m120.72,62.45l2.42-1.31.53-.03c.11,0,.19-.04.27-.09.19-.16.25-.48.08-.79-.11-.21-.25-.42-.42-.58"/>
        <path class="cls-2" d="m121.46,64.45l2.48-1.19.25-.05.14-.03c.31-.06.47-.35.41-.69l-.13-.6c-.05-.25-.23-.5-.46-.64l-.25-.14h-.02"/>
        <path class="cls-2" d="m124.19,63.21c.36.05.68.38.75.75.03.22.08.44.09.57.04.31-.75.79-.75.79l-1.33.8c0,.52-.88,1.5-.92,1.55-.47.99-1.81,2.46-3.07,3.05,0,0-2.5,1.82-4.24,3.05"/>
        <polyline class="cls-2" points="94.61 47.76 109.7 52.31 110.07 52.42"/>
        <polyline class="cls-2" points="98.18 42.2 111.16 50.3 111.17 50.3"/>
        <line class="cls-2" x1="103.17" y1="37.19" x2="112.8" y2="48.67"/>
        <line class="cls-2" x1="107.47" y1="33.91" x2="114.22" y2="47.57"/>
        <line class="cls-2" x1="112.29" y1="31.69" x2="116.08" y2="46.54"/>
      </g>
    </g>
  </g>
</svg>