<svg xmlns="http://www.w3.org/2000/svg" viewBox="0 0 270.4 205.43"><defs><style>.cls-1{stroke-miterlimit:10}.cls-1,.cls-2{fill:none;stroke:#000}.cls-3{fill:#ffdeb4}.cls-10,.cls-11,.cls-3,.cls-4,.cls-5,.cls-6,.cls-7,.cls-8,.cls-9{stroke-width:0}.cls-4{fill:#e13c40}.cls-5{fill:#f3edd7}.cls-2{stroke-linecap:round;stroke-linejoin:round}.cls-6{fill:#333}.cls-7{fill:#f5b462}.cls-8{fill:#d2abc8}.cls-9{fill:#98c8a0}.cls-10{fill:#fef6e3}.cls-11{fill:#d8b5cb}</style></defs><g id="_畳" data-name="畳"><path d="M.24 170.79h3.62v5.03H.24zM270.15 198.37v6.57H239.7l15.35-8.63c1.03 1.62 3.11 2.72 5.51 2.72s4.62-1.18 5.62-2.88l3.97 2.23ZM270.15 187.81v10.56l-3.97-2.23c.38-.65.59-1.38.59-2.14 0-1.3-.62-2.48-1.62-3.38l4.99-2.8ZM270.15 175.82v11.99l-4.99 2.8c-1.14-1.01-2.77-1.64-4.59-1.64s-3.31.58-4.44 1.51l-26.1-14.67h40.12ZM270.15 96.68v5.76H.24v-5.76h269.91z" class="cls-5"/><path d="M266.16 170.79h3.99v5.03h-3.99zM266.78 193.99c0 .76-.21 1.49-.59 2.14l-5.42-3.05 4.39-2.47c1 .89 1.62 2.08 1.62 3.38ZM260.77 193.09l5.42 3.05c-1 1.7-3.13 2.88-5.62 2.88s-4.48-1.1-5.51-2.72l5.71-3.21Z" class="cls-5"/><path d="M254.85 170.79h11.31v5.03h-11.31z" class="cls-6"/><path d="m265.16 190.61-4.39 2.47-4.64-2.61c1.13-.93 2.7-1.51 4.44-1.51 1.82 0 3.46.63 4.59 1.64ZM260.77 193.09l-5.71 3.21c-.44-.69-.69-1.48-.69-2.31 0-1.37.68-2.61 1.77-3.51l4.64 2.61Z" class="cls-5"/><path d="m230.03 175.82 26.1 14.67c-1.09.9-1.77 2.14-1.77 3.51 0 .83.25 1.62.69 2.31l-15.35 8.63h-41.48l-15.65-8.8c.38-.65.59-1.38.59-2.14 0-1.3-.62-2.48-1.62-3.37l26.34-14.81h22.15ZM224.06 194c0-2.77-2.25-5.02-5.02-5.02s-5.03 2.25-5.03 5.02 2.25 5.03 5.03 5.03 5.02-2.25 5.02-5.03Z" class="cls-5"/><path d="M254.85 175.82h-30.52v-5.03h30.52v5.03z" class="cls-5"/><path d="M213.02 170.79h11.31v5.03h-11.31zM219.05 188.97c2.77 0 5.02 2.25 5.02 5.02s-2.25 5.03-5.02 5.03-5.03-2.25-5.03-5.03 2.25-5.02 5.03-5.02Z" class="cls-6"/><path d="m207.88 175.82-26.34 14.81c-1.14-1.02-2.77-1.65-4.59-1.65s-3.31.58-4.44 1.51l-26.1-14.67h61.47ZM182.5 175.82v-5.03h30.52v5.03H182.5zM198.21 204.93h-42.13l15.35-8.63c1.03 1.62 3.12 2.72 5.51 2.72s4.62-1.18 5.62-2.88l15.65 8.8Z" class="cls-5"/><path d="M183.16 193.99c0 .76-.21 1.49-.59 2.14l-5.42-3.05 4.39-2.47c1 .89 1.62 2.07 1.62 3.37ZM177.15 193.09l5.42 3.05c-1 1.7-3.13 2.88-5.62 2.88s-4.48-1.1-5.51-2.72l5.71-3.21Z" class="cls-5"/><path d="M171.19 170.79h11.31v5.03h-11.31z" class="cls-6"/><path d="M176.95 188.97c1.82 0 3.46.63 4.59 1.65l-4.39 2.47-4.64-2.61c1.13-.93 2.7-1.51 4.44-1.51Z" class="cls-5"/><path d="m177.15 193.09-5.71 3.21c-.44-.69-.69-1.48-.69-2.31 0-1.37.68-2.61 1.77-3.51l4.64 2.61Z" class="cls-5"/><path d="m146.41 175.82 26.1 14.67c-1.09.9-1.77 2.14-1.77 3.51 0 .83.25 1.62.69 2.31l-15.35 8.63H114.6l-15.65-8.8c.38-.65.59-1.38.59-2.14 0-1.3-.62-2.48-1.62-3.37l26.34-14.81h22.15ZM139.39 194c0-2.77-2.25-5.02-5.02-5.02s-5.03 2.25-5.03 5.02 2.25 5.03 5.03 5.03 5.02-2.25 5.02-5.03Z" class="cls-5"/><path d="M171.19 175.82H140.67v-5.03h30.52v5.03z" class="cls-5"/><path d="M129.36 170.79h11.31v5.03h-11.31zM134.38 188.97c2.77 0 5.02 2.25 5.02 5.02s-2.25 5.03-5.02 5.03-5.03-2.25-5.03-5.03 2.25-5.02 5.03-5.02Z" class="cls-6"/><path d="m124.26 175.82-26.34 14.81c-1.14-1.02-2.77-1.65-4.59-1.65s-3.31.58-4.44 1.51l-26.1-14.67h61.47ZM129.36 175.82H98.83v-5.03h30.53v5.03zM114.6 204.93H72.47l15.35-8.63c1.03 1.62 3.11 2.72 5.51 2.72s4.62-1.18 5.62-2.88l15.65 8.8Z" class="cls-5"/><path d="M99.54 193.99c0 .76-.21 1.49-.59 2.14l-5.42-3.05 4.39-2.47c1 .89 1.62 2.07 1.62 3.37ZM93.53 193.09l5.42 3.05c-1 1.7-3.13 2.88-5.62 2.88s-4.48-1.1-5.51-2.72l5.71-3.21Z" class="cls-5"/><path d="M87.53 170.79h11.31v5.03H87.53z" class="cls-6"/><path d="M93.33 188.97c1.82 0 3.46.63 4.59 1.65l-4.39 2.47-4.64-2.61c1.13-.93 2.7-1.51 4.44-1.51Z" class="cls-5"/><path d="m93.53 193.09-5.71 3.21c-.44-.69-.69-1.48-.69-2.31 0-1.37.68-2.61 1.77-3.51l4.64 2.61Z" class="cls-5"/><path d="m62.8 175.82 26.1 14.67c-1.09.9-1.77 2.14-1.77 3.51 0 .83.25 1.62.69 2.31l-15.35 8.63H30.79l-15.65-8.8c.38-.65.59-1.38.59-2.14 0-1.3-.62-2.48-1.62-3.37l26.34-14.81h22.34ZM54.27 194c0-2.77-2.25-5.02-5.02-5.02s-5.03 2.25-5.03 5.02 2.25 5.03 5.03 5.03 5.02-2.25 5.02-5.03Z" class="cls-5"/><path d="M87.53 175.82H57v-5.03h30.53v5.03z" class="cls-5"/><path d="M45.7 170.79h11.31v5.03H45.7zM49.25 188.97c2.77 0 5.02 2.25 5.02 5.02s-2.25 5.03-5.02 5.03-5.03-2.25-5.03-5.03 2.25-5.02 5.03-5.02Z" class="cls-6"/><path d="M45.7 175.82H15.17v-5.03H45.7v5.03zM30.79 204.93H.24v-6.52L4 196.3c1.03 1.62 3.12 2.72 5.51 2.72s4.62-1.18 5.62-2.88l15.65 8.8ZM15.73 193.99c0 .76-.21 1.49-.59 2.14l-5.42-3.05 4.39-2.47c1 .89 1.62 2.07 1.62 3.37Z" class="cls-5"/><path d="M3.87 170.79h11.31v5.03H3.87z" class="cls-6"/><path d="m9.72 193.09 5.42 3.05c-1 1.7-3.13 2.88-5.62 2.88s-4.48-1.1-5.51-2.72l5.71-3.21ZM9.52 188.97c1.82 0 3.46.63 4.59 1.65l-4.39 2.47-4.64-2.61c1.13-.93 2.7-1.51 4.44-1.51Z" class="cls-5"/><path d="m9.72 193.09-5.71 3.21c-.44-.69-.69-1.48-.69-2.31 0-1.37.68-2.61 1.77-3.51l4.64 2.61ZM.24 187.77l4.84 2.72c-1.09.9-1.77 2.14-1.77 3.51 0 .83.25 1.62.69 2.31l-3.76 2.11v-10.65Z" class="cls-5"/><path d="M213.02 170.79H.24v-68.35H270.15v68.35h-57.13z" style="fill:#d2d296;stroke-width:0"/><path d="M.24 175.82h40.21l-26.34 14.81c-1.14-1.02-2.77-1.65-4.59-1.65s-3.31.58-4.44 1.51l-4.84-2.72v-11.95Z" class="cls-5"/><path d="M270.15 204.93H.24M.24 96.68h269.91M.24 102.44h269.91M266.16 170.79h3.99M224.33 170.79h30.52M182.5 170.79h30.52M140.67 170.79h30.52M98.83 170.79h30.53M57 170.79h30.53M15.17 170.79H45.7M.24 170.79h3.63M266.16 175.82h3.99M224.33 175.82h30.52M182.5 175.82h30.52M140.67 175.82H171.19M98.83 175.82h30.53M57 175.82h30.53M15.17 175.82H45.7M.24 175.82h3.63M72.46 204.93l15.35-8.63 5.72-3.21 4.39-2.47 26.34-14.8" class="cls-1"/><path d="m114.6 204.93-15.65-8.79-5.42-3.05-4.64-2.61-26.09-14.66M139.4 193.99c0 2.78-2.25 5.03-5.02 5.03s-5.03-2.25-5.03-5.03 2.25-5.02 5.03-5.02 5.02 2.25 5.02 5.02ZM224.07 193.99c0 2.78-2.25 5.03-5.02 5.03s-5.03-2.25-5.03-5.03 2.25-5.02 5.03-5.02 5.02 2.25 5.02 5.02Z" class="cls-1"/><path d="M97.92 190.62c1 .89 1.62 2.07 1.62 3.37 0 .76-.21 1.49-.59 2.14-1 1.7-3.13 2.88-5.62 2.88s-4.48-1.1-5.51-2.72c-.44-.69-.69-1.48-.69-2.31 0-1.37.68-2.61 1.77-3.51 1.13-.93 2.7-1.51 4.44-1.51 1.82 0 3.46.63 4.59 1.65ZM.24 198.41l3.77-2.11 5.71-3.21 4.39-2.47 26.34-14.8" class="cls-1"/><path d="m30.79 204.93-15.65-8.79-5.42-3.05-4.64-2.61-4.84-2.71" class="cls-1"/><path d="M14.11 190.62c1 .89 1.62 2.07 1.62 3.37 0 .76-.21 1.49-.59 2.14-1 1.7-3.13 2.88-5.62 2.88s-4.48-1.1-5.51-2.72c-.44-.69-.69-1.48-.69-2.31 0-1.37.68-2.61 1.77-3.51 1.13-.93 2.7-1.51 4.44-1.51 1.82 0 3.46.63 4.59 1.65ZM156.08 204.93l15.35-8.63 5.72-3.21 4.39-2.47 26.34-14.8" class="cls-1"/><path d="m198.21 204.93-15.64-8.79-5.42-3.05-4.64-2.61-26.1-14.66" class="cls-1"/><path d="M181.54 190.62c1 .89 1.62 2.07 1.62 3.37 0 .76-.21 1.49-.59 2.14-1 1.7-3.13 2.88-5.62 2.88s-4.48-1.1-5.51-2.72c-.44-.69-.69-1.48-.69-2.31 0-1.37.68-2.61 1.77-3.51 1.13-.93 2.7-1.51 4.44-1.51 1.82 0 3.46.63 4.59 1.65ZM239.7 204.93l15.35-8.63 5.72-3.21 4.39-2.48 4.99-2.8" class="cls-1"/><path d="m270.15 198.37-3.97-2.23-5.41-3.05-4.64-2.61-26.1-14.66" class="cls-1"/><path d="M265.16 190.61c1 .89 1.62 2.08 1.62 3.38 0 .76-.21 1.49-.59 2.14-1 1.7-3.13 2.88-5.62 2.88s-4.48-1.1-5.51-2.72c-.44-.69-.69-1.48-.69-2.31 0-1.37.68-2.61 1.77-3.51 1.13-.93 2.7-1.51 4.44-1.51 1.82 0 3.46.63 4.59 1.64ZM54.27 193.99c0 2.78-2.25 5.03-5.02 5.03s-5.03-2.25-5.03-5.03 2.25-5.02 5.03-5.02 5.02 2.25 5.02 5.02ZM3.87 170.79h11.31v5.03H3.87zM45.7 170.79h11.31v5.03H45.7zM87.53 170.79h11.31v5.03H87.53zM129.36 170.79h11.31v5.03h-11.31zM171.19 170.79h11.31v5.03h-11.31zM213.02 170.79h11.31v5.03h-11.31zM254.85 170.79h11.31v5.03h-11.31z" class="cls-1"/></g><g id="_レイヤー_2" data-name="レイヤー 2"><path d="M213.12 140.63c-3.24-.43-4.6-1.06-4.72-1.11.45-.12.9-.23 1.34-.34 12.6-3.07 34.55-10.84 37.45-11.81-2.22 8.23-12.94 13.22-24 13.62-4.48.16-7.76-.05-10.07-.36Z" class="cls-4"/><path d="M177.75 101.02c7.4.37 14.38.85 15.99 1.39 3.03 1.01 15.5 7.26 16.32 7.64.01 0 .01.01.02.01 8.14.1 16.07.07 22.3.01 0 0 11.74 11.06 14.81 17.3-2.9.97-24.85 8.74-37.45 11.81-6.89 0-15.4-3.32-21.45-10.37 0 0-9.35 10.36-14.89 15.3-.02 0-.04-.01-.05-.02s-.02-.02-.03-.02c-4.18-3.18-10.52-14.21-14.44-21.49-2.09-3.89-3.48-6.72-3.48-6.72-.59-1.46-1.09-3.71-1.2-6.05-.24-4.61 1.04-9.55 6.18-9.44 3.67.09 10.69.32 17.37.65Z" class="cls-11"/><path d="M224.46 102.16c3.41 1.14 7.92 7.91 7.92 7.91-6.23.06-14.16.09-22.3-.02l-.94-9.03s10.87-.36 15.32 1.14Z" class="cls-9"/><path d="m213.12 140.63-12.74 4.67c2.04-2.04-2.5-3.6-2.5-3.6 3.64-.64 7.24-1.38 10.52-2.18.12.05 1.48.68 4.72 1.11ZM209.14 101.02l.94 9.03h-.02c-.82-.38-13.29-6.63-16.32-7.64-1.61-.54-8.59-1.02-15.99-1.39l13.04-2.91 5.83-1.29 1.33-.3 11.19 4.5Z" class="cls-11"/><path d="M208.4 139.52c-3.28.8-6.88 1.54-10.52 2.18-2.37.43-4.77.81-7.09 1.14-7.26 1.03-13.88 1.56-17.38 1.28v-.01c5.54-4.94 14.89-15.3 14.89-15.3 6.05 7.05 14.56 10.37 21.45 10.37-.44.11-.89.22-1.34.34Z" class="cls-4"/><path d="M197.88 141.7s4.54 1.56 2.5 3.6c-2.04 2.05-12.09 2.77-12.09 2.77l-.56-.06c1.67-2.6 3.06-5.17 3.06-5.17 2.32-.33 4.72-.71 7.09-1.14Z" class="cls-11"/><path d="m200.38 95.98-2.43.54-1.33.3c-4.39-2.44-7.46-5.27-8.33-8.75v-.08c4.43.15 8.27.11 10.21-.31.94 3.87 1.88 8.3 1.88 8.3Z" class="cls-7"/><path d="M196.89 82.07c.31.47.96 2.9 1.61 5.61-1.94.42-5.78.46-10.21.31-6.77-.23-14.9-.9-19.61-1.33-2.41-.22-3.93-.38-3.93-.38l-13.02 5.62-8.46 3.65-7.21 3.11c-.64-.87-1.95-2.12-4.51-3.44-1.31-.32-3.41-.67-5.55-.97l.03-.27 16.67-6.1 10.92-4 4.95-1.81c2.09-.81 3.28-1.18 4.82-1.23.65-.02 1.36 0 2.22.08 1.15.1 6.07.12 11.68.18 2.81.03 5.79.07 8.55.13 5.84.13 10.74.37 11.05.84Z" class="cls-7"/><path d="m196.62 96.82-5.83 1.29c-13.64-4.12-22.11-11.45-22.11-11.45 4.71.43 12.84 1.1 19.61 1.33v.08c.87 3.48 3.94 6.31 8.33 8.75Z" class="cls-7"/><path d="m190.79 98.11-13.04 2.91c-6.68-.33-13.7-.56-17.37-.65l1.75-5.66h.01l2.61-8.43s1.52.16 3.93.38c0 0 8.47 7.33 22.11 11.45Z" class="cls-7"/><path d="M190.79 142.84s-1.39 2.57-3.06 5.17c-1.66 2.59-3.6 5.21-4.71 5.29-3.41-1.36-6.58-2.72-6.58-2.72l1.95-1.5c.77-.59.69-1.77-.16-2.24-1.18-.65-2.86-1.58-4.82-2.72 3.5.28 10.12-.25 17.38-1.28ZM185.85 80.92v.31c-2.77-.06-5.75-.1-8.56-.13v-.18c2.18-2.48 0-8.46 0-8.46 2.75 2.59 6.26 4.82 8.56 8.46Z" class="cls-11"/><path d="M178.23 146.84c.85.47.93 1.65.16 2.24l-1.95 1.5-4.24 3.25c-.6.46-1.44.48-2.05.03l-6.5-4.64-.26.07c-.06-.07-.12-.14-.2-.2-2.45-1.96-7.47-6.06-10.47-9.06-4.09-4.09-7.42-12.66-7.42-12.66l5.29-1.84c.11 4.74 14.07 13.53 22.73 18.54 0 0 .02 0 .03.02s.03.02.04.03h.02c1.96 1.14 3.64 2.07 4.82 2.72ZM177.29 72.46s2.18 5.98 0 8.46v.18c-5.61-.06-10.53-.08-11.68-.18-.86-.07-1.57-.1-2.22-.08s-2.08-4.98-2.08-4.98l4.79-19.03c2.16 2.53 3.91 4.69 4.62 5.87 2.11 3.48 5.81 8.25 6.57 9.76Z" class="cls-11"/><path d="m166.1 56.83-4.79 19.03-2.15-5.15c.38-.31.57-.82.47-1.33-.16-.88-.4-2.04-.66-2.99-.12-.45-.42-.8-.81-1s4.71-12.27 4.71-12.27c1.13 1.27 2.23 2.53 3.23 3.71ZM164.75 86.28l-2.61 8.43h-.01l-8.17 2.89-2.23-5.7 13.02-5.62z" class="cls-7"/><path d="M163.39 149.29c.46.58.3 1.47-.38 1.84l-5.83 3.19c-.93.51-2.07.33-2.8-.43l-3.65-3.77-.1-.08c.52-.66.58-1.61.07-2.35l-12.31-17.91 6.91-2.41s3.33 8.57 7.42 12.66c3 3 8.02 7.1 10.47 9.06.08.06.14.13.2.2Z" class="cls-11"/><path d="M163.39 80.83c-1.54.06-2.73.43-4.82 1.24V71.01c.23-.05.43-.16.59-.3l2.15 5.15 2.08 4.97Z" class="cls-7"/><path d="M153.35 42.56c2.12 2.34 5.96 6.53 9.52 10.56l-4.71 12.26-3.33-6.35c.31-3.32-1.09-11.49-2.18-15.11.25-.43.49-.89.7-1.36ZM173.32 144.07c-8.66-5.01-22.62-13.8-22.73-18.54l7.98-2.78.31-.17c3.92 7.28 10.26 18.31 14.44 21.49Z" class="cls-11"/><path d="m162.13 94.71-1.75 5.66c-5.14-.11-6.42 4.83-6.18 9.44h-.85l-.29-5.41-.35-6.35 1.25-.45 8.17-2.89ZM155.4 71.56a.907.907 0 0 1-.47-.51l-1.14-3.03c-.24-.64.05-1.36.68-1.65.65-.29 1.5-.67 2.32-1.03.46-.2.96-.17 1.37.04.39.21.69.56.81 1.01.26.95.5 2.11.66 2.99.1.51-.09 1.02-.47 1.33-.16.14-.36.25-.59.3l-2.59.6a.88.88 0 0 1-.58-.05ZM158.88 122.58l-.31.17-7.98 2.78-5.29 1.84-6.91 2.41c-.06-.18-.13-.36-.2-.54-.01 0-.01-.02-.01-.03-.68-2.38-1.49-4.92-2.68-7.32l9.56-2.4 8.7-2.19-.41-7.48h.85c.11 2.33.61 4.58 1.2 6.04 0 0 1.39 2.83 3.48 6.72Z" class="cls-7"/><path d="M158.57 71.01v11.06l-4.95 1.81-.02-.06 1.8-12.26c.17.08.38.1.58.05l2.59-.6ZM154.83 59.03l3.33 6.35c-.41-.21-.91-.24-1.37-.04-.82.36-1.67.74-2.32 1.03l-3.67-5.49 4.03-1.85Z" class="cls-7"/><path d="M155.53 28.71c.13 1.4.17 2.85.08 4.34-.16 2.71-.64 5.17-1.39 7.35l-1.57-.33c-1.54-.36-3.12-3.57-3.12-3.57l-1.62-1.12c.81 0 1.58-.18 2-.67.77-.9-1.08-4.21-1.08-4.21l.5-.96c1.3.51 3.06.52 5.37-.77l.83-.06Z" class="cls-3"/><path d="m155.53 28.71-.83.06c-2.31 1.29-4.07 1.28-5.37.77-1.68-.66-2.59-2.17-2.91-2.83h2.02s3.56-.85 4.62-.01l2.11-.4c.16.78.28 1.59.36 2.41Z" class="cls-3"/><path d="m155.4 71.56-1.8 12.26.02.06-10.92 4-.07-.2c2.81-7.53 3.37-37.29 3.37-37.29a13.89 13.89 0 0 0 3.27-2.22l1.53 12.71 3.67 5.49c-.63.29-.92 1.01-.68 1.65l1.14 3.03c.08.23.26.41.47.51Z" class="cls-8"/><path d="m155.17 26.3-2.11.4c-1.06-.84-4.62 0-4.62 0h-2.02c-.1-.19-.15-.31-.15-.31l.49-2.28s3.87-4.42 6.3-1.98l.87-.3c.53 1.41.96 2.91 1.24 4.47Z" class="cls-3"/><path d="M152.65 43.92c1.09 3.62 2.49 11.79 2.18 15.11l-4.03 1.85-1.53-12.71c1.3-1.15 2.44-2.58 3.38-4.25Z" class="cls-7"/><path d="m147.91 35.38 1.62 1.12s1.58 3.21 3.12 3.57l1.57.33c-.25.75-.54 1.47-.87 2.16-.21.47-.45.93-.7 1.36-.94 1.67-2.08 3.1-3.38 4.25-1 .91-2.1 1.65-3.27 2.22-.46.23-1.71.51-3.37.49-1.52-.02-3.39-.29-5.3-1.11 0 0-2.64 8.46-5.32 13.65l-.23-.12c-4.06-6.2-9.07-17.37-12.6-28.72l.55-.17c-.77-2.42-.8-5.69-.41-7.15.2-.73.56-1.24 1.05-1.51 0-4.35.91-7.49 2.22-9.78 2.27-3.95 5.73-5.37 7.83-6.07 3.32-1.11 12.94-2.47 17.53 2.38 2.43 2.56 4.58 5.79 5.98 9.55l-.87.3c-2.43-2.44-6.3 1.98-6.3 1.98l-.49 2.28s.05.12.15.32c.32.66 1.23 2.17 2.91 2.83l-.5.96s1.85 3.31 1.08 4.21c-.42.49-1.19.67-2 .67Zm-1.7-16.29 6.44 1.12c-1.69-1.38-4.53-3.76-6.23-3.09s-.21 1.97-.21 1.97Zm-9.38 1.89s1.08-2.23-1.22-2.17c-2.29.07-4.4 4.22-5.68 6.64l6.9-4.47Z" class="cls-3"/><path d="m153.96 97.6-1.25.45-8.39 2.97-.66.05-.39-5.52 8.46-3.65 2.23 5.7zM153.35 109.82l.41 7.48-8.7 2.19-.16-.65-.51-7.29 8.96-1.73z" class="cls-7"/><path d="m153.06 104.4.29 5.42-8.96 1.73-.45-6.4 9.12-.75zM152.71 98.05l.35 6.35-9.12.75-.28-4.08.66-.05 8.39-2.97z" class="cls-7"/><path d="m152.65 20.21-6.44-1.12s-1.49-1.3.21-1.97 4.54 1.71 6.23 3.09Z" class="cls-6"/><path d="M150.7 147.69c.51.74.45 1.69-.07 2.35-.14.18-.31.34-.52.47-1.57.96-3.87 2.28-5.43 2.79-2.6.86-3.85-.25-3.85-.25.58-6.45.08-16.23-2.44-23.27l12.31 17.91Z" class="cls-11"/><path d="M98.42 37.35c3.54-9.59 11.91-27.78 18.55-36.35-.55.75-.98 1.63-1.32 2.63 0 0-.01.03-.02.08-.47 1.37-.75 2.95-.87 4.71-1.1 7.6-2.12 23.22 4.32 38.93 3.94 9.6 7.53 15.61 10.32 19.33 3.6 4.78 5.87 5.78 5.87 5.78 4.52-10.54 7.36-21.58 7.36-21.58 1.66.02 2.91-.26 3.37-.49 0 0-.56 29.76-3.37 37.29l.07.2-16.67 6.1-.03.27c-3.69-.54-7.49-.95-7.49-.95l-.28-.02c.11-.48.2-.94.28-1.38 0 0-13.41-5.62-16.85-3.45-1.32 1.12-2.65 2.3-3.94 3.5l-.4-.43s-2.94-1.15-10.6.25c-7.66 1.41-12.77 1.53-17.23-.93.28-9.26 10.23-28.89 13.22-34.59 5.76-7.97 11.52-14.7 15.5-18.98l.21.08Z" class="cls-8"/><path d="m144.9 118.84.16.65-9.56 2.4c-3.32-6.67-9.55-12.18-23.8-9.63 1.15-2.66 2.18-5.25 3.09-7.71 0 0 2.76 1.37 4.29 1.3 1.53-.06 4.74-.35 5.53-.13 2.45.22 5.17 2.26 7.13 2.26s1.44-2.03 1.12-2.16c-.06-.03-.31-.17-.68-.38l.02-.04c2.75.57 2.35-.95 1.96-1.76-.38-.81-1.36-1.06-2.72-1.95-.37-.24-1.05-.56-1.7-.86l4.77 1.96s1.32.01 1.53-.46-1.08-2.12-2.6-3.11l.04-.04c.4.25.81.48 1.2.63 1.53.64 1.85.32 1.91 0 .03-.13-.08-.55-.53-1.15l7.21-3.11.39 5.52.28 4.08.45 6.4.51 7.29Z" class="cls-7"/><path d="M138.18 129.21s0 .02.01.03c.07.18.14.36.2.54 2.52 7.04 3.02 16.82 2.44 23.27-.23 2.52-.63 4.53-1.13 5.68-1.75 3.95-6.9 5.3-18.39 5.81s-16.68-6.64-16.68-6.64l-.15-.22c-12.28 8.66-30.57 2.28-31.09 2.09 4.92-1.95 9.67-4.55 13.46-8 9.07-8.25 18.57-24.92 24.85-39.51 14.25-2.55 20.48 2.96 23.8 9.63 1.19 2.4 2 4.94 2.68 7.32Z" class="cls-9"/><path d="M142.63 50.88s-2.84 11.04-7.36 21.58c0 0-2.27-1-5.87-5.78l.53-.06c.66-.7 1.37-1.84 2.08-3.2 2.68-5.19 5.32-13.65 5.32-13.65 1.91.82 3.78 1.09 5.3 1.11Z" class="cls-10"/><path d="M135.61 18.81c2.3-.06 1.22 2.17 1.22 2.17l-6.9 4.47c1.28-2.42 3.39-6.57 5.68-6.64Z" class="cls-6"/><path d="M125.75 102.33c.28 0 .56.01.76.04 1.27.51 4.3 2.28 5.67 3.07.37.21.62.35.68.38.32.13.83 2.16-1.12 2.16s-4.68-2.04-7.13-2.26c-.79-.22-4 .07-5.53.13-1.53.07-4.29-1.3-4.29-1.3 1.58-4.27 2.76-8.14 3.44-11.27l.28.02s3.8.41 7.49.95c2.14.3 4.24.65 5.55.97 2.56 1.32 3.87 2.57 4.51 3.44.45.6.56 1.02.53 1.15-.06.32-.38.64-1.91 0-.39-.15-.8-.38-1.2-.63-1.2-.75-2.31-1.72-2.31-1.72l-1.26-.16-1.67-.11-.19 2.95-2.33.04.03 2.15Z" class="cls-3"/><path d="M133.44 99.22c1.52.99 2.81 2.64 2.6 3.11s-1.53.46-1.53.46l-4.77-1.96-.58-.24c-.18-.08-.34-.14-.49-.2-.14-.06-.25-.11-.35-.14-.02-.01-.04-.02-.06-.02l-.21-.09.19-2.95 1.67.11 1.26.16s1.11.97 2.31 1.72l-.04.04Z" class="cls-3"/><path d="M134.16 103.64c.39.81.79 2.33-1.96 1.76l-.02.04c-1.37-.79-4.4-2.56-5.67-3.07-.2-.03-.48-.04-.76-.04l-.03-2.15 2.33-.04.21.09s.04.01.06.02l.35.14.49.2.58.24c.65.3 1.33.62 1.7.86 1.36.89 2.34 1.14 2.72 1.95Z" class="cls-3"/><path d="m131.78 63.3.23.12c-.71 1.36-1.42 2.5-2.08 3.2l-.53.06c-2.79-3.72-6.38-9.73-10.32-19.33-6.44-15.71-5.42-31.33-4.32-38.93-.51 6.97 1.44 16.63 4.42 26.16 3.53 11.35 8.54 22.52 12.6 28.72Z" class="cls-10"/><path d="M117.36.5s5.97 13.88 5.23 15.46c-1.31 2.3-2.22 5.44-2.22 9.79-.49.27-.85.78-1.05 1.51-.39 1.46-.36 4.73.41 7.15l-.55.17c-2.98-9.53-4.93-19.19-4.42-26.16.39-2.66.78-4.34.87-4.71 0-.05.02-.08.02-.08.34-1 .77-1.88 1.32-2.63.12-.17.25-.34.39-.5Z" style="fill:#e4dfc9;stroke-width:0"/><path d="M118.51 91.9c-.08.44-.17.9-.28 1.38-.68 3.13-1.86 7-3.44 11.27-.91 2.46-1.94 5.05-3.09 7.71-6.28 14.59-15.78 31.26-24.85 39.51-3.79 3.45-8.54 6.05-13.46 8-8.54 3.42-17.59 4.9-22.98 5.52 21.2-3.54 39.09-27.8 44.74-34.28 6.09-6.98 20.47-33.03 23.37-39.11Z" class="cls-4"/><path d="M64.76 123.76c-.01-.29.03-1.05.1-2.14.1-1.69.28-4.16.5-6.96.16-2.15.35-4.5.53-6.81.21-2.66.42-5.27.61-7.49h-.01c-.39-.56-3.9-2.2-3.9-2.2 2.09-13.92 11.09-29.44 20.12-41.91-2.99 5.7-12.94 25.33-13.22 34.59 4.46 2.46 9.57 2.34 17.23.93 7.66-1.4 10.6-.25 10.6-.25l.4.43c1.29-1.2 2.62-2.38 3.94-3.5 3.44-2.17 16.85 3.45 16.85 3.45-2.9 6.08-17.28 32.13-23.37 39.11-5.65 6.48-23.54 30.74-44.74 34.28-2.49.29-4.2.4-4.73.43-.12.01-.18.01-.18.01-.08-1.95-.12-3.96-.12-5.96 0-6.17.31-12.41.69-17.68.28-3.82.59-7.13.84-9.53.27-2.58.46-4.11.46-4.11l17.4-4.69Z" class="cls-8"/><path d="M66.49 100.36h.01c-.19 2.22-.4 4.83-.61 7.49-4.89-.89-10.81-1.59-16.34-1.91v-.22c3-3.48 13.04-7.56 13.04-7.56s3.51 1.64 3.9 2.2Z" class="cls-8"/><path d="M65.89 107.85c-.18 2.31-.37 4.66-.53 6.81h-.01c-6.91-.59-22.48.13-32.1 1.36l-.02-.16s.68-5.11 0-9.02c2.69-1.16 9.17-1.34 16.32-.9 5.53.32 11.45 1.02 16.34 1.91Z" class="cls-8"/><path d="M65.35 114.66h.01c-.22 2.8-.4 5.27-.5 6.96 0 0-28.04 4.36-39.57 7.38l-.06-.21s-.17-6.46 0-10.89c.63-.68 3.73-1.33 8.02-1.88 9.62-1.23 25.19-1.95 32.1-1.36Z" class="cls-8"/><path d="M64.86 121.62c-.07 1.09-.11 1.85-.1 2.14l-17.4 4.69s-.19 1.53-.46 4.11c0 0-16.3 4.28-24.39 7.51v-.21s-.68-2.05-2.05-9.02c.29-.49 2.1-1.13 4.83-1.84 11.53-3.02 39.57-7.38 39.57-7.38Z" class="cls-8"/><path d="M46.9 132.56c-.25 2.4-.56 5.71-.84 9.53l-12.83 4.07c-1.02-2.56-1.19.51-2.55 6.46-.56 2.46-1.53 3.59-2.59 3.98-1.49.55-3.15-.38-4.05-1.08-1.53-1.19-1.87-4.26-5.96-12.94.24-.64 1.95-1.53 4.43-2.51 8.09-3.23 24.39-7.51 24.39-7.51Z" class="cls-8"/><path d="m33.23 146.16 12.83-4.07c-.38 5.27-.69 11.51-.69 17.68 0 0-5.84-.51-7.37-1.87-1.54-1.36-3.75-9.19-4.77-11.74Z" class="cls-8"/><path d="m38 157.9-9.91-1.3c1.06-.39 2.03-1.52 2.59-3.98 1.36-5.95 1.53-9.02 2.55-6.46 1.02 2.55 3.23 10.38 4.77 11.74Z" class="cls-8"/><path d="M122.59 15.96c2.27-3.94 5.73-5.36 7.83-6.06 3.32-1.11 12.94-2.47 17.53 2.38 2.43 2.56 4.58 5.79 5.98 9.55.53 1.41.96 2.91 1.24 4.47.16.78.28 1.59.36 2.41.13 1.4.17 2.85.08 4.34-.16 2.71-.64 5.17-1.39 7.35-.25.75-.54 1.47-.87 2.16-.21.47-.45.93-.7 1.36-.94 1.67-2.08 3.1-3.38 4.25-1 .91-2.1 1.65-3.27 2.22-.46.23-1.71.51-3.37.49-1.52-.02-3.39-.29-5.3-1.11-1.78-.77-3.6-2.01-5.21-3.96M120.37 25.76h0c0-4.36.91-7.5 2.22-9.79" class="cls-2"/><path d="M129.93 25.45c1.28-2.42 3.39-6.57 5.68-6.64 2.3-.06 1.22 2.17 1.22 2.17l-6.9 4.47ZM152.65 20.21c-1.69-1.38-4.53-3.76-6.23-3.09s-.21 1.97-.21 1.97l6.44 1.12ZM134 24.2s5.53-4.26 9.61.59M146.76 24.11s3.87-4.42 6.3-1.98M135.84 27.82s3.67-1.15 5.1-.59M148.44 26.7s3.56-.84 4.62 0M143.27 26.39s-1.53 6.72-9.76 5.77M146.27 26.39s.05.12.15.32c.32.66 1.23 2.17 2.91 2.83 1.3.51 3.06.52 5.37-.77M148.83 30.5s1.85 3.31 1.08 4.21c-.42.49-1.19.67-2 .67-.66 0-1.35-.12-1.89-.29M145.12 32.6s-.44 1.53-.44 2.04M144.23 36.11s-1.78 4.43-4.34 5.24M149.53 36.5s1.58 3.21 3.12 3.57M146.76 38.73s-1.74 1.3-1.64 1.98c.11.68 2.07 1.27 2.07 1.27M126 28.79c-2.32-2.86-4.39-3.72-5.63-3.04-.49.27-.85.78-1.05 1.51-.39 1.46-.36 4.73.41 7.15.56 1.8 1.55 3.12 3.07 2.81 1.66-.34 2.43-1.24 3.71-2.58" class="cls-2"/><path d="M121.95 28.71s-1.78 5.02.05 5.7M131.02 51.43s2.41-.04 2.98-1.66M117.36.5s5.97 13.88 5.23 15.46h0M115.65 3.63c.34-1 .77-1.88 1.32-2.63" class="cls-2"/><path d="M131.78 63.3c-4.06-6.2-9.07-17.37-12.6-28.72-2.98-9.53-4.93-19.19-4.42-26.16.12-1.76.4-3.34.87-4.71" class="cls-2"/><path d="M137.33 49.77s-2.64 8.46-5.32 13.65c-.71 1.36-1.42 2.5-2.08 3.2M142.63 50.88s-2.84 11.04-7.36 21.58c-3.01 7.02-6.78 13.82-10.96 16.97-.02.01-.04.03-.06.04" class="cls-2"/><path d="M115.65 3.63s-.01.03-.02.08c-.09.37-.48 2.05-.87 4.71-1.1 7.6-2.12 23.22 4.32 38.93 3.94 9.6 7.53 15.61 10.32 19.33 3.6 4.78 5.87 5.78 5.87 5.78" class="cls-2"/><path d="M117.36.5c-.14.16-.27.33-.39.5-6.64 8.57-15.01 26.76-18.55 36.35-.87 2.33-1.44 4.16-1.64 5.21M83.55 54.66s-.31.57-.84 1.59c-2.99 5.7-12.94 25.33-13.22 34.59 4.46 2.46 9.57 2.34 17.23.93 7.66-1.4 10.6-.25 10.6-.25" class="cls-2"/><path d="m98.21 73.81-8.55-9.7-4 8.64c7.83 1.58 16.17 6.43 18.97 14.85M95.95 50.16s14.64 31.14 14.9 38.29M102.76 37.27s9.02 26.6 11.92 35.19c2.53 7.53 8.26 15.19 9.63 16.97.19.25.3.38.3.38M146 50.39s-.56 29.76-3.37 37.29M158.16 65.38c-.41-.21-.91-.24-1.37-.04-.82.36-1.67.74-2.32 1.03-.63.29-.92 1.01-.68 1.65l1.14 3.03a.88.88 0 0 0 1.05.56l2.59-.6c.23-.05.43-.16.59-.3M150.8 60.88l-1.53-12.71M152.65 43.92c1.09 3.62 2.49 11.79 2.18 15.11" class="cls-2"/><path d="M155.4 71.55v.01l-1.8 12.26M159.16 70.71l2.15 5.15 2.08 4.97M153.35 42.56c2.12 2.34 5.96 6.53 9.52 10.56 1.13 1.27 2.23 2.53 3.23 3.71 2.16 2.53 3.91 4.69 4.62 5.87 2.11 3.48 5.81 8.25 6.57 9.76 2.75 2.59 6.26 4.82 8.56 8.46M45.49 165.73c-.08-1.95-.12-3.96-.12-5.96 0-6.17.31-12.41.69-17.68.28-3.82.59-7.13.84-9.53.27-2.58.46-4.11.46-4.11l17.4-4.69 4-1.08" class="cls-2"/><path d="M59.53 136.58c8.04-4.34 25.66-29.74 28.59-34.08 2.2-3.25 5.75-7 9.6-10.55 1.29-1.2 2.62-2.38 3.94-3.5 3.44-2.17 16.85 3.45 16.85 3.45-2.9 6.08-17.28 32.13-23.37 39.11-5.65 6.48-23.54 30.74-44.74 34.28-1.56.27-3.14.42-4.73.43M67.02 93.98s-.22 2.65-.52 6.38c-.19 2.22-.4 4.83-.61 7.49-.18 2.31-.37 4.66-.53 6.81-.22 2.8-.4 5.27-.5 6.96-.07 1.09-.11 1.85-.1 2.14M65.89 107.85c-4.89-.89-10.81-1.59-16.34-1.91-7.15-.44-13.63-.26-16.32.9.68 3.91 0 9.02 0 9.02M65.35 114.66c-6.91-.59-22.48.13-32.1 1.36-4.29.55-7.39 1.2-8.02 1.88-.17 4.43 0 10.89 0 10.89" class="cls-2"/><path d="M64.86 121.62s-28.04 4.36-39.57 7.38c-2.73.71-4.54 1.35-4.83 1.84 1.37 6.97 2.05 9.02 2.05 9.02M46.9 132.56s-16.3 4.28-24.39 7.51c-2.48.98-4.19 1.87-4.43 2.51 4.09 8.68 4.43 11.75 5.96 12.94.9.7 2.56 1.63 4.05 1.08 1.06-.39 2.03-1.52 2.59-3.98 1.36-5.95 1.53-9.02 2.55-6.46 1.02 2.55 3.23 10.38 4.77 11.74 1.53 1.36 7.37 1.87 7.37 1.87M28.09 156.6l9.91 1.3M33.23 146.16l12.83-4.07M49.56 105.72c2.99-3.48 13.03-7.56 13.03-7.56 2.09-13.92 11.09-29.44 20.12-41.91 5.76-7.97 11.52-14.7 15.5-18.98M62.59 98.16s3.51 1.64 3.9 2.2M73.38 159.77c-8.54 3.42-17.59 4.9-22.98 5.52-2.49.29-4.2.4-4.73.43-.12.01-.18.01-.18.01M118.51 91.9c-.08.44-.17.9-.28 1.38-.68 3.13-1.86 7-3.44 11.27-.91 2.46-1.94 5.05-3.09 7.71-6.28 14.59-15.78 31.26-24.85 39.51-3.79 3.45-8.54 6.05-13.46 8" class="cls-2"/><path d="M73.38 159.77h0c.52.19 18.81 6.57 31.09-2.09 1.65-1.17 3.2-2.61 4.58-4.38M138.18 129.21c-.05-.14-.1-.28-.16-.42M104.63 157.9s5.19 7.15 16.68 6.64 16.64-1.86 18.39-5.81c.5-1.15.9-3.16 1.13-5.68.58-6.45.08-16.23-2.44-23.27-.06-.18-.13-.36-.2-.54" class="cls-2"/><path d="M138.39 129.96c-.07-.24-.13-.48-.2-.72-.01 0-.01-.02-.01-.03-.68-2.38-1.49-4.92-2.68-7.32-3.32-6.67-9.55-12.18-23.8-9.63M115.95 144.12s10.27 5.61 9.09 5.61c-4.49-.26-12.41 0-14.19 1.79M140.83 153.05s1.25 1.11 3.85.25c1.56-.51 3.86-1.83 5.43-2.79.21-.13.38-.29.52-.47.52-.66.58-1.61.07-2.35l-12.31-17.91 6.91-2.41 5.29-1.84 7.98-2.78" class="cls-2"/><path d="M145.3 127.37s3.33 8.57 7.42 12.66c3 3 8.02 7.1 10.47 9.06a1.233 1.233 0 0 1-.18 2.04l-5.83 3.19c-.93.51-2.07.33-2.8-.43l-3.65-3.77M173.32 144.07c-8.66-5.01-22.62-13.8-22.73-18.54M163.65 149.22l6.5 4.64c.61.45 1.45.43 2.05-.03l4.24-3.25 1.95-1.5c.77-.59.69-1.77-.16-2.24-1.18-.65-2.86-1.58-4.82-2.72v-.01c-.02 0-.04-.01-.05-.02" class="cls-2"/><path d="M163.65 114.45c3.01 4.85 14.94 10.77 24.64 14.36 0 0-9.35 10.36-14.89 15.3h-.01s-.03-.01-.04-.02-.02-.02-.03-.02c-4.18-3.18-10.52-14.21-14.44-21.49-2.09-3.89-3.48-6.72-3.48-6.72-.59-1.46-1.09-3.71-1.2-6.05-.24-4.61 1.04-9.55 6.18-9.44 3.67.09 10.69.32 17.37.65 7.4.37 14.38.85 15.99 1.39 3.03 1.01 15.5 7.26 16.32 7.64.01 0 .01.01.02.01" class="cls-2"/><path d="M188.29 128.81c6.05 7.05 14.56 10.37 21.45 10.37-.44.11-.89.22-1.34.34-3.28.8-6.88 1.54-10.52 2.18-2.37.43-4.77.81-7.09 1.14-7.26 1.03-13.88 1.56-17.38 1.28h-.02M209.74 139.18c12.6-3.07 34.55-10.84 37.45-11.81-3.07-6.24-14.81-17.3-14.81-17.3-6.23.06-14.16.09-22.3-.02h-.02c-16.76-.21-34.49-1.04-40.46-3.55" class="cls-2"/><path d="M247.19 127.37c-2.22 8.23-12.94 13.22-24 13.62-4.48.16-7.76-.05-10.07-.36-3.24-.43-4.6-1.06-4.72-1.11h-.01M190.79 142.84s-1.39 2.57-3.06 5.17c-1.66 2.59-3.6 5.21-4.71 5.29-3.41-1.36-6.58-2.72-6.58-2.72M188.29 148.07s10.05-.72 12.09-2.77c2.04-2.04-2.5-3.6-2.5-3.6" class="cls-2"/><path d="m200.38 145.3 12.74-4.67h.01M126.03 93.98l16.67-6.1 10.92-4 4.95-1.81V71.01M158.57 82.07c2.09-.81 3.28-1.18 4.82-1.23.65-.02 1.36 0 2.22.08 1.15.1 6.07.12 11.68.18 2.81.03 5.79.07 8.55.13 5.84.13 10.74.37 11.05.84s.96 2.9 1.61 5.61c.94 3.87 1.88 8.3 1.88 8.3l-2.43.54-1.33.3-5.83 1.29-13.04 2.91h-.02" class="cls-2"/><path d="M188.29 88.07c.87 3.48 3.94 6.31 8.33 8.75M168.68 86.66s8.47 7.33 22.11 11.45M118.51 93.3s3.8.41 7.49.95c2.14.3 4.24.65 5.55.97 2.56 1.32 3.87 2.57 4.51 3.44.45.6.56 1.02.53 1.15-.06.32-.38.64-1.91 0-.39-.15-.8-.38-1.2-.63-1.2-.75-2.31-1.72-2.31-1.72l-1.26-.16-1.67-.11-.92-.06M114.79 104.55s2.76 1.37 4.29 1.3c1.53-.06 4.74-.35 5.53-.13 2.45.22 5.17 2.26 7.13 2.26s1.44-2.03 1.12-2.16c-.06-.03-.31-.17-.68-.38-1.37-.79-4.4-2.56-5.67-3.07-.2-.03-.48-.04-.76-.04-.56 0-1.14.04-1.14.04" class="cls-2"/><path d="m129.74 100.83 4.77 1.96s1.32.01 1.53-.46-1.08-2.12-2.6-3.11M128.05 100.14l.21.09s.04.01.06.02l.35.14.49.2" class="cls-2"/><path d="M129.16 100.59c-.18-.08-.34-.14-.49-.2-.14-.06-.25-.11-.35-.14M129.16 100.59l.58.24M132.2 105.4c2.75.57 2.35-.95 1.96-1.76-.38-.81-1.36-1.06-2.72-1.95-.37-.24-1.05-.56-1.7-.86M125.4 100.18h.32l2.33-.04M136.06 98.66l7.21-3.11 8.46-3.65 13.02-5.62s1.52.16 3.93.38c4.71.43 12.84 1.1 19.61 1.33 4.43.15 8.27.11 10.21-.31M151.73 91.9l2.23 5.7M144.32 101.02l8.39-2.97 1.25-.45 8.17-2.89" class="cls-2"/><path d="m143.27 95.55.39 5.52.28 4.08.45 6.4.51 7.29" class="cls-2"/><path d="m135.5 121.89 9.56-2.4 8.7-2.19-.41-7.48-.29-5.42-.35-6.35M143.94 105.15l9.12-.75M144.39 111.55l8.96-1.73M164.75 86.28l-2.61 8.43h-.01l-1.75 5.66M197.95 96.53l11.19 4.49s10.87-.36 15.32 1.14c3.41 1.14 7.92 7.91 7.92 7.91M209.14 101.02l.94 9.03v.01M159.16 70.71c.38-.31.57-.82.47-1.33-.16-.88-.4-2.04-.66-2.99-.12-.45-.42-.8-.81-1h0l-3.33-6.36-4.03 1.85 3.67 5.49M162.87 53.12l-4.71 12.26M166.1 56.83l-4.79 19.03M177.29 72.46s2.18 5.98 0 8.46M123.23 32.25s-.72 2.2-1.23 2.16M143.03 46.79s2.44.8 3.74-.31" class="cls-2"/></g></svg>