<?xml version="1.0" encoding="UTF-8"?>
<svg xmlns="http://www.w3.org/2000/svg" viewBox="0 0 270.4 208.5">
  <defs>
    <style>
      .cls-1 {
        fill: #fc3a3a;
      }

      .cls-1, .cls-2, .cls-3, .cls-4, .cls-5, .cls-6, .cls-7, .cls-8, .cls-9, .cls-10 {
        stroke-width: 0px;
      }

      .cls-11 {
        stroke-miterlimit: 10;
      }

      .cls-11, .cls-12 {
        fill: none;
        stroke: #000;
      }

      .cls-2 {
        fill: #f9b689;
      }

      .cls-3 {
        fill: #f9ceb2;
      }

      .cls-4 {
        fill: #f3edd7;
      }

      .cls-12 {
        stroke-linecap: round;
        stroke-linejoin: round;
      }

      .cls-5 {
        fill: #333;
      }

      .cls-6 {
        fill: #ed765e;
      }

      .cls-7 {
        fill: #f7e8c9;
      }

      .cls-8 {
        fill: #b791c2;
      }

      .cls-9 {
        fill: #f7d9a7;
      }

      .cls-10 {
        fill: #d2d296;
      }
    </style>
  </defs>
  <g id="_畳" data-name="畳">
    <g>
      <g>
        <rect class="cls-4" x=".24" y="173.85" width="3.62" height="5.03"/>
        <path class="cls-4" d="m270.15,201.43v6.57h-30.45l15.35-8.63c1.03,1.62,3.11,2.72,5.51,2.72s4.62-1.18,5.62-2.88l3.97,2.23Z"/>
        <path class="cls-4" d="m270.15,190.87v10.56l-3.97-2.23c.38-.65.59-1.38.59-2.14,0-1.3-.62-2.48-1.62-3.38l4.99-2.8Z"/>
        <path class="cls-4" d="m270.15,178.88v11.99l-4.99,2.8c-1.14-1.01-2.77-1.64-4.59-1.64s-3.31.58-4.44,1.51l-26.1-14.67h40.12Z"/>
        <polygon class="cls-4" points="270.15 84.22 270.15 89.98 1.13 89.98 .24 89.98 .24 84.22 270.15 84.22"/>
        <rect class="cls-4" x="266.16" y="173.85" width="3.99" height="5.03"/>
        <path class="cls-4" d="m266.78,197.05c0,.76-.21,1.49-.59,2.14l-5.42-3.05,4.39-2.47c1,.89,1.62,2.08,1.62,3.38Z"/>
        <path class="cls-4" d="m260.77,196.15l5.42,3.05c-1,1.7-3.13,2.88-5.62,2.88s-4.48-1.1-5.51-2.72l5.71-3.21Z"/>
        <rect class="cls-5" x="254.85" y="173.85" width="11.31" height="5.03"/>
        <path class="cls-4" d="m265.16,193.68l-4.39,2.47-4.64-2.61c1.13-.93,2.7-1.51,4.44-1.51,1.82,0,3.46.63,4.59,1.64Z"/>
        <path class="cls-4" d="m260.77,196.15l-5.71,3.21c-.44-.69-.69-1.48-.69-2.31,0-1.37.68-2.61,1.77-3.51l4.64,2.61Z"/>
        <path class="cls-4" d="m230.03,178.88l26.1,14.67c-1.09.9-1.77,2.14-1.77,3.51,0,.83.25,1.62.69,2.31l-15.35,8.63h-41.48l-15.65-8.8c.38-.65.59-1.38.59-2.14,0-1.3-.62-2.48-1.62-3.37l26.34-14.81h22.15Zm-5.97,18.18c0-2.77-2.25-5.02-5.02-5.02s-5.03,2.25-5.03,5.02,2.25,5.03,5.03,5.03,5.02-2.25,5.02-5.03Z"/>
        <polygon class="cls-4" points="254.85 178.88 230.03 178.88 224.33 178.88 224.33 173.85 254.85 173.85 254.85 178.88"/>
        <rect class="cls-5" x="213.02" y="173.85" width="11.31" height="5.03"/>
        <path class="cls-5" d="m219.05,192.04c2.77,0,5.02,2.25,5.02,5.02s-2.25,5.03-5.02,5.03-5.03-2.25-5.03-5.03,2.25-5.02,5.03-5.02Z"/>
        <path class="cls-4" d="m207.88,178.88l-26.34,14.81c-1.14-1.02-2.77-1.65-4.59-1.65s-3.31.58-4.44,1.51l-26.1-14.67h61.47Z"/>
        <polygon class="cls-4" points="182.5 178.88 182.5 173.85 213.02 173.85 213.02 178.88 207.88 178.88 182.5 178.88"/>
        <path class="cls-4" d="m198.21,208h-42.13l15.35-8.63c1.03,1.62,3.12,2.72,5.51,2.72s4.62-1.18,5.62-2.88l15.65,8.8Z"/>
        <path class="cls-4" d="m183.16,197.05c0,.76-.21,1.49-.59,2.14l-5.42-3.05,4.39-2.47c1,.89,1.62,2.07,1.62,3.37Z"/>
        <path class="cls-4" d="m177.15,196.15l5.42,3.05c-1,1.7-3.13,2.88-5.62,2.88s-4.48-1.1-5.51-2.72l5.71-3.21Z"/>
        <rect class="cls-5" x="171.19" y="173.85" width="11.31" height="5.03"/>
        <path class="cls-4" d="m176.95,192.04c1.82,0,3.46.63,4.59,1.65l-4.39,2.47-4.64-2.61c1.13-.93,2.7-1.51,4.44-1.51Z"/>
        <path class="cls-4" d="m177.15,196.15l-5.71,3.21c-.44-.69-.69-1.48-.69-2.31,0-1.37.68-2.61,1.77-3.51l4.64,2.61Z"/>
        <path class="cls-4" d="m146.41,178.88l26.1,14.67c-1.09.9-1.77,2.14-1.77,3.51,0,.83.25,1.62.69,2.31l-15.35,8.63h-41.48l-15.65-8.8c.38-.65.59-1.38.59-2.14,0-1.3-.62-2.48-1.62-3.37l26.34-14.81h22.15Zm-7.02,18.18c0-2.77-2.25-5.02-5.02-5.02s-5.03,2.25-5.03,5.02,2.25,5.03,5.03,5.03,5.02-2.25,5.02-5.03Z"/>
        <polygon class="cls-4" points="171.19 178.88 146.41 178.88 140.67 178.88 140.67 173.85 171.19 173.85 171.19 178.88"/>
        <rect class="cls-5" x="129.36" y="173.85" width="11.31" height="5.03"/>
        <path class="cls-5" d="m134.38,192.04c2.77,0,5.02,2.25,5.02,5.02s-2.25,5.03-5.02,5.03-5.03-2.25-5.03-5.03,2.25-5.02,5.03-5.02Z"/>
        <path class="cls-4" d="m124.26,178.88l-26.34,14.81c-1.14-1.02-2.77-1.65-4.59-1.65s-3.31.58-4.44,1.51l-26.1-14.67h61.47Z"/>
        <polygon class="cls-4" points="129.36 178.88 124.26 178.88 98.83 178.88 98.83 173.85 129.36 173.85 129.36 178.88"/>
        <path class="cls-4" d="m114.6,208h-42.13l15.35-8.63c1.03,1.62,3.11,2.72,5.51,2.72s4.62-1.18,5.62-2.88l15.65,8.8Z"/>
        <path class="cls-4" d="m99.54,197.05c0,.76-.21,1.49-.59,2.14l-5.42-3.05,4.39-2.47c1,.89,1.62,2.07,1.62,3.37Z"/>
        <path class="cls-4" d="m93.53,196.15l5.42,3.05c-1,1.7-3.13,2.88-5.62,2.88s-4.48-1.1-5.51-2.72l5.71-3.21Z"/>
        <rect class="cls-5" x="87.53" y="173.85" width="11.31" height="5.03"/>
        <path class="cls-4" d="m93.33,192.04c1.82,0,3.46.63,4.59,1.65l-4.39,2.47-4.64-2.61c1.13-.93,2.7-1.51,4.44-1.51Z"/>
        <path class="cls-4" d="m93.53,196.15l-5.71,3.21c-.44-.69-.69-1.48-.69-2.31,0-1.37.68-2.61,1.77-3.51l4.64,2.61Z"/>
        <path class="cls-4" d="m62.8,178.88l26.1,14.67c-1.09.9-1.77,2.14-1.77,3.51,0,.83.25,1.62.69,2.31l-15.35,8.63H30.79l-15.65-8.8c.38-.65.59-1.38.59-2.14,0-1.3-.62-2.48-1.62-3.37l26.34-14.81h22.34Zm-8.53,18.18c0-2.77-2.25-5.02-5.02-5.02s-5.03,2.25-5.03,5.02,2.25,5.03,5.03,5.03,5.02-2.25,5.02-5.03Z"/>
        <polygon class="cls-4" points="87.53 178.88 62.8 178.88 57 178.88 57 173.85 87.53 173.85 87.53 178.88"/>
        <rect class="cls-5" x="45.7" y="173.85" width="11.31" height="5.03"/>
        <path class="cls-5" d="m49.25,192.04c2.77,0,5.02,2.25,5.02,5.02s-2.25,5.03-5.02,5.03-5.03-2.25-5.03-5.03,2.25-5.02,5.03-5.02Z"/>
        <polygon class="cls-4" points="45.7 178.88 40.45 178.88 15.17 178.88 15.17 173.85 45.7 173.85 45.7 178.88"/>
        <path class="cls-4" d="m30.79,208H.24v-6.52l3.76-2.11c1.03,1.62,3.12,2.72,5.51,2.72s4.62-1.18,5.62-2.88l15.65,8.8Z"/>
        <path class="cls-4" d="m15.73,197.05c0,.76-.21,1.49-.59,2.14l-5.42-3.05,4.39-2.47c1,.89,1.62,2.07,1.62,3.37Z"/>
        <rect class="cls-5" x="3.87" y="173.85" width="11.31" height="5.03"/>
        <path class="cls-4" d="m9.72,196.15l5.42,3.05c-1,1.7-3.13,2.88-5.62,2.88s-4.48-1.1-5.51-2.72l5.71-3.21Z"/>
        <path class="cls-4" d="m9.52,192.04c1.82,0,3.46.63,4.59,1.65l-4.39,2.47-4.64-2.61c1.13-.93,2.7-1.51,4.44-1.51Z"/>
        <path class="cls-4" d="m9.72,196.15l-5.71,3.21c-.44-.69-.69-1.48-.69-2.31,0-1.37.68-2.61,1.77-3.51l4.64,2.61Z"/>
        <path class="cls-4" d="m.24,190.83l4.84,2.72c-1.09.9-1.77,2.14-1.77,3.51,0,.83.25,1.62.69,2.31l-3.76,2.11v-10.65Z"/>
        <polygon class="cls-10" points="213.02 173.85 182.5 173.85 171.19 173.85 140.67 173.85 129.36 173.85 98.83 173.85 87.53 173.85 57 173.85 45.7 173.85 15.17 173.85 3.87 173.85 .24 173.85 .24 89.98 1.13 89.98 270.15 89.98 270.15 173.85 266.16 173.85 254.85 173.85 224.33 173.85 213.02 173.85"/>
        <path class="cls-4" d="m.24,178.88h40.21l-26.34,14.81c-1.14-1.02-2.77-1.65-4.59-1.65s-3.31.58-4.44,1.51l-4.84-2.72v-11.95Z"/>
      </g>
      <g>
        <polyline class="cls-11" points="270.15 208 239.7 208 198.21 208 156.08 208 114.6 208 72.46 208 30.79 208 .24 208"/>
        <line class="cls-11" x1=".24" y1="84.22" x2="270.15" y2="84.22"/>
        <line class="cls-11" x1=".24" y1="89.98" x2="270.15" y2="89.98"/>
        <line class="cls-11" x1="266.16" y1="173.85" x2="270.15" y2="173.85"/>
        <line class="cls-11" x1="224.33" y1="173.85" x2="254.85" y2="173.85"/>
        <line class="cls-11" x1="182.5" y1="173.85" x2="213.02" y2="173.85"/>
        <line class="cls-11" x1="140.67" y1="173.85" x2="171.19" y2="173.85"/>
        <line class="cls-11" x1="98.83" y1="173.85" x2="129.36" y2="173.85"/>
        <line class="cls-11" x1="57" y1="173.85" x2="87.53" y2="173.85"/>
        <line class="cls-11" x1="15.17" y1="173.85" x2="45.7" y2="173.85"/>
        <line class="cls-11" x1=".24" y1="173.85" x2="3.87" y2="173.85"/>
        <line class="cls-11" x1="266.16" y1="178.88" x2="270.15" y2="178.88"/>
        <polyline class="cls-11" points="224.33 178.88 230.03 178.88 254.85 178.88"/>
        <polyline class="cls-11" points="182.5 178.88 207.88 178.88 213.02 178.88"/>
        <polyline class="cls-11" points="140.67 178.88 146.41 178.88 171.19 178.88"/>
        <polyline class="cls-11" points="98.83 178.88 124.26 178.88 129.36 178.88"/>
        <polyline class="cls-11" points="57 178.88 62.8 178.88 87.53 178.88"/>
        <polyline class="cls-11" points="15.17 178.88 40.45 178.88 45.7 178.88"/>
        <line class="cls-11" x1=".24" y1="178.88" x2="3.87" y2="178.88"/>
        <polyline class="cls-11" points="72.46 208 87.81 199.36 93.53 196.15 97.92 193.69 124.26 178.88"/>
        <polyline class="cls-11" points="114.6 208 98.95 199.2 93.53 196.15 88.89 193.55 62.8 178.88"/>
        <path class="cls-11" d="m139.4,197.05c0,2.78-2.25,5.03-5.02,5.03s-5.03-2.25-5.03-5.03,2.25-5.02,5.03-5.02,5.02,2.25,5.02,5.02Z"/>
        <path class="cls-11" d="m224.07,197.05c0,2.78-2.25,5.03-5.02,5.03s-5.03-2.25-5.03-5.03,2.25-5.02,5.03-5.02,5.02,2.25,5.02,5.02Z"/>
        <path class="cls-11" d="m97.92,193.69c1,.89,1.62,2.07,1.62,3.37,0,.76-.21,1.49-.59,2.14-1,1.7-3.13,2.88-5.62,2.88s-4.48-1.1-5.51-2.72c-.44-.69-.69-1.48-.69-2.31,0-1.37.68-2.61,1.77-3.51,1.13-.93,2.7-1.51,4.44-1.51,1.82,0,3.46.63,4.59,1.65Z"/>
        <polyline class="cls-11" points=".24 201.48 4.01 199.36 9.72 196.15 14.11 193.69 40.45 178.88"/>
        <polyline class="cls-11" points="30.79 208 15.14 199.2 9.72 196.15 5.08 193.55 .24 190.83"/>
        <path class="cls-11" d="m14.11,193.69c1,.89,1.62,2.07,1.62,3.37,0,.76-.21,1.49-.59,2.14-1,1.7-3.13,2.88-5.62,2.88s-4.48-1.1-5.51-2.72c-.44-.69-.69-1.48-.69-2.31,0-1.37.68-2.61,1.77-3.51,1.13-.93,2.7-1.51,4.44-1.51,1.82,0,3.46.63,4.59,1.65Z"/>
        <polyline class="cls-11" points="156.08 208 171.43 199.36 177.15 196.15 181.54 193.69 207.88 178.88"/>
        <polyline class="cls-11" points="198.21 208 182.57 199.2 177.15 196.15 172.51 193.55 146.41 178.88"/>
        <path class="cls-11" d="m181.54,193.69c1,.89,1.62,2.07,1.62,3.37,0,.76-.21,1.49-.59,2.14-1,1.7-3.13,2.88-5.62,2.88s-4.48-1.1-5.51-2.72c-.44-.69-.69-1.48-.69-2.31,0-1.37.68-2.61,1.77-3.51,1.13-.93,2.7-1.51,4.44-1.51,1.82,0,3.46.63,4.59,1.65Z"/>
        <polyline class="cls-11" points="239.7 208 255.05 199.36 260.77 196.15 265.16 193.68 270.15 190.87"/>
        <polyline class="cls-11" points="270.15 201.43 266.18 199.2 260.77 196.15 256.13 193.55 230.03 178.88"/>
        <path class="cls-11" d="m265.16,193.68c1,.89,1.62,2.08,1.62,3.38,0,.76-.21,1.49-.59,2.14-1,1.7-3.13,2.88-5.62,2.88s-4.48-1.1-5.51-2.72c-.44-.69-.69-1.48-.69-2.31,0-1.37.68-2.61,1.77-3.51,1.13-.93,2.7-1.51,4.44-1.51,1.82,0,3.46.63,4.59,1.64Z"/>
        <path class="cls-11" d="m54.27,197.05c0,2.78-2.25,5.03-5.02,5.03s-5.03-2.25-5.03-5.03,2.25-5.02,5.03-5.02,5.02,2.25,5.02,5.02Z"/>
        <rect class="cls-11" x="3.87" y="173.85" width="11.31" height="5.03"/>
        <rect class="cls-11" x="45.7" y="173.85" width="11.31" height="5.03"/>
        <polygon class="cls-11" points="98.83 178.88 87.53 178.88 87.53 173.85 93.18 173.85 98.83 173.85 98.83 178.88"/>
        <rect class="cls-11" x="129.36" y="173.85" width="11.31" height="5.03"/>
        <rect class="cls-11" x="171.19" y="173.85" width="11.31" height="5.03"/>
        <rect class="cls-11" x="213.02" y="173.85" width="11.31" height="5.03"/>
        <rect class="cls-11" x="254.85" y="173.85" width="11.31" height="5.03"/>
      </g>
    </g>
  </g>
  <g id="_レイヤー_2" data-name="レイヤー 2">
    <g>
      <g>
        <path class="cls-6" d="m175.16,149.52s1.63,5.76,3.94,8.9l-14.41,3.32c2.07-.72,10.47-12.22,10.47-12.22Z"/>
        <path class="cls-6" d="m159.84,152.33c1.25,4.26,2.06,6.61,2.81,7.9l-13.51,1.98c2.97-.7,8.99-5.8,10.7-9.88Z"/>
        <path class="cls-6" d="m132.78,163.39c2.98-.51,12.68-9.7,13.19-9.96.06,3,.04,5.94.77,7.57l-13.96,2.39Z"/>
        <path class="cls-6" d="m126.61,154.53c.35-.08.7-.11,1.02-.08.86,3.67,1.49,6.41,2.54,7.85l-16.2.15c2.11,0,8.41-7.06,12.62-7.92h.02Z"/>
        <path class="cls-6" d="m98.67,160.5h-.02s8.17-7.49,12.43-7.75c-.23,3.18.11,6.44,1.05,8.25h-.02s-13.44-.5-13.44-.5Z"/>
        <path class="cls-1" d="m233.61,114.79c-1.32-2.34-2.85-4.22-4.48-5.79,1.27-.17,2.99-.53,4.87-.77,2.28-.29,4.81-.42,7.12.14l-.88,6.15c-1.39-.15-3.14-.21-6.14-.02l-.49.29Z"/>
        <path class="cls-1" d="m233.61,114.79l.49-.29c3-.19,4.75-.13,6.14.02,1.45.16,2.51.42,4.2.62,1.4,3.19-2.04,6.51-7.02,11.61-.74-5.01-2.1-8.88-3.81-11.96Z"/>
        <path class="cls-1" d="m225.54,106.11c-1.36-.93-2.73-1.73-4.08-2.46-1.17-.64-2.52-1.13-3.94-1.48h0c4.47-2.43,11.98-3.89,11.98-3.89l-3.94,7.83h-.02Z"/>
        <path class="cls-1" d="m225.56,106.11l10.28-4.08c-.55,2.85-.72,4.09-1.84,6.2-1.88.24-3.6.6-4.87.77-1.15-1.1-2.36-2.05-3.58-2.88h.01Z"/>
        <path class="cls-1" d="m205.31,114.98c2.75-1.07,4.79-2.7,4.79-2.7,0,0,3.38,4.9,3.06,7.2-1.1.24-2.72.41-4.68.51l-3.17-5.01Z"/>
        <path class="cls-8" d="m204.35,107.22l-1.75-5.68,1.75-.19s7.18-.7,13.17.82c1.42.35,2.77.84,3.94,1.48,1.35.73,2.72,1.53,4.08,2.46,0,0,.01,0,.01,0,1.22.83,2.43,1.78,3.58,2.88,1.63,1.57,3.16,3.45,4.48,5.79,1.71,3.08,3.07,6.95,3.81,11.96,0,0-.64,7.53-4.22,13.41-.27.41-.54.81-.83,1.2-.5-.07-1.09-.33-1.74-.76h-.01c-5.15-3.34-14.18-16.6-17.46-21.12.32-2.3-3.06-7.2-3.06-7.2l-5.75-5.06Z"/>
        <path class="cls-1" d="m204.35,101.35s7.15-3.96,11.24-4.6l4.08-.64-2.15,6.05h0c-5.99-1.51-13.17-.81-13.17-.81Z"/>
        <path class="cls-9" d="m189.42,101.12c2.55.13,13.18.42,13.18.42l1.75,5.68-10.02,1.01-4.91-7.11Z"/>
        <path class="cls-9" d="m199.67,90.12c.96,2.83,1.97,6.55,2.93,11.42,0,0-10.63-.29-13.18-.42-.49-.03-1.75-.45-3.46-1.1h0v-9.3c4.92.28,9.82.21,13.71-.6Z"/>
        <path class="cls-6" d="m195.51,111.25c.78,1.82,1.83,3.84,2.72,4.17-2.3,2.83-12.99,3.93-12.99,3.93l-.02.4c-3.16-.15-5.61-.3-6.65-.4-1.02-.1-2.95-1.35-5.33-3.2l2.49-2.32,8.05-7.48h.01c.3.24,6.2,4.72,11.72,4.9Z"/>
        <path class="cls-9" d="m194.38,81.67c.19-.15.32-.29.36-.41,0,0,.02.01.05.02-.07.12-.2.25-.41.39Z"/>
        <path class="cls-9" d="m194.3,81.73s.05-.04.08-.06c-.02.02-.05.04-.08.06Z"/>
        <path class="cls-9" d="m205.31,114.98c-2.14.82-4.71,1.32-7.08.44-.89-.33-1.94-2.35-2.72-4.17-.69-1.59-1.18-3.02-1.18-3.02l10.02-1.01,5.75,5.06s-2.04,1.63-4.79,2.7Z"/>
        <path class="cls-6" d="m195.51,111.25c-5.52-.18-11.42-4.66-11.72-4.9l5.63-5.23,4.91,7.11s.49,1.43,1.18,3.02Z"/>
        <path class="cls-9" d="m193.71,81.93h.01s.04.07.04.07h-.03s-.05-.09-.05-.09c.01.01.02.01.03.02Z"/>
        <path class="cls-9" d="m193.48,81.48l.23.45s-.02-.01-.03-.02l-.2-.43Z"/>
        <path class="cls-9" d="m193.37,81.26l-.47-1.01c.47-.05,2.29-.18,1.84,1.01-.04.12-.17.26-.36.41-.03.02-.05.04-.08.06-.08.05-.16.1-.25.15-.04.02-.07.04-.11.06-.03,0-.05.02-.08.04h-.01l-.09.02-.04-.06h-.01s-.23-.46-.23-.46l-.05-.11-.06-.11Z"/>
        <path class="cls-1" d="m193.43,81.37l.05.11.2.43c-.07-.05-.14-.12-.21-.21l-.25-.54c.06.04.1.08.15.1l.06.11Z"/>
        <path class="cls-9" d="m194.74,81.26c.45-1.19-1.37-1.06-1.84-1.01l-.02-.03s2.45-.37,1.94.99c-.01.02-.02.05-.03.07-.03-.01-.05-.02-.05-.02Z"/>
        <path class="cls-1" d="m192.64,80.38c.22.36.41.62.57.76v.02s.26.54.26.54c-.23-.27-.51-.72-.83-1.32Z"/>
        <path class="cls-1" d="m185.24,119.35s10.69-1.1,12.99-3.93c2.37.88,4.94.38,7.08-.44l3.17,5.01c-6.44.35-16.49.07-23.26-.24l.02-.4Z"/>
        <path class="cls-1" d="m176.71,149.05c3.21,2.41,13.09,9.07,23.53,8.29-2.66.37-5.1.61-7.21.77,0,0-7.49,2.39-11.14,2.3-.99-.02-1.94-.83-2.79-1.99-2.31-3.14-3.94-8.9-3.94-8.9l1.55-.47Z"/>
        <path class="cls-6" d="m232.37,141.36c-7.76,10.77-21.5,14.49-32.07,15.98h-.06c-10.44.78-20.32-5.88-23.53-8.29-.7-.53-1.08-.85-1.08-.85,13.66.64,28.69,2.42,54.99-7.6h.01c.65.43,1.24.69,1.74.76Z"/>
        <path class="cls-1" d="m171.59,77.35v-7.21h2.12l6.39-8.37,2.17,10.73s-5.62,1.4-8.56,4.85h-2.12Z"/>
        <path class="cls-1" d="m193.47,81.7c.07.09.14.16.21.21l.05.1h.03s.01.02.01.02c-2.77,1.39-11.12,2.95-22.18.25v-4.93h2.12c2.94-3.45,8.56-4.85,8.56-4.85l-2.17-10.73-6.39,8.37h-2.12v-.45l.27-7.41c1.09-3.12,1-15.73,1-15.73h.01c1.88,1.38,3.47,2.37,4.16,2.37,2.22,0,4.77,3.92,5.62,6.13.09.24.28.75.54,1.47.07.18.14.37.21.58,1.96,5.48,6.97,19.5,9.23,23.25,0,.01.01.01.01.02h0c.32.61.6,1.06.83,1.33Z"/>
        <path class="cls-9" d="m171.6,93.89c3.75,1.68,8.15,3.61,11.67,5.05h0s-6.66,5.07-6.66,5.07l-5.01-10.12Z"/>
        <polygon class="cls-9" points="171.86 62.28 171.59 69.69 167.01 70.14 163.08 70.52 163.56 62.73 164.33 62.69 171.86 62.28"/>
        <polygon class="cls-9" points="171.59 70.14 171.59 77.35 171.59 82.28 165.76 81.54 167.01 70.14 171.59 69.69 171.59 70.14"/>
        <path class="cls-9" d="m164.33,62.69s2.88-9.77,3.51-20.09c1.62,1.33,3.42,2.78,5.03,3.94h-.01s.09,12.62-1,15.74l-7.53.41Z"/>
        <path class="cls-6" d="m166.56,124.39c.96-.06,1.79.4,1.79,1.72,0,1.78-.33,7.31-.56,10.83-3.13.84-9.27-7.35-9.27-7.35,1.91-.95,3.72-2.21,5.37-3.86.53-.71,1.66-1.29,2.66-1.34h.01Z"/>
        <path class="cls-9" d="m163.56,81.26l2.2.28,5.83.74c11.06,2.7,19.41,1.14,22.18-.25.03-.02.06-.03.09-.05s.05-.03.08-.04c.04-.02.07-.04.11-.06.09-.05.17-.1.25-.15.03-.02.06-.04.08-.06.21-.14.34-.27.41-.39.34.21,2.47,1.74,4.88,8.84-3.89.81-8.79.88-13.71.6-11.13-.66-22.4-3.16-22.4-3.16v-6.3Z"/>
        <path class="cls-6" d="m164.69,161.74l14.41-3.32c-3.64,3.79-14.49,3.34-14.49,3.34l.08-.02Z"/>
        <path class="cls-9" d="m185.96,100.01h0c1.71.66,2.97,1.08,3.46,1.11l-5.63,5.23h-.01l-8.05,7.48-12.16-23.58c.21.09,3.68,1.69,8.02,3.63h.01s5.01,10.13,5.01,10.13l6.66-5.06h0c.98.39,1.88.75,2.69,1.06Z"/>
        <path class="cls-9" d="m183.27,98.94c-3.52-1.44-7.92-3.37-11.67-5.05h-.01c-4.34-1.95-7.81-3.55-8.02-3.64h-.01v-2.69s11.27,2.5,22.4,3.16v9.29c-.81-.31-1.71-.67-2.69-1.07Z"/>
        <path class="cls-1" d="m163.56,90.24h.01s12.16,23.59,12.16,23.59l-2.49,2.32c-6.82-5.27-17.41-15.4-21.48-17.1-.24-.1-.47-.18-.7-.23v-1.94c2.1-2.55,6.94-7.28,12.5-6.64Z"/>
        <path class="cls-3" d="m161.29,33.62s-1.2,1.71-2.12,1.99l-1.42-.31c1.42-2.01,2.36-4.9,2.81-6.49l2.52.09c.72.48.85,3.67.91,4.47,0,.17.02.34.02.51h-.11l-1.1-.59-1.51.33Z"/>
        <path class="cls-3" d="m163.97,35.05c-.06.46-2.17.51-4.98.6.06,0,.12-.02.18-.04.92-.28,2.12-1.99,2.12-1.99l1.51-.33,1.1.59h.11c.01.39,0,.78-.03,1.17h-.01Z"/>
        <path class="cls-3" d="m163.98,35.05c-.07.74-.2,1.47-.42,2.18-.92.34-3.55-.73-4.57-1.58,2.81-.09,4.92-.14,4.98-.6h.01Z"/>
        <path class="cls-9" d="m163.56,81.26c-1.49.68-3.02,1.31-4.57,1.87.14-.3,2.9-6.42,4.09-12.61l3.93-.38-1.25,11.4-2.2-.28Z"/>
        <path class="cls-6" d="m158.52,129.59s6.14,8.19,9.27,7.35c-.11,1.8-.2,3.07-.2,3.07-8.04-1-16.67-2.43-20.89-7.57,3.96-.25,8.07-.97,11.82-2.85Z"/>
        <path class="cls-1" d="m163.08,38.54s2.14,1.88,4.76,4.06c-.63,10.32-3.51,20.09-3.51,20.09l-.77.04-.48,7.79c-1.19,6.19-3.95,12.31-4.09,12.61h0c-.36.14-.73.28-1.09.4l1.15-21.76,1.02-19.17c1.31-1.09,2.34-2.49,3.01-4.06Z"/>
        <path class="cls-9" d="m163.56,87.56v2.68c-5.56-.64-10.4,4.09-12.5,6.64v-5.55c4.44-1.46,8.76-3.49,12.5-6.32v2.55Z"/>
        <path class="cls-6" d="m162.65,160.23c-2.24,2.69-13.44,2.11-14.1,2.07.08,0,.15-.01.23-.02.11-.01.23-.04.36-.07l13.51-1.98Z"/>
        <path class="cls-9" d="m151.06,96.88v1.94c-3.92-1.09-7.13,2.75-9.14,6.31l.31-11.6h0c2.9-.53,5.89-1.24,8.83-2.2v5.55Z"/>
        <path class="cls-3" d="m148.55,162.3l.59-.09c-.13.03-.25.06-.36.07-.08.01-.15.02-.23.02Z"/>
        <path class="cls-5" d="m147.76,18.54c1.44-2.38,5.1-6.81,7.83-5.62-.13,1.28-1.83,3.45-2.68,4.13s-5.15,1.49-5.15,1.49Z"/>
        <path class="cls-6" d="m132.78,163.39l13.96-2.39c-4.57,3.25-14.23,2.44-14.23,2.44l.27-.05Z"/>
        <path class="cls-1" d="m145.39,86.94c4.1-1.51,13.59-25.17,13.59-25.17h.07l-1.15,21.76c-4.15,1.47-8.43,2.57-12.51,3.41Z"/>
        <path class="cls-9" d="m127.63,94.84c-4.46.05-7.35-.23-7.35-.23h0c.77-1.9,1.46-3.62,2.04-5.07,0,0,.64,0,1.8-.05,1.4-.05,3.55-.16,6.22-.39,4.08-.35,9.38-1,15.05-2.16h.01c4.08-.84,8.36-1.94,12.51-3.41.36-.12.73-.26,1.09-.39h0c1.55-.57,3.08-1.2,4.57-1.88v3.75c-3.74,2.83-8.06,4.86-12.5,6.32-2.94.96-5.93,1.67-8.83,2.19-3.2.58-6.29.92-9.09,1.1-2.01.15-3.86.21-5.51.22Z"/>
        <path class="cls-9" d="m142.23,93.52h0s-.31,11.61-.31,11.61c-.63,1.11-1.14,2.2-1.52,3.1-.88,2.09-1.47,8.75-1.83,14.57h-.01c-2.02,1.23-4.65,2.03-7.54,2.51l-.11-.6.79-10.62.45-6.11.99-13.35h0c2.8-.19,5.89-.53,9.09-1.11Z"/>
        <path class="cls-1" d="m175.63,148.2s.38.32,1.08.85l-1.55.47c-18.34-3.53-33.36-16.97-33.36-16.97,1.58.01,3.23-.01,4.9-.11,4.22,5.14,12.85,6.57,20.89,7.57l8.04,8.19Z"/>
        <path class="cls-7" d="m148.85,52.38c1.39-3.58,2.82-7.56,2.82-7.56l.08-.33c1.71.43,3.49.48,5.15-.09.57-.2,1.11-.44,1.62-.73,0,0-13.54,27.99-16.6,30.29h0c-.13-.33-.5-.82-.94-1.27-.15-.15-.33-.32-.54-.5.25.02,1.14.2,1.39.18,1.2-.1.23-1.23-.95-1.72-.4-.16-.97-.34-1.56-.5l2.44-3.41.02-.02c1.67-1.86,4.92-9.29,4.92-9.29.49-.91,1.32-2.91,2.16-5.05Z"/>
        <path class="cls-1" d="m141.03,77.34c-.06-.29-.36-.48-.65-.51-.22-.03-.44-.02-.66.01l2.16-2.42-.04-.04c.15-.05.16-.2.07-.42h0c3.06-2.3,16.6-30.29,16.6-30.29.55-.31,1.07-.67,1.55-1.07l-1.02,19.17h-.07s-9.49,23.66-13.59,25.17h-.01c-5.67,1.16-10.97,1.81-15.05,2.16l4.28-7.19h0c1.34-.41,2.64-1,3.63-1.75.65-.5.57-.83,1.17-1.38.34-.32,1.72-1,1.62-1.44Z"/>
        <path class="cls-3" d="m140.69,29.18c-2.85.08-1.31-1.9-.64-2.42.88,1.14,1.61,2.39.64,2.42Z"/>
        <path class="cls-3" d="m140.05,26.76c-.67.52-2.21,2.5.64,2.42.97-.03.24-1.28-.64-2.42Zm17.7,8.54l1.42.31c-.06.02-.12.04-.18.04,1.02.85,3.65,1.92,4.57,1.58-.13.45-.29.89-.48,1.31-.67,1.57-1.7,2.97-3.01,4.06-.48.4-1,.76-1.55,1.07-.51.29-1.05.53-1.62.73-1.66.57-3.44.52-5.15.09l-.08.33s-1.43,3.98-2.82,7.56l-.54-.18c-4.58-4.84-10.07-12.99-14.24-20.77-3.28-6.08-5.73-11.94-6.31-15.82-.09-.57-.13-1.1-.13-1.58,1.69-2.57,4.95-6.59,9.06-8.93,2.01-1.16,4.23-1.91,6.56-1.88,7.06.09,10.98,1.36,12.85,3.66s5.84,14.04,5.84,14.04c0,0,3.82,4.17,3.82,6.22,0,1.17-1.66,1.72-2.68,1.76l-2.52-.09c-.45,1.59-1.39,4.48-2.81,6.49Zm-4.84-18.25c.85-.68,2.55-2.85,2.68-4.13-2.73-1.19-6.39,3.24-7.83,5.62,0,0,4.3-.81,5.15-1.49Z"/>
        <path class="cls-1" d="m164.61,161.76c-.07.02-.12.02-.17.01-.67-.15-1.21-.53-1.79-1.54-.75-1.29-1.56-3.64-2.81-7.9-13.87-2-31.44-19.56-31.44-19.56,3.65-.4,7.06-1.15,9.7-2.44h.08c-.05,1.35-.08,2.17-.08,2.17,1.18.02,2.41.05,3.7.05,0,0,15.02,13.44,33.36,16.97,0,0-8.4,11.5-10.47,12.22l-.08.02Z"/>
        <path class="cls-1" d="m151.76,99.05c4.07,1.7,14.66,11.83,21.48,17.1,2.38,1.85,4.31,3.1,5.33,3.2,1.04.1,3.49.25,6.65.4,6.77.31,16.82.59,23.26.24,1.96-.1,3.58-.27,4.68-.51,3.28,4.52,12.31,17.78,17.46,21.12-26.3,10.02-41.33,8.24-54.99,7.6l-8.04-8.19s.09-1.27.2-3.07c.23-3.52.56-9.05.56-10.83,0-1.32-.83-1.78-1.79-1.72h-.01c-1,.05-2.13.63-2.66,1.34-1.65,1.65-3.46,2.91-5.37,3.86-3.75,1.88-7.86,2.6-11.82,2.85-1.67.1-3.32.12-4.9.11-1.29,0-2.52-.03-3.7-.05,0,0,.03-.82.08-2.17.07-1.8.2-4.56.39-7.53.36-5.82.95-12.48,1.83-14.57.38-.9.89-1.99,1.52-3.1,2.01-3.56,5.22-7.4,9.14-6.31.23.05.46.13.7.23Z"/>
        <path class="cls-1" d="m139.72,76.84c-.87.13-1.65.72-2.33,1.26-.69.56-2.11-.18-1.89-.56.22-.37,1.45-1.5,1.45-1.5.25.24.64.27.89.06.41-.35.72-1.94.75-2.44.01-.29-.54-1.21-1.08-2.04.11.08.98.75,1.27,1.09.31.36,1.44,1.22,2.58,1.6.23.08.39.09.48.07l.04.04-2.16,2.42Z"/>
        <path class="cls-2" d="m137.5,71.61c-.36-.56-.72-1.09-.9-1.36-.15-.23-.36-.35-.59-.4v-.06s1-.19,1-.19c0,0,1.17.24,2.3.55.59.16,1.16.34,1.56.5,1.18.49,2.15,1.62.95,1.72-.25.02-1.14-.16-1.39-.18.21.18.39.35.54.5.44.45.81.94.94,1.27.09.22.08.37-.07.42-.09.02-.25.01-.48-.07-1.14-.38-2.27-1.24-2.58-1.6-.29-.34-1.16-1.01-1.27-1.09h-.01Z"/>
        <path class="cls-2" d="m137.51,71.62c.54.83,1.09,1.75,1.08,2.04-.03.5-.34,2.09-.75,2.44-.25.21-.64.18-.89-.06-.18-.15-.29-.41-.29-.75,0-.86-.09-1.5-.18-1.67h-.07c.05-.9-.51-1.52-1.31-2.2-.34-.29-.63-.51-.89-.66h0c-.05-.03.13-.67.58-.79.29-.08.79-.22,1.22-.12.23.05.44.17.59.4.18.27.54.8.9,1.36h.01Z"/>
        <path class="cls-7" d="m134.07,31.43c4.17,7.78,9.66,15.93,14.24,20.77l.54.18c-.84,2.14-1.67,4.14-2.16,5.05l-12.63-26h0Z"/>
        <path class="cls-7" d="m134.61,81.91l-4.28,7.19c-2.67.23-4.82.34-6.22.39v-.28s4.41-6.26,4.41-6.26h0c.93-.24,1.89-.4,2.9-.46,1-.05,2.11-.26,3.19-.59h0Z"/>
        <path class="cls-6" d="m113.97,162.45l16.2-.15c-2.34,1.57-16.2.15-16.2.15Z"/>
        <path class="cls-1" d="m128.59,6.62c.88-3.42,2.1-5.65,2.32-6.06h.01l-2.33,6.06Z"/>
        <path class="cls-1" d="m127.76,15.61c.58,3.88,3.03,9.74,6.31,15.82h0l12.63,26s-3.25,7.43-4.92,9.29l-.02.02c-.24.26-.44.41-.6.4-3-.17-21.29-35.98-21.71-36.8h0s.01-.03.01-.03c3.99-6.54,7.45-12.78,8.18-14.68l.13-.02Z"/>
        <path class="cls-1" d="m127.64,13.75c.02-2.7.43-5.12.95-7.13l2.33-6.06s0-.02.01-.02c-.01,0,0-.02,0-.02h.01s4.15,2.73,5.74,4.57h0c-4.11,2.35-7.37,6.37-9.06,8.94,0-.09,0-.18.01-.28Z"/>
        <path class="cls-9" d="m120.28,94.61s2.89.28,7.35.23h0s-1.53,8.46-1.53,8.46h-9.39c1.3-3.14,2.51-6.1,3.56-8.69h0Z"/>
        <path class="cls-1" d="m125.29,71.56l-.03.9h-.03c.53-3.37-6.15-29.52-7.91-36.36,1.8,6.73,8.49,32.11,7.97,35.46Z"/>
        <path class="cls-1" d="m126.47,72.5h0c.87,1.43.32,3.81.32,3.81h.02c-.05.1-.08.17-.1.22-.24.73-3.14,1.27-3.14,1.27l-.05-.02c1.51-3.14,2.64-5.28,2.94-5.28Z"/>
        <path class="cls-1" d="m124.1,89.21v.28c-1.15.05-1.79.05-1.79.05,1.2-3.02,1.93-4.92,2-5.08,1.4-.62,2.77-1.16,4.21-1.51l-4.42,6.26Z"/>
        <path class="cls-9" d="m111.94,114.52s17.18.7,19.75-.43h.01l-.79,10.62.11.6c-3.2.56-6.71.73-10.03.72h0v-6.68h-11.19c.71-1.6,1.42-3.21,2.13-4.83h0Z"/>
        <path class="cls-1" d="m119.45,30.31l9.14-23.69c-.52,2.01-.93,4.43-.95,7.13-.01.1-.01.19-.01.28,0,.48.04,1.01.13,1.58l-.13.02c-.73,1.9-4.19,8.14-8.18,14.68Z"/>
        <path class="cls-2" d="m141.03,77.34c.1.44-1.28,1.12-1.62,1.44-.6.55-.52.88-1.17,1.38-.99.75-2.29,1.34-3.63,1.74-1.08.33-2.19.54-3.19.59-1.01.06-1.97.22-2.9.45h0c-1.44.36-2.81.9-4.21,1.52-.01,0-.02.01-.03.01-1.44.63-3.44,1.22-4.66,2.24l-.2-.09c1.45-3.19,2.9-6.33,4.11-8.84l.05.02s2.9-.54,3.14-1.27c.02-.05.05-.12.1-.21.65-1.19,4.13-5.64,5.23-5.84.88-.16,1.4-.19,2.16.28.26.15.55.37.89.66.8.68,1.36,1.3,1.31,2.2h.07c.09.17.19.81.18,1.67,0,.34.11.6.29.75,0,0-1.23,1.13-1.45,1.5-.22.38,1.2,1.12,1.89.56.68-.54,1.46-1.13,2.33-1.26.22-.03.44-.04.66-.01.29.03.59.22.65.51Z"/>
        <path class="cls-6" d="m124.28,84.47s.02-.01.03-.01c-.07.16-.8,2.06-2,5.08-.58,1.45-1.27,3.17-2.04,5.07-1.05,2.59-2.26,5.55-3.56,8.68h-.01c-.71,1.73-1.46,3.51-2.23,5.33h-.01c-.82,1.94-1.67,3.92-2.53,5.9-.71,1.62-1.42,3.23-2.13,4.82-.86,1.93-1.73,3.83-2.58,5.65h0c-1.16,2.49-2.3,4.84-3.38,6.97-1.69,3.31-3.25,6.11-4.58,8.05-.54.79-1.04,1.44-1.5,1.93-1.81,1.93-3.67,3.74-5.46,5.37-5.41,4.92-10.07,8.17-10.07,8.17,0,0-5.96,2.55-10.3,3.49.42-4.13,9.23-12.05,12.3-15.49,3.06-3.45,26.04-36.9,28.97-43.15,1.27-2.7,3.74-8.26,6.22-13.71l.2.09c1.22-1.02,3.22-1.61,4.66-2.24Z"/>
        <path class="cls-1" d="m119.44,30.33c-.55-15.1,10.61-28.76,11.47-29.77-.22.41-1.44,2.64-2.32,6.06l-9.14,23.69v.02Z"/>
        <path class="cls-1" d="m119.44,30.34c.42.82,18.71,36.63,21.71,36.8.16.01.36-.14.6-.4l-2.44,3.41c-1.13-.31-2.3-.55-2.3-.55l-.99.19v.06c-.44-.1-.94.04-1.23.12-.45.12-.63.76-.58.78h0c-.76-.46-1.28-.43-2.16-.27-1.1.2-4.58,4.65-5.23,5.84h-.02s.55-2.39-.32-3.82h0c-.07,0-.51-.02-1.21-.04l.03-.9c.52-3.35-6.17-28.73-7.97-35.46-.02-.11-.05-.22-.08-.32-.05-.19-.1-.37-.14-.52-.13-.51-.21-.79-.21-.79h-.01c.87-1.37,1.73-2.76,2.56-4.13Z"/>
        <path class="cls-1" d="m128.4,132.77s17.57,17.56,31.44,19.56c-1.71,4.08-7.73,9.18-10.7,9.88l-.59.09h-.03c-.86.01-1.42-.47-1.78-1.3-.73-1.63-.71-4.57-.77-7.57-15.25.89-28.15-19.66-28.54-20.29,3.54.09,7.37.03,10.97-.37Z"/>
        <path class="cls-1" d="m117.1,35.26c.04.15.09.33.14.52-.06-.2-.1-.37-.14-.52Z"/>
        <path class="cls-1" d="m116.89,34.47s.08.28.21.79c.04.15.08.32.14.52.03.1.06.21.08.32,1.76,6.84,8.44,32.99,7.91,36.35h.03c-1.28-.04-3.43-.11-5.78-.16.78-4.16-1.94-9.93-5-14.84h0c-3.36-5.38-7.14-9.72-7.14-9.72,2.09-1.92,5.84-7.36,9.55-13.27h.01Z"/>
        <path class="cls-9" d="m133.14,94.62h0s-.99,13.36-.99,13.36c-3.91.51-17.67.65-17.67.65h0c.77-1.83,1.52-3.61,2.23-5.34h.02s9.38.01,9.38.01l1.53-8.45h0c1.65-.02,3.5-.08,5.51-.23Z"/>
        <path class="cls-1" d="m100.35,55.06s9.48,4.11,14.12,2.39h0c3.06,4.91,5.78,10.68,5,14.84-4.5-.09-9.74-.12-11.04.21-1.5.37-3.59,2.47-5.45,4.85-3.83-2.3-26.08,4.42-26.08,4.42,6.41-11.58,15.33-18.66,19.19-22.29,1.66-1.57,2.98-3,4.25-4.42Z"/>
        <path class="cls-9" d="m114.47,108.62h0s13.76-.13,17.67-.64l-.45,6.11h-.01c-2.57,1.13-19.75.43-19.75.43h0c.86-1.98,1.71-3.96,2.53-5.9h.01Z"/>
        <path class="cls-6" d="m98.67,160.5l13.44.51c-3.69,1.59-12.95-.4-13.44-.51Z"/>
        <path class="cls-9" d="m109.81,119.35h11.18v6.67h0c-7.35-.03-13.76-1.02-13.76-1.02h0c.85-1.83,1.72-3.73,2.58-5.66h.01Z"/>
        <path class="cls-1" d="m107.33,47.73s3.78,4.34,7.14,9.72c-4.64,1.72-14.12-2.39-14.12-2.39,2.06-2.3,3.98-4.57,6.98-7.33Z"/>
        <path class="cls-9" d="m107.23,125s6.41.99,13.76,1.03c3.32.01,6.83-.16,10.03-.72,2.89-.48,5.52-1.28,7.54-2.51h.01c-.19,2.97-.32,5.73-.39,7.53h-.08c-2.64,1.29-6.05,2.04-9.7,2.44-3.6.4-7.43.46-10.97.37-4.27-.13-8.11-.49-10.61-.78-1.84-.21-2.95-.38-2.95-.38l-.03-.02c1.08-2.13,2.22-4.48,3.38-6.96h0Z"/>
        <path class="cls-1" d="m106.82,132.36c2.5.29,6.34.65,10.61.78.39.63,13.29,21.18,28.54,20.29-.51.26-10.21,9.45-13.19,9.96-1.14.2-1.96-.2-2.61-1.09-1.05-1.44-1.68-4.18-2.54-7.85-.32-.03-.67,0-1.02.08h-.02c-7.15-1.5-19.77-22.17-19.77-22.17Z"/>
        <path class="cls-1" d="m103.87,131.98s1.11.17,2.95.38c0,0,12.62,20.67,19.77,22.17-4.21.86-10.51,7.92-12.62,7.92-.76,0-1.38-.54-1.84-1.45-.94-1.81-1.28-5.07-1.05-8.25l-11.81-12.74h-.01c1.33-1.94,2.89-4.74,4.58-8.05l.03.02Z"/>
        <path class="cls-1" d="m76.91,81.77s22.25-6.72,26.08-4.42c-1.09,1.39-2.11,2.89-2.89,4.19-1.02,1.71-6.22,10.51-11.74,19.58-5.42,2.05-12.83,6.97-18.31,11.79-2.08,1.84-3.88,3.65-5.19,5.29l-15.74-19.4c1.28-4.6,19.91-9.96,25.53-12.52.7-1.58,1.46-3.08,2.26-4.51Z"/>
        <path class="cls-1" d="m97.76,141.94c.46-.49.96-1.14,1.5-1.93h.01l11.81,12.74c-4.26.26-12.43,7.75-12.43,7.75l-4.08-4.34-2.27-8.85c1.79-1.63,3.65-3.44,5.46-5.37Z"/>
        <path class="cls-1" d="m82.23,155.48s4.66-3.25,10.07-8.17l2.27,8.85c-2.3.76-12.34-.68-12.34-.68Z"/>
        <path class="cls-1" d="m125.26,72.46c.7.02,1.14.04,1.21.04-.3,0-1.43,2.14-2.94,5.28-1.21,2.51-2.66,5.65-4.11,8.84-2.48,5.45-4.95,11.01-6.22,13.71-2.93,6.25-25.91,39.7-28.97,43.15-3.07,3.44-11.88,11.36-12.3,15.49-4.34.93-6.98-2.98-8.26-7.58,0,0-3.57-21.62,1.19-33.19,1.31-1.64,3.11-3.45,5.19-5.29,5.48-4.82,12.89-9.74,18.31-11.79,5.52-9.07,10.72-17.87,11.74-19.58.78-1.3,1.8-2.8,2.89-4.19,1.86-2.38,3.95-4.48,5.45-4.85,1.3-.33,6.54-.3,11.04-.21,2.35.05,4.5.12,5.78.17Z"/>
        <path class="cls-8" d="m63.67,151.39c-4.06.53-8.61-.56-12.88-2.73-6.06-3.06-11.54-8.27-14.25-14.07-.91-1.93-1.51-3.92-1.72-5.92-.32-3.11-.04-6.27.69-9.32.81-3.43,2.17-6.73,3.86-9.69,2.74-4.81,6.32-8.74,9.75-10.86l15.74,19.4c-4.76,11.57-1.19,33.19-1.19,33.19Z"/>
        <path class="cls-1" d="m36.54,134.59c2.71,5.8,8.19,11.01,14.25,14.07h-.01s-4.81,1.54-12.38,1.79c-7.58.26-14.39-5.19-14.39-5.19l3.21-2.73,9.31-7.94h.01Z"/>
        <path class="cls-1" d="m35.51,119.35c-.73,3.05-1.01,6.21-.69,9.32.21,2,.81,3.99,1.72,5.92h-.01l-9.31,7.94c-1.11-1.04-2.76-8.84-2.74-15.14,1.32-1.45,7.63-8.08,11.03-8.04Z"/>
        <path class="cls-1" d="m24.78,123.39c1.11-6.38,4.85-9.62,14.59-13.73-1.69,2.96-3.05,6.26-3.86,9.69-3.4-.04-9.71,6.59-11.03,8.04,0-1.45.1-2.81.3-4Z"/>
      </g>
      <g>
        <path class="cls-12" d="m130.95.51s4.15,2.74,5.74,4.58"/>
        <path class="cls-12" d="m148.31,52.2c-4.58-4.84-10.07-12.99-14.24-20.77-3.28-6.08-5.73-11.94-6.31-15.82-.09-.57-.13-1.1-.13-1.58,0-.09,0-.18.01-.28.17-3.05,2.85-10.99,3.37-13.01"/>
        <path class="cls-12" d="m127.63,14.03c1.69-2.57,4.95-6.59,9.06-8.93,2.01-1.16,4.23-1.91,6.56-1.88,7.06.09,10.98,1.36,12.85,3.66s5.84,14.04,5.84,14.04c0,0,3.82,4.17,3.82,6.22,0,1.17-1.66,1.72-2.68,1.76.72.48.85,3.67.91,4.47,0,.17.02.34.02.51.01.39,0,.78-.03,1.17-.07.74-.2,1.47-.42,2.18-.13.45-.29.89-.48,1.31-.67,1.57-1.7,2.97-3.01,4.06-.48.4-1,.76-1.55,1.07-.51.29-1.05.53-1.62.73-1.66.57-3.44.52-5.15.09-.95-.23-1.89-.57-2.77-.98"/>
        <path class="cls-12" d="m152.91,17.05c-.85.68-5.15,1.49-5.15,1.49,1.44-2.38,5.1-6.81,7.83-5.62-.13,1.28-1.83,3.45-2.68,4.13Z"/>
        <path class="cls-12" d="m152.52,21.94s2.22-1.78,3.66-2.04"/>
        <path class="cls-12" d="m160.86,27.65s-.1.45-.3,1.16c-.45,1.59-1.39,4.48-2.81,6.49-.47.67-.99,1.25-1.57,1.64"/>
        <path class="cls-12" d="m163.9,33.88l-1.1-.59-1.51.33s-1.2,1.71-2.12,1.99c-.06.02-.12.04-.18.04,2.81-.09,4.92-.14,4.98-.6"/>
        <path class="cls-12" d="m158.99,35.65c1.02.85,3.65,1.92,4.57,1.58"/>
        <path class="cls-12" d="m142.23,21.94c-3.28-2.46-6.47-.34-6.56,2.81-.08,3.15,1.21,8.09,4.14,7.15"/>
        <path class="cls-12" d="m140.05,26.76c-.74-.96-1.57-1.84-1.57-1.84"/>
        <path class="cls-12" d="m140.05,26.76c-.67.52-2.21,2.5.64,2.42.97-.03.24-1.28-.64-2.42Z"/>
        <path class="cls-12" d="m140.08,26.73s-.02,0-.03.03"/>
        <path class="cls-12" d="m158.52,43.67s-13.54,27.99-16.6,30.29"/>
        <path class="cls-12" d="m134.06,31.43l12.63,26c.49-.91,1.32-2.91,2.16-5.05,1.39-3.58,2.82-7.56,2.82-7.56"/>
        <path class="cls-12" d="m200.3,157.34c10.57-1.49,24.31-5.21,32.07-15.98.29-.39.56-.79.83-1.2,3.58-5.88,4.22-13.41,4.22-13.41,4.98-5.1,8.42-8.42,7.02-11.61-1.69-.2-2.75-.46-4.2-.62-1.39-.15-3.14-.21-6.14-.02"/>
        <path class="cls-12" d="m164.69,161.74c2.07-.72,10.47-12.22,10.47-12.22,0,0,1.63,5.76,3.94,8.9.85,1.16,1.8,1.97,2.79,1.99,3.65.09,11.14-2.3,11.14-2.3,2.11-.16,4.55-.4,7.21-.77"/>
        <path class="cls-12" d="m149.14,162.21c2.97-.7,8.99-5.8,10.7-9.88,1.25,4.26,2.06,6.61,2.81,7.9.58,1.01,1.12,1.39,1.79,1.54.05.01.1.01.17-.01"/>
        <path class="cls-12" d="m126.61,154.53c.35-.08.7-.11,1.02-.08.86,3.67,1.49,6.41,2.54,7.85.65.89,1.47,1.29,2.61,1.09,2.98-.51,12.68-9.7,13.19-9.96.06,3,.04,5.94.77,7.57.36.83.92,1.31,1.78,1.3"/>
        <path class="cls-12" d="m119.44,30.34c-.83,1.37-1.69,2.76-2.56,4.12-3.71,5.91-7.46,11.35-9.55,13.27-3,2.76-4.92,5.03-6.98,7.33-1.27,1.42-2.59,2.85-4.25,4.42-3.86,3.63-12.78,10.71-19.19,22.29-.8,1.43-1.56,2.93-2.26,4.51-5.62,2.56-24.25,7.92-25.53,12.52-3.43,2.12-7.01,6.05-9.75,10.86-1.69,2.96-3.05,6.26-3.86,9.69-.73,3.05-1.01,6.21-.69,9.32.21,2,.81,3.99,1.72,5.92,2.71,5.8,8.19,11.01,14.25,14.07,4.27,2.17,8.82,3.26,12.88,2.73,1.28,4.6,3.92,8.51,8.26,7.58,4.34-.94,10.3-3.49,10.3-3.49,0,0,10.04,1.44,12.34.68l4.08,4.34s8.17-7.49,12.43-7.75c-.23,3.18.11,6.44,1.05,8.25.46.91,1.08,1.45,1.84,1.45,2.11,0,8.41-7.06,12.62-7.92"/>
        <path class="cls-12" d="m127.63,15.63c-.73,1.9-4.19,8.14-8.18,14.68"/>
        <path class="cls-12" d="m229.13,109c1.27-.17,2.99-.53,4.87-.77,2.28-.29,4.81-.42,7.12.14l-.88,6.15"/>
        <path class="cls-12" d="m204.35,101.35s7.15-3.96,11.24-4.6l4.08-.64-2.15,6.05c4.47-2.42,11.98-3.88,11.98-3.88l-3.94,7.83h-.01"/>
        <path class="cls-12" d="m225.42,106.16l.12-.05h.02l10.28-4.08c-.55,2.85-.72,4.09-1.84,6.2"/>
        <path class="cls-12" d="m126.48,72.5c.87,1.43.32,3.81.32,3.81"/>
        <path class="cls-12" d="m71.93,158.97c.42-4.13,9.23-12.05,12.3-15.49,3.06-3.45,26.04-36.9,28.97-43.15,1.27-2.7,3.74-8.26,6.22-13.71,1.45-3.19,2.9-6.33,4.11-8.84,1.51-3.14,2.64-5.28,2.94-5.28"/>
        <path class="cls-12" d="m124.31,84.45h0c-.07.17-.8,2.07-2,5.09-.58,1.45-1.27,3.17-2.04,5.07-1.05,2.59-2.26,5.55-3.56,8.68h-.01c-.71,1.73-1.46,3.51-2.23,5.33h-.01c-.82,1.94-1.67,3.92-2.53,5.9-.71,1.62-1.42,3.23-2.13,4.82-.86,1.93-1.73,3.83-2.58,5.65h0c-1.16,2.49-2.3,4.84-3.38,6.97-1.69,3.31-3.25,6.11-4.58,8.05-.54.79-1.04,1.44-1.5,1.93-1.81,1.93-3.67,3.74-5.46,5.37-5.41,4.92-10.07,8.17-10.07,8.17"/>
        <line class="cls-12" x1="92.3" y1="147.31" x2="94.57" y2="156.16"/>
        <line class="cls-12" x1="99.27" y1="140.01" x2="111.08" y2="152.75"/>
        <path class="cls-12" d="m103.87,131.98s1.11.17,2.95.38c2.5.29,6.34.65,10.61.78,3.54.09,7.37.03,10.97-.37,3.65-.4,7.06-1.15,9.7-2.44"/>
        <path class="cls-12" d="m166.56,124.39c.96-.06,1.79.4,1.79,1.72,0,1.78-.33,7.31-.56,10.83-.11,1.8-.2,3.07-.2,3.07-8.04-1-16.67-2.43-20.89-7.57h-.01"/>
        <path class="cls-12" d="m230.62,140.6c-5.15-3.34-14.18-16.6-17.46-21.12-1.1.24-2.72.41-4.68.51-6.44.35-16.49.07-23.26-.24-3.16-.15-5.61-.3-6.65-.4-1.02-.1-2.95-1.35-5.33-3.2-6.82-5.27-17.41-15.4-21.48-17.1-.24-.1-.47-.18-.7-.23-3.92-1.09-7.13,2.75-9.14,6.31-.63,1.11-1.14,2.2-1.52,3.1-.88,2.09-1.47,8.75-1.83,14.57-.19,2.97-.32,5.73-.39,7.53-.05,1.35-.08,2.17-.08,2.17,1.18.02,2.41.05,3.7.05,1.58.01,3.23-.01,4.9-.11,3.96-.25,8.07-.97,11.82-2.85,1.91-.95,3.72-2.21,5.37-3.86.53-.71,1.66-1.29,2.66-1.34"/>
        <path class="cls-12" d="m232.38,141.36h-.01c-.5-.07-1.09-.33-1.74-.76"/>
        <path class="cls-12" d="m151.06,106.12s11.36,17.6,15.49,18.27h.01c.06.01.12.02.18.02"/>
        <path class="cls-12" d="m158.52,129.59s6.14,8.19,9.27,7.35"/>
        <path class="cls-12" d="m167.59,140.01l8.04,8.19c13.66.64,28.69,2.42,54.99-7.6h.01"/>
        <path class="cls-12" d="m175.63,148.2s.38.32,1.08.85c3.21,2.41,13.09,9.07,23.53,8.29h.06"/>
        <path class="cls-12" d="m141.8,132.55s15.02,13.44,33.36,16.97"/>
        <path class="cls-12" d="m128.4,132.77s17.57,17.56,31.44,19.56"/>
        <path class="cls-12" d="m117.42,133.13h.01c.39.64,13.29,21.19,28.54,20.3"/>
        <path class="cls-12" d="m106.82,132.36s12.62,20.67,19.77,22.17h.02"/>
        <path class="cls-12" d="m178.57,119.35s23.23,17.06,31.53,17.65"/>
        <path class="cls-12" d="m163.08,38.54s2.14,1.88,4.76,4.06c1.62,1.33,3.42,2.78,5.03,3.94,1.88,1.39,3.47,2.38,4.16,2.38,2.22,0,4.77,3.92,5.62,6.13.09.24.28.75.54,1.47.07.18.14.37.21.58,1.92,5.28,6.75,18.59,9.23,23.25,0,.01.01.01.01.02h0c.32.61.6,1.06.83,1.33.07.09.14.16.21.21"/>
        <path class="cls-12" d="m194.79,81.28c.34.21,2.47,1.74,4.88,8.84.96,2.83,1.97,6.55,2.93,11.42l1.75-.19s7.18-.7,13.17.82c1.42.35,2.77.84,3.94,1.48,1.35.73,2.72,1.53,4.08,2.46,0,0,.01,0,.01,0,1.22.83,2.43,1.78,3.58,2.88,1.63,1.57,3.16,3.45,4.48,5.79,1.71,3.08,3.07,6.95,3.81,11.96"/>
        <polyline class="cls-12" points="205.26 114.9 205.31 114.98 208.48 119.99"/>
        <path class="cls-12" d="m185.24,119.35s10.69-1.1,12.99-3.93"/>
        <polyline class="cls-12" points="183.79 106.35 189.42 101.12 194.33 108.23"/>
        <polyline class="cls-12" points="173.24 116.15 175.73 113.83 183.78 106.35"/>
        <path class="cls-12" d="m183.78,106.35h.01c.3.24,6.2,4.72,11.72,4.9"/>
        <path class="cls-12" d="m163.56,87.56s11.27,2.5,22.4,3.16c4.92.28,9.82.21,13.71-.6"/>
        <polyline class="cls-12" points="185.96 90.71 185.96 90.72 185.96 100.01"/>
        <line class="cls-12" x1="163.57" y1="90.25" x2="175.73" y2="113.83"/>
        <polyline class="cls-12" points="171.6 93.89 176.61 104.01 183.27 98.95"/>
        <path class="cls-12" d="m158.99,83.13c1.55-.56,3.08-1.19,4.57-1.87v8.98h.01c.21.1,3.68,1.7,8.02,3.64h.01c3.75,1.69,8.15,3.62,11.67,5.06.98.4,1.88.76,2.69,1.07h0c1.71.66,2.97,1.08,3.46,1.11,2.55.13,13.18.42,13.18.42l1.75,5.68,5.75,5.06s-2.04,1.63-4.79,2.7c-2.14.82-4.71,1.32-7.08.44-.89-.33-1.94-2.35-2.72-4.17-.69-1.59-1.18-3.02-1.18-3.02l10.02-1.01"/>
        <path class="cls-12" d="m145.39,86.94c4.08-.84,8.36-1.94,12.51-3.41.36-.12.73-.26,1.09-.39"/>
        <path class="cls-12" d="m122.31,89.54s.64,0,1.8-.05c1.4-.05,3.55-.16,6.22-.39,4.08-.35,9.38-1,15.05-2.16"/>
        <path class="cls-12" d="m120.28,94.61s2.89.28,7.35.23c1.65-.01,3.5-.07,5.51-.22,2.8-.18,5.89-.52,9.09-1.1,2.9-.52,5.89-1.23,8.83-2.19,4.44-1.46,8.76-3.49,12.5-6.32"/>
        <polyline class="cls-12" points="133.14 94.63 132.15 107.98 131.7 114.09 130.91 124.71"/>
        <path class="cls-12" d="m107.23,125s6.41.99,13.76,1.03c3.32.01,6.83-.16,10.03-.72,2.89-.48,5.52-1.28,7.54-2.51"/>
        <polyline class="cls-12" points="109.81 119.35 120.99 119.35 120.99 126.02"/>
        <path class="cls-12" d="m111.94,114.52s17.18.7,19.75-.43"/>
        <path class="cls-12" d="m114.48,108.63s13.76-.14,17.67-.65"/>
        <polyline class="cls-12" points="116.72 103.3 126.1 103.3 127.63 94.85"/>
        <line class="cls-12" x1="142.23" y1="93.53" x2="141.92" y2="105.13"/>
        <polyline class="cls-12" points="151.06 91.33 151.06 96.88 151.06 98.82 151.06 98.95"/>
        <path class="cls-12" d="m151.06,96.88c2.1-2.55,6.94-7.28,12.5-6.64"/>
        <path class="cls-12" d="m158.99,83.14h0c.14-.31,2.9-6.43,4.09-12.62"/>
        <path class="cls-12" d="m192.9,80.25c-.06.01-.1.02-.1.02l.41.87v.02s.26.54.26.54l.17.36"/>
        <path class="cls-12" d="m171.59,69.69v12.59c11.06,2.7,19.41,1.14,22.18-.25.03-.02.06-.03.09-.05"/>
        <polyline class="cls-12" points="163.56 81.26 165.76 81.54 171.59 82.28"/>
        <line class="cls-12" x1="167.01" y1="70.14" x2="165.76" y2="81.54"/>
        <polygon class="cls-12" points="164.33 62.69 163.56 62.73 163.08 70.52 167.01 70.14 171.59 69.69 171.86 62.28 164.33 62.69"/>
        <path class="cls-12" d="m164.33,62.69s2.88-9.77,3.51-20.09"/>
        <path class="cls-12" d="m172.86,46.55s.09,12.61-1,15.73"/>
        <path class="cls-12" d="m173.71,70.14l6.39-8.37,2.17,10.73s-5.62,1.4-8.56,4.85"/>
        <polyline class="cls-12" points="160.07 42.6 159.05 61.77 157.9 83.53 157.89 83.76"/>
        <path class="cls-12" d="m158.98,61.77s-9.49,23.66-13.59,25.17h-.01"/>
        <path class="cls-12" d="m141.77,66.72c1.67-1.86,4.92-9.29,4.92-9.29"/>
        <path class="cls-12" d="m119.44,30.34c.42.82,18.71,36.63,21.71,36.8.16.01.36-.14.6-.4"/>
        <path class="cls-12" d="m116.89,34.47s.08.28.21.79c.04.15.09.33.14.52.03.1.06.21.08.32,1.8,6.73,8.49,32.11,7.97,35.46"/>
        <path class="cls-12" d="m126.48,72.5h0c-.07,0-.51-.02-1.21-.04-1.28-.05-3.43-.12-5.78-.17-4.5-.09-9.74-.12-11.04.21-1.5.37-3.59,2.47-5.45,4.85-1.09,1.39-2.11,2.89-2.89,4.19-1.02,1.71-6.22,10.51-11.74,19.58-5.91,9.72-12.2,19.74-14.13,21.68"/>
        <path class="cls-12" d="m49.12,98.8l15.74,19.4c-4.76,11.57-1.19,33.19-1.19,33.19"/>
        <path class="cls-12" d="m64.86,118.2c1.31-1.64,3.11-3.45,5.19-5.29,5.48-4.82,12.89-9.74,18.31-11.79"/>
        <path class="cls-12" d="m70.06,91.33s-2.8,20.1-.01,21.58c0,.01.01.01.01.01"/>
        <path class="cls-12" d="m76.91,81.77s22.25-6.72,26.08-4.42"/>
        <path class="cls-12" d="m114.48,57.45c3.06,4.91,5.78,10.68,5,14.84"/>
        <path class="cls-12" d="m107.33,47.73s3.78,4.34,7.14,9.72"/>
        <path class="cls-12" d="m100.35,55.06s9.48,4.11,14.12,2.39h0"/>
        <path class="cls-12" d="m210.1,112.28s3.38,4.9,3.06,7.2"/>
        <path class="cls-12" d="m123.58,77.8s2.9-.54,3.14-1.27c.02-.05.05-.12.1-.21.65-1.19,4.13-5.64,5.23-5.84.88-.16,1.4-.19,2.16.28.26.15.55.37.89.66.8.68,1.36,1.3,1.31,2.2-.04.6-.34,1.32-1.03,2.26-.09.19-.8.05-.73-.74l.25-1.53s-1.84-.55-1.9-.73c-.5,1.25-1.59,2.83-2.09,2.96"/>
        <path class="cls-12" d="m137.51,71.62c.54.83,1.09,1.75,1.08,2.04-.03.5-.34,2.09-.75,2.44-.25.21-.64.18-.89-.06-.18-.15-.29-.41-.29-.75,0-.86-.09-1.5-.18-1.67"/>
        <path class="cls-12" d="m134.21,70.75c-.05-.02.13-.66.58-.78.29-.08.79-.22,1.22-.12.23.05.44.17.59.4.18.27.54.8.9,1.36"/>
        <path class="cls-12" d="m136.84,70l.98.21s1.57,1.1,2.61,1.98c.21.18.39.35.54.5.44.45.81.94.94,1.27.09.22.08.37-.07.42-.09.02-.25.01-.48-.07-1.14-.38-2.27-1.24-2.58-1.6-.29-.34-1.16-1.01-1.27-1.09h-.01"/>
        <path class="cls-12" d="m128.52,82.95c-1.44.35-2.81.89-4.21,1.51-.01,0-.02.01-.03.01-1.44.63-3.44,1.22-4.66,2.24"/>
        <path class="cls-12" d="m136.95,76.04s-1.23,1.13-1.45,1.5c-.22.38,1.2,1.12,1.89.56.68-.54,1.46-1.13,2.33-1.26.22-.03.44-.04.66-.01.29.03.59.22.65.51.1.44-1.28,1.12-1.62,1.44-.6.55-.52.88-1.17,1.38-.99.75-2.29,1.34-3.63,1.74-1.08.33-2.19.54-3.19.59-1.01.06-1.97.22-2.9.45"/>
        <path class="cls-12" d="m136.02,69.79l.99-.19s1.17.24,2.3.55c.59.16,1.16.34,1.56.5,1.18.49,2.15,1.62.95,1.72-.25.02-1.14-.16-1.39-.18"/>
        <polyline class="cls-12" points="141.92 74.38 141.88 74.42 139.72 76.84"/>
        <line class="cls-12" x1="134.61" y1="81.91" x2="130.33" y2="89.1"/>
        <polyline class="cls-12" points="128.52 82.94 128.52 82.95 124.1 89.21"/>
        <path class="cls-12" d="m39.37,109.66c-9.74,4.11-13.48,7.35-14.59,13.73-.2,1.19-.3,2.55-.3,4-.02,6.3,1.63,14.1,2.74,15.14"/>
        <path class="cls-12" d="m36.53,134.59l-9.31,7.94-3.21,2.73s6.81,5.45,14.39,5.19c7.57-.25,12.38-1.78,12.38-1.78"/>
        <path class="cls-12" d="m24.48,127.39c1.32-1.45,7.63-8.08,11.03-8.04"/>
        <polyline class="cls-12" points="139.31 70.15 141.75 66.74 141.77 66.72 141.85 66.6"/>
        <path class="cls-12" d="m130.94.52s-.02.01,0,.02t-.01.02h-.01c-.86,1.01-12.02,14.67-11.47,29.77"/>
        <polyline class="cls-12" points="130.94 .52 130.95 .51 130.95 .5"/>
        <line class="cls-12" x1="119.44" y1="30.34" x2="119.44" y2="30.33"/>
        <path class="cls-11" d="m193.76,82l.09-.02h.01s.05-.03.08-.04c.04-.02.07-.04.11-.06.09-.05.17-.1.25-.15.03-.02.06-.04.08-.06.21-.14.34-.27.41-.39.01-.02.02-.05.03-.07.51-1.36-1.94-.99-1.94-.99l.02.03.47,1.01.06.11.05.11.2.43.05.1h.03Z"/>
        <path class="cls-11" d="m98.67,160.5c.49.11,9.75,2.1,13.44.51"/>
        <line class="cls-11" x1="98.67" y1="160.5" x2="98.65" y2="160.5"/>
        <path class="cls-11" d="m113.97,162.45s13.86,1.42,16.2-.15"/>
        <path class="cls-11" d="m132.51,163.44s9.66.81,14.23-2.44"/>
        <path class="cls-11" d="m148.55,162.3c.66.04,11.86.62,14.1-2.07"/>
        <line class="cls-11" x1="148.55" y1="162.3" x2="148.52" y2="162.3"/>
        <path class="cls-11" d="m164.61,161.76s10.85.45,14.49-3.34"/>
      </g>
    </g>
  </g>
</svg>