<svg xmlns="http://www.w3.org/2000/svg" viewBox="0 0 272.52 196.52"><defs><clipPath id="clippath"><path d="M33.07 0h237.09v154.21H33.07z" style="fill:none;stroke-width:0"/></clipPath><style>.cls-1{fill:#fbfae5}.cls-1,.cls-2,.cls-3,.cls-5,.cls-7,.cls-8,.cls-9{stroke-width:0}.cls-2{fill:#d6aeaf}.cls-3{fill:#f4e9ce}.cls-11{stroke-miterlimit:10}.cls-11,.cls-12,.cls-13{fill:none;stroke:#000}.cls-5{fill:#f3edd7}.cls-12{stroke-width:.5px}.cls-12,.cls-13{stroke-linecap:round;stroke-linejoin:round}.cls-7{fill:#333}.cls-8{fill:#eeba64}.cls-9{fill:#ff4632}</style></defs><g id="_畳" data-name="畳"><path d="M.24 161.88h3.62v5.03H.24zM270.15 189.46v6.57H239.7l15.35-8.63c1.03 1.62 3.11 2.72 5.51 2.72s4.62-1.18 5.62-2.88l3.97 2.23ZM270.15 178.9v10.56l-3.97-2.23c.38-.65.59-1.38.59-2.14 0-1.3-.62-2.48-1.62-3.38l4.99-2.8ZM270.15 166.91v11.99l-4.99 2.8c-1.14-1.01-2.77-1.64-4.59-1.64s-3.31.58-4.44 1.51l-26.1-14.67h40.12ZM270.15 89.9v5.76H.24V89.9h269.91z" class="cls-5"/><path d="M266.16 161.88h3.99v5.03h-3.99zM266.78 185.08c0 .76-.21 1.49-.59 2.14l-5.42-3.05 4.39-2.47c1 .89 1.62 2.08 1.62 3.38ZM260.77 184.18l5.42 3.05c-1 1.7-3.13 2.88-5.62 2.88s-4.48-1.1-5.51-2.72l5.71-3.21Z" class="cls-5"/><path d="M254.85 161.88h11.31v5.03h-11.31z" class="cls-7"/><path d="m265.16 181.7-4.39 2.47-4.64-2.61c1.13-.93 2.7-1.51 4.44-1.51 1.82 0 3.46.63 4.59 1.64ZM260.77 184.18l-5.71 3.21c-.44-.69-.69-1.48-.69-2.31 0-1.37.68-2.61 1.77-3.51l4.64 2.61Z" class="cls-5"/><path d="m230.03 166.91 26.1 14.67c-1.09.9-1.77 2.14-1.77 3.51 0 .83.25 1.62.69 2.31l-15.35 8.63h-41.48l-15.65-8.8c.38-.65.59-1.38.59-2.14 0-1.3-.62-2.48-1.62-3.37l26.34-14.81h22.15Zm-5.97 18.18c0-2.77-2.25-5.02-5.02-5.02s-5.03 2.25-5.03 5.02 2.25 5.03 5.03 5.03 5.02-2.25 5.02-5.03Z" class="cls-5"/><path d="M254.85 166.91h-30.52v-5.03h30.52v5.03z" class="cls-5"/><path d="M213.02 161.88h11.31v5.03h-11.31zM219.05 180.06c2.77 0 5.02 2.25 5.02 5.02s-2.25 5.03-5.02 5.03-5.03-2.25-5.03-5.03 2.25-5.02 5.03-5.02Z" class="cls-7"/><path d="m207.88 166.91-26.34 14.81c-1.14-1.02-2.77-1.65-4.59-1.65s-3.31.58-4.44 1.51l-26.1-14.67h61.47ZM182.5 166.91v-5.03h30.52v5.03H182.5zM198.21 196.02h-42.13l15.35-8.63c1.03 1.62 3.12 2.72 5.51 2.72s4.62-1.18 5.62-2.88l15.65 8.8Z" class="cls-5"/><path d="M183.16 185.08c0 .76-.21 1.49-.59 2.14l-5.42-3.05 4.39-2.47c1 .89 1.62 2.07 1.62 3.37ZM177.15 184.18l5.42 3.05c-1 1.7-3.13 2.88-5.62 2.88s-4.48-1.1-5.51-2.72l5.71-3.21Z" class="cls-5"/><path d="M171.19 161.88h11.31v5.03h-11.31z" class="cls-7"/><path d="M176.95 180.06c1.82 0 3.46.63 4.59 1.65l-4.39 2.47-4.64-2.61c1.13-.93 2.7-1.51 4.44-1.51Z" class="cls-5"/><path d="m177.15 184.18-5.71 3.21c-.44-.69-.69-1.48-.69-2.31 0-1.37.68-2.61 1.77-3.51l4.64 2.61Z" class="cls-5"/><path d="m146.41 166.91 26.1 14.67c-1.09.9-1.77 2.14-1.77 3.51 0 .83.25 1.62.69 2.31l-15.35 8.63H114.6l-15.65-8.8c.38-.65.59-1.38.59-2.14 0-1.3-.62-2.48-1.62-3.37l26.34-14.81h22.15Zm-7.02 18.18c0-2.77-2.25-5.02-5.02-5.02s-5.03 2.25-5.03 5.02 2.25 5.03 5.03 5.03 5.02-2.25 5.02-5.03Z" class="cls-5"/><path d="M171.19 166.91H140.67v-5.03h30.52v5.03z" class="cls-5"/><path d="M129.36 161.88h11.31v5.03h-11.31zM134.38 180.06c2.77 0 5.02 2.25 5.02 5.02s-2.25 5.03-5.02 5.03-5.03-2.25-5.03-5.03 2.25-5.02 5.03-5.02Z" class="cls-7"/><path d="m124.26 166.91-26.34 14.81c-1.14-1.02-2.77-1.65-4.59-1.65s-3.31.58-4.44 1.51l-26.1-14.67h61.47ZM129.36 166.91H98.83v-5.03h30.53v5.03zM114.6 196.02H72.47l15.35-8.63c1.03 1.62 3.11 2.72 5.51 2.72s4.62-1.18 5.62-2.88l15.65 8.8Z" class="cls-5"/><path d="M99.54 185.08c0 .76-.21 1.49-.59 2.14l-5.42-3.05 4.39-2.47c1 .89 1.62 2.07 1.62 3.37ZM93.53 184.18l5.42 3.05c-1 1.7-3.13 2.88-5.62 2.88s-4.48-1.1-5.51-2.72l5.71-3.21Z" class="cls-5"/><path d="M87.53 161.88h11.31v5.03H87.53z" class="cls-7"/><path d="M93.33 180.06c1.82 0 3.46.63 4.59 1.65l-4.39 2.47-4.64-2.61c1.13-.93 2.7-1.51 4.44-1.51Z" class="cls-5"/><path d="m93.53 184.18-5.71 3.21c-.44-.69-.69-1.48-.69-2.31 0-1.37.68-2.61 1.77-3.51l4.64 2.61Z" class="cls-5"/><path d="m62.8 166.91 26.1 14.67c-1.09.9-1.77 2.14-1.77 3.51 0 .83.25 1.62.69 2.31l-15.35 8.63H30.79l-15.65-8.8c.38-.65.59-1.38.59-2.14 0-1.3-.62-2.48-1.62-3.37l26.34-14.81h22.34Zm-8.53 18.18c0-2.77-2.25-5.02-5.02-5.02s-5.03 2.25-5.03 5.02 2.25 5.03 5.03 5.03 5.02-2.25 5.02-5.03Z" class="cls-5"/><path d="M87.53 166.91H57v-5.03h30.53v5.03z" class="cls-5"/><path d="M45.7 161.88h11.31v5.03H45.7zM49.25 180.06c2.77 0 5.02 2.25 5.02 5.02s-2.25 5.03-5.02 5.03-5.03-2.25-5.03-5.03 2.25-5.02 5.03-5.02Z" class="cls-7"/><path d="M45.7 166.91H15.17v-5.03H45.7v5.03zM30.79 196.02H.24v-6.52L4 187.39c1.03 1.62 3.12 2.72 5.51 2.72s4.62-1.18 5.62-2.88l15.65 8.8ZM15.73 185.08c0 .76-.21 1.49-.59 2.14l-5.42-3.05 4.39-2.47c1 .89 1.62 2.07 1.62 3.37Z" class="cls-5"/><path d="M3.87 161.88h11.31v5.03H3.87z" class="cls-7"/><path d="m9.72 184.18 5.42 3.05c-1 1.7-3.13 2.88-5.62 2.88s-4.48-1.1-5.51-2.72l5.71-3.21ZM9.52 180.06c1.82 0 3.46.63 4.59 1.65l-4.39 2.47-4.64-2.61c1.13-.93 2.7-1.51 4.44-1.51Z" class="cls-5"/><path d="m9.72 184.18-5.71 3.21c-.44-.69-.69-1.48-.69-2.31 0-1.37.68-2.61 1.77-3.51l4.64 2.61Z" class="cls-5"/><path d="m.24 178.85 4.84 2.72c-1.09.9-1.77 2.14-1.77 3.51 0 .83.25 1.62.69 2.31L.24 189.5v-10.65Z" class="cls-5"/><path d="M213.02 161.88H.24V95.66H270.15v66.22h-57.13z" style="fill:#d2d296;stroke-width:0"/><path d="M.24 166.91h40.21l-26.34 14.81c-1.14-1.02-2.77-1.65-4.59-1.65s-3.31.58-4.44 1.51l-4.84-2.72v-11.95Z" class="cls-5"/><path d="M270.15 196.02H.24M.24 89.9h269.91M.24 95.66h269.91M266.16 161.88h3.99M224.33 161.88h30.52M182.5 161.88h30.52M140.67 161.88h30.52M98.83 161.88h30.53M57 161.88h30.53M15.17 161.88H45.7M.24 161.88h3.63M266.16 166.91h3.99M224.33 166.91h30.52M182.5 166.91h30.52M140.67 166.91H171.19M98.83 166.91h30.53M57 166.91h30.53M15.17 166.91H45.7M.24 166.91h3.63M72.46 196.02l15.35-8.63 5.72-3.21 4.39-2.47 26.34-14.8" class="cls-11"/><path d="m114.6 196.02-15.65-8.79-5.42-3.05-4.64-2.61-26.09-14.66M139.4 185.08c0 2.78-2.25 5.03-5.02 5.03s-5.03-2.25-5.03-5.03 2.25-5.02 5.03-5.02 5.02 2.25 5.02 5.02ZM224.07 185.08c0 2.78-2.25 5.03-5.02 5.03s-5.03-2.25-5.03-5.03 2.25-5.02 5.03-5.02 5.02 2.25 5.02 5.02Z" class="cls-11"/><path d="M97.92 181.71c1 .89 1.62 2.07 1.62 3.37 0 .76-.21 1.49-.59 2.14-1 1.7-3.13 2.88-5.62 2.88s-4.48-1.1-5.51-2.72c-.44-.69-.69-1.48-.69-2.31 0-1.37.68-2.61 1.77-3.51 1.13-.93 2.7-1.51 4.44-1.51 1.82 0 3.46.63 4.59 1.65ZM.24 189.5l3.77-2.11 5.71-3.21 4.39-2.47 26.34-14.8" class="cls-11"/><path d="m30.79 196.02-15.65-8.79-5.42-3.05-4.64-2.61-4.84-2.72" class="cls-11"/><path d="M14.11 181.71c1 .89 1.62 2.07 1.62 3.37 0 .76-.21 1.49-.59 2.14-1 1.7-3.13 2.88-5.62 2.88s-4.48-1.1-5.51-2.72c-.44-.69-.69-1.48-.69-2.31 0-1.37.68-2.61 1.77-3.51 1.13-.93 2.7-1.51 4.44-1.51 1.82 0 3.46.63 4.59 1.65ZM156.08 196.02l15.35-8.63 5.72-3.21 4.39-2.47 26.34-14.8" class="cls-11"/><path d="m198.21 196.02-15.64-8.79-5.42-3.05-4.64-2.61-26.1-14.66" class="cls-11"/><path d="M181.54 181.71c1 .89 1.62 2.07 1.62 3.37 0 .76-.21 1.49-.59 2.14-1 1.7-3.13 2.88-5.62 2.88s-4.48-1.1-5.51-2.72c-.44-.69-.69-1.48-.69-2.31 0-1.37.68-2.61 1.77-3.51 1.13-.93 2.7-1.51 4.44-1.51 1.82 0 3.46.63 4.59 1.65ZM239.7 196.02l15.35-8.63 5.72-3.21 4.39-2.48 4.99-2.8" class="cls-11"/><path d="m270.15 189.46-3.97-2.23-5.41-3.05-4.64-2.61-26.1-14.66" class="cls-11"/><path d="M265.16 181.7c1 .89 1.62 2.08 1.62 3.38 0 .76-.21 1.49-.59 2.14-1 1.7-3.13 2.88-5.62 2.88s-4.48-1.1-5.51-2.72c-.44-.69-.69-1.48-.69-2.31 0-1.37.68-2.61 1.77-3.51 1.13-.93 2.7-1.51 4.44-1.51 1.82 0 3.46.63 4.59 1.64ZM54.27 185.08c0 2.78-2.25 5.03-5.02 5.03s-5.03-2.25-5.03-5.03 2.25-5.02 5.03-5.02 5.02 2.25 5.02 5.02ZM3.87 161.88h11.31v5.03H3.87zM45.7 161.88h11.31v5.03H45.7zM87.53 161.88h11.31v5.03H87.53zM129.36 161.88h11.31v5.03h-11.31zM171.19 161.88h11.31v5.03h-11.31zM213.02 161.88h11.31v5.03h-11.31zM254.85 161.88h11.31v5.03h-11.31z" class="cls-11"/></g><g id="_レイヤー_2" data-name="レイヤー 2" style="clip-path:url(#clippath)"><path d="M272.02 117.4v19.18l-6.38 3.57-1.51-3.03-4.62-9.27h-.01c-.53.19-17.62 6.01-34.48 10.48-16.84 4.47-23.79 1.91-24.02 1.83.69-1.12 1.33-2.32 1.92-3.58.39-.82.75-1.67 1.09-2.53.32-.8.62-1.62.89-2.43l35.72-7.54c.19.96 1.01 1.71 2.29 2.21h.01c5.52 2.14 19.57-.23 29.1-8.89Z" class="cls-9"/><path d="M272.02 113.1v4.3c-9.53 8.66-23.58 11.03-29.1 8.89.61-.23 24.41-9.28 29.1-13.19Z" class="cls-8"/><path d="M272.02 107.49v5.61c-4.69 3.91-28.49 12.96-29.1 13.19h-.01c-1.28-.5-2.1-1.25-2.29-2.21 0 0 26.65-10.59 31.4-16.59Z" class="cls-8"/><path d="M272.02 104.52v2.97c-4.75 6-31.4 16.59-31.4 16.59-.09-1.85-.12-3.52-.09-5.1.6-.23 23.8-8.95 31.49-14.46Z" class="cls-8"/><path d="M272.02 100.92v3.6c-7.69 5.51-30.89 14.23-31.49 14.46.1-6.44 1.05-11.19 2-19.32l.38.05s20.68-.21 29.11 1.21Z" class="cls-2"/><path d="M272.02 70.12v30.8c-8.43-1.42-29.11-1.21-29.11-1.21l-.38-.05c.12-1.11.25-2.29.38-3.54-.7.45-3.21 1.71-6.65 3.41-.04-.86-.21-4.78.01-8.44-2.35.83-7.03 3.35-12.33 6.49l-39.14.99s42.54-30.08 87.22-28.45Z" class="cls-1"/><path d="M272.02 55.12v15c-44.68-1.63-87.22 28.45-87.22 28.45-1.31-.86-2.71-1.83-4.17-2.96h-.01c-.14-.12-.29-.24-.44-.35-.31-1.06-1.1-3.09-2.17-5.65h.01s46-31.96 94-34.49Z" class="cls-1"/><path d="M272.02 43.97v11.15c-48 2.53-94 34.49-94 34.49h-.01c-.99-2.4-2.22-5.26-3.53-8.22 0 0 37.66-30.14 87.19-36.54 2.91-.38 5.87-.68 8.86-.88h1.49Z" class="cls-1"/><path d="m264.13 137.12 1.51 3.03s-9.71 5.38-14.05 6.23c0 0 .87-4.06 2.5-8.57l10.03-.69h.01Z" class="cls-9"/><path d="m259.51 127.85 4.62 9.27h-.01l-10.03.69c1.32-3.64 3.14-7.58 5.41-9.95h.01Z" class="cls-9"/><path d="M261.67 44.84c-49.53 6.41-87.19 36.55-87.19 36.55-1.14-2.6-2.33-5.28-3.44-7.8 0 0 7.31-8.94 29.61-19.11 9.56-4.35 21.88-8.94 37.57-13.14 2.08-.56 4.22-1.11 6.42-1.65 1.22-.3 2.46-.6 3.72-.9a404.007 404.007 0 0 1 9.7-2.14s2.64 3.84 3.61 8.19Z" class="cls-1"/><path d="M254.09 137.81c-1.63 4.51-2.5 8.57-2.5 8.57-4.34.85-26.57-8.05-26.57-8.05 16.86-4.47 33.95-10.29 34.48-10.47-2.27 2.37-4.09 6.31-5.41 9.95Z" class="cls-9"/><path d="M253.98 37.52c-1.91.42-3.79.84-5.62 1.27-20.31-24.33-57.91-10.74-58.71-10.44h-.01l-1.02-2.44c6.68-2.55 17.09-6.44 29.42-5.64 3.63.23 7.43.87 11.35 2.07 7.84 2.4 16.17 7.05 24.59 15.18Z" class="cls-8"/><path d="M248.36 38.79c-1.26.3-2.5.6-3.72.9-17.69-17.87-45.45-10.89-53.75-8.39l-1.24-2.95c.8-.3 38.4-13.89 58.71 10.44Z" class="cls-8"/><path d="M236.26 99.53c3.44-1.7 5.95-2.96 6.65-3.41-.13 1.25-.26 2.43-.38 3.54-.95 8.13-1.9 12.88-2 19.32-.03 1.58 0 3.25.09 5.1l-35.72 7.54c.13-.39.25-.77.36-1.15 1.06-3.45 1.68-6.91 1.71-9.79 0-.85-.04-1.65-.14-2.38-.15-1.08-.52-2.13-1.07-3.15h.01c6.01-3.7 21.46-11.16 30.49-15.62Z" class="cls-9"/><path d="M244.64 39.69c-2.2.54-4.34 1.09-6.42 1.65-16.17-15.33-37.54-8.29-45.37-5.38l-.53-1.26-1.43-3.4c8.3-2.5 36.06-9.48 53.75 8.39Z" class="cls-8"/><path d="M223.94 97.58c5.3-3.14 9.98-5.66 12.33-6.49-.22 3.66-.05 7.58-.01 8.44-9.03 4.46-24.48 11.92-30.49 15.62h-.01c-.69-1.31-1.67-2.58-2.84-3.8 5.14-3.88 13.67-9.42 21.02-13.77ZM229.39 22.33a49.806 49.806 0 0 0-11.35-2.06v-.11a37.48 37.48 0 0 0-3.1-3.7l.12-.11s5.42-5.19 8.45-3.59c5.04 2.68 5.88 9.57 5.88 9.57Z" class="cls-9"/><path d="m184.8 98.57 39.14-.99c-7.35 4.35-15.88 9.89-21.02 13.77-3.28-3.41-8.03-6.45-12.09-9.05-1.54-.99-3.63-2.16-6.03-3.73Z" class="cls-2"/><path d="M218.05 20.16v.11c-12.34-.8-22.75 3.09-29.43 5.64-3.58-1.15-8.96.34-8.96.34 1.27-.62 2.23-1.1 2.74-1.39 3.69-3.13 7.11-5.87 10.03-8.07 3.36-2.54 6.06-4.37 7.76-5.3 2.15-1.18 7.83-2.19 14.75 4.97a38.92 38.92 0 0 1 3.11 3.7Z" class="cls-9"/><path d="M192.85 35.96c7.83-2.91 29.2-9.95 45.37 5.38-15.69 4.2-28.01 8.79-37.57 13.14l-.12-.27-4.16-9.88-3.52-8.37ZM206.83 118.3c.1.73.14 1.53.14 2.38l-2.96-.05c-10.16-5.57-22.98-24.43-23.38-25.02 1.46 1.13 2.86 2.1 4.17 2.96 2.4 1.57 4.49 2.74 6.03 3.73 4.06 2.6 8.81 5.64 12.09 9.05 1.17 1.22 2.15 2.49 2.84 3.8.55 1.02.92 2.07 1.07 3.15Z" class="cls-2"/><path d="m204.01 120.63 2.96.05c-.03 2.88-.65 6.34-1.71 9.79-9.57-2.94-25.03-19.66-35.11-32.94-10.09-13.28-15.04-35.77-15.04-35.77 1.52.25 3.19.51 4.91.79 4.59 17.47 12.94 26.99 20.16 32.71.15.11.3.23.44.34h.01c.4.6 13.22 19.46 23.38 25.03Z" class="cls-2"/><path d="M205.26 130.47c-.11.38-.23.76-.36 1.15-.27.81-.57 1.63-.89 2.43-44.91-27.43-53.51-73.01-53.51-73.01 1.26.19 2.84.44 4.61.72 0 0 4.95 22.49 15.04 35.77 10.08 13.28 25.54 30 35.11 32.94Z" class="cls-8"/><path d="M204.01 134.05c-.34.86-.7 1.71-1.09 2.53-39.11-17.37-57.49-73.75-57.49-73.75.59-.8 1.24-1.56 1.91-2.28h.01l3.15.48s8.6 45.59 53.51 73.02Z" class="cls-8"/><path d="M201 140.16c-.42.69-.86 1.35-1.32 1.97-1.44-.09-2.86-.31-4.27-.64-30.4-7.15-53.26-67.79-53.26-67.79-.42-4.2 1.05-7.84 3.28-10.87 0 0 18.38 56.38 57.49 73.75-.59 1.26-1.23 2.46-1.92 3.58Z" class="cls-8"/><path d="m200.53 54.21.12.27c-22.3 10.17-29.61 19.11-29.61 19.11-1.57-3.53-3-6.73-3.96-8.91-.2-.46-.43-.96-.68-1.48 0 0 11.62-14.95 29.97-18.87l4.16 9.88Z" class="cls-1"/><path d="m192.85 35.96 3.52 8.37C178.02 48.25 166.4 63.2 166.4 63.2c-1.59-3.29-4.06-7.61-6.39-11.51 2.93-3.15 18.04-18.62 32.3-16.99l.53 1.26Z" class="cls-1"/><path d="m192.32 16.64.11.15c-2.92 2.2-6.34 4.94-10.03 8.07-1.02-4.76-9.7-16.44-9.7-16.44 9.7 1.79 19.62 8.22 19.62 8.22Z" class="cls-9"/><path d="m190.89 31.3 1.43 3.4c-14.26-1.63-29.37 13.84-32.3 16.99-.52-.88-1.04-1.74-1.54-2.55-2.53-4.17-4.58-7.35-4.58-7.35 2.88-4.5 18.88-12.15 25.77-15.54 0 0 5.38-1.49 8.96-.34l1.02 2.44h.01l1.24 2.95Z" class="cls-1"/><path d="M195.41 141.49c-4.67.49-8.8.36-12.26-.05-7.55-.89-11.97-3.11-11.97-3.11.23-.27.42-.53.58-.8-9.02-9.02-28.11-33.91-29.54-59.5-.08-1.44-.11-2.89-.07-4.33 0 0 22.86 60.64 53.26 67.79ZM182.4 24.86c-.51.29-1.47.77-2.74 1.39-6.89 3.39-22.89 11.04-25.77 15.54-1.18-.4-6.13-5.01-11.07-9.19l.13-.16c9.58-8.95 24.39-23.76 29.75-24.02 0 0 8.68 11.68 9.7 16.44Z" class="cls-9"/><path d="M178.01 89.61c1.07 2.56 1.86 4.59 2.17 5.65-7.22-5.72-15.57-15.24-20.16-32.71-1.72-.28-3.39-.54-4.91-.79l-4.61-.73-3.15-.48c5.13-5.41 12.16-8.3 12.16-8.3s.17-.2.5-.56c2.33 3.9 4.8 8.22 6.39 11.51.25.52.48 1.02.68 1.48.96 2.18 2.39 5.38 3.96 8.91 1.11 2.52 2.3 5.2 3.44 7.8 1.31 2.96 2.54 5.82 3.53 8.22ZM171.76 137.53c-.16.27-.35.53-.58.8-16.75-10.6-35.14-39.76-35.14-39.76h-.02c-.14-4.9-2.62-7.87-4.25-8.96-.29-.2-.65-.35-1.07-.47l.3-.93.09-.12 9.73-13.52c.3 1.34.71 2.55 1.26 3.47h.14c1.43 25.58 20.52 50.47 29.54 59.49Z" class="cls-2"/><path d="M171.18 138.33s4.42 2.22 11.97 3.11c-8.53 4.84-19.81 2.46-20.24 2.37.83-.4 1.7-.83 2.57-1.31 1.23-.67 2.44-1.41 3.5-2.18.87-.65 1.63-1.31 2.2-1.99Z" class="cls-9"/><path d="M171.18 138.33c-.57.68-1.33 1.34-2.2 1.99-12.65-4.88-33.78-35.8-33.78-35.8.12-.44.23-.88.33-1.31.4-1.7.54-3.25.49-4.64h.02s18.39 29.16 35.14 39.76Z" class="cls-8"/><path d="M168.98 140.32c-1.06.77-2.27 1.51-3.5 2.18-9.06-3.32-31.77-33.24-31.77-33.24a63.97 63.97 0 0 0 1.49-4.74s21.13 30.92 33.78 35.8Z" class="cls-8"/><path d="M165.48 142.5c-.87.48-1.74.91-2.57 1.31-2.65 1.26-4.84 2.06-4.84 2.06l-2.19-2.38-24.87-26.98-.16-.07c1.03-2.34 2.02-4.78 2.87-7.18 0 0 22.71 29.92 31.77 33.24Z" class="cls-8"/><path d="M158.47 49.14c.5.81 1.02 1.67 1.54 2.55-.33.36-.5.56-.5.56s-7.03 2.89-12.16 8.3h-.01c-.67.72-1.32 1.48-1.91 2.28-2.23 3.03-3.7 6.67-3.28 10.87-.04 1.44-.01 2.89.07 4.33h-.14c-.55-.91-.96-2.12-1.26-3.46-.43-1.96-.63-4.21-.71-6.24-.12-3.36.08-6.14.08-6.14s-.26-.02-.61-.08h1.03c.68-4.04 17.28-12.75 17.28-12.75l.58-.22Z" class="cls-1"/><path d="m158.47 49.14-.58.22s-16.6 8.71-17.28 12.74h-1.03c-.57-.08-1.38-.3-1.6-.72-.36-.68-5.04-5.09-6.24-5.11-.88-.01-1.4.04-2.07.61 2.19-4.5 10.1-16.34 11.4-17.21.75.4 1.38.72 1.84.92 3.49 1.54 9.71 2.64 10.98 1.2 0 0 2.05 3.18 4.58 7.35Z" class="cls-2"/><path d="m155.87 143.49-.19.17c-11.41 3.74-32.43-12.04-32.43-12.04s.53-.92 1.37-2.48c.51-.93 1.12-2.09 1.8-3.41.55-1.08 1.15-2.27 1.77-3.54.87-1.79 1.78-3.73 2.65-5.75l.16.07 24.87 26.98Z" class="cls-9"/><path d="M153.89 41.79c-1.27 1.44-7.49.34-10.98-1.2-.46-.2-1.09-.52-1.84-.92-.79-.43-1.72-.95-2.74-1.55-5.27-3.1-12.82-8.15-15.29-11.31-.4-.51-8.26-10.2-10.18-13.84-5.23.79-8.38-.18-10.06-1.09-1.51 1-3.12 2.04-4.54 2.92-1.13 1.62-2.57 2.98-4.12 5.91v-.05c-.01-.04-.01-.08-.01-.11-.01-.94.19-3.47.11-3.45.43-3.14.17-6.46 5.45-8.85 5.28-2.38 10.04-2.38 13.79-.51 3.74 1.87 16.37 15.58 22.31 19.41 2.01 1.29 4.52 3.32 7.04 5.45 4.94 4.18 9.89 8.79 11.07 9.19Z" class="cls-7"/><path d="m140.82 74.57-9.73 13.52-1.43-1.03 1.27-2.79 7.4-16.32c.66.07 1.27.2 1.74.38h.04c.08 2.03.28 4.28.71 6.24Z" class="cls-2"/><path d="M127.95 60.06c-.19-.87.26-1.58.93-2.37a6 6 0 0 1 .78-.8h.01c.67-.58 1.19-.63 2.07-.62 1.2.02 5.88 4.43 6.24 5.11.22.42 1.03.64 1.6.73.35.06.61.08.61.08s-.2 2.78-.08 6.14h-.04c-.47-.18-1.08-.31-1.74-.38-1.7-.19-3.75-.05-4.59.25-.6.22-1.88.02-3.1-.24-1.15-.26-2.24-.57-2.62-.66-.77-.19-3.04-1.26-3.7-1.15-.24.04-.42.01-.54-.07-.22-.15-.23-.47.07-.87.24-.33 1.14-.41 2.06-.38.82.02 1.65.13 2.06.24.86.24 1.79-.94 1.51-1.27s-1.68-1.25-1.68-1.25c.15-.18.23-.45.17-.79-.15-.85-.16-1.49-.09-1.68l.07-.02Z" class="cls-3"/><path d="M138.33 38.12c1.02.6 1.95 1.12 2.74 1.55-1.3.87-9.21 12.71-11.4 17.21h-.01s-.25-.62-.7-.67c-.44-.05-1.33-.16-1.68.47h-.01l-.99.18s-.47.3-1.07.71c3.23-4.92 9.66-16.3 13.12-19.45Z" class="cls-1"/><path d="m138.33 67.95-7.4 16.31c-.98-2.62-.32-15.8-.29-16.3 1.22.26 2.5.46 3.1.24.84-.3 2.89-.44 4.59-.25ZM84.04 99.34c.38-.04.76-.08 1.13-.13 2.14-.28 4.13-.68 5.7-1.25 4.73-1.73 20.2-6.86 30.92-8.58 1.48-.24 2.87-.41 4.12-.5 1.97-.14 3.62-.07 4.79.26.42.12.78.27 1.07.47 1.63 1.09 4.11 4.06 4.25 8.96.05 1.39-.09 2.94-.49 4.64-.1.43-.21.87-.33 1.31a63.97 63.97 0 0 1-1.49 4.74c-.85 2.4-1.84 4.84-2.87 7.18-.87 2.02-1.78 3.96-2.65 5.75-11.96-2.79-17.92-14.07-17.92-14.07l-2.01 1.37-3.88 2.64-4.06 2.76c-5.63.55-14.94-2.17-20.56-3.45-5.61-1.27-10.72-5.48-16.34-8.23-5.61-2.74-12.56-4.64-12.56-4.64.38-.21.77-.41 1.15-.61 1.67-.9 3.32-1.77 4.88-2.57 2.37-1.22 4.51-2.28 6.18-3.03 1.35-.6 2.4-1.01 2.99-1.13.37-.08.76-.12 1.18-.13 1.63-.07 3.65.27 5.79.95 3.82 1.18 8.01 3.43 10.9 6.33l.11.96Z" class="cls-2"/><path d="M116.93 43.97c-.65.17-1.36.28-2.12.33-1.22.08-2.23.03-3.11-.12a7.499 7.499 0 0 1-2.77-1.08c-1.33-.83-2.57-2.07-4.34-3.72a29.007 29.007 0 0 1-3.72-4.22c-1.53-2.1-2.53-4.02-3.28-5.37-.59-1.08-3.23-7.72-3.45-9.08 1.55-2.93 2.99-4.29 4.12-5.91 1.42-.88 3.03-1.92 4.54-2.92 1.68.91 4.83 1.88 10.06 1.09 1.92 3.64 9.78 13.33 10.18 13.84 2.47 3.16 10.02 8.21 15.29 11.31-3.46 3.15-9.89 14.53-13.12 19.45-.58.4-1.29.9-1.82 1.34s-.17.05-.37.11c-.89-5.99-6.08-15.05-6.08-15.05Zm-5.25-7.29c-.85-.06-2.26 0-2.26 0l-.8.81h-.6l-.59.68c2.17 1.41 3.6.96 4.25-1.49Zm-6.39-19.6c.75-.38 1.21-1.01 1.01-1.41s-.97-.42-1.73-.04-1.21 1-1.01 1.4.97.42 1.73.05Zm-7.51 4.39c.65-.53.94-1.25.66-1.59-.29-.35-1.05-.19-1.7.35s-.94 1.25-.66 1.6c.29.34 1.05.18 1.7-.36Z" class="cls-3"/><path d="m131.09 88.09-.09.12-.3.93c-1.17-.33-2.82-.4-4.79-.26v-.03c-1.52-3.63-4.99-7.82-8.98-11.82-.75-4.18 3.55-12.2 3.55-12.2l.56-.26.4.87 2.34.64c.12.08.3.11.54.07.66-.11 2.93.96 3.7 1.15.38.09 1.47.4 2.62.65-.03.51-.69 13.69.29 16.31s-1.27 2.8-1.27 2.8l1.43 1.03Z" class="cls-2"/><path d="M128.96 56.21c.45.05.67.68.7.68a6 6 0 0 0-.78.8c-.67.79-1.12 1.5-.93 2.37l-.07.02c-.07.19-.06.83.09 1.68.06.34-.02.61-.17.79-.22.28-.59.36-.87.2-.34-.21-.73-1.09-.96-1.73-.08-.23-.14-.42-.17-.55-.07-.29.33-1.28.73-2.19h.01c.27-.62.55-1.2.68-1.5.02-.04.03-.07.06-.1.35-.63 1.24-.52 1.68-.47Z" class="cls-3"/><path d="M127.28 56.68s-.04.06-.06.1c-.13.3-.41.88-.68 1.49h-.01c-.11.09-1 .72-1.3 1.05-.21.22-.77.64-1.45 1h-.01c-.15.09-.31.16-.47.23-.23.11-.47.2-.71.27-.15.04-.27.06-.36.06-.62 0 0-.9.81-1.67.1-.09.21-.19.34-.3.53-.44 1.24-.94 1.82-1.34.6-.41 1.07-.71 1.07-.71l.99-.18h.01Z" class="cls-3"/><path d="m126.93 62.75-1.02 2.08c-.92-.03-1.82.05-2.06.38-.3.4-.29.72-.07.87l-2.34-.64c-.05-.75 1.69-3.95 2.21-4.87.66.04 2.02.16 2.26.47l.06-.02c.23.64.62 1.52.96 1.73Z" class="cls-1"/><path d="M128.19 122.19c-.62 1.27-1.22 2.46-1.77 3.54-16.41-6.66-18.16-16.24-18.16-16.24l2.01-1.37s5.96 11.28 17.92 14.07Z" class="cls-8"/><path d="M125.23 59.32c.3-.33 1.19-.96 1.3-1.04-.4.91-.8 1.9-.73 2.19.03.13.09.32.17.55l-.06.02c-.24-.31-1.6-.43-2.26-.47.06-.13.11-.21.12-.24h.01c.68-.37 1.24-.79 1.45-1.01Z" class="cls-1"/><path d="M125.91 88.85v.03c-1.25.09-2.64.26-4.12.5-7.05-8.44-25.96-22.62-25.96-22.62.86-1.86 1.72-3.67 2.54-5.38 0 0 5.7 4.08 11.99 9.54 2.19 1.9 4.45 3.98 6.57 6.1 3.99 4.01 7.46 8.2 8.98 11.83Z" class="cls-2"/><path d="M126.42 125.73c-.68 1.32-1.29 2.48-1.8 3.41-12.2-4.27-20.24-17.01-20.24-17.01l3.88-2.64s1.75 9.58 18.16 16.24Z" class="cls-8"/><path d="M123.77 60.33s-.06.11-.12.24c-.21-.02-.35-.02-.35-.02.16-.07.32-.14.47-.22Z" class="cls-1"/><path d="M123.3 60.55s.14 0 .35.02c-.52.92-2.26 4.12-2.21 4.87l-.4-.87-1.53-3.29c.34.01 1.41-.13 1.63-.16l.22-.03.87-.21c.09 0 .21-.02.36-.06.24-.07.48-.16.71-.27Z" class="cls-1"/><path d="M124.62 129.14c-.84 1.56-1.37 2.48-1.37 2.48h-3.02c-.57 0-1.16-.07-1.77-.21-6.58-1.47-15.46-10.92-18.14-16.52l4.06-2.76s8.04 12.74 20.24 17.01Z" class="cls-8"/><path d="M123.38 58.91c-.13.11-.24.21-.34.3-.01-.06-.02-.12-.03-.19.2-.06.33-.1.37-.11Z" class="cls-3"/><path d="M123.01 59.02c.01.07.02.13.03.19-.81.77-1.43 1.67-.81 1.67l-.87.21-.22.03c-.22.03-1.29.17-1.63.16-.33-.01-.8-.57-.2-.96.47-.31 2.78-1.02 3.7-1.3Z" class="cls-3"/><path d="M123.01 59.02c-.92.28-3.23.99-3.7 1.3-.55-4.02-7.63-15.99-7.63-15.99l.02-.15c.88.15 1.89.2 3.11.12.76-.05 1.47-.16 2.12-.33 0 0 5.19 9.06 6.08 15.05Z" class="cls-1"/><path d="m121.04 64.57-.56.26s-4.3 8.02-3.55 12.19c-2.12-2.12-4.38-4.2-6.57-6.09.09-11.3-5.98-21.57-5.98-21.57.37-.72.58-1.11.58-1.11 1.87-1.78 3.91-4.59 3.91-4.59l.06-.56c.84.53 1.71.89 2.77 1.08l-.02.15s7.08 11.97 7.63 15.99c-.6.39-.13.95.2.96l1.53 3.29Z" class="cls-2"/><path d="M118.46 131.41c-1.1.16-3.17.02-5.7-.28-1.39-.16-2.92-.37-4.5-.61-.95-.14-1.92-.3-2.88-.45-1.58-.26-3.15-.53-4.66-.8-5.39-.96-9.85-1.87-9.85-1.87s1.33-3.23 3.46-6.48c.76-1.17 1.62-2.33 2.56-3.35 1.06-1.14 2.21-2.1 3.43-2.68 2.68 5.6 11.56 15.05 18.14 16.52Z" class="cls-9"/><path d="M109.42 36.68s1.41-.06 2.26 0c-.65 2.45-2.08 2.9-4.25 1.49l.59-.68h.6l.8-.81Z" style="fill:#c1272d;stroke-width:0"/><path d="M104.38 49.36s6.07 10.27 5.98 21.56c-6.29-5.46-11.99-9.54-11.99-9.54 2.67-5.55 4.97-10.03 6.01-12.02Z" class="cls-2"/><path d="m108.93 43.1-.06.56s-2.04 2.81-3.91 4.59c-.5-4-4.09-13.09-4.09-13.09.99 1.37 2.21 2.81 3.72 4.22 1.77 1.65 3.01 2.89 4.34 3.72Z" class="cls-7"/><path d="M108.26 130.52c1.58.24 3.11.45 4.5.61-.53 3.74-10.21 18.66-10.21 18.66l-5.71-3.41c5.47-5.79 10.2-11.35 11.42-15.86Z" class="cls-1"/><path d="M95.83 66.76s18.91 14.18 25.96 22.62c-10.72 1.72-26.19 6.85-30.92 8.58-1.57.57-3.56.97-5.7 1.25l-.04-.28c-.62-5.99 5.21-20.28 10.7-32.17Z" class="cls-2"/><path d="M106.3 15.67c.2.4-.26 1.03-1.01 1.41-.76.37-1.53.35-1.73-.05s.25-1.02 1.01-1.4 1.53-.36 1.73.04Z" class="cls-7"/><path d="M104.96 48.25s-.21.39-.58 1.11a427.333 427.333 0 0 0-8.55 17.4c-5.49 11.89-11.32 26.18-10.7 32.17l.04.28c-.37.05-.75.09-1.13.13l-.11-.96c-2.89-2.9-7.08-5.15-10.9-6.33l.1-.32c-2.69-10.12-8.32-15.89-8.32-15.89 4.43-4.03 9.02-8.09 11.98-10.4 7.31-5.71 28.17-17.19 28.17-17.19Z" class="cls-2"/><path d="M100.72 129.27c1.51.27 3.08.54 4.66.8-3.16 3.6-18.55 16.31-18.55 16.31s-2.56-1.79-4.68-3.91c1.93-.63 5.18-2.78 8.42-5.17 5.08-3.72 10.15-8.03 10.15-8.03Z" class="cls-1"/><path d="M79.76 111.44c5.62 1.28 14.93 4 20.56 3.45-1.22.58-2.37 1.54-3.43 2.68l-.05-.04c-5.63.55-14.94-2.17-20.55-3.44-5.62-1.28-10.73-5.49-16.35-8.24-5.1-2.49-12.25-4.53-13.51-4.87 1.44-.79 2.94-1.61 4.43-2.41 0 0 6.95 1.9 12.56 4.64 5.62 2.75 10.73 6.96 16.34 8.23Z" class="cls-8"/><path d="M98.44 19.88c.28.34-.01 1.06-.66 1.59-.65.54-1.41.7-1.7.36-.28-.35.01-1.06.66-1.6s1.41-.7 1.7-.35Z" class="cls-7"/><path d="m96.84 117.53.05.04c-.94 1.02-1.8 2.18-2.56 3.35-5.63.55-15.23-2.36-20.85-3.63-5.62-1.28-10.72-5.49-16.34-8.24-5.62-2.74-15.18-5.61-15.18-5.61 1.38-.77 2.89-1.6 4.47-2.46 1.26.34 8.41 2.38 13.51 4.87 5.62 2.75 10.73 6.96 16.35 8.24 5.61 1.27 14.92 3.99 20.55 3.44Z" class="cls-8"/><path d="M100.72 129.27s-5.07 4.31-10.15 8.03l-.08-.11s-1.28-1.19-8.6-.61-9.1-.41-10.17-2.03l-7.4-8.55s-6-.13-12.36-.9c-6.37-.76-17.05-17.7-17.05-17.7 9.75 2.26 13.32 2.64 19.32 7.49s12.51 9.45 16.98 10.09c4.47.63 19.66 2.42 19.66 2.42s4.46.91 9.85 1.87Z" class="cls-9"/><path d="M94.33 120.92c-2.13 3.25-3.46 6.48-3.46 6.48s-15.19-1.79-19.66-2.42c-4.47-.64-10.98-5.24-16.98-10.09s-9.57-5.23-19.32-7.49c0 0 2.95-1.68 7.05-3.96 0 0 9.56 2.87 15.18 5.61 5.62 2.75 10.72 6.96 16.34 8.24 5.62 1.27 15.22 4.18 20.85 3.63ZM73.13 91.73l-.1.32c-2.14-.68-4.16-1.02-5.79-.95-1.12-3.71-6.25-11.75-6.25-11.75 1.23-1.14 2.52-2.32 3.82-3.51 0 0 5.63 5.77 8.32 15.89Z" class="cls-8"/><path d="M67.24 91.1c-.42.01-.81.05-1.18.13-.59.12-1.64.53-2.99 1.13-.96-3.3-5.87-9.5-5.87-9.5 1.15-1.07 2.43-2.26 3.79-3.51 0 0 5.13 8.04 6.25 11.75Z" class="cls-8"/><path d="M57.2 82.86s4.91 6.2 5.87 9.5c-1.67.75-3.81 1.81-6.18 3.03 0-1.02-2.06-2.97-4.79-7.73 0 0 2.08-1.98 5.1-4.8Z" class="cls-8"/><path d="M52.1 87.66c2.73 4.76 4.79 6.71 4.79 7.73-1.56.8-3.21 1.67-4.88 2.56-.17-2.56.09-10.29.09-10.29Z" class="cls-9"/><path d="M100.87 35.16s3.59 9.09 4.09 13.09c1.87-1.78 3.91-4.59 3.91-4.59M94.13 20.66v.06s0 0 0 0c1.55-2.93 2.99-4.29 4.12-5.91 1.42-.88 3.03-1.92 4.54-2.92 1.68.91 4.83 1.88 10.06 1.09 1.92 3.64 9.78 13.33 10.18 13.84 2.47 3.16 10.02 8.21 15.29 11.31 1.02.6 1.95 1.12 2.74 1.55.75.4 1.38.72 1.84.92 3.49 1.54 9.71 2.64 10.98 1.2-1.18-.4-6.13-5.01-11.07-9.19-2.52-2.13-5.03-4.16-7.04-5.45-5.94-3.83-18.57-17.54-22.31-19.41-3.75-1.87-8.51-1.87-13.79.51-5.28 2.39-5.02 5.71-5.45 8.85.08-.02-.12 2.51-.11 3.45" class="cls-13"/><path d="M94.12 20.55s0 .07.01.11v.05c.22 1.36 2.86 8 3.45 9.08.75 1.35 1.75 3.27 3.28 5.37.99 1.37 2.21 2.81 3.72 4.22 1.77 1.65 3.01 2.89 4.34 3.72.84.53 1.71.89 2.77 1.08.88.15 1.89.2 3.11.12.76-.05 1.47-.16 2.12-.33 3.6-.86 5.47-3.06 5.47-3.06M106 25.91s2.3-2.1 2.87-2.1" class="cls-13"/><path d="M100.57 28.59s-1.69.08-2.2.79M102.15 28.17s2.3 6.57 2.72 6.99c.43.41 3.39-1.29 3.39-1.29M111.68 36.68c-.85-.06-2.26 0-2.26 0l-.8.81h-.6l-.59.68c2.17 1.41 3.6.96 4.25-1.49Z" class="cls-13"/><path d="m108.65 38.26 1.62-.7M106.3 15.67c.2.4-.26 1.03-1.01 1.41-.76.37-1.53.35-1.73-.05s.25-1.02 1.01-1.4 1.53-.36 1.73.04ZM96.08 21.83c.29.34 1.05.18 1.7-.36.65-.53.94-1.25.66-1.59-.29-.35-1.05-.19-1.7.35s-.94 1.25-.66 1.6Z" class="cls-12"/><path d="M129.66 56.89a6 6 0 0 0-.78.8c-.67.79-1.12 1.5-.93 2.37.12.59.54 1.26 1.37 2.08.13.17.8-.08.61-.85l-.5-1.47s1.73-.84 1.76-1.03c.7 1.15 3.4 3.18 3.92 3.22M140.19 62.19s-.26-.02-.61-.08c-.57-.09-1.38-.31-1.6-.73-.36-.68-5.04-5.09-6.24-5.11-.88-.01-1.4.04-2.07.61" class="cls-13"/><path d="M126.54 58.27c.27-.61.55-1.19.68-1.49.02-.04.03-.07.06-.1.35-.63 1.24-.52 1.68-.47.45.05.67.68.7.68h.01c2.19-4.51 10.1-16.35 11.4-17.22M127.88 60.08c-.07.19-.06.83.09 1.68.06.34-.02.61-.17.79-.22.28-.59.36-.87.2-.34-.21-.73-1.09-.96-1.73-.08-.23-.14-.42-.17-.55-.07-.29.33-1.28.73-2.19" class="cls-13"/><path d="M123.78 60.32c.68-.36 1.24-.78 1.45-1 .3-.33 1.19-.96 1.3-1.04h.01M123.38 58.91c-.13.11-.24.21-.34.3-.81.77-1.43 1.67-.81 1.67.09 0 .21-.02.36-.06.24-.07.48-.16.71-.27.16-.07.32-.14.47-.22M127.27 56.68l-.99.18s-.47.3-1.07.71c-.58.4-1.29.9-1.82 1.34" class="cls-13"/><path d="M123.39 58.91h0l-.37.11c-.92.28-3.23.99-3.7 1.3-.6.39-.13.95.2.96.34.01 1.41-.13 1.63-.16l.22-.03.87-.21M123.3 60.55s.14 0 .35.02c.66.04 2.02.16 2.26.47M130.64 67.96c1.22.26 2.5.46 3.1.24.84-.3 2.89-.44 4.59-.25.66.07 1.27.2 1.74.38M127.8 62.55s1.4.92 1.68 1.25-.65 1.51-1.51 1.27c-.41-.11-1.24-.22-2.06-.24-.92-.03-1.82.05-2.06.38-.3.4-.29.72-.07.87.12.08.3.11.54.07.66-.11 2.93.96 3.7 1.15.38.09 1.47.4 2.62.65M56.89 95.39c0-1.02-2.06-2.97-4.79-7.73 0 0 2.08-1.98 5.1-4.8 1.15-1.07 2.43-2.26 3.79-3.51 1.23-1.14 2.52-2.32 3.82-3.51 4.43-4.03 9.02-8.09 11.98-10.4 7.31-5.71 28.17-17.19 28.17-17.19s-.21.39-.58 1.11a427.333 427.333 0 0 0-8.55 17.4c-5.49 11.89-11.32 26.18-10.7 32.17M52.1 87.66s-.26 7.73-.09 10.29" class="cls-13"/><path d="M83.93 98.38c-2.89-2.9-7.08-5.15-10.9-6.33-2.14-.68-4.16-1.02-5.79-.95-.42.01-.81.05-1.18.13-.59.12-1.64.53-2.99 1.13-1.67.75-3.81 1.81-6.18 3.03-1.56.8-3.21 1.67-4.88 2.56h0c-.38.21-.77.41-1.15.62-1.49.8-2.99 1.62-4.43 2.41-1.58.86-3.09 1.69-4.47 2.46-4.1 2.28-7.05 3.96-7.05 3.96s10.68 16.94 17.05 17.7c6.36.77 12.36.9 12.36.9l7.4 8.55c1.07 1.62 2.85 2.61 10.17 2.03s8.6.61 8.6.61" class="cls-13"/><path d="M34.91 107.4c9.75 2.26 13.32 2.64 19.32 7.49s12.51 9.45 16.98 10.09c4.47.63 19.66 2.42 19.66 2.42M118.46 131.42c-1.1.15-3.17.01-5.7-.29-1.39-.16-2.92-.37-4.5-.61-.95-.14-1.92-.3-2.88-.45-1.58-.26-3.15-.53-4.66-.8-5.39-.96-9.85-1.87-9.85-1.87s1.33-3.23 3.46-6.48c.76-1.17 1.62-2.33 2.56-3.35 1.06-1.14 2.21-2.1 3.43-2.68 2.68 5.6 11.56 15.05 18.14 16.52.61.14 1.2.21 1.77.2h3.02s21.02 15.79 32.43 12.05M180.62 95.6c-.14-.11-.29-.23-.44-.34-7.22-5.72-15.57-15.24-20.16-32.71-1.72-.28-3.39-.54-4.91-.79l-4.61-.73-3.15-.48M162.91 143.81c.83-.4 1.7-.83 2.57-1.31 1.23-.67 2.44-1.41 3.5-2.18.87-.65 1.63-1.31 2.2-1.99.23-.27.42-.53.58-.8-9.02-9.02-28.11-33.91-29.54-59.5-.08-1.44-.11-2.89-.07-4.33 0 0 22.86 60.64 53.26 67.79 1.41.33 2.83.55 4.27.64.46-.62.9-1.28 1.32-1.97.69-1.12 1.33-2.32 1.92-3.58.39-.82.75-1.67 1.09-2.53.32-.8.62-1.62.89-2.43.13-.39.25-.77.36-1.15 1.06-3.45 1.68-6.91 1.71-9.79 0-.85-.04-1.65-.14-2.38-.15-1.08-.52-2.13-1.07-3.15-.69-1.31-1.67-2.58-2.84-3.8-3.28-3.41-8.03-6.45-12.09-9.05-1.54-.99-3.63-2.16-6.03-3.73-1.31-.86-2.71-1.83-4.17-2.96M131 116.51l24.87 26.98 2.19 2.38s2.19-.8 4.84-2.06" class="cls-13"/><path d="M159.51 52.25s-7.03 2.89-12.16 8.3h-.01c-.67.72-1.32 1.48-1.91 2.28-2.23 3.03-3.7 6.67-3.28 10.87M157.89 49.36s-16.6 8.71-17.28 12.74M140.19 62.19s-.2 2.78-.08 6.14c.08 2.03.28 4.28.71 6.24.3 1.34.71 2.55 1.26 3.47M155.11 61.76s4.95 22.49 15.04 35.77c10.08 13.28 25.54 30 35.11 32.94" class="cls-13"/><path d="M150.5 61.04s8.6 45.58 53.51 73.01" class="cls-13"/><path d="M145.43 62.83s18.38 56.38 57.49 73.75M153.89 41.79s2.05 3.18 4.58 7.35c.5.81 1.02 1.67 1.54 2.55 2.33 3.9 4.8 8.22 6.39 11.51.25.52.48 1.02.68 1.48.96 2.18 2.39 5.38 3.96 8.91 1.11 2.52 2.3 5.2 3.44 7.8 1.31 2.96 2.54 5.82 3.53 8.22 1.07 2.56 1.86 4.59 2.17 5.65M130.93 84.26l7.4-16.31M129.66 87.06l1.27-2.79M131 88.21l.09-.12 9.73-13.52M95.83 66.76s18.91 14.18 25.96 22.62c.07.08.13.16.19.23M116.93 77.03c3.99 4 7.46 8.19 8.98 11.82M110.36 70.93c2.19 1.89 4.45 3.97 6.57 6.09M98.37 61.38s5.7 4.08 11.99 9.54M111.68 44.33s7.08 11.97 7.63 15.99M116.93 43.97s5.19 9.06 6.08 15.05c.01.07.02.13.03.19M125.21 57.57c3.23-4.92 9.66-16.3 13.12-19.45M134.65 58.12s4.29-7.19 6.42-7.82M130.64 67.95h0c-.03.51-.69 13.69.29 16.31h0M119.51 61.28l1.53 3.29.4.87" class="cls-13"/><path d="M123.78 60.32h-.01s-.06.12-.12.25c-.52.92-2.26 4.12-2.21 4.87l2.34.64M126.93 62.75l-1.02 2.08M120.48 64.83s-4.3 8.02-3.55 12.19h0M104.38 49.36s6.07 10.27 5.98 21.56h0M111.04 83.61l-10.17-7.5s-3.48 8.91-3.61 9.16c6.89-.25 14.16 1.15 17.61 4.34M69.42 99.71s7.78.38 14.62-.37c.38-.04.76-.08 1.13-.13 2.14-.28 4.13-.68 5.7-1.25 4.73-1.73 20.2-6.86 30.92-8.58 1.48-.24 2.87-.41 4.12-.5 1.97-.14 3.62-.07 4.79.26.42.12.78.27 1.07.47 1.63 1.09 4.11 4.06 4.25 8.96.05 1.39-.09 2.94-.49 4.64-.1.43-.21.87-.33 1.31a63.97 63.97 0 0 1-1.49 4.74c-.85 2.4-1.84 4.84-2.87 7.18-.87 2.02-1.78 3.96-2.65 5.75-.62 1.27-1.22 2.46-1.77 3.54-.68 1.32-1.29 2.48-1.8 3.41-.84 1.56-1.37 2.48-1.37 2.48" class="cls-13"/><path d="M110.27 108.12s5.96 11.28 17.92 14.07M104.38 112.13s8.04 12.74 20.24 17.01M108.26 109.49s1.75 9.58 18.16 16.24" class="cls-13"/><path d="m100.32 114.89 4.06-2.76 3.88-2.64 2.01-1.37 14.94-10.16" class="cls-13"/><path d="M50.86 98.57s6.95 1.9 12.56 4.64c5.62 2.75 10.73 6.96 16.34 8.23 5.62 1.28 14.93 4 20.56 3.45M41.96 103.44s9.56 2.87 15.18 5.61c5.62 2.75 10.72 6.96 16.34 8.24 5.62 1.27 15.22 4.18 20.85 3.63M46.24 100.92s.07.02.19.06c1.26.34 8.41 2.38 13.51 4.87 5.62 2.75 10.73 6.96 16.35 8.24 5.61 1.27 14.92 3.99 20.55 3.44M100.72 129.27s-5.07 4.31-10.15 8.03c-3.24 2.39-6.49 4.54-8.42 5.17 2.12 2.12 4.68 3.91 4.68 3.91s15.39-12.71 18.55-16.31M108.26 130.52c-1.22 4.51-5.95 10.07-11.42 15.86l5.71 3.41s9.68-14.92 10.21-18.66M133.71 109.26s22.71 29.92 31.77 33.24M136.04 98.57s18.39 29.16 35.14 39.76c0 0 4.42 2.22 11.97 3.11 3.46.41 7.59.54 12.26.05M135.2 104.52s21.13 30.92 33.78 35.8M142.95 32.44c9.58-8.95 24.39-23.76 29.75-24.02 9.7 1.79 19.62 8.22 19.62 8.22" class="cls-13"/><path d="M172.7 8.42s8.68 11.68 9.7 16.44c3.69-3.13 7.11-5.87 10.03-8.07 3.36-2.54 6.06-4.37 7.76-5.3 2.15-1.18 7.83-2.19 14.75 4.97a38.92 38.92 0 0 1 3.11 3.7M215.06 16.35s5.42-5.19 8.45-3.59c5.04 2.68 5.88 9.57 5.88 9.57" class="cls-13"/><path d="m189.64 28.35-1.02-2.44c6.68-2.55 17.09-6.44 29.42-5.64 3.63.23 7.43.87 11.35 2.07 7.84 2.4 16.17 7.05 24.59 15.18" class="cls-13"/><path d="m200.53 54.21-4.16-9.88-3.52-8.37-.53-1.26-1.43-3.4-1.24-2.95M171.04 73.59s7.31-8.94 29.61-19.11c9.56-4.35 21.88-8.94 37.57-13.14 2.08-.56 4.22-1.11 6.42-1.65 1.22-.3 2.46-.6 3.72-.9a404.007 404.007 0 0 1 9.7-2.14s2.64 3.84 3.61 8.19" class="cls-13"/><path d="M192.84 35.96h.01c7.83-2.91 29.2-9.95 45.37 5.38" class="cls-13"/><path d="M189.64 28.35h.01c.8-.3 38.4-13.89 58.71 10.44" class="cls-13"/><path d="M190.88 31.3h0c8.3-2.5 36.06-9.48 53.75 8.39M178.02 89.61s46-31.96 94-34.49M272.02 70.12c-44.68-1.63-87.22 28.45-87.22 28.45l39.14-.99 1.08-.03M242.91 99.71s20.68-.21 29.11 1.21" class="cls-13"/><path d="M202.92 111.35c5.14-3.88 13.67-9.42 21.02-13.77 5.3-3.14 9.98-5.66 12.33-6.49-.22 3.66-.05 7.58-.01 8.44.01.11.01.17.01.17M242.92 126.29c5.52 2.14 19.57-.23 29.1-8.89" class="cls-13"/><path d="M205.77 115.15c6.01-3.7 21.46-11.16 30.49-15.62 3.44-1.7 5.95-2.96 6.65-3.41-.13 1.25-.26 2.43-.38 3.54-.95 8.13-1.9 12.88-2 19.32-.03 1.58 0 3.25.09 5.1.19.96 1.01 1.71 2.29 2.21" class="cls-13"/><path d="m204.9 131.62 35.72-7.54s26.65-10.59 31.4-16.59" class="cls-13"/><path d="m259.51 127.85 4.62 9.27 1.51 3.03 6.38-3.57V43.97h-1.49c-2.99.2-5.95.5-8.86.88-49.53 6.4-87.19 36.54-87.19 36.54" class="cls-13"/><path d="M200.99 140.15h0c.23.09 7.18 2.65 24.02-1.82 16.86-4.47 33.95-10.29 34.48-10.47M225.02 138.33s22.23 8.9 26.57 8.05 14.05-6.23 14.05-6.23" class="cls-13"/><path d="M251.59 146.38s.87-4.06 2.5-8.57c1.32-3.64 3.14-7.58 5.41-9.95h.01" class="cls-13"/><path d="m253.98 137.82.11-.01 10.03-.69M240.52 118.98h.01c.6-.23 23.8-8.95 31.49-14.46M242.91 126.29h.01c.61-.23 24.41-9.28 29.1-13.19M180.62 95.6h.01c.4.6 13.22 19.46 23.38 25.03M64.81 75.84s5.63 5.77 8.32 15.89M60.99 79.35s5.13 8.04 6.25 11.75M57.2 82.86s4.91 6.2 5.87 9.5M182.4 24.86c-.51.29-1.47.77-2.74 1.39-6.89 3.39-22.89 11.04-25.77 15.54M166.4 63.2s11.62-14.95 29.97-18.87M159.51 52.25s.17-.2.5-.56c2.93-3.15 18.04-18.62 32.3-16.99" class="cls-13"/><path d="M179.66 26.25s5.38-1.49 8.96-.34M162.9 143.81h0c.43.09 11.71 2.47 20.24-2.37" class="cls-13"/></g></svg>