<?xml version="1.0" encoding="UTF-8"?>
<svg xmlns="http://www.w3.org/2000/svg" xmlns:xlink="http://www.w3.org/1999/xlink" viewBox="0 0 272.7 252.81">
  <defs>
    <style>
      .cls-1 {
        fill: #f75441;
      }

      .cls-1, .cls-2, .cls-3, .cls-4, .cls-5, .cls-6, .cls-7, .cls-8, .cls-9, .cls-10, .cls-11, .cls-12, .cls-13 {
        stroke-width: 0px;
      }

      .cls-2 {
        fill: #c59ddb;
      }

      .cls-3 {
        fill: #b7b4ad;
      }

      .cls-4 {
        fill: #7ac6e0;
      }

      .cls-14 {
        stroke-miterlimit: 10;
      }

      .cls-14, .cls-6, .cls-15, .cls-16 {
        fill: none;
      }

      .cls-14, .cls-15 {
        stroke: #000;
      }

      .cls-5 {
        fill: #e5ebd8;
      }

      .cls-15, .cls-16 {
        stroke-linecap: round;
        stroke-linejoin: round;
      }

      .cls-7 {
        fill: #bec077;
      }

      .cls-8 {
        fill: #333;
      }

      .cls-17 {
        clip-path: url(#clippath);
      }

      .cls-9 {
        fill: #d33d30;
      }

      .cls-10 {
        fill: #fffada;
      }

      .cls-11 {
        fill: #ff5b42;
      }

      .cls-12 {
        fill: #e4f4ae;
      }

      .cls-16 {
        stroke: #fff;
        stroke-width: .5px;
      }

      .cls-13 {
        fill: #76d5e9;
      }
    </style>
    <clipPath id="clippath">
      <rect class="cls-6" x="2.9" width="221.47" height="238.98"/>
    </clipPath>
  </defs>
  <g id="_レイヤー_3" data-name="レイヤー 3">
    <g>
      <g>
        <polygon class="cls-5" points="272.43 207.14 272.43 212.38 264.03 207.14 272.43 207.14"/>
        <rect class="cls-5" x="244.22" y="212.38" width="13.94" height="39.93"/>
        <polygon class="cls-5" points="255.17 207.14 258.16 212.38 244.22 212.38 241.22 207.14 255.17 207.14"/>
        <rect class="cls-5" x="220.47" y="212.38" width="10.78" height="39.93"/>
        <polygon class="cls-5" points="228.27 207.14 231.25 212.38 220.47 212.38 217.48 207.14 228.27 207.14"/>
        <rect class="cls-5" x="196.73" y="212.38" width="10.78" height="39.93"/>
        <polygon class="cls-5" points="204.52 207.14 207.51 212.38 196.73 212.38 193.73 207.14 204.52 207.14"/>
        <rect class="cls-5" x="172.98" y="212.38" width="10.78" height="39.93"/>
        <polygon class="cls-5" points="180.78 207.14 183.76 212.38 172.98 212.38 169.99 207.14 180.78 207.14"/>
        <rect class="cls-5" x="149.23" y="212.38" width="10.79" height="39.93"/>
        <polygon class="cls-5" points="157.03 207.14 160.02 212.38 149.23 212.38 146.25 207.14 157.03 207.14"/>
        <rect class="cls-5" x="125.49" y="212.38" width="10.79" height="39.93"/>
        <polygon class="cls-5" points="133.28 207.14 136.28 212.38 125.49 212.38 122.5 207.14 133.28 207.14"/>
        <rect class="cls-5" x="101.74" y="212.38" width="10.79" height="39.93"/>
        <polygon class="cls-5" points="109.54 207.14 112.53 212.38 101.74 212.38 98.76 207.14 109.54 207.14"/>
        <rect class="cls-5" x="78" y="212.38" width="10.79" height="39.93"/>
        <polygon class="cls-5" points="85.79 207.14 88.79 212.38 78 212.38 75.01 207.14 85.79 207.14"/>
        <rect class="cls-5" x="54.25" y="212.38" width="10.79" height="39.93"/>
        <polygon class="cls-5" points="62.06 207.14 65.04 212.38 54.25 212.38 51.27 207.14 62.06 207.14"/>
        <rect class="cls-5" x="30.5" y="212.38" width="10.79" height="39.93"/>
        <polygon class="cls-5" points="38.31 207.14 41.29 212.38 30.5 212.38 27.52 207.14 38.31 207.14"/>
        <rect class="cls-5" x="2.9" y="212.38" width="14.65" height="39.93"/>
        <polygon class="cls-5" points="14.56 207.14 17.55 212.38 2.9 212.38 2.9 207.14 14.56 207.14"/>
        <rect class="cls-9" x="258.16" y="212.38" width="14.27" height="39.93"/>
        <polygon class="cls-12" points="272.43 142.84 272.43 207.14 264.03 207.14 255.17 207.14 241.22 207.14 228.27 207.14 217.48 207.14 204.52 207.14 193.73 207.14 180.78 207.14 169.99 207.14 157.03 207.14 146.25 207.14 133.28 207.14 122.5 207.14 109.54 207.14 98.76 207.14 85.79 207.14 75.01 207.14 62.06 207.14 51.27 207.14 38.31 207.14 27.52 207.14 14.56 207.14 2.9 207.14 2.9 143.13 272.43 142.84"/>
        <polygon class="cls-10" points="272.43 142.09 272.43 142.84 2.9 143.13 39.84 142.84 256.66 142.09 272.43 142.09"/>
        <polygon class="cls-10" points="272.43 136.02 272.43 142.09 256.66 142.09 39.84 142.84 2.9 143.13 2.9 142.05 2.9 136.02 272.43 136.02"/>
        <polygon class="cls-9" points="272.43 212.38 258.16 212.38 255.17 207.14 264.03 207.14 272.43 212.38"/>
        <rect class="cls-4" x="231.25" y="212.38" width="12.97" height="39.93"/>
        <polygon class="cls-4" points="241.22 207.14 244.22 212.38 231.25 212.38 228.27 207.14 241.22 207.14"/>
        <rect class="cls-9" x="207.51" y="212.38" width="12.97" height="39.93"/>
        <polygon class="cls-9" points="217.48 207.14 220.47 212.38 207.51 212.38 204.52 207.14 217.48 207.14"/>
        <rect class="cls-4" x="183.76" y="212.38" width="12.97" height="39.93"/>
        <polygon class="cls-4" points="193.73 207.14 196.73 212.38 183.76 212.38 180.78 207.14 193.73 207.14"/>
        <rect class="cls-9" x="160.02" y="212.38" width="12.96" height="39.93"/>
        <polygon class="cls-9" points="169.99 207.14 172.98 212.38 160.02 212.38 157.03 207.14 169.99 207.14"/>
        <rect class="cls-4" x="136.28" y="212.38" width="12.96" height="39.93"/>
        <polygon class="cls-4" points="146.25 207.14 149.23 212.38 136.28 212.38 133.28 207.14 146.25 207.14"/>
        <rect class="cls-9" x="112.53" y="212.38" width="12.96" height="39.93"/>
        <polygon class="cls-9" points="122.5 207.14 125.49 212.38 112.53 212.38 109.54 207.14 122.5 207.14"/>
        <rect class="cls-4" x="88.79" y="212.38" width="12.96" height="39.93"/>
        <polygon class="cls-4" points="98.76 207.14 101.74 212.38 88.79 212.38 85.79 207.14 98.76 207.14"/>
        <rect class="cls-9" x="65.04" y="212.38" width="12.96" height="39.93"/>
        <polygon class="cls-9" points="75.01 207.14 78 212.38 65.04 212.38 62.06 207.14 75.01 207.14"/>
        <rect class="cls-4" x="41.29" y="212.38" width="12.96" height="39.93"/>
        <polygon class="cls-4" points="51.27 207.14 54.25 212.38 41.29 212.38 38.31 207.14 51.27 207.14"/>
        <rect class="cls-9" x="17.55" y="212.38" width="12.96" height="39.93"/>
        <polygon class="cls-9" points="27.52 207.14 30.5 212.38 17.55 212.38 14.56 207.14 27.52 207.14"/>
      </g>
      <g>
        <polyline class="cls-14" points="2.9 207.14 14.56 207.14 27.52 207.14 38.31 207.14 51.27 207.14 62.06 207.14 75.01 207.14 85.79 207.14 98.76 207.14 109.54 207.14 122.5 207.14 133.28 207.14 146.25 207.14 157.03 207.14 169.99 207.14 180.78 207.14 193.73 207.14 204.52 207.14 217.48 207.14 228.27 207.14 241.22 207.14 255.17 207.14 264.03 207.14 272.43 212.38"/>
        <polyline class="cls-14" points="272.43 252.31 258.16 252.31 244.22 252.31 231.25 252.31 220.47 252.31 207.51 252.31 196.73 252.31 183.76 252.31 172.98 252.31 160.02 252.31 149.23 252.31 136.28 252.31 125.49 252.31 112.53 252.31 101.74 252.31 88.79 252.31 78 252.31 65.04 252.31 54.25 252.31 41.29 252.31 30.5 252.31 17.55 252.31 2.9 252.31"/>
        <polyline class="cls-14" points="255.17 207.14 258.16 212.38 258.16 252.31"/>
        <polyline class="cls-14" points="241.22 207.14 244.22 212.38 244.22 252.31"/>
        <polyline class="cls-14" points="228.27 207.14 231.25 212.38 231.25 252.31"/>
        <polyline class="cls-14" points="217.48 207.14 220.47 212.38 220.47 252.31"/>
        <polyline class="cls-14" points="204.52 207.14 207.51 212.38 207.51 252.31"/>
        <polyline class="cls-14" points="193.73 207.14 196.73 212.38 196.73 252.31"/>
        <polyline class="cls-14" points="180.78 207.14 183.76 212.38 183.76 252.31"/>
        <polyline class="cls-14" points="169.99 207.14 172.98 212.38 172.98 252.31"/>
        <polyline class="cls-14" points="157.03 207.14 160.02 212.38 160.02 252.31"/>
        <polyline class="cls-14" points="146.25 207.14 149.23 212.38 149.23 252.31"/>
        <polyline class="cls-14" points="133.28 207.14 136.28 212.38 136.28 252.31"/>
        <polyline class="cls-14" points="122.5 207.14 125.49 212.38 125.49 252.31"/>
        <polyline class="cls-14" points="109.54 207.14 112.53 212.38 112.53 252.31"/>
        <polyline class="cls-14" points="98.76 207.14 101.74 212.38 101.74 252.31"/>
        <polyline class="cls-14" points="85.79 207.14 88.79 212.38 88.79 252.31"/>
        <polyline class="cls-14" points="75.01 207.14 78 212.38 78 252.31"/>
        <polyline class="cls-14" points="62.06 207.14 65.04 212.38 65.04 252.31"/>
        <polyline class="cls-14" points="51.27 207.14 54.25 212.38 54.25 252.31"/>
        <polyline class="cls-14" points="38.31 207.14 41.29 212.38 41.29 252.31"/>
        <polyline class="cls-14" points="27.52 207.14 30.5 212.38 30.5 252.31"/>
        <polyline class="cls-14" points="14.56 207.14 17.55 212.38 17.55 252.31"/>
        <polyline class="cls-14" points="272.43 212.38 258.16 212.38 244.22 212.38 231.25 212.38 220.47 212.38 207.51 212.38 196.73 212.38 183.76 212.38 172.98 212.38 160.02 212.38 149.23 212.38 136.28 212.38 125.49 212.38 112.53 212.38 101.74 212.38 88.79 212.38 78 212.38 65.04 212.38 54.25 212.38 41.29 212.38 30.5 212.38 17.55 212.38 2.9 212.38"/>
        <line class="cls-14" x1="264.03" y1="207.14" x2="272.43" y2="207.14"/>
        <line class="cls-14" x1="2.9" y1="136.02" x2="272.43" y2="136.02"/>
      </g>
    </g>
  </g>
  <g id="_レイヤー_4" data-name="レイヤー 4">
    <g class="cls-17">
      <g>
        <g>
          <path class="cls-1" d="m187.89,185.14c-5.87,5.1-13.55,9.48-22.53,9.37l-1.18-.05c6.91-6.06,11.62-13.49,11.62-13.49,7.59-3.04,12.99-5.61,12.99-5.61,1.19.07,2.31.12,3.33.13.3-.34.74-1.35,1.24-2.83.27-.79.56-1.71.85-2.74.24-.85.49-1.77.74-2.74,1.76-6.97,3.46-16.76,2.8-23.5,0,0,9.43-2.92,14.54,1.17,5.11,4.08,7.66,9.64,7.4,18.41-.25,8.78-19.53,24.99-31.66,22.05l-.14-.17Z"/>
          <path class="cls-13" d="m175.78,133.61c8.87-.19,13.66-2.81,19.79,3.7,1.24,1.32,1.91,3.58,2.18,6.37.66,6.74-1.04,16.53-2.8,23.5-14.8-.17-26.07-3.54-32.09-5.82-1.11.66-2.21,1.3-3.28,1.9-.95.54-1.88,1.05-2.77,1.54-1.1.59-2.14,1.13-3.11,1.62,0,0,.02.05.07.14.02.05.05.11.09.17,0,.01,0,.02.01.03.16.32.44.87.8,1.56,0,0-9.13,3.52-16.24,2.41h0c.11-.59.19-1.06.25-1.37.36-1.99.72-34.22,1-69.19.02-2.42.03-4.85.05-7.28h.53s7.57,10.1,12.98,17.01c2.05,2.63,3.78,4.8,4.68,5.78,1.03,1.14,3.23,3.38,5.74,5.9l2.23,2.23c4.84,4.83,9.9,9.8,9.9,9.8Z"/>
          <path class="cls-7" d="m194.95,167.18c-.25.97-.5,1.89-.74,2.74-16.53-.18-29.27-4.5-34.63-6.66,1.07-.6,2.17-1.24,3.28-1.9,6.02,2.28,17.29,5.65,32.09,5.82Z"/>
          <path class="cls-7" d="m194.21,169.92c-.29,1.03-.58,1.95-.85,2.74-22.05-.24-36.55-7.86-36.55-7.86.89-.49,1.82-1,2.77-1.54,5.36,2.16,18.1,6.48,34.63,6.66Z"/>
          <path class="cls-7" d="m193.36,172.66c-.5,1.48-.94,2.49-1.24,2.83-1.02-.01-2.14-.06-3.33-.13-.12-.01-.25-.01-.38-.03-6.01-.38-13.82-1.48-20.52-2.98-6.95-1.55-12.72-3.54-14.02-5.59-.01-.01-.01-.02-.01-.03-.04-.07-.07-.12-.09-.17-.05-.09-.07-.14-.07-.14.97-.49,2.01-1.03,3.11-1.62,0,0,14.5,7.62,36.55,7.86Z"/>
          <path class="cls-7" d="m145.64,190.17c-2.02.32-3.95.53-5.75.6-2.91.1-5.48-.16-7.51-.92h-.01c.67-1.43,1.27-2.82,1.8-4.18,9.06,1.79,28.31-4.2,28.69-5.46,7.09,4.21,21.53-3.61,25.55-4.87h0c.13.01.26.01.38.02,0,0-5.4,2.57-12.99,5.61-5.24,2.1-11.52,4.42-17.79,6.27h0c-1.64.49-3.28.95-4.9,1.35h0c-2.56.66-5.08,1.2-7.47,1.58Z"/>
          <path class="cls-1" d="m188.41,175.33h0c-4.02,1.27-18.46,9.09-25.55,4.88l5-7.73.03-.13c6.7,1.5,14.51,2.6,20.52,2.98Z"/>
          <path class="cls-1" d="m180.68,103.73c.21.37.22,1.03-.09,2.14-1.02,3.66-13.6,16.41-14.71,17.94l-2.23-2.23h0c-.09-4.43,2.29-12.88,2.29-12.88,4.03-1.4,10.75-4.08,11.84-4.62.95-.47,2.43-1.19,2.9-.35Z"/>
          <path class="cls-7" d="m180.68,103.73c-.47-.84-1.95-.12-2.9.35-1.09.54-7.81,3.22-11.84,4.62-1,.34-1.83.6-2.37.74-2.32.58-8.15.51-9.87.47,0,0,.45-1.21,1.09-3.08,0,0,18.69-4.46,25.12-8.25h.02c.47,3,.75,5.15.75,5.15Z"/>
          <path class="cls-7" d="m179.93,98.58h-.02c-6.43,3.79-25.12,8.25-25.12,8.25.46-1.35,1.03-3.05,1.6-4.9,0,0,16.35-4.05,22.78-7.84h0c.28,1.58.53,3.12.75,4.49Z"/>
          <path class="cls-7" d="m179.18,94.09h0c-6.43,3.79-22.78,7.84-22.78,7.84.48-1.54.97-3.17,1.41-4.81,0,0,14.19-3.21,20.61-7,.28,1.31.54,2.66.77,3.97Z"/>
          <path class="cls-13" d="m157.8,97.12c-.44,1.64-.93,3.27-1.41,4.81-.57,1.85-1.14,3.55-1.6,4.9-.64,1.87-1.09,3.08-1.09,3.08-.26,0-.43-.01-.47-.01-5.41-6.91-12.98-17.01-12.98-17.01h-.53c.04-4.24.07-8.5.1-12.72,0,0,7.07,0,9.96-2.9,2.89-2.89,11.4-11.06,18.04-8.34,6.64,2.73,6.91,8.51,8.99,14.81.57,1.72,1.11,3.99,1.6,6.38-6.42,3.79-20.61,7-20.61,7Z"/>
          <path class="cls-8" d="m176.67,2.38c.58,0-.83,3.7-1.59,4.08-.77.39-5.49,1.47-6.51,1.54-1.02.06-25.73,1.97-25.73,1.97H.5v-3.85h141.96s24.85-1.19,26.89-2.21c2.05-1.02,1-1.47,2.47-1.53,1.47-.07,4.28,0,4.85,0Z"/>
          <path class="cls-1" d="m159,175.81c-.92-1.42-1.85-2.99-2.66-4.43-.65-1.15-1.22-2.21-1.67-3.06-.36-.69-.64-1.24-.8-1.56,1.3,2.05,7.07,4.04,14.02,5.59l-.03.13-5,7.73c-1.02-.44-2.44-2.24-3.86-4.4Z"/>
          <path class="cls-1" d="m175.8,180.97s-4.71,7.43-11.62,13.49c-4.72,4.14-10.47,7.65-16.43,7.71,5.53-6.95,10.05-14.57,10.26-14.92h0c6.27-1.86,12.55-4.18,17.79-6.28Z"/>
          <path class="cls-1" d="m163.57,109.44c.54-.14,1.37-.4,2.37-.74,0,0-2.38,8.45-2.29,12.87h0c-2.51-2.51-4.71-4.75-5.74-5.89-.9-.98-2.63-3.15-4.68-5.78.04,0,.21.01.47.01,1.72.04,7.55.11,9.87-.47Z"/>
          <path class="cls-7" d="m159,175.81c1.42,2.16,2.84,3.96,3.86,4.4-.38,1.26-19.63,7.25-28.69,5.46.75-1.89,1.38-3.7,1.9-5.38,10.42.75,22.48-4.28,22.93-4.48Z"/>
          <path class="cls-7" d="m156.34,171.38c.81,1.44,1.74,3.01,2.66,4.43-.45.2-12.51,5.23-22.93,4.48.57-1.8,1.02-3.46,1.37-4.93,9.03,1.49,18.9-3.98,18.9-3.98Z"/>
          <path class="cls-7" d="m154.67,168.32c.45.85,1.02,1.91,1.67,3.06,0,0-9.87,5.47-18.9,3.98.47-1.93.78-3.51.98-4.63h0c7.11,1.11,16.24-2.41,16.24-2.41Z"/>
          <path class="cls-7" d="m153.11,188.59c1.62-.4,3.26-.86,4.9-1.34-.21.35-4.73,7.97-10.26,14.92-3.72,4.67-7.89,9.05-11.54,10.72-4.6-1.92-12.54-9.13-12.54-9.13,1.08-1.31,2.08-2.64,3-3.97l9.66,6.72s11.33-11.44,16.78-17.91h0Z"/>
          <path class="cls-7" d="m145.64,190.17c2.39-.38,4.91-.92,7.47-1.57-5.45,6.47-16.78,17.91-16.78,17.91l-9.66-6.72c1.01-1.45,1.94-2.91,2.78-4.36l6.37,4.63,9.82-9.89Z"/>
          <path class="cls-7" d="m145.64,190.17l-9.82,9.89-6.37-4.63c.76-1.3,1.45-2.59,2.09-3.86l4.03,2.94,4.32-3.73h0c1.8-.08,3.73-.29,5.75-.61Z"/>
          <path class="cls-11" d="m68.42,9.97h71.83s-.17,33.75-.43,70.2c-.03,4.22-.06,8.48-.1,12.72-.02,2.43-.03,4.86-.05,7.28h-71.25V9.97Z"/>
          <path class="cls-7" d="m139.89,190.77h0s-4.32,3.74-4.32,3.74l-4.03-2.94c.29-.58.57-1.15.83-1.72h.01c2.03.76,4.6,1.02,7.51.92Z"/>
          <path class="cls-2" d="m68.42,161.82v-61.65h71.25c-.28,34.97-.64,67.2-1,69.19-.06.31-.14.78-.25,1.37-.2,1.12-.51,2.7-.98,4.63-.35,1.47-.8,3.13-1.37,4.93-.52,1.68-1.15,3.49-1.9,5.38-.53,1.36-1.13,2.75-1.8,4.18-.26.57-.54,1.14-.83,1.72-.64,1.27-1.33,2.56-2.09,3.86-.84,1.45-1.77,2.91-2.78,4.36-.92,1.33-1.92,2.66-3,3.97-5.44,6.61-12.84,12.7-22.91,16.66-4.6,2.72-12.09,10.21-17.02,11.24-4.32.89-17.76-1.74-28.58-7.19-1.55-.79-3.04-1.63-4.44-2.52-3.66-2.33-7.44-4.08-10.99-5.33-7.36-2.6-13.72-3.08-15.91-2.16,2.42-1.85,8.38-7.27,15.43-14.67,5.1-5.35,10.77-11.73,16.09-18.54,1.37-1.75,2.72-3.54,4.03-5.34,1.82-2.51,3.56-5.05,5.19-7.6,1.38-2.16,2.68-4.33,3.86-6.48h0Z"/>
          <path class="cls-8" d="m68.42,100.17v61.65h0c-1.18,2.16-2.48,4.33-3.86,6.49l-.06-.04V9.97h3.92v90.2Z"/>
          <path class="cls-8" d="m64.5,168.27l.06.04c-1.63,2.55-3.37,5.09-5.19,7.6l-.14-.1V9.97h5.27v158.3Z"/>
          <path class="cls-8" d="m59.23,175.81l.14.1c-1.31,1.8-2.66,3.59-4.03,5.34l-.03-.02V9.97h3.92v165.84Z"/>
          <path class="cls-2" d="m55.31,181.23l.03.02c-5.32,6.81-10.99,13.19-16.09,18.54-.8.55-3.01,1.44-6.03,2.47-9.31,3.16-26.25,7.57-32.72,7.09v-109.18h54.81v81.06Z"/>
          <rect class="cls-11" x=".5" y="9.97" width="54.81" height="90.2"/>
          <path class="cls-3" d="m50.72,221.95c1.4.89,2.89,1.73,4.44,2.52-6.37.22-18.31.74-24.18,1h0s8.75-8.84,8.75-8.84h0c3.55,1.24,7.33,2.99,10.99,5.32Z"/>
          <path class="cls-3" d="m39.73,216.62h0s-8.75,8.84-8.75,8.84h0c-1.97.09-3.25.15-3.43.16-.45-.99-1.14-2.23-1.85-3.52-.68-1.23-1.38-2.5-1.88-3.66-.83-1.91-1.15-3.49,0-3.98,2.19-.92,8.55-.44,15.91,2.16Z"/>
          <path class="cls-3" d="m33.22,202.26c3.02-1.03,5.23-1.92,6.03-2.47-7.05,7.4-13.01,12.82-15.43,14.67-1.15.49-.83,2.07,0,3.98-8.86,3.77-23.32,5.85-23.32,5.85v-7.66c27.45-4.82,32.73-14.33,32.73-14.33v-.04Z"/>
          <path class="cls-3" d="m33.22,202.26v.04s-5.27,9.51-32.72,14.33v-7.28c6.47.48,23.41-3.93,32.72-7.09Z"/>
          <path class="cls-2" d="m27.55,225.62c.39.9.57,1.6.36,1.95-.9,1.49-12.82,2.46-17.56.72-.66-.24-1.18-.54-1.51-.89,10.73-3.23,16.86-5.3,16.86-5.3.71,1.29,1.4,2.53,1.85,3.52Z"/>
          <path class="cls-3" d="m23.82,218.44c.5,1.16,1.2,2.43,1.88,3.66,0,0-6.13,2.07-16.86,5.3.33.35.85.65,1.51.89-6.85,1.95-9.85,1.61-9.85,1.61v-5.61s14.46-2.08,23.32-5.85Z"/>
        </g>
        <g>
          <path class="cls-15" d="m.5,9.97h142.34s24.71-1.91,25.73-1.97c1.02-.07,5.74-1.15,6.51-1.54.76-.38,2.17-4.08,1.59-4.08s-3.38-.07-4.85,0c-1.47.06-.42.51-2.47,1.53-2.04,1.02-26.89,2.21-26.89,2.21H.5v223.78"/>
          <path class="cls-15" d="m140.25,9.97s-.17,33.75-.43,70.2c-.03,4.22-.06,8.48-.1,12.72-.02,2.43-.03,4.86-.05,7.28-.28,34.97-.64,67.2-1,69.19-.06.31-.14.78-.25,1.37-.2,1.12-.51,2.7-.98,4.63-.35,1.47-.8,3.13-1.37,4.93-.52,1.68-1.15,3.49-1.9,5.38-.53,1.36-1.13,2.75-1.8,4.18-.26.57-.54,1.14-.83,1.72-.64,1.27-1.33,2.56-2.09,3.86-.84,1.45-1.77,2.91-2.78,4.36-.92,1.33-1.92,2.66-3,3.97-5.44,6.61-12.84,12.7-22.91,16.66-4.6,2.72-12.09,10.21-17.02,11.24-4.32.89-17.76-1.74-28.58-7.19-1.55-.79-3.04-1.63-4.44-2.52-3.66-2.33-7.44-4.08-10.99-5.33-7.36-2.6-13.72-3.08-15.91-2.16-1.15.49-.83,2.07,0,3.98.5,1.16,1.2,2.43,1.88,3.66.71,1.29,1.4,2.53,1.85,3.52.39.9.57,1.6.36,1.95-.9,1.49-12.82,2.46-17.56.72-.66-.24-1.18-.54-1.51-.89,10.73-3.23,16.86-5.3,16.86-5.3"/>
          <path class="cls-15" d="m27.53,225.62h.02c.18-.01,1.46-.07,3.43-.15,5.87-.26,17.81-.78,24.18-1"/>
          <line class="cls-15" x1="30.98" y1="225.46" x2="39.73" y2="216.63"/>
          <path class="cls-15" d="m68.42,161.82c4.98-9.06,8-17.91,7.15-25.31"/>
          <path class="cls-15" d="m23.82,214.46c2.42-1.85,8.38-7.27,15.43-14.67,5.1-5.35,10.77-11.73,16.09-18.54,1.37-1.75,2.72-3.54,4.03-5.34,1.82-2.51,3.56-5.05,5.19-7.6,1.38-2.16,2.68-4.33,3.86-6.48"/>
          <polyline class="cls-15" points="68.42 9.97 68.42 100.17 68.42 161.82 68.42 161.83"/>
          <line class="cls-16" x1="64.5" y1="9.97" x2="64.5" y2="168.27"/>
          <line class="cls-16" x1="59.23" y1="9.97" x2="59.23" y2="175.81"/>
          <polyline class="cls-15" points="55.31 9.97 55.31 100.17 55.31 181.23"/>
          <line class="cls-15" x1=".5" y1="100.17" x2="55.31" y2="100.17"/>
          <line class="cls-15" x1="68.42" y1="100.17" x2="139.66" y2="100.17"/>
          <path class="cls-15" d="m39.25,199.79c-.8.55-3.01,1.44-6.03,2.47-9.31,3.16-26.25,7.57-32.72,7.09"/>
          <path class="cls-15" d="m33.23,202.3s-5.28,9.51-32.73,14.33"/>
          <path class="cls-15" d="m.5,224.29s14.46-2.08,23.32-5.85"/>
          <path class="cls-15" d="m.5,229.9s3,.34,9.85-1.61"/>
          <path class="cls-15" d="m139.82,80.17s7.07,0,9.96-2.9c2.89-2.89,11.4-11.06,18.04-8.34,6.64,2.73,6.91,8.51,8.99,14.81.57,1.72,1.11,3.99,1.6,6.38.28,1.31.54,2.66.77,3.97.28,1.58.53,3.12.75,4.49.47,3,.75,5.15.75,5.15"/>
          <path class="cls-15" d="m153.22,109.9h.01s.21.01.47.01c1.72.04,7.55.11,9.87-.47.54-.14,1.37-.4,2.37-.74,4.03-1.4,10.75-4.08,11.84-4.62.95-.47,2.43-1.19,2.9-.35.21.37.22,1.03-.09,2.14-1.02,3.66-13.6,16.41-14.71,17.94"/>
          <path class="cls-15" d="m140.25,92.89s7.57,10.1,12.98,17.01c2.05,2.63,3.78,4.8,4.68,5.78,1.03,1.14,3.23,3.38,5.74,5.9l2.23,2.23c4.84,4.83,9.9,9.8,9.9,9.8-1.35,1.14-4.78,2.28-8.92,3.68-3.29,1.11-7.03,2.39-10.52,3.98-7.88,3.58-10.69,5.75-10.69,5.75"/>
          <path class="cls-15" d="m159.76,78.27s.57,4.66-.45,11.94c-.28,2.03-.85,4.46-1.51,6.91-.44,1.64-.93,3.27-1.41,4.81-.57,1.85-1.14,3.55-1.6,4.9-.64,1.87-1.09,3.08-1.09,3.08"/>
          <path class="cls-15" d="m157.8,97.12s14.19-3.21,20.61-7"/>
          <path class="cls-15" d="m156.39,101.93s16.35-4.05,22.78-7.84"/>
          <path class="cls-15" d="m154.79,106.83s18.69-4.46,25.12-8.25"/>
          <path class="cls-15" d="m165.94,108.7s-2.38,8.45-2.29,12.87"/>
          <path class="cls-15" d="m145.65,121.57s17.74,15.08,21.21,15.72c.06.01.12.02.17.02"/>
          <path class="cls-15" d="m153.7,166.42c.97-.49,2.01-1.03,3.11-1.62.89-.49,1.82-1,2.77-1.54,1.07-.6,2.17-1.24,3.28-1.9,9.16-5.43,19.22-12.37,21.09-15.75"/>
          <path class="cls-15" d="m153.86,166.73c-.04-.06-.07-.12-.09-.17"/>
          <path class="cls-15" d="m175.78,133.61c8.87-.19,13.66-2.81,19.79,3.7,1.24,1.32,1.91,3.58,2.18,6.37.66,6.74-1.04,16.53-2.8,23.5-.25.97-.5,1.89-.74,2.74-.29,1.03-.58,1.95-.85,2.74-.5,1.48-.94,2.49-1.24,2.83-1.02-.01-2.14-.06-3.33-.13-.12-.01-.25-.01-.38-.03-6.01-.38-13.82-1.48-20.52-2.98-6.95-1.55-12.72-3.54-14.02-5.59"/>
          <path class="cls-15" d="m156.81,164.8s14.5,7.62,36.55,7.86"/>
          <path class="cls-15" d="m159.58,163.26c5.36,2.16,18.1,6.48,34.63,6.66"/>
          <path class="cls-15" d="m162.86,161.36c6.02,2.28,17.29,5.65,32.09,5.82"/>
          <path class="cls-15" d="m153.7,166.42s.02.05.07.14c.02.05.05.1.09.17,0,.01,0,.02.01.03.16.32.44.87.8,1.56.45.85,1.02,1.91,1.67,3.06.81,1.44,1.74,3.01,2.66,4.43,1.42,2.16,2.84,3.96,3.86,4.4,7.09,4.21,21.53-3.61,25.55-4.87"/>
          <line class="cls-15" x1="162.86" y1="180.21" x2="167.86" y2="172.48"/>
          <path class="cls-15" d="m197.75,143.68s9.43-2.92,14.54,1.17c5.11,4.08,7.66,9.64,7.4,18.41-.25,8.78-19.53,24.99-31.66,22.05"/>
          <path class="cls-15" d="m200.55,169.92s-4.65,8.28-12.66,15.22c-5.87,5.1-13.55,9.48-22.53,9.37"/>
          <path class="cls-15" d="m153.11,188.6c-2.56.65-5.08,1.19-7.47,1.57-2.02.32-3.95.53-5.75.6-2.91.1-5.48-.16-7.51-.92"/>
          <path class="cls-15" d="m158.01,187.25c-1.64.48-3.28.94-4.9,1.34"/>
          <path class="cls-15" d="m188.79,175.36s-5.4,2.57-12.99,5.61c-5.24,2.1-11.52,4.42-17.79,6.27"/>
          <path class="cls-15" d="m175.8,180.97s-4.71,7.43-11.62,13.49c-4.72,4.14-10.47,7.65-16.43,7.71"/>
          <path class="cls-15" d="m158.01,187.24h0c-.21.36-4.73,7.98-10.26,14.93-3.72,4.67-7.89,9.05-11.54,10.72-4.6-1.92-12.54-9.13-12.54-9.13"/>
          <path class="cls-15" d="m126.67,199.79l9.66,6.72s11.33-11.44,16.78-17.91h0"/>
          <polyline class="cls-15" points="129.45 195.43 135.82 200.06 145.64 190.17 145.65 190.16"/>
          <polyline class="cls-15" points="131.54 191.57 135.57 194.51 139.89 190.78"/>
          <path class="cls-15" d="m162.86,180.21c-.38,1.26-19.63,7.25-28.69,5.46"/>
          <path class="cls-15" d="m159.01,175.81h-.01c-.45.2-12.51,5.23-22.93,4.48"/>
          <path class="cls-15" d="m156.34,171.38s-9.87,5.47-18.9,3.98"/>
          <path class="cls-15" d="m154.67,168.32s-9.13,3.52-16.24,2.41"/>
        </g>
      </g>
    </g>
  </g>
</svg>