<?xml version="1.0" encoding="utf-8"?>
<!-- Generator: Adobe Illustrator 27.9.0, SVG Export Plug-In . SVG Version: 6.00 Build 0)  -->
<svg version="1.1" xmlns="http://www.w3.org/2000/svg" xmlns:xlink="http://www.w3.org/1999/xlink" x="0px" y="0px"
	 viewBox="0 0 273.9 195.9" style="enable-background:new 0 0 273.9 195.9;" xml:space="preserve">
<style type="text/css">
	.st0{fill:#F3EDD7;}
	.st1{fill:#333333;}
	.st2{fill:#D2D296;}
	.st3{fill:none;stroke:#000000;stroke-miterlimit:10;}
	.st4{clip-path:url(#SVGID_00000147213842390324407270000011460389034061009796_);fill:#E66E5D;}
	.st5{clip-path:url(#SVGID_00000147213842390324407270000011460389034061009796_);fill:#D6C776;}
	.st6{clip-path:url(#SVGID_00000147213842390324407270000011460389034061009796_);fill:#8FBFBF;}
	.st7{clip-path:url(#SVGID_00000147213842390324407270000011460389034061009796_);fill:#F2F0D9;}
	.st8{clip-path:url(#SVGID_00000147213842390324407270000011460389034061009796_);fill:#333333;}
	.st9{clip-path:url(#SVGID_00000147213842390324407270000011460389034061009796_);fill:#FCECCA;}
	
		.st10{clip-path:url(#SVGID_00000147213842390324407270000011460389034061009796_);fill:none;stroke:#000000;stroke-linecap:round;stroke-linejoin:round;stroke-miterlimit:10;}
</style>
<g id="レイヤー_1">
</g>
<g id="レイヤー_3">
	<g id="XMLID_00000039096862105843342900000005760561927215356845_">
		<g>
			<rect x="0" y="160.7" class="st0" width="3.7" height="5.1"/>
			<path class="st0" d="M274,188.7v6.7h-30.9l15.6-8.8c1,1.6,3.2,2.8,5.6,2.8c2.5,0,4.7-1.2,5.7-2.9L274,188.7z"/>
			<path class="st0" d="M274,178v10.7l-4-2.3c0.4-0.7,0.6-1.4,0.6-2.2c0-1.3-0.6-2.5-1.6-3.4L274,178z"/>
			<path class="st0" d="M274,165.8V178l-5.1,2.8c-1.2-1-2.8-1.7-4.7-1.7c-1.8,0-3.4,0.6-4.5,1.5l-26.5-14.9h25.2h11.5H274z"/>
			<polygon class="st0" points="274,88.9 274,94.7 0.9,94.7 0,94.7 0,88.9 			"/>
			<rect x="269.9" y="160.7" class="st0" width="4.1" height="5.1"/>
			<path class="st0" d="M270.5,184.3c0,0.8-0.2,1.5-0.6,2.2l-5.5-3.1l4.5-2.5C269.9,181.8,270.5,183,270.5,184.3z"/>
			<path class="st0" d="M264.4,183.4l5.5,3.1c-1,1.7-3.2,2.9-5.7,2.9c-2.4,0-4.5-1.1-5.6-2.8L264.4,183.4z"/>
			<rect x="258.4" y="160.7" class="st1" width="11.5" height="5.1"/>
			<path class="st0" d="M268.9,180.9l-4.5,2.5l-4.7-2.6c1.1-0.9,2.7-1.5,4.5-1.5C266.1,179.2,267.7,179.8,268.9,180.9z"/>
			<path class="st0" d="M264.4,183.4l-5.8,3.3c-0.4-0.7-0.7-1.5-0.7-2.3c0-1.4,0.7-2.6,1.8-3.6L264.4,183.4z"/>
			<path class="st0" d="M233.2,165.8l26.5,14.9c-1.1,0.9-1.8,2.2-1.8,3.6c0,0.8,0.3,1.6,0.7,2.3l-15.6,8.8h-42.1l-15.9-8.9
				c0.4-0.7,0.6-1.4,0.6-2.2c0-1.3-0.6-2.5-1.6-3.4l26.7-15h5.2h11.5H233.2z M227.2,184.3c0-2.8-2.3-5.1-5.1-5.1
				c-2.8,0-5.1,2.3-5.1,5.1c0,2.8,2.3,5.1,5.1,5.1C224.9,189.4,227.2,187.1,227.2,184.3z"/>
			<polygon class="st0" points="258.4,165.8 233.2,165.8 227.4,165.8 227.4,160.7 258.4,160.7 			"/>
			<rect x="216" y="160.7" class="st1" width="11.5" height="5.1"/>
			<path class="st1" d="M222.1,179.2c2.8,0,5.1,2.3,5.1,5.1c0,2.8-2.3,5.1-5.1,5.1c-2.8,0-5.1-2.3-5.1-5.1
				C217,181.5,219.3,179.2,222.1,179.2z"/>
			<path class="st0" d="M210.8,165.8l-26.7,15c-1.2-1-2.8-1.7-4.7-1.7c-1.8,0-3.4,0.6-4.5,1.5l-26.5-14.9h25.2H185H210.8z"/>
			<polygon class="st0" points="185,165.8 185,160.7 216,160.7 216,165.8 210.8,165.8 			"/>
			<path class="st0" d="M200.9,195.4h-42.8l15.6-8.8c1,1.6,3.2,2.8,5.6,2.8c2.5,0,4.7-1.2,5.7-2.9L200.9,195.4z"/>
			<path class="st0" d="M185.7,184.3c0,0.8-0.2,1.5-0.6,2.2l-5.5-3.1l4.5-2.5C185,181.8,185.7,183,185.7,184.3z"/>
			<path class="st0" d="M179.6,183.4l5.5,3.1c-1,1.7-3.2,2.9-5.7,2.9c-2.4,0-4.5-1.1-5.6-2.8L179.6,183.4z"/>
			<rect x="173.5" y="160.7" class="st1" width="11.5" height="5.1"/>
			<path class="st0" d="M179.4,179.2c1.9,0,3.5,0.6,4.7,1.7l-4.5,2.5l-4.7-2.6C176,179.8,177.6,179.2,179.4,179.2z"/>
			<path class="st0" d="M179.6,183.4l-5.8,3.3c-0.4-0.7-0.7-1.5-0.7-2.3c0-1.4,0.7-2.6,1.8-3.6L179.6,183.4z"/>
			<path class="st0" d="M148.4,165.8l26.5,14.9c-1.1,0.9-1.8,2.2-1.8,3.6c0,0.8,0.3,1.6,0.7,2.3l-15.6,8.8h-42.1l-15.9-8.9
				c0.4-0.7,0.6-1.4,0.6-2.2c0-1.3-0.6-2.5-1.6-3.4l26.7-15h5.2h11.5H148.4z M141.2,184.3c0-2.8-2.3-5.1-5.1-5.1
				c-2.8,0-5.1,2.3-5.1,5.1c0,2.8,2.3,5.1,5.1,5.1C139,189.4,141.2,187.1,141.2,184.3z"/>
			<polygon class="st0" points="173.5,165.8 148.4,165.8 142.5,165.8 142.5,160.7 173.5,160.7 			"/>
			<rect x="131" y="160.7" class="st1" width="11.5" height="5.1"/>
			<path class="st1" d="M136.1,179.2c2.8,0,5.1,2.3,5.1,5.1c0,2.8-2.3,5.1-5.1,5.1c-2.8,0-5.1-2.3-5.1-5.1
				C131,181.5,133.3,179.2,136.1,179.2z"/>
			<path class="st0" d="M125.9,165.8l-26.7,15c-1.2-1-2.8-1.7-4.7-1.7c-1.8,0-3.4,0.6-4.5,1.5l-26.5-14.9h25.1h11.5H125.9z"/>
			<polygon class="st0" points="131,165.8 125.9,165.8 100.1,165.8 100.1,160.7 131,160.7 			"/>
			<path class="st0" d="M116.1,195.4H73.3l15.6-8.8c1,1.6,3.2,2.8,5.6,2.8c2.5,0,4.7-1.2,5.7-2.9L116.1,195.4z"/>
			<path class="st0" d="M100.8,184.3c0,0.8-0.2,1.5-0.6,2.2l-5.5-3.1l4.5-2.5C100.1,181.8,100.8,183,100.8,184.3z"/>
			<path class="st0" d="M94.7,183.4l5.5,3.1c-1,1.7-3.2,2.9-5.7,2.9c-2.4,0-4.5-1.1-5.6-2.8L94.7,183.4z"/>
			<rect x="88.6" y="160.7" class="st1" width="11.5" height="5.1"/>
			<path class="st0" d="M94.5,179.2c1.9,0,3.5,0.6,4.7,1.7l-4.5,2.5l-4.7-2.6C91.1,179.8,92.7,179.2,94.5,179.2z"/>
			<path class="st0" d="M94.7,183.4l-5.8,3.3c-0.4-0.7-0.7-1.5-0.7-2.3c0-1.4,0.7-2.6,1.8-3.6L94.7,183.4z"/>
			<path class="st0" d="M63.5,165.8L90,180.7c-1.1,0.9-1.8,2.2-1.8,3.6c0,0.8,0.3,1.6,0.7,2.3l-15.6,8.8H31l-15.9-8.9
				c0.4-0.7,0.6-1.4,0.6-2.2c0-1.3-0.6-2.5-1.6-3.4l26.7-15h5.3h11.5H63.5z M54.8,184.3c0-2.8-2.3-5.1-5.1-5.1
				c-2.8,0-5.1,2.3-5.1,5.1c0,2.8,2.3,5.1,5.1,5.1C52.5,189.4,54.8,187.1,54.8,184.3z"/>
			<polygon class="st0" points="88.6,165.8 63.5,165.8 57.6,165.8 57.6,160.7 88.6,160.7 			"/>
			<rect x="46.1" y="160.7" class="st1" width="11.5" height="5.1"/>
			<path class="st1" d="M49.7,179.2c2.8,0,5.1,2.3,5.1,5.1c0,2.8-2.3,5.1-5.1,5.1c-2.8,0-5.1-2.3-5.1-5.1
				C44.6,181.5,46.9,179.2,49.7,179.2z"/>
			<polygon class="st0" points="46.1,165.8 40.8,165.8 15.1,165.8 15.1,160.7 46.1,160.7 			"/>
			<path class="st0" d="M31,195.4H0v-6.6l3.8-2.1c1,1.6,3.2,2.8,5.6,2.8c2.5,0,4.7-1.2,5.7-2.9L31,195.4z"/>
			<path class="st0" d="M15.7,184.3c0,0.8-0.2,1.5-0.6,2.2l-5.5-3.1l4.5-2.5C15.1,181.8,15.7,183,15.7,184.3z"/>
			<rect x="3.7" y="160.7" class="st1" width="11.5" height="5.1"/>
			<path class="st0" d="M9.6,183.4l5.5,3.1c-1,1.7-3.2,2.9-5.7,2.9c-2.4,0-4.5-1.1-5.6-2.8L9.6,183.4z"/>
			<path class="st0" d="M9.4,179.2c1.9,0,3.5,0.6,4.7,1.7l-4.5,2.5l-4.7-2.6C6,179.8,7.6,179.2,9.4,179.2z"/>
			<path class="st0" d="M9.6,183.4l-5.8,3.3c-0.4-0.7-0.7-1.5-0.7-2.3c0-1.4,0.7-2.6,1.8-3.6L9.6,183.4z"/>
			<path class="st0" d="M0,178l4.9,2.8c-1.1,0.9-1.8,2.2-1.8,3.6c0,0.8,0.3,1.6,0.7,2.3L0,188.8V178z"/>
			<polygon class="st2" points="216,160.7 185,160.7 173.5,160.7 142.5,160.7 131,160.7 100.1,160.7 88.6,160.7 57.6,160.7 
				46.1,160.7 15.1,160.7 3.7,160.7 0,160.7 0,94.7 0.9,94.7 274,94.7 274,160.7 269.9,160.7 258.4,160.7 227.4,160.7 			"/>
			<path class="st0" d="M0,165.8h3.7h11.5h25.7l-26.7,15c-1.2-1-2.8-1.7-4.7-1.7c-1.8,0-3.4,0.6-4.5,1.5L0,178V165.8z"/>
		</g>
		<g>
			<path class="st3" d="M0,94.7"/>
			<path class="st3" d="M0,160.7"/>
			<path class="st3" d="M0,165.8"/>
			<path class="st3" d="M0,178"/>
			<path class="st3" d="M0,188.8"/>
			<polyline class="st3" points="274,195.4 243.1,195.4 200.9,195.4 158.2,195.4 116.1,195.4 73.3,195.4 31,195.4 0,195.4 			"/>
			<path class="st3" d="M274,188.7"/>
			<path class="st3" d="M274,178"/>
			<path class="st3" d="M274,165.8"/>
			<path class="st3" d="M274,160.7"/>
			<path class="st3" d="M274,94.7"/>
			<line class="st3" x1="0" y1="88.9" x2="274" y2="88.9"/>
			<line class="st3" x1="0" y1="94.7" x2="274" y2="94.7"/>
			<line class="st3" x1="269.9" y1="160.7" x2="274" y2="160.7"/>
			<line class="st3" x1="227.4" y1="160.7" x2="258.4" y2="160.7"/>
			<line class="st3" x1="185" y1="160.7" x2="216" y2="160.7"/>
			<line class="st3" x1="142.5" y1="160.7" x2="173.5" y2="160.7"/>
			<line class="st3" x1="100.1" y1="160.7" x2="131" y2="160.7"/>
			<line class="st3" x1="57.6" y1="160.7" x2="88.6" y2="160.7"/>
			<line class="st3" x1="15.1" y1="160.7" x2="46.1" y2="160.7"/>
			<line class="st3" x1="0" y1="160.7" x2="3.7" y2="160.7"/>
			<line class="st3" x1="269.9" y1="165.8" x2="274" y2="165.8"/>
			<polyline class="st3" points="227.4,165.8 233.2,165.8 258.4,165.8 			"/>
			<polyline class="st3" points="185,165.8 210.8,165.8 216,165.8 			"/>
			<polyline class="st3" points="142.5,165.8 148.4,165.8 173.5,165.8 			"/>
			<polyline class="st3" points="100.1,165.8 125.9,165.8 131,165.8 			"/>
			<polyline class="st3" points="57.6,165.8 63.5,165.8 88.6,165.8 			"/>
			<polyline class="st3" points="15.1,165.8 40.8,165.8 46.1,165.8 			"/>
			<line class="st3" x1="0" y1="165.8" x2="3.7" y2="165.8"/>
			<polyline class="st3" points="73.3,195.4 88.9,186.6 94.7,183.4 99.1,180.9 125.9,165.8 			"/>
			<polyline class="st3" points="116.1,195.4 100.2,186.5 94.7,183.4 90,180.7 63.5,165.8 			"/>
			<path class="st3" d="M141.2,184.3c0,2.8-2.3,5.1-5.1,5.1c-2.8,0-5.1-2.3-5.1-5.1c0-2.8,2.3-5.1,5.1-5.1
				C139,179.2,141.2,181.5,141.2,184.3z"/>
			<path class="st3" d="M227.2,184.3c0,2.8-2.3,5.1-5.1,5.1c-2.8,0-5.1-2.3-5.1-5.1c0-2.8,2.3-5.1,5.1-5.1
				C224.9,179.2,227.2,181.5,227.2,184.3z"/>
			<path class="st3" d="M99.1,180.9c1,0.9,1.6,2.1,1.6,3.4c0,0.8-0.2,1.5-0.6,2.2c-1,1.7-3.2,2.9-5.7,2.9c-2.4,0-4.5-1.1-5.6-2.8
				c-0.4-0.7-0.7-1.5-0.7-2.3c0-1.4,0.7-2.6,1.8-3.6c1.1-0.9,2.7-1.5,4.5-1.5C96.3,179.2,98,179.8,99.1,180.9z"/>
			<polyline class="st3" points="0,188.8 3.8,186.6 9.6,183.4 14.1,180.9 40.8,165.8 			"/>
			<polyline class="st3" points="31,195.4 15.1,186.5 9.6,183.4 4.9,180.7 0,178 			"/>
			<path class="st3" d="M14.1,180.9c1,0.9,1.6,2.1,1.6,3.4c0,0.8-0.2,1.5-0.6,2.2c-1,1.7-3.2,2.9-5.7,2.9c-2.4,0-4.5-1.1-5.6-2.8
				c-0.4-0.7-0.7-1.5-0.7-2.3c0-1.4,0.7-2.6,1.8-3.6c1.1-0.9,2.7-1.5,4.5-1.5C11.2,179.2,12.9,179.8,14.1,180.9z"/>
			<polyline class="st3" points="158.2,195.4 173.8,186.6 179.6,183.4 184,180.9 210.8,165.8 			"/>
			<polyline class="st3" points="200.9,195.4 185.1,186.5 179.6,183.4 174.8,180.7 148.4,165.8 			"/>
			<path class="st3" d="M184,180.9c1,0.9,1.6,2.1,1.6,3.4c0,0.8-0.2,1.5-0.6,2.2c-1,1.7-3.2,2.9-5.7,2.9c-2.4,0-4.5-1.1-5.6-2.8
				c-0.4-0.7-0.7-1.5-0.7-2.3c0-1.4,0.7-2.6,1.8-3.6c1.1-0.9,2.7-1.5,4.5-1.5C181.2,179.2,182.9,179.8,184,180.9z"/>
			<polyline class="st3" points="243.1,195.4 258.6,186.6 264.4,183.4 268.9,180.9 274,178 			"/>
			<polyline class="st3" points="274,188.7 269.9,186.5 264.4,183.4 259.7,180.7 233.2,165.8 			"/>
			<path class="st3" d="M268.9,180.9c1,0.9,1.6,2.1,1.6,3.4c0,0.8-0.2,1.5-0.6,2.2c-1,1.7-3.2,2.9-5.7,2.9c-2.4,0-4.5-1.1-5.6-2.8
				c-0.4-0.7-0.7-1.5-0.7-2.3c0-1.4,0.7-2.6,1.8-3.6c1.1-0.9,2.7-1.5,4.5-1.5C266.1,179.2,267.7,179.8,268.9,180.9z"/>
			<path class="st3" d="M54.8,184.3c0,2.8-2.3,5.1-5.1,5.1c-2.8,0-5.1-2.3-5.1-5.1c0-2.8,2.3-5.1,5.1-5.1
				C52.5,179.2,54.8,181.5,54.8,184.3z"/>
			<rect x="3.7" y="160.7" class="st3" width="11.5" height="5.1"/>
			<rect x="46.1" y="160.7" class="st3" width="11.5" height="5.1"/>
			<rect x="88.6" y="160.7" class="st3" width="11.5" height="5.1"/>
			<rect x="131" y="160.7" class="st3" width="11.5" height="5.1"/>
			<rect x="173.5" y="160.7" class="st3" width="11.5" height="5.1"/>
			<rect x="216" y="160.7" class="st3" width="11.5" height="5.1"/>
			<rect x="258.4" y="160.7" class="st3" width="11.5" height="5.1"/>
		</g>
	</g>
</g>
<g id="レイヤー_2">
	<g>
		<defs>
			<rect id="SVGID_1_" x="0.1" y="-2.8" width="273.8" height="184.5"/>
		</defs>
		<clipPath id="SVGID_00000025434864807728958410000015940272095933637261_">
			<use xlink:href="#SVGID_1_"  style="overflow:visible;"/>
		</clipPath>
		<path style="clip-path:url(#SVGID_00000025434864807728958410000015940272095933637261_);fill:#E66E5D;" d="M206.6,158.6
			l-17.9-1.8c12.5-1.8,23.6-17.4,23.6-17.4l7.3,6.9c0,0,0,0,3.1,0c1,0,2.5-0.5,4.3-1.2l17.6,9.1l3.3,3c0,0,20.9-0.9,29.1-7.9v13.4
			L257.9,175l-4.1-3.8c0,0-6.5-10.5-9.2-8.8c-2.6,1.7-8.5,12.3-8.5,12.3l-9.1,5.9L206.6,158.6z"/>
		<path style="clip-path:url(#SVGID_00000025434864807728958410000015940272095933637261_);fill:#D6C776;" d="M277,142.1v7.2
			c-8.2,7-29.1,7.9-29.1,7.9l-3.3-3c0,0,0.9-1.9,2.7-5.4l0,0C247.3,148.9,269.9,144.8,277,142.1z"/>
		<path style="clip-path:url(#SVGID_00000025434864807728958410000015940272095933637261_);fill:#D6C776;" d="M277,137.4v4.8
			c-7.1,2.6-29.7,6.7-29.7,6.7l0,0c0.8-1.5,1.8-3.2,2.9-5.3C250.2,143.6,274.2,140.3,277,137.4z"/>
		<path style="clip-path:url(#SVGID_00000025434864807728958410000015940272095933637261_);fill:#D6C776;" d="M277,133v4.3
			c-2.8,3-26.8,6.2-26.8,6.2c0.7-1.3,1.6-2.7,2.5-4.3C252.7,139.3,266.7,136.8,277,133z"/>
		<path style="clip-path:url(#SVGID_00000025434864807728958410000015940272095933637261_);fill:#8FBFBF;" d="M231.3,121
			c-16.1-3.7-33-6.5-33-6.5l-0.5-2.7c18.5-3.6,35.1-7.5,42.3-9.7c19.1,2,37,6.5,37,6.5V133c-10.3,3.7-24.3,6.3-24.3,6.3
			c1.6-2.8,3.5-5.9,5.7-9.3c-0.9-0.7-2.1-1.4-3.7-2.1c0,0,0,0,0,0c-2.1-0.9-4.7-1.8-7.7-2.8h0c-1.5-0.5-3.2-0.9-4.9-1.4
			c-1.9-0.5-3.9-1-6-1.6C234.5,121.8,232.9,121.4,231.3,121z"/>
		<path style="clip-path:url(#SVGID_00000025434864807728958410000015940272095933637261_);fill:#F2F0D9;" d="M277,90.5v18.1
			c0,0-17.9-4.5-37-6.5C259.4,94.5,277,90.5,277,90.5z"/>
		<path style="clip-path:url(#SVGID_00000025434864807728958410000015940272095933637261_);fill:#F2F0D9;" d="M277,72.2v18.4
			c0,0-17.6,4-37,11.6c-7.2,2.2-23.8,6.1-42.3,9.7c-6.8,1.3-13.9,2.6-20.9,3.8c-1.4-1.5-2.8-2.9-4.2-4c-8.5-6.6-26.5-1.2-34.2,1.5
			c0,0-1.1-2.3-2.5-6.3c14.4-3,101.1-20.1,133.5-32.1L277,72.2z"/>
		<path style="clip-path:url(#SVGID_00000025434864807728958410000015940272095933637261_);fill:#F2F0D9;" d="M264,64l5.4,10.7
			c-32.4,12.1-119.1,29.1-133.5,32.1c-1-2.7-2.2-6.2-3.4-10.1C166.5,91.5,244.7,74.2,264,64z"/>
		<path style="clip-path:url(#SVGID_00000025434864807728958410000015940272095933637261_);fill:#F2F0D9;" d="M251.3,44.6l16.6,17.1
			L264,64c-19.3,10.2-97.5,27.5-131.5,32.7c-0.7-2.4-1.4-5-2.1-7.8c22.1-2.1,69.8-18.3,85.6-24c1.3-0.5,2.5-0.9,3.7-1.4
			c1.4-0.6,2.7-1.2,4-1.8c1.1-0.5,2.2-1.1,3.2-1.6c2.8-1.5,5.2-3,7.3-4.6c4.8-3.5,7.9-6.9,9.4-9.3L251.3,44.6z"/>
		<path style="clip-path:url(#SVGID_00000025434864807728958410000015940272095933637261_);fill:#E66E5D;" d="M254.7,127.9
			c1.6,0.7,2.8,1.4,3.7,2.1c-2.2,3.4-4.1,6.5-5.7,9.3c-0.9,1.5-1.7,3-2.5,4.3c-1.1,2-2.1,3.8-2.9,5.3c-1.8,3.5-2.7,5.4-2.7,5.4
			l-17.6-9.1C236.5,141.1,254.2,128.3,254.7,127.9C254.7,127.9,254.7,127.9,254.7,127.9z"/>
		<path style="clip-path:url(#SVGID_00000025434864807728958410000015940272095933637261_);fill:#E66E5D;" d="M253.8,171.1l-12-0.2
			l-5.7,3.7c0,0,5.9-10.6,8.5-12.3C247.3,160.6,253.8,171.1,253.8,171.1z"/>
		<path style="clip-path:url(#SVGID_00000025434864807728958410000015940272095933637261_);fill:#D6C776;" d="M247,125.1
			c3,0.9,5.6,1.8,7.7,2.8c-0.5,0.4-18.2,13.2-27.7,17.3c-1.8,0.8-3.3,1.2-4.3,1.2c-3.1,0-3.1,0-3.1,0l-7.3-6.9
			C217.3,139.2,237.8,130.6,247,125.1L247,125.1z"/>
		<polygon style="clip-path:url(#SVGID_00000025434864807728958410000015940272095933637261_);fill:#E66E5D;" points="243.3,38 
			243.6,46.1 240.8,40.7 230.2,44.3 225,22.1 		"/>
		<path style="clip-path:url(#SVGID_00000025434864807728958410000015940272095933637261_);fill:#E66E5D;" d="M240.8,40.7l2.8,5.4
			c-1.5,2.4-4.6,5.8-9.4,9.3l-0.2-0.3c-2.9-1.1-5.9-5.2-8.3-9.3l4.6-1.6L240.8,40.7z"/>
		<path style="clip-path:url(#SVGID_00000025434864807728958410000015940272095933637261_);fill:#D6C776;" d="M242.1,123.7
			c1.7,0.5,3.4,0.9,4.9,1.4c-9.2,5.4-29.7,14-34.7,14.3l-5-1.1c0-0.1,0.1-0.1,0.1-0.1C224,134.3,242.1,123.7,242.1,123.7z"/>
		<path style="clip-path:url(#SVGID_00000025434864807728958410000015940272095933637261_);fill:#D6C776;" d="M200.6,136.9l-2.4-0.5
			l0.1-0.4c17.2-4.3,33.3-8.2,37.8-13.8c2.1,0.5,4.1,1,6,1.6c0,0-18.1,10.6-34.7,14.5c0,0,0,0-0.1,0.1L200.6,136.9z"/>
		<path style="clip-path:url(#SVGID_00000025434864807728958410000015940272095933637261_);fill:#F2F0D9;" d="M234,55.1l0.2,0.3
			c-2.1,1.5-4.5,3.1-7.3,4.6l-15.4-23.3c1.6-2.9,2.6-4.8,2.7-4.9c0,0,0,0,0,0l4.8-0.7l1.8,5.6c0,0,2,4.6,4.8,9.2
			C228.1,49.9,231.1,54,234,55.1z"/>
		<path style="clip-path:url(#SVGID_00000025434864807728958410000015940272095933637261_);fill:#D6C776;" d="M231.3,121
			c1.6,0.4,3.2,0.7,4.8,1.1c-4.5,5.6-20.6,9.5-37.8,13.8l-0.1,0.4l-1.7-0.4l-4-2.1C199.8,132.6,223.3,126.9,231.3,121z"/>
		<path style="clip-path:url(#SVGID_00000025434864807728958410000015940272095933637261_);fill:#E66E5D;" d="M225,22.1l5.2,22.2
			l-4.6,1.6c-2.8-4.6-4.8-9.2-4.8-9.2L225,22.1z"/>
		<path style="clip-path:url(#SVGID_00000025434864807728958410000015940272095933637261_);fill:#D6C776;" d="M211.5,36.7L226.9,60
			c-1,0.6-2.1,1.1-3.2,1.6L209,41.2C209.9,39.5,210.8,38,211.5,36.7z"/>
		<path style="clip-path:url(#SVGID_00000025434864807728958410000015940272095933637261_);fill:#D6C776;" d="M209,41.2l14.7,20.5
			c-1.3,0.6-2.6,1.2-4,1.8L207,45.9l-0.6-0.4C207.3,44.1,208.2,42.6,209,41.2z"/>
		<path style="clip-path:url(#SVGID_00000025434864807728958410000015940272095933637261_);fill:#8FBFBF;" d="M207,45.9l12.7,17.5
			c-1.2,0.5-2.4,1-3.7,1.4c-15.8,5.7-63.5,21.9-85.6,24c-0.2-1-0.5-2.1-0.7-3.2c-0.6-2.8-1.3-5.3-2.2-7.4
			c35.8-3.6,69.6-18.4,69.6-18.4c3.1-4.3,6.4-9.6,9.3-14.4L207,45.9z"/>
		<path style="clip-path:url(#SVGID_00000025434864807728958410000015940272095933637261_);fill:#E66E5D;" d="M209,41.2
			c-0.8,1.4-1.7,2.9-2.6,4.4c-2.9,4.9-6.2,10.2-9.3,14.4c-2.2-0.7-6.6-12.9-8.3-19.3c-0.1-0.3-0.2-0.6-0.2-1l12.9-5l4.6-1.8l8.2-1.1
			c-0.1,0.2-1.1,2.1-2.7,4.9C210.8,38,209.9,39.5,209,41.2z"/>
		<path style="clip-path:url(#SVGID_00000025434864807728958410000015940272095933637261_);fill:#E66E5D;" d="M198.7,8.1l14,15.1
			L198,22.7h0C197.2,17.2,197.5,12.2,198.7,8.1z"/>
		<path style="clip-path:url(#SVGID_00000025434864807728958410000015940272095933637261_);fill:#E66E5D;" d="M212.7,23.2l-6.6,9.7
			l-4.6,1.8c-1.8-4.1-2.9-8.1-3.5-12L212.7,23.2z"/>
		<path style="clip-path:url(#SVGID_00000025434864807728958410000015940272095933637261_);fill:#8FBFBF;" d="M231.3,121
			c-8,5.9-31.4,11.6-38.8,12.9l-5.2-2.7c-0.2-0.4-0.4-0.8-0.6-1.2c-0.6-1.1-1.2-2.2-1.9-3.4c-2.3-3.8-5-7.8-7.9-11
			c7-1.2,14.1-2.5,20.9-3.8l0.5,2.7C198.2,114.5,215.2,117.3,231.3,121z"/>
		<path style="clip-path:url(#SVGID_00000025434864807728958410000015940272095933637261_);fill:#D6C776;" d="M207.3,138.4l5,1.1
			c0,0-11.1,15.6-23.6,17.4l-19.8-1.7c0.7-0.1,1.4-0.2,1.9-0.4c2.7-0.7,6.9-3.1,10.7-5.9C200.8,148.1,206.7,139.5,207.3,138.4z"/>
		<path style="clip-path:url(#SVGID_00000025434864807728958410000015940272095933637261_);fill:#D6C776;" d="M200.6,136.9l6.8,1.5
			c-0.7,1.1-6.5,9.7-25.8,10.5c2.7-2,5.2-4.2,6.9-6C196.5,142.7,200.2,137.5,200.6,136.9z"/>
		<path style="clip-path:url(#SVGID_00000025434864807728958410000015940272095933637261_);fill:#F2F0D9;" d="M187.4,22.8
			c0-4.1,0-7.2,0-7.2l11.3-7.5c-1.2,4.1-1.5,9.1-0.7,14.5h0c0.6,3.9,1.7,7.9,3.5,12l-12.9,5c-0.5-2.7-0.8-6.8-1-10.8
			C187.5,26.8,187.4,24.7,187.4,22.8z"/>
		<path style="clip-path:url(#SVGID_00000025434864807728958410000015940272095933637261_);fill:#D6C776;" d="M196.4,136l1.7,0.4
			l2.4,0.5c-0.4,0.6-4,5.8-12.1,6c1.1-1.3,1.9-2.4,2-3.2c0-1-0.6-2.9-1.6-5.2c-0.4-1-1-2.1-1.6-3.3l5.2,2.7L196.4,136z"/>
		<path style="clip-path:url(#SVGID_00000025434864807728958410000015940272095933637261_);fill:#8FBFBF;" d="M188.8,40.7
			c1.7,6.5,6.1,18.6,8.3,19.3c0,0-33.8,14.7-69.6,18.4c-0.9-2.4-1.9-4.4-3-6.1c18.6-6.5,57.8-39.1,62.9-43.4l0.2,0
			c0.2,4,0.4,8.1,1,10.8C188.6,40,188.7,40.4,188.8,40.7z"/>
		<path style="clip-path:url(#SVGID_00000025434864807728958410000015940272095933637261_);fill:#D6C776;" d="M188.8,134.5
			c1,2.3,1.6,4.1,1.6,5.2c-10.3,1.3-21.2,4.1-29.9,6.7c-3.5,1.1-6.7,2.1-9.4,3c-3.9,1.3-7,2.3-9.7,3c-3.7,0.9-6.9,1.2-10.9,0.7
			c-4.6-0.6-9,0.3-14.3-3.2l0,0c-0.8-0.5-1.6-1.2-2.5-1.9c11,0.6,33.6,0.7,52.7-6.2C185.6,134.8,188.8,134.5,188.8,134.5z"/>
		<path style="clip-path:url(#SVGID_00000025434864807728958410000015940272095933637261_);fill:#E66E5D;" d="M190.5,139.7
			c-0.1,0.8-0.9,1.9-2,3.2c-1.7,1.9-4.2,4-6.9,6c-3.8,2.8-8,5.2-10.7,5.9c-0.5,0.1-1.2,0.3-1.9,0.4c-3,0.4-7.4,0.4-11.9,0.1
			c2.7-0.6,3.2-8.9,3.4-8.9C169.3,143.8,180.2,141,190.5,139.7z"/>
		<path style="clip-path:url(#SVGID_00000025434864807728958410000015940272095933637261_);fill:#D6C776;" d="M187.2,131.2
			c0.6,1.1,1.1,2.2,1.6,3.3c0,0-3.2,0.3-22.4,7.2c-19.1,6.9-41.7,6.8-52.7,6.2c-1.2-1-2.4-2.3-3.7-3.8l0,0c7,0.1,19.3,1.3,29.9,0
			c10.6-1.3,43.4-11.8,46.7-14.1C186.8,130.4,187,130.8,187.2,131.2z"/>
		<path style="clip-path:url(#SVGID_00000025434864807728958410000015940272095933637261_);fill:#D6C776;" d="M187.5,28.8l-0.2,0
			c-5.1,4.3-44.3,36.9-62.9,43.4c-0.7-1.2-1.5-2.2-2.2-3.2h0c15.1-7.2,59.9-40.3,65.1-46.3C187.4,24.7,187.5,26.8,187.5,28.8z"/>
		<path style="clip-path:url(#SVGID_00000025434864807728958410000015940272095933637261_);fill:#D6C776;" d="M186.5,16.3l1-0.6
			c0,0-0.1,3.1,0,7.2c-5.2,6-50,39-65.1,46.3h0c-1.3-1.7-2.5-3-3.5-4.2c20.8-6.8,47-31.2,54.7-37.9L186.5,16.3z"/>
		<path style="clip-path:url(#SVGID_00000025434864807728958410000015940272095933637261_);fill:#D6C776;" d="M184.7,126.6
			c0.7,1.2,1.3,2.3,1.9,3.4c-3.3,2.3-36.1,12.8-46.7,14.1c-10.6,1.3-22.8,0.1-29.9,0l0,0c-1-1.2-2.1-2.7-3.2-4.3l0.1-1.2
			c7.2,0.8,15.7,1.1,25.7,1C146.9,139.2,166.3,136.9,184.7,126.6z"/>
		<path style="clip-path:url(#SVGID_00000025434864807728958410000015940272095933637261_);fill:#8FBFBF;" d="M86.8,91.9
			c2.8-2.4,6.7-4.8,12.2-6.9L95,79.5C92.8,81.6,89.5,86.8,86.8,91.9z M81.7,133L81.7,133c0,0-9.6,5.8-19.7,8.7h-0.2v-2
			c0,0-4.3-7.1-5.6-13.2c-0.5-2.6-0.5-5.1,0.6-6.7c0.4-0.6,0.9-1.2,1.5-1.8c1-1.1,2.1-2.2,3.5-3.2c2.3-1.8,5.3-3.5,8.7-4.8l-0.8-2.6
			l-3.6-7.1l8.1,2.3l0.6-5.2l-8.7,2.9l-1.5-0.8l4.9-1l1.3-6.6c10.3-10.4,34.7-26,47-28.2h0c0.3,0.4,0.6,0.8,1,1.2
			c1,1.2,2.2,2.5,3.5,4.2c0.7,0.9,1.5,2,2.2,3.2c1,1.7,2.1,3.7,3,6.1c0.8,2.1,1.5,4.5,2.2,7.4c0.2,1.1,0.5,2.1,0.7,3.2
			c0.7,2.7,1.4,5.4,2.1,7.8c1.2,4,2.4,7.4,3.4,10.1c1.5,4,2.5,6.3,2.5,6.3c7.7-2.7,25.7-8.2,34.2-1.5c1.4,1.1,2.8,2.4,4.2,4
			c2.9,3.2,5.6,7.1,7.9,11c-18.4,10.4-37.8,12.6-52,13.1c-10.1,0.1-18.6-0.2-25.7-1c-6.3-0.7-11.5-1.6-15.9-2.7
			c-1.9-0.5-3.6-1-5.2-1.5C84.3,134,82.9,133.5,81.7,133z"/>
		<path style="clip-path:url(#SVGID_00000025434864807728958410000015940272095933637261_);fill:#F2F0D9;" d="M168.6,16.5l4.8,10.5
			c-7.7,6.7-33.9,31.1-54.7,37.9c-0.3-0.4-0.7-0.8-1-1.2h0c-0.3-0.5-0.7-0.9-0.9-1.4c-0.5-0.8-0.9-1.8-1.4-3
			c8.6-2.4,37-28.4,45.7-35.3L168.6,16.5z"/>
		<path style="clip-path:url(#SVGID_00000025434864807728958410000015940272095933637261_);fill:#E66E5D;" d="M160.6,146.4
			c-0.2,0.1-0.7,8.3-3.4,8.9c-2.2-0.1-4.5-0.4-6.6-0.7c-3.8-0.5-7.1-1.3-9.1-2.3c2.8-0.7,5.8-1.7,9.7-3
			C153.9,148.5,157,147.5,160.6,146.4z"/>
		<path style="clip-path:url(#SVGID_00000025434864807728958410000015940272095933637261_);fill:#8FBFBF;" d="M150.5,154.7
			l-15.2,9.8l-0.8,0.1l-18.3-14.8c5.4,3.5,9.8,2.7,14.3,3.2c4,0.5,7.2,0.2,10.9-0.7C143.4,153.4,146.8,154.1,150.5,154.7z"/>
		<path style="clip-path:url(#SVGID_00000025434864807728958410000015940272095933637261_);fill:#E66E5D;" d="M161.2,23.9
			c-8.7,6.9-37,32.9-45.7,35.3c-0.2-0.5-0.4-1-0.6-1.6c-1.7-5-3-11.6-3-15v0c5.1-2,7.2-6.1,9.1-10.7h0
			C127.5,30.2,140,25.9,161.2,23.9z"/>
		<path style="clip-path:url(#SVGID_00000025434864807728958410000015940272095933637261_);fill:#E66E5D;" d="M134.5,164.6l-5.6,1
			l-19.6-16.8L93.9,146c4.6-2.1,9.2-4.3,12.9-6.2c1.1,1.6,2.2,3,3.2,4.3c1.3,1.5,2.5,2.8,3.7,3.8c0.9,0.8,1.7,1.4,2.5,1.9l0,0
			L134.5,164.6z"/>
		<path style="clip-path:url(#SVGID_00000025434864807728958410000015940272095933637261_);fill:#333333;" d="M62.4,53.7
			c-2.3,2-4.3,3.9-5.8,5.5L53,50.3l-2.1-5.1l16-11.6c0,0,31.3-19.7,38-22.8c6.8-3.1,8-3.6,8-3.6s7.2-4.3,11.9-1.2
			c7.7,5.1,4,12,2.8,15.1c-3-4-4.3-4.9-5.4-6c-1.1-1.1-5.9-1.9-12,1.3c-3.5,1.8-16.9,11.9-29.9,22.5v0c-2.4,1.9-4.8,3.9-7.1,5.8
			C69.2,47.8,65.5,50.9,62.4,53.7z"/>
		<path style="clip-path:url(#SVGID_00000025434864807728958410000015940272095933637261_);fill:#E66E5D;" d="M128.9,165.7l-6.6,3.2
			l-16.5-15.5l-14.2,0.6l-17.4,0.7c0,0,9.8-4.2,19.8-8.8l15.4,2.8L128.9,165.7z"/>
		<path style="clip-path:url(#SVGID_00000025434864807728958410000015940272095933637261_);fill:#FCECCA;" d="M100.2,43.1L83,53.4
			l-1.2-17.7v0c13-10.5,26.4-20.6,29.9-22.5c6.1-3.1,10.9-2.4,12-1.3c1.1,1.1,2.4,2,5.4,6c-3,5.8-5.6,7.5-6.3,9.6
			c-0.6,1.4-1.1,2.9-1.7,4.2h0c-1.9,4.7-4,8.7-9.1,10.7v0c-0.5,0.2-1.1,0.4-1.8,0.6c-1.1,0.3-2.2,0.4-3.4,0.5
			C104.6,43.8,102.3,43.5,100.2,43.1z M125.6,20.8c0.2-0.4-0.4-1.1-1.2-1.5s-1.7-0.4-1.9,0c-0.2,0.4,0.4,1.1,1.2,1.5
			C124.6,21.2,125.4,21.2,125.6,20.8z M118.2,16.5c0.1-0.4-0.6-1-1.5-1.2c-0.9-0.2-1.8,0-1.9,0.4c-0.1,0.4,0.6,1,1.5,1.2
			C117.3,17.1,118.1,16.9,118.2,16.5z"/>
		<path style="clip-path:url(#SVGID_00000025434864807728958410000015940272095933637261_);fill:#333333;" d="M124.4,19.4
			c0.9,0.4,1.4,1.1,1.2,1.5c-0.2,0.4-1,0.4-1.9,0c-0.9-0.4-1.4-1.1-1.2-1.5C122.6,18.9,123.5,18.9,124.4,19.4z"/>
		<path style="clip-path:url(#SVGID_00000025434864807728958410000015940272095933637261_);fill:#E66E5D;" d="M122.3,168.9l-9.9,4.4
			l-13.3-12.1c-2.5-1.7-7.2-5.8-7.6-7.2l14.2-0.6L122.3,168.9z"/>
		<path style="clip-path:url(#SVGID_00000025434864807728958410000015940272095933637261_);fill:#333333;" d="M116.7,15.4
			c0.9,0.2,1.6,0.7,1.5,1.2c-0.1,0.4-0.9,0.6-1.9,0.4c-0.9-0.2-1.6-0.7-1.5-1.2C114.9,15.3,115.7,15.2,116.7,15.4z"/>
		<path style="clip-path:url(#SVGID_00000025434864807728958410000015940272095933637261_);fill:#F2F0D9;" d="M116.9,62.3
			c0.3,0.5,0.6,0.9,0.9,1.4c-12.3,2.2-36.7,17.9-47,28.2l-1.3,6.6l-4.9,1l1.7-7.6c-3.7-7.7-5.8-24.6-8.3-35.7
			c1.6-1.6,3.6-3.4,5.8-5.5c0.3,8.2,0.2,15.1,1.5,21.5c0.4,2,1,4,1.7,6c1,2.5,2.3,5,4,7.5c9.7-8.7,32.7-26.7,43.7-28
			c0.2,0.5,0.4,1.1,0.6,1.6C116,60.4,116.4,61.5,116.9,62.3z"/>
		<path style="clip-path:url(#SVGID_00000025434864807728958410000015940272095933637261_);fill:#8FBFBF;" d="M112,42.7
			c0,3.4,1.3,10,3,15c-11,1.4-34.1,19.4-43.7,28c-1.7-2.5-3-4.9-4-7.5l9.1-8.2c0,0,27.4-21.9,28.6-23.5c1.2-1.5,1.9-2.9,1.9-2.9v0
			c1.2,0,2.3-0.2,3.4-0.5C110.8,43.1,111.4,42.9,112,42.7z"/>
		<path style="clip-path:url(#SVGID_00000025434864807728958410000015940272095933637261_);fill:#D6C776;" d="M106.9,138.7l-0.1,1.2
			c-3.7,1.9-8.3,4.1-12.9,6.2c-10,4.6-19.8,8.8-19.8,8.8c-2.9-2.8-5.2-4.7-6.9-5.9C85.1,143.9,91,136,91,136
			C95.4,137.1,100.6,138,106.9,138.7z"/>
		<path style="clip-path:url(#SVGID_00000025434864807728958410000015940272095933637261_);fill:#F2F0D9;" d="M106.8,43.7
			L106.8,43.7c0,0-0.7,1.4-1.9,2.9c-1.2,1.5-28.6,23.5-28.6,23.5l-9.1,8.2c-0.8-2-1.3-4-1.7-6L75.8,61l7.2-7.6l17.2-10.4
			C102.3,43.5,104.6,43.8,106.8,43.7z"/>
		<path style="clip-path:url(#SVGID_00000025434864807728958410000015940272095933637261_);fill:#8FBFBF;" d="M95,79.5L99,85
			c-5.4,2.1-9.3,4.4-12.2,6.9C89.5,86.8,92.8,81.6,95,79.5z"/>
		<path style="clip-path:url(#SVGID_00000025434864807728958410000015940272095933637261_);fill:#E66E5D;" d="M91.6,154.1
			c0.3,1.5,5.1,5.5,7.6,7.2c0,0-19.4-0.3-27-1.9l-2.5-0.2l-11.1-9.9l2.8-2.2c0.7-0.1,1.4-0.3,2.1-0.5c0.8,0.3,2.1,0.9,3.9,2.2h0
			c1.7,1.2,4,3.1,6.9,5.9L91.6,154.1z"/>
		<path style="clip-path:url(#SVGID_00000025434864807728958410000015940272095933637261_);fill:#D6C776;" d="M85.7,134.5
			c1.6,0.5,3.3,1,5.2,1.5c0,0-5.9,8-23.7,12.9h0c-1.9-1.4-3.1-2-3.9-2.2C73,143.8,85.3,134.8,85.7,134.5z"/>
		<path style="clip-path:url(#SVGID_00000025434864807728958410000015940272095933637261_);fill:#F2F0D9;" d="M81.7,35.8L83,53.4
			L75.8,61l-1.1-19.4C76.9,39.7,79.3,37.7,81.7,35.8z"/>
		<path style="clip-path:url(#SVGID_00000025434864807728958410000015940272095933637261_);fill:#D6C776;" d="M81.7,133
			c1.2,0.5,2.5,1,4,1.5c-0.4,0.3-12.7,9.3-22.4,12.1c-0.9-0.3-1.2-0.2-1.2-0.2l-0.2-3.2v-1.5h0.2C72.1,138.8,81.7,133,81.7,133
			L81.7,133z"/>
		<path style="clip-path:url(#SVGID_00000025434864807728958410000015940272095933637261_);fill:#8FBFBF;" d="M74.6,41.6L75.8,61
			L65.5,72.3c-1.3-6.4-1.3-13.4-1.5-21.5C67.1,48,70.7,44.8,74.6,41.6z"/>
		<polygon style="clip-path:url(#SVGID_00000025434864807728958410000015940272095933637261_);fill:#F2F0D9;" points="74.9,97.4 
			74.3,102.6 66.2,100.3 		"/>
		<path style="clip-path:url(#SVGID_00000025434864807728958410000015940272095933637261_);fill:#8FBFBF;" d="M36.9,69.1
			c-7.8-0.7-23.6-12-23.6-12s8.4-14.8,18.6-16.8c10.2-2,13.2,2.1,21.9,7.7l0.9,1.2l3.5,7c2.4,11.1,4.6,28.1,8.3,35.7l-1.7,7.6
			l-8.6-4.3l-0.5,3.8l10.5,1.2l-6.9,5.8l3.4,1.1l3.5-7l0.7,8l2.9-0.9l0.8,2.6c-3.4,1.2-6.3,2.9-8.7,4.8
			c-8.5-3.6-21.9-27.6-23.5-33.1l-0.2-0.2l3.8-3.9l-5.1-7.5l-0.2,0C36.8,69.6,36.8,69.3,36.9,69.1z"/>
		<polygon style="clip-path:url(#SVGID_00000025434864807728958410000015940272095933637261_);fill:#F2F0D9;" points="66.2,100.3 
			69.8,107.4 66.9,108.3 		"/>
		<polygon style="clip-path:url(#SVGID_00000025434864807728958410000015940272095933637261_);fill:#E66E5D;" points="69.5,159.2 
			48.2,157.4 58.4,149.3 		"/>
		<polygon style="clip-path:url(#SVGID_00000025434864807728958410000015940272095933637261_);fill:#F2F0D9;" points="66.2,100.3 
			62.7,107.3 59.3,106.1 		"/>
		<polygon style="clip-path:url(#SVGID_00000025434864807728958410000015940272095933637261_);fill:#F2F0D9;" points="66.2,100.3 
			55.6,99.1 56.1,95.2 64.7,99.5 		"/>
		<path style="clip-path:url(#SVGID_00000025434864807728958410000015940272095933637261_);fill:#F2F0D9;" d="M61.9,143.2l0.2,3.2
			l-0.9,0.7l-2.8,2.2l-10.3,8l-10.6,8.3l-6.3-4.8c0,0,20.1-11.7,26.9-18C59.3,143.1,60.6,143.2,61.9,143.2z"/>
		<path style="clip-path:url(#SVGID_00000025434864807728958410000015940272095933637261_);fill:#E66E5D;" d="M61.9,141.7v1.5
			c-1.3-0.1-2.5-0.2-3.7-0.3c-1.8-0.2-3.5-0.5-5.1-0.9c-1.7-0.4-3.3-0.9-4.9-1.5c-1.1-0.4-2.2-0.9-3.3-1.4c-1.4-0.7-2.8-1.4-4.1-2.2
			c-0.8-0.5-1.6-1-2.3-1.6c-12.7-9.2-18.8-24.5-23-36.4c0.3-1.5,0.6-2.9,0.9-4.1c11.7,19.5,16,33.1,45.6,44.8V141.7z"/>
		<path style="clip-path:url(#SVGID_00000025434864807728958410000015940272095933637261_);fill:#E66E5D;" d="M56.3,126.5
			c1.3,6.1,5.6,13.2,5.6,13.2C32.3,127.9,28,114.3,16.3,94.9C15,90.5,9,77.9,3.4,68.2c5.2,2.3,12.1,5.6,19.1,7.8l-0.1,0.4
			c1,4.3,2.2,10,4.3,16c4.1,11.9,11.9,25.4,29.2,34.1L56.3,126.5z"/>
		<path style="clip-path:url(#SVGID_00000025434864807728958410000015940272095933637261_);fill:#D6C776;" d="M61.9,114.8
			c-1.3,1-2.5,2.1-3.5,3.2c-12.8-14.7-20.7-27.4-23.3-33.2l3.1-3.2l0.2,0.2C39.9,87.1,53.4,111.1,61.9,114.8z"/>
		<path style="clip-path:url(#SVGID_00000025434864807728958410000015940272095933637261_);fill:#D6C776;" d="M58.4,118
			c-0.6,0.6-1,1.2-1.5,1.8c-6.8-3.2-22.5-25.9-24.2-32.6l2.4-2.5C37.7,90.5,45.6,103.2,58.4,118z"/>
		<path style="clip-path:url(#SVGID_00000025434864807728958410000015940272095933637261_);fill:#E66E5D;" d="M56.3,126.5l-0.4,0.1
			c-17.3-8.8-25-22.3-29.2-34.1l1.5-0.5l4.5-4.7c1.8,6.7,17.4,29.3,24.2,32.6C55.8,121.4,55.7,123.9,56.3,126.5z"/>
		<path style="clip-path:url(#SVGID_00000025434864807728958410000015940272095933637261_);fill:#F2F0D9;" d="M48.2,140.5
			c1.5,0.6,3.2,1.1,4.9,1.5c0,0-13.2,13.6-29.3,15.3c-5.2-2.6-6.5-4.8-6.5-4.8c2.2-0.3,4.7-0.6,7.4-1.1
			C32.9,149.9,42.5,147,48.2,140.5z"/>
		<path style="clip-path:url(#SVGID_00000025434864807728958410000015940272095933637261_);fill:#F2F0D9;" d="M44.8,139.1
			c1.1,0.5,2.2,1,3.3,1.4c-5.6,6.5-15.3,9.3-23.5,10.8l-3.5-3.8c0,0,5.5-1,11.2-2.6c0.6-0.2,1.1-0.3,1.6-0.5
			C38.9,143,43.6,141.1,44.8,139.1z"/>
		<path style="clip-path:url(#SVGID_00000025434864807728958410000015940272095933637261_);fill:#E66E5D;" d="M36.9,70.1l5.1,7.5
			l-3.8,3.9l-3.1,3.2l-2.4,2.5l-4.5,4.7l-1.5,0.5c-2.1-6.1-3.3-11.7-4.3-16l0.1-0.4c4.4,1.4,8.9,2.3,13.2,2.2c0,0,0.1-1,0.3-2.3
			c0.1-1,0.2-2.2,0.4-3.3c0.1-1,0.2-1.9,0.4-2.6L36.9,70.1z"/>
		<path style="clip-path:url(#SVGID_00000025434864807728958410000015940272095933637261_);fill:#F2F0D9;" d="M40.7,136.9
			c1.3,0.8,2.7,1.6,4.1,2.2c-1.2,2-5.9,3.8-10.8,5.3c-0.5,0.2-1.1,0.3-1.6,0.5c-5.6,1.5-14,2.6-14,2.6s-1.9-3.2-3.7-5.5
			c11.7,0.6,25.8-4.8,25.8-4.8L40.7,136.9z"/>
		<path style="clip-path:url(#SVGID_00000025434864807728958410000015940272095933637261_);fill:#8FBFBF;" d="M38.4,135.3l-1.7,1.4
			c-13.1,4.1-28.1-3.1-28.1-3.1s3.9-21,6.8-34.7C19.6,110.8,25.7,126.2,38.4,135.3z"/>
		<path style="clip-path:url(#SVGID_00000025434864807728958410000015940272095933637261_);fill:#D6C776;" d="M36.9,69.1
			c0,0.2-0.1,0.5-0.2,1c-0.1,0.7-0.2,1.6-0.4,2.6C31.8,73.1,18,64.3,10.7,60l2.6-2.9C13.2,57.1,29.1,68.4,36.9,69.1z"/>
		<path style="clip-path:url(#SVGID_00000025434864807728958410000015940272095933637261_);fill:#D6C776;" d="M10.7,60
			c7.3,4.3,21.1,13.1,25.7,12.7c-0.1,1.1-0.3,2.3-0.4,3.3c-4.5-0.2-19.8-7.9-28.5-12.3L10.7,60z"/>
		<path style="clip-path:url(#SVGID_00000025434864807728958410000015940272095933637261_);fill:#D6C776;" d="M35.9,75.9
			c-0.2,1.3-0.3,2.3-0.3,2.3c-4.2,0.1-8.8-0.8-13.2-2.2c-7-2.2-13.8-5.6-19.1-7.8l4-4.5C16.1,68.1,31.4,75.8,35.9,75.9z"/>
		
			<path style="clip-path:url(#SVGID_00000025434864807728958410000015940272095933637261_);fill:none;stroke:#000000;stroke-linecap:round;stroke-linejoin:round;stroke-miterlimit:10;" d="
			M214.3,31.7l-8.2,1.1l6.6-9.7l-14-15.1l-11.3,7.5l-1,0.6l-13,10.7l-4.8-10.5l-7.4,7.4c-21.2,2-33.7,6.3-40.1,8"/>
		
			<path style="clip-path:url(#SVGID_00000025434864807728958410000015940272095933637261_);fill:none;stroke:#000000;stroke-linecap:round;stroke-linejoin:round;stroke-miterlimit:10;" d="
			M169,155.2l19.8,1.7l17.9,1.8l20.4,21.9l9.1-5.9l5.7-3.7l12,0.2l4.1,3.8l19.1-12.2v-13.4v-7.2v-4.8V133v-24.4c0,0-17.9-4.5-37-6.5
			c19.4-7.6,37-11.6,37-11.6V72.2l-7.6,2.5L264,64l3.8-2.3l-16.6-17.1l-7.7,1.5l-0.3-8.2L225,22.1l-4.1,14.5l-1.8-5.6l-4.8,0.7"/>
		
			<path style="clip-path:url(#SVGID_00000025434864807728958410000015940272095933637261_);fill:none;stroke:#000000;stroke-linecap:round;stroke-linejoin:round;stroke-miterlimit:10;" d="
			M48.2,157.4l21.4,1.8l2.5,0.2c7.7,1.5,27,1.9,27,1.9l13.3,12.1l9.9-4.4l6.6-3.2l5.6-1l0.8-0.1l15.2-9.8"/>
		
			<path style="clip-path:url(#SVGID_00000025434864807728958410000015940272095933637261_);fill:none;stroke:#000000;stroke-linecap:round;stroke-linejoin:round;stroke-miterlimit:10;" d="
			M81.7,35.8c-2.4,1.9-4.8,3.9-7.1,5.8c-3.9,3.2-7.5,6.4-10.7,9.2c-2.3,2-4.3,3.9-5.8,5.5c0,0-0.4-2.5-3.5-7
			c-1.7-2.4-3.8-4.1-3.8-4.1l16.2-11.7c0,0,31-19.5,37.8-22.6c6.8-3.1,6.8-3.1,6.8-3.1s7.9-3.8,13.1-1.8c5.2,2,5.6,9.1,4.3,12.1
			c-3-4-4.3-4.9-5.4-6c-1.1-1.1-5.9-1.9-12,1.3C108.1,15.1,94.7,25.3,81.7,35.8"/>
		
			<line style="clip-path:url(#SVGID_00000025434864807728958410000015940272095933637261_);fill:none;stroke:#000000;stroke-linecap:round;stroke-linejoin:round;stroke-miterlimit:10;" x1="107.5" y1="22.1" x2="112.9" y2="24.2"/>
		
			<line style="clip-path:url(#SVGID_00000025434864807728958410000015940272095933637261_);fill:none;stroke:#000000;stroke-linecap:round;stroke-linejoin:round;stroke-miterlimit:10;" x1="117.8" y1="27" x2="121.6" y2="28.8"/>
		
			<path style="clip-path:url(#SVGID_00000025434864807728958410000015940272095933637261_);fill:none;stroke:#000000;stroke-linecap:round;stroke-linejoin:round;stroke-miterlimit:10;" d="
			M115.9,26.2c0,0-0.9,8.9-2,9.8s-1.1,0.9-1.1,0.9l-1.7-1.7"/>
		
			<path style="clip-path:url(#SVGID_00000025434864807728958410000015940272095933637261_);fill:none;stroke:#000000;stroke-linecap:round;stroke-linejoin:round;stroke-miterlimit:10;" d="
			M106.8,35.9c0.1,0,1.9,2.6,2.9,2.1"/>
		
			<path style="clip-path:url(#SVGID_00000025434864807728958410000015940272095933637261_);fill:none;stroke:#000000;stroke-linecap:round;stroke-linejoin:round;stroke-miterlimit:10;" d="
			M125.6,20.8c-0.2,0.4-1,0.4-1.9,0c-0.9-0.4-1.4-1.1-1.2-1.5c0.2-0.4,1-0.4,1.9,0S125.8,20.4,125.6,20.8z"/>
		
			<path style="clip-path:url(#SVGID_00000025434864807728958410000015940272095933637261_);fill:none;stroke:#000000;stroke-linecap:round;stroke-linejoin:round;stroke-miterlimit:10;" d="
			M118.2,16.5c-0.1,0.4-0.9,0.6-1.9,0.4c-0.9-0.2-1.6-0.7-1.5-1.2c0.1-0.4,0.9-0.6,1.9-0.4C117.6,15.6,118.3,16.1,118.2,16.5z"/>
		
			<path style="clip-path:url(#SVGID_00000025434864807728958410000015940272095933637261_);fill:none;stroke:#000000;stroke-linecap:round;stroke-linejoin:round;stroke-miterlimit:10;" d="
			M112,42.7c-0.5,0.2-1.1,0.4-1.8,0.6c-1.1,0.3-2.2,0.4-3.4,0.5c-2.2,0.1-4.4-0.2-6.6-0.6c-4.8-1.5-5.5-5.3-5.5-5.3"/>
		
			<path style="clip-path:url(#SVGID_00000025434864807728958410000015940272095933637261_);fill:none;stroke:#000000;stroke-linecap:round;stroke-linejoin:round;stroke-miterlimit:10;" d="
			M129,18.1c-3,5.8-5.6,7.5-6.3,9.6c-0.6,1.4-1.1,2.9-1.7,4.2h0c-1.9,4.7-4,8.7-9.1,10.7"/>
		
			<polyline style="clip-path:url(#SVGID_00000025434864807728958410000015940272095933637261_);fill:none;stroke:#000000;stroke-linecap:round;stroke-linejoin:round;stroke-miterlimit:10;" points="
			81.7,35.8 81.7,35.8 83,53.4 100.2,43.1 		"/>
		
			<polyline style="clip-path:url(#SVGID_00000025434864807728958410000015940272095933637261_);fill:none;stroke:#000000;stroke-linecap:round;stroke-linejoin:round;stroke-miterlimit:10;" points="
			74.6,41.6 75.8,61 83,53.4 		"/>
		
			<path style="clip-path:url(#SVGID_00000025434864807728958410000015940272095933637261_);fill:none;stroke:#000000;stroke-linecap:round;stroke-linejoin:round;stroke-miterlimit:10;" d="
			M36.7,136.8c-13.1,4.1-28.1-3.1-28.1-3.1s3.9-21,6.8-34.7c0.3-1.5,0.6-2.9,0.9-4.1C15,90.5,9,77.9,3.4,68.2l4-4.5l3.3-3.7l2.6-2.9
			c0,0,8.4-14.8,18.6-16.8c10.2-2,12.1,0.9,20.7,6.5"/>
		
			<path style="clip-path:url(#SVGID_00000025434864807728958410000015940272095933637261_);fill:none;stroke:#000000;stroke-linecap:round;stroke-linejoin:round;stroke-miterlimit:10;" d="
			M67.2,148.9c-1.9-1.4-3.1-2-3.9-2.2c-0.9-0.3-1.2-0.2-1.2-0.2l-0.9,0.7l-2.8,2.2l-10.3,8l-10.6,8.3l-6.3-4.8
			c0,0,20.1-11.7,26.9-18"/>
		
			<path style="clip-path:url(#SVGID_00000025434864807728958410000015940272095933637261_);fill:none;stroke:#000000;stroke-linecap:round;stroke-linejoin:round;stroke-miterlimit:10;" d="
			M116.2,149.9c-0.8-0.5-1.6-1.2-2.5-1.9c-1.2-1-2.4-2.3-3.7-3.8c-1-1.2-2.1-2.7-3.2-4.3c-3.7,1.9-8.3,4.1-12.9,6.2
			c-10,4.6-19.8,8.8-19.8,8.8c-2.9-2.8-5.2-4.7-6.9-5.9"/>
		
			<path style="clip-path:url(#SVGID_00000025434864807728958410000015940272095933637261_);fill:none;stroke:#000000;stroke-linecap:round;stroke-linejoin:round;stroke-miterlimit:10;" d="
			M117.8,63.7c0.3,0.4,0.6,0.8,1,1.2c1,1.2,2.2,2.5,3.5,4.2c0.7,0.9,1.5,2,2.2,3.2c1,1.7,2.1,3.7,3,6.1c0.8,2.1,1.5,4.5,2.2,7.4
			c0.2,1.1,0.5,2.1,0.7,3.2c0.7,2.7,1.4,5.4,2.1,7.8c1.2,4,2.4,7.4,3.4,10.1c1.5,4,2.5,6.3,2.5,6.3c7.7-2.7,25.7-8.2,34.2-1.5
			c1.4,1.1,2.8,2.4,4.2,4c2.9,3.2,5.6,7.1,7.9,11c0.7,1.2,1.3,2.3,1.9,3.4c0.2,0.4,0.4,0.8,0.6,1.2c0.6,1.1,1.1,2.2,1.6,3.3
			c1,2.3,1.6,4.1,1.6,5.2c-10.3,1.3-21.2,4.1-29.9,6.7c-3.5,1.1-6.7,2.1-9.4,3c-3.9,1.3-7,2.3-9.7,3c-3.7,0.9-6.9,1.2-10.9,0.7
			c-4.6-0.6-9,0.3-14.3-3.2"/>
		
			<path style="clip-path:url(#SVGID_00000025434864807728958410000015940272095933637261_);fill:none;stroke:#000000;stroke-linecap:round;stroke-linejoin:round;stroke-miterlimit:10;" d="
			M112,42.6L112,42.6c0,3.4,1.3,10,3,15c0.2,0.5,0.4,1.1,0.6,1.6c0.4,1.2,0.9,2.2,1.4,3c0.3,0.5,0.6,0.9,0.9,1.4"/>
		
			<path style="clip-path:url(#SVGID_00000025434864807728958410000015940272095933637261_);fill:none;stroke:#000000;stroke-linecap:round;stroke-linejoin:round;stroke-miterlimit:10;" d="
			M55.9,126.6c-17.3-8.8-25-22.3-29.2-34.1c-2.1-6.1-3.3-11.7-4.3-16"/>
		
			<path style="clip-path:url(#SVGID_00000025434864807728958410000015940272095933637261_);fill:none;stroke:#000000;stroke-linecap:round;stroke-linejoin:round;stroke-miterlimit:10;" d="
			M37.9,43.7c0,0-2,24.3-1,25.3c0,0.2-0.1,0.5-0.2,1c-0.1,0.7-0.2,1.6-0.4,2.6c-0.1,1.1-0.3,2.3-0.4,3.3c-0.2,1.3-0.3,2.3-0.3,2.3
			c-4.2,0.1-8.8-0.8-13.2-2.2c-7-2.2-13.8-5.6-19.1-7.8"/>
		
			<path style="clip-path:url(#SVGID_00000025434864807728958410000015940272095933637261_);fill:none;stroke:#000000;stroke-linecap:round;stroke-linejoin:round;stroke-miterlimit:10;" d="
			M62.1,146.5l-0.2-3.2c-1.3-0.1-2.5-0.2-3.7-0.3c-1.8-0.2-3.5-0.5-5.1-0.9c-1.7-0.4-3.3-0.9-4.9-1.5c-1.1-0.4-2.2-0.9-3.3-1.4
			c-1.4-0.7-2.8-1.4-4.1-2.2c-0.8-0.5-1.6-1-2.3-1.6c-12.7-9.2-18.8-24.5-23-36.4"/>
		
			<path style="clip-path:url(#SVGID_00000025434864807728958410000015940272095933637261_);fill:none;stroke:#000000;stroke-linecap:round;stroke-linejoin:round;stroke-miterlimit:10;" d="
			M61.9,143.2v-1.5v-2C32.3,127.9,28,114.3,16.3,94.9"/>
		
			<path style="clip-path:url(#SVGID_00000025434864807728958410000015940272095933637261_);fill:none;stroke:#000000;stroke-linecap:round;stroke-linejoin:round;stroke-miterlimit:10;" d="
			M61.9,139.7c0,0-4.3-7.1-5.6-13.2c-0.5-2.6-0.5-5.1,0.6-6.7c0.4-0.6,0.9-1.2,1.5-1.8c1-1.1,2.1-2.2,3.5-3.2
			c2.3-1.8,5.3-3.5,8.7-4.8c2-0.7,4.1-1.3,6.4-1.6c2.4-0.4,5-0.5,7.7-0.3c14.1,0.8,39.4-0.1,39.4-0.1"/>
		
			<path style="clip-path:url(#SVGID_00000025434864807728958410000015940272095933637261_);fill:none;stroke:#000000;stroke-linecap:round;stroke-linejoin:round;stroke-miterlimit:10;" d="
			M78.8,114.5c13.7,3.1,43.5,5.8,53.8,1.9"/>
		
			<path style="clip-path:url(#SVGID_00000025434864807728958410000015940272095933637261_);fill:none;stroke:#000000;stroke-linecap:round;stroke-linejoin:round;stroke-miterlimit:10;" d="
			M68.3,122.7c0,0,1.6,5.5,13.4,10.3c1.2,0.5,2.5,1,4,1.5c1.6,0.5,3.3,1,5.2,1.5c4.4,1.1,9.7,2,15.9,2.7c7.2,0.8,15.7,1.1,25.7,1
			c14.3-0.5,33.7-2.7,52-13.1"/>
		
			<path style="clip-path:url(#SVGID_00000025434864807728958410000015940272095933637261_);fill:none;stroke:#000000;stroke-linecap:round;stroke-linejoin:round;stroke-miterlimit:10;" d="
			M81.7,133c0,0-9.6,5.8-19.7,8.7"/>
		
			<path style="clip-path:url(#SVGID_00000025434864807728958410000015940272095933637261_);fill:none;stroke:#000000;stroke-linecap:round;stroke-linejoin:round;stroke-miterlimit:10;" d="
			M85.7,134.5C85.7,134.5,85.7,134.5,85.7,134.5c-0.4,0.3-12.7,9.3-22.4,12.2c-0.7,0.2-1.4,0.4-2.1,0.5"/>
		
			<path style="clip-path:url(#SVGID_00000025434864807728958410000015940272095933637261_);fill:none;stroke:#000000;stroke-linecap:round;stroke-linejoin:round;stroke-miterlimit:10;" d="
			M91,136c0,0-5.9,8-23.7,12.9h0"/>
		
			<path style="clip-path:url(#SVGID_00000025434864807728958410000015940272095933637261_);fill:none;stroke:#000000;stroke-linecap:round;stroke-linejoin:round;stroke-miterlimit:10;" d="
			M110,144.1c7,0.1,19.3,1.3,29.9,0c10.6-1.3,43.4-11.8,46.7-14.1"/>
		
			<path style="clip-path:url(#SVGID_00000025434864807728958410000015940272095933637261_);fill:none;stroke:#000000;stroke-linecap:round;stroke-linejoin:round;stroke-miterlimit:10;" d="
			M113.7,147.9c11,0.6,33.6,0.7,52.7-6.2c19.1-6.9,22.4-7.2,22.4-7.2"/>
		
			<path style="clip-path:url(#SVGID_00000025434864807728958410000015940272095933637261_);fill:none;stroke:#000000;stroke-linecap:round;stroke-linejoin:round;stroke-miterlimit:10;" d="
			M190.5,139.7c-0.1,0.8-0.9,1.9-2,3.2c-1.7,1.9-4.2,4-6.9,6c-3.8,2.8-8,5.2-10.7,5.9c-0.5,0.1-1.2,0.3-1.9,0.4
			c-3,0.4-7.4,0.4-11.9,0.1c-2.2-0.1-4.5-0.4-6.6-0.7c-3.8-0.5-7.1-1.3-9.1-2.3"/>
		
			<polyline style="clip-path:url(#SVGID_00000025434864807728958410000015940272095933637261_);fill:none;stroke:#000000;stroke-linecap:round;stroke-linejoin:round;stroke-miterlimit:10;" points="
			116.2,149.9 116.3,149.9 134.5,164.6 134.5,164.7 		"/>
		
			<polyline style="clip-path:url(#SVGID_00000025434864807728958410000015940272095933637261_);fill:none;stroke:#000000;stroke-linecap:round;stroke-linejoin:round;stroke-miterlimit:10;" points="
			93.9,146 109.3,148.9 128.9,165.7 		"/>
		
			<polyline style="clip-path:url(#SVGID_00000025434864807728958410000015940272095933637261_);fill:none;stroke:#000000;stroke-linecap:round;stroke-linejoin:round;stroke-miterlimit:10;" points="
			122.3,168.9 105.7,153.4 91.6,154.1 74.1,154.8 		"/>
		
			<line style="clip-path:url(#SVGID_00000025434864807728958410000015940272095933637261_);fill:none;stroke:#000000;stroke-linecap:round;stroke-linejoin:round;stroke-miterlimit:10;" x1="69.5" y1="159.2" x2="58.4" y2="149.3"/>
		
			<line style="clip-path:url(#SVGID_00000025434864807728958410000015940272095933637261_);fill:none;stroke:#000000;stroke-linecap:round;stroke-linejoin:round;stroke-miterlimit:10;" x1="36.7" y1="136.8" x2="38.4" y2="135.3"/>
		
			<path style="clip-path:url(#SVGID_00000025434864807728958410000015940272095933637261_);fill:none;stroke:#000000;stroke-linecap:round;stroke-linejoin:round;stroke-miterlimit:10;" d="
			M78.3,105c5-2,16.7-9.2,23.9-10.2"/>
		
			<path style="clip-path:url(#SVGID_00000025434864807728958410000015940272095933637261_);fill:none;stroke:#000000;stroke-linecap:round;stroke-linejoin:round;stroke-miterlimit:10;" d="
			M86.8,91.9c-5,4.3-6.8,9-8.4,13.1c-0.5,1.2-0.9,2.3-1.4,3.3"/>
		
			<path style="clip-path:url(#SVGID_00000025434864807728958410000015940272095933637261_);fill:none;stroke:#000000;stroke-linecap:round;stroke-linejoin:round;stroke-miterlimit:10;" d="
			M95,79.5L99,85c-5.4,2.1-9.3,4.4-12.2,6.9C89.5,86.8,92.8,81.6,95,79.5z"/>
		
			<path style="clip-path:url(#SVGID_00000025434864807728958410000015940272095933637261_);fill:none;stroke:#000000;stroke-linecap:round;stroke-linejoin:round;stroke-miterlimit:10;" d="
			M70.8,91.9c10.3-10.4,34.7-26,47-28.2h0"/>
		
			<path style="clip-path:url(#SVGID_00000025434864807728958410000015940272095933637261_);fill:none;stroke:#000000;stroke-linecap:round;stroke-linejoin:round;stroke-miterlimit:10;" d="
			M64,50.7L64,50.7c0.3,8.2,0.2,15.1,1.5,21.5c0.4,2,1,4,1.7,6c1,2.5,2.3,5,4,7.5c9.7-8.7,32.7-26.7,43.7-28"/>
		
			<path style="clip-path:url(#SVGID_00000025434864807728958410000015940272095933637261_);fill:none;stroke:#000000;stroke-linecap:round;stroke-linejoin:round;stroke-miterlimit:10;" d="
			M58.1,56.2c2.4,11.1,4.6,28.1,8.3,35.7"/>
		
			<path style="clip-path:url(#SVGID_00000025434864807728958410000015940272095933637261_);fill:none;stroke:#000000;stroke-linecap:round;stroke-linejoin:round;stroke-miterlimit:10;" d="
			M13.2,57.1c0,0,15.8,11.3,23.6,12"/>
		
			<path style="clip-path:url(#SVGID_00000025434864807728958410000015940272095933637261_);fill:none;stroke:#000000;stroke-linecap:round;stroke-linejoin:round;stroke-miterlimit:10;" d="
			M10.7,60c7.3,4.3,21.1,13.1,25.7,12.7"/>
		
			<path style="clip-path:url(#SVGID_00000025434864807728958410000015940272095933637261_);fill:none;stroke:#000000;stroke-linecap:round;stroke-linejoin:round;stroke-miterlimit:10;" d="
			M7.4,63.7c8.7,4.4,24,12.1,28.5,12.3"/>
		
			<polyline style="clip-path:url(#SVGID_00000025434864807728958410000015940272095933637261_);fill:none;stroke:#000000;stroke-linecap:round;stroke-linejoin:round;stroke-miterlimit:10;" points="
			36.9,70.1 42,77.6 38.2,81.5 35.1,84.8 32.7,87.2 28.2,91.9 		"/>
		
			<path style="clip-path:url(#SVGID_00000025434864807728958410000015940272095933637261_);fill:none;stroke:#000000;stroke-linecap:round;stroke-linejoin:round;stroke-miterlimit:10;" d="
			M38.4,81.7c1.5,5.4,15,29.4,23.5,33.1"/>
		
			<path style="clip-path:url(#SVGID_00000025434864807728958410000015940272095933637261_);fill:none;stroke:#000000;stroke-linecap:round;stroke-linejoin:round;stroke-miterlimit:10;" d="
			M32.7,87.2c1.8,6.7,17.4,29.3,24.2,32.6"/>
		
			<path style="clip-path:url(#SVGID_00000025434864807728958410000015940272095933637261_);fill:none;stroke:#000000;stroke-linecap:round;stroke-linejoin:round;stroke-miterlimit:10;" d="
			M35.1,84.8c2.6,5.8,10.5,18.5,23.3,33.2"/>
		
			<polygon style="clip-path:url(#SVGID_00000025434864807728958410000015940272095933637261_);fill:none;stroke:#000000;stroke-linecap:round;stroke-linejoin:round;stroke-miterlimit:10;" points="
			64.7,99.5 56.1,95.2 55.6,99.1 66.2,100.3 		"/>
		
			<polygon style="clip-path:url(#SVGID_00000025434864807728958410000015940272095933637261_);fill:none;stroke:#000000;stroke-linecap:round;stroke-linejoin:round;stroke-miterlimit:10;" points="
			66.2,100.3 74.9,97.4 74.3,102.6 		"/>
		
			<polygon style="clip-path:url(#SVGID_00000025434864807728958410000015940272095933637261_);fill:none;stroke:#000000;stroke-linecap:round;stroke-linejoin:round;stroke-miterlimit:10;" points="
			66.2,100.3 69.8,107.4 66.9,108.3 		"/>
		
			<polygon style="clip-path:url(#SVGID_00000025434864807728958410000015940272095933637261_);fill:none;stroke:#000000;stroke-linecap:round;stroke-linejoin:round;stroke-miterlimit:10;" points="
			66.2,100.3 59.3,106.1 62.7,107.3 		"/>
		
			<path style="clip-path:url(#SVGID_00000025434864807728958410000015940272095933637261_);fill:none;stroke:#000000;stroke-linecap:round;stroke-linejoin:round;stroke-miterlimit:10;" d="
			M161.2,23.9c-8.7,6.9-37,32.9-45.7,35.3"/>
		
			<path style="clip-path:url(#SVGID_00000025434864807728958410000015940272095933637261_);fill:none;stroke:#000000;stroke-linecap:round;stroke-linejoin:round;stroke-miterlimit:10;" d="
			M173.4,27c-7.7,6.7-33.9,31.1-54.7,37.9"/>
		
			<path style="clip-path:url(#SVGID_00000025434864807728958410000015940272095933637261_);fill:none;stroke:#000000;stroke-linecap:round;stroke-linejoin:round;stroke-miterlimit:10;" d="
			M122.3,69.1c15.1-7.2,59.9-40.3,65.1-46.3c0.1-0.1,0.1-0.1,0.2-0.2"/>
		
			<path style="clip-path:url(#SVGID_00000025434864807728958410000015940272095933637261_);fill:none;stroke:#000000;stroke-linecap:round;stroke-linejoin:round;stroke-miterlimit:10;" d="
			M187.4,28.8c-5.1,4.3-44.3,36.9-62.9,43.4"/>
		
			<path style="clip-path:url(#SVGID_00000025434864807728958410000015940272095933637261_);fill:none;stroke:#000000;stroke-linecap:round;stroke-linejoin:round;stroke-miterlimit:10;" d="
			M187.4,15.6c0,0-0.1,3.1,0,7.2c0,1.9,0.1,3.9,0.1,6c0.2,4,0.4,8.1,1,10.8c0.1,0.4,0.1,0.7,0.2,1c1.7,6.5,6.1,18.6,8.3,19.3
			c3.1-4.3,6.4-9.6,9.3-14.4c0.9-1.5,1.8-3,2.6-4.4c0.9-1.6,1.8-3.2,2.5-4.5c1.6-2.9,2.6-4.8,2.7-4.9c0,0,0,0,0,0"/>
		
			<polyline style="clip-path:url(#SVGID_00000025434864807728958410000015940272095933637261_);fill:none;stroke:#000000;stroke-linecap:round;stroke-linejoin:round;stroke-miterlimit:10;" points="
			188.5,39.7 201.5,34.7 206.1,32.9 		"/>
		
			<path style="clip-path:url(#SVGID_00000025434864807728958410000015940272095933637261_);fill:none;stroke:#000000;stroke-linecap:round;stroke-linejoin:round;stroke-miterlimit:10;" d="
			M198,22.7c0.6,3.9,1.7,7.9,3.5,12"/>
		
			<path style="clip-path:url(#SVGID_00000025434864807728958410000015940272095933637261_);fill:none;stroke:#000000;stroke-linecap:round;stroke-linejoin:round;stroke-miterlimit:10;" d="
			M198.7,8.1c-1.2,4.1-1.5,9.1-0.7,14.5"/>
		
			<path style="clip-path:url(#SVGID_00000025434864807728958410000015940272095933637261_);fill:none;stroke:#000000;stroke-linecap:round;stroke-linejoin:round;stroke-miterlimit:10;" d="
			M220.9,36.7c0,0,2,4.6,4.8,9.2c2.4,4.1,5.5,8.2,8.3,9.3"/>
		
			<path style="clip-path:url(#SVGID_00000025434864807728958410000015940272095933637261_);fill:none;stroke:#000000;stroke-linecap:round;stroke-linejoin:round;stroke-miterlimit:10;" d="
			M225.7,45.9l4.6-1.6l10.6-3.6l2.8,5.4c-1.5,2.4-4.6,5.8-9.4,9.3c-2.1,1.5-4.5,3.1-7.3,4.6c-1,0.6-2.1,1.1-3.2,1.6
			c-1.3,0.6-2.6,1.2-4,1.8c-1.2,0.5-2.4,1-3.7,1.4c-15.8,5.7-63.5,21.9-85.6,24"/>
		
			<line style="clip-path:url(#SVGID_00000025434864807728958410000015940272095933637261_);fill:none;stroke:#000000;stroke-linecap:round;stroke-linejoin:round;stroke-miterlimit:10;" x1="225" y1="22.1" x2="230.2" y2="44.3"/>
		
			<path style="clip-path:url(#SVGID_00000025434864807728958410000015940272095933637261_);fill:none;stroke:#000000;stroke-linecap:round;stroke-linejoin:round;stroke-miterlimit:10;" d="
			M132.5,96.7L132.5,96.7c34-5.2,112.2-22.5,131.5-32.7"/>
		
			<path style="clip-path:url(#SVGID_00000025434864807728958410000015940272095933637261_);fill:none;stroke:#000000;stroke-linecap:round;stroke-linejoin:round;stroke-miterlimit:10;" d="
			M135.9,106.8c14.4-3,101.1-20.1,133.5-32.1"/>
		
			<path style="clip-path:url(#SVGID_00000025434864807728958410000015940272095933637261_);fill:none;stroke:#000000;stroke-linecap:round;stroke-linejoin:round;stroke-miterlimit:10;" d="
			M176.8,115.6c7-1.2,14.1-2.5,20.9-3.8c18.5-3.6,35.1-7.5,42.3-9.7"/>
		
			<path style="clip-path:url(#SVGID_00000025434864807728958410000015940272095933637261_);fill:none;stroke:#000000;stroke-linecap:round;stroke-linejoin:round;stroke-miterlimit:10;" d="
			M247,125.1c-1.5-0.5-3.2-0.9-4.9-1.4c-1.9-0.5-3.9-1-6-1.6c-1.6-0.4-3.2-0.8-4.8-1.1c-16.1-3.7-33-6.5-33-6.5"/>
		
			<path style="clip-path:url(#SVGID_00000025434864807728958410000015940272095933637261_);fill:none;stroke:#000000;stroke-linecap:round;stroke-linejoin:round;stroke-miterlimit:10;" d="
			M254.7,127.9c-2.1-0.9-4.7-1.8-7.7-2.8"/>
		
			<path style="clip-path:url(#SVGID_00000025434864807728958410000015940272095933637261_);fill:none;stroke:#000000;stroke-linecap:round;stroke-linejoin:round;stroke-miterlimit:10;" d="
			M227,145.2l17.6,9.1c0,0,0.9-1.9,2.7-5.4c0.8-1.5,1.8-3.2,2.9-5.3c0.7-1.3,1.6-2.7,2.5-4.3c1.6-2.8,3.5-5.9,5.7-9.3
			c-0.9-0.7-2.1-1.4-3.7-2.1"/>
		
			<path style="clip-path:url(#SVGID_00000025434864807728958410000015940272095933637261_);fill:none;stroke:#000000;stroke-linecap:round;stroke-linejoin:round;stroke-miterlimit:10;" d="
			M244.6,154.3l3.3,3c0,0,20.9-0.9,29.1-7.9"/>
		
			<path style="clip-path:url(#SVGID_00000025434864807728958410000015940272095933637261_);fill:none;stroke:#000000;stroke-linecap:round;stroke-linejoin:round;stroke-miterlimit:10;" d="
			M247.3,148.9c0,0,22.5-4.1,29.7-6.7"/>
		
			<path style="clip-path:url(#SVGID_00000025434864807728958410000015940272095933637261_);fill:none;stroke:#000000;stroke-linecap:round;stroke-linejoin:round;stroke-miterlimit:10;" d="
			M250.2,143.6c0,0,24-3.2,26.8-6.2"/>
		
			<path style="clip-path:url(#SVGID_00000025434864807728958410000015940272095933637261_);fill:none;stroke:#000000;stroke-linecap:round;stroke-linejoin:round;stroke-miterlimit:10;" d="
			M252.7,139.3c0,0,14-2.5,24.3-6.3"/>
		
			<polyline style="clip-path:url(#SVGID_00000025434864807728958410000015940272095933637261_);fill:none;stroke:#000000;stroke-linecap:round;stroke-linejoin:round;stroke-miterlimit:10;" points="
			187.2,131.2 192.4,133.9 196.4,136 190.5,137.4 		"/>
		
			<path style="clip-path:url(#SVGID_00000025434864807728958410000015940272095933637261_);fill:none;stroke:#000000;stroke-linecap:round;stroke-linejoin:round;stroke-miterlimit:10;" d="
			M196.4,136l1.7,0.4l2.4,0.5l6.8,1.5l5,1.1c0,0-11.1,15.6-23.6,17.4"/>
		
			<path style="clip-path:url(#SVGID_00000025434864807728958410000015940272095933637261_);fill:none;stroke:#000000;stroke-linecap:round;stroke-linejoin:round;stroke-miterlimit:10;" d="
			M200.6,136.8C200.6,136.8,200.6,136.9,200.6,136.8c-0.4,0.6-4.1,5.8-12.2,6"/>
		
			<path style="clip-path:url(#SVGID_00000025434864807728958410000015940272095933637261_);fill:none;stroke:#000000;stroke-linecap:round;stroke-linejoin:round;stroke-miterlimit:10;" d="
			M198.2,136c17.2-4.3,33.3-8.2,37.8-13.8"/>
		
			<path style="clip-path:url(#SVGID_00000025434864807728958410000015940272095933637261_);fill:none;stroke:#000000;stroke-linecap:round;stroke-linejoin:round;stroke-miterlimit:10;" d="
			M242.1,123.7c0,0-18.1,10.6-34.7,14.5c0,0,0,0-0.1,0.1c-0.7,1.1-6.5,9.7-25.8,10.5"/>
		
			<path style="clip-path:url(#SVGID_00000025434864807728958410000015940272095933637261_);fill:none;stroke:#000000;stroke-linecap:round;stroke-linejoin:round;stroke-miterlimit:10;" d="
			M247,125.1L247,125.1c-9.2,5.4-29.7,14-34.7,14.3"/>
		
			<path style="clip-path:url(#SVGID_00000025434864807728958410000015940272095933637261_);fill:none;stroke:#000000;stroke-linecap:round;stroke-linejoin:round;stroke-miterlimit:10;" d="
			M254.7,127.9C254.7,127.9,254.7,127.9,254.7,127.9c-0.5,0.4-18.2,13.2-27.7,17.3c-1.8,0.8-3.3,1.2-4.3,1.2c-3.1,0-3.1,0-3.1,0
			l-7.3-6.9"/>
		
			<line style="clip-path:url(#SVGID_00000025434864807728958410000015940272095933637261_);fill:none;stroke:#000000;stroke-linecap:round;stroke-linejoin:round;stroke-miterlimit:10;" x1="277" y1="90.5" x2="277" y2="108.6"/>
		
			<line style="clip-path:url(#SVGID_00000025434864807728958410000015940272095933637261_);fill:none;stroke:#000000;stroke-linecap:round;stroke-linejoin:round;stroke-miterlimit:10;" x1="207" y1="45.9" x2="219.7" y2="63.4"/>
		
			<polyline style="clip-path:url(#SVGID_00000025434864807728958410000015940272095933637261_);fill:none;stroke:#000000;stroke-linecap:round;stroke-linejoin:round;stroke-miterlimit:10;" points="
			209,41.2 209,41.2 223.7,61.7 		"/>
		
			<line style="clip-path:url(#SVGID_00000025434864807728958410000015940272095933637261_);fill:none;stroke:#000000;stroke-linecap:round;stroke-linejoin:round;stroke-miterlimit:10;" x1="211.5" y1="36.7" x2="226.9" y2="60"/>
		
			<path style="clip-path:url(#SVGID_00000025434864807728958410000015940272095933637261_);fill:none;stroke:#000000;stroke-linecap:round;stroke-linejoin:round;stroke-miterlimit:10;" d="
			M197.1,60c0,0-33.8,14.7-69.6,18.4h0"/>
		
			<line style="clip-path:url(#SVGID_00000025434864807728958410000015940272095933637261_);fill:none;stroke:#000000;stroke-linecap:round;stroke-linejoin:round;stroke-miterlimit:10;" x1="75.8" y1="61" x2="65.5" y2="72.3"/>
		
			<path style="clip-path:url(#SVGID_00000025434864807728958410000015940272095933637261_);fill:none;stroke:#000000;stroke-linecap:round;stroke-linejoin:round;stroke-miterlimit:10;" d="
			M67.2,78.3l9.1-8.2c0,0,27.4-21.9,28.6-23.5c1.2-1.5,1.9-2.9,1.9-2.9"/>
		
			<path style="clip-path:url(#SVGID_00000025434864807728958410000015940272095933637261_);fill:none;stroke:#000000;stroke-linecap:round;stroke-linejoin:round;stroke-miterlimit:10;" d="
			M160.6,146.4c-0.2,0.1-0.7,8.3-3.4,8.9"/>
		
			<path style="clip-path:url(#SVGID_00000025434864807728958410000015940272095933637261_);fill:none;stroke:#000000;stroke-linecap:round;stroke-linejoin:round;stroke-miterlimit:10;" d="
			M206.6,158.6c0,0,24.3,1.7,25.2,0.5"/>
		
			<path style="clip-path:url(#SVGID_00000025434864807728958410000015940272095933637261_);fill:none;stroke:#000000;stroke-linecap:round;stroke-linejoin:round;stroke-miterlimit:10;" d="
			M236.1,174.6c0,0,5.9-10.6,8.5-12.3c2.6-1.7,9.2,8.8,9.2,8.8"/>
		
			<polyline style="clip-path:url(#SVGID_00000025434864807728958410000015940272095933637261_);fill:none;stroke:#000000;stroke-linecap:round;stroke-linejoin:round;stroke-miterlimit:10;" points="
			66.4,91.9 64.7,99.5 69.5,98.6 70.8,91.9 		"/>
		
			<path style="clip-path:url(#SVGID_00000025434864807728958410000015940272095933637261_);fill:none;stroke:#000000;stroke-linecap:round;stroke-linejoin:round;stroke-miterlimit:10;" d="
			M99.1,161.3c-2.5-1.7-7.2-5.8-7.6-7.2"/>
		
			<path style="clip-path:url(#SVGID_00000025434864807728958410000015940272095933637261_);fill:none;stroke:#000000;stroke-linecap:round;stroke-linejoin:round;stroke-miterlimit:10;" d="
			M192.4,133.9c7.4-1.3,30.8-7,38.8-12.9c0,0,0,0,0,0"/>
		
			<polyline style="clip-path:url(#SVGID_00000025434864807728958410000015940272095933637261_);fill:none;stroke:#000000;stroke-linecap:round;stroke-linejoin:round;stroke-miterlimit:10;" points="
			198,22.7 198,22.7 212.7,23.2 		"/>
		
			<path style="clip-path:url(#SVGID_00000025434864807728958410000015940272095933637261_);fill:none;stroke:#000000;stroke-linecap:round;stroke-linejoin:round;stroke-miterlimit:10;" d="
			M53,142c0,0-13.2,13.6-29.3,15.3c-5.2-2.6-6.5-4.8-6.5-4.8c2.2-0.3,4.7-0.6,7.4-1.1c8.2-1.5,17.9-4.4,23.5-10.8"/>
		
			<path style="clip-path:url(#SVGID_00000025434864807728958410000015940272095933637261_);fill:none;stroke:#000000;stroke-linecap:round;stroke-linejoin:round;stroke-miterlimit:10;" d="
			M34,144.5c4.9-1.5,9.6-3.3,10.8-5.3"/>
		
			<path style="clip-path:url(#SVGID_00000025434864807728958410000015940272095933637261_);fill:none;stroke:#000000;stroke-linecap:round;stroke-linejoin:round;stroke-miterlimit:10;" d="
			M24.6,151.4l-3.5-3.8c0,0,5.5-1,11.2-2.6"/>
		
			<path style="clip-path:url(#SVGID_00000025434864807728958410000015940272095933637261_);fill:none;stroke:#000000;stroke-linecap:round;stroke-linejoin:round;stroke-miterlimit:10;" d="
			M40.5,137.3c0,0-14.1,5.4-25.8,4.8c1.9,2.3,3.7,5.5,3.7,5.5s8.4-1.1,14-2.6c0.6-0.2,1.1-0.3,1.6-0.5"/>
	</g>
</g>
</svg>
