<?xml version="1.0" encoding="UTF-8"?>
<svg xmlns="http://www.w3.org/2000/svg" xmlns:xlink="http://www.w3.org/1999/xlink" viewBox="0 0 273.92 195.89">
  <defs>
    <style>
      .cls-1 {
        stroke-miterlimit: 10;
      }

      .cls-1, .cls-2, .cls-3 {
        fill: none;
      }

      .cls-1, .cls-3 {
        stroke: #000;
      }

      .cls-4 {
        fill: #f2f0d9;
      }

      .cls-4, .cls-5, .cls-2, .cls-6, .cls-7, .cls-8, .cls-9, .cls-10, .cls-11 {
        stroke-width: 0px;
      }

      .cls-5 {
        fill: #f3edd7;
      }

      .cls-3 {
        stroke-linecap: round;
        stroke-linejoin: round;
      }

      .cls-6 {
        fill: #333;
      }

      .cls-7 {
        fill: #e66e5d;
      }

      .cls-12 {
        clip-path: url(#clippath);
      }

      .cls-8 {
        fill: #d2d296;
      }

      .cls-9 {
        fill: #fcecca;
      }

      .cls-10 {
        fill: #8fbfbf;
      }

      .cls-11 {
        fill: #d6c776;
      }
    </style>
    <clipPath id="clippath">
      <rect class="cls-2" x=".4" width="270" height="181.88"/>
    </clipPath>
  </defs>
  <g id="_レイヤー_3" data-name="レイヤー 3">
    <g>
      <g>
        <rect class="cls-5" x=".24" y="161.21" width="3.62" height="5.03"/>
        <path class="cls-5" d="m270.41,188.82v6.57h-30.48l15.37-8.64c1.03,1.62,3.11,2.72,5.52,2.72s4.62-1.18,5.62-2.89l3.97,2.23Z"/>
        <path class="cls-5" d="m270.41,178.25v10.57l-3.97-2.23c.38-.65.59-1.38.59-2.15,0-1.3-.62-2.49-1.62-3.38l5-2.81Z"/>
        <path class="cls-5" d="m270.41,166.24v12l-5,2.81c-1.14-1.01-2.77-1.64-4.6-1.64s-3.31.58-4.44,1.51l-26.12-14.68h40.16Z"/>
        <polygon class="cls-5" points="270.41 90.36 270.41 96.14 1.13 96.14 .24 96.14 .24 90.36 270.41 90.36"/>
        <rect class="cls-5" x="266.41" y="161.21" width="4" height="5.03"/>
        <path class="cls-5" d="m267.03,184.44c0,.76-.21,1.5-.59,2.15l-5.42-3.05,4.4-2.48c1,.9,1.62,2.08,1.62,3.38Z"/>
        <path class="cls-5" d="m261.01,183.53l5.42,3.05c-1,1.7-3.14,2.89-5.62,2.89s-4.49-1.1-5.52-2.72l5.72-3.22Z"/>
        <rect class="cls-6" x="255.09" y="161.21" width="11.32" height="5.03"/>
        <path class="cls-5" d="m265.41,181.05l-4.4,2.48-4.64-2.61c1.13-.93,2.7-1.51,4.44-1.51,1.83,0,3.46.63,4.6,1.64Z"/>
        <path class="cls-5" d="m261.01,183.53l-5.72,3.22c-.44-.69-.7-1.48-.7-2.31,0-1.37.68-2.61,1.77-3.51l4.64,2.61Z"/>
        <path class="cls-5" d="m230.25,166.24l26.12,14.68c-1.1.9-1.77,2.14-1.77,3.51,0,.83.25,1.63.7,2.31l-15.37,8.64h-41.52l-15.66-8.81c.38-.65.59-1.38.59-2.15,0-1.3-.62-2.49-1.62-3.37l26.36-14.82h22.17Zm-5.97,18.19c0-2.77-2.25-5.02-5.02-5.02s-5.03,2.25-5.03,5.02,2.25,5.03,5.03,5.03,5.02-2.25,5.02-5.03Z"/>
        <polygon class="cls-5" points="255.09 166.24 230.25 166.24 224.54 166.24 224.54 161.21 255.09 161.21 255.09 166.24"/>
        <rect class="cls-6" x="213.22" y="161.21" width="11.32" height="5.03"/>
        <path class="cls-6" d="m219.25,179.41c2.77,0,5.02,2.25,5.02,5.02s-2.25,5.03-5.02,5.03-5.03-2.25-5.03-5.03,2.25-5.02,5.03-5.02Z"/>
        <path class="cls-5" d="m208.08,166.24l-26.36,14.82c-1.14-1.02-2.77-1.65-4.6-1.65s-3.31.58-4.44,1.51l-26.12-14.68h61.52Z"/>
        <polygon class="cls-5" points="182.67 166.24 182.67 161.21 213.22 161.21 213.22 166.24 208.08 166.24 182.67 166.24"/>
        <path class="cls-5" d="m198.4,195.39h-42.17l15.37-8.64c1.03,1.62,3.12,2.72,5.52,2.72s4.62-1.18,5.62-2.89l15.66,8.81Z"/>
        <path class="cls-5" d="m183.33,184.44c0,.76-.21,1.5-.59,2.15l-5.42-3.05,4.4-2.47c1,.89,1.62,2.07,1.62,3.37Z"/>
        <path class="cls-5" d="m177.31,183.53l5.42,3.05c-1,1.7-3.14,2.89-5.62,2.89s-4.49-1.1-5.52-2.72l5.72-3.22Z"/>
        <rect class="cls-6" x="171.35" y="161.21" width="11.32" height="5.03"/>
        <path class="cls-5" d="m177.11,179.41c1.83,0,3.46.63,4.6,1.65l-4.4,2.47-4.64-2.61c1.13-.93,2.7-1.51,4.44-1.51Z"/>
        <path class="cls-5" d="m177.31,183.53l-5.72,3.22c-.44-.69-.7-1.48-.7-2.31,0-1.37.68-2.61,1.77-3.51l4.64,2.61Z"/>
        <path class="cls-5" d="m146.55,166.24l26.12,14.68c-1.1.9-1.77,2.14-1.77,3.51,0,.83.25,1.63.7,2.31l-15.37,8.64h-41.52l-15.66-8.81c.38-.65.59-1.38.59-2.15,0-1.3-.62-2.49-1.62-3.37l26.36-14.82h22.17Zm-7.02,18.19c0-2.77-2.25-5.02-5.02-5.02s-5.03,2.25-5.03,5.02,2.25,5.03,5.03,5.03,5.02-2.25,5.02-5.03Z"/>
        <polygon class="cls-5" points="171.35 166.24 146.55 166.24 140.8 166.24 140.8 161.21 171.35 161.21 171.35 166.24"/>
        <rect class="cls-6" x="129.48" y="161.21" width="11.32" height="5.03"/>
        <path class="cls-6" d="m134.5,179.41c2.77,0,5.02,2.25,5.02,5.02s-2.25,5.03-5.02,5.03-5.03-2.25-5.03-5.03,2.25-5.02,5.03-5.02Z"/>
        <path class="cls-5" d="m124.38,166.24l-26.36,14.82c-1.14-1.02-2.77-1.65-4.6-1.65s-3.31.58-4.44,1.51l-26.12-14.68h61.52Z"/>
        <polygon class="cls-5" points="129.48 166.24 124.38 166.24 98.93 166.24 98.93 161.21 129.48 161.21 129.48 166.24"/>
        <path class="cls-5" d="m114.7,195.39h-42.17l15.37-8.64c1.03,1.62,3.11,2.72,5.52,2.72s4.62-1.18,5.62-2.89l15.66,8.81Z"/>
        <path class="cls-5" d="m99.63,184.44c0,.76-.21,1.5-.59,2.15l-5.42-3.05,4.4-2.47c1,.89,1.62,2.07,1.62,3.37Z"/>
        <path class="cls-5" d="m93.62,183.53l5.42,3.05c-1,1.7-3.14,2.89-5.62,2.89s-4.49-1.1-5.52-2.72l5.72-3.22Z"/>
        <rect class="cls-6" x="87.61" y="161.21" width="11.32" height="5.03"/>
        <path class="cls-5" d="m93.42,179.41c1.83,0,3.46.63,4.6,1.65l-4.4,2.47-4.64-2.61c1.13-.93,2.7-1.51,4.44-1.51Z"/>
        <path class="cls-5" d="m93.62,183.53l-5.72,3.22c-.44-.69-.7-1.48-.7-2.31,0-1.37.68-2.61,1.77-3.51l4.64,2.61Z"/>
        <path class="cls-5" d="m62.85,166.24l26.12,14.68c-1.1.9-1.77,2.14-1.77,3.51,0,.83.25,1.63.7,2.31l-15.37,8.64H30.82l-15.66-8.81c.38-.65.59-1.38.59-2.15,0-1.3-.62-2.49-1.62-3.37l26.36-14.82h22.37Zm-8.54,18.19c0-2.77-2.25-5.02-5.02-5.02s-5.03,2.25-5.03,5.02,2.25,5.03,5.03,5.03,5.02-2.25,5.02-5.03Z"/>
        <polygon class="cls-5" points="87.61 166.24 62.85 166.24 57.06 166.24 57.06 161.21 87.61 161.21 87.61 166.24"/>
        <rect class="cls-6" x="45.74" y="161.21" width="11.32" height="5.03"/>
        <path class="cls-6" d="m49.29,179.41c2.77,0,5.02,2.25,5.02,5.02s-2.25,5.03-5.02,5.03-5.03-2.25-5.03-5.03,2.25-5.02,5.03-5.02Z"/>
        <polygon class="cls-5" points="45.74 166.24 40.49 166.24 15.19 166.24 15.19 161.21 45.74 161.21 45.74 166.24"/>
        <path class="cls-5" d="m30.82,195.39H.24v-6.53l3.76-2.11c1.03,1.62,3.12,2.72,5.52,2.72s4.62-1.18,5.62-2.89l15.66,8.81Z"/>
        <path class="cls-5" d="m15.74,184.44c0,.76-.21,1.5-.59,2.15l-5.42-3.05,4.4-2.47c1,.89,1.62,2.07,1.62,3.37Z"/>
        <rect class="cls-6" x="3.87" y="161.21" width="11.32" height="5.03"/>
        <path class="cls-5" d="m9.73,183.53l5.42,3.05c-1,1.7-3.14,2.89-5.62,2.89s-4.49-1.1-5.52-2.72l5.72-3.22Z"/>
        <path class="cls-5" d="m9.53,179.41c1.83,0,3.46.63,4.6,1.65l-4.4,2.47-4.64-2.61c1.13-.93,2.7-1.51,4.44-1.51Z"/>
        <path class="cls-5" d="m9.73,183.53l-5.72,3.22c-.44-.69-.7-1.48-.7-2.31,0-1.37.68-2.61,1.77-3.51l4.64,2.61Z"/>
        <path class="cls-5" d="m.24,178.2l4.84,2.72c-1.1.9-1.77,2.14-1.77,3.51,0,.83.25,1.63.7,2.31l-3.76,2.11v-10.66Z"/>
        <polygon class="cls-8" points="213.22 161.21 182.67 161.21 171.35 161.21 140.8 161.21 129.48 161.21 98.93 161.21 87.61 161.21 57.06 161.21 45.74 161.21 15.19 161.21 3.87 161.21 .24 161.21 .24 96.14 1.13 96.14 270.41 96.14 270.41 161.21 266.41 161.21 255.09 161.21 224.54 161.21 213.22 161.21"/>
        <path class="cls-5" d="m.24,166.24h40.24l-26.36,14.82c-1.14-1.02-2.77-1.65-4.6-1.65s-3.31.58-4.44,1.51l-4.84-2.72v-11.96Z"/>
      </g>
      <g>
        <polyline class="cls-1" points="270.41 195.39 239.92 195.39 198.4 195.39 156.23 195.39 114.7 195.39 72.53 195.39 30.82 195.39 .24 195.39"/>
        <line class="cls-1" x1=".24" y1="90.36" x2="270.41" y2="90.36"/>
        <line class="cls-1" x1=".24" y1="96.14" x2="270.41" y2="96.14"/>
        <line class="cls-1" x1="266.41" y1="161.21" x2="270.41" y2="161.21"/>
        <line class="cls-1" x1="224.54" y1="161.21" x2="255.09" y2="161.21"/>
        <line class="cls-1" x1="182.67" y1="161.21" x2="213.22" y2="161.21"/>
        <line class="cls-1" x1="140.8" y1="161.21" x2="171.35" y2="161.21"/>
        <line class="cls-1" x1="98.93" y1="161.21" x2="129.48" y2="161.21"/>
        <line class="cls-1" x1="57.06" y1="161.21" x2="87.61" y2="161.21"/>
        <line class="cls-1" x1="15.19" y1="161.21" x2="45.74" y2="161.21"/>
        <line class="cls-1" x1=".24" y1="161.21" x2="3.87" y2="161.21"/>
        <line class="cls-1" x1="266.41" y1="166.24" x2="270.41" y2="166.24"/>
        <polyline class="cls-1" points="224.54 166.24 230.25 166.24 255.09 166.24"/>
        <polyline class="cls-1" points="182.67 166.24 208.08 166.24 213.22 166.24"/>
        <polyline class="cls-1" points="140.8 166.24 146.55 166.24 171.35 166.24"/>
        <polyline class="cls-1" points="98.93 166.24 124.38 166.24 129.48 166.24"/>
        <polyline class="cls-1" points="57.06 166.24 62.85 166.24 87.61 166.24"/>
        <polyline class="cls-1" points="15.19 166.24 40.49 166.24 45.74 166.24"/>
        <line class="cls-1" x1=".24" y1="166.24" x2="3.87" y2="166.24"/>
        <polyline class="cls-1" points="72.53 195.39 87.9 186.75 93.62 183.53 98.01 181.06 124.38 166.24"/>
        <polyline class="cls-1" points="114.7 195.39 99.04 186.58 93.62 183.53 88.97 180.92 62.85 166.24"/>
        <path class="cls-1" d="m139.53,184.44c0,2.78-2.25,5.03-5.02,5.03s-5.03-2.25-5.03-5.03,2.25-5.02,5.03-5.02,5.02,2.25,5.02,5.02Z"/>
        <path class="cls-1" d="m224.28,184.44c0,2.78-2.25,5.03-5.02,5.03s-5.03-2.25-5.03-5.03,2.25-5.02,5.03-5.02,5.02,2.25,5.02,5.02Z"/>
        <path class="cls-1" d="m98.01,181.06c1,.89,1.62,2.07,1.62,3.37,0,.76-.21,1.5-.59,2.15-1,1.7-3.14,2.89-5.62,2.89s-4.49-1.1-5.52-2.72c-.44-.69-.7-1.48-.7-2.31,0-1.37.68-2.61,1.77-3.51,1.13-.93,2.7-1.51,4.44-1.51,1.83,0,3.46.63,4.6,1.65Z"/>
        <polyline class="cls-1" points=".24 188.86 4.01 186.75 9.73 183.53 14.13 181.06 40.49 166.24"/>
        <polyline class="cls-1" points="30.82 195.39 15.15 186.58 9.73 183.53 5.09 180.92 .24 178.2"/>
        <path class="cls-1" d="m14.13,181.06c1,.89,1.62,2.07,1.62,3.37,0,.76-.21,1.5-.59,2.15-1,1.7-3.14,2.89-5.62,2.89s-4.49-1.1-5.52-2.72c-.44-.69-.7-1.48-.7-2.31,0-1.37.68-2.61,1.77-3.51,1.13-.93,2.7-1.51,4.44-1.51,1.83,0,3.46.63,4.6,1.65Z"/>
        <polyline class="cls-1" points="156.23 195.39 171.59 186.75 177.31 183.53 181.71 181.06 208.08 166.24"/>
        <polyline class="cls-1" points="198.4 195.39 182.74 186.58 177.31 183.53 172.67 180.92 146.55 166.24"/>
        <path class="cls-1" d="m181.71,181.06c1,.89,1.62,2.07,1.62,3.37,0,.76-.21,1.5-.59,2.15-1,1.7-3.14,2.89-5.62,2.89s-4.49-1.1-5.52-2.72c-.44-.69-.7-1.48-.7-2.31,0-1.37.68-2.61,1.77-3.51,1.13-.93,2.7-1.51,4.44-1.51,1.83,0,3.46.63,4.6,1.65Z"/>
        <polyline class="cls-1" points="239.92 195.39 255.29 186.75 261.01 183.53 265.41 181.05 270.41 178.25"/>
        <polyline class="cls-1" points="270.41 188.82 266.43 186.58 261.01 183.53 256.37 180.92 230.25 166.24"/>
        <path class="cls-1" d="m265.41,181.05c1,.9,1.62,2.08,1.62,3.38,0,.76-.21,1.5-.59,2.15-1,1.7-3.14,2.89-5.62,2.89s-4.49-1.1-5.52-2.72c-.44-.69-.7-1.48-.7-2.31,0-1.37.68-2.61,1.77-3.51,1.13-.93,2.7-1.51,4.44-1.51,1.83,0,3.46.63,4.6,1.64Z"/>
        <path class="cls-1" d="m54.32,184.44c0,2.78-2.25,5.03-5.02,5.03s-5.03-2.25-5.03-5.03,2.25-5.02,5.03-5.02,5.02,2.25,5.02,5.02Z"/>
        <rect class="cls-1" x="3.87" y="161.21" width="11.32" height="5.03"/>
        <rect class="cls-1" x="45.74" y="161.21" width="11.32" height="5.03"/>
        <rect class="cls-1" x="87.61" y="161.21" width="11.32" height="5.03"/>
        <rect class="cls-1" x="129.48" y="161.21" width="11.32" height="5.03"/>
        <rect class="cls-1" x="171.35" y="161.21" width="11.32" height="5.03"/>
        <rect class="cls-1" x="213.22" y="161.21" width="11.32" height="5.03"/>
        <rect class="cls-1" x="255.09" y="161.21" width="11.32" height="5.03"/>
      </g>
    </g>
  </g>
  <g id="_レイヤー_2" data-name="レイヤー 2">
    <g class="cls-12">
      <path class="cls-7" d="m203.99,159.14l-17.61-1.76c12.32-1.75,23.26-17.11,23.26-17.11l7.17,6.82h3.01c1.02,0,2.5-.45,4.28-1.2l17.36,8.95,3.27,2.97s20.63-.91,28.68-7.82v13.2l-18.87,12.07-4.03-3.77s-6.45-10.39-9.05-8.72-8.41,12.17-8.41,12.17l-8.95,5.86-20.12-21.63Z"/>
      <path class="cls-11" d="m273.42,142.87v7.09c-8.05,6.92-28.68,7.82-28.68,7.82l-3.27-2.97s.87-1.89,2.68-5.32h0s22.22-4.02,29.26-6.63Z"/>
      <path class="cls-11" d="m273.42,138.17v4.7c-7.04,2.61-29.26,6.64-29.26,6.64h0c.78-1.47,1.73-3.21,2.86-5.21,0,0,23.64-3.2,26.41-6.13Z"/>
      <path class="cls-11" d="m273.42,133.9v4.28c-2.77,2.93-26.41,6.13-26.41,6.13.73-1.3,1.54-2.71,2.42-4.22,0,0,13.79-2.51,23.99-6.19Z"/>
      <path class="cls-10" d="m228.31,122.06c-15.87-3.67-32.56-6.44-32.56-6.44l-.52-2.65c18.26-3.57,34.65-7.4,41.72-9.55,18.86,1.93,36.47,6.41,36.47,6.41v24.06c-10.2,3.67-23.99,6.19-23.99,6.19,1.62-2.75,3.49-5.83,5.63-9.2-.85-.67-2.09-1.34-3.64-2.03h0c-2.05-.91-4.64-1.82-7.58-2.73h0c-1.53-.47-3.15-.94-4.84-1.4-1.9-.52-3.89-1.03-5.93-1.54-1.56-.38-3.15-.76-4.75-1.12Z"/>
      <path class="cls-4" d="m273.42,91.98v17.86s-17.62-4.48-36.47-6.41c19.11-7.48,36.47-11.45,36.47-11.45Z"/>
      <path class="cls-4" d="m273.42,73.87v18.11s-17.36,3.97-36.47,11.45c-7.07,2.15-23.47,5.98-41.72,9.55-6.75,1.32-13.75,2.6-20.64,3.74-1.37-1.53-2.76-2.87-4.13-3.94-8.38-6.54-26.17-1.18-33.71,1.51,0,0-1.04-2.32-2.49-6.22,14.24-3,99.67-19.77,131.66-31.68l7.51-2.51Z"/>
      <path class="cls-4" d="m260.59,65.82l5.32,10.56c-31.99,11.91-117.42,28.68-131.66,31.68-1-2.67-2.19-6.08-3.35-9.99,33.54-5.09,110.66-22.2,129.69-32.26Z"/>
      <path class="cls-4" d="m248.01,46.7l16.35,16.86-3.77,2.27c-19.03,10.06-96.15,27.16-129.69,32.26-.72-2.39-1.43-4.97-2.09-7.67,21.75-2.09,68.81-18.05,84.4-23.69,1.26-.45,2.48-.93,3.65-1.42,1.39-.57,2.7-1.16,3.96-1.77,1.1-.52,2.16-1.06,3.17-1.62,2.73-1.48,5.12-3,7.2-4.51,4.72-3.44,7.76-6.77,9.27-9.18l7.55-1.51Z"/>
      <path class="cls-7" d="m251.42,128.85c1.55.69,2.79,1.36,3.64,2.03-2.14,3.37-4.01,6.45-5.63,9.2-.89,1.51-1.69,2.92-2.42,4.22-1.12,2-2.08,3.74-2.86,5.2-1.81,3.43-2.68,5.32-2.68,5.32l-17.36-8.95c9.35-4.02,26.79-16.65,27.3-17.02h0Z"/>
      <path class="cls-7" d="m250.52,171.46l-11.82-.25-5.65,3.69s5.81-10.49,8.41-12.17,9.05,8.72,9.05,8.72Z"/>
      <path class="cls-11" d="m243.83,126.12c2.94.91,5.53,1.82,7.58,2.73-.51.37-17.95,13-27.3,17.02-1.77.75-3.25,1.2-4.28,1.2h-3.01l-7.17-6.82c4.89-.33,25.1-8.79,34.18-14.14h0Z"/>
      <polygon class="cls-7" points="240.21 40.16 240.46 48.2 237.69 42.85 227.26 46.42 222.1 24.56 240.21 40.16"/>
      <path class="cls-7" d="m237.69,42.85l2.77,5.36c-1.51,2.41-4.55,5.74-9.27,9.18l-.21-.29c-2.82-1.09-5.82-5.14-8.22-9.14l4.49-1.54,10.43-3.58Z"/>
      <path class="cls-11" d="m238.99,124.72c1.68.46,3.31.93,4.84,1.4-9.07,5.35-29.29,13.81-34.18,14.14l-4.93-1.09c.05-.08.07-.12.07-.12,16.31-3.91,34.2-14.32,34.2-14.32Z"/>
      <path class="cls-11" d="m198.05,137.7l-2.39-.53.09-.38c16.96-4.23,32.85-8.04,37.31-13.6,2.04.5,4.03,1.01,5.93,1.54,0,0-17.88,10.41-34.2,14.32,0,0-.02.04-.07.12l-6.67-1.47Z"/>
      <path class="cls-4" d="m230.99,57.1l.21.29c-2.08,1.51-4.47,3.03-7.2,4.51l-15.14-22.99c1.6-2.83,2.6-4.71,2.69-4.88h0s4.77-.66,4.77-.66l1.76,5.54s1.95,4.49,4.69,9.05c2.39,4,5.4,8.05,8.22,9.14Z"/>
      <path class="cls-11" d="m228.31,122.06c1.6.36,3.19.74,4.75,1.12-4.46,5.56-20.34,9.37-37.31,13.6l-.09.38-1.72-.38-3.91-2.03c7.3-1.27,30.4-6.89,38.28-12.69Z"/>
      <path class="cls-7" d="m222.1,24.56l5.16,21.86-4.49,1.54c-2.74-4.56-4.69-9.05-4.69-9.05l4.02-14.34Z"/>
      <path class="cls-11" d="m208.85,38.9l15.14,22.99c-1.01.55-2.07,1.09-3.17,1.62l-14.48-20.18c.94-1.63,1.79-3.13,2.51-4.43Z"/>
      <path class="cls-11" d="m206.34,43.34l14.48,20.18c-1.26.61-2.57,1.2-3.96,1.77l-12.49-17.26-.59-.35c.91-1.51,1.76-2.97,2.56-4.33Z"/>
      <path class="cls-10" d="m204.37,48.03l12.49,17.26c-1.16.49-2.38.97-3.65,1.42-15.6,5.65-62.65,21.61-84.4,23.69-.25-1.02-.49-2.07-.72-3.12-.6-2.79-1.33-5.18-2.13-7.27,35.33-3.59,68.64-18.11,68.64-18.11,3.04-4.22,6.32-9.44,9.17-14.23l.59.35Z"/>
      <path class="cls-7" d="m206.34,43.34c-.8,1.37-1.66,2.83-2.56,4.33-2.85,4.79-6.13,10.01-9.17,14.23-2.19-.74-6.54-12.68-8.22-19.05-.08-.31-.16-.64-.23-1l12.77-4.96,4.56-1.76,8.05-1.1c-.09.17-1.09,2.05-2.69,4.88-.72,1.3-1.58,2.81-2.51,4.43Z"/>
      <path class="cls-7" d="m196.19,10.73l13.84,14.85-14.55-.51h0c-.8-5.33-.5-10.28.72-14.33Z"/>
      <path class="cls-7" d="m210.03,25.58l-6.54,9.56-4.56,1.76c-1.75-4.02-2.89-8.02-3.45-11.83l14.55.51Z"/>
      <path class="cls-10" d="m228.31,122.06c-7.88,5.8-30.98,11.42-38.28,12.69l-5.12-2.65c-.21-.4-.41-.81-.64-1.22-.58-1.09-1.22-2.22-1.89-3.36-2.25-3.76-4.97-7.66-7.78-10.81,6.89-1.14,13.89-2.42,20.64-3.74l.52,2.65s16.69,2.77,32.56,6.44Z"/>
      <path class="cls-11" d="m204.72,139.17l4.93,1.09s-10.94,15.36-23.26,17.11l-19.49-1.66c.71-.1,1.34-.22,1.87-.35,2.63-.69,6.76-3.09,10.51-5.85,19-.78,24.77-9.25,25.44-10.34Z"/>
      <path class="cls-11" d="m198.05,137.7l6.67,1.47c-.67,1.09-6.43,9.57-25.44,10.34,2.67-1.96,5.16-4.1,6.81-5.93,7.97-.2,11.59-5.32,11.96-5.88Z"/>
      <path class="cls-4" d="m185.05,25.24c-.04-4.04.02-7.09.02-7.09l11.12-7.42c-1.22,4.06-1.52,9-.72,14.33h0c.56,3.81,1.69,7.81,3.45,11.83l-12.77,4.96c-.53-2.68-.82-6.71-.98-10.69-.07-2.05-.12-4.09-.14-5.92Z"/>
      <path class="cls-11" d="m193.93,136.78l1.72.38,2.39.53c-.37.56-3.99,5.68-11.96,5.88,1.12-1.24,1.85-2.34,1.97-3.14-.04-1.03-.63-2.87-1.63-5.12-.43-1-.96-2.08-1.54-3.21l5.12,2.65,3.91,2.03Z"/>
      <path class="cls-10" d="m186.39,42.85c1.67,6.37,6.03,18.31,8.22,19.05,0,0-33.31,14.52-68.64,18.11-.92-2.37-1.92-4.34-2.95-6.02,18.31-6.42,56.98-38.56,62.01-42.82h.16c.16,3.97.44,8,.98,10.68.07.35.15.69.23,1Z"/>
      <path class="cls-11" d="m186.44,135.32c1,2.26,1.59,4.09,1.63,5.12-10.15,1.31-20.86,4.07-29.47,6.64-3.49,1.04-6.62,2.05-9.24,2.92-3.87,1.29-6.89,2.31-9.61,2.98-3.66.91-6.78,1.2-10.72.72-4.49-.55-8.85.27-14.13-3.18h0c-.81-.53-1.63-1.15-2.48-1.9,10.84.59,33.1.68,51.97-6.16,18.86-6.83,22.06-7.13,22.06-7.13Z"/>
      <path class="cls-7" d="m188.06,140.44c-.12.8-.85,1.9-1.97,3.14-1.65,1.83-4.14,3.97-6.81,5.93-3.75,2.76-7.88,5.16-10.51,5.85-.53.14-1.16.26-1.87.35-2.95.39-7.28.43-11.7.15,2.67-.64,3.2-8.73,3.4-8.79,8.61-2.57,19.32-5.33,29.47-6.64Z"/>
      <path class="cls-11" d="m184.9,132.1c.58,1.13,1.1,2.22,1.54,3.21,0,0-3.2.31-22.06,7.13-18.87,6.84-41.13,6.75-51.97,6.16-1.16-1.01-2.38-2.26-3.66-3.77h0c6.95.09,19.02,1.28,29.46,0,10.44-1.28,42.8-11.64,46.05-13.94.23.41.43.82.64,1.22Z"/>
      <path class="cls-11" d="m185.18,31.16h-.16c-5.02,4.27-43.69,36.4-62.01,42.83-.71-1.18-1.44-2.22-2.16-3.14h0c14.88-7.13,59.04-39.72,64.18-45.6.02,1.83.07,3.87.14,5.92Z"/>
      <path class="cls-11" d="m184.12,18.78l.95-.63s-.06,3.05-.02,7.09c-5.13,5.88-49.3,38.47-64.18,45.6h0c-1.25-1.64-2.45-2.95-3.46-4.14,20.5-6.74,46.34-30.74,53.89-37.36l12.83-10.57Z"/>
      <path class="cls-11" d="m182.37,127.52c.67,1.14,1.31,2.27,1.89,3.36-3.25,2.31-35.6,12.66-46.05,13.94-10.43,1.29-22.51.1-29.46,0h0c-1.02-1.21-2.09-2.61-3.19-4.22l.12-1.16c7.07.75,15.46,1.13,25.38,1,14.08-.5,33.21-2.68,51.32-12.92Z"/>
      <path class="cls-10" d="m85.85,93.37c2.8-2.41,6.62-4.74,11.99-6.8l-3.89-5.41c-2.14,2.01-5.41,7.17-8.1,12.21Zm-5,40.52h0s-9.5,5.71-19.39,8.56h-.17v-2.01s-4.26-6.97-5.51-12.98c-.54-2.59-.52-5.01.64-6.63.41-.58.9-1.17,1.45-1.78.95-1.05,2.09-2.13,3.42-3.15,2.32-1.8,5.18-3.48,8.57-4.71l-.8-2.57-3.55-6.98,8.01,2.27.6-5.09-8.61,2.83-1.49-.76,4.8-.96,1.26-6.55c10.19-10.23,34.26-25.68,46.36-27.84h0c.29.38.6.78.95,1.18,1,1.19,2.21,2.5,3.46,4.14.72.93,1.45,1.96,2.16,3.14,1.02,1.67,2.03,3.65,2.95,6.02.8,2.09,1.53,4.48,2.13,7.27.23,1.05.47,2.1.72,3.12.66,2.71,1.37,5.28,2.09,7.67,1.16,3.91,2.35,7.32,3.35,9.99,1.45,3.9,2.49,6.22,2.49,6.22,7.55-2.69,25.33-8.05,33.71-1.51,1.37,1.07,2.76,2.41,4.13,3.94,2.82,3.14,5.54,7.04,7.78,10.81-18.11,10.24-37.24,12.41-51.32,12.92-9.92.14-18.3-.25-25.38-1-6.19-.65-11.37-1.58-15.71-2.66-1.88-.46-3.6-.96-5.17-1.46-1.43-.46-2.74-.95-3.94-1.44Z"/>
      <path class="cls-4" d="m166.51,19.03l4.78,10.31c-7.55,6.62-33.39,30.62-53.89,37.36-.34-.4-.66-.8-.95-1.18h0c-.34-.46-.66-.93-.92-1.39-.45-.81-.91-1.82-1.34-2.98,8.5-2.4,36.47-28.04,45.02-34.84l7.3-7.29Z"/>
      <path class="cls-7" d="m158.59,147.08c-.2.06-.73,8.15-3.4,8.79-2.19-.14-4.4-.35-6.48-.65-3.72-.52-7.01-1.28-8.97-2.25,2.72-.67,5.73-1.68,9.61-2.98,2.62-.87,5.75-1.87,9.24-2.92Z"/>
      <path class="cls-10" d="m148.71,155.22l-14.98,9.7-.83.15-18-14.56c5.28,3.45,9.64,2.63,14.13,3.18,3.94.48,7.06.19,10.72-.72,1.95.97,5.24,1.72,8.97,2.25Z"/>
      <path class="cls-7" d="m159.21,26.32c-8.55,6.8-36.52,32.43-45.02,34.84-.19-.49-.37-1.01-.55-1.55-1.66-4.94-2.99-11.44-2.99-14.83h0c5.05-2,7.09-5.98,8.97-10.57h0c6.33-1.66,18.72-5.94,39.58-7.89Z"/>
      <path class="cls-7" d="m132.9,165.07l-5.55,1.02-19.28-16.58-15.23-2.79c4.49-2.07,9.02-4.23,12.71-6.12,1.1,1.61,2.17,3,3.19,4.23,1.28,1.52,2.5,2.76,3.66,3.77.86.75,1.67,1.37,2.48,1.89h0s18,14.57,18,14.57Z"/>
      <path class="cls-6" d="m61.82,55.67c-2.25,2.01-4.21,3.83-5.75,5.38l-3.58-8.76-2.08-5.07,15.73-11.4s30.82-19.43,37.48-22.45c6.66-3.01,7.92-3.56,7.92-3.56,0,0,7.08-4.28,11.69-1.22,7.62,5.05,3.98,11.84,2.71,14.85-2.98-3.94-4.24-4.87-5.33-5.95-1.08-1.09-5.78-1.85-11.82,1.25-3.5,1.79-16.71,11.78-29.49,22.14h0c-2.37,1.93-4.72,3.86-6.99,5.75-3.83,3.19-7.44,6.29-10.5,9.03Z"/>
      <path class="cls-7" d="m127.35,166.09l-6.54,3.19-16.3-15.26-13.96.6-17.19.74s9.65-4.11,19.49-8.64l15.23,2.79,19.28,16.58Z"/>
      <path class="cls-9" d="m99.07,45.2l-16.99,10.22-1.23-17.43h0c12.78-10.36,25.99-20.35,29.49-22.15,6.04-3.1,10.74-2.34,11.82-1.25,1.09,1.08,2.35,2.01,5.33,5.95-2.98,5.7-5.5,7.42-6.17,9.5-.6,1.42-1.13,2.83-1.68,4.18h0c-1.87,4.59-3.91,8.57-8.97,10.56h0c-.54.22-1.12.41-1.74.58-1.06.3-2.2.43-3.36.47-2.14.09-4.37-.19-6.48-.63Zm25.05-21.94c.19-.39-.36-1.04-1.22-1.45s-1.7-.4-1.89,0c-.19.39.35,1.04,1.22,1.45.86.39,1.7.4,1.89,0Zm-7.31-4.25c.09-.43-.59-.95-1.52-1.15-.93-.2-1.75-.02-1.84.41-.1.43.58.95,1.51,1.14.93.21,1.75.02,1.85-.4Z"/>
      <path class="cls-6" d="m122.9,21.81c.86.4,1.41,1.05,1.22,1.45-.19.4-1.03.39-1.89,0-.87-.4-1.41-1.05-1.22-1.45.19-.4,1.03-.4,1.89,0Z"/>
      <path class="cls-7" d="m120.81,169.28l-9.72,4.35-13.08-11.9c-2.42-1.67-7.11-5.67-7.46-7.11l13.96-.6,16.3,15.26Z"/>
      <path class="cls-6" d="m115.29,17.86c.93.21,1.61.72,1.52,1.15-.1.42-.93.61-1.85.4-.93-.2-1.61-.71-1.51-1.14.09-.43.92-.61,1.84-.41Z"/>
      <path class="cls-4" d="m115.53,64.14c.26.46.57.93.92,1.39-12.11,2.16-36.18,17.62-46.36,27.84l-1.26,6.55-4.8.96,1.71-7.51c-3.62-7.56-5.76-24.26-8.15-35.22,1.55-1.55,3.51-3.37,5.75-5.38.27,8.04.21,14.89,1.51,21.22.41,2.02.97,3.99,1.71,5.92.96,2.49,2.23,4.93,3.94,7.36,9.56-8.54,32.27-26.31,43.13-27.65.18.53.36,1.05.55,1.55.43,1.15.89,2.17,1.34,2.98Z"/>
      <path class="cls-10" d="m110.65,44.79c0,3.39,1.32,9.89,2.99,14.83-10.86,1.34-33.58,19.11-43.13,27.65-1.71-2.43-2.99-4.87-3.94-7.36l8.98-8.06s26.99-21.62,28.17-23.14c1.17-1.51,1.84-2.85,1.84-2.85v-.03c1.16-.04,2.3-.18,3.36-.47.62-.17,1.2-.36,1.74-.57Z"/>
      <path class="cls-11" d="m105.67,139.44l-.12,1.16c-3.68,1.89-8.22,4.05-12.71,6.12-9.84,4.53-19.49,8.64-19.49,8.64-2.88-2.78-5.09-4.63-6.8-5.85,17.6-4.87,23.4-12.73,23.4-12.73,4.34,1.08,9.53,2.01,15.71,2.66Z"/>
      <path class="cls-4" d="m105.55,45.83v.03s-.67,1.34-1.84,2.85c-1.17,1.52-28.17,23.14-28.17,23.14l-8.98,8.06c-.75-1.93-1.3-3.9-1.71-5.92l10.12-11.1,7.1-7.47,16.99-10.22c2.11.44,4.34.72,6.48.63Z"/>
      <path class="cls-10" d="m93.95,81.16l3.89,5.41c-5.37,2.06-9.19,4.38-11.99,6.8,2.69-5.03,5.96-10.2,8.1-12.21Z"/>
      <path class="cls-7" d="m90.55,154.63c.34,1.44,5.03,5.44,7.46,7.11,0,0-19.11-.33-26.66-1.84l-2.51-.22-10.97-9.71,2.72-2.14c.68-.14,1.37-.32,2.08-.52.79.26,2.03.86,3.88,2.21h0c1.7,1.22,3.92,3.07,6.8,5.85l17.19-.74Z"/>
      <path class="cls-11" d="m84.78,135.33c1.58.5,3.29,1,5.17,1.46,0,0-5.8,7.86-23.4,12.73h0c-1.85-1.35-3.09-1.95-3.88-2.21,9.6-2.81,21.71-11.68,22.12-11.98Z"/>
      <path class="cls-4" d="m80.84,37.99l1.23,17.43-7.1,7.47-1.12-19.15c2.28-1.89,4.62-3.82,6.99-5.74Z"/>
      <path class="cls-11" d="m80.84,133.89c1.2.49,2.51.98,3.94,1.44-.4.3-12.52,9.17-22.12,11.98-.9-.3-1.21-.16-1.21-.16l-.17-3.18v-1.52h.17c9.89-2.85,19.39-8.55,19.39-8.55h0Z"/>
      <path class="cls-10" d="m73.85,43.73l1.12,19.15-10.12,11.1c-1.3-6.33-1.24-13.18-1.51-21.22,3.06-2.75,6.67-5.84,10.5-9.03Z"/>
      <polygon class="cls-4" points="74.12 98.8 73.52 103.9 65.51 101.63 74.12 98.8"/>
      <path class="cls-10" d="m36.64,70.84c-7.71-.71-23.31-11.82-23.31-11.82,0,0,8.3-14.59,18.36-16.6,10.06-2.01,12.99,2.09,21.54,7.63l.91,1.19,3.45,6.9c2.38,10.97,4.53,27.66,8.15,35.22l-1.71,7.51-8.43-4.27-.45,3.79,10.37,1.23-6.76,5.74,3.33,1.13,3.43-6.88.69,7.88,2.86-.91.8,2.57c-3.39,1.23-6.26,2.91-8.57,4.71-8.38-3.6-21.63-27.26-23.15-32.61l-.19-.18,3.71-3.87-5.02-7.38-.19-.02c.07-.45.14-.8.19-.99Z"/>
      <polygon class="cls-4" points="65.51 101.63 69.06 108.61 66.2 109.51 65.51 101.63"/>
      <polygon class="cls-7" points="68.83 159.68 47.75 157.9 57.87 149.97 68.83 159.68"/>
      <polygon class="cls-4" points="65.51 101.63 62.08 108.51 58.75 107.38 65.51 101.63"/>
      <polygon class="cls-4" points="65.51 101.63 55.14 100.4 55.59 96.61 64.03 100.87 65.51 101.63"/>
      <path class="cls-4" d="m61.29,143.97l.17,3.18-.87.68-2.72,2.14-10.12,7.93-10.44,8.2-6.21-4.69s19.78-11.56,26.49-17.76c1.19.15,2.42.26,3.69.33Z"/>
      <path class="cls-7" d="m61.29,142.45v1.52c-1.27-.07-2.5-.18-3.69-.33-1.75-.22-3.44-.52-5.04-.91-1.67-.39-3.27-.88-4.8-1.44-1.13-.41-2.22-.88-3.27-1.37-1.42-.67-2.77-1.4-4.05-2.21-.79-.48-1.56-1-2.3-1.54-12.56-9.04-18.56-24.17-22.65-35.86.3-1.45.59-2.82.86-4.07,11.58,19.2,15.76,32.62,44.94,44.19v2.01Z"/>
      <path class="cls-7" d="m55.78,127.45c1.25,6.02,5.51,12.98,5.51,12.98-29.18-11.57-33.37-24.98-44.94-44.19-1.26-4.28-7.17-16.73-12.7-26.28,5.16,2.24,11.89,5.56,18.82,7.73l-.08.35c1.02,4.26,2.18,9.81,4.27,15.8,4.08,11.68,11.69,25.02,28.77,33.66l.36-.07Z"/>
      <path class="cls-11" d="m61.29,115.89c-1.33,1.02-2.47,2.1-3.42,3.15-12.64-14.52-20.39-27.06-22.99-32.74l3.07-3.2.19.18c1.52,5.35,14.77,29.01,23.15,32.61Z"/>
      <path class="cls-11" d="m57.87,119.04c-.55.61-1.03,1.2-1.45,1.78-6.71-3.19-22.14-25.5-23.88-32.1l2.33-2.42c2.6,5.67,10.35,18.22,22.99,32.74Z"/>
      <path class="cls-7" d="m55.78,127.45l-.36.07c-17.07-8.64-24.69-21.98-28.77-33.66l1.44-.49,4.45-4.64c1.74,6.6,17.17,28.91,23.88,32.1-1.16,1.62-1.18,4.04-.64,6.63Z"/>
      <path class="cls-4" d="m47.75,141.3c1.53.56,3.12,1.04,4.8,1.44,0,0-13.06,13.45-28.92,15.05-5.15-2.55-6.41-4.69-6.41-4.69,2.17-.28,4.67-.62,7.33-1.11,8.13-1.49,17.67-4.32,23.2-10.69Z"/>
      <path class="cls-4" d="m44.48,139.93c1.05.49,2.14.96,3.27,1.37-5.53,6.36-15.07,9.2-23.2,10.69l-3.43-3.73s5.41-1.01,11.05-2.61c.57-.16,1.11-.32,1.62-.47,4.85-1.45,9.51-3.29,10.69-5.24Z"/>
      <path class="cls-7" d="m36.64,71.85l5.02,7.38-3.71,3.87-3.07,3.2-2.33,2.42-4.45,4.64-1.44.49c-2.09-5.99-3.24-11.55-4.27-15.8l.08-.35c4.36,1.38,8.82,2.3,12.99,2.2,0,0,.1-.98.26-2.29.11-.98.25-2.14.38-3.23.12-.97.25-1.87.35-2.55l.19.02Z"/>
      <path class="cls-4" d="m40.43,137.72c1.28.81,2.63,1.54,4.05,2.21-1.18,1.95-5.84,3.79-10.69,5.24-.5.16-1.04.32-1.62.47-5.54,1.49-13.82,2.61-13.82,2.61,0,0-1.84-3.11-3.68-5.38,11.57.59,25.49-4.72,25.49-4.72l.28-.43Z"/>
      <path class="cls-10" d="m38.13,136.18l-1.66,1.41c-12.92,4.02-27.67-3.1-27.67-3.1,0,0,3.89-20.7,6.69-34.17,4.09,11.69,10.09,26.82,22.65,35.86Z"/>
      <path class="cls-11" d="m36.64,70.84c-.05.19-.12.53-.19.99-.11.68-.24,1.59-.35,2.55-4.5.39-18.08-8.23-25.31-12.48l2.54-2.88s15.6,11.11,23.31,11.82Z"/>
      <path class="cls-11" d="m10.79,61.9c7.23,4.26,20.81,12.88,25.31,12.48-.14,1.09-.28,2.26-.38,3.23-4.47-.17-19.54-7.77-28.14-12.09l3.21-3.63Z"/>
      <path class="cls-11" d="m35.71,77.61c-.16,1.31-.26,2.29-.26,2.29-4.18.1-8.63-.82-12.99-2.2-6.93-2.18-13.65-5.5-18.82-7.73l3.93-4.44c8.6,4.32,23.66,11.92,28.14,12.09Z"/>
      <path class="cls-3" d="m211.54,34.03l-8.05,1.1,6.54-9.56-13.84-14.85-11.12,7.42-.95.63-12.83,10.57-4.78-10.31-7.3,7.29c-20.87,1.95-33.25,6.23-39.58,7.89"/>
      <path class="cls-3" d="m166.9,155.72l19.49,1.66,17.61,1.76,20.12,21.63,8.95-5.86,5.65-3.69,11.82.25,4.03,3.77,18.87-12.07v-53.33s-17.62-4.48-36.47-6.41c19.11-7.48,36.47-11.45,36.47-11.45v-18.11l-7.51,2.51-5.32-10.56,3.77-2.27-16.35-16.86-7.55,1.51-.26-8.05-18.11-15.6-4.02,14.34-1.76-5.54-4.77.65"/>
      <path class="cls-3" d="m47.75,157.9l21.08,1.78,2.51.22c7.55,1.51,26.66,1.84,26.66,1.84l13.08,11.9,9.72-4.35,6.54-3.19,5.55-1.02.83-.15,14.98-9.7"/>
      <path class="cls-3" d="m80.84,37.99c-2.37,1.92-4.72,3.85-6.99,5.74-3.83,3.19-7.44,6.29-10.5,9.03-2.25,2.01-4.21,3.83-5.75,5.38,0,0-.37-2.48-3.45-6.9-1.68-2.41-3.73-4.03-3.73-4.03l15.98-11.58s30.56-19.24,37.23-22.27l6.66-3.01s7.8-3.77,12.96-1.76c5.16,2.01,5.5,8.94,4.24,11.95-2.98-3.94-4.24-4.87-5.33-5.95-1.08-1.09-5.78-1.85-11.82,1.25-3.5,1.79-16.71,11.78-29.49,22.14"/>
      <line class="cls-3" x1="106.27" y1="24.5" x2="111.55" y2="26.58"/>
      <line class="cls-3" x1="116.46" y1="29.35" x2="120.16" y2="31.17"/>
      <path class="cls-3" d="m114.57,28.59s-.88,8.81-2.01,9.68l-1.13.88-1.64-1.64"/>
      <path class="cls-3" d="m105.53,38.14c.06.05,1.85,2.58,2.9,2.12"/>
      <path class="cls-3" d="m124.12,23.26c-.19.4-1.03.39-1.89,0-.87-.4-1.41-1.05-1.22-1.45.19-.4,1.03-.4,1.89,0s1.41,1.05,1.22,1.45Z"/>
      <path class="cls-3" d="m116.81,19.01c-.1.42-.93.61-1.85.4-.93-.2-1.61-.71-1.51-1.14.09-.43.92-.61,1.84-.41.93.21,1.61.72,1.52,1.15Z"/>
      <path class="cls-3" d="m110.65,44.79c-.54.21-1.12.4-1.74.57-1.06.3-2.2.43-3.36.47-2.14.09-4.37-.19-6.48-.63-4.76-1.46-5.39-5.18-5.39-5.18"/>
      <path class="cls-3" d="m127.48,20.54c-2.98,5.7-5.5,7.42-6.17,9.5-.6,1.42-1.13,2.83-1.68,4.18h0c-1.87,4.59-3.91,8.57-8.97,10.56"/>
      <polyline class="cls-3" points="80.84 37.98 80.84 37.99 82.07 55.42 99.07 45.2"/>
      <polyline class="cls-3" points="73.85 43.73 74.97 62.88 82.07 55.42"/>
      <path class="cls-3" d="m36.47,137.59c-12.92,4.02-27.67-3.1-27.67-3.1,0,0,3.89-20.7,6.69-34.17.3-1.45.59-2.82.86-4.07-1.26-4.28-7.17-16.73-12.7-26.28l3.93-4.44,3.21-3.63,2.54-2.88s8.3-14.59,18.36-16.6c10.06-2.01,11.89.85,20.44,6.39"/>
      <path class="cls-3" d="m66.55,149.51c-1.85-1.35-3.09-1.95-3.88-2.21-.9-.3-1.21-.16-1.21-.16l-.87.68-2.72,2.14-10.12,7.93-10.44,8.2-6.21-4.69s19.78-11.56,26.49-17.76"/>
      <path class="cls-3" d="m114.89,150.5c-.81-.52-1.63-1.14-2.48-1.89-1.16-1.01-2.38-2.26-3.66-3.77-1.02-1.22-2.09-2.62-3.19-4.23-3.68,1.89-8.22,4.05-12.71,6.12-9.84,4.53-19.49,8.64-19.49,8.64-2.88-2.78-5.09-4.63-6.8-5.85"/>
      <path class="cls-3" d="m116.46,65.52c.29.38.6.78.95,1.18,1,1.19,2.21,2.5,3.46,4.14.72.93,1.45,1.96,2.16,3.14,1.02,1.67,2.03,3.65,2.95,6.02.8,2.09,1.53,4.48,2.13,7.27.23,1.05.47,2.1.72,3.12.66,2.71,1.37,5.28,2.09,7.67,1.16,3.91,2.35,7.32,3.35,9.99,1.45,3.9,2.49,6.22,2.49,6.22,7.55-2.69,25.33-8.05,33.71-1.51,1.37,1.07,2.76,2.41,4.13,3.94,2.82,3.14,5.54,7.04,7.78,10.81.67,1.14,1.31,2.27,1.89,3.36.23.41.43.82.64,1.22.58,1.13,1.1,2.22,1.54,3.21,1,2.26,1.59,4.09,1.63,5.12-10.15,1.31-20.86,4.07-29.47,6.64-3.49,1.04-6.62,2.05-9.24,2.92-3.87,1.29-6.89,2.31-9.61,2.98-3.66.91-6.78,1.2-10.72.72-4.49-.55-8.85.27-14.13-3.18"/>
      <path class="cls-3" d="m110.65,44.78h0c0,3.4,1.32,9.9,2.99,14.84.18.53.36,1.05.55,1.55.43,1.15.89,2.17,1.34,2.98.26.46.57.93.92,1.39"/>
      <path class="cls-3" d="m55.41,127.52c-17.07-8.64-24.69-21.98-28.77-33.66-2.09-5.99-3.24-11.55-4.27-15.8"/>
      <path class="cls-3" d="m37.64,45.86s-2.01,23.98-1,24.98c-.05.19-.12.53-.19.99-.11.68-.24,1.59-.35,2.55-.14,1.09-.28,2.26-.38,3.23-.16,1.31-.26,2.29-.26,2.29-4.18.1-8.63-.82-12.99-2.2-6.93-2.18-13.65-5.5-18.82-7.73"/>
      <path class="cls-3" d="m61.45,147.15l-.17-3.18c-1.27-.07-2.5-.18-3.69-.33-1.75-.22-3.44-.52-5.04-.91-1.67-.39-3.27-.88-4.8-1.44-1.13-.41-2.22-.88-3.27-1.37-1.42-.67-2.77-1.4-4.05-2.21-.79-.48-1.56-1-2.3-1.54-12.56-9.04-18.56-24.17-22.65-35.86"/>
      <path class="cls-3" d="m61.29,143.97v-3.53c-29.18-11.57-33.37-24.98-44.94-44.19"/>
      <path class="cls-3" d="m61.29,140.44s-4.26-6.97-5.51-12.98c-.54-2.59-.52-5.01.64-6.63.41-.58.9-1.17,1.45-1.78.95-1.05,2.09-2.13,3.42-3.15,2.32-1.8,5.18-3.48,8.57-4.71,1.93-.7,4.04-1.25,6.3-1.6,2.36-.36,4.91-.5,7.61-.33,13.91.84,38.81-.07,38.81-.07"/>
      <path class="cls-3" d="m77.97,115.62c13.51,3.01,42.85,5.7,53.08,1.84"/>
      <path class="cls-3" d="m67.66,123.74s1.62,5.47,13.18,10.15c1.2.49,2.51.98,3.94,1.44,1.58.5,3.29,1,5.17,1.46,4.34,1.08,9.53,2.01,15.71,2.66,7.07.75,15.46,1.13,25.38,1,14.08-.5,33.21-2.68,51.32-12.92"/>
      <path class="cls-3" d="m80.84,133.9s-9.5,5.7-19.39,8.55"/>
      <path class="cls-3" d="m84.79,135.32h0c-.4.31-12.52,9.18-22.12,11.99-.71.21-1.4.38-2.08.52"/>
      <path class="cls-3" d="m89.96,136.78s-5.8,7.86-23.4,12.73h0"/>
      <path class="cls-3" d="m108.75,144.82c6.95.1,19.02,1.29,29.46,0,10.44-1.28,42.8-11.64,46.05-13.94"/>
      <path class="cls-3" d="m112.41,148.61c10.84.59,33.1.68,51.97-6.16,18.86-6.83,22.06-7.13,22.06-7.13"/>
      <path class="cls-3" d="m188.06,140.44c-.12.8-.85,1.9-1.97,3.14-1.65,1.83-4.14,3.97-6.81,5.93-3.75,2.76-7.88,5.16-10.51,5.85-.53.14-1.16.26-1.87.35-2.95.39-7.28.43-11.7.15-2.19-.14-4.4-.35-6.48-.65-3.72-.52-7.01-1.28-8.97-2.25"/>
      <polyline class="cls-3" points="114.89 150.5 114.9 150.51 132.9 165.07 132.91 165.08"/>
      <polyline class="cls-3" points="92.84 146.72 108.07 149.51 127.35 166.09"/>
      <polyline class="cls-3" points="120.81 169.28 104.51 154.02 90.55 154.63 73.36 155.36"/>
      <line class="cls-3" x1="68.83" y1="159.68" x2="57.87" y2="149.97"/>
      <line class="cls-3" x1="36.47" y1="137.59" x2="38.13" y2="136.18"/>
      <path class="cls-3" d="m77.52,106.28c4.98-1.98,16.42-9.02,23.59-10.03"/>
      <path class="cls-3" d="m85.85,93.37c-4.93,4.27-6.72,8.84-8.32,12.92-.45,1.15-.89,2.26-1.37,3.3"/>
      <path class="cls-3" d="m93.95,81.16l3.89,5.41c-5.37,2.06-9.19,4.38-11.99,6.8,2.69-5.03,5.96-10.2,8.1-12.21Z"/>
      <path class="cls-3" d="m70.08,93.37c10.19-10.23,34.26-25.68,46.36-27.84h0"/>
      <path class="cls-3" d="m63.35,52.76h0c.27,8.05.21,14.9,1.51,21.23.41,2.02.97,3.99,1.71,5.92.96,2.49,2.23,4.93,3.94,7.36,9.56-8.54,32.27-26.31,43.13-27.65"/>
      <path class="cls-3" d="m57.59,58.15c2.38,10.97,4.53,27.66,8.15,35.22"/>
      <path class="cls-3" d="m13.33,59.02s15.6,11.11,23.31,11.82"/>
      <path class="cls-3" d="m10.79,61.9c7.23,4.26,20.81,12.88,25.31,12.48"/>
      <path class="cls-3" d="m7.57,65.52c8.6,4.32,23.66,11.92,28.14,12.09"/>
      <polyline class="cls-3" points="36.64 71.85 41.66 79.23 37.95 83.1 34.87 86.3 32.54 88.73 28.09 93.37"/>
      <path class="cls-3" d="m38.13,83.28c1.52,5.35,14.77,29.01,23.15,32.61"/>
      <path class="cls-3" d="m32.54,88.73c1.74,6.6,17.17,28.91,23.88,32.1"/>
      <path class="cls-3" d="m34.87,86.3c2.6,5.67,10.35,18.22,22.99,32.74"/>
      <polygon class="cls-3" points="64.03 100.87 55.59 96.61 55.14 100.4 65.51 101.63 64.03 100.87"/>
      <polygon class="cls-3" points="65.51 101.63 74.12 98.8 73.52 103.9 65.51 101.63"/>
      <polygon class="cls-3" points="65.51 101.63 69.06 108.61 66.2 109.51 65.51 101.63"/>
      <polygon class="cls-3" points="65.51 101.63 58.75 107.38 62.08 108.51 65.51 101.63"/>
      <path class="cls-3" d="m159.21,26.32c-8.55,6.8-36.52,32.43-45.02,34.84"/>
      <path class="cls-3" d="m171.29,29.35c-7.55,6.62-33.39,30.62-53.89,37.36"/>
      <path class="cls-3" d="m120.87,70.84c14.88-7.13,59.04-39.72,64.18-45.6.06-.06.11-.12.16-.18"/>
      <path class="cls-3" d="m185.03,31.17c-5.02,4.26-43.69,36.39-62.01,42.82"/>
      <path class="cls-3" d="m185.07,18.15s-.06,3.05-.02,7.09c.02,1.83.07,3.87.14,5.92.16,3.98.44,8.01.98,10.69.07.35.15.69.23,1,1.67,6.37,6.03,18.31,8.22,19.05,3.04-4.22,6.32-9.44,9.17-14.23.91-1.51,1.76-2.97,2.56-4.33.94-1.63,1.79-3.13,2.51-4.43,1.6-2.83,2.6-4.71,2.69-4.88h0"/>
      <polyline class="cls-3" points="186.16 41.85 198.93 36.89 203.49 35.13"/>
      <path class="cls-3" d="m195.48,25.06c.56,3.81,1.69,7.81,3.45,11.83"/>
      <path class="cls-3" d="m196.19,10.73c-1.22,4.06-1.52,9-.72,14.33"/>
      <path class="cls-3" d="m218.08,38.9s1.95,4.49,4.69,9.05c2.39,4,5.4,8.05,8.22,9.14"/>
      <path class="cls-3" d="m222.77,47.96l4.49-1.54,10.43-3.58,2.77,5.36c-1.51,2.41-4.55,5.74-9.27,9.18-2.08,1.51-4.47,3.03-7.2,4.51-1.01.55-2.07,1.09-3.17,1.62-1.26.61-2.57,1.2-3.96,1.77-1.16.49-2.38.97-3.65,1.42-15.6,5.65-62.65,21.61-84.4,23.69"/>
      <line class="cls-3" x1="222.1" y1="24.56" x2="227.26" y2="46.42"/>
      <path class="cls-3" d="m130.89,98.08h0c33.54-5.09,110.66-22.2,129.69-32.26"/>
      <path class="cls-3" d="m134.25,108.07c14.24-3,99.67-19.77,131.66-31.68"/>
      <path class="cls-3" d="m174.58,116.72c6.89-1.14,13.89-2.42,20.64-3.74,18.26-3.57,34.65-7.4,41.72-9.55"/>
      <path class="cls-3" d="m243.82,126.12c-1.53-.47-3.15-.94-4.84-1.4-1.9-.52-3.89-1.03-5.93-1.54-1.56-.38-3.15-.76-4.75-1.12-15.87-3.67-32.56-6.44-32.56-6.44"/>
      <path class="cls-3" d="m251.41,128.85c-2.05-.91-4.64-1.82-7.58-2.73"/>
      <path class="cls-3" d="m224.11,145.88l17.36,8.95s.87-1.89,2.68-5.32c.78-1.46,1.73-3.2,2.86-5.2.73-1.3,1.54-2.71,2.42-4.22,1.62-2.75,3.49-5.83,5.63-9.2-.85-.67-2.09-1.34-3.64-2.03"/>
      <path class="cls-3" d="m241.47,154.82l3.27,2.97s20.63-.91,28.68-7.82"/>
      <path class="cls-3" d="m244.16,149.51s22.22-4.03,29.26-6.64"/>
      <path class="cls-3" d="m247,144.3s23.64-3.2,26.41-6.13"/>
      <path class="cls-3" d="m249.43,140.08s13.79-2.51,23.99-6.19"/>
      <polyline class="cls-3" points="184.9 132.1 190.02 134.75 193.93 136.78 188.06 138.17"/>
      <path class="cls-3" d="m193.93,136.78l1.72.38,2.39.53,6.67,1.47,4.93,1.09s-10.94,15.36-23.26,17.11"/>
      <path class="cls-3" d="m198.08,137.65s0,.02-.03.05c-.37.56-3.99,5.68-11.96,5.88"/>
      <path class="cls-3" d="m195.75,136.78c16.96-4.23,32.85-8.04,37.31-13.6"/>
      <path class="cls-3" d="m238.99,124.72s-17.88,10.41-34.2,14.32c0,0-.02.04-.07.12-.67,1.09-6.43,9.57-25.44,10.34"/>
      <path class="cls-3" d="m243.83,126.12h0c-9.07,5.35-29.29,13.81-34.18,14.14"/>
      <path class="cls-3" d="m251.42,128.85h0c-.51.37-17.95,13-27.3,17.02-1.77.75-3.25,1.2-4.28,1.2h-3.01l-7.17-6.82"/>
      <line class="cls-3" x1="273.42" y1="91.98" x2="273.42" y2="109.84"/>
      <line class="cls-3" x1="204.37" y1="48.03" x2="216.86" y2="65.29"/>
      <polyline class="cls-3" points="206.33 43.33 206.34 43.34 220.82 63.51"/>
      <line class="cls-3" x1="208.85" y1="38.9" x2="223.99" y2="61.9"/>
      <path class="cls-3" d="m194.6,61.9s-33.31,14.52-68.64,18.11h0"/>
      <line class="cls-3" x1="74.97" y1="62.88" x2="64.85" y2="73.99"/>
      <path class="cls-3" d="m66.57,79.91l8.98-8.06s26.99-21.62,28.17-23.14c1.17-1.51,1.84-2.85,1.84-2.85"/>
      <path class="cls-3" d="m158.59,147.08c-.2.06-.73,8.15-3.4,8.79"/>
      <path class="cls-3" d="m203.99,159.14s23.98,1.67,24.82.54"/>
      <path class="cls-3" d="m233.05,174.91s5.81-10.49,8.41-12.17,9.05,8.72,9.05,8.72"/>
      <polyline class="cls-3" points="65.74 93.37 64.03 100.87 68.82 99.92 70.08 93.37"/>
      <path class="cls-3" d="m98,161.74c-2.42-1.67-7.11-5.67-7.46-7.11"/>
      <path class="cls-3" d="m190.02,134.75c7.3-1.27,30.4-6.89,38.28-12.69,0,0,0,0,0,0"/>
      <polyline class="cls-3" points="195.47 25.06 195.48 25.06 210.03 25.58"/>
      <path class="cls-3" d="m52.55,142.73s-13.06,13.45-28.92,15.05c-5.15-2.55-6.41-4.69-6.41-4.69,2.17-.28,4.67-.62,7.33-1.11,8.13-1.49,17.67-4.32,23.2-10.69"/>
      <path class="cls-3" d="m33.79,145.17c4.85-1.45,9.51-3.29,10.69-5.24"/>
      <path class="cls-3" d="m24.55,151.98l-3.43-3.73s5.41-1.01,11.05-2.61"/>
      <path class="cls-3" d="m40.15,138.15s-13.92,5.31-25.49,4.72c1.84,2.27,3.68,5.38,3.68,5.38,0,0,8.29-1.12,13.82-2.61.57-.16,1.11-.32,1.62-.47"/>
    </g>
  </g>
</svg>