<svg xmlns="http://www.w3.org/2000/svg" xmlns:xlink="http://www.w3.org/1999/xlink" viewBox="0 0 273.9 195.9" style="enable-background:new 0 0 273.9 195.9" xml:space="preserve"><style>.st0{fill:#f3edd7}.st1{fill:#333}.st3{fill:none;stroke:#000;stroke-miterlimit:10}</style><g id="レイヤー_3"><g id="XMLID_00000039096862105843342900000005760561927215356845_"><path class="st0" d="M0 160.7h3.7v5.1H0zm274 28v6.7h-30.9l15.6-8.8c1 1.6 3.2 2.8 5.6 2.8 2.5 0 4.7-1.2 5.7-2.9l4 2.2z"/><path class="st0" d="M274 178v10.7l-4-2.3c.4-.7.6-1.4.6-2.2 0-1.3-.6-2.5-1.6-3.4l5-2.8z"/><path class="st0" d="M274 165.8V178l-5.1 2.8c-1.2-1-2.8-1.7-4.7-1.7-1.8 0-3.4.6-4.5 1.5l-26.5-14.9H274zm0-76.9v5.8H0v-5.8z"/><path class="st0" d="M269.9 160.7h4.1v5.1h-4.1zm.6 23.6c0 .8-.2 1.5-.6 2.2l-5.5-3.1 4.5-2.5c1 .9 1.6 2.1 1.6 3.4zM264.4 183.4l5.5 3.1c-1 1.7-3.2 2.9-5.7 2.9-2.4 0-4.5-1.1-5.6-2.8l5.8-3.2z"/><path class="st1" d="M258.4 160.7h11.5v5.1h-11.5z"/><path class="st0" d="m268.9 180.9-4.5 2.5-4.7-2.6c1.1-.9 2.7-1.5 4.5-1.5 1.9-.1 3.5.5 4.7 1.6z"/><path class="st0" d="m264.4 183.4-5.8 3.3c-.4-.7-.7-1.5-.7-2.3 0-1.4.7-2.6 1.8-3.6l4.7 2.6z"/><path class="st0" d="m233.2 165.8 26.5 14.9c-1.1.9-1.8 2.2-1.8 3.6 0 .8.3 1.6.7 2.3l-15.6 8.8h-42.1l-15.9-8.9c.4-.7.6-1.4.6-2.2 0-1.3-.6-2.5-1.6-3.4l26.7-15h22.5zm-6 18.5c0-2.8-2.3-5.1-5.1-5.1s-5.1 2.3-5.1 5.1 2.3 5.1 5.1 5.1 5.1-2.3 5.1-5.1zm31.2-18.5h-31v-5.1h31z"/><path class="st1" d="M216 160.7h11.5v5.1H216zm6.1 18.5c2.8 0 5.1 2.3 5.1 5.1s-2.3 5.1-5.1 5.1-5.1-2.3-5.1-5.1 2.3-5.1 5.1-5.1z"/><path class="st0" d="m210.8 165.8-26.7 15c-1.2-1-2.8-1.7-4.7-1.7-1.8 0-3.4.6-4.5 1.5l-26.5-14.9h62.4z"/><path class="st0" d="M185 165.8v-5.1h31v5.1h-5.2zm15.9 29.6h-42.8l15.6-8.8c1 1.6 3.2 2.8 5.6 2.8 2.5 0 4.7-1.2 5.7-2.9l15.9 8.9zm-15.2-11.1c0 .8-.2 1.5-.6 2.2l-5.5-3.1 4.5-2.5c.9.9 1.6 2.1 1.6 3.4z"/><path class="st0" d="m179.6 183.4 5.5 3.1c-1 1.7-3.2 2.9-5.7 2.9-2.4 0-4.5-1.1-5.6-2.8l5.8-3.2z"/><path class="st1" d="M173.5 160.7H185v5.1h-11.5z"/><path class="st0" d="M179.4 179.2c1.9 0 3.5.6 4.7 1.7l-4.5 2.5-4.7-2.6c1.1-1 2.7-1.6 4.5-1.6zm.2 4.2-5.8 3.3c-.4-.7-.7-1.5-.7-2.3 0-1.4.7-2.6 1.8-3.6l4.7 2.6z"/><path class="st0" d="m148.4 165.8 26.5 14.9c-1.1.9-1.8 2.2-1.8 3.6 0 .8.3 1.6.7 2.3l-15.6 8.8h-42.1l-15.9-8.9c.4-.7.6-1.4.6-2.2 0-1.3-.6-2.5-1.6-3.4l26.7-15h22.5zm-7.2 18.5c0-2.8-2.3-5.1-5.1-5.1s-5.1 2.3-5.1 5.1 2.3 5.1 5.1 5.1c2.9 0 5.1-2.3 5.1-5.1zm32.3-18.5h-31v-5.1h31z"/><path class="st1" d="M131 160.7h11.5v5.1H131zm5.1 18.5c2.8 0 5.1 2.3 5.1 5.1s-2.3 5.1-5.1 5.1-5.1-2.3-5.1-5.1 2.3-5.1 5.1-5.1z"/><path class="st0" d="m125.9 165.8-26.7 15c-1.2-1-2.8-1.7-4.7-1.7-1.8 0-3.4.6-4.5 1.5l-26.5-14.9h62.4z"/><path class="st0" d="M131 165.8h-30.9v-5.1H131zm-14.9 29.6H73.3l15.6-8.8c1 1.6 3.2 2.8 5.6 2.8 2.5 0 4.7-1.2 5.7-2.9l15.9 8.9zm-15.3-11.1c0 .8-.2 1.5-.6 2.2l-5.5-3.1 4.5-2.5c.9.9 1.6 2.1 1.6 3.4z"/><path class="st0" d="m94.7 183.4 5.5 3.1c-1 1.7-3.2 2.9-5.7 2.9-2.4 0-4.5-1.1-5.6-2.8l5.8-3.2z"/><path class="st1" d="M88.6 160.7h11.5v5.1H88.6z"/><path class="st0" d="M94.5 179.2c1.9 0 3.5.6 4.7 1.7l-4.5 2.5-4.7-2.6c1.1-1 2.7-1.6 4.5-1.6zm.2 4.2-5.8 3.3c-.4-.7-.7-1.5-.7-2.3 0-1.4.7-2.6 1.8-3.6l4.7 2.6z"/><path class="st0" d="M63.5 165.8 90 180.7c-1.1.9-1.8 2.2-1.8 3.6 0 .8.3 1.6.7 2.3l-15.6 8.8H31l-15.9-8.9c.4-.7.6-1.4.6-2.2 0-1.3-.6-2.5-1.6-3.4l26.7-15h22.7zm-8.7 18.5c0-2.8-2.3-5.1-5.1-5.1s-5.1 2.3-5.1 5.1 2.3 5.1 5.1 5.1 5.1-2.3 5.1-5.1zm33.8-18.5h-31v-5.1h31z"/><path class="st1" d="M46.1 160.7h11.5v5.1H46.1zm3.6 18.5c2.8 0 5.1 2.3 5.1 5.1s-2.3 5.1-5.1 5.1-5.1-2.3-5.1-5.1 2.3-5.1 5.1-5.1z"/><path class="st0" d="M46.1 165.8h-31v-5.1h31zM31 195.4H0v-6.6l3.8-2.1c1 1.6 3.2 2.8 5.6 2.8 2.5 0 4.7-1.2 5.7-2.9l15.9 8.8zm-15.3-11.1c0 .8-.2 1.5-.6 2.2l-5.5-3.1 4.5-2.5c1 .9 1.6 2.1 1.6 3.4z"/><path class="st1" d="M3.7 160.7h11.5v5.1H3.7z"/><path class="st0" d="m9.6 183.4 5.5 3.1c-1 1.7-3.2 2.9-5.7 2.9-2.4 0-4.5-1.1-5.6-2.8l5.8-3.2zm-.2-4.2c1.9 0 3.5.6 4.7 1.7l-4.5 2.5-4.7-2.6c1.1-1 2.7-1.6 4.5-1.6z"/><path class="st0" d="m9.6 183.4-5.8 3.3c-.4-.7-.7-1.5-.7-2.3 0-1.4.7-2.6 1.8-3.6l4.7 2.6z"/><path class="st0" d="m0 178 4.9 2.8c-1.1.9-1.8 2.2-1.8 3.6 0 .8.3 1.6.7 2.3L0 188.8V178z"/><path style="fill:#d2d296" d="M216 160.7H0v-66h274v66h-46.6z"/><path class="st0" d="M0 165.8h40.9l-26.7 15c-1.2-1-2.8-1.7-4.7-1.7-1.8 0-3.4.6-4.5 1.5L0 178v-12.2z"/><path class="st3" d="M274 195.4H0M0 88.9h274M0 94.7h274m-4.1 66h4.1m-46.6 0h31m-73.4 0h31m-73.5 0h31m-73.4 0H131m-73.4 0h31m-73.5 0h31m-46.1 0h3.7m266.2 5.1h4.1m-46.6 0h31m-73.4 0h31m-73.5 0h31m-73.4 0H131m-73.4 0h31m-73.5 0h31m-46.1 0h3.7m69.6 29.6 15.6-8.8 5.8-3.2 4.4-2.5 26.8-15.1"/><path class="st3" d="m116.1 195.4-15.9-8.9-5.5-3.1-4.7-2.7-26.5-14.9m77.7 18.5c0 2.8-2.3 5.1-5.1 5.1s-5.1-2.3-5.1-5.1 2.3-5.1 5.1-5.1c2.9 0 5.1 2.3 5.1 5.1zm86 0c0 2.8-2.3 5.1-5.1 5.1s-5.1-2.3-5.1-5.1 2.3-5.1 5.1-5.1 5.1 2.3 5.1 5.1z"/><path class="st3" d="M99.1 180.9c1 .9 1.6 2.1 1.6 3.4 0 .8-.2 1.5-.6 2.2-1 1.7-3.2 2.9-5.7 2.9-2.4 0-4.5-1.1-5.6-2.8-.4-.7-.7-1.5-.7-2.3 0-1.4.7-2.6 1.8-3.6 1.1-.9 2.7-1.5 4.5-1.5 1.9 0 3.6.6 4.7 1.7zM0 188.8l3.8-2.2 5.8-3.2 4.5-2.5 26.7-15.1"/><path class="st3" d="m31 195.4-15.9-8.9-5.5-3.1-4.7-2.7L0 178"/><path class="st3" d="M14.1 180.9c1 .9 1.6 2.1 1.6 3.4 0 .8-.2 1.5-.6 2.2-1 1.7-3.2 2.9-5.7 2.9-2.4 0-4.5-1.1-5.6-2.8-.4-.7-.7-1.5-.7-2.3 0-1.4.7-2.6 1.8-3.6 1.1-.9 2.7-1.5 4.5-1.5 1.8 0 3.5.6 4.7 1.7zm144.1 14.5 15.6-8.8 5.8-3.2 4.4-2.5 26.8-15.1"/><path class="st3" d="m200.9 195.4-15.8-8.9-5.5-3.1-4.8-2.7-26.4-14.9"/><path class="st3" d="M184 180.9c1 .9 1.6 2.1 1.6 3.4 0 .8-.2 1.5-.6 2.2-1 1.7-3.2 2.9-5.7 2.9-2.4 0-4.5-1.1-5.6-2.8-.4-.7-.7-1.5-.7-2.3 0-1.4.7-2.6 1.8-3.6 1.1-.9 2.7-1.5 4.5-1.5 1.9 0 3.6.6 4.7 1.7zm59.1 14.5 15.5-8.8 5.8-3.2 4.5-2.5 5.1-2.9"/><path class="st3" d="m274 188.7-4.1-2.2-5.5-3.1-4.7-2.7-26.5-14.9"/><path class="st3" d="M268.9 180.9c1 .9 1.6 2.1 1.6 3.4 0 .8-.2 1.5-.6 2.2-1 1.7-3.2 2.9-5.7 2.9-2.4 0-4.5-1.1-5.6-2.8-.4-.7-.7-1.5-.7-2.3 0-1.4.7-2.6 1.8-3.6 1.1-.9 2.7-1.5 4.5-1.5 1.9 0 3.5.6 4.7 1.7zm-214.1 3.4c0 2.8-2.3 5.1-5.1 5.1s-5.1-2.3-5.1-5.1 2.3-5.1 5.1-5.1 5.1 2.3 5.1 5.1zM3.7 160.7h11.5v5.1H3.7zm42.4 0h11.5v5.1H46.1zm42.5 0h11.5v5.1H88.6zm42.4 0h11.5v5.1H131zm42.5 0H185v5.1h-11.5zm42.5 0h11.5v5.1H216zm42.4 0h11.5v5.1h-11.5z"/></g></g><g id="レイヤー_2"><defs><path id="SVGID_1_" d="M.1-2.8h273.8v184.5H.1z"/></defs><clipPath id="SVGID_00000025434864807728958410000015940272095933637261_"><use xlink:href="#SVGID_1_" style="overflow:visible"/></clipPath><path style="clip-path:url(#SVGID_00000025434864807728958410000015940272095933637261_);fill:#e66e5d" d="m206.6 158.6-17.9-1.8c12.5-1.8 23.6-17.4 23.6-17.4l7.3 6.9h3.1c1 0 2.5-.5 4.3-1.2l17.6 9.1 3.3 3s20.9-.9 29.1-7.9v13.4L257.9 175l-4.1-3.8s-6.5-10.5-9.2-8.8c-2.6 1.7-8.5 12.3-8.5 12.3l-9.1 5.9-20.4-22z"/><path style="clip-path:url(#SVGID_00000025434864807728958410000015940272095933637261_);fill:#d6c776" d="M277 142.1v7.2c-8.2 7-29.1 7.9-29.1 7.9l-3.3-3s.9-1.9 2.7-5.4c0 .1 22.6-4 29.7-6.7z"/><path style="clip-path:url(#SVGID_00000025434864807728958410000015940272095933637261_);fill:#d6c776" d="M277 137.4v4.8c-7.1 2.6-29.7 6.7-29.7 6.7.8-1.5 1.8-3.2 2.9-5.3 0 0 24-3.3 26.8-6.2z"/><path style="clip-path:url(#SVGID_00000025434864807728958410000015940272095933637261_);fill:#d6c776" d="M277 133v4.3c-2.8 3-26.8 6.2-26.8 6.2.7-1.3 1.6-2.7 2.5-4.3 0 .1 14-2.4 24.3-6.2z"/><path style="clip-path:url(#SVGID_00000025434864807728958410000015940272095933637261_);fill:#8fbfbf" d="M231.3 121c-16.1-3.7-33-6.5-33-6.5l-.5-2.7c18.5-3.6 35.1-7.5 42.3-9.7 19.1 2 37 6.5 37 6.5V133c-10.3 3.7-24.3 6.3-24.3 6.3 1.6-2.8 3.5-5.9 5.7-9.3-.9-.7-2.1-1.4-3.7-2.1-2.1-.9-4.7-1.8-7.7-2.8-1.5-.5-3.2-.9-4.9-1.4-1.9-.5-3.9-1-6-1.6-1.7-.3-3.3-.7-4.9-1.1z"/><path style="clip-path:url(#SVGID_00000025434864807728958410000015940272095933637261_);fill:#f2f0d9" d="M277 90.5v18.1s-17.9-4.5-37-6.5c19.4-7.6 37-11.6 37-11.6z"/><path style="clip-path:url(#SVGID_00000025434864807728958410000015940272095933637261_);fill:#f2f0d9" d="M277 72.2v18.4s-17.6 4-37 11.6c-7.2 2.2-23.8 6.1-42.3 9.7-6.8 1.3-13.9 2.6-20.9 3.8-1.4-1.5-2.8-2.9-4.2-4-8.5-6.6-26.5-1.2-34.2 1.5 0 0-1.1-2.3-2.5-6.3 14.4-3 101.1-20.1 133.5-32.1l7.6-2.6z"/><path style="clip-path:url(#SVGID_00000025434864807728958410000015940272095933637261_);fill:#f2f0d9" d="m264 64 5.4 10.7c-32.4 12.1-119.1 29.1-133.5 32.1-1-2.7-2.2-6.2-3.4-10.1 34-5.2 112.2-22.5 131.5-32.7z"/><path style="clip-path:url(#SVGID_00000025434864807728958410000015940272095933637261_);fill:#f2f0d9" d="m251.3 44.6 16.6 17.1L264 64c-19.3 10.2-97.5 27.5-131.5 32.7-.7-2.4-1.4-5-2.1-7.8 22.1-2.1 69.8-18.3 85.6-24 1.3-.5 2.5-.9 3.7-1.4 1.4-.6 2.7-1.2 4-1.8 1.1-.5 2.2-1.1 3.2-1.6 2.8-1.5 5.2-3 7.3-4.6 4.8-3.5 7.9-6.9 9.4-9.3l7.7-1.6z"/><path style="clip-path:url(#SVGID_00000025434864807728958410000015940272095933637261_);fill:#e66e5d" d="M254.7 127.9c1.6.7 2.8 1.4 3.7 2.1-2.2 3.4-4.1 6.5-5.7 9.3-.9 1.5-1.7 3-2.5 4.3-1.1 2-2.1 3.8-2.9 5.3-1.8 3.5-2.7 5.4-2.7 5.4l-17.6-9.1c9.5-4.1 27.2-16.9 27.7-17.3zm-.9 43.2-12-.2-5.7 3.7s5.9-10.6 8.5-12.3c2.7-1.7 9.2 8.8 9.2 8.8z"/><path style="clip-path:url(#SVGID_00000025434864807728958410000015940272095933637261_);fill:#d6c776" d="M247 125.1c3 .9 5.6 1.8 7.7 2.8-.5.4-18.2 13.2-27.7 17.3-1.8.8-3.3 1.2-4.3 1.2h-3.1l-7.3-6.9c5-.3 25.5-8.9 34.7-14.4z"/><path style="clip-path:url(#SVGID_00000025434864807728958410000015940272095933637261_);fill:#e66e5d" d="m243.3 38 .3 8.1-2.8-5.4-10.6 3.6-5.2-22.2z"/><path style="clip-path:url(#SVGID_00000025434864807728958410000015940272095933637261_);fill:#e66e5d" d="m240.8 40.7 2.8 5.4c-1.5 2.4-4.6 5.8-9.4 9.3l-.2-.3c-2.9-1.1-5.9-5.2-8.3-9.3l4.6-1.6 10.5-3.5z"/><path style="clip-path:url(#SVGID_00000025434864807728958410000015940272095933637261_);fill:#d6c776" d="M242.1 123.7c1.7.5 3.4.9 4.9 1.4-9.2 5.4-29.7 14-34.7 14.3l-5-1.1c0-.1.1-.1.1-.1 16.6-3.9 34.7-14.5 34.7-14.5z"/><path style="clip-path:url(#SVGID_00000025434864807728958410000015940272095933637261_);fill:#d6c776" d="m200.6 136.9-2.4-.5.1-.4c17.2-4.3 33.3-8.2 37.8-13.8 2.1.5 4.1 1 6 1.6 0 0-18.1 10.6-34.7 14.5l-.1.1-6.7-1.5z"/><path style="clip-path:url(#SVGID_00000025434864807728958410000015940272095933637261_);fill:#f2f0d9" d="m234 55.1.2.3c-2.1 1.5-4.5 3.1-7.3 4.6l-15.4-23.3c1.6-2.9 2.6-4.8 2.7-4.9l4.8-.7 1.8 5.6s2 4.6 4.8 9.2c2.5 4 5.5 8.1 8.4 9.2z"/><path style="clip-path:url(#SVGID_00000025434864807728958410000015940272095933637261_);fill:#d6c776" d="M231.3 121c1.6.4 3.2.7 4.8 1.1-4.5 5.6-20.6 9.5-37.8 13.8l-.1.4-1.7-.4-4-2.1c7.3-1.2 30.8-6.9 38.8-12.8z"/><path style="clip-path:url(#SVGID_00000025434864807728958410000015940272095933637261_);fill:#e66e5d" d="m225 22.1 5.2 22.2-4.6 1.6c-2.8-4.6-4.8-9.2-4.8-9.2l4.2-14.6z"/><path style="clip-path:url(#SVGID_00000025434864807728958410000015940272095933637261_);fill:#d6c776" d="M211.5 36.7 226.9 60c-1 .6-2.1 1.1-3.2 1.6L209 41.2c.9-1.7 1.8-3.2 2.5-4.5zm-2.5 4.5 14.7 20.5c-1.3.6-2.6 1.2-4 1.8L207 45.9l-.6-.4c.9-1.4 1.8-2.9 2.6-4.3z"/><path style="clip-path:url(#SVGID_00000025434864807728958410000015940272095933637261_);fill:#8fbfbf" d="m207 45.9 12.7 17.5c-1.2.5-2.4 1-3.7 1.4-15.8 5.7-63.5 21.9-85.6 24-.2-1-.5-2.1-.7-3.2-.6-2.8-1.3-5.3-2.2-7.4 35.8-3.6 69.6-18.4 69.6-18.4 3.1-4.3 6.4-9.6 9.3-14.4l.6.5z"/><path style="clip-path:url(#SVGID_00000025434864807728958410000015940272095933637261_);fill:#e66e5d" d="M209 41.2c-.8 1.4-1.7 2.9-2.6 4.4-2.9 4.9-6.2 10.2-9.3 14.4-2.2-.7-6.6-12.9-8.3-19.3-.1-.3-.2-.6-.2-1l12.9-5 4.6-1.8 8.2-1.1c-.1.2-1.1 2.1-2.7 4.9-.8 1.3-1.7 2.8-2.6 4.5zM198.7 8.1l14 15.1-14.7-.5c-.8-5.5-.5-10.5.7-14.6z"/><path style="clip-path:url(#SVGID_00000025434864807728958410000015940272095933637261_);fill:#e66e5d" d="m212.7 23.2-6.6 9.7-4.6 1.8c-1.8-4.1-2.9-8.1-3.5-12l14.7.5z"/><path style="clip-path:url(#SVGID_00000025434864807728958410000015940272095933637261_);fill:#8fbfbf" d="M231.3 121c-8 5.9-31.4 11.6-38.8 12.9l-5.2-2.7-.6-1.2c-.6-1.1-1.2-2.2-1.9-3.4-2.3-3.8-5-7.8-7.9-11 7-1.2 14.1-2.5 20.9-3.8l.5 2.7c-.1 0 16.9 2.8 33 6.5z"/><path style="clip-path:url(#SVGID_00000025434864807728958410000015940272095933637261_);fill:#d6c776" d="m207.3 138.4 5 1.1s-11.1 15.6-23.6 17.4l-19.8-1.7c.7-.1 1.4-.2 1.9-.4 2.7-.7 6.9-3.1 10.7-5.9 19.3-.8 25.2-9.4 25.8-10.5z"/><path style="clip-path:url(#SVGID_00000025434864807728958410000015940272095933637261_);fill:#d6c776" d="m200.6 136.9 6.8 1.5c-.7 1.1-6.5 9.7-25.8 10.5 2.7-2 5.2-4.2 6.9-6 8-.2 11.7-5.4 12.1-6z"/><path style="clip-path:url(#SVGID_00000025434864807728958410000015940272095933637261_);fill:#f2f0d9" d="M187.4 22.8v-7.2l11.3-7.5c-1.2 4.1-1.5 9.1-.7 14.5.6 3.9 1.7 7.9 3.5 12l-12.9 5c-.5-2.7-.8-6.8-1-10.8-.1-2-.2-4.1-.2-6z"/><path style="clip-path:url(#SVGID_00000025434864807728958410000015940272095933637261_);fill:#d6c776" d="m196.4 136 1.7.4 2.4.5c-.4.6-4 5.8-12.1 6 1.1-1.3 1.9-2.4 2-3.2 0-1-.6-2.9-1.6-5.2-.4-1-1-2.1-1.6-3.3l5.2 2.7 4 2.1z"/><path style="clip-path:url(#SVGID_00000025434864807728958410000015940272095933637261_);fill:#8fbfbf" d="M188.8 40.7c1.7 6.5 6.1 18.6 8.3 19.3 0 0-33.8 14.7-69.6 18.4-.9-2.4-1.9-4.4-3-6.1 18.6-6.5 57.8-39.1 62.9-43.4h.2c.2 4 .4 8.1 1 10.8 0 .3.1.7.2 1z"/><path style="clip-path:url(#SVGID_00000025434864807728958410000015940272095933637261_);fill:#d6c776" d="M188.8 134.5c1 2.3 1.6 4.1 1.6 5.2-10.3 1.3-21.2 4.1-29.9 6.7-3.5 1.1-6.7 2.1-9.4 3-3.9 1.3-7 2.3-9.7 3-3.7.9-6.9 1.2-10.9.7-4.6-.6-9 .3-14.3-3.2-.8-.5-1.6-1.2-2.5-1.9 11 .6 33.6.7 52.7-6.2 19.2-7 22.4-7.3 22.4-7.3z"/><path style="clip-path:url(#SVGID_00000025434864807728958410000015940272095933637261_);fill:#e66e5d" d="M190.5 139.7c-.1.8-.9 1.9-2 3.2-1.7 1.9-4.2 4-6.9 6-3.8 2.8-8 5.2-10.7 5.9-.5.1-1.2.3-1.9.4-3 .4-7.4.4-11.9.1 2.7-.6 3.2-8.9 3.4-8.9 8.8-2.6 19.7-5.4 30-6.7z"/><path style="clip-path:url(#SVGID_00000025434864807728958410000015940272095933637261_);fill:#d6c776" d="M187.2 131.2c.6 1.1 1.1 2.2 1.6 3.3 0 0-3.2.3-22.4 7.2-19.1 6.9-41.7 6.8-52.7 6.2-1.2-1-2.4-2.3-3.7-3.8 7 .1 19.3 1.3 29.9 0 10.6-1.3 43.4-11.8 46.7-14.1l.6 1.2zm.3-102.4h-.2c-5.1 4.3-44.3 36.9-62.9 43.4-.7-1.2-1.5-2.2-2.2-3.2 15.1-7.2 59.9-40.3 65.1-46.3.1 2 .2 4.1.2 6.1z"/><path style="clip-path:url(#SVGID_00000025434864807728958410000015940272095933637261_);fill:#d6c776" d="m186.5 16.3 1-.6s-.1 3.1 0 7.2c-5.2 6-50 39-65.1 46.3-1.3-1.7-2.5-3-3.5-4.2 20.8-6.8 47-31.2 54.7-37.9l12.9-10.8zm-1.8 110.3c.7 1.2 1.3 2.3 1.9 3.4-3.3 2.3-36.1 12.8-46.7 14.1-10.6 1.3-22.8.1-29.9 0-1-1.2-2.1-2.7-3.2-4.3l.1-1.2c7.2.8 15.7 1.1 25.7 1 14.3-.4 33.7-2.7 52.1-13z"/><path style="clip-path:url(#SVGID_00000025434864807728958410000015940272095933637261_);fill:#8fbfbf" d="M86.8 91.9c2.8-2.4 6.7-4.8 12.2-6.9l-4-5.5c-2.2 2.1-5.5 7.3-8.2 12.4zM81.7 133s-9.6 5.8-19.7 8.7h-.2v-2s-4.3-7.1-5.6-13.2c-.5-2.6-.5-5.1.6-6.7.4-.6.9-1.2 1.5-1.8 1-1.1 2.1-2.2 3.5-3.2 2.3-1.8 5.3-3.5 8.7-4.8l-.8-2.6-3.6-7.1 8.1 2.3.6-5.2-8.7 2.9-1.5-.8 4.9-1 1.3-6.6c10.3-10.4 34.7-26 47-28.2.3.4.6.8 1 1.2 1 1.2 2.2 2.5 3.5 4.2.7.9 1.5 2 2.2 3.2 1 1.7 2.1 3.7 3 6.1.8 2.1 1.5 4.5 2.2 7.4.2 1.1.5 2.1.7 3.2.7 2.7 1.4 5.4 2.1 7.8 1.2 4 2.4 7.4 3.4 10.1 1.5 4 2.5 6.3 2.5 6.3 7.7-2.7 25.7-8.2 34.2-1.5 1.4 1.1 2.8 2.4 4.2 4 2.9 3.2 5.6 7.1 7.9 11-18.4 10.4-37.8 12.6-52 13.1-10.1.1-18.6-.2-25.7-1-6.3-.7-11.5-1.6-15.9-2.7-1.9-.5-3.6-1-5.2-1.5-1.6-.6-3-1.1-4.2-1.6z"/><path style="clip-path:url(#SVGID_00000025434864807728958410000015940272095933637261_);fill:#f2f0d9" d="m168.6 16.5 4.8 10.5c-7.7 6.7-33.9 31.1-54.7 37.9-.3-.4-.7-.8-1-1.2-.3-.5-.7-.9-.9-1.4-.5-.8-.9-1.8-1.4-3 8.6-2.4 37-28.4 45.7-35.3l7.5-7.5z"/><path style="clip-path:url(#SVGID_00000025434864807728958410000015940272095933637261_);fill:#e66e5d" d="M160.6 146.4c-.2.1-.7 8.3-3.4 8.9-2.2-.1-4.5-.4-6.6-.7-3.8-.5-7.1-1.3-9.1-2.3 2.8-.7 5.8-1.7 9.7-3 2.7-.8 5.8-1.8 9.4-2.9z"/><path style="clip-path:url(#SVGID_00000025434864807728958410000015940272095933637261_);fill:#8fbfbf" d="m150.5 154.7-15.2 9.8-.8.1-18.3-14.8c5.4 3.5 9.8 2.7 14.3 3.2 4 .5 7.2.2 10.9-.7 2 1.1 5.4 1.8 9.1 2.4z"/><path style="clip-path:url(#SVGID_00000025434864807728958410000015940272095933637261_);fill:#e66e5d" d="M161.2 23.9c-8.7 6.9-37 32.9-45.7 35.3-.2-.5-.4-1-.6-1.6-1.7-5-3-11.6-3-15 5.1-2 7.2-6.1 9.1-10.7 6.5-1.7 19-6 40.2-8zm-26.7 140.7-5.6 1-19.6-16.8-15.4-2.8c4.6-2.1 9.2-4.3 12.9-6.2 1.1 1.6 2.2 3 3.2 4.3 1.3 1.5 2.5 2.8 3.7 3.8.9.8 1.7 1.4 2.5 1.9l18.3 14.8z"/><path style="clip-path:url(#SVGID_00000025434864807728958410000015940272095933637261_);fill:#333" d="M62.4 53.7c-2.3 2-4.3 3.9-5.8 5.5L53 50.3l-2.1-5.1 16-11.6s31.3-19.7 38-22.8c6.8-3.1 8-3.6 8-3.6s7.2-4.3 11.9-1.2c7.7 5.1 4 12 2.8 15.1-3-4-4.3-4.9-5.4-6-1.1-1.1-5.9-1.9-12 1.3-3.5 1.8-16.9 11.9-29.9 22.5-2.4 1.9-4.8 3.9-7.1 5.8-4 3.1-7.7 6.2-10.8 9z"/><path style="clip-path:url(#SVGID_00000025434864807728958410000015940272095933637261_);fill:#e66e5d" d="m128.9 165.7-6.6 3.2-16.5-15.5-14.2.6-17.4.7s9.8-4.2 19.8-8.8l15.4 2.8 19.5 17z"/><path style="clip-path:url(#SVGID_00000025434864807728958410000015940272095933637261_);fill:#fcecca" d="M100.2 43.1 83 53.4l-1.2-17.7c13-10.5 26.4-20.6 29.9-22.5 6.1-3.1 10.9-2.4 12-1.3 1.1 1.1 2.4 2 5.4 6-3 5.8-5.6 7.5-6.3 9.6-.6 1.4-1.1 2.9-1.7 4.2-1.9 4.7-4 8.7-9.1 10.7-.5.2-1.1.4-1.8.6-1.1.3-2.2.4-3.4.5-2.2.3-4.5 0-6.6-.4zm25.4-22.3c.2-.4-.4-1.1-1.2-1.5s-1.7-.4-1.9 0c-.2.4.4 1.1 1.2 1.5.9.4 1.7.4 1.9 0zm-7.4-4.3c.1-.4-.6-1-1.5-1.2-.9-.2-1.8 0-1.9.4-.1.4.6 1 1.5 1.2 1 .2 1.8 0 1.9-.4z"/><path style="clip-path:url(#SVGID_00000025434864807728958410000015940272095933637261_);fill:#333" d="M124.4 19.4c.9.4 1.4 1.1 1.2 1.5-.2.4-1 .4-1.9 0-.9-.4-1.4-1.1-1.2-1.5.1-.5 1-.5 1.9 0z"/><path style="clip-path:url(#SVGID_00000025434864807728958410000015940272095933637261_);fill:#e66e5d" d="m122.3 168.9-9.9 4.4-13.3-12.1c-2.5-1.7-7.2-5.8-7.6-7.2l14.2-.6 16.6 15.5z"/><path style="clip-path:url(#SVGID_00000025434864807728958410000015940272095933637261_);fill:#333" d="M116.7 15.4c.9.2 1.6.7 1.5 1.2-.1.4-.9.6-1.9.4-.9-.2-1.6-.7-1.5-1.2.1-.5.9-.6 1.9-.4z"/><path style="clip-path:url(#SVGID_00000025434864807728958410000015940272095933637261_);fill:#f2f0d9" d="M116.9 62.3c.3.5.6.9.9 1.4-12.3 2.2-36.7 17.9-47 28.2l-1.3 6.6-4.9 1 1.7-7.6c-3.7-7.7-5.8-24.6-8.3-35.7 1.6-1.6 3.6-3.4 5.8-5.5.3 8.2.2 15.1 1.5 21.5.4 2 1 4 1.7 6 1 2.5 2.3 5 4 7.5 9.7-8.7 32.7-26.7 43.7-28 .2.5.4 1.1.6 1.6.7 1.1 1.1 2.2 1.6 3z"/><path style="clip-path:url(#SVGID_00000025434864807728958410000015940272095933637261_);fill:#8fbfbf" d="M112 42.7c0 3.4 1.3 10 3 15-11 1.4-34.1 19.4-43.7 28-1.7-2.5-3-4.9-4-7.5l9.1-8.2s27.4-21.9 28.6-23.5c1.2-1.5 1.9-2.9 1.9-2.9 1.2 0 2.3-.2 3.4-.5.5 0 1.1-.2 1.7-.4z"/><path style="clip-path:url(#SVGID_00000025434864807728958410000015940272095933637261_);fill:#d6c776" d="m106.9 138.7-.1 1.2c-3.7 1.9-8.3 4.1-12.9 6.2-10 4.6-19.8 8.8-19.8 8.8-2.9-2.8-5.2-4.7-6.9-5.9 17.9-5.1 23.8-13 23.8-13 4.4 1.1 9.6 2 15.9 2.7z"/><path style="clip-path:url(#SVGID_00000025434864807728958410000015940272095933637261_);fill:#f2f0d9" d="M106.8 43.7s-.7 1.4-1.9 2.9-28.6 23.5-28.6 23.5l-9.1 8.2c-.8-2-1.3-4-1.7-6L75.8 61l7.2-7.6L100.2 43c2.1.5 4.4.8 6.6.7z"/><path style="clip-path:url(#SVGID_00000025434864807728958410000015940272095933637261_);fill:#8fbfbf" d="m95 79.5 4 5.5c-5.4 2.1-9.3 4.4-12.2 6.9 2.7-5.1 6-10.3 8.2-12.4z"/><path style="clip-path:url(#SVGID_00000025434864807728958410000015940272095933637261_);fill:#e66e5d" d="M91.6 154.1c.3 1.5 5.1 5.5 7.6 7.2 0 0-19.4-.3-27-1.9l-2.5-.2-11.1-9.9 2.8-2.2c.7-.1 1.4-.3 2.1-.5.8.3 2.1.9 3.9 2.2 1.7 1.2 4 3.1 6.9 5.9l17.3-.6z"/><path style="clip-path:url(#SVGID_00000025434864807728958410000015940272095933637261_);fill:#d6c776" d="M85.7 134.5c1.6.5 3.3 1 5.2 1.5 0 0-5.9 8-23.7 12.9-1.9-1.4-3.1-2-3.9-2.2 9.7-2.9 22-11.9 22.4-12.2z"/><path style="clip-path:url(#SVGID_00000025434864807728958410000015940272095933637261_);fill:#f2f0d9" d="M81.7 35.8 83 53.4 75.8 61l-1.1-19.4c2.2-1.9 4.6-3.9 7-5.8z"/><path style="clip-path:url(#SVGID_00000025434864807728958410000015940272095933637261_);fill:#d6c776" d="M81.7 133c1.2.5 2.5 1 4 1.5-.4.3-12.7 9.3-22.4 12.1-.9-.3-1.2-.2-1.2-.2l-.2-3.2v-1.5h.2c10-2.9 19.6-8.7 19.6-8.7z"/><path style="clip-path:url(#SVGID_00000025434864807728958410000015940272095933637261_);fill:#8fbfbf" d="M74.6 41.6 75.8 61 65.5 72.3c-1.3-6.4-1.3-13.4-1.5-21.5 3.1-2.8 6.7-6 10.6-9.2z"/><path style="clip-path:url(#SVGID_00000025434864807728958410000015940272095933637261_);fill:#f2f0d9" d="m74.9 97.4-.6 5.2-8.1-2.3z"/><path style="clip-path:url(#SVGID_00000025434864807728958410000015940272095933637261_);fill:#8fbfbf" d="M36.9 69.1c-7.8-.7-23.6-12-23.6-12s8.4-14.8 18.6-16.8c10.2-2 13.2 2.1 21.9 7.7l.9 1.2 3.5 7c2.4 11.1 4.6 28.1 8.3 35.7l-1.7 7.6-8.6-4.3-.5 3.8 10.5 1.2-6.9 5.8 3.4 1.1 3.5-7 .7 8 2.9-.9.8 2.6c-3.4 1.2-6.3 2.9-8.7 4.8C53.4 111 40 87 38.4 81.5l-.2-.2 3.8-3.9-5.1-7.5h-.2c.1-.3.1-.6.2-.8z"/><path style="clip-path:url(#SVGID_00000025434864807728958410000015940272095933637261_);fill:#f2f0d9" d="m66.2 100.3 3.6 7.1-2.9.9z"/><path style="clip-path:url(#SVGID_00000025434864807728958410000015940272095933637261_);fill:#e66e5d" d="m69.5 159.2-21.3-1.8 10.2-8.1z"/><path style="clip-path:url(#SVGID_00000025434864807728958410000015940272095933637261_);fill:#f2f0d9" d="m66.2 100.3-3.5 7-3.4-1.2zm0 0-10.6-1.2.5-3.9 8.6 4.3zm-4.3 42.9.2 3.2-.9.7-2.8 2.2-10.3 8-10.6 8.3-6.3-4.8s20.1-11.7 26.9-18c1.2.3 2.5.4 3.8.4z"/><path style="clip-path:url(#SVGID_00000025434864807728958410000015940272095933637261_);fill:#e66e5d" d="M61.9 141.7v1.5c-1.3-.1-2.5-.2-3.7-.3-1.8-.2-3.5-.5-5.1-.9-1.7-.4-3.3-.9-4.9-1.5-1.1-.4-2.2-.9-3.3-1.4-1.4-.7-2.8-1.4-4.1-2.2-.8-.5-1.6-1-2.3-1.6-12.7-9.2-18.8-24.5-23-36.4.3-1.5.6-2.9.9-4.1 11.7 19.5 16 33.1 45.6 44.8v2.1z"/><path style="clip-path:url(#SVGID_00000025434864807728958410000015940272095933637261_);fill:#e66e5d" d="M56.3 126.5c1.3 6.1 5.6 13.2 5.6 13.2-29.6-11.8-33.9-25.4-45.6-44.8C15 90.5 9 77.9 3.4 68.2c5.2 2.3 12.1 5.6 19.1 7.8l-.1.4c1 4.3 2.2 10 4.3 16 4.1 11.9 11.9 25.4 29.2 34.1h.4z"/><path style="clip-path:url(#SVGID_00000025434864807728958410000015940272095933637261_);fill:#d6c776" d="M61.9 114.8c-1.3 1-2.5 2.1-3.5 3.2-12.8-14.7-20.7-27.4-23.3-33.2l3.1-3.2.2.2c1.5 5.3 15 29.3 23.5 33z"/><path style="clip-path:url(#SVGID_00000025434864807728958410000015940272095933637261_);fill:#d6c776" d="M58.4 118c-.6.6-1 1.2-1.5 1.8-6.8-3.2-22.5-25.9-24.2-32.6l2.4-2.5c2.6 5.8 10.5 18.5 23.3 33.3z"/><path style="clip-path:url(#SVGID_00000025434864807728958410000015940272095933637261_);fill:#e66e5d" d="m56.3 126.5-.4.1c-17.3-8.8-25-22.3-29.2-34.1l1.5-.5 4.5-4.7c1.8 6.7 17.4 29.3 24.2 32.6-1.1 1.5-1.2 4-.6 6.6z"/><path style="clip-path:url(#SVGID_00000025434864807728958410000015940272095933637261_);fill:#f2f0d9" d="M48.2 140.5c1.5.6 3.2 1.1 4.9 1.5 0 0-13.2 13.6-29.3 15.3-5.2-2.6-6.5-4.8-6.5-4.8 2.2-.3 4.7-.6 7.4-1.1 8.2-1.5 17.8-4.4 23.5-10.9z"/><path style="clip-path:url(#SVGID_00000025434864807728958410000015940272095933637261_);fill:#f2f0d9" d="M44.8 139.1c1.1.5 2.2 1 3.3 1.4-5.6 6.5-15.3 9.3-23.5 10.8l-3.5-3.8s5.5-1 11.2-2.6c.6-.2 1.1-.3 1.6-.5 5-1.4 9.7-3.3 10.9-5.3z"/><path style="clip-path:url(#SVGID_00000025434864807728958410000015940272095933637261_);fill:#e66e5d" d="m36.9 70.1 5.1 7.5-3.8 3.9-3.1 3.2-2.4 2.5-4.5 4.7-1.5.5c-2.1-6.1-3.3-11.7-4.3-16l.1-.4c4.4 1.4 8.9 2.3 13.2 2.2 0 0 .1-1 .3-2.3.1-1 .2-2.2.4-3.3.1-1 .2-1.9.4-2.6l.1.1z"/><path style="clip-path:url(#SVGID_00000025434864807728958410000015940272095933637261_);fill:#f2f0d9" d="M40.7 136.9c1.3.8 2.7 1.6 4.1 2.2-1.2 2-5.9 3.8-10.8 5.3-.5.2-1.1.3-1.6.5-5.6 1.5-14 2.6-14 2.6s-1.9-3.2-3.7-5.5c11.7.6 25.8-4.8 25.8-4.8l.2-.3z"/><path style="clip-path:url(#SVGID_00000025434864807728958410000015940272095933637261_);fill:#8fbfbf" d="m38.4 135.3-1.7 1.4c-13.1 4.1-28.1-3.1-28.1-3.1s3.9-21 6.8-34.7c4.2 11.9 10.3 27.3 23 36.4z"/><path style="clip-path:url(#SVGID_00000025434864807728958410000015940272095933637261_);fill:#d6c776" d="M36.9 69.1c0 .2-.1.5-.2 1-.1.7-.2 1.6-.4 2.6-4.5.4-18.3-8.4-25.6-12.7l2.6-2.9c-.1 0 15.8 11.3 23.6 12z"/><path style="clip-path:url(#SVGID_00000025434864807728958410000015940272095933637261_);fill:#d6c776" d="M10.7 60c7.3 4.3 21.1 13.1 25.7 12.7-.1 1.1-.3 2.3-.4 3.3-4.5-.2-19.8-7.9-28.5-12.3l3.2-3.7z"/><path style="clip-path:url(#SVGID_00000025434864807728958410000015940272095933637261_);fill:#d6c776" d="M35.9 75.9c-.2 1.3-.3 2.3-.3 2.3-4.2.1-8.8-.8-13.2-2.2-7-2.2-13.8-5.6-19.1-7.8l4-4.5c8.8 4.4 24.1 12.1 28.6 12.2z"/><path style="clip-path:url(#SVGID_00000025434864807728958410000015940272095933637261_);fill:none;stroke:#000;stroke-linecap:round;stroke-linejoin:round;stroke-miterlimit:10" d="m214.3 31.7-8.2 1.1 6.6-9.7-14-15.1-11.3 7.5-1 .6-13 10.7-4.8-10.5-7.4 7.4c-21.2 2-33.7 6.3-40.1 8"/><path style="clip-path:url(#SVGID_00000025434864807728958410000015940272095933637261_);fill:none;stroke:#000;stroke-linecap:round;stroke-linejoin:round;stroke-miterlimit:10" d="m169 155.2 19.8 1.7 17.9 1.8 20.4 21.9 9.1-5.9 5.7-3.7 12 .2 4.1 3.8 19.1-12.2v-54.2s-17.9-4.5-37-6.5c19.4-7.6 37-11.6 37-11.6V72.2l-7.6 2.5L264 64l3.8-2.3-16.6-17.1-7.7 1.5-.3-8.2L225 22.1l-4.1 14.5-1.8-5.6-4.8.7M48.2 157.4l21.4 1.8 2.5.2c7.7 1.5 27 1.9 27 1.9l13.3 12.1 9.9-4.4 6.6-3.2 5.6-1 .8-.1 15.2-9.8M81.7 35.8c-2.4 1.9-4.8 3.9-7.1 5.8-3.9 3.2-7.5 6.4-10.7 9.2-2.3 2-4.3 3.9-5.8 5.5 0 0-.4-2.5-3.5-7-1.7-2.4-3.8-4.1-3.8-4.1L67 33.5S98 14 104.8 10.9l6.8-3.1S119.5 4 124.7 6c5.2 2 5.6 9.1 4.3 12.1-3-4-4.3-4.9-5.4-6-1.1-1.1-5.9-1.9-12 1.3-3.5 1.7-16.9 11.9-29.9 22.4m25.8-13.7 5.4 2.1m4.9 2.8 3.8 1.8m-5.7-2.6s-.9 8.9-2 9.8l-1.1.9-1.7-1.7m-4.3.7c.1 0 1.9 2.6 2.9 2.1"/><path style="clip-path:url(#SVGID_00000025434864807728958410000015940272095933637261_);fill:none;stroke:#000;stroke-linecap:round;stroke-linejoin:round;stroke-miterlimit:10" d="M125.6 20.8c-.2.4-1 .4-1.9 0-.9-.4-1.4-1.1-1.2-1.5.2-.4 1-.4 1.9 0s1.4 1.1 1.2 1.5zm-7.4-4.3c-.1.4-.9.6-1.9.4-.9-.2-1.6-.7-1.5-1.2.1-.4.9-.6 1.9-.4.9.3 1.6.8 1.5 1.2zM112 42.7c-.5.2-1.1.4-1.8.6-1.1.3-2.2.4-3.4.5-2.2.1-4.4-.2-6.6-.6-4.8-1.5-5.5-5.3-5.5-5.3M129 18.1c-3 5.8-5.6 7.5-6.3 9.6-.6 1.4-1.1 2.9-1.7 4.2h0c-1.9 4.7-4 8.7-9.1 10.7"/><path style="clip-path:url(#SVGID_00000025434864807728958410000015940272095933637261_);fill:none;stroke:#000;stroke-linecap:round;stroke-linejoin:round;stroke-miterlimit:10" d="M81.7 35.8h0L83 53.4l17.2-10.3m-25.6-1.5L75.8 61l7.2-7.6m-46.3 83.4c-13.1 4.1-28.1-3.1-28.1-3.1s3.9-21 6.8-34.7c.3-1.5.6-2.9.9-4.1C15 90.5 9 77.9 3.4 68.2l4-4.5 3.3-3.7 2.6-2.9s8.4-14.8 18.6-16.8c10.2-2 12.1.9 20.7 6.5m14.6 102.1c-1.9-1.4-3.1-2-3.9-2.2-.9-.3-1.2-.2-1.2-.2l-.9.7-2.8 2.2-10.3 8-10.6 8.3-6.3-4.8s20.1-11.7 26.9-18m58.1 7c-.8-.5-1.6-1.2-2.5-1.9-1.2-1-2.4-2.3-3.7-3.8-1-1.2-2.1-2.7-3.2-4.3-3.7 1.9-8.3 4.1-12.9 6.2-10 4.6-19.8 8.8-19.8 8.8-2.9-2.8-5.2-4.7-6.9-5.9m50.6-85.3c.3.4.6.8 1 1.2 1 1.2 2.2 2.5 3.5 4.2.7.9 1.5 2 2.2 3.2 1 1.7 2.1 3.7 3 6.1.8 2.1 1.5 4.5 2.2 7.4.2 1.1.5 2.1.7 3.2.7 2.7 1.4 5.4 2.1 7.8 1.2 4 2.4 7.4 3.4 10.1 1.5 4 2.5 6.3 2.5 6.3 7.7-2.7 25.7-8.2 34.2-1.5 1.4 1.1 2.8 2.4 4.2 4 2.9 3.2 5.6 7.1 7.9 11 .7 1.2 1.3 2.3 1.9 3.4l.6 1.2c.6 1.1 1.1 2.2 1.6 3.3 1 2.3 1.6 4.1 1.6 5.2-10.3 1.3-21.2 4.1-29.9 6.7-3.5 1.1-6.7 2.1-9.4 3-3.9 1.3-7 2.3-9.7 3-3.7.9-6.9 1.2-10.9.7-4.6-.6-9 .3-14.3-3.2M112 42.6h0c0 3.4 1.3 10 3 15 .2.5.4 1.1.6 1.6.4 1.2.9 2.2 1.4 3 .3.5.6.9.9 1.4"/><path style="clip-path:url(#SVGID_00000025434864807728958410000015940272095933637261_);fill:none;stroke:#000;stroke-linecap:round;stroke-linejoin:round;stroke-miterlimit:10" d="M55.9 126.6c-17.3-8.8-25-22.3-29.2-34.1-2.1-6.1-3.3-11.7-4.3-16m15.5-32.8s-2 24.3-1 25.3c0 .2-.1.5-.2 1-.1.7-.2 1.6-.4 2.6-.1 1.1-.3 2.3-.4 3.3-.2 1.3-.3 2.3-.3 2.3-4.2.1-8.8-.8-13.2-2.2-7-2.2-13.8-5.6-19.1-7.8m58.8 78.3-.2-3.2c-1.3-.1-2.5-.2-3.7-.3-1.8-.2-3.5-.5-5.1-.9-1.7-.4-3.3-.9-4.9-1.5-1.1-.4-2.2-.9-3.3-1.4-1.4-.7-2.8-1.4-4.1-2.2-.8-.5-1.6-1-2.3-1.6-12.7-9.2-18.8-24.5-23-36.4"/><path style="clip-path:url(#SVGID_00000025434864807728958410000015940272095933637261_);fill:none;stroke:#000;stroke-linecap:round;stroke-linejoin:round;stroke-miterlimit:10" d="M61.9 143.2v-3.5C32.3 127.9 28 114.3 16.3 94.9m45.6 44.8s-4.3-7.1-5.6-13.2c-.5-2.6-.5-5.1.6-6.7.4-.6.9-1.2 1.5-1.8 1-1.1 2.1-2.2 3.5-3.2 2.3-1.8 5.3-3.5 8.7-4.8 2-.7 4.1-1.3 6.4-1.6 2.4-.4 5-.5 7.7-.3 14.1.8 39.4-.1 39.4-.1"/><path style="clip-path:url(#SVGID_00000025434864807728958410000015940272095933637261_);fill:none;stroke:#000;stroke-linecap:round;stroke-linejoin:round;stroke-miterlimit:10" d="M78.8 114.5c13.7 3.1 43.5 5.8 53.8 1.9m-64.3 6.3s1.6 5.5 13.4 10.3c1.2.5 2.5 1 4 1.5 1.6.5 3.3 1 5.2 1.5 4.4 1.1 9.7 2 15.9 2.7 7.2.8 15.7 1.1 25.7 1 14.3-.5 33.7-2.7 52-13.1"/><path style="clip-path:url(#SVGID_00000025434864807728958410000015940272095933637261_);fill:none;stroke:#000;stroke-linecap:round;stroke-linejoin:round;stroke-miterlimit:10" d="M81.7 133s-9.6 5.8-19.7 8.7m23.7-7.2s0 0 0 0c-.4.3-12.7 9.3-22.4 12.2-.7.2-1.4.4-2.1.5M91 136s-5.9 8-23.7 12.9h0m42.7-4.8c7 .1 19.3 1.3 29.9 0 10.6-1.3 43.4-11.8 46.7-14.1"/><path style="clip-path:url(#SVGID_00000025434864807728958410000015940272095933637261_);fill:none;stroke:#000;stroke-linecap:round;stroke-linejoin:round;stroke-miterlimit:10" d="M113.7 147.9c11 .6 33.6.7 52.7-6.2s22.4-7.2 22.4-7.2m1.7 5.2c-.1.8-.9 1.9-2 3.2-1.7 1.9-4.2 4-6.9 6-3.8 2.8-8 5.2-10.7 5.9-.5.1-1.2.3-1.9.4-3 .4-7.4.4-11.9.1-2.2-.1-4.5-.4-6.6-.7-3.8-.5-7.1-1.3-9.1-2.3m-25.2-2.4h.1l18.2 14.7v.1M93.9 146l15.4 2.9 19.6 16.8m-6.6 3.2-16.6-15.5-14.1.7-17.5.7m-4.6 4.4-11.1-9.9m-21.7-12.5 1.7-1.5M78.3 105c5-2 16.7-9.2 23.9-10.2"/><path style="clip-path:url(#SVGID_00000025434864807728958410000015940272095933637261_);fill:none;stroke:#000;stroke-linecap:round;stroke-linejoin:round;stroke-miterlimit:10" d="M86.8 91.9c-5 4.3-6.8 9-8.4 13.1-.5 1.2-.9 2.3-1.4 3.3m18-28.8 4 5.5c-5.4 2.1-9.3 4.4-12.2 6.9 2.7-5.1 6-10.3 8.2-12.4zM70.8 91.9c10.3-10.4 34.7-26 47-28.2h0M64 50.7h0c.3 8.2.2 15.1 1.5 21.5.4 2 1 4 1.7 6 1 2.5 2.3 5 4 7.5 9.7-8.7 32.7-26.7 43.7-28m-56.8-1.5c2.4 11.1 4.6 28.1 8.3 35.7M13.2 57.1s15.8 11.3 23.6 12M10.7 60c7.3 4.3 21.1 13.1 25.7 12.7m-29-9c8.7 4.4 24 12.1 28.5 12.3"/><path style="clip-path:url(#SVGID_00000025434864807728958410000015940272095933637261_);fill:none;stroke:#000;stroke-linecap:round;stroke-linejoin:round;stroke-miterlimit:10" d="m36.9 70.1 5.1 7.5-3.8 3.9-3.1 3.3-2.4 2.4-4.5 4.7m10.2-10.2c1.5 5.4 15 29.4 23.5 33.1"/><path style="clip-path:url(#SVGID_00000025434864807728958410000015940272095933637261_);fill:none;stroke:#000;stroke-linecap:round;stroke-linejoin:round;stroke-miterlimit:10" d="M32.7 87.2c1.8 6.7 17.4 29.3 24.2 32.6m-21.8-35c2.6 5.8 10.5 18.5 23.3 33.2m6.3-18.5-8.6-4.3-.5 3.9 10.6 1.2zm1.5.8 8.7-2.9-.6 5.2zm0 0 3.6 7.1-2.9.9z"/><path style="clip-path:url(#SVGID_00000025434864807728958410000015940272095933637261_);fill:none;stroke:#000;stroke-linecap:round;stroke-linejoin:round;stroke-miterlimit:10" d="m66.2 100.3-6.9 5.8 3.4 1.2zm95-76.4c-8.7 6.9-37 32.9-45.7 35.3M173.4 27c-7.7 6.7-33.9 31.1-54.7 37.9m3.6 4.2c15.1-7.2 59.9-40.3 65.1-46.3l.2-.2m-.2 6.2c-5.1 4.3-44.3 36.9-62.9 43.4"/><path style="clip-path:url(#SVGID_00000025434864807728958410000015940272095933637261_);fill:none;stroke:#000;stroke-linecap:round;stroke-linejoin:round;stroke-miterlimit:10" d="M187.4 15.6s-.1 3.1 0 7.2c0 1.9.1 3.9.1 6 .2 4 .4 8.1 1 10.8.1.4.1.7.2 1 1.7 6.5 6.1 18.6 8.3 19.3 3.1-4.3 6.4-9.6 9.3-14.4.9-1.5 1.8-3 2.6-4.4.9-1.6 1.8-3.2 2.5-4.5 1.6-2.9 2.6-4.8 2.7-4.9 0 0 0 0 0 0"/><path style="clip-path:url(#SVGID_00000025434864807728958410000015940272095933637261_);fill:none;stroke:#000;stroke-linecap:round;stroke-linejoin:round;stroke-miterlimit:10" d="m188.5 39.7 13-5 4.6-1.8"/><path style="clip-path:url(#SVGID_00000025434864807728958410000015940272095933637261_);fill:none;stroke:#000;stroke-linecap:round;stroke-linejoin:round;stroke-miterlimit:10" d="M198 22.7c.6 3.9 1.7 7.9 3.5 12m-2.8-26.6c-1.2 4.1-1.5 9.1-.7 14.5m22.9 14.1s2 4.6 4.8 9.2c2.4 4.1 5.5 8.2 8.3 9.3"/><path style="clip-path:url(#SVGID_00000025434864807728958410000015940272095933637261_);fill:none;stroke:#000;stroke-linecap:round;stroke-linejoin:round;stroke-miterlimit:10" d="m225.7 45.9 4.6-1.6 10.6-3.6 2.8 5.4c-1.5 2.4-4.6 5.8-9.4 9.3-2.1 1.5-4.5 3.1-7.3 4.6-1 .6-2.1 1.1-3.2 1.6-1.3.6-2.6 1.2-4 1.8-1.2.5-2.4 1-3.7 1.4-15.8 5.7-63.5 21.9-85.6 24M225 22.1l5.2 22.2m-97.7 52.4h0c34-5.2 112.2-22.5 131.5-32.7m-128.1 42.8c14.4-3 101.1-20.1 133.5-32.1m-92.6 40.9c7-1.2 14.1-2.5 20.9-3.8 18.5-3.6 35.1-7.5 42.3-9.7m7 23c-1.5-.5-3.2-.9-4.9-1.4-1.9-.5-3.9-1-6-1.6-1.6-.4-3.2-.8-4.8-1.1-16.1-3.7-33-6.5-33-6.5m56.4 13.4c-2.1-.9-4.7-1.8-7.7-2.8"/><path style="clip-path:url(#SVGID_00000025434864807728958410000015940272095933637261_);fill:none;stroke:#000;stroke-linecap:round;stroke-linejoin:round;stroke-miterlimit:10" d="m227 145.2 17.6 9.1s.9-1.9 2.7-5.4c.8-1.5 1.8-3.2 2.9-5.3.7-1.3 1.6-2.7 2.5-4.3 1.6-2.8 3.5-5.9 5.7-9.3-.9-.7-2.1-1.4-3.7-2.1m-10.1 26.4 3.3 3s20.9-.9 29.1-7.9"/><path style="clip-path:url(#SVGID_00000025434864807728958410000015940272095933637261_);fill:none;stroke:#000;stroke-linecap:round;stroke-linejoin:round;stroke-miterlimit:10" d="M247.3 148.9s22.5-4.1 29.7-6.7m-26.8 1.4s24-3.2 26.8-6.2m-24.3 1.9s14-2.5 24.3-6.3m-89.8-1.8 5.2 2.7 4 2.1-5.9 1.4m5.9-1.4 1.7.4 2.4.5 6.8 1.5 5 1.1s-11.1 15.6-23.6 17.4"/><path style="clip-path:url(#SVGID_00000025434864807728958410000015940272095933637261_);fill:none;stroke:#000;stroke-linecap:round;stroke-linejoin:round;stroke-miterlimit:10" d="M200.6 136.8s0 .1 0 0c-.4.6-4.1 5.8-12.2 6m9.8-6.8c17.2-4.3 33.3-8.2 37.8-13.8m6.1 1.5s-18.1 10.6-34.7 14.5l-.1.1c-.7 1.1-6.5 9.7-25.8 10.5m65.5-23.7h0c-9.2 5.4-29.7 14-34.7 14.3"/><path style="clip-path:url(#SVGID_00000025434864807728958410000015940272095933637261_);fill:none;stroke:#000;stroke-linecap:round;stroke-linejoin:round;stroke-miterlimit:10" d="M254.7 127.9s0 0 0 0c-.5.4-18.2 13.2-27.7 17.3-1.8.8-3.3 1.2-4.3 1.2h-3.1l-7.3-6.9m64.7-49v18.1m-70-62.7 12.7 17.5M209 41.2h0l14.7 20.5m-12.2-25L226.9 60m-29.8 0s-33.8 14.7-69.6 18.4h0M75.8 61 65.5 72.3m1.7 6 9.1-8.2s27.4-21.9 28.6-23.5c1.2-1.5 1.9-2.9 1.9-2.9m53.8 102.7c-.2.1-.7 8.3-3.4 8.9m49.4 3.3s24.3 1.7 25.2.5m4.3 15.5s5.9-10.6 8.5-12.3c2.6-1.7 9.2 8.8 9.2 8.8M66.4 91.9l-1.7 7.6 4.8-.9 1.3-6.7m28.3 69.4c-2.5-1.7-7.2-5.8-7.6-7.2m100.9-20.2c7.4-1.3 30.8-7 38.8-12.9 0 0 0 0 0 0M198 22.7h0l14.7.5M53 142s-13.2 13.6-29.3 15.3c-5.2-2.6-6.5-4.8-6.5-4.8 2.2-.3 4.7-.6 7.4-1.1 8.2-1.5 17.9-4.4 23.5-10.8M34 144.5c4.9-1.5 9.6-3.3 10.8-5.3"/><path style="clip-path:url(#SVGID_00000025434864807728958410000015940272095933637261_);fill:none;stroke:#000;stroke-linecap:round;stroke-linejoin:round;stroke-miterlimit:10" d="m24.6 151.4-3.5-3.8s5.5-1 11.2-2.6"/><path style="clip-path:url(#SVGID_00000025434864807728958410000015940272095933637261_);fill:none;stroke:#000;stroke-linecap:round;stroke-linejoin:round;stroke-miterlimit:10" d="M40.5 137.3s-14.1 5.4-25.8 4.8c1.9 2.3 3.7 5.5 3.7 5.5s8.4-1.1 14-2.6c.6-.2 1.1-.3 1.6-.5"/></g></svg>