<?xml version="1.0" encoding="UTF-8"?>
<svg xmlns="http://www.w3.org/2000/svg" viewBox="0 0 270.4 212.35">
  <defs>
    <style>
      .cls-1 {
        stroke-miterlimit: 10;
      }

      .cls-1, .cls-2 {
        stroke: #000;
      }

      .cls-1, .cls-2, .cls-3 {
        fill: none;
      }

      .cls-4 {
        fill: #edf4d3;
      }

      .cls-4, .cls-5, .cls-6, .cls-7, .cls-8, .cls-9, .cls-10 {
        stroke-width: 0px;
      }

      .cls-5 {
        fill: #fceac2;
      }

      .cls-6 {
        fill: #f3edd7;
      }

      .cls-7 {
        fill: #feb789;
      }

      .cls-2, .cls-3 {
        stroke-linecap: round;
        stroke-linejoin: round;
      }

      .cls-8 {
        fill: #333;
      }

      .cls-9 {
        fill: #c497ae;
      }

      .cls-10 {
        fill: #d2d296;
      }

      .cls-3 {
        stroke: #fff;
        stroke-width: .5px;
      }
    </style>
  </defs>
  <g id="_畳" data-name="畳">
    <g>
      <g>
        <rect class="cls-6" x=".24" y="177.7" width="3.62" height="5.03"/>
        <path class="cls-6" d="m270.15,205.28v6.57h-30.45l15.35-8.63c1.03,1.62,3.11,2.72,5.51,2.72s4.62-1.18,5.62-2.88l3.97,2.23Z"/>
        <path class="cls-6" d="m270.15,194.72v10.56l-3.97-2.23c.38-.65.59-1.38.59-2.14,0-1.3-.62-2.48-1.62-3.38l4.99-2.8Z"/>
        <path class="cls-6" d="m270.15,182.73v11.99l-4.99,2.8c-1.14-1.01-2.77-1.64-4.59-1.64s-3.31.58-4.44,1.51l-26.1-14.67h40.12Z"/>
        <polygon class="cls-6" points="270.15 105.72 270.15 111.49 1.13 111.49 .24 111.49 .24 105.72 270.15 105.72"/>
        <rect class="cls-6" x="266.16" y="177.7" width="3.99" height="5.03"/>
        <path class="cls-6" d="m266.78,200.9c0,.76-.21,1.49-.59,2.14l-5.42-3.05,4.39-2.47c1,.89,1.62,2.08,1.62,3.38Z"/>
        <path class="cls-6" d="m260.77,200l5.42,3.05c-1,1.7-3.13,2.88-5.62,2.88s-4.48-1.1-5.51-2.72l5.71-3.21Z"/>
        <rect class="cls-8" x="254.85" y="177.7" width="11.31" height="5.03"/>
        <path class="cls-6" d="m265.16,197.53l-4.39,2.47-4.64-2.61c1.13-.93,2.7-1.51,4.44-1.51,1.82,0,3.46.63,4.59,1.64Z"/>
        <path class="cls-6" d="m260.77,200l-5.71,3.21c-.44-.69-.69-1.48-.69-2.31,0-1.37.68-2.61,1.77-3.51l4.64,2.61Z"/>
        <path class="cls-6" d="m230.03,182.73l26.1,14.67c-1.09.9-1.77,2.14-1.77,3.51,0,.83.25,1.62.69,2.31l-15.35,8.63h-41.48l-15.65-8.8c.38-.65.59-1.38.59-2.14,0-1.3-.62-2.48-1.62-3.37l26.34-14.81h22.15Zm-5.97,18.18c0-2.77-2.25-5.02-5.02-5.02s-5.03,2.25-5.03,5.02,2.25,5.03,5.03,5.03,5.02-2.25,5.02-5.03Z"/>
        <polygon class="cls-6" points="254.85 182.73 230.03 182.73 224.33 182.73 224.33 177.7 254.85 177.7 254.85 182.73"/>
        <rect class="cls-8" x="213.02" y="177.7" width="11.31" height="5.03"/>
        <path class="cls-8" d="m219.05,195.88c2.77,0,5.02,2.25,5.02,5.02s-2.25,5.03-5.02,5.03-5.03-2.25-5.03-5.03,2.25-5.02,5.03-5.02Z"/>
        <path class="cls-6" d="m207.88,182.73l-26.34,14.81c-1.14-1.02-2.77-1.65-4.59-1.65s-3.31.58-4.44,1.51l-26.1-14.67h61.47Z"/>
        <polygon class="cls-6" points="182.5 182.73 182.5 177.7 213.02 177.7 213.02 182.73 207.88 182.73 182.5 182.73"/>
        <path class="cls-6" d="m198.21,211.85h-42.13l15.35-8.63c1.03,1.62,3.12,2.72,5.51,2.72s4.62-1.18,5.62-2.88l15.65,8.8Z"/>
        <path class="cls-6" d="m183.16,200.9c0,.76-.21,1.49-.59,2.14l-5.42-3.05,4.39-2.47c1,.89,1.62,2.07,1.62,3.37Z"/>
        <path class="cls-6" d="m177.15,200l5.42,3.05c-1,1.7-3.13,2.88-5.62,2.88s-4.48-1.1-5.51-2.72l5.71-3.21Z"/>
        <rect class="cls-8" x="171.19" y="177.7" width="11.31" height="5.03"/>
        <path class="cls-6" d="m176.95,195.88c1.82,0,3.46.63,4.59,1.65l-4.39,2.47-4.64-2.61c1.13-.93,2.7-1.51,4.44-1.51Z"/>
        <path class="cls-6" d="m177.15,200l-5.71,3.21c-.44-.69-.69-1.48-.69-2.31,0-1.37.68-2.61,1.77-3.51l4.64,2.61Z"/>
        <path class="cls-6" d="m146.41,182.73l26.1,14.67c-1.09.9-1.77,2.14-1.77,3.51,0,.83.25,1.62.69,2.31l-15.35,8.63h-41.48l-15.65-8.8c.38-.65.59-1.38.59-2.14,0-1.3-.62-2.48-1.62-3.37l26.34-14.81h22.15Zm-7.02,18.18c0-2.77-2.25-5.02-5.02-5.02s-5.03,2.25-5.03,5.02,2.25,5.03,5.03,5.03,5.02-2.25,5.02-5.03Z"/>
        <polygon class="cls-6" points="171.19 182.73 146.41 182.73 140.67 182.73 140.67 177.7 171.19 177.7 171.19 182.73"/>
        <rect class="cls-8" x="129.36" y="177.7" width="11.31" height="5.03"/>
        <path class="cls-8" d="m134.38,195.88c2.77,0,5.02,2.25,5.02,5.02s-2.25,5.03-5.02,5.03-5.03-2.25-5.03-5.03,2.25-5.02,5.03-5.02Z"/>
        <path class="cls-6" d="m124.26,182.73l-26.34,14.81c-1.14-1.02-2.77-1.65-4.59-1.65s-3.31.58-4.44,1.51l-26.1-14.67h61.47Z"/>
        <polygon class="cls-6" points="129.36 182.73 124.26 182.73 98.83 182.73 98.83 177.7 129.36 177.7 129.36 182.73"/>
        <path class="cls-6" d="m114.6,211.85h-42.13l15.35-8.63c1.03,1.62,3.11,2.72,5.51,2.72s4.62-1.18,5.62-2.88l15.65,8.8Z"/>
        <path class="cls-6" d="m99.54,200.9c0,.76-.21,1.49-.59,2.14l-5.42-3.05,4.39-2.47c1,.89,1.62,2.07,1.62,3.37Z"/>
        <path class="cls-6" d="m93.53,200l5.42,3.05c-1,1.7-3.13,2.88-5.62,2.88s-4.48-1.1-5.51-2.72l5.71-3.21Z"/>
        <rect class="cls-8" x="87.53" y="177.7" width="11.31" height="5.03"/>
        <path class="cls-6" d="m93.33,195.88c1.82,0,3.46.63,4.59,1.65l-4.39,2.47-4.64-2.61c1.13-.93,2.7-1.51,4.44-1.51Z"/>
        <path class="cls-6" d="m93.53,200l-5.71,3.21c-.44-.69-.69-1.48-.69-2.31,0-1.37.68-2.61,1.77-3.51l4.64,2.61Z"/>
        <path class="cls-6" d="m62.8,182.73l26.1,14.67c-1.09.9-1.77,2.14-1.77,3.51,0,.83.25,1.62.69,2.31l-15.35,8.63H30.79l-15.65-8.8c.38-.65.59-1.38.59-2.14,0-1.3-.62-2.48-1.62-3.37l26.34-14.81h22.34Zm-8.53,18.18c0-2.77-2.25-5.02-5.02-5.02s-5.03,2.25-5.03,5.02,2.25,5.03,5.03,5.03,5.02-2.25,5.02-5.03Z"/>
        <polygon class="cls-6" points="87.53 182.73 62.8 182.73 57 182.73 57 177.7 87.53 177.7 87.53 182.73"/>
        <rect class="cls-8" x="45.7" y="177.7" width="11.31" height="5.03"/>
        <path class="cls-8" d="m49.25,195.88c2.77,0,5.02,2.25,5.02,5.02s-2.25,5.03-5.02,5.03-5.03-2.25-5.03-5.03,2.25-5.02,5.03-5.02Z"/>
        <polygon class="cls-6" points="45.7 182.73 40.45 182.73 15.17 182.73 15.17 177.7 45.7 177.7 45.7 182.73"/>
        <path class="cls-6" d="m30.79,211.85H.24v-6.52l3.76-2.11c1.03,1.62,3.12,2.72,5.51,2.72s4.62-1.18,5.62-2.88l15.65,8.8Z"/>
        <path class="cls-6" d="m15.73,200.9c0,.76-.21,1.49-.59,2.14l-5.42-3.05,4.39-2.47c1,.89,1.62,2.07,1.62,3.37Z"/>
        <rect class="cls-8" x="3.87" y="177.7" width="11.31" height="5.03"/>
        <path class="cls-6" d="m9.72,200l5.42,3.05c-1,1.7-3.13,2.88-5.62,2.88s-4.48-1.1-5.51-2.72l5.71-3.21Z"/>
        <path class="cls-6" d="m9.52,195.88c1.82,0,3.46.63,4.59,1.65l-4.39,2.47-4.64-2.61c1.13-.93,2.7-1.51,4.44-1.51Z"/>
        <path class="cls-6" d="m9.72,200l-5.71,3.21c-.44-.69-.69-1.48-.69-2.31,0-1.37.68-2.61,1.77-3.51l4.64,2.61Z"/>
        <path class="cls-6" d="m.24,194.68l4.84,2.72c-1.09.9-1.77,2.14-1.77,3.51,0,.83.25,1.62.69,2.31l-3.76,2.11v-10.65Z"/>
        <polygon class="cls-10" points="213.02 177.7 182.5 177.7 171.19 177.7 140.67 177.7 129.36 177.7 98.83 177.7 87.53 177.7 57 177.7 45.7 177.7 15.17 177.7 3.87 177.7 .24 177.7 .24 111.49 1.13 111.49 270.15 111.49 270.15 177.7 266.16 177.7 254.85 177.7 224.33 177.7 213.02 177.7"/>
        <path class="cls-6" d="m.24,182.73h40.21l-26.34,14.81c-1.14-1.02-2.77-1.65-4.59-1.65s-3.31.58-4.44,1.51l-4.84-2.72v-11.95Z"/>
      </g>
      <g>
        <polyline class="cls-1" points="270.15 211.85 239.7 211.85 198.21 211.85 156.08 211.85 114.6 211.85 72.46 211.85 30.79 211.85 .24 211.85"/>
        <line class="cls-1" x1=".24" y1="105.72" x2="270.15" y2="105.72"/>
        <line class="cls-1" x1=".24" y1="111.49" x2="270.15" y2="111.49"/>
        <line class="cls-1" x1="266.16" y1="177.7" x2="270.15" y2="177.7"/>
        <line class="cls-1" x1="224.33" y1="177.7" x2="254.85" y2="177.7"/>
        <line class="cls-1" x1="182.5" y1="177.7" x2="213.02" y2="177.7"/>
        <line class="cls-1" x1="140.67" y1="177.7" x2="171.19" y2="177.7"/>
        <line class="cls-1" x1="98.83" y1="177.7" x2="129.36" y2="177.7"/>
        <line class="cls-1" x1="57" y1="177.7" x2="87.53" y2="177.7"/>
        <line class="cls-1" x1="15.17" y1="177.7" x2="45.7" y2="177.7"/>
        <line class="cls-1" x1=".24" y1="177.7" x2="3.87" y2="177.7"/>
        <line class="cls-1" x1="266.16" y1="182.73" x2="270.15" y2="182.73"/>
        <polyline class="cls-1" points="224.33 182.73 230.03 182.73 254.85 182.73"/>
        <polyline class="cls-1" points="182.5 182.73 207.88 182.73 213.02 182.73"/>
        <polyline class="cls-1" points="140.67 182.73 146.41 182.73 171.19 182.73"/>
        <polyline class="cls-1" points="98.83 182.73 124.26 182.73 129.36 182.73"/>
        <polyline class="cls-1" points="57 182.73 62.8 182.73 87.53 182.73"/>
        <polyline class="cls-1" points="15.17 182.73 40.45 182.73 45.7 182.73"/>
        <line class="cls-1" x1=".24" y1="182.73" x2="3.87" y2="182.73"/>
        <polyline class="cls-1" points="72.46 211.85 87.81 203.21 93.53 200 97.92 197.53 124.26 182.73"/>
        <polyline class="cls-1" points="114.6 211.85 98.95 203.05 93.53 200 88.89 197.4 62.8 182.73"/>
        <path class="cls-1" d="m139.4,200.9c0,2.78-2.25,5.03-5.02,5.03s-5.03-2.25-5.03-5.03,2.25-5.02,5.03-5.02,5.02,2.25,5.02,5.02Z"/>
        <path class="cls-1" d="m224.07,200.9c0,2.78-2.25,5.03-5.02,5.03s-5.03-2.25-5.03-5.03,2.25-5.02,5.03-5.02,5.02,2.25,5.02,5.02Z"/>
        <path class="cls-1" d="m97.92,197.53c1,.89,1.62,2.07,1.62,3.37,0,.76-.21,1.49-.59,2.14-1,1.7-3.13,2.88-5.62,2.88s-4.48-1.1-5.51-2.72c-.44-.69-.69-1.48-.69-2.31,0-1.37.68-2.61,1.77-3.51,1.13-.93,2.7-1.51,4.44-1.51,1.82,0,3.46.63,4.59,1.65Z"/>
        <polyline class="cls-1" points=".24 205.32 4.01 203.21 9.72 200 14.11 197.53 40.45 182.73"/>
        <polyline class="cls-1" points="30.79 211.85 15.14 203.05 9.72 200 5.08 197.4 .24 194.68"/>
        <path class="cls-1" d="m14.11,197.53c1,.89,1.62,2.07,1.62,3.37,0,.76-.21,1.49-.59,2.14-1,1.7-3.13,2.88-5.62,2.88s-4.48-1.1-5.51-2.72c-.44-.69-.69-1.48-.69-2.31,0-1.37.68-2.61,1.77-3.51,1.13-.93,2.7-1.51,4.44-1.51,1.82,0,3.46.63,4.59,1.65Z"/>
        <polyline class="cls-1" points="156.08 211.85 171.43 203.21 177.15 200 181.54 197.53 207.88 182.73"/>
        <polyline class="cls-1" points="198.21 211.85 182.57 203.05 177.15 200 172.51 197.4 146.41 182.73"/>
        <path class="cls-1" d="m181.54,197.53c1,.89,1.62,2.07,1.62,3.37,0,.76-.21,1.49-.59,2.14-1,1.7-3.13,2.88-5.62,2.88s-4.48-1.1-5.51-2.72c-.44-.69-.69-1.48-.69-2.31,0-1.37.68-2.61,1.77-3.51,1.13-.93,2.7-1.51,4.44-1.51,1.82,0,3.46.63,4.59,1.65Z"/>
        <polyline class="cls-1" points="239.7 211.85 255.05 203.21 260.77 200 265.16 197.53 270.15 194.72"/>
        <polyline class="cls-1" points="270.15 205.28 266.18 203.05 260.77 200 256.13 197.4 230.03 182.73"/>
        <path class="cls-1" d="m265.16,197.53c1,.89,1.62,2.08,1.62,3.38,0,.76-.21,1.49-.59,2.14-1,1.7-3.13,2.88-5.62,2.88s-4.48-1.1-5.51-2.72c-.44-.69-.69-1.48-.69-2.31,0-1.37.68-2.61,1.77-3.51,1.13-.93,2.7-1.51,4.44-1.51,1.82,0,3.46.63,4.59,1.64Z"/>
        <path class="cls-1" d="m54.27,200.9c0,2.78-2.25,5.03-5.02,5.03s-5.03-2.25-5.03-5.03,2.25-5.02,5.03-5.02,5.02,2.25,5.02,5.02Z"/>
        <rect class="cls-1" x="3.87" y="177.7" width="11.31" height="5.03"/>
        <rect class="cls-1" x="45.7" y="177.7" width="11.31" height="5.03"/>
        <rect class="cls-1" x="87.53" y="177.7" width="11.31" height="5.03"/>
        <rect class="cls-1" x="129.36" y="177.7" width="11.31" height="5.03"/>
        <rect class="cls-1" x="171.19" y="177.7" width="11.31" height="5.03"/>
        <rect class="cls-1" x="213.02" y="177.7" width="11.31" height="5.03"/>
        <rect class="cls-1" x="254.85" y="177.7" width="11.31" height="5.03"/>
      </g>
    </g>
  </g>
  <g id="_レイヤー_2" data-name="レイヤー 2">
    <g>
      <g>
        <path class="cls-8" d="m149.23,114.2s-8.85-10.21-15.07-12.51c-1.33-.49-3.59-.77-6.31-.91-2.09-.11-4.46-.13-6.9-.09,0,0-.49-15.59.02-21.72.52-6.13,8.39-21.02,8.39-21.02v-2.21c7.96-1.37,10.85-.95,10.85-.95.51-4.33,1.53-5.01,1.53-5.01l6.01-3.21,2.63-1.24c.76-.35,1.66-.28,2.35.2.12.08.25.18.39.27,2.23,1.55,6.47,4.49,9.47,6.53,2.33,1.58,5.38,3.49,8.15,5.49,2.3,1.67,4.41,3.4,5.72,5.06l2.9,3.66s3.05,4.7,6.76,9.64c.79,1.05,1.61,2.11,2.43,3.13h0c2.69,3.36,5.45,6.37,7.49,7.57,5.62,3.32,13.02,6.64,15.83,9.2,2.81,2.55,0,13.78,0,15.32l8.42,2.8c4.6,9.96,17.37,36.77,17.37,36.77-13.03,1.53-14.56,1.53-14.56,1.53,0,0-37.83-1.15-38.98-.51l-18.72-11.49-4.34-2.81c-4.34-2.81-11.83-23.49-11.83-23.49Z"/>
        <path class="cls-9" d="m223.1,152.5c-6.38,6.64-12.76,11.49-14.81,11.49h-34.03c3.27-3.57,8.71-11.36,9.86-12s38.98.51,38.98.51Z"/>
        <path class="cls-7" d="m199.88,60.41l-11.33,18.9c-.82-1.02-1.64-2.08-2.43-3.13l10.01-17.13,3.75,1.36Z"/>
        <path class="cls-8" d="m144.31,144.14c.53-.12,15.33-3.52,16.75-6.45l4.34,2.81,18.72,11.49c-1.15.64-6.59,8.43-9.86,12-2.73,2.3-9.63,4.85-14.48,1.79,0,0-16.17-4.51-23.49-7.89-5.69-2.62-17.24,3.54-25.78,6.34l-.15-1.75c-7.45-.81-12.58-4.55-17.97-9.41-4.77-4.3-9.74-9.48-16.69-14.27-4.6,3.4-16.51,7.57-16.51,7.57,1.27-5.87,2.04-20.42,2.04-24s2.3-6.63,5.11-8.93c2.8-2.3,9.7-5.11,12.76-5.11.51-7.91,0-9.7,3.32-12.51,4.85-6.13,22.21-28.59,27.83-30.64,1.28-4.85,8.43-10.81,19.11-9.44v2.21s-7.87,14.89-8.39,21.02c-.51,6.13-.02,21.72-.02,21.72-.97.01-1.95.03-2.93.06-1.65.05-3.28.11-4.85.19,2.77,7.17,8.05,17.07,17.85,25.39,6.82,7.74,11.21,12.9,13.29,17.81Z"/>
        <path class="cls-5" d="m182.2,42.62c-.56.09-1.99,3.29-2.12,4.18s.64,3.57,0,4.47c-.26.36-1.61.41-3.26.34v.03c-.87.01-5.5,3.83-6.08,6.18-2.77-2-5.82-3.91-8.15-5.49-3-2.04-7.24-4.98-9.47-6.53l.02-.02v-3.41c.98-.11,3.41-1.46,5.82-2.91-1.17-.66-2.25-2.33-2.3-3.38-.05-1.37,0-5.11,2.1-5.67s2.95.36,3.32,2.47c.31,1.79,1.16,2.9,1.77,3.49.6-.39,1.01-.66,1.12-.72.6-.34,3.58-13.53,3.75-17.19,0,0,3.25.23,6.89.85,1.87.32,3.86,1.08,5.53,1.26,0,0,.69,6.36.56,7.76-.07.78-.06,2.81-.04,4.44-.28-.62-2.36-2.89-5.28-5.46-.26.04-2.26,1.02-2.72,1.7,0,0,1.4-.25,2.04-.21s2.37,1.65,5.96,4.05c.02,1.27.05,2.29.05,2.29,0,0-.69,1.32-.01,2.34s2.42,1.75,2.42,2.04c0,.9-1.37,3-1.92,3.1Z"/>
        <path class="cls-8" d="m174.93,9.44c2.47,4.51,6.66,9.96,6.39,11.15-.06,0-.12,0-.18-.02-1.67-.18-3.66-.94-5.53-1.26-3.64-.62-6.89-.85-6.89-.85-.17,3.66-3.15,16.85-3.75,17.19-.11.06-.52.33-1.12.72-.61-.59-1.46-1.7-1.77-3.49-.37-2.11-1.22-3.03-3.32-2.47s-2.15,4.3-2.1,5.67c.05,1.05,1.13,2.72,2.3,3.38-2.41,1.45-4.84,2.8-5.82,2.91-2.12.26-3.14,0-3.14,0,.19-.44.4-.96.63-1.52,2.05-5.16,5.28-14.76,6.51-17.28,1.37-2.81,7.4-10.73,7.4-10.73l.43-2.38h-3.14v-2.21h2.71c-.42-4.09-1.61-7.66-4.67-3.41-3.07,4.26-7.07,10.73-8.09,13.45s-1.87,15.49-1.87,18.38v3.4c0,.16-.05.32-.14.45-.14.22-.4.36-.68.35h-.42c-.49-.02-.9-.42-.9-.92-.18-11.35,1.07-20.88,2.31-23.7,1.28-2.9,4.55-7.66,5.98-10.13s5.24-5.42,6.66-5.49c1.7-.08,4.3-1.32,5.4,6,.85.77,2.81.43,2.81.43,2.98-2.81,5.7-5.62,6.13-5.62s5.96-.68,3.74,1.79c-2.21,2.46-5.87,6.21-5.87,6.21Z"/>
        <path class="cls-8" d="m149.23,114.2s7.49,20.68,11.83,23.49c-1.42,2.93-16.22,6.33-16.75,6.45-2.08-4.91-6.47-10.07-13.29-17.81-9.8-8.32-15.08-18.22-17.85-25.39,1.57-.08,3.2-.14,4.85-.19.98-.03,1.96-.05,2.93-.06,2.44-.04,4.81-.02,6.9.09,2.72.14,4.98.42,6.31.91,6.22,2.3,15.07,12.51,15.07,12.51Z"/>
        <path class="cls-9" d="m136.29,157.89c7.32,3.38,23.49,7.89,23.49,7.89-15.57,3.32-37.02,6.38-55.66-.26,1.75.03,3.94-.49,6.39-1.29,8.54-2.8,20.09-8.96,25.78-6.34Z"/>
        <path class="cls-9" d="m110.36,162.48l.15,1.75c-2.45.8-4.64,1.32-6.39,1.29-9.02-.17-34.38-12.25-34.38-12.25l22.65-.2c5.39,4.86,10.52,8.6,17.97,9.41Z"/>
        <path class="cls-9" d="m92.39,153.07l-22.65.2-10.55-6.9s11.91-4.17,16.51-7.57c6.95,4.79,11.92,9.97,16.69,14.27Z"/>
        <path class="cls-4" d="m69.74,153.27s25.36,12.08,34.38,12.25c-10.98,2.56-32.68,7.92-41.87-2.04-2.35,1.05-5.72,1.85-9.54,2.3-4.42-4.29-9.75-6.92-15.99-7.92,1.53-5.1,3.57-7.66,8.94-8.17,2.12.21,3.94.6,5.7.6,0,0,4.93,5.53,18.38,2.98Z"/>
        <path class="cls-9" d="m59.19,146.37l10.55,6.9c-13.45,2.55-18.38-2.98-18.38-2.98,2.47,0,4.85-.79,7.83-3.92Z"/>
        <path class="cls-4" d="m52.71,165.78c-11.92,1.41-28.23-.56-31.65-8.68,12.6,1.02,15.66.76,15.66.76,6.24,1,11.57,3.63,15.99,7.92Z"/>
      </g>
      <g>
        <path class="cls-2" d="m181.66,32.85c-3.59-2.4-5.32-4.01-5.96-4.05s-2.04.21-2.04.21c.46-.68,2.46-1.66,2.72-1.7,2.92,2.57,5,4.84,5.28,5.46.03.05.04.08.04.11-.01,0-.03-.02-.04-.03Z"/>
        <path class="cls-2" d="m174.74,33.99s3.13-.08,4.15.43"/>
        <path class="cls-2" d="m181.71,35.14s-.69,1.32-.01,2.34,2.42,1.75,2.42,2.04c0,.9-1.37,3-1.92,3.1-.56.09-1.99,3.29-2.12,4.18s.64,3.57,0,4.47c-.26.36-1.61.41-3.26.34-2.45-.08-5.55-.42-6.7-.34-1.91.13-3.7.37-3.7.37"/>
        <path class="cls-2" d="m178.89,40.29l1.02,1.67s.96.56,2.29.66"/>
        <path class="cls-2" d="m181.14,20.57s.69,6.36.56,7.76c-.07.78-.06,2.81-.04,4.44v.08c.02,1.27.05,2.29.05,2.29"/>
        <path class="cls-2" d="m176.82,46.33s1.6.09,3.26.47"/>
        <path class="cls-2" d="m176.82,51.64c-.87.01-5.5,3.83-6.08,6.18"/>
        <line class="cls-2" x1="153.14" y1="42.37" x2="153.14" y2="45.78"/>
        <path class="cls-2" d="m188.55,79.32c2.69,3.35,5.45,6.36,7.49,7.56,5.62,3.32,13.02,6.64,15.83,9.2,2.81,2.55,0,13.78,0,15.32l8.42,2.8c4.6,9.96,17.37,36.77,17.37,36.77-13.03,1.53-14.56,1.53-14.56,1.53-6.38,6.64-12.76,11.49-14.81,11.49h-34.03c-2.73,2.3-9.63,4.85-14.48,1.79-15.57,3.32-37.02,6.38-55.66-.26-10.98,2.56-32.68,7.92-41.87-2.04-2.35,1.05-5.72,1.85-9.54,2.3-11.92,1.41-28.23-.56-31.65-8.68,12.6,1.02,15.66.76,15.66.76,1.53-5.1,3.57-7.66,8.94-8.17,2.12.21,3.94.6,5.7.6,2.47,0,4.85-.79,7.83-3.92,1.27-5.87,2.04-20.42,2.04-24s2.3-6.63,5.11-8.93c2.8-2.3,9.7-5.11,12.76-5.11.51-7.91,0-9.7,3.32-12.51,4.85-6.13,22.21-28.59,27.83-30.64,1.28-4.85,8.43-10.81,19.11-9.44,7.96-1.37,10.85-.95,10.85-.95.51-4.33,1.53-5.01,1.53-5.01l6.01-3.21,2.63-1.24c.76-.35,1.66-.28,2.35.2.12.08.25.18.39.27,2.23,1.55,6.47,4.49,9.47,6.53,2.33,1.58,5.38,3.49,8.15,5.49,2.3,1.67,4.41,3.4,5.72,5.06l2.9,3.66s3.05,4.7,6.76,9.64c.79,1.05,1.61,2.11,2.43,3.13"/>
        <path class="cls-3" d="m148.38,48.16s14.69,7.94,15.74,9.79c0,0-3.69,1.1-7.46,2.55-3.09,1.18-6.24,2.6-7.43,3.83"/>
        <path class="cls-3" d="m149.23,56.25s6.06,3.17,7.43,4.25"/>
        <path class="cls-3" d="m140.46,58.37s-13.12,23.52-12.61,42.41"/>
        <path class="cls-3" d="m129.36,57.95s-7.87,14.89-8.39,21.02c-.51,6.13-.02,21.72-.02,21.72"/>
        <line class="cls-3" x1="113.32" y1="70.54" x2="118.02" y2="100.75"/>
        <path class="cls-3" d="m101.83,101.69s5.1-.45,11.34-.75c1.57-.08,3.2-.14,4.85-.19.98-.03,1.96-.05,2.93-.06,2.44-.04,4.81-.02,6.9.09,2.72.14,4.98.42,6.31.91,6.22,2.3,15.07,12.51,15.07,12.51,0,0,7.49,20.68,11.83,23.49l4.34,2.81,18.72,11.49"/>
        <path class="cls-2" d="m174.26,163.99c3.27-3.57,8.71-11.36,9.86-12s38.98.51,38.98.51"/>
        <path class="cls-2" d="m36.72,157.86c6.24,1,11.57,3.63,15.99,7.92"/>
        <path class="cls-2" d="m110.36,162.48c-7.45-.81-12.58-4.55-17.97-9.41-4.77-4.3-9.74-9.48-16.69-14.27-4.6,3.4-16.51,7.57-16.51,7.57l10.55,6.9,22.65-.2"/>
        <path class="cls-2" d="m51.36,150.29s4.93,5.53,18.38,2.98c0,0,25.36,12.08,34.38,12.25,1.75.03,3.94-.49,6.39-1.29,8.54-2.8,20.09-8.96,25.78-6.34,7.32,3.38,23.49,7.89,23.49,7.89"/>
        <path class="cls-3" d="m69.23,119.74s8.97,11.38,6.47,19.06"/>
        <path class="cls-3" d="m84.77,110.37s.81,1.04,2.37,2.68c5.39,5.65,19.77,18.39,40.71,19.45"/>
        <path class="cls-3" d="m87.14,113.05s28.73,7.03,36.73,6.69"/>
        <path class="cls-3" d="m110.36,91.14s.59,4.01,2.81,9.8c2.77,7.17,8.05,17.07,17.85,25.39,6.82,7.74,11.21,12.9,13.29,17.81,1.08,2.57,1.53,5.08,1.35,7.85"/>
        <path class="cls-3" d="m144.3,144.14h.01c.53-.12,15.33-3.52,16.75-6.45"/>
        <path class="cls-3" d="m140.46,80.03s14.73,16.05,8.77,34.17"/>
        <path class="cls-3" d="m157.57,117.86s19.22-11.74,23.57-12.42,19.66-.34,25.79-7.15"/>
        <path class="cls-3" d="m215.44,134.71c.17-1.19-4.08-20.51-4.08-20.51,0,0-8.51,16.43-12.68,18.98l7.4.85"/>
        <line class="cls-3" x1="206.08" y1="129.27" x2="207.06" y2="138.8"/>
        <polyline class="cls-2" points="186.12 76.18 196.13 59.05 199.88 60.41 188.55 79.31 188.55 79.32"/>
        <path class="cls-2" d="m181.14,20.57c.06.01.12.01.18.02.27-1.19-3.92-6.64-6.39-11.15,0,0,3.66-3.75,5.87-6.21,2.22-2.47-3.31-1.79-3.74-1.79s-3.15,2.81-6.13,5.62c0,0-1.96.34-2.81-.43-1.1-7.32-3.7-6.08-5.4-6-1.42.07-5.23,3.02-6.66,5.49s-4.7,7.23-5.98,10.13c-1.24,2.82-2.49,12.35-2.31,23.7,0,.5.41.9.9.91h.42c.28.02.54-.12.68-.34.09-.13.14-.29.14-.45v-3.4c0-2.89.85-15.66,1.87-18.38s5.02-9.19,8.09-13.45c3.06-4.25,4.25-.68,4.67,3.41h-2.71v2.21h3.14l-.43,2.38s-6.03,7.92-7.4,10.73c-1.23,2.52-4.46,12.12-6.51,17.28-.23.56-.44,1.08-.63,1.52,0,0,1.02.26,3.14,0,.98-.11,3.41-1.46,5.82-2.91-1.17-.66-2.25-2.33-2.3-3.38-.05-1.37,0-5.11,2.1-5.67s2.95.36,3.32,2.47c.31,1.79,1.16,2.9,1.77,3.49.6-.39,1.01-.66,1.12-.72.6-.34,3.58-13.53,3.75-17.19,0,0,3.25.23,6.89.85,1.87.32,3.86,1.08,5.53,1.26Z"/>
      </g>
    </g>
  </g>
</svg>