<svg xmlns="http://www.w3.org/2000/svg" xml:space="preserve" id="レイヤー_1" x="0" y="0" style="enable-background:new 0 0 270.4 227.1" version="1.1" viewBox="0 0 270.4 227.1"><style>.st0{fill:#f3edd7}.st1{fill:#333}.st3{fill:none;stroke:#000;stroke-miterlimit:10}.st4{fill:#f0ebcb}.st5{fill:#c1272d}.st6{fill:#fc4541}.st7{fill:#f6534c}.st8{fill:#f8dab8}.st9{fill:#f4c3a8}.st10{fill:#faca9a}.st11{fill:none;stroke:#000;stroke-linecap:round;stroke-linejoin:round}</style><g id="_畳"><path d="M.2 192.5h3.6v5H.2zM270.1 220.1v6.6h-30.4l15.4-8.6c1 1.6 3.1 2.7 5.5 2.7s4.6-1.2 5.6-2.9l3.9 2.2z" class="st0"/><path d="M270.1 209.5v10.6l-4-2.2c.4-.6.6-1.4.6-2.1 0-1.3-.6-2.5-1.6-3.4l5-2.9zM270.1 197.5v12l-5 2.8c-1.1-1-2.8-1.6-4.6-1.6s-3.3.6-4.4 1.5L230 197.5h40.1zM270.1 104.4v5.7H.2v-5.7zM266.2 192.5h4v5h-4z" class="st0"/><path d="M266.8 215.7c0 .8-.2 1.5-.6 2.1l-5.4-3.1 4.4-2.5c1 1 1.6 2.2 1.6 3.5zM260.8 214.8l5.4 3.1c-1 1.7-3.1 2.9-5.6 2.9s-4.5-1.1-5.5-2.7l5.7-3.3z" class="st0"/><path d="M254.9 192.5h11.3v5h-11.3z" class="st1"/><path d="m265.2 212.3-4.4 2.5-4.6-2.6c1.1-.9 2.7-1.5 4.4-1.5 1.8 0 3.4.6 4.6 1.6z" class="st0"/><path d="m260.8 214.8-5.7 3.2c-.4-.7-.7-1.5-.7-2.3 0-1.4.7-2.6 1.8-3.5l4.6 2.6z" class="st0"/><path d="m230 197.5 26.1 14.7c-1.1.9-1.8 2.1-1.8 3.5 0 .8.2 1.6.7 2.3l-15.4 8.6h-41.5l-15.6-8.8c.4-.6.6-1.4.6-2.1 0-1.3-.6-2.5-1.6-3.4l26.3-14.8H230zm-5.9 18.2c0-2.8-2.2-5-5-5s-5 2.2-5 5 2.2 5 5 5 5-2.2 5-5z" class="st0"/><path d="M254.9 197.5H224.3v-5h30.6z" class="st0"/><path d="M213 192.5h11.3v5H213zM219.1 210.7c2.8 0 5 2.2 5 5s-2.2 5-5 5-5-2.2-5-5 2.2-5 5-5z" class="st1"/><path d="m207.9 197.5-26.3 14.8c-1.1-1-2.8-1.6-4.6-1.6s-3.3.6-4.4 1.5l-26.1-14.7h61.4zM182.5 197.5v-5H213v5h-5.1zM198.2 226.6h-42.1l15.4-8.6c1 1.6 3.1 2.7 5.5 2.7s4.6-1.2 5.6-2.9l15.6 8.8z" class="st0"/><path d="M183.2 215.7c0 .8-.2 1.5-.6 2.1l-5.4-3.1 4.4-2.5c.9 1 1.6 2.2 1.6 3.5zM177.1 214.8l5.4 3.1c-1 1.7-3.1 2.9-5.6 2.9s-4.5-1.1-5.5-2.7l5.7-3.3z" class="st0"/><path d="M171.2 192.5h11.3v5h-11.3z" class="st1"/><path d="M176.9 210.7c1.8 0 3.5.6 4.6 1.6l-4.4 2.5-4.6-2.6c1.1-1 2.7-1.5 4.4-1.5z" class="st0"/><path d="m177.1 214.8-5.7 3.2c-.4-.7-.7-1.5-.7-2.3 0-1.4.7-2.6 1.8-3.5l4.6 2.6z" class="st0"/><path d="m146.4 197.5 26.1 14.7c-1.1.9-1.8 2.1-1.8 3.5 0 .8.2 1.6.7 2.3l-15.4 8.6h-41.5L99 217.8c.4-.6.6-1.4.6-2.1 0-1.3-.6-2.5-1.6-3.4l26.3-14.8h22.1zm-7 18.2c0-2.8-2.2-5-5-5s-5 2.2-5 5 2.2 5 5 5 5-2.2 5-5zM171.2 197.5h-30.5v-5h30.5z" class="st0"/><path d="M129.4 192.5h11.3v5h-11.3zM134.4 210.7c2.8 0 5 2.2 5 5s-2.2 5-5 5-5-2.2-5-5 2.2-5 5-5z" class="st1"/><path d="M124.3 197.5 98 212.3c-1.1-1-2.8-1.6-4.6-1.6s-3.3.6-4.4 1.5l-26.1-14.7h61.4zM129.4 197.5H98.8v-5h30.6zM114.6 226.6H72.5l15.3-8.6c1 1.6 3.1 2.7 5.5 2.7s4.6-1.2 5.6-2.9l15.7 8.8z" class="st0"/><path d="M99.5 215.7c0 .8-.2 1.5-.6 2.1l-5.4-3.1 4.4-2.5c1 1 1.6 2.2 1.6 3.5zM93.5 214.8l5.4 3.1c-1 1.7-3.1 2.9-5.6 2.9s-4.5-1.1-5.5-2.7c0-.1 5.7-3.3 5.7-3.3z" class="st0"/><path d="M87.5 192.5h11.3v5H87.5z" class="st1"/><path d="M93.3 210.7c1.8 0 3.5.6 4.6 1.6l-4.4 2.5-4.6-2.6c1.1-1 2.7-1.5 4.4-1.5z" class="st0"/><path d="m93.5 214.8-5.7 3.2c-.4-.7-.7-1.5-.7-2.3 0-1.4.7-2.6 1.8-3.5l4.6 2.6z" class="st0"/><path d="m62.8 197.5 26.1 14.7c-1.1.9-1.8 2.1-1.8 3.5 0 .8.2 1.6.7 2.3l-15.3 8.6H30.8l-15.6-8.8c.4-.6.6-1.4.6-2.1 0-1.3-.6-2.5-1.6-3.4l26.3-14.8h22.3zm-8.5 18.2c0-2.8-2.2-5-5-5s-5 2.2-5 5 2.2 5 5 5 5-2.2 5-5z" class="st0"/><path d="M87.5 197.5H57v-5h30.5z" class="st0"/><path d="M45.7 192.5H57v5H45.7zM49.2 210.7c2.8 0 5 2.2 5 5s-2.2 5-5 5-5-2.2-5-5 2.3-5 5-5z" class="st1"/><path d="M45.7 197.5H15.2v-5h30.5zM30.8 226.6H.2v-6.5L4 218c1 1.6 3.1 2.7 5.5 2.7s4.6-1.2 5.6-2.9l15.7 8.8zM15.7 215.7c0 .8-.2 1.5-.6 2.1l-5.4-3.1 4.4-2.5c1 1 1.6 2.2 1.6 3.5z" class="st0"/><path d="M3.9 192.5h11.3v5H3.9z" class="st1"/><path d="m9.7 214.8 5.4 3.1c-1 1.7-3.1 2.9-5.6 2.9S5 219.6 4 218l5.7-3.2zM9.5 210.7c1.8 0 3.5.6 4.6 1.6l-4.4 2.5-4.6-2.6c1.1-1 2.7-1.5 4.4-1.5z" class="st0"/><path d="M9.7 214.8 4 218c-.4-.7-.7-1.5-.7-2.3 0-1.4.7-2.6 1.8-3.5l4.6 2.6zM.2 209.5l4.8 2.7c-1.1.9-1.8 2.1-1.8 3.5 0 .8.2 1.6.7 2.3l-3.8 2.1c.1 0 .1-10.6.1-10.6z" class="st0"/><path d="M213 192.5H.2v-82.4h269.9v82.4H224.3z" style="fill:#d2d296"/><path d="M.2 197.5h40.2l-26.3 14.8c-1.1-1-2.8-1.6-4.6-1.6s-3.3.6-4.4 1.5l-4.8-2.7c-.1 0-.1-12-.1-12z" class="st0"/><path d="M270.1 226.6H.2M.2 104.4h269.9M.2 110.1h269.9M266.2 192.5h3.9M224.3 192.5h30.6M182.5 192.5H213M140.7 192.5h30.5M98.8 192.5h30.6M57 192.5h30.5M15.2 192.5h30.5M.2 192.5h3.7M266.2 197.5h3.9M224.3 197.5H254.9M182.5 197.5H213M140.7 197.5h30.5M98.8 197.5h30.6M57 197.5h30.5M15.2 197.5h30.5M.2 197.5h3.7M72.5 226.6l15.3-8.6 5.7-3.2 4.4-2.5 26.4-14.8" class="st3"/><path d="m114.6 226.6-15.7-8.8-5.4-3-4.6-2.6-26.1-14.7M139.4 215.7c0 2.8-2.2 5-5 5s-5-2.2-5-5 2.2-5 5-5 5 2.2 5 5zM224.1 215.7c0 2.8-2.2 5-5 5s-5-2.2-5-5 2.2-5 5-5 5 2.2 5 5z" class="st3"/><path d="M97.9 212.3c1 .9 1.6 2.1 1.6 3.4 0 .8-.2 1.5-.6 2.1-1 1.7-3.1 2.9-5.6 2.9s-4.5-1.1-5.5-2.7c-.4-.7-.7-1.5-.7-2.3 0-1.4.7-2.6 1.8-3.5 1.1-.9 2.7-1.5 4.4-1.5 1.9 0 3.5.6 4.6 1.6zM.2 220.1 4 218l5.7-3.2 4.4-2.5 26.4-14.8" class="st3"/><path d="m30.8 226.6-15.7-8.8-5.4-3-4.6-2.6-4.9-2.7" class="st3"/><path d="M14.1 212.3c1 .9 1.6 2.1 1.6 3.4 0 .8-.2 1.5-.6 2.1-1 1.7-3.1 2.9-5.6 2.9S5 219.6 4 218c-.4-.7-.7-1.5-.7-2.3 0-1.4.7-2.6 1.8-3.5 1.1-.9 2.7-1.5 4.4-1.5 1.8 0 3.5.6 4.6 1.6zM156.1 226.6l15.3-8.6 5.7-3.2 4.4-2.5 26.4-14.8" class="st3"/><path d="m198.2 226.6-15.6-8.8-5.5-3-4.6-2.6-26.1-14.7" class="st3"/><path d="M181.5 212.3c1 .9 1.6 2.1 1.6 3.4 0 .8-.2 1.5-.6 2.1-1 1.7-3.1 2.9-5.6 2.9s-4.5-1.1-5.5-2.7c-.4-.7-.7-1.5-.7-2.3 0-1.4.7-2.6 1.8-3.5 1.1-.9 2.7-1.5 4.4-1.5 1.9 0 3.5.6 4.6 1.6zM239.7 226.6l15.4-8.6 5.7-3.2 4.4-2.5 4.9-2.8" class="st3"/><path d="m270.1 220.1-3.9-2.3-5.4-3-4.7-2.6-26.1-14.7" class="st3"/><path d="M265.2 212.3c1 .9 1.6 2.1 1.6 3.4 0 .8-.2 1.5-.6 2.1-1 1.7-3.1 2.9-5.6 2.9s-4.5-1.1-5.5-2.7c-.4-.7-.7-1.5-.7-2.3 0-1.4.7-2.6 1.8-3.5 1.1-.9 2.7-1.5 4.4-1.5 1.8 0 3.4.6 4.6 1.6zM54.3 215.7c0 2.8-2.2 5-5 5s-5-2.2-5-5 2.2-5 5-5 5 2.2 5 5zM3.9 192.5h11.3v5H3.9zM45.7 192.5H57v5H45.7zM87.5 192.5h11.3v5H87.5zM129.4 192.5h11.3v5h-11.3zM171.2 192.5h11.3v5h-11.3zM213 192.5h11.3v5H213zM254.9 192.5h11.3v5h-11.3z" class="st3"/></g><path d="M230.9 104.7c11.5 7.9 27.8 24.5 30.4 34.2-30.6 1.3-51.1 4.6-51.1 4.6l-.4-.4-24.2-24.6c4.1-.3 13.8-.4 25.1-3.3l20.2-10.5z" class="st4"/><path d="M210.8 95.8v19.4c-11.3 2.9-21 3-25.1 3.3-1.1.2-2.3.4-3.4.6l-9.9-12.5c11.1-2.1 24.2-5.6 26.4-7.2 3-2.4 12-3.6 12-3.6z" class="st4"/><path d="m209.9 143.1.4.4-11.3 12.8h-5.6c-5.6 0-11.8-1.7-19-3.9 0 0 25.9-9.5 35.1-8.9l.4-.4z" class="st5"/><path d="m134.1 137.1-8.9 5.5-13.2 8.1c-3.8-6.6-5.5-13.4-6.1-19.7-.2-1.8-.3-3.5-.3-5.1-.1-9.8 2.2-16.9 2.2-16.9l12.6-12.9s16.1 13.1 36 12c-4.3-10.3-12-27.1-12.2-33.7 4.8 10.2 16.9 33.1 16.9 33.7 0 0 6.8 9.6 11.2 12 3.2-.1 6.5-.4 10-1 1.1-.2 2.3-.4 3.4-.6l24.2 24.6-.4.4c-9.2-.7-35.1 8.9-35.1 8.9s-7.4.6-14.5 1c-5.2.3-10.3.5-12.1.2-1.3-.2-3.2-2-5.2-4.2-4.1-5-8.5-12.3-8.5-12.3z" class="st6"/><path d="M174.4 152.4c7.1 2.2 13.4 3.9 19 3.9-10 5.4-29.9 10.5-39.6 7.1 0 0 5.1-6.3 6.1-9.9v-.2c7.1-.3 14.5-.9 14.5-.9z" class="st7"/><path d="m172.4 106.6 9.9 12.5c-3.5.5-6.8.8-10 1-4.4-2.3-11.2-12-11.2-12 2.8-.1 6.9-.7 11.3-1.5z" class="st6"/><path d="M160 153.4v.2c-1 3.6-6.1 9.9-6.1 9.9-3.8 4.9-5.6 5.1-5.6 5.1-14.8-1.3-25.4-6.6-25.4-6.6-4.9-2.2-10.7-11.2-10.7-11.2s19.5 4.6 35.8 2.9c1.7.2 6.7 0 12-.3z" class="st7"/><path d="M86.3 55.4c1.7 2.9 4.4 5.8 8.5 7.8 7.3 3.5 16.9-3.1 16.9-3.1v-.2c5.7 1 9.5-2.1 11.2-3.2.6-.4 1.2-.9 1.9-1.6l.6-.6s5.7 3.1 8.3 4.4c2.6 1.4 7.7 7.3 8.5 11.1.1.7.8 2.3 1.9 4.5.2 6.5 7.9 23.3 12.2 33.7-19.9 1.1-36-12-36-12L107.8 109s-2.3 7.2-2.2 16.9c-5.4 1.1-13.7-3.7-18.1-6.6l-.4 1.1-15.1-1.3-1.6.1c-1-11.6-1.3-32.1-1.3-32.1l-.1-.2.6-.3 1 4.1 2.4-.5-1.1-4.7c.4-.3 1.8-2.8 2-3.5.2-.6-.2-1.4-.2-1.4.4-.5.7-1 .8-1.1.2-.4-.2-1.7-.2-1.7s.7-1.1.7-1.5c0-.3-.6-1.6-.6-1.6.1-.1 0-1.1-.2-1.7s-.7-1-1.6-.9c0 0-.1.1-.4.2-.1-.3-1.4-.6-2.5-.7-.2-8.9 8.3-24.2 13.2-27.6.2.2.2 5.9 3.4 11.4z" class="st6"/><path d="M142.7 149.3c1.9 2.3 3.8 4 5.2 4.2-16.3 1.7-35.8-2.9-35.8-2.9l13.2-8.1c-.1 0 10.4 7.2 17.4 6.8z" class="st5"/><path d="M142.7 149.3c-7 .4-17.5-6.8-17.5-6.8l8.9-5.5c0 .1 4.4 7.4 8.6 12.3z" class="st5"/><path d="M133.3.6c1-.3 3.4-.1 2 1.9s-12.9 12.4-12.9 12.4c4.2 2.5 10 6.7 9.2 14.3-8.1-.5-14-4.9-14.5-5.7-3.7 4.7-8.2 10.2-11.8 14.4-.2-.9-.4-2.1-1-2.6-1-.9-2.4-1.1-3-.1-.4.7-1.2 2.2-1.3 3.6h-.4c-.2-2.2-.4-7.7 2.2-10.9-.7-2.6-.2-6.6.7-8.7.8-2.1 3.8-10.6 11.7-14.6 3.2-1.3 8.2 1.4 8.2 1.4 4.8-2.3 9.9-5 10.9-5.4z" class="st1"/><path d="M112.1 52.6c2.7.1 6.8-.5 7.2-.8.4-.2-.3-.8-.3-.8s-6 1.6-6.9 1.6zm9.4-1.5.4.8-.9.4 3.6 2 .4.7c-.7.7-1.3 1.3-1.9 1.6-1.7 1.1-5.5 4.2-11.2 3.2-1.2-.2-2.6-.6-4-1.3-3.7 1-5 1.1-8.3-.6C94.2 55.3 89 45.1 89 45.1l2.8-1.7s1.9-.5 3 .5c-.4.5-.7.8-.7.8s3.6.8 4.9 0c.4-.2 1.3-1.2 2.7-2.7-.6-.2-1.1-.6-1.4-1.3-.3-.6-.3-1.2-.3-1.8.1-1.5.9-2.9 1.3-3.6.6-1 1.9-.8 3 .1.6.5.9 1.7 1 2.6 3.6-4.2 8.1-9.7 11.8-14.4.4.9 6.4 5.2 14.5 5.7 0 0-.2 3.4-.5 7.3h-5.6l-.9 1.9s-.1 1.6-.3 3.7c-.3 3.5-.9 8.2-1.3 8.5-.4.3-.9.4-1.5.4zM119.7 34h.7l-7.1-4.2-1.3 1.3 7.7 2.9z" class="st8"/><path d="m131.1 36.5-.7 1.5-4.9-1.5z" class="st1"/><path d="m130.4 38 .8-1.5c-.2 2-.3 4.2-.5 6.1l-1.2-.1c-1.2-.1-2.5 0-2.5 0l-2.7-.3c.2-2.1.3-3.7.3-3.7l.9-1.9 4.9 1.4z" class="st9"/><path d="m129.4 42.5 1.2.1c-.2 2.5-.5 4.5-.8 4.8-.5 2.1-2.4 5-4.3 7l-.6.6-.4-.7-2.5-2.5-.1.1-.4-.8c.6 0 1.1-.1 1.4-.4.4-.4.9-5.1 1.3-8.5l2.7.3s1.3-.1 2.5 0z" class="st9"/><path d="M120.4 34h-.7l-7.6-2.9 1.2-1.3z" class="st1"/><path d="M112.1 150.7s5.9 9 10.7 11.2c-15.9-.2-33.8-4.3-33.8-4.3l.3-13.7v-.1c5.4 2.2 15.9 6.4 22.8 6.9zM111.8 59.9v.2s-9.6 6.5-16.9 3.1c-4.1-1.9-6.8-4.8-8.5-7.8-3.3-5.5-3.2-11.2-3.2-11.2 3.4.4 5.9.9 5.9.9S94.2 55.3 99.5 58c3.3 1.7 4.7 1.5 8.3.6 1.4.6 2.8 1.1 4 1.3z" class="st6"/><path d="M105.9 131c.6 6.2 2.3 13.1 6.1 19.7-6.8-.5-17.4-4.6-22.7-6.9-2-.9-3.3-1.4-3.3-1.4l-3.2.8-1.4.3c-8.2-4.2-14.3-8.7-18.6-13.3l.1-.1c2.9-.2 6.1-.7 9.1-1.3 6-1.2 11-2.7 11-2.7l.9 11.6c.1 0 18.5-4.1 22-6.7z" class="st6"/><path d="M105.9 131c-3.5 2.6-21.9 6.6-21.9 6.6l-.9-11.6-11-7 15.1 1.3.4-1.1c4.4 2.9 12.7 7.7 18.1 6.6-.1 1.7 0 3.4.2 5.2z" class="st6"/><path d="M100.3 40.7c.3.7.9 1.1 1.4 1.3-1.3 1.5-2.3 2.5-2.7 2.7-1.4.8-4.9 0-4.9 0s.2-.3.7-.8c1.2-1.5 4-4.7 4.9-5.1h.4c-.1.7 0 1.3.2 1.9z" class="st1"/><path d="m89.4 143.8-.4 13.8v2.8l-6.6 6.4v-8.7l-.1.1.7-15v-.1l3.2-.8c-.1 0 1.2.6 3.2 1.5z" class="st4"/><path d="m72.1 119.1 11 7s-5 1.6-11 2.7l-.5-2.3c-.4-1-.8-3.8-1.1-7.3l1.6-.1z" class="st6"/><path d="m82.9 143.1-.7 15.1-8.3 10.3-1.5-9.9v-2.3l1.5-4.4c2-1.7 4.2-4.2 6.8-7.9.3-.2.6-.4.8-.5l1.4-.4z" class="st4"/><path d="M80.7 144c-13.3 8.1-45.2-.8-46.7-5.1-1.5-4.4.2-29.6.2-29.6l.2-.1c-.7-2.3-1.4-4.7-1.9-6.9l-.9-4.2c-.8-4.4-1-8.3-.3-11.2 2-.5 5.5-4.5 9.6-9.8l18-1.1c-1 3.4-2 7-3 10.7-1.2 4.3-2.2 8.7-2.6 13.2-1.1 9.9.5 20 8.8 29.4.3.3.5.6.8.9 4.3 4.6 10.4 9.1 18.6 13.3-.3.2-.5.3-.8.5z" class="st6"/><path d="M80.7 144c-2.6 3.7-4.9 6.2-6.8 7.9-3.9 3.3-6.5 3.5-7.4 3.5h-.4c-9.7 1.8-20.9 4.3-25.3 2.6-4.3-1.8-2.6-9.7-2.6-9.7-7.9-4.1-11.7-5.9-11.7-5.9-5.4-.8-10.5-3.6-10.5-3.6l1.5-3.6c3.2-3.8 14.8-32.8 14.8-32.8l.2-.1c.5 2.3 1.2 4.6 1.9 6.9l-.2.1s-1.7 25.2-.2 29.6c1.5 4.4 33.4 13.2 46.7 5.1z" class="st7"/><path d="m73.8 151.9-1.5 4.4-6-1c1.1.1 3.7-.1 7.5-3.4z" class="st7"/><path d="M65.5 44.7c3.4-1.9 11.8-1.2 17.6-.5-4.9 3.3-13.4 18.7-13.2 27.6-.8-.1-1.4-.1-1.4-.1l-3.3-18.2-4 1 4.6 18c-1 .4-1.9 1.2-2.4 1.5-.8.5-2 3.9-3 6.6l-1.6-4.7L40.9 77C50 65.2 61.8 46.7 65.5 44.7z" class="st6"/><path d="m72.1 85.5 1.1 4.7-2.4.5-1-4.1c1.1-.5 2.1-1 2.3-1.1z" class="st10"/><path d="m71.6 126.5.5 2.3c-3 .6-6.2 1.1-9.1 1.3l-.1.1c-.3-.3-.6-.6-.8-.9h.6c3.1-5.3.4-38.1.4-38.1v-.1l2.8-2.6 3.4-1.6.1.2s.3 20.5 1.3 32.1c.1 3.5.5 6.3.9 7.3z" class="st6"/><path d="M63 91.1s2.7 32.8-.4 38.1H62c-8.4-9.4-9.9-19.6-8.8-29.4l9.8-8.7c0-.1 0 0 0 0zM58.9 75.9l1.6 4.7c-.5 1.6-1 2.9-1.2 3.4-.6 1.3-3.4 2.6-3.4 2.6.9-3.7 2-7.2 3-10.7z" class="st5"/><path d="m32.5 102.3-.2.1s-11.6 28.9-14.8 32.8c-7.9-12.3-13.3-28.9 14-37h.1c.3 1.2.6 2.7.9 4.1z" class="st7"/><path d="M131.6 29.2c.9-7.6-4.9-11.7-9.2-14.3 0 0 11.6-10.5 12.9-12.4 1.4-2-1-2.2-2-1.9s-6.1 3.1-10.9 5.4c0 0-5-2.7-8.2-1.4-7.8 4.1-10.8 12.5-11.7 14.6-.8 2.1-1.4 6-.7 8.7-2.6 3.1-2.4 8.7-2.2 10.9-.9.3-3.6 3.5-4.9 5.1-.4.5-.7.8-.7.8s3.6.8 4.9 0c.4-.2 1.3-1.2 2.7-2.7-.6-.2-1.1-.6-1.4-1.3-.3-.6-.3-1.2-.3-1.8.1-1.5.9-2.9 1.3-3.6.6-1 1.9-.8 3 .1.6.5.9 1.7 1 2.6 3.6-4.2 8.1-9.7 11.8-14.4.6.8 6.5 5.1 14.6 5.6zM131.6 29.2s-.2 3.4-.5 7.3c-.2 2-.3 4.2-.5 6.1-.2 2.5-.5 4.5-.8 4.8-.5 2.1-2.4 5-4.3 7l-.6.6c-.7.7-1.3 1.3-1.9 1.6-1.7 1.1-5.5 4.2-11.2 3.2-1.2-.2-2.6-.6-4-1.3-.5-.2-.9-.5-1.4-.8" class="st11"/><path d="M110 38.4s6.2.8 7.9 1.5M126.9 42.5s1.3-.1 2.5 0M124.6 38.4s-.1 1.6-.3 3.7c-.3 3.5-.9 8.2-1.3 8.5-.3.3-.9.4-1.4.4-.7 0-1.3-.2-1.7-.4M120.4 47.6l-1.4 2.1M112.1 31.1l7.6 2.9h.7l-7.1-4.2zM131.1 36.5h-5.6l4.9 1.5zM112.1 52.6h0M112.1 52.6c2.7.1 6.8-.5 7.2-.8.4-.2-.3-.8-.3-.8s-6 1.6-6.9 1.6zM124.6 54.3l-3.6-2 .9-.4.1-.1zM117.9 53.5s1.2 1.4 3 .9M66 155.3c-9.7 1.8-20.9 4.3-25.3 2.6-4.3-1.8-2.6-9.7-2.6-9.7-7.9-4.1-11.7-5.9-11.7-5.9-5.4-.8-10.5-3.6-10.5-3.6l1.5-3.6c-7.9-12.3-13.3-28.9 14-37M66.3 155.3h-.2M125.5 54.5s5.7 3.1 8.3 4.4c2.6 1.4 7.7 7.3 8.5 11.1.1.7.8 2.3 1.9 4.5 4.8 10.2 16.9 33.1 16.9 33.7 2.9-.2 7-.8 11.4-1.6 11.1-2.1 24.2-5.6 26.4-7.2 3.1-2.3 12-3.6 12-3.6v19.4l20.2-10.5c11.5 7.9 27.8 24.5 30.4 34.2-30.6 1.3-51.1 4.6-51.1 4.6L199 156.3h-5.6c-10 5.4-29.9 10.5-39.6 7.1-3.8 4.9-5.6 5.1-5.6 5.1-14.8-1.3-25.4-6.6-25.4-6.6-15.9-.2-33.8-4.3-33.8-4.3v2.8l-6.6 6.4v-8.7l-.1.1-8.3 10.3-1.5-9.9v-2.3l-6-1" class="st11"/><path d="M42.3 130s-4.5-9.9-7.8-20.8c-.7-2.3-1.4-4.7-1.9-6.9h0l-.9-4.2c-.8-4.4-1-8.3-.3-11.2 2-.5 5.5-4.5 9.6-9.8 9-11.9 20.8-30.4 24.5-32.4 3.4-1.9 11.8-1.2 17.6-.5 3.4.4 5.9.9 5.9.9l2.8-1.7s1.9-.5 3 .5" class="st11"/><path d="M89 45.1S94.2 55.3 99.5 58c3.3 1.7 4.7 1.5 8.3.6" class="st11"/><path d="M111.8 60.1s-9.6 6.5-16.9 3.1c-4.1-1.9-6.8-4.8-8.5-7.8-3.3-5.5-3.2-11.2-3.2-11.2-4.9 3.3-13.4 18.7-13.2 27.6v.1M113 66.6s-12.1 19.6-11.7 33.2c.3 13.6 4.1 20.6 4.1 20.6" class="st11"/><path d="m134.1 82.1-13.7 14-12.6 12.9c-2.6-23 9.8-30 25.5-36.4l-6.3-9.4-6 9.4M107.8 109s-2.3 7.2-2.2 16.9c0 1.6.1 3.3.3 5.1.6 6.2 2.3 13.1 6.1 19.7l13.2-8.1 8.9-5.5c-15.3-6.8-19.4-17.4-19.4-17.4M134.1 137.1s4.4 7.4 8.6 12.3c1.9 2.3 3.8 4 5.2 4.2 1.8.3 6.9.1 12.1-.2 7.1-.4 14.5-1 14.5-1 7.1 2.2 13.4 3.9 19 3.9" class="st11"/><path d="M125.2 142.5s10.5 7.2 17.5 6.8M172.2 120.1c3.2-.1 6.5-.4 10-1 1.1-.2 2.3-.4 3.4-.6 4.1-.3 13.8-.4 25.1-3.3" class="st11"/><path d="M124.6 106.4s17.6 14.9 47.7 13.7" class="st11"/><path d="M161 108.1s6.8 9.6 11.2 12h0M172.2 106.4l.2.2 9.8 12.5M185.7 118.5l24.2 24.6.4.4M174.4 152.4s25.9-9.5 35.1-8.9M120.4 96.1s16.1 13.1 36 12c-4.3-10.3-12-27.1-12.2-33.7M94.8 86.1s5.6 36.5 7.4 38.3M84.7 117.2s1.1.9 2.9 2.1c4.4 2.9 12.7 7.7 18.1 6.6M87.2 120.4l-15.1-1.3 11 7 .9 11.6s18.4-4.1 21.9-6.6M86.3 55.4s-4.3 3-6.4 13.2M58.9 75.9l1.6 4.7M63 91.1s2.7 32.8-.4 38.1M32.3 102.3s-11.6 28.9-14.8 32.8" class="st11"/><path d="M34.2 109.3s-1.7 25.2-.2 29.6c1.5 4.3 33.4 13.2 46.7 5.1.3-.2.6-.4.8-.5-8.2-4.2-14.3-8.7-18.6-13.3-.3-.3-.6-.6-.8-.9-8.3-9.4-9.9-19.6-8.8-29.4.5-4.5 1.5-8.9 2.6-13.2 1-3.7 2.1-7.2 3-10.7l-18 1M81.5 143.5l1.4-.3 3.2-.8s1.2.6 3.3 1.4c5.3 2.2 15.8 6.4 22.7 6.9 0 0 19.5 4.6 35.8 2.9M153.8 163.4s5.1-6.3 6.1-9.9" class="st11"/><path d="M112.1 150.7s5.9 9 10.7 11.2M89 157.6l.3-13.8M82.2 158.2l.7-15M66 155.3s0 0 0 0c.2 0 .2 0 .3.1h.1c.9.1 3.6-.1 7.4-3.5 2-1.7 4.3-4.2 6.8-7.9.1-.1.2-.2.3-.4M72.4 156.3l1.5-4.4" class="st11"/><g id="XMLID_00000113342652692267812770000000266875772935574458_"><path d="M69.9 71.7c1.1.1 2.4.3 2.5.7-.9.3-3.1 1.2-3.5 1.4l-.4-2.2s.7.1 1.4.1z" class="st8"/><path d="M72.8 72.3c.9-.2 1.3.3 1.6.9.3.5.3 1.5.2 1.7 0 0 .6 1.2.6 1.6 0 .3-.7 1.5-.7 1.5s.3 1.3.2 1.7c-.1.1-.4.6-.8 1.1 0 0 .4.7.2 1.4-.2.6-1.6 3.2-2 3.5-.2.1-1.2.6-2.3 1.1l-.6.3c-1.6.8-3.4 1.6-3.4 1.6L63 91l-9.8 8.8c.5-4.5 1.5-8.9 2.6-13.2 0 0 2.8-1.3 3.4-2.6.2-.5.7-1.8 1.2-3.4 1-2.7 2.2-6 3-6.6.5-.3 1.4-1.1 2.4-1.5l.4 1.4s1.6.2 2.7-.1c.4-.2 2.6-1 3.5-1.4.3-.1.4-.1.4-.1z" class="st8"/><path d="m68.5 71.6.4 2.2c-1.1.3-2.7.1-2.7.1l-.4-1.4-4.6-18 4-1 3.3 18.1z" class="st10"/><path d="M68.5 71.6s.7 0 1.4.1c1.1.1 2.4.3 2.5.7 0 0 0 0 0 0" class="st11"/></g><path d="M55.8 86.6s2.8-1.3 3.4-2.6c.2-.5.7-1.8 1.2-3.4 1-2.7 2.2-6 3-6.6.5-.3 1.4-1.1 2.4-1.5h.1M74.7 74.8s.6 1.2.6 1.6c0 .3-.7 1.5-.7 1.5-.8.7-3.4 2.6-3.4 2.6" class="st11"/><path d="M74.5 77.8s.3 1.3.2 1.7c-.1.1-.4.6-.8 1.1-.7.9-1.7 2.2-2 2.2M69.7 86.6l-.6.3c-1.6.8-3.4 1.6-3.4 1.6L63 91l-9.8 8.8h0M74 80.6s.4.7.2 1.4c-.2.6-1.6 3.2-2 3.5-.2.1-1.2.6-2.3 1.1M68.9 73.8c.4-.2 2.7-1 3.6-1.4l.4-.2c.9-.2 1.3.3 1.6.9s.3 1.6.2 1.7c-.8.7-4.3 2.3-4.6 2.4M68.9 73.8l-.4-2.2-3.3-18.2-4 1 4.6 18 .4 1.4c0 .1 1.6.4 2.7 0z" class="st11"/><path d="M69.7 86.6h0l1.1 4.1 2.4-.5-1.1-4.7M69.2 87.1s.3 20.5 1.3 32.1c.3 3.6.7 6.3 1.1 7.3M63 130.1c2.9-.2 6.1-.7 9.1-1.3 6-1.2 11-2.7 11-2.7" class="st11"/></svg>