<?xml version="1.0" encoding="utf-8"?>
<!-- Generator: Adobe Illustrator 28.0.0, SVG Export Plug-In . SVG Version: 6.00 Build 0)  -->
<svg version="1.1" id="レイヤー_1" xmlns="http://www.w3.org/2000/svg" xmlns:xlink="http://www.w3.org/1999/xlink" x="0px"
	 y="0px" viewBox="0 0 270.4 227.1" style="enable-background:new 0 0 270.4 227.1;" xml:space="preserve">
<style type="text/css">
	.st0{fill:#F3EDD7;}
	.st1{fill:#333333;}
	.st2{fill:#D2D296;}
	.st3{fill:none;stroke:#000000;stroke-miterlimit:10;}
	.st4{fill:#F0EBCB;}
	.st5{fill:#C1272D;}
	.st6{fill:#FC4541;}
	.st7{fill:#F6534C;}
	.st8{fill:#F8DAB8;}
	.st9{fill:#F4C3A8;}
	.st10{fill:#FACA9A;}
	.st11{fill:none;stroke:#000000;stroke-linecap:round;stroke-linejoin:round;}
</style>
<g id="_畳">
	<g>
		<g>
			<rect x="0.2" y="192.5" class="st0" width="3.6" height="5"/>
			<path class="st0" d="M270.1,220.1v6.6h-30.4l15.4-8.6c1,1.6,3.1,2.7,5.5,2.7s4.6-1.2,5.6-2.9L270.1,220.1L270.1,220.1z"/>
			<path class="st0" d="M270.1,209.5v10.6l-4-2.2c0.4-0.6,0.6-1.4,0.6-2.1c0-1.3-0.6-2.5-1.6-3.4L270.1,209.5L270.1,209.5z"/>
			<path class="st0" d="M270.1,197.5v12l-5,2.8c-1.1-1-2.8-1.6-4.6-1.6s-3.3,0.6-4.4,1.5L230,197.5L270.1,197.5L270.1,197.5z"/>
			<polygon class="st0" points="270.1,104.4 270.1,110.1 1.1,110.1 0.2,110.1 0.2,104.4 			"/>
			<rect x="266.2" y="192.5" class="st0" width="4" height="5"/>
			<path class="st0" d="M266.8,215.7c0,0.8-0.2,1.5-0.6,2.1l-5.4-3.1l4.4-2.5C266.2,213.2,266.8,214.4,266.8,215.7z"/>
			<path class="st0" d="M260.8,214.8l5.4,3.1c-1,1.7-3.1,2.9-5.6,2.9s-4.5-1.1-5.5-2.7L260.8,214.8L260.8,214.8z"/>
			<rect x="254.9" y="192.5" class="st1" width="11.3" height="5"/>
			<path class="st0" d="M265.2,212.3l-4.4,2.5l-4.6-2.6c1.1-0.9,2.7-1.5,4.4-1.5C262.4,210.7,264,211.3,265.2,212.3L265.2,212.3z"/>
			<path class="st0" d="M260.8,214.8l-5.7,3.2c-0.4-0.7-0.7-1.5-0.7-2.3c0-1.4,0.7-2.6,1.8-3.5L260.8,214.8L260.8,214.8z"/>
			<path class="st0" d="M230,197.5l26.1,14.7c-1.1,0.9-1.8,2.1-1.8,3.5c0,0.8,0.2,1.6,0.7,2.3l-15.4,8.6h-41.5l-15.6-8.8
				c0.4-0.6,0.6-1.4,0.6-2.1c0-1.3-0.6-2.5-1.6-3.4l26.3-14.8H230z M224.1,215.7c0-2.8-2.2-5-5-5s-5,2.2-5,5s2.2,5,5,5
				S224.1,218.5,224.1,215.7z"/>
			<polygon class="st0" points="254.9,197.5 230,197.5 224.3,197.5 224.3,192.5 254.9,192.5 			"/>
			<rect x="213" y="192.5" class="st1" width="11.3" height="5"/>
			<path class="st1" d="M219.1,210.7c2.8,0,5,2.2,5,5s-2.2,5-5,5s-5-2.2-5-5S216.3,210.7,219.1,210.7z"/>
			<path class="st0" d="M207.9,197.5l-26.3,14.8c-1.1-1-2.8-1.6-4.6-1.6s-3.3,0.6-4.4,1.5l-26.1-14.7H207.9z"/>
			<polygon class="st0" points="182.5,197.5 182.5,192.5 213,192.5 213,197.5 207.9,197.5 			"/>
			<path class="st0" d="M198.2,226.6h-42.1l15.4-8.6c1,1.6,3.1,2.7,5.5,2.7s4.6-1.2,5.6-2.9L198.2,226.6L198.2,226.6z"/>
			<path class="st0" d="M183.2,215.7c0,0.8-0.2,1.5-0.6,2.1l-5.4-3.1l4.4-2.5C182.5,213.2,183.2,214.4,183.2,215.7L183.2,215.7z"/>
			<path class="st0" d="M177.1,214.8l5.4,3.1c-1,1.7-3.1,2.9-5.6,2.9s-4.5-1.1-5.5-2.7L177.1,214.8L177.1,214.8z"/>
			<rect x="171.2" y="192.5" class="st1" width="11.3" height="5"/>
			<path class="st0" d="M176.9,210.7c1.8,0,3.5,0.6,4.6,1.6l-4.4,2.5l-4.6-2.6C173.6,211.2,175.2,210.7,176.9,210.7z"/>
			<path class="st0" d="M177.1,214.8l-5.7,3.2c-0.4-0.7-0.7-1.5-0.7-2.3c0-1.4,0.7-2.6,1.8-3.5L177.1,214.8L177.1,214.8z"/>
			<path class="st0" d="M146.4,197.5l26.1,14.7c-1.1,0.9-1.8,2.1-1.8,3.5c0,0.8,0.2,1.6,0.7,2.3l-15.4,8.6h-41.5L99,217.8
				c0.4-0.6,0.6-1.4,0.6-2.1c0-1.3-0.6-2.5-1.6-3.4l26.3-14.8H146.4L146.4,197.5z M139.4,215.7c0-2.8-2.2-5-5-5s-5,2.2-5,5
				s2.2,5,5,5S139.4,218.5,139.4,215.7z"/>
			<polygon class="st0" points="171.2,197.5 146.4,197.5 140.7,197.5 140.7,192.5 171.2,192.5 			"/>
			<rect x="129.4" y="192.5" class="st1" width="11.3" height="5"/>
			<path class="st1" d="M134.4,210.7c2.8,0,5,2.2,5,5s-2.2,5-5,5s-5-2.2-5-5S131.6,210.7,134.4,210.7z"/>
			<path class="st0" d="M124.3,197.5l-26.3,14.8c-1.1-1-2.8-1.6-4.6-1.6s-3.3,0.6-4.4,1.5l-26.1-14.7H124.3z"/>
			<polygon class="st0" points="129.4,197.5 124.3,197.5 98.8,197.5 98.8,192.5 129.4,192.5 			"/>
			<path class="st0" d="M114.6,226.6H72.5l15.3-8.6c1,1.6,3.1,2.7,5.5,2.7s4.6-1.2,5.6-2.9L114.6,226.6L114.6,226.6z"/>
			<path class="st0" d="M99.5,215.7c0,0.8-0.2,1.5-0.6,2.1l-5.4-3.1l4.4-2.5C98.9,213.2,99.5,214.4,99.5,215.7L99.5,215.7z"/>
			<path class="st0" d="M93.5,214.8l5.4,3.1c-1,1.7-3.1,2.9-5.6,2.9s-4.5-1.1-5.5-2.7C87.8,218,93.5,214.8,93.5,214.8z"/>
			<rect x="87.5" y="192.5" class="st1" width="11.3" height="5"/>
			<path class="st0" d="M93.3,210.7c1.8,0,3.5,0.6,4.6,1.6l-4.4,2.5l-4.6-2.6C90,211.2,91.6,210.7,93.3,210.7z"/>
			<path class="st0" d="M93.5,214.8l-5.7,3.2c-0.4-0.7-0.7-1.5-0.7-2.3c0-1.4,0.7-2.6,1.8-3.5L93.5,214.8L93.5,214.8z"/>
			<path class="st0" d="M62.8,197.5l26.1,14.7c-1.1,0.9-1.8,2.1-1.8,3.5c0,0.8,0.2,1.6,0.7,2.3l-15.3,8.6H30.8l-15.6-8.8
				c0.4-0.6,0.6-1.4,0.6-2.1c0-1.3-0.6-2.5-1.6-3.4l26.3-14.8H62.8L62.8,197.5z M54.3,215.7c0-2.8-2.2-5-5-5s-5,2.2-5,5s2.2,5,5,5
				S54.3,218.5,54.3,215.7z"/>
			<polygon class="st0" points="87.5,197.5 62.8,197.5 57,197.5 57,192.5 87.5,192.5 			"/>
			<rect x="45.7" y="192.5" class="st1" width="11.3" height="5"/>
			<path class="st1" d="M49.2,210.7c2.8,0,5,2.2,5,5s-2.2,5-5,5s-5-2.2-5-5S46.5,210.7,49.2,210.7z"/>
			<polygon class="st0" points="45.7,197.5 40.5,197.5 15.2,197.5 15.2,192.5 45.7,192.5 			"/>
			<path class="st0" d="M30.8,226.6H0.2v-6.5L4,218c1,1.6,3.1,2.7,5.5,2.7s4.6-1.2,5.6-2.9L30.8,226.6L30.8,226.6z"/>
			<path class="st0" d="M15.7,215.7c0,0.8-0.2,1.5-0.6,2.1l-5.4-3.1l4.4-2.5C15.1,213.2,15.7,214.4,15.7,215.7L15.7,215.7z"/>
			<rect x="3.9" y="192.5" class="st1" width="11.3" height="5"/>
			<path class="st0" d="M9.7,214.8l5.4,3.1c-1,1.7-3.1,2.9-5.6,2.9S5,219.6,4,218L9.7,214.8z"/>
			<path class="st0" d="M9.5,210.7c1.8,0,3.5,0.6,4.6,1.6l-4.4,2.5l-4.6-2.6C6.2,211.2,7.8,210.7,9.5,210.7z"/>
			<path class="st0" d="M9.7,214.8L4,218c-0.4-0.7-0.7-1.5-0.7-2.3c0-1.4,0.7-2.6,1.8-3.5L9.7,214.8L9.7,214.8z"/>
			<path class="st0" d="M0.2,209.5l4.8,2.7c-1.1,0.9-1.8,2.1-1.8,3.5c0,0.8,0.2,1.6,0.7,2.3l-3.8,2.1C0.2,220.1,0.2,209.5,0.2,209.5
				z"/>
			<polygon class="st2" points="213,192.5 182.5,192.5 171.2,192.5 140.7,192.5 129.4,192.5 98.8,192.5 87.5,192.5 57,192.5 
				45.7,192.5 15.2,192.5 3.9,192.5 0.2,192.5 0.2,110.1 1.1,110.1 270.1,110.1 270.1,192.5 266.2,192.5 254.9,192.5 224.3,192.5 
							"/>
			<path class="st0" d="M0.2,197.5h40.2l-26.3,14.8c-1.1-1-2.8-1.6-4.6-1.6s-3.3,0.6-4.4,1.5l-4.8-2.7
				C0.2,209.5,0.2,197.5,0.2,197.5z"/>
		</g>
		<g>
			<polyline class="st3" points="270.1,226.6 239.7,226.6 198.2,226.6 156.1,226.6 114.6,226.6 72.5,226.6 30.8,226.6 0.2,226.6 			
				"/>
			<line class="st3" x1="0.2" y1="104.4" x2="270.1" y2="104.4"/>
			<line class="st3" x1="0.2" y1="110.1" x2="270.1" y2="110.1"/>
			<line class="st3" x1="266.2" y1="192.5" x2="270.1" y2="192.5"/>
			<line class="st3" x1="224.3" y1="192.5" x2="254.9" y2="192.5"/>
			<line class="st3" x1="182.5" y1="192.5" x2="213" y2="192.5"/>
			<line class="st3" x1="140.7" y1="192.5" x2="171.2" y2="192.5"/>
			<line class="st3" x1="98.8" y1="192.5" x2="129.4" y2="192.5"/>
			<line class="st3" x1="57" y1="192.5" x2="87.5" y2="192.5"/>
			<line class="st3" x1="15.2" y1="192.5" x2="45.7" y2="192.5"/>
			<line class="st3" x1="0.2" y1="192.5" x2="3.9" y2="192.5"/>
			<line class="st3" x1="266.2" y1="197.5" x2="270.1" y2="197.5"/>
			<polyline class="st3" points="224.3,197.5 230,197.5 254.9,197.5 			"/>
			<polyline class="st3" points="182.5,197.5 207.9,197.5 213,197.5 			"/>
			<polyline class="st3" points="140.7,197.5 146.4,197.5 171.2,197.5 			"/>
			<polyline class="st3" points="98.8,197.5 124.3,197.5 129.4,197.5 			"/>
			<polyline class="st3" points="57,197.5 62.8,197.5 87.5,197.5 			"/>
			<polyline class="st3" points="15.2,197.5 40.5,197.5 45.7,197.5 			"/>
			<line class="st3" x1="0.2" y1="197.5" x2="3.9" y2="197.5"/>
			<polyline class="st3" points="72.5,226.6 87.8,218 93.5,214.8 97.9,212.3 124.3,197.5 			"/>
			<polyline class="st3" points="114.6,226.6 98.9,217.8 93.5,214.8 88.9,212.2 62.8,197.5 			"/>
			<path class="st3" d="M139.4,215.7c0,2.8-2.2,5-5,5s-5-2.2-5-5s2.2-5,5-5S139.4,212.9,139.4,215.7z"/>
			<path class="st3" d="M224.1,215.7c0,2.8-2.2,5-5,5s-5-2.2-5-5s2.2-5,5-5S224.1,212.9,224.1,215.7z"/>
			<path class="st3" d="M97.9,212.3c1,0.9,1.6,2.1,1.6,3.4c0,0.8-0.2,1.5-0.6,2.1c-1,1.7-3.1,2.9-5.6,2.9s-4.5-1.1-5.5-2.7
				c-0.4-0.7-0.7-1.5-0.7-2.3c0-1.4,0.7-2.6,1.8-3.5c1.1-0.9,2.7-1.5,4.4-1.5C95.2,210.7,96.8,211.3,97.9,212.3L97.9,212.3z"/>
			<polyline class="st3" points="0.2,220.1 4,218 9.7,214.8 14.1,212.3 40.5,197.5 			"/>
			<polyline class="st3" points="30.8,226.6 15.1,217.8 9.7,214.8 5.1,212.2 0.2,209.5 			"/>
			<path class="st3" d="M14.1,212.3c1,0.9,1.6,2.1,1.6,3.4c0,0.8-0.2,1.5-0.6,2.1c-1,1.7-3.1,2.9-5.6,2.9S5,219.6,4,218
				c-0.4-0.7-0.7-1.5-0.7-2.3c0-1.4,0.7-2.6,1.8-3.5c1.1-0.9,2.7-1.5,4.4-1.5C11.3,210.7,13,211.3,14.1,212.3L14.1,212.3z"/>
			<polyline class="st3" points="156.1,226.6 171.4,218 177.1,214.8 181.5,212.3 207.9,197.5 			"/>
			<polyline class="st3" points="198.2,226.6 182.6,217.8 177.1,214.8 172.5,212.2 146.4,197.5 			"/>
			<path class="st3" d="M181.5,212.3c1,0.9,1.6,2.1,1.6,3.4c0,0.8-0.2,1.5-0.6,2.1c-1,1.7-3.1,2.9-5.6,2.9s-4.5-1.1-5.5-2.7
				c-0.4-0.7-0.7-1.5-0.7-2.3c0-1.4,0.7-2.6,1.8-3.5c1.1-0.9,2.7-1.5,4.4-1.5C178.8,210.7,180.4,211.3,181.5,212.3L181.5,212.3z"/>
			<polyline class="st3" points="239.7,226.6 255.1,218 260.8,214.8 265.2,212.3 270.1,209.5 			"/>
			<polyline class="st3" points="270.1,220.1 266.2,217.8 260.8,214.8 256.1,212.2 230,197.5 			"/>
			<path class="st3" d="M265.2,212.3c1,0.9,1.6,2.1,1.6,3.4c0,0.8-0.2,1.5-0.6,2.1c-1,1.7-3.1,2.9-5.6,2.9s-4.5-1.1-5.5-2.7
				c-0.4-0.7-0.7-1.5-0.7-2.3c0-1.4,0.7-2.6,1.8-3.5c1.1-0.9,2.7-1.5,4.4-1.5C262.4,210.7,264,211.3,265.2,212.3L265.2,212.3z"/>
			<path class="st3" d="M54.3,215.7c0,2.8-2.2,5-5,5s-5-2.2-5-5s2.2-5,5-5S54.3,212.9,54.3,215.7z"/>
			<rect x="3.9" y="192.5" class="st3" width="11.3" height="5"/>
			<rect x="45.7" y="192.5" class="st3" width="11.3" height="5"/>
			<rect x="87.5" y="192.5" class="st3" width="11.3" height="5"/>
			<rect x="129.4" y="192.5" class="st3" width="11.3" height="5"/>
			<rect x="171.2" y="192.5" class="st3" width="11.3" height="5"/>
			<rect x="213" y="192.5" class="st3" width="11.3" height="5"/>
			<rect x="254.9" y="192.5" class="st3" width="11.3" height="5"/>
		</g>
	</g>
</g>
<g>
	<g>
		<path class="st4" d="M230.9,104.7c11.5,7.9,27.8,24.5,30.4,34.2c-30.6,1.3-51.1,4.6-51.1,4.6l-0.4-0.4l-24.2-24.6
			c4.1-0.3,13.8-0.4,25.1-3.3L230.9,104.7L230.9,104.7z"/>
		<path class="st4" d="M210.8,95.8v19.4c-11.3,2.9-21,3-25.1,3.3c-1.1,0.2-2.3,0.4-3.4,0.6l-9.9-12.5c11.1-2.1,24.2-5.6,26.4-7.2
			C201.8,97,210.8,95.8,210.8,95.8z"/>
		<path class="st5" d="M209.9,143.1l0.4,0.4L199,156.3h-5.6c-5.6,0-11.8-1.7-19-3.9c0,0,25.9-9.5,35.1-8.9L209.9,143.1z"/>
		<path class="st6" d="M134.1,137.1l-8.9,5.5l-13.2,8.1c-3.8-6.6-5.5-13.4-6.1-19.7c-0.2-1.8-0.3-3.5-0.3-5.1
			c-0.1-9.8,2.2-16.9,2.2-16.9l12.6-12.9c0,0,16.1,13.1,36,12c-4.3-10.3-12-27.1-12.2-33.7c4.8,10.2,16.9,33.1,16.9,33.7
			c0,0,6.8,9.6,11.2,12l0,0c3.2-0.1,6.5-0.4,10-1c1.1-0.2,2.3-0.4,3.4-0.6l24.2,24.6l-0.4,0.4c-9.2-0.7-35.1,8.9-35.1,8.9
			s-7.4,0.6-14.5,1c-5.2,0.3-10.3,0.5-12.1,0.2c-1.3-0.2-3.2-2-5.2-4.2C138.5,144.4,134.1,137.1,134.1,137.1L134.1,137.1z"/>
		<path class="st7" d="M174.4,152.4c7.1,2.2,13.4,3.9,19,3.9c-10,5.4-29.9,10.5-39.6,7.1c0,0,5.1-6.3,6.1-9.9v-0.2
			C167,153,174.4,152.4,174.4,152.4L174.4,152.4z"/>
		<path class="st6" d="M172.4,106.6l9.9,12.5c-3.5,0.5-6.8,0.8-10,1l0,0c-4.4-2.3-11.2-12-11.2-12C163.9,108,168,107.4,172.4,106.6
			L172.4,106.6z"/>
		<path class="st7" d="M160,153.4v0.2c-1,3.6-6.1,9.9-6.1,9.9c-3.8,4.9-5.6,5.1-5.6,5.1c-14.8-1.3-25.4-6.6-25.4-6.6
			c-4.9-2.2-10.7-11.2-10.7-11.2s19.5,4.6,35.8,2.9C149.7,153.9,154.7,153.7,160,153.4L160,153.4z"/>
		<path class="st6" d="M86.3,55.4c1.7,2.9,4.4,5.8,8.5,7.8c7.3,3.5,16.9-3.1,16.9-3.1l0-0.2c5.7,1,9.5-2.1,11.2-3.2
			c0.6-0.4,1.2-0.9,1.9-1.6c0.2-0.2,0.4-0.4,0.6-0.6c0,0,5.7,3.1,8.3,4.4c2.6,1.4,7.7,7.3,8.5,11.1c0.1,0.7,0.8,2.3,1.9,4.5
			c0.2,6.5,7.9,23.3,12.2,33.7c-19.9,1.1-36-12-36-12L107.8,109c0,0-2.3,7.2-2.2,16.9h0c-5.4,1.1-13.7-3.7-18.1-6.6l-0.4,1.1
			l-15.1-1.3l-1.6,0.1c-1-11.6-1.3-32.1-1.3-32.1l-0.1-0.2c0.2-0.1,0.4-0.2,0.6-0.3l1,4.1l2.4-0.5l-1.1-4.7c0.4-0.3,1.8-2.8,2-3.5
			c0.2-0.6-0.2-1.4-0.2-1.4c0.4-0.5,0.7-1,0.8-1.1c0.2-0.4-0.2-1.7-0.2-1.7s0.7-1.1,0.7-1.5c0-0.3-0.6-1.6-0.6-1.6
			c0.1-0.1,0-1.1-0.2-1.7s-0.7-1-1.6-0.9c0,0-0.1,0.1-0.4,0.2c-0.1-0.3-1.4-0.6-2.5-0.7c-0.2-8.9,8.3-24.2,13.2-27.6
			C83.1,44.2,83.1,49.9,86.3,55.4L86.3,55.4z"/>
		<path class="st5" d="M142.7,149.3c1.9,2.3,3.8,4,5.2,4.2c-16.3,1.7-35.8-2.9-35.8-2.9l13.2-8.1
			C125.2,142.5,135.7,149.7,142.7,149.3z"/>
		<path class="st5" d="M142.7,149.3c-7,0.4-17.5-6.8-17.5-6.8l8.9-5.5C134.1,137.1,138.5,144.4,142.7,149.3z"/>
		<path class="st1" d="M133.3,0.6c1-0.3,3.4-0.1,2,1.9c-1.4,2-12.9,12.4-12.9,12.4c4.2,2.5,10,6.7,9.2,14.3
			c-8.1-0.5-14-4.9-14.5-5.7c-3.7,4.7-8.2,10.2-11.8,14.4c-0.2-0.9-0.4-2.1-1-2.6c-1-0.9-2.4-1.1-3-0.1c-0.4,0.7-1.2,2.2-1.3,3.6
			l-0.4,0c-0.2-2.2-0.4-7.7,2.2-10.9c-0.7-2.6-0.2-6.6,0.7-8.7c0.8-2.1,3.8-10.6,11.7-14.6c3.2-1.3,8.2,1.4,8.2,1.4
			C127.2,3.7,132.3,1,133.3,0.6L133.3,0.6z"/>
		<path class="st8" d="M112.1,52.6c2.7,0.1,6.8-0.5,7.2-0.8c0.4-0.2-0.3-0.8-0.3-0.8S113,52.6,112.1,52.6z M121.5,51.1l0.4,0.8
			l-0.9,0.4l3.6,2l0.4,0.7c-0.7,0.7-1.3,1.3-1.9,1.6c-1.7,1.1-5.5,4.2-11.2,3.2c-1.2-0.2-2.6-0.6-4-1.3c-3.7,1-5,1.1-8.3-0.6
			C94.2,55.3,89,45.1,89,45.1l2.8-1.7c0,0,1.9-0.5,3,0.5c-0.4,0.5-0.7,0.8-0.7,0.8s3.6,0.8,4.9,0c0.4-0.2,1.3-1.2,2.7-2.7
			c-0.6-0.2-1.1-0.6-1.4-1.3c-0.3-0.6-0.3-1.2-0.3-1.8c0.1-1.5,0.9-2.9,1.3-3.6c0.6-1,1.9-0.8,3,0.1c0.6,0.5,0.9,1.7,1,2.6
			c3.6-4.2,8.1-9.7,11.8-14.4c0.4,0.9,6.4,5.2,14.5,5.7c0,0-0.2,3.4-0.5,7.3h-5.6l-0.9,1.9c0,0-0.1,1.6-0.3,3.7
			c-0.3,3.5-0.9,8.2-1.3,8.5C122.6,51,122.1,51.1,121.5,51.1z M119.7,34h0.7l-7.1-4.2l-1.3,1.3L119.7,34z"/>
		<polygon class="st1" points="131.1,36.5 130.4,38 125.5,36.5 		"/>
		<path class="st9" d="M130.4,38l0.8-1.5c-0.2,2-0.3,4.2-0.5,6.1l-1.2-0.1c-1.2-0.1-2.5,0-2.5,0l-2.7-0.3c0.2-2.1,0.3-3.7,0.3-3.7
			l0.9-1.9L130.4,38L130.4,38z"/>
		<path class="st9" d="M129.4,42.5l1.2,0.1c-0.2,2.5-0.5,4.5-0.8,4.8c-0.5,2.1-2.4,5-4.3,7c-0.2,0.2-0.4,0.4-0.6,0.6l-0.4-0.7
			l-2.5-2.5l-0.1,0.1l-0.4-0.8c0.6,0,1.1-0.1,1.4-0.4c0.4-0.4,0.9-5.1,1.3-8.5l2.7,0.3C126.9,42.5,128.2,42.4,129.4,42.5z"/>
		<polygon class="st1" points="120.4,34 119.7,34 112.1,31.1 113.3,29.8 		"/>
		<path class="st6" d="M112.1,150.7c0,0,5.9,9,10.7,11.2c-15.9-0.2-33.8-4.3-33.8-4.3l0.3-13.7l0-0.1
			C94.7,146,105.2,150.2,112.1,150.7L112.1,150.7z"/>
		<path class="st6" d="M111.8,59.9l0,0.2c0,0-9.6,6.5-16.9,3.1c-4.1-1.9-6.8-4.8-8.5-7.8c-3.3-5.5-3.2-11.2-3.2-11.2
			c3.4,0.4,5.9,0.9,5.9,0.9S94.2,55.3,99.5,58c3.3,1.7,4.7,1.5,8.3,0.6C109.2,59.2,110.6,59.7,111.8,59.9z"/>
		<path class="st6" d="M105.9,131c0.6,6.2,2.3,13.1,6.1,19.7c-6.8-0.5-17.4-4.6-22.7-6.9c-2-0.9-3.3-1.4-3.3-1.4l-3.2,0.8l-1.4,0.3
			c-8.2-4.2-14.3-8.7-18.6-13.3l0.1-0.1c2.9-0.2,6.1-0.7,9.1-1.3c6-1.2,11-2.7,11-2.7l0.9,11.6C84,137.7,102.4,133.6,105.9,131
			L105.9,131L105.9,131z"/>
		<path class="st6" d="M105.9,131L105.9,131c-3.5,2.6-21.9,6.6-21.9,6.6l-0.9-11.6l-11-7l15.1,1.3l0.4-1.1
			c4.4,2.9,12.7,7.7,18.1,6.6h0C105.6,127.5,105.7,129.2,105.9,131z"/>
		<path class="st1" d="M100.3,40.7c0.3,0.7,0.9,1.1,1.4,1.3c-1.3,1.5-2.3,2.5-2.7,2.7c-1.4,0.8-4.9,0-4.9,0s0.2-0.3,0.7-0.8
			c1.2-1.5,4-4.7,4.9-5.1l0.4,0C100,39.5,100.1,40.1,100.3,40.7z"/>
		<path class="st4" d="M89.4,143.8L89.4,143.8L89,157.6v2.8l-6.6,6.4v-8.7l-0.1,0.1h0l0.7-15l0-0.1l3.2-0.8
			C86.1,142.3,87.4,142.9,89.4,143.8L89.4,143.8z"/>
		<path class="st6" d="M72.1,119.1l11,7c0,0-5,1.6-11,2.7l-0.5-2.3c-0.4-1-0.8-3.8-1.1-7.3C70.5,119.2,72.1,119.1,72.1,119.1z"/>
		<path class="st4" d="M82.9,143.1L82.9,143.1l-0.7,15.1h0l-8.3,10.3l-1.5-9.9v-2.3l1.5-4.4v0c2-1.7,4.2-4.2,6.8-7.9
			c0.3-0.2,0.6-0.4,0.8-0.5L82.9,143.1z"/>
		<path class="st6" d="M80.7,144c-13.3,8.1-45.2-0.8-46.7-5.1c-1.5-4.4,0.2-29.6,0.2-29.6l0.2-0.1c-0.7-2.3-1.4-4.7-1.9-6.9h0
			c-0.3-1.4-0.6-2.8-0.9-4.2c-0.8-4.4-1-8.3-0.3-11.2c2-0.5,5.5-4.5,9.6-9.8L58.9,76c-1,3.4-2,7-3,10.7c-1.2,4.3-2.2,8.7-2.6,13.2
			c-1.1,9.9,0.5,20,8.8,29.4c0.3,0.3,0.5,0.6,0.8,0.9c4.3,4.6,10.4,9.1,18.6,13.3C81.2,143.7,81,143.8,80.7,144L80.7,144z"/>
		<path class="st7" d="M80.7,144c-2.6,3.7-4.9,6.2-6.8,7.9c-3.9,3.3-6.5,3.5-7.4,3.5c0,0-0.1,0-0.1,0l-0.2,0c-0.1,0-0.1,0-0.1,0
			c-9.7,1.8-20.9,4.3-25.3,2.6c-4.3-1.8-2.6-9.7-2.6-9.7c-7.9-4.1-11.7-5.9-11.7-5.9c-5.4-0.8-10.5-3.6-10.5-3.6l1.5-3.6
			c3.2-3.8,14.8-32.8,14.8-32.8l0.2-0.1h0c0.5,2.3,1.2,4.6,1.9,6.9l-0.2,0.1c0,0-1.7,25.2-0.2,29.6C35.5,143.3,67.4,152.1,80.7,144
			L80.7,144z"/>
		<path class="st7" d="M73.8,151.9L73.8,151.9l-1.5,4.4l-6-1C67.4,155.4,70,155.2,73.8,151.9L73.8,151.9z"/>
		<path class="st6" d="M65.5,44.7c3.4-1.9,11.8-1.2,17.6-0.5c-4.9,3.3-13.4,18.7-13.2,27.6c-0.8-0.1-1.4-0.1-1.4-0.1l-3.3-18.2l-4,1
			l4.6,18c-1,0.4-1.9,1.2-2.4,1.5c-0.8,0.5-2,3.9-3,6.6l-1.6-4.7L40.9,77C50,65.2,61.8,46.7,65.5,44.7z"/>
		<path class="st10" d="M72.1,85.5l1.1,4.7l-2.4,0.5l-1-4.1l0,0C70.9,86.1,71.9,85.6,72.1,85.5z"/>
		<path class="st6" d="M71.6,126.5l0.5,2.3c-3,0.6-6.2,1.1-9.1,1.3l-0.1,0.1c-0.3-0.3-0.6-0.6-0.8-0.9l0.6,0
			c3.1-5.3,0.4-38.1,0.4-38.1l0-0.1l2.8-2.6c0,0,1.7-0.8,3.4-1.6l0.1,0.2c0,0,0.3,20.5,1.3,32.1C70.8,122.7,71.2,125.5,71.6,126.5z"
			/>
		<path class="st5" d="M63,91.1c0,0,2.7,32.8-0.4,38.1l-0.6,0c-8.4-9.4-9.9-19.6-8.8-29.4L63,91.1C63,91,63,91.1,63,91.1z"/>
		<path class="st5" d="M58.9,75.9l1.6,4.7c-0.5,1.6-1,2.9-1.2,3.4c-0.6,1.3-3.4,2.6-3.4,2.6C56.8,82.9,57.9,79.4,58.9,75.9z"/>
		<path class="st7" d="M32.5,102.3l-0.2,0.1c0,0-11.6,28.9-14.8,32.8c-7.9-12.3-13.3-28.9,14-37h0.1
			C31.9,99.4,32.2,100.9,32.5,102.3z"/>
	</g>
	<g>
		<path class="st11" d="M131.6,29.2c0.9-7.6-4.9-11.7-9.2-14.3c0,0,11.6-10.5,12.9-12.4c1.4-2-1-2.2-2-1.9s-6.1,3.1-10.9,5.4
			c0,0-5-2.7-8.2-1.4c-7.8,4.1-10.8,12.5-11.7,14.6c-0.8,2.1-1.4,6-0.7,8.7c-2.6,3.1-2.4,8.7-2.2,10.9c-0.9,0.3-3.6,3.5-4.9,5.1
			c-0.4,0.5-0.7,0.8-0.7,0.8s3.6,0.8,4.9,0c0.4-0.2,1.3-1.2,2.7-2.7c-0.6-0.2-1.1-0.6-1.4-1.3c-0.3-0.6-0.3-1.2-0.3-1.8
			c0.1-1.5,0.9-2.9,1.3-3.6c0.6-1,1.9-0.8,3,0.1c0.6,0.5,0.9,1.7,1,2.6c3.6-4.2,8.1-9.7,11.8-14.4C117.6,24.4,123.5,28.7,131.6,29.2
			z"/>
		<path class="st11" d="M131.6,29.2c0,0-0.2,3.4-0.5,7.3c-0.2,2-0.3,4.2-0.5,6.1c-0.2,2.5-0.5,4.5-0.8,4.8c-0.5,2.1-2.4,5-4.3,7
			c-0.2,0.2-0.4,0.4-0.6,0.6c-0.7,0.7-1.3,1.3-1.9,1.6c-1.7,1.1-5.5,4.2-11.2,3.2c-1.2-0.2-2.6-0.6-4-1.3c-0.5-0.2-0.9-0.5-1.4-0.8"
			/>
		<path class="st11" d="M110,38.4c0,0,6.2,0.8,7.9,1.5"/>
		<path class="st11" d="M126.9,42.5c0,0,1.3-0.1,2.5,0"/>
		<path class="st11" d="M124.6,38.4c0,0-0.1,1.6-0.3,3.7c-0.3,3.5-0.9,8.2-1.3,8.5c-0.3,0.3-0.9,0.4-1.4,0.4c-0.7,0-1.3-0.2-1.7-0.4
			"/>
		<line class="st11" x1="120.4" y1="47.6" x2="119" y2="49.7"/>
		<polygon class="st11" points="112.1,31.1 119.7,34 120.4,34 113.3,29.8 		"/>
		<polygon class="st11" points="131.1,36.5 125.5,36.5 130.4,38 		"/>
		<path class="st11" d="M112.1,52.6L112.1,52.6"/>
		<path class="st11" d="M112.1,52.6c2.7,0.1,6.8-0.5,7.2-0.8c0.4-0.2-0.3-0.8-0.3-0.8S113,52.6,112.1,52.6z"/>
		<polygon class="st11" points="124.6,54.3 121,52.3 121.9,51.9 122,51.8 		"/>
		<path class="st11" d="M117.9,53.5c0,0,1.2,1.4,3,0.9"/>
		<path class="st11" d="M66,155.3c-9.7,1.8-20.9,4.3-25.3,2.6c-4.3-1.8-2.6-9.7-2.6-9.7c-7.9-4.1-11.7-5.9-11.7-5.9
			c-5.4-0.8-10.5-3.6-10.5-3.6l1.5-3.6c-7.9-12.3-13.3-28.9,14-37"/>
		<line class="st11" x1="66.3" y1="155.3" x2="66.1" y2="155.3"/>
		<path class="st11" d="M125.5,54.5c0,0,5.7,3.1,8.3,4.4c2.6,1.4,7.7,7.3,8.5,11.1c0.1,0.7,0.8,2.3,1.9,4.5
			c4.8,10.2,16.9,33.1,16.9,33.7c2.9-0.2,7-0.8,11.4-1.6c11.1-2.1,24.2-5.6,26.4-7.2c3.1-2.3,12-3.6,12-3.6v19.4l20.2-10.5
			c11.5,7.9,27.8,24.5,30.4,34.2c-30.6,1.3-51.1,4.6-51.1,4.6L199,156.3h-5.6c-10,5.4-29.9,10.5-39.6,7.1c-3.8,4.9-5.6,5.1-5.6,5.1
			c-14.8-1.3-25.4-6.6-25.4-6.6c-15.9-0.2-33.8-4.3-33.8-4.3v2.8l-6.6,6.4v-8.7l-0.1,0.1l-8.3,10.3l-1.5-9.9v-2.3l-6-1"/>
		<path class="st11" d="M42.3,130c0,0-4.5-9.9-7.8-20.8c-0.7-2.3-1.4-4.7-1.9-6.9h0c-0.3-1.4-0.6-2.8-0.9-4.2
			c-0.8-4.4-1-8.3-0.3-11.2c2-0.5,5.5-4.5,9.6-9.8C50,65.2,61.8,46.7,65.5,44.7c3.4-1.9,11.8-1.2,17.6-0.5c3.4,0.4,5.9,0.9,5.9,0.9
			l2.8-1.7c0,0,1.9-0.5,3,0.5"/>
		<path class="st11" d="M89,45.1c0,0,5.2,10.2,10.5,12.9c3.3,1.7,4.7,1.5,8.3,0.6"/>
		<path class="st11" d="M111.8,60.1c0,0-9.6,6.5-16.9,3.1c-4.1-1.9-6.8-4.8-8.5-7.8c-3.3-5.5-3.2-11.2-3.2-11.2
			c-4.9,3.3-13.4,18.7-13.2,27.6v0.1"/>
		<path class="st11" d="M113,66.6c0,0-12.1,19.6-11.7,33.2c0.3,13.6,4.1,20.6,4.1,20.6"/>
		<path class="st11" d="M134.1,82.1l-13.7,14L107.8,109c-2.6-23,9.8-30,25.5-36.4l-6.3-9.4l-6,9.4"/>
		<path class="st11" d="M107.8,109c0,0-2.3,7.2-2.2,16.9c0,1.6,0.1,3.3,0.3,5.1c0.6,6.2,2.3,13.1,6.1,19.7l13.2-8.1l8.9-5.5
			c-15.3-6.8-19.4-17.4-19.4-17.4"/>
		<path class="st11" d="M134.1,137.1c0,0,4.4,7.4,8.6,12.3c1.9,2.3,3.8,4,5.2,4.2c1.8,0.3,6.9,0.1,12.1-0.2c7.1-0.4,14.5-1,14.5-1
			c7.1,2.2,13.4,3.9,19,3.9"/>
		<path class="st11" d="M125.2,142.5c0,0,10.5,7.2,17.5,6.8"/>
		<path class="st11" d="M172.2,120.1c3.2-0.1,6.5-0.4,10-1c1.1-0.2,2.3-0.4,3.4-0.6c4.1-0.3,13.8-0.4,25.1-3.3"/>
		<path class="st11" d="M124.6,106.4c0,0,17.6,14.9,47.7,13.7"/>
		<path class="st11" d="M161,108.1c0,0,6.8,9.6,11.2,12l0,0"/>
		<polyline class="st11" points="172.2,106.4 172.4,106.6 182.2,119.1 		"/>
		<polyline class="st11" points="185.7,118.5 209.9,143.1 210.3,143.5 		"/>
		<path class="st11" d="M174.4,152.4c0,0,25.9-9.5,35.1-8.9"/>
		<path class="st11" d="M120.4,96.1c0,0,16.1,13.1,36,12c-4.3-10.3-12-27.1-12.2-33.7"/>
		<path class="st11" d="M94.8,86.1c0,0,5.6,36.5,7.4,38.3"/>
		<path class="st11" d="M84.7,117.2c0,0,1.1,0.9,2.9,2.1c4.4,2.9,12.7,7.7,18.1,6.6"/>
		<path class="st11" d="M87.2,120.4l-15.1-1.3l11,7l0.9,11.6c0,0,18.4-4.1,21.9-6.6"/>
		<path class="st11" d="M86.3,55.4c0,0-4.3,3-6.4,13.2"/>
		<line class="st11" x1="58.9" y1="75.9" x2="60.5" y2="80.6"/>
		<path class="st11" d="M63,91.1c0,0,2.7,32.8-0.4,38.1"/>
		<path class="st11" d="M32.3,102.3c0,0-11.6,28.9-14.8,32.8"/>
		<path class="st11" d="M34.2,109.3c0,0-1.7,25.2-0.2,29.6c1.5,4.3,33.4,13.2,46.7,5.1c0.3-0.2,0.6-0.4,0.8-0.5
			c-8.2-4.2-14.3-8.7-18.6-13.3c-0.3-0.3-0.6-0.6-0.8-0.9c-8.3-9.4-9.9-19.6-8.8-29.4c0.5-4.5,1.5-8.9,2.6-13.2
			c1-3.7,2.1-7.2,3-10.7L40.9,77"/>
		<path class="st11" d="M81.5,143.5l1.4-0.3l3.2-0.8c0,0,1.2,0.6,3.3,1.4c5.3,2.2,15.8,6.4,22.7,6.9c0,0,19.5,4.6,35.8,2.9"/>
		<path class="st11" d="M153.8,163.4c0,0,5.1-6.3,6.1-9.9"/>
		<path class="st11" d="M112.1,150.7c0,0,5.9,9,10.7,11.2"/>
		<line class="st11" x1="89" y1="157.6" x2="89.3" y2="143.8"/>
		<line class="st11" x1="82.2" y1="158.2" x2="82.9" y2="143.2"/>
		<path class="st11" d="M66,155.3C66,155.3,66,155.3,66,155.3c0.2,0,0.2,0,0.3,0.1c0,0,0.1,0,0.1,0c0.9,0.1,3.6-0.1,7.4-3.5
			c2-1.7,4.3-4.2,6.8-7.9c0.1-0.1,0.2-0.2,0.3-0.4"/>
		<line class="st11" x1="72.4" y1="156.3" x2="73.9" y2="151.9"/>
		<g id="XMLID_00000113342652692267812770000000266875772935574458_">
			<g>
				<path class="st8" d="M69.9,71.7c1.1,0.1,2.4,0.3,2.5,0.7c-0.9,0.3-3.1,1.2-3.5,1.4l-0.4-2.2C68.5,71.6,69.2,71.7,69.9,71.7z"/>
				<path class="st8" d="M72.8,72.3c0.9-0.2,1.3,0.3,1.6,0.9c0.3,0.5,0.3,1.5,0.2,1.7c0,0,0.6,1.2,0.6,1.6c0,0.3-0.7,1.5-0.7,1.5
					s0.3,1.3,0.2,1.7c-0.1,0.1-0.4,0.6-0.8,1.1c0,0,0.4,0.7,0.2,1.4c-0.2,0.6-1.6,3.2-2,3.5c-0.2,0.1-1.2,0.6-2.3,1.1
					c-0.2,0.1-0.4,0.2-0.6,0.3c-1.6,0.8-3.4,1.6-3.4,1.6L63,91l-9.8,8.8c0.5-4.5,1.5-8.9,2.6-13.2c0,0,2.8-1.3,3.4-2.6
					c0.2-0.5,0.7-1.8,1.2-3.4c1-2.7,2.2-6,3-6.6c0.5-0.3,1.4-1.1,2.4-1.5l0.4,1.4c0,0,1.6,0.2,2.7-0.1c0.4-0.2,2.6-1,3.5-1.4
					C72.7,72.3,72.8,72.3,72.8,72.3z"/>
				<path class="st10" d="M68.5,71.6l0.4,2.2c-1.1,0.3-2.7,0.1-2.7,0.1l-0.4-1.4l-4.6-18l4-1L68.5,71.6z"/>
			</g>
			<g>
				<path class="st11" d="M68.5,71.6c0,0,0.7,0,1.4,0.1c1.1,0.1,2.4,0.3,2.5,0.7c0,0,0,0,0,0"/>
			</g>
		</g>
		<path class="st11" d="M55.8,86.6c0,0,2.8-1.3,3.4-2.6c0.2-0.5,0.7-1.8,1.2-3.4c1-2.7,2.2-6,3-6.6c0.5-0.3,1.4-1.1,2.4-1.5
			c0,0,0.1,0,0.1,0"/>
		<path class="st11" d="M74.7,74.8c0,0,0.6,1.2,0.6,1.6c0,0.3-0.7,1.5-0.7,1.5c-0.8,0.7-3.4,2.6-3.4,2.6"/>
		<path class="st11" d="M74.5,77.8c0,0,0.3,1.3,0.2,1.7c-0.1,0.1-0.4,0.6-0.8,1.1c-0.7,0.9-1.7,2.2-2,2.2"/>
		<path class="st11" d="M69.7,86.6c-0.2,0.1-0.4,0.2-0.6,0.3c-1.6,0.8-3.4,1.6-3.4,1.6L63,91l-9.8,8.8h0"/>
		<path class="st11" d="M74,80.6c0,0,0.4,0.7,0.2,1.4c-0.2,0.6-1.6,3.2-2,3.5c-0.2,0.1-1.2,0.6-2.3,1.1"/>
		<path class="st11" d="M68.9,73.8c0.4-0.2,2.7-1,3.6-1.4c0.2-0.1,0.4-0.2,0.4-0.2c0.9-0.2,1.3,0.3,1.6,0.9s0.3,1.6,0.2,1.7
			c-0.8,0.7-4.3,2.3-4.6,2.4"/>
		<path class="st11" d="M68.9,73.8l-0.4-2.2l-3.3-18.2l-4,1l4.6,18l0.4,1.4C66.2,73.9,67.8,74.2,68.9,73.8z"/>
		<polyline class="st11" points="69.7,86.6 69.7,86.6 70.8,90.7 73.2,90.2 72.1,85.5 		"/>
		<path class="st11" d="M69.2,87.1c0,0,0.3,20.5,1.3,32.1c0.3,3.6,0.7,6.3,1.1,7.3"/>
		<path class="st11" d="M63,130.1c2.9-0.2,6.1-0.7,9.1-1.3c6-1.2,11-2.7,11-2.7"/>
	</g>
</g>
</svg>
