<?xml version="1.0" encoding="UTF-8"?>
<svg xmlns="http://www.w3.org/2000/svg" viewBox="0 0 270.4 196.72">
  <defs>
    <style>
      .cls-1 {
        fill: #c1272d;
      }

      .cls-1, .cls-2, .cls-3, .cls-4, .cls-5, .cls-6, .cls-7, .cls-8, .cls-9 {
        stroke-width: 0px;
      }

      .cls-10 {
        stroke-miterlimit: 10;
      }

      .cls-10, .cls-11 {
        fill: none;
        stroke: #000;
      }

      .cls-2 {
        fill: #bc88d2;
      }

      .cls-3 {
        fill: #f3edd7;
      }

      .cls-4 {
        fill: #ff2c2b;
      }

      .cls-11 {
        stroke-linecap: round;
        stroke-linejoin: round;
      }

      .cls-5 {
        fill: #f7d5ad;
      }

      .cls-6 {
        fill: #333;
      }

      .cls-7 {
        fill: #f0c75b;
      }

      .cls-8 {
        fill: #e9d6b8;
      }

      .cls-9 {
        fill: #d2d296;
      }
    </style>
  </defs>
  <g id="_畳" data-name="畳">
    <g>
      <g>
        <rect class="cls-3" x=".24" y="162.07" width="3.62" height="5.03"/>
        <path class="cls-3" d="m270.15,189.65v6.57h-30.45l15.35-8.63c1.03,1.62,3.11,2.72,5.51,2.72s4.62-1.18,5.62-2.88l3.97,2.23Z"/>
        <path class="cls-3" d="m270.15,179.09v10.56l-3.97-2.23c.38-.65.59-1.38.59-2.14,0-1.3-.62-2.48-1.62-3.38l4.99-2.8Z"/>
        <path class="cls-3" d="m270.15,167.1v11.99l-4.99,2.8c-1.14-1.01-2.77-1.64-4.59-1.64s-3.31.58-4.44,1.51l-26.1-14.67h40.12Z"/>
        <polygon class="cls-3" points="270.15 80.96 270.15 86.73 1.13 86.73 .24 86.73 .24 80.96 270.15 80.96"/>
        <rect class="cls-3" x="266.16" y="162.07" width="3.99" height="5.03"/>
        <path class="cls-3" d="m266.78,185.27c0,.76-.21,1.49-.59,2.14l-5.42-3.05,4.39-2.47c1,.89,1.62,2.08,1.62,3.38Z"/>
        <path class="cls-3" d="m260.77,184.37l5.42,3.05c-1,1.7-3.13,2.88-5.62,2.88s-4.48-1.1-5.51-2.72l5.71-3.21Z"/>
        <rect class="cls-6" x="254.85" y="162.07" width="11.31" height="5.03"/>
        <path class="cls-3" d="m265.16,181.9l-4.39,2.47-4.64-2.61c1.13-.93,2.7-1.51,4.44-1.51,1.82,0,3.46.63,4.59,1.64Z"/>
        <path class="cls-3" d="m260.77,184.37l-5.71,3.21c-.44-.69-.69-1.48-.69-2.31,0-1.37.68-2.61,1.77-3.51l4.64,2.61Z"/>
        <path class="cls-3" d="m230.03,167.1l26.1,14.67c-1.09.9-1.77,2.14-1.77,3.51,0,.83.25,1.62.69,2.31l-15.35,8.63h-41.48l-15.65-8.8c.38-.65.59-1.38.59-2.14,0-1.3-.62-2.48-1.62-3.37l26.34-14.81h22.15Zm-5.97,18.18c0-2.77-2.25-5.02-5.02-5.02s-5.03,2.25-5.03,5.02,2.25,5.03,5.03,5.03,5.02-2.25,5.02-5.03Z"/>
        <polygon class="cls-3" points="254.85 167.1 230.03 167.1 224.33 167.1 224.33 162.07 254.85 162.07 254.85 167.1"/>
        <rect class="cls-6" x="213.02" y="162.07" width="11.31" height="5.03"/>
        <path class="cls-6" d="m219.05,180.26c2.77,0,5.02,2.25,5.02,5.02s-2.25,5.03-5.02,5.03-5.03-2.25-5.03-5.03,2.25-5.02,5.03-5.02Z"/>
        <path class="cls-3" d="m207.88,167.1l-26.34,14.81c-1.14-1.02-2.77-1.65-4.59-1.65s-3.31.58-4.44,1.51l-26.1-14.67h61.47Z"/>
        <polygon class="cls-3" points="182.5 167.1 182.5 162.07 213.02 162.07 213.02 167.1 207.88 167.1 182.5 167.1"/>
        <path class="cls-3" d="m198.21,196.22h-42.13l15.35-8.63c1.03,1.62,3.12,2.72,5.51,2.72s4.62-1.18,5.62-2.88l15.65,8.8Z"/>
        <path class="cls-3" d="m183.16,185.27c0,.76-.21,1.49-.59,2.14l-5.42-3.05,4.39-2.47c1,.89,1.62,2.07,1.62,3.37Z"/>
        <path class="cls-3" d="m177.15,184.37l5.42,3.05c-1,1.7-3.13,2.88-5.62,2.88s-4.48-1.1-5.51-2.72l5.71-3.21Z"/>
        <rect class="cls-6" x="171.19" y="162.07" width="11.31" height="5.03"/>
        <path class="cls-3" d="m176.95,180.26c1.82,0,3.46.63,4.59,1.65l-4.39,2.47-4.64-2.61c1.13-.93,2.7-1.51,4.44-1.51Z"/>
        <path class="cls-3" d="m177.15,184.37l-5.71,3.21c-.44-.69-.69-1.48-.69-2.31,0-1.37.68-2.61,1.77-3.51l4.64,2.61Z"/>
        <path class="cls-3" d="m146.41,167.1l26.1,14.67c-1.09.9-1.77,2.14-1.77,3.51,0,.83.25,1.62.69,2.31l-15.35,8.63h-41.48l-15.65-8.8c.38-.65.59-1.38.59-2.14,0-1.3-.62-2.48-1.62-3.37l26.34-14.81h22.15Zm-7.02,18.18c0-2.77-2.25-5.02-5.02-5.02s-5.03,2.25-5.03,5.02,2.25,5.03,5.03,5.03,5.02-2.25,5.02-5.03Z"/>
        <polygon class="cls-3" points="171.19 167.1 146.41 167.1 140.67 167.1 140.67 162.07 171.19 162.07 171.19 167.1"/>
        <rect class="cls-6" x="129.36" y="162.07" width="11.31" height="5.03"/>
        <path class="cls-6" d="m134.38,180.26c2.77,0,5.02,2.25,5.02,5.02s-2.25,5.03-5.02,5.03-5.03-2.25-5.03-5.03,2.25-5.02,5.03-5.02Z"/>
        <path class="cls-3" d="m124.26,167.1l-26.34,14.81c-1.14-1.02-2.77-1.65-4.59-1.65s-3.31.58-4.44,1.51l-26.1-14.67h61.47Z"/>
        <polygon class="cls-3" points="129.36 167.1 124.26 167.1 98.83 167.1 98.83 162.07 129.36 162.07 129.36 167.1"/>
        <path class="cls-3" d="m114.6,196.22h-42.13l15.35-8.63c1.03,1.62,3.11,2.72,5.51,2.72s4.62-1.18,5.62-2.88l15.65,8.8Z"/>
        <path class="cls-3" d="m99.54,185.27c0,.76-.21,1.49-.59,2.14l-5.42-3.05,4.39-2.47c1,.89,1.62,2.07,1.62,3.37Z"/>
        <path class="cls-3" d="m93.53,184.37l5.42,3.05c-1,1.7-3.13,2.88-5.62,2.88s-4.48-1.1-5.51-2.72l5.71-3.21Z"/>
        <rect class="cls-6" x="87.53" y="162.07" width="11.31" height="5.03"/>
        <path class="cls-3" d="m93.33,180.26c1.82,0,3.46.63,4.59,1.65l-4.39,2.47-4.64-2.61c1.13-.93,2.7-1.51,4.44-1.51Z"/>
        <path class="cls-3" d="m93.53,184.37l-5.71,3.21c-.44-.69-.69-1.48-.69-2.31,0-1.37.68-2.61,1.77-3.51l4.64,2.61Z"/>
        <path class="cls-3" d="m62.8,167.1l26.1,14.67c-1.09.9-1.77,2.14-1.77,3.51,0,.83.25,1.62.69,2.31l-15.35,8.63H30.79l-15.65-8.8c.38-.65.59-1.38.59-2.14,0-1.3-.62-2.48-1.62-3.37l26.34-14.81h22.34Zm-8.53,18.18c0-2.77-2.25-5.02-5.02-5.02s-5.03,2.25-5.03,5.02,2.25,5.03,5.03,5.03,5.02-2.25,5.02-5.03Z"/>
        <polygon class="cls-3" points="87.53 167.1 62.8 167.1 57 167.1 57 162.07 87.53 162.07 87.53 167.1"/>
        <rect class="cls-6" x="45.7" y="162.07" width="11.31" height="5.03"/>
        <path class="cls-6" d="m49.25,180.26c2.77,0,5.02,2.25,5.02,5.02s-2.25,5.03-5.02,5.03-5.03-2.25-5.03-5.03,2.25-5.02,5.03-5.02Z"/>
        <polygon class="cls-3" points="45.7 167.1 40.45 167.1 15.17 167.1 15.17 162.07 45.7 162.07 45.7 167.1"/>
        <path class="cls-3" d="m30.79,196.22H.24v-6.52l3.76-2.11c1.03,1.62,3.12,2.72,5.51,2.72s4.62-1.18,5.62-2.88l15.65,8.8Z"/>
        <path class="cls-3" d="m15.73,185.27c0,.76-.21,1.49-.59,2.14l-5.42-3.05,4.39-2.47c1,.89,1.62,2.07,1.62,3.37Z"/>
        <rect class="cls-6" x="3.87" y="162.07" width="11.31" height="5.03"/>
        <path class="cls-3" d="m9.72,184.37l5.42,3.05c-1,1.7-3.13,2.88-5.62,2.88s-4.48-1.1-5.51-2.72l5.71-3.21Z"/>
        <path class="cls-3" d="m9.52,180.26c1.82,0,3.46.63,4.59,1.65l-4.39,2.47-4.64-2.61c1.13-.93,2.7-1.51,4.44-1.51Z"/>
        <path class="cls-3" d="m9.72,184.37l-5.71,3.21c-.44-.69-.69-1.48-.69-2.31,0-1.37.68-2.61,1.77-3.51l4.64,2.61Z"/>
        <path class="cls-3" d="m.24,179.05l4.84,2.72c-1.09.9-1.77,2.14-1.77,3.51,0,.83.25,1.62.69,2.31l-3.76,2.11v-10.65Z"/>
        <polygon class="cls-9" points="213.02 162.07 182.5 162.07 171.19 162.07 140.67 162.07 129.36 162.07 98.83 162.07 87.53 162.07 57 162.07 45.7 162.07 15.17 162.07 3.87 162.07 .24 162.07 .24 86.73 1.13 86.73 270.15 86.73 270.15 162.07 266.16 162.07 254.85 162.07 224.33 162.07 213.02 162.07"/>
        <path class="cls-3" d="m.24,167.1h40.21l-26.34,14.81c-1.14-1.02-2.77-1.65-4.59-1.65s-3.31.58-4.44,1.51l-4.84-2.72v-11.95Z"/>
      </g>
      <g>
        <polyline class="cls-10" points="270.15 196.22 239.7 196.22 198.21 196.22 156.08 196.22 114.6 196.22 72.46 196.22 30.79 196.22 .24 196.22"/>
        <line class="cls-10" x1=".24" y1="80.96" x2="270.15" y2="80.96"/>
        <line class="cls-10" x1=".24" y1="86.73" x2="270.15" y2="86.73"/>
        <line class="cls-10" x1="266.16" y1="162.07" x2="270.15" y2="162.07"/>
        <line class="cls-10" x1="224.33" y1="162.07" x2="254.85" y2="162.07"/>
        <line class="cls-10" x1="182.5" y1="162.07" x2="213.02" y2="162.07"/>
        <line class="cls-10" x1="140.67" y1="162.07" x2="171.19" y2="162.07"/>
        <line class="cls-10" x1="98.83" y1="162.07" x2="129.36" y2="162.07"/>
        <line class="cls-10" x1="57" y1="162.07" x2="87.53" y2="162.07"/>
        <line class="cls-10" x1="15.17" y1="162.07" x2="45.7" y2="162.07"/>
        <line class="cls-10" x1=".24" y1="162.07" x2="3.87" y2="162.07"/>
        <line class="cls-10" x1="266.16" y1="167.1" x2="270.15" y2="167.1"/>
        <polyline class="cls-10" points="224.33 167.1 230.03 167.1 254.85 167.1"/>
        <polyline class="cls-10" points="182.5 167.1 207.88 167.1 213.02 167.1"/>
        <polyline class="cls-10" points="140.67 167.1 146.41 167.1 171.19 167.1"/>
        <polyline class="cls-10" points="98.83 167.1 124.26 167.1 129.36 167.1"/>
        <polyline class="cls-10" points="57 167.1 62.8 167.1 87.53 167.1"/>
        <polyline class="cls-10" points="15.17 167.1 40.45 167.1 45.7 167.1"/>
        <line class="cls-10" x1=".24" y1="167.1" x2="3.87" y2="167.1"/>
        <polyline class="cls-10" points="72.46 196.22 87.81 187.58 93.53 184.37 97.92 181.91 124.26 167.1"/>
        <polyline class="cls-10" points="114.6 196.22 98.95 187.42 93.53 184.37 88.89 181.77 62.8 167.1"/>
        <path class="cls-10" d="m139.4,185.27c0,2.78-2.25,5.03-5.02,5.03s-5.03-2.25-5.03-5.03,2.25-5.02,5.03-5.02,5.02,2.25,5.02,5.02Z"/>
        <path class="cls-10" d="m224.07,185.27c0,2.78-2.25,5.03-5.02,5.03s-5.03-2.25-5.03-5.03,2.25-5.02,5.03-5.02,5.02,2.25,5.02,5.02Z"/>
        <path class="cls-10" d="m97.92,181.91c1,.89,1.62,2.07,1.62,3.37,0,.76-.21,1.49-.59,2.14-1,1.7-3.13,2.88-5.62,2.88s-4.48-1.1-5.51-2.72c-.44-.69-.69-1.48-.69-2.31,0-1.37.68-2.61,1.77-3.51,1.13-.93,2.7-1.51,4.44-1.51,1.82,0,3.46.63,4.59,1.65Z"/>
        <polyline class="cls-10" points=".24 189.7 4.01 187.58 9.72 184.37 14.11 181.91 40.45 167.1"/>
        <polyline class="cls-10" points="30.79 196.22 15.14 187.42 9.72 184.37 5.08 181.77 .24 179.05"/>
        <path class="cls-10" d="m14.11,181.91c1,.89,1.62,2.07,1.62,3.37,0,.76-.21,1.49-.59,2.14-1,1.7-3.13,2.88-5.62,2.88s-4.48-1.1-5.51-2.72c-.44-.69-.69-1.48-.69-2.31,0-1.37.68-2.61,1.77-3.51,1.13-.93,2.7-1.51,4.44-1.51,1.82,0,3.46.63,4.59,1.65Z"/>
        <polyline class="cls-10" points="156.08 196.22 171.43 187.58 177.15 184.37 181.54 181.91 207.88 167.1"/>
        <polyline class="cls-10" points="198.21 196.22 182.57 187.42 177.15 184.37 172.51 181.77 146.41 167.1"/>
        <path class="cls-10" d="m181.54,181.91c1,.89,1.62,2.07,1.62,3.37,0,.76-.21,1.49-.59,2.14-1,1.7-3.13,2.88-5.62,2.88s-4.48-1.1-5.51-2.72c-.44-.69-.69-1.48-.69-2.31,0-1.37.68-2.61,1.77-3.51,1.13-.93,2.7-1.51,4.44-1.51,1.82,0,3.46.63,4.59,1.65Z"/>
        <polyline class="cls-10" points="239.7 196.22 255.05 187.58 260.77 184.37 265.16 181.9 270.15 179.09"/>
        <polyline class="cls-10" points="270.15 189.65 266.18 187.42 260.77 184.37 256.13 181.77 230.03 167.1"/>
        <path class="cls-10" d="m265.16,181.9c1,.89,1.62,2.08,1.62,3.38,0,.76-.21,1.49-.59,2.14-1,1.7-3.13,2.88-5.62,2.88s-4.48-1.1-5.51-2.72c-.44-.69-.69-1.48-.69-2.31,0-1.37.68-2.61,1.77-3.51,1.13-.93,2.7-1.51,4.44-1.51,1.82,0,3.46.63,4.59,1.64Z"/>
        <path class="cls-10" d="m54.27,185.27c0,2.78-2.25,5.03-5.02,5.03s-5.03-2.25-5.03-5.03,2.25-5.02,5.03-5.02,5.02,2.25,5.02,5.02Z"/>
        <rect class="cls-10" x="3.87" y="162.07" width="11.31" height="5.03"/>
        <rect class="cls-10" x="45.7" y="162.07" width="11.31" height="5.03"/>
        <rect class="cls-10" x="87.53" y="162.07" width="11.31" height="5.03"/>
        <rect class="cls-10" x="129.36" y="162.07" width="11.31" height="5.03"/>
        <rect class="cls-10" x="171.19" y="162.07" width="11.31" height="5.03"/>
        <rect class="cls-10" x="213.02" y="162.07" width="11.31" height="5.03"/>
        <rect class="cls-10" x="254.85" y="162.07" width="11.31" height="5.03"/>
      </g>
    </g>
  </g>
  <g id="_レイヤー_2" data-name="レイヤー 2">
    <g>
      <g>
        <path class="cls-4" d="m230.51,125.24l-1.79,2.56s1.38-5.99,1.19-12.15l.53-.02c2.62-1.02,6.32-10.05,6.32-10.05l6.13,2.05s-10.47,16.21-12.38,17.61Z"/>
        <path class="cls-4" d="m235.23,144.01c-1.03-4.98-18.84-5.19-18.84-5.19,5.8-4.81,12.33-11.02,12.33-11.02,4.34,7.91,8.68,13.91,6.51,16.21Z"/>
        <path class="cls-1" d="m209.19,144.01c1.64-.77,4.33-2.81,7.2-5.19,0,0,17.81.21,18.84,5.19-2.17,2.3-21.32,1.79-26.04,0Z"/>
        <path class="cls-4" d="m229.91,115.65c-.03-.92-.1-1.84-.21-2.75-.14-1.15-.54-2.29-1.15-3.38,2.39-1.85,4-9.94,4-9.94l4.21-1.53v7.53s-3.7,9.03-6.32,10.05l-.53.02Z"/>
        <path class="cls-4" d="m216.21,99.46c3.88-7.34,2.61-12.58,2.07-14.15,1.45,2.6,9.89,4.07,11.93,5.21,2.6,1.46,2.34,9.06,2.34,9.06,0,0-1.61,8.09-4,9.94-2.3-4.21-7.61-7.81-12.58-9.25l.24-.81Z"/>
        <path class="cls-4" d="m195.85,104.05c10.68-5.99,9.76-23.74,9.76-23.74,0,0,12.11,2.65,12.48,4.51,0,0,0,.01,0,.02,0,0,.01.03.02.06.03.14.08.28.16.41.54,1.57,1.81,6.81-2.07,14.15l-.24.81c-1.57-.47-3.11-.71-4.51-.69-5.79.09-12.07,2.73-15.61,4.47Z"/>
        <path class="cls-7" d="m186.34,73.54c2.17-.13,6.76-1.28,8.68,1.15.83,1.05.76,2.43.76,2.43,0,0,.39,13.66-5.57,12.12l-.26-.25-6.69-6.59c.59-1.28.91-2.09.91-2.09,1.15-3.45.82-7.05.82-7.05h0c.51.19.98.3,1.35.28Z"/>
        <path class="cls-7" d="m184.15,80.32c-.38.19-1.27.44-2.48.74l2.48-.74Z"/>
        <path class="cls-7" d="m173.19,82.87c3.21-.62,6.35-1.28,8.48-1.81,1.21-.3,2.1-.55,2.48-.74h.02s-.32.8-.91,2.08c-.8,1.72-2.1,4.31-3.83,6.96-2.6-.86-6.24-6.49-6.24-6.49Z"/>
        <path class="cls-7" d="m184.31,97.92l-8.57-3.7c1.38-1.51,2.62-3.2,3.69-4.86,1.73-2.65,3.03-5.24,3.83-6.96l6.69,6.59-5.64,8.93Z"/>
        <path class="cls-4" d="m170.51,53.63c4.59,7.4,8.29,15.7,8.29,15.7,0,0,3.69,2.98,6.19,3.92h0c-5.84,3.68-19.42,6.36-30.52,8.12l-.05-.31.18-3.35,12.12-11.11-5.05-7.61-6.52,9.66v-6.3l8.75-16.4c2.67,2.59,5.14,5.3,6.61,7.68Z"/>
        <path class="cls-4" d="m139.94,96.85c.26.17,4.65,3.13,11.86,5.99,8.12,3.22,19.82,6.33,33.23,5.23,0,0-18.53,10.86-21.66,11.88-3.08,1-17.94,13.79-18.81,14.29-.01,0-.02,0-.03,0-2.64.58-5.34,1-8.08,1.21-1.46-1.91-3.89-7.31-5.69-13.02-.88-2.79-1.61-5.66-1.99-8.22-.2-1.3-.31-2.51-.3-3.61,0-.95.08-1.8.27-2.54.56-.53,1.14-1.08,1.73-1.67,1.64-1.6,3.38-3.4,5.17-5.24,1.42-1.44,2.86-2.91,4.3-4.31Z"/>
        <path class="cls-7" d="m173.19,82.87s3.64,5.63,6.24,6.49c-1.07,1.66-2.31,3.35-3.69,4.86-4.47-1.02-12.37-9.64-12.37-9.64,2.38-.34,6.14-1,9.82-1.71Z"/>
        <path class="cls-4" d="m163.9,45.95l-8.75,16.4h-1.54v-6.3l5.38-14.57c1.6,1.38,3.29,2.9,4.91,4.47Z"/>
        <polygon class="cls-7" points="148.93 62.35 153.61 62.35 155.15 62.35 155.15 67.8 155.1 68.65 153.61 68.65 148.51 68.65 148.51 64.09 148.51 62.35 148.93 62.35"/>
        <polygon class="cls-7" points="155.15 68.65 161.67 58.99 166.72 66.6 154.6 77.71 155.1 68.65 155.15 68.65"/>
        <path class="cls-7" d="m154.47,81.37c-1.83.3-3.6.56-5.25.8l4.39-13.52h1.49l-.5,9.06-.18,3.35.05.31Z"/>
        <polygon class="cls-7" points="153.61 56.05 153.61 62.35 148.93 62.35 148.51 55.71 153.61 55.63 153.61 56.05"/>
        <path class="cls-7" d="m153.61,68.65l-4.39,13.52c-2.19.32-4.17.6-5.85.83l5.14-14.35h5.1Z"/>
        <path class="cls-4" d="m195.79,104.09c-.33.16-.63.31-.91.46h-.01c-2.57.26-9.14-1.92-16.53-4.97h-.01c-8.93-3.68-19.04-8.64-24.72-12.14-.08.01-.17.01-.26.03l-.24-1.89c3.87-.39,7.05-.7,8.21-.76.43-.02,1.13-.11,2.05-.24,0,0,7.9,8.62,12.37,9.64l8.57,3.7,5.64-8.93.26.25c5.96,1.54,5.57-12.12,5.57-12.12,0,0,8.17-.13,9.07.76.89.9.76,2.43.76,2.43,0,0,.92,17.75-9.76,23.74-.02.02-.04.03-.06.04Z"/>
        <path class="cls-4" d="m194.87,104.55c-1.18.61-1.87,1.03-1.87,1.03,0,0-.93.83-2.95,1.53-1.25.45-2.91.84-5.02.96-13.41,1.1-25.11-2.01-33.23-5.23l.03-.1s13.78-1.24,26.5-3.16h.01c7.39,3.05,13.96,5.23,16.53,4.97Z"/>
        <path class="cls-2" d="m190.05,107.12c-6.58,7.12-24.2,22.46-45.49,27.12.87-.5,15.73-13.29,18.81-14.29,3.13-1.02,21.66-11.88,21.66-11.88,2.11-.12,3.77-.51,5.02-.96h0Z"/>
        <path class="cls-8" d="m151.63,9.87c-1.79,3.69-3.96,7.68-6.53,11.77.13-.6.24-2.57.33-3.21.28-1.86.19-3.75-.26-5.55l.09-.02,6.37-2.99Z"/>
        <path class="cls-7" d="m143.37,86.61l-3.44,7.61h-10.4l1.87-6.44v-.02c1.09-.03,2.1-.08,2.97-.18,2.09-.22,5.39-.58,9-.97Z"/>
        <path class="cls-7" d="m153.35,87.47c-3.24.39-7.46,3.71-11.8,7.81l-1.62-1.06,3.44-7.61c3.23-.35,6.7-.71,9.74-1.03l.24,1.89Z"/>
        <path class="cls-4" d="m151.8,102.84c-7.21-2.86-11.6-5.82-11.86-5.99.54-.54,1.07-1.06,1.61-1.57,4.34-4.1,8.56-7.42,11.8-7.81.09-.02.18-.02.26-.03,5.68,3.5,15.79,8.46,24.72,12.14-12.72,1.92-26.5,3.16-26.5,3.16l-.03.1Z"/>
        <path class="cls-7" d="m83.6,110.61s3.31,2.42,8.01,4.47c2.2.95,4.71,1.83,7.32,2.32,1.35.26,2.74.42,4.12.44,2.36.03,4.81-.02,7.24-.15,2.97-.15,5.9-.43,8.58-.82,4.17-.6,7.73-1.49,9.87-2.65h.03c.38,2.56,1.11,5.43,1.99,8.22l-1.23.38s-1.5.28-4.16.6c-2.87.33-7.1.71-12.25.81-2.9.06-6.1.03-9.52-.14-1.19-.06-2.34-.16-3.45-.3-4.07-.51-7.58-1.5-10.49-2.63-6.36-2.46-9.83-5.53-9.83-5.53,1.3-1.67,2.56-3.36,3.77-5.02Z"/>
        <path class="cls-7" d="m114.25,108.07s9.05-.71,16.22-1.67c-.59.59-1.17,1.14-1.73,1.67-.19.74-.27,1.59-.27,2.54h-.01l-7.74.84-1.85,5.42c-2.68.39-5.61.67-8.58.82l-.04-.74c.97-1.25,2.44-4.73,4-8.88Z"/>
        <path class="cls-7" d="m128.74,114.22c-2.14,1.16-5.7,2.05-9.87,2.65l1.85-5.42,7.74-.84h.01c-.01,1.1.1,2.31.3,3.61h-.03Z"/>
        <path class="cls-2" d="m194.87,104.55h.01c.31-.15.62-.3.91-.46.02,0,.04-.02.06-.04,3.54-1.74,9.82-4.38,15.61-4.47,1.4-.02,2.94.22,4.51.69,4.97,1.44,10.28,5.04,12.58,9.25.61,1.09,1.01,2.23,1.15,3.38.11.91.18,1.83.21,2.75.19,6.16-1.19,12.15-1.19,12.15,0,0-6.53,6.21-12.33,11.02-2.87,2.38-5.56,4.42-7.2,5.19-11.87,3.57-31.28,5.36-37.15,4.21-16.47,1.92-35.62,4.09-43.02-1.66-.9.39-1.79.39-1.79.39-2.43-.71-7.52-12.7-7.52-12.7h-.01c2.36-3.76,4.77-8.02,5.67-10.83,2.66-.32,4.16-.6,4.16-.6l1.23-.38c1.8,5.71,4.23,11.11,5.69,13.02,2.74-.21,5.44-.63,8.08-1.21.01,0,.02,0,.03,0,21.29-4.66,38.91-20,45.49-27.12h0c2.02-.71,2.95-1.54,2.95-1.54,0,0,.69-.42,1.87-1.03Z"/>
        <path class="cls-6" d="m129.53,19.61c-1.88-2.13-4.19-4.06-6.9-5.81l-.57-.71s1.09-.63,2.55-.57c1.47.06,4.98,3.51,5.88,4.84.89,1.33-.13,2.44-.96,2.25Z"/>
        <path class="cls-7" d="m116.72,101.16c2.44-7.05,4.51-13.72,4.51-13.72,3.2.22,7.03.4,10.17.32v.02l-1.87,6.44h10.4l1.62,1.06c-.54.51-1.07,1.03-1.61,1.57-1.44,1.4-2.88,2.87-4.3,4.31-4.36.56-18.92,0-18.92,0Z"/>
        <path class="cls-7" d="m121.23,83.79l16.34-9.74-4.72,10.07h0c-3.64.07-8.13-.03-11.63-.14v-.19Z"/>
        <path class="cls-4" d="m114.34,142.35s2.63-3.72,5.36-8.1h.01s5.09,11.99,7.52,12.7c-1.79,1.45-5.13,3.59-8.36,1.71-1.6-.92-3.18-2.84-4.53-6.31Z"/>
        <path class="cls-6" d="m114.72,5.37s3.13,1.92,3.64,2.49.57,1.53-.64,1.66-4.28-2.62-4.28-2.62c-1.06-.88,1.28-1.53,1.28-1.53Z"/>
        <path class="cls-7" d="m115.45,82.45c.31-.31.73-1.14.54-1.71l32.52-16.65v4.56l-5.14,14.35c-2.42.34-4.21.58-5.06.75-1.15.22-3.13.34-5.46.38h0s4.72-10.08,4.72-10.08l-16.34,9.74v.19c-3.3-.11-5.71-.23-5.71-.23.12-.47-.07-1.3-.07-1.3Z"/>
        <path class="cls-7" d="m148.51,64.09l-32.52,16.65c-.22-.65-.99-.79-.99-.79.19-.06.62-.51.46-1.2-.11-.46-.47-.66-.85-.8,0,0,17.73-9.77,28.76-17.3l5.14,3.44Z"/>
        <path class="cls-7" d="m110.29,117.69c-2.43.13-4.88.18-7.24.15-1.38-.02-2.77-.18-4.12-.44l.08-.45c1.13-.89,3.54-5.76,6-11.22.91-2.02,1.83-4.13,2.69-6.15,2.52-5.91,4.57-11.04,4.57-11.04.49-.13.96-.33,1.2-.48.3-.2.62-.66.93-1.27l.21.1s2.89.3,6.62.55c0,0-2.07,6.67-4.51,13.72-.8,2.34-1.65,4.72-2.47,6.91-1.56,4.15-3.03,7.63-4,8.88l.04.74Z"/>
        <path class="cls-7" d="m115.52,83.75s2.41.12,5.7.23c3.5.11,7.99.21,11.63.15,2.33-.04,4.31-.16,5.46-.38.85-.17,2.64-.41,5.06-.75,1.68-.23,3.66-.51,5.85-.83,1.65-.24,3.42-.5,5.25-.8,11.1-1.76,24.68-4.44,30.52-8.11,0,0,.33,3.6-.82,7.05h-.02s-2.48.75-2.48.75c-2.13.53-5.27,1.19-8.48,1.81-3.68.71-7.44,1.37-9.82,1.71-.92.13-1.62.22-2.05.24-1.16.06-4.34.37-8.21.76-3.04.32-6.51.68-9.74,1.03-3.61.39-6.91.75-9,.97-.87.1-1.88.15-2.97.18-3.14.08-6.97-.1-10.17-.32-3.73-.25-6.62-.55-6.62-.55l-.21-.1c.11-.21.21-.43.31-.66.4-.93.2-1.36.2-1.36l-.07-.06c.33-.39.63-.78.68-.96Z"/>
        <path class="cls-1" d="m114.34,142.35c1.35,3.47,2.93,5.39,4.53,6.31-5.87,1.96-10.21-.17-10.5-.32,1.37-1.15,3.2-3.31,5.97-5.99Z"/>
        <path class="cls-7" d="m116.72,101.16s14.56.56,18.92,0c-1.79,1.84-3.53,3.64-5.17,5.24-7.17.96-16.22,1.67-16.22,1.67.82-2.19,1.67-4.57,2.47-6.91Z"/>
        <path class="cls-5" d="m115.99,80.74c.19.57-.23,1.4-.54,1.71,0,0,.19.83.07,1.3-.05.18-.35.57-.68.96l.07.06s.2.43-.2,1.36c-.1.23-.2.45-.31.66-.31.61-.63,1.07-.93,1.27-.24.15-.71.35-1.2.48-.36.09-.72.15-1.01.14-.7-.03-4.39,0-4.39,0l-6.84,2.25-1.49.26h-.01s-6.28,1.11-6.28,1.11c1.8-3.01,3.53-5.65,5.08-7.89l4.82-1.2,1.32-.33s2.28-2.93,3.5-3.43c1.22-.51,2.22-.58,2.91-.72.68-.14,3.61-1.21,4.15-.99.18.08.38.13.58.21.38.14.74.34.85.8.16.69-.27,1.14-.46,1.2,0,0,.77.14.99.79Z"/>
        <path class="cls-8" d="m116.5,52.49c-3.24,2.35-5.32,3.56-5.32,3.56h-.12c-.07-7.81-.04-16.98-.04-16.98,1.29.29,2.56.36,3.7.32v.02s1.27,11.53,1.78,13.08Z"/>
        <path class="cls-5" d="m103.78,23.13c.1-.88.26-1.78.47-2.7.79-3.38,2.15-6.41,3.93-9.02l1.69.34s3.83,1.66,3.96,2.43l.38,1.89s-3.36,2.38-4.64,3.89l-.3-.21c-.83.95-2.41,2.62-3.99,3.49l-1.5-.11Z"/>
        <path class="cls-8" d="m154.42,8.56c-8.55,14.17-10.21,21.96-23.1,34.73-7.01,6.93-14.58,16.01-20.03,22.86-.12-1.58-.19-5.61-.23-10.1h.12s2.08-1.21,5.32-3.56c3.57-2.58,8.55-6.54,13.67-11.76,5.95-6.07,10.92-12.7,14.93-19.09,2.57-4.09,4.74-8.08,6.53-11.77l2.79-1.31Z"/>
        <path class="cls-4" d="m92.52,147.25c-1.69,1.28-3.14,1.74-4.64.16-1.01-1.06-2.04-3.06-3.16-6.34,0,0,12.99-10.56,15.43-17.28,1.11.14,2.26.24,3.45.3,3.42.17,6.62.2,9.52.14v.04c-2.93,9.23-13.97,17.44-13.97,17.44-2.7,1.8-4.8,4.16-6.62,5.54h-.01Z"/>
        <path class="cls-5" d="m122.63,13.8c2.71,1.75,5.02,3.68,6.9,5.81.83.19,1.85-.92.96-2.25-.9-1.33-4.41-4.78-5.88-4.84-1.46-.06-2.55.57-2.55.57l.57.71Zm-4.91-4.28c1.21-.13,1.15-1.09.64-1.66s-3.64-2.49-3.64-2.49c0,0-2.34.65-1.28,1.53,0,0,3.07,2.75,4.28,2.62Zm27.45,3.36c.45,1.8.54,3.69.26,5.55-.09.64-.2,2.61-.33,3.21-4.01,6.39-8.98,13.02-14.93,19.09-5.12,5.22-10.1,9.18-13.67,11.76-.51-1.55-1.78-13.08-1.78-13.08v-.02c-1.14.04-2.41-.03-3.7-.32-1.16-.26-2.32-.95-3.36-1.99-2.69-2.72-4.6-7.8-3.88-13.95l1.5.11c1.58-.87,3.16-2.54,3.99-3.49l.3.21c1.28-1.51,4.64-3.89,4.64-3.89l-.38-1.89c-.13-.77-3.96-2.43-3.96-2.43l-1.69-.34c3.41-5,8.33-8.49,13.69-10,6.71-1.88,14.72-1.27,20.62,6.02,1.3,1.61,2.21,3.48,2.68,5.45Z"/>
        <path class="cls-7" d="m107.69,99.58c-6.38.64-12.43-4.75-12.43-4.75,1.85-2.18,3.13-3.49,3.27-3.63h.01s1.49-.27,1.49-.27l6.84-2.25s3.69-.03,4.39,0c.29.01.65-.05,1.01-.14,0,0-2.05,5.13-4.57,11.04h-.01Z"/>
        <path class="cls-4" d="m100.7,39.07c1.76-.71,3.34-1.28,4.58-1.63,1.13-.33,1.97-.47,2.38-.36,1.04,1.04,2.2,1.73,3.36,1.99,0,0-.03,9.17.04,16.98.04,4.49.11,8.52.23,10.1-4.59,5.76-7.68,9.94-7.68,9.94,0,0-9.38-3.7-12.51-5.29-.46-.24-1.15-.57-1.98-.95-8.23,12.25-31.66,25.46-35.74,27.82-1.43.83-3.7,1.84-6.05,2.8l-.21-.5c-.76-1.57-.8-4.35-.57-7.09.3-3.97,1.15-7.85,1.15-7.85,3.7-7.28,6.13-10.98,13.27-16.34,7.15-5.36,17.62-17.36,23.11-21.19,3.44-2.41,10.93-6.13,16.61-8.42h.01Z"/>
        <path class="cls-4" d="m125.37,123.42c-.9,2.81-3.31,7.07-5.67,10.83-2.73,4.38-5.36,8.1-5.36,8.1-2.77,2.68-4.6,4.84-5.97,5.99h-.01c-.65.55-1.19.86-1.68.9-.94.08-3.61.45-5.5-1.25-1.19-1.08-2.08-2.97-2.03-6.28,0,0,11.04-8.21,13.97-17.44v-.04c5.15-.1,9.38-.48,12.25-.81Z"/>
        <path class="cls-4" d="m131.32,43.29c12.89-12.77,14.55-20.56,23.1-34.73,0,0-1.37,14.51-3.22,26.86-1.07,7.25-2.31,13.75-3.54,16.16-3.32,6.51-29.04,25.1-44.61,27.3.3-1.5.56-2.79.56-2.79,0,0,3.09-4.18,7.68-9.94,5.45-6.85,13.02-15.93,20.03-22.86Z"/>
        <path class="cls-4" d="m148.51,62.35v1.74l-5.14-3.44c-11.03,7.53-28.76,17.3-28.76,17.3-.2-.08-.4-.13-.58-.21-.54-.22-3.47.85-4.15.99-.69.14-1.69.21-2.91.72-1.22.5-3.5,3.43-3.5,3.43l-1.32.33c.11-.47.53-2.54.9-4.33,15.57-2.2,41.29-20.79,44.61-27.3,1.23-2.41,2.47-8.91,3.54-16.16l.43.07s3.37,2.53,7.36,5.99l-5.38,14.57v-.42l-5.1.08.42,6.64h-.42Z"/>
        <path class="cls-1" d="m103.05,78.88c-.37,1.79-.79,3.86-.9,4.33l-4.82,1.2c3.66-5.31,6.28-8.32,6.28-8.32,0,0-.26,1.29-.56,2.79Z"/>
        <path class="cls-1" d="m92.53,147.25c1.82-1.38,3.92-3.74,6.62-5.54-.05,3.31.84,5.2,2.03,6.28-5.11,1.08-8.49-.65-8.65-.74Z"/>
        <path class="cls-7" d="m91.14,100.02c1.51-2.04,2.93-3.79,4.12-5.19,0,0,6.05,5.39,12.43,4.75h.01c-.86,2.02-1.78,4.13-2.69,6.15l-.33-.15c-8.53,0-13.07-5.01-13.54-5.56Z"/>
        <path class="cls-7" d="m93.66,108.07l-6.47-2.49c.87-1.24,1.71-2.43,2.51-3.57.48-.69.96-1.35,1.44-1.99.47.55,5.01,5.56,13.54,5.56l.33.15c-2.46,5.46-4.87,10.33-6,11.22l-.08.45c-2.61-.49-5.12-1.37-7.32-2.32h0s2.05-7.01,2.05-7.01Z"/>
        <path class="cls-7" d="m91.61,115.08c-4.7-2.05-8.01-4.47-8.01-4.47,1.25-1.72,2.45-3.41,3.59-5.03l6.47,2.49-2.05,7h0Z"/>
        <path class="cls-4" d="m78.86,144.23c-1.47.51-2.73.51-3.78-.33h-.01c-1.23-.99-2.18-3.15-2.86-7.04,0,0,14.93-7.72,17.45-15.7,2.91,1.13,6.42,2.12,10.49,2.63-2.44,6.72-15.43,17.28-15.43,17.28-2.24,1.36-4.19,2.59-5.86,3.16Z"/>
        <path class="cls-4" d="m79.83,115.63s3.47,3.07,9.83,5.53c-2.52,7.98-17.45,15.7-17.45,15.7-2.3,1.82-4.01,3.71-5.42,4.93-1.72,1.51-2.99,2.02-4.35.19-.96-1.31-1.98-3.83-3.25-8.06,7.09-2.44,14.31-10.14,20.64-18.29Z"/>
        <path class="cls-4" d="m53.38,97.67c4.08-2.36,27.51-15.57,35.74-27.82.83.38,1.52.71,1.98.95,3.13,1.59,12.51,5.29,12.51,5.29,0,0-2.62,3.01-6.28,8.32-1.55,2.24-3.28,4.88-5.08,7.89-1.34,2.23-2.71,4.67-4.08,7.28-11.17,21.36-40.73,40.09-56.05,40.47-.76-7.91-4.59-22.85-4.59-22.85,0,0,2.68-15.07,19.02-24.32-.23,2.74-.19,5.52.57,7.09l.21.5c2.35-.96,4.62-1.97,6.05-2.8Z"/>
        <path class="cls-1" d="m84.72,141.07c1.12,3.28,2.15,5.28,3.16,6.34-5.11.53-9.02-3.18-9.02-3.18,1.67-.57,3.62-1.8,5.86-3.16Z"/>
        <path class="cls-1" d="m66.79,141.79c1.41-1.22,3.12-3.11,5.42-4.93.68,3.89,1.63,6.05,2.86,7.04-4.27.59-8.28-2.11-8.28-2.11Z"/>
        <path class="cls-1" d="m62.44,141.98c-8.87,1.23-14.18-2.85-14.18-2.85,6.18-2.1,10.93-5.21,10.93-5.21,1.27,4.23,2.29,6.75,3.25,8.06Z"/>
        <path class="cls-2" d="m47.7,85.03s-.85,3.88-1.15,7.85c-16.34,9.25-19.02,24.32-19.02,24.32-3.07-9.57-4.6-26.81,20.17-32.17Z"/>
        <path class="cls-1" d="m32.12,140.05c15.32-.38,44.88-19.11,56.05-40.47,1.37-2.61,2.74-5.05,4.08-7.28l6.28-1.1c-.14.14-1.42,1.45-3.27,3.63-1.19,1.4-2.61,3.15-4.12,5.19-.48.64-.96,1.3-1.44,1.99-.8,1.14-1.64,2.33-2.51,3.57-1.14,1.62-2.34,3.31-3.59,5.03-1.21,1.66-2.47,3.35-3.77,5.02-6.33,8.15-13.55,15.85-20.64,18.29,0,0-4.75,3.11-10.93,5.21-5.02,1.71-10.99,2.75-16.14.92Z"/>
      </g>
      <g>
        <path class="cls-11" d="m119.83,38.43s-2.18.85-5.11.96c-1.14.04-2.41-.03-3.7-.32-1.16-.26-2.32-.95-3.36-1.99-2.69-2.72-4.6-7.8-3.88-13.95.1-.88.26-1.78.47-2.7.79-3.38,2.15-6.41,3.93-9.02,3.41-5,8.33-8.49,13.69-10,6.71-1.88,14.72-1.27,20.62,6.02,1.3,1.61,2.21,3.48,2.68,5.45.45,1.8.54,3.69.26,5.55-.09.64-.2,2.61-.33,3.21"/>
        <path class="cls-11" d="m137.44,23.24c1.02.64,1.07,2.91.51,4.73-.87,2.81-7.38,6.12-8.42,1.4"/>
        <path class="cls-11" d="m111.02,39.07s-.03,9.17.04,16.98c.04,4.49.11,8.52.23,10.1.02.19.03.34.05.45"/>
        <path class="cls-11" d="m111.18,56.05s2.08-1.21,5.32-3.56c3.57-2.58,8.55-6.54,13.67-11.76,5.95-6.07,10.92-12.7,14.93-19.09,2.57-4.09,4.74-8.08,6.53-11.77"/>
        <path class="cls-11" d="m114.72,39.41s1.27,11.53,1.78,13.08h0"/>
        <path class="cls-11" d="m154.42,8.56s-1.37,14.51-3.22,26.86c-1.07,7.25-2.31,13.75-3.54,16.16-3.32,6.51-29.04,25.1-44.61,27.3"/>
        <path class="cls-11" d="m100.7,39.07c1.76-.71,3.34-1.28,4.58-1.63,1.13-.33,1.97-.47,2.38-.36"/>
        <path class="cls-11" d="m75.07,143.9c-1.23-.99-2.18-3.15-2.86-7.04-2.3,1.82-4.01,3.71-5.42,4.93-1.72,1.51-2.99,2.02-4.35.19-.96-1.31-1.98-3.83-3.25-8.06,0,0-4.75,3.11-10.93,5.21-5.02,1.71-10.99,2.75-16.14.92-.76-7.91-4.59-22.85-4.59-22.85-3.07-9.57-4.6-26.81,20.17-32.17,3.7-7.28,6.13-10.98,13.27-16.34,7.15-5.36,17.62-17.36,23.11-21.19,3.44-2.41,10.93-6.13,16.61-8.42"/>
        <path class="cls-11" d="m92.52,147.25c-1.69,1.28-3.14,1.74-4.64.16-1.01-1.06-2.04-3.06-3.16-6.34-2.24,1.36-4.19,2.59-5.86,3.16-1.47.51-2.73.51-3.78-.33"/>
        <path class="cls-11" d="m108.36,148.34c-.65.55-1.19.86-1.68.9-.94.08-3.61.45-5.5-1.25-1.19-1.08-2.08-2.97-2.03-6.28-2.7,1.8-4.8,4.16-6.62,5.54"/>
        <path class="cls-11" d="m218.12,84.9c.03.14.08.28.16.41,1.45,2.6,9.89,4.07,11.93,5.21,2.6,1.46,2.34,9.06,2.34,9.06l4.21-1.53v7.53l6.13,2.05s-10.47,16.21-12.38,17.61l-1.79,2.56c4.34,7.91,8.68,13.91,6.51,16.21s-21.32,1.79-26.04,0c-11.87,3.57-31.28,5.36-37.15,4.21-16.47,1.92-35.62,4.09-43.02-1.66-.9.39-1.79.39-1.79.39-1.79,1.45-5.13,3.59-8.36,1.71-1.6-.92-3.18-2.84-4.53-6.31-2.77,2.68-4.6,4.84-5.97,5.99"/>
        <path class="cls-11" d="m151.63,35.49s3.37,2.53,7.36,5.99c1.6,1.38,3.29,2.9,4.91,4.47,2.67,2.59,5.14,5.3,6.61,7.68,4.59,7.4,8.29,15.7,8.29,15.7,0,0,3.69,2.98,6.19,3.92.51.2.98.31,1.35.29,2.17-.13,6.76-1.28,8.68,1.15.83,1.05.76,2.43.76,2.43,0,0,8.17-.13,9.07.76.89.9.76,2.43.76,2.43,0,0,12.11,2.65,12.48,4.51"/>
        <path class="cls-11" d="m27.53,117.2s2.68-15.07,19.02-24.32"/>
        <path class="cls-11" d="m47.7,85.03s-.85,3.88-1.15,7.85c-.23,2.74-.19,5.52.57,7.09"/>
        <path class="cls-11" d="m38.32,103.92s4.64-1.65,9.01-3.45c2.35-.96,4.62-1.97,6.05-2.8,4.08-2.36,27.51-15.57,35.74-27.82"/>
        <path class="cls-11" d="m74.89,63.52s9.48,4.12,14.23,6.33c.83.38,1.52.71,1.98.95,3.13,1.59,12.51,5.29,12.51,5.29,0,0,3.09-4.18,7.68-9.94,5.45-6.85,13.02-15.93,20.03-22.86,12.89-12.77,14.55-20.56,23.1-34.73l-2.79,1.31-6.37,2.99"/>
        <path class="cls-11" d="m88.55,56.05c-.19-.83.51-7.21-.77-6.44-1.27.76-6.38,5.8-6.38,5.8,0,0,8.43,12.96,9.7,15.39"/>
        <path class="cls-11" d="m100.7,39.07h-.01c-.24.58-7.93,18.63-8.06,26.43"/>
        <path class="cls-11" d="m105.28,37.44s-7.79,24.1-6.01,33.36"/>
        <path class="cls-11" d="m195.79,104.09c-.29.16-.6.31-.91.46"/>
        <path class="cls-11" d="m205.61,80.31s.92,17.75-9.76,23.74"/>
        <path class="cls-11" d="m218.09,84.82s0,.01,0,.02c0,0,.01.03.02.06.04.08.09.22.16.41.54,1.57,1.81,6.81-2.07,14.15"/>
        <path class="cls-11" d="m232.55,99.58s-1.61,8.09-4,9.94"/>
        <path class="cls-11" d="m236.76,105.58s-3.7,9.03-6.32,10.05"/>
        <path class="cls-11" d="m172.04,148.22s13.06-7.4,18.17-10.64c5.11-3.23,13.11-8.17,13.11-8.17,0,0-4.09,6.56-4.77,9.41"/>
        <path class="cls-11" d="m97.32,84.41h.01l4.82-1.2,1.32-.33s2.28-2.93,3.5-3.43c1.22-.51,2.22-.58,2.91-.72.68-.14,3.61-1.21,4.15-.99.18.08.38.13.58.21.38.14.74.34.85.8.16.69-.27,1.14-.46,1.2-.2.06-2.2.74-2.2.74"/>
        <path class="cls-11" d="m115,79.95s.77.14.99.79c.19.57-.23,1.4-.54,1.71-.05.04-.09.08-.13.1-.32.18-1.78,1-1.83,1.05-.06.04-.05.19-.05.19"/>
        <path class="cls-11" d="m115.45,82.45s.19.83.07,1.3c-.05.18-.35.57-.68.96-.54.63-1.18,1.31-1.17,1.36,0,.09.04.33.04.33"/>
        <line class="cls-11" x1="98.53" y1="91.2" x2="92.25" y2="92.3"/>
        <path class="cls-11" d="m114.91,84.77s.2.43-.2,1.36c-.1.23-.2.45-.31.66-.31.61-.63,1.07-.93,1.27-.24.15-.71.35-1.2.48-.36.09-.72.15-1.01.14-.7-.03-4.39,0-4.39,0l-6.84,2.25-1.49.26"/>
        <path class="cls-10" d="m32.12,140.05c15.32-.38,44.88-19.11,56.05-40.47,1.37-2.61,2.74-5.05,4.08-7.28,1.8-3.01,3.53-5.65,5.08-7.89,3.66-5.31,6.28-8.32,6.28-8.32,0,0-.26,1.29-.56,2.79-.37,1.79-.79,3.86-.9,4.33-.01,0-.01.02-.01.03"/>
        <path class="cls-10" d="m98.53,91.2c-.14.14-1.42,1.45-3.27,3.63-1.19,1.4-2.61,3.15-4.12,5.19-.48.64-.96,1.3-1.44,1.99-.8,1.14-1.64,2.33-2.51,3.57-1.14,1.62-2.34,3.31-3.59,5.03-1.21,1.66-2.47,3.35-3.77,5.02-6.33,8.15-13.55,15.85-20.64,18.29"/>
        <path class="cls-11" d="m98.54,91.19h-.01"/>
        <line class="cls-11" x1="158.99" y1="41.48" x2="153.61" y2="56.05"/>
        <polygon class="cls-11" points="153.61 56.05 153.61 55.63 148.51 55.71 148.93 62.35 153.61 62.35 153.61 56.05"/>
        <polyline class="cls-11" points="148.51 62.35 148.51 64.09 148.51 68.65 153.61 68.65 155.1 68.65 155.15 68.65 155.15 67.8 155.15 62.35 153.61 62.35"/>
        <line class="cls-11" x1="148.51" y1="68.65" x2="143.37" y2="83"/>
        <line class="cls-11" x1="153.61" y1="68.65" x2="149.22" y2="82.17"/>
        <path class="cls-11" d="m184.17,80.31c1.15-3.45.82-7.05.82-7.05-5.84,3.67-19.42,6.35-30.52,8.11-1.83.3-3.6.56-5.25.8-2.19.32-4.17.6-5.85.83-2.42.34-4.21.58-5.06.75-1.15.22-3.13.34-5.46.38-3.64.06-8.13-.04-11.63-.15-3.29-.11-5.7-.23-5.7-.23"/>
        <path class="cls-11" d="m114.61,86.89s2.89.3,6.62.55c3.2.22,7.03.4,10.17.32,1.09-.03,2.1-.08,2.97-.18,2.09-.22,5.39-.58,9-.97,3.23-.35,6.7-.71,9.74-1.03,3.87-.39,7.05-.7,8.21-.76.43-.02,1.13-.11,2.05-.24,2.38-.34,6.14-1,9.82-1.71,3.21-.62,6.35-1.28,8.48-1.81,1.21-.3,2.1-.55,2.48-.74"/>
        <path class="cls-11" d="m115.99,80.74l32.52-16.65-5.14-3.44c-11.03,7.53-28.76,17.3-28.76,17.3"/>
        <polyline class="cls-11" points="121.23 83.79 137.57 74.05 132.85 84.12"/>
        <path class="cls-11" d="m163.37,84.58s7.9,8.62,12.37,9.64c1.38-1.51,2.62-3.2,3.69-4.86,1.73-2.65,3.03-5.24,3.83-6.96.59-1.28.91-2.09.91-2.09h-.02s-2.48.75-2.48.75"/>
        <path class="cls-11" d="m183.26,82.4l6.69,6.59.26.25c5.96,1.54,5.57-12.12,5.57-12.12"/>
        <polyline class="cls-11" points="175.74 94.22 184.31 97.92 189.95 88.99 189.96 88.98"/>
        <path class="cls-11" d="m173.19,82.87s3.64,5.63,6.24,6.49"/>
        <polyline class="cls-11" points="131.4 87.78 129.53 94.22 139.93 94.22 143.37 86.61"/>
        <path class="cls-11" d="m121.23,87.44s-2.07,6.67-4.51,13.72c-.8,2.34-1.65,4.72-2.47,6.91-1.56,4.15-3.03,7.63-4,8.88"/>
        <path class="cls-11" d="m112.27,88.54s-2.05,5.13-4.57,11.04c-.86,2.02-1.78,4.13-2.69,6.15-2.46,5.46-4.87,10.33-6,11.22"/>
        <path class="cls-11" d="m83.6,110.61s3.31,2.42,8.01,4.47c2.2.95,4.71,1.83,7.32,2.32,1.35.26,2.74.42,4.12.44,2.36.03,4.81-.02,7.24-.15,2.97-.15,5.9-.43,8.58-.82,4.17-.6,7.73-1.49,9.87-2.65"/>
        <path class="cls-11" d="m79.83,115.63s3.47,3.07,9.83,5.53c2.91,1.13,6.42,2.12,10.49,2.63,1.11.14,2.26.24,3.45.3,3.42.17,6.62.2,9.52.14,5.15-.1,9.38-.48,12.25-.81,2.66-.32,4.16-.6,4.16-.6"/>
        <path class="cls-11" d="m144.56,134.24c21.29-4.66,38.91-20,45.49-27.12"/>
        <path class="cls-11" d="m178.33,99.58c-8.93-3.68-19.04-8.64-24.72-12.14-.08.01-.17.01-.26.03-3.24.39-7.46,3.71-11.8,7.81-.54.51-1.07,1.03-1.61,1.57-1.44,1.4-2.88,2.87-4.3,4.31-1.79,1.84-3.53,3.64-5.17,5.24-.59.59-1.17,1.14-1.73,1.67-.19.74-.27,1.59-.27,2.54-.01,1.1.1,2.31.3,3.61.38,2.56,1.11,5.43,1.99,8.22,1.8,5.71,4.23,11.11,5.69,13.02,2.74-.21,5.44-.63,8.08-1.21"/>
        <path class="cls-11" d="m194.87,104.55c-2.57.26-9.14-1.92-16.53-4.97"/>
        <path class="cls-11" d="m209.19,144.01c1.64-.77,4.33-2.81,7.2-5.19,5.8-4.81,12.33-11.02,12.33-11.02,0,0,1.38-5.99,1.19-12.15-.03-.92-.1-1.84-.21-2.75-.14-1.15-.54-2.29-1.15-3.38-2.3-4.21-7.61-7.81-12.58-9.25-1.57-.47-3.11-.71-4.51-.69-5.79.09-12.07,2.73-15.61,4.47-.02.02-.04.03-.06.04-.33.16-.63.31-.91.46h-.01c-1.18.61-1.87,1.03-1.87,1.03,0,0-.93.83-2.95,1.53-1.25.45-2.91.84-5.02.96-13.41,1.1-25.11-2.01-33.23-5.23-7.21-2.86-11.6-5.82-11.86-5.99h-.01"/>
        <path class="cls-11" d="m151.83,102.74s13.78-1.24,26.5-3.16h.01"/>
        <path class="cls-11" d="m134.37,107.46s3.19,5.54,9,6.77c5.82,1.23,18.18,1.19,20,5.72"/>
        <path class="cls-11" d="m144.53,134.25s.02,0,.03,0c.87-.5,15.73-13.29,18.81-14.29,3.13-1.02,21.66-11.88,21.66-11.88"/>
        <path class="cls-11" d="m116.72,101.16s14.56.56,18.92,0"/>
        <path class="cls-11" d="m114.25,108.07s9.05-.71,16.22-1.67"/>
        <path class="cls-11" d="m95.26,94.83s6.05,5.39,12.43,4.75"/>
        <path class="cls-11" d="m91.1,99.97s.01.02.04.05c.47.55,5.01,5.56,13.54,5.56"/>
        <polyline class="cls-11" points="87.19 105.58 93.66 108.07 91.61 115.07"/>
        <polyline class="cls-11" points="118.87 116.87 120.72 111.45 128.46 110.61"/>
        <polyline class="cls-11" points="155.15 67.8 155.1 68.65 154.6 77.71 154.42 81.06"/>
        <line class="cls-11" x1="155.15" y1="62.35" x2="163.9" y2="45.95"/>
        <polyline class="cls-11" points="155.15 68.65 161.67 58.99 166.72 66.6 154.6 77.71"/>
        <path class="cls-11" d="m114.72,5.37s-2.34.65-1.28,1.53c0,0,3.07,2.75,4.28,2.62s1.15-1.09.64-1.66-3.64-2.49-3.64-2.49Z"/>
        <path class="cls-11" d="m122.63,13.8c2.71,1.75,5.02,3.68,6.9,5.81.83.19,1.85-.92.96-2.25-.9-1.33-4.41-4.78-5.88-4.84-1.46-.06-2.55.57-2.55.57l.57.71Z"/>
        <path class="cls-11" d="m109.87,11.75s3.83,1.66,3.96,2.43"/>
        <path class="cls-11" d="m118.7,17.36s5.46,2.31,5.91,3.33"/>
        <path class="cls-11" d="m114.21,16.07s-3.36,2.38-4.64,3.89c-.24.28-.41.53-.47.73-.38,1.28,1.21,2.04,2.08,2.04"/>
        <path class="cls-11" d="m114.72,19.95s-1.15,8.94,3.06,13.01"/>
        <path class="cls-11" d="m109.87,19.03s-.22.29-.6.72c-.83.95-2.41,2.62-3.99,3.49"/>
        <path class="cls-11" d="m109.04,25.67s5.13,2.42,4.13,3.19-4.13,1.66-4.13,1.66"/>
        <path class="cls-11" d="m48.26,139.13s5.31,4.08,14.18,2.85"/>
        <path class="cls-11" d="m66.79,141.79s4.01,2.7,8.28,2.11h.01"/>
        <path class="cls-11" d="m78.86,144.23s3.91,3.71,9.02,3.18h.01"/>
        <path class="cls-11" d="m92.52,147.25h.01c.16.09,3.54,1.82,8.65.74"/>
        <path class="cls-11" d="m108.36,148.34h.01c.29.15,4.63,2.28,10.5.32"/>
        <path class="cls-11" d="m119.71,134.25s5.09,11.99,7.52,12.7"/>
        <path class="cls-11" d="m114.34,142.35s2.63-3.72,5.36-8.1c2.36-3.76,4.77-8.02,5.67-10.83"/>
        <path class="cls-11" d="m99.15,141.71s11.04-8.21,13.97-17.44"/>
        <path class="cls-11" d="m84.72,141.07s12.99-10.56,15.43-17.28"/>
        <path class="cls-11" d="m72.21,136.86s14.93-7.72,17.45-15.7"/>
        <path class="cls-11" d="m216.39,138.82s17.81.21,18.84,5.19"/>
      </g>
    </g>
  </g>
</svg>