<svg xmlns="http://www.w3.org/2000/svg" viewBox="0 0 270.4 232.3"><defs><style>.cls-1{stroke-miterlimit:10}.cls-1,.cls-2{fill:none;stroke:#000}.cls-10,.cls-4,.cls-6,.cls-7{stroke-width:0}.cls-4{fill:#f3edd7}.cls-2{stroke-linecap:round;stroke-linejoin:round}.cls-6{fill:#333}.cls-7{fill:#88679e}.cls-10{fill:#c6e9d5}</style></defs><g id="_畳" data-name="畳"><path d="M.24 197.66h3.62v5.03H.24zM270.15 225.24v6.57H239.7l15.35-8.63c1.03 1.62 3.11 2.72 5.51 2.72s4.62-1.18 5.62-2.88l3.97 2.23ZM270.15 214.68v10.56l-3.97-2.23c.38-.65.59-1.38.59-2.14 0-1.3-.62-2.48-1.62-3.38l4.99-2.8ZM270.15 202.69v11.99l-4.99 2.8c-1.14-1.01-2.77-1.64-4.59-1.64s-3.31.58-4.44 1.51l-26.1-14.67h40.12ZM270.15 109.55v5.77H.24v-5.77h269.91z" class="cls-4"/><path d="M266.16 197.66h3.99v5.03h-3.99zM266.78 220.86c0 .76-.21 1.49-.59 2.14l-5.42-3.05 4.39-2.47c1 .89 1.62 2.08 1.62 3.38ZM260.77 219.96l5.42 3.05c-1 1.7-3.13 2.88-5.62 2.88s-4.48-1.1-5.51-2.72l5.71-3.21Z" class="cls-4"/><path d="M254.85 197.66h11.31v5.03h-11.31z" class="cls-6"/><path d="m265.16 217.48-4.39 2.47-4.64-2.61c1.13-.93 2.7-1.51 4.44-1.51 1.82 0 3.46.63 4.59 1.64ZM260.77 219.96l-5.71 3.21c-.44-.69-.69-1.48-.69-2.31 0-1.37.68-2.61 1.77-3.51l4.64 2.61Z" class="cls-4"/><path d="m230.03 202.69 26.1 14.67c-1.09.9-1.77 2.14-1.77 3.51 0 .83.25 1.62.69 2.31l-15.35 8.63h-41.48l-15.65-8.8c.38-.65.59-1.38.59-2.14 0-1.3-.62-2.48-1.62-3.37l26.34-14.81h22.15Zm-5.97 18.18c0-2.77-2.25-5.02-5.02-5.02s-5.03 2.25-5.03 5.02 2.25 5.03 5.03 5.03 5.02-2.25 5.02-5.03Z" class="cls-4"/><path d="M254.85 202.69h-30.52v-5.03h30.52v5.03z" class="cls-4"/><path d="M213.02 197.66h11.31v5.03h-11.31zM219.05 215.84c2.77 0 5.02 2.25 5.02 5.02s-2.25 5.03-5.02 5.03-5.03-2.25-5.03-5.03 2.25-5.02 5.03-5.02Z" class="cls-6"/><path d="m207.88 202.69-26.34 14.81c-1.14-1.02-2.77-1.65-4.59-1.65s-3.31.58-4.44 1.51l-26.1-14.67h61.47ZM182.5 202.69v-5.03h30.52v5.03H182.5zM198.21 231.8h-42.13l15.35-8.63c1.03 1.62 3.12 2.72 5.51 2.72s4.62-1.18 5.62-2.88l15.65 8.8Z" class="cls-4"/><path d="M183.16 220.86c0 .76-.21 1.49-.59 2.14l-5.42-3.05 4.39-2.47c1 .89 1.62 2.07 1.62 3.37ZM177.15 219.96l5.42 3.05c-1 1.7-3.13 2.88-5.62 2.88s-4.48-1.1-5.51-2.72l5.71-3.21Z" class="cls-4"/><path d="M171.19 197.66h11.31v5.03h-11.31z" class="cls-6"/><path d="M176.95 215.84c1.82 0 3.46.63 4.59 1.65l-4.39 2.47-4.64-2.61c1.13-.93 2.7-1.51 4.44-1.51Z" class="cls-4"/><path d="m177.15 219.96-5.71 3.21c-.44-.69-.69-1.48-.69-2.31 0-1.37.68-2.61 1.77-3.51l4.64 2.61Z" class="cls-4"/><path d="m146.41 202.69 26.1 14.67c-1.09.9-1.77 2.14-1.77 3.51 0 .83.25 1.62.69 2.31l-15.35 8.63H114.6l-15.65-8.8c.38-.65.59-1.38.59-2.14 0-1.3-.62-2.48-1.62-3.37l26.34-14.81h22.15Zm-7.02 18.18c0-2.77-2.25-5.02-5.02-5.02s-5.03 2.25-5.03 5.02 2.25 5.03 5.03 5.03 5.02-2.25 5.02-5.03Z" class="cls-4"/><path d="M171.19 202.69H140.67v-5.03h30.52v5.03z" class="cls-4"/><path d="M129.36 197.66h11.31v5.03h-11.31zM134.38 215.84c2.77 0 5.02 2.25 5.02 5.02s-2.25 5.03-5.02 5.03-5.03-2.25-5.03-5.03 2.25-5.02 5.03-5.02Z" class="cls-6"/><path d="M124.26 202.69 97.92 217.5c-1.14-1.02-2.77-1.65-4.59-1.65s-3.31.58-4.44 1.51l-26.1-14.67h61.47ZM129.36 202.69H98.83v-5.03h30.53v5.03zM114.6 231.8H72.47l15.35-8.63c1.03 1.62 3.11 2.72 5.51 2.72s4.62-1.18 5.62-2.88l15.65 8.8Z" class="cls-4"/><path d="M99.54 220.86c0 .76-.21 1.49-.59 2.14l-5.42-3.05 4.39-2.47c1 .89 1.62 2.07 1.62 3.37ZM93.53 219.96l5.42 3.05c-1 1.7-3.13 2.88-5.62 2.88s-4.48-1.1-5.51-2.72l5.71-3.21Z" class="cls-4"/><path d="M87.53 197.66h11.31v5.03H87.53z" class="cls-6"/><path d="M93.33 215.84c1.82 0 3.46.63 4.59 1.65l-4.39 2.47-4.64-2.61c1.13-.93 2.7-1.51 4.44-1.51Z" class="cls-4"/><path d="m93.53 219.96-5.71 3.21c-.44-.69-.69-1.48-.69-2.31 0-1.37.68-2.61 1.77-3.51l4.64 2.61Z" class="cls-4"/><path d="m62.8 202.69 26.1 14.67c-1.09.9-1.77 2.14-1.77 3.51 0 .83.25 1.62.69 2.31l-15.35 8.63H30.79l-15.65-8.8c.38-.65.59-1.38.59-2.14 0-1.3-.62-2.48-1.62-3.37l26.34-14.81h22.34Zm-8.53 18.18c0-2.77-2.25-5.02-5.02-5.02s-5.03 2.25-5.03 5.02 2.25 5.03 5.03 5.03 5.02-2.25 5.02-5.03Z" class="cls-4"/><path d="M87.53 202.69H57v-5.03h30.53v5.03z" class="cls-4"/><path d="M45.7 197.66h11.31v5.03H45.7zM49.25 215.84c2.77 0 5.02 2.25 5.02 5.02s-2.25 5.03-5.02 5.03-5.03-2.25-5.03-5.03 2.25-5.02 5.03-5.02Z" class="cls-6"/><path d="M45.7 202.69H15.17v-5.03H45.7v5.03zM30.79 231.8H.24v-6.52L4 223.17c1.03 1.62 3.12 2.72 5.51 2.72s4.62-1.18 5.62-2.88l15.65 8.8ZM15.73 220.86c0 .76-.21 1.49-.59 2.14l-5.42-3.05 4.39-2.47c1 .89 1.62 2.07 1.62 3.37Z" class="cls-4"/><path d="M3.87 197.66h11.31v5.03H3.87z" class="cls-6"/><path d="m9.72 219.96 5.42 3.05c-1 1.7-3.13 2.88-5.62 2.88s-4.48-1.1-5.51-2.72l5.71-3.21ZM9.52 215.84c1.82 0 3.46.63 4.59 1.65l-4.39 2.47-4.64-2.61c1.13-.93 2.7-1.51 4.44-1.51Z" class="cls-4"/><path d="m9.72 219.96-5.71 3.21c-.44-.69-.69-1.48-.69-2.31 0-1.37.68-2.61 1.77-3.51l4.64 2.61ZM.24 214.64l4.84 2.72c-1.09.9-1.77 2.14-1.77 3.51 0 .83.25 1.62.69 2.31l-3.76 2.11v-10.65Z" class="cls-4"/><path d="M213.02 197.66H.24v-82.34H270.15v82.34h-57.13z" style="fill:#d2d296;stroke-width:0"/><path d="M.24 202.69h40.21L14.11 217.5c-1.14-1.02-2.77-1.65-4.59-1.65s-3.31.58-4.44 1.51l-4.84-2.72v-11.95Z" class="cls-4"/><path d="M270.15 231.8H.24M.24 109.55h269.91M.24 115.32h269.91M266.16 197.66h3.99M224.33 197.66h30.52M182.5 197.66h30.52M140.67 197.66h30.52M98.83 197.66h30.53M57 197.66h30.53M15.17 197.66H45.7M.24 197.66h3.63M266.16 202.69h3.99M224.33 202.69h30.52M182.5 202.69h30.52M140.67 202.69H171.19M98.83 202.69h30.53M57 202.69h30.53M15.17 202.69H45.7M.24 202.69h3.63M72.46 231.8l15.35-8.63 5.72-3.21 4.39-2.47 26.34-14.8" class="cls-1"/><path d="m114.6 231.8-15.65-8.79-5.42-3.05-4.64-2.61-26.09-14.66M139.4 220.86c0 2.78-2.25 5.03-5.02 5.03s-5.03-2.25-5.03-5.03 2.25-5.02 5.03-5.02 5.02 2.25 5.02 5.02ZM224.07 220.86c0 2.78-2.25 5.03-5.02 5.03s-5.03-2.25-5.03-5.03 2.25-5.02 5.03-5.02 5.02 2.25 5.02 5.02Z" class="cls-1"/><path d="M97.92 217.49c1 .89 1.62 2.07 1.62 3.37 0 .76-.21 1.49-.59 2.14-1 1.7-3.13 2.88-5.62 2.88s-4.48-1.1-5.51-2.72c-.44-.69-.69-1.48-.69-2.31 0-1.37.68-2.61 1.77-3.51 1.13-.93 2.7-1.51 4.44-1.51 1.82 0 3.46.63 4.59 1.65ZM.24 225.28l3.77-2.11 5.71-3.21 4.39-2.47 26.34-14.8" class="cls-1"/><path d="m30.79 231.8-15.65-8.79-5.42-3.05-4.64-2.61-4.84-2.71" class="cls-1"/><path d="M14.11 217.49c1 .89 1.62 2.07 1.62 3.37 0 .76-.21 1.49-.59 2.14-1 1.7-3.13 2.88-5.62 2.88s-4.48-1.1-5.51-2.72c-.44-.69-.69-1.48-.69-2.31 0-1.37.68-2.61 1.77-3.51 1.13-.93 2.7-1.51 4.44-1.51 1.82 0 3.46.63 4.59 1.65ZM156.08 231.8l15.35-8.63 5.72-3.21 4.39-2.47 26.34-14.8" class="cls-1"/><path d="m198.21 231.8-15.64-8.79-5.42-3.05-4.64-2.61-26.1-14.66" class="cls-1"/><path d="M181.54 217.49c1 .89 1.62 2.07 1.62 3.37 0 .76-.21 1.49-.59 2.14-1 1.7-3.13 2.88-5.62 2.88s-4.48-1.1-5.51-2.72c-.44-.69-.69-1.48-.69-2.31 0-1.37.68-2.61 1.77-3.51 1.13-.93 2.7-1.51 4.44-1.51 1.82 0 3.46.63 4.59 1.65ZM239.7 231.8l15.35-8.63 5.72-3.21 4.39-2.48 4.99-2.8" class="cls-1"/><path d="m270.15 225.24-3.97-2.23-5.41-3.05-4.64-2.61-26.1-14.66" class="cls-1"/><path d="M265.16 217.48c1 .89 1.62 2.08 1.62 3.38 0 .76-.21 1.49-.59 2.14-1 1.7-3.13 2.88-5.62 2.88s-4.48-1.1-5.51-2.72c-.44-.69-.69-1.48-.69-2.31 0-1.37.68-2.61 1.77-3.51 1.13-.93 2.7-1.51 4.44-1.51 1.82 0 3.46.63 4.59 1.64ZM54.27 220.86c0 2.78-2.25 5.03-5.02 5.03s-5.03-2.25-5.03-5.03 2.25-5.02 5.03-5.02 5.02 2.25 5.02 5.02ZM3.87 197.66h11.31v5.03H3.87zM45.7 197.66h11.31v5.03H45.7zM87.53 197.66h11.31v5.03H87.53zM129.36 197.66h11.31v5.03h-11.31zM171.19 197.66h11.31v5.03h-11.31zM213.02 197.66h11.31v5.03h-11.31zM254.85 197.66h11.31v5.03h-11.31z" class="cls-1"/></g><g id="_レイヤー_2" data-name="レイヤー 2"><path d="M124.26 62.75s-4.67 8.88-5.18 12.59c-.49 3.55-1.81 34.25-2.36 37.86-4.29-.16-10.5.31-10.5.31 1.54-5.65 3.81-27.91 4.05-34.89.25-7.45 6.17-15.88 6.17-15.88 1.42-.34 2.98-.64 4.74-1.06 0 0 1.21.4 3.08 1.07Z" class="cls-10"/><path d="M85.67 196.77c-1.81-.19-4.44 1.77-6.82 4.17-2 1.99-3.82 4.3-4.84 5.89 0 0-19.4-6.13-26.3-11.49-6.89-5.36-22.21-38.43-26.55-46.09 3.13.52 13.08-2.03 20.59-5.35s11.58 20.8 17.54 29.65c5.93 8.81 16.98 21.86 26.38 23.22Z" class="cls-7"/><path d="m201.78 168.88 3.89 4.84c-2.38 1.02-19.23 6.13-30.81 4.26 6.34-2.84 11.2-5.48 17.2-6.89 0-.01.02-.01.03-.01 3.36-.72 6.61-1.48 9.69-2.21Z" class="cls-10"/><path d="M126.48 24.9c.26-2.69 2.23-12.44 2.94-14.41.7-1.98 3.38-2.88 4.59-1.92 1.22.96 4.6 3.58 4.6 3.58 2.17-5.24 6.64-10.98 7.91-11.49 1.28-.51 1.79.25 1.92 1.53.13 1.27-2.81 12.89-2.81 12.89s1.91.64 2.49 0c.57-.64 1.15-1.59 2.04-1.59s.89 1.52.64 1.88c-.26.35-1.53 2.2-.96 2.46.58.25 4.53.76 5.49 1.85.56.63 3.15 3.07 5.47 5.69-.38.13-7.06 1.33-10.32 1.07-3.25-.25-4.53.58-4.66 1.66-.13 1.09 1.15 2.88 2.49 3.96V41h-2.04s-1.09.19-1.98-1.98-3.58-2.49-4.79-.34c-.89 1.18-1.26 4.22-.51 5.64 1.47 2.74 2.94 1.91 4.34 2.04.45.7.26-.07.26 1.4-.32 1.92-4.85 4.02-6.19 4.73-1.22.63-3 2.57-4.04 3.07-.11.06-.22.1-.31.12-.95.19-2.74-.45-2.74-.45s.27-.47.65-1.14c.72-1.28 1.83-3.3 2.16-4.22.51-1.41 3.64-21.13 4.08-26.43l-6.38 1.66-.25-2.55s3.38-1.85 7.27-2.3l-.13-4.02s-3.19-3.06-4-3.96c-.81-.89-1.61-.64-1.87.32-.2.76-1.44 6.38-2.14 9.78-.18.9-.33 1.64-.41 2.09-.38 2.17-.64 16.03-.77 18.96-.12 2.94 1.85 10.41 1.85 10.41h-2.04s-1.34-5.62-1.85-9.64-.25-16.6 0-19.29Z" class="cls-6"/><path d="m186.23 53-9.52 25.61c-1.28-.95-2.46-1.81-3.48-2.55s6.75-24.21 6.75-24.21l6.25 1.15Z" style="fill:#c3a879;stroke-width:0"/><path d="M104.53 117.03c.68-1.17 1.17-2.09 1.4-2.63.09-.22.19-.52.29-.89 0 0 6.21-.47 10.5-.31 1.21.05 2.27.14 2.99.31 3.32.76 13 2.55 13 2.55.01 1.69.09 3.18.26 4.34.2 1.42.49 2.86.83 4.28l-.09.02c-3.11-.43-15.14-2.38-19.61-2.77-.2-.02-.41-.03-.63-.05-4.41-.35-11.14-.59-11.47-.6.97-1.59 1.85-3.05 2.53-4.25ZM132.97 181.7c-.72 1.13-12.74 7.51-12.74 7.51l-8.52 2.89s-5.78-1.36-22.63-12.76c-4.24-2.87-7.59-6.79-10.22-11.06.49.44 16.45 14.62 23.32 14.29 2.05-.1 4.39-.29 6.84-.6 5.91-.74 12.43-2.2 16.79-4.85l.22-.28c2.12 1.69 4.45 3.35 6.94 4.86Z" class="cls-10"/><path d="M146.78 187.17c-.27.11-.53.22-.79.32-4.62-1.26-9.02-3.34-13.02-5.79a66.571 66.571 0 0 1-6.94-4.86c-7.08-5.61-11.88-11.53-12.63-13.61-1.34-3.67-3.67.75-4.56 1.83 1.15-2.35 3.36-4.06 6.21-5.47 4.88-2.4 20.77-15.49 24.34-20.22 2.18 3.86 14.24 18.99 25.71 27.21 0 0-10.53 17.96-17.48 20.37-.28.07-.56.15-.84.22Z" class="cls-10"/><path d="M88.09 204.47c-3.04.19-9.24-3.53-9.24-3.53 2.38-2.4 5.01-4.36 6.82-4.17.04.01.09.01.13.02 1.55.25 2.45 2.16 1.99 6.89.07.3.17.56.3.79Z" style="stroke-width:0;fill:#516067"/><path d="M192.06 171.09c-6 1.41-10.86 4.05-17.2 6.89 0 0-7.02 3.31-21.77 7.48 0 0 17.07-8.21 19.9-14.16l.15-.46c4.14 1.3 10.06 2.09 17.72.5.4-.08.8-.17 1.2-.25Z" class="cls-7"/><path d="M201.78 168.87c11.4-2.68 20.52-4.9 24.83-2.81 0 1.19-15.32 17.87-15.32 17.87s-2.72-5.27-5.62-10.21l-3.89-4.84ZM114.1 121.93c4.47.39 16.5 2.34 19.61 2.77l.09-.02c.15.62.31 1.24.48 1.85l-13.1 7.28 5.01 7.23.08.65c-6.02.8-12.34 1.21-18.42.74-.51-5.94 5.62-20.55 5.62-20.55.22.02.43.03.63.05Z" class="cls-10"/><path d="M152.27 67.45c-5.83-6.99-14.75-10.11-18.91-10.61v-1.28c1.04-.5 2.82-2.44 4.04-3.07 1.34-.71 5.87-2.81 6.19-4.73 0-1.47.19-.7-.26-1.4-1.4-.13-2.87.7-4.34-2.04-.75-1.42-.38-4.46.51-5.64 1.21-2.15 3.9-1.83 4.79.34s1.98 1.98 1.98 1.98h2.04v-8.94c-1.34-1.08-2.62-2.87-2.49-3.96.13-1.08 1.41-1.91 4.66-1.66 3.26.26 9.94-.94 10.32-1.07 1.69 1.9 3.25 3.9 3.79 5.35.17.45.34.96.51 1.51l-.13.04s-8.13.66-9.06 1.61c-.94.95-1.81 1.3-.45 1.23 1.35-.07 7.98-.96 10.07-1.4.89 3.29 1.61 6.97 1.61 6.97s5.17 5.87 4.79 6.76c-.24.54-1.39 1.29-2.63 1.65l.07.22s-.16 2.8-.46 5.5c-.07.65-.15 1.29-.24 1.89-.44 3.06-3.13 11.74-11.68 10.66l-.26.94c-1.64-.39-3.16-.67-4.46-.85Z" style="fill:#f6deae;stroke-width:0"/><path d="M113.4 163.23c.75 2.08 5.55 8 12.63 13.61l-.22.28c-4.36 2.65-10.88 4.11-16.79 4.85 0 0-1.29-10.63-1.05-13.7.09-1.19.39-2.25.87-3.21.89-1.08 3.22-5.5 4.56-1.83Z" class="cls-7"/><path d="M108.84 165.06a8.52 8.52 0 0 0-.87 3.21c-.24 3.07 1.05 13.7 1.05 13.7-2.45.31-4.79.5-6.84.6-6.87.33-22.83-13.85-23.32-14.29h-.01c-7.86-12.72-9.43-28.47-9.43-28.47l14.55-7.03c2.21 2.2 4.7 3.96 7.38 5.34 4.97 2.56 10.63 3.85 16.5 4.31 6.08.47 12.4.06 18.42-.74 4.62-.62 9.07-1.47 13.12-2.32-3.57 4.73-19.46 17.82-24.34 20.22-2.85 1.41-5.06 3.12-6.21 5.47Z" class="cls-10"/><path d="M145.99 187.49c-10.02 4.07-15.15 3.54-25.76 1.72 0 0 12.02-6.38 12.74-7.5 4 2.44 8.4 4.52 13.02 5.78ZM117.5 197.38c-5.96-.34-16.34 6.13-19.74 7.32-3.13 1.09-8.24 2.32-9.67-.23-.13-.23-.23-.49-.3-.79.46-4.73-.44-6.64-1.99-6.89-.04 0-.09 0-.13-.02-9.4-1.36-20.45-14.41-26.38-23.22-5.96-8.85-17.54-29.64-17.54-29.64 1.68-.75 3.23-1.53 4.56-2.32 7.28-4.34 14.04-4.08 23.11-1.78 0 0 1.57 15.75 9.43 28.46h.01c2.63 4.28 5.98 8.2 10.22 11.07 16.85 11.4 22.63 12.76 22.63 12.76s3.75 2.39 5.79 5.28ZM147.62 186.95c6.95-2.41 17.48-20.37 17.48-20.37.32.23.63.45.95.67 0 0 2.39 2.12 7.09 3.59l-.15.46c-2.83 5.95-19.9 14.16-19.9 14.16-1.72.49-3.54.98-5.47 1.49Z" class="cls-7"/><path d="m126.19 141.04-5.01-7.23 13.1-7.28c1.42 5.18 3.5 9.99 5.11 12.84-4.05.85-8.5 1.7-13.12 2.32l-.08-.65ZM87.55 127.85c.47 3.85 1.62 7.82 3.8 10.27-2.68-1.38-5.17-3.14-7.38-5.34l3.58-4.93ZM131.59 56.83c.4-.08 1-.08 1.77 0 4.16.5 13.08 3.62 18.91 10.61l-4.58 1.93c-8.36-8.85-21.21-11.66-21.21-11.66l5.11-.89ZM107.85 142.43c-5.87-.46-11.53-1.75-16.5-4.31 0 0 6.29-9.71 10.65-16.84.33.01 7.06.25 11.47.6 0 0-6.13 14.61-5.62 20.54Z" class="cls-10"/><path d="M104.53 117.03c-.68 1.2-1.56 2.66-2.53 4.25-4.36 7.13-10.65 16.84-10.65 16.84-2.18-2.45-3.33-6.42-3.8-10.27-.41-3.37-.3-6.64.12-8.73 0 0 1.45-16.21 2.17-19.27.3-1.24 1.35-2.92 2.93-5.4l2.18.29s9.65 15.07 11.27 18.77c-.1.37-.2.67-.29.89-.23.54-.72 1.46-1.4 2.63ZM147.69 69.38c-1.64.7-3.43 1.46-4.89 2.07-4.3-3.32-13.67-6.94-18.54-8.7-1.87-.67-3.08-1.07-3.08-1.07.13-1.79 5.3-3.96 5.3-3.96s12.85 2.81 21.21 11.66Z" class="cls-10"/><path d="M199.2 125.89c8-6.3 28.26.51 30.13 8.34 1.87 7.83 1.87 14.3-3.74 28.26 0 0 1.02 2.38 1.02 3.57-4.31-2.09-13.43.13-24.83 2.81-3.08.73-6.33 1.49-9.69 2.21-.01 0-.02 0-.03.01-.4.08-.8.17-1.2.25-7.66 1.59-13.58.8-17.72-.5-4.7-1.47-7.09-3.59-7.09-3.59-.32-.22-.63-.44-.95-.67-11.47-8.22-23.53-23.35-25.71-27.21-1.61-2.85-3.69-7.66-5.11-12.84-.17-.61-.33-1.23-.48-1.85-.34-1.42-.63-2.86-.83-4.28-.17-1.16-.25-2.65-.26-4.34 0 0-9.68-1.79-13-2.55-.72-.17-1.78-.26-2.99-.31.55-3.61 1.87-34.31 2.36-37.86.51-3.71 5.18-12.59 5.18-12.59 4.87 1.76 14.24 5.38 18.54 8.7 1.46-.61 3.25-1.37 4.89-2.07l4.58-1.93c1.3.18 2.82.46 4.46.85 3.98.94 8.66 2.55 12.64 4.99 0 0 1.5 1.05 3.86 2.76 1.02.75 2.2 1.61 3.48 2.56 7.7 5.72 19.32 14.76 24.03 20.56l-4.26 25.53s1.19.68 2.72 1.19ZM92.77 94.45c2.31-3.64 5.77-9.04 9.71-17.45 5.22-11.14 8.7-13.01 13.96-14.26 0 0-5.92 8.43-6.17 15.88-.24 6.98-2.51 29.24-4.05 34.89-1.62-3.7-11.27-18.77-11.27-18.77l-2.18-.29Z" class="cls-10"/><path d="M155.91 33.88c.93-.95 9.06-1.61 9.06-1.61l.13-.04c.14.47.28.97.43 1.48-2.09.44-8.72 1.33-10.07 1.4-1.36.07-.49-.28.45-1.23Z" class="cls-6"/><path d="M166.88 49.1c.67.31 1.57.25 2.42-.01 1.24-.36 2.39-1.11 2.63-1.65.38-.89-4.79-6.76-4.79-6.76s-.72-3.68-1.61-6.97c-.15-.51-.29-1.01-.43-1.48-.17-.55-.34-1.06-.51-1.51-.54-1.45-2.1-3.45-3.79-5.35-2.32-2.62-4.91-5.06-5.47-5.69-.96-1.09-4.91-1.6-5.49-1.85-.57-.26.7-2.11.96-2.46.25-.36.25-1.88-.64-1.88s-1.47.95-2.04 1.59c-.58.64-2.49 0-2.49 0s2.94-11.62 2.81-12.89c-.13-1.28-.64-2.04-1.92-1.53-1.27.51-5.74 6.25-7.91 11.49 0 0-3.38-2.62-4.6-3.58-1.21-.96-3.89-.06-4.59 1.92-.71 1.97-2.68 11.72-2.94 14.41-.25 2.69-.51 15.27 0 19.29s1.85 9.64 1.85 9.64h2.04s-1.97-7.47-1.85-10.41c.13-2.93.39-16.79.77-18.96.08-.45.23-1.19.41-2.09.7-3.4 1.94-9.02 2.14-9.78.26-.96 1.06-1.21 1.87-.32.81.9 4 3.96 4 3.96l.13 4.02c-3.89.45-7.27 2.3-7.27 2.3l.25 2.55 6.38-1.66c-.44 5.3-3.57 25.02-4.08 26.43-.33.92-1.44 2.94-2.16 4.22-.38.67-.65 1.14-.65 1.14s1.79.64 2.74.45c.09-.02.2-.06.31-.12 1.04-.5 2.82-2.44 4.04-3.07 1.34-.71 5.87-2.81 6.19-4.73 0-1.47.19-.7-.26-1.4-1.4-.13-2.87.7-4.34-2.04-.75-1.42-.38-4.46.51-5.64 1.21-2.15 3.9-1.83 4.79.34s1.98 1.98 1.98 1.98h2.04v-8.94c-1.34-1.08-2.62-2.87-2.49-3.96.13-1.08 1.41-1.91 4.66-1.66 3.26.26 9.94-.94 10.32-1.07M169.37 49.31s-.16 2.8-.46 5.5c-.07.65-.15 1.29-.24 1.89-.44 3.06-3.13 11.74-11.68 10.66-2.3-.19-4.13-1.48-4.76-2.33" class="cls-2"/><path d="M166.76 47.51s-.71 1.12-.71 1.8M164.65 54.7s2.22.24 4.26.11M78.85 200.94s6.2 3.72 9.24 3.53M41.75 143.91s11.58 20.79 17.54 29.64c5.93 8.81 16.98 21.86 26.38 23.22M78.86 168.28c2.63 4.27 5.98 8.19 10.22 11.06 16.85 11.4 22.63 12.76 22.63 12.76M69.42 139.81s1.57 15.75 9.43 28.46" class="cls-2"/><path d="M78.85 168.27h.01c.49.45 16.45 14.63 23.32 14.3 2.05-.1 4.39-.29 6.84-.6 5.91-.74 12.43-2.2 16.79-4.85" class="cls-2"/><path d="M109.02 181.97s-1.29-10.63-1.05-13.7c.09-1.19.39-2.25.87-3.21 1.15-2.35 3.36-4.06 6.21-5.47 4.88-2.4 20.77-15.49 24.34-20.22-4.05.85-8.5 1.7-13.12 2.32-6.02.8-12.34 1.21-18.42.74-5.87-.46-11.53-1.75-16.5-4.31-2.68-1.38-5.17-3.14-7.38-5.34" class="cls-2"/><path d="M108.82 165.09s.01-.02.02-.03c.89-1.08 3.22-5.5 4.56-1.83.75 2.08 5.55 8 12.63 13.61 2.12 1.69 4.45 3.35 6.94 4.86 4 2.45 8.4 4.53 13.02 5.79M120.23 189.21s12.02-6.38 12.74-7.5M192.09 171.08c3.36-.72 6.61-1.48 9.69-2.21 11.4-2.68 20.52-4.9 24.83-2.81M134.27 92.83s-1.65 14.34-1.56 23.23c.01 1.69.09 3.18.26 4.34.2 1.42.49 2.86.83 4.28.15.62.31 1.24.48 1.85 1.42 5.18 3.5 9.99 5.11 12.84 2.18 3.86 14.24 18.99 25.71 27.21.32.23.63.45.95.67 0 0 2.39 2.12 7.09 3.59 4.14 1.3 10.06 2.09 17.72.5.4-.08.8-.17 1.2-.25M201.78 168.88l3.89 4.84" class="cls-2"/><path d="M174.86 177.98c6.34-2.84 11.2-5.48 17.2-6.89 0-.01.02-.01.03-.01.11-.03.23-.05.34-.08M153.09 185.46s17.07-8.21 19.9-14.16M165.1 166.58s-10.53 17.96-17.48 20.37M196.48 124.7l-10.21 32.68 13.27-1.53c-2.04-4.09-5.78-17.36-4.59-19.58M121.18 61.68s1.21.4 3.08 1.07c4.87 1.76 14.24 5.38 18.54 8.7" class="cls-2"/><path d="M139.88 72.7c.1-.05 1.3-.56 2.92-1.25 1.46-.61 3.25-1.37 4.89-2.07l4.58-1.93M126.48 57.72s12.85 2.81 21.21 11.66M133.36 55.56v1.28M156.99 67.36l-.26.94M173.23 76.05l6.75-24.2 6.25 1.15-9.52 25.61v.01" class="cls-2"/><path d="M116.44 62.74s-5.92 8.43-6.17 15.88c-.24 6.98-2.51 29.24-4.05 34.89-.1.37-.2.67-.29.89-.23.54-.72 1.46-1.4 2.63-.68 1.2-1.56 2.66-2.53 4.25-4.36 7.13-10.65 16.84-10.65 16.84-2.18-2.45-3.33-6.42-3.8-10.27-.41-3.37-.3-6.64.12-8.73 0 0 1.45-16.21 2.17-19.27.3-1.24 1.35-2.92 2.93-5.4 2.31-3.64 5.77-9.04 9.71-17.45 5.22-11.14 8.7-13.01 13.96-14.26 1.42-.34 2.98-.64 4.74-1.06.13-1.79 5.3-3.96 5.3-3.96l5.11-.89c.4-.08 1-.08 1.77 0 4.16.5 13.08 3.62 18.91 10.61 1.3.18 2.82.46 4.46.85 3.98.94 8.66 2.55 12.64 4.99 0 0 1.5 1.05 3.86 2.76h0c1.02.75 2.2 1.61 3.48 2.56 7.7 5.72 19.32 14.76 24.03 20.56l-4.26 25.53s1.19.68 2.72 1.19c8-6.3 28.26.51 30.13 8.34 1.87 7.83 1.87 14.3-3.74 28.26 0 0 1.02 2.38 1.02 3.57s-15.32 17.87-15.32 17.87-2.72-5.27-5.62-10.21c-2.38 1.02-19.23 6.13-30.81 4.26 0 0-7.02 3.31-21.77 7.48-1.72.49-3.54.98-5.47 1.49-.28.07-.56.15-.84.22-.27.11-.53.22-.79.32-10.02 4.07-15.15 3.54-25.76 1.72l-8.52 2.89s3.75 2.39 5.79 5.28c-5.96-.34-16.34 6.13-19.74 7.32-3.13 1.09-8.24 2.32-9.67-.23-.13-.23-.23-.49-.3-.79.46-4.73-.44-6.64-1.99-6.89-.04 0-.09 0-.13-.02-1.81-.19-4.44 1.77-6.82 4.17-2 1.99-3.82 4.3-4.84 5.89 0 0-19.4-6.13-26.3-11.49-6.89-5.36-22.21-38.43-26.55-46.09 3.13.52 13.08-2.03 20.59-5.35 1.68-.74 3.23-1.52 4.56-2.31 7.28-4.34 14.04-4.08 23.11-1.78l14.55-7.03 3.58-4.93" class="cls-2"/><path d="M124.26 62.75s-4.67 8.88-5.18 12.59c-.49 3.55-1.81 34.25-2.36 37.86-.03.15-.05.26-.07.31M101.99 121.28h.01c.33.01 7.06.25 11.47.6.22.02.43.03.63.05 4.47.39 16.5 2.34 19.61 2.77" class="cls-2"/><path d="M113.47 121.88s-6.13 14.61-5.62 20.54M134.28 126.53l-13.1 7.28 5.01 7.23s2.46-7.6 3.99-8.89M105.42 101.76l-2.56-12.25-7.91 5.23s9.65 15.07 11.27 18.77c0 0 6.21-.47 10.5-.31 1.21.05 2.27.14 2.99.31 3.32.76 13 2.55 13 2.55-.63-6.49-9.68-18.13-9.68-18.13M92.52 107.76s11.38 6.54 12.01 9.27M164.97 32.27s-8.13.66-9.06 1.61c-.94.95-1.81 1.3-.45 1.23 1.35-.07 7.98-.96 10.07-1.4h.06M166.36 38.2s-3.05-.42-4.86.86" class="cls-2"/></g></svg>