<svg xmlns="http://www.w3.org/2000/svg" xml:space="preserve" style="enable-background:new 0 0 270.4 224.4" viewBox="0 0 270.4 224.4"><style>.st0{fill:#f3edd7}.st1{fill:#333}.st3{fill:none;stroke:#000;stroke-miterlimit:10}.st4{fill:#ff5d50}.st5{fill:#bf92bb}.st6{fill:#efd7b4}.st8,.st9{fill:none;stroke:#000;stroke-linecap:round;stroke-linejoin:round;stroke-miterlimit:10}.st9{stroke:#fff;stroke-width:.5}</style><g id="畳"><path d="M.1 189.7h3.6v5H.1zM270 217.3v6.6h-30.5l15.4-8.6c1 1.6 3.1 2.7 5.5 2.7 2.5 0 4.6-1.2 5.6-2.9l4 2.2z" class="st0"/><path d="M270 206.7v10.6l-4-2.2c.4-.7.6-1.4.6-2.1 0-1.3-.6-2.5-1.6-3.4l5-2.9zM270 194.7v12l-5 2.8c-1.1-1-2.8-1.6-4.6-1.6-1.7 0-3.3.6-4.4 1.5l-26.1-14.7H270zM270 101.6v5.8H.1v-5.8zM266 189.7h4v5h-4z" class="st0"/><path d="M266.6 212.9c0 .8-.2 1.5-.6 2.1l-5.4-3 4.4-2.5c1 .9 1.6 2.1 1.6 3.4z" class="st0"/><path d="m260.6 212 5.4 3c-1 1.7-3.1 2.9-5.6 2.9-2.4 0-4.5-1.1-5.5-2.7l5.7-3.2z" class="st0"/><path d="M254.7 189.7H266v5h-11.3z" class="st1"/><path d="m265 209.5-4.4 2.5-4.6-2.6c1.1-.9 2.7-1.5 4.4-1.5 1.8 0 3.4.6 4.6 1.6z" class="st0"/><path d="m260.6 212-5.7 3.2c-.4-.7-.7-1.5-.7-2.3 0-1.4.7-2.6 1.8-3.5l4.6 2.6z" class="st0"/><path d="m229.8 194.7 26.1 14.7c-1.1.9-1.8 2.1-1.8 3.5 0 .8.3 1.6.7 2.3l-15.4 8.6H198l-15.6-8.8c.4-.7.6-1.4.6-2.1 0-1.3-.6-2.5-1.6-3.4l26.3-14.8H229.8zm-5.9 18.2c0-2.8-2.2-5-5-5s-5 2.2-5 5 2.2 5 5 5c2.7 0 5-2.2 5-5z" class="st0"/><path d="M254.7 194.7H224.1v-5h30.6z" class="st0"/><path d="M212.8 189.7h11.3v5h-11.3zM218.9 207.9c2.8 0 5 2.2 5 5s-2.2 5-5 5-5-2.2-5-5c-.1-2.8 2.2-5 5-5z" class="st1"/><path d="m207.7 194.7-26.3 14.8c-1.1-1-2.8-1.6-4.6-1.6-1.7 0-3.3.6-4.4 1.5l-26.1-14.7h61.4zM182.3 194.7v-5h30.5v5h-5.1zM198 223.9h-42.1l15.4-8.6c1 1.6 3.1 2.7 5.5 2.7 2.5 0 4.6-1.2 5.6-2.9l15.6 8.8zM183 212.9c0 .8-.2 1.5-.6 2.1l-5.4-3 4.4-2.5c1 .9 1.6 2.1 1.6 3.4z" class="st0"/><path d="m177 212 5.4 3c-1 1.7-3.1 2.9-5.6 2.9-2.4 0-4.5-1.1-5.5-2.7l5.7-3.2z" class="st0"/><path d="M171 189.7h11.3v5H171z" class="st1"/><path d="M176.8 207.9c1.8 0 3.5.6 4.6 1.6L177 212l-4.6-2.6c1.1-.9 2.6-1.5 4.4-1.5z" class="st0"/><path d="m177 212-5.7 3.2c-.4-.7-.7-1.5-.7-2.3 0-1.4.7-2.6 1.8-3.5l4.6 2.6z" class="st0"/><path d="m146.2 194.7 26.1 14.7c-1.1.9-1.8 2.1-1.8 3.5 0 .8.3 1.6.7 2.3l-15.4 8.6h-41.5L98.7 215c.4-.7.6-1.4.6-2.1 0-1.3-.6-2.5-1.6-3.4l26.3-14.8h22.2zm-7 18.2c0-2.8-2.2-5-5-5s-5 2.2-5 5 2.2 5 5 5 5-2.2 5-5zM171 194.7h-30.5v-5H171z" class="st0"/><path d="M129.2 189.7h11.3v5h-11.3zM134.2 207.9c2.8 0 5 2.2 5 5s-2.2 5-5 5-5-2.2-5-5 2.2-5 5-5z" class="st1"/><path d="m124.1 194.7-26.3 14.8c-1.1-1-2.8-1.6-4.6-1.6-1.7 0-3.3.6-4.4 1.5l-26.1-14.7h61.4zM129.2 194.7H98.6v-5h30.6zM114.4 223.9H72.3l15.4-8.6c1 1.6 3.1 2.7 5.5 2.7 2.5 0 4.6-1.2 5.6-2.9l15.6 8.8zM99.3 212.9c0 .8-.2 1.5-.6 2.1l-5.4-3 4.4-2.5c1 .9 1.6 2.1 1.6 3.4z" class="st0"/><path d="m93.3 212 5.4 3c-1 1.7-3.1 2.9-5.6 2.9-2.4 0-4.5-1.1-5.5-2.7l5.7-3.2z" class="st0"/><path d="M87.3 189.7h11.3v5H87.3z" class="st1"/><path d="M93.1 207.9c1.8 0 3.5.6 4.6 1.6l-4.4 2.5-4.6-2.6c1.1-.9 2.7-1.5 4.4-1.5z" class="st0"/><path d="m93.3 212-5.7 3.2c-.4-.7-.7-1.5-.7-2.3 0-1.4.7-2.6 1.8-3.5l4.6 2.6z" class="st0"/><path d="m62.6 194.7 26.1 14.7c-1.1.9-1.8 2.1-1.8 3.5 0 .8.3 1.6.7 2.3l-15.4 8.6H30.6L15 215c.4-.7.6-1.4.6-2.1 0-1.3-.6-2.5-1.6-3.4l26.3-14.8h22.3zm-8.5 18.2c0-2.8-2.2-5-5-5s-5 2.2-5 5 2.2 5 5 5c2.7 0 5-2.2 5-5zM87.3 194.7H56.8v-5h30.5z" class="st0"/><path d="M45.5 189.7h11.3v5H45.5zM49.1 207.9c2.8 0 5 2.2 5 5s-2.2 5-5 5-5-2.2-5-5c-.1-2.8 2.2-5 5-5z" class="st1"/><path d="M45.5 194.7H15v-5h30.5zM30.6 223.9H.1v-6.5l3.8-2.1c1 1.6 3.1 2.7 5.5 2.7 2.5 0 4.6-1.2 5.6-2.9l15.6 8.8zM15.5 212.9c0 .8-.2 1.5-.6 2.1l-5.4-3 4.4-2.5c1 .9 1.6 2.1 1.6 3.4z" class="st0"/><path d="M3.7 189.7H15v5H3.7z" class="st1"/><path d="m9.5 212 5.4 3c-1 1.7-3.1 2.9-5.6 2.9-2.4 0-4.5-1.1-5.5-2.7l5.7-3.2zM9.3 207.9c1.8 0 3.5.6 4.6 1.6L9.5 212l-4.6-2.6c1.1-.9 2.7-1.5 4.4-1.5z" class="st0"/><path d="m9.5 212-5.7 3.2c-.4-.7-.7-1.5-.7-2.3 0-1.4.7-2.6 1.8-3.5l4.6 2.6z" class="st0"/><path d="m.1 206.7 4.8 2.7c-1.1.9-1.8 2.1-1.8 3.5 0 .8.3 1.6.7 2.3L0 217.3v-10.6z" class="st0"/><path d="M212.8 189.7H.1v-82.3H270v82.3H224.1z" style="fill:#d2d296"/><path d="M.1 194.7h40.2L14 209.5c-1.1-1-2.8-1.6-4.6-1.6-1.7 0-3.3.6-4.4 1.5l-4.8-2.7v-12z" class="st0"/><path d="M270 223.9H.1M.1 101.6H270M.1 107.4H270M266 189.7h4M224.1 189.7h30.6M182.3 189.7h30.5M140.5 189.7H171M98.6 189.7h30.6M56.8 189.7h30.5M15 189.7h30.5M.1 189.7h3.6M266 194.7h4M224.1 194.7H254.7M182.3 194.7h30.5M140.5 194.7H171M98.6 194.7h30.6M56.8 194.7h30.5M15 194.7h30.5M.1 194.7h3.6M72.3 223.9l15.3-8.7 5.7-3.2 4.4-2.5 26.4-14.8" class="st3"/><path d="m114.4 223.9-15.6-8.8-5.5-3.1-4.6-2.6-26.1-14.7M139.2 212.9c0 2.8-2.2 5-5 5s-5-2.2-5-5 2.2-5 5-5 5 2.2 5 5zM223.9 212.9c0 2.8-2.2 5-5 5s-5-2.2-5-5 2.2-5 5-5c2.7 0 5 2.2 5 5z" class="st3"/><path d="M97.7 209.5c1 .9 1.6 2.1 1.6 3.4 0 .8-.2 1.5-.6 2.1-1 1.7-3.1 2.9-5.6 2.9-2.4 0-4.5-1.1-5.5-2.7-.4-.7-.7-1.5-.7-2.3 0-1.4.7-2.6 1.8-3.5 1.1-.9 2.7-1.5 4.4-1.5 1.9 0 3.5.6 4.6 1.6zM.1 217.3l3.7-2.1 5.7-3.2 4.4-2.5 26.4-14.8" class="st3"/><path d="m30.6 223.9-15.7-8.8-5.4-3.1-4.6-2.6-4.8-2.7" class="st3"/><path d="M13.9 209.5c1 .9 1.6 2.1 1.6 3.4 0 .8-.2 1.5-.6 2.1-1 1.7-3.1 2.9-5.6 2.9-2.4 0-4.5-1.1-5.5-2.7-.4-.7-.7-1.5-.7-2.3 0-1.4.7-2.6 1.8-3.5 1.1-.9 2.7-1.5 4.4-1.5 1.9 0 3.5.6 4.6 1.6zM155.9 223.9l15.3-8.7 5.8-3.2 4.4-2.5 26.3-14.8" class="st3"/><path d="m198 223.9-15.6-8.8-5.4-3.1-4.7-2.6-26.1-14.7" class="st3"/><path d="M181.4 209.5c1 .9 1.6 2.1 1.6 3.4 0 .8-.2 1.5-.6 2.1-1 1.7-3.1 2.9-5.6 2.9-2.4 0-4.5-1.1-5.5-2.7-.4-.7-.7-1.5-.7-2.3 0-1.4.7-2.6 1.8-3.5 1.1-.9 2.7-1.5 4.4-1.5 1.8 0 3.4.6 4.6 1.6zM239.5 223.9l15.4-8.7 5.7-3.2 4.4-2.5 5-2.8" class="st3"/><path d="m270 217.3-4-2.2-5.4-3.1-4.7-2.6-26.1-14.7" class="st3"/><path d="M265 209.5c1 .9 1.6 2.1 1.6 3.4 0 .8-.2 1.5-.6 2.1-1 1.7-3.1 2.9-5.6 2.9-2.4 0-4.5-1.1-5.5-2.7-.4-.7-.7-1.5-.7-2.3 0-1.4.7-2.6 1.8-3.5 1.1-.9 2.7-1.5 4.4-1.5 1.8 0 3.4.6 4.6 1.6zM54.1 212.9c0 2.8-2.2 5-5 5s-5-2.2-5-5 2.2-5 5-5c2.7 0 5 2.2 5 5zM3.7 189.7H15v5H3.7zM45.5 189.7h11.3v5H45.5zM87.3 189.7h11.3v5H87.3zM129.2 189.7h11.3v5h-11.3zM171 189.7h11.3v5H171zM212.8 189.7h11.3v5h-11.3zM254.7 189.7H266v5h-11.3z" class="st3"/></g><g id="レイヤー_2"><g id="XMLID_00000134951748041122288510000018026062023438618804_"><path d="M235.5 119.8c5.2 7.1 14.4 21.8 13.3 27.1-15.5 2.8-42.7-4.7-46.5-6.8-3.7-2.1-11.2-5.7-13.7-5-.5.1-1.3.4-2.4.7l-.1-.8 7.8-6.4-19.6-10.3 61.2 1.5z" class="st1"/><path d="m248.8 147-14.3 9.8s-3.6-1.1-11.5-2c0 0-24-10.1-31.2-9.6h-7.7c-3.3 0-6.5-1.2-9-3.4l-2-1.8s8.5-2.7 13-4.1c1.1-.3 1.9-.6 2.4-.7 2.5-.7 10 2.9 13.7 5 3.9 2.1 31.1 9.6 46.6 6.8z" class="st4"/><path d="M159.9 105.2c-.1-1.7-.1-2.9-.1-3.6 0-.9-1-3.4-2.5-6.7-4.6-10.1-14-27.6-14-27.6l-.7-.1c1.2-1.2 2.4-2.5 3.6-4l.1-.4 19.4 3.9 10.9 12.5L196.5 91s5 5.9 16 19.9c4.5-.6 17.9 3.6 19.9 5 .4.3 1.7 1.8 3.2 3.9l-61.2-1.4 19.6 10.3-7.8 6.4.1.8c-4.5 1.4-13 4.1-13 4.1l2 1.8s-14.3-7.7-14.1-10.8c.2-2.5-.9-18.2-1.3-25.8z" class="st1"/><path d="M223.1 154.8c-4.5 6.4-26.6 10.6-32.7 10.6 0 0-3.8-16.8 0-19.8.3-.3.9-.4 1.6-.5 7.1-.4 31.1 9.7 31.1 9.7z" class="st5"/><path d="M145.7 139.8c6.8-3.2 15.5-8.7 15.5-8.7-.3 3.1 14.1 10.8 14.1 10.8 2.5 2.2 5.7 3.4 9 3.4h7.7c-.7 0-1.2.2-1.6.5-3.8 3 0 19.8 0 19.8l-11.2 3.9c-8.3-3.9-36.9-16.6-41.2-16.2-4.3.4-22.5 18.5-22.5 18.5L94 178.9l-3.4-5.3c3.2-10.5-3.2-15.9-3.2-15.9 7.2-5.9 15.4-12.9 21.2-18 0 0 26.5 3.9 33.3 1.7 1.1-.4 2.4-.9 3.7-1.5l.1-.1z" class="st1"/><path d="M179.1 169.4s-21.8 3.6-25.3 4.5c-3.5.9-28.1-1.4-38.3-2.3 0 0 18.2-18.1 22.5-18.5 4.3-.4 32.8 12.3 41.1 16.3z" class="st5"/><path d="M159.9 105.2c.4 7.6 1.5 23.3 1.3 25.8 0 0-8.7 5.6-15.5 8.7-.1 0-.1-.1-.1-.1s-.1-23.2-1.3-33-14.1-32.9-14.1-32.9c3.8-.4 8-2.2 12.4-6.5l.7.1s9.4 17.5 14 27.6c1.5 3.3 2.5 5.8 2.5 6.7 0 .7.1 1.9.1 3.6zM154 5.8c1.4.8 1.6 1.8 1.4 2.1-.2.3-3.1 3.2-5.8 5.5-2.7 2.3-13.7 8.6-13.7 8.6s-.7.3-.6.7c1.7.2 10.1 3.2 11.3 4 1.3.8 1.7 1.5 1.5 2l-2.3 2.7c-.3.3-.7.5-1.1.5-1.1 0-3.3-.1-4.6-.7-1.8-.8-9-3.3-9-3.3-5.3 6.1-9 10.5-9.3 10.6 0 0 .1-3.4-.3-4.5-.4-1-1.5-.2-3.2 1.7 0-1.5.7-3.6 2.4-5.5.3-6.7 1.6-16.2 1.9-17.7.3-1.5 2-4.3 2.8-4.3.8 0 1.2 1.1 1.2 1.1s.7 10.4 1 12.5c3.2-5.6 11-12.9 14.4-16.1 3.4-3.3 10.6-.7 12 .1z" class="st1"/><path d="M141.1 43c.2 1.5.7 4.5 1.1 5.5.2.4.3.7.2 1h3.2c-.2.9-2.2 4.1-3.1 5.4-.8 1.1-2.7 4.7-3.6 6.5-.2.3-.3.6-.4.8-.6 1.2-1.6 2.2-2.7 2.1h-.2s-5.5 5.7-11.8 1.8c-7.8-4.9-8.4-17.1-8.4-17.1l1.9-1.8 1.1-4.4c-.5-.2-.8-.8-.9-1.6-.2-2.1.8-5.5.8-5.5 1.7-1.9 2.8-2.7 3.2-1.7.4 1 .3 4.5.3 4.5.4-.1 4-4.5 9.3-10.6 0 0 7.1 2.5 9 3.3 1.3.6 3.5.7 4.6.7l1.3.1c.8 3.5 1.2 5.4 1.3 6.6.2 1.2-.3 2.9-.6 3.4-.1.3-.6 1-.9 1.5l-.4-.3c-.6-.1-1.8-.4-2.6-.2h-1.7z" class="st6"/><path d="m146.3 62.8-.1.4c-1.2 1.5-2.4 2.9-3.6 4-4.4 4.3-8.6 6.1-12.4 6.5-4.2.5-7.9-.7-10.6-2-5.9-2.9-13.5-14.1-13.5-14.1l9.4-8.7s.6 12.2 8.4 17.1c6.2 3.9 11.8-1.8 11.8-1.8h.2c1.1.1 2.1-.9 2.7-2.1l.4-.8 7.3 1.5z" class="st1"/><path d="m145.5 43.2.4.3c-.2.3-.3.5-.3.5s.3 4.6.1 5.5h-3.2c.1-.2 0-.5-.2-1-.5-.9-.9-4-1.1-5.5l1.8-.1c.7-.1 1.8.2 2.5.3z" class="st6"/><path d="M145.6 139.7v.1c-1.3.6-2.6 1.2-3.7 1.5-6.7 2.2-33.3-1.7-33.3-1.7 3.3-2.9 5.9-5.3 6.9-6.3 3.8-4 5.1-9 4.1-10.5-.7-3-2.6-7.3-4.5-11l13.5-28.2-3.7-1-12.6 23.8c-.8-1.5-1.4-2.5-1.4-2.5s.7-13.6-.8-18.5c-1.5-4.8-9-22-9-22l-2.7-1.8c4.4-2.2 7.6-3.9 7.6-3.9s7.6 11.2 13.5 14.1c2.8 1.3 6.4 2.5 10.6 2 0 0 12.9 23.1 14.1 32.9 1.3 9.7 1.4 33 1.4 33z" class="st1"/><path d="m128.6 83.6-13.5 28.2c-1-2.1-2.1-4-2.8-5.4l12.6-23.8 3.7 1z" style="fill:#eec7a6"/><path d="M119.6 122.8c.9 1.5-.4 6.5-4.1 10.5-1 1.1-3.6 3.4-6.9 6.3-5.8 5.1-14 12.1-21.2 18-7.1 5.9-13.3 10.6-14.9 11.4-3.2 2.8-18.6 5.3-33.2 5.7.6-.3 24.3-12.4 29.1-14.6 4.9-2.2 25.4-17.9 28-19.8 2.6-1.9 20.2-17.8 22.4-18 .3.1.6.2.8.5z" class="st4"/><path d="M110.9 103.8s.6 1 1.4 2.5c.8 1.4 1.8 3.3 2.8 5.4 1.9 3.7 3.8 8 4.5 11-.2-.3-.5-.5-.9-.4-2.2.3-19.8 16.2-22.4 18-2.6 1.9-23.1 17.5-28 19.8-4.8 2.2-28.5 14.3-29.1 14.6-4.4.2-8.8.1-12.7-.1-3.6-4.2 2.5-13.7 5.9-23.8 0 0 3.5-8.6 6.1-11.6 1.8-2.1 7.7-8.1 11.1-11.6 1.4-1.5 1.9-3.7 1.1-5.6l-2.6-6.3c.7-.3 1.4-.5 2.1-.8 7.6-2.8 12.9-15.7 16.8-23.8 3.9-8.1 6.4-15.1 7.8-16.8.9-1.1 14.8-8.3 23.8-12.9l2.7 1.8s7.5 17.2 9 22c1.4 5 .6 18.6.6 18.6z" class="st1"/><path d="M87.4 157.7s6.5 5.4 3.2 15.9c0 0-6.2-2.2-18.2-4.5 1.7-.8 7.9-5.6 15-11.4zM50.6 122.1c.8 1.9.4 4.1-1.1 5.6-3.3 3.4-9.2 9.5-11.1 11.6-2.6 3-6.1 11.6-6.1 11.6-14.6-10.1-4.8-29.1-2.8-29.4 1.8-.3 11-3.1 18.3-5.7l2.8 6.3z" class="st5"/><path d="M39.3 174.8c14.6-.5 30-2.9 33.2-5.7 12 2.2 18.2 4.5 18.2 4.5l3.4 5.3 21.5-7.3c10.2.8 34.8 3.1 38.3 2.3 3.5-.9 25.3-4.5 25.3-4.5l11.2-3.9c6.2 0 28.3-4.2 32.7-10.6 7.8.8 11.5 2 11.5 2l14.3-9.8c1.1-5.4-8.1-20-13.3-27.1-1.6-2.1-2.8-3.6-3.2-3.9-2-1.4-15.4-5.6-19.9-5-10.9-14-16-19.9-16-19.9l-19.9-11.8-10.9-12.5-19.4-3.9-7.3-1.5" class="st8"/><path d="m115.5 49-9.4 8.7s-3.2 1.6-7.6 3.9c-9 4.6-22.9 11.8-23.8 12.9-1.4 1.7-3.9 8.7-7.8 16.8-3.9 8.1-9.2 21-16.8 23.8-.7.3-1.4.5-2.1.8-7.3 2.6-16.6 5.4-18.3 5.7-2 .3-11.8 19.3 2.8 29.4-3.4 10.1-9.5 19.6-5.9 23.8 3.9.3 8.3.3 12.7.1" class="st8"/><path d="M32.4 150.9s3.5-8.6 6.1-11.6c1.8-2.1 7.7-8.1 11.1-11.6 1.4-1.5 1.9-3.7 1.1-5.6l-2.6-6.3M39.2 174.8s0 0 0 0c.7-.3 24.3-12.4 29.1-14.6 4.9-2.2 25.4-17.9 28-19.8 2.6-1.9 20.2-17.8 22.4-18 .4 0 .7.1.9.4.9 1.5-.4 6.5-4.1 10.5-1 1.1-3.6 3.4-6.9 6.3-5.8 5.1-14 12.1-21.2 18-7.1 5.9-13.3 10.6-14.9 11.4" class="st8"/><path d="M96 159.8s27.6-13.1 31.3-17.5" class="st9"/><path d="M115.5 171.6s18.2-18.1 22.5-18.5c4.3-.4 32.8 12.3 41.2 16.2M190.3 165.4s-3.8-16.8 0-19.8c.3-.3.9-.4 1.6-.5 7.2-.4 31.2 9.6 31.2 9.6" class="st8"/><path d="M191.9 145.2h-7.7c-3.3 0-6.5-1.2-9-3.4l-2-1.8s8.5-2.7 13-4.1c1.1-.3 1.9-.6 2.4-.7 2.5-.7 10 2.9 13.7 5 3.7 2.1 31 9.6 46.5 6.8" class="st8"/><path d="m186.1 135.1 7.9-6.4-19.6-10.3 61.1 1.4M188.6 94.1l-28.7 11.1h-.1M161.2 108s20.2.6 33.9 5.9" class="st9"/><path d="M143.3 67.4s9.4 17.5 14 27.6c1.5 3.3 2.5 5.8 2.5 6.7 0 .7.1 1.9.1 3.6.4 7.6 1.5 23.3 1.3 25.8-.3 3.1 14.1 10.8 14.1 10.8M130.2 73.8s12.9 23.1 14.1 32.9c1.2 9.8 1.3 33 1.3 33" class="st9"/><path d="M108.6 139.7s26.5 3.9 33.3 1.7c1.1-.4 2.4-.9 3.7-1.5 0 0 .1 0 .1-.1 6.8-3.2 15.5-8.7 15.5-8.7" class="st9"/><path d="M181.9 153.1c-20.8-3.2-34.9-12.5-36.2-13.4-.1 0-.1-.1-.1-.1v.1c-.2 1.1-1.9 9.4-4.7 11.3M74.9 126.8c8.9-5.7 18.3-11.7 24.5-15.8 3.7-2.4 6.2-4.1 6.8-4.7 3.4-3 4.7-2.4 4.7-2.4s.6 1 1.4 2.5c.8 1.4 1.8 3.3 2.8 5.4 1.9 3.7 3.8 8 4.5 11M51 141.8s11.4-7.1 23.9-15.1M101.2 63.3s7.5 17.2 9 22c1.5 4.9.8 18.5.8 18.5" class="st9"/><path d="m91.3 82-2.4-4.9-10.8 2.4s23.3 10.4 28.2 26.7M61.3 110s34.7-2.5 38.1 1M53.1 130s18-6.8 21.8-3.2h0" class="st9"/><path d="m112.3 106.3 12.6-23.7 3.7 1-13.4 28.2" class="st8"/><path d="M106.1 57.7s7.6 11.2 13.5 14.1c2.8 1.3 6.4 2.5 10.6 2 3.8-.4 8-2.2 12.4-6.5 1.2-1.2 2.4-2.5 3.6-4M163.2 70.4S159.7 92 157.4 95" class="st9"/><path d="M87.4 157.7s6.5 5.4 3.2 15.9" class="st8"/><path d="M138.9 61.4c-.2.3-.3.6-.4.8-.6 1.2-1.6 2.2-2.7 2.1h-.2c-1.4-.1-7-1-9.9-6.1" class="st3"/><path d="M138.9 61.4h0" class="st8"/><path d="M146 32c.8 3.5 1.2 5.4 1.3 6.6.2 1.2-.3 2.9-.6 3.4-.1.3-.6 1-.9 1.5-.2.3-.3.5-.3.5s.3 4.6.1 5.5c-.2.9-2.2 4.1-3.1 5.4-.8 1.1-2.7 4.7-3.6 6.5M136.7 41.9c-1.3-.8-2.7-1.6-4.3-2.4" class="st3"/><path d="M145.5 43.2c-.6-.1-1.8-.4-2.6-.2M141 42.2s0 .3.1.8c.2 1.5.7 4.5 1.1 5.5.2.4.3.7.2 1-.1.4-.5.5-.8.6M139.2 56s-2.9-.1-4.6-1.2M146.7 37.9l-3.1-.6M136.9 36.5l-6.5-1.9M118.4 35.6c1.7-1.9 2.8-2.7 3.2-1.7.4 1 .3 4.5.3 4.5.4-.1 4-4.5 9.3-10.6 0 0 7.1 2.5 9 3.3 1.3.6 3.5.7 4.6.7.4 0 .8-.2 1.1-.5l2.3-2.7c.2-.5-.2-1.2-1.5-2s-9.6-3.7-11.3-4c-.1-.4.6-.7.6-.7s11-6.3 13.7-8.6c2.7-2.3 5.6-5.2 5.8-5.5.2-.3-.1-1.4-1.4-2.1-1.4-.7-8.6-3.4-12-.2-3.4 3.2-11.2 10.5-14.4 16.1-.3-2.1-1-12.5-1-12.5s-.4-1.1-1.2-1.1c-.8 0-2.5 2.8-2.8 4.3-.3 1.5-1.6 11-1.9 17.7-1.7 2-2.4 4.1-2.4 5.6zM117.6 41.2c.1.8.4 1.4.9 1.6l-1.1 4.4-1.9 1.8s.6 12.2 8.4 17.1c6.2 3.9 11.8-1.8 11.8-1.8" class="st3"/><path d="M118.4 35.6s-1 3.4-.8 5.5M117.6 41.1c-.1.7-.6 4.4.1 4.7" class="st3"/></g></g></svg>