<?xml version="1.0" encoding="utf-8"?>
<!-- Generator: Adobe Illustrator 27.9.0, SVG Export Plug-In . SVG Version: 6.00 Build 0)  -->
<svg version="1.1" id="レイヤー_1" xmlns="http://www.w3.org/2000/svg" xmlns:xlink="http://www.w3.org/1999/xlink" x="0px"
	 y="0px" viewBox="0 0 270 215" style="enable-background:new 0 0 270 215;" xml:space="preserve">
<style type="text/css">
	.st0{fill:#F8FFEA;}
	.st1{fill:#FC4939;}
	.st2{fill:#EEFFB6;}
	.st3{fill:#FFFADA;}
	.st4{fill:#8BE1FF;}
	.st5{fill:none;stroke:#000000;stroke-miterlimit:10;}
	.st6{fill:#FC5C42;}
	.st7{fill:#9E72AF;}
	.st8{fill:#F9DBBD;}
	.st9{fill:#333333;}
	.st10{fill:none;stroke:#000000;stroke-linecap:round;stroke-linejoin:round;}
	.st11{fill:none;stroke:#000000;stroke-width:0.75;stroke-linecap:round;stroke-linejoin:round;}
	.st12{fill:none;stroke:#000000;stroke-width:0.5;stroke-linecap:round;stroke-linejoin:round;}
</style>
<g id="_レイヤー_3">
	<g>
		<polygon class="st0" points="270,169.3 270,174.5 261.6,169.3 		"/>
		<rect x="241.7" y="174.5" class="st0" width="14" height="40"/>
		<polygon class="st0" points="252.7,169.3 255.7,174.5 241.7,174.5 238.7,169.3 		"/>
		<rect x="217.9" y="174.5" class="st0" width="10.8" height="40"/>
		<polygon class="st0" points="225.8,169.3 228.8,174.5 217.9,174.5 214.9,169.3 		"/>
		<rect x="194.2" y="174.5" class="st0" width="10.8" height="40"/>
		<polygon class="st0" points="202,169.3 205,174.5 194.2,174.5 191.2,169.3 		"/>
		<rect x="170.4" y="174.5" class="st0" width="10.8" height="40"/>
		<polygon class="st0" points="178.2,169.3 181.2,174.5 170.4,174.5 167.4,169.3 		"/>
		<rect x="146.6" y="174.5" class="st0" width="10.8" height="40"/>
		<polygon class="st0" points="154.4,169.3 157.4,174.5 146.6,174.5 143.6,169.3 		"/>
		<rect x="122.8" y="174.5" class="st0" width="10.8" height="40"/>
		<polygon class="st0" points="130.6,169.3 133.6,174.5 122.8,174.5 119.8,169.3 		"/>
		<rect x="99" y="174.5" class="st0" width="10.8" height="40"/>
		<polygon class="st0" points="106.8,169.3 109.8,174.5 99,174.5 96,169.3 		"/>
		<rect x="75.2" y="174.5" class="st0" width="10.8" height="40"/>
		<polygon class="st0" points="83,169.3 86,174.5 75.2,174.5 72.2,169.3 		"/>
		<rect x="51.4" y="174.5" class="st0" width="10.8" height="40"/>
		<polygon class="st0" points="59.3,169.3 62.2,174.5 51.4,174.5 48.5,169.3 		"/>
		<rect x="27.7" y="174.5" class="st0" width="10.8" height="40"/>
		<polygon class="st0" points="35.5,169.3 38.5,174.5 27.7,174.5 24.7,169.3 		"/>
		<rect y="174.5" class="st0" width="14.7" height="40"/>
		<polygon class="st0" points="11.7,169.3 14.7,174.5 0,174.5 0,169.3 		"/>
		<rect x="255.7" y="174.5" class="st1" width="14.3" height="40"/>
		<polygon class="st2" points="270,107.4 270,169.3 261.6,169.3 252.7,169.3 238.7,169.3 225.8,169.3 214.9,169.3 202,169.3 
			191.2,169.3 178.2,169.3 167.4,169.3 154.4,169.3 143.6,169.3 130.6,169.3 119.8,169.3 106.8,169.3 96,169.3 83,169.3 72.2,169.3 
			59.3,169.3 48.5,169.3 35.5,169.3 24.7,169.3 11.7,169.3 0,169.3 0,107.7 		"/>
		<polygon class="st3" points="270,106.7 270,107.4 0,107.7 37,107.4 254.2,106.7 		"/>
		<polygon class="st3" points="270,100.6 270,106.7 254.2,106.7 37,107.4 0,107.7 0,106.6 0,100.6 		"/>
		<polygon class="st1" points="270,174.5 255.7,174.5 252.7,169.3 261.6,169.3 		"/>
		<rect x="228.8" y="174.5" class="st4" width="13" height="40"/>
		<polygon class="st4" points="238.7,169.3 241.7,174.5 228.8,174.5 225.8,169.3 		"/>
		<rect x="205" y="174.5" class="st1" width="13" height="40"/>
		<polygon class="st1" points="214.9,169.3 217.9,174.5 205,174.5 202,169.3 		"/>
		<rect x="181.2" y="174.5" class="st4" width="13" height="40"/>
		<polygon class="st4" points="191.2,169.3 194.2,174.5 181.2,174.5 178.2,169.3 		"/>
		<rect x="157.4" y="174.5" class="st1" width="13" height="40"/>
		<polygon class="st1" points="167.4,169.3 170.4,174.5 157.4,174.5 154.4,169.3 		"/>
		<rect x="133.6" y="174.5" class="st4" width="13" height="40"/>
		<polygon class="st4" points="143.6,169.3 146.6,174.5 133.6,174.5 130.6,169.3 		"/>
		<rect x="109.8" y="174.5" class="st1" width="13" height="40"/>
		<polygon class="st1" points="119.8,169.3 122.8,174.5 109.8,174.5 106.8,169.3 		"/>
		<rect x="86" y="174.5" class="st4" width="13" height="40"/>
		<polygon class="st4" points="96,169.3 99,174.5 86,174.5 83,169.3 		"/>
		<rect x="62.2" y="174.5" class="st1" width="13" height="40"/>
		<polygon class="st1" points="72.2,169.3 75.2,174.5 62.2,174.5 59.3,169.3 		"/>
		<rect x="38.5" y="174.5" class="st4" width="13" height="40"/>
		<polygon class="st4" points="48.5,169.3 51.4,174.5 38.5,174.5 35.5,169.3 		"/>
		<rect x="14.7" y="174.5" class="st1" width="13" height="40"/>
		<polygon class="st1" points="24.7,169.3 27.7,174.5 14.7,174.5 11.7,169.3 		"/>
	</g>
	<g>
		<polyline class="st5" points="0,169.4 11.7,169.4 24.6,169.4 35.4,169.4 48.4,169.4 59.2,169.4 72.1,169.4 82.9,169.4 95.9,169.4 
			106.6,169.4 119.6,169.4 130.4,169.4 143.4,169.4 154.1,169.4 167.1,169.4 177.9,169.4 190.8,169.4 201.6,169.4 214.6,169.4 
			225.4,169.4 238.3,169.4 252.3,169.4 261.1,169.4 269.8,174.7 		"/>
		<polyline class="st5" points="270,214.5 255.3,214.5 241.3,214.5 228.4,214.5 217.6,214.5 204.6,214.5 193.8,214.5 180.9,214.5 
			170.1,214.5 157.1,214.5 146.3,214.5 133.4,214.5 122.6,214.5 109.6,214.5 98.8,214.5 85.9,214.5 75.1,214.5 62.1,214.5 
			51.3,214.5 38.4,214.5 27.6,214.5 14.6,214.5 0,214.5 		"/>
		<polyline class="st5" points="252.3,169.4 255.3,174.6 255.3,214.5 		"/>
		<polyline class="st5" points="238.3,169.4 241.3,174.6 241.3,214.5 		"/>
		<polyline class="st5" points="225.4,169.4 228.4,174.6 228.4,214.5 		"/>
		<polyline class="st5" points="214.6,169.4 217.6,174.6 217.6,214.5 		"/>
		<polyline class="st5" points="201.6,169.4 204.6,174.6 204.6,214.5 		"/>
		<polyline class="st5" points="190.8,169.4 193.8,174.6 193.8,214.5 		"/>
		<polyline class="st5" points="177.9,169.4 180.9,174.6 180.9,214.5 		"/>
		<polyline class="st5" points="167.1,169.4 170.1,174.6 170.1,214.5 		"/>
		<polyline class="st5" points="154.1,169.4 157.1,174.6 157.1,214.5 		"/>
		<polyline class="st5" points="143.4,169.4 146.3,174.6 146.3,214.5 		"/>
		<polyline class="st5" points="130.4,169.4 133.4,174.6 133.4,214.5 		"/>
		<polyline class="st5" points="119.6,169.4 122.6,174.6 122.6,214.5 		"/>
		<polyline class="st5" points="106.6,169.4 109.6,174.6 109.6,214.5 		"/>
		<polyline class="st5" points="95.9,169.4 98.8,174.6 98.8,214.5 		"/>
		<polyline class="st5" points="82.9,169.4 85.9,174.6 85.9,214.5 		"/>
		<polyline class="st5" points="72.1,169.4 75.1,174.6 75.1,214.5 		"/>
		<polyline class="st5" points="59.2,169.4 62.1,174.6 62.1,214.5 		"/>
		<polyline class="st5" points="48.4,169.4 51.3,174.6 51.3,214.5 		"/>
		<polyline class="st5" points="35.4,169.4 38.4,174.6 38.4,214.5 		"/>
		<polyline class="st5" points="24.6,169.4 27.6,174.6 27.6,214.5 		"/>
		<polyline class="st5" points="11.7,169.4 14.6,174.6 14.6,214.5 		"/>
		<polyline class="st5" points="269.5,174.6 255.3,174.6 241.3,174.6 228.4,174.6 217.6,174.6 204.6,174.6 193.8,174.6 180.9,174.6 
			170.1,174.6 157.1,174.6 146.3,174.6 133.4,174.6 122.6,174.6 109.6,174.6 98.8,174.6 85.9,174.6 75.1,174.6 62.1,174.6 
			51.3,174.6 38.4,174.6 27.6,174.6 14.6,174.6 0,174.6 		"/>
		<line class="st5" x1="261.1" y1="169.4" x2="270" y2="169.4"/>
		<line class="st5" x1="0" y1="100.8" x2="270" y2="100.8"/>
		<line class="st5" x1="0" y1="107.4" x2="270" y2="107.4"/>
	</g>
</g>
<g id="_レイヤー_2">
	<g>
		<g>
			<path class="st6" d="M232.9,98.4c4.3,0.4,6.6,2,4.6,5.4s-7.4,13.5-15.3,16.4h0c-4.1-8.9-11.3-18.4-26.3-21.4
				c-3.5-7.3-8.8-16.8-14.3-25.9h21.6C200.9,82.2,202,93,215.1,97C219.6,98.3,225.4,98.9,232.9,98.4z"/>
			<path class="st6" d="M234.5,74c1.9,9.9-1.5,24.4-1.5,24.4c-7.5,0.5-13.4-0.1-17.8-1.4c0.8-17.2-11.9-24.1-11.9-24.1
				c0.1-0.4,0.2-0.8,0.3-1.1h0c0.4,0.1,9.2,1.4,17.8,2.1C226.4,74.2,231.4,74.4,234.5,74L234.5,74z"/>
			<path class="st6" d="M219.7,67.7c8.7,3.6,14.8,6.3,14.8,6.3c-3.1,0.4-8.1,0.3-13.2-0.2l0-0.2C221.3,73.6,219.7,67.7,219.7,67.7z"
				/>
			<path class="st7" d="M93.3,95.9c3.8-2.7,6.7-4.9,7.4-5.7c0,0,0.8-1.7,1.7-4c-0.5-1.5-1-7.6-1.4-13.9c0,0,3.8-2.7,6.4-11.8
				c1.4,0.3,2.9,0.4,4.5,0.1c8-1.5,16.8-7.9,19.8-16.8c0.3-0.7,0.5-1.5,0.6-2.3c7.9-0.9,24.1-2.2,28.3,1.2c2.6,2,8.1,9.8,14.3,19.4
				c2.2,3.4,4.4,7,6.6,10.7c5.5,9.1,10.8,18.6,14.3,25.9c15,3,22.2,12.5,26.3,21.4c2.3,4.9,3.6,9.6,4.7,13
				c-10.6-2.4-21.4-0.5-41.5,2.4c-2.3,0.3-4.4,0.6-6.4,0.6c-15.4,0.8-22-4.7-23.7-6.9c-0.8-1-1.6-1.3-2.3-1.1l0,0
				c-0.7,0.1-1.3,0.6-1.9,1.1c-1.2,1.2-17.5,16.1-17.5,16.1s-1.9-3.4-4.4-7.9c-2.4-4.3-5.4-9.7-7.8-14.1l0,0
				c-0.7-1.2-1.3-2.4-1.9-3.4c-2,0.4-4,0.6-5.9,0.8c-21.7,1.8-39.4-7.7-39.4-7.7l-0.8-0.3c0.6-1.5,1-3,1.2-4.5
				c3.3-2,7.8-4.9,12.1-7.8C89,98.9,91.3,97.4,93.3,95.9L93.3,95.9z"/>
			<path class="st6" d="M219.7,67.7l1.6,5.9l0,0.2c-8.6-0.7-17.4-2.1-17.8-2.1c3.2-10.9,11-9.6,11.6-9.5c0,0,0,0,0,0
				C217.1,63.5,218.7,65.1,219.7,67.7L219.7,67.7z"/>
			<path class="st6" d="M185.4,135.5c20.1-2.9,30.9-4.9,41.5-2.4c-3,5.9-13.9,7.3-26.2,7c-2,0-4-0.1-6-0.2
				c-5.4-0.3-10.7-0.8-15.6-1.4l-0.1-2.4C181,136.1,183.2,135.9,185.4,135.5L185.4,135.5z"/>
			<path class="st6" d="M203.2,72.8c0,0,12.8,7,11.9,24.1C202,93,200.9,82.2,203.2,72.8L203.2,72.8z"/>
			<path class="st6" d="M215.1,62.2c-0.5-0.1-8.4-1.4-11.6,9.5h0c-0.1,0.4-0.2,0.7-0.3,1.1h-21.6c-2.2-3.7-4.5-7.3-6.6-10.7l0,0
				c0,0,29.5-5.3,33.4-2.9C211,60.2,213.2,61,215.1,62.2L215.1,62.2z"/>
			<path class="st6" d="M199.1,50.5c5.5,2,9.3,8.7,9.3,8.7c-3.9-2.4-33.4,2.9-33.4,2.9S193.6,48.4,199.1,50.5L199.1,50.5z"/>
			<path class="st6" d="M200.8,140.1L200.8,140.1c-7.6,9-15.9,9-16.2,9c3.7-1.9,7.4-4.8,10.2-9.2C196.8,140,198.8,140.1,200.8,140.1
				L200.8,140.1z"/>
			<path class="st6" d="M194.8,139.9c-2.9,4.4-6.6,7.3-10.2,9.2h0c-8.1,4.2-16.4,3.6-16.4,3.6c4.7-4,9.1-9,11-14.2
				C184,139.1,189.4,139.6,194.8,139.9L194.8,139.9z"/>
			<path class="st6" d="M179,136.2l0.1,2.4l-45.5,6.9c0,0,16.3-14.9,17.5-16.1c0.6-0.6,1.2-1,1.9-1.1l0,0c0.7-0.1,1.5,0.2,2.3,1.1
				C157.1,131.5,163.6,137,179,136.2L179,136.2z"/>
			<path class="st7" d="M113.6,120.9c1.9-0.2,3.9-0.4,5.9-0.8c0.6,1,1.2,2.2,1.9,3.4l0,0c2.4,4.4,5.4,9.8,7.8,14.1
				c2.5,4.5,4.4,7.9,4.4,7.9l45.5-6.9c-1.9,5.1-6.3,10.2-11,14.2c-6.1,5.2-12.8,8.7-15,8.7c-3.9,0-36.3-16.4-36.3-16.4
				s-29.7,16.4-31.3,16.9c-1.6,0.4-3.4-0.9-3.4-0.9s-1.9-3.9-4.3-8.8c-3.3-6.7-7.4-15.3-8.4-18.3c-1.9-5.2-5.8-8.3-5.8-8.3h0
				c4.4-3.7,7.9-7.9,9.8-12.7l0.8,0.3C74.2,113.2,91.9,122.7,113.6,120.9L113.6,120.9z"/>
			<path class="st7" d="M132.4,41.5c-0.2,0.8-0.4,1.5-0.6,2.3c-3,8.9-11.8,15.2-19.8,16.8c-1.6,0.3-3.1,0.2-4.5-0.1
				c-2.9-0.6-5.5-2.2-7.4-3.8l0,0c-2.2-1.9-3.6-3.7-3.6-3.7c2.3,1.5,4.5,2.3,6.4,2c0.7-0.1,1.3-0.2,1.9-0.4h0
				c12,2.5,19-7.4,23.1-12.5C127.9,42.1,129.6,41.8,132.4,41.5z"/>
			<path class="st8" d="M110.7,35.7c0,0,3.8,1.3,6.9,3.2c0.3,0.2,0.5,0.3,0.8,0.5c3.2,2.2,3.7,2.7,3.7,2.7h5.8
				c-4.1,5.1-11.2,15-23.1,12.5h0c-0.6,0.2-1.2,0.3-1.9,0.4c-1.8,0.3-4.1-0.5-6.4-2c-1.5-0.9-3-2.1-4.4-3.5
				c-5.5-5-10.5-12-11.4-14.8C79.2,30,79.2,27,79.2,27s11.3-1,14-5.9c5.2,6.3,12,14.5,12,14.5c0.3-2.8,1.3-5.5,2.6-5.7
				c1.3-0.2,3.8,0.2,3.7,2.9C111.5,34.1,111.1,35,110.7,35.7z M102.3,51.4c1.2-0.6,0.8-2.4,0.7-2.8c0,0,0-0.1,0-0.1l-3.1,0.3
				l-0.5,0.6h-0.4l-0.5,0.9C98.4,50.4,100.9,52.1,102.3,51.4z M91.5,27.9c0.9-0.5,1.5-1.2,1.3-1.5c-0.2-0.3-1.1-0.1-1.9,0.5
				c-0.9,0.6-1.5,1.2-1.3,1.5C89.7,28.7,90.6,28.4,91.5,27.9z M83.6,32.2c0.9-0.6,1.4-1.3,1.2-1.6c-0.2-0.3-1.1,0-1.9,0.5
				c-0.9,0.6-1.4,1.3-1.2,1.6C81.9,33,82.7,32.8,83.6,32.2z"/>
			<path class="st9" d="M107.4,18.9c-0.2-0.4-1.4-3.6-3.2-6.4c-1.9-2.9-4.3-0.9-4.3-0.9C104.6,14.4,107.1,18.5,107.4,18.9z
				 M113.1,34.6c2.6,1.6,4.1,3.3,4.6,4.3c-3.1-1.9-6.9-3.2-6.9-3.2c0.4-0.6,0.8-1.5,0.9-2.8c0.1-2.7-2.3-3.1-3.7-2.9
				c-1.3,0.2-2.3,3-2.6,5.7c0,0-6.8-8.2-12-14.5c-2.7,4.9-14,5.9-14,5.9s-1.2-1.6,0.4-4.4c1.7-2.8,3.9-4.8,3.9-4.8v-1.5h-2l0.1-1.4
				h3.8v-2.2C80,10.5,76.6,7.8,75,6.2C73.4,4.6,74.3,2,76.1,2S87.3,4.5,90,6.6v-6c0,0,4.5-0.7,8,2.4s10.4,10.9,11.6,16.5
				c0.1,1.5,0.9,9.1,0.9,9.1C111.7,29.7,112.8,31.9,113.1,34.6z M97.4,8.9c0,0,2.2-1.6,3.1-1.3c-2.6-2.6-4.1-4.5-5.9-4.7
				c-0.1,3.4,0,4.7,0,4.7S97.4,8.9,97.4,8.9z"/>
			<path class="st7" d="M107.4,60.5c-2.6,9.1-6.4,11.8-6.4,11.8c-0.5-7.5-0.9-15.3-0.9-15.6C101.9,58.3,104.5,59.9,107.4,60.5z"/>
			<path class="st6" d="M102.9,48.7c0.1,0.4,0.6,2.1-0.7,2.8c-1.4,0.7-3.9-1-3.9-1C100.8,50.9,102.7,49,102.9,48.7z"/>
			<path class="st6" d="M102.9,48.6C102.9,48.6,102.9,48.6,102.9,48.6c-0.2,0.5-2.1,2.3-4.5,1.8l0.5-0.9h0.4l0.5-0.6L102.9,48.6z"/>
			<path class="st7" d="M58.6,79.6L58.6,79.6c1.1-0.8,1.8-1.2,1.8-1.2C69.3,73.2,71,61.7,71,61.7c9.9-5.9,21-12.1,21-12.1
				c1.5,1.3,3,2.5,4.4,3.5c0,0,1.3,1.8,3.6,3.7l0,0c0,0.3,0.4,8.1,0.9,15.6c0.4,6.3,0.9,12.4,1.4,13.9c-1.3-0.5-12.5,1.9-19.5,3.8
				c-2.1,0.6-3.9,1.1-4.8,1.5c-0.8,0.9-1.6,1.6-2.5,2.1c-1.6,2.7,3.5,4.8,7.3,5.9c2.1,0.6,3.9,1,3.9,1c-4.3,2.9-8.8,5.8-12.1,7.8
				c0,0-46.3,23.8-44.9,29c-0.7-1.4-0.8-3.2-1.1-4.3c-0.8-3.1,0.6-30.6,2.7-33.3c1-1.3,8.1-6.6,15-11.6
				C51.3,84.7,56.1,81.3,58.6,79.6L58.6,79.6z"/>
			<path class="st6" d="M82.8,90.1c7-1.9,18.2-4.3,19.5-3.8c-0.9,2.3-1.7,4-1.7,4c-0.7,0.9-3.6,3.1-7.4,5.7c-2,1.4-4.3,3-6.6,4.6
				c0,0-1.7-0.3-3.9-1C82.8,99.5,82.8,90.1,82.8,90.1z"/>
			<path class="st9" d="M92.8,26.4c0.2,0.3-0.4,1-1.3,1.5c-0.9,0.6-1.8,0.8-1.9,0.5c-0.2-0.3,0.4-1,1.3-1.5
				C91.7,26.3,92.6,26.1,92.8,26.4z"/>
			<path class="st9" d="M84.8,30.6c0.2,0.3-0.4,1-1.2,1.6c-0.9,0.6-1.7,0.8-1.9,0.5c-0.2-0.3,0.4-1,1.2-1.6
				C83.8,30.6,84.7,30.3,84.8,30.6z"/>
			<path class="st6" d="M82.8,90.1v9.5c-3.8-1.1-8.9-3.2-7.3-5.9c0.9-0.5,1.7-1.2,2.5-2.1C79,91.2,80.7,90.6,82.8,90.1z"/>
			<path class="st6" d="M62.5,144.4L62.5,144.4c-10.9,4.1-23-5.2-23-5.2c1-0.3,2-0.7,3.2-1.2c7-3.1,14.8-7.2,21-12.4h0
				c0,0,4,3.1,5.8,8.3c1.1,3,5.2,11.6,8.4,18.3l-1.2-0.5C72.8,151.6,67.2,148.1,62.5,144.4L62.5,144.4z"/>
			<path class="st6" d="M74.7,108.3c-0.2,1.6-0.7,3.1-1.2,4.5c-1.9,4.8-5.4,9-9.8,12.7c-6.2,5.2-14,9.4-21,12.4
				c-1.2,0.5-2.2,0.9-3.2,1.2c-6.1,2-8.5,0.5-9.6-1.7c0,0,0-0.1,0-0.1C28.3,132.1,74.7,108.3,74.7,108.3L74.7,108.3z"/>
			<path class="st6" d="M71,61.7c0,0-1.8,11.5-10.7,16.7c0,0-0.7,0.4-1.8,1.2l0,0c-2.5,1.8-7.3,5.1-12.2,8.7l-0.2-0.3
				c0.6-2,6.5-12.9,10.1-16.6C57.7,69.8,64.1,65.8,71,61.7z"/>
		</g>
		<g>
			<path class="st10" d="M104.8,54.6c-0.6,0.2-1.2,0.3-1.9,0.4c-1.8,0.3-4.1-0.5-6.4-2c-1.5-0.9-3-2.1-4.4-3.5
				c-5.5-5-10.5-12-11.4-14.8C79.2,30,79.2,27,79.2,27s11.3-1,14-5.9c5.2,6.3,12,14.5,12,14.5c0.3-2.8,1.3-5.5,2.6-5.7
				c1.3-0.2,3.8,0.2,3.7,2.9c0,1.3-0.4,2.2-0.9,2.8c-0.5,0.7-0.9,1-0.9,1"/>
			<path class="st10" d="M113.6,47.6c0,0-2.8,5.2-8.9,7"/>
			<path class="st10" d="M110.7,35.7c0,0,3.8,1.3,6.9,3.2c0.3,0.2,0.5,0.3,0.8,0.5c3.2,2.2,3.7,2.7,3.7,2.7h5.8
				c-4.1,5.1-11.2,15-23.1,12.5h0"/>
			<path class="st10" d="M87.3,43c0,0,1.8-0.6,2.3-1.2"/>
			<path class="st10" d="M95.9,37c0,0,3.5-1,4.1-2.4"/>
			<path class="st10" d="M90.4,38.9c0,0,4.7,8.3,5.1,8.8s2.4-2,2.4-2"/>
			<line class="st10" x1="98.5" y1="44.8" x2="99" y2="45.3"/>
			<path class="st11" d="M98.4,50.4l0.5-0.9h0.4l0.5-0.6l3.1-0.3c0,0,0,0,0,0.1c0.1,0.4,0.6,2.1-0.7,2.8
				C100.9,52.1,98.4,50.4,98.4,50.4z"/>
			<path class="st12" d="M98.4,50.4c2.4,0.5,4.3-1.4,4.5-1.8"/>
			<path class="st10" d="M79.2,27c0,0-1.2-1.6,0.4-4.4c1.7-2.8,3.9-4.8,3.9-4.8v-1.5h-2l0.1-1.4h3.8v-2.2C80,10.5,76.6,7.8,75,6.2
				C73.4,4.6,74.3,2,76.1,2S87.3,4.5,90,6.6v-6c0,0,4.5-0.7,8,2.4s10.4,10.9,11.6,16.5c0.1,1.5,0.9,9.1,0.9,9.1
				c1.3,1.1,2.4,3.3,2.7,6c2.6,1.6,4.1,3.3,4.6,4.3"/>
			<path class="st10" d="M94.6,7.6l2.8,1.3c0,0,2.2-1.6,3.1-1.3c-2.6-2.6-4.1-4.5-5.9-4.7C94.5,6.3,94.6,7.6,94.6,7.6z"/>
			<path class="st10" d="M107.4,18.9C107.4,18.9,107.4,18.9,107.4,18.9L107.4,18.9"/>
			<path class="st10" d="M107.4,18.9c-0.3-0.4-2.8-4.5-7.5-7.2c0,0,2.3-2.1,4.3,0.9C105.9,15.3,107.2,18.5,107.4,18.9z"/>
			<path class="st10" d="M92,49.6c0,0-11.1,6.2-21,12.1c-6.9,4.1-13.3,8.1-14.8,9.6c-3.6,3.7-9.4,14.6-10.1,16.6"/>
			<path class="st10" d="M29.8,137.5c0,0,0,0.1,0.1,0.1"/>
			<path class="st10" d="M74.7,108.3c0,0-46.3,23.8-44.9,29"/>
			<path class="st10" d="M39.5,139.1c0,0,12.1,9.4,23,5.2"/>
			<path class="st10" d="M53.7,136.7c0,0,3.9,3.9,8.8,7.6c4.7,3.7,10.3,7.3,14.2,7.3c0.1,0,0.2,0,0.4,0"/>
			<path class="st10" d="M63.6,125.5c0,0,4,3.1,5.8,8.3c1.1,3,5.2,11.6,8.4,18.3c2.4,4.9,4.3,8.8,4.3,8.8s1.8,1.4,3.4,0.9
				c1.6-0.4,31.3-16.9,31.3-16.9s32.3,16.4,36.3,16.4c2.2,0,8.8-3.5,15-8.7c4.7-4,9.1-9,11-14.2c4.9,0.5,10.2,1.1,15.6,1.4
				c2,0.1,4,0.2,6,0.2c12.2,0.2,23.2-1.2,26.2-7c-1.1-3.4-2.4-8.1-4.7-13c-4.1-8.9-11.3-18.4-26.3-21.4c-3.5-7.3-8.8-16.8-14.3-25.9
				c-2.2-3.7-4.5-7.3-6.6-10.7c-6.1-9.6-11.7-17.4-14.3-19.4c-4.3-3.3-20.4-2-28.3-1.2c-2.7,0.3-4.5,0.5-4.5,0.5"/>
			<path class="st10" d="M215.1,62.2c-1.8-1.1-4-2-6.6-3c0,0-3.8-6.6-9.3-8.7c-5.5-2-24.1,11.6-24.1,11.6s29.5-5.3,33.4-2.9"/>
			<path class="st10" d="M222.2,120.1c7.9-2.9,13.3-13.1,15.3-16.4s-0.3-5-4.6-5.4c0,0,3.4-14.4,1.5-24.4c0,0-6.1-2.7-14.8-6.3
				c-1-2.6-2.6-4.2-4.6-5.5"/>
			<path class="st10" d="M203.5,71.7c-0.1,0.4-0.2,0.7-0.3,1.1c-2.3,9.3-1.2,20.1,11.9,24.1c4.4,1.3,10.3,1.9,17.8,1.4"/>
			<path class="st10" d="M215.1,62.2C215.1,62.2,215.1,62.2,215.1,62.2c-0.6-0.1-8.4-1.4-11.6,9.5"/>
			<line class="st10" x1="219.7" y1="67.7" x2="221.3" y2="73.6"/>
			<path class="st10" d="M203.5,71.7L203.5,71.7c0.4,0.1,9.2,1.4,17.8,2.1c5.1,0.4,10.2,0.6,13.2,0.2"/>
			<path class="st10" d="M181.6,72.8h21.6c0,0,12.8,7,11.9,24.1"/>
			<path class="st10" d="M165.4,63.7v4c0,0-28.9,18.3-28.6,33.5"/>
			<path class="st10" d="M136.9,63.7l12.9-12.2l1.4,8.8c0,0-33.3,13.7-23.3,40.9"/>
			<path class="st10" d="M100,56.7c1.9,1.6,4.4,3.2,7.4,3.8c1.4,0.3,2.9,0.4,4.5,0.1c8-1.5,16.8-7.9,19.8-16.8
				c0.3-0.7,0.5-1.5,0.6-2.3"/>
			<path class="st10" d="M96.4,53c0,0,1.3,1.8,3.6,3.7"/>
			<path class="st10" d="M131.7,43.8c0,0,4.2,2.7,3.2,6.3c-1,3.6-14.7,19.8-15.3,37.2s3.3,18.9,3.3,18.9s4.2-6.4,9.5-5.6
				c5.2,0.8,12.4,2.8,15.9,3.6c3.6,0.8,38.6,4,41.8,3.2"/>
			<path class="st10" d="M152.4,100.2c0,0,26.4-5.9,28.6-6.5"/>
			<path class="st10" d="M90.4,60.8c0,0-4.8,22.5-12.4,30.8c-0.8,0.9-1.6,1.6-2.5,2.1c-1.6,2.7,3.5,4.8,7.3,5.9c2.1,0.6,3.9,1,3.9,1
				"/>
			<path class="st10" d="M100,56.7L100,56.7c0,0.3,0.4,8.1,0.9,15.6c0.4,6.3,0.9,12.4,1.4,13.9"/>
			<path class="st10" d="M100.9,72.3c0,0,3.8-2.7,6.4-11.8"/>
			<path class="st10" d="M93.3,95.9l1.2,2.6c0,0-1.5,6.7-1.2,10.7"/>
			<line class="st10" x1="82.8" y1="90.1" x2="82.8" y2="99.5"/>
			<path class="st10" d="M153,128.2c0.7-0.1,1.5,0.2,2.3,1.1c1.7,2.2,8.3,7.6,23.7,6.9c2-0.1,4.1-0.3,6.4-0.6
				c20.1-2.9,30.9-4.9,41.5-2.4"/>
			<path class="st10" d="M121.4,123.5c2.4,4.4,5.4,9.7,7.8,14.1c2.5,4.5,4.4,7.9,4.4,7.9s16.3-14.9,17.5-16.1c0.6-0.6,1.2-1,1.9-1.1
				"/>
			<path class="st10" d="M74.2,113.2c0,0,17.7,9.5,39.4,7.7c1.9-0.2,3.9-0.4,5.9-0.8c0.6,1,1.2,2.2,1.9,3.4"/>
			<line class="st10" x1="133.6" y1="145.4" x2="179.2" y2="138.5"/>
			<path class="st10" d="M129.2,137.6c0,0-6.6,0.4-9.7,5.2"/>
			<path class="st10" d="M75.2,120.1c0,0,17,16.4,18,20c8.7-2.4,25.3-9.6,28.1-16.6l0,0"/>
			<path class="st10" d="M89.1,127.6c0,0,20.1,0.2,24.5-6.7"/>
			<path class="st10" d="M126,118.4c0,0,16.7,9.9,27,9.8l0,0"/>
			<path class="st10" d="M184.5,149.1c3.7-1.9,7.4-4.8,10.2-9.2"/>
			<path class="st10" d="M168.2,152.7c0,0,8.2,0.6,16.4-3.6"/>
			<path class="st10" d="M184.5,149.1L184.5,149.1c0.3,0,8.6,0,16.2-8.9"/>
			<line class="st10" x1="195.9" y1="98.7" x2="200.8" y2="118.4"/>
			<path class="st10" d="M58.6,79.6c-0.1,0.5-4.7,19.2-8.7,21.7"/>
			<path class="st10" d="M71,61.7c0,0-1.8,11.5-10.7,16.7c0,0-0.7,0.4-1.8,1.2l0,0c-2.5,1.8-7.3,5.1-12.2,8.7
				c-6.9,5-14,10.2-15,11.6c-2,2.7-3.5,30.3-2.7,33.3c0.3,1.1,0.4,2.8,1.1,4.3c0,0,0,0.1,0,0.1c1.1,2.2,3.5,3.7,9.6,1.7
				c1-0.3,2-0.7,3.2-1.2c7-3.1,14.8-7.2,21-12.4c4.4-3.7,7.9-7.9,9.8-12.7c0.6-1.5,1-3,1.2-4.5c3.3-2,7.8-4.9,12.1-7.8
				c2.3-1.6,4.6-3.1,6.6-4.6c3.8-2.7,6.7-4.9,7.4-5.7c0,0,0.8-1.7,1.7-4c-1.3-0.5-12.5,1.9-19.5,3.8c-2.1,0.6-3.9,1.1-4.8,1.5"/>
			<path class="st10" d="M92.8,26.4c0.2,0.3-0.4,1-1.3,1.5c-0.9,0.6-1.8,0.8-1.9,0.5c-0.2-0.3,0.4-1,1.3-1.5
				C91.7,26.3,92.6,26.1,92.8,26.4z"/>
			<path class="st10" d="M84.8,30.6c0.2,0.3-0.4,1-1.2,1.6c-0.9,0.6-1.7,0.8-1.9,0.5c-0.2-0.3,0.4-1,1.2-1.6
				C83.8,30.6,84.7,30.3,84.8,30.6z"/>
		</g>
	</g>
</g>
</svg>
