<?xml version="1.0" encoding="UTF-8"?>
<svg xmlns="http://www.w3.org/2000/svg" viewBox="0 0 270.03 215.03">
  <defs>
    <style>
      .cls-1 {
        fill: #7ac6e0;
      }

      .cls-1, .cls-2, .cls-3, .cls-4, .cls-5, .cls-6, .cls-7, .cls-8, .cls-9 {
        stroke-width: 0px;
      }

      .cls-2 {
        fill: #f9dbbd;
      }

      .cls-10 {
        stroke-miterlimit: 10;
      }

      .cls-10, .cls-11, .cls-12, .cls-13 {
        fill: none;
        stroke: #000;
      }

      .cls-11 {
        stroke-width: .75px;
      }

      .cls-11, .cls-12, .cls-13 {
        stroke-linecap: round;
        stroke-linejoin: round;
      }

      .cls-3 {
        fill: #e5ebd8;
      }

      .cls-4 {
        fill: #fc5c42;
      }

      .cls-12 {
        stroke-width: .5px;
      }

      .cls-5 {
        fill: #333;
      }

      .cls-6 {
        fill: #d33d30;
      }

      .cls-7 {
        fill: #fffada;
      }

      .cls-8 {
        fill: #e4f4ae;
      }

      .cls-9 {
        fill: #9e72af;
      }
    </style>
  </defs>
  <g id="_レイヤー_3" data-name="レイヤー 3">
    <g>
      <polygon class="cls-3" points="270 169.28 270 174.53 261.58 169.28 270 169.28"/>
      <rect class="cls-3" x="241.73" y="174.53" width="13.97" height="40"/>
      <polygon class="cls-3" points="252.7 169.28 255.7 174.53 241.73 174.53 238.74 169.28 252.7 169.28"/>
      <rect class="cls-3" x="217.95" y="174.53" width="10.8" height="40"/>
      <polygon class="cls-3" points="225.76 169.28 228.75 174.53 217.95 174.53 214.95 169.28 225.76 169.28"/>
      <rect class="cls-3" x="194.16" y="174.53" width="10.8" height="40"/>
      <polygon class="cls-3" points="201.97 169.28 204.96 174.53 194.16 174.53 191.16 169.28 201.97 169.28"/>
      <rect class="cls-3" x="170.37" y="174.53" width="10.8" height="40"/>
      <polygon class="cls-3" points="178.18 169.28 181.17 174.53 170.37 174.53 167.38 169.28 178.18 169.28"/>
      <rect class="cls-3" x="146.59" y="174.53" width="10.81" height="40"/>
      <polygon class="cls-3" points="154.4 169.28 157.4 174.53 146.59 174.53 143.6 169.28 154.4 169.28"/>
      <rect class="cls-3" x="122.8" y="174.53" width="10.81" height="40"/>
      <polygon class="cls-3" points="130.61 169.28 133.61 174.53 122.8 174.53 119.81 169.28 130.61 169.28"/>
      <rect class="cls-3" x="99.01" y="174.53" width="10.81" height="40"/>
      <polygon class="cls-3" points="106.82 169.28 109.82 174.53 99.01 174.53 96.03 169.28 106.82 169.28"/>
      <rect class="cls-3" x="75.23" y="174.53" width="10.81" height="40"/>
      <polygon class="cls-3" points="83.04 169.28 86.04 174.53 75.23 174.53 72.24 169.28 83.04 169.28"/>
      <rect class="cls-3" x="51.44" y="174.53" width="10.81" height="40"/>
      <polygon class="cls-3" points="59.26 169.28 62.25 174.53 51.44 174.53 48.45 169.28 59.26 169.28"/>
      <rect class="cls-3" x="27.66" y="174.53" width="10.81" height="40"/>
      <polygon class="cls-3" points="35.47 169.28 38.46 174.53 27.66 174.53 24.67 169.28 35.47 169.28"/>
      <rect class="cls-3" y="174.53" width="14.68" height="40"/>
      <polygon class="cls-3" points="11.69 169.28 14.68 174.53 0 174.53 0 169.28 11.69 169.28"/>
      <rect class="cls-6" x="255.7" y="174.53" width="14.3" height="40"/>
      <polygon class="cls-8" points="270 107.4 270 169.28 261.58 169.28 252.7 169.28 238.74 169.28 225.76 169.28 214.95 169.28 201.97 169.28 191.16 169.28 178.18 169.28 167.38 169.28 154.4 169.28 143.6 169.28 130.61 169.28 119.81 169.28 106.82 169.28 96.03 169.28 83.04 169.28 72.24 169.28 59.26 169.28 48.45 169.28 35.47 169.28 24.67 169.28 11.69 169.28 0 169.28 0 107.69 270 107.4"/>
      <polygon class="cls-7" points="270 106.66 270 107.4 0 107.69 37.01 107.4 254.2 106.66 270 106.66"/>
      <polygon class="cls-7" points="270 100.57 270 106.66 254.2 106.66 37.01 107.4 0 107.69 0 106.61 0 100.57 270 100.57"/>
      <polygon class="cls-6" points="270 174.53 255.7 174.53 252.7 169.28 261.58 169.28 270 174.53"/>
      <rect class="cls-1" x="228.75" y="174.53" width="12.99" height="40"/>
      <polygon class="cls-1" points="238.74 169.28 241.73 174.53 228.75 174.53 225.76 169.28 238.74 169.28"/>
      <rect class="cls-6" x="204.96" y="174.53" width="12.99" height="40"/>
      <polygon class="cls-6" points="214.95 169.28 217.95 174.53 204.96 174.53 201.97 169.28 214.95 169.28"/>
      <rect class="cls-1" x="181.17" y="174.53" width="12.99" height="40"/>
      <polygon class="cls-1" points="191.16 169.28 194.16 174.53 181.17 174.53 178.18 169.28 191.16 169.28"/>
      <rect class="cls-6" x="157.4" y="174.53" width="12.98" height="40"/>
      <polygon class="cls-6" points="167.38 169.28 170.37 174.53 157.4 174.53 154.4 169.28 167.38 169.28"/>
      <rect class="cls-1" x="133.61" y="174.53" width="12.98" height="40"/>
      <polygon class="cls-1" points="143.6 169.28 146.59 174.53 133.61 174.53 130.61 169.28 143.6 169.28"/>
      <rect class="cls-6" x="109.82" y="174.53" width="12.98" height="40"/>
      <polygon class="cls-6" points="119.81 169.28 122.8 174.53 109.82 174.53 106.82 169.28 119.81 169.28"/>
      <rect class="cls-1" x="86.04" y="174.53" width="12.98" height="40"/>
      <polygon class="cls-1" points="96.03 169.28 99.01 174.53 86.04 174.53 83.04 169.28 96.03 169.28"/>
      <rect class="cls-6" x="62.25" y="174.53" width="12.98" height="40"/>
      <polygon class="cls-6" points="72.24 169.28 75.23 174.53 62.25 174.53 59.26 169.28 72.24 169.28"/>
      <rect class="cls-1" x="38.46" y="174.53" width="12.98" height="40"/>
      <polygon class="cls-1" points="48.45 169.28 51.44 174.53 38.46 174.53 35.47 169.28 48.45 169.28"/>
      <rect class="cls-6" x="14.68" y="174.53" width="12.98" height="40"/>
      <polygon class="cls-6" points="24.67 169.28 27.66 174.53 14.68 174.53 11.69 169.28 24.67 169.28"/>
    </g>
    <g>
      <polyline class="cls-10" points="0 169.36 11.67 169.36 24.62 169.36 35.41 169.36 48.37 169.36 59.16 169.36 72.12 169.36 82.9 169.36 95.86 169.36 106.64 169.36 119.61 169.36 130.39 169.36 143.35 169.36 154.13 169.36 167.09 169.36 177.88 169.36 190.84 169.36 201.62 169.36 214.58 169.36 225.37 169.36 238.33 169.36 252.27 169.36 261.13 169.36 269.77 174.71"/>
      <polyline class="cls-10" points="270 214.53 255.26 214.53 241.32 214.53 228.35 214.53 217.57 214.53 204.61 214.53 193.83 214.53 180.86 214.53 170.08 214.53 157.13 214.53 146.34 214.53 133.38 214.53 122.59 214.53 109.63 214.53 98.85 214.53 85.89 214.53 75.1 214.53 62.14 214.53 51.35 214.53 38.4 214.53 27.61 214.53 14.65 214.53 0 214.53"/>
      <polyline class="cls-10" points="252.27 169.36 255.26 174.6 255.26 214.53"/>
      <polyline class="cls-10" points="238.33 169.36 241.32 174.6 241.32 214.53"/>
      <polyline class="cls-10" points="225.37 169.36 228.35 174.6 228.35 214.53"/>
      <polyline class="cls-10" points="214.58 169.36 217.57 174.6 217.57 214.53"/>
      <polyline class="cls-10" points="201.62 169.36 204.61 174.6 204.61 214.53"/>
      <polyline class="cls-10" points="190.84 169.36 193.83 174.6 193.83 214.53"/>
      <polyline class="cls-10" points="177.88 169.36 180.86 174.6 180.86 214.53"/>
      <polyline class="cls-10" points="167.09 169.36 170.08 174.6 170.08 214.53"/>
      <polyline class="cls-10" points="154.13 169.36 157.13 174.6 157.13 214.53"/>
      <polyline class="cls-10" points="143.35 169.36 146.34 174.6 146.34 214.53"/>
      <polyline class="cls-10" points="130.39 169.36 133.38 174.6 133.38 214.53"/>
      <polyline class="cls-10" points="119.61 169.36 122.59 174.6 122.59 214.53"/>
      <polyline class="cls-10" points="106.64 169.36 109.63 174.6 109.63 214.53"/>
      <polyline class="cls-10" points="95.86 169.36 98.85 174.6 98.85 214.53"/>
      <polyline class="cls-10" points="82.9 169.36 85.89 174.6 85.89 214.53"/>
      <polyline class="cls-10" points="72.12 169.36 75.1 174.6 75.1 214.53"/>
      <polyline class="cls-10" points="59.16 169.36 62.14 174.6 62.14 214.53"/>
      <polyline class="cls-10" points="48.37 169.36 51.35 174.6 51.35 214.53"/>
      <polyline class="cls-10" points="35.41 169.36 38.4 174.6 38.4 214.53"/>
      <polyline class="cls-10" points="24.62 169.36 27.61 174.6 27.61 214.53"/>
      <polyline class="cls-10" points="11.67 169.36 14.65 174.6 14.65 214.53"/>
      <polyline class="cls-10" points="269.54 174.6 255.26 174.6 241.32 174.6 228.35 174.6 217.57 174.6 204.61 174.6 193.83 174.6 180.86 174.6 170.08 174.6 157.13 174.6 146.34 174.6 133.38 174.6 122.59 174.6 109.63 174.6 98.85 174.6 85.89 174.6 75.1 174.6 62.14 174.6 51.35 174.6 38.4 174.6 27.61 174.6 14.65 174.6 0 174.6"/>
      <line class="cls-10" x1="261.13" y1="169.36" x2="270" y2="169.36"/>
      <line class="cls-10" y1="100.77" x2="270" y2="100.77"/>
      <line class="cls-10" y1="107.41" x2="270" y2="107.41"/>
    </g>
  </g>
  <g id="_レイヤー_2" data-name="レイヤー 2">
    <g>
      <g>
        <path class="cls-4" d="m232.94,98.36c4.34.38,6.64,2.04,4.6,5.36s-7.37,13.49-15.3,16.38h-.01c-4.09-8.9-11.32-18.39-26.31-21.36-3.5-7.27-8.8-16.77-14.29-25.91h21.57c-2.29,9.35-1.23,20.13,11.93,24.12,4.44,1.35,10.27,1.93,17.81,1.41Z"/>
        <path class="cls-4" d="m234.48,73.98c1.91,9.95-1.54,24.38-1.54,24.38-7.54.52-13.37-.06-17.81-1.41.83-17.16-11.93-24.12-11.93-24.12.1-.39.2-.77.3-1.13h.01c.35.06,9.19,1.41,17.75,2.12,5.13.42,10.17.61,13.22.16Z"/>
        <path class="cls-4" d="m219.67,67.72c8.68,3.58,14.81,6.26,14.81,6.26-3.05.45-8.09.26-13.22-.16l.02-.23-1.61-5.87Z"/>
        <path class="cls-9" d="m93.3,95.93c3.76-2.67,6.65-4.88,7.36-5.74,0,0,.79-1.66,1.69-3.96-.46-1.52-.97-7.64-1.41-13.92,0,0,3.81-2.72,6.45-11.8,1.43.3,2.95.36,4.53.06,8-1.53,16.79-7.89,19.8-16.76.26-.74.47-1.51.64-2.29,7.94-.87,24.05-2.15,28.33,1.18,2.58,2.01,8.14,9.77,14.29,19.4,2.18,3.4,4.43,7.03,6.65,10.73,5.49,9.14,10.79,18.64,14.29,25.91,14.99,2.97,22.22,12.46,26.31,21.36,2.27,4.9,3.57,9.63,4.71,12.98-10.59-2.42-21.44-.51-41.49,2.43-2.29.34-4.43.55-6.42.65-15.4.8-21.96-4.69-23.7-6.85-.79-.97-1.56-1.26-2.29-1.13h0c-.66.11-1.3.56-1.88,1.13-1.23,1.2-17.53,16.14-17.53,16.14,0,0-1.91-3.38-4.43-7.87-2.42-4.32-5.4-9.66-7.82-14.06h0c-.68-1.24-1.3-2.39-1.86-3.42-1.99.36-3.96.61-5.89.77-21.72,1.84-39.42-7.7-39.42-7.7l-.79-.33c.58-1.46,1-2.96,1.24-4.52,3.31-2.02,7.77-4.91,12.06-7.82,2.31-1.57,4.57-3.14,6.59-4.57Z"/>
        <path class="cls-4" d="m219.67,67.72l1.61,5.87-.02.23c-8.56-.71-17.4-2.06-17.75-2.12,3.18-10.88,11.02-9.61,11.55-9.51.02,0,.03,0,.03,0,2.03,1.27,3.57,2.9,4.58,5.52Z"/>
        <path class="cls-4" d="m185.45,135.51c20.05-2.94,30.9-4.85,41.49-2.43-2.97,5.85-13.94,7.28-26.17,7.04-1.98-.03-3.99-.12-6-.23-5.36-.3-10.74-.83-15.61-1.36l-.13-2.37c1.99-.1,4.13-.31,6.42-.65Z"/>
        <path class="cls-4" d="m203.2,72.83s12.76,6.96,11.93,24.12c-13.16-3.99-14.22-14.77-11.93-24.12Z"/>
        <path class="cls-4" d="m215.06,62.19c-.53-.1-8.37-1.37-11.55,9.51h-.01c-.1.36-.2.74-.3,1.13h-21.57c-2.22-3.7-4.47-7.33-6.65-10.73h0s29.52-5.31,33.44-2.93c2.59,1.03,4.8,1.88,6.63,3.02Z"/>
        <path class="cls-4" d="m199.11,50.49c5.49,2.04,9.32,8.68,9.32,8.68-3.92-2.38-33.44,2.93-33.44,2.93,0,0,18.63-13.66,24.12-11.61Z"/>
        <path class="cls-4" d="m200.77,140.12v.06c-7.63,8.96-15.91,8.93-16.24,8.92,3.69-1.91,7.37-4.81,10.24-9.21,2.01.11,4.02.2,6,.23Z"/>
        <path class="cls-4" d="m194.77,139.89c-2.87,4.4-6.55,7.3-10.24,9.21h-.01c-8.13,4.2-16.36,3.6-16.36,3.6,4.72-4.01,9.14-9.02,11-14.17,4.87.53,10.25,1.06,15.61,1.36Z"/>
        <path class="cls-4" d="m179.03,136.16l.13,2.37-45.54,6.92s16.3-14.94,17.53-16.14c.58-.57,1.22-1.02,1.88-1.13h0c.73-.13,1.5.16,2.29,1.13,1.74,2.16,8.3,7.65,23.7,6.85Z"/>
        <path class="cls-9" d="m113.62,120.87c1.93-.16,3.9-.41,5.89-.77.56,1.03,1.18,2.18,1.86,3.41h0c2.42,4.41,5.4,9.75,7.82,14.07,2.52,4.49,4.43,7.87,4.43,7.87l45.54-6.92c-1.86,5.15-6.28,10.16-11,14.17-6.13,5.2-12.75,8.72-14.96,8.72-3.92,0-36.26-16.42-36.26-16.42,0,0-29.7,16.42-31.32,16.85-1.61.42-3.4-.94-3.4-.94,0,0-1.94-3.89-4.32-8.78-3.26-6.7-7.36-15.28-8.45-18.28-1.87-5.19-5.83-8.32-5.83-8.32h-.01c4.37-3.68,7.91-7.91,9.8-12.69l.79.33s17.7,9.54,39.42,7.7Z"/>
        <path class="cls-9" d="m132.36,41.52c-.17.78-.38,1.55-.64,2.29-3.01,8.87-11.8,15.23-19.8,16.76-1.58.3-3.1.24-4.53-.06-2.94-.61-5.48-2.23-7.38-3.81h0c-2.24-1.87-3.58-3.68-3.58-3.68,2.32,1.47,4.54,2.3,6.39,2.02.68-.1,1.32-.25,1.93-.43h.01c11.97,2.46,19.03-7.44,23.12-12.55,0,0,1.76-.25,4.48-.54Z"/>
        <path class="cls-2" d="m110.72,35.66s3.82,1.31,6.92,3.21c.27.17.53.34.79.51,3.19,2.17,3.7,2.68,3.7,2.68h5.75c-4.09,5.11-11.15,15.01-23.12,12.55h-.01c-.61.18-1.25.33-1.93.43-1.85.28-4.07-.55-6.39-2.02-1.46-.94-2.96-2.12-4.43-3.45-5.51-4.99-10.54-11.96-11.4-14.78-1.44-4.77-1.36-7.75-1.36-7.75,0,0,11.32-1.02,14.04-5.87,5.2,6.3,12,14.49,12,14.49.34-2.75,1.32-5.51,2.64-5.73,1.32-.21,3.75.17,3.66,2.9-.04,1.29-.44,2.22-.86,2.83Zm-8.45,15.74c1.25-.62.77-2.38.65-2.75-.01-.05-.02-.07-.02-.07l-3.09.3-.51.61h-.4l-.5.92s2.48,1.68,3.87.99Zm-10.79-23.52c.89-.55,1.47-1.23,1.3-1.52-.18-.28-1.05-.06-1.94.49-.9.56-1.48,1.24-1.3,1.52.18.29,1.04.07,1.94-.49Zm-7.88,4.29c.87-.58,1.43-1.28,1.25-1.56-.19-.28-1.05-.03-1.92.55-.88.59-1.44,1.28-1.25,1.56.18.28,1.04.03,1.92-.55Z"/>
        <path class="cls-5" d="m107.37,18.92c-.15-.39-1.44-3.59-3.24-6.35-1.91-2.93-4.26-.87-4.26-.87,4.75,2.75,7.24,6.79,7.5,7.22Zm5.68,15.65c2.64,1.56,4.12,3.28,4.59,4.3-3.1-1.9-6.92-3.21-6.92-3.21.42-.61.82-1.54.86-2.83.09-2.73-2.34-3.11-3.66-2.9-1.32.22-2.3,2.98-2.64,5.73,0,0-6.8-8.19-12-14.49-2.72,4.85-14.04,5.87-14.04,5.87,0,0-1.21-1.64.45-4.38,1.66-2.75,3.89-4.79,3.89-4.79v-1.53h-2.04l.06-1.41h3.83v-2.23c-5.42-2.17-8.81-4.91-10.4-6.51-1.6-1.6-.7-4.21,1.08-4.21s11.17,2.49,13.85,4.59V.57s4.47-.7,7.98,2.43,10.41,10.85,11.56,16.53c.12,1.53.89,9.06.89,9.06,1.28,1.09,2.45,3.34,2.66,5.98Zm-15.68-25.64s2.23-1.59,3.13-1.34c-2.56-2.61-4.09-4.53-5.94-4.72-.06,3.38,0,4.72,0,4.72l2.81,1.34Z"/>
        <path class="cls-9" d="m107.39,60.51c-2.64,9.08-6.45,11.8-6.45,11.8-.52-7.53-.91-15.28-.93-15.61,1.9,1.58,4.44,3.2,7.38,3.81Z"/>
        <path class="cls-4" d="m102.92,48.65c.12.37.6,2.13-.65,2.75-1.39.69-3.87-.99-3.87-.99,2.36.46,4.32-1.36,4.52-1.76Z"/>
        <path class="cls-4" d="m102.9,48.58s0,.02.02.07c-.2.4-2.16,2.22-4.52,1.76l.5-.92h.4l.51-.61,3.09-.3Z"/>
        <path class="cls-9" d="m58.6,79.55h0c1.1-.78,1.75-1.23,1.75-1.23,8.93-5.15,10.69-16.66,10.69-16.66,9.88-5.88,20.96-12.09,20.96-12.09,1.47,1.33,2.97,2.51,4.43,3.45,0,0,1.34,1.81,3.58,3.67h0c.02.34.41,8.09.93,15.62.44,6.28.95,12.4,1.41,13.92-1.27-.49-12.51,1.94-19.51,3.83-2.14.58-3.88,1.1-4.82,1.48-.8.87-1.62,1.58-2.48,2.1-1.56,2.7,3.49,4.76,7.3,5.89,2.13.63,3.87.97,3.87.97-4.29,2.91-8.75,5.8-12.06,7.82,0,0-46.32,23.82-44.86,29.04-.7-1.45-.82-3.17-1.1-4.28-.77-3.06.64-30.64,2.68-33.32,1.01-1.33,8.12-6.59,15.03-11.56,4.9-3.53,9.7-6.91,12.2-8.65Z"/>
        <path class="cls-4" d="m82.84,90.06c7-1.89,18.24-4.32,19.51-3.83-.9,2.3-1.69,3.96-1.69,3.96-.71.86-3.6,3.07-7.36,5.74-2.02,1.43-4.28,3-6.59,4.57,0,0-1.74-.34-3.87-.97v-9.47Z"/>
        <path class="cls-5" d="m92.78,26.36c.17.29-.41.97-1.3,1.52-.9.56-1.76.78-1.94.49-.18-.28.4-.96,1.3-1.52.89-.55,1.76-.77,1.94-.49Z"/>
        <path class="cls-5" d="m84.85,30.61c.18.28-.38.98-1.25,1.56-.88.58-1.74.83-1.92.55-.19-.28.37-.97,1.25-1.56.87-.58,1.73-.83,1.92-.55Z"/>
        <path class="cls-4" d="m82.84,90.06v9.47c-3.81-1.13-8.86-3.19-7.3-5.89.86-.52,1.68-1.23,2.48-2.1.94-.38,2.68-.9,4.82-1.48Z"/>
        <path class="cls-4" d="m62.49,144.39h0c-10.89,4.13-23.03-5.24-23.03-5.24.95-.32,2-.72,3.15-1.22,7.04-3.05,14.84-7.18,21.01-12.41h.01s3.96,3.14,5.83,8.33c1.09,3,5.19,11.58,8.45,18.28l-1.25-.48c-3.86,0-9.46-3.59-14.16-7.26Z"/>
        <path class="cls-4" d="m74.65,108.32c-.24,1.56-.66,3.06-1.24,4.52-1.89,4.78-5.43,9.01-9.8,12.68-6.17,5.23-13.97,9.36-21.01,12.41-1.15.5-2.2.9-3.15,1.22-6.14,2.02-8.54.48-9.62-1.69-.01-.03-.03-.06-.04-.1-1.46-5.22,44.86-29.04,44.86-29.04Z"/>
        <path class="cls-4" d="m71.04,61.66s-1.76,11.51-10.69,16.66c0,0-.65.45-1.75,1.22h0c-2.5,1.75-7.3,5.13-12.2,8.66l-.22-.31c.64-2.04,6.51-12.89,10.08-16.59,1.48-1.54,7.83-5.51,14.78-9.64Z"/>
      </g>
      <g>
        <path class="cls-13" d="m104.75,54.61c-.61.18-1.25.33-1.93.43-1.85.28-4.07-.55-6.39-2.02-1.46-.94-2.96-2.12-4.43-3.45-5.51-4.99-10.54-11.96-11.4-14.78-1.44-4.77-1.36-7.75-1.36-7.75,0,0,11.32-1.02,14.04-5.87,5.2,6.3,12,14.49,12,14.49.34-2.75,1.32-5.51,2.64-5.73,1.32-.21,3.75.17,3.66,2.9-.04,1.29-.44,2.22-.86,2.83-.46.69-.93,1-.93,1"/>
        <path class="cls-13" d="m113.62,47.64s-2.8,5.19-8.86,6.97"/>
        <path class="cls-13" d="m110.72,35.66s3.82,1.31,6.92,3.21c.27.17.53.34.79.51,3.19,2.17,3.7,2.68,3.7,2.68h5.75c-4.09,5.11-11.15,15.01-23.12,12.55h-.01"/>
        <path class="cls-13" d="m87.28,43.04s1.79-.6,2.26-1.15"/>
        <path class="cls-13" d="m95.88,37s3.53-1.02,4.13-2.43"/>
        <path class="cls-13" d="m90.43,38.87s4.73,8.26,5.11,8.81,2.4-2,2.4-2"/>
        <line class="cls-13" x1="98.52" y1="44.83" x2="98.99" y2="45.33"/>
        <path class="cls-11" d="m98.4,50.41l.5-.92h.4l.51-.61,3.09-.3s0,.02.02.07c.12.37.6,2.13-.65,2.75-1.39.69-3.87-.99-3.87-.99Z"/>
        <path class="cls-12" d="m98.4,50.41c2.36.46,4.32-1.36,4.52-1.76"/>
        <path class="cls-13" d="m79.24,27.04s-1.21-1.64.45-4.38c1.66-2.75,3.89-4.79,3.89-4.79v-1.53h-2.04l.06-1.41h3.83v-2.23c-5.42-2.17-8.81-4.91-10.4-6.51-1.6-1.6-.7-4.21,1.08-4.21s11.17,2.49,13.85,4.59V.57s4.47-.7,7.98,2.43,10.41,10.85,11.56,16.53c.12,1.53.89,9.06.89,9.06,1.28,1.09,2.45,3.34,2.66,5.98,2.64,1.56,4.12,3.28,4.59,4.3"/>
        <path class="cls-13" d="m94.56,7.59l2.81,1.34s2.23-1.59,3.13-1.34c-2.56-2.61-4.09-4.53-5.94-4.72-.06,3.38,0,4.72,0,4.72Z"/>
        <path class="cls-13" d="m107.37,18.92s.01.02.01.03h.01"/>
        <path class="cls-13" d="m107.37,18.92c-.26-.43-2.75-4.47-7.5-7.22,0,0,2.35-2.06,4.26.87,1.8,2.76,3.09,5.96,3.24,6.35Z"/>
        <path class="cls-13" d="m92,49.57s-11.08,6.21-20.96,12.09c-6.95,4.13-13.3,8.1-14.78,9.64-3.57,3.7-9.44,14.55-10.08,16.59"/>
        <path class="cls-13" d="m29.83,137.46s.04.08.06.12"/>
        <path class="cls-13" d="m74.65,108.32s-46.32,23.82-44.86,29.04"/>
        <path class="cls-13" d="m39.45,139.15s12.14,9.37,23.03,5.25"/>
        <path class="cls-13" d="m53.71,136.74s3.9,3.86,8.78,7.65c4.7,3.67,10.3,7.26,14.16,7.26.13,0,.25,0,.38,0"/>
        <path class="cls-13" d="m63.62,125.53s3.96,3.13,5.83,8.32c1.09,3,5.19,11.58,8.45,18.28,2.38,4.89,4.32,8.78,4.32,8.78,0,0,1.79,1.36,3.4.94,1.62-.43,31.32-16.85,31.32-16.85,0,0,32.34,16.42,36.26,16.42,2.21,0,8.83-3.52,14.96-8.72,4.72-4.01,9.14-9.02,11-14.17,4.87.53,10.25,1.06,15.61,1.36,2.01.11,4.02.2,6,.23,12.23.24,23.2-1.19,26.17-7.04-1.14-3.35-2.44-8.08-4.71-12.98-4.09-8.9-11.32-18.39-26.31-21.36-3.5-7.27-8.8-16.77-14.29-25.91-2.22-3.7-4.47-7.33-6.65-10.73-6.15-9.63-11.71-17.39-14.29-19.4-4.28-3.33-20.39-2.05-28.33-1.18-2.72.29-4.48.54-4.48.54"/>
        <path class="cls-13" d="m215.06,62.19c-1.83-1.14-4.04-1.99-6.63-3.02,0,0-3.83-6.64-9.32-8.68-5.49-2.05-24.12,11.61-24.12,11.61,0,0,29.52-5.31,33.44-2.93"/>
        <path class="cls-13" d="m222.24,120.1c7.93-2.89,13.26-13.06,15.3-16.38s-.26-4.98-4.6-5.36c0,0,3.45-14.43,1.54-24.38,0,0-6.13-2.68-14.81-6.26-1.01-2.62-2.55-4.25-4.58-5.52"/>
        <path class="cls-13" d="m203.5,71.7c-.1.36-.2.74-.3,1.13-2.29,9.35-1.23,20.13,11.93,24.12,4.44,1.35,10.27,1.93,17.81,1.41"/>
        <path class="cls-13" d="m215.09,62.2s-.01,0-.03,0c-.53-.1-8.37-1.37-11.55,9.51"/>
        <line class="cls-13" x1="219.67" y1="67.72" x2="221.28" y2="73.59"/>
        <path class="cls-13" d="m203.5,71.7h.01c.35.06,9.19,1.41,17.75,2.12,5.13.42,10.17.61,13.22.16"/>
        <path class="cls-13" d="m181.63,72.83h21.57s12.76,6.96,11.93,24.12"/>
        <path class="cls-13" d="m165.45,63.72v4s-28.93,18.26-28.59,33.51"/>
        <path class="cls-13" d="m136.86,63.72l12.93-12.15,1.36,8.75s-33.27,13.74-23.27,40.91"/>
        <path class="cls-13" d="m100.01,56.7c1.9,1.58,4.44,3.2,7.38,3.81,1.43.3,2.95.36,4.53.06,8-1.53,16.79-7.89,19.8-16.76.26-.74.47-1.51.64-2.29"/>
        <path class="cls-13" d="m96.43,53.02s1.34,1.81,3.58,3.67"/>
        <path class="cls-13" d="m131.72,43.81s4.2,2.66,3.18,6.27c-1.02,3.6-14.68,19.81-15.32,37.17-.64,17.36,3.32,18.9,3.32,18.9,0,0,4.23-6.39,9.46-5.62,5.22.77,12.37,2.81,15.94,3.57,3.58.77,38.56,3.96,41.75,3.2"/>
        <path class="cls-13" d="m152.39,100.15s26.43-5.88,28.6-6.51"/>
        <path class="cls-13" d="m90.43,60.77s-4.78,22.45-12.41,30.77c-.8.87-1.62,1.58-2.48,2.1-1.56,2.7,3.49,4.76,7.3,5.89,2.13.63,3.87.97,3.87.97"/>
        <path class="cls-13" d="m100.01,56.69h0c.02.34.41,8.09.93,15.62.44,6.28.95,12.4,1.41,13.92"/>
        <path class="cls-13" d="m100.94,72.31s3.81-2.72,6.45-11.8"/>
        <path class="cls-13" d="m93.3,95.93l1.23,2.62s-1.47,6.69-1.23,10.65"/>
        <line class="cls-13" x1="82.84" y1="90.06" x2="82.84" y2="99.53"/>
        <path class="cls-13" d="m153.04,128.18c.73-.13,1.5.16,2.29,1.13,1.74,2.16,8.3,7.65,23.7,6.85,1.99-.1,4.13-.31,6.42-.65,20.05-2.94,30.9-4.85,41.49-2.43"/>
        <path class="cls-13" d="m121.37,123.52c2.42,4.4,5.4,9.74,7.82,14.06,2.52,4.49,4.43,7.87,4.43,7.87,0,0,16.3-14.94,17.53-16.14.58-.57,1.22-1.02,1.88-1.13"/>
        <path class="cls-13" d="m74.2,113.17s17.7,9.54,39.42,7.7c1.93-.16,3.9-.41,5.89-.77.56,1.03,1.18,2.18,1.86,3.41"/>
        <line class="cls-13" x1="133.62" y1="145.45" x2="179.16" y2="138.53"/>
        <path class="cls-13" d="m129.19,137.58s-6.56.35-9.68,5.21"/>
        <path class="cls-13" d="m75.25,120.1s16.99,16.4,18.02,19.99c8.69-2.41,25.27-9.55,28.1-16.57h0"/>
        <path class="cls-13" d="m89.07,127.59s20.13.22,24.55-6.72"/>
        <path class="cls-13" d="m126.01,118.4s16.67,9.88,27.02,9.78h0"/>
        <path class="cls-13" d="m184.53,149.1c3.69-1.91,7.37-4.81,10.24-9.21"/>
        <path class="cls-13" d="m168.16,152.7s8.23.6,16.36-3.6"/>
        <path class="cls-13" d="m184.52,149.1h.01c.33.01,8.61.04,16.24-8.92"/>
        <line class="cls-13" x1="195.92" y1="98.74" x2="200.77" y2="118.4"/>
        <path class="cls-13" d="m58.6,79.55c-.13.53-4.7,19.23-8.72,21.68"/>
        <path class="cls-13" d="m71.04,61.66s-1.76,11.51-10.69,16.66c0,0-.65.45-1.75,1.22h0c-2.5,1.75-7.3,5.13-12.2,8.66-6.91,4.97-14.02,10.23-15.03,11.56-2.04,2.68-3.45,30.26-2.68,33.32.28,1.11.4,2.83,1.1,4.28.01.04.03.07.04.1,1.08,2.17,3.48,3.71,9.62,1.69.95-.32,2-.72,3.15-1.22,7.04-3.05,14.84-7.18,21.01-12.41,4.37-3.67,7.91-7.9,9.8-12.68.58-1.46,1-2.96,1.24-4.52,3.31-2.02,7.77-4.91,12.06-7.82,2.31-1.57,4.57-3.14,6.59-4.57,3.76-2.67,6.65-4.88,7.36-5.74,0,0,.79-1.66,1.69-3.96-1.27-.49-12.51,1.94-19.51,3.83-2.14.58-3.88,1.1-4.82,1.48"/>
        <path class="cls-13" d="m92.78,26.36c.17.29-.41.97-1.3,1.52-.9.56-1.76.78-1.94.49-.18-.28.4-.96,1.3-1.52.89-.55,1.76-.77,1.94-.49Z"/>
        <path class="cls-13" d="m84.85,30.61c.18.28-.38.98-1.25,1.56-.88.58-1.74.83-1.92.55-.19-.28.37-.97,1.25-1.56.87-.58,1.73-.83,1.92-.55Z"/>
      </g>
    </g>
  </g>
</svg>