<svg xmlns="http://www.w3.org/2000/svg" xml:space="preserve" id="レイヤー_1" x="0" y="0" style="enable-background:new 0 0 270 215" version="1.1" viewBox="0 0 270 215"><style>.st0{fill:#f8ffea}.st1{fill:#fc4939}.st3{fill:#fffada}.st4{fill:#8be1ff}.st5{fill:none;stroke:#000;stroke-miterlimit:10}.st6{fill:#fc5c42}.st7{fill:#9e72af}.st9{fill:#333}.st10{fill:none;stroke:#000;stroke-linecap:round;stroke-linejoin:round}</style><g id="_レイヤー_3"><path d="M270 169.3v5.2l-8.4-5.2zM241.7 174.5h14v40h-14zM252.7 169.3l3 5.2h-14l-3-5.2zM217.9 174.5h10.8v40h-10.8zM225.8 169.3l3 5.2h-10.9l-3-5.2zM194.2 174.5H205v40h-10.8zM202 169.3l3 5.2h-10.8l-3-5.2zM170.4 174.5h10.8v40h-10.8zM178.2 169.3l3 5.2h-10.8l-3-5.2zM146.6 174.5h10.8v40h-10.8zM154.4 169.3l3 5.2h-10.8l-3-5.2zM122.8 174.5h10.8v40h-10.8zM130.6 169.3l3 5.2h-10.8l-3-5.2zM99 174.5h10.8v40H99zM106.8 169.3l3 5.2H99l-3-5.2zM75.2 174.5H86v40H75.2zM83 169.3l3 5.2H75.2l-3-5.2zM51.4 174.5h10.8v40H51.4zM59.3 169.3l2.9 5.2H51.4l-2.9-5.2zM27.7 174.5h10.8v40H27.7zM35.5 169.3l3 5.2H27.7l-3-5.2zM0 174.5h14.7v40H0zM11.7 169.3l3 5.2H0v-5.2z" class="st0"/><path d="M255.7 174.5H270v40h-14.3z" class="st1"/><path d="M270 107.4v61.9H0v-61.6z" style="fill:#eeffb6"/><path d="M270 106.7v.7l-270 .3 37-.3 217.2-.7z" class="st3"/><path d="M270 100.6v6.1h-15.8l-217.2.7-37 .3v-7.1z" class="st3"/><path d="M270 174.5h-14.3l-3-5.2h8.9z" class="st1"/><path d="M228.8 174.5h13v40h-13zM238.7 169.3l3 5.2h-12.9l-3-5.2z" class="st4"/><path d="M205 174.5h13v40h-13zM214.9 169.3l3 5.2H205l-3-5.2z" class="st1"/><path d="M181.2 174.5h13v40h-13zM191.2 169.3l3 5.2h-13l-3-5.2z" class="st4"/><path d="M157.4 174.5h13v40h-13zM167.4 169.3l3 5.2h-13l-3-5.2z" class="st1"/><path d="M133.6 174.5h13v40h-13zM143.6 169.3l3 5.2h-13l-3-5.2z" class="st4"/><path d="M109.8 174.5h13v40h-13zM119.8 169.3l3 5.2h-13l-3-5.2z" class="st1"/><path d="M86 174.5h13v40H86zM96 169.3l3 5.2H86l-3-5.2z" class="st4"/><path d="M62.2 174.5h13v40h-13zM72.2 169.3l3 5.2h-13l-2.9-5.2z" class="st1"/><path d="M38.5 174.5h13v40h-13zM48.5 169.3l2.9 5.2H38.5l-3-5.2z" class="st4"/><path d="M14.7 174.5h13v40h-13zM24.7 169.3l3 5.2h-13l-3-5.2z" class="st1"/><path d="M0 169.4h261.1l8.7 5.3M270 214.5H0" class="st5"/><path d="m252.3 169.4 3 5.2v39.9M238.3 169.4l3 5.2v39.9M225.4 169.4l3 5.2v39.9M214.6 169.4l3 5.2v39.9M201.6 169.4l3 5.2v39.9M190.8 169.4l3 5.2v39.9M177.9 169.4l3 5.2v39.9M167.1 169.4l3 5.2v39.9M154.1 169.4l3 5.2v39.9M143.4 169.4l2.9 5.2v39.9M130.4 169.4l3 5.2v39.9M119.6 169.4l3 5.2v39.9M106.6 169.4l3 5.2v39.9M95.9 169.4l2.9 5.2v39.9M82.9 169.4l3 5.2v39.9M72.1 169.4l3 5.2v39.9M59.2 169.4l2.9 5.2v39.9M48.4 169.4l2.9 5.2v39.9M35.4 169.4l3 5.2v39.9M24.6 169.4l3 5.2v39.9M11.7 169.4l2.9 5.2v39.9M269.5 174.6H0M261.1 169.4h8.9M0 100.8h270M0 107.4h270" class="st5"/></g><g id="_レイヤー_2"><path d="M232.9 98.4c4.3.4 6.6 2 4.6 5.4s-7.4 13.5-15.3 16.4c-4.1-8.9-11.3-18.4-26.3-21.4-3.5-7.3-8.8-16.8-14.3-25.9h21.6C200.9 82.2 202 93 215.1 97c4.5 1.3 10.3 1.9 17.8 1.4z" class="st6"/><path d="M234.5 74c1.9 9.9-1.5 24.4-1.5 24.4-7.5.5-13.4-.1-17.8-1.4.8-17.2-11.9-24.1-11.9-24.1.1-.4.2-.8.3-1.1.4.1 9.2 1.4 17.8 2.1 5 .3 10 .5 13.1.1z" class="st6"/><path d="M219.7 67.7c8.7 3.6 14.8 6.3 14.8 6.3-3.1.4-8.1.3-13.2-.2v-.2l-1.6-5.9z" class="st6"/><path d="M93.3 95.9c3.8-2.7 6.7-4.9 7.4-5.7 0 0 .8-1.7 1.7-4-.5-1.5-1-7.6-1.4-13.9 0 0 3.8-2.7 6.4-11.8 1.4.3 2.9.4 4.5.1 8-1.5 16.8-7.9 19.8-16.8.3-.7.5-1.5.6-2.3 7.9-.9 24.1-2.2 28.3 1.2 2.6 2 8.1 9.8 14.3 19.4 2.2 3.4 4.4 7 6.6 10.7 5.5 9.1 10.8 18.6 14.3 25.9 15 3 22.2 12.5 26.3 21.4 2.3 4.9 3.6 9.6 4.7 13-10.6-2.4-21.4-.5-41.5 2.4-2.3.3-4.4.6-6.4.6-15.4.8-22-4.7-23.7-6.9-.8-1-1.6-1.3-2.3-1.1-.7.1-1.3.6-1.9 1.1-1.2 1.2-17.5 16.1-17.5 16.1s-1.9-3.4-4.4-7.9c-2.4-4.3-5.4-9.7-7.8-14.1-.7-1.2-1.3-2.4-1.9-3.4-2 .4-4 .6-5.9.8-21.7 1.8-39.4-7.7-39.4-7.7l-.8-.3c.6-1.5 1-3 1.2-4.5 3.3-2 7.8-4.9 12.1-7.8 2.4-1.5 4.7-3 6.7-4.5z" class="st7"/><path d="m219.7 67.7 1.6 5.9v.2c-8.6-.7-17.4-2.1-17.8-2.1 3.2-10.9 11-9.6 11.6-9.5 2 1.3 3.6 2.9 4.6 5.5zM185.4 135.5c20.1-2.9 30.9-4.9 41.5-2.4-3 5.9-13.9 7.3-26.2 7-2 0-4-.1-6-.2-5.4-.3-10.7-.8-15.6-1.4l-.1-2.4c2 0 4.2-.2 6.4-.6zM203.2 72.8s12.8 7 11.9 24.1C202 93 200.9 82.2 203.2 72.8z" class="st6"/><path d="M215.1 62.2c-.5-.1-8.4-1.4-11.6 9.5-.1.4-.2.7-.3 1.1h-21.6c-2.2-3.7-4.5-7.3-6.6-10.7 0 0 29.5-5.3 33.4-2.9 2.6 1 4.8 1.8 6.7 3z" class="st6"/><path d="M199.1 50.5c5.5 2 9.3 8.7 9.3 8.7-3.9-2.4-33.4 2.9-33.4 2.9s18.6-13.7 24.1-11.6zM200.8 140.1c-7.6 9-15.9 9-16.2 9 3.7-1.9 7.4-4.8 10.2-9.2 2 .1 4 .2 6 .2z" class="st6"/><path d="M194.8 139.9c-2.9 4.4-6.6 7.3-10.2 9.2-8.1 4.2-16.4 3.6-16.4 3.6 4.7-4 9.1-9 11-14.2 4.8.6 10.2 1.1 15.6 1.4zM179 136.2l.1 2.4-45.5 6.9s16.3-14.9 17.5-16.1c.6-.6 1.2-1 1.9-1.1.7-.1 1.5.2 2.3 1.1 1.8 2.1 8.3 7.6 23.7 6.8z" class="st6"/><path d="M113.6 120.9c1.9-.2 3.9-.4 5.9-.8.6 1 1.2 2.2 1.9 3.4 2.4 4.4 5.4 9.8 7.8 14.1 2.5 4.5 4.4 7.9 4.4 7.9l45.5-6.9c-1.9 5.1-6.3 10.2-11 14.2-6.1 5.2-12.8 8.7-15 8.7-3.9 0-36.3-16.4-36.3-16.4S87.1 161.5 85.5 162c-1.6.4-3.4-.9-3.4-.9s-1.9-3.9-4.3-8.8c-3.3-6.7-7.4-15.3-8.4-18.3-1.9-5.2-5.8-8.3-5.8-8.3 4.4-3.7 7.9-7.9 9.8-12.7l.8.3c0-.1 17.7 9.4 39.4 7.6zM132.4 41.5c-.2.8-.4 1.5-.6 2.3-3 8.9-11.8 15.2-19.8 16.8-1.6.3-3.1.2-4.5-.1-2.9-.6-5.5-2.2-7.4-3.8-2.2-1.9-3.6-3.7-3.6-3.7 2.3 1.5 4.5 2.3 6.4 2 .7-.1 1.3-.2 1.9-.4 12 2.5 19-7.4 23.1-12.5 0 0 1.7-.3 4.5-.6z" class="st7"/><path d="M110.7 35.7s3.8 1.3 6.9 3.2c.3.2.5.3.8.5 3.2 2.2 3.7 2.7 3.7 2.7h5.8c-4.1 5.1-11.2 15-23.1 12.5-.6.2-1.2.3-1.9.4-1.8.3-4.1-.5-6.4-2-1.5-.9-3-2.1-4.4-3.5-5.5-5-10.5-12-11.4-14.8-1.5-4.7-1.5-7.7-1.5-7.7s11.3-1 14-5.9c5.2 6.3 12 14.5 12 14.5.3-2.8 1.3-5.5 2.6-5.7 1.3-.2 3.8.2 3.7 2.9 0 1.3-.4 2.2-.8 2.9zm-8.4 15.7c1.2-.6.8-2.4.7-2.8v-.1l-3.1.3-.5.6H99l-.5.9c-.1.1 2.4 1.8 3.8 1.1zM91.5 27.9c.9-.5 1.5-1.2 1.3-1.5-.2-.3-1.1-.1-1.9.5-.9.6-1.5 1.2-1.3 1.5.1.3 1 0 1.9-.5zm-7.9 4.3c.9-.6 1.4-1.3 1.2-1.6-.2-.3-1.1 0-1.9.5-.9.6-1.4 1.3-1.2 1.6.2.3 1 .1 1.9-.5z" style="fill:#f9dbbd"/><path d="M107.4 18.9c-.2-.4-1.4-3.6-3.2-6.4-1.9-2.9-4.3-.9-4.3-.9 4.7 2.8 7.2 6.9 7.5 7.3zm5.7 15.7c2.6 1.6 4.1 3.3 4.6 4.3-3.1-1.9-6.9-3.2-6.9-3.2.4-.6.8-1.5.9-2.8.1-2.7-2.3-3.1-3.7-2.9-1.3.2-2.3 3-2.6 5.7 0 0-6.8-8.2-12-14.5-2.7 4.9-14 5.9-14 5.9s-1.2-1.6.4-4.4c1.7-2.8 3.9-4.8 3.9-4.8v-1.5h-2l.1-1.4h3.8v-2.2c-5.6-2.3-9-5-10.6-6.6-1.6-1.6-.7-4.2 1.1-4.2S87.3 4.5 90 6.6v-6s4.5-.7 8 2.4 10.4 10.9 11.6 16.5c.1 1.5.9 9.1.9 9.1 1.2 1.1 2.3 3.3 2.6 6zM97.4 8.9s2.2-1.6 3.1-1.3c-2.6-2.6-4.1-4.5-5.9-4.7-.1 3.4 0 4.7 0 4.7l2.8 1.3z" class="st9"/><path d="M107.4 60.5c-2.6 9.1-6.4 11.8-6.4 11.8-.5-7.5-.9-15.3-.9-15.6 1.8 1.6 4.4 3.2 7.3 3.8z" class="st7"/><path d="M102.9 48.7c.1.4.6 2.1-.7 2.8-1.4.7-3.9-1-3.9-1 2.5.4 4.4-1.5 4.6-1.8z" class="st6"/><path d="M102.9 48.6c-.2.5-2.1 2.3-4.5 1.8l.5-.9h.4l.5-.6 3.1-.3z" class="st6"/><path d="M58.6 79.6c1.1-.8 1.8-1.2 1.8-1.2C69.3 73.2 71 61.7 71 61.7c9.9-5.9 21-12.1 21-12.1 1.5 1.3 3 2.5 4.4 3.5 0 0 1.3 1.8 3.6 3.7 0 .3.4 8.1.9 15.6.4 6.3.9 12.4 1.4 13.9-1.3-.5-12.5 1.9-19.5 3.8-2.1.6-3.9 1.1-4.8 1.5-.8.9-1.6 1.6-2.5 2.1-1.6 2.7 3.5 4.8 7.3 5.9 2.1.6 3.9 1 3.9 1-4.3 2.9-8.8 5.8-12.1 7.8 0 0-46.3 23.8-44.9 29-.7-1.4-.8-3.2-1.1-4.3-.8-3.1.6-30.6 2.7-33.3 1-1.3 8.1-6.6 15-11.6 5-3.5 9.8-6.9 12.3-8.6z" class="st7"/><path d="M82.8 90.1c7-1.9 18.2-4.3 19.5-3.8-.9 2.3-1.7 4-1.7 4-.7.9-3.6 3.1-7.4 5.7-2 1.4-4.3 3-6.6 4.6 0 0-1.7-.3-3.9-1 .1-.1.1-9.5.1-9.5z" class="st6"/><path d="M92.8 26.4c.2.3-.4 1-1.3 1.5-.9.6-1.8.8-1.9.5-.2-.3.4-1 1.3-1.5.8-.6 1.7-.8 1.9-.5zM84.8 30.6c.2.3-.4 1-1.2 1.6-.9.6-1.7.8-1.9.5-.2-.3.4-1 1.2-1.6.9-.5 1.8-.8 1.9-.5z" class="st9"/><path d="M82.8 90.1v9.5c-3.8-1.1-8.9-3.2-7.3-5.9.9-.5 1.7-1.2 2.5-2.1 1-.4 2.7-1 4.8-1.5zM62.5 144.4c-10.9 4.1-23-5.2-23-5.2 1-.3 2-.7 3.2-1.2 7-3.1 14.8-7.2 21-12.4 0 0 4 3.1 5.8 8.3 1.1 3 5.2 11.6 8.4 18.3l-1.2-.5c-3.9-.1-9.5-3.6-14.2-7.3z" class="st6"/><path d="M74.7 108.3c-.2 1.6-.7 3.1-1.2 4.5-1.9 4.8-5.4 9-9.8 12.7-6.2 5.2-14 9.4-21 12.4-1.2.5-2.2.9-3.2 1.2-6.1 2-8.5.5-9.6-1.7v-.1c-1.6-5.2 44.8-29 44.8-29zM71 61.7s-1.8 11.5-10.7 16.7c0 0-.7.4-1.8 1.2-2.5 1.8-7.3 5.1-12.2 8.7l-.2-.3c.6-2 6.5-12.9 10.1-16.6 1.5-1.6 7.9-5.6 14.8-9.7z" class="st6"/><path d="M104.8 54.6c-.6.2-1.2.3-1.9.4-1.8.3-4.1-.5-6.4-2-1.5-.9-3-2.1-4.4-3.5-5.5-5-10.5-12-11.4-14.8-1.5-4.7-1.5-7.7-1.5-7.7s11.3-1 14-5.9c5.2 6.3 12 14.5 12 14.5.3-2.8 1.3-5.5 2.6-5.7 1.3-.2 3.8.2 3.7 2.9 0 1.3-.4 2.2-.9 2.8-.5.7-.9 1-.9 1" class="st10"/><path d="M113.6 47.6s-2.8 5.2-8.9 7" class="st10"/><path d="M110.7 35.7s3.8 1.3 6.9 3.2c.3.2.5.3.8.5 3.2 2.2 3.7 2.7 3.7 2.7h5.8c-4.1 5.1-11.2 15-23.1 12.5h0M87.3 43s1.8-.6 2.3-1.2M95.9 37s3.5-1 4.1-2.4M90.4 38.9s4.7 8.3 5.1 8.8 2.4-2 2.4-2M98.5 44.8l.5.5" class="st10"/><path d="m98.4 50.4.5-.9h.4l.5-.6 3.1-.3v.1c.1.4.6 2.1-.7 2.8-1.3.6-3.8-1.1-3.8-1.1z" style="fill:none;stroke:#000;stroke-width:.75;stroke-linecap:round;stroke-linejoin:round"/><path d="M98.4 50.4c2.4.5 4.3-1.4 4.5-1.8" style="fill:none;stroke:#000;stroke-width:.5;stroke-linecap:round;stroke-linejoin:round"/><path d="M79.2 27s-1.2-1.6.4-4.4c1.7-2.8 3.9-4.8 3.9-4.8v-1.5h-2l.1-1.4h3.8v-2.2C80 10.5 76.6 7.8 75 6.2 73.4 4.6 74.3 2 76.1 2S87.3 4.5 90 6.6v-6s4.5-.7 8 2.4 10.4 10.9 11.6 16.5c.1 1.5.9 9.1.9 9.1 1.3 1.1 2.4 3.3 2.7 6 2.6 1.6 4.1 3.3 4.6 4.3" class="st10"/><path d="m94.6 7.6 2.8 1.3s2.2-1.6 3.1-1.3c-2.6-2.6-4.1-4.5-5.9-4.7-.1 3.4 0 4.7 0 4.7zM107.4 18.9s0 0 0 0h0M107.4 18.9c-.3-.4-2.8-4.5-7.5-7.2 0 0 2.3-2.1 4.3.9 1.7 2.7 3 5.9 3.2 6.3zM92 49.6s-11.1 6.2-21 12.1c-6.9 4.1-13.3 8.1-14.8 9.6-3.6 3.7-9.4 14.6-10.1 16.6M29.8 137.5s0 .1.1.1M74.7 108.3s-46.3 23.8-44.9 29M39.5 139.1s12.1 9.4 23 5.2" class="st10"/><path d="M53.7 136.7s3.9 3.9 8.8 7.6c4.7 3.7 10.3 7.3 14.2 7.3h.4M63.6 125.5s4 3.1 5.8 8.3c1.1 3 5.2 11.6 8.4 18.3 2.4 4.9 4.3 8.8 4.3 8.8s1.8 1.4 3.4.9c1.6-.4 31.3-16.9 31.3-16.9s32.3 16.4 36.3 16.4c2.2 0 8.8-3.5 15-8.7 4.7-4 9.1-9 11-14.2 4.9.5 10.2 1.1 15.6 1.4 2 .1 4 .2 6 .2 12.2.2 23.2-1.2 26.2-7-1.1-3.4-2.4-8.1-4.7-13-4.1-8.9-11.3-18.4-26.3-21.4-3.5-7.3-8.8-16.8-14.3-25.9-2.2-3.7-4.5-7.3-6.6-10.7-6.1-9.6-11.7-17.4-14.3-19.4-4.3-3.3-20.4-2-28.3-1.2l-4.5.5" class="st10"/><path d="M215.1 62.2c-1.8-1.1-4-2-6.6-3 0 0-3.8-6.6-9.3-8.7-5.5-2-24.1 11.6-24.1 11.6s29.5-5.3 33.4-2.9" class="st10"/><path d="M222.2 120.1c7.9-2.9 13.3-13.1 15.3-16.4s-.3-5-4.6-5.4c0 0 3.4-14.4 1.5-24.4 0 0-6.1-2.7-14.8-6.3-1-2.6-2.6-4.2-4.6-5.5" class="st10"/><path d="M203.5 71.7c-.1.4-.2.7-.3 1.1-2.3 9.3-1.2 20.1 11.9 24.1 4.4 1.3 10.3 1.9 17.8 1.4M215.1 62.2s0 0 0 0c-.6-.1-8.4-1.4-11.6 9.5M219.7 67.7l1.6 5.9M203.5 71.7h0c.4.1 9.2 1.4 17.8 2.1 5.1.4 10.2.6 13.2.2" class="st10"/><path d="M181.6 72.8h21.6s12.8 7 11.9 24.1M165.4 63.7v4s-28.9 18.3-28.6 33.5M136.9 63.7l12.9-12.2 1.4 8.8s-33.3 13.7-23.3 40.9M100 56.7c1.9 1.6 4.4 3.2 7.4 3.8 1.4.3 2.9.4 4.5.1 8-1.5 16.8-7.9 19.8-16.8.3-.7.5-1.5.6-2.3M96.4 53s1.3 1.8 3.6 3.7" class="st10"/><path d="M131.7 43.8s4.2 2.7 3.2 6.3c-1 3.6-14.7 19.8-15.3 37.2s3.3 18.9 3.3 18.9 4.2-6.4 9.5-5.6c5.2.8 12.4 2.8 15.9 3.6 3.6.8 38.6 4 41.8 3.2" class="st10"/><path d="M152.4 100.2s26.4-5.9 28.6-6.5M90.4 60.8S85.6 83.3 78 91.6c-.8.9-1.6 1.6-2.5 2.1-1.6 2.7 3.5 4.8 7.3 5.9 2.1.6 3.9 1 3.9 1M100 56.7h0c0 .3.4 8.1.9 15.6.4 6.3.9 12.4 1.4 13.9" class="st10"/><path d="M100.9 72.3s3.8-2.7 6.4-11.8M93.3 95.9l1.2 2.6s-1.5 6.7-1.2 10.7M82.8 90.1v9.4M153 128.2c.7-.1 1.5.2 2.3 1.1 1.7 2.2 8.3 7.6 23.7 6.9 2-.1 4.1-.3 6.4-.6 20.1-2.9 30.9-4.9 41.5-2.4M121.4 123.5c2.4 4.4 5.4 9.7 7.8 14.1 2.5 4.5 4.4 7.9 4.4 7.9s16.3-14.9 17.5-16.1c.6-.6 1.2-1 1.9-1.1M74.2 113.2s17.7 9.5 39.4 7.7c1.9-.2 3.9-.4 5.9-.8.6 1 1.2 2.2 1.9 3.4M133.6 145.4l45.6-6.9M129.2 137.6s-6.6.4-9.7 5.2M75.2 120.1s17 16.4 18 20c8.7-2.4 25.3-9.6 28.1-16.6h0" class="st10"/><path d="M89.1 127.6s20.1.2 24.5-6.7M126 118.4s16.7 9.9 27 9.8h0M184.5 149.1c3.7-1.9 7.4-4.8 10.2-9.2M168.2 152.7s8.2.6 16.4-3.6" class="st10"/><path d="M184.5 149.1h0c.3 0 8.6 0 16.2-8.9M195.9 98.7l4.9 19.7M58.6 79.6c-.1.5-4.7 19.2-8.7 21.7" class="st10"/><path d="M71 61.7s-1.8 11.5-10.7 16.7c0 0-.7.4-1.8 1.2h0c-2.5 1.8-7.3 5.1-12.2 8.7-6.9 5-14 10.2-15 11.6-2 2.7-3.5 30.3-2.7 33.3.3 1.1.4 2.8 1.1 4.3v.1c1.1 2.2 3.5 3.7 9.6 1.7 1-.3 2-.7 3.2-1.2 7-3.1 14.8-7.2 21-12.4 4.4-3.7 7.9-7.9 9.8-12.7.6-1.5 1-3 1.2-4.5 3.3-2 7.8-4.9 12.1-7.8 2.3-1.6 4.6-3.1 6.6-4.6 3.8-2.7 6.7-4.9 7.4-5.7 0 0 .8-1.7 1.7-4-1.3-.5-12.5 1.9-19.5 3.8-2.1.6-3.9 1.1-4.8 1.5M92.8 26.4c.2.3-.4 1-1.3 1.5-.9.6-1.8.8-1.9.5-.2-.3.4-1 1.3-1.5.8-.6 1.7-.8 1.9-.5zM84.8 30.6c.2.3-.4 1-1.2 1.6-.9.6-1.7.8-1.9.5-.2-.3.4-1 1.2-1.6.9-.5 1.8-.8 1.9-.5z" class="st10"/></g></svg>