<?xml version="1.0" encoding="utf-8"?>
<!-- Generator: Adobe Illustrator 28.0.0, SVG Export Plug-In . SVG Version: 6.00 Build 0)  -->
<svg version="1.1" id="_レイヤー_1" xmlns="http://www.w3.org/2000/svg" xmlns:xlink="http://www.w3.org/1999/xlink" x="0px"
	 y="0px" viewBox="0 0 380.2 550.9" style="enable-background:new 0 0 380.2 550.9;" xml:space="preserve">
<style type="text/css">
	.st0{fill:#26271B;}
	.st1{fill:url(#SVGID_1_);}
	.st2{fill:#4E3052;}
	.st3{fill:#F9EDCA;}
	.st4{fill:url(#SVGID_00000090978633866583437400000008194255276097945272_);}
</style>
<path class="st0" d="M1.5,535h377.2c0.8,0,1.5,0.7,1.5,1.5v8c0,0.8-0.7,1.5-1.5,1.5H1.5c-0.8,0-1.5-0.7-1.5-1.5v-8
	C0,535.7,0.7,535,1.5,535z"/>
<linearGradient id="SVGID_1_" gradientUnits="userSpaceOnUse" x1="1574.7" y1="-944.2" x2="1595.6" y2="-944.2" gradientTransform="matrix(6.123234e-17 1 1 -6.123234e-17 1134.3 -1044.7)">
	<stop  offset="0" style="stop-color:#4E3052"/>
	<stop  offset="0.5" style="stop-color:#85528C"/>
	<stop  offset="0.6" style="stop-color:#814F87"/>
	<stop  offset="0.8" style="stop-color:#75487B"/>
	<stop  offset="0.9" style="stop-color:#613C66"/>
	<stop  offset="1" style="stop-color:#4E3052"/>
</linearGradient>
<rect x="9.1" y="530" class="st1" width="362" height="20.9"/>
<rect x="9" y="16.9" class="st2" width="362" height="513.2"/>
<rect x="23.8" y="16.9" class="st3" width="332.5" height="513.2"/>
<path class="st0" d="M1.5,5h377.2c0.8,0,1.5,0.7,1.5,1.5v8c0,0.8-0.7,1.5-1.5,1.5H1.5C0.7,16,0,15.3,0,14.5v-8C0,5.7,0.7,5,1.5,5z"
	/>
<linearGradient id="SVGID_00000003089991033514052440000001757308683542360218_" gradientUnits="userSpaceOnUse" x1="1044.7" y1="-944.3" x2="1065.6" y2="-944.3" gradientTransform="matrix(6.123234e-17 1 1 -6.123234e-17 1134.3 -1044.7)">
	<stop  offset="0" style="stop-color:#4E3052"/>
	<stop  offset="0.5" style="stop-color:#85528C"/>
	<stop  offset="0.6" style="stop-color:#814F87"/>
	<stop  offset="0.8" style="stop-color:#75487B"/>
	<stop  offset="0.9" style="stop-color:#613C66"/>
	<stop  offset="1" style="stop-color:#4E3052"/>
</linearGradient>
<rect x="9" style="fill:url(#SVGID_00000003089991033514052440000001757308683542360218_);" width="362" height="20.9"/>
</svg>
